<svg viewBox="0 0 50 12" fill="none" stroke-width="2" stroke="currentColor" aria-hidden="true">
  <path d="M1.4858 0.818182V11H-0.000710189V0.818182H1.4858ZM6.70224 11.1541C5.98633 11.1541 5.36156 10.9901 4.82795 10.6619C4.29433 10.3338 3.88003 9.87476 3.58505 9.2848C3.29007 8.69484 3.14258 8.00544 3.14258 7.21662C3.14258 6.42448 3.29007 5.73177 3.58505 5.13849C3.88003 4.54522 4.29433 4.08452 4.82795 3.75639C5.36156 3.42827 5.98633 3.2642 6.70224 3.2642C7.41815 3.2642 8.04291 3.42827 8.57653 3.75639C9.11014 4.08452 9.52444 4.54522 9.81942 5.13849C10.1144 5.73177 10.2619 6.42448 10.2619 7.21662C10.2619 8.00544 10.1144 8.69484 9.81942 9.2848C9.52444 9.87476 9.11014 10.3338 8.57653 10.6619C8.04291 10.9901 7.41815 11.1541 6.70224 11.1541ZM6.70721 9.90625C7.17122 9.90625 7.55569 9.78362 7.86062 9.53835C8.16554 9.29309 8.39092 8.96662 8.53675 8.55895C8.6859 8.15128 8.76048 7.70218 8.76048 7.21165C8.76048 6.72443 8.6859 6.27699 8.53675 5.86932C8.39092 5.45833 8.16554 5.12855 7.86062 4.87997C7.55569 4.63139 7.17122 4.5071 6.70721 4.5071C6.23988 4.5071 5.8521 4.63139 5.54386 4.87997C5.23893 5.12855 5.0119 5.45833 4.86275 5.86932C4.71692 6.27699 4.644 6.72443 4.644 7.21165C4.644 7.70218 4.71692 8.15128 4.86275 8.55895C5.0119 8.96662 5.23893 9.29309 5.54386 9.53835C5.8521 9.78362 6.23988 9.90625 6.70721 9.90625ZM15.1378 11.1541C14.3987 11.1541 13.7623 10.9867 13.2287 10.652C12.6984 10.3139 12.2907 9.84825 12.0057 9.25497C11.7206 8.66169 11.5781 7.98224 11.5781 7.21662C11.5781 6.44105 11.724 5.75663 12.0156 5.16335C12.3073 4.56676 12.7183 4.10109 13.2486 3.76633C13.7789 3.43158 14.4036 3.2642 15.1229 3.2642C15.7029 3.2642 16.2199 3.37192 16.674 3.58736C17.1281 3.79948 17.4943 4.09777 17.7727 4.48224C18.0545 4.86671 18.2218 5.31581 18.2749 5.82955H16.8281C16.7486 5.47159 16.5663 5.16335 16.2812 4.90483C15.9995 4.64631 15.6217 4.51705 15.1477 4.51705C14.7334 4.51705 14.3705 4.62642 14.0589 4.84517C13.7507 5.06061 13.5104 5.36884 13.3381 5.76989C13.1657 6.16761 13.0795 6.63826 13.0795 7.18182C13.0795 7.73864 13.1641 8.21922 13.3331 8.62358C13.5021 9.02794 13.7408 9.34115 14.049 9.56321C14.3606 9.78527 14.7268 9.89631 15.1477 9.89631C15.4295 9.89631 15.6847 9.84493 15.9134 9.74219C16.1454 9.63613 16.3393 9.48532 16.495 9.28977C16.6541 9.09422 16.7652 8.8589 16.8281 8.58381H18.2749C18.2218 9.07765 18.0611 9.51847 17.7926 9.90625C17.5241 10.294 17.1645 10.599 16.7138 10.821C16.2663 11.0431 15.741 11.1541 15.1378 11.1541ZM21.2317 8.4098L21.2218 6.59517H21.4803L24.5229 3.36364H26.3027L22.8326 7.04261H22.5989L21.2317 8.4098ZM19.8645 11V0.818182H21.351V11H19.8645ZM24.687 11L21.9526 7.37074L22.9767 6.33168L26.5115 11H24.687ZM31.6373 6.05327V7.34091H27.123V6.05327H31.6373ZM37.1433 11.169C36.3578 11.1657 35.6866 10.9586 35.1298 10.5476C34.573 10.1366 34.1471 9.53835 33.8521 8.75284C33.5571 7.96733 33.4096 7.02107 33.4096 5.91406C33.4096 4.81037 33.5571 3.86742 33.8521 3.08523C34.1504 2.30303 34.5779 1.70644 35.1348 1.29545C35.6949 0.884469 36.3644 0.678977 37.1433 0.678977C37.9222 0.678977 38.59 0.886126 39.1468 1.30043C39.7037 1.71141 40.1296 2.308 40.4245 3.0902C40.7228 3.86908 40.872 4.81037 40.872 5.91406C40.872 7.02438 40.7245 7.9723 40.4295 8.75781C40.1345 9.54001 39.7086 10.1383 39.1518 10.5526C38.595 10.9635 37.9255 11.169 37.1433 11.169ZM37.1433 9.84162C37.8327 9.84162 38.3713 9.50521 38.7591 8.83239C39.1502 8.15956 39.3457 7.18679 39.3457 5.91406C39.3457 5.06889 39.2562 4.35464 39.0772 3.77131C38.9016 3.18466 38.648 2.74053 38.3166 2.43892C37.9885 2.134 37.5974 1.98153 37.1433 1.98153C36.4572 1.98153 35.9186 2.3196 35.5275 2.99574C35.1364 3.67187 34.9392 4.64465 34.9359 5.91406C34.9359 6.76255 35.0237 7.48011 35.1994 8.06676C35.3784 8.65009 35.6319 9.09257 35.96 9.39418C36.2882 9.69247 36.6826 9.84162 37.1433 9.84162ZM46.1804 11.1392C45.4976 11.1392 44.8878 11.0215 44.3509 10.7862C43.8172 10.5509 43.3946 10.2244 43.0831 9.80682C42.7749 9.38589 42.6091 8.89867 42.5859 8.34517H44.147C44.1669 8.64678 44.268 8.90862 44.4503 9.13068C44.6359 9.34943 44.8778 9.51847 45.1761 9.63778C45.4744 9.7571 45.8059 9.81676 46.1705 9.81676C46.5715 9.81676 46.9261 9.74716 47.2344 9.60795C47.5459 9.46875 47.7895 9.27486 47.9652 9.02628C48.1409 8.77438 48.2287 8.48438 48.2287 8.15625C48.2287 7.81487 48.1409 7.51491 47.9652 7.25639C47.7929 6.99455 47.5393 6.78906 47.2045 6.63991C46.8731 6.49077 46.4721 6.41619 46.0014 6.41619H45.1413V5.16335H46.0014C46.3793 5.16335 46.7107 5.09541 46.9957 4.95952C47.2841 4.82363 47.5095 4.63471 47.6719 4.39276C47.8343 4.14749 47.9155 3.8608 47.9155 3.53267C47.9155 3.2178 47.8442 2.94437 47.7017 2.71236C47.5625 2.47704 47.3636 2.29309 47.1051 2.16051C46.8499 2.02794 46.5483 1.96165 46.2003 1.96165C45.8688 1.96165 45.5589 2.02296 45.2706 2.1456C44.9856 2.26491 44.7536 2.43726 44.5746 2.66264C44.3956 2.88471 44.2995 3.15151 44.2862 3.46307H42.7997C42.8163 2.91288 42.9787 2.42898 43.2869 2.01136C43.5985 1.59375 44.0095 1.26728 44.5199 1.03196C45.0303 0.796638 45.5971 0.678977 46.2202 0.678977C46.8731 0.678977 47.4366 0.806581 47.9105 1.06179C48.3878 1.31368 48.7557 1.65009 49.0142 2.07102C49.276 2.49195 49.4053 2.95265 49.402 3.45312C49.4053 4.0232 49.2462 4.5071 48.9247 4.90483C48.6065 5.30256 48.1823 5.56937 47.652 5.70526V5.7848C48.3281 5.88755 48.8518 6.15601 49.223 6.5902C49.5975 7.02438 49.7831 7.56297 49.7798 8.20597C49.7831 8.7661 49.6274 9.26823 49.3125 9.71236C49.0009 10.1565 48.575 10.5062 48.0348 10.7614C47.4946 11.0133 46.8764 11.1392 46.1804 11.1392Z" fill="black"/>
</svg>
