<svg viewBox="0 0 98 14" fill="none" stroke-width="2" stroke="currentColor" aria-hidden="true">
  <path d="M-0.000710189 13.8636V3.36364H1.45099V4.60156H1.57528C1.66146 4.44247 1.78575 4.25852 1.94815 4.04972C2.11056 3.84091 2.33594 3.65862 2.62429 3.50284C2.91264 3.34375 3.2938 3.2642 3.76776 3.2642C4.38423 3.2642 4.93442 3.41998 5.41832 3.73153C5.90223 4.04309 6.28172 4.49219 6.55682 5.07884C6.83523 5.66548 6.97443 6.37145 6.97443 7.19673C6.97443 8.02202 6.83688 8.72964 6.56179 9.3196C6.2867 9.90625 5.90885 10.3587 5.42827 10.6768C4.94768 10.9917 4.39915 11.1491 3.78267 11.1491C3.31866 11.1491 2.93916 11.0713 2.64418 10.9155C2.35251 10.7597 2.12382 10.5774 1.9581 10.3686C1.79238 10.1598 1.66477 9.9742 1.57528 9.81179H1.4858V13.8636H-0.000710189ZM1.45597 7.18182C1.45597 7.71875 1.53385 8.18939 1.68963 8.59375C1.84541 8.99811 2.07079 9.31463 2.36577 9.54332C2.66075 9.7687 3.02202 9.88139 3.44957 9.88139C3.8937 9.88139 4.26491 9.76373 4.56321 9.52841C4.86151 9.28977 5.08688 8.96662 5.23935 8.55895C5.39512 8.15128 5.47301 7.69223 5.47301 7.18182C5.47301 6.67803 5.39678 6.22562 5.24432 5.82457C5.09517 5.42353 4.86979 5.10701 4.56818 4.875C4.26989 4.64299 3.89702 4.52699 3.44957 4.52699C3.0187 4.52699 2.65412 4.63802 2.35582 4.86009C2.06084 5.08215 1.83712 5.39205 1.68466 5.78977C1.5322 6.1875 1.45597 6.65151 1.45597 7.18182ZM10.8622 11.169C10.3783 11.169 9.94081 11.0795 9.54972 10.9006C9.15862 10.7183 8.84872 10.4548 8.62003 10.1101C8.39465 9.76539 8.28196 9.3428 8.28196 8.84233C8.28196 8.41146 8.36482 8.05682 8.53054 7.77841C8.69626 7.5 8.91998 7.27959 9.2017 7.11719C9.48343 6.95478 9.7983 6.83215 10.1463 6.74929C10.4943 6.66643 10.849 6.60346 11.2102 6.56037C11.6676 6.50734 12.0388 6.46425 12.3239 6.43111C12.6089 6.39465 12.8161 6.33665 12.9453 6.2571C13.0746 6.17756 13.1392 6.0483 13.1392 5.86932V5.83452C13.1392 5.40033 13.0166 5.06392 12.7713 4.82528C12.5294 4.58665 12.1681 4.46733 11.6875 4.46733C11.187 4.46733 10.7926 4.57836 10.5043 4.80043C10.2192 5.01918 10.022 5.26278 9.91264 5.53125L8.51562 5.21307C8.68134 4.74905 8.9233 4.37453 9.24148 4.08949C9.56297 3.80114 9.93253 3.59233 10.3501 3.46307C10.7678 3.33049 11.2069 3.2642 11.6676 3.2642C11.9725 3.2642 12.2957 3.30066 12.6371 3.37358C12.9818 3.44318 13.3033 3.57244 13.6016 3.76136C13.9032 3.95028 14.1501 4.22041 14.3423 4.57173C14.5346 4.91974 14.6307 5.37216 14.6307 5.92898V11H13.179V9.95597H13.1193C13.0232 10.1482 12.879 10.3371 12.6868 10.5227C12.4946 10.7083 12.2476 10.8625 11.946 10.9851C11.6444 11.1077 11.2831 11.169 10.8622 11.169ZM11.1854 9.97585C11.5964 9.97585 11.9477 9.89465 12.2393 9.73224C12.5343 9.56984 12.758 9.35772 12.9105 9.09588C13.0663 8.83073 13.1442 8.54735 13.1442 8.24574V7.26136C13.0911 7.31439 12.9884 7.36411 12.8359 7.41051C12.6868 7.4536 12.5161 7.49171 12.3239 7.52486C12.1316 7.55469 11.9444 7.58286 11.7621 7.60938C11.5798 7.63258 11.4273 7.65246 11.3047 7.66903C11.0163 7.70549 10.7528 7.76681 10.5142 7.85298C10.2789 7.93916 10.09 8.06345 9.94744 8.22585C9.80824 8.38494 9.73864 8.59706 9.73864 8.86222C9.73864 9.23011 9.87453 9.50852 10.1463 9.69744C10.4181 9.88305 10.7644 9.97585 11.1854 9.97585ZM22.3329 5.22798L20.9856 5.46662C20.9293 5.29427 20.8398 5.13021 20.7172 4.97443C20.5978 4.81865 20.4354 4.69105 20.2299 4.59162C20.0244 4.49219 19.7676 4.44247 19.4593 4.44247C19.0384 4.44247 18.6871 4.53693 18.4054 4.72585C18.1236 4.91146 17.9828 5.15175 17.9828 5.44673C17.9828 5.70194 18.0772 5.90743 18.2662 6.06321C18.4551 6.21899 18.76 6.34659 19.1809 6.44602L20.394 6.72443C21.0967 6.88684 21.6203 7.13707 21.965 7.47514C22.3097 7.81321 22.4821 8.25237 22.4821 8.79261C22.4821 9.25 22.3495 9.65767 22.0843 10.0156C21.8225 10.3703 21.4563 10.6487 20.9856 10.8509C20.5183 11.053 19.9764 11.1541 19.3599 11.1541C18.5048 11.1541 17.8071 10.9718 17.2669 10.6072C16.7266 10.2393 16.3952 9.71733 16.2725 9.04119L17.7093 8.82244C17.7988 9.19697 17.9828 9.48035 18.2612 9.67259C18.5396 9.86151 18.9025 9.95597 19.35 9.95597C19.8372 9.95597 20.2266 9.85488 20.5183 9.6527C20.81 9.44721 20.9558 9.19697 20.9558 8.90199C20.9558 8.66335 20.8663 8.46283 20.6873 8.30043C20.5117 8.13802 20.2415 8.01539 19.877 7.93253L18.5843 7.64915C17.8717 7.48674 17.3448 7.22822 17.0034 6.87358C16.6653 6.51894 16.4963 6.06984 16.4963 5.52628C16.4963 5.07552 16.6222 4.68111 16.8741 4.34304C17.126 4.00497 17.474 3.74148 17.9181 3.55256C18.3623 3.36032 18.871 3.2642 19.4444 3.2642C20.2697 3.2642 20.9193 3.44318 21.3933 3.80114C21.8672 4.15578 22.1805 4.63139 22.3329 5.22798ZM29.8388 5.22798L28.4915 5.46662C28.4351 5.29427 28.3456 5.13021 28.223 4.97443C28.1037 4.81865 27.9413 4.69105 27.7358 4.59162C27.5303 4.49219 27.2734 4.44247 26.9652 4.44247C26.5443 4.44247 26.1929 4.53693 25.9112 4.72585C25.6295 4.91146 25.4886 5.15175 25.4886 5.44673C25.4886 5.70194 25.5831 5.90743 25.772 6.06321C25.9609 6.21899 26.2659 6.34659 26.6868 6.44602L27.8999 6.72443C28.6025 6.88684 29.1262 7.13707 29.4709 7.47514C29.8156 7.81321 29.9879 8.25237 29.9879 8.79261C29.9879 9.25 29.8554 9.65767 29.5902 10.0156C29.3284 10.3703 28.9621 10.6487 28.4915 10.8509C28.0241 11.053 27.4822 11.1541 26.8658 11.1541C26.0107 11.1541 25.313 10.9718 24.7727 10.6072C24.2325 10.2393 23.901 9.71733 23.7784 9.04119L25.2152 8.82244C25.3047 9.19697 25.4886 9.48035 25.767 9.67259C26.0455 9.86151 26.4084 9.95597 26.8558 9.95597C27.343 9.95597 27.7325 9.85488 28.0241 9.6527C28.3158 9.44721 28.4616 9.19697 28.4616 8.90199C28.4616 8.66335 28.3722 8.46283 28.1932 8.30043C28.0175 8.13802 27.7474 8.01539 27.3828 7.93253L26.0902 7.64915C25.3776 7.48674 24.8506 7.22822 24.5092 6.87358C24.1712 6.51894 24.0021 6.06984 24.0021 5.52628C24.0021 5.07552 24.1281 4.68111 24.38 4.34304C24.6319 4.00497 24.9799 3.74148 25.424 3.55256C25.8681 3.36032 26.3769 3.2642 26.9503 3.2642C27.7756 3.2642 28.4252 3.44318 28.8991 3.80114C29.3731 4.15578 29.6863 4.63139 29.8388 5.22798ZM34.839 11.1541C34.0998 11.1541 33.4635 10.9867 32.9299 10.652C32.3996 10.3139 31.9919 9.84825 31.7069 9.25497C31.4218 8.66169 31.2793 7.98224 31.2793 7.21662C31.2793 6.44105 31.4251 5.75663 31.7168 5.16335C32.0085 4.56676 32.4194 4.10109 32.9498 3.76633C33.4801 3.43158 34.1048 3.2642 34.824 3.2642C35.4041 3.2642 35.9211 3.37192 36.3752 3.58736C36.8292 3.79948 37.1955 4.09777 37.4739 4.48224C37.7556 4.86671 37.923 5.31581 37.976 5.82955H36.5293C36.4498 5.47159 36.2675 5.16335 35.9824 4.90483C35.7007 4.64631 35.3229 4.51705 34.8489 4.51705C34.4346 4.51705 34.0717 4.62642 33.7601 4.84517C33.4519 5.06061 33.2116 5.36884 33.0392 5.76989C32.8669 6.16761 32.7807 6.63826 32.7807 7.18182C32.7807 7.73864 32.8652 8.21922 33.0343 8.62358C33.2033 9.02794 33.4419 9.34115 33.7502 9.56321C34.0617 9.78527 34.428 9.89631 34.8489 9.89631C35.1306 9.89631 35.3858 9.84493 35.6145 9.74219C35.8465 9.63613 36.0404 9.48532 36.1962 9.28977C36.3553 9.09422 36.4663 8.8589 36.5293 8.58381H37.976C37.923 9.07765 37.7623 9.51847 37.4938 9.90625C37.2253 10.294 36.8657 10.599 36.415 10.821C35.9675 11.0431 35.4422 11.1541 34.839 11.1541ZM42.7823 11.1541C42.0664 11.1541 41.4416 10.9901 40.908 10.6619C40.3744 10.3338 39.9601 9.87476 39.6651 9.2848C39.3701 8.69484 39.2227 8.00544 39.2227 7.21662C39.2227 6.42448 39.3701 5.73177 39.6651 5.13849C39.9601 4.54522 40.3744 4.08452 40.908 3.75639C41.4416 3.42827 42.0664 3.2642 42.7823 3.2642C43.4982 3.2642 44.123 3.42827 44.6566 3.75639C45.1902 4.08452 45.6045 4.54522 45.8995 5.13849C46.1945 5.73177 46.342 6.42448 46.342 7.21662C46.342 8.00544 46.1945 8.69484 45.8995 9.2848C45.6045 9.87476 45.1902 10.3338 44.6566 10.6619C44.123 10.9901 43.4982 11.1541 42.7823 11.1541ZM42.7873 9.90625C43.2513 9.90625 43.6358 9.78362 43.9407 9.53835C44.2456 9.29309 44.471 8.96662 44.6168 8.55895C44.766 8.15128 44.8406 7.70218 44.8406 7.21165C44.8406 6.72443 44.766 6.27699 44.6168 5.86932C44.471 5.45833 44.2456 5.12855 43.9407 4.87997C43.6358 4.63139 43.2513 4.5071 42.7873 4.5071C42.32 4.5071 41.9322 4.63139 41.6239 4.87997C41.319 5.12855 41.092 5.45833 40.9428 5.86932C40.797 6.27699 40.7241 6.72443 40.7241 7.21165C40.7241 7.70218 40.797 8.15128 40.9428 8.55895C41.092 8.96662 41.319 9.29309 41.6239 9.53835C41.9322 9.78362 42.32 9.90625 42.7873 9.90625ZM50.8599 11.1491C50.2434 11.1491 49.6932 10.9917 49.2093 10.6768C48.7288 10.3587 48.3509 9.90625 48.0758 9.3196C47.804 8.72964 47.6681 8.02202 47.6681 7.19673C47.6681 6.37145 47.8057 5.66548 48.0808 5.07884C48.3592 4.49219 48.7404 4.04309 49.2243 3.73153C49.7082 3.41998 50.2567 3.2642 50.8699 3.2642C51.3438 3.2642 51.725 3.34375 52.0133 3.50284C52.305 3.65862 52.5304 3.84091 52.6895 4.04972C52.8519 4.25852 52.9778 4.44247 53.0673 4.60156H53.1568V0.818182H54.6433V11H53.1916V9.81179H53.0673C52.9778 9.9742 52.8485 10.1598 52.6795 10.3686C52.5138 10.5774 52.2851 10.7597 51.9934 10.9155C51.7018 11.0713 51.3239 11.1491 50.8599 11.1491ZM51.188 9.88139C51.6156 9.88139 51.9769 9.7687 52.2718 9.54332C52.5701 9.31463 52.7955 8.99811 52.948 8.59375C53.1038 8.18939 53.1816 7.71875 53.1816 7.18182C53.1816 6.65151 53.1054 6.1875 52.9529 5.78977C52.8005 5.39205 52.5768 5.08215 52.2818 4.86009C51.9868 4.63802 51.6222 4.52699 51.188 4.52699C50.7406 4.52699 50.3677 4.64299 50.0694 4.875C49.7711 5.10701 49.5458 5.42353 49.3933 5.82457C49.2441 6.22562 49.1696 6.67803 49.1696 7.18182C49.1696 7.69223 49.2458 8.15128 49.3983 8.55895C49.5507 8.96662 49.7761 9.28977 50.0744 9.52841C50.376 9.76373 50.7472 9.88139 51.188 9.88139ZM60.0561 11.1541C59.3037 11.1541 58.6558 10.9934 58.1122 10.6719C57.572 10.3471 57.1544 9.89134 56.8594 9.30469C56.5677 8.71473 56.4219 8.02367 56.4219 7.23153C56.4219 6.44934 56.5677 5.75994 56.8594 5.16335C57.1544 4.56676 57.5653 4.10109 58.0923 3.76633C58.6226 3.43158 59.2424 3.2642 59.9517 3.2642C60.3826 3.2642 60.8002 3.33546 61.2045 3.47798C61.6089 3.6205 61.9718 3.84422 62.2933 4.14915C62.6148 4.45407 62.8684 4.85014 63.054 5.33736C63.2396 5.82126 63.3324 6.40956 63.3324 7.10227V7.62926H57.2621V6.51562H61.8757C61.8757 6.12453 61.7962 5.77817 61.6371 5.47656C61.478 5.17164 61.2543 4.93134 60.9659 4.75568C60.6809 4.58002 60.3461 4.49219 59.9616 4.49219C59.544 4.49219 59.1795 4.59493 58.8679 4.80043C58.5597 5.0026 58.321 5.26776 58.152 5.59588C57.9863 5.92069 57.9034 6.27367 57.9034 6.65483V7.52486C57.9034 8.03527 57.9929 8.46946 58.1719 8.82741C58.3542 9.18537 58.6077 9.45881 58.9325 9.64773C59.2573 9.83333 59.6368 9.92614 60.071 9.92614C60.3527 9.92614 60.6096 9.88636 60.8416 9.80682C61.0736 9.72396 61.2741 9.60133 61.4432 9.43892C61.6122 9.27652 61.7415 9.07599 61.831 8.83736L63.2379 9.09091C63.1252 9.50521 62.9231 9.86813 62.6314 10.1797C62.343 10.4879 61.9801 10.7282 61.5426 10.9006C61.1084 11.0696 60.6129 11.1541 60.0561 11.1541ZM69.481 6.05327V7.34091H64.9668V6.05327H69.481ZM72.9487 0.818182V11H71.4622V0.818182H72.9487ZM78.1651 11.1541C77.4492 11.1541 76.8245 10.9901 76.2908 10.6619C75.7572 10.3338 75.3429 9.87476 75.0479 9.2848C74.753 8.69484 74.6055 8.00544 74.6055 7.21662C74.6055 6.42448 74.753 5.73177 75.0479 5.13849C75.3429 4.54522 75.7572 4.08452 76.2908 3.75639C76.8245 3.42827 77.4492 3.2642 78.1651 3.2642C78.881 3.2642 79.5058 3.42827 80.0394 3.75639C80.573 4.08452 80.9873 4.54522 81.2823 5.13849C81.5773 5.73177 81.7248 6.42448 81.7248 7.21662C81.7248 8.00544 81.5773 8.69484 81.2823 9.2848C80.9873 9.87476 80.573 10.3338 80.0394 10.6619C79.5058 10.9901 78.881 11.1541 78.1651 11.1541ZM78.1701 9.90625C78.6341 9.90625 79.0186 9.78362 79.3235 9.53835C79.6284 9.29309 79.8538 8.96662 79.9996 8.55895C80.1488 8.15128 80.2234 7.70218 80.2234 7.21165C80.2234 6.72443 80.1488 6.27699 79.9996 5.86932C79.8538 5.45833 79.6284 5.12855 79.3235 4.87997C79.0186 4.63139 78.6341 4.5071 78.1701 4.5071C77.7028 4.5071 77.315 4.63139 77.0067 4.87997C76.7018 5.12855 76.4748 5.45833 76.3256 5.86932C76.1798 6.27699 76.1069 6.72443 76.1069 7.21165C76.1069 7.70218 76.1798 8.15128 76.3256 8.55895C76.4748 8.96662 76.7018 9.29309 77.0067 9.53835C77.315 9.78362 77.7028 9.90625 78.1701 9.90625ZM86.6007 11.1541C85.8616 11.1541 85.2252 10.9867 84.6916 10.652C84.1613 10.3139 83.7536 9.84825 83.4686 9.25497C83.1835 8.66169 83.041 7.98224 83.041 7.21662C83.041 6.44105 83.1868 5.75663 83.4785 5.16335C83.7702 4.56676 84.1812 4.10109 84.7115 3.76633C85.2418 3.43158 85.8665 3.2642 86.5858 3.2642C87.1658 3.2642 87.6828 3.37192 88.1369 3.58736C88.591 3.79948 88.9572 4.09777 89.2356 4.48224C89.5173 4.86671 89.6847 5.31581 89.7377 5.82955H88.291C88.2115 5.47159 88.0292 5.16335 87.7441 4.90483C87.4624 4.64631 87.0846 4.51705 86.6106 4.51705C86.1963 4.51705 85.8334 4.62642 85.5218 4.84517C85.2136 5.06061 84.9733 5.36884 84.801 5.76989C84.6286 6.16761 84.5424 6.63826 84.5424 7.18182C84.5424 7.73864 84.627 8.21922 84.796 8.62358C84.965 9.02794 85.2037 9.34115 85.5119 9.56321C85.8234 9.78527 86.1897 9.89631 86.6106 9.89631C86.8923 9.89631 87.1475 9.84493 87.3762 9.74219C87.6083 9.63613 87.8021 9.48532 87.9579 9.28977C88.117 9.09422 88.228 8.8589 88.291 8.58381H89.7377C89.6847 9.07765 89.524 9.51847 89.2555 9.90625C88.987 10.294 88.6274 10.599 88.1767 10.821C87.7292 11.0431 87.2039 11.1541 86.6007 11.1541ZM92.6946 8.4098L92.6847 6.59517H92.9432L95.9858 3.36364H97.7656L94.2955 7.04261H94.0618L92.6946 8.4098ZM91.3274 11V0.818182H92.8139V11H91.3274ZM96.1499 11L93.4155 7.37074L94.4396 6.33168L97.9744 11H96.1499Z" fill="black"/>
</svg>
