<svg viewBox="0 0 71 14" fill="none" stroke-width="2" stroke="currentColor" aria-hidden="true">
  <path d="M6.72159 5.22798L5.37429 5.46662C5.31795 5.29427 5.22846 5.13021 5.10582 4.97443C4.98651 4.81865 4.8241 4.69105 4.61861 4.59162C4.41312 4.49219 4.15625 4.44247 3.84801 4.44247C3.42708 4.44247 3.07576 4.53693 2.79403 4.72585C2.51231 4.91146 2.37145 5.15175 2.37145 5.44673C2.37145 5.70194 2.46591 5.90743 2.65483 6.06321C2.84375 6.21899 3.14867 6.34659 3.5696 6.44602L4.78267 6.72443C5.48532 6.88684 6.009 7.13707 6.35369 7.47514C6.69839 7.81321 6.87074 8.25237 6.87074 8.79261C6.87074 9.25 6.73816 9.65767 6.47301 10.0156C6.21117 10.3703 5.84493 10.6487 5.37429 10.8509C4.90696 11.053 4.36506 11.1541 3.74858 11.1541C2.89347 11.1541 2.19579 10.9718 1.65554 10.6072C1.11529 10.2393 0.783854 9.71733 0.661222 9.04119L2.09801 8.82244C2.1875 9.19697 2.37145 9.48035 2.64986 9.67259C2.92827 9.86151 3.29119 9.95597 3.73864 9.95597C4.22585 9.95597 4.61529 9.85488 4.90696 9.6527C5.19863 9.44721 5.34446 9.19697 5.34446 8.90199C5.34446 8.66335 5.25497 8.46283 5.07599 8.30043C4.90033 8.13802 4.63021 8.01539 4.26562 7.93253L2.97301 7.64915C2.26042 7.48674 1.73343 7.22822 1.39205 6.87358C1.05398 6.51894 0.884943 6.06984 0.884943 5.52628C0.884943 5.07552 1.01089 4.68111 1.26278 4.34304C1.51468 4.00497 1.86269 3.74148 2.30682 3.55256C2.75095 3.36032 3.25971 3.2642 3.8331 3.2642C4.65838 3.2642 5.308 3.44318 5.78196 3.80114C6.25592 4.15578 6.56913 4.63139 6.72159 5.22798ZM9.99165 6.46591V11H8.50515V0.818182H9.97177V4.60653H10.0662C10.2452 4.19555 10.5186 3.86908 10.8865 3.62713C11.2544 3.38518 11.735 3.2642 12.3283 3.2642C12.852 3.2642 13.3094 3.37192 13.7005 3.58736C14.0949 3.80279 14.3998 4.12429 14.6152 4.55185C14.834 4.97609 14.9434 5.50639 14.9434 6.14276V11H13.4569V6.32173C13.4569 5.7616 13.3127 5.32741 13.0243 5.01918C12.736 4.70762 12.3349 4.55185 11.8212 4.55185C11.4699 4.55185 11.155 4.62642 10.8766 4.77557C10.6015 4.92472 10.3844 5.14347 10.2253 5.43182C10.0695 5.71686 9.99165 6.06155 9.99165 6.46591ZM16.927 11V3.36364H18.4135V11H16.927ZM17.6777 2.18537C17.4192 2.18537 17.1971 2.09919 17.0115 1.92685C16.8292 1.75118 16.7381 1.54238 16.7381 1.30043C16.7381 1.05516 16.8292 0.846354 17.0115 0.674005C17.1971 0.498342 17.4192 0.410511 17.6777 0.410511C17.9363 0.410511 18.1567 0.498342 18.339 0.674005C18.5246 0.846354 18.6174 1.05516 18.6174 1.30043C18.6174 1.54238 18.5246 1.75118 18.339 1.92685C18.1567 2.09919 17.9363 2.18537 17.6777 2.18537ZM23.7045 11.1541C22.9522 11.1541 22.3042 10.9934 21.7607 10.6719C21.2204 10.3471 20.8028 9.89134 20.5078 9.30469C20.2161 8.71473 20.0703 8.02367 20.0703 7.23153C20.0703 6.44934 20.2161 5.75994 20.5078 5.16335C20.8028 4.56676 21.2138 4.10109 21.7408 3.76633C22.2711 3.43158 22.8909 3.2642 23.6001 3.2642C24.031 3.2642 24.4486 3.33546 24.853 3.47798C25.2573 3.6205 25.6203 3.84422 25.9418 4.14915C26.2633 4.45407 26.5168 4.85014 26.7024 5.33736C26.888 5.82126 26.9808 6.40956 26.9808 7.10227V7.62926H20.9105V6.51562H25.5241C25.5241 6.12453 25.4446 5.77817 25.2855 5.47656C25.1264 5.17164 24.9027 4.93134 24.6143 4.75568C24.3293 4.58002 23.9946 4.49219 23.6101 4.49219C23.1925 4.49219 22.8279 4.59493 22.5163 4.80043C22.2081 5.0026 21.9695 5.26776 21.8004 5.59588C21.6347 5.92069 21.5518 6.27367 21.5518 6.65483V7.52486C21.5518 8.03527 21.6413 8.46946 21.8203 8.82741C22.0026 9.18537 22.2562 9.45881 22.581 9.64773C22.9058 9.83333 23.2853 9.92614 23.7195 9.92614C24.0012 9.92614 24.258 9.88636 24.4901 9.80682C24.7221 9.72396 24.9226 9.60133 25.0916 9.43892C25.2607 9.27652 25.3899 9.07599 25.4794 8.83736L26.8864 9.09091C26.7737 9.50521 26.5715 9.86813 26.2798 10.1797C25.9915 10.4879 25.6286 10.7282 25.1911 10.9006C24.7569 11.0696 24.2614 11.1541 23.7045 11.1541ZM30.1167 0.818182V11H28.6301V0.818182H30.1167ZM34.9751 11.1491C34.3587 11.1491 33.8085 10.9917 33.3246 10.6768C32.844 10.3587 32.4661 9.90625 32.1911 9.3196C31.9193 8.72964 31.7834 8.02202 31.7834 7.19673C31.7834 6.37145 31.9209 5.66548 32.196 5.07884C32.4744 4.49219 32.8556 4.04309 33.3395 3.73153C33.8234 3.41998 34.3719 3.2642 34.9851 3.2642C35.459 3.2642 35.8402 3.34375 36.1286 3.50284C36.4202 3.65862 36.6456 3.84091 36.8047 4.04972C36.9671 4.25852 37.093 4.44247 37.1825 4.60156H37.272V0.818182H38.7585V11H37.3068V9.81179H37.1825C37.093 9.9742 36.9638 10.1598 36.7947 10.3686C36.629 10.5774 36.4003 10.7597 36.1087 10.9155C35.817 11.0713 35.4392 11.1491 34.9751 11.1491ZM35.3033 9.88139C35.7308 9.88139 36.0921 9.7687 36.3871 9.54332C36.6854 9.31463 36.9107 8.99811 37.0632 8.59375C37.219 8.18939 37.2969 7.71875 37.2969 7.18182C37.2969 6.65151 37.2206 6.1875 37.0682 5.78977C36.9157 5.39205 36.692 5.08215 36.397 4.86009C36.102 4.63802 35.7375 4.52699 35.3033 4.52699C34.8558 4.52699 34.483 4.64299 34.1847 4.875C33.8864 5.10701 33.661 5.42353 33.5085 5.82457C33.3594 6.22562 33.2848 6.67803 33.2848 7.18182C33.2848 7.69223 33.361 8.15128 33.5135 8.55895C33.666 8.96662 33.8913 9.28977 34.1896 9.52841C34.4912 9.76373 34.8625 9.88139 35.3033 9.88139ZM45.3794 6.05327V7.34091H40.8652V6.05327H45.3794ZM47.2015 11V9.98082L51.3379 4.72585V4.65625H47.3358V3.36364H53.1923V4.44744L49.215 9.63778V9.70739H53.3315V11H47.2015ZM57.3075 11.169C56.8236 11.169 56.3861 11.0795 55.995 10.9006C55.6039 10.7183 55.294 10.4548 55.0653 10.1101C54.84 9.76539 54.7273 9.3428 54.7273 8.84233C54.7273 8.41146 54.8101 8.05682 54.9759 7.77841C55.1416 7.5 55.3653 7.27959 55.647 7.11719C55.9287 6.95478 56.2436 6.83215 56.5916 6.74929C56.9396 6.66643 57.2943 6.60346 57.6555 6.56037C58.1129 6.50734 58.4841 6.46425 58.7692 6.43111C59.0542 6.39465 59.2614 6.33665 59.3906 6.2571C59.5199 6.17756 59.5845 6.0483 59.5845 5.86932V5.83452C59.5845 5.40033 59.4619 5.06392 59.2166 4.82528C58.9747 4.58665 58.6134 4.46733 58.1328 4.46733C57.6323 4.46733 57.2379 4.57836 56.9496 4.80043C56.6645 5.01918 56.4673 5.26278 56.358 5.53125L54.9609 5.21307C55.1267 4.74905 55.3686 4.37453 55.6868 4.08949C56.0083 3.80114 56.3778 3.59233 56.7955 3.46307C57.2131 3.33049 57.6522 3.2642 58.1129 3.2642C58.4179 3.2642 58.741 3.30066 59.0824 3.37358C59.4271 3.44318 59.7486 3.57244 60.0469 3.76136C60.3485 3.95028 60.5954 4.22041 60.7876 4.57173C60.9799 4.91974 61.076 5.37216 61.076 5.92898V11H59.6243V9.95597H59.5646C59.4685 10.1482 59.3243 10.3371 59.1321 10.5227C58.9399 10.7083 58.6929 10.8625 58.3913 10.9851C58.0897 11.1077 57.7285 11.169 57.3075 11.169ZM57.6307 9.97585C58.0417 9.97585 58.393 9.89465 58.6847 9.73224C58.9796 9.56984 59.2034 9.35772 59.3558 9.09588C59.5116 8.83073 59.5895 8.54735 59.5895 8.24574V7.26136C59.5365 7.31439 59.4337 7.36411 59.2812 7.41051C59.1321 7.4536 58.9614 7.49171 58.7692 7.52486C58.5769 7.55469 58.3897 7.58286 58.2074 7.60938C58.0251 7.63258 57.8726 7.65246 57.75 7.66903C57.4616 7.70549 57.1982 7.76681 56.9595 7.85298C56.7242 7.93916 56.5353 8.06345 56.3928 8.22585C56.2536 8.38494 56.1839 8.59706 56.1839 8.86222C56.1839 9.23011 56.3198 9.50852 56.5916 9.69744C56.8634 9.88305 57.2098 9.97585 57.6307 9.97585ZM63.0559 13.8636V3.36364H64.5076V4.60156H64.6319C64.7181 4.44247 64.8424 4.25852 65.0048 4.04972C65.1672 3.84091 65.3926 3.65862 65.6809 3.50284C65.9693 3.34375 66.3504 3.2642 66.8244 3.2642C67.4409 3.2642 67.9911 3.41998 68.475 3.73153C68.9589 4.04309 69.3384 4.49219 69.6135 5.07884C69.8919 5.66548 70.0311 6.37145 70.0311 7.19673C70.0311 8.02202 69.8935 8.72964 69.6184 9.3196C69.3433 9.90625 68.9655 10.3587 68.4849 10.6768C68.0043 10.9917 67.4558 11.1491 66.8393 11.1491C66.3753 11.1491 65.9958 11.0713 65.7008 10.9155C65.4092 10.7597 65.1805 10.5774 65.0147 10.3686C64.849 10.1598 64.7214 9.9742 64.6319 9.81179H64.5424V13.8636H63.0559ZM64.5126 7.18182C64.5126 7.71875 64.5905 8.18939 64.7463 8.59375C64.902 8.99811 65.1274 9.31463 65.4224 9.54332C65.7174 9.7687 66.0787 9.88139 66.5062 9.88139C66.9503 9.88139 67.3216 9.76373 67.6199 9.52841C67.9181 9.28977 68.1435 8.96662 68.296 8.55895C68.4518 8.15128 68.5297 7.69223 68.5297 7.18182C68.5297 6.67803 68.4534 6.22562 68.301 5.82457C68.1518 5.42353 67.9264 5.10701 67.6248 4.875C67.3265 4.64299 66.9537 4.52699 66.5062 4.52699C66.0753 4.52699 65.7108 4.63802 65.4125 4.86009C65.1175 5.08215 64.8938 5.39205 64.7413 5.78977C64.5888 6.1875 64.5126 6.65151 64.5126 7.18182Z" fill="black"/>
</svg>
