<svg viewBox="0 0 64 12" fill="none" stroke-width="2" stroke="currentColor" aria-hidden="true">
  <path d="M6.72159 5.22798L5.37429 5.46662C5.31795 5.29427 5.22846 5.13021 5.10582 4.97443C4.98651 4.81865 4.8241 4.69105 4.61861 4.59162C4.41312 4.49219 4.15625 4.44247 3.84801 4.44247C3.42708 4.44247 3.07576 4.53693 2.79403 4.72585C2.51231 4.91146 2.37145 5.15175 2.37145 5.44673C2.37145 5.70194 2.46591 5.90743 2.65483 6.06321C2.84375 6.21899 3.14867 6.34659 3.5696 6.44602L4.78267 6.72443C5.48532 6.88684 6.009 7.13707 6.35369 7.47514C6.69839 7.81321 6.87074 8.25237 6.87074 8.79261C6.87074 9.25 6.73816 9.65767 6.47301 10.0156C6.21117 10.3703 5.84493 10.6487 5.37429 10.8509C4.90696 11.053 4.36506 11.1541 3.74858 11.1541C2.89347 11.1541 2.19579 10.9718 1.65554 10.6072C1.11529 10.2393 0.783854 9.71733 0.661222 9.04119L2.09801 8.82244C2.1875 9.19697 2.37145 9.48035 2.64986 9.67259C2.92827 9.86151 3.29119 9.95597 3.73864 9.95597C4.22585 9.95597 4.61529 9.85488 4.90696 9.6527C5.19863 9.44721 5.34446 9.19697 5.34446 8.90199C5.34446 8.66335 5.25497 8.46283 5.07599 8.30043C4.90033 8.13802 4.63021 8.01539 4.26562 7.93253L2.97301 7.64915C2.26042 7.48674 1.73343 7.22822 1.39205 6.87358C1.05398 6.51894 0.884943 6.06984 0.884943 5.52628C0.884943 5.07552 1.01089 4.68111 1.26278 4.34304C1.51468 4.00497 1.86269 3.74148 2.30682 3.55256C2.75095 3.36032 3.25971 3.2642 3.8331 3.2642C4.65838 3.2642 5.308 3.44318 5.78196 3.80114C6.25592 4.15578 6.56913 4.63139 6.72159 5.22798ZM9.99165 6.46591V11H8.50515V0.818182H9.97177V4.60653H10.0662C10.2452 4.19555 10.5186 3.86908 10.8865 3.62713C11.2544 3.38518 11.735 3.2642 12.3283 3.2642C12.852 3.2642 13.3094 3.37192 13.7005 3.58736C14.0949 3.80279 14.3998 4.12429 14.6152 4.55185C14.834 4.97609 14.9434 5.50639 14.9434 6.14276V11H13.4569V6.32173C13.4569 5.7616 13.3127 5.32741 13.0243 5.01918C12.736 4.70762 12.3349 4.55185 11.8212 4.55185C11.4699 4.55185 11.155 4.62642 10.8766 4.77557C10.6015 4.92472 10.3844 5.14347 10.2253 5.43182C10.0695 5.71686 9.99165 6.06155 9.99165 6.46591ZM16.927 11V3.36364H18.4135V11H16.927ZM17.6777 2.18537C17.4192 2.18537 17.1971 2.09919 17.0115 1.92685C16.8292 1.75118 16.7381 1.54238 16.7381 1.30043C16.7381 1.05516 16.8292 0.846354 17.0115 0.674005C17.1971 0.498342 17.4192 0.410511 17.6777 0.410511C17.9363 0.410511 18.1567 0.498342 18.339 0.674005C18.5246 0.846354 18.6174 1.05516 18.6174 1.30043C18.6174 1.54238 18.5246 1.75118 18.339 1.92685C18.1567 2.09919 17.9363 2.18537 17.6777 2.18537ZM23.7045 11.1541C22.9522 11.1541 22.3042 10.9934 21.7607 10.6719C21.2204 10.3471 20.8028 9.89134 20.5078 9.30469C20.2161 8.71473 20.0703 8.02367 20.0703 7.23153C20.0703 6.44934 20.2161 5.75994 20.5078 5.16335C20.8028 4.56676 21.2138 4.10109 21.7408 3.76633C22.2711 3.43158 22.8909 3.2642 23.6001 3.2642C24.031 3.2642 24.4486 3.33546 24.853 3.47798C25.2573 3.6205 25.6203 3.84422 25.9418 4.14915C26.2633 4.45407 26.5168 4.85014 26.7024 5.33736C26.888 5.82126 26.9808 6.40956 26.9808 7.10227V7.62926H20.9105V6.51562H25.5241C25.5241 6.12453 25.4446 5.77817 25.2855 5.47656C25.1264 5.17164 24.9027 4.93134 24.6143 4.75568C24.3293 4.58002 23.9946 4.49219 23.6101 4.49219C23.1925 4.49219 22.8279 4.59493 22.5163 4.80043C22.2081 5.0026 21.9695 5.26776 21.8004 5.59588C21.6347 5.92069 21.5518 6.27367 21.5518 6.65483V7.52486C21.5518 8.03527 21.6413 8.46946 21.8203 8.82741C22.0026 9.18537 22.2562 9.45881 22.581 9.64773C22.9058 9.83333 23.2853 9.92614 23.7195 9.92614C24.0012 9.92614 24.258 9.88636 24.4901 9.80682C24.7221 9.72396 24.9226 9.60133 25.0916 9.43892C25.2607 9.27652 25.3899 9.07599 25.4794 8.83736L26.8864 9.09091C26.7737 9.50521 26.5715 9.86813 26.2798 10.1797C25.9915 10.4879 25.6286 10.7282 25.1911 10.9006C24.7569 11.0696 24.2614 11.1541 23.7045 11.1541ZM30.1167 0.818182V11H28.6301V0.818182H30.1167ZM34.9751 11.1491C34.3587 11.1491 33.8085 10.9917 33.3246 10.6768C32.844 10.3587 32.4661 9.90625 32.1911 9.3196C31.9193 8.72964 31.7834 8.02202 31.7834 7.19673C31.7834 6.37145 31.9209 5.66548 32.196 5.07884C32.4744 4.49219 32.8556 4.04309 33.3395 3.73153C33.8234 3.41998 34.3719 3.2642 34.9851 3.2642C35.459 3.2642 35.8402 3.34375 36.1286 3.50284C36.4202 3.65862 36.6456 3.84091 36.8047 4.04972C36.9671 4.25852 37.093 4.44247 37.1825 4.60156H37.272V0.818182H38.7585V11H37.3068V9.81179H37.1825C37.093 9.9742 36.9638 10.1598 36.7947 10.3686C36.629 10.5774 36.4003 10.7597 36.1087 10.9155C35.817 11.0713 35.4392 11.1491 34.9751 11.1491ZM35.3033 9.88139C35.7308 9.88139 36.0921 9.7687 36.3871 9.54332C36.6854 9.31463 36.9107 8.99811 37.0632 8.59375C37.219 8.18939 37.2969 7.71875 37.2969 7.18182C37.2969 6.65151 37.2206 6.1875 37.0682 5.78977C36.9157 5.39205 36.692 5.08215 36.397 4.86009C36.102 4.63802 35.7375 4.52699 35.3033 4.52699C34.8558 4.52699 34.483 4.64299 34.1847 4.875C33.8864 5.10701 33.661 5.42353 33.5085 5.82457C33.3594 6.22562 33.2848 6.67803 33.2848 7.18182C33.2848 7.69223 33.361 8.15128 33.5135 8.55895C33.666 8.96662 33.8913 9.28977 34.1896 9.52841C34.4912 9.76373 34.8625 9.88139 35.3033 9.88139ZM45.3794 6.05327V7.34091H40.8652V6.05327H45.3794ZM50.8855 11.169C50.1 11.1657 49.4288 10.9586 48.872 10.5476C48.3152 10.1366 47.8893 9.53835 47.5943 8.75284C47.2993 7.96733 47.1518 7.02107 47.1518 5.91406C47.1518 4.81037 47.2993 3.86742 47.5943 3.08523C47.8926 2.30303 48.3201 1.70644 48.877 1.29545C49.4371 0.884469 50.1066 0.678977 50.8855 0.678977C51.6644 0.678977 52.3322 0.886126 52.889 1.30043C53.4458 1.71141 53.8717 2.308 54.1667 3.0902C54.465 3.86908 54.6142 4.81037 54.6142 5.91406C54.6142 7.02438 54.4667 7.9723 54.1717 8.75781C53.8767 9.54001 53.4508 10.1383 52.894 10.5526C52.3372 10.9635 51.6677 11.169 50.8855 11.169ZM50.8855 9.84162C51.5749 9.84162 52.1135 9.50521 52.5012 8.83239C52.8923 8.15956 53.0879 7.18679 53.0879 5.91406C53.0879 5.06889 52.9984 4.35464 52.8194 3.77131C52.6438 3.18466 52.3902 2.74053 52.0588 2.43892C51.7306 2.134 51.3395 1.98153 50.8855 1.98153C50.1994 1.98153 49.6608 2.3196 49.2697 2.99574C48.8786 3.67187 48.6814 4.64465 48.6781 5.91406C48.6781 6.76255 48.7659 7.48011 48.9416 8.06676C49.1206 8.65009 49.3741 9.09257 49.7022 9.39418C50.0304 9.69247 50.4248 9.84162 50.8855 9.84162ZM56.3778 11V9.88636L59.8232 6.31676C60.1911 5.92898 60.4943 5.58925 60.733 5.29759C60.9749 5.0026 61.1555 4.72254 61.2749 4.45739C61.3942 4.19223 61.4538 3.91051 61.4538 3.61222C61.4538 3.27415 61.3743 2.98248 61.2152 2.73722C61.0561 2.48864 60.839 2.29806 60.5639 2.16548C60.2888 2.02959 59.9789 1.96165 59.6342 1.96165C59.2696 1.96165 58.9515 2.03622 58.6797 2.18537C58.4079 2.33452 58.1991 2.54498 58.0533 2.81676C57.9074 3.08854 57.8345 3.40672 57.8345 3.77131H56.3679C56.3679 3.15151 56.5104 2.60961 56.7955 2.1456C57.0805 1.68158 57.4716 1.32197 57.9688 1.06676C58.4659 0.808238 59.031 0.678977 59.6641 0.678977C60.3037 0.678977 60.8672 0.806581 61.3544 1.06179C61.8449 1.31368 62.2277 1.65838 62.5028 2.09588C62.7779 2.53007 62.9155 3.0206 62.9155 3.56747C62.9155 3.94531 62.8442 4.31487 62.7017 4.67614C62.5625 5.0374 62.3189 5.4401 61.9709 5.88423C61.6229 6.32505 61.139 6.86032 60.5192 7.49006L58.4957 9.60795V9.68253H63.0795V11H56.3778Z" fill="black"/>
</svg>
