<svg viewBox="0 0 84 12" fill="none" stroke-width="2" stroke="currentColor" aria-hidden="true">
  <path d="M4.63352 3.36364V4.55682H0.318182V3.36364H4.63352ZM1.50142 11V2.47869C1.50142 2.00142 1.60582 1.60535 1.81463 1.29048C2.02344 0.972301 2.30019 0.735322 2.64489 0.579545C2.98958 0.420454 3.36411 0.340908 3.76847 0.340908C4.06676 0.340908 4.32197 0.365767 4.53409 0.415483C4.74621 0.461884 4.90365 0.504971 5.00639 0.544744L4.65838 1.74787C4.58878 1.72798 4.49929 1.70478 4.38991 1.67827C4.28054 1.64844 4.14796 1.63352 3.99219 1.63352C3.63092 1.63352 3.3724 1.72301 3.21662 1.90199C3.06416 2.08097 2.98793 2.33949 2.98793 2.67756V11H1.50142ZM9.0831 11.1541C8.36719 11.1541 7.74242 10.9901 7.20881 10.6619C6.67519 10.3338 6.26089 9.87476 5.96591 9.2848C5.67093 8.69484 5.52344 8.00544 5.52344 7.21662C5.52344 6.42448 5.67093 5.73177 5.96591 5.13849C6.26089 4.54522 6.67519 4.08452 7.20881 3.75639C7.74242 3.42827 8.36719 3.2642 9.0831 3.2642C9.79901 3.2642 10.4238 3.42827 10.9574 3.75639C11.491 4.08452 11.9053 4.54522 12.2003 5.13849C12.4953 5.73177 12.6428 6.42448 12.6428 7.21662C12.6428 8.00544 12.4953 8.69484 12.2003 9.2848C11.9053 9.87476 11.491 10.3338 10.9574 10.6619C10.4238 10.9901 9.79901 11.1541 9.0831 11.1541ZM9.08807 9.90625C9.55208 9.90625 9.93655 9.78362 10.2415 9.53835C10.5464 9.29309 10.7718 8.96662 10.9176 8.55895C11.0668 8.15128 11.1413 7.70218 11.1413 7.21165C11.1413 6.72443 11.0668 6.27699 10.9176 5.86932C10.7718 5.45833 10.5464 5.12855 10.2415 4.87997C9.93655 4.63139 9.55208 4.5071 9.08807 4.5071C8.62074 4.5071 8.23295 4.63139 7.92472 4.87997C7.61979 5.12855 7.39276 5.45833 7.24361 5.86932C7.09777 6.27699 7.02486 6.72443 7.02486 7.21165C7.02486 7.70218 7.09777 8.15128 7.24361 8.55895C7.39276 8.96662 7.61979 9.29309 7.92472 9.53835C8.23295 9.78362 8.62074 9.90625 9.08807 9.90625ZM15.7885 0.818182V11H14.302V0.818182H15.7885ZM20.647 11.1491C20.0305 11.1491 19.4804 10.9917 18.9964 10.6768C18.5159 10.3587 18.138 9.90625 17.8629 9.3196C17.5911 8.72964 17.4553 8.02202 17.4553 7.19673C17.4553 6.37145 17.5928 5.66548 17.8679 5.07884C18.1463 4.49219 18.5275 4.04309 19.0114 3.73153C19.4953 3.41998 20.0438 3.2642 20.657 3.2642C21.1309 3.2642 21.5121 3.34375 21.8004 3.50284C22.0921 3.65862 22.3175 3.84091 22.4766 4.04972C22.639 4.25852 22.7649 4.44247 22.8544 4.60156H22.9439V0.818182H24.4304V11H22.9787V9.81179H22.8544C22.7649 9.9742 22.6357 10.1598 22.4666 10.3686C22.3009 10.5774 22.0722 10.7597 21.7805 10.9155C21.4889 11.0713 21.111 11.1491 20.647 11.1491ZM20.9751 9.88139C21.4027 9.88139 21.764 9.7687 22.0589 9.54332C22.3572 9.31463 22.5826 8.99811 22.7351 8.59375C22.8909 8.18939 22.9688 7.71875 22.9688 7.18182C22.9688 6.65151 22.8925 6.1875 22.7401 5.78977C22.5876 5.39205 22.3639 5.08215 22.0689 4.86009C21.7739 4.63802 21.4093 4.52699 20.9751 4.52699C20.5277 4.52699 20.1548 4.64299 19.8565 4.875C19.5582 5.10701 19.3329 5.42353 19.1804 5.82457C19.0313 6.22562 18.9567 6.67803 18.9567 7.18182C18.9567 7.69223 19.0329 8.15128 19.1854 8.55895C19.3378 8.96662 19.5632 9.28977 19.8615 9.52841C20.1631 9.76373 20.5343 9.88139 20.9751 9.88139ZM29.8432 11.1541C29.0908 11.1541 28.4429 10.9934 27.8993 10.6719C27.3591 10.3471 26.9415 9.89134 26.6465 9.30469C26.3548 8.71473 26.209 8.02367 26.209 7.23153C26.209 6.44934 26.3548 5.75994 26.6465 5.16335C26.9415 4.56676 27.3525 4.10109 27.8794 3.76633C28.4097 3.43158 29.0295 3.2642 29.7388 3.2642C30.1697 3.2642 30.5873 3.33546 30.9917 3.47798C31.396 3.6205 31.7589 3.84422 32.0804 4.14915C32.4019 4.45407 32.6555 4.85014 32.8411 5.33736C33.0267 5.82126 33.1195 6.40956 33.1195 7.10227V7.62926H27.0492V6.51562H31.6628C31.6628 6.12453 31.5833 5.77817 31.4242 5.47656C31.2651 5.17164 31.0414 4.93134 30.753 4.75568C30.468 4.58002 30.1332 4.49219 29.7488 4.49219C29.3311 4.49219 28.9666 4.59493 28.655 4.80043C28.3468 5.0026 28.1081 5.26776 27.9391 5.59588C27.7734 5.92069 27.6905 6.27367 27.6905 6.65483V7.52486C27.6905 8.03527 27.78 8.46946 27.959 8.82741C28.1413 9.18537 28.3948 9.45881 28.7196 9.64773C29.0444 9.83333 29.4239 9.92614 29.8581 9.92614C30.1399 9.92614 30.3967 9.88636 30.6287 9.80682C30.8607 9.72396 31.0613 9.60133 31.2303 9.43892C31.3993 9.27652 31.5286 9.07599 31.6181 8.83736L33.025 9.09091C32.9123 9.50521 32.7102 9.86813 32.4185 10.1797C32.1301 10.4879 31.7672 10.7282 31.3297 10.9006C30.8955 11.0696 30.4 11.1541 29.8432 11.1541ZM34.7688 11V3.36364H36.2056V4.5767H36.2852C36.4244 4.16572 36.6696 3.84257 37.021 3.60724C37.3756 3.36861 37.7766 3.24929 38.2241 3.24929C38.3169 3.24929 38.4263 3.2526 38.5522 3.25923C38.6815 3.26586 38.7826 3.27415 38.8555 3.28409V4.70597C38.7958 4.68939 38.6897 4.67116 38.5373 4.65128C38.3848 4.62808 38.2324 4.61648 38.0799 4.61648C37.7286 4.61648 37.4154 4.69105 37.1403 4.8402C36.8685 4.98603 36.6531 5.18987 36.494 5.4517C36.3349 5.71023 36.2553 6.00521 36.2553 6.33665V11H34.7688ZM44.19 6.05327V7.34091H39.6758V6.05327H44.19ZM51.8935 5.22798L50.5462 5.46662C50.4898 5.29427 50.4003 5.13021 50.2777 4.97443C50.1584 4.81865 49.996 4.69105 49.7905 4.59162C49.585 4.49219 49.3281 4.44247 49.0199 4.44247C48.599 4.44247 48.2476 4.53693 47.9659 4.72585C47.6842 4.91146 47.5433 5.15175 47.5433 5.44673C47.5433 5.70194 47.6378 5.90743 47.8267 6.06321C48.0156 6.21899 48.3205 6.34659 48.7415 6.44602L49.9545 6.72443C50.6572 6.88684 51.1809 7.13707 51.5256 7.47514C51.8703 7.81321 52.0426 8.25237 52.0426 8.79261C52.0426 9.25 51.91 9.65767 51.6449 10.0156C51.383 10.3703 51.0168 10.6487 50.5462 10.8509C50.0788 11.053 49.5369 11.1541 48.9205 11.1541C48.0653 11.1541 47.3677 10.9718 46.8274 10.6072C46.2872 10.2393 45.9557 9.71733 45.8331 9.04119L47.2699 8.82244C47.3594 9.19697 47.5433 9.48035 47.8217 9.67259C48.1001 9.86151 48.4631 9.95597 48.9105 9.95597C49.3977 9.95597 49.7872 9.85488 50.0788 9.6527C50.3705 9.44721 50.5163 9.19697 50.5163 8.90199C50.5163 8.66335 50.4268 8.46283 50.2479 8.30043C50.0722 8.13802 49.8021 8.01539 49.4375 7.93253L48.1449 7.64915C47.4323 7.48674 46.9053 7.22822 46.5639 6.87358C46.2259 6.51894 46.0568 6.06984 46.0568 5.52628C46.0568 5.07552 46.1828 4.68111 46.4347 4.34304C46.6866 4.00497 47.0346 3.74148 47.4787 3.55256C47.9228 3.36032 48.4316 3.2642 49.005 3.2642C49.8303 3.2642 50.4799 3.44318 50.9538 3.80114C51.4278 4.15578 51.741 4.63139 51.8935 5.22798ZM55.1635 6.46591V11H53.677V0.818182H55.1436V4.60653H55.2381C55.4171 4.19555 55.6905 3.86908 56.0584 3.62713C56.4263 3.38518 56.9069 3.2642 57.5002 3.2642C58.0239 3.2642 58.4812 3.37192 58.8723 3.58736C59.2667 3.80279 59.5717 4.12429 59.7871 4.55185C60.0059 4.97609 60.1152 5.50639 60.1152 6.14276V11H58.6287V6.32173C58.6287 5.7616 58.4846 5.32741 58.1962 5.01918C57.9078 4.70762 57.5068 4.55185 56.9931 4.55185C56.6417 4.55185 56.3269 4.62642 56.0485 4.77557C55.7734 4.92472 55.5563 5.14347 55.3972 5.43182C55.2414 5.71686 55.1635 6.06155 55.1635 6.46591ZM62.0989 11V3.36364H63.5854V11H62.0989ZM62.8496 2.18537C62.5911 2.18537 62.369 2.09919 62.1834 1.92685C62.0011 1.75118 61.91 1.54238 61.91 1.30043C61.91 1.05516 62.0011 0.846354 62.1834 0.674005C62.369 0.498342 62.5911 0.410511 62.8496 0.410511C63.1081 0.410511 63.3285 0.498342 63.5108 0.674005C63.6964 0.846354 63.7892 1.05516 63.7892 1.30043C63.7892 1.54238 63.6964 1.75118 63.5108 1.92685C63.3285 2.09919 63.1081 2.18537 62.8496 2.18537ZM68.8764 11.1541C68.1241 11.1541 67.4761 10.9934 66.9325 10.6719C66.3923 10.3471 65.9747 9.89134 65.6797 9.30469C65.388 8.71473 65.2422 8.02367 65.2422 7.23153C65.2422 6.44934 65.388 5.75994 65.6797 5.16335C65.9747 4.56676 66.3857 4.10109 66.9126 3.76633C67.4429 3.43158 68.0627 3.2642 68.772 3.2642C69.2029 3.2642 69.6205 3.33546 70.0249 3.47798C70.4292 3.6205 70.7921 3.84422 71.1136 4.14915C71.4351 4.45407 71.6887 4.85014 71.8743 5.33736C72.0599 5.82126 72.1527 6.40956 72.1527 7.10227V7.62926H66.0824V6.51562H70.696C70.696 6.12453 70.6165 5.77817 70.4574 5.47656C70.2983 5.17164 70.0746 4.93134 69.7862 4.75568C69.5012 4.58002 69.1664 4.49219 68.782 4.49219C68.3643 4.49219 67.9998 4.59493 67.6882 4.80043C67.38 5.0026 67.1413 5.26776 66.9723 5.59588C66.8066 5.92069 66.7237 6.27367 66.7237 6.65483V7.52486C66.7237 8.03527 66.8132 8.46946 66.9922 8.82741C67.1745 9.18537 67.428 9.45881 67.7528 9.64773C68.0777 9.83333 68.4571 9.92614 68.8913 9.92614C69.1731 9.92614 69.4299 9.88636 69.6619 9.80682C69.8939 9.72396 70.0945 9.60133 70.2635 9.43892C70.4325 9.27652 70.5618 9.07599 70.6513 8.83736L72.0582 9.09091C71.9455 9.50521 71.7434 9.86813 71.4517 10.1797C71.1634 10.4879 70.8004 10.7282 70.3629 10.9006C69.9287 11.0696 69.4332 11.1541 68.8764 11.1541ZM75.2885 0.818182V11H73.802V0.818182H75.2885ZM80.147 11.1491C79.5305 11.1491 78.9804 10.9917 78.4964 10.6768C78.0159 10.3587 77.638 9.90625 77.3629 9.3196C77.0911 8.72964 76.9553 8.02202 76.9553 7.19673C76.9553 6.37145 77.0928 5.66548 77.3679 5.07884C77.6463 4.49219 78.0275 4.04309 78.5114 3.73153C78.9953 3.41998 79.5438 3.2642 80.157 3.2642C80.6309 3.2642 81.0121 3.34375 81.3004 3.50284C81.5921 3.65862 81.8175 3.84091 81.9766 4.04972C82.139 4.25852 82.2649 4.44247 82.3544 4.60156H82.4439V0.818182H83.9304V11H82.4787V9.81179H82.3544C82.2649 9.9742 82.1357 10.1598 81.9666 10.3686C81.8009 10.5774 81.5722 10.7597 81.2805 10.9155C80.9889 11.0713 80.611 11.1491 80.147 11.1491ZM80.4751 9.88139C80.9027 9.88139 81.264 9.7687 81.5589 9.54332C81.8572 9.31463 82.0826 8.99811 82.2351 8.59375C82.3909 8.18939 82.4688 7.71875 82.4688 7.18182C82.4688 6.65151 82.3925 6.1875 82.2401 5.78977C82.0876 5.39205 81.8639 5.08215 81.5689 4.86009C81.2739 4.63802 80.9093 4.52699 80.4751 4.52699C80.0277 4.52699 79.6548 4.64299 79.3565 4.875C79.0582 5.10701 78.8329 5.42353 78.6804 5.82457C78.5313 6.22562 78.4567 6.67803 78.4567 7.18182C78.4567 7.69223 78.5329 8.15128 78.6854 8.55895C78.8378 8.96662 79.0632 9.28977 79.3615 9.52841C79.6631 9.76373 80.0343 9.88139 80.4751 9.88139Z" fill="black"/>
</svg>
