<svg viewBox="0 0 118 12" fill="none" stroke-width="2" stroke="currentColor" aria-hidden="true">
  <path d="M1.4858 0.818182V11H-0.000710189V0.818182H1.4858ZM6.70224 11.1541C5.98633 11.1541 5.36156 10.9901 4.82795 10.6619C4.29433 10.3338 3.88003 9.87476 3.58505 9.2848C3.29007 8.69484 3.14258 8.00544 3.14258 7.21662C3.14258 6.42448 3.29007 5.73177 3.58505 5.13849C3.88003 4.54522 4.29433 4.08452 4.82795 3.75639C5.36156 3.42827 5.98633 3.2642 6.70224 3.2642C7.41815 3.2642 8.04291 3.42827 8.57653 3.75639C9.11014 4.08452 9.52444 4.54522 9.81942 5.13849C10.1144 5.73177 10.2619 6.42448 10.2619 7.21662C10.2619 8.00544 10.1144 8.69484 9.81942 9.2848C9.52444 9.87476 9.11014 10.3338 8.57653 10.6619C8.04291 10.9901 7.41815 11.1541 6.70224 11.1541ZM6.70721 9.90625C7.17122 9.90625 7.55569 9.78362 7.86062 9.53835C8.16554 9.29309 8.39092 8.96662 8.53675 8.55895C8.6859 8.15128 8.76048 7.70218 8.76048 7.21165C8.76048 6.72443 8.6859 6.27699 8.53675 5.86932C8.39092 5.45833 8.16554 5.12855 7.86062 4.87997C7.55569 4.63139 7.17122 4.5071 6.70721 4.5071C6.23988 4.5071 5.8521 4.63139 5.54386 4.87997C5.23893 5.12855 5.0119 5.45833 4.86275 5.86932C4.71692 6.27699 4.644 6.72443 4.644 7.21165C4.644 7.70218 4.71692 8.15128 4.86275 8.55895C5.0119 8.96662 5.23893 9.29309 5.54386 9.53835C5.8521 9.78362 6.23988 9.90625 6.70721 9.90625ZM15.1378 11.1541C14.3987 11.1541 13.7623 10.9867 13.2287 10.652C12.6984 10.3139 12.2907 9.84825 12.0057 9.25497C11.7206 8.66169 11.5781 7.98224 11.5781 7.21662C11.5781 6.44105 11.724 5.75663 12.0156 5.16335C12.3073 4.56676 12.7183 4.10109 13.2486 3.76633C13.7789 3.43158 14.4036 3.2642 15.1229 3.2642C15.7029 3.2642 16.2199 3.37192 16.674 3.58736C17.1281 3.79948 17.4943 4.09777 17.7727 4.48224C18.0545 4.86671 18.2218 5.31581 18.2749 5.82955H16.8281C16.7486 5.47159 16.5663 5.16335 16.2812 4.90483C15.9995 4.64631 15.6217 4.51705 15.1477 4.51705C14.7334 4.51705 14.3705 4.62642 14.0589 4.84517C13.7507 5.06061 13.5104 5.36884 13.3381 5.76989C13.1657 6.16761 13.0795 6.63826 13.0795 7.18182C13.0795 7.73864 13.1641 8.21922 13.3331 8.62358C13.5021 9.02794 13.7408 9.34115 14.049 9.56321C14.3606 9.78527 14.7268 9.89631 15.1477 9.89631C15.4295 9.89631 15.6847 9.84493 15.9134 9.74219C16.1454 9.63613 16.3393 9.48532 16.495 9.28977C16.6541 9.09422 16.7652 8.8589 16.8281 8.58381H18.2749C18.2218 9.07765 18.0611 9.51847 17.7926 9.90625C17.5241 10.294 17.1645 10.599 16.7138 10.821C16.2663 11.0431 15.741 11.1541 15.1378 11.1541ZM21.2317 8.4098L21.2218 6.59517H21.4803L24.5229 3.36364H26.3027L22.8326 7.04261H22.5989L21.2317 8.4098ZM19.8645 11V0.818182H21.351V11H19.8645ZM24.687 11L21.9526 7.37074L22.9767 6.33168L26.5115 11H24.687ZM31.6373 6.05327V7.34091H27.123V6.05327H31.6373ZM38.4558 7.8331V3.36364H39.9473V11H38.4856V9.67756H38.4061C38.2304 10.0852 37.9487 10.425 37.5609 10.6967C37.1764 10.9652 36.6975 11.0994 36.1241 11.0994C35.6336 11.0994 35.1994 10.9917 34.8216 10.7763C34.447 10.5575 34.152 10.2344 33.9366 9.80682C33.7245 9.37926 33.6184 8.85062 33.6184 8.22088V3.36364H35.1049V8.0419C35.1049 8.56226 35.2491 8.97656 35.5375 9.2848C35.8258 9.59304 36.2003 9.74716 36.661 9.74716C36.9395 9.74716 37.2162 9.67756 37.4913 9.53835C37.7697 9.39915 38.0001 9.18868 38.1824 8.90696C38.368 8.62524 38.4591 8.26728 38.4558 7.8331ZM43.4311 6.46591V11H41.9446V3.36364H43.3714V4.60653H43.4659C43.6416 4.20218 43.9167 3.87737 44.2912 3.6321C44.669 3.38684 45.1446 3.2642 45.718 3.2642C46.2384 3.2642 46.6941 3.37358 47.0852 3.59233C47.4763 3.80777 47.7796 4.12926 47.995 4.55682C48.2105 4.98437 48.3182 5.51302 48.3182 6.14276V11H46.8317V6.32173C46.8317 5.76823 46.6875 5.3357 46.3991 5.02415C46.1108 4.70928 45.7147 4.55185 45.2109 4.55185C44.8662 4.55185 44.5597 4.62642 44.2912 4.77557C44.026 4.92472 43.8156 5.14347 43.6598 5.43182C43.5073 5.71686 43.4311 6.06155 43.4311 6.46591ZM51.7983 0.818182V11H50.3118V0.818182H51.7983ZM57.0147 11.1541C56.2988 11.1541 55.6741 10.9901 55.1404 10.6619C54.6068 10.3338 54.1925 9.87476 53.8975 9.2848C53.6026 8.69484 53.4551 8.00544 53.4551 7.21662C53.4551 6.42448 53.6026 5.73177 53.8975 5.13849C54.1925 4.54522 54.6068 4.08452 55.1404 3.75639C55.6741 3.42827 56.2988 3.2642 57.0147 3.2642C57.7306 3.2642 58.3554 3.42827 58.889 3.75639C59.4226 4.08452 59.8369 4.54522 60.1319 5.13849C60.4269 5.73177 60.5744 6.42448 60.5744 7.21662C60.5744 8.00544 60.4269 8.69484 60.1319 9.2848C59.8369 9.87476 59.4226 10.3338 58.889 10.6619C58.3554 10.9901 57.7306 11.1541 57.0147 11.1541ZM57.0197 9.90625C57.4837 9.90625 57.8682 9.78362 58.1731 9.53835C58.478 9.29309 58.7034 8.96662 58.8493 8.55895C58.9984 8.15128 59.073 7.70218 59.073 7.21165C59.073 6.72443 58.9984 6.27699 58.8493 5.86932C58.7034 5.45833 58.478 5.12855 58.1731 4.87997C57.8682 4.63139 57.4837 4.5071 57.0197 4.5071C56.5524 4.5071 56.1646 4.63139 55.8564 4.87997C55.5514 5.12855 55.3244 5.45833 55.1752 5.86932C55.0294 6.27699 54.9565 6.72443 54.9565 7.21165C54.9565 7.70218 55.0294 8.15128 55.1752 8.55895C55.3244 8.96662 55.5514 9.29309 55.8564 9.53835C56.1646 9.78362 56.5524 9.90625 57.0197 9.90625ZM65.4503 11.1541C64.7112 11.1541 64.0748 10.9867 63.5412 10.652C63.0109 10.3139 62.6032 9.84825 62.3182 9.25497C62.0331 8.66169 61.8906 7.98224 61.8906 7.21662C61.8906 6.44105 62.0365 5.75663 62.3281 5.16335C62.6198 4.56676 63.0308 4.10109 63.5611 3.76633C64.0914 3.43158 64.7161 3.2642 65.4354 3.2642C66.0154 3.2642 66.5324 3.37192 66.9865 3.58736C67.4406 3.79948 67.8068 4.09777 68.0852 4.48224C68.367 4.86671 68.5343 5.31581 68.5874 5.82955H67.1406C67.0611 5.47159 66.8788 5.16335 66.5938 4.90483C66.312 4.64631 65.9342 4.51705 65.4602 4.51705C65.0459 4.51705 64.683 4.62642 64.3714 4.84517C64.0632 5.06061 63.8229 5.36884 63.6506 5.76989C63.4782 6.16761 63.392 6.63826 63.392 7.18182C63.392 7.73864 63.4766 8.21922 63.6456 8.62358C63.8146 9.02794 64.0533 9.34115 64.3615 9.56321C64.6731 9.78527 65.0393 9.89631 65.4602 9.89631C65.742 9.89631 65.9972 9.84493 66.2259 9.74219C66.4579 9.63613 66.6518 9.48532 66.8075 9.28977C66.9666 9.09422 67.0777 8.8589 67.1406 8.58381H68.5874C68.5343 9.07765 68.3736 9.51847 68.1051 9.90625C67.8366 10.294 67.477 10.599 67.0263 10.821C66.5788 11.0431 66.0535 11.1541 65.4503 11.1541ZM71.5442 8.4098L71.5343 6.59517H71.7928L74.8354 3.36364H76.6152L73.1451 7.04261H72.9114L71.5442 8.4098ZM70.177 11V0.818182H71.6635V11H70.177ZM74.9995 11L72.2651 7.37074L73.2892 6.33168L76.824 11H74.9995ZM80.9467 11.1541C80.1944 11.1541 79.5464 10.9934 79.0028 10.6719C78.4626 10.3471 78.045 9.89134 77.75 9.30469C77.4583 8.71473 77.3125 8.02367 77.3125 7.23153C77.3125 6.44934 77.4583 5.75994 77.75 5.16335C78.045 4.56676 78.456 4.10109 78.983 3.76633C79.5133 3.43158 80.133 3.2642 80.8423 3.2642C81.2732 3.2642 81.6908 3.33546 82.0952 3.47798C82.4995 3.6205 82.8625 3.84422 83.1839 4.14915C83.5054 4.45407 83.759 4.85014 83.9446 5.33736C84.1302 5.82126 84.223 6.40956 84.223 7.10227V7.62926H78.1527V6.51562H82.7663C82.7663 6.12453 82.6868 5.77817 82.5277 5.47656C82.3686 5.17164 82.1449 4.93134 81.8565 4.75568C81.5715 4.58002 81.2367 4.49219 80.8523 4.49219C80.4347 4.49219 80.0701 4.59493 79.7585 4.80043C79.4503 5.0026 79.2116 5.26776 79.0426 5.59588C78.8769 5.92069 78.794 6.27367 78.794 6.65483V7.52486C78.794 8.03527 78.8835 8.46946 79.0625 8.82741C79.2448 9.18537 79.4983 9.45881 79.8232 9.64773C80.148 9.83333 80.5275 9.92614 80.9616 9.92614C81.2434 9.92614 81.5002 9.88636 81.7322 9.80682C81.9643 9.72396 82.1648 9.60133 82.3338 9.43892C82.5028 9.27652 82.6321 9.07599 82.7216 8.83736L84.1286 9.09091C84.0159 9.50521 83.8137 9.86813 83.522 10.1797C83.2337 10.4879 82.8707 10.7282 82.4332 10.9006C81.9991 11.0696 81.5036 11.1541 80.9467 11.1541ZM88.731 11.1491C88.1145 11.1491 87.5643 10.9917 87.0804 10.6768C86.5998 10.3587 86.222 9.90625 85.9469 9.3196C85.6751 8.72964 85.5392 8.02202 85.5392 7.19673C85.5392 6.37145 85.6768 5.66548 85.9519 5.07884C86.2303 4.49219 86.6114 4.04309 87.0953 3.73153C87.5792 3.41998 88.1278 3.2642 88.7409 3.2642C89.2149 3.2642 89.5961 3.34375 89.8844 3.50284C90.1761 3.65862 90.4015 3.84091 90.5605 4.04972C90.723 4.25852 90.8489 4.44247 90.9384 4.60156H91.0279V0.818182H92.5144V11H91.0627V9.81179H90.9384C90.8489 9.9742 90.7196 10.1598 90.5506 10.3686C90.3849 10.5774 90.1562 10.7597 89.8645 10.9155C89.5729 11.0713 89.195 11.1491 88.731 11.1491ZM89.0591 9.88139C89.4867 9.88139 89.848 9.7687 90.1429 9.54332C90.4412 9.31463 90.6666 8.99811 90.8191 8.59375C90.9748 8.18939 91.0527 7.71875 91.0527 7.18182C91.0527 6.65151 90.9765 6.1875 90.824 5.78977C90.6716 5.39205 90.4479 5.08215 90.1529 4.86009C89.8579 4.63802 89.4933 4.52699 89.0591 4.52699C88.6117 4.52699 88.2388 4.64299 87.9405 4.875C87.6422 5.10701 87.4168 5.42353 87.2644 5.82457C87.1152 6.22562 87.0407 6.67803 87.0407 7.18182C87.0407 7.69223 87.1169 8.15128 87.2694 8.55895C87.4218 8.96662 87.6472 9.28977 87.9455 9.52841C88.2471 9.76373 88.6183 9.88139 89.0591 9.88139ZM99.1353 6.05327V7.34091H94.6211V6.05327H99.1353ZM104.641 11.169C103.856 11.1657 103.185 10.9586 102.628 10.5476C102.071 10.1366 101.645 9.53835 101.35 8.75284C101.055 7.96733 100.908 7.02107 100.908 5.91406C100.908 4.81037 101.055 3.86742 101.35 3.08523C101.648 2.30303 102.076 1.70644 102.633 1.29545C103.193 0.884469 103.862 0.678977 104.641 0.678977C105.42 0.678977 106.088 0.886126 106.645 1.30043C107.202 1.71141 107.628 2.308 107.923 3.0902C108.221 3.86908 108.37 4.81037 108.37 5.91406C108.37 7.02438 108.223 7.9723 107.928 8.75781C107.633 9.54001 107.207 10.1383 106.65 10.5526C106.093 10.9635 105.424 11.169 104.641 11.169ZM104.641 9.84162C105.331 9.84162 105.869 9.50521 106.257 8.83239C106.648 8.15956 106.844 7.18679 106.844 5.91406C106.844 5.06889 106.754 4.35464 106.575 3.77131C106.4 3.18466 106.146 2.74053 105.815 2.43892C105.487 2.134 105.095 1.98153 104.641 1.98153C103.955 1.98153 103.417 2.3196 103.026 2.99574C102.634 3.67187 102.437 4.64465 102.434 5.91406C102.434 6.76255 102.522 7.48011 102.697 8.06676C102.876 8.65009 103.13 9.09257 103.458 9.39418C103.786 9.69247 104.181 9.84162 104.641 9.84162ZM109.92 9.01136V7.76847L114.32 0.818182H115.299V2.64773H114.678L111.531 7.62926V7.70881H117.561V9.01136H109.92ZM114.747 11V8.63352L114.757 8.06676V0.818182H116.214V11H114.747Z" fill="black"/>
</svg>
