<svg viewBox="0 0 84 12" fill="none" stroke-width="2" stroke="currentColor" aria-hidden="true">
  <path d="M6.72159 5.22798L5.37429 5.46662C5.31795 5.29427 5.22846 5.13021 5.10582 4.97443C4.98651 4.81865 4.8241 4.69105 4.61861 4.59162C4.41312 4.49219 4.15625 4.44247 3.84801 4.44247C3.42708 4.44247 3.07576 4.53693 2.79403 4.72585C2.51231 4.91146 2.37145 5.15175 2.37145 5.44673C2.37145 5.70194 2.46591 5.90743 2.65483 6.06321C2.84375 6.21899 3.14867 6.34659 3.5696 6.44602L4.78267 6.72443C5.48532 6.88684 6.009 7.13707 6.35369 7.47514C6.69839 7.81321 6.87074 8.25237 6.87074 8.79261C6.87074 9.25 6.73816 9.65767 6.47301 10.0156C6.21117 10.3703 5.84493 10.6487 5.37429 10.8509C4.90696 11.053 4.36506 11.1541 3.74858 11.1541C2.89347 11.1541 2.19579 10.9718 1.65554 10.6072C1.11529 10.2393 0.783854 9.71733 0.661222 9.04119L2.09801 8.82244C2.1875 9.19697 2.37145 9.48035 2.64986 9.67259C2.92827 9.86151 3.29119 9.95597 3.73864 9.95597C4.22585 9.95597 4.61529 9.85488 4.90696 9.6527C5.19863 9.44721 5.34446 9.19697 5.34446 8.90199C5.34446 8.66335 5.25497 8.46283 5.07599 8.30043C4.90033 8.13802 4.63021 8.01539 4.26562 7.93253L2.97301 7.64915C2.26042 7.48674 1.73343 7.22822 1.39205 6.87358C1.05398 6.51894 0.884943 6.06984 0.884943 5.52628C0.884943 5.07552 1.01089 4.68111 1.26278 4.34304C1.51468 4.00497 1.86269 3.74148 2.30682 3.55256C2.75095 3.36032 3.25971 3.2642 3.8331 3.2642C4.65838 3.2642 5.308 3.44318 5.78196 3.80114C6.25592 4.15578 6.56913 4.63139 6.72159 5.22798ZM9.99165 6.46591V11H8.50515V0.818182H9.97177V4.60653H10.0662C10.2452 4.19555 10.5186 3.86908 10.8865 3.62713C11.2544 3.38518 11.735 3.2642 12.3283 3.2642C12.852 3.2642 13.3094 3.37192 13.7005 3.58736C14.0949 3.80279 14.3998 4.12429 14.6152 4.55185C14.834 4.97609 14.9434 5.50639 14.9434 6.14276V11H13.4569V6.32173C13.4569 5.7616 13.3127 5.32741 13.0243 5.01918C12.736 4.70762 12.3349 4.55185 11.8212 4.55185C11.4699 4.55185 11.155 4.62642 10.8766 4.77557C10.6015 4.92472 10.3844 5.14347 10.2253 5.43182C10.0695 5.71686 9.99165 6.06155 9.99165 6.46591ZM16.927 11V3.36364H18.4135V11H16.927ZM17.6777 2.18537C17.4192 2.18537 17.1971 2.09919 17.0115 1.92685C16.8292 1.75118 16.7381 1.54238 16.7381 1.30043C16.7381 1.05516 16.8292 0.846354 17.0115 0.674005C17.1971 0.498342 17.4192 0.410511 17.6777 0.410511C17.9363 0.410511 18.1567 0.498342 18.339 0.674005C18.5246 0.846354 18.6174 1.05516 18.6174 1.30043C18.6174 1.54238 18.5246 1.75118 18.339 1.92685C18.1567 2.09919 17.9363 2.18537 17.6777 2.18537ZM23.7045 11.1541C22.9522 11.1541 22.3042 10.9934 21.7607 10.6719C21.2204 10.3471 20.8028 9.89134 20.5078 9.30469C20.2161 8.71473 20.0703 8.02367 20.0703 7.23153C20.0703 6.44934 20.2161 5.75994 20.5078 5.16335C20.8028 4.56676 21.2138 4.10109 21.7408 3.76633C22.2711 3.43158 22.8909 3.2642 23.6001 3.2642C24.031 3.2642 24.4486 3.33546 24.853 3.47798C25.2573 3.6205 25.6203 3.84422 25.9418 4.14915C26.2633 4.45407 26.5168 4.85014 26.7024 5.33736C26.888 5.82126 26.9808 6.40956 26.9808 7.10227V7.62926H20.9105V6.51562H25.5241C25.5241 6.12453 25.4446 5.77817 25.2855 5.47656C25.1264 5.17164 24.9027 4.93134 24.6143 4.75568C24.3293 4.58002 23.9946 4.49219 23.6101 4.49219C23.1925 4.49219 22.8279 4.59493 22.5163 4.80043C22.2081 5.0026 21.9695 5.26776 21.8004 5.59588C21.6347 5.92069 21.5518 6.27367 21.5518 6.65483V7.52486C21.5518 8.03527 21.6413 8.46946 21.8203 8.82741C22.0026 9.18537 22.2562 9.45881 22.581 9.64773C22.9058 9.83333 23.2853 9.92614 23.7195 9.92614C24.0012 9.92614 24.258 9.88636 24.4901 9.80682C24.7221 9.72396 24.9226 9.60133 25.0916 9.43892C25.2607 9.27652 25.3899 9.07599 25.4794 8.83736L26.8864 9.09091C26.7737 9.50521 26.5715 9.86813 26.2798 10.1797C25.9915 10.4879 25.6286 10.7282 25.1911 10.9006C24.7569 11.0696 24.2614 11.1541 23.7045 11.1541ZM30.1167 0.818182V11H28.6301V0.818182H30.1167ZM34.9751 11.1491C34.3587 11.1491 33.8085 10.9917 33.3246 10.6768C32.844 10.3587 32.4661 9.90625 32.1911 9.3196C31.9193 8.72964 31.7834 8.02202 31.7834 7.19673C31.7834 6.37145 31.9209 5.66548 32.196 5.07884C32.4744 4.49219 32.8556 4.04309 33.3395 3.73153C33.8234 3.41998 34.3719 3.2642 34.9851 3.2642C35.459 3.2642 35.8402 3.34375 36.1286 3.50284C36.4202 3.65862 36.6456 3.84091 36.8047 4.04972C36.9671 4.25852 37.093 4.44247 37.1825 4.60156H37.272V0.818182H38.7585V11H37.3068V9.81179H37.1825C37.093 9.9742 36.9638 10.1598 36.7947 10.3686C36.629 10.5774 36.4003 10.7597 36.1087 10.9155C35.817 11.0713 35.4392 11.1491 34.9751 11.1491ZM35.3033 9.88139C35.7308 9.88139 36.0921 9.7687 36.3871 9.54332C36.6854 9.31463 36.9107 8.99811 37.0632 8.59375C37.219 8.18939 37.2969 7.71875 37.2969 7.18182C37.2969 6.65151 37.2206 6.1875 37.0682 5.78977C36.9157 5.39205 36.692 5.08215 36.397 4.86009C36.102 4.63802 35.7375 4.52699 35.3033 4.52699C34.8558 4.52699 34.483 4.64299 34.1847 4.875C33.8864 5.10701 33.661 5.42353 33.5085 5.82457C33.3594 6.22562 33.2848 6.67803 33.2848 7.18182C33.2848 7.69223 33.361 8.15128 33.5135 8.55895C33.666 8.96662 33.8913 9.28977 34.1896 9.52841C34.4912 9.76373 34.8625 9.88139 35.3033 9.88139ZM45.3794 6.05327V7.34091H40.8652V6.05327H45.3794ZM50.2193 11.1491C49.6028 11.1491 49.0526 10.9917 48.5687 10.6768C48.0881 10.3587 47.7103 9.90625 47.4352 9.3196C47.1634 8.72964 47.0275 8.02202 47.0275 7.19673C47.0275 6.37145 47.1651 5.66548 47.4402 5.07884C47.7186 4.49219 48.0997 4.04309 48.5836 3.73153C49.0675 3.41998 49.6161 3.2642 50.2292 3.2642C50.7032 3.2642 51.0843 3.34375 51.3727 3.50284C51.6644 3.65862 51.8897 3.84091 52.0488 4.04972C52.2112 4.25852 52.3372 4.44247 52.4267 4.60156H52.5162V0.818182H54.0027V11H52.551V9.81179H52.4267C52.3372 9.9742 52.2079 10.1598 52.0389 10.3686C51.8732 10.5774 51.6445 10.7597 51.3528 10.9155C51.0611 11.0713 50.6833 11.1491 50.2193 11.1491ZM50.5474 9.88139C50.975 9.88139 51.3362 9.7687 51.6312 9.54332C51.9295 9.31463 52.1549 8.99811 52.3074 8.59375C52.4631 8.18939 52.541 7.71875 52.541 7.18182C52.541 6.65151 52.4648 6.1875 52.3123 5.78977C52.1599 5.39205 51.9361 5.08215 51.6412 4.86009C51.3462 4.63802 50.9816 4.52699 50.5474 4.52699C50.1 4.52699 49.7271 4.64299 49.4288 4.875C49.1305 5.10701 48.9051 5.42353 48.7527 5.82457C48.6035 6.22562 48.5289 6.67803 48.5289 7.18182C48.5289 7.69223 48.6052 8.15128 48.7576 8.55895C48.9101 8.96662 49.1355 9.28977 49.4338 9.52841C49.7354 9.76373 50.1066 9.88139 50.5474 9.88139ZM59.3409 11.1541C58.625 11.1541 58.0002 10.9901 57.4666 10.6619C56.933 10.3338 56.5187 9.87476 56.2237 9.2848C55.9287 8.69484 55.7812 8.00544 55.7812 7.21662C55.7812 6.42448 55.9287 5.73177 56.2237 5.13849C56.5187 4.54522 56.933 4.08452 57.4666 3.75639C58.0002 3.42827 58.625 3.2642 59.3409 3.2642C60.0568 3.2642 60.6816 3.42827 61.2152 3.75639C61.7488 4.08452 62.1631 4.54522 62.4581 5.13849C62.7531 5.73177 62.9006 6.42448 62.9006 7.21662C62.9006 8.00544 62.7531 8.69484 62.4581 9.2848C62.1631 9.87476 61.7488 10.3338 61.2152 10.6619C60.6816 10.9901 60.0568 11.1541 59.3409 11.1541ZM59.3459 9.90625C59.8099 9.90625 60.1944 9.78362 60.4993 9.53835C60.8042 9.29309 61.0296 8.96662 61.1754 8.55895C61.3246 8.15128 61.3991 7.70218 61.3991 7.21165C61.3991 6.72443 61.3246 6.27699 61.1754 5.86932C61.0296 5.45833 60.8042 5.12855 60.4993 4.87997C60.1944 4.63139 59.8099 4.5071 59.3459 4.5071C58.8786 4.5071 58.4908 4.63139 58.1825 4.87997C57.8776 5.12855 57.6506 5.45833 57.5014 5.86932C57.3556 6.27699 57.2827 6.72443 57.2827 7.21165C57.2827 7.70218 57.3556 8.15128 57.5014 8.55895C57.6506 8.96662 57.8776 9.29309 58.1825 9.53835C58.4908 9.78362 58.8786 9.90625 59.3459 9.90625ZM66.0463 0.818182V11H64.5598V0.818182H66.0463ZM69.5327 0.818182V11H68.0462V0.818182H69.5327ZM73.7548 11.169C73.2709 11.169 72.8334 11.0795 72.4423 10.9006C72.0512 10.7183 71.7413 10.4548 71.5126 10.1101C71.2872 9.76539 71.1745 9.3428 71.1745 8.84233C71.1745 8.41146 71.2574 8.05682 71.4231 7.77841C71.5888 7.5 71.8126 7.27959 72.0943 7.11719C72.376 6.95478 72.6909 6.83215 73.0389 6.74929C73.3869 6.66643 73.7415 6.60346 74.1028 6.56037C74.5602 6.50734 74.9314 6.46425 75.2164 6.43111C75.5015 6.39465 75.7086 6.33665 75.8379 6.2571C75.9672 6.17756 76.0318 6.0483 76.0318 5.86932V5.83452C76.0318 5.40033 75.9092 5.06392 75.6639 4.82528C75.4219 4.58665 75.0607 4.46733 74.5801 4.46733C74.0796 4.46733 73.6852 4.57836 73.3968 4.80043C73.1118 5.01918 72.9146 5.26278 72.8052 5.53125L71.4082 5.21307C71.5739 4.74905 71.8159 4.37453 72.1341 4.08949C72.4556 3.80114 72.8251 3.59233 73.2427 3.46307C73.6603 3.33049 74.0995 3.2642 74.5602 3.2642C74.8651 3.2642 75.1883 3.30066 75.5297 3.37358C75.8743 3.44318 76.1958 3.57244 76.4941 3.76136C76.7958 3.95028 77.0427 4.22041 77.2349 4.57173C77.4271 4.91974 77.5233 5.37216 77.5233 5.92898V11H76.0716V9.95597H76.0119C75.9158 10.1482 75.7716 10.3371 75.5794 10.5227C75.3871 10.7083 75.1402 10.8625 74.8386 10.9851C74.537 11.1077 74.1757 11.169 73.7548 11.169ZM74.0779 9.97585C74.4889 9.97585 74.8403 9.89465 75.1319 9.73224C75.4269 9.56984 75.6506 9.35772 75.8031 9.09588C75.9589 8.83073 76.0368 8.54735 76.0368 8.24574V7.26136C75.9837 7.31439 75.881 7.36411 75.7285 7.41051C75.5794 7.4536 75.4087 7.49171 75.2164 7.52486C75.0242 7.55469 74.8369 7.58286 74.6547 7.60938C74.4724 7.63258 74.3199 7.65246 74.1973 7.66903C73.9089 7.70549 73.6454 7.76681 73.4068 7.85298C73.1715 7.93916 72.9825 8.06345 72.84 8.22585C72.7008 8.38494 72.6312 8.59706 72.6312 8.86222C72.6312 9.23011 72.7671 9.50852 73.0389 9.69744C73.3107 9.88305 73.657 9.97585 74.0779 9.97585ZM79.5032 11V3.36364H80.94V4.5767H81.0195C81.1587 4.16572 81.404 3.84257 81.7553 3.60724C82.11 3.36861 82.511 3.24929 82.9585 3.24929C83.0513 3.24929 83.1606 3.2526 83.2866 3.25923C83.4158 3.26586 83.5169 3.27415 83.5898 3.28409V4.70597C83.5302 4.68939 83.4241 4.67116 83.2717 4.65128C83.1192 4.62808 82.9667 4.61648 82.8143 4.61648C82.463 4.61648 82.1497 4.69105 81.8746 4.8402C81.6029 4.98603 81.3874 5.18987 81.2283 5.4517C81.0692 5.71023 80.9897 6.00521 80.9897 6.33665V11H79.5032Z" fill="black"/>
</svg>
