<svg viewBox="0 0 89 12" fill="none" stroke-width="2" stroke="currentColor" aria-hidden="true">
  <path d="M0.118608 11V0.818182H1.60511V4.60156H1.6946C1.78078 4.44247 1.90507 4.25852 2.06747 4.04972C2.22988 3.84091 2.45526 3.65862 2.74361 3.50284C3.03196 3.34375 3.41312 3.2642 3.88707 3.2642C4.50355 3.2642 5.05374 3.41998 5.53764 3.73153C6.02154 4.04309 6.40104 4.49219 6.67614 5.07884C6.95455 5.66548 7.09375 6.37145 7.09375 7.19673C7.09375 8.02202 6.9562 8.72964 6.68111 9.3196C6.40601 9.90625 6.02817 10.3587 5.54759 10.6768C5.067 10.9917 4.51847 11.1491 3.90199 11.1491C3.43797 11.1491 3.05848 11.0713 2.76349 10.9155C2.47183 10.7597 2.24313 10.5774 2.07741 10.3686C1.9117 10.1598 1.78409 9.9742 1.6946 9.81179H1.57031V11H0.118608ZM1.57528 7.18182C1.57528 7.71875 1.65317 8.18939 1.80895 8.59375C1.96473 8.99811 2.1901 9.31463 2.48509 9.54332C2.78007 9.7687 3.14134 9.88139 3.56889 9.88139C4.01302 9.88139 4.38423 9.76373 4.68253 9.52841C4.98082 9.28977 5.2062 8.96662 5.35866 8.55895C5.51444 8.15128 5.59233 7.69223 5.59233 7.18182C5.59233 6.67803 5.5161 6.22562 5.36364 5.82457C5.21449 5.42353 4.98911 5.10701 4.6875 4.875C4.3892 4.64299 4.01634 4.52699 3.56889 4.52699C3.13802 4.52699 2.77344 4.63802 2.47514 4.86009C2.18016 5.08215 1.95644 5.39205 1.80398 5.78977C1.65152 6.1875 1.57528 6.65151 1.57528 7.18182ZM10.9853 11.169C10.5014 11.169 10.0639 11.0795 9.67276 10.9006C9.28166 10.7183 8.97177 10.4548 8.74308 10.1101C8.5177 9.76539 8.40501 9.3428 8.40501 8.84233C8.40501 8.41146 8.48787 8.05682 8.65359 7.77841C8.81931 7.5 9.04303 7.27959 9.32475 7.11719C9.60647 6.95478 9.92134 6.83215 10.2694 6.74929C10.6174 6.66643 10.972 6.60346 11.3333 6.56037C11.7907 6.50734 12.1619 6.46425 12.4469 6.43111C12.7319 6.39465 12.9391 6.33665 13.0684 6.2571C13.1976 6.17756 13.2623 6.0483 13.2623 5.86932V5.83452C13.2623 5.40033 13.1396 5.06392 12.8944 4.82528C12.6524 4.58665 12.2911 4.46733 11.8105 4.46733C11.3101 4.46733 10.9157 4.57836 10.6273 4.80043C10.3423 5.01918 10.1451 5.26278 10.0357 5.53125L8.63867 5.21307C8.80439 4.74905 9.04634 4.37453 9.36452 4.08949C9.68602 3.80114 10.0556 3.59233 10.4732 3.46307C10.8908 3.33049 11.33 3.2642 11.7907 3.2642C12.0956 3.2642 12.4187 3.30066 12.7601 3.37358C13.1048 3.44318 13.4263 3.57244 13.7246 3.76136C14.0262 3.95028 14.2731 4.22041 14.4654 4.57173C14.6576 4.91974 14.7537 5.37216 14.7537 5.92898V11H13.302V9.95597H13.2424C13.1462 10.1482 13.0021 10.3371 12.8098 10.5227C12.6176 10.7083 12.3707 10.8625 12.0691 10.9851C11.7675 11.1077 11.4062 11.169 10.9853 11.169ZM11.3084 9.97585C11.7194 9.97585 12.0707 9.89465 12.3624 9.73224C12.6574 9.56984 12.8811 9.35772 13.0336 9.09588C13.1893 8.83073 13.2672 8.54735 13.2672 8.24574V7.26136C13.2142 7.31439 13.1114 7.36411 12.959 7.41051C12.8098 7.4536 12.6391 7.49171 12.4469 7.52486C12.2547 7.55469 12.0674 7.58286 11.8851 7.60938C11.7028 7.63258 11.5504 7.65246 11.4277 7.66903C11.1394 7.70549 10.8759 7.76681 10.6373 7.85298C10.4019 7.93916 10.213 8.06345 10.0705 8.22585C9.93129 8.38494 9.86168 8.59706 9.86168 8.86222C9.86168 9.23011 9.99757 9.50852 10.2694 9.69744C10.5411 9.88305 10.8875 9.97585 11.3084 9.97585ZM18.2202 6.46591V11H16.7337V3.36364H18.1605V4.60653H18.255C18.4306 4.20218 18.7057 3.87737 19.0803 3.6321C19.4581 3.38684 19.9337 3.2642 20.5071 3.2642C21.0275 3.2642 21.4832 3.37358 21.8743 3.59233C22.2654 3.80777 22.5687 4.12926 22.7841 4.55682C22.9995 4.98437 23.1072 5.51302 23.1072 6.14276V11H21.6207V6.32173C21.6207 5.76823 21.4766 5.3357 21.1882 5.02415C20.8999 4.70928 20.5038 4.55185 20 4.55185C19.6553 4.55185 19.3487 4.62642 19.0803 4.77557C18.8151 4.92472 18.6046 5.14347 18.4489 5.43182C18.2964 5.71686 18.2202 6.06155 18.2202 6.46591ZM26.468 8.4098L26.4581 6.59517H26.7166L29.7592 3.36364H31.5391L28.0689 7.04261H27.8352L26.468 8.4098ZM25.1009 11V0.818182H26.5874V11H25.1009ZM29.9233 11L27.1889 7.37074L28.2131 6.33168L31.7479 11H29.9233ZM36.8736 6.05327V7.34091H32.3594V6.05327H36.8736ZM40.3413 6.46591V11H38.8548V3.36364H40.2816V4.60653H40.3761C40.5517 4.20218 40.8268 3.87737 41.2013 3.6321C41.5792 3.38684 42.0548 3.2642 42.6282 3.2642C43.1486 3.2642 43.6043 3.37358 43.9954 3.59233C44.3865 3.80777 44.6897 4.12926 44.9052 4.55682C45.1206 4.98437 45.2283 5.51302 45.2283 6.14276V11H43.7418V6.32173C43.7418 5.76823 43.5977 5.3357 43.3093 5.02415C43.021 4.70928 42.6249 4.55185 42.1211 4.55185C41.7764 4.55185 41.4698 4.62642 41.2013 4.77557C40.9362 4.92472 40.7257 5.14347 40.57 5.43182C40.4175 5.71686 40.3413 6.06155 40.3413 6.46591ZM50.4386 11.1541C49.7227 11.1541 49.0979 10.9901 48.5643 10.6619C48.0307 10.3338 47.6164 9.87476 47.3214 9.2848C47.0264 8.69484 46.8789 8.00544 46.8789 7.21662C46.8789 6.42448 47.0264 5.73177 47.3214 5.13849C47.6164 4.54522 48.0307 4.08452 48.5643 3.75639C49.0979 3.42827 49.7227 3.2642 50.4386 3.2642C51.1545 3.2642 51.7792 3.42827 52.3129 3.75639C52.8465 4.08452 53.2608 4.54522 53.5558 5.13849C53.8507 5.73177 53.9982 6.42448 53.9982 7.21662C53.9982 8.00544 53.8507 8.69484 53.5558 9.2848C53.2608 9.87476 52.8465 10.3338 52.3129 10.6619C51.7792 10.9901 51.1545 11.1541 50.4386 11.1541ZM50.4435 9.90625C50.9076 9.90625 51.292 9.78362 51.5969 9.53835C51.9019 9.29309 52.1272 8.96662 52.2731 8.55895C52.4222 8.15128 52.4968 7.70218 52.4968 7.21165C52.4968 6.72443 52.4222 6.27699 52.2731 5.86932C52.1272 5.45833 51.9019 5.12855 51.5969 4.87997C51.292 4.63139 50.9076 4.5071 50.4435 4.5071C49.9762 4.5071 49.5884 4.63139 49.2802 4.87997C48.9753 5.12855 48.7482 5.45833 48.5991 5.86932C48.4532 6.27699 48.3803 6.72443 48.3803 7.21165C48.3803 7.70218 48.4532 8.15128 48.5991 8.55895C48.7482 8.96662 48.9753 9.29309 49.2802 9.53835C49.5884 9.78362 49.9762 9.90625 50.4435 9.90625ZM59.2221 3.36364V4.55682H55.051V3.36364H59.2221ZM56.1696 1.53409H57.6561V8.75781C57.6561 9.04616 57.6992 9.26326 57.7853 9.40909C57.8715 9.55161 57.9825 9.64938 58.1184 9.70241C58.2576 9.75213 58.4084 9.77699 58.5708 9.77699C58.6902 9.77699 58.7946 9.7687 58.8841 9.75213C58.9735 9.73556 59.0431 9.7223 59.0929 9.71236L59.3613 10.9403C59.2752 10.9735 59.1525 11.0066 58.9934 11.0398C58.8343 11.0762 58.6355 11.0961 58.3968 11.0994C58.0057 11.1061 57.6412 11.0365 57.3031 10.8906C56.965 10.7448 56.6916 10.5194 56.4828 10.2145C56.274 9.90956 56.1696 9.52675 56.1696 9.06605V1.53409ZM64.0756 11.1541C63.3233 11.1541 62.6753 10.9934 62.1317 10.6719C61.5915 10.3471 61.1739 9.89134 60.8789 9.30469C60.5872 8.71473 60.4414 8.02367 60.4414 7.23153C60.4414 6.44934 60.5872 5.75994 60.8789 5.16335C61.1739 4.56676 61.5849 4.10109 62.1119 3.76633C62.6422 3.43158 63.262 3.2642 63.9712 3.2642C64.4021 3.2642 64.8197 3.33546 65.2241 3.47798C65.6284 3.6205 65.9914 3.84422 66.3129 4.14915C66.6344 4.45407 66.8879 4.85014 67.0735 5.33736C67.2591 5.82126 67.3519 6.40956 67.3519 7.10227V7.62926H61.2816V6.51562H65.8952C65.8952 6.12453 65.8157 5.77817 65.6566 5.47656C65.4975 5.17164 65.2738 4.93134 64.9854 4.75568C64.7004 4.58002 64.3656 4.49219 63.9812 4.49219C63.5636 4.49219 63.199 4.59493 62.8874 4.80043C62.5792 5.0026 62.3406 5.26776 62.1715 5.59588C62.0058 5.92069 61.9229 6.27367 61.9229 6.65483V7.52486C61.9229 8.03527 62.0124 8.46946 62.1914 8.82741C62.3737 9.18537 62.6272 9.45881 62.9521 9.64773C63.2769 9.83333 63.6564 9.92614 64.0906 9.92614C64.3723 9.92614 64.6291 9.88636 64.8612 9.80682C65.0932 9.72396 65.2937 9.60133 65.4627 9.43892C65.6317 9.27652 65.761 9.07599 65.8505 8.83736L67.2575 9.09091C67.1448 9.50521 66.9426 9.86813 66.6509 10.1797C66.3626 10.4879 65.9996 10.7282 65.5621 10.9006C65.128 11.0696 64.6325 11.1541 64.0756 11.1541ZM73.5005 6.05327V7.34091H68.9863V6.05327H73.5005ZM79.0066 11.169C78.2211 11.1657 77.5499 10.9586 76.9931 10.5476C76.4363 10.1366 76.0104 9.53835 75.7154 8.75284C75.4204 7.96733 75.2729 7.02107 75.2729 5.91406C75.2729 4.81037 75.4204 3.86742 75.7154 3.08523C76.0137 2.30303 76.4412 1.70644 76.998 1.29545C77.5582 0.884469 78.2277 0.678977 79.0066 0.678977C79.7855 0.678977 80.4533 0.886126 81.0101 1.30043C81.5669 1.71141 81.9928 2.308 82.2878 3.0902C82.5861 3.86908 82.7353 4.81037 82.7353 5.91406C82.7353 7.02438 82.5878 7.9723 82.2928 8.75781C81.9978 9.54001 81.5719 10.1383 81.0151 10.5526C80.4583 10.9635 79.7888 11.169 79.0066 11.169ZM79.0066 9.84162C79.696 9.84162 80.2346 9.50521 80.6223 8.83239C81.0134 8.15956 81.209 7.18679 81.209 5.91406C81.209 5.06889 81.1195 4.35464 80.9405 3.77131C80.7649 3.18466 80.5113 2.74053 80.1799 2.43892C79.8517 2.134 79.4606 1.98153 79.0066 1.98153C78.3205 1.98153 77.7819 2.3196 77.3908 2.99574C76.9997 3.67187 76.8025 4.64465 76.7992 5.91406C76.7992 6.76255 76.887 7.48011 77.0627 8.06676C77.2417 8.65009 77.4952 9.09257 77.8233 9.39418C78.1515 9.69247 78.5459 9.84162 79.0066 9.84162ZM88.3619 0.818182V11H86.8207V2.35938H86.761L84.3249 3.95028V2.47869L86.8654 0.818182H88.3619Z" fill="black"/>
</svg>
