<svg viewBox="0 0 132 14" fill="none" stroke-width="2" stroke="currentColor" aria-hidden="true">
  <path d="M4.21591 11.1541C3.4768 11.1541 2.84044 10.9867 2.30682 10.652C1.77652 10.3139 1.36884 9.84825 1.08381 9.25497C0.798769 8.66169 0.65625 7.98224 0.65625 7.21662C0.65625 6.44105 0.802083 5.75663 1.09375 5.16335C1.38542 4.56676 1.7964 4.10109 2.3267 3.76633C2.85701 3.43158 3.48177 3.2642 4.20099 3.2642C4.78101 3.2642 5.29806 3.37192 5.75213 3.58736C6.2062 3.79948 6.57244 4.09777 6.85085 4.48224C7.13258 4.86671 7.29995 5.31581 7.35298 5.82955H5.90625C5.8267 5.47159 5.64441 5.16335 5.35938 4.90483C5.07765 4.64631 4.69981 4.51705 4.22585 4.51705C3.81155 4.51705 3.44863 4.62642 3.13707 4.84517C2.82884 5.06061 2.58854 5.36884 2.41619 5.76989C2.24384 6.16761 2.15767 6.63826 2.15767 7.18182C2.15767 7.73864 2.24219 8.21922 2.41122 8.62358C2.58026 9.02794 2.81889 9.34115 3.12713 9.56321C3.43868 9.78527 3.80492 9.89631 4.22585 9.89631C4.50758 9.89631 4.76278 9.84493 4.99148 9.74219C5.22349 9.63613 5.41738 9.48532 5.57315 9.28977C5.73224 9.09422 5.84328 8.8589 5.90625 8.58381H7.35298C7.29995 9.07765 7.1392 9.51847 6.87074 9.90625C6.60227 10.294 6.24266 10.599 5.7919 10.821C5.34446 11.0431 4.81913 11.1541 4.21591 11.1541ZM13.78 7.8331V3.36364H15.2715V11H13.8098V9.67756H13.7303C13.5546 10.0852 13.2729 10.425 12.8851 10.6967C12.5007 10.9652 12.0217 11.0994 11.4483 11.0994C10.9578 11.0994 10.5236 10.9917 10.1458 10.7763C9.77125 10.5575 9.47627 10.2344 9.26083 9.80682C9.04871 9.37926 8.94265 8.85062 8.94265 8.22088V3.36364H10.4292V8.0419C10.4292 8.56226 10.5733 8.97656 10.8617 9.2848C11.15 9.59304 11.5246 9.74716 11.9853 9.74716C12.2637 9.74716 12.5404 9.67756 12.8155 9.53835C13.0939 9.39915 13.3243 9.18868 13.5066 8.90696C13.6922 8.62524 13.7833 8.26728 13.78 7.8331ZM17.2688 11V3.36364H18.7056V4.5767H18.7852C18.9244 4.16572 19.1696 3.84257 19.521 3.60724C19.8756 3.36861 20.2766 3.24929 20.7241 3.24929C20.8169 3.24929 20.9263 3.2526 21.0522 3.25923C21.1815 3.26586 21.2826 3.27415 21.3555 3.28409V4.70597C21.2958 4.68939 21.1897 4.67116 21.0373 4.65128C20.8848 4.62808 20.7324 4.61648 20.5799 4.61648C20.2286 4.61648 19.9154 4.69105 19.6403 4.8402C19.3685 4.98603 19.1531 5.18987 18.994 5.4517C18.8349 5.71023 18.7553 6.00521 18.7553 6.33665V11H17.2688ZM22.6419 11V3.36364H24.0787V4.5767H24.1582C24.2974 4.16572 24.5427 3.84257 24.894 3.60724C25.2486 3.36861 25.6497 3.24929 26.0971 3.24929C26.1899 3.24929 26.2993 3.2526 26.4252 3.25923C26.5545 3.26586 26.6556 3.27415 26.7285 3.28409V4.70597C26.6689 4.68939 26.5628 4.67116 26.4103 4.65128C26.2579 4.62808 26.1054 4.61648 25.9529 4.61648C25.6016 4.61648 25.2884 4.69105 25.0133 4.8402C24.7415 4.98603 24.5261 5.18987 24.367 5.4517C24.2079 5.71023 24.1284 6.00521 24.1284 6.33665V11H22.6419ZM31.0327 11.1541C30.2803 11.1541 29.6323 10.9934 29.0888 10.6719C28.5485 10.3471 28.1309 9.89134 27.8359 9.30469C27.5443 8.71473 27.3984 8.02367 27.3984 7.23153C27.3984 6.44934 27.5443 5.75994 27.8359 5.16335C28.1309 4.56676 28.5419 4.10109 29.0689 3.76633C29.5992 3.43158 30.219 3.2642 30.9283 3.2642C31.3591 3.2642 31.7768 3.33546 32.1811 3.47798C32.5855 3.6205 32.9484 3.84422 33.2699 4.14915C33.5914 4.45407 33.8449 4.85014 34.0305 5.33736C34.2161 5.82126 34.3089 6.40956 34.3089 7.10227V7.62926H28.2386V6.51562H32.8523C32.8523 6.12453 32.7727 5.77817 32.6136 5.47656C32.4545 5.17164 32.2308 4.93134 31.9425 4.75568C31.6574 4.58002 31.3227 4.49219 30.9382 4.49219C30.5206 4.49219 30.156 4.59493 29.8445 4.80043C29.5362 5.0026 29.2976 5.26776 29.1286 5.59588C28.9628 5.92069 28.88 6.27367 28.88 6.65483V7.52486C28.88 8.03527 28.9695 8.46946 29.1484 8.82741C29.3307 9.18537 29.5843 9.45881 29.9091 9.64773C30.2339 9.83333 30.6134 9.92614 31.0476 9.92614C31.3293 9.92614 31.5862 9.88636 31.8182 9.80682C32.0502 9.72396 32.2507 9.60133 32.4197 9.43892C32.5888 9.27652 32.718 9.07599 32.8075 8.83736L34.2145 9.09091C34.1018 9.50521 33.8996 9.86813 33.608 10.1797C33.3196 10.4879 32.9567 10.7282 32.5192 10.9006C32.085 11.0696 31.5895 11.1541 31.0327 11.1541ZM37.4448 6.46591V11H35.9583V3.36364H37.3851V4.60653H37.4796C37.6552 4.20218 37.9303 3.87737 38.3049 3.6321C38.6827 3.38684 39.1583 3.2642 39.7317 3.2642C40.2521 3.2642 40.7078 3.37358 41.0989 3.59233C41.49 3.80777 41.7933 4.12926 42.0087 4.55682C42.2241 4.98437 42.3319 5.51302 42.3319 6.14276V11H40.8453V6.32173C40.8453 5.76823 40.7012 5.3357 40.4128 5.02415C40.1245 4.70928 39.7284 4.55185 39.2246 4.55185C38.8799 4.55185 38.5733 4.62642 38.3049 4.77557C38.0397 4.92472 37.8292 5.14347 37.6735 5.43182C37.521 5.71686 37.4448 6.06155 37.4448 6.46591ZM47.5421 11.1541C46.803 11.1541 46.1666 10.9867 45.633 10.652C45.1027 10.3139 44.695 9.84825 44.41 9.25497C44.1249 8.66169 43.9824 7.98224 43.9824 7.21662C43.9824 6.44105 44.1283 5.75663 44.4199 5.16335C44.7116 4.56676 45.1226 4.10109 45.6529 3.76633C46.1832 3.43158 46.8079 3.2642 47.5272 3.2642C48.1072 3.2642 48.6242 3.37192 49.0783 3.58736C49.5324 3.79948 49.8986 4.09777 50.177 4.48224C50.4587 4.86671 50.6261 5.31581 50.6792 5.82955H49.2324C49.1529 5.47159 48.9706 5.16335 48.6855 4.90483C48.4038 4.64631 48.026 4.51705 47.552 4.51705C47.1377 4.51705 46.7748 4.62642 46.4632 4.84517C46.155 5.06061 45.9147 5.36884 45.7424 5.76989C45.57 6.16761 45.4838 6.63826 45.4838 7.18182C45.4838 7.73864 45.5684 8.21922 45.7374 8.62358C45.9064 9.02794 46.1451 9.34115 46.4533 9.56321C46.7649 9.78527 47.1311 9.89631 47.552 9.89631C47.8337 9.89631 48.089 9.84493 48.3176 9.74219C48.5497 9.63613 48.7435 9.48532 48.8993 9.28977C49.0584 9.09422 49.1694 8.8589 49.2324 8.58381H50.6792C50.6261 9.07765 50.4654 9.51847 50.1969 9.90625C49.9284 10.294 49.5688 10.599 49.1181 10.821C48.6706 11.0431 48.1453 11.1541 47.5421 11.1541ZM53.2085 13.8636C52.9864 13.8636 52.7842 13.8454 52.6019 13.8089C52.4196 13.7758 52.2837 13.7393 52.1942 13.6996L52.5522 12.4815C52.824 12.5545 53.0659 12.5859 53.2781 12.576C53.4902 12.5661 53.6774 12.4865 53.8398 12.3374C54.0056 12.1882 54.1514 11.9446 54.2773 11.6065L54.4613 11.0994L51.6673 3.36364H53.2582L55.1921 9.28977H55.2717L57.2056 3.36364H58.8015L55.6545 12.0192C55.5086 12.4169 55.323 12.7533 55.0977 13.0284C54.8723 13.3068 54.6038 13.5156 54.2923 13.6548C53.9807 13.794 53.6194 13.8636 53.2085 13.8636ZM64.6978 6.05327V7.34091H60.1836V6.05327H64.6978ZM67.6186 13.8636C67.3965 13.8636 67.1944 13.8454 67.0121 13.8089C66.8298 13.7758 66.6939 13.7393 66.6044 13.6996L66.9624 12.4815C67.2341 12.5545 67.4761 12.5859 67.6882 12.576C67.9003 12.5661 68.0876 12.4865 68.25 12.3374C68.4157 12.1882 68.5616 11.9446 68.6875 11.6065L68.8714 11.0994L66.0774 3.36364H67.6683L69.6023 9.28977H69.6818L71.6158 3.36364H73.2116L70.0646 12.0192C69.9188 12.4169 69.7332 12.7533 69.5078 13.0284C69.2824 13.3068 69.014 13.5156 68.7024 13.6548C68.3909 13.794 68.0296 13.8636 67.6186 13.8636ZM77.6401 11.1541C76.8877 11.1541 76.2398 10.9934 75.6962 10.6719C75.156 10.3471 74.7383 9.89134 74.4434 9.30469C74.1517 8.71473 74.0059 8.02367 74.0059 7.23153C74.0059 6.44934 74.1517 5.75994 74.4434 5.16335C74.7383 4.56676 75.1493 4.10109 75.6763 3.76633C76.2066 3.43158 76.8264 3.2642 77.5357 3.2642C77.9666 3.2642 78.3842 3.33546 78.7885 3.47798C79.1929 3.6205 79.5558 3.84422 79.8773 4.14915C80.1988 4.45407 80.4524 4.85014 80.638 5.33736C80.8236 5.82126 80.9164 6.40956 80.9164 7.10227V7.62926H74.8461V6.51562H79.4597C79.4597 6.12453 79.3801 5.77817 79.2211 5.47656C79.062 5.17164 78.8382 4.93134 78.5499 4.75568C78.2649 4.58002 77.9301 4.49219 77.5456 4.49219C77.128 4.49219 76.7634 4.59493 76.4519 4.80043C76.1436 5.0026 75.905 5.26776 75.736 5.59588C75.5703 5.92069 75.4874 6.27367 75.4874 6.65483V7.52486C75.4874 8.03527 75.5769 8.46946 75.7559 8.82741C75.9382 9.18537 76.1917 9.45881 76.5165 9.64773C76.8413 9.83333 77.2208 9.92614 77.655 9.92614C77.9367 9.92614 78.1936 9.88636 78.4256 9.80682C78.6576 9.72396 78.8581 9.60133 79.0272 9.43892C79.1962 9.27652 79.3255 9.07599 79.415 8.83736L80.8219 9.09091C80.7092 9.50521 80.507 9.86813 80.2154 10.1797C79.927 10.4879 79.5641 10.7282 79.1266 10.9006C78.6924 11.0696 78.1969 11.1541 77.6401 11.1541ZM84.0522 6.46591V11H82.5657V3.36364H83.9925V4.60653H84.087C84.2627 4.20218 84.5378 3.87737 84.9123 3.6321C85.2901 3.38684 85.7657 3.2642 86.3391 3.2642C86.8595 3.2642 87.3152 3.37358 87.7063 3.59233C88.0974 3.80777 88.4007 4.12926 88.6161 4.55682C88.8316 4.98437 88.9393 5.51302 88.9393 6.14276V11H87.4528V6.32173C87.4528 5.76823 87.3086 5.3357 87.0202 5.02415C86.7319 4.70928 86.3358 4.55185 85.832 4.55185C85.4873 4.55185 85.1808 4.62642 84.9123 4.77557C84.6471 4.92472 84.4367 5.14347 84.2809 5.43182C84.1284 5.71686 84.0522 6.06155 84.0522 6.46591ZM95.4322 6.05327V7.34091H90.918V6.05327H95.4322ZM100.63 11.1541C99.8909 11.1541 99.2545 10.9867 98.7209 10.652C98.1906 10.3139 97.7829 9.84825 97.4979 9.25497C97.2128 8.66169 97.0703 7.98224 97.0703 7.21662C97.0703 6.44105 97.2161 5.75663 97.5078 5.16335C97.7995 4.56676 98.2105 4.10109 98.7408 3.76633C99.2711 3.43158 99.8958 3.2642 100.615 3.2642C101.195 3.2642 101.712 3.37192 102.166 3.58736C102.62 3.79948 102.987 4.09777 103.265 4.48224C103.547 4.86671 103.714 5.31581 103.767 5.82955H102.32C102.241 5.47159 102.058 5.16335 101.773 4.90483C101.492 4.64631 101.114 4.51705 100.64 4.51705C100.226 4.51705 99.8627 4.62642 99.5511 4.84517C99.2429 5.06061 99.0026 5.36884 98.8303 5.76989C98.6579 6.16761 98.5717 6.63826 98.5717 7.18182C98.5717 7.73864 98.6563 8.21922 98.8253 8.62358C98.9943 9.02794 99.233 9.34115 99.5412 9.56321C99.8527 9.78527 100.219 9.89631 100.64 9.89631C100.922 9.89631 101.177 9.84493 101.406 9.74219C101.638 9.63613 101.831 9.48532 101.987 9.28977C102.146 9.09422 102.257 8.8589 102.32 8.58381H103.767C103.714 9.07765 103.553 9.51847 103.285 9.90625C103.016 10.294 102.657 10.599 102.206 10.821C101.759 11.0431 101.233 11.1541 100.63 11.1541ZM105.357 11V3.36364H106.843V11H105.357ZM106.107 2.18537C105.849 2.18537 105.627 2.09919 105.441 1.92685C105.259 1.75118 105.168 1.54238 105.168 1.30043C105.168 1.05516 105.259 0.846354 105.441 0.674005C105.627 0.498342 105.849 0.410511 106.107 0.410511C106.366 0.410511 106.586 0.498342 106.769 0.674005C106.954 0.846354 107.047 1.05516 107.047 1.30043C107.047 1.54238 106.954 1.75118 106.769 1.92685C106.586 2.09919 106.366 2.18537 106.107 2.18537ZM108.843 11V3.36364H110.28V4.5767H110.359C110.499 4.16572 110.744 3.84257 111.095 3.60724C111.45 3.36861 111.851 3.24929 112.298 3.24929C112.391 3.24929 112.5 3.2526 112.626 3.25923C112.756 3.26586 112.857 3.27415 112.93 3.28409V4.70597C112.87 4.68939 112.764 4.67116 112.612 4.65128C112.459 4.62808 112.307 4.61648 112.154 4.61648C111.803 4.61648 111.49 4.69105 111.214 4.8402C110.943 4.98603 110.727 5.18987 110.568 5.4517C110.409 5.71023 110.33 6.00521 110.33 6.33665V11H108.843ZM117.159 11.1541C116.42 11.1541 115.784 10.9867 115.25 10.652C114.72 10.3139 114.312 9.84825 114.027 9.25497C113.742 8.66169 113.6 7.98224 113.6 7.21662C113.6 6.44105 113.745 5.75663 114.037 5.16335C114.329 4.56676 114.74 4.10109 115.27 3.76633C115.8 3.43158 116.425 3.2642 117.144 3.2642C117.724 3.2642 118.241 3.37192 118.695 3.58736C119.15 3.79948 119.516 4.09777 119.794 4.48224C120.076 4.86671 120.243 5.31581 120.296 5.82955H118.85C118.77 5.47159 118.588 5.16335 118.303 4.90483C118.021 4.64631 117.643 4.51705 117.169 4.51705C116.755 4.51705 116.392 4.62642 116.08 4.84517C115.772 5.06061 115.532 5.36884 115.36 5.76989C115.187 6.16761 115.101 6.63826 115.101 7.18182C115.101 7.73864 115.186 8.21922 115.355 8.62358C115.524 9.02794 115.762 9.34115 116.07 9.56321C116.382 9.78527 116.748 9.89631 117.169 9.89631C117.451 9.89631 117.706 9.84493 117.935 9.74219C118.167 9.63613 118.361 9.48532 118.517 9.28977C118.676 9.09422 118.787 8.8589 118.85 8.58381H120.296C120.243 9.07765 120.083 9.51847 119.814 9.90625C119.546 10.294 119.186 10.599 118.735 10.821C118.288 11.0431 117.762 11.1541 117.159 11.1541ZM123.373 0.818182V11H121.886V0.818182H123.373ZM128.664 11.1541C127.911 11.1541 127.263 10.9934 126.72 10.6719C126.179 10.3471 125.762 9.89134 125.467 9.30469C125.175 8.71473 125.029 8.02367 125.029 7.23153C125.029 6.44934 125.175 5.75994 125.467 5.16335C125.762 4.56676 126.173 4.10109 126.7 3.76633C127.23 3.43158 127.85 3.2642 128.559 3.2642C128.99 3.2642 129.408 3.33546 129.812 3.47798C130.216 3.6205 130.579 3.84422 130.901 4.14915C131.222 4.45407 131.476 4.85014 131.661 5.33736C131.847 5.82126 131.94 6.40956 131.94 7.10227V7.62926H125.869V6.51562H130.483C130.483 6.12453 130.404 5.77817 130.244 5.47656C130.085 5.17164 129.862 4.93134 129.573 4.75568C129.288 4.58002 128.954 4.49219 128.569 4.49219C128.151 4.49219 127.787 4.59493 127.475 4.80043C127.167 5.0026 126.928 5.26776 126.759 5.59588C126.594 5.92069 126.511 6.27367 126.511 6.65483V7.52486C126.511 8.03527 126.6 8.46946 126.779 8.82741C126.962 9.18537 127.215 9.45881 127.54 9.64773C127.865 9.83333 128.244 9.92614 128.678 9.92614C128.96 9.92614 129.217 9.88636 129.449 9.80682C129.681 9.72396 129.882 9.60133 130.051 9.43892C130.22 9.27652 130.349 9.07599 130.438 8.83736L131.845 9.09091C131.733 9.50521 131.53 9.86813 131.239 10.1797C130.95 10.4879 130.588 10.7282 130.15 10.9006C129.716 11.0696 129.22 11.1541 128.664 11.1541Z" fill="black"/>
</svg>
