<svg viewBox="0 0 119 12" fill="none" stroke-width="2" stroke="currentColor" aria-hidden="true">
  <path d="M4.21591 11.1541C3.4768 11.1541 2.84044 10.9867 2.30682 10.652C1.77652 10.3139 1.36884 9.84825 1.08381 9.25497C0.798769 8.66169 0.65625 7.98224 0.65625 7.21662C0.65625 6.44105 0.802083 5.75663 1.09375 5.16335C1.38542 4.56676 1.7964 4.10109 2.3267 3.76633C2.85701 3.43158 3.48177 3.2642 4.20099 3.2642C4.78101 3.2642 5.29806 3.37192 5.75213 3.58736C6.2062 3.79948 6.57244 4.09777 6.85085 4.48224C7.13258 4.86671 7.29995 5.31581 7.35298 5.82955H5.90625C5.8267 5.47159 5.64441 5.16335 5.35938 4.90483C5.07765 4.64631 4.69981 4.51705 4.22585 4.51705C3.81155 4.51705 3.44863 4.62642 3.13707 4.84517C2.82884 5.06061 2.58854 5.36884 2.41619 5.76989C2.24384 6.16761 2.15767 6.63826 2.15767 7.18182C2.15767 7.73864 2.24219 8.21922 2.41122 8.62358C2.58026 9.02794 2.81889 9.34115 3.12713 9.56321C3.43868 9.78527 3.80492 9.89631 4.22585 9.89631C4.50758 9.89631 4.76278 9.84493 4.99148 9.74219C5.22349 9.63613 5.41738 9.48532 5.57315 9.28977C5.73224 9.09422 5.84328 8.8589 5.90625 8.58381H7.35298C7.29995 9.07765 7.1392 9.51847 6.87074 9.90625C6.60227 10.294 6.24266 10.599 5.7919 10.821C5.34446 11.0431 4.81913 11.1541 4.21591 11.1541ZM12.1593 11.1541C11.4434 11.1541 10.8186 10.9901 10.285 10.6619C9.75136 10.3338 9.33706 9.87476 9.04208 9.2848C8.7471 8.69484 8.59961 8.00544 8.59961 7.21662C8.59961 6.42448 8.7471 5.73177 9.04208 5.13849C9.33706 4.54522 9.75136 4.08452 10.285 3.75639C10.8186 3.42827 11.4434 3.2642 12.1593 3.2642C12.8752 3.2642 13.4999 3.42827 14.0336 3.75639C14.5672 4.08452 14.9815 4.54522 15.2765 5.13849C15.5714 5.73177 15.7189 6.42448 15.7189 7.21662C15.7189 8.00544 15.5714 8.69484 15.2765 9.2848C14.9815 9.87476 14.5672 10.3338 14.0336 10.6619C13.4999 10.9901 12.8752 11.1541 12.1593 11.1541ZM12.1642 9.90625C12.6283 9.90625 13.0127 9.78362 13.3176 9.53835C13.6226 9.29309 13.848 8.96662 13.9938 8.55895C14.1429 8.15128 14.2175 7.70218 14.2175 7.21165C14.2175 6.72443 14.1429 6.27699 13.9938 5.86932C13.848 5.45833 13.6226 5.12855 13.3176 4.87997C13.0127 4.63139 12.6283 4.5071 12.1642 4.5071C11.6969 4.5071 11.3091 4.63139 11.0009 4.87997C10.696 5.12855 10.4689 5.45833 10.3198 5.86932C10.1739 6.27699 10.101 6.72443 10.101 7.21165C10.101 7.70218 10.1739 8.15128 10.3198 8.55895C10.4689 8.96662 10.696 9.29309 11.0009 9.53835C11.3091 9.78362 11.6969 9.90625 12.1642 9.90625ZM17.3782 11V3.36364H18.8647V11H17.3782ZM18.1289 2.18537C17.8704 2.18537 17.6483 2.09919 17.4627 1.92685C17.2804 1.75118 17.1893 1.54238 17.1893 1.30043C17.1893 1.05516 17.2804 0.846354 17.4627 0.674005C17.6483 0.498342 17.8704 0.410511 18.1289 0.410511C18.3874 0.410511 18.6078 0.498342 18.7901 0.674005C18.9757 0.846354 19.0685 1.05516 19.0685 1.30043C19.0685 1.54238 18.9757 1.75118 18.7901 1.92685C18.6078 2.09919 18.3874 2.18537 18.1289 2.18537ZM22.351 6.46591V11H20.8645V3.36364H22.2914V4.60653H22.3858C22.5615 4.20218 22.8366 3.87737 23.2111 3.6321C23.589 3.38684 24.0646 3.2642 24.638 3.2642C25.1583 3.2642 25.6141 3.37358 26.0051 3.59233C26.3962 3.80777 26.6995 4.12926 26.915 4.55682C27.1304 4.98437 27.2381 5.51302 27.2381 6.14276V11H25.7516V6.32173C25.7516 5.76823 25.6074 5.3357 25.3191 5.02415C25.0307 4.70928 24.6346 4.55185 24.1309 4.55185C23.7862 4.55185 23.4796 4.62642 23.2111 4.77557C22.946 4.92472 22.7355 5.14347 22.5797 5.43182C22.4273 5.71686 22.351 6.06155 22.351 6.46591ZM34.954 5.22798L33.6067 5.46662C33.5504 5.29427 33.4609 5.13021 33.3382 4.97443C33.2189 4.81865 33.0565 4.69105 32.851 4.59162C32.6455 4.49219 32.3887 4.44247 32.0804 4.44247C31.6595 4.44247 31.3082 4.53693 31.0265 4.72585C30.7447 4.91146 30.6039 5.15175 30.6039 5.44673C30.6039 5.70194 30.6983 5.90743 30.8873 6.06321C31.0762 6.21899 31.3811 6.34659 31.802 6.44602L33.0151 6.72443C33.7177 6.88684 34.2414 7.13707 34.5861 7.47514C34.9308 7.81321 35.1032 8.25237 35.1032 8.79261C35.1032 9.25 34.9706 9.65767 34.7054 10.0156C34.4436 10.3703 34.0774 10.6487 33.6067 10.8509C33.1394 11.053 32.5975 11.1541 31.981 11.1541C31.1259 11.1541 30.4282 10.9718 29.888 10.6072C29.3477 10.2393 29.0163 9.71733 28.8936 9.04119L30.3304 8.82244C30.4199 9.19697 30.6039 9.48035 30.8823 9.67259C31.1607 9.86151 31.5236 9.95597 31.9711 9.95597C32.4583 9.95597 32.8477 9.85488 33.1394 9.6527C33.431 9.44721 33.5769 9.19697 33.5769 8.90199C33.5769 8.66335 33.4874 8.46283 33.3084 8.30043C33.1328 8.13802 32.8626 8.01539 32.498 7.93253L31.2054 7.64915C30.4928 7.48674 29.9658 7.22822 29.6245 6.87358C29.2864 6.51894 29.1174 6.06984 29.1174 5.52628C29.1174 5.07552 29.2433 4.68111 29.4952 4.34304C29.7471 4.00497 30.0951 3.74148 30.5392 3.55256C30.9834 3.36032 31.4921 3.2642 32.0655 3.2642C32.8908 3.2642 33.5404 3.44318 34.0144 3.80114C34.4883 4.15578 34.8016 4.63139 34.954 5.22798ZM41.2369 6.05327V7.34091H36.7227V6.05327H41.2369ZM48.9403 5.22798L47.593 5.46662C47.5367 5.29427 47.4472 5.13021 47.3246 4.97443C47.2053 4.81865 47.0429 4.69105 46.8374 4.59162C46.6319 4.49219 46.375 4.44247 46.0668 4.44247C45.6458 4.44247 45.2945 4.53693 45.0128 4.72585C44.7311 4.91146 44.5902 5.15175 44.5902 5.44673C44.5902 5.70194 44.6847 5.90743 44.8736 6.06321C45.0625 6.21899 45.3674 6.34659 45.7884 6.44602L47.0014 6.72443C47.7041 6.88684 48.2277 7.13707 48.5724 7.47514C48.9171 7.81321 49.0895 8.25237 49.0895 8.79261C49.0895 9.25 48.9569 9.65767 48.6918 10.0156C48.4299 10.3703 48.0637 10.6487 47.593 10.8509C47.1257 11.053 46.5838 11.1541 45.9673 11.1541C45.1122 11.1541 44.4145 10.9718 43.8743 10.6072C43.334 10.2393 43.0026 9.71733 42.88 9.04119L44.3168 8.82244C44.4063 9.19697 44.5902 9.48035 44.8686 9.67259C45.147 9.86151 45.5099 9.95597 45.9574 9.95597C46.4446 9.95597 46.834 9.85488 47.1257 9.6527C47.4174 9.44721 47.5632 9.19697 47.5632 8.90199C47.5632 8.66335 47.4737 8.46283 47.2947 8.30043C47.1191 8.13802 46.849 8.01539 46.4844 7.93253L45.1918 7.64915C44.4792 7.48674 43.9522 7.22822 43.6108 6.87358C43.2727 6.51894 43.1037 6.06984 43.1037 5.52628C43.1037 5.07552 43.2296 4.68111 43.4815 4.34304C43.7334 4.00497 44.0814 3.74148 44.5256 3.55256C44.9697 3.36032 45.4785 3.2642 46.0518 3.2642C46.8771 3.2642 47.5268 3.44318 48.0007 3.80114C48.4747 4.15578 48.7879 4.63139 48.9403 5.22798ZM54.2885 3.36364V4.55682H50.1174V3.36364H54.2885ZM51.236 1.53409H52.7225V8.75781C52.7225 9.04616 52.7656 9.26326 52.8517 9.40909C52.9379 9.55161 53.0489 9.64938 53.1848 9.70241C53.324 9.75213 53.4748 9.77699 53.6373 9.77699C53.7566 9.77699 53.861 9.7687 53.9505 9.75213C54.04 9.73556 54.1096 9.7223 54.1593 9.71236L54.4277 10.9403C54.3416 10.9735 54.2189 11.0066 54.0598 11.0398C53.9007 11.0762 53.7019 11.0961 53.4632 11.0994C53.0721 11.1061 52.7076 11.0365 52.3695 10.8906C52.0314 10.7448 51.758 10.5194 51.5492 10.2145C51.3404 9.90956 51.236 9.52675 51.236 9.06605V1.53409ZM58.1552 11.169C57.6713 11.169 57.2338 11.0795 56.8427 10.9006C56.4516 10.7183 56.1417 10.4548 55.913 10.1101C55.6876 9.76539 55.5749 9.3428 55.5749 8.84233C55.5749 8.41146 55.6578 8.05682 55.8235 7.77841C55.9892 7.5 56.2129 7.27959 56.4947 7.11719C56.7764 6.95478 57.0913 6.83215 57.4393 6.74929C57.7873 6.66643 58.1419 6.60346 58.5032 6.56037C58.9606 6.50734 59.3318 6.46425 59.6168 6.43111C59.9019 6.39465 60.109 6.33665 60.2383 6.2571C60.3675 6.17756 60.4322 6.0483 60.4322 5.86932V5.83452C60.4322 5.40033 60.3095 5.06392 60.0643 4.82528C59.8223 4.58665 59.4611 4.46733 58.9805 4.46733C58.48 4.46733 58.0856 4.57836 57.7972 4.80043C57.5122 5.01918 57.315 5.26278 57.2056 5.53125L55.8086 5.21307C55.9743 4.74905 56.2163 4.37453 56.5344 4.08949C56.8559 3.80114 57.2255 3.59233 57.6431 3.46307C58.0607 3.33049 58.4999 3.2642 58.9606 3.2642C59.2655 3.2642 59.5887 3.30066 59.93 3.37358C60.2747 3.44318 60.5962 3.57244 60.8945 3.76136C61.1961 3.95028 61.4431 4.22041 61.6353 4.57173C61.8275 4.91974 61.9237 5.37216 61.9237 5.92898V11H60.4719V9.95597H60.4123C60.3162 10.1482 60.172 10.3371 59.9798 10.5227C59.7875 10.7083 59.5406 10.8625 59.239 10.9851C58.9374 11.1077 58.5761 11.169 58.1552 11.169ZM58.4783 9.97585C58.8893 9.97585 59.2406 9.89465 59.5323 9.73224C59.8273 9.56984 60.051 9.35772 60.2035 9.09588C60.3593 8.83073 60.4371 8.54735 60.4371 8.24574V7.26136C60.3841 7.31439 60.2814 7.36411 60.1289 7.41051C59.9798 7.4536 59.8091 7.49171 59.6168 7.52486C59.4246 7.55469 59.2373 7.58286 59.055 7.60938C58.8728 7.63258 58.7203 7.65246 58.5977 7.66903C58.3093 7.70549 58.0458 7.76681 57.8072 7.85298C57.5719 7.93916 57.3829 8.06345 57.2404 8.22585C57.1012 8.38494 57.0316 8.59706 57.0316 8.86222C57.0316 9.23011 57.1675 9.50852 57.4393 9.69744C57.7111 9.88305 58.0574 9.97585 58.4783 9.97585ZM67.1202 11.1541C66.3811 11.1541 65.7447 10.9867 65.2111 10.652C64.6808 10.3139 64.2731 9.84825 63.9881 9.25497C63.7031 8.66169 63.5605 7.98224 63.5605 7.21662C63.5605 6.44105 63.7064 5.75663 63.998 5.16335C64.2897 4.56676 64.7007 4.10109 65.231 3.76633C65.7613 3.43158 66.3861 3.2642 67.1053 3.2642C67.6853 3.2642 68.2024 3.37192 68.6564 3.58736C69.1105 3.79948 69.4767 4.09777 69.7551 4.48224C70.0369 4.86671 70.2042 5.31581 70.2573 5.82955H68.8105C68.731 5.47159 68.5487 5.16335 68.2637 4.90483C67.9819 4.64631 67.6041 4.51705 67.1301 4.51705C66.7159 4.51705 66.3529 4.62642 66.0414 4.84517C65.7331 5.06061 65.4928 5.36884 65.3205 5.76989C65.1481 6.16761 65.062 6.63826 65.062 7.18182C65.062 7.73864 65.1465 8.21922 65.3155 8.62358C65.4846 9.02794 65.7232 9.34115 66.0314 9.56321C66.343 9.78527 66.7092 9.89631 67.1301 9.89631C67.4119 9.89631 67.6671 9.84493 67.8958 9.74219C68.1278 9.63613 68.3217 9.48532 68.4775 9.28977C68.6365 9.09422 68.7476 8.8589 68.8105 8.58381H70.2573C70.2042 9.07765 70.0435 9.51847 69.775 9.90625C69.5066 10.294 69.147 10.599 68.6962 10.821C68.2488 11.0431 67.7234 11.1541 67.1202 11.1541ZM73.2141 8.4098L73.2042 6.59517H73.4627L76.5053 3.36364H78.2852L74.815 7.04261H74.5813L73.2141 8.4098ZM71.8469 11V0.818182H73.3335V11H71.8469ZM76.6694 11L73.935 7.37074L74.9592 6.33168L78.494 11H76.6694ZM82.6167 11.1541C81.8643 11.1541 81.2163 10.9934 80.6728 10.6719C80.1325 10.3471 79.7149 9.89134 79.4199 9.30469C79.1283 8.71473 78.9824 8.02367 78.9824 7.23153C78.9824 6.44934 79.1283 5.75994 79.4199 5.16335C79.7149 4.56676 80.1259 4.10109 80.6529 3.76633C81.1832 3.43158 81.803 3.2642 82.5123 3.2642C82.9431 3.2642 83.3607 3.33546 83.7651 3.47798C84.1694 3.6205 84.5324 3.84422 84.8539 4.14915C85.1754 4.45407 85.4289 4.85014 85.6145 5.33736C85.8001 5.82126 85.8929 6.40956 85.8929 7.10227V7.62926H79.8226V6.51562H84.4363C84.4363 6.12453 84.3567 5.77817 84.1976 5.47656C84.0385 5.17164 83.8148 4.93134 83.5265 4.75568C83.2414 4.58002 82.9067 4.49219 82.5222 4.49219C82.1046 4.49219 81.74 4.59493 81.4284 4.80043C81.1202 5.0026 80.8816 5.26776 80.7125 5.59588C80.5468 5.92069 80.464 6.27367 80.464 6.65483V7.52486C80.464 8.03527 80.5534 8.46946 80.7324 8.82741C80.9147 9.18537 81.1683 9.45881 81.4931 9.64773C81.8179 9.83333 82.1974 9.92614 82.6316 9.92614C82.9133 9.92614 83.1702 9.88636 83.4022 9.80682C83.6342 9.72396 83.8347 9.60133 84.0037 9.43892C84.1728 9.27652 84.302 9.07599 84.3915 8.83736L85.7985 9.09091C85.6858 9.50521 85.4836 9.86813 85.1919 10.1797C84.9036 10.4879 84.5407 10.7282 84.1032 10.9006C83.669 11.0696 83.1735 11.1541 82.6167 11.1541ZM90.4009 11.1491C89.7844 11.1491 89.2343 10.9917 88.7504 10.6768C88.2698 10.3587 87.8919 9.90625 87.6168 9.3196C87.3451 8.72964 87.2092 8.02202 87.2092 7.19673C87.2092 6.37145 87.3467 5.66548 87.6218 5.07884C87.9002 4.49219 88.2814 4.04309 88.7653 3.73153C89.2492 3.41998 89.7977 3.2642 90.4109 3.2642C90.8848 3.2642 91.266 3.34375 91.5543 3.50284C91.846 3.65862 92.0714 3.84091 92.2305 4.04972C92.3929 4.25852 92.5188 4.44247 92.6083 4.60156H92.6978V0.818182H94.1843V11H92.7326V9.81179H92.6083C92.5188 9.9742 92.3896 10.1598 92.2205 10.3686C92.0548 10.5774 91.8261 10.7597 91.5344 10.9155C91.2428 11.0713 90.8649 11.1491 90.4009 11.1491ZM90.729 9.88139C91.1566 9.88139 91.5179 9.7687 91.8129 9.54332C92.1112 9.31463 92.3365 8.99811 92.489 8.59375C92.6448 8.18939 92.7227 7.71875 92.7227 7.18182C92.7227 6.65151 92.6464 6.1875 92.494 5.78977C92.3415 5.39205 92.1178 5.08215 91.8228 4.86009C91.5278 4.63802 91.1632 4.52699 90.729 4.52699C90.2816 4.52699 89.9087 4.64299 89.6104 4.875C89.3121 5.10701 89.0868 5.42353 88.9343 5.82457C88.7852 6.22562 88.7106 6.67803 88.7106 7.18182C88.7106 7.69223 88.7868 8.15128 88.9393 8.55895C89.0917 8.96662 89.3171 9.28977 89.6154 9.52841C89.917 9.76373 90.2882 9.88139 90.729 9.88139ZM100.805 6.05327V7.34091H96.291V6.05327H100.805ZM106.311 11.169C105.526 11.1657 104.855 10.9586 104.298 10.5476C103.741 10.1366 103.315 9.53835 103.02 8.75284C102.725 7.96733 102.578 7.02107 102.578 5.91406C102.578 4.81037 102.725 3.86742 103.02 3.08523C103.318 2.30303 103.746 1.70644 104.303 1.29545C104.863 0.884469 105.532 0.678977 106.311 0.678977C107.09 0.678977 107.758 0.886126 108.315 1.30043C108.872 1.71141 109.298 2.308 109.593 3.0902C109.891 3.86908 110.04 4.81037 110.04 5.91406C110.04 7.02438 109.892 7.9723 109.597 8.75781C109.302 9.54001 108.877 10.1383 108.32 10.5526C107.763 10.9635 107.093 11.169 106.311 11.169ZM106.311 9.84162C107.001 9.84162 107.539 9.50521 107.927 8.83239C108.318 8.15956 108.514 7.18679 108.514 5.91406C108.514 5.06889 108.424 4.35464 108.245 3.77131C108.07 3.18466 107.816 2.74053 107.485 2.43892C107.156 2.134 106.765 1.98153 106.311 1.98153C105.625 1.98153 105.087 2.3196 104.695 2.99574C104.304 3.67187 104.107 4.64465 104.104 5.91406C104.104 6.76255 104.192 7.48011 104.367 8.06676C104.546 8.65009 104.8 9.09257 105.128 9.39418C105.456 9.69247 105.851 9.84162 106.311 9.84162ZM111.804 11V9.88636L115.249 6.31676C115.617 5.92898 115.92 5.58925 116.159 5.29759C116.401 5.0026 116.581 4.72254 116.701 4.45739C116.82 4.19223 116.88 3.91051 116.88 3.61222C116.88 3.27415 116.8 2.98248 116.641 2.73722C116.482 2.48864 116.265 2.29806 115.99 2.16548C115.715 2.02959 115.405 1.96165 115.06 1.96165C114.695 1.96165 114.377 2.03622 114.105 2.18537C113.834 2.33452 113.625 2.54498 113.479 2.81676C113.333 3.08854 113.26 3.40672 113.26 3.77131H111.794C111.794 3.15151 111.936 2.60961 112.221 2.1456C112.506 1.68158 112.897 1.32197 113.395 1.06676C113.892 0.808238 114.457 0.678977 115.09 0.678977C115.73 0.678977 116.293 0.806581 116.78 1.06179C117.271 1.31368 117.654 1.65838 117.929 2.09588C118.204 2.53007 118.341 3.0206 118.341 3.56747C118.341 3.94531 118.27 4.31487 118.127 4.67614C117.988 5.0374 117.745 5.4401 117.397 5.88423C117.049 6.32505 116.565 6.86032 115.945 7.49006L113.922 9.60795V9.68253H118.505V11H111.804Z" fill="black"/>
</svg>
