<svg viewBox="0 0 120 12" fill="none" stroke-width="2" stroke="currentColor" aria-hidden="true">
  <path d="M4.21591 11.1541C3.4768 11.1541 2.84044 10.9867 2.30682 10.652C1.77652 10.3139 1.36884 9.84825 1.08381 9.25497C0.798769 8.66169 0.65625 7.98224 0.65625 7.21662C0.65625 6.44105 0.802083 5.75663 1.09375 5.16335C1.38542 4.56676 1.7964 4.10109 2.3267 3.76633C2.85701 3.43158 3.48177 3.2642 4.20099 3.2642C4.78101 3.2642 5.29806 3.37192 5.75213 3.58736C6.2062 3.79948 6.57244 4.09777 6.85085 4.48224C7.13258 4.86671 7.29995 5.31581 7.35298 5.82955H5.90625C5.8267 5.47159 5.64441 5.16335 5.35938 4.90483C5.07765 4.64631 4.69981 4.51705 4.22585 4.51705C3.81155 4.51705 3.44863 4.62642 3.13707 4.84517C2.82884 5.06061 2.58854 5.36884 2.41619 5.76989C2.24384 6.16761 2.15767 6.63826 2.15767 7.18182C2.15767 7.73864 2.24219 8.21922 2.41122 8.62358C2.58026 9.02794 2.81889 9.34115 3.12713 9.56321C3.43868 9.78527 3.80492 9.89631 4.22585 9.89631C4.50758 9.89631 4.76278 9.84493 4.99148 9.74219C5.22349 9.63613 5.41738 9.48532 5.57315 9.28977C5.73224 9.09422 5.84328 8.8589 5.90625 8.58381H7.35298C7.29995 9.07765 7.1392 9.51847 6.87074 9.90625C6.60227 10.294 6.24266 10.599 5.7919 10.821C5.34446 11.0431 4.81913 11.1541 4.21591 11.1541ZM8.94265 11V3.36364H10.3794V4.5767H10.459C10.5982 4.16572 10.8435 3.84257 11.1948 3.60724C11.5494 3.36861 11.9505 3.24929 12.3979 3.24929C12.4907 3.24929 12.6001 3.2526 12.726 3.25923C12.8553 3.26586 12.9564 3.27415 13.0293 3.28409V4.70597C12.9696 4.68939 12.8636 4.67116 12.7111 4.65128C12.5587 4.62808 12.4062 4.61648 12.2537 4.61648C11.9024 4.61648 11.5892 4.69105 11.3141 4.8402C11.0423 4.98603 10.8269 5.18987 10.6678 5.4517C10.5087 5.71023 10.4292 6.00521 10.4292 6.33665V11H8.94265ZM17.3335 11.1541C16.5811 11.1541 15.9331 10.9934 15.3896 10.6719C14.8493 10.3471 14.4317 9.89134 14.1367 9.30469C13.8451 8.71473 13.6992 8.02367 13.6992 7.23153C13.6992 6.44934 13.8451 5.75994 14.1367 5.16335C14.4317 4.56676 14.8427 4.10109 15.3697 3.76633C15.9 3.43158 16.5198 3.2642 17.229 3.2642C17.6599 3.2642 18.0775 3.33546 18.4819 3.47798C18.8862 3.6205 19.2492 3.84422 19.5707 4.14915C19.8922 4.45407 20.1457 4.85014 20.3313 5.33736C20.5169 5.82126 20.6097 6.40956 20.6097 7.10227V7.62926H14.5394V6.51562H19.1531C19.1531 6.12453 19.0735 5.77817 18.9144 5.47656C18.7553 5.17164 18.5316 4.93134 18.2433 4.75568C17.9582 4.58002 17.6235 4.49219 17.239 4.49219C16.8214 4.49219 16.4568 4.59493 16.1452 4.80043C15.837 5.0026 15.5984 5.26776 15.4293 5.59588C15.2636 5.92069 15.1808 6.27367 15.1808 6.65483V7.52486C15.1808 8.03527 15.2702 8.46946 15.4492 8.82741C15.6315 9.18537 15.8851 9.45881 16.2099 9.64773C16.5347 9.83333 16.9142 9.92614 17.3484 9.92614C17.6301 9.92614 17.887 9.88636 18.119 9.80682C18.351 9.72396 18.5515 9.60133 18.7205 9.43892C18.8896 9.27652 19.0188 9.07599 19.1083 8.83736L20.5153 9.09091C20.4026 9.50521 20.2004 9.86813 19.9087 10.1797C19.6204 10.4879 19.2575 10.7282 18.82 10.9006C18.3858 11.0696 17.8903 11.1541 17.3335 11.1541ZM25.1177 11.1491C24.5012 11.1491 23.9511 10.9917 23.4672 10.6768C22.9866 10.3587 22.6087 9.90625 22.3336 9.3196C22.0618 8.72964 21.926 8.02202 21.926 7.19673C21.926 6.37145 22.0635 5.66548 22.3386 5.07884C22.617 4.49219 22.9982 4.04309 23.4821 3.73153C23.966 3.41998 24.5145 3.2642 25.1277 3.2642C25.6016 3.2642 25.9828 3.34375 26.2711 3.50284C26.5628 3.65862 26.7882 3.84091 26.9473 4.04972C27.1097 4.25852 27.2356 4.44247 27.3251 4.60156H27.4146V0.818182H28.9011V11H27.4494V9.81179H27.3251C27.2356 9.9742 27.1064 10.1598 26.9373 10.3686C26.7716 10.5774 26.5429 10.7597 26.2512 10.9155C25.9596 11.0713 25.5817 11.1491 25.1177 11.1491ZM25.4458 9.88139C25.8734 9.88139 26.2347 9.7687 26.5297 9.54332C26.8279 9.31463 27.0533 8.99811 27.2058 8.59375C27.3616 8.18939 27.4395 7.71875 27.4395 7.18182C27.4395 6.65151 27.3632 6.1875 27.2108 5.78977C27.0583 5.39205 26.8346 5.08215 26.5396 4.86009C26.2446 4.63802 25.88 4.52699 25.4458 4.52699C24.9984 4.52699 24.6255 4.64299 24.3272 4.875C24.0289 5.10701 23.8036 5.42353 23.6511 5.82457C23.502 6.22562 23.4274 6.67803 23.4274 7.18182C23.4274 7.69223 23.5036 8.15128 23.6561 8.55895C23.8085 8.96662 24.0339 9.28977 24.3322 9.52841C24.6338 9.76373 25.005 9.88139 25.4458 9.88139ZM31.0227 11V3.36364H32.5092V11H31.0227ZM31.7734 2.18537C31.5149 2.18537 31.2929 2.09919 31.1072 1.92685C30.925 1.75118 30.8338 1.54238 30.8338 1.30043C30.8338 1.05516 30.925 0.846354 31.1072 0.674005C31.2929 0.498342 31.5149 0.410511 31.7734 0.410511C32.032 0.410511 32.2524 0.498342 32.4347 0.674005C32.6203 0.846354 32.7131 1.05516 32.7131 1.30043C32.7131 1.54238 32.6203 1.75118 32.4347 1.92685C32.2524 2.09919 32.032 2.18537 31.7734 2.18537ZM38.0737 3.36364V4.55682H33.9025V3.36364H38.0737ZM35.0211 1.53409H36.5076V8.75781C36.5076 9.04616 36.5507 9.26326 36.6369 9.40909C36.7231 9.55161 36.8341 9.64938 36.97 9.70241C37.1092 9.75213 37.26 9.77699 37.4224 9.77699C37.5417 9.77699 37.6461 9.7687 37.7356 9.75213C37.8251 9.73556 37.8947 9.7223 37.9444 9.71236L38.2129 10.9403C38.1267 10.9735 38.0041 11.0066 37.845 11.0398C37.6859 11.0762 37.487 11.0961 37.2484 11.0994C36.8573 11.1061 36.4927 11.0365 36.1547 10.8906C35.8166 10.7448 35.5431 10.5194 35.3343 10.2145C35.1255 9.90956 35.0211 9.52675 35.0211 9.06605V1.53409ZM43.9576 6.05327V7.34091H39.4434V6.05327H43.9576ZM49.1554 11.1541C48.4163 11.1541 47.7799 10.9867 47.2463 10.652C46.716 10.3139 46.3083 9.84825 46.0233 9.25497C45.7382 8.66169 45.5957 7.98224 45.5957 7.21662C45.5957 6.44105 45.7415 5.75663 46.0332 5.16335C46.3249 4.56676 46.7359 4.10109 47.2662 3.76633C47.7965 3.43158 48.4212 3.2642 49.1404 3.2642C49.7205 3.2642 50.2375 3.37192 50.6916 3.58736C51.1457 3.79948 51.5119 4.09777 51.7903 4.48224C52.072 4.86671 52.2394 5.31581 52.2924 5.82955H50.8457C50.7662 5.47159 50.5839 5.16335 50.2988 4.90483C50.0171 4.64631 49.6393 4.51705 49.1653 4.51705C48.751 4.51705 48.3881 4.62642 48.0765 4.84517C47.7683 5.06061 47.528 5.36884 47.3556 5.76989C47.1833 6.16761 47.0971 6.63826 47.0971 7.18182C47.0971 7.73864 47.1816 8.21922 47.3507 8.62358C47.5197 9.02794 47.7583 9.34115 48.0666 9.56321C48.3781 9.78527 48.7444 9.89631 49.1653 9.89631C49.447 9.89631 49.7022 9.84493 49.9309 9.74219C50.1629 9.63613 50.3568 9.48532 50.5126 9.28977C50.6717 9.09422 50.7827 8.8589 50.8457 8.58381H52.2924C52.2394 9.07765 52.0787 9.51847 51.8102 9.90625C51.5417 10.294 51.1821 10.599 50.7314 10.821C50.2839 11.0431 49.7586 11.1541 49.1554 11.1541ZM56.1044 11.169C55.6205 11.169 55.183 11.0795 54.7919 10.9006C54.4008 10.7183 54.0909 10.4548 53.8622 10.1101C53.6368 9.76539 53.5241 9.3428 53.5241 8.84233C53.5241 8.41146 53.607 8.05682 53.7727 7.77841C53.9384 7.5 54.1622 7.27959 54.4439 7.11719C54.7256 6.95478 55.0405 6.83215 55.3885 6.74929C55.7365 6.66643 56.0911 6.60346 56.4524 6.56037C56.9098 6.50734 57.281 6.46425 57.5661 6.43111C57.8511 6.39465 58.0582 6.33665 58.1875 6.2571C58.3168 6.17756 58.3814 6.0483 58.3814 5.86932V5.83452C58.3814 5.40033 58.2588 5.06392 58.0135 4.82528C57.7715 4.58665 57.4103 4.46733 56.9297 4.46733C56.4292 4.46733 56.0348 4.57836 55.7464 4.80043C55.4614 5.01918 55.2642 5.26278 55.1548 5.53125L53.7578 5.21307C53.9235 4.74905 54.1655 4.37453 54.4837 4.08949C54.8052 3.80114 55.1747 3.59233 55.5923 3.46307C56.0099 3.33049 56.4491 3.2642 56.9098 3.2642C57.2147 3.2642 57.5379 3.30066 57.8793 3.37358C58.224 3.44318 58.5455 3.57244 58.8438 3.76136C59.1454 3.95028 59.3923 4.22041 59.5845 4.57173C59.7768 4.91974 59.8729 5.37216 59.8729 5.92898V11H58.4212V9.95597H58.3615C58.2654 10.1482 58.1212 10.3371 57.929 10.5227C57.7367 10.7083 57.4898 10.8625 57.1882 10.9851C56.8866 11.1077 56.5253 11.169 56.1044 11.169ZM56.4276 9.97585C56.8385 9.97585 57.1899 9.89465 57.4815 9.73224C57.7765 9.56984 58.0002 9.35772 58.1527 9.09588C58.3085 8.83073 58.3864 8.54735 58.3864 8.24574V7.26136C58.3333 7.31439 58.2306 7.36411 58.0781 7.41051C57.929 7.4536 57.7583 7.49171 57.5661 7.52486C57.3738 7.55469 57.1866 7.58286 57.0043 7.60938C56.822 7.63258 56.6695 7.65246 56.5469 7.66903C56.2585 7.70549 55.995 7.76681 55.7564 7.85298C55.5211 7.93916 55.3321 8.06345 55.1896 8.22585C55.0504 8.38494 54.9808 8.59706 54.9808 8.86222C54.9808 9.23011 55.1167 9.50852 55.3885 9.69744C55.6603 9.88305 56.0066 9.97585 56.4276 9.97585ZM61.8528 11V3.36364H63.2896V4.5767H63.3691C63.5083 4.16572 63.7536 3.84257 64.1049 3.60724C64.4596 3.36861 64.8606 3.24929 65.3081 3.24929C65.4009 3.24929 65.5102 3.2526 65.6362 3.25923C65.7654 3.26586 65.8665 3.27415 65.9395 3.28409V4.70597C65.8798 4.68939 65.7737 4.67116 65.6213 4.65128C65.4688 4.62808 65.3163 4.61648 65.1639 4.61648C64.8126 4.61648 64.4993 4.69105 64.2243 4.8402C63.9525 4.98603 63.737 5.18987 63.5779 5.4517C63.4189 5.71023 63.3393 6.00521 63.3393 6.33665V11H61.8528ZM69.8111 11.1491C69.1946 11.1491 68.6444 10.9917 68.1605 10.6768C67.6799 10.3587 67.3021 9.90625 67.027 9.3196C66.7552 8.72964 66.6193 8.02202 66.6193 7.19673C66.6193 6.37145 66.7569 5.66548 67.032 5.07884C67.3104 4.49219 67.6915 4.04309 68.1754 3.73153C68.6593 3.41998 69.2079 3.2642 69.821 3.2642C70.295 3.2642 70.6761 3.34375 70.9645 3.50284C71.2562 3.65862 71.4815 3.84091 71.6406 4.04972C71.803 4.25852 71.929 4.44247 72.0185 4.60156H72.108V0.818182H73.5945V11H72.1428V9.81179H72.0185C71.929 9.9742 71.7997 10.1598 71.6307 10.3686C71.465 10.5774 71.2363 10.7597 70.9446 10.9155C70.6529 11.0713 70.2751 11.1491 69.8111 11.1491ZM70.1392 9.88139C70.5668 9.88139 70.928 9.7687 71.223 9.54332C71.5213 9.31463 71.7467 8.99811 71.8991 8.59375C72.0549 8.18939 72.1328 7.71875 72.1328 7.18182C72.1328 6.65151 72.0566 6.1875 71.9041 5.78977C71.7517 5.39205 71.5279 5.08215 71.233 4.86009C70.938 4.63802 70.5734 4.52699 70.1392 4.52699C69.6918 4.52699 69.3189 4.64299 69.0206 4.875C68.7223 5.10701 68.4969 5.42353 68.3445 5.82457C68.1953 6.22562 68.1207 6.67803 68.1207 7.18182C68.1207 7.69223 68.197 8.15128 68.3494 8.55895C68.5019 8.96662 68.7273 9.28977 69.0256 9.52841C69.3272 9.76373 69.6984 9.88139 70.1392 9.88139ZM80.2154 6.05327V7.34091H75.7012V6.05327H80.2154ZM87.9189 5.22798L86.5716 5.46662C86.5152 5.29427 86.4257 5.13021 86.3031 4.97443C86.1838 4.81865 86.0214 4.69105 85.8159 4.59162C85.6104 4.49219 85.3535 4.44247 85.0453 4.44247C84.6243 4.44247 84.273 4.53693 83.9913 4.72585C83.7096 4.91146 83.5687 5.15175 83.5687 5.44673C83.5687 5.70194 83.6632 5.90743 83.8521 6.06321C84.041 6.21899 84.3459 6.34659 84.7669 6.44602L85.9799 6.72443C86.6826 6.88684 87.2063 7.13707 87.551 7.47514C87.8957 7.81321 88.068 8.25237 88.068 8.79261C88.068 9.25 87.9354 9.65767 87.6703 10.0156C87.4084 10.3703 87.0422 10.6487 86.5716 10.8509C86.1042 11.053 85.5623 11.1541 84.9458 11.1541C84.0907 11.1541 83.3931 10.9718 82.8528 10.6072C82.3126 10.2393 81.9811 9.71733 81.8585 9.04119L83.2953 8.82244C83.3848 9.19697 83.5687 9.48035 83.8471 9.67259C84.1255 9.86151 84.4885 9.95597 84.9359 9.95597C85.4231 9.95597 85.8126 9.85488 86.1042 9.6527C86.3959 9.44721 86.5417 9.19697 86.5417 8.90199C86.5417 8.66335 86.4522 8.46283 86.2733 8.30043C86.0976 8.13802 85.8275 8.01539 85.4629 7.93253L84.1703 7.64915C83.4577 7.48674 82.9307 7.22822 82.5893 6.87358C82.2512 6.51894 82.0822 6.06984 82.0822 5.52628C82.0822 5.07552 82.2082 4.68111 82.46 4.34304C82.7119 4.00497 83.06 3.74148 83.5041 3.55256C83.9482 3.36032 84.457 3.2642 85.0304 3.2642C85.8556 3.2642 86.5053 3.44318 86.9792 3.80114C87.4532 4.15578 87.7664 4.63139 87.9189 5.22798ZM91.1889 6.46591V11H89.7024V0.818182H91.169V4.60653H91.2635C91.4425 4.19555 91.7159 3.86908 92.0838 3.62713C92.4517 3.38518 92.9323 3.2642 93.5256 3.2642C94.0492 3.2642 94.5066 3.37192 94.8977 3.58736C95.2921 3.80279 95.5971 4.12429 95.8125 4.55185C96.0312 4.97609 96.1406 5.50639 96.1406 6.14276V11H94.6541V6.32173C94.6541 5.7616 94.5099 5.32741 94.2216 5.01918C93.9332 4.70762 93.5322 4.55185 93.0185 4.55185C92.6671 4.55185 92.3523 4.62642 92.0739 4.77557C91.7988 4.92472 91.5817 5.14347 91.4226 5.43182C91.2668 5.71686 91.1889 6.06155 91.1889 6.46591ZM98.1243 11V3.36364H99.6108V11H98.1243ZM98.875 2.18537C98.6165 2.18537 98.3944 2.09919 98.2088 1.92685C98.0265 1.75118 97.9354 1.54238 97.9354 1.30043C97.9354 1.05516 98.0265 0.846354 98.2088 0.674005C98.3944 0.498342 98.6165 0.410511 98.875 0.410511C99.1335 0.410511 99.3539 0.498342 99.5362 0.674005C99.7218 0.846354 99.8146 1.05516 99.8146 1.30043C99.8146 1.54238 99.7218 1.75118 99.5362 1.92685C99.3539 2.09919 99.1335 2.18537 98.875 2.18537ZM104.902 11.1541C104.149 11.1541 103.501 10.9934 102.958 10.6719C102.418 10.3471 102 9.89134 101.705 9.30469C101.413 8.71473 101.268 8.02367 101.268 7.23153C101.268 6.44934 101.413 5.75994 101.705 5.16335C102 4.56676 102.411 4.10109 102.938 3.76633C103.468 3.43158 104.088 3.2642 104.797 3.2642C105.228 3.2642 105.646 3.33546 106.05 3.47798C106.455 3.6205 106.818 3.84422 107.139 4.14915C107.461 4.45407 107.714 4.85014 107.9 5.33736C108.085 5.82126 108.178 6.40956 108.178 7.10227V7.62926H102.108V6.51562H106.721C106.721 6.12453 106.642 5.77817 106.483 5.47656C106.324 5.17164 106.1 4.93134 105.812 4.75568C105.527 4.58002 105.192 4.49219 104.807 4.49219C104.39 4.49219 104.025 4.59493 103.714 4.80043C103.405 5.0026 103.167 5.26776 102.998 5.59588C102.832 5.92069 102.749 6.27367 102.749 6.65483V7.52486C102.749 8.03527 102.839 8.46946 103.018 8.82741C103.2 9.18537 103.453 9.45881 103.778 9.64773C104.103 9.83333 104.483 9.92614 104.917 9.92614C105.198 9.92614 105.455 9.88636 105.687 9.80682C105.919 9.72396 106.12 9.60133 106.289 9.43892C106.458 9.27652 106.587 9.07599 106.677 8.83736L108.084 9.09091C107.971 9.50521 107.769 9.86813 107.477 10.1797C107.189 10.4879 106.826 10.7282 106.388 10.9006C105.954 11.0696 105.459 11.1541 104.902 11.1541ZM111.314 0.818182V11H109.827V0.818182H111.314ZM116.172 11.1491C115.556 11.1491 115.006 10.9917 114.522 10.6768C114.041 10.3587 113.663 9.90625 113.388 9.3196C113.117 8.72964 112.981 8.02202 112.981 7.19673C112.981 6.37145 113.118 5.66548 113.393 5.07884C113.672 4.49219 114.053 4.04309 114.537 3.73153C115.021 3.41998 115.569 3.2642 116.182 3.2642C116.656 3.2642 117.037 3.34375 117.326 3.50284C117.617 3.65862 117.843 3.84091 118.002 4.04972C118.164 4.25852 118.29 4.44247 118.38 4.60156H118.469V0.818182H119.956V11H118.504V9.81179H118.38C118.29 9.9742 118.161 10.1598 117.992 10.3686C117.826 10.5774 117.598 10.7597 117.306 10.9155C117.014 11.0713 116.636 11.1491 116.172 11.1491ZM116.501 9.88139C116.928 9.88139 117.289 9.7687 117.584 9.54332C117.883 9.31463 118.108 8.99811 118.26 8.59375C118.416 8.18939 118.494 7.71875 118.494 7.18182C118.494 6.65151 118.418 6.1875 118.265 5.78977C118.113 5.39205 117.889 5.08215 117.594 4.86009C117.299 4.63802 116.935 4.52699 116.501 4.52699C116.053 4.52699 115.68 4.64299 115.382 4.875C115.084 5.10701 114.858 5.42353 114.706 5.82457C114.557 6.22562 114.482 6.67803 114.482 7.18182C114.482 7.69223 114.558 8.15128 114.711 8.55895C114.863 8.96662 115.089 9.28977 115.387 9.52841C115.689 9.76373 116.06 9.88139 116.501 9.88139Z" fill="black"/>
</svg>
