<svg viewBox="0 0 96 11" fill="none" stroke-width="2" stroke="currentColor" aria-hidden="true">
  <path d="M4.21591 8.15412C3.4768 8.15412 2.84044 7.98674 2.30682 7.65199C1.77652 7.31392 1.36884 6.84825 1.08381 6.25497C0.798769 5.66169 0.65625 4.98224 0.65625 4.21662C0.65625 3.44105 0.802083 2.75663 1.09375 2.16335C1.38542 1.56676 1.7964 1.10109 2.3267 0.766335C2.85701 0.431581 3.48177 0.264205 4.20099 0.264205C4.78101 0.264205 5.29806 0.371922 5.75213 0.587358C6.2062 0.799479 6.57244 1.09777 6.85085 1.48224C7.13258 1.86671 7.29995 2.31581 7.35298 2.82955H5.90625C5.8267 2.47159 5.64441 2.16335 5.35938 1.90483C5.07765 1.64631 4.69981 1.51705 4.22585 1.51705C3.81155 1.51705 3.44863 1.62642 3.13707 1.84517C2.82884 2.06061 2.58854 2.36884 2.41619 2.76989C2.24384 3.16761 2.15767 3.63826 2.15767 4.18182C2.15767 4.73864 2.24219 5.21922 2.41122 5.62358C2.58026 6.02794 2.81889 6.34115 3.12713 6.56321C3.43868 6.78527 3.80492 6.89631 4.22585 6.89631C4.50758 6.89631 4.76278 6.84493 4.99148 6.74219C5.22349 6.63613 5.41738 6.48532 5.57315 6.28977C5.73224 6.09422 5.84328 5.8589 5.90625 5.58381H7.35298C7.29995 6.07765 7.1392 6.51847 6.87074 6.90625C6.60227 7.29403 6.24266 7.59896 5.7919 7.82102C5.34446 8.04309 4.81913 8.15412 4.21591 8.15412ZM13.78 4.8331V0.363636H15.2715V8H13.8098V6.67756H13.7303C13.5546 7.08523 13.2729 7.42495 12.8851 7.69673C12.5007 7.9652 12.0217 8.09943 11.4483 8.09943C10.9578 8.09943 10.5236 7.99171 10.1458 7.77628C9.77125 7.55753 9.47627 7.23438 9.26083 6.80682C9.04871 6.37926 8.94265 5.85062 8.94265 5.22088V0.363636H10.4292V5.0419C10.4292 5.56226 10.5733 5.97656 10.8617 6.2848C11.15 6.59304 11.5246 6.74716 11.9853 6.74716C12.2637 6.74716 12.5404 6.67756 12.8155 6.53835C13.0939 6.39915 13.3243 6.18868 13.5066 5.90696C13.6922 5.62524 13.7833 5.26728 13.78 4.8331ZM17.2688 8V0.363636H18.7056V1.5767H18.7852C18.9244 1.16572 19.1696 0.842566 19.521 0.607244C19.8756 0.368608 20.2766 0.249289 20.7241 0.249289C20.8169 0.249289 20.9263 0.252604 21.0522 0.259233C21.1815 0.265861 21.2826 0.274147 21.3555 0.284091V1.70597C21.2958 1.68939 21.1897 1.67116 21.0373 1.65128C20.8848 1.62808 20.7324 1.61648 20.5799 1.61648C20.2286 1.61648 19.9154 1.69105 19.6403 1.8402C19.3685 1.98603 19.1531 2.18987 18.994 2.4517C18.8349 2.71023 18.7553 3.00521 18.7553 3.33665V8H17.2688ZM22.6419 8V0.363636H24.0787V1.5767H24.1582C24.2974 1.16572 24.5427 0.842566 24.894 0.607244C25.2486 0.368608 25.6497 0.249289 26.0971 0.249289C26.1899 0.249289 26.2993 0.252604 26.4252 0.259233C26.5545 0.265861 26.6556 0.274147 26.7285 0.284091V1.70597C26.6689 1.68939 26.5628 1.67116 26.4103 1.65128C26.2579 1.62808 26.1054 1.61648 25.9529 1.61648C25.6016 1.61648 25.2884 1.69105 25.0133 1.8402C24.7415 1.98603 24.5261 2.18987 24.367 2.4517C24.2079 2.71023 24.1284 3.00521 24.1284 3.33665V8H22.6419ZM31.0327 8.15412C30.2803 8.15412 29.6323 7.99337 29.0888 7.67188C28.5485 7.34706 28.1309 6.89134 27.8359 6.30469C27.5443 5.71473 27.3984 5.02367 27.3984 4.23153C27.3984 3.44934 27.5443 2.75994 27.8359 2.16335C28.1309 1.56676 28.5419 1.10109 29.0689 0.766335C29.5992 0.431581 30.219 0.264205 30.9283 0.264205C31.3591 0.264205 31.7768 0.335464 32.1811 0.477983C32.5855 0.620502 32.9484 0.844223 33.2699 1.14915C33.5914 1.45407 33.8449 1.85014 34.0305 2.33736C34.2161 2.82126 34.3089 3.40956 34.3089 4.10227V4.62926H28.2386V3.51562H32.8523C32.8523 3.12453 32.7727 2.77817 32.6136 2.47656C32.4545 2.17164 32.2308 1.93134 31.9425 1.75568C31.6574 1.58002 31.3227 1.49219 30.9382 1.49219C30.5206 1.49219 30.156 1.59493 29.8445 1.80043C29.5362 2.0026 29.2976 2.26776 29.1286 2.59588C28.9628 2.92069 28.88 3.27367 28.88 3.65483V4.52486C28.88 5.03527 28.9695 5.46946 29.1484 5.82741C29.3307 6.18537 29.5843 6.45881 29.9091 6.64773C30.2339 6.83333 30.6134 6.92614 31.0476 6.92614C31.3293 6.92614 31.5862 6.88636 31.8182 6.80682C32.0502 6.72396 32.2507 6.60133 32.4197 6.43892C32.5888 6.27652 32.718 6.07599 32.8075 5.83736L34.2145 6.09091C34.1018 6.50521 33.8996 6.86813 33.608 7.17969C33.3196 7.48793 32.9567 7.72822 32.5192 7.90057C32.085 8.0696 31.5895 8.15412 31.0327 8.15412ZM37.4448 3.46591V8H35.9583V0.363636H37.3851V1.60653H37.4796C37.6552 1.20218 37.9303 0.877367 38.3049 0.632102C38.6827 0.386837 39.1583 0.264205 39.7317 0.264205C40.2521 0.264205 40.7078 0.37358 41.0989 0.59233C41.49 0.807765 41.7933 1.12926 42.0087 1.55682C42.2241 1.98437 42.3319 2.51302 42.3319 3.14276V8H40.8453V3.32173C40.8453 2.76823 40.7012 2.3357 40.4128 2.02415C40.1245 1.70928 39.7284 1.55185 39.2246 1.55185C38.8799 1.55185 38.5733 1.62642 38.3049 1.77557C38.0397 1.92472 37.8292 2.14347 37.6735 2.43182C37.521 2.71686 37.4448 3.06155 37.4448 3.46591ZM47.5421 8.15412C46.803 8.15412 46.1666 7.98674 45.633 7.65199C45.1027 7.31392 44.695 6.84825 44.41 6.25497C44.1249 5.66169 43.9824 4.98224 43.9824 4.21662C43.9824 3.44105 44.1283 2.75663 44.4199 2.16335C44.7116 1.56676 45.1226 1.10109 45.6529 0.766335C46.1832 0.431581 46.8079 0.264205 47.5272 0.264205C48.1072 0.264205 48.6242 0.371922 49.0783 0.587358C49.5324 0.799479 49.8986 1.09777 50.177 1.48224C50.4587 1.86671 50.6261 2.31581 50.6792 2.82955H49.2324C49.1529 2.47159 48.9706 2.16335 48.6855 1.90483C48.4038 1.64631 48.026 1.51705 47.552 1.51705C47.1377 1.51705 46.7748 1.62642 46.4632 1.84517C46.155 2.06061 45.9147 2.36884 45.7424 2.76989C45.57 3.16761 45.4838 3.63826 45.4838 4.18182C45.4838 4.73864 45.5684 5.21922 45.7374 5.62358C45.9064 6.02794 46.1451 6.34115 46.4533 6.56321C46.7649 6.78527 47.1311 6.89631 47.552 6.89631C47.8337 6.89631 48.089 6.84493 48.3176 6.74219C48.5497 6.63613 48.7435 6.48532 48.8993 6.28977C49.0584 6.09422 49.1694 5.8589 49.2324 5.58381H50.6792C50.6261 6.07765 50.4654 6.51847 50.1969 6.90625C49.9284 7.29403 49.5688 7.59896 49.1181 7.82102C48.6706 8.04309 48.1453 8.15412 47.5421 8.15412ZM53.2085 10.8636C52.9864 10.8636 52.7842 10.8454 52.6019 10.8089C52.4196 10.7758 52.2837 10.7393 52.1942 10.6996L52.5522 9.48153C52.824 9.55445 53.0659 9.58594 53.2781 9.57599C53.4902 9.56605 53.6774 9.48651 53.8398 9.33736C54.0056 9.18821 54.1514 8.9446 54.2773 8.60653L54.4613 8.09943L51.6673 0.363636H53.2582L55.1921 6.28977H55.2717L57.2056 0.363636H58.8015L55.6545 9.01918C55.5086 9.4169 55.323 9.75331 55.0977 10.0284C54.8723 10.3068 54.6038 10.5156 54.2923 10.6548C53.9807 10.794 53.6194 10.8636 53.2085 10.8636ZM64.6978 3.05327V4.34091H60.1836V3.05327H64.6978ZM69.9702 8.15412C69.2178 8.15412 68.5698 7.99337 68.0263 7.67188C67.486 7.34706 67.0684 6.89134 66.7734 6.30469C66.4818 5.71473 66.3359 5.02367 66.3359 4.23153C66.3359 3.44934 66.4818 2.75994 66.7734 2.16335C67.0684 1.56676 67.4794 1.10109 68.0064 0.766335C68.5367 0.431581 69.1565 0.264205 69.8658 0.264205C70.2966 0.264205 70.7143 0.335464 71.1186 0.477983C71.523 0.620502 71.8859 0.844223 72.2074 1.14915C72.5289 1.45407 72.7824 1.85014 72.968 2.33736C73.1536 2.82126 73.2464 3.40956 73.2464 4.10227V4.62926H67.1761V3.51562H71.7898C71.7898 3.12453 71.7102 2.77817 71.5511 2.47656C71.392 2.17164 71.1683 1.93134 70.88 1.75568C70.5949 1.58002 70.2602 1.49219 69.8757 1.49219C69.4581 1.49219 69.0935 1.59493 68.782 1.80043C68.4737 2.0026 68.2351 2.26776 68.0661 2.59588C67.9003 2.92069 67.8175 3.27367 67.8175 3.65483V4.52486C67.8175 5.03527 67.907 5.46946 68.0859 5.82741C68.2682 6.18537 68.5218 6.45881 68.8466 6.64773C69.1714 6.83333 69.5509 6.92614 69.9851 6.92614C70.2668 6.92614 70.5237 6.88636 70.7557 6.80682C70.9877 6.72396 71.1882 6.60133 71.3572 6.43892C71.5263 6.27652 71.6555 6.07599 71.745 5.83736L73.152 6.09091C73.0393 6.50521 72.8371 6.86813 72.5455 7.17969C72.2571 7.48793 71.8942 7.72822 71.4567 7.90057C71.0225 8.0696 70.527 8.15412 69.9702 8.15412ZM79.7331 4.8331V0.363636H81.2246V8H79.763V6.67756H79.6834C79.5078 7.08523 79.226 7.42495 78.8382 7.69673C78.4538 7.9652 77.9748 8.09943 77.4015 8.09943C76.9109 8.09943 76.4767 7.99171 76.0989 7.77628C75.7244 7.55753 75.4294 7.23438 75.214 6.80682C75.0018 6.37926 74.8958 5.85062 74.8958 5.22088V0.363636H76.3823V5.0419C76.3823 5.56226 76.5265 5.97656 76.8148 6.2848C77.1032 6.59304 77.4777 6.74716 77.9384 6.74716C78.2168 6.74716 78.4935 6.67756 78.7686 6.53835C79.0471 6.39915 79.2774 6.18868 79.4597 5.90696C79.6453 5.62524 79.7364 5.26728 79.7331 4.8331ZM83.2219 8V0.363636H84.6587V1.5767H84.7383C84.8775 1.16572 85.1228 0.842566 85.4741 0.607244C85.8287 0.368608 86.2298 0.249289 86.6772 0.249289C86.77 0.249289 86.8794 0.252604 87.0053 0.259233C87.1346 0.265861 87.2357 0.274147 87.3086 0.284091V1.70597C87.2489 1.68939 87.1429 1.67116 86.9904 1.65128C86.8379 1.62808 86.6855 1.61648 86.533 1.61648C86.1817 1.61648 85.8685 1.69105 85.5934 1.8402C85.3216 1.98603 85.1062 2.18987 84.9471 2.4517C84.788 2.71023 84.7085 3.00521 84.7085 3.33665V8H83.2219ZM91.5382 8.15412C90.8223 8.15412 90.1975 7.99006 89.6639 7.66193C89.1303 7.33381 88.716 6.87476 88.421 6.2848C88.126 5.69484 87.9785 5.00544 87.9785 4.21662C87.9785 3.42448 88.126 2.73177 88.421 2.13849C88.716 1.54522 89.1303 1.08452 89.6639 0.756392C90.1975 0.428267 90.8223 0.264205 91.5382 0.264205C92.2541 0.264205 92.8788 0.428267 93.4125 0.756392C93.9461 1.08452 94.3604 1.54522 94.6554 2.13849C94.9503 2.73177 95.0978 3.42448 95.0978 4.21662C95.0978 5.00544 94.9503 5.69484 94.6554 6.2848C94.3604 6.87476 93.9461 7.33381 93.4125 7.66193C92.8788 7.99006 92.2541 8.15412 91.5382 8.15412ZM91.5431 6.90625C92.0072 6.90625 92.3916 6.78362 92.6966 6.53835C93.0015 6.29309 93.2269 5.96662 93.3727 5.55895C93.5218 5.15128 93.5964 4.70218 93.5964 4.21165C93.5964 3.72443 93.5218 3.27699 93.3727 2.86932C93.2269 2.45833 93.0015 2.12855 92.6966 1.87997C92.3916 1.63139 92.0072 1.5071 91.5431 1.5071C91.0758 1.5071 90.688 1.63139 90.3798 1.87997C90.0749 2.12855 89.8478 2.45833 89.6987 2.86932C89.5529 3.27699 89.4799 3.72443 89.4799 4.21165C89.4799 4.70218 89.5529 5.15128 89.6987 5.55895C89.8478 5.96662 90.0749 6.29309 90.3798 6.53835C90.688 6.78362 91.0758 6.90625 91.5431 6.90625Z" fill="black"/>
</svg>
