<svg viewBox="0 0 138 14" fill="none" stroke-width="2" stroke="currentColor" aria-hidden="true">
  <path d="M4.21591 11.1541C3.4768 11.1541 2.84044 10.9867 2.30682 10.652C1.77652 10.3139 1.36884 9.84825 1.08381 9.25497C0.798769 8.66169 0.65625 7.98224 0.65625 7.21662C0.65625 6.44105 0.802083 5.75663 1.09375 5.16335C1.38542 4.56676 1.7964 4.10109 2.3267 3.76633C2.85701 3.43158 3.48177 3.2642 4.20099 3.2642C4.78101 3.2642 5.29806 3.37192 5.75213 3.58736C6.2062 3.79948 6.57244 4.09777 6.85085 4.48224C7.13258 4.86671 7.29995 5.31581 7.35298 5.82955H5.90625C5.8267 5.47159 5.64441 5.16335 5.35938 4.90483C5.07765 4.64631 4.69981 4.51705 4.22585 4.51705C3.81155 4.51705 3.44863 4.62642 3.13707 4.84517C2.82884 5.06061 2.58854 5.36884 2.41619 5.76989C2.24384 6.16761 2.15767 6.63826 2.15767 7.18182C2.15767 7.73864 2.24219 8.21922 2.41122 8.62358C2.58026 9.02794 2.81889 9.34115 3.12713 9.56321C3.43868 9.78527 3.80492 9.89631 4.22585 9.89631C4.50758 9.89631 4.76278 9.84493 4.99148 9.74219C5.22349 9.63613 5.41738 9.48532 5.57315 9.28977C5.73224 9.09422 5.84328 8.8589 5.90625 8.58381H7.35298C7.29995 9.07765 7.1392 9.51847 6.87074 9.90625C6.60227 10.294 6.24266 10.599 5.7919 10.821C5.34446 11.0431 4.81913 11.1541 4.21591 11.1541ZM13.78 7.8331V3.36364H15.2715V11H13.8098V9.67756H13.7303C13.5546 10.0852 13.2729 10.425 12.8851 10.6967C12.5007 10.9652 12.0217 11.0994 11.4483 11.0994C10.9578 11.0994 10.5236 10.9917 10.1458 10.7763C9.77125 10.5575 9.47627 10.2344 9.26083 9.80682C9.04871 9.37926 8.94265 8.85062 8.94265 8.22088V3.36364H10.4292V8.0419C10.4292 8.56226 10.5733 8.97656 10.8617 9.2848C11.15 9.59304 11.5246 9.74716 11.9853 9.74716C12.2637 9.74716 12.5404 9.67756 12.8155 9.53835C13.0939 9.39915 13.3243 9.18868 13.5066 8.90696C13.6922 8.62524 13.7833 8.26728 13.78 7.8331ZM17.2688 11V3.36364H18.7056V4.5767H18.7852C18.9244 4.16572 19.1696 3.84257 19.521 3.60724C19.8756 3.36861 20.2766 3.24929 20.7241 3.24929C20.8169 3.24929 20.9263 3.2526 21.0522 3.25923C21.1815 3.26586 21.2826 3.27415 21.3555 3.28409V4.70597C21.2958 4.68939 21.1897 4.67116 21.0373 4.65128C20.8848 4.62808 20.7324 4.61648 20.5799 4.61648C20.2286 4.61648 19.9154 4.69105 19.6403 4.8402C19.3685 4.98603 19.1531 5.18987 18.994 5.4517C18.8349 5.71023 18.7553 6.00521 18.7553 6.33665V11H17.2688ZM22.6419 11V3.36364H24.0787V4.5767H24.1582C24.2974 4.16572 24.5427 3.84257 24.894 3.60724C25.2486 3.36861 25.6497 3.24929 26.0971 3.24929C26.1899 3.24929 26.2993 3.2526 26.4252 3.25923C26.5545 3.26586 26.6556 3.27415 26.7285 3.28409V4.70597C26.6689 4.68939 26.5628 4.67116 26.4103 4.65128C26.2579 4.62808 26.1054 4.61648 25.9529 4.61648C25.6016 4.61648 25.2884 4.69105 25.0133 4.8402C24.7415 4.98603 24.5261 5.18987 24.367 5.4517C24.2079 5.71023 24.1284 6.00521 24.1284 6.33665V11H22.6419ZM31.0327 11.1541C30.2803 11.1541 29.6323 10.9934 29.0888 10.6719C28.5485 10.3471 28.1309 9.89134 27.8359 9.30469C27.5443 8.71473 27.3984 8.02367 27.3984 7.23153C27.3984 6.44934 27.5443 5.75994 27.8359 5.16335C28.1309 4.56676 28.5419 4.10109 29.0689 3.76633C29.5992 3.43158 30.219 3.2642 30.9283 3.2642C31.3591 3.2642 31.7768 3.33546 32.1811 3.47798C32.5855 3.6205 32.9484 3.84422 33.2699 4.14915C33.5914 4.45407 33.8449 4.85014 34.0305 5.33736C34.2161 5.82126 34.3089 6.40956 34.3089 7.10227V7.62926H28.2386V6.51562H32.8523C32.8523 6.12453 32.7727 5.77817 32.6136 5.47656C32.4545 5.17164 32.2308 4.93134 31.9425 4.75568C31.6574 4.58002 31.3227 4.49219 30.9382 4.49219C30.5206 4.49219 30.156 4.59493 29.8445 4.80043C29.5362 5.0026 29.2976 5.26776 29.1286 5.59588C28.9628 5.92069 28.88 6.27367 28.88 6.65483V7.52486C28.88 8.03527 28.9695 8.46946 29.1484 8.82741C29.3307 9.18537 29.5843 9.45881 29.9091 9.64773C30.2339 9.83333 30.6134 9.92614 31.0476 9.92614C31.3293 9.92614 31.5862 9.88636 31.8182 9.80682C32.0502 9.72396 32.2507 9.60133 32.4197 9.43892C32.5888 9.27652 32.718 9.07599 32.8075 8.83736L34.2145 9.09091C34.1018 9.50521 33.8996 9.86813 33.608 10.1797C33.3196 10.4879 32.9567 10.7282 32.5192 10.9006C32.085 11.0696 31.5895 11.1541 31.0327 11.1541ZM37.4448 6.46591V11H35.9583V3.36364H37.3851V4.60653H37.4796C37.6552 4.20218 37.9303 3.87737 38.3049 3.6321C38.6827 3.38684 39.1583 3.2642 39.7317 3.2642C40.2521 3.2642 40.7078 3.37358 41.0989 3.59233C41.49 3.80777 41.7933 4.12926 42.0087 4.55682C42.2241 4.98437 42.3319 5.51302 42.3319 6.14276V11H40.8453V6.32173C40.8453 5.76823 40.7012 5.3357 40.4128 5.02415C40.1245 4.70928 39.7284 4.55185 39.2246 4.55185C38.8799 4.55185 38.5733 4.62642 38.3049 4.77557C38.0397 4.92472 37.8292 5.14347 37.6735 5.43182C37.521 5.71686 37.4448 6.06155 37.4448 6.46591ZM47.5421 11.1541C46.803 11.1541 46.1666 10.9867 45.633 10.652C45.1027 10.3139 44.695 9.84825 44.41 9.25497C44.1249 8.66169 43.9824 7.98224 43.9824 7.21662C43.9824 6.44105 44.1283 5.75663 44.4199 5.16335C44.7116 4.56676 45.1226 4.10109 45.6529 3.76633C46.1832 3.43158 46.8079 3.2642 47.5272 3.2642C48.1072 3.2642 48.6242 3.37192 49.0783 3.58736C49.5324 3.79948 49.8986 4.09777 50.177 4.48224C50.4587 4.86671 50.6261 5.31581 50.6792 5.82955H49.2324C49.1529 5.47159 48.9706 5.16335 48.6855 4.90483C48.4038 4.64631 48.026 4.51705 47.552 4.51705C47.1377 4.51705 46.7748 4.62642 46.4632 4.84517C46.155 5.06061 45.9147 5.36884 45.7424 5.76989C45.57 6.16761 45.4838 6.63826 45.4838 7.18182C45.4838 7.73864 45.5684 8.21922 45.7374 8.62358C45.9064 9.02794 46.1451 9.34115 46.4533 9.56321C46.7649 9.78527 47.1311 9.89631 47.552 9.89631C47.8337 9.89631 48.089 9.84493 48.3176 9.74219C48.5497 9.63613 48.7435 9.48532 48.8993 9.28977C49.0584 9.09422 49.1694 8.8589 49.2324 8.58381H50.6792C50.6261 9.07765 50.4654 9.51847 50.1969 9.90625C49.9284 10.294 49.5688 10.599 49.1181 10.821C48.6706 11.0431 48.1453 11.1541 47.5421 11.1541ZM53.2085 13.8636C52.9864 13.8636 52.7842 13.8454 52.6019 13.8089C52.4196 13.7758 52.2837 13.7393 52.1942 13.6996L52.5522 12.4815C52.824 12.5545 53.0659 12.5859 53.2781 12.576C53.4902 12.5661 53.6774 12.4865 53.8398 12.3374C54.0056 12.1882 54.1514 11.9446 54.2773 11.6065L54.4613 11.0994L51.6673 3.36364H53.2582L55.1921 9.28977H55.2717L57.2056 3.36364H58.8015L55.6545 12.0192C55.5086 12.4169 55.323 12.7533 55.0977 13.0284C54.8723 13.3068 54.6038 13.5156 54.2923 13.6548C53.9807 13.794 53.6194 13.8636 53.2085 13.8636ZM64.6978 6.05327V7.34091H60.1836V6.05327H64.6978ZM69.9702 11.1541C69.2178 11.1541 68.5698 10.9934 68.0263 10.6719C67.486 10.3471 67.0684 9.89134 66.7734 9.30469C66.4818 8.71473 66.3359 8.02367 66.3359 7.23153C66.3359 6.44934 66.4818 5.75994 66.7734 5.16335C67.0684 4.56676 67.4794 4.10109 68.0064 3.76633C68.5367 3.43158 69.1565 3.2642 69.8658 3.2642C70.2966 3.2642 70.7143 3.33546 71.1186 3.47798C71.523 3.6205 71.8859 3.84422 72.2074 4.14915C72.5289 4.45407 72.7824 4.85014 72.968 5.33736C73.1536 5.82126 73.2464 6.40956 73.2464 7.10227V7.62926H67.1761V6.51562H71.7898C71.7898 6.12453 71.7102 5.77817 71.5511 5.47656C71.392 5.17164 71.1683 4.93134 70.88 4.75568C70.5949 4.58002 70.2602 4.49219 69.8757 4.49219C69.4581 4.49219 69.0935 4.59493 68.782 4.80043C68.4737 5.0026 68.2351 5.26776 68.0661 5.59588C67.9003 5.92069 67.8175 6.27367 67.8175 6.65483V7.52486C67.8175 8.03527 67.907 8.46946 68.0859 8.82741C68.2682 9.18537 68.5218 9.45881 68.8466 9.64773C69.1714 9.83333 69.5509 9.92614 69.9851 9.92614C70.2668 9.92614 70.5237 9.88636 70.7557 9.80682C70.9877 9.72396 71.1882 9.60133 71.3572 9.43892C71.5263 9.27652 71.6555 9.07599 71.745 8.83736L73.152 9.09091C73.0393 9.50521 72.8371 9.86813 72.5455 10.1797C72.2571 10.4879 71.8942 10.7282 71.4567 10.9006C71.0225 11.0696 70.527 11.1541 69.9702 11.1541ZM79.7331 7.8331V3.36364H81.2246V11H79.763V9.67756H79.6834C79.5078 10.0852 79.226 10.425 78.8382 10.6967C78.4538 10.9652 77.9748 11.0994 77.4015 11.0994C76.9109 11.0994 76.4767 10.9917 76.0989 10.7763C75.7244 10.5575 75.4294 10.2344 75.214 9.80682C75.0018 9.37926 74.8958 8.85062 74.8958 8.22088V3.36364H76.3823V8.0419C76.3823 8.56226 76.5265 8.97656 76.8148 9.2848C77.1032 9.59304 77.4777 9.74716 77.9384 9.74716C78.2168 9.74716 78.4935 9.67756 78.7686 9.53835C79.0471 9.39915 79.2774 9.18868 79.4597 8.90696C79.6453 8.62524 79.7364 8.26728 79.7331 7.8331ZM83.2219 11V3.36364H84.6587V4.5767H84.7383C84.8775 4.16572 85.1228 3.84257 85.4741 3.60724C85.8287 3.36861 86.2298 3.24929 86.6772 3.24929C86.77 3.24929 86.8794 3.2526 87.0053 3.25923C87.1346 3.26586 87.2357 3.27415 87.3086 3.28409V4.70597C87.2489 4.68939 87.1429 4.67116 86.9904 4.65128C86.8379 4.62808 86.6855 4.61648 86.533 4.61648C86.1817 4.61648 85.8685 4.69105 85.5934 4.8402C85.3216 4.98603 85.1062 5.18987 84.9471 5.4517C84.788 5.71023 84.7085 6.00521 84.7085 6.33665V11H83.2219ZM91.5382 11.1541C90.8223 11.1541 90.1975 10.9901 89.6639 10.6619C89.1303 10.3338 88.716 9.87476 88.421 9.2848C88.126 8.69484 87.9785 8.00544 87.9785 7.21662C87.9785 6.42448 88.126 5.73177 88.421 5.13849C88.716 4.54522 89.1303 4.08452 89.6639 3.75639C90.1975 3.42827 90.8223 3.2642 91.5382 3.2642C92.2541 3.2642 92.8788 3.42827 93.4125 3.75639C93.9461 4.08452 94.3604 4.54522 94.6554 5.13849C94.9503 5.73177 95.0978 6.42448 95.0978 7.21662C95.0978 8.00544 94.9503 8.69484 94.6554 9.2848C94.3604 9.87476 93.9461 10.3338 93.4125 10.6619C92.8788 10.9901 92.2541 11.1541 91.5382 11.1541ZM91.5431 9.90625C92.0072 9.90625 92.3916 9.78362 92.6966 9.53835C93.0015 9.29309 93.2269 8.96662 93.3727 8.55895C93.5218 8.15128 93.5964 7.70218 93.5964 7.21165C93.5964 6.72443 93.5218 6.27699 93.3727 5.86932C93.2269 5.45833 93.0015 5.12855 92.6966 4.87997C92.3916 4.63139 92.0072 4.5071 91.5431 4.5071C91.0758 4.5071 90.688 4.63139 90.3798 4.87997C90.0749 5.12855 89.8478 5.45833 89.6987 5.86932C89.5529 6.27699 89.4799 6.72443 89.4799 7.21165C89.4799 7.70218 89.5529 8.15128 89.6987 8.55895C89.8478 8.96662 90.0749 9.29309 90.3798 9.53835C90.688 9.78362 91.0758 9.90625 91.5431 9.90625ZM101.256 6.05327V7.34091H96.7422V6.05327H101.256ZM106.454 11.1541C105.715 11.1541 105.079 10.9867 104.545 10.652C104.015 10.3139 103.607 9.84825 103.322 9.25497C103.037 8.66169 102.895 7.98224 102.895 7.21662C102.895 6.44105 103.04 5.75663 103.332 5.16335C103.624 4.56676 104.035 4.10109 104.565 3.76633C105.095 3.43158 105.72 3.2642 106.439 3.2642C107.019 3.2642 107.536 3.37192 107.99 3.58736C108.444 3.79948 108.811 4.09777 109.089 4.48224C109.371 4.86671 109.538 5.31581 109.591 5.82955H108.145C108.065 5.47159 107.883 5.16335 107.598 4.90483C107.316 4.64631 106.938 4.51705 106.464 4.51705C106.05 4.51705 105.687 4.62642 105.375 4.84517C105.067 5.06061 104.827 5.36884 104.654 5.76989C104.482 6.16761 104.396 6.63826 104.396 7.18182C104.396 7.73864 104.48 8.21922 104.65 8.62358C104.819 9.02794 105.057 9.34115 105.365 9.56321C105.677 9.78527 106.043 9.89631 106.464 9.89631C106.746 9.89631 107.001 9.84493 107.23 9.74219C107.462 9.63613 107.656 9.48532 107.811 9.28977C107.971 9.09422 108.082 8.8589 108.145 8.58381H109.591C109.538 9.07765 109.377 9.51847 109.109 9.90625C108.841 10.294 108.481 10.599 108.03 10.821C107.583 11.0431 107.057 11.1541 106.454 11.1541ZM111.181 11V3.36364H112.667V11H111.181ZM111.932 2.18537C111.673 2.18537 111.451 2.09919 111.265 1.92685C111.083 1.75118 110.992 1.54238 110.992 1.30043C110.992 1.05516 111.083 0.846354 111.265 0.674005C111.451 0.498342 111.673 0.410511 111.932 0.410511C112.19 0.410511 112.411 0.498342 112.593 0.674005C112.778 0.846354 112.871 1.05516 112.871 1.30043C112.871 1.54238 112.778 1.75118 112.593 1.92685C112.411 2.09919 112.19 2.18537 111.932 2.18537ZM114.667 11V3.36364H116.104V4.5767H116.184C116.323 4.16572 116.568 3.84257 116.919 3.60724C117.274 3.36861 117.675 3.24929 118.123 3.24929C118.215 3.24929 118.325 3.2526 118.451 3.25923C118.58 3.26586 118.681 3.27415 118.754 3.28409V4.70597C118.694 4.68939 118.588 4.67116 118.436 4.65128C118.283 4.62808 118.131 4.61648 117.978 4.61648C117.627 4.61648 117.314 4.69105 117.039 4.8402C116.767 4.98603 116.551 5.18987 116.392 5.4517C116.233 5.71023 116.154 6.00521 116.154 6.33665V11H114.667ZM122.983 11.1541C122.244 11.1541 121.608 10.9867 121.074 10.652C120.544 10.3139 120.136 9.84825 119.851 9.25497C119.566 8.66169 119.424 7.98224 119.424 7.21662C119.424 6.44105 119.57 5.75663 119.861 5.16335C120.153 4.56676 120.564 4.10109 121.094 3.76633C121.625 3.43158 122.249 3.2642 122.969 3.2642C123.549 3.2642 124.066 3.37192 124.52 3.58736C124.974 3.79948 125.34 4.09777 125.618 4.48224C125.9 4.86671 126.068 5.31581 126.121 5.82955H124.674C124.594 5.47159 124.412 5.16335 124.127 4.90483C123.845 4.64631 123.467 4.51705 122.993 4.51705C122.579 4.51705 122.216 4.62642 121.905 4.84517C121.596 5.06061 121.356 5.36884 121.184 5.76989C121.011 6.16761 120.925 6.63826 120.925 7.18182C120.925 7.73864 121.01 8.21922 121.179 8.62358C121.348 9.02794 121.586 9.34115 121.895 9.56321C122.206 9.78527 122.573 9.89631 122.993 9.89631C123.275 9.89631 123.53 9.84493 123.759 9.74219C123.991 9.63613 124.185 9.48532 124.341 9.28977C124.5 9.09422 124.611 8.8589 124.674 8.58381H126.121C126.068 9.07765 125.907 9.51847 125.638 9.90625C125.37 10.294 125.01 10.599 124.559 10.821C124.112 11.0431 123.587 11.1541 122.983 11.1541ZM129.197 0.818182V11H127.71V0.818182H129.197ZM134.488 11.1541C133.735 11.1541 133.087 10.9934 132.544 10.6719C132.004 10.3471 131.586 9.89134 131.291 9.30469C130.999 8.71473 130.854 8.02367 130.854 7.23153C130.854 6.44934 130.999 5.75994 131.291 5.16335C131.586 4.56676 131.997 4.10109 132.524 3.76633C133.054 3.43158 133.674 3.2642 134.383 3.2642C134.814 3.2642 135.232 3.33546 135.636 3.47798C136.041 3.6205 136.403 3.84422 136.725 4.14915C137.046 4.45407 137.3 4.85014 137.486 5.33736C137.671 5.82126 137.764 6.40956 137.764 7.10227V7.62926H131.694V6.51562H136.307C136.307 6.12453 136.228 5.77817 136.069 5.47656C135.91 5.17164 135.686 4.93134 135.398 4.75568C135.113 4.58002 134.778 4.49219 134.393 4.49219C133.976 4.49219 133.611 4.59493 133.3 4.80043C132.991 5.0026 132.753 5.26776 132.584 5.59588C132.418 5.92069 132.335 6.27367 132.335 6.65483V7.52486C132.335 8.03527 132.425 8.46946 132.604 8.82741C132.786 9.18537 133.039 9.45881 133.364 9.64773C133.689 9.83333 134.068 9.92614 134.503 9.92614C134.784 9.92614 135.041 9.88636 135.273 9.80682C135.505 9.72396 135.706 9.60133 135.875 9.43892C136.044 9.27652 136.173 9.07599 136.263 8.83736L137.67 9.09091C137.557 9.50521 137.355 9.86813 137.063 10.1797C136.775 10.4879 136.412 10.7282 135.974 10.9006C135.54 11.0696 135.045 11.1541 134.488 11.1541Z" fill="black"/>
</svg>
