<svg viewBox="0 0 118 15" fill="none" stroke-width="2" stroke="currentColor" aria-hidden="true">
  <path d="M6.72159 5.22798L5.37429 5.46662C5.31795 5.29427 5.22846 5.13021 5.10582 4.97443C4.98651 4.81865 4.8241 4.69105 4.61861 4.59162C4.41312 4.49219 4.15625 4.44247 3.84801 4.44247C3.42708 4.44247 3.07576 4.53693 2.79403 4.72585C2.51231 4.91146 2.37145 5.15175 2.37145 5.44673C2.37145 5.70194 2.46591 5.90743 2.65483 6.06321C2.84375 6.21899 3.14867 6.34659 3.5696 6.44602L4.78267 6.72443C5.48532 6.88684 6.009 7.13707 6.35369 7.47514C6.69839 7.81321 6.87074 8.25237 6.87074 8.79261C6.87074 9.25 6.73816 9.65767 6.47301 10.0156C6.21117 10.3703 5.84493 10.6487 5.37429 10.8509C4.90696 11.053 4.36506 11.1541 3.74858 11.1541C2.89347 11.1541 2.19579 10.9718 1.65554 10.6072C1.11529 10.2393 0.783854 9.71733 0.661222 9.04119L2.09801 8.82244C2.1875 9.19697 2.37145 9.48035 2.64986 9.67259C2.92827 9.86151 3.29119 9.95597 3.73864 9.95597C4.22585 9.95597 4.61529 9.85488 4.90696 9.6527C5.19863 9.44721 5.34446 9.19697 5.34446 8.90199C5.34446 8.66335 5.25497 8.46283 5.07599 8.30043C4.90033 8.13802 4.63021 8.01539 4.26562 7.93253L2.97301 7.64915C2.26042 7.48674 1.73343 7.22822 1.39205 6.87358C1.05398 6.51894 0.884943 6.06984 0.884943 5.52628C0.884943 5.07552 1.01089 4.68111 1.26278 4.34304C1.51468 4.00497 1.86269 3.74148 2.30682 3.55256C2.75095 3.36032 3.25971 3.2642 3.8331 3.2642C4.65838 3.2642 5.308 3.44318 5.78196 3.80114C6.25592 4.15578 6.56913 4.63139 6.72159 5.22798ZM9.99165 6.46591V11H8.50515V0.818182H9.97177V4.60653H10.0662C10.2452 4.19555 10.5186 3.86908 10.8865 3.62713C11.2544 3.38518 11.735 3.2642 12.3283 3.2642C12.852 3.2642 13.3094 3.37192 13.7005 3.58736C14.0949 3.80279 14.3998 4.12429 14.6152 4.55185C14.834 4.97609 14.9434 5.50639 14.9434 6.14276V11H13.4569V6.32173C13.4569 5.7616 13.3127 5.32741 13.0243 5.01918C12.736 4.70762 12.3349 4.55185 11.8212 4.55185C11.4699 4.55185 11.155 4.62642 10.8766 4.77557C10.6015 4.92472 10.3844 5.14347 10.2253 5.43182C10.0695 5.71686 9.99165 6.06155 9.99165 6.46591ZM20.1436 11.1541C19.4277 11.1541 18.803 10.9901 18.2694 10.6619C17.7357 10.3338 17.3214 9.87476 17.0265 9.2848C16.7315 8.69484 16.584 8.00544 16.584 7.21662C16.584 6.42448 16.7315 5.73177 17.0265 5.13849C17.3214 4.54522 17.7357 4.08452 18.2694 3.75639C18.803 3.42827 19.4277 3.2642 20.1436 3.2642C20.8596 3.2642 21.4843 3.42827 22.0179 3.75639C22.5516 4.08452 22.9658 4.54522 23.2608 5.13849C23.5558 5.73177 23.7033 6.42448 23.7033 7.21662C23.7033 8.00544 23.5558 8.69484 23.2608 9.2848C22.9658 9.87476 22.5516 10.3338 22.0179 10.6619C21.4843 10.9901 20.8596 11.1541 20.1436 11.1541ZM20.1486 9.90625C20.6126 9.90625 20.9971 9.78362 21.302 9.53835C21.6069 9.29309 21.8323 8.96662 21.9782 8.55895C22.1273 8.15128 22.2019 7.70218 22.2019 7.21165C22.2019 6.72443 22.1273 6.27699 21.9782 5.86932C21.8323 5.45833 21.6069 5.12855 21.302 4.87997C20.9971 4.63139 20.6126 4.5071 20.1486 4.5071C19.6813 4.5071 19.2935 4.63139 18.9853 4.87997C18.6803 5.12855 18.4533 5.45833 18.3042 5.86932C18.1583 6.27699 18.0854 6.72443 18.0854 7.21165C18.0854 7.70218 18.1583 8.15128 18.3042 8.55895C18.4533 8.96662 18.6803 9.29309 18.9853 9.53835C19.2935 9.78362 19.6813 9.90625 20.1486 9.90625ZM25.3626 13.8636V3.36364H26.8143V4.60156H26.9386C27.0247 4.44247 27.149 4.25852 27.3114 4.04972C27.4738 3.84091 27.6992 3.65862 27.9876 3.50284C28.2759 3.34375 28.6571 3.2642 29.131 3.2642C29.7475 3.2642 30.2977 3.41998 30.7816 3.73153C31.2655 4.04309 31.645 4.49219 31.9201 5.07884C32.1985 5.66548 32.3377 6.37145 32.3377 7.19673C32.3377 8.02202 32.2002 8.72964 31.9251 9.3196C31.65 9.90625 31.2721 10.3587 30.7915 10.6768C30.311 10.9917 29.7624 11.1491 29.146 11.1491C28.6819 11.1491 28.3024 11.0713 28.0075 10.9155C27.7158 10.7597 27.4871 10.5774 27.3214 10.3686C27.1557 10.1598 27.0281 9.9742 26.9386 9.81179H26.8491V13.8636H25.3626ZM26.8192 7.18182C26.8192 7.71875 26.8971 8.18939 27.0529 8.59375C27.2087 8.99811 27.4341 9.31463 27.729 9.54332C28.024 9.7687 28.3853 9.88139 28.8129 9.88139C29.257 9.88139 29.6282 9.76373 29.9265 9.52841C30.2248 9.28977 30.4502 8.96662 30.6026 8.55895C30.7584 8.15128 30.8363 7.69223 30.8363 7.18182C30.8363 6.67803 30.7601 6.22562 30.6076 5.82457C30.4585 5.42353 30.2331 5.10701 29.9315 4.875C29.6332 4.64299 29.2603 4.52699 28.8129 4.52699C28.382 4.52699 28.0174 4.63802 27.7191 4.86009C27.4241 5.08215 27.2004 5.39205 27.0479 5.78977C26.8955 6.1875 26.8192 6.65151 26.8192 7.18182ZM34.0032 13.8636V3.36364H35.4549V4.60156H35.5792C35.6654 4.44247 35.7897 4.25852 35.9521 4.04972C36.1145 3.84091 36.3398 3.65862 36.6282 3.50284C36.9165 3.34375 37.2977 3.2642 37.7717 3.2642C38.3881 3.2642 38.9383 3.41998 39.4222 3.73153C39.9061 4.04309 40.2856 4.49219 40.5607 5.07884C40.8391 5.66548 40.9783 6.37145 40.9783 7.19673C40.9783 8.02202 40.8408 8.72964 40.5657 9.3196C40.2906 9.90625 39.9128 10.3587 39.4322 10.6768C38.9516 10.9917 38.4031 11.1491 37.7866 11.1491C37.3226 11.1491 36.9431 11.0713 36.6481 10.9155C36.3564 10.7597 36.1277 10.5774 35.962 10.3686C35.7963 10.1598 35.6687 9.9742 35.5792 9.81179H35.4897V13.8636H34.0032ZM35.4599 7.18182C35.4599 7.71875 35.5378 8.18939 35.6935 8.59375C35.8493 8.99811 36.0747 9.31463 36.3697 9.54332C36.6647 9.7687 37.0259 9.88139 37.4535 9.88139C37.8976 9.88139 38.2688 9.76373 38.5671 9.52841C38.8654 9.28977 39.0908 8.96662 39.2433 8.55895C39.399 8.15128 39.4769 7.69223 39.4769 7.18182C39.4769 6.67803 39.4007 6.22562 39.2482 5.82457C39.0991 5.42353 38.8737 5.10701 38.5721 4.875C38.2738 4.64299 37.9009 4.52699 37.4535 4.52699C37.0226 4.52699 36.658 4.63802 36.3597 4.86009C36.0647 5.08215 35.841 5.39205 35.6886 5.78977C35.5361 6.1875 35.4599 6.65151 35.4599 7.18182ZM42.6438 11V3.36364H44.1303V11H42.6438ZM43.3945 2.18537C43.136 2.18537 42.9139 2.09919 42.7283 1.92685C42.546 1.75118 42.4549 1.54238 42.4549 1.30043C42.4549 1.05516 42.546 0.846354 42.7283 0.674005C42.9139 0.498342 43.136 0.410511 43.3945 0.410511C43.6531 0.410511 43.8735 0.498342 44.0558 0.674005C44.2414 0.846354 44.3342 1.05516 44.3342 1.30043C44.3342 1.54238 44.2414 1.75118 44.0558 1.92685C43.8735 2.09919 43.6531 2.18537 43.3945 2.18537ZM47.6167 6.46591V11H46.1301V3.36364H47.557V4.60653H47.6515C47.8271 4.20218 48.1022 3.87737 48.4767 3.6321C48.8546 3.38684 49.3302 3.2642 49.9036 3.2642C50.4239 3.2642 50.8797 3.37358 51.2708 3.59233C51.6619 3.80777 51.9651 4.12926 52.1806 4.55682C52.396 4.98437 52.5037 5.51302 52.5037 6.14276V11H51.0172V6.32173C51.0172 5.76823 50.873 5.3357 50.5847 5.02415C50.2963 4.70928 49.9003 4.55185 49.3965 4.55185C49.0518 4.55185 48.7452 4.62642 48.4767 4.77557C48.2116 4.92472 48.0011 5.14347 47.8453 5.43182C47.6929 5.71686 47.6167 6.06155 47.6167 6.46591ZM57.699 14.0227C57.0925 14.0227 56.5705 13.9432 56.133 13.7841C55.6988 13.625 55.3442 13.4145 55.0691 13.1527C54.794 12.8909 54.5885 12.6042 54.4526 12.2926L55.7303 11.7656C55.8198 11.9115 55.9391 12.0656 56.0882 12.228C56.2407 12.3937 56.4462 12.5346 56.7047 12.6506C56.9666 12.7666 57.303 12.8246 57.714 12.8246C58.2774 12.8246 58.7431 12.687 59.111 12.4119C59.4789 12.1402 59.6628 11.706 59.6628 11.1094V9.60795H59.5684C59.4789 9.77036 59.3496 9.95099 59.1806 10.1499C59.0149 10.3487 58.7862 10.5211 58.4945 10.6669C58.2028 10.8127 57.8233 10.8857 57.356 10.8857C56.7528 10.8857 56.2092 10.7448 55.7253 10.4631C55.2447 10.178 54.8636 9.75876 54.5819 9.20526C54.3034 8.64844 54.1642 7.96401 54.1642 7.15199C54.1642 6.33996 54.3018 5.64394 54.5769 5.06392C54.8553 4.4839 55.2364 4.03977 55.7203 3.73153C56.2042 3.41998 56.7528 3.2642 57.3659 3.2642C57.8399 3.2642 58.2227 3.34375 58.5144 3.50284C58.806 3.65862 59.0331 3.84091 59.1955 4.04972C59.3612 4.25852 59.4888 4.44247 59.5783 4.60156H59.6877V3.36364H61.1444V11.169C61.1444 11.8253 60.9919 12.3639 60.687 12.7848C60.382 13.2057 59.9694 13.5173 59.449 13.7195C58.932 13.9216 58.3487 14.0227 57.699 14.0227ZM57.6841 9.6527C58.1117 9.6527 58.473 9.55327 58.7679 9.3544C59.0662 9.15223 59.2916 8.86387 59.4441 8.48935C59.5998 8.11151 59.6777 7.65909 59.6777 7.1321C59.6777 6.61837 59.6015 6.16596 59.449 5.77486C59.2966 5.38376 59.0729 5.07884 58.7779 4.86009C58.4829 4.63802 58.1183 4.52699 57.6841 4.52699C57.2367 4.52699 56.8638 4.64299 56.5655 4.875C56.2672 5.10369 56.0418 5.41525 55.8894 5.80966C55.7402 6.20407 55.6657 6.64489 55.6657 7.1321C55.6657 7.63258 55.7419 8.07173 55.8944 8.44957C56.0468 8.82741 56.2722 9.1224 56.5705 9.33452C56.8721 9.54664 57.2433 9.6527 57.6841 9.6527ZM67.6373 6.05327V7.34091H63.123V6.05327H67.6373ZM69.7377 11V0.818182H71.2243V4.60156H71.3137C71.3999 4.44247 71.5242 4.25852 71.6866 4.04972C71.849 3.84091 72.0744 3.65862 72.3627 3.50284C72.6511 3.34375 73.0323 3.2642 73.5062 3.2642C74.1227 3.2642 74.6729 3.41998 75.1568 3.73153C75.6407 4.04309 76.0202 4.49219 76.2953 5.07884C76.5737 5.66548 76.7129 6.37145 76.7129 7.19673C76.7129 8.02202 76.5753 8.72964 76.3002 9.3196C76.0252 9.90625 75.6473 10.3587 75.1667 10.6768C74.6861 10.9917 74.1376 11.1491 73.5211 11.1491C73.0571 11.1491 72.6776 11.0713 72.3826 10.9155C72.091 10.7597 71.8623 10.5774 71.6966 10.3686C71.5308 10.1598 71.4032 9.9742 71.3137 9.81179H71.1895V11H69.7377ZM71.1944 7.18182C71.1944 7.71875 71.2723 8.18939 71.4281 8.59375C71.5839 8.99811 71.8092 9.31463 72.1042 9.54332C72.3992 9.7687 72.7605 9.88139 73.188 9.88139C73.6322 9.88139 74.0034 9.76373 74.3017 9.52841C74.6 9.28977 74.8253 8.96662 74.9778 8.55895C75.1336 8.15128 75.2115 7.69223 75.2115 7.18182C75.2115 6.67803 75.1352 6.22562 74.9828 5.82457C74.8336 5.42353 74.6083 5.10701 74.3066 4.875C74.0083 4.64299 73.6355 4.52699 73.188 4.52699C72.7572 4.52699 72.3926 4.63802 72.0943 4.86009C71.7993 5.08215 71.5756 5.39205 71.4231 5.78977C71.2707 6.1875 71.1944 6.65151 71.1944 7.18182ZM80.6044 11.169C80.1205 11.169 79.683 11.0795 79.2919 10.9006C78.9008 10.7183 78.5909 10.4548 78.3622 10.1101C78.1368 9.76539 78.0241 9.3428 78.0241 8.84233C78.0241 8.41146 78.107 8.05682 78.2727 7.77841C78.4384 7.5 78.6622 7.27959 78.9439 7.11719C79.2256 6.95478 79.5405 6.83215 79.8885 6.74929C80.2365 6.66643 80.5911 6.60346 80.9524 6.56037C81.4098 6.50734 81.781 6.46425 82.0661 6.43111C82.3511 6.39465 82.5582 6.33665 82.6875 6.2571C82.8168 6.17756 82.8814 6.0483 82.8814 5.86932V5.83452C82.8814 5.40033 82.7588 5.06392 82.5135 4.82528C82.2715 4.58665 81.9103 4.46733 81.4297 4.46733C80.9292 4.46733 80.5348 4.57836 80.2464 4.80043C79.9614 5.01918 79.7642 5.26278 79.6548 5.53125L78.2578 5.21307C78.4235 4.74905 78.6655 4.37453 78.9837 4.08949C79.3052 3.80114 79.6747 3.59233 80.0923 3.46307C80.5099 3.33049 80.9491 3.2642 81.4098 3.2642C81.7147 3.2642 82.0379 3.30066 82.3793 3.37358C82.724 3.44318 83.0455 3.57244 83.3438 3.76136C83.6454 3.95028 83.8923 4.22041 84.0845 4.57173C84.2768 4.91974 84.3729 5.37216 84.3729 5.92898V11H82.9212V9.95597H82.8615C82.7654 10.1482 82.6212 10.3371 82.429 10.5227C82.2367 10.7083 81.9898 10.8625 81.6882 10.9851C81.3866 11.1077 81.0253 11.169 80.6044 11.169ZM80.9276 9.97585C81.3385 9.97585 81.6899 9.89465 81.9815 9.73224C82.2765 9.56984 82.5002 9.35772 82.6527 9.09588C82.8085 8.83073 82.8864 8.54735 82.8864 8.24574V7.26136C82.8333 7.31439 82.7306 7.36411 82.5781 7.41051C82.429 7.4536 82.2583 7.49171 82.0661 7.52486C81.8738 7.55469 81.6866 7.58286 81.5043 7.60938C81.322 7.63258 81.1695 7.65246 81.0469 7.66903C80.7585 7.70549 80.495 7.76681 80.2564 7.85298C80.0211 7.93916 79.8321 8.06345 79.6896 8.22585C79.5504 8.38494 79.4808 8.59706 79.4808 8.86222C79.4808 9.23011 79.6167 9.50852 79.8885 9.69744C80.1603 9.88305 80.5066 9.97585 80.9276 9.97585ZM89.5545 14.0227C88.948 14.0227 88.426 13.9432 87.9885 13.7841C87.5543 13.625 87.1996 13.4145 86.9245 13.1527C86.6494 12.8909 86.444 12.6042 86.3081 12.2926L87.5858 11.7656C87.6752 11.9115 87.7946 12.0656 87.9437 12.228C88.0962 12.3937 88.3017 12.5346 88.5602 12.6506C88.822 12.7666 89.1584 12.8246 89.5694 12.8246C90.1329 12.8246 90.5985 12.687 90.9664 12.4119C91.3343 12.1402 91.5183 11.706 91.5183 11.1094V9.60795H91.4238C91.3343 9.77036 91.2051 9.95099 91.036 10.1499C90.8703 10.3487 90.6416 10.5211 90.35 10.6669C90.0583 10.8127 89.6788 10.8857 89.2115 10.8857C88.6083 10.8857 88.0647 10.7448 87.5808 10.4631C87.1002 10.178 86.719 9.75876 86.4373 9.20526C86.1589 8.64844 86.0197 7.96401 86.0197 7.15199C86.0197 6.33996 86.1573 5.64394 86.4324 5.06392C86.7108 4.4839 87.0919 4.03977 87.5758 3.73153C88.0597 3.41998 88.6083 3.2642 89.2214 3.2642C89.6954 3.2642 90.0782 3.34375 90.3699 3.50284C90.6615 3.65862 90.8886 3.84091 91.051 4.04972C91.2167 4.25852 91.3443 4.44247 91.4338 4.60156H91.5431V3.36364H92.9998V11.169C92.9998 11.8253 92.8474 12.3639 92.5424 12.7848C92.2375 13.2057 91.8249 13.5173 91.3045 13.7195C90.7875 13.9216 90.2041 14.0227 89.5545 14.0227ZM89.5396 9.6527C89.9672 9.6527 90.3284 9.55327 90.6234 9.3544C90.9217 9.15223 91.1471 8.86387 91.2995 8.48935C91.4553 8.11151 91.5332 7.65909 91.5332 7.1321C91.5332 6.61837 91.457 6.16596 91.3045 5.77486C91.152 5.38376 90.9283 5.07884 90.6333 4.86009C90.3384 4.63802 89.9738 4.52699 89.5396 4.52699C89.0922 4.52699 88.7193 4.64299 88.421 4.875C88.1227 5.10369 87.8973 5.41525 87.7449 5.80966C87.5957 6.20407 87.5211 6.64489 87.5211 7.1321C87.5211 7.63258 87.5974 8.07173 87.7498 8.44957C87.9023 8.82741 88.1277 9.1224 88.426 9.33452C88.7276 9.54664 89.0988 9.6527 89.5396 9.6527ZM99.4927 6.05327V7.34091H94.9785V6.05327H99.4927ZM104.999 11.169C104.213 11.1657 103.542 10.9586 102.985 10.5476C102.428 10.1366 102.003 9.53835 101.708 8.75284C101.413 7.96733 101.265 7.02107 101.265 5.91406C101.265 4.81037 101.413 3.86742 101.708 3.08523C102.006 2.30303 102.433 1.70644 102.99 1.29545C103.55 0.884469 104.22 0.678977 104.999 0.678977C105.778 0.678977 106.445 0.886126 107.002 1.30043C107.559 1.71141 107.985 2.308 108.28 3.0902C108.578 3.86908 108.727 4.81037 108.727 5.91406C108.727 7.02438 108.58 7.9723 108.285 8.75781C107.99 9.54001 107.564 10.1383 107.007 10.5526C106.45 10.9635 105.781 11.169 104.999 11.169ZM104.999 9.84162C105.688 9.84162 106.227 9.50521 106.615 8.83239C107.006 8.15956 107.201 7.18679 107.201 5.91406C107.201 5.06889 107.112 4.35464 106.933 3.77131C106.757 3.18466 106.503 2.74053 106.172 2.43892C105.844 2.134 105.453 1.98153 104.999 1.98153C104.313 1.98153 103.774 2.3196 103.383 2.99574C102.992 3.67187 102.795 4.64465 102.791 5.91406C102.791 6.76255 102.879 7.48011 103.055 8.06676C103.234 8.65009 103.487 9.09257 103.816 9.39418C104.144 9.69247 104.538 9.84162 104.999 9.84162ZM110.491 11V9.88636L113.936 6.31676C114.304 5.92898 114.608 5.58925 114.846 5.29759C115.088 5.0026 115.269 4.72254 115.388 4.45739C115.507 4.19223 115.567 3.91051 115.567 3.61222C115.567 3.27415 115.488 2.98248 115.328 2.73722C115.169 2.48864 114.952 2.29806 114.677 2.16548C114.402 2.02959 114.092 1.96165 113.748 1.96165C113.383 1.96165 113.065 2.03622 112.793 2.18537C112.521 2.33452 112.312 2.54498 112.167 2.81676C112.021 3.08854 111.948 3.40672 111.948 3.77131H110.481C110.481 3.15151 110.624 2.60961 110.909 2.1456C111.194 1.68158 111.585 1.32197 112.082 1.06676C112.579 0.808238 113.144 0.678977 113.777 0.678977C114.417 0.678977 114.98 0.806581 115.468 1.06179C115.958 1.31368 116.341 1.65838 116.616 2.09588C116.891 2.53007 117.029 3.0206 117.029 3.56747C117.029 3.94531 116.958 4.31487 116.815 4.67614C116.676 5.0374 116.432 5.4401 116.084 5.88423C115.736 6.32505 115.252 6.86032 114.632 7.49006L112.609 9.60795V9.68253H117.193V11H110.491Z" fill="black"/>
</svg>
