<svg viewBox="0 0 119 15" fill="none" stroke-width="2" stroke="currentColor" aria-hidden="true">
  <path d="M6.72159 5.22798L5.37429 5.46662C5.31795 5.29427 5.22846 5.13021 5.10582 4.97443C4.98651 4.81865 4.8241 4.69105 4.61861 4.59162C4.41312 4.49219 4.15625 4.44247 3.84801 4.44247C3.42708 4.44247 3.07576 4.53693 2.79403 4.72585C2.51231 4.91146 2.37145 5.15175 2.37145 5.44673C2.37145 5.70194 2.46591 5.90743 2.65483 6.06321C2.84375 6.21899 3.14867 6.34659 3.5696 6.44602L4.78267 6.72443C5.48532 6.88684 6.009 7.13707 6.35369 7.47514C6.69839 7.81321 6.87074 8.25237 6.87074 8.79261C6.87074 9.25 6.73816 9.65767 6.47301 10.0156C6.21117 10.3703 5.84493 10.6487 5.37429 10.8509C4.90696 11.053 4.36506 11.1541 3.74858 11.1541C2.89347 11.1541 2.19579 10.9718 1.65554 10.6072C1.11529 10.2393 0.783854 9.71733 0.661222 9.04119L2.09801 8.82244C2.1875 9.19697 2.37145 9.48035 2.64986 9.67259C2.92827 9.86151 3.29119 9.95597 3.73864 9.95597C4.22585 9.95597 4.61529 9.85488 4.90696 9.6527C5.19863 9.44721 5.34446 9.19697 5.34446 8.90199C5.34446 8.66335 5.25497 8.46283 5.07599 8.30043C4.90033 8.13802 4.63021 8.01539 4.26562 7.93253L2.97301 7.64915C2.26042 7.48674 1.73343 7.22822 1.39205 6.87358C1.05398 6.51894 0.884943 6.06984 0.884943 5.52628C0.884943 5.07552 1.01089 4.68111 1.26278 4.34304C1.51468 4.00497 1.86269 3.74148 2.30682 3.55256C2.75095 3.36032 3.25971 3.2642 3.8331 3.2642C4.65838 3.2642 5.308 3.44318 5.78196 3.80114C6.25592 4.15578 6.56913 4.63139 6.72159 5.22798ZM9.99165 6.46591V11H8.50515V0.818182H9.97177V4.60653H10.0662C10.2452 4.19555 10.5186 3.86908 10.8865 3.62713C11.2544 3.38518 11.735 3.2642 12.3283 3.2642C12.852 3.2642 13.3094 3.37192 13.7005 3.58736C14.0949 3.80279 14.3998 4.12429 14.6152 4.55185C14.834 4.97609 14.9434 5.50639 14.9434 6.14276V11H13.4569V6.32173C13.4569 5.7616 13.3127 5.32741 13.0243 5.01918C12.736 4.70762 12.3349 4.55185 11.8212 4.55185C11.4699 4.55185 11.155 4.62642 10.8766 4.77557C10.6015 4.92472 10.3844 5.14347 10.2253 5.43182C10.0695 5.71686 9.99165 6.06155 9.99165 6.46591ZM20.1436 11.1541C19.4277 11.1541 18.803 10.9901 18.2694 10.6619C17.7357 10.3338 17.3214 9.87476 17.0265 9.2848C16.7315 8.69484 16.584 8.00544 16.584 7.21662C16.584 6.42448 16.7315 5.73177 17.0265 5.13849C17.3214 4.54522 17.7357 4.08452 18.2694 3.75639C18.803 3.42827 19.4277 3.2642 20.1436 3.2642C20.8596 3.2642 21.4843 3.42827 22.0179 3.75639C22.5516 4.08452 22.9658 4.54522 23.2608 5.13849C23.5558 5.73177 23.7033 6.42448 23.7033 7.21662C23.7033 8.00544 23.5558 8.69484 23.2608 9.2848C22.9658 9.87476 22.5516 10.3338 22.0179 10.6619C21.4843 10.9901 20.8596 11.1541 20.1436 11.1541ZM20.1486 9.90625C20.6126 9.90625 20.9971 9.78362 21.302 9.53835C21.6069 9.29309 21.8323 8.96662 21.9782 8.55895C22.1273 8.15128 22.2019 7.70218 22.2019 7.21165C22.2019 6.72443 22.1273 6.27699 21.9782 5.86932C21.8323 5.45833 21.6069 5.12855 21.302 4.87997C20.9971 4.63139 20.6126 4.5071 20.1486 4.5071C19.6813 4.5071 19.2935 4.63139 18.9853 4.87997C18.6803 5.12855 18.4533 5.45833 18.3042 5.86932C18.1583 6.27699 18.0854 6.72443 18.0854 7.21165C18.0854 7.70218 18.1583 8.15128 18.3042 8.55895C18.4533 8.96662 18.6803 9.29309 18.9853 9.53835C19.2935 9.78362 19.6813 9.90625 20.1486 9.90625ZM25.3626 13.8636V3.36364H26.8143V4.60156H26.9386C27.0247 4.44247 27.149 4.25852 27.3114 4.04972C27.4738 3.84091 27.6992 3.65862 27.9876 3.50284C28.2759 3.34375 28.6571 3.2642 29.131 3.2642C29.7475 3.2642 30.2977 3.41998 30.7816 3.73153C31.2655 4.04309 31.645 4.49219 31.9201 5.07884C32.1985 5.66548 32.3377 6.37145 32.3377 7.19673C32.3377 8.02202 32.2002 8.72964 31.9251 9.3196C31.65 9.90625 31.2721 10.3587 30.7915 10.6768C30.311 10.9917 29.7624 11.1491 29.146 11.1491C28.6819 11.1491 28.3024 11.0713 28.0075 10.9155C27.7158 10.7597 27.4871 10.5774 27.3214 10.3686C27.1557 10.1598 27.0281 9.9742 26.9386 9.81179H26.8491V13.8636H25.3626ZM26.8192 7.18182C26.8192 7.71875 26.8971 8.18939 27.0529 8.59375C27.2087 8.99811 27.4341 9.31463 27.729 9.54332C28.024 9.7687 28.3853 9.88139 28.8129 9.88139C29.257 9.88139 29.6282 9.76373 29.9265 9.52841C30.2248 9.28977 30.4502 8.96662 30.6026 8.55895C30.7584 8.15128 30.8363 7.69223 30.8363 7.18182C30.8363 6.67803 30.7601 6.22562 30.6076 5.82457C30.4585 5.42353 30.2331 5.10701 29.9315 4.875C29.6332 4.64299 29.2603 4.52699 28.8129 4.52699C28.382 4.52699 28.0174 4.63802 27.7191 4.86009C27.4241 5.08215 27.2004 5.39205 27.0479 5.78977C26.8955 6.1875 26.8192 6.65151 26.8192 7.18182ZM34.0032 13.8636V3.36364H35.4549V4.60156H35.5792C35.6654 4.44247 35.7897 4.25852 35.9521 4.04972C36.1145 3.84091 36.3398 3.65862 36.6282 3.50284C36.9165 3.34375 37.2977 3.2642 37.7717 3.2642C38.3881 3.2642 38.9383 3.41998 39.4222 3.73153C39.9061 4.04309 40.2856 4.49219 40.5607 5.07884C40.8391 5.66548 40.9783 6.37145 40.9783 7.19673C40.9783 8.02202 40.8408 8.72964 40.5657 9.3196C40.2906 9.90625 39.9128 10.3587 39.4322 10.6768C38.9516 10.9917 38.4031 11.1491 37.7866 11.1491C37.3226 11.1491 36.9431 11.0713 36.6481 10.9155C36.3564 10.7597 36.1277 10.5774 35.962 10.3686C35.7963 10.1598 35.6687 9.9742 35.5792 9.81179H35.4897V13.8636H34.0032ZM35.4599 7.18182C35.4599 7.71875 35.5378 8.18939 35.6935 8.59375C35.8493 8.99811 36.0747 9.31463 36.3697 9.54332C36.6647 9.7687 37.0259 9.88139 37.4535 9.88139C37.8976 9.88139 38.2688 9.76373 38.5671 9.52841C38.8654 9.28977 39.0908 8.96662 39.2433 8.55895C39.399 8.15128 39.4769 7.69223 39.4769 7.18182C39.4769 6.67803 39.4007 6.22562 39.2482 5.82457C39.0991 5.42353 38.8737 5.10701 38.5721 4.875C38.2738 4.64299 37.9009 4.52699 37.4535 4.52699C37.0226 4.52699 36.658 4.63802 36.3597 4.86009C36.0647 5.08215 35.841 5.39205 35.6886 5.78977C35.5361 6.1875 35.4599 6.65151 35.4599 7.18182ZM42.6438 11V3.36364H44.1303V11H42.6438ZM43.3945 2.18537C43.136 2.18537 42.9139 2.09919 42.7283 1.92685C42.546 1.75118 42.4549 1.54238 42.4549 1.30043C42.4549 1.05516 42.546 0.846354 42.7283 0.674005C42.9139 0.498342 43.136 0.410511 43.3945 0.410511C43.6531 0.410511 43.8735 0.498342 44.0558 0.674005C44.2414 0.846354 44.3342 1.05516 44.3342 1.30043C44.3342 1.54238 44.2414 1.75118 44.0558 1.92685C43.8735 2.09919 43.6531 2.18537 43.3945 2.18537ZM47.6167 6.46591V11H46.1301V3.36364H47.557V4.60653H47.6515C47.8271 4.20218 48.1022 3.87737 48.4767 3.6321C48.8546 3.38684 49.3302 3.2642 49.9036 3.2642C50.4239 3.2642 50.8797 3.37358 51.2708 3.59233C51.6619 3.80777 51.9651 4.12926 52.1806 4.55682C52.396 4.98437 52.5037 5.51302 52.5037 6.14276V11H51.0172V6.32173C51.0172 5.76823 50.873 5.3357 50.5847 5.02415C50.2963 4.70928 49.9003 4.55185 49.3965 4.55185C49.0518 4.55185 48.7452 4.62642 48.4767 4.77557C48.2116 4.92472 48.0011 5.14347 47.8453 5.43182C47.6929 5.71686 47.6167 6.06155 47.6167 6.46591ZM57.699 14.0227C57.0925 14.0227 56.5705 13.9432 56.133 13.7841C55.6988 13.625 55.3442 13.4145 55.0691 13.1527C54.794 12.8909 54.5885 12.6042 54.4526 12.2926L55.7303 11.7656C55.8198 11.9115 55.9391 12.0656 56.0882 12.228C56.2407 12.3937 56.4462 12.5346 56.7047 12.6506C56.9666 12.7666 57.303 12.8246 57.714 12.8246C58.2774 12.8246 58.7431 12.687 59.111 12.4119C59.4789 12.1402 59.6628 11.706 59.6628 11.1094V9.60795H59.5684C59.4789 9.77036 59.3496 9.95099 59.1806 10.1499C59.0149 10.3487 58.7862 10.5211 58.4945 10.6669C58.2028 10.8127 57.8233 10.8857 57.356 10.8857C56.7528 10.8857 56.2092 10.7448 55.7253 10.4631C55.2447 10.178 54.8636 9.75876 54.5819 9.20526C54.3034 8.64844 54.1642 7.96401 54.1642 7.15199C54.1642 6.33996 54.3018 5.64394 54.5769 5.06392C54.8553 4.4839 55.2364 4.03977 55.7203 3.73153C56.2042 3.41998 56.7528 3.2642 57.3659 3.2642C57.8399 3.2642 58.2227 3.34375 58.5144 3.50284C58.806 3.65862 59.0331 3.84091 59.1955 4.04972C59.3612 4.25852 59.4888 4.44247 59.5783 4.60156H59.6877V3.36364H61.1444V11.169C61.1444 11.8253 60.9919 12.3639 60.687 12.7848C60.382 13.2057 59.9694 13.5173 59.449 13.7195C58.932 13.9216 58.3487 14.0227 57.699 14.0227ZM57.6841 9.6527C58.1117 9.6527 58.473 9.55327 58.7679 9.3544C59.0662 9.15223 59.2916 8.86387 59.4441 8.48935C59.5998 8.11151 59.6777 7.65909 59.6777 7.1321C59.6777 6.61837 59.6015 6.16596 59.449 5.77486C59.2966 5.38376 59.0729 5.07884 58.7779 4.86009C58.4829 4.63802 58.1183 4.52699 57.6841 4.52699C57.2367 4.52699 56.8638 4.64299 56.5655 4.875C56.2672 5.10369 56.0418 5.41525 55.8894 5.80966C55.7402 6.20407 55.6657 6.64489 55.6657 7.1321C55.6657 7.63258 55.7419 8.07173 55.8944 8.44957C56.0468 8.82741 56.2722 9.1224 56.5705 9.33452C56.8721 9.54664 57.2433 9.6527 57.6841 9.6527ZM67.6373 6.05327V7.34091H63.123V6.05327H67.6373ZM72.835 11.1541C72.0959 11.1541 71.4596 10.9867 70.926 10.652C70.3957 10.3139 69.988 9.84825 69.7029 9.25497C69.4179 8.66169 69.2754 7.98224 69.2754 7.21662C69.2754 6.44105 69.4212 5.75663 69.7129 5.16335C70.0046 4.56676 70.4155 4.10109 70.9458 3.76633C71.4761 3.43158 72.1009 3.2642 72.8201 3.2642C73.4002 3.2642 73.9172 3.37192 74.3713 3.58736C74.8253 3.79948 75.1916 4.09777 75.47 4.48224C75.7517 4.86671 75.9191 5.31581 75.9721 5.82955H74.5254C74.4458 5.47159 74.2636 5.16335 73.9785 4.90483C73.6968 4.64631 73.319 4.51705 72.845 4.51705C72.4307 4.51705 72.0678 4.62642 71.7562 4.84517C71.448 5.06061 71.2077 5.36884 71.0353 5.76989C70.863 6.16761 70.7768 6.63826 70.7768 7.18182C70.7768 7.73864 70.8613 8.21922 71.0304 8.62358C71.1994 9.02794 71.438 9.34115 71.7463 9.56321C72.0578 9.78527 72.4241 9.89631 72.845 9.89631C73.1267 9.89631 73.3819 9.84493 73.6106 9.74219C73.8426 9.63613 74.0365 9.48532 74.1923 9.28977C74.3514 9.09422 74.4624 8.8589 74.5254 8.58381H75.9721C75.9191 9.07765 75.7583 9.51847 75.4899 9.90625C75.2214 10.294 74.8618 10.599 74.411 10.821C73.9636 11.0431 73.4383 11.1541 72.835 11.1541ZM79.7841 11.169C79.3002 11.169 78.8627 11.0795 78.4716 10.9006C78.0805 10.7183 77.7706 10.4548 77.5419 10.1101C77.3165 9.76539 77.2038 9.3428 77.2038 8.84233C77.2038 8.41146 77.2867 8.05682 77.4524 7.77841C77.6181 7.5 77.8419 7.27959 78.1236 7.11719C78.4053 6.95478 78.7202 6.83215 79.0682 6.74929C79.4162 6.66643 79.7708 6.60346 80.1321 6.56037C80.5895 6.50734 80.9607 6.46425 81.2457 6.43111C81.5308 6.39465 81.7379 6.33665 81.8672 6.2571C81.9964 6.17756 82.0611 6.0483 82.0611 5.86932V5.83452C82.0611 5.40033 81.9384 5.06392 81.6932 4.82528C81.4512 4.58665 81.09 4.46733 80.6094 4.46733C80.1089 4.46733 79.7145 4.57836 79.4261 4.80043C79.1411 5.01918 78.9439 5.26278 78.8345 5.53125L77.4375 5.21307C77.6032 4.74905 77.8452 4.37453 78.1634 4.08949C78.4848 3.80114 78.8544 3.59233 79.272 3.46307C79.6896 3.33049 80.1288 3.2642 80.5895 3.2642C80.8944 3.2642 81.2176 3.30066 81.5589 3.37358C81.9036 3.44318 82.2251 3.57244 82.5234 3.76136C82.825 3.95028 83.072 4.22041 83.2642 4.57173C83.4564 4.91974 83.5526 5.37216 83.5526 5.92898V11H82.1009V9.95597H82.0412C81.9451 10.1482 81.8009 10.3371 81.6087 10.5227C81.4164 10.7083 81.1695 10.8625 80.8679 10.9851C80.5663 11.1077 80.205 11.169 79.7841 11.169ZM80.1072 9.97585C80.5182 9.97585 80.8696 9.89465 81.1612 9.73224C81.4562 9.56984 81.6799 9.35772 81.8324 9.09588C81.9882 8.83073 82.0661 8.54735 82.0661 8.24574V7.26136C82.013 7.31439 81.9103 7.36411 81.7578 7.41051C81.6087 7.4536 81.438 7.49171 81.2457 7.52486C81.0535 7.55469 80.8662 7.58286 80.6839 7.60938C80.5017 7.63258 80.3492 7.65246 80.2266 7.66903C79.9382 7.70549 79.6747 7.76681 79.4361 7.85298C79.2008 7.93916 79.0118 8.06345 78.8693 8.22585C78.7301 8.38494 78.6605 8.59706 78.6605 8.86222C78.6605 9.23011 78.7964 9.50852 79.0682 9.69744C79.34 9.88305 79.6863 9.97585 80.1072 9.97585ZM85.5325 11V3.36364H86.9693V4.5767H87.0488C87.188 4.16572 87.4333 3.84257 87.7846 3.60724C88.1393 3.36861 88.5403 3.24929 88.9877 3.24929C89.0806 3.24929 89.1899 3.2526 89.3159 3.25923C89.4451 3.26586 89.5462 3.27415 89.6191 3.28409V4.70597C89.5595 4.68939 89.4534 4.67116 89.301 4.65128C89.1485 4.62808 88.996 4.61648 88.8436 4.61648C88.4922 4.61648 88.179 4.69105 87.9039 4.8402C87.6322 4.98603 87.4167 5.18987 87.2576 5.4517C87.0985 5.71023 87.019 6.00521 87.019 6.33665V11H85.5325ZM94.9213 3.36364V4.55682H90.7502V3.36364H94.9213ZM91.8688 1.53409H93.3553V8.75781C93.3553 9.04616 93.3984 9.26326 93.4846 9.40909C93.5707 9.55161 93.6818 9.64938 93.8176 9.70241C93.9569 9.75213 94.1077 9.77699 94.2701 9.77699C94.3894 9.77699 94.4938 9.7687 94.5833 9.75213C94.6728 9.73556 94.7424 9.7223 94.7921 9.71236L95.0605 10.9403C94.9744 10.9735 94.8517 11.0066 94.6926 11.0398C94.5336 11.0762 94.3347 11.0961 94.0961 11.0994C93.705 11.1061 93.3404 11.0365 93.0023 10.8906C92.6642 10.7448 92.3908 10.5194 92.182 10.2145C91.9732 9.90956 91.8688 9.52675 91.8688 9.06605V1.53409ZM100.805 6.05327V7.34091H96.291V6.05327H100.805ZM106.311 11.169C105.526 11.1657 104.855 10.9586 104.298 10.5476C103.741 10.1366 103.315 9.53835 103.02 8.75284C102.725 7.96733 102.578 7.02107 102.578 5.91406C102.578 4.81037 102.725 3.86742 103.02 3.08523C103.318 2.30303 103.746 1.70644 104.303 1.29545C104.863 0.884469 105.532 0.678977 106.311 0.678977C107.09 0.678977 107.758 0.886126 108.315 1.30043C108.872 1.71141 109.298 2.308 109.593 3.0902C109.891 3.86908 110.04 4.81037 110.04 5.91406C110.04 7.02438 109.892 7.9723 109.597 8.75781C109.302 9.54001 108.877 10.1383 108.32 10.5526C107.763 10.9635 107.093 11.169 106.311 11.169ZM106.311 9.84162C107.001 9.84162 107.539 9.50521 107.927 8.83239C108.318 8.15956 108.514 7.18679 108.514 5.91406C108.514 5.06889 108.424 4.35464 108.245 3.77131C108.07 3.18466 107.816 2.74053 107.485 2.43892C107.156 2.134 106.765 1.98153 106.311 1.98153C105.625 1.98153 105.087 2.3196 104.695 2.99574C104.304 3.67187 104.107 4.64465 104.104 5.91406C104.104 6.76255 104.192 7.48011 104.367 8.06676C104.546 8.65009 104.8 9.09257 105.128 9.39418C105.456 9.69247 105.851 9.84162 106.311 9.84162ZM111.804 11V9.88636L115.249 6.31676C115.617 5.92898 115.92 5.58925 116.159 5.29759C116.401 5.0026 116.581 4.72254 116.701 4.45739C116.82 4.19223 116.88 3.91051 116.88 3.61222C116.88 3.27415 116.8 2.98248 116.641 2.73722C116.482 2.48864 116.265 2.29806 115.99 2.16548C115.715 2.02959 115.405 1.96165 115.06 1.96165C114.695 1.96165 114.377 2.03622 114.105 2.18537C113.834 2.33452 113.625 2.54498 113.479 2.81676C113.333 3.08854 113.26 3.40672 113.26 3.77131H111.794C111.794 3.15151 111.936 2.60961 112.221 2.1456C112.506 1.68158 112.897 1.32197 113.395 1.06676C113.892 0.808238 114.457 0.678977 115.09 0.678977C115.73 0.678977 116.293 0.806581 116.78 1.06179C117.271 1.31368 117.654 1.65838 117.929 2.09588C118.204 2.53007 118.341 3.0206 118.341 3.56747C118.341 3.94531 118.27 4.31487 118.127 4.67614C117.988 5.0374 117.745 5.4401 117.397 5.88423C117.049 6.32505 116.565 6.86032 115.945 7.49006L113.922 9.60795V9.68253H118.505V11H111.804Z" fill="black"/>
</svg>
