<svg viewBox="0 0 127 14" fill="none" stroke-width="2" stroke="currentColor" aria-hidden="true">
  <path d="M4.21591 11.1541C3.4768 11.1541 2.84044 10.9867 2.30682 10.652C1.77652 10.3139 1.36884 9.84825 1.08381 9.25497C0.798769 8.66169 0.65625 7.98224 0.65625 7.21662C0.65625 6.44105 0.802083 5.75663 1.09375 5.16335C1.38542 4.56676 1.7964 4.10109 2.3267 3.76633C2.85701 3.43158 3.48177 3.2642 4.20099 3.2642C4.78101 3.2642 5.29806 3.37192 5.75213 3.58736C6.2062 3.79948 6.57244 4.09777 6.85085 4.48224C7.13258 4.86671 7.29995 5.31581 7.35298 5.82955H5.90625C5.8267 5.47159 5.64441 5.16335 5.35938 4.90483C5.07765 4.64631 4.69981 4.51705 4.22585 4.51705C3.81155 4.51705 3.44863 4.62642 3.13707 4.84517C2.82884 5.06061 2.58854 5.36884 2.41619 5.76989C2.24384 6.16761 2.15767 6.63826 2.15767 7.18182C2.15767 7.73864 2.24219 8.21922 2.41122 8.62358C2.58026 9.02794 2.81889 9.34115 3.12713 9.56321C3.43868 9.78527 3.80492 9.89631 4.22585 9.89631C4.50758 9.89631 4.76278 9.84493 4.99148 9.74219C5.22349 9.63613 5.41738 9.48532 5.57315 9.28977C5.73224 9.09422 5.84328 8.8589 5.90625 8.58381H7.35298C7.29995 9.07765 7.1392 9.51847 6.87074 9.90625C6.60227 10.294 6.24266 10.599 5.7919 10.821C5.34446 11.0431 4.81913 11.1541 4.21591 11.1541ZM8.94265 11V3.36364H10.3794V4.5767H10.459C10.5982 4.16572 10.8435 3.84257 11.1948 3.60724C11.5494 3.36861 11.9505 3.24929 12.3979 3.24929C12.4907 3.24929 12.6001 3.2526 12.726 3.25923C12.8553 3.26586 12.9564 3.27415 13.0293 3.28409V4.70597C12.9696 4.68939 12.8636 4.67116 12.7111 4.65128C12.5587 4.62808 12.4062 4.61648 12.2537 4.61648C11.9024 4.61648 11.5892 4.69105 11.3141 4.8402C11.0423 4.98603 10.8269 5.18987 10.6678 5.4517C10.5087 5.71023 10.4292 6.00521 10.4292 6.33665V11H8.94265ZM15.4877 13.8636C15.2657 13.8636 15.0635 13.8454 14.8812 13.8089C14.6989 13.7758 14.563 13.7393 14.4735 13.6996L14.8315 12.4815C15.1033 12.5545 15.3452 12.5859 15.5574 12.576C15.7695 12.5661 15.9567 12.4865 16.1191 12.3374C16.2849 12.1882 16.4307 11.9446 16.5566 11.6065L16.7406 11.0994L13.9466 3.36364H15.5375L17.4714 9.28977H17.551L19.4849 3.36364H21.0808L17.9338 12.0192C17.7879 12.4169 17.6023 12.7533 17.377 13.0284C17.1516 13.3068 16.8831 13.5156 16.5716 13.6548C16.26 13.794 15.8987 13.8636 15.4877 13.8636ZM22.4778 13.8636V3.36364H23.9295V4.60156H24.0538C24.14 4.44247 24.2643 4.25852 24.4267 4.04972C24.5891 3.84091 24.8145 3.65862 25.1028 3.50284C25.3912 3.34375 25.7723 3.2642 26.2463 3.2642C26.8627 3.2642 27.4129 3.41998 27.8968 3.73153C28.3807 4.04309 28.7602 4.49219 29.0353 5.07884C29.3137 5.66548 29.4529 6.37145 29.4529 7.19673C29.4529 8.02202 29.3154 8.72964 29.0403 9.3196C28.7652 9.90625 28.3874 10.3587 27.9068 10.6768C27.4262 10.9917 26.8777 11.1491 26.2612 11.1491C25.7972 11.1491 25.4177 11.0713 25.1227 10.9155C24.831 10.7597 24.6023 10.5774 24.4366 10.3686C24.2709 10.1598 24.1433 9.9742 24.0538 9.81179H23.9643V13.8636H22.4778ZM23.9345 7.18182C23.9345 7.71875 24.0124 8.18939 24.1681 8.59375C24.3239 8.99811 24.5493 9.31463 24.8443 9.54332C25.1393 9.7687 25.5005 9.88139 25.9281 9.88139C26.3722 9.88139 26.7434 9.76373 27.0417 9.52841C27.34 9.28977 27.5654 8.96662 27.7179 8.55895C27.8736 8.15128 27.9515 7.69223 27.9515 7.18182C27.9515 6.67803 27.8753 6.22562 27.7228 5.82457C27.5737 5.42353 27.3483 5.10701 27.0467 4.875C26.7484 4.64299 26.3755 4.52699 25.9281 4.52699C25.4972 4.52699 25.1326 4.63802 24.8343 4.86009C24.5394 5.08215 24.3156 5.39205 24.1632 5.78977C24.0107 6.1875 23.9345 6.65151 23.9345 7.18182ZM34.6831 3.36364V4.55682H30.5119V3.36364H34.6831ZM31.6305 1.53409H33.117V8.75781C33.117 9.04616 33.1601 9.26326 33.2463 9.40909C33.3324 9.55161 33.4435 9.64938 33.5794 9.70241C33.7186 9.75213 33.8694 9.77699 34.0318 9.77699C34.1511 9.77699 34.2555 9.7687 34.345 9.75213C34.4345 9.73556 34.5041 9.7223 34.5538 9.71236L34.8223 10.9403C34.7361 10.9735 34.6135 11.0066 34.4544 11.0398C34.2953 11.0762 34.0964 11.0961 33.8578 11.0994C33.4667 11.1061 33.1021 11.0365 32.764 10.8906C32.426 10.7448 32.1525 10.5194 31.9437 10.2145C31.7349 9.90956 31.6305 9.52675 31.6305 9.06605V1.53409ZM39.462 11.1541C38.7461 11.1541 38.1213 10.9901 37.5877 10.6619C37.0541 10.3338 36.6398 9.87476 36.3448 9.2848C36.0498 8.69484 35.9023 8.00544 35.9023 7.21662C35.9023 6.42448 36.0498 5.73177 36.3448 5.13849C36.6398 4.54522 37.0541 4.08452 37.5877 3.75639C38.1213 3.42827 38.7461 3.2642 39.462 3.2642C40.1779 3.2642 40.8027 3.42827 41.3363 3.75639C41.8699 4.08452 42.2842 4.54522 42.5792 5.13849C42.8742 5.73177 43.0217 6.42448 43.0217 7.21662C43.0217 8.00544 42.8742 8.69484 42.5792 9.2848C42.2842 9.87476 41.8699 10.3338 41.3363 10.6619C40.8027 10.9901 40.1779 11.1541 39.462 11.1541ZM39.467 9.90625C39.931 9.90625 40.3155 9.78362 40.6204 9.53835C40.9253 9.29309 41.1507 8.96662 41.2965 8.55895C41.4457 8.15128 41.5202 7.70218 41.5202 7.21165C41.5202 6.72443 41.4457 6.27699 41.2965 5.86932C41.1507 5.45833 40.9253 5.12855 40.6204 4.87997C40.3155 4.63139 39.931 4.5071 39.467 4.5071C38.9996 4.5071 38.6119 4.63139 38.3036 4.87997C37.9987 5.12855 37.7717 5.45833 37.6225 5.86932C37.4767 6.27699 37.4038 6.72443 37.4038 7.21165C37.4038 7.70218 37.4767 8.15128 37.6225 8.55895C37.7717 8.96662 37.9987 9.29309 38.3036 9.53835C38.6119 9.78362 38.9996 9.90625 39.467 9.90625ZM47.8975 11.1541C47.1584 11.1541 46.5221 10.9867 45.9885 10.652C45.4582 10.3139 45.0505 9.84825 44.7654 9.25497C44.4804 8.66169 44.3379 7.98224 44.3379 7.21662C44.3379 6.44105 44.4837 5.75663 44.7754 5.16335C45.0671 4.56676 45.478 4.10109 46.0083 3.76633C46.5386 3.43158 47.1634 3.2642 47.8826 3.2642C48.4627 3.2642 48.9797 3.37192 49.4338 3.58736C49.8878 3.79948 50.2541 4.09777 50.5325 4.48224C50.8142 4.86671 50.9816 5.31581 51.0346 5.82955H49.5879C49.5083 5.47159 49.3261 5.16335 49.041 4.90483C48.7593 4.64631 48.3815 4.51705 47.9075 4.51705C47.4932 4.51705 47.1303 4.62642 46.8187 4.84517C46.5105 5.06061 46.2702 5.36884 46.0978 5.76989C45.9255 6.16761 45.8393 6.63826 45.8393 7.18182C45.8393 7.73864 45.9238 8.21922 46.0929 8.62358C46.2619 9.02794 46.5005 9.34115 46.8088 9.56321C47.1203 9.78527 47.4866 9.89631 47.9075 9.89631C48.1892 9.89631 48.4444 9.84493 48.6731 9.74219C48.9051 9.63613 49.099 9.48532 49.2548 9.28977C49.4139 9.09422 49.5249 8.8589 49.5879 8.58381H51.0346C50.9816 9.07765 50.8208 9.51847 50.5524 9.90625C50.2839 10.294 49.9243 10.599 49.4735 10.821C49.0261 11.0431 48.5008 11.1541 47.8975 11.1541ZM57.4616 7.8331V3.36364H58.9531V11H57.4915V9.67756H57.4119C57.2363 10.0852 56.9545 10.425 56.5668 10.6967C56.1823 10.9652 55.7034 11.0994 55.13 11.0994C54.6394 11.0994 54.2053 10.9917 53.8274 10.7763C53.4529 10.5575 53.1579 10.2344 52.9425 9.80682C52.7304 9.37926 52.6243 8.85062 52.6243 8.22088V3.36364H54.1108V8.0419C54.1108 8.56226 54.255 8.97656 54.5433 9.2848C54.8317 9.59304 55.2062 9.74716 55.6669 9.74716C55.9453 9.74716 56.2221 9.67756 56.4972 9.53835C56.7756 9.39915 57.0059 9.18868 57.1882 8.90696C57.3738 8.62524 57.465 8.26728 57.4616 7.8331ZM60.9505 11V3.36364H62.3873V4.5767H62.4668C62.606 4.16572 62.8513 3.84257 63.2026 3.60724C63.5572 3.36861 63.9583 3.24929 64.4057 3.24929C64.4985 3.24929 64.6079 3.2526 64.7338 3.25923C64.8631 3.26586 64.9642 3.27415 65.0371 3.28409V4.70597C64.9775 4.68939 64.8714 4.67116 64.7189 4.65128C64.5665 4.62808 64.414 4.61648 64.2615 4.61648C63.9102 4.61648 63.597 4.69105 63.3219 4.8402C63.0501 4.98603 62.8347 5.18987 62.6756 5.4517C62.5165 5.71023 62.437 6.00521 62.437 6.33665V11H60.9505ZM66.3235 11V3.36364H67.7603V4.5767H67.8398C67.979 4.16572 68.2243 3.84257 68.5756 3.60724C68.9303 3.36861 69.3313 3.24929 69.7788 3.24929C69.8716 3.24929 69.9809 3.2526 70.1069 3.25923C70.2362 3.26586 70.3372 3.27415 70.4102 3.28409V4.70597C70.3505 4.68939 70.2444 4.67116 70.092 4.65128C69.9395 4.62808 69.7871 4.61648 69.6346 4.61648C69.2833 4.61648 68.9701 4.69105 68.695 4.8402C68.4232 4.98603 68.2077 5.18987 68.0487 5.4517C67.8896 5.71023 67.81 6.00521 67.81 6.33665V11H66.3235ZM74.7143 11.1541C73.9619 11.1541 73.314 10.9934 72.7704 10.6719C72.2302 10.3471 71.8126 9.89134 71.5176 9.30469C71.2259 8.71473 71.0801 8.02367 71.0801 7.23153C71.0801 6.44934 71.2259 5.75994 71.5176 5.16335C71.8126 4.56676 72.2235 4.10109 72.7505 3.76633C73.2808 3.43158 73.9006 3.2642 74.6099 3.2642C75.0408 3.2642 75.4584 3.33546 75.8627 3.47798C76.2671 3.6205 76.63 3.84422 76.9515 4.14915C77.273 4.45407 77.5266 4.85014 77.7122 5.33736C77.8978 5.82126 77.9906 6.40956 77.9906 7.10227V7.62926H71.9203V6.51562H76.5339C76.5339 6.12453 76.4544 5.77817 76.2953 5.47656C76.1362 5.17164 75.9125 4.93134 75.6241 4.75568C75.3391 4.58002 75.0043 4.49219 74.6199 4.49219C74.2022 4.49219 73.8377 4.59493 73.5261 4.80043C73.2179 5.0026 72.9792 5.26776 72.8102 5.59588C72.6445 5.92069 72.5616 6.27367 72.5616 6.65483V7.52486C72.5616 8.03527 72.6511 8.46946 72.8301 8.82741C73.0124 9.18537 73.2659 9.45881 73.5907 9.64773C73.9155 9.83333 74.295 9.92614 74.7292 9.92614C75.0109 9.92614 75.2678 9.88636 75.4998 9.80682C75.7318 9.72396 75.9324 9.60133 76.1014 9.43892C76.2704 9.27652 76.3997 9.07599 76.4892 8.83736L77.8961 9.09091C77.7834 9.50521 77.5813 9.86813 77.2896 10.1797C77.0012 10.4879 76.6383 10.7282 76.2008 10.9006C75.7666 11.0696 75.2711 11.1541 74.7143 11.1541ZM81.1264 6.46591V11H79.6399V3.36364H81.0668V4.60653H81.1612C81.3369 4.20218 81.612 3.87737 81.9865 3.6321C82.3643 3.38684 82.84 3.2642 83.4134 3.2642C83.9337 3.2642 84.3894 3.37358 84.7805 3.59233C85.1716 3.80777 85.4749 4.12926 85.6903 4.55682C85.9058 4.98437 86.0135 5.51302 86.0135 6.14276V11H84.527V6.32173C84.527 5.76823 84.3828 5.3357 84.0945 5.02415C83.8061 4.70928 83.41 4.55185 82.9062 4.55185C82.5616 4.55185 82.255 4.62642 81.9865 4.77557C81.7214 4.92472 81.5109 5.14347 81.3551 5.43182C81.2027 5.71686 81.1264 6.06155 81.1264 6.46591ZM91.2237 11.1541C90.4846 11.1541 89.8482 10.9867 89.3146 10.652C88.7843 10.3139 88.3767 9.84825 88.0916 9.25497C87.8066 8.66169 87.6641 7.98224 87.6641 7.21662C87.6641 6.44105 87.8099 5.75663 88.1016 5.16335C88.3932 4.56676 88.8042 4.10109 89.3345 3.76633C89.8648 3.43158 90.4896 3.2642 91.2088 3.2642C91.7888 3.2642 92.3059 3.37192 92.7599 3.58736C93.214 3.79948 93.5803 4.09777 93.8587 4.48224C94.1404 4.86671 94.3078 5.31581 94.3608 5.82955H92.9141C92.8345 5.47159 92.6522 5.16335 92.3672 4.90483C92.0855 4.64631 91.7076 4.51705 91.2337 4.51705C90.8194 4.51705 90.4564 4.62642 90.1449 4.84517C89.8366 5.06061 89.5964 5.36884 89.424 5.76989C89.2517 6.16761 89.1655 6.63826 89.1655 7.18182C89.1655 7.73864 89.25 8.21922 89.419 8.62358C89.5881 9.02794 89.8267 9.34115 90.1349 9.56321C90.4465 9.78527 90.8127 9.89631 91.2337 9.89631C91.5154 9.89631 91.7706 9.84493 91.9993 9.74219C92.2313 9.63613 92.4252 9.48532 92.581 9.28977C92.7401 9.09422 92.8511 8.8589 92.9141 8.58381H94.3608C94.3078 9.07765 94.147 9.51847 93.8786 9.90625C93.6101 10.294 93.2505 10.599 92.7997 10.821C92.3523 11.0431 91.8269 11.1541 91.2237 11.1541ZM96.8901 13.8636C96.668 13.8636 96.4658 13.8454 96.2836 13.8089C96.1013 13.7758 95.9654 13.7393 95.8759 13.6996L96.2338 12.4815C96.5056 12.5545 96.7476 12.5859 96.9597 12.576C97.1718 12.5661 97.3591 12.4865 97.5215 12.3374C97.6872 12.1882 97.833 11.9446 97.959 11.6065L98.1429 11.0994L95.3489 3.36364H96.9398L98.8738 9.28977H98.9533L100.887 3.36364H102.483L99.3361 12.0192C99.1903 12.4169 99.0047 12.7533 98.7793 13.0284C98.5539 13.3068 98.2855 13.5156 97.9739 13.6548C97.6623 13.794 97.3011 13.8636 96.8901 13.8636ZM108.379 6.05327V7.34091H103.865V6.05327H108.379ZM113.885 11.169C113.1 11.1657 112.429 10.9586 111.872 10.5476C111.315 10.1366 110.889 9.53835 110.594 8.75284C110.299 7.96733 110.152 7.02107 110.152 5.91406C110.152 4.81037 110.299 3.86742 110.594 3.08523C110.893 2.30303 111.32 1.70644 111.877 1.29545C112.437 0.884469 113.107 0.678977 113.885 0.678977C114.664 0.678977 115.332 0.886126 115.889 1.30043C116.446 1.71141 116.872 2.308 117.167 3.0902C117.465 3.86908 117.614 4.81037 117.614 5.91406C117.614 7.02438 117.467 7.9723 117.172 8.75781C116.877 9.54001 116.451 10.1383 115.894 10.5526C115.337 10.9635 114.668 11.169 113.885 11.169ZM113.885 9.84162C114.575 9.84162 115.113 9.50521 115.501 8.83239C115.892 8.15956 116.088 7.18679 116.088 5.91406C116.088 5.06889 115.998 4.35464 115.819 3.77131C115.644 3.18466 115.39 2.74053 115.059 2.43892C114.731 2.134 114.34 1.98153 113.885 1.98153C113.199 1.98153 112.661 2.3196 112.27 2.99574C111.879 3.67187 111.681 4.64465 111.678 5.91406C111.678 6.76255 111.766 7.48011 111.942 8.06676C112.121 8.65009 112.374 9.09257 112.702 9.39418C113.03 9.69247 113.425 9.84162 113.885 9.84162ZM122.923 11.1392C122.24 11.1392 121.63 11.0215 121.093 10.7862C120.559 10.5509 120.137 10.2244 119.825 9.80682C119.517 9.38589 119.351 8.89867 119.328 8.34517H120.889C120.909 8.64678 121.01 8.90862 121.192 9.13068C121.378 9.34943 121.62 9.51847 121.918 9.63778C122.217 9.7571 122.548 9.81676 122.913 9.81676C123.314 9.81676 123.668 9.74716 123.977 9.60795C124.288 9.46875 124.532 9.27486 124.707 9.02628C124.883 8.77438 124.971 8.48438 124.971 8.15625C124.971 7.81487 124.883 7.51491 124.707 7.25639C124.535 6.99455 124.281 6.78906 123.947 6.63991C123.615 6.49077 123.214 6.41619 122.744 6.41619H121.884V5.16335H122.744C123.121 5.16335 123.453 5.09541 123.738 4.95952C124.026 4.82363 124.252 4.63471 124.414 4.39276C124.576 4.14749 124.658 3.8608 124.658 3.53267C124.658 3.2178 124.586 2.94437 124.444 2.71236C124.305 2.47704 124.106 2.29309 123.847 2.16051C123.592 2.02794 123.29 1.96165 122.942 1.96165C122.611 1.96165 122.301 2.02296 122.013 2.1456C121.728 2.26491 121.496 2.43726 121.317 2.66264C121.138 2.88471 121.042 3.15151 121.028 3.46307H119.542C119.558 2.91288 119.721 2.42898 120.029 2.01136C120.341 1.59375 120.752 1.26728 121.262 1.03196C121.772 0.796638 122.339 0.678977 122.962 0.678977C123.615 0.678977 124.179 0.806581 124.653 1.06179C125.13 1.31368 125.498 1.65009 125.756 2.07102C126.018 2.49195 126.147 2.95265 126.144 3.45312C126.147 4.0232 125.988 4.5071 125.667 4.90483C125.349 5.30256 124.924 5.56937 124.394 5.70526V5.7848C125.07 5.88755 125.594 6.15601 125.965 6.5902C126.34 7.02438 126.525 7.56297 126.522 8.20597C126.525 8.7661 126.37 9.26823 126.055 9.71236C125.743 10.1565 125.317 10.5062 124.777 10.7614C124.237 11.0133 123.619 11.1392 122.923 11.1392Z" fill="black"/>
</svg>
