<svg viewBox="0 0 145 14" fill="none" stroke-width="2" stroke="currentColor" aria-hidden="true">
  <path d="M4.21591 11.1541C3.4768 11.1541 2.84044 10.9867 2.30682 10.652C1.77652 10.3139 1.36884 9.84825 1.08381 9.25497C0.798769 8.66169 0.65625 7.98224 0.65625 7.21662C0.65625 6.44105 0.802083 5.75663 1.09375 5.16335C1.38542 4.56676 1.7964 4.10109 2.3267 3.76633C2.85701 3.43158 3.48177 3.2642 4.20099 3.2642C4.78101 3.2642 5.29806 3.37192 5.75213 3.58736C6.2062 3.79948 6.57244 4.09777 6.85085 4.48224C7.13258 4.86671 7.29995 5.31581 7.35298 5.82955H5.90625C5.8267 5.47159 5.64441 5.16335 5.35938 4.90483C5.07765 4.64631 4.69981 4.51705 4.22585 4.51705C3.81155 4.51705 3.44863 4.62642 3.13707 4.84517C2.82884 5.06061 2.58854 5.36884 2.41619 5.76989C2.24384 6.16761 2.15767 6.63826 2.15767 7.18182C2.15767 7.73864 2.24219 8.21922 2.41122 8.62358C2.58026 9.02794 2.81889 9.34115 3.12713 9.56321C3.43868 9.78527 3.80492 9.89631 4.22585 9.89631C4.50758 9.89631 4.76278 9.84493 4.99148 9.74219C5.22349 9.63613 5.41738 9.48532 5.57315 9.28977C5.73224 9.09422 5.84328 8.8589 5.90625 8.58381H7.35298C7.29995 9.07765 7.1392 9.51847 6.87074 9.90625C6.60227 10.294 6.24266 10.599 5.7919 10.821C5.34446 11.0431 4.81913 11.1541 4.21591 11.1541ZM13.78 7.8331V3.36364H15.2715V11H13.8098V9.67756H13.7303C13.5546 10.0852 13.2729 10.425 12.8851 10.6967C12.5007 10.9652 12.0217 11.0994 11.4483 11.0994C10.9578 11.0994 10.5236 10.9917 10.1458 10.7763C9.77125 10.5575 9.47627 10.2344 9.26083 9.80682C9.04871 9.37926 8.94265 8.85062 8.94265 8.22088V3.36364H10.4292V8.0419C10.4292 8.56226 10.5733 8.97656 10.8617 9.2848C11.15 9.59304 11.5246 9.74716 11.9853 9.74716C12.2637 9.74716 12.5404 9.67756 12.8155 9.53835C13.0939 9.39915 13.3243 9.18868 13.5066 8.90696C13.6922 8.62524 13.7833 8.26728 13.78 7.8331ZM17.2688 11V3.36364H18.7056V4.5767H18.7852C18.9244 4.16572 19.1696 3.84257 19.521 3.60724C19.8756 3.36861 20.2766 3.24929 20.7241 3.24929C20.8169 3.24929 20.9263 3.2526 21.0522 3.25923C21.1815 3.26586 21.2826 3.27415 21.3555 3.28409V4.70597C21.2958 4.68939 21.1897 4.67116 21.0373 4.65128C20.8848 4.62808 20.7324 4.61648 20.5799 4.61648C20.2286 4.61648 19.9154 4.69105 19.6403 4.8402C19.3685 4.98603 19.1531 5.18987 18.994 5.4517C18.8349 5.71023 18.7553 6.00521 18.7553 6.33665V11H17.2688ZM22.6419 11V3.36364H24.0787V4.5767H24.1582C24.2974 4.16572 24.5427 3.84257 24.894 3.60724C25.2486 3.36861 25.6497 3.24929 26.0971 3.24929C26.1899 3.24929 26.2993 3.2526 26.4252 3.25923C26.5545 3.26586 26.6556 3.27415 26.7285 3.28409V4.70597C26.6689 4.68939 26.5628 4.67116 26.4103 4.65128C26.2579 4.62808 26.1054 4.61648 25.9529 4.61648C25.6016 4.61648 25.2884 4.69105 25.0133 4.8402C24.7415 4.98603 24.5261 5.18987 24.367 5.4517C24.2079 5.71023 24.1284 6.00521 24.1284 6.33665V11H22.6419ZM31.0327 11.1541C30.2803 11.1541 29.6323 10.9934 29.0888 10.6719C28.5485 10.3471 28.1309 9.89134 27.8359 9.30469C27.5443 8.71473 27.3984 8.02367 27.3984 7.23153C27.3984 6.44934 27.5443 5.75994 27.8359 5.16335C28.1309 4.56676 28.5419 4.10109 29.0689 3.76633C29.5992 3.43158 30.219 3.2642 30.9283 3.2642C31.3591 3.2642 31.7768 3.33546 32.1811 3.47798C32.5855 3.6205 32.9484 3.84422 33.2699 4.14915C33.5914 4.45407 33.8449 4.85014 34.0305 5.33736C34.2161 5.82126 34.3089 6.40956 34.3089 7.10227V7.62926H28.2386V6.51562H32.8523C32.8523 6.12453 32.7727 5.77817 32.6136 5.47656C32.4545 5.17164 32.2308 4.93134 31.9425 4.75568C31.6574 4.58002 31.3227 4.49219 30.9382 4.49219C30.5206 4.49219 30.156 4.59493 29.8445 4.80043C29.5362 5.0026 29.2976 5.26776 29.1286 5.59588C28.9628 5.92069 28.88 6.27367 28.88 6.65483V7.52486C28.88 8.03527 28.9695 8.46946 29.1484 8.82741C29.3307 9.18537 29.5843 9.45881 29.9091 9.64773C30.2339 9.83333 30.6134 9.92614 31.0476 9.92614C31.3293 9.92614 31.5862 9.88636 31.8182 9.80682C32.0502 9.72396 32.2507 9.60133 32.4197 9.43892C32.5888 9.27652 32.718 9.07599 32.8075 8.83736L34.2145 9.09091C34.1018 9.50521 33.8996 9.86813 33.608 10.1797C33.3196 10.4879 32.9567 10.7282 32.5192 10.9006C32.085 11.0696 31.5895 11.1541 31.0327 11.1541ZM37.4448 6.46591V11H35.9583V3.36364H37.3851V4.60653H37.4796C37.6552 4.20218 37.9303 3.87737 38.3049 3.6321C38.6827 3.38684 39.1583 3.2642 39.7317 3.2642C40.2521 3.2642 40.7078 3.37358 41.0989 3.59233C41.49 3.80777 41.7933 4.12926 42.0087 4.55682C42.2241 4.98437 42.3319 5.51302 42.3319 6.14276V11H40.8453V6.32173C40.8453 5.76823 40.7012 5.3357 40.4128 5.02415C40.1245 4.70928 39.7284 4.55185 39.2246 4.55185C38.8799 4.55185 38.5733 4.62642 38.3049 4.77557C38.0397 4.92472 37.8292 5.14347 37.6735 5.43182C37.521 5.71686 37.4448 6.06155 37.4448 6.46591ZM47.5421 11.1541C46.803 11.1541 46.1666 10.9867 45.633 10.652C45.1027 10.3139 44.695 9.84825 44.41 9.25497C44.1249 8.66169 43.9824 7.98224 43.9824 7.21662C43.9824 6.44105 44.1283 5.75663 44.4199 5.16335C44.7116 4.56676 45.1226 4.10109 45.6529 3.76633C46.1832 3.43158 46.8079 3.2642 47.5272 3.2642C48.1072 3.2642 48.6242 3.37192 49.0783 3.58736C49.5324 3.79948 49.8986 4.09777 50.177 4.48224C50.4587 4.86671 50.6261 5.31581 50.6792 5.82955H49.2324C49.1529 5.47159 48.9706 5.16335 48.6855 4.90483C48.4038 4.64631 48.026 4.51705 47.552 4.51705C47.1377 4.51705 46.7748 4.62642 46.4632 4.84517C46.155 5.06061 45.9147 5.36884 45.7424 5.76989C45.57 6.16761 45.4838 6.63826 45.4838 7.18182C45.4838 7.73864 45.5684 8.21922 45.7374 8.62358C45.9064 9.02794 46.1451 9.34115 46.4533 9.56321C46.7649 9.78527 47.1311 9.89631 47.552 9.89631C47.8337 9.89631 48.089 9.84493 48.3176 9.74219C48.5497 9.63613 48.7435 9.48532 48.8993 9.28977C49.0584 9.09422 49.1694 8.8589 49.2324 8.58381H50.6792C50.6261 9.07765 50.4654 9.51847 50.1969 9.90625C49.9284 10.294 49.5688 10.599 49.1181 10.821C48.6706 11.0431 48.1453 11.1541 47.5421 11.1541ZM53.2085 13.8636C52.9864 13.8636 52.7842 13.8454 52.6019 13.8089C52.4196 13.7758 52.2837 13.7393 52.1942 13.6996L52.5522 12.4815C52.824 12.5545 53.0659 12.5859 53.2781 12.576C53.4902 12.5661 53.6774 12.4865 53.8398 12.3374C54.0056 12.1882 54.1514 11.9446 54.2773 11.6065L54.4613 11.0994L51.6673 3.36364H53.2582L55.1921 9.28977H55.2717L57.2056 3.36364H58.8015L55.6545 12.0192C55.5086 12.4169 55.323 12.7533 55.0977 13.0284C54.8723 13.3068 54.6038 13.5156 54.2923 13.6548C53.9807 13.794 53.6194 13.8636 53.2085 13.8636ZM64.6978 6.05327V7.34091H60.1836V6.05327H64.6978ZM69.5376 11.1491C68.9212 11.1491 68.371 10.9917 67.8871 10.6768C67.4065 10.3587 67.0286 9.90625 66.7536 9.3196C66.4818 8.72964 66.3459 8.02202 66.3459 7.19673C66.3459 6.37145 66.4834 5.66548 66.7585 5.07884C67.0369 4.49219 67.4181 4.04309 67.902 3.73153C68.3859 3.41998 68.9344 3.2642 69.5476 3.2642C70.0215 3.2642 70.4027 3.34375 70.6911 3.50284C70.9827 3.65862 71.2081 3.84091 71.3672 4.04972C71.5296 4.25852 71.6555 4.44247 71.745 4.60156H71.8345V0.818182H73.321V11H71.8693V9.81179H71.745C71.6555 9.9742 71.5263 10.1598 71.3572 10.3686C71.1915 10.5774 70.9628 10.7597 70.6712 10.9155C70.3795 11.0713 70.0017 11.1491 69.5376 11.1491ZM69.8658 9.88139C70.2933 9.88139 70.6546 9.7687 70.9496 9.54332C71.2479 9.31463 71.4732 8.99811 71.6257 8.59375C71.7815 8.18939 71.8594 7.71875 71.8594 7.18182C71.8594 6.65151 71.7831 6.1875 71.6307 5.78977C71.4782 5.39205 71.2545 5.08215 70.9595 4.86009C70.6645 4.63802 70.3 4.52699 69.8658 4.52699C69.4183 4.52699 69.0455 4.64299 68.7472 4.875C68.4489 5.10701 68.2235 5.42353 68.071 5.82457C67.9219 6.22562 67.8473 6.67803 67.8473 7.18182C67.8473 7.69223 67.9235 8.15128 68.076 8.55895C68.2285 8.96662 68.4538 9.28977 68.7521 9.52841C69.0537 9.76373 69.425 9.88139 69.8658 9.88139ZM78.6593 11.1541C77.9434 11.1541 77.3186 10.9901 76.785 10.6619C76.2514 10.3338 75.8371 9.87476 75.5421 9.2848C75.2471 8.69484 75.0996 8.00544 75.0996 7.21662C75.0996 6.42448 75.2471 5.73177 75.5421 5.13849C75.8371 4.54522 76.2514 4.08452 76.785 3.75639C77.3186 3.42827 77.9434 3.2642 78.6593 3.2642C79.3752 3.2642 79.9999 3.42827 80.5336 3.75639C81.0672 4.08452 81.4815 4.54522 81.7765 5.13849C82.0714 5.73177 82.2189 6.42448 82.2189 7.21662C82.2189 8.00544 82.0714 8.69484 81.7765 9.2848C81.4815 9.87476 81.0672 10.3338 80.5336 10.6619C79.9999 10.9901 79.3752 11.1541 78.6593 11.1541ZM78.6642 9.90625C79.1283 9.90625 79.5127 9.78362 79.8176 9.53835C80.1226 9.29309 80.348 8.96662 80.4938 8.55895C80.6429 8.15128 80.7175 7.70218 80.7175 7.21165C80.7175 6.72443 80.6429 6.27699 80.4938 5.86932C80.348 5.45833 80.1226 5.12855 79.8176 4.87997C79.5127 4.63139 79.1283 4.5071 78.6642 4.5071C78.1969 4.5071 77.8091 4.63139 77.5009 4.87997C77.196 5.12855 76.9689 5.45833 76.8198 5.86932C76.6739 6.27699 76.601 6.72443 76.601 7.21165C76.601 7.70218 76.6739 8.15128 76.8198 8.55895C76.9689 8.96662 77.196 9.29309 77.5009 9.53835C77.8091 9.78362 78.1969 9.90625 78.6642 9.90625ZM85.3647 0.818182V11H83.8782V0.818182H85.3647ZM88.851 0.818182V11H87.3645V0.818182H88.851ZM93.0732 11.169C92.5893 11.169 92.1518 11.0795 91.7607 10.9006C91.3696 10.7183 91.0597 10.4548 90.831 10.1101C90.6056 9.76539 90.4929 9.3428 90.4929 8.84233C90.4929 8.41146 90.5758 8.05682 90.7415 7.77841C90.9072 7.5 91.1309 7.27959 91.4126 7.11719C91.6944 6.95478 92.0092 6.83215 92.3572 6.74929C92.7053 6.66643 93.0599 6.60346 93.4212 6.56037C93.8786 6.50734 94.2498 6.46425 94.5348 6.43111C94.8198 6.39465 95.027 6.33665 95.1562 6.2571C95.2855 6.17756 95.3501 6.0483 95.3501 5.86932V5.83452C95.3501 5.40033 95.2275 5.06392 94.9822 4.82528C94.7403 4.58665 94.379 4.46733 93.8984 4.46733C93.398 4.46733 93.0036 4.57836 92.7152 4.80043C92.4302 5.01918 92.233 5.26278 92.1236 5.53125L90.7266 5.21307C90.8923 4.74905 91.1342 4.37453 91.4524 4.08949C91.7739 3.80114 92.1435 3.59233 92.5611 3.46307C92.9787 3.33049 93.4179 3.2642 93.8786 3.2642C94.1835 3.2642 94.5066 3.30066 94.848 3.37358C95.1927 3.44318 95.5142 3.57244 95.8125 3.76136C96.1141 3.95028 96.361 4.22041 96.5533 4.57173C96.7455 4.91974 96.8416 5.37216 96.8416 5.92898V11H95.3899V9.95597H95.3303C95.2341 10.1482 95.09 10.3371 94.8977 10.5227C94.7055 10.7083 94.4586 10.8625 94.157 10.9851C93.8554 11.1077 93.4941 11.169 93.0732 11.169ZM93.3963 9.97585C93.8073 9.97585 94.1586 9.89465 94.4503 9.73224C94.7453 9.56984 94.969 9.35772 95.1214 9.09588C95.2772 8.83073 95.3551 8.54735 95.3551 8.24574V7.26136C95.3021 7.31439 95.1993 7.36411 95.0469 7.41051C94.8977 7.4536 94.727 7.49171 94.5348 7.52486C94.3426 7.55469 94.1553 7.58286 93.973 7.60938C93.7907 7.63258 93.6383 7.65246 93.5156 7.66903C93.2273 7.70549 92.9638 7.76681 92.7251 7.85298C92.4898 7.93916 92.3009 8.06345 92.1584 8.22585C92.0192 8.38494 91.9496 8.59706 91.9496 8.86222C91.9496 9.23011 92.0855 9.50852 92.3572 9.69744C92.629 9.88305 92.9754 9.97585 93.3963 9.97585ZM98.8216 11V3.36364H100.258V4.5767H100.338C100.477 4.16572 100.722 3.84257 101.074 3.60724C101.428 3.36861 101.829 3.24929 102.277 3.24929C102.37 3.24929 102.479 3.2526 102.605 3.25923C102.734 3.26586 102.835 3.27415 102.908 3.28409V4.70597C102.849 4.68939 102.742 4.67116 102.59 4.65128C102.438 4.62808 102.285 4.61648 102.133 4.61648C101.781 4.61648 101.468 4.69105 101.193 4.8402C100.921 4.98603 100.706 5.18987 100.547 5.4517C100.388 5.71023 100.308 6.00521 100.308 6.33665V11H98.8216ZM108.243 6.05327V7.34091H103.729V6.05327H108.243ZM113.441 11.1541C112.701 11.1541 112.065 10.9867 111.531 10.652C111.001 10.3139 110.593 9.84825 110.308 9.25497C110.023 8.66169 109.881 7.98224 109.881 7.21662C109.881 6.44105 110.027 5.75663 110.318 5.16335C110.61 4.56676 111.021 4.10109 111.551 3.76633C112.082 3.43158 112.706 3.2642 113.426 3.2642C114.006 3.2642 114.523 3.37192 114.977 3.58736C115.431 3.79948 115.797 4.09777 116.075 4.48224C116.357 4.86671 116.525 5.31581 116.578 5.82955H115.131C115.051 5.47159 114.869 5.16335 114.584 4.90483C114.302 4.64631 113.924 4.51705 113.45 4.51705C113.036 4.51705 112.673 4.62642 112.362 4.84517C112.053 5.06061 111.813 5.36884 111.641 5.76989C111.468 6.16761 111.382 6.63826 111.382 7.18182C111.382 7.73864 111.467 8.21922 111.636 8.62358C111.805 9.02794 112.044 9.34115 112.352 9.56321C112.663 9.78527 113.03 9.89631 113.45 9.89631C113.732 9.89631 113.987 9.84493 114.216 9.74219C114.448 9.63613 114.642 9.48532 114.798 9.28977C114.957 9.09422 115.068 8.8589 115.131 8.58381H116.578C116.525 9.07765 116.364 9.51847 116.095 9.90625C115.827 10.294 115.467 10.599 115.017 10.821C114.569 11.0431 114.044 11.1541 113.441 11.1541ZM118.167 11V3.36364H119.654V11H118.167ZM118.918 2.18537C118.659 2.18537 118.437 2.09919 118.252 1.92685C118.069 1.75118 117.978 1.54238 117.978 1.30043C117.978 1.05516 118.069 0.846354 118.252 0.674005C118.437 0.498342 118.659 0.410511 118.918 0.410511C119.176 0.410511 119.397 0.498342 119.579 0.674005C119.765 0.846354 119.858 1.05516 119.858 1.30043C119.858 1.54238 119.765 1.75118 119.579 1.92685C119.397 2.09919 119.176 2.18537 118.918 2.18537ZM121.654 11V3.36364H123.09V4.5767H123.17C123.309 4.16572 123.554 3.84257 123.906 3.60724C124.26 3.36861 124.661 3.24929 125.109 3.24929C125.202 3.24929 125.311 3.2526 125.437 3.25923C125.566 3.26586 125.667 3.27415 125.74 3.28409V4.70597C125.681 4.68939 125.575 4.67116 125.422 4.65128C125.27 4.62808 125.117 4.61648 124.965 4.61648C124.613 4.61648 124.3 4.69105 124.025 4.8402C123.753 4.98603 123.538 5.18987 123.379 5.4517C123.22 5.71023 123.14 6.00521 123.14 6.33665V11H121.654ZM129.97 11.1541C129.231 11.1541 128.594 10.9867 128.061 10.652C127.53 10.3139 127.123 9.84825 126.838 9.25497C126.553 8.66169 126.41 7.98224 126.41 7.21662C126.41 6.44105 126.556 5.75663 126.848 5.16335C127.139 4.56676 127.55 4.10109 128.081 3.76633C128.611 3.43158 129.236 3.2642 129.955 3.2642C130.535 3.2642 131.052 3.37192 131.506 3.58736C131.96 3.79948 132.326 4.09777 132.605 4.48224C132.886 4.86671 133.054 5.31581 133.107 5.82955H131.66C131.581 5.47159 131.398 5.16335 131.113 4.90483C130.832 4.64631 130.454 4.51705 129.98 4.51705C129.565 4.51705 129.203 4.62642 128.891 4.84517C128.583 5.06061 128.342 5.36884 128.17 5.76989C127.998 6.16761 127.912 6.63826 127.912 7.18182C127.912 7.73864 127.996 8.21922 128.165 8.62358C128.334 9.02794 128.573 9.34115 128.881 9.56321C129.193 9.78527 129.559 9.89631 129.98 9.89631C130.261 9.89631 130.517 9.84493 130.745 9.74219C130.977 9.63613 131.171 9.48532 131.327 9.28977C131.486 9.09422 131.597 8.8589 131.66 8.58381H133.107C133.054 9.07765 132.893 9.51847 132.625 9.90625C132.356 10.294 131.997 10.599 131.546 10.821C131.098 11.0431 130.573 11.1541 129.97 11.1541ZM136.183 0.818182V11H134.697V0.818182H136.183ZM141.474 11.1541C140.722 11.1541 140.074 10.9934 139.53 10.6719C138.99 10.3471 138.572 9.89134 138.277 9.30469C137.986 8.71473 137.84 8.02367 137.84 7.23153C137.84 6.44934 137.986 5.75994 138.277 5.16335C138.572 4.56676 138.983 4.10109 139.51 3.76633C140.041 3.43158 140.66 3.2642 141.37 3.2642C141.801 3.2642 142.218 3.33546 142.623 3.47798C143.027 3.6205 143.39 3.84422 143.711 4.14915C144.033 4.45407 144.286 4.85014 144.472 5.33736C144.658 5.82126 144.75 6.40956 144.75 7.10227V7.62926H138.68V6.51562H143.294C143.294 6.12453 143.214 5.77817 143.055 5.47656C142.896 5.17164 142.672 4.93134 142.384 4.75568C142.099 4.58002 141.764 4.49219 141.38 4.49219C140.962 4.49219 140.597 4.59493 140.286 4.80043C139.978 5.0026 139.739 5.26776 139.57 5.59588C139.404 5.92069 139.321 6.27367 139.321 6.65483V7.52486C139.321 8.03527 139.411 8.46946 139.59 8.82741C139.772 9.18537 140.026 9.45881 140.35 9.64773C140.675 9.83333 141.055 9.92614 141.489 9.92614C141.771 9.92614 142.028 9.88636 142.26 9.80682C142.492 9.72396 142.692 9.60133 142.861 9.43892C143.03 9.27652 143.159 9.07599 143.249 8.83736L144.656 9.09091C144.543 9.50521 144.341 9.86813 144.049 10.1797C143.761 10.4879 143.398 10.7282 142.961 10.9006C142.526 11.0696 142.031 11.1541 141.474 11.1541Z" fill="black"/>
</svg>
