<svg viewBox="0 0 51 12" fill="none" stroke-width="2" stroke="currentColor" aria-hidden="true">
  <path d="M6.72159 5.22798L5.37429 5.46662C5.31795 5.29427 5.22846 5.13021 5.10582 4.97443C4.98651 4.81865 4.8241 4.69105 4.61861 4.59162C4.41312 4.49219 4.15625 4.44247 3.84801 4.44247C3.42708 4.44247 3.07576 4.53693 2.79403 4.72585C2.51231 4.91146 2.37145 5.15175 2.37145 5.44673C2.37145 5.70194 2.46591 5.90743 2.65483 6.06321C2.84375 6.21899 3.14867 6.34659 3.5696 6.44602L4.78267 6.72443C5.48532 6.88684 6.009 7.13707 6.35369 7.47514C6.69839 7.81321 6.87074 8.25237 6.87074 8.79261C6.87074 9.25 6.73816 9.65767 6.47301 10.0156C6.21117 10.3703 5.84493 10.6487 5.37429 10.8509C4.90696 11.053 4.36506 11.1541 3.74858 11.1541C2.89347 11.1541 2.19579 10.9718 1.65554 10.6072C1.11529 10.2393 0.783854 9.71733 0.661222 9.04119L2.09801 8.82244C2.1875 9.19697 2.37145 9.48035 2.64986 9.67259C2.92827 9.86151 3.29119 9.95597 3.73864 9.95597C4.22585 9.95597 4.61529 9.85488 4.90696 9.6527C5.19863 9.44721 5.34446 9.19697 5.34446 8.90199C5.34446 8.66335 5.25497 8.46283 5.07599 8.30043C4.90033 8.13802 4.63021 8.01539 4.26562 7.93253L2.97301 7.64915C2.26042 7.48674 1.73343 7.22822 1.39205 6.87358C1.05398 6.51894 0.884943 6.06984 0.884943 5.52628C0.884943 5.07552 1.01089 4.68111 1.26278 4.34304C1.51468 4.00497 1.86269 3.74148 2.30682 3.55256C2.75095 3.36032 3.25971 3.2642 3.8331 3.2642C4.65838 3.2642 5.308 3.44318 5.78196 3.80114C6.25592 4.15578 6.56913 4.63139 6.72159 5.22798ZM10.7275 11.169C10.2435 11.169 9.80605 11.0795 9.41495 10.9006C9.02385 10.7183 8.71396 10.4548 8.48526 10.1101C8.25988 9.76539 8.14719 9.3428 8.14719 8.84233C8.14719 8.41146 8.23005 8.05682 8.39577 7.77841C8.56149 7.5 8.78522 7.27959 9.06694 7.11719C9.34866 6.95478 9.66353 6.83215 10.0115 6.74929C10.3596 6.66643 10.7142 6.60346 11.0755 6.56037C11.5328 6.50734 11.9041 6.46425 12.1891 6.43111C12.4741 6.39465 12.6813 6.33665 12.8105 6.2571C12.9398 6.17756 13.0044 6.0483 13.0044 5.86932V5.83452C13.0044 5.40033 12.8818 5.06392 12.6365 4.82528C12.3946 4.58665 12.0333 4.46733 11.5527 4.46733C11.0523 4.46733 10.6578 4.57836 10.3695 4.80043C10.0845 5.01918 9.88725 5.26278 9.77788 5.53125L8.38086 5.21307C8.54658 4.74905 8.78853 4.37453 9.10671 4.08949C9.42821 3.80114 9.79776 3.59233 10.2154 3.46307C10.633 3.33049 11.0721 3.2642 11.5328 3.2642C11.8378 3.2642 12.1609 3.30066 12.5023 3.37358C12.847 3.44318 13.1685 3.57244 13.4668 3.76136C13.7684 3.95028 14.0153 4.22041 14.2076 4.57173C14.3998 4.91974 14.4959 5.37216 14.4959 5.92898V11H13.0442V9.95597H12.9846C12.8884 10.1482 12.7443 10.3371 12.552 10.5227C12.3598 10.7083 12.1129 10.8625 11.8113 10.9851C11.5096 11.1077 11.1484 11.169 10.7275 11.169ZM11.0506 9.97585C11.4616 9.97585 11.8129 9.89465 12.1046 9.73224C12.3996 9.56984 12.6233 9.35772 12.7757 9.09588C12.9315 8.83073 13.0094 8.54735 13.0094 8.24574V7.26136C12.9564 7.31439 12.8536 7.36411 12.7012 7.41051C12.552 7.4536 12.3813 7.49171 12.1891 7.52486C11.9969 7.55469 11.8096 7.58286 11.6273 7.60938C11.445 7.63258 11.2926 7.65246 11.1699 7.66903C10.8816 7.70549 10.6181 7.76681 10.3794 7.85298C10.1441 7.93916 9.9552 8.06345 9.81268 8.22585C9.67347 8.38494 9.60387 8.59706 9.60387 8.86222C9.60387 9.23011 9.73976 9.50852 10.0115 9.69744C10.2833 9.88305 10.6297 9.97585 11.0506 9.97585ZM17.9624 0.818182V11H16.4759V0.818182H17.9624ZM23.2534 11.1541C22.501 11.1541 21.853 10.9934 21.3095 10.6719C20.7692 10.3471 20.3516 9.89134 20.0566 9.30469C19.765 8.71473 19.6191 8.02367 19.6191 7.23153C19.6191 6.44934 19.765 5.75994 20.0566 5.16335C20.3516 4.56676 20.7626 4.10109 21.2896 3.76633C21.8199 3.43158 22.4397 3.2642 23.149 3.2642C23.5798 3.2642 23.9975 3.33546 24.4018 3.47798C24.8062 3.6205 25.1691 3.84422 25.4906 4.14915C25.8121 4.45407 26.0656 4.85014 26.2512 5.33736C26.4368 5.82126 26.5297 6.40956 26.5297 7.10227V7.62926H20.4593V6.51562H25.073C25.073 6.12453 24.9934 5.77817 24.8343 5.47656C24.6752 5.17164 24.4515 4.93134 24.1632 4.75568C23.8781 4.58002 23.5434 4.49219 23.1589 4.49219C22.7413 4.49219 22.3767 4.59493 22.0652 4.80043C21.7569 5.0026 21.5183 5.26776 21.3493 5.59588C21.1835 5.92069 21.1007 6.27367 21.1007 6.65483V7.52486C21.1007 8.03527 21.1902 8.46946 21.3691 8.82741C21.5514 9.18537 21.805 9.45881 22.1298 9.64773C22.4546 9.83333 22.8341 9.92614 23.2683 9.92614C23.55 9.92614 23.8069 9.88636 24.0389 9.80682C24.2709 9.72396 24.4714 9.60133 24.6404 9.43892C24.8095 9.27652 24.9387 9.07599 25.0282 8.83736L26.4352 9.09091C26.3225 9.50521 26.1203 9.86813 25.8287 10.1797C25.5403 10.4879 25.1774 10.7282 24.7399 10.9006C24.3057 11.0696 23.8102 11.1541 23.2534 11.1541ZM32.6783 6.05327V7.34091H28.1641V6.05327H32.6783ZM38.1843 11.169C37.3988 11.1657 36.7276 10.9586 36.1708 10.5476C35.614 10.1366 35.1881 9.53835 34.8931 8.75284C34.5981 7.96733 34.4506 7.02107 34.4506 5.91406C34.4506 4.81037 34.5981 3.86742 34.8931 3.08523C35.1914 2.30303 35.619 1.70644 36.1758 1.29545C36.7359 0.884469 37.4054 0.678977 38.1843 0.678977C38.9632 0.678977 39.631 0.886126 40.1879 1.30043C40.7447 1.71141 41.1706 2.308 41.4656 3.0902C41.7638 3.86908 41.913 4.81037 41.913 5.91406C41.913 7.02438 41.7655 7.9723 41.4705 8.75781C41.1755 9.54001 40.7496 10.1383 40.1928 10.5526C39.636 10.9635 38.9665 11.169 38.1843 11.169ZM38.1843 9.84162C38.8737 9.84162 39.4123 9.50521 39.8001 8.83239C40.1912 8.15956 40.3867 7.18679 40.3867 5.91406C40.3867 5.06889 40.2972 4.35464 40.1183 3.77131C39.9426 3.18466 39.689 2.74053 39.3576 2.43892C39.0295 2.134 38.6384 1.98153 38.1843 1.98153C37.4982 1.98153 36.9596 2.3196 36.5685 2.99574C36.1774 3.67187 35.9802 4.64465 35.9769 5.91406C35.9769 6.76255 36.0647 7.48011 36.2404 8.06676C36.4194 8.65009 36.6729 9.09257 37.0011 9.39418C37.3292 9.69247 37.7236 9.84162 38.1843 9.84162ZM47.2214 11.1392C46.5386 11.1392 45.9288 11.0215 45.3919 10.7862C44.8583 10.5509 44.4357 10.2244 44.1241 9.80682C43.8159 9.38589 43.6502 8.89867 43.627 8.34517H45.188C45.2079 8.64678 45.309 8.90862 45.4913 9.13068C45.6769 9.34943 45.9189 9.51847 46.2172 9.63778C46.5154 9.7571 46.8469 9.81676 47.2115 9.81676C47.6125 9.81676 47.9672 9.74716 48.2754 9.60795C48.5869 9.46875 48.8306 9.27486 49.0062 9.02628C49.1819 8.77438 49.2697 8.48438 49.2697 8.15625C49.2697 7.81487 49.1819 7.51491 49.0062 7.25639C48.8339 6.99455 48.5803 6.78906 48.2456 6.63991C47.9141 6.49077 47.5131 6.41619 47.0424 6.41619H46.1824V5.16335H47.0424C47.4203 5.16335 47.7517 5.09541 48.0368 4.95952C48.3251 4.82363 48.5505 4.63471 48.7129 4.39276C48.8753 4.14749 48.9565 3.8608 48.9565 3.53267C48.9565 3.2178 48.8852 2.94437 48.7427 2.71236C48.6035 2.47704 48.4047 2.29309 48.1461 2.16051C47.8909 2.02794 47.5893 1.96165 47.2413 1.96165C46.9099 1.96165 46.6 2.02296 46.3116 2.1456C46.0266 2.26491 45.7946 2.43726 45.6156 2.66264C45.4366 2.88471 45.3405 3.15151 45.3272 3.46307H43.8407C43.8573 2.91288 44.0197 2.42898 44.3279 2.01136C44.6395 1.59375 45.0505 1.26728 45.5609 1.03196C46.0713 0.796638 46.6381 0.678977 47.2612 0.678977C47.9141 0.678977 48.4776 0.806581 48.9515 1.06179C49.4288 1.31368 49.7967 1.65009 50.0552 2.07102C50.3171 2.49195 50.4463 2.95265 50.443 3.45312C50.4463 4.0232 50.2872 4.5071 49.9657 4.90483C49.6475 5.30256 49.2233 5.56937 48.693 5.70526V5.7848C49.3691 5.88755 49.8928 6.15601 50.264 6.5902C50.6386 7.02438 50.8242 7.56297 50.8208 8.20597C50.8242 8.7661 50.6684 9.26823 50.3535 9.71236C50.042 10.1565 49.6161 10.5062 49.0758 10.7614C48.5356 11.0133 47.9174 11.1392 47.2214 11.1392Z" fill="black"/>
</svg>
