<svg viewBox="0 0 107 12" fill="none" stroke-width="2" stroke="currentColor" aria-hidden="true">
  <path d="M4.21591 11.1541C3.4768 11.1541 2.84044 10.9867 2.30682 10.652C1.77652 10.3139 1.36884 9.84825 1.08381 9.25497C0.798769 8.66169 0.65625 7.98224 0.65625 7.21662C0.65625 6.44105 0.802083 5.75663 1.09375 5.16335C1.38542 4.56676 1.7964 4.10109 2.3267 3.76633C2.85701 3.43158 3.48177 3.2642 4.20099 3.2642C4.78101 3.2642 5.29806 3.37192 5.75213 3.58736C6.2062 3.79948 6.57244 4.09777 6.85085 4.48224C7.13258 4.86671 7.29995 5.31581 7.35298 5.82955H5.90625C5.8267 5.47159 5.64441 5.16335 5.35938 4.90483C5.07765 4.64631 4.69981 4.51705 4.22585 4.51705C3.81155 4.51705 3.44863 4.62642 3.13707 4.84517C2.82884 5.06061 2.58854 5.36884 2.41619 5.76989C2.24384 6.16761 2.15767 6.63826 2.15767 7.18182C2.15767 7.73864 2.24219 8.21922 2.41122 8.62358C2.58026 9.02794 2.81889 9.34115 3.12713 9.56321C3.43868 9.78527 3.80492 9.89631 4.22585 9.89631C4.50758 9.89631 4.76278 9.84493 4.99148 9.74219C5.22349 9.63613 5.41738 9.48532 5.57315 9.28977C5.73224 9.09422 5.84328 8.8589 5.90625 8.58381H7.35298C7.29995 9.07765 7.1392 9.51847 6.87074 9.90625C6.60227 10.294 6.24266 10.599 5.7919 10.821C5.34446 11.0431 4.81913 11.1541 4.21591 11.1541ZM8.94265 11V3.36364H10.3794V4.5767H10.459C10.5982 4.16572 10.8435 3.84257 11.1948 3.60724C11.5494 3.36861 11.9505 3.24929 12.3979 3.24929C12.4907 3.24929 12.6001 3.2526 12.726 3.25923C12.8553 3.26586 12.9564 3.27415 13.0293 3.28409V4.70597C12.9696 4.68939 12.8636 4.67116 12.7111 4.65128C12.5587 4.62808 12.4062 4.61648 12.2537 4.61648C11.9024 4.61648 11.5892 4.69105 11.3141 4.8402C11.0423 4.98603 10.8269 5.18987 10.6678 5.4517C10.5087 5.71023 10.4292 6.00521 10.4292 6.33665V11H8.94265ZM17.3335 11.1541C16.5811 11.1541 15.9331 10.9934 15.3896 10.6719C14.8493 10.3471 14.4317 9.89134 14.1367 9.30469C13.8451 8.71473 13.6992 8.02367 13.6992 7.23153C13.6992 6.44934 13.8451 5.75994 14.1367 5.16335C14.4317 4.56676 14.8427 4.10109 15.3697 3.76633C15.9 3.43158 16.5198 3.2642 17.229 3.2642C17.6599 3.2642 18.0775 3.33546 18.4819 3.47798C18.8862 3.6205 19.2492 3.84422 19.5707 4.14915C19.8922 4.45407 20.1457 4.85014 20.3313 5.33736C20.5169 5.82126 20.6097 6.40956 20.6097 7.10227V7.62926H14.5394V6.51562H19.1531C19.1531 6.12453 19.0735 5.77817 18.9144 5.47656C18.7553 5.17164 18.5316 4.93134 18.2433 4.75568C17.9582 4.58002 17.6235 4.49219 17.239 4.49219C16.8214 4.49219 16.4568 4.59493 16.1452 4.80043C15.837 5.0026 15.5984 5.26776 15.4293 5.59588C15.2636 5.92069 15.1808 6.27367 15.1808 6.65483V7.52486C15.1808 8.03527 15.2702 8.46946 15.4492 8.82741C15.6315 9.18537 15.8851 9.45881 16.2099 9.64773C16.5347 9.83333 16.9142 9.92614 17.3484 9.92614C17.6301 9.92614 17.887 9.88636 18.119 9.80682C18.351 9.72396 18.5515 9.60133 18.7205 9.43892C18.8896 9.27652 19.0188 9.07599 19.1083 8.83736L20.5153 9.09091C20.4026 9.50521 20.2004 9.86813 19.9087 10.1797C19.6204 10.4879 19.2575 10.7282 18.82 10.9006C18.3858 11.0696 17.8903 11.1541 17.3335 11.1541ZM25.1177 11.1491C24.5012 11.1491 23.9511 10.9917 23.4672 10.6768C22.9866 10.3587 22.6087 9.90625 22.3336 9.3196C22.0618 8.72964 21.926 8.02202 21.926 7.19673C21.926 6.37145 22.0635 5.66548 22.3386 5.07884C22.617 4.49219 22.9982 4.04309 23.4821 3.73153C23.966 3.41998 24.5145 3.2642 25.1277 3.2642C25.6016 3.2642 25.9828 3.34375 26.2711 3.50284C26.5628 3.65862 26.7882 3.84091 26.9473 4.04972C27.1097 4.25852 27.2356 4.44247 27.3251 4.60156H27.4146V0.818182H28.9011V11H27.4494V9.81179H27.3251C27.2356 9.9742 27.1064 10.1598 26.9373 10.3686C26.7716 10.5774 26.5429 10.7597 26.2512 10.9155C25.9596 11.0713 25.5817 11.1491 25.1177 11.1491ZM25.4458 9.88139C25.8734 9.88139 26.2347 9.7687 26.5297 9.54332C26.8279 9.31463 27.0533 8.99811 27.2058 8.59375C27.3616 8.18939 27.4395 7.71875 27.4395 7.18182C27.4395 6.65151 27.3632 6.1875 27.2108 5.78977C27.0583 5.39205 26.8346 5.08215 26.5396 4.86009C26.2446 4.63802 25.88 4.52699 25.4458 4.52699C24.9984 4.52699 24.6255 4.64299 24.3272 4.875C24.0289 5.10701 23.8036 5.42353 23.6511 5.82457C23.502 6.22562 23.4274 6.67803 23.4274 7.18182C23.4274 7.69223 23.5036 8.15128 23.6561 8.55895C23.8085 8.96662 24.0339 9.28977 24.3322 9.52841C24.6338 9.76373 25.005 9.88139 25.4458 9.88139ZM31.0227 11V3.36364H32.5092V11H31.0227ZM31.7734 2.18537C31.5149 2.18537 31.2929 2.09919 31.1072 1.92685C30.925 1.75118 30.8338 1.54238 30.8338 1.30043C30.8338 1.05516 30.925 0.846354 31.1072 0.674005C31.2929 0.498342 31.5149 0.410511 31.7734 0.410511C32.032 0.410511 32.2524 0.498342 32.4347 0.674005C32.6203 0.846354 32.7131 1.05516 32.7131 1.30043C32.7131 1.54238 32.6203 1.75118 32.4347 1.92685C32.2524 2.09919 32.032 2.18537 31.7734 2.18537ZM38.0737 3.36364V4.55682H33.9025V3.36364H38.0737ZM35.0211 1.53409H36.5076V8.75781C36.5076 9.04616 36.5507 9.26326 36.6369 9.40909C36.7231 9.55161 36.8341 9.64938 36.97 9.70241C37.1092 9.75213 37.26 9.77699 37.4224 9.77699C37.5417 9.77699 37.6461 9.7687 37.7356 9.75213C37.8251 9.73556 37.8947 9.7223 37.9444 9.71236L38.2129 10.9403C38.1267 10.9735 38.0041 11.0066 37.845 11.0398C37.6859 11.0762 37.487 11.0961 37.2484 11.0994C36.8573 11.1061 36.4927 11.0365 36.1547 10.8906C35.8166 10.7448 35.5431 10.5194 35.3343 10.2145C35.1255 9.90956 35.0211 9.52675 35.0211 9.06605V1.53409ZM43.9576 6.05327V7.34091H39.4434V6.05327H43.9576ZM49.1554 11.1541C48.4163 11.1541 47.7799 10.9867 47.2463 10.652C46.716 10.3139 46.3083 9.84825 46.0233 9.25497C45.7382 8.66169 45.5957 7.98224 45.5957 7.21662C45.5957 6.44105 45.7415 5.75663 46.0332 5.16335C46.3249 4.56676 46.7359 4.10109 47.2662 3.76633C47.7965 3.43158 48.4212 3.2642 49.1404 3.2642C49.7205 3.2642 50.2375 3.37192 50.6916 3.58736C51.1457 3.79948 51.5119 4.09777 51.7903 4.48224C52.072 4.86671 52.2394 5.31581 52.2924 5.82955H50.8457C50.7662 5.47159 50.5839 5.16335 50.2988 4.90483C50.0171 4.64631 49.6393 4.51705 49.1653 4.51705C48.751 4.51705 48.3881 4.62642 48.0765 4.84517C47.7683 5.06061 47.528 5.36884 47.3556 5.76989C47.1833 6.16761 47.0971 6.63826 47.0971 7.18182C47.0971 7.73864 47.1816 8.21922 47.3507 8.62358C47.5197 9.02794 47.7583 9.34115 48.0666 9.56321C48.3781 9.78527 48.7444 9.89631 49.1653 9.89631C49.447 9.89631 49.7022 9.84493 49.9309 9.74219C50.1629 9.63613 50.3568 9.48532 50.5126 9.28977C50.6717 9.09422 50.7827 8.8589 50.8457 8.58381H52.2924C52.2394 9.07765 52.0787 9.51847 51.8102 9.90625C51.5417 10.294 51.1821 10.599 50.7314 10.821C50.2839 11.0431 49.7586 11.1541 49.1554 11.1541ZM56.1044 11.169C55.6205 11.169 55.183 11.0795 54.7919 10.9006C54.4008 10.7183 54.0909 10.4548 53.8622 10.1101C53.6368 9.76539 53.5241 9.3428 53.5241 8.84233C53.5241 8.41146 53.607 8.05682 53.7727 7.77841C53.9384 7.5 54.1622 7.27959 54.4439 7.11719C54.7256 6.95478 55.0405 6.83215 55.3885 6.74929C55.7365 6.66643 56.0911 6.60346 56.4524 6.56037C56.9098 6.50734 57.281 6.46425 57.5661 6.43111C57.8511 6.39465 58.0582 6.33665 58.1875 6.2571C58.3168 6.17756 58.3814 6.0483 58.3814 5.86932V5.83452C58.3814 5.40033 58.2588 5.06392 58.0135 4.82528C57.7715 4.58665 57.4103 4.46733 56.9297 4.46733C56.4292 4.46733 56.0348 4.57836 55.7464 4.80043C55.4614 5.01918 55.2642 5.26278 55.1548 5.53125L53.7578 5.21307C53.9235 4.74905 54.1655 4.37453 54.4837 4.08949C54.8052 3.80114 55.1747 3.59233 55.5923 3.46307C56.0099 3.33049 56.4491 3.2642 56.9098 3.2642C57.2147 3.2642 57.5379 3.30066 57.8793 3.37358C58.224 3.44318 58.5455 3.57244 58.8438 3.76136C59.1454 3.95028 59.3923 4.22041 59.5845 4.57173C59.7768 4.91974 59.8729 5.37216 59.8729 5.92898V11H58.4212V9.95597H58.3615C58.2654 10.1482 58.1212 10.3371 57.929 10.5227C57.7367 10.7083 57.4898 10.8625 57.1882 10.9851C56.8866 11.1077 56.5253 11.169 56.1044 11.169ZM56.4276 9.97585C56.8385 9.97585 57.1899 9.89465 57.4815 9.73224C57.7765 9.56984 58.0002 9.35772 58.1527 9.09588C58.3085 8.83073 58.3864 8.54735 58.3864 8.24574V7.26136C58.3333 7.31439 58.2306 7.36411 58.0781 7.41051C57.929 7.4536 57.7583 7.49171 57.5661 7.52486C57.3738 7.55469 57.1866 7.58286 57.0043 7.60938C56.822 7.63258 56.6695 7.65246 56.5469 7.66903C56.2585 7.70549 55.995 7.76681 55.7564 7.85298C55.5211 7.93916 55.3321 8.06345 55.1896 8.22585C55.0504 8.38494 54.9808 8.59706 54.9808 8.86222C54.9808 9.23011 55.1167 9.50852 55.3885 9.69744C55.6603 9.88305 56.0066 9.97585 56.4276 9.97585ZM61.8528 11V3.36364H63.2896V4.5767H63.3691C63.5083 4.16572 63.7536 3.84257 64.1049 3.60724C64.4596 3.36861 64.8606 3.24929 65.3081 3.24929C65.4009 3.24929 65.5102 3.2526 65.6362 3.25923C65.7654 3.26586 65.8665 3.27415 65.9395 3.28409V4.70597C65.8798 4.68939 65.7737 4.67116 65.6213 4.65128C65.4688 4.62808 65.3163 4.61648 65.1639 4.61648C64.8126 4.61648 64.4993 4.69105 64.2243 4.8402C63.9525 4.98603 63.737 5.18987 63.5779 5.4517C63.4189 5.71023 63.3393 6.00521 63.3393 6.33665V11H61.8528ZM69.8111 11.1491C69.1946 11.1491 68.6444 10.9917 68.1605 10.6768C67.6799 10.3587 67.3021 9.90625 67.027 9.3196C66.7552 8.72964 66.6193 8.02202 66.6193 7.19673C66.6193 6.37145 66.7569 5.66548 67.032 5.07884C67.3104 4.49219 67.6915 4.04309 68.1754 3.73153C68.6593 3.41998 69.2079 3.2642 69.821 3.2642C70.295 3.2642 70.6761 3.34375 70.9645 3.50284C71.2562 3.65862 71.4815 3.84091 71.6406 4.04972C71.803 4.25852 71.929 4.44247 72.0185 4.60156H72.108V0.818182H73.5945V11H72.1428V9.81179H72.0185C71.929 9.9742 71.7997 10.1598 71.6307 10.3686C71.465 10.5774 71.2363 10.7597 70.9446 10.9155C70.6529 11.0713 70.2751 11.1491 69.8111 11.1491ZM70.1392 9.88139C70.5668 9.88139 70.928 9.7687 71.223 9.54332C71.5213 9.31463 71.7467 8.99811 71.8991 8.59375C72.0549 8.18939 72.1328 7.71875 72.1328 7.18182C72.1328 6.65151 72.0566 6.1875 71.9041 5.78977C71.7517 5.39205 71.5279 5.08215 71.233 4.86009C70.938 4.63802 70.5734 4.52699 70.1392 4.52699C69.6918 4.52699 69.3189 4.64299 69.0206 4.875C68.7223 5.10701 68.4969 5.42353 68.3445 5.82457C68.1953 6.22562 68.1207 6.67803 68.1207 7.18182C68.1207 7.69223 68.197 8.15128 68.3494 8.55895C68.5019 8.96662 68.7273 9.28977 69.0256 9.52841C69.3272 9.76373 69.6984 9.88139 70.1392 9.88139ZM80.2154 6.05327V7.34091H75.7012V6.05327H80.2154ZM85.4877 11.1541C84.7354 11.1541 84.0874 10.9934 83.5439 10.6719C83.0036 10.3471 82.586 9.89134 82.291 9.30469C81.9993 8.71473 81.8535 8.02367 81.8535 7.23153C81.8535 6.44934 81.9993 5.75994 82.291 5.16335C82.586 4.56676 82.997 4.10109 83.524 3.76633C84.0543 3.43158 84.6741 3.2642 85.3833 3.2642C85.8142 3.2642 86.2318 3.33546 86.6362 3.47798C87.0405 3.6205 87.4035 3.84422 87.725 4.14915C88.0465 4.45407 88.3 4.85014 88.4856 5.33736C88.6712 5.82126 88.764 6.40956 88.764 7.10227V7.62926H82.6937V6.51562H87.3074C87.3074 6.12453 87.2278 5.77817 87.0687 5.47656C86.9096 5.17164 86.6859 4.93134 86.3975 4.75568C86.1125 4.58002 85.7778 4.49219 85.3933 4.49219C84.9757 4.49219 84.6111 4.59493 84.2995 4.80043C83.9913 5.0026 83.7527 5.26776 83.5836 5.59588C83.4179 5.92069 83.335 6.27367 83.335 6.65483V7.52486C83.335 8.03527 83.4245 8.46946 83.6035 8.82741C83.7858 9.18537 84.0394 9.45881 84.3642 9.64773C84.689 9.83333 85.0685 9.92614 85.5027 9.92614C85.7844 9.92614 86.0413 9.88636 86.2733 9.80682C86.5053 9.72396 86.7058 9.60133 86.8748 9.43892C87.0439 9.27652 87.1731 9.07599 87.2626 8.83736L88.6696 9.09091C88.5569 9.50521 88.3547 9.86813 88.063 10.1797C87.7747 10.4879 87.4118 10.7282 86.9743 10.9006C86.5401 11.0696 86.0446 11.1541 85.4877 11.1541ZM93.272 11.1491C92.6555 11.1491 92.1054 10.9917 91.6214 10.6768C91.1409 10.3587 90.763 9.90625 90.4879 9.3196C90.2161 8.72964 90.0803 8.02202 90.0803 7.19673C90.0803 6.37145 90.2178 5.66548 90.4929 5.07884C90.7713 4.49219 91.1525 4.04309 91.6364 3.73153C92.1203 3.41998 92.6688 3.2642 93.282 3.2642C93.7559 3.2642 94.1371 3.34375 94.4254 3.50284C94.7171 3.65862 94.9425 3.84091 95.1016 4.04972C95.264 4.25852 95.3899 4.44247 95.4794 4.60156H95.5689V0.818182H97.0554V11H95.6037V9.81179H95.4794C95.3899 9.9742 95.2607 10.1598 95.0916 10.3686C94.9259 10.5774 94.6972 10.7597 94.4055 10.9155C94.1139 11.0713 93.736 11.1491 93.272 11.1491ZM93.6001 9.88139C94.0277 9.88139 94.389 9.7687 94.6839 9.54332C94.9822 9.31463 95.2076 8.99811 95.3601 8.59375C95.5159 8.18939 95.5938 7.71875 95.5938 7.18182C95.5938 6.65151 95.5175 6.1875 95.3651 5.78977C95.2126 5.39205 94.9889 5.08215 94.6939 4.86009C94.3989 4.63802 94.0343 4.52699 93.6001 4.52699C93.1527 4.52699 92.7798 4.64299 92.4815 4.875C92.1832 5.10701 91.9579 5.42353 91.8054 5.82457C91.6563 6.22562 91.5817 6.67803 91.5817 7.18182C91.5817 7.69223 91.6579 8.15128 91.8104 8.55895C91.9628 8.96662 92.1882 9.28977 92.4865 9.52841C92.7881 9.76373 93.1593 9.88139 93.6001 9.88139ZM99.177 11V3.36364H100.664V11H99.177ZM99.9277 2.18537C99.6692 2.18537 99.4471 2.09919 99.2615 1.92685C99.0792 1.75118 98.9881 1.54238 98.9881 1.30043C98.9881 1.05516 99.0792 0.846354 99.2615 0.674005C99.4471 0.498342 99.6692 0.410511 99.9277 0.410511C100.186 0.410511 100.407 0.498342 100.589 0.674005C100.775 0.846354 100.867 1.05516 100.867 1.30043C100.867 1.54238 100.775 1.75118 100.589 1.92685C100.407 2.09919 100.186 2.18537 99.9277 2.18537ZM106.228 3.36364V4.55682H102.057V3.36364H106.228ZM103.175 1.53409H104.662V8.75781C104.662 9.04616 104.705 9.26326 104.791 9.40909C104.877 9.55161 104.988 9.64938 105.124 9.70241C105.263 9.75213 105.414 9.77699 105.577 9.77699C105.696 9.77699 105.8 9.7687 105.89 9.75213C105.979 9.73556 106.049 9.7223 106.099 9.71236L106.367 10.9403C106.281 10.9735 106.158 11.0066 105.999 11.0398C105.84 11.0762 105.641 11.0961 105.403 11.0994C105.012 11.1061 104.647 11.0365 104.309 10.8906C103.971 10.7448 103.697 10.5194 103.489 10.2145C103.28 9.90956 103.175 9.52675 103.175 9.06605V1.53409Z" fill="black"/>
</svg>
