<svg width="72" height="12" viewBox="0 0 72 12" fill="none" xmlns="http://www.w3.org/2000/svg">
<path d="M0.118608 11V0.818182H1.60511V4.60156H1.6946C1.78078 4.44247 1.90507 4.25852 2.06747 4.04972C2.22988 3.84091 2.45526 3.65862 2.74361 3.50284C3.03196 3.34375 3.41312 3.2642 3.88707 3.2642C4.50355 3.2642 5.05374 3.41998 5.53764 3.73153C6.02154 4.04309 6.40104 4.49219 6.67614 5.07884C6.95455 5.66548 7.09375 6.37145 7.09375 7.19673C7.09375 8.02202 6.9562 8.72964 6.68111 9.3196C6.40601 9.90625 6.02817 10.3587 5.54759 10.6768C5.067 10.9917 4.51847 11.1491 3.90199 11.1491C3.43797 11.1491 3.05848 11.0713 2.76349 10.9155C2.47183 10.7597 2.24313 10.5774 2.07741 10.3686C1.9117 10.1598 1.78409 9.9742 1.6946 9.81179H1.57031V11H0.118608ZM1.57528 7.18182C1.57528 7.71875 1.65317 8.18939 1.80895 8.59375C1.96473 8.99811 2.1901 9.31463 2.48509 9.54332C2.78007 9.7687 3.14134 9.88139 3.56889 9.88139C4.01302 9.88139 4.38423 9.76373 4.68253 9.52841C4.98082 9.28977 5.2062 8.96662 5.35866 8.55895C5.51444 8.15128 5.59233 7.69223 5.59233 7.18182C5.59233 6.67803 5.5161 6.22562 5.36364 5.82457C5.21449 5.42353 4.98911 5.10701 4.6875 4.875C4.3892 4.64299 4.01634 4.52699 3.56889 4.52699C3.13802 4.52699 2.77344 4.63802 2.47514 4.86009C2.18016 5.08215 1.95644 5.39205 1.80398 5.78977C1.65152 6.1875 1.57528 6.65151 1.57528 7.18182ZM12.0542 11.1541C11.3018 11.1541 10.6538 10.9934 10.1103 10.6719C9.57002 10.3471 9.1524 9.89134 8.85742 9.30469C8.56576 8.71473 8.41992 8.02367 8.41992 7.23153C8.41992 6.44934 8.56576 5.75994 8.85742 5.16335C9.1524 4.56676 9.56339 4.10109 10.0904 3.76633C10.6207 3.43158 11.2405 3.2642 11.9498 3.2642C12.3806 3.2642 12.7982 3.33546 13.2026 3.47798C13.6069 3.6205 13.9699 3.84422 14.2914 4.14915C14.6129 4.45407 14.8664 4.85014 15.052 5.33736C15.2376 5.82126 15.3304 6.40956 15.3304 7.10227V7.62926H9.26012V6.51562H13.8738C13.8738 6.12453 13.7942 5.77817 13.6351 5.47656C13.476 5.17164 13.2523 4.93134 12.964 4.75568C12.6789 4.58002 12.3442 4.49219 11.9597 4.49219C11.5421 4.49219 11.1775 4.59493 10.8659 4.80043C10.5577 5.0026 10.3191 5.26776 10.15 5.59588C9.98432 5.92069 9.90146 6.27367 9.90146 6.65483V7.52486C9.90146 8.03527 9.99094 8.46946 10.1699 8.82741C10.3522 9.18537 10.6058 9.45881 10.9306 9.64773C11.2554 9.83333 11.6349 9.92614 12.0691 9.92614C12.3508 9.92614 12.6077 9.88636 12.8397 9.80682C13.0717 9.72396 13.2722 9.60133 13.4412 9.43892C13.6103 9.27652 13.7395 9.07599 13.829 8.83736L15.236 9.09091C15.1233 9.50521 14.9211 9.86813 14.6294 10.1797C14.3411 10.4879 13.9782 10.7282 13.5407 10.9006C13.1065 11.0696 12.611 11.1541 12.0542 11.1541ZM18.4663 0.818182V11H16.9798V0.818182H18.4663ZM21.9526 0.818182V11H20.4661V0.818182H21.9526ZM28.4517 6.05327V7.34091H23.9375V6.05327H28.4517ZM33.6495 11.1541C32.9336 11.1541 32.3088 10.9901 31.7752 10.6619C31.2416 10.3338 30.8273 9.87476 30.5323 9.2848C30.2373 8.69484 30.0898 8.00544 30.0898 7.21662C30.0898 6.42448 30.2373 5.73177 30.5323 5.13849C30.8273 4.54522 31.2416 4.08452 31.7752 3.75639C32.3088 3.42827 32.9336 3.2642 33.6495 3.2642C34.3654 3.2642 34.9902 3.42827 35.5238 3.75639C36.0574 4.08452 36.4717 4.54522 36.7667 5.13849C37.0617 5.73177 37.2092 6.42448 37.2092 7.21662C37.2092 8.00544 37.0617 8.69484 36.7667 9.2848C36.4717 9.87476 36.0574 10.3338 35.5238 10.6619C34.9902 10.9901 34.3654 11.1541 33.6495 11.1541ZM33.6545 9.90625C34.1185 9.90625 34.503 9.78362 34.8079 9.53835C35.1128 9.29309 35.3382 8.96662 35.484 8.55895C35.6332 8.15128 35.7077 7.70218 35.7077 7.21165C35.7077 6.72443 35.6332 6.27699 35.484 5.86932C35.3382 5.45833 35.1128 5.12855 34.8079 4.87997C34.503 4.63139 34.1185 4.5071 33.6545 4.5071C33.1871 4.5071 32.7994 4.63139 32.4911 4.87997C32.1862 5.12855 31.9592 5.45833 31.81 5.86932C31.6642 6.27699 31.5913 6.72443 31.5913 7.21165C31.5913 7.70218 31.6642 8.15128 31.81 8.55895C31.9592 8.96662 32.1862 9.29309 32.4911 9.53835C32.7994 9.78362 33.1871 9.90625 33.6545 9.90625ZM42.5027 3.36364V4.55682H38.1873V3.36364H42.5027ZM39.3706 11V2.47869C39.3706 2.00142 39.475 1.60535 39.6838 1.29048C39.8926 0.972301 40.1693 0.735322 40.514 0.579545C40.8587 0.420454 41.2333 0.340908 41.6376 0.340908C41.9359 0.340908 42.1911 0.365767 42.4032 0.415483C42.6154 0.461884 42.7728 0.504971 42.8755 0.544744L42.5275 1.74787C42.4579 1.72798 42.3684 1.70478 42.2591 1.67827C42.1497 1.64844 42.0171 1.63352 41.8613 1.63352C41.5001 1.63352 41.2415 1.72301 41.0858 1.90199C40.9333 2.08097 40.8571 2.33949 40.8571 2.67756V11H39.3706ZM47.6706 3.36364V4.55682H43.3553V3.36364H47.6706ZM44.5385 11V2.47869C44.5385 2.00142 44.6429 1.60535 44.8517 1.29048C45.0605 0.972301 45.3373 0.735322 45.682 0.579545C46.0267 0.420454 46.4012 0.340908 46.8056 0.340908C47.1039 0.340908 47.3591 0.365767 47.5712 0.415483C47.7833 0.461884 47.9408 0.504971 48.0435 0.544744L47.6955 1.74787C47.6259 1.72798 47.5364 1.70478 47.427 1.67827C47.3176 1.64844 47.1851 1.63352 47.0293 1.63352C46.668 1.63352 46.4095 1.72301 46.2537 1.90199C46.1013 2.08097 46.025 2.33949 46.025 2.67756V11H44.5385ZM53.3482 6.05327V7.34091H48.834V6.05327H53.3482ZM58.8542 11.169C58.0687 11.1657 57.3975 10.9586 56.8407 10.5476C56.2839 10.1366 55.858 9.53835 55.563 8.75284C55.2681 7.96733 55.1206 7.02107 55.1206 5.91406C55.1206 4.81037 55.2681 3.86742 55.563 3.08523C55.8613 2.30303 56.2889 1.70644 56.8457 1.29545C57.4058 0.884469 58.0753 0.678977 58.8542 0.678977C59.6331 0.678977 60.301 0.886126 60.8578 1.30043C61.4146 1.71141 61.8405 2.308 62.1355 3.0902C62.4338 3.86908 62.5829 4.81037 62.5829 5.91406C62.5829 7.02438 62.4354 7.9723 62.1404 8.75781C61.8455 9.54001 61.4196 10.1383 60.8627 10.5526C60.3059 10.9635 59.6364 11.169 58.8542 11.169ZM58.8542 9.84162C59.5436 9.84162 60.0822 9.50521 60.47 8.83239C60.8611 8.15956 61.0566 7.18679 61.0566 5.91406C61.0566 5.06889 60.9672 4.35464 60.7882 3.77131C60.6125 3.18466 60.359 2.74053 60.0275 2.43892C59.6994 2.134 59.3083 1.98153 58.8542 1.98153C58.1681 1.98153 57.6296 2.3196 57.2385 2.99574C56.8474 3.67187 56.6502 4.64465 56.6468 5.91406C56.6468 6.76255 56.7347 7.48011 56.9103 8.06676C57.0893 8.65009 57.3429 9.09257 57.671 9.39418C57.9991 9.69247 58.3935 9.84162 58.8542 9.84162ZM67.8913 11.1392C67.2086 11.1392 66.5987 11.0215 66.0618 10.7862C65.5282 10.5509 65.1056 10.2244 64.794 9.80682C64.4858 9.38589 64.3201 8.89867 64.2969 8.34517H65.858C65.8778 8.64678 65.9789 8.90862 66.1612 9.13068C66.3468 9.34943 66.5888 9.51847 66.8871 9.63778C67.1854 9.7571 67.5168 9.81676 67.8814 9.81676C68.2824 9.81676 68.6371 9.74716 68.9453 9.60795C69.2569 9.46875 69.5005 9.27486 69.6761 9.02628C69.8518 8.77438 69.9396 8.48438 69.9396 8.15625C69.9396 7.81487 69.8518 7.51491 69.6761 7.25639C69.5038 6.99455 69.2502 6.78906 68.9155 6.63991C68.584 6.49077 68.183 6.41619 67.7124 6.41619H66.8523V5.16335H67.7124C68.0902 5.16335 68.4216 5.09541 68.7067 4.95952C68.995 4.82363 69.2204 4.63471 69.3828 4.39276C69.5452 4.14749 69.6264 3.8608 69.6264 3.53267C69.6264 3.2178 69.5552 2.94437 69.4126 2.71236C69.2734 2.47704 69.0746 2.29309 68.8161 2.16051C68.5608 2.02794 68.2592 1.96165 67.9112 1.96165C67.5798 1.96165 67.2699 2.02296 66.9815 2.1456C66.6965 2.26491 66.4645 2.43726 66.2855 2.66264C66.1065 2.88471 66.0104 3.15151 65.9972 3.46307H64.5107C64.5272 2.91288 64.6896 2.42898 64.9979 2.01136C65.3094 1.59375 65.7204 1.26728 66.2308 1.03196C66.7412 0.796638 67.308 0.678977 67.9311 0.678977C68.584 0.678977 69.1475 0.806581 69.6214 1.06179C70.0987 1.31368 70.4666 1.65009 70.7251 2.07102C70.987 2.49195 71.1162 2.95265 71.1129 3.45312C71.1162 4.0232 70.9571 4.5071 70.6357 4.90483C70.3175 5.30256 69.8932 5.56937 69.3629 5.70526V5.7848C70.0391 5.88755 70.5627 6.15601 70.9339 6.5902C71.3085 7.02438 71.4941 7.56297 71.4908 8.20597C71.4941 8.7661 71.3383 9.26823 71.0234 9.71236C70.7119 10.1565 70.286 10.5062 69.7457 10.7614C69.2055 11.0133 68.5874 11.1392 67.8913 11.1392Z" fill="black"/>
</svg>
