<svg width="83" height="14" viewBox="0 0 83 14" fill="none" xmlns="http://www.w3.org/2000/svg">
<path d="M3.22159 11.169C2.73769 11.169 2.30019 11.0795 1.90909 10.9006C1.51799 10.7183 1.2081 10.4548 0.979403 10.1101C0.754025 9.76539 0.641335 9.3428 0.641335 8.84233C0.641335 8.41146 0.724195 8.05682 0.889915 7.77841C1.05563 7.5 1.27936 7.27959 1.56108 7.11719C1.8428 6.95478 2.15767 6.83215 2.50568 6.74929C2.85369 6.66643 3.20833 6.60346 3.5696 6.56037C4.02699 6.50734 4.3982 6.46425 4.68324 6.43111C4.96828 6.39465 5.17543 6.33665 5.30469 6.2571C5.43395 6.17756 5.49858 6.0483 5.49858 5.86932V5.83452C5.49858 5.40033 5.37595 5.06392 5.13068 4.82528C4.88873 4.58665 4.52746 4.46733 4.04688 4.46733C3.5464 4.46733 3.15199 4.57836 2.86364 4.80043C2.5786 5.01918 2.38139 5.26278 2.27202 5.53125L0.875 5.21307C1.04072 4.74905 1.28267 4.37453 1.60085 4.08949C1.92235 3.80114 2.2919 3.59233 2.70952 3.46307C3.12713 3.33049 3.56629 3.2642 4.02699 3.2642C4.33191 3.2642 4.65507 3.30066 4.99645 3.37358C5.34115 3.44318 5.66264 3.57244 5.96094 3.76136C6.26255 3.95028 6.50947 4.22041 6.7017 4.57173C6.89394 4.91974 6.99006 5.37216 6.99006 5.92898V11H5.53835V9.95597H5.47869C5.38258 10.1482 5.2384 10.3371 5.04616 10.5227C4.85393 10.7083 4.60701 10.8625 4.3054 10.9851C4.00379 11.1077 3.64252 11.169 3.22159 11.169ZM3.54474 9.97585C3.95573 9.97585 4.30706 9.89465 4.59872 9.73224C4.8937 9.56984 5.11742 9.35772 5.26989 9.09588C5.42566 8.83073 5.50355 8.54735 5.50355 8.24574V7.26136C5.45052 7.31439 5.34777 7.36411 5.19531 7.41051C5.04616 7.4536 4.87547 7.49171 4.68324 7.52486C4.491 7.55469 4.30374 7.58286 4.12145 7.60938C3.93916 7.63258 3.7867 7.65246 3.66406 7.66903C3.37571 7.70549 3.11222 7.76681 2.87358 7.85298C2.63826 7.93916 2.44934 8.06345 2.30682 8.22585C2.16761 8.38494 2.09801 8.59706 2.09801 8.86222C2.09801 9.23011 2.2339 9.50852 2.50568 9.69744C2.77746 9.88305 3.12382 9.97585 3.54474 9.97585ZM10.4565 0.818182V11H8.96999V0.818182H10.4565ZM15.7475 11.1541C14.9951 11.1541 14.3472 10.9934 13.8036 10.6719C13.2634 10.3471 12.8458 9.89134 12.5508 9.30469C12.2591 8.71473 12.1133 8.02367 12.1133 7.23153C12.1133 6.44934 12.2591 5.75994 12.5508 5.16335C12.8458 4.56676 13.2567 4.10109 13.7837 3.76633C14.314 3.43158 14.9338 3.2642 15.6431 3.2642C16.074 3.2642 16.4916 3.33546 16.896 3.47798C17.3003 3.6205 17.6632 3.84422 17.9847 4.14915C18.3062 4.45407 18.5598 4.85014 18.7454 5.33736C18.931 5.82126 19.0238 6.40956 19.0238 7.10227V7.62926H12.9535V6.51562H17.5671C17.5671 6.12453 17.4876 5.77817 17.3285 5.47656C17.1694 5.17164 16.9457 4.93134 16.6573 4.75568C16.3723 4.58002 16.0375 4.49219 15.6531 4.49219C15.2354 4.49219 14.8709 4.59493 14.5593 4.80043C14.2511 5.0026 14.0124 5.26776 13.8434 5.59588C13.6777 5.92069 13.5948 6.27367 13.5948 6.65483V7.52486C13.5948 8.03527 13.6843 8.46946 13.8633 8.82741C14.0456 9.18537 14.2991 9.45881 14.6239 9.64773C14.9487 9.83333 15.3282 9.92614 15.7624 9.92614C16.0442 9.92614 16.301 9.88636 16.533 9.80682C16.765 9.72396 16.9656 9.60133 17.1346 9.43892C17.3036 9.27652 17.4329 9.07599 17.5224 8.83736L18.9293 9.09091C18.8166 9.50521 18.6145 9.86813 18.3228 10.1797C18.0344 10.4879 17.6715 10.7282 17.234 10.9006C16.7998 11.0696 16.3043 11.1541 15.7475 11.1541ZM20.6731 11V3.36364H22.1099V4.5767H22.1895C22.3287 4.16572 22.5739 3.84257 22.9252 3.60724C23.2799 3.36861 23.6809 3.24929 24.1284 3.24929C24.2212 3.24929 24.3306 3.2526 24.4565 3.25923C24.5858 3.26586 24.6868 3.27415 24.7598 3.28409V4.70597C24.7001 4.68939 24.594 4.67116 24.4416 4.65128C24.2891 4.62808 24.1367 4.61648 23.9842 4.61648C23.6329 4.61648 23.3197 4.69105 23.0446 4.8402C22.7728 4.98603 22.5574 5.18987 22.3983 5.4517C22.2392 5.71023 22.1596 6.00521 22.1596 6.33665V11H20.6731ZM30.062 3.36364V4.55682H25.8908V3.36364H30.062ZM27.0094 1.53409H28.4959V8.75781C28.4959 9.04616 28.539 9.26326 28.6252 9.40909C28.7114 9.55161 28.8224 9.64938 28.9583 9.70241C29.0975 9.75213 29.2483 9.77699 29.4107 9.77699C29.53 9.77699 29.6344 9.7687 29.7239 9.75213C29.8134 9.73556 29.883 9.7223 29.9327 9.71236L30.2012 10.9403C30.115 10.9735 29.9924 11.0066 29.8333 11.0398C29.6742 11.0762 29.4753 11.0961 29.2367 11.0994C28.8456 11.1061 28.481 11.0365 28.1429 10.8906C27.8049 10.7448 27.5314 10.5194 27.3226 10.2145C27.1138 9.90956 27.0094 9.52675 27.0094 9.06605V1.53409ZM35.9458 6.05327V7.34091H31.4316V6.05327H35.9458ZM43.6493 5.22798L42.302 5.46662C42.2457 5.29427 42.1562 5.13021 42.0336 4.97443C41.9142 4.81865 41.7518 4.69105 41.5463 4.59162C41.3409 4.49219 41.084 4.44247 40.7757 4.44247C40.3548 4.44247 40.0035 4.53693 39.7218 4.72585C39.44 4.91146 39.2992 5.15175 39.2992 5.44673C39.2992 5.70194 39.3936 5.90743 39.5826 6.06321C39.7715 6.21899 40.0764 6.34659 40.4973 6.44602L41.7104 6.72443C42.4131 6.88684 42.9367 7.13707 43.2814 7.47514C43.6261 7.81321 43.7985 8.25237 43.7985 8.79261C43.7985 9.25 43.6659 9.65767 43.4007 10.0156C43.1389 10.3703 42.7727 10.6487 42.302 10.8509C41.8347 11.053 41.2928 11.1541 40.6763 11.1541C39.8212 11.1541 39.1235 10.9718 38.5833 10.6072C38.043 10.2393 37.7116 9.71733 37.589 9.04119L39.0257 8.82244C39.1152 9.19697 39.2992 9.48035 39.5776 9.67259C39.856 9.86151 40.2189 9.95597 40.6664 9.95597C41.1536 9.95597 41.543 9.85488 41.8347 9.6527C42.1264 9.44721 42.2722 9.19697 42.2722 8.90199C42.2722 8.66335 42.1827 8.46283 42.0037 8.30043C41.8281 8.13802 41.5579 8.01539 41.1934 7.93253L39.9007 7.64915C39.1882 7.48674 38.6612 7.22822 38.3198 6.87358C37.9817 6.51894 37.8127 6.06984 37.8127 5.52628C37.8127 5.07552 37.9386 4.68111 38.1905 4.34304C38.4424 4.00497 38.7904 3.74148 39.2346 3.55256C39.6787 3.36032 40.1874 3.2642 40.7608 3.2642C41.5861 3.2642 42.2357 3.44318 42.7097 3.80114C43.1837 4.15578 43.4969 4.63139 43.6493 5.22798ZM50.5884 13.8636V9.81179H50.4989C50.4094 9.9742 50.2802 10.1598 50.1112 10.3686C49.9454 10.5774 49.7167 10.7597 49.4251 10.9155C49.1334 11.0713 48.7556 11.1491 48.2915 11.1491C47.6751 11.1491 47.1249 10.9917 46.641 10.6768C46.1604 10.3587 45.7826 9.90625 45.5075 9.3196C45.2357 8.72964 45.0998 8.02202 45.0998 7.19673C45.0998 6.37145 45.2373 5.66548 45.5124 5.07884C45.7908 4.49219 46.172 4.04309 46.6559 3.73153C47.1398 3.41998 47.6883 3.2642 48.3015 3.2642C48.7754 3.2642 49.1566 3.34375 49.445 3.50284C49.7366 3.65862 49.962 3.84091 50.1211 4.04972C50.2835 4.25852 50.4094 4.44247 50.4989 4.60156H50.6232V3.36364H52.0749V13.8636H50.5884ZM48.6197 9.88139C49.0472 9.88139 49.4085 9.7687 49.7035 9.54332C50.0018 9.31463 50.2272 8.99811 50.3796 8.59375C50.5354 8.18939 50.6133 7.71875 50.6133 7.18182C50.6133 6.65151 50.5371 6.1875 50.3846 5.78977C50.2321 5.39205 50.0084 5.08215 49.7134 4.86009C49.4184 4.63802 49.0539 4.52699 48.6197 4.52699C48.1722 4.52699 47.7994 4.64299 47.5011 4.875C47.2028 5.10701 46.9774 5.42353 46.8249 5.82457C46.6758 6.22562 46.6012 6.67803 46.6012 7.18182C46.6012 7.69223 46.6774 8.15128 46.8299 8.55895C46.9824 8.96662 47.2077 9.28977 47.506 9.52841C47.8076 9.76373 48.1789 9.88139 48.6197 9.88139ZM58.9109 7.8331V3.36364H60.4023V11H58.9407V9.67756H58.8612C58.6855 10.0852 58.4038 10.425 58.016 10.6967C57.6315 10.9652 57.1526 11.0994 56.5792 11.0994C56.0887 11.0994 55.6545 10.9917 55.2766 10.7763C54.9021 10.5575 54.6071 10.2344 54.3917 9.80682C54.1796 9.37926 54.0735 8.85062 54.0735 8.22088V3.36364H55.56V8.0419C55.56 8.56226 55.7042 8.97656 55.9925 9.2848C56.2809 9.59304 56.6554 9.74716 57.1161 9.74716C57.3945 9.74716 57.6713 9.67756 57.9464 9.53835C58.2248 9.39915 58.4551 9.18868 58.6374 8.90696C58.823 8.62524 58.9142 8.26728 58.9109 7.8331ZM64.622 11.169C64.1381 11.169 63.7006 11.0795 63.3095 10.9006C62.9184 10.7183 62.6085 10.4548 62.3798 10.1101C62.1544 9.76539 62.0417 9.3428 62.0417 8.84233C62.0417 8.41146 62.1246 8.05682 62.2903 7.77841C62.456 7.5 62.6797 7.27959 62.9615 7.11719C63.2432 6.95478 63.5581 6.83215 63.9061 6.74929C64.2541 6.66643 64.6087 6.60346 64.97 6.56037C65.4274 6.50734 65.7986 6.46425 66.0836 6.43111C66.3687 6.39465 66.5758 6.33665 66.7051 6.2571C66.8343 6.17756 66.899 6.0483 66.899 5.86932V5.83452C66.899 5.40033 66.7763 5.06392 66.5311 4.82528C66.2891 4.58665 65.9279 4.46733 65.4473 4.46733C64.9468 4.46733 64.5524 4.57836 64.264 4.80043C63.979 5.01918 63.7818 5.26278 63.6724 5.53125L62.2754 5.21307C62.4411 4.74905 62.6831 4.37453 63.0012 4.08949C63.3227 3.80114 63.6923 3.59233 64.1099 3.46307C64.5275 3.33049 64.9667 3.2642 65.4274 3.2642C65.7323 3.2642 66.0555 3.30066 66.3968 3.37358C66.7415 3.44318 67.063 3.57244 67.3613 3.76136C67.6629 3.95028 67.9099 4.22041 68.1021 4.57173C68.2943 4.91974 68.3904 5.37216 68.3904 5.92898V11H66.9387V9.95597H66.8791C66.783 10.1482 66.6388 10.3371 66.4466 10.5227C66.2543 10.7083 66.0074 10.8625 65.7058 10.9851C65.4042 11.1077 65.0429 11.169 64.622 11.169ZM64.9451 9.97585C65.3561 9.97585 65.7074 9.89465 65.9991 9.73224C66.2941 9.56984 66.5178 9.35772 66.6703 9.09588C66.8261 8.83073 66.9039 8.54735 66.9039 8.24574V7.26136C66.8509 7.31439 66.7482 7.36411 66.5957 7.41051C66.4466 7.4536 66.2759 7.49171 66.0836 7.52486C65.8914 7.55469 65.7041 7.58286 65.5218 7.60938C65.3395 7.63258 65.1871 7.65246 65.0645 7.66903C64.7761 7.70549 64.5126 7.76681 64.274 7.85298C64.0386 7.93916 63.8497 8.06345 63.7072 8.22585C63.568 8.38494 63.4984 8.59706 63.4984 8.86222C63.4984 9.23011 63.6343 9.50852 63.9061 9.69744C64.1779 9.88305 64.5242 9.97585 64.9451 9.97585ZM70.3704 11V3.36364H71.8072V4.5767H71.8867C72.0259 4.16572 72.2712 3.84257 72.6225 3.60724C72.9772 3.36861 73.3782 3.24929 73.8256 3.24929C73.9184 3.24929 74.0278 3.2526 74.1538 3.25923C74.283 3.26586 74.3841 3.27415 74.457 3.28409V4.70597C74.3974 4.68939 74.2913 4.67116 74.1388 4.65128C73.9864 4.62808 73.8339 4.61648 73.6815 4.61648C73.3301 4.61648 73.0169 4.69105 72.7418 4.8402C72.4701 4.98603 72.2546 5.18987 72.0955 5.4517C71.9364 5.71023 71.8569 6.00521 71.8569 6.33665V11H70.3704ZM78.7612 11.1541C78.0088 11.1541 77.3609 10.9934 76.8173 10.6719C76.277 10.3471 75.8594 9.89134 75.5645 9.30469C75.2728 8.71473 75.127 8.02367 75.127 7.23153C75.127 6.44934 75.2728 5.75994 75.5645 5.16335C75.8594 4.56676 76.2704 4.10109 76.7974 3.76633C77.3277 3.43158 77.9475 3.2642 78.6568 3.2642C79.0877 3.2642 79.5053 3.33546 79.9096 3.47798C80.314 3.6205 80.6769 3.84422 80.9984 4.14915C81.3199 4.45407 81.5734 4.85014 81.7591 5.33736C81.9447 5.82126 82.0375 6.40956 82.0375 7.10227V7.62926H75.9672V6.51562H80.5808C80.5808 6.12453 80.5012 5.77817 80.3422 5.47656C80.1831 5.17164 79.9593 4.93134 79.671 4.75568C79.3859 4.58002 79.0512 4.49219 78.6667 4.49219C78.2491 4.49219 77.8845 4.59493 77.573 4.80043C77.2647 5.0026 77.0261 5.26776 76.8571 5.59588C76.6913 5.92069 76.6085 6.27367 76.6085 6.65483V7.52486C76.6085 8.03527 76.698 8.46946 76.877 8.82741C77.0592 9.18537 77.3128 9.45881 77.6376 9.64773C77.9624 9.83333 78.3419 9.92614 78.7761 9.92614C79.0578 9.92614 79.3147 9.88636 79.5467 9.80682C79.7787 9.72396 79.9792 9.60133 80.1483 9.43892C80.3173 9.27652 80.4466 9.07599 80.536 8.83736L81.943 9.09091C81.8303 9.50521 81.6281 9.86813 81.3365 10.1797C81.0481 10.4879 80.6852 10.7282 80.2477 10.9006C79.8135 11.0696 79.318 11.1541 78.7612 11.1541Z" fill="black"/>
</svg>
