<svg width="141" height="15" viewBox="0 0 141 15" fill="none" xmlns="http://www.w3.org/2000/svg">
<path d="M1.4858 6.46591V11H-0.000710189V3.36364H1.42614V4.60653H1.5206C1.69626 4.20218 1.97135 3.87737 2.34588 3.6321C2.72372 3.38684 3.19934 3.2642 3.77273 3.2642C4.29309 3.2642 4.74882 3.37358 5.13991 3.59233C5.53101 3.80777 5.83428 4.12926 6.04972 4.55682C6.26515 4.98437 6.37287 5.51302 6.37287 6.14276V11H4.88636V6.32173C4.88636 5.76823 4.74219 5.3357 4.45384 5.02415C4.16548 4.70928 3.76941 4.55185 3.26562 4.55185C2.92093 4.55185 2.61435 4.62642 2.34588 4.77557C2.08073 4.92472 1.87027 5.14347 1.71449 5.43182C1.56203 5.71686 1.4858 6.06155 1.4858 6.46591ZM11.5831 11.1541C10.8672 11.1541 10.2424 10.9901 9.70881 10.6619C9.17519 10.3338 8.76089 9.87476 8.46591 9.2848C8.17093 8.69484 8.02344 8.00544 8.02344 7.21662C8.02344 6.42448 8.17093 5.73177 8.46591 5.13849C8.76089 4.54522 9.17519 4.08452 9.70881 3.75639C10.2424 3.42827 10.8672 3.2642 11.5831 3.2642C12.299 3.2642 12.9238 3.42827 13.4574 3.75639C13.991 4.08452 14.4053 4.54522 14.7003 5.13849C14.9953 5.73177 15.1428 6.42448 15.1428 7.21662C15.1428 8.00544 14.9953 8.69484 14.7003 9.2848C14.4053 9.87476 13.991 10.3338 13.4574 10.6619C12.9238 10.9901 12.299 11.1541 11.5831 11.1541ZM11.5881 9.90625C12.0521 9.90625 12.4366 9.78362 12.7415 9.53835C13.0464 9.29309 13.2718 8.96662 13.4176 8.55895C13.5668 8.15128 13.6413 7.70218 13.6413 7.21165C13.6413 6.72443 13.5668 6.27699 13.4176 5.86932C13.2718 5.45833 13.0464 5.12855 12.7415 4.87997C12.4366 4.63139 12.0521 4.5071 11.5881 4.5071C11.1207 4.5071 10.733 4.63139 10.4247 4.87997C10.1198 5.12855 9.89276 5.45833 9.74361 5.86932C9.59777 6.27699 9.52486 6.72443 9.52486 7.21165C9.52486 7.70218 9.59777 8.15128 9.74361 8.55895C9.89276 8.96662 10.1198 9.29309 10.4247 9.53835C10.733 9.78362 11.1207 9.90625 11.5881 9.90625ZM20.3667 3.36364V4.55682H16.1955V3.36364H20.3667ZM17.3141 1.53409H18.8006V8.75781C18.8006 9.04616 18.8437 9.26326 18.9299 9.40909C19.016 9.55161 19.1271 9.64938 19.263 9.70241C19.4022 9.75213 19.553 9.77699 19.7154 9.77699C19.8347 9.77699 19.9391 9.7687 20.0286 9.75213C20.1181 9.73556 20.1877 9.7223 20.2374 9.71236L20.5059 10.9403C20.4197 10.9735 20.2971 11.0066 20.138 11.0398C19.9789 11.0762 19.78 11.0961 19.5414 11.0994C19.1503 11.1061 18.7857 11.0365 18.4476 10.8906C18.1096 10.7448 17.8361 10.5194 17.6273 10.2145C17.4185 9.90956 17.3141 9.52675 17.3141 9.06605V1.53409ZM22.011 11V3.36364H23.4975V11H22.011ZM22.7617 2.18537C22.5032 2.18537 22.2811 2.09919 22.0955 1.92685C21.9132 1.75118 21.8221 1.54238 21.8221 1.30043C21.8221 1.05516 21.9132 0.846354 22.0955 0.674005C22.2811 0.498342 22.5032 0.410511 22.7617 0.410511C23.0202 0.410511 23.2406 0.498342 23.4229 0.674005C23.6085 0.846354 23.7013 1.05516 23.7013 1.30043C23.7013 1.54238 23.6085 1.75118 23.4229 1.92685C23.2406 2.09919 23.0202 2.18537 22.7617 2.18537ZM29.1316 3.36364V4.55682H24.8162V3.36364H29.1316ZM25.9995 11V2.47869C25.9995 2.00142 26.1039 1.60535 26.3127 1.29048C26.5215 0.972301 26.7982 0.735322 27.1429 0.579545C27.4876 0.420454 27.8622 0.340908 28.2665 0.340908C28.5648 0.340908 28.82 0.365767 29.0321 0.415483C29.2443 0.461884 29.4017 0.504971 29.5044 0.544744L29.1564 1.74787C29.0868 1.72798 28.9973 1.70478 28.888 1.67827C28.7786 1.64844 28.646 1.63352 28.4902 1.63352C28.129 1.63352 27.8704 1.72301 27.7147 1.90199C27.5622 2.08097 27.486 2.33949 27.486 2.67756V11H25.9995ZM30.6653 11V3.36364H32.1518V11H30.6653ZM31.416 2.18537C31.1575 2.18537 30.9354 2.09919 30.7498 1.92685C30.5675 1.75118 30.4764 1.54238 30.4764 1.30043C30.4764 1.05516 30.5675 0.846354 30.7498 0.674005C30.9354 0.498342 31.1575 0.410511 31.416 0.410511C31.6745 0.410511 31.8949 0.498342 32.0772 0.674005C32.2628 0.846354 32.3556 1.05516 32.3556 1.30043C32.3556 1.54238 32.2628 1.75118 32.0772 1.92685C31.8949 2.09919 31.6745 2.18537 31.416 2.18537ZM37.3683 11.1541C36.6291 11.1541 35.9928 10.9867 35.4592 10.652C34.9289 10.3139 34.5212 9.84825 34.2362 9.25497C33.9511 8.66169 33.8086 7.98224 33.8086 7.21662C33.8086 6.44105 33.9544 5.75663 34.2461 5.16335C34.5378 4.56676 34.9487 4.10109 35.479 3.76633C36.0094 3.43158 36.6341 3.2642 37.3533 3.2642C37.9334 3.2642 38.4504 3.37192 38.9045 3.58736C39.3585 3.79948 39.7248 4.09777 40.0032 4.48224C40.2849 4.86671 40.4523 5.31581 40.5053 5.82955H39.0586C38.979 5.47159 38.7968 5.16335 38.5117 4.90483C38.23 4.64631 37.8522 4.51705 37.3782 4.51705C36.9639 4.51705 36.601 4.62642 36.2894 4.84517C35.9812 5.06061 35.7409 5.36884 35.5685 5.76989C35.3962 6.16761 35.31 6.63826 35.31 7.18182C35.31 7.73864 35.3945 8.21922 35.5636 8.62358C35.7326 9.02794 35.9712 9.34115 36.2795 9.56321C36.591 9.78527 36.9573 9.89631 37.3782 9.89631C37.6599 9.89631 37.9151 9.84493 38.1438 9.74219C38.3758 9.63613 38.5697 9.48532 38.7255 9.28977C38.8846 9.09422 38.9956 8.8589 39.0586 8.58381H40.5053C40.4523 9.07765 40.2915 9.51847 40.0231 9.90625C39.7546 10.294 39.395 10.599 38.9442 10.821C38.4968 11.0431 37.9715 11.1541 37.3683 11.1541ZM44.3173 11.169C43.8334 11.169 43.3959 11.0795 43.0048 10.9006C42.6137 10.7183 42.3038 10.4548 42.0751 10.1101C41.8497 9.76539 41.737 9.3428 41.737 8.84233C41.737 8.41146 41.8199 8.05682 41.9856 7.77841C42.1513 7.5 42.3751 7.27959 42.6568 7.11719C42.9385 6.95478 43.2534 6.83215 43.6014 6.74929C43.9494 6.66643 44.304 6.60346 44.6653 6.56037C45.1227 6.50734 45.4939 6.46425 45.7789 6.43111C46.064 6.39465 46.2711 6.33665 46.4004 6.2571C46.5297 6.17756 46.5943 6.0483 46.5943 5.86932V5.83452C46.5943 5.40033 46.4717 5.06392 46.2264 4.82528C45.9844 4.58665 45.6232 4.46733 45.1426 4.46733C44.6421 4.46733 44.2477 4.57836 43.9593 4.80043C43.6743 5.01918 43.4771 5.26278 43.3677 5.53125L41.9707 5.21307C42.1364 4.74905 42.3784 4.37453 42.6966 4.08949C43.0181 3.80114 43.3876 3.59233 43.8052 3.46307C44.2228 3.33049 44.662 3.2642 45.1227 3.2642C45.4276 3.2642 45.7508 3.30066 46.0922 3.37358C46.4368 3.44318 46.7583 3.57244 47.0566 3.76136C47.3583 3.95028 47.6052 4.22041 47.7974 4.57173C47.9896 4.91974 48.0858 5.37216 48.0858 5.92898V11H46.6341V9.95597H46.5744C46.4783 10.1482 46.3341 10.3371 46.1419 10.5227C45.9496 10.7083 45.7027 10.8625 45.4011 10.9851C45.0995 11.1077 44.7382 11.169 44.3173 11.169ZM44.6404 9.97585C45.0514 9.97585 45.4028 9.89465 45.6944 9.73224C45.9894 9.56984 46.2131 9.35772 46.3656 9.09588C46.5214 8.83073 46.5993 8.54735 46.5993 8.24574V7.26136C46.5462 7.31439 46.4435 7.36411 46.291 7.41051C46.1419 7.4536 45.9712 7.49171 45.7789 7.52486C45.5867 7.55469 45.3994 7.58286 45.2172 7.60938C45.0349 7.63258 44.8824 7.65246 44.7598 7.66903C44.4714 7.70549 44.2079 7.76681 43.9693 7.85298C43.734 7.93916 43.545 8.06345 43.4025 8.22585C43.2633 8.38494 43.1937 8.59706 43.1937 8.86222C43.1937 9.23011 43.3296 9.50852 43.6014 9.69744C43.8732 9.88305 44.2195 9.97585 44.6404 9.97585ZM53.6303 3.36364V4.55682H49.4592V3.36364H53.6303ZM50.5778 1.53409H52.0643V8.75781C52.0643 9.04616 52.1074 9.26326 52.1935 9.40909C52.2797 9.55161 52.3907 9.64938 52.5266 9.70241C52.6658 9.75213 52.8166 9.77699 52.979 9.77699C53.0984 9.77699 53.2028 9.7687 53.2923 9.75213C53.3817 9.73556 53.4513 9.7223 53.5011 9.71236L53.7695 10.9403C53.6834 10.9735 53.5607 11.0066 53.4016 11.0398C53.2425 11.0762 53.0437 11.0961 52.805 11.0994C52.4139 11.1061 52.0494 11.0365 51.7113 10.8906C51.3732 10.7448 51.0998 10.5194 50.891 10.2145C50.6822 9.90956 50.5778 9.52675 50.5778 9.06605V1.53409ZM55.2747 11V3.36364H56.7612V11H55.2747ZM56.0254 2.18537C55.7669 2.18537 55.5448 2.09919 55.3592 1.92685C55.1769 1.75118 55.0858 1.54238 55.0858 1.30043C55.0858 1.05516 55.1769 0.846354 55.3592 0.674005C55.5448 0.498342 55.7669 0.410511 56.0254 0.410511C56.2839 0.410511 56.5043 0.498342 56.6866 0.674005C56.8722 0.846354 56.965 1.05516 56.965 1.30043C56.965 1.54238 56.8722 1.75118 56.6866 1.92685C56.5043 2.09919 56.2839 2.18537 56.0254 2.18537ZM61.9776 11.1541C61.2617 11.1541 60.637 10.9901 60.1033 10.6619C59.5697 10.3338 59.1554 9.87476 58.8604 9.2848C58.5655 8.69484 58.418 8.00544 58.418 7.21662C58.418 6.42448 58.5655 5.73177 58.8604 5.13849C59.1554 4.54522 59.5697 4.08452 60.1033 3.75639C60.637 3.42827 61.2617 3.2642 61.9776 3.2642C62.6935 3.2642 63.3183 3.42827 63.8519 3.75639C64.3855 4.08452 64.7998 4.54522 65.0948 5.13849C65.3898 5.73177 65.5373 6.42448 65.5373 7.21662C65.5373 8.00544 65.3898 8.69484 65.0948 9.2848C64.7998 9.87476 64.3855 10.3338 63.8519 10.6619C63.3183 10.9901 62.6935 11.1541 61.9776 11.1541ZM61.9826 9.90625C62.4466 9.90625 62.8311 9.78362 63.136 9.53835C63.4409 9.29309 63.6663 8.96662 63.8121 8.55895C63.9613 8.15128 64.0359 7.70218 64.0359 7.21165C64.0359 6.72443 63.9613 6.27699 63.8121 5.86932C63.6663 5.45833 63.4409 5.12855 63.136 4.87997C62.8311 4.63139 62.4466 4.5071 61.9826 4.5071C61.5153 4.5071 61.1275 4.63139 60.8192 4.87997C60.5143 5.12855 60.2873 5.45833 60.1381 5.86932C59.9923 6.27699 59.9194 6.72443 59.9194 7.21165C59.9194 7.70218 59.9923 8.15128 60.1381 8.55895C60.2873 8.96662 60.5143 9.29309 60.8192 9.53835C61.1275 9.78362 61.5153 9.90625 61.9826 9.90625ZM68.6831 6.46591V11H67.1966V3.36364H68.6234V4.60653H68.7179C68.8935 4.20218 69.1686 3.87737 69.5431 3.6321C69.921 3.38684 70.3966 3.2642 70.97 3.2642C71.4904 3.2642 71.9461 3.37358 72.3372 3.59233C72.7283 3.80777 73.0315 4.12926 73.247 4.55682C73.4624 4.98437 73.5701 5.51302 73.5701 6.14276V11H72.0836V6.32173C72.0836 5.76823 71.9395 5.3357 71.6511 5.02415C71.3627 4.70928 70.9667 4.55185 70.4629 4.55185C70.1182 4.55185 69.8116 4.62642 69.5431 4.77557C69.278 4.92472 69.0675 5.14347 68.9118 5.43182C68.7593 5.71686 68.6831 6.06155 68.6831 6.46591ZM80.063 6.05327V7.34091H75.5488V6.05327H80.063ZM82.0442 11V3.36364H83.4711V4.60653H83.5655C83.7246 4.18561 83.9848 3.85748 84.3461 3.62216C84.7073 3.38352 85.1399 3.2642 85.6436 3.2642C86.1541 3.2642 86.5816 3.38352 86.9263 3.62216C87.2743 3.8608 87.5312 4.18892 87.6969 4.60653H87.7765C87.9587 4.19886 88.2488 3.87405 88.6465 3.6321C89.0442 3.38684 89.5182 3.2642 90.0684 3.2642C90.7611 3.2642 91.3262 3.4813 91.7637 3.91548C92.2045 4.34967 92.4249 5.00426 92.4249 5.87926V11H90.9384V6.01847C90.9384 5.50142 90.7975 5.12689 90.5158 4.89489C90.2341 4.66288 89.8977 4.54688 89.5066 4.54688C89.0227 4.54688 88.6465 4.69602 88.378 4.99432C88.1096 5.2893 87.9753 5.6688 87.9753 6.13281V11H86.4938V5.92401C86.4938 5.50971 86.3645 5.17661 86.106 4.92472C85.8475 4.67282 85.5111 4.54688 85.0968 4.54688C84.815 4.54688 84.5549 4.62145 84.3162 4.7706C84.0809 4.91643 83.8903 5.12026 83.7445 5.3821C83.602 5.64394 83.5307 5.94721 83.5307 6.2919V11H82.0442ZM97.7085 11.1541C96.9561 11.1541 96.3081 10.9934 95.7646 10.6719C95.2243 10.3471 94.8067 9.89134 94.5117 9.30469C94.2201 8.71473 94.0742 8.02367 94.0742 7.23153C94.0742 6.44934 94.2201 5.75994 94.5117 5.16335C94.8067 4.56676 95.2177 4.10109 95.7447 3.76633C96.275 3.43158 96.8948 3.2642 97.604 3.2642C98.0349 3.2642 98.4525 3.33546 98.8569 3.47798C99.2612 3.6205 99.6242 3.84422 99.9457 4.14915C100.267 4.45407 100.521 4.85014 100.706 5.33736C100.892 5.82126 100.985 6.40956 100.985 7.10227V7.62926H94.9144V6.51562H99.5281C99.5281 6.12453 99.4485 5.77817 99.2894 5.47656C99.1303 5.17164 98.9066 4.93134 98.6183 4.75568C98.3332 4.58002 97.9985 4.49219 97.614 4.49219C97.1964 4.49219 96.8318 4.59493 96.5202 4.80043C96.212 5.0026 95.9734 5.26776 95.8043 5.59588C95.6386 5.92069 95.5558 6.27367 95.5558 6.65483V7.52486C95.5558 8.03527 95.6452 8.46946 95.8242 8.82741C96.0065 9.18537 96.2601 9.45881 96.5849 9.64773C96.9097 9.83333 97.2892 9.92614 97.7234 9.92614C98.0051 9.92614 98.262 9.88636 98.494 9.80682C98.726 9.72396 98.9265 9.60133 99.0955 9.43892C99.2646 9.27652 99.3938 9.07599 99.4833 8.83736L100.89 9.09091C100.778 9.50521 100.575 9.86813 100.284 10.1797C99.9954 10.4879 99.6325 10.7282 99.195 10.9006C98.7608 11.0696 98.2653 11.1541 97.7085 11.1541ZM108.356 5.22798L107.009 5.46662C106.953 5.29427 106.863 5.13021 106.741 4.97443C106.621 4.81865 106.459 4.69105 106.253 4.59162C106.048 4.49219 105.791 4.44247 105.483 4.44247C105.062 4.44247 104.711 4.53693 104.429 4.72585C104.147 4.91146 104.006 5.15175 104.006 5.44673C104.006 5.70194 104.101 5.90743 104.29 6.06321C104.479 6.21899 104.783 6.34659 105.204 6.44602L106.417 6.72443C107.12 6.88684 107.644 7.13707 107.988 7.47514C108.333 7.81321 108.506 8.25237 108.506 8.79261C108.506 9.25 108.373 9.65767 108.108 10.0156C107.846 10.3703 107.48 10.6487 107.009 10.8509C106.542 11.053 106 11.1541 105.383 11.1541C104.528 11.1541 103.831 10.9718 103.29 10.6072C102.75 10.2393 102.419 9.71733 102.296 9.04119L103.733 8.82244C103.822 9.19697 104.006 9.48035 104.285 9.67259C104.563 9.86151 104.926 9.95597 105.373 9.95597C105.861 9.95597 106.25 9.85488 106.542 9.6527C106.833 9.44721 106.979 9.19697 106.979 8.90199C106.979 8.66335 106.89 8.46283 106.711 8.30043C106.535 8.13802 106.265 8.01539 105.9 7.93253L104.608 7.64915C103.895 7.48674 103.368 7.22822 103.027 6.87358C102.689 6.51894 102.52 6.06984 102.52 5.52628C102.52 5.07552 102.646 4.68111 102.898 4.34304C103.149 4.00497 103.497 3.74148 103.942 3.55256C104.386 3.36032 104.894 3.2642 105.468 3.2642C106.293 3.2642 106.943 3.44318 107.417 3.80114C107.891 4.15578 108.204 4.63139 108.356 5.22798ZM115.862 5.22798L114.515 5.46662C114.459 5.29427 114.369 5.13021 114.246 4.97443C114.127 4.81865 113.965 4.69105 113.759 4.59162C113.554 4.49219 113.297 4.44247 112.989 4.44247C112.568 4.44247 112.216 4.53693 111.935 4.72585C111.653 4.91146 111.512 5.15175 111.512 5.44673C111.512 5.70194 111.607 5.90743 111.795 6.06321C111.984 6.21899 112.289 6.34659 112.71 6.44602L113.923 6.72443C114.626 6.88684 115.15 7.13707 115.494 7.47514C115.839 7.81321 116.011 8.25237 116.011 8.79261C116.011 9.25 115.879 9.65767 115.614 10.0156C115.352 10.3703 114.986 10.6487 114.515 10.8509C114.048 11.053 113.506 11.1541 112.889 11.1541C112.034 11.1541 111.336 10.9718 110.796 10.6072C110.256 10.2393 109.924 9.71733 109.802 9.04119L111.239 8.82244C111.328 9.19697 111.512 9.48035 111.79 9.67259C112.069 9.86151 112.432 9.95597 112.879 9.95597C113.366 9.95597 113.756 9.85488 114.048 9.6527C114.339 9.44721 114.485 9.19697 114.485 8.90199C114.485 8.66335 114.396 8.46283 114.217 8.30043C114.041 8.13802 113.771 8.01539 113.406 7.93253L112.114 7.64915C111.401 7.48674 110.874 7.22822 110.533 6.87358C110.195 6.51894 110.026 6.06984 110.026 5.52628C110.026 5.07552 110.152 4.68111 110.403 4.34304C110.655 4.00497 111.003 3.74148 111.447 3.55256C111.892 3.36032 112.4 3.2642 112.974 3.2642C113.799 3.2642 114.449 3.44318 114.923 3.80114C115.397 4.15578 115.71 4.63139 115.862 5.22798ZM119.868 11.169C119.384 11.169 118.947 11.0795 118.556 10.9006C118.164 10.7183 117.855 10.4548 117.626 10.1101C117.401 9.76539 117.288 9.3428 117.288 8.84233C117.288 8.41146 117.371 8.05682 117.536 7.77841C117.702 7.5 117.926 7.27959 118.208 7.11719C118.489 6.95478 118.804 6.83215 119.152 6.74929C119.5 6.66643 119.855 6.60346 120.216 6.56037C120.673 6.50734 121.045 6.46425 121.33 6.43111C121.615 6.39465 121.822 6.33665 121.951 6.2571C122.08 6.17756 122.145 6.0483 122.145 5.86932V5.83452C122.145 5.40033 122.022 5.06392 121.777 4.82528C121.535 4.58665 121.174 4.46733 120.693 4.46733C120.193 4.46733 119.798 4.57836 119.51 4.80043C119.225 5.01918 119.028 5.26278 118.919 5.53125L117.521 5.21307C117.687 4.74905 117.929 4.37453 118.247 4.08949C118.569 3.80114 118.938 3.59233 119.356 3.46307C119.774 3.33049 120.213 3.2642 120.673 3.2642C120.978 3.2642 121.302 3.30066 121.643 3.37358C121.988 3.44318 122.309 3.57244 122.607 3.76136C122.909 3.95028 123.156 4.22041 123.348 4.57173C123.54 4.91974 123.637 5.37216 123.637 5.92898V11H122.185V9.95597H122.125C122.029 10.1482 121.885 10.3371 121.693 10.5227C121.5 10.7083 121.253 10.8625 120.952 10.9851C120.65 11.1077 120.289 11.169 119.868 11.169ZM120.191 9.97585C120.602 9.97585 120.954 9.89465 121.245 9.73224C121.54 9.56984 121.764 9.35772 121.916 9.09588C122.072 8.83073 122.15 8.54735 122.15 8.24574V7.26136C122.097 7.31439 121.994 7.36411 121.842 7.41051C121.693 7.4536 121.522 7.49171 121.33 7.52486C121.137 7.55469 120.95 7.58286 120.768 7.60938C120.586 7.63258 120.433 7.65246 120.311 7.66903C120.022 7.70549 119.759 7.76681 119.52 7.85298C119.285 7.93916 119.096 8.06345 118.953 8.22585C118.814 8.38494 118.744 8.59706 118.744 8.86222C118.744 9.23011 118.88 9.50852 119.152 9.69744C119.424 9.88305 119.77 9.97585 120.191 9.97585ZM128.818 14.0227C128.212 14.0227 127.69 13.9432 127.252 13.7841C126.818 13.625 126.463 13.4145 126.188 13.1527C125.913 12.8909 125.708 12.6042 125.572 12.2926L126.849 11.7656C126.939 11.9115 127.058 12.0656 127.207 12.228C127.36 12.3937 127.565 12.5346 127.824 12.6506C128.086 12.7666 128.422 12.8246 128.833 12.8246C129.397 12.8246 129.862 12.687 130.23 12.4119C130.598 12.1402 130.782 11.706 130.782 11.1094V9.60795H130.688C130.598 9.77036 130.469 9.95099 130.3 10.1499C130.134 10.3487 129.905 10.5211 129.614 10.6669C129.322 10.8127 128.942 10.8857 128.475 10.8857C127.872 10.8857 127.328 10.7448 126.844 10.4631C126.364 10.178 125.983 9.75876 125.701 9.20526C125.423 8.64844 125.283 7.96401 125.283 7.15199C125.283 6.33996 125.421 5.64394 125.696 5.06392C125.974 4.4839 126.356 4.03977 126.839 3.73153C127.323 3.41998 127.872 3.2642 128.485 3.2642C128.959 3.2642 129.342 3.34375 129.634 3.50284C129.925 3.65862 130.152 3.84091 130.315 4.04972C130.48 4.25852 130.608 4.44247 130.697 4.60156H130.807V3.36364H132.263V11.169C132.263 11.8253 132.111 12.3639 131.806 12.7848C131.501 13.2057 131.089 13.5173 130.568 13.7195C130.051 13.9216 129.468 14.0227 128.818 14.0227ZM128.803 9.6527C129.231 9.6527 129.592 9.55327 129.887 9.3544C130.185 9.15223 130.411 8.86387 130.563 8.48935C130.719 8.11151 130.797 7.65909 130.797 7.1321C130.797 6.61837 130.721 6.16596 130.568 5.77486C130.416 5.38376 130.192 5.07884 129.897 4.86009C129.602 4.63802 129.237 4.52699 128.803 4.52699C128.356 4.52699 127.983 4.64299 127.685 4.875C127.386 5.10369 127.161 5.41525 127.009 5.80966C126.859 6.20407 126.785 6.64489 126.785 7.1321C126.785 7.63258 126.861 8.07173 127.013 8.44957C127.166 8.82741 127.391 9.1224 127.69 9.33452C127.991 9.54664 128.362 9.6527 128.803 9.6527ZM137.548 11.1541C136.796 11.1541 136.148 10.9934 135.604 10.6719C135.064 10.3471 134.647 9.89134 134.352 9.30469C134.06 8.71473 133.914 8.02367 133.914 7.23153C133.914 6.44934 134.06 5.75994 134.352 5.16335C134.647 4.56676 135.058 4.10109 135.585 3.76633C136.115 3.43158 136.735 3.2642 137.444 3.2642C137.875 3.2642 138.292 3.33546 138.697 3.47798C139.101 3.6205 139.464 3.84422 139.786 4.14915C140.107 4.45407 140.361 4.85014 140.546 5.33736C140.732 5.82126 140.825 6.40956 140.825 7.10227V7.62926H134.754V6.51562H139.368C139.368 6.12453 139.288 5.77817 139.129 5.47656C138.97 5.17164 138.746 4.93134 138.458 4.75568C138.173 4.58002 137.838 4.49219 137.454 4.49219C137.036 4.49219 136.672 4.59493 136.36 4.80043C136.052 5.0026 135.813 5.26776 135.644 5.59588C135.478 5.92069 135.396 6.27367 135.396 6.65483V7.52486C135.396 8.03527 135.485 8.46946 135.664 8.82741C135.846 9.18537 136.1 9.45881 136.425 9.64773C136.75 9.83333 137.129 9.92614 137.563 9.92614C137.845 9.92614 138.102 9.88636 138.334 9.80682C138.566 9.72396 138.766 9.60133 138.935 9.43892C139.104 9.27652 139.234 9.07599 139.323 8.83736L140.73 9.09091C140.617 9.50521 140.415 9.86813 140.124 10.1797C139.835 10.4879 139.472 10.7282 139.035 10.9006C138.601 11.0696 138.105 11.1541 137.548 11.1541Z" fill="black"/>
</svg>
