<svg width="73" height="12" viewBox="0 0 73 12" fill="none" xmlns="http://www.w3.org/2000/svg">
<path d="M3.22159 11.169C2.73769 11.169 2.30019 11.0795 1.90909 10.9006C1.51799 10.7183 1.2081 10.4548 0.979403 10.1101C0.754025 9.76539 0.641335 9.3428 0.641335 8.84233C0.641335 8.41146 0.724195 8.05682 0.889915 7.77841C1.05563 7.5 1.27936 7.27959 1.56108 7.11719C1.8428 6.95478 2.15767 6.83215 2.50568 6.74929C2.85369 6.66643 3.20833 6.60346 3.5696 6.56037C4.02699 6.50734 4.3982 6.46425 4.68324 6.43111C4.96828 6.39465 5.17543 6.33665 5.30469 6.2571C5.43395 6.17756 5.49858 6.0483 5.49858 5.86932V5.83452C5.49858 5.40033 5.37595 5.06392 5.13068 4.82528C4.88873 4.58665 4.52746 4.46733 4.04688 4.46733C3.5464 4.46733 3.15199 4.57836 2.86364 4.80043C2.5786 5.01918 2.38139 5.26278 2.27202 5.53125L0.875 5.21307C1.04072 4.74905 1.28267 4.37453 1.60085 4.08949C1.92235 3.80114 2.2919 3.59233 2.70952 3.46307C3.12713 3.33049 3.56629 3.2642 4.02699 3.2642C4.33191 3.2642 4.65507 3.30066 4.99645 3.37358C5.34115 3.44318 5.66264 3.57244 5.96094 3.76136C6.26255 3.95028 6.50947 4.22041 6.7017 4.57173C6.89394 4.91974 6.99006 5.37216 6.99006 5.92898V11H5.53835V9.95597H5.47869C5.38258 10.1482 5.2384 10.3371 5.04616 10.5227C4.85393 10.7083 4.60701 10.8625 4.3054 10.9851C4.00379 11.1077 3.64252 11.169 3.22159 11.169ZM3.54474 9.97585C3.95573 9.97585 4.30706 9.89465 4.59872 9.73224C4.8937 9.56984 5.11742 9.35772 5.26989 9.09588C5.42566 8.83073 5.50355 8.54735 5.50355 8.24574V7.26136C5.45052 7.31439 5.34777 7.36411 5.19531 7.41051C5.04616 7.4536 4.87547 7.49171 4.68324 7.52486C4.491 7.55469 4.30374 7.58286 4.12145 7.60938C3.93916 7.63258 3.7867 7.65246 3.66406 7.66903C3.37571 7.70549 3.11222 7.76681 2.87358 7.85298C2.63826 7.93916 2.44934 8.06345 2.30682 8.22585C2.16761 8.38494 2.09801 8.59706 2.09801 8.86222C2.09801 9.23011 2.2339 9.50852 2.50568 9.69744C2.77746 9.88305 3.12382 9.97585 3.54474 9.97585ZM10.4565 0.818182V11H8.96999V0.818182H10.4565ZM15.7475 11.1541C14.9951 11.1541 14.3472 10.9934 13.8036 10.6719C13.2634 10.3471 12.8458 9.89134 12.5508 9.30469C12.2591 8.71473 12.1133 8.02367 12.1133 7.23153C12.1133 6.44934 12.2591 5.75994 12.5508 5.16335C12.8458 4.56676 13.2567 4.10109 13.7837 3.76633C14.314 3.43158 14.9338 3.2642 15.6431 3.2642C16.074 3.2642 16.4916 3.33546 16.896 3.47798C17.3003 3.6205 17.6632 3.84422 17.9847 4.14915C18.3062 4.45407 18.5598 4.85014 18.7454 5.33736C18.931 5.82126 19.0238 6.40956 19.0238 7.10227V7.62926H12.9535V6.51562H17.5671C17.5671 6.12453 17.4876 5.77817 17.3285 5.47656C17.1694 5.17164 16.9457 4.93134 16.6573 4.75568C16.3723 4.58002 16.0375 4.49219 15.6531 4.49219C15.2354 4.49219 14.8709 4.59493 14.5593 4.80043C14.2511 5.0026 14.0124 5.26776 13.8434 5.59588C13.6777 5.92069 13.5948 6.27367 13.5948 6.65483V7.52486C13.5948 8.03527 13.6843 8.46946 13.8633 8.82741C14.0456 9.18537 14.2991 9.45881 14.6239 9.64773C14.9487 9.83333 15.3282 9.92614 15.7624 9.92614C16.0442 9.92614 16.301 9.88636 16.533 9.80682C16.765 9.72396 16.9656 9.60133 17.1346 9.43892C17.3036 9.27652 17.4329 9.07599 17.5224 8.83736L18.9293 9.09091C18.8166 9.50521 18.6145 9.86813 18.3228 10.1797C18.0344 10.4879 17.6715 10.7282 17.234 10.9006C16.7998 11.0696 16.3043 11.1541 15.7475 11.1541ZM20.6731 11V3.36364H22.1099V4.5767H22.1895C22.3287 4.16572 22.5739 3.84257 22.9252 3.60724C23.2799 3.36861 23.6809 3.24929 24.1284 3.24929C24.2212 3.24929 24.3306 3.2526 24.4565 3.25923C24.5858 3.26586 24.6868 3.27415 24.7598 3.28409V4.70597C24.7001 4.68939 24.594 4.67116 24.4416 4.65128C24.2891 4.62808 24.1367 4.61648 23.9842 4.61648C23.6329 4.61648 23.3197 4.69105 23.0446 4.8402C22.7728 4.98603 22.5574 5.18987 22.3983 5.4517C22.2392 5.71023 22.1596 6.00521 22.1596 6.33665V11H20.6731ZM30.062 3.36364V4.55682H25.8908V3.36364H30.062ZM27.0094 1.53409H28.4959V8.75781C28.4959 9.04616 28.539 9.26326 28.6252 9.40909C28.7114 9.55161 28.8224 9.64938 28.9583 9.70241C29.0975 9.75213 29.2483 9.77699 29.4107 9.77699C29.53 9.77699 29.6344 9.7687 29.7239 9.75213C29.8134 9.73556 29.883 9.7223 29.9327 9.71236L30.2012 10.9403C30.115 10.9735 29.9924 11.0066 29.8333 11.0398C29.6742 11.0762 29.4753 11.0961 29.2367 11.0994C28.8456 11.1061 28.481 11.0365 28.1429 10.8906C27.8049 10.7448 27.5314 10.5194 27.3226 10.2145C27.1138 9.90956 27.0094 9.52675 27.0094 9.06605V1.53409ZM35.9458 6.05327V7.34091H31.4316V6.05327H35.9458ZM41.1436 11.1541C40.4045 11.1541 39.7682 10.9867 39.2346 10.652C38.7042 10.3139 38.2966 9.84825 38.0115 9.25497C37.7265 8.66169 37.584 7.98224 37.584 7.21662C37.584 6.44105 37.7298 5.75663 38.0215 5.16335C38.3132 4.56676 38.7241 4.10109 39.2544 3.76633C39.7847 3.43158 40.4095 3.2642 41.1287 3.2642C41.7087 3.2642 42.2258 3.37192 42.6799 3.58736C43.1339 3.79948 43.5002 4.09777 43.7786 4.48224C44.0603 4.86671 44.2277 5.31581 44.2807 5.82955H42.834C42.7544 5.47159 42.5721 5.16335 42.2871 4.90483C42.0054 4.64631 41.6275 4.51705 41.1536 4.51705C40.7393 4.51705 40.3764 4.62642 40.0648 4.84517C39.7566 5.06061 39.5163 5.36884 39.3439 5.76989C39.1716 6.16761 39.0854 6.63826 39.0854 7.18182C39.0854 7.73864 39.1699 8.21922 39.339 8.62358C39.508 9.02794 39.7466 9.34115 40.0549 9.56321C40.3664 9.78527 40.7327 9.89631 41.1536 9.89631C41.4353 9.89631 41.6905 9.84493 41.9192 9.74219C42.1512 9.63613 42.3451 9.48532 42.5009 9.28977C42.66 9.09422 42.771 8.8589 42.834 8.58381H44.2807C44.2277 9.07765 44.0669 9.51847 43.7985 9.90625C43.53 10.294 43.1704 10.599 42.7196 10.821C42.2722 11.0431 41.7469 11.1541 41.1436 11.1541ZM45.8704 11V3.36364H47.3569V11H45.8704ZM46.6211 2.18537C46.3626 2.18537 46.1405 2.09919 45.9549 1.92685C45.7726 1.75118 45.6815 1.54238 45.6815 1.30043C45.6815 1.05516 45.7726 0.846354 45.9549 0.674005C46.1405 0.498342 46.3626 0.410511 46.6211 0.410511C46.8796 0.410511 47.1 0.498342 47.2823 0.674005C47.4679 0.846354 47.5607 1.05516 47.5607 1.30043C47.5607 1.54238 47.4679 1.75118 47.2823 1.92685C47.1 2.09919 46.8796 2.18537 46.6211 2.18537ZM49.3567 11V3.36364H50.7935V4.5767H50.873C51.0123 4.16572 51.2575 3.84257 51.6088 3.60724C51.9635 3.36861 52.3645 3.24929 52.812 3.24929C52.9048 3.24929 53.0141 3.2526 53.1401 3.25923C53.2694 3.26586 53.3704 3.27415 53.4434 3.28409V4.70597C53.3837 4.68939 53.2776 4.67116 53.1252 4.65128C52.9727 4.62808 52.8203 4.61648 52.6678 4.61648C52.3165 4.61648 52.0033 4.69105 51.7282 4.8402C51.4564 4.98603 51.2409 5.18987 51.0819 5.4517C50.9228 5.71023 50.8432 6.00521 50.8432 6.33665V11H49.3567ZM57.6729 11.1541C56.9338 11.1541 56.2975 10.9867 55.7638 10.652C55.2335 10.3139 54.8259 9.84825 54.5408 9.25497C54.2558 8.66169 54.1133 7.98224 54.1133 7.21662C54.1133 6.44105 54.2591 5.75663 54.5508 5.16335C54.8424 4.56676 55.2534 4.10109 55.7837 3.76633C56.314 3.43158 56.9388 3.2642 57.658 3.2642C58.238 3.2642 58.7551 3.37192 59.2092 3.58736C59.6632 3.79948 60.0295 4.09777 60.3079 4.48224C60.5896 4.86671 60.757 5.31581 60.81 5.82955H59.3633C59.2837 5.47159 59.1014 5.16335 58.8164 4.90483C58.5347 4.64631 58.1568 4.51705 57.6829 4.51705C57.2686 4.51705 56.9057 4.62642 56.5941 4.84517C56.2859 5.06061 56.0456 5.36884 55.8732 5.76989C55.7009 6.16761 55.6147 6.63826 55.6147 7.18182C55.6147 7.73864 55.6992 8.21922 55.8683 8.62358C56.0373 9.02794 56.2759 9.34115 56.5842 9.56321C56.8957 9.78527 57.262 9.89631 57.6829 9.89631C57.9646 9.89631 58.2198 9.84493 58.4485 9.74219C58.6805 9.63613 58.8744 9.48532 59.0302 9.28977C59.1893 9.09422 59.3003 8.8589 59.3633 8.58381H60.81C60.757 9.07765 60.5962 9.51847 60.3278 9.90625C60.0593 10.294 59.6997 10.599 59.2489 10.821C58.8015 11.0431 58.2762 11.1541 57.6729 11.1541ZM63.8862 0.818182V11H62.3997V0.818182H63.8862ZM69.1772 11.1541C68.4248 11.1541 67.7769 10.9934 67.2333 10.6719C66.6931 10.3471 66.2754 9.89134 65.9805 9.30469C65.6888 8.71473 65.543 8.02367 65.543 7.23153C65.543 6.44934 65.6888 5.75994 65.9805 5.16335C66.2754 4.56676 66.6864 4.10109 67.2134 3.76633C67.7437 3.43158 68.3635 3.2642 69.0728 3.2642C69.5037 3.2642 69.9213 3.33546 70.3256 3.47798C70.73 3.6205 71.0929 3.84422 71.4144 4.14915C71.7359 4.45407 71.9895 4.85014 72.1751 5.33736C72.3607 5.82126 72.4535 6.40956 72.4535 7.10227V7.62926H66.3832V6.51562H70.9968C70.9968 6.12453 70.9173 5.77817 70.7582 5.47656C70.5991 5.17164 70.3754 4.93134 70.087 4.75568C69.802 4.58002 69.4672 4.49219 69.0827 4.49219C68.6651 4.49219 68.3005 4.59493 67.989 4.80043C67.6808 5.0026 67.4421 5.26776 67.2731 5.59588C67.1074 5.92069 67.0245 6.27367 67.0245 6.65483V7.52486C67.0245 8.03527 67.114 8.46946 67.293 8.82741C67.4753 9.18537 67.7288 9.45881 68.0536 9.64773C68.3784 9.83333 68.7579 9.92614 69.1921 9.92614C69.4738 9.92614 69.7307 9.88636 69.9627 9.80682C70.1947 9.72396 70.3952 9.60133 70.5643 9.43892C70.7333 9.27652 70.8626 9.07599 70.9521 8.83736L72.359 9.09091C72.2463 9.50521 72.0442 9.86813 71.7525 10.1797C71.4641 10.4879 71.1012 10.7282 70.6637 10.9006C70.2295 11.0696 69.734 11.1541 69.1772 11.1541Z" fill="black"/>
</svg>
