<svg width="94" height="12" viewBox="0 0 94 12" fill="none" xmlns="http://www.w3.org/2000/svg">
<path d="M4.56392 3.36364V4.55682H0.392756V3.36364H4.56392ZM1.51136 1.53409H2.99787V8.75781C2.99787 9.04616 3.04096 9.26326 3.12713 9.40909C3.21331 9.55161 3.32434 9.64938 3.46023 9.70241C3.59943 9.75213 3.75024 9.77699 3.91264 9.77699C4.03196 9.77699 4.13636 9.7687 4.22585 9.75213C4.31534 9.73556 4.38494 9.7223 4.43466 9.71236L4.70312 10.9403C4.61695 10.9735 4.49432 11.0066 4.33523 11.0398C4.17614 11.0762 3.97727 11.0961 3.73864 11.0994C3.34754 11.1061 2.98295 11.0365 2.64489 10.8906C2.30682 10.7448 2.03338 10.5194 1.82457 10.2145C1.61577 9.90956 1.51136 9.52675 1.51136 9.06605V1.53409ZM7.85884 6.46591V11H6.37234V0.818182H7.83896V4.60653H7.93342C8.11239 4.19555 8.38583 3.86908 8.75373 3.62713C9.12163 3.38518 9.60221 3.2642 10.1955 3.2642C10.7192 3.2642 11.1766 3.37192 11.5676 3.58736C11.9621 3.80279 12.267 4.12429 12.4824 4.55185C12.7012 4.97609 12.8105 5.50639 12.8105 6.14276V11H11.324V6.32173C11.324 5.7616 11.1799 5.32741 10.8915 5.01918C10.6032 4.70762 10.2021 4.55185 9.68839 4.55185C9.33706 4.55185 9.02219 4.62642 8.74379 4.77557C8.46869 4.92472 8.2516 5.14347 8.09251 5.43182C7.93673 5.71686 7.85884 6.06155 7.85884 6.46591ZM19.6316 7.8331V3.36364H21.123V11H19.6614V9.67756H19.5819C19.4062 10.0852 19.1245 10.425 18.7367 10.6967C18.3522 10.9652 17.8733 11.0994 17.2999 11.0994C16.8094 11.0994 16.3752 10.9917 15.9973 10.7763C15.6228 10.5575 15.3278 10.2344 15.1124 9.80682C14.9003 9.37926 14.7942 8.85062 14.7942 8.22088V3.36364H16.2807V8.0419C16.2807 8.56226 16.4249 8.97656 16.7132 9.2848C17.0016 9.59304 17.3761 9.74716 17.8368 9.74716C18.1152 9.74716 18.392 9.67756 18.6671 9.53835C18.9455 9.39915 19.1758 9.18868 19.3581 8.90696C19.5437 8.62524 19.6349 8.26728 19.6316 7.8331ZM23.1204 11V3.36364H24.5472V4.60653H24.6417C24.8008 4.18561 25.061 3.85748 25.4222 3.62216C25.7835 3.38352 26.216 3.2642 26.7198 3.2642C27.2302 3.2642 27.6578 3.38352 28.0025 3.62216C28.3505 3.8608 28.6074 4.18892 28.7731 4.60653H28.8526C29.0349 4.19886 29.3249 3.87405 29.7227 3.6321C30.1204 3.38684 30.5943 3.2642 31.1445 3.2642C31.8372 3.2642 32.4023 3.4813 32.8398 3.91548C33.2807 4.34967 33.5011 5.00426 33.5011 5.87926V11H32.0146V6.01847C32.0146 5.50142 31.8737 5.12689 31.592 4.89489C31.3103 4.66288 30.9738 4.54688 30.5827 4.54688C30.0988 4.54688 29.7227 4.69602 29.4542 4.99432C29.1857 5.2893 29.0515 5.6688 29.0515 6.13281V11H27.57V5.92401C27.57 5.50971 27.4407 5.17661 27.1822 4.92472C26.9237 4.67282 26.5872 4.54688 26.1729 4.54688C25.8912 4.54688 25.631 4.62145 25.3924 4.7706C25.1571 4.91643 24.9665 5.12026 24.8207 5.3821C24.6781 5.64394 24.6069 5.94721 24.6069 6.2919V11H23.1204ZM35.6127 11V0.818182H37.0993V4.60156H37.1887C37.2749 4.44247 37.3992 4.25852 37.5616 4.04972C37.724 3.84091 37.9494 3.65862 38.2377 3.50284C38.5261 3.34375 38.9073 3.2642 39.3812 3.2642C39.9977 3.2642 40.5479 3.41998 41.0318 3.73153C41.5157 4.04309 41.8952 4.49219 42.1703 5.07884C42.4487 5.66548 42.5879 6.37145 42.5879 7.19673C42.5879 8.02202 42.4503 8.72964 42.1752 9.3196C41.9002 9.90625 41.5223 10.3587 41.0417 10.6768C40.5611 10.9917 40.0126 11.1491 39.3961 11.1491C38.9321 11.1491 38.5526 11.0713 38.2576 10.9155C37.966 10.7597 37.7373 10.5774 37.5716 10.3686C37.4058 10.1598 37.2782 9.9742 37.1887 9.81179H37.0645V11H35.6127ZM37.0694 7.18182C37.0694 7.71875 37.1473 8.18939 37.3031 8.59375C37.4589 8.99811 37.6842 9.31463 37.9792 9.54332C38.2742 9.7687 38.6355 9.88139 39.063 9.88139C39.5072 9.88139 39.8784 9.76373 40.1767 9.52841C40.475 9.28977 40.7003 8.96662 40.8528 8.55895C41.0086 8.15128 41.0865 7.69223 41.0865 7.18182C41.0865 6.67803 41.0102 6.22562 40.8578 5.82457C40.7086 5.42353 40.4833 5.10701 40.1816 4.875C39.8833 4.64299 39.5105 4.52699 39.063 4.52699C38.6322 4.52699 38.2676 4.63802 37.9693 4.86009C37.6743 5.08215 37.4506 5.39205 37.2981 5.78977C37.1457 6.1875 37.0694 6.65151 37.0694 7.18182ZM49.9794 5.22798L48.6321 5.46662C48.5758 5.29427 48.4863 5.13021 48.3636 4.97443C48.2443 4.81865 48.0819 4.69105 47.8764 4.59162C47.6709 4.49219 47.4141 4.44247 47.1058 4.44247C46.6849 4.44247 46.3336 4.53693 46.0518 4.72585C45.7701 4.91146 45.6293 5.15175 45.6293 5.44673C45.6293 5.70194 45.7237 5.90743 45.9126 6.06321C46.1016 6.21899 46.4065 6.34659 46.8274 6.44602L48.0405 6.72443C48.7431 6.88684 49.2668 7.13707 49.6115 7.47514C49.9562 7.81321 50.1286 8.25237 50.1286 8.79261C50.1286 9.25 49.996 9.65767 49.7308 10.0156C49.469 10.3703 49.1027 10.6487 48.6321 10.8509C48.1648 11.053 47.6229 11.1541 47.0064 11.1541C46.1513 11.1541 45.4536 10.9718 44.9134 10.6072C44.3731 10.2393 44.0417 9.71733 43.919 9.04119L45.3558 8.82244C45.4453 9.19697 45.6293 9.48035 45.9077 9.67259C46.1861 9.86151 46.549 9.95597 46.9964 9.95597C47.4837 9.95597 47.8731 9.85488 48.1648 9.6527C48.4564 9.44721 48.6023 9.19697 48.6023 8.90199C48.6023 8.66335 48.5128 8.46283 48.3338 8.30043C48.1581 8.13802 47.888 8.01539 47.5234 7.93253L46.2308 7.64915C45.5182 7.48674 44.9912 7.22822 44.6499 6.87358C44.3118 6.51894 44.1428 6.06984 44.1428 5.52628C44.1428 5.07552 44.2687 4.68111 44.5206 4.34304C44.7725 4.00497 45.1205 3.74148 45.5646 3.55256C46.0088 3.36032 46.5175 3.2642 47.0909 3.2642C47.9162 3.2642 48.5658 3.44318 49.0398 3.80114C49.5137 4.15578 49.8269 4.63139 49.9794 5.22798ZM56.2623 6.05327V7.34091H51.748V6.05327H56.2623ZM61.1021 11.1491C60.4856 11.1491 59.9354 10.9917 59.4515 10.6768C58.9709 10.3587 58.5931 9.90625 58.318 9.3196C58.0462 8.72964 57.9103 8.02202 57.9103 7.19673C57.9103 6.37145 58.0479 5.66548 58.323 5.07884C58.6014 4.49219 58.9825 4.04309 59.4664 3.73153C59.9503 3.41998 60.4989 3.2642 61.112 3.2642C61.586 3.2642 61.9672 3.34375 62.2555 3.50284C62.5472 3.65862 62.7725 3.84091 62.9316 4.04972C63.094 4.25852 63.22 4.44247 63.3095 4.60156H63.399V0.818182H64.8855V11H63.4338V9.81179H63.3095C63.22 9.9742 63.0907 10.1598 62.9217 10.3686C62.756 10.5774 62.5273 10.7597 62.2356 10.9155C61.944 11.0713 61.5661 11.1491 61.1021 11.1491ZM61.4302 9.88139C61.8578 9.88139 62.219 9.7687 62.514 9.54332C62.8123 9.31463 63.0377 8.99811 63.1902 8.59375C63.3459 8.18939 63.4238 7.71875 63.4238 7.18182C63.4238 6.65151 63.3476 6.1875 63.1951 5.78977C63.0427 5.39205 62.819 5.08215 62.524 4.86009C62.229 4.63802 61.8644 4.52699 61.4302 4.52699C60.9828 4.52699 60.6099 4.64299 60.3116 4.875C60.0133 5.10701 59.7879 5.42353 59.6355 5.82457C59.4863 6.22562 59.4118 6.67803 59.4118 7.18182C59.4118 7.69223 59.488 8.15128 59.6404 8.55895C59.7929 8.96662 60.0183 9.28977 60.3166 9.52841C60.6182 9.76373 60.9894 9.88139 61.4302 9.88139ZM70.2237 11.1541C69.5078 11.1541 68.883 10.9901 68.3494 10.6619C67.8158 10.3338 67.4015 9.87476 67.1065 9.2848C66.8116 8.69484 66.6641 8.00544 66.6641 7.21662C66.6641 6.42448 66.8116 5.73177 67.1065 5.13849C67.4015 4.54522 67.8158 4.08452 68.3494 3.75639C68.883 3.42827 69.5078 3.2642 70.2237 3.2642C70.9396 3.2642 71.5644 3.42827 72.098 3.75639C72.6316 4.08452 73.0459 4.54522 73.3409 5.13849C73.6359 5.73177 73.7834 6.42448 73.7834 7.21662C73.7834 8.00544 73.6359 8.69484 73.3409 9.2848C73.0459 9.87476 72.6316 10.3338 72.098 10.6619C71.5644 10.9901 70.9396 11.1541 70.2237 11.1541ZM70.2287 9.90625C70.6927 9.90625 71.0772 9.78362 71.3821 9.53835C71.687 9.29309 71.9124 8.96662 72.0582 8.55895C72.2074 8.15128 72.282 7.70218 72.282 7.21165C72.282 6.72443 72.2074 6.27699 72.0582 5.86932C71.9124 5.45833 71.687 5.12855 71.3821 4.87997C71.0772 4.63139 70.6927 4.5071 70.2287 4.5071C69.7614 4.5071 69.3736 4.63139 69.0653 4.87997C68.7604 5.12855 68.5334 5.45833 68.3842 5.86932C68.2384 6.27699 68.1655 6.72443 68.1655 7.21165C68.1655 7.70218 68.2384 8.15128 68.3842 8.55895C68.5334 8.96662 68.7604 9.29309 69.0653 9.53835C69.3736 9.78362 69.7614 9.90625 70.2287 9.90625ZM76.8658 11L74.6186 3.36364H76.1548L77.6513 8.97159H77.7259L79.2273 3.36364H80.7635L82.255 8.94673H82.3295L83.8161 3.36364H85.3523L83.1101 11H81.5938L80.0426 5.48651H79.9283L78.3771 11H76.8658ZM88.2495 6.46591V11H86.763V3.36364H88.1898V4.60653H88.2843C88.4599 4.20218 88.735 3.87737 89.1096 3.6321C89.4874 3.38684 89.963 3.2642 90.5364 3.2642C91.0568 3.2642 91.5125 3.37358 91.9036 3.59233C92.2947 3.80777 92.598 4.12926 92.8134 4.55682C93.0288 4.98437 93.1365 5.51302 93.1365 6.14276V11H91.65V6.32173C91.65 5.76823 91.5059 5.3357 91.2175 5.02415C90.9292 4.70928 90.5331 4.55185 90.0293 4.55185C89.6846 4.55185 89.378 4.62642 89.1096 4.77557C88.8444 4.92472 88.6339 5.14347 88.4782 5.43182C88.3257 5.71686 88.2495 6.06155 88.2495 6.46591Z" fill="black"/>
</svg>
