<svg width="94" height="15" viewBox="0 0 94 15" fill="none" xmlns="http://www.w3.org/2000/svg">
<path d="M3.22159 11.169C2.73769 11.169 2.30019 11.0795 1.90909 10.9006C1.51799 10.7183 1.2081 10.4548 0.979403 10.1101C0.754025 9.76539 0.641335 9.3428 0.641335 8.84233C0.641335 8.41146 0.724195 8.05682 0.889915 7.77841C1.05563 7.5 1.27936 7.27959 1.56108 7.11719C1.8428 6.95478 2.15767 6.83215 2.50568 6.74929C2.85369 6.66643 3.20833 6.60346 3.5696 6.56037C4.02699 6.50734 4.3982 6.46425 4.68324 6.43111C4.96828 6.39465 5.17543 6.33665 5.30469 6.2571C5.43395 6.17756 5.49858 6.0483 5.49858 5.86932V5.83452C5.49858 5.40033 5.37595 5.06392 5.13068 4.82528C4.88873 4.58665 4.52746 4.46733 4.04688 4.46733C3.5464 4.46733 3.15199 4.57836 2.86364 4.80043C2.5786 5.01918 2.38139 5.26278 2.27202 5.53125L0.875 5.21307C1.04072 4.74905 1.28267 4.37453 1.60085 4.08949C1.92235 3.80114 2.2919 3.59233 2.70952 3.46307C3.12713 3.33049 3.56629 3.2642 4.02699 3.2642C4.33191 3.2642 4.65507 3.30066 4.99645 3.37358C5.34115 3.44318 5.66264 3.57244 5.96094 3.76136C6.26255 3.95028 6.50947 4.22041 6.7017 4.57173C6.89394 4.91974 6.99006 5.37216 6.99006 5.92898V11H5.53835V9.95597H5.47869C5.38258 10.1482 5.2384 10.3371 5.04616 10.5227C4.85393 10.7083 4.60701 10.8625 4.3054 10.9851C4.00379 11.1077 3.64252 11.169 3.22159 11.169ZM3.54474 9.97585C3.95573 9.97585 4.30706 9.89465 4.59872 9.73224C4.8937 9.56984 5.11742 9.35772 5.26989 9.09588C5.42566 8.83073 5.50355 8.54735 5.50355 8.24574V7.26136C5.45052 7.31439 5.34777 7.36411 5.19531 7.41051C5.04616 7.4536 4.87547 7.49171 4.68324 7.52486C4.491 7.55469 4.30374 7.58286 4.12145 7.60938C3.93916 7.63258 3.7867 7.65246 3.66406 7.66903C3.37571 7.70549 3.11222 7.76681 2.87358 7.85298C2.63826 7.93916 2.44934 8.06345 2.30682 8.22585C2.16761 8.38494 2.09801 8.59706 2.09801 8.86222C2.09801 9.23011 2.2339 9.50852 2.50568 9.69744C2.77746 9.88305 3.12382 9.97585 3.54474 9.97585ZM10.4565 0.818182V11H8.96999V0.818182H10.4565ZM15.7475 11.1541C14.9951 11.1541 14.3472 10.9934 13.8036 10.6719C13.2634 10.3471 12.8458 9.89134 12.5508 9.30469C12.2591 8.71473 12.1133 8.02367 12.1133 7.23153C12.1133 6.44934 12.2591 5.75994 12.5508 5.16335C12.8458 4.56676 13.2567 4.10109 13.7837 3.76633C14.314 3.43158 14.9338 3.2642 15.6431 3.2642C16.074 3.2642 16.4916 3.33546 16.896 3.47798C17.3003 3.6205 17.6632 3.84422 17.9847 4.14915C18.3062 4.45407 18.5598 4.85014 18.7454 5.33736C18.931 5.82126 19.0238 6.40956 19.0238 7.10227V7.62926H12.9535V6.51562H17.5671C17.5671 6.12453 17.4876 5.77817 17.3285 5.47656C17.1694 5.17164 16.9457 4.93134 16.6573 4.75568C16.3723 4.58002 16.0375 4.49219 15.6531 4.49219C15.2354 4.49219 14.8709 4.59493 14.5593 4.80043C14.2511 5.0026 14.0124 5.26776 13.8434 5.59588C13.6777 5.92069 13.5948 6.27367 13.5948 6.65483V7.52486C13.5948 8.03527 13.6843 8.46946 13.8633 8.82741C14.0456 9.18537 14.2991 9.45881 14.6239 9.64773C14.9487 9.83333 15.3282 9.92614 15.7624 9.92614C16.0442 9.92614 16.301 9.88636 16.533 9.80682C16.765 9.72396 16.9656 9.60133 17.1346 9.43892C17.3036 9.27652 17.4329 9.07599 17.5224 8.83736L18.9293 9.09091C18.8166 9.50521 18.6145 9.86813 18.3228 10.1797C18.0344 10.4879 17.6715 10.7282 17.234 10.9006C16.7998 11.0696 16.3043 11.1541 15.7475 11.1541ZM20.6731 11V3.36364H22.1099V4.5767H22.1895C22.3287 4.16572 22.5739 3.84257 22.9252 3.60724C23.2799 3.36861 23.6809 3.24929 24.1284 3.24929C24.2212 3.24929 24.3306 3.2526 24.4565 3.25923C24.5858 3.26586 24.6868 3.27415 24.7598 3.28409V4.70597C24.7001 4.68939 24.594 4.67116 24.4416 4.65128C24.2891 4.62808 24.1367 4.61648 23.9842 4.61648C23.6329 4.61648 23.3197 4.69105 23.0446 4.8402C22.7728 4.98603 22.5574 5.18987 22.3983 5.4517C22.2392 5.71023 22.1596 6.00521 22.1596 6.33665V11H20.6731ZM30.062 3.36364V4.55682H25.8908V3.36364H30.062ZM27.0094 1.53409H28.4959V8.75781C28.4959 9.04616 28.539 9.26326 28.6252 9.40909C28.7114 9.55161 28.8224 9.64938 28.9583 9.70241C29.0975 9.75213 29.2483 9.77699 29.4107 9.77699C29.53 9.77699 29.6344 9.7687 29.7239 9.75213C29.8134 9.73556 29.883 9.7223 29.9327 9.71236L30.2012 10.9403C30.115 10.9735 29.9924 11.0066 29.8333 11.0398C29.6742 11.0762 29.4753 11.0961 29.2367 11.0994C28.8456 11.1061 28.481 11.0365 28.1429 10.8906C27.8049 10.7448 27.5314 10.5194 27.3226 10.2145C27.1138 9.90956 27.0094 9.52675 27.0094 9.06605V1.53409ZM35.9458 6.05327V7.34091H31.4316V6.05327H35.9458ZM39.4135 6.46591V11H37.927V0.818182H39.3936V4.60653H39.4881C39.6671 4.19555 39.9405 3.86908 40.3084 3.62713C40.6763 3.38518 41.1569 3.2642 41.7502 3.2642C42.2739 3.2642 42.7312 3.37192 43.1223 3.58736C43.5167 3.80279 43.8217 4.12429 44.0371 4.55185C44.2559 4.97609 44.3652 5.50639 44.3652 6.14276V11H42.8787V6.32173C42.8787 5.7616 42.7346 5.32741 42.4462 5.01918C42.1578 4.70762 41.7568 4.55185 41.2431 4.55185C40.8917 4.55185 40.5769 4.62642 40.2985 4.77557C40.0234 4.92472 39.8063 5.14347 39.6472 5.43182C39.4914 5.71686 39.4135 6.06155 39.4135 6.46591ZM49.6401 11.1541C48.8877 11.1541 48.2398 10.9934 47.6962 10.6719C47.156 10.3471 46.7383 9.89134 46.4434 9.30469C46.1517 8.71473 46.0059 8.02367 46.0059 7.23153C46.0059 6.44934 46.1517 5.75994 46.4434 5.16335C46.7383 4.56676 47.1493 4.10109 47.6763 3.76633C48.2066 3.43158 48.8264 3.2642 49.5357 3.2642C49.9666 3.2642 50.3842 3.33546 50.7885 3.47798C51.1929 3.6205 51.5558 3.84422 51.8773 4.14915C52.1988 4.45407 52.4524 4.85014 52.638 5.33736C52.8236 5.82126 52.9164 6.40956 52.9164 7.10227V7.62926H46.8461V6.51562H51.4597C51.4597 6.12453 51.3801 5.77817 51.2211 5.47656C51.062 5.17164 50.8382 4.93134 50.5499 4.75568C50.2649 4.58002 49.9301 4.49219 49.5456 4.49219C49.128 4.49219 48.7634 4.59493 48.4519 4.80043C48.1436 5.0026 47.905 5.26776 47.736 5.59588C47.5703 5.92069 47.4874 6.27367 47.4874 6.65483V7.52486C47.4874 8.03527 47.5769 8.46946 47.7559 8.82741C47.9382 9.18537 48.1917 9.45881 48.5165 9.64773C48.8413 9.83333 49.2208 9.92614 49.655 9.92614C49.9367 9.92614 50.1936 9.88636 50.4256 9.80682C50.6576 9.72396 50.8581 9.60133 51.0272 9.43892C51.1962 9.27652 51.3255 9.07599 51.415 8.83736L52.8219 9.09091C52.7092 9.50521 52.507 9.86813 52.2154 10.1797C51.927 10.4879 51.5641 10.7282 51.1266 10.9006C50.6924 11.0696 50.1969 11.1541 49.6401 11.1541ZM55.5613 3.36364L57.2466 6.33665L58.9469 3.36364H60.5726L58.1912 7.18182L60.5925 11H58.9668L57.2466 8.14631L55.5314 11H53.9007L56.2772 7.18182L53.9306 3.36364H55.5613ZM64.3075 11.169C63.8236 11.169 63.3861 11.0795 62.995 10.9006C62.6039 10.7183 62.294 10.4548 62.0653 10.1101C61.84 9.76539 61.7273 9.3428 61.7273 8.84233C61.7273 8.41146 61.8101 8.05682 61.9759 7.77841C62.1416 7.5 62.3653 7.27959 62.647 7.11719C62.9287 6.95478 63.2436 6.83215 63.5916 6.74929C63.9396 6.66643 64.2943 6.60346 64.6555 6.56037C65.1129 6.50734 65.4841 6.46425 65.7692 6.43111C66.0542 6.39465 66.2614 6.33665 66.3906 6.2571C66.5199 6.17756 66.5845 6.0483 66.5845 5.86932V5.83452C66.5845 5.40033 66.4619 5.06392 66.2166 4.82528C65.9747 4.58665 65.6134 4.46733 65.1328 4.46733C64.6323 4.46733 64.2379 4.57836 63.9496 4.80043C63.6645 5.01918 63.4673 5.26278 63.358 5.53125L61.9609 5.21307C62.1267 4.74905 62.3686 4.37453 62.6868 4.08949C63.0083 3.80114 63.3778 3.59233 63.7955 3.46307C64.2131 3.33049 64.6522 3.2642 65.1129 3.2642C65.4179 3.2642 65.741 3.30066 66.0824 3.37358C66.4271 3.44318 66.7486 3.57244 67.0469 3.76136C67.3485 3.95028 67.5954 4.22041 67.7876 4.57173C67.9799 4.91974 68.076 5.37216 68.076 5.92898V11H66.6243V9.95597H66.5646C66.4685 10.1482 66.3243 10.3371 66.1321 10.5227C65.9399 10.7083 65.6929 10.8625 65.3913 10.9851C65.0897 11.1077 64.7285 11.169 64.3075 11.169ZM64.6307 9.97585C65.0417 9.97585 65.393 9.89465 65.6847 9.73224C65.9796 9.56984 66.2034 9.35772 66.3558 9.09588C66.5116 8.83073 66.5895 8.54735 66.5895 8.24574V7.26136C66.5365 7.31439 66.4337 7.36411 66.2812 7.41051C66.1321 7.4536 65.9614 7.49171 65.7692 7.52486C65.5769 7.55469 65.3897 7.58286 65.2074 7.60938C65.0251 7.63258 64.8726 7.65246 64.75 7.66903C64.4616 7.70549 64.1982 7.76681 63.9595 7.85298C63.7242 7.93916 63.5353 8.06345 63.3928 8.22585C63.2536 8.38494 63.1839 8.59706 63.1839 8.86222C63.1839 9.23011 63.3198 9.50852 63.5916 9.69744C63.8634 9.88305 64.2098 9.97585 64.6307 9.97585ZM73.2576 14.0227C72.6511 14.0227 72.1291 13.9432 71.6916 13.7841C71.2574 13.625 70.9028 13.4145 70.6277 13.1527C70.3526 12.8909 70.1471 12.6042 70.0112 12.2926L71.2889 11.7656C71.3784 11.9115 71.4977 12.0656 71.6468 12.228C71.7993 12.3937 72.0048 12.5346 72.2633 12.6506C72.5252 12.7666 72.8616 12.8246 73.2725 12.8246C73.836 12.8246 74.3017 12.687 74.6696 12.4119C75.0375 12.1402 75.2214 11.706 75.2214 11.1094V9.60795H75.127C75.0375 9.77036 74.9082 9.95099 74.7392 10.1499C74.5734 10.3487 74.3448 10.5211 74.0531 10.6669C73.7614 10.8127 73.3819 10.8857 72.9146 10.8857C72.3114 10.8857 71.7678 10.7448 71.2839 10.4631C70.8033 10.178 70.4222 9.75876 70.1404 9.20526C69.862 8.64844 69.7228 7.96401 69.7228 7.15199C69.7228 6.33996 69.8604 5.64394 70.1355 5.06392C70.4139 4.4839 70.795 4.03977 71.2789 3.73153C71.7628 3.41998 72.3114 3.2642 72.9245 3.2642C73.3985 3.2642 73.7813 3.34375 74.073 3.50284C74.3646 3.65862 74.5917 3.84091 74.7541 4.04972C74.9198 4.25852 75.0474 4.44247 75.1369 4.60156H75.2463V3.36364H76.7029V11.169C76.7029 11.8253 76.5505 12.3639 76.2456 12.7848C75.9406 13.2057 75.528 13.5173 75.0076 13.7195C74.4906 13.9216 73.9073 14.0227 73.2576 14.0227ZM73.2427 9.6527C73.6703 9.6527 74.0315 9.55327 74.3265 9.3544C74.6248 9.15223 74.8502 8.86387 75.0027 8.48935C75.1584 8.11151 75.2363 7.65909 75.2363 7.1321C75.2363 6.61837 75.1601 6.16596 75.0076 5.77486C74.8552 5.38376 74.6315 5.07884 74.3365 4.86009C74.0415 4.63802 73.6769 4.52699 73.2427 4.52699C72.7953 4.52699 72.4224 4.64299 72.1241 4.875C71.8258 5.10369 71.6004 5.41525 71.448 5.80966C71.2988 6.20407 71.2243 6.64489 71.2243 7.1321C71.2243 7.63258 71.3005 8.07173 71.4529 8.44957C71.6054 8.82741 71.8308 9.1224 72.1291 9.33452C72.4307 9.54664 72.8019 9.6527 73.2427 9.6527ZM81.9132 11.1541C81.1973 11.1541 80.5725 10.9901 80.0389 10.6619C79.5053 10.3338 79.091 9.87476 78.796 9.2848C78.501 8.69484 78.3535 8.00544 78.3535 7.21662C78.3535 6.42448 78.501 5.73177 78.796 5.13849C79.091 4.54522 79.5053 4.08452 80.0389 3.75639C80.5725 3.42827 81.1973 3.2642 81.9132 3.2642C82.6291 3.2642 83.2538 3.42827 83.7875 3.75639C84.3211 4.08452 84.7354 4.54522 85.0304 5.13849C85.3253 5.73177 85.4728 6.42448 85.4728 7.21662C85.4728 8.00544 85.3253 8.69484 85.0304 9.2848C84.7354 9.87476 84.3211 10.3338 83.7875 10.6619C83.2538 10.9901 82.6291 11.1541 81.9132 11.1541ZM81.9181 9.90625C82.3822 9.90625 82.7666 9.78362 83.0716 9.53835C83.3765 9.29309 83.6019 8.96662 83.7477 8.55895C83.8968 8.15128 83.9714 7.70218 83.9714 7.21165C83.9714 6.72443 83.8968 6.27699 83.7477 5.86932C83.6019 5.45833 83.3765 5.12855 83.0716 4.87997C82.7666 4.63139 82.3822 4.5071 81.9181 4.5071C81.4508 4.5071 81.063 4.63139 80.7548 4.87997C80.4499 5.12855 80.2228 5.45833 80.0737 5.86932C79.9279 6.27699 79.8549 6.72443 79.8549 7.21165C79.8549 7.70218 79.9279 8.15128 80.0737 8.55895C80.2228 8.96662 80.4499 9.29309 80.7548 9.53835C81.063 9.78362 81.4508 9.90625 81.9181 9.90625ZM88.6186 6.46591V11H87.1321V3.36364H88.5589V4.60653H88.6534C88.8291 4.20218 89.1042 3.87737 89.4787 3.6321C89.8565 3.38684 90.3321 3.2642 90.9055 3.2642C91.4259 3.2642 91.8816 3.37358 92.2727 3.59233C92.6638 3.80777 92.9671 4.12926 93.1825 4.55682C93.398 4.98437 93.5057 5.51302 93.5057 6.14276V11H92.0192V6.32173C92.0192 5.76823 91.875 5.3357 91.5866 5.02415C91.2983 4.70928 90.9022 4.55185 90.3984 4.55185C90.0537 4.55185 89.7472 4.62642 89.4787 4.77557C89.2135 4.92472 89.0031 5.14347 88.8473 5.43182C88.6948 5.71686 88.6186 6.06155 88.6186 6.46591Z" fill="black"/>
</svg>
