<svg width="69" height="12" viewBox="0 0 69 12" fill="none" xmlns="http://www.w3.org/2000/svg">
<path d="M0.118608 11V0.818182H1.60511V4.60156H1.6946C1.78078 4.44247 1.90507 4.25852 2.06747 4.04972C2.22988 3.84091 2.45526 3.65862 2.74361 3.50284C3.03196 3.34375 3.41312 3.2642 3.88707 3.2642C4.50355 3.2642 5.05374 3.41998 5.53764 3.73153C6.02154 4.04309 6.40104 4.49219 6.67614 5.07884C6.95455 5.66548 7.09375 6.37145 7.09375 7.19673C7.09375 8.02202 6.9562 8.72964 6.68111 9.3196C6.40601 9.90625 6.02817 10.3587 5.54759 10.6768C5.067 10.9917 4.51847 11.1491 3.90199 11.1491C3.43797 11.1491 3.05848 11.0713 2.76349 10.9155C2.47183 10.7597 2.24313 10.5774 2.07741 10.3686C1.9117 10.1598 1.78409 9.9742 1.6946 9.81179H1.57031V11H0.118608ZM1.57528 7.18182C1.57528 7.71875 1.65317 8.18939 1.80895 8.59375C1.96473 8.99811 2.1901 9.31463 2.48509 9.54332C2.78007 9.7687 3.14134 9.88139 3.56889 9.88139C4.01302 9.88139 4.38423 9.76373 4.68253 9.52841C4.98082 9.28977 5.2062 8.96662 5.35866 8.55895C5.51444 8.15128 5.59233 7.69223 5.59233 7.18182C5.59233 6.67803 5.5161 6.22562 5.36364 5.82457C5.21449 5.42353 4.98911 5.10701 4.6875 4.875C4.3892 4.64299 4.01634 4.52699 3.56889 4.52699C3.13802 4.52699 2.77344 4.63802 2.47514 4.86009C2.18016 5.08215 1.95644 5.39205 1.80398 5.78977C1.65152 6.1875 1.57528 6.65151 1.57528 7.18182ZM12.0542 11.1541C11.3018 11.1541 10.6538 10.9934 10.1103 10.6719C9.57002 10.3471 9.1524 9.89134 8.85742 9.30469C8.56576 8.71473 8.41992 8.02367 8.41992 7.23153C8.41992 6.44934 8.56576 5.75994 8.85742 5.16335C9.1524 4.56676 9.56339 4.10109 10.0904 3.76633C10.6207 3.43158 11.2405 3.2642 11.9498 3.2642C12.3806 3.2642 12.7982 3.33546 13.2026 3.47798C13.6069 3.6205 13.9699 3.84422 14.2914 4.14915C14.6129 4.45407 14.8664 4.85014 15.052 5.33736C15.2376 5.82126 15.3304 6.40956 15.3304 7.10227V7.62926H9.26012V6.51562H13.8738C13.8738 6.12453 13.7942 5.77817 13.6351 5.47656C13.476 5.17164 13.2523 4.93134 12.964 4.75568C12.6789 4.58002 12.3442 4.49219 11.9597 4.49219C11.5421 4.49219 11.1775 4.59493 10.8659 4.80043C10.5577 5.0026 10.3191 5.26776 10.15 5.59588C9.98432 5.92069 9.90146 6.27367 9.90146 6.65483V7.52486C9.90146 8.03527 9.99094 8.46946 10.1699 8.82741C10.3522 9.18537 10.6058 9.45881 10.9306 9.64773C11.2554 9.83333 11.6349 9.92614 12.0691 9.92614C12.3508 9.92614 12.6077 9.88636 12.8397 9.80682C13.0717 9.72396 13.2722 9.60133 13.4412 9.43892C13.6103 9.27652 13.7395 9.07599 13.829 8.83736L15.236 9.09091C15.1233 9.50521 14.9211 9.86813 14.6294 10.1797C14.3411 10.4879 13.9782 10.7282 13.5407 10.9006C13.1065 11.0696 12.611 11.1541 12.0542 11.1541ZM18.4663 0.818182V11H16.9798V0.818182H18.4663ZM21.9526 0.818182V11H20.4661V0.818182H21.9526ZM28.4517 6.05327V7.34091H23.9375V6.05327H28.4517ZM30.4329 11V3.36364H31.8597V4.60653H31.9542C32.1133 4.18561 32.3735 3.85748 32.7347 3.62216C33.096 3.38352 33.5285 3.2642 34.0323 3.2642C34.5427 3.2642 34.9703 3.38352 35.315 3.62216C35.663 3.8608 35.9199 4.18892 36.0856 4.60653H36.1651C36.3474 4.19886 36.6374 3.87405 37.0352 3.6321C37.4329 3.38684 37.9068 3.2642 38.457 3.2642C39.1497 3.2642 39.7148 3.4813 40.1523 3.91548C40.5932 4.34967 40.8136 5.00426 40.8136 5.87926V11H39.3271V6.01847C39.3271 5.50142 39.1862 5.12689 38.9045 4.89489C38.6228 4.66288 38.2863 4.54688 37.8952 4.54688C37.4113 4.54688 37.0352 4.69602 36.7667 4.99432C36.4982 5.2893 36.364 5.6688 36.364 6.13281V11H34.8825V5.92401C34.8825 5.50971 34.7532 5.17661 34.4947 4.92472C34.2362 4.67282 33.8997 4.54688 33.4854 4.54688C33.2037 4.54688 32.9435 4.62145 32.7049 4.7706C32.4696 4.91643 32.279 5.12026 32.1332 5.3821C31.9906 5.64394 31.9194 5.94721 31.9194 6.2919V11H30.4329ZM42.8059 11V3.36364H44.2924V11H42.8059ZM43.5566 2.18537C43.2981 2.18537 43.0761 2.09919 42.8904 1.92685C42.7082 1.75118 42.617 1.54238 42.617 1.30043C42.617 1.05516 42.7082 0.846354 42.8904 0.674005C43.0761 0.498342 43.2981 0.410511 43.5566 0.410511C43.8152 0.410511 44.0356 0.498342 44.2179 0.674005C44.4035 0.846354 44.4963 1.05516 44.4963 1.30043C44.4963 1.54238 44.4035 1.75118 44.2179 1.92685C44.0356 2.09919 43.8152 2.18537 43.5566 2.18537ZM47.7788 6.46591V11H46.2923V3.36364H47.7191V4.60653H47.8136C47.9892 4.20218 48.2643 3.87737 48.6388 3.6321C49.0167 3.38684 49.4923 3.2642 50.0657 3.2642C50.5861 3.2642 51.0418 3.37358 51.4329 3.59233C51.824 3.80777 52.1272 4.12926 52.3427 4.55682C52.5581 4.98437 52.6658 5.51302 52.6658 6.14276V11H51.1793V6.32173C51.1793 5.76823 51.0352 5.3357 50.7468 5.02415C50.4585 4.70928 50.0624 4.55185 49.5586 4.55185C49.2139 4.55185 48.9073 4.62642 48.6388 4.77557C48.3737 4.92472 48.1632 5.14347 48.0075 5.43182C47.855 5.71686 47.7788 6.06155 47.7788 6.46591ZM59.4968 7.8331V3.36364H60.9883V11H59.5266V9.67756H59.4471C59.2714 10.0852 58.9897 10.425 58.6019 10.6967C58.2174 10.9652 57.7385 11.0994 57.1651 11.0994C56.6746 11.0994 56.2404 10.9917 55.8626 10.7763C55.488 10.5575 55.1931 10.2344 54.9776 9.80682C54.7655 9.37926 54.6594 8.85062 54.6594 8.22088V3.36364H56.146V8.0419C56.146 8.56226 56.2901 8.97656 56.5785 9.2848C56.8668 9.59304 57.2414 9.74716 57.7021 9.74716C57.9805 9.74716 58.2572 9.67756 58.5323 9.53835C58.8107 9.39915 59.0411 9.18868 59.2234 8.90696C59.409 8.62524 59.5001 8.26728 59.4968 7.8331ZM68.7079 5.22798L67.3606 5.46662C67.3043 5.29427 67.2148 5.13021 67.0922 4.97443C66.9728 4.81865 66.8104 4.69105 66.6049 4.59162C66.3994 4.49219 66.1426 4.44247 65.8343 4.44247C65.4134 4.44247 65.0621 4.53693 64.7804 4.72585C64.4986 4.91146 64.3578 5.15175 64.3578 5.44673C64.3578 5.70194 64.4522 5.90743 64.6412 6.06321C64.8301 6.21899 65.135 6.34659 65.5559 6.44602L66.769 6.72443C67.4717 6.88684 67.9953 7.13707 68.34 7.47514C68.6847 7.81321 68.8571 8.25237 68.8571 8.79261C68.8571 9.25 68.7245 9.65767 68.4593 10.0156C68.1975 10.3703 67.8313 10.6487 67.3606 10.8509C66.8933 11.053 66.3514 11.1541 65.7349 11.1541C64.8798 11.1541 64.1821 10.9718 63.6419 10.6072C63.1016 10.2393 62.7702 9.71733 62.6475 9.04119L64.0843 8.82244C64.1738 9.19697 64.3578 9.48035 64.6362 9.67259C64.9146 9.86151 65.2775 9.95597 65.725 9.95597C66.2122 9.95597 66.6016 9.85488 66.8933 9.6527C67.185 9.44721 67.3308 9.19697 67.3308 8.90199C67.3308 8.66335 67.2413 8.46283 67.0623 8.30043C66.8867 8.13802 66.6165 8.01539 66.252 7.93253L64.9593 7.64915C64.2467 7.48674 63.7198 7.22822 63.3784 6.87358C63.0403 6.51894 62.8713 6.06984 62.8713 5.52628C62.8713 5.07552 62.9972 4.68111 63.2491 4.34304C63.501 4.00497 63.849 3.74148 64.2931 3.55256C64.7373 3.36032 65.246 3.2642 65.8194 3.2642C66.6447 3.2642 67.2943 3.44318 67.7683 3.80114C68.2422 4.15578 68.5555 4.63139 68.7079 5.22798Z" fill="black"/>
</svg>
