<svg width="47" height="12" viewBox="0 0 47 12" fill="none" xmlns="http://www.w3.org/2000/svg">
<path d="M0.118608 11V0.818182H1.60511V4.60156H1.6946C1.78078 4.44247 1.90507 4.25852 2.06747 4.04972C2.22988 3.84091 2.45526 3.65862 2.74361 3.50284C3.03196 3.34375 3.41312 3.2642 3.88707 3.2642C4.50355 3.2642 5.05374 3.41998 5.53764 3.73153C6.02154 4.04309 6.40104 4.49219 6.67614 5.07884C6.95455 5.66548 7.09375 6.37145 7.09375 7.19673C7.09375 8.02202 6.9562 8.72964 6.68111 9.3196C6.40601 9.90625 6.02817 10.3587 5.54759 10.6768C5.067 10.9917 4.51847 11.1491 3.90199 11.1491C3.43797 11.1491 3.05848 11.0713 2.76349 10.9155C2.47183 10.7597 2.24313 10.5774 2.07741 10.3686C1.9117 10.1598 1.78409 9.9742 1.6946 9.81179H1.57031V11H0.118608ZM1.57528 7.18182C1.57528 7.71875 1.65317 8.18939 1.80895 8.59375C1.96473 8.99811 2.1901 9.31463 2.48509 9.54332C2.78007 9.7687 3.14134 9.88139 3.56889 9.88139C4.01302 9.88139 4.38423 9.76373 4.68253 9.52841C4.98082 9.28977 5.2062 8.96662 5.35866 8.55895C5.51444 8.15128 5.59233 7.69223 5.59233 7.18182C5.59233 6.67803 5.5161 6.22562 5.36364 5.82457C5.21449 5.42353 4.98911 5.10701 4.6875 4.875C4.3892 4.64299 4.01634 4.52699 3.56889 4.52699C3.13802 4.52699 2.77344 4.63802 2.47514 4.86009C2.18016 5.08215 1.95644 5.39205 1.80398 5.78977C1.65152 6.1875 1.57528 6.65151 1.57528 7.18182ZM12.0542 11.1541C11.3018 11.1541 10.6538 10.9934 10.1103 10.6719C9.57002 10.3471 9.1524 9.89134 8.85742 9.30469C8.56576 8.71473 8.41992 8.02367 8.41992 7.23153C8.41992 6.44934 8.56576 5.75994 8.85742 5.16335C9.1524 4.56676 9.56339 4.10109 10.0904 3.76633C10.6207 3.43158 11.2405 3.2642 11.9498 3.2642C12.3806 3.2642 12.7982 3.33546 13.2026 3.47798C13.6069 3.6205 13.9699 3.84422 14.2914 4.14915C14.6129 4.45407 14.8664 4.85014 15.052 5.33736C15.2376 5.82126 15.3304 6.40956 15.3304 7.10227V7.62926H9.26012V6.51562H13.8738C13.8738 6.12453 13.7942 5.77817 13.6351 5.47656C13.476 5.17164 13.2523 4.93134 12.964 4.75568C12.6789 4.58002 12.3442 4.49219 11.9597 4.49219C11.5421 4.49219 11.1775 4.59493 10.8659 4.80043C10.5577 5.0026 10.3191 5.26776 10.15 5.59588C9.98432 5.92069 9.90146 6.27367 9.90146 6.65483V7.52486C9.90146 8.03527 9.99094 8.46946 10.1699 8.82741C10.3522 9.18537 10.6058 9.45881 10.9306 9.64773C11.2554 9.83333 11.6349 9.92614 12.0691 9.92614C12.3508 9.92614 12.6077 9.88636 12.8397 9.80682C13.0717 9.72396 13.2722 9.60133 13.4412 9.43892C13.6103 9.27652 13.7395 9.07599 13.829 8.83736L15.236 9.09091C15.1233 9.50521 14.9211 9.86813 14.6294 10.1797C14.3411 10.4879 13.9782 10.7282 13.5407 10.9006C13.1065 11.0696 12.611 11.1541 12.0542 11.1541ZM18.4663 0.818182V11H16.9798V0.818182H18.4663ZM21.9526 0.818182V11H20.4661V0.818182H21.9526ZM28.4517 6.05327V7.34091H23.9375V6.05327H28.4517ZM33.9577 11.169C33.1722 11.1657 32.5011 10.9586 31.9442 10.5476C31.3874 10.1366 30.9615 9.53835 30.6665 8.75284C30.3716 7.96733 30.2241 7.02107 30.2241 5.91406C30.2241 4.81037 30.3716 3.86742 30.6665 3.08523C30.9648 2.30303 31.3924 1.70644 31.9492 1.29545C32.5094 0.884469 33.1789 0.678977 33.9577 0.678977C34.7366 0.678977 35.4045 0.886126 35.9613 1.30043C36.5181 1.71141 36.944 2.308 37.239 3.0902C37.5373 3.86908 37.6864 4.81037 37.6864 5.91406C37.6864 7.02438 37.5389 7.9723 37.244 8.75781C36.949 9.54001 36.5231 10.1383 35.9663 10.5526C35.4094 10.9635 34.7399 11.169 33.9577 11.169ZM33.9577 9.84162C34.6471 9.84162 35.1857 9.50521 35.5735 8.83239C35.9646 8.15956 36.1602 7.18679 36.1602 5.91406C36.1602 5.06889 36.0707 4.35464 35.8917 3.77131C35.716 3.18466 35.4625 2.74053 35.131 2.43892C34.8029 2.134 34.4118 1.98153 33.9577 1.98153C33.2717 1.98153 32.7331 2.3196 32.342 2.99574C31.9509 3.67187 31.7537 4.64465 31.7504 5.91406C31.7504 6.76255 31.8382 7.48011 32.0138 8.06676C32.1928 8.65009 32.4464 9.09257 32.7745 9.39418C33.1026 9.69247 33.497 9.84162 33.9577 9.84162ZM39.2363 9.01136V7.76847L43.6362 0.818182H44.6156V2.64773H43.9941L40.8471 7.62926V7.70881H46.8777V9.01136H39.2363ZM44.0637 11V8.63352L44.0737 8.06676V0.818182H45.5304V11H44.0637Z" fill="black"/>
</svg>
