<svg width="91" height="14" viewBox="0 0 91 14" fill="none" xmlns="http://www.w3.org/2000/svg">
<path d="M1.4858 0.818182V11H-0.000710189V0.818182H1.4858ZM5.70792 11.169C5.22402 11.169 4.78652 11.0795 4.39542 10.9006C4.00432 10.7183 3.69442 10.4548 3.46573 10.1101C3.24035 9.76539 3.12766 9.3428 3.12766 8.84233C3.12766 8.41146 3.21052 8.05682 3.37624 7.77841C3.54196 7.5 3.76568 7.27959 4.04741 7.11719C4.32913 6.95478 4.644 6.83215 4.99201 6.74929C5.34002 6.66643 5.69466 6.60346 6.05593 6.56037C6.51332 6.50734 6.88453 6.46425 7.16957 6.43111C7.4546 6.39465 7.66175 6.33665 7.79102 6.2571C7.92028 6.17756 7.98491 6.0483 7.98491 5.86932V5.83452C7.98491 5.40033 7.86228 5.06392 7.61701 4.82528C7.37506 4.58665 7.01379 4.46733 6.5332 4.46733C6.03273 4.46733 5.63832 4.57836 5.34996 4.80043C5.06493 5.01918 4.86772 5.26278 4.75835 5.53125L3.36133 5.21307C3.52705 4.74905 3.769 4.37453 4.08718 4.08949C4.40868 3.80114 4.77823 3.59233 5.19585 3.46307C5.61346 3.33049 6.05262 3.2642 6.51332 3.2642C6.81824 3.2642 7.14139 3.30066 7.48278 3.37358C7.82747 3.44318 8.14897 3.57244 8.44727 3.76136C8.74888 3.95028 8.9958 4.22041 9.18803 4.57173C9.38027 4.91974 9.47639 5.37216 9.47639 5.92898V11H8.02468V9.95597H7.96502C7.8689 10.1482 7.72473 10.3371 7.53249 10.5227C7.34026 10.7083 7.09334 10.8625 6.79173 10.9851C6.49012 11.1077 6.12885 11.169 5.70792 11.169ZM6.03107 9.97585C6.44206 9.97585 6.79338 9.89465 7.08505 9.73224C7.38003 9.56984 7.60375 9.35772 7.75621 9.09588C7.91199 8.83073 7.98988 8.54735 7.98988 8.24574V7.26136C7.93685 7.31439 7.8341 7.36411 7.68164 7.41051C7.53249 7.4536 7.3618 7.49171 7.16957 7.52486C6.97733 7.55469 6.79007 7.58286 6.60778 7.60938C6.42549 7.63258 6.27302 7.65246 6.15039 7.66903C5.86204 7.70549 5.59854 7.76681 5.35991 7.85298C5.12459 7.93916 4.93567 8.06345 4.79315 8.22585C4.65394 8.38494 4.58434 8.59706 4.58434 8.86222C4.58434 9.23011 4.72023 9.50852 4.99201 9.69744C5.26379 9.88305 5.61014 9.97585 6.03107 9.97585ZM12.1225 13.8636C11.9004 13.8636 11.6983 13.8454 11.516 13.8089C11.3337 13.7758 11.1978 13.7393 11.1083 13.6996L11.4663 12.4815C11.738 12.5545 11.98 12.5859 12.1921 12.576C12.4042 12.5661 12.5915 12.4865 12.7539 12.3374C12.9196 12.1882 13.0655 11.9446 13.1914 11.6065L13.3754 11.0994L10.5813 3.36364H12.1722L14.1062 9.28977H14.1857L16.1197 3.36364H17.7156L14.5685 12.0192C14.4227 12.4169 14.2371 12.7533 14.0117 13.0284C13.7863 13.3068 13.5179 13.5156 13.2063 13.6548C12.8948 13.794 12.5335 13.8636 12.1225 13.8636ZM22.144 11.1541C21.3916 11.1541 20.7437 10.9934 20.2001 10.6719C19.6599 10.3471 19.2422 9.89134 18.9473 9.30469C18.6556 8.71473 18.5098 8.02367 18.5098 7.23153C18.5098 6.44934 18.6556 5.75994 18.9473 5.16335C19.2422 4.56676 19.6532 4.10109 20.1802 3.76633C20.7105 3.43158 21.3303 3.2642 22.0396 3.2642C22.4705 3.2642 22.8881 3.33546 23.2924 3.47798C23.6968 3.6205 24.0597 3.84422 24.3812 4.14915C24.7027 4.45407 24.9563 4.85014 25.1419 5.33736C25.3275 5.82126 25.4203 6.40956 25.4203 7.10227V7.62926H19.35V6.51562H23.9636C23.9636 6.12453 23.8841 5.77817 23.725 5.47656C23.5659 5.17164 23.3422 4.93134 23.0538 4.75568C22.7688 4.58002 22.434 4.49219 22.0495 4.49219C21.6319 4.49219 21.2673 4.59493 20.9558 4.80043C20.6475 5.0026 20.4089 5.26776 20.2399 5.59588C20.0742 5.92069 19.9913 6.27367 19.9913 6.65483V7.52486C19.9913 8.03527 20.0808 8.46946 20.2598 8.82741C20.4421 9.18537 20.6956 9.45881 21.0204 9.64773C21.3452 9.83333 21.7247 9.92614 22.1589 9.92614C22.4406 9.92614 22.6975 9.88636 22.9295 9.80682C23.1615 9.72396 23.362 9.60133 23.5311 9.43892C23.7001 9.27652 23.8294 9.07599 23.9189 8.83736L25.3258 9.09091C25.2131 9.50521 25.0109 9.86813 24.7193 10.1797C24.4309 10.4879 24.068 10.7282 23.6305 10.9006C23.1963 11.0696 22.7008 11.1541 22.144 11.1541ZM27.0696 11V3.36364H28.5064V4.5767H28.5859C28.7251 4.16572 28.9704 3.84257 29.3217 3.60724C29.6764 3.36861 30.0774 3.24929 30.5249 3.24929C30.6177 3.24929 30.727 3.2526 30.853 3.25923C30.9822 3.26586 31.0833 3.27415 31.1562 3.28409V4.70597C31.0966 4.68939 30.9905 4.67116 30.8381 4.65128C30.6856 4.62808 30.5331 4.61648 30.3807 4.61648C30.0294 4.61648 29.7161 4.69105 29.4411 4.8402C29.1693 4.98603 28.9538 5.18987 28.7947 5.4517C28.6357 5.71023 28.5561 6.00521 28.5561 6.33665V11H27.0696ZM38.165 5.22798L36.8176 5.46662C36.7613 5.29427 36.6718 5.13021 36.5492 4.97443C36.4299 4.81865 36.2675 4.69105 36.062 4.59162C35.8565 4.49219 35.5996 4.44247 35.2914 4.44247C34.8704 4.44247 34.5191 4.53693 34.2374 4.72585C33.9557 4.91146 33.8148 5.15175 33.8148 5.44673C33.8148 5.70194 33.9093 5.90743 34.0982 6.06321C34.2871 6.21899 34.592 6.34659 35.013 6.44602L36.226 6.72443C36.9287 6.88684 37.4524 7.13707 37.7971 7.47514C38.1417 7.81321 38.3141 8.25237 38.3141 8.79261C38.3141 9.25 38.1815 9.65767 37.9164 10.0156C37.6545 10.3703 37.2883 10.6487 36.8176 10.8509C36.3503 11.053 35.8084 11.1541 35.1919 11.1541C34.3368 11.1541 33.6391 10.9718 33.0989 10.6072C32.5587 10.2393 32.2272 9.71733 32.1046 9.04119L33.5414 8.82244C33.6309 9.19697 33.8148 9.48035 34.0932 9.67259C34.3716 9.86151 34.7346 9.95597 35.182 9.95597C35.6692 9.95597 36.0587 9.85488 36.3503 9.6527C36.642 9.44721 36.7878 9.19697 36.7878 8.90199C36.7878 8.66335 36.6983 8.46283 36.5194 8.30043C36.3437 8.13802 36.0736 8.01539 35.709 7.93253L34.4164 7.64915C33.7038 7.48674 33.1768 7.22822 32.8354 6.87358C32.4973 6.51894 32.3283 6.06984 32.3283 5.52628C32.3283 5.07552 32.4542 4.68111 32.7061 4.34304C32.958 4.00497 33.306 3.74148 33.7502 3.55256C34.1943 3.36032 34.7031 3.2642 35.2765 3.2642C36.1017 3.2642 36.7514 3.44318 37.2253 3.80114C37.6993 4.15578 38.0125 4.63139 38.165 5.22798ZM44.4478 6.05327V7.34091H39.9336V6.05327H44.4478ZM49.9936 3.36364V4.55682H45.8224V3.36364H49.9936ZM46.9411 1.53409H48.4276V8.75781C48.4276 9.04616 48.4706 9.26326 48.5568 9.40909C48.643 9.55161 48.754 9.64938 48.8899 9.70241C49.0291 9.75213 49.1799 9.77699 49.3423 9.77699C49.4616 9.77699 49.5661 9.7687 49.6555 9.75213C49.745 9.73556 49.8146 9.7223 49.8643 9.71236L50.1328 10.9403C50.0466 10.9735 49.924 11.0066 49.7649 11.0398C49.6058 11.0762 49.407 11.0961 49.1683 11.0994C48.7772 11.1061 48.4126 11.0365 48.0746 10.8906C47.7365 10.7448 47.4631 10.5194 47.2543 10.2145C47.0455 9.90956 46.9411 9.52675 46.9411 9.06605V1.53409ZM53.2935 11L51.0463 3.36364H52.5826L54.079 8.97159H54.1536L55.655 3.36364H57.1912L58.6827 8.94673H58.7573L60.2438 3.36364H61.78L59.5378 11H58.0215L56.4703 5.48651H56.356L54.8049 11H53.2935ZM66.1749 11.1541C65.459 11.1541 64.8342 10.9901 64.3006 10.6619C63.767 10.3338 63.3527 9.87476 63.0577 9.2848C62.7627 8.69484 62.6152 8.00544 62.6152 7.21662C62.6152 6.42448 62.7627 5.73177 63.0577 5.13849C63.3527 4.54522 63.767 4.08452 64.3006 3.75639C64.8342 3.42827 65.459 3.2642 66.1749 3.2642C66.8908 3.2642 67.5156 3.42827 68.0492 3.75639C68.5828 4.08452 68.9971 4.54522 69.2921 5.13849C69.5871 5.73177 69.7346 6.42448 69.7346 7.21662C69.7346 8.00544 69.5871 8.69484 69.2921 9.2848C68.9971 9.87476 68.5828 10.3338 68.0492 10.6619C67.5156 10.9901 66.8908 11.1541 66.1749 11.1541ZM66.1799 9.90625C66.6439 9.90625 67.0284 9.78362 67.3333 9.53835C67.6382 9.29309 67.8636 8.96662 68.0094 8.55895C68.1586 8.15128 68.2331 7.70218 68.2331 7.21165C68.2331 6.72443 68.1586 6.27699 68.0094 5.86932C67.8636 5.45833 67.6382 5.12855 67.3333 4.87997C67.0284 4.63139 66.6439 4.5071 66.1799 4.5071C65.7125 4.5071 65.3248 4.63139 65.0165 4.87997C64.7116 5.12855 64.4846 5.45833 64.3354 5.86932C64.1896 6.27699 64.1167 6.72443 64.1167 7.21165C64.1167 7.70218 64.1896 8.15128 64.3354 8.55895C64.4846 8.96662 64.7116 9.29309 65.0165 9.53835C65.3248 9.78362 65.7125 9.90625 66.1799 9.90625ZM75.8931 6.05327V7.34091H71.3789V6.05327H75.8931ZM81.3991 11.169C80.6136 11.1657 79.9425 10.9586 79.3857 10.5476C78.8288 10.1366 78.4029 9.53835 78.108 8.75284C77.813 7.96733 77.6655 7.02107 77.6655 5.91406C77.6655 4.81037 77.813 3.86742 78.108 3.08523C78.4063 2.30303 78.8338 1.70644 79.3906 1.29545C79.9508 0.884469 80.6203 0.678977 81.3991 0.678977C82.178 0.678977 82.8459 0.886126 83.4027 1.30043C83.9595 1.71141 84.3854 2.308 84.6804 3.0902C84.9787 3.86908 85.1278 4.81037 85.1278 5.91406C85.1278 7.02438 84.9804 7.9723 84.6854 8.75781C84.3904 9.54001 83.9645 10.1383 83.4077 10.5526C82.8509 10.9635 82.1813 11.169 81.3991 11.169ZM81.3991 9.84162C82.0885 9.84162 82.6271 9.50521 83.0149 8.83239C83.406 8.15956 83.6016 7.18679 83.6016 5.91406C83.6016 5.06889 83.5121 4.35464 83.3331 3.77131C83.1574 3.18466 82.9039 2.74053 82.5724 2.43892C82.2443 2.134 81.8532 1.98153 81.3991 1.98153C80.7131 1.98153 80.1745 2.3196 79.7834 2.99574C79.3923 3.67187 79.1951 4.64465 79.1918 5.91406C79.1918 6.76255 79.2796 7.48011 79.4553 8.06676C79.6342 8.65009 79.8878 9.09257 80.2159 9.39418C80.544 9.69247 80.9384 9.84162 81.3991 9.84162ZM90.7544 0.818182V11H89.2132V2.35938H89.1536L86.7175 3.95028V2.47869L89.258 0.818182H90.7544Z" fill="black"/>
</svg>
