<svg width="86" height="14" viewBox="0 0 86 14" fill="none" xmlns="http://www.w3.org/2000/svg">
<path d="M1.4858 0.818182V11H-0.000710189V0.818182H1.4858ZM5.70792 11.169C5.22402 11.169 4.78652 11.0795 4.39542 10.9006C4.00432 10.7183 3.69442 10.4548 3.46573 10.1101C3.24035 9.76539 3.12766 9.3428 3.12766 8.84233C3.12766 8.41146 3.21052 8.05682 3.37624 7.77841C3.54196 7.5 3.76568 7.27959 4.04741 7.11719C4.32913 6.95478 4.644 6.83215 4.99201 6.74929C5.34002 6.66643 5.69466 6.60346 6.05593 6.56037C6.51332 6.50734 6.88453 6.46425 7.16957 6.43111C7.4546 6.39465 7.66175 6.33665 7.79102 6.2571C7.92028 6.17756 7.98491 6.0483 7.98491 5.86932V5.83452C7.98491 5.40033 7.86228 5.06392 7.61701 4.82528C7.37506 4.58665 7.01379 4.46733 6.5332 4.46733C6.03273 4.46733 5.63832 4.57836 5.34996 4.80043C5.06493 5.01918 4.86772 5.26278 4.75835 5.53125L3.36133 5.21307C3.52705 4.74905 3.769 4.37453 4.08718 4.08949C4.40868 3.80114 4.77823 3.59233 5.19585 3.46307C5.61346 3.33049 6.05262 3.2642 6.51332 3.2642C6.81824 3.2642 7.14139 3.30066 7.48278 3.37358C7.82747 3.44318 8.14897 3.57244 8.44727 3.76136C8.74888 3.95028 8.9958 4.22041 9.18803 4.57173C9.38027 4.91974 9.47639 5.37216 9.47639 5.92898V11H8.02468V9.95597H7.96502C7.8689 10.1482 7.72473 10.3371 7.53249 10.5227C7.34026 10.7083 7.09334 10.8625 6.79173 10.9851C6.49012 11.1077 6.12885 11.169 5.70792 11.169ZM6.03107 9.97585C6.44206 9.97585 6.79338 9.89465 7.08505 9.73224C7.38003 9.56984 7.60375 9.35772 7.75621 9.09588C7.91199 8.83073 7.98988 8.54735 7.98988 8.24574V7.26136C7.93685 7.31439 7.8341 7.36411 7.68164 7.41051C7.53249 7.4536 7.3618 7.49171 7.16957 7.52486C6.97733 7.55469 6.79007 7.58286 6.60778 7.60938C6.42549 7.63258 6.27302 7.65246 6.15039 7.66903C5.86204 7.70549 5.59854 7.76681 5.35991 7.85298C5.12459 7.93916 4.93567 8.06345 4.79315 8.22585C4.65394 8.38494 4.58434 8.59706 4.58434 8.86222C4.58434 9.23011 4.72023 9.50852 4.99201 9.69744C5.26379 9.88305 5.61014 9.97585 6.03107 9.97585ZM12.1225 13.8636C11.9004 13.8636 11.6983 13.8454 11.516 13.8089C11.3337 13.7758 11.1978 13.7393 11.1083 13.6996L11.4663 12.4815C11.738 12.5545 11.98 12.5859 12.1921 12.576C12.4042 12.5661 12.5915 12.4865 12.7539 12.3374C12.9196 12.1882 13.0655 11.9446 13.1914 11.6065L13.3754 11.0994L10.5813 3.36364H12.1722L14.1062 9.28977H14.1857L16.1197 3.36364H17.7156L14.5685 12.0192C14.4227 12.4169 14.2371 12.7533 14.0117 13.0284C13.7863 13.3068 13.5179 13.5156 13.2063 13.6548C12.8948 13.794 12.5335 13.8636 12.1225 13.8636ZM22.0694 11.1541C21.3535 11.1541 20.7288 10.9901 20.1951 10.6619C19.6615 10.3338 19.2472 9.87476 18.9522 9.2848C18.6573 8.69484 18.5098 8.00544 18.5098 7.21662C18.5098 6.42448 18.6573 5.73177 18.9522 5.13849C19.2472 4.54522 19.6615 4.08452 20.1951 3.75639C20.7288 3.42827 21.3535 3.2642 22.0694 3.2642C22.7853 3.2642 23.4101 3.42827 23.9437 3.75639C24.4773 4.08452 24.8916 4.54522 25.1866 5.13849C25.4816 5.73177 25.6291 6.42448 25.6291 7.21662C25.6291 8.00544 25.4816 8.69484 25.1866 9.2848C24.8916 9.87476 24.4773 10.3338 23.9437 10.6619C23.4101 10.9901 22.7853 11.1541 22.0694 11.1541ZM22.0744 9.90625C22.5384 9.90625 22.9229 9.78362 23.2278 9.53835C23.5327 9.29309 23.7581 8.96662 23.9039 8.55895C24.0531 8.15128 24.1277 7.70218 24.1277 7.21165C24.1277 6.72443 24.0531 6.27699 23.9039 5.86932C23.7581 5.45833 23.5327 5.12855 23.2278 4.87997C22.9229 4.63139 22.5384 4.5071 22.0744 4.5071C21.6071 4.5071 21.2193 4.63139 20.911 4.87997C20.6061 5.12855 20.3791 5.45833 20.2299 5.86932C20.0841 6.27699 20.0112 6.72443 20.0112 7.21165C20.0112 7.70218 20.0841 8.15128 20.2299 8.55895C20.3791 8.96662 20.6061 9.29309 20.911 9.53835C21.2193 9.78362 21.6071 9.90625 22.0744 9.90625ZM32.1257 7.8331V3.36364H33.6172V11H32.1555V9.67756H32.076C31.9003 10.0852 31.6186 10.425 31.2308 10.6967C30.8464 10.9652 30.3674 11.0994 29.794 11.0994C29.3035 11.0994 28.8693 10.9917 28.4915 10.7763C28.117 10.5575 27.822 10.2344 27.6065 9.80682C27.3944 9.37926 27.2884 8.85062 27.2884 8.22088V3.36364H28.7749V8.0419C28.7749 8.56226 28.919 8.97656 29.2074 9.2848C29.4957 9.59304 29.8703 9.74716 30.331 9.74716C30.6094 9.74716 30.8861 9.67756 31.1612 9.53835C31.4396 9.39915 31.67 9.18868 31.8523 8.90696C32.0379 8.62524 32.129 8.26728 32.1257 7.8331ZM39.1792 3.36364V4.55682H35.008V3.36364H39.1792ZM36.1266 1.53409H37.6131V8.75781C37.6131 9.04616 37.6562 9.26326 37.7424 9.40909C37.8285 9.55161 37.9396 9.64938 38.0755 9.70241C38.2147 9.75213 38.3655 9.77699 38.5279 9.77699C38.6472 9.77699 38.7516 9.7687 38.8411 9.75213C38.9306 9.73556 39.0002 9.7223 39.0499 9.71236L39.3184 10.9403C39.2322 10.9735 39.1096 11.0066 38.9505 11.0398C38.7914 11.0762 38.5925 11.0961 38.3539 11.0994C37.9628 11.1061 37.5982 11.0365 37.2601 10.8906C36.9221 10.7448 36.6486 10.5194 36.4398 10.2145C36.231 9.90956 36.1266 9.52675 36.1266 9.06605V1.53409ZM45.063 6.05327V7.34091H40.5488V6.05327H45.063ZM49.2665 11.169C48.7826 11.169 48.3451 11.0795 47.954 10.9006C47.5629 10.7183 47.253 10.4548 47.0243 10.1101C46.7989 9.76539 46.6863 9.3428 46.6863 8.84233C46.6863 8.41146 46.7691 8.05682 46.9348 7.77841C47.1006 7.5 47.3243 7.27959 47.606 7.11719C47.8877 6.95478 48.2026 6.83215 48.5506 6.74929C48.8986 6.66643 49.2533 6.60346 49.6145 6.56037C50.0719 6.50734 50.4431 6.46425 50.7282 6.43111C51.0132 6.39465 51.2203 6.33665 51.3496 6.2571C51.4789 6.17756 51.5435 6.0483 51.5435 5.86932V5.83452C51.5435 5.40033 51.4209 5.06392 51.1756 4.82528C50.9337 4.58665 50.5724 4.46733 50.0918 4.46733C49.5913 4.46733 49.1969 4.57836 48.9086 4.80043C48.6235 5.01918 48.4263 5.26278 48.3169 5.53125L46.9199 5.21307C47.0856 4.74905 47.3276 4.37453 47.6458 4.08949C47.9673 3.80114 48.3368 3.59233 48.7544 3.46307C49.1721 3.33049 49.6112 3.2642 50.0719 3.2642C50.3768 3.2642 50.7 3.30066 51.0414 3.37358C51.3861 3.44318 51.7076 3.57244 52.0059 3.76136C52.3075 3.95028 52.5544 4.22041 52.7466 4.57173C52.9389 4.91974 53.035 5.37216 53.035 5.92898V11H51.5833V9.95597H51.5236C51.4275 10.1482 51.2833 10.3371 51.0911 10.5227C50.8989 10.7083 50.6519 10.8625 50.3503 10.9851C50.0487 11.1077 49.6874 11.169 49.2665 11.169ZM49.5897 9.97585C50.0007 9.97585 50.352 9.89465 50.6436 9.73224C50.9386 9.56984 51.1623 9.35772 51.3148 9.09588C51.4706 8.83073 51.5485 8.54735 51.5485 8.24574V7.26136C51.4954 7.31439 51.3927 7.36411 51.2402 7.41051C51.0911 7.4536 50.9204 7.49171 50.7282 7.52486C50.5359 7.55469 50.3487 7.58286 50.1664 7.60938C49.9841 7.63258 49.8316 7.65246 49.709 7.66903C49.4206 7.70549 49.1571 7.76681 48.9185 7.85298C48.6832 7.93916 48.4943 8.06345 48.3517 8.22585C48.2125 8.38494 48.1429 8.59706 48.1429 8.86222C48.1429 9.23011 48.2788 9.50852 48.5506 9.69744C48.8224 9.88305 49.1687 9.97585 49.5897 9.97585ZM56.5014 0.818182V11H55.0149V0.818182H56.5014ZM62.0659 3.36364V4.55682H57.8947V3.36364H62.0659ZM59.0133 1.53409H60.4998V8.75781C60.4998 9.04616 60.5429 9.26326 60.6291 9.40909C60.7153 9.55161 60.8263 9.64938 60.9622 9.70241C61.1014 9.75213 61.2522 9.77699 61.4146 9.77699C61.5339 9.77699 61.6383 9.7687 61.7278 9.75213C61.8173 9.73556 61.8869 9.7223 61.9366 9.71236L62.2051 10.9403C62.1189 10.9735 61.9963 11.0066 61.8372 11.0398C61.6781 11.0762 61.4792 11.0961 61.2406 11.0994C60.8495 11.1061 60.4849 11.0365 60.1468 10.8906C59.8088 10.7448 59.5353 10.5194 59.3265 10.2145C59.1177 9.90956 59.0133 9.52675 59.0133 9.06605V1.53409ZM67.9498 6.05327V7.34091H63.4355V6.05327H67.9498ZM73.4558 11.169C72.6703 11.1657 71.9991 10.9586 71.4423 10.5476C70.8855 10.1366 70.4596 9.53835 70.1646 8.75284C69.8696 7.96733 69.7221 7.02107 69.7221 5.91406C69.7221 4.81037 69.8696 3.86742 70.1646 3.08523C70.4629 2.30303 70.8904 1.70644 71.4473 1.29545C72.0074 0.884469 72.6769 0.678977 73.4558 0.678977C74.2347 0.678977 74.9025 0.886126 75.4593 1.30043C76.0162 1.71141 76.4421 2.308 76.737 3.0902C77.0353 3.86908 77.1845 4.81037 77.1845 5.91406C77.1845 7.02438 77.037 7.9723 76.742 8.75781C76.447 9.54001 76.0211 10.1383 75.4643 10.5526C74.9075 10.9635 74.238 11.169 73.4558 11.169ZM73.4558 9.84162C74.1452 9.84162 74.6838 9.50521 75.0716 8.83239C75.4627 8.15956 75.6582 7.18679 75.6582 5.91406C75.6582 5.06889 75.5687 4.35464 75.3897 3.77131C75.2141 3.18466 74.9605 2.74053 74.6291 2.43892C74.301 2.134 73.9099 1.98153 73.4558 1.98153C72.7697 1.98153 72.2311 2.3196 71.84 2.99574C71.4489 3.67187 71.2517 4.64465 71.2484 5.91406C71.2484 6.76255 71.3362 7.48011 71.5119 8.06676C71.6909 8.65009 71.9444 9.09257 72.2725 9.39418C72.6007 9.69247 72.9951 9.84162 73.4558 9.84162ZM78.9482 11V9.88636L82.3935 6.31676C82.7614 5.92898 83.0646 5.58925 83.3033 5.29759C83.5452 5.0026 83.7259 4.72254 83.8452 4.45739C83.9645 4.19223 84.0241 3.91051 84.0241 3.61222C84.0241 3.27415 83.9446 2.98248 83.7855 2.73722C83.6264 2.48864 83.4093 2.29806 83.1342 2.16548C82.8591 2.02959 82.5492 1.96165 82.2045 1.96165C81.84 1.96165 81.5218 2.03622 81.25 2.18537C80.9782 2.33452 80.7694 2.54498 80.6236 2.81676C80.4777 3.08854 80.4048 3.40672 80.4048 3.77131H78.9382C78.9382 3.15151 79.0807 2.60961 79.3658 2.1456C79.6508 1.68158 80.0419 1.32197 80.5391 1.06676C81.0362 0.808238 81.6013 0.678977 82.2344 0.678977C82.8741 0.678977 83.4375 0.806581 83.9247 1.06179C84.4152 1.31368 84.7981 1.65838 85.0732 2.09588C85.3482 2.53007 85.4858 3.0206 85.4858 3.56747C85.4858 3.94531 85.4145 4.31487 85.272 4.67614C85.1328 5.0374 84.8892 5.4401 84.5412 5.88423C84.1932 6.32505 83.7093 6.86032 83.0895 7.49006L81.0661 9.60795V9.68253H85.6499V11H78.9482Z" fill="black"/>
</svg>
