<svg width="117" height="15" viewBox="0 0 117 15" fill="none" xmlns="http://www.w3.org/2000/svg">
<path d="M4.20099 14.0227C3.59446 14.0227 3.07244 13.9432 2.63494 13.7841C2.20076 13.625 1.84612 13.4145 1.57102 13.1527C1.29593 12.8909 1.09044 12.6042 0.954545 12.2926L2.23224 11.7656C2.32173 11.9115 2.44105 12.0656 2.5902 12.228C2.74266 12.3937 2.94815 12.5346 3.20668 12.6506C3.46851 12.7666 3.80492 12.8246 4.21591 12.8246C4.77936 12.8246 5.24503 12.687 5.61293 12.4119C5.98082 12.1402 6.16477 11.706 6.16477 11.1094V9.60795H6.07031C5.98082 9.77036 5.85156 9.95099 5.68253 10.1499C5.51681 10.3487 5.28812 10.5211 4.99645 10.6669C4.70478 10.8127 4.32528 10.8857 3.85795 10.8857C3.25473 10.8857 2.71117 10.7448 2.22727 10.4631C1.74669 10.178 1.36553 9.75876 1.08381 9.20526C0.805398 8.64844 0.666193 7.96401 0.666193 7.15199C0.666193 6.33996 0.803741 5.64394 1.07884 5.06392C1.35724 4.4839 1.7384 4.03977 2.2223 3.73153C2.7062 3.41998 3.25473 3.2642 3.8679 3.2642C4.34186 3.2642 4.72467 3.34375 5.01634 3.50284C5.308 3.65862 5.53504 3.84091 5.69744 4.04972C5.86316 4.25852 5.99077 4.44247 6.08026 4.60156H6.18963V3.36364H7.64631V11.169C7.64631 11.8253 7.49385 12.3639 7.18892 12.7848C6.884 13.2057 6.47135 13.5173 5.95099 13.7195C5.43395 13.9216 4.85062 14.0227 4.20099 14.0227ZM4.18608 9.6527C4.61364 9.6527 4.97491 9.55327 5.26989 9.3544C5.56818 9.15223 5.79356 8.86387 5.94602 8.48935C6.1018 8.11151 6.17969 7.65909 6.17969 7.1321C6.17969 6.61837 6.10346 6.16596 5.95099 5.77486C5.79853 5.38376 5.57481 5.07884 5.27983 4.86009C4.98485 4.63802 4.62027 4.52699 4.18608 4.52699C3.73864 4.52699 3.36577 4.64299 3.06747 4.875C2.76918 5.10369 2.5438 5.41525 2.39134 5.80966C2.24219 6.20407 2.16761 6.64489 2.16761 7.1321C2.16761 7.63258 2.24384 8.07173 2.39631 8.44957C2.54877 8.82741 2.77415 9.1224 3.07244 9.33452C3.37405 9.54664 3.74527 9.6527 4.18608 9.6527ZM9.63991 11V3.36364H11.0767V4.5767H11.1562C11.2955 4.16572 11.5407 3.84257 11.892 3.60724C12.2467 3.36861 12.6477 3.24929 13.0952 3.24929C13.188 3.24929 13.2973 3.2526 13.4233 3.25923C13.5526 3.26586 13.6536 3.27415 13.7266 3.28409V4.70597C13.6669 4.68939 13.5608 4.67116 13.4084 4.65128C13.2559 4.62808 13.1035 4.61648 12.951 4.61648C12.5997 4.61648 12.2865 4.69105 12.0114 4.8402C11.7396 4.98603 11.5241 5.18987 11.3651 5.4517C11.206 5.71023 11.1264 6.00521 11.1264 6.33665V11H9.63991ZM15.013 11V3.36364H16.4995V11H15.013ZM15.7637 2.18537C15.5051 2.18537 15.2831 2.09919 15.0975 1.92685C14.9152 1.75118 14.824 1.54238 14.824 1.30043C14.824 1.05516 14.9152 0.846354 15.0975 0.674005C15.2831 0.498342 15.5051 0.410511 15.7637 0.410511C16.0222 0.410511 16.2426 0.498342 16.4249 0.674005C16.6105 0.846354 16.7033 1.05516 16.7033 1.30043C16.7033 1.54238 16.6105 1.75118 16.4249 1.92685C16.2426 2.09919 16.0222 2.18537 15.7637 2.18537ZM21.358 11.1491C20.7415 11.1491 20.1913 10.9917 19.7074 10.6768C19.2268 10.3587 18.849 9.90625 18.5739 9.3196C18.3021 8.72964 18.1662 8.02202 18.1662 7.19673C18.1662 6.37145 18.3037 5.66548 18.5788 5.07884C18.8572 4.49219 19.2384 4.04309 19.7223 3.73153C20.2062 3.41998 20.7547 3.2642 21.3679 3.2642C21.8419 3.2642 22.223 3.34375 22.5114 3.50284C22.803 3.65862 23.0284 3.84091 23.1875 4.04972C23.3499 4.25852 23.4759 4.44247 23.5653 4.60156H23.6548V0.818182H25.1413V11H23.6896V9.81179H23.5653C23.4759 9.9742 23.3466 10.1598 23.1776 10.3686C23.0118 10.5774 22.7831 10.7597 22.4915 10.9155C22.1998 11.0713 21.822 11.1491 21.358 11.1491ZM21.6861 9.88139C22.1136 9.88139 22.4749 9.7687 22.7699 9.54332C23.0682 9.31463 23.2936 8.99811 23.446 8.59375C23.6018 8.18939 23.6797 7.71875 23.6797 7.18182C23.6797 6.65151 23.6035 6.1875 23.451 5.78977C23.2985 5.39205 23.0748 5.08215 22.7798 4.86009C22.4848 4.63802 22.1203 4.52699 21.6861 4.52699C21.2386 4.52699 20.8658 4.64299 20.5675 4.875C20.2692 5.10701 20.0438 5.42353 19.8913 5.82457C19.7422 6.22562 19.6676 6.67803 19.6676 7.18182C19.6676 7.69223 19.7438 8.15128 19.8963 8.55895C20.0488 8.96662 20.2741 9.28977 20.5724 9.52841C20.8741 9.76373 21.2453 9.88139 21.6861 9.88139ZM31.7623 6.05327V7.34091H27.248V6.05327H31.7623ZM36.6021 11.1491C35.9856 11.1491 35.4354 10.9917 34.9515 10.6768C34.4709 10.3587 34.0931 9.90625 33.818 9.3196C33.5462 8.72964 33.4103 8.02202 33.4103 7.19673C33.4103 6.37145 33.5479 5.66548 33.823 5.07884C34.1014 4.49219 34.4825 4.04309 34.9664 3.73153C35.4503 3.41998 35.9989 3.2642 36.612 3.2642C37.086 3.2642 37.4672 3.34375 37.7555 3.50284C38.0472 3.65862 38.2725 3.84091 38.4316 4.04972C38.594 4.25852 38.72 4.44247 38.8095 4.60156H38.899V0.818182H40.3855V11H38.9338V9.81179H38.8095C38.72 9.9742 38.5907 10.1598 38.4217 10.3686C38.256 10.5774 38.0273 10.7597 37.7356 10.9155C37.444 11.0713 37.0661 11.1491 36.6021 11.1491ZM36.9302 9.88139C37.3578 9.88139 37.719 9.7687 38.014 9.54332C38.3123 9.31463 38.5377 8.99811 38.6902 8.59375C38.8459 8.18939 38.9238 7.71875 38.9238 7.18182C38.9238 6.65151 38.8476 6.1875 38.6951 5.78977C38.5427 5.39205 38.319 5.08215 38.024 4.86009C37.729 4.63802 37.3644 4.52699 36.9302 4.52699C36.4828 4.52699 36.1099 4.64299 35.8116 4.875C35.5133 5.10701 35.2879 5.42353 35.1355 5.82457C34.9863 6.22562 34.9118 6.67803 34.9118 7.18182C34.9118 7.69223 34.988 8.15128 35.1404 8.55895C35.2929 8.96662 35.5183 9.28977 35.8166 9.52841C36.1182 9.76373 36.4894 9.88139 36.9302 9.88139ZM45.7237 11.1541C45.0078 11.1541 44.383 10.9901 43.8494 10.6619C43.3158 10.3338 42.9015 9.87476 42.6065 9.2848C42.3116 8.69484 42.1641 8.00544 42.1641 7.21662C42.1641 6.42448 42.3116 5.73177 42.6065 5.13849C42.9015 4.54522 43.3158 4.08452 43.8494 3.75639C44.383 3.42827 45.0078 3.2642 45.7237 3.2642C46.4396 3.2642 47.0644 3.42827 47.598 3.75639C48.1316 4.08452 48.5459 4.54522 48.8409 5.13849C49.1359 5.73177 49.2834 6.42448 49.2834 7.21662C49.2834 8.00544 49.1359 8.69484 48.8409 9.2848C48.5459 9.87476 48.1316 10.3338 47.598 10.6619C47.0644 10.9901 46.4396 11.1541 45.7237 11.1541ZM45.7287 9.90625C46.1927 9.90625 46.5772 9.78362 46.8821 9.53835C47.187 9.29309 47.4124 8.96662 47.5582 8.55895C47.7074 8.15128 47.782 7.70218 47.782 7.21165C47.782 6.72443 47.7074 6.27699 47.5582 5.86932C47.4124 5.45833 47.187 5.12855 46.8821 4.87997C46.5772 4.63139 46.1927 4.5071 45.7287 4.5071C45.2614 4.5071 44.8736 4.63139 44.5653 4.87997C44.2604 5.12855 44.0334 5.45833 43.8842 5.86932C43.7384 6.27699 43.6655 6.72443 43.6655 7.21165C43.6655 7.70218 43.7384 8.15128 43.8842 8.55895C44.0334 8.96662 44.2604 9.29309 44.5653 9.53835C44.8736 9.78362 45.2614 9.90625 45.7287 9.90625ZM54.5073 3.36364V4.55682H50.3361V3.36364H54.5073ZM51.4547 1.53409H52.9412V8.75781C52.9412 9.04616 52.9843 9.26326 53.0705 9.40909C53.1567 9.55161 53.2677 9.64938 53.4036 9.70241C53.5428 9.75213 53.6936 9.77699 53.856 9.77699C53.9753 9.77699 54.0797 9.7687 54.1692 9.75213C54.2587 9.73556 54.3283 9.7223 54.378 9.71236L54.6465 10.9403C54.5603 10.9735 54.4377 11.0066 54.2786 11.0398C54.1195 11.0762 53.9206 11.0961 53.682 11.0994C53.2909 11.1061 52.9263 11.0365 52.5882 10.8906C52.2502 10.7448 51.9767 10.5194 51.7679 10.2145C51.5591 9.90956 51.4547 9.52675 51.4547 9.06605V1.53409ZM61.7509 5.22798L60.4036 5.46662C60.3472 5.29427 60.2578 5.13021 60.1351 4.97443C60.0158 4.81865 59.8534 4.69105 59.6479 4.59162C59.4424 4.49219 59.1855 4.44247 58.8773 4.44247C58.4564 4.44247 58.1051 4.53693 57.8233 4.72585C57.5416 4.91146 57.4007 5.15175 57.4007 5.44673C57.4007 5.70194 57.4952 5.90743 57.6841 6.06321C57.873 6.21899 58.178 6.34659 58.5989 6.44602L59.812 6.72443C60.5146 6.88684 61.0383 7.13707 61.383 7.47514C61.7277 7.81321 61.9 8.25237 61.9 8.79261C61.9 9.25 61.7675 9.65767 61.5023 10.0156C61.2405 10.3703 60.8742 10.6487 60.4036 10.8509C59.9363 11.053 59.3944 11.1541 58.7779 11.1541C57.9228 11.1541 57.2251 10.9718 56.6848 10.6072C56.1446 10.2393 55.8132 9.71733 55.6905 9.04119L57.1273 8.82244C57.2168 9.19697 57.4007 9.48035 57.6792 9.67259C57.9576 9.86151 58.3205 9.95597 58.7679 9.95597C59.2551 9.95597 59.6446 9.85488 59.9363 9.6527C60.2279 9.44721 60.3738 9.19697 60.3738 8.90199C60.3738 8.66335 60.2843 8.46283 60.1053 8.30043C59.9296 8.13802 59.6595 8.01539 59.2949 7.93253L58.0023 7.64915C57.2897 7.48674 56.7627 7.22822 56.4213 6.87358C56.0833 6.51894 55.9142 6.06984 55.9142 5.52628C55.9142 5.07552 56.0402 4.68111 56.2921 4.34304C56.544 4.00497 56.892 3.74148 57.3361 3.55256C57.7802 3.36032 58.289 3.2642 58.8624 3.2642C59.6877 3.2642 60.3373 3.44318 60.8113 3.80114C61.2852 4.15578 61.5984 4.63139 61.7509 5.22798ZM68.0337 6.05327V7.34091H63.5195V6.05327H68.0337ZM70.1342 11V0.818182H71.6207V4.60156H71.7102C71.7964 4.44247 71.9207 4.25852 72.0831 4.04972C72.2455 3.84091 72.4709 3.65862 72.7592 3.50284C73.0476 3.34375 73.4287 3.2642 73.9027 3.2642C74.5192 3.2642 75.0694 3.41998 75.5533 3.73153C76.0372 4.04309 76.4167 4.49219 76.6918 5.07884C76.9702 5.66548 77.1094 6.37145 77.1094 7.19673C77.1094 8.02202 76.9718 8.72964 76.6967 9.3196C76.4216 9.90625 76.0438 10.3587 75.5632 10.6768C75.0826 10.9917 74.5341 11.1491 73.9176 11.1491C73.4536 11.1491 73.0741 11.0713 72.7791 10.9155C72.4875 10.7597 72.2588 10.5774 72.093 10.3686C71.9273 10.1598 71.7997 9.9742 71.7102 9.81179H71.5859V11H70.1342ZM71.5909 7.18182C71.5909 7.71875 71.6688 8.18939 71.8246 8.59375C71.9804 8.99811 72.2057 9.31463 72.5007 9.54332C72.7957 9.7687 73.157 9.88139 73.5845 9.88139C74.0286 9.88139 74.3999 9.76373 74.6982 9.52841C74.9964 9.28977 75.2218 8.96662 75.3743 8.55895C75.5301 8.15128 75.608 7.69223 75.608 7.18182C75.608 6.67803 75.5317 6.22562 75.3793 5.82457C75.2301 5.42353 75.0047 5.10701 74.7031 4.875C74.4048 4.64299 74.032 4.52699 73.5845 4.52699C73.1536 4.52699 72.7891 4.63802 72.4908 4.86009C72.1958 5.08215 71.9721 5.39205 71.8196 5.78977C71.6671 6.1875 71.5909 6.65151 71.5909 7.18182ZM81.9952 11.1541C81.2793 11.1541 80.6545 10.9901 80.1209 10.6619C79.5873 10.3338 79.173 9.87476 78.878 9.2848C78.583 8.69484 78.4355 8.00544 78.4355 7.21662C78.4355 6.42448 78.583 5.73177 78.878 5.13849C79.173 4.54522 79.5873 4.08452 80.1209 3.75639C80.6545 3.42827 81.2793 3.2642 81.9952 3.2642C82.7111 3.2642 83.3359 3.42827 83.8695 3.75639C84.4031 4.08452 84.8174 4.54522 85.1124 5.13849C85.4074 5.73177 85.5549 6.42448 85.5549 7.21662C85.5549 8.00544 85.4074 8.69484 85.1124 9.2848C84.8174 9.87476 84.4031 10.3338 83.8695 10.6619C83.3359 10.9901 82.7111 11.1541 81.9952 11.1541ZM82.0002 9.90625C82.4642 9.90625 82.8487 9.78362 83.1536 9.53835C83.4585 9.29309 83.6839 8.96662 83.8297 8.55895C83.9789 8.15128 84.0534 7.70218 84.0534 7.21165C84.0534 6.72443 83.9789 6.27699 83.8297 5.86932C83.6839 5.45833 83.4585 5.12855 83.1536 4.87997C82.8487 4.63139 82.4642 4.5071 82.0002 4.5071C81.5328 4.5071 81.1451 4.63139 80.8368 4.87997C80.5319 5.12855 80.3049 5.45833 80.1557 5.86932C80.0099 6.27699 79.937 6.72443 79.937 7.21165C79.937 7.70218 80.0099 8.15128 80.1557 8.55895C80.3049 8.96662 80.5319 9.29309 80.8368 9.53835C81.1451 9.78362 81.5328 9.90625 82.0002 9.90625ZM90.7788 3.36364V4.55682H86.6076V3.36364H90.7788ZM87.7262 1.53409H89.2127V8.75781C89.2127 9.04616 89.2558 9.26326 89.342 9.40909C89.4281 9.55161 89.5392 9.64938 89.6751 9.70241C89.8143 9.75213 89.9651 9.77699 90.1275 9.77699C90.2468 9.77699 90.3512 9.7687 90.4407 9.75213C90.5302 9.73556 90.5998 9.7223 90.6495 9.71236L90.918 10.9403C90.8318 10.9735 90.7092 11.0066 90.5501 11.0398C90.391 11.0762 90.1921 11.0961 89.9535 11.0994C89.5624 11.1061 89.1978 11.0365 88.8597 10.8906C88.5217 10.7448 88.2482 10.5194 88.0394 10.2145C87.8306 9.90956 87.7262 9.52675 87.7262 9.06605V1.53409ZM95.9877 3.36364V4.55682H91.8166V3.36364H95.9877ZM92.9352 1.53409H94.4217V8.75781C94.4217 9.04616 94.4648 9.26326 94.551 9.40909C94.6371 9.55161 94.7482 9.64938 94.8841 9.70241C95.0233 9.75213 95.1741 9.77699 95.3365 9.77699C95.4558 9.77699 95.5602 9.7687 95.6497 9.75213C95.7392 9.73556 95.8088 9.7223 95.8585 9.71236L96.127 10.9403C96.0408 10.9735 95.9181 11.0066 95.7591 11.0398C95.6 11.0762 95.4011 11.0961 95.1625 11.0994C94.7714 11.1061 94.4068 11.0365 94.0687 10.8906C93.7306 10.7448 93.4572 10.5194 93.2484 10.2145C93.0396 9.90956 92.9352 9.52675 92.9352 9.06605V1.53409ZM100.767 11.1541C100.051 11.1541 99.426 10.9901 98.8924 10.6619C98.3588 10.3338 97.9445 9.87476 97.6495 9.2848C97.3545 8.69484 97.207 8.00544 97.207 7.21662C97.207 6.42448 97.3545 5.73177 97.6495 5.13849C97.9445 4.54522 98.3588 4.08452 98.8924 3.75639C99.426 3.42827 100.051 3.2642 100.767 3.2642C101.483 3.2642 102.107 3.42827 102.641 3.75639C103.175 4.08452 103.589 4.54522 103.884 5.13849C104.179 5.73177 104.326 6.42448 104.326 7.21662C104.326 8.00544 104.179 8.69484 103.884 9.2848C103.589 9.87476 103.175 10.3338 102.641 10.6619C102.107 10.9901 101.483 11.1541 100.767 11.1541ZM100.772 9.90625C101.236 9.90625 101.62 9.78362 101.925 9.53835C102.23 9.29309 102.455 8.96662 102.601 8.55895C102.75 8.15128 102.825 7.70218 102.825 7.21165C102.825 6.72443 102.75 6.27699 102.601 5.86932C102.455 5.45833 102.23 5.12855 101.925 4.87997C101.62 4.63139 101.236 4.5071 100.772 4.5071C100.304 4.5071 99.9165 4.63139 99.6083 4.87997C99.3034 5.12855 99.0763 5.45833 98.9272 5.86932C98.7814 6.27699 98.7085 6.72443 98.7085 7.21165C98.7085 7.70218 98.7814 8.15128 98.9272 8.55895C99.0763 8.96662 99.3034 9.29309 99.6083 9.53835C99.9165 9.78362 100.304 9.90625 100.772 9.90625ZM105.986 11V3.36364H107.412V4.60653H107.507C107.666 4.18561 107.926 3.85748 108.287 3.62216C108.649 3.38352 109.081 3.2642 109.585 3.2642C110.095 3.2642 110.523 3.38352 110.868 3.62216C111.216 3.8608 111.473 4.18892 111.638 4.60653H111.718C111.9 4.19886 112.19 3.87405 112.588 3.6321C112.986 3.38684 113.46 3.2642 114.01 3.2642C114.702 3.2642 115.268 3.4813 115.705 3.91548C116.146 4.34967 116.366 5.00426 116.366 5.87926V11H114.88V6.01847C114.88 5.50142 114.739 5.12689 114.457 4.89489C114.175 4.66288 113.839 4.54688 113.448 4.54688C112.964 4.54688 112.588 4.69602 112.319 4.99432C112.051 5.2893 111.917 5.6688 111.917 6.13281V11H110.435V5.92401C110.435 5.50971 110.306 5.17661 110.047 4.92472C109.789 4.67282 109.452 4.54688 109.038 4.54688C108.756 4.54688 108.496 4.62145 108.258 4.7706C108.022 4.91643 107.832 5.12026 107.686 5.3821C107.543 5.64394 107.472 5.94721 107.472 6.2919V11H105.986Z" fill="black"/>
</svg>
