<svg width="68" height="14" viewBox="0 0 68 14" fill="none" xmlns="http://www.w3.org/2000/svg">
<path d="M1.4858 0.818182V11H-0.000710189V0.818182H1.4858ZM5.70792 11.169C5.22402 11.169 4.78652 11.0795 4.39542 10.9006C4.00432 10.7183 3.69442 10.4548 3.46573 10.1101C3.24035 9.76539 3.12766 9.3428 3.12766 8.84233C3.12766 8.41146 3.21052 8.05682 3.37624 7.77841C3.54196 7.5 3.76568 7.27959 4.04741 7.11719C4.32913 6.95478 4.644 6.83215 4.99201 6.74929C5.34002 6.66643 5.69466 6.60346 6.05593 6.56037C6.51332 6.50734 6.88453 6.46425 7.16957 6.43111C7.4546 6.39465 7.66175 6.33665 7.79102 6.2571C7.92028 6.17756 7.98491 6.0483 7.98491 5.86932V5.83452C7.98491 5.40033 7.86228 5.06392 7.61701 4.82528C7.37506 4.58665 7.01379 4.46733 6.5332 4.46733C6.03273 4.46733 5.63832 4.57836 5.34996 4.80043C5.06493 5.01918 4.86772 5.26278 4.75835 5.53125L3.36133 5.21307C3.52705 4.74905 3.769 4.37453 4.08718 4.08949C4.40868 3.80114 4.77823 3.59233 5.19585 3.46307C5.61346 3.33049 6.05262 3.2642 6.51332 3.2642C6.81824 3.2642 7.14139 3.30066 7.48278 3.37358C7.82747 3.44318 8.14897 3.57244 8.44727 3.76136C8.74888 3.95028 8.9958 4.22041 9.18803 4.57173C9.38027 4.91974 9.47639 5.37216 9.47639 5.92898V11H8.02468V9.95597H7.96502C7.8689 10.1482 7.72473 10.3371 7.53249 10.5227C7.34026 10.7083 7.09334 10.8625 6.79173 10.9851C6.49012 11.1077 6.12885 11.169 5.70792 11.169ZM6.03107 9.97585C6.44206 9.97585 6.79338 9.89465 7.08505 9.73224C7.38003 9.56984 7.60375 9.35772 7.75621 9.09588C7.91199 8.83073 7.98988 8.54735 7.98988 8.24574V7.26136C7.93685 7.31439 7.8341 7.36411 7.68164 7.41051C7.53249 7.4536 7.3618 7.49171 7.16957 7.52486C6.97733 7.55469 6.79007 7.58286 6.60778 7.60938C6.42549 7.63258 6.27302 7.65246 6.15039 7.66903C5.86204 7.70549 5.59854 7.76681 5.35991 7.85298C5.12459 7.93916 4.93567 8.06345 4.79315 8.22585C4.65394 8.38494 4.58434 8.59706 4.58434 8.86222C4.58434 9.23011 4.72023 9.50852 4.99201 9.69744C5.26379 9.88305 5.61014 9.97585 6.03107 9.97585ZM12.1225 13.8636C11.9004 13.8636 11.6983 13.8454 11.516 13.8089C11.3337 13.7758 11.1978 13.7393 11.1083 13.6996L11.4663 12.4815C11.738 12.5545 11.98 12.5859 12.1921 12.576C12.4042 12.5661 12.5915 12.4865 12.7539 12.3374C12.9196 12.1882 13.0655 11.9446 13.1914 11.6065L13.3754 11.0994L10.5813 3.36364H12.1722L14.1062 9.28977H14.1857L16.1197 3.36364H17.7156L14.5685 12.0192C14.4227 12.4169 14.2371 12.7533 14.0117 13.0284C13.7863 13.3068 13.5179 13.5156 13.2063 13.6548C12.8948 13.794 12.5335 13.8636 12.1225 13.8636ZM22.0694 11.1541C21.3535 11.1541 20.7288 10.9901 20.1951 10.6619C19.6615 10.3338 19.2472 9.87476 18.9522 9.2848C18.6573 8.69484 18.5098 8.00544 18.5098 7.21662C18.5098 6.42448 18.6573 5.73177 18.9522 5.13849C19.2472 4.54522 19.6615 4.08452 20.1951 3.75639C20.7288 3.42827 21.3535 3.2642 22.0694 3.2642C22.7853 3.2642 23.4101 3.42827 23.9437 3.75639C24.4773 4.08452 24.8916 4.54522 25.1866 5.13849C25.4816 5.73177 25.6291 6.42448 25.6291 7.21662C25.6291 8.00544 25.4816 8.69484 25.1866 9.2848C24.8916 9.87476 24.4773 10.3338 23.9437 10.6619C23.4101 10.9901 22.7853 11.1541 22.0694 11.1541ZM22.0744 9.90625C22.5384 9.90625 22.9229 9.78362 23.2278 9.53835C23.5327 9.29309 23.7581 8.96662 23.9039 8.55895C24.0531 8.15128 24.1277 7.70218 24.1277 7.21165C24.1277 6.72443 24.0531 6.27699 23.9039 5.86932C23.7581 5.45833 23.5327 5.12855 23.2278 4.87997C22.9229 4.63139 22.5384 4.5071 22.0744 4.5071C21.6071 4.5071 21.2193 4.63139 20.911 4.87997C20.6061 5.12855 20.3791 5.45833 20.2299 5.86932C20.0841 6.27699 20.0112 6.72443 20.0112 7.21165C20.0112 7.70218 20.0841 8.15128 20.2299 8.55895C20.3791 8.96662 20.6061 9.29309 20.911 9.53835C21.2193 9.78362 21.6071 9.90625 22.0744 9.90625ZM32.1257 7.8331V3.36364H33.6172V11H32.1555V9.67756H32.076C31.9003 10.0852 31.6186 10.425 31.2308 10.6967C30.8464 10.9652 30.3674 11.0994 29.794 11.0994C29.3035 11.0994 28.8693 10.9917 28.4915 10.7763C28.117 10.5575 27.822 10.2344 27.6065 9.80682C27.3944 9.37926 27.2884 8.85062 27.2884 8.22088V3.36364H28.7749V8.0419C28.7749 8.56226 28.919 8.97656 29.2074 9.2848C29.4957 9.59304 29.8703 9.74716 30.331 9.74716C30.6094 9.74716 30.8861 9.67756 31.1612 9.53835C31.4396 9.39915 31.67 9.18868 31.8523 8.90696C32.0379 8.62524 32.129 8.26728 32.1257 7.8331ZM39.1792 3.36364V4.55682H35.008V3.36364H39.1792ZM36.1266 1.53409H37.6131V8.75781C37.6131 9.04616 37.6562 9.26326 37.7424 9.40909C37.8285 9.55161 37.9396 9.64938 38.0755 9.70241C38.2147 9.75213 38.3655 9.77699 38.5279 9.77699C38.6472 9.77699 38.7516 9.7687 38.8411 9.75213C38.9306 9.73556 39.0002 9.7223 39.0499 9.71236L39.3184 10.9403C39.2322 10.9735 39.1096 11.0066 38.9505 11.0398C38.7914 11.0762 38.5925 11.0961 38.3539 11.0994C37.9628 11.1061 37.5982 11.0365 37.2601 10.8906C36.9221 10.7448 36.6486 10.5194 36.4398 10.2145C36.231 9.90956 36.1266 9.52675 36.1266 9.06605V1.53409ZM45.063 6.05327V7.34091H40.5488V6.05327H45.063ZM48.5307 0.818182V11H47.0442V0.818182H48.5307ZM53.8217 11.1541C53.0694 11.1541 52.4214 10.9934 51.8778 10.6719C51.3376 10.3471 50.92 9.89134 50.625 9.30469C50.3333 8.71473 50.1875 8.02367 50.1875 7.23153C50.1875 6.44934 50.3333 5.75994 50.625 5.16335C50.92 4.56676 51.331 4.10109 51.858 3.76633C52.3883 3.43158 53.008 3.2642 53.7173 3.2642C54.1482 3.2642 54.5658 3.33546 54.9702 3.47798C55.3745 3.6205 55.7375 3.84422 56.0589 4.14915C56.3804 4.45407 56.634 4.85014 56.8196 5.33736C57.0052 5.82126 57.098 6.40956 57.098 7.10227V7.62926H51.0277V6.51562H55.6413C55.6413 6.12453 55.5618 5.77817 55.4027 5.47656C55.2436 5.17164 55.0199 4.93134 54.7315 4.75568C54.4465 4.58002 54.1117 4.49219 53.7273 4.49219C53.3097 4.49219 52.9451 4.59493 52.6335 4.80043C52.3253 5.0026 52.0866 5.26776 51.9176 5.59588C51.7519 5.92069 51.669 6.27367 51.669 6.65483V7.52486C51.669 8.03527 51.7585 8.46946 51.9375 8.82741C52.1198 9.18537 52.3733 9.45881 52.6982 9.64773C53.023 9.83333 53.4025 9.92614 53.8366 9.92614C54.1184 9.92614 54.3752 9.88636 54.6072 9.80682C54.8393 9.72396 55.0398 9.60133 55.2088 9.43892C55.3778 9.27652 55.5071 9.07599 55.5966 8.83736L57.0036 9.09091C56.8909 9.50521 56.6887 9.86813 56.397 10.1797C56.1087 10.4879 55.7457 10.7282 55.3082 10.9006C54.8741 11.0696 54.3786 11.1541 53.8217 11.1541ZM62.3816 3.36364V4.55682H58.0662V3.36364H62.3816ZM59.2495 11V2.47869C59.2495 2.00142 59.3539 1.60535 59.5627 1.29048C59.7715 0.972301 60.0482 0.735322 60.3929 0.579545C60.7376 0.420454 61.1122 0.340908 61.5165 0.340908C61.8148 0.340908 62.07 0.365767 62.2821 0.415483C62.4943 0.461884 62.6517 0.504971 62.7544 0.544744L62.4064 1.74787C62.3368 1.72798 62.2473 1.70478 62.138 1.67827C62.0286 1.64844 61.896 1.63352 61.7402 1.63352C61.379 1.63352 61.1204 1.72301 60.9647 1.90199C60.8122 2.08097 60.736 2.33949 60.736 2.67756V11H59.2495ZM67.4799 3.36364V4.55682H63.3088V3.36364H67.4799ZM64.4274 1.53409H65.9139V8.75781C65.9139 9.04616 65.957 9.26326 66.0431 9.40909C66.1293 9.55161 66.2404 9.64938 66.3762 9.70241C66.5154 9.75213 66.6663 9.77699 66.8287 9.77699C66.948 9.77699 67.0524 9.7687 67.1419 9.75213C67.2314 9.73556 67.301 9.7223 67.3507 9.71236L67.6191 10.9403C67.533 10.9735 67.4103 11.0066 67.2512 11.0398C67.0922 11.0762 66.8933 11.0961 66.6547 11.0994C66.2636 11.1061 65.899 11.0365 65.5609 10.8906C65.2228 10.7448 64.9494 10.5194 64.7406 10.2145C64.5318 9.90956 64.4274 9.52675 64.4274 9.06605V1.53409Z" fill="black"/>
</svg>
