<svg width="111" height="14" viewBox="0 0 111 14" fill="none" xmlns="http://www.w3.org/2000/svg">
<path d="M0.99929 11V3.36364H2.4858V11H0.99929ZM1.75 2.18537C1.49148 2.18537 1.26941 2.09919 1.08381 1.92685C0.901515 1.75118 0.810369 1.54238 0.810369 1.30043C0.810369 1.05516 0.901515 0.846354 1.08381 0.674005C1.26941 0.498342 1.49148 0.410511 1.75 0.410511C2.00852 0.410511 2.22893 0.498342 2.41122 0.674005C2.59683 0.846354 2.68963 1.05516 2.68963 1.30043C2.68963 1.54238 2.59683 1.75118 2.41122 1.92685C2.22893 2.09919 2.00852 2.18537 1.75 2.18537ZM5.97212 6.46591V11H4.48562V3.36364H5.91246V4.60653H6.00692C6.18259 4.20218 6.45768 3.87737 6.83221 3.6321C7.21005 3.38684 7.68567 3.2642 8.25906 3.2642C8.77942 3.2642 9.23514 3.37358 9.62624 3.59233C10.0173 3.80777 10.3206 4.12926 10.536 4.55682C10.7515 4.98437 10.8592 5.51302 10.8592 6.14276V11H9.37269V6.32173C9.37269 5.76823 9.22852 5.3357 8.94016 5.02415C8.65181 4.70928 8.25574 4.55185 7.75195 4.55185C7.40726 4.55185 7.10067 4.62642 6.83221 4.77557C6.56706 4.92472 6.35659 5.14347 6.20082 5.43182C6.04835 5.71686 5.97212 6.06155 5.97212 6.46591ZM16.4174 3.36364V4.55682H12.2463V3.36364H16.4174ZM13.3649 1.53409H14.8514V8.75781C14.8514 9.04616 14.8945 9.26326 14.9806 9.40909C15.0668 9.55161 15.1779 9.64938 15.3137 9.70241C15.4529 9.75213 15.6038 9.77699 15.7662 9.77699C15.8855 9.77699 15.9899 9.7687 16.0794 9.75213C16.1689 9.73556 16.2385 9.7223 16.2882 9.71236L16.5566 10.9403C16.4705 10.9735 16.3478 11.0066 16.1887 11.0398C16.0297 11.0762 15.8308 11.0961 15.5922 11.0994C15.2011 11.1061 14.8365 11.0365 14.4984 10.8906C14.1603 10.7448 13.8869 10.5194 13.6781 10.2145C13.4693 9.90956 13.3649 9.52675 13.3649 9.06605V1.53409ZM21.271 11.1541C20.5186 11.1541 19.8706 10.9934 19.3271 10.6719C18.7868 10.3471 18.3692 9.89134 18.0742 9.30469C17.7826 8.71473 17.6367 8.02367 17.6367 7.23153C17.6367 6.44934 17.7826 5.75994 18.0742 5.16335C18.3692 4.56676 18.7802 4.10109 19.3072 3.76633C19.8375 3.43158 20.4573 3.2642 21.1665 3.2642C21.5974 3.2642 22.015 3.33546 22.4194 3.47798C22.8237 3.6205 23.1867 3.84422 23.5082 4.14915C23.8297 4.45407 24.0832 4.85014 24.2688 5.33736C24.4544 5.82126 24.5472 6.40956 24.5472 7.10227V7.62926H18.4769V6.51562H23.0906C23.0906 6.12453 23.011 5.77817 22.8519 5.47656C22.6928 5.17164 22.4691 4.93134 22.1808 4.75568C21.8957 4.58002 21.561 4.49219 21.1765 4.49219C20.7589 4.49219 20.3943 4.59493 20.0827 4.80043C19.7745 5.0026 19.5359 5.26776 19.3668 5.59588C19.2011 5.92069 19.1183 6.27367 19.1183 6.65483V7.52486C19.1183 8.03527 19.2077 8.46946 19.3867 8.82741C19.569 9.18537 19.8226 9.45881 20.1474 9.64773C20.4722 9.83333 20.8517 9.92614 21.2859 9.92614C21.5676 9.92614 21.8245 9.88636 22.0565 9.80682C22.2885 9.72396 22.489 9.60133 22.658 9.43892C22.8271 9.27652 22.9563 9.07599 23.0458 8.83736L24.4528 9.09091C24.3401 9.50521 24.1379 9.86813 23.8462 10.1797C23.5579 10.4879 23.195 10.7282 22.7575 10.9006C22.3233 11.0696 21.8278 11.1541 21.271 11.1541ZM26.1966 11V3.36364H27.6333V4.5767H27.7129C27.8521 4.16572 28.0974 3.84257 28.4487 3.60724C28.8033 3.36861 29.2044 3.24929 29.6518 3.24929C29.7446 3.24929 29.854 3.2526 29.9799 3.25923C30.1092 3.26586 30.2103 3.27415 30.2832 3.28409V4.70597C30.2235 4.68939 30.1175 4.67116 29.965 4.65128C29.8126 4.62808 29.6601 4.61648 29.5076 4.61648C29.1563 4.61648 28.8431 4.69105 28.568 4.8402C28.2962 4.98603 28.0808 5.18987 27.9217 5.4517C27.7626 5.71023 27.6831 6.00521 27.6831 6.33665V11H26.1966ZM37.2919 5.22798L35.9446 5.46662C35.8883 5.29427 35.7988 5.13021 35.6761 4.97443C35.5568 4.81865 35.3944 4.69105 35.1889 4.59162C34.9834 4.49219 34.7266 4.44247 34.4183 4.44247C33.9974 4.44247 33.6461 4.53693 33.3643 4.72585C33.0826 4.91146 32.9418 5.15175 32.9418 5.44673C32.9418 5.70194 33.0362 5.90743 33.2251 6.06321C33.4141 6.21899 33.719 6.34659 34.1399 6.44602L35.353 6.72443C36.0556 6.88684 36.5793 7.13707 36.924 7.47514C37.2687 7.81321 37.4411 8.25237 37.4411 8.79261C37.4411 9.25 37.3085 9.65767 37.0433 10.0156C36.7815 10.3703 36.4152 10.6487 35.9446 10.8509C35.4773 11.053 34.9354 11.1541 34.3189 11.1541C33.4638 11.1541 32.7661 10.9718 32.2259 10.6072C31.6856 10.2393 31.3542 9.71733 31.2315 9.04119L32.6683 8.82244C32.7578 9.19697 32.9418 9.48035 33.2202 9.67259C33.4986 9.86151 33.8615 9.95597 34.3089 9.95597C34.7962 9.95597 35.1856 9.85488 35.4773 9.6527C35.7689 9.44721 35.9148 9.19697 35.9148 8.90199C35.9148 8.66335 35.8253 8.46283 35.6463 8.30043C35.4706 8.13802 35.2005 8.01539 34.8359 7.93253L33.5433 7.64915C32.8307 7.48674 32.3037 7.22822 31.9624 6.87358C31.6243 6.51894 31.4553 6.06984 31.4553 5.52628C31.4553 5.07552 31.5812 4.68111 31.8331 4.34304C32.085 4.00497 32.433 3.74148 32.8771 3.55256C33.3213 3.36032 33.83 3.2642 34.4034 3.2642C35.2287 3.2642 35.8783 3.44318 36.3523 3.80114C36.8262 4.15578 37.1394 4.63139 37.2919 5.22798ZM42.3667 11.1541C41.6143 11.1541 40.9663 10.9934 40.4228 10.6719C39.8825 10.3471 39.4649 9.89134 39.1699 9.30469C38.8783 8.71473 38.7324 8.02367 38.7324 7.23153C38.7324 6.44934 38.8783 5.75994 39.1699 5.16335C39.4649 4.56676 39.8759 4.10109 40.4029 3.76633C40.9332 3.43158 41.553 3.2642 42.2623 3.2642C42.6931 3.2642 43.1107 3.33546 43.5151 3.47798C43.9194 3.6205 44.2824 3.84422 44.6039 4.14915C44.9254 4.45407 45.1789 4.85014 45.3645 5.33736C45.5501 5.82126 45.6429 6.40956 45.6429 7.10227V7.62926H39.5726V6.51562H44.1863C44.1863 6.12453 44.1067 5.77817 43.9476 5.47656C43.7885 5.17164 43.5648 4.93134 43.2765 4.75568C42.9914 4.58002 42.6567 4.49219 42.2722 4.49219C41.8546 4.49219 41.49 4.59493 41.1784 4.80043C40.8702 5.0026 40.6316 5.26776 40.4625 5.59588C40.2968 5.92069 40.214 6.27367 40.214 6.65483V7.52486C40.214 8.03527 40.3034 8.46946 40.4824 8.82741C40.6647 9.18537 40.9183 9.45881 41.2431 9.64773C41.5679 9.83333 41.9474 9.92614 42.3816 9.92614C42.6633 9.92614 42.9202 9.88636 43.1522 9.80682C43.3842 9.72396 43.5847 9.60133 43.7537 9.43892C43.9228 9.27652 44.052 9.07599 44.1415 8.83736L45.5485 9.09091C45.4358 9.50521 45.2336 9.86813 44.9419 10.1797C44.6536 10.4879 44.2907 10.7282 43.8532 10.9006C43.419 11.0696 42.9235 11.1541 42.3667 11.1541ZM50.5089 11.1541C49.7698 11.1541 49.1334 10.9867 48.5998 10.652C48.0695 10.3139 47.6618 9.84825 47.3768 9.25497C47.0917 8.66169 46.9492 7.98224 46.9492 7.21662C46.9492 6.44105 47.0951 5.75663 47.3867 5.16335C47.6784 4.56676 48.0894 4.10109 48.6197 3.76633C49.15 3.43158 49.7747 3.2642 50.494 3.2642C51.074 3.2642 51.591 3.37192 52.0451 3.58736C52.4992 3.79948 52.8654 4.09777 53.1438 4.48224C53.4255 4.86671 53.5929 5.31581 53.646 5.82955H52.1992C52.1197 5.47159 51.9374 5.16335 51.6523 4.90483C51.3706 4.64631 50.9928 4.51705 50.5188 4.51705C50.1045 4.51705 49.7416 4.62642 49.43 4.84517C49.1218 5.06061 48.8815 5.36884 48.7092 5.76989C48.5368 6.16761 48.4506 6.63826 48.4506 7.18182C48.4506 7.73864 48.5352 8.21922 48.7042 8.62358C48.8732 9.02794 49.1119 9.34115 49.4201 9.56321C49.7317 9.78527 50.0979 9.89631 50.5188 9.89631C50.8005 9.89631 51.0558 9.84493 51.2844 9.74219C51.5165 9.63613 51.7103 9.48532 51.8661 9.28977C52.0252 9.09422 52.1362 8.8589 52.1992 8.58381H53.646C53.5929 9.07765 53.4322 9.51847 53.1637 9.90625C52.8952 10.294 52.5356 10.599 52.0849 10.821C51.6374 11.0431 51.1121 11.1541 50.5089 11.1541ZM58.8002 3.36364V4.55682H54.6291V3.36364H58.8002ZM55.7477 1.53409H57.2342V8.75781C57.2342 9.04616 57.2773 9.26326 57.3635 9.40909C57.4496 9.55161 57.5607 9.64938 57.6966 9.70241C57.8358 9.75213 57.9866 9.77699 58.149 9.77699C58.2683 9.77699 58.3727 9.7687 58.4622 9.75213C58.5517 9.73556 58.6213 9.7223 58.671 9.71236L58.9395 10.9403C58.8533 10.9735 58.7306 11.0066 58.5716 11.0398C58.4125 11.0762 58.2136 11.0961 57.975 11.0994C57.5839 11.1061 57.2193 11.0365 56.8812 10.8906C56.5431 10.7448 56.2697 10.5194 56.0609 10.2145C55.8521 9.90956 55.7477 9.52675 55.7477 9.06605V1.53409ZM64.6841 6.05327V7.34091H60.1699V6.05327H64.6841ZM72.3876 5.22798L71.0403 5.46662C70.984 5.29427 70.8945 5.13021 70.7718 4.97443C70.6525 4.81865 70.4901 4.69105 70.2846 4.59162C70.0791 4.49219 69.8223 4.44247 69.514 4.44247C69.0931 4.44247 68.7418 4.53693 68.46 4.72585C68.1783 4.91146 68.0375 5.15175 68.0375 5.44673C68.0375 5.70194 68.1319 5.90743 68.3208 6.06321C68.5098 6.21899 68.8147 6.34659 69.2356 6.44602L70.4487 6.72443C71.1513 6.88684 71.675 7.13707 72.0197 7.47514C72.3644 7.81321 72.5368 8.25237 72.5368 8.79261C72.5368 9.25 72.4042 9.65767 72.139 10.0156C71.8772 10.3703 71.5109 10.6487 71.0403 10.8509C70.573 11.053 70.0311 11.1541 69.4146 11.1541C68.5595 11.1541 67.8618 10.9718 67.3216 10.6072C66.7813 10.2393 66.4499 9.71733 66.3272 9.04119L67.764 8.82244C67.8535 9.19697 68.0375 9.48035 68.3159 9.67259C68.5943 9.86151 68.9572 9.95597 69.4047 9.95597C69.8919 9.95597 70.2813 9.85488 70.573 9.6527C70.8646 9.44721 71.0105 9.19697 71.0105 8.90199C71.0105 8.66335 70.921 8.46283 70.742 8.30043C70.5663 8.13802 70.2962 8.01539 69.9316 7.93253L68.639 7.64915C67.9264 7.48674 67.3994 7.22822 67.0581 6.87358C66.72 6.51894 66.551 6.06984 66.551 5.52628C66.551 5.07552 66.6769 4.68111 66.9288 4.34304C67.1807 4.00497 67.5287 3.74148 67.9728 3.55256C68.417 3.36032 68.9257 3.2642 69.4991 3.2642C70.3244 3.2642 70.974 3.44318 71.448 3.80114C71.9219 4.15578 72.2351 4.63139 72.3876 5.22798ZM79.3267 13.8636V9.81179H79.2372C79.1477 9.9742 79.0185 10.1598 78.8494 10.3686C78.6837 10.5774 78.455 10.7597 78.1634 10.9155C77.8717 11.0713 77.4938 11.1491 77.0298 11.1491C76.4134 11.1491 75.8632 10.9917 75.3793 10.6768C74.8987 10.3587 74.5208 9.90625 74.2457 9.3196C73.974 8.72964 73.8381 8.02202 73.8381 7.19673C73.8381 6.37145 73.9756 5.66548 74.2507 5.07884C74.5291 4.49219 74.9103 4.04309 75.3942 3.73153C75.8781 3.41998 76.4266 3.2642 77.0398 3.2642C77.5137 3.2642 77.8949 3.34375 78.1832 3.50284C78.4749 3.65862 78.7003 3.84091 78.8594 4.04972C79.0218 4.25852 79.1477 4.44247 79.2372 4.60156H79.3615V3.36364H80.8132V13.8636H79.3267ZM77.358 9.88139C77.7855 9.88139 78.1468 9.7687 78.4418 9.54332C78.7401 9.31463 78.9654 8.99811 79.1179 8.59375C79.2737 8.18939 79.3516 7.71875 79.3516 7.18182C79.3516 6.65151 79.2753 6.1875 79.1229 5.78977C78.9704 5.39205 78.7467 5.08215 78.4517 4.86009C78.1567 4.63802 77.7921 4.52699 77.358 4.52699C76.9105 4.52699 76.5376 4.64299 76.2393 4.875C75.9411 5.10701 75.7157 5.42353 75.5632 5.82457C75.4141 6.22562 75.3395 6.67803 75.3395 7.18182C75.3395 7.69223 75.4157 8.15128 75.5682 8.55895C75.7206 8.96662 75.946 9.28977 76.2443 9.52841C76.5459 9.76373 76.9171 9.88139 77.358 9.88139ZM87.6491 7.8331V3.36364H89.1406V11H87.679V9.67756H87.5994C87.4238 10.0852 87.142 10.425 86.7543 10.6967C86.3698 10.9652 85.8909 11.0994 85.3175 11.0994C84.8269 11.0994 84.3928 10.9917 84.0149 10.7763C83.6404 10.5575 83.3454 10.2344 83.13 9.80682C82.9179 9.37926 82.8118 8.85062 82.8118 8.22088V3.36364H84.2983V8.0419C84.2983 8.56226 84.4425 8.97656 84.7308 9.2848C85.0192 9.59304 85.3937 9.74716 85.8544 9.74716C86.1328 9.74716 86.4096 9.67756 86.6847 9.53835C86.9631 9.39915 87.1934 9.18868 87.3757 8.90696C87.5613 8.62524 87.6525 8.26728 87.6491 7.8331ZM93.3603 11.169C92.8764 11.169 92.4389 11.0795 92.0478 10.9006C91.6567 10.7183 91.3468 10.4548 91.1181 10.1101C90.8927 9.76539 90.78 9.3428 90.78 8.84233C90.78 8.41146 90.8629 8.05682 91.0286 7.77841C91.1943 7.5 91.418 7.27959 91.6998 7.11719C91.9815 6.95478 92.2963 6.83215 92.6444 6.74929C92.9924 6.66643 93.347 6.60346 93.7083 6.56037C94.1657 6.50734 94.5369 6.46425 94.8219 6.43111C95.1069 6.39465 95.3141 6.33665 95.4434 6.2571C95.5726 6.17756 95.6373 6.0483 95.6373 5.86932V5.83452C95.6373 5.40033 95.5146 5.06392 95.2694 4.82528C95.0274 4.58665 94.6661 4.46733 94.1855 4.46733C93.6851 4.46733 93.2907 4.57836 93.0023 4.80043C92.7173 5.01918 92.5201 5.26278 92.4107 5.53125L91.0137 5.21307C91.1794 4.74905 91.4213 4.37453 91.7395 4.08949C92.061 3.80114 92.4306 3.59233 92.8482 3.46307C93.2658 3.33049 93.705 3.2642 94.1657 3.2642C94.4706 3.2642 94.7937 3.30066 95.1351 3.37358C95.4798 3.44318 95.8013 3.57244 96.0996 3.76136C96.4012 3.95028 96.6481 4.22041 96.8404 4.57173C97.0326 4.91974 97.1287 5.37216 97.1287 5.92898V11H95.677V9.95597H95.6174C95.5212 10.1482 95.3771 10.3371 95.1848 10.5227C94.9926 10.7083 94.7457 10.8625 94.4441 10.9851C94.1425 11.1077 93.7812 11.169 93.3603 11.169ZM93.6834 9.97585C94.0944 9.97585 94.4457 9.89465 94.7374 9.73224C95.0324 9.56984 95.2561 9.35772 95.4086 9.09588C95.5643 8.83073 95.6422 8.54735 95.6422 8.24574V7.26136C95.5892 7.31439 95.4864 7.36411 95.334 7.41051C95.1848 7.4536 95.0141 7.49171 94.8219 7.52486C94.6297 7.55469 94.4424 7.58286 94.2601 7.60938C94.0778 7.63258 93.9254 7.65246 93.8027 7.66903C93.5144 7.70549 93.2509 7.76681 93.0123 7.85298C92.7769 7.93916 92.588 8.06345 92.4455 8.22585C92.3063 8.38494 92.2367 8.59706 92.2367 8.86222C92.2367 9.23011 92.3726 9.50852 92.6444 9.69744C92.9161 9.88305 93.2625 9.97585 93.6834 9.97585ZM99.1087 11V3.36364H100.545V4.5767H100.625C100.764 4.16572 101.009 3.84257 101.361 3.60724C101.715 3.36861 102.116 3.24929 102.564 3.24929C102.657 3.24929 102.766 3.2526 102.892 3.25923C103.021 3.26586 103.122 3.27415 103.195 3.28409V4.70597C103.136 4.68939 103.03 4.67116 102.877 4.65128C102.725 4.62808 102.572 4.61648 102.42 4.61648C102.068 4.61648 101.755 4.69105 101.48 4.8402C101.208 4.98603 100.993 5.18987 100.834 5.4517C100.675 5.71023 100.595 6.00521 100.595 6.33665V11H99.1087ZM107.499 11.1541C106.747 11.1541 106.099 10.9934 105.556 10.6719C105.015 10.3471 104.598 9.89134 104.303 9.30469C104.011 8.71473 103.865 8.02367 103.865 7.23153C103.865 6.44934 104.011 5.75994 104.303 5.16335C104.598 4.56676 105.009 4.10109 105.536 3.76633C106.066 3.43158 106.686 3.2642 107.395 3.2642C107.826 3.2642 108.244 3.33546 108.648 3.47798C109.052 3.6205 109.415 3.84422 109.737 4.14915C110.058 4.45407 110.312 4.85014 110.497 5.33736C110.683 5.82126 110.776 6.40956 110.776 7.10227V7.62926H104.705V6.51562H109.319C109.319 6.12453 109.24 5.77817 109.08 5.47656C108.921 5.17164 108.698 4.93134 108.409 4.75568C108.124 4.58002 107.789 4.49219 107.405 4.49219C106.987 4.49219 106.623 4.59493 106.311 4.80043C106.003 5.0026 105.764 5.26776 105.595 5.59588C105.43 5.92069 105.347 6.27367 105.347 6.65483V7.52486C105.347 8.03527 105.436 8.46946 105.615 8.82741C105.798 9.18537 106.051 9.45881 106.376 9.64773C106.701 9.83333 107.08 9.92614 107.514 9.92614C107.796 9.92614 108.053 9.88636 108.285 9.80682C108.517 9.72396 108.718 9.60133 108.887 9.43892C109.056 9.27652 109.185 9.07599 109.274 8.83736L110.681 9.09091C110.569 9.50521 110.366 9.86813 110.075 10.1797C109.786 10.4879 109.423 10.7282 108.986 10.9006C108.552 11.0696 108.056 11.1541 107.499 11.1541Z" fill="black"/>
</svg>
