<svg width="77" height="12" viewBox="0 0 77 12" fill="none" xmlns="http://www.w3.org/2000/svg">
<path d="M4.21591 11.1541C3.4768 11.1541 2.84044 10.9867 2.30682 10.652C1.77652 10.3139 1.36884 9.84825 1.08381 9.25497C0.798769 8.66169 0.65625 7.98224 0.65625 7.21662C0.65625 6.44105 0.802083 5.75663 1.09375 5.16335C1.38542 4.56676 1.7964 4.10109 2.3267 3.76633C2.85701 3.43158 3.48177 3.2642 4.20099 3.2642C4.78101 3.2642 5.29806 3.37192 5.75213 3.58736C6.2062 3.79948 6.57244 4.09777 6.85085 4.48224C7.13258 4.86671 7.29995 5.31581 7.35298 5.82955H5.90625C5.8267 5.47159 5.64441 5.16335 5.35938 4.90483C5.07765 4.64631 4.69981 4.51705 4.22585 4.51705C3.81155 4.51705 3.44863 4.62642 3.13707 4.84517C2.82884 5.06061 2.58854 5.36884 2.41619 5.76989C2.24384 6.16761 2.15767 6.63826 2.15767 7.18182C2.15767 7.73864 2.24219 8.21922 2.41122 8.62358C2.58026 9.02794 2.81889 9.34115 3.12713 9.56321C3.43868 9.78527 3.80492 9.89631 4.22585 9.89631C4.50758 9.89631 4.76278 9.84493 4.99148 9.74219C5.22349 9.63613 5.41738 9.48532 5.57315 9.28977C5.73224 9.09422 5.84328 8.8589 5.90625 8.58381H7.35298C7.29995 9.07765 7.1392 9.51847 6.87074 9.90625C6.60227 10.294 6.24266 10.599 5.7919 10.821C5.34446 11.0431 4.81913 11.1541 4.21591 11.1541ZM12.1593 11.1541C11.4434 11.1541 10.8186 10.9901 10.285 10.6619C9.75136 10.3338 9.33706 9.87476 9.04208 9.2848C8.7471 8.69484 8.59961 8.00544 8.59961 7.21662C8.59961 6.42448 8.7471 5.73177 9.04208 5.13849C9.33706 4.54522 9.75136 4.08452 10.285 3.75639C10.8186 3.42827 11.4434 3.2642 12.1593 3.2642C12.8752 3.2642 13.4999 3.42827 14.0336 3.75639C14.5672 4.08452 14.9815 4.54522 15.2765 5.13849C15.5714 5.73177 15.7189 6.42448 15.7189 7.21662C15.7189 8.00544 15.5714 8.69484 15.2765 9.2848C14.9815 9.87476 14.5672 10.3338 14.0336 10.6619C13.4999 10.9901 12.8752 11.1541 12.1593 11.1541ZM12.1642 9.90625C12.6283 9.90625 13.0127 9.78362 13.3176 9.53835C13.6226 9.29309 13.848 8.96662 13.9938 8.55895C14.1429 8.15128 14.2175 7.70218 14.2175 7.21165C14.2175 6.72443 14.1429 6.27699 13.9938 5.86932C13.848 5.45833 13.6226 5.12855 13.3176 4.87997C13.0127 4.63139 12.6283 4.5071 12.1642 4.5071C11.6969 4.5071 11.3091 4.63139 11.0009 4.87997C10.696 5.12855 10.4689 5.45833 10.3198 5.86932C10.1739 6.27699 10.101 6.72443 10.101 7.21165C10.101 7.70218 10.1739 8.15128 10.3198 8.55895C10.4689 8.96662 10.696 9.29309 11.0009 9.53835C11.3091 9.78362 11.6969 9.90625 12.1642 9.90625ZM18.8647 0.818182V11H17.3782V0.818182H18.8647ZM25.7019 7.8331V3.36364H27.1934V11H25.7317V9.67756H25.6522C25.4765 10.0852 25.1948 10.425 24.807 10.6967C24.4225 10.9652 23.9436 11.0994 23.3702 11.0994C22.8797 11.0994 22.4455 10.9917 22.0676 10.7763C21.6931 10.5575 21.3981 10.2344 21.1827 9.80682C20.9706 9.37926 20.8645 8.85062 20.8645 8.22088V3.36364H22.351V8.0419C22.351 8.56226 22.4952 8.97656 22.7836 9.2848C23.0719 9.59304 23.4464 9.74716 23.9071 9.74716C24.1855 9.74716 24.4623 9.67756 24.7374 9.53835C25.0158 9.39915 25.2462 9.18868 25.4284 8.90696C25.6141 8.62524 25.7052 8.26728 25.7019 7.8331ZM29.1907 11V3.36364H30.6175V4.60653H30.712C30.8711 4.18561 31.1313 3.85748 31.4925 3.62216C31.8538 3.38352 32.2863 3.2642 32.7901 3.2642C33.3005 3.2642 33.7281 3.38352 34.0728 3.62216C34.4208 3.8608 34.6777 4.18892 34.8434 4.60653H34.9229C35.1052 4.19886 35.3952 3.87405 35.793 3.6321C36.1907 3.38684 36.6647 3.2642 37.2148 3.2642C37.9076 3.2642 38.4727 3.4813 38.9102 3.91548C39.351 4.34967 39.5714 5.00426 39.5714 5.87926V11H38.0849V6.01847C38.0849 5.50142 37.944 5.12689 37.6623 4.89489C37.3806 4.66288 37.0442 4.54688 36.6531 4.54688C36.1692 4.54688 35.793 4.69602 35.5245 4.99432C35.256 5.2893 35.1218 5.6688 35.1218 6.13281V11H33.6403V5.92401C33.6403 5.50971 33.511 5.17661 33.2525 4.92472C32.994 4.67282 32.6576 4.54688 32.2433 4.54688C31.9615 4.54688 31.7013 4.62145 31.4627 4.7706C31.2274 4.91643 31.0368 5.12026 30.891 5.3821C30.7485 5.64394 30.6772 5.94721 30.6772 6.2919V11H29.1907ZM43.0502 6.46591V11H41.5637V3.36364H42.9906V4.60653H43.085C43.2607 4.20218 43.5358 3.87737 43.9103 3.6321C44.2882 3.38684 44.7638 3.2642 45.3372 3.2642C45.8575 3.2642 46.3133 3.37358 46.7044 3.59233C47.0955 3.80777 47.3987 4.12926 47.6142 4.55682C47.8296 4.98437 47.9373 5.51302 47.9373 6.14276V11H46.4508V6.32173C46.4508 5.76823 46.3066 5.3357 46.0183 5.02415C45.7299 4.70928 45.3339 4.55185 44.8301 4.55185C44.4854 4.55185 44.1788 4.62642 43.9103 4.77557C43.6452 4.92472 43.4347 5.14347 43.2789 5.43182C43.1265 5.71686 43.0502 6.06155 43.0502 6.46591ZM55.6532 5.22798L54.3059 5.46662C54.2496 5.29427 54.1601 5.13021 54.0375 4.97443C53.9181 4.81865 53.7557 4.69105 53.5502 4.59162C53.3448 4.49219 53.0879 4.44247 52.7797 4.44247C52.3587 4.44247 52.0074 4.53693 51.7257 4.72585C51.444 4.91146 51.3031 5.15175 51.3031 5.44673C51.3031 5.70194 51.3975 5.90743 51.5865 6.06321C51.7754 6.21899 52.0803 6.34659 52.5012 6.44602L53.7143 6.72443C54.417 6.88684 54.9406 7.13707 55.2853 7.47514C55.63 7.81321 55.8024 8.25237 55.8024 8.79261C55.8024 9.25 55.6698 9.65767 55.4047 10.0156C55.1428 10.3703 54.7766 10.6487 54.3059 10.8509C53.8386 11.053 53.2967 11.1541 52.6802 11.1541C51.8251 11.1541 51.1274 10.9718 50.5872 10.6072C50.0469 10.2393 49.7155 9.71733 49.5929 9.04119L51.0297 8.82244C51.1191 9.19697 51.3031 9.48035 51.5815 9.67259C51.8599 9.86151 52.2228 9.95597 52.6703 9.95597C53.1575 9.95597 53.5469 9.85488 53.8386 9.6527C54.1303 9.44721 54.2761 9.19697 54.2761 8.90199C54.2761 8.66335 54.1866 8.46283 54.0076 8.30043C53.832 8.13802 53.5618 8.01539 53.1973 7.93253L51.9047 7.64915C51.1921 7.48674 50.6651 7.22822 50.3237 6.87358C49.9856 6.51894 49.8166 6.06984 49.8166 5.52628C49.8166 5.07552 49.9425 4.68111 50.1944 4.34304C50.4463 4.00497 50.7943 3.74148 51.2385 3.55256C51.6826 3.36032 52.1913 3.2642 52.7647 3.2642C53.59 3.2642 54.2396 3.44318 54.7136 3.80114C55.1876 4.15578 55.5008 4.63139 55.6532 5.22798ZM61.9361 6.05327V7.34091H57.4219V6.05327H61.9361ZM67.4421 11.169C66.6566 11.1657 65.9854 10.9586 65.4286 10.5476C64.8718 10.1366 64.4459 9.53835 64.1509 8.75284C63.8559 7.96733 63.7085 7.02107 63.7085 5.91406C63.7085 4.81037 63.8559 3.86742 64.1509 3.08523C64.4492 2.30303 64.8768 1.70644 65.4336 1.29545C65.9937 0.884469 66.6632 0.678977 67.4421 0.678977C68.221 0.678977 68.8888 0.886126 69.4457 1.30043C70.0025 1.71141 70.4284 2.308 70.7234 3.0902C71.0217 3.86908 71.1708 4.81037 71.1708 5.91406C71.1708 7.02438 71.0233 7.9723 70.7283 8.75781C70.4334 9.54001 70.0075 10.1383 69.4506 10.5526C68.8938 10.9635 68.2243 11.169 67.4421 11.169ZM67.4421 9.84162C68.1315 9.84162 68.6701 9.50521 69.0579 8.83239C69.449 8.15956 69.6445 7.18679 69.6445 5.91406C69.6445 5.06889 69.555 4.35464 69.3761 3.77131C69.2004 3.18466 68.9469 2.74053 68.6154 2.43892C68.2873 2.134 67.8962 1.98153 67.4421 1.98153C66.756 1.98153 66.2174 2.3196 65.8263 2.99574C65.4353 3.67187 65.238 4.64465 65.2347 5.91406C65.2347 6.76255 65.3226 7.48011 65.4982 8.06676C65.6772 8.65009 65.9308 9.09257 66.2589 9.39418C66.587 9.69247 66.9814 9.84162 67.4421 9.84162ZM76.7974 0.818182V11H75.2562V2.35938H75.1966L72.7605 3.95028V2.47869L75.301 0.818182H76.7974Z" fill="black"/>
</svg>
