<svg width="117" height="15" viewBox="0 0 117 15" fill="none" xmlns="http://www.w3.org/2000/svg">
<path d="M4.63352 3.36364V4.55682H0.318182V3.36364H4.63352ZM1.50142 11V2.47869C1.50142 2.00142 1.60582 1.60535 1.81463 1.29048C2.02344 0.972301 2.30019 0.735322 2.64489 0.579545C2.98958 0.420454 3.36411 0.340908 3.76847 0.340908C4.06676 0.340908 4.32197 0.365767 4.53409 0.415483C4.74621 0.461884 4.90365 0.504971 5.00639 0.544744L4.65838 1.74787C4.58878 1.72798 4.49929 1.70478 4.38991 1.67827C4.28054 1.64844 4.14796 1.63352 3.99219 1.63352C3.63092 1.63352 3.3724 1.72301 3.21662 1.90199C3.06416 2.08097 2.98793 2.33949 2.98793 2.67756V11H1.50142ZM7.65376 0.818182V11H6.16726V0.818182H7.65376ZM12.9448 11.1541C12.1924 11.1541 11.5444 10.9934 11.0009 10.6719C10.4606 10.3471 10.043 9.89134 9.74805 9.30469C9.45638 8.71473 9.31055 8.02367 9.31055 7.23153C9.31055 6.44934 9.45638 5.75994 9.74805 5.16335C10.043 4.56676 10.454 4.10109 10.981 3.76633C11.5113 3.43158 12.1311 3.2642 12.8404 3.2642C13.2712 3.2642 13.6889 3.33546 14.0932 3.47798C14.4976 3.6205 14.8605 3.84422 15.182 4.14915C15.5035 4.45407 15.757 4.85014 15.9426 5.33736C16.1283 5.82126 16.2211 6.40956 16.2211 7.10227V7.62926H10.1507V6.51562H14.7644C14.7644 6.12453 14.6848 5.77817 14.5257 5.47656C14.3667 5.17164 14.1429 4.93134 13.8546 4.75568C13.5695 4.58002 13.2348 4.49219 12.8503 4.49219C12.4327 4.49219 12.0681 4.59493 11.7566 4.80043C11.4483 5.0026 11.2097 5.26776 11.0407 5.59588C10.8749 5.92069 10.7921 6.27367 10.7921 6.65483V7.52486C10.7921 8.03527 10.8816 8.46946 11.0605 8.82741C11.2428 9.18537 11.4964 9.45881 11.8212 9.64773C12.146 9.83333 12.5255 9.92614 12.9597 9.92614C13.2414 9.92614 13.4983 9.88636 13.7303 9.80682C13.9623 9.72396 14.1628 9.60133 14.3319 9.43892C14.5009 9.27652 14.6301 9.07599 14.7196 8.83736L16.1266 9.09091C16.0139 9.50521 15.8117 9.86813 15.5201 10.1797C15.2317 10.4879 14.8688 10.7282 14.4313 10.9006C13.9971 11.0696 13.5016 11.1541 12.9448 11.1541ZM18.8659 3.36364L20.5513 6.33665L22.2516 3.36364H23.8773L21.4959 7.18182L23.8972 11H22.2715L20.5513 8.14631L18.8361 11H17.2054L19.5819 7.18182L17.2353 3.36364H18.8659ZM29.5884 6.05327V7.34091H25.0742V6.05327H29.5884ZM33.7919 11.169C33.308 11.169 32.8705 11.0795 32.4794 10.9006C32.0883 10.7183 31.7784 10.4548 31.5497 10.1101C31.3243 9.76539 31.2116 9.3428 31.2116 8.84233C31.2116 8.41146 31.2945 8.05682 31.4602 7.77841C31.6259 7.5 31.8497 7.27959 32.1314 7.11719C32.4131 6.95478 32.728 6.83215 33.076 6.74929C33.424 6.66643 33.7786 6.60346 34.1399 6.56037C34.5973 6.50734 34.9685 6.46425 35.2536 6.43111C35.5386 6.39465 35.7457 6.33665 35.875 6.2571C36.0043 6.17756 36.0689 6.0483 36.0689 5.86932V5.83452C36.0689 5.40033 35.9463 5.06392 35.701 4.82528C35.459 4.58665 35.0978 4.46733 34.6172 4.46733C34.1167 4.46733 33.7223 4.57836 33.4339 4.80043C33.1489 5.01918 32.9517 5.26278 32.8423 5.53125L31.4453 5.21307C31.611 4.74905 31.853 4.37453 32.1712 4.08949C32.4927 3.80114 32.8622 3.59233 33.2798 3.46307C33.6974 3.33049 34.1366 3.2642 34.5973 3.2642C34.9022 3.2642 35.2254 3.30066 35.5668 3.37358C35.9115 3.44318 36.233 3.57244 36.5312 3.76136C36.8329 3.95028 37.0798 4.22041 37.272 4.57173C37.4643 4.91974 37.5604 5.37216 37.5604 5.92898V11H36.1087V9.95597H36.049C35.9529 10.1482 35.8087 10.3371 35.6165 10.5227C35.4242 10.7083 35.1773 10.8625 34.8757 10.9851C34.5741 11.1077 34.2128 11.169 33.7919 11.169ZM34.1151 9.97585C34.526 9.97585 34.8774 9.89465 35.169 9.73224C35.464 9.56984 35.6877 9.35772 35.8402 9.09588C35.996 8.83073 36.0739 8.54735 36.0739 8.24574V7.26136C36.0208 7.31439 35.9181 7.36411 35.7656 7.41051C35.6165 7.4536 35.4458 7.49171 35.2536 7.52486C35.0613 7.55469 34.8741 7.58286 34.6918 7.60938C34.5095 7.63258 34.357 7.65246 34.2344 7.66903C33.946 7.70549 33.6825 7.76681 33.4439 7.85298C33.2086 7.93916 33.0196 8.06345 32.8771 8.22585C32.7379 8.38494 32.6683 8.59706 32.6683 8.86222C32.6683 9.23011 32.8042 9.50852 33.076 9.69744C33.3478 9.88305 33.6941 9.97585 34.1151 9.97585ZM41.0268 0.818182V11H39.5403V0.818182H41.0268ZM43.0266 11V3.36364H44.5131V11H43.0266ZM43.7773 2.18537C43.5188 2.18537 43.2968 2.09919 43.1112 1.92685C42.9289 1.75118 42.8377 1.54238 42.8377 1.30043C42.8377 1.05516 42.9289 0.846354 43.1112 0.674005C43.2968 0.498342 43.5188 0.410511 43.7773 0.410511C44.0359 0.410511 44.2563 0.498342 44.4386 0.674005C44.6242 0.846354 44.717 1.05516 44.717 1.30043C44.717 1.54238 44.6242 1.75118 44.4386 1.92685C44.2563 2.09919 44.0359 2.18537 43.7773 2.18537ZM49.7147 14.0227C49.1081 14.0227 48.5861 13.9432 48.1486 13.7841C47.7144 13.625 47.3598 13.4145 47.0847 13.1527C46.8096 12.8909 46.6041 12.6042 46.4682 12.2926L47.7459 11.7656C47.8354 11.9115 47.9547 12.0656 48.1039 12.228C48.2563 12.3937 48.4618 12.5346 48.7203 12.6506C48.9822 12.7666 49.3186 12.8246 49.7296 12.8246C50.293 12.8246 50.7587 12.687 51.1266 12.4119C51.4945 12.1402 51.6784 11.706 51.6784 11.1094V9.60795H51.584C51.4945 9.77036 51.3652 9.95099 51.1962 10.1499C51.0305 10.3487 50.8018 10.5211 50.5101 10.6669C50.2185 10.8127 49.839 10.8857 49.3716 10.8857C48.7684 10.8857 48.2248 10.7448 47.7409 10.4631C47.2604 10.178 46.8792 9.75876 46.5975 9.20526C46.3191 8.64844 46.1799 7.96401 46.1799 7.15199C46.1799 6.33996 46.3174 5.64394 46.5925 5.06392C46.8709 4.4839 47.2521 4.03977 47.736 3.73153C48.2199 3.41998 48.7684 3.2642 49.3816 3.2642C49.8555 3.2642 50.2383 3.34375 50.53 3.50284C50.8217 3.65862 51.0487 3.84091 51.2111 4.04972C51.3768 4.25852 51.5044 4.44247 51.5939 4.60156H51.7033V3.36364H53.16V11.169C53.16 11.8253 53.0075 12.3639 52.7026 12.7848C52.3977 13.2057 51.985 13.5173 51.4647 13.7195C50.9476 13.9216 50.3643 14.0227 49.7147 14.0227ZM49.6998 9.6527C50.1273 9.6527 50.4886 9.55327 50.7836 9.3544C51.0819 9.15223 51.3072 8.86387 51.4597 8.48935C51.6155 8.11151 51.6934 7.65909 51.6934 7.1321C51.6934 6.61837 51.6171 6.16596 51.4647 5.77486C51.3122 5.38376 51.0885 5.07884 50.7935 4.86009C50.4985 4.63802 50.1339 4.52699 49.6998 4.52699C49.2523 4.52699 48.8794 4.64299 48.5811 4.875C48.2828 5.10369 48.0575 5.41525 47.905 5.80966C47.7559 6.20407 47.6813 6.64489 47.6813 7.1321C47.6813 7.63258 47.7575 8.07173 47.91 8.44957C48.0624 8.82741 48.2878 9.1224 48.5861 9.33452C48.8877 9.54664 49.2589 9.6527 49.6998 9.6527ZM56.6401 6.46591V11H55.1536V3.36364H56.5804V4.60653H56.6749C56.8506 4.20218 57.1257 3.87737 57.5002 3.6321C57.878 3.38684 58.3536 3.2642 58.927 3.2642C59.4474 3.2642 59.9031 3.37358 60.2942 3.59233C60.6853 3.80777 60.9886 4.12926 61.204 4.55682C61.4194 4.98437 61.5272 5.51302 61.5272 6.14276V11H60.0407V6.32173C60.0407 5.76823 59.8965 5.3357 59.6081 5.02415C59.3198 4.70928 58.9237 4.55185 58.4199 4.55185C58.0752 4.55185 57.7686 4.62642 57.5002 4.77557C57.235 4.92472 57.0246 5.14347 56.8688 5.43182C56.7163 5.71686 56.6401 6.06155 56.6401 6.46591ZM68.0201 6.05327V7.34091H63.5059V6.05327H68.0201ZM70.1206 11V0.818182H71.6071V4.60156H71.6966C71.7827 4.44247 71.907 4.25852 72.0694 4.04972C72.2318 3.84091 72.4572 3.65862 72.7456 3.50284C73.0339 3.34375 73.4151 3.2642 73.889 3.2642C74.5055 3.2642 75.0557 3.41998 75.5396 3.73153C76.0235 4.04309 76.403 4.49219 76.6781 5.07884C76.9565 5.66548 77.0957 6.37145 77.0957 7.19673C77.0957 8.02202 76.9582 8.72964 76.6831 9.3196C76.408 9.90625 76.0301 10.3587 75.5495 10.6768C75.069 10.9917 74.5204 11.1491 73.9039 11.1491C73.4399 11.1491 73.0604 11.0713 72.7654 10.9155C72.4738 10.7597 72.2451 10.5774 72.0794 10.3686C71.9136 10.1598 71.786 9.9742 71.6966 9.81179H71.5723V11H70.1206ZM71.5772 7.18182C71.5772 7.71875 71.6551 8.18939 71.8109 8.59375C71.9667 8.99811 72.1921 9.31463 72.487 9.54332C72.782 9.7687 73.1433 9.88139 73.5708 9.88139C74.015 9.88139 74.3862 9.76373 74.6845 9.52841C74.9828 9.28977 75.2082 8.96662 75.3606 8.55895C75.5164 8.15128 75.5943 7.69223 75.5943 7.18182C75.5943 6.67803 75.5181 6.22562 75.3656 5.82457C75.2164 5.42353 74.9911 5.10701 74.6895 4.875C74.3912 4.64299 74.0183 4.52699 73.5708 4.52699C73.14 4.52699 72.7754 4.63802 72.4771 4.86009C72.1821 5.08215 71.9584 5.39205 71.8059 5.78977C71.6535 6.1875 71.5772 6.65151 71.5772 7.18182ZM81.9815 11.1541C81.2656 11.1541 80.6409 10.9901 80.1072 10.6619C79.5736 10.3338 79.1593 9.87476 78.8643 9.2848C78.5694 8.69484 78.4219 8.00544 78.4219 7.21662C78.4219 6.42448 78.5694 5.73177 78.8643 5.13849C79.1593 4.54522 79.5736 4.08452 80.1072 3.75639C80.6409 3.42827 81.2656 3.2642 81.9815 3.2642C82.6974 3.2642 83.3222 3.42827 83.8558 3.75639C84.3894 4.08452 84.8037 4.54522 85.0987 5.13849C85.3937 5.73177 85.5412 6.42448 85.5412 7.21662C85.5412 8.00544 85.3937 8.69484 85.0987 9.2848C84.8037 9.87476 84.3894 10.3338 83.8558 10.6619C83.3222 10.9901 82.6974 11.1541 81.9815 11.1541ZM81.9865 9.90625C82.4505 9.90625 82.835 9.78362 83.1399 9.53835C83.4448 9.29309 83.6702 8.96662 83.8161 8.55895C83.9652 8.15128 84.0398 7.70218 84.0398 7.21165C84.0398 6.72443 83.9652 6.27699 83.8161 5.86932C83.6702 5.45833 83.4448 5.12855 83.1399 4.87997C82.835 4.63139 82.4505 4.5071 81.9865 4.5071C81.5192 4.5071 81.1314 4.63139 80.8232 4.87997C80.5182 5.12855 80.2912 5.45833 80.142 5.86932C79.9962 6.27699 79.9233 6.72443 79.9233 7.21165C79.9233 7.70218 79.9962 8.15128 80.142 8.55895C80.2912 8.96662 80.5182 9.29309 80.8232 9.53835C81.1314 9.78362 81.5192 9.90625 81.9865 9.90625ZM90.7651 3.36364V4.55682H86.5939V3.36364H90.7651ZM87.7125 1.53409H89.199V8.75781C89.199 9.04616 89.2421 9.26326 89.3283 9.40909C89.4145 9.55161 89.5255 9.64938 89.6614 9.70241C89.8006 9.75213 89.9514 9.77699 90.1138 9.77699C90.2331 9.77699 90.3375 9.7687 90.427 9.75213C90.5165 9.73556 90.5861 9.7223 90.6358 9.71236L90.9043 10.9403C90.8181 10.9735 90.6955 11.0066 90.5364 11.0398C90.3773 11.0762 90.1784 11.0961 89.9398 11.0994C89.5487 11.1061 89.1841 11.0365 88.8461 10.8906C88.508 10.7448 88.2346 10.5194 88.0257 10.2145C87.8169 9.90956 87.7125 9.52675 87.7125 9.06605V1.53409ZM95.9741 3.36364V4.55682H91.8029V3.36364H95.9741ZM92.9215 1.53409H94.408V8.75781C94.408 9.04616 94.4511 9.26326 94.5373 9.40909C94.6235 9.55161 94.7345 9.64938 94.8704 9.70241C95.0096 9.75213 95.1604 9.77699 95.3228 9.77699C95.4421 9.77699 95.5465 9.7687 95.636 9.75213C95.7255 9.73556 95.7951 9.7223 95.8448 9.71236L96.1133 10.9403C96.0271 10.9735 95.9045 11.0066 95.7454 11.0398C95.5863 11.0762 95.3874 11.0961 95.1488 11.0994C94.7577 11.1061 94.3931 11.0365 94.055 10.8906C93.717 10.7448 93.4435 10.5194 93.2347 10.2145C93.0259 9.90956 92.9215 9.52675 92.9215 9.06605V1.53409ZM100.753 11.1541C100.037 11.1541 99.4123 10.9901 98.8787 10.6619C98.3451 10.3338 97.9308 9.87476 97.6358 9.2848C97.3408 8.69484 97.1934 8.00544 97.1934 7.21662C97.1934 6.42448 97.3408 5.73177 97.6358 5.13849C97.9308 4.54522 98.3451 4.08452 98.8787 3.75639C99.4123 3.42827 100.037 3.2642 100.753 3.2642C101.469 3.2642 102.094 3.42827 102.627 3.75639C103.161 4.08452 103.575 4.54522 103.87 5.13849C104.165 5.73177 104.313 6.42448 104.313 7.21662C104.313 8.00544 104.165 8.69484 103.87 9.2848C103.575 9.87476 103.161 10.3338 102.627 10.6619C102.094 10.9901 101.469 11.1541 100.753 11.1541ZM100.758 9.90625C101.222 9.90625 101.606 9.78362 101.911 9.53835C102.216 9.29309 102.442 8.96662 102.588 8.55895C102.737 8.15128 102.811 7.70218 102.811 7.21165C102.811 6.72443 102.737 6.27699 102.588 5.86932C102.442 5.45833 102.216 5.12855 101.911 4.87997C101.606 4.63139 101.222 4.5071 100.758 4.5071C100.291 4.5071 99.9029 4.63139 99.5946 4.87997C99.2897 5.12855 99.0627 5.45833 98.9135 5.86932C98.7677 6.27699 98.6948 6.72443 98.6948 7.21165C98.6948 7.70218 98.7677 8.15128 98.9135 8.55895C99.0627 8.96662 99.2897 9.29309 99.5946 9.53835C99.9029 9.78362 100.291 9.90625 100.758 9.90625ZM105.972 11V3.36364H107.399V4.60653H107.493C107.652 4.18561 107.913 3.85748 108.274 3.62216C108.635 3.38352 109.068 3.2642 109.571 3.2642C110.082 3.2642 110.509 3.38352 110.854 3.62216C111.202 3.8608 111.459 4.18892 111.625 4.60653H111.704C111.886 4.19886 112.176 3.87405 112.574 3.6321C112.972 3.38684 113.446 3.2642 113.996 3.2642C114.689 3.2642 115.254 3.4813 115.691 3.91548C116.132 4.34967 116.353 5.00426 116.353 5.87926V11H114.866V6.01847C114.866 5.50142 114.725 5.12689 114.444 4.89489C114.162 4.66288 113.825 4.54688 113.434 4.54688C112.95 4.54688 112.574 4.69602 112.306 4.99432C112.037 5.2893 111.903 5.6688 111.903 6.13281V11H110.422V5.92401C110.422 5.50971 110.292 5.17661 110.034 4.92472C109.775 4.67282 109.439 4.54688 109.025 4.54688C108.743 4.54688 108.483 4.62145 108.244 4.7706C108.009 4.91643 107.818 5.12026 107.672 5.3821C107.53 5.64394 107.458 5.94721 107.458 6.2919V11H105.972Z" fill="black"/>
</svg>
