<svg width="108" height="15" viewBox="0 0 108 15" fill="none" xmlns="http://www.w3.org/2000/svg">
<path d="M3.22159 11.169C2.73769 11.169 2.30019 11.0795 1.90909 10.9006C1.51799 10.7183 1.2081 10.4548 0.979403 10.1101C0.754025 9.76539 0.641335 9.3428 0.641335 8.84233C0.641335 8.41146 0.724195 8.05682 0.889915 7.77841C1.05563 7.5 1.27936 7.27959 1.56108 7.11719C1.8428 6.95478 2.15767 6.83215 2.50568 6.74929C2.85369 6.66643 3.20833 6.60346 3.5696 6.56037C4.02699 6.50734 4.3982 6.46425 4.68324 6.43111C4.96828 6.39465 5.17543 6.33665 5.30469 6.2571C5.43395 6.17756 5.49858 6.0483 5.49858 5.86932V5.83452C5.49858 5.40033 5.37595 5.06392 5.13068 4.82528C4.88873 4.58665 4.52746 4.46733 4.04688 4.46733C3.5464 4.46733 3.15199 4.57836 2.86364 4.80043C2.5786 5.01918 2.38139 5.26278 2.27202 5.53125L0.875 5.21307C1.04072 4.74905 1.28267 4.37453 1.60085 4.08949C1.92235 3.80114 2.2919 3.59233 2.70952 3.46307C3.12713 3.33049 3.56629 3.2642 4.02699 3.2642C4.33191 3.2642 4.65507 3.30066 4.99645 3.37358C5.34115 3.44318 5.66264 3.57244 5.96094 3.76136C6.26255 3.95028 6.50947 4.22041 6.7017 4.57173C6.89394 4.91974 6.99006 5.37216 6.99006 5.92898V11H5.53835V9.95597H5.47869C5.38258 10.1482 5.2384 10.3371 5.04616 10.5227C4.85393 10.7083 4.60701 10.8625 4.3054 10.9851C4.00379 11.1077 3.64252 11.169 3.22159 11.169ZM3.54474 9.97585C3.95573 9.97585 4.30706 9.89465 4.59872 9.73224C4.8937 9.56984 5.11742 9.35772 5.26989 9.09588C5.42566 8.83073 5.50355 8.54735 5.50355 8.24574V7.26136C5.45052 7.31439 5.34777 7.36411 5.19531 7.41051C5.04616 7.4536 4.87547 7.49171 4.68324 7.52486C4.491 7.55469 4.30374 7.58286 4.12145 7.60938C3.93916 7.63258 3.7867 7.65246 3.66406 7.66903C3.37571 7.70549 3.11222 7.76681 2.87358 7.85298C2.63826 7.93916 2.44934 8.06345 2.30682 8.22585C2.16761 8.38494 2.09801 8.59706 2.09801 8.86222C2.09801 9.23011 2.2339 9.50852 2.50568 9.69744C2.77746 9.88305 3.12382 9.97585 3.54474 9.97585ZM10.4565 0.818182V11H8.96999V0.818182H10.4565ZM12.4563 11V3.36364H13.9428V11H12.4563ZM13.207 2.18537C12.9485 2.18537 12.7264 2.09919 12.5408 1.92685C12.3585 1.75118 12.2674 1.54238 12.2674 1.30043C12.2674 1.05516 12.3585 0.846354 12.5408 0.674005C12.7264 0.498342 12.9485 0.410511 13.207 0.410511C13.4656 0.410511 13.686 0.498342 13.8683 0.674005C14.0539 0.846354 14.1467 1.05516 14.1467 1.30043C14.1467 1.54238 14.0539 1.75118 13.8683 1.92685C13.686 2.09919 13.4656 2.18537 13.207 2.18537ZM19.1444 14.0227C18.5378 14.0227 18.0158 13.9432 17.5783 13.7841C17.1441 13.625 16.7895 13.4145 16.5144 13.1527C16.2393 12.8909 16.0338 12.6042 15.8979 12.2926L17.1756 11.7656C17.2651 11.9115 17.3844 12.0656 17.5336 12.228C17.686 12.3937 17.8915 12.5346 18.15 12.6506C18.4119 12.7666 18.7483 12.8246 19.1593 12.8246C19.7227 12.8246 20.1884 12.687 20.5563 12.4119C20.9242 12.1402 21.1081 11.706 21.1081 11.1094V9.60795H21.0137C20.9242 9.77036 20.7949 9.95099 20.6259 10.1499C20.4602 10.3487 20.2315 10.5211 19.9398 10.6669C19.6481 10.8127 19.2686 10.8857 18.8013 10.8857C18.1981 10.8857 17.6545 10.7448 17.1706 10.4631C16.69 10.178 16.3089 9.75876 16.0272 9.20526C15.7488 8.64844 15.6096 7.96401 15.6096 7.15199C15.6096 6.33996 15.7471 5.64394 16.0222 5.06392C16.3006 4.4839 16.6818 4.03977 17.1657 3.73153C17.6496 3.41998 18.1981 3.2642 18.8113 3.2642C19.2852 3.2642 19.668 3.34375 19.9597 3.50284C20.2514 3.65862 20.4784 3.84091 20.6408 4.04972C20.8065 4.25852 20.9341 4.44247 21.0236 4.60156H21.133V3.36364H22.5897V11.169C22.5897 11.8253 22.4372 12.3639 22.1323 12.7848C21.8274 13.2057 21.4147 13.5173 20.8944 13.7195C20.3773 13.9216 19.794 14.0227 19.1444 14.0227ZM19.1294 9.6527C19.557 9.6527 19.9183 9.55327 20.2132 9.3544C20.5115 9.15223 20.7369 8.86387 20.8894 8.48935C21.0452 8.11151 21.123 7.65909 21.123 7.1321C21.123 6.61837 21.0468 6.16596 20.8944 5.77486C20.7419 5.38376 20.5182 5.07884 20.2232 4.86009C19.9282 4.63802 19.5636 4.52699 19.1294 4.52699C18.682 4.52699 18.3091 4.64299 18.0108 4.875C17.7125 5.10369 17.4872 5.41525 17.3347 5.80966C17.1855 6.20407 17.111 6.64489 17.111 7.1321C17.111 7.63258 17.1872 8.07173 17.3397 8.44957C17.4921 8.82741 17.7175 9.1224 18.0158 9.33452C18.3174 9.54664 18.6886 9.6527 19.1294 9.6527ZM26.0698 6.46591V11H24.5833V3.36364H26.0101V4.60653H26.1046C26.2802 4.20218 26.5553 3.87737 26.9299 3.6321C27.3077 3.38684 27.7833 3.2642 28.3567 3.2642C28.8771 3.2642 29.3328 3.37358 29.7239 3.59233C30.115 3.80777 30.4183 4.12926 30.6337 4.55682C30.8491 4.98437 30.9569 5.51302 30.9569 6.14276V11H29.4703V6.32173C29.4703 5.76823 29.3262 5.3357 29.0378 5.02415C28.7495 4.70928 28.3534 4.55185 27.8496 4.55185C27.5049 4.55185 27.1983 4.62642 26.9299 4.77557C26.6647 4.92472 26.4542 5.14347 26.2985 5.43182C26.146 5.71686 26.0698 6.06155 26.0698 6.46591ZM37.4498 6.05327V7.34091H32.9355V6.05327H37.4498ZM39.5502 11V0.818182H41.0368V4.60156H41.1262C41.2124 4.44247 41.3367 4.25852 41.4991 4.04972C41.6615 3.84091 41.8869 3.65862 42.1752 3.50284C42.4636 3.34375 42.8448 3.2642 43.3187 3.2642C43.9352 3.2642 44.4854 3.41998 44.9693 3.73153C45.4532 4.04309 45.8327 4.49219 46.1078 5.07884C46.3862 5.66548 46.5254 6.37145 46.5254 7.19673C46.5254 8.02202 46.3878 8.72964 46.1127 9.3196C45.8377 9.90625 45.4598 10.3587 44.9792 10.6768C44.4986 10.9917 43.9501 11.1491 43.3336 11.1491C42.8696 11.1491 42.4901 11.0713 42.1951 10.9155C41.9035 10.7597 41.6748 10.5774 41.5091 10.3686C41.3433 10.1598 41.2157 9.9742 41.1262 9.81179H41.002V11H39.5502ZM41.0069 7.18182C41.0069 7.71875 41.0848 8.18939 41.2406 8.59375C41.3964 8.99811 41.6217 9.31463 41.9167 9.54332C42.2117 9.7687 42.573 9.88139 43.0005 9.88139C43.4447 9.88139 43.8159 9.76373 44.1142 9.52841C44.4125 9.28977 44.6378 8.96662 44.7903 8.55895C44.9461 8.15128 45.024 7.69223 45.024 7.18182C45.024 6.67803 44.9477 6.22562 44.7953 5.82457C44.6461 5.42353 44.4208 5.10701 44.1191 4.875C43.8208 4.64299 43.448 4.52699 43.0005 4.52699C42.5697 4.52699 42.2051 4.63802 41.9068 4.86009C41.6118 5.08215 41.3881 5.39205 41.2356 5.78977C41.0832 6.1875 41.0069 6.65151 41.0069 7.18182ZM51.4112 11.1541C50.6953 11.1541 50.0705 10.9901 49.5369 10.6619C49.0033 10.3338 48.589 9.87476 48.294 9.2848C47.9991 8.69484 47.8516 8.00544 47.8516 7.21662C47.8516 6.42448 47.9991 5.73177 48.294 5.13849C48.589 4.54522 49.0033 4.08452 49.5369 3.75639C50.0705 3.42827 50.6953 3.2642 51.4112 3.2642C52.1271 3.2642 52.7519 3.42827 53.2855 3.75639C53.8191 4.08452 54.2334 4.54522 54.5284 5.13849C54.8234 5.73177 54.9709 6.42448 54.9709 7.21662C54.9709 8.00544 54.8234 8.69484 54.5284 9.2848C54.2334 9.87476 53.8191 10.3338 53.2855 10.6619C52.7519 10.9901 52.1271 11.1541 51.4112 11.1541ZM51.4162 9.90625C51.8802 9.90625 52.2647 9.78362 52.5696 9.53835C52.8745 9.29309 53.0999 8.96662 53.2457 8.55895C53.3949 8.15128 53.4695 7.70218 53.4695 7.21165C53.4695 6.72443 53.3949 6.27699 53.2457 5.86932C53.0999 5.45833 52.8745 5.12855 52.5696 4.87997C52.2647 4.63139 51.8802 4.5071 51.4162 4.5071C50.9489 4.5071 50.5611 4.63139 50.2528 4.87997C49.9479 5.12855 49.7209 5.45833 49.5717 5.86932C49.4259 6.27699 49.353 6.72443 49.353 7.21165C49.353 7.70218 49.4259 8.15128 49.5717 8.55895C49.7209 8.96662 49.9479 9.29309 50.2528 9.53835C50.5611 9.78362 50.9489 9.90625 51.4162 9.90625ZM60.1948 3.36364V4.55682H56.0236V3.36364H60.1948ZM57.1422 1.53409H58.6287V8.75781C58.6287 9.04616 58.6718 9.26326 58.758 9.40909C58.8442 9.55161 58.9552 9.64938 59.0911 9.70241C59.2303 9.75213 59.3811 9.77699 59.5435 9.77699C59.6628 9.77699 59.7672 9.7687 59.8567 9.75213C59.9462 9.73556 60.0158 9.7223 60.0655 9.71236L60.334 10.9403C60.2478 10.9735 60.1252 11.0066 59.9661 11.0398C59.807 11.0762 59.6081 11.0961 59.3695 11.0994C58.9784 11.1061 58.6138 11.0365 58.2757 10.8906C57.9377 10.7448 57.6642 10.5194 57.4554 10.2145C57.2466 9.90956 57.1422 9.52675 57.1422 9.06605V1.53409ZM65.4038 3.36364V4.55682H61.2326V3.36364H65.4038ZM62.3512 1.53409H63.8377V8.75781C63.8377 9.04616 63.8808 9.26326 63.967 9.40909C64.0531 9.55161 64.1642 9.64938 64.3001 9.70241C64.4393 9.75213 64.5901 9.77699 64.7525 9.77699C64.8718 9.77699 64.9762 9.7687 65.0657 9.75213C65.1552 9.73556 65.2248 9.7223 65.2745 9.71236L65.543 10.9403C65.4568 10.9735 65.3342 11.0066 65.1751 11.0398C65.016 11.0762 64.8171 11.0961 64.5785 11.0994C64.1874 11.1061 63.8228 11.0365 63.4847 10.8906C63.1467 10.7448 62.8732 10.5194 62.6644 10.2145C62.4556 9.90956 62.3512 9.52675 62.3512 9.06605V1.53409ZM70.1827 11.1541C69.4668 11.1541 68.842 10.9901 68.3084 10.6619C67.7748 10.3338 67.3605 9.87476 67.0655 9.2848C66.7705 8.69484 66.623 8.00544 66.623 7.21662C66.623 6.42448 66.7705 5.73177 67.0655 5.13849C67.3605 4.54522 67.7748 4.08452 68.3084 3.75639C68.842 3.42827 69.4668 3.2642 70.1827 3.2642C70.8986 3.2642 71.5234 3.42827 72.057 3.75639C72.5906 4.08452 73.0049 4.54522 73.2999 5.13849C73.5949 5.73177 73.7424 6.42448 73.7424 7.21662C73.7424 8.00544 73.5949 8.69484 73.2999 9.2848C73.0049 9.87476 72.5906 10.3338 72.057 10.6619C71.5234 10.9901 70.8986 11.1541 70.1827 11.1541ZM70.1877 9.90625C70.6517 9.90625 71.0362 9.78362 71.3411 9.53835C71.646 9.29309 71.8714 8.96662 72.0172 8.55895C72.1664 8.15128 72.2409 7.70218 72.2409 7.21165C72.2409 6.72443 72.1664 6.27699 72.0172 5.86932C71.8714 5.45833 71.646 5.12855 71.3411 4.87997C71.0362 4.63139 70.6517 4.5071 70.1877 4.5071C69.7203 4.5071 69.3326 4.63139 69.0243 4.87997C68.7194 5.12855 68.4924 5.45833 68.3432 5.86932C68.1974 6.27699 68.1245 6.72443 68.1245 7.21165C68.1245 7.70218 68.1974 8.15128 68.3432 8.55895C68.4924 8.96662 68.7194 9.29309 69.0243 9.53835C69.3326 9.78362 69.7203 9.90625 70.1877 9.90625ZM75.4016 11V3.36364H76.8285V4.60653H76.9229C77.082 4.18561 77.3422 3.85748 77.7035 3.62216C78.0647 3.38352 78.4973 3.2642 79.0011 3.2642C79.5115 3.2642 79.939 3.38352 80.2837 3.62216C80.6317 3.8608 80.8886 4.18892 81.0543 4.60653H81.1339C81.3162 4.19886 81.6062 3.87405 82.0039 3.6321C82.4016 3.38684 82.8756 3.2642 83.4258 3.2642C84.1185 3.2642 84.6836 3.4813 85.1211 3.91548C85.5619 4.34967 85.7823 5.00426 85.7823 5.87926V11H84.2958V6.01847C84.2958 5.50142 84.1549 5.12689 83.8732 4.89489C83.5915 4.66288 83.2551 4.54688 82.864 4.54688C82.3801 4.54688 82.0039 4.69602 81.7354 4.99432C81.467 5.2893 81.3327 5.6688 81.3327 6.13281V11H79.8512V5.92401C79.8512 5.50971 79.7219 5.17661 79.4634 4.92472C79.2049 4.67282 78.8685 4.54688 78.4542 4.54688C78.1725 4.54688 77.9123 4.62145 77.6737 4.7706C77.4383 4.91643 77.2478 5.12026 77.1019 5.3821C76.9594 5.64394 76.8881 5.94721 76.8881 6.2919V11H75.4016ZM92.274 6.05327V7.34091H87.7598V6.05327H92.274ZM97.78 11.169C96.9945 11.1657 96.3233 10.9586 95.7665 10.5476C95.2097 10.1366 94.7838 9.53835 94.4888 8.75284C94.1938 7.96733 94.0463 7.02107 94.0463 5.91406C94.0463 4.81037 94.1938 3.86742 94.4888 3.08523C94.7871 2.30303 95.2147 1.70644 95.7715 1.29545C96.3316 0.884469 97.0011 0.678977 97.78 0.678977C98.5589 0.678977 99.2267 0.886126 99.7836 1.30043C100.34 1.71141 100.766 2.308 101.061 3.0902C101.36 3.86908 101.509 4.81037 101.509 5.91406C101.509 7.02438 101.361 7.9723 101.066 8.75781C100.771 9.54001 100.345 10.1383 99.7885 10.5526C99.2317 10.9635 98.5622 11.169 97.78 11.169ZM97.78 9.84162C98.4694 9.84162 99.008 9.50521 99.3958 8.83239C99.7869 8.15956 99.9824 7.18679 99.9824 5.91406C99.9824 5.06889 99.8929 4.35464 99.714 3.77131C99.5383 3.18466 99.2847 2.74053 98.9533 2.43892C98.6252 2.134 98.2341 1.98153 97.78 1.98153C97.0939 1.98153 96.5553 2.3196 96.1642 2.99574C95.7731 3.67187 95.5759 4.64465 95.5726 5.91406C95.5726 6.76255 95.6605 7.48011 95.8361 8.06676C96.0151 8.65009 96.2686 9.09257 96.5968 9.39418C96.9249 9.69247 97.3193 9.84162 97.78 9.84162ZM107.135 0.818182V11H105.594V2.35938H105.534L103.098 3.95028V2.47869L105.639 0.818182H107.135Z" fill="black"/>
</svg>
