<svg width="100" height="15" viewBox="0 0 100 15" fill="none" xmlns="http://www.w3.org/2000/svg">
<path d="M4.63352 3.36364V4.55682H0.318182V3.36364H4.63352ZM1.50142 11V2.47869C1.50142 2.00142 1.60582 1.60535 1.81463 1.29048C2.02344 0.972301 2.30019 0.735322 2.64489 0.579545C2.98958 0.420454 3.36411 0.340908 3.76847 0.340908C4.06676 0.340908 4.32197 0.365767 4.53409 0.415483C4.74621 0.461884 4.90365 0.504971 5.00639 0.544744L4.65838 1.74787C4.58878 1.72798 4.49929 1.70478 4.38991 1.67827C4.28054 1.64844 4.14796 1.63352 3.99219 1.63352C3.63092 1.63352 3.3724 1.72301 3.21662 1.90199C3.06416 2.08097 2.98793 2.33949 2.98793 2.67756V11H1.50142ZM7.65376 0.818182V11H6.16726V0.818182H7.65376ZM12.9448 11.1541C12.1924 11.1541 11.5444 10.9934 11.0009 10.6719C10.4606 10.3471 10.043 9.89134 9.74805 9.30469C9.45638 8.71473 9.31055 8.02367 9.31055 7.23153C9.31055 6.44934 9.45638 5.75994 9.74805 5.16335C10.043 4.56676 10.454 4.10109 10.981 3.76633C11.5113 3.43158 12.1311 3.2642 12.8404 3.2642C13.2712 3.2642 13.6889 3.33546 14.0932 3.47798C14.4976 3.6205 14.8605 3.84422 15.182 4.14915C15.5035 4.45407 15.757 4.85014 15.9426 5.33736C16.1283 5.82126 16.2211 6.40956 16.2211 7.10227V7.62926H10.1507V6.51562H14.7644C14.7644 6.12453 14.6848 5.77817 14.5257 5.47656C14.3667 5.17164 14.1429 4.93134 13.8546 4.75568C13.5695 4.58002 13.2348 4.49219 12.8503 4.49219C12.4327 4.49219 12.0681 4.59493 11.7566 4.80043C11.4483 5.0026 11.2097 5.26776 11.0407 5.59588C10.8749 5.92069 10.7921 6.27367 10.7921 6.65483V7.52486C10.7921 8.03527 10.8816 8.46946 11.0605 8.82741C11.2428 9.18537 11.4964 9.45881 11.8212 9.64773C12.146 9.83333 12.5255 9.92614 12.9597 9.92614C13.2414 9.92614 13.4983 9.88636 13.7303 9.80682C13.9623 9.72396 14.1628 9.60133 14.3319 9.43892C14.5009 9.27652 14.6301 9.07599 14.7196 8.83736L16.1266 9.09091C16.0139 9.50521 15.8117 9.86813 15.5201 10.1797C15.2317 10.4879 14.8688 10.7282 14.4313 10.9006C13.9971 11.0696 13.5016 11.1541 12.9448 11.1541ZM18.8659 3.36364L20.5513 6.33665L22.2516 3.36364H23.8773L21.4959 7.18182L23.8972 11H22.2715L20.5513 8.14631L18.8361 11H17.2054L19.5819 7.18182L17.2353 3.36364H18.8659ZM29.5884 6.05327V7.34091H25.0742V6.05327H29.5884ZM33.7919 11.169C33.308 11.169 32.8705 11.0795 32.4794 10.9006C32.0883 10.7183 31.7784 10.4548 31.5497 10.1101C31.3243 9.76539 31.2116 9.3428 31.2116 8.84233C31.2116 8.41146 31.2945 8.05682 31.4602 7.77841C31.6259 7.5 31.8497 7.27959 32.1314 7.11719C32.4131 6.95478 32.728 6.83215 33.076 6.74929C33.424 6.66643 33.7786 6.60346 34.1399 6.56037C34.5973 6.50734 34.9685 6.46425 35.2536 6.43111C35.5386 6.39465 35.7457 6.33665 35.875 6.2571C36.0043 6.17756 36.0689 6.0483 36.0689 5.86932V5.83452C36.0689 5.40033 35.9463 5.06392 35.701 4.82528C35.459 4.58665 35.0978 4.46733 34.6172 4.46733C34.1167 4.46733 33.7223 4.57836 33.4339 4.80043C33.1489 5.01918 32.9517 5.26278 32.8423 5.53125L31.4453 5.21307C31.611 4.74905 31.853 4.37453 32.1712 4.08949C32.4927 3.80114 32.8622 3.59233 33.2798 3.46307C33.6974 3.33049 34.1366 3.2642 34.5973 3.2642C34.9022 3.2642 35.2254 3.30066 35.5668 3.37358C35.9115 3.44318 36.233 3.57244 36.5312 3.76136C36.8329 3.95028 37.0798 4.22041 37.272 4.57173C37.4643 4.91974 37.5604 5.37216 37.5604 5.92898V11H36.1087V9.95597H36.049C35.9529 10.1482 35.8087 10.3371 35.6165 10.5227C35.4242 10.7083 35.1773 10.8625 34.8757 10.9851C34.5741 11.1077 34.2128 11.169 33.7919 11.169ZM34.1151 9.97585C34.526 9.97585 34.8774 9.89465 35.169 9.73224C35.464 9.56984 35.6877 9.35772 35.8402 9.09588C35.996 8.83073 36.0739 8.54735 36.0739 8.24574V7.26136C36.0208 7.31439 35.9181 7.36411 35.7656 7.41051C35.6165 7.4536 35.4458 7.49171 35.2536 7.52486C35.0613 7.55469 34.8741 7.58286 34.6918 7.60938C34.5095 7.63258 34.357 7.65246 34.2344 7.66903C33.946 7.70549 33.6825 7.76681 33.4439 7.85298C33.2086 7.93916 33.0196 8.06345 32.8771 8.22585C32.7379 8.38494 32.6683 8.59706 32.6683 8.86222C32.6683 9.23011 32.8042 9.50852 33.076 9.69744C33.3478 9.88305 33.6941 9.97585 34.1151 9.97585ZM41.0268 0.818182V11H39.5403V0.818182H41.0268ZM43.0266 11V3.36364H44.5131V11H43.0266ZM43.7773 2.18537C43.5188 2.18537 43.2968 2.09919 43.1112 1.92685C42.9289 1.75118 42.8377 1.54238 42.8377 1.30043C42.8377 1.05516 42.9289 0.846354 43.1112 0.674005C43.2968 0.498342 43.5188 0.410511 43.7773 0.410511C44.0359 0.410511 44.2563 0.498342 44.4386 0.674005C44.6242 0.846354 44.717 1.05516 44.717 1.30043C44.717 1.54238 44.6242 1.75118 44.4386 1.92685C44.2563 2.09919 44.0359 2.18537 43.7773 2.18537ZM49.7147 14.0227C49.1081 14.0227 48.5861 13.9432 48.1486 13.7841C47.7144 13.625 47.3598 13.4145 47.0847 13.1527C46.8096 12.8909 46.6041 12.6042 46.4682 12.2926L47.7459 11.7656C47.8354 11.9115 47.9547 12.0656 48.1039 12.228C48.2563 12.3937 48.4618 12.5346 48.7203 12.6506C48.9822 12.7666 49.3186 12.8246 49.7296 12.8246C50.293 12.8246 50.7587 12.687 51.1266 12.4119C51.4945 12.1402 51.6784 11.706 51.6784 11.1094V9.60795H51.584C51.4945 9.77036 51.3652 9.95099 51.1962 10.1499C51.0305 10.3487 50.8018 10.5211 50.5101 10.6669C50.2185 10.8127 49.839 10.8857 49.3716 10.8857C48.7684 10.8857 48.2248 10.7448 47.7409 10.4631C47.2604 10.178 46.8792 9.75876 46.5975 9.20526C46.3191 8.64844 46.1799 7.96401 46.1799 7.15199C46.1799 6.33996 46.3174 5.64394 46.5925 5.06392C46.8709 4.4839 47.2521 4.03977 47.736 3.73153C48.2199 3.41998 48.7684 3.2642 49.3816 3.2642C49.8555 3.2642 50.2383 3.34375 50.53 3.50284C50.8217 3.65862 51.0487 3.84091 51.2111 4.04972C51.3768 4.25852 51.5044 4.44247 51.5939 4.60156H51.7033V3.36364H53.16V11.169C53.16 11.8253 53.0075 12.3639 52.7026 12.7848C52.3977 13.2057 51.985 13.5173 51.4647 13.7195C50.9476 13.9216 50.3643 14.0227 49.7147 14.0227ZM49.6998 9.6527C50.1273 9.6527 50.4886 9.55327 50.7836 9.3544C51.0819 9.15223 51.3072 8.86387 51.4597 8.48935C51.6155 8.11151 51.6934 7.65909 51.6934 7.1321C51.6934 6.61837 51.6171 6.16596 51.4647 5.77486C51.3122 5.38376 51.0885 5.07884 50.7935 4.86009C50.4985 4.63802 50.1339 4.52699 49.6998 4.52699C49.2523 4.52699 48.8794 4.64299 48.5811 4.875C48.2828 5.10369 48.0575 5.41525 47.905 5.80966C47.7559 6.20407 47.6813 6.64489 47.6813 7.1321C47.6813 7.63258 47.7575 8.07173 47.91 8.44957C48.0624 8.82741 48.2878 9.1224 48.5861 9.33452C48.8877 9.54664 49.2589 9.6527 49.6998 9.6527ZM56.6401 6.46591V11H55.1536V3.36364H56.5804V4.60653H56.6749C56.8506 4.20218 57.1257 3.87737 57.5002 3.6321C57.878 3.38684 58.3536 3.2642 58.927 3.2642C59.4474 3.2642 59.9031 3.37358 60.2942 3.59233C60.6853 3.80777 60.9886 4.12926 61.204 4.55682C61.4194 4.98437 61.5272 5.51302 61.5272 6.14276V11H60.0407V6.32173C60.0407 5.76823 59.8965 5.3357 59.6081 5.02415C59.3198 4.70928 58.9237 4.55185 58.4199 4.55185C58.0752 4.55185 57.7686 4.62642 57.5002 4.77557C57.235 4.92472 57.0246 5.14347 56.8688 5.43182C56.7163 5.71686 56.6401 6.06155 56.6401 6.46591ZM68.0201 6.05327V7.34091H63.5059V6.05327H68.0201ZM70.0012 11V3.36364H71.438V4.5767H71.5176C71.6568 4.16572 71.902 3.84257 72.2534 3.60724C72.608 3.36861 73.0091 3.24929 73.4565 3.24929C73.5493 3.24929 73.6587 3.2526 73.7846 3.25923C73.9139 3.26586 74.015 3.27415 74.0879 3.28409V4.70597C74.0282 4.68939 73.9222 4.67116 73.7697 4.65128C73.6172 4.62808 73.4648 4.61648 73.3123 4.61648C72.961 4.61648 72.6478 4.69105 72.3727 4.8402C72.1009 4.98603 71.8855 5.18987 71.7264 5.4517C71.5673 5.71023 71.4877 6.00521 71.4877 6.33665V11H70.0012ZM75.3743 11V3.36364H76.8608V11H75.3743ZM76.125 2.18537C75.8665 2.18537 75.6444 2.09919 75.4588 1.92685C75.2765 1.75118 75.1854 1.54238 75.1854 1.30043C75.1854 1.05516 75.2765 0.846354 75.4588 0.674005C75.6444 0.498342 75.8665 0.410511 76.125 0.410511C76.3835 0.410511 76.6039 0.498342 76.7862 0.674005C76.9718 0.846354 77.0646 1.05516 77.0646 1.30043C77.0646 1.54238 76.9718 1.75118 76.7862 1.92685C76.6039 2.09919 76.3835 2.18537 76.125 2.18537ZM82.0623 14.0227C81.4558 14.0227 80.9338 13.9432 80.4963 13.7841C80.0621 13.625 79.7074 13.4145 79.4324 13.1527C79.1573 12.8909 78.9518 12.6042 78.8159 12.2926L80.0936 11.7656C80.1831 11.9115 80.3024 12.0656 80.4515 12.228C80.604 12.3937 80.8095 12.5346 81.068 12.6506C81.3298 12.7666 81.6663 12.8246 82.0772 12.8246C82.6407 12.8246 83.1064 12.687 83.4743 12.4119C83.8422 12.1402 84.0261 11.706 84.0261 11.1094V9.60795H83.9316C83.8422 9.77036 83.7129 9.95099 83.5439 10.1499C83.3781 10.3487 83.1494 10.5211 82.8578 10.6669C82.5661 10.8127 82.1866 10.8857 81.7193 10.8857C81.1161 10.8857 80.5725 10.7448 80.0886 10.4631C79.608 10.178 79.2269 9.75876 78.9451 9.20526C78.6667 8.64844 78.5275 7.96401 78.5275 7.15199C78.5275 6.33996 78.6651 5.64394 78.9402 5.06392C79.2186 4.4839 79.5997 4.03977 80.0836 3.73153C80.5675 3.41998 81.1161 3.2642 81.7292 3.2642C82.2032 3.2642 82.586 3.34375 82.8777 3.50284C83.1693 3.65862 83.3964 3.84091 83.5588 4.04972C83.7245 4.25852 83.8521 4.44247 83.9416 4.60156H84.051V3.36364H85.5076V11.169C85.5076 11.8253 85.3552 12.3639 85.0502 12.7848C84.7453 13.2057 84.3327 13.5173 83.8123 13.7195C83.2953 13.9216 82.7119 14.0227 82.0623 14.0227ZM82.0474 9.6527C82.475 9.6527 82.8362 9.55327 83.1312 9.3544C83.4295 9.15223 83.6549 8.86387 83.8074 8.48935C83.9631 8.11151 84.041 7.65909 84.041 7.1321C84.041 6.61837 83.9648 6.16596 83.8123 5.77486C83.6599 5.38376 83.4361 5.07884 83.1412 4.86009C82.8462 4.63802 82.4816 4.52699 82.0474 4.52699C81.6 4.52699 81.2271 4.64299 80.9288 4.875C80.6305 5.10369 80.4051 5.41525 80.2527 5.80966C80.1035 6.20407 80.0289 6.64489 80.0289 7.1321C80.0289 7.63258 80.1052 8.07173 80.2576 8.44957C80.4101 8.82741 80.6355 9.1224 80.9338 9.33452C81.2354 9.54664 81.6066 9.6527 82.0474 9.6527ZM88.9877 6.46591V11H87.5012V0.818182H88.9679V4.60653H89.0623C89.2413 4.19555 89.5147 3.86908 89.8826 3.62713C90.2505 3.38518 90.7311 3.2642 91.3244 3.2642C91.8481 3.2642 92.3055 3.37192 92.6966 3.58736C93.091 3.80279 93.3959 4.12429 93.6113 4.55185C93.8301 4.97609 93.9395 5.50639 93.9395 6.14276V11H92.4529V6.32173C92.4529 5.7616 92.3088 5.32741 92.0204 5.01918C91.7321 4.70762 91.331 4.55185 90.8173 4.55185C90.466 4.55185 90.1511 4.62642 89.8727 4.77557C89.5976 4.92472 89.3805 5.14347 89.2214 5.43182C89.0656 5.71686 88.9877 6.06155 88.9877 6.46591ZM99.4877 3.36364V4.55682H95.3166V3.36364H99.4877ZM96.4352 1.53409H97.9217V8.75781C97.9217 9.04616 97.9648 9.26326 98.051 9.40909C98.1371 9.55161 98.2482 9.64938 98.3841 9.70241C98.5233 9.75213 98.6741 9.77699 98.8365 9.77699C98.9558 9.77699 99.0602 9.7687 99.1497 9.75213C99.2392 9.73556 99.3088 9.7223 99.3585 9.71236L99.627 10.9403C99.5408 10.9735 99.4181 11.0066 99.2591 11.0398C99.1 11.0762 98.9011 11.0961 98.6625 11.0994C98.2714 11.1061 97.9068 11.0365 97.5687 10.8906C97.2306 10.7448 96.9572 10.5194 96.7484 10.2145C96.5396 9.90956 96.4352 9.52675 96.4352 9.06605V1.53409Z" fill="black"/>
</svg>
