<svg width="24" height="24" viewBox="0 0 24 24" fill="none" xmlns="http://www.w3.org/2000/svg">
<path d="M15.646 18.0149C16.0748 19.6153 15.1251 21.2603 13.5247 21.6891C11.9243 22.118 10.2792 21.1682 9.85042 19.5678M2.05689 11.6134C1.6674 10.2152 2.07244 8.7036 3.10884 7.68749M12.1464 5.74096C12.4506 5.19366 12.5508 4.53216 12.3759 3.87957C12.0186 2.5459 10.6477 1.75445 9.31406 2.1118C7.9804 2.46915 7.18894 3.84 7.5463 5.17366C7.72116 5.82626 8.13869 6.34903 8.67579 6.6709M20.3191 6.72011C19.9573 5.31451 18.8507 4.20791 17.4451 3.84613M17.4907 9.4454C17.1337 8.11326 16.1808 6.9993 14.8415 6.34857C13.5023 5.69784 11.8864 5.56364 10.3493 5.9755C8.8122 6.38736 7.47988 7.31153 6.6454 8.54472C5.81092 9.77791 5.54264 11.2191 5.89958 12.5512C6.49016 14.7553 6.37548 16.5137 6.00253 17.8498C5.57746 19.3727 5.36493 20.1341 5.42235 20.287C5.48804 20.4619 5.53556 20.5099 5.70979 20.5774C5.86208 20.6364 6.50185 20.465 7.78139 20.1222L19.6465 16.9429C20.926 16.6001 21.5658 16.4286 21.6682 16.3014C21.7853 16.1558 21.8024 16.0905 21.7719 15.9061C21.7451 15.745 21.1804 15.1919 20.0508 14.0856C19.0598 13.1149 18.0813 11.6494 17.4907 9.4454Z" stroke="black" stroke-width="2" stroke-linecap="round" stroke-linejoin="round"/>
</svg>
