<svg viewBox="0 0 93 15" fill="none" stroke-width="2" stroke="currentColor" aria-hidden="true">
  <path d="M3.22159 11.169C2.73769 11.169 2.30019 11.0795 1.90909 10.9006C1.51799 10.7183 1.2081 10.4548 0.979403 10.1101C0.754025 9.76539 0.641335 9.3428 0.641335 8.84233C0.641335 8.41146 0.724195 8.05682 0.889915 7.77841C1.05563 7.5 1.27936 7.27959 1.56108 7.11719C1.8428 6.95478 2.15767 6.83215 2.50568 6.74929C2.85369 6.66643 3.20833 6.60346 3.5696 6.56037C4.02699 6.50734 4.3982 6.46425 4.68324 6.43111C4.96828 6.39465 5.17543 6.33665 5.30469 6.2571C5.43395 6.17756 5.49858 6.0483 5.49858 5.86932V5.83452C5.49858 5.40033 5.37595 5.06392 5.13068 4.82528C4.88873 4.58665 4.52746 4.46733 4.04688 4.46733C3.5464 4.46733 3.15199 4.57836 2.86364 4.80043C2.5786 5.01918 2.38139 5.26278 2.27202 5.53125L0.875 5.21307C1.04072 4.74905 1.28267 4.37453 1.60085 4.08949C1.92235 3.80114 2.2919 3.59233 2.70952 3.46307C3.12713 3.33049 3.56629 3.2642 4.02699 3.2642C4.33191 3.2642 4.65507 3.30066 4.99645 3.37358C5.34115 3.44318 5.66264 3.57244 5.96094 3.76136C6.26255 3.95028 6.50947 4.22041 6.7017 4.57173C6.89394 4.91974 6.99006 5.37216 6.99006 5.92898V11H5.53835V9.95597H5.47869C5.38258 10.1482 5.2384 10.3371 5.04616 10.5227C4.85393 10.7083 4.60701 10.8625 4.3054 10.9851C4.00379 11.1077 3.64252 11.169 3.22159 11.169ZM3.54474 9.97585C3.95573 9.97585 4.30706 9.89465 4.59872 9.73224C4.8937 9.56984 5.11742 9.35772 5.26989 9.09588C5.42566 8.83073 5.50355 8.54735 5.50355 8.24574V7.26136C5.45052 7.31439 5.34777 7.36411 5.19531 7.41051C5.04616 7.4536 4.87547 7.49171 4.68324 7.52486C4.491 7.55469 4.30374 7.58286 4.12145 7.60938C3.93916 7.63258 3.7867 7.65246 3.66406 7.66903C3.37571 7.70549 3.11222 7.76681 2.87358 7.85298C2.63826 7.93916 2.44934 8.06345 2.30682 8.22585C2.16761 8.38494 2.09801 8.59706 2.09801 8.86222C2.09801 9.23011 2.2339 9.50852 2.50568 9.69744C2.77746 9.88305 3.12382 9.97585 3.54474 9.97585ZM10.4565 0.818182V11H8.96999V0.818182H10.4565ZM12.4563 11V3.36364H13.9428V11H12.4563ZM13.207 2.18537C12.9485 2.18537 12.7264 2.09919 12.5408 1.92685C12.3585 1.75118 12.2674 1.54238 12.2674 1.30043C12.2674 1.05516 12.3585 0.846354 12.5408 0.674005C12.7264 0.498342 12.9485 0.410511 13.207 0.410511C13.4656 0.410511 13.686 0.498342 13.8683 0.674005C14.0539 0.846354 14.1467 1.05516 14.1467 1.30043C14.1467 1.54238 14.0539 1.75118 13.8683 1.92685C13.686 2.09919 13.4656 2.18537 13.207 2.18537ZM19.1444 14.0227C18.5378 14.0227 18.0158 13.9432 17.5783 13.7841C17.1441 13.625 16.7895 13.4145 16.5144 13.1527C16.2393 12.8909 16.0338 12.6042 15.8979 12.2926L17.1756 11.7656C17.2651 11.9115 17.3844 12.0656 17.5336 12.228C17.686 12.3937 17.8915 12.5346 18.15 12.6506C18.4119 12.7666 18.7483 12.8246 19.1593 12.8246C19.7227 12.8246 20.1884 12.687 20.5563 12.4119C20.9242 12.1402 21.1081 11.706 21.1081 11.1094V9.60795H21.0137C20.9242 9.77036 20.7949 9.95099 20.6259 10.1499C20.4602 10.3487 20.2315 10.5211 19.9398 10.6669C19.6481 10.8127 19.2686 10.8857 18.8013 10.8857C18.1981 10.8857 17.6545 10.7448 17.1706 10.4631C16.69 10.178 16.3089 9.75876 16.0272 9.20526C15.7488 8.64844 15.6096 7.96401 15.6096 7.15199C15.6096 6.33996 15.7471 5.64394 16.0222 5.06392C16.3006 4.4839 16.6818 4.03977 17.1657 3.73153C17.6496 3.41998 18.1981 3.2642 18.8113 3.2642C19.2852 3.2642 19.668 3.34375 19.9597 3.50284C20.2514 3.65862 20.4784 3.84091 20.6408 4.04972C20.8065 4.25852 20.9341 4.44247 21.0236 4.60156H21.133V3.36364H22.5897V11.169C22.5897 11.8253 22.4372 12.3639 22.1323 12.7848C21.8274 13.2057 21.4147 13.5173 20.8944 13.7195C20.3773 13.9216 19.794 14.0227 19.1444 14.0227ZM19.1294 9.6527C19.557 9.6527 19.9183 9.55327 20.2132 9.3544C20.5115 9.15223 20.7369 8.86387 20.8894 8.48935C21.0452 8.11151 21.123 7.65909 21.123 7.1321C21.123 6.61837 21.0468 6.16596 20.8944 5.77486C20.7419 5.38376 20.5182 5.07884 20.2232 4.86009C19.9282 4.63802 19.5636 4.52699 19.1294 4.52699C18.682 4.52699 18.3091 4.64299 18.0108 4.875C17.7125 5.10369 17.4872 5.41525 17.3347 5.80966C17.1855 6.20407 17.111 6.64489 17.111 7.1321C17.111 7.63258 17.1872 8.07173 17.3397 8.44957C17.4921 8.82741 17.7175 9.1224 18.0158 9.33452C18.3174 9.54664 18.6886 9.6527 19.1294 9.6527ZM26.0698 6.46591V11H24.5833V3.36364H26.0101V4.60653H26.1046C26.2802 4.20218 26.5553 3.87737 26.9299 3.6321C27.3077 3.38684 27.7833 3.2642 28.3567 3.2642C28.8771 3.2642 29.3328 3.37358 29.7239 3.59233C30.115 3.80777 30.4183 4.12926 30.6337 4.55682C30.8491 4.98437 30.9569 5.51302 30.9569 6.14276V11H29.4703V6.32173C29.4703 5.76823 29.3262 5.3357 29.0378 5.02415C28.7495 4.70928 28.3534 4.55185 27.8496 4.55185C27.5049 4.55185 27.1983 4.62642 26.9299 4.77557C26.6647 4.92472 26.4542 5.14347 26.2985 5.43182C26.146 5.71686 26.0698 6.06155 26.0698 6.46591ZM37.4498 6.05327V7.34091H32.9355V6.05327H37.4498ZM39.4309 11V3.36364H40.8677V4.5767H40.9473C41.0865 4.16572 41.3317 3.84257 41.6831 3.60724C42.0377 3.36861 42.4387 3.24929 42.8862 3.24929C42.979 3.24929 43.0884 3.2526 43.2143 3.25923C43.3436 3.26586 43.4447 3.27415 43.5176 3.28409V4.70597C43.4579 4.68939 43.3519 4.67116 43.1994 4.65128C43.0469 4.62808 42.8945 4.61648 42.742 4.61648C42.3907 4.61648 42.0775 4.69105 41.8024 4.8402C41.5306 4.98603 41.3152 5.18987 41.1561 5.4517C40.997 5.71023 40.9174 6.00521 40.9174 6.33665V11H39.4309ZM44.804 11V3.36364H46.2905V11H44.804ZM45.5547 2.18537C45.2962 2.18537 45.0741 2.09919 44.8885 1.92685C44.7062 1.75118 44.6151 1.54238 44.6151 1.30043C44.6151 1.05516 44.7062 0.846354 44.8885 0.674005C45.0741 0.498342 45.2962 0.410511 45.5547 0.410511C45.8132 0.410511 46.0336 0.498342 46.2159 0.674005C46.4015 0.846354 46.4943 1.05516 46.4943 1.30043C46.4943 1.54238 46.4015 1.75118 46.2159 1.92685C46.0336 2.09919 45.8132 2.18537 45.5547 2.18537ZM51.492 14.0227C50.8855 14.0227 50.3635 13.9432 49.926 13.7841C49.4918 13.625 49.1371 13.4145 48.862 13.1527C48.5869 12.8909 48.3815 12.6042 48.2456 12.2926L49.5233 11.7656C49.6127 11.9115 49.7321 12.0656 49.8812 12.228C50.0337 12.3937 50.2392 12.5346 50.4977 12.6506C50.7595 12.7666 51.0959 12.8246 51.5069 12.8246C52.0704 12.8246 52.536 12.687 52.9039 12.4119C53.2718 12.1402 53.4558 11.706 53.4558 11.1094V9.60795H53.3613C53.2718 9.77036 53.1426 9.95099 52.9735 10.1499C52.8078 10.3487 52.5791 10.5211 52.2875 10.6669C51.9958 10.8127 51.6163 10.8857 51.149 10.8857C50.5458 10.8857 50.0022 10.7448 49.5183 10.4631C49.0377 10.178 48.6565 9.75876 48.3748 9.20526C48.0964 8.64844 47.9572 7.96401 47.9572 7.15199C47.9572 6.33996 48.0948 5.64394 48.3699 5.06392C48.6483 4.4839 49.0294 4.03977 49.5133 3.73153C49.9972 3.41998 50.5458 3.2642 51.1589 3.2642C51.6329 3.2642 52.0157 3.34375 52.3074 3.50284C52.599 3.65862 52.8261 3.84091 52.9885 4.04972C53.1542 4.25852 53.2818 4.44247 53.3713 4.60156H53.4806V3.36364H54.9373V11.169C54.9373 11.8253 54.7849 12.3639 54.4799 12.7848C54.175 13.2057 53.7624 13.5173 53.242 13.7195C52.725 13.9216 52.1416 14.0227 51.492 14.0227ZM51.4771 9.6527C51.9047 9.6527 52.2659 9.55327 52.5609 9.3544C52.8592 9.15223 53.0846 8.86387 53.237 8.48935C53.3928 8.11151 53.4707 7.65909 53.4707 7.1321C53.4707 6.61837 53.3945 6.16596 53.242 5.77486C53.0895 5.38376 52.8658 5.07884 52.5708 4.86009C52.2759 4.63802 51.9113 4.52699 51.4771 4.52699C51.0297 4.52699 50.6568 4.64299 50.3585 4.875C50.0602 5.10369 49.8348 5.41525 49.6824 5.80966C49.5332 6.20407 49.4586 6.64489 49.4586 7.1321C49.4586 7.63258 49.5349 8.07173 49.6873 8.44957C49.8398 8.82741 50.0652 9.1224 50.3635 9.33452C50.6651 9.54664 51.0363 9.6527 51.4771 9.6527ZM58.4174 6.46591V11H56.9309V0.818182H58.3975V4.60653H58.492C58.671 4.19555 58.9444 3.86908 59.3123 3.62713C59.6802 3.38518 60.1608 3.2642 60.7541 3.2642C61.2778 3.2642 61.7351 3.37192 62.1262 3.58736C62.5207 3.80279 62.8256 4.12429 63.041 4.55185C63.2598 4.97609 63.3691 5.50639 63.3691 6.14276V11H61.8826V6.32173C61.8826 5.7616 61.7385 5.32741 61.4501 5.01918C61.1618 4.70762 60.7607 4.55185 60.247 4.55185C59.8957 4.55185 59.5808 4.62642 59.3024 4.77557C59.0273 4.92472 58.8102 5.14347 58.6511 5.43182C58.4953 5.71686 58.4174 6.06155 58.4174 6.46591ZM68.9174 3.36364V4.55682H64.7463V3.36364H68.9174ZM65.8649 1.53409H67.3514V8.75781C67.3514 9.04616 67.3945 9.26326 67.4806 9.40909C67.5668 9.55161 67.6779 9.64938 67.8137 9.70241C67.9529 9.75213 68.1038 9.77699 68.2662 9.77699C68.3855 9.77699 68.4899 9.7687 68.5794 9.75213C68.6689 9.73556 68.7385 9.7223 68.7882 9.71236L69.0566 10.9403C68.9705 10.9735 68.8478 11.0066 68.6887 11.0398C68.5297 11.0762 68.3308 11.0961 68.0922 11.0994C67.7011 11.1061 67.3365 11.0365 66.9984 10.8906C66.6603 10.7448 66.3869 10.5194 66.1781 10.2145C65.9693 9.90956 65.8649 9.52675 65.8649 9.06605V1.53409ZM74.8013 6.05327V7.34091H70.2871V6.05327H74.8013ZM80.3074 11.169C79.5218 11.1657 78.8507 10.9586 78.2939 10.5476C77.737 10.1366 77.3111 9.53835 77.0162 8.75284C76.7212 7.96733 76.5737 7.02107 76.5737 5.91406C76.5737 4.81037 76.7212 3.86742 77.0162 3.08523C77.3145 2.30303 77.742 1.70644 78.2988 1.29545C78.859 0.884469 79.5285 0.678977 80.3074 0.678977C81.0862 0.678977 81.7541 0.886126 82.3109 1.30043C82.8677 1.71141 83.2936 2.308 83.5886 3.0902C83.8869 3.86908 84.036 4.81037 84.036 5.91406C84.036 7.02438 83.8886 7.9723 83.5936 8.75781C83.2986 9.54001 82.8727 10.1383 82.3159 10.5526C81.7591 10.9635 81.0895 11.169 80.3074 11.169ZM80.3074 9.84162C80.9967 9.84162 81.5353 9.50521 81.9231 8.83239C82.3142 8.15956 82.5098 7.18679 82.5098 5.91406C82.5098 5.06889 82.4203 4.35464 82.2413 3.77131C82.0656 3.18466 81.8121 2.74053 81.4806 2.43892C81.1525 2.134 80.7614 1.98153 80.3074 1.98153C79.6213 1.98153 79.0827 2.3196 78.6916 2.99574C78.3005 3.67187 78.1033 4.64465 78.1 5.91406C78.1 6.76255 78.1878 7.48011 78.3635 8.06676C78.5424 8.65009 78.796 9.09257 79.1241 9.39418C79.4522 9.69247 79.8467 9.84162 80.3074 9.84162ZM85.7997 11V9.88636L89.245 6.31676C89.6129 5.92898 89.9162 5.58925 90.1548 5.29759C90.3968 5.0026 90.5774 4.72254 90.6967 4.45739C90.8161 4.19223 90.8757 3.91051 90.8757 3.61222C90.8757 3.27415 90.7962 2.98248 90.6371 2.73722C90.478 2.48864 90.2609 2.29806 89.9858 2.16548C89.7107 2.02959 89.4008 1.96165 89.0561 1.96165C88.6915 1.96165 88.3733 2.03622 88.1016 2.18537C87.8298 2.33452 87.621 2.54498 87.4751 2.81676C87.3293 3.08854 87.2564 3.40672 87.2564 3.77131H85.7898C85.7898 3.15151 85.9323 2.60961 86.2173 2.1456C86.5024 1.68158 86.8935 1.32197 87.3906 1.06676C87.8878 0.808238 88.4529 0.678977 89.0859 0.678977C89.7256 0.678977 90.2891 0.806581 90.7763 1.06179C91.2668 1.31368 91.6496 1.65838 91.9247 2.09588C92.1998 2.53007 92.3374 3.0206 92.3374 3.56747C92.3374 3.94531 92.2661 4.31487 92.1236 4.67614C91.9844 5.0374 91.7408 5.4401 91.3928 5.88423C91.0447 6.32505 90.5608 6.86032 89.9411 7.49006L87.9176 9.60795V9.68253H92.5014V11H85.7997Z" fill="black"/>
</svg>
