<svg viewBox="0 0 19 12" fill="none" stroke-width="2" stroke="currentColor" aria-hidden="true">
  <path d="M1.4858 0.818182V11H-0.000710189V0.818182H1.4858ZM3.48562 11V3.36364H4.97212V11H3.48562ZM4.23633 2.18537C3.97781 2.18537 3.75574 2.09919 3.57013 1.92685C3.38784 1.75118 3.2967 1.54238 3.2967 1.30043C3.2967 1.05516 3.38784 0.846354 3.57013 0.674005C3.75574 0.498342 3.97781 0.410511 4.23633 0.410511C4.49485 0.410511 4.71526 0.498342 4.89755 0.674005C5.08316 0.846354 5.17596 1.05516 5.17596 1.30043C5.17596 1.54238 5.08316 1.75118 4.89755 1.92685C4.71526 2.09919 4.49485 2.18537 4.23633 2.18537ZM12.6942 5.22798L11.3469 5.46662C11.2906 5.29427 11.2011 5.13021 11.0785 4.97443C10.9592 4.81865 10.7968 4.69105 10.5913 4.59162C10.3858 4.49219 10.1289 4.44247 9.82067 4.44247C9.39974 4.44247 9.04841 4.53693 8.76669 4.72585C8.48497 4.91146 8.34411 5.15175 8.34411 5.44673C8.34411 5.70194 8.43857 5.90743 8.62749 6.06321C8.81641 6.21899 9.12133 6.34659 9.54226 6.44602L10.7553 6.72443C11.458 6.88684 11.9817 7.13707 12.3263 7.47514C12.671 7.81321 12.8434 8.25237 12.8434 8.79261C12.8434 9.25 12.7108 9.65767 12.4457 10.0156C12.1838 10.3703 11.8176 10.6487 11.3469 10.8509C10.8796 11.053 10.3377 11.1541 9.72124 11.1541C8.86612 11.1541 8.16844 10.9718 7.6282 10.6072C7.08795 10.2393 6.75651 9.71733 6.63388 9.04119L8.07067 8.82244C8.16016 9.19697 8.34411 9.48035 8.62251 9.67259C8.90092 9.86151 9.26385 9.95597 9.71129 9.95597C10.1985 9.95597 10.5879 9.85488 10.8796 9.6527C11.1713 9.44721 11.3171 9.19697 11.3171 8.90199C11.3171 8.66335 11.2276 8.46283 11.0487 8.30043C10.873 8.13802 10.6029 8.01539 10.2383 7.93253L8.94567 7.64915C8.23307 7.48674 7.70608 7.22822 7.3647 6.87358C7.02663 6.51894 6.8576 6.06984 6.8576 5.52628C6.8576 5.07552 6.98355 4.68111 7.23544 4.34304C7.48733 4.00497 7.83535 3.74148 8.27947 3.55256C8.7236 3.36032 9.23236 3.2642 9.80575 3.2642C10.631 3.2642 11.2807 3.44318 11.7546 3.80114C12.2286 4.15578 12.5418 4.63139 12.6942 5.22798ZM18.0424 3.36364V4.55682H13.8713V3.36364H18.0424ZM14.9899 1.53409H16.4764V8.75781C16.4764 9.04616 16.5195 9.26326 16.6056 9.40909C16.6918 9.55161 16.8029 9.64938 16.9387 9.70241C17.0779 9.75213 17.2288 9.77699 17.3912 9.77699C17.5105 9.77699 17.6149 9.7687 17.7044 9.75213C17.7939 9.73556 17.8635 9.7223 17.9132 9.71236L18.1816 10.9403C18.0955 10.9735 17.9728 11.0066 17.8137 11.0398C17.6547 11.0762 17.4558 11.0961 17.2172 11.0994C16.8261 11.1061 16.4615 11.0365 16.1234 10.8906C15.7853 10.7448 15.5119 10.5194 15.3031 10.2145C15.0943 9.90956 14.9899 9.52675 14.9899 9.06605V1.53409Z" fill="black"/>
</svg>
