<svg viewBox="0 0 102 12" fill="none" stroke-width="2" stroke="currentColor" aria-hidden="true">
  <path d="M0.99929 11V3.36364H2.4858V11H0.99929ZM1.75 2.18537C1.49148 2.18537 1.26941 2.09919 1.08381 1.92685C0.901515 1.75118 0.810369 1.54238 0.810369 1.30043C0.810369 1.05516 0.901515 0.846354 1.08381 0.674005C1.26941 0.498342 1.49148 0.410511 1.75 0.410511C2.00852 0.410511 2.22893 0.498342 2.41122 0.674005C2.59683 0.846354 2.68963 1.05516 2.68963 1.30043C2.68963 1.54238 2.59683 1.75118 2.41122 1.92685C2.22893 2.09919 2.00852 2.18537 1.75 2.18537ZM5.97212 6.46591V11H4.48562V3.36364H5.91246V4.60653H6.00692C6.18259 4.20218 6.45768 3.87737 6.83221 3.6321C7.21005 3.38684 7.68567 3.2642 8.25906 3.2642C8.77942 3.2642 9.23514 3.37358 9.62624 3.59233C10.0173 3.80777 10.3206 4.12926 10.536 4.55682C10.7515 4.98437 10.8592 5.51302 10.8592 6.14276V11H9.37269V6.32173C9.37269 5.76823 9.22852 5.3357 8.94016 5.02415C8.65181 4.70928 8.25574 4.55185 7.75195 4.55185C7.40726 4.55185 7.10067 4.62642 6.83221 4.77557C6.56706 4.92472 6.35659 5.14347 6.20082 5.43182C6.04835 5.71686 5.97212 6.06155 5.97212 6.46591ZM16.4174 3.36364V4.55682H12.2463V3.36364H16.4174ZM13.3649 1.53409H14.8514V8.75781C14.8514 9.04616 14.8945 9.26326 14.9806 9.40909C15.0668 9.55161 15.1779 9.64938 15.3137 9.70241C15.4529 9.75213 15.6038 9.77699 15.7662 9.77699C15.8855 9.77699 15.9899 9.7687 16.0794 9.75213C16.1689 9.73556 16.2385 9.7223 16.2882 9.71236L16.5566 10.9403C16.4705 10.9735 16.3478 11.0066 16.1887 11.0398C16.0297 11.0762 15.8308 11.0961 15.5922 11.0994C15.2011 11.1061 14.8365 11.0365 14.4984 10.8906C14.1603 10.7448 13.8869 10.5194 13.6781 10.2145C13.4693 9.90956 13.3649 9.52675 13.3649 9.06605V1.53409ZM21.271 11.1541C20.5186 11.1541 19.8706 10.9934 19.3271 10.6719C18.7868 10.3471 18.3692 9.89134 18.0742 9.30469C17.7826 8.71473 17.6367 8.02367 17.6367 7.23153C17.6367 6.44934 17.7826 5.75994 18.0742 5.16335C18.3692 4.56676 18.7802 4.10109 19.3072 3.76633C19.8375 3.43158 20.4573 3.2642 21.1665 3.2642C21.5974 3.2642 22.015 3.33546 22.4194 3.47798C22.8237 3.6205 23.1867 3.84422 23.5082 4.14915C23.8297 4.45407 24.0832 4.85014 24.2688 5.33736C24.4544 5.82126 24.5472 6.40956 24.5472 7.10227V7.62926H18.4769V6.51562H23.0906C23.0906 6.12453 23.011 5.77817 22.8519 5.47656C22.6928 5.17164 22.4691 4.93134 22.1808 4.75568C21.8957 4.58002 21.561 4.49219 21.1765 4.49219C20.7589 4.49219 20.3943 4.59493 20.0827 4.80043C19.7745 5.0026 19.5359 5.26776 19.3668 5.59588C19.2011 5.92069 19.1183 6.27367 19.1183 6.65483V7.52486C19.1183 8.03527 19.2077 8.46946 19.3867 8.82741C19.569 9.18537 19.8226 9.45881 20.1474 9.64773C20.4722 9.83333 20.8517 9.92614 21.2859 9.92614C21.5676 9.92614 21.8245 9.88636 22.0565 9.80682C22.2885 9.72396 22.489 9.60133 22.658 9.43892C22.8271 9.27652 22.9563 9.07599 23.0458 8.83736L24.4528 9.09091C24.3401 9.50521 24.1379 9.86813 23.8462 10.1797C23.5579 10.4879 23.195 10.7282 22.7575 10.9006C22.3233 11.0696 21.8278 11.1541 21.271 11.1541ZM26.1966 11V3.36364H27.6333V4.5767H27.7129C27.8521 4.16572 28.0974 3.84257 28.4487 3.60724C28.8033 3.36861 29.2044 3.24929 29.6518 3.24929C29.7446 3.24929 29.854 3.2526 29.9799 3.25923C30.1092 3.26586 30.2103 3.27415 30.2832 3.28409V4.70597C30.2235 4.68939 30.1175 4.67116 29.965 4.65128C29.8126 4.62808 29.6601 4.61648 29.5076 4.61648C29.1563 4.61648 28.8431 4.69105 28.568 4.8402C28.2962 4.98603 28.0808 5.18987 27.9217 5.4517C27.7626 5.71023 27.6831 6.00521 27.6831 6.33665V11H26.1966ZM37.2919 5.22798L35.9446 5.46662C35.8883 5.29427 35.7988 5.13021 35.6761 4.97443C35.5568 4.81865 35.3944 4.69105 35.1889 4.59162C34.9834 4.49219 34.7266 4.44247 34.4183 4.44247C33.9974 4.44247 33.6461 4.53693 33.3643 4.72585C33.0826 4.91146 32.9418 5.15175 32.9418 5.44673C32.9418 5.70194 33.0362 5.90743 33.2251 6.06321C33.4141 6.21899 33.719 6.34659 34.1399 6.44602L35.353 6.72443C36.0556 6.88684 36.5793 7.13707 36.924 7.47514C37.2687 7.81321 37.4411 8.25237 37.4411 8.79261C37.4411 9.25 37.3085 9.65767 37.0433 10.0156C36.7815 10.3703 36.4152 10.6487 35.9446 10.8509C35.4773 11.053 34.9354 11.1541 34.3189 11.1541C33.4638 11.1541 32.7661 10.9718 32.2259 10.6072C31.6856 10.2393 31.3542 9.71733 31.2315 9.04119L32.6683 8.82244C32.7578 9.19697 32.9418 9.48035 33.2202 9.67259C33.4986 9.86151 33.8615 9.95597 34.3089 9.95597C34.7962 9.95597 35.1856 9.85488 35.4773 9.6527C35.7689 9.44721 35.9148 9.19697 35.9148 8.90199C35.9148 8.66335 35.8253 8.46283 35.6463 8.30043C35.4706 8.13802 35.2005 8.01539 34.8359 7.93253L33.5433 7.64915C32.8307 7.48674 32.3037 7.22822 31.9624 6.87358C31.6243 6.51894 31.4553 6.06984 31.4553 5.52628C31.4553 5.07552 31.5812 4.68111 31.8331 4.34304C32.085 4.00497 32.433 3.74148 32.8771 3.55256C33.3213 3.36032 33.83 3.2642 34.4034 3.2642C35.2287 3.2642 35.8783 3.44318 36.3523 3.80114C36.8262 4.15578 37.1394 4.63139 37.2919 5.22798ZM42.3667 11.1541C41.6143 11.1541 40.9663 10.9934 40.4228 10.6719C39.8825 10.3471 39.4649 9.89134 39.1699 9.30469C38.8783 8.71473 38.7324 8.02367 38.7324 7.23153C38.7324 6.44934 38.8783 5.75994 39.1699 5.16335C39.4649 4.56676 39.8759 4.10109 40.4029 3.76633C40.9332 3.43158 41.553 3.2642 42.2623 3.2642C42.6931 3.2642 43.1107 3.33546 43.5151 3.47798C43.9194 3.6205 44.2824 3.84422 44.6039 4.14915C44.9254 4.45407 45.1789 4.85014 45.3645 5.33736C45.5501 5.82126 45.6429 6.40956 45.6429 7.10227V7.62926H39.5726V6.51562H44.1863C44.1863 6.12453 44.1067 5.77817 43.9476 5.47656C43.7885 5.17164 43.5648 4.93134 43.2765 4.75568C42.9914 4.58002 42.6567 4.49219 42.2722 4.49219C41.8546 4.49219 41.49 4.59493 41.1784 4.80043C40.8702 5.0026 40.6316 5.26776 40.4625 5.59588C40.2968 5.92069 40.214 6.27367 40.214 6.65483V7.52486C40.214 8.03527 40.3034 8.46946 40.4824 8.82741C40.6647 9.18537 40.9183 9.45881 41.2431 9.64773C41.5679 9.83333 41.9474 9.92614 42.3816 9.92614C42.6633 9.92614 42.9202 9.88636 43.1522 9.80682C43.3842 9.72396 43.5847 9.60133 43.7537 9.43892C43.9228 9.27652 44.052 9.07599 44.1415 8.83736L45.5485 9.09091C45.4358 9.50521 45.2336 9.86813 44.9419 10.1797C44.6536 10.4879 44.2907 10.7282 43.8532 10.9006C43.419 11.0696 42.9235 11.1541 42.3667 11.1541ZM50.5089 11.1541C49.7698 11.1541 49.1334 10.9867 48.5998 10.652C48.0695 10.3139 47.6618 9.84825 47.3768 9.25497C47.0917 8.66169 46.9492 7.98224 46.9492 7.21662C46.9492 6.44105 47.0951 5.75663 47.3867 5.16335C47.6784 4.56676 48.0894 4.10109 48.6197 3.76633C49.15 3.43158 49.7747 3.2642 50.494 3.2642C51.074 3.2642 51.591 3.37192 52.0451 3.58736C52.4992 3.79948 52.8654 4.09777 53.1438 4.48224C53.4255 4.86671 53.5929 5.31581 53.646 5.82955H52.1992C52.1197 5.47159 51.9374 5.16335 51.6523 4.90483C51.3706 4.64631 50.9928 4.51705 50.5188 4.51705C50.1045 4.51705 49.7416 4.62642 49.43 4.84517C49.1218 5.06061 48.8815 5.36884 48.7092 5.76989C48.5368 6.16761 48.4506 6.63826 48.4506 7.18182C48.4506 7.73864 48.5352 8.21922 48.7042 8.62358C48.8732 9.02794 49.1119 9.34115 49.4201 9.56321C49.7317 9.78527 50.0979 9.89631 50.5188 9.89631C50.8005 9.89631 51.0558 9.84493 51.2844 9.74219C51.5165 9.63613 51.7103 9.48532 51.8661 9.28977C52.0252 9.09422 52.1362 8.8589 52.1992 8.58381H53.646C53.5929 9.07765 53.4322 9.51847 53.1637 9.90625C52.8952 10.294 52.5356 10.599 52.0849 10.821C51.6374 11.0431 51.1121 11.1541 50.5089 11.1541ZM58.8002 3.36364V4.55682H54.6291V3.36364H58.8002ZM55.7477 1.53409H57.2342V8.75781C57.2342 9.04616 57.2773 9.26326 57.3635 9.40909C57.4496 9.55161 57.5607 9.64938 57.6966 9.70241C57.8358 9.75213 57.9866 9.77699 58.149 9.77699C58.2683 9.77699 58.3727 9.7687 58.4622 9.75213C58.5517 9.73556 58.6213 9.7223 58.671 9.71236L58.9395 10.9403C58.8533 10.9735 58.7306 11.0066 58.5716 11.0398C58.4125 11.0762 58.2136 11.0961 57.975 11.0994C57.5839 11.1061 57.2193 11.0365 56.8812 10.8906C56.5431 10.7448 56.2697 10.5194 56.0609 10.2145C55.8521 9.90956 55.7477 9.52675 55.7477 9.06605V1.53409ZM64.6841 6.05327V7.34091H60.1699V6.05327H64.6841ZM69.8819 11.1541C69.1428 11.1541 68.5065 10.9867 67.9728 10.652C67.4425 10.3139 67.0349 9.84825 66.7498 9.25497C66.4648 8.66169 66.3223 7.98224 66.3223 7.21662C66.3223 6.44105 66.4681 5.75663 66.7598 5.16335C67.0514 4.56676 67.4624 4.10109 67.9927 3.76633C68.523 3.43158 69.1478 3.2642 69.867 3.2642C70.447 3.2642 70.9641 3.37192 71.4181 3.58736C71.8722 3.79948 72.2385 4.09777 72.5169 4.48224C72.7986 4.86671 72.966 5.31581 73.019 5.82955H71.5723C71.4927 5.47159 71.3104 5.16335 71.0254 4.90483C70.7437 4.64631 70.3658 4.51705 69.8919 4.51705C69.4776 4.51705 69.1146 4.62642 68.8031 4.84517C68.4949 5.06061 68.2546 5.36884 68.0822 5.76989C67.9099 6.16761 67.8237 6.63826 67.8237 7.18182C67.8237 7.73864 67.9082 8.21922 68.0772 8.62358C68.2463 9.02794 68.4849 9.34115 68.7931 9.56321C69.1047 9.78527 69.4709 9.89631 69.8919 9.89631C70.1736 9.89631 70.4288 9.84493 70.6575 9.74219C70.8895 9.63613 71.0834 9.48532 71.2392 9.28977C71.3983 9.09422 71.5093 8.8589 71.5723 8.58381H73.019C72.966 9.07765 72.8052 9.51847 72.5368 9.90625C72.2683 10.294 71.9087 10.599 71.4579 10.821C71.0105 11.0431 70.4851 11.1541 69.8819 11.1541ZM74.6087 11V3.36364H76.0952V11H74.6087ZM75.3594 2.18537C75.1009 2.18537 74.8788 2.09919 74.6932 1.92685C74.5109 1.75118 74.4197 1.54238 74.4197 1.30043C74.4197 1.05516 74.5109 0.846354 74.6932 0.674005C74.8788 0.498342 75.1009 0.410511 75.3594 0.410511C75.6179 0.410511 75.8383 0.498342 76.0206 0.674005C76.2062 0.846354 76.299 1.05516 76.299 1.30043C76.299 1.54238 76.2062 1.75118 76.0206 1.92685C75.8383 2.09919 75.6179 2.18537 75.3594 2.18537ZM78.095 11V3.36364H79.5318V4.5767H79.6113C79.7505 4.16572 79.9958 3.84257 80.3471 3.60724C80.7018 3.36861 81.1028 3.24929 81.5502 3.24929C81.6431 3.24929 81.7524 3.2526 81.8784 3.25923C82.0076 3.26586 82.1087 3.27415 82.1816 3.28409V4.70597C82.122 4.68939 82.0159 4.67116 81.8635 4.65128C81.711 4.62808 81.5585 4.61648 81.4061 4.61648C81.0547 4.61648 80.7415 4.69105 80.4664 4.8402C80.1947 4.98603 79.9792 5.18987 79.8201 5.4517C79.661 5.71023 79.5815 6.00521 79.5815 6.33665V11H78.095ZM86.4112 11.1541C85.6721 11.1541 85.0357 10.9867 84.5021 10.652C83.9718 10.3139 83.5642 9.84825 83.2791 9.25497C82.9941 8.66169 82.8516 7.98224 82.8516 7.21662C82.8516 6.44105 82.9974 5.75663 83.2891 5.16335C83.5807 4.56676 83.9917 4.10109 84.522 3.76633C85.0523 3.43158 85.6771 3.2642 86.3963 3.2642C86.9763 3.2642 87.4934 3.37192 87.9474 3.58736C88.4015 3.79948 88.7678 4.09777 89.0462 4.48224C89.3279 4.86671 89.4953 5.31581 89.5483 5.82955H88.1016C88.022 5.47159 87.8397 5.16335 87.5547 4.90483C87.273 4.64631 86.8951 4.51705 86.4212 4.51705C86.0069 4.51705 85.6439 4.62642 85.3324 4.84517C85.0241 5.06061 84.7839 5.36884 84.6115 5.76989C84.4392 6.16761 84.353 6.63826 84.353 7.18182C84.353 7.73864 84.4375 8.21922 84.6065 8.62358C84.7756 9.02794 85.0142 9.34115 85.3224 9.56321C85.634 9.78527 86.0002 9.89631 86.4212 9.89631C86.7029 9.89631 86.9581 9.84493 87.1868 9.74219C87.4188 9.63613 87.6127 9.48532 87.7685 9.28977C87.9276 9.09422 88.0386 8.8589 88.1016 8.58381H89.5483C89.4953 9.07765 89.3345 9.51847 89.0661 9.90625C88.7976 10.294 88.438 10.599 87.9872 10.821C87.5398 11.0431 87.0144 11.1541 86.4112 11.1541ZM92.6245 0.818182V11H91.138V0.818182H92.6245ZM97.9155 11.1541C97.1631 11.1541 96.5152 10.9934 95.9716 10.6719C95.4313 10.3471 95.0137 9.89134 94.7188 9.30469C94.4271 8.71473 94.2812 8.02367 94.2812 7.23153C94.2812 6.44934 94.4271 5.75994 94.7188 5.16335C95.0137 4.56676 95.4247 4.10109 95.9517 3.76633C96.482 3.43158 97.1018 3.2642 97.8111 3.2642C98.242 3.2642 98.6596 3.33546 99.0639 3.47798C99.4683 3.6205 99.8312 3.84422 100.153 4.14915C100.474 4.45407 100.728 4.85014 100.913 5.33736C101.099 5.82126 101.192 6.40956 101.192 7.10227V7.62926H95.1214V6.51562H99.7351C99.7351 6.12453 99.6555 5.77817 99.4964 5.47656C99.3374 5.17164 99.1136 4.93134 98.8253 4.75568C98.5402 4.58002 98.2055 4.49219 97.821 4.49219C97.4034 4.49219 97.0388 4.59493 96.7273 4.80043C96.419 5.0026 96.1804 5.26776 96.0114 5.59588C95.8456 5.92069 95.7628 6.27367 95.7628 6.65483V7.52486C95.7628 8.03527 95.8523 8.46946 96.0312 8.82741C96.2135 9.18537 96.4671 9.45881 96.7919 9.64773C97.1167 9.83333 97.4962 9.92614 97.9304 9.92614C98.2121 9.92614 98.469 9.88636 98.701 9.80682C98.933 9.72396 99.1335 9.60133 99.3026 9.43892C99.4716 9.27652 99.6009 9.07599 99.6903 8.83736L101.097 9.09091C100.985 9.50521 100.782 9.86813 100.491 10.1797C100.202 10.4879 99.8395 10.7282 99.402 10.9006C98.9678 11.0696 98.4723 11.1541 97.9155 11.1541Z" fill="black"/>
</svg>
