<svg viewBox="0 0 105 15" fill="none" stroke-width="2" stroke="currentColor" aria-hidden="true">
  <path d="M4.20099 14.0227C3.59446 14.0227 3.07244 13.9432 2.63494 13.7841C2.20076 13.625 1.84612 13.4145 1.57102 13.1527C1.29593 12.8909 1.09044 12.6042 0.954545 12.2926L2.23224 11.7656C2.32173 11.9115 2.44105 12.0656 2.5902 12.228C2.74266 12.3937 2.94815 12.5346 3.20668 12.6506C3.46851 12.7666 3.80492 12.8246 4.21591 12.8246C4.77936 12.8246 5.24503 12.687 5.61293 12.4119C5.98082 12.1402 6.16477 11.706 6.16477 11.1094V9.60795H6.07031C5.98082 9.77036 5.85156 9.95099 5.68253 10.1499C5.51681 10.3487 5.28812 10.5211 4.99645 10.6669C4.70478 10.8127 4.32528 10.8857 3.85795 10.8857C3.25473 10.8857 2.71117 10.7448 2.22727 10.4631C1.74669 10.178 1.36553 9.75876 1.08381 9.20526C0.805398 8.64844 0.666193 7.96401 0.666193 7.15199C0.666193 6.33996 0.803741 5.64394 1.07884 5.06392C1.35724 4.4839 1.7384 4.03977 2.2223 3.73153C2.7062 3.41998 3.25473 3.2642 3.8679 3.2642C4.34186 3.2642 4.72467 3.34375 5.01634 3.50284C5.308 3.65862 5.53504 3.84091 5.69744 4.04972C5.86316 4.25852 5.99077 4.44247 6.08026 4.60156H6.18963V3.36364H7.64631V11.169C7.64631 11.8253 7.49385 12.3639 7.18892 12.7848C6.884 13.2057 6.47135 13.5173 5.95099 13.7195C5.43395 13.9216 4.85062 14.0227 4.20099 14.0227ZM4.18608 9.6527C4.61364 9.6527 4.97491 9.55327 5.26989 9.3544C5.56818 9.15223 5.79356 8.86387 5.94602 8.48935C6.1018 8.11151 6.17969 7.65909 6.17969 7.1321C6.17969 6.61837 6.10346 6.16596 5.95099 5.77486C5.79853 5.38376 5.57481 5.07884 5.27983 4.86009C4.98485 4.63802 4.62027 4.52699 4.18608 4.52699C3.73864 4.52699 3.36577 4.64299 3.06747 4.875C2.76918 5.10369 2.5438 5.41525 2.39134 5.80966C2.24219 6.20407 2.16761 6.64489 2.16761 7.1321C2.16761 7.63258 2.24384 8.07173 2.39631 8.44957C2.54877 8.82741 2.77415 9.1224 3.07244 9.33452C3.37405 9.54664 3.74527 9.6527 4.18608 9.6527ZM9.63991 11V3.36364H11.0767V4.5767H11.1562C11.2955 4.16572 11.5407 3.84257 11.892 3.60724C12.2467 3.36861 12.6477 3.24929 13.0952 3.24929C13.188 3.24929 13.2973 3.2526 13.4233 3.25923C13.5526 3.26586 13.6536 3.27415 13.7266 3.28409V4.70597C13.6669 4.68939 13.5608 4.67116 13.4084 4.65128C13.2559 4.62808 13.1035 4.61648 12.951 4.61648C12.5997 4.61648 12.2865 4.69105 12.0114 4.8402C11.7396 4.98603 11.5241 5.18987 11.3651 5.4517C11.206 5.71023 11.1264 6.00521 11.1264 6.33665V11H9.63991ZM15.013 11V3.36364H16.4995V11H15.013ZM15.7637 2.18537C15.5051 2.18537 15.2831 2.09919 15.0975 1.92685C14.9152 1.75118 14.824 1.54238 14.824 1.30043C14.824 1.05516 14.9152 0.846354 15.0975 0.674005C15.2831 0.498342 15.5051 0.410511 15.7637 0.410511C16.0222 0.410511 16.2426 0.498342 16.4249 0.674005C16.6105 0.846354 16.7033 1.05516 16.7033 1.30043C16.7033 1.54238 16.6105 1.75118 16.4249 1.92685C16.2426 2.09919 16.0222 2.18537 15.7637 2.18537ZM21.358 11.1491C20.7415 11.1491 20.1913 10.9917 19.7074 10.6768C19.2268 10.3587 18.849 9.90625 18.5739 9.3196C18.3021 8.72964 18.1662 8.02202 18.1662 7.19673C18.1662 6.37145 18.3037 5.66548 18.5788 5.07884C18.8572 4.49219 19.2384 4.04309 19.7223 3.73153C20.2062 3.41998 20.7547 3.2642 21.3679 3.2642C21.8419 3.2642 22.223 3.34375 22.5114 3.50284C22.803 3.65862 23.0284 3.84091 23.1875 4.04972C23.3499 4.25852 23.4759 4.44247 23.5653 4.60156H23.6548V0.818182H25.1413V11H23.6896V9.81179H23.5653C23.4759 9.9742 23.3466 10.1598 23.1776 10.3686C23.0118 10.5774 22.7831 10.7597 22.4915 10.9155C22.1998 11.0713 21.822 11.1491 21.358 11.1491ZM21.6861 9.88139C22.1136 9.88139 22.4749 9.7687 22.7699 9.54332C23.0682 9.31463 23.2936 8.99811 23.446 8.59375C23.6018 8.18939 23.6797 7.71875 23.6797 7.18182C23.6797 6.65151 23.6035 6.1875 23.451 5.78977C23.2985 5.39205 23.0748 5.08215 22.7798 4.86009C22.4848 4.63802 22.1203 4.52699 21.6861 4.52699C21.2386 4.52699 20.8658 4.64299 20.5675 4.875C20.2692 5.10701 20.0438 5.42353 19.8913 5.82457C19.7422 6.22562 19.6676 6.67803 19.6676 7.18182C19.6676 7.69223 19.7438 8.15128 19.8963 8.55895C20.0488 8.96662 20.2741 9.28977 20.5724 9.52841C20.8741 9.76373 21.2453 9.88139 21.6861 9.88139ZM31.7623 6.05327V7.34091H27.248V6.05327H31.7623ZM36.6021 11.1491C35.9856 11.1491 35.4354 10.9917 34.9515 10.6768C34.4709 10.3587 34.0931 9.90625 33.818 9.3196C33.5462 8.72964 33.4103 8.02202 33.4103 7.19673C33.4103 6.37145 33.5479 5.66548 33.823 5.07884C34.1014 4.49219 34.4825 4.04309 34.9664 3.73153C35.4503 3.41998 35.9989 3.2642 36.612 3.2642C37.086 3.2642 37.4672 3.34375 37.7555 3.50284C38.0472 3.65862 38.2725 3.84091 38.4316 4.04972C38.594 4.25852 38.72 4.44247 38.8095 4.60156H38.899V0.818182H40.3855V11H38.9338V9.81179H38.8095C38.72 9.9742 38.5907 10.1598 38.4217 10.3686C38.256 10.5774 38.0273 10.7597 37.7356 10.9155C37.444 11.0713 37.0661 11.1491 36.6021 11.1491ZM36.9302 9.88139C37.3578 9.88139 37.719 9.7687 38.014 9.54332C38.3123 9.31463 38.5377 8.99811 38.6902 8.59375C38.8459 8.18939 38.9238 7.71875 38.9238 7.18182C38.9238 6.65151 38.8476 6.1875 38.6951 5.78977C38.5427 5.39205 38.319 5.08215 38.024 4.86009C37.729 4.63802 37.3644 4.52699 36.9302 4.52699C36.4828 4.52699 36.1099 4.64299 35.8116 4.875C35.5133 5.10701 35.2879 5.42353 35.1355 5.82457C34.9863 6.22562 34.9118 6.67803 34.9118 7.18182C34.9118 7.69223 34.988 8.15128 35.1404 8.55895C35.2929 8.96662 35.5183 9.28977 35.8166 9.52841C36.1182 9.76373 36.4894 9.88139 36.9302 9.88139ZM45.7237 11.1541C45.0078 11.1541 44.383 10.9901 43.8494 10.6619C43.3158 10.3338 42.9015 9.87476 42.6065 9.2848C42.3116 8.69484 42.1641 8.00544 42.1641 7.21662C42.1641 6.42448 42.3116 5.73177 42.6065 5.13849C42.9015 4.54522 43.3158 4.08452 43.8494 3.75639C44.383 3.42827 45.0078 3.2642 45.7237 3.2642C46.4396 3.2642 47.0644 3.42827 47.598 3.75639C48.1316 4.08452 48.5459 4.54522 48.8409 5.13849C49.1359 5.73177 49.2834 6.42448 49.2834 7.21662C49.2834 8.00544 49.1359 8.69484 48.8409 9.2848C48.5459 9.87476 48.1316 10.3338 47.598 10.6619C47.0644 10.9901 46.4396 11.1541 45.7237 11.1541ZM45.7287 9.90625C46.1927 9.90625 46.5772 9.78362 46.8821 9.53835C47.187 9.29309 47.4124 8.96662 47.5582 8.55895C47.7074 8.15128 47.782 7.70218 47.782 7.21165C47.782 6.72443 47.7074 6.27699 47.5582 5.86932C47.4124 5.45833 47.187 5.12855 46.8821 4.87997C46.5772 4.63139 46.1927 4.5071 45.7287 4.5071C45.2614 4.5071 44.8736 4.63139 44.5653 4.87997C44.2604 5.12855 44.0334 5.45833 43.8842 5.86932C43.7384 6.27699 43.6655 6.72443 43.6655 7.21165C43.6655 7.70218 43.7384 8.15128 43.8842 8.55895C44.0334 8.96662 44.2604 9.29309 44.5653 9.53835C44.8736 9.78362 45.2614 9.90625 45.7287 9.90625ZM54.5073 3.36364V4.55682H50.3361V3.36364H54.5073ZM51.4547 1.53409H52.9412V8.75781C52.9412 9.04616 52.9843 9.26326 53.0705 9.40909C53.1567 9.55161 53.2677 9.64938 53.4036 9.70241C53.5428 9.75213 53.6936 9.77699 53.856 9.77699C53.9753 9.77699 54.0797 9.7687 54.1692 9.75213C54.2587 9.73556 54.3283 9.7223 54.378 9.71236L54.6465 10.9403C54.5603 10.9735 54.4377 11.0066 54.2786 11.0398C54.1195 11.0762 53.9206 11.0961 53.682 11.0994C53.2909 11.1061 52.9263 11.0365 52.5882 10.8906C52.2502 10.7448 51.9767 10.5194 51.7679 10.2145C51.5591 9.90956 51.4547 9.52675 51.4547 9.06605V1.53409ZM61.7509 5.22798L60.4036 5.46662C60.3472 5.29427 60.2578 5.13021 60.1351 4.97443C60.0158 4.81865 59.8534 4.69105 59.6479 4.59162C59.4424 4.49219 59.1855 4.44247 58.8773 4.44247C58.4564 4.44247 58.1051 4.53693 57.8233 4.72585C57.5416 4.91146 57.4007 5.15175 57.4007 5.44673C57.4007 5.70194 57.4952 5.90743 57.6841 6.06321C57.873 6.21899 58.178 6.34659 58.5989 6.44602L59.812 6.72443C60.5146 6.88684 61.0383 7.13707 61.383 7.47514C61.7277 7.81321 61.9 8.25237 61.9 8.79261C61.9 9.25 61.7675 9.65767 61.5023 10.0156C61.2405 10.3703 60.8742 10.6487 60.4036 10.8509C59.9363 11.053 59.3944 11.1541 58.7779 11.1541C57.9228 11.1541 57.2251 10.9718 56.6848 10.6072C56.1446 10.2393 55.8132 9.71733 55.6905 9.04119L57.1273 8.82244C57.2168 9.19697 57.4007 9.48035 57.6792 9.67259C57.9576 9.86151 58.3205 9.95597 58.7679 9.95597C59.2551 9.95597 59.6446 9.85488 59.9363 9.6527C60.2279 9.44721 60.3738 9.19697 60.3738 8.90199C60.3738 8.66335 60.2843 8.46283 60.1053 8.30043C59.9296 8.13802 59.6595 8.01539 59.2949 7.93253L58.0023 7.64915C57.2897 7.48674 56.7627 7.22822 56.4213 6.87358C56.0833 6.51894 55.9142 6.06984 55.9142 5.52628C55.9142 5.07552 56.0402 4.68111 56.2921 4.34304C56.544 4.00497 56.892 3.74148 57.3361 3.55256C57.7802 3.36032 58.289 3.2642 58.8624 3.2642C59.6877 3.2642 60.3373 3.44318 60.8113 3.80114C61.2852 4.15578 61.5984 4.63139 61.7509 5.22798ZM68.0337 6.05327V7.34091H63.5195V6.05327H68.0337ZM73.2315 11.1541C72.5156 11.1541 71.8909 10.9901 71.3572 10.6619C70.8236 10.3338 70.4093 9.87476 70.1143 9.2848C69.8194 8.69484 69.6719 8.00544 69.6719 7.21662C69.6719 6.42448 69.8194 5.73177 70.1143 5.13849C70.4093 4.54522 70.8236 4.08452 71.3572 3.75639C71.8909 3.42827 72.5156 3.2642 73.2315 3.2642C73.9474 3.2642 74.5722 3.42827 75.1058 3.75639C75.6394 4.08452 76.0537 4.54522 76.3487 5.13849C76.6437 5.73177 76.7912 6.42448 76.7912 7.21662C76.7912 8.00544 76.6437 8.69484 76.3487 9.2848C76.0537 9.87476 75.6394 10.3338 75.1058 10.6619C74.5722 10.9901 73.9474 11.1541 73.2315 11.1541ZM73.2365 9.90625C73.7005 9.90625 74.085 9.78362 74.3899 9.53835C74.6948 9.29309 74.9202 8.96662 75.0661 8.55895C75.2152 8.15128 75.2898 7.70218 75.2898 7.21165C75.2898 6.72443 75.2152 6.27699 75.0661 5.86932C74.9202 5.45833 74.6948 5.12855 74.3899 4.87997C74.085 4.63139 73.7005 4.5071 73.2365 4.5071C72.7692 4.5071 72.3814 4.63139 72.0732 4.87997C71.7682 5.12855 71.5412 5.45833 71.392 5.86932C71.2462 6.27699 71.1733 6.72443 71.1733 7.21165C71.1733 7.70218 71.2462 8.15128 71.392 8.55895C71.5412 8.96662 71.7682 9.29309 72.0732 9.53835C72.3814 9.78362 72.7692 9.90625 73.2365 9.90625ZM83.2878 7.8331V3.36364H84.7793V11H83.3176V9.67756H83.2381C83.0624 10.0852 82.7807 10.425 82.3929 10.6967C82.0085 10.9652 81.5295 11.0994 80.9561 11.0994C80.4656 11.0994 80.0314 10.9917 79.6536 10.7763C79.2791 10.5575 78.9841 10.2344 78.7686 9.80682C78.5565 9.37926 78.4505 8.85062 78.4505 8.22088V3.36364H79.937V8.0419C79.937 8.56226 80.0811 8.97656 80.3695 9.2848C80.6578 9.59304 81.0324 9.74716 81.4931 9.74716C81.7715 9.74716 82.0482 9.67756 82.3233 9.53835C82.6017 9.39915 82.8321 9.18868 83.0144 8.90696C83.2 8.62524 83.2911 8.26728 83.2878 7.8331ZM90.3413 3.36364V4.55682H86.1701V3.36364H90.3413ZM87.2887 1.53409H88.7752V8.75781C88.7752 9.04616 88.8183 9.26326 88.9045 9.40909C88.9906 9.55161 89.1017 9.64938 89.2376 9.70241C89.3768 9.75213 89.5276 9.77699 89.69 9.77699C89.8093 9.77699 89.9137 9.7687 90.0032 9.75213C90.0927 9.73556 90.1623 9.7223 90.212 9.71236L90.4805 10.9403C90.3943 10.9735 90.2717 11.0066 90.1126 11.0398C89.9535 11.0762 89.7546 11.0961 89.516 11.0994C89.1249 11.1061 88.7603 11.0365 88.4222 10.8906C88.0842 10.7448 87.8107 10.5194 87.6019 10.2145C87.3931 9.90956 87.2887 9.52675 87.2887 9.06605V1.53409ZM95.1948 11.1541C94.4424 11.1541 93.7944 10.9934 93.2509 10.6719C92.7106 10.3471 92.293 9.89134 91.998 9.30469C91.7064 8.71473 91.5605 8.02367 91.5605 7.23153C91.5605 6.44934 91.7064 5.75994 91.998 5.16335C92.293 4.56676 92.704 4.10109 93.231 3.76633C93.7613 3.43158 94.3811 3.2642 95.0904 3.2642C95.5212 3.2642 95.9389 3.33546 96.3432 3.47798C96.7476 3.6205 97.1105 3.84422 97.432 4.14915C97.7535 4.45407 98.007 4.85014 98.1926 5.33736C98.3783 5.82126 98.4711 6.40956 98.4711 7.10227V7.62926H92.4007V6.51562H97.0144C97.0144 6.12453 96.9348 5.77817 96.7757 5.47656C96.6167 5.17164 96.3929 4.93134 96.1046 4.75568C95.8195 4.58002 95.4848 4.49219 95.1003 4.49219C94.6827 4.49219 94.3181 4.59493 94.0066 4.80043C93.6983 5.0026 93.4597 5.26776 93.2907 5.59588C93.1249 5.92069 93.0421 6.27367 93.0421 6.65483V7.52486C93.0421 8.03527 93.1316 8.46946 93.3105 8.82741C93.4928 9.18537 93.7464 9.45881 94.0712 9.64773C94.396 9.83333 94.7755 9.92614 95.2097 9.92614C95.4914 9.92614 95.7483 9.88636 95.9803 9.80682C96.2123 9.72396 96.4128 9.60133 96.5819 9.43892C96.7509 9.27652 96.8801 9.07599 96.9696 8.83736L98.3766 9.09091C98.2639 9.50521 98.0617 9.86813 97.7701 10.1797C97.4817 10.4879 97.1188 10.7282 96.6813 10.9006C96.2471 11.0696 95.7516 11.1541 95.1948 11.1541ZM100.12 11V3.36364H101.557V4.5767H101.637C101.776 4.16572 102.021 3.84257 102.373 3.60724C102.727 3.36861 103.128 3.24929 103.576 3.24929C103.668 3.24929 103.778 3.2526 103.904 3.25923C104.033 3.26586 104.134 3.27415 104.207 3.28409V4.70597C104.147 4.68939 104.041 4.67116 103.889 4.65128C103.736 4.62808 103.584 4.61648 103.431 4.61648C103.08 4.61648 102.767 4.69105 102.492 4.8402C102.22 4.98603 102.005 5.18987 101.846 5.4517C101.686 5.71023 101.607 6.00521 101.607 6.33665V11H100.12Z" fill="black"/>
</svg>
