<svg viewBox="0 0 50 15" fill="none" stroke-width="2" stroke="currentColor" aria-hidden="true">
  <path d="M4.20099 14.0227C3.59446 14.0227 3.07244 13.9432 2.63494 13.7841C2.20076 13.625 1.84612 13.4145 1.57102 13.1527C1.29593 12.8909 1.09044 12.6042 0.954545 12.2926L2.23224 11.7656C2.32173 11.9115 2.44105 12.0656 2.5902 12.228C2.74266 12.3937 2.94815 12.5346 3.20668 12.6506C3.46851 12.7666 3.80492 12.8246 4.21591 12.8246C4.77936 12.8246 5.24503 12.687 5.61293 12.4119C5.98082 12.1402 6.16477 11.706 6.16477 11.1094V9.60795H6.07031C5.98082 9.77036 5.85156 9.95099 5.68253 10.1499C5.51681 10.3487 5.28812 10.5211 4.99645 10.6669C4.70478 10.8127 4.32528 10.8857 3.85795 10.8857C3.25473 10.8857 2.71117 10.7448 2.22727 10.4631C1.74669 10.178 1.36553 9.75876 1.08381 9.20526C0.805398 8.64844 0.666193 7.96401 0.666193 7.15199C0.666193 6.33996 0.803741 5.64394 1.07884 5.06392C1.35724 4.4839 1.7384 4.03977 2.2223 3.73153C2.7062 3.41998 3.25473 3.2642 3.8679 3.2642C4.34186 3.2642 4.72467 3.34375 5.01634 3.50284C5.308 3.65862 5.53504 3.84091 5.69744 4.04972C5.86316 4.25852 5.99077 4.44247 6.08026 4.60156H6.18963V3.36364H7.64631V11.169C7.64631 11.8253 7.49385 12.3639 7.18892 12.7848C6.884 13.2057 6.47135 13.5173 5.95099 13.7195C5.43395 13.9216 4.85062 14.0227 4.20099 14.0227ZM4.18608 9.6527C4.61364 9.6527 4.97491 9.55327 5.26989 9.3544C5.56818 9.15223 5.79356 8.86387 5.94602 8.48935C6.1018 8.11151 6.17969 7.65909 6.17969 7.1321C6.17969 6.61837 6.10346 6.16596 5.95099 5.77486C5.79853 5.38376 5.57481 5.07884 5.27983 4.86009C4.98485 4.63802 4.62027 4.52699 4.18608 4.52699C3.73864 4.52699 3.36577 4.64299 3.06747 4.875C2.76918 5.10369 2.5438 5.41525 2.39134 5.80966C2.24219 6.20407 2.16761 6.64489 2.16761 7.1321C2.16761 7.63258 2.24384 8.07173 2.39631 8.44957C2.54877 8.82741 2.77415 9.1224 3.07244 9.33452C3.37405 9.54664 3.74527 9.6527 4.18608 9.6527ZM9.63991 11V3.36364H11.0767V4.5767H11.1562C11.2955 4.16572 11.5407 3.84257 11.892 3.60724C12.2467 3.36861 12.6477 3.24929 13.0952 3.24929C13.188 3.24929 13.2973 3.2526 13.4233 3.25923C13.5526 3.26586 13.6536 3.27415 13.7266 3.28409V4.70597C13.6669 4.68939 13.5608 4.67116 13.4084 4.65128C13.2559 4.62808 13.1035 4.61648 12.951 4.61648C12.5997 4.61648 12.2865 4.69105 12.0114 4.8402C11.7396 4.98603 11.5241 5.18987 11.3651 5.4517C11.206 5.71023 11.1264 6.00521 11.1264 6.33665V11H9.63991ZM15.013 11V3.36364H16.4995V11H15.013ZM15.7637 2.18537C15.5051 2.18537 15.2831 2.09919 15.0975 1.92685C14.9152 1.75118 14.824 1.54238 14.824 1.30043C14.824 1.05516 14.9152 0.846354 15.0975 0.674005C15.2831 0.498342 15.5051 0.410511 15.7637 0.410511C16.0222 0.410511 16.2426 0.498342 16.4249 0.674005C16.6105 0.846354 16.7033 1.05516 16.7033 1.30043C16.7033 1.54238 16.6105 1.75118 16.4249 1.92685C16.2426 2.09919 16.0222 2.18537 15.7637 2.18537ZM21.358 11.1491C20.7415 11.1491 20.1913 10.9917 19.7074 10.6768C19.2268 10.3587 18.849 9.90625 18.5739 9.3196C18.3021 8.72964 18.1662 8.02202 18.1662 7.19673C18.1662 6.37145 18.3037 5.66548 18.5788 5.07884C18.8572 4.49219 19.2384 4.04309 19.7223 3.73153C20.2062 3.41998 20.7547 3.2642 21.3679 3.2642C21.8419 3.2642 22.223 3.34375 22.5114 3.50284C22.803 3.65862 23.0284 3.84091 23.1875 4.04972C23.3499 4.25852 23.4759 4.44247 23.5653 4.60156H23.6548V0.818182H25.1413V11H23.6896V9.81179H23.5653C23.4759 9.9742 23.3466 10.1598 23.1776 10.3686C23.0118 10.5774 22.7831 10.7597 22.4915 10.9155C22.1998 11.0713 21.822 11.1491 21.358 11.1491ZM21.6861 9.88139C22.1136 9.88139 22.4749 9.7687 22.7699 9.54332C23.0682 9.31463 23.2936 8.99811 23.446 8.59375C23.6018 8.18939 23.6797 7.71875 23.6797 7.18182C23.6797 6.65151 23.6035 6.1875 23.451 5.78977C23.2985 5.39205 23.0748 5.08215 22.7798 4.86009C22.4848 4.63802 22.1203 4.52699 21.6861 4.52699C21.2386 4.52699 20.8658 4.64299 20.5675 4.875C20.2692 5.10701 20.0438 5.42353 19.8913 5.82457C19.7422 6.22562 19.6676 6.67803 19.6676 7.18182C19.6676 7.69223 19.7438 8.15128 19.8963 8.55895C20.0488 8.96662 20.2741 9.28977 20.5724 9.52841C20.8741 9.76373 21.2453 9.88139 21.6861 9.88139ZM31.7623 6.05327V7.34091H27.248V6.05327H31.7623ZM37.2683 11.169C36.4828 11.1657 35.8116 10.9586 35.2548 10.5476C34.698 10.1366 34.2721 9.53835 33.9771 8.75284C33.6821 7.96733 33.5346 7.02107 33.5346 5.91406C33.5346 4.81037 33.6821 3.86742 33.9771 3.08523C34.2754 2.30303 34.7029 1.70644 35.2598 1.29545C35.8199 0.884469 36.4894 0.678977 37.2683 0.678977C38.0472 0.678977 38.715 0.886126 39.2718 1.30043C39.8287 1.71141 40.2546 2.308 40.5495 3.0902C40.8478 3.86908 40.997 4.81037 40.997 5.91406C40.997 7.02438 40.8495 7.9723 40.5545 8.75781C40.2595 9.54001 39.8336 10.1383 39.2768 10.5526C38.72 10.9635 38.0505 11.169 37.2683 11.169ZM37.2683 9.84162C37.9577 9.84162 38.4963 9.50521 38.8841 8.83239C39.2752 8.15956 39.4707 7.18679 39.4707 5.91406C39.4707 5.06889 39.3812 4.35464 39.2022 3.77131C39.0266 3.18466 38.773 2.74053 38.4416 2.43892C38.1135 2.134 37.7224 1.98153 37.2683 1.98153C36.5822 1.98153 36.0436 2.3196 35.6525 2.99574C35.2614 3.67187 35.0642 4.64465 35.0609 5.91406C35.0609 6.76255 35.1487 7.48011 35.3244 8.06676C35.5034 8.65009 35.7569 9.09257 36.085 9.39418C36.4132 9.69247 36.8076 9.84162 37.2683 9.84162ZM46.3054 11.1392C45.6226 11.1392 45.0128 11.0215 44.4759 10.7862C43.9422 10.5509 43.5196 10.2244 43.2081 9.80682C42.8999 9.38589 42.7341 8.89867 42.7109 8.34517H44.272C44.2919 8.64678 44.393 8.90862 44.5753 9.13068C44.7609 9.34943 45.0028 9.51847 45.3011 9.63778C45.5994 9.7571 45.9309 9.81676 46.2955 9.81676C46.6965 9.81676 47.0511 9.74716 47.3594 9.60795C47.6709 9.46875 47.9145 9.27486 48.0902 9.02628C48.2659 8.77438 48.3537 8.48438 48.3537 8.15625C48.3537 7.81487 48.2659 7.51491 48.0902 7.25639C47.9179 6.99455 47.6643 6.78906 47.3295 6.63991C46.9981 6.49077 46.5971 6.41619 46.1264 6.41619H45.2663V5.16335H46.1264C46.5043 5.16335 46.8357 5.09541 47.1207 4.95952C47.4091 4.82363 47.6345 4.63471 47.7969 4.39276C47.9593 4.14749 48.0405 3.8608 48.0405 3.53267C48.0405 3.2178 47.9692 2.94437 47.8267 2.71236C47.6875 2.47704 47.4886 2.29309 47.2301 2.16051C46.9749 2.02794 46.6733 1.96165 46.3253 1.96165C45.9938 1.96165 45.6839 2.02296 45.3956 2.1456C45.1106 2.26491 44.8786 2.43726 44.6996 2.66264C44.5206 2.88471 44.4245 3.15151 44.4112 3.46307H42.9247C42.9413 2.91288 43.1037 2.42898 43.4119 2.01136C43.7235 1.59375 44.1345 1.26728 44.6449 1.03196C45.1553 0.796638 45.7221 0.678977 46.3452 0.678977C46.9981 0.678977 47.5616 0.806581 48.0355 1.06179C48.5128 1.31368 48.8807 1.65009 49.1392 2.07102C49.401 2.49195 49.5303 2.95265 49.527 3.45312C49.5303 4.0232 49.3712 4.5071 49.0497 4.90483C48.7315 5.30256 48.3073 5.56937 47.777 5.70526V5.7848C48.4531 5.88755 48.9768 6.15601 49.348 6.5902C49.7225 7.02438 49.9081 7.56297 49.9048 8.20597C49.9081 8.7661 49.7524 9.26823 49.4375 9.71236C49.1259 10.1565 48.7 10.5062 48.1598 10.7614C47.6196 11.0133 47.0014 11.1392 46.3054 11.1392Z" fill="black"/>
</svg>
