<svg viewBox="0 0 55 12" fill="none" stroke-width="2" stroke="currentColor" aria-hidden="true">
  <path d="M-0.000710189 11V3.36364H1.43608V4.5767H1.51562C1.65483 4.16572 1.90009 3.84257 2.25142 3.60724C2.60606 3.36861 3.0071 3.24929 3.45455 3.24929C3.54735 3.24929 3.65672 3.2526 3.78267 3.25923C3.91193 3.26586 4.01302 3.27415 4.08594 3.28409V4.70597C4.02628 4.68939 3.92022 4.67116 3.76776 4.65128C3.61529 4.62808 3.46283 4.61648 3.31037 4.61648C2.95904 4.61648 2.64583 4.69105 2.37074 4.8402C2.09896 4.98603 1.88352 5.18987 1.72443 5.4517C1.56534 5.71023 1.4858 6.00521 1.4858 6.33665V11H-0.000710189ZM8.31552 11.1541C7.59961 11.1541 6.97485 10.9901 6.44123 10.6619C5.90761 10.3338 5.49331 9.87476 5.19833 9.2848C4.90335 8.69484 4.75586 8.00544 4.75586 7.21662C4.75586 6.42448 4.90335 5.73177 5.19833 5.13849C5.49331 4.54522 5.90761 4.08452 6.44123 3.75639C6.97485 3.42827 7.59961 3.2642 8.31552 3.2642C9.03143 3.2642 9.65619 3.42827 10.1898 3.75639C10.7234 4.08452 11.1377 4.54522 11.4327 5.13849C11.7277 5.73177 11.8752 6.42448 11.8752 7.21662C11.8752 8.00544 11.7277 8.69484 11.4327 9.2848C11.1377 9.87476 10.7234 10.3338 10.1898 10.6619C9.65619 10.9901 9.03143 11.1541 8.31552 11.1541ZM8.32049 9.90625C8.78451 9.90625 9.16898 9.78362 9.4739 9.53835C9.77882 9.29309 10.0042 8.96662 10.15 8.55895C10.2992 8.15128 10.3738 7.70218 10.3738 7.21165C10.3738 6.72443 10.2992 6.27699 10.15 5.86932C10.0042 5.45833 9.77882 5.12855 9.4739 4.87997C9.16898 4.63139 8.78451 4.5071 8.32049 4.5071C7.85316 4.5071 7.46538 4.63139 7.15714 4.87997C6.85221 5.12855 6.62518 5.45833 6.47603 5.86932C6.3302 6.27699 6.25728 6.72443 6.25728 7.21165C6.25728 7.70218 6.3302 8.15128 6.47603 8.55895C6.62518 8.96662 6.85221 9.29309 7.15714 9.53835C7.46538 9.78362 7.85316 9.90625 8.32049 9.90625ZM14.9576 11L12.7104 3.36364H14.2466L15.7431 8.97159H15.8176L17.3191 3.36364H18.8553L20.3468 8.94673H20.4213L21.9078 3.36364H23.4441L21.2019 11H19.6855L18.1344 5.48651H18.0201L16.4689 11H14.9576ZM30.5771 5.22798L29.2298 5.46662C29.1734 5.29427 29.0839 5.13021 28.9613 4.97443C28.842 4.81865 28.6796 4.69105 28.4741 4.59162C28.2686 4.49219 28.0117 4.44247 27.7035 4.44247C27.2826 4.44247 26.9312 4.53693 26.6495 4.72585C26.3678 4.91146 26.2269 5.15175 26.2269 5.44673C26.2269 5.70194 26.3214 5.90743 26.5103 6.06321C26.6992 6.21899 27.0041 6.34659 27.4251 6.44602L28.6381 6.72443C29.3408 6.88684 29.8645 7.13707 30.2092 7.47514C30.5539 7.81321 30.7262 8.25237 30.7262 8.79261C30.7262 9.25 30.5936 9.65767 30.3285 10.0156C30.0666 10.3703 29.7004 10.6487 29.2298 10.8509C28.7624 11.053 28.2205 11.1541 27.604 11.1541C26.7489 11.1541 26.0513 10.9718 25.511 10.6072C24.9708 10.2393 24.6393 9.71733 24.5167 9.04119L25.9535 8.82244C26.043 9.19697 26.2269 9.48035 26.5053 9.67259C26.7837 9.86151 27.1467 9.95597 27.5941 9.95597C28.0813 9.95597 28.4708 9.85488 28.7624 9.6527C29.0541 9.44721 29.1999 9.19697 29.1999 8.90199C29.1999 8.66335 29.1104 8.46283 28.9315 8.30043C28.7558 8.13802 28.4857 8.01539 28.1211 7.93253L26.8285 7.64915C26.1159 7.48674 25.5889 7.22822 25.2475 6.87358C24.9094 6.51894 24.7404 6.06984 24.7404 5.52628C24.7404 5.07552 24.8664 4.68111 25.1183 4.34304C25.3701 4.00497 25.7182 3.74148 26.1623 3.55256C26.6064 3.36032 27.1152 3.2642 27.6886 3.2642C28.5138 3.2642 29.1635 3.44318 29.6374 3.80114C30.1114 4.15578 30.4246 4.63139 30.5771 5.22798ZM36.8599 6.05327V7.34091H32.3457V6.05327H36.8599ZM42.3659 11.169C41.5804 11.1657 40.9093 10.9586 40.3525 10.5476C39.7956 10.1366 39.3697 9.53835 39.0748 8.75284C38.7798 7.96733 38.6323 7.02107 38.6323 5.91406C38.6323 4.81037 38.7798 3.86742 39.0748 3.08523C39.373 2.30303 39.8006 1.70644 40.3574 1.29545C40.9176 0.884469 41.5871 0.678977 42.3659 0.678977C43.1448 0.678977 43.8127 0.886126 44.3695 1.30043C44.9263 1.71141 45.3522 2.308 45.6472 3.0902C45.9455 3.86908 46.0946 4.81037 46.0946 5.91406C46.0946 7.02438 45.9471 7.9723 45.6522 8.75781C45.3572 9.54001 44.9313 10.1383 44.3745 10.5526C43.8176 10.9635 43.1481 11.169 42.3659 11.169ZM42.3659 9.84162C43.0553 9.84162 43.5939 9.50521 43.9817 8.83239C44.3728 8.15956 44.5684 7.18679 44.5684 5.91406C44.5684 5.06889 44.4789 4.35464 44.2999 3.77131C44.1242 3.18466 43.8707 2.74053 43.5392 2.43892C43.2111 2.134 42.82 1.98153 42.3659 1.98153C41.6799 1.98153 41.1413 2.3196 40.7502 2.99574C40.3591 3.67187 40.1619 4.64465 40.1586 5.91406C40.1586 6.76255 40.2464 7.48011 40.4221 8.06676C40.601 8.65009 40.8546 9.09257 41.1827 9.39418C41.5108 9.69247 41.9052 9.84162 42.3659 9.84162ZM47.8583 11V9.88636L51.3036 6.31676C51.6715 5.92898 51.9748 5.58925 52.2134 5.29759C52.4554 5.0026 52.636 4.72254 52.7553 4.45739C52.8746 4.19223 52.9343 3.91051 52.9343 3.61222C52.9343 3.27415 52.8548 2.98248 52.6957 2.73722C52.5366 2.48864 52.3195 2.29806 52.0444 2.16548C51.7693 2.02959 51.4594 1.96165 51.1147 1.96165C50.7501 1.96165 50.4319 2.03622 50.1602 2.18537C49.8884 2.33452 49.6796 2.54498 49.5337 2.81676C49.3879 3.08854 49.315 3.40672 49.315 3.77131H47.8484C47.8484 3.15151 47.9909 2.60961 48.2759 2.1456C48.561 1.68158 48.9521 1.32197 49.4492 1.06676C49.9464 0.808238 50.5115 0.678977 51.1445 0.678977C51.7842 0.678977 52.3477 0.806581 52.8349 1.06179C53.3254 1.31368 53.7082 1.65838 53.9833 2.09588C54.2584 2.53007 54.396 3.0206 54.396 3.56747C54.396 3.94531 54.3247 4.31487 54.1822 4.67614C54.043 5.0374 53.7994 5.4401 53.4513 5.88423C53.1033 6.32505 52.6194 6.86032 51.9996 7.49006L49.9762 9.60795V9.68253H54.56V11H47.8583Z" fill="black"/>
</svg>
