<svg viewBox="0 0 91 15" fill="none" stroke-width="2" stroke="currentColor" aria-hidden="true">
  <path d="M4.63352 3.36364V4.55682H0.318182V3.36364H4.63352ZM1.50142 11V2.47869C1.50142 2.00142 1.60582 1.60535 1.81463 1.29048C2.02344 0.972301 2.30019 0.735322 2.64489 0.579545C2.98958 0.420454 3.36411 0.340908 3.76847 0.340908C4.06676 0.340908 4.32197 0.365767 4.53409 0.415483C4.74621 0.461884 4.90365 0.504971 5.00639 0.544744L4.65838 1.74787C4.58878 1.72798 4.49929 1.70478 4.38991 1.67827C4.28054 1.64844 4.14796 1.63352 3.99219 1.63352C3.63092 1.63352 3.3724 1.72301 3.21662 1.90199C3.06416 2.08097 2.98793 2.33949 2.98793 2.67756V11H1.50142ZM7.65376 0.818182V11H6.16726V0.818182H7.65376ZM12.9448 11.1541C12.1924 11.1541 11.5444 10.9934 11.0009 10.6719C10.4606 10.3471 10.043 9.89134 9.74805 9.30469C9.45638 8.71473 9.31055 8.02367 9.31055 7.23153C9.31055 6.44934 9.45638 5.75994 9.74805 5.16335C10.043 4.56676 10.454 4.10109 10.981 3.76633C11.5113 3.43158 12.1311 3.2642 12.8404 3.2642C13.2712 3.2642 13.6889 3.33546 14.0932 3.47798C14.4976 3.6205 14.8605 3.84422 15.182 4.14915C15.5035 4.45407 15.757 4.85014 15.9426 5.33736C16.1283 5.82126 16.2211 6.40956 16.2211 7.10227V7.62926H10.1507V6.51562H14.7644C14.7644 6.12453 14.6848 5.77817 14.5257 5.47656C14.3667 5.17164 14.1429 4.93134 13.8546 4.75568C13.5695 4.58002 13.2348 4.49219 12.8503 4.49219C12.4327 4.49219 12.0681 4.59493 11.7566 4.80043C11.4483 5.0026 11.2097 5.26776 11.0407 5.59588C10.8749 5.92069 10.7921 6.27367 10.7921 6.65483V7.52486C10.7921 8.03527 10.8816 8.46946 11.0605 8.82741C11.2428 9.18537 11.4964 9.45881 11.8212 9.64773C12.146 9.83333 12.5255 9.92614 12.9597 9.92614C13.2414 9.92614 13.4983 9.88636 13.7303 9.80682C13.9623 9.72396 14.1628 9.60133 14.3319 9.43892C14.5009 9.27652 14.6301 9.07599 14.7196 8.83736L16.1266 9.09091C16.0139 9.50521 15.8117 9.86813 15.5201 10.1797C15.2317 10.4879 14.8688 10.7282 14.4313 10.9006C13.9971 11.0696 13.5016 11.1541 12.9448 11.1541ZM18.8659 3.36364L20.5513 6.33665L22.2516 3.36364H23.8773L21.4959 7.18182L23.8972 11H22.2715L20.5513 8.14631L18.8361 11H17.2054L19.5819 7.18182L17.2353 3.36364H18.8659ZM29.5884 6.05327V7.34091H25.0742V6.05327H29.5884ZM33.7919 11.169C33.308 11.169 32.8705 11.0795 32.4794 10.9006C32.0883 10.7183 31.7784 10.4548 31.5497 10.1101C31.3243 9.76539 31.2116 9.3428 31.2116 8.84233C31.2116 8.41146 31.2945 8.05682 31.4602 7.77841C31.6259 7.5 31.8497 7.27959 32.1314 7.11719C32.4131 6.95478 32.728 6.83215 33.076 6.74929C33.424 6.66643 33.7786 6.60346 34.1399 6.56037C34.5973 6.50734 34.9685 6.46425 35.2536 6.43111C35.5386 6.39465 35.7457 6.33665 35.875 6.2571C36.0043 6.17756 36.0689 6.0483 36.0689 5.86932V5.83452C36.0689 5.40033 35.9463 5.06392 35.701 4.82528C35.459 4.58665 35.0978 4.46733 34.6172 4.46733C34.1167 4.46733 33.7223 4.57836 33.4339 4.80043C33.1489 5.01918 32.9517 5.26278 32.8423 5.53125L31.4453 5.21307C31.611 4.74905 31.853 4.37453 32.1712 4.08949C32.4927 3.80114 32.8622 3.59233 33.2798 3.46307C33.6974 3.33049 34.1366 3.2642 34.5973 3.2642C34.9022 3.2642 35.2254 3.30066 35.5668 3.37358C35.9115 3.44318 36.233 3.57244 36.5312 3.76136C36.8329 3.95028 37.0798 4.22041 37.272 4.57173C37.4643 4.91974 37.5604 5.37216 37.5604 5.92898V11H36.1087V9.95597H36.049C35.9529 10.1482 35.8087 10.3371 35.6165 10.5227C35.4242 10.7083 35.1773 10.8625 34.8757 10.9851C34.5741 11.1077 34.2128 11.169 33.7919 11.169ZM34.1151 9.97585C34.526 9.97585 34.8774 9.89465 35.169 9.73224C35.464 9.56984 35.6877 9.35772 35.8402 9.09588C35.996 8.83073 36.0739 8.54735 36.0739 8.24574V7.26136C36.0208 7.31439 35.9181 7.36411 35.7656 7.41051C35.6165 7.4536 35.4458 7.49171 35.2536 7.52486C35.0613 7.55469 34.8741 7.58286 34.6918 7.60938C34.5095 7.63258 34.357 7.65246 34.2344 7.66903C33.946 7.70549 33.6825 7.76681 33.4439 7.85298C33.2086 7.93916 33.0196 8.06345 32.8771 8.22585C32.7379 8.38494 32.6683 8.59706 32.6683 8.86222C32.6683 9.23011 32.8042 9.50852 33.076 9.69744C33.3478 9.88305 33.6941 9.97585 34.1151 9.97585ZM41.0268 0.818182V11H39.5403V0.818182H41.0268ZM43.0266 11V3.36364H44.5131V11H43.0266ZM43.7773 2.18537C43.5188 2.18537 43.2968 2.09919 43.1112 1.92685C42.9289 1.75118 42.8377 1.54238 42.8377 1.30043C42.8377 1.05516 42.9289 0.846354 43.1112 0.674005C43.2968 0.498342 43.5188 0.410511 43.7773 0.410511C44.0359 0.410511 44.2563 0.498342 44.4386 0.674005C44.6242 0.846354 44.717 1.05516 44.717 1.30043C44.717 1.54238 44.6242 1.75118 44.4386 1.92685C44.2563 2.09919 44.0359 2.18537 43.7773 2.18537ZM49.7147 14.0227C49.1081 14.0227 48.5861 13.9432 48.1486 13.7841C47.7144 13.625 47.3598 13.4145 47.0847 13.1527C46.8096 12.8909 46.6041 12.6042 46.4682 12.2926L47.7459 11.7656C47.8354 11.9115 47.9547 12.0656 48.1039 12.228C48.2563 12.3937 48.4618 12.5346 48.7203 12.6506C48.9822 12.7666 49.3186 12.8246 49.7296 12.8246C50.293 12.8246 50.7587 12.687 51.1266 12.4119C51.4945 12.1402 51.6784 11.706 51.6784 11.1094V9.60795H51.584C51.4945 9.77036 51.3652 9.95099 51.1962 10.1499C51.0305 10.3487 50.8018 10.5211 50.5101 10.6669C50.2185 10.8127 49.839 10.8857 49.3716 10.8857C48.7684 10.8857 48.2248 10.7448 47.7409 10.4631C47.2604 10.178 46.8792 9.75876 46.5975 9.20526C46.3191 8.64844 46.1799 7.96401 46.1799 7.15199C46.1799 6.33996 46.3174 5.64394 46.5925 5.06392C46.8709 4.4839 47.2521 4.03977 47.736 3.73153C48.2199 3.41998 48.7684 3.2642 49.3816 3.2642C49.8555 3.2642 50.2383 3.34375 50.53 3.50284C50.8217 3.65862 51.0487 3.84091 51.2111 4.04972C51.3768 4.25852 51.5044 4.44247 51.5939 4.60156H51.7033V3.36364H53.16V11.169C53.16 11.8253 53.0075 12.3639 52.7026 12.7848C52.3977 13.2057 51.985 13.5173 51.4647 13.7195C50.9476 13.9216 50.3643 14.0227 49.7147 14.0227ZM49.6998 9.6527C50.1273 9.6527 50.4886 9.55327 50.7836 9.3544C51.0819 9.15223 51.3072 8.86387 51.4597 8.48935C51.6155 8.11151 51.6934 7.65909 51.6934 7.1321C51.6934 6.61837 51.6171 6.16596 51.4647 5.77486C51.3122 5.38376 51.0885 5.07884 50.7935 4.86009C50.4985 4.63802 50.1339 4.52699 49.6998 4.52699C49.2523 4.52699 48.8794 4.64299 48.5811 4.875C48.2828 5.10369 48.0575 5.41525 47.905 5.80966C47.7559 6.20407 47.6813 6.64489 47.6813 7.1321C47.6813 7.63258 47.7575 8.07173 47.91 8.44957C48.0624 8.82741 48.2878 9.1224 48.5861 9.33452C48.8877 9.54664 49.2589 9.6527 49.6998 9.6527ZM56.6401 6.46591V11H55.1536V3.36364H56.5804V4.60653H56.6749C56.8506 4.20218 57.1257 3.87737 57.5002 3.6321C57.878 3.38684 58.3536 3.2642 58.927 3.2642C59.4474 3.2642 59.9031 3.37358 60.2942 3.59233C60.6853 3.80777 60.9886 4.12926 61.204 4.55682C61.4194 4.98437 61.5272 5.51302 61.5272 6.14276V11H60.0407V6.32173C60.0407 5.76823 59.8965 5.3357 59.6081 5.02415C59.3198 4.70928 58.9237 4.55185 58.4199 4.55185C58.0752 4.55185 57.7686 4.62642 57.5002 4.77557C57.235 4.92472 57.0246 5.14347 56.8688 5.43182C56.7163 5.71686 56.6401 6.06155 56.6401 6.46591ZM68.0201 6.05327V7.34091H63.5059V6.05327H68.0201ZM71.4877 0.818182V11H70.0012V0.818182H71.4877ZM76.7788 11.1541C76.0264 11.1541 75.3784 10.9934 74.8349 10.6719C74.2946 10.3471 73.877 9.89134 73.582 9.30469C73.2904 8.71473 73.1445 8.02367 73.1445 7.23153C73.1445 6.44934 73.2904 5.75994 73.582 5.16335C73.877 4.56676 74.288 4.10109 74.815 3.76633C75.3453 3.43158 75.9651 3.2642 76.6744 3.2642C77.1052 3.2642 77.5228 3.33546 77.9272 3.47798C78.3316 3.6205 78.6945 3.84422 79.016 4.14915C79.3375 4.45407 79.591 4.85014 79.7766 5.33736C79.9622 5.82126 80.055 6.40956 80.055 7.10227V7.62926H73.9847V6.51562H78.5984C78.5984 6.12453 78.5188 5.77817 78.3597 5.47656C78.2006 5.17164 77.9769 4.93134 77.6886 4.75568C77.4035 4.58002 77.0688 4.49219 76.6843 4.49219C76.2667 4.49219 75.9021 4.59493 75.5906 4.80043C75.2823 5.0026 75.0437 5.26776 74.8746 5.59588C74.7089 5.92069 74.6261 6.27367 74.6261 6.65483V7.52486C74.6261 8.03527 74.7156 8.46946 74.8945 8.82741C75.0768 9.18537 75.3304 9.45881 75.6552 9.64773C75.98 9.83333 76.3595 9.92614 76.7937 9.92614C77.0754 9.92614 77.3323 9.88636 77.5643 9.80682C77.7963 9.72396 77.9968 9.60133 78.1658 9.43892C78.3349 9.27652 78.4641 9.07599 78.5536 8.83736L79.9606 9.09091C79.8479 9.50521 79.6457 9.86813 79.354 10.1797C79.0657 10.4879 78.7028 10.7282 78.2653 10.9006C77.8311 11.0696 77.3356 11.1541 76.7788 11.1541ZM85.3386 3.36364V4.55682H81.0233V3.36364H85.3386ZM82.2065 11V2.47869C82.2065 2.00142 82.3109 1.60535 82.5197 1.29048C82.7285 0.972301 83.0053 0.735322 83.35 0.579545C83.6947 0.420454 84.0692 0.340908 84.4735 0.340908C84.7718 0.340908 85.027 0.365767 85.2392 0.415483C85.4513 0.461884 85.6087 0.504971 85.7115 0.544744L85.3635 1.74787C85.2939 1.72798 85.2044 1.70478 85.095 1.67827C84.9856 1.64844 84.853 1.63352 84.6973 1.63352C84.336 1.63352 84.0775 1.72301 83.9217 1.90199C83.7692 2.08097 83.693 2.33949 83.693 2.67756V11H82.2065ZM90.437 3.36364V4.55682H86.2658V3.36364H90.437ZM87.3844 1.53409H88.8709V8.75781C88.8709 9.04616 88.914 9.26326 89.0002 9.40909C89.0864 9.55161 89.1974 9.64938 89.3333 9.70241C89.4725 9.75213 89.6233 9.77699 89.7857 9.77699C89.905 9.77699 90.0094 9.7687 90.0989 9.75213C90.1884 9.73556 90.258 9.7223 90.3077 9.71236L90.5762 10.9403C90.49 10.9735 90.3674 11.0066 90.2083 11.0398C90.0492 11.0762 89.8503 11.0961 89.6117 11.0994C89.2206 11.1061 88.856 11.0365 88.5179 10.8906C88.1799 10.7448 87.9064 10.5194 87.6976 10.2145C87.4888 9.90956 87.3844 9.52675 87.3844 9.06605V1.53409Z" fill="black"/>
</svg>
