<svg viewBox="0 0 179 15" fill="none" stroke-width="2" stroke="currentColor" aria-hidden="true">
  <path d="M3.85795 11.1491C3.24148 11.1491 2.69129 10.9917 2.20739 10.6768C1.7268 10.3587 1.34896 9.90625 1.07386 9.3196C0.802083 8.72964 0.666193 8.02202 0.666193 7.19673C0.666193 6.37145 0.803741 5.66548 1.07884 5.07884C1.35724 4.49219 1.7384 4.04309 2.2223 3.73153C2.7062 3.41998 3.25473 3.2642 3.8679 3.2642C4.34186 3.2642 4.72301 3.34375 5.01136 3.50284C5.30303 3.65862 5.52841 3.84091 5.6875 4.04972C5.84991 4.25852 5.97585 4.44247 6.06534 4.60156H6.15483V0.818182H7.64134V11H6.18963V9.81179H6.06534C5.97585 9.9742 5.84659 10.1598 5.67756 10.3686C5.51184 10.5774 5.28314 10.7597 4.99148 10.9155C4.69981 11.0713 4.32197 11.1491 3.85795 11.1491ZM4.18608 9.88139C4.61364 9.88139 4.97491 9.7687 5.26989 9.54332C5.56818 9.31463 5.79356 8.99811 5.94602 8.59375C6.1018 8.18939 6.17969 7.71875 6.17969 7.18182C6.17969 6.65151 6.10346 6.1875 5.95099 5.78977C5.79853 5.39205 5.57481 5.08215 5.27983 4.86009C4.98485 4.63802 4.62027 4.52699 4.18608 4.52699C3.73864 4.52699 3.36577 4.64299 3.06747 4.875C2.76918 5.10701 2.5438 5.42353 2.39134 5.82457C2.24219 6.22562 2.16761 6.67803 2.16761 7.18182C2.16761 7.69223 2.24384 8.15128 2.39631 8.55895C2.54877 8.96662 2.77415 9.28977 3.07244 9.52841C3.37405 9.76373 3.74527 9.88139 4.18608 9.88139ZM9.76296 11V3.36364H11.2495V11H9.76296ZM10.5137 2.18537C10.2551 2.18537 10.0331 2.09919 9.84748 1.92685C9.66519 1.75118 9.57404 1.54238 9.57404 1.30043C9.57404 1.05516 9.66519 0.846354 9.84748 0.674005C10.0331 0.498342 10.2551 0.410511 10.5137 0.410511C10.7722 0.410511 10.9926 0.498342 11.1749 0.674005C11.3605 0.846354 11.4533 1.05516 11.4533 1.30043C11.4533 1.54238 11.3605 1.75118 11.1749 1.92685C10.9926 2.09919 10.7722 2.18537 10.5137 2.18537ZM18.9716 5.22798L17.6243 5.46662C17.5679 5.29427 17.4785 5.13021 17.3558 4.97443C17.2365 4.81865 17.0741 4.69105 16.8686 4.59162C16.6631 4.49219 16.4063 4.44247 16.098 4.44247C15.6771 4.44247 15.3258 4.53693 15.044 4.72585C14.7623 4.91146 14.6214 5.15175 14.6214 5.44673C14.6214 5.70194 14.7159 5.90743 14.9048 6.06321C15.0938 6.21899 15.3987 6.34659 15.8196 6.44602L17.0327 6.72443C17.7353 6.88684 18.259 7.13707 18.6037 7.47514C18.9484 7.81321 19.1207 8.25237 19.1207 8.79261C19.1207 9.25 18.9882 9.65767 18.723 10.0156C18.4612 10.3703 18.0949 10.6487 17.6243 10.8509C17.157 11.053 16.6151 11.1541 15.9986 11.1541C15.1435 11.1541 14.4458 10.9718 13.9055 10.6072C13.3653 10.2393 13.0339 9.71733 12.9112 9.04119L14.348 8.82244C14.4375 9.19697 14.6214 9.48035 14.8999 9.67259C15.1783 9.86151 15.5412 9.95597 15.9886 9.95597C16.4759 9.95597 16.8653 9.85488 17.157 9.6527C17.4486 9.44721 17.5945 9.19697 17.5945 8.90199C17.5945 8.66335 17.505 8.46283 17.326 8.30043C17.1503 8.13802 16.8802 8.01539 16.5156 7.93253L15.223 7.64915C14.5104 7.48674 13.9834 7.22822 13.642 6.87358C13.304 6.51894 13.1349 6.06984 13.1349 5.52628C13.1349 5.07552 13.2609 4.68111 13.5128 4.34304C13.7647 4.00497 14.1127 3.74148 14.5568 3.55256C15.0009 3.36032 15.5097 3.2642 16.0831 3.2642C16.9084 3.2642 17.558 3.44318 18.032 3.80114C18.5059 4.15578 18.8191 4.63139 18.9716 5.22798ZM24.3198 3.36364V4.55682H20.1486V3.36364H24.3198ZM21.2672 1.53409H22.7537V8.75781C22.7537 9.04616 22.7968 9.26326 22.883 9.40909C22.9692 9.55161 23.0802 9.64938 23.2161 9.70241C23.3553 9.75213 23.5061 9.77699 23.6685 9.77699C23.7878 9.77699 23.8922 9.7687 23.9817 9.75213C24.0712 9.73556 24.1408 9.7223 24.1905 9.71236L24.459 10.9403C24.3728 10.9735 24.2502 11.0066 24.0911 11.0398C23.932 11.0762 23.7331 11.0961 23.4945 11.0994C23.1034 11.1061 22.7388 11.0365 22.4007 10.8906C22.0627 10.7448 21.7892 10.5194 21.5804 10.2145C21.3716 9.90956 21.2672 9.52675 21.2672 9.06605V1.53409ZM25.9641 11V3.36364H27.4009V4.5767H27.4805C27.6197 4.16572 27.8649 3.84257 28.2163 3.60724C28.5709 3.36861 28.9719 3.24929 29.4194 3.24929C29.5122 3.24929 29.6216 3.2526 29.7475 3.25923C29.8768 3.26586 29.9779 3.27415 30.0508 3.28409V4.70597C29.9911 4.68939 29.8851 4.67116 29.7326 4.65128C29.5801 4.62808 29.4277 4.61648 29.2752 4.61648C28.9239 4.61648 28.6107 4.69105 28.3356 4.8402C28.0638 4.98603 27.8484 5.18987 27.6893 5.4517C27.5302 5.71023 27.4506 6.00521 27.4506 6.33665V11H25.9641ZM31.3372 11V3.36364H32.8237V11H31.3372ZM32.0879 2.18537C31.8294 2.18537 31.6073 2.09919 31.4217 1.92685C31.2394 1.75118 31.1483 1.54238 31.1483 1.30043C31.1483 1.05516 31.2394 0.846354 31.4217 0.674005C31.6073 0.498342 31.8294 0.410511 32.0879 0.410511C32.3464 0.410511 32.5668 0.498342 32.7491 0.674005C32.9347 0.846354 33.0275 1.05516 33.0275 1.30043C33.0275 1.54238 32.9347 1.75118 32.7491 1.92685C32.5668 2.09919 32.3464 2.18537 32.0879 2.18537ZM34.9428 11V0.818182H36.4293V4.60156H36.5188C36.605 4.44247 36.7293 4.25852 36.8917 4.04972C37.0541 3.84091 37.2795 3.65862 37.5678 3.50284C37.8562 3.34375 38.2373 3.2642 38.7113 3.2642C39.3278 3.2642 39.878 3.41998 40.3619 3.73153C40.8458 4.04309 41.2253 4.49219 41.5004 5.07884C41.7788 5.66548 41.918 6.37145 41.918 7.19673C41.918 8.02202 41.7804 8.72964 41.5053 9.3196C41.2302 9.90625 40.8524 10.3587 40.3718 10.6768C39.8912 10.9917 39.3427 11.1491 38.7262 11.1491C38.2622 11.1491 37.8827 11.0713 37.5877 10.9155C37.296 10.7597 37.0674 10.5774 36.9016 10.3686C36.7359 10.1598 36.6083 9.9742 36.5188 9.81179H36.3945V11H34.9428ZM36.3995 7.18182C36.3995 7.71875 36.4774 8.18939 36.6332 8.59375C36.7889 8.99811 37.0143 9.31463 37.3093 9.54332C37.6043 9.7687 37.9656 9.88139 38.3931 9.88139C38.8372 9.88139 39.2085 9.76373 39.5067 9.52841C39.805 9.28977 40.0304 8.96662 40.1829 8.55895C40.3387 8.15128 40.4165 7.69223 40.4165 7.18182C40.4165 6.67803 40.3403 6.22562 40.1879 5.82457C40.0387 5.42353 39.8133 5.10701 39.5117 4.875C39.2134 4.64299 38.8406 4.52699 38.3931 4.52699C37.9622 4.52699 37.5977 4.63802 37.2994 4.86009C37.0044 5.08215 36.7807 5.39205 36.6282 5.78977C36.4757 6.1875 36.3995 6.65151 36.3995 7.18182ZM48.4245 7.8331V3.36364H49.916V11H48.4544V9.67756H48.3748C48.1992 10.0852 47.9174 10.425 47.5297 10.6967C47.1452 10.9652 46.6663 11.0994 46.0929 11.0994C45.6023 11.0994 45.1681 10.9917 44.7903 10.7763C44.4158 10.5575 44.1208 10.2344 43.9054 9.80682C43.6932 9.37926 43.5872 8.85062 43.5872 8.22088V3.36364H45.0737V8.0419C45.0737 8.56226 45.2179 8.97656 45.5062 9.2848C45.7946 9.59304 46.1691 9.74716 46.6298 9.74716C46.9082 9.74716 47.185 9.67756 47.46 9.53835C47.7385 9.39915 47.9688 9.18868 48.1511 8.90696C48.3367 8.62524 48.4279 8.26728 48.4245 7.8331ZM55.478 3.36364V4.55682H51.3068V3.36364H55.478ZM52.4254 1.53409H53.9119V8.75781C53.9119 9.04616 53.955 9.26326 54.0412 9.40909C54.1274 9.55161 54.2384 9.64938 54.3743 9.70241C54.5135 9.75213 54.6643 9.77699 54.8267 9.77699C54.946 9.77699 55.0504 9.7687 55.1399 9.75213C55.2294 9.73556 55.299 9.7223 55.3487 9.71236L55.6172 10.9403C55.531 10.9735 55.4084 11.0066 55.2493 11.0398C55.0902 11.0762 54.8913 11.0961 54.6527 11.0994C54.2616 11.1061 53.897 11.0365 53.5589 10.8906C53.2209 10.7448 52.9474 10.5194 52.7386 10.2145C52.5298 9.90956 52.4254 9.52675 52.4254 9.06605V1.53409ZM60.3315 11.1541C59.5791 11.1541 58.9312 10.9934 58.3876 10.6719C57.8474 10.3471 57.4297 9.89134 57.1348 9.30469C56.8431 8.71473 56.6973 8.02367 56.6973 7.23153C56.6973 6.44934 56.8431 5.75994 57.1348 5.16335C57.4297 4.56676 57.8407 4.10109 58.3677 3.76633C58.898 3.43158 59.5178 3.2642 60.2271 3.2642C60.658 3.2642 61.0756 3.33546 61.4799 3.47798C61.8843 3.6205 62.2472 3.84422 62.5687 4.14915C62.8902 4.45407 63.1438 4.85014 63.3294 5.33736C63.515 5.82126 63.6078 6.40956 63.6078 7.10227V7.62926H57.5375V6.51562H62.1511C62.1511 6.12453 62.0716 5.77817 61.9125 5.47656C61.7534 5.17164 61.5297 4.93134 61.2413 4.75568C60.9563 4.58002 60.6215 4.49219 60.237 4.49219C59.8194 4.49219 59.4548 4.59493 59.1433 4.80043C58.835 5.0026 58.5964 5.26776 58.4274 5.59588C58.2617 5.92069 58.1788 6.27367 58.1788 6.65483V7.52486C58.1788 8.03527 58.2683 8.46946 58.4473 8.82741C58.6296 9.18537 58.8831 9.45881 59.2079 9.64773C59.5327 9.83333 59.9122 9.92614 60.3464 9.92614C60.6281 9.92614 60.885 9.88636 61.117 9.80682C61.349 9.72396 61.5495 9.60133 61.7186 9.43892C61.8876 9.27652 62.0169 9.07599 62.1064 8.83736L63.5133 9.09091C63.4006 9.50521 63.1984 9.86813 62.9068 10.1797C62.6184 10.4879 62.2555 10.7282 61.818 10.9006C61.3838 11.0696 60.8883 11.1541 60.3315 11.1541ZM69.7564 6.05327V7.34091H65.2422V6.05327H69.7564ZM77.4599 5.22798L76.1126 5.46662C76.0562 5.29427 75.9667 5.13021 75.8441 4.97443C75.7248 4.81865 75.5624 4.69105 75.3569 4.59162C75.1514 4.49219 74.8945 4.44247 74.5863 4.44247C74.1654 4.44247 73.814 4.53693 73.5323 4.72585C73.2506 4.91146 73.1097 5.15175 73.1097 5.44673C73.1097 5.70194 73.2042 5.90743 73.3931 6.06321C73.582 6.21899 73.887 6.34659 74.3079 6.44602L75.521 6.72443C76.2236 6.88684 76.7473 7.13707 77.092 7.47514C77.4367 7.81321 77.609 8.25237 77.609 8.79261C77.609 9.25 77.4764 9.65767 77.2113 10.0156C76.9495 10.3703 76.5832 10.6487 76.1126 10.8509C75.6452 11.053 75.1033 11.1541 74.4869 11.1541C73.6317 11.1541 72.9341 10.9718 72.3938 10.6072C71.8536 10.2393 71.5221 9.71733 71.3995 9.04119L72.8363 8.82244C72.9258 9.19697 73.1097 9.48035 73.3881 9.67259C73.6665 9.86151 74.0295 9.95597 74.4769 9.95597C74.9641 9.95597 75.3536 9.85488 75.6452 9.6527C75.9369 9.44721 76.0827 9.19697 76.0827 8.90199C76.0827 8.66335 75.9933 8.46283 75.8143 8.30043C75.6386 8.13802 75.3685 8.01539 75.0039 7.93253L73.7113 7.64915C72.9987 7.48674 72.4717 7.22822 72.1303 6.87358C71.7923 6.51894 71.6232 6.06984 71.6232 5.52628C71.6232 5.07552 71.7492 4.68111 72.0011 4.34304C72.253 4.00497 72.601 3.74148 73.0451 3.55256C73.4892 3.36032 73.998 3.2642 74.5714 3.2642C75.3967 3.2642 76.0463 3.44318 76.5202 3.80114C76.9942 4.15578 77.3074 4.63139 77.4599 5.22798ZM79.2434 13.8636V3.36364H80.6951V4.60156H80.8194C80.9056 4.44247 81.0299 4.25852 81.1923 4.04972C81.3547 3.84091 81.5801 3.65862 81.8684 3.50284C82.1568 3.34375 82.5379 3.2642 83.0119 3.2642C83.6284 3.2642 84.1786 3.41998 84.6625 3.73153C85.1464 4.04309 85.5259 4.49219 85.801 5.07884C86.0794 5.66548 86.2186 6.37145 86.2186 7.19673C86.2186 8.02202 86.081 8.72964 85.8059 9.3196C85.5308 9.90625 85.153 10.3587 84.6724 10.6768C84.1918 10.9917 83.6433 11.1491 83.0268 11.1491C82.5628 11.1491 82.1833 11.0713 81.8883 10.9155C81.5967 10.7597 81.368 10.5774 81.2022 10.3686C81.0365 10.1598 80.9089 9.9742 80.8194 9.81179H80.7299V13.8636H79.2434ZM80.7001 7.18182C80.7001 7.71875 80.778 8.18939 80.9338 8.59375C81.0895 8.99811 81.3149 9.31463 81.6099 9.54332C81.9049 9.7687 82.2662 9.88139 82.6937 9.88139C83.1378 9.88139 83.5091 9.76373 83.8074 9.52841C84.1056 9.28977 84.331 8.96662 84.4835 8.55895C84.6393 8.15128 84.7172 7.69223 84.7172 7.18182C84.7172 6.67803 84.6409 6.22562 84.4885 5.82457C84.3393 5.42353 84.1139 5.10701 83.8123 4.875C83.514 4.64299 83.1412 4.52699 82.6937 4.52699C82.2628 4.52699 81.8983 4.63802 81.6 4.86009C81.305 5.08215 81.0813 5.39205 80.9288 5.78977C80.7763 6.1875 80.7001 6.65151 80.7001 7.18182ZM90.1064 11.169C89.6225 11.169 89.185 11.0795 88.7939 10.9006C88.4028 10.7183 88.0929 10.4548 87.8642 10.1101C87.6388 9.76539 87.5261 9.3428 87.5261 8.84233C87.5261 8.41146 87.609 8.05682 87.7747 7.77841C87.9404 7.5 88.1641 7.27959 88.4458 7.11719C88.7276 6.95478 89.0424 6.83215 89.3904 6.74929C89.7385 6.66643 90.0931 6.60346 90.4544 6.56037C90.9118 6.50734 91.283 6.46425 91.568 6.43111C91.853 6.39465 92.0602 6.33665 92.1895 6.2571C92.3187 6.17756 92.3833 6.0483 92.3833 5.86932V5.83452C92.3833 5.40033 92.2607 5.06392 92.0154 4.82528C91.7735 4.58665 91.4122 4.46733 90.9316 4.46733C90.4312 4.46733 90.0368 4.57836 89.7484 4.80043C89.4634 5.01918 89.2662 5.26278 89.1568 5.53125L87.7598 5.21307C87.9255 4.74905 88.1674 4.37453 88.4856 4.08949C88.8071 3.80114 89.1767 3.59233 89.5943 3.46307C90.0119 3.33049 90.4511 3.2642 90.9118 3.2642C91.2167 3.2642 91.5398 3.30066 91.8812 3.37358C92.2259 3.44318 92.5474 3.57244 92.8457 3.76136C93.1473 3.95028 93.3942 4.22041 93.5865 4.57173C93.7787 4.91974 93.8748 5.37216 93.8748 5.92898V11H92.4231V9.95597H92.3635C92.2673 10.1482 92.1232 10.3371 91.9309 10.5227C91.7387 10.7083 91.4918 10.8625 91.1902 10.9851C90.8886 11.1077 90.5273 11.169 90.1064 11.169ZM90.4295 9.97585C90.8405 9.97585 91.1918 9.89465 91.4835 9.73224C91.7785 9.56984 92.0022 9.35772 92.1547 9.09588C92.3104 8.83073 92.3883 8.54735 92.3883 8.24574V7.26136C92.3353 7.31439 92.2325 7.36411 92.0801 7.41051C91.9309 7.4536 91.7602 7.49171 91.568 7.52486C91.3758 7.55469 91.1885 7.58286 91.0062 7.60938C90.8239 7.63258 90.6715 7.65246 90.5488 7.66903C90.2605 7.70549 89.997 7.76681 89.7583 7.85298C89.523 7.93916 89.3341 8.06345 89.1916 8.22585C89.0524 8.38494 88.9828 8.59706 88.9828 8.86222C88.9828 9.23011 89.1187 9.50852 89.3904 9.69744C89.6622 9.88305 90.0086 9.97585 90.4295 9.97585ZM99.0714 11.1541C98.3323 11.1541 97.6959 10.9867 97.1623 10.652C96.632 10.3139 96.2243 9.84825 95.9393 9.25497C95.6542 8.66169 95.5117 7.98224 95.5117 7.21662C95.5117 6.44105 95.6576 5.75663 95.9492 5.16335C96.2409 4.56676 96.6519 4.10109 97.1822 3.76633C97.7125 3.43158 98.3372 3.2642 99.0565 3.2642C99.6365 3.2642 100.154 3.37192 100.608 3.58736C101.062 3.79948 101.428 4.09777 101.706 4.48224C101.988 4.86671 102.155 5.31581 102.208 5.82955H100.762C100.682 5.47159 100.5 5.16335 100.215 4.90483C99.9331 4.64631 99.5553 4.51705 99.0813 4.51705C98.667 4.51705 98.3041 4.62642 97.9925 4.84517C97.6843 5.06061 97.444 5.36884 97.2717 5.76989C97.0993 6.16761 97.0131 6.63826 97.0131 7.18182C97.0131 7.73864 97.0977 8.21922 97.2667 8.62358C97.4357 9.02794 97.6744 9.34115 97.9826 9.56321C98.2942 9.78527 98.6604 9.89631 99.0813 9.89631C99.363 9.89631 99.6183 9.84493 99.8469 9.74219C100.079 9.63613 100.273 9.48532 100.429 9.28977C100.588 9.09422 100.699 8.8589 100.762 8.58381H102.208C102.155 9.07765 101.995 9.51847 101.726 9.90625C101.458 10.294 101.098 10.599 100.647 10.821C100.2 11.0431 99.6746 11.1541 99.0714 11.1541ZM103.798 11V3.36364H105.285V11H103.798ZM104.549 2.18537C104.29 2.18537 104.068 2.09919 103.883 1.92685C103.7 1.75118 103.609 1.54238 103.609 1.30043C103.609 1.05516 103.7 0.846354 103.883 0.674005C104.068 0.498342 104.29 0.410511 104.549 0.410511C104.807 0.410511 105.028 0.498342 105.21 0.674005C105.396 0.846354 105.488 1.05516 105.488 1.30043C105.488 1.54238 105.396 1.75118 105.21 1.92685C105.028 2.09919 104.807 2.18537 104.549 2.18537ZM108.771 6.46591V11H107.284V3.36364H108.711V4.60653H108.806C108.981 4.20218 109.257 3.87737 109.631 3.6321C110.009 3.38684 110.484 3.2642 111.058 3.2642C111.578 3.2642 112.034 3.37358 112.425 3.59233C112.816 3.80777 113.119 4.12926 113.335 4.55682C113.55 4.98437 113.658 5.51302 113.658 6.14276V11H112.172V6.32173C112.172 5.76823 112.027 5.3357 111.739 5.02415C111.451 4.70928 111.055 4.55185 110.551 4.55185C110.206 4.55185 109.9 4.62642 109.631 4.77557C109.366 4.92472 109.155 5.14347 109 5.43182C108.847 5.71686 108.771 6.06155 108.771 6.46591ZM118.853 14.0227C118.247 14.0227 117.725 13.9432 117.287 13.7841C116.853 13.625 116.498 13.4145 116.223 13.1527C115.948 12.8909 115.743 12.6042 115.607 12.2926L116.885 11.7656C116.974 11.9115 117.093 12.0656 117.243 12.228C117.395 12.3937 117.6 12.5346 117.859 12.6506C118.121 12.7666 118.457 12.8246 118.868 12.8246C119.432 12.8246 119.897 12.687 120.265 12.4119C120.633 12.1402 120.817 11.706 120.817 11.1094V9.60795H120.723C120.633 9.77036 120.504 9.95099 120.335 10.1499C120.169 10.3487 119.94 10.5211 119.649 10.6669C119.357 10.8127 118.978 10.8857 118.51 10.8857C117.907 10.8857 117.364 10.7448 116.88 10.4631C116.399 10.178 116.018 9.75876 115.736 9.20526C115.458 8.64844 115.319 7.96401 115.319 7.15199C115.319 6.33996 115.456 5.64394 115.731 5.06392C116.01 4.4839 116.391 4.03977 116.875 3.73153C117.359 3.41998 117.907 3.2642 118.52 3.2642C118.994 3.2642 119.377 3.34375 119.669 3.50284C119.96 3.65862 120.187 3.84091 120.35 4.04972C120.516 4.25852 120.643 4.44247 120.733 4.60156H120.842V3.36364H122.299V11.169C122.299 11.8253 122.146 12.3639 121.841 12.7848C121.536 13.2057 121.124 13.5173 120.603 13.7195C120.086 13.9216 119.503 14.0227 118.853 14.0227ZM118.838 9.6527C119.266 9.6527 119.627 9.55327 119.922 9.3544C120.221 9.15223 120.446 8.86387 120.598 8.48935C120.754 8.11151 120.832 7.65909 120.832 7.1321C120.832 6.61837 120.756 6.16596 120.603 5.77486C120.451 5.38376 120.227 5.07884 119.932 4.86009C119.637 4.63802 119.273 4.52699 118.838 4.52699C118.391 4.52699 118.018 4.64299 117.72 4.875C117.422 5.10369 117.196 5.41525 117.044 5.80966C116.895 6.20407 116.82 6.64489 116.82 7.1321C116.82 7.63258 116.896 8.07173 117.049 8.44957C117.201 8.82741 117.426 9.1224 117.725 9.33452C118.026 9.54664 118.398 9.6527 118.838 9.6527ZM128.792 6.05327V7.34091H124.277V6.05327H128.792ZM137.305 3.36364L134.536 11H132.945L130.171 3.36364H131.767L133.701 9.24006H133.781L135.71 3.36364H137.305ZM141.734 11.1541C140.981 11.1541 140.334 10.9934 139.79 10.6719C139.25 10.3471 138.832 9.89134 138.537 9.30469C138.245 8.71473 138.1 8.02367 138.1 7.23153C138.1 6.44934 138.245 5.75994 138.537 5.16335C138.832 4.56676 139.243 4.10109 139.77 3.76633C140.3 3.43158 140.92 3.2642 141.629 3.2642C142.06 3.2642 142.478 3.33546 142.882 3.47798C143.287 3.6205 143.65 3.84422 143.971 4.14915C144.293 4.45407 144.546 4.85014 144.732 5.33736C144.917 5.82126 145.01 6.40956 145.01 7.10227V7.62926H138.94V6.51562H143.553C143.553 6.12453 143.474 5.77817 143.315 5.47656C143.156 5.17164 142.932 4.93134 142.644 4.75568C142.359 4.58002 142.024 4.49219 141.639 4.49219C141.222 4.49219 140.857 4.59493 140.546 4.80043C140.237 5.0026 139.999 5.26776 139.83 5.59588C139.664 5.92069 139.581 6.27367 139.581 6.65483V7.52486C139.581 8.03527 139.671 8.46946 139.85 8.82741C140.032 9.18537 140.285 9.45881 140.61 9.64773C140.935 9.83333 141.315 9.92614 141.749 9.92614C142.03 9.92614 142.287 9.88636 142.519 9.80682C142.751 9.72396 142.952 9.60133 143.121 9.43892C143.29 9.27652 143.419 9.07599 143.509 8.83736L144.916 9.09091C144.803 9.50521 144.601 9.86813 144.309 10.1797C144.021 10.4879 143.658 10.7282 143.22 10.9006C142.786 11.0696 142.291 11.1541 141.734 11.1541ZM146.659 11V3.36364H148.096V4.5767H148.176C148.315 4.16572 148.56 3.84257 148.912 3.60724C149.266 3.36861 149.667 3.24929 150.115 3.24929C150.208 3.24929 150.317 3.2526 150.443 3.25923C150.572 3.26586 150.673 3.27415 150.746 3.28409V4.70597C150.686 4.68939 150.58 4.67116 150.428 4.65128C150.275 4.62808 150.123 4.61648 149.971 4.61648C149.619 4.61648 149.306 4.69105 149.031 4.8402C148.759 4.98603 148.544 5.18987 148.385 5.4517C148.225 5.71023 148.146 6.00521 148.146 6.33665V11H146.659ZM156.048 3.36364V4.55682H151.877V3.36364H156.048ZM152.996 1.53409H154.482V8.75781C154.482 9.04616 154.525 9.26326 154.612 9.40909C154.698 9.55161 154.809 9.64938 154.945 9.70241C155.084 9.75213 155.235 9.77699 155.397 9.77699C155.516 9.77699 155.621 9.7687 155.71 9.75213C155.8 9.73556 155.869 9.7223 155.919 9.71236L156.188 10.9403C156.101 10.9735 155.979 11.0066 155.82 11.0398C155.661 11.0762 155.462 11.0961 155.223 11.0994C154.832 11.1061 154.467 11.0365 154.129 10.8906C153.791 10.7448 153.518 10.5194 153.309 10.2145C153.1 9.90956 152.996 9.52675 152.996 9.06605V1.53409ZM157.693 11V3.36364H159.179V11H157.693ZM158.443 2.18537C158.185 2.18537 157.963 2.09919 157.777 1.92685C157.595 1.75118 157.504 1.54238 157.504 1.30043C157.504 1.05516 157.595 0.846354 157.777 0.674005C157.963 0.498342 158.185 0.410511 158.443 0.410511C158.702 0.410511 158.922 0.498342 159.105 0.674005C159.29 0.846354 159.383 1.05516 159.383 1.30043C159.383 1.54238 159.29 1.75118 159.105 1.92685C158.922 2.09919 158.702 2.18537 158.443 2.18537ZM164.396 11.1541C163.656 11.1541 163.02 10.9867 162.487 10.652C161.956 10.3139 161.549 9.84825 161.263 9.25497C160.978 8.66169 160.836 7.98224 160.836 7.21662C160.836 6.44105 160.982 5.75663 161.273 5.16335C161.565 4.56676 161.976 4.10109 162.506 3.76633C163.037 3.43158 163.661 3.2642 164.381 3.2642C164.961 3.2642 165.478 3.37192 165.932 3.58736C166.386 3.79948 166.752 4.09777 167.031 4.48224C167.312 4.86671 167.48 5.31581 167.533 5.82955H166.086C166.006 5.47159 165.824 5.16335 165.539 4.90483C165.257 4.64631 164.879 4.51705 164.406 4.51705C163.991 4.51705 163.628 4.62642 163.317 4.84517C163.009 5.06061 162.768 5.36884 162.596 5.76989C162.424 6.16761 162.337 6.63826 162.337 7.18182C162.337 7.73864 162.422 8.21922 162.591 8.62358C162.76 9.02794 162.999 9.34115 163.307 9.56321C163.618 9.78527 163.985 9.89631 164.406 9.89631C164.687 9.89631 164.942 9.84493 165.171 9.74219C165.403 9.63613 165.597 9.48532 165.753 9.28977C165.912 9.09422 166.023 8.8589 166.086 8.58381H167.533C167.48 9.07765 167.319 9.51847 167.05 9.90625C166.782 10.294 166.422 10.599 165.972 10.821C165.524 11.0431 164.999 11.1541 164.396 11.1541ZM171.345 11.169C170.861 11.169 170.423 11.0795 170.032 10.9006C169.641 10.7183 169.331 10.4548 169.102 10.1101C168.877 9.76539 168.764 9.3428 168.764 8.84233C168.764 8.41146 168.847 8.05682 169.013 7.77841C169.179 7.5 169.402 7.27959 169.684 7.11719C169.966 6.95478 170.281 6.83215 170.629 6.74929C170.977 6.66643 171.331 6.60346 171.693 6.56037C172.15 6.50734 172.521 6.46425 172.806 6.43111C173.091 6.39465 173.298 6.33665 173.428 6.2571C173.557 6.17756 173.622 6.0483 173.622 5.86932V5.83452C173.622 5.40033 173.499 5.06392 173.254 4.82528C173.012 4.58665 172.651 4.46733 172.17 4.46733C171.669 4.46733 171.275 4.57836 170.987 4.80043C170.702 5.01918 170.504 5.26278 170.395 5.53125L168.998 5.21307C169.164 4.74905 169.406 4.37453 169.724 4.08949C170.045 3.80114 170.415 3.59233 170.833 3.46307C171.25 3.33049 171.689 3.2642 172.15 3.2642C172.455 3.2642 172.778 3.30066 173.119 3.37358C173.464 3.44318 173.786 3.57244 174.084 3.76136C174.386 3.95028 174.633 4.22041 174.825 4.57173C175.017 4.91974 175.113 5.37216 175.113 5.92898V11H173.661V9.95597H173.602C173.506 10.1482 173.361 10.3371 173.169 10.5227C172.977 10.7083 172.73 10.8625 172.428 10.9851C172.127 11.1077 171.766 11.169 171.345 11.169ZM171.668 9.97585C172.079 9.97585 172.43 9.89465 172.722 9.73224C173.017 9.56984 173.24 9.35772 173.393 9.09588C173.549 8.83073 173.627 8.54735 173.627 8.24574V7.26136C173.574 7.31439 173.471 7.36411 173.318 7.41051C173.169 7.4536 172.999 7.49171 172.806 7.52486C172.614 7.55469 172.427 7.58286 172.244 7.60938C172.062 7.63258 171.91 7.65246 171.787 7.66903C171.499 7.70549 171.235 7.76681 170.997 7.85298C170.761 7.93916 170.572 8.06345 170.43 8.22585C170.291 8.38494 170.221 8.59706 170.221 8.86222C170.221 9.23011 170.357 9.50852 170.629 9.69744C170.901 9.88305 171.247 9.97585 171.668 9.97585ZM178.58 0.818182V11H177.093V0.818182H178.58Z" fill="black"/>
</svg>
