<svg viewBox="0 0 125 15" fill="none" stroke-width="2" stroke="currentColor" aria-hidden="true">
  <path d="M6.72159 5.22798L5.37429 5.46662C5.31795 5.29427 5.22846 5.13021 5.10582 4.97443C4.98651 4.81865 4.8241 4.69105 4.61861 4.59162C4.41312 4.49219 4.15625 4.44247 3.84801 4.44247C3.42708 4.44247 3.07576 4.53693 2.79403 4.72585C2.51231 4.91146 2.37145 5.15175 2.37145 5.44673C2.37145 5.70194 2.46591 5.90743 2.65483 6.06321C2.84375 6.21899 3.14867 6.34659 3.5696 6.44602L4.78267 6.72443C5.48532 6.88684 6.009 7.13707 6.35369 7.47514C6.69839 7.81321 6.87074 8.25237 6.87074 8.79261C6.87074 9.25 6.73816 9.65767 6.47301 10.0156C6.21117 10.3703 5.84493 10.6487 5.37429 10.8509C4.90696 11.053 4.36506 11.1541 3.74858 11.1541C2.89347 11.1541 2.19579 10.9718 1.65554 10.6072C1.11529 10.2393 0.783854 9.71733 0.661222 9.04119L2.09801 8.82244C2.1875 9.19697 2.37145 9.48035 2.64986 9.67259C2.92827 9.86151 3.29119 9.95597 3.73864 9.95597C4.22585 9.95597 4.61529 9.85488 4.90696 9.6527C5.19863 9.44721 5.34446 9.19697 5.34446 8.90199C5.34446 8.66335 5.25497 8.46283 5.07599 8.30043C4.90033 8.13802 4.63021 8.01539 4.26562 7.93253L2.97301 7.64915C2.26042 7.48674 1.73343 7.22822 1.39205 6.87358C1.05398 6.51894 0.884943 6.06984 0.884943 5.52628C0.884943 5.07552 1.01089 4.68111 1.26278 4.34304C1.51468 4.00497 1.86269 3.74148 2.30682 3.55256C2.75095 3.36032 3.25971 3.2642 3.8331 3.2642C4.65838 3.2642 5.308 3.44318 5.78196 3.80114C6.25592 4.15578 6.56913 4.63139 6.72159 5.22798ZM8.50515 13.8636V3.36364H9.95685V4.60156H10.0811C10.1673 4.44247 10.2916 4.25852 10.454 4.04972C10.6164 3.84091 10.8418 3.65862 11.1301 3.50284C11.4185 3.34375 11.7997 3.2642 12.2736 3.2642C12.8901 3.2642 13.4403 3.41998 13.9242 3.73153C14.4081 4.04309 14.7876 4.49219 15.0627 5.07884C15.3411 5.66548 15.4803 6.37145 15.4803 7.19673C15.4803 8.02202 15.3427 8.72964 15.0676 9.3196C14.7926 9.90625 14.4147 10.3587 13.9341 10.6768C13.4535 10.9917 12.905 11.1491 12.2885 11.1491C11.8245 11.1491 11.445 11.0713 11.15 10.9155C10.8584 10.7597 10.6297 10.5774 10.464 10.3686C10.2982 10.1598 10.1706 9.9742 10.0811 9.81179H9.99165V13.8636H8.50515ZM9.96183 7.18182C9.96183 7.71875 10.0397 8.18939 10.1955 8.59375C10.3513 8.99811 10.5766 9.31463 10.8716 9.54332C11.1666 9.7687 11.5279 9.88139 11.9554 9.88139C12.3996 9.88139 12.7708 9.76373 13.0691 9.52841C13.3674 9.28977 13.5927 8.96662 13.7452 8.55895C13.901 8.15128 13.9789 7.69223 13.9789 7.18182C13.9789 6.67803 13.9026 6.22562 13.7502 5.82457C13.601 5.42353 13.3757 5.10701 13.074 4.875C12.7757 4.64299 12.4029 4.52699 11.9554 4.52699C11.5246 4.52699 11.16 4.63802 10.8617 4.86009C10.5667 5.08215 10.343 5.39205 10.1905 5.78977C10.0381 6.1875 9.96183 6.65151 9.96183 7.18182ZM19.3681 11.169C18.8842 11.169 18.4467 11.0795 18.0556 10.9006C17.6645 10.7183 17.3546 10.4548 17.1259 10.1101C16.9005 9.76539 16.7878 9.3428 16.7878 8.84233C16.7878 8.41146 16.8707 8.05682 17.0364 7.77841C17.2021 7.5 17.4258 7.27959 17.7076 7.11719C17.9893 6.95478 18.3042 6.83215 18.6522 6.74929C19.0002 6.66643 19.3548 6.60346 19.7161 6.56037C20.1735 6.50734 20.5447 6.46425 20.8297 6.43111C21.1148 6.39465 21.3219 6.33665 21.4512 6.2571C21.5804 6.17756 21.6451 6.0483 21.6451 5.86932V5.83452C21.6451 5.40033 21.5224 5.06392 21.2772 4.82528C21.0352 4.58665 20.6739 4.46733 20.1934 4.46733C19.6929 4.46733 19.2985 4.57836 19.0101 4.80043C18.7251 5.01918 18.5279 5.26278 18.4185 5.53125L17.0215 5.21307C17.1872 4.74905 17.4292 4.37453 17.7473 4.08949C18.0688 3.80114 18.4384 3.59233 18.856 3.46307C19.2736 3.33049 19.7128 3.2642 20.1735 3.2642C20.4784 3.2642 20.8016 3.30066 21.1429 3.37358C21.4876 3.44318 21.8091 3.57244 22.1074 3.76136C22.409 3.95028 22.656 4.22041 22.8482 4.57173C23.0404 4.91974 23.1365 5.37216 23.1365 5.92898V11H21.6848V9.95597H21.6252C21.5291 10.1482 21.3849 10.3371 21.1926 10.5227C21.0004 10.7083 20.7535 10.8625 20.4519 10.9851C20.1503 11.1077 19.789 11.169 19.3681 11.169ZM19.6912 9.97585C20.1022 9.97585 20.4535 9.89465 20.7452 9.73224C21.0402 9.56984 21.2639 9.35772 21.4164 9.09588C21.5721 8.83073 21.65 8.54735 21.65 8.24574V7.26136C21.597 7.31439 21.4943 7.36411 21.3418 7.41051C21.1926 7.4536 21.022 7.49171 20.8297 7.52486C20.6375 7.55469 20.4502 7.58286 20.2679 7.60938C20.0856 7.63258 19.9332 7.65246 19.8105 7.66903C19.5222 7.70549 19.2587 7.76681 19.0201 7.85298C18.7847 7.93916 18.5958 8.06345 18.4533 8.22585C18.3141 8.38494 18.2445 8.59706 18.2445 8.86222C18.2445 9.23011 18.3804 9.50852 18.6522 9.69744C18.9239 9.88305 19.2703 9.97585 19.6912 9.97585ZM28.3331 11.1541C27.594 11.1541 26.9576 10.9867 26.424 10.652C25.8937 10.3139 25.486 9.84825 25.201 9.25497C24.916 8.66169 24.7734 7.98224 24.7734 7.21662C24.7734 6.44105 24.9193 5.75663 25.2109 5.16335C25.5026 4.56676 25.9136 4.10109 26.4439 3.76633C26.9742 3.43158 27.599 3.2642 28.3182 3.2642C28.8982 3.2642 29.4152 3.37192 29.8693 3.58736C30.3234 3.79948 30.6896 4.09777 30.968 4.48224C31.2498 4.86671 31.4171 5.31581 31.4702 5.82955H30.0234C29.9439 5.47159 29.7616 5.16335 29.4766 4.90483C29.1948 4.64631 28.817 4.51705 28.343 4.51705C27.9287 4.51705 27.5658 4.62642 27.2543 4.84517C26.946 5.06061 26.7057 5.36884 26.5334 5.76989C26.361 6.16761 26.2749 6.63826 26.2749 7.18182C26.2749 7.73864 26.3594 8.21922 26.5284 8.62358C26.6974 9.02794 26.9361 9.34115 27.2443 9.56321C27.5559 9.78527 27.9221 9.89631 28.343 9.89631C28.6248 9.89631 28.88 9.84493 29.1087 9.74219C29.3407 9.63613 29.5346 9.48532 29.6903 9.28977C29.8494 9.09422 29.9605 8.8589 30.0234 8.58381H31.4702C31.4171 9.07765 31.2564 9.51847 30.9879 9.90625C30.7195 10.294 30.3598 10.599 29.9091 10.821C29.4616 11.0431 28.9363 11.1541 28.3331 11.1541ZM33.0598 11V3.36364H34.5463V11H33.0598ZM33.8105 2.18537C33.552 2.18537 33.33 2.09919 33.1444 1.92685C32.9621 1.75118 32.8709 1.54238 32.8709 1.30043C32.8709 1.05516 32.9621 0.846354 33.1444 0.674005C33.33 0.498342 33.552 0.410511 33.8105 0.410511C34.0691 0.410511 34.2895 0.498342 34.4718 0.674005C34.6574 0.846354 34.7502 1.05516 34.7502 1.30043C34.7502 1.54238 34.6574 1.75118 34.4718 1.92685C34.2895 2.09919 34.0691 2.18537 33.8105 2.18537ZM38.0327 6.46591V11H36.5462V3.36364H37.973V4.60653H38.0675C38.2431 4.20218 38.5182 3.87737 38.8928 3.6321C39.2706 3.38684 39.7462 3.2642 40.3196 3.2642C40.84 3.2642 41.2957 3.37358 41.6868 3.59233C42.0779 3.80777 42.3812 4.12926 42.5966 4.55682C42.812 4.98437 42.9197 5.51302 42.9197 6.14276V11H41.4332V6.32173C41.4332 5.76823 41.2891 5.3357 41.0007 5.02415C40.7124 4.70928 40.3163 4.55185 39.8125 4.55185C39.4678 4.55185 39.1612 4.62642 38.8928 4.77557C38.6276 4.92472 38.4171 5.14347 38.2614 5.43182C38.1089 5.71686 38.0327 6.06155 38.0327 6.46591ZM48.1151 14.0227C47.5085 14.0227 46.9865 13.9432 46.549 13.7841C46.1148 13.625 45.7602 13.4145 45.4851 13.1527C45.21 12.8909 45.0045 12.6042 44.8686 12.2926L46.1463 11.7656C46.2358 11.9115 46.3551 12.0656 46.5043 12.228C46.6567 12.3937 46.8622 12.5346 47.1207 12.6506C47.3826 12.7666 47.719 12.8246 48.13 12.8246C48.6934 12.8246 49.1591 12.687 49.527 12.4119C49.8949 12.1402 50.0788 11.706 50.0788 11.1094V9.60795H49.9844C49.8949 9.77036 49.7656 9.95099 49.5966 10.1499C49.4309 10.3487 49.2022 10.5211 48.9105 10.6669C48.6188 10.8127 48.2393 10.8857 47.772 10.8857C47.1688 10.8857 46.6252 10.7448 46.1413 10.4631C45.6607 10.178 45.2796 9.75876 44.9979 9.20526C44.7195 8.64844 44.5803 7.96401 44.5803 7.15199C44.5803 6.33996 44.7178 5.64394 44.9929 5.06392C45.2713 4.4839 45.6525 4.03977 46.1364 3.73153C46.6203 3.41998 47.1688 3.2642 47.782 3.2642C48.2559 3.2642 48.6387 3.34375 48.9304 3.50284C49.2221 3.65862 49.4491 3.84091 49.6115 4.04972C49.7772 4.25852 49.9048 4.44247 49.9943 4.60156H50.1037V3.36364H51.5604V11.169C51.5604 11.8253 51.4079 12.3639 51.103 12.7848C50.7981 13.2057 50.3854 13.5173 49.8651 13.7195C49.348 13.9216 48.7647 14.0227 48.1151 14.0227ZM48.1001 9.6527C48.5277 9.6527 48.889 9.55327 49.1839 9.3544C49.4822 9.15223 49.7076 8.86387 49.8601 8.48935C50.0159 8.11151 50.0938 7.65909 50.0938 7.1321C50.0938 6.61837 50.0175 6.16596 49.8651 5.77486C49.7126 5.38376 49.4889 5.07884 49.1939 4.86009C48.8989 4.63802 48.5343 4.52699 48.1001 4.52699C47.6527 4.52699 47.2798 4.64299 46.9815 4.875C46.6832 5.10369 46.4579 5.41525 46.3054 5.80966C46.1563 6.20407 46.0817 6.64489 46.0817 7.1321C46.0817 7.63258 46.1579 8.07173 46.3104 8.44957C46.4628 8.82741 46.6882 9.1224 46.9865 9.33452C47.2881 9.54664 47.6593 9.6527 48.1001 9.6527ZM58.0533 6.05327V7.34091H53.5391V6.05327H58.0533ZM61.521 6.46591V11H60.0344V0.818182H61.5011V4.60653H61.5955C61.7745 4.19555 62.0479 3.86908 62.4158 3.62713C62.7837 3.38518 63.2643 3.2642 63.8576 3.2642C64.3813 3.2642 64.8387 3.37192 65.2298 3.58736C65.6242 3.80279 65.9291 4.12429 66.1445 4.55185C66.3633 4.97609 66.4727 5.50639 66.4727 6.14276V11H64.9862V6.32173C64.9862 5.7616 64.842 5.32741 64.5536 5.01918C64.2653 4.70762 63.8642 4.55185 63.3505 4.55185C62.9992 4.55185 62.6843 4.62642 62.4059 4.77557C62.1308 4.92472 61.9137 5.14347 61.7546 5.43182C61.5988 5.71686 61.521 6.06155 61.521 6.46591ZM71.7475 11.1541C70.9951 11.1541 70.3472 10.9934 69.8036 10.6719C69.2634 10.3471 68.8458 9.89134 68.5508 9.30469C68.2591 8.71473 68.1133 8.02367 68.1133 7.23153C68.1133 6.44934 68.2591 5.75994 68.5508 5.16335C68.8458 4.56676 69.2567 4.10109 69.7837 3.76633C70.314 3.43158 70.9338 3.2642 71.6431 3.2642C72.074 3.2642 72.4916 3.33546 72.896 3.47798C73.3003 3.6205 73.6632 3.84422 73.9847 4.14915C74.3062 4.45407 74.5598 4.85014 74.7454 5.33736C74.931 5.82126 75.0238 6.40956 75.0238 7.10227V7.62926H68.9535V6.51562H73.5671C73.5671 6.12453 73.4876 5.77817 73.3285 5.47656C73.1694 5.17164 72.9457 4.93134 72.6573 4.75568C72.3723 4.58002 72.0375 4.49219 71.6531 4.49219C71.2354 4.49219 70.8709 4.59493 70.5593 4.80043C70.2511 5.0026 70.0124 5.26776 69.8434 5.59588C69.6777 5.92069 69.5948 6.27367 69.5948 6.65483V7.52486C69.5948 8.03527 69.6843 8.46946 69.8633 8.82741C70.0456 9.18537 70.2991 9.45881 70.6239 9.64773C70.9487 9.83333 71.3282 9.92614 71.7624 9.92614C72.0442 9.92614 72.301 9.88636 72.533 9.80682C72.765 9.72396 72.9656 9.60133 73.1346 9.43892C73.3036 9.27652 73.4329 9.07599 73.5224 8.83736L74.9293 9.09091C74.8166 9.50521 74.6145 9.86813 74.3228 10.1797C74.0344 10.4879 73.6715 10.7282 73.234 10.9006C72.7998 11.0696 72.3043 11.1541 71.7475 11.1541ZM76.6731 11V3.36364H78.1596V11H76.6731ZM77.4238 2.18537C77.1653 2.18537 76.9432 2.09919 76.7576 1.92685C76.5753 1.75118 76.4842 1.54238 76.4842 1.30043C76.4842 1.05516 76.5753 0.846354 76.7576 0.674005C76.9432 0.498342 77.1653 0.410511 77.4238 0.410511C77.6824 0.410511 77.9028 0.498342 78.085 0.674005C78.2707 0.846354 78.3635 1.05516 78.3635 1.30043C78.3635 1.54238 78.2707 1.75118 78.085 1.92685C77.9028 2.09919 77.6824 2.18537 77.4238 2.18537ZM83.3612 14.0227C82.7546 14.0227 82.2326 13.9432 81.7951 13.7841C81.3609 13.625 81.0063 13.4145 80.7312 13.1527C80.4561 12.8909 80.2506 12.6042 80.1147 12.2926L81.3924 11.7656C81.4819 11.9115 81.6012 12.0656 81.7504 12.228C81.9028 12.3937 82.1083 12.5346 82.3668 12.6506C82.6287 12.7666 82.9651 12.8246 83.3761 12.8246C83.9395 12.8246 84.4052 12.687 84.7731 12.4119C85.141 12.1402 85.3249 11.706 85.3249 11.1094V9.60795H85.2305C85.141 9.77036 85.0117 9.95099 84.8427 10.1499C84.677 10.3487 84.4483 10.5211 84.1566 10.6669C83.8649 10.8127 83.4854 10.8857 83.0181 10.8857C82.4149 10.8857 81.8713 10.7448 81.3874 10.4631C80.9068 10.178 80.5257 9.75876 80.244 9.20526C79.9656 8.64844 79.8263 7.96401 79.8263 7.15199C79.8263 6.33996 79.9639 5.64394 80.239 5.06392C80.5174 4.4839 80.8986 4.03977 81.3825 3.73153C81.8664 3.41998 82.4149 3.2642 83.0281 3.2642C83.502 3.2642 83.8848 3.34375 84.1765 3.50284C84.4682 3.65862 84.6952 3.84091 84.8576 4.04972C85.0233 4.25852 85.1509 4.44247 85.2404 4.60156H85.3498V3.36364H86.8065V11.169C86.8065 11.8253 86.654 12.3639 86.3491 12.7848C86.0442 13.2057 85.6315 13.5173 85.1112 13.7195C84.5941 13.9216 84.0108 14.0227 83.3612 14.0227ZM83.3462 9.6527C83.7738 9.6527 84.1351 9.55327 84.43 9.3544C84.7283 9.15223 84.9537 8.86387 85.1062 8.48935C85.262 8.11151 85.3398 7.65909 85.3398 7.1321C85.3398 6.61837 85.2636 6.16596 85.1112 5.77486C84.9587 5.38376 84.735 5.07884 84.44 4.86009C84.145 4.63802 83.7804 4.52699 83.3462 4.52699C82.8988 4.52699 82.5259 4.64299 82.2276 4.875C81.9293 5.10369 81.704 5.41525 81.5515 5.80966C81.4023 6.20407 81.3278 6.64489 81.3278 7.1321C81.3278 7.63258 81.404 8.07173 81.5565 8.44957C81.7089 8.82741 81.9343 9.1224 82.2326 9.33452C82.5342 9.54664 82.9054 9.6527 83.3462 9.6527ZM90.2866 6.46591V11H88.8001V0.818182H90.2667V4.60653H90.3612C90.5401 4.19555 90.8136 3.86908 91.1815 3.62713C91.5494 3.38518 92.0299 3.2642 92.6232 3.2642C93.1469 3.2642 93.6043 3.37192 93.9954 3.58736C94.3898 3.80279 94.6947 4.12429 94.9102 4.55185C95.1289 4.97609 95.2383 5.50639 95.2383 6.14276V11H93.7518V6.32173C93.7518 5.7616 93.6076 5.32741 93.3192 5.01918C93.0309 4.70762 92.6299 4.55185 92.1161 4.55185C91.7648 4.55185 91.4499 4.62642 91.1715 4.77557C90.8964 4.92472 90.6793 5.14347 90.5202 5.43182C90.3645 5.71686 90.2866 6.06155 90.2866 6.46591ZM100.787 3.36364V4.55682H96.6154V3.36364H100.787ZM97.734 1.53409H99.2205V8.75781C99.2205 9.04616 99.2636 9.26326 99.3498 9.40909C99.436 9.55161 99.547 9.64938 99.6829 9.70241C99.8221 9.75213 99.9729 9.77699 100.135 9.77699C100.255 9.77699 100.359 9.7687 100.449 9.75213C100.538 9.73556 100.608 9.7223 100.657 9.71236L100.926 10.9403C100.84 10.9735 100.717 11.0066 100.558 11.0398C100.399 11.0762 100.2 11.0961 99.9613 11.0994C99.5702 11.1061 99.2056 11.0365 98.8675 10.8906C98.5295 10.7448 98.256 10.5194 98.0472 10.2145C97.8384 9.90956 97.734 9.52675 97.734 9.06605V1.53409ZM106.67 6.05327V7.34091H102.156V6.05327H106.67ZM112.176 11.169C111.391 11.1657 110.72 10.9586 110.163 10.5476C109.606 10.1366 109.18 9.53835 108.885 8.75284C108.59 7.96733 108.443 7.02107 108.443 5.91406C108.443 4.81037 108.59 3.86742 108.885 3.08523C109.184 2.30303 109.611 1.70644 110.168 1.29545C110.728 0.884469 111.398 0.678977 112.176 0.678977C112.955 0.678977 113.623 0.886126 114.18 1.30043C114.737 1.71141 115.163 2.308 115.458 3.0902C115.756 3.86908 115.905 4.81037 115.905 5.91406C115.905 7.02438 115.758 7.9723 115.463 8.75781C115.168 9.54001 114.742 10.1383 114.185 10.5526C113.628 10.9635 112.959 11.169 112.176 11.169ZM112.176 9.84162C112.866 9.84162 113.404 9.50521 113.792 8.83239C114.183 8.15956 114.379 7.18679 114.379 5.91406C114.379 5.06889 114.289 4.35464 114.11 3.77131C113.935 3.18466 113.681 2.74053 113.35 2.43892C113.022 2.134 112.631 1.98153 112.176 1.98153C111.49 1.98153 110.952 2.3196 110.561 2.99574C110.17 3.67187 109.972 4.64465 109.969 5.91406C109.969 6.76255 110.057 7.48011 110.233 8.06676C110.412 8.65009 110.665 9.09257 110.993 9.39418C111.321 9.69247 111.716 9.84162 112.176 9.84162ZM117.669 11V9.88636L121.114 6.31676C121.482 5.92898 121.785 5.58925 122.024 5.29759C122.266 5.0026 122.447 4.72254 122.566 4.45739C122.685 4.19223 122.745 3.91051 122.745 3.61222C122.745 3.27415 122.665 2.98248 122.506 2.73722C122.347 2.48864 122.13 2.29806 121.855 2.16548C121.58 2.02959 121.27 1.96165 120.925 1.96165C120.561 1.96165 120.242 2.03622 119.971 2.18537C119.699 2.33452 119.49 2.54498 119.344 2.81676C119.198 3.08854 119.126 3.40672 119.126 3.77131H117.659C117.659 3.15151 117.801 2.60961 118.086 2.1456C118.372 1.68158 118.763 1.32197 119.26 1.06676C119.757 0.808238 120.322 0.678977 120.955 0.678977C121.595 0.678977 122.158 0.806581 122.645 1.06179C123.136 1.31368 123.519 1.65838 123.794 2.09588C124.069 2.53007 124.206 3.0206 124.206 3.56747C124.206 3.94531 124.135 4.31487 123.993 4.67614C123.854 5.0374 123.61 5.4401 123.262 5.88423C122.914 6.32505 122.43 6.86032 121.81 7.49006L119.787 9.60795V9.68253H124.371V11H117.669Z" fill="black"/>
</svg>
