<svg viewBox="0 0 93 15" fill="none" stroke-width="2" stroke="currentColor" aria-hidden="true">
  <path d="M1.4858 0.818182V11H-0.000710189V0.818182H1.4858ZM5.70792 11.169C5.22402 11.169 4.78652 11.0795 4.39542 10.9006C4.00432 10.7183 3.69442 10.4548 3.46573 10.1101C3.24035 9.76539 3.12766 9.3428 3.12766 8.84233C3.12766 8.41146 3.21052 8.05682 3.37624 7.77841C3.54196 7.5 3.76568 7.27959 4.04741 7.11719C4.32913 6.95478 4.644 6.83215 4.99201 6.74929C5.34002 6.66643 5.69466 6.60346 6.05593 6.56037C6.51332 6.50734 6.88453 6.46425 7.16957 6.43111C7.4546 6.39465 7.66175 6.33665 7.79102 6.2571C7.92028 6.17756 7.98491 6.0483 7.98491 5.86932V5.83452C7.98491 5.40033 7.86228 5.06392 7.61701 4.82528C7.37506 4.58665 7.01379 4.46733 6.5332 4.46733C6.03273 4.46733 5.63832 4.57836 5.34996 4.80043C5.06493 5.01918 4.86772 5.26278 4.75835 5.53125L3.36133 5.21307C3.52705 4.74905 3.769 4.37453 4.08718 4.08949C4.40868 3.80114 4.77823 3.59233 5.19585 3.46307C5.61346 3.33049 6.05262 3.2642 6.51332 3.2642C6.81824 3.2642 7.14139 3.30066 7.48278 3.37358C7.82747 3.44318 8.14897 3.57244 8.44727 3.76136C8.74888 3.95028 8.9958 4.22041 9.18803 4.57173C9.38027 4.91974 9.47639 5.37216 9.47639 5.92898V11H8.02468V9.95597H7.96502C7.8689 10.1482 7.72473 10.3371 7.53249 10.5227C7.34026 10.7083 7.09334 10.8625 6.79173 10.9851C6.49012 11.1077 6.12885 11.169 5.70792 11.169ZM6.03107 9.97585C6.44206 9.97585 6.79338 9.89465 7.08505 9.73224C7.38003 9.56984 7.60375 9.35772 7.75621 9.09588C7.91199 8.83073 7.98988 8.54735 7.98988 8.24574V7.26136C7.93685 7.31439 7.8341 7.36411 7.68164 7.41051C7.53249 7.4536 7.3618 7.49171 7.16957 7.52486C6.97733 7.55469 6.79007 7.58286 6.60778 7.60938C6.42549 7.63258 6.27302 7.65246 6.15039 7.66903C5.86204 7.70549 5.59854 7.76681 5.35991 7.85298C5.12459 7.93916 4.93567 8.06345 4.79315 8.22585C4.65394 8.38494 4.58434 8.59706 4.58434 8.86222C4.58434 9.23011 4.72023 9.50852 4.99201 9.69744C5.26379 9.88305 5.61014 9.97585 6.03107 9.97585ZM12.1225 13.8636C11.9004 13.8636 11.6983 13.8454 11.516 13.8089C11.3337 13.7758 11.1978 13.7393 11.1083 13.6996L11.4663 12.4815C11.738 12.5545 11.98 12.5859 12.1921 12.576C12.4042 12.5661 12.5915 12.4865 12.7539 12.3374C12.9196 12.1882 13.0655 11.9446 13.1914 11.6065L13.3754 11.0994L10.5813 3.36364H12.1722L14.1062 9.28977H14.1857L16.1197 3.36364H17.7156L14.5685 12.0192C14.4227 12.4169 14.2371 12.7533 14.0117 13.0284C13.7863 13.3068 13.5179 13.5156 13.2063 13.6548C12.8948 13.794 12.5335 13.8636 12.1225 13.8636ZM22.0694 11.1541C21.3535 11.1541 20.7288 10.9901 20.1951 10.6619C19.6615 10.3338 19.2472 9.87476 18.9522 9.2848C18.6573 8.69484 18.5098 8.00544 18.5098 7.21662C18.5098 6.42448 18.6573 5.73177 18.9522 5.13849C19.2472 4.54522 19.6615 4.08452 20.1951 3.75639C20.7288 3.42827 21.3535 3.2642 22.0694 3.2642C22.7853 3.2642 23.4101 3.42827 23.9437 3.75639C24.4773 4.08452 24.8916 4.54522 25.1866 5.13849C25.4816 5.73177 25.6291 6.42448 25.6291 7.21662C25.6291 8.00544 25.4816 8.69484 25.1866 9.2848C24.8916 9.87476 24.4773 10.3338 23.9437 10.6619C23.4101 10.9901 22.7853 11.1541 22.0694 11.1541ZM22.0744 9.90625C22.5384 9.90625 22.9229 9.78362 23.2278 9.53835C23.5327 9.29309 23.7581 8.96662 23.9039 8.55895C24.0531 8.15128 24.1277 7.70218 24.1277 7.21165C24.1277 6.72443 24.0531 6.27699 23.9039 5.86932C23.7581 5.45833 23.5327 5.12855 23.2278 4.87997C22.9229 4.63139 22.5384 4.5071 22.0744 4.5071C21.6071 4.5071 21.2193 4.63139 20.911 4.87997C20.6061 5.12855 20.3791 5.45833 20.2299 5.86932C20.0841 6.27699 20.0112 6.72443 20.0112 7.21165C20.0112 7.70218 20.0841 8.15128 20.2299 8.55895C20.3791 8.96662 20.6061 9.29309 20.911 9.53835C21.2193 9.78362 21.6071 9.90625 22.0744 9.90625ZM32.1257 7.8331V3.36364H33.6172V11H32.1555V9.67756H32.076C31.9003 10.0852 31.6186 10.425 31.2308 10.6967C30.8464 10.9652 30.3674 11.0994 29.794 11.0994C29.3035 11.0994 28.8693 10.9917 28.4915 10.7763C28.117 10.5575 27.822 10.2344 27.6065 9.80682C27.3944 9.37926 27.2884 8.85062 27.2884 8.22088V3.36364H28.7749V8.0419C28.7749 8.56226 28.919 8.97656 29.2074 9.2848C29.4957 9.59304 29.8703 9.74716 30.331 9.74716C30.6094 9.74716 30.8861 9.67756 31.1612 9.53835C31.4396 9.39915 31.67 9.18868 31.8523 8.90696C32.0379 8.62524 32.129 8.26728 32.1257 7.8331ZM39.1792 3.36364V4.55682H35.008V3.36364H39.1792ZM36.1266 1.53409H37.6131V8.75781C37.6131 9.04616 37.6562 9.26326 37.7424 9.40909C37.8285 9.55161 37.9396 9.64938 38.0755 9.70241C38.2147 9.75213 38.3655 9.77699 38.5279 9.77699C38.6472 9.77699 38.7516 9.7687 38.8411 9.75213C38.9306 9.73556 39.0002 9.7223 39.0499 9.71236L39.3184 10.9403C39.2322 10.9735 39.1096 11.0066 38.9505 11.0398C38.7914 11.0762 38.5925 11.0961 38.3539 11.0994C37.9628 11.1061 37.5982 11.0365 37.2601 10.8906C36.9221 10.7448 36.6486 10.5194 36.4398 10.2145C36.231 9.90956 36.1266 9.52675 36.1266 9.06605V1.53409ZM45.063 6.05327V7.34091H40.5488V6.05327H45.063ZM50.2459 14.0227C49.6394 14.0227 49.1174 13.9432 48.6799 13.7841C48.2457 13.625 47.891 13.4145 47.6159 13.1527C47.3408 12.8909 47.1354 12.6042 46.9995 12.2926L48.2772 11.7656C48.3667 11.9115 48.486 12.0656 48.6351 12.228C48.7876 12.3937 48.9931 12.5346 49.2516 12.6506C49.5134 12.7666 49.8498 12.8246 50.2608 12.8246C50.8243 12.8246 51.29 12.687 51.6578 12.4119C52.0257 12.1402 52.2097 11.706 52.2097 11.1094V9.60795H52.1152C52.0257 9.77036 51.8965 9.95099 51.7275 10.1499C51.5617 10.3487 51.333 10.5211 51.0414 10.6669C50.7497 10.8127 50.3702 10.8857 49.9029 10.8857C49.2997 10.8857 48.7561 10.7448 48.2722 10.4631C47.7916 10.178 47.4105 9.75876 47.1287 9.20526C46.8503 8.64844 46.7111 7.96401 46.7111 7.15199C46.7111 6.33996 46.8487 5.64394 47.1238 5.06392C47.4022 4.4839 47.7833 4.03977 48.2672 3.73153C48.7511 3.41998 49.2997 3.2642 49.9128 3.2642C50.3868 3.2642 50.7696 3.34375 51.0613 3.50284C51.3529 3.65862 51.58 3.84091 51.7424 4.04972C51.9081 4.25852 52.0357 4.44247 52.1252 4.60156H52.2346V3.36364H53.6912V11.169C53.6912 11.8253 53.5388 12.3639 53.2338 12.7848C52.9289 13.2057 52.5163 13.5173 51.9959 13.7195C51.4789 13.9216 50.8955 14.0227 50.2459 14.0227ZM50.231 9.6527C50.6586 9.6527 51.0198 9.55327 51.3148 9.3544C51.6131 9.15223 51.8385 8.86387 51.9909 8.48935C52.1467 8.11151 52.2246 7.65909 52.2246 7.1321C52.2246 6.61837 52.1484 6.16596 51.9959 5.77486C51.8435 5.38376 51.6197 5.07884 51.3248 4.86009C51.0298 4.63802 50.6652 4.52699 50.231 4.52699C49.7836 4.52699 49.4107 4.64299 49.1124 4.875C48.8141 5.10369 48.5887 5.41525 48.4363 5.80966C48.2871 6.20407 48.2125 6.64489 48.2125 7.1321C48.2125 7.63258 48.2888 8.07173 48.4412 8.44957C48.5937 8.82741 48.8191 9.1224 49.1174 9.33452C49.419 9.54664 49.7902 9.6527 50.231 9.6527ZM55.6848 11V3.36364H57.1216V4.5767H57.2012C57.3404 4.16572 57.5856 3.84257 57.937 3.60724C58.2916 3.36861 58.6926 3.24929 59.1401 3.24929C59.2329 3.24929 59.3423 3.2526 59.4682 3.25923C59.5975 3.26586 59.6986 3.27415 59.7715 3.28409V4.70597C59.7118 4.68939 59.6058 4.67116 59.4533 4.65128C59.3008 4.62808 59.1484 4.61648 58.9959 4.61648C58.6446 4.61648 58.3314 4.69105 58.0563 4.8402C57.7845 4.98603 57.5691 5.18987 57.41 5.4517C57.2509 5.71023 57.1713 6.00521 57.1713 6.33665V11H55.6848ZM61.0579 11V3.36364H62.5444V11H61.0579ZM61.8086 2.18537C61.5501 2.18537 61.328 2.09919 61.1424 1.92685C60.9601 1.75118 60.869 1.54238 60.869 1.30043C60.869 1.05516 60.9601 0.846354 61.1424 0.674005C61.328 0.498342 61.5501 0.410511 61.8086 0.410511C62.0671 0.410511 62.2875 0.498342 62.4698 0.674005C62.6554 0.846354 62.7482 1.05516 62.7482 1.30043C62.7482 1.54238 62.6554 1.75118 62.4698 1.92685C62.2875 2.09919 62.0671 2.18537 61.8086 2.18537ZM67.4029 11.1491C66.7864 11.1491 66.2362 10.9917 65.7523 10.6768C65.2717 10.3587 64.8939 9.90625 64.6188 9.3196C64.347 8.72964 64.2111 8.02202 64.2111 7.19673C64.2111 6.37145 64.3487 5.66548 64.6238 5.07884C64.9022 4.49219 65.2833 4.04309 65.7672 3.73153C66.2511 3.41998 66.7997 3.2642 67.4128 3.2642C67.8868 3.2642 68.2679 3.34375 68.5563 3.50284C68.848 3.65862 69.0733 3.84091 69.2324 4.04972C69.3948 4.25852 69.5208 4.44247 69.6103 4.60156H69.6998V0.818182H71.1863V11H69.7346V9.81179H69.6103C69.5208 9.9742 69.3915 10.1598 69.2225 10.3686C69.0568 10.5774 68.8281 10.7597 68.5364 10.9155C68.2447 11.0713 67.8669 11.1491 67.4029 11.1491ZM67.731 9.88139C68.1586 9.88139 68.5198 9.7687 68.8148 9.54332C69.1131 9.31463 69.3385 8.99811 69.4909 8.59375C69.6467 8.18939 69.7246 7.71875 69.7246 7.18182C69.7246 6.65151 69.6484 6.1875 69.4959 5.78977C69.3435 5.39205 69.1197 5.08215 68.8248 4.86009C68.5298 4.63802 68.1652 4.52699 67.731 4.52699C67.2836 4.52699 66.9107 4.64299 66.6124 4.875C66.3141 5.10701 66.0887 5.42353 65.9363 5.82457C65.7871 6.22562 65.7125 6.67803 65.7125 7.18182C65.7125 7.69223 65.7888 8.15128 65.9412 8.55895C66.0937 8.96662 66.3191 9.28977 66.6174 9.52841C66.919 9.76373 67.2902 9.88139 67.731 9.88139ZM77.8072 6.05327V7.34091H73.293V6.05327H77.8072ZM83.3132 11.169C82.5277 11.1657 81.8565 10.9586 81.2997 10.5476C80.7429 10.1366 80.317 9.53835 80.022 8.75284C79.727 7.96733 79.5795 7.02107 79.5795 5.91406C79.5795 4.81037 79.727 3.86742 80.022 3.08523C80.3203 2.30303 80.7479 1.70644 81.3047 1.29545C81.8648 0.884469 82.5343 0.678977 83.3132 0.678977C84.0921 0.678977 84.7599 0.886126 85.3168 1.30043C85.8736 1.71141 86.2995 2.308 86.5945 3.0902C86.8928 3.86908 87.0419 4.81037 87.0419 5.91406C87.0419 7.02438 86.8944 7.9723 86.5994 8.75781C86.3045 9.54001 85.8786 10.1383 85.3217 10.5526C84.7649 10.9635 84.0954 11.169 83.3132 11.169ZM83.3132 9.84162C84.0026 9.84162 84.5412 9.50521 84.929 8.83239C85.3201 8.15956 85.5156 7.18679 85.5156 5.91406C85.5156 5.06889 85.4261 4.35464 85.2472 3.77131C85.0715 3.18466 84.8179 2.74053 84.4865 2.43892C84.1584 2.134 83.7673 1.98153 83.3132 1.98153C82.6271 1.98153 82.0885 2.3196 81.6974 2.99574C81.3063 3.67187 81.1091 4.64465 81.1058 5.91406C81.1058 6.76255 81.1937 7.48011 81.3693 8.06676C81.5483 8.65009 81.8018 9.09257 82.13 9.39418C82.4581 9.69247 82.8525 9.84162 83.3132 9.84162ZM92.6685 0.818182V11H91.1273V2.35938H91.0676L88.6316 3.95028V2.47869L91.1721 0.818182H92.6685Z" fill="black"/>
</svg>
