<svg viewBox="0 0 83 12" fill="none" stroke-width="2" stroke="currentColor" aria-hidden="true">
  <path d="M-0.000710189 11V3.36364H1.42614V4.60653H1.5206C1.67969 4.18561 1.93987 3.85748 2.30114 3.62216C2.66241 3.38352 3.09493 3.2642 3.59872 3.2642C4.10914 3.2642 4.5367 3.38352 4.88139 3.62216C5.2294 3.8608 5.48627 4.18892 5.65199 4.60653H5.73153C5.91383 4.19886 6.20384 3.87405 6.60156 3.6321C6.99929 3.38684 7.47325 3.2642 8.02344 3.2642C8.71615 3.2642 9.28125 3.4813 9.71875 3.91548C10.1596 4.34967 10.38 5.00426 10.38 5.87926V11H8.89347V6.01847C8.89347 5.50142 8.7526 5.12689 8.47088 4.89489C8.18916 4.66288 7.85275 4.54688 7.46165 4.54688C6.97775 4.54688 6.60156 4.69602 6.3331 4.99432C6.06463 5.2893 5.9304 5.6688 5.9304 6.13281V11H4.44886V5.92401C4.44886 5.50971 4.3196 5.17661 4.06108 4.92472C3.80256 4.67282 3.46615 4.54688 3.05185 4.54688C2.77012 4.54688 2.50994 4.62145 2.27131 4.7706C2.03599 4.91643 1.84541 5.12026 1.69957 5.3821C1.55706 5.64394 1.4858 5.94721 1.4858 6.2919V11H-0.000710189ZM14.5946 11.169C14.1107 11.169 13.6732 11.0795 13.2821 10.9006C12.891 10.7183 12.5811 10.4548 12.3525 10.1101C12.1271 9.76539 12.0144 9.3428 12.0144 8.84233C12.0144 8.41146 12.0972 8.05682 12.263 7.77841C12.4287 7.5 12.6524 7.27959 12.9341 7.11719C13.2158 6.95478 13.5307 6.83215 13.8787 6.74929C14.2267 6.66643 14.5814 6.60346 14.9426 6.56037C15.4 6.50734 15.7712 6.46425 16.0563 6.43111C16.3413 6.39465 16.5485 6.33665 16.6777 6.2571C16.807 6.17756 16.8716 6.0483 16.8716 5.86932V5.83452C16.8716 5.40033 16.749 5.06392 16.5037 4.82528C16.2618 4.58665 15.9005 4.46733 15.4199 4.46733C14.9194 4.46733 14.525 4.57836 14.2367 4.80043C13.9516 5.01918 13.7544 5.26278 13.6451 5.53125L12.248 5.21307C12.4138 4.74905 12.6557 4.37453 12.9739 4.08949C13.2954 3.80114 13.665 3.59233 14.0826 3.46307C14.5002 3.33049 14.9393 3.2642 15.4 3.2642C15.705 3.2642 16.0281 3.30066 16.3695 3.37358C16.7142 3.44318 17.0357 3.57244 17.334 3.76136C17.6356 3.95028 17.8825 4.22041 18.0748 4.57173C18.267 4.91974 18.3631 5.37216 18.3631 5.92898V11H16.9114V9.95597H16.8517C16.7556 10.1482 16.6114 10.3371 16.4192 10.5227C16.227 10.7083 15.9801 10.8625 15.6784 10.9851C15.3768 11.1077 15.0156 11.169 14.5946 11.169ZM14.9178 9.97585C15.3288 9.97585 15.6801 9.89465 15.9718 9.73224C16.2667 9.56984 16.4905 9.35772 16.6429 9.09588C16.7987 8.83073 16.8766 8.54735 16.8766 8.24574V7.26136C16.8236 7.31439 16.7208 7.36411 16.5684 7.41051C16.4192 7.4536 16.2485 7.49171 16.0563 7.52486C15.8641 7.55469 15.6768 7.58286 15.4945 7.60938C15.3122 7.63258 15.1597 7.65246 15.0371 7.66903C14.7488 7.70549 14.4853 7.76681 14.2466 7.85298C14.0113 7.93916 13.8224 8.06345 13.6799 8.22585C13.5407 8.38494 13.4711 8.59706 13.4711 8.86222C13.4711 9.23011 13.6069 9.50852 13.8787 9.69744C14.1505 9.88305 14.4969 9.97585 14.9178 9.97585ZM21.5163 3.36364L23.2017 6.33665L24.902 3.36364H26.5277L24.1463 7.18182L26.5476 11H24.9219L23.2017 8.14631L21.4865 11H19.8558L22.2322 7.18182L19.8857 3.36364H21.5163ZM28.054 11V3.36364H29.5405V11H28.054ZM28.8047 2.18537C28.5462 2.18537 28.3241 2.09919 28.1385 1.92685C27.9562 1.75118 27.8651 1.54238 27.8651 1.30043C27.8651 1.05516 27.9562 0.846354 28.1385 0.674005C28.3241 0.498342 28.5462 0.410511 28.8047 0.410511C29.0632 0.410511 29.2836 0.498342 29.4659 0.674005C29.6515 0.846354 29.7443 1.05516 29.7443 1.30043C29.7443 1.54238 29.6515 1.75118 29.4659 1.92685C29.2836 2.09919 29.0632 2.18537 28.8047 2.18537ZM31.5403 11V3.36364H32.9672V4.60653H33.0616C33.2207 4.18561 33.4809 3.85748 33.8422 3.62216C34.2034 3.38352 34.6359 3.2642 35.1397 3.2642C35.6502 3.2642 36.0777 3.38352 36.4224 3.62216C36.7704 3.8608 37.0273 4.18892 37.193 4.60653H37.2725C37.4548 4.19886 37.7449 3.87405 38.1426 3.6321C38.5403 3.38684 39.0143 3.2642 39.5645 3.2642C40.2572 3.2642 40.8223 3.4813 41.2598 3.91548C41.7006 4.34967 41.921 5.00426 41.921 5.87926V11H40.4345V6.01847C40.4345 5.50142 40.2936 5.12689 40.0119 4.89489C39.7302 4.66288 39.3938 4.54688 39.0027 4.54688C38.5188 4.54688 38.1426 4.69602 37.8741 4.99432C37.6056 5.2893 37.4714 5.6688 37.4714 6.13281V11H35.9899V5.92401C35.9899 5.50971 35.8606 5.17661 35.6021 4.92472C35.3436 4.67282 35.0072 4.54688 34.5929 4.54688C34.3111 4.54688 34.051 4.62145 33.8123 4.7706C33.577 4.91643 33.3864 5.12026 33.2406 5.3821C33.0981 5.64394 33.0268 5.94721 33.0268 6.2919V11H31.5403ZM43.9134 11V3.36364H45.3999V11H43.9134ZM44.6641 2.18537C44.4055 2.18537 44.1835 2.09919 43.9979 1.92685C43.8156 1.75118 43.7244 1.54238 43.7244 1.30043C43.7244 1.05516 43.8156 0.846354 43.9979 0.674005C44.1835 0.498342 44.4055 0.410511 44.6641 0.410511C44.9226 0.410511 45.143 0.498342 45.3253 0.674005C45.5109 0.846354 45.6037 1.05516 45.6037 1.30043C45.6037 1.54238 45.5109 1.75118 45.3253 1.92685C45.143 2.09919 44.9226 2.18537 44.6641 2.18537ZM47.2406 11V9.98082L51.377 4.72585V4.65625H47.3748V3.36364H53.2314V4.44744L49.2541 9.63778V9.70739H53.3706V11H47.2406ZM58.1967 11.1541C57.4444 11.1541 56.7964 10.9934 56.2528 10.6719C55.7126 10.3471 55.295 9.89134 55 9.30469C54.7083 8.71473 54.5625 8.02367 54.5625 7.23153C54.5625 6.44934 54.7083 5.75994 55 5.16335C55.295 4.56676 55.706 4.10109 56.233 3.76633C56.7633 3.43158 57.383 3.2642 58.0923 3.2642C58.5232 3.2642 58.9408 3.33546 59.3452 3.47798C59.7495 3.6205 60.1125 3.84422 60.4339 4.14915C60.7554 4.45407 61.009 4.85014 61.1946 5.33736C61.3802 5.82126 61.473 6.40956 61.473 7.10227V7.62926H55.4027V6.51562H60.0163C60.0163 6.12453 59.9368 5.77817 59.7777 5.47656C59.6186 5.17164 59.3949 4.93134 59.1065 4.75568C58.8215 4.58002 58.4867 4.49219 58.1023 4.49219C57.6847 4.49219 57.3201 4.59493 57.0085 4.80043C56.7003 5.0026 56.4616 5.26776 56.2926 5.59588C56.1269 5.92069 56.044 6.27367 56.044 6.65483V7.52486C56.044 8.03527 56.1335 8.46946 56.3125 8.82741C56.4948 9.18537 56.7483 9.45881 57.0732 9.64773C57.398 9.83333 57.7775 9.92614 58.2116 9.92614C58.4934 9.92614 58.7502 9.88636 58.9822 9.80682C59.2143 9.72396 59.4148 9.60133 59.5838 9.43892C59.7528 9.27652 59.8821 9.07599 59.9716 8.83736L61.3786 9.09091C61.2659 9.50521 61.0637 9.86813 60.772 10.1797C60.4837 10.4879 60.1207 10.7282 59.6832 10.9006C59.2491 11.0696 58.7536 11.1541 58.1967 11.1541ZM67.6216 6.05327V7.34091H63.1074V6.05327H67.6216ZM73.1277 11.169C72.3422 11.1657 71.671 10.9586 71.1142 10.5476C70.5574 10.1366 70.1315 9.53835 69.8365 8.75284C69.5415 7.96733 69.394 7.02107 69.394 5.91406C69.394 4.81037 69.5415 3.86742 69.8365 3.08523C70.1348 2.30303 70.5623 1.70644 71.1191 1.29545C71.6793 0.884469 72.3488 0.678977 73.1277 0.678977C73.9065 0.678977 74.5744 0.886126 75.1312 1.30043C75.688 1.71141 76.1139 2.308 76.4089 3.0902C76.7072 3.86908 76.8564 4.81037 76.8564 5.91406C76.8564 7.02438 76.7089 7.9723 76.4139 8.75781C76.1189 9.54001 75.693 10.1383 75.1362 10.5526C74.5794 10.9635 73.9099 11.169 73.1277 11.169ZM73.1277 9.84162C73.8171 9.84162 74.3556 9.50521 74.7434 8.83239C75.1345 8.15956 75.3301 7.18679 75.3301 5.91406C75.3301 5.06889 75.2406 4.35464 75.0616 3.77131C74.8859 3.18466 74.6324 2.74053 74.301 2.43892C73.9728 2.134 73.5817 1.98153 73.1277 1.98153C72.4416 1.98153 71.903 2.3196 71.5119 2.99574C71.1208 3.67187 70.9236 4.64465 70.9203 5.91406C70.9203 6.76255 71.0081 7.48011 71.1838 8.06676C71.3627 8.65009 71.6163 9.09257 71.9444 9.39418C72.2725 9.69247 72.667 9.84162 73.1277 9.84162ZM82.483 0.818182V11H80.9418V2.35938H80.8821L78.446 3.95028V2.47869L80.9865 0.818182H82.483Z" fill="black"/>
</svg>
