<svg viewBox="0 0 81 15" fill="none" stroke-width="2" stroke="currentColor" aria-hidden="true">
  <path d="M3.22159 11.169C2.73769 11.169 2.30019 11.0795 1.90909 10.9006C1.51799 10.7183 1.2081 10.4548 0.979403 10.1101C0.754025 9.76539 0.641335 9.3428 0.641335 8.84233C0.641335 8.41146 0.724195 8.05682 0.889915 7.77841C1.05563 7.5 1.27936 7.27959 1.56108 7.11719C1.8428 6.95478 2.15767 6.83215 2.50568 6.74929C2.85369 6.66643 3.20833 6.60346 3.5696 6.56037C4.02699 6.50734 4.3982 6.46425 4.68324 6.43111C4.96828 6.39465 5.17543 6.33665 5.30469 6.2571C5.43395 6.17756 5.49858 6.0483 5.49858 5.86932V5.83452C5.49858 5.40033 5.37595 5.06392 5.13068 4.82528C4.88873 4.58665 4.52746 4.46733 4.04688 4.46733C3.5464 4.46733 3.15199 4.57836 2.86364 4.80043C2.5786 5.01918 2.38139 5.26278 2.27202 5.53125L0.875 5.21307C1.04072 4.74905 1.28267 4.37453 1.60085 4.08949C1.92235 3.80114 2.2919 3.59233 2.70952 3.46307C3.12713 3.33049 3.56629 3.2642 4.02699 3.2642C4.33191 3.2642 4.65507 3.30066 4.99645 3.37358C5.34115 3.44318 5.66264 3.57244 5.96094 3.76136C6.26255 3.95028 6.50947 4.22041 6.7017 4.57173C6.89394 4.91974 6.99006 5.37216 6.99006 5.92898V11H5.53835V9.95597H5.47869C5.38258 10.1482 5.2384 10.3371 5.04616 10.5227C4.85393 10.7083 4.60701 10.8625 4.3054 10.9851C4.00379 11.1077 3.64252 11.169 3.22159 11.169ZM3.54474 9.97585C3.95573 9.97585 4.30706 9.89465 4.59872 9.73224C4.8937 9.56984 5.11742 9.35772 5.26989 9.09588C5.42566 8.83073 5.50355 8.54735 5.50355 8.24574V7.26136C5.45052 7.31439 5.34777 7.36411 5.19531 7.41051C5.04616 7.4536 4.87547 7.49171 4.68324 7.52486C4.491 7.55469 4.30374 7.58286 4.12145 7.60938C3.93916 7.63258 3.7867 7.65246 3.66406 7.66903C3.37571 7.70549 3.11222 7.76681 2.87358 7.85298C2.63826 7.93916 2.44934 8.06345 2.30682 8.22585C2.16761 8.38494 2.09801 8.59706 2.09801 8.86222C2.09801 9.23011 2.2339 9.50852 2.50568 9.69744C2.77746 9.88305 3.12382 9.97585 3.54474 9.97585ZM10.4565 0.818182V11H8.96999V0.818182H10.4565ZM12.4563 11V3.36364H13.9428V11H12.4563ZM13.207 2.18537C12.9485 2.18537 12.7264 2.09919 12.5408 1.92685C12.3585 1.75118 12.2674 1.54238 12.2674 1.30043C12.2674 1.05516 12.3585 0.846354 12.5408 0.674005C12.7264 0.498342 12.9485 0.410511 13.207 0.410511C13.4656 0.410511 13.686 0.498342 13.8683 0.674005C14.0539 0.846354 14.1467 1.05516 14.1467 1.30043C14.1467 1.54238 14.0539 1.75118 13.8683 1.92685C13.686 2.09919 13.4656 2.18537 13.207 2.18537ZM19.1444 14.0227C18.5378 14.0227 18.0158 13.9432 17.5783 13.7841C17.1441 13.625 16.7895 13.4145 16.5144 13.1527C16.2393 12.8909 16.0338 12.6042 15.8979 12.2926L17.1756 11.7656C17.2651 11.9115 17.3844 12.0656 17.5336 12.228C17.686 12.3937 17.8915 12.5346 18.15 12.6506C18.4119 12.7666 18.7483 12.8246 19.1593 12.8246C19.7227 12.8246 20.1884 12.687 20.5563 12.4119C20.9242 12.1402 21.1081 11.706 21.1081 11.1094V9.60795H21.0137C20.9242 9.77036 20.7949 9.95099 20.6259 10.1499C20.4602 10.3487 20.2315 10.5211 19.9398 10.6669C19.6481 10.8127 19.2686 10.8857 18.8013 10.8857C18.1981 10.8857 17.6545 10.7448 17.1706 10.4631C16.69 10.178 16.3089 9.75876 16.0272 9.20526C15.7488 8.64844 15.6096 7.96401 15.6096 7.15199C15.6096 6.33996 15.7471 5.64394 16.0222 5.06392C16.3006 4.4839 16.6818 4.03977 17.1657 3.73153C17.6496 3.41998 18.1981 3.2642 18.8113 3.2642C19.2852 3.2642 19.668 3.34375 19.9597 3.50284C20.2514 3.65862 20.4784 3.84091 20.6408 4.04972C20.8065 4.25852 20.9341 4.44247 21.0236 4.60156H21.133V3.36364H22.5897V11.169C22.5897 11.8253 22.4372 12.3639 22.1323 12.7848C21.8274 13.2057 21.4147 13.5173 20.8944 13.7195C20.3773 13.9216 19.794 14.0227 19.1444 14.0227ZM19.1294 9.6527C19.557 9.6527 19.9183 9.55327 20.2132 9.3544C20.5115 9.15223 20.7369 8.86387 20.8894 8.48935C21.0452 8.11151 21.123 7.65909 21.123 7.1321C21.123 6.61837 21.0468 6.16596 20.8944 5.77486C20.7419 5.38376 20.5182 5.07884 20.2232 4.86009C19.9282 4.63802 19.5636 4.52699 19.1294 4.52699C18.682 4.52699 18.3091 4.64299 18.0108 4.875C17.7125 5.10369 17.4872 5.41525 17.3347 5.80966C17.1855 6.20407 17.111 6.64489 17.111 7.1321C17.111 7.63258 17.1872 8.07173 17.3397 8.44957C17.4921 8.82741 17.7175 9.1224 18.0158 9.33452C18.3174 9.54664 18.6886 9.6527 19.1294 9.6527ZM26.0698 6.46591V11H24.5833V3.36364H26.0101V4.60653H26.1046C26.2802 4.20218 26.5553 3.87737 26.9299 3.6321C27.3077 3.38684 27.7833 3.2642 28.3567 3.2642C28.8771 3.2642 29.3328 3.37358 29.7239 3.59233C30.115 3.80777 30.4183 4.12926 30.6337 4.55682C30.8491 4.98437 30.9569 5.51302 30.9569 6.14276V11H29.4703V6.32173C29.4703 5.76823 29.3262 5.3357 29.0378 5.02415C28.7495 4.70928 28.3534 4.55185 27.8496 4.55185C27.5049 4.55185 27.1983 4.62642 26.9299 4.77557C26.6647 4.92472 26.4542 5.14347 26.2985 5.43182C26.146 5.71686 26.0698 6.06155 26.0698 6.46591ZM37.4498 6.05327V7.34091H32.9355V6.05327H37.4498ZM40.9174 0.818182V11H39.4309V0.818182H40.9174ZM46.2085 11.1541C45.4561 11.1541 44.8081 10.9934 44.2646 10.6719C43.7243 10.3471 43.3067 9.89134 43.0117 9.30469C42.7201 8.71473 42.5742 8.02367 42.5742 7.23153C42.5742 6.44934 42.7201 5.75994 43.0117 5.16335C43.3067 4.56676 43.7177 4.10109 44.2447 3.76633C44.775 3.43158 45.3948 3.2642 46.104 3.2642C46.5349 3.2642 46.9525 3.33546 47.3569 3.47798C47.7612 3.6205 48.1242 3.84422 48.4457 4.14915C48.7672 4.45407 49.0207 4.85014 49.2063 5.33736C49.3919 5.82126 49.4847 6.40956 49.4847 7.10227V7.62926H43.4144V6.51562H48.0281C48.0281 6.12453 47.9485 5.77817 47.7894 5.47656C47.6303 5.17164 47.4066 4.93134 47.1183 4.75568C46.8332 4.58002 46.4985 4.49219 46.114 4.49219C45.6964 4.49219 45.3318 4.59493 45.0202 4.80043C44.712 5.0026 44.4734 5.26776 44.3043 5.59588C44.1386 5.92069 44.0558 6.27367 44.0558 6.65483V7.52486C44.0558 8.03527 44.1452 8.46946 44.3242 8.82741C44.5065 9.18537 44.7601 9.45881 45.0849 9.64773C45.4097 9.83333 45.7892 9.92614 46.2234 9.92614C46.5051 9.92614 46.762 9.88636 46.994 9.80682C47.226 9.72396 47.4265 9.60133 47.5955 9.43892C47.7646 9.27652 47.8938 9.07599 47.9833 8.83736L49.3903 9.09091C49.2776 9.50521 49.0754 9.86813 48.7837 10.1797C48.4954 10.4879 48.1325 10.7282 47.695 10.9006C47.2608 11.0696 46.7653 11.1541 46.2085 11.1541ZM54.7683 3.36364V4.55682H50.4529V3.36364H54.7683ZM51.6362 11V2.47869C51.6362 2.00142 51.7406 1.60535 51.9494 1.29048C52.1582 0.972301 52.435 0.735322 52.7797 0.579545C53.1243 0.420454 53.4989 0.340908 53.9032 0.340908C54.2015 0.340908 54.4567 0.365767 54.6689 0.415483C54.881 0.461884 55.0384 0.504971 55.1412 0.544744L54.7931 1.74787C54.7235 1.72798 54.6341 1.70478 54.5247 1.67827C54.4153 1.64844 54.2827 1.63352 54.127 1.63352C53.7657 1.63352 53.5072 1.72301 53.3514 1.90199C53.1989 2.08097 53.1227 2.33949 53.1227 2.67756V11H51.6362ZM59.8667 3.36364V4.55682H55.6955V3.36364H59.8667ZM56.8141 1.53409H58.3006V8.75781C58.3006 9.04616 58.3437 9.26326 58.4299 9.40909C58.516 9.55161 58.6271 9.64938 58.763 9.70241C58.9022 9.75213 59.053 9.77699 59.2154 9.77699C59.3347 9.77699 59.4391 9.7687 59.5286 9.75213C59.6181 9.73556 59.6877 9.7223 59.7374 9.71236L60.0059 10.9403C59.9197 10.9735 59.7971 11.0066 59.638 11.0398C59.4789 11.0762 59.28 11.0961 59.0414 11.0994C58.6503 11.1061 58.2857 11.0365 57.9476 10.8906C57.6096 10.7448 57.3361 10.5194 57.1273 10.2145C56.9185 9.90956 56.8141 9.52675 56.8141 9.06605V1.53409ZM65.7505 6.05327V7.34091H61.2363V6.05327H65.7505ZM71.2566 11.169C70.4711 11.1657 69.7999 10.9586 69.2431 10.5476C68.6863 10.1366 68.2604 9.53835 67.9654 8.75284C67.6704 7.96733 67.5229 7.02107 67.5229 5.91406C67.5229 4.81037 67.6704 3.86742 67.9654 3.08523C68.2637 2.30303 68.6912 1.70644 69.248 1.29545C69.8082 0.884469 70.4777 0.678977 71.2566 0.678977C72.0355 0.678977 72.7033 0.886126 73.2601 1.30043C73.8169 1.71141 74.2428 2.308 74.5378 3.0902C74.8361 3.86908 74.9853 4.81037 74.9853 5.91406C74.9853 7.02438 74.8378 7.9723 74.5428 8.75781C74.2478 9.54001 73.8219 10.1383 73.2651 10.5526C72.7083 10.9635 72.0388 11.169 71.2566 11.169ZM71.2566 9.84162C71.946 9.84162 72.4846 9.50521 72.8723 8.83239C73.2634 8.15956 73.459 7.18679 73.459 5.91406C73.459 5.06889 73.3695 4.35464 73.1905 3.77131C73.0149 3.18466 72.7613 2.74053 72.4299 2.43892C72.1017 2.134 71.7106 1.98153 71.2566 1.98153C70.5705 1.98153 70.0319 2.3196 69.6408 2.99574C69.2497 3.67187 69.0525 4.64465 69.0492 5.91406C69.0492 6.76255 69.137 7.48011 69.3127 8.06676C69.4917 8.65009 69.7452 9.09257 70.0733 9.39418C70.4015 9.69247 70.7959 9.84162 71.2566 9.84162ZM80.6119 0.818182V11H79.0707V2.35938H79.011L76.5749 3.95028V2.47869L79.1154 0.818182H80.6119Z" fill="black"/>
</svg>
