<svg viewBox="0 0 102 14" fill="none" stroke-width="2" stroke="currentColor" aria-hidden="true">
  <path d="M1.4858 0.818182V11H-0.000710189V0.818182H1.4858ZM5.70792 11.169C5.22402 11.169 4.78652 11.0795 4.39542 10.9006C4.00432 10.7183 3.69442 10.4548 3.46573 10.1101C3.24035 9.76539 3.12766 9.3428 3.12766 8.84233C3.12766 8.41146 3.21052 8.05682 3.37624 7.77841C3.54196 7.5 3.76568 7.27959 4.04741 7.11719C4.32913 6.95478 4.644 6.83215 4.99201 6.74929C5.34002 6.66643 5.69466 6.60346 6.05593 6.56037C6.51332 6.50734 6.88453 6.46425 7.16957 6.43111C7.4546 6.39465 7.66175 6.33665 7.79102 6.2571C7.92028 6.17756 7.98491 6.0483 7.98491 5.86932V5.83452C7.98491 5.40033 7.86228 5.06392 7.61701 4.82528C7.37506 4.58665 7.01379 4.46733 6.5332 4.46733C6.03273 4.46733 5.63832 4.57836 5.34996 4.80043C5.06493 5.01918 4.86772 5.26278 4.75835 5.53125L3.36133 5.21307C3.52705 4.74905 3.769 4.37453 4.08718 4.08949C4.40868 3.80114 4.77823 3.59233 5.19585 3.46307C5.61346 3.33049 6.05262 3.2642 6.51332 3.2642C6.81824 3.2642 7.14139 3.30066 7.48278 3.37358C7.82747 3.44318 8.14897 3.57244 8.44727 3.76136C8.74888 3.95028 8.9958 4.22041 9.18803 4.57173C9.38027 4.91974 9.47639 5.37216 9.47639 5.92898V11H8.02468V9.95597H7.96502C7.8689 10.1482 7.72473 10.3371 7.53249 10.5227C7.34026 10.7083 7.09334 10.8625 6.79173 10.9851C6.49012 11.1077 6.12885 11.169 5.70792 11.169ZM6.03107 9.97585C6.44206 9.97585 6.79338 9.89465 7.08505 9.73224C7.38003 9.56984 7.60375 9.35772 7.75621 9.09588C7.91199 8.83073 7.98988 8.54735 7.98988 8.24574V7.26136C7.93685 7.31439 7.8341 7.36411 7.68164 7.41051C7.53249 7.4536 7.3618 7.49171 7.16957 7.52486C6.97733 7.55469 6.79007 7.58286 6.60778 7.60938C6.42549 7.63258 6.27302 7.65246 6.15039 7.66903C5.86204 7.70549 5.59854 7.76681 5.35991 7.85298C5.12459 7.93916 4.93567 8.06345 4.79315 8.22585C4.65394 8.38494 4.58434 8.59706 4.58434 8.86222C4.58434 9.23011 4.72023 9.50852 4.99201 9.69744C5.26379 9.88305 5.61014 9.97585 6.03107 9.97585ZM12.1225 13.8636C11.9004 13.8636 11.6983 13.8454 11.516 13.8089C11.3337 13.7758 11.1978 13.7393 11.1083 13.6996L11.4663 12.4815C11.738 12.5545 11.98 12.5859 12.1921 12.576C12.4042 12.5661 12.5915 12.4865 12.7539 12.3374C12.9196 12.1882 13.0655 11.9446 13.1914 11.6065L13.3754 11.0994L10.5813 3.36364H12.1722L14.1062 9.28977H14.1857L16.1197 3.36364H17.7156L14.5685 12.0192C14.4227 12.4169 14.2371 12.7533 14.0117 13.0284C13.7863 13.3068 13.5179 13.5156 13.2063 13.6548C12.8948 13.794 12.5335 13.8636 12.1225 13.8636ZM22.144 11.1541C21.3916 11.1541 20.7437 10.9934 20.2001 10.6719C19.6599 10.3471 19.2422 9.89134 18.9473 9.30469C18.6556 8.71473 18.5098 8.02367 18.5098 7.23153C18.5098 6.44934 18.6556 5.75994 18.9473 5.16335C19.2422 4.56676 19.6532 4.10109 20.1802 3.76633C20.7105 3.43158 21.3303 3.2642 22.0396 3.2642C22.4705 3.2642 22.8881 3.33546 23.2924 3.47798C23.6968 3.6205 24.0597 3.84422 24.3812 4.14915C24.7027 4.45407 24.9563 4.85014 25.1419 5.33736C25.3275 5.82126 25.4203 6.40956 25.4203 7.10227V7.62926H19.35V6.51562H23.9636C23.9636 6.12453 23.8841 5.77817 23.725 5.47656C23.5659 5.17164 23.3422 4.93134 23.0538 4.75568C22.7688 4.58002 22.434 4.49219 22.0495 4.49219C21.6319 4.49219 21.2673 4.59493 20.9558 4.80043C20.6475 5.0026 20.4089 5.26776 20.2399 5.59588C20.0742 5.92069 19.9913 6.27367 19.9913 6.65483V7.52486C19.9913 8.03527 20.0808 8.46946 20.2598 8.82741C20.4421 9.18537 20.6956 9.45881 21.0204 9.64773C21.3452 9.83333 21.7247 9.92614 22.1589 9.92614C22.4406 9.92614 22.6975 9.88636 22.9295 9.80682C23.1615 9.72396 23.362 9.60133 23.5311 9.43892C23.7001 9.27652 23.8294 9.07599 23.9189 8.83736L25.3258 9.09091C25.2131 9.50521 25.0109 9.86813 24.7193 10.1797C24.4309 10.4879 24.068 10.7282 23.6305 10.9006C23.1963 11.0696 22.7008 11.1541 22.144 11.1541ZM27.0696 11V3.36364H28.5064V4.5767H28.5859C28.7251 4.16572 28.9704 3.84257 29.3217 3.60724C29.6764 3.36861 30.0774 3.24929 30.5249 3.24929C30.6177 3.24929 30.727 3.2526 30.853 3.25923C30.9822 3.26586 31.0833 3.27415 31.1562 3.28409V4.70597C31.0966 4.68939 30.9905 4.67116 30.8381 4.65128C30.6856 4.62808 30.5331 4.61648 30.3807 4.61648C30.0294 4.61648 29.7161 4.69105 29.4411 4.8402C29.1693 4.98603 28.9538 5.18987 28.7947 5.4517C28.6357 5.71023 28.5561 6.00521 28.5561 6.33665V11H27.0696ZM38.165 5.22798L36.8176 5.46662C36.7613 5.29427 36.6718 5.13021 36.5492 4.97443C36.4299 4.81865 36.2675 4.69105 36.062 4.59162C35.8565 4.49219 35.5996 4.44247 35.2914 4.44247C34.8704 4.44247 34.5191 4.53693 34.2374 4.72585C33.9557 4.91146 33.8148 5.15175 33.8148 5.44673C33.8148 5.70194 33.9093 5.90743 34.0982 6.06321C34.2871 6.21899 34.592 6.34659 35.013 6.44602L36.226 6.72443C36.9287 6.88684 37.4524 7.13707 37.7971 7.47514C38.1417 7.81321 38.3141 8.25237 38.3141 8.79261C38.3141 9.25 38.1815 9.65767 37.9164 10.0156C37.6545 10.3703 37.2883 10.6487 36.8176 10.8509C36.3503 11.053 35.8084 11.1541 35.1919 11.1541C34.3368 11.1541 33.6391 10.9718 33.0989 10.6072C32.5587 10.2393 32.2272 9.71733 32.1046 9.04119L33.5414 8.82244C33.6309 9.19697 33.8148 9.48035 34.0932 9.67259C34.3716 9.86151 34.7346 9.95597 35.182 9.95597C35.6692 9.95597 36.0587 9.85488 36.3503 9.6527C36.642 9.44721 36.7878 9.19697 36.7878 8.90199C36.7878 8.66335 36.6983 8.46283 36.5194 8.30043C36.3437 8.13802 36.0736 8.01539 35.709 7.93253L34.4164 7.64915C33.7038 7.48674 33.1768 7.22822 32.8354 6.87358C32.4973 6.51894 32.3283 6.06984 32.3283 5.52628C32.3283 5.07552 32.4542 4.68111 32.7061 4.34304C32.958 4.00497 33.306 3.74148 33.7502 3.55256C34.1943 3.36032 34.7031 3.2642 35.2765 3.2642C36.1017 3.2642 36.7514 3.44318 37.2253 3.80114C37.6993 4.15578 38.0125 4.63139 38.165 5.22798ZM44.4478 6.05327V7.34091H39.9336V6.05327H44.4478ZM49.9936 3.36364V4.55682H45.8224V3.36364H49.9936ZM46.9411 1.53409H48.4276V8.75781C48.4276 9.04616 48.4706 9.26326 48.5568 9.40909C48.643 9.55161 48.754 9.64938 48.8899 9.70241C49.0291 9.75213 49.1799 9.77699 49.3423 9.77699C49.4616 9.77699 49.5661 9.7687 49.6555 9.75213C49.745 9.73556 49.8146 9.7223 49.8643 9.71236L50.1328 10.9403C50.0466 10.9735 49.924 11.0066 49.7649 11.0398C49.6058 11.0762 49.407 11.0961 49.1683 11.0994C48.7772 11.1061 48.4126 11.0365 48.0746 10.8906C47.7365 10.7448 47.4631 10.5194 47.2543 10.2145C47.0455 9.90956 46.9411 9.52675 46.9411 9.06605V1.53409ZM53.2885 6.46591V11H51.802V0.818182H53.2686V4.60653H53.3631C53.5421 4.19555 53.8155 3.86908 54.1834 3.62713C54.5513 3.38518 55.0319 3.2642 55.6252 3.2642C56.1489 3.2642 56.6062 3.37192 56.9973 3.58736C57.3917 3.80279 57.6967 4.12429 57.9121 4.55185C58.1309 4.97609 58.2402 5.50639 58.2402 6.14276V11H56.7537V6.32173C56.7537 5.7616 56.6096 5.32741 56.3212 5.01918C56.0328 4.70762 55.6318 4.55185 55.1181 4.55185C54.7667 4.55185 54.4519 4.62642 54.1735 4.77557C53.8984 4.92472 53.6813 5.14347 53.5222 5.43182C53.3664 5.71686 53.2885 6.06155 53.2885 6.46591ZM60.2239 11V3.36364H61.6607V4.5767H61.7402C61.8794 4.16572 62.1247 3.84257 62.476 3.60724C62.8307 3.36861 63.2317 3.24929 63.6792 3.24929C63.772 3.24929 63.8813 3.2526 64.0073 3.25923C64.1365 3.26586 64.2376 3.27415 64.3105 3.28409V4.70597C64.2509 4.68939 64.1448 4.67116 63.9924 4.65128C63.8399 4.62808 63.6874 4.61648 63.535 4.61648C63.1837 4.61648 62.8704 4.69105 62.5953 4.8402C62.3236 4.98603 62.1081 5.18987 61.949 5.4517C61.79 5.71023 61.7104 6.00521 61.7104 6.33665V11H60.2239ZM68.6147 11.1541C67.8623 11.1541 67.2144 10.9934 66.6708 10.6719C66.1306 10.3471 65.7129 9.89134 65.418 9.30469C65.1263 8.71473 64.9805 8.02367 64.9805 7.23153C64.9805 6.44934 65.1263 5.75994 65.418 5.16335C65.7129 4.56676 66.1239 4.10109 66.6509 3.76633C67.1812 3.43158 67.801 3.2642 68.5103 3.2642C68.9412 3.2642 69.3588 3.33546 69.7631 3.47798C70.1675 3.6205 70.5304 3.84422 70.8519 4.14915C71.1734 4.45407 71.427 4.85014 71.6126 5.33736C71.7982 5.82126 71.891 6.40956 71.891 7.10227V7.62926H65.8207V6.51562H70.4343C70.4343 6.12453 70.3548 5.77817 70.1957 5.47656C70.0366 5.17164 69.8129 4.93134 69.5245 4.75568C69.2395 4.58002 68.9047 4.49219 68.5202 4.49219C68.1026 4.49219 67.738 4.59493 67.4265 4.80043C67.1183 5.0026 66.8796 5.26776 66.7106 5.59588C66.5449 5.92069 66.462 6.27367 66.462 6.65483V7.52486C66.462 8.03527 66.5515 8.46946 66.7305 8.82741C66.9128 9.18537 67.1663 9.45881 67.4911 9.64773C67.8159 9.83333 68.1954 9.92614 68.6296 9.92614C68.9113 9.92614 69.1682 9.88636 69.4002 9.80682C69.6322 9.72396 69.8327 9.60133 70.0018 9.43892C70.1708 9.27652 70.3001 9.07599 70.3896 8.83736L71.7965 9.09091C71.6838 9.50521 71.4817 9.86813 71.19 10.1797C70.9016 10.4879 70.5387 10.7282 70.1012 10.9006C69.667 11.0696 69.1715 11.1541 68.6147 11.1541ZM76.8315 11.1541C76.0791 11.1541 75.4312 10.9934 74.8876 10.6719C74.3474 10.3471 73.9297 9.89134 73.6348 9.30469C73.3431 8.71473 73.1973 8.02367 73.1973 7.23153C73.1973 6.44934 73.3431 5.75994 73.6348 5.16335C73.9297 4.56676 74.3407 4.10109 74.8677 3.76633C75.398 3.43158 76.0178 3.2642 76.7271 3.2642C77.158 3.2642 77.5756 3.33546 77.9799 3.47798C78.3843 3.6205 78.7472 3.84422 79.0687 4.14915C79.3902 4.45407 79.6438 4.85014 79.8294 5.33736C80.015 5.82126 80.1078 6.40956 80.1078 7.10227V7.62926H74.0375V6.51562H78.6511C78.6511 6.12453 78.5716 5.77817 78.4125 5.47656C78.2534 5.17164 78.0297 4.93134 77.7413 4.75568C77.4563 4.58002 77.1215 4.49219 76.737 4.49219C76.3194 4.49219 75.9548 4.59493 75.6433 4.80043C75.335 5.0026 75.0964 5.26776 74.9274 5.59588C74.7617 5.92069 74.6788 6.27367 74.6788 6.65483V7.52486C74.6788 8.03527 74.7683 8.46946 74.9473 8.82741C75.1296 9.18537 75.3831 9.45881 75.7079 9.64773C76.0327 9.83333 76.4122 9.92614 76.8464 9.92614C77.1281 9.92614 77.385 9.88636 77.617 9.80682C77.849 9.72396 78.0495 9.60133 78.2186 9.43892C78.3876 9.27652 78.5169 9.07599 78.6064 8.83736L80.0133 9.09091C79.9006 9.50521 79.6984 9.86813 79.4068 10.1797C79.1184 10.4879 78.7555 10.7282 78.318 10.9006C77.8838 11.0696 77.3883 11.1541 76.8315 11.1541ZM86.2564 6.05327V7.34091H81.7422V6.05327H86.2564ZM91.7624 11.169C90.9769 11.1657 90.3058 10.9586 89.7489 10.5476C89.1921 10.1366 88.7662 9.53835 88.4712 8.75284C88.1763 7.96733 88.0288 7.02107 88.0288 5.91406C88.0288 4.81037 88.1763 3.86742 88.4712 3.08523C88.7695 2.30303 89.1971 1.70644 89.7539 1.29545C90.314 0.884469 90.9835 0.678977 91.7624 0.678977C92.5413 0.678977 93.2092 0.886126 93.766 1.30043C94.3228 1.71141 94.7487 2.308 95.0437 3.0902C95.342 3.86908 95.4911 4.81037 95.4911 5.91406C95.4911 7.02438 95.3436 7.9723 95.0487 8.75781C94.7537 9.54001 94.3278 10.1383 93.771 10.5526C93.2141 10.9635 92.5446 11.169 91.7624 11.169ZM91.7624 9.84162C92.4518 9.84162 92.9904 9.50521 93.3782 8.83239C93.7693 8.15956 93.9648 7.18679 93.9648 5.91406C93.9648 5.06889 93.8754 4.35464 93.6964 3.77131C93.5207 3.18466 93.2672 2.74053 92.9357 2.43892C92.6076 2.134 92.2165 1.98153 91.7624 1.98153C91.0763 1.98153 90.5378 2.3196 90.1467 2.99574C89.7556 3.67187 89.5584 4.64465 89.555 5.91406C89.555 6.76255 89.6429 7.48011 89.8185 8.06676C89.9975 8.65009 90.2511 9.09257 90.5792 9.39418C90.9073 9.69247 91.3017 9.84162 91.7624 9.84162ZM101.118 0.818182V11H99.5765V2.35938H99.5169L97.0808 3.95028V2.47869L99.6213 0.818182H101.118Z" fill="black"/>
</svg>
