<svg viewBox="0 0 82 12" fill="none" stroke-width="2" stroke="currentColor" aria-hidden="true">
  <path d="M-0.000710189 11V3.36364H1.42614V4.60653H1.5206C1.67969 4.18561 1.93987 3.85748 2.30114 3.62216C2.66241 3.38352 3.09493 3.2642 3.59872 3.2642C4.10914 3.2642 4.5367 3.38352 4.88139 3.62216C5.2294 3.8608 5.48627 4.18892 5.65199 4.60653H5.73153C5.91383 4.19886 6.20384 3.87405 6.60156 3.6321C6.99929 3.38684 7.47325 3.2642 8.02344 3.2642C8.71615 3.2642 9.28125 3.4813 9.71875 3.91548C10.1596 4.34967 10.38 5.00426 10.38 5.87926V11H8.89347V6.01847C8.89347 5.50142 8.7526 5.12689 8.47088 4.89489C8.18916 4.66288 7.85275 4.54688 7.46165 4.54688C6.97775 4.54688 6.60156 4.69602 6.3331 4.99432C6.06463 5.2893 5.9304 5.6688 5.9304 6.13281V11H4.44886V5.92401C4.44886 5.50971 4.3196 5.17661 4.06108 4.92472C3.80256 4.67282 3.46615 4.54688 3.05185 4.54688C2.77012 4.54688 2.50994 4.62145 2.27131 4.7706C2.03599 4.91643 1.84541 5.12026 1.69957 5.3821C1.55706 5.64394 1.4858 5.94721 1.4858 6.2919V11H-0.000710189ZM12.3723 11V3.36364H13.8588V11H12.3723ZM13.123 2.18537C12.8645 2.18537 12.6425 2.09919 12.4569 1.92685C12.2746 1.75118 12.1834 1.54238 12.1834 1.30043C12.1834 1.05516 12.2746 0.846354 12.4569 0.674005C12.6425 0.498342 12.8645 0.410511 13.123 0.410511C13.3816 0.410511 13.602 0.498342 13.7843 0.674005C13.9699 0.846354 14.0627 1.05516 14.0627 1.30043C14.0627 1.54238 13.9699 1.75118 13.7843 1.92685C13.602 2.09919 13.3816 2.18537 13.123 2.18537ZM17.3452 6.46591V11H15.8587V3.36364H17.2855V4.60653H17.38C17.5556 4.20218 17.8307 3.87737 18.2053 3.6321C18.5831 3.38684 19.0587 3.2642 19.6321 3.2642C20.1525 3.2642 20.6082 3.37358 20.9993 3.59233C21.3904 3.80777 21.6937 4.12926 21.9091 4.55682C22.1245 4.98437 22.2322 5.51302 22.2322 6.14276V11H20.7457V6.32173C20.7457 5.76823 20.6016 5.3357 20.3132 5.02415C20.0249 4.70928 19.6288 4.55185 19.125 4.55185C18.7803 4.55185 18.4737 4.62642 18.2053 4.77557C17.9401 4.92472 17.7296 5.14347 17.5739 5.43182C17.4214 5.71686 17.3452 6.06155 17.3452 6.46591ZM24.2259 11V3.36364H25.7124V11H24.2259ZM24.9766 2.18537C24.718 2.18537 24.496 2.09919 24.3104 1.92685C24.1281 1.75118 24.0369 1.54238 24.0369 1.30043C24.0369 1.05516 24.1281 0.846354 24.3104 0.674005C24.496 0.498342 24.718 0.410511 24.9766 0.410511C25.2351 0.410511 25.4555 0.498342 25.6378 0.674005C25.8234 0.846354 25.9162 1.05516 25.9162 1.30043C25.9162 1.54238 25.8234 1.75118 25.6378 1.92685C25.4555 2.09919 25.2351 2.18537 24.9766 2.18537ZM27.7122 11V3.36364H29.139V4.60653H29.2335C29.3926 4.18561 29.6528 3.85748 30.014 3.62216C30.3753 3.38352 30.8078 3.2642 31.3116 3.2642C31.822 3.2642 32.2496 3.38352 32.5943 3.62216C32.9423 3.8608 33.1992 4.18892 33.3649 4.60653H33.4444C33.6267 4.19886 33.9167 3.87405 34.3145 3.6321C34.7122 3.38684 35.1861 3.2642 35.7363 3.2642C36.429 3.2642 36.9941 3.4813 37.4316 3.91548C37.8725 4.34967 38.0929 5.00426 38.0929 5.87926V11H36.6064V6.01847C36.6064 5.50142 36.4655 5.12689 36.1838 4.89489C35.902 4.66288 35.5656 4.54688 35.1745 4.54688C34.6906 4.54688 34.3145 4.69602 34.046 4.99432C33.7775 5.2893 33.6433 5.6688 33.6433 6.13281V11H32.1618V5.92401C32.1618 5.50971 32.0325 5.17661 31.774 4.92472C31.5154 4.67282 31.179 4.54688 30.7647 4.54688C30.483 4.54688 30.2228 4.62145 29.9842 4.7706C29.7489 4.91643 29.5583 5.12026 29.4125 5.3821C29.2699 5.64394 29.1987 5.94721 29.1987 6.2919V11H27.7122ZM40.0852 11V3.36364H41.5717V11H40.0852ZM40.8359 2.18537C40.5774 2.18537 40.3554 2.09919 40.1697 1.92685C39.9875 1.75118 39.8963 1.54238 39.8963 1.30043C39.8963 1.05516 39.9875 0.846354 40.1697 0.674005C40.3554 0.498342 40.5774 0.410511 40.8359 0.410511C41.0945 0.410511 41.3149 0.498342 41.4972 0.674005C41.6828 0.846354 41.7756 1.05516 41.7756 1.30043C41.7756 1.54238 41.6828 1.75118 41.4972 1.92685C41.3149 2.09919 41.0945 2.18537 40.8359 2.18537ZM43.4125 11V9.98082L47.5488 4.72585V4.65625H43.5467V3.36364H49.4032V4.44744L45.426 9.63778V9.70739H49.5424V11H43.4125ZM54.3686 11.1541C53.6162 11.1541 52.9683 10.9934 52.4247 10.6719C51.8845 10.3471 51.4669 9.89134 51.1719 9.30469C50.8802 8.71473 50.7344 8.02367 50.7344 7.23153C50.7344 6.44934 50.8802 5.75994 51.1719 5.16335C51.4669 4.56676 51.8778 4.10109 52.4048 3.76633C52.9351 3.43158 53.5549 3.2642 54.2642 3.2642C54.6951 3.2642 55.1127 3.33546 55.517 3.47798C55.9214 3.6205 56.2843 3.84422 56.6058 4.14915C56.9273 4.45407 57.1809 4.85014 57.3665 5.33736C57.5521 5.82126 57.6449 6.40956 57.6449 7.10227V7.62926H51.5746V6.51562H56.1882C56.1882 6.12453 56.1087 5.77817 55.9496 5.47656C55.7905 5.17164 55.5668 4.93134 55.2784 4.75568C54.9934 4.58002 54.6586 4.49219 54.2741 4.49219C53.8565 4.49219 53.492 4.59493 53.1804 4.80043C52.8722 5.0026 52.6335 5.26776 52.4645 5.59588C52.2988 5.92069 52.2159 6.27367 52.2159 6.65483V7.52486C52.2159 8.03527 52.3054 8.46946 52.4844 8.82741C52.6667 9.18537 52.9202 9.45881 53.245 9.64773C53.5698 9.83333 53.9493 9.92614 54.3835 9.92614C54.6652 9.92614 54.9221 9.88636 55.1541 9.80682C55.3861 9.72396 55.5866 9.60133 55.7557 9.43892C55.9247 9.27652 56.054 9.07599 56.1435 8.83736L57.5504 9.09091C57.4377 9.50521 57.2356 9.86813 56.9439 10.1797C56.6555 10.4879 56.2926 10.7282 55.8551 10.9006C55.4209 11.0696 54.9254 11.1541 54.3686 11.1541ZM63.7935 6.05327V7.34091H59.2793V6.05327H63.7935ZM69.2995 11.169C68.514 11.1657 67.8429 10.9586 67.286 10.5476C66.7292 10.1366 66.3033 9.53835 66.0083 8.75284C65.7134 7.96733 65.5659 7.02107 65.5659 5.91406C65.5659 4.81037 65.7134 3.86742 66.0083 3.08523C66.3066 2.30303 66.7342 1.70644 67.291 1.29545C67.8511 0.884469 68.5207 0.678977 69.2995 0.678977C70.0784 0.678977 70.7463 0.886126 71.3031 1.30043C71.8599 1.71141 72.2858 2.308 72.5808 3.0902C72.8791 3.86908 73.0282 4.81037 73.0282 5.91406C73.0282 7.02438 72.8807 7.9723 72.5858 8.75781C72.2908 9.54001 71.8649 10.1383 71.3081 10.5526C70.7512 10.9635 70.0817 11.169 69.2995 11.169ZM69.2995 9.84162C69.9889 9.84162 70.5275 9.50521 70.9153 8.83239C71.3064 8.15956 71.502 7.18679 71.502 5.91406C71.502 5.06889 71.4125 4.35464 71.2335 3.77131C71.0578 3.18466 70.8043 2.74053 70.4728 2.43892C70.1447 2.134 69.7536 1.98153 69.2995 1.98153C68.6135 1.98153 68.0749 2.3196 67.6838 2.99574C67.2927 3.67187 67.0955 4.64465 67.0922 5.91406C67.0922 6.76255 67.18 7.48011 67.3556 8.06676C67.5346 8.65009 67.7882 9.09257 68.1163 9.39418C68.4444 9.69247 68.8388 9.84162 69.2995 9.84162ZM74.7919 11V9.88636L78.2372 6.31676C78.6051 5.92898 78.9084 5.58925 79.147 5.29759C79.389 5.0026 79.5696 4.72254 79.6889 4.45739C79.8082 4.19223 79.8679 3.91051 79.8679 3.61222C79.8679 3.27415 79.7884 2.98248 79.6293 2.73722C79.4702 2.48864 79.2531 2.29806 78.978 2.16548C78.7029 2.02959 78.393 1.96165 78.0483 1.96165C77.6837 1.96165 77.3655 2.03622 77.0938 2.18537C76.822 2.33452 76.6132 2.54498 76.4673 2.81676C76.3215 3.08854 76.2486 3.40672 76.2486 3.77131H74.782C74.782 3.15151 74.9245 2.60961 75.2095 2.1456C75.4946 1.68158 75.8857 1.32197 76.3828 1.06676C76.88 0.808238 77.4451 0.678977 78.0781 0.678977C78.7178 0.678977 79.2813 0.806581 79.7685 1.06179C80.259 1.31368 80.6418 1.65838 80.9169 2.09588C81.192 2.53007 81.3295 3.0206 81.3295 3.56747C81.3295 3.94531 81.2583 4.31487 81.1158 4.67614C80.9766 5.0374 80.733 5.4401 80.3849 5.88423C80.0369 6.32505 79.553 6.86032 78.9332 7.49006L76.9098 9.60795V9.68253H81.4936V11H74.7919Z" fill="black"/>
</svg>
