<svg viewBox="0 0 178 15" fill="none" stroke-width="2" stroke="currentColor" aria-hidden="true">
  <path d="M3.22159 11.169C2.73769 11.169 2.30019 11.0795 1.90909 10.9006C1.51799 10.7183 1.2081 10.4548 0.979403 10.1101C0.754025 9.76539 0.641335 9.3428 0.641335 8.84233C0.641335 8.41146 0.724195 8.05682 0.889915 7.77841C1.05563 7.5 1.27936 7.27959 1.56108 7.11719C1.8428 6.95478 2.15767 6.83215 2.50568 6.74929C2.85369 6.66643 3.20833 6.60346 3.5696 6.56037C4.02699 6.50734 4.3982 6.46425 4.68324 6.43111C4.96828 6.39465 5.17543 6.33665 5.30469 6.2571C5.43395 6.17756 5.49858 6.0483 5.49858 5.86932V5.83452C5.49858 5.40033 5.37595 5.06392 5.13068 4.82528C4.88873 4.58665 4.52746 4.46733 4.04688 4.46733C3.5464 4.46733 3.15199 4.57836 2.86364 4.80043C2.5786 5.01918 2.38139 5.26278 2.27202 5.53125L0.875 5.21307C1.04072 4.74905 1.28267 4.37453 1.60085 4.08949C1.92235 3.80114 2.2919 3.59233 2.70952 3.46307C3.12713 3.33049 3.56629 3.2642 4.02699 3.2642C4.33191 3.2642 4.65507 3.30066 4.99645 3.37358C5.34115 3.44318 5.66264 3.57244 5.96094 3.76136C6.26255 3.95028 6.50947 4.22041 6.7017 4.57173C6.89394 4.91974 6.99006 5.37216 6.99006 5.92898V11H5.53835V9.95597H5.47869C5.38258 10.1482 5.2384 10.3371 5.04616 10.5227C4.85393 10.7083 4.60701 10.8625 4.3054 10.9851C4.00379 11.1077 3.64252 11.169 3.22159 11.169ZM3.54474 9.97585C3.95573 9.97585 4.30706 9.89465 4.59872 9.73224C4.8937 9.56984 5.11742 9.35772 5.26989 9.09588C5.42566 8.83073 5.50355 8.54735 5.50355 8.24574V7.26136C5.45052 7.31439 5.34777 7.36411 5.19531 7.41051C5.04616 7.4536 4.87547 7.49171 4.68324 7.52486C4.491 7.55469 4.30374 7.58286 4.12145 7.60938C3.93916 7.63258 3.7867 7.65246 3.66406 7.66903C3.37571 7.70549 3.11222 7.76681 2.87358 7.85298C2.63826 7.93916 2.44934 8.06345 2.30682 8.22585C2.16761 8.38494 2.09801 8.59706 2.09801 8.86222C2.09801 9.23011 2.2339 9.50852 2.50568 9.69744C2.77746 9.88305 3.12382 9.97585 3.54474 9.97585ZM10.4565 0.818182V11H8.96999V0.818182H10.4565ZM12.4563 11V3.36364H13.9428V11H12.4563ZM13.207 2.18537C12.9485 2.18537 12.7264 2.09919 12.5408 1.92685C12.3585 1.75118 12.2674 1.54238 12.2674 1.30043C12.2674 1.05516 12.3585 0.846354 12.5408 0.674005C12.7264 0.498342 12.9485 0.410511 13.207 0.410511C13.4656 0.410511 13.686 0.498342 13.8683 0.674005C14.0539 0.846354 14.1467 1.05516 14.1467 1.30043C14.1467 1.54238 14.0539 1.75118 13.8683 1.92685C13.686 2.09919 13.4656 2.18537 13.207 2.18537ZM19.1444 14.0227C18.5378 14.0227 18.0158 13.9432 17.5783 13.7841C17.1441 13.625 16.7895 13.4145 16.5144 13.1527C16.2393 12.8909 16.0338 12.6042 15.8979 12.2926L17.1756 11.7656C17.2651 11.9115 17.3844 12.0656 17.5336 12.228C17.686 12.3937 17.8915 12.5346 18.15 12.6506C18.4119 12.7666 18.7483 12.8246 19.1593 12.8246C19.7227 12.8246 20.1884 12.687 20.5563 12.4119C20.9242 12.1402 21.1081 11.706 21.1081 11.1094V9.60795H21.0137C20.9242 9.77036 20.7949 9.95099 20.6259 10.1499C20.4602 10.3487 20.2315 10.5211 19.9398 10.6669C19.6481 10.8127 19.2686 10.8857 18.8013 10.8857C18.1981 10.8857 17.6545 10.7448 17.1706 10.4631C16.69 10.178 16.3089 9.75876 16.0272 9.20526C15.7488 8.64844 15.6096 7.96401 15.6096 7.15199C15.6096 6.33996 15.7471 5.64394 16.0222 5.06392C16.3006 4.4839 16.6818 4.03977 17.1657 3.73153C17.6496 3.41998 18.1981 3.2642 18.8113 3.2642C19.2852 3.2642 19.668 3.34375 19.9597 3.50284C20.2514 3.65862 20.4784 3.84091 20.6408 4.04972C20.8065 4.25852 20.9341 4.44247 21.0236 4.60156H21.133V3.36364H22.5897V11.169C22.5897 11.8253 22.4372 12.3639 22.1323 12.7848C21.8274 13.2057 21.4147 13.5173 20.8944 13.7195C20.3773 13.9216 19.794 14.0227 19.1444 14.0227ZM19.1294 9.6527C19.557 9.6527 19.9183 9.55327 20.2132 9.3544C20.5115 9.15223 20.7369 8.86387 20.8894 8.48935C21.0452 8.11151 21.123 7.65909 21.123 7.1321C21.123 6.61837 21.0468 6.16596 20.8944 5.77486C20.7419 5.38376 20.5182 5.07884 20.2232 4.86009C19.9282 4.63802 19.5636 4.52699 19.1294 4.52699C18.682 4.52699 18.3091 4.64299 18.0108 4.875C17.7125 5.10369 17.4872 5.41525 17.3347 5.80966C17.1855 6.20407 17.111 6.64489 17.111 7.1321C17.111 7.63258 17.1872 8.07173 17.3397 8.44957C17.4921 8.82741 17.7175 9.1224 18.0158 9.33452C18.3174 9.54664 18.6886 9.6527 19.1294 9.6527ZM26.0698 6.46591V11H24.5833V3.36364H26.0101V4.60653H26.1046C26.2802 4.20218 26.5553 3.87737 26.9299 3.6321C27.3077 3.38684 27.7833 3.2642 28.3567 3.2642C28.8771 3.2642 29.3328 3.37358 29.7239 3.59233C30.115 3.80777 30.4183 4.12926 30.6337 4.55682C30.8491 4.98437 30.9569 5.51302 30.9569 6.14276V11H29.4703V6.32173C29.4703 5.76823 29.3262 5.3357 29.0378 5.02415C28.7495 4.70928 28.3534 4.55185 27.8496 4.55185C27.5049 4.55185 27.1983 4.62642 26.9299 4.77557C26.6647 4.92472 26.4542 5.14347 26.2985 5.43182C26.146 5.71686 26.0698 6.06155 26.0698 6.46591ZM37.4498 6.05327V7.34091H32.9355V6.05327H37.4498ZM40.9174 6.46591V11H39.4309V0.818182H40.8975V4.60653H40.992C41.171 4.19555 41.4444 3.86908 41.8123 3.62713C42.1802 3.38518 42.6608 3.2642 43.2541 3.2642C43.7778 3.2642 44.2351 3.37192 44.6262 3.58736C45.0207 3.80279 45.3256 4.12429 45.541 4.55185C45.7598 4.97609 45.8691 5.50639 45.8691 6.14276V11H44.3826V6.32173C44.3826 5.7616 44.2385 5.32741 43.9501 5.01918C43.6618 4.70762 43.2607 4.55185 42.747 4.55185C42.3957 4.55185 42.0808 4.62642 41.8024 4.77557C41.5273 4.92472 41.3102 5.14347 41.1511 5.43182C40.9953 5.71686 40.9174 6.06155 40.9174 6.46591ZM51.0694 11.1541C50.3535 11.1541 49.7288 10.9901 49.1951 10.6619C48.6615 10.3338 48.2472 9.87476 47.9522 9.2848C47.6573 8.69484 47.5098 8.00544 47.5098 7.21662C47.5098 6.42448 47.6573 5.73177 47.9522 5.13849C48.2472 4.54522 48.6615 4.08452 49.1951 3.75639C49.7288 3.42827 50.3535 3.2642 51.0694 3.2642C51.7853 3.2642 52.4101 3.42827 52.9437 3.75639C53.4773 4.08452 53.8916 4.54522 54.1866 5.13849C54.4816 5.73177 54.6291 6.42448 54.6291 7.21662C54.6291 8.00544 54.4816 8.69484 54.1866 9.2848C53.8916 9.87476 53.4773 10.3338 52.9437 10.6619C52.4101 10.9901 51.7853 11.1541 51.0694 11.1541ZM51.0744 9.90625C51.5384 9.90625 51.9229 9.78362 52.2278 9.53835C52.5327 9.29309 52.7581 8.96662 52.9039 8.55895C53.0531 8.15128 53.1277 7.70218 53.1277 7.21165C53.1277 6.72443 53.0531 6.27699 52.9039 5.86932C52.7581 5.45833 52.5327 5.12855 52.2278 4.87997C51.9229 4.63139 51.5384 4.5071 51.0744 4.5071C50.6071 4.5071 50.2193 4.63139 49.911 4.87997C49.6061 5.12855 49.3791 5.45833 49.2299 5.86932C49.0841 6.27699 49.0112 6.72443 49.0112 7.21165C49.0112 7.70218 49.0841 8.15128 49.2299 8.55895C49.3791 8.96662 49.6061 9.29309 49.911 9.53835C50.2193 9.78362 50.6071 9.90625 51.0744 9.90625ZM56.2884 11V3.36364H57.7251V4.5767H57.8047C57.9439 4.16572 58.1892 3.84257 58.5405 3.60724C58.8951 3.36861 59.2962 3.24929 59.7436 3.24929C59.8364 3.24929 59.9458 3.2526 60.0717 3.25923C60.201 3.26586 60.3021 3.27415 60.375 3.28409V4.70597C60.3153 4.68939 60.2093 4.67116 60.0568 4.65128C59.9044 4.62808 59.7519 4.61648 59.5994 4.61648C59.2481 4.61648 58.9349 4.69105 58.6598 4.8402C58.388 4.98603 58.1726 5.18987 58.0135 5.4517C57.8544 5.71023 57.7749 6.00521 57.7749 6.33665V11H56.2884ZM61.6614 11V3.36364H63.1479V11H61.6614ZM62.4121 2.18537C62.1536 2.18537 61.9315 2.09919 61.7459 1.92685C61.5636 1.75118 61.4725 1.54238 61.4725 1.30043C61.4725 1.05516 61.5636 0.846354 61.7459 0.674005C61.9315 0.498342 62.1536 0.410511 62.4121 0.410511C62.6706 0.410511 62.891 0.498342 63.0733 0.674005C63.2589 0.846354 63.3517 1.05516 63.3517 1.30043C63.3517 1.54238 63.2589 1.75118 63.0733 1.92685C62.891 2.09919 62.6706 2.18537 62.4121 2.18537ZM64.9886 11V9.98082L69.125 4.72585V4.65625H65.1229V3.36364H70.9794V4.44744L67.0021 9.63778V9.70739H71.1186V11H64.9886ZM75.8702 11.1541C75.1543 11.1541 74.5295 10.9901 73.9959 10.6619C73.4623 10.3338 73.048 9.87476 72.753 9.2848C72.458 8.69484 72.3105 8.00544 72.3105 7.21662C72.3105 6.42448 72.458 5.73177 72.753 5.13849C73.048 4.54522 73.4623 4.08452 73.9959 3.75639C74.5295 3.42827 75.1543 3.2642 75.8702 3.2642C76.5861 3.2642 77.2109 3.42827 77.7445 3.75639C78.2781 4.08452 78.6924 4.54522 78.9874 5.13849C79.2824 5.73177 79.4299 6.42448 79.4299 7.21662C79.4299 8.00544 79.2824 8.69484 78.9874 9.2848C78.6924 9.87476 78.2781 10.3338 77.7445 10.6619C77.2109 10.9901 76.5861 11.1541 75.8702 11.1541ZM75.8752 9.90625C76.3392 9.90625 76.7237 9.78362 77.0286 9.53835C77.3335 9.29309 77.5589 8.96662 77.7047 8.55895C77.8539 8.15128 77.9284 7.70218 77.9284 7.21165C77.9284 6.72443 77.8539 6.27699 77.7047 5.86932C77.5589 5.45833 77.3335 5.12855 77.0286 4.87997C76.7237 4.63139 76.3392 4.5071 75.8752 4.5071C75.4078 4.5071 75.0201 4.63139 74.7118 4.87997C74.4069 5.12855 74.1799 5.45833 74.0307 5.86932C73.8849 6.27699 73.812 6.72443 73.812 7.21165C73.812 7.70218 73.8849 8.15128 74.0307 8.55895C74.1799 8.96662 74.4069 9.29309 74.7118 9.53835C75.0201 9.78362 75.4078 9.90625 75.8752 9.90625ZM82.5756 6.46591V11H81.0891V3.36364H82.516V4.60653H82.6104C82.7861 4.20218 83.0612 3.87737 83.4357 3.6321C83.8136 3.38684 84.2892 3.2642 84.8626 3.2642C85.3829 3.2642 85.8387 3.37358 86.2298 3.59233C86.6209 3.80777 86.9241 4.12926 87.1396 4.55682C87.355 4.98437 87.4627 5.51302 87.4627 6.14276V11H85.9762V6.32173C85.9762 5.76823 85.832 5.3357 85.5437 5.02415C85.2553 4.70928 84.8593 4.55185 84.3555 4.55185C84.0108 4.55185 83.7042 4.62642 83.4357 4.77557C83.1706 4.92472 82.9601 5.14347 82.8043 5.43182C82.6519 5.71686 82.5756 6.06155 82.5756 6.46591ZM93.021 3.36364V4.55682H88.8498V3.36364H93.021ZM89.9684 1.53409H91.4549V8.75781C91.4549 9.04616 91.498 9.26326 91.5842 9.40909C91.6703 9.55161 91.7814 9.64938 91.9173 9.70241C92.0565 9.75213 92.2073 9.77699 92.3697 9.77699C92.489 9.77699 92.5934 9.7687 92.6829 9.75213C92.7724 9.73556 92.842 9.7223 92.8917 9.71236L93.1602 10.9403C93.074 10.9735 92.9513 11.0066 92.7923 11.0398C92.6332 11.0762 92.4343 11.0961 92.1957 11.0994C91.8046 11.1061 91.44 11.0365 91.1019 10.8906C90.7638 10.7448 90.4904 10.5194 90.2816 10.2145C90.0728 9.90956 89.9684 9.52675 89.9684 9.06605V1.53409ZM96.8876 11.169C96.4037 11.169 95.9662 11.0795 95.5751 10.9006C95.184 10.7183 94.8741 10.4548 94.6454 10.1101C94.42 9.76539 94.3074 9.3428 94.3074 8.84233C94.3074 8.41146 94.3902 8.05682 94.5559 7.77841C94.7217 7.5 94.9454 7.27959 95.2271 7.11719C95.5088 6.95478 95.8237 6.83215 96.1717 6.74929C96.5197 6.66643 96.8743 6.60346 97.2356 6.56037C97.693 6.50734 98.0642 6.46425 98.3493 6.43111C98.6343 6.39465 98.8414 6.33665 98.9707 6.2571C99.1 6.17756 99.1646 6.0483 99.1646 5.86932V5.83452C99.1646 5.40033 99.042 5.06392 98.7967 4.82528C98.5547 4.58665 98.1935 4.46733 97.7129 4.46733C97.2124 4.46733 96.818 4.57836 96.5297 4.80043C96.2446 5.01918 96.0474 5.26278 95.938 5.53125L94.541 5.21307C94.7067 4.74905 94.9487 4.37453 95.2669 4.08949C95.5884 3.80114 95.9579 3.59233 96.3755 3.46307C96.7931 3.33049 97.2323 3.2642 97.693 3.2642C97.9979 3.2642 98.3211 3.30066 98.6625 3.37358C99.0072 3.44318 99.3287 3.57244 99.627 3.76136C99.9286 3.95028 100.175 4.22041 100.368 4.57173C100.56 4.91974 100.656 5.37216 100.656 5.92898V11H99.2044V9.95597H99.1447C99.0486 10.1482 98.9044 10.3371 98.7122 10.5227C98.5199 10.7083 98.273 10.8625 97.9714 10.9851C97.6698 11.1077 97.3085 11.169 96.8876 11.169ZM97.2108 9.97585C97.6217 9.97585 97.9731 9.89465 98.2647 9.73224C98.5597 9.56984 98.7834 9.35772 98.9359 9.09588C99.0917 8.83073 99.1696 8.54735 99.1696 8.24574V7.26136C99.1165 7.31439 99.0138 7.36411 98.8613 7.41051C98.7122 7.4536 98.5415 7.49171 98.3493 7.52486C98.157 7.55469 97.9698 7.58286 97.7875 7.60938C97.6052 7.63258 97.4527 7.65246 97.3301 7.66903C97.0417 7.70549 96.7782 7.76681 96.5396 7.85298C96.3043 7.93916 96.1154 8.06345 95.9728 8.22585C95.8336 8.38494 95.764 8.59706 95.764 8.86222C95.764 9.23011 95.8999 9.50852 96.1717 9.69744C96.4435 9.88305 96.7898 9.97585 97.2108 9.97585ZM104.123 0.818182V11H102.636V0.818182H104.123ZM110.622 6.05327V7.34091H106.107V6.05327H110.622ZM115.819 11.1541C115.08 11.1541 114.444 10.9867 113.91 10.652C113.38 10.3139 112.972 9.84825 112.687 9.25497C112.402 8.66169 112.26 7.98224 112.26 7.21662C112.26 6.44105 112.406 5.75663 112.697 5.16335C112.989 4.56676 113.4 4.10109 113.93 3.76633C114.461 3.43158 115.085 3.2642 115.805 3.2642C116.385 3.2642 116.902 3.37192 117.356 3.58736C117.81 3.79948 118.176 4.09777 118.454 4.48224C118.736 4.86671 118.903 5.31581 118.956 5.82955H117.51C117.43 5.47159 117.248 5.16335 116.963 4.90483C116.681 4.64631 116.303 4.51705 115.829 4.51705C115.415 4.51705 115.052 4.62642 114.741 4.84517C114.432 5.06061 114.192 5.36884 114.02 5.76989C113.847 6.16761 113.761 6.63826 113.761 7.18182C113.761 7.73864 113.846 8.21922 114.015 8.62358C114.184 9.02794 114.422 9.34115 114.731 9.56321C115.042 9.78527 115.408 9.89631 115.829 9.89631C116.111 9.89631 116.366 9.84493 116.595 9.74219C116.827 9.63613 117.021 9.48532 117.177 9.28977C117.336 9.09422 117.447 8.8589 117.51 8.58381H118.956C118.903 9.07765 118.743 9.51847 118.474 9.90625C118.206 10.294 117.846 10.599 117.395 10.821C116.948 11.0431 116.423 11.1541 115.819 11.1541ZM123.837 11.1541C123.085 11.1541 122.437 10.9934 121.893 10.6719C121.353 10.3471 120.936 9.89134 120.641 9.30469C120.349 8.71473 120.203 8.02367 120.203 7.23153C120.203 6.44934 120.349 5.75994 120.641 5.16335C120.936 4.56676 121.347 4.10109 121.874 3.76633C122.404 3.43158 123.024 3.2642 123.733 3.2642C124.164 3.2642 124.581 3.33546 124.986 3.47798C125.39 3.6205 125.753 3.84422 126.075 4.14915C126.396 4.45407 126.65 4.85014 126.835 5.33736C127.021 5.82126 127.114 6.40956 127.114 7.10227V7.62926H121.043V6.51562H125.657C125.657 6.12453 125.577 5.77817 125.418 5.47656C125.259 5.17164 125.036 4.93134 124.747 4.75568C124.462 4.58002 124.127 4.49219 123.743 4.49219C123.325 4.49219 122.961 4.59493 122.649 4.80043C122.341 5.0026 122.102 5.26776 121.933 5.59588C121.768 5.92069 121.685 6.27367 121.685 6.65483V7.52486C121.685 8.03527 121.774 8.46946 121.953 8.82741C122.135 9.18537 122.389 9.45881 122.714 9.64773C123.039 9.83333 123.418 9.92614 123.852 9.92614C124.134 9.92614 124.391 9.88636 124.623 9.80682C124.855 9.72396 125.055 9.60133 125.224 9.43892C125.393 9.27652 125.523 9.07599 125.612 8.83736L127.019 9.09091C126.906 9.50521 126.704 9.86813 126.413 10.1797C126.124 10.4879 125.761 10.7282 125.324 10.9006C124.89 11.0696 124.394 11.1541 123.837 11.1541ZM130.249 6.46591V11H128.763V3.36364H130.19V4.60653H130.284C130.46 4.20218 130.735 3.87737 131.11 3.6321C131.487 3.38684 131.963 3.2642 132.536 3.2642C133.057 3.2642 133.512 3.37358 133.904 3.59233C134.295 3.80777 134.598 4.12926 134.813 4.55682C135.029 4.98437 135.137 5.51302 135.137 6.14276V11H133.65V6.32173C133.65 5.76823 133.506 5.3357 133.218 5.02415C132.929 4.70928 132.533 4.55185 132.029 4.55185C131.685 4.55185 131.378 4.62642 131.11 4.77557C130.844 4.92472 130.634 5.14347 130.478 5.43182C130.326 5.71686 130.249 6.06155 130.249 6.46591ZM140.695 3.36364V4.55682H136.524V3.36364H140.695ZM137.642 1.53409H139.129V8.75781C139.129 9.04616 139.172 9.26326 139.258 9.40909C139.344 9.55161 139.455 9.64938 139.591 9.70241C139.73 9.75213 139.881 9.77699 140.044 9.77699C140.163 9.77699 140.267 9.7687 140.357 9.75213C140.446 9.73556 140.516 9.7223 140.566 9.71236L140.834 10.9403C140.748 10.9735 140.625 11.0066 140.466 11.0398C140.307 11.0762 140.108 11.0961 139.869 11.0994C139.478 11.1061 139.114 11.0365 138.776 10.8906C138.438 10.7448 138.164 10.5194 137.955 10.2145C137.747 9.90956 137.642 9.52675 137.642 9.06605V1.53409ZM142.339 11V3.36364H143.776V4.5767H143.855C143.995 4.16572 144.24 3.84257 144.591 3.60724C144.946 3.36861 145.347 3.24929 145.794 3.24929C145.887 3.24929 145.997 3.2526 146.123 3.25923C146.252 3.26586 146.353 3.27415 146.426 3.28409V4.70597C146.366 4.68939 146.26 4.67116 146.108 4.65128C145.955 4.62808 145.803 4.61648 145.65 4.61648C145.299 4.61648 144.986 4.69105 144.711 4.8402C144.439 4.98603 144.223 5.18987 144.064 5.4517C143.905 5.71023 143.826 6.00521 143.826 6.33665V11H142.339ZM150.73 11.1541C149.978 11.1541 149.33 10.9934 148.786 10.6719C148.246 10.3471 147.828 9.89134 147.533 9.30469C147.242 8.71473 147.096 8.02367 147.096 7.23153C147.096 6.44934 147.242 5.75994 147.533 5.16335C147.828 4.56676 148.239 4.10109 148.766 3.76633C149.296 3.43158 149.916 3.2642 150.626 3.2642C151.056 3.2642 151.474 3.33546 151.878 3.47798C152.283 3.6205 152.646 3.84422 152.967 4.14915C153.289 4.45407 153.542 4.85014 153.728 5.33736C153.913 5.82126 154.006 6.40956 154.006 7.10227V7.62926H147.936V6.51562H152.55C152.55 6.12453 152.47 5.77817 152.311 5.47656C152.152 5.17164 151.928 4.93134 151.64 4.75568C151.355 4.58002 151.02 4.49219 150.635 4.49219C150.218 4.49219 149.853 4.59493 149.542 4.80043C149.233 5.0026 148.995 5.26776 148.826 5.59588C148.66 5.92069 148.577 6.27367 148.577 6.65483V7.52486C148.577 8.03527 148.667 8.46946 148.846 8.82741C149.028 9.18537 149.282 9.45881 149.606 9.64773C149.931 9.83333 150.311 9.92614 150.745 9.92614C151.027 9.92614 151.283 9.88636 151.515 9.80682C151.747 9.72396 151.948 9.60133 152.117 9.43892C152.286 9.27652 152.415 9.07599 152.505 8.83736L153.912 9.09091C153.799 9.50521 153.597 9.86813 153.305 10.1797C153.017 10.4879 152.654 10.7282 152.216 10.9006C151.782 11.0696 151.287 11.1541 150.73 11.1541ZM160.155 6.05327V7.34091H155.641V6.05327H160.155ZM165.661 11.169C164.875 11.1657 164.204 10.9586 163.647 10.5476C163.091 10.1366 162.665 9.53835 162.37 8.75284C162.075 7.96733 161.927 7.02107 161.927 5.91406C161.927 4.81037 162.075 3.86742 162.37 3.08523C162.668 2.30303 163.096 1.70644 163.652 1.29545C164.212 0.884469 164.882 0.678977 165.661 0.678977C166.44 0.678977 167.108 0.886126 167.664 1.30043C168.221 1.71141 168.647 2.308 168.942 3.0902C169.24 3.86908 169.39 4.81037 169.39 5.91406C169.39 7.02438 169.242 7.9723 168.947 8.75781C168.652 9.54001 168.226 10.1383 167.669 10.5526C167.113 10.9635 166.443 11.169 165.661 11.169ZM165.661 9.84162C166.35 9.84162 166.889 9.50521 167.277 8.83239C167.668 8.15956 167.863 7.18679 167.863 5.91406C167.863 5.06889 167.774 4.35464 167.595 3.77131C167.419 3.18466 167.166 2.74053 166.834 2.43892C166.506 2.134 166.115 1.98153 165.661 1.98153C164.975 1.98153 164.436 2.3196 164.045 2.99574C163.654 3.67187 163.457 4.64465 163.453 5.91406C163.453 6.76255 163.541 7.48011 163.717 8.06676C163.896 8.65009 164.15 9.09257 164.478 9.39418C164.806 9.69247 165.2 9.84162 165.661 9.84162ZM171.153 11V9.88636L174.599 6.31676C174.966 5.92898 175.27 5.58925 175.508 5.29759C175.75 5.0026 175.931 4.72254 176.05 4.45739C176.17 4.19223 176.229 3.91051 176.229 3.61222C176.229 3.27415 176.15 2.98248 175.991 2.73722C175.831 2.48864 175.614 2.29806 175.339 2.16548C175.064 2.02959 174.754 1.96165 174.41 1.96165C174.045 1.96165 173.727 2.03622 173.455 2.18537C173.183 2.33452 172.974 2.54498 172.829 2.81676C172.683 3.08854 172.61 3.40672 172.61 3.77131H171.143C171.143 3.15151 171.286 2.60961 171.571 2.1456C171.856 1.68158 172.247 1.32197 172.744 1.06676C173.241 0.808238 173.806 0.678977 174.439 0.678977C175.079 0.678977 175.643 0.806581 176.13 1.06179C176.62 1.31368 177.003 1.65838 177.278 2.09588C177.553 2.53007 177.691 3.0206 177.691 3.56747C177.691 3.94531 177.62 4.31487 177.477 4.67614C177.338 5.0374 177.094 5.4401 176.746 5.88423C176.398 6.32505 175.914 6.86032 175.295 7.49006L173.271 9.60795V9.68253H177.855V11H171.153Z" fill="black"/>
</svg>
