<svg viewBox="0 0 80 15" fill="none" stroke-width="2" stroke="currentColor" aria-hidden="true">
  <path d="M1.4858 6.46591V11H-0.000710189V0.818182H1.46591V4.60653H1.56037C1.73935 4.19555 2.01278 3.86908 2.38068 3.62713C2.74858 3.38518 3.22917 3.2642 3.82244 3.2642C4.34612 3.2642 4.8035 3.37192 5.1946 3.58736C5.58902 3.80279 5.89394 4.12429 6.10938 4.55185C6.32812 4.97609 6.4375 5.50639 6.4375 6.14276V11H4.95099V6.32173C4.95099 5.7616 4.80682 5.32741 4.51847 5.01918C4.23011 4.70762 3.82907 4.55185 3.31534 4.55185C2.96402 4.55185 2.64915 4.62642 2.37074 4.77557C2.09564 4.92472 1.87855 5.14347 1.71946 5.43182C1.56368 5.71686 1.4858 6.06155 1.4858 6.46591ZM11.7124 11.1541C10.96 11.1541 10.312 10.9934 9.76847 10.6719C9.22822 10.3471 8.81061 9.89134 8.51562 9.30469C8.22396 8.71473 8.07812 8.02367 8.07812 7.23153C8.07812 6.44934 8.22396 5.75994 8.51562 5.16335C8.81061 4.56676 9.22159 4.10109 9.74858 3.76633C10.2789 3.43158 10.8987 3.2642 11.608 3.2642C12.0388 3.2642 12.4564 3.33546 12.8608 3.47798C13.2652 3.6205 13.6281 3.84422 13.9496 4.14915C14.2711 4.45407 14.5246 4.85014 14.7102 5.33736C14.8958 5.82126 14.9886 6.40956 14.9886 7.10227V7.62926H8.91832V6.51562H13.532C13.532 6.12453 13.4524 5.77817 13.2933 5.47656C13.1342 5.17164 12.9105 4.93134 12.6222 4.75568C12.3371 4.58002 12.0024 4.49219 11.6179 4.49219C11.2003 4.49219 10.8357 4.59493 10.5241 4.80043C10.2159 5.0026 9.97727 5.26776 9.80824 5.59588C9.64252 5.92069 9.55966 6.27367 9.55966 6.65483V7.52486C9.55966 8.03527 9.64915 8.46946 9.82812 8.82741C10.0104 9.18537 10.264 9.45881 10.5888 9.64773C10.9136 9.83333 11.2931 9.92614 11.7273 9.92614C12.009 9.92614 12.2659 9.88636 12.4979 9.80682C12.7299 9.72396 12.9304 9.60133 13.0994 9.43892C13.2685 9.27652 13.3977 9.07599 13.4872 8.83736L14.8942 9.09091C14.7815 9.50521 14.5793 9.86813 14.2876 10.1797C13.9993 10.4879 13.6364 10.7282 13.1989 10.9006C12.7647 11.0696 12.2692 11.1541 11.7124 11.1541ZM17.6335 3.36364L19.3189 6.33665L21.0192 3.36364H22.6449L20.2635 7.18182L22.6648 11H21.0391L19.3189 8.14631L17.6037 11H15.973L18.3494 7.18182L16.0028 3.36364H17.6335ZM26.3798 11.169C25.8959 11.169 25.4584 11.0795 25.0673 10.9006C24.6762 10.7183 24.3663 10.4548 24.1376 10.1101C23.9122 9.76539 23.7995 9.3428 23.7995 8.84233C23.7995 8.41146 23.8824 8.05682 24.0481 7.77841C24.2138 7.5 24.4376 7.27959 24.7193 7.11719C25.001 6.95478 25.3159 6.83215 25.6639 6.74929C26.0119 6.66643 26.3665 6.60346 26.7278 6.56037C27.1852 6.50734 27.5564 6.46425 27.8414 6.43111C28.1265 6.39465 28.3336 6.33665 28.4629 6.2571C28.5922 6.17756 28.6568 6.0483 28.6568 5.86932V5.83452C28.6568 5.40033 28.5342 5.06392 28.2889 4.82528C28.0469 4.58665 27.6857 4.46733 27.2051 4.46733C26.7046 4.46733 26.3102 4.57836 26.0218 4.80043C25.7368 5.01918 25.5396 5.26278 25.4302 5.53125L24.0332 5.21307C24.1989 4.74905 24.4409 4.37453 24.7591 4.08949C25.0806 3.80114 25.4501 3.59233 25.8677 3.46307C26.2853 3.33049 26.7245 3.2642 27.1852 3.2642C27.4901 3.2642 27.8133 3.30066 28.1547 3.37358C28.4993 3.44318 28.8208 3.57244 29.1191 3.76136C29.4208 3.95028 29.6677 4.22041 29.8599 4.57173C30.0521 4.91974 30.1483 5.37216 30.1483 5.92898V11H28.6966V9.95597H28.6369C28.5408 10.1482 28.3966 10.3371 28.2044 10.5227C28.0121 10.7083 27.7652 10.8625 27.4636 10.9851C27.162 11.1077 26.8007 11.169 26.3798 11.169ZM26.7029 9.97585C27.1139 9.97585 27.4653 9.89465 27.7569 9.73224C28.0519 9.56984 28.2756 9.35772 28.4281 9.09588C28.5839 8.83073 28.6618 8.54735 28.6618 8.24574V7.26136C28.6087 7.31439 28.506 7.36411 28.3535 7.41051C28.2044 7.4536 28.0337 7.49171 27.8414 7.52486C27.6492 7.55469 27.4619 7.58286 27.2797 7.60938C27.0974 7.63258 26.9449 7.65246 26.8223 7.66903C26.5339 7.70549 26.2704 7.76681 26.0318 7.85298C25.7965 7.93916 25.6075 8.06345 25.465 8.22585C25.3258 8.38494 25.2562 8.59706 25.2562 8.86222C25.2562 9.23011 25.3921 9.50852 25.6639 9.69744C25.9357 9.88305 26.282 9.97585 26.7029 9.97585ZM35.3299 14.0227C34.7234 14.0227 34.2013 13.9432 33.7638 13.7841C33.3297 13.625 32.975 13.4145 32.6999 13.1527C32.4248 12.8909 32.2193 12.6042 32.0835 12.2926L33.3612 11.7656C33.4506 11.9115 33.57 12.0656 33.7191 12.228C33.8716 12.3937 34.0771 12.5346 34.3356 12.6506C34.5974 12.7666 34.9338 12.8246 35.3448 12.8246C35.9083 12.8246 36.3739 12.687 36.7418 12.4119C37.1097 12.1402 37.2937 11.706 37.2937 11.1094V9.60795H37.1992C37.1097 9.77036 36.9805 9.95099 36.8114 10.1499C36.6457 10.3487 36.417 10.5211 36.1254 10.6669C35.8337 10.8127 35.4542 10.8857 34.9869 10.8857C34.3836 10.8857 33.8401 10.7448 33.3562 10.4631C32.8756 10.178 32.4944 9.75876 32.2127 9.20526C31.9343 8.64844 31.7951 7.96401 31.7951 7.15199C31.7951 6.33996 31.9326 5.64394 32.2077 5.06392C32.4862 4.4839 32.8673 4.03977 33.3512 3.73153C33.8351 3.41998 34.3836 3.2642 34.9968 3.2642C35.4708 3.2642 35.8536 3.34375 36.1452 3.50284C36.4369 3.65862 36.6639 3.84091 36.8263 4.04972C36.9921 4.25852 37.1197 4.44247 37.2092 4.60156H37.3185V3.36364H38.7752V11.169C38.7752 11.8253 38.6228 12.3639 38.3178 12.7848C38.0129 13.2057 37.6003 13.5173 37.0799 13.7195C36.5629 13.9216 35.9795 14.0227 35.3299 14.0227ZM35.315 9.6527C35.7425 9.6527 36.1038 9.55327 36.3988 9.3544C36.6971 9.15223 36.9225 8.86387 37.0749 8.48935C37.2307 8.11151 37.3086 7.65909 37.3086 7.1321C37.3086 6.61837 37.2324 6.16596 37.0799 5.77486C36.9274 5.38376 36.7037 5.07884 36.4087 4.86009C36.1138 4.63802 35.7492 4.52699 35.315 4.52699C34.8675 4.52699 34.4947 4.64299 34.1964 4.875C33.8981 5.10369 33.6727 5.41525 33.5202 5.80966C33.3711 6.20407 33.2965 6.64489 33.2965 7.1321C33.2965 7.63258 33.3728 8.07173 33.5252 8.44957C33.6777 8.82741 33.9031 9.1224 34.2013 9.33452C34.503 9.54664 34.8742 9.6527 35.315 9.6527ZM43.9854 11.1541C43.2695 11.1541 42.6448 10.9901 42.1112 10.6619C41.5775 10.3338 41.1632 9.87476 40.8683 9.2848C40.5733 8.69484 40.4258 8.00544 40.4258 7.21662C40.4258 6.42448 40.5733 5.73177 40.8683 5.13849C41.1632 4.54522 41.5775 4.08452 42.1112 3.75639C42.6448 3.42827 43.2695 3.2642 43.9854 3.2642C44.7013 3.2642 45.3261 3.42827 45.8597 3.75639C46.3933 4.08452 46.8076 4.54522 47.1026 5.13849C47.3976 5.73177 47.5451 6.42448 47.5451 7.21662C47.5451 8.00544 47.3976 8.69484 47.1026 9.2848C46.8076 9.87476 46.3933 10.3338 45.8597 10.6619C45.3261 10.9901 44.7013 11.1541 43.9854 11.1541ZM43.9904 9.90625C44.4544 9.90625 44.8389 9.78362 45.1438 9.53835C45.4487 9.29309 45.6741 8.96662 45.82 8.55895C45.9691 8.15128 46.0437 7.70218 46.0437 7.21165C46.0437 6.72443 45.9691 6.27699 45.82 5.86932C45.6741 5.45833 45.4487 5.12855 45.1438 4.87997C44.8389 4.63139 44.4544 4.5071 43.9904 4.5071C43.5231 4.5071 43.1353 4.63139 42.8271 4.87997C42.5221 5.12855 42.2951 5.45833 42.146 5.86932C42.0001 6.27699 41.9272 6.72443 41.9272 7.21165C41.9272 7.70218 42.0001 8.15128 42.146 8.55895C42.2951 8.96662 42.5221 9.29309 42.8271 9.53835C43.1353 9.78362 43.5231 9.90625 43.9904 9.90625ZM50.6909 6.46591V11H49.2044V3.36364H50.6312V4.60653H50.7257C50.9013 4.20218 51.1764 3.87737 51.551 3.6321C51.9288 3.38684 52.4044 3.2642 52.9778 3.2642C53.4982 3.2642 53.9539 3.37358 54.345 3.59233C54.7361 3.80777 55.0394 4.12926 55.2548 4.55682C55.4702 4.98437 55.5779 5.51302 55.5779 6.14276V11H54.0914V6.32173C54.0914 5.76823 53.9473 5.3357 53.6589 5.02415C53.3706 4.70928 52.9745 4.55185 52.4707 4.55185C52.126 4.55185 51.8194 4.62642 51.551 4.77557C51.2858 4.92472 51.0753 5.14347 50.9196 5.43182C50.7671 5.71686 50.6909 6.06155 50.6909 6.46591ZM62.0708 6.05327V7.34091H57.5566V6.05327H62.0708ZM67.5769 11.169C66.7914 11.1657 66.1202 10.9586 65.5634 10.5476C65.0066 10.1366 64.5807 9.53835 64.2857 8.75284C63.9907 7.96733 63.8432 7.02107 63.8432 5.91406C63.8432 4.81037 63.9907 3.86742 64.2857 3.08523C64.584 2.30303 65.0115 1.70644 65.5684 1.29545C66.1285 0.884469 66.798 0.678977 67.5769 0.678977C68.3558 0.678977 69.0236 0.886126 69.5804 1.30043C70.1373 1.71141 70.5632 2.308 70.8581 3.0902C71.1564 3.86908 71.3056 4.81037 71.3056 5.91406C71.3056 7.02438 71.1581 7.9723 70.8631 8.75781C70.5681 9.54001 70.1422 10.1383 69.5854 10.5526C69.0286 10.9635 68.3591 11.169 67.5769 11.169ZM67.5769 9.84162C68.2663 9.84162 68.8049 9.50521 69.1926 8.83239C69.5837 8.15956 69.7793 7.18679 69.7793 5.91406C69.7793 5.06889 69.6898 4.35464 69.5108 3.77131C69.3352 3.18466 69.0816 2.74053 68.7502 2.43892C68.4221 2.134 68.031 1.98153 67.5769 1.98153C66.8908 1.98153 66.3522 2.3196 65.9611 2.99574C65.57 3.67187 65.3728 4.64465 65.3695 5.91406C65.3695 6.76255 65.4573 7.48011 65.633 8.06676C65.812 8.65009 66.0655 9.09257 66.3936 9.39418C66.7218 9.69247 67.1162 9.84162 67.5769 9.84162ZM73.0692 11V9.88636L76.5146 6.31676C76.8825 5.92898 77.1857 5.58925 77.4244 5.29759C77.6663 5.0026 77.8469 4.72254 77.9663 4.45739C78.0856 4.19223 78.1452 3.91051 78.1452 3.61222C78.1452 3.27415 78.0657 2.98248 77.9066 2.73722C77.7475 2.48864 77.5304 2.29806 77.2553 2.16548C76.9802 2.02959 76.6703 1.96165 76.3256 1.96165C75.9611 1.96165 75.6429 2.03622 75.3711 2.18537C75.0993 2.33452 74.8905 2.54498 74.7447 2.81676C74.5988 3.08854 74.5259 3.40672 74.5259 3.77131H73.0593C73.0593 3.15151 73.2018 2.60961 73.4869 2.1456C73.7719 1.68158 74.163 1.32197 74.6602 1.06676C75.1573 0.808238 75.7224 0.678977 76.3555 0.678977C76.9951 0.678977 77.5586 0.806581 78.0458 1.06179C78.5363 1.31368 78.9192 1.65838 79.1942 2.09588C79.4693 2.53007 79.6069 3.0206 79.6069 3.56747C79.6069 3.94531 79.5356 4.31487 79.3931 4.67614C79.2539 5.0374 79.0103 5.4401 78.6623 5.88423C78.3143 6.32505 77.8304 6.86032 77.2106 7.49006L75.1871 9.60795V9.68253H79.771V11H73.0692Z" fill="black"/>
</svg>
