<svg viewBox="0 0 43 12" fill="none" stroke-width="2" stroke="currentColor" aria-hidden="true">
  <path d="M3.85795 11.1491C3.24148 11.1491 2.69129 10.9917 2.20739 10.6768C1.7268 10.3587 1.34896 9.90625 1.07386 9.3196C0.802083 8.72964 0.666193 8.02202 0.666193 7.19673C0.666193 6.37145 0.803741 5.66548 1.07884 5.07884C1.35724 4.49219 1.7384 4.04309 2.2223 3.73153C2.7062 3.41998 3.25473 3.2642 3.8679 3.2642C4.34186 3.2642 4.72301 3.34375 5.01136 3.50284C5.30303 3.65862 5.52841 3.84091 5.6875 4.04972C5.84991 4.25852 5.97585 4.44247 6.06534 4.60156H6.15483V0.818182H7.64134V11H6.18963V9.81179H6.06534C5.97585 9.9742 5.84659 10.1598 5.67756 10.3686C5.51184 10.5774 5.28314 10.7597 4.99148 10.9155C4.69981 11.0713 4.32197 11.1491 3.85795 11.1491ZM4.18608 9.88139C4.61364 9.88139 4.97491 9.7687 5.26989 9.54332C5.56818 9.31463 5.79356 8.99811 5.94602 8.59375C6.1018 8.18939 6.17969 7.71875 6.17969 7.18182C6.17969 6.65151 6.10346 6.1875 5.95099 5.78977C5.79853 5.39205 5.57481 5.08215 5.27983 4.86009C4.98485 4.63802 4.62027 4.52699 4.18608 4.52699C3.73864 4.52699 3.36577 4.64299 3.06747 4.875C2.76918 5.10701 2.5438 5.42353 2.39134 5.82457C2.24219 6.22562 2.16761 6.67803 2.16761 7.18182C2.16761 7.69223 2.24384 8.15128 2.39631 8.55895C2.54877 8.96662 2.77415 9.28977 3.07244 9.52841C3.37405 9.76373 3.74527 9.88139 4.18608 9.88139ZM9.76296 11V3.36364H11.2495V11H9.76296ZM10.5137 2.18537C10.2551 2.18537 10.0331 2.09919 9.84748 1.92685C9.66519 1.75118 9.57404 1.54238 9.57404 1.30043C9.57404 1.05516 9.66519 0.846354 9.84748 0.674005C10.0331 0.498342 10.2551 0.410511 10.5137 0.410511C10.7722 0.410511 10.9926 0.498342 11.1749 0.674005C11.3605 0.846354 11.4533 1.05516 11.4533 1.30043C11.4533 1.54238 11.3605 1.75118 11.1749 1.92685C10.9926 2.09919 10.7722 2.18537 10.5137 2.18537ZM16.4659 11.1541C15.7268 11.1541 15.0904 10.9867 14.5568 10.652C14.0265 10.3139 13.6188 9.84825 13.3338 9.25497C13.0488 8.66169 12.9062 7.98224 12.9062 7.21662C12.9062 6.44105 13.0521 5.75663 13.3438 5.16335C13.6354 4.56676 14.0464 4.10109 14.5767 3.76633C15.107 3.43158 15.7318 3.2642 16.451 3.2642C17.031 3.2642 17.5481 3.37192 18.0021 3.58736C18.4562 3.79948 18.8224 4.09777 19.1009 4.48224C19.3826 4.86671 19.55 5.31581 19.603 5.82955H18.1562C18.0767 5.47159 17.8944 5.16335 17.6094 4.90483C17.3277 4.64631 16.9498 4.51705 16.4759 4.51705C16.0616 4.51705 15.6986 4.62642 15.3871 4.84517C15.0788 5.06061 14.8385 5.36884 14.6662 5.76989C14.4938 6.16761 14.4077 6.63826 14.4077 7.18182C14.4077 7.73864 14.4922 8.21922 14.6612 8.62358C14.8303 9.02794 15.0689 9.34115 15.3771 9.56321C15.6887 9.78527 16.0549 9.89631 16.4759 9.89631C16.7576 9.89631 17.0128 9.84493 17.2415 9.74219C17.4735 9.63613 17.6674 9.48532 17.8232 9.28977C17.9822 9.09422 18.0933 8.8589 18.1562 8.58381H19.603C19.55 9.07765 19.3892 9.51847 19.1207 9.90625C18.8523 10.294 18.4927 10.599 18.0419 10.821C17.5945 11.0431 17.0691 11.1541 16.4659 11.1541ZM24.4838 11.1541C23.7315 11.1541 23.0835 10.9934 22.54 10.6719C21.9997 10.3471 21.5821 9.89134 21.2871 9.30469C20.9954 8.71473 20.8496 8.02367 20.8496 7.23153C20.8496 6.44934 20.9954 5.75994 21.2871 5.16335C21.5821 4.56676 21.9931 4.10109 22.5201 3.76633C23.0504 3.43158 23.6702 3.2642 24.3794 3.2642C24.8103 3.2642 25.2279 3.33546 25.6323 3.47798C26.0366 3.6205 26.3996 3.84422 26.7211 4.14915C27.0426 4.45407 27.2961 4.85014 27.4817 5.33736C27.6673 5.82126 27.7601 6.40956 27.7601 7.10227V7.62926H21.6898V6.51562H26.3034C26.3034 6.12453 26.2239 5.77817 26.0648 5.47656C25.9057 5.17164 25.682 4.93134 25.3936 4.75568C25.1086 4.58002 24.7739 4.49219 24.3894 4.49219C23.9718 4.49219 23.6072 4.59493 23.2956 4.80043C22.9874 5.0026 22.7488 5.26776 22.5797 5.59588C22.414 5.92069 22.3311 6.27367 22.3311 6.65483V7.52486C22.3311 8.03527 22.4206 8.46946 22.5996 8.82741C22.7819 9.18537 23.0355 9.45881 23.3603 9.64773C23.6851 9.83333 24.0646 9.92614 24.4988 9.92614C24.7805 9.92614 25.0373 9.88636 25.2694 9.80682C25.5014 9.72396 25.7019 9.60133 25.8709 9.43892C26.04 9.27652 26.1692 9.07599 26.2587 8.83736L27.6657 9.09091C27.553 9.50521 27.3508 9.86813 27.0591 10.1797C26.7708 10.4879 26.4078 10.7282 25.9703 10.9006C25.5362 11.0696 25.0407 11.1541 24.4838 11.1541ZM33.9087 6.05327V7.34091H29.3945V6.05327H33.9087ZM39.4247 11.1392C38.9706 11.1326 38.5232 11.0497 38.0824 10.8906C37.6449 10.7315 37.2472 10.4664 36.8892 10.0952C36.5313 9.72396 36.2446 9.22514 36.0291 8.59872C35.817 7.9723 35.7109 7.1901 35.7109 6.25213C35.7109 5.36387 35.7988 4.57505 35.9744 3.88565C36.1534 3.19626 36.4103 2.61458 36.745 2.14062C37.0798 1.66335 37.4841 1.30043 37.9581 1.05185C38.4321 0.803267 38.964 0.678977 39.554 0.678977C40.1605 0.678977 40.6991 0.798295 41.1697 1.03693C41.6404 1.27557 42.0215 1.60535 42.3132 2.02628C42.6082 2.44721 42.7955 2.92614 42.875 3.46307H41.3587C41.2559 3.03883 41.0521 2.69247 40.7472 2.42401C40.4422 2.15554 40.0445 2.02131 39.554 2.02131C38.8082 2.02131 38.2266 2.34612 37.8089 2.99574C37.3946 3.64536 37.1858 4.54853 37.1825 5.70526H37.2571C37.4328 5.4169 37.6482 5.17164 37.9034 4.96946C38.1619 4.76397 38.4503 4.60653 38.7685 4.49716C39.09 4.38447 39.428 4.32812 39.7827 4.32812C40.3726 4.32812 40.9063 4.4723 41.3835 4.76065C41.8641 5.04569 42.2469 5.4401 42.532 5.94389C42.817 6.44768 42.9595 7.02438 42.9595 7.67401C42.9595 8.32363 42.812 8.91193 42.517 9.43892C42.2254 9.96591 41.8144 10.3835 41.2841 10.6918C40.7538 10.9967 40.134 11.1458 39.4247 11.1392ZM39.4197 9.84659C39.8108 9.84659 40.1605 9.75047 40.4688 9.55824C40.777 9.366 41.0206 9.10748 41.1996 8.78267C41.3786 8.45786 41.468 8.09493 41.468 7.69389C41.468 7.30279 41.3802 6.9465 41.2045 6.625C41.0322 6.3035 40.7936 6.0483 40.4886 5.85938C40.187 5.67045 39.8423 5.57599 39.4545 5.57599C39.1596 5.57599 38.8861 5.63234 38.6342 5.74503C38.3857 5.85772 38.1669 6.01349 37.978 6.21236C37.7891 6.41122 37.6399 6.63991 37.5305 6.89844C37.4245 7.15365 37.3714 7.42377 37.3714 7.70881C37.3714 8.08996 37.4593 8.44294 37.6349 8.76776C37.8139 9.09257 38.0575 9.3544 38.3658 9.55327C38.6773 9.74882 39.0286 9.84659 39.4197 9.84659Z" fill="black"/>
</svg>
