<svg viewBox="0 0 54 12" fill="none" stroke-width="2" stroke="currentColor" aria-hidden="true">
  <path d="M4.21591 11.1541C3.4768 11.1541 2.84044 10.9867 2.30682 10.652C1.77652 10.3139 1.36884 9.84825 1.08381 9.25497C0.798769 8.66169 0.65625 7.98224 0.65625 7.21662C0.65625 6.44105 0.802083 5.75663 1.09375 5.16335C1.38542 4.56676 1.7964 4.10109 2.3267 3.76633C2.85701 3.43158 3.48177 3.2642 4.20099 3.2642C4.78101 3.2642 5.29806 3.37192 5.75213 3.58736C6.2062 3.79948 6.57244 4.09777 6.85085 4.48224C7.13258 4.86671 7.29995 5.31581 7.35298 5.82955H5.90625C5.8267 5.47159 5.64441 5.16335 5.35938 4.90483C5.07765 4.64631 4.69981 4.51705 4.22585 4.51705C3.81155 4.51705 3.44863 4.62642 3.13707 4.84517C2.82884 5.06061 2.58854 5.36884 2.41619 5.76989C2.24384 6.16761 2.15767 6.63826 2.15767 7.18182C2.15767 7.73864 2.24219 8.21922 2.41122 8.62358C2.58026 9.02794 2.81889 9.34115 3.12713 9.56321C3.43868 9.78527 3.80492 9.89631 4.22585 9.89631C4.50758 9.89631 4.76278 9.84493 4.99148 9.74219C5.22349 9.63613 5.41738 9.48532 5.57315 9.28977C5.73224 9.09422 5.84328 8.8589 5.90625 8.58381H7.35298C7.29995 9.07765 7.1392 9.51847 6.87074 9.90625C6.60227 10.294 6.24266 10.599 5.7919 10.821C5.34446 11.0431 4.81913 11.1541 4.21591 11.1541ZM13.78 7.8331V3.36364H15.2715V11H13.8098V9.67756H13.7303C13.5546 10.0852 13.2729 10.425 12.8851 10.6967C12.5007 10.9652 12.0217 11.0994 11.4483 11.0994C10.9578 11.0994 10.5236 10.9917 10.1458 10.7763C9.77125 10.5575 9.47627 10.2344 9.26083 9.80682C9.04871 9.37926 8.94265 8.85062 8.94265 8.22088V3.36364H10.4292V8.0419C10.4292 8.56226 10.5733 8.97656 10.8617 9.2848C11.15 9.59304 11.5246 9.74716 11.9853 9.74716C12.2637 9.74716 12.5404 9.67756 12.8155 9.53835C13.0939 9.39915 13.3243 9.18868 13.5066 8.90696C13.6922 8.62524 13.7833 8.26728 13.78 7.8331ZM17.3881 11V0.818182H18.8746V4.60156H18.9641C19.0503 4.44247 19.1746 4.25852 19.337 4.04972C19.4994 3.84091 19.7248 3.65862 20.0131 3.50284C20.3015 3.34375 20.6826 3.2642 21.1566 3.2642C21.7731 3.2642 22.3233 3.41998 22.8072 3.73153C23.2911 4.04309 23.6706 4.49219 23.9457 5.07884C24.2241 5.66548 24.3633 6.37145 24.3633 7.19673C24.3633 8.02202 24.2257 8.72964 23.9506 9.3196C23.6755 9.90625 23.2977 10.3587 22.8171 10.6768C22.3365 10.9917 21.788 11.1491 21.1715 11.1491C20.7075 11.1491 20.328 11.0713 20.033 10.9155C19.7414 10.7597 19.5127 10.5774 19.3469 10.3686C19.1812 10.1598 19.0536 9.9742 18.9641 9.81179H18.8398V11H17.3881ZM18.8448 7.18182C18.8448 7.71875 18.9227 8.18939 19.0785 8.59375C19.2343 8.99811 19.4596 9.31463 19.7546 9.54332C20.0496 9.7687 20.4109 9.88139 20.8384 9.88139C21.2826 9.88139 21.6538 9.76373 21.9521 9.52841C22.2504 9.28977 22.4757 8.96662 22.6282 8.55895C22.784 8.15128 22.8619 7.69223 22.8619 7.18182C22.8619 6.67803 22.7856 6.22562 22.6332 5.82457C22.484 5.42353 22.2586 5.10701 21.957 4.875C21.6587 4.64299 21.2859 4.52699 20.8384 4.52699C20.4076 4.52699 20.043 4.63802 19.7447 4.86009C19.4497 5.08215 19.226 5.39205 19.0735 5.78977C18.921 6.1875 18.8448 6.65151 18.8448 7.18182ZM29.3237 11.1541C28.5713 11.1541 27.9234 10.9934 27.3798 10.6719C26.8395 10.3471 26.4219 9.89134 26.127 9.30469C25.8353 8.71473 25.6895 8.02367 25.6895 7.23153C25.6895 6.44934 25.8353 5.75994 26.127 5.16335C26.4219 4.56676 26.8329 4.10109 27.3599 3.76633C27.8902 3.43158 28.51 3.2642 29.2193 3.2642C29.6502 3.2642 30.0678 3.33546 30.4721 3.47798C30.8765 3.6205 31.2394 3.84422 31.5609 4.14915C31.8824 4.45407 32.1359 4.85014 32.3216 5.33736C32.5072 5.82126 32.6 6.40956 32.6 7.10227V7.62926H26.5297V6.51562H31.1433C31.1433 6.12453 31.0637 5.77817 30.9047 5.47656C30.7456 5.17164 30.5218 4.93134 30.2335 4.75568C29.9484 4.58002 29.6137 4.49219 29.2292 4.49219C28.8116 4.49219 28.447 4.59493 28.1355 4.80043C27.8272 5.0026 27.5886 5.26776 27.4196 5.59588C27.2538 5.92069 27.171 6.27367 27.171 6.65483V7.52486C27.171 8.03527 27.2605 8.46946 27.4395 8.82741C27.6217 9.18537 27.8753 9.45881 28.2001 9.64773C28.5249 9.83333 28.9044 9.92614 29.3386 9.92614C29.6203 9.92614 29.8772 9.88636 30.1092 9.80682C30.3412 9.72396 30.5417 9.60133 30.7108 9.43892C30.8798 9.27652 31.0091 9.07599 31.0985 8.83736L32.5055 9.09091C32.3928 9.50521 32.1906 9.86813 31.899 10.1797C31.6106 10.4879 31.2477 10.7282 30.8102 10.9006C30.376 11.0696 29.8805 11.1541 29.3237 11.1541ZM38.7486 6.05327V7.34091H34.2344V6.05327H38.7486ZM44.2546 11.169C43.4691 11.1657 42.7979 10.9586 42.2411 10.5476C41.6843 10.1366 41.2584 9.53835 40.9634 8.75284C40.6684 7.96733 40.521 7.02107 40.521 5.91406C40.521 4.81037 40.6684 3.86742 40.9634 3.08523C41.2617 2.30303 41.6893 1.70644 42.2461 1.29545C42.8062 0.884469 43.4757 0.678977 44.2546 0.678977C45.0335 0.678977 45.7013 0.886126 46.2582 1.30043C46.815 1.71141 47.2409 2.308 47.5359 3.0902C47.8342 3.86908 47.9833 4.81037 47.9833 5.91406C47.9833 7.02438 47.8358 7.9723 47.5408 8.75781C47.2459 9.54001 46.82 10.1383 46.2631 10.5526C45.7063 10.9635 45.0368 11.169 44.2546 11.169ZM44.2546 9.84162C44.944 9.84162 45.4826 9.50521 45.8704 8.83239C46.2615 8.15956 46.457 7.18679 46.457 5.91406C46.457 5.06889 46.3675 4.35464 46.1886 3.77131C46.0129 3.18466 45.7594 2.74053 45.4279 2.43892C45.0998 2.134 44.7087 1.98153 44.2546 1.98153C43.5685 1.98153 43.0299 2.3196 42.6388 2.99574C42.2478 3.67187 42.0505 4.64465 42.0472 5.91406C42.0472 6.76255 42.1351 7.48011 42.3107 8.06676C42.4897 8.65009 42.7433 9.09257 43.0714 9.39418C43.3995 9.69247 43.7939 9.84162 44.2546 9.84162ZM53.6099 0.818182V11H52.0687V2.35938H52.0091L49.573 3.95028V2.47869L52.1135 0.818182H53.6099Z" fill="black"/>
</svg>
