<svg viewBox="0 0 85 12" fill="none" stroke-width="2" stroke="currentColor" aria-hidden="true">
  <path d="M4.21591 11.1541C3.4768 11.1541 2.84044 10.9867 2.30682 10.652C1.77652 10.3139 1.36884 9.84825 1.08381 9.25497C0.798769 8.66169 0.65625 7.98224 0.65625 7.21662C0.65625 6.44105 0.802083 5.75663 1.09375 5.16335C1.38542 4.56676 1.7964 4.10109 2.3267 3.76633C2.85701 3.43158 3.48177 3.2642 4.20099 3.2642C4.78101 3.2642 5.29806 3.37192 5.75213 3.58736C6.2062 3.79948 6.57244 4.09777 6.85085 4.48224C7.13258 4.86671 7.29995 5.31581 7.35298 5.82955H5.90625C5.8267 5.47159 5.64441 5.16335 5.35938 4.90483C5.07765 4.64631 4.69981 4.51705 4.22585 4.51705C3.81155 4.51705 3.44863 4.62642 3.13707 4.84517C2.82884 5.06061 2.58854 5.36884 2.41619 5.76989C2.24384 6.16761 2.15767 6.63826 2.15767 7.18182C2.15767 7.73864 2.24219 8.21922 2.41122 8.62358C2.58026 9.02794 2.81889 9.34115 3.12713 9.56321C3.43868 9.78527 3.80492 9.89631 4.22585 9.89631C4.50758 9.89631 4.76278 9.84493 4.99148 9.74219C5.22349 9.63613 5.41738 9.48532 5.57315 9.28977C5.73224 9.09422 5.84328 8.8589 5.90625 8.58381H7.35298C7.29995 9.07765 7.1392 9.51847 6.87074 9.90625C6.60227 10.294 6.24266 10.599 5.7919 10.821C5.34446 11.0431 4.81913 11.1541 4.21591 11.1541ZM13.78 7.8331V3.36364H15.2715V11H13.8098V9.67756H13.7303C13.5546 10.0852 13.2729 10.425 12.8851 10.6967C12.5007 10.9652 12.0217 11.0994 11.4483 11.0994C10.9578 11.0994 10.5236 10.9917 10.1458 10.7763C9.77125 10.5575 9.47627 10.2344 9.26083 9.80682C9.04871 9.37926 8.94265 8.85062 8.94265 8.22088V3.36364H10.4292V8.0419C10.4292 8.56226 10.5733 8.97656 10.8617 9.2848C11.15 9.59304 11.5246 9.74716 11.9853 9.74716C12.2637 9.74716 12.5404 9.67756 12.8155 9.53835C13.0939 9.39915 13.3243 9.18868 13.5066 8.90696C13.6922 8.62524 13.7833 8.26728 13.78 7.8331ZM17.3881 11V0.818182H18.8746V4.60156H18.9641C19.0503 4.44247 19.1746 4.25852 19.337 4.04972C19.4994 3.84091 19.7248 3.65862 20.0131 3.50284C20.3015 3.34375 20.6826 3.2642 21.1566 3.2642C21.7731 3.2642 22.3233 3.41998 22.8072 3.73153C23.2911 4.04309 23.6706 4.49219 23.9457 5.07884C24.2241 5.66548 24.3633 6.37145 24.3633 7.19673C24.3633 8.02202 24.2257 8.72964 23.9506 9.3196C23.6755 9.90625 23.2977 10.3587 22.8171 10.6768C22.3365 10.9917 21.788 11.1491 21.1715 11.1491C20.7075 11.1491 20.328 11.0713 20.033 10.9155C19.7414 10.7597 19.5127 10.5774 19.3469 10.3686C19.1812 10.1598 19.0536 9.9742 18.9641 9.81179H18.8398V11H17.3881ZM18.8448 7.18182C18.8448 7.71875 18.9227 8.18939 19.0785 8.59375C19.2343 8.99811 19.4596 9.31463 19.7546 9.54332C20.0496 9.7687 20.4109 9.88139 20.8384 9.88139C21.2826 9.88139 21.6538 9.76373 21.9521 9.52841C22.2504 9.28977 22.4757 8.96662 22.6282 8.55895C22.784 8.15128 22.8619 7.69223 22.8619 7.18182C22.8619 6.67803 22.7856 6.22562 22.6332 5.82457C22.484 5.42353 22.2586 5.10701 21.957 4.875C21.6587 4.64299 21.2859 4.52699 20.8384 4.52699C20.4076 4.52699 20.043 4.63802 19.7447 4.86009C19.4497 5.08215 19.226 5.39205 19.0735 5.78977C18.921 6.1875 18.8448 6.65151 18.8448 7.18182ZM29.3237 11.1541C28.5713 11.1541 27.9234 10.9934 27.3798 10.6719C26.8395 10.3471 26.4219 9.89134 26.127 9.30469C25.8353 8.71473 25.6895 8.02367 25.6895 7.23153C25.6895 6.44934 25.8353 5.75994 26.127 5.16335C26.4219 4.56676 26.8329 4.10109 27.3599 3.76633C27.8902 3.43158 28.51 3.2642 29.2193 3.2642C29.6502 3.2642 30.0678 3.33546 30.4721 3.47798C30.8765 3.6205 31.2394 3.84422 31.5609 4.14915C31.8824 4.45407 32.1359 4.85014 32.3216 5.33736C32.5072 5.82126 32.6 6.40956 32.6 7.10227V7.62926H26.5297V6.51562H31.1433C31.1433 6.12453 31.0637 5.77817 30.9047 5.47656C30.7456 5.17164 30.5218 4.93134 30.2335 4.75568C29.9484 4.58002 29.6137 4.49219 29.2292 4.49219C28.8116 4.49219 28.447 4.59493 28.1355 4.80043C27.8272 5.0026 27.5886 5.26776 27.4196 5.59588C27.2538 5.92069 27.171 6.27367 27.171 6.65483V7.52486C27.171 8.03527 27.2605 8.46946 27.4395 8.82741C27.6217 9.18537 27.8753 9.45881 28.2001 9.64773C28.5249 9.83333 28.9044 9.92614 29.3386 9.92614C29.6203 9.92614 29.8772 9.88636 30.1092 9.80682C30.3412 9.72396 30.5417 9.60133 30.7108 9.43892C30.8798 9.27652 31.0091 9.07599 31.0985 8.83736L32.5055 9.09091C32.3928 9.50521 32.1906 9.86813 31.899 10.1797C31.6106 10.4879 31.2477 10.7282 30.8102 10.9006C30.376 11.0696 29.8805 11.1541 29.3237 11.1541ZM38.7486 6.05327V7.34091H34.2344V6.05327H38.7486ZM43.9464 11.1541C43.2305 11.1541 42.6057 10.9901 42.0721 10.6619C41.5385 10.3338 41.1242 9.87476 40.8292 9.2848C40.5342 8.69484 40.3867 8.00544 40.3867 7.21662C40.3867 6.42448 40.5342 5.73177 40.8292 5.13849C41.1242 4.54522 41.5385 4.08452 42.0721 3.75639C42.6057 3.42827 43.2305 3.2642 43.9464 3.2642C44.6623 3.2642 45.2871 3.42827 45.8207 3.75639C46.3543 4.08452 46.7686 4.54522 47.0636 5.13849C47.3585 5.73177 47.506 6.42448 47.506 7.21662C47.506 8.00544 47.3585 8.69484 47.0636 9.2848C46.7686 9.87476 46.3543 10.3338 45.8207 10.6619C45.2871 10.9901 44.6623 11.1541 43.9464 11.1541ZM43.9513 9.90625C44.4154 9.90625 44.7998 9.78362 45.1048 9.53835C45.4097 9.29309 45.6351 8.96662 45.7809 8.55895C45.93 8.15128 46.0046 7.70218 46.0046 7.21165C46.0046 6.72443 45.93 6.27699 45.7809 5.86932C45.6351 5.45833 45.4097 5.12855 45.1048 4.87997C44.7998 4.63139 44.4154 4.5071 43.9513 4.5071C43.484 4.5071 43.0962 4.63139 42.788 4.87997C42.4831 5.12855 42.256 5.45833 42.1069 5.86932C41.9611 6.27699 41.8881 6.72443 41.8881 7.21165C41.8881 7.70218 41.9611 8.15128 42.1069 8.55895C42.256 8.96662 42.4831 9.29309 42.788 9.53835C43.0962 9.78362 43.484 9.90625 43.9513 9.90625ZM54.0027 7.8331V3.36364H55.4941V11H54.0325V9.67756H53.9529C53.7773 10.0852 53.4956 10.425 53.1078 10.6967C52.7233 10.9652 52.2444 11.0994 51.671 11.0994C51.1805 11.0994 50.7463 10.9917 50.3684 10.7763C49.9939 10.5575 49.6989 10.2344 49.4835 9.80682C49.2714 9.37926 49.1653 8.85062 49.1653 8.22088V3.36364H50.6518V8.0419C50.6518 8.56226 50.796 8.97656 51.0843 9.2848C51.3727 9.59304 51.7472 9.74716 52.2079 9.74716C52.4863 9.74716 52.7631 9.67756 53.0382 9.53835C53.3166 9.39915 53.5469 9.18868 53.7292 8.90696C53.9148 8.62524 54.006 8.26728 54.0027 7.8331ZM61.0561 3.36364V4.55682H56.8849V3.36364H61.0561ZM58.0036 1.53409H59.4901V8.75781C59.4901 9.04616 59.5331 9.26326 59.6193 9.40909C59.7055 9.55161 59.8165 9.64938 59.9524 9.70241C60.0916 9.75213 60.2424 9.77699 60.4048 9.77699C60.5241 9.77699 60.6286 9.7687 60.718 9.75213C60.8075 9.73556 60.8771 9.7223 60.9268 9.71236L61.1953 10.9403C61.1091 10.9735 60.9865 11.0066 60.8274 11.0398C60.6683 11.0762 60.4695 11.0961 60.2308 11.0994C59.8397 11.1061 59.4751 11.0365 59.1371 10.8906C58.799 10.7448 58.5256 10.5194 58.3168 10.2145C58.108 9.90956 58.0036 9.52675 58.0036 9.06605V1.53409ZM64.351 0.818182V11H62.8645V0.818182H64.351ZM66.3509 11V3.36364H67.8374V11H66.3509ZM67.1016 2.18537C66.843 2.18537 66.621 2.09919 66.4354 1.92685C66.2531 1.75118 66.1619 1.54238 66.1619 1.30043C66.1619 1.05516 66.2531 0.846354 66.4354 0.674005C66.621 0.498342 66.843 0.410511 67.1016 0.410511C67.3601 0.410511 67.5805 0.498342 67.7628 0.674005C67.9484 0.846354 68.0412 1.05516 68.0412 1.30043C68.0412 1.54238 67.9484 1.75118 67.7628 1.92685C67.5805 2.09919 67.3601 2.18537 67.1016 2.18537ZM71.3237 6.46591V11H69.8372V3.36364H71.264V4.60653H71.3585C71.5342 4.20218 71.8092 3.87737 72.1838 3.6321C72.5616 3.38684 73.0372 3.2642 73.6106 3.2642C74.131 3.2642 74.5867 3.37358 74.9778 3.59233C75.3689 3.80777 75.6722 4.12926 75.8876 4.55682C76.103 4.98437 76.2108 5.51302 76.2108 6.14276V11H74.7243V6.32173C74.7243 5.76823 74.5801 5.3357 74.2917 5.02415C74.0034 4.70928 73.6073 4.55185 73.1035 4.55185C72.7588 4.55185 72.4522 4.62642 72.1838 4.77557C71.9186 4.92472 71.7082 5.14347 71.5524 5.43182C71.3999 5.71686 71.3237 6.06155 71.3237 6.46591ZM81.4956 11.1541C80.7432 11.1541 80.0952 10.9934 79.5517 10.6719C79.0114 10.3471 78.5938 9.89134 78.2988 9.30469C78.0072 8.71473 77.8613 8.02367 77.8613 7.23153C77.8613 6.44934 78.0072 5.75994 78.2988 5.16335C78.5938 4.56676 79.0048 4.10109 79.5318 3.76633C80.0621 3.43158 80.6819 3.2642 81.3912 3.2642C81.822 3.2642 82.2396 3.33546 82.644 3.47798C83.0484 3.6205 83.4113 3.84422 83.7328 4.14915C84.0543 4.45407 84.3078 4.85014 84.4934 5.33736C84.679 5.82126 84.7718 6.40956 84.7718 7.10227V7.62926H78.7015V6.51562H83.3152C83.3152 6.12453 83.2356 5.77817 83.0765 5.47656C82.9174 5.17164 82.6937 4.93134 82.4054 4.75568C82.1203 4.58002 81.7856 4.49219 81.4011 4.49219C80.9835 4.49219 80.6189 4.59493 80.3074 4.80043C79.9991 5.0026 79.7605 5.26776 79.5914 5.59588C79.4257 5.92069 79.3429 6.27367 79.3429 6.65483V7.52486C79.3429 8.03527 79.4324 8.46946 79.6113 8.82741C79.7936 9.18537 80.0472 9.45881 80.372 9.64773C80.6968 9.83333 81.0763 9.92614 81.5105 9.92614C81.7922 9.92614 82.0491 9.88636 82.2811 9.80682C82.5131 9.72396 82.7136 9.60133 82.8826 9.43892C83.0517 9.27652 83.1809 9.07599 83.2704 8.83736L84.6774 9.09091C84.5647 9.50521 84.3625 9.86813 84.0708 10.1797C83.7825 10.4879 83.4196 10.7282 82.9821 10.9006C82.5479 11.0696 82.0524 11.1541 81.4956 11.1541Z" fill="black"/>
</svg>
