<svg viewBox="0 0 90 14" fill="none" stroke-width="2" stroke="currentColor" aria-hidden="true">
  <path d="M-0.000710189 11V3.36364H1.42614V4.60653H1.5206C1.67969 4.18561 1.93987 3.85748 2.30114 3.62216C2.66241 3.38352 3.09493 3.2642 3.59872 3.2642C4.10914 3.2642 4.5367 3.38352 4.88139 3.62216C5.2294 3.8608 5.48627 4.18892 5.65199 4.60653H5.73153C5.91383 4.19886 6.20384 3.87405 6.60156 3.6321C6.99929 3.38684 7.47325 3.2642 8.02344 3.2642C8.71615 3.2642 9.28125 3.4813 9.71875 3.91548C10.1596 4.34967 10.38 5.00426 10.38 5.87926V11H8.89347V6.01847C8.89347 5.50142 8.7526 5.12689 8.47088 4.89489C8.18916 4.66288 7.85275 4.54688 7.46165 4.54688C6.97775 4.54688 6.60156 4.69602 6.3331 4.99432C6.06463 5.2893 5.9304 5.6688 5.9304 6.13281V11H4.44886V5.92401C4.44886 5.50971 4.3196 5.17661 4.06108 4.92472C3.80256 4.67282 3.46615 4.54688 3.05185 4.54688C2.77012 4.54688 2.50994 4.62145 2.27131 4.7706C2.03599 4.91643 1.84541 5.12026 1.69957 5.3821C1.55706 5.64394 1.4858 5.94721 1.4858 6.2919V11H-0.000710189ZM15.589 11.1541C14.873 11.1541 14.2483 10.9901 13.7147 10.6619C13.181 10.3338 12.7667 9.87476 12.4718 9.2848C12.1768 8.69484 12.0293 8.00544 12.0293 7.21662C12.0293 6.42448 12.1768 5.73177 12.4718 5.13849C12.7667 4.54522 13.181 4.08452 13.7147 3.75639C14.2483 3.42827 14.873 3.2642 15.589 3.2642C16.3049 3.2642 16.9296 3.42827 17.4632 3.75639C17.9969 4.08452 18.4112 4.54522 18.7061 5.13849C19.0011 5.73177 19.1486 6.42448 19.1486 7.21662C19.1486 8.00544 19.0011 8.69484 18.7061 9.2848C18.4112 9.87476 17.9969 10.3338 17.4632 10.6619C16.9296 10.9901 16.3049 11.1541 15.589 11.1541ZM15.5939 9.90625C16.0579 9.90625 16.4424 9.78362 16.7473 9.53835C17.0523 9.29309 17.2776 8.96662 17.4235 8.55895C17.5726 8.15128 17.6472 7.70218 17.6472 7.21165C17.6472 6.72443 17.5726 6.27699 17.4235 5.86932C17.2776 5.45833 17.0523 5.12855 16.7473 4.87997C16.4424 4.63139 16.0579 4.5071 15.5939 4.5071C15.1266 4.5071 14.7388 4.63139 14.4306 4.87997C14.1257 5.12855 13.8986 5.45833 13.7495 5.86932C13.6036 6.27699 13.5307 6.72443 13.5307 7.21165C13.5307 7.70218 13.6036 8.15128 13.7495 8.55895C13.8986 8.96662 14.1257 9.29309 14.4306 9.53835C14.7388 9.78362 15.1266 9.90625 15.5939 9.90625ZM24.0245 11.1541C23.3086 11.1541 22.6838 10.9901 22.1502 10.6619C21.6166 10.3338 21.2023 9.87476 20.9073 9.2848C20.6123 8.69484 20.4648 8.00544 20.4648 7.21662C20.4648 6.42448 20.6123 5.73177 20.9073 5.13849C21.2023 4.54522 21.6166 4.08452 22.1502 3.75639C22.6838 3.42827 23.3086 3.2642 24.0245 3.2642C24.7404 3.2642 25.3652 3.42827 25.8988 3.75639C26.4324 4.08452 26.8467 4.54522 27.1417 5.13849C27.4367 5.73177 27.5842 6.42448 27.5842 7.21662C27.5842 8.00544 27.4367 8.69484 27.1417 9.2848C26.8467 9.87476 26.4324 10.3338 25.8988 10.6619C25.3652 10.9901 24.7404 11.1541 24.0245 11.1541ZM24.0295 9.90625C24.4935 9.90625 24.878 9.78362 25.1829 9.53835C25.4878 9.29309 25.7132 8.96662 25.859 8.55895C26.0082 8.15128 26.0827 7.70218 26.0827 7.21165C26.0827 6.72443 26.0082 6.27699 25.859 5.86932C25.7132 5.45833 25.4878 5.12855 25.1829 4.87997C24.878 4.63139 24.4935 4.5071 24.0295 4.5071C23.5621 4.5071 23.1744 4.63139 22.8661 4.87997C22.5612 5.12855 22.3342 5.45833 22.185 5.86932C22.0392 6.27699 21.9663 6.72443 21.9663 7.21165C21.9663 7.70218 22.0392 8.15128 22.185 8.55895C22.3342 8.96662 22.5612 9.29309 22.8661 9.53835C23.1744 9.78362 23.5621 9.90625 24.0295 9.90625ZM30.7299 6.46591V11H29.2434V3.36364H30.6703V4.60653H30.7647C30.9404 4.20218 31.2155 3.87737 31.59 3.6321C31.9679 3.38684 32.4435 3.2642 33.0169 3.2642C33.5372 3.2642 33.993 3.37358 34.3841 3.59233C34.7752 3.80777 35.0784 4.12926 35.2939 4.55682C35.5093 4.98437 35.617 5.51302 35.617 6.14276V11H34.1305V6.32173C34.1305 5.76823 33.9863 5.3357 33.698 5.02415C33.4096 4.70928 33.0136 4.55185 32.5098 4.55185C32.1651 4.55185 31.8585 4.62642 31.59 4.77557C31.3249 4.92472 31.1144 5.14347 30.9586 5.43182C30.8062 5.71686 30.7299 6.06155 30.7299 6.46591ZM42.1099 6.05327V7.34091H37.5957V6.05327H42.1099ZM47.3823 11.1541C46.6299 11.1541 45.9819 10.9934 45.4384 10.6719C44.8981 10.3471 44.4805 9.89134 44.1855 9.30469C43.8939 8.71473 43.748 8.02367 43.748 7.23153C43.748 6.44934 43.8939 5.75994 44.1855 5.16335C44.4805 4.56676 44.8915 4.10109 45.4185 3.76633C45.9488 3.43158 46.5686 3.2642 47.2779 3.2642C47.7087 3.2642 48.1264 3.33546 48.5307 3.47798C48.9351 3.6205 49.298 3.84422 49.6195 4.14915C49.941 4.45407 50.1945 4.85014 50.3801 5.33736C50.5658 5.82126 50.6586 6.40956 50.6586 7.10227V7.62926H44.5882V6.51562H49.2019C49.2019 6.12453 49.1223 5.77817 48.9632 5.47656C48.8042 5.17164 48.5804 4.93134 48.2921 4.75568C48.007 4.58002 47.6723 4.49219 47.2878 4.49219C46.8702 4.49219 46.5056 4.59493 46.1941 4.80043C45.8858 5.0026 45.6472 5.26776 45.4782 5.59588C45.3124 5.92069 45.2296 6.27367 45.2296 6.65483V7.52486C45.2296 8.03527 45.3191 8.46946 45.498 8.82741C45.6803 9.18537 45.9339 9.45881 46.2587 9.64773C46.5835 9.83333 46.963 9.92614 47.3972 9.92614C47.6789 9.92614 47.9358 9.88636 48.1678 9.80682C48.3998 9.72396 48.6003 9.60133 48.7694 9.43892C48.9384 9.27652 49.0676 9.07599 49.1571 8.83736L50.5641 9.09091C50.4514 9.50521 50.2492 9.86813 49.9576 10.1797C49.6692 10.4879 49.3063 10.7282 48.8688 10.9006C48.4346 11.0696 47.9391 11.1541 47.3823 11.1541ZM55.5245 11.1541C54.7854 11.1541 54.149 10.9867 53.6154 10.652C53.0851 10.3139 52.6774 9.84825 52.3924 9.25497C52.1074 8.66169 51.9648 7.98224 51.9648 7.21662C51.9648 6.44105 52.1107 5.75663 52.4023 5.16335C52.694 4.56676 53.105 4.10109 53.6353 3.76633C54.1656 3.43158 54.7904 3.2642 55.5096 3.2642C56.0896 3.2642 56.6067 3.37192 57.0607 3.58736C57.5148 3.79948 57.881 4.09777 58.1594 4.48224C58.4412 4.86671 58.6085 5.31581 58.6616 5.82955H57.2148C57.1353 5.47159 56.953 5.16335 56.668 4.90483C56.3862 4.64631 56.0084 4.51705 55.5344 4.51705C55.1201 4.51705 54.7572 4.62642 54.4457 4.84517C54.1374 5.06061 53.8971 5.36884 53.7248 5.76989C53.5524 6.16761 53.4663 6.63826 53.4663 7.18182C53.4663 7.73864 53.5508 8.21922 53.7198 8.62358C53.8888 9.02794 54.1275 9.34115 54.4357 9.56321C54.7473 9.78527 55.1135 9.89631 55.5344 9.89631C55.8162 9.89631 56.0714 9.84493 56.3001 9.74219C56.5321 9.63613 56.726 9.48532 56.8817 9.28977C57.0408 9.09422 57.1519 8.8589 57.2148 8.58381H58.6616C58.6085 9.07765 58.4478 9.51847 58.1793 9.90625C57.9109 10.294 57.5513 10.599 57.1005 10.821C56.6531 11.0431 56.1277 11.1541 55.5245 11.1541ZM61.7377 0.818182V11H60.2512V0.818182H61.7377ZM63.7376 11V3.36364H65.2241V11H63.7376ZM64.4883 2.18537C64.2298 2.18537 64.0077 2.09919 63.8221 1.92685C63.6398 1.75118 63.5487 1.54238 63.5487 1.30043C63.5487 1.05516 63.6398 0.846354 63.8221 0.674005C64.0077 0.498342 64.2298 0.410511 64.4883 0.410511C64.7468 0.410511 64.9672 0.498342 65.1495 0.674005C65.3351 0.846354 65.4279 1.05516 65.4279 1.30043C65.4279 1.54238 65.3351 1.75118 65.1495 1.92685C64.9672 2.09919 64.7468 2.18537 64.4883 2.18537ZM67.2239 13.8636V3.36364H68.6756V4.60156H68.7999C68.8861 4.44247 69.0104 4.25852 69.1728 4.04972C69.3352 3.84091 69.5605 3.65862 69.8489 3.50284C70.1373 3.34375 70.5184 3.2642 70.9924 3.2642C71.6088 3.2642 72.159 3.41998 72.6429 3.73153C73.1268 4.04309 73.5063 4.49219 73.7814 5.07884C74.0598 5.66548 74.199 6.37145 74.199 7.19673C74.199 8.02202 74.0615 8.72964 73.7864 9.3196C73.5113 9.90625 73.1335 10.3587 72.6529 10.6768C72.1723 10.9917 71.6238 11.1491 71.0073 11.1491C70.5433 11.1491 70.1638 11.0713 69.8688 10.9155C69.5771 10.7597 69.3484 10.5774 69.1827 10.3686C69.017 10.1598 68.8894 9.9742 68.7999 9.81179H68.7104V13.8636H67.2239ZM68.6806 7.18182C68.6806 7.71875 68.7585 8.18939 68.9142 8.59375C69.07 8.99811 69.2954 9.31463 69.5904 9.54332C69.8854 9.7687 70.2466 9.88139 70.6742 9.88139C71.1183 9.88139 71.4895 9.76373 71.7878 9.52841C72.0861 9.28977 72.3115 8.96662 72.464 8.55895C72.6197 8.15128 72.6976 7.69223 72.6976 7.18182C72.6976 6.67803 72.6214 6.22562 72.4689 5.82457C72.3198 5.42353 72.0944 5.10701 71.7928 4.875C71.4945 4.64299 71.1216 4.52699 70.6742 4.52699C70.2433 4.52699 69.8787 4.63802 69.5804 4.86009C69.2855 5.08215 69.0617 5.39205 68.9093 5.78977C68.7568 6.1875 68.6806 6.65151 68.6806 7.18182ZM81.5868 5.22798L80.2395 5.46662C80.1832 5.29427 80.0937 5.13021 79.9711 4.97443C79.8517 4.81865 79.6893 4.69105 79.4838 4.59162C79.2784 4.49219 79.0215 4.44247 78.7132 4.44247C78.2923 4.44247 77.941 4.53693 77.6593 4.72585C77.3775 4.91146 77.2367 5.15175 77.2367 5.44673C77.2367 5.70194 77.3311 5.90743 77.5201 6.06321C77.709 6.21899 78.0139 6.34659 78.4348 6.44602L79.6479 6.72443C80.3506 6.88684 80.8742 7.13707 81.2189 7.47514C81.5636 7.81321 81.736 8.25237 81.736 8.79261C81.736 9.25 81.6034 9.65767 81.3382 10.0156C81.0764 10.3703 80.7102 10.6487 80.2395 10.8509C79.7722 11.053 79.2303 11.1541 78.6138 11.1541C77.7587 11.1541 77.061 10.9718 76.5208 10.6072C75.9805 10.2393 75.6491 9.71733 75.5265 9.04119L76.9632 8.82244C77.0527 9.19697 77.2367 9.48035 77.5151 9.67259C77.7935 9.86151 78.1564 9.95597 78.6039 9.95597C79.0911 9.95597 79.4805 9.85488 79.7722 9.6527C80.0639 9.44721 80.2097 9.19697 80.2097 8.90199C80.2097 8.66335 80.1202 8.46283 79.9412 8.30043C79.7656 8.13802 79.4954 8.01539 79.1309 7.93253L77.8382 7.64915C77.1257 7.48674 76.5987 7.22822 76.2573 6.87358C75.9192 6.51894 75.7502 6.06984 75.7502 5.52628C75.7502 5.07552 75.8761 4.68111 76.128 4.34304C76.3799 4.00497 76.7279 3.74148 77.1721 3.55256C77.6162 3.36032 78.1249 3.2642 78.6983 3.2642C79.5236 3.2642 80.1732 3.44318 80.6472 3.80114C81.1212 4.15578 81.4344 4.63139 81.5868 5.22798ZM86.6616 11.1541C85.9092 11.1541 85.2612 10.9934 84.7177 10.6719C84.1774 10.3471 83.7598 9.89134 83.4648 9.30469C83.1732 8.71473 83.0273 8.02367 83.0273 7.23153C83.0273 6.44934 83.1732 5.75994 83.4648 5.16335C83.7598 4.56676 84.1708 4.10109 84.6978 3.76633C85.2281 3.43158 85.8479 3.2642 86.5572 3.2642C86.988 3.2642 87.4057 3.33546 87.81 3.47798C88.2144 3.6205 88.5773 3.84422 88.8988 4.14915C89.2203 4.45407 89.4738 4.85014 89.6594 5.33736C89.8451 5.82126 89.9379 6.40956 89.9379 7.10227V7.62926H83.8675V6.51562H88.4812C88.4812 6.12453 88.4016 5.77817 88.2425 5.47656C88.0835 5.17164 87.8597 4.93134 87.5714 4.75568C87.2863 4.58002 86.9516 4.49219 86.5671 4.49219C86.1495 4.49219 85.7849 4.59493 85.4734 4.80043C85.1651 5.0026 84.9265 5.26776 84.7575 5.59588C84.5917 5.92069 84.5089 6.27367 84.5089 6.65483V7.52486C84.5089 8.03527 84.5984 8.46946 84.7773 8.82741C84.9596 9.18537 85.2132 9.45881 85.538 9.64773C85.8628 9.83333 86.2423 9.92614 86.6765 9.92614C86.9582 9.92614 87.2151 9.88636 87.4471 9.80682C87.6791 9.72396 87.8796 9.60133 88.0487 9.43892C88.2177 9.27652 88.3469 9.07599 88.4364 8.83736L89.8434 9.09091C89.7307 9.50521 89.5285 9.86813 89.2369 10.1797C88.9485 10.4879 88.5856 10.7282 88.1481 10.9006C87.7139 11.0696 87.2184 11.1541 86.6616 11.1541Z" fill="black"/>
</svg>
