<svg viewBox="0 0 58 12" fill="none" stroke-width="2" stroke="currentColor" aria-hidden="true">
  <path d="M4.21591 11.1541C3.4768 11.1541 2.84044 10.9867 2.30682 10.652C1.77652 10.3139 1.36884 9.84825 1.08381 9.25497C0.798769 8.66169 0.65625 7.98224 0.65625 7.21662C0.65625 6.44105 0.802083 5.75663 1.09375 5.16335C1.38542 4.56676 1.7964 4.10109 2.3267 3.76633C2.85701 3.43158 3.48177 3.2642 4.20099 3.2642C4.78101 3.2642 5.29806 3.37192 5.75213 3.58736C6.2062 3.79948 6.57244 4.09777 6.85085 4.48224C7.13258 4.86671 7.29995 5.31581 7.35298 5.82955H5.90625C5.8267 5.47159 5.64441 5.16335 5.35938 4.90483C5.07765 4.64631 4.69981 4.51705 4.22585 4.51705C3.81155 4.51705 3.44863 4.62642 3.13707 4.84517C2.82884 5.06061 2.58854 5.36884 2.41619 5.76989C2.24384 6.16761 2.15767 6.63826 2.15767 7.18182C2.15767 7.73864 2.24219 8.21922 2.41122 8.62358C2.58026 9.02794 2.81889 9.34115 3.12713 9.56321C3.43868 9.78527 3.80492 9.89631 4.22585 9.89631C4.50758 9.89631 4.76278 9.84493 4.99148 9.74219C5.22349 9.63613 5.41738 9.48532 5.57315 9.28977C5.73224 9.09422 5.84328 8.8589 5.90625 8.58381H7.35298C7.29995 9.07765 7.1392 9.51847 6.87074 9.90625C6.60227 10.294 6.24266 10.599 5.7919 10.821C5.34446 11.0431 4.81913 11.1541 4.21591 11.1541ZM10.4292 0.818182V11H8.94265V0.818182H10.4292ZM15.6456 11.1541C14.9297 11.1541 14.3049 10.9901 13.7713 10.6619C13.2377 10.3338 12.8234 9.87476 12.5284 9.2848C12.2334 8.69484 12.0859 8.00544 12.0859 7.21662C12.0859 6.42448 12.2334 5.73177 12.5284 5.13849C12.8234 4.54522 13.2377 4.08452 13.7713 3.75639C14.3049 3.42827 14.9297 3.2642 15.6456 3.2642C16.3615 3.2642 16.9863 3.42827 17.5199 3.75639C18.0535 4.08452 18.4678 4.54522 18.7628 5.13849C19.0578 5.73177 19.2053 6.42448 19.2053 7.21662C19.2053 8.00544 19.0578 8.69484 18.7628 9.2848C18.4678 9.87476 18.0535 10.3338 17.5199 10.6619C16.9863 10.9901 16.3615 11.1541 15.6456 11.1541ZM15.6506 9.90625C16.1146 9.90625 16.4991 9.78362 16.804 9.53835C17.1089 9.29309 17.3343 8.96662 17.4801 8.55895C17.6293 8.15128 17.7038 7.70218 17.7038 7.21165C17.7038 6.72443 17.6293 6.27699 17.4801 5.86932C17.3343 5.45833 17.1089 5.12855 16.804 4.87997C16.4991 4.63139 16.1146 4.5071 15.6506 4.5071C15.1832 4.5071 14.7955 4.63139 14.4872 4.87997C14.1823 5.12855 13.9553 5.45833 13.8061 5.86932C13.6603 6.27699 13.5874 6.72443 13.5874 7.21165C13.5874 7.70218 13.6603 8.15128 13.8061 8.55895C13.9553 8.96662 14.1823 9.29309 14.4872 9.53835C14.7955 9.78362 15.1832 9.90625 15.6506 9.90625ZM25.7019 7.8331V3.36364H27.1934V11H25.7317V9.67756H25.6522C25.4765 10.0852 25.1948 10.425 24.807 10.6967C24.4225 10.9652 23.9436 11.0994 23.3702 11.0994C22.8797 11.0994 22.4455 10.9917 22.0676 10.7763C21.6931 10.5575 21.3981 10.2344 21.1827 9.80682C20.9706 9.37926 20.8645 8.85062 20.8645 8.22088V3.36364H22.351V8.0419C22.351 8.56226 22.4952 8.97656 22.7836 9.2848C23.0719 9.59304 23.4464 9.74716 23.9071 9.74716C24.1855 9.74716 24.4623 9.67756 24.7374 9.53835C25.0158 9.39915 25.2462 9.18868 25.4284 8.90696C25.6141 8.62524 25.7052 8.26728 25.7019 7.8331ZM32.0494 11.1491C31.4329 11.1491 30.8827 10.9917 30.3988 10.6768C29.9182 10.3587 29.5404 9.90625 29.2653 9.3196C28.9935 8.72964 28.8576 8.02202 28.8576 7.19673C28.8576 6.37145 28.9951 5.66548 29.2702 5.07884C29.5487 4.49219 29.9298 4.04309 30.4137 3.73153C30.8976 3.41998 31.4461 3.2642 32.0593 3.2642C32.5333 3.2642 32.9144 3.34375 33.2028 3.50284C33.4944 3.65862 33.7198 3.84091 33.8789 4.04972C34.0413 4.25852 34.1673 4.44247 34.2567 4.60156H34.3462V0.818182H35.8327V11H34.381V9.81179H34.2567C34.1673 9.9742 34.038 10.1598 33.869 10.3686C33.7032 10.5774 33.4746 10.7597 33.1829 10.9155C32.8912 11.0713 32.5134 11.1491 32.0494 11.1491ZM32.3775 9.88139C32.805 9.88139 33.1663 9.7687 33.4613 9.54332C33.7596 9.31463 33.985 8.99811 34.1374 8.59375C34.2932 8.18939 34.3711 7.71875 34.3711 7.18182C34.3711 6.65151 34.2949 6.1875 34.1424 5.78977C33.9899 5.39205 33.7662 5.08215 33.4712 4.86009C33.1763 4.63802 32.8117 4.52699 32.3775 4.52699C31.93 4.52699 31.5572 4.64299 31.2589 4.875C30.9606 5.10701 30.7352 5.42353 30.5827 5.82457C30.4336 6.22562 30.359 6.67803 30.359 7.18182C30.359 7.69223 30.4353 8.15128 30.5877 8.55895C30.7402 8.96662 30.9656 9.28977 31.2638 9.52841C31.5655 9.76373 31.9367 9.88139 32.3775 9.88139ZM42.4537 6.05327V7.34091H37.9395V6.05327H42.4537ZM47.9597 11.169C47.1742 11.1657 46.503 10.9586 45.9462 10.5476C45.3894 10.1366 44.9635 9.53835 44.6685 8.75284C44.3735 7.96733 44.226 7.02107 44.226 5.91406C44.226 4.81037 44.3735 3.86742 44.6685 3.08523C44.9668 2.30303 45.3944 1.70644 45.9512 1.29545C46.5113 0.884469 47.1808 0.678977 47.9597 0.678977C48.7386 0.678977 49.4064 0.886126 49.9632 1.30043C50.5201 1.71141 50.946 2.308 51.2409 3.0902C51.5392 3.86908 51.6884 4.81037 51.6884 5.91406C51.6884 7.02438 51.5409 7.9723 51.2459 8.75781C50.9509 9.54001 50.525 10.1383 49.9682 10.5526C49.4114 10.9635 48.7419 11.169 47.9597 11.169ZM47.9597 9.84162C48.6491 9.84162 49.1877 9.50521 49.5755 8.83239C49.9666 8.15956 50.1621 7.18679 50.1621 5.91406C50.1621 5.06889 50.0726 4.35464 49.8936 3.77131C49.718 3.18466 49.4644 2.74053 49.133 2.43892C48.8049 2.134 48.4138 1.98153 47.9597 1.98153C47.2736 1.98153 46.735 2.3196 46.3439 2.99574C45.9528 3.67187 45.7556 4.64465 45.7523 5.91406C45.7523 6.76255 45.8401 7.48011 46.0158 8.06676C46.1948 8.65009 46.4483 9.09257 46.7765 9.39418C47.1046 9.69247 47.499 9.84162 47.9597 9.84162ZM57.315 0.818182V11H55.7738V2.35938H55.7141L53.2781 3.95028V2.47869L55.8185 0.818182H57.315Z" fill="black"/>
</svg>
