<svg viewBox="0 0 79 14" fill="none" stroke-width="2" stroke="currentColor" aria-hidden="true">
  <path d="M3.85795 11.1491C3.24148 11.1491 2.69129 10.9917 2.20739 10.6768C1.7268 10.3587 1.34896 9.90625 1.07386 9.3196C0.802083 8.72964 0.666193 8.02202 0.666193 7.19673C0.666193 6.37145 0.803741 5.66548 1.07884 5.07884C1.35724 4.49219 1.7384 4.04309 2.2223 3.73153C2.7062 3.41998 3.25473 3.2642 3.8679 3.2642C4.34186 3.2642 4.72301 3.34375 5.01136 3.50284C5.30303 3.65862 5.52841 3.84091 5.6875 4.04972C5.84991 4.25852 5.97585 4.44247 6.06534 4.60156H6.15483V0.818182H7.64134V11H6.18963V9.81179H6.06534C5.97585 9.9742 5.84659 10.1598 5.67756 10.3686C5.51184 10.5774 5.28314 10.7597 4.99148 10.9155C4.69981 11.0713 4.32197 11.1491 3.85795 11.1491ZM4.18608 9.88139C4.61364 9.88139 4.97491 9.7687 5.26989 9.54332C5.56818 9.31463 5.79356 8.99811 5.94602 8.59375C6.1018 8.18939 6.17969 7.71875 6.17969 7.18182C6.17969 6.65151 6.10346 6.1875 5.95099 5.78977C5.79853 5.39205 5.57481 5.08215 5.27983 4.86009C4.98485 4.63802 4.62027 4.52699 4.18608 4.52699C3.73864 4.52699 3.36577 4.64299 3.06747 4.875C2.76918 5.10701 2.5438 5.42353 2.39134 5.82457C2.24219 6.22562 2.16761 6.67803 2.16761 7.18182C2.16761 7.69223 2.24384 8.15128 2.39631 8.55895C2.54877 8.96662 2.77415 9.28977 3.07244 9.52841C3.37405 9.76373 3.74527 9.88139 4.18608 9.88139ZM9.76296 11V3.36364H11.1998V4.5767H11.2793C11.4185 4.16572 11.6638 3.84257 12.0151 3.60724C12.3697 3.36861 12.7708 3.24929 13.2182 3.24929C13.311 3.24929 13.4204 3.2526 13.5463 3.25923C13.6756 3.26586 13.7767 3.27415 13.8496 3.28409V4.70597C13.79 4.68939 13.6839 4.67116 13.5314 4.65128C13.379 4.62808 13.2265 4.61648 13.074 4.61648C12.7227 4.61648 12.4095 4.69105 12.1344 4.8402C11.8626 4.98603 11.6472 5.18987 11.4881 5.4517C11.329 5.71023 11.2495 6.00521 11.2495 6.33665V11H9.76296ZM18.0792 11.1541C17.3633 11.1541 16.7385 10.9901 16.2049 10.6619C15.6713 10.3338 15.257 9.87476 14.962 9.2848C14.667 8.69484 14.5195 8.00544 14.5195 7.21662C14.5195 6.42448 14.667 5.73177 14.962 5.13849C15.257 4.54522 15.6713 4.08452 16.2049 3.75639C16.7385 3.42827 17.3633 3.2642 18.0792 3.2642C18.7951 3.2642 19.4199 3.42827 19.9535 3.75639C20.4871 4.08452 20.9014 4.54522 21.1964 5.13849C21.4914 5.73177 21.6388 6.42448 21.6388 7.21662C21.6388 8.00544 21.4914 8.69484 21.1964 9.2848C20.9014 9.87476 20.4871 10.3338 19.9535 10.6619C19.4199 10.9901 18.7951 11.1541 18.0792 11.1541ZM18.0842 9.90625C18.5482 9.90625 18.9326 9.78362 19.2376 9.53835C19.5425 9.29309 19.7679 8.96662 19.9137 8.55895C20.0629 8.15128 20.1374 7.70218 20.1374 7.21165C20.1374 6.72443 20.0629 6.27699 19.9137 5.86932C19.7679 5.45833 19.5425 5.12855 19.2376 4.87997C18.9326 4.63139 18.5482 4.5071 18.0842 4.5071C17.6168 4.5071 17.229 4.63139 16.9208 4.87997C16.6159 5.12855 16.3888 5.45833 16.2397 5.86932C16.0939 6.27699 16.021 6.72443 16.021 7.21165C16.021 7.70218 16.0939 8.15128 16.2397 8.55895C16.3888 8.96662 16.6159 9.29309 16.9208 9.53835C17.229 9.78362 17.6168 9.90625 18.0842 9.90625ZM23.2981 13.8636V3.36364H24.7498V4.60156H24.8741C24.9603 4.44247 25.0846 4.25852 25.247 4.04972C25.4094 3.84091 25.6348 3.65862 25.9231 3.50284C26.2115 3.34375 26.5926 3.2642 27.0666 3.2642C27.6831 3.2642 28.2333 3.41998 28.7172 3.73153C29.2011 4.04309 29.5806 4.49219 29.8556 5.07884C30.1341 5.66548 30.2733 6.37145 30.2733 7.19673C30.2733 8.02202 30.1357 8.72964 29.8606 9.3196C29.5855 9.90625 29.2077 10.3587 28.7271 10.6768C28.2465 10.9917 27.698 11.1491 27.0815 11.1491C26.6175 11.1491 26.238 11.0713 25.943 10.9155C25.6513 10.7597 25.4226 10.5774 25.2569 10.3686C25.0912 10.1598 24.9636 9.9742 24.8741 9.81179H24.7846V13.8636H23.2981ZM24.7548 7.18182C24.7548 7.71875 24.8327 8.18939 24.9885 8.59375C25.1442 8.99811 25.3696 9.31463 25.6646 9.54332C25.9596 9.7687 26.3208 9.88139 26.7484 9.88139C27.1925 9.88139 27.5637 9.76373 27.862 9.52841C28.1603 9.28977 28.3857 8.96662 28.5382 8.55895C28.694 8.15128 28.7718 7.69223 28.7718 7.18182C28.7718 6.67803 28.6956 6.22562 28.5431 5.82457C28.394 5.42353 28.1686 5.10701 27.867 4.875C27.5687 4.64299 27.1958 4.52699 26.7484 4.52699C26.3175 4.52699 25.9529 4.63802 25.6547 4.86009C25.3597 5.08215 25.1359 5.39205 24.9835 5.78977C24.831 6.1875 24.7548 6.65151 24.7548 7.18182ZM33.4252 0.818182V11H31.9387V0.818182H33.4252ZM38.7163 11.1541C37.9639 11.1541 37.3159 10.9934 36.7724 10.6719C36.2321 10.3471 35.8145 9.89134 35.5195 9.30469C35.2279 8.71473 35.082 8.02367 35.082 7.23153C35.082 6.44934 35.2279 5.75994 35.5195 5.16335C35.8145 4.56676 36.2255 4.10109 36.7525 3.76633C37.2828 3.43158 37.9026 3.2642 38.6119 3.2642C39.0427 3.2642 39.4603 3.33546 39.8647 3.47798C40.2691 3.6205 40.632 3.84422 40.9535 4.14915C41.275 4.45407 41.5285 4.85014 41.7141 5.33736C41.8997 5.82126 41.9925 6.40956 41.9925 7.10227V7.62926H35.9222V6.51562H40.5359C40.5359 6.12453 40.4563 5.77817 40.2972 5.47656C40.1381 5.17164 39.9144 4.93134 39.6261 4.75568C39.341 4.58002 39.0063 4.49219 38.6218 4.49219C38.2042 4.49219 37.8396 4.59493 37.5281 4.80043C37.2198 5.0026 36.9812 5.26776 36.8121 5.59588C36.6464 5.92069 36.5636 6.27367 36.5636 6.65483V7.52486C36.5636 8.03527 36.6531 8.46946 36.832 8.82741C37.0143 9.18537 37.2679 9.45881 37.5927 9.64773C37.9175 9.83333 38.297 9.92614 38.7312 9.92614C39.0129 9.92614 39.2698 9.88636 39.5018 9.80682C39.7338 9.72396 39.9343 9.60133 40.1033 9.43892C40.2724 9.27652 40.4016 9.07599 40.4911 8.83736L41.8981 9.09091C41.7854 9.50521 41.5832 9.86813 41.2915 10.1797C41.0032 10.4879 40.6403 10.7282 40.2028 10.9006C39.7686 11.0696 39.2731 11.1541 38.7163 11.1541ZM47.2065 3.36364V4.55682H43.0353V3.36364H47.2065ZM44.1539 1.53409H45.6404V8.75781C45.6404 9.04616 45.6835 9.26326 45.7697 9.40909C45.8559 9.55161 45.9669 9.64938 46.1028 9.70241C46.242 9.75213 46.3928 9.77699 46.5552 9.77699C46.6745 9.77699 46.7789 9.7687 46.8684 9.75213C46.9579 9.73556 47.0275 9.7223 47.0772 9.71236L47.3457 10.9403C47.2595 10.9735 47.1369 11.0066 46.9778 11.0398C46.8187 11.0762 46.6199 11.0961 46.3812 11.0994C45.9901 11.1061 45.6255 11.0365 45.2875 10.8906C44.9494 10.7448 44.676 10.5194 44.4672 10.2145C44.2583 9.90956 44.1539 9.52675 44.1539 9.06605V1.53409ZM54.4501 5.22798L53.1028 5.46662C53.0465 5.29427 52.957 5.13021 52.8343 4.97443C52.715 4.81865 52.5526 4.69105 52.3471 4.59162C52.1416 4.49219 51.8848 4.44247 51.5765 4.44247C51.1556 4.44247 50.8043 4.53693 50.5225 4.72585C50.2408 4.91146 50.1 5.15175 50.1 5.44673C50.1 5.70194 50.1944 5.90743 50.3833 6.06321C50.5723 6.21899 50.8772 6.34659 51.2981 6.44602L52.5112 6.72443C53.2138 6.88684 53.7375 7.13707 54.0822 7.47514C54.4269 7.81321 54.5993 8.25237 54.5993 8.79261C54.5993 9.25 54.4667 9.65767 54.2015 10.0156C53.9397 10.3703 53.5734 10.6487 53.1028 10.8509C52.6355 11.053 52.0936 11.1541 51.4771 11.1541C50.622 11.1541 49.9243 10.9718 49.3841 10.6072C48.8438 10.2393 48.5124 9.71733 48.3897 9.04119L49.8265 8.82244C49.916 9.19697 50.1 9.48035 50.3784 9.67259C50.6568 9.86151 51.0197 9.95597 51.4672 9.95597C51.9544 9.95597 52.3438 9.85488 52.6355 9.6527C52.9271 9.44721 53.073 9.19697 53.073 8.90199C53.073 8.66335 52.9835 8.46283 52.8045 8.30043C52.6288 8.13802 52.3587 8.01539 51.9941 7.93253L50.7015 7.64915C49.9889 7.48674 49.4619 7.22822 49.1206 6.87358C48.7825 6.51894 48.6135 6.06984 48.6135 5.52628C48.6135 5.07552 48.7394 4.68111 48.9913 4.34304C49.2432 4.00497 49.5912 3.74148 50.0353 3.55256C50.4795 3.36032 50.9882 3.2642 51.5616 3.2642C52.3869 3.2642 53.0365 3.44318 53.5105 3.80114C53.9844 4.15578 54.2976 4.63139 54.4501 5.22798ZM60.733 6.05327V7.34091H56.2188V6.05327H60.733ZM66.239 11.169C65.4535 11.1657 64.7823 10.9586 64.2255 10.5476C63.6687 10.1366 63.2428 9.53835 62.9478 8.75284C62.6528 7.96733 62.5053 7.02107 62.5053 5.91406C62.5053 4.81037 62.6528 3.86742 62.9478 3.08523C63.2461 2.30303 63.6737 1.70644 64.2305 1.29545C64.7906 0.884469 65.4601 0.678977 66.239 0.678977C67.0179 0.678977 67.6857 0.886126 68.2425 1.30043C68.7994 1.71141 69.2253 2.308 69.5202 3.0902C69.8185 3.86908 69.9677 4.81037 69.9677 5.91406C69.9677 7.02438 69.8202 7.9723 69.5252 8.75781C69.2302 9.54001 68.8043 10.1383 68.2475 10.5526C67.6907 10.9635 67.0212 11.169 66.239 11.169ZM66.239 9.84162C66.9284 9.84162 67.467 9.50521 67.8548 8.83239C68.2459 8.15956 68.4414 7.18679 68.4414 5.91406C68.4414 5.06889 68.3519 4.35464 68.1729 3.77131C67.9973 3.18466 67.7437 2.74053 67.4123 2.43892C67.0842 2.134 66.6931 1.98153 66.239 1.98153C65.5529 1.98153 65.0143 2.3196 64.6232 2.99574C64.2321 3.67187 64.0349 4.64465 64.0316 5.91406C64.0316 6.76255 64.1194 7.48011 64.2951 8.06676C64.4741 8.65009 64.7276 9.09257 65.0558 9.39418C65.3839 9.69247 65.7783 9.84162 66.239 9.84162ZM71.7314 11V9.88636L75.1767 6.31676C75.5446 5.92898 75.8478 5.58925 76.0865 5.29759C76.3284 5.0026 76.5091 4.72254 76.6284 4.45739C76.7477 4.19223 76.8074 3.91051 76.8074 3.61222C76.8074 3.27415 76.7278 2.98248 76.5687 2.73722C76.4096 2.48864 76.1925 2.29806 75.9174 2.16548C75.6423 2.02959 75.3324 1.96165 74.9877 1.96165C74.6232 1.96165 74.305 2.03622 74.0332 2.18537C73.7614 2.33452 73.5526 2.54498 73.4068 2.81676C73.2609 3.08854 73.188 3.40672 73.188 3.77131H71.7214C71.7214 3.15151 71.8639 2.60961 72.149 2.1456C72.434 1.68158 72.8251 1.32197 73.3223 1.06676C73.8194 0.808238 74.3845 0.678977 75.0176 0.678977C75.6573 0.678977 76.2207 0.806581 76.7079 1.06179C77.1984 1.31368 77.5813 1.65838 77.8564 2.09588C78.1315 2.53007 78.269 3.0206 78.269 3.56747C78.269 3.94531 78.1977 4.31487 78.0552 4.67614C77.916 5.0374 77.6724 5.4401 77.3244 5.88423C76.9764 6.32505 76.4925 6.86032 75.8727 7.49006L73.8493 9.60795V9.68253H78.4331V11H71.7314Z" fill="black"/>
</svg>
