<svg viewBox="0 0 81 15" fill="none" stroke-width="2" stroke="currentColor" aria-hidden="true">
  <path d="M1.4858 0.818182V11H-0.000710189V0.818182H1.4858ZM3.48562 11V3.36364H4.97212V11H3.48562ZM4.23633 2.18537C3.97781 2.18537 3.75574 2.09919 3.57013 1.92685C3.38784 1.75118 3.2967 1.54238 3.2967 1.30043C3.2967 1.05516 3.38784 0.846354 3.57013 0.674005C3.75574 0.498342 3.97781 0.410511 4.23633 0.410511C4.49485 0.410511 4.71526 0.498342 4.89755 0.674005C5.08316 0.846354 5.17596 1.05516 5.17596 1.30043C5.17596 1.54238 5.08316 1.75118 4.89755 1.92685C4.71526 2.09919 4.49485 2.18537 4.23633 2.18537ZM10.1737 14.0227C9.56712 14.0227 9.0451 13.9432 8.6076 13.7841C8.17341 13.625 7.81877 13.4145 7.54368 13.1527C7.26858 12.8909 7.06309 12.6042 6.9272 12.2926L8.2049 11.7656C8.29439 11.9115 8.41371 12.0656 8.56286 12.228C8.71532 12.3937 8.92081 12.5346 9.17933 12.6506C9.44117 12.7666 9.77758 12.8246 10.1886 12.8246C10.752 12.8246 11.2177 12.687 11.5856 12.4119C11.9535 12.1402 12.1374 11.706 12.1374 11.1094V9.60795H12.043C11.9535 9.77036 11.8242 9.95099 11.6552 10.1499C11.4895 10.3487 11.2608 10.5211 10.9691 10.6669C10.6774 10.8127 10.2979 10.8857 9.83061 10.8857C9.22739 10.8857 8.68383 10.7448 8.19993 10.4631C7.71934 10.178 7.33819 9.75876 7.05646 9.20526C6.77805 8.64844 6.63885 7.96401 6.63885 7.15199C6.63885 6.33996 6.7764 5.64394 7.05149 5.06392C7.3299 4.4839 7.71106 4.03977 8.19496 3.73153C8.67886 3.41998 9.22739 3.2642 9.84055 3.2642C10.3145 3.2642 10.6973 3.34375 10.989 3.50284C11.2807 3.65862 11.5077 3.84091 11.6701 4.04972C11.8358 4.25852 11.9634 4.44247 12.0529 4.60156H12.1623V3.36364H13.619V11.169C13.619 11.8253 13.4665 12.3639 13.1616 12.7848C12.8567 13.2057 12.444 13.5173 11.9237 13.7195C11.4066 13.9216 10.8233 14.0227 10.1737 14.0227ZM10.1587 9.6527C10.5863 9.6527 10.9476 9.55327 11.2425 9.3544C11.5408 9.15223 11.7662 8.86387 11.9187 8.48935C12.0745 8.11151 12.1523 7.65909 12.1523 7.1321C12.1523 6.61837 12.0761 6.16596 11.9237 5.77486C11.7712 5.38376 11.5475 5.07884 11.2525 4.86009C10.9575 4.63802 10.5929 4.52699 10.1587 4.52699C9.71129 4.52699 9.33842 4.64299 9.04013 4.875C8.74183 5.10369 8.51645 5.41525 8.36399 5.80966C8.21484 6.20407 8.14027 6.64489 8.14027 7.1321C8.14027 7.63258 8.2165 8.07173 8.36896 8.44957C8.52143 8.82741 8.7468 9.1224 9.0451 9.33452C9.34671 9.54664 9.71792 9.6527 10.1587 9.6527ZM17.0991 6.46591V11H15.6126V0.818182H17.0792V4.60653H17.1737C17.3526 4.19555 17.6261 3.86908 17.994 3.62713C18.3619 3.38518 18.8424 3.2642 19.4357 3.2642C19.9594 3.2642 20.4168 3.37192 20.8079 3.58736C21.2023 3.80279 21.5072 4.12429 21.7227 4.55185C21.9414 4.97609 22.0508 5.50639 22.0508 6.14276V11H20.5643V6.32173C20.5643 5.7616 20.4201 5.32741 20.1317 5.01918C19.8434 4.70762 19.4424 4.55185 18.9286 4.55185C18.5773 4.55185 18.2624 4.62642 17.984 4.77557C17.7089 4.92472 17.4918 5.14347 17.3327 5.43182C17.177 5.71686 17.0991 6.06155 17.0991 6.46591ZM27.5991 3.36364V4.55682H23.4279V3.36364H27.5991ZM24.5465 1.53409H26.033V8.75781C26.033 9.04616 26.0761 9.26326 26.1623 9.40909C26.2485 9.55161 26.3595 9.64938 26.4954 9.70241C26.6346 9.75213 26.7854 9.77699 26.9478 9.77699C27.0671 9.77699 27.1715 9.7687 27.261 9.75213C27.3505 9.73556 27.4201 9.7223 27.4698 9.71236L27.7383 10.9403C27.6521 10.9735 27.5295 11.0066 27.3704 11.0398C27.2113 11.0762 27.0124 11.0961 26.7738 11.0994C26.3827 11.1061 26.0181 11.0365 25.68 10.8906C25.342 10.7448 25.0685 10.5194 24.8597 10.2145C24.6509 9.90956 24.5465 9.52675 24.5465 9.06605V1.53409ZM30.7299 6.46591V11H29.2434V3.36364H30.6703V4.60653H30.7647C30.9404 4.20218 31.2155 3.87737 31.59 3.6321C31.9679 3.38684 32.4435 3.2642 33.0169 3.2642C33.5372 3.2642 33.993 3.37358 34.3841 3.59233C34.7752 3.80777 35.0784 4.12926 35.2939 4.55682C35.5093 4.98437 35.617 5.51302 35.617 6.14276V11H34.1305V6.32173C34.1305 5.76823 33.9863 5.3357 33.698 5.02415C33.4096 4.70928 33.0136 4.55185 32.5098 4.55185C32.1651 4.55185 31.8585 4.62642 31.59 4.77557C31.3249 4.92472 31.1144 5.14347 30.9586 5.43182C30.8062 5.71686 30.7299 6.06155 30.7299 6.46591ZM37.6106 11V3.36364H39.0971V11H37.6106ZM38.3613 2.18537C38.1028 2.18537 37.8807 2.09919 37.6951 1.92685C37.5128 1.75118 37.4217 1.54238 37.4217 1.30043C37.4217 1.05516 37.5128 0.846354 37.6951 0.674005C37.8807 0.498342 38.1028 0.410511 38.3613 0.410511C38.6199 0.410511 38.8403 0.498342 39.0225 0.674005C39.2082 0.846354 39.301 1.05516 39.301 1.30043C39.301 1.54238 39.2082 1.75118 39.0225 1.92685C38.8403 2.09919 38.6199 2.18537 38.3613 2.18537ZM42.5835 6.46591V11H41.0969V3.36364H42.5238V4.60653H42.6183C42.7939 4.20218 43.069 3.87737 43.4435 3.6321C43.8214 3.38684 44.297 3.2642 44.8704 3.2642C45.3907 3.2642 45.8465 3.37358 46.2376 3.59233C46.6287 3.80777 46.9319 4.12926 47.1474 4.55682C47.3628 4.98437 47.4705 5.51302 47.4705 6.14276V11H45.984V6.32173C45.984 5.76823 45.8398 5.3357 45.5515 5.02415C45.2631 4.70928 44.8671 4.55185 44.3633 4.55185C44.0186 4.55185 43.712 4.62642 43.4435 4.77557C43.1784 4.92472 42.9679 5.14347 42.8121 5.43182C42.6597 5.71686 42.5835 6.06155 42.5835 6.46591ZM52.6658 14.0227C52.0593 14.0227 51.5373 13.9432 51.0998 13.7841C50.6656 13.625 50.311 13.4145 50.0359 13.1527C49.7608 12.8909 49.5553 12.6042 49.4194 12.2926L50.6971 11.7656C50.7866 11.9115 50.9059 12.0656 51.055 12.228C51.2075 12.3937 51.413 12.5346 51.6715 12.6506C51.9334 12.7666 52.2698 12.8246 52.6808 12.8246C53.2442 12.8246 53.7099 12.687 54.0778 12.4119C54.4457 12.1402 54.6296 11.706 54.6296 11.1094V9.60795H54.5352C54.4457 9.77036 54.3164 9.95099 54.1474 10.1499C53.9817 10.3487 53.753 10.5211 53.4613 10.6669C53.1696 10.8127 52.7901 10.8857 52.3228 10.8857C51.7196 10.8857 51.176 10.7448 50.6921 10.4631C50.2115 10.178 49.8304 9.75876 49.5487 9.20526C49.2702 8.64844 49.131 7.96401 49.131 7.15199C49.131 6.33996 49.2686 5.64394 49.5437 5.06392C49.8221 4.4839 50.2032 4.03977 50.6871 3.73153C51.171 3.41998 51.7196 3.2642 52.3327 3.2642C52.8067 3.2642 53.1895 3.34375 53.4812 3.50284C53.7728 3.65862 53.9999 3.84091 54.1623 4.04972C54.328 4.25852 54.4556 4.44247 54.5451 4.60156H54.6545V3.36364H56.1112V11.169C56.1112 11.8253 55.9587 12.3639 55.6538 12.7848C55.3488 13.2057 54.9362 13.5173 54.4158 13.7195C53.8988 13.9216 53.3155 14.0227 52.6658 14.0227ZM52.6509 9.6527C53.0785 9.6527 53.4397 9.55327 53.7347 9.3544C54.033 9.15223 54.2584 8.86387 54.4109 8.48935C54.5666 8.11151 54.6445 7.65909 54.6445 7.1321C54.6445 6.61837 54.5683 6.16596 54.4158 5.77486C54.2634 5.38376 54.0397 5.07884 53.7447 4.86009C53.4497 4.63802 53.0851 4.52699 52.6509 4.52699C52.2035 4.52699 51.8306 4.64299 51.5323 4.875C51.234 5.10369 51.0086 5.41525 50.8562 5.80966C50.707 6.20407 50.6325 6.64489 50.6325 7.1321C50.6325 7.63258 50.7087 8.07173 50.8612 8.44957C51.0136 8.82741 51.239 9.1224 51.5373 9.33452C51.8389 9.54664 52.2101 9.6527 52.6509 9.6527ZM62.604 6.05327V7.34091H58.0898V6.05327H62.604ZM68.1101 11.169C67.3246 11.1657 66.6534 10.9586 66.0966 10.5476C65.5398 10.1366 65.1139 9.53835 64.8189 8.75284C64.5239 7.96733 64.3764 7.02107 64.3764 5.91406C64.3764 4.81037 64.5239 3.86742 64.8189 3.08523C65.1172 2.30303 65.5447 1.70644 66.1016 1.29545C66.6617 0.884469 67.3312 0.678977 68.1101 0.678977C68.889 0.678977 69.5568 0.886126 70.1136 1.30043C70.6705 1.71141 71.0964 2.308 71.3913 3.0902C71.6896 3.86908 71.8388 4.81037 71.8388 5.91406C71.8388 7.02438 71.6913 7.9723 71.3963 8.75781C71.1013 9.54001 70.6754 10.1383 70.1186 10.5526C69.5618 10.9635 68.8923 11.169 68.1101 11.169ZM68.1101 9.84162C68.7995 9.84162 69.3381 9.50521 69.7259 8.83239C70.117 8.15956 70.3125 7.18679 70.3125 5.91406C70.3125 5.06889 70.223 4.35464 70.044 3.77131C69.8684 3.18466 69.6148 2.74053 69.2834 2.43892C68.9553 2.134 68.5642 1.98153 68.1101 1.98153C67.424 1.98153 66.8854 2.3196 66.4943 2.99574C66.1032 3.67187 65.906 4.64465 65.9027 5.91406C65.9027 6.76255 65.9905 7.48011 66.1662 8.06676C66.3452 8.65009 66.5987 9.09257 66.9268 9.39418C67.255 9.69247 67.6494 9.84162 68.1101 9.84162ZM73.6025 11V9.88636L77.0478 6.31676C77.4157 5.92898 77.7189 5.58925 77.9576 5.29759C78.1995 5.0026 78.3801 4.72254 78.4995 4.45739C78.6188 4.19223 78.6784 3.91051 78.6784 3.61222C78.6784 3.27415 78.5989 2.98248 78.4398 2.73722C78.2807 2.48864 78.0636 2.29806 77.7885 2.16548C77.5134 2.02959 77.2035 1.96165 76.8588 1.96165C76.4943 1.96165 76.1761 2.03622 75.9043 2.18537C75.6325 2.33452 75.4237 2.54498 75.2779 2.81676C75.132 3.08854 75.0591 3.40672 75.0591 3.77131H73.5925C73.5925 3.15151 73.735 2.60961 74.0201 2.1456C74.3051 1.68158 74.6962 1.32197 75.1934 1.06676C75.6905 0.808238 76.2556 0.678977 76.8887 0.678977C77.5283 0.678977 78.0918 0.806581 78.579 1.06179C79.0695 1.31368 79.4524 1.65838 79.7275 2.09588C80.0025 2.53007 80.1401 3.0206 80.1401 3.56747C80.1401 3.94531 80.0688 4.31487 79.9263 4.67614C79.7871 5.0374 79.5435 5.4401 79.1955 5.88423C78.8475 6.32505 78.3636 6.86032 77.7438 7.49006L75.7203 9.60795V9.68253H80.3042V11H73.6025Z" fill="black"/>
</svg>
