<svg viewBox="0 0 45 11" fill="none" stroke-width="2" stroke="currentColor" aria-hidden="true">
  <path d="M6.72159 4.22798L5.37429 4.46662C5.31795 4.29427 5.22846 4.13021 5.10582 3.97443C4.98651 3.81865 4.8241 3.69105 4.61861 3.59162C4.41312 3.49219 4.15625 3.44247 3.84801 3.44247C3.42708 3.44247 3.07576 3.53693 2.79403 3.72585C2.51231 3.91146 2.37145 4.15175 2.37145 4.44673C2.37145 4.70194 2.46591 4.90743 2.65483 5.06321C2.84375 5.21899 3.14867 5.34659 3.5696 5.44602L4.78267 5.72443C5.48532 5.88684 6.009 6.13707 6.35369 6.47514C6.69839 6.81321 6.87074 7.25237 6.87074 7.79261C6.87074 8.25 6.73816 8.65767 6.47301 9.01562C6.21117 9.37027 5.84493 9.64867 5.37429 9.85085C4.90696 10.053 4.36506 10.1541 3.74858 10.1541C2.89347 10.1541 2.19579 9.97183 1.65554 9.60724C1.11529 9.23935 0.783854 8.71733 0.661222 8.04119L2.09801 7.82244C2.1875 8.19697 2.37145 8.48035 2.64986 8.67259C2.92827 8.86151 3.29119 8.95597 3.73864 8.95597C4.22585 8.95597 4.61529 8.85488 4.90696 8.6527C5.19863 8.44721 5.34446 8.19697 5.34446 7.90199C5.34446 7.66335 5.25497 7.46283 5.07599 7.30043C4.90033 7.13802 4.63021 7.01539 4.26562 6.93253L2.97301 6.64915C2.26042 6.48674 1.73343 6.22822 1.39205 5.87358C1.05398 5.51894 0.884943 5.06984 0.884943 4.52628C0.884943 4.07552 1.01089 3.68111 1.26278 3.34304C1.51468 3.00497 1.86269 2.74148 2.30682 2.55256C2.75095 2.36032 3.25971 2.2642 3.8331 2.2642C4.65838 2.2642 5.308 2.44318 5.78196 2.80114C6.25592 3.15578 6.56913 3.63139 6.72159 4.22798ZM13.3425 6.8331V2.36364H14.834V10H13.3723V8.67756H13.2928C13.1171 9.08523 12.8354 9.42495 12.4476 9.69673C12.0632 9.9652 11.5842 10.0994 11.0108 10.0994C10.5203 10.0994 10.0861 9.99171 9.70827 9.77628C9.33375 9.55753 9.03877 9.23438 8.82333 8.80682C8.61121 8.37926 8.50515 7.85062 8.50515 7.22088V2.36364H9.99165V7.0419C9.99165 7.56226 10.1358 7.97656 10.4242 8.2848C10.7125 8.59304 11.0871 8.74716 11.5478 8.74716C11.8262 8.74716 12.1029 8.67756 12.378 8.53835C12.6564 8.39915 12.8868 8.18868 13.0691 7.90696C13.2547 7.62524 13.3458 7.26728 13.3425 6.8331ZM18.3178 5.46591V10H16.8313V2.36364H18.2582V3.60653H18.3526C18.5283 3.20218 18.8034 2.87737 19.1779 2.6321C19.5558 2.38684 20.0314 2.2642 20.6048 2.2642C21.1251 2.2642 21.5808 2.37358 21.9719 2.59233C22.363 2.80777 22.6663 3.12926 22.8817 3.55682C23.0972 3.98437 23.2049 4.51302 23.2049 5.14276V10H21.7184V5.32173C21.7184 4.76823 21.5742 4.3357 21.2859 4.02415C20.9975 3.70928 20.6014 3.55185 20.0977 3.55185C19.753 3.55185 19.4464 3.62642 19.1779 3.77557C18.9128 3.92472 18.7023 4.14347 18.5465 4.43182C18.3941 4.71686 18.3178 5.06155 18.3178 5.46591ZM30.9208 4.22798L29.5735 4.46662C29.5172 4.29427 29.4277 4.13021 29.305 3.97443C29.1857 3.81865 29.0233 3.69105 28.8178 3.59162C28.6123 3.49219 28.3555 3.44247 28.0472 3.44247C27.6263 3.44247 27.275 3.53693 26.9933 3.72585C26.7115 3.91146 26.5707 4.15175 26.5707 4.44673C26.5707 4.70194 26.6651 4.90743 26.854 5.06321C27.043 5.21899 27.3479 5.34659 27.7688 5.44602L28.9819 5.72443C29.6845 5.88684 30.2082 6.13707 30.5529 6.47514C30.8976 6.81321 31.07 7.25237 31.07 7.79261C31.07 8.25 30.9374 8.65767 30.6722 9.01562C30.4104 9.37027 30.0442 9.64867 29.5735 9.85085C29.1062 10.053 28.5643 10.1541 27.9478 10.1541C27.0927 10.1541 26.395 9.97183 25.8548 9.60724C25.3145 9.23935 24.9831 8.71733 24.8604 8.04119L26.2972 7.82244C26.3867 8.19697 26.5707 8.48035 26.8491 8.67259C27.1275 8.86151 27.4904 8.95597 27.9379 8.95597C28.4251 8.95597 28.8145 8.85488 29.1062 8.6527C29.3978 8.44721 29.5437 8.19697 29.5437 7.90199C29.5437 7.66335 29.4542 7.46283 29.2752 7.30043C29.0996 7.13802 28.8294 7.01539 28.4648 6.93253L27.1722 6.64915C26.4596 6.48674 25.9326 6.22822 25.5913 5.87358C25.2532 5.51894 25.0842 5.06984 25.0842 4.52628C25.0842 4.07552 25.2101 3.68111 25.462 3.34304C25.7139 3.00497 26.0619 2.74148 26.506 2.55256C26.9502 2.36032 27.4589 2.2642 28.0323 2.2642C28.8576 2.2642 29.5072 2.44318 29.9812 2.80114C30.4551 3.15578 30.7683 3.63139 30.9208 4.22798ZM35.9956 10.1541C35.2432 10.1541 34.5952 9.99337 34.0517 9.67188C33.5114 9.34706 33.0938 8.89134 32.7988 8.30469C32.5072 7.71473 32.3613 7.02367 32.3613 6.23153C32.3613 5.44934 32.5072 4.75994 32.7988 4.16335C33.0938 3.56676 33.5048 3.10109 34.0318 2.76633C34.5621 2.43158 35.1819 2.2642 35.8912 2.2642C36.322 2.2642 36.7396 2.33546 37.144 2.47798C37.5484 2.6205 37.9113 2.84422 38.2328 3.14915C38.5543 3.45407 38.8078 3.85014 38.9934 4.33736C39.179 4.82126 39.2718 5.40956 39.2718 6.10227V6.62926H33.2015V5.51562H37.8152C37.8152 5.12453 37.7356 4.77817 37.5765 4.47656C37.4174 4.17164 37.1937 3.93134 36.9054 3.75568C36.6203 3.58002 36.2856 3.49219 35.9011 3.49219C35.4835 3.49219 35.1189 3.59493 34.8074 3.80043C34.4991 4.0026 34.2605 4.26776 34.0914 4.59588C33.9257 4.92069 33.8429 5.27367 33.8429 5.65483V6.52486C33.8429 7.03527 33.9324 7.46946 34.1113 7.82741C34.2936 8.18537 34.5472 8.45881 34.872 8.64773C35.1968 8.83333 35.5763 8.92614 36.0105 8.92614C36.2922 8.92614 36.5491 8.88636 36.7811 8.80682C37.0131 8.72396 37.2136 8.60133 37.3826 8.43892C37.5517 8.27652 37.6809 8.07599 37.7704 7.83736L39.1774 8.09091C39.0647 8.50521 38.8625 8.86813 38.5708 9.17969C38.2825 9.48793 37.9196 9.72822 37.4821 9.90057C37.0479 10.0696 36.5524 10.1541 35.9956 10.1541ZM44.4858 2.36364V3.55682H40.3146V2.36364H44.4858ZM41.4332 0.534091H42.9197V7.75781C42.9197 8.04616 42.9628 8.26326 43.049 8.40909C43.1352 8.55161 43.2462 8.64938 43.3821 8.70241C43.5213 8.75213 43.6721 8.77699 43.8345 8.77699C43.9538 8.77699 44.0582 8.7687 44.1477 8.75213C44.2372 8.73556 44.3068 8.7223 44.3565 8.71236L44.625 9.94034C44.5388 9.97348 44.4162 10.0066 44.2571 10.0398C44.098 10.0762 43.8991 10.0961 43.6605 10.0994C43.2694 10.1061 42.9048 10.0365 42.5668 9.89062C42.2287 9.74479 41.9553 9.51941 41.7464 9.21449C41.5376 8.90956 41.4332 8.52675 41.4332 8.06605V0.534091Z" fill="black"/>
</svg>
