<svg viewBox="0 0 81 12" fill="none" stroke-width="2" stroke="currentColor" aria-hidden="true">
  <path d="M4.21591 11.1541C3.4768 11.1541 2.84044 10.9867 2.30682 10.652C1.77652 10.3139 1.36884 9.84825 1.08381 9.25497C0.798769 8.66169 0.65625 7.98224 0.65625 7.21662C0.65625 6.44105 0.802083 5.75663 1.09375 5.16335C1.38542 4.56676 1.7964 4.10109 2.3267 3.76633C2.85701 3.43158 3.48177 3.2642 4.20099 3.2642C4.78101 3.2642 5.29806 3.37192 5.75213 3.58736C6.2062 3.79948 6.57244 4.09777 6.85085 4.48224C7.13258 4.86671 7.29995 5.31581 7.35298 5.82955H5.90625C5.8267 5.47159 5.64441 5.16335 5.35938 4.90483C5.07765 4.64631 4.69981 4.51705 4.22585 4.51705C3.81155 4.51705 3.44863 4.62642 3.13707 4.84517C2.82884 5.06061 2.58854 5.36884 2.41619 5.76989C2.24384 6.16761 2.15767 6.63826 2.15767 7.18182C2.15767 7.73864 2.24219 8.21922 2.41122 8.62358C2.58026 9.02794 2.81889 9.34115 3.12713 9.56321C3.43868 9.78527 3.80492 9.89631 4.22585 9.89631C4.50758 9.89631 4.76278 9.84493 4.99148 9.74219C5.22349 9.63613 5.41738 9.48532 5.57315 9.28977C5.73224 9.09422 5.84328 8.8589 5.90625 8.58381H7.35298C7.29995 9.07765 7.1392 9.51847 6.87074 9.90625C6.60227 10.294 6.24266 10.599 5.7919 10.821C5.34446 11.0431 4.81913 11.1541 4.21591 11.1541ZM10.4292 0.818182V11H8.94265V0.818182H10.4292ZM15.6456 11.1541C14.9297 11.1541 14.3049 10.9901 13.7713 10.6619C13.2377 10.3338 12.8234 9.87476 12.5284 9.2848C12.2334 8.69484 12.0859 8.00544 12.0859 7.21662C12.0859 6.42448 12.2334 5.73177 12.5284 5.13849C12.8234 4.54522 13.2377 4.08452 13.7713 3.75639C14.3049 3.42827 14.9297 3.2642 15.6456 3.2642C16.3615 3.2642 16.9863 3.42827 17.5199 3.75639C18.0535 4.08452 18.4678 4.54522 18.7628 5.13849C19.0578 5.73177 19.2053 6.42448 19.2053 7.21662C19.2053 8.00544 19.0578 8.69484 18.7628 9.2848C18.4678 9.87476 18.0535 10.3338 17.5199 10.6619C16.9863 10.9901 16.3615 11.1541 15.6456 11.1541ZM15.6506 9.90625C16.1146 9.90625 16.4991 9.78362 16.804 9.53835C17.1089 9.29309 17.3343 8.96662 17.4801 8.55895C17.6293 8.15128 17.7038 7.70218 17.7038 7.21165C17.7038 6.72443 17.6293 6.27699 17.4801 5.86932C17.3343 5.45833 17.1089 5.12855 16.804 4.87997C16.4991 4.63139 16.1146 4.5071 15.6506 4.5071C15.1832 4.5071 14.7955 4.63139 14.4872 4.87997C14.1823 5.12855 13.9553 5.45833 13.8061 5.86932C13.6603 6.27699 13.5874 6.72443 13.5874 7.21165C13.5874 7.70218 13.6603 8.15128 13.8061 8.55895C13.9553 8.96662 14.1823 9.29309 14.4872 9.53835C14.7955 9.78362 15.1832 9.90625 15.6506 9.90625ZM25.7019 7.8331V3.36364H27.1934V11H25.7317V9.67756H25.6522C25.4765 10.0852 25.1948 10.425 24.807 10.6967C24.4225 10.9652 23.9436 11.0994 23.3702 11.0994C22.8797 11.0994 22.4455 10.9917 22.0676 10.7763C21.6931 10.5575 21.3981 10.2344 21.1827 9.80682C20.9706 9.37926 20.8645 8.85062 20.8645 8.22088V3.36364H22.351V8.0419C22.351 8.56226 22.4952 8.97656 22.7836 9.2848C23.0719 9.59304 23.4464 9.74716 23.9071 9.74716C24.1855 9.74716 24.4623 9.67756 24.7374 9.53835C25.0158 9.39915 25.2462 9.18868 25.4284 8.90696C25.6141 8.62524 25.7052 8.26728 25.7019 7.8331ZM32.0494 11.1491C31.4329 11.1491 30.8827 10.9917 30.3988 10.6768C29.9182 10.3587 29.5404 9.90625 29.2653 9.3196C28.9935 8.72964 28.8576 8.02202 28.8576 7.19673C28.8576 6.37145 28.9951 5.66548 29.2702 5.07884C29.5487 4.49219 29.9298 4.04309 30.4137 3.73153C30.8976 3.41998 31.4461 3.2642 32.0593 3.2642C32.5333 3.2642 32.9144 3.34375 33.2028 3.50284C33.4944 3.65862 33.7198 3.84091 33.8789 4.04972C34.0413 4.25852 34.1673 4.44247 34.2567 4.60156H34.3462V0.818182H35.8327V11H34.381V9.81179H34.2567C34.1673 9.9742 34.038 10.1598 33.869 10.3686C33.7032 10.5774 33.4746 10.7597 33.1829 10.9155C32.8912 11.0713 32.5134 11.1491 32.0494 11.1491ZM32.3775 9.88139C32.805 9.88139 33.1663 9.7687 33.4613 9.54332C33.7596 9.31463 33.985 8.99811 34.1374 8.59375C34.2932 8.18939 34.3711 7.71875 34.3711 7.18182C34.3711 6.65151 34.2949 6.1875 34.1424 5.78977C33.9899 5.39205 33.7662 5.08215 33.4712 4.86009C33.1763 4.63802 32.8117 4.52699 32.3775 4.52699C31.93 4.52699 31.5572 4.64299 31.2589 4.875C30.9606 5.10701 30.7352 5.42353 30.5827 5.82457C30.4336 6.22562 30.359 6.67803 30.359 7.18182C30.359 7.69223 30.4353 8.15128 30.5877 8.55895C30.7402 8.96662 30.9656 9.28977 31.2638 9.52841C31.5655 9.76373 31.9367 9.88139 32.3775 9.88139ZM42.4537 6.05327V7.34091H37.9395V6.05327H42.4537ZM44.4348 11V3.36364H45.8617V4.60653H45.9561C46.1152 4.18561 46.3754 3.85748 46.7367 3.62216C47.098 3.38352 47.5305 3.2642 48.0343 3.2642C48.5447 3.2642 48.9722 3.38352 49.3169 3.62216C49.665 3.8608 49.9218 4.18892 50.0875 4.60653H50.1671C50.3494 4.19886 50.6394 3.87405 51.0371 3.6321C51.4348 3.38684 51.9088 3.2642 52.459 3.2642C53.1517 3.2642 53.7168 3.4813 54.1543 3.91548C54.5951 4.34967 54.8155 5.00426 54.8155 5.87926V11H53.329V6.01847C53.329 5.50142 53.1882 5.12689 52.9064 4.89489C52.6247 4.66288 52.2883 4.54688 51.8972 4.54688C51.4133 4.54688 51.0371 4.69602 50.7686 4.99432C50.5002 5.2893 50.3659 5.6688 50.3659 6.13281V11H48.8844V5.92401C48.8844 5.50971 48.7551 5.17661 48.4966 4.92472C48.2381 4.67282 47.9017 4.54688 47.4874 4.54688C47.2057 4.54688 46.9455 4.62145 46.7069 4.7706C46.4715 4.91643 46.281 5.12026 46.1351 5.3821C45.9926 5.64394 45.9213 5.94721 45.9213 6.2919V11H44.4348ZM60.0245 11.1541C59.3086 11.1541 58.6838 10.9901 58.1502 10.6619C57.6166 10.3338 57.2023 9.87476 56.9073 9.2848C56.6123 8.69484 56.4648 8.00544 56.4648 7.21662C56.4648 6.42448 56.6123 5.73177 56.9073 5.13849C57.2023 4.54522 57.6166 4.08452 58.1502 3.75639C58.6838 3.42827 59.3086 3.2642 60.0245 3.2642C60.7404 3.2642 61.3652 3.42827 61.8988 3.75639C62.4324 4.08452 62.8467 4.54522 63.1417 5.13849C63.4367 5.73177 63.5842 6.42448 63.5842 7.21662C63.5842 8.00544 63.4367 8.69484 63.1417 9.2848C62.8467 9.87476 62.4324 10.3338 61.8988 10.6619C61.3652 10.9901 60.7404 11.1541 60.0245 11.1541ZM60.0295 9.90625C60.4935 9.90625 60.878 9.78362 61.1829 9.53835C61.4878 9.29309 61.7132 8.96662 61.859 8.55895C62.0082 8.15128 62.0827 7.70218 62.0827 7.21165C62.0827 6.72443 62.0082 6.27699 61.859 5.86932C61.7132 5.45833 61.4878 5.12855 61.1829 4.87997C60.878 4.63139 60.4935 4.5071 60.0295 4.5071C59.5621 4.5071 59.1744 4.63139 58.8661 4.87997C58.5612 5.12855 58.3342 5.45833 58.185 5.86932C58.0392 6.27699 57.9663 6.72443 57.9663 7.21165C57.9663 7.70218 58.0392 8.15128 58.185 8.55895C58.3342 8.96662 58.5612 9.29309 58.8661 9.53835C59.1744 9.78362 59.5621 9.90625 60.0295 9.90625ZM68.46 11.1541C67.7441 11.1541 67.1194 10.9901 66.5858 10.6619C66.0521 10.3338 65.6378 9.87476 65.3429 9.2848C65.0479 8.69484 64.9004 8.00544 64.9004 7.21662C64.9004 6.42448 65.0479 5.73177 65.3429 5.13849C65.6378 4.54522 66.0521 4.08452 66.5858 3.75639C67.1194 3.42827 67.7441 3.2642 68.46 3.2642C69.176 3.2642 69.8007 3.42827 70.3343 3.75639C70.868 4.08452 71.2823 4.54522 71.5772 5.13849C71.8722 5.73177 72.0197 6.42448 72.0197 7.21662C72.0197 8.00544 71.8722 8.69484 71.5772 9.2848C71.2823 9.87476 70.868 10.3338 70.3343 10.6619C69.8007 10.9901 69.176 11.1541 68.46 11.1541ZM68.465 9.90625C68.929 9.90625 69.3135 9.78362 69.6184 9.53835C69.9234 9.29309 70.1487 8.96662 70.2946 8.55895C70.4437 8.15128 70.5183 7.70218 70.5183 7.21165C70.5183 6.72443 70.4437 6.27699 70.2946 5.86932C70.1487 5.45833 69.9234 5.12855 69.6184 4.87997C69.3135 4.63139 68.929 4.5071 68.465 4.5071C67.9977 4.5071 67.6099 4.63139 67.3017 4.87997C66.9967 5.12855 66.7697 5.45833 66.6206 5.86932C66.4747 6.27699 66.4018 6.72443 66.4018 7.21165C66.4018 7.70218 66.4747 8.15128 66.6206 8.55895C66.7697 8.96662 66.9967 9.29309 67.3017 9.53835C67.6099 9.78362 67.9977 9.90625 68.465 9.90625ZM75.1655 6.46591V11H73.679V3.36364H75.1058V4.60653H75.2003C75.3759 4.20218 75.651 3.87737 76.0256 3.6321C76.4034 3.38684 76.879 3.2642 77.4524 3.2642C77.9728 3.2642 78.4285 3.37358 78.8196 3.59233C79.2107 3.80777 79.514 4.12926 79.7294 4.55682C79.9448 4.98437 80.0526 5.51302 80.0526 6.14276V11H78.5661V6.32173C78.5661 5.76823 78.4219 5.3357 78.1335 5.02415C77.8452 4.70928 77.4491 4.55185 76.9453 4.55185C76.6006 4.55185 76.294 4.62642 76.0256 4.77557C75.7604 4.92472 75.55 5.14347 75.3942 5.43182C75.2417 5.71686 75.1655 6.06155 75.1655 6.46591Z" fill="black"/>
</svg>
