<svg viewBox="0 0 92 12" fill="none" stroke-width="2" stroke="currentColor" aria-hidden="true">
  <path d="M4.21591 11.1541C3.4768 11.1541 2.84044 10.9867 2.30682 10.652C1.77652 10.3139 1.36884 9.84825 1.08381 9.25497C0.798769 8.66169 0.65625 7.98224 0.65625 7.21662C0.65625 6.44105 0.802083 5.75663 1.09375 5.16335C1.38542 4.56676 1.7964 4.10109 2.3267 3.76633C2.85701 3.43158 3.48177 3.2642 4.20099 3.2642C4.78101 3.2642 5.29806 3.37192 5.75213 3.58736C6.2062 3.79948 6.57244 4.09777 6.85085 4.48224C7.13258 4.86671 7.29995 5.31581 7.35298 5.82955H5.90625C5.8267 5.47159 5.64441 5.16335 5.35938 4.90483C5.07765 4.64631 4.69981 4.51705 4.22585 4.51705C3.81155 4.51705 3.44863 4.62642 3.13707 4.84517C2.82884 5.06061 2.58854 5.36884 2.41619 5.76989C2.24384 6.16761 2.15767 6.63826 2.15767 7.18182C2.15767 7.73864 2.24219 8.21922 2.41122 8.62358C2.58026 9.02794 2.81889 9.34115 3.12713 9.56321C3.43868 9.78527 3.80492 9.89631 4.22585 9.89631C4.50758 9.89631 4.76278 9.84493 4.99148 9.74219C5.22349 9.63613 5.41738 9.48532 5.57315 9.28977C5.73224 9.09422 5.84328 8.8589 5.90625 8.58381H7.35298C7.29995 9.07765 7.1392 9.51847 6.87074 9.90625C6.60227 10.294 6.24266 10.599 5.7919 10.821C5.34446 11.0431 4.81913 11.1541 4.21591 11.1541ZM10.4292 0.818182V11H8.94265V0.818182H10.4292ZM15.6456 11.1541C14.9297 11.1541 14.3049 10.9901 13.7713 10.6619C13.2377 10.3338 12.8234 9.87476 12.5284 9.2848C12.2334 8.69484 12.0859 8.00544 12.0859 7.21662C12.0859 6.42448 12.2334 5.73177 12.5284 5.13849C12.8234 4.54522 13.2377 4.08452 13.7713 3.75639C14.3049 3.42827 14.9297 3.2642 15.6456 3.2642C16.3615 3.2642 16.9863 3.42827 17.5199 3.75639C18.0535 4.08452 18.4678 4.54522 18.7628 5.13849C19.0578 5.73177 19.2053 6.42448 19.2053 7.21662C19.2053 8.00544 19.0578 8.69484 18.7628 9.2848C18.4678 9.87476 18.0535 10.3338 17.5199 10.6619C16.9863 10.9901 16.3615 11.1541 15.6456 11.1541ZM15.6506 9.90625C16.1146 9.90625 16.4991 9.78362 16.804 9.53835C17.1089 9.29309 17.3343 8.96662 17.4801 8.55895C17.6293 8.15128 17.7038 7.70218 17.7038 7.21165C17.7038 6.72443 17.6293 6.27699 17.4801 5.86932C17.3343 5.45833 17.1089 5.12855 16.804 4.87997C16.4991 4.63139 16.1146 4.5071 15.6506 4.5071C15.1832 4.5071 14.7955 4.63139 14.4872 4.87997C14.1823 5.12855 13.9553 5.45833 13.8061 5.86932C13.6603 6.27699 13.5874 6.72443 13.5874 7.21165C13.5874 7.70218 13.6603 8.15128 13.8061 8.55895C13.9553 8.96662 14.1823 9.29309 14.4872 9.53835C14.7955 9.78362 15.1832 9.90625 15.6506 9.90625ZM25.7019 7.8331V3.36364H27.1934V11H25.7317V9.67756H25.6522C25.4765 10.0852 25.1948 10.425 24.807 10.6967C24.4225 10.9652 23.9436 11.0994 23.3702 11.0994C22.8797 11.0994 22.4455 10.9917 22.0676 10.7763C21.6931 10.5575 21.3981 10.2344 21.1827 9.80682C20.9706 9.37926 20.8645 8.85062 20.8645 8.22088V3.36364H22.351V8.0419C22.351 8.56226 22.4952 8.97656 22.7836 9.2848C23.0719 9.59304 23.4464 9.74716 23.9071 9.74716C24.1855 9.74716 24.4623 9.67756 24.7374 9.53835C25.0158 9.39915 25.2462 9.18868 25.4284 8.90696C25.6141 8.62524 25.7052 8.26728 25.7019 7.8331ZM32.0494 11.1491C31.4329 11.1491 30.8827 10.9917 30.3988 10.6768C29.9182 10.3587 29.5404 9.90625 29.2653 9.3196C28.9935 8.72964 28.8576 8.02202 28.8576 7.19673C28.8576 6.37145 28.9951 5.66548 29.2702 5.07884C29.5487 4.49219 29.9298 4.04309 30.4137 3.73153C30.8976 3.41998 31.4461 3.2642 32.0593 3.2642C32.5333 3.2642 32.9144 3.34375 33.2028 3.50284C33.4944 3.65862 33.7198 3.84091 33.8789 4.04972C34.0413 4.25852 34.1673 4.44247 34.2567 4.60156H34.3462V0.818182H35.8327V11H34.381V9.81179H34.2567C34.1673 9.9742 34.038 10.1598 33.869 10.3686C33.7032 10.5774 33.4746 10.7597 33.1829 10.9155C32.8912 11.0713 32.5134 11.1491 32.0494 11.1491ZM32.3775 9.88139C32.805 9.88139 33.1663 9.7687 33.4613 9.54332C33.7596 9.31463 33.985 8.99811 34.1374 8.59375C34.2932 8.18939 34.3711 7.71875 34.3711 7.18182C34.3711 6.65151 34.2949 6.1875 34.1424 5.78977C33.9899 5.39205 33.7662 5.08215 33.4712 4.86009C33.1763 4.63802 32.8117 4.52699 32.3775 4.52699C31.93 4.52699 31.5572 4.64299 31.2589 4.875C30.9606 5.10701 30.7352 5.42353 30.5827 5.82457C30.4336 6.22562 30.359 6.67803 30.359 7.18182C30.359 7.69223 30.4353 8.15128 30.5877 8.55895C30.7402 8.96662 30.9656 9.28977 31.2638 9.52841C31.5655 9.76373 31.9367 9.88139 32.3775 9.88139ZM42.4537 6.05327V7.34091H37.9395V6.05327H42.4537ZM50.1571 5.22798L48.8098 5.46662C48.7535 5.29427 48.664 5.13021 48.5414 4.97443C48.4221 4.81865 48.2596 4.69105 48.0542 4.59162C47.8487 4.49219 47.5918 4.44247 47.2836 4.44247C46.8626 4.44247 46.5113 4.53693 46.2296 4.72585C45.9479 4.91146 45.807 5.15175 45.807 5.44673C45.807 5.70194 45.9015 5.90743 46.0904 6.06321C46.2793 6.21899 46.5842 6.34659 47.0051 6.44602L48.2182 6.72443C48.9209 6.88684 49.4445 7.13707 49.7892 7.47514C50.1339 7.81321 50.3063 8.25237 50.3063 8.79261C50.3063 9.25 50.1737 9.65767 49.9086 10.0156C49.6467 10.3703 49.2805 10.6487 48.8098 10.8509C48.3425 11.053 47.8006 11.1541 47.1841 11.1541C46.329 11.1541 45.6313 10.9718 45.0911 10.6072C44.5508 10.2393 44.2194 9.71733 44.0968 9.04119L45.5336 8.82244C45.623 9.19697 45.807 9.48035 46.0854 9.67259C46.3638 9.86151 46.7267 9.95597 47.1742 9.95597C47.6614 9.95597 48.0508 9.85488 48.3425 9.6527C48.6342 9.44721 48.78 9.19697 48.78 8.90199C48.78 8.66335 48.6905 8.46283 48.5115 8.30043C48.3359 8.13802 48.0658 8.01539 47.7012 7.93253L46.4086 7.64915C45.696 7.48674 45.169 7.22822 44.8276 6.87358C44.4895 6.51894 44.3205 6.06984 44.3205 5.52628C44.3205 5.07552 44.4464 4.68111 44.6983 4.34304C44.9502 4.00497 45.2982 3.74148 45.7424 3.55256C46.1865 3.36032 46.6953 3.2642 47.2686 3.2642C48.0939 3.2642 48.7435 3.44318 49.2175 3.80114C49.6915 4.15578 50.0047 4.63139 50.1571 5.22798ZM56.7781 7.8331V3.36364H58.2695V11H56.8079V9.67756H56.7283C56.5527 10.0852 56.271 10.425 55.8832 10.6967C55.4987 10.9652 55.0198 11.0994 54.4464 11.0994C53.9558 11.0994 53.5217 10.9917 53.1438 10.7763C52.7693 10.5575 52.4743 10.2344 52.2589 9.80682C52.0468 9.37926 51.9407 8.85062 51.9407 8.22088V3.36364H53.4272V8.0419C53.4272 8.56226 53.5714 8.97656 53.8597 9.2848C54.1481 9.59304 54.5226 9.74716 54.9833 9.74716C55.2617 9.74716 55.5385 9.67756 55.8136 9.53835C56.092 9.39915 56.3223 9.18868 56.5046 8.90696C56.6902 8.62524 56.7814 8.26728 56.7781 7.8331ZM61.7534 6.46591V11H60.2669V3.36364H61.6937V4.60653H61.7882C61.9638 4.20218 62.2389 3.87737 62.6135 3.6321C62.9913 3.38684 63.4669 3.2642 64.0403 3.2642C64.5607 3.2642 65.0164 3.37358 65.4075 3.59233C65.7986 3.80777 66.1019 4.12926 66.3173 4.55682C66.5327 4.98437 66.6404 5.51302 66.6404 6.14276V11H65.1539V6.32173C65.1539 5.76823 65.0098 5.3357 64.7214 5.02415C64.4331 4.70928 64.037 4.55185 63.5332 4.55185C63.1885 4.55185 62.8819 4.62642 62.6135 4.77557C62.3483 4.92472 62.1378 5.14347 61.9821 5.43182C61.8296 5.71686 61.7534 6.06155 61.7534 6.46591ZM73.1333 6.05327V7.34091H68.6191V6.05327H73.1333ZM78.6394 11.169C77.8539 11.1657 77.1827 10.9586 76.6259 10.5476C76.0691 10.1366 75.6432 9.53835 75.3482 8.75284C75.0532 7.96733 74.9057 7.02107 74.9057 5.91406C74.9057 4.81037 75.0532 3.86742 75.3482 3.08523C75.6465 2.30303 76.074 1.70644 76.6309 1.29545C77.191 0.884469 77.8605 0.678977 78.6394 0.678977C79.4183 0.678977 80.0861 0.886126 80.6429 1.30043C81.1998 1.71141 81.6257 2.308 81.9206 3.0902C82.2189 3.86908 82.3681 4.81037 82.3681 5.91406C82.3681 7.02438 82.2206 7.9723 81.9256 8.75781C81.6306 9.54001 81.2047 10.1383 80.6479 10.5526C80.0911 10.9635 79.4216 11.169 78.6394 11.169ZM78.6394 9.84162C79.3288 9.84162 79.8674 9.50521 80.2551 8.83239C80.6462 8.15956 80.8418 7.18679 80.8418 5.91406C80.8418 5.06889 80.7523 4.35464 80.5733 3.77131C80.3977 3.18466 80.1441 2.74053 79.8127 2.43892C79.4846 2.134 79.0935 1.98153 78.6394 1.98153C77.9533 1.98153 77.4147 2.3196 77.0236 2.99574C76.6325 3.67187 76.4353 4.64465 76.432 5.91406C76.432 6.76255 76.5198 7.48011 76.6955 8.06676C76.8745 8.65009 77.128 9.09257 77.4561 9.39418C77.7843 9.69247 78.1787 9.84162 78.6394 9.84162ZM87.6765 11.1392C86.9937 11.1392 86.3839 11.0215 85.8469 10.7862C85.3133 10.5509 84.8907 10.2244 84.5792 9.80682C84.271 9.38589 84.1052 8.89867 84.082 8.34517H85.6431C85.663 8.64678 85.7641 8.90862 85.9464 9.13068C86.132 9.34943 86.3739 9.51847 86.6722 9.63778C86.9705 9.7571 87.302 9.81676 87.6665 9.81676C88.0676 9.81676 88.4222 9.74716 88.7305 9.60795C89.042 9.46875 89.2856 9.27486 89.4613 9.02628C89.637 8.77438 89.7248 8.48438 89.7248 8.15625C89.7248 7.81487 89.637 7.51491 89.4613 7.25639C89.2889 6.99455 89.0354 6.78906 88.7006 6.63991C88.3692 6.49077 87.9682 6.41619 87.4975 6.41619H86.6374V5.16335H87.4975C87.8754 5.16335 88.2068 5.09541 88.4918 4.95952C88.7802 4.82363 89.0056 4.63471 89.168 4.39276C89.3304 4.14749 89.4116 3.8608 89.4116 3.53267C89.4116 3.2178 89.3403 2.94437 89.1978 2.71236C89.0586 2.47704 88.8597 2.29309 88.6012 2.16051C88.346 2.02794 88.0444 1.96165 87.6964 1.96165C87.3649 1.96165 87.055 2.02296 86.7667 2.1456C86.4817 2.26491 86.2496 2.43726 86.0707 2.66264C85.8917 2.88471 85.7956 3.15151 85.7823 3.46307H84.2958C84.3124 2.91288 84.4748 2.42898 84.783 2.01136C85.0946 1.59375 85.5056 1.26728 86.016 1.03196C86.5264 0.796638 87.0932 0.678977 87.7163 0.678977C88.3692 0.678977 88.9326 0.806581 89.4066 1.06179C89.8839 1.31368 90.2518 1.65009 90.5103 2.07102C90.7721 2.49195 90.9014 2.95265 90.8981 3.45312C90.9014 4.0232 90.7423 4.5071 90.4208 4.90483C90.1026 5.30256 89.6784 5.56937 89.1481 5.70526V5.7848C89.8242 5.88755 90.3479 6.15601 90.7191 6.5902C91.0936 7.02438 91.2792 7.56297 91.2759 8.20597C91.2792 8.7661 91.1235 9.26823 90.8086 9.71236C90.497 10.1565 90.0711 10.5062 89.5309 10.7614C88.9906 11.0133 88.3725 11.1392 87.6765 11.1392Z" fill="black"/>
</svg>
