<svg viewBox="0 0 69 11" fill="none" stroke-width="2" stroke="currentColor" aria-hidden="true">
  <path d="M-0.000710189 10V2.36364H1.42614V3.60653H1.5206C1.67969 3.18561 1.93987 2.85748 2.30114 2.62216C2.66241 2.38352 3.09493 2.2642 3.59872 2.2642C4.10914 2.2642 4.5367 2.38352 4.88139 2.62216C5.2294 2.8608 5.48627 3.18892 5.65199 3.60653H5.73153C5.91383 3.19886 6.20384 2.87405 6.60156 2.6321C6.99929 2.38684 7.47325 2.2642 8.02344 2.2642C8.71615 2.2642 9.28125 2.4813 9.71875 2.91548C10.1596 3.34967 10.38 4.00426 10.38 4.87926V10H8.89347V5.01847C8.89347 4.50142 8.7526 4.12689 8.47088 3.89489C8.18916 3.66288 7.85275 3.54688 7.46165 3.54688C6.97775 3.54688 6.60156 3.69602 6.3331 3.99432C6.06463 4.2893 5.9304 4.6688 5.9304 5.13281V10H4.44886V4.92401C4.44886 4.50971 4.3196 4.17661 4.06108 3.92472C3.80256 3.67282 3.46615 3.54688 3.05185 3.54688C2.77012 3.54688 2.50994 3.62145 2.27131 3.7706C2.03599 3.91643 1.84541 4.12026 1.69957 4.3821C1.55706 4.64394 1.4858 4.94721 1.4858 5.2919V10H-0.000710189ZM15.589 10.1541C14.873 10.1541 14.2483 9.99006 13.7147 9.66193C13.181 9.33381 12.7667 8.87476 12.4718 8.2848C12.1768 7.69484 12.0293 7.00544 12.0293 6.21662C12.0293 5.42448 12.1768 4.73177 12.4718 4.13849C12.7667 3.54522 13.181 3.08452 13.7147 2.75639C14.2483 2.42827 14.873 2.2642 15.589 2.2642C16.3049 2.2642 16.9296 2.42827 17.4632 2.75639C17.9969 3.08452 18.4112 3.54522 18.7061 4.13849C19.0011 4.73177 19.1486 5.42448 19.1486 6.21662C19.1486 7.00544 19.0011 7.69484 18.7061 8.2848C18.4112 8.87476 17.9969 9.33381 17.4632 9.66193C16.9296 9.99006 16.3049 10.1541 15.589 10.1541ZM15.5939 8.90625C16.0579 8.90625 16.4424 8.78362 16.7473 8.53835C17.0523 8.29309 17.2776 7.96662 17.4235 7.55895C17.5726 7.15128 17.6472 6.70218 17.6472 6.21165C17.6472 5.72443 17.5726 5.27699 17.4235 4.86932C17.2776 4.45833 17.0523 4.12855 16.7473 3.87997C16.4424 3.63139 16.0579 3.5071 15.5939 3.5071C15.1266 3.5071 14.7388 3.63139 14.4306 3.87997C14.1257 4.12855 13.8986 4.45833 13.7495 4.86932C13.6036 5.27699 13.5307 5.72443 13.5307 6.21165C13.5307 6.70218 13.6036 7.15128 13.7495 7.55895C13.8986 7.96662 14.1257 8.29309 14.4306 8.53835C14.7388 8.78362 15.1266 8.90625 15.5939 8.90625ZM24.0245 10.1541C23.3086 10.1541 22.6838 9.99006 22.1502 9.66193C21.6166 9.33381 21.2023 8.87476 20.9073 8.2848C20.6123 7.69484 20.4648 7.00544 20.4648 6.21662C20.4648 5.42448 20.6123 4.73177 20.9073 4.13849C21.2023 3.54522 21.6166 3.08452 22.1502 2.75639C22.6838 2.42827 23.3086 2.2642 24.0245 2.2642C24.7404 2.2642 25.3652 2.42827 25.8988 2.75639C26.4324 3.08452 26.8467 3.54522 27.1417 4.13849C27.4367 4.73177 27.5842 5.42448 27.5842 6.21662C27.5842 7.00544 27.4367 7.69484 27.1417 8.2848C26.8467 8.87476 26.4324 9.33381 25.8988 9.66193C25.3652 9.99006 24.7404 10.1541 24.0245 10.1541ZM24.0295 8.90625C24.4935 8.90625 24.878 8.78362 25.1829 8.53835C25.4878 8.29309 25.7132 7.96662 25.859 7.55895C26.0082 7.15128 26.0827 6.70218 26.0827 6.21165C26.0827 5.72443 26.0082 5.27699 25.859 4.86932C25.7132 4.45833 25.4878 4.12855 25.1829 3.87997C24.878 3.63139 24.4935 3.5071 24.0295 3.5071C23.5621 3.5071 23.1744 3.63139 22.8661 3.87997C22.5612 4.12855 22.3342 4.45833 22.185 4.86932C22.0392 5.27699 21.9663 5.72443 21.9663 6.21165C21.9663 6.70218 22.0392 7.15128 22.185 7.55895C22.3342 7.96662 22.5612 8.29309 22.8661 8.53835C23.1744 8.78362 23.5621 8.90625 24.0295 8.90625ZM30.7299 5.46591V10H29.2434V2.36364H30.6703V3.60653H30.7647C30.9404 3.20218 31.2155 2.87737 31.59 2.6321C31.9679 2.38684 32.4435 2.2642 33.0169 2.2642C33.5372 2.2642 33.993 2.37358 34.3841 2.59233C34.7752 2.80777 35.0784 3.12926 35.2939 3.55682C35.5093 3.98437 35.617 4.51302 35.617 5.14276V10H34.1305V5.32173C34.1305 4.76823 33.9863 4.3357 33.698 4.02415C33.4096 3.70928 33.0136 3.55185 32.5098 3.55185C32.1651 3.55185 31.8585 3.62642 31.59 3.77557C31.3249 3.92472 31.1144 4.14347 30.9586 4.43182C30.8062 4.71686 30.7299 5.06155 30.7299 5.46591ZM42.1099 5.05327V6.34091H37.5957V5.05327H42.1099ZM49.8134 4.22798L48.4661 4.46662C48.4097 4.29427 48.3203 4.13021 48.1976 3.97443C48.0783 3.81865 47.9159 3.69105 47.7104 3.59162C47.5049 3.49219 47.248 3.44247 46.9398 3.44247C46.5189 3.44247 46.1676 3.53693 45.8858 3.72585C45.6041 3.91146 45.4632 4.15175 45.4632 4.44673C45.4632 4.70194 45.5577 4.90743 45.7466 5.06321C45.9355 5.21899 46.2405 5.34659 46.6614 5.44602L47.8745 5.72443C48.5771 5.88684 49.1008 6.13707 49.4455 6.47514C49.7902 6.81321 49.9625 7.25237 49.9625 7.79261C49.9625 8.25 49.83 8.65767 49.5648 9.01562C49.303 9.37027 48.9367 9.64867 48.4661 9.85085C47.9988 10.053 47.4569 10.1541 46.8404 10.1541C45.9853 10.1541 45.2876 9.97183 44.7473 9.60724C44.2071 9.23935 43.8757 8.71733 43.753 8.04119L45.1898 7.82244C45.2793 8.19697 45.4632 8.48035 45.7417 8.67259C46.0201 8.86151 46.383 8.95597 46.8304 8.95597C47.3176 8.95597 47.7071 8.85488 47.9988 8.6527C48.2904 8.44721 48.4363 8.19697 48.4363 7.90199C48.4363 7.66335 48.3468 7.46283 48.1678 7.30043C47.9921 7.13802 47.722 7.01539 47.3574 6.93253L46.0648 6.64915C45.3522 6.48674 44.8252 6.22822 44.4838 5.87358C44.1458 5.51894 43.9767 5.06984 43.9767 4.52628C43.9767 4.07552 44.1027 3.68111 44.3546 3.34304C44.6065 3.00497 44.9545 2.74148 45.3986 2.55256C45.8427 2.36032 46.3515 2.2642 46.9249 2.2642C47.7502 2.2642 48.3998 2.44318 48.8738 2.80114C49.3477 3.15578 49.6609 3.63139 49.8134 4.22798ZM55.1616 2.36364V3.55682H50.9904V2.36364H55.1616ZM52.109 0.534091H53.5955V7.75781C53.5955 8.04616 53.6386 8.26326 53.7248 8.40909C53.811 8.55161 53.922 8.64938 54.0579 8.70241C54.1971 8.75213 54.3479 8.77699 54.5103 8.77699C54.6296 8.77699 54.734 8.7687 54.8235 8.75213C54.913 8.73556 54.9826 8.7223 55.0323 8.71236L55.3008 9.94034C55.2146 9.97348 55.092 10.0066 54.9329 10.0398C54.7738 10.0762 54.5749 10.0961 54.3363 10.0994C53.9452 10.1061 53.5806 10.0365 53.2425 9.89062C52.9045 9.74479 52.631 9.51941 52.4222 9.21449C52.2134 8.90956 52.109 8.52675 52.109 8.06605V0.534091ZM59.0282 10.169C58.5443 10.169 58.1068 10.0795 57.7157 9.90057C57.3246 9.71828 57.0147 9.45478 56.786 9.11009C56.5607 8.76539 56.448 8.3428 56.448 7.84233C56.448 7.41146 56.5308 7.05682 56.6966 6.77841C56.8623 6.5 57.086 6.27959 57.3677 6.11719C57.6494 5.95478 57.9643 5.83215 58.3123 5.74929C58.6603 5.66643 59.015 5.60346 59.3762 5.56037C59.8336 5.50734 60.2048 5.46425 60.4899 5.43111C60.7749 5.39465 60.9821 5.33665 61.1113 5.2571C61.2406 5.17756 61.3052 5.0483 61.3052 4.86932V4.83452C61.3052 4.40033 61.1826 4.06392 60.9373 3.82528C60.6954 3.58665 60.3341 3.46733 59.8535 3.46733C59.353 3.46733 58.9586 3.57836 58.6703 3.80043C58.3852 4.01918 58.188 4.26278 58.0787 4.53125L56.6816 4.21307C56.8474 3.74905 57.0893 3.37453 57.4075 3.08949C57.729 2.80114 58.0985 2.59233 58.5162 2.46307C58.9338 2.33049 59.3729 2.2642 59.8336 2.2642C60.1386 2.2642 60.4617 2.30066 60.8031 2.37358C61.1478 2.44318 61.4693 2.57244 61.7676 2.76136C62.0692 2.95028 62.3161 3.22041 62.5083 3.57173C62.7006 3.91974 62.7967 4.37216 62.7967 4.92898V10H61.345V8.95597H61.2853C61.1892 9.1482 61.045 9.33712 60.8528 9.52273C60.6606 9.70833 60.4136 9.86245 60.112 9.98509C59.8104 10.1077 59.4492 10.169 59.0282 10.169ZM59.3514 8.97585C59.7624 8.97585 60.1137 8.89465 60.4054 8.73224C60.7003 8.56984 60.9241 8.35772 61.0765 8.09588C61.2323 7.83073 61.3102 7.54735 61.3102 7.24574V6.26136C61.2572 6.31439 61.1544 6.36411 61.002 6.41051C60.8528 6.4536 60.6821 6.49171 60.4899 6.52486C60.2976 6.55469 60.1104 6.58286 59.9281 6.60938C59.7458 6.63258 59.5933 6.65246 59.4707 6.66903C59.1824 6.70549 58.9189 6.76681 58.6802 6.85298C58.4449 6.93916 58.256 7.06345 58.1135 7.22585C57.9743 7.38494 57.9047 7.59706 57.9047 7.86222C57.9047 8.23011 58.0405 8.50852 58.3123 8.69744C58.5841 8.88305 58.9305 8.97585 59.3514 8.97585ZM64.7766 10V2.36364H66.2134V3.5767H66.293C66.4322 3.16572 66.6774 2.84257 67.0288 2.60724C67.3834 2.36861 67.7844 2.24929 68.2319 2.24929C68.3247 2.24929 68.4341 2.2526 68.56 2.25923C68.6893 2.26586 68.7904 2.27415 68.8633 2.28409V3.70597C68.8036 3.68939 68.6976 3.67116 68.5451 3.65128C68.3926 3.62808 68.2402 3.61648 68.0877 3.61648C67.7364 3.61648 67.4232 3.69105 67.1481 3.8402C66.8763 3.98603 66.6609 4.18987 66.5018 4.4517C66.3427 4.71023 66.2631 5.00521 66.2631 5.33665V10H64.7766Z" fill="black"/>
</svg>
