<svg viewBox="0 0 63 12" fill="none" stroke-width="2" stroke="currentColor" aria-hidden="true">
  <path d="M4.21591 11.1541C3.4768 11.1541 2.84044 10.9867 2.30682 10.652C1.77652 10.3139 1.36884 9.84825 1.08381 9.25497C0.798769 8.66169 0.65625 7.98224 0.65625 7.21662C0.65625 6.44105 0.802083 5.75663 1.09375 5.16335C1.38542 4.56676 1.7964 4.10109 2.3267 3.76633C2.85701 3.43158 3.48177 3.2642 4.20099 3.2642C4.78101 3.2642 5.29806 3.37192 5.75213 3.58736C6.2062 3.79948 6.57244 4.09777 6.85085 4.48224C7.13258 4.86671 7.29995 5.31581 7.35298 5.82955H5.90625C5.8267 5.47159 5.64441 5.16335 5.35938 4.90483C5.07765 4.64631 4.69981 4.51705 4.22585 4.51705C3.81155 4.51705 3.44863 4.62642 3.13707 4.84517C2.82884 5.06061 2.58854 5.36884 2.41619 5.76989C2.24384 6.16761 2.15767 6.63826 2.15767 7.18182C2.15767 7.73864 2.24219 8.21922 2.41122 8.62358C2.58026 9.02794 2.81889 9.34115 3.12713 9.56321C3.43868 9.78527 3.80492 9.89631 4.22585 9.89631C4.50758 9.89631 4.76278 9.84493 4.99148 9.74219C5.22349 9.63613 5.41738 9.48532 5.57315 9.28977C5.73224 9.09422 5.84328 8.8589 5.90625 8.58381H7.35298C7.29995 9.07765 7.1392 9.51847 6.87074 9.90625C6.60227 10.294 6.24266 10.599 5.7919 10.821C5.34446 11.0431 4.81913 11.1541 4.21591 11.1541ZM10.4292 0.818182V11H8.94265V0.818182H10.4292ZM15.6456 11.1541C14.9297 11.1541 14.3049 10.9901 13.7713 10.6619C13.2377 10.3338 12.8234 9.87476 12.5284 9.2848C12.2334 8.69484 12.0859 8.00544 12.0859 7.21662C12.0859 6.42448 12.2334 5.73177 12.5284 5.13849C12.8234 4.54522 13.2377 4.08452 13.7713 3.75639C14.3049 3.42827 14.9297 3.2642 15.6456 3.2642C16.3615 3.2642 16.9863 3.42827 17.5199 3.75639C18.0535 4.08452 18.4678 4.54522 18.7628 5.13849C19.0578 5.73177 19.2053 6.42448 19.2053 7.21662C19.2053 8.00544 19.0578 8.69484 18.7628 9.2848C18.4678 9.87476 18.0535 10.3338 17.5199 10.6619C16.9863 10.9901 16.3615 11.1541 15.6456 11.1541ZM15.6506 9.90625C16.1146 9.90625 16.4991 9.78362 16.804 9.53835C17.1089 9.29309 17.3343 8.96662 17.4801 8.55895C17.6293 8.15128 17.7038 7.70218 17.7038 7.21165C17.7038 6.72443 17.6293 6.27699 17.4801 5.86932C17.3343 5.45833 17.1089 5.12855 16.804 4.87997C16.4991 4.63139 16.1146 4.5071 15.6506 4.5071C15.1832 4.5071 14.7955 4.63139 14.4872 4.87997C14.1823 5.12855 13.9553 5.45833 13.8061 5.86932C13.6603 6.27699 13.5874 6.72443 13.5874 7.21165C13.5874 7.70218 13.6603 8.15128 13.8061 8.55895C13.9553 8.96662 14.1823 9.29309 14.4872 9.53835C14.7955 9.78362 15.1832 9.90625 15.6506 9.90625ZM25.7019 7.8331V3.36364H27.1934V11H25.7317V9.67756H25.6522C25.4765 10.0852 25.1948 10.425 24.807 10.6967C24.4225 10.9652 23.9436 11.0994 23.3702 11.0994C22.8797 11.0994 22.4455 10.9917 22.0676 10.7763C21.6931 10.5575 21.3981 10.2344 21.1827 9.80682C20.9706 9.37926 20.8645 8.85062 20.8645 8.22088V3.36364H22.351V8.0419C22.351 8.56226 22.4952 8.97656 22.7836 9.2848C23.0719 9.59304 23.4464 9.74716 23.9071 9.74716C24.1855 9.74716 24.4623 9.67756 24.7374 9.53835C25.0158 9.39915 25.2462 9.18868 25.4284 8.90696C25.6141 8.62524 25.7052 8.26728 25.7019 7.8331ZM32.0494 11.1491C31.4329 11.1491 30.8827 10.9917 30.3988 10.6768C29.9182 10.3587 29.5404 9.90625 29.2653 9.3196C28.9935 8.72964 28.8576 8.02202 28.8576 7.19673C28.8576 6.37145 28.9951 5.66548 29.2702 5.07884C29.5487 4.49219 29.9298 4.04309 30.4137 3.73153C30.8976 3.41998 31.4461 3.2642 32.0593 3.2642C32.5333 3.2642 32.9144 3.34375 33.2028 3.50284C33.4944 3.65862 33.7198 3.84091 33.8789 4.04972C34.0413 4.25852 34.1673 4.44247 34.2567 4.60156H34.3462V0.818182H35.8327V11H34.381V9.81179H34.2567C34.1673 9.9742 34.038 10.1598 33.869 10.3686C33.7032 10.5774 33.4746 10.7597 33.1829 10.9155C32.8912 11.0713 32.5134 11.1491 32.0494 11.1491ZM32.3775 9.88139C32.805 9.88139 33.1663 9.7687 33.4613 9.54332C33.7596 9.31463 33.985 8.99811 34.1374 8.59375C34.2932 8.18939 34.3711 7.71875 34.3711 7.18182C34.3711 6.65151 34.2949 6.1875 34.1424 5.78977C33.9899 5.39205 33.7662 5.08215 33.4712 4.86009C33.1763 4.63802 32.8117 4.52699 32.3775 4.52699C31.93 4.52699 31.5572 4.64299 31.2589 4.875C30.9606 5.10701 30.7352 5.42353 30.5827 5.82457C30.4336 6.22562 30.359 6.67803 30.359 7.18182C30.359 7.69223 30.4353 8.15128 30.5877 8.55895C30.7402 8.96662 30.9656 9.28977 31.2638 9.52841C31.5655 9.76373 31.9367 9.88139 32.3775 9.88139ZM42.4537 6.05327V7.34091H37.9395V6.05327H42.4537ZM47.6515 11.1541C46.9355 11.1541 46.3108 10.9901 45.7772 10.6619C45.2435 10.3338 44.8292 9.87476 44.5343 9.2848C44.2393 8.69484 44.0918 8.00544 44.0918 7.21662C44.0918 6.42448 44.2393 5.73177 44.5343 5.13849C44.8292 4.54522 45.2435 4.08452 45.7772 3.75639C46.3108 3.42827 46.9355 3.2642 47.6515 3.2642C48.3674 3.2642 48.9921 3.42827 49.5257 3.75639C50.0594 4.08452 50.4737 4.54522 50.7686 5.13849C51.0636 5.73177 51.2111 6.42448 51.2111 7.21662C51.2111 8.00544 51.0636 8.69484 50.7686 9.2848C50.4737 9.87476 50.0594 10.3338 49.5257 10.6619C48.9921 10.9901 48.3674 11.1541 47.6515 11.1541ZM47.6564 9.90625C48.1204 9.90625 48.5049 9.78362 48.8098 9.53835C49.1148 9.29309 49.3401 8.96662 49.486 8.55895C49.6351 8.15128 49.7097 7.70218 49.7097 7.21165C49.7097 6.72443 49.6351 6.27699 49.486 5.86932C49.3401 5.45833 49.1148 5.12855 48.8098 4.87997C48.5049 4.63139 48.1204 4.5071 47.6564 4.5071C47.1891 4.5071 46.8013 4.63139 46.4931 4.87997C46.1882 5.12855 45.9611 5.45833 45.812 5.86932C45.6661 6.27699 45.5932 6.72443 45.5932 7.21165C45.5932 7.70218 45.6661 8.15128 45.812 8.55895C45.9611 8.96662 46.1882 9.29309 46.4931 9.53835C46.8013 9.78362 47.1891 9.90625 47.6564 9.90625ZM56.5046 3.36364V4.55682H52.1893V3.36364H56.5046ZM53.3725 11V2.47869C53.3725 2.00142 53.4769 1.60535 53.6857 1.29048C53.8945 0.972301 54.1713 0.735322 54.516 0.579545C54.8607 0.420454 55.2352 0.340908 55.6396 0.340908C55.9379 0.340908 56.1931 0.365767 56.4052 0.415483C56.6173 0.461884 56.7747 0.504971 56.8775 0.544744L56.5295 1.74787C56.4599 1.72798 56.3704 1.70478 56.261 1.67827C56.1516 1.64844 56.0191 1.63352 55.8633 1.63352C55.502 1.63352 55.2435 1.72301 55.0877 1.90199C54.9353 2.08097 54.859 2.33949 54.859 2.67756V11H53.3725ZM61.6726 3.36364V4.55682H57.3572V3.36364H61.6726ZM58.5405 11V2.47869C58.5405 2.00142 58.6449 1.60535 58.8537 1.29048C59.0625 0.972301 59.3393 0.735322 59.6839 0.579545C60.0286 0.420454 60.4032 0.340908 60.8075 0.340908C61.1058 0.340908 61.361 0.365767 61.5732 0.415483C61.7853 0.461884 61.9427 0.504971 62.0455 0.544744L61.6974 1.74787C61.6278 1.72798 61.5384 1.70478 61.429 1.67827C61.3196 1.64844 61.187 1.63352 61.0312 1.63352C60.67 1.63352 60.4115 1.72301 60.2557 1.90199C60.1032 2.08097 60.027 2.33949 60.027 2.67756V11H58.5405Z" fill="black"/>
</svg>
