<svg viewBox="0 0 56 12" fill="none" stroke-width="2" stroke="currentColor" aria-hidden="true">
  <path d="M2.65483 11L0.40767 3.36364H1.94389L3.44034 8.97159H3.51491L5.01634 3.36364H6.55256L8.04403 8.94673H8.11861L9.60511 3.36364H11.1413L8.89915 11H7.38281L5.83168 5.48651H5.71733L4.16619 11H2.65483ZM12.552 11V3.36364H14.0385V11H12.552ZM13.3027 2.18537C13.0442 2.18537 12.8221 2.09919 12.6365 1.92685C12.4542 1.75118 12.3631 1.54238 12.3631 1.30043C12.3631 1.05516 12.4542 0.846354 12.6365 0.674005C12.8221 0.498342 13.0442 0.410511 13.3027 0.410511C13.5613 0.410511 13.7817 0.498342 13.964 0.674005C14.1496 0.846354 14.2424 1.05516 14.2424 1.30043C14.2424 1.54238 14.1496 1.75118 13.964 1.92685C13.7817 2.09919 13.5613 2.18537 13.3027 2.18537ZM17.5249 6.46591V11H16.0384V3.36364H17.4652V4.60653H17.5597C17.7353 4.20218 18.0104 3.87737 18.3849 3.6321C18.7628 3.38684 19.2384 3.2642 19.8118 3.2642C20.3321 3.2642 20.7879 3.37358 21.179 3.59233C21.5701 3.80777 21.8733 4.12926 22.0888 4.55682C22.3042 4.98437 22.4119 5.51302 22.4119 6.14276V11H20.9254V6.32173C20.9254 5.76823 20.7813 5.3357 20.4929 5.02415C20.2045 4.70928 19.8085 4.55185 19.3047 4.55185C18.96 4.55185 18.6534 4.62642 18.3849 4.77557C18.1198 4.92472 17.9093 5.14347 17.7536 5.43182C17.6011 5.71686 17.5249 6.06155 17.5249 6.46591ZM27.2642 11.1491C26.6477 11.1491 26.0975 10.9917 25.6136 10.6768C25.133 10.3587 24.7552 9.90625 24.4801 9.3196C24.2083 8.72964 24.0724 8.02202 24.0724 7.19673C24.0724 6.37145 24.21 5.66548 24.4851 5.07884C24.7635 4.49219 25.1446 4.04309 25.6286 3.73153C26.1125 3.41998 26.661 3.2642 27.2741 3.2642C27.7481 3.2642 28.1293 3.34375 28.4176 3.50284C28.7093 3.65862 28.9347 3.84091 29.0938 4.04972C29.2562 4.25852 29.3821 4.44247 29.4716 4.60156H29.5611V0.818182H31.0476V11H29.5959V9.81179H29.4716C29.3821 9.9742 29.2528 10.1598 29.0838 10.3686C28.9181 10.5774 28.6894 10.7597 28.3977 10.9155C28.1061 11.0713 27.7282 11.1491 27.2642 11.1491ZM27.5923 9.88139C28.0199 9.88139 28.3812 9.7687 28.6761 9.54332C28.9744 9.31463 29.1998 8.99811 29.3523 8.59375C29.508 8.18939 29.5859 7.71875 29.5859 7.18182C29.5859 6.65151 29.5097 6.1875 29.3572 5.78977C29.2048 5.39205 28.9811 5.08215 28.6861 4.86009C28.3911 4.63802 28.0265 4.52699 27.5923 4.52699C27.1449 4.52699 26.772 4.64299 26.4737 4.875C26.1754 5.10701 25.95 5.42353 25.7976 5.82457C25.6484 6.22562 25.5739 6.67803 25.5739 7.18182C25.5739 7.69223 25.6501 8.15128 25.8026 8.55895C25.955 8.96662 26.1804 9.28977 26.4787 9.52841C26.7803 9.76373 27.1515 9.88139 27.5923 9.88139ZM37.6685 6.05327V7.34091H33.1543V6.05327H37.6685ZM43.1745 11.169C42.389 11.1657 41.7179 10.9586 41.161 10.5476C40.6042 10.1366 40.1783 9.53835 39.8833 8.75284C39.5884 7.96733 39.4409 7.02107 39.4409 5.91406C39.4409 4.81037 39.5884 3.86742 39.8833 3.08523C40.1816 2.30303 40.6092 1.70644 41.166 1.29545C41.7261 0.884469 42.3957 0.678977 43.1745 0.678977C43.9534 0.678977 44.6213 0.886126 45.1781 1.30043C45.7349 1.71141 46.1608 2.308 46.4558 3.0902C46.7541 3.86908 46.9032 4.81037 46.9032 5.91406C46.9032 7.02438 46.7557 7.9723 46.4608 8.75781C46.1658 9.54001 45.7399 10.1383 45.1831 10.5526C44.6262 10.9635 43.9567 11.169 43.1745 11.169ZM43.1745 9.84162C43.8639 9.84162 44.4025 9.50521 44.7903 8.83239C45.1814 8.15956 45.377 7.18679 45.377 5.91406C45.377 5.06889 45.2875 4.35464 45.1085 3.77131C44.9328 3.18466 44.6793 2.74053 44.3478 2.43892C44.0197 2.134 43.6286 1.98153 43.1745 1.98153C42.4885 1.98153 41.9499 2.3196 41.5588 2.99574C41.1677 3.67187 40.9705 4.64465 40.9672 5.91406C40.9672 6.76255 41.055 7.48011 41.2306 8.06676C41.4096 8.65009 41.6632 9.09257 41.9913 9.39418C42.3194 9.69247 42.7138 9.84162 43.1745 9.84162ZM48.6669 11V9.88636L52.1122 6.31676C52.4801 5.92898 52.7834 5.58925 53.022 5.29759C53.264 5.0026 53.4446 4.72254 53.5639 4.45739C53.6832 4.19223 53.7429 3.91051 53.7429 3.61222C53.7429 3.27415 53.6634 2.98248 53.5043 2.73722C53.3452 2.48864 53.1281 2.29806 52.853 2.16548C52.5779 2.02959 52.268 1.96165 51.9233 1.96165C51.5587 1.96165 51.2405 2.03622 50.9688 2.18537C50.697 2.33452 50.4882 2.54498 50.3423 2.81676C50.1965 3.08854 50.1236 3.40672 50.1236 3.77131H48.657C48.657 3.15151 48.7995 2.60961 49.0845 2.1456C49.3696 1.68158 49.7607 1.32197 50.2578 1.06676C50.755 0.808238 51.3201 0.678977 51.9531 0.678977C52.5928 0.678977 53.1563 0.806581 53.6435 1.06179C54.134 1.31368 54.5168 1.65838 54.7919 2.09588C55.067 2.53007 55.2045 3.0206 55.2045 3.56747C55.2045 3.94531 55.1333 4.31487 54.9908 4.67614C54.8516 5.0374 54.608 5.4401 54.2599 5.88423C53.9119 6.32505 53.428 6.86032 52.8082 7.49006L50.7848 9.60795V9.68253H55.3686V11H48.6669Z" fill="black"/>
</svg>
