<svg viewBox="0 0 24 9" fill="none" stroke-width="2" stroke="currentColor" aria-hidden="true">
  <path d="M6.72159 2.22798L5.37429 2.46662C5.31795 2.29427 5.22846 2.13021 5.10582 1.97443C4.98651 1.81865 4.8241 1.69105 4.61861 1.59162C4.41312 1.49219 4.15625 1.44247 3.84801 1.44247C3.42708 1.44247 3.07576 1.53693 2.79403 1.72585C2.51231 1.91146 2.37145 2.15175 2.37145 2.44673C2.37145 2.70194 2.46591 2.90743 2.65483 3.06321C2.84375 3.21899 3.14867 3.34659 3.5696 3.44602L4.78267 3.72443C5.48532 3.88684 6.009 4.13707 6.35369 4.47514C6.69839 4.81321 6.87074 5.25237 6.87074 5.79261C6.87074 6.25 6.73816 6.65767 6.47301 7.01562C6.21117 7.37027 5.84493 7.64867 5.37429 7.85085C4.90696 8.05303 4.36506 8.15412 3.74858 8.15412C2.89347 8.15412 2.19579 7.97183 1.65554 7.60724C1.11529 7.23935 0.783854 6.71733 0.661222 6.04119L2.09801 5.82244C2.1875 6.19697 2.37145 6.48035 2.64986 6.67259C2.92827 6.86151 3.29119 6.95597 3.73864 6.95597C4.22585 6.95597 4.61529 6.85488 4.90696 6.6527C5.19863 6.44721 5.34446 6.19697 5.34446 5.90199C5.34446 5.66335 5.25497 5.46283 5.07599 5.30043C4.90033 5.13802 4.63021 5.01539 4.26562 4.93253L2.97301 4.64915C2.26042 4.48674 1.73343 4.22822 1.39205 3.87358C1.05398 3.51894 0.884943 3.06984 0.884943 2.52628C0.884943 2.07552 1.01089 1.68111 1.26278 1.34304C1.51468 1.00497 1.86269 0.741477 2.30682 0.552557C2.75095 0.360322 3.25971 0.264205 3.8331 0.264205C4.65838 0.264205 5.308 0.443182 5.78196 0.801136C6.25592 1.15578 6.56913 1.63139 6.72159 2.22798ZM13.3425 4.8331V0.363636H14.834V8H13.3723V6.67756H13.2928C13.1171 7.08523 12.8354 7.42495 12.4476 7.69673C12.0632 7.9652 11.5842 8.09943 11.0108 8.09943C10.5203 8.09943 10.0861 7.99171 9.70827 7.77628C9.33375 7.55753 9.03877 7.23438 8.82333 6.80682C8.61121 6.37926 8.50515 5.85062 8.50515 5.22088V0.363636H9.99165V5.0419C9.99165 5.56226 10.1358 5.97656 10.4242 6.2848C10.7125 6.59304 11.0871 6.74716 11.5478 6.74716C11.8262 6.74716 12.1029 6.67756 12.378 6.53835C12.6564 6.39915 12.8868 6.18868 13.0691 5.90696C13.2547 5.62524 13.3458 5.26728 13.3425 4.8331ZM18.3178 3.46591V8H16.8313V0.363636H18.2582V1.60653H18.3526C18.5283 1.20218 18.8034 0.877367 19.1779 0.632102C19.5558 0.386837 20.0314 0.264205 20.6048 0.264205C21.1251 0.264205 21.5808 0.37358 21.9719 0.59233C22.363 0.807765 22.6663 1.12926 22.8817 1.55682C23.0972 1.98437 23.2049 2.51302 23.2049 3.14276V8H21.7184V3.32173C21.7184 2.76823 21.5742 2.3357 21.2859 2.02415C20.9975 1.70928 20.6014 1.55185 20.0977 1.55185C19.753 1.55185 19.4464 1.62642 19.1779 1.77557C18.9128 1.92472 18.7023 2.14347 18.5465 2.43182C18.3941 2.71686 18.3178 3.06155 18.3178 3.46591Z" fill="black"/>
</svg>
