<svg viewBox="0 0 49 12" fill="none" stroke-width="2" stroke="currentColor" aria-hidden="true">
  <path d="M6.72159 5.22798L5.37429 5.46662C5.31795 5.29427 5.22846 5.13021 5.10582 4.97443C4.98651 4.81865 4.8241 4.69105 4.61861 4.59162C4.41312 4.49219 4.15625 4.44247 3.84801 4.44247C3.42708 4.44247 3.07576 4.53693 2.79403 4.72585C2.51231 4.91146 2.37145 5.15175 2.37145 5.44673C2.37145 5.70194 2.46591 5.90743 2.65483 6.06321C2.84375 6.21899 3.14867 6.34659 3.5696 6.44602L4.78267 6.72443C5.48532 6.88684 6.009 7.13707 6.35369 7.47514C6.69839 7.81321 6.87074 8.25237 6.87074 8.79261C6.87074 9.25 6.73816 9.65767 6.47301 10.0156C6.21117 10.3703 5.84493 10.6487 5.37429 10.8509C4.90696 11.053 4.36506 11.1541 3.74858 11.1541C2.89347 11.1541 2.19579 10.9718 1.65554 10.6072C1.11529 10.2393 0.783854 9.71733 0.661222 9.04119L2.09801 8.82244C2.1875 9.19697 2.37145 9.48035 2.64986 9.67259C2.92827 9.86151 3.29119 9.95597 3.73864 9.95597C4.22585 9.95597 4.61529 9.85488 4.90696 9.6527C5.19863 9.44721 5.34446 9.19697 5.34446 8.90199C5.34446 8.66335 5.25497 8.46283 5.07599 8.30043C4.90033 8.13802 4.63021 8.01539 4.26562 7.93253L2.97301 7.64915C2.26042 7.48674 1.73343 7.22822 1.39205 6.87358C1.05398 6.51894 0.884943 6.06984 0.884943 5.52628C0.884943 5.07552 1.01089 4.68111 1.26278 4.34304C1.51468 4.00497 1.86269 3.74148 2.30682 3.55256C2.75095 3.36032 3.25971 3.2642 3.8331 3.2642C4.65838 3.2642 5.308 3.44318 5.78196 3.80114C6.25592 4.15578 6.56913 4.63139 6.72159 5.22798ZM13.3425 7.8331V3.36364H14.834V11H13.3723V9.67756H13.2928C13.1171 10.0852 12.8354 10.425 12.4476 10.6967C12.0632 10.9652 11.5842 11.0994 11.0108 11.0994C10.5203 11.0994 10.0861 10.9917 9.70827 10.7763C9.33375 10.5575 9.03877 10.2344 8.82333 9.80682C8.61121 9.37926 8.50515 8.85062 8.50515 8.22088V3.36364H9.99165V8.0419C9.99165 8.56226 10.1358 8.97656 10.4242 9.2848C10.7125 9.59304 11.0871 9.74716 11.5478 9.74716C11.8262 9.74716 12.1029 9.67756 12.378 9.53835C12.6564 9.39915 12.8868 9.18868 13.0691 8.90696C13.2547 8.62524 13.3458 8.26728 13.3425 7.8331ZM18.3178 6.46591V11H16.8313V3.36364H18.2582V4.60653H18.3526C18.5283 4.20218 18.8034 3.87737 19.1779 3.6321C19.5558 3.38684 20.0314 3.2642 20.6048 3.2642C21.1251 3.2642 21.5808 3.37358 21.9719 3.59233C22.363 3.80777 22.6663 4.12926 22.8817 4.55682C23.0972 4.98437 23.2049 5.51302 23.2049 6.14276V11H21.7184V6.32173C21.7184 5.76823 21.5742 5.3357 21.2859 5.02415C20.9975 4.70928 20.6014 4.55185 20.0977 4.55185C19.753 4.55185 19.4464 4.62642 19.1779 4.77557C18.9128 4.92472 18.7023 5.14347 18.5465 5.43182C18.3941 5.71686 18.3178 6.06155 18.3178 6.46591ZM25.1985 11V3.36364H26.6353V4.5767H26.7148C26.854 4.16572 27.0993 3.84257 27.4506 3.60724C27.8053 3.36861 28.2063 3.24929 28.6538 3.24929C28.7466 3.24929 28.8559 3.2526 28.9819 3.25923C29.1112 3.26586 29.2122 3.27415 29.2852 3.28409V4.70597C29.2255 4.68939 29.1194 4.67116 28.967 4.65128C28.8145 4.62808 28.6621 4.61648 28.5096 4.61648C28.1583 4.61648 27.8451 4.69105 27.57 4.8402C27.2982 4.98603 27.0827 5.18987 26.9237 5.4517C26.7646 5.71023 26.685 6.00521 26.685 6.33665V11H25.1985ZM30.5716 11V3.36364H32.0581V11H30.5716ZM31.3223 2.18537C31.0637 2.18537 30.8417 2.09919 30.6561 1.92685C30.4738 1.75118 30.3826 1.54238 30.3826 1.30043C30.3826 1.05516 30.4738 0.846354 30.6561 0.674005C30.8417 0.498342 31.0637 0.410511 31.3223 0.410511C31.5808 0.410511 31.8012 0.498342 31.9835 0.674005C32.1691 0.846354 32.2619 1.05516 32.2619 1.30043C32.2619 1.54238 32.1691 1.75118 31.9835 1.92685C31.8012 2.09919 31.5808 2.18537 31.3223 2.18537ZM39.7802 5.22798L38.4329 5.46662C38.3765 5.29427 38.2871 5.13021 38.1644 4.97443C38.0451 4.81865 37.8827 4.69105 37.6772 4.59162C37.4717 4.49219 37.2148 4.44247 36.9066 4.44247C36.4857 4.44247 36.1344 4.53693 35.8526 4.72585C35.5709 4.91146 35.43 5.15175 35.43 5.44673C35.43 5.70194 35.5245 5.90743 35.7134 6.06321C35.9023 6.21899 36.2073 6.34659 36.6282 6.44602L37.8413 6.72443C38.5439 6.88684 39.0676 7.13707 39.4123 7.47514C39.757 7.81321 39.9293 8.25237 39.9293 8.79261C39.9293 9.25 39.7968 9.65767 39.5316 10.0156C39.2698 10.3703 38.9035 10.6487 38.4329 10.8509C37.9656 11.053 37.4237 11.1541 36.8072 11.1541C35.9521 11.1541 35.2544 10.9718 34.7141 10.6072C34.1739 10.2393 33.8424 9.71733 33.7198 9.04119L35.1566 8.82244C35.2461 9.19697 35.43 9.48035 35.7085 9.67259C35.9869 9.86151 36.3498 9.95597 36.7972 9.95597C37.2844 9.95597 37.6739 9.85488 37.9656 9.6527C38.2572 9.44721 38.4031 9.19697 38.4031 8.90199C38.4031 8.66335 38.3136 8.46283 38.1346 8.30043C37.9589 8.13802 37.6888 8.01539 37.3242 7.93253L36.0316 7.64915C35.319 7.48674 34.792 7.22822 34.4506 6.87358C34.1126 6.51894 33.9435 6.06984 33.9435 5.52628C33.9435 5.07552 34.0695 4.68111 34.3214 4.34304C34.5733 4.00497 34.9213 3.74148 35.3654 3.55256C35.8095 3.36032 36.3183 3.2642 36.8917 3.2642C37.717 3.2642 38.3666 3.44318 38.8406 3.80114C39.3145 4.15578 39.6277 4.63139 39.7802 5.22798ZM44.8549 11.1541C44.1026 11.1541 43.4546 10.9934 42.911 10.6719C42.3708 10.3471 41.9532 9.89134 41.6582 9.30469C41.3665 8.71473 41.2207 8.02367 41.2207 7.23153C41.2207 6.44934 41.3665 5.75994 41.6582 5.16335C41.9532 4.56676 42.3642 4.10109 42.8912 3.76633C43.4215 3.43158 44.0413 3.2642 44.7505 3.2642C45.1814 3.2642 45.599 3.33546 46.0034 3.47798C46.4077 3.6205 46.7707 3.84422 47.0922 4.14915C47.4136 4.45407 47.6672 4.85014 47.8528 5.33736C48.0384 5.82126 48.1312 6.40956 48.1312 7.10227V7.62926H42.0609V6.51562H46.6745C46.6745 6.12453 46.595 5.77817 46.4359 5.47656C46.2768 5.17164 46.0531 4.93134 45.7647 4.75568C45.4797 4.58002 45.1449 4.49219 44.7605 4.49219C44.3429 4.49219 43.9783 4.59493 43.6667 4.80043C43.3585 5.0026 43.1199 5.26776 42.9508 5.59588C42.7851 5.92069 42.7022 6.27367 42.7022 6.65483V7.52486C42.7022 8.03527 42.7917 8.46946 42.9707 8.82741C43.153 9.18537 43.4065 9.45881 43.7314 9.64773C44.0562 9.83333 44.4357 9.92614 44.8699 9.92614C45.1516 9.92614 45.4084 9.88636 45.6404 9.80682C45.8725 9.72396 46.073 9.60133 46.242 9.43892C46.411 9.27652 46.5403 9.07599 46.6298 8.83736L48.0368 9.09091C47.9241 9.50521 47.7219 9.86813 47.4302 10.1797C47.1419 10.4879 46.7789 10.7282 46.3414 10.9006C45.9073 11.0696 45.4118 11.1541 44.8549 11.1541Z" fill="black"/>
</svg>
