<svg viewBox="0 0 101 15" fill="none" stroke-width="2" stroke="currentColor" aria-hidden="true">
  <path d="M6.72159 5.22798L5.37429 5.46662C5.31795 5.29427 5.22846 5.13021 5.10582 4.97443C4.98651 4.81865 4.8241 4.69105 4.61861 4.59162C4.41312 4.49219 4.15625 4.44247 3.84801 4.44247C3.42708 4.44247 3.07576 4.53693 2.79403 4.72585C2.51231 4.91146 2.37145 5.15175 2.37145 5.44673C2.37145 5.70194 2.46591 5.90743 2.65483 6.06321C2.84375 6.21899 3.14867 6.34659 3.5696 6.44602L4.78267 6.72443C5.48532 6.88684 6.009 7.13707 6.35369 7.47514C6.69839 7.81321 6.87074 8.25237 6.87074 8.79261C6.87074 9.25 6.73816 9.65767 6.47301 10.0156C6.21117 10.3703 5.84493 10.6487 5.37429 10.8509C4.90696 11.053 4.36506 11.1541 3.74858 11.1541C2.89347 11.1541 2.19579 10.9718 1.65554 10.6072C1.11529 10.2393 0.783854 9.71733 0.661222 9.04119L2.09801 8.82244C2.1875 9.19697 2.37145 9.48035 2.64986 9.67259C2.92827 9.86151 3.29119 9.95597 3.73864 9.95597C4.22585 9.95597 4.61529 9.85488 4.90696 9.6527C5.19863 9.44721 5.34446 9.19697 5.34446 8.90199C5.34446 8.66335 5.25497 8.46283 5.07599 8.30043C4.90033 8.13802 4.63021 8.01539 4.26562 7.93253L2.97301 7.64915C2.26042 7.48674 1.73343 7.22822 1.39205 6.87358C1.05398 6.51894 0.884943 6.06984 0.884943 5.52628C0.884943 5.07552 1.01089 4.68111 1.26278 4.34304C1.51468 4.00497 1.86269 3.74148 2.30682 3.55256C2.75095 3.36032 3.25971 3.2642 3.8331 3.2642C4.65838 3.2642 5.308 3.44318 5.78196 3.80114C6.25592 4.15578 6.56913 4.63139 6.72159 5.22798ZM13.3425 7.8331V3.36364H14.834V11H13.3723V9.67756H13.2928C13.1171 10.0852 12.8354 10.425 12.4476 10.6967C12.0632 10.9652 11.5842 11.0994 11.0108 11.0994C10.5203 11.0994 10.0861 10.9917 9.70827 10.7763C9.33375 10.5575 9.03877 10.2344 8.82333 9.80682C8.61121 9.37926 8.50515 8.85062 8.50515 8.22088V3.36364H9.99165V8.0419C9.99165 8.56226 10.1358 8.97656 10.4242 9.2848C10.7125 9.59304 11.0871 9.74716 11.5478 9.74716C11.8262 9.74716 12.1029 9.67756 12.378 9.53835C12.6564 9.39915 12.8868 9.18868 13.0691 8.90696C13.2547 8.62524 13.3458 8.26728 13.3425 7.8331ZM18.3178 6.46591V11H16.8313V3.36364H18.2582V4.60653H18.3526C18.5283 4.20218 18.8034 3.87737 19.1779 3.6321C19.5558 3.38684 20.0314 3.2642 20.6048 3.2642C21.1251 3.2642 21.5808 3.37358 21.9719 3.59233C22.363 3.80777 22.6663 4.12926 22.8817 4.55682C23.0972 4.98437 23.2049 5.51302 23.2049 6.14276V11H21.7184V6.32173C21.7184 5.76823 21.5742 5.3357 21.2859 5.02415C20.9975 4.70928 20.6014 4.55185 20.0977 4.55185C19.753 4.55185 19.4464 4.62642 19.1779 4.77557C18.9128 4.92472 18.7023 5.14347 18.5465 5.43182C18.3941 5.71686 18.3178 6.06155 18.3178 6.46591ZM29.6978 6.05327V7.34091H25.1836V6.05327H29.6978ZM37.4013 5.22798L36.054 5.46662C35.9976 5.29427 35.9081 5.13021 35.7855 4.97443C35.6662 4.81865 35.5038 4.69105 35.2983 4.59162C35.0928 4.49219 34.8359 4.44247 34.5277 4.44247C34.1068 4.44247 33.7554 4.53693 33.4737 4.72585C33.192 4.91146 33.0511 5.15175 33.0511 5.44673C33.0511 5.70194 33.1456 5.90743 33.3345 6.06321C33.5234 6.21899 33.8284 6.34659 34.2493 6.44602L35.4624 6.72443C36.165 6.88684 36.6887 7.13707 37.0334 7.47514C37.3781 7.81321 37.5504 8.25237 37.5504 8.79261C37.5504 9.25 37.4179 9.65767 37.1527 10.0156C36.8909 10.3703 36.5246 10.6487 36.054 10.8509C35.5866 11.053 35.0447 11.1541 34.4283 11.1541C33.5732 11.1541 32.8755 10.9718 32.3352 10.6072C31.795 10.2393 31.4635 9.71733 31.3409 9.04119L32.7777 8.82244C32.8672 9.19697 33.0511 9.48035 33.3295 9.67259C33.608 9.86151 33.9709 9.95597 34.4183 9.95597C34.9055 9.95597 35.295 9.85488 35.5866 9.6527C35.8783 9.44721 36.0241 9.19697 36.0241 8.90199C36.0241 8.66335 35.9347 8.46283 35.7557 8.30043C35.58 8.13802 35.3099 8.01539 34.9453 7.93253L33.6527 7.64915C32.9401 7.48674 32.4131 7.22822 32.0717 6.87358C31.7337 6.51894 31.5646 6.06984 31.5646 5.52628C31.5646 5.07552 31.6906 4.68111 31.9425 4.34304C32.1944 4.00497 32.5424 3.74148 32.9865 3.55256C33.4306 3.36032 33.9394 3.2642 34.5128 3.2642C35.3381 3.2642 35.9877 3.44318 36.4616 3.80114C36.9356 4.15578 37.2488 4.63139 37.4013 5.22798ZM42.476 11.1541C41.7237 11.1541 41.0757 10.9934 40.5321 10.6719C39.9919 10.3471 39.5743 9.89134 39.2793 9.30469C38.9876 8.71473 38.8418 8.02367 38.8418 7.23153C38.8418 6.44934 38.9876 5.75994 39.2793 5.16335C39.5743 4.56676 39.9853 4.10109 40.5123 3.76633C41.0426 3.43158 41.6623 3.2642 42.3716 3.2642C42.8025 3.2642 43.2201 3.33546 43.6245 3.47798C44.0288 3.6205 44.3917 3.84422 44.7132 4.14915C45.0347 4.45407 45.2883 4.85014 45.4739 5.33736C45.6595 5.82126 45.7523 6.40956 45.7523 7.10227V7.62926H39.682V6.51562H44.2956C44.2956 6.12453 44.2161 5.77817 44.057 5.47656C43.8979 5.17164 43.6742 4.93134 43.3858 4.75568C43.1008 4.58002 42.766 4.49219 42.3816 4.49219C41.964 4.49219 41.5994 4.59493 41.2878 4.80043C40.9796 5.0026 40.7409 5.26776 40.5719 5.59588C40.4062 5.92069 40.3233 6.27367 40.3233 6.65483V7.52486C40.3233 8.03527 40.4128 8.46946 40.5918 8.82741C40.7741 9.18537 41.0276 9.45881 41.3525 9.64773C41.6773 9.83333 42.0568 9.92614 42.4909 9.92614C42.7727 9.92614 43.0295 9.88636 43.2615 9.80682C43.4935 9.72396 43.6941 9.60133 43.8631 9.43892C44.0321 9.27652 44.1614 9.07599 44.2509 8.83736L45.6578 9.09091C45.5452 9.50521 45.343 9.86813 45.0513 10.1797C44.763 10.4879 44.4 10.7282 43.9625 10.9006C43.5283 11.0696 43.0328 11.1541 42.476 11.1541ZM50.9663 3.36364V4.55682H46.7951V3.36364H50.9663ZM47.9137 1.53409H49.4002V8.75781C49.4002 9.04616 49.4433 9.26326 49.5295 9.40909C49.6156 9.55161 49.7267 9.64938 49.8626 9.70241C50.0018 9.75213 50.1526 9.77699 50.315 9.77699C50.4343 9.77699 50.5387 9.7687 50.6282 9.75213C50.7177 9.73556 50.7873 9.7223 50.837 9.71236L51.1055 10.9403C51.0193 10.9735 50.8967 11.0066 50.7376 11.0398C50.5785 11.0762 50.3796 11.0961 50.141 11.0994C49.7499 11.1061 49.3853 11.0365 49.0472 10.8906C48.7092 10.7448 48.4357 10.5194 48.2269 10.2145C48.0181 9.90956 47.9137 9.52675 47.9137 9.06605V1.53409ZM56.1752 3.36364V4.55682H52.0041V3.36364H56.1752ZM53.1227 1.53409H54.6092V8.75781C54.6092 9.04616 54.6523 9.26326 54.7385 9.40909C54.8246 9.55161 54.9357 9.64938 55.0716 9.70241C55.2108 9.75213 55.3616 9.77699 55.524 9.77699C55.6433 9.77699 55.7477 9.7687 55.8372 9.75213C55.9267 9.73556 55.9963 9.7223 56.046 9.71236L56.3145 10.9403C56.2283 10.9735 56.1056 11.0066 55.9466 11.0398C55.7875 11.0762 55.5886 11.0961 55.35 11.0994C54.9589 11.1061 54.5943 11.0365 54.2562 10.8906C53.9181 10.7448 53.6447 10.5194 53.4359 10.2145C53.2271 9.90956 53.1227 9.52675 53.1227 9.06605V1.53409ZM57.8196 11V3.36364H59.3061V11H57.8196ZM58.5703 2.18537C58.3118 2.18537 58.0897 2.09919 57.9041 1.92685C57.7218 1.75118 57.6307 1.54238 57.6307 1.30043C57.6307 1.05516 57.7218 0.846354 57.9041 0.674005C58.0897 0.498342 58.3118 0.410511 58.5703 0.410511C58.8288 0.410511 59.0492 0.498342 59.2315 0.674005C59.4171 0.846354 59.5099 1.05516 59.5099 1.30043C59.5099 1.54238 59.4171 1.75118 59.2315 1.92685C59.0492 2.09919 58.8288 2.18537 58.5703 2.18537ZM62.7924 6.46591V11H61.3059V3.36364H62.7328V4.60653H62.8272C63.0029 4.20218 63.278 3.87737 63.6525 3.6321C64.0304 3.38684 64.506 3.2642 65.0794 3.2642C65.5997 3.2642 66.0555 3.37358 66.4466 3.59233C66.8377 3.80777 67.1409 4.12926 67.3564 4.55682C67.5718 4.98437 67.6795 5.51302 67.6795 6.14276V11H66.193V6.32173C66.193 5.76823 66.0488 5.3357 65.7605 5.02415C65.4721 4.70928 65.0761 4.55185 64.5723 4.55185C64.2276 4.55185 63.921 4.62642 63.6525 4.77557C63.3874 4.92472 63.1769 5.14347 63.0211 5.43182C62.8687 5.71686 62.7924 6.06155 62.7924 6.46591ZM72.8748 14.0227C72.2683 14.0227 71.7463 13.9432 71.3088 13.7841C70.8746 13.625 70.5199 13.4145 70.2449 13.1527C69.9698 12.8909 69.7643 12.6042 69.6284 12.2926L70.9061 11.7656C70.9956 11.9115 71.1149 12.0656 71.264 12.228C71.4165 12.3937 71.622 12.5346 71.8805 12.6506C72.1423 12.7666 72.4788 12.8246 72.8897 12.8246C73.4532 12.8246 73.9189 12.687 74.2868 12.4119C74.6547 12.1402 74.8386 11.706 74.8386 11.1094V9.60795H74.7441C74.6547 9.77036 74.5254 9.95099 74.3564 10.1499C74.1906 10.3487 73.9619 10.5211 73.6703 10.6669C73.3786 10.8127 72.9991 10.8857 72.5318 10.8857C71.9286 10.8857 71.385 10.7448 70.9011 10.4631C70.4205 10.178 70.0394 9.75876 69.7576 9.20526C69.4792 8.64844 69.34 7.96401 69.34 7.15199C69.34 6.33996 69.4776 5.64394 69.7527 5.06392C70.0311 4.4839 70.4122 4.03977 70.8961 3.73153C71.38 3.41998 71.9286 3.2642 72.5417 3.2642C73.0157 3.2642 73.3985 3.34375 73.6902 3.50284C73.9818 3.65862 74.2089 3.84091 74.3713 4.04972C74.537 4.25852 74.6646 4.44247 74.7541 4.60156H74.8635V3.36364H76.3201V11.169C76.3201 11.8253 76.1677 12.3639 75.8627 12.7848C75.5578 13.2057 75.1452 13.5173 74.6248 13.7195C74.1078 13.9216 73.5244 14.0227 72.8748 14.0227ZM72.8599 9.6527C73.2875 9.6527 73.6487 9.55327 73.9437 9.3544C74.242 9.15223 74.4674 8.86387 74.6199 8.48935C74.7756 8.11151 74.8535 7.65909 74.8535 7.1321C74.8535 6.61837 74.7773 6.16596 74.6248 5.77486C74.4724 5.38376 74.2486 5.07884 73.9537 4.86009C73.6587 4.63802 73.2941 4.52699 72.8599 4.52699C72.4125 4.52699 72.0396 4.64299 71.7413 4.875C71.443 5.10369 71.2176 5.41525 71.0652 5.80966C70.916 6.20407 70.8414 6.64489 70.8414 7.1321C70.8414 7.63258 70.9177 8.07173 71.0701 8.44957C71.2226 8.82741 71.448 9.1224 71.7463 9.33452C72.0479 9.54664 72.4191 9.6527 72.8599 9.6527ZM82.813 6.05327V7.34091H78.2988V6.05327H82.813ZM88.3191 11.169C87.5336 11.1657 86.8624 10.9586 86.3056 10.5476C85.7488 10.1366 85.3229 9.53835 85.0279 8.75284C84.7329 7.96733 84.5854 7.02107 84.5854 5.91406C84.5854 4.81037 84.7329 3.86742 85.0279 3.08523C85.3262 2.30303 85.7537 1.70644 86.3105 1.29545C86.8707 0.884469 87.5402 0.678977 88.3191 0.678977C89.098 0.678977 89.7658 0.886126 90.3226 1.30043C90.8794 1.71141 91.3053 2.308 91.6003 3.0902C91.8986 3.86908 92.0478 4.81037 92.0478 5.91406C92.0478 7.02438 91.9003 7.9723 91.6053 8.75781C91.3103 9.54001 90.8844 10.1383 90.3276 10.5526C89.7708 10.9635 89.1013 11.169 88.3191 11.169ZM88.3191 9.84162C89.0085 9.84162 89.5471 9.50521 89.9348 8.83239C90.3259 8.15956 90.5215 7.18679 90.5215 5.91406C90.5215 5.06889 90.432 4.35464 90.253 3.77131C90.0774 3.18466 89.8238 2.74053 89.4924 2.43892C89.1642 2.134 88.7731 1.98153 88.3191 1.98153C87.633 1.98153 87.0944 2.3196 86.7033 2.99574C86.3122 3.67187 86.115 4.64465 86.1117 5.91406C86.1117 6.76255 86.1995 7.48011 86.3752 8.06676C86.5542 8.65009 86.8077 9.09257 87.1358 9.39418C87.464 9.69247 87.8584 9.84162 88.3191 9.84162ZM97.3562 11.1392C96.6734 11.1392 96.0636 11.0215 95.5266 10.7862C94.993 10.5509 94.5704 10.2244 94.2589 9.80682C93.9506 9.38589 93.7849 8.89867 93.7617 8.34517H95.3228C95.3427 8.64678 95.4438 8.90862 95.6261 9.13068C95.8117 9.34943 96.0536 9.51847 96.3519 9.63778C96.6502 9.7571 96.9817 9.81676 97.3462 9.81676C97.7473 9.81676 98.1019 9.74716 98.4102 9.60795C98.7217 9.46875 98.9653 9.27486 99.141 9.02628C99.3166 8.77438 99.4045 8.48438 99.4045 8.15625C99.4045 7.81487 99.3166 7.51491 99.141 7.25639C98.9686 6.99455 98.7151 6.78906 98.3803 6.63991C98.0489 6.49077 97.6478 6.41619 97.1772 6.41619H96.3171V5.16335H97.1772C97.555 5.16335 97.8865 5.09541 98.1715 4.95952C98.4599 4.82363 98.6853 4.63471 98.8477 4.39276C99.0101 4.14749 99.0913 3.8608 99.0913 3.53267C99.0913 3.2178 99.02 2.94437 98.8775 2.71236C98.7383 2.47704 98.5394 2.29309 98.2809 2.16051C98.0257 2.02794 97.7241 1.96165 97.3761 1.96165C97.0446 1.96165 96.7347 2.02296 96.4464 2.1456C96.1613 2.26491 95.9293 2.43726 95.7504 2.66264C95.5714 2.88471 95.4753 3.15151 95.462 3.46307H93.9755C93.9921 2.91288 94.1545 2.42898 94.4627 2.01136C94.7743 1.59375 95.1853 1.26728 95.6957 1.03196C96.2061 0.796638 96.7728 0.678977 97.396 0.678977C98.0489 0.678977 98.6123 0.806581 99.0863 1.06179C99.5636 1.31368 99.9315 1.65009 100.19 2.07102C100.452 2.49195 100.581 2.95265 100.578 3.45312C100.581 4.0232 100.422 4.5071 100.1 4.90483C99.7823 5.30256 99.3581 5.56937 98.8278 5.70526V5.7848C99.5039 5.88755 100.028 6.15601 100.399 6.5902C100.773 7.02438 100.959 7.56297 100.956 8.20597C100.959 8.7661 100.803 9.26823 100.488 9.71236C100.177 10.1565 99.7508 10.5062 99.2106 10.7614C98.6703 11.0133 98.0522 11.1392 97.3562 11.1392Z" fill="black"/>
</svg>
