<svg viewBox="0 0 89 12" fill="none" stroke-width="2" stroke="currentColor" aria-hidden="true">
  <path d="M6.72159 5.22798L5.37429 5.46662C5.31795 5.29427 5.22846 5.13021 5.10582 4.97443C4.98651 4.81865 4.8241 4.69105 4.61861 4.59162C4.41312 4.49219 4.15625 4.44247 3.84801 4.44247C3.42708 4.44247 3.07576 4.53693 2.79403 4.72585C2.51231 4.91146 2.37145 5.15175 2.37145 5.44673C2.37145 5.70194 2.46591 5.90743 2.65483 6.06321C2.84375 6.21899 3.14867 6.34659 3.5696 6.44602L4.78267 6.72443C5.48532 6.88684 6.009 7.13707 6.35369 7.47514C6.69839 7.81321 6.87074 8.25237 6.87074 8.79261C6.87074 9.25 6.73816 9.65767 6.47301 10.0156C6.21117 10.3703 5.84493 10.6487 5.37429 10.8509C4.90696 11.053 4.36506 11.1541 3.74858 11.1541C2.89347 11.1541 2.19579 10.9718 1.65554 10.6072C1.11529 10.2393 0.783854 9.71733 0.661222 9.04119L2.09801 8.82244C2.1875 9.19697 2.37145 9.48035 2.64986 9.67259C2.92827 9.86151 3.29119 9.95597 3.73864 9.95597C4.22585 9.95597 4.61529 9.85488 4.90696 9.6527C5.19863 9.44721 5.34446 9.19697 5.34446 8.90199C5.34446 8.66335 5.25497 8.46283 5.07599 8.30043C4.90033 8.13802 4.63021 8.01539 4.26562 7.93253L2.97301 7.64915C2.26042 7.48674 1.73343 7.22822 1.39205 6.87358C1.05398 6.51894 0.884943 6.06984 0.884943 5.52628C0.884943 5.07552 1.01089 4.68111 1.26278 4.34304C1.51468 4.00497 1.86269 3.74148 2.30682 3.55256C2.75095 3.36032 3.25971 3.2642 3.8331 3.2642C4.65838 3.2642 5.308 3.44318 5.78196 3.80114C6.25592 4.15578 6.56913 4.63139 6.72159 5.22798ZM9.99165 6.46591V11H8.50515V3.36364H9.932V4.60653H10.0265C10.2021 4.20218 10.4772 3.87737 10.8517 3.6321C11.2296 3.38684 11.7052 3.2642 12.2786 3.2642C12.7989 3.2642 13.2547 3.37358 13.6458 3.59233C14.0369 3.80777 14.3401 4.12926 14.5556 4.55682C14.771 4.98437 14.8787 5.51302 14.8787 6.14276V11H13.3922V6.32173C13.3922 5.76823 13.248 5.3357 12.9597 5.02415C12.6713 4.70928 12.2753 4.55185 11.7715 4.55185C11.4268 4.55185 11.1202 4.62642 10.8517 4.77557C10.5866 4.92472 10.3761 5.14347 10.2203 5.43182C10.0679 5.71686 9.99165 6.06155 9.99165 6.46591ZM20.089 11.1541C19.373 11.1541 18.7483 10.9901 18.2147 10.6619C17.681 10.3338 17.2667 9.87476 16.9718 9.2848C16.6768 8.69484 16.5293 8.00544 16.5293 7.21662C16.5293 6.42448 16.6768 5.73177 16.9718 5.13849C17.2667 4.54522 17.681 4.08452 18.2147 3.75639C18.7483 3.42827 19.373 3.2642 20.089 3.2642C20.8049 3.2642 21.4296 3.42827 21.9632 3.75639C22.4969 4.08452 22.9112 4.54522 23.2061 5.13849C23.5011 5.73177 23.6486 6.42448 23.6486 7.21662C23.6486 8.00544 23.5011 8.69484 23.2061 9.2848C22.9112 9.87476 22.4969 10.3338 21.9632 10.6619C21.4296 10.9901 20.8049 11.1541 20.089 11.1541ZM20.0939 9.90625C20.5579 9.90625 20.9424 9.78362 21.2473 9.53835C21.5523 9.29309 21.7776 8.96662 21.9235 8.55895C22.0726 8.15128 22.1472 7.70218 22.1472 7.21165C22.1472 6.72443 22.0726 6.27699 21.9235 5.86932C21.7776 5.45833 21.5523 5.12855 21.2473 4.87997C20.9424 4.63139 20.5579 4.5071 20.0939 4.5071C19.6266 4.5071 19.2388 4.63139 18.9306 4.87997C18.6257 5.12855 18.3986 5.45833 18.2495 5.86932C18.1036 6.27699 18.0307 6.72443 18.0307 7.21165C18.0307 7.70218 18.1036 8.15128 18.2495 8.55895C18.3986 8.96662 18.6257 9.29309 18.9306 9.53835C19.2388 9.78362 19.6266 9.90625 20.0939 9.90625ZM26.731 11L24.4838 3.36364H26.0201L27.5165 8.97159H27.5911L29.0925 3.36364H30.6287L32.1202 8.94673H32.1948L33.6813 3.36364H35.2175L32.9753 11H31.459L29.9078 5.48651H29.7935L28.2424 11H26.731ZM40.2624 3.36364V4.55682H35.9471V3.36364H40.2624ZM37.1303 11V2.47869C37.1303 2.00142 37.2347 1.60535 37.4435 1.29048C37.6523 0.972301 37.9291 0.735322 38.2738 0.579545C38.6185 0.420454 38.993 0.340908 39.3974 0.340908C39.6957 0.340908 39.9509 0.365767 40.163 0.415483C40.3751 0.461884 40.5326 0.504971 40.6353 0.544744L40.2873 1.74787C40.2177 1.72798 40.1282 1.70478 40.0188 1.67827C39.9094 1.64844 39.7769 1.63352 39.6211 1.63352C39.2598 1.63352 39.0013 1.72301 38.8455 1.90199C38.6931 2.08097 38.6168 2.33949 38.6168 2.67756V11H37.1303ZM43.2827 0.818182V11H41.7962V0.818182H43.2827ZM47.5048 11.169C47.0209 11.169 46.5834 11.0795 46.1923 10.9006C45.8012 10.7183 45.4913 10.4548 45.2626 10.1101C45.0372 9.76539 44.9245 9.3428 44.9245 8.84233C44.9245 8.41146 45.0074 8.05682 45.1731 7.77841C45.3388 7.5 45.5626 7.27959 45.8443 7.11719C46.126 6.95478 46.4409 6.83215 46.7889 6.74929C47.1369 6.66643 47.4915 6.60346 47.8528 6.56037C48.3102 6.50734 48.6814 6.46425 48.9664 6.43111C49.2515 6.39465 49.4586 6.33665 49.5879 6.2571C49.7172 6.17756 49.7818 6.0483 49.7818 5.86932V5.83452C49.7818 5.40033 49.6592 5.06392 49.4139 4.82528C49.1719 4.58665 48.8107 4.46733 48.3301 4.46733C47.8296 4.46733 47.4352 4.57836 47.1468 4.80043C46.8618 5.01918 46.6646 5.26278 46.5552 5.53125L45.1582 5.21307C45.3239 4.74905 45.5659 4.37453 45.8841 4.08949C46.2056 3.80114 46.5751 3.59233 46.9927 3.46307C47.4103 3.33049 47.8495 3.2642 48.3102 3.2642C48.6151 3.2642 48.9383 3.30066 49.2797 3.37358C49.6243 3.44318 49.9458 3.57244 50.2441 3.76136C50.5458 3.95028 50.7927 4.22041 50.9849 4.57173C51.1771 4.91974 51.2733 5.37216 51.2733 5.92898V11H49.8216V9.95597H49.7619C49.6658 10.1482 49.5216 10.3371 49.3294 10.5227C49.1371 10.7083 48.8902 10.8625 48.5886 10.9851C48.287 11.1077 47.9257 11.169 47.5048 11.169ZM47.8279 9.97585C48.2389 9.97585 48.5903 9.89465 48.8819 9.73224C49.1769 9.56984 49.4006 9.35772 49.5531 9.09588C49.7089 8.83073 49.7868 8.54735 49.7868 8.24574V7.26136C49.7337 7.31439 49.631 7.36411 49.4785 7.41051C49.3294 7.4536 49.1587 7.49171 48.9664 7.52486C48.7742 7.55469 48.5869 7.58286 48.4047 7.60938C48.2224 7.63258 48.0699 7.65246 47.9473 7.66903C47.6589 7.70549 47.3954 7.76681 47.1568 7.85298C46.9215 7.93916 46.7325 8.06345 46.59 8.22585C46.4508 8.38494 46.3812 8.59706 46.3812 8.86222C46.3812 9.23011 46.5171 9.50852 46.7889 9.69744C47.0607 9.88305 47.407 9.97585 47.8279 9.97585ZM54.6204 8.4098L54.6104 6.59517H54.869L57.9116 3.36364H59.6914L56.2212 7.04261H55.9876L54.6204 8.4098ZM53.2532 11V0.818182H54.7397V11H53.2532ZM58.0756 11L55.3413 7.37074L56.3654 6.33168L59.9002 11H58.0756ZM64.0229 11.1541C63.2705 11.1541 62.6226 10.9934 62.079 10.6719C61.5388 10.3471 61.1212 9.89134 60.8262 9.30469C60.5345 8.71473 60.3887 8.02367 60.3887 7.23153C60.3887 6.44934 60.5345 5.75994 60.8262 5.16335C61.1212 4.56676 61.5321 4.10109 62.0591 3.76633C62.5894 3.43158 63.2092 3.2642 63.9185 3.2642C64.3494 3.2642 64.767 3.33546 65.1713 3.47798C65.5757 3.6205 65.9386 3.84422 66.2601 4.14915C66.5816 4.45407 66.8352 4.85014 67.0208 5.33736C67.2064 5.82126 67.2992 6.40956 67.2992 7.10227V7.62926H61.2289V6.51562H65.8425C65.8425 6.12453 65.763 5.77817 65.6039 5.47656C65.4448 5.17164 65.2211 4.93134 64.9327 4.75568C64.6477 4.58002 64.3129 4.49219 63.9284 4.49219C63.5108 4.49219 63.1462 4.59493 62.8347 4.80043C62.5265 5.0026 62.2878 5.26776 62.1188 5.59588C61.9531 5.92069 61.8702 6.27367 61.8702 6.65483V7.52486C61.8702 8.03527 61.9597 8.46946 62.1387 8.82741C62.321 9.18537 62.5745 9.45881 62.8993 9.64773C63.2241 9.83333 63.6036 9.92614 64.0378 9.92614C64.3195 9.92614 64.5764 9.88636 64.8084 9.80682C65.0404 9.72396 65.2409 9.60133 65.41 9.43892C65.579 9.27652 65.7083 9.07599 65.7978 8.83736L67.2047 9.09091C67.092 9.50521 66.8899 9.86813 66.5982 10.1797C66.3098 10.4879 65.9469 10.7282 65.5094 10.9006C65.0752 11.0696 64.5797 11.1541 64.0229 11.1541ZM73.4478 6.05327V7.34091H68.9336V6.05327H73.4478ZM78.9538 11.169C78.1683 11.1657 77.4972 10.9586 76.9403 10.5476C76.3835 10.1366 75.9576 9.53835 75.6626 8.75284C75.3677 7.96733 75.2202 7.02107 75.2202 5.91406C75.2202 4.81037 75.3677 3.86742 75.6626 3.08523C75.9609 2.30303 76.3885 1.70644 76.9453 1.29545C77.5054 0.884469 78.175 0.678977 78.9538 0.678977C79.7327 0.678977 80.4006 0.886126 80.9574 1.30043C81.5142 1.71141 81.9401 2.308 82.2351 3.0902C82.5334 3.86908 82.6825 4.81037 82.6825 5.91406C82.6825 7.02438 82.535 7.9723 82.2401 8.75781C81.9451 9.54001 81.5192 10.1383 80.9624 10.5526C80.4055 10.9635 79.736 11.169 78.9538 11.169ZM78.9538 9.84162C79.6432 9.84162 80.1818 9.50521 80.5696 8.83239C80.9607 8.15956 81.1562 7.18679 81.1562 5.91406C81.1562 5.06889 81.0668 4.35464 80.8878 3.77131C80.7121 3.18466 80.4586 2.74053 80.1271 2.43892C79.799 2.134 79.4079 1.98153 78.9538 1.98153C78.2678 1.98153 77.7292 2.3196 77.3381 2.99574C76.947 3.67187 76.7498 4.64465 76.7464 5.91406C76.7464 6.76255 76.8343 7.48011 77.0099 8.06676C77.1889 8.65009 77.4425 9.09257 77.7706 9.39418C78.0987 9.69247 78.4931 9.84162 78.9538 9.84162ZM88.3091 0.818182V11H86.7679V2.35938H86.7083L84.2722 3.95028V2.47869L86.8127 0.818182H88.3091Z" fill="black"/>
</svg>
