<svg width="64" height="15" viewBox="0 0 64 15" fill="none" xmlns="http://www.w3.org/2000/svg">
<path d="M0.99929 11V3.36364H2.4858V11H0.99929ZM1.75 2.18537C1.49148 2.18537 1.26941 2.09919 1.08381 1.92685C0.901515 1.75118 0.810369 1.54238 0.810369 1.30043C0.810369 1.05516 0.901515 0.846354 1.08381 0.674005C1.26941 0.498342 1.49148 0.410511 1.75 0.410511C2.00852 0.410511 2.22893 0.498342 2.41122 0.674005C2.59683 0.846354 2.68963 1.05516 2.68963 1.30043C2.68963 1.54238 2.59683 1.75118 2.41122 1.92685C2.22893 2.09919 2.00852 2.18537 1.75 2.18537ZM4.48562 11V3.36364H5.91246V4.60653H6.00692C6.16602 4.18561 6.4262 3.85748 6.78746 3.62216C7.14873 3.38352 7.58126 3.2642 8.08505 3.2642C8.59547 3.2642 9.02302 3.38352 9.36772 3.62216C9.71573 3.8608 9.9726 4.18892 10.1383 4.60653H10.2179C10.4002 4.19886 10.6902 3.87405 11.0879 3.6321C11.4856 3.38684 11.9596 3.2642 12.5098 3.2642C13.2025 3.2642 13.7676 3.4813 14.2051 3.91548C14.6459 4.34967 14.8663 5.00426 14.8663 5.87926V11H13.3798V6.01847C13.3798 5.50142 13.2389 5.12689 12.9572 4.89489C12.6755 4.66288 12.3391 4.54688 11.948 4.54688C11.4641 4.54688 11.0879 4.69602 10.8194 4.99432C10.551 5.2893 10.4167 5.6688 10.4167 6.13281V11H8.93519V5.92401C8.93519 5.50971 8.80593 5.17661 8.54741 4.92472C8.28889 4.67282 7.95247 4.54688 7.53817 4.54688C7.25645 4.54688 6.99627 4.62145 6.75764 4.7706C6.52231 4.91643 6.33174 5.12026 6.1859 5.3821C6.04338 5.64394 5.97212 5.94721 5.97212 6.2919V11H4.48562ZM19.081 11.169C18.5971 11.169 18.1596 11.0795 17.7685 10.9006C17.3774 10.7183 17.0675 10.4548 16.8388 10.1101C16.6134 9.76539 16.5007 9.3428 16.5007 8.84233C16.5007 8.41146 16.5836 8.05682 16.7493 7.77841C16.915 7.5 17.1387 7.27959 17.4205 7.11719C17.7022 6.95478 18.017 6.83215 18.3651 6.74929C18.7131 6.66643 19.0677 6.60346 19.429 6.56037C19.8864 6.50734 20.2576 6.46425 20.5426 6.43111C20.8277 6.39465 21.0348 6.33665 21.1641 6.2571C21.2933 6.17756 21.358 6.0483 21.358 5.86932V5.83452C21.358 5.40033 21.2353 5.06392 20.9901 4.82528C20.7481 4.58665 20.3868 4.46733 19.9062 4.46733C19.4058 4.46733 19.0114 4.57836 18.723 4.80043C18.438 5.01918 18.2408 5.26278 18.1314 5.53125L16.7344 5.21307C16.9001 4.74905 17.142 4.37453 17.4602 4.08949C17.7817 3.80114 18.1513 3.59233 18.5689 3.46307C18.9865 3.33049 19.4257 3.2642 19.8864 3.2642C20.1913 3.2642 20.5144 3.30066 20.8558 3.37358C21.2005 3.44318 21.522 3.57244 21.8203 3.76136C22.1219 3.95028 22.3688 4.22041 22.5611 4.57173C22.7533 4.91974 22.8494 5.37216 22.8494 5.92898V11H21.3977V9.95597H21.3381C21.242 10.1482 21.0978 10.3371 20.9055 10.5227C20.7133 10.7083 20.4664 10.8625 20.1648 10.9851C19.8632 11.1077 19.5019 11.169 19.081 11.169ZM19.4041 9.97585C19.8151 9.97585 20.1664 9.89465 20.4581 9.73224C20.7531 9.56984 20.9768 9.35772 21.1293 9.09588C21.285 8.83073 21.3629 8.54735 21.3629 8.24574V7.26136C21.3099 7.31439 21.2071 7.36411 21.0547 7.41051C20.9055 7.4536 20.7348 7.49171 20.5426 7.52486C20.3504 7.55469 20.1631 7.58286 19.9808 7.60938C19.7985 7.63258 19.6461 7.65246 19.5234 7.66903C19.2351 7.70549 18.9716 7.76681 18.733 7.85298C18.4976 7.93916 18.3087 8.06345 18.1662 8.22585C18.027 8.38494 17.9574 8.59706 17.9574 8.86222C17.9574 9.23011 18.0933 9.50852 18.3651 9.69744C18.6368 9.88305 18.9832 9.97585 19.4041 9.97585ZM28.0311 14.0227C27.4245 14.0227 26.9025 13.9432 26.465 13.7841C26.0308 13.625 25.6762 13.4145 25.4011 13.1527C25.126 12.8909 24.9205 12.6042 24.7846 12.2926L26.0623 11.7656C26.1518 11.9115 26.2711 12.0656 26.4203 12.228C26.5727 12.3937 26.7782 12.5346 27.0368 12.6506C27.2986 12.7666 27.635 12.8246 28.046 12.8246C28.6094 12.8246 29.0751 12.687 29.443 12.4119C29.8109 12.1402 29.9949 11.706 29.9949 11.1094V9.60795H29.9004C29.8109 9.77036 29.6816 9.95099 29.5126 10.1499C29.3469 10.3487 29.1182 10.5211 28.8265 10.6669C28.5349 10.8127 28.1554 10.8857 27.688 10.8857C27.0848 10.8857 26.5413 10.7448 26.0574 10.4631C25.5768 10.178 25.1956 9.75876 24.9139 9.20526C24.6355 8.64844 24.4963 7.96401 24.4963 7.15199C24.4963 6.33996 24.6338 5.64394 24.9089 5.06392C25.1873 4.4839 25.5685 4.03977 26.0524 3.73153C26.5363 3.41998 27.0848 3.2642 27.698 3.2642C28.1719 3.2642 28.5547 3.34375 28.8464 3.50284C29.1381 3.65862 29.3651 3.84091 29.5275 4.04972C29.6932 4.25852 29.8208 4.44247 29.9103 4.60156H30.0197V3.36364H31.4764V11.169C31.4764 11.8253 31.3239 12.3639 31.019 12.7848C30.7141 13.2057 30.3014 13.5173 29.7811 13.7195C29.264 13.9216 28.6807 14.0227 28.0311 14.0227ZM28.0162 9.6527C28.4437 9.6527 28.805 9.55327 29.1 9.3544C29.3983 9.15223 29.6236 8.86387 29.7761 8.48935C29.9319 8.11151 30.0098 7.65909 30.0098 7.1321C30.0098 6.61837 29.9335 6.16596 29.7811 5.77486C29.6286 5.38376 29.4049 5.07884 29.1099 4.86009C28.8149 4.63802 28.4503 4.52699 28.0162 4.52699C27.5687 4.52699 27.1958 4.64299 26.8975 4.875C26.5993 5.10369 26.3739 5.41525 26.2214 5.80966C26.0723 6.20407 25.9977 6.64489 25.9977 7.1321C25.9977 7.63258 26.0739 8.07173 26.2264 8.44957C26.3788 8.82741 26.6042 9.1224 26.9025 9.33452C27.2041 9.54664 27.5753 9.6527 28.0162 9.6527ZM36.7612 11.1541C36.0088 11.1541 35.3609 10.9934 34.8173 10.6719C34.277 10.3471 33.8594 9.89134 33.5645 9.30469C33.2728 8.71473 33.127 8.02367 33.127 7.23153C33.127 6.44934 33.2728 5.75994 33.5645 5.16335C33.8594 4.56676 34.2704 4.10109 34.7974 3.76633C35.3277 3.43158 35.9475 3.2642 36.6568 3.2642C37.0877 3.2642 37.5053 3.33546 37.9096 3.47798C38.314 3.6205 38.6769 3.84422 38.9984 4.14915C39.3199 4.45407 39.5734 4.85014 39.7591 5.33736C39.9447 5.82126 40.0375 6.40956 40.0375 7.10227V7.62926H33.9672V6.51562H38.5808C38.5808 6.12453 38.5012 5.77817 38.3422 5.47656C38.1831 5.17164 37.9593 4.93134 37.671 4.75568C37.3859 4.58002 37.0512 4.49219 36.6667 4.49219C36.2491 4.49219 35.8845 4.59493 35.573 4.80043C35.2647 5.0026 35.0261 5.26776 34.8571 5.59588C34.6913 5.92069 34.6085 6.27367 34.6085 6.65483V7.52486C34.6085 8.03527 34.698 8.46946 34.877 8.82741C35.0592 9.18537 35.3128 9.45881 35.6376 9.64773C35.9624 9.83333 36.3419 9.92614 36.7761 9.92614C37.0578 9.92614 37.3147 9.88636 37.5467 9.80682C37.7787 9.72396 37.9792 9.60133 38.1483 9.43892C38.3173 9.27652 38.4466 9.07599 38.536 8.83736L39.943 9.09091C39.8303 9.50521 39.6281 9.86813 39.3365 10.1797C39.0481 10.4879 38.6852 10.7282 38.2477 10.9006C37.8135 11.0696 37.318 11.1541 36.7612 11.1541ZM46.1861 6.05327V7.34091H41.6719V6.05327H46.1861ZM51.6921 11.169C50.9066 11.1657 50.2354 10.9586 49.6786 10.5476C49.1218 10.1366 48.6959 9.53835 48.4009 8.75284C48.1059 7.96733 47.9585 7.02107 47.9585 5.91406C47.9585 4.81037 48.1059 3.86742 48.4009 3.08523C48.6992 2.30303 49.1268 1.70644 49.6836 1.29545C50.2437 0.884469 50.9132 0.678977 51.6921 0.678977C52.471 0.678977 53.1388 0.886126 53.6957 1.30043C54.2525 1.71141 54.6784 2.308 54.9734 3.0902C55.2717 3.86908 55.4208 4.81037 55.4208 5.91406C55.4208 7.02438 55.2733 7.9723 54.9783 8.75781C54.6834 9.54001 54.2575 10.1383 53.7006 10.5526C53.1438 10.9635 52.4743 11.169 51.6921 11.169ZM51.6921 9.84162C52.3815 9.84162 52.9201 9.50521 53.3079 8.83239C53.699 8.15956 53.8945 7.18679 53.8945 5.91406C53.8945 5.06889 53.805 4.35464 53.6261 3.77131C53.4504 3.18466 53.1969 2.74053 52.8654 2.43892C52.5373 2.134 52.1462 1.98153 51.6921 1.98153C51.006 1.98153 50.4674 2.3196 50.0763 2.99574C49.6853 3.67187 49.488 4.64465 49.4847 5.91406C49.4847 6.76255 49.5726 7.48011 49.7482 8.06676C49.9272 8.65009 50.1808 9.09257 50.5089 9.39418C50.837 9.69247 51.2314 9.84162 51.6921 9.84162ZM57.1845 11V9.88636L60.6298 6.31676C60.9977 5.92898 61.301 5.58925 61.5396 5.29759C61.7815 5.0026 61.9622 4.72254 62.0815 4.45739C62.2008 4.19223 62.2605 3.91051 62.2605 3.61222C62.2605 3.27415 62.1809 2.98248 62.0218 2.73722C61.8627 2.48864 61.6457 2.29806 61.3706 2.16548C61.0955 2.02959 60.7856 1.96165 60.4409 1.96165C60.0763 1.96165 59.7581 2.03622 59.4863 2.18537C59.2145 2.33452 59.0057 2.54498 58.8599 2.81676C58.7141 3.08854 58.6412 3.40672 58.6412 3.77131H57.1745C57.1745 3.15151 57.3171 2.60961 57.6021 2.1456C57.8871 1.68158 58.2782 1.32197 58.7754 1.06676C59.2725 0.808238 59.8377 0.678977 60.4707 0.678977C61.1104 0.678977 61.6738 0.806581 62.161 1.06179C62.6516 1.31368 63.0344 1.65838 63.3095 2.09588C63.5846 2.53007 63.7221 3.0206 63.7221 3.56747C63.7221 3.94531 63.6509 4.31487 63.5083 4.67614C63.3691 5.0374 63.1255 5.4401 62.7775 5.88423C62.4295 6.32505 61.9456 6.86032 61.3258 7.49006L59.3024 9.60795V9.68253H63.8862V11H57.1845Z" fill="black"/>
</svg>
