<svg width="78" height="15" viewBox="0 0 78 15" fill="none" xmlns="http://www.w3.org/2000/svg">
<path d="M0.99929 11V3.36364H2.4858V11H0.99929ZM1.75 2.18537C1.49148 2.18537 1.26941 2.09919 1.08381 1.92685C0.901515 1.75118 0.810369 1.54238 0.810369 1.30043C0.810369 1.05516 0.901515 0.846354 1.08381 0.674005C1.26941 0.498342 1.49148 0.410511 1.75 0.410511C2.00852 0.410511 2.22893 0.498342 2.41122 0.674005C2.59683 0.846354 2.68963 1.05516 2.68963 1.30043C2.68963 1.54238 2.59683 1.75118 2.41122 1.92685C2.22893 2.09919 2.00852 2.18537 1.75 2.18537ZM4.48562 11V3.36364H5.91246V4.60653H6.00692C6.16602 4.18561 6.4262 3.85748 6.78746 3.62216C7.14873 3.38352 7.58126 3.2642 8.08505 3.2642C8.59547 3.2642 9.02302 3.38352 9.36772 3.62216C9.71573 3.8608 9.9726 4.18892 10.1383 4.60653H10.2179C10.4002 4.19886 10.6902 3.87405 11.0879 3.6321C11.4856 3.38684 11.9596 3.2642 12.5098 3.2642C13.2025 3.2642 13.7676 3.4813 14.2051 3.91548C14.6459 4.34967 14.8663 5.00426 14.8663 5.87926V11H13.3798V6.01847C13.3798 5.50142 13.2389 5.12689 12.9572 4.89489C12.6755 4.66288 12.3391 4.54688 11.948 4.54688C11.4641 4.54688 11.0879 4.69602 10.8194 4.99432C10.551 5.2893 10.4167 5.6688 10.4167 6.13281V11H8.93519V5.92401C8.93519 5.50971 8.80593 5.17661 8.54741 4.92472C8.28889 4.67282 7.95247 4.54688 7.53817 4.54688C7.25645 4.54688 6.99627 4.62145 6.75764 4.7706C6.52231 4.91643 6.33174 5.12026 6.1859 5.3821C6.04338 5.64394 5.97212 5.94721 5.97212 6.2919V11H4.48562ZM19.081 11.169C18.5971 11.169 18.1596 11.0795 17.7685 10.9006C17.3774 10.7183 17.0675 10.4548 16.8388 10.1101C16.6134 9.76539 16.5007 9.3428 16.5007 8.84233C16.5007 8.41146 16.5836 8.05682 16.7493 7.77841C16.915 7.5 17.1387 7.27959 17.4205 7.11719C17.7022 6.95478 18.017 6.83215 18.3651 6.74929C18.7131 6.66643 19.0677 6.60346 19.429 6.56037C19.8864 6.50734 20.2576 6.46425 20.5426 6.43111C20.8277 6.39465 21.0348 6.33665 21.1641 6.2571C21.2933 6.17756 21.358 6.0483 21.358 5.86932V5.83452C21.358 5.40033 21.2353 5.06392 20.9901 4.82528C20.7481 4.58665 20.3868 4.46733 19.9062 4.46733C19.4058 4.46733 19.0114 4.57836 18.723 4.80043C18.438 5.01918 18.2408 5.26278 18.1314 5.53125L16.7344 5.21307C16.9001 4.74905 17.142 4.37453 17.4602 4.08949C17.7817 3.80114 18.1513 3.59233 18.5689 3.46307C18.9865 3.33049 19.4257 3.2642 19.8864 3.2642C20.1913 3.2642 20.5144 3.30066 20.8558 3.37358C21.2005 3.44318 21.522 3.57244 21.8203 3.76136C22.1219 3.95028 22.3688 4.22041 22.5611 4.57173C22.7533 4.91974 22.8494 5.37216 22.8494 5.92898V11H21.3977V9.95597H21.3381C21.242 10.1482 21.0978 10.3371 20.9055 10.5227C20.7133 10.7083 20.4664 10.8625 20.1648 10.9851C19.8632 11.1077 19.5019 11.169 19.081 11.169ZM19.4041 9.97585C19.8151 9.97585 20.1664 9.89465 20.4581 9.73224C20.7531 9.56984 20.9768 9.35772 21.1293 9.09588C21.285 8.83073 21.3629 8.54735 21.3629 8.24574V7.26136C21.3099 7.31439 21.2071 7.36411 21.0547 7.41051C20.9055 7.4536 20.7348 7.49171 20.5426 7.52486C20.3504 7.55469 20.1631 7.58286 19.9808 7.60938C19.7985 7.63258 19.6461 7.65246 19.5234 7.66903C19.2351 7.70549 18.9716 7.76681 18.733 7.85298C18.4976 7.93916 18.3087 8.06345 18.1662 8.22585C18.027 8.38494 17.9574 8.59706 17.9574 8.86222C17.9574 9.23011 18.0933 9.50852 18.3651 9.69744C18.6368 9.88305 18.9832 9.97585 19.4041 9.97585ZM28.0311 14.0227C27.4245 14.0227 26.9025 13.9432 26.465 13.7841C26.0308 13.625 25.6762 13.4145 25.4011 13.1527C25.126 12.8909 24.9205 12.6042 24.7846 12.2926L26.0623 11.7656C26.1518 11.9115 26.2711 12.0656 26.4203 12.228C26.5727 12.3937 26.7782 12.5346 27.0368 12.6506C27.2986 12.7666 27.635 12.8246 28.046 12.8246C28.6094 12.8246 29.0751 12.687 29.443 12.4119C29.8109 12.1402 29.9949 11.706 29.9949 11.1094V9.60795H29.9004C29.8109 9.77036 29.6816 9.95099 29.5126 10.1499C29.3469 10.3487 29.1182 10.5211 28.8265 10.6669C28.5349 10.8127 28.1554 10.8857 27.688 10.8857C27.0848 10.8857 26.5413 10.7448 26.0574 10.4631C25.5768 10.178 25.1956 9.75876 24.9139 9.20526C24.6355 8.64844 24.4963 7.96401 24.4963 7.15199C24.4963 6.33996 24.6338 5.64394 24.9089 5.06392C25.1873 4.4839 25.5685 4.03977 26.0524 3.73153C26.5363 3.41998 27.0848 3.2642 27.698 3.2642C28.1719 3.2642 28.5547 3.34375 28.8464 3.50284C29.1381 3.65862 29.3651 3.84091 29.5275 4.04972C29.6932 4.25852 29.8208 4.44247 29.9103 4.60156H30.0197V3.36364H31.4764V11.169C31.4764 11.8253 31.3239 12.3639 31.019 12.7848C30.7141 13.2057 30.3014 13.5173 29.7811 13.7195C29.264 13.9216 28.6807 14.0227 28.0311 14.0227ZM28.0162 9.6527C28.4437 9.6527 28.805 9.55327 29.1 9.3544C29.3983 9.15223 29.6236 8.86387 29.7761 8.48935C29.9319 8.11151 30.0098 7.65909 30.0098 7.1321C30.0098 6.61837 29.9335 6.16596 29.7811 5.77486C29.6286 5.38376 29.4049 5.07884 29.1099 4.86009C28.8149 4.63802 28.4503 4.52699 28.0162 4.52699C27.5687 4.52699 27.1958 4.64299 26.8975 4.875C26.5993 5.10369 26.3739 5.41525 26.2214 5.80966C26.0723 6.20407 25.9977 6.64489 25.9977 7.1321C25.9977 7.63258 26.0739 8.07173 26.2264 8.44957C26.3788 8.82741 26.6042 9.1224 26.9025 9.33452C27.2041 9.54664 27.5753 9.6527 28.0162 9.6527ZM36.7612 11.1541C36.0088 11.1541 35.3609 10.9934 34.8173 10.6719C34.277 10.3471 33.8594 9.89134 33.5645 9.30469C33.2728 8.71473 33.127 8.02367 33.127 7.23153C33.127 6.44934 33.2728 5.75994 33.5645 5.16335C33.8594 4.56676 34.2704 4.10109 34.7974 3.76633C35.3277 3.43158 35.9475 3.2642 36.6568 3.2642C37.0877 3.2642 37.5053 3.33546 37.9096 3.47798C38.314 3.6205 38.6769 3.84422 38.9984 4.14915C39.3199 4.45407 39.5734 4.85014 39.7591 5.33736C39.9447 5.82126 40.0375 6.40956 40.0375 7.10227V7.62926H33.9672V6.51562H38.5808C38.5808 6.12453 38.5012 5.77817 38.3422 5.47656C38.1831 5.17164 37.9593 4.93134 37.671 4.75568C37.3859 4.58002 37.0512 4.49219 36.6667 4.49219C36.2491 4.49219 35.8845 4.59493 35.573 4.80043C35.2647 5.0026 35.0261 5.26776 34.8571 5.59588C34.6913 5.92069 34.6085 6.27367 34.6085 6.65483V7.52486C34.6085 8.03527 34.698 8.46946 34.877 8.82741C35.0592 9.18537 35.3128 9.45881 35.6376 9.64773C35.9624 9.83333 36.3419 9.92614 36.7761 9.92614C37.0578 9.92614 37.3147 9.88636 37.5467 9.80682C37.7787 9.72396 37.9792 9.60133 38.1483 9.43892C38.3173 9.27652 38.4466 9.07599 38.536 8.83736L39.943 9.09091C39.8303 9.50521 39.6281 9.86813 39.3365 10.1797C39.0481 10.4879 38.6852 10.7282 38.2477 10.9006C37.8135 11.0696 37.318 11.1541 36.7612 11.1541ZM46.1861 6.05327V7.34091H41.6719V6.05327H46.1861ZM48.1673 11V3.36364H49.604V4.5767H49.6836C49.8228 4.16572 50.0681 3.84257 50.4194 3.60724C50.774 3.36861 51.1751 3.24929 51.6225 3.24929C51.7153 3.24929 51.8247 3.2526 51.9506 3.25923C52.0799 3.26586 52.181 3.27415 52.2539 3.28409V4.70597C52.1942 4.68939 52.0882 4.67116 51.9357 4.65128C51.7833 4.62808 51.6308 4.61648 51.4783 4.61648C51.127 4.61648 50.8138 4.69105 50.5387 4.8402C50.2669 4.98603 50.0515 5.18987 49.8924 5.4517C49.7333 5.71023 49.6538 6.00521 49.6538 6.33665V11H48.1673ZM53.5403 11V3.36364H55.0268V11H53.5403ZM54.291 2.18537C54.0325 2.18537 53.8104 2.09919 53.6248 1.92685C53.4425 1.75118 53.3514 1.54238 53.3514 1.30043C53.3514 1.05516 53.4425 0.846354 53.6248 0.674005C53.8104 0.498342 54.0325 0.410511 54.291 0.410511C54.5495 0.410511 54.7699 0.498342 54.9522 0.674005C55.1378 0.846354 55.2306 1.05516 55.2306 1.30043C55.2306 1.54238 55.1378 1.75118 54.9522 1.92685C54.7699 2.09919 54.5495 2.18537 54.291 2.18537ZM60.2283 14.0227C59.6218 14.0227 59.0998 13.9432 58.6623 13.7841C58.2281 13.625 57.8735 13.4145 57.5984 13.1527C57.3233 12.8909 57.1178 12.6042 56.9819 12.2926L58.2596 11.7656C58.3491 11.9115 58.4684 12.0656 58.6175 12.228C58.77 12.3937 58.9755 12.5346 59.234 12.6506C59.4959 12.7666 59.8323 12.8246 60.2433 12.8246C60.8067 12.8246 61.2724 12.687 61.6403 12.4119C62.0082 12.1402 62.1921 11.706 62.1921 11.1094V9.60795H62.0977C62.0082 9.77036 61.8789 9.95099 61.7099 10.1499C61.5442 10.3487 61.3155 10.5211 61.0238 10.6669C60.7321 10.8127 60.3526 10.8857 59.8853 10.8857C59.2821 10.8857 58.7385 10.7448 58.2546 10.4631C57.774 10.178 57.3929 9.75876 57.1112 9.20526C56.8327 8.64844 56.6935 7.96401 56.6935 7.15199C56.6935 6.33996 56.8311 5.64394 57.1062 5.06392C57.3846 4.4839 57.7657 4.03977 58.2496 3.73153C58.7335 3.41998 59.2821 3.2642 59.8952 3.2642C60.3692 3.2642 60.752 3.34375 61.0437 3.50284C61.3353 3.65862 61.5624 3.84091 61.7248 4.04972C61.8905 4.25852 62.0181 4.44247 62.1076 4.60156H62.217V3.36364H63.6737V11.169C63.6737 11.8253 63.5212 12.3639 63.2163 12.7848C62.9113 13.2057 62.4987 13.5173 61.9783 13.7195C61.4613 13.9216 60.878 14.0227 60.2283 14.0227ZM60.2134 9.6527C60.641 9.6527 61.0022 9.55327 61.2972 9.3544C61.5955 9.15223 61.8209 8.86387 61.9734 8.48935C62.1291 8.11151 62.207 7.65909 62.207 7.1321C62.207 6.61837 62.1308 6.16596 61.9783 5.77486C61.8259 5.38376 61.6022 5.07884 61.3072 4.86009C61.0122 4.63802 60.6476 4.52699 60.2134 4.52699C59.766 4.52699 59.3931 4.64299 59.0948 4.875C58.7965 5.10369 58.5711 5.41525 58.4187 5.80966C58.2695 6.20407 58.195 6.64489 58.195 7.1321C58.195 7.63258 58.2712 8.07173 58.4237 8.44957C58.5761 8.82741 58.8015 9.1224 59.0998 9.33452C59.4014 9.54664 59.7726 9.6527 60.2134 9.6527ZM67.1538 6.46591V11H65.6673V0.818182H67.1339V4.60653H67.2283C67.4073 4.19555 67.6808 3.86908 68.0487 3.62713C68.4165 3.38518 68.8971 3.2642 69.4904 3.2642C70.0141 3.2642 70.4715 3.37192 70.8626 3.58736C71.257 3.80279 71.5619 4.12429 71.7773 4.55185C71.9961 4.97609 72.1055 5.50639 72.1055 6.14276V11H70.619V6.32173C70.619 5.7616 70.4748 5.32741 70.1864 5.01918C69.8981 4.70762 69.497 4.55185 68.9833 4.55185C68.632 4.55185 68.3171 4.62642 68.0387 4.77557C67.7636 4.92472 67.5465 5.14347 67.3874 5.43182C67.2317 5.71686 67.1538 6.06155 67.1538 6.46591ZM77.6538 3.36364V4.55682H73.4826V3.36364H77.6538ZM74.6012 1.53409H76.0877V8.75781C76.0877 9.04616 76.1308 9.26326 76.217 9.40909C76.3031 9.55161 76.4142 9.64938 76.5501 9.70241C76.6893 9.75213 76.8401 9.77699 77.0025 9.77699C77.1218 9.77699 77.2262 9.7687 77.3157 9.75213C77.4052 9.73556 77.4748 9.7223 77.5245 9.71236L77.793 10.9403C77.7068 10.9735 77.5842 11.0066 77.4251 11.0398C77.266 11.0762 77.0671 11.0961 76.8285 11.0994C76.4374 11.1061 76.0728 11.0365 75.7347 10.8906C75.3967 10.7448 75.1232 10.5194 74.9144 10.2145C74.7056 9.90956 74.6012 9.52675 74.6012 9.06605V1.53409Z" fill="black"/>
</svg>
