<svg width="58" height="12" viewBox="0 0 58 12" fill="none" xmlns="http://www.w3.org/2000/svg">
<path d="M4.63352 3.36364V4.55682H0.318182V3.36364H4.63352ZM1.50142 11V2.47869C1.50142 2.00142 1.60582 1.60535 1.81463 1.29048C2.02344 0.972301 2.30019 0.735322 2.64489 0.579545C2.98958 0.420454 3.36411 0.340908 3.76847 0.340908C4.06676 0.340908 4.32197 0.365767 4.53409 0.415483C4.74621 0.461884 4.90365 0.504971 5.00639 0.544744L4.65838 1.74787C4.58878 1.72798 4.49929 1.70478 4.38991 1.67827C4.28054 1.64844 4.14796 1.63352 3.99219 1.63352C3.63092 1.63352 3.3724 1.72301 3.21662 1.90199C3.06416 2.08097 2.98793 2.33949 2.98793 2.67756V11H1.50142ZM7.65376 0.818182V11H6.16726V0.818182H7.65376ZM11.8759 11.169C11.392 11.169 10.9545 11.0795 10.5634 10.9006C10.1723 10.7183 9.86239 10.4548 9.6337 10.1101C9.40832 9.76539 9.29563 9.3428 9.29563 8.84233C9.29563 8.41146 9.37849 8.05682 9.54421 7.77841C9.70993 7.5 9.93365 7.27959 10.2154 7.11719C10.4971 6.95478 10.812 6.83215 11.16 6.74929C11.508 6.66643 11.8626 6.60346 12.2239 6.56037C12.6813 6.50734 13.0525 6.46425 13.3375 6.43111C13.6226 6.39465 13.8297 6.33665 13.959 6.2571C14.0882 6.17756 14.1529 6.0483 14.1529 5.86932V5.83452C14.1529 5.40033 14.0302 5.06392 13.785 4.82528C13.543 4.58665 13.1818 4.46733 12.7012 4.46733C12.2007 4.46733 11.8063 4.57836 11.5179 4.80043C11.2329 5.01918 11.0357 5.26278 10.9263 5.53125L9.5293 5.21307C9.69502 4.74905 9.93697 4.37453 10.2551 4.08949C10.5766 3.80114 10.9462 3.59233 11.3638 3.46307C11.7814 3.33049 12.2206 3.2642 12.6813 3.2642C12.9862 3.2642 13.3094 3.30066 13.6507 3.37358C13.9954 3.44318 14.3169 3.57244 14.6152 3.76136C14.9168 3.95028 15.1638 4.22041 15.356 4.57173C15.5482 4.91974 15.6444 5.37216 15.6444 5.92898V11H14.1926V9.95597H14.133C14.0369 10.1482 13.8927 10.3371 13.7005 10.5227C13.5082 10.7083 13.2613 10.8625 12.9597 10.9851C12.6581 11.1077 12.2968 11.169 11.8759 11.169ZM12.199 9.97585C12.61 9.97585 12.9614 9.89465 13.253 9.73224C13.548 9.56984 13.7717 9.35772 13.9242 9.09588C14.08 8.83073 14.1578 8.54735 14.1578 8.24574V7.26136C14.1048 7.31439 14.0021 7.36411 13.8496 7.41051C13.7005 7.4536 13.5298 7.49171 13.3375 7.52486C13.1453 7.55469 12.958 7.58286 12.7757 7.60938C12.5935 7.63258 12.441 7.65246 12.3184 7.66903C12.03 7.70549 11.7665 7.76681 11.5279 7.85298C11.2926 7.93916 11.1036 8.06345 10.9611 8.22585C10.8219 8.38494 10.7523 8.59706 10.7523 8.86222C10.7523 9.23011 10.8882 9.50852 11.16 9.69744C11.4318 9.88305 11.7781 9.97585 12.199 9.97585ZM23.3466 5.22798L21.9993 5.46662C21.9429 5.29427 21.8535 5.13021 21.7308 4.97443C21.6115 4.81865 21.4491 4.69105 21.2436 4.59162C21.0381 4.49219 20.7813 4.44247 20.473 4.44247C20.0521 4.44247 19.7008 4.53693 19.419 4.72585C19.1373 4.91146 18.9964 5.15175 18.9964 5.44673C18.9964 5.70194 19.0909 5.90743 19.2798 6.06321C19.4688 6.21899 19.7737 6.34659 20.1946 6.44602L21.4077 6.72443C22.1103 6.88684 22.634 7.13707 22.9787 7.47514C23.3234 7.81321 23.4957 8.25237 23.4957 8.79261C23.4957 9.25 23.3632 9.65767 23.098 10.0156C22.8362 10.3703 22.4699 10.6487 21.9993 10.8509C21.532 11.053 20.9901 11.1541 20.3736 11.1541C19.5185 11.1541 18.8208 10.9718 18.2805 10.6072C17.7403 10.2393 17.4089 9.71733 17.2862 9.04119L18.723 8.82244C18.8125 9.19697 18.9964 9.48035 19.2749 9.67259C19.5533 9.86151 19.9162 9.95597 20.3636 9.95597C20.8509 9.95597 21.2403 9.85488 21.532 9.6527C21.8236 9.44721 21.9695 9.19697 21.9695 8.90199C21.9695 8.66335 21.88 8.46283 21.701 8.30043C21.5253 8.13802 21.2552 8.01539 20.8906 7.93253L19.598 7.64915C18.8854 7.48674 18.3584 7.22822 18.017 6.87358C17.679 6.51894 17.5099 6.06984 17.5099 5.52628C17.5099 5.07552 17.6359 4.68111 17.8878 4.34304C18.1397 4.00497 18.4877 3.74148 18.9318 3.55256C19.3759 3.36032 19.8847 3.2642 20.4581 3.2642C21.2834 3.2642 21.933 3.44318 22.407 3.80114C22.8809 4.15578 23.1941 4.63139 23.3466 5.22798ZM26.6167 6.46591V11H25.1301V0.818182H26.5968V4.60653H26.6912C26.8702 4.19555 27.1436 3.86908 27.5115 3.62713C27.8794 3.38518 28.36 3.2642 28.9533 3.2642C29.477 3.2642 29.9344 3.37192 30.3255 3.58736C30.7199 3.80279 31.0248 4.12429 31.2402 4.55185C31.459 4.97609 31.5684 5.50639 31.5684 6.14276V11H30.0819V6.32173C30.0819 5.7616 29.9377 5.32741 29.6493 5.01918C29.361 4.70762 28.9599 4.55185 28.4462 4.55185C28.0949 4.55185 27.78 4.62642 27.5016 4.77557C27.2265 4.92472 27.0094 5.14347 26.8503 5.43182C26.6945 5.71686 26.6167 6.06155 26.6167 6.46591ZM38.0513 6.05327V7.34091H33.5371V6.05327H38.0513ZM43.2491 11.1541C42.5332 11.1541 41.9084 10.9901 41.3748 10.6619C40.8412 10.3338 40.4269 9.87476 40.1319 9.2848C39.8369 8.69484 39.6895 8.00544 39.6895 7.21662C39.6895 6.42448 39.8369 5.73177 40.1319 5.13849C40.4269 4.54522 40.8412 4.08452 41.3748 3.75639C41.9084 3.42827 42.5332 3.2642 43.2491 3.2642C43.965 3.2642 44.5898 3.42827 45.1234 3.75639C45.657 4.08452 46.0713 4.54522 46.3663 5.13849C46.6613 5.73177 46.8088 6.42448 46.8088 7.21662C46.8088 8.00544 46.6613 8.69484 46.3663 9.2848C46.0713 9.87476 45.657 10.3338 45.1234 10.6619C44.5898 10.9901 43.965 11.1541 43.2491 11.1541ZM43.2541 9.90625C43.7181 9.90625 44.1026 9.78362 44.4075 9.53835C44.7124 9.29309 44.9378 8.96662 45.0836 8.55895C45.2328 8.15128 45.3074 7.70218 45.3074 7.21165C45.3074 6.72443 45.2328 6.27699 45.0836 5.86932C44.9378 5.45833 44.7124 5.12855 44.4075 4.87997C44.1026 4.63139 43.7181 4.5071 43.2541 4.5071C42.7868 4.5071 42.399 4.63139 42.0907 4.87997C41.7858 5.12855 41.5588 5.45833 41.4096 5.86932C41.2638 6.27699 41.1909 6.72443 41.1909 7.21165C41.1909 7.70218 41.2638 8.15128 41.4096 8.55895C41.5588 8.96662 41.7858 9.29309 42.0907 9.53835C42.399 9.78362 42.7868 9.90625 43.2541 9.90625ZM52.1023 3.36364V4.55682H47.7869V3.36364H52.1023ZM48.9702 11V2.47869C48.9702 2.00142 49.0746 1.60535 49.2834 1.29048C49.4922 0.972301 49.7689 0.735322 50.1136 0.579545C50.4583 0.420454 50.8329 0.340908 51.2372 0.340908C51.5355 0.340908 51.7907 0.365767 52.0028 0.415483C52.215 0.461884 52.3724 0.504971 52.4751 0.544744L52.1271 1.74787C52.0575 1.72798 51.968 1.70478 51.8587 1.67827C51.7493 1.64844 51.6167 1.63352 51.4609 1.63352C51.0997 1.63352 50.8411 1.72301 50.6854 1.90199C50.5329 2.08097 50.4567 2.33949 50.4567 2.67756V11H48.9702ZM57.2702 3.36364V4.55682H52.9549V3.36364H57.2702ZM54.1381 11V2.47869C54.1381 2.00142 54.2425 1.60535 54.4513 1.29048C54.6602 0.972301 54.9369 0.735322 55.2816 0.579545C55.6263 0.420454 56.0008 0.340908 56.4052 0.340908C56.7035 0.340908 56.9587 0.365767 57.1708 0.415483C57.3829 0.461884 57.5404 0.504971 57.6431 0.544744L57.2951 1.74787C57.2255 1.72798 57.136 1.70478 57.0266 1.67827C56.9173 1.64844 56.7847 1.63352 56.6289 1.63352C56.2676 1.63352 56.0091 1.72301 55.8533 1.90199C55.7009 2.08097 55.6246 2.33949 55.6246 2.67756V11H54.1381Z" fill="black"/>
</svg>
