<svg width="47" height="12" viewBox="0 0 47 12" fill="none" xmlns="http://www.w3.org/2000/svg">
<path d="M4.63352 3.36364V4.55682H0.318182V3.36364H4.63352ZM1.50142 11V2.47869C1.50142 2.00142 1.60582 1.60535 1.81463 1.29048C2.02344 0.972301 2.30019 0.735322 2.64489 0.579545C2.98958 0.420454 3.36411 0.340908 3.76847 0.340908C4.06676 0.340908 4.32197 0.365767 4.53409 0.415483C4.74621 0.461884 4.90365 0.504971 5.00639 0.544744L4.65838 1.74787C4.58878 1.72798 4.49929 1.70478 4.38991 1.67827C4.28054 1.64844 4.14796 1.63352 3.99219 1.63352C3.63092 1.63352 3.3724 1.72301 3.21662 1.90199C3.06416 2.08097 2.98793 2.33949 2.98793 2.67756V11H1.50142ZM8.15714 11.169C7.67324 11.169 7.23574 11.0795 6.84464 10.9006C6.45354 10.7183 6.14364 10.4548 5.91495 10.1101C5.68957 9.76539 5.57688 9.3428 5.57688 8.84233C5.57688 8.41146 5.65974 8.05682 5.82546 7.77841C5.99118 7.5 6.2149 7.27959 6.49663 7.11719C6.77835 6.95478 7.09322 6.83215 7.44123 6.74929C7.78924 6.66643 8.14388 6.60346 8.50515 6.56037C8.96254 6.50734 9.33375 6.46425 9.61879 6.43111C9.90382 6.39465 10.111 6.33665 10.2402 6.2571C10.3695 6.17756 10.4341 6.0483 10.4341 5.86932V5.83452C10.4341 5.40033 10.3115 5.06392 10.0662 4.82528C9.82428 4.58665 9.46301 4.46733 8.98242 4.46733C8.48195 4.46733 8.08754 4.57836 7.79918 4.80043C7.51415 5.01918 7.31694 5.26278 7.20756 5.53125L5.81055 5.21307C5.97627 4.74905 6.21822 4.37453 6.5364 4.08949C6.8579 3.80114 7.22745 3.59233 7.64506 3.46307C8.06268 3.33049 8.50183 3.2642 8.96254 3.2642C9.26746 3.2642 9.59061 3.30066 9.932 3.37358C10.2767 3.44318 10.5982 3.57244 10.8965 3.76136C11.1981 3.95028 11.445 4.22041 11.6373 4.57173C11.8295 4.91974 11.9256 5.37216 11.9256 5.92898V11H10.4739V9.95597H10.4142C10.3181 10.1482 10.1739 10.3371 9.98171 10.5227C9.78948 10.7083 9.54255 10.8625 9.24094 10.9851C8.93933 11.1077 8.57807 11.169 8.15714 11.169ZM8.48029 9.97585C8.89128 9.97585 9.2426 9.89465 9.53427 9.73224C9.82925 9.56984 10.053 9.35772 10.2054 9.09588C10.3612 8.83073 10.4391 8.54735 10.4391 8.24574V7.26136C10.3861 7.31439 10.2833 7.36411 10.1309 7.41051C9.98171 7.4536 9.81102 7.49171 9.61879 7.52486C9.42655 7.55469 9.23929 7.58286 9.057 7.60938C8.8747 7.63258 8.72224 7.65246 8.59961 7.66903C8.31126 7.70549 8.04776 7.76681 7.80913 7.85298C7.5738 7.93916 7.38488 8.06345 7.24237 8.22585C7.10316 8.38494 7.03356 8.59706 7.03356 8.86222C7.03356 9.23011 7.16945 9.50852 7.44123 9.69744C7.71301 9.88305 8.05936 9.97585 8.48029 9.97585ZM17.1222 11.1541C16.383 11.1541 15.7467 10.9867 15.2131 10.652C14.6828 10.3139 14.2751 9.84825 13.9901 9.25497C13.705 8.66169 13.5625 7.98224 13.5625 7.21662C13.5625 6.44105 13.7083 5.75663 14 5.16335C14.2917 4.56676 14.7027 4.10109 15.233 3.76633C15.7633 3.43158 16.388 3.2642 17.1072 3.2642C17.6873 3.2642 18.2043 3.37192 18.6584 3.58736C19.1125 3.79948 19.4787 4.09777 19.7571 4.48224C20.0388 4.86671 20.2062 5.31581 20.2592 5.82955H18.8125C18.733 5.47159 18.5507 5.16335 18.2656 4.90483C17.9839 4.64631 17.6061 4.51705 17.1321 4.51705C16.7178 4.51705 16.3549 4.62642 16.0433 4.84517C15.7351 5.06061 15.4948 5.36884 15.3224 5.76989C15.1501 6.16761 15.0639 6.63826 15.0639 7.18182C15.0639 7.73864 15.1484 8.21922 15.3175 8.62358C15.4865 9.02794 15.7251 9.34115 16.0334 9.56321C16.3449 9.78527 16.7112 9.89631 17.1321 9.89631C17.4138 9.89631 17.669 9.84493 17.8977 9.74219C18.1297 9.63613 18.3236 9.48532 18.4794 9.28977C18.6385 9.09422 18.7495 8.8589 18.8125 8.58381H20.2592C20.2062 9.07765 20.0455 9.51847 19.777 9.90625C19.5085 10.294 19.1489 10.599 18.6982 10.821C18.2507 11.0431 17.7254 11.1541 17.1222 11.1541ZM25.1401 11.1541C24.3877 11.1541 23.7398 10.9934 23.1962 10.6719C22.656 10.3471 22.2383 9.89134 21.9434 9.30469C21.6517 8.71473 21.5059 8.02367 21.5059 7.23153C21.5059 6.44934 21.6517 5.75994 21.9434 5.16335C22.2383 4.56676 22.6493 4.10109 23.1763 3.76633C23.7066 3.43158 24.3264 3.2642 25.0357 3.2642C25.4666 3.2642 25.8842 3.33546 26.2885 3.47798C26.6929 3.6205 27.0558 3.84422 27.3773 4.14915C27.6988 4.45407 27.9524 4.85014 28.138 5.33736C28.3236 5.82126 28.4164 6.40956 28.4164 7.10227V7.62926H22.3461V6.51562H26.9597C26.9597 6.12453 26.8801 5.77817 26.7211 5.47656C26.562 5.17164 26.3382 4.93134 26.0499 4.75568C25.7649 4.58002 25.4301 4.49219 25.0456 4.49219C24.628 4.49219 24.2634 4.59493 23.9519 4.80043C23.6436 5.0026 23.405 5.26776 23.236 5.59588C23.0703 5.92069 22.9874 6.27367 22.9874 6.65483V7.52486C22.9874 8.03527 23.0769 8.46946 23.2559 8.82741C23.4382 9.18537 23.6917 9.45881 24.0165 9.64773C24.3413 9.83333 24.7208 9.92614 25.155 9.92614C25.4367 9.92614 25.6936 9.88636 25.9256 9.80682C26.1576 9.72396 26.3581 9.60133 26.5272 9.43892C26.6962 9.27652 26.8255 9.07599 26.915 8.83736L28.3219 9.09091C28.2092 9.50521 28.007 9.86813 27.7154 10.1797C27.427 10.4879 27.0641 10.7282 26.6266 10.9006C26.1924 11.0696 25.6969 11.1541 25.1401 11.1541ZM34.565 6.05327V7.34091H30.0508V6.05327H34.565ZM36.5462 11V3.36364H38.0327V11H36.5462ZM37.2969 2.18537C37.0384 2.18537 36.8163 2.09919 36.6307 1.92685C36.4484 1.75118 36.3572 1.54238 36.3572 1.30043C36.3572 1.05516 36.4484 0.846354 36.6307 0.674005C36.8163 0.498342 37.0384 0.410511 37.2969 0.410511C37.5554 0.410511 37.7758 0.498342 37.9581 0.674005C38.1437 0.846354 38.2365 1.05516 38.2365 1.30043C38.2365 1.54238 38.1437 1.75118 37.9581 1.92685C37.7758 2.09919 37.5554 2.18537 37.2969 2.18537ZM42.8912 11.1491C42.2747 11.1491 41.7245 10.9917 41.2406 10.6768C40.76 10.3587 40.3822 9.90625 40.1071 9.3196C39.8353 8.72964 39.6994 8.02202 39.6994 7.19673C39.6994 6.37145 39.8369 5.66548 40.112 5.07884C40.3904 4.49219 40.7716 4.04309 41.2555 3.73153C41.7394 3.41998 42.2879 3.2642 42.9011 3.2642C43.3751 3.2642 43.7562 3.34375 44.0446 3.50284C44.3362 3.65862 44.5616 3.84091 44.7207 4.04972C44.8831 4.25852 45.0091 4.44247 45.0985 4.60156H45.188V0.818182H46.6745V11H45.2228V9.81179H45.0985C45.0091 9.9742 44.8798 10.1598 44.7108 10.3686C44.545 10.5774 44.3163 10.7597 44.0247 10.9155C43.733 11.0713 43.3552 11.1491 42.8912 11.1491ZM43.2193 9.88139C43.6468 9.88139 44.0081 9.7687 44.3031 9.54332C44.6014 9.31463 44.8268 8.99811 44.9792 8.59375C45.135 8.18939 45.2129 7.71875 45.2129 7.18182C45.2129 6.65151 45.1367 6.1875 44.9842 5.78977C44.8317 5.39205 44.608 5.08215 44.313 4.86009C44.0181 4.63802 43.6535 4.52699 43.2193 4.52699C42.7718 4.52699 42.399 4.64299 42.1007 4.875C41.8024 5.10701 41.577 5.42353 41.4245 5.82457C41.2754 6.22562 41.2008 6.67803 41.2008 7.18182C41.2008 7.69223 41.277 8.15128 41.4295 8.55895C41.582 8.96662 41.8074 9.28977 42.1056 9.52841C42.4073 9.76373 42.7785 9.88139 43.2193 9.88139Z" fill="black"/>
</svg>
