<svg width="46" height="14" viewBox="0 0 46 14" fill="none" xmlns="http://www.w3.org/2000/svg">
<path d="M1.36648 8.4098L1.35653 6.59517H1.61506L4.65767 3.36364H6.4375L2.96733 7.04261H2.73366L1.36648 8.4098ZM-0.000710189 11V0.818182H1.4858V11H-0.000710189ZM4.82173 11L2.08736 7.37074L3.11151 6.33168L6.64631 11H4.82173ZM10.769 11.1541C10.0166 11.1541 9.36867 10.9934 8.82511 10.6719C8.28486 10.3471 7.86725 9.89134 7.57227 9.30469C7.2806 8.71473 7.13477 8.02367 7.13477 7.23153C7.13477 6.44934 7.2806 5.75994 7.57227 5.16335C7.86725 4.56676 8.27823 4.10109 8.80522 3.76633C9.33552 3.43158 9.95531 3.2642 10.6646 3.2642C11.0955 3.2642 11.5131 3.33546 11.9174 3.47798C12.3218 3.6205 12.6847 3.84422 13.0062 4.14915C13.3277 4.45407 13.5813 4.85014 13.7669 5.33736C13.9525 5.82126 14.0453 6.40956 14.0453 7.10227V7.62926H7.97496V6.51562H12.5886C12.5886 6.12453 12.5091 5.77817 12.35 5.47656C12.1909 5.17164 11.9672 4.93134 11.6788 4.75568C11.3938 4.58002 11.059 4.49219 10.6745 4.49219C10.2569 4.49219 9.89234 4.59493 9.58079 4.80043C9.27255 5.0026 9.03391 5.26776 8.86488 5.59588C8.69916 5.92069 8.6163 6.27367 8.6163 6.65483V7.52486C8.6163 8.03527 8.70579 8.46946 8.88477 8.82741C9.06706 9.18537 9.32061 9.45881 9.64542 9.64773C9.97023 9.83333 10.3497 9.92614 10.7839 9.92614C11.0656 9.92614 11.3225 9.88636 11.5545 9.80682C11.7865 9.72396 11.987 9.60133 12.1561 9.43892C12.3251 9.27652 12.4544 9.07599 12.5439 8.83736L13.9508 9.09091C13.8381 9.50521 13.6359 9.86813 13.3443 10.1797C13.0559 10.4879 12.693 10.7282 12.2555 10.9006C11.8213 11.0696 11.3258 11.1541 10.769 11.1541ZM16.4155 13.8636C16.1934 13.8636 15.9912 13.8454 15.8089 13.8089C15.6267 13.7758 15.4908 13.7393 15.4013 13.6996L15.7592 12.4815C16.031 12.5545 16.273 12.5859 16.4851 12.576C16.6972 12.5661 16.8845 12.4865 17.0469 12.3374C17.2126 12.1882 17.3584 11.9446 17.4844 11.6065L17.6683 11.0994L14.8743 3.36364H16.4652L18.3991 9.28977H18.4787L20.4126 3.36364H22.0085L18.8615 12.0192C18.7157 12.4169 18.5301 12.7533 18.3047 13.0284C18.0793 13.3068 17.8108 13.5156 17.4993 13.6548C17.1877 13.794 16.8265 13.8636 16.4155 13.8636ZM27.9048 6.05327V7.34091H23.3906V6.05327H27.9048ZM33.4109 11.169C32.6254 11.1657 31.9542 10.9586 31.3974 10.5476C30.8406 10.1366 30.4147 9.53835 30.1197 8.75284C29.8247 7.96733 29.6772 7.02107 29.6772 5.91406C29.6772 4.81037 29.8247 3.86742 30.1197 3.08523C30.418 2.30303 30.8455 1.70644 31.4023 1.29545C31.9625 0.884469 32.632 0.678977 33.4109 0.678977C34.1897 0.678977 34.8576 0.886126 35.4144 1.30043C35.9712 1.71141 36.3971 2.308 36.6921 3.0902C36.9904 3.86908 37.1396 4.81037 37.1396 5.91406C37.1396 7.02438 36.9921 7.9723 36.6971 8.75781C36.4021 9.54001 35.9762 10.1383 35.4194 10.5526C34.8626 10.9635 34.1931 11.169 33.4109 11.169ZM33.4109 9.84162C34.1003 9.84162 34.6388 9.50521 35.0266 8.83239C35.4177 8.15956 35.6133 7.18679 35.6133 5.91406C35.6133 5.06889 35.5238 4.35464 35.3448 3.77131C35.1692 3.18466 34.9156 2.74053 34.5842 2.43892C34.256 2.134 33.8649 1.98153 33.4109 1.98153C32.7248 1.98153 32.1862 2.3196 31.7951 2.99574C31.404 3.67187 31.2068 4.64465 31.2035 5.91406C31.2035 6.76255 31.2913 7.48011 31.467 8.06676C31.646 8.65009 31.8995 9.09257 32.2276 9.39418C32.5558 9.69247 32.9502 9.84162 33.4109 9.84162ZM38.9032 11V9.88636L42.3485 6.31676C42.7164 5.92898 43.0197 5.58925 43.2583 5.29759C43.5003 5.0026 43.6809 4.72254 43.8002 4.45739C43.9196 4.19223 43.9792 3.91051 43.9792 3.61222C43.9792 3.27415 43.8997 2.98248 43.7406 2.73722C43.5815 2.48864 43.3644 2.29806 43.0893 2.16548C42.8142 2.02959 42.5043 1.96165 42.1596 1.96165C41.795 1.96165 41.4769 2.03622 41.2051 2.18537C40.9333 2.33452 40.7245 2.54498 40.5787 2.81676C40.4328 3.08854 40.3599 3.40672 40.3599 3.77131H38.8933C38.8933 3.15151 39.0358 2.60961 39.3208 2.1456C39.6059 1.68158 39.997 1.32197 40.4941 1.06676C40.9913 0.808238 41.5564 0.678977 42.1895 0.678977C42.8291 0.678977 43.3926 0.806581 43.8798 1.06179C44.3703 1.31368 44.7531 1.65838 45.0282 2.09588C45.3033 2.53007 45.4409 3.0206 45.4409 3.56747C45.4409 3.94531 45.3696 4.31487 45.2271 4.67614C45.0879 5.0374 44.8443 5.4401 44.4963 5.88423C44.1483 6.32505 43.6644 6.86032 43.0446 7.49006L41.0211 9.60795V9.68253H45.6049V11H38.9032Z" fill="black"/>
</svg>
