<svg width="75" height="12" viewBox="0 0 75 12" fill="none" xmlns="http://www.w3.org/2000/svg">
<path d="M4.63352 3.36364V4.55682H0.318182V3.36364H4.63352ZM1.50142 11V2.47869C1.50142 2.00142 1.60582 1.60535 1.81463 1.29048C2.02344 0.972301 2.30019 0.735322 2.64489 0.579545C2.98958 0.420454 3.36411 0.340908 3.76847 0.340908C4.06676 0.340908 4.32197 0.365767 4.53409 0.415483C4.74621 0.461884 4.90365 0.504971 5.00639 0.544744L4.65838 1.74787C4.58878 1.72798 4.49929 1.70478 4.38991 1.67827C4.28054 1.64844 4.14796 1.63352 3.99219 1.63352C3.63092 1.63352 3.3724 1.72301 3.21662 1.90199C3.06416 2.08097 2.98793 2.33949 2.98793 2.67756V11H1.50142ZM6.16726 11V3.36364H7.65376V11H6.16726ZM6.91797 2.18537C6.65945 2.18537 6.43738 2.09919 6.25178 1.92685C6.06948 1.75118 5.97834 1.54238 5.97834 1.30043C5.97834 1.05516 6.06948 0.846354 6.25178 0.674005C6.43738 0.498342 6.65945 0.410511 6.91797 0.410511C7.17649 0.410511 7.3969 0.498342 7.57919 0.674005C7.7648 0.846354 7.8576 1.05516 7.8576 1.30043C7.8576 1.54238 7.7648 1.75118 7.57919 1.92685C7.3969 2.09919 7.17649 2.18537 6.91797 2.18537ZM11.1401 0.818182V11H9.65359V0.818182H11.1401ZM16.4311 11.1541C15.6787 11.1541 15.0308 10.9934 14.4872 10.6719C13.947 10.3471 13.5294 9.89134 13.2344 9.30469C12.9427 8.71473 12.7969 8.02367 12.7969 7.23153C12.7969 6.44934 12.9427 5.75994 13.2344 5.16335C13.5294 4.56676 13.9403 4.10109 14.4673 3.76633C14.9976 3.43158 15.6174 3.2642 16.3267 3.2642C16.7576 3.2642 17.1752 3.33546 17.5795 3.47798C17.9839 3.6205 18.3468 3.84422 18.6683 4.14915C18.9898 4.45407 19.2434 4.85014 19.429 5.33736C19.6146 5.82126 19.7074 6.40956 19.7074 7.10227V7.62926H13.6371V6.51562H18.2507C18.2507 6.12453 18.1712 5.77817 18.0121 5.47656C17.853 5.17164 17.6293 4.93134 17.3409 4.75568C17.0559 4.58002 16.7211 4.49219 16.3366 4.49219C15.919 4.49219 15.5545 4.59493 15.2429 4.80043C14.9347 5.0026 14.696 5.26776 14.527 5.59588C14.3613 5.92069 14.2784 6.27367 14.2784 6.65483V7.52486C14.2784 8.03527 14.3679 8.46946 14.5469 8.82741C14.7292 9.18537 14.9827 9.45881 15.3075 9.64773C15.6323 9.83333 16.0118 9.92614 16.446 9.92614C16.7277 9.92614 16.9846 9.88636 17.2166 9.80682C17.4486 9.72396 17.6491 9.60133 17.8182 9.43892C17.9872 9.27652 18.1165 9.07599 18.206 8.83736L19.6129 9.09091C19.5002 9.50521 19.2981 9.86813 19.0064 10.1797C18.718 10.4879 18.3551 10.7282 17.9176 10.9006C17.4834 11.0696 16.9879 11.1541 16.4311 11.1541ZM25.856 6.05327V7.34091H21.3418V6.05327H25.856ZM29.3237 0.818182V11H27.8372V0.818182H29.3237ZM34.5401 11.1541C33.8242 11.1541 33.1995 10.9901 32.6658 10.6619C32.1322 10.3338 31.7179 9.87476 31.4229 9.2848C31.128 8.69484 30.9805 8.00544 30.9805 7.21662C30.9805 6.42448 31.128 5.73177 31.4229 5.13849C31.7179 4.54522 32.1322 4.08452 32.6658 3.75639C33.1995 3.42827 33.8242 3.2642 34.5401 3.2642C35.256 3.2642 35.8808 3.42827 36.4144 3.75639C36.948 4.08452 37.3623 4.54522 37.6573 5.13849C37.9523 5.73177 38.0998 6.42448 38.0998 7.21662C38.0998 8.00544 37.9523 8.69484 37.6573 9.2848C37.3623 9.87476 36.948 10.3338 36.4144 10.6619C35.8808 10.9901 35.256 11.1541 34.5401 11.1541ZM34.5451 9.90625C35.0091 9.90625 35.3936 9.78362 35.6985 9.53835C36.0034 9.29309 36.2288 8.96662 36.3746 8.55895C36.5238 8.15128 36.5984 7.70218 36.5984 7.21165C36.5984 6.72443 36.5238 6.27699 36.3746 5.86932C36.2288 5.45833 36.0034 5.12855 35.6985 4.87997C35.3936 4.63139 35.0091 4.5071 34.5451 4.5071C34.0778 4.5071 33.69 4.63139 33.3817 4.87997C33.0768 5.12855 32.8498 5.45833 32.7006 5.86932C32.5548 6.27699 32.4819 6.72443 32.4819 7.21165C32.4819 7.70218 32.5548 8.15128 32.7006 8.55895C32.8498 8.96662 33.0768 9.29309 33.3817 9.53835C33.69 9.78362 34.0778 9.90625 34.5451 9.90625ZM42.9757 11.1541C42.2366 11.1541 41.6002 10.9867 41.0666 10.652C40.5363 10.3139 40.1286 9.84825 39.8436 9.25497C39.5585 8.66169 39.416 7.98224 39.416 7.21662C39.416 6.44105 39.5618 5.75663 39.8535 5.16335C40.1452 4.56676 40.5562 4.10109 41.0865 3.76633C41.6168 3.43158 42.2415 3.2642 42.9608 3.2642C43.5408 3.2642 44.0578 3.37192 44.5119 3.58736C44.966 3.79948 45.3322 4.09777 45.6106 4.48224C45.8923 4.86671 46.0597 5.31581 46.1127 5.82955H44.666C44.5865 5.47159 44.4042 5.16335 44.1191 4.90483C43.8374 4.64631 43.4596 4.51705 42.9856 4.51705C42.5713 4.51705 42.2084 4.62642 41.8968 4.84517C41.5886 5.06061 41.3483 5.36884 41.176 5.76989C41.0036 6.16761 40.9174 6.63826 40.9174 7.18182C40.9174 7.73864 41.002 8.21922 41.171 8.62358C41.34 9.02794 41.5787 9.34115 41.8869 9.56321C42.1984 9.78527 42.5647 9.89631 42.9856 9.89631C43.2673 9.89631 43.5225 9.84493 43.7512 9.74219C43.9833 9.63613 44.1771 9.48532 44.3329 9.28977C44.492 9.09422 44.603 8.8589 44.666 8.58381H46.1127C46.0597 9.07765 45.899 9.51847 45.6305 9.90625C45.362 10.294 45.0024 10.599 44.5517 10.821C44.1042 11.0431 43.5789 11.1541 42.9757 11.1541ZM49.0696 8.4098L49.0597 6.59517H49.3182L52.3608 3.36364H54.1406L50.6705 7.04261H50.4368L49.0696 8.4098ZM47.7024 11V0.818182H49.1889V11H47.7024ZM52.5249 11L49.7905 7.37074L50.8146 6.33168L54.3494 11H52.5249ZM59.4751 6.05327V7.34091H54.9609V6.05327H59.4751ZM64.9812 11.169C64.1957 11.1657 63.5245 10.9586 62.9677 10.5476C62.4109 10.1366 61.985 9.53835 61.69 8.75284C61.395 7.96733 61.2475 7.02107 61.2475 5.91406C61.2475 4.81037 61.395 3.86742 61.69 3.08523C61.9883 2.30303 62.4158 1.70644 62.9727 1.29545C63.5328 0.884469 64.2023 0.678977 64.9812 0.678977C65.7601 0.678977 66.4279 0.886126 66.9847 1.30043C67.5415 1.71141 67.9674 2.308 68.2624 3.0902C68.5607 3.86908 68.7099 4.81037 68.7099 5.91406C68.7099 7.02438 68.5624 7.9723 68.2674 8.75781C67.9724 9.54001 67.5465 10.1383 66.9897 10.5526C66.4329 10.9635 65.7634 11.169 64.9812 11.169ZM64.9812 9.84162C65.6706 9.84162 66.2092 9.50521 66.5969 8.83239C66.988 8.15956 67.1836 7.18679 67.1836 5.91406C67.1836 5.06889 67.0941 4.35464 66.9151 3.77131C66.7395 3.18466 66.4859 2.74053 66.1545 2.43892C65.8263 2.134 65.4353 1.98153 64.9812 1.98153C64.2951 1.98153 63.7565 2.3196 63.3654 2.99574C62.9743 3.67187 62.7771 4.64465 62.7738 5.91406C62.7738 6.76255 62.8616 7.48011 63.0373 8.06676C63.2163 8.65009 63.4698 9.09257 63.7979 9.39418C64.1261 9.69247 64.5205 9.84162 64.9812 9.84162ZM74.3365 0.818182V11H72.7953V2.35938H72.7356L70.2995 3.95028V2.47869L72.84 0.818182H74.3365Z" fill="black"/>
</svg>
