<svg width="88" height="12" viewBox="0 0 88 12" fill="none" xmlns="http://www.w3.org/2000/svg">
<path d="M4.63352 3.36364V4.55682H0.318182V3.36364H4.63352ZM1.50142 11V2.47869C1.50142 2.00142 1.60582 1.60535 1.81463 1.29048C2.02344 0.972301 2.30019 0.735322 2.64489 0.579545C2.98958 0.420454 3.36411 0.340908 3.76847 0.340908C4.06676 0.340908 4.32197 0.365767 4.53409 0.415483C4.74621 0.461884 4.90365 0.504971 5.00639 0.544744L4.65838 1.74787C4.58878 1.72798 4.49929 1.70478 4.38991 1.67827C4.28054 1.64844 4.14796 1.63352 3.99219 1.63352C3.63092 1.63352 3.3724 1.72301 3.21662 1.90199C3.06416 2.08097 2.98793 2.33949 2.98793 2.67756V11H1.50142ZM6.16726 11V3.36364H7.65376V11H6.16726ZM6.91797 2.18537C6.65945 2.18537 6.43738 2.09919 6.25178 1.92685C6.06948 1.75118 5.97834 1.54238 5.97834 1.30043C5.97834 1.05516 6.06948 0.846354 6.25178 0.674005C6.43738 0.498342 6.65945 0.410511 6.91797 0.410511C7.17649 0.410511 7.3969 0.498342 7.57919 0.674005C7.7648 0.846354 7.8576 1.05516 7.8576 1.30043C7.8576 1.54238 7.7648 1.75118 7.57919 1.92685C7.3969 2.09919 7.17649 2.18537 6.91797 2.18537ZM11.1401 0.818182V11H9.65359V0.818182H11.1401ZM16.4311 11.1541C15.6787 11.1541 15.0308 10.9934 14.4872 10.6719C13.947 10.3471 13.5294 9.89134 13.2344 9.30469C12.9427 8.71473 12.7969 8.02367 12.7969 7.23153C12.7969 6.44934 12.9427 5.75994 13.2344 5.16335C13.5294 4.56676 13.9403 4.10109 14.4673 3.76633C14.9976 3.43158 15.6174 3.2642 16.3267 3.2642C16.7576 3.2642 17.1752 3.33546 17.5795 3.47798C17.9839 3.6205 18.3468 3.84422 18.6683 4.14915C18.9898 4.45407 19.2434 4.85014 19.429 5.33736C19.6146 5.82126 19.7074 6.40956 19.7074 7.10227V7.62926H13.6371V6.51562H18.2507C18.2507 6.12453 18.1712 5.77817 18.0121 5.47656C17.853 5.17164 17.6293 4.93134 17.3409 4.75568C17.0559 4.58002 16.7211 4.49219 16.3366 4.49219C15.919 4.49219 15.5545 4.59493 15.2429 4.80043C14.9347 5.0026 14.696 5.26776 14.527 5.59588C14.3613 5.92069 14.2784 6.27367 14.2784 6.65483V7.52486C14.2784 8.03527 14.3679 8.46946 14.5469 8.82741C14.7292 9.18537 14.9827 9.45881 15.3075 9.64773C15.6323 9.83333 16.0118 9.92614 16.446 9.92614C16.7277 9.92614 16.9846 9.88636 17.2166 9.80682C17.4486 9.72396 17.6491 9.60133 17.8182 9.43892C17.9872 9.27652 18.1165 9.07599 18.206 8.83736L19.6129 9.09091C19.5002 9.50521 19.2981 9.86813 19.0064 10.1797C18.718 10.4879 18.3551 10.7282 17.9176 10.9006C17.4834 11.0696 16.9879 11.1541 16.4311 11.1541ZM25.856 6.05327V7.34091H21.3418V6.05327H25.856ZM33.5595 5.22798L32.2122 5.46662C32.1558 5.29427 32.0663 5.13021 31.9437 4.97443C31.8244 4.81865 31.662 4.69105 31.4565 4.59162C31.251 4.49219 30.9941 4.44247 30.6859 4.44247C30.265 4.44247 29.9136 4.53693 29.6319 4.72585C29.3502 4.91146 29.2093 5.15175 29.2093 5.44673C29.2093 5.70194 29.3038 5.90743 29.4927 6.06321C29.6816 6.21899 29.9866 6.34659 30.4075 6.44602L31.6206 6.72443C32.3232 6.88684 32.8469 7.13707 33.1916 7.47514C33.5363 7.81321 33.7086 8.25237 33.7086 8.79261C33.7086 9.25 33.5761 9.65767 33.3109 10.0156C33.0491 10.3703 32.6828 10.6487 32.2122 10.8509C31.7449 11.053 31.2029 11.1541 30.5865 11.1541C29.7314 11.1541 29.0337 10.9718 28.4934 10.6072C27.9532 10.2393 27.6217 9.71733 27.4991 9.04119L28.9359 8.82244C29.0254 9.19697 29.2093 9.48035 29.4877 9.67259C29.7662 9.86151 30.1291 9.95597 30.5765 9.95597C31.0637 9.95597 31.4532 9.85488 31.7449 9.6527C32.0365 9.44721 32.1824 9.19697 32.1824 8.90199C32.1824 8.66335 32.0929 8.46283 31.9139 8.30043C31.7382 8.13802 31.4681 8.01539 31.1035 7.93253L29.8109 7.64915C29.0983 7.48674 28.5713 7.22822 28.2299 6.87358C27.8919 6.51894 27.7228 6.06984 27.7228 5.52628C27.7228 5.07552 27.8488 4.68111 28.1007 4.34304C28.3526 4.00497 28.7006 3.74148 29.1447 3.55256C29.5888 3.36032 30.0976 3.2642 30.671 3.2642C31.4963 3.2642 32.1459 3.44318 32.6199 3.80114C33.0938 4.15578 33.407 4.63139 33.5595 5.22798ZM36.8295 6.46591V11H35.343V0.818182H36.8097V4.60653H36.9041C37.0831 4.19555 37.3565 3.86908 37.7244 3.62713C38.0923 3.38518 38.5729 3.2642 39.1662 3.2642C39.6899 3.2642 40.1473 3.37192 40.5384 3.58736C40.9328 3.80279 41.2377 4.12429 41.4531 4.55185C41.6719 4.97609 41.7812 5.50639 41.7812 6.14276V11H40.2947V6.32173C40.2947 5.7616 40.1506 5.32741 39.8622 5.01918C39.5739 4.70762 39.1728 4.55185 38.6591 4.55185C38.3078 4.55185 37.9929 4.62642 37.7145 4.77557C37.4394 4.92472 37.2223 5.14347 37.0632 5.43182C36.9074 5.71686 36.8295 6.06155 36.8295 6.46591ZM43.7649 11V3.36364H45.2514V11H43.7649ZM44.5156 2.18537C44.2571 2.18537 44.035 2.09919 43.8494 1.92685C43.6671 1.75118 43.576 1.54238 43.576 1.30043C43.576 1.05516 43.6671 0.846354 43.8494 0.674005C44.035 0.498342 44.2571 0.410511 44.5156 0.410511C44.7741 0.410511 44.9946 0.498342 45.1768 0.674005C45.3625 0.846354 45.4553 1.05516 45.4553 1.30043C45.4553 1.54238 45.3625 1.75118 45.1768 1.92685C44.9946 2.09919 44.7741 2.18537 44.5156 2.18537ZM50.5424 11.1541C49.7901 11.1541 49.1421 10.9934 48.5985 10.6719C48.0583 10.3471 47.6407 9.89134 47.3457 9.30469C47.054 8.71473 46.9082 8.02367 46.9082 7.23153C46.9082 6.44934 47.054 5.75994 47.3457 5.16335C47.6407 4.56676 48.0517 4.10109 48.5787 3.76633C49.109 3.43158 49.7288 3.2642 50.438 3.2642C50.8689 3.2642 51.2865 3.33546 51.6909 3.47798C52.0952 3.6205 52.4582 3.84422 52.7797 4.14915C53.1011 4.45407 53.3547 4.85014 53.5403 5.33736C53.7259 5.82126 53.8187 6.40956 53.8187 7.10227V7.62926H47.7484V6.51562H52.362C52.362 6.12453 52.2825 5.77817 52.1234 5.47656C51.9643 5.17164 51.7406 4.93134 51.4522 4.75568C51.1672 4.58002 50.8324 4.49219 50.448 4.49219C50.0304 4.49219 49.6658 4.59493 49.3542 4.80043C49.046 5.0026 48.8074 5.26776 48.6383 5.59588C48.4726 5.92069 48.3897 6.27367 48.3897 6.65483V7.52486C48.3897 8.03527 48.4792 8.46946 48.6582 8.82741C48.8405 9.18537 49.094 9.45881 49.4189 9.64773C49.7437 9.83333 50.1232 9.92614 50.5574 9.92614C50.8391 9.92614 51.0959 9.88636 51.3279 9.80682C51.56 9.72396 51.7605 9.60133 51.9295 9.43892C52.0985 9.27652 52.2278 9.07599 52.3173 8.83736L53.7243 9.09091C53.6116 9.50521 53.4094 9.86813 53.1177 10.1797C52.8294 10.4879 52.4664 10.7282 52.0289 10.9006C51.5948 11.0696 51.0993 11.1541 50.5424 11.1541ZM56.9545 0.818182V11H55.468V0.818182H56.9545ZM61.813 11.1491C61.1966 11.1491 60.6464 10.9917 60.1625 10.6768C59.6819 10.3587 59.304 9.90625 59.0289 9.3196C58.7572 8.72964 58.6213 8.02202 58.6213 7.19673C58.6213 6.37145 58.7588 5.66548 59.0339 5.07884C59.3123 4.49219 59.6935 4.04309 60.1774 3.73153C60.6613 3.41998 61.2098 3.2642 61.823 3.2642C62.2969 3.2642 62.6781 3.34375 62.9664 3.50284C63.2581 3.65862 63.4835 3.84091 63.6426 4.04972C63.805 4.25852 63.9309 4.44247 64.0204 4.60156H64.1099V0.818182H65.5964V11H64.1447V9.81179H64.0204C63.9309 9.9742 63.8017 10.1598 63.6326 10.3686C63.4669 10.5774 63.2382 10.7597 62.9466 10.9155C62.6549 11.0713 62.277 11.1491 61.813 11.1491ZM62.1412 9.88139C62.5687 9.88139 62.93 9.7687 63.225 9.54332C63.5233 9.31463 63.7486 8.99811 63.9011 8.59375C64.0569 8.18939 64.1348 7.71875 64.1348 7.18182C64.1348 6.65151 64.0585 6.1875 63.9061 5.78977C63.7536 5.39205 63.5299 5.08215 63.2349 4.86009C62.9399 4.63802 62.5753 4.52699 62.1412 4.52699C61.6937 4.52699 61.3208 4.64299 61.0225 4.875C60.7243 5.10701 60.4989 5.42353 60.3464 5.82457C60.1973 6.22562 60.1227 6.67803 60.1227 7.18182C60.1227 7.69223 60.1989 8.15128 60.3514 8.55895C60.5038 8.96662 60.7292 9.28977 61.0275 9.52841C61.3291 9.76373 61.7003 9.88139 62.1412 9.88139ZM72.2173 6.05327V7.34091H67.7031V6.05327H72.2173ZM77.7234 11.169C76.9379 11.1657 76.2667 10.9586 75.7099 10.5476C75.1531 10.1366 74.7272 9.53835 74.4322 8.75284C74.1372 7.96733 73.9897 7.02107 73.9897 5.91406C73.9897 4.81037 74.1372 3.86742 74.4322 3.08523C74.7305 2.30303 75.158 1.70644 75.7148 1.29545C76.275 0.884469 76.9445 0.678977 77.7234 0.678977C78.5022 0.678977 79.1701 0.886126 79.7269 1.30043C80.2837 1.71141 80.7096 2.308 81.0046 3.0902C81.3029 3.86908 81.4521 4.81037 81.4521 5.91406C81.4521 7.02438 81.3046 7.9723 81.0096 8.75781C80.7146 9.54001 80.2887 10.1383 79.7319 10.5526C79.1751 10.9635 78.5056 11.169 77.7234 11.169ZM77.7234 9.84162C78.4128 9.84162 78.9513 9.50521 79.3391 8.83239C79.7302 8.15956 79.9258 7.18679 79.9258 5.91406C79.9258 5.06889 79.8363 4.35464 79.6573 3.77131C79.4817 3.18466 79.2281 2.74053 78.8967 2.43892C78.5685 2.134 78.1774 1.98153 77.7234 1.98153C77.0373 1.98153 76.4987 2.3196 76.1076 2.99574C75.7165 3.67187 75.5193 4.64465 75.516 5.91406C75.516 6.76255 75.6038 7.48011 75.7795 8.06676C75.9585 8.65009 76.212 9.09257 76.5401 9.39418C76.8683 9.69247 77.2627 9.84162 77.7234 9.84162ZM87.0787 0.818182V11H85.5375V2.35938H85.4778L83.0417 3.95028V2.47869L85.5822 0.818182H87.0787Z" fill="black"/>
</svg>
