<svg width="127" height="14" viewBox="0 0 127 14" fill="none" xmlns="http://www.w3.org/2000/svg">
<path d="M1.4858 0.818182V11H-0.000710189V0.818182H1.4858ZM6.70224 11.1541C5.98633 11.1541 5.36156 10.9901 4.82795 10.6619C4.29433 10.3338 3.88003 9.87476 3.58505 9.2848C3.29007 8.69484 3.14258 8.00544 3.14258 7.21662C3.14258 6.42448 3.29007 5.73177 3.58505 5.13849C3.88003 4.54522 4.29433 4.08452 4.82795 3.75639C5.36156 3.42827 5.98633 3.2642 6.70224 3.2642C7.41815 3.2642 8.04291 3.42827 8.57653 3.75639C9.11014 4.08452 9.52444 4.54522 9.81942 5.13849C10.1144 5.73177 10.2619 6.42448 10.2619 7.21662C10.2619 8.00544 10.1144 8.69484 9.81942 9.2848C9.52444 9.87476 9.11014 10.3338 8.57653 10.6619C8.04291 10.9901 7.41815 11.1541 6.70224 11.1541ZM6.70721 9.90625C7.17122 9.90625 7.55569 9.78362 7.86062 9.53835C8.16554 9.29309 8.39092 8.96662 8.53675 8.55895C8.6859 8.15128 8.76048 7.70218 8.76048 7.21165C8.76048 6.72443 8.6859 6.27699 8.53675 5.86932C8.39092 5.45833 8.16554 5.12855 7.86062 4.87997C7.55569 4.63139 7.17122 4.5071 6.70721 4.5071C6.23988 4.5071 5.8521 4.63139 5.54386 4.87997C5.23893 5.12855 5.0119 5.45833 4.86275 5.86932C4.71692 6.27699 4.644 6.72443 4.644 7.21165C4.644 7.70218 4.71692 8.15128 4.86275 8.55895C5.0119 8.96662 5.23893 9.29309 5.54386 9.53835C5.8521 9.78362 6.23988 9.90625 6.70721 9.90625ZM15.1378 11.1541C14.3987 11.1541 13.7623 10.9867 13.2287 10.652C12.6984 10.3139 12.2907 9.84825 12.0057 9.25497C11.7206 8.66169 11.5781 7.98224 11.5781 7.21662C11.5781 6.44105 11.724 5.75663 12.0156 5.16335C12.3073 4.56676 12.7183 4.10109 13.2486 3.76633C13.7789 3.43158 14.4036 3.2642 15.1229 3.2642C15.7029 3.2642 16.2199 3.37192 16.674 3.58736C17.1281 3.79948 17.4943 4.09777 17.7727 4.48224C18.0545 4.86671 18.2218 5.31581 18.2749 5.82955H16.8281C16.7486 5.47159 16.5663 5.16335 16.2812 4.90483C15.9995 4.64631 15.6217 4.51705 15.1477 4.51705C14.7334 4.51705 14.3705 4.62642 14.0589 4.84517C13.7507 5.06061 13.5104 5.36884 13.3381 5.76989C13.1657 6.16761 13.0795 6.63826 13.0795 7.18182C13.0795 7.73864 13.1641 8.21922 13.3331 8.62358C13.5021 9.02794 13.7408 9.34115 14.049 9.56321C14.3606 9.78527 14.7268 9.89631 15.1477 9.89631C15.4295 9.89631 15.6847 9.84493 15.9134 9.74219C16.1454 9.63613 16.3393 9.48532 16.495 9.28977C16.6541 9.09422 16.7652 8.8589 16.8281 8.58381H18.2749C18.2218 9.07765 18.0611 9.51847 17.7926 9.90625C17.5241 10.294 17.1645 10.599 16.7138 10.821C16.2663 11.0431 15.741 11.1541 15.1378 11.1541ZM21.2317 8.4098L21.2218 6.59517H21.4803L24.5229 3.36364H26.3027L22.8326 7.04261H22.5989L21.2317 8.4098ZM19.8645 11V0.818182H21.351V11H19.8645ZM24.687 11L21.9526 7.37074L22.9767 6.33168L26.5115 11H24.687ZM31.6373 6.05327V7.34091H27.123V6.05327H31.6373ZM34.9856 8.4098L34.9757 6.59517H35.2342L38.2768 3.36364H40.0566L36.5865 7.04261H36.3528L34.9856 8.4098ZM33.6184 11V0.818182H35.1049V11H33.6184ZM38.4409 11L35.7065 7.37074L36.7306 6.33168L40.2654 11H38.4409ZM44.3881 11.1541C43.6358 11.1541 42.9878 10.9934 42.4442 10.6719C41.904 10.3471 41.4864 9.89134 41.1914 9.30469C40.8997 8.71473 40.7539 8.02367 40.7539 7.23153C40.7539 6.44934 40.8997 5.75994 41.1914 5.16335C41.4864 4.56676 41.8974 4.10109 42.4244 3.76633C42.9547 3.43158 43.5745 3.2642 44.2837 3.2642C44.7146 3.2642 45.1322 3.33546 45.5366 3.47798C45.9409 3.6205 46.3039 3.84422 46.6254 4.14915C46.9469 4.45407 47.2004 4.85014 47.386 5.33736C47.5716 5.82126 47.6644 6.40956 47.6644 7.10227V7.62926H41.5941V6.51562H46.2077C46.2077 6.12453 46.1282 5.77817 45.9691 5.47656C45.81 5.17164 45.5863 4.93134 45.2979 4.75568C45.0129 4.58002 44.6781 4.49219 44.2937 4.49219C43.8761 4.49219 43.5115 4.59493 43.1999 4.80043C42.8917 5.0026 42.6531 5.26776 42.484 5.59588C42.3183 5.92069 42.2354 6.27367 42.2354 6.65483V7.52486C42.2354 8.03527 42.3249 8.46946 42.5039 8.82741C42.6862 9.18537 42.9397 9.45881 43.2646 9.64773C43.5894 9.83333 43.9689 9.92614 44.4031 9.92614C44.6848 9.92614 44.9416 9.88636 45.1737 9.80682C45.4057 9.72396 45.6062 9.60133 45.7752 9.43892C45.9442 9.27652 46.0735 9.07599 46.163 8.83736L47.57 9.09091C47.4573 9.50521 47.2551 9.86813 46.9634 10.1797C46.6751 10.4879 46.3121 10.7282 45.8746 10.9006C45.4405 11.0696 44.945 11.1541 44.3881 11.1541ZM50.0346 13.8636C49.8126 13.8636 49.6104 13.8454 49.4281 13.8089C49.2458 13.7758 49.1099 13.7393 49.0204 13.6996L49.3784 12.4815C49.6502 12.5545 49.8921 12.5859 50.1042 12.576C50.3163 12.5661 50.5036 12.4865 50.666 12.3374C50.8317 12.1882 50.9776 11.9446 51.1035 11.6065L51.2875 11.0994L48.4934 3.36364H50.0843L52.0183 9.28977H52.0978L54.0318 3.36364H55.6277L52.4806 12.0192C52.3348 12.4169 52.1492 12.7533 51.9238 13.0284C51.6984 13.3068 51.43 13.5156 51.1184 13.6548C50.8069 13.794 50.4456 13.8636 50.0346 13.8636ZM58.5112 6.46591V11H57.0247V0.818182H58.4913V4.60653H58.5858C58.7647 4.19555 59.0382 3.86908 59.4061 3.62713C59.774 3.38518 60.2546 3.2642 60.8478 3.2642C61.3715 3.2642 61.8289 3.37192 62.22 3.58736C62.6144 3.80279 62.9193 4.12429 63.1348 4.55185C63.3535 4.97609 63.4629 5.50639 63.4629 6.14276V11H61.9764V6.32173C61.9764 5.7616 61.8322 5.32741 61.5439 5.01918C61.2555 4.70762 60.8545 4.55185 60.3407 4.55185C59.9894 4.55185 59.6745 4.62642 59.3961 4.77557C59.121 4.92472 58.9039 5.14347 58.7449 5.43182C58.5891 5.71686 58.5112 6.06155 58.5112 6.46591ZM68.6632 11.1541C67.9473 11.1541 67.3225 10.9901 66.7889 10.6619C66.2553 10.3338 65.841 9.87476 65.546 9.2848C65.251 8.69484 65.1035 8.00544 65.1035 7.21662C65.1035 6.42448 65.251 5.73177 65.546 5.13849C65.841 4.54522 66.2553 4.08452 66.7889 3.75639C67.3225 3.42827 67.9473 3.2642 68.6632 3.2642C69.3791 3.2642 70.0038 3.42827 70.5375 3.75639C71.0711 4.08452 71.4854 4.54522 71.7804 5.13849C72.0753 5.73177 72.2228 6.42448 72.2228 7.21662C72.2228 8.00544 72.0753 8.69484 71.7804 9.2848C71.4854 9.87476 71.0711 10.3338 70.5375 10.6619C70.0038 10.9901 69.3791 11.1541 68.6632 11.1541ZM68.6681 9.90625C69.1322 9.90625 69.5166 9.78362 69.8216 9.53835C70.1265 9.29309 70.3519 8.96662 70.4977 8.55895C70.6468 8.15128 70.7214 7.70218 70.7214 7.21165C70.7214 6.72443 70.6468 6.27699 70.4977 5.86932C70.3519 5.45833 70.1265 5.12855 69.8216 4.87997C69.5166 4.63139 69.1322 4.5071 68.6681 4.5071C68.2008 4.5071 67.813 4.63139 67.5048 4.87997C67.1999 5.12855 66.9728 5.45833 66.8237 5.86932C66.6779 6.27699 66.6049 6.72443 66.6049 7.21165C66.6049 7.70218 66.6779 8.15128 66.8237 8.55895C66.9728 8.96662 67.1999 9.29309 67.5048 9.53835C67.813 9.78362 68.2008 9.90625 68.6681 9.90625ZM75.3686 0.818182V11H73.8821V0.818182H75.3686ZM80.6596 11.1541C79.9073 11.1541 79.2593 10.9934 78.7157 10.6719C78.1755 10.3471 77.7579 9.89134 77.4629 9.30469C77.1712 8.71473 77.0254 8.02367 77.0254 7.23153C77.0254 6.44934 77.1712 5.75994 77.4629 5.16335C77.7579 4.56676 78.1689 4.10109 78.6958 3.76633C79.2261 3.43158 79.8459 3.2642 80.5552 3.2642C80.9861 3.2642 81.4037 3.33546 81.8081 3.47798C82.2124 3.6205 82.5753 3.84422 82.8968 4.14915C83.2183 4.45407 83.4719 4.85014 83.6575 5.33736C83.8431 5.82126 83.9359 6.40956 83.9359 7.10227V7.62926H77.8656V6.51562H82.4792C82.4792 6.12453 82.3997 5.77817 82.2406 5.47656C82.0815 5.17164 81.8578 4.93134 81.5694 4.75568C81.2844 4.58002 80.9496 4.49219 80.5652 4.49219C80.1475 4.49219 79.783 4.59493 79.4714 4.80043C79.1632 5.0026 78.9245 5.26776 78.7555 5.59588C78.5898 5.92069 78.5069 6.27367 78.5069 6.65483V7.52486C78.5069 8.03527 78.5964 8.46946 78.7754 8.82741C78.9577 9.18537 79.2112 9.45881 79.536 9.64773C79.8609 9.83333 80.2404 9.92614 80.6745 9.92614C80.9563 9.92614 81.2131 9.88636 81.4451 9.80682C81.6771 9.72396 81.8777 9.60133 82.0467 9.43892C82.2157 9.27652 82.345 9.07599 82.4345 8.83736L83.8414 9.09091C83.7288 9.50521 83.5266 9.86813 83.2349 10.1797C82.9466 10.4879 82.5836 10.7282 82.1461 10.9006C81.7119 11.0696 81.2164 11.1541 80.6596 11.1541ZM90.0845 6.05327V7.34091H85.5703V6.05327H90.0845ZM95.2823 11.1541C94.5432 11.1541 93.9068 10.9867 93.3732 10.652C92.8429 10.3139 92.4353 9.84825 92.1502 9.25497C91.8652 8.66169 91.7227 7.98224 91.7227 7.21662C91.7227 6.44105 91.8685 5.75663 92.1602 5.16335C92.4518 4.56676 92.8628 4.10109 93.3931 3.76633C93.9234 3.43158 94.5482 3.2642 95.2674 3.2642C95.8474 3.2642 96.3645 3.37192 96.8185 3.58736C97.2726 3.79948 97.6388 4.09777 97.9173 4.48224C98.199 4.86671 98.3664 5.31581 98.4194 5.82955H96.9727C96.8931 5.47159 96.7108 5.16335 96.4258 4.90483C96.1441 4.64631 95.7662 4.51705 95.2923 4.51705C94.878 4.51705 94.515 4.62642 94.2035 4.84517C93.8952 5.06061 93.6549 5.36884 93.4826 5.76989C93.3103 6.16761 93.2241 6.63826 93.2241 7.18182C93.2241 7.73864 93.3086 8.21922 93.4776 8.62358C93.6467 9.02794 93.8853 9.34115 94.1935 9.56321C94.5051 9.78527 94.8713 9.89631 95.2923 9.89631C95.574 9.89631 95.8292 9.84493 96.0579 9.74219C96.2899 9.63613 96.4838 9.48532 96.6396 9.28977C96.7987 9.09422 96.9097 8.8589 96.9727 8.58381H98.4194C98.3664 9.07765 98.2056 9.51847 97.9371 9.90625C97.6687 10.294 97.3091 10.599 96.8583 10.821C96.4109 11.0431 95.8855 11.1541 95.2823 11.1541ZM100.009 11V3.36364H101.496V11H100.009ZM100.76 2.18537C100.501 2.18537 100.279 2.09919 100.094 1.92685C99.9113 1.75118 99.8201 1.54238 99.8201 1.30043C99.8201 1.05516 99.9113 0.846354 100.094 0.674005C100.279 0.498342 100.501 0.410511 100.76 0.410511C101.018 0.410511 101.239 0.498342 101.421 0.674005C101.607 0.846354 101.699 1.05516 101.699 1.30043C101.699 1.54238 101.607 1.75118 101.421 1.92685C101.239 2.09919 101.018 2.18537 100.76 2.18537ZM103.495 11V3.36364H104.932V4.5767H105.012C105.151 4.16572 105.396 3.84257 105.748 3.60724C106.102 3.36861 106.503 3.24929 106.951 3.24929C107.043 3.24929 107.153 3.2526 107.279 3.25923C107.408 3.26586 107.509 3.27415 107.582 3.28409V4.70597C107.522 4.68939 107.416 4.67116 107.264 4.65128C107.111 4.62808 106.959 4.61648 106.806 4.61648C106.455 4.61648 106.142 4.69105 105.867 4.8402C105.595 4.98603 105.38 5.18987 105.221 5.4517C105.061 5.71023 104.982 6.00521 104.982 6.33665V11H103.495ZM111.812 11.1541C111.073 11.1541 110.436 10.9867 109.903 10.652C109.372 10.3139 108.965 9.84825 108.68 9.25497C108.394 8.66169 108.252 7.98224 108.252 7.21662C108.252 6.44105 108.398 5.75663 108.689 5.16335C108.981 4.56676 109.392 4.10109 109.922 3.76633C110.453 3.43158 111.077 3.2642 111.797 3.2642C112.377 3.2642 112.894 3.37192 113.348 3.58736C113.802 3.79948 114.168 4.09777 114.447 4.48224C114.728 4.86671 114.896 5.31581 114.949 5.82955H113.502C113.422 5.47159 113.24 5.16335 112.955 4.90483C112.673 4.64631 112.296 4.51705 111.822 4.51705C111.407 4.51705 111.044 4.62642 110.733 4.84517C110.425 5.06061 110.184 5.36884 110.012 5.76989C109.84 6.16761 109.753 6.63826 109.753 7.18182C109.753 7.73864 109.838 8.21922 110.007 8.62358C110.176 9.02794 110.415 9.34115 110.723 9.56321C111.034 9.78527 111.401 9.89631 111.822 9.89631C112.103 9.89631 112.358 9.84493 112.587 9.74219C112.819 9.63613 113.013 9.48532 113.169 9.28977C113.328 9.09422 113.439 8.8589 113.502 8.58381H114.949C114.896 9.07765 114.735 9.51847 114.466 9.90625C114.198 10.294 113.838 10.599 113.388 10.821C112.94 11.0431 112.415 11.1541 111.812 11.1541ZM118.025 0.818182V11H116.538V0.818182H118.025ZM123.316 11.1541C122.564 11.1541 121.916 10.9934 121.372 10.6719C120.832 10.3471 120.414 9.89134 120.119 9.30469C119.827 8.71473 119.682 8.02367 119.682 7.23153C119.682 6.44934 119.827 5.75994 120.119 5.16335C120.414 4.56676 120.825 4.10109 121.352 3.76633C121.882 3.43158 122.502 3.2642 123.211 3.2642C123.642 3.2642 124.06 3.33546 124.464 3.47798C124.869 3.6205 125.232 3.84422 125.553 4.14915C125.875 4.45407 126.128 4.85014 126.314 5.33736C126.499 5.82126 126.592 6.40956 126.592 7.10227V7.62926H120.522V6.51562H125.135C125.135 6.12453 125.056 5.77817 124.897 5.47656C124.738 5.17164 124.514 4.93134 124.226 4.75568C123.941 4.58002 123.606 4.49219 123.221 4.49219C122.804 4.49219 122.439 4.59493 122.128 4.80043C121.819 5.0026 121.581 5.26776 121.412 5.59588C121.246 5.92069 121.163 6.27367 121.163 6.65483V7.52486C121.163 8.03527 121.253 8.46946 121.432 8.82741C121.614 9.18537 121.867 9.45881 122.192 9.64773C122.517 9.83333 122.897 9.92614 123.331 9.92614C123.613 9.92614 123.869 9.88636 124.101 9.80682C124.333 9.72396 124.534 9.60133 124.703 9.43892C124.872 9.27652 125.001 9.07599 125.091 8.83736L126.498 9.09091C126.385 9.50521 126.183 9.86813 125.891 10.1797C125.603 10.4879 125.24 10.7282 124.802 10.9006C124.368 11.0696 123.873 11.1541 123.316 11.1541Z" fill="black"/>
</svg>
