<svg viewBox="0 0 69 12" fill="none" stroke-width="2" stroke="currentColor" aria-hidden="true">
  <path d="M1.4858 6.46591V11H-0.000710189V0.818182H1.46591V4.60653H1.56037C1.73935 4.19555 2.01278 3.86908 2.38068 3.62713C2.74858 3.38518 3.22917 3.2642 3.82244 3.2642C4.34612 3.2642 4.8035 3.37192 5.1946 3.58736C5.58902 3.80279 5.89394 4.12429 6.10938 4.55185C6.32812 4.97609 6.4375 5.50639 6.4375 6.14276V11H4.95099V6.32173C4.95099 5.7616 4.80682 5.32741 4.51847 5.01918C4.23011 4.70762 3.82907 4.55185 3.31534 4.55185C2.96402 4.55185 2.64915 4.62642 2.37074 4.77557C2.09564 4.92472 1.87855 5.14347 1.71946 5.43182C1.56368 5.71686 1.4858 6.06155 1.4858 6.46591ZM10.6435 11.169C10.1596 11.169 9.72206 11.0795 9.33097 10.9006C8.93987 10.7183 8.62997 10.4548 8.40128 10.1101C8.1759 9.76539 8.06321 9.3428 8.06321 8.84233C8.06321 8.41146 8.14607 8.05682 8.31179 7.77841C8.47751 7.5 8.70123 7.27959 8.98295 7.11719C9.26468 6.95478 9.57955 6.83215 9.92756 6.74929C10.2756 6.66643 10.6302 6.60346 10.9915 6.56037C11.4489 6.50734 11.8201 6.46425 12.1051 6.43111C12.3902 6.39465 12.5973 6.33665 12.7266 6.2571C12.8558 6.17756 12.9205 6.0483 12.9205 5.86932V5.83452C12.9205 5.40033 12.7978 5.06392 12.5526 4.82528C12.3106 4.58665 11.9493 4.46733 11.4688 4.46733C10.9683 4.46733 10.5739 4.57836 10.2855 4.80043C10.0005 5.01918 9.80327 5.26278 9.69389 5.53125L8.29688 5.21307C8.46259 4.74905 8.70455 4.37453 9.02273 4.08949C9.34422 3.80114 9.71378 3.59233 10.1314 3.46307C10.549 3.33049 10.9882 3.2642 11.4489 3.2642C11.7538 3.2642 12.0769 3.30066 12.4183 3.37358C12.763 3.44318 13.0845 3.57244 13.3828 3.76136C13.6844 3.95028 13.9313 4.22041 14.1236 4.57173C14.3158 4.91974 14.4119 5.37216 14.4119 5.92898V11H12.9602V9.95597H12.9006C12.8045 10.1482 12.6603 10.3371 12.468 10.5227C12.2758 10.7083 12.0289 10.8625 11.7273 10.9851C11.4257 11.1077 11.0644 11.169 10.6435 11.169ZM10.9666 9.97585C11.3776 9.97585 11.7289 9.89465 12.0206 9.73224C12.3156 9.56984 12.5393 9.35772 12.6918 9.09588C12.8475 8.83073 12.9254 8.54735 12.9254 8.24574V7.26136C12.8724 7.31439 12.7696 7.36411 12.6172 7.41051C12.468 7.4536 12.2973 7.49171 12.1051 7.52486C11.9129 7.55469 11.7256 7.58286 11.5433 7.60938C11.361 7.63258 11.2086 7.65246 11.0859 7.66903C10.7976 7.70549 10.5341 7.76681 10.2955 7.85298C10.0601 7.93916 9.87121 8.06345 9.72869 8.22585C9.58949 8.38494 9.51989 8.59706 9.51989 8.86222C9.51989 9.23011 9.65578 9.50852 9.92756 9.69744C10.1993 9.88305 10.5457 9.97585 10.9666 9.97585ZM16.3919 11V3.36364H17.8287V4.5767H17.9082C18.0474 4.16572 18.2927 3.84257 18.644 3.60724C18.9986 3.36861 19.3997 3.24929 19.8471 3.24929C19.9399 3.24929 20.0493 3.2526 20.1752 3.25923C20.3045 3.26586 20.4056 3.27415 20.4785 3.28409V4.70597C20.4189 4.68939 20.3128 4.67116 20.1603 4.65128C20.0079 4.62808 19.8554 4.61648 19.7029 4.61648C19.3516 4.61648 19.0384 4.69105 18.7633 4.8402C18.4915 4.98603 18.2761 5.18987 18.117 5.4517C17.9579 5.71023 17.8784 6.00521 17.8784 6.33665V11H16.3919ZM24.3501 11.1491C23.7337 11.1491 23.1835 10.9917 22.6996 10.6768C22.219 10.3587 21.8411 9.90625 21.5661 9.3196C21.2943 8.72964 21.1584 8.02202 21.1584 7.19673C21.1584 6.37145 21.2959 5.66548 21.571 5.07884C21.8494 4.49219 22.2306 4.04309 22.7145 3.73153C23.1984 3.41998 23.7469 3.2642 24.3601 3.2642C24.834 3.2642 25.2152 3.34375 25.5036 3.50284C25.7952 3.65862 26.0206 3.84091 26.1797 4.04972C26.3421 4.25852 26.468 4.44247 26.5575 4.60156H26.647V0.818182H28.1335V11H26.6818V9.81179H26.5575C26.468 9.9742 26.3388 10.1598 26.1697 10.3686C26.004 10.5774 25.7753 10.7597 25.4837 10.9155C25.192 11.0713 24.8142 11.1491 24.3501 11.1491ZM24.6783 9.88139C25.1058 9.88139 25.4671 9.7687 25.7621 9.54332C26.0604 9.31463 26.2857 8.99811 26.4382 8.59375C26.594 8.18939 26.6719 7.71875 26.6719 7.18182C26.6719 6.65151 26.5956 6.1875 26.4432 5.78977C26.2907 5.39205 26.067 5.08215 25.772 4.86009C25.477 4.63802 25.1125 4.52699 24.6783 4.52699C24.2308 4.52699 23.858 4.64299 23.5597 4.875C23.2614 5.10701 23.036 5.42353 22.8835 5.82457C22.7344 6.22562 22.6598 6.67803 22.6598 7.18182C22.6598 7.69223 22.736 8.15128 22.8885 8.55895C23.041 8.96662 23.2663 9.28977 23.5646 9.52841C23.8662 9.76373 24.2375 9.88139 24.6783 9.88139ZM34.7544 6.05327V7.34091H30.2402V6.05327H34.7544ZM39.5943 11.1491C38.9778 11.1491 38.4276 10.9917 37.9437 10.6768C37.4631 10.3587 37.0853 9.90625 36.8102 9.3196C36.5384 8.72964 36.4025 8.02202 36.4025 7.19673C36.4025 6.37145 36.5401 5.66548 36.8152 5.07884C37.0936 4.49219 37.4747 4.04309 37.9586 3.73153C38.4425 3.41998 38.9911 3.2642 39.6042 3.2642C40.0782 3.2642 40.4593 3.34375 40.7477 3.50284C41.0394 3.65862 41.2647 3.84091 41.4238 4.04972C41.5862 4.25852 41.7122 4.44247 41.8017 4.60156H41.8912V0.818182H43.3777V11H41.926V9.81179H41.8017C41.7122 9.9742 41.5829 10.1598 41.4139 10.3686C41.2482 10.5774 41.0195 10.7597 40.7278 10.9155C40.4361 11.0713 40.0583 11.1491 39.5943 11.1491ZM39.9224 9.88139C40.35 9.88139 40.7112 9.7687 41.0062 9.54332C41.3045 9.31463 41.5299 8.99811 41.6824 8.59375C41.8381 8.18939 41.916 7.71875 41.916 7.18182C41.916 6.65151 41.8398 6.1875 41.6873 5.78977C41.5349 5.39205 41.3111 5.08215 41.0162 4.86009C40.7212 4.63802 40.3566 4.52699 39.9224 4.52699C39.475 4.52699 39.1021 4.64299 38.8038 4.875C38.5055 5.10701 38.2801 5.42353 38.1277 5.82457C37.9785 6.22562 37.9039 6.67803 37.9039 7.18182C37.9039 7.69223 37.9802 8.15128 38.1326 8.55895C38.2851 8.96662 38.5105 9.28977 38.8088 9.52841C39.1104 9.76373 39.4816 9.88139 39.9224 9.88139ZM45.4993 11V3.36364H46.9361V4.5767H47.0156C47.1548 4.16572 47.4001 3.84257 47.7514 3.60724C48.1061 3.36861 48.5071 3.24929 48.9545 3.24929C49.0473 3.24929 49.1567 3.2526 49.2827 3.25923C49.4119 3.26586 49.513 3.27415 49.5859 3.28409V4.70597C49.5263 4.68939 49.4202 4.67116 49.2678 4.65128C49.1153 4.62808 48.9628 4.61648 48.8104 4.61648C48.459 4.61648 48.1458 4.69105 47.8707 4.8402C47.599 4.98603 47.3835 5.18987 47.2244 5.4517C47.0653 5.71023 46.9858 6.00521 46.9858 6.33665V11H45.4993ZM50.8723 11V3.36364H52.3588V11H50.8723ZM51.623 2.18537C51.3645 2.18537 51.1425 2.09919 50.9569 1.92685C50.7746 1.75118 50.6834 1.54238 50.6834 1.30043C50.6834 1.05516 50.7746 0.846354 50.9569 0.674005C51.1425 0.498342 51.3645 0.410511 51.623 0.410511C51.8816 0.410511 52.102 0.498342 52.2843 0.674005C52.4699 0.846354 52.5627 1.05516 52.5627 1.30043C52.5627 1.54238 52.4699 1.75118 52.2843 1.92685C52.102 2.09919 51.8816 2.18537 51.623 2.18537ZM60.8913 3.36364L58.1222 11H56.5312L53.7571 3.36364H55.353L57.2869 9.24006H57.3665L59.2955 3.36364H60.8913ZM65.3198 11.1541C64.5674 11.1541 63.9194 10.9934 63.3759 10.6719C62.8356 10.3471 62.418 9.89134 62.123 9.30469C61.8314 8.71473 61.6855 8.02367 61.6855 7.23153C61.6855 6.44934 61.8314 5.75994 62.123 5.16335C62.418 4.56676 62.829 4.10109 63.356 3.76633C63.8863 3.43158 64.5061 3.2642 65.2154 3.2642C65.6462 3.2642 66.0639 3.33546 66.4682 3.47798C66.8726 3.6205 67.2355 3.84422 67.557 4.14915C67.8785 4.45407 68.132 4.85014 68.3176 5.33736C68.5033 5.82126 68.5961 6.40956 68.5961 7.10227V7.62926H62.5257V6.51562H67.1394C67.1394 6.12453 67.0598 5.77817 66.9007 5.47656C66.7417 5.17164 66.5179 4.93134 66.2296 4.75568C65.9445 4.58002 65.6098 4.49219 65.2253 4.49219C64.8077 4.49219 64.4431 4.59493 64.1316 4.80043C63.8233 5.0026 63.5847 5.26776 63.4157 5.59588C63.2499 5.92069 63.1671 6.27367 63.1671 6.65483V7.52486C63.1671 8.03527 63.2566 8.46946 63.4355 8.82741C63.6178 9.18537 63.8714 9.45881 64.1962 9.64773C64.521 9.83333 64.9005 9.92614 65.3347 9.92614C65.6164 9.92614 65.8733 9.88636 66.1053 9.80682C66.3373 9.72396 66.5378 9.60133 66.7069 9.43892C66.8759 9.27652 67.0051 9.07599 67.0946 8.83736L68.5016 9.09091C68.3889 9.50521 68.1867 9.86813 67.8951 10.1797C67.6067 10.4879 67.2438 10.7282 66.8063 10.9006C66.3721 11.0696 65.8766 11.1541 65.3198 11.1541Z" fill="black"/>
</svg>
