<svg viewBox="0 0 89 12" fill="none" stroke-width="2" stroke="currentColor" aria-hidden="true">
  <path d="M0.118608 11V0.818182H1.60511V4.60156H1.6946C1.78078 4.44247 1.90507 4.25852 2.06747 4.04972C2.22988 3.84091 2.45526 3.65862 2.74361 3.50284C3.03196 3.34375 3.41312 3.2642 3.88707 3.2642C4.50355 3.2642 5.05374 3.41998 5.53764 3.73153C6.02154 4.04309 6.40104 4.49219 6.67614 5.07884C6.95455 5.66548 7.09375 6.37145 7.09375 7.19673C7.09375 8.02202 6.9562 8.72964 6.68111 9.3196C6.40601 9.90625 6.02817 10.3587 5.54759 10.6768C5.067 10.9917 4.51847 11.1491 3.90199 11.1491C3.43797 11.1491 3.05848 11.0713 2.76349 10.9155C2.47183 10.7597 2.24313 10.5774 2.07741 10.3686C1.9117 10.1598 1.78409 9.9742 1.6946 9.81179H1.57031V11H0.118608ZM1.57528 7.18182C1.57528 7.71875 1.65317 8.18939 1.80895 8.59375C1.96473 8.99811 2.1901 9.31463 2.48509 9.54332C2.78007 9.7687 3.14134 9.88139 3.56889 9.88139C4.01302 9.88139 4.38423 9.76373 4.68253 9.52841C4.98082 9.28977 5.2062 8.96662 5.35866 8.55895C5.51444 8.15128 5.59233 7.69223 5.59233 7.18182C5.59233 6.67803 5.5161 6.22562 5.36364 5.82457C5.21449 5.42353 4.98911 5.10701 4.6875 4.875C4.3892 4.64299 4.01634 4.52699 3.56889 4.52699C3.13802 4.52699 2.77344 4.63802 2.47514 4.86009C2.18016 5.08215 1.95644 5.39205 1.80398 5.78977C1.65152 6.1875 1.57528 6.65151 1.57528 7.18182ZM10.2495 0.818182V11H8.76296V0.818182H10.2495ZM17.0866 7.8331V3.36364H18.5781V11H17.1165V9.67756H17.0369C16.8613 10.0852 16.5795 10.425 16.1918 10.6967C15.8073 10.9652 15.3284 11.0994 14.755 11.0994C14.2644 11.0994 13.8303 10.9917 13.4524 10.7763C13.0779 10.5575 12.7829 10.2344 12.5675 9.80682C12.3554 9.37926 12.2493 8.85062 12.2493 8.22088V3.36364H13.7358V8.0419C13.7358 8.56226 13.88 8.97656 14.1683 9.2848C14.4567 9.59304 14.8312 9.74716 15.2919 9.74716C15.5703 9.74716 15.8471 9.67756 16.1222 9.53835C16.4006 9.39915 16.6309 9.18868 16.8132 8.90696C16.9988 8.62524 17.09 8.26728 17.0866 7.8331ZM23.8667 11.1541C23.1143 11.1541 22.4663 10.9934 21.9228 10.6719C21.3825 10.3471 20.9649 9.89134 20.6699 9.30469C20.3783 8.71473 20.2324 8.02367 20.2324 7.23153C20.2324 6.44934 20.3783 5.75994 20.6699 5.16335C20.9649 4.56676 21.3759 4.10109 21.9029 3.76633C22.4332 3.43158 23.053 3.2642 23.7623 3.2642C24.1931 3.2642 24.6107 3.33546 25.0151 3.47798C25.4194 3.6205 25.7824 3.84422 26.1039 4.14915C26.4254 4.45407 26.6789 4.85014 26.8645 5.33736C27.0501 5.82126 27.1429 6.40956 27.1429 7.10227V7.62926H21.0726V6.51562H25.6863C25.6863 6.12453 25.6067 5.77817 25.4476 5.47656C25.2885 5.17164 25.0648 4.93134 24.7765 4.75568C24.4914 4.58002 24.1567 4.49219 23.7722 4.49219C23.3546 4.49219 22.99 4.59493 22.6784 4.80043C22.3702 5.0026 22.1316 5.26776 21.9625 5.59588C21.7968 5.92069 21.714 6.27367 21.714 6.65483V7.52486C21.714 8.03527 21.8034 8.46946 21.9824 8.82741C22.1647 9.18537 22.4183 9.45881 22.7431 9.64773C23.0679 9.83333 23.4474 9.92614 23.8816 9.92614C24.1633 9.92614 24.4202 9.88636 24.6522 9.80682C24.8842 9.72396 25.0847 9.60133 25.2537 9.43892C25.4228 9.27652 25.552 9.07599 25.6415 8.83736L27.0485 9.09091C26.9358 9.50521 26.7336 9.86813 26.4419 10.1797C26.1536 10.4879 25.7907 10.7282 25.3532 10.9006C24.919 11.0696 24.4235 11.1541 23.8667 11.1541ZM32.3569 3.36364V4.55682H28.1857V3.36364H32.3569ZM29.3043 1.53409H30.7908V8.75781C30.7908 9.04616 30.8339 9.26326 30.9201 9.40909C31.0063 9.55161 31.1173 9.64938 31.2532 9.70241C31.3924 9.75213 31.5432 9.77699 31.7056 9.77699C31.8249 9.77699 31.9293 9.7687 32.0188 9.75213C32.1083 9.73556 32.1779 9.7223 32.2276 9.71236L32.4961 10.9403C32.4099 10.9735 32.2873 11.0066 32.1282 11.0398C31.9691 11.0762 31.7702 11.0961 31.5316 11.0994C31.1405 11.1061 30.7759 11.0365 30.4379 10.8906C30.0998 10.7448 29.8263 10.5194 29.6175 10.2145C29.4087 9.90956 29.3043 9.52675 29.3043 9.06605V1.53409ZM37.1358 11.1541C36.4199 11.1541 35.7952 10.9901 35.2615 10.6619C34.7279 10.3338 34.3136 9.87476 34.0186 9.2848C33.7237 8.69484 33.5762 8.00544 33.5762 7.21662C33.5762 6.42448 33.7237 5.73177 34.0186 5.13849C34.3136 4.54522 34.7279 4.08452 35.2615 3.75639C35.7952 3.42827 36.4199 3.2642 37.1358 3.2642C37.8517 3.2642 38.4765 3.42827 39.0101 3.75639C39.5437 4.08452 39.958 4.54522 40.253 5.13849C40.548 5.73177 40.6955 6.42448 40.6955 7.21662C40.6955 8.00544 40.548 8.69484 40.253 9.2848C39.958 9.87476 39.5437 10.3338 39.0101 10.6619C38.4765 10.9901 37.8517 11.1541 37.1358 11.1541ZM37.1408 9.90625C37.6048 9.90625 37.9893 9.78362 38.2942 9.53835C38.5991 9.29309 38.8245 8.96662 38.9703 8.55895C39.1195 8.15128 39.1941 7.70218 39.1941 7.21165C39.1941 6.72443 39.1195 6.27699 38.9703 5.86932C38.8245 5.45833 38.5991 5.12855 38.2942 4.87997C37.9893 4.63139 37.6048 4.5071 37.1408 4.5071C36.6735 4.5071 36.2857 4.63139 35.9775 4.87997C35.6725 5.12855 35.4455 5.45833 35.2963 5.86932C35.1505 6.27699 35.0776 6.72443 35.0776 7.21165C35.0776 7.70218 35.1505 8.15128 35.2963 8.55895C35.4455 8.96662 35.6725 9.29309 35.9775 9.53835C36.2857 9.78362 36.6735 9.90625 37.1408 9.90625ZM45.5714 11.1541C44.8555 11.1541 44.2307 10.9901 43.6971 10.6619C43.1635 10.3338 42.7492 9.87476 42.4542 9.2848C42.1592 8.69484 42.0117 8.00544 42.0117 7.21662C42.0117 6.42448 42.1592 5.73177 42.4542 5.13849C42.7492 4.54522 43.1635 4.08452 43.6971 3.75639C44.2307 3.42827 44.8555 3.2642 45.5714 3.2642C46.2873 3.2642 46.9121 3.42827 47.4457 3.75639C47.9793 4.08452 48.3936 4.54522 48.6886 5.13849C48.9835 5.73177 49.131 6.42448 49.131 7.21662C49.131 8.00544 48.9835 8.69484 48.6886 9.2848C48.3936 9.87476 47.9793 10.3338 47.4457 10.6619C46.9121 10.9901 46.2873 11.1541 45.5714 11.1541ZM45.5763 9.90625C46.0404 9.90625 46.4248 9.78362 46.7298 9.53835C47.0347 9.29309 47.2601 8.96662 47.4059 8.55895C47.555 8.15128 47.6296 7.70218 47.6296 7.21165C47.6296 6.72443 47.555 6.27699 47.4059 5.86932C47.2601 5.45833 47.0347 5.12855 46.7298 4.87997C46.4248 4.63139 46.0404 4.5071 45.5763 4.5071C45.109 4.5071 44.7212 4.63139 44.413 4.87997C44.1081 5.12855 43.881 5.45833 43.7319 5.86932C43.5861 6.27699 43.5131 6.72443 43.5131 7.21165C43.5131 7.70218 43.5861 8.15128 43.7319 8.55895C43.881 8.96662 44.1081 9.29309 44.413 9.53835C44.7212 9.78362 45.109 9.90625 45.5763 9.90625ZM54.3549 3.36364V4.55682H50.1838V3.36364H54.3549ZM51.3024 1.53409H52.7889V8.75781C52.7889 9.04616 52.832 9.26326 52.9181 9.40909C53.0043 9.55161 53.1154 9.64938 53.2512 9.70241C53.3904 9.75213 53.5413 9.77699 53.7037 9.77699C53.823 9.77699 53.9274 9.7687 54.0169 9.75213C54.1064 9.73556 54.176 9.7223 54.2257 9.71236L54.4941 10.9403C54.408 10.9735 54.2853 11.0066 54.1262 11.0398C53.9672 11.0762 53.7683 11.0961 53.5297 11.0994C53.1386 11.1061 52.774 11.0365 52.4359 10.8906C52.0978 10.7448 51.8244 10.5194 51.6156 10.2145C51.4068 9.90956 51.3024 9.52675 51.3024 9.06605V1.53409ZM57.6499 6.46591V11H56.1634V0.818182H57.63V4.60653H57.7244C57.9034 4.19555 58.1768 3.86908 58.5447 3.62713C58.9126 3.38518 59.3932 3.2642 59.9865 3.2642C60.5102 3.2642 60.9676 3.37192 61.3587 3.58736C61.7531 3.80279 62.058 4.12429 62.2734 4.55185C62.4922 4.97609 62.6016 5.50639 62.6016 6.14276V11H61.1151V6.32173C61.1151 5.7616 60.9709 5.32741 60.6825 5.01918C60.3942 4.70762 59.9931 4.55185 59.4794 4.55185C59.1281 4.55185 58.8132 4.62642 58.5348 4.77557C58.2597 4.92472 58.0426 5.14347 57.8835 5.43182C57.7277 5.71686 57.6499 6.06155 57.6499 6.46591ZM69.0845 6.05327V7.34091H64.5703V6.05327H69.0845ZM74.2823 11.1541C73.5664 11.1541 72.9416 10.9901 72.408 10.6619C71.8744 10.3338 71.4601 9.87476 71.1651 9.2848C70.8701 8.69484 70.7227 8.00544 70.7227 7.21662C70.7227 6.42448 70.8701 5.73177 71.1651 5.13849C71.4601 4.54522 71.8744 4.08452 72.408 3.75639C72.9416 3.42827 73.5664 3.2642 74.2823 3.2642C74.9982 3.2642 75.623 3.42827 76.1566 3.75639C76.6902 4.08452 77.1045 4.54522 77.3995 5.13849C77.6945 5.73177 77.842 6.42448 77.842 7.21662C77.842 8.00544 77.6945 8.69484 77.3995 9.2848C77.1045 9.87476 76.6902 10.3338 76.1566 10.6619C75.623 10.9901 74.9982 11.1541 74.2823 11.1541ZM74.2873 9.90625C74.7513 9.90625 75.1358 9.78362 75.4407 9.53835C75.7456 9.29309 75.971 8.96662 76.1168 8.55895C76.266 8.15128 76.3406 7.70218 76.3406 7.21165C76.3406 6.72443 76.266 6.27699 76.1168 5.86932C75.971 5.45833 75.7456 5.12855 75.4407 4.87997C75.1358 4.63139 74.7513 4.5071 74.2873 4.5071C73.82 4.5071 73.4322 4.63139 73.1239 4.87997C72.819 5.12855 72.592 5.45833 72.4428 5.86932C72.297 6.27699 72.2241 6.72443 72.2241 7.21165C72.2241 7.70218 72.297 8.15128 72.4428 8.55895C72.592 8.96662 72.819 9.29309 73.1239 9.53835C73.4322 9.78362 73.82 9.90625 74.2873 9.90625ZM83.1355 3.36364V4.55682H78.8201V3.36364H83.1355ZM80.0034 11V2.47869C80.0034 2.00142 80.1078 1.60535 80.3166 1.29048C80.5254 0.972301 80.8021 0.735322 81.1468 0.579545C81.4915 0.420454 81.8661 0.340908 82.2704 0.340908C82.5687 0.340908 82.8239 0.365767 83.036 0.415483C83.2482 0.461884 83.4056 0.504971 83.5083 0.544744L83.1603 1.74787C83.0907 1.72798 83.0012 1.70478 82.8919 1.67827C82.7825 1.64844 82.6499 1.63352 82.4941 1.63352C82.1329 1.63352 81.8743 1.72301 81.7186 1.90199C81.5661 2.08097 81.4899 2.33949 81.4899 2.67756V11H80.0034ZM88.3034 3.36364V4.55682H83.9881V3.36364H88.3034ZM85.1713 11V2.47869C85.1713 2.00142 85.2757 1.60535 85.4846 1.29048C85.6934 0.972301 85.9701 0.735322 86.3148 0.579545C86.6595 0.420454 87.034 0.340908 87.4384 0.340908C87.7367 0.340908 87.9919 0.365767 88.204 0.415483C88.4161 0.461884 88.5736 0.504971 88.6763 0.544744L88.3283 1.74787C88.2587 1.72798 88.1692 1.70478 88.0598 1.67827C87.9505 1.64844 87.8179 1.63352 87.6621 1.63352C87.3008 1.63352 87.0423 1.72301 86.8865 1.90199C86.7341 2.08097 86.6578 2.33949 86.6578 2.67756V11H85.1713Z" fill="black"/>
</svg>
