<svg viewBox="0 0 83 14" fill="none" stroke-width="2" stroke="currentColor" aria-hidden="true">
  <path d="M7.53196 3.36364L4.76278 11H3.17188L0.397727 3.36364H1.99361L3.92756 9.24006H4.0071L5.93608 3.36364H7.53196ZM11.8858 11.1541C11.1699 11.1541 10.5452 10.9901 10.0115 10.6619C9.47792 10.3338 9.06362 9.87476 8.76864 9.2848C8.47366 8.69484 8.32617 8.00544 8.32617 7.21662C8.32617 6.42448 8.47366 5.73177 8.76864 5.13849C9.06362 4.54522 9.47792 4.08452 10.0115 3.75639C10.5452 3.42827 11.1699 3.2642 11.8858 3.2642C12.6017 3.2642 13.2265 3.42827 13.7601 3.75639C14.2937 4.08452 14.708 4.54522 15.003 5.13849C15.298 5.73177 15.4455 6.42448 15.4455 7.21662C15.4455 8.00544 15.298 8.69484 15.003 9.2848C14.708 9.87476 14.2937 10.3338 13.7601 10.6619C13.2265 10.9901 12.6017 11.1541 11.8858 11.1541ZM11.8908 9.90625C12.3548 9.90625 12.7393 9.78362 13.0442 9.53835C13.3491 9.29309 13.5745 8.96662 13.7203 8.55895C13.8695 8.15128 13.9441 7.70218 13.9441 7.21165C13.9441 6.72443 13.8695 6.27699 13.7203 5.86932C13.5745 5.45833 13.3491 5.12855 13.0442 4.87997C12.7393 4.63139 12.3548 4.5071 11.8908 4.5071C11.4235 4.5071 11.0357 4.63139 10.7275 4.87997C10.4225 5.12855 10.1955 5.45833 10.0463 5.86932C9.90051 6.27699 9.82759 6.72443 9.82759 7.21165C9.82759 7.70218 9.90051 8.15128 10.0463 8.55895C10.1955 8.96662 10.4225 9.29309 10.7275 9.53835C11.0357 9.78362 11.4235 9.90625 11.8908 9.90625ZM18.5913 0.818182V11H17.1048V0.818182H18.5913ZM25.4284 7.8331V3.36364H26.9199V11H25.4583V9.67756H25.3787C25.2031 10.0852 24.9213 10.425 24.5336 10.6967C24.1491 10.9652 23.6702 11.0994 23.0968 11.0994C22.6062 11.0994 22.1721 10.9917 21.7942 10.7763C21.4197 10.5575 21.1247 10.2344 20.9093 9.80682C20.6971 9.37926 20.5911 8.85062 20.5911 8.22088V3.36364H22.0776V8.0419C22.0776 8.56226 22.2218 8.97656 22.5101 9.2848C22.7985 9.59304 23.173 9.74716 23.6337 9.74716C23.9121 9.74716 24.1889 9.67756 24.464 9.53835C24.7424 9.39915 24.9727 9.18868 25.155 8.90696C25.3406 8.62524 25.4318 8.26728 25.4284 7.8331ZM28.9173 11V3.36364H30.3441V4.60653H30.4386C30.5977 4.18561 30.8578 3.85748 31.2191 3.62216C31.5804 3.38352 32.0129 3.2642 32.5167 3.2642C33.0271 3.2642 33.4547 3.38352 33.7994 3.62216C34.1474 3.8608 34.4042 4.18892 34.57 4.60653H34.6495C34.8318 4.19886 35.1218 3.87405 35.5195 3.6321C35.9173 3.38684 36.3912 3.2642 36.9414 3.2642C37.6341 3.2642 38.1992 3.4813 38.6367 3.91548C39.0775 4.34967 39.2979 5.00426 39.2979 5.87926V11H37.8114V6.01847C37.8114 5.50142 37.6706 5.12689 37.3888 4.89489C37.1071 4.66288 36.7707 4.54688 36.3796 4.54688C35.8957 4.54688 35.5195 4.69602 35.2511 4.99432C34.9826 5.2893 34.8484 5.6688 34.8484 6.13281V11H33.3668V5.92401C33.3668 5.50971 33.2376 5.17661 32.979 4.92472C32.7205 4.67282 32.3841 4.54688 31.9698 4.54688C31.6881 4.54688 31.4279 4.62145 31.1893 4.7706C30.954 4.91643 30.7634 5.12026 30.6175 5.3821C30.475 5.64394 30.4038 5.94721 30.4038 6.2919V11H28.9173ZM44.5815 11.1541C43.8291 11.1541 43.1812 10.9934 42.6376 10.6719C42.0974 10.3471 41.6797 9.89134 41.3848 9.30469C41.0931 8.71473 40.9473 8.02367 40.9473 7.23153C40.9473 6.44934 41.0931 5.75994 41.3848 5.16335C41.6797 4.56676 42.0907 4.10109 42.6177 3.76633C43.148 3.43158 43.7678 3.2642 44.4771 3.2642C44.908 3.2642 45.3256 3.33546 45.7299 3.47798C46.1343 3.6205 46.4972 3.84422 46.8187 4.14915C47.1402 4.45407 47.3938 4.85014 47.5794 5.33736C47.765 5.82126 47.8578 6.40956 47.8578 7.10227V7.62926H41.7875V6.51562H46.4011C46.4011 6.12453 46.3216 5.77817 46.1625 5.47656C46.0034 5.17164 45.7797 4.93134 45.4913 4.75568C45.2063 4.58002 44.8715 4.49219 44.487 4.49219C44.0694 4.49219 43.7048 4.59493 43.3933 4.80043C43.085 5.0026 42.8464 5.26776 42.6774 5.59588C42.5117 5.92069 42.4288 6.27367 42.4288 6.65483V7.52486C42.4288 8.03527 42.5183 8.46946 42.6973 8.82741C42.8796 9.18537 43.1331 9.45881 43.4579 9.64773C43.7827 9.83333 44.1622 9.92614 44.5964 9.92614C44.8781 9.92614 45.135 9.88636 45.367 9.80682C45.599 9.72396 45.7995 9.60133 45.9686 9.43892C46.1376 9.27652 46.2669 9.07599 46.3564 8.83736L47.7633 9.09091C47.6506 9.50521 47.4484 9.86813 47.1568 10.1797C46.8684 10.4879 46.5055 10.7282 46.068 10.9006C45.6338 11.0696 45.1383 11.1541 44.5815 11.1541ZM54.0064 6.05327V7.34091H49.4922V6.05327H54.0064ZM55.9876 13.8636V3.36364H57.4393V4.60156H57.5636C57.6497 4.44247 57.774 4.25852 57.9364 4.04972C58.0988 3.84091 58.3242 3.65862 58.6126 3.50284C58.9009 3.34375 59.2821 3.2642 59.756 3.2642C60.3725 3.2642 60.9227 3.41998 61.4066 3.73153C61.8905 4.04309 62.27 4.49219 62.5451 5.07884C62.8235 5.66548 62.9627 6.37145 62.9627 7.19673C62.9627 8.02202 62.8252 8.72964 62.5501 9.3196C62.275 9.90625 61.8971 10.3587 61.4165 10.6768C60.936 10.9917 60.3874 11.1491 59.771 11.1491C59.3069 11.1491 58.9274 11.0713 58.6325 10.9155C58.3408 10.7597 58.1121 10.5774 57.9464 10.3686C57.7807 10.1598 57.6531 9.9742 57.5636 9.81179H57.4741V13.8636H55.9876ZM57.4442 7.18182C57.4442 7.71875 57.5221 8.18939 57.6779 8.59375C57.8337 8.99811 58.0591 9.31463 58.354 9.54332C58.649 9.7687 59.0103 9.88139 59.4379 9.88139C59.882 9.88139 60.2532 9.76373 60.5515 9.52841C60.8498 9.28977 61.0752 8.96662 61.2276 8.55895C61.3834 8.15128 61.4613 7.69223 61.4613 7.18182C61.4613 6.67803 61.3851 6.22562 61.2326 5.82457C61.0835 5.42353 60.8581 5.10701 60.5565 4.875C60.2582 4.64299 59.8853 4.52699 59.4379 4.52699C59.007 4.52699 58.6424 4.63802 58.3441 4.86009C58.0491 5.08215 57.8254 5.39205 57.6729 5.78977C57.5205 6.1875 57.4442 6.65151 57.4442 7.18182ZM66.1147 0.818182V11H64.6282V0.818182H66.1147ZM72.9519 7.8331V3.36364H74.4434V11H72.9817V9.67756H72.9022C72.7265 10.0852 72.4448 10.425 72.057 10.6967C71.6725 10.9652 71.1936 11.0994 70.6202 11.0994C70.1297 11.0994 69.6955 10.9917 69.3176 10.7763C68.9431 10.5575 68.6481 10.2344 68.4327 9.80682C68.2206 9.37926 68.1145 8.85062 68.1145 8.22088V3.36364H69.601V8.0419C69.601 8.56226 69.7452 8.97656 70.0336 9.2848C70.3219 9.59304 70.6964 9.74716 71.1571 9.74716C71.4355 9.74716 71.7123 9.67756 71.9874 9.53835C72.2658 9.39915 72.4962 9.18868 72.6784 8.90696C72.8641 8.62524 72.9552 8.26728 72.9519 7.8331ZM82.163 5.22798L80.8157 5.46662C80.7594 5.29427 80.6699 5.13021 80.5472 4.97443C80.4279 4.81865 80.2655 4.69105 80.06 4.59162C79.8545 4.49219 79.5977 4.44247 79.2894 4.44247C78.8685 4.44247 78.5172 4.53693 78.2354 4.72585C77.9537 4.91146 77.8129 5.15175 77.8129 5.44673C77.8129 5.70194 77.9073 5.90743 78.0962 6.06321C78.2852 6.21899 78.5901 6.34659 79.011 6.44602L80.2241 6.72443C80.9267 6.88684 81.4504 7.13707 81.7951 7.47514C82.1398 7.81321 82.3121 8.25237 82.3121 8.79261C82.3121 9.25 82.1796 9.65767 81.9144 10.0156C81.6526 10.3703 81.2863 10.6487 80.8157 10.8509C80.3484 11.053 79.8065 11.1541 79.19 11.1541C78.3349 11.1541 77.6372 10.9718 77.0969 10.6072C76.5567 10.2393 76.2253 9.71733 76.1026 9.04119L77.5394 8.82244C77.6289 9.19697 77.8129 9.48035 78.0913 9.67259C78.3697 9.86151 78.7326 9.95597 79.18 9.95597C79.6673 9.95597 80.0567 9.85488 80.3484 9.6527C80.64 9.44721 80.7859 9.19697 80.7859 8.90199C80.7859 8.66335 80.6964 8.46283 80.5174 8.30043C80.3417 8.13802 80.0716 8.01539 79.707 7.93253L78.4144 7.64915C77.7018 7.48674 77.1748 7.22822 76.8335 6.87358C76.4954 6.51894 76.3263 6.06984 76.3263 5.52628C76.3263 5.07552 76.4523 4.68111 76.7042 4.34304C76.9561 4.00497 77.3041 3.74148 77.7482 3.55256C78.1924 3.36032 78.7011 3.2642 79.2745 3.2642C80.0998 3.2642 80.7494 3.44318 81.2234 3.80114C81.6973 4.15578 82.0105 4.63139 82.163 5.22798Z" fill="black"/>
</svg>
