<svg viewBox="0 0 64 14" fill="none" stroke-width="2" stroke="currentColor" aria-hidden="true">
  <path d="M-0.000710189 13.8636V3.36364H1.45099V4.60156H1.57528C1.66146 4.44247 1.78575 4.25852 1.94815 4.04972C2.11056 3.84091 2.33594 3.65862 2.62429 3.50284C2.91264 3.34375 3.2938 3.2642 3.76776 3.2642C4.38423 3.2642 4.93442 3.41998 5.41832 3.73153C5.90223 4.04309 6.28172 4.49219 6.55682 5.07884C6.83523 5.66548 6.97443 6.37145 6.97443 7.19673C6.97443 8.02202 6.83688 8.72964 6.56179 9.3196C6.2867 9.90625 5.90885 10.3587 5.42827 10.6768C4.94768 10.9917 4.39915 11.1491 3.78267 11.1491C3.31866 11.1491 2.93916 11.0713 2.64418 10.9155C2.35251 10.7597 2.12382 10.5774 1.9581 10.3686C1.79238 10.1598 1.66477 9.9742 1.57528 9.81179H1.4858V13.8636H-0.000710189ZM1.45597 7.18182C1.45597 7.71875 1.53385 8.18939 1.68963 8.59375C1.84541 8.99811 2.07079 9.31463 2.36577 9.54332C2.66075 9.7687 3.02202 9.88139 3.44957 9.88139C3.8937 9.88139 4.26491 9.76373 4.56321 9.52841C4.86151 9.28977 5.08688 8.96662 5.23935 8.55895C5.39512 8.15128 5.47301 7.69223 5.47301 7.18182C5.47301 6.67803 5.39678 6.22562 5.24432 5.82457C5.09517 5.42353 4.86979 5.10701 4.56818 4.875C4.26989 4.64299 3.89702 4.52699 3.44957 4.52699C3.0187 4.52699 2.65412 4.63802 2.35582 4.86009C2.06084 5.08215 1.83712 5.39205 1.68466 5.78977C1.5322 6.1875 1.45597 6.65151 1.45597 7.18182ZM11.8565 11.1541C11.1406 11.1541 10.5159 10.9901 9.98224 10.6619C9.44863 10.3338 9.03433 9.87476 8.73935 9.2848C8.44437 8.69484 8.29688 8.00544 8.29688 7.21662C8.29688 6.42448 8.44437 5.73177 8.73935 5.13849C9.03433 4.54522 9.44863 4.08452 9.98224 3.75639C10.5159 3.42827 11.1406 3.2642 11.8565 3.2642C12.5724 3.2642 13.1972 3.42827 13.7308 3.75639C14.2644 4.08452 14.6787 4.54522 14.9737 5.13849C15.2687 5.73177 15.4162 6.42448 15.4162 7.21662C15.4162 8.00544 15.2687 8.69484 14.9737 9.2848C14.6787 9.87476 14.2644 10.3338 13.7308 10.6619C13.1972 10.9901 12.5724 11.1541 11.8565 11.1541ZM11.8615 9.90625C12.3255 9.90625 12.71 9.78362 13.0149 9.53835C13.3198 9.29309 13.5452 8.96662 13.6911 8.55895C13.8402 8.15128 13.9148 7.70218 13.9148 7.21165C13.9148 6.72443 13.8402 6.27699 13.6911 5.86932C13.5452 5.45833 13.3198 5.12855 13.0149 4.87997C12.71 4.63139 12.3255 4.5071 11.8615 4.5071C11.3942 4.5071 11.0064 4.63139 10.6982 4.87997C10.3932 5.12855 10.1662 5.45833 10.017 5.86932C9.87121 6.27699 9.7983 6.72443 9.7983 7.21165C9.7983 7.70218 9.87121 8.15128 10.017 8.55895C10.1662 8.96662 10.3932 9.29309 10.6982 9.53835C11.0064 9.78362 11.3942 9.90625 11.8615 9.90625ZM18.4986 11L16.2514 3.36364H17.7876L19.2841 8.97159H19.3587L20.8601 3.36364H22.3963L23.8878 8.94673H23.9624L25.4489 3.36364H26.9851L24.7429 11H23.2266L21.6754 5.48651H21.5611L20.0099 11H18.4986ZM31.4545 11.1541C30.7022 11.1541 30.0542 10.9934 29.5107 10.6719C28.9704 10.3471 28.5528 9.89134 28.2578 9.30469C27.9661 8.71473 27.8203 8.02367 27.8203 7.23153C27.8203 6.44934 27.9661 5.75994 28.2578 5.16335C28.5528 4.56676 28.9638 4.10109 29.4908 3.76633C30.0211 3.43158 30.6409 3.2642 31.3501 3.2642C31.781 3.2642 32.1986 3.33546 32.603 3.47798C33.0073 3.6205 33.3703 3.84422 33.6918 4.14915C34.0133 4.45407 34.2668 4.85014 34.4524 5.33736C34.638 5.82126 34.7308 6.40956 34.7308 7.10227V7.62926H28.6605V6.51562H33.2741C33.2741 6.12453 33.1946 5.77817 33.0355 5.47656C32.8764 5.17164 32.6527 4.93134 32.3643 4.75568C32.0793 4.58002 31.7446 4.49219 31.3601 4.49219C30.9425 4.49219 30.5779 4.59493 30.2663 4.80043C29.9581 5.0026 29.7195 5.26776 29.5504 5.59588C29.3847 5.92069 29.3018 6.27367 29.3018 6.65483V7.52486C29.3018 8.03527 29.3913 8.46946 29.5703 8.82741C29.7526 9.18537 30.0062 9.45881 30.331 9.64773C30.6558 9.83333 31.0353 9.92614 31.4695 9.92614C31.7512 9.92614 32.008 9.88636 32.2401 9.80682C32.4721 9.72396 32.6726 9.60133 32.8416 9.43892C33.0107 9.27652 33.1399 9.07599 33.2294 8.83736L34.6364 9.09091C34.5237 9.50521 34.3215 9.86813 34.0298 10.1797C33.7415 10.4879 33.3786 10.7282 32.9411 10.9006C32.5069 11.0696 32.0114 11.1541 31.4545 11.1541ZM36.3801 11V3.36364H37.8169V4.5767H37.8965C38.0357 4.16572 38.281 3.84257 38.6323 3.60724C38.9869 3.36861 39.388 3.24929 39.8354 3.24929C39.9282 3.24929 40.0376 3.2526 40.1635 3.25923C40.2928 3.26586 40.3939 3.27415 40.4668 3.28409V4.70597C40.4071 4.68939 40.3011 4.67116 40.1486 4.65128C39.9962 4.62808 39.8437 4.61648 39.6912 4.61648C39.3399 4.61648 39.0267 4.69105 38.7516 4.8402C38.4798 4.98603 38.2644 5.18987 38.1053 5.4517C37.9462 5.71023 37.8667 6.00521 37.8667 6.33665V11H36.3801ZM45.8013 6.05327V7.34091H41.2871V6.05327H45.8013ZM51.3074 11.169C50.5218 11.1657 49.8507 10.9586 49.2939 10.5476C48.737 10.1366 48.3111 9.53835 48.0162 8.75284C47.7212 7.96733 47.5737 7.02107 47.5737 5.91406C47.5737 4.81037 47.7212 3.86742 48.0162 3.08523C48.3145 2.30303 48.742 1.70644 49.2988 1.29545C49.859 0.884469 50.5285 0.678977 51.3074 0.678977C52.0862 0.678977 52.7541 0.886126 53.3109 1.30043C53.8677 1.71141 54.2936 2.308 54.5886 3.0902C54.8869 3.86908 55.036 4.81037 55.036 5.91406C55.036 7.02438 54.8886 7.9723 54.5936 8.75781C54.2986 9.54001 53.8727 10.1383 53.3159 10.5526C52.7591 10.9635 52.0895 11.169 51.3074 11.169ZM51.3074 9.84162C51.9967 9.84162 52.5353 9.50521 52.9231 8.83239C53.3142 8.15956 53.5098 7.18679 53.5098 5.91406C53.5098 5.06889 53.4203 4.35464 53.2413 3.77131C53.0656 3.18466 52.8121 2.74053 52.4806 2.43892C52.1525 2.134 51.7614 1.98153 51.3074 1.98153C50.6213 1.98153 50.0827 2.3196 49.6916 2.99574C49.3005 3.67187 49.1033 4.64465 49.1 5.91406C49.1 6.76255 49.1878 7.48011 49.3635 8.06676C49.5424 8.65009 49.796 9.09257 50.1241 9.39418C50.4522 9.69247 50.8467 9.84162 51.3074 9.84162ZM56.7997 11V9.88636L60.245 6.31676C60.6129 5.92898 60.9162 5.58925 61.1548 5.29759C61.3968 5.0026 61.5774 4.72254 61.6967 4.45739C61.8161 4.19223 61.8757 3.91051 61.8757 3.61222C61.8757 3.27415 61.7962 2.98248 61.6371 2.73722C61.478 2.48864 61.2609 2.29806 60.9858 2.16548C60.7107 2.02959 60.4008 1.96165 60.0561 1.96165C59.6915 1.96165 59.3733 2.03622 59.1016 2.18537C58.8298 2.33452 58.621 2.54498 58.4751 2.81676C58.3293 3.08854 58.2564 3.40672 58.2564 3.77131H56.7898C56.7898 3.15151 56.9323 2.60961 57.2173 2.1456C57.5024 1.68158 57.8935 1.32197 58.3906 1.06676C58.8878 0.808238 59.4529 0.678977 60.0859 0.678977C60.7256 0.678977 61.2891 0.806581 61.7763 1.06179C62.2668 1.31368 62.6496 1.65838 62.9247 2.09588C63.1998 2.53007 63.3374 3.0206 63.3374 3.56747C63.3374 3.94531 63.2661 4.31487 63.1236 4.67614C62.9844 5.0374 62.7408 5.4401 62.3928 5.88423C62.0447 6.32505 61.5608 6.86032 60.9411 7.49006L58.9176 9.60795V9.68253H63.5014V11H56.7997Z" fill="black"/>
</svg>
