<svg viewBox="0 0 80 12" fill="none" stroke-width="2" stroke="currentColor" aria-hidden="true">
  <path d="M2.65483 11L0.40767 3.36364H1.94389L3.44034 8.97159H3.51491L5.01634 3.36364H6.55256L8.04403 8.94673H8.11861L9.60511 3.36364H11.1413L8.89915 11H7.38281L5.83168 5.48651H5.71733L4.16619 11H2.65483ZM15.6108 11.1541C14.8584 11.1541 14.2105 10.9934 13.6669 10.6719C13.1267 10.3471 12.709 9.89134 12.4141 9.30469C12.1224 8.71473 11.9766 8.02367 11.9766 7.23153C11.9766 6.44934 12.1224 5.75994 12.4141 5.16335C12.709 4.56676 13.12 4.10109 13.647 3.76633C14.1773 3.43158 14.7971 3.2642 15.5064 3.2642C15.9373 3.2642 16.3549 3.33546 16.7592 3.47798C17.1636 3.6205 17.5265 3.84422 17.848 4.14915C18.1695 4.45407 18.4231 4.85014 18.6087 5.33736C18.7943 5.82126 18.8871 6.40956 18.8871 7.10227V7.62926H12.8168V6.51562H17.4304C17.4304 6.12453 17.3509 5.77817 17.1918 5.47656C17.0327 5.17164 16.8089 4.93134 16.5206 4.75568C16.2356 4.58002 15.9008 4.49219 15.5163 4.49219C15.0987 4.49219 14.7341 4.59493 14.4226 4.80043C14.1143 5.0026 13.8757 5.26776 13.7067 5.59588C13.541 5.92069 13.4581 6.27367 13.4581 6.65483V7.52486C13.4581 8.03527 13.5476 8.46946 13.7266 8.82741C13.9089 9.18537 14.1624 9.45881 14.4872 9.64773C14.812 9.83333 15.1915 9.92614 15.6257 9.92614C15.9074 9.92614 16.1643 9.88636 16.3963 9.80682C16.6283 9.72396 16.8288 9.60133 16.9979 9.43892C17.1669 9.27652 17.2962 9.07599 17.3857 8.83736L18.7926 9.09091C18.6799 9.50521 18.4777 9.86813 18.1861 10.1797C17.8977 10.4879 17.5348 10.7282 17.0973 10.9006C16.6631 11.0696 16.1676 11.1541 15.6108 11.1541ZM20.6557 11V0.818182H22.1422V4.60156H22.2317C22.3179 4.44247 22.4422 4.25852 22.6046 4.04972C22.767 3.84091 22.9924 3.65862 23.2807 3.50284C23.5691 3.34375 23.9502 3.2642 24.4242 3.2642C25.0407 3.2642 25.5908 3.41998 26.0748 3.73153C26.5587 4.04309 26.9382 4.49219 27.2132 5.07884C27.4917 5.66548 27.6309 6.37145 27.6309 7.19673C27.6309 8.02202 27.4933 8.72964 27.2182 9.3196C26.9431 9.90625 26.5653 10.3587 26.0847 10.6768C25.6041 10.9917 25.0556 11.1491 24.4391 11.1491C23.9751 11.1491 23.5956 11.0713 23.3006 10.9155C23.0089 10.7597 22.7802 10.5774 22.6145 10.3686C22.4488 10.1598 22.3212 9.9742 22.2317 9.81179H22.1074V11H20.6557ZM22.1124 7.18182C22.1124 7.71875 22.1903 8.18939 22.3461 8.59375C22.5018 8.99811 22.7272 9.31463 23.0222 9.54332C23.3172 9.7687 23.6784 9.88139 24.106 9.88139C24.5501 9.88139 24.9213 9.76373 25.2196 9.52841C25.5179 9.28977 25.7433 8.96662 25.8958 8.55895C26.0516 8.15128 26.1294 7.69223 26.1294 7.18182C26.1294 6.67803 26.0532 6.22562 25.9007 5.82457C25.7516 5.42353 25.5262 5.10701 25.2246 4.875C24.9263 4.64299 24.5534 4.52699 24.106 4.52699C23.6751 4.52699 23.3105 4.63802 23.0123 4.86009C22.7173 5.08215 22.4935 5.39205 22.3411 5.78977C22.1886 6.1875 22.1124 6.65151 22.1124 7.18182ZM32.5167 11.1541C31.7776 11.1541 31.1412 10.9867 30.6076 10.652C30.0773 10.3139 29.6696 9.84825 29.3846 9.25497C29.0996 8.66169 28.957 7.98224 28.957 7.21662C28.957 6.44105 29.1029 5.75663 29.3945 5.16335C29.6862 4.56676 30.0972 4.10109 30.6275 3.76633C31.1578 3.43158 31.7826 3.2642 32.5018 3.2642C33.0818 3.2642 33.5988 3.37192 34.0529 3.58736C34.507 3.79948 34.8732 4.09777 35.1516 4.48224C35.4334 4.86671 35.6007 5.31581 35.6538 5.82955H34.207C34.1275 5.47159 33.9452 5.16335 33.6602 4.90483C33.3784 4.64631 33.0006 4.51705 32.5266 4.51705C32.1123 4.51705 31.7494 4.62642 31.4379 4.84517C31.1296 5.06061 30.8893 5.36884 30.717 5.76989C30.5446 6.16761 30.4585 6.63826 30.4585 7.18182C30.4585 7.73864 30.543 8.21922 30.712 8.62358C30.881 9.02794 31.1197 9.34115 31.4279 9.56321C31.7395 9.78527 32.1057 9.89631 32.5266 9.89631C32.8084 9.89631 33.0636 9.84493 33.2923 9.74219C33.5243 9.63613 33.7182 9.48532 33.8739 9.28977C34.033 9.09422 34.1441 8.8589 34.207 8.58381H35.6538C35.6007 9.07765 35.44 9.51847 35.1715 9.90625C34.9031 10.294 34.5434 10.599 34.0927 10.821C33.6452 11.0431 33.1199 11.1541 32.5167 11.1541ZM39.4657 11.169C38.9818 11.169 38.5443 11.0795 38.1532 10.9006C37.7621 10.7183 37.4522 10.4548 37.2235 10.1101C36.9982 9.76539 36.8855 9.3428 36.8855 8.84233C36.8855 8.41146 36.9683 8.05682 37.1341 7.77841C37.2998 7.5 37.5235 7.27959 37.8052 7.11719C38.0869 6.95478 38.4018 6.83215 38.7498 6.74929C39.0978 6.66643 39.4525 6.60346 39.8137 6.56037C40.2711 6.50734 40.6423 6.46425 40.9274 6.43111C41.2124 6.39465 41.4196 6.33665 41.5488 6.2571C41.6781 6.17756 41.7427 6.0483 41.7427 5.86932V5.83452C41.7427 5.40033 41.6201 5.06392 41.3748 4.82528C41.1329 4.58665 40.7716 4.46733 40.291 4.46733C39.7905 4.46733 39.3961 4.57836 39.1078 4.80043C38.8227 5.01918 38.6255 5.26278 38.5162 5.53125L37.1191 5.21307C37.2849 4.74905 37.5268 4.37453 37.845 4.08949C38.1665 3.80114 38.536 3.59233 38.9537 3.46307C39.3713 3.33049 39.8104 3.2642 40.2711 3.2642C40.5761 3.2642 40.8992 3.30066 41.2406 3.37358C41.5853 3.44318 41.9068 3.57244 42.2051 3.76136C42.5067 3.95028 42.7536 4.22041 42.9458 4.57173C43.1381 4.91974 43.2342 5.37216 43.2342 5.92898V11H41.7825V9.95597H41.7228C41.6267 10.1482 41.4825 10.3371 41.2903 10.5227C41.0981 10.7083 40.8511 10.8625 40.5495 10.9851C40.2479 11.1077 39.8867 11.169 39.4657 11.169ZM39.7889 9.97585C40.1999 9.97585 40.5512 9.89465 40.8429 9.73224C41.1378 9.56984 41.3616 9.35772 41.514 9.09588C41.6698 8.83073 41.7477 8.54735 41.7477 8.24574V7.26136C41.6947 7.31439 41.5919 7.36411 41.4395 7.41051C41.2903 7.4536 41.1196 7.49171 40.9274 7.52486C40.7351 7.55469 40.5479 7.58286 40.3656 7.60938C40.1833 7.63258 40.0308 7.65246 39.9082 7.66903C39.6199 7.70549 39.3564 7.76681 39.1177 7.85298C38.8824 7.93916 38.6935 8.06345 38.551 8.22585C38.4118 8.38494 38.3422 8.59706 38.3422 8.86222C38.3422 9.23011 38.478 9.50852 38.7498 9.69744C39.0216 9.88305 39.368 9.97585 39.7889 9.97585ZM45.2141 11V3.36364H46.641V4.60653H46.7354C46.8945 4.18561 47.1547 3.85748 47.516 3.62216C47.8772 3.38352 48.3098 3.2642 48.8136 3.2642C49.324 3.2642 49.7515 3.38352 50.0962 3.62216C50.4442 3.8608 50.7011 4.18892 50.8668 4.60653H50.9464C51.1287 4.19886 51.4187 3.87405 51.8164 3.6321C52.2141 3.38684 52.6881 3.2642 53.2383 3.2642C53.931 3.2642 54.4961 3.4813 54.9336 3.91548C55.3744 4.34967 55.5948 5.00426 55.5948 5.87926V11H54.1083V6.01847C54.1083 5.50142 53.9674 5.12689 53.6857 4.89489C53.404 4.66288 53.0676 4.54688 52.6765 4.54688C52.1926 4.54688 51.8164 4.69602 51.5479 4.99432C51.2795 5.2893 51.1452 5.6688 51.1452 6.13281V11H49.6637V5.92401C49.6637 5.50971 49.5344 5.17661 49.2759 4.92472C49.0174 4.67282 48.681 4.54688 48.2667 4.54688C47.985 4.54688 47.7248 4.62145 47.4862 4.7706C47.2508 4.91643 47.0603 5.12026 46.9144 5.3821C46.7719 5.64394 46.7006 5.94721 46.7006 6.2919V11H45.2141ZM62.0865 6.05327V7.34091H57.5723V6.05327H62.0865ZM67.5925 11.169C66.807 11.1657 66.1358 10.9586 65.579 10.5476C65.0222 10.1366 64.5963 9.53835 64.3013 8.75284C64.0063 7.96733 63.8588 7.02107 63.8588 5.91406C63.8588 4.81037 64.0063 3.86742 64.3013 3.08523C64.5996 2.30303 65.0272 1.70644 65.584 1.29545C66.1441 0.884469 66.8136 0.678977 67.5925 0.678977C68.3714 0.678977 69.0392 0.886126 69.5961 1.30043C70.1529 1.71141 70.5788 2.308 70.8738 3.0902C71.1721 3.86908 71.3212 4.81037 71.3212 5.91406C71.3212 7.02438 71.1737 7.9723 70.8787 8.75781C70.5837 9.54001 70.1578 10.1383 69.601 10.5526C69.0442 10.9635 68.3747 11.169 67.5925 11.169ZM67.5925 9.84162C68.2819 9.84162 68.8205 9.50521 69.2083 8.83239C69.5994 8.15956 69.7949 7.18679 69.7949 5.91406C69.7949 5.06889 69.7054 4.35464 69.5265 3.77131C69.3508 3.18466 69.0972 2.74053 68.7658 2.43892C68.4377 2.134 68.0466 1.98153 67.5925 1.98153C66.9064 1.98153 66.3678 2.3196 65.9767 2.99574C65.5856 3.67187 65.3884 4.64465 65.3851 5.91406C65.3851 6.76255 65.473 7.48011 65.6486 8.06676C65.8276 8.65009 66.0811 9.09257 66.4093 9.39418C66.7374 9.69247 67.1318 9.84162 67.5925 9.84162ZM73.0849 11V9.88636L76.5302 6.31676C76.8981 5.92898 77.2013 5.58925 77.44 5.29759C77.6819 5.0026 77.8626 4.72254 77.9819 4.45739C78.1012 4.19223 78.1609 3.91051 78.1609 3.61222C78.1609 3.27415 78.0813 2.98248 77.9222 2.73722C77.7631 2.48864 77.546 2.29806 77.271 2.16548C76.9959 2.02959 76.686 1.96165 76.3413 1.96165C75.9767 1.96165 75.6585 2.03622 75.3867 2.18537C75.1149 2.33452 74.9061 2.54498 74.7603 2.81676C74.6145 3.08854 74.5415 3.40672 74.5415 3.77131H73.0749C73.0749 3.15151 73.2174 2.60961 73.5025 2.1456C73.7875 1.68158 74.1786 1.32197 74.6758 1.06676C75.1729 0.808238 75.738 0.678977 76.3711 0.678977C77.0108 0.678977 77.5742 0.806581 78.0614 1.06179C78.552 1.31368 78.9348 1.65838 79.2099 2.09588C79.485 2.53007 79.6225 3.0206 79.6225 3.56747C79.6225 3.94531 79.5513 4.31487 79.4087 4.67614C79.2695 5.0374 79.0259 5.4401 78.6779 5.88423C78.3299 6.32505 77.846 6.86032 77.2262 7.49006L75.2028 9.60795V9.68253H79.7866V11H73.0849Z" fill="black"/>
</svg>
