<svg viewBox="0 0 68 12" fill="none" stroke-width="2" stroke="currentColor" aria-hidden="true">
  <path d="M6.72159 5.22798L5.37429 5.46662C5.31795 5.29427 5.22846 5.13021 5.10582 4.97443C4.98651 4.81865 4.8241 4.69105 4.61861 4.59162C4.41312 4.49219 4.15625 4.44247 3.84801 4.44247C3.42708 4.44247 3.07576 4.53693 2.79403 4.72585C2.51231 4.91146 2.37145 5.15175 2.37145 5.44673C2.37145 5.70194 2.46591 5.90743 2.65483 6.06321C2.84375 6.21899 3.14867 6.34659 3.5696 6.44602L4.78267 6.72443C5.48532 6.88684 6.009 7.13707 6.35369 7.47514C6.69839 7.81321 6.87074 8.25237 6.87074 8.79261C6.87074 9.25 6.73816 9.65767 6.47301 10.0156C6.21117 10.3703 5.84493 10.6487 5.37429 10.8509C4.90696 11.053 4.36506 11.1541 3.74858 11.1541C2.89347 11.1541 2.19579 10.9718 1.65554 10.6072C1.11529 10.2393 0.783854 9.71733 0.661222 9.04119L2.09801 8.82244C2.1875 9.19697 2.37145 9.48035 2.64986 9.67259C2.92827 9.86151 3.29119 9.95597 3.73864 9.95597C4.22585 9.95597 4.61529 9.85488 4.90696 9.6527C5.19863 9.44721 5.34446 9.19697 5.34446 8.90199C5.34446 8.66335 5.25497 8.46283 5.07599 8.30043C4.90033 8.13802 4.63021 8.01539 4.26562 7.93253L2.97301 7.64915C2.26042 7.48674 1.73343 7.22822 1.39205 6.87358C1.05398 6.51894 0.884943 6.06984 0.884943 5.52628C0.884943 5.07552 1.01089 4.68111 1.26278 4.34304C1.51468 4.00497 1.86269 3.74148 2.30682 3.55256C2.75095 3.36032 3.25971 3.2642 3.8331 3.2642C4.65838 3.2642 5.308 3.44318 5.78196 3.80114C6.25592 4.15578 6.56913 4.63139 6.72159 5.22798ZM9.99165 0.818182V11H8.50515V0.818182H9.99165ZM11.9915 11V3.36364H13.478V11H11.9915ZM12.7422 2.18537C12.4837 2.18537 12.2616 2.09919 12.076 1.92685C11.8937 1.75118 11.8026 1.54238 11.8026 1.30043C11.8026 1.05516 11.8937 0.846354 12.076 0.674005C12.2616 0.498342 12.4837 0.410511 12.7422 0.410511C13.0007 0.410511 13.2211 0.498342 13.4034 0.674005C13.589 0.846354 13.6818 1.05516 13.6818 1.30043C13.6818 1.54238 13.589 1.75118 13.4034 1.92685C13.2211 2.09919 13.0007 2.18537 12.7422 2.18537ZM18.3365 11.1491C17.72 11.1491 17.1698 10.9917 16.6859 10.6768C16.2053 10.3587 15.8275 9.90625 15.5524 9.3196C15.2806 8.72964 15.1447 8.02202 15.1447 7.19673C15.1447 6.37145 15.2823 5.66548 15.5574 5.07884C15.8358 4.49219 16.2169 4.04309 16.7008 3.73153C17.1847 3.41998 17.7333 3.2642 18.3464 3.2642C18.8204 3.2642 19.2015 3.34375 19.4899 3.50284C19.7815 3.65862 20.0069 3.84091 20.166 4.04972C20.3284 4.25852 20.4544 4.44247 20.5439 4.60156H20.6333V0.818182H22.1199V11H20.6681V9.81179H20.5439C20.4544 9.9742 20.3251 10.1598 20.1561 10.3686C19.9904 10.5774 19.7617 10.7597 19.47 10.9155C19.1783 11.0713 18.8005 11.1491 18.3365 11.1491ZM18.6646 9.88139C19.0922 9.88139 19.4534 9.7687 19.7484 9.54332C20.0467 9.31463 20.2721 8.99811 20.4245 8.59375C20.5803 8.18939 20.6582 7.71875 20.6582 7.18182C20.6582 6.65151 20.582 6.1875 20.4295 5.78977C20.277 5.39205 20.0533 5.08215 19.7583 4.86009C19.4634 4.63802 19.0988 4.52699 18.6646 4.52699C18.2172 4.52699 17.8443 4.64299 17.546 4.875C17.2477 5.10701 17.0223 5.42353 16.8699 5.82457C16.7207 6.22562 16.6461 6.67803 16.6461 7.18182C16.6461 7.69223 16.7224 8.15128 16.8748 8.55895C17.0273 8.96662 17.2527 9.28977 17.551 9.52841C17.8526 9.76373 18.2238 9.88139 18.6646 9.88139ZM27.5327 11.1541C26.7803 11.1541 26.1323 10.9934 25.5888 10.6719C25.0485 10.3471 24.6309 9.89134 24.3359 9.30469C24.0443 8.71473 23.8984 8.02367 23.8984 7.23153C23.8984 6.44934 24.0443 5.75994 24.3359 5.16335C24.6309 4.56676 25.0419 4.10109 25.5689 3.76633C26.0992 3.43158 26.719 3.2642 27.4283 3.2642C27.8591 3.2642 28.2768 3.33546 28.6811 3.47798C29.0855 3.6205 29.4484 3.84422 29.7699 4.14915C30.0914 4.45407 30.3449 4.85014 30.5305 5.33736C30.7161 5.82126 30.8089 6.40956 30.8089 7.10227V7.62926H24.7386V6.51562H29.3523C29.3523 6.12453 29.2727 5.77817 29.1136 5.47656C28.9545 5.17164 28.7308 4.93134 28.4425 4.75568C28.1574 4.58002 27.8227 4.49219 27.4382 4.49219C27.0206 4.49219 26.656 4.59493 26.3445 4.80043C26.0362 5.0026 25.7976 5.26776 25.6286 5.59588C25.4628 5.92069 25.38 6.27367 25.38 6.65483V7.52486C25.38 8.03527 25.4695 8.46946 25.6484 8.82741C25.8307 9.18537 26.0843 9.45881 26.4091 9.64773C26.7339 9.83333 27.1134 9.92614 27.5476 9.92614C27.8293 9.92614 28.0862 9.88636 28.3182 9.80682C28.5502 9.72396 28.7507 9.60133 28.9197 9.43892C29.0888 9.27652 29.218 9.07599 29.3075 8.83736L30.7145 9.09091C30.6018 9.50521 30.3996 9.86813 30.108 10.1797C29.8196 10.4879 29.4567 10.7282 29.0192 10.9006C28.585 11.0696 28.0895 11.1541 27.5327 11.1541ZM32.4583 11V3.36364H33.8951V4.5767H33.9746C34.1138 4.16572 34.3591 3.84257 34.7104 3.60724C35.065 3.36861 35.4661 3.24929 35.9135 3.24929C36.0063 3.24929 36.1157 3.2526 36.2417 3.25923C36.3709 3.26586 36.472 3.27415 36.5449 3.28409V4.70597C36.4853 4.68939 36.3792 4.67116 36.2267 4.65128C36.0743 4.62808 35.9218 4.61648 35.7694 4.61648C35.418 4.61648 35.1048 4.69105 34.8297 4.8402C34.5579 4.98603 34.3425 5.18987 34.1834 5.4517C34.0243 5.71023 33.9448 6.00521 33.9448 6.33665V11H32.4583ZM43.5536 5.22798L42.2063 5.46662C42.15 5.29427 42.0605 5.13021 41.9379 4.97443C41.8185 4.81865 41.6561 4.69105 41.4506 4.59162C41.2451 4.49219 40.9883 4.44247 40.68 4.44247C40.2591 4.44247 39.9078 4.53693 39.6261 4.72585C39.3443 4.91146 39.2035 5.15175 39.2035 5.44673C39.2035 5.70194 39.2979 5.90743 39.4869 6.06321C39.6758 6.21899 39.9807 6.34659 40.4016 6.44602L41.6147 6.72443C42.3174 6.88684 42.841 7.13707 43.1857 7.47514C43.5304 7.81321 43.7028 8.25237 43.7028 8.79261C43.7028 9.25 43.5702 9.65767 43.305 10.0156C43.0432 10.3703 42.677 10.6487 42.2063 10.8509C41.739 11.053 41.1971 11.1541 40.5806 11.1541C39.7255 11.1541 39.0278 10.9718 38.4876 10.6072C37.9473 10.2393 37.6159 9.71733 37.4933 9.04119L38.93 8.82244C39.0195 9.19697 39.2035 9.48035 39.4819 9.67259C39.7603 9.86151 40.1232 9.95597 40.5707 9.95597C41.0579 9.95597 41.4473 9.85488 41.739 9.6527C42.0307 9.44721 42.1765 9.19697 42.1765 8.90199C42.1765 8.66335 42.087 8.46283 41.908 8.30043C41.7324 8.13802 41.4622 8.01539 41.0977 7.93253L39.805 7.64915C39.0924 7.48674 38.5655 7.22822 38.2241 6.87358C37.886 6.51894 37.717 6.06984 37.717 5.52628C37.717 5.07552 37.8429 4.68111 38.0948 4.34304C38.3467 4.00497 38.6947 3.74148 39.1388 3.55256C39.583 3.36032 40.0917 3.2642 40.6651 3.2642C41.4904 3.2642 42.14 3.44318 42.614 3.80114C43.088 4.15578 43.4012 4.63139 43.5536 5.22798ZM49.8365 6.05327V7.34091H45.3223V6.05327H49.8365ZM55.3425 11.169C54.557 11.1657 53.8858 10.9586 53.329 10.5476C52.7722 10.1366 52.3463 9.53835 52.0513 8.75284C51.7563 7.96733 51.6088 7.02107 51.6088 5.91406C51.6088 4.81037 51.7563 3.86742 52.0513 3.08523C52.3496 2.30303 52.7772 1.70644 53.334 1.29545C53.8941 0.884469 54.5636 0.678977 55.3425 0.678977C56.1214 0.678977 56.7892 0.886126 57.3461 1.30043C57.9029 1.71141 58.3288 2.308 58.6238 3.0902C58.9221 3.86908 59.0712 4.81037 59.0712 5.91406C59.0712 7.02438 58.9237 7.9723 58.6287 8.75781C58.3337 9.54001 57.9078 10.1383 57.351 10.5526C56.7942 10.9635 56.1247 11.169 55.3425 11.169ZM55.3425 9.84162C56.0319 9.84162 56.5705 9.50521 56.9583 8.83239C57.3494 8.15956 57.5449 7.18679 57.5449 5.91406C57.5449 5.06889 57.4554 4.35464 57.2765 3.77131C57.1008 3.18466 56.8472 2.74053 56.5158 2.43892C56.1877 2.134 55.7966 1.98153 55.3425 1.98153C54.6564 1.98153 54.1178 2.3196 53.7267 2.99574C53.3356 3.67187 53.1384 4.64465 53.1351 5.91406C53.1351 6.76255 53.223 7.48011 53.3986 8.06676C53.5776 8.65009 53.8311 9.09257 54.1593 9.39418C54.4874 9.69247 54.8818 9.84162 55.3425 9.84162ZM60.8349 11V9.88636L64.2802 6.31676C64.6481 5.92898 64.9513 5.58925 65.19 5.29759C65.4319 5.0026 65.6126 4.72254 65.7319 4.45739C65.8512 4.19223 65.9109 3.91051 65.9109 3.61222C65.9109 3.27415 65.8313 2.98248 65.6722 2.73722C65.5131 2.48864 65.296 2.29806 65.021 2.16548C64.7459 2.02959 64.436 1.96165 64.0913 1.96165C63.7267 1.96165 63.4085 2.03622 63.1367 2.18537C62.8649 2.33452 62.6561 2.54498 62.5103 2.81676C62.3645 3.08854 62.2915 3.40672 62.2915 3.77131H60.8249C60.8249 3.15151 60.9674 2.60961 61.2525 2.1456C61.5375 1.68158 61.9286 1.32197 62.4258 1.06676C62.9229 0.808238 63.488 0.678977 64.1211 0.678977C64.7608 0.678977 65.3242 0.806581 65.8114 1.06179C66.302 1.31368 66.6848 1.65838 66.9599 2.09588C67.235 2.53007 67.3725 3.0206 67.3725 3.56747C67.3725 3.94531 67.3013 4.31487 67.1587 4.67614C67.0195 5.0374 66.7759 5.4401 66.4279 5.88423C66.0799 6.32505 65.596 6.86032 64.9762 7.49006L62.9528 9.60795V9.68253H67.5366V11H60.8349Z" fill="black"/>
</svg>
