<svg viewBox="0 0 105 15" fill="none" stroke-width="2" stroke="currentColor" aria-hidden="true">
  <path d="M4.20099 14.0227C3.59446 14.0227 3.07244 13.9432 2.63494 13.7841C2.20076 13.625 1.84612 13.4145 1.57102 13.1527C1.29593 12.8909 1.09044 12.6042 0.954545 12.2926L2.23224 11.7656C2.32173 11.9115 2.44105 12.0656 2.5902 12.228C2.74266 12.3937 2.94815 12.5346 3.20668 12.6506C3.46851 12.7666 3.80492 12.8246 4.21591 12.8246C4.77936 12.8246 5.24503 12.687 5.61293 12.4119C5.98082 12.1402 6.16477 11.706 6.16477 11.1094V9.60795H6.07031C5.98082 9.77036 5.85156 9.95099 5.68253 10.1499C5.51681 10.3487 5.28812 10.5211 4.99645 10.6669C4.70478 10.8127 4.32528 10.8857 3.85795 10.8857C3.25473 10.8857 2.71117 10.7448 2.22727 10.4631C1.74669 10.178 1.36553 9.75876 1.08381 9.20526C0.805398 8.64844 0.666193 7.96401 0.666193 7.15199C0.666193 6.33996 0.803741 5.64394 1.07884 5.06392C1.35724 4.4839 1.7384 4.03977 2.2223 3.73153C2.7062 3.41998 3.25473 3.2642 3.8679 3.2642C4.34186 3.2642 4.72467 3.34375 5.01634 3.50284C5.308 3.65862 5.53504 3.84091 5.69744 4.04972C5.86316 4.25852 5.99077 4.44247 6.08026 4.60156H6.18963V3.36364H7.64631V11.169C7.64631 11.8253 7.49385 12.3639 7.18892 12.7848C6.884 13.2057 6.47135 13.5173 5.95099 13.7195C5.43395 13.9216 4.85062 14.0227 4.20099 14.0227ZM4.18608 9.6527C4.61364 9.6527 4.97491 9.55327 5.26989 9.3544C5.56818 9.15223 5.79356 8.86387 5.94602 8.48935C6.1018 8.11151 6.17969 7.65909 6.17969 7.1321C6.17969 6.61837 6.10346 6.16596 5.95099 5.77486C5.79853 5.38376 5.57481 5.07884 5.27983 4.86009C4.98485 4.63802 4.62027 4.52699 4.18608 4.52699C3.73864 4.52699 3.36577 4.64299 3.06747 4.875C2.76918 5.10369 2.5438 5.41525 2.39134 5.80966C2.24219 6.20407 2.16761 6.64489 2.16761 7.1321C2.16761 7.63258 2.24384 8.07173 2.39631 8.44957C2.54877 8.82741 2.77415 9.1224 3.07244 9.33452C3.37405 9.54664 3.74527 9.6527 4.18608 9.6527ZM11.8622 11.169C11.3783 11.169 10.9408 11.0795 10.5497 10.9006C10.1586 10.7183 9.84872 10.4548 9.62003 10.1101C9.39465 9.76539 9.28196 9.3428 9.28196 8.84233C9.28196 8.41146 9.36482 8.05682 9.53054 7.77841C9.69626 7.5 9.91998 7.27959 10.2017 7.11719C10.4834 6.95478 10.7983 6.83215 11.1463 6.74929C11.4943 6.66643 11.849 6.60346 12.2102 6.56037C12.6676 6.50734 13.0388 6.46425 13.3239 6.43111C13.6089 6.39465 13.8161 6.33665 13.9453 6.2571C14.0746 6.17756 14.1392 6.0483 14.1392 5.86932V5.83452C14.1392 5.40033 14.0166 5.06392 13.7713 4.82528C13.5294 4.58665 13.1681 4.46733 12.6875 4.46733C12.187 4.46733 11.7926 4.57836 11.5043 4.80043C11.2192 5.01918 11.022 5.26278 10.9126 5.53125L9.51562 5.21307C9.68134 4.74905 9.9233 4.37453 10.2415 4.08949C10.563 3.80114 10.9325 3.59233 11.3501 3.46307C11.7678 3.33049 12.2069 3.2642 12.6676 3.2642C12.9725 3.2642 13.2957 3.30066 13.6371 3.37358C13.9818 3.44318 14.3033 3.57244 14.6016 3.76136C14.9032 3.95028 15.1501 4.22041 15.3423 4.57173C15.5346 4.91974 15.6307 5.37216 15.6307 5.92898V11H14.179V9.95597H14.1193C14.0232 10.1482 13.879 10.3371 13.6868 10.5227C13.4946 10.7083 13.2476 10.8625 12.946 10.9851C12.6444 11.1077 12.2831 11.169 11.8622 11.169ZM12.1854 9.97585C12.5964 9.97585 12.9477 9.89465 13.2393 9.73224C13.5343 9.56984 13.758 9.35772 13.9105 9.09588C14.0663 8.83073 14.1442 8.54735 14.1442 8.24574V7.26136C14.0911 7.31439 13.9884 7.36411 13.8359 7.41051C13.6868 7.4536 13.5161 7.49171 13.3239 7.52486C13.1316 7.55469 12.9444 7.58286 12.7621 7.60938C12.5798 7.63258 12.4273 7.65246 12.3047 7.66903C12.0163 7.70549 11.7528 7.76681 11.5142 7.85298C11.2789 7.93916 11.09 8.06345 10.9474 8.22585C10.8082 8.38494 10.7386 8.59706 10.7386 8.86222C10.7386 9.23011 10.8745 9.50852 11.1463 9.69744C11.4181 9.88305 11.7644 9.97585 12.1854 9.97585ZM17.6106 11V3.36364H19.0375V4.60653H19.1319C19.291 4.18561 19.5512 3.85748 19.9125 3.62216C20.2737 3.38352 20.7063 3.2642 21.21 3.2642C21.7205 3.2642 22.148 3.38352 22.4927 3.62216C22.8407 3.8608 23.0976 4.18892 23.2633 4.60653H23.3429C23.5252 4.19886 23.8152 3.87405 24.2129 3.6321C24.6106 3.38684 25.0846 3.2642 25.6348 3.2642C26.3275 3.2642 26.8926 3.4813 27.3301 3.91548C27.7709 4.34967 27.9913 5.00426 27.9913 5.87926V11H26.5048V6.01847C26.5048 5.50142 26.3639 5.12689 26.0822 4.89489C25.8005 4.66288 25.4641 4.54688 25.073 4.54688C24.5891 4.54688 24.2129 4.69602 23.9444 4.99432C23.676 5.2893 23.5417 5.6688 23.5417 6.13281V11H22.0602V5.92401C22.0602 5.50971 21.9309 5.17661 21.6724 4.92472C21.4139 4.67282 21.0775 4.54688 20.6632 4.54688C20.3815 4.54688 20.1213 4.62145 19.8826 4.7706C19.6473 4.91643 19.4567 5.12026 19.3109 5.3821C19.1684 5.64394 19.0971 5.94721 19.0971 6.2919V11H17.6106ZM29.9837 11V3.36364H31.4702V11H29.9837ZM30.7344 2.18537C30.4759 2.18537 30.2538 2.09919 30.0682 1.92685C29.8859 1.75118 29.7947 1.54238 29.7947 1.30043C29.7947 1.05516 29.8859 0.846354 30.0682 0.674005C30.2538 0.498342 30.4759 0.410511 30.7344 0.410511C30.9929 0.410511 31.2133 0.498342 31.3956 0.674005C31.5812 0.846354 31.674 1.05516 31.674 1.30043C31.674 1.54238 31.5812 1.75118 31.3956 1.92685C31.2133 2.09919 30.9929 2.18537 30.7344 2.18537ZM34.9565 6.46591V11H33.47V3.36364H34.8968V4.60653H34.9913C35.167 4.20218 35.4421 3.87737 35.8166 3.6321C36.1944 3.38684 36.67 3.2642 37.2434 3.2642C37.7638 3.2642 38.2195 3.37358 38.6106 3.59233C39.0017 3.80777 39.305 4.12926 39.5204 4.55682C39.7359 4.98437 39.8436 5.51302 39.8436 6.14276V11H38.3571V6.32173C38.3571 5.76823 38.2129 5.3357 37.9245 5.02415C37.6362 4.70928 37.2401 4.55185 36.7363 4.55185C36.3916 4.55185 36.085 4.62642 35.8166 4.77557C35.5514 4.92472 35.341 5.14347 35.1852 5.43182C35.0327 5.71686 34.9565 6.06155 34.9565 6.46591ZM45.0389 14.0227C44.4324 14.0227 43.9103 13.9432 43.4728 13.7841C43.0386 13.625 42.684 13.4145 42.4089 13.1527C42.1338 12.8909 41.9283 12.6042 41.7924 12.2926L43.0701 11.7656C43.1596 11.9115 43.2789 12.0656 43.4281 12.228C43.5806 12.3937 43.786 12.5346 44.0446 12.6506C44.3064 12.7666 44.6428 12.8246 45.0538 12.8246C45.6172 12.8246 46.0829 12.687 46.4508 12.4119C46.8187 12.1402 47.0027 11.706 47.0027 11.1094V9.60795H46.9082C46.8187 9.77036 46.6895 9.95099 46.5204 10.1499C46.3547 10.3487 46.126 10.5211 45.8343 10.6669C45.5427 10.8127 45.1632 10.8857 44.6958 10.8857C44.0926 10.8857 43.5491 10.7448 43.0652 10.4631C42.5846 10.178 42.2034 9.75876 41.9217 9.20526C41.6433 8.64844 41.5041 7.96401 41.5041 7.15199C41.5041 6.33996 41.6416 5.64394 41.9167 5.06392C42.1951 4.4839 42.5763 4.03977 43.0602 3.73153C43.5441 3.41998 44.0926 3.2642 44.7058 3.2642C45.1797 3.2642 45.5626 3.34375 45.8542 3.50284C46.1459 3.65862 46.3729 3.84091 46.5353 4.04972C46.7011 4.25852 46.8287 4.44247 46.9181 4.60156H47.0275V3.36364H48.4842V11.169C48.4842 11.8253 48.3317 12.3639 48.0268 12.7848C47.7219 13.2057 47.3092 13.5173 46.7889 13.7195C46.2718 13.9216 45.6885 14.0227 45.0389 14.0227ZM45.024 9.6527C45.4515 9.6527 45.8128 9.55327 46.1078 9.3544C46.4061 9.15223 46.6315 8.86387 46.7839 8.48935C46.9397 8.11151 47.0176 7.65909 47.0176 7.1321C47.0176 6.61837 46.9413 6.16596 46.7889 5.77486C46.6364 5.38376 46.4127 5.07884 46.1177 4.86009C45.8227 4.63802 45.4582 4.52699 45.024 4.52699C44.5765 4.52699 44.2037 4.64299 43.9054 4.875C43.6071 5.10369 43.3817 5.41525 43.2292 5.80966C43.0801 6.20407 43.0055 6.64489 43.0055 7.1321C43.0055 7.63258 43.0817 8.07173 43.2342 8.44957C43.3867 8.82741 43.612 9.1224 43.9103 9.33452C44.2119 9.54664 44.5832 9.6527 45.024 9.6527ZM54.9771 6.05327V7.34091H50.4629V6.05327H54.9771ZM56.9583 13.8636V3.36364H58.41V4.60156H58.5343C58.6204 4.44247 58.7447 4.25852 58.9071 4.04972C59.0695 3.84091 59.2949 3.65862 59.5833 3.50284C59.8716 3.34375 60.2528 3.2642 60.7267 3.2642C61.3432 3.2642 61.8934 3.41998 62.3773 3.73153C62.8612 4.04309 63.2407 4.49219 63.5158 5.07884C63.7942 5.66548 63.9334 6.37145 63.9334 7.19673C63.9334 8.02202 63.7959 8.72964 63.5208 9.3196C63.2457 9.90625 62.8678 10.3587 62.3873 10.6768C61.9067 10.9917 61.3581 11.1491 60.7417 11.1491C60.2776 11.1491 59.8981 11.0713 59.6032 10.9155C59.3115 10.7597 59.0828 10.5774 58.9171 10.3686C58.7514 10.1598 58.6238 9.9742 58.5343 9.81179H58.4448V13.8636H56.9583ZM58.415 7.18182C58.415 7.71875 58.4928 8.18939 58.6486 8.59375C58.8044 8.99811 59.0298 9.31463 59.3248 9.54332C59.6197 9.7687 59.981 9.88139 60.4086 9.88139C60.8527 9.88139 61.2239 9.76373 61.5222 9.52841C61.8205 9.28977 62.0459 8.96662 62.1983 8.55895C62.3541 8.15128 62.432 7.69223 62.432 7.18182C62.432 6.67803 62.3558 6.22562 62.2033 5.82457C62.0542 5.42353 61.8288 5.10701 61.5272 4.875C61.2289 4.64299 60.856 4.52699 60.4086 4.52699C59.9777 4.52699 59.6131 4.63802 59.3148 4.86009C59.0198 5.08215 58.7961 5.39205 58.6436 5.78977C58.4912 6.1875 58.415 6.65151 58.415 7.18182ZM67.8212 11.169C67.3373 11.169 66.8998 11.0795 66.5087 10.9006C66.1176 10.7183 65.8077 10.4548 65.579 10.1101C65.3536 9.76539 65.2409 9.3428 65.2409 8.84233C65.2409 8.41146 65.3238 8.05682 65.4895 7.77841C65.6552 7.5 65.879 7.27959 66.1607 7.11719C66.4424 6.95478 66.7573 6.83215 67.1053 6.74929C67.4533 6.66643 67.8079 6.60346 68.1692 6.56037C68.6266 6.50734 68.9978 6.46425 69.2828 6.43111C69.5679 6.39465 69.775 6.33665 69.9043 6.2571C70.0336 6.17756 70.0982 6.0483 70.0982 5.86932V5.83452C70.0982 5.40033 69.9756 5.06392 69.7303 4.82528C69.4883 4.58665 69.1271 4.46733 68.6465 4.46733C68.146 4.46733 67.7516 4.57836 67.4632 4.80043C67.1782 5.01918 66.981 5.26278 66.8716 5.53125L65.4746 5.21307C65.6403 4.74905 65.8823 4.37453 66.2005 4.08949C66.522 3.80114 66.8915 3.59233 67.3091 3.46307C67.7267 3.33049 68.1659 3.2642 68.6266 3.2642C68.9315 3.2642 69.2547 3.30066 69.5961 3.37358C69.9408 3.44318 70.2623 3.57244 70.5605 3.76136C70.8622 3.95028 71.1091 4.22041 71.3013 4.57173C71.4935 4.91974 71.5897 5.37216 71.5897 5.92898V11H70.138V9.95597H70.0783C69.9822 10.1482 69.838 10.3371 69.6458 10.5227C69.4535 10.7083 69.2066 10.8625 68.905 10.9851C68.6034 11.1077 68.2421 11.169 67.8212 11.169ZM68.1444 9.97585C68.5553 9.97585 68.9067 9.89465 69.1983 9.73224C69.4933 9.56984 69.717 9.35772 69.8695 9.09588C70.0253 8.83073 70.1032 8.54735 70.1032 8.24574V7.26136C70.0501 7.31439 69.9474 7.36411 69.7949 7.41051C69.6458 7.4536 69.4751 7.49171 69.2828 7.52486C69.0906 7.55469 68.9034 7.58286 68.7211 7.60938C68.5388 7.63258 68.3863 7.65246 68.2637 7.66903C67.9753 7.70549 67.7118 7.76681 67.4732 7.85298C67.2379 7.93916 67.0489 8.06345 66.9064 8.22585C66.7672 8.38494 66.6976 8.59706 66.6976 8.86222C66.6976 9.23011 66.8335 9.50852 67.1053 9.69744C67.3771 9.88305 67.7234 9.97585 68.1444 9.97585ZM76.4283 11.1491C75.8118 11.1491 75.2616 10.9917 74.7777 10.6768C74.2971 10.3587 73.9193 9.90625 73.6442 9.3196C73.3724 8.72964 73.2365 8.02202 73.2365 7.19673C73.2365 6.37145 73.3741 5.66548 73.6491 5.07884C73.9276 4.49219 74.3087 4.04309 74.7926 3.73153C75.2765 3.41998 75.825 3.2642 76.4382 3.2642C76.9122 3.2642 77.2933 3.34375 77.5817 3.50284C77.8733 3.65862 78.0987 3.84091 78.2578 4.04972C78.4202 4.25852 78.5462 4.44247 78.6357 4.60156H78.7251V0.818182H80.2116V11H78.7599V9.81179H78.6357C78.5462 9.9742 78.4169 10.1598 78.2479 10.3686C78.0821 10.5774 77.8535 10.7597 77.5618 10.9155C77.2701 11.0713 76.8923 11.1491 76.4283 11.1491ZM76.7564 9.88139C77.1839 9.88139 77.5452 9.7687 77.8402 9.54332C78.1385 9.31463 78.3639 8.99811 78.5163 8.59375C78.6721 8.18939 78.75 7.71875 78.75 7.18182C78.75 6.65151 78.6738 6.1875 78.5213 5.78977C78.3688 5.39205 78.1451 5.08215 77.8501 4.86009C77.5552 4.63802 77.1906 4.52699 76.7564 4.52699C76.3089 4.52699 75.9361 4.64299 75.6378 4.875C75.3395 5.10701 75.1141 5.42353 74.9616 5.82457C74.8125 6.22562 74.7379 6.67803 74.7379 7.18182C74.7379 7.69223 74.8142 8.15128 74.9666 8.55895C75.1191 8.96662 75.3445 9.28977 75.6428 9.52841C75.9444 9.76373 76.3156 9.88139 76.7564 9.88139ZM86.8326 6.05327V7.34091H82.3184V6.05327H86.8326ZM92.3386 11.169C91.5531 11.1657 90.8819 10.9586 90.3251 10.5476C89.7683 10.1366 89.3424 9.53835 89.0474 8.75284C88.7524 7.96733 88.6049 7.02107 88.6049 5.91406C88.6049 4.81037 88.7524 3.86742 89.0474 3.08523C89.3457 2.30303 89.7733 1.70644 90.3301 1.29545C90.8902 0.884469 91.5597 0.678977 92.3386 0.678977C93.1175 0.678977 93.7853 0.886126 94.3422 1.30043C94.899 1.71141 95.3249 2.308 95.6199 3.0902C95.9181 3.86908 96.0673 4.81037 96.0673 5.91406C96.0673 7.02438 95.9198 7.9723 95.6248 8.75781C95.3298 9.54001 94.9039 10.1383 94.3471 10.5526C93.7903 10.9635 93.1208 11.169 92.3386 11.169ZM92.3386 9.84162C93.028 9.84162 93.5666 9.50521 93.9544 8.83239C94.3455 8.15956 94.541 7.18679 94.541 5.91406C94.541 5.06889 94.4515 4.35464 94.2725 3.77131C94.0969 3.18466 93.8433 2.74053 93.5119 2.43892C93.1838 2.134 92.7927 1.98153 92.3386 1.98153C91.6525 1.98153 91.1139 2.3196 90.7228 2.99574C90.3317 3.67187 90.1345 4.64465 90.1312 5.91406C90.1312 6.76255 90.219 7.48011 90.3947 8.06676C90.5737 8.65009 90.8272 9.09257 91.1554 9.39418C91.4835 9.69247 91.8779 9.84162 92.3386 9.84162ZM97.831 11V9.88636L101.276 6.31676C101.644 5.92898 101.947 5.58925 102.186 5.29759C102.428 5.0026 102.609 4.72254 102.728 4.45739C102.847 4.19223 102.907 3.91051 102.907 3.61222C102.907 3.27415 102.827 2.98248 102.668 2.73722C102.509 2.48864 102.292 2.29806 102.017 2.16548C101.742 2.02959 101.432 1.96165 101.087 1.96165C100.723 1.96165 100.405 2.03622 100.133 2.18537C99.861 2.33452 99.6522 2.54498 99.5064 2.81676C99.3606 3.08854 99.2876 3.40672 99.2876 3.77131H97.821C97.821 3.15151 97.9635 2.60961 98.2486 2.1456C98.5336 1.68158 98.9247 1.32197 99.4219 1.06676C99.919 0.808238 100.484 0.678977 101.117 0.678977C101.757 0.678977 102.32 0.806581 102.808 1.06179C103.298 1.31368 103.681 1.65838 103.956 2.09588C104.231 2.53007 104.369 3.0206 104.369 3.56747C104.369 3.94531 104.297 4.31487 104.155 4.67614C104.016 5.0374 103.772 5.4401 103.424 5.88423C103.076 6.32505 102.592 6.86032 101.972 7.49006L99.9489 9.60795V9.68253H104.533V11H97.831Z" fill="black"/>
</svg>
