<svg viewBox="0 0 49 12" fill="none" stroke-width="2" stroke="currentColor" aria-hidden="true">
  <path d="M4.63352 3.36364V4.55682H0.318182V3.36364H4.63352ZM1.50142 11V2.47869C1.50142 2.00142 1.60582 1.60535 1.81463 1.29048C2.02344 0.972301 2.30019 0.735322 2.64489 0.579545C2.98958 0.420454 3.36411 0.340908 3.76847 0.340908C4.06676 0.340908 4.32197 0.365767 4.53409 0.415483C4.74621 0.461884 4.90365 0.504971 5.00639 0.544744L4.65838 1.74787C4.58878 1.72798 4.49929 1.70478 4.38991 1.67827C4.28054 1.64844 4.14796 1.63352 3.99219 1.63352C3.63092 1.63352 3.3724 1.72301 3.21662 1.90199C3.06416 2.08097 2.98793 2.33949 2.98793 2.67756V11H1.50142ZM6.16726 11V3.36364H7.65376V11H6.16726ZM6.91797 2.18537C6.65945 2.18537 6.43738 2.09919 6.25178 1.92685C6.06948 1.75118 5.97834 1.54238 5.97834 1.30043C5.97834 1.05516 6.06948 0.846354 6.25178 0.674005C6.43738 0.498342 6.65945 0.410511 6.91797 0.410511C7.17649 0.410511 7.3969 0.498342 7.57919 0.674005C7.7648 0.846354 7.8576 1.05516 7.8576 1.30043C7.8576 1.54238 7.7648 1.75118 7.57919 1.92685C7.3969 2.09919 7.17649 2.18537 6.91797 2.18537ZM11.1401 0.818182V11H9.65359V0.818182H11.1401ZM13.1399 11V3.36364H14.5668V4.60653H14.6612C14.8203 4.18561 15.0805 3.85748 15.4418 3.62216C15.803 3.38352 16.2356 3.2642 16.7393 3.2642C17.2498 3.2642 17.6773 3.38352 18.022 3.62216C18.37 3.8608 18.6269 4.18892 18.7926 4.60653H18.8722C19.0545 4.19886 19.3445 3.87405 19.7422 3.6321C20.1399 3.38684 20.6139 3.2642 21.1641 3.2642C21.8568 3.2642 22.4219 3.4813 22.8594 3.91548C23.3002 4.34967 23.5206 5.00426 23.5206 5.87926V11H22.0341V6.01847C22.0341 5.50142 21.8932 5.12689 21.6115 4.89489C21.3298 4.66288 20.9934 4.54688 20.6023 4.54688C20.1184 4.54688 19.7422 4.69602 19.4737 4.99432C19.2053 5.2893 19.071 5.6688 19.071 6.13281V11H17.5895V5.92401C17.5895 5.50971 17.4602 5.17661 17.2017 4.92472C16.9432 4.67282 16.6068 4.54688 16.1925 4.54688C15.9107 4.54688 15.6506 4.62145 15.4119 4.7706C15.1766 4.91643 14.986 5.12026 14.8402 5.3821C14.6977 5.64394 14.6264 5.94721 14.6264 6.2919V11H13.1399ZM30.0123 6.05327V7.34091H25.498V6.05327H30.0123ZM35.5183 11.169C34.7328 11.1657 34.0616 10.9586 33.5048 10.5476C32.948 10.1366 32.5221 9.53835 32.2271 8.75284C31.9321 7.96733 31.7846 7.02107 31.7846 5.91406C31.7846 4.81037 31.9321 3.86742 32.2271 3.08523C32.5254 2.30303 32.9529 1.70644 33.5098 1.29545C34.0699 0.884469 34.7394 0.678977 35.5183 0.678977C36.2972 0.678977 36.965 0.886126 37.5218 1.30043C38.0787 1.71141 38.5046 2.308 38.7995 3.0902C39.0978 3.86908 39.247 4.81037 39.247 5.91406C39.247 7.02438 39.0995 7.9723 38.8045 8.75781C38.5095 9.54001 38.0836 10.1383 37.5268 10.5526C36.97 10.9635 36.3005 11.169 35.5183 11.169ZM35.5183 9.84162C36.2077 9.84162 36.7463 9.50521 37.1341 8.83239C37.5252 8.15956 37.7207 7.18679 37.7207 5.91406C37.7207 5.06889 37.6312 4.35464 37.4522 3.77131C37.2766 3.18466 37.023 2.74053 36.6916 2.43892C36.3635 2.134 35.9724 1.98153 35.5183 1.98153C34.8322 1.98153 34.2936 2.3196 33.9025 2.99574C33.5114 3.67187 33.3142 4.64465 33.3109 5.91406C33.3109 6.76255 33.3987 7.48011 33.5744 8.06676C33.7534 8.65009 34.0069 9.09257 34.335 9.39418C34.6632 9.69247 35.0576 9.84162 35.5183 9.84162ZM44.5554 11.1392C43.8726 11.1392 43.2628 11.0215 42.7259 10.7862C42.1922 10.5509 41.7696 10.2244 41.4581 9.80682C41.1499 9.38589 40.9841 8.89867 40.9609 8.34517H42.522C42.5419 8.64678 42.643 8.90862 42.8253 9.13068C43.0109 9.34943 43.2528 9.51847 43.5511 9.63778C43.8494 9.7571 44.1809 9.81676 44.5455 9.81676C44.9465 9.81676 45.3011 9.74716 45.6094 9.60795C45.9209 9.46875 46.1645 9.27486 46.3402 9.02628C46.5159 8.77438 46.6037 8.48438 46.6037 8.15625C46.6037 7.81487 46.5159 7.51491 46.3402 7.25639C46.1679 6.99455 45.9143 6.78906 45.5795 6.63991C45.2481 6.49077 44.8471 6.41619 44.3764 6.41619H43.5163V5.16335H44.3764C44.7543 5.16335 45.0857 5.09541 45.3707 4.95952C45.6591 4.82363 45.8845 4.63471 46.0469 4.39276C46.2093 4.14749 46.2905 3.8608 46.2905 3.53267C46.2905 3.2178 46.2192 2.94437 46.0767 2.71236C45.9375 2.47704 45.7386 2.29309 45.4801 2.16051C45.2249 2.02794 44.9233 1.96165 44.5753 1.96165C44.2438 1.96165 43.9339 2.02296 43.6456 2.1456C43.3606 2.26491 43.1286 2.43726 42.9496 2.66264C42.7706 2.88471 42.6745 3.15151 42.6612 3.46307H41.1747C41.1913 2.91288 41.3537 2.42898 41.6619 2.01136C41.9735 1.59375 42.3845 1.26728 42.8949 1.03196C43.4053 0.796638 43.9721 0.678977 44.5952 0.678977C45.2481 0.678977 45.8116 0.806581 46.2855 1.06179C46.7628 1.31368 47.1307 1.65009 47.3892 2.07102C47.651 2.49195 47.7803 2.95265 47.777 3.45312C47.7803 4.0232 47.6212 4.5071 47.2997 4.90483C46.9815 5.30256 46.5573 5.56937 46.027 5.70526V5.7848C46.7031 5.88755 47.2268 6.15601 47.598 6.5902C47.9725 7.02438 48.1581 7.56297 48.1548 8.20597C48.1581 8.7661 48.0024 9.26823 47.6875 9.71236C47.3759 10.1565 46.95 10.5062 46.4098 10.7614C45.8696 11.0133 45.2514 11.1392 44.5554 11.1392Z" fill="black"/>
</svg>
