<svg viewBox="0 0 50 14" fill="none" stroke-width="2" stroke="currentColor" aria-hidden="true">
  <path d="M3.22159 11.169C2.73769 11.169 2.30019 11.0795 1.90909 10.9006C1.51799 10.7183 1.2081 10.4548 0.979403 10.1101C0.754025 9.76539 0.641335 9.3428 0.641335 8.84233C0.641335 8.41146 0.724195 8.05682 0.889915 7.77841C1.05563 7.5 1.27936 7.27959 1.56108 7.11719C1.8428 6.95478 2.15767 6.83215 2.50568 6.74929C2.85369 6.66643 3.20833 6.60346 3.5696 6.56037C4.02699 6.50734 4.3982 6.46425 4.68324 6.43111C4.96828 6.39465 5.17543 6.33665 5.30469 6.2571C5.43395 6.17756 5.49858 6.0483 5.49858 5.86932V5.83452C5.49858 5.40033 5.37595 5.06392 5.13068 4.82528C4.88873 4.58665 4.52746 4.46733 4.04688 4.46733C3.5464 4.46733 3.15199 4.57836 2.86364 4.80043C2.5786 5.01918 2.38139 5.26278 2.27202 5.53125L0.875 5.21307C1.04072 4.74905 1.28267 4.37453 1.60085 4.08949C1.92235 3.80114 2.2919 3.59233 2.70952 3.46307C3.12713 3.33049 3.56629 3.2642 4.02699 3.2642C4.33191 3.2642 4.65507 3.30066 4.99645 3.37358C5.34115 3.44318 5.66264 3.57244 5.96094 3.76136C6.26255 3.95028 6.50947 4.22041 6.7017 4.57173C6.89394 4.91974 6.99006 5.37216 6.99006 5.92898V11H5.53835V9.95597H5.47869C5.38258 10.1482 5.2384 10.3371 5.04616 10.5227C4.85393 10.7083 4.60701 10.8625 4.3054 10.9851C4.00379 11.1077 3.64252 11.169 3.22159 11.169ZM3.54474 9.97585C3.95573 9.97585 4.30706 9.89465 4.59872 9.73224C4.8937 9.56984 5.11742 9.35772 5.26989 9.09588C5.42566 8.83073 5.50355 8.54735 5.50355 8.24574V7.26136C5.45052 7.31439 5.34777 7.36411 5.19531 7.41051C5.04616 7.4536 4.87547 7.49171 4.68324 7.52486C4.491 7.55469 4.30374 7.58286 4.12145 7.60938C3.93916 7.63258 3.7867 7.65246 3.66406 7.66903C3.37571 7.70549 3.11222 7.76681 2.87358 7.85298C2.63826 7.93916 2.44934 8.06345 2.30682 8.22585C2.16761 8.38494 2.09801 8.59706 2.09801 8.86222C2.09801 9.23011 2.2339 9.50852 2.50568 9.69744C2.77746 9.88305 3.12382 9.97585 3.54474 9.97585ZM8.96999 11V3.36364H10.4565V11H8.96999ZM9.7207 2.18537C9.46218 2.18537 9.24012 2.09919 9.05451 1.92685C8.87222 1.75118 8.78107 1.54238 8.78107 1.30043C8.78107 1.05516 8.87222 0.846354 9.05451 0.674005C9.24012 0.498342 9.46218 0.410511 9.7207 0.410511C9.97923 0.410511 10.1996 0.498342 10.3819 0.674005C10.5675 0.846354 10.6603 1.05516 10.6603 1.30043C10.6603 1.54238 10.5675 1.75118 10.3819 1.92685C10.1996 2.09919 9.97923 2.18537 9.7207 2.18537ZM12.4563 11V3.36364H13.8931V4.5767H13.9727C14.1119 4.16572 14.3571 3.84257 14.7085 3.60724C15.0631 3.36861 15.4641 3.24929 15.9116 3.24929C16.0044 3.24929 16.1138 3.2526 16.2397 3.25923C16.369 3.26586 16.4701 3.27415 16.543 3.28409V4.70597C16.4833 4.68939 16.3772 4.67116 16.2248 4.65128C16.0723 4.62808 15.9199 4.61648 15.7674 4.61648C15.4161 4.61648 15.1029 4.69105 14.8278 4.8402C14.556 4.98603 14.3406 5.18987 14.1815 5.4517C14.0224 5.71023 13.9428 6.00521 13.9428 6.33665V11H12.4563ZM17.8294 13.8636V3.36364H19.2811V4.60156H19.4054C19.4915 4.44247 19.6158 4.25852 19.7782 4.04972C19.9406 3.84091 20.166 3.65862 20.4544 3.50284C20.7427 3.34375 21.1239 3.2642 21.5978 3.2642C22.2143 3.2642 22.7645 3.41998 23.2484 3.73153C23.7323 4.04309 24.1118 4.49219 24.3869 5.07884C24.6653 5.66548 24.8045 6.37145 24.8045 7.19673C24.8045 8.02202 24.667 8.72964 24.3919 9.3196C24.1168 9.90625 23.7389 10.3587 23.2583 10.6768C22.7778 10.9917 22.2292 11.1491 21.6127 11.1491C21.1487 11.1491 20.7692 11.0713 20.4743 10.9155C20.1826 10.7597 19.9539 10.5774 19.7882 10.3686C19.6225 10.1598 19.4949 9.9742 19.4054 9.81179H19.3159V13.8636H17.8294ZM19.286 7.18182C19.286 7.71875 19.3639 8.18939 19.5197 8.59375C19.6755 8.99811 19.9009 9.31463 20.1958 9.54332C20.4908 9.7687 20.8521 9.88139 21.2797 9.88139C21.7238 9.88139 22.095 9.76373 22.3933 9.52841C22.6916 9.28977 22.917 8.96662 23.0694 8.55895C23.2252 8.15128 23.3031 7.69223 23.3031 7.18182C23.3031 6.67803 23.2269 6.22562 23.0744 5.82457C22.9252 5.42353 22.6999 5.10701 22.3983 4.875C22.1 4.64299 21.7271 4.52699 21.2797 4.52699C20.8488 4.52699 20.4842 4.63802 20.1859 4.86009C19.8909 5.08215 19.6672 5.39205 19.5147 5.78977C19.3623 6.1875 19.286 6.65151 19.286 7.18182ZM29.6866 11.1541C28.9707 11.1541 28.3459 10.9901 27.8123 10.6619C27.2787 10.3338 26.8644 9.87476 26.5694 9.2848C26.2744 8.69484 26.127 8.00544 26.127 7.21662C26.127 6.42448 26.2744 5.73177 26.5694 5.13849C26.8644 4.54522 27.2787 4.08452 27.8123 3.75639C28.3459 3.42827 28.9707 3.2642 29.6866 3.2642C30.4025 3.2642 31.0273 3.42827 31.5609 3.75639C32.0945 4.08452 32.5088 4.54522 32.8038 5.13849C33.0988 5.73177 33.2463 6.42448 33.2463 7.21662C33.2463 8.00544 33.0988 8.69484 32.8038 9.2848C32.5088 9.87476 32.0945 10.3338 31.5609 10.6619C31.0273 10.9901 30.4025 11.1541 29.6866 11.1541ZM29.6916 9.90625C30.1556 9.90625 30.5401 9.78362 30.845 9.53835C31.1499 9.29309 31.3753 8.96662 31.5211 8.55895C31.6703 8.15128 31.7449 7.70218 31.7449 7.21165C31.7449 6.72443 31.6703 6.27699 31.5211 5.86932C31.3753 5.45833 31.1499 5.12855 30.845 4.87997C30.5401 4.63139 30.1556 4.5071 29.6916 4.5071C29.2243 4.5071 28.8365 4.63139 28.5282 4.87997C28.2233 5.12855 27.9963 5.45833 27.8471 5.86932C27.7013 6.27699 27.6284 6.72443 27.6284 7.21165C27.6284 7.70218 27.7013 8.15128 27.8471 8.55895C27.9963 8.96662 28.2233 9.29309 28.5282 9.53835C28.8365 9.78362 29.2243 9.90625 29.6916 9.90625ZM37.7642 11.1491C37.1477 11.1491 36.5975 10.9917 36.1136 10.6768C35.633 10.3587 35.2552 9.90625 34.9801 9.3196C34.7083 8.72964 34.5724 8.02202 34.5724 7.19673C34.5724 6.37145 34.71 5.66548 34.9851 5.07884C35.2635 4.49219 35.6446 4.04309 36.1286 3.73153C36.6125 3.41998 37.161 3.2642 37.7741 3.2642C38.2481 3.2642 38.6293 3.34375 38.9176 3.50284C39.2093 3.65862 39.4347 3.84091 39.5938 4.04972C39.7562 4.25852 39.8821 4.44247 39.9716 4.60156H40.0611V0.818182H41.5476V11H40.0959V9.81179H39.9716C39.8821 9.9742 39.7528 10.1598 39.5838 10.3686C39.4181 10.5774 39.1894 10.7597 38.8977 10.9155C38.6061 11.0713 38.2282 11.1491 37.7642 11.1491ZM38.0923 9.88139C38.5199 9.88139 38.8812 9.7687 39.1761 9.54332C39.4744 9.31463 39.6998 8.99811 39.8523 8.59375C40.008 8.18939 40.0859 7.71875 40.0859 7.18182C40.0859 6.65151 40.0097 6.1875 39.8572 5.78977C39.7048 5.39205 39.4811 5.08215 39.1861 4.86009C38.8911 4.63802 38.5265 4.52699 38.0923 4.52699C37.6449 4.52699 37.272 4.64299 36.9737 4.875C36.6754 5.10701 36.45 5.42353 36.2976 5.82457C36.1484 6.22562 36.0739 6.67803 36.0739 7.18182C36.0739 7.69223 36.1501 8.15128 36.3026 8.55895C36.455 8.96662 36.6804 9.28977 36.9787 9.52841C37.2803 9.76373 37.6515 9.88139 38.0923 9.88139ZM49.3915 5.22798L48.0442 5.46662C47.9879 5.29427 47.8984 5.13021 47.7757 4.97443C47.6564 4.81865 47.494 4.69105 47.2885 4.59162C47.083 4.49219 46.8262 4.44247 46.5179 4.44247C46.097 4.44247 45.7457 4.53693 45.464 4.72585C45.1822 4.91146 45.0414 5.15175 45.0414 5.44673C45.0414 5.70194 45.1358 5.90743 45.3248 6.06321C45.5137 6.21899 45.8186 6.34659 46.2395 6.44602L47.4526 6.72443C48.1552 6.88684 48.6789 7.13707 49.0236 7.47514C49.3683 7.81321 49.5407 8.25237 49.5407 8.79261C49.5407 9.25 49.4081 9.65767 49.1429 10.0156C48.8811 10.3703 48.5149 10.6487 48.0442 10.8509C47.5769 11.053 47.035 11.1541 46.4185 11.1541C45.5634 11.1541 44.8657 10.9718 44.3255 10.6072C43.7852 10.2393 43.4538 9.71733 43.3311 9.04119L44.7679 8.82244C44.8574 9.19697 45.0414 9.48035 45.3198 9.67259C45.5982 9.86151 45.9611 9.95597 46.4086 9.95597C46.8958 9.95597 47.2852 9.85488 47.5769 9.6527C47.8685 9.44721 48.0144 9.19697 48.0144 8.90199C48.0144 8.66335 47.9249 8.46283 47.7459 8.30043C47.5703 8.13802 47.3001 8.01539 46.9355 7.93253L45.6429 7.64915C44.9303 7.48674 44.4033 7.22822 44.062 6.87358C43.7239 6.51894 43.5549 6.06984 43.5549 5.52628C43.5549 5.07552 43.6808 4.68111 43.9327 4.34304C44.1846 4.00497 44.5326 3.74148 44.9767 3.55256C45.4209 3.36032 45.9296 3.2642 46.503 3.2642C47.3283 3.2642 47.9779 3.44318 48.4519 3.80114C48.9258 4.15578 49.2391 4.63139 49.3915 5.22798Z" fill="black"/>
</svg>
