<svg viewBox="0 0 102 12" fill="none" stroke-width="2" stroke="currentColor" aria-hidden="true">
  <path d="M4.83665 7.8331V3.36364H6.32812V11H4.86648V9.67756H4.78693C4.61127 10.0852 4.32955 10.425 3.94176 10.6967C3.55729 10.9652 3.07836 11.0994 2.50497 11.0994C2.01444 11.0994 1.58026 10.9917 1.20241 10.7763C0.827888 10.5575 0.532907 10.2344 0.317472 9.80682C0.10535 9.37926 -0.000710189 8.85062 -0.000710189 8.22088V3.36364H1.4858V8.0419C1.4858 8.56226 1.62997 8.97656 1.91832 9.2848C2.20668 9.59304 2.5812 9.74716 3.0419 9.74716C3.32031 9.74716 3.59706 9.67756 3.87216 9.53835C4.15057 9.39915 4.38092 9.18868 4.56321 8.90696C4.74882 8.62524 4.83996 8.26728 4.83665 7.8331ZM14.0478 5.22798L12.7005 5.46662C12.6441 5.29427 12.5546 5.13021 12.432 4.97443C12.3127 4.81865 12.1503 4.69105 11.9448 4.59162C11.7393 4.49219 11.4824 4.44247 11.1742 4.44247C10.7533 4.44247 10.4019 4.53693 10.1202 4.72585C9.83848 4.91146 9.69762 5.15175 9.69762 5.44673C9.69762 5.70194 9.79208 5.90743 9.981 6.06321C10.1699 6.21899 10.4748 6.34659 10.8958 6.44602L12.1088 6.72443C12.8115 6.88684 13.3352 7.13707 13.6799 7.47514C14.0246 7.81321 14.1969 8.25237 14.1969 8.79261C14.1969 9.25 14.0643 9.65767 13.7992 10.0156C13.5373 10.3703 13.1711 10.6487 12.7005 10.8509C12.2331 11.053 11.6912 11.1541 11.0748 11.1541C10.2196 11.1541 9.52196 10.9718 8.98171 10.6072C8.44147 10.2393 8.11003 9.71733 7.98739 9.04119L9.42418 8.82244C9.51367 9.19697 9.69762 9.48035 9.97603 9.67259C10.2544 9.86151 10.6174 9.95597 11.0648 9.95597C11.552 9.95597 11.9415 9.85488 12.2331 9.6527C12.5248 9.44721 12.6706 9.19697 12.6706 8.90199C12.6706 8.66335 12.5811 8.46283 12.4022 8.30043C12.2265 8.13802 11.9564 8.01539 11.5918 7.93253L10.2992 7.64915C9.58659 7.48674 9.0596 7.22822 8.71822 6.87358C8.38015 6.51894 8.21112 6.06984 8.21112 5.52628C8.21112 5.07552 8.33706 4.68111 8.58896 4.34304C8.84085 4.00497 9.18886 3.74148 9.63299 3.55256C10.0771 3.36032 10.5859 3.2642 11.1593 3.2642C11.9846 3.2642 12.6342 3.44318 13.1081 3.80114C13.5821 4.15578 13.8953 4.63139 14.0478 5.22798ZM15.9506 11V0.818182H17.4371V4.60156H17.5266C17.6128 4.44247 17.7371 4.25852 17.8995 4.04972C18.0619 3.84091 18.2873 3.65862 18.5756 3.50284C18.864 3.34375 19.2451 3.2642 19.7191 3.2642C20.3356 3.2642 20.8858 3.41998 21.3697 3.73153C21.8536 4.04309 22.2331 4.49219 22.5082 5.07884C22.7866 5.66548 22.9258 6.37145 22.9258 7.19673C22.9258 8.02202 22.7882 8.72964 22.5131 9.3196C22.238 9.90625 21.8602 10.3587 21.3796 10.6768C20.899 10.9917 20.3505 11.1491 19.734 11.1491C19.27 11.1491 18.8905 11.0713 18.5955 10.9155C18.3039 10.7597 18.0752 10.5774 17.9094 10.3686C17.7437 10.1598 17.6161 9.9742 17.5266 9.81179H17.4023V11H15.9506ZM17.4073 7.18182C17.4073 7.71875 17.4852 8.18939 17.641 8.59375C17.7968 8.99811 18.0221 9.31463 18.3171 9.54332C18.6121 9.7687 18.9734 9.88139 19.4009 9.88139C19.8451 9.88139 20.2163 9.76373 20.5146 9.52841C20.8129 9.28977 21.0382 8.96662 21.1907 8.55895C21.3465 8.15128 21.4244 7.69223 21.4244 7.18182C21.4244 6.67803 21.3481 6.22562 21.1957 5.82457C21.0465 5.42353 20.8211 5.10701 20.5195 4.875C20.2212 4.64299 19.8484 4.52699 19.4009 4.52699C18.9701 4.52699 18.6055 4.63802 18.3072 4.86009C18.0122 5.08215 17.7885 5.39205 17.636 5.78977C17.4835 6.1875 17.4073 6.65151 17.4073 7.18182ZM29.0943 6.05327V7.34091H24.5801V6.05327H29.0943ZM34.7097 3.36364V4.55682H30.3944V3.36364H34.7097ZM31.5776 11V2.47869C31.5776 2.00142 31.682 1.60535 31.8908 1.29048C32.0996 0.972301 32.3764 0.735322 32.7211 0.579545C33.0658 0.420454 33.4403 0.340908 33.8446 0.340908C34.1429 0.340908 34.3981 0.365767 34.6103 0.415483C34.8224 0.461884 34.9798 0.504971 35.0826 0.544744L34.7346 1.74787C34.665 1.72798 34.5755 1.70478 34.4661 1.67827C34.3567 1.64844 34.2241 1.63352 34.0684 1.63352C33.7071 1.63352 33.4486 1.72301 33.2928 1.90199C33.1403 2.08097 33.0641 2.33949 33.0641 2.67756V11H31.5776ZM37.7299 0.818182V11H36.2434V0.818182H37.7299ZM41.9521 11.169C41.4682 11.169 41.0307 11.0795 40.6396 10.9006C40.2485 10.7183 39.9386 10.4548 39.7099 10.1101C39.4845 9.76539 39.3718 9.3428 39.3718 8.84233C39.3718 8.41146 39.4547 8.05682 39.6204 7.77841C39.7861 7.5 40.0098 7.27959 40.2915 7.11719C40.5733 6.95478 40.8881 6.83215 41.2362 6.74929C41.5842 6.66643 41.9388 6.60346 42.3001 6.56037C42.7575 6.50734 43.1287 6.46425 43.4137 6.43111C43.6987 6.39465 43.9059 6.33665 44.0352 6.2571C44.1644 6.17756 44.229 6.0483 44.229 5.86932V5.83452C44.229 5.40033 44.1064 5.06392 43.8612 4.82528C43.6192 4.58665 43.2579 4.46733 42.7773 4.46733C42.2769 4.46733 41.8825 4.57836 41.5941 4.80043C41.3091 5.01918 41.1119 5.26278 41.0025 5.53125L39.6055 5.21307C39.7712 4.74905 40.0131 4.37453 40.3313 4.08949C40.6528 3.80114 41.0224 3.59233 41.44 3.46307C41.8576 3.33049 42.2968 3.2642 42.7575 3.2642C43.0624 3.2642 43.3855 3.30066 43.7269 3.37358C44.0716 3.44318 44.3931 3.57244 44.6914 3.76136C44.993 3.95028 45.2399 4.22041 45.4322 4.57173C45.6244 4.91974 45.7205 5.37216 45.7205 5.92898V11H44.2688V9.95597H44.2092C44.113 10.1482 43.9689 10.3371 43.7766 10.5227C43.5844 10.7083 43.3375 10.8625 43.0359 10.9851C42.7343 11.1077 42.373 11.169 41.9521 11.169ZM42.2752 9.97585C42.6862 9.97585 43.0375 9.89465 43.3292 9.73224C43.6242 9.56984 43.8479 9.35772 44.0004 9.09588C44.1561 8.83073 44.234 8.54735 44.234 8.24574V7.26136C44.181 7.31439 44.0782 7.36411 43.9258 7.41051C43.7766 7.4536 43.6059 7.49171 43.4137 7.52486C43.2215 7.55469 43.0342 7.58286 42.8519 7.60938C42.6696 7.63258 42.5172 7.65246 42.3945 7.66903C42.1062 7.70549 41.8427 7.76681 41.604 7.85298C41.3687 7.93916 41.1798 8.06345 41.0373 8.22585C40.8981 8.38494 40.8285 8.59706 40.8285 8.86222C40.8285 9.23011 40.9644 9.50852 41.2362 9.69744C41.5079 9.88305 41.8543 9.97585 42.2752 9.97585ZM53.4228 5.22798L52.0755 5.46662C52.0191 5.29427 51.9296 5.13021 51.807 4.97443C51.6877 4.81865 51.5253 4.69105 51.3198 4.59162C51.1143 4.49219 50.8574 4.44247 50.5492 4.44247C50.1283 4.44247 49.7769 4.53693 49.4952 4.72585C49.2135 4.91146 49.0726 5.15175 49.0726 5.44673C49.0726 5.70194 49.1671 5.90743 49.356 6.06321C49.5449 6.21899 49.8498 6.34659 50.2708 6.44602L51.4838 6.72443C52.1865 6.88684 52.7102 7.13707 53.0549 7.47514C53.3996 7.81321 53.5719 8.25237 53.5719 8.79261C53.5719 9.25 53.4393 9.65767 53.1742 10.0156C52.9123 10.3703 52.5461 10.6487 52.0755 10.8509C51.6081 11.053 51.0662 11.1541 50.4498 11.1541C49.5946 11.1541 48.897 10.9718 48.3567 10.6072C47.8165 10.2393 47.485 9.71733 47.3624 9.04119L48.7992 8.82244C48.8887 9.19697 49.0726 9.48035 49.351 9.67259C49.6294 9.86151 49.9924 9.95597 50.4398 9.95597C50.927 9.95597 51.3165 9.85488 51.6081 9.6527C51.8998 9.44721 52.0456 9.19697 52.0456 8.90199C52.0456 8.66335 51.9561 8.46283 51.7772 8.30043C51.6015 8.13802 51.3314 8.01539 50.9668 7.93253L49.6742 7.64915C48.9616 7.48674 48.4346 7.22822 48.0932 6.87358C47.7551 6.51894 47.5861 6.06984 47.5861 5.52628C47.5861 5.07552 47.7121 4.68111 47.964 4.34304C48.2158 4.00497 48.5639 3.74148 49.008 3.55256C49.4521 3.36032 49.9609 3.2642 50.5343 3.2642C51.3596 3.2642 52.0092 3.44318 52.4831 3.80114C52.9571 4.15578 53.2703 4.63139 53.4228 5.22798ZM56.6928 6.46591V11H55.2063V0.818182H56.6729V4.60653H56.7674C56.9464 4.19555 57.2198 3.86908 57.5877 3.62713C57.9556 3.38518 58.4362 3.2642 59.0295 3.2642C59.5531 3.2642 60.0105 3.37192 60.4016 3.58736C60.796 3.80279 61.101 4.12429 61.3164 4.55185C61.5352 4.97609 61.6445 5.50639 61.6445 6.14276V11H60.158V6.32173C60.158 5.7616 60.0138 5.32741 59.7255 5.01918C59.4371 4.70762 59.0361 4.55185 58.5224 4.55185C58.171 4.55185 57.8562 4.62642 57.5778 4.77557C57.3027 4.92472 57.0856 5.14347 56.9265 5.43182C56.7707 5.71686 56.6928 6.06155 56.6928 6.46591ZM68.1275 6.05327V7.34091H63.6133V6.05327H68.1275ZM72.9673 11.1491C72.3509 11.1491 71.8007 10.9917 71.3168 10.6768C70.8362 10.3587 70.4583 9.90625 70.1832 9.3196C69.9115 8.72964 69.7756 8.02202 69.7756 7.19673C69.7756 6.37145 69.9131 5.66548 70.1882 5.07884C70.4666 4.49219 70.8478 4.04309 71.3317 3.73153C71.8156 3.41998 72.3641 3.2642 72.9773 3.2642C73.4512 3.2642 73.8324 3.34375 74.1207 3.50284C74.4124 3.65862 74.6378 3.84091 74.7969 4.04972C74.9593 4.25852 75.0852 4.44247 75.1747 4.60156H75.2642V0.818182H76.7507V11H75.299V9.81179H75.1747C75.0852 9.9742 74.956 10.1598 74.7869 10.3686C74.6212 10.5774 74.3925 10.7597 74.1009 10.9155C73.8092 11.0713 73.4313 11.1491 72.9673 11.1491ZM73.2955 9.88139C73.723 9.88139 74.0843 9.7687 74.3793 9.54332C74.6776 9.31463 74.9029 8.99811 75.0554 8.59375C75.2112 8.18939 75.2891 7.71875 75.2891 7.18182C75.2891 6.65151 75.2128 6.1875 75.0604 5.78977C74.9079 5.39205 74.6842 5.08215 74.3892 4.86009C74.0942 4.63802 73.7296 4.52699 73.2955 4.52699C72.848 4.52699 72.4751 4.64299 72.1768 4.875C71.8786 5.10701 71.6532 5.42353 71.5007 5.82457C71.3516 6.22562 71.277 6.67803 71.277 7.18182C71.277 7.69223 71.3532 8.15128 71.5057 8.55895C71.6581 8.96662 71.8835 9.28977 72.1818 9.52841C72.4834 9.76373 72.8546 9.88139 73.2955 9.88139ZM78.8723 11V3.36364H80.3091V4.5767H80.3887C80.5279 4.16572 80.7731 3.84257 81.1245 3.60724C81.4791 3.36861 81.8801 3.24929 82.3276 3.24929C82.4204 3.24929 82.5298 3.2526 82.6557 3.25923C82.785 3.26586 82.8861 3.27415 82.959 3.28409V4.70597C82.8993 4.68939 82.7933 4.67116 82.6408 4.65128C82.4883 4.62808 82.3359 4.61648 82.1834 4.61648C81.8321 4.61648 81.5189 4.69105 81.2438 4.8402C80.972 4.98603 80.7566 5.18987 80.5975 5.4517C80.4384 5.71023 80.3588 6.00521 80.3588 6.33665V11H78.8723ZM84.2454 11V3.36364H85.7319V11H84.2454ZM84.9961 2.18537C84.7376 2.18537 84.5155 2.09919 84.3299 1.92685C84.1476 1.75118 84.0565 1.54238 84.0565 1.30043C84.0565 1.05516 84.1476 0.846354 84.3299 0.674005C84.5155 0.498342 84.7376 0.410511 84.9961 0.410511C85.2546 0.410511 85.475 0.498342 85.6573 0.674005C85.8429 0.846354 85.9357 1.05516 85.9357 1.30043C85.9357 1.54238 85.8429 1.75118 85.6573 1.92685C85.475 2.09919 85.2546 2.18537 84.9961 2.18537ZM94.2644 3.36364L91.4952 11H89.9043L87.1301 3.36364H88.726L90.66 9.24006H90.7395L92.6685 3.36364H94.2644ZM98.6928 11.1541C97.9405 11.1541 97.2925 10.9934 96.7489 10.6719C96.2087 10.3471 95.7911 9.89134 95.4961 9.30469C95.2044 8.71473 95.0586 8.02367 95.0586 7.23153C95.0586 6.44934 95.2044 5.75994 95.4961 5.16335C95.7911 4.56676 96.2021 4.10109 96.729 3.76633C97.2594 3.43158 97.8791 3.2642 98.5884 3.2642C99.0193 3.2642 99.4369 3.33546 99.8413 3.47798C100.246 3.6205 100.609 3.84422 100.93 4.14915C101.252 4.45407 101.505 4.85014 101.691 5.33736C101.876 5.82126 101.969 6.40956 101.969 7.10227V7.62926H95.8988V6.51562H100.512C100.512 6.12453 100.433 5.77817 100.274 5.47656C100.115 5.17164 99.891 4.93134 99.6026 4.75568C99.3176 4.58002 98.9828 4.49219 98.5984 4.49219C98.1808 4.49219 97.8162 4.59493 97.5046 4.80043C97.1964 5.0026 96.9577 5.26776 96.7887 5.59588C96.623 5.92069 96.5401 6.27367 96.5401 6.65483V7.52486C96.5401 8.03527 96.6296 8.46946 96.8086 8.82741C96.9909 9.18537 97.2444 9.45881 97.5692 9.64773C97.8941 9.83333 98.2736 9.92614 98.7077 9.92614C98.9895 9.92614 99.2463 9.88636 99.4783 9.80682C99.7103 9.72396 99.9109 9.60133 100.08 9.43892C100.249 9.27652 100.378 9.07599 100.468 8.83736L101.875 9.09091C101.762 9.50521 101.56 9.86813 101.268 10.1797C100.98 10.4879 100.617 10.7282 100.179 10.9006C99.7451 11.0696 99.2496 11.1541 98.6928 11.1541Z" fill="black"/>
</svg>
