<svg viewBox="0 0 79 14" fill="none" stroke-width="2" stroke="currentColor" aria-hidden="true">
  <path d="M-0.000710189 13.8636V3.36364H1.45099V4.60156H1.57528C1.66146 4.44247 1.78575 4.25852 1.94815 4.04972C2.11056 3.84091 2.33594 3.65862 2.62429 3.50284C2.91264 3.34375 3.2938 3.2642 3.76776 3.2642C4.38423 3.2642 4.93442 3.41998 5.41832 3.73153C5.90223 4.04309 6.28172 4.49219 6.55682 5.07884C6.83523 5.66548 6.97443 6.37145 6.97443 7.19673C6.97443 8.02202 6.83688 8.72964 6.56179 9.3196C6.2867 9.90625 5.90885 10.3587 5.42827 10.6768C4.94768 10.9917 4.39915 11.1491 3.78267 11.1491C3.31866 11.1491 2.93916 11.0713 2.64418 10.9155C2.35251 10.7597 2.12382 10.5774 1.9581 10.3686C1.79238 10.1598 1.66477 9.9742 1.57528 9.81179H1.4858V13.8636H-0.000710189ZM1.45597 7.18182C1.45597 7.71875 1.53385 8.18939 1.68963 8.59375C1.84541 8.99811 2.07079 9.31463 2.36577 9.54332C2.66075 9.7687 3.02202 9.88139 3.44957 9.88139C3.8937 9.88139 4.26491 9.76373 4.56321 9.52841C4.86151 9.28977 5.08688 8.96662 5.23935 8.55895C5.39512 8.15128 5.47301 7.69223 5.47301 7.18182C5.47301 6.67803 5.39678 6.22562 5.24432 5.82457C5.09517 5.42353 4.86979 5.10701 4.56818 4.875C4.26989 4.64299 3.89702 4.52699 3.44957 4.52699C3.0187 4.52699 2.65412 4.63802 2.35582 4.86009C2.06084 5.08215 1.83712 5.39205 1.68466 5.78977C1.5322 6.1875 1.45597 6.65151 1.45597 7.18182ZM10.1264 0.818182V11H8.63991V0.818182H10.1264ZM14.3485 11.169C13.8646 11.169 13.4271 11.0795 13.036 10.9006C12.6449 10.7183 12.335 10.4548 12.1064 10.1101C11.881 9.76539 11.7683 9.3428 11.7683 8.84233C11.7683 8.41146 11.8511 8.05682 12.0169 7.77841C12.1826 7.5 12.4063 7.27959 12.688 7.11719C12.9698 6.95478 13.2846 6.83215 13.6326 6.74929C13.9806 6.66643 14.3353 6.60346 14.6966 6.56037C15.1539 6.50734 15.5252 6.46425 15.8102 6.43111C16.0952 6.39465 16.3024 6.33665 16.4316 6.2571C16.5609 6.17756 16.6255 6.0483 16.6255 5.86932V5.83452C16.6255 5.40033 16.5029 5.06392 16.2576 4.82528C16.0157 4.58665 15.6544 4.46733 15.1738 4.46733C14.6734 4.46733 14.2789 4.57836 13.9906 4.80043C13.7056 5.01918 13.5083 5.26278 13.399 5.53125L12.002 5.21307C12.1677 4.74905 12.4096 4.37453 12.7278 4.08949C13.0493 3.80114 13.4189 3.59233 13.8365 3.46307C14.2541 3.33049 14.6932 3.2642 15.1539 3.2642C15.4589 3.2642 15.782 3.30066 16.1234 3.37358C16.4681 3.44318 16.7896 3.57244 17.0879 3.76136C17.3895 3.95028 17.6364 4.22041 17.8287 4.57173C18.0209 4.91974 18.117 5.37216 18.117 5.92898V11H16.6653V9.95597H16.6056C16.5095 10.1482 16.3654 10.3371 16.1731 10.5227C15.9809 10.7083 15.734 10.8625 15.4324 10.9851C15.1307 11.1077 14.7695 11.169 14.3485 11.169ZM14.6717 9.97585C15.0827 9.97585 15.434 9.89465 15.7257 9.73224C16.0207 9.56984 16.2444 9.35772 16.3968 9.09588C16.5526 8.83073 16.6305 8.54735 16.6305 8.24574V7.26136C16.5775 7.31439 16.4747 7.36411 16.3223 7.41051C16.1731 7.4536 16.0024 7.49171 15.8102 7.52486C15.618 7.55469 15.4307 7.58286 15.2484 7.60938C15.0661 7.63258 14.9136 7.65246 14.791 7.66903C14.5027 7.70549 14.2392 7.76681 14.0005 7.85298C13.7652 7.93916 13.5763 8.06345 13.4338 8.22585C13.2946 8.38494 13.225 8.59706 13.225 8.86222C13.225 9.23011 13.3609 9.50852 13.6326 9.69744C13.9044 9.88305 14.2508 9.97585 14.6717 9.97585ZM20.7631 13.8636C20.5411 13.8636 20.3389 13.8454 20.1566 13.8089C19.9743 13.7758 19.8384 13.7393 19.7489 13.6996L20.1069 12.4815C20.3787 12.5545 20.6206 12.5859 20.8327 12.576C21.0449 12.5661 21.2321 12.4865 21.3945 12.3374C21.5603 12.1882 21.7061 11.9446 21.832 11.6065L22.016 11.0994L19.2219 3.36364H20.8129L22.7468 9.28977H22.8263L24.7603 3.36364H26.3562L23.2092 12.0192C23.0633 12.4169 22.8777 12.7533 22.6523 13.0284C22.427 13.3068 22.1585 13.5156 21.8469 13.6548C21.5354 13.794 21.1741 13.8636 20.7631 13.8636ZM32.2525 6.05327V7.34091H27.7383V6.05327H32.2525ZM39.956 5.22798L38.6087 5.46662C38.5523 5.29427 38.4628 5.13021 38.3402 4.97443C38.2209 4.81865 38.0585 4.69105 37.853 4.59162C37.6475 4.49219 37.3906 4.44247 37.0824 4.44247C36.6615 4.44247 36.3101 4.53693 36.0284 4.72585C35.7467 4.91146 35.6058 5.15175 35.6058 5.44673C35.6058 5.70194 35.7003 5.90743 35.8892 6.06321C36.0781 6.21899 36.383 6.34659 36.804 6.44602L38.017 6.72443C38.7197 6.88684 39.2434 7.13707 39.5881 7.47514C39.9328 7.81321 40.1051 8.25237 40.1051 8.79261C40.1051 9.25 39.9725 9.65767 39.7074 10.0156C39.4455 10.3703 39.0793 10.6487 38.6087 10.8509C38.1413 11.053 37.5994 11.1541 36.983 11.1541C36.1278 11.1541 35.4302 10.9718 34.8899 10.6072C34.3497 10.2393 34.0182 9.71733 33.8956 9.04119L35.3324 8.82244C35.4219 9.19697 35.6058 9.48035 35.8842 9.67259C36.1626 9.86151 36.5256 9.95597 36.973 9.95597C37.4602 9.95597 37.8497 9.85488 38.1413 9.6527C38.433 9.44721 38.5788 9.19697 38.5788 8.90199C38.5788 8.66335 38.4893 8.46283 38.3104 8.30043C38.1347 8.13802 37.8646 8.01539 37.5 7.93253L36.2074 7.64915C35.4948 7.48674 34.9678 7.22822 34.6264 6.87358C34.2884 6.51894 34.1193 6.06984 34.1193 5.52628C34.1193 5.07552 34.2453 4.68111 34.4972 4.34304C34.7491 4.00497 35.0971 3.74148 35.5412 3.55256C35.9853 3.36032 36.4941 3.2642 37.0675 3.2642C37.8928 3.2642 38.5424 3.44318 39.0163 3.80114C39.4903 4.15578 39.8035 4.63139 39.956 5.22798ZM46.8951 13.8636V9.81179H46.8056C46.7161 9.9742 46.5868 10.1598 46.4178 10.3686C46.2521 10.5774 46.0234 10.7597 45.7317 10.9155C45.44 11.0713 45.0622 11.1491 44.5982 11.1491C43.9817 11.1491 43.4315 10.9917 42.9476 10.6768C42.467 10.3587 42.0892 9.90625 41.8141 9.3196C41.5423 8.72964 41.4064 8.02202 41.4064 7.19673C41.4064 6.37145 41.544 5.66548 41.8191 5.07884C42.0975 4.49219 42.4786 4.04309 42.9625 3.73153C43.4464 3.41998 43.995 3.2642 44.6081 3.2642C45.0821 3.2642 45.4632 3.34375 45.7516 3.50284C46.0433 3.65862 46.2686 3.84091 46.4277 4.04972C46.5901 4.25852 46.7161 4.44247 46.8056 4.60156H46.9299V3.36364H48.3816V13.8636H46.8951ZM44.9263 9.88139C45.3539 9.88139 45.7151 9.7687 46.0101 9.54332C46.3084 9.31463 46.5338 8.99811 46.6863 8.59375C46.842 8.18939 46.9199 7.71875 46.9199 7.18182C46.9199 6.65151 46.8437 6.1875 46.6912 5.78977C46.5388 5.39205 46.315 5.08215 46.0201 4.86009C45.7251 4.63802 45.3605 4.52699 44.9263 4.52699C44.4789 4.52699 44.106 4.64299 43.8077 4.875C43.5094 5.10701 43.284 5.42353 43.1316 5.82457C42.9824 6.22562 42.9078 6.67803 42.9078 7.18182C42.9078 7.69223 42.9841 8.15128 43.1365 8.55895C43.289 8.96662 43.5144 9.28977 43.8127 9.52841C44.1143 9.76373 44.4855 9.88139 44.9263 9.88139ZM55.2175 7.8331V3.36364H56.709V11H55.2473V9.67756H55.1678C54.9921 10.0852 54.7104 10.425 54.3226 10.6967C53.9382 10.9652 53.4592 11.0994 52.8858 11.0994C52.3953 11.0994 51.9611 10.9917 51.5833 10.7763C51.2087 10.5575 50.9138 10.2344 50.6983 9.80682C50.4862 9.37926 50.3801 8.85062 50.3801 8.22088V3.36364H51.8667V8.0419C51.8667 8.56226 52.0108 8.97656 52.2992 9.2848C52.5875 9.59304 52.9621 9.74716 53.4228 9.74716C53.7012 9.74716 53.9779 9.67756 54.253 9.53835C54.5314 9.39915 54.7618 9.18868 54.9441 8.90696C55.1297 8.62524 55.2208 8.26728 55.2175 7.8331ZM60.9286 11.169C60.4447 11.169 60.0072 11.0795 59.6161 10.9006C59.225 10.7183 58.9151 10.4548 58.6864 10.1101C58.4611 9.76539 58.3484 9.3428 58.3484 8.84233C58.3484 8.41146 58.4312 8.05682 58.5969 7.77841C58.7627 7.5 58.9864 7.27959 59.2681 7.11719C59.5498 6.95478 59.8647 6.83215 60.2127 6.74929C60.5607 6.66643 60.9154 6.60346 61.2766 6.56037C61.734 6.50734 62.1052 6.46425 62.3903 6.43111C62.6753 6.39465 62.8825 6.33665 63.0117 6.2571C63.141 6.17756 63.2056 6.0483 63.2056 5.86932V5.83452C63.2056 5.40033 63.083 5.06392 62.8377 4.82528C62.5958 4.58665 62.2345 4.46733 61.7539 4.46733C61.2534 4.46733 60.859 4.57836 60.5707 4.80043C60.2856 5.01918 60.0884 5.26278 59.979 5.53125L58.582 5.21307C58.7478 4.74905 58.9897 4.37453 59.3079 4.08949C59.6294 3.80114 59.9989 3.59233 60.4165 3.46307C60.8342 3.33049 61.2733 3.2642 61.734 3.2642C62.0389 3.2642 62.3621 3.30066 62.7035 3.37358C63.0482 3.44318 63.3697 3.57244 63.668 3.76136C63.9696 3.95028 64.2165 4.22041 64.4087 4.57173C64.601 4.91974 64.6971 5.37216 64.6971 5.92898V11H63.2454V9.95597H63.1857C63.0896 10.1482 62.9454 10.3371 62.7532 10.5227C62.561 10.7083 62.314 10.8625 62.0124 10.9851C61.7108 11.1077 61.3496 11.169 60.9286 11.169ZM61.2518 9.97585C61.6628 9.97585 62.0141 9.89465 62.3058 9.73224C62.6007 9.56984 62.8245 9.35772 62.9769 9.09588C63.1327 8.83073 63.2106 8.54735 63.2106 8.24574V7.26136C63.1576 7.31439 63.0548 7.36411 62.9023 7.41051C62.7532 7.4536 62.5825 7.49171 62.3903 7.52486C62.198 7.55469 62.0108 7.58286 61.8285 7.60938C61.6462 7.63258 61.4937 7.65246 61.3711 7.66903C61.0827 7.70549 60.8192 7.76681 60.5806 7.85298C60.3453 7.93916 60.1564 8.06345 60.0138 8.22585C59.8746 8.38494 59.805 8.59706 59.805 8.86222C59.805 9.23011 59.9409 9.50852 60.2127 9.69744C60.4845 9.88305 60.8308 9.97585 61.2518 9.97585ZM66.677 11V3.36364H68.1138V4.5767H68.1934C68.3326 4.16572 68.5778 3.84257 68.9292 3.60724C69.2838 3.36861 69.6848 3.24929 70.1323 3.24929C70.2251 3.24929 70.3345 3.2526 70.4604 3.25923C70.5897 3.26586 70.6908 3.27415 70.7637 3.28409V4.70597C70.704 4.68939 70.598 4.67116 70.4455 4.65128C70.293 4.62808 70.1406 4.61648 69.9881 4.61648C69.6368 4.61648 69.3236 4.69105 69.0485 4.8402C68.7767 4.98603 68.5613 5.18987 68.4022 5.4517C68.2431 5.71023 68.1635 6.00521 68.1635 6.33665V11H66.677ZM75.0678 11.1541C74.3155 11.1541 73.6675 10.9934 73.1239 10.6719C72.5837 10.3471 72.1661 9.89134 71.8711 9.30469C71.5794 8.71473 71.4336 8.02367 71.4336 7.23153C71.4336 6.44934 71.5794 5.75994 71.8711 5.16335C72.1661 4.56676 72.5771 4.10109 73.104 3.76633C73.6344 3.43158 74.2541 3.2642 74.9634 3.2642C75.3943 3.2642 75.8119 3.33546 76.2163 3.47798C76.6206 3.6205 76.9835 3.84422 77.305 4.14915C77.6265 4.45407 77.8801 4.85014 78.0657 5.33736C78.2513 5.82126 78.3441 6.40956 78.3441 7.10227V7.62926H72.2738V6.51562H76.8874C76.8874 6.12453 76.8079 5.77817 76.6488 5.47656C76.4897 5.17164 76.266 4.93134 75.9776 4.75568C75.6926 4.58002 75.3578 4.49219 74.9734 4.49219C74.5558 4.49219 74.1912 4.59493 73.8796 4.80043C73.5714 5.0026 73.3327 5.26776 73.1637 5.59588C72.998 5.92069 72.9151 6.27367 72.9151 6.65483V7.52486C72.9151 8.03527 73.0046 8.46946 73.1836 8.82741C73.3659 9.18537 73.6194 9.45881 73.9442 9.64773C74.2691 9.83333 74.6486 9.92614 75.0827 9.92614C75.3645 9.92614 75.6213 9.88636 75.8533 9.80682C76.0853 9.72396 76.2859 9.60133 76.4549 9.43892C76.6239 9.27652 76.7532 9.07599 76.8427 8.83736L78.2496 9.09091C78.137 9.50521 77.9348 9.86813 77.6431 10.1797C77.3548 10.4879 76.9918 10.7282 76.5543 10.9006C76.1201 11.0696 75.6246 11.1541 75.0678 11.1541Z" fill="black"/>
</svg>
