<svg viewBox="0 0 74 14" fill="none" stroke-width="2" stroke="currentColor" aria-hidden="true">
  <path d="M0.118608 11V0.818182H1.60511V4.60156H1.6946C1.78078 4.44247 1.90507 4.25852 2.06747 4.04972C2.22988 3.84091 2.45526 3.65862 2.74361 3.50284C3.03196 3.34375 3.41312 3.2642 3.88707 3.2642C4.50355 3.2642 5.05374 3.41998 5.53764 3.73153C6.02154 4.04309 6.40104 4.49219 6.67614 5.07884C6.95455 5.66548 7.09375 6.37145 7.09375 7.19673C7.09375 8.02202 6.9562 8.72964 6.68111 9.3196C6.40601 9.90625 6.02817 10.3587 5.54759 10.6768C5.067 10.9917 4.51847 11.1491 3.90199 11.1491C3.43797 11.1491 3.05848 11.0713 2.76349 10.9155C2.47183 10.7597 2.24313 10.5774 2.07741 10.3686C1.9117 10.1598 1.78409 9.9742 1.6946 9.81179H1.57031V11H0.118608ZM1.57528 7.18182C1.57528 7.71875 1.65317 8.18939 1.80895 8.59375C1.96473 8.99811 2.1901 9.31463 2.48509 9.54332C2.78007 9.7687 3.14134 9.88139 3.56889 9.88139C4.01302 9.88139 4.38423 9.76373 4.68253 9.52841C4.98082 9.28977 5.2062 8.96662 5.35866 8.55895C5.51444 8.15128 5.59233 7.69223 5.59233 7.18182C5.59233 6.67803 5.5161 6.22562 5.36364 5.82457C5.21449 5.42353 4.98911 5.10701 4.6875 4.875C4.3892 4.64299 4.01634 4.52699 3.56889 4.52699C3.13802 4.52699 2.77344 4.63802 2.47514 4.86009C2.18016 5.08215 1.95644 5.39205 1.80398 5.78977C1.65152 6.1875 1.57528 6.65151 1.57528 7.18182ZM10.9853 11.169C10.5014 11.169 10.0639 11.0795 9.67276 10.9006C9.28166 10.7183 8.97177 10.4548 8.74308 10.1101C8.5177 9.76539 8.40501 9.3428 8.40501 8.84233C8.40501 8.41146 8.48787 8.05682 8.65359 7.77841C8.81931 7.5 9.04303 7.27959 9.32475 7.11719C9.60647 6.95478 9.92134 6.83215 10.2694 6.74929C10.6174 6.66643 10.972 6.60346 11.3333 6.56037C11.7907 6.50734 12.1619 6.46425 12.4469 6.43111C12.7319 6.39465 12.9391 6.33665 13.0684 6.2571C13.1976 6.17756 13.2623 6.0483 13.2623 5.86932V5.83452C13.2623 5.40033 13.1396 5.06392 12.8944 4.82528C12.6524 4.58665 12.2911 4.46733 11.8105 4.46733C11.3101 4.46733 10.9157 4.57836 10.6273 4.80043C10.3423 5.01918 10.1451 5.26278 10.0357 5.53125L8.63867 5.21307C8.80439 4.74905 9.04634 4.37453 9.36452 4.08949C9.68602 3.80114 10.0556 3.59233 10.4732 3.46307C10.8908 3.33049 11.33 3.2642 11.7907 3.2642C12.0956 3.2642 12.4187 3.30066 12.7601 3.37358C13.1048 3.44318 13.4263 3.57244 13.7246 3.76136C14.0262 3.95028 14.2731 4.22041 14.4654 4.57173C14.6576 4.91974 14.7537 5.37216 14.7537 5.92898V11H13.302V9.95597H13.2424C13.1462 10.1482 13.0021 10.3371 12.8098 10.5227C12.6176 10.7083 12.3707 10.8625 12.0691 10.9851C11.7675 11.1077 11.4062 11.169 10.9853 11.169ZM11.3084 9.97585C11.7194 9.97585 12.0707 9.89465 12.3624 9.73224C12.6574 9.56984 12.8811 9.35772 13.0336 9.09588C13.1893 8.83073 13.2672 8.54735 13.2672 8.24574V7.26136C13.2142 7.31439 13.1114 7.36411 12.959 7.41051C12.8098 7.4536 12.6391 7.49171 12.4469 7.52486C12.2547 7.55469 12.0674 7.58286 11.8851 7.60938C11.7028 7.63258 11.5504 7.65246 11.4277 7.66903C11.1394 7.70549 10.8759 7.76681 10.6373 7.85298C10.4019 7.93916 10.213 8.06345 10.0705 8.22585C9.93129 8.38494 9.86168 8.59706 9.86168 8.86222C9.86168 9.23011 9.99757 9.50852 10.2694 9.69744C10.5411 9.88305 10.8875 9.97585 11.3084 9.97585ZM20.2983 3.36364V4.55682H16.1271V3.36364H20.2983ZM17.2457 1.53409H18.7322V8.75781C18.7322 9.04616 18.7753 9.26326 18.8615 9.40909C18.9477 9.55161 19.0587 9.64938 19.1946 9.70241C19.3338 9.75213 19.4846 9.77699 19.647 9.77699C19.7663 9.77699 19.8707 9.7687 19.9602 9.75213C20.0497 9.73556 20.1193 9.7223 20.169 9.71236L20.4375 10.9403C20.3513 10.9735 20.2287 11.0066 20.0696 11.0398C19.9105 11.0762 19.7116 11.0961 19.473 11.0994C19.0819 11.1061 18.7173 11.0365 18.3793 10.8906C18.0412 10.7448 17.7678 10.5194 17.5589 10.2145C17.3501 9.90956 17.2457 9.52675 17.2457 9.06605V1.53409ZM25.5073 3.36364V4.55682H21.3361V3.36364H25.5073ZM22.4547 1.53409H23.9412V8.75781C23.9412 9.04616 23.9843 9.26326 24.0705 9.40909C24.1567 9.55161 24.2677 9.64938 24.4036 9.70241C24.5428 9.75213 24.6936 9.77699 24.856 9.77699C24.9753 9.77699 25.0797 9.7687 25.1692 9.75213C25.2587 9.73556 25.3283 9.7223 25.378 9.71236L25.6465 10.9403C25.5603 10.9735 25.4377 11.0066 25.2786 11.0398C25.1195 11.0762 24.9206 11.0961 24.682 11.0994C24.2909 11.1061 23.9263 11.0365 23.5882 10.8906C23.2502 10.7448 22.9767 10.5194 22.7679 10.2145C22.5591 9.90956 22.4547 9.52675 22.4547 9.06605V1.53409ZM30.3608 11.1541C29.6084 11.1541 28.9605 10.9934 28.4169 10.6719C27.8767 10.3471 27.459 9.89134 27.1641 9.30469C26.8724 8.71473 26.7266 8.02367 26.7266 7.23153C26.7266 6.44934 26.8724 5.75994 27.1641 5.16335C27.459 4.56676 27.87 4.10109 28.397 3.76633C28.9273 3.43158 29.5471 3.2642 30.2564 3.2642C30.6873 3.2642 31.1049 3.33546 31.5092 3.47798C31.9136 3.6205 32.2765 3.84422 32.598 4.14915C32.9195 4.45407 33.1731 4.85014 33.3587 5.33736C33.5443 5.82126 33.6371 6.40956 33.6371 7.10227V7.62926H27.5668V6.51562H32.1804C32.1804 6.12453 32.1009 5.77817 31.9418 5.47656C31.7827 5.17164 31.5589 4.93134 31.2706 4.75568C30.9856 4.58002 30.6508 4.49219 30.2663 4.49219C29.8487 4.49219 29.4841 4.59493 29.1726 4.80043C28.8643 5.0026 28.6257 5.26776 28.4567 5.59588C28.291 5.92069 28.2081 6.27367 28.2081 6.65483V7.52486C28.2081 8.03527 28.2976 8.46946 28.4766 8.82741C28.6589 9.18537 28.9124 9.45881 29.2372 9.64773C29.562 9.83333 29.9415 9.92614 30.3757 9.92614C30.6574 9.92614 30.9143 9.88636 31.1463 9.80682C31.3783 9.72396 31.5788 9.60133 31.7479 9.43892C31.9169 9.27652 32.0462 9.07599 32.1357 8.83736L33.5426 9.09091C33.4299 9.50521 33.2277 9.86813 32.9361 10.1797C32.6477 10.4879 32.2848 10.7282 31.8473 10.9006C31.4131 11.0696 30.9176 11.1541 30.3608 11.1541ZM35.2864 11V3.36364H36.7232V4.5767H36.8027C36.9419 4.16572 37.1872 3.84257 37.5385 3.60724C37.8932 3.36861 38.2942 3.24929 38.7417 3.24929C38.8345 3.24929 38.9438 3.2526 39.0698 3.25923C39.199 3.26586 39.3001 3.27415 39.373 3.28409V4.70597C39.3134 4.68939 39.2073 4.67116 39.0549 4.65128C38.9024 4.62808 38.7499 4.61648 38.5975 4.61648C38.2462 4.61648 37.9329 4.69105 37.6578 4.8402C37.3861 4.98603 37.1706 5.18987 37.0115 5.4517C36.8525 5.71023 36.7729 6.00521 36.7729 6.33665V11H35.2864ZM41.8315 13.8636C41.6094 13.8636 41.4073 13.8454 41.225 13.8089C41.0427 13.7758 40.9068 13.7393 40.8173 13.6996L41.1752 12.4815C41.447 12.5545 41.689 12.5859 41.9011 12.576C42.1132 12.5661 42.3005 12.4865 42.4629 12.3374C42.6286 12.1882 42.7744 11.9446 42.9004 11.6065L43.0843 11.0994L40.2903 3.36364H41.8812L43.8152 9.28977H43.8947L45.8287 3.36364H47.4245L44.2775 12.0192C44.1317 12.4169 43.9461 12.7533 43.7207 13.0284C43.4953 13.3068 43.2269 13.5156 42.9153 13.6548C42.6038 13.794 42.2425 13.8636 41.8315 13.8636ZM53.3208 6.05327V7.34091H48.8066V6.05327H53.3208ZM58.9363 3.36364V4.55682H54.6209V3.36364H58.9363ZM55.8042 11V2.47869C55.8042 2.00142 55.9086 1.60535 56.1174 1.29048C56.3262 0.972301 56.6029 0.735322 56.9476 0.579545C57.2923 0.420454 57.6668 0.340908 58.0712 0.340908C58.3695 0.340908 58.6247 0.365767 58.8368 0.415483C59.0489 0.461884 59.2064 0.504971 59.3091 0.544744L58.9611 1.74787C58.8915 1.72798 58.802 1.70478 58.6926 1.67827C58.5833 1.64844 58.4507 1.63352 58.2949 1.63352C57.9337 1.63352 57.6751 1.72301 57.5194 1.90199C57.3669 2.08097 57.2907 2.33949 57.2907 2.67756V11H55.8042ZM65.3074 7.8331V3.36364H66.7988V11H65.3372V9.67756H65.2576C65.082 10.0852 64.8002 10.425 64.4125 10.6967C64.028 10.9652 63.5491 11.0994 62.9757 11.0994C62.4851 11.0994 62.051 10.9917 61.6731 10.7763C61.2986 10.5575 61.0036 10.2344 60.7882 9.80682C60.5761 9.37926 60.47 8.85062 60.47 8.22088V3.36364H61.9565V8.0419C61.9565 8.56226 62.1007 8.97656 62.389 9.2848C62.6774 9.59304 63.0519 9.74716 63.5126 9.74716C63.791 9.74716 64.0678 9.67756 64.3429 9.53835C64.6213 9.39915 64.8516 9.18868 65.0339 8.90696C65.2195 8.62524 65.3107 8.26728 65.3074 7.8331ZM70.2827 0.818182V11H68.7962V0.818182H70.2827ZM73.769 0.818182V11H72.2825V0.818182H73.769Z" fill="black"/>
</svg>
