<svg viewBox="0 0 79 12" fill="none" stroke-width="2" stroke="currentColor" aria-hidden="true">
  <path d="M7.53196 3.36364L4.76278 11H3.17188L0.397727 3.36364H1.99361L3.92756 9.24006H4.0071L5.93608 3.36364H7.53196ZM11.8858 11.1541C11.1699 11.1541 10.5452 10.9901 10.0115 10.6619C9.47792 10.3338 9.06362 9.87476 8.76864 9.2848C8.47366 8.69484 8.32617 8.00544 8.32617 7.21662C8.32617 6.42448 8.47366 5.73177 8.76864 5.13849C9.06362 4.54522 9.47792 4.08452 10.0115 3.75639C10.5452 3.42827 11.1699 3.2642 11.8858 3.2642C12.6017 3.2642 13.2265 3.42827 13.7601 3.75639C14.2937 4.08452 14.708 4.54522 15.003 5.13849C15.298 5.73177 15.4455 6.42448 15.4455 7.21662C15.4455 8.00544 15.298 8.69484 15.003 9.2848C14.708 9.87476 14.2937 10.3338 13.7601 10.6619C13.2265 10.9901 12.6017 11.1541 11.8858 11.1541ZM11.8908 9.90625C12.3548 9.90625 12.7393 9.78362 13.0442 9.53835C13.3491 9.29309 13.5745 8.96662 13.7203 8.55895C13.8695 8.15128 13.9441 7.70218 13.9441 7.21165C13.9441 6.72443 13.8695 6.27699 13.7203 5.86932C13.5745 5.45833 13.3491 5.12855 13.0442 4.87997C12.7393 4.63139 12.3548 4.5071 11.8908 4.5071C11.4235 4.5071 11.0357 4.63139 10.7275 4.87997C10.4225 5.12855 10.1955 5.45833 10.0463 5.86932C9.90051 6.27699 9.82759 6.72443 9.82759 7.21165C9.82759 7.70218 9.90051 8.15128 10.0463 8.55895C10.1955 8.96662 10.4225 9.29309 10.7275 9.53835C11.0357 9.78362 11.4235 9.90625 11.8908 9.90625ZM18.5913 0.818182V11H17.1048V0.818182H18.5913ZM25.4284 7.8331V3.36364H26.9199V11H25.4583V9.67756H25.3787C25.2031 10.0852 24.9213 10.425 24.5336 10.6967C24.1491 10.9652 23.6702 11.0994 23.0968 11.0994C22.6062 11.0994 22.1721 10.9917 21.7942 10.7763C21.4197 10.5575 21.1247 10.2344 20.9093 9.80682C20.6971 9.37926 20.5911 8.85062 20.5911 8.22088V3.36364H22.0776V8.0419C22.0776 8.56226 22.2218 8.97656 22.5101 9.2848C22.7985 9.59304 23.173 9.74716 23.6337 9.74716C23.9121 9.74716 24.1889 9.67756 24.464 9.53835C24.7424 9.39915 24.9727 9.18868 25.155 8.90696C25.3406 8.62524 25.4318 8.26728 25.4284 7.8331ZM28.9173 11V3.36364H30.3441V4.60653H30.4386C30.5977 4.18561 30.8578 3.85748 31.2191 3.62216C31.5804 3.38352 32.0129 3.2642 32.5167 3.2642C33.0271 3.2642 33.4547 3.38352 33.7994 3.62216C34.1474 3.8608 34.4042 4.18892 34.57 4.60653H34.6495C34.8318 4.19886 35.1218 3.87405 35.5195 3.6321C35.9173 3.38684 36.3912 3.2642 36.9414 3.2642C37.6341 3.2642 38.1992 3.4813 38.6367 3.91548C39.0775 4.34967 39.2979 5.00426 39.2979 5.87926V11H37.8114V6.01847C37.8114 5.50142 37.6706 5.12689 37.3888 4.89489C37.1071 4.66288 36.7707 4.54688 36.3796 4.54688C35.8957 4.54688 35.5195 4.69602 35.2511 4.99432C34.9826 5.2893 34.8484 5.6688 34.8484 6.13281V11H33.3668V5.92401C33.3668 5.50971 33.2376 5.17661 32.979 4.92472C32.7205 4.67282 32.3841 4.54688 31.9698 4.54688C31.6881 4.54688 31.4279 4.62145 31.1893 4.7706C30.954 4.91643 30.7634 5.12026 30.6175 5.3821C30.475 5.64394 30.4038 5.94721 30.4038 6.2919V11H28.9173ZM44.5815 11.1541C43.8291 11.1541 43.1812 10.9934 42.6376 10.6719C42.0974 10.3471 41.6797 9.89134 41.3848 9.30469C41.0931 8.71473 40.9473 8.02367 40.9473 7.23153C40.9473 6.44934 41.0931 5.75994 41.3848 5.16335C41.6797 4.56676 42.0907 4.10109 42.6177 3.76633C43.148 3.43158 43.7678 3.2642 44.4771 3.2642C44.908 3.2642 45.3256 3.33546 45.7299 3.47798C46.1343 3.6205 46.4972 3.84422 46.8187 4.14915C47.1402 4.45407 47.3938 4.85014 47.5794 5.33736C47.765 5.82126 47.8578 6.40956 47.8578 7.10227V7.62926H41.7875V6.51562H46.4011C46.4011 6.12453 46.3216 5.77817 46.1625 5.47656C46.0034 5.17164 45.7797 4.93134 45.4913 4.75568C45.2063 4.58002 44.8715 4.49219 44.487 4.49219C44.0694 4.49219 43.7048 4.59493 43.3933 4.80043C43.085 5.0026 42.8464 5.26776 42.6774 5.59588C42.5117 5.92069 42.4288 6.27367 42.4288 6.65483V7.52486C42.4288 8.03527 42.5183 8.46946 42.6973 8.82741C42.8796 9.18537 43.1331 9.45881 43.4579 9.64773C43.7827 9.83333 44.1622 9.92614 44.5964 9.92614C44.8781 9.92614 45.135 9.88636 45.367 9.80682C45.599 9.72396 45.7995 9.60133 45.9686 9.43892C46.1376 9.27652 46.2669 9.07599 46.3564 8.83736L47.7633 9.09091C47.6506 9.50521 47.4484 9.86813 47.1568 10.1797C46.8684 10.4879 46.5055 10.7282 46.068 10.9006C45.6338 11.0696 45.1383 11.1541 44.5815 11.1541ZM54.0064 6.05327V7.34091H49.4922V6.05327H54.0064ZM55.9876 11V3.36364H57.4144V4.60653H57.5089C57.668 4.18561 57.9281 3.85748 58.2894 3.62216C58.6507 3.38352 59.0832 3.2642 59.587 3.2642C60.0974 3.2642 60.525 3.38352 60.8697 3.62216C61.2177 3.8608 61.4746 4.18892 61.6403 4.60653H61.7198C61.9021 4.19886 62.1921 3.87405 62.5898 3.6321C62.9876 3.38684 63.4615 3.2642 64.0117 3.2642C64.7044 3.2642 65.2695 3.4813 65.707 3.91548C66.1478 4.34967 66.3683 5.00426 66.3683 5.87926V11H64.8817V6.01847C64.8817 5.50142 64.7409 5.12689 64.4592 4.89489C64.1774 4.66288 63.841 4.54688 63.4499 4.54688C62.966 4.54688 62.5898 4.69602 62.3214 4.99432C62.0529 5.2893 61.9187 5.6688 61.9187 6.13281V11H60.4371V5.92401C60.4371 5.50971 60.3079 5.17661 60.0494 4.92472C59.7908 4.67282 59.4544 4.54688 59.0401 4.54688C58.7584 4.54688 58.4982 4.62145 58.2596 4.7706C58.0243 4.91643 57.8337 5.12026 57.6879 5.3821C57.5453 5.64394 57.4741 5.94721 57.4741 6.2919V11H55.9876ZM68.3606 11V3.36364H69.8471V11H68.3606ZM69.1113 2.18537C68.8528 2.18537 68.6307 2.09919 68.4451 1.92685C68.2628 1.75118 68.1717 1.54238 68.1717 1.30043C68.1717 1.05516 68.2628 0.846354 68.4451 0.674005C68.6307 0.498342 68.8528 0.410511 69.1113 0.410511C69.3699 0.410511 69.5903 0.498342 69.7725 0.674005C69.9582 0.846354 70.051 1.05516 70.051 1.30043C70.051 1.54238 69.9582 1.75118 69.7725 1.92685C69.5903 2.09919 69.3699 2.18537 69.1113 2.18537ZM73.3335 6.46591V11H71.8469V3.36364H73.2738V4.60653H73.3683C73.5439 4.20218 73.819 3.87737 74.1935 3.6321C74.5714 3.38684 75.047 3.2642 75.6204 3.2642C76.1407 3.2642 76.5965 3.37358 76.9876 3.59233C77.3787 3.80777 77.6819 4.12926 77.8974 4.55682C78.1128 4.98437 78.2205 5.51302 78.2205 6.14276V11H76.734V6.32173C76.734 5.76823 76.5898 5.3357 76.3015 5.02415C76.0131 4.70928 75.6171 4.55185 75.1133 4.55185C74.7686 4.55185 74.462 4.62642 74.1935 4.77557C73.9284 4.92472 73.7179 5.14347 73.5621 5.43182C73.4097 5.71686 73.3335 6.06155 73.3335 6.46591Z" fill="black"/>
</svg>
