<svg viewBox="0 0 69 14" fill="none" stroke-width="2" stroke="currentColor" aria-hidden="true">
  <path d="M-0.000710189 13.8636V3.36364H1.45099V4.60156H1.57528C1.66146 4.44247 1.78575 4.25852 1.94815 4.04972C2.11056 3.84091 2.33594 3.65862 2.62429 3.50284C2.91264 3.34375 3.2938 3.2642 3.76776 3.2642C4.38423 3.2642 4.93442 3.41998 5.41832 3.73153C5.90223 4.04309 6.28172 4.49219 6.55682 5.07884C6.83523 5.66548 6.97443 6.37145 6.97443 7.19673C6.97443 8.02202 6.83688 8.72964 6.56179 9.3196C6.2867 9.90625 5.90885 10.3587 5.42827 10.6768C4.94768 10.9917 4.39915 11.1491 3.78267 11.1491C3.31866 11.1491 2.93916 11.0713 2.64418 10.9155C2.35251 10.7597 2.12382 10.5774 1.9581 10.3686C1.79238 10.1598 1.66477 9.9742 1.57528 9.81179H1.4858V13.8636H-0.000710189ZM1.45597 7.18182C1.45597 7.71875 1.53385 8.18939 1.68963 8.59375C1.84541 8.99811 2.07079 9.31463 2.36577 9.54332C2.66075 9.7687 3.02202 9.88139 3.44957 9.88139C3.8937 9.88139 4.26491 9.76373 4.56321 9.52841C4.86151 9.28977 5.08688 8.96662 5.23935 8.55895C5.39512 8.15128 5.47301 7.69223 5.47301 7.18182C5.47301 6.67803 5.39678 6.22562 5.24432 5.82457C5.09517 5.42353 4.86979 5.10701 4.56818 4.875C4.26989 4.64299 3.89702 4.52699 3.44957 4.52699C3.0187 4.52699 2.65412 4.63802 2.35582 4.86009C2.06084 5.08215 1.83712 5.39205 1.68466 5.78977C1.5322 6.1875 1.45597 6.65151 1.45597 7.18182ZM10.1264 0.818182V11H8.63991V0.818182H10.1264ZM14.3485 11.169C13.8646 11.169 13.4271 11.0795 13.036 10.9006C12.6449 10.7183 12.335 10.4548 12.1064 10.1101C11.881 9.76539 11.7683 9.3428 11.7683 8.84233C11.7683 8.41146 11.8511 8.05682 12.0169 7.77841C12.1826 7.5 12.4063 7.27959 12.688 7.11719C12.9698 6.95478 13.2846 6.83215 13.6326 6.74929C13.9806 6.66643 14.3353 6.60346 14.6966 6.56037C15.1539 6.50734 15.5252 6.46425 15.8102 6.43111C16.0952 6.39465 16.3024 6.33665 16.4316 6.2571C16.5609 6.17756 16.6255 6.0483 16.6255 5.86932V5.83452C16.6255 5.40033 16.5029 5.06392 16.2576 4.82528C16.0157 4.58665 15.6544 4.46733 15.1738 4.46733C14.6734 4.46733 14.2789 4.57836 13.9906 4.80043C13.7056 5.01918 13.5083 5.26278 13.399 5.53125L12.002 5.21307C12.1677 4.74905 12.4096 4.37453 12.7278 4.08949C13.0493 3.80114 13.4189 3.59233 13.8365 3.46307C14.2541 3.33049 14.6932 3.2642 15.1539 3.2642C15.4589 3.2642 15.782 3.30066 16.1234 3.37358C16.4681 3.44318 16.7896 3.57244 17.0879 3.76136C17.3895 3.95028 17.6364 4.22041 17.8287 4.57173C18.0209 4.91974 18.117 5.37216 18.117 5.92898V11H16.6653V9.95597H16.6056C16.5095 10.1482 16.3654 10.3371 16.1731 10.5227C15.9809 10.7083 15.734 10.8625 15.4324 10.9851C15.1307 11.1077 14.7695 11.169 14.3485 11.169ZM14.6717 9.97585C15.0827 9.97585 15.434 9.89465 15.7257 9.73224C16.0207 9.56984 16.2444 9.35772 16.3968 9.09588C16.5526 8.83073 16.6305 8.54735 16.6305 8.24574V7.26136C16.5775 7.31439 16.4747 7.36411 16.3223 7.41051C16.1731 7.4536 16.0024 7.49171 15.8102 7.52486C15.618 7.55469 15.4307 7.58286 15.2484 7.60938C15.0661 7.63258 14.9136 7.65246 14.791 7.66903C14.5027 7.70549 14.2392 7.76681 14.0005 7.85298C13.7652 7.93916 13.5763 8.06345 13.4338 8.22585C13.2946 8.38494 13.225 8.59706 13.225 8.86222C13.225 9.23011 13.3609 9.50852 13.6326 9.69744C13.9044 9.88305 14.2508 9.97585 14.6717 9.97585ZM20.7631 13.8636C20.5411 13.8636 20.3389 13.8454 20.1566 13.8089C19.9743 13.7758 19.8384 13.7393 19.7489 13.6996L20.1069 12.4815C20.3787 12.5545 20.6206 12.5859 20.8327 12.576C21.0449 12.5661 21.2321 12.4865 21.3945 12.3374C21.5603 12.1882 21.7061 11.9446 21.832 11.6065L22.016 11.0994L19.2219 3.36364H20.8129L22.7468 9.28977H22.8263L24.7603 3.36364H26.3562L23.2092 12.0192C23.0633 12.4169 22.8777 12.7533 22.6523 13.0284C22.427 13.3068 22.1585 13.5156 21.8469 13.6548C21.5354 13.794 21.1741 13.8636 20.7631 13.8636ZM32.2525 6.05327V7.34091H27.7383V6.05327H32.2525ZM37.4503 11.1541C36.7112 11.1541 36.0748 10.9867 35.5412 10.652C35.0109 10.3139 34.6032 9.84825 34.3182 9.25497C34.0331 8.66169 33.8906 7.98224 33.8906 7.21662C33.8906 6.44105 34.0365 5.75663 34.3281 5.16335C34.6198 4.56676 35.0308 4.10109 35.5611 3.76633C36.0914 3.43158 36.7161 3.2642 37.4354 3.2642C38.0154 3.2642 38.5324 3.37192 38.9865 3.58736C39.4406 3.79948 39.8068 4.09777 40.0852 4.48224C40.367 4.86671 40.5343 5.31581 40.5874 5.82955H39.1406C39.0611 5.47159 38.8788 5.16335 38.5938 4.90483C38.312 4.64631 37.9342 4.51705 37.4602 4.51705C37.0459 4.51705 36.683 4.62642 36.3714 4.84517C36.0632 5.06061 35.8229 5.36884 35.6506 5.76989C35.4782 6.16761 35.392 6.63826 35.392 7.18182C35.392 7.73864 35.4766 8.21922 35.6456 8.62358C35.8146 9.02794 36.0533 9.34115 36.3615 9.56321C36.6731 9.78527 37.0393 9.89631 37.4602 9.89631C37.742 9.89631 37.9972 9.84493 38.2259 9.74219C38.4579 9.63613 38.6518 9.48532 38.8075 9.28977C38.9666 9.09422 39.0777 8.8589 39.1406 8.58381H40.5874C40.5343 9.07765 40.3736 9.51847 40.1051 9.90625C39.8366 10.294 39.477 10.599 39.0263 10.821C38.5788 11.0431 38.0535 11.1541 37.4503 11.1541ZM42.177 11V3.36364H43.6635V11H42.177ZM42.9277 2.18537C42.6692 2.18537 42.4471 2.09919 42.2615 1.92685C42.0792 1.75118 41.9881 1.54238 41.9881 1.30043C41.9881 1.05516 42.0792 0.846354 42.2615 0.674005C42.4471 0.498342 42.6692 0.410511 42.9277 0.410511C43.1863 0.410511 43.4067 0.498342 43.589 0.674005C43.7746 0.846354 43.8674 1.05516 43.8674 1.30043C43.8674 1.54238 43.7746 1.75118 43.589 1.92685C43.4067 2.09919 43.1863 2.18537 42.9277 2.18537ZM45.6634 11V3.36364H47.1001V4.5767H47.1797C47.3189 4.16572 47.5642 3.84257 47.9155 3.60724C48.2701 3.36861 48.6712 3.24929 49.1186 3.24929C49.2114 3.24929 49.3208 3.2526 49.4467 3.25923C49.576 3.26586 49.6771 3.27415 49.75 3.28409V4.70597C49.6903 4.68939 49.5843 4.67116 49.4318 4.65128C49.2794 4.62808 49.1269 4.61648 48.9744 4.61648C48.6231 4.61648 48.3099 4.69105 48.0348 4.8402C47.763 4.98603 47.5476 5.18987 47.3885 5.4517C47.2294 5.71023 47.1499 6.00521 47.1499 6.33665V11H45.6634ZM53.9796 11.1541C53.2405 11.1541 52.6041 10.9867 52.0705 10.652C51.5402 10.3139 51.1325 9.84825 50.8475 9.25497C50.5624 8.66169 50.4199 7.98224 50.4199 7.21662C50.4199 6.44105 50.5658 5.75663 50.8574 5.16335C51.1491 4.56676 51.5601 4.10109 52.0904 3.76633C52.6207 3.43158 53.2454 3.2642 53.9647 3.2642C54.5447 3.2642 55.0617 3.37192 55.5158 3.58736C55.9699 3.79948 56.3361 4.09777 56.6145 4.48224C56.8962 4.86671 57.0636 5.31581 57.1167 5.82955H55.6699C55.5904 5.47159 55.4081 5.16335 55.123 4.90483C54.8413 4.64631 54.4635 4.51705 53.9895 4.51705C53.5752 4.51705 53.2123 4.62642 52.9007 4.84517C52.5925 5.06061 52.3522 5.36884 52.1799 5.76989C52.0075 6.16761 51.9213 6.63826 51.9213 7.18182C51.9213 7.73864 52.0059 8.21922 52.1749 8.62358C52.3439 9.02794 52.5826 9.34115 52.8908 9.56321C53.2024 9.78527 53.5686 9.89631 53.9895 9.89631C54.2712 9.89631 54.5265 9.84493 54.7551 9.74219C54.9872 9.63613 55.181 9.48532 55.3368 9.28977C55.4959 9.09422 55.6069 8.8589 55.6699 8.58381H57.1167C57.0636 9.07765 56.9029 9.51847 56.6344 9.90625C56.3659 10.294 56.0063 10.599 55.5556 10.821C55.1081 11.0431 54.5828 11.1541 53.9796 11.1541ZM60.1928 0.818182V11H58.7063V0.818182H60.1928ZM65.4838 11.1541C64.7315 11.1541 64.0835 10.9934 63.54 10.6719C62.9997 10.3471 62.5821 9.89134 62.2871 9.30469C61.9954 8.71473 61.8496 8.02367 61.8496 7.23153C61.8496 6.44934 61.9954 5.75994 62.2871 5.16335C62.5821 4.56676 62.9931 4.10109 63.5201 3.76633C64.0504 3.43158 64.6702 3.2642 65.3794 3.2642C65.8103 3.2642 66.2279 3.33546 66.6323 3.47798C67.0366 3.6205 67.3996 3.84422 67.7211 4.14915C68.0426 4.45407 68.2961 4.85014 68.4817 5.33736C68.6673 5.82126 68.7601 6.40956 68.7601 7.10227V7.62926H62.6898V6.51562H67.3034C67.3034 6.12453 67.2239 5.77817 67.0648 5.47656C66.9057 5.17164 66.682 4.93134 66.3936 4.75568C66.1086 4.58002 65.7739 4.49219 65.3894 4.49219C64.9718 4.49219 64.6072 4.59493 64.2956 4.80043C63.9874 5.0026 63.7488 5.26776 63.5797 5.59588C63.414 5.92069 63.3311 6.27367 63.3311 6.65483V7.52486C63.3311 8.03527 63.4206 8.46946 63.5996 8.82741C63.7819 9.18537 64.0355 9.45881 64.3603 9.64773C64.6851 9.83333 65.0646 9.92614 65.4988 9.92614C65.7805 9.92614 66.0373 9.88636 66.2694 9.80682C66.5014 9.72396 66.7019 9.60133 66.8709 9.43892C67.04 9.27652 67.1692 9.07599 67.2587 8.83736L68.6657 9.09091C68.553 9.50521 68.3508 9.86813 68.0591 10.1797C67.7708 10.4879 67.4078 10.7282 66.9703 10.9006C66.5362 11.0696 66.0407 11.1541 65.4838 11.1541Z" fill="black"/>
</svg>
