<svg viewBox="0 0 44 14" fill="none" stroke-width="2" stroke="currentColor" aria-hidden="true">
  <path d="M-0.000710189 13.8636V3.36364H1.45099V4.60156H1.57528C1.66146 4.44247 1.78575 4.25852 1.94815 4.04972C2.11056 3.84091 2.33594 3.65862 2.62429 3.50284C2.91264 3.34375 3.2938 3.2642 3.76776 3.2642C4.38423 3.2642 4.93442 3.41998 5.41832 3.73153C5.90223 4.04309 6.28172 4.49219 6.55682 5.07884C6.83523 5.66548 6.97443 6.37145 6.97443 7.19673C6.97443 8.02202 6.83688 8.72964 6.56179 9.3196C6.2867 9.90625 5.90885 10.3587 5.42827 10.6768C4.94768 10.9917 4.39915 11.1491 3.78267 11.1491C3.31866 11.1491 2.93916 11.0713 2.64418 10.9155C2.35251 10.7597 2.12382 10.5774 1.9581 10.3686C1.79238 10.1598 1.66477 9.9742 1.57528 9.81179H1.4858V13.8636H-0.000710189ZM1.45597 7.18182C1.45597 7.71875 1.53385 8.18939 1.68963 8.59375C1.84541 8.99811 2.07079 9.31463 2.36577 9.54332C2.66075 9.7687 3.02202 9.88139 3.44957 9.88139C3.8937 9.88139 4.26491 9.76373 4.56321 9.52841C4.86151 9.28977 5.08688 8.96662 5.23935 8.55895C5.39512 8.15128 5.47301 7.69223 5.47301 7.18182C5.47301 6.67803 5.39678 6.22562 5.24432 5.82457C5.09517 5.42353 4.86979 5.10701 4.56818 4.875C4.26989 4.64299 3.89702 4.52699 3.44957 4.52699C3.0187 4.52699 2.65412 4.63802 2.35582 4.86009C2.06084 5.08215 1.83712 5.39205 1.68466 5.78977C1.5322 6.1875 1.45597 6.65151 1.45597 7.18182ZM8.63991 11V3.36364H10.0767V4.5767H10.1562C10.2955 4.16572 10.5407 3.84257 10.892 3.60724C11.2467 3.36861 11.6477 3.24929 12.0952 3.24929C12.188 3.24929 12.2973 3.2526 12.4233 3.25923C12.5526 3.26586 12.6536 3.27415 12.7266 3.28409V4.70597C12.6669 4.68939 12.5608 4.67116 12.4084 4.65128C12.2559 4.62808 12.1035 4.61648 11.951 4.61648C11.5997 4.61648 11.2865 4.69105 11.0114 4.8402C10.7396 4.98603 10.5241 5.18987 10.3651 5.4517C10.206 5.71023 10.1264 6.00521 10.1264 6.33665V11H8.63991ZM14.013 11V3.36364H15.4995V11H14.013ZM14.7637 2.18537C14.5051 2.18537 14.2831 2.09919 14.0975 1.92685C13.9152 1.75118 13.824 1.54238 13.824 1.30043C13.824 1.05516 13.9152 0.846354 14.0975 0.674005C14.2831 0.498342 14.5051 0.410511 14.7637 0.410511C15.0222 0.410511 15.2426 0.498342 15.4249 0.674005C15.6105 0.846354 15.7033 1.05516 15.7033 1.30043C15.7033 1.54238 15.6105 1.75118 15.4249 1.92685C15.2426 2.09919 15.0222 2.18537 14.7637 2.18537ZM18.9858 6.46591V11H17.4993V3.36364H18.9261V4.60653H19.0206C19.1963 4.20218 19.4714 3.87737 19.8459 3.6321C20.2237 3.38684 20.6993 3.2642 21.2727 3.2642C21.7931 3.2642 22.2488 3.37358 22.6399 3.59233C23.031 3.80777 23.3343 4.12926 23.5497 4.55682C23.7652 4.98437 23.8729 5.51302 23.8729 6.14276V11H22.3864V6.32173C22.3864 5.76823 22.2422 5.3357 21.9538 5.02415C21.6655 4.70928 21.2694 4.55185 20.7656 4.55185C20.4209 4.55185 20.1143 4.62642 19.8459 4.77557C19.5807 4.92472 19.3703 5.14347 19.2145 5.43182C19.062 5.71686 18.9858 6.06155 18.9858 6.46591ZM29.4311 3.36364V4.55682H25.2599V3.36364H29.4311ZM26.3786 1.53409H27.8651V8.75781C27.8651 9.04616 27.9081 9.26326 27.9943 9.40909C28.0805 9.55161 28.1915 9.64938 28.3274 9.70241C28.4666 9.75213 28.6174 9.77699 28.7798 9.77699C28.8991 9.77699 29.0036 9.7687 29.093 9.75213C29.1825 9.73556 29.2521 9.7223 29.3018 9.71236L29.5703 10.9403C29.4841 10.9735 29.3615 11.0066 29.2024 11.0398C29.0433 11.0762 28.8445 11.0961 28.6058 11.0994C28.2147 11.1061 27.8501 11.0365 27.5121 10.8906C27.174 10.7448 26.9006 10.5194 26.6918 10.2145C26.483 9.90956 26.3786 9.52675 26.3786 9.06605V1.53409ZM34.2846 11.1541C33.5323 11.1541 32.8843 10.9934 32.3407 10.6719C31.8005 10.3471 31.3829 9.89134 31.0879 9.30469C30.7962 8.71473 30.6504 8.02367 30.6504 7.23153C30.6504 6.44934 30.7962 5.75994 31.0879 5.16335C31.3829 4.56676 31.7939 4.10109 32.3208 3.76633C32.8511 3.43158 33.4709 3.2642 34.1802 3.2642C34.6111 3.2642 35.0287 3.33546 35.4331 3.47798C35.8374 3.6205 36.2003 3.84422 36.5218 4.14915C36.8433 4.45407 37.0969 4.85014 37.2825 5.33736C37.4681 5.82126 37.5609 6.40956 37.5609 7.10227V7.62926H31.4906V6.51562H36.1042C36.1042 6.12453 36.0247 5.77817 35.8656 5.47656C35.7065 5.17164 35.4828 4.93134 35.1944 4.75568C34.9094 4.58002 34.5746 4.49219 34.1902 4.49219C33.7725 4.49219 33.408 4.59493 33.0964 4.80043C32.7882 5.0026 32.5495 5.26776 32.3805 5.59588C32.2148 5.92069 32.1319 6.27367 32.1319 6.65483V7.52486C32.1319 8.03527 32.2214 8.46946 32.4004 8.82741C32.5827 9.18537 32.8362 9.45881 33.161 9.64773C33.4859 9.83333 33.8654 9.92614 34.2995 9.92614C34.5813 9.92614 34.8381 9.88636 35.0701 9.80682C35.3021 9.72396 35.5027 9.60133 35.6717 9.43892C35.8407 9.27652 35.97 9.07599 36.0595 8.83736L37.4664 9.09091C37.3538 9.50521 37.1516 9.86813 36.8599 10.1797C36.5716 10.4879 36.2086 10.7282 35.7711 10.9006C35.3369 11.0696 34.8414 11.1541 34.2846 11.1541ZM39.2102 11V3.36364H40.647V4.5767H40.7266C40.8658 4.16572 41.111 3.84257 41.4624 3.60724C41.817 3.36861 42.218 3.24929 42.6655 3.24929C42.7583 3.24929 42.8677 3.2526 42.9936 3.25923C43.1229 3.26586 43.224 3.27415 43.2969 3.28409V4.70597C43.2372 4.68939 43.1312 4.67116 42.9787 4.65128C42.8262 4.62808 42.6738 4.61648 42.5213 4.61648C42.17 4.61648 41.8568 4.69105 41.5817 4.8402C41.3099 4.98603 41.0945 5.18987 40.9354 5.4517C40.7763 5.71023 40.6967 6.00521 40.6967 6.33665V11H39.2102Z" fill="black"/>
</svg>
