<svg viewBox="0 0 87 15" fill="none" stroke-width="2" stroke="currentColor" aria-hidden="true">
  <path d="M-0.000710189 11V3.36364H1.43608V4.5767H1.51562C1.65483 4.16572 1.90009 3.84257 2.25142 3.60724C2.60606 3.36861 3.0071 3.24929 3.45455 3.24929C3.54735 3.24929 3.65672 3.2526 3.78267 3.25923C3.91193 3.26586 4.01302 3.27415 4.08594 3.28409V4.70597C4.02628 4.68939 3.92022 4.67116 3.76776 4.65128C3.61529 4.62808 3.46283 4.61648 3.31037 4.61648C2.95904 4.61648 2.64583 4.69105 2.37074 4.8402C2.09896 4.98603 1.88352 5.18987 1.72443 5.4517C1.56534 5.71023 1.4858 6.00521 1.4858 6.33665V11H-0.000710189ZM8.39009 11.1541C7.63772 11.1541 6.98976 10.9934 6.4462 10.6719C5.90595 10.3471 5.48834 9.89134 5.19336 9.30469C4.90169 8.71473 4.75586 8.02367 4.75586 7.23153C4.75586 6.44934 4.90169 5.75994 5.19336 5.16335C5.48834 4.56676 5.89933 4.10109 6.42631 3.76633C6.95662 3.43158 7.57641 3.2642 8.28569 3.2642C8.71656 3.2642 9.13417 3.33546 9.53853 3.47798C9.94289 3.6205 10.3058 3.84422 10.6273 4.14915C10.9488 4.45407 11.2024 4.85014 11.388 5.33736C11.5736 5.82126 11.6664 6.40956 11.6664 7.10227V7.62926H5.59606V6.51562H10.2097C10.2097 6.12453 10.1301 5.77817 9.97106 5.47656C9.81197 5.17164 9.58825 4.93134 9.29989 4.75568C9.01486 4.58002 8.6801 4.49219 8.29563 4.49219C7.87802 4.49219 7.51344 4.59493 7.20188 4.80043C6.89364 5.0026 6.65501 5.26776 6.48597 5.59588C6.32025 5.92069 6.23739 6.27367 6.23739 6.65483V7.52486C6.23739 8.03527 6.32688 8.46946 6.50586 8.82741C6.68815 9.18537 6.9417 9.45881 7.26651 9.64773C7.59132 9.83333 7.97082 9.92614 8.40501 9.92614C8.68673 9.92614 8.9436 9.88636 9.1756 9.80682C9.40761 9.72396 9.60813 9.60133 9.77717 9.43892C9.9462 9.27652 10.0755 9.07599 10.165 8.83736L11.5719 9.09091C11.4592 9.50521 11.257 9.86813 10.9654 10.1797C10.677 10.4879 10.3141 10.7282 9.8766 10.9006C9.44241 11.0696 8.94691 11.1541 8.39009 11.1541ZM16.5323 11.1541C15.7932 11.1541 15.1568 10.9867 14.6232 10.652C14.0929 10.3139 13.6853 9.84825 13.4002 9.25497C13.1152 8.66169 12.9727 7.98224 12.9727 7.21662C12.9727 6.44105 13.1185 5.75663 13.4102 5.16335C13.7018 4.56676 14.1128 4.10109 14.6431 3.76633C15.1734 3.43158 15.7982 3.2642 16.5174 3.2642C17.0974 3.2642 17.6145 3.37192 18.0685 3.58736C18.5226 3.79948 18.8888 4.09777 19.1673 4.48224C19.449 4.86671 19.6164 5.31581 19.6694 5.82955H18.2227C18.1431 5.47159 17.9608 5.16335 17.6758 4.90483C17.3941 4.64631 17.0162 4.51705 16.5423 4.51705C16.128 4.51705 15.765 4.62642 15.4535 4.84517C15.1452 5.06061 14.9049 5.36884 14.7326 5.76989C14.5603 6.16761 14.4741 6.63826 14.4741 7.18182C14.4741 7.73864 14.5586 8.21922 14.7276 8.62358C14.8967 9.02794 15.1353 9.34115 15.4435 9.56321C15.7551 9.78527 16.1213 9.89631 16.5423 9.89631C16.824 9.89631 17.0792 9.84493 17.3079 9.74219C17.5399 9.63613 17.7338 9.48532 17.8896 9.28977C18.0487 9.09422 18.1597 8.8589 18.2227 8.58381H19.6694C19.6164 9.07765 19.4556 9.51847 19.1871 9.90625C18.9187 10.294 18.5591 10.599 18.1083 10.821C17.6609 11.0431 17.1355 11.1541 16.5323 11.1541ZM24.4757 11.1541C23.7598 11.1541 23.135 10.9901 22.6014 10.6619C22.0678 10.3338 21.6535 9.87476 21.3585 9.2848C21.0635 8.69484 20.916 8.00544 20.916 7.21662C20.916 6.42448 21.0635 5.73177 21.3585 5.13849C21.6535 4.54522 22.0678 4.08452 22.6014 3.75639C23.135 3.42827 23.7598 3.2642 24.4757 3.2642C25.1916 3.2642 25.8163 3.42827 26.35 3.75639C26.8836 4.08452 27.2979 4.54522 27.5929 5.13849C27.8878 5.73177 28.0353 6.42448 28.0353 7.21662C28.0353 8.00544 27.8878 8.69484 27.5929 9.2848C27.2979 9.87476 26.8836 10.3338 26.35 10.6619C25.8163 10.9901 25.1916 11.1541 24.4757 11.1541ZM24.4806 9.90625C24.9447 9.90625 25.3291 9.78362 25.6341 9.53835C25.939 9.29309 26.1644 8.96662 26.3102 8.55895C26.4593 8.15128 26.5339 7.70218 26.5339 7.21165C26.5339 6.72443 26.4593 6.27699 26.3102 5.86932C26.1644 5.45833 25.939 5.12855 25.6341 4.87997C25.3291 4.63139 24.9447 4.5071 24.4806 4.5071C24.0133 4.5071 23.6255 4.63139 23.3173 4.87997C23.0124 5.12855 22.7853 5.45833 22.6362 5.86932C22.4904 6.27699 22.4174 6.72443 22.4174 7.21165C22.4174 7.70218 22.4904 8.15128 22.6362 8.55895C22.7853 8.96662 23.0124 9.29309 23.3173 9.53835C23.6255 9.78362 24.0133 9.90625 24.4806 9.90625ZM29.6946 11V3.36364H31.1314V4.5767H31.2109C31.3501 4.16572 31.5954 3.84257 31.9467 3.60724C32.3014 3.36861 32.7024 3.24929 33.1499 3.24929C33.2427 3.24929 33.352 3.2526 33.478 3.25923C33.6072 3.26586 33.7083 3.27415 33.7812 3.28409V4.70597C33.7216 4.68939 33.6155 4.67116 33.4631 4.65128C33.3106 4.62808 33.1581 4.61648 33.0057 4.61648C32.6544 4.61648 32.3411 4.69105 32.0661 4.8402C31.7943 4.98603 31.5788 5.18987 31.4197 5.4517C31.2607 5.71023 31.1811 6.00521 31.1811 6.33665V11H29.6946ZM37.6529 11.1491C37.0364 11.1491 36.4862 10.9917 36.0023 10.6768C35.5217 10.3587 35.1439 9.90625 34.8688 9.3196C34.597 8.72964 34.4611 8.02202 34.4611 7.19673C34.4611 6.37145 34.5987 5.66548 34.8738 5.07884C35.1522 4.49219 35.5333 4.04309 36.0172 3.73153C36.5011 3.41998 37.0497 3.2642 37.6628 3.2642C38.1368 3.2642 38.5179 3.34375 38.8063 3.50284C39.098 3.65862 39.3233 3.84091 39.4824 4.04972C39.6448 4.25852 39.7708 4.44247 39.8603 4.60156H39.9498V0.818182H41.4363V11H39.9846V9.81179H39.8603C39.7708 9.9742 39.6415 10.1598 39.4725 10.3686C39.3068 10.5774 39.0781 10.7597 38.7864 10.9155C38.4947 11.0713 38.1169 11.1491 37.6529 11.1491ZM37.981 9.88139C38.4086 9.88139 38.7698 9.7687 39.0648 9.54332C39.3631 9.31463 39.5885 8.99811 39.7409 8.59375C39.8967 8.18939 39.9746 7.71875 39.9746 7.18182C39.9746 6.65151 39.8984 6.1875 39.7459 5.78977C39.5935 5.39205 39.3697 5.08215 39.0748 4.86009C38.7798 4.63802 38.4152 4.52699 37.981 4.52699C37.5336 4.52699 37.1607 4.64299 36.8624 4.875C36.5641 5.10701 36.3387 5.42353 36.1863 5.82457C36.0371 6.22562 35.9625 6.67803 35.9625 7.18182C35.9625 7.69223 36.0388 8.15128 36.1912 8.55895C36.3437 8.96662 36.5691 9.28977 36.8674 9.52841C37.169 9.76373 37.5402 9.88139 37.981 9.88139ZM43.5579 11V3.36364H45.0444V11H43.5579ZM44.3086 2.18537C44.0501 2.18537 43.828 2.09919 43.6424 1.92685C43.4601 1.75118 43.369 1.54238 43.369 1.30043C43.369 1.05516 43.4601 0.846354 43.6424 0.674005C43.828 0.498342 44.0501 0.410511 44.3086 0.410511C44.5671 0.410511 44.7875 0.498342 44.9698 0.674005C45.1554 0.846354 45.2482 1.05516 45.2482 1.30043C45.2482 1.54238 45.1554 1.75118 44.9698 1.92685C44.7875 2.09919 44.5671 2.18537 44.3086 2.18537ZM48.5307 6.46591V11H47.0442V3.36364H48.4711V4.60653H48.5655C48.7412 4.20218 49.0163 3.87737 49.3908 3.6321C49.7686 3.38684 50.2443 3.2642 50.8176 3.2642C51.338 3.2642 51.7937 3.37358 52.1848 3.59233C52.5759 3.80777 52.8792 4.12926 53.0946 4.55682C53.3101 4.98437 53.4178 5.51302 53.4178 6.14276V11H51.9313V6.32173C51.9313 5.76823 51.7871 5.3357 51.4988 5.02415C51.2104 4.70928 50.8143 4.55185 50.3105 4.55185C49.9658 4.55185 49.6593 4.62642 49.3908 4.77557C49.1257 4.92472 48.9152 5.14347 48.7594 5.43182C48.6069 5.71686 48.5307 6.06155 48.5307 6.46591ZM58.6131 14.0227C58.0066 14.0227 57.4846 13.9432 57.0471 13.7841C56.6129 13.625 56.2582 13.4145 55.9831 13.1527C55.708 12.8909 55.5025 12.6042 55.3667 12.2926L56.6444 11.7656C56.7338 11.9115 56.8532 12.0656 57.0023 12.228C57.1548 12.3937 57.3603 12.5346 57.6188 12.6506C57.8806 12.7666 58.217 12.8246 58.628 12.8246C59.1915 12.8246 59.6571 12.687 60.025 12.4119C60.3929 12.1402 60.5769 11.706 60.5769 11.1094V9.60795H60.4824C60.3929 9.77036 60.2637 9.95099 60.0946 10.1499C59.9289 10.3487 59.7002 10.5211 59.4086 10.6669C59.1169 10.8127 58.7374 10.8857 58.2701 10.8857C57.6668 10.8857 57.1233 10.7448 56.6394 10.4631C56.1588 10.178 55.7776 9.75876 55.4959 9.20526C55.2175 8.64844 55.0783 7.96401 55.0783 7.15199C55.0783 6.33996 55.2158 5.64394 55.4909 5.06392C55.7694 4.4839 56.1505 4.03977 56.6344 3.73153C57.1183 3.41998 57.6668 3.2642 58.28 3.2642C58.754 3.2642 59.1368 3.34375 59.4284 3.50284C59.7201 3.65862 59.9471 3.84091 60.1096 4.04972C60.2753 4.25852 60.4029 4.44247 60.4924 4.60156H60.6017V3.36364H62.0584V11.169C62.0584 11.8253 61.906 12.3639 61.601 12.7848C61.2961 13.2057 60.8835 13.5173 60.3631 13.7195C59.8461 13.9216 59.2627 14.0227 58.6131 14.0227ZM58.5982 9.6527C59.0257 9.6527 59.387 9.55327 59.682 9.3544C59.9803 9.15223 60.2057 8.86387 60.3581 8.48935C60.5139 8.11151 60.5918 7.65909 60.5918 7.1321C60.5918 6.61837 60.5156 6.16596 60.3631 5.77486C60.2106 5.38376 59.9869 5.07884 59.6919 4.86009C59.397 4.63802 59.0324 4.52699 58.5982 4.52699C58.1507 4.52699 57.7779 4.64299 57.4796 4.875C57.1813 5.10369 56.9559 5.41525 56.8034 5.80966C56.6543 6.20407 56.5797 6.64489 56.5797 7.1321C56.5797 7.63258 56.656 8.07173 56.8084 8.44957C56.9609 8.82741 57.1863 9.1224 57.4846 9.33452C57.7862 9.54664 58.1574 9.6527 58.5982 9.6527ZM68.5513 6.05327V7.34091H64.0371V6.05327H68.5513ZM74.0574 11.169C73.2718 11.1657 72.6007 10.9586 72.0439 10.5476C71.487 10.1366 71.0611 9.53835 70.7662 8.75284C70.4712 7.96733 70.3237 7.02107 70.3237 5.91406C70.3237 4.81037 70.4712 3.86742 70.7662 3.08523C71.0645 2.30303 71.492 1.70644 72.0488 1.29545C72.609 0.884469 73.2785 0.678977 74.0574 0.678977C74.8362 0.678977 75.5041 0.886126 76.0609 1.30043C76.6177 1.71141 77.0436 2.308 77.3386 3.0902C77.6369 3.86908 77.786 4.81037 77.786 5.91406C77.786 7.02438 77.6386 7.9723 77.3436 8.75781C77.0486 9.54001 76.6227 10.1383 76.0659 10.5526C75.5091 10.9635 74.8395 11.169 74.0574 11.169ZM74.0574 9.84162C74.7467 9.84162 75.2853 9.50521 75.6731 8.83239C76.0642 8.15956 76.2598 7.18679 76.2598 5.91406C76.2598 5.06889 76.1703 4.35464 75.9913 3.77131C75.8156 3.18466 75.5621 2.74053 75.2306 2.43892C74.9025 2.134 74.5114 1.98153 74.0574 1.98153C73.3713 1.98153 72.8327 2.3196 72.4416 2.99574C72.0505 3.67187 71.8533 4.64465 71.85 5.91406C71.85 6.76255 71.9378 7.48011 72.1135 8.06676C72.2924 8.65009 72.546 9.09257 72.8741 9.39418C73.2022 9.69247 73.5967 9.84162 74.0574 9.84162ZM83.0945 11.1392C82.4117 11.1392 81.8018 11.0215 81.2649 10.7862C80.7313 10.5509 80.3087 10.2244 79.9972 9.80682C79.6889 9.38589 79.5232 8.89867 79.5 8.34517H81.0611C81.081 8.64678 81.1821 8.90862 81.3643 9.13068C81.55 9.34943 81.7919 9.51847 82.0902 9.63778C82.3885 9.7571 82.7199 9.81676 83.0845 9.81676C83.4856 9.81676 83.8402 9.74716 84.1484 9.60795C84.46 9.46875 84.7036 9.27486 84.8793 9.02628C85.0549 8.77438 85.1428 8.48438 85.1428 8.15625C85.1428 7.81487 85.0549 7.51491 84.8793 7.25639C84.7069 6.99455 84.4534 6.78906 84.1186 6.63991C83.7872 6.49077 83.3861 6.41619 82.9155 6.41619H82.0554V5.16335H82.9155C83.2933 5.16335 83.6248 5.09541 83.9098 4.95952C84.1982 4.82363 84.4235 4.63471 84.5859 4.39276C84.7483 4.14749 84.8295 3.8608 84.8295 3.53267C84.8295 3.2178 84.7583 2.94437 84.6158 2.71236C84.4766 2.47704 84.2777 2.29309 84.0192 2.16051C83.764 2.02794 83.4624 1.96165 83.1143 1.96165C82.7829 1.96165 82.473 2.02296 82.1847 2.1456C81.8996 2.26491 81.6676 2.43726 81.4886 2.66264C81.3097 2.88471 81.2135 3.15151 81.2003 3.46307H79.7138C79.7304 2.91288 79.8928 2.42898 80.201 2.01136C80.5125 1.59375 80.9235 1.26728 81.4339 1.03196C81.9444 0.796638 82.5111 0.678977 83.1342 0.678977C83.7872 0.678977 84.3506 0.806581 84.8246 1.06179C85.3018 1.31368 85.6697 1.65009 85.9283 2.07102C86.1901 2.49195 86.3194 2.95265 86.3161 3.45312C86.3194 4.0232 86.1603 4.5071 85.8388 4.90483C85.5206 5.30256 85.0964 5.56937 84.5661 5.70526V5.7848C85.2422 5.88755 85.7659 6.15601 86.1371 6.5902C86.5116 7.02438 86.6972 7.56297 86.6939 8.20597C86.6972 8.7661 86.5414 9.26823 86.2266 9.71236C85.915 10.1565 85.4891 10.5062 84.9489 10.7614C84.4086 11.0133 83.7905 11.1392 83.0945 11.1392Z" fill="black"/>
</svg>
