<svg viewBox="0 0 86 12" fill="none" stroke-width="2" stroke="currentColor" aria-hidden="true">
  <path d="M4.21591 11.1541C3.4768 11.1541 2.84044 10.9867 2.30682 10.652C1.77652 10.3139 1.36884 9.84825 1.08381 9.25497C0.798769 8.66169 0.65625 7.98224 0.65625 7.21662C0.65625 6.44105 0.802083 5.75663 1.09375 5.16335C1.38542 4.56676 1.7964 4.10109 2.3267 3.76633C2.85701 3.43158 3.48177 3.2642 4.20099 3.2642C4.78101 3.2642 5.29806 3.37192 5.75213 3.58736C6.2062 3.79948 6.57244 4.09777 6.85085 4.48224C7.13258 4.86671 7.29995 5.31581 7.35298 5.82955H5.90625C5.8267 5.47159 5.64441 5.16335 5.35938 4.90483C5.07765 4.64631 4.69981 4.51705 4.22585 4.51705C3.81155 4.51705 3.44863 4.62642 3.13707 4.84517C2.82884 5.06061 2.58854 5.36884 2.41619 5.76989C2.24384 6.16761 2.15767 6.63826 2.15767 7.18182C2.15767 7.73864 2.24219 8.21922 2.41122 8.62358C2.58026 9.02794 2.81889 9.34115 3.12713 9.56321C3.43868 9.78527 3.80492 9.89631 4.22585 9.89631C4.50758 9.89631 4.76278 9.84493 4.99148 9.74219C5.22349 9.63613 5.41738 9.48532 5.57315 9.28977C5.73224 9.09422 5.84328 8.8589 5.90625 8.58381H7.35298C7.29995 9.07765 7.1392 9.51847 6.87074 9.90625C6.60227 10.294 6.24266 10.599 5.7919 10.821C5.34446 11.0431 4.81913 11.1541 4.21591 11.1541ZM10.4292 6.46591V11H8.94265V0.818182H10.4093V4.60653H10.5037C10.6827 4.19555 10.9561 3.86908 11.324 3.62713C11.6919 3.38518 12.1725 3.2642 12.7658 3.2642C13.2895 3.2642 13.7469 3.37192 14.138 3.58736C14.5324 3.80279 14.8373 4.12429 15.0527 4.55185C15.2715 4.97609 15.3809 5.50639 15.3809 6.14276V11H13.8944V6.32173C13.8944 5.7616 13.7502 5.32741 13.4618 5.01918C13.1735 4.70762 12.7724 4.55185 12.2587 4.55185C11.9074 4.55185 11.5925 4.62642 11.3141 4.77557C11.039 4.92472 10.8219 5.14347 10.6628 5.43182C10.507 5.71686 10.4292 6.06155 10.4292 6.46591ZM17.3645 11V3.36364H18.8013V4.5767H18.8809C19.0201 4.16572 19.2653 3.84257 19.6167 3.60724C19.9713 3.36861 20.3723 3.24929 20.8198 3.24929C20.9126 3.24929 21.022 3.2526 21.1479 3.25923C21.2772 3.26586 21.3783 3.27415 21.4512 3.28409V4.70597C21.3915 4.68939 21.2855 4.67116 21.133 4.65128C20.9805 4.62808 20.8281 4.61648 20.6756 4.61648C20.3243 4.61648 20.0111 4.69105 19.736 4.8402C19.4642 4.98603 19.2488 5.18987 19.0897 5.4517C18.9306 5.71023 18.851 6.00521 18.851 6.33665V11H17.3645ZM25.6808 11.1541C24.9648 11.1541 24.3401 10.9901 23.8065 10.6619C23.2728 10.3338 22.8585 9.87476 22.5636 9.2848C22.2686 8.69484 22.1211 8.00544 22.1211 7.21662C22.1211 6.42448 22.2686 5.73177 22.5636 5.13849C22.8585 4.54522 23.2728 4.08452 23.8065 3.75639C24.3401 3.42827 24.9648 3.2642 25.6808 3.2642C26.3967 3.2642 27.0214 3.42827 27.555 3.75639C28.0887 4.08452 28.503 4.54522 28.7979 5.13849C29.0929 5.73177 29.2404 6.42448 29.2404 7.21662C29.2404 8.00544 29.0929 8.69484 28.7979 9.2848C28.503 9.87476 28.0887 10.3338 27.555 10.6619C27.0214 10.9901 26.3967 11.1541 25.6808 11.1541ZM25.6857 9.90625C26.1497 9.90625 26.5342 9.78362 26.8391 9.53835C27.1441 9.29309 27.3694 8.96662 27.5153 8.55895C27.6644 8.15128 27.739 7.70218 27.739 7.21165C27.739 6.72443 27.6644 6.27699 27.5153 5.86932C27.3694 5.45833 27.1441 5.12855 26.8391 4.87997C26.5342 4.63139 26.1497 4.5071 25.6857 4.5071C25.2184 4.5071 24.8306 4.63139 24.5224 4.87997C24.2174 5.12855 23.9904 5.45833 23.8413 5.86932C23.6954 6.27699 23.6225 6.72443 23.6225 7.21165C23.6225 7.70218 23.6954 8.15128 23.8413 8.55895C23.9904 8.96662 24.2174 9.29309 24.5224 9.53835C24.8306 9.78362 25.2184 9.90625 25.6857 9.90625ZM30.8997 11V3.36364H32.3265V4.60653H32.421C32.5801 4.18561 32.8403 3.85748 33.2015 3.62216C33.5628 3.38352 33.9953 3.2642 34.4991 3.2642C35.0095 3.2642 35.4371 3.38352 35.7818 3.62216C36.1298 3.8608 36.3867 4.18892 36.5524 4.60653H36.6319C36.8142 4.19886 37.1042 3.87405 37.502 3.6321C37.8997 3.38684 38.3736 3.2642 38.9238 3.2642C39.6165 3.2642 40.1816 3.4813 40.6191 3.91548C41.06 4.34967 41.2804 5.00426 41.2804 5.87926V11H39.7939V6.01847C39.7939 5.50142 39.653 5.12689 39.3713 4.89489C39.0895 4.66288 38.7531 4.54688 38.362 4.54688C37.8781 4.54688 37.502 4.69602 37.2335 4.99432C36.965 5.2893 36.8308 5.6688 36.8308 6.13281V11H35.3493V5.92401C35.3493 5.50971 35.22 5.17661 34.9615 4.92472C34.7029 4.67282 34.3665 4.54688 33.9522 4.54688C33.6705 4.54688 33.4103 4.62145 33.1717 4.7706C32.9364 4.91643 32.7458 5.12026 32.6 5.3821C32.4574 5.64394 32.3862 5.94721 32.3862 6.2919V11H30.8997ZM46.5639 11.1541C45.8116 11.1541 45.1636 10.9934 44.62 10.6719C44.0798 10.3471 43.6622 9.89134 43.3672 9.30469C43.0755 8.71473 42.9297 8.02367 42.9297 7.23153C42.9297 6.44934 43.0755 5.75994 43.3672 5.16335C43.6622 4.56676 44.0732 4.10109 44.6001 3.76633C45.1304 3.43158 45.7502 3.2642 46.4595 3.2642C46.8904 3.2642 47.308 3.33546 47.7124 3.47798C48.1167 3.6205 48.4796 3.84422 48.8011 4.14915C49.1226 4.45407 49.3762 4.85014 49.5618 5.33736C49.7474 5.82126 49.8402 6.40956 49.8402 7.10227V7.62926H43.7699V6.51562H48.3835C48.3835 6.12453 48.304 5.77817 48.1449 5.47656C47.9858 5.17164 47.7621 4.93134 47.4737 4.75568C47.1887 4.58002 46.8539 4.49219 46.4695 4.49219C46.0518 4.49219 45.6873 4.59493 45.3757 4.80043C45.0675 5.0026 44.8288 5.26776 44.6598 5.59588C44.4941 5.92069 44.4112 6.27367 44.4112 6.65483V7.52486C44.4112 8.03527 44.5007 8.46946 44.6797 8.82741C44.862 9.18537 45.1155 9.45881 45.4403 9.64773C45.7652 9.83333 46.1446 9.92614 46.5788 9.92614C46.8606 9.92614 47.1174 9.88636 47.3494 9.80682C47.5814 9.72396 47.782 9.60133 47.951 9.43892C48.12 9.27652 48.2493 9.07599 48.3388 8.83736L49.7457 9.09091C49.633 9.50521 49.4309 9.86813 49.1392 10.1797C48.8509 10.4879 48.4879 10.7282 48.0504 10.9006C47.6162 11.0696 47.1207 11.1541 46.5639 11.1541ZM55.9888 6.05327V7.34091H51.4746V6.05327H55.9888ZM61.1866 11.1541C60.4475 11.1541 59.8111 10.9867 59.2775 10.652C58.7472 10.3139 58.3395 9.84825 58.0545 9.25497C57.7695 8.66169 57.627 7.98224 57.627 7.21662C57.627 6.44105 57.7728 5.75663 58.0645 5.16335C58.3561 4.56676 58.7671 4.10109 59.2974 3.76633C59.8277 3.43158 60.4525 3.2642 61.1717 3.2642C61.7517 3.2642 62.2688 3.37192 62.7228 3.58736C63.1769 3.79948 63.5431 4.09777 63.8216 4.48224C64.1033 4.86671 64.2707 5.31581 64.3237 5.82955H62.877C62.7974 5.47159 62.6151 5.16335 62.3301 4.90483C62.0484 4.64631 61.6705 4.51705 61.1966 4.51705C60.7823 4.51705 60.4193 4.62642 60.1078 4.84517C59.7995 5.06061 59.5592 5.36884 59.3869 5.76989C59.2145 6.16761 59.1284 6.63826 59.1284 7.18182C59.1284 7.73864 59.2129 8.21922 59.3819 8.62358C59.551 9.02794 59.7896 9.34115 60.0978 9.56321C60.4094 9.78527 60.7756 9.89631 61.1966 9.89631C61.4783 9.89631 61.7335 9.84493 61.9622 9.74219C62.1942 9.63613 62.3881 9.48532 62.5439 9.28977C62.7029 9.09422 62.814 8.8589 62.877 8.58381H64.3237C64.2707 9.07765 64.1099 9.51847 63.8414 9.90625C63.573 10.294 63.2134 10.599 62.7626 10.821C62.3152 11.0431 61.7898 11.1541 61.1866 11.1541ZM68.1357 11.169C67.6518 11.169 67.2143 11.0795 66.8232 10.9006C66.4321 10.7183 66.1222 10.4548 65.8935 10.1101C65.6681 9.76539 65.5554 9.3428 65.5554 8.84233C65.5554 8.41146 65.6383 8.05682 65.804 7.77841C65.9697 7.5 66.1934 7.27959 66.4751 7.11719C66.7569 6.95478 67.0717 6.83215 67.4197 6.74929C67.7678 6.66643 68.1224 6.60346 68.4837 6.56037C68.9411 6.50734 69.3123 6.46425 69.5973 6.43111C69.8823 6.39465 70.0895 6.33665 70.2188 6.2571C70.348 6.17756 70.4126 6.0483 70.4126 5.86932V5.83452C70.4126 5.40033 70.29 5.06392 70.0447 4.82528C69.8028 4.58665 69.4415 4.46733 68.9609 4.46733C68.4605 4.46733 68.0661 4.57836 67.7777 4.80043C67.4927 5.01918 67.2955 5.26278 67.1861 5.53125L65.7891 5.21307C65.9548 4.74905 66.1967 4.37453 66.5149 4.08949C66.8364 3.80114 67.206 3.59233 67.6236 3.46307C68.0412 3.33049 68.4804 3.2642 68.9411 3.2642C69.246 3.2642 69.5691 3.30066 69.9105 3.37358C70.2552 3.44318 70.5767 3.57244 70.875 3.76136C71.1766 3.95028 71.4235 4.22041 71.6158 4.57173C71.808 4.91974 71.9041 5.37216 71.9041 5.92898V11H70.4524V9.95597H70.3928C70.2966 10.1482 70.1525 10.3371 69.9602 10.5227C69.768 10.7083 69.5211 10.8625 69.2195 10.9851C68.9179 11.1077 68.5566 11.169 68.1357 11.169ZM68.4588 9.97585C68.8698 9.97585 69.2211 9.89465 69.5128 9.73224C69.8078 9.56984 70.0315 9.35772 70.1839 9.09588C70.3397 8.83073 70.4176 8.54735 70.4176 8.24574V7.26136C70.3646 7.31439 70.2618 7.36411 70.1094 7.41051C69.9602 7.4536 69.7895 7.49171 69.5973 7.52486C69.4051 7.55469 69.2178 7.58286 69.0355 7.60938C68.8532 7.63258 68.7008 7.65246 68.5781 7.66903C68.2898 7.70549 68.0263 7.76681 67.7876 7.85298C67.5523 7.93916 67.3634 8.06345 67.2209 8.22585C67.0817 8.38494 67.0121 8.59706 67.0121 8.86222C67.0121 9.23011 67.148 9.50852 67.4197 9.69744C67.6915 9.88305 68.0379 9.97585 68.4588 9.97585ZM79.6064 5.22798L78.2591 5.46662C78.2027 5.29427 78.1132 5.13021 77.9906 4.97443C77.8713 4.81865 77.7089 4.69105 77.5034 4.59162C77.2979 4.49219 77.041 4.44247 76.7328 4.44247C76.3118 4.44247 75.9605 4.53693 75.6788 4.72585C75.3971 4.91146 75.2562 5.15175 75.2562 5.44673C75.2562 5.70194 75.3507 5.90743 75.5396 6.06321C75.7285 6.21899 76.0334 6.34659 76.4544 6.44602L77.6674 6.72443C78.3701 6.88684 78.8938 7.13707 79.2385 7.47514C79.5832 7.81321 79.7555 8.25237 79.7555 8.79261C79.7555 9.25 79.6229 9.65767 79.3578 10.0156C79.0959 10.3703 78.7297 10.6487 78.2591 10.8509C77.7917 11.053 77.2498 11.1541 76.6333 11.1541C75.7782 11.1541 75.0806 10.9718 74.5403 10.6072C74.0001 10.2393 73.6686 9.71733 73.546 9.04119L74.9828 8.82244C75.0723 9.19697 75.2562 9.48035 75.5346 9.67259C75.813 9.86151 76.176 9.95597 76.6234 9.95597C77.1106 9.95597 77.5001 9.85488 77.7917 9.6527C78.0834 9.44721 78.2292 9.19697 78.2292 8.90199C78.2292 8.66335 78.1397 8.46283 77.9608 8.30043C77.7851 8.13802 77.515 8.01539 77.1504 7.93253L75.8578 7.64915C75.1452 7.48674 74.6182 7.22822 74.2768 6.87358C73.9387 6.51894 73.7697 6.06984 73.7697 5.52628C73.7697 5.07552 73.8957 4.68111 74.1475 4.34304C74.3994 4.00497 74.7475 3.74148 75.1916 3.55256C75.6357 3.36032 76.1445 3.2642 76.7179 3.2642C77.5431 3.2642 78.1928 3.44318 78.6667 3.80114C79.1407 4.15578 79.4539 4.63139 79.6064 5.22798ZM84.9545 3.36364V4.55682H80.7834V3.36364H84.9545ZM81.902 1.53409H83.3885V8.75781C83.3885 9.04616 83.4316 9.26326 83.5178 9.40909C83.6039 9.55161 83.715 9.64938 83.8509 9.70241C83.9901 9.75213 84.1409 9.77699 84.3033 9.77699C84.4226 9.77699 84.527 9.7687 84.6165 9.75213C84.706 9.73556 84.7756 9.7223 84.8253 9.71236L85.0938 10.9403C85.0076 10.9735 84.8849 11.0066 84.7259 11.0398C84.5668 11.0762 84.3679 11.0961 84.1293 11.0994C83.7382 11.1061 83.3736 11.0365 83.0355 10.8906C82.6974 10.7448 82.424 10.5194 82.2152 10.2145C82.0064 9.90956 81.902 9.52675 81.902 9.06605V1.53409Z" fill="black"/>
</svg>
