<svg viewBox="0 0 97 14" fill="none" stroke-width="2" stroke="currentColor" aria-hidden="true">
  <path d="M0.118608 11V0.818182H1.60511V4.60156H1.6946C1.78078 4.44247 1.90507 4.25852 2.06747 4.04972C2.22988 3.84091 2.45526 3.65862 2.74361 3.50284C3.03196 3.34375 3.41312 3.2642 3.88707 3.2642C4.50355 3.2642 5.05374 3.41998 5.53764 3.73153C6.02154 4.04309 6.40104 4.49219 6.67614 5.07884C6.95455 5.66548 7.09375 6.37145 7.09375 7.19673C7.09375 8.02202 6.9562 8.72964 6.68111 9.3196C6.40601 9.90625 6.02817 10.3587 5.54759 10.6768C5.067 10.9917 4.51847 11.1491 3.90199 11.1491C3.43797 11.1491 3.05848 11.0713 2.76349 10.9155C2.47183 10.7597 2.24313 10.5774 2.07741 10.3686C1.9117 10.1598 1.78409 9.9742 1.6946 9.81179H1.57031V11H0.118608ZM1.57528 7.18182C1.57528 7.71875 1.65317 8.18939 1.80895 8.59375C1.96473 8.99811 2.1901 9.31463 2.48509 9.54332C2.78007 9.7687 3.14134 9.88139 3.56889 9.88139C4.01302 9.88139 4.38423 9.76373 4.68253 9.52841C4.98082 9.28977 5.2062 8.96662 5.35866 8.55895C5.51444 8.15128 5.59233 7.69223 5.59233 7.18182C5.59233 6.67803 5.5161 6.22562 5.36364 5.82457C5.21449 5.42353 4.98911 5.10701 4.6875 4.875C4.3892 4.64299 4.01634 4.52699 3.56889 4.52699C3.13802 4.52699 2.77344 4.63802 2.47514 4.86009C2.18016 5.08215 1.95644 5.39205 1.80398 5.78977C1.65152 6.1875 1.57528 6.65151 1.57528 7.18182ZM10.9853 11.169C10.5014 11.169 10.0639 11.0795 9.67276 10.9006C9.28166 10.7183 8.97177 10.4548 8.74308 10.1101C8.5177 9.76539 8.40501 9.3428 8.40501 8.84233C8.40501 8.41146 8.48787 8.05682 8.65359 7.77841C8.81931 7.5 9.04303 7.27959 9.32475 7.11719C9.60647 6.95478 9.92134 6.83215 10.2694 6.74929C10.6174 6.66643 10.972 6.60346 11.3333 6.56037C11.7907 6.50734 12.1619 6.46425 12.4469 6.43111C12.7319 6.39465 12.9391 6.33665 13.0684 6.2571C13.1976 6.17756 13.2623 6.0483 13.2623 5.86932V5.83452C13.2623 5.40033 13.1396 5.06392 12.8944 4.82528C12.6524 4.58665 12.2911 4.46733 11.8105 4.46733C11.3101 4.46733 10.9157 4.57836 10.6273 4.80043C10.3423 5.01918 10.1451 5.26278 10.0357 5.53125L8.63867 5.21307C8.80439 4.74905 9.04634 4.37453 9.36452 4.08949C9.68602 3.80114 10.0556 3.59233 10.4732 3.46307C10.8908 3.33049 11.33 3.2642 11.7907 3.2642C12.0956 3.2642 12.4187 3.30066 12.7601 3.37358C13.1048 3.44318 13.4263 3.57244 13.7246 3.76136C14.0262 3.95028 14.2731 4.22041 14.4654 4.57173C14.6576 4.91974 14.7537 5.37216 14.7537 5.92898V11H13.302V9.95597H13.2424C13.1462 10.1482 13.0021 10.3371 12.8098 10.5227C12.6176 10.7083 12.3707 10.8625 12.0691 10.9851C11.7675 11.1077 11.4062 11.169 10.9853 11.169ZM11.3084 9.97585C11.7194 9.97585 12.0707 9.89465 12.3624 9.73224C12.6574 9.56984 12.8811 9.35772 13.0336 9.09588C13.1893 8.83073 13.2672 8.54735 13.2672 8.24574V7.26136C13.2142 7.31439 13.1114 7.36411 12.959 7.41051C12.8098 7.4536 12.6391 7.49171 12.4469 7.52486C12.2547 7.55469 12.0674 7.58286 11.8851 7.60938C11.7028 7.63258 11.5504 7.65246 11.4277 7.66903C11.1394 7.70549 10.8759 7.76681 10.6373 7.85298C10.4019 7.93916 10.213 8.06345 10.0705 8.22585C9.93129 8.38494 9.86168 8.59706 9.86168 8.86222C9.86168 9.23011 9.99757 9.50852 10.2694 9.69744C10.5411 9.88305 10.8875 9.97585 11.3084 9.97585ZM20.2983 3.36364V4.55682H16.1271V3.36364H20.2983ZM17.2457 1.53409H18.7322V8.75781C18.7322 9.04616 18.7753 9.26326 18.8615 9.40909C18.9477 9.55161 19.0587 9.64938 19.1946 9.70241C19.3338 9.75213 19.4846 9.77699 19.647 9.77699C19.7663 9.77699 19.8707 9.7687 19.9602 9.75213C20.0497 9.73556 20.1193 9.7223 20.169 9.71236L20.4375 10.9403C20.3513 10.9735 20.2287 11.0066 20.0696 11.0398C19.9105 11.0762 19.7116 11.0961 19.473 11.0994C19.0819 11.1061 18.7173 11.0365 18.3793 10.8906C18.0412 10.7448 17.7678 10.5194 17.5589 10.2145C17.3501 9.90956 17.2457 9.52675 17.2457 9.06605V1.53409ZM25.5073 3.36364V4.55682H21.3361V3.36364H25.5073ZM22.4547 1.53409H23.9412V8.75781C23.9412 9.04616 23.9843 9.26326 24.0705 9.40909C24.1567 9.55161 24.2677 9.64938 24.4036 9.70241C24.5428 9.75213 24.6936 9.77699 24.856 9.77699C24.9753 9.77699 25.0797 9.7687 25.1692 9.75213C25.2587 9.73556 25.3283 9.7223 25.378 9.71236L25.6465 10.9403C25.5603 10.9735 25.4377 11.0066 25.2786 11.0398C25.1195 11.0762 24.9206 11.0961 24.682 11.0994C24.2909 11.1061 23.9263 11.0365 23.5882 10.8906C23.2502 10.7448 22.9767 10.5194 22.7679 10.2145C22.5591 9.90956 22.4547 9.52675 22.4547 9.06605V1.53409ZM30.3608 11.1541C29.6084 11.1541 28.9605 10.9934 28.4169 10.6719C27.8767 10.3471 27.459 9.89134 27.1641 9.30469C26.8724 8.71473 26.7266 8.02367 26.7266 7.23153C26.7266 6.44934 26.8724 5.75994 27.1641 5.16335C27.459 4.56676 27.87 4.10109 28.397 3.76633C28.9273 3.43158 29.5471 3.2642 30.2564 3.2642C30.6873 3.2642 31.1049 3.33546 31.5092 3.47798C31.9136 3.6205 32.2765 3.84422 32.598 4.14915C32.9195 4.45407 33.1731 4.85014 33.3587 5.33736C33.5443 5.82126 33.6371 6.40956 33.6371 7.10227V7.62926H27.5668V6.51562H32.1804C32.1804 6.12453 32.1009 5.77817 31.9418 5.47656C31.7827 5.17164 31.5589 4.93134 31.2706 4.75568C30.9856 4.58002 30.6508 4.49219 30.2663 4.49219C29.8487 4.49219 29.4841 4.59493 29.1726 4.80043C28.8643 5.0026 28.6257 5.26776 28.4567 5.59588C28.291 5.92069 28.2081 6.27367 28.2081 6.65483V7.52486C28.2081 8.03527 28.2976 8.46946 28.4766 8.82741C28.6589 9.18537 28.9124 9.45881 29.2372 9.64773C29.562 9.83333 29.9415 9.92614 30.3757 9.92614C30.6574 9.92614 30.9143 9.88636 31.1463 9.80682C31.3783 9.72396 31.5788 9.60133 31.7479 9.43892C31.9169 9.27652 32.0462 9.07599 32.1357 8.83736L33.5426 9.09091C33.4299 9.50521 33.2277 9.86813 32.9361 10.1797C32.6477 10.4879 32.2848 10.7282 31.8473 10.9006C31.4131 11.0696 30.9176 11.1541 30.3608 11.1541ZM35.2864 11V3.36364H36.7232V4.5767H36.8027C36.9419 4.16572 37.1872 3.84257 37.5385 3.60724C37.8932 3.36861 38.2942 3.24929 38.7417 3.24929C38.8345 3.24929 38.9438 3.2526 39.0698 3.25923C39.199 3.26586 39.3001 3.27415 39.373 3.28409V4.70597C39.3134 4.68939 39.2073 4.67116 39.0549 4.65128C38.9024 4.62808 38.7499 4.61648 38.5975 4.61648C38.2462 4.61648 37.9329 4.69105 37.6578 4.8402C37.3861 4.98603 37.1706 5.18987 37.0115 5.4517C36.8525 5.71023 36.7729 6.00521 36.7729 6.33665V11H35.2864ZM41.8315 13.8636C41.6094 13.8636 41.4073 13.8454 41.225 13.8089C41.0427 13.7758 40.9068 13.7393 40.8173 13.6996L41.1752 12.4815C41.447 12.5545 41.689 12.5859 41.9011 12.576C42.1132 12.5661 42.3005 12.4865 42.4629 12.3374C42.6286 12.1882 42.7744 11.9446 42.9004 11.6065L43.0843 11.0994L40.2903 3.36364H41.8812L43.8152 9.28977H43.8947L45.8287 3.36364H47.4245L44.2775 12.0192C44.1317 12.4169 43.9461 12.7533 43.7207 13.0284C43.4953 13.3068 43.2269 13.5156 42.9153 13.6548C42.6038 13.794 42.2425 13.8636 41.8315 13.8636ZM53.3208 6.05327V7.34091H48.8066V6.05327H53.3208ZM58.5932 11.1541C57.8408 11.1541 57.1929 10.9934 56.6493 10.6719C56.1091 10.3471 55.6915 9.89134 55.3965 9.30469C55.1048 8.71473 54.959 8.02367 54.959 7.23153C54.959 6.44934 55.1048 5.75994 55.3965 5.16335C55.6915 4.56676 56.1025 4.10109 56.6294 3.76633C57.1597 3.43158 57.7795 3.2642 58.4888 3.2642C58.9197 3.2642 59.3373 3.33546 59.7417 3.47798C60.146 3.6205 60.5089 3.84422 60.8304 4.14915C61.1519 4.45407 61.4055 4.85014 61.5911 5.33736C61.7767 5.82126 61.8695 6.40956 61.8695 7.10227V7.62926H55.7992V6.51562H60.4128C60.4128 6.12453 60.3333 5.77817 60.1742 5.47656C60.0151 5.17164 59.7914 4.93134 59.503 4.75568C59.218 4.58002 58.8832 4.49219 58.4988 4.49219C58.0811 4.49219 57.7166 4.59493 57.405 4.80043C57.0968 5.0026 56.8581 5.26776 56.6891 5.59588C56.5234 5.92069 56.4405 6.27367 56.4405 6.65483V7.52486C56.4405 8.03527 56.53 8.46946 56.709 8.82741C56.8913 9.18537 57.1448 9.45881 57.4696 9.64773C57.7944 9.83333 58.1739 9.92614 58.6081 9.92614C58.8899 9.92614 59.1467 9.88636 59.3787 9.80682C59.6107 9.72396 59.8113 9.60133 59.9803 9.43892C60.1493 9.27652 60.2786 9.07599 60.3681 8.83736L61.775 9.09091C61.6623 9.50521 61.4602 9.86813 61.1685 10.1797C60.8801 10.4879 60.5172 10.7282 60.0797 10.9006C59.6455 11.0696 59.15 11.1541 58.5932 11.1541ZM63.5188 11V3.36364H64.9457V4.60653H65.0401C65.1992 4.18561 65.4594 3.85748 65.8207 3.62216C66.1819 3.38352 66.6145 3.2642 67.1183 3.2642C67.6287 3.2642 68.0562 3.38352 68.4009 3.62216C68.7489 3.8608 69.0058 4.18892 69.1715 4.60653H69.2511C69.4334 4.19886 69.7234 3.87405 70.1211 3.6321C70.5188 3.38684 70.9928 3.2642 71.543 3.2642C72.2357 3.2642 72.8008 3.4813 73.2383 3.91548C73.6791 4.34967 73.8995 5.00426 73.8995 5.87926V11H72.413V6.01847C72.413 5.50142 72.2721 5.12689 71.9904 4.89489C71.7087 4.66288 71.3723 4.54688 70.9812 4.54688C70.4973 4.54688 70.1211 4.69602 69.8526 4.99432C69.5842 5.2893 69.4499 5.6688 69.4499 6.13281V11H67.9684V5.92401C67.9684 5.50971 67.8391 5.17661 67.5806 4.92472C67.3221 4.67282 66.9857 4.54688 66.5714 4.54688C66.2897 4.54688 66.0295 4.62145 65.7908 4.7706C65.5555 4.91643 65.3649 5.12026 65.2191 5.3821C65.0766 5.64394 65.0053 5.94721 65.0053 6.2919V11H63.5188ZM75.8919 13.8636V3.36364H77.3436V4.60156H77.4679C77.554 4.44247 77.6783 4.25852 77.8407 4.04972C78.0031 3.84091 78.2285 3.65862 78.5169 3.50284C78.8052 3.34375 79.1864 3.2642 79.6603 3.2642C80.2768 3.2642 80.827 3.41998 81.3109 3.73153C81.7948 4.04309 82.1743 4.49219 82.4494 5.07884C82.7278 5.66548 82.867 6.37145 82.867 7.19673C82.867 8.02202 82.7295 8.72964 82.4544 9.3196C82.1793 9.90625 81.8014 10.3587 81.3208 10.6768C80.8403 10.9917 80.2917 11.1491 79.6752 11.1491C79.2112 11.1491 78.8317 11.0713 78.5368 10.9155C78.2451 10.7597 78.0164 10.5774 77.8507 10.3686C77.685 10.1598 77.5574 9.9742 77.4679 9.81179H77.3784V13.8636H75.8919ZM77.3485 7.18182C77.3485 7.71875 77.4264 8.18939 77.5822 8.59375C77.738 8.99811 77.9634 9.31463 78.2583 9.54332C78.5533 9.7687 78.9146 9.88139 79.3422 9.88139C79.7863 9.88139 80.1575 9.76373 80.4558 9.52841C80.7541 9.28977 80.9795 8.96662 81.1319 8.55895C81.2877 8.15128 81.3656 7.69223 81.3656 7.18182C81.3656 6.67803 81.2894 6.22562 81.1369 5.82457C80.9877 5.42353 80.7624 5.10701 80.4608 4.875C80.1625 4.64299 79.7896 4.52699 79.3422 4.52699C78.9113 4.52699 78.5467 4.63802 78.2484 4.86009C77.9534 5.08215 77.7297 5.39205 77.5772 5.78977C77.4248 6.1875 77.3485 6.65151 77.3485 7.18182ZM88.0971 3.36364V4.55682H83.926V3.36364H88.0971ZM85.0446 1.53409H86.5311V8.75781C86.5311 9.04616 86.5742 9.26326 86.6603 9.40909C86.7465 9.55161 86.8575 9.64938 86.9934 9.70241C87.1326 9.75213 87.2834 9.77699 87.4458 9.77699C87.5652 9.77699 87.6696 9.7687 87.7591 9.75213C87.8485 9.73556 87.9181 9.7223 87.9679 9.71236L88.2363 10.9403C88.1502 10.9735 88.0275 11.0066 87.8684 11.0398C87.7093 11.0762 87.5105 11.0961 87.2718 11.0994C86.8807 11.1061 86.5162 11.0365 86.1781 10.8906C85.84 10.7448 85.5666 10.5194 85.3578 10.2145C85.149 9.90956 85.0446 9.52675 85.0446 9.06605V1.53409ZM90.6811 13.8636C90.459 13.8636 90.2569 13.8454 90.0746 13.8089C89.8923 13.7758 89.7564 13.7393 89.6669 13.6996L90.0249 12.4815C90.2966 12.5545 90.5386 12.5859 90.7507 12.576C90.9628 12.5661 91.1501 12.4865 91.3125 12.3374C91.4782 12.1882 91.6241 11.9446 91.75 11.6065L91.9339 11.0994L89.1399 3.36364H90.7308L92.6648 9.28977H92.7443L94.6783 3.36364H96.2741L93.1271 12.0192C92.9813 12.4169 92.7957 12.7533 92.5703 13.0284C92.3449 13.3068 92.0765 13.5156 91.7649 13.6548C91.4534 13.794 91.0921 13.8636 90.6811 13.8636Z" fill="black"/>
</svg>
