<svg width="43" height="15" viewBox="0 0 43 15" fill="none" xmlns="http://www.w3.org/2000/svg">
<path d="M4.56392 3.36364V4.55682H0.392756V3.36364H4.56392ZM1.51136 1.53409H2.99787V8.75781C2.99787 9.04616 3.04096 9.26326 3.12713 9.40909C3.21331 9.55161 3.32434 9.64938 3.46023 9.70241C3.59943 9.75213 3.75024 9.77699 3.91264 9.77699C4.03196 9.77699 4.13636 9.7687 4.22585 9.75213C4.31534 9.73556 4.38494 9.7223 4.43466 9.71236L4.70312 10.9403C4.61695 10.9735 4.49432 11.0066 4.33523 11.0398C4.17614 11.0762 3.97727 11.0961 3.73864 11.0994C3.34754 11.1061 2.98295 11.0365 2.64489 10.8906C2.30682 10.7448 2.03338 10.5194 1.82457 10.2145C1.61577 9.90956 1.51136 9.52675 1.51136 9.06605V1.53409ZM8.43058 11.169C7.94667 11.169 7.50917 11.0795 7.11808 10.9006C6.72698 10.7183 6.41708 10.4548 6.18839 10.1101C5.96301 9.76539 5.85032 9.3428 5.85032 8.84233C5.85032 8.41146 5.93318 8.05682 6.0989 7.77841C6.26462 7.5 6.48834 7.27959 6.77006 7.11719C7.05179 6.95478 7.36665 6.83215 7.71467 6.74929C8.06268 6.66643 8.41732 6.60346 8.77859 6.56037C9.23597 6.50734 9.60719 6.46425 9.89222 6.43111C10.1773 6.39465 10.3844 6.33665 10.5137 6.2571C10.6429 6.17756 10.7076 6.0483 10.7076 5.86932V5.83452C10.7076 5.40033 10.5849 5.06392 10.3397 4.82528C10.0977 4.58665 9.73645 4.46733 9.25586 4.46733C8.75539 4.46733 8.36097 4.57836 8.07262 4.80043C7.78758 5.01918 7.59038 5.26278 7.481 5.53125L6.08398 5.21307C6.2497 4.74905 6.49165 4.37453 6.80984 4.08949C7.13133 3.80114 7.50089 3.59233 7.9185 3.46307C8.33612 3.33049 8.77527 3.2642 9.23597 3.2642C9.5409 3.2642 9.86405 3.30066 10.2054 3.37358C10.5501 3.44318 10.8716 3.57244 11.1699 3.76136C11.4715 3.95028 11.7185 4.22041 11.9107 4.57173C12.1029 4.91974 12.199 5.37216 12.199 5.92898V11H10.7473V9.95597H10.6877C10.5916 10.1482 10.4474 10.3371 10.2551 10.5227C10.0629 10.7083 9.81599 10.8625 9.51438 10.9851C9.21277 11.1077 8.8515 11.169 8.43058 11.169ZM8.75373 9.97585C9.16471 9.97585 9.51604 9.89465 9.80771 9.73224C10.1027 9.56984 10.3264 9.35772 10.4789 9.09588C10.6346 8.83073 10.7125 8.54735 10.7125 8.24574V7.26136C10.6595 7.31439 10.5568 7.36411 10.4043 7.41051C10.2551 7.4536 10.0845 7.49171 9.89222 7.52486C9.69999 7.55469 9.51273 7.58286 9.33043 7.60938C9.14814 7.63258 8.99568 7.65246 8.87305 7.66903C8.58469 7.70549 8.3212 7.76681 8.08256 7.85298C7.84724 7.93916 7.65832 8.06345 7.5158 8.22585C7.3766 8.38494 7.307 8.59706 7.307 8.86222C7.307 9.23011 7.44289 9.50852 7.71467 9.69744C7.98645 9.88305 8.3328 9.97585 8.75373 9.97585ZM17.3807 14.0227C16.7741 14.0227 16.2521 13.9432 15.8146 13.7841C15.3804 13.625 15.0258 13.4145 14.7507 13.1527C14.4756 12.8909 14.2701 12.6042 14.1342 12.2926L15.4119 11.7656C15.5014 11.9115 15.6207 12.0656 15.7699 12.228C15.9223 12.3937 16.1278 12.5346 16.3864 12.6506C16.6482 12.7666 16.9846 12.8246 17.3956 12.8246C17.959 12.8246 18.4247 12.687 18.7926 12.4119C19.1605 12.1402 19.3445 11.706 19.3445 11.1094V9.60795H19.25C19.1605 9.77036 19.0313 9.95099 18.8622 10.1499C18.6965 10.3487 18.4678 10.5211 18.1761 10.6669C17.8845 10.8127 17.505 10.8857 17.0376 10.8857C16.4344 10.8857 15.8909 10.7448 15.407 10.4631C14.9264 10.178 14.5452 9.75876 14.2635 9.20526C13.9851 8.64844 13.8459 7.96401 13.8459 7.15199C13.8459 6.33996 13.9834 5.64394 14.2585 5.06392C14.5369 4.4839 14.9181 4.03977 15.402 3.73153C15.8859 3.41998 16.4344 3.2642 17.0476 3.2642C17.5215 3.2642 17.9044 3.34375 18.196 3.50284C18.4877 3.65862 18.7147 3.84091 18.8771 4.04972C19.0429 4.25852 19.1705 4.44247 19.2599 4.60156H19.3693V3.36364H20.826V11.169C20.826 11.8253 20.6735 12.3639 20.3686 12.7848C20.0637 13.2057 19.651 13.5173 19.1307 13.7195C18.6136 13.9216 18.0303 14.0227 17.3807 14.0227ZM17.3658 9.6527C17.7933 9.6527 18.1546 9.55327 18.4496 9.3544C18.7479 9.15223 18.9732 8.86387 19.1257 8.48935C19.2815 8.11151 19.3594 7.65909 19.3594 7.1321C19.3594 6.61837 19.2831 6.16596 19.1307 5.77486C18.9782 5.38376 18.7545 5.07884 18.4595 4.86009C18.1645 4.63802 17.8 4.52699 17.3658 4.52699C16.9183 4.52699 16.5455 4.64299 16.2472 4.875C15.9489 5.10369 15.7235 5.41525 15.571 5.80966C15.4219 6.20407 15.3473 6.64489 15.3473 7.1321C15.3473 7.63258 15.4235 8.07173 15.576 8.44957C15.7285 8.82741 15.9538 9.1224 16.2521 9.33452C16.5537 9.54664 16.925 9.6527 17.3658 9.6527ZM27.3189 6.05327V7.34091H22.8047V6.05327H27.3189ZM32.8249 11.169C32.0394 11.1657 31.3683 10.9586 30.8114 10.5476C30.2546 10.1366 29.8287 9.53835 29.5337 8.75284C29.2388 7.96733 29.0913 7.02107 29.0913 5.91406C29.0913 4.81037 29.2388 3.86742 29.5337 3.08523C29.832 2.30303 30.2596 1.70644 30.8164 1.29545C31.3765 0.884469 32.046 0.678977 32.8249 0.678977C33.6038 0.678977 34.2717 0.886126 34.8285 1.30043C35.3853 1.71141 35.8112 2.308 36.1062 3.0902C36.4045 3.86908 36.5536 4.81037 36.5536 5.91406C36.5536 7.02438 36.4061 7.9723 36.1112 8.75781C35.8162 9.54001 35.3903 10.1383 34.8335 10.5526C34.2766 10.9635 33.6071 11.169 32.8249 11.169ZM32.8249 9.84162C33.5143 9.84162 34.0529 9.50521 34.4407 8.83239C34.8318 8.15956 35.0273 7.18679 35.0273 5.91406C35.0273 5.06889 34.9379 4.35464 34.7589 3.77131C34.5832 3.18466 34.3297 2.74053 33.9982 2.43892C33.6701 2.134 33.279 1.98153 32.8249 1.98153C32.1388 1.98153 31.6003 2.3196 31.2092 2.99574C30.8181 3.67187 30.6209 4.64465 30.6175 5.91406C30.6175 6.76255 30.7054 7.48011 30.881 8.06676C31.06 8.65009 31.3136 9.09257 31.6417 9.39418C31.9698 9.69247 32.3642 9.84162 32.8249 9.84162ZM42.1802 0.818182V11H40.639V2.35938H40.5794L38.1433 3.95028V2.47869L40.6838 0.818182H42.1802Z" fill="black"/>
</svg>
