<svg width="46" height="14" viewBox="0 0 46 14" fill="none" xmlns="http://www.w3.org/2000/svg">
<path d="M-0.000710189 11V3.36364H1.43608V4.5767H1.51562C1.65483 4.16572 1.90009 3.84257 2.25142 3.60724C2.60606 3.36861 3.0071 3.24929 3.45455 3.24929C3.54735 3.24929 3.65672 3.2526 3.78267 3.25923C3.91193 3.26586 4.01302 3.27415 4.08594 3.28409V4.70597C4.02628 4.68939 3.92022 4.67116 3.76776 4.65128C3.61529 4.62808 3.46283 4.61648 3.31037 4.61648C2.95904 4.61648 2.64583 4.69105 2.37074 4.8402C2.09896 4.98603 1.88352 5.18987 1.72443 5.4517C1.56534 5.71023 1.4858 6.00521 1.4858 6.33665V11H-0.000710189ZM8.39009 11.1541C7.63772 11.1541 6.98976 10.9934 6.4462 10.6719C5.90595 10.3471 5.48834 9.89134 5.19336 9.30469C4.90169 8.71473 4.75586 8.02367 4.75586 7.23153C4.75586 6.44934 4.90169 5.75994 5.19336 5.16335C5.48834 4.56676 5.89933 4.10109 6.42631 3.76633C6.95662 3.43158 7.57641 3.2642 8.28569 3.2642C8.71656 3.2642 9.13417 3.33546 9.53853 3.47798C9.94289 3.6205 10.3058 3.84422 10.6273 4.14915C10.9488 4.45407 11.2024 4.85014 11.388 5.33736C11.5736 5.82126 11.6664 6.40956 11.6664 7.10227V7.62926H5.59606V6.51562H10.2097C10.2097 6.12453 10.1301 5.77817 9.97106 5.47656C9.81197 5.17164 9.58825 4.93134 9.29989 4.75568C9.01486 4.58002 8.6801 4.49219 8.29563 4.49219C7.87802 4.49219 7.51344 4.59493 7.20188 4.80043C6.89364 5.0026 6.65501 5.26776 6.48597 5.59588C6.32025 5.92069 6.23739 6.27367 6.23739 6.65483V7.52486C6.23739 8.03527 6.32688 8.46946 6.50586 8.82741C6.68815 9.18537 6.9417 9.45881 7.26651 9.64773C7.59132 9.83333 7.97082 9.92614 8.40501 9.92614C8.68673 9.92614 8.9436 9.88636 9.1756 9.80682C9.40761 9.72396 9.60813 9.60133 9.77717 9.43892C9.9462 9.27652 10.0755 9.07599 10.165 8.83736L11.5719 9.09091C11.4592 9.50521 11.257 9.86813 10.9654 10.1797C10.677 10.4879 10.3141 10.7282 9.8766 10.9006C9.44241 11.0696 8.94691 11.1541 8.39009 11.1541ZM16.5323 11.1541C15.7932 11.1541 15.1568 10.9867 14.6232 10.652C14.0929 10.3139 13.6853 9.84825 13.4002 9.25497C13.1152 8.66169 12.9727 7.98224 12.9727 7.21662C12.9727 6.44105 13.1185 5.75663 13.4102 5.16335C13.7018 4.56676 14.1128 4.10109 14.6431 3.76633C15.1734 3.43158 15.7982 3.2642 16.5174 3.2642C17.0974 3.2642 17.6145 3.37192 18.0685 3.58736C18.5226 3.79948 18.8888 4.09777 19.1673 4.48224C19.449 4.86671 19.6164 5.31581 19.6694 5.82955H18.2227C18.1431 5.47159 17.9608 5.16335 17.6758 4.90483C17.3941 4.64631 17.0162 4.51705 16.5423 4.51705C16.128 4.51705 15.765 4.62642 15.4535 4.84517C15.1452 5.06061 14.9049 5.36884 14.7326 5.76989C14.5603 6.16761 14.4741 6.63826 14.4741 7.18182C14.4741 7.73864 14.5586 8.21922 14.7276 8.62358C14.8967 9.02794 15.1353 9.34115 15.4435 9.56321C15.7551 9.78527 16.1213 9.89631 16.5423 9.89631C16.824 9.89631 17.0792 9.84493 17.3079 9.74219C17.5399 9.63613 17.7338 9.48532 17.8896 9.28977C18.0487 9.09422 18.1597 8.8589 18.2227 8.58381H19.6694C19.6164 9.07765 19.4556 9.51847 19.1871 9.90625C18.9187 10.294 18.5591 10.599 18.1083 10.821C17.6609 11.0431 17.1355 11.1541 16.5323 11.1541ZM24.5502 11.1541C23.7979 11.1541 23.1499 10.9934 22.6064 10.6719C22.0661 10.3471 21.6485 9.89134 21.3535 9.30469C21.0618 8.71473 20.916 8.02367 20.916 7.23153C20.916 6.44934 21.0618 5.75994 21.3535 5.16335C21.6485 4.56676 22.0595 4.10109 22.5865 3.76633C23.1168 3.43158 23.7366 3.2642 24.4458 3.2642C24.8767 3.2642 25.2943 3.33546 25.6987 3.47798C26.103 3.6205 26.466 3.84422 26.7875 4.14915C27.109 4.45407 27.3625 4.85014 27.5481 5.33736C27.7337 5.82126 27.8265 6.40956 27.8265 7.10227V7.62926H21.7562V6.51562H26.3699C26.3699 6.12453 26.2903 5.77817 26.1312 5.47656C25.9721 5.17164 25.7484 4.93134 25.46 4.75568C25.175 4.58002 24.8403 4.49219 24.4558 4.49219C24.0382 4.49219 23.6736 4.59493 23.362 4.80043C23.0538 5.0026 22.8152 5.26776 22.6461 5.59588C22.4804 5.92069 22.3975 6.27367 22.3975 6.65483V7.52486C22.3975 8.03527 22.487 8.46946 22.666 8.82741C22.8483 9.18537 23.1019 9.45881 23.4267 9.64773C23.7515 9.83333 24.131 9.92614 24.5652 9.92614C24.8469 9.92614 25.1038 9.88636 25.3358 9.80682C25.5678 9.72396 25.7683 9.60133 25.9373 9.43892C26.1064 9.27652 26.2356 9.07599 26.3251 8.83736L27.7321 9.09091C27.6194 9.50521 27.4172 9.86813 27.1255 10.1797C26.8372 10.4879 26.4743 10.7282 26.0368 10.9006C25.6026 11.0696 25.1071 11.1541 24.5502 11.1541ZM29.4759 11V3.36364H30.9624V11H29.4759ZM30.2266 2.18537C29.968 2.18537 29.746 2.09919 29.5604 1.92685C29.3781 1.75118 29.2869 1.54238 29.2869 1.30043C29.2869 1.05516 29.3781 0.846354 29.5604 0.674005C29.746 0.498342 29.968 0.410511 30.2266 0.410511C30.4851 0.410511 30.7055 0.498342 30.8878 0.674005C31.0734 0.846354 31.1662 1.05516 31.1662 1.30043C31.1662 1.54238 31.0734 1.75118 30.8878 1.92685C30.7055 2.09919 30.4851 2.18537 30.2266 2.18537ZM32.9622 13.8636V3.36364H34.4139V4.60156H34.5382C34.6243 4.44247 34.7486 4.25852 34.911 4.04972C35.0734 3.84091 35.2988 3.65862 35.5872 3.50284C35.8755 3.34375 36.2567 3.2642 36.7306 3.2642C37.3471 3.2642 37.8973 3.41998 38.3812 3.73153C38.8651 4.04309 39.2446 4.49219 39.5197 5.07884C39.7981 5.66548 39.9373 6.37145 39.9373 7.19673C39.9373 8.02202 39.7998 8.72964 39.5247 9.3196C39.2496 9.90625 38.8717 10.3587 38.3912 10.6768C37.9106 10.9917 37.362 11.1491 36.7456 11.1491C36.2815 11.1491 35.902 11.0713 35.6071 10.9155C35.3154 10.7597 35.0867 10.5774 34.921 10.3686C34.7553 10.1598 34.6277 9.9742 34.5382 9.81179H34.4487V13.8636H32.9622ZM34.4189 7.18182C34.4189 7.71875 34.4967 8.18939 34.6525 8.59375C34.8083 8.99811 35.0337 9.31463 35.3287 9.54332C35.6236 9.7687 35.9849 9.88139 36.4125 9.88139C36.8566 9.88139 37.2278 9.76373 37.5261 9.52841C37.8244 9.28977 38.0498 8.96662 38.2022 8.55895C38.358 8.15128 38.4359 7.69223 38.4359 7.18182C38.4359 6.67803 38.3597 6.22562 38.2072 5.82457C38.0581 5.42353 37.8327 5.10701 37.5311 4.875C37.2328 4.64299 36.8599 4.52699 36.4125 4.52699C35.9816 4.52699 35.617 4.63802 35.3187 4.86009C35.0237 5.08215 34.8 5.39205 34.6475 5.78977C34.4951 6.1875 34.4189 6.65151 34.4189 7.18182ZM45.1674 3.36364V4.55682H40.9963V3.36364H45.1674ZM42.1149 1.53409H43.6014V8.75781C43.6014 9.04616 43.6445 9.26326 43.7306 9.40909C43.8168 9.55161 43.9279 9.64938 44.0637 9.70241C44.2029 9.75213 44.3538 9.77699 44.5162 9.77699C44.6355 9.77699 44.7399 9.7687 44.8294 9.75213C44.9189 9.73556 44.9885 9.7223 45.0382 9.71236L45.3066 10.9403C45.2205 10.9735 45.0978 11.0066 44.9387 11.0398C44.7797 11.0762 44.5808 11.0961 44.3422 11.0994C43.9511 11.1061 43.5865 11.0365 43.2484 10.8906C42.9103 10.7448 42.6369 10.5194 42.4281 10.2145C42.2193 9.90956 42.1149 9.52675 42.1149 9.06605V1.53409Z" fill="black"/>
</svg>
