<svg width="60" height="12" viewBox="0 0 60 12" fill="none" xmlns="http://www.w3.org/2000/svg">
<path d="M4.21591 11.1541C3.4768 11.1541 2.84044 10.9867 2.30682 10.652C1.77652 10.3139 1.36884 9.84825 1.08381 9.25497C0.798769 8.66169 0.65625 7.98224 0.65625 7.21662C0.65625 6.44105 0.802083 5.75663 1.09375 5.16335C1.38542 4.56676 1.7964 4.10109 2.3267 3.76633C2.85701 3.43158 3.48177 3.2642 4.20099 3.2642C4.78101 3.2642 5.29806 3.37192 5.75213 3.58736C6.2062 3.79948 6.57244 4.09777 6.85085 4.48224C7.13258 4.86671 7.29995 5.31581 7.35298 5.82955H5.90625C5.8267 5.47159 5.64441 5.16335 5.35938 4.90483C5.07765 4.64631 4.69981 4.51705 4.22585 4.51705C3.81155 4.51705 3.44863 4.62642 3.13707 4.84517C2.82884 5.06061 2.58854 5.36884 2.41619 5.76989C2.24384 6.16761 2.15767 6.63826 2.15767 7.18182C2.15767 7.73864 2.24219 8.21922 2.41122 8.62358C2.58026 9.02794 2.81889 9.34115 3.12713 9.56321C3.43868 9.78527 3.80492 9.89631 4.22585 9.89631C4.50758 9.89631 4.76278 9.84493 4.99148 9.74219C5.22349 9.63613 5.41738 9.48532 5.57315 9.28977C5.73224 9.09422 5.84328 8.8589 5.90625 8.58381H7.35298C7.29995 9.07765 7.1392 9.51847 6.87074 9.90625C6.60227 10.294 6.24266 10.599 5.7919 10.821C5.34446 11.0431 4.81913 11.1541 4.21591 11.1541ZM12.1593 11.1541C11.4434 11.1541 10.8186 10.9901 10.285 10.6619C9.75136 10.3338 9.33706 9.87476 9.04208 9.2848C8.7471 8.69484 8.59961 8.00544 8.59961 7.21662C8.59961 6.42448 8.7471 5.73177 9.04208 5.13849C9.33706 4.54522 9.75136 4.08452 10.285 3.75639C10.8186 3.42827 11.4434 3.2642 12.1593 3.2642C12.8752 3.2642 13.4999 3.42827 14.0336 3.75639C14.5672 4.08452 14.9815 4.54522 15.2765 5.13849C15.5714 5.73177 15.7189 6.42448 15.7189 7.21662C15.7189 8.00544 15.5714 8.69484 15.2765 9.2848C14.9815 9.87476 14.5672 10.3338 14.0336 10.6619C13.4999 10.9901 12.8752 11.1541 12.1593 11.1541ZM12.1642 9.90625C12.6283 9.90625 13.0127 9.78362 13.3176 9.53835C13.6226 9.29309 13.848 8.96662 13.9938 8.55895C14.1429 8.15128 14.2175 7.70218 14.2175 7.21165C14.2175 6.72443 14.1429 6.27699 13.9938 5.86932C13.848 5.45833 13.6226 5.12855 13.3176 4.87997C13.0127 4.63139 12.6283 4.5071 12.1642 4.5071C11.6969 4.5071 11.3091 4.63139 11.0009 4.87997C10.696 5.12855 10.4689 5.45833 10.3198 5.86932C10.1739 6.27699 10.101 6.72443 10.101 7.21165C10.101 7.70218 10.1739 8.15128 10.3198 8.55895C10.4689 8.96662 10.696 9.29309 11.0009 9.53835C11.3091 9.78362 11.6969 9.90625 12.1642 9.90625ZM17.3782 11V3.36364H18.8647V11H17.3782ZM18.1289 2.18537C17.8704 2.18537 17.6483 2.09919 17.4627 1.92685C17.2804 1.75118 17.1893 1.54238 17.1893 1.30043C17.1893 1.05516 17.2804 0.846354 17.4627 0.674005C17.6483 0.498342 17.8704 0.410511 18.1289 0.410511C18.3874 0.410511 18.6078 0.498342 18.7901 0.674005C18.9757 0.846354 19.0685 1.05516 19.0685 1.30043C19.0685 1.54238 18.9757 1.75118 18.7901 1.92685C18.6078 2.09919 18.3874 2.18537 18.1289 2.18537ZM22.351 6.46591V11H20.8645V3.36364H22.2914V4.60653H22.3858C22.5615 4.20218 22.8366 3.87737 23.2111 3.6321C23.589 3.38684 24.0646 3.2642 24.638 3.2642C25.1583 3.2642 25.6141 3.37358 26.0051 3.59233C26.3962 3.80777 26.6995 4.12926 26.915 4.55682C27.1304 4.98437 27.2381 5.51302 27.2381 6.14276V11H25.7516V6.32173C25.7516 5.76823 25.6074 5.3357 25.3191 5.02415C25.0307 4.70928 24.6346 4.55185 24.1309 4.55185C23.7862 4.55185 23.4796 4.62642 23.2111 4.77557C22.946 4.92472 22.7355 5.14347 22.5797 5.43182C22.4273 5.71686 22.351 6.06155 22.351 6.46591ZM34.954 5.22798L33.6067 5.46662C33.5504 5.29427 33.4609 5.13021 33.3382 4.97443C33.2189 4.81865 33.0565 4.69105 32.851 4.59162C32.6455 4.49219 32.3887 4.44247 32.0804 4.44247C31.6595 4.44247 31.3082 4.53693 31.0265 4.72585C30.7447 4.91146 30.6039 5.15175 30.6039 5.44673C30.6039 5.70194 30.6983 5.90743 30.8873 6.06321C31.0762 6.21899 31.3811 6.34659 31.802 6.44602L33.0151 6.72443C33.7177 6.88684 34.2414 7.13707 34.5861 7.47514C34.9308 7.81321 35.1032 8.25237 35.1032 8.79261C35.1032 9.25 34.9706 9.65767 34.7054 10.0156C34.4436 10.3703 34.0774 10.6487 33.6067 10.8509C33.1394 11.053 32.5975 11.1541 31.981 11.1541C31.1259 11.1541 30.4282 10.9718 29.888 10.6072C29.3477 10.2393 29.0163 9.71733 28.8936 9.04119L30.3304 8.82244C30.4199 9.19697 30.6039 9.48035 30.8823 9.67259C31.1607 9.86151 31.5236 9.95597 31.9711 9.95597C32.4583 9.95597 32.8477 9.85488 33.1394 9.6527C33.431 9.44721 33.5769 9.19697 33.5769 8.90199C33.5769 8.66335 33.4874 8.46283 33.3084 8.30043C33.1328 8.13802 32.8626 8.01539 32.498 7.93253L31.2054 7.64915C30.4928 7.48674 29.9658 7.22822 29.6245 6.87358C29.2864 6.51894 29.1174 6.06984 29.1174 5.52628C29.1174 5.07552 29.2433 4.68111 29.4952 4.34304C29.7471 4.00497 30.0951 3.74148 30.5392 3.55256C30.9834 3.36032 31.4921 3.2642 32.0655 3.2642C32.8908 3.2642 33.5404 3.44318 34.0144 3.80114C34.4883 4.15578 34.8016 4.63139 34.954 5.22798ZM41.2369 6.05327V7.34091H36.7227V6.05327H41.2369ZM46.7429 11.169C45.9574 11.1657 45.2862 10.9586 44.7294 10.5476C44.1726 10.1366 43.7467 9.53835 43.4517 8.75284C43.1567 7.96733 43.0092 7.02107 43.0092 5.91406C43.0092 4.81037 43.1567 3.86742 43.4517 3.08523C43.75 2.30303 44.1776 1.70644 44.7344 1.29545C45.2945 0.884469 45.964 0.678977 46.7429 0.678977C47.5218 0.678977 48.1896 0.886126 48.7464 1.30043C49.3033 1.71141 49.7292 2.308 50.0241 3.0902C50.3224 3.86908 50.4716 4.81037 50.4716 5.91406C50.4716 7.02438 50.3241 7.9723 50.0291 8.75781C49.7341 9.54001 49.3082 10.1383 48.7514 10.5526C48.1946 10.9635 47.5251 11.169 46.7429 11.169ZM46.7429 9.84162C47.4323 9.84162 47.9709 9.50521 48.3587 8.83239C48.7498 8.15956 48.9453 7.18679 48.9453 5.91406C48.9453 5.06889 48.8558 4.35464 48.6768 3.77131C48.5012 3.18466 48.2476 2.74053 47.9162 2.43892C47.5881 2.134 47.197 1.98153 46.7429 1.98153C46.0568 1.98153 45.5182 2.3196 45.1271 2.99574C44.736 3.67187 44.5388 4.64465 44.5355 5.91406C44.5355 6.76255 44.6233 7.48011 44.799 8.06676C44.978 8.65009 45.2315 9.09257 45.5597 9.39418C45.8878 9.69247 46.2822 9.84162 46.7429 9.84162ZM52.0215 9.01136V7.76847L56.4213 0.818182H57.4007V2.64773H56.7793L53.6323 7.62926V7.70881H59.6628V9.01136H52.0215ZM56.8489 11V8.63352L56.8588 8.06676V0.818182H58.3155V11H56.8489Z" fill="black"/>
</svg>
