<svg width="104" height="11" viewBox="0 0 104 11" fill="none" xmlns="http://www.w3.org/2000/svg">
<path d="M4.21591 8.15412C3.4768 8.15412 2.84044 7.98674 2.30682 7.65199C1.77652 7.31392 1.36884 6.84825 1.08381 6.25497C0.798769 5.66169 0.65625 4.98224 0.65625 4.21662C0.65625 3.44105 0.802083 2.75663 1.09375 2.16335C1.38542 1.56676 1.7964 1.10109 2.3267 0.766335C2.85701 0.431581 3.48177 0.264205 4.20099 0.264205C4.78101 0.264205 5.29806 0.371922 5.75213 0.587358C6.2062 0.799479 6.57244 1.09777 6.85085 1.48224C7.13258 1.86671 7.29995 2.31581 7.35298 2.82955H5.90625C5.8267 2.47159 5.64441 2.16335 5.35938 1.90483C5.07765 1.64631 4.69981 1.51705 4.22585 1.51705C3.81155 1.51705 3.44863 1.62642 3.13707 1.84517C2.82884 2.06061 2.58854 2.36884 2.41619 2.76989C2.24384 3.16761 2.15767 3.63826 2.15767 4.18182C2.15767 4.73864 2.24219 5.21922 2.41122 5.62358C2.58026 6.02794 2.81889 6.34115 3.12713 6.56321C3.43868 6.78527 3.80492 6.89631 4.22585 6.89631C4.50758 6.89631 4.76278 6.84493 4.99148 6.74219C5.22349 6.63613 5.41738 6.48532 5.57315 6.28977C5.73224 6.09422 5.84328 5.8589 5.90625 5.58381H7.35298C7.29995 6.07765 7.1392 6.51847 6.87074 6.90625C6.60227 7.29403 6.24266 7.59896 5.7919 7.82102C5.34446 8.04309 4.81913 8.15412 4.21591 8.15412ZM13.78 4.8331V0.363636H15.2715V8H13.8098V6.67756H13.7303C13.5546 7.08523 13.2729 7.42495 12.8851 7.69673C12.5007 7.9652 12.0217 8.09943 11.4483 8.09943C10.9578 8.09943 10.5236 7.99171 10.1458 7.77628C9.77125 7.55753 9.47627 7.23438 9.26083 6.80682C9.04871 6.37926 8.94265 5.85062 8.94265 5.22088V0.363636H10.4292V5.0419C10.4292 5.56226 10.5733 5.97656 10.8617 6.2848C11.15 6.59304 11.5246 6.74716 11.9853 6.74716C12.2637 6.74716 12.5404 6.67756 12.8155 6.53835C13.0939 6.39915 13.3243 6.18868 13.5066 5.90696C13.6922 5.62524 13.7833 5.26728 13.78 4.8331ZM17.2688 8V0.363636H18.7056V1.5767H18.7852C18.9244 1.16572 19.1696 0.842566 19.521 0.607244C19.8756 0.368608 20.2766 0.249289 20.7241 0.249289C20.8169 0.249289 20.9263 0.252604 21.0522 0.259233C21.1815 0.265861 21.2826 0.274147 21.3555 0.284091V1.70597C21.2958 1.68939 21.1897 1.67116 21.0373 1.65128C20.8848 1.62808 20.7324 1.61648 20.5799 1.61648C20.2286 1.61648 19.9154 1.69105 19.6403 1.8402C19.3685 1.98603 19.1531 2.18987 18.994 2.4517C18.8349 2.71023 18.7553 3.00521 18.7553 3.33665V8H17.2688ZM22.6419 8V0.363636H24.0787V1.5767H24.1582C24.2974 1.16572 24.5427 0.842566 24.894 0.607244C25.2486 0.368608 25.6497 0.249289 26.0971 0.249289C26.1899 0.249289 26.2993 0.252604 26.4252 0.259233C26.5545 0.265861 26.6556 0.274147 26.7285 0.284091V1.70597C26.6689 1.68939 26.5628 1.67116 26.4103 1.65128C26.2579 1.62808 26.1054 1.61648 25.9529 1.61648C25.6016 1.61648 25.2884 1.69105 25.0133 1.8402C24.7415 1.98603 24.5261 2.18987 24.367 2.4517C24.2079 2.71023 24.1284 3.00521 24.1284 3.33665V8H22.6419ZM31.0327 8.15412C30.2803 8.15412 29.6323 7.99337 29.0888 7.67188C28.5485 7.34706 28.1309 6.89134 27.8359 6.30469C27.5443 5.71473 27.3984 5.02367 27.3984 4.23153C27.3984 3.44934 27.5443 2.75994 27.8359 2.16335C28.1309 1.56676 28.5419 1.10109 29.0689 0.766335C29.5992 0.431581 30.219 0.264205 30.9283 0.264205C31.3591 0.264205 31.7768 0.335464 32.1811 0.477983C32.5855 0.620502 32.9484 0.844223 33.2699 1.14915C33.5914 1.45407 33.8449 1.85014 34.0305 2.33736C34.2161 2.82126 34.3089 3.40956 34.3089 4.10227V4.62926H28.2386V3.51562H32.8523C32.8523 3.12453 32.7727 2.77817 32.6136 2.47656C32.4545 2.17164 32.2308 1.93134 31.9425 1.75568C31.6574 1.58002 31.3227 1.49219 30.9382 1.49219C30.5206 1.49219 30.156 1.59493 29.8445 1.80043C29.5362 2.0026 29.2976 2.26776 29.1286 2.59588C28.9628 2.92069 28.88 3.27367 28.88 3.65483V4.52486C28.88 5.03527 28.9695 5.46946 29.1484 5.82741C29.3307 6.18537 29.5843 6.45881 29.9091 6.64773C30.2339 6.83333 30.6134 6.92614 31.0476 6.92614C31.3293 6.92614 31.5862 6.88636 31.8182 6.80682C32.0502 6.72396 32.2507 6.60133 32.4197 6.43892C32.5888 6.27652 32.718 6.07599 32.8075 5.83736L34.2145 6.09091C34.1018 6.50521 33.8996 6.86813 33.608 7.17969C33.3196 7.48793 32.9567 7.72822 32.5192 7.90057C32.085 8.0696 31.5895 8.15412 31.0327 8.15412ZM37.4448 3.46591V8H35.9583V0.363636H37.3851V1.60653H37.4796C37.6552 1.20218 37.9303 0.877367 38.3049 0.632102C38.6827 0.386837 39.1583 0.264205 39.7317 0.264205C40.2521 0.264205 40.7078 0.37358 41.0989 0.59233C41.49 0.807765 41.7933 1.12926 42.0087 1.55682C42.2241 1.98437 42.3319 2.51302 42.3319 3.14276V8H40.8453V3.32173C40.8453 2.76823 40.7012 2.3357 40.4128 2.02415C40.1245 1.70928 39.7284 1.55185 39.2246 1.55185C38.8799 1.55185 38.5733 1.62642 38.3049 1.77557C38.0397 1.92472 37.8292 2.14347 37.6735 2.43182C37.521 2.71686 37.4448 3.06155 37.4448 3.46591ZM47.5421 8.15412C46.803 8.15412 46.1666 7.98674 45.633 7.65199C45.1027 7.31392 44.695 6.84825 44.41 6.25497C44.1249 5.66169 43.9824 4.98224 43.9824 4.21662C43.9824 3.44105 44.1283 2.75663 44.4199 2.16335C44.7116 1.56676 45.1226 1.10109 45.6529 0.766335C46.1832 0.431581 46.8079 0.264205 47.5272 0.264205C48.1072 0.264205 48.6242 0.371922 49.0783 0.587358C49.5324 0.799479 49.8986 1.09777 50.177 1.48224C50.4587 1.86671 50.6261 2.31581 50.6792 2.82955H49.2324C49.1529 2.47159 48.9706 2.16335 48.6855 1.90483C48.4038 1.64631 48.026 1.51705 47.552 1.51705C47.1377 1.51705 46.7748 1.62642 46.4632 1.84517C46.155 2.06061 45.9147 2.36884 45.7424 2.76989C45.57 3.16761 45.4838 3.63826 45.4838 4.18182C45.4838 4.73864 45.5684 5.21922 45.7374 5.62358C45.9064 6.02794 46.1451 6.34115 46.4533 6.56321C46.7649 6.78527 47.1311 6.89631 47.552 6.89631C47.8337 6.89631 48.089 6.84493 48.3176 6.74219C48.5497 6.63613 48.7435 6.48532 48.8993 6.28977C49.0584 6.09422 49.1694 5.8589 49.2324 5.58381H50.6792C50.6261 6.07765 50.4654 6.51847 50.1969 6.90625C49.9284 7.29403 49.5688 7.59896 49.1181 7.82102C48.6706 8.04309 48.1453 8.15412 47.5421 8.15412ZM53.2085 10.8636C52.9864 10.8636 52.7842 10.8454 52.6019 10.8089C52.4196 10.7758 52.2837 10.7393 52.1942 10.6996L52.5522 9.48153C52.824 9.55445 53.0659 9.58594 53.2781 9.57599C53.4902 9.56605 53.6774 9.48651 53.8398 9.33736C54.0056 9.18821 54.1514 8.9446 54.2773 8.60653L54.4613 8.09943L51.6673 0.363636H53.2582L55.1921 6.28977H55.2717L57.2056 0.363636H58.8015L55.6545 9.01918C55.5086 9.4169 55.323 9.75331 55.0977 10.0284C54.8723 10.3068 54.6038 10.5156 54.2923 10.6548C53.9807 10.794 53.6194 10.8636 53.2085 10.8636ZM64.6978 3.05327V4.34091H60.1836V3.05327H64.6978ZM66.679 8V0.363636H68.1158V1.5767H68.1953C68.3345 1.16572 68.5798 0.842566 68.9311 0.607244C69.2857 0.368608 69.6868 0.249289 70.1342 0.249289C70.227 0.249289 70.3364 0.252604 70.4624 0.259233C70.5916 0.265861 70.6927 0.274147 70.7656 0.284091V1.70597C70.706 1.68939 70.5999 1.67116 70.4474 1.65128C70.295 1.62808 70.1425 1.61648 69.9901 1.61648C69.6387 1.61648 69.3255 1.69105 69.0504 1.8402C68.7786 1.98603 68.5632 2.18987 68.4041 2.4517C68.245 2.71023 68.1655 3.00521 68.1655 3.33665V8H66.679ZM76.8894 4.8331V0.363636H78.3809V8H76.9192V6.67756H76.8397C76.664 7.08523 76.3823 7.42495 75.9945 7.69673C75.61 7.9652 75.1311 8.09943 74.5577 8.09943C74.0672 8.09943 73.633 7.99171 73.2551 7.77628C72.8806 7.55753 72.5856 7.23438 72.3702 6.80682C72.1581 6.37926 72.052 5.85062 72.052 5.22088V0.363636H73.5385V5.0419C73.5385 5.56226 73.6827 5.97656 73.9711 6.2848C74.2594 6.59304 74.6339 6.74716 75.0946 6.74716C75.373 6.74716 75.6498 6.67756 75.9249 6.53835C76.2033 6.39915 76.4337 6.18868 76.6159 5.90696C76.8016 5.62524 76.8927 5.26728 76.8894 4.8331ZM80.3782 10.8636V0.363636H81.8299V1.60156H81.9542C82.0404 1.44247 82.1647 1.25852 82.3271 1.04972C82.4895 0.840909 82.7148 0.658617 83.0032 0.502841C83.2915 0.34375 83.6727 0.264205 84.1467 0.264205C84.7631 0.264205 85.3133 0.419981 85.7972 0.731534C86.2811 1.04309 86.6606 1.49219 86.9357 2.07884C87.2141 2.66548 87.3533 3.37145 87.3533 4.19673C87.3533 5.02202 87.2158 5.72964 86.9407 6.3196C86.6656 6.90625 86.2878 7.35866 85.8072 7.67685C85.3266 7.99171 84.7781 8.14915 84.1616 8.14915C83.6976 8.14915 83.3181 8.07126 83.0231 7.91548C82.7314 7.75971 82.5027 7.57741 82.337 7.36861C82.1713 7.1598 82.0437 6.9742 81.9542 6.81179H81.8647V10.8636H80.3782ZM81.8349 4.18182C81.8349 4.71875 81.9128 5.18939 82.0685 5.59375C82.2243 5.99811 82.4497 6.31463 82.7447 6.54332C83.0397 6.7687 83.4009 6.88139 83.8285 6.88139C84.2726 6.88139 84.6438 6.76373 84.9421 6.52841C85.2404 6.28977 85.4658 5.96662 85.6183 5.55895C85.774 5.15128 85.8519 4.69223 85.8519 4.18182C85.8519 3.67803 85.7757 3.22562 85.6232 2.82457C85.4741 2.42353 85.2487 2.10701 84.9471 1.875C84.6488 1.64299 84.2759 1.52699 83.8285 1.52699C83.3976 1.52699 83.033 1.63802 82.7347 1.86009C82.4397 2.08215 82.216 2.39205 82.0636 2.78977C81.9111 3.1875 81.8349 3.65151 81.8349 4.18182ZM92.31 8.15412C91.5576 8.15412 90.9097 7.99337 90.3661 7.67188C89.8259 7.34706 89.4083 6.89134 89.1133 6.30469C88.8216 5.71473 88.6758 5.02367 88.6758 4.23153C88.6758 3.44934 88.8216 2.75994 89.1133 2.16335C89.4083 1.56676 89.8192 1.10109 90.3462 0.766335C90.8765 0.431581 91.4963 0.264205 92.2056 0.264205C92.6365 0.264205 93.0541 0.335464 93.4585 0.477983C93.8628 0.620502 94.2257 0.844223 94.5472 1.14915C94.8687 1.45407 95.1223 1.85014 95.3079 2.33736C95.4935 2.82126 95.5863 3.40956 95.5863 4.10227V4.62926H89.516V3.51562H94.1296C94.1296 3.12453 94.0501 2.77817 93.891 2.47656C93.7319 2.17164 93.5082 1.93134 93.2198 1.75568C92.9348 1.58002 92.6 1.49219 92.2156 1.49219C91.7979 1.49219 91.4334 1.59493 91.1218 1.80043C90.8136 2.0026 90.5749 2.26776 90.4059 2.59588C90.2402 2.92069 90.1573 3.27367 90.1573 3.65483V4.52486C90.1573 5.03527 90.2468 5.46946 90.4258 5.82741C90.6081 6.18537 90.8616 6.45881 91.1864 6.64773C91.5112 6.83333 91.8907 6.92614 92.3249 6.92614C92.6067 6.92614 92.8635 6.88636 93.0955 6.80682C93.3275 6.72396 93.5281 6.60133 93.6971 6.43892C93.8661 6.27652 93.9954 6.07599 94.0849 5.83736L95.4918 6.09091C95.3791 6.50521 95.177 6.86813 94.8853 7.17969C94.5969 7.48793 94.234 7.72822 93.7965 7.90057C93.3623 8.0696 92.8668 8.15412 92.31 8.15412ZM100.527 8.15412C99.7744 8.15412 99.1265 7.99337 98.5829 7.67188C98.0427 7.34706 97.6251 6.89134 97.3301 6.30469C97.0384 5.71473 96.8926 5.02367 96.8926 4.23153C96.8926 3.44934 97.0384 2.75994 97.3301 2.16335C97.6251 1.56676 98.036 1.10109 98.563 0.766335C99.0933 0.431581 99.7131 0.264205 100.422 0.264205C100.853 0.264205 101.271 0.335464 101.675 0.477983C102.08 0.620502 102.443 0.844223 102.764 1.14915C103.086 1.45407 103.339 1.85014 103.525 2.33736C103.71 2.82126 103.803 3.40956 103.803 4.10227V4.62926H97.7328V3.51562H102.346C102.346 3.12453 102.267 2.77817 102.108 2.47656C101.949 2.17164 101.725 1.93134 101.437 1.75568C101.152 1.58002 100.817 1.49219 100.432 1.49219C100.015 1.49219 99.6502 1.59493 99.3386 1.80043C99.0304 2.0026 98.7917 2.26776 98.6227 2.59588C98.457 2.92069 98.3741 3.27367 98.3741 3.65483V4.52486C98.3741 5.03527 98.4636 5.46946 98.6426 5.82741C98.8249 6.18537 99.0784 6.45881 99.4032 6.64773C99.728 6.83333 100.108 6.92614 100.542 6.92614C100.823 6.92614 101.08 6.88636 101.312 6.80682C101.544 6.72396 101.745 6.60133 101.914 6.43892C102.083 6.27652 102.212 6.07599 102.302 5.83736L103.709 6.09091C103.596 6.50521 103.394 6.86813 103.102 7.17969C102.814 7.48793 102.451 7.72822 102.013 7.90057C101.579 8.0696 101.084 8.15412 100.527 8.15412Z" fill="black"/>
</svg>
