<svg width="154" height="14" viewBox="0 0 154 14" fill="none" xmlns="http://www.w3.org/2000/svg">
<path d="M4.21591 11.1541C3.4768 11.1541 2.84044 10.9867 2.30682 10.652C1.77652 10.3139 1.36884 9.84825 1.08381 9.25497C0.798769 8.66169 0.65625 7.98224 0.65625 7.21662C0.65625 6.44105 0.802083 5.75663 1.09375 5.16335C1.38542 4.56676 1.7964 4.10109 2.3267 3.76633C2.85701 3.43158 3.48177 3.2642 4.20099 3.2642C4.78101 3.2642 5.29806 3.37192 5.75213 3.58736C6.2062 3.79948 6.57244 4.09777 6.85085 4.48224C7.13258 4.86671 7.29995 5.31581 7.35298 5.82955H5.90625C5.8267 5.47159 5.64441 5.16335 5.35938 4.90483C5.07765 4.64631 4.69981 4.51705 4.22585 4.51705C3.81155 4.51705 3.44863 4.62642 3.13707 4.84517C2.82884 5.06061 2.58854 5.36884 2.41619 5.76989C2.24384 6.16761 2.15767 6.63826 2.15767 7.18182C2.15767 7.73864 2.24219 8.21922 2.41122 8.62358C2.58026 9.02794 2.81889 9.34115 3.12713 9.56321C3.43868 9.78527 3.80492 9.89631 4.22585 9.89631C4.50758 9.89631 4.76278 9.84493 4.99148 9.74219C5.22349 9.63613 5.41738 9.48532 5.57315 9.28977C5.73224 9.09422 5.84328 8.8589 5.90625 8.58381H7.35298C7.29995 9.07765 7.1392 9.51847 6.87074 9.90625C6.60227 10.294 6.24266 10.599 5.7919 10.821C5.34446 11.0431 4.81913 11.1541 4.21591 11.1541ZM13.78 7.8331V3.36364H15.2715V11H13.8098V9.67756H13.7303C13.5546 10.0852 13.2729 10.425 12.8851 10.6967C12.5007 10.9652 12.0217 11.0994 11.4483 11.0994C10.9578 11.0994 10.5236 10.9917 10.1458 10.7763C9.77125 10.5575 9.47627 10.2344 9.26083 9.80682C9.04871 9.37926 8.94265 8.85062 8.94265 8.22088V3.36364H10.4292V8.0419C10.4292 8.56226 10.5733 8.97656 10.8617 9.2848C11.15 9.59304 11.5246 9.74716 11.9853 9.74716C12.2637 9.74716 12.5404 9.67756 12.8155 9.53835C13.0939 9.39915 13.3243 9.18868 13.5066 8.90696C13.6922 8.62524 13.7833 8.26728 13.78 7.8331ZM17.2688 11V3.36364H18.7056V4.5767H18.7852C18.9244 4.16572 19.1696 3.84257 19.521 3.60724C19.8756 3.36861 20.2766 3.24929 20.7241 3.24929C20.8169 3.24929 20.9263 3.2526 21.0522 3.25923C21.1815 3.26586 21.2826 3.27415 21.3555 3.28409V4.70597C21.2958 4.68939 21.1897 4.67116 21.0373 4.65128C20.8848 4.62808 20.7324 4.61648 20.5799 4.61648C20.2286 4.61648 19.9154 4.69105 19.6403 4.8402C19.3685 4.98603 19.1531 5.18987 18.994 5.4517C18.8349 5.71023 18.7553 6.00521 18.7553 6.33665V11H17.2688ZM22.6419 11V3.36364H24.0787V4.5767H24.1582C24.2974 4.16572 24.5427 3.84257 24.894 3.60724C25.2486 3.36861 25.6497 3.24929 26.0971 3.24929C26.1899 3.24929 26.2993 3.2526 26.4252 3.25923C26.5545 3.26586 26.6556 3.27415 26.7285 3.28409V4.70597C26.6689 4.68939 26.5628 4.67116 26.4103 4.65128C26.2579 4.62808 26.1054 4.61648 25.9529 4.61648C25.6016 4.61648 25.2884 4.69105 25.0133 4.8402C24.7415 4.98603 24.5261 5.18987 24.367 5.4517C24.2079 5.71023 24.1284 6.00521 24.1284 6.33665V11H22.6419ZM31.0327 11.1541C30.2803 11.1541 29.6323 10.9934 29.0888 10.6719C28.5485 10.3471 28.1309 9.89134 27.8359 9.30469C27.5443 8.71473 27.3984 8.02367 27.3984 7.23153C27.3984 6.44934 27.5443 5.75994 27.8359 5.16335C28.1309 4.56676 28.5419 4.10109 29.0689 3.76633C29.5992 3.43158 30.219 3.2642 30.9283 3.2642C31.3591 3.2642 31.7768 3.33546 32.1811 3.47798C32.5855 3.6205 32.9484 3.84422 33.2699 4.14915C33.5914 4.45407 33.8449 4.85014 34.0305 5.33736C34.2161 5.82126 34.3089 6.40956 34.3089 7.10227V7.62926H28.2386V6.51562H32.8523C32.8523 6.12453 32.7727 5.77817 32.6136 5.47656C32.4545 5.17164 32.2308 4.93134 31.9425 4.75568C31.6574 4.58002 31.3227 4.49219 30.9382 4.49219C30.5206 4.49219 30.156 4.59493 29.8445 4.80043C29.5362 5.0026 29.2976 5.26776 29.1286 5.59588C28.9628 5.92069 28.88 6.27367 28.88 6.65483V7.52486C28.88 8.03527 28.9695 8.46946 29.1484 8.82741C29.3307 9.18537 29.5843 9.45881 29.9091 9.64773C30.2339 9.83333 30.6134 9.92614 31.0476 9.92614C31.3293 9.92614 31.5862 9.88636 31.8182 9.80682C32.0502 9.72396 32.2507 9.60133 32.4197 9.43892C32.5888 9.27652 32.718 9.07599 32.8075 8.83736L34.2145 9.09091C34.1018 9.50521 33.8996 9.86813 33.608 10.1797C33.3196 10.4879 32.9567 10.7282 32.5192 10.9006C32.085 11.0696 31.5895 11.1541 31.0327 11.1541ZM37.4448 6.46591V11H35.9583V3.36364H37.3851V4.60653H37.4796C37.6552 4.20218 37.9303 3.87737 38.3049 3.6321C38.6827 3.38684 39.1583 3.2642 39.7317 3.2642C40.2521 3.2642 40.7078 3.37358 41.0989 3.59233C41.49 3.80777 41.7933 4.12926 42.0087 4.55682C42.2241 4.98437 42.3319 5.51302 42.3319 6.14276V11H40.8453V6.32173C40.8453 5.76823 40.7012 5.3357 40.4128 5.02415C40.1245 4.70928 39.7284 4.55185 39.2246 4.55185C38.8799 4.55185 38.5733 4.62642 38.3049 4.77557C38.0397 4.92472 37.8292 5.14347 37.6735 5.43182C37.521 5.71686 37.4448 6.06155 37.4448 6.46591ZM47.5421 11.1541C46.803 11.1541 46.1666 10.9867 45.633 10.652C45.1027 10.3139 44.695 9.84825 44.41 9.25497C44.1249 8.66169 43.9824 7.98224 43.9824 7.21662C43.9824 6.44105 44.1283 5.75663 44.4199 5.16335C44.7116 4.56676 45.1226 4.10109 45.6529 3.76633C46.1832 3.43158 46.8079 3.2642 47.5272 3.2642C48.1072 3.2642 48.6242 3.37192 49.0783 3.58736C49.5324 3.79948 49.8986 4.09777 50.177 4.48224C50.4587 4.86671 50.6261 5.31581 50.6792 5.82955H49.2324C49.1529 5.47159 48.9706 5.16335 48.6855 4.90483C48.4038 4.64631 48.026 4.51705 47.552 4.51705C47.1377 4.51705 46.7748 4.62642 46.4632 4.84517C46.155 5.06061 45.9147 5.36884 45.7424 5.76989C45.57 6.16761 45.4838 6.63826 45.4838 7.18182C45.4838 7.73864 45.5684 8.21922 45.7374 8.62358C45.9064 9.02794 46.1451 9.34115 46.4533 9.56321C46.7649 9.78527 47.1311 9.89631 47.552 9.89631C47.8337 9.89631 48.089 9.84493 48.3176 9.74219C48.5497 9.63613 48.7435 9.48532 48.8993 9.28977C49.0584 9.09422 49.1694 8.8589 49.2324 8.58381H50.6792C50.6261 9.07765 50.4654 9.51847 50.1969 9.90625C49.9284 10.294 49.5688 10.599 49.1181 10.821C48.6706 11.0431 48.1453 11.1541 47.5421 11.1541ZM53.2085 13.8636C52.9864 13.8636 52.7842 13.8454 52.6019 13.8089C52.4196 13.7758 52.2837 13.7393 52.1942 13.6996L52.5522 12.4815C52.824 12.5545 53.0659 12.5859 53.2781 12.576C53.4902 12.5661 53.6774 12.4865 53.8398 12.3374C54.0056 12.1882 54.1514 11.9446 54.2773 11.6065L54.4613 11.0994L51.6673 3.36364H53.2582L55.1921 9.28977H55.2717L57.2056 3.36364H58.8015L55.6545 12.0192C55.5086 12.4169 55.323 12.7533 55.0977 13.0284C54.8723 13.3068 54.6038 13.5156 54.2923 13.6548C53.9807 13.794 53.6194 13.8636 53.2085 13.8636ZM64.6978 6.05327V7.34091H60.1836V6.05327H64.6978ZM66.7983 11V0.818182H68.2848V4.60156H68.3743C68.4605 4.44247 68.5848 4.25852 68.7472 4.04972C68.9096 3.84091 69.1349 3.65862 69.4233 3.50284C69.7116 3.34375 70.0928 3.2642 70.5668 3.2642C71.1832 3.2642 71.7334 3.41998 72.2173 3.73153C72.7012 4.04309 73.0807 4.49219 73.3558 5.07884C73.6342 5.66548 73.7734 6.37145 73.7734 7.19673C73.7734 8.02202 73.6359 8.72964 73.3608 9.3196C73.0857 9.90625 72.7079 10.3587 72.2273 10.6768C71.7467 10.9917 71.1982 11.1491 70.5817 11.1491C70.1177 11.1491 69.7382 11.0713 69.4432 10.9155C69.1515 10.7597 68.9228 10.5774 68.7571 10.3686C68.5914 10.1598 68.4638 9.9742 68.3743 9.81179H68.25V11H66.7983ZM68.255 7.18182C68.255 7.71875 68.3329 8.18939 68.4886 8.59375C68.6444 8.99811 68.8698 9.31463 69.1648 9.54332C69.4598 9.7687 69.821 9.88139 70.2486 9.88139C70.6927 9.88139 71.0639 9.76373 71.3622 9.52841C71.6605 9.28977 71.8859 8.96662 72.0384 8.55895C72.1941 8.15128 72.272 7.69223 72.272 7.18182C72.272 6.67803 72.1958 6.22562 72.0433 5.82457C71.8942 5.42353 71.6688 5.10701 71.3672 4.875C71.0689 4.64299 70.696 4.52699 70.2486 4.52699C69.8177 4.52699 69.4531 4.63802 69.1548 4.86009C68.8598 5.08215 68.6361 5.39205 68.4837 5.78977C68.3312 6.1875 68.255 6.65151 68.255 7.18182ZM75.4426 11V3.36364H76.9292V11H75.4426ZM76.1934 2.18537C75.9348 2.18537 75.7128 2.09919 75.5272 1.92685C75.3449 1.75118 75.2537 1.54238 75.2537 1.30043C75.2537 1.05516 75.3449 0.846354 75.5272 0.674005C75.7128 0.498342 75.9348 0.410511 76.1934 0.410511C76.4519 0.410511 76.6723 0.498342 76.8546 0.674005C77.0402 0.846354 77.133 1.05516 77.133 1.30043C77.133 1.54238 77.0402 1.75118 76.8546 1.92685C76.6723 2.09919 76.4519 2.18537 76.1934 2.18537ZM82.4936 3.36364V4.55682H78.3224V3.36364H82.4936ZM79.4411 1.53409H80.9276V8.75781C80.9276 9.04616 80.9706 9.26326 81.0568 9.40909C81.143 9.55161 81.254 9.64938 81.3899 9.70241C81.5291 9.75213 81.6799 9.77699 81.8423 9.77699C81.9616 9.77699 82.0661 9.7687 82.1555 9.75213C82.245 9.73556 82.3146 9.7223 82.3643 9.71236L82.6328 10.9403C82.5466 10.9735 82.424 11.0066 82.2649 11.0398C82.1058 11.0762 81.907 11.0961 81.6683 11.0994C81.2772 11.1061 80.9126 11.0365 80.5746 10.8906C80.2365 10.7448 79.9631 10.5194 79.7543 10.2145C79.5455 9.90956 79.4411 9.52675 79.4411 9.06605V1.53409ZM87.2725 11.1541C86.5334 11.1541 85.8971 10.9867 85.3635 10.652C84.8332 10.3139 84.4255 9.84825 84.1404 9.25497C83.8554 8.66169 83.7129 7.98224 83.7129 7.21662C83.7129 6.44105 83.8587 5.75663 84.1504 5.16335C84.4421 4.56676 84.853 4.10109 85.3833 3.76633C85.9136 3.43158 86.5384 3.2642 87.2576 3.2642C87.8377 3.2642 88.3547 3.37192 88.8088 3.58736C89.2628 3.79948 89.6291 4.09777 89.9075 4.48224C90.1892 4.86671 90.3566 5.31581 90.4096 5.82955H88.9629C88.8833 5.47159 88.7011 5.16335 88.416 4.90483C88.1343 4.64631 87.7565 4.51705 87.2825 4.51705C86.8682 4.51705 86.5053 4.62642 86.1937 4.84517C85.8855 5.06061 85.6452 5.36884 85.4728 5.76989C85.3005 6.16761 85.2143 6.63826 85.2143 7.18182C85.2143 7.73864 85.2988 8.21922 85.4679 8.62358C85.6369 9.02794 85.8755 9.34115 86.1838 9.56321C86.4953 9.78527 86.8616 9.89631 87.2825 9.89631C87.5642 9.89631 87.8194 9.84493 88.0481 9.74219C88.2801 9.63613 88.474 9.48532 88.6298 9.28977C88.7889 9.09422 88.8999 8.8589 88.9629 8.58381H90.4096C90.3566 9.07765 90.1958 9.51847 89.9274 9.90625C89.6589 10.294 89.2993 10.599 88.8485 10.821C88.4011 11.0431 87.8758 11.1541 87.2725 11.1541ZM95.2159 11.1541C94.5 11.1541 93.8752 10.9901 93.3416 10.6619C92.808 10.3338 92.3937 9.87476 92.0987 9.2848C91.8037 8.69484 91.6562 8.00544 91.6562 7.21662C91.6562 6.42448 91.8037 5.73177 92.0987 5.13849C92.3937 4.54522 92.808 4.08452 93.3416 3.75639C93.8752 3.42827 94.5 3.2642 95.2159 3.2642C95.9318 3.2642 96.5566 3.42827 97.0902 3.75639C97.6238 4.08452 98.0381 4.54522 98.3331 5.13849C98.6281 5.73177 98.7756 6.42448 98.7756 7.21662C98.7756 8.00544 98.6281 8.69484 98.3331 9.2848C98.0381 9.87476 97.6238 10.3338 97.0902 10.6619C96.5566 10.9901 95.9318 11.1541 95.2159 11.1541ZM95.2209 9.90625C95.6849 9.90625 96.0694 9.78362 96.3743 9.53835C96.6792 9.29309 96.9046 8.96662 97.0504 8.55895C97.1996 8.15128 97.2741 7.70218 97.2741 7.21165C97.2741 6.72443 97.1996 6.27699 97.0504 5.86932C96.9046 5.45833 96.6792 5.12855 96.3743 4.87997C96.0694 4.63139 95.6849 4.5071 95.2209 4.5071C94.7536 4.5071 94.3658 4.63139 94.0575 4.87997C93.7526 5.12855 93.5256 5.45833 93.3764 5.86932C93.2306 6.27699 93.1577 6.72443 93.1577 7.21165C93.1577 7.70218 93.2306 8.15128 93.3764 8.55895C93.5256 8.96662 93.7526 9.29309 94.0575 9.53835C94.3658 9.78362 94.7536 9.90625 95.2209 9.90625ZM100.435 11V3.36364H101.921V11H100.435ZM101.186 2.18537C100.927 2.18537 100.705 2.09919 100.519 1.92685C100.337 1.75118 100.246 1.54238 100.246 1.30043C100.246 1.05516 100.337 0.846354 100.519 0.674005C100.705 0.498342 100.927 0.410511 101.186 0.410511C101.444 0.410511 101.664 0.498342 101.847 0.674005C102.032 0.846354 102.125 1.05516 102.125 1.30043C102.125 1.54238 102.032 1.75118 101.847 1.92685C101.664 2.09919 101.444 2.18537 101.186 2.18537ZM105.408 6.46591V11H103.921V3.36364H105.348V4.60653H105.442C105.618 4.20218 105.893 3.87737 106.268 3.6321C106.646 3.38684 107.121 3.2642 107.695 3.2642C108.215 3.2642 108.671 3.37358 109.062 3.59233C109.453 3.80777 109.756 4.12926 109.972 4.55682C110.187 4.98437 110.295 5.51302 110.295 6.14276V11H108.808V6.32173C108.808 5.76823 108.664 5.3357 108.376 5.02415C108.087 4.70928 107.691 4.55185 107.188 4.55185C106.843 4.55185 106.536 4.62642 106.268 4.77557C106.003 4.92472 105.792 5.14347 105.636 5.43182C105.484 5.71686 105.408 6.06155 105.408 6.46591ZM116.788 6.05327V7.34091H112.273V6.05327H116.788ZM121.985 11.1541C121.246 11.1541 120.61 10.9867 120.076 10.652C119.546 10.3139 119.138 9.84825 118.853 9.25497C118.568 8.66169 118.426 7.98224 118.426 7.21662C118.426 6.44105 118.572 5.75663 118.863 5.16335C119.155 4.56676 119.566 4.10109 120.096 3.76633C120.627 3.43158 121.251 3.2642 121.971 3.2642C122.551 3.2642 123.068 3.37192 123.522 3.58736C123.976 3.79948 124.342 4.09777 124.62 4.48224C124.902 4.86671 125.069 5.31581 125.123 5.82955H123.676C123.596 5.47159 123.414 5.16335 123.129 4.90483C122.847 4.64631 122.469 4.51705 121.995 4.51705C121.581 4.51705 121.218 4.62642 120.907 4.84517C120.598 5.06061 120.358 5.36884 120.186 5.76989C120.013 6.16761 119.927 6.63826 119.927 7.18182C119.927 7.73864 120.012 8.21922 120.181 8.62358C120.35 9.02794 120.588 9.34115 120.897 9.56321C121.208 9.78527 121.574 9.89631 121.995 9.89631C122.277 9.89631 122.532 9.84493 122.761 9.74219C122.993 9.63613 123.187 9.48532 123.343 9.28977C123.502 9.09422 123.613 8.8589 123.676 8.58381H125.123C125.069 9.07765 124.909 9.51847 124.64 9.90625C124.372 10.294 124.012 10.599 123.561 10.821C123.114 11.0431 122.589 11.1541 121.985 11.1541ZM126.712 11V3.36364H128.199V11H126.712ZM127.463 2.18537C127.204 2.18537 126.982 2.09919 126.797 1.92685C126.614 1.75118 126.523 1.54238 126.523 1.30043C126.523 1.05516 126.614 0.846354 126.797 0.674005C126.982 0.498342 127.204 0.410511 127.463 0.410511C127.721 0.410511 127.942 0.498342 128.124 0.674005C128.31 0.846354 128.403 1.05516 128.403 1.30043C128.403 1.54238 128.31 1.75118 128.124 1.92685C127.942 2.09919 127.721 2.18537 127.463 2.18537ZM130.199 11V3.36364H131.635V4.5767H131.715C131.854 4.16572 132.099 3.84257 132.451 3.60724C132.805 3.36861 133.206 3.24929 133.654 3.24929C133.747 3.24929 133.856 3.2526 133.982 3.25923C134.111 3.26586 134.212 3.27415 134.285 3.28409V4.70597C134.225 4.68939 134.119 4.67116 133.967 4.65128C133.815 4.62808 133.662 4.61648 133.51 4.61648C133.158 4.61648 132.845 4.69105 132.57 4.8402C132.298 4.98603 132.083 5.18987 131.924 5.4517C131.765 5.71023 131.685 6.00521 131.685 6.33665V11H130.199ZM138.515 11.1541C137.776 11.1541 137.139 10.9867 136.606 10.652C136.075 10.3139 135.668 9.84825 135.383 9.25497C135.098 8.66169 134.955 7.98224 134.955 7.21662C134.955 6.44105 135.101 5.75663 135.393 5.16335C135.684 4.56676 136.095 4.10109 136.626 3.76633C137.156 3.43158 137.781 3.2642 138.5 3.2642C139.08 3.2642 139.597 3.37192 140.051 3.58736C140.505 3.79948 140.871 4.09777 141.15 4.48224C141.431 4.86671 141.599 5.31581 141.652 5.82955H140.205C140.126 5.47159 139.943 5.16335 139.658 4.90483C139.376 4.64631 138.999 4.51705 138.525 4.51705C138.11 4.51705 137.747 4.62642 137.436 4.84517C137.128 5.06061 136.887 5.36884 136.715 5.76989C136.543 6.16761 136.456 6.63826 136.456 7.18182C136.456 7.73864 136.541 8.21922 136.71 8.62358C136.879 9.02794 137.118 9.34115 137.426 9.56321C137.738 9.78527 138.104 9.89631 138.525 9.89631C138.806 9.89631 139.062 9.84493 139.29 9.74219C139.522 9.63613 139.716 9.48532 139.872 9.28977C140.031 9.09422 140.142 8.8589 140.205 8.58381H141.652C141.599 9.07765 141.438 9.51847 141.17 9.90625C140.901 10.294 140.541 10.599 140.091 10.821C139.643 11.0431 139.118 11.1541 138.515 11.1541ZM144.728 0.818182V11H143.241V0.818182H144.728ZM150.019 11.1541C149.267 11.1541 148.619 10.9934 148.075 10.6719C147.535 10.3471 147.117 9.89134 146.822 9.30469C146.531 8.71473 146.385 8.02367 146.385 7.23153C146.385 6.44934 146.531 5.75994 146.822 5.16335C147.117 4.56676 147.528 4.10109 148.055 3.76633C148.586 3.43158 149.205 3.2642 149.915 3.2642C150.345 3.2642 150.763 3.33546 151.167 3.47798C151.572 3.6205 151.935 3.84422 152.256 4.14915C152.578 4.45407 152.831 4.85014 153.017 5.33736C153.202 5.82126 153.295 6.40956 153.295 7.10227V7.62926H147.225V6.51562H151.839C151.839 6.12453 151.759 5.77817 151.6 5.47656C151.441 5.17164 151.217 4.93134 150.929 4.75568C150.644 4.58002 150.309 4.49219 149.925 4.49219C149.507 4.49219 149.142 4.59493 148.831 4.80043C148.523 5.0026 148.284 5.26776 148.115 5.59588C147.949 5.92069 147.866 6.27367 147.866 6.65483V7.52486C147.866 8.03527 147.956 8.46946 148.135 8.82741C148.317 9.18537 148.571 9.45881 148.895 9.64773C149.22 9.83333 149.6 9.92614 150.034 9.92614C150.316 9.92614 150.573 9.88636 150.805 9.80682C151.037 9.72396 151.237 9.60133 151.406 9.43892C151.575 9.27652 151.704 9.07599 151.794 8.83736L153.201 9.09091C153.088 9.50521 152.886 9.86813 152.594 10.1797C152.306 10.4879 151.943 10.7282 151.506 10.9006C151.071 11.0696 150.576 11.1541 150.019 11.1541Z" fill="black"/>
</svg>
