<svg width="32" height="12" viewBox="0 0 32 12" fill="none" xmlns="http://www.w3.org/2000/svg">
<path d="M0.118608 11V0.818182H1.60511V4.60156H1.6946C1.78078 4.44247 1.90507 4.25852 2.06747 4.04972C2.22988 3.84091 2.45526 3.65862 2.74361 3.50284C3.03196 3.34375 3.41312 3.2642 3.88707 3.2642C4.50355 3.2642 5.05374 3.41998 5.53764 3.73153C6.02154 4.04309 6.40104 4.49219 6.67614 5.07884C6.95455 5.66548 7.09375 6.37145 7.09375 7.19673C7.09375 8.02202 6.9562 8.72964 6.68111 9.3196C6.40601 9.90625 6.02817 10.3587 5.54759 10.6768C5.067 10.9917 4.51847 11.1491 3.90199 11.1491C3.43797 11.1491 3.05848 11.0713 2.76349 10.9155C2.47183 10.7597 2.24313 10.5774 2.07741 10.3686C1.9117 10.1598 1.78409 9.9742 1.6946 9.81179H1.57031V11H0.118608ZM1.57528 7.18182C1.57528 7.71875 1.65317 8.18939 1.80895 8.59375C1.96473 8.99811 2.1901 9.31463 2.48509 9.54332C2.78007 9.7687 3.14134 9.88139 3.56889 9.88139C4.01302 9.88139 4.38423 9.76373 4.68253 9.52841C4.98082 9.28977 5.2062 8.96662 5.35866 8.55895C5.51444 8.15128 5.59233 7.69223 5.59233 7.18182C5.59233 6.67803 5.5161 6.22562 5.36364 5.82457C5.21449 5.42353 4.98911 5.10701 4.6875 4.875C4.3892 4.64299 4.01634 4.52699 3.56889 4.52699C3.13802 4.52699 2.77344 4.63802 2.47514 4.86009C2.18016 5.08215 1.95644 5.39205 1.80398 5.78977C1.65152 6.1875 1.57528 6.65151 1.57528 7.18182ZM10.9853 11.169C10.5014 11.169 10.0639 11.0795 9.67276 10.9006C9.28166 10.7183 8.97177 10.4548 8.74308 10.1101C8.5177 9.76539 8.40501 9.3428 8.40501 8.84233C8.40501 8.41146 8.48787 8.05682 8.65359 7.77841C8.81931 7.5 9.04303 7.27959 9.32475 7.11719C9.60647 6.95478 9.92134 6.83215 10.2694 6.74929C10.6174 6.66643 10.972 6.60346 11.3333 6.56037C11.7907 6.50734 12.1619 6.46425 12.4469 6.43111C12.7319 6.39465 12.9391 6.33665 13.0684 6.2571C13.1976 6.17756 13.2623 6.0483 13.2623 5.86932V5.83452C13.2623 5.40033 13.1396 5.06392 12.8944 4.82528C12.6524 4.58665 12.2911 4.46733 11.8105 4.46733C11.3101 4.46733 10.9157 4.57836 10.6273 4.80043C10.3423 5.01918 10.1451 5.26278 10.0357 5.53125L8.63867 5.21307C8.80439 4.74905 9.04634 4.37453 9.36452 4.08949C9.68602 3.80114 10.0556 3.59233 10.4732 3.46307C10.8908 3.33049 11.33 3.2642 11.7907 3.2642C12.0956 3.2642 12.4187 3.30066 12.7601 3.37358C13.1048 3.44318 13.4263 3.57244 13.7246 3.76136C14.0262 3.95028 14.2731 4.22041 14.4654 4.57173C14.6576 4.91974 14.7537 5.37216 14.7537 5.92898V11H13.302V9.95597H13.2424C13.1462 10.1482 13.0021 10.3371 12.8098 10.5227C12.6176 10.7083 12.3707 10.8625 12.0691 10.9851C11.7675 11.1077 11.4062 11.169 10.9853 11.169ZM11.3084 9.97585C11.7194 9.97585 12.0707 9.89465 12.3624 9.73224C12.6574 9.56984 12.8811 9.35772 13.0336 9.09588C13.1893 8.83073 13.2672 8.54735 13.2672 8.24574V7.26136C13.2142 7.31439 13.1114 7.36411 12.959 7.41051C12.8098 7.4536 12.6391 7.49171 12.4469 7.52486C12.2547 7.55469 12.0674 7.58286 11.8851 7.60938C11.7028 7.63258 11.5504 7.65246 11.4277 7.66903C11.1394 7.70549 10.8759 7.76681 10.6373 7.85298C10.4019 7.93916 10.213 8.06345 10.0705 8.22585C9.93129 8.38494 9.86168 8.59706 9.86168 8.86222C9.86168 9.23011 9.99757 9.50852 10.2694 9.69744C10.5411 9.88305 10.8875 9.97585 11.3084 9.97585ZM18.2202 6.46591V11H16.7337V3.36364H18.1605V4.60653H18.255C18.4306 4.20218 18.7057 3.87737 19.0803 3.6321C19.4581 3.38684 19.9337 3.2642 20.5071 3.2642C21.0275 3.2642 21.4832 3.37358 21.8743 3.59233C22.2654 3.80777 22.5687 4.12926 22.7841 4.55682C22.9995 4.98437 23.1072 5.51302 23.1072 6.14276V11H21.6207V6.32173C21.6207 5.76823 21.4766 5.3357 21.1882 5.02415C20.8999 4.70928 20.5038 4.55185 20 4.55185C19.6553 4.55185 19.3487 4.62642 19.0803 4.77557C18.8151 4.92472 18.6046 5.14347 18.4489 5.43182C18.2964 5.71686 18.2202 6.06155 18.2202 6.46591ZM26.468 8.4098L26.4581 6.59517H26.7166L29.7592 3.36364H31.5391L28.0689 7.04261H27.8352L26.468 8.4098ZM25.1009 11V0.818182H26.5874V11H25.1009ZM29.9233 11L27.1889 7.37074L28.2131 6.33168L31.7479 11H29.9233Z" fill="black"/>
</svg>
