<svg width="100" height="14" viewBox="0 0 100 14" fill="none" xmlns="http://www.w3.org/2000/svg">
<path d="M4.21591 11.1541C3.4768 11.1541 2.84044 10.9867 2.30682 10.652C1.77652 10.3139 1.36884 9.84825 1.08381 9.25497C0.798769 8.66169 0.65625 7.98224 0.65625 7.21662C0.65625 6.44105 0.802083 5.75663 1.09375 5.16335C1.38542 4.56676 1.7964 4.10109 2.3267 3.76633C2.85701 3.43158 3.48177 3.2642 4.20099 3.2642C4.78101 3.2642 5.29806 3.37192 5.75213 3.58736C6.2062 3.79948 6.57244 4.09777 6.85085 4.48224C7.13258 4.86671 7.29995 5.31581 7.35298 5.82955H5.90625C5.8267 5.47159 5.64441 5.16335 5.35938 4.90483C5.07765 4.64631 4.69981 4.51705 4.22585 4.51705C3.81155 4.51705 3.44863 4.62642 3.13707 4.84517C2.82884 5.06061 2.58854 5.36884 2.41619 5.76989C2.24384 6.16761 2.15767 6.63826 2.15767 7.18182C2.15767 7.73864 2.24219 8.21922 2.41122 8.62358C2.58026 9.02794 2.81889 9.34115 3.12713 9.56321C3.43868 9.78527 3.80492 9.89631 4.22585 9.89631C4.50758 9.89631 4.76278 9.84493 4.99148 9.74219C5.22349 9.63613 5.41738 9.48532 5.57315 9.28977C5.73224 9.09422 5.84328 8.8589 5.90625 8.58381H7.35298C7.29995 9.07765 7.1392 9.51847 6.87074 9.90625C6.60227 10.294 6.24266 10.599 5.7919 10.821C5.34446 11.0431 4.81913 11.1541 4.21591 11.1541ZM13.78 7.8331V3.36364H15.2715V11H13.8098V9.67756H13.7303C13.5546 10.0852 13.2729 10.425 12.8851 10.6967C12.5007 10.9652 12.0217 11.0994 11.4483 11.0994C10.9578 11.0994 10.5236 10.9917 10.1458 10.7763C9.77125 10.5575 9.47627 10.2344 9.26083 9.80682C9.04871 9.37926 8.94265 8.85062 8.94265 8.22088V3.36364H10.4292V8.0419C10.4292 8.56226 10.5733 8.97656 10.8617 9.2848C11.15 9.59304 11.5246 9.74716 11.9853 9.74716C12.2637 9.74716 12.5404 9.67756 12.8155 9.53835C13.0939 9.39915 13.3243 9.18868 13.5066 8.90696C13.6922 8.62524 13.7833 8.26728 13.78 7.8331ZM17.2688 11V3.36364H18.7056V4.5767H18.7852C18.9244 4.16572 19.1696 3.84257 19.521 3.60724C19.8756 3.36861 20.2766 3.24929 20.7241 3.24929C20.8169 3.24929 20.9263 3.2526 21.0522 3.25923C21.1815 3.26586 21.2826 3.27415 21.3555 3.28409V4.70597C21.2958 4.68939 21.1897 4.67116 21.0373 4.65128C20.8848 4.62808 20.7324 4.61648 20.5799 4.61648C20.2286 4.61648 19.9154 4.69105 19.6403 4.8402C19.3685 4.98603 19.1531 5.18987 18.994 5.4517C18.8349 5.71023 18.7553 6.00521 18.7553 6.33665V11H17.2688ZM22.6419 11V3.36364H24.0787V4.5767H24.1582C24.2974 4.16572 24.5427 3.84257 24.894 3.60724C25.2486 3.36861 25.6497 3.24929 26.0971 3.24929C26.1899 3.24929 26.2993 3.2526 26.4252 3.25923C26.5545 3.26586 26.6556 3.27415 26.7285 3.28409V4.70597C26.6689 4.68939 26.5628 4.67116 26.4103 4.65128C26.2579 4.62808 26.1054 4.61648 25.9529 4.61648C25.6016 4.61648 25.2884 4.69105 25.0133 4.8402C24.7415 4.98603 24.5261 5.18987 24.367 5.4517C24.2079 5.71023 24.1284 6.00521 24.1284 6.33665V11H22.6419ZM31.0327 11.1541C30.2803 11.1541 29.6323 10.9934 29.0888 10.6719C28.5485 10.3471 28.1309 9.89134 27.8359 9.30469C27.5443 8.71473 27.3984 8.02367 27.3984 7.23153C27.3984 6.44934 27.5443 5.75994 27.8359 5.16335C28.1309 4.56676 28.5419 4.10109 29.0689 3.76633C29.5992 3.43158 30.219 3.2642 30.9283 3.2642C31.3591 3.2642 31.7768 3.33546 32.1811 3.47798C32.5855 3.6205 32.9484 3.84422 33.2699 4.14915C33.5914 4.45407 33.8449 4.85014 34.0305 5.33736C34.2161 5.82126 34.3089 6.40956 34.3089 7.10227V7.62926H28.2386V6.51562H32.8523C32.8523 6.12453 32.7727 5.77817 32.6136 5.47656C32.4545 5.17164 32.2308 4.93134 31.9425 4.75568C31.6574 4.58002 31.3227 4.49219 30.9382 4.49219C30.5206 4.49219 30.156 4.59493 29.8445 4.80043C29.5362 5.0026 29.2976 5.26776 29.1286 5.59588C28.9628 5.92069 28.88 6.27367 28.88 6.65483V7.52486C28.88 8.03527 28.9695 8.46946 29.1484 8.82741C29.3307 9.18537 29.5843 9.45881 29.9091 9.64773C30.2339 9.83333 30.6134 9.92614 31.0476 9.92614C31.3293 9.92614 31.5862 9.88636 31.8182 9.80682C32.0502 9.72396 32.2507 9.60133 32.4197 9.43892C32.5888 9.27652 32.718 9.07599 32.8075 8.83736L34.2145 9.09091C34.1018 9.50521 33.8996 9.86813 33.608 10.1797C33.3196 10.4879 32.9567 10.7282 32.5192 10.9006C32.085 11.0696 31.5895 11.1541 31.0327 11.1541ZM37.4448 6.46591V11H35.9583V3.36364H37.3851V4.60653H37.4796C37.6552 4.20218 37.9303 3.87737 38.3049 3.6321C38.6827 3.38684 39.1583 3.2642 39.7317 3.2642C40.2521 3.2642 40.7078 3.37358 41.0989 3.59233C41.49 3.80777 41.7933 4.12926 42.0087 4.55682C42.2241 4.98437 42.3319 5.51302 42.3319 6.14276V11H40.8453V6.32173C40.8453 5.76823 40.7012 5.3357 40.4128 5.02415C40.1245 4.70928 39.7284 4.55185 39.2246 4.55185C38.8799 4.55185 38.5733 4.62642 38.3049 4.77557C38.0397 4.92472 37.8292 5.14347 37.6735 5.43182C37.521 5.71686 37.4448 6.06155 37.4448 6.46591ZM47.5421 11.1541C46.803 11.1541 46.1666 10.9867 45.633 10.652C45.1027 10.3139 44.695 9.84825 44.41 9.25497C44.1249 8.66169 43.9824 7.98224 43.9824 7.21662C43.9824 6.44105 44.1283 5.75663 44.4199 5.16335C44.7116 4.56676 45.1226 4.10109 45.6529 3.76633C46.1832 3.43158 46.8079 3.2642 47.5272 3.2642C48.1072 3.2642 48.6242 3.37192 49.0783 3.58736C49.5324 3.79948 49.8986 4.09777 50.177 4.48224C50.4587 4.86671 50.6261 5.31581 50.6792 5.82955H49.2324C49.1529 5.47159 48.9706 5.16335 48.6855 4.90483C48.4038 4.64631 48.026 4.51705 47.552 4.51705C47.1377 4.51705 46.7748 4.62642 46.4632 4.84517C46.155 5.06061 45.9147 5.36884 45.7424 5.76989C45.57 6.16761 45.4838 6.63826 45.4838 7.18182C45.4838 7.73864 45.5684 8.21922 45.7374 8.62358C45.9064 9.02794 46.1451 9.34115 46.4533 9.56321C46.7649 9.78527 47.1311 9.89631 47.552 9.89631C47.8337 9.89631 48.089 9.84493 48.3176 9.74219C48.5497 9.63613 48.7435 9.48532 48.8993 9.28977C49.0584 9.09422 49.1694 8.8589 49.2324 8.58381H50.6792C50.6261 9.07765 50.4654 9.51847 50.1969 9.90625C49.9284 10.294 49.5688 10.599 49.1181 10.821C48.6706 11.0431 48.1453 11.1541 47.5421 11.1541ZM53.2085 13.8636C52.9864 13.8636 52.7842 13.8454 52.6019 13.8089C52.4196 13.7758 52.2837 13.7393 52.1942 13.6996L52.5522 12.4815C52.824 12.5545 53.0659 12.5859 53.2781 12.576C53.4902 12.5661 53.6774 12.4865 53.8398 12.3374C54.0056 12.1882 54.1514 11.9446 54.2773 11.6065L54.4613 11.0994L51.6673 3.36364H53.2582L55.1921 9.28977H55.2717L57.2056 3.36364H58.8015L55.6545 12.0192C55.5086 12.4169 55.323 12.7533 55.0977 13.0284C54.8723 13.3068 54.6038 13.5156 54.2923 13.6548C53.9807 13.794 53.6194 13.8636 53.2085 13.8636ZM64.6978 6.05327V7.34091H60.1836V6.05327H64.6978ZM66.679 11V3.36364H68.1158V4.5767H68.1953C68.3345 4.16572 68.5798 3.84257 68.9311 3.60724C69.2857 3.36861 69.6868 3.24929 70.1342 3.24929C70.227 3.24929 70.3364 3.2526 70.4624 3.25923C70.5916 3.26586 70.6927 3.27415 70.7656 3.28409V4.70597C70.706 4.68939 70.5999 4.67116 70.4474 4.65128C70.295 4.62808 70.1425 4.61648 69.9901 4.61648C69.6387 4.61648 69.3255 4.69105 69.0504 4.8402C68.7786 4.98603 68.5632 5.18987 68.4041 5.4517C68.245 5.71023 68.1655 6.00521 68.1655 6.33665V11H66.679ZM76.8894 7.8331V3.36364H78.3809V11H76.9192V9.67756H76.8397C76.664 10.0852 76.3823 10.425 75.9945 10.6967C75.61 10.9652 75.1311 11.0994 74.5577 11.0994C74.0672 11.0994 73.633 10.9917 73.2551 10.7763C72.8806 10.5575 72.5856 10.2344 72.3702 9.80682C72.1581 9.37926 72.052 8.85062 72.052 8.22088V3.36364H73.5385V8.0419C73.5385 8.56226 73.6827 8.97656 73.9711 9.2848C74.2594 9.59304 74.6339 9.74716 75.0946 9.74716C75.373 9.74716 75.6498 9.67756 75.9249 9.53835C76.2033 9.39915 76.4337 9.18868 76.6159 8.90696C76.8016 8.62524 76.8927 8.26728 76.8894 7.8331ZM80.4975 11V0.818182H81.984V4.60156H82.0735C82.1597 4.44247 82.284 4.25852 82.4464 4.04972C82.6088 3.84091 82.8342 3.65862 83.1225 3.50284C83.4109 3.34375 83.792 3.2642 84.266 3.2642C84.8825 3.2642 85.4326 3.41998 85.9165 3.73153C86.4005 4.04309 86.7799 4.49219 87.055 5.07884C87.3335 5.66548 87.4727 6.37145 87.4727 7.19673C87.4727 8.02202 87.3351 8.72964 87.06 9.3196C86.7849 9.90625 86.4071 10.3587 85.9265 10.6768C85.4459 10.9917 84.8974 11.1491 84.2809 11.1491C83.8169 11.1491 83.4374 11.0713 83.1424 10.9155C82.8507 10.7597 82.622 10.5774 82.4563 10.3686C82.2906 10.1598 82.163 9.9742 82.0735 9.81179H81.9492V11H80.4975ZM81.9542 7.18182C81.9542 7.71875 82.0321 8.18939 82.1879 8.59375C82.3436 8.99811 82.569 9.31463 82.864 9.54332C83.159 9.7687 83.5202 9.88139 83.9478 9.88139C84.3919 9.88139 84.7631 9.76373 85.0614 9.52841C85.3597 9.28977 85.5851 8.96662 85.7376 8.55895C85.8933 8.15128 85.9712 7.69223 85.9712 7.18182C85.9712 6.67803 85.895 6.22562 85.7425 5.82457C85.5934 5.42353 85.368 5.10701 85.0664 4.875C84.7681 4.64299 84.3952 4.52699 83.9478 4.52699C83.5169 4.52699 83.1523 4.63802 82.854 4.86009C82.5591 5.08215 82.3353 5.39205 82.1829 5.78977C82.0304 6.1875 81.9542 6.65151 81.9542 7.18182ZM90.6284 0.818182V11H89.1419V0.818182H90.6284ZM95.9194 11.1541C95.167 11.1541 94.5191 10.9934 93.9755 10.6719C93.4353 10.3471 93.0176 9.89134 92.7227 9.30469C92.431 8.71473 92.2852 8.02367 92.2852 7.23153C92.2852 6.44934 92.431 5.75994 92.7227 5.16335C93.0176 4.56676 93.4286 4.10109 93.9556 3.76633C94.4859 3.43158 95.1057 3.2642 95.815 3.2642C96.2459 3.2642 96.6635 3.33546 97.0678 3.47798C97.4722 3.6205 97.8351 3.84422 98.1566 4.14915C98.4781 4.45407 98.7317 4.85014 98.9173 5.33736C99.1029 5.82126 99.1957 6.40956 99.1957 7.10227V7.62926H93.1254V6.51562H97.739C97.739 6.12453 97.6594 5.77817 97.5004 5.47656C97.3413 5.17164 97.1175 4.93134 96.8292 4.75568C96.5442 4.58002 96.2094 4.49219 95.8249 4.49219C95.4073 4.49219 95.0427 4.59493 94.7312 4.80043C94.4229 5.0026 94.1843 5.26776 94.0153 5.59588C93.8496 5.92069 93.7667 6.27367 93.7667 6.65483V7.52486C93.7667 8.03527 93.8562 8.46946 94.0352 8.82741C94.2174 9.18537 94.471 9.45881 94.7958 9.64773C95.1206 9.83333 95.5001 9.92614 95.9343 9.92614C96.216 9.92614 96.4729 9.88636 96.7049 9.80682C96.9369 9.72396 97.1374 9.60133 97.3065 9.43892C97.4755 9.27652 97.6048 9.07599 97.6942 8.83736L99.1012 9.09091C98.9885 9.50521 98.7863 9.86813 98.4947 10.1797C98.2063 10.4879 97.8434 10.7282 97.4059 10.9006C96.9717 11.0696 96.4762 11.1541 95.9194 11.1541Z" fill="black"/>
</svg>
