<svg width="96" height="15" viewBox="0 0 96 15" fill="none" xmlns="http://www.w3.org/2000/svg">
<path d="M-0.000710189 13.8636V3.36364H1.45099V4.60156H1.57528C1.66146 4.44247 1.78575 4.25852 1.94815 4.04972C2.11056 3.84091 2.33594 3.65862 2.62429 3.50284C2.91264 3.34375 3.2938 3.2642 3.76776 3.2642C4.38423 3.2642 4.93442 3.41998 5.41832 3.73153C5.90223 4.04309 6.28172 4.49219 6.55682 5.07884C6.83523 5.66548 6.97443 6.37145 6.97443 7.19673C6.97443 8.02202 6.83688 8.72964 6.56179 9.3196C6.2867 9.90625 5.90885 10.3587 5.42827 10.6768C4.94768 10.9917 4.39915 11.1491 3.78267 11.1491C3.31866 11.1491 2.93916 11.0713 2.64418 10.9155C2.35251 10.7597 2.12382 10.5774 1.9581 10.3686C1.79238 10.1598 1.66477 9.9742 1.57528 9.81179H1.4858V13.8636H-0.000710189ZM1.45597 7.18182C1.45597 7.71875 1.53385 8.18939 1.68963 8.59375C1.84541 8.99811 2.07079 9.31463 2.36577 9.54332C2.66075 9.7687 3.02202 9.88139 3.44957 9.88139C3.8937 9.88139 4.26491 9.76373 4.56321 9.52841C4.86151 9.28977 5.08688 8.96662 5.23935 8.55895C5.39512 8.15128 5.47301 7.69223 5.47301 7.18182C5.47301 6.67803 5.39678 6.22562 5.24432 5.82457C5.09517 5.42353 4.86979 5.10701 4.56818 4.875C4.26989 4.64299 3.89702 4.52699 3.44957 4.52699C3.0187 4.52699 2.65412 4.63802 2.35582 4.86009C2.06084 5.08215 1.83712 5.39205 1.68466 5.78977C1.5322 6.1875 1.45597 6.65151 1.45597 7.18182ZM8.63991 11V3.36364H10.1264V11H8.63991ZM9.39062 2.18537C9.1321 2.18537 8.91004 2.09919 8.72443 1.92685C8.54214 1.75118 8.45099 1.54238 8.45099 1.30043C8.45099 1.05516 8.54214 0.846354 8.72443 0.674005C8.91004 0.498342 9.1321 0.410511 9.39062 0.410511C9.64915 0.410511 9.86956 0.498342 10.0518 0.674005C10.2375 0.846354 10.3303 1.05516 10.3303 1.30043C10.3303 1.54238 10.2375 1.75118 10.0518 1.92685C9.86956 2.09919 9.64915 2.18537 9.39062 2.18537ZM15.3279 14.0227C14.7214 14.0227 14.1994 13.9432 13.7619 13.7841C13.3277 13.625 12.9731 13.4145 12.698 13.1527C12.4229 12.8909 12.2174 12.6042 12.0815 12.2926L13.3592 11.7656C13.4487 11.9115 13.568 12.0656 13.7172 12.228C13.8696 12.3937 14.0751 12.5346 14.3336 12.6506C14.5955 12.7666 14.9319 12.8246 15.3429 12.8246C15.9063 12.8246 16.372 12.687 16.7399 12.4119C17.1078 12.1402 17.2917 11.706 17.2917 11.1094V9.60795H17.1973C17.1078 9.77036 16.9785 9.95099 16.8095 10.1499C16.6438 10.3487 16.4151 10.5211 16.1234 10.6669C15.8317 10.8127 15.4522 10.8857 14.9849 10.8857C14.3817 10.8857 13.8381 10.7448 13.3542 10.4631C12.8736 10.178 12.4925 9.75876 12.2108 9.20526C11.9324 8.64844 11.7931 7.96401 11.7931 7.15199C11.7931 6.33996 11.9307 5.64394 12.2058 5.06392C12.4842 4.4839 12.8654 4.03977 13.3493 3.73153C13.8332 3.41998 14.3817 3.2642 14.9949 3.2642C15.4688 3.2642 15.8516 3.34375 16.1433 3.50284C16.435 3.65862 16.662 3.84091 16.8244 4.04972C16.9901 4.25852 17.1177 4.44247 17.2072 4.60156H17.3166V3.36364H18.7733V11.169C18.7733 11.8253 18.6208 12.3639 18.3159 12.7848C18.0109 13.2057 17.5983 13.5173 17.0779 13.7195C16.5609 13.9216 15.9776 14.0227 15.3279 14.0227ZM15.313 9.6527C15.7406 9.6527 16.1019 9.55327 16.3968 9.3544C16.6951 9.15223 16.9205 8.86387 17.073 8.48935C17.2288 8.11151 17.3066 7.65909 17.3066 7.1321C17.3066 6.61837 17.2304 6.16596 17.0779 5.77486C16.9255 5.38376 16.7018 5.07884 16.4068 4.86009C16.1118 4.63802 15.7472 4.52699 15.313 4.52699C14.8656 4.52699 14.4927 4.64299 14.1944 4.875C13.8961 5.10369 13.6708 5.41525 13.5183 5.80966C13.3691 6.20407 13.2946 6.64489 13.2946 7.1321C13.2946 7.63258 13.3708 8.07173 13.5233 8.44957C13.6757 8.82741 13.9011 9.1224 14.1994 9.33452C14.501 9.54664 14.8722 9.6527 15.313 9.6527ZM23.9686 14.0227C23.362 14.0227 22.84 13.9432 22.4025 13.7841C21.9683 13.625 21.6137 13.4145 21.3386 13.1527C21.0635 12.8909 20.858 12.6042 20.7221 12.2926L21.9998 11.7656C22.0893 11.9115 22.2086 12.0656 22.3578 12.228C22.5102 12.3937 22.7157 12.5346 22.9743 12.6506C23.2361 12.7666 23.5725 12.8246 23.9835 12.8246C24.5469 12.8246 25.0126 12.687 25.3805 12.4119C25.7484 12.1402 25.9324 11.706 25.9324 11.1094V9.60795H25.8379C25.7484 9.77036 25.6191 9.95099 25.4501 10.1499C25.2844 10.3487 25.0557 10.5211 24.764 10.6669C24.4724 10.8127 24.0929 10.8857 23.6255 10.8857C23.0223 10.8857 22.4788 10.7448 21.9949 10.4631C21.5143 10.178 21.1331 9.75876 20.8514 9.20526C20.573 8.64844 20.4338 7.96401 20.4338 7.15199C20.4338 6.33996 20.5713 5.64394 20.8464 5.06392C21.1248 4.4839 21.506 4.03977 21.9899 3.73153C22.4738 3.41998 23.0223 3.2642 23.6355 3.2642C24.1094 3.2642 24.4922 3.34375 24.7839 3.50284C25.0756 3.65862 25.3026 3.84091 25.465 4.04972C25.6307 4.25852 25.7583 4.44247 25.8478 4.60156H25.9572V3.36364H27.4139V11.169C27.4139 11.8253 27.2614 12.3639 26.9565 12.7848C26.6516 13.2057 26.2389 13.5173 25.7186 13.7195C25.2015 13.9216 24.6182 14.0227 23.9686 14.0227ZM23.9537 9.6527C24.3812 9.6527 24.7425 9.55327 25.0375 9.3544C25.3358 9.15223 25.5611 8.86387 25.7136 8.48935C25.8694 8.11151 25.9473 7.65909 25.9473 7.1321C25.9473 6.61837 25.871 6.16596 25.7186 5.77486C25.5661 5.38376 25.3424 5.07884 25.0474 4.86009C24.7524 4.63802 24.3878 4.52699 23.9537 4.52699C23.5062 4.52699 23.1333 4.64299 22.835 4.875C22.5368 5.10369 22.3114 5.41525 22.1589 5.80966C22.0098 6.20407 21.9352 6.64489 21.9352 7.1321C21.9352 7.63258 22.0114 8.07173 22.1639 8.44957C22.3163 8.82741 22.5417 9.1224 22.84 9.33452C23.1416 9.54664 23.5128 9.6527 23.9537 9.6527ZM30.3471 13.8636C30.1251 13.8636 29.9229 13.8454 29.7406 13.8089C29.5583 13.7758 29.4224 13.7393 29.3329 13.6996L29.6909 12.4815C29.9627 12.5545 30.2046 12.5859 30.4167 12.576C30.6288 12.5661 30.8161 12.4865 30.9785 12.3374C31.1442 12.1882 31.2901 11.9446 31.416 11.6065L31.6 11.0994L28.8059 3.36364H30.3968L32.3308 9.28977H32.4103L34.3443 3.36364H35.9402L32.7931 12.0192C32.6473 12.4169 32.4617 12.7533 32.2363 13.0284C32.0109 13.3068 31.7425 13.5156 31.4309 13.6548C31.1194 13.794 30.7581 13.8636 30.3471 13.8636ZM41.8365 6.05327V7.34091H37.3223V6.05327H41.8365ZM43.937 11V0.818182H45.4235V4.60156H45.513C45.5991 4.44247 45.7234 4.25852 45.8858 4.04972C46.0482 3.84091 46.2736 3.65862 46.562 3.50284C46.8503 3.34375 47.2315 3.2642 47.7054 3.2642C48.3219 3.2642 48.8721 3.41998 49.356 3.73153C49.8399 4.04309 50.2194 4.49219 50.4945 5.07884C50.7729 5.66548 50.9121 6.37145 50.9121 7.19673C50.9121 8.02202 50.7746 8.72964 50.4995 9.3196C50.2244 9.90625 49.8465 10.3587 49.3659 10.6768C48.8854 10.9917 48.3368 11.1491 47.7203 11.1491C47.2563 11.1491 46.8768 11.0713 46.5819 10.9155C46.2902 10.7597 46.0615 10.5774 45.8958 10.3686C45.7301 10.1598 45.6025 9.9742 45.513 9.81179H45.3887V11H43.937ZM45.3936 7.18182C45.3936 7.71875 45.4715 8.18939 45.6273 8.59375C45.7831 8.99811 46.0085 9.31463 46.3034 9.54332C46.5984 9.7687 46.9597 9.88139 47.3873 9.88139C47.8314 9.88139 48.2026 9.76373 48.5009 9.52841C48.7992 9.28977 49.0246 8.96662 49.177 8.55895C49.3328 8.15128 49.4107 7.69223 49.4107 7.18182C49.4107 6.67803 49.3345 6.22562 49.182 5.82457C49.0328 5.42353 48.8075 5.10701 48.5059 4.875C48.2076 4.64299 47.8347 4.52699 47.3873 4.52699C46.9564 4.52699 46.5918 4.63802 46.2935 4.86009C45.9985 5.08215 45.7748 5.39205 45.6223 5.78977C45.4699 6.1875 45.3936 6.65151 45.3936 7.18182ZM54.8036 11.169C54.3197 11.169 53.8822 11.0795 53.4911 10.9006C53.1 10.7183 52.7901 10.4548 52.5614 10.1101C52.3361 9.76539 52.2234 9.3428 52.2234 8.84233C52.2234 8.41146 52.3062 8.05682 52.4719 7.77841C52.6377 7.5 52.8614 7.27959 53.1431 7.11719C53.4248 6.95478 53.7397 6.83215 54.0877 6.74929C54.4357 6.66643 54.7904 6.60346 55.1516 6.56037C55.609 6.50734 55.9802 6.46425 56.2653 6.43111C56.5503 6.39465 56.7575 6.33665 56.8867 6.2571C57.016 6.17756 57.0806 6.0483 57.0806 5.86932V5.83452C57.0806 5.40033 56.958 5.06392 56.7127 4.82528C56.4708 4.58665 56.1095 4.46733 55.6289 4.46733C55.1284 4.46733 54.734 4.57836 54.4457 4.80043C54.1606 5.01918 53.9634 5.26278 53.854 5.53125L52.457 5.21307C52.6228 4.74905 52.8647 4.37453 53.1829 4.08949C53.5044 3.80114 53.8739 3.59233 54.2915 3.46307C54.7092 3.33049 55.1483 3.2642 55.609 3.2642C55.9139 3.2642 56.2371 3.30066 56.5785 3.37358C56.9232 3.44318 57.2447 3.57244 57.543 3.76136C57.8446 3.95028 58.0915 4.22041 58.2837 4.57173C58.476 4.91974 58.5721 5.37216 58.5721 5.92898V11H57.1204V9.95597H57.0607C56.9646 10.1482 56.8204 10.3371 56.6282 10.5227C56.436 10.7083 56.189 10.8625 55.8874 10.9851C55.5858 11.1077 55.2246 11.169 54.8036 11.169ZM55.1268 9.97585C55.5378 9.97585 55.8891 9.89465 56.1808 9.73224C56.4757 9.56984 56.6995 9.35772 56.8519 9.09588C57.0077 8.83073 57.0856 8.54735 57.0856 8.24574V7.26136C57.0326 7.31439 56.9298 7.36411 56.7773 7.41051C56.6282 7.4536 56.4575 7.49171 56.2653 7.52486C56.073 7.55469 55.8858 7.58286 55.7035 7.60938C55.5212 7.63258 55.3687 7.65246 55.2461 7.66903C54.9577 7.70549 54.6942 7.76681 54.4556 7.85298C54.2203 7.93916 54.0314 8.06345 53.8888 8.22585C53.7496 8.38494 53.68 8.59706 53.68 8.86222C53.68 9.23011 53.8159 9.50852 54.0877 9.69744C54.3595 9.88305 54.7058 9.97585 55.1268 9.97585ZM62.0385 6.46591V11H60.552V3.36364H61.9789V4.60653H62.0733C62.249 4.20218 62.5241 3.87737 62.8986 3.6321C63.2765 3.38684 63.7521 3.2642 64.3255 3.2642C64.8458 3.2642 65.3016 3.37358 65.6926 3.59233C66.0837 3.80777 66.387 4.12926 66.6025 4.55682C66.8179 4.98437 66.9256 5.51302 66.9256 6.14276V11H65.4391V6.32173C65.4391 5.76823 65.2949 5.3357 65.0066 5.02415C64.7182 4.70928 64.3221 4.55185 63.8184 4.55185C63.4737 4.55185 63.1671 4.62642 62.8986 4.77557C62.6335 4.92472 62.423 5.14347 62.2672 5.43182C62.1148 5.71686 62.0385 6.06155 62.0385 6.46591ZM70.2864 8.4098L70.2765 6.59517H70.535L73.5776 3.36364H75.3574L71.8873 7.04261H71.6536L70.2864 8.4098ZM68.9192 11V0.818182H70.4057V11H68.9192ZM73.7417 11L71.0073 7.37074L72.0314 6.33168L75.5662 11H73.7417ZM80.6919 6.05327V7.34091H76.1777V6.05327H80.6919ZM86.198 11.169C85.4125 11.1657 84.7413 10.9586 84.1845 10.5476C83.6277 10.1366 83.2018 9.53835 82.9068 8.75284C82.6118 7.96733 82.4643 7.02107 82.4643 5.91406C82.4643 4.81037 82.6118 3.86742 82.9068 3.08523C83.2051 2.30303 83.6326 1.70644 84.1895 1.29545C84.7496 0.884469 85.4191 0.678977 86.198 0.678977C86.9769 0.678977 87.6447 0.886126 88.2015 1.30043C88.7583 1.71141 89.1842 2.308 89.4792 3.0902C89.7775 3.86908 89.9267 4.81037 89.9267 5.91406C89.9267 7.02438 89.7792 7.9723 89.4842 8.75781C89.1892 9.54001 88.7633 10.1383 88.2065 10.5526C87.6497 10.9635 86.9802 11.169 86.198 11.169ZM86.198 9.84162C86.8874 9.84162 87.426 9.50521 87.8137 8.83239C88.2048 8.15956 88.4004 7.18679 88.4004 5.91406C88.4004 5.06889 88.3109 4.35464 88.1319 3.77131C87.9563 3.18466 87.7027 2.74053 87.3713 2.43892C87.0431 2.134 86.652 1.98153 86.198 1.98153C85.5119 1.98153 84.9733 2.3196 84.5822 2.99574C84.1911 3.67187 83.9939 4.64465 83.9906 5.91406C83.9906 6.76255 84.0784 7.48011 84.2541 8.06676C84.4331 8.65009 84.6866 9.09257 85.0147 9.39418C85.3429 9.69247 85.7373 9.84162 86.198 9.84162ZM95.5533 0.818182V11H94.0121V2.35938H93.9524L91.5163 3.95028V2.47869L94.0568 0.818182H95.5533Z" fill="black"/>
</svg>
