<svg width="147" height="14" viewBox="0 0 147 14" fill="none" xmlns="http://www.w3.org/2000/svg">
<path d="M4.21591 11.1541C3.4768 11.1541 2.84044 10.9867 2.30682 10.652C1.77652 10.3139 1.36884 9.84825 1.08381 9.25497C0.798769 8.66169 0.65625 7.98224 0.65625 7.21662C0.65625 6.44105 0.802083 5.75663 1.09375 5.16335C1.38542 4.56676 1.7964 4.10109 2.3267 3.76633C2.85701 3.43158 3.48177 3.2642 4.20099 3.2642C4.78101 3.2642 5.29806 3.37192 5.75213 3.58736C6.2062 3.79948 6.57244 4.09777 6.85085 4.48224C7.13258 4.86671 7.29995 5.31581 7.35298 5.82955H5.90625C5.8267 5.47159 5.64441 5.16335 5.35938 4.90483C5.07765 4.64631 4.69981 4.51705 4.22585 4.51705C3.81155 4.51705 3.44863 4.62642 3.13707 4.84517C2.82884 5.06061 2.58854 5.36884 2.41619 5.76989C2.24384 6.16761 2.15767 6.63826 2.15767 7.18182C2.15767 7.73864 2.24219 8.21922 2.41122 8.62358C2.58026 9.02794 2.81889 9.34115 3.12713 9.56321C3.43868 9.78527 3.80492 9.89631 4.22585 9.89631C4.50758 9.89631 4.76278 9.84493 4.99148 9.74219C5.22349 9.63613 5.41738 9.48532 5.57315 9.28977C5.73224 9.09422 5.84328 8.8589 5.90625 8.58381H7.35298C7.29995 9.07765 7.1392 9.51847 6.87074 9.90625C6.60227 10.294 6.24266 10.599 5.7919 10.821C5.34446 11.0431 4.81913 11.1541 4.21591 11.1541ZM13.78 7.8331V3.36364H15.2715V11H13.8098V9.67756H13.7303C13.5546 10.0852 13.2729 10.425 12.8851 10.6967C12.5007 10.9652 12.0217 11.0994 11.4483 11.0994C10.9578 11.0994 10.5236 10.9917 10.1458 10.7763C9.77125 10.5575 9.47627 10.2344 9.26083 9.80682C9.04871 9.37926 8.94265 8.85062 8.94265 8.22088V3.36364H10.4292V8.0419C10.4292 8.56226 10.5733 8.97656 10.8617 9.2848C11.15 9.59304 11.5246 9.74716 11.9853 9.74716C12.2637 9.74716 12.5404 9.67756 12.8155 9.53835C13.0939 9.39915 13.3243 9.18868 13.5066 8.90696C13.6922 8.62524 13.7833 8.26728 13.78 7.8331ZM17.2688 11V3.36364H18.7056V4.5767H18.7852C18.9244 4.16572 19.1696 3.84257 19.521 3.60724C19.8756 3.36861 20.2766 3.24929 20.7241 3.24929C20.8169 3.24929 20.9263 3.2526 21.0522 3.25923C21.1815 3.26586 21.2826 3.27415 21.3555 3.28409V4.70597C21.2958 4.68939 21.1897 4.67116 21.0373 4.65128C20.8848 4.62808 20.7324 4.61648 20.5799 4.61648C20.2286 4.61648 19.9154 4.69105 19.6403 4.8402C19.3685 4.98603 19.1531 5.18987 18.994 5.4517C18.8349 5.71023 18.7553 6.00521 18.7553 6.33665V11H17.2688ZM22.6419 11V3.36364H24.0787V4.5767H24.1582C24.2974 4.16572 24.5427 3.84257 24.894 3.60724C25.2486 3.36861 25.6497 3.24929 26.0971 3.24929C26.1899 3.24929 26.2993 3.2526 26.4252 3.25923C26.5545 3.26586 26.6556 3.27415 26.7285 3.28409V4.70597C26.6689 4.68939 26.5628 4.67116 26.4103 4.65128C26.2579 4.62808 26.1054 4.61648 25.9529 4.61648C25.6016 4.61648 25.2884 4.69105 25.0133 4.8402C24.7415 4.98603 24.5261 5.18987 24.367 5.4517C24.2079 5.71023 24.1284 6.00521 24.1284 6.33665V11H22.6419ZM31.0327 11.1541C30.2803 11.1541 29.6323 10.9934 29.0888 10.6719C28.5485 10.3471 28.1309 9.89134 27.8359 9.30469C27.5443 8.71473 27.3984 8.02367 27.3984 7.23153C27.3984 6.44934 27.5443 5.75994 27.8359 5.16335C28.1309 4.56676 28.5419 4.10109 29.0689 3.76633C29.5992 3.43158 30.219 3.2642 30.9283 3.2642C31.3591 3.2642 31.7768 3.33546 32.1811 3.47798C32.5855 3.6205 32.9484 3.84422 33.2699 4.14915C33.5914 4.45407 33.8449 4.85014 34.0305 5.33736C34.2161 5.82126 34.3089 6.40956 34.3089 7.10227V7.62926H28.2386V6.51562H32.8523C32.8523 6.12453 32.7727 5.77817 32.6136 5.47656C32.4545 5.17164 32.2308 4.93134 31.9425 4.75568C31.6574 4.58002 31.3227 4.49219 30.9382 4.49219C30.5206 4.49219 30.156 4.59493 29.8445 4.80043C29.5362 5.0026 29.2976 5.26776 29.1286 5.59588C28.9628 5.92069 28.88 6.27367 28.88 6.65483V7.52486C28.88 8.03527 28.9695 8.46946 29.1484 8.82741C29.3307 9.18537 29.5843 9.45881 29.9091 9.64773C30.2339 9.83333 30.6134 9.92614 31.0476 9.92614C31.3293 9.92614 31.5862 9.88636 31.8182 9.80682C32.0502 9.72396 32.2507 9.60133 32.4197 9.43892C32.5888 9.27652 32.718 9.07599 32.8075 8.83736L34.2145 9.09091C34.1018 9.50521 33.8996 9.86813 33.608 10.1797C33.3196 10.4879 32.9567 10.7282 32.5192 10.9006C32.085 11.0696 31.5895 11.1541 31.0327 11.1541ZM37.4448 6.46591V11H35.9583V3.36364H37.3851V4.60653H37.4796C37.6552 4.20218 37.9303 3.87737 38.3049 3.6321C38.6827 3.38684 39.1583 3.2642 39.7317 3.2642C40.2521 3.2642 40.7078 3.37358 41.0989 3.59233C41.49 3.80777 41.7933 4.12926 42.0087 4.55682C42.2241 4.98437 42.3319 5.51302 42.3319 6.14276V11H40.8453V6.32173C40.8453 5.76823 40.7012 5.3357 40.4128 5.02415C40.1245 4.70928 39.7284 4.55185 39.2246 4.55185C38.8799 4.55185 38.5733 4.62642 38.3049 4.77557C38.0397 4.92472 37.8292 5.14347 37.6735 5.43182C37.521 5.71686 37.4448 6.06155 37.4448 6.46591ZM47.5421 11.1541C46.803 11.1541 46.1666 10.9867 45.633 10.652C45.1027 10.3139 44.695 9.84825 44.41 9.25497C44.1249 8.66169 43.9824 7.98224 43.9824 7.21662C43.9824 6.44105 44.1283 5.75663 44.4199 5.16335C44.7116 4.56676 45.1226 4.10109 45.6529 3.76633C46.1832 3.43158 46.8079 3.2642 47.5272 3.2642C48.1072 3.2642 48.6242 3.37192 49.0783 3.58736C49.5324 3.79948 49.8986 4.09777 50.177 4.48224C50.4587 4.86671 50.6261 5.31581 50.6792 5.82955H49.2324C49.1529 5.47159 48.9706 5.16335 48.6855 4.90483C48.4038 4.64631 48.026 4.51705 47.552 4.51705C47.1377 4.51705 46.7748 4.62642 46.4632 4.84517C46.155 5.06061 45.9147 5.36884 45.7424 5.76989C45.57 6.16761 45.4838 6.63826 45.4838 7.18182C45.4838 7.73864 45.5684 8.21922 45.7374 8.62358C45.9064 9.02794 46.1451 9.34115 46.4533 9.56321C46.7649 9.78527 47.1311 9.89631 47.552 9.89631C47.8337 9.89631 48.089 9.84493 48.3176 9.74219C48.5497 9.63613 48.7435 9.48532 48.8993 9.28977C49.0584 9.09422 49.1694 8.8589 49.2324 8.58381H50.6792C50.6261 9.07765 50.4654 9.51847 50.1969 9.90625C49.9284 10.294 49.5688 10.599 49.1181 10.821C48.6706 11.0431 48.1453 11.1541 47.5421 11.1541ZM53.2085 13.8636C52.9864 13.8636 52.7842 13.8454 52.6019 13.8089C52.4196 13.7758 52.2837 13.7393 52.1942 13.6996L52.5522 12.4815C52.824 12.5545 53.0659 12.5859 53.2781 12.576C53.4902 12.5661 53.6774 12.4865 53.8398 12.3374C54.0056 12.1882 54.1514 11.9446 54.2773 11.6065L54.4613 11.0994L51.6673 3.36364H53.2582L55.1921 9.28977H55.2717L57.2056 3.36364H58.8015L55.6545 12.0192C55.5086 12.4169 55.323 12.7533 55.0977 13.0284C54.8723 13.3068 54.6038 13.5156 54.2923 13.6548C53.9807 13.794 53.6194 13.8636 53.2085 13.8636ZM64.6978 6.05327V7.34091H60.1836V6.05327H64.6978ZM66.679 11V3.36364H68.1158V4.5767H68.1953C68.3345 4.16572 68.5798 3.84257 68.9311 3.60724C69.2857 3.36861 69.6868 3.24929 70.1342 3.24929C70.227 3.24929 70.3364 3.2526 70.4624 3.25923C70.5916 3.26586 70.6927 3.27415 70.7656 3.28409V4.70597C70.706 4.68939 70.5999 4.67116 70.4474 4.65128C70.295 4.62808 70.1425 4.61648 69.9901 4.61648C69.6387 4.61648 69.3255 4.69105 69.0504 4.8402C68.7786 4.98603 68.5632 5.18987 68.4041 5.4517C68.245 5.71023 68.1655 6.00521 68.1655 6.33665V11H66.679ZM76.8894 7.8331V3.36364H78.3809V11H76.9192V9.67756H76.8397C76.664 10.0852 76.3823 10.425 75.9945 10.6967C75.61 10.9652 75.1311 11.0994 74.5577 11.0994C74.0672 11.0994 73.633 10.9917 73.2551 10.7763C72.8806 10.5575 72.5856 10.2344 72.3702 9.80682C72.1581 9.37926 72.052 8.85062 72.052 8.22088V3.36364H73.5385V8.0419C73.5385 8.56226 73.6827 8.97656 73.9711 9.2848C74.2594 9.59304 74.6339 9.74716 75.0946 9.74716C75.373 9.74716 75.6498 9.67756 75.9249 9.53835C76.2033 9.39915 76.4337 9.18868 76.6159 8.90696C76.8016 8.62524 76.8927 8.26728 76.8894 7.8331ZM80.3782 13.8636V3.36364H81.8299V4.60156H81.9542C82.0404 4.44247 82.1647 4.25852 82.3271 4.04972C82.4895 3.84091 82.7148 3.65862 83.0032 3.50284C83.2915 3.34375 83.6727 3.2642 84.1467 3.2642C84.7631 3.2642 85.3133 3.41998 85.7972 3.73153C86.2811 4.04309 86.6606 4.49219 86.9357 5.07884C87.2141 5.66548 87.3533 6.37145 87.3533 7.19673C87.3533 8.02202 87.2158 8.72964 86.9407 9.3196C86.6656 9.90625 86.2878 10.3587 85.8072 10.6768C85.3266 10.9917 84.7781 11.1491 84.1616 11.1491C83.6976 11.1491 83.3181 11.0713 83.0231 10.9155C82.7314 10.7597 82.5027 10.5774 82.337 10.3686C82.1713 10.1598 82.0437 9.9742 81.9542 9.81179H81.8647V13.8636H80.3782ZM81.8349 7.18182C81.8349 7.71875 81.9128 8.18939 82.0685 8.59375C82.2243 8.99811 82.4497 9.31463 82.7447 9.54332C83.0397 9.7687 83.4009 9.88139 83.8285 9.88139C84.2726 9.88139 84.6438 9.76373 84.9421 9.52841C85.2404 9.28977 85.4658 8.96662 85.6183 8.55895C85.774 8.15128 85.8519 7.69223 85.8519 7.18182C85.8519 6.67803 85.7757 6.22562 85.6232 5.82457C85.4741 5.42353 85.2487 5.10701 84.9471 4.875C84.6488 4.64299 84.2759 4.52699 83.8285 4.52699C83.3976 4.52699 83.033 4.63802 82.7347 4.86009C82.4397 5.08215 82.216 5.39205 82.0636 5.78977C81.9111 6.1875 81.8349 6.65151 81.8349 7.18182ZM92.31 11.1541C91.5576 11.1541 90.9097 10.9934 90.3661 10.6719C89.8259 10.3471 89.4083 9.89134 89.1133 9.30469C88.8216 8.71473 88.6758 8.02367 88.6758 7.23153C88.6758 6.44934 88.8216 5.75994 89.1133 5.16335C89.4083 4.56676 89.8192 4.10109 90.3462 3.76633C90.8765 3.43158 91.4963 3.2642 92.2056 3.2642C92.6365 3.2642 93.0541 3.33546 93.4585 3.47798C93.8628 3.6205 94.2257 3.84422 94.5472 4.14915C94.8687 4.45407 95.1223 4.85014 95.3079 5.33736C95.4935 5.82126 95.5863 6.40956 95.5863 7.10227V7.62926H89.516V6.51562H94.1296C94.1296 6.12453 94.0501 5.77817 93.891 5.47656C93.7319 5.17164 93.5082 4.93134 93.2198 4.75568C92.9348 4.58002 92.6 4.49219 92.2156 4.49219C91.7979 4.49219 91.4334 4.59493 91.1218 4.80043C90.8136 5.0026 90.5749 5.26776 90.4059 5.59588C90.2402 5.92069 90.1573 6.27367 90.1573 6.65483V7.52486C90.1573 8.03527 90.2468 8.46946 90.4258 8.82741C90.6081 9.18537 90.8616 9.45881 91.1864 9.64773C91.5112 9.83333 91.8907 9.92614 92.3249 9.92614C92.6067 9.92614 92.8635 9.88636 93.0955 9.80682C93.3275 9.72396 93.5281 9.60133 93.6971 9.43892C93.8661 9.27652 93.9954 9.07599 94.0849 8.83736L95.4918 9.09091C95.3791 9.50521 95.177 9.86813 94.8853 10.1797C94.5969 10.4879 94.234 10.7282 93.7965 10.9006C93.3623 11.0696 92.8668 11.1541 92.31 11.1541ZM100.527 11.1541C99.7744 11.1541 99.1265 10.9934 98.5829 10.6719C98.0427 10.3471 97.6251 9.89134 97.3301 9.30469C97.0384 8.71473 96.8926 8.02367 96.8926 7.23153C96.8926 6.44934 97.0384 5.75994 97.3301 5.16335C97.6251 4.56676 98.036 4.10109 98.563 3.76633C99.0933 3.43158 99.7131 3.2642 100.422 3.2642C100.853 3.2642 101.271 3.33546 101.675 3.47798C102.08 3.6205 102.443 3.84422 102.764 4.14915C103.086 4.45407 103.339 4.85014 103.525 5.33736C103.71 5.82126 103.803 6.40956 103.803 7.10227V7.62926H97.7328V6.51562H102.346C102.346 6.12453 102.267 5.77817 102.108 5.47656C101.949 5.17164 101.725 4.93134 101.437 4.75568C101.152 4.58002 100.817 4.49219 100.432 4.49219C100.015 4.49219 99.6502 4.59493 99.3386 4.80043C99.0304 5.0026 98.7917 5.26776 98.6227 5.59588C98.457 5.92069 98.3741 6.27367 98.3741 6.65483V7.52486C98.3741 8.03527 98.4636 8.46946 98.6426 8.82741C98.8249 9.18537 99.0784 9.45881 99.4032 9.64773C99.728 9.83333 100.108 9.92614 100.542 9.92614C100.823 9.92614 101.08 9.88636 101.312 9.80682C101.544 9.72396 101.745 9.60133 101.914 9.43892C102.083 9.27652 102.212 9.07599 102.302 8.83736L103.709 9.09091C103.596 9.50521 103.394 9.86813 103.102 10.1797C102.814 10.4879 102.451 10.7282 102.013 10.9006C101.579 11.0696 101.084 11.1541 100.527 11.1541ZM109.952 6.05327V7.34091H105.438V6.05327H109.952ZM115.15 11.1541C114.41 11.1541 113.774 10.9867 113.24 10.652C112.71 10.3139 112.302 9.84825 112.017 9.25497C111.732 8.66169 111.59 7.98224 111.59 7.21662C111.59 6.44105 111.736 5.75663 112.027 5.16335C112.319 4.56676 112.73 4.10109 113.26 3.76633C113.791 3.43158 114.415 3.2642 115.135 3.2642C115.715 3.2642 116.232 3.37192 116.686 3.58736C117.14 3.79948 117.506 4.09777 117.784 4.48224C118.066 4.86671 118.234 5.31581 118.287 5.82955H116.84C116.76 5.47159 116.578 5.16335 116.293 4.90483C116.011 4.64631 115.633 4.51705 115.159 4.51705C114.745 4.51705 114.382 4.62642 114.071 4.84517C113.762 5.06061 113.522 5.36884 113.35 5.76989C113.177 6.16761 113.091 6.63826 113.091 7.18182C113.091 7.73864 113.176 8.21922 113.345 8.62358C113.514 9.02794 113.752 9.34115 114.061 9.56321C114.372 9.78527 114.739 9.89631 115.159 9.89631C115.441 9.89631 115.696 9.84493 115.925 9.74219C116.157 9.63613 116.351 9.48532 116.507 9.28977C116.666 9.09422 116.777 8.8589 116.84 8.58381H118.287C118.234 9.07765 118.073 9.51847 117.804 9.90625C117.536 10.294 117.176 10.599 116.725 10.821C116.278 11.0431 115.753 11.1541 115.15 11.1541ZM119.876 11V3.36364H121.363V11H119.876ZM120.627 2.18537C120.368 2.18537 120.146 2.09919 119.961 1.92685C119.778 1.75118 119.687 1.54238 119.687 1.30043C119.687 1.05516 119.778 0.846354 119.961 0.674005C120.146 0.498342 120.368 0.410511 120.627 0.410511C120.885 0.410511 121.106 0.498342 121.288 0.674005C121.474 0.846354 121.567 1.05516 121.567 1.30043C121.567 1.54238 121.474 1.75118 121.288 1.92685C121.106 2.09919 120.885 2.18537 120.627 2.18537ZM123.363 11V3.36364H124.799V4.5767H124.879C125.018 4.16572 125.263 3.84257 125.615 3.60724C125.969 3.36861 126.37 3.24929 126.818 3.24929C126.911 3.24929 127.02 3.2526 127.146 3.25923C127.275 3.26586 127.376 3.27415 127.449 3.28409V4.70597C127.39 4.68939 127.283 4.67116 127.131 4.65128C126.979 4.62808 126.826 4.61648 126.674 4.61648C126.322 4.61648 126.009 4.69105 125.734 4.8402C125.462 4.98603 125.247 5.18987 125.088 5.4517C124.929 5.71023 124.849 6.00521 124.849 6.33665V11H123.363ZM131.679 11.1541C130.94 11.1541 130.303 10.9867 129.77 10.652C129.239 10.3139 128.832 9.84825 128.547 9.25497C128.262 8.66169 128.119 7.98224 128.119 7.21662C128.119 6.44105 128.265 5.75663 128.557 5.16335C128.848 4.56676 129.259 4.10109 129.79 3.76633C130.32 3.43158 130.945 3.2642 131.664 3.2642C132.244 3.2642 132.761 3.37192 133.215 3.58736C133.669 3.79948 134.035 4.09777 134.314 4.48224C134.595 4.86671 134.763 5.31581 134.816 5.82955H133.369C133.29 5.47159 133.107 5.16335 132.822 4.90483C132.541 4.64631 132.163 4.51705 131.689 4.51705C131.274 4.51705 130.912 4.62642 130.6 4.84517C130.292 5.06061 130.051 5.36884 129.879 5.76989C129.707 6.16761 129.621 6.63826 129.621 7.18182C129.621 7.73864 129.705 8.21922 129.874 8.62358C130.043 9.02794 130.282 9.34115 130.59 9.56321C130.902 9.78527 131.268 9.89631 131.689 9.89631C131.97 9.89631 132.226 9.84493 132.454 9.74219C132.686 9.63613 132.88 9.48532 133.036 9.28977C133.195 9.09422 133.306 8.8589 133.369 8.58381H134.816C134.763 9.07765 134.602 9.51847 134.334 9.90625C134.065 10.294 133.706 10.599 133.255 10.821C132.807 11.0431 132.282 11.1541 131.679 11.1541ZM137.892 0.818182V11H136.406V0.818182H137.892ZM143.183 11.1541C142.431 11.1541 141.783 10.9934 141.239 10.6719C140.699 10.3471 140.281 9.89134 139.986 9.30469C139.695 8.71473 139.549 8.02367 139.549 7.23153C139.549 6.44934 139.695 5.75994 139.986 5.16335C140.281 4.56676 140.692 4.10109 141.219 3.76633C141.75 3.43158 142.369 3.2642 143.079 3.2642C143.51 3.2642 143.927 3.33546 144.331 3.47798C144.736 3.6205 145.099 3.84422 145.42 4.14915C145.742 4.45407 145.995 4.85014 146.181 5.33736C146.367 5.82126 146.459 6.40956 146.459 7.10227V7.62926H140.389V6.51562H145.003C145.003 6.12453 144.923 5.77817 144.764 5.47656C144.605 5.17164 144.381 4.93134 144.093 4.75568C143.808 4.58002 143.473 4.49219 143.089 4.49219C142.671 4.49219 142.306 4.59493 141.995 4.80043C141.687 5.0026 141.448 5.26776 141.279 5.59588C141.113 5.92069 141.03 6.27367 141.03 6.65483V7.52486C141.03 8.03527 141.12 8.46946 141.299 8.82741C141.481 9.18537 141.735 9.45881 142.059 9.64773C142.384 9.83333 142.764 9.92614 143.198 9.92614C143.48 9.92614 143.737 9.88636 143.969 9.80682C144.201 9.72396 144.401 9.60133 144.57 9.43892C144.739 9.27652 144.868 9.07599 144.958 8.83736L146.365 9.09091C146.252 9.50521 146.05 9.86813 145.758 10.1797C145.47 10.4879 145.107 10.7282 144.67 10.9006C144.235 11.0696 143.74 11.1541 143.183 11.1541Z" fill="black"/>
</svg>
