<svg viewBox="0 0 125 12" fill="none" stroke-width="2" stroke="currentColor" aria-hidden="true">
  <path d="M3.22159 11.169C2.73769 11.169 2.30019 11.0795 1.90909 10.9006C1.51799 10.7183 1.2081 10.4548 0.979403 10.1101C0.754025 9.76539 0.641335 9.3428 0.641335 8.84233C0.641335 8.41146 0.724195 8.05682 0.889915 7.77841C1.05563 7.5 1.27936 7.27959 1.56108 7.11719C1.8428 6.95478 2.15767 6.83215 2.50568 6.74929C2.85369 6.66643 3.20833 6.60346 3.5696 6.56037C4.02699 6.50734 4.3982 6.46425 4.68324 6.43111C4.96828 6.39465 5.17543 6.33665 5.30469 6.2571C5.43395 6.17756 5.49858 6.0483 5.49858 5.86932V5.83452C5.49858 5.40033 5.37595 5.06392 5.13068 4.82528C4.88873 4.58665 4.52746 4.46733 4.04688 4.46733C3.5464 4.46733 3.15199 4.57836 2.86364 4.80043C2.5786 5.01918 2.38139 5.26278 2.27202 5.53125L0.875 5.21307C1.04072 4.74905 1.28267 4.37453 1.60085 4.08949C1.92235 3.80114 2.2919 3.59233 2.70952 3.46307C3.12713 3.33049 3.56629 3.2642 4.02699 3.2642C4.33191 3.2642 4.65507 3.30066 4.99645 3.37358C5.34115 3.44318 5.66264 3.57244 5.96094 3.76136C6.26255 3.95028 6.50947 4.22041 6.7017 4.57173C6.89394 4.91974 6.99006 5.37216 6.99006 5.92898V11H5.53835V9.95597H5.47869C5.38258 10.1482 5.2384 10.3371 5.04616 10.5227C4.85393 10.7083 4.60701 10.8625 4.3054 10.9851C4.00379 11.1077 3.64252 11.169 3.22159 11.169ZM3.54474 9.97585C3.95573 9.97585 4.30706 9.89465 4.59872 9.73224C4.8937 9.56984 5.11742 9.35772 5.26989 9.09588C5.42566 8.83073 5.50355 8.54735 5.50355 8.24574V7.26136C5.45052 7.31439 5.34777 7.36411 5.19531 7.41051C5.04616 7.4536 4.87547 7.49171 4.68324 7.52486C4.491 7.55469 4.30374 7.58286 4.12145 7.60938C3.93916 7.63258 3.7867 7.65246 3.66406 7.66903C3.37571 7.70549 3.11222 7.76681 2.87358 7.85298C2.63826 7.93916 2.44934 8.06345 2.30682 8.22585C2.16761 8.38494 2.09801 8.59706 2.09801 8.86222C2.09801 9.23011 2.2339 9.50852 2.50568 9.69744C2.77746 9.88305 3.12382 9.97585 3.54474 9.97585ZM10.4565 0.818182V11H8.96999V0.818182H10.4565ZM14.6786 11.169C14.1947 11.169 13.7572 11.0795 13.3661 10.9006C12.975 10.7183 12.6651 10.4548 12.4364 10.1101C12.2111 9.76539 12.0984 9.3428 12.0984 8.84233C12.0984 8.41146 12.1812 8.05682 12.3469 7.77841C12.5127 7.5 12.7364 7.27959 13.0181 7.11719C13.2998 6.95478 13.6147 6.83215 13.9627 6.74929C14.3107 6.66643 14.6654 6.60346 15.0266 6.56037C15.484 6.50734 15.8552 6.46425 16.1403 6.43111C16.4253 6.39465 16.6325 6.33665 16.7617 6.2571C16.891 6.17756 16.9556 6.0483 16.9556 5.86932V5.83452C16.9556 5.40033 16.833 5.06392 16.5877 4.82528C16.3458 4.58665 15.9845 4.46733 15.5039 4.46733C15.0034 4.46733 14.609 4.57836 14.3207 4.80043C14.0356 5.01918 13.8384 5.26278 13.729 5.53125L12.332 5.21307C12.4978 4.74905 12.7397 4.37453 13.0579 4.08949C13.3794 3.80114 13.7489 3.59233 14.1665 3.46307C14.5842 3.33049 15.0233 3.2642 15.484 3.2642C15.7889 3.2642 16.1121 3.30066 16.4535 3.37358C16.7982 3.44318 17.1197 3.57244 17.418 3.76136C17.7196 3.95028 17.9665 4.22041 18.1587 4.57173C18.351 4.91974 18.4471 5.37216 18.4471 5.92898V11H16.9954V9.95597H16.9357C16.8396 10.1482 16.6954 10.3371 16.5032 10.5227C16.311 10.7083 16.064 10.8625 15.7624 10.9851C15.4608 11.1077 15.0996 11.169 14.6786 11.169ZM15.0018 9.97585C15.4128 9.97585 15.7641 9.89465 16.0558 9.73224C16.3507 9.56984 16.5745 9.35772 16.7269 9.09588C16.8827 8.83073 16.9606 8.54735 16.9606 8.24574V7.26136C16.9076 7.31439 16.8048 7.36411 16.6523 7.41051C16.5032 7.4536 16.3325 7.49171 16.1403 7.52486C15.948 7.55469 15.7608 7.58286 15.5785 7.60938C15.3962 7.63258 15.2437 7.65246 15.1211 7.66903C14.8327 7.70549 14.5692 7.76681 14.3306 7.85298C14.0953 7.93916 13.9064 8.06345 13.7638 8.22585C13.6246 8.38494 13.555 8.59706 13.555 8.86222C13.555 9.23011 13.6909 9.50852 13.9627 9.69744C14.2345 9.88305 14.5808 9.97585 15.0018 9.97585ZM20.427 11V3.36364H21.8638V4.5767H21.9434C22.0826 4.16572 22.3278 3.84257 22.6792 3.60724C23.0338 3.36861 23.4348 3.24929 23.8823 3.24929C23.9751 3.24929 24.0845 3.2526 24.2104 3.25923C24.3397 3.26586 24.4408 3.27415 24.5137 3.28409V4.70597C24.454 4.68939 24.348 4.67116 24.1955 4.65128C24.043 4.62808 23.8906 4.61648 23.7381 4.61648C23.3868 4.61648 23.0736 4.69105 22.7985 4.8402C22.5267 4.98603 22.3113 5.18987 22.1522 5.4517C21.9931 5.71023 21.9135 6.00521 21.9135 6.33665V11H20.427ZM25.8001 11V3.36364H27.2269V4.60653H27.3214C27.4805 4.18561 27.7406 3.85748 28.1019 3.62216C28.4632 3.38352 28.8957 3.2642 29.3995 3.2642C29.9099 3.2642 30.3375 3.38352 30.6822 3.62216C31.0302 3.8608 31.2871 4.18892 31.4528 4.60653H31.5323C31.7146 4.19886 32.0046 3.87405 32.4023 3.6321C32.8001 3.38684 33.274 3.2642 33.8242 3.2642C34.5169 3.2642 35.082 3.4813 35.5195 3.91548C35.9603 4.34967 36.1808 5.00426 36.1808 5.87926V11H34.6942V6.01847C34.6942 5.50142 34.5534 5.12689 34.2717 4.89489C33.9899 4.66288 33.6535 4.54688 33.2624 4.54688C32.7785 4.54688 32.4023 4.69602 32.1339 4.99432C31.8654 5.2893 31.7312 5.6688 31.7312 6.13281V11H30.2496V5.92401C30.2496 5.50971 30.1204 5.17661 29.8619 4.92472C29.6033 4.67282 29.2669 4.54688 28.8526 4.54688C28.5709 4.54688 28.3107 4.62145 28.0721 4.7706C27.8368 4.91643 27.6462 5.12026 27.5004 5.3821C27.3578 5.64394 27.2866 5.94721 27.2866 6.2919V11H25.8001ZM42.6724 6.05327V7.34091H38.1582V6.05327H42.6724ZM47.8702 11.1541C47.1311 11.1541 46.4947 10.9867 45.9611 10.652C45.4308 10.3139 45.0231 9.84825 44.7381 9.25497C44.4531 8.66169 44.3105 7.98224 44.3105 7.21662C44.3105 6.44105 44.4564 5.75663 44.748 5.16335C45.0397 4.56676 45.4507 4.10109 45.981 3.76633C46.5113 3.43158 47.1361 3.2642 47.8553 3.2642C48.4353 3.2642 48.9524 3.37192 49.4064 3.58736C49.8605 3.79948 50.2267 4.09777 50.5051 4.48224C50.7869 4.86671 50.9542 5.31581 51.0073 5.82955H49.5605C49.481 5.47159 49.2987 5.16335 49.0137 4.90483C48.7319 4.64631 48.3541 4.51705 47.8801 4.51705C47.4659 4.51705 47.1029 4.62642 46.7914 4.84517C46.4831 5.06061 46.2428 5.36884 46.0705 5.76989C45.8981 6.16761 45.812 6.63826 45.812 7.18182C45.812 7.73864 45.8965 8.21922 46.0655 8.62358C46.2346 9.02794 46.4732 9.34115 46.7814 9.56321C47.093 9.78527 47.4592 9.89631 47.8801 9.89631C48.1619 9.89631 48.4171 9.84493 48.6458 9.74219C48.8778 9.63613 49.0717 9.48532 49.2275 9.28977C49.3865 9.09422 49.4976 8.8589 49.5605 8.58381H51.0073C50.9542 9.07765 50.7935 9.51847 50.525 9.90625C50.2566 10.294 49.897 10.599 49.4462 10.821C48.9988 11.0431 48.4734 11.1541 47.8702 11.1541ZM54.0835 0.818182V11H52.5969V0.818182H54.0835ZM59.2999 11.1541C58.584 11.1541 57.9592 10.9901 57.4256 10.6619C56.892 10.3338 56.4777 9.87476 56.1827 9.2848C55.8877 8.69484 55.7402 8.00544 55.7402 7.21662C55.7402 6.42448 55.8877 5.73177 56.1827 5.13849C56.4777 4.54522 56.892 4.08452 57.4256 3.75639C57.9592 3.42827 58.584 3.2642 59.2999 3.2642C60.0158 3.2642 60.6406 3.42827 61.1742 3.75639C61.7078 4.08452 62.1221 4.54522 62.4171 5.13849C62.7121 5.73177 62.8596 6.42448 62.8596 7.21662C62.8596 8.00544 62.7121 8.69484 62.4171 9.2848C62.1221 9.87476 61.7078 10.3338 61.1742 10.6619C60.6406 10.9901 60.0158 11.1541 59.2999 11.1541ZM59.3049 9.90625C59.7689 9.90625 60.1534 9.78362 60.4583 9.53835C60.7632 9.29309 60.9886 8.96662 61.1344 8.55895C61.2836 8.15128 61.3581 7.70218 61.3581 7.21165C61.3581 6.72443 61.2836 6.27699 61.1344 5.86932C60.9886 5.45833 60.7632 5.12855 60.4583 4.87997C60.1534 4.63139 59.7689 4.5071 59.3049 4.5071C58.8375 4.5071 58.4498 4.63139 58.1415 4.87997C57.8366 5.12855 57.6096 5.45833 57.4604 5.86932C57.3146 6.27699 57.2417 6.72443 57.2417 7.21165C57.2417 7.70218 57.3146 8.15128 57.4604 8.55895C57.6096 8.96662 57.8366 9.29309 58.1415 9.53835C58.4498 9.78362 58.8375 9.90625 59.3049 9.90625ZM67.7354 11.1541C66.9963 11.1541 66.36 10.9867 65.8263 10.652C65.296 10.3139 64.8884 9.84825 64.6033 9.25497C64.3183 8.66169 64.1758 7.98224 64.1758 7.21662C64.1758 6.44105 64.3216 5.75663 64.6133 5.16335C64.9049 4.56676 65.3159 4.10109 65.8462 3.76633C66.3765 3.43158 67.0013 3.2642 67.7205 3.2642C68.3005 3.2642 68.8176 3.37192 69.2717 3.58736C69.7257 3.79948 70.092 4.09777 70.3704 4.48224C70.6521 4.86671 70.8195 5.31581 70.8725 5.82955H69.4258C69.3462 5.47159 69.1639 5.16335 68.8789 4.90483C68.5972 4.64631 68.2193 4.51705 67.7454 4.51705C67.3311 4.51705 66.9682 4.62642 66.6566 4.84517C66.3484 5.06061 66.1081 5.36884 65.9357 5.76989C65.7634 6.16761 65.6772 6.63826 65.6772 7.18182C65.6772 7.73864 65.7617 8.21922 65.9308 8.62358C66.0998 9.02794 66.3384 9.34115 66.6467 9.56321C66.9582 9.78527 67.3245 9.89631 67.7454 9.89631C68.0271 9.89631 68.2823 9.84493 68.511 9.74219C68.743 9.63613 68.9369 9.48532 69.0927 9.28977C69.2518 9.09422 69.3628 8.8589 69.4258 8.58381H70.8725C70.8195 9.07765 70.6587 9.51847 70.3903 9.90625C70.1218 10.294 69.7622 10.599 69.3114 10.821C68.864 11.0431 68.3387 11.1541 67.7354 11.1541ZM73.8294 8.4098L73.8194 6.59517H74.0779L77.1206 3.36364H78.9004L75.4302 7.04261H75.1966L73.8294 8.4098ZM72.4622 11V0.818182H73.9487V11H72.4622ZM77.2846 11L74.5502 7.37074L75.5744 6.33168L79.1092 11H77.2846ZM84.2349 6.05327V7.34091H79.7207V6.05327H84.2349ZM86.2161 11V3.36364H87.6429V4.60653H87.7374C87.8965 4.18561 88.1567 3.85748 88.5179 3.62216C88.8792 3.38352 89.3117 3.2642 89.8155 3.2642C90.3259 3.2642 90.7535 3.38352 91.0982 3.62216C91.4462 3.8608 91.7031 4.18892 91.8688 4.60653H91.9483C92.1306 4.19886 92.4206 3.87405 92.8184 3.6321C93.2161 3.38684 93.69 3.2642 94.2402 3.2642C94.9329 3.2642 95.498 3.4813 95.9355 3.91548C96.3764 4.34967 96.5968 5.00426 96.5968 5.87926V11H95.1103V6.01847C95.1103 5.50142 94.9694 5.12689 94.6877 4.89489C94.406 4.66288 94.0695 4.54688 93.6784 4.54688C93.1945 4.54688 92.8184 4.69602 92.5499 4.99432C92.2814 5.2893 92.1472 5.6688 92.1472 6.13281V11H90.6657V5.92401C90.6657 5.50971 90.5364 5.17661 90.2779 4.92472C90.0194 4.67282 89.6829 4.54688 89.2686 4.54688C88.9869 4.54688 88.7267 4.62145 88.4881 4.7706C88.2528 4.91643 88.0622 5.12026 87.9164 5.3821C87.7739 5.64394 87.7026 5.94721 87.7026 6.2919V11H86.2161ZM98.5891 11V3.36364H100.076V11H98.5891ZM99.3398 2.18537C99.0813 2.18537 98.8593 2.09919 98.6737 1.92685C98.4914 1.75118 98.4002 1.54238 98.4002 1.30043C98.4002 1.05516 98.4914 0.846354 98.6737 0.674005C98.8593 0.498342 99.0813 0.410511 99.3398 0.410511C99.5984 0.410511 99.8188 0.498342 100.001 0.674005C100.187 0.846354 100.279 1.05516 100.279 1.30043C100.279 1.54238 100.187 1.75118 100.001 1.92685C99.8188 2.09919 99.5984 2.18537 99.3398 2.18537ZM103.562 6.46591V11H102.075V3.36364H103.502V4.60653H103.597C103.772 4.20218 104.048 3.87737 104.422 3.6321C104.8 3.38684 105.276 3.2642 105.849 3.2642C106.369 3.2642 106.825 3.37358 107.216 3.59233C107.607 3.80777 107.91 4.12926 108.126 4.55682C108.341 4.98437 108.449 5.51302 108.449 6.14276V11H106.963V6.32173C106.963 5.76823 106.818 5.3357 106.53 5.02415C106.242 4.70928 105.846 4.55185 105.342 4.55185C104.997 4.55185 104.691 4.62642 104.422 4.77557C104.157 4.92472 103.946 5.14347 103.791 5.43182C103.638 5.71686 103.562 6.06155 103.562 6.46591ZM115.28 7.8331V3.36364H116.771V11H115.31V9.67756H115.23C115.055 10.0852 114.773 10.425 114.385 10.6967C114.001 10.9652 113.522 11.0994 112.948 11.0994C112.458 11.0994 112.024 10.9917 111.646 10.7763C111.271 10.5575 110.976 10.2344 110.761 9.80682C110.549 9.37926 110.443 8.85062 110.443 8.22088V3.36364H111.929V8.0419C111.929 8.56226 112.073 8.97656 112.362 9.2848C112.65 9.59304 113.025 9.74716 113.485 9.74716C113.764 9.74716 114.04 9.67756 114.316 9.53835C114.594 9.39915 114.824 9.18868 115.007 8.90696C115.192 8.62524 115.283 8.26728 115.28 7.8331ZM124.491 5.22798L123.144 5.46662C123.087 5.29427 122.998 5.13021 122.875 4.97443C122.756 4.81865 122.594 4.69105 122.388 4.59162C122.183 4.49219 121.926 4.44247 121.618 4.44247C121.197 4.44247 120.845 4.53693 120.564 4.72585C120.282 4.91146 120.141 5.15175 120.141 5.44673C120.141 5.70194 120.235 5.90743 120.424 6.06321C120.613 6.21899 120.918 6.34659 121.339 6.44602L122.552 6.72443C123.255 6.88684 123.779 7.13707 124.123 7.47514C124.468 7.81321 124.64 8.25237 124.64 8.79261C124.64 9.25 124.508 9.65767 124.243 10.0156C123.981 10.3703 123.614 10.6487 123.144 10.8509C122.676 11.053 122.135 11.1541 121.518 11.1541C120.663 11.1541 119.965 10.9718 119.425 10.6072C118.885 10.2393 118.553 9.71733 118.431 9.04119L119.868 8.82244C119.957 9.19697 120.141 9.48035 120.419 9.67259C120.698 9.86151 121.061 9.95597 121.508 9.95597C121.995 9.95597 122.385 9.85488 122.676 9.6527C122.968 9.44721 123.114 9.19697 123.114 8.90199C123.114 8.66335 123.025 8.46283 122.846 8.30043C122.67 8.13802 122.4 8.01539 122.035 7.93253L120.743 7.64915C120.03 7.48674 119.503 7.22822 119.162 6.87358C118.824 6.51894 118.654 6.06984 118.654 5.52628C118.654 5.07552 118.78 4.68111 119.032 4.34304C119.284 4.00497 119.632 3.74148 120.076 3.55256C120.52 3.36032 121.029 3.2642 121.603 3.2642C122.428 3.2642 123.078 3.44318 123.551 3.80114C124.025 4.15578 124.339 4.63139 124.491 5.22798Z" fill="black"/>
</svg>
