<svg viewBox="0 0 125 12" fill="none" stroke-width="2" stroke="currentColor" aria-hidden="true">
  <path d="M4.21591 11.1541C3.4768 11.1541 2.84044 10.9867 2.30682 10.652C1.77652 10.3139 1.36884 9.84825 1.08381 9.25497C0.798769 8.66169 0.65625 7.98224 0.65625 7.21662C0.65625 6.44105 0.802083 5.75663 1.09375 5.16335C1.38542 4.56676 1.7964 4.10109 2.3267 3.76633C2.85701 3.43158 3.48177 3.2642 4.20099 3.2642C4.78101 3.2642 5.29806 3.37192 5.75213 3.58736C6.2062 3.79948 6.57244 4.09777 6.85085 4.48224C7.13258 4.86671 7.29995 5.31581 7.35298 5.82955H5.90625C5.8267 5.47159 5.64441 5.16335 5.35938 4.90483C5.07765 4.64631 4.69981 4.51705 4.22585 4.51705C3.81155 4.51705 3.44863 4.62642 3.13707 4.84517C2.82884 5.06061 2.58854 5.36884 2.41619 5.76989C2.24384 6.16761 2.15767 6.63826 2.15767 7.18182C2.15767 7.73864 2.24219 8.21922 2.41122 8.62358C2.58026 9.02794 2.81889 9.34115 3.12713 9.56321C3.43868 9.78527 3.80492 9.89631 4.22585 9.89631C4.50758 9.89631 4.76278 9.84493 4.99148 9.74219C5.22349 9.63613 5.41738 9.48532 5.57315 9.28977C5.73224 9.09422 5.84328 8.8589 5.90625 8.58381H7.35298C7.29995 9.07765 7.1392 9.51847 6.87074 9.90625C6.60227 10.294 6.24266 10.599 5.7919 10.821C5.34446 11.0431 4.81913 11.1541 4.21591 11.1541ZM10.4292 0.818182V11H8.94265V0.818182H10.4292ZM15.6456 11.1541C14.9297 11.1541 14.3049 10.9901 13.7713 10.6619C13.2377 10.3338 12.8234 9.87476 12.5284 9.2848C12.2334 8.69484 12.0859 8.00544 12.0859 7.21662C12.0859 6.42448 12.2334 5.73177 12.5284 5.13849C12.8234 4.54522 13.2377 4.08452 13.7713 3.75639C14.3049 3.42827 14.9297 3.2642 15.6456 3.2642C16.3615 3.2642 16.9863 3.42827 17.5199 3.75639C18.0535 4.08452 18.4678 4.54522 18.7628 5.13849C19.0578 5.73177 19.2053 6.42448 19.2053 7.21662C19.2053 8.00544 19.0578 8.69484 18.7628 9.2848C18.4678 9.87476 18.0535 10.3338 17.5199 10.6619C16.9863 10.9901 16.3615 11.1541 15.6456 11.1541ZM15.6506 9.90625C16.1146 9.90625 16.4991 9.78362 16.804 9.53835C17.1089 9.29309 17.3343 8.96662 17.4801 8.55895C17.6293 8.15128 17.7038 7.70218 17.7038 7.21165C17.7038 6.72443 17.6293 6.27699 17.4801 5.86932C17.3343 5.45833 17.1089 5.12855 16.804 4.87997C16.4991 4.63139 16.1146 4.5071 15.6506 4.5071C15.1832 4.5071 14.7955 4.63139 14.4872 4.87997C14.1823 5.12855 13.9553 5.45833 13.8061 5.86932C13.6603 6.27699 13.5874 6.72443 13.5874 7.21165C13.5874 7.70218 13.6603 8.15128 13.8061 8.55895C13.9553 8.96662 14.1823 9.29309 14.4872 9.53835C14.7955 9.78362 15.1832 9.90625 15.6506 9.90625ZM24.0811 11.1541C23.342 11.1541 22.7057 10.9867 22.1721 10.652C21.6417 10.3139 21.2341 9.84825 20.949 9.25497C20.664 8.66169 20.5215 7.98224 20.5215 7.21662C20.5215 6.44105 20.6673 5.75663 20.959 5.16335C21.2507 4.56676 21.6616 4.10109 22.1919 3.76633C22.7222 3.43158 23.347 3.2642 24.0662 3.2642C24.6462 3.2642 25.1633 3.37192 25.6174 3.58736C26.0714 3.79948 26.4377 4.09777 26.7161 4.48224C26.9978 4.86671 27.1652 5.31581 27.2182 5.82955H25.7715C25.6919 5.47159 25.5096 5.16335 25.2246 4.90483C24.9429 4.64631 24.565 4.51705 24.0911 4.51705C23.6768 4.51705 23.3139 4.62642 23.0023 4.84517C22.6941 5.06061 22.4538 5.36884 22.2814 5.76989C22.1091 6.16761 22.0229 6.63826 22.0229 7.18182C22.0229 7.73864 22.1074 8.21922 22.2765 8.62358C22.4455 9.02794 22.6841 9.34115 22.9924 9.56321C23.3039 9.78527 23.6702 9.89631 24.0911 9.89631C24.3728 9.89631 24.628 9.84493 24.8567 9.74219C25.0887 9.63613 25.2826 9.48532 25.4384 9.28977C25.5975 9.09422 25.7085 8.8589 25.7715 8.58381H27.2182C27.1652 9.07765 27.0044 9.51847 26.736 9.90625C26.4675 10.294 26.1079 10.599 25.6571 10.821C25.2097 11.0431 24.6844 11.1541 24.0811 11.1541ZM30.1751 8.4098L30.1651 6.59517H30.4237L33.4663 3.36364H35.2461L31.7759 7.04261H31.5423L30.1751 8.4098ZM28.8079 11V0.818182H30.2944V11H28.8079ZM33.6303 11L30.896 7.37074L31.9201 6.33168L35.4549 11H33.6303ZM40.5806 6.05327V7.34091H36.0664V6.05327H40.5806ZM46.196 3.36364V4.55682H41.8807V3.36364H46.196ZM43.0639 11V2.47869C43.0639 2.00142 43.1683 1.60535 43.3771 1.29048C43.5859 0.972301 43.8627 0.735322 44.2074 0.579545C44.5521 0.420454 44.9266 0.340908 45.331 0.340908C45.6293 0.340908 45.8845 0.365767 46.0966 0.415483C46.3087 0.461884 46.4661 0.504971 46.5689 0.544744L46.2209 1.74787C46.1513 1.72798 46.0618 1.70478 45.9524 1.67827C45.843 1.64844 45.7105 1.63352 45.5547 1.63352C45.1934 1.63352 44.9349 1.72301 44.7791 1.90199C44.6267 2.08097 44.5504 2.33949 44.5504 2.67756V11H43.0639ZM49.7196 11.169C49.2357 11.169 48.7982 11.0795 48.4071 10.9006C48.016 10.7183 47.7061 10.4548 47.4775 10.1101C47.2521 9.76539 47.1394 9.3428 47.1394 8.84233C47.1394 8.41146 47.2222 8.05682 47.388 7.77841C47.5537 7.5 47.7774 7.27959 48.0591 7.11719C48.3408 6.95478 48.6557 6.83215 49.0037 6.74929C49.3517 6.66643 49.7064 6.60346 50.0676 6.56037C50.525 6.50734 50.8962 6.46425 51.1813 6.43111C51.4663 6.39465 51.6735 6.33665 51.8027 6.2571C51.932 6.17756 51.9966 6.0483 51.9966 5.86932V5.83452C51.9966 5.40033 51.874 5.06392 51.6287 4.82528C51.3868 4.58665 51.0255 4.46733 50.5449 4.46733C50.0444 4.46733 49.65 4.57836 49.3617 4.80043C49.0766 5.01918 48.8794 5.26278 48.7701 5.53125L47.373 5.21307C47.5388 4.74905 47.7807 4.37453 48.0989 4.08949C48.4204 3.80114 48.79 3.59233 49.2076 3.46307C49.6252 3.33049 50.0643 3.2642 50.525 3.2642C50.83 3.2642 51.1531 3.30066 51.4945 3.37358C51.8392 3.44318 52.1607 3.57244 52.459 3.76136C52.7606 3.95028 53.0075 4.22041 53.1998 4.57173C53.392 4.91974 53.4881 5.37216 53.4881 5.92898V11H52.0364V9.95597H51.9767C51.8806 10.1482 51.7364 10.3371 51.5442 10.5227C51.352 10.7083 51.1051 10.8625 50.8034 10.9851C50.5018 11.1077 50.1406 11.169 49.7196 11.169ZM50.0428 9.97585C50.4538 9.97585 50.8051 9.89465 51.0968 9.73224C51.3917 9.56984 51.6155 9.35772 51.7679 9.09588C51.9237 8.83073 52.0016 8.54735 52.0016 8.24574V7.26136C51.9486 7.31439 51.8458 7.36411 51.6934 7.41051C51.5442 7.4536 51.3735 7.49171 51.1813 7.52486C50.9891 7.55469 50.8018 7.58286 50.6195 7.60938C50.4372 7.63258 50.2847 7.65246 50.1621 7.66903C49.8738 7.70549 49.6103 7.76681 49.3716 7.85298C49.1363 7.93916 48.9474 8.06345 48.8049 8.22585C48.6657 8.38494 48.5961 8.59706 48.5961 8.86222C48.5961 9.23011 48.7319 9.50852 49.0037 9.69744C49.2755 9.88305 49.6219 9.97585 50.0428 9.97585ZM61.1903 5.22798L59.843 5.46662C59.7867 5.29427 59.6972 5.13021 59.5746 4.97443C59.4553 4.81865 59.2929 4.69105 59.0874 4.59162C58.8819 4.49219 58.625 4.44247 58.3168 4.44247C57.8958 4.44247 57.5445 4.53693 57.2628 4.72585C56.9811 4.91146 56.8402 5.15175 56.8402 5.44673C56.8402 5.70194 56.9347 5.90743 57.1236 6.06321C57.3125 6.21899 57.6174 6.34659 58.0384 6.44602L59.2514 6.72443C59.9541 6.88684 60.4777 7.13707 60.8224 7.47514C61.1671 7.81321 61.3395 8.25237 61.3395 8.79261C61.3395 9.25 61.2069 9.65767 60.9418 10.0156C60.6799 10.3703 60.3137 10.6487 59.843 10.8509C59.3757 11.053 58.8338 11.1541 58.2173 11.1541C57.3622 11.1541 56.6645 10.9718 56.1243 10.6072C55.584 10.2393 55.2526 9.71733 55.13 9.04119L56.5668 8.82244C56.6563 9.19697 56.8402 9.48035 57.1186 9.67259C57.397 9.86151 57.7599 9.95597 58.2074 9.95597C58.6946 9.95597 59.084 9.85488 59.3757 9.6527C59.6674 9.44721 59.8132 9.19697 59.8132 8.90199C59.8132 8.66335 59.7237 8.46283 59.5447 8.30043C59.3691 8.13802 59.099 8.01539 58.7344 7.93253L57.4418 7.64915C56.7292 7.48674 56.2022 7.22822 55.8608 6.87358C55.5227 6.51894 55.3537 6.06984 55.3537 5.52628C55.3537 5.07552 55.4796 4.68111 55.7315 4.34304C55.9834 4.00497 56.3314 3.74148 56.7756 3.55256C57.2197 3.36032 57.7285 3.2642 58.3018 3.2642C59.1271 3.2642 59.7768 3.44318 60.2507 3.80114C60.7247 4.15578 61.0379 4.63139 61.1903 5.22798ZM66.5385 3.36364V4.55682H62.3674V3.36364H66.5385ZM63.486 1.53409H64.9725V8.75781C64.9725 9.04616 65.0156 9.26326 65.1017 9.40909C65.1879 9.55161 65.2989 9.64938 65.4348 9.70241C65.574 9.75213 65.7248 9.77699 65.8873 9.77699C66.0066 9.77699 66.111 9.7687 66.2005 9.75213C66.29 9.73556 66.3596 9.7223 66.4093 9.71236L66.6777 10.9403C66.5916 10.9735 66.4689 11.0066 66.3098 11.0398C66.1507 11.0762 65.9519 11.0961 65.7132 11.0994C65.3221 11.1061 64.9576 11.0365 64.6195 10.8906C64.2814 10.7448 64.008 10.5194 63.7992 10.2145C63.5904 9.90956 63.486 9.52675 63.486 9.06605V1.53409ZM72.4224 6.05327V7.34091H67.9082V6.05327H72.4224ZM78.0378 3.36364V4.55682H73.7225V3.36364H78.0378ZM74.9057 11V2.47869C74.9057 2.00142 75.0101 1.60535 75.2189 1.29048C75.4277 0.972301 75.7045 0.735322 76.0492 0.579545C76.3939 0.420454 76.7684 0.340908 77.1728 0.340908C77.4711 0.340908 77.7263 0.365767 77.9384 0.415483C78.1505 0.461884 78.3079 0.504971 78.4107 0.544744L78.0627 1.74787C77.9931 1.72798 77.9036 1.70478 77.7942 1.67827C77.6848 1.64844 77.5523 1.63352 77.3965 1.63352C77.0352 1.63352 76.7767 1.72301 76.6209 1.90199C76.4685 2.08097 76.3922 2.33949 76.3922 2.67756V11H74.9057ZM82.4874 11.1541C81.7715 11.1541 81.1467 10.9901 80.6131 10.6619C80.0795 10.3338 79.6652 9.87476 79.3702 9.2848C79.0752 8.69484 78.9277 8.00544 78.9277 7.21662C78.9277 6.42448 79.0752 5.73177 79.3702 5.13849C79.6652 4.54522 80.0795 4.08452 80.6131 3.75639C81.1467 3.42827 81.7715 3.2642 82.4874 3.2642C83.2033 3.2642 83.8281 3.42827 84.3617 3.75639C84.8953 4.08452 85.3096 4.54522 85.6046 5.13849C85.8996 5.73177 86.0471 6.42448 86.0471 7.21662C86.0471 8.00544 85.8996 8.69484 85.6046 9.2848C85.3096 9.87476 84.8953 10.3338 84.3617 10.6619C83.8281 10.9901 83.2033 11.1541 82.4874 11.1541ZM82.4924 9.90625C82.9564 9.90625 83.3409 9.78362 83.6458 9.53835C83.9507 9.29309 84.1761 8.96662 84.3219 8.55895C84.4711 8.15128 84.5456 7.70218 84.5456 7.21165C84.5456 6.72443 84.4711 6.27699 84.3219 5.86932C84.1761 5.45833 83.9507 5.12855 83.6458 4.87997C83.3409 4.63139 82.9564 4.5071 82.4924 4.5071C82.025 4.5071 81.6373 4.63139 81.329 4.87997C81.0241 5.12855 80.7971 5.45833 80.6479 5.86932C80.5021 6.27699 80.4292 6.72443 80.4292 7.21165C80.4292 7.70218 80.5021 8.15128 80.6479 8.55895C80.7971 8.96662 81.0241 9.29309 81.329 9.53835C81.6373 9.78362 82.025 9.90625 82.4924 9.90625ZM87.7063 11V3.36364H89.1431V4.5767H89.2227C89.3619 4.16572 89.6071 3.84257 89.9585 3.60724C90.3131 3.36861 90.7141 3.24929 91.1616 3.24929C91.2544 3.24929 91.3638 3.2526 91.4897 3.25923C91.619 3.26586 91.7201 3.27415 91.793 3.28409V4.70597C91.7333 4.68939 91.6272 4.67116 91.4748 4.65128C91.3223 4.62808 91.1699 4.61648 91.0174 4.61648C90.6661 4.61648 90.3529 4.69105 90.0778 4.8402C89.806 4.98603 89.5906 5.18987 89.4315 5.4517C89.2724 5.71023 89.1928 6.00521 89.1928 6.33665V11H87.7063ZM94.858 11L92.6108 3.36364H94.147L95.6435 8.97159H95.718L97.2195 3.36364H98.7557L100.247 8.94673H100.322L101.808 3.36364H103.344L101.102 11H99.5859L98.0348 5.48651H97.9205L96.3693 11H94.858ZM106.977 11.169C106.494 11.169 106.056 11.0795 105.665 10.9006C105.274 10.7183 104.964 10.4548 104.735 10.1101C104.51 9.76539 104.397 9.3428 104.397 8.84233C104.397 8.41146 104.48 8.05682 104.646 7.77841C104.811 7.5 105.035 7.27959 105.317 7.11719C105.599 6.95478 105.914 6.83215 106.262 6.74929C106.61 6.66643 106.964 6.60346 107.325 6.56037C107.783 6.50734 108.154 6.46425 108.439 6.43111C108.724 6.39465 108.931 6.33665 109.061 6.2571C109.19 6.17756 109.254 6.0483 109.254 5.86932V5.83452C109.254 5.40033 109.132 5.06392 108.887 4.82528C108.645 4.58665 108.283 4.46733 107.803 4.46733C107.302 4.46733 106.908 4.57836 106.619 4.80043C106.334 5.01918 106.137 5.26278 106.028 5.53125L104.631 5.21307C104.797 4.74905 105.039 4.37453 105.357 4.08949C105.678 3.80114 106.048 3.59233 106.465 3.46307C106.883 3.33049 107.322 3.2642 107.783 3.2642C108.088 3.2642 108.411 3.30066 108.752 3.37358C109.097 3.44318 109.419 3.57244 109.717 3.76136C110.018 3.95028 110.265 4.22041 110.458 4.57173C110.65 4.91974 110.746 5.37216 110.746 5.92898V11H109.294V9.95597H109.235C109.138 10.1482 108.994 10.3371 108.802 10.5227C108.61 10.7083 108.363 10.8625 108.061 10.9851C107.76 11.1077 107.398 11.169 106.977 11.169ZM107.301 9.97585C107.712 9.97585 108.063 9.89465 108.355 9.73224C108.65 9.56984 108.873 9.35772 109.026 9.09588C109.182 8.83073 109.259 8.54735 109.259 8.24574V7.26136C109.206 7.31439 109.104 7.36411 108.951 7.41051C108.802 7.4536 108.631 7.49171 108.439 7.52486C108.247 7.55469 108.06 7.58286 107.877 7.60938C107.695 7.63258 107.543 7.65246 107.42 7.66903C107.132 7.70549 106.868 7.76681 106.629 7.85298C106.394 7.93916 106.205 8.06345 106.063 8.22585C105.923 8.38494 105.854 8.59706 105.854 8.86222C105.854 9.23011 105.99 9.50852 106.262 9.69744C106.533 9.88305 106.88 9.97585 107.301 9.97585ZM112.726 11V3.36364H114.163V4.5767H114.242C114.381 4.16572 114.627 3.84257 114.978 3.60724C115.333 3.36861 115.734 3.24929 116.181 3.24929C116.274 3.24929 116.383 3.2526 116.509 3.25923C116.638 3.26586 116.74 3.27415 116.812 3.28409V4.70597C116.753 4.68939 116.647 4.67116 116.494 4.65128C116.342 4.62808 116.189 4.61648 116.037 4.61648C115.686 4.61648 115.372 4.69105 115.097 4.8402C114.826 4.98603 114.61 5.18987 114.451 5.4517C114.292 5.71023 114.212 6.00521 114.212 6.33665V11H112.726ZM120.684 11.1491C120.068 11.1491 119.517 10.9917 119.034 10.6768C118.553 10.3587 118.175 9.90625 117.9 9.3196C117.628 8.72964 117.492 8.02202 117.492 7.19673C117.492 6.37145 117.63 5.66548 117.905 5.07884C118.183 4.49219 118.565 4.04309 119.048 3.73153C119.532 3.41998 120.081 3.2642 120.694 3.2642C121.168 3.2642 121.549 3.34375 121.838 3.50284C122.129 3.65862 122.355 3.84091 122.514 4.04972C122.676 4.25852 122.802 4.44247 122.892 4.60156H122.981V0.818182H124.468V11H123.016V9.81179H122.892C122.802 9.9742 122.673 10.1598 122.504 10.3686C122.338 10.5774 122.109 10.7597 121.818 10.9155C121.526 11.0713 121.148 11.1491 120.684 11.1491ZM121.012 9.88139C121.44 9.88139 121.801 9.7687 122.096 9.54332C122.394 9.31463 122.62 8.99811 122.772 8.59375C122.928 8.18939 123.006 7.71875 123.006 7.18182C123.006 6.65151 122.93 6.1875 122.777 5.78977C122.625 5.39205 122.401 5.08215 122.106 4.86009C121.811 4.63802 121.446 4.52699 121.012 4.52699C120.565 4.52699 120.192 4.64299 119.894 4.875C119.595 5.10701 119.37 5.42353 119.218 5.82457C119.068 6.22562 118.994 6.67803 118.994 7.18182C118.994 7.69223 119.07 8.15128 119.222 8.55895C119.375 8.96662 119.6 9.28977 119.899 9.52841C120.2 9.76373 120.571 9.88139 121.012 9.88139Z" fill="black"/>
</svg>
