<svg viewBox="0 0 90 12" fill="none" stroke-width="2" stroke="currentColor" aria-hidden="true">
  <path d="M4.21591 11.1541C3.4768 11.1541 2.84044 10.9867 2.30682 10.652C1.77652 10.3139 1.36884 9.84825 1.08381 9.25497C0.798769 8.66169 0.65625 7.98224 0.65625 7.21662C0.65625 6.44105 0.802083 5.75663 1.09375 5.16335C1.38542 4.56676 1.7964 4.10109 2.3267 3.76633C2.85701 3.43158 3.48177 3.2642 4.20099 3.2642C4.78101 3.2642 5.29806 3.37192 5.75213 3.58736C6.2062 3.79948 6.57244 4.09777 6.85085 4.48224C7.13258 4.86671 7.29995 5.31581 7.35298 5.82955H5.90625C5.8267 5.47159 5.64441 5.16335 5.35938 4.90483C5.07765 4.64631 4.69981 4.51705 4.22585 4.51705C3.81155 4.51705 3.44863 4.62642 3.13707 4.84517C2.82884 5.06061 2.58854 5.36884 2.41619 5.76989C2.24384 6.16761 2.15767 6.63826 2.15767 7.18182C2.15767 7.73864 2.24219 8.21922 2.41122 8.62358C2.58026 9.02794 2.81889 9.34115 3.12713 9.56321C3.43868 9.78527 3.80492 9.89631 4.22585 9.89631C4.50758 9.89631 4.76278 9.84493 4.99148 9.74219C5.22349 9.63613 5.41738 9.48532 5.57315 9.28977C5.73224 9.09422 5.84328 8.8589 5.90625 8.58381H7.35298C7.29995 9.07765 7.1392 9.51847 6.87074 9.90625C6.60227 10.294 6.24266 10.599 5.7919 10.821C5.34446 11.0431 4.81913 11.1541 4.21591 11.1541ZM10.4292 0.818182V11H8.94265V0.818182H10.4292ZM15.6456 11.1541C14.9297 11.1541 14.3049 10.9901 13.7713 10.6619C13.2377 10.3338 12.8234 9.87476 12.5284 9.2848C12.2334 8.69484 12.0859 8.00544 12.0859 7.21662C12.0859 6.42448 12.2334 5.73177 12.5284 5.13849C12.8234 4.54522 13.2377 4.08452 13.7713 3.75639C14.3049 3.42827 14.9297 3.2642 15.6456 3.2642C16.3615 3.2642 16.9863 3.42827 17.5199 3.75639C18.0535 4.08452 18.4678 4.54522 18.7628 5.13849C19.0578 5.73177 19.2053 6.42448 19.2053 7.21662C19.2053 8.00544 19.0578 8.69484 18.7628 9.2848C18.4678 9.87476 18.0535 10.3338 17.5199 10.6619C16.9863 10.9901 16.3615 11.1541 15.6456 11.1541ZM15.6506 9.90625C16.1146 9.90625 16.4991 9.78362 16.804 9.53835C17.1089 9.29309 17.3343 8.96662 17.4801 8.55895C17.6293 8.15128 17.7038 7.70218 17.7038 7.21165C17.7038 6.72443 17.6293 6.27699 17.4801 5.86932C17.3343 5.45833 17.1089 5.12855 16.804 4.87997C16.4991 4.63139 16.1146 4.5071 15.6506 4.5071C15.1832 4.5071 14.7955 4.63139 14.4872 4.87997C14.1823 5.12855 13.9553 5.45833 13.8061 5.86932C13.6603 6.27699 13.5874 6.72443 13.5874 7.21165C13.5874 7.70218 13.6603 8.15128 13.8061 8.55895C13.9553 8.96662 14.1823 9.29309 14.4872 9.53835C14.7955 9.78362 15.1832 9.90625 15.6506 9.90625ZM24.0811 11.1541C23.342 11.1541 22.7057 10.9867 22.1721 10.652C21.6417 10.3139 21.2341 9.84825 20.949 9.25497C20.664 8.66169 20.5215 7.98224 20.5215 7.21662C20.5215 6.44105 20.6673 5.75663 20.959 5.16335C21.2507 4.56676 21.6616 4.10109 22.1919 3.76633C22.7222 3.43158 23.347 3.2642 24.0662 3.2642C24.6462 3.2642 25.1633 3.37192 25.6174 3.58736C26.0714 3.79948 26.4377 4.09777 26.7161 4.48224C26.9978 4.86671 27.1652 5.31581 27.2182 5.82955H25.7715C25.6919 5.47159 25.5096 5.16335 25.2246 4.90483C24.9429 4.64631 24.565 4.51705 24.0911 4.51705C23.6768 4.51705 23.3139 4.62642 23.0023 4.84517C22.6941 5.06061 22.4538 5.36884 22.2814 5.76989C22.1091 6.16761 22.0229 6.63826 22.0229 7.18182C22.0229 7.73864 22.1074 8.21922 22.2765 8.62358C22.4455 9.02794 22.6841 9.34115 22.9924 9.56321C23.3039 9.78527 23.6702 9.89631 24.0911 9.89631C24.3728 9.89631 24.628 9.84493 24.8567 9.74219C25.0887 9.63613 25.2826 9.48532 25.4384 9.28977C25.5975 9.09422 25.7085 8.8589 25.7715 8.58381H27.2182C27.1652 9.07765 27.0044 9.51847 26.736 9.90625C26.4675 10.294 26.1079 10.599 25.6571 10.821C25.2097 11.0431 24.6844 11.1541 24.0811 11.1541ZM30.1751 8.4098L30.1651 6.59517H30.4237L33.4663 3.36364H35.2461L31.7759 7.04261H31.5423L30.1751 8.4098ZM28.8079 11V0.818182H30.2944V11H28.8079ZM33.6303 11L30.896 7.37074L31.9201 6.33168L35.4549 11H33.6303ZM40.5806 6.05327V7.34091H36.0664V6.05327H40.5806ZM48.2841 5.22798L46.9368 5.46662C46.8804 5.29427 46.791 5.13021 46.6683 4.97443C46.549 4.81865 46.3866 4.69105 46.1811 4.59162C45.9756 4.49219 45.7188 4.44247 45.4105 4.44247C44.9896 4.44247 44.6383 4.53693 44.3565 4.72585C44.0748 4.91146 43.9339 5.15175 43.9339 5.44673C43.9339 5.70194 44.0284 5.90743 44.2173 6.06321C44.4063 6.21899 44.7112 6.34659 45.1321 6.44602L46.3452 6.72443C47.0478 6.88684 47.5715 7.13707 47.9162 7.47514C48.2609 7.81321 48.4332 8.25237 48.4332 8.79261C48.4332 9.25 48.3007 9.65767 48.0355 10.0156C47.7737 10.3703 47.4074 10.6487 46.9368 10.8509C46.4695 11.053 45.9276 11.1541 45.3111 11.1541C44.456 11.1541 43.7583 10.9718 43.218 10.6072C42.6778 10.2393 42.3464 9.71733 42.2237 9.04119L43.6605 8.82244C43.75 9.19697 43.9339 9.48035 44.2124 9.67259C44.4908 9.86151 44.8537 9.95597 45.3011 9.95597C45.7884 9.95597 46.1778 9.85488 46.4695 9.6527C46.7611 9.44721 46.907 9.19697 46.907 8.90199C46.907 8.66335 46.8175 8.46283 46.6385 8.30043C46.4628 8.13802 46.1927 8.01539 45.8281 7.93253L44.5355 7.64915C43.8229 7.48674 43.2959 7.22822 42.9545 6.87358C42.6165 6.51894 42.4474 6.06984 42.4474 5.52628C42.4474 5.07552 42.5734 4.68111 42.8253 4.34304C43.0772 4.00497 43.4252 3.74148 43.8693 3.55256C44.3134 3.36032 44.8222 3.2642 45.3956 3.2642C46.2209 3.2642 46.8705 3.44318 47.3445 3.80114C47.8184 4.15578 48.1316 4.63139 48.2841 5.22798ZM51.5542 6.46591V11H50.0676V3.36364H51.4945V4.60653H51.589C51.7646 4.20218 52.0397 3.87737 52.4142 3.6321C52.7921 3.38684 53.2677 3.2642 53.8411 3.2642C54.3614 3.2642 54.8172 3.37358 55.2083 3.59233C55.5994 3.80777 55.9026 4.12926 56.1181 4.55682C56.3335 4.98437 56.4412 5.51302 56.4412 6.14276V11H54.9547V6.32173C54.9547 5.76823 54.8105 5.3357 54.5222 5.02415C54.2338 4.70928 53.8378 4.55185 53.334 4.55185C52.9893 4.55185 52.6827 4.62642 52.4142 4.77557C52.1491 4.92472 51.9386 5.14347 51.7828 5.43182C51.6304 5.71686 51.5542 6.06155 51.5542 6.46591ZM61.6515 11.1541C60.9355 11.1541 60.3108 10.9901 59.7772 10.6619C59.2435 10.3338 58.8292 9.87476 58.5343 9.2848C58.2393 8.69484 58.0918 8.00544 58.0918 7.21662C58.0918 6.42448 58.2393 5.73177 58.5343 5.13849C58.8292 4.54522 59.2435 4.08452 59.7772 3.75639C60.3108 3.42827 60.9355 3.2642 61.6515 3.2642C62.3674 3.2642 62.9921 3.42827 63.5257 3.75639C64.0594 4.08452 64.4737 4.54522 64.7686 5.13849C65.0636 5.73177 65.2111 6.42448 65.2111 7.21662C65.2111 8.00544 65.0636 8.69484 64.7686 9.2848C64.4737 9.87476 64.0594 10.3338 63.5257 10.6619C62.9921 10.9901 62.3674 11.1541 61.6515 11.1541ZM61.6564 9.90625C62.1204 9.90625 62.5049 9.78362 62.8098 9.53835C63.1148 9.29309 63.3401 8.96662 63.486 8.55895C63.6351 8.15128 63.7097 7.70218 63.7097 7.21165C63.7097 6.72443 63.6351 6.27699 63.486 5.86932C63.3401 5.45833 63.1148 5.12855 62.8098 4.87997C62.5049 4.63139 62.1204 4.5071 61.6564 4.5071C61.1891 4.5071 60.8013 4.63139 60.4931 4.87997C60.1882 5.12855 59.9611 5.45833 59.812 5.86932C59.6661 6.27699 59.5932 6.72443 59.5932 7.21165C59.5932 7.70218 59.6661 8.15128 59.812 8.55895C59.9611 8.96662 60.1882 9.29309 60.4931 9.53835C60.8013 9.78362 61.1891 9.90625 61.6564 9.90625ZM70.087 11.1541C69.3711 11.1541 68.7463 10.9901 68.2127 10.6619C67.6791 10.3338 67.2648 9.87476 66.9698 9.2848C66.6748 8.69484 66.5273 8.00544 66.5273 7.21662C66.5273 6.42448 66.6748 5.73177 66.9698 5.13849C67.2648 4.54522 67.6791 4.08452 68.2127 3.75639C68.7463 3.42827 69.3711 3.2642 70.087 3.2642C70.8029 3.2642 71.4277 3.42827 71.9613 3.75639C72.4949 4.08452 72.9092 4.54522 73.2042 5.13849C73.4992 5.73177 73.6467 6.42448 73.6467 7.21662C73.6467 8.00544 73.4992 8.69484 73.2042 9.2848C72.9092 9.87476 72.4949 10.3338 71.9613 10.6619C71.4277 10.9901 70.8029 11.1541 70.087 11.1541ZM70.092 9.90625C70.556 9.90625 70.9405 9.78362 71.2454 9.53835C71.5503 9.29309 71.7757 8.96662 71.9215 8.55895C72.0707 8.15128 72.1452 7.70218 72.1452 7.21165C72.1452 6.72443 72.0707 6.27699 71.9215 5.86932C71.7757 5.45833 71.5503 5.12855 71.2454 4.87997C70.9405 4.63139 70.556 4.5071 70.092 4.5071C69.6246 4.5071 69.2369 4.63139 68.9286 4.87997C68.6237 5.12855 68.3967 5.45833 68.2475 5.86932C68.1017 6.27699 68.0288 6.72443 68.0288 7.21165C68.0288 7.70218 68.1017 8.15128 68.2475 8.55895C68.3967 8.96662 68.6237 9.29309 68.9286 9.53835C69.2369 9.78362 69.6246 9.90625 70.092 9.90625ZM75.1468 11V9.98082L79.2832 4.72585V4.65625H75.2811V3.36364H81.1376V4.44744L77.1603 9.63778V9.70739H81.2768V11H75.1468ZM86.103 11.1541C85.3506 11.1541 84.7027 10.9934 84.1591 10.6719C83.6188 10.3471 83.2012 9.89134 82.9062 9.30469C82.6146 8.71473 82.4688 8.02367 82.4688 7.23153C82.4688 6.44934 82.6146 5.75994 82.9062 5.16335C83.2012 4.56676 83.6122 4.10109 84.1392 3.76633C84.6695 3.43158 85.2893 3.2642 85.9986 3.2642C86.4295 3.2642 86.8471 3.33546 87.2514 3.47798C87.6558 3.6205 88.0187 3.84422 88.3402 4.14915C88.6617 4.45407 88.9152 4.85014 89.1009 5.33736C89.2865 5.82126 89.3793 6.40956 89.3793 7.10227V7.62926H83.3089V6.51562H87.9226C87.9226 6.12453 87.843 5.77817 87.6839 5.47656C87.5249 5.17164 87.3011 4.93134 87.0128 4.75568C86.7277 4.58002 86.393 4.49219 86.0085 4.49219C85.5909 4.49219 85.2263 4.59493 84.9148 4.80043C84.6065 5.0026 84.3679 5.26776 84.1989 5.59588C84.0331 5.92069 83.9503 6.27367 83.9503 6.65483V7.52486C83.9503 8.03527 84.0398 8.46946 84.2188 8.82741C84.401 9.18537 84.6546 9.45881 84.9794 9.64773C85.3042 9.83333 85.6837 9.92614 86.1179 9.92614C86.3996 9.92614 86.6565 9.88636 86.8885 9.80682C87.1205 9.72396 87.321 9.60133 87.4901 9.43892C87.6591 9.27652 87.7884 9.07599 87.8778 8.83736L89.2848 9.09091C89.1721 9.50521 88.9699 9.86813 88.6783 10.1797C88.3899 10.4879 88.027 10.7282 87.5895 10.9006C87.1553 11.0696 86.6598 11.1541 86.103 11.1541Z" fill="black"/>
</svg>
