<svg viewBox="0 0 86 12" fill="none" stroke-width="2" stroke="currentColor" aria-hidden="true">
  <path d="M4.21591 11.1541C3.4768 11.1541 2.84044 10.9867 2.30682 10.652C1.77652 10.3139 1.36884 9.84825 1.08381 9.25497C0.798769 8.66169 0.65625 7.98224 0.65625 7.21662C0.65625 6.44105 0.802083 5.75663 1.09375 5.16335C1.38542 4.56676 1.7964 4.10109 2.3267 3.76633C2.85701 3.43158 3.48177 3.2642 4.20099 3.2642C4.78101 3.2642 5.29806 3.37192 5.75213 3.58736C6.2062 3.79948 6.57244 4.09777 6.85085 4.48224C7.13258 4.86671 7.29995 5.31581 7.35298 5.82955H5.90625C5.8267 5.47159 5.64441 5.16335 5.35938 4.90483C5.07765 4.64631 4.69981 4.51705 4.22585 4.51705C3.81155 4.51705 3.44863 4.62642 3.13707 4.84517C2.82884 5.06061 2.58854 5.36884 2.41619 5.76989C2.24384 6.16761 2.15767 6.63826 2.15767 7.18182C2.15767 7.73864 2.24219 8.21922 2.41122 8.62358C2.58026 9.02794 2.81889 9.34115 3.12713 9.56321C3.43868 9.78527 3.80492 9.89631 4.22585 9.89631C4.50758 9.89631 4.76278 9.84493 4.99148 9.74219C5.22349 9.63613 5.41738 9.48532 5.57315 9.28977C5.73224 9.09422 5.84328 8.8589 5.90625 8.58381H7.35298C7.29995 9.07765 7.1392 9.51847 6.87074 9.90625C6.60227 10.294 6.24266 10.599 5.7919 10.821C5.34446 11.0431 4.81913 11.1541 4.21591 11.1541ZM10.4292 0.818182V11H8.94265V0.818182H10.4292ZM15.6456 11.1541C14.9297 11.1541 14.3049 10.9901 13.7713 10.6619C13.2377 10.3338 12.8234 9.87476 12.5284 9.2848C12.2334 8.69484 12.0859 8.00544 12.0859 7.21662C12.0859 6.42448 12.2334 5.73177 12.5284 5.13849C12.8234 4.54522 13.2377 4.08452 13.7713 3.75639C14.3049 3.42827 14.9297 3.2642 15.6456 3.2642C16.3615 3.2642 16.9863 3.42827 17.5199 3.75639C18.0535 4.08452 18.4678 4.54522 18.7628 5.13849C19.0578 5.73177 19.2053 6.42448 19.2053 7.21662C19.2053 8.00544 19.0578 8.69484 18.7628 9.2848C18.4678 9.87476 18.0535 10.3338 17.5199 10.6619C16.9863 10.9901 16.3615 11.1541 15.6456 11.1541ZM15.6506 9.90625C16.1146 9.90625 16.4991 9.78362 16.804 9.53835C17.1089 9.29309 17.3343 8.96662 17.4801 8.55895C17.6293 8.15128 17.7038 7.70218 17.7038 7.21165C17.7038 6.72443 17.6293 6.27699 17.4801 5.86932C17.3343 5.45833 17.1089 5.12855 16.804 4.87997C16.4991 4.63139 16.1146 4.5071 15.6506 4.5071C15.1832 4.5071 14.7955 4.63139 14.4872 4.87997C14.1823 5.12855 13.9553 5.45833 13.8061 5.86932C13.6603 6.27699 13.5874 6.72443 13.5874 7.21165C13.5874 7.70218 13.6603 8.15128 13.8061 8.55895C13.9553 8.96662 14.1823 9.29309 14.4872 9.53835C14.7955 9.78362 15.1832 9.90625 15.6506 9.90625ZM24.0811 11.1541C23.342 11.1541 22.7057 10.9867 22.1721 10.652C21.6417 10.3139 21.2341 9.84825 20.949 9.25497C20.664 8.66169 20.5215 7.98224 20.5215 7.21662C20.5215 6.44105 20.6673 5.75663 20.959 5.16335C21.2507 4.56676 21.6616 4.10109 22.1919 3.76633C22.7222 3.43158 23.347 3.2642 24.0662 3.2642C24.6462 3.2642 25.1633 3.37192 25.6174 3.58736C26.0714 3.79948 26.4377 4.09777 26.7161 4.48224C26.9978 4.86671 27.1652 5.31581 27.2182 5.82955H25.7715C25.6919 5.47159 25.5096 5.16335 25.2246 4.90483C24.9429 4.64631 24.565 4.51705 24.0911 4.51705C23.6768 4.51705 23.3139 4.62642 23.0023 4.84517C22.6941 5.06061 22.4538 5.36884 22.2814 5.76989C22.1091 6.16761 22.0229 6.63826 22.0229 7.18182C22.0229 7.73864 22.1074 8.21922 22.2765 8.62358C22.4455 9.02794 22.6841 9.34115 22.9924 9.56321C23.3039 9.78527 23.6702 9.89631 24.0911 9.89631C24.3728 9.89631 24.628 9.84493 24.8567 9.74219C25.0887 9.63613 25.2826 9.48532 25.4384 9.28977C25.5975 9.09422 25.7085 8.8589 25.7715 8.58381H27.2182C27.1652 9.07765 27.0044 9.51847 26.736 9.90625C26.4675 10.294 26.1079 10.599 25.6571 10.821C25.2097 11.0431 24.6844 11.1541 24.0811 11.1541ZM30.1751 8.4098L30.1651 6.59517H30.4237L33.4663 3.36364H35.2461L31.7759 7.04261H31.5423L30.1751 8.4098ZM28.8079 11V0.818182H30.2944V11H28.8079ZM33.6303 11L30.896 7.37074L31.9201 6.33168L35.4549 11H33.6303ZM40.5806 6.05327V7.34091H36.0664V6.05327H40.5806ZM42.5618 11V3.36364H43.9986V4.5767H44.0781C44.2173 4.16572 44.4626 3.84257 44.8139 3.60724C45.1686 3.36861 45.5696 3.24929 46.017 3.24929C46.1098 3.24929 46.2192 3.2526 46.3452 3.25923C46.4744 3.26586 46.5755 3.27415 46.6484 3.28409V4.70597C46.5888 4.68939 46.4827 4.67116 46.3303 4.65128C46.1778 4.62808 46.0253 4.61648 45.8729 4.61648C45.5215 4.61648 45.2083 4.69105 44.9332 4.8402C44.6615 4.98603 44.446 5.18987 44.2869 5.4517C44.1278 5.71023 44.0483 6.00521 44.0483 6.33665V11H42.5618ZM50.9526 11.1541C50.2002 11.1541 49.5523 10.9934 49.0087 10.6719C48.4685 10.3471 48.0508 9.89134 47.7559 9.30469C47.4642 8.71473 47.3184 8.02367 47.3184 7.23153C47.3184 6.44934 47.4642 5.75994 47.7559 5.16335C48.0508 4.56676 48.4618 4.10109 48.9888 3.76633C49.5191 3.43158 50.1389 3.2642 50.8482 3.2642C51.2791 3.2642 51.6967 3.33546 52.101 3.47798C52.5054 3.6205 52.8683 3.84422 53.1898 4.14915C53.5113 4.45407 53.7649 4.85014 53.9505 5.33736C54.1361 5.82126 54.2289 6.40956 54.2289 7.10227V7.62926H48.1586V6.51562H52.7722C52.7722 6.12453 52.6926 5.77817 52.5336 5.47656C52.3745 5.17164 52.1507 4.93134 51.8624 4.75568C51.5774 4.58002 51.2426 4.49219 50.8581 4.49219C50.4405 4.49219 50.0759 4.59493 49.7644 4.80043C49.4561 5.0026 49.2175 5.26776 49.0485 5.59588C48.8828 5.92069 48.7999 6.27367 48.7999 6.65483V7.52486C48.7999 8.03527 48.8894 8.46946 49.0684 8.82741C49.2507 9.18537 49.5042 9.45881 49.829 9.64773C50.1538 9.83333 50.5333 9.92614 50.9675 9.92614C51.2492 9.92614 51.5061 9.88636 51.7381 9.80682C51.9701 9.72396 52.1706 9.60133 52.3397 9.43892C52.5087 9.27652 52.638 9.07599 52.7275 8.83736L54.1344 9.09091C54.0217 9.50521 53.8195 9.86813 53.5279 10.1797C53.2395 10.4879 52.8766 10.7282 52.4391 10.9006C52.0049 11.0696 51.5094 11.1541 50.9526 11.1541ZM57.5201 11L55.2729 3.36364H56.8091L58.3056 8.97159H58.3801L59.8816 3.36364H61.4178L62.9093 8.94673H62.9838L64.4703 3.36364H66.0066L63.7644 11H62.248L60.6969 5.48651H60.5826L59.0314 11H57.5201ZM67.4173 11V3.36364H68.9038V11H67.4173ZM68.168 2.18537C67.9094 2.18537 67.6874 2.09919 67.5018 1.92685C67.3195 1.75118 67.2283 1.54238 67.2283 1.30043C67.2283 1.05516 67.3195 0.846354 67.5018 0.674005C67.6874 0.498342 67.9094 0.410511 68.168 0.410511C68.4265 0.410511 68.6469 0.498342 68.8292 0.674005C69.0148 0.846354 69.1076 1.05516 69.1076 1.30043C69.1076 1.54238 69.0148 1.75118 68.8292 1.92685C68.6469 2.09919 68.4265 2.18537 68.168 2.18537ZM72.3901 6.46591V11H70.9036V3.36364H72.3304V4.60653H72.4249C72.6006 4.20218 72.8757 3.87737 73.2502 3.6321C73.628 3.38684 74.1036 3.2642 74.677 3.2642C75.1974 3.2642 75.6531 3.37358 76.0442 3.59233C76.4353 3.80777 76.7386 4.12926 76.954 4.55682C77.1694 4.98437 77.2772 5.51302 77.2772 6.14276V11H75.7907V6.32173C75.7907 5.76823 75.6465 5.3357 75.3581 5.02415C75.0698 4.70928 74.6737 4.55185 74.1699 4.55185C73.8252 4.55185 73.5186 4.62642 73.2502 4.77557C72.985 4.92472 72.7746 5.14347 72.6188 5.43182C72.4663 5.71686 72.3901 6.06155 72.3901 6.46591ZM82.1294 11.1491C81.513 11.1491 80.9628 10.9917 80.4789 10.6768C79.9983 10.3587 79.6204 9.90625 79.3453 9.3196C79.0736 8.72964 78.9377 8.02202 78.9377 7.19673C78.9377 6.37145 79.0752 5.66548 79.3503 5.07884C79.6287 4.49219 80.0099 4.04309 80.4938 3.73153C80.9777 3.41998 81.5262 3.2642 82.1394 3.2642C82.6133 3.2642 82.9945 3.34375 83.2828 3.50284C83.5745 3.65862 83.7999 3.84091 83.959 4.04972C84.1214 4.25852 84.2473 4.44247 84.3368 4.60156H84.4263V0.818182H85.9128V11H84.4611V9.81179H84.3368C84.2473 9.9742 84.1181 10.1598 83.949 10.3686C83.7833 10.5774 83.5546 10.7597 83.263 10.9155C82.9713 11.0713 82.5935 11.1491 82.1294 11.1491ZM82.4576 9.88139C82.8851 9.88139 83.2464 9.7687 83.5414 9.54332C83.8397 9.31463 84.065 8.99811 84.2175 8.59375C84.3733 8.18939 84.4512 7.71875 84.4512 7.18182C84.4512 6.65151 84.3749 6.1875 84.2225 5.78977C84.07 5.39205 83.8463 5.08215 83.5513 4.86009C83.2563 4.63802 82.8917 4.52699 82.4576 4.52699C82.0101 4.52699 81.6373 4.64299 81.339 4.875C81.0407 5.10701 80.8153 5.42353 80.6628 5.82457C80.5137 6.22562 80.4391 6.67803 80.4391 7.18182C80.4391 7.69223 80.5153 8.15128 80.6678 8.55895C80.8203 8.96662 81.0456 9.28977 81.3439 9.52841C81.6455 9.76373 82.0167 9.88139 82.4576 9.88139Z" fill="black"/>
</svg>
