<svg width="58" height="15" viewBox="0 0 58 15" fill="none" xmlns="http://www.w3.org/2000/svg">
<path d="M4.20099 14.0227C3.59446 14.0227 3.07244 13.9432 2.63494 13.7841C2.20076 13.625 1.84612 13.4145 1.57102 13.1527C1.29593 12.8909 1.09044 12.6042 0.954545 12.2926L2.23224 11.7656C2.32173 11.9115 2.44105 12.0656 2.5902 12.228C2.74266 12.3937 2.94815 12.5346 3.20668 12.6506C3.46851 12.7666 3.80492 12.8246 4.21591 12.8246C4.77936 12.8246 5.24503 12.687 5.61293 12.4119C5.98082 12.1402 6.16477 11.706 6.16477 11.1094V9.60795H6.07031C5.98082 9.77036 5.85156 9.95099 5.68253 10.1499C5.51681 10.3487 5.28812 10.5211 4.99645 10.6669C4.70478 10.8127 4.32528 10.8857 3.85795 10.8857C3.25473 10.8857 2.71117 10.7448 2.22727 10.4631C1.74669 10.178 1.36553 9.75876 1.08381 9.20526C0.805398 8.64844 0.666193 7.96401 0.666193 7.15199C0.666193 6.33996 0.803741 5.64394 1.07884 5.06392C1.35724 4.4839 1.7384 4.03977 2.2223 3.73153C2.7062 3.41998 3.25473 3.2642 3.8679 3.2642C4.34186 3.2642 4.72467 3.34375 5.01634 3.50284C5.308 3.65862 5.53504 3.84091 5.69744 4.04972C5.86316 4.25852 5.99077 4.44247 6.08026 4.60156H6.18963V3.36364H7.64631V11.169C7.64631 11.8253 7.49385 12.3639 7.18892 12.7848C6.884 13.2057 6.47135 13.5173 5.95099 13.7195C5.43395 13.9216 4.85062 14.0227 4.20099 14.0227ZM4.18608 9.6527C4.61364 9.6527 4.97491 9.55327 5.26989 9.3544C5.56818 9.15223 5.79356 8.86387 5.94602 8.48935C6.1018 8.11151 6.17969 7.65909 6.17969 7.1321C6.17969 6.61837 6.10346 6.16596 5.95099 5.77486C5.79853 5.38376 5.57481 5.07884 5.27983 4.86009C4.98485 4.63802 4.62027 4.52699 4.18608 4.52699C3.73864 4.52699 3.36577 4.64299 3.06747 4.875C2.76918 5.10369 2.5438 5.41525 2.39134 5.80966C2.24219 6.20407 2.16761 6.64489 2.16761 7.1321C2.16761 7.63258 2.24384 8.07173 2.39631 8.44957C2.54877 8.82741 2.77415 9.1224 3.07244 9.33452C3.37405 9.54664 3.74527 9.6527 4.18608 9.6527ZM11.1264 0.818182V11H9.63991V0.818182H11.1264ZM16.3429 11.1541C15.627 11.1541 15.0022 10.9901 14.4686 10.6619C13.935 10.3338 13.5207 9.87476 13.2257 9.2848C12.9307 8.69484 12.7832 8.00544 12.7832 7.21662C12.7832 6.42448 12.9307 5.73177 13.2257 5.13849C13.5207 4.54522 13.935 4.08452 14.4686 3.75639C15.0022 3.42827 15.627 3.2642 16.3429 3.2642C17.0588 3.2642 17.6835 3.42827 18.2172 3.75639C18.7508 4.08452 19.1651 4.54522 19.46 5.13849C19.755 5.73177 19.9025 6.42448 19.9025 7.21662C19.9025 8.00544 19.755 8.69484 19.46 9.2848C19.1651 9.87476 18.7508 10.3338 18.2172 10.6619C17.6835 10.9901 17.0588 11.1541 16.3429 11.1541ZM16.3478 9.90625C16.8118 9.90625 17.1963 9.78362 17.5012 9.53835C17.8062 9.29309 18.0315 8.96662 18.1774 8.55895C18.3265 8.15128 18.4011 7.70218 18.4011 7.21165C18.4011 6.72443 18.3265 6.27699 18.1774 5.86932C18.0315 5.45833 17.8062 5.12855 17.5012 4.87997C17.1963 4.63139 16.8118 4.5071 16.3478 4.5071C15.8805 4.5071 15.4927 4.63139 15.1845 4.87997C14.8796 5.12855 14.6525 5.45833 14.5034 5.86932C14.3575 6.27699 14.2846 6.72443 14.2846 7.21165C14.2846 7.70218 14.3575 8.15128 14.5034 8.55895C14.6525 8.96662 14.8796 9.29309 15.1845 9.53835C15.4927 9.78362 15.8805 9.90625 16.3478 9.90625ZM21.6811 11V0.818182H23.1676V4.60156H23.2571C23.3433 4.44247 23.4676 4.25852 23.63 4.04972C23.7924 3.84091 24.0178 3.65862 24.3061 3.50284C24.5945 3.34375 24.9756 3.2642 25.4496 3.2642C26.0661 3.2642 26.6162 3.41998 27.1001 3.73153C27.584 4.04309 27.9635 4.49219 28.2386 5.07884C28.517 5.66548 28.6562 6.37145 28.6562 7.19673C28.6562 8.02202 28.5187 8.72964 28.2436 9.3196C27.9685 9.90625 27.5907 10.3587 27.1101 10.6768C26.6295 10.9917 26.081 11.1491 25.4645 11.1491C25.0005 11.1491 24.621 11.0713 24.326 10.9155C24.0343 10.7597 23.8056 10.5774 23.6399 10.3686C23.4742 10.1598 23.3466 9.9742 23.2571 9.81179H23.1328V11H21.6811ZM23.1378 7.18182C23.1378 7.71875 23.2157 8.18939 23.3714 8.59375C23.5272 8.99811 23.7526 9.31463 24.0476 9.54332C24.3426 9.7687 24.7038 9.88139 25.1314 9.88139C25.5755 9.88139 25.9467 9.76373 26.245 9.52841C26.5433 9.28977 26.7687 8.96662 26.9212 8.55895C27.0769 8.15128 27.1548 7.69223 27.1548 7.18182C27.1548 6.67803 27.0786 6.22562 26.9261 5.82457C26.777 5.42353 26.5516 5.10701 26.25 4.875C25.9517 4.64299 25.5788 4.52699 25.1314 4.52699C24.7005 4.52699 24.3359 4.63802 24.0376 4.86009C23.7427 5.08215 23.5189 5.39205 23.3665 5.78977C23.214 6.1875 23.1378 6.65151 23.1378 7.18182ZM33.6167 11.1541C32.8643 11.1541 32.2163 10.9934 31.6728 10.6719C31.1325 10.3471 30.7149 9.89134 30.4199 9.30469C30.1283 8.71473 29.9824 8.02367 29.9824 7.23153C29.9824 6.44934 30.1283 5.75994 30.4199 5.16335C30.7149 4.56676 31.1259 4.10109 31.6529 3.76633C32.1832 3.43158 32.803 3.2642 33.5123 3.2642C33.9431 3.2642 34.3607 3.33546 34.7651 3.47798C35.1694 3.6205 35.5324 3.84422 35.8539 4.14915C36.1754 4.45407 36.4289 4.85014 36.6145 5.33736C36.8001 5.82126 36.8929 6.40956 36.8929 7.10227V7.62926H30.8226V6.51562H35.4363C35.4363 6.12453 35.3567 5.77817 35.1976 5.47656C35.0385 5.17164 34.8148 4.93134 34.5265 4.75568C34.2414 4.58002 33.9067 4.49219 33.5222 4.49219C33.1046 4.49219 32.74 4.59493 32.4284 4.80043C32.1202 5.0026 31.8816 5.26776 31.7125 5.59588C31.5468 5.92069 31.464 6.27367 31.464 6.65483V7.52486C31.464 8.03527 31.5534 8.46946 31.7324 8.82741C31.9147 9.18537 32.1683 9.45881 32.4931 9.64773C32.8179 9.83333 33.1974 9.92614 33.6316 9.92614C33.9133 9.92614 34.1702 9.88636 34.4022 9.80682C34.6342 9.72396 34.8347 9.60133 35.0037 9.43892C35.1728 9.27652 35.302 9.07599 35.3915 8.83736L36.7985 9.09091C36.6858 9.50521 36.4836 9.86813 36.1919 10.1797C35.9036 10.4879 35.5407 10.7282 35.1032 10.9006C34.669 11.0696 34.1735 11.1541 33.6167 11.1541ZM43.0415 6.05327V7.34091H38.5273V6.05327H43.0415ZM48.5476 11.169C47.7621 11.1657 47.0909 10.9586 46.5341 10.5476C45.9773 10.1366 45.5514 9.53835 45.2564 8.75284C44.9614 7.96733 44.8139 7.02107 44.8139 5.91406C44.8139 4.81037 44.9614 3.86742 45.2564 3.08523C45.5547 2.30303 45.9822 1.70644 46.5391 1.29545C47.0992 0.884469 47.7687 0.678977 48.5476 0.678977C49.3265 0.678977 49.9943 0.886126 50.5511 1.30043C51.108 1.71141 51.5339 2.308 51.8288 3.0902C52.1271 3.86908 52.2763 4.81037 52.2763 5.91406C52.2763 7.02438 52.1288 7.9723 51.8338 8.75781C51.5388 9.54001 51.1129 10.1383 50.5561 10.5526C49.9993 10.9635 49.3298 11.169 48.5476 11.169ZM48.5476 9.84162C49.237 9.84162 49.7756 9.50521 50.1634 8.83239C50.5545 8.15956 50.75 7.18679 50.75 5.91406C50.75 5.06889 50.6605 4.35464 50.4815 3.77131C50.3059 3.18466 50.0523 2.74053 49.7209 2.43892C49.3928 2.134 49.0017 1.98153 48.5476 1.98153C47.8615 1.98153 47.3229 2.3196 46.9318 2.99574C46.5407 3.67187 46.3435 4.64465 46.3402 5.91406C46.3402 6.76255 46.428 7.48011 46.6037 8.06676C46.7827 8.65009 47.0362 9.09257 47.3643 9.39418C47.6925 9.69247 48.0869 9.84162 48.5476 9.84162ZM57.9029 0.818182V11H56.3617V2.35938H56.302L53.8659 3.95028V2.47869L56.4064 0.818182H57.9029Z" fill="black"/>
</svg>
