<svg width="58" height="12" viewBox="0 0 58 12" fill="none" xmlns="http://www.w3.org/2000/svg">
<path d="M4.56392 3.36364V4.55682H0.392756V3.36364H4.56392ZM1.51136 1.53409H2.99787V8.75781C2.99787 9.04616 3.04096 9.26326 3.12713 9.40909C3.21331 9.55161 3.32434 9.64938 3.46023 9.70241C3.59943 9.75213 3.75024 9.77699 3.91264 9.77699C4.03196 9.77699 4.13636 9.7687 4.22585 9.75213C4.31534 9.73556 4.38494 9.7223 4.43466 9.71236L4.70312 10.9403C4.61695 10.9735 4.49432 11.0066 4.33523 11.0398C4.17614 11.0762 3.97727 11.0961 3.73864 11.0994C3.34754 11.1061 2.98295 11.0365 2.64489 10.8906C2.30682 10.7448 2.03338 10.5194 1.82457 10.2145C1.61577 9.90956 1.51136 9.52675 1.51136 9.06605V1.53409ZM6.20827 11V3.36364H7.64506V4.5767H7.72461C7.86381 4.16572 8.10908 3.84257 8.4604 3.60724C8.81505 3.36861 9.21609 3.24929 9.66353 3.24929C9.75633 3.24929 9.86571 3.2526 9.99166 3.25923C10.1209 3.26586 10.222 3.27415 10.2949 3.28409V4.70597C10.2353 4.68939 10.1292 4.67116 9.97674 4.65128C9.82428 4.62808 9.67182 4.61648 9.51935 4.61648C9.16803 4.61648 8.85482 4.69105 8.57972 4.8402C8.30794 4.98603 8.09251 5.18987 7.93342 5.4517C7.77433 5.71023 7.69478 6.00521 7.69478 6.33665V11H6.20827ZM16.4187 7.8331V3.36364H17.9102V11H16.4485V9.67756H16.369C16.1933 10.0852 15.9116 10.425 15.5238 10.6967C15.1393 10.9652 14.6604 11.0994 14.087 11.0994C13.5965 11.0994 13.1623 10.9917 12.7844 10.7763C12.4099 10.5575 12.1149 10.2344 11.8995 9.80682C11.6874 9.37926 11.5813 8.85062 11.5813 8.22088V3.36364H13.0678V8.0419C13.0678 8.56226 13.212 8.97656 13.5004 9.2848C13.7887 9.59304 14.1632 9.74716 14.6239 9.74716C14.9023 9.74716 15.1791 9.67756 15.4542 9.53835C15.7326 9.39915 15.9629 9.18868 16.1452 8.90696C16.3308 8.62524 16.422 8.26728 16.4187 7.8331ZM23.1241 11.1541C22.385 11.1541 21.7486 10.9867 21.215 10.652C20.6847 10.3139 20.277 9.84825 19.992 9.25497C19.707 8.66169 19.5645 7.98224 19.5645 7.21662C19.5645 6.44105 19.7103 5.75663 20.002 5.16335C20.2936 4.56676 20.7046 4.10109 21.2349 3.76633C21.7652 3.43158 22.39 3.2642 23.1092 3.2642C23.6892 3.2642 24.2063 3.37192 24.6603 3.58736C25.1144 3.79948 25.4806 4.09777 25.7591 4.48224C26.0408 4.86671 26.2082 5.31581 26.2612 5.82955H24.8145C24.7349 5.47159 24.5526 5.16335 24.2676 4.90483C23.9859 4.64631 23.608 4.51705 23.1341 4.51705C22.7198 4.51705 22.3568 4.62642 22.0453 4.84517C21.737 5.06061 21.4967 5.36884 21.3244 5.76989C21.152 6.16761 21.0659 6.63826 21.0659 7.18182C21.0659 7.73864 21.1504 8.21922 21.3194 8.62358C21.4885 9.02794 21.7271 9.34115 22.0353 9.56321C22.3469 9.78527 22.7131 9.89631 23.1341 9.89631C23.4158 9.89631 23.671 9.84493 23.8997 9.74219C24.1317 9.63613 24.3256 9.48532 24.4814 9.28977C24.6404 9.09422 24.7515 8.8589 24.8145 8.58381H26.2612C26.2082 9.07765 26.0474 9.51847 25.7789 9.90625C25.5105 10.294 25.1509 10.599 24.7001 10.821C24.2527 11.0431 23.7273 11.1541 23.1241 11.1541ZM29.218 8.4098L29.2081 6.59517H29.4666L32.5092 3.36364H34.2891L30.8189 7.04261H30.5852L29.218 8.4098ZM27.8509 11V0.818182H29.3374V11H27.8509ZM32.6733 11L29.9389 7.37074L30.9631 6.33168L34.4979 11H32.6733ZM39.6236 6.05327V7.34091H35.1094V6.05327H39.6236ZM45.1296 11.169C44.3441 11.1657 43.6729 10.9586 43.1161 10.5476C42.5593 10.1366 42.1334 9.53835 41.8384 8.75284C41.5434 7.96733 41.396 7.02107 41.396 5.91406C41.396 4.81037 41.5434 3.86742 41.8384 3.08523C42.1367 2.30303 42.5643 1.70644 43.1211 1.29545C43.6812 0.884469 44.3507 0.678977 45.1296 0.678977C45.9085 0.678977 46.5763 0.886126 47.1332 1.30043C47.69 1.71141 48.1159 2.308 48.4109 3.0902C48.7092 3.86908 48.8583 4.81037 48.8583 5.91406C48.8583 7.02438 48.7108 7.9723 48.4158 8.75781C48.1209 9.54001 47.695 10.1383 47.1381 10.5526C46.5813 10.9635 45.9118 11.169 45.1296 11.169ZM45.1296 9.84162C45.819 9.84162 46.3576 9.50521 46.7454 8.83239C47.1365 8.15956 47.332 7.18679 47.332 5.91406C47.332 5.06889 47.2425 4.35464 47.0636 3.77131C46.8879 3.18466 46.6344 2.74053 46.3029 2.43892C45.9748 2.134 45.5837 1.98153 45.1296 1.98153C44.4435 1.98153 43.9049 2.3196 43.5138 2.99574C43.1228 3.67187 42.9255 4.64465 42.9222 5.91406C42.9222 6.76255 43.0101 7.48011 43.1857 8.06676C43.3647 8.65009 43.6183 9.09257 43.9464 9.39418C44.2745 9.69247 44.6689 9.84162 45.1296 9.84162ZM50.622 11V9.88636L54.0673 6.31676C54.4352 5.92898 54.7385 5.58925 54.9771 5.29759C55.219 5.0026 55.3997 4.72254 55.519 4.45739C55.6383 4.19223 55.698 3.91051 55.698 3.61222C55.698 3.27415 55.6184 2.98248 55.4593 2.73722C55.3002 2.48864 55.0832 2.29806 54.8081 2.16548C54.533 2.02959 54.2231 1.96165 53.8784 1.96165C53.5138 1.96165 53.1956 2.03622 52.9238 2.18537C52.652 2.33452 52.4432 2.54498 52.2974 2.81676C52.1516 3.08854 52.0787 3.40672 52.0787 3.77131H50.612C50.612 3.15151 50.7546 2.60961 51.0396 2.1456C51.3246 1.68158 51.7157 1.32197 52.2129 1.06676C52.71 0.808238 53.2752 0.678977 53.9082 0.678977C54.5479 0.678977 55.1113 0.806581 55.5985 1.06179C56.0891 1.31368 56.4719 1.65838 56.747 2.09588C57.0221 2.53007 57.1596 3.0206 57.1596 3.56747C57.1596 3.94531 57.0884 4.31487 56.9458 4.67614C56.8066 5.0374 56.563 5.4401 56.215 5.88423C55.867 6.32505 55.3831 6.86032 54.7633 7.49006L52.7399 9.60795V9.68253H57.3237V11H50.622Z" fill="black"/>
</svg>
