<svg width="96" height="14" viewBox="0 0 96 14" fill="none" xmlns="http://www.w3.org/2000/svg">
<path d="M-0.000710189 11V3.36364H1.42614V4.60653H1.5206C1.67969 4.18561 1.93987 3.85748 2.30114 3.62216C2.66241 3.38352 3.09493 3.2642 3.59872 3.2642C4.10914 3.2642 4.5367 3.38352 4.88139 3.62216C5.2294 3.8608 5.48627 4.18892 5.65199 4.60653H5.73153C5.91383 4.19886 6.20384 3.87405 6.60156 3.6321C6.99929 3.38684 7.47325 3.2642 8.02344 3.2642C8.71615 3.2642 9.28125 3.4813 9.71875 3.91548C10.1596 4.34967 10.38 5.00426 10.38 5.87926V11H8.89347V6.01847C8.89347 5.50142 8.7526 5.12689 8.47088 4.89489C8.18916 4.66288 7.85275 4.54688 7.46165 4.54688C6.97775 4.54688 6.60156 4.69602 6.3331 4.99432C6.06463 5.2893 5.9304 5.6688 5.9304 6.13281V11H4.44886V5.92401C4.44886 5.50971 4.3196 5.17661 4.06108 4.92472C3.80256 4.67282 3.46615 4.54688 3.05185 4.54688C2.77012 4.54688 2.50994 4.62145 2.27131 4.7706C2.03599 4.91643 1.84541 5.12026 1.69957 5.3821C1.55706 5.64394 1.4858 5.94721 1.4858 6.2919V11H-0.000710189ZM14.5946 11.169C14.1107 11.169 13.6732 11.0795 13.2821 10.9006C12.891 10.7183 12.5811 10.4548 12.3525 10.1101C12.1271 9.76539 12.0144 9.3428 12.0144 8.84233C12.0144 8.41146 12.0972 8.05682 12.263 7.77841C12.4287 7.5 12.6524 7.27959 12.9341 7.11719C13.2158 6.95478 13.5307 6.83215 13.8787 6.74929C14.2267 6.66643 14.5814 6.60346 14.9426 6.56037C15.4 6.50734 15.7712 6.46425 16.0563 6.43111C16.3413 6.39465 16.5485 6.33665 16.6777 6.2571C16.807 6.17756 16.8716 6.0483 16.8716 5.86932V5.83452C16.8716 5.40033 16.749 5.06392 16.5037 4.82528C16.2618 4.58665 15.9005 4.46733 15.4199 4.46733C14.9194 4.46733 14.525 4.57836 14.2367 4.80043C13.9516 5.01918 13.7544 5.26278 13.6451 5.53125L12.248 5.21307C12.4138 4.74905 12.6557 4.37453 12.9739 4.08949C13.2954 3.80114 13.665 3.59233 14.0826 3.46307C14.5002 3.33049 14.9393 3.2642 15.4 3.2642C15.705 3.2642 16.0281 3.30066 16.3695 3.37358C16.7142 3.44318 17.0357 3.57244 17.334 3.76136C17.6356 3.95028 17.8825 4.22041 18.0748 4.57173C18.267 4.91974 18.3631 5.37216 18.3631 5.92898V11H16.9114V9.95597H16.8517C16.7556 10.1482 16.6114 10.3371 16.4192 10.5227C16.227 10.7083 15.9801 10.8625 15.6784 10.9851C15.3768 11.1077 15.0156 11.169 14.5946 11.169ZM14.9178 9.97585C15.3288 9.97585 15.6801 9.89465 15.9718 9.73224C16.2667 9.56984 16.4905 9.35772 16.6429 9.09588C16.7987 8.83073 16.8766 8.54735 16.8766 8.24574V7.26136C16.8236 7.31439 16.7208 7.36411 16.5684 7.41051C16.4192 7.4536 16.2485 7.49171 16.0563 7.52486C15.8641 7.55469 15.6768 7.58286 15.4945 7.60938C15.3122 7.63258 15.1597 7.65246 15.0371 7.66903C14.7488 7.70549 14.4853 7.76681 14.2466 7.85298C14.0113 7.93916 13.8224 8.06345 13.6799 8.22585C13.5407 8.38494 13.4711 8.59706 13.4711 8.86222C13.4711 9.23011 13.6069 9.50852 13.8787 9.69744C14.1505 9.88305 14.4969 9.97585 14.9178 9.97585ZM20.343 11V3.36364H21.7798V4.5767H21.8594C21.9986 4.16572 22.2438 3.84257 22.5952 3.60724C22.9498 3.36861 23.3509 3.24929 23.7983 3.24929C23.8911 3.24929 24.0005 3.2526 24.1264 3.25923C24.2557 3.26586 24.3568 3.27415 24.4297 3.28409V4.70597C24.37 4.68939 24.264 4.67116 24.1115 4.65128C23.959 4.62808 23.8066 4.61648 23.6541 4.61648C23.3028 4.61648 22.9896 4.69105 22.7145 4.8402C22.4427 4.98603 22.2273 5.18987 22.0682 5.4517C21.9091 5.71023 21.8295 6.00521 21.8295 6.33665V11H20.343ZM27.0833 8.4098L27.0733 6.59517H27.3319L30.3745 3.36364H32.1543L28.6841 7.04261H28.4505L27.0833 8.4098ZM25.7161 11V0.818182H27.2026V11H25.7161ZM30.5385 11L27.8042 7.37074L28.8283 6.33168L32.3631 11H30.5385ZM36.4858 11.1541C35.7334 11.1541 35.0855 10.9934 34.5419 10.6719C34.0017 10.3471 33.584 9.89134 33.2891 9.30469C32.9974 8.71473 32.8516 8.02367 32.8516 7.23153C32.8516 6.44934 32.9974 5.75994 33.2891 5.16335C33.584 4.56676 33.995 4.10109 34.522 3.76633C35.0523 3.43158 35.6721 3.2642 36.3814 3.2642C36.8123 3.2642 37.2299 3.33546 37.6342 3.47798C38.0386 3.6205 38.4015 3.84422 38.723 4.14915C39.0445 4.45407 39.2981 4.85014 39.4837 5.33736C39.6693 5.82126 39.7621 6.40956 39.7621 7.10227V7.62926H33.6918V6.51562H38.3054C38.3054 6.12453 38.2259 5.77817 38.0668 5.47656C37.9077 5.17164 37.6839 4.93134 37.3956 4.75568C37.1106 4.58002 36.7758 4.49219 36.3913 4.49219C35.9737 4.49219 35.6091 4.59493 35.2976 4.80043C34.9893 5.0026 34.7507 5.26776 34.5817 5.59588C34.416 5.92069 34.3331 6.27367 34.3331 6.65483V7.52486C34.3331 8.03527 34.4226 8.46946 34.6016 8.82741C34.7839 9.18537 35.0374 9.45881 35.3622 9.64773C35.687 9.83333 36.0665 9.92614 36.5007 9.92614C36.7824 9.92614 37.0393 9.88636 37.2713 9.80682C37.5033 9.72396 37.7038 9.60133 37.8729 9.43892C38.0419 9.27652 38.1712 9.07599 38.2607 8.83736L39.6676 9.09091C39.5549 9.50521 39.3527 9.86813 39.0611 10.1797C38.7727 10.4879 38.4098 10.7282 37.9723 10.9006C37.5381 11.0696 37.0426 11.1541 36.4858 11.1541ZM41.4114 11V3.36364H42.8482V4.5767H42.9277C43.0669 4.16572 43.3122 3.84257 43.6635 3.60724C44.0182 3.36861 44.4192 3.24929 44.8667 3.24929C44.9595 3.24929 45.0688 3.2526 45.1948 3.25923C45.324 3.26586 45.4251 3.27415 45.498 3.28409V4.70597C45.4384 4.68939 45.3323 4.67116 45.1799 4.65128C45.0274 4.62808 44.8749 4.61648 44.7225 4.61648C44.3712 4.61648 44.0579 4.69105 43.7828 4.8402C43.5111 4.98603 43.2956 5.18987 43.1365 5.4517C42.9775 5.71023 42.8979 6.00521 42.8979 6.33665V11H41.4114ZM50.8326 6.05327V7.34091H46.3184V6.05327H50.8326ZM52.8137 13.8636V3.36364H54.2654V4.60156H54.3897C54.4759 4.44247 54.6002 4.25852 54.7626 4.04972C54.925 3.84091 55.1504 3.65862 55.4387 3.50284C55.7271 3.34375 56.1083 3.2642 56.5822 3.2642C57.1987 3.2642 57.7489 3.41998 58.2328 3.73153C58.7167 4.04309 59.0962 4.49219 59.3713 5.07884C59.6497 5.66548 59.7889 6.37145 59.7889 7.19673C59.7889 8.02202 59.6513 8.72964 59.3762 9.3196C59.1011 9.90625 58.7233 10.3587 58.2427 10.6768C57.7621 10.9917 57.2136 11.1491 56.5971 11.1491C56.1331 11.1491 55.7536 11.0713 55.4586 10.9155C55.167 10.7597 54.9383 10.5774 54.7725 10.3686C54.6068 10.1598 54.4792 9.9742 54.3897 9.81179H54.3002V13.8636H52.8137ZM54.2704 7.18182C54.2704 7.71875 54.3483 8.18939 54.5041 8.59375C54.6599 8.99811 54.8852 9.31463 55.1802 9.54332C55.4752 9.7687 55.8365 9.88139 56.264 9.88139C56.7082 9.88139 57.0794 9.76373 57.3777 9.52841C57.676 9.28977 57.9013 8.96662 58.0538 8.55895C58.2096 8.15128 58.2875 7.69223 58.2875 7.18182C58.2875 6.67803 58.2112 6.22562 58.0588 5.82457C57.9096 5.42353 57.6842 5.10701 57.3826 4.875C57.0843 4.64299 56.7115 4.52699 56.264 4.52699C55.8332 4.52699 55.4686 4.63802 55.1703 4.86009C54.8753 5.08215 54.6516 5.39205 54.4991 5.78977C54.3467 6.1875 54.2704 6.65151 54.2704 7.18182ZM61.4544 11V3.36364H62.9409V11H61.4544ZM62.2051 2.18537C61.9466 2.18537 61.7245 2.09919 61.5389 1.92685C61.3566 1.75118 61.2654 1.54238 61.2654 1.30043C61.2654 1.05516 61.3566 0.846354 61.5389 0.674005C61.7245 0.498342 61.9466 0.410511 62.2051 0.410511C62.4636 0.410511 62.684 0.498342 62.8663 0.674005C63.0519 0.846354 63.1447 1.05516 63.1447 1.30043C63.1447 1.54238 63.0519 1.75118 62.8663 1.92685C62.684 2.09919 62.4636 2.18537 62.2051 2.18537ZM66.4272 6.46591V11H64.9407V3.36364H66.3675V4.60653H66.462C66.6377 4.20218 66.9128 3.87737 67.2873 3.6321C67.6651 3.38684 68.1407 3.2642 68.7141 3.2642C69.2345 3.2642 69.6902 3.37358 70.0813 3.59233C70.4724 3.80777 70.7757 4.12926 70.9911 4.55682C71.2066 4.98437 71.3143 5.51302 71.3143 6.14276V11H69.8278V6.32173C69.8278 5.76823 69.6836 5.3357 69.3952 5.02415C69.1069 4.70928 68.7108 4.55185 68.207 4.55185C67.8623 4.55185 67.5558 4.62642 67.2873 4.77557C67.0221 4.92472 66.8117 5.14347 66.6559 5.43182C66.5034 5.71686 66.4272 6.06155 66.4272 6.46591ZM77.8072 6.05327V7.34091H73.293V6.05327H77.8072ZM83.3132 11.169C82.5277 11.1657 81.8565 10.9586 81.2997 10.5476C80.7429 10.1366 80.317 9.53835 80.022 8.75284C79.727 7.96733 79.5795 7.02107 79.5795 5.91406C79.5795 4.81037 79.727 3.86742 80.022 3.08523C80.3203 2.30303 80.7479 1.70644 81.3047 1.29545C81.8648 0.884469 82.5343 0.678977 83.3132 0.678977C84.0921 0.678977 84.7599 0.886126 85.3168 1.30043C85.8736 1.71141 86.2995 2.308 86.5945 3.0902C86.8928 3.86908 87.0419 4.81037 87.0419 5.91406C87.0419 7.02438 86.8944 7.9723 86.5994 8.75781C86.3045 9.54001 85.8786 10.1383 85.3217 10.5526C84.7649 10.9635 84.0954 11.169 83.3132 11.169ZM83.3132 9.84162C84.0026 9.84162 84.5412 9.50521 84.929 8.83239C85.3201 8.15956 85.5156 7.18679 85.5156 5.91406C85.5156 5.06889 85.4261 4.35464 85.2472 3.77131C85.0715 3.18466 84.8179 2.74053 84.4865 2.43892C84.1584 2.134 83.7673 1.98153 83.3132 1.98153C82.6271 1.98153 82.0885 2.3196 81.6974 2.99574C81.3063 3.67187 81.1091 4.64465 81.1058 5.91406C81.1058 6.76255 81.1937 7.48011 81.3693 8.06676C81.5483 8.65009 81.8018 9.09257 82.13 9.39418C82.4581 9.69247 82.8525 9.84162 83.3132 9.84162ZM92.3603 11.1392C91.9062 11.1326 91.4587 11.0497 91.0179 10.8906C90.5804 10.7315 90.1827 10.4664 89.8248 10.0952C89.4668 9.72396 89.1801 9.22514 88.9647 8.59872C88.7525 7.9723 88.6465 7.1901 88.6465 6.25213C88.6465 5.36387 88.7343 4.57505 88.91 3.88565C89.089 3.19626 89.3458 2.61458 89.6806 2.14062C90.0153 1.66335 90.4197 1.30043 90.8936 1.05185C91.3676 0.803267 91.8996 0.678977 92.4895 0.678977C93.0961 0.678977 93.6346 0.798295 94.1053 1.03693C94.5759 1.27557 94.9571 1.60535 95.2488 2.02628C95.5437 2.44721 95.731 2.92614 95.8105 3.46307H94.2942C94.1915 3.03883 93.9876 2.69247 93.6827 2.42401C93.3778 2.15554 92.9801 2.02131 92.4895 2.02131C91.7438 2.02131 91.1621 2.34612 90.7445 2.99574C90.3302 3.64536 90.1214 4.54853 90.1181 5.70526H90.1926C90.3683 5.4169 90.5837 5.17164 90.839 4.96946C91.0975 4.76397 91.3858 4.60653 91.704 4.49716C92.0255 4.38447 92.3636 4.32812 92.7182 4.32812C93.3082 4.32812 93.8418 4.4723 94.3191 4.76065C94.7997 5.04569 95.1825 5.4401 95.4675 5.94389C95.7525 6.44768 95.8951 7.02438 95.8951 7.67401C95.8951 8.32363 95.7476 8.91193 95.4526 9.43892C95.1609 9.96591 94.7499 10.3835 94.2196 10.6918C93.6893 10.9967 93.0695 11.1458 92.3603 11.1392ZM92.3553 9.84659C92.7464 9.84659 93.0961 9.75047 93.4043 9.55824C93.7125 9.366 93.9561 9.10748 94.1351 8.78267C94.3141 8.45786 94.4036 8.09493 94.4036 7.69389C94.4036 7.30279 94.3158 6.9465 94.1401 6.625C93.9677 6.3035 93.7291 6.0483 93.4242 5.85938C93.1226 5.67045 92.7779 5.57599 92.3901 5.57599C92.0951 5.57599 91.8217 5.63234 91.5698 5.74503C91.3212 5.85772 91.1025 6.01349 90.9135 6.21236C90.7246 6.41122 90.5755 6.63991 90.4661 6.89844C90.36 7.15365 90.307 7.42377 90.307 7.70881C90.307 8.08996 90.3948 8.44294 90.5705 8.76776C90.7495 9.09257 90.9931 9.3544 91.3013 9.55327C91.6129 9.74882 91.9642 9.84659 92.3553 9.84659Z" fill="black"/>
</svg>
