<svg width="148" height="15" viewBox="0 0 148 15" fill="none" xmlns="http://www.w3.org/2000/svg">
<path d="M-0.000710189 11V3.36364H1.42614V4.60653H1.5206C1.67969 4.18561 1.93987 3.85748 2.30114 3.62216C2.66241 3.38352 3.09493 3.2642 3.59872 3.2642C4.10914 3.2642 4.5367 3.38352 4.88139 3.62216C5.2294 3.8608 5.48627 4.18892 5.65199 4.60653H5.73153C5.91383 4.19886 6.20384 3.87405 6.60156 3.6321C6.99929 3.38684 7.47325 3.2642 8.02344 3.2642C8.71615 3.2642 9.28125 3.4813 9.71875 3.91548C10.1596 4.34967 10.38 5.00426 10.38 5.87926V11H8.89347V6.01847C8.89347 5.50142 8.7526 5.12689 8.47088 4.89489C8.18916 4.66288 7.85275 4.54688 7.46165 4.54688C6.97775 4.54688 6.60156 4.69602 6.3331 4.99432C6.06463 5.2893 5.9304 5.6688 5.9304 6.13281V11H4.44886V5.92401C4.44886 5.50971 4.3196 5.17661 4.06108 4.92472C3.80256 4.67282 3.46615 4.54688 3.05185 4.54688C2.77012 4.54688 2.50994 4.62145 2.27131 4.7706C2.03599 4.91643 1.84541 5.12026 1.69957 5.3821C1.55706 5.64394 1.4858 5.94721 1.4858 6.2919V11H-0.000710189ZM15.6635 11.1541C14.9112 11.1541 14.2632 10.9934 13.7196 10.6719C13.1794 10.3471 12.7618 9.89134 12.4668 9.30469C12.1751 8.71473 12.0293 8.02367 12.0293 7.23153C12.0293 6.44934 12.1751 5.75994 12.4668 5.16335C12.7618 4.56676 13.1728 4.10109 13.6998 3.76633C14.2301 3.43158 14.8498 3.2642 15.5591 3.2642C15.99 3.2642 16.4076 3.33546 16.812 3.47798C17.2163 3.6205 17.5792 3.84422 17.9007 4.14915C18.2222 4.45407 18.4758 4.85014 18.6614 5.33736C18.847 5.82126 18.9398 6.40956 18.9398 7.10227V7.62926H12.8695V6.51562H17.4831C17.4831 6.12453 17.4036 5.77817 17.2445 5.47656C17.0854 5.17164 16.8617 4.93134 16.5733 4.75568C16.2883 4.58002 15.9535 4.49219 15.5691 4.49219C15.1515 4.49219 14.7869 4.59493 14.4753 4.80043C14.1671 5.0026 13.9284 5.26776 13.7594 5.59588C13.5937 5.92069 13.5108 6.27367 13.5108 6.65483V7.52486C13.5108 8.03527 13.6003 8.46946 13.7793 8.82741C13.9616 9.18537 14.2151 9.45881 14.54 9.64773C14.8648 9.83333 15.2443 9.92614 15.6784 9.92614C15.9602 9.92614 16.217 9.88636 16.449 9.80682C16.681 9.72396 16.8816 9.60133 17.0506 9.43892C17.2196 9.27652 17.3489 9.07599 17.4384 8.83736L18.8453 9.09091C18.7327 9.50521 18.5305 9.86813 18.2388 10.1797C17.9505 10.4879 17.5875 10.7282 17.15 10.9006C16.7158 11.0696 16.2203 11.1541 15.6635 11.1541ZM26.3114 5.22798L24.9641 5.46662C24.9078 5.29427 24.8183 5.13021 24.6957 4.97443C24.5763 4.81865 24.4139 4.69105 24.2085 4.59162C24.003 4.49219 23.7461 4.44247 23.4379 4.44247C23.0169 4.44247 22.6656 4.53693 22.3839 4.72585C22.1022 4.91146 21.9613 5.15175 21.9613 5.44673C21.9613 5.70194 22.0558 5.90743 22.2447 6.06321C22.4336 6.21899 22.7385 6.34659 23.1594 6.44602L24.3725 6.72443C25.0752 6.88684 25.5988 7.13707 25.9435 7.47514C26.2882 7.81321 26.4606 8.25237 26.4606 8.79261C26.4606 9.25 26.328 9.65767 26.0629 10.0156C25.801 10.3703 25.4348 10.6487 24.9641 10.8509C24.4968 11.053 23.9549 11.1541 23.3384 11.1541C22.4833 11.1541 21.7856 10.9718 21.2454 10.6072C20.7051 10.2393 20.3737 9.71733 20.2511 9.04119L21.6879 8.82244C21.7773 9.19697 21.9613 9.48035 22.2397 9.67259C22.5181 9.86151 22.881 9.95597 23.3285 9.95597C23.8157 9.95597 24.2051 9.85488 24.4968 9.6527C24.7885 9.44721 24.9343 9.19697 24.9343 8.90199C24.9343 8.66335 24.8448 8.46283 24.6658 8.30043C24.4902 8.13802 24.2201 8.01539 23.8555 7.93253L22.5629 7.64915C21.8503 7.48674 21.3233 7.22822 20.9819 6.87358C20.6438 6.51894 20.4748 6.06984 20.4748 5.52628C20.4748 5.07552 20.6007 4.68111 20.8526 4.34304C21.1045 4.00497 21.4525 3.74148 21.8967 3.55256C22.3408 3.36032 22.8496 3.2642 23.4229 3.2642C24.2482 3.2642 24.8978 3.44318 25.3718 3.80114C25.8458 4.15578 26.159 4.63139 26.3114 5.22798ZM33.8173 5.22798L32.47 5.46662C32.4136 5.29427 32.3242 5.13021 32.2015 4.97443C32.0822 4.81865 31.9198 4.69105 31.7143 4.59162C31.5088 4.49219 31.252 4.44247 30.9437 4.44247C30.5228 4.44247 30.1715 4.53693 29.8897 4.72585C29.608 4.91146 29.4672 5.15175 29.4672 5.44673C29.4672 5.70194 29.5616 5.90743 29.7505 6.06321C29.9395 6.21899 30.2444 6.34659 30.6653 6.44602L31.8784 6.72443C32.581 6.88684 33.1047 7.13707 33.4494 7.47514C33.7941 7.81321 33.9664 8.25237 33.9664 8.79261C33.9664 9.25 33.8339 9.65767 33.5687 10.0156C33.3069 10.3703 32.9406 10.6487 32.47 10.8509C32.0027 11.053 31.4608 11.1541 30.8443 11.1541C29.9892 11.1541 29.2915 10.9718 28.7512 10.6072C28.211 10.2393 27.8796 9.71733 27.7569 9.04119L29.1937 8.82244C29.2832 9.19697 29.4672 9.48035 29.7456 9.67259C30.024 9.86151 30.3869 9.95597 30.8343 9.95597C31.3216 9.95597 31.711 9.85488 32.0027 9.6527C32.2943 9.44721 32.4402 9.19697 32.4402 8.90199C32.4402 8.66335 32.3507 8.46283 32.1717 8.30043C31.996 8.13802 31.7259 8.01539 31.3613 7.93253L30.0687 7.64915C29.3561 7.48674 28.8291 7.22822 28.4877 6.87358C28.1497 6.51894 27.9806 6.06984 27.9806 5.52628C27.9806 5.07552 28.1066 4.68111 28.3585 4.34304C28.6104 4.00497 28.9584 3.74148 29.4025 3.55256C29.8467 3.36032 30.3554 3.2642 30.9288 3.2642C31.7541 3.2642 32.4037 3.44318 32.8777 3.80114C33.3516 4.15578 33.6648 4.63139 33.8173 5.22798ZM37.8232 11.169C37.3393 11.169 36.9018 11.0795 36.5107 10.9006C36.1196 10.7183 35.8097 10.4548 35.581 10.1101C35.3556 9.76539 35.2429 9.3428 35.2429 8.84233C35.2429 8.41146 35.3258 8.05682 35.4915 7.77841C35.6572 7.5 35.8809 7.27959 36.1626 7.11719C36.4444 6.95478 36.7592 6.83215 37.1072 6.74929C37.4553 6.66643 37.8099 6.60346 38.1712 6.56037C38.6286 6.50734 38.9998 6.46425 39.2848 6.43111C39.5698 6.39465 39.777 6.33665 39.9062 6.2571C40.0355 6.17756 40.1001 6.0483 40.1001 5.86932V5.83452C40.1001 5.40033 39.9775 5.06392 39.7322 4.82528C39.4903 4.58665 39.129 4.46733 38.6484 4.46733C38.148 4.46733 37.7536 4.57836 37.4652 4.80043C37.1802 5.01918 36.983 5.26278 36.8736 5.53125L35.4766 5.21307C35.6423 4.74905 35.8842 4.37453 36.2024 4.08949C36.5239 3.80114 36.8935 3.59233 37.3111 3.46307C37.7287 3.33049 38.1679 3.2642 38.6286 3.2642C38.9335 3.2642 39.2566 3.30066 39.598 3.37358C39.9427 3.44318 40.2642 3.57244 40.5625 3.76136C40.8641 3.95028 41.111 4.22041 41.3033 4.57173C41.4955 4.91974 41.5916 5.37216 41.5916 5.92898V11H40.1399V9.95597H40.0803C39.9841 10.1482 39.84 10.3371 39.6477 10.5227C39.4555 10.7083 39.2086 10.8625 38.907 10.9851C38.6054 11.1077 38.2441 11.169 37.8232 11.169ZM38.1463 9.97585C38.5573 9.97585 38.9086 9.89465 39.2003 9.73224C39.4953 9.56984 39.719 9.35772 39.8714 9.09588C40.0272 8.83073 40.1051 8.54735 40.1051 8.24574V7.26136C40.0521 7.31439 39.9493 7.36411 39.7969 7.41051C39.6477 7.4536 39.477 7.49171 39.2848 7.52486C39.0926 7.55469 38.9053 7.58286 38.723 7.60938C38.5407 7.63258 38.3883 7.65246 38.2656 7.66903C37.9773 7.70549 37.7138 7.76681 37.4751 7.85298C37.2398 7.93916 37.0509 8.06345 36.9084 8.22585C36.7692 8.38494 36.6996 8.59706 36.6996 8.86222C36.6996 9.23011 36.8355 9.50852 37.1072 9.69744C37.379 9.88305 37.7254 9.97585 38.1463 9.97585ZM46.7733 14.0227C46.1667 14.0227 45.6447 13.9432 45.2072 13.7841C44.773 13.625 44.4184 13.4145 44.1433 13.1527C43.8682 12.8909 43.6627 12.6042 43.5268 12.2926L44.8045 11.7656C44.894 11.9115 45.0133 12.0656 45.1625 12.228C45.3149 12.3937 45.5204 12.5346 45.7789 12.6506C46.0408 12.7666 46.3772 12.8246 46.7882 12.8246C47.3516 12.8246 47.8173 12.687 48.1852 12.4119C48.5531 12.1402 48.737 11.706 48.737 11.1094V9.60795H48.6426C48.5531 9.77036 48.4238 9.95099 48.2548 10.1499C48.0891 10.3487 47.8604 10.5211 47.5687 10.6669C47.277 10.8127 46.8975 10.8857 46.4302 10.8857C45.827 10.8857 45.2834 10.7448 44.7995 10.4631C44.319 10.178 43.9378 9.75876 43.6561 9.20526C43.3777 8.64844 43.2385 7.96401 43.2385 7.15199C43.2385 6.33996 43.376 5.64394 43.6511 5.06392C43.9295 4.4839 44.3107 4.03977 44.7946 3.73153C45.2785 3.41998 45.827 3.2642 46.4402 3.2642C46.9141 3.2642 47.2969 3.34375 47.5886 3.50284C47.8803 3.65862 48.1073 3.84091 48.2697 4.04972C48.4354 4.25852 48.563 4.44247 48.6525 4.60156H48.7619V3.36364H50.2186V11.169C50.2186 11.8253 50.0661 12.3639 49.7612 12.7848C49.4563 13.2057 49.0436 13.5173 48.5233 13.7195C48.0062 13.9216 47.4229 14.0227 46.7733 14.0227ZM46.7583 9.6527C47.1859 9.6527 47.5472 9.55327 47.8422 9.3544C48.1404 9.15223 48.3658 8.86387 48.5183 8.48935C48.6741 8.11151 48.752 7.65909 48.752 7.1321C48.752 6.61837 48.6757 6.16596 48.5233 5.77486C48.3708 5.38376 48.1471 5.07884 47.8521 4.86009C47.5571 4.63802 47.1925 4.52699 46.7583 4.52699C46.3109 4.52699 45.938 4.64299 45.6397 4.875C45.3414 5.10369 45.1161 5.41525 44.9636 5.80966C44.8145 6.20407 44.7399 6.64489 44.7399 7.1321C44.7399 7.63258 44.8161 8.07173 44.9686 8.44957C45.121 8.82741 45.3464 9.1224 45.6447 9.33452C45.9463 9.54664 46.3175 9.6527 46.7583 9.6527ZM55.5034 11.1541C54.751 11.1541 54.103 10.9934 53.5595 10.6719C53.0192 10.3471 52.6016 9.89134 52.3066 9.30469C52.015 8.71473 51.8691 8.02367 51.8691 7.23153C51.8691 6.44934 52.015 5.75994 52.3066 5.16335C52.6016 4.56676 53.0126 4.10109 53.5396 3.76633C54.0699 3.43158 54.6897 3.2642 55.399 3.2642C55.8298 3.2642 56.2475 3.33546 56.6518 3.47798C57.0562 3.6205 57.4191 3.84422 57.7406 4.14915C58.0621 4.45407 58.3156 4.85014 58.5012 5.33736C58.6868 5.82126 58.7797 6.40956 58.7797 7.10227V7.62926H52.7093V6.51562H57.323C57.323 6.12453 57.2434 5.77817 57.0843 5.47656C56.9252 5.17164 56.7015 4.93134 56.4132 4.75568C56.1281 4.58002 55.7934 4.49219 55.4089 4.49219C54.9913 4.49219 54.6267 4.59493 54.3152 4.80043C54.0069 5.0026 53.7683 5.26776 53.5993 5.59588C53.4335 5.92069 53.3507 6.27367 53.3507 6.65483V7.52486C53.3507 8.03527 53.4402 8.46946 53.6191 8.82741C53.8014 9.18537 54.055 9.45881 54.3798 9.64773C54.7046 9.83333 55.0841 9.92614 55.5183 9.92614C55.8 9.92614 56.0569 9.88636 56.2889 9.80682C56.5209 9.72396 56.7214 9.60133 56.8904 9.43892C57.0595 9.27652 57.1887 9.07599 57.2782 8.83736L58.6852 9.09091C58.5725 9.50521 58.3703 9.86813 58.0787 10.1797C57.7903 10.4879 57.4274 10.7282 56.9899 10.9006C56.5557 11.0696 56.0602 11.1541 55.5034 11.1541ZM64.9283 6.05327V7.34091H60.4141V6.05327H64.9283ZM69.7681 11.1491C69.1516 11.1491 68.6014 10.9917 68.1175 10.6768C67.637 10.3587 67.2591 9.90625 66.984 9.3196C66.7122 8.72964 66.5763 8.02202 66.5763 7.19673C66.5763 6.37145 66.7139 5.66548 66.989 5.07884C67.2674 4.49219 67.6486 4.04309 68.1325 3.73153C68.6164 3.41998 69.1649 3.2642 69.7781 3.2642C70.252 3.2642 70.6332 3.34375 70.9215 3.50284C71.2132 3.65862 71.4386 3.84091 71.5977 4.04972C71.7601 4.25852 71.886 4.44247 71.9755 4.60156H72.065V0.818182H73.5515V11H72.0998V9.81179H71.9755C71.886 9.9742 71.7567 10.1598 71.5877 10.3686C71.422 10.5774 71.1933 10.7597 70.9016 10.9155C70.61 11.0713 70.2321 11.1491 69.7681 11.1491ZM70.0962 9.88139C70.5238 9.88139 70.8851 9.7687 71.18 9.54332C71.4783 9.31463 71.7037 8.99811 71.8562 8.59375C72.012 8.18939 72.0898 7.71875 72.0898 7.18182C72.0898 6.65151 72.0136 6.1875 71.8612 5.78977C71.7087 5.39205 71.485 5.08215 71.19 4.86009C70.895 4.63802 70.5304 4.52699 70.0962 4.52699C69.6488 4.52699 69.2759 4.64299 68.9776 4.875C68.6793 5.10701 68.454 5.42353 68.3015 5.82457C68.1523 6.22562 68.0778 6.67803 68.0778 7.18182C68.0778 7.69223 68.154 8.15128 68.3065 8.55895C68.4589 8.96662 68.6843 9.28977 68.9826 9.52841C69.2842 9.76373 69.6554 9.88139 70.0962 9.88139ZM78.8897 11.1541C78.1738 11.1541 77.5491 10.9901 77.0154 10.6619C76.4818 10.3338 76.0675 9.87476 75.7725 9.2848C75.4776 8.69484 75.3301 8.00544 75.3301 7.21662C75.3301 6.42448 75.4776 5.73177 75.7725 5.13849C76.0675 4.54522 76.4818 4.08452 77.0154 3.75639C77.5491 3.42827 78.1738 3.2642 78.8897 3.2642C79.6056 3.2642 80.2304 3.42827 80.764 3.75639C81.2976 4.08452 81.7119 4.54522 82.0069 5.13849C82.3019 5.73177 82.4494 6.42448 82.4494 7.21662C82.4494 8.00544 82.3019 8.69484 82.0069 9.2848C81.7119 9.87476 81.2976 10.3338 80.764 10.6619C80.2304 10.9901 79.6056 11.1541 78.8897 11.1541ZM78.8947 9.90625C79.3587 9.90625 79.7432 9.78362 80.0481 9.53835C80.353 9.29309 80.5784 8.96662 80.7243 8.55895C80.8734 8.15128 80.948 7.70218 80.948 7.21165C80.948 6.72443 80.8734 6.27699 80.7243 5.86932C80.5784 5.45833 80.353 5.12855 80.0481 4.87997C79.7432 4.63139 79.3587 4.5071 78.8947 4.5071C78.4274 4.5071 78.0396 4.63139 77.7314 4.87997C77.4264 5.12855 77.1994 5.45833 77.0502 5.86932C76.9044 6.27699 76.8315 6.72443 76.8315 7.21165C76.8315 7.70218 76.9044 8.15128 77.0502 8.55895C77.1994 8.96662 77.4264 9.29309 77.7314 9.53835C78.0396 9.78362 78.4274 9.90625 78.8947 9.90625ZM87.6733 3.36364V4.55682H83.5021V3.36364H87.6733ZM84.6207 1.53409H86.1072V8.75781C86.1072 9.04616 86.1503 9.26326 86.2365 9.40909C86.3227 9.55161 86.4337 9.64938 86.5696 9.70241C86.7088 9.75213 86.8596 9.77699 87.022 9.77699C87.1413 9.77699 87.2457 9.7687 87.3352 9.75213C87.4247 9.73556 87.4943 9.7223 87.544 9.71236L87.8125 10.9403C87.7263 10.9735 87.6037 11.0066 87.4446 11.0398C87.2855 11.0762 87.0866 11.0961 86.848 11.0994C86.4569 11.1061 86.0923 11.0365 85.7543 10.8906C85.4162 10.7448 85.1428 10.5194 84.9339 10.2145C84.7251 9.90956 84.6207 9.52675 84.6207 9.06605V1.53409ZM94.9169 5.22798L93.5696 5.46662C93.5133 5.29427 93.4238 5.13021 93.3011 4.97443C93.1818 4.81865 93.0194 4.69105 92.8139 4.59162C92.6084 4.49219 92.3516 4.44247 92.0433 4.44247C91.6224 4.44247 91.2711 4.53693 90.9893 4.72585C90.7076 4.91146 90.5668 5.15175 90.5668 5.44673C90.5668 5.70194 90.6612 5.90743 90.8501 6.06321C91.0391 6.21899 91.344 6.34659 91.7649 6.44602L92.978 6.72443C93.6806 6.88684 94.2043 7.13707 94.549 7.47514C94.8937 7.81321 95.0661 8.25237 95.0661 8.79261C95.0661 9.25 94.9335 9.65767 94.6683 10.0156C94.4065 10.3703 94.0402 10.6487 93.5696 10.8509C93.1023 11.053 92.5604 11.1541 91.9439 11.1541C91.0888 11.1541 90.3911 10.9718 89.8509 10.6072C89.3106 10.2393 88.9792 9.71733 88.8565 9.04119L90.2933 8.82244C90.3828 9.19697 90.5668 9.48035 90.8452 9.67259C91.1236 9.86151 91.4865 9.95597 91.9339 9.95597C92.4212 9.95597 92.8106 9.85488 93.1023 9.6527C93.3939 9.44721 93.5398 9.19697 93.5398 8.90199C93.5398 8.66335 93.4503 8.46283 93.2713 8.30043C93.0956 8.13802 92.8255 8.01539 92.4609 7.93253L91.1683 7.64915C90.4557 7.48674 89.9287 7.22822 89.5874 6.87358C89.2493 6.51894 89.0803 6.06984 89.0803 5.52628C89.0803 5.07552 89.2062 4.68111 89.4581 4.34304C89.71 4.00497 90.058 3.74148 90.5021 3.55256C90.9463 3.36032 91.455 3.2642 92.0284 3.2642C92.8537 3.2642 93.5033 3.44318 93.9773 3.80114C94.4512 4.15578 94.7644 4.63139 94.9169 5.22798ZM101.2 6.05327V7.34091H96.6855V6.05327H101.2ZM108.903 5.22798L107.556 5.46662C107.5 5.29427 107.41 5.13021 107.287 4.97443C107.168 4.81865 107.006 4.69105 106.8 4.59162C106.595 4.49219 106.338 4.44247 106.03 4.44247C105.609 4.44247 105.257 4.53693 104.976 4.72585C104.694 4.91146 104.553 5.15175 104.553 5.44673C104.553 5.70194 104.648 5.90743 104.836 6.06321C105.025 6.21899 105.33 6.34659 105.751 6.44602L106.964 6.72443C107.667 6.88684 108.191 7.13707 108.535 7.47514C108.88 7.81321 109.052 8.25237 109.052 8.79261C109.052 9.25 108.92 9.65767 108.655 10.0156C108.393 10.3703 108.027 10.6487 107.556 10.8509C107.089 11.053 106.547 11.1541 105.93 11.1541C105.075 11.1541 104.377 10.9718 103.837 10.6072C103.297 10.2393 102.965 9.71733 102.843 9.04119L104.28 8.82244C104.369 9.19697 104.553 9.48035 104.831 9.67259C105.11 9.86151 105.473 9.95597 105.92 9.95597C106.407 9.95597 106.797 9.85488 107.089 9.6527C107.38 9.44721 107.526 9.19697 107.526 8.90199C107.526 8.66335 107.437 8.46283 107.258 8.30043C107.082 8.13802 106.812 8.01539 106.447 7.93253L105.155 7.64915C104.442 7.48674 103.915 7.22822 103.574 6.87358C103.236 6.51894 103.067 6.06984 103.067 5.52628C103.067 5.07552 103.193 4.68111 103.444 4.34304C103.696 4.00497 104.044 3.74148 104.488 3.55256C104.933 3.36032 105.441 3.2642 106.015 3.2642C106.84 3.2642 107.49 3.44318 107.964 3.80114C108.438 4.15578 108.751 4.63139 108.903 5.22798ZM115.842 13.8636V9.81179H115.753C115.663 9.9742 115.534 10.1598 115.365 10.3686C115.199 10.5774 114.971 10.7597 114.679 10.9155C114.387 11.0713 114.009 11.1491 113.545 11.1491C112.929 11.1491 112.379 10.9917 111.895 10.6768C111.414 10.3587 111.036 9.90625 110.761 9.3196C110.49 8.72964 110.354 8.02202 110.354 7.19673C110.354 6.37145 110.491 5.66548 110.766 5.07884C111.045 4.49219 111.426 4.04309 111.91 3.73153C112.394 3.41998 112.942 3.2642 113.555 3.2642C114.029 3.2642 114.411 3.34375 114.699 3.50284C114.991 3.65862 115.216 3.84091 115.375 4.04972C115.537 4.25852 115.663 4.44247 115.753 4.60156H115.877V3.36364H117.329V13.8636H115.842ZM113.874 9.88139C114.301 9.88139 114.662 9.7687 114.957 9.54332C115.256 9.31463 115.481 8.99811 115.634 8.59375C115.789 8.18939 115.867 7.71875 115.867 7.18182C115.867 6.65151 115.791 6.1875 115.638 5.78977C115.486 5.39205 115.262 5.08215 114.967 4.86009C114.672 4.63802 114.308 4.52699 113.874 4.52699C113.426 4.52699 113.053 4.64299 112.755 4.875C112.457 5.10701 112.231 5.42353 112.079 5.82457C111.93 6.22562 111.855 6.67803 111.855 7.18182C111.855 7.69223 111.931 8.15128 112.084 8.55895C112.236 8.96662 112.462 9.28977 112.76 9.52841C113.062 9.76373 113.433 9.88139 113.874 9.88139ZM124.165 7.8331V3.36364H125.656V11H124.195V9.67756H124.115C123.939 10.0852 123.658 10.425 123.27 10.6967C122.885 10.9652 122.406 11.0994 121.833 11.0994C121.343 11.0994 120.908 10.9917 120.531 10.7763C120.156 10.5575 119.861 10.2344 119.646 9.80682C119.433 9.37926 119.327 8.85062 119.327 8.22088V3.36364H120.814V8.0419C120.814 8.56226 120.958 8.97656 121.246 9.2848C121.535 9.59304 121.909 9.74716 122.37 9.74716C122.648 9.74716 122.925 9.67756 123.2 9.53835C123.479 9.39915 123.709 9.18868 123.891 8.90696C124.077 8.62524 124.168 8.26728 124.165 7.8331ZM129.876 11.169C129.392 11.169 128.954 11.0795 128.563 10.9006C128.172 10.7183 127.862 10.4548 127.634 10.1101C127.408 9.76539 127.296 9.3428 127.296 8.84233C127.296 8.41146 127.378 8.05682 127.544 7.77841C127.71 7.5 127.934 7.27959 128.215 7.11719C128.497 6.95478 128.812 6.83215 129.16 6.74929C129.508 6.66643 129.863 6.60346 130.224 6.56037C130.681 6.50734 131.052 6.46425 131.338 6.43111C131.623 6.39465 131.83 6.33665 131.959 6.2571C132.088 6.17756 132.153 6.0483 132.153 5.86932V5.83452C132.153 5.40033 132.03 5.06392 131.785 4.82528C131.543 4.58665 131.182 4.46733 130.701 4.46733C130.201 4.46733 129.806 4.57836 129.518 4.80043C129.233 5.01918 129.036 5.26278 128.926 5.53125L127.529 5.21307C127.695 4.74905 127.937 4.37453 128.255 4.08949C128.577 3.80114 128.946 3.59233 129.364 3.46307C129.781 3.33049 130.221 3.2642 130.681 3.2642C130.986 3.2642 131.309 3.30066 131.651 3.37358C131.995 3.44318 132.317 3.57244 132.615 3.76136C132.917 3.95028 133.164 4.22041 133.356 4.57173C133.548 4.91974 133.644 5.37216 133.644 5.92898V11H132.193V9.95597H132.133C132.037 10.1482 131.893 10.3371 131.7 10.5227C131.508 10.7083 131.261 10.8625 130.96 10.9851C130.658 11.1077 130.297 11.169 129.876 11.169ZM130.199 9.97585C130.61 9.97585 130.961 9.89465 131.253 9.73224C131.548 9.56984 131.772 9.35772 131.924 9.09588C132.08 8.83073 132.158 8.54735 132.158 8.24574V7.26136C132.105 7.31439 132.002 7.36411 131.85 7.41051C131.7 7.4536 131.53 7.49171 131.338 7.52486C131.145 7.55469 130.958 7.58286 130.776 7.60938C130.593 7.63258 130.441 7.65246 130.318 7.66903C130.03 7.70549 129.767 7.76681 129.528 7.85298C129.293 7.93916 129.104 8.06345 128.961 8.22585C128.822 8.38494 128.752 8.59706 128.752 8.86222C128.752 9.23011 128.888 9.50852 129.16 9.69744C129.432 9.88305 129.778 9.97585 130.199 9.97585ZM135.624 11V3.36364H137.061V4.5767H137.141C137.28 4.16572 137.525 3.84257 137.876 3.60724C138.231 3.36861 138.632 3.24929 139.08 3.24929C139.172 3.24929 139.282 3.2526 139.408 3.25923C139.537 3.26586 139.638 3.27415 139.711 3.28409V4.70597C139.651 4.68939 139.545 4.67116 139.393 4.65128C139.24 4.62808 139.088 4.61648 138.935 4.61648C138.584 4.61648 138.271 4.69105 137.996 4.8402C137.724 4.98603 137.509 5.18987 137.349 5.4517C137.19 5.71023 137.111 6.00521 137.111 6.33665V11H135.624ZM144.015 11.1541C143.263 11.1541 142.615 10.9934 142.071 10.6719C141.531 10.3471 141.113 9.89134 140.818 9.30469C140.527 8.71473 140.381 8.02367 140.381 7.23153C140.381 6.44934 140.527 5.75994 140.818 5.16335C141.113 4.56676 141.524 4.10109 142.051 3.76633C142.582 3.43158 143.201 3.2642 143.911 3.2642C144.342 3.2642 144.759 3.33546 145.164 3.47798C145.568 3.6205 145.931 3.84422 146.252 4.14915C146.574 4.45407 146.827 4.85014 147.013 5.33736C147.199 5.82126 147.291 6.40956 147.291 7.10227V7.62926H141.221V6.51562H145.835C145.835 6.12453 145.755 5.77817 145.596 5.47656C145.437 5.17164 145.213 4.93134 144.925 4.75568C144.64 4.58002 144.305 4.49219 143.921 4.49219C143.503 4.49219 143.138 4.59493 142.827 4.80043C142.519 5.0026 142.28 5.26776 142.111 5.59588C141.945 5.92069 141.862 6.27367 141.862 6.65483V7.52486C141.862 8.03527 141.952 8.46946 142.131 8.82741C142.313 9.18537 142.567 9.45881 142.892 9.64773C143.216 9.83333 143.596 9.92614 144.03 9.92614C144.312 9.92614 144.569 9.88636 144.801 9.80682C145.033 9.72396 145.233 9.60133 145.402 9.43892C145.571 9.27652 145.7 9.07599 145.79 8.83736L147.197 9.09091C147.084 9.50521 146.882 9.86813 146.59 10.1797C146.302 10.4879 145.939 10.7282 145.502 10.9006C145.067 11.0696 144.572 11.1541 144.015 11.1541Z" fill="black"/>
</svg>
