<svg width="184" height="15" viewBox="0 0 184 15" fill="none" xmlns="http://www.w3.org/2000/svg">
<path d="M-0.000710189 11V3.36364H1.42614V4.60653H1.5206C1.67969 4.18561 1.93987 3.85748 2.30114 3.62216C2.66241 3.38352 3.09493 3.2642 3.59872 3.2642C4.10914 3.2642 4.5367 3.38352 4.88139 3.62216C5.2294 3.8608 5.48627 4.18892 5.65199 4.60653H5.73153C5.91383 4.19886 6.20384 3.87405 6.60156 3.6321C6.99929 3.38684 7.47325 3.2642 8.02344 3.2642C8.71615 3.2642 9.28125 3.4813 9.71875 3.91548C10.1596 4.34967 10.38 5.00426 10.38 5.87926V11H8.89347V6.01847C8.89347 5.50142 8.7526 5.12689 8.47088 4.89489C8.18916 4.66288 7.85275 4.54688 7.46165 4.54688C6.97775 4.54688 6.60156 4.69602 6.3331 4.99432C6.06463 5.2893 5.9304 5.6688 5.9304 6.13281V11H4.44886V5.92401C4.44886 5.50971 4.3196 5.17661 4.06108 4.92472C3.80256 4.67282 3.46615 4.54688 3.05185 4.54688C2.77012 4.54688 2.50994 4.62145 2.27131 4.7706C2.03599 4.91643 1.84541 5.12026 1.69957 5.3821C1.55706 5.64394 1.4858 5.94721 1.4858 6.2919V11H-0.000710189ZM15.6635 11.1541C14.9112 11.1541 14.2632 10.9934 13.7196 10.6719C13.1794 10.3471 12.7618 9.89134 12.4668 9.30469C12.1751 8.71473 12.0293 8.02367 12.0293 7.23153C12.0293 6.44934 12.1751 5.75994 12.4668 5.16335C12.7618 4.56676 13.1728 4.10109 13.6998 3.76633C14.2301 3.43158 14.8498 3.2642 15.5591 3.2642C15.99 3.2642 16.4076 3.33546 16.812 3.47798C17.2163 3.6205 17.5792 3.84422 17.9007 4.14915C18.2222 4.45407 18.4758 4.85014 18.6614 5.33736C18.847 5.82126 18.9398 6.40956 18.9398 7.10227V7.62926H12.8695V6.51562H17.4831C17.4831 6.12453 17.4036 5.77817 17.2445 5.47656C17.0854 5.17164 16.8617 4.93134 16.5733 4.75568C16.2883 4.58002 15.9535 4.49219 15.5691 4.49219C15.1515 4.49219 14.7869 4.59493 14.4753 4.80043C14.1671 5.0026 13.9284 5.26776 13.7594 5.59588C13.5937 5.92069 13.5108 6.27367 13.5108 6.65483V7.52486C13.5108 8.03527 13.6003 8.46946 13.7793 8.82741C13.9616 9.18537 14.2151 9.45881 14.54 9.64773C14.8648 9.83333 15.2443 9.92614 15.6784 9.92614C15.9602 9.92614 16.217 9.88636 16.449 9.80682C16.681 9.72396 16.8816 9.60133 17.0506 9.43892C17.2196 9.27652 17.3489 9.07599 17.4384 8.83736L18.8453 9.09091C18.7327 9.50521 18.5305 9.86813 18.2388 10.1797C17.9505 10.4879 17.5875 10.7282 17.15 10.9006C16.7158 11.0696 16.2203 11.1541 15.6635 11.1541ZM26.3114 5.22798L24.9641 5.46662C24.9078 5.29427 24.8183 5.13021 24.6957 4.97443C24.5763 4.81865 24.4139 4.69105 24.2085 4.59162C24.003 4.49219 23.7461 4.44247 23.4379 4.44247C23.0169 4.44247 22.6656 4.53693 22.3839 4.72585C22.1022 4.91146 21.9613 5.15175 21.9613 5.44673C21.9613 5.70194 22.0558 5.90743 22.2447 6.06321C22.4336 6.21899 22.7385 6.34659 23.1594 6.44602L24.3725 6.72443C25.0752 6.88684 25.5988 7.13707 25.9435 7.47514C26.2882 7.81321 26.4606 8.25237 26.4606 8.79261C26.4606 9.25 26.328 9.65767 26.0629 10.0156C25.801 10.3703 25.4348 10.6487 24.9641 10.8509C24.4968 11.053 23.9549 11.1541 23.3384 11.1541C22.4833 11.1541 21.7856 10.9718 21.2454 10.6072C20.7051 10.2393 20.3737 9.71733 20.2511 9.04119L21.6879 8.82244C21.7773 9.19697 21.9613 9.48035 22.2397 9.67259C22.5181 9.86151 22.881 9.95597 23.3285 9.95597C23.8157 9.95597 24.2051 9.85488 24.4968 9.6527C24.7885 9.44721 24.9343 9.19697 24.9343 8.90199C24.9343 8.66335 24.8448 8.46283 24.6658 8.30043C24.4902 8.13802 24.2201 8.01539 23.8555 7.93253L22.5629 7.64915C21.8503 7.48674 21.3233 7.22822 20.9819 6.87358C20.6438 6.51894 20.4748 6.06984 20.4748 5.52628C20.4748 5.07552 20.6007 4.68111 20.8526 4.34304C21.1045 4.00497 21.4525 3.74148 21.8967 3.55256C22.3408 3.36032 22.8496 3.2642 23.4229 3.2642C24.2482 3.2642 24.8978 3.44318 25.3718 3.80114C25.8458 4.15578 26.159 4.63139 26.3114 5.22798ZM33.8173 5.22798L32.47 5.46662C32.4136 5.29427 32.3242 5.13021 32.2015 4.97443C32.0822 4.81865 31.9198 4.69105 31.7143 4.59162C31.5088 4.49219 31.252 4.44247 30.9437 4.44247C30.5228 4.44247 30.1715 4.53693 29.8897 4.72585C29.608 4.91146 29.4672 5.15175 29.4672 5.44673C29.4672 5.70194 29.5616 5.90743 29.7505 6.06321C29.9395 6.21899 30.2444 6.34659 30.6653 6.44602L31.8784 6.72443C32.581 6.88684 33.1047 7.13707 33.4494 7.47514C33.7941 7.81321 33.9664 8.25237 33.9664 8.79261C33.9664 9.25 33.8339 9.65767 33.5687 10.0156C33.3069 10.3703 32.9406 10.6487 32.47 10.8509C32.0027 11.053 31.4608 11.1541 30.8443 11.1541C29.9892 11.1541 29.2915 10.9718 28.7512 10.6072C28.211 10.2393 27.8796 9.71733 27.7569 9.04119L29.1937 8.82244C29.2832 9.19697 29.4672 9.48035 29.7456 9.67259C30.024 9.86151 30.3869 9.95597 30.8343 9.95597C31.3216 9.95597 31.711 9.85488 32.0027 9.6527C32.2943 9.44721 32.4402 9.19697 32.4402 8.90199C32.4402 8.66335 32.3507 8.46283 32.1717 8.30043C31.996 8.13802 31.7259 8.01539 31.3613 7.93253L30.0687 7.64915C29.3561 7.48674 28.8291 7.22822 28.4877 6.87358C28.1497 6.51894 27.9806 6.06984 27.9806 5.52628C27.9806 5.07552 28.1066 4.68111 28.3585 4.34304C28.6104 4.00497 28.9584 3.74148 29.4025 3.55256C29.8467 3.36032 30.3554 3.2642 30.9288 3.2642C31.7541 3.2642 32.4037 3.44318 32.8777 3.80114C33.3516 4.15578 33.6648 4.63139 33.8173 5.22798ZM37.8232 11.169C37.3393 11.169 36.9018 11.0795 36.5107 10.9006C36.1196 10.7183 35.8097 10.4548 35.581 10.1101C35.3556 9.76539 35.2429 9.3428 35.2429 8.84233C35.2429 8.41146 35.3258 8.05682 35.4915 7.77841C35.6572 7.5 35.8809 7.27959 36.1626 7.11719C36.4444 6.95478 36.7592 6.83215 37.1072 6.74929C37.4553 6.66643 37.8099 6.60346 38.1712 6.56037C38.6286 6.50734 38.9998 6.46425 39.2848 6.43111C39.5698 6.39465 39.777 6.33665 39.9062 6.2571C40.0355 6.17756 40.1001 6.0483 40.1001 5.86932V5.83452C40.1001 5.40033 39.9775 5.06392 39.7322 4.82528C39.4903 4.58665 39.129 4.46733 38.6484 4.46733C38.148 4.46733 37.7536 4.57836 37.4652 4.80043C37.1802 5.01918 36.983 5.26278 36.8736 5.53125L35.4766 5.21307C35.6423 4.74905 35.8842 4.37453 36.2024 4.08949C36.5239 3.80114 36.8935 3.59233 37.3111 3.46307C37.7287 3.33049 38.1679 3.2642 38.6286 3.2642C38.9335 3.2642 39.2566 3.30066 39.598 3.37358C39.9427 3.44318 40.2642 3.57244 40.5625 3.76136C40.8641 3.95028 41.111 4.22041 41.3033 4.57173C41.4955 4.91974 41.5916 5.37216 41.5916 5.92898V11H40.1399V9.95597H40.0803C39.9841 10.1482 39.84 10.3371 39.6477 10.5227C39.4555 10.7083 39.2086 10.8625 38.907 10.9851C38.6054 11.1077 38.2441 11.169 37.8232 11.169ZM38.1463 9.97585C38.5573 9.97585 38.9086 9.89465 39.2003 9.73224C39.4953 9.56984 39.719 9.35772 39.8714 9.09588C40.0272 8.83073 40.1051 8.54735 40.1051 8.24574V7.26136C40.0521 7.31439 39.9493 7.36411 39.7969 7.41051C39.6477 7.4536 39.477 7.49171 39.2848 7.52486C39.0926 7.55469 38.9053 7.58286 38.723 7.60938C38.5407 7.63258 38.3883 7.65246 38.2656 7.66903C37.9773 7.70549 37.7138 7.76681 37.4751 7.85298C37.2398 7.93916 37.0509 8.06345 36.9084 8.22585C36.7692 8.38494 36.6996 8.59706 36.6996 8.86222C36.6996 9.23011 36.8355 9.50852 37.1072 9.69744C37.379 9.88305 37.7254 9.97585 38.1463 9.97585ZM46.7733 14.0227C46.1667 14.0227 45.6447 13.9432 45.2072 13.7841C44.773 13.625 44.4184 13.4145 44.1433 13.1527C43.8682 12.8909 43.6627 12.6042 43.5268 12.2926L44.8045 11.7656C44.894 11.9115 45.0133 12.0656 45.1625 12.228C45.3149 12.3937 45.5204 12.5346 45.7789 12.6506C46.0408 12.7666 46.3772 12.8246 46.7882 12.8246C47.3516 12.8246 47.8173 12.687 48.1852 12.4119C48.5531 12.1402 48.737 11.706 48.737 11.1094V9.60795H48.6426C48.5531 9.77036 48.4238 9.95099 48.2548 10.1499C48.0891 10.3487 47.8604 10.5211 47.5687 10.6669C47.277 10.8127 46.8975 10.8857 46.4302 10.8857C45.827 10.8857 45.2834 10.7448 44.7995 10.4631C44.319 10.178 43.9378 9.75876 43.6561 9.20526C43.3777 8.64844 43.2385 7.96401 43.2385 7.15199C43.2385 6.33996 43.376 5.64394 43.6511 5.06392C43.9295 4.4839 44.3107 4.03977 44.7946 3.73153C45.2785 3.41998 45.827 3.2642 46.4402 3.2642C46.9141 3.2642 47.2969 3.34375 47.5886 3.50284C47.8803 3.65862 48.1073 3.84091 48.2697 4.04972C48.4354 4.25852 48.563 4.44247 48.6525 4.60156H48.7619V3.36364H50.2186V11.169C50.2186 11.8253 50.0661 12.3639 49.7612 12.7848C49.4563 13.2057 49.0436 13.5173 48.5233 13.7195C48.0062 13.9216 47.4229 14.0227 46.7733 14.0227ZM46.7583 9.6527C47.1859 9.6527 47.5472 9.55327 47.8422 9.3544C48.1404 9.15223 48.3658 8.86387 48.5183 8.48935C48.6741 8.11151 48.752 7.65909 48.752 7.1321C48.752 6.61837 48.6757 6.16596 48.5233 5.77486C48.3708 5.38376 48.1471 5.07884 47.8521 4.86009C47.5571 4.63802 47.1925 4.52699 46.7583 4.52699C46.3109 4.52699 45.938 4.64299 45.6397 4.875C45.3414 5.10369 45.1161 5.41525 44.9636 5.80966C44.8145 6.20407 44.7399 6.64489 44.7399 7.1321C44.7399 7.63258 44.8161 8.07173 44.9686 8.44957C45.121 8.82741 45.3464 9.1224 45.6447 9.33452C45.9463 9.54664 46.3175 9.6527 46.7583 9.6527ZM55.5034 11.1541C54.751 11.1541 54.103 10.9934 53.5595 10.6719C53.0192 10.3471 52.6016 9.89134 52.3066 9.30469C52.015 8.71473 51.8691 8.02367 51.8691 7.23153C51.8691 6.44934 52.015 5.75994 52.3066 5.16335C52.6016 4.56676 53.0126 4.10109 53.5396 3.76633C54.0699 3.43158 54.6897 3.2642 55.399 3.2642C55.8298 3.2642 56.2475 3.33546 56.6518 3.47798C57.0562 3.6205 57.4191 3.84422 57.7406 4.14915C58.0621 4.45407 58.3156 4.85014 58.5012 5.33736C58.6868 5.82126 58.7797 6.40956 58.7797 7.10227V7.62926H52.7093V6.51562H57.323C57.323 6.12453 57.2434 5.77817 57.0843 5.47656C56.9252 5.17164 56.7015 4.93134 56.4132 4.75568C56.1281 4.58002 55.7934 4.49219 55.4089 4.49219C54.9913 4.49219 54.6267 4.59493 54.3152 4.80043C54.0069 5.0026 53.7683 5.26776 53.5993 5.59588C53.4335 5.92069 53.3507 6.27367 53.3507 6.65483V7.52486C53.3507 8.03527 53.4402 8.46946 53.6191 8.82741C53.8014 9.18537 54.055 9.45881 54.3798 9.64773C54.7046 9.83333 55.0841 9.92614 55.5183 9.92614C55.8 9.92614 56.0569 9.88636 56.2889 9.80682C56.5209 9.72396 56.7214 9.60133 56.8904 9.43892C57.0595 9.27652 57.1887 9.07599 57.2782 8.83736L58.6852 9.09091C58.5725 9.50521 58.3703 9.86813 58.0787 10.1797C57.7903 10.4879 57.4274 10.7282 56.9899 10.9006C56.5557 11.0696 56.0602 11.1541 55.5034 11.1541ZM64.9283 6.05327V7.34091H60.4141V6.05327H64.9283ZM68.396 6.46591V11H66.9094V3.36364H68.3363V4.60653H68.4308C68.6064 4.20218 68.8815 3.87737 69.256 3.6321C69.6339 3.38684 70.1095 3.2642 70.6829 3.2642C71.2032 3.2642 71.659 3.37358 72.0501 3.59233C72.4412 3.80777 72.7444 4.12926 72.9599 4.55682C73.1753 4.98437 73.283 5.51302 73.283 6.14276V11H71.7965V6.32173C71.7965 5.76823 71.6523 5.3357 71.364 5.02415C71.0756 4.70928 70.6796 4.55185 70.1758 4.55185C69.8311 4.55185 69.5245 4.62642 69.256 4.77557C68.9909 4.92472 68.7804 5.14347 68.6246 5.43182C68.4722 5.71686 68.396 6.06155 68.396 6.46591ZM78.4933 11.1541C77.7773 11.1541 77.1526 10.9901 76.619 10.6619C76.0853 10.3338 75.671 9.87476 75.3761 9.2848C75.0811 8.69484 74.9336 8.00544 74.9336 7.21662C74.9336 6.42448 75.0811 5.73177 75.3761 5.13849C75.671 4.54522 76.0853 4.08452 76.619 3.75639C77.1526 3.42827 77.7773 3.2642 78.4933 3.2642C79.2092 3.2642 79.8339 3.42827 80.3675 3.75639C80.9012 4.08452 81.3155 4.54522 81.6104 5.13849C81.9054 5.73177 82.0529 6.42448 82.0529 7.21662C82.0529 8.00544 81.9054 8.69484 81.6104 9.2848C81.3155 9.87476 80.9012 10.3338 80.3675 10.6619C79.8339 10.9901 79.2092 11.1541 78.4933 11.1541ZM78.4982 9.90625C78.9622 9.90625 79.3467 9.78362 79.6516 9.53835C79.9566 9.29309 80.1819 8.96662 80.3278 8.55895C80.4769 8.15128 80.5515 7.70218 80.5515 7.21165C80.5515 6.72443 80.4769 6.27699 80.3278 5.86932C80.1819 5.45833 79.9566 5.12855 79.6516 4.87997C79.3467 4.63139 78.9622 4.5071 78.4982 4.5071C78.0309 4.5071 77.6431 4.63139 77.3349 4.87997C77.0299 5.12855 76.8029 5.45833 76.6538 5.86932C76.5079 6.27699 76.435 6.72443 76.435 7.21165C76.435 7.70218 76.5079 8.15128 76.6538 8.55895C76.8029 8.96662 77.0299 9.29309 77.3349 9.53835C77.6431 9.78362 78.0309 9.90625 78.4982 9.90625ZM87.2768 3.36364V4.55682H83.1056V3.36364H87.2768ZM84.2243 1.53409H85.7108V8.75781C85.7108 9.04616 85.7538 9.26326 85.84 9.40909C85.9262 9.55161 86.0372 9.64938 86.1731 9.70241C86.3123 9.75213 86.4631 9.77699 86.6255 9.77699C86.7449 9.77699 86.8493 9.7687 86.9387 9.75213C87.0282 9.73556 87.0978 9.7223 87.1475 9.71236L87.416 10.9403C87.3298 10.9735 87.2072 11.0066 87.0481 11.0398C86.889 11.0762 86.6902 11.0961 86.4515 11.0994C86.0604 11.1061 85.6958 11.0365 85.3578 10.8906C85.0197 10.7448 84.7463 10.5194 84.5375 10.2145C84.3287 9.90956 84.2243 9.52675 84.2243 9.06605V1.53409ZM88.9212 11V3.36364H90.4077V11H88.9212ZM89.6719 2.18537C89.4134 2.18537 89.1913 2.09919 89.0057 1.92685C88.8234 1.75118 88.7322 1.54238 88.7322 1.30043C88.7322 1.05516 88.8234 0.846354 89.0057 0.674005C89.1913 0.498342 89.4134 0.410511 89.6719 0.410511C89.9304 0.410511 90.1508 0.498342 90.3331 0.674005C90.5187 0.846354 90.6115 1.05516 90.6115 1.30043C90.6115 1.54238 90.5187 1.75118 90.3331 1.92685C90.1508 2.09919 89.9304 2.18537 89.6719 2.18537ZM96.0417 3.36364V4.55682H91.7264V3.36364H96.0417ZM92.9096 11V2.47869C92.9096 2.00142 93.014 1.60535 93.2228 1.29048C93.4316 0.972301 93.7084 0.735322 94.0531 0.579545C94.3978 0.420454 94.7723 0.340908 95.1767 0.340908C95.475 0.340908 95.7302 0.365767 95.9423 0.415483C96.1544 0.461884 96.3118 0.504971 96.4146 0.544744L96.0666 1.74787C95.997 1.72798 95.9075 1.70478 95.7981 1.67827C95.6887 1.64844 95.5562 1.63352 95.4004 1.63352C95.0391 1.63352 94.7806 1.72301 94.6248 1.90199C94.4724 2.08097 94.3961 2.33949 94.3961 2.67756V11H92.9096ZM97.5755 11V3.36364H99.062V11H97.5755ZM98.3262 2.18537C98.0676 2.18537 97.8456 2.09919 97.66 1.92685C97.4777 1.75118 97.3865 1.54238 97.3865 1.30043C97.3865 1.05516 97.4777 0.846354 97.66 0.674005C97.8456 0.498342 98.0676 0.410511 98.3262 0.410511C98.5847 0.410511 98.8051 0.498342 98.9874 0.674005C99.173 0.846354 99.2658 1.05516 99.2658 1.30043C99.2658 1.54238 99.173 1.75118 98.9874 1.92685C98.8051 2.09919 98.5847 2.18537 98.3262 2.18537ZM104.278 11.1541C103.539 11.1541 102.903 10.9867 102.369 10.652C101.839 10.3139 101.431 9.84825 101.146 9.25497C100.861 8.66169 100.719 7.98224 100.719 7.21662C100.719 6.44105 100.865 5.75663 101.156 5.16335C101.448 4.56676 101.859 4.10109 102.389 3.76633C102.92 3.43158 103.544 3.2642 104.263 3.2642C104.844 3.2642 105.361 3.37192 105.815 3.58736C106.269 3.79948 106.635 4.09777 106.913 4.48224C107.195 4.86671 107.362 5.31581 107.415 5.82955H105.969C105.889 5.47159 105.707 5.16335 105.422 4.90483C105.14 4.64631 104.762 4.51705 104.288 4.51705C103.874 4.51705 103.511 4.62642 103.2 4.84517C102.891 5.06061 102.651 5.36884 102.479 5.76989C102.306 6.16761 102.22 6.63826 102.22 7.18182C102.22 7.73864 102.305 8.21922 102.474 8.62358C102.643 9.02794 102.881 9.34115 103.19 9.56321C103.501 9.78527 103.867 9.89631 104.288 9.89631C104.57 9.89631 104.825 9.84493 105.054 9.74219C105.286 9.63613 105.48 9.48532 105.636 9.28977C105.795 9.09422 105.906 8.8589 105.969 8.58381H107.415C107.362 9.07765 107.202 9.51847 106.933 9.90625C106.665 10.294 106.305 10.599 105.854 10.821C105.407 11.0431 104.882 11.1541 104.278 11.1541ZM111.227 11.169C110.744 11.169 110.306 11.0795 109.915 10.9006C109.524 10.7183 109.214 10.4548 108.985 10.1101C108.76 9.76539 108.647 9.3428 108.647 8.84233C108.647 8.41146 108.73 8.05682 108.896 7.77841C109.061 7.5 109.285 7.27959 109.567 7.11719C109.849 6.95478 110.164 6.83215 110.512 6.74929C110.86 6.66643 111.214 6.60346 111.575 6.56037C112.033 6.50734 112.404 6.46425 112.689 6.43111C112.974 6.39465 113.181 6.33665 113.311 6.2571C113.44 6.17756 113.504 6.0483 113.504 5.86932V5.83452C113.504 5.40033 113.382 5.06392 113.137 4.82528C112.895 4.58665 112.533 4.46733 112.053 4.46733C111.552 4.46733 111.158 4.57836 110.869 4.80043C110.584 5.01918 110.387 5.26278 110.278 5.53125L108.881 5.21307C109.047 4.74905 109.289 4.37453 109.607 4.08949C109.928 3.80114 110.298 3.59233 110.715 3.46307C111.133 3.33049 111.572 3.2642 112.033 3.2642C112.338 3.2642 112.661 3.30066 113.002 3.37358C113.347 3.44318 113.669 3.57244 113.967 3.76136C114.268 3.95028 114.515 4.22041 114.708 4.57173C114.9 4.91974 114.996 5.37216 114.996 5.92898V11H113.544V9.95597H113.485C113.388 10.1482 113.244 10.3371 113.052 10.5227C112.86 10.7083 112.613 10.8625 112.311 10.9851C112.01 11.1077 111.648 11.169 111.227 11.169ZM111.551 9.97585C111.962 9.97585 112.313 9.89465 112.605 9.73224C112.9 9.56984 113.123 9.35772 113.276 9.09588C113.432 8.83073 113.509 8.54735 113.509 8.24574V7.26136C113.456 7.31439 113.354 7.36411 113.201 7.41051C113.052 7.4536 112.881 7.49171 112.689 7.52486C112.497 7.55469 112.31 7.58286 112.127 7.60938C111.945 7.63258 111.793 7.65246 111.67 7.66903C111.382 7.70549 111.118 7.76681 110.879 7.85298C110.644 7.93916 110.455 8.06345 110.313 8.22585C110.173 8.38494 110.104 8.59706 110.104 8.86222C110.104 9.23011 110.24 9.50852 110.512 9.69744C110.783 9.88305 111.13 9.97585 111.551 9.97585ZM120.54 3.36364V4.55682H116.369V3.36364H120.54ZM117.488 1.53409H118.974V8.75781C118.974 9.04616 119.018 9.26326 119.104 9.40909C119.19 9.55161 119.301 9.64938 119.437 9.70241C119.576 9.75213 119.727 9.77699 119.889 9.77699C120.009 9.77699 120.113 9.7687 120.202 9.75213C120.292 9.73556 120.362 9.7223 120.411 9.71236L120.68 10.9403C120.594 10.9735 120.471 11.0066 120.312 11.0398C120.153 11.0762 119.954 11.0961 119.715 11.0994C119.324 11.1061 118.96 11.0365 118.621 10.8906C118.283 10.7448 118.01 10.5194 117.801 10.2145C117.592 9.90956 117.488 9.52675 117.488 9.06605V1.53409ZM122.185 11V3.36364H123.671V11H122.185ZM122.936 2.18537C122.677 2.18537 122.455 2.09919 122.269 1.92685C122.087 1.75118 121.996 1.54238 121.996 1.30043C121.996 1.05516 122.087 0.846354 122.269 0.674005C122.455 0.498342 122.677 0.410511 122.936 0.410511C123.194 0.410511 123.414 0.498342 123.597 0.674005C123.782 0.846354 123.875 1.05516 123.875 1.30043C123.875 1.54238 123.782 1.75118 123.597 1.92685C123.414 2.09919 123.194 2.18537 122.936 2.18537ZM128.888 11.1541C128.172 11.1541 127.547 10.9901 127.013 10.6619C126.48 10.3338 126.066 9.87476 125.771 9.2848C125.476 8.69484 125.328 8.00544 125.328 7.21662C125.328 6.42448 125.476 5.73177 125.771 5.13849C126.066 4.54522 126.48 4.08452 127.013 3.75639C127.547 3.42827 128.172 3.2642 128.888 3.2642C129.604 3.2642 130.228 3.42827 130.762 3.75639C131.296 4.08452 131.71 4.54522 132.005 5.13849C132.3 5.73177 132.447 6.42448 132.447 7.21662C132.447 8.00544 132.3 8.69484 132.005 9.2848C131.71 9.87476 131.296 10.3338 130.762 10.6619C130.228 10.9901 129.604 11.1541 128.888 11.1541ZM128.893 9.90625C129.357 9.90625 129.741 9.78362 130.046 9.53835C130.351 9.29309 130.576 8.96662 130.722 8.55895C130.871 8.15128 130.946 7.70218 130.946 7.21165C130.946 6.72443 130.871 6.27699 130.722 5.86932C130.576 5.45833 130.351 5.12855 130.046 4.87997C129.741 4.63139 129.357 4.5071 128.893 4.5071C128.425 4.5071 128.038 4.63139 127.729 4.87997C127.424 5.12855 127.197 5.45833 127.048 5.86932C126.902 6.27699 126.83 6.72443 126.83 7.21165C126.83 7.70218 126.902 8.15128 127.048 8.55895C127.197 8.96662 127.424 9.29309 127.729 9.53835C128.038 9.78362 128.425 9.90625 128.893 9.90625ZM135.593 6.46591V11H134.107V3.36364H135.534V4.60653H135.628C135.804 4.20218 136.079 3.87737 136.453 3.6321C136.831 3.38684 137.307 3.2642 137.88 3.2642C138.401 3.2642 138.856 3.37358 139.247 3.59233C139.638 3.80777 139.942 4.12926 140.157 4.55682C140.373 4.98437 140.48 5.51302 140.48 6.14276V11H138.994V6.32173C138.994 5.76823 138.85 5.3357 138.561 5.02415C138.273 4.70928 137.877 4.55185 137.373 4.55185C137.028 4.55185 136.722 4.62642 136.453 4.77557C136.188 4.92472 135.978 5.14347 135.822 5.43182C135.669 5.71686 135.593 6.06155 135.593 6.46591ZM146.973 6.05327V7.34091H142.459V6.05327H146.973ZM152.171 11.1541C151.432 11.1541 150.796 10.9867 150.262 10.652C149.732 10.3139 149.324 9.84825 149.039 9.25497C148.754 8.66169 148.611 7.98224 148.611 7.21662C148.611 6.44105 148.757 5.75663 149.049 5.16335C149.34 4.56676 149.751 4.10109 150.282 3.76633C150.812 3.43158 151.437 3.2642 152.156 3.2642C152.736 3.2642 153.253 3.37192 153.707 3.58736C154.161 3.79948 154.528 4.09777 154.806 4.48224C155.088 4.86671 155.255 5.31581 155.308 5.82955H153.861C153.782 5.47159 153.599 5.16335 153.314 4.90483C153.033 4.64631 152.655 4.51705 152.181 4.51705C151.767 4.51705 151.404 4.62642 151.092 4.84517C150.784 5.06061 150.544 5.36884 150.371 5.76989C150.199 6.16761 150.113 6.63826 150.113 7.18182C150.113 7.73864 150.197 8.21922 150.366 8.62358C150.535 9.02794 150.774 9.34115 151.082 9.56321C151.394 9.78527 151.76 9.89631 152.181 9.89631C152.463 9.89631 152.718 9.84493 152.947 9.74219C153.179 9.63613 153.372 9.48532 153.528 9.28977C153.687 9.09422 153.798 8.8589 153.861 8.58381H155.308C155.255 9.07765 155.094 9.51847 154.826 9.90625C154.557 10.294 154.198 10.599 153.747 10.821C153.3 11.0431 152.774 11.1541 152.171 11.1541ZM156.898 11V3.36364H158.384V11H156.898ZM157.648 2.18537C157.39 2.18537 157.168 2.09919 156.982 1.92685C156.8 1.75118 156.709 1.54238 156.709 1.30043C156.709 1.05516 156.8 0.846354 156.982 0.674005C157.168 0.498342 157.39 0.410511 157.648 0.410511C157.907 0.410511 158.127 0.498342 158.31 0.674005C158.495 0.846354 158.588 1.05516 158.588 1.30043C158.588 1.54238 158.495 1.75118 158.31 1.92685C158.127 2.09919 157.907 2.18537 157.648 2.18537ZM160.384 11V3.36364H161.821V4.5767H161.9C162.04 4.16572 162.285 3.84257 162.636 3.60724C162.991 3.36861 163.392 3.24929 163.839 3.24929C163.932 3.24929 164.041 3.2526 164.167 3.25923C164.297 3.26586 164.398 3.27415 164.471 3.28409V4.70597C164.411 4.68939 164.305 4.67116 164.153 4.65128C164 4.62808 163.848 4.61648 163.695 4.61648C163.344 4.61648 163.031 4.69105 162.756 4.8402C162.484 4.98603 162.268 5.18987 162.109 5.4517C161.95 5.71023 161.871 6.00521 161.871 6.33665V11H160.384ZM168.7 11.1541C167.961 11.1541 167.325 10.9867 166.791 10.652C166.261 10.3139 165.853 9.84825 165.568 9.25497C165.283 8.66169 165.141 7.98224 165.141 7.21662C165.141 6.44105 165.286 5.75663 165.578 5.16335C165.87 4.56676 166.281 4.10109 166.811 3.76633C167.341 3.43158 167.966 3.2642 168.685 3.2642C169.265 3.2642 169.782 3.37192 170.237 3.58736C170.691 3.79948 171.057 4.09777 171.335 4.48224C171.617 4.86671 171.784 5.31581 171.837 5.82955H170.391C170.311 5.47159 170.129 5.16335 169.844 4.90483C169.562 4.64631 169.184 4.51705 168.71 4.51705C168.296 4.51705 167.933 4.62642 167.621 4.84517C167.313 5.06061 167.073 5.36884 166.901 5.76989C166.728 6.16761 166.642 6.63826 166.642 7.18182C166.642 7.73864 166.727 8.21922 166.896 8.62358C167.065 9.02794 167.303 9.34115 167.612 9.56321C167.923 9.78527 168.289 9.89631 168.71 9.89631C168.992 9.89631 169.247 9.84493 169.476 9.74219C169.708 9.63613 169.902 9.48532 170.058 9.28977C170.217 9.09422 170.328 8.8589 170.391 8.58381H171.837C171.784 9.07765 171.624 9.51847 171.355 9.90625C171.087 10.294 170.727 10.599 170.276 10.821C169.829 11.0431 169.304 11.1541 168.7 11.1541ZM174.914 0.818182V11H173.427V0.818182H174.914ZM180.205 11.1541C179.452 11.1541 178.804 10.9934 178.261 10.6719C177.72 10.3471 177.303 9.89134 177.008 9.30469C176.716 8.71473 176.57 8.02367 176.57 7.23153C176.57 6.44934 176.716 5.75994 177.008 5.16335C177.303 4.56676 177.714 4.10109 178.241 3.76633C178.771 3.43158 179.391 3.2642 180.1 3.2642C180.531 3.2642 180.949 3.33546 181.353 3.47798C181.757 3.6205 182.12 3.84422 182.442 4.14915C182.763 4.45407 183.017 4.85014 183.202 5.33736C183.388 5.82126 183.481 6.40956 183.481 7.10227V7.62926H177.411V6.51562H182.024C182.024 6.12453 181.945 5.77817 181.786 5.47656C181.626 5.17164 181.403 4.93134 181.114 4.75568C180.829 4.58002 180.495 4.49219 180.11 4.49219C179.692 4.49219 179.328 4.59493 179.016 4.80043C178.708 5.0026 178.469 5.26776 178.3 5.59588C178.135 5.92069 178.052 6.27367 178.052 6.65483V7.52486C178.052 8.03527 178.141 8.46946 178.32 8.82741C178.503 9.18537 178.756 9.45881 179.081 9.64773C179.406 9.83333 179.785 9.92614 180.219 9.92614C180.501 9.92614 180.758 9.88636 180.99 9.80682C181.222 9.72396 181.423 9.60133 181.592 9.43892C181.761 9.27652 181.89 9.07599 181.979 8.83736L183.386 9.09091C183.274 9.50521 183.071 9.86813 182.78 10.1797C182.491 10.4879 182.129 10.7282 181.691 10.9006C181.257 11.0696 180.761 11.1541 180.205 11.1541Z" fill="black"/>
</svg>
