<svg width="136" height="15" viewBox="0 0 136 15" fill="none" xmlns="http://www.w3.org/2000/svg">
<path d="M-0.000710189 11V3.36364H1.42614V4.60653H1.5206C1.67969 4.18561 1.93987 3.85748 2.30114 3.62216C2.66241 3.38352 3.09493 3.2642 3.59872 3.2642C4.10914 3.2642 4.5367 3.38352 4.88139 3.62216C5.2294 3.8608 5.48627 4.18892 5.65199 4.60653H5.73153C5.91383 4.19886 6.20384 3.87405 6.60156 3.6321C6.99929 3.38684 7.47325 3.2642 8.02344 3.2642C8.71615 3.2642 9.28125 3.4813 9.71875 3.91548C10.1596 4.34967 10.38 5.00426 10.38 5.87926V11H8.89347V6.01847C8.89347 5.50142 8.7526 5.12689 8.47088 4.89489C8.18916 4.66288 7.85275 4.54688 7.46165 4.54688C6.97775 4.54688 6.60156 4.69602 6.3331 4.99432C6.06463 5.2893 5.9304 5.6688 5.9304 6.13281V11H4.44886V5.92401C4.44886 5.50971 4.3196 5.17661 4.06108 4.92472C3.80256 4.67282 3.46615 4.54688 3.05185 4.54688C2.77012 4.54688 2.50994 4.62145 2.27131 4.7706C2.03599 4.91643 1.84541 5.12026 1.69957 5.3821C1.55706 5.64394 1.4858 5.94721 1.4858 6.2919V11H-0.000710189ZM15.6635 11.1541C14.9112 11.1541 14.2632 10.9934 13.7196 10.6719C13.1794 10.3471 12.7618 9.89134 12.4668 9.30469C12.1751 8.71473 12.0293 8.02367 12.0293 7.23153C12.0293 6.44934 12.1751 5.75994 12.4668 5.16335C12.7618 4.56676 13.1728 4.10109 13.6998 3.76633C14.2301 3.43158 14.8498 3.2642 15.5591 3.2642C15.99 3.2642 16.4076 3.33546 16.812 3.47798C17.2163 3.6205 17.5792 3.84422 17.9007 4.14915C18.2222 4.45407 18.4758 4.85014 18.6614 5.33736C18.847 5.82126 18.9398 6.40956 18.9398 7.10227V7.62926H12.8695V6.51562H17.4831C17.4831 6.12453 17.4036 5.77817 17.2445 5.47656C17.0854 5.17164 16.8617 4.93134 16.5733 4.75568C16.2883 4.58002 15.9535 4.49219 15.5691 4.49219C15.1515 4.49219 14.7869 4.59493 14.4753 4.80043C14.1671 5.0026 13.9284 5.26776 13.7594 5.59588C13.5937 5.92069 13.5108 6.27367 13.5108 6.65483V7.52486C13.5108 8.03527 13.6003 8.46946 13.7793 8.82741C13.9616 9.18537 14.2151 9.45881 14.54 9.64773C14.8648 9.83333 15.2443 9.92614 15.6784 9.92614C15.9602 9.92614 16.217 9.88636 16.449 9.80682C16.681 9.72396 16.8816 9.60133 17.0506 9.43892C17.2196 9.27652 17.3489 9.07599 17.4384 8.83736L18.8453 9.09091C18.7327 9.50521 18.5305 9.86813 18.2388 10.1797C17.9505 10.4879 17.5875 10.7282 17.15 10.9006C16.7158 11.0696 16.2203 11.1541 15.6635 11.1541ZM26.3114 5.22798L24.9641 5.46662C24.9078 5.29427 24.8183 5.13021 24.6957 4.97443C24.5763 4.81865 24.4139 4.69105 24.2085 4.59162C24.003 4.49219 23.7461 4.44247 23.4379 4.44247C23.0169 4.44247 22.6656 4.53693 22.3839 4.72585C22.1022 4.91146 21.9613 5.15175 21.9613 5.44673C21.9613 5.70194 22.0558 5.90743 22.2447 6.06321C22.4336 6.21899 22.7385 6.34659 23.1594 6.44602L24.3725 6.72443C25.0752 6.88684 25.5988 7.13707 25.9435 7.47514C26.2882 7.81321 26.4606 8.25237 26.4606 8.79261C26.4606 9.25 26.328 9.65767 26.0629 10.0156C25.801 10.3703 25.4348 10.6487 24.9641 10.8509C24.4968 11.053 23.9549 11.1541 23.3384 11.1541C22.4833 11.1541 21.7856 10.9718 21.2454 10.6072C20.7051 10.2393 20.3737 9.71733 20.2511 9.04119L21.6879 8.82244C21.7773 9.19697 21.9613 9.48035 22.2397 9.67259C22.5181 9.86151 22.881 9.95597 23.3285 9.95597C23.8157 9.95597 24.2051 9.85488 24.4968 9.6527C24.7885 9.44721 24.9343 9.19697 24.9343 8.90199C24.9343 8.66335 24.8448 8.46283 24.6658 8.30043C24.4902 8.13802 24.2201 8.01539 23.8555 7.93253L22.5629 7.64915C21.8503 7.48674 21.3233 7.22822 20.9819 6.87358C20.6438 6.51894 20.4748 6.06984 20.4748 5.52628C20.4748 5.07552 20.6007 4.68111 20.8526 4.34304C21.1045 4.00497 21.4525 3.74148 21.8967 3.55256C22.3408 3.36032 22.8496 3.2642 23.4229 3.2642C24.2482 3.2642 24.8978 3.44318 25.3718 3.80114C25.8458 4.15578 26.159 4.63139 26.3114 5.22798ZM33.8173 5.22798L32.47 5.46662C32.4136 5.29427 32.3242 5.13021 32.2015 4.97443C32.0822 4.81865 31.9198 4.69105 31.7143 4.59162C31.5088 4.49219 31.252 4.44247 30.9437 4.44247C30.5228 4.44247 30.1715 4.53693 29.8897 4.72585C29.608 4.91146 29.4672 5.15175 29.4672 5.44673C29.4672 5.70194 29.5616 5.90743 29.7505 6.06321C29.9395 6.21899 30.2444 6.34659 30.6653 6.44602L31.8784 6.72443C32.581 6.88684 33.1047 7.13707 33.4494 7.47514C33.7941 7.81321 33.9664 8.25237 33.9664 8.79261C33.9664 9.25 33.8339 9.65767 33.5687 10.0156C33.3069 10.3703 32.9406 10.6487 32.47 10.8509C32.0027 11.053 31.4608 11.1541 30.8443 11.1541C29.9892 11.1541 29.2915 10.9718 28.7512 10.6072C28.211 10.2393 27.8796 9.71733 27.7569 9.04119L29.1937 8.82244C29.2832 9.19697 29.4672 9.48035 29.7456 9.67259C30.024 9.86151 30.3869 9.95597 30.8343 9.95597C31.3216 9.95597 31.711 9.85488 32.0027 9.6527C32.2943 9.44721 32.4402 9.19697 32.4402 8.90199C32.4402 8.66335 32.3507 8.46283 32.1717 8.30043C31.996 8.13802 31.7259 8.01539 31.3613 7.93253L30.0687 7.64915C29.3561 7.48674 28.8291 7.22822 28.4877 6.87358C28.1497 6.51894 27.9806 6.06984 27.9806 5.52628C27.9806 5.07552 28.1066 4.68111 28.3585 4.34304C28.6104 4.00497 28.9584 3.74148 29.4025 3.55256C29.8467 3.36032 30.3554 3.2642 30.9288 3.2642C31.7541 3.2642 32.4037 3.44318 32.8777 3.80114C33.3516 4.15578 33.6648 4.63139 33.8173 5.22798ZM37.8232 11.169C37.3393 11.169 36.9018 11.0795 36.5107 10.9006C36.1196 10.7183 35.8097 10.4548 35.581 10.1101C35.3556 9.76539 35.2429 9.3428 35.2429 8.84233C35.2429 8.41146 35.3258 8.05682 35.4915 7.77841C35.6572 7.5 35.8809 7.27959 36.1626 7.11719C36.4444 6.95478 36.7592 6.83215 37.1072 6.74929C37.4553 6.66643 37.8099 6.60346 38.1712 6.56037C38.6286 6.50734 38.9998 6.46425 39.2848 6.43111C39.5698 6.39465 39.777 6.33665 39.9062 6.2571C40.0355 6.17756 40.1001 6.0483 40.1001 5.86932V5.83452C40.1001 5.40033 39.9775 5.06392 39.7322 4.82528C39.4903 4.58665 39.129 4.46733 38.6484 4.46733C38.148 4.46733 37.7536 4.57836 37.4652 4.80043C37.1802 5.01918 36.983 5.26278 36.8736 5.53125L35.4766 5.21307C35.6423 4.74905 35.8842 4.37453 36.2024 4.08949C36.5239 3.80114 36.8935 3.59233 37.3111 3.46307C37.7287 3.33049 38.1679 3.2642 38.6286 3.2642C38.9335 3.2642 39.2566 3.30066 39.598 3.37358C39.9427 3.44318 40.2642 3.57244 40.5625 3.76136C40.8641 3.95028 41.111 4.22041 41.3033 4.57173C41.4955 4.91974 41.5916 5.37216 41.5916 5.92898V11H40.1399V9.95597H40.0803C39.9841 10.1482 39.84 10.3371 39.6477 10.5227C39.4555 10.7083 39.2086 10.8625 38.907 10.9851C38.6054 11.1077 38.2441 11.169 37.8232 11.169ZM38.1463 9.97585C38.5573 9.97585 38.9086 9.89465 39.2003 9.73224C39.4953 9.56984 39.719 9.35772 39.8714 9.09588C40.0272 8.83073 40.1051 8.54735 40.1051 8.24574V7.26136C40.0521 7.31439 39.9493 7.36411 39.7969 7.41051C39.6477 7.4536 39.477 7.49171 39.2848 7.52486C39.0926 7.55469 38.9053 7.58286 38.723 7.60938C38.5407 7.63258 38.3883 7.65246 38.2656 7.66903C37.9773 7.70549 37.7138 7.76681 37.4751 7.85298C37.2398 7.93916 37.0509 8.06345 36.9084 8.22585C36.7692 8.38494 36.6996 8.59706 36.6996 8.86222C36.6996 9.23011 36.8355 9.50852 37.1072 9.69744C37.379 9.88305 37.7254 9.97585 38.1463 9.97585ZM46.7733 14.0227C46.1667 14.0227 45.6447 13.9432 45.2072 13.7841C44.773 13.625 44.4184 13.4145 44.1433 13.1527C43.8682 12.8909 43.6627 12.6042 43.5268 12.2926L44.8045 11.7656C44.894 11.9115 45.0133 12.0656 45.1625 12.228C45.3149 12.3937 45.5204 12.5346 45.7789 12.6506C46.0408 12.7666 46.3772 12.8246 46.7882 12.8246C47.3516 12.8246 47.8173 12.687 48.1852 12.4119C48.5531 12.1402 48.737 11.706 48.737 11.1094V9.60795H48.6426C48.5531 9.77036 48.4238 9.95099 48.2548 10.1499C48.0891 10.3487 47.8604 10.5211 47.5687 10.6669C47.277 10.8127 46.8975 10.8857 46.4302 10.8857C45.827 10.8857 45.2834 10.7448 44.7995 10.4631C44.319 10.178 43.9378 9.75876 43.6561 9.20526C43.3777 8.64844 43.2385 7.96401 43.2385 7.15199C43.2385 6.33996 43.376 5.64394 43.6511 5.06392C43.9295 4.4839 44.3107 4.03977 44.7946 3.73153C45.2785 3.41998 45.827 3.2642 46.4402 3.2642C46.9141 3.2642 47.2969 3.34375 47.5886 3.50284C47.8803 3.65862 48.1073 3.84091 48.2697 4.04972C48.4354 4.25852 48.563 4.44247 48.6525 4.60156H48.7619V3.36364H50.2186V11.169C50.2186 11.8253 50.0661 12.3639 49.7612 12.7848C49.4563 13.2057 49.0436 13.5173 48.5233 13.7195C48.0062 13.9216 47.4229 14.0227 46.7733 14.0227ZM46.7583 9.6527C47.1859 9.6527 47.5472 9.55327 47.8422 9.3544C48.1404 9.15223 48.3658 8.86387 48.5183 8.48935C48.6741 8.11151 48.752 7.65909 48.752 7.1321C48.752 6.61837 48.6757 6.16596 48.5233 5.77486C48.3708 5.38376 48.1471 5.07884 47.8521 4.86009C47.5571 4.63802 47.1925 4.52699 46.7583 4.52699C46.3109 4.52699 45.938 4.64299 45.6397 4.875C45.3414 5.10369 45.1161 5.41525 44.9636 5.80966C44.8145 6.20407 44.7399 6.64489 44.7399 7.1321C44.7399 7.63258 44.8161 8.07173 44.9686 8.44957C45.121 8.82741 45.3464 9.1224 45.6447 9.33452C45.9463 9.54664 46.3175 9.6527 46.7583 9.6527ZM55.5034 11.1541C54.751 11.1541 54.103 10.9934 53.5595 10.6719C53.0192 10.3471 52.6016 9.89134 52.3066 9.30469C52.015 8.71473 51.8691 8.02367 51.8691 7.23153C51.8691 6.44934 52.015 5.75994 52.3066 5.16335C52.6016 4.56676 53.0126 4.10109 53.5396 3.76633C54.0699 3.43158 54.6897 3.2642 55.399 3.2642C55.8298 3.2642 56.2475 3.33546 56.6518 3.47798C57.0562 3.6205 57.4191 3.84422 57.7406 4.14915C58.0621 4.45407 58.3156 4.85014 58.5012 5.33736C58.6868 5.82126 58.7797 6.40956 58.7797 7.10227V7.62926H52.7093V6.51562H57.323C57.323 6.12453 57.2434 5.77817 57.0843 5.47656C56.9252 5.17164 56.7015 4.93134 56.4132 4.75568C56.1281 4.58002 55.7934 4.49219 55.4089 4.49219C54.9913 4.49219 54.6267 4.59493 54.3152 4.80043C54.0069 5.0026 53.7683 5.26776 53.5993 5.59588C53.4335 5.92069 53.3507 6.27367 53.3507 6.65483V7.52486C53.3507 8.03527 53.4402 8.46946 53.6191 8.82741C53.8014 9.18537 54.055 9.45881 54.3798 9.64773C54.7046 9.83333 55.0841 9.92614 55.5183 9.92614C55.8 9.92614 56.0569 9.88636 56.2889 9.80682C56.5209 9.72396 56.7214 9.60133 56.8904 9.43892C57.0595 9.27652 57.1887 9.07599 57.2782 8.83736L58.6852 9.09091C58.5725 9.50521 58.3703 9.86813 58.0787 10.1797C57.7903 10.4879 57.4274 10.7282 56.9899 10.9006C56.5557 11.0696 56.0602 11.1541 55.5034 11.1541ZM64.9283 6.05327V7.34091H60.4141V6.05327H64.9283ZM66.9094 13.8636V3.36364H68.3612V4.60156H68.4854C68.5716 4.44247 68.6959 4.25852 68.8583 4.04972C69.0207 3.84091 69.2461 3.65862 69.5344 3.50284C69.8228 3.34375 70.204 3.2642 70.6779 3.2642C71.2944 3.2642 71.8446 3.41998 72.3285 3.73153C72.8124 4.04309 73.1919 4.49219 73.467 5.07884C73.7454 5.66548 73.8846 6.37145 73.8846 7.19673C73.8846 8.02202 73.747 8.72964 73.4719 9.3196C73.1969 9.90625 72.819 10.3587 72.3384 10.6768C71.8578 10.9917 71.3093 11.1491 70.6928 11.1491C70.2288 11.1491 69.8493 11.0713 69.5543 10.9155C69.2627 10.7597 69.034 10.5774 68.8683 10.3686C68.7025 10.1598 68.5749 9.9742 68.4854 9.81179H68.396V13.8636H66.9094ZM68.3661 7.18182C68.3661 7.71875 68.444 8.18939 68.5998 8.59375C68.7556 8.99811 68.9809 9.31463 69.2759 9.54332C69.5709 9.7687 69.9322 9.88139 70.3597 9.88139C70.8039 9.88139 71.1751 9.76373 71.4734 9.52841C71.7717 9.28977 71.997 8.96662 72.1495 8.55895C72.3053 8.15128 72.3832 7.69223 72.3832 7.18182C72.3832 6.67803 72.3069 6.22562 72.1545 5.82457C72.0053 5.42353 71.7799 5.10701 71.4783 4.875C71.18 4.64299 70.8072 4.52699 70.3597 4.52699C69.9289 4.52699 69.5643 4.63802 69.266 4.86009C68.971 5.08215 68.7473 5.39205 68.5948 5.78977C68.4424 6.1875 68.3661 6.65151 68.3661 7.18182ZM77.0366 0.818182V11H75.5501V0.818182H77.0366ZM83.8738 7.8331V3.36364H85.3652V11H83.9036V9.67756H83.824C83.6484 10.0852 83.3667 10.425 82.9789 10.6967C82.5944 10.9652 82.1155 11.0994 81.5421 11.0994C81.0516 11.0994 80.6174 10.9917 80.2395 10.7763C79.865 10.5575 79.57 10.2344 79.3546 9.80682C79.1425 9.37926 79.0364 8.85062 79.0364 8.22088V3.36364H80.5229V8.0419C80.5229 8.56226 80.6671 8.97656 80.9554 9.2848C81.2438 9.59304 81.6183 9.74716 82.079 9.74716C82.3574 9.74716 82.6342 9.67756 82.9093 9.53835C83.1877 9.39915 83.418 9.18868 83.6003 8.90696C83.7859 8.62524 83.8771 8.26728 83.8738 7.8331ZM93.0849 5.22798L91.7376 5.46662C91.6812 5.29427 91.5917 5.13021 91.4691 4.97443C91.3498 4.81865 91.1874 4.69105 90.9819 4.59162C90.7764 4.49219 90.5195 4.44247 90.2113 4.44247C89.7904 4.44247 89.439 4.53693 89.1573 4.72585C88.8756 4.91146 88.7347 5.15175 88.7347 5.44673C88.7347 5.70194 88.8292 5.90743 89.0181 6.06321C89.207 6.21899 89.512 6.34659 89.9329 6.44602L91.146 6.72443C91.8486 6.88684 92.3723 7.13707 92.717 7.47514C93.0617 7.81321 93.234 8.25237 93.234 8.79261C93.234 9.25 93.1014 9.65767 92.8363 10.0156C92.5745 10.3703 92.2082 10.6487 91.7376 10.8509C91.2702 11.053 90.7283 11.1541 90.1119 11.1541C89.2567 11.1541 88.5591 10.9718 88.0188 10.6072C87.4786 10.2393 87.1471 9.71733 87.0245 9.04119L88.4613 8.82244C88.5508 9.19697 88.7347 9.48035 89.0131 9.67259C89.2915 9.86151 89.6545 9.95597 90.1019 9.95597C90.5891 9.95597 90.9786 9.85488 91.2702 9.6527C91.5619 9.44721 91.7077 9.19697 91.7077 8.90199C91.7077 8.66335 91.6183 8.46283 91.4393 8.30043C91.2636 8.13802 90.9935 8.01539 90.6289 7.93253L89.3363 7.64915C88.6237 7.48674 88.0967 7.22822 87.7553 6.87358C87.4173 6.51894 87.2482 6.06984 87.2482 5.52628C87.2482 5.07552 87.3742 4.68111 87.6261 4.34304C87.878 4.00497 88.226 3.74148 88.6701 3.55256C89.1142 3.36032 89.623 3.2642 90.1964 3.2642C91.0217 3.2642 91.6713 3.44318 92.1452 3.80114C92.6192 4.15578 92.9324 4.63139 93.0849 5.22798ZM99.3677 6.05327V7.34091H94.8535V6.05327H99.3677ZM104.566 11.1541C103.826 11.1541 103.19 10.9867 102.656 10.652C102.126 10.3139 101.718 9.84825 101.433 9.25497C101.148 8.66169 101.006 7.98224 101.006 7.21662C101.006 6.44105 101.152 5.75663 101.443 5.16335C101.735 4.56676 102.146 4.10109 102.676 3.76633C103.207 3.43158 103.831 3.2642 104.551 3.2642C105.131 3.2642 105.648 3.37192 106.102 3.58736C106.556 3.79948 106.922 4.09777 107.2 4.48224C107.482 4.86671 107.65 5.31581 107.703 5.82955H106.256C106.176 5.47159 105.994 5.16335 105.709 4.90483C105.427 4.64631 105.049 4.51705 104.575 4.51705C104.161 4.51705 103.798 4.62642 103.487 4.84517C103.178 5.06061 102.938 5.36884 102.766 5.76989C102.593 6.16761 102.507 6.63826 102.507 7.18182C102.507 7.73864 102.592 8.21922 102.761 8.62358C102.93 9.02794 103.169 9.34115 103.477 9.56321C103.788 9.78527 104.155 9.89631 104.575 9.89631C104.857 9.89631 105.112 9.84493 105.341 9.74219C105.573 9.63613 105.767 9.48532 105.923 9.28977C106.082 9.09422 106.193 8.8589 106.256 8.58381H107.703C107.65 9.07765 107.489 9.51847 107.22 9.90625C106.952 10.294 106.592 10.599 106.142 10.821C105.694 11.0431 105.169 11.1541 104.566 11.1541ZM109.292 11V3.36364H110.779V11H109.292ZM110.043 2.18537C109.784 2.18537 109.562 2.09919 109.377 1.92685C109.194 1.75118 109.103 1.54238 109.103 1.30043C109.103 1.05516 109.194 0.846354 109.377 0.674005C109.562 0.498342 109.784 0.410511 110.043 0.410511C110.301 0.410511 110.522 0.498342 110.704 0.674005C110.89 0.846354 110.983 1.05516 110.983 1.30043C110.983 1.54238 110.89 1.75118 110.704 1.92685C110.522 2.09919 110.301 2.18537 110.043 2.18537ZM112.779 11V3.36364H114.215V4.5767H114.295C114.434 4.16572 114.679 3.84257 115.031 3.60724C115.385 3.36861 115.786 3.24929 116.234 3.24929C116.327 3.24929 116.436 3.2526 116.562 3.25923C116.691 3.26586 116.792 3.27415 116.865 3.28409V4.70597C116.806 4.68939 116.7 4.67116 116.547 4.65128C116.395 4.62808 116.242 4.61648 116.09 4.61648C115.738 4.61648 115.425 4.69105 115.15 4.8402C114.878 4.98603 114.663 5.18987 114.504 5.4517C114.345 5.71023 114.265 6.00521 114.265 6.33665V11H112.779ZM121.095 11.1541C120.356 11.1541 119.719 10.9867 119.186 10.652C118.655 10.3139 118.248 9.84825 117.963 9.25497C117.678 8.66169 117.535 7.98224 117.535 7.21662C117.535 6.44105 117.681 5.75663 117.973 5.16335C118.264 4.56676 118.675 4.10109 119.206 3.76633C119.736 3.43158 120.361 3.2642 121.08 3.2642C121.66 3.2642 122.177 3.37192 122.631 3.58736C123.085 3.79948 123.451 4.09777 123.73 4.48224C124.011 4.86671 124.179 5.31581 124.232 5.82955H122.785C122.706 5.47159 122.523 5.16335 122.238 4.90483C121.957 4.64631 121.579 4.51705 121.105 4.51705C120.69 4.51705 120.328 4.62642 120.016 4.84517C119.708 5.06061 119.467 5.36884 119.295 5.76989C119.123 6.16761 119.037 6.63826 119.037 7.18182C119.037 7.73864 119.121 8.21922 119.29 8.62358C119.459 9.02794 119.698 9.34115 120.006 9.56321C120.318 9.78527 120.684 9.89631 121.105 9.89631C121.386 9.89631 121.642 9.84493 121.87 9.74219C122.102 9.63613 122.296 9.48532 122.452 9.28977C122.611 9.09422 122.722 8.8589 122.785 8.58381H124.232C124.179 9.07765 124.018 9.51847 123.75 9.90625C123.481 10.294 123.122 10.599 122.671 10.821C122.223 11.0431 121.698 11.1541 121.095 11.1541ZM127.308 0.818182V11H125.822V0.818182H127.308ZM132.599 11.1541C131.847 11.1541 131.199 10.9934 130.655 10.6719C130.115 10.3471 129.697 9.89134 129.402 9.30469C129.111 8.71473 128.965 8.02367 128.965 7.23153C128.965 6.44934 129.111 5.75994 129.402 5.16335C129.697 4.56676 130.108 4.10109 130.635 3.76633C131.166 3.43158 131.785 3.2642 132.495 3.2642C132.926 3.2642 133.343 3.33546 133.748 3.47798C134.152 3.6205 134.515 3.84422 134.836 4.14915C135.158 4.45407 135.411 4.85014 135.597 5.33736C135.783 5.82126 135.875 6.40956 135.875 7.10227V7.62926H129.805V6.51562H134.419C134.419 6.12453 134.339 5.77817 134.18 5.47656C134.021 5.17164 133.797 4.93134 133.509 4.75568C133.224 4.58002 132.889 4.49219 132.505 4.49219C132.087 4.49219 131.722 4.59493 131.411 4.80043C131.103 5.0026 130.864 5.26776 130.695 5.59588C130.529 5.92069 130.446 6.27367 130.446 6.65483V7.52486C130.446 8.03527 130.536 8.46946 130.715 8.82741C130.897 9.18537 131.151 9.45881 131.475 9.64773C131.8 9.83333 132.18 9.92614 132.614 9.92614C132.896 9.92614 133.153 9.88636 133.385 9.80682C133.617 9.72396 133.817 9.60133 133.986 9.43892C134.155 9.27652 134.284 9.07599 134.374 8.83736L135.781 9.09091C135.668 9.50521 135.466 9.86813 135.174 10.1797C134.886 10.4879 134.523 10.7282 134.086 10.9006C133.651 11.0696 133.156 11.1541 132.599 11.1541Z" fill="black"/>
</svg>
