<svg width="158" height="15" viewBox="0 0 158 15" fill="none" xmlns="http://www.w3.org/2000/svg">
<path d="M-0.000710189 11V3.36364H1.42614V4.60653H1.5206C1.67969 4.18561 1.93987 3.85748 2.30114 3.62216C2.66241 3.38352 3.09493 3.2642 3.59872 3.2642C4.10914 3.2642 4.5367 3.38352 4.88139 3.62216C5.2294 3.8608 5.48627 4.18892 5.65199 4.60653H5.73153C5.91383 4.19886 6.20384 3.87405 6.60156 3.6321C6.99929 3.38684 7.47325 3.2642 8.02344 3.2642C8.71615 3.2642 9.28125 3.4813 9.71875 3.91548C10.1596 4.34967 10.38 5.00426 10.38 5.87926V11H8.89347V6.01847C8.89347 5.50142 8.7526 5.12689 8.47088 4.89489C8.18916 4.66288 7.85275 4.54688 7.46165 4.54688C6.97775 4.54688 6.60156 4.69602 6.3331 4.99432C6.06463 5.2893 5.9304 5.6688 5.9304 6.13281V11H4.44886V5.92401C4.44886 5.50971 4.3196 5.17661 4.06108 4.92472C3.80256 4.67282 3.46615 4.54688 3.05185 4.54688C2.77012 4.54688 2.50994 4.62145 2.27131 4.7706C2.03599 4.91643 1.84541 5.12026 1.69957 5.3821C1.55706 5.64394 1.4858 5.94721 1.4858 6.2919V11H-0.000710189ZM15.6635 11.1541C14.9112 11.1541 14.2632 10.9934 13.7196 10.6719C13.1794 10.3471 12.7618 9.89134 12.4668 9.30469C12.1751 8.71473 12.0293 8.02367 12.0293 7.23153C12.0293 6.44934 12.1751 5.75994 12.4668 5.16335C12.7618 4.56676 13.1728 4.10109 13.6998 3.76633C14.2301 3.43158 14.8498 3.2642 15.5591 3.2642C15.99 3.2642 16.4076 3.33546 16.812 3.47798C17.2163 3.6205 17.5792 3.84422 17.9007 4.14915C18.2222 4.45407 18.4758 4.85014 18.6614 5.33736C18.847 5.82126 18.9398 6.40956 18.9398 7.10227V7.62926H12.8695V6.51562H17.4831C17.4831 6.12453 17.4036 5.77817 17.2445 5.47656C17.0854 5.17164 16.8617 4.93134 16.5733 4.75568C16.2883 4.58002 15.9535 4.49219 15.5691 4.49219C15.1515 4.49219 14.7869 4.59493 14.4753 4.80043C14.1671 5.0026 13.9284 5.26776 13.7594 5.59588C13.5937 5.92069 13.5108 6.27367 13.5108 6.65483V7.52486C13.5108 8.03527 13.6003 8.46946 13.7793 8.82741C13.9616 9.18537 14.2151 9.45881 14.54 9.64773C14.8648 9.83333 15.2443 9.92614 15.6784 9.92614C15.9602 9.92614 16.217 9.88636 16.449 9.80682C16.681 9.72396 16.8816 9.60133 17.0506 9.43892C17.2196 9.27652 17.3489 9.07599 17.4384 8.83736L18.8453 9.09091C18.7327 9.50521 18.5305 9.86813 18.2388 10.1797C17.9505 10.4879 17.5875 10.7282 17.15 10.9006C16.7158 11.0696 16.2203 11.1541 15.6635 11.1541ZM26.3114 5.22798L24.9641 5.46662C24.9078 5.29427 24.8183 5.13021 24.6957 4.97443C24.5763 4.81865 24.4139 4.69105 24.2085 4.59162C24.003 4.49219 23.7461 4.44247 23.4379 4.44247C23.0169 4.44247 22.6656 4.53693 22.3839 4.72585C22.1022 4.91146 21.9613 5.15175 21.9613 5.44673C21.9613 5.70194 22.0558 5.90743 22.2447 6.06321C22.4336 6.21899 22.7385 6.34659 23.1594 6.44602L24.3725 6.72443C25.0752 6.88684 25.5988 7.13707 25.9435 7.47514C26.2882 7.81321 26.4606 8.25237 26.4606 8.79261C26.4606 9.25 26.328 9.65767 26.0629 10.0156C25.801 10.3703 25.4348 10.6487 24.9641 10.8509C24.4968 11.053 23.9549 11.1541 23.3384 11.1541C22.4833 11.1541 21.7856 10.9718 21.2454 10.6072C20.7051 10.2393 20.3737 9.71733 20.2511 9.04119L21.6879 8.82244C21.7773 9.19697 21.9613 9.48035 22.2397 9.67259C22.5181 9.86151 22.881 9.95597 23.3285 9.95597C23.8157 9.95597 24.2051 9.85488 24.4968 9.6527C24.7885 9.44721 24.9343 9.19697 24.9343 8.90199C24.9343 8.66335 24.8448 8.46283 24.6658 8.30043C24.4902 8.13802 24.2201 8.01539 23.8555 7.93253L22.5629 7.64915C21.8503 7.48674 21.3233 7.22822 20.9819 6.87358C20.6438 6.51894 20.4748 6.06984 20.4748 5.52628C20.4748 5.07552 20.6007 4.68111 20.8526 4.34304C21.1045 4.00497 21.4525 3.74148 21.8967 3.55256C22.3408 3.36032 22.8496 3.2642 23.4229 3.2642C24.2482 3.2642 24.8978 3.44318 25.3718 3.80114C25.8458 4.15578 26.159 4.63139 26.3114 5.22798ZM33.8173 5.22798L32.47 5.46662C32.4136 5.29427 32.3242 5.13021 32.2015 4.97443C32.0822 4.81865 31.9198 4.69105 31.7143 4.59162C31.5088 4.49219 31.252 4.44247 30.9437 4.44247C30.5228 4.44247 30.1715 4.53693 29.8897 4.72585C29.608 4.91146 29.4672 5.15175 29.4672 5.44673C29.4672 5.70194 29.5616 5.90743 29.7505 6.06321C29.9395 6.21899 30.2444 6.34659 30.6653 6.44602L31.8784 6.72443C32.581 6.88684 33.1047 7.13707 33.4494 7.47514C33.7941 7.81321 33.9664 8.25237 33.9664 8.79261C33.9664 9.25 33.8339 9.65767 33.5687 10.0156C33.3069 10.3703 32.9406 10.6487 32.47 10.8509C32.0027 11.053 31.4608 11.1541 30.8443 11.1541C29.9892 11.1541 29.2915 10.9718 28.7512 10.6072C28.211 10.2393 27.8796 9.71733 27.7569 9.04119L29.1937 8.82244C29.2832 9.19697 29.4672 9.48035 29.7456 9.67259C30.024 9.86151 30.3869 9.95597 30.8343 9.95597C31.3216 9.95597 31.711 9.85488 32.0027 9.6527C32.2943 9.44721 32.4402 9.19697 32.4402 8.90199C32.4402 8.66335 32.3507 8.46283 32.1717 8.30043C31.996 8.13802 31.7259 8.01539 31.3613 7.93253L30.0687 7.64915C29.3561 7.48674 28.8291 7.22822 28.4877 6.87358C28.1497 6.51894 27.9806 6.06984 27.9806 5.52628C27.9806 5.07552 28.1066 4.68111 28.3585 4.34304C28.6104 4.00497 28.9584 3.74148 29.4025 3.55256C29.8467 3.36032 30.3554 3.2642 30.9288 3.2642C31.7541 3.2642 32.4037 3.44318 32.8777 3.80114C33.3516 4.15578 33.6648 4.63139 33.8173 5.22798ZM37.8232 11.169C37.3393 11.169 36.9018 11.0795 36.5107 10.9006C36.1196 10.7183 35.8097 10.4548 35.581 10.1101C35.3556 9.76539 35.2429 9.3428 35.2429 8.84233C35.2429 8.41146 35.3258 8.05682 35.4915 7.77841C35.6572 7.5 35.8809 7.27959 36.1626 7.11719C36.4444 6.95478 36.7592 6.83215 37.1072 6.74929C37.4553 6.66643 37.8099 6.60346 38.1712 6.56037C38.6286 6.50734 38.9998 6.46425 39.2848 6.43111C39.5698 6.39465 39.777 6.33665 39.9062 6.2571C40.0355 6.17756 40.1001 6.0483 40.1001 5.86932V5.83452C40.1001 5.40033 39.9775 5.06392 39.7322 4.82528C39.4903 4.58665 39.129 4.46733 38.6484 4.46733C38.148 4.46733 37.7536 4.57836 37.4652 4.80043C37.1802 5.01918 36.983 5.26278 36.8736 5.53125L35.4766 5.21307C35.6423 4.74905 35.8842 4.37453 36.2024 4.08949C36.5239 3.80114 36.8935 3.59233 37.3111 3.46307C37.7287 3.33049 38.1679 3.2642 38.6286 3.2642C38.9335 3.2642 39.2566 3.30066 39.598 3.37358C39.9427 3.44318 40.2642 3.57244 40.5625 3.76136C40.8641 3.95028 41.111 4.22041 41.3033 4.57173C41.4955 4.91974 41.5916 5.37216 41.5916 5.92898V11H40.1399V9.95597H40.0803C39.9841 10.1482 39.84 10.3371 39.6477 10.5227C39.4555 10.7083 39.2086 10.8625 38.907 10.9851C38.6054 11.1077 38.2441 11.169 37.8232 11.169ZM38.1463 9.97585C38.5573 9.97585 38.9086 9.89465 39.2003 9.73224C39.4953 9.56984 39.719 9.35772 39.8714 9.09588C40.0272 8.83073 40.1051 8.54735 40.1051 8.24574V7.26136C40.0521 7.31439 39.9493 7.36411 39.7969 7.41051C39.6477 7.4536 39.477 7.49171 39.2848 7.52486C39.0926 7.55469 38.9053 7.58286 38.723 7.60938C38.5407 7.63258 38.3883 7.65246 38.2656 7.66903C37.9773 7.70549 37.7138 7.76681 37.4751 7.85298C37.2398 7.93916 37.0509 8.06345 36.9084 8.22585C36.7692 8.38494 36.6996 8.59706 36.6996 8.86222C36.6996 9.23011 36.8355 9.50852 37.1072 9.69744C37.379 9.88305 37.7254 9.97585 38.1463 9.97585ZM46.7733 14.0227C46.1667 14.0227 45.6447 13.9432 45.2072 13.7841C44.773 13.625 44.4184 13.4145 44.1433 13.1527C43.8682 12.8909 43.6627 12.6042 43.5268 12.2926L44.8045 11.7656C44.894 11.9115 45.0133 12.0656 45.1625 12.228C45.3149 12.3937 45.5204 12.5346 45.7789 12.6506C46.0408 12.7666 46.3772 12.8246 46.7882 12.8246C47.3516 12.8246 47.8173 12.687 48.1852 12.4119C48.5531 12.1402 48.737 11.706 48.737 11.1094V9.60795H48.6426C48.5531 9.77036 48.4238 9.95099 48.2548 10.1499C48.0891 10.3487 47.8604 10.5211 47.5687 10.6669C47.277 10.8127 46.8975 10.8857 46.4302 10.8857C45.827 10.8857 45.2834 10.7448 44.7995 10.4631C44.319 10.178 43.9378 9.75876 43.6561 9.20526C43.3777 8.64844 43.2385 7.96401 43.2385 7.15199C43.2385 6.33996 43.376 5.64394 43.6511 5.06392C43.9295 4.4839 44.3107 4.03977 44.7946 3.73153C45.2785 3.41998 45.827 3.2642 46.4402 3.2642C46.9141 3.2642 47.2969 3.34375 47.5886 3.50284C47.8803 3.65862 48.1073 3.84091 48.2697 4.04972C48.4354 4.25852 48.563 4.44247 48.6525 4.60156H48.7619V3.36364H50.2186V11.169C50.2186 11.8253 50.0661 12.3639 49.7612 12.7848C49.4563 13.2057 49.0436 13.5173 48.5233 13.7195C48.0062 13.9216 47.4229 14.0227 46.7733 14.0227ZM46.7583 9.6527C47.1859 9.6527 47.5472 9.55327 47.8422 9.3544C48.1404 9.15223 48.3658 8.86387 48.5183 8.48935C48.6741 8.11151 48.752 7.65909 48.752 7.1321C48.752 6.61837 48.6757 6.16596 48.5233 5.77486C48.3708 5.38376 48.1471 5.07884 47.8521 4.86009C47.5571 4.63802 47.1925 4.52699 46.7583 4.52699C46.3109 4.52699 45.938 4.64299 45.6397 4.875C45.3414 5.10369 45.1161 5.41525 44.9636 5.80966C44.8145 6.20407 44.7399 6.64489 44.7399 7.1321C44.7399 7.63258 44.8161 8.07173 44.9686 8.44957C45.121 8.82741 45.3464 9.1224 45.6447 9.33452C45.9463 9.54664 46.3175 9.6527 46.7583 9.6527ZM55.5034 11.1541C54.751 11.1541 54.103 10.9934 53.5595 10.6719C53.0192 10.3471 52.6016 9.89134 52.3066 9.30469C52.015 8.71473 51.8691 8.02367 51.8691 7.23153C51.8691 6.44934 52.015 5.75994 52.3066 5.16335C52.6016 4.56676 53.0126 4.10109 53.5396 3.76633C54.0699 3.43158 54.6897 3.2642 55.399 3.2642C55.8298 3.2642 56.2475 3.33546 56.6518 3.47798C57.0562 3.6205 57.4191 3.84422 57.7406 4.14915C58.0621 4.45407 58.3156 4.85014 58.5012 5.33736C58.6868 5.82126 58.7797 6.40956 58.7797 7.10227V7.62926H52.7093V6.51562H57.323C57.323 6.12453 57.2434 5.77817 57.0843 5.47656C56.9252 5.17164 56.7015 4.93134 56.4132 4.75568C56.1281 4.58002 55.7934 4.49219 55.4089 4.49219C54.9913 4.49219 54.6267 4.59493 54.3152 4.80043C54.0069 5.0026 53.7683 5.26776 53.5993 5.59588C53.4335 5.92069 53.3507 6.27367 53.3507 6.65483V7.52486C53.3507 8.03527 53.4402 8.46946 53.6191 8.82741C53.8014 9.18537 54.055 9.45881 54.3798 9.64773C54.7046 9.83333 55.0841 9.92614 55.5183 9.92614C55.8 9.92614 56.0569 9.88636 56.2889 9.80682C56.5209 9.72396 56.7214 9.60133 56.8904 9.43892C57.0595 9.27652 57.1887 9.07599 57.2782 8.83736L58.6852 9.09091C58.5725 9.50521 58.3703 9.86813 58.0787 10.1797C57.7903 10.4879 57.4274 10.7282 56.9899 10.9006C56.5557 11.0696 56.0602 11.1541 55.5034 11.1541ZM64.9283 6.05327V7.34091H60.4141V6.05327H64.9283ZM70.1261 11.1541C69.387 11.1541 68.7506 10.9867 68.217 10.652C67.6867 10.3139 67.279 9.84825 66.994 9.25497C66.7089 8.66169 66.5664 7.98224 66.5664 7.21662C66.5664 6.44105 66.7122 5.75663 67.0039 5.16335C67.2956 4.56676 67.7066 4.10109 68.2369 3.76633C68.7672 3.43158 69.3919 3.2642 70.1112 3.2642C70.6912 3.2642 71.2082 3.37192 71.6623 3.58736C72.1164 3.79948 72.4826 4.09777 72.761 4.48224C73.0427 4.86671 73.2101 5.31581 73.2631 5.82955H71.8164C71.7369 5.47159 71.5546 5.16335 71.2695 4.90483C70.9878 4.64631 70.61 4.51705 70.136 4.51705C69.7217 4.51705 69.3588 4.62642 69.0472 4.84517C68.739 5.06061 68.4987 5.36884 68.3263 5.76989C68.154 6.16761 68.0678 6.63826 68.0678 7.18182C68.0678 7.73864 68.1523 8.21922 68.3214 8.62358C68.4904 9.02794 68.729 9.34115 69.0373 9.56321C69.3488 9.78527 69.7151 9.89631 70.136 9.89631C70.4177 9.89631 70.6729 9.84493 70.9016 9.74219C71.1336 9.63613 71.3275 9.48532 71.4833 9.28977C71.6424 9.09422 71.7534 8.8589 71.8164 8.58381H73.2631C73.2101 9.07765 73.0494 9.51847 72.7809 9.90625C72.5124 10.294 72.1528 10.599 71.7021 10.821C71.2546 11.0431 70.7293 11.1541 70.1261 11.1541ZM76.3393 6.46591V11H74.8528V0.818182H76.3194V4.60653H76.4139C76.5929 4.19555 76.8663 3.86908 77.2342 3.62713C77.6021 3.38518 78.0827 3.2642 78.676 3.2642C79.1996 3.2642 79.657 3.37192 80.0481 3.58736C80.4425 3.80279 80.7475 4.12429 80.9629 4.55185C81.1816 4.97609 81.291 5.50639 81.291 6.14276V11H79.8045V6.32173C79.8045 5.7616 79.6603 5.32741 79.372 5.01918C79.0836 4.70762 78.6826 4.55185 78.1689 4.55185C77.8175 4.55185 77.5027 4.62642 77.2243 4.77557C76.9492 4.92472 76.7321 5.14347 76.573 5.43182C76.4172 5.71686 76.3393 6.06155 76.3393 6.46591ZM86.5659 11.1541C85.8135 11.1541 85.1655 10.9934 84.622 10.6719C84.0817 10.3471 83.6641 9.89134 83.3691 9.30469C83.0775 8.71473 82.9316 8.02367 82.9316 7.23153C82.9316 6.44934 83.0775 5.75994 83.3691 5.16335C83.6641 4.56676 84.0751 4.10109 84.6021 3.76633C85.1324 3.43158 85.7522 3.2642 86.4615 3.2642C86.8923 3.2642 87.31 3.33546 87.7143 3.47798C88.1187 3.6205 88.4816 3.84422 88.8031 4.14915C89.1246 4.45407 89.3781 4.85014 89.5637 5.33736C89.7493 5.82126 89.8422 6.40956 89.8422 7.10227V7.62926H83.7718V6.51562H88.3855C88.3855 6.12453 88.3059 5.77817 88.1468 5.47656C87.9877 5.17164 87.764 4.93134 87.4757 4.75568C87.1906 4.58002 86.8559 4.49219 86.4714 4.49219C86.0538 4.49219 85.6892 4.59493 85.3777 4.80043C85.0694 5.0026 84.8308 5.26776 84.6618 5.59588C84.496 5.92069 84.4132 6.27367 84.4132 6.65483V7.52486C84.4132 8.03527 84.5027 8.46946 84.6816 8.82741C84.8639 9.18537 85.1175 9.45881 85.4423 9.64773C85.7671 9.83333 86.1466 9.92614 86.5808 9.92614C86.8625 9.92614 87.1194 9.88636 87.3514 9.80682C87.5834 9.72396 87.7839 9.60133 87.9529 9.43892C88.122 9.27652 88.2512 9.07599 88.3407 8.83736L89.7477 9.09091C89.635 9.50521 89.4328 9.86813 89.1412 10.1797C88.8528 10.4879 88.4899 10.7282 88.0524 10.9006C87.6182 11.0696 87.1227 11.1541 86.5659 11.1541ZM94.7081 11.1541C93.969 11.1541 93.3326 10.9867 92.799 10.652C92.2687 10.3139 91.861 9.84825 91.576 9.25497C91.291 8.66169 91.1484 7.98224 91.1484 7.21662C91.1484 6.44105 91.2943 5.75663 91.5859 5.16335C91.8776 4.56676 92.2886 4.10109 92.8189 3.76633C93.3492 3.43158 93.974 3.2642 94.6932 3.2642C95.2732 3.2642 95.7902 3.37192 96.2443 3.58736C96.6984 3.79948 97.0646 4.09777 97.343 4.48224C97.6248 4.86671 97.7921 5.31581 97.8452 5.82955H96.3984C96.3189 5.47159 96.1366 5.16335 95.8516 4.90483C95.5698 4.64631 95.192 4.51705 94.718 4.51705C94.3037 4.51705 93.9408 4.62642 93.6293 4.84517C93.321 5.06061 93.0807 5.36884 92.9084 5.76989C92.736 6.16761 92.6499 6.63826 92.6499 7.18182C92.6499 7.73864 92.7344 8.21922 92.9034 8.62358C93.0724 9.02794 93.3111 9.34115 93.6193 9.56321C93.9309 9.78527 94.2971 9.89631 94.718 9.89631C94.9998 9.89631 95.255 9.84493 95.4837 9.74219C95.7157 9.63613 95.9096 9.48532 96.0653 9.28977C96.2244 9.09422 96.3355 8.8589 96.3984 8.58381H97.8452C97.7921 9.07765 97.6314 9.51847 97.3629 9.90625C97.0945 10.294 96.7348 10.599 96.2841 10.821C95.8366 11.0431 95.3113 11.1541 94.7081 11.1541ZM100.802 8.4098L100.792 6.59517H101.051L104.093 3.36364H105.873L102.403 7.04261H102.169L100.802 8.4098ZM99.4348 11V0.818182H100.921V11H99.4348ZM104.257 11L101.523 7.37074L102.547 6.33168L106.082 11H104.257ZM111.208 6.05327V7.34091H106.693V6.05327H111.208ZM118.911 5.22798L117.564 5.46662C117.507 5.29427 117.418 5.13021 117.295 4.97443C117.176 4.81865 117.014 4.69105 116.808 4.59162C116.603 4.49219 116.346 4.44247 116.037 4.44247C115.617 4.44247 115.265 4.53693 114.983 4.72585C114.702 4.91146 114.561 5.15175 114.561 5.44673C114.561 5.70194 114.655 5.90743 114.844 6.06321C115.033 6.21899 115.338 6.34659 115.759 6.44602L116.972 6.72443C117.675 6.88684 118.198 7.13707 118.543 7.47514C118.888 7.81321 119.06 8.25237 119.06 8.79261C119.06 9.25 118.928 9.65767 118.662 10.0156C118.401 10.3703 118.034 10.6487 117.564 10.8509C117.096 11.053 116.555 11.1541 115.938 11.1541C115.083 11.1541 114.385 10.9718 113.845 10.6072C113.305 10.2393 112.973 9.71733 112.851 9.04119L114.287 8.82244C114.377 9.19697 114.561 9.48035 114.839 9.67259C115.118 9.86151 115.481 9.95597 115.928 9.95597C116.415 9.95597 116.805 9.85488 117.096 9.6527C117.388 9.44721 117.534 9.19697 117.534 8.90199C117.534 8.66335 117.444 8.46283 117.265 8.30043C117.09 8.13802 116.82 8.01539 116.455 7.93253L115.162 7.64915C114.45 7.48674 113.923 7.22822 113.581 6.87358C113.243 6.51894 113.074 6.06984 113.074 5.52628C113.074 5.07552 113.2 4.68111 113.452 4.34304C113.704 4.00497 114.052 3.74148 114.496 3.55256C114.94 3.36032 115.449 3.2642 116.023 3.2642C116.848 3.2642 117.497 3.44318 117.971 3.80114C118.445 4.15578 118.759 4.63139 118.911 5.22798ZM125.85 13.8636V9.81179H125.761C125.671 9.9742 125.542 10.1598 125.373 10.3686C125.207 10.5774 124.978 10.7597 124.687 10.9155C124.395 11.0713 124.017 11.1491 123.553 11.1491C122.937 11.1491 122.387 10.9917 121.903 10.6768C121.422 10.3587 121.044 9.90625 120.769 9.3196C120.497 8.72964 120.362 8.02202 120.362 7.19673C120.362 6.37145 120.499 5.66548 120.774 5.07884C121.053 4.49219 121.434 4.04309 121.918 3.73153C122.402 3.41998 122.95 3.2642 123.563 3.2642C124.037 3.2642 124.418 3.34375 124.707 3.50284C124.998 3.65862 125.224 3.84091 125.383 4.04972C125.545 4.25852 125.671 4.44247 125.761 4.60156H125.885V3.36364H127.337V13.8636H125.85ZM123.881 9.88139C124.309 9.88139 124.67 9.7687 124.965 9.54332C125.263 9.31463 125.489 8.99811 125.641 8.59375C125.797 8.18939 125.875 7.71875 125.875 7.18182C125.875 6.65151 125.799 6.1875 125.646 5.78977C125.494 5.39205 125.27 5.08215 124.975 4.86009C124.68 4.63802 124.316 4.52699 123.881 4.52699C123.434 4.52699 123.061 4.64299 122.763 4.875C122.464 5.10701 122.239 5.42353 122.087 5.82457C121.938 6.22562 121.863 6.67803 121.863 7.18182C121.863 7.69223 121.939 8.15128 122.092 8.55895C122.244 8.96662 122.469 9.28977 122.768 9.52841C123.069 9.76373 123.441 9.88139 123.881 9.88139ZM134.173 7.8331V3.36364H135.664V11H134.202V9.67756H134.123C133.947 10.0852 133.665 10.425 133.278 10.6967C132.893 10.9652 132.414 11.0994 131.841 11.0994C131.35 11.0994 130.916 10.9917 130.538 10.7763C130.164 10.5575 129.869 10.2344 129.653 9.80682C129.441 9.37926 129.335 8.85062 129.335 8.22088V3.36364H130.822V8.0419C130.822 8.56226 130.966 8.97656 131.254 9.2848C131.543 9.59304 131.917 9.74716 132.378 9.74716C132.656 9.74716 132.933 9.67756 133.208 9.53835C133.487 9.39915 133.717 9.18868 133.899 8.90696C134.085 8.62524 134.176 8.26728 134.173 7.8331ZM139.884 11.169C139.4 11.169 138.962 11.0795 138.571 10.9006C138.18 10.7183 137.87 10.4548 137.642 10.1101C137.416 9.76539 137.303 9.3428 137.303 8.84233C137.303 8.41146 137.386 8.05682 137.552 7.77841C137.718 7.5 137.941 7.27959 138.223 7.11719C138.505 6.95478 138.82 6.83215 139.168 6.74929C139.516 6.66643 139.87 6.60346 140.232 6.56037C140.689 6.50734 141.06 6.46425 141.345 6.43111C141.63 6.39465 141.838 6.33665 141.967 6.2571C142.096 6.17756 142.161 6.0483 142.161 5.86932V5.83452C142.161 5.40033 142.038 5.06392 141.793 4.82528C141.551 4.58665 141.19 4.46733 140.709 4.46733C140.209 4.46733 139.814 4.57836 139.526 4.80043C139.241 5.01918 139.044 5.26278 138.934 5.53125L137.537 5.21307C137.703 4.74905 137.945 4.37453 138.263 4.08949C138.584 3.80114 138.954 3.59233 139.372 3.46307C139.789 3.33049 140.228 3.2642 140.689 3.2642C140.994 3.2642 141.317 3.30066 141.659 3.37358C142.003 3.44318 142.325 3.57244 142.623 3.76136C142.925 3.95028 143.172 4.22041 143.364 4.57173C143.556 4.91974 143.652 5.37216 143.652 5.92898V11H142.2V9.95597H142.141C142.045 10.1482 141.901 10.3371 141.708 10.5227C141.516 10.7083 141.269 10.8625 140.968 10.9851C140.666 11.1077 140.305 11.169 139.884 11.169ZM140.207 9.97585C140.618 9.97585 140.969 9.89465 141.261 9.73224C141.556 9.56984 141.78 9.35772 141.932 9.09588C142.088 8.83073 142.166 8.54735 142.166 8.24574V7.26136C142.113 7.31439 142.01 7.36411 141.857 7.41051C141.708 7.4536 141.538 7.49171 141.345 7.52486C141.153 7.55469 140.966 7.58286 140.784 7.60938C140.601 7.63258 140.449 7.65246 140.326 7.66903C140.038 7.70549 139.774 7.76681 139.536 7.85298C139.3 7.93916 139.111 8.06345 138.969 8.22585C138.83 8.38494 138.76 8.59706 138.76 8.86222C138.76 9.23011 138.896 9.50852 139.168 9.69744C139.44 9.88305 139.786 9.97585 140.207 9.97585ZM145.632 11V3.36364H147.069V4.5767H147.148C147.288 4.16572 147.533 3.84257 147.884 3.60724C148.239 3.36861 148.64 3.24929 149.087 3.24929C149.18 3.24929 149.29 3.2526 149.415 3.25923C149.545 3.26586 149.646 3.27415 149.719 3.28409V4.70597C149.659 4.68939 149.553 4.67116 149.401 4.65128C149.248 4.62808 149.096 4.61648 148.943 4.61648C148.592 4.61648 148.279 4.69105 148.004 4.8402C147.732 4.98603 147.516 5.18987 147.357 5.4517C147.198 5.71023 147.119 6.00521 147.119 6.33665V11H145.632ZM154.023 11.1541C153.271 11.1541 152.623 10.9934 152.079 10.6719C151.539 10.3471 151.121 9.89134 150.826 9.30469C150.535 8.71473 150.389 8.02367 150.389 7.23153C150.389 6.44934 150.535 5.75994 150.826 5.16335C151.121 4.56676 151.532 4.10109 152.059 3.76633C152.589 3.43158 153.209 3.2642 153.919 3.2642C154.349 3.2642 154.767 3.33546 155.171 3.47798C155.576 3.6205 155.939 3.84422 156.26 4.14915C156.582 4.45407 156.835 4.85014 157.021 5.33736C157.206 5.82126 157.299 6.40956 157.299 7.10227V7.62926H151.229V6.51562H155.843C155.843 6.12453 155.763 5.77817 155.604 5.47656C155.445 5.17164 155.221 4.93134 154.933 4.75568C154.648 4.58002 154.313 4.49219 153.928 4.49219C153.511 4.49219 153.146 4.59493 152.835 4.80043C152.526 5.0026 152.288 5.26776 152.119 5.59588C151.953 5.92069 151.87 6.27367 151.87 6.65483V7.52486C151.87 8.03527 151.96 8.46946 152.139 8.82741C152.321 9.18537 152.575 9.45881 152.899 9.64773C153.224 9.83333 153.604 9.92614 154.038 9.92614C154.32 9.92614 154.576 9.88636 154.808 9.80682C155.04 9.72396 155.241 9.60133 155.41 9.43892C155.579 9.27652 155.708 9.07599 155.798 8.83736L157.205 9.09091C157.092 9.50521 156.89 9.86813 156.598 10.1797C156.31 10.4879 155.947 10.7282 155.509 10.9006C155.075 11.0696 154.58 11.1541 154.023 11.1541Z" fill="black"/>
</svg>
