<svg width="91" height="14" viewBox="0 0 91 14" fill="none" xmlns="http://www.w3.org/2000/svg">
<path d="M-0.000710189 13.8636V3.36364H1.45099V4.60156H1.57528C1.66146 4.44247 1.78575 4.25852 1.94815 4.04972C2.11056 3.84091 2.33594 3.65862 2.62429 3.50284C2.91264 3.34375 3.2938 3.2642 3.76776 3.2642C4.38423 3.2642 4.93442 3.41998 5.41832 3.73153C5.90223 4.04309 6.28172 4.49219 6.55682 5.07884C6.83523 5.66548 6.97443 6.37145 6.97443 7.19673C6.97443 8.02202 6.83688 8.72964 6.56179 9.3196C6.2867 9.90625 5.90885 10.3587 5.42827 10.6768C4.94768 10.9917 4.39915 11.1491 3.78267 11.1491C3.31866 11.1491 2.93916 11.0713 2.64418 10.9155C2.35251 10.7597 2.12382 10.5774 1.9581 10.3686C1.79238 10.1598 1.66477 9.9742 1.57528 9.81179H1.4858V13.8636H-0.000710189ZM1.45597 7.18182C1.45597 7.71875 1.53385 8.18939 1.68963 8.59375C1.84541 8.99811 2.07079 9.31463 2.36577 9.54332C2.66075 9.7687 3.02202 9.88139 3.44957 9.88139C3.8937 9.88139 4.26491 9.76373 4.56321 9.52841C4.86151 9.28977 5.08688 8.96662 5.23935 8.55895C5.39512 8.15128 5.47301 7.69223 5.47301 7.18182C5.47301 6.67803 5.39678 6.22562 5.24432 5.82457C5.09517 5.42353 4.86979 5.10701 4.56818 4.875C4.26989 4.64299 3.89702 4.52699 3.44957 4.52699C3.0187 4.52699 2.65412 4.63802 2.35582 4.86009C2.06084 5.08215 1.83712 5.39205 1.68466 5.78977C1.5322 6.1875 1.45597 6.65151 1.45597 7.18182ZM10.1264 6.46591V11H8.63991V0.818182H10.1065V4.60653H10.201C10.38 4.19555 10.6534 3.86908 11.0213 3.62713C11.3892 3.38518 11.8698 3.2642 12.4631 3.2642C12.9867 3.2642 13.4441 3.37192 13.8352 3.58736C14.2296 3.80279 14.5346 4.12429 14.75 4.55185C14.9688 4.97609 15.0781 5.50639 15.0781 6.14276V11H13.5916V6.32173C13.5916 5.7616 13.4474 5.32741 13.1591 5.01918C12.8707 4.70762 12.4697 4.55185 11.956 4.55185C11.6046 4.55185 11.2898 4.62642 11.0114 4.77557C10.7363 4.92472 10.5192 5.14347 10.3601 5.43182C10.2043 5.71686 10.1264 6.06155 10.1264 6.46591ZM20.2784 11.1541C19.5625 11.1541 18.9377 10.9901 18.4041 10.6619C17.8705 10.3338 17.4562 9.87476 17.1612 9.2848C16.8662 8.69484 16.7188 8.00544 16.7188 7.21662C16.7188 6.42448 16.8662 5.73177 17.1612 5.13849C17.4562 4.54522 17.8705 4.08452 18.4041 3.75639C18.9377 3.42827 19.5625 3.2642 20.2784 3.2642C20.9943 3.2642 21.6191 3.42827 22.1527 3.75639C22.6863 4.08452 23.1006 4.54522 23.3956 5.13849C23.6906 5.73177 23.8381 6.42448 23.8381 7.21662C23.8381 8.00544 23.6906 8.69484 23.3956 9.2848C23.1006 9.87476 22.6863 10.3338 22.1527 10.6619C21.6191 10.9901 20.9943 11.1541 20.2784 11.1541ZM20.2834 9.90625C20.7474 9.90625 21.1319 9.78362 21.4368 9.53835C21.7417 9.29309 21.9671 8.96662 22.1129 8.55895C22.2621 8.15128 22.3366 7.70218 22.3366 7.21165C22.3366 6.72443 22.2621 6.27699 22.1129 5.86932C21.9671 5.45833 21.7417 5.12855 21.4368 4.87997C21.1319 4.63139 20.7474 4.5071 20.2834 4.5071C19.8161 4.5071 19.4283 4.63139 19.12 4.87997C18.8151 5.12855 18.5881 5.45833 18.4389 5.86932C18.2931 6.27699 18.2202 6.72443 18.2202 7.21165C18.2202 7.70218 18.2931 8.15128 18.4389 8.55895C18.5881 8.96662 18.8151 9.29309 19.12 9.53835C19.4283 9.78362 19.8161 9.90625 20.2834 9.90625ZM26.9838 6.46591V11H25.4973V3.36364H26.9242V4.60653H27.0186C27.1943 4.20218 27.4694 3.87737 27.8439 3.6321C28.2218 3.38684 28.6974 3.2642 29.2708 3.2642C29.7911 3.2642 30.2469 3.37358 30.638 3.59233C31.0291 3.80777 31.3323 4.12926 31.5478 4.55682C31.7632 4.98437 31.8709 5.51302 31.8709 6.14276V11H30.3844V6.32173C30.3844 5.76823 30.2402 5.3357 29.9519 5.02415C29.6635 4.70928 29.2675 4.55185 28.7637 4.55185C28.419 4.55185 28.1124 4.62642 27.8439 4.77557C27.5788 4.92472 27.3683 5.14347 27.2125 5.43182C27.0601 5.71686 26.9838 6.06155 26.9838 6.46591ZM37.1557 11.1541C36.4033 11.1541 35.7554 10.9934 35.2118 10.6719C34.6716 10.3471 34.254 9.89134 33.959 9.30469C33.6673 8.71473 33.5215 8.02367 33.5215 7.23153C33.5215 6.44934 33.6673 5.75994 33.959 5.16335C34.254 4.56676 34.665 4.10109 35.1919 3.76633C35.7222 3.43158 36.342 3.2642 37.0513 3.2642C37.4822 3.2642 37.8998 3.33546 38.3042 3.47798C38.7085 3.6205 39.0714 3.84422 39.3929 4.14915C39.7144 4.45407 39.968 4.85014 40.1536 5.33736C40.3392 5.82126 40.432 6.40956 40.432 7.10227V7.62926H34.3617V6.51562H38.9753C38.9753 6.12453 38.8958 5.77817 38.7367 5.47656C38.5776 5.17164 38.3539 4.93134 38.0655 4.75568C37.7805 4.58002 37.4457 4.49219 37.0613 4.49219C36.6436 4.49219 36.2791 4.59493 35.9675 4.80043C35.6593 5.0026 35.4206 5.26776 35.2516 5.59588C35.0859 5.92069 35.003 6.27367 35.003 6.65483V7.52486C35.003 8.03527 35.0925 8.46946 35.2715 8.82741C35.4538 9.18537 35.7073 9.45881 36.0321 9.64773C36.3569 9.83333 36.7364 9.92614 37.1706 9.92614C37.4524 9.92614 37.7092 9.88636 37.9412 9.80682C38.1732 9.72396 38.3738 9.60133 38.5428 9.43892C38.7118 9.27652 38.8411 9.07599 38.9306 8.83736L40.3375 9.09091C40.2248 9.50521 40.0227 9.86813 39.731 10.1797C39.4426 10.4879 39.0797 10.7282 38.6422 10.9006C38.208 11.0696 37.7125 11.1541 37.1557 11.1541ZM46.5806 6.05327V7.34091H42.0664V6.05327H46.5806ZM51.7784 11.1541C51.0393 11.1541 50.4029 10.9867 49.8693 10.652C49.339 10.3139 48.9313 9.84825 48.6463 9.25497C48.3613 8.66169 48.2188 7.98224 48.2188 7.21662C48.2188 6.44105 48.3646 5.75663 48.6562 5.16335C48.9479 4.56676 49.3589 4.10109 49.8892 3.76633C50.4195 3.43158 51.0443 3.2642 51.7635 3.2642C52.3435 3.2642 52.8606 3.37192 53.3146 3.58736C53.7687 3.79948 54.1349 4.09777 54.4134 4.48224C54.6951 4.86671 54.8625 5.31581 54.9155 5.82955H53.4688C53.3892 5.47159 53.2069 5.16335 52.9219 4.90483C52.6402 4.64631 52.2623 4.51705 51.7884 4.51705C51.3741 4.51705 51.0111 4.62642 50.6996 4.84517C50.3913 5.06061 50.151 5.36884 49.9787 5.76989C49.8063 6.16761 49.7202 6.63826 49.7202 7.18182C49.7202 7.73864 49.8047 8.21922 49.9737 8.62358C50.1428 9.02794 50.3814 9.34115 50.6896 9.56321C51.0012 9.78527 51.3674 9.89631 51.7884 9.89631C52.0701 9.89631 52.3253 9.84493 52.554 9.74219C52.786 9.63613 52.9799 9.48532 53.1357 9.28977C53.2947 9.09422 53.4058 8.8589 53.4688 8.58381H54.9155C54.8625 9.07765 54.7017 9.51847 54.4332 9.90625C54.1648 10.294 53.8052 10.599 53.3544 10.821C52.907 11.0431 52.3816 11.1541 51.7784 11.1541ZM58.7275 11.169C58.2435 11.169 57.806 11.0795 57.415 10.9006C57.0239 10.7183 56.714 10.4548 56.4853 10.1101C56.2599 9.76539 56.1472 9.3428 56.1472 8.84233C56.1472 8.41146 56.2301 8.05682 56.3958 7.77841C56.5615 7.5 56.7852 7.27959 57.0669 7.11719C57.3487 6.95478 57.6635 6.83215 58.0115 6.74929C58.3596 6.66643 58.7142 6.60346 59.0755 6.56037C59.5328 6.50734 59.9041 6.46425 60.1891 6.43111C60.4741 6.39465 60.6813 6.33665 60.8105 6.2571C60.9398 6.17756 61.0044 6.0483 61.0044 5.86932V5.83452C61.0044 5.40033 60.8818 5.06392 60.6365 4.82528C60.3946 4.58665 60.0333 4.46733 59.5527 4.46733C59.0523 4.46733 58.6578 4.57836 58.3695 4.80043C58.0845 5.01918 57.8873 5.26278 57.7779 5.53125L56.3809 5.21307C56.5466 4.74905 56.7885 4.37453 57.1067 4.08949C57.4282 3.80114 57.7978 3.59233 58.2154 3.46307C58.633 3.33049 59.0721 3.2642 59.5328 3.2642C59.8378 3.2642 60.1609 3.30066 60.5023 3.37358C60.847 3.44318 61.1685 3.57244 61.4668 3.76136C61.7684 3.95028 62.0153 4.22041 62.2076 4.57173C62.3998 4.91974 62.4959 5.37216 62.4959 5.92898V11H61.0442V9.95597H60.9846C60.8884 10.1482 60.7443 10.3371 60.552 10.5227C60.3598 10.7083 60.1129 10.8625 59.8113 10.9851C59.5096 11.1077 59.1484 11.169 58.7275 11.169ZM59.0506 9.97585C59.4616 9.97585 59.8129 9.89465 60.1046 9.73224C60.3996 9.56984 60.6233 9.35772 60.7757 9.09588C60.9315 8.83073 61.0094 8.54735 61.0094 8.24574V7.26136C60.9564 7.31439 60.8536 7.36411 60.7012 7.41051C60.552 7.4536 60.3813 7.49171 60.1891 7.52486C59.9969 7.55469 59.8096 7.58286 59.6273 7.60938C59.445 7.63258 59.2926 7.65246 59.1699 7.66903C58.8816 7.70549 58.6181 7.76681 58.3794 7.85298C58.1441 7.93916 57.9552 8.06345 57.8127 8.22585C57.6735 8.38494 57.6039 8.59706 57.6039 8.86222C57.6039 9.23011 57.7398 9.50852 58.0115 9.69744C58.2833 9.88305 58.6297 9.97585 59.0506 9.97585ZM65.9624 0.818182V11H64.4759V0.818182H65.9624ZM69.4487 0.818182V11H67.9622V0.818182H69.4487ZM75.9478 6.05327V7.34091H71.4336V6.05327H75.9478ZM81.4538 11.169C80.6683 11.1657 79.9972 10.9586 79.4403 10.5476C78.8835 10.1366 78.4576 9.53835 78.1626 8.75284C77.8677 7.96733 77.7202 7.02107 77.7202 5.91406C77.7202 4.81037 77.8677 3.86742 78.1626 3.08523C78.4609 2.30303 78.8885 1.70644 79.4453 1.29545C80.0054 0.884469 80.675 0.678977 81.4538 0.678977C82.2327 0.678977 82.9006 0.886126 83.4574 1.30043C84.0142 1.71141 84.4401 2.308 84.7351 3.0902C85.0334 3.86908 85.1825 4.81037 85.1825 5.91406C85.1825 7.02438 85.035 7.9723 84.7401 8.75781C84.4451 9.54001 84.0192 10.1383 83.4624 10.5526C82.9055 10.9635 82.236 11.169 81.4538 11.169ZM81.4538 9.84162C82.1432 9.84162 82.6818 9.50521 83.0696 8.83239C83.4607 8.15956 83.6562 7.18679 83.6562 5.91406C83.6562 5.06889 83.5668 4.35464 83.3878 3.77131C83.2121 3.18466 82.9586 2.74053 82.6271 2.43892C82.299 2.134 81.9079 1.98153 81.4538 1.98153C80.7678 1.98153 80.2292 2.3196 79.8381 2.99574C79.447 3.67187 79.2498 4.64465 79.2464 5.91406C79.2464 6.76255 79.3343 7.48011 79.5099 8.06676C79.6889 8.65009 79.9425 9.09257 80.2706 9.39418C80.5987 9.69247 80.9931 9.84162 81.4538 9.84162ZM90.8091 0.818182V11H89.2679V2.35938H89.2083L86.7722 3.95028V2.47869L89.3127 0.818182H90.8091Z" fill="black"/>
</svg>
