<svg width="75" height="14" viewBox="0 0 75 14" fill="none" xmlns="http://www.w3.org/2000/svg">
<path d="M-0.000710189 13.8636V3.36364H1.45099V4.60156H1.57528C1.66146 4.44247 1.78575 4.25852 1.94815 4.04972C2.11056 3.84091 2.33594 3.65862 2.62429 3.50284C2.91264 3.34375 3.2938 3.2642 3.76776 3.2642C4.38423 3.2642 4.93442 3.41998 5.41832 3.73153C5.90223 4.04309 6.28172 4.49219 6.55682 5.07884C6.83523 5.66548 6.97443 6.37145 6.97443 7.19673C6.97443 8.02202 6.83688 8.72964 6.56179 9.3196C6.2867 9.90625 5.90885 10.3587 5.42827 10.6768C4.94768 10.9917 4.39915 11.1491 3.78267 11.1491C3.31866 11.1491 2.93916 11.0713 2.64418 10.9155C2.35251 10.7597 2.12382 10.5774 1.9581 10.3686C1.79238 10.1598 1.66477 9.9742 1.57528 9.81179H1.4858V13.8636H-0.000710189ZM1.45597 7.18182C1.45597 7.71875 1.53385 8.18939 1.68963 8.59375C1.84541 8.99811 2.07079 9.31463 2.36577 9.54332C2.66075 9.7687 3.02202 9.88139 3.44957 9.88139C3.8937 9.88139 4.26491 9.76373 4.56321 9.52841C4.86151 9.28977 5.08688 8.96662 5.23935 8.55895C5.39512 8.15128 5.47301 7.69223 5.47301 7.18182C5.47301 6.67803 5.39678 6.22562 5.24432 5.82457C5.09517 5.42353 4.86979 5.10701 4.56818 4.875C4.26989 4.64299 3.89702 4.52699 3.44957 4.52699C3.0187 4.52699 2.65412 4.63802 2.35582 4.86009C2.06084 5.08215 1.83712 5.39205 1.68466 5.78977C1.5322 6.1875 1.45597 6.65151 1.45597 7.18182ZM10.1264 6.46591V11H8.63991V0.818182H10.1065V4.60653H10.201C10.38 4.19555 10.6534 3.86908 11.0213 3.62713C11.3892 3.38518 11.8698 3.2642 12.4631 3.2642C12.9867 3.2642 13.4441 3.37192 13.8352 3.58736C14.2296 3.80279 14.5346 4.12429 14.75 4.55185C14.9688 4.97609 15.0781 5.50639 15.0781 6.14276V11H13.5916V6.32173C13.5916 5.7616 13.4474 5.32741 13.1591 5.01918C12.8707 4.70762 12.4697 4.55185 11.956 4.55185C11.6046 4.55185 11.2898 4.62642 11.0114 4.77557C10.7363 4.92472 10.5192 5.14347 10.3601 5.43182C10.2043 5.71686 10.1264 6.06155 10.1264 6.46591ZM20.2784 11.1541C19.5625 11.1541 18.9377 10.9901 18.4041 10.6619C17.8705 10.3338 17.4562 9.87476 17.1612 9.2848C16.8662 8.69484 16.7188 8.00544 16.7188 7.21662C16.7188 6.42448 16.8662 5.73177 17.1612 5.13849C17.4562 4.54522 17.8705 4.08452 18.4041 3.75639C18.9377 3.42827 19.5625 3.2642 20.2784 3.2642C20.9943 3.2642 21.6191 3.42827 22.1527 3.75639C22.6863 4.08452 23.1006 4.54522 23.3956 5.13849C23.6906 5.73177 23.8381 6.42448 23.8381 7.21662C23.8381 8.00544 23.6906 8.69484 23.3956 9.2848C23.1006 9.87476 22.6863 10.3338 22.1527 10.6619C21.6191 10.9901 20.9943 11.1541 20.2784 11.1541ZM20.2834 9.90625C20.7474 9.90625 21.1319 9.78362 21.4368 9.53835C21.7417 9.29309 21.9671 8.96662 22.1129 8.55895C22.2621 8.15128 22.3366 7.70218 22.3366 7.21165C22.3366 6.72443 22.2621 6.27699 22.1129 5.86932C21.9671 5.45833 21.7417 5.12855 21.4368 4.87997C21.1319 4.63139 20.7474 4.5071 20.2834 4.5071C19.8161 4.5071 19.4283 4.63139 19.12 4.87997C18.8151 5.12855 18.5881 5.45833 18.4389 5.86932C18.2931 6.27699 18.2202 6.72443 18.2202 7.21165C18.2202 7.70218 18.2931 8.15128 18.4389 8.55895C18.5881 8.96662 18.8151 9.29309 19.12 9.53835C19.4283 9.78362 19.8161 9.90625 20.2834 9.90625ZM26.9838 6.46591V11H25.4973V3.36364H26.9242V4.60653H27.0186C27.1943 4.20218 27.4694 3.87737 27.8439 3.6321C28.2218 3.38684 28.6974 3.2642 29.2708 3.2642C29.7911 3.2642 30.2469 3.37358 30.638 3.59233C31.0291 3.80777 31.3323 4.12926 31.5478 4.55682C31.7632 4.98437 31.8709 5.51302 31.8709 6.14276V11H30.3844V6.32173C30.3844 5.76823 30.2402 5.3357 29.9519 5.02415C29.6635 4.70928 29.2675 4.55185 28.7637 4.55185C28.419 4.55185 28.1124 4.62642 27.8439 4.77557C27.5788 4.92472 27.3683 5.14347 27.2125 5.43182C27.0601 5.71686 26.9838 6.06155 26.9838 6.46591ZM37.1557 11.1541C36.4033 11.1541 35.7554 10.9934 35.2118 10.6719C34.6716 10.3471 34.254 9.89134 33.959 9.30469C33.6673 8.71473 33.5215 8.02367 33.5215 7.23153C33.5215 6.44934 33.6673 5.75994 33.959 5.16335C34.254 4.56676 34.665 4.10109 35.1919 3.76633C35.7222 3.43158 36.342 3.2642 37.0513 3.2642C37.4822 3.2642 37.8998 3.33546 38.3042 3.47798C38.7085 3.6205 39.0714 3.84422 39.3929 4.14915C39.7144 4.45407 39.968 4.85014 40.1536 5.33736C40.3392 5.82126 40.432 6.40956 40.432 7.10227V7.62926H34.3617V6.51562H38.9753C38.9753 6.12453 38.8958 5.77817 38.7367 5.47656C38.5776 5.17164 38.3539 4.93134 38.0655 4.75568C37.7805 4.58002 37.4457 4.49219 37.0613 4.49219C36.6436 4.49219 36.2791 4.59493 35.9675 4.80043C35.6593 5.0026 35.4206 5.26776 35.2516 5.59588C35.0859 5.92069 35.003 6.27367 35.003 6.65483V7.52486C35.003 8.03527 35.0925 8.46946 35.2715 8.82741C35.4538 9.18537 35.7073 9.45881 36.0321 9.64773C36.3569 9.83333 36.7364 9.92614 37.1706 9.92614C37.4524 9.92614 37.7092 9.88636 37.9412 9.80682C38.1732 9.72396 38.3738 9.60133 38.5428 9.43892C38.7118 9.27652 38.8411 9.07599 38.9306 8.83736L40.3375 9.09091C40.2248 9.50521 40.0227 9.86813 39.731 10.1797C39.4426 10.4879 39.0797 10.7282 38.6422 10.9006C38.208 11.0696 37.7125 11.1541 37.1557 11.1541ZM46.5806 6.05327V7.34091H42.0664V6.05327H46.5806ZM48.5618 13.8636V3.36364H50.0135V4.60156H50.1378C50.224 4.44247 50.3482 4.25852 50.5107 4.04972C50.6731 3.84091 50.8984 3.65862 51.1868 3.50284C51.4751 3.34375 51.8563 3.2642 52.3303 3.2642C52.9467 3.2642 53.4969 3.41998 53.9808 3.73153C54.4647 4.04309 54.8442 4.49219 55.1193 5.07884C55.3977 5.66548 55.5369 6.37145 55.5369 7.19673C55.5369 8.02202 55.3994 8.72964 55.1243 9.3196C54.8492 9.90625 54.4714 10.3587 53.9908 10.6768C53.5102 10.9917 52.9616 11.1491 52.3452 11.1491C51.8812 11.1491 51.5017 11.0713 51.2067 10.9155C50.915 10.7597 50.6863 10.5774 50.5206 10.3686C50.3549 10.1598 50.2273 9.9742 50.1378 9.81179H50.0483V13.8636H48.5618ZM50.0185 7.18182C50.0185 7.71875 50.0964 8.18939 50.2521 8.59375C50.4079 8.99811 50.6333 9.31463 50.9283 9.54332C51.2232 9.7687 51.5845 9.88139 52.0121 9.88139C52.4562 9.88139 52.8274 9.76373 53.1257 9.52841C53.424 9.28977 53.6494 8.96662 53.8018 8.55895C53.9576 8.15128 54.0355 7.69223 54.0355 7.18182C54.0355 6.67803 53.9593 6.22562 53.8068 5.82457C53.6577 5.42353 53.4323 5.10701 53.1307 4.875C52.8324 4.64299 52.4595 4.52699 52.0121 4.52699C51.5812 4.52699 51.2166 4.63802 50.9183 4.86009C50.6233 5.08215 50.3996 5.39205 50.2472 5.78977C50.0947 6.1875 50.0185 6.65151 50.0185 7.18182ZM58.6889 0.818182V11H57.2024V0.818182H58.6889ZM65.5261 7.8331V3.36364H67.0176V11H65.5559V9.67756H65.4764C65.3007 10.0852 65.019 10.425 64.6312 10.6967C64.2467 10.9652 63.7678 11.0994 63.1944 11.0994C62.7039 11.0994 62.2697 10.9917 61.8919 10.7763C61.5173 10.5575 61.2224 10.2344 61.0069 9.80682C60.7948 9.37926 60.6887 8.85062 60.6887 8.22088V3.36364H62.1752V8.0419C62.1752 8.56226 62.3194 8.97656 62.6078 9.2848C62.8961 9.59304 63.2707 9.74716 63.7314 9.74716C64.0098 9.74716 64.2865 9.67756 64.5616 9.53835C64.84 9.39915 65.0704 9.18868 65.2527 8.90696C65.4383 8.62524 65.5294 8.26728 65.5261 7.8331ZM74.7372 5.22798L73.3899 5.46662C73.3336 5.29427 73.2441 5.13021 73.1214 4.97443C73.0021 4.81865 72.8397 4.69105 72.6342 4.59162C72.4287 4.49219 72.1719 4.44247 71.8636 4.44247C71.4427 4.44247 71.0914 4.53693 70.8097 4.72585C70.5279 4.91146 70.3871 5.15175 70.3871 5.44673C70.3871 5.70194 70.4815 5.90743 70.6705 6.06321C70.8594 6.21899 71.1643 6.34659 71.5852 6.44602L72.7983 6.72443C73.5009 6.88684 74.0246 7.13707 74.3693 7.47514C74.714 7.81321 74.8864 8.25237 74.8864 8.79261C74.8864 9.25 74.7538 9.65767 74.4886 10.0156C74.2268 10.3703 73.8606 10.6487 73.3899 10.8509C72.9226 11.053 72.3807 11.1541 71.7642 11.1541C70.9091 11.1541 70.2114 10.9718 69.6712 10.6072C69.1309 10.2393 68.7995 9.71733 68.6768 9.04119L70.1136 8.82244C70.2031 9.19697 70.3871 9.48035 70.6655 9.67259C70.9439 9.86151 71.3068 9.95597 71.7543 9.95597C72.2415 9.95597 72.6309 9.85488 72.9226 9.6527C73.2143 9.44721 73.3601 9.19697 73.3601 8.90199C73.3601 8.66335 73.2706 8.46283 73.0916 8.30043C72.916 8.13802 72.6458 8.01539 72.2812 7.93253L70.9886 7.64915C70.276 7.48674 69.7491 7.22822 69.4077 6.87358C69.0696 6.51894 68.9006 6.06984 68.9006 5.52628C68.9006 5.07552 69.0265 4.68111 69.2784 4.34304C69.5303 4.00497 69.8783 3.74148 70.3224 3.55256C70.7666 3.36032 71.2753 3.2642 71.8487 3.2642C72.674 3.2642 73.3236 3.44318 73.7976 3.80114C74.2715 4.15578 74.5848 4.63139 74.7372 5.22798Z" fill="black"/>
</svg>
