<svg width="139" height="15" viewBox="0 0 139 15" fill="none" xmlns="http://www.w3.org/2000/svg">
<path d="M-0.000710189 11V3.36364H1.42614V4.60653H1.5206C1.67969 4.18561 1.93987 3.85748 2.30114 3.62216C2.66241 3.38352 3.09493 3.2642 3.59872 3.2642C4.10914 3.2642 4.5367 3.38352 4.88139 3.62216C5.2294 3.8608 5.48627 4.18892 5.65199 4.60653H5.73153C5.91383 4.19886 6.20384 3.87405 6.60156 3.6321C6.99929 3.38684 7.47325 3.2642 8.02344 3.2642C8.71615 3.2642 9.28125 3.4813 9.71875 3.91548C10.1596 4.34967 10.38 5.00426 10.38 5.87926V11H8.89347V6.01847C8.89347 5.50142 8.7526 5.12689 8.47088 4.89489C8.18916 4.66288 7.85275 4.54688 7.46165 4.54688C6.97775 4.54688 6.60156 4.69602 6.3331 4.99432C6.06463 5.2893 5.9304 5.6688 5.9304 6.13281V11H4.44886V5.92401C4.44886 5.50971 4.3196 5.17661 4.06108 4.92472C3.80256 4.67282 3.46615 4.54688 3.05185 4.54688C2.77012 4.54688 2.50994 4.62145 2.27131 4.7706C2.03599 4.91643 1.84541 5.12026 1.69957 5.3821C1.55706 5.64394 1.4858 5.94721 1.4858 6.2919V11H-0.000710189ZM15.6635 11.1541C14.9112 11.1541 14.2632 10.9934 13.7196 10.6719C13.1794 10.3471 12.7618 9.89134 12.4668 9.30469C12.1751 8.71473 12.0293 8.02367 12.0293 7.23153C12.0293 6.44934 12.1751 5.75994 12.4668 5.16335C12.7618 4.56676 13.1728 4.10109 13.6998 3.76633C14.2301 3.43158 14.8498 3.2642 15.5591 3.2642C15.99 3.2642 16.4076 3.33546 16.812 3.47798C17.2163 3.6205 17.5792 3.84422 17.9007 4.14915C18.2222 4.45407 18.4758 4.85014 18.6614 5.33736C18.847 5.82126 18.9398 6.40956 18.9398 7.10227V7.62926H12.8695V6.51562H17.4831C17.4831 6.12453 17.4036 5.77817 17.2445 5.47656C17.0854 5.17164 16.8617 4.93134 16.5733 4.75568C16.2883 4.58002 15.9535 4.49219 15.5691 4.49219C15.1515 4.49219 14.7869 4.59493 14.4753 4.80043C14.1671 5.0026 13.9284 5.26776 13.7594 5.59588C13.5937 5.92069 13.5108 6.27367 13.5108 6.65483V7.52486C13.5108 8.03527 13.6003 8.46946 13.7793 8.82741C13.9616 9.18537 14.2151 9.45881 14.54 9.64773C14.8648 9.83333 15.2443 9.92614 15.6784 9.92614C15.9602 9.92614 16.217 9.88636 16.449 9.80682C16.681 9.72396 16.8816 9.60133 17.0506 9.43892C17.2196 9.27652 17.3489 9.07599 17.4384 8.83736L18.8453 9.09091C18.7327 9.50521 18.5305 9.86813 18.2388 10.1797C17.9505 10.4879 17.5875 10.7282 17.15 10.9006C16.7158 11.0696 16.2203 11.1541 15.6635 11.1541ZM26.3114 5.22798L24.9641 5.46662C24.9078 5.29427 24.8183 5.13021 24.6957 4.97443C24.5763 4.81865 24.4139 4.69105 24.2085 4.59162C24.003 4.49219 23.7461 4.44247 23.4379 4.44247C23.0169 4.44247 22.6656 4.53693 22.3839 4.72585C22.1022 4.91146 21.9613 5.15175 21.9613 5.44673C21.9613 5.70194 22.0558 5.90743 22.2447 6.06321C22.4336 6.21899 22.7385 6.34659 23.1594 6.44602L24.3725 6.72443C25.0752 6.88684 25.5988 7.13707 25.9435 7.47514C26.2882 7.81321 26.4606 8.25237 26.4606 8.79261C26.4606 9.25 26.328 9.65767 26.0629 10.0156C25.801 10.3703 25.4348 10.6487 24.9641 10.8509C24.4968 11.053 23.9549 11.1541 23.3384 11.1541C22.4833 11.1541 21.7856 10.9718 21.2454 10.6072C20.7051 10.2393 20.3737 9.71733 20.2511 9.04119L21.6879 8.82244C21.7773 9.19697 21.9613 9.48035 22.2397 9.67259C22.5181 9.86151 22.881 9.95597 23.3285 9.95597C23.8157 9.95597 24.2051 9.85488 24.4968 9.6527C24.7885 9.44721 24.9343 9.19697 24.9343 8.90199C24.9343 8.66335 24.8448 8.46283 24.6658 8.30043C24.4902 8.13802 24.2201 8.01539 23.8555 7.93253L22.5629 7.64915C21.8503 7.48674 21.3233 7.22822 20.9819 6.87358C20.6438 6.51894 20.4748 6.06984 20.4748 5.52628C20.4748 5.07552 20.6007 4.68111 20.8526 4.34304C21.1045 4.00497 21.4525 3.74148 21.8967 3.55256C22.3408 3.36032 22.8496 3.2642 23.4229 3.2642C24.2482 3.2642 24.8978 3.44318 25.3718 3.80114C25.8458 4.15578 26.159 4.63139 26.3114 5.22798ZM33.8173 5.22798L32.47 5.46662C32.4136 5.29427 32.3242 5.13021 32.2015 4.97443C32.0822 4.81865 31.9198 4.69105 31.7143 4.59162C31.5088 4.49219 31.252 4.44247 30.9437 4.44247C30.5228 4.44247 30.1715 4.53693 29.8897 4.72585C29.608 4.91146 29.4672 5.15175 29.4672 5.44673C29.4672 5.70194 29.5616 5.90743 29.7505 6.06321C29.9395 6.21899 30.2444 6.34659 30.6653 6.44602L31.8784 6.72443C32.581 6.88684 33.1047 7.13707 33.4494 7.47514C33.7941 7.81321 33.9664 8.25237 33.9664 8.79261C33.9664 9.25 33.8339 9.65767 33.5687 10.0156C33.3069 10.3703 32.9406 10.6487 32.47 10.8509C32.0027 11.053 31.4608 11.1541 30.8443 11.1541C29.9892 11.1541 29.2915 10.9718 28.7512 10.6072C28.211 10.2393 27.8796 9.71733 27.7569 9.04119L29.1937 8.82244C29.2832 9.19697 29.4672 9.48035 29.7456 9.67259C30.024 9.86151 30.3869 9.95597 30.8343 9.95597C31.3216 9.95597 31.711 9.85488 32.0027 9.6527C32.2943 9.44721 32.4402 9.19697 32.4402 8.90199C32.4402 8.66335 32.3507 8.46283 32.1717 8.30043C31.996 8.13802 31.7259 8.01539 31.3613 7.93253L30.0687 7.64915C29.3561 7.48674 28.8291 7.22822 28.4877 6.87358C28.1497 6.51894 27.9806 6.06984 27.9806 5.52628C27.9806 5.07552 28.1066 4.68111 28.3585 4.34304C28.6104 4.00497 28.9584 3.74148 29.4025 3.55256C29.8467 3.36032 30.3554 3.2642 30.9288 3.2642C31.7541 3.2642 32.4037 3.44318 32.8777 3.80114C33.3516 4.15578 33.6648 4.63139 33.8173 5.22798ZM37.8232 11.169C37.3393 11.169 36.9018 11.0795 36.5107 10.9006C36.1196 10.7183 35.8097 10.4548 35.581 10.1101C35.3556 9.76539 35.2429 9.3428 35.2429 8.84233C35.2429 8.41146 35.3258 8.05682 35.4915 7.77841C35.6572 7.5 35.8809 7.27959 36.1626 7.11719C36.4444 6.95478 36.7592 6.83215 37.1072 6.74929C37.4553 6.66643 37.8099 6.60346 38.1712 6.56037C38.6286 6.50734 38.9998 6.46425 39.2848 6.43111C39.5698 6.39465 39.777 6.33665 39.9062 6.2571C40.0355 6.17756 40.1001 6.0483 40.1001 5.86932V5.83452C40.1001 5.40033 39.9775 5.06392 39.7322 4.82528C39.4903 4.58665 39.129 4.46733 38.6484 4.46733C38.148 4.46733 37.7536 4.57836 37.4652 4.80043C37.1802 5.01918 36.983 5.26278 36.8736 5.53125L35.4766 5.21307C35.6423 4.74905 35.8842 4.37453 36.2024 4.08949C36.5239 3.80114 36.8935 3.59233 37.3111 3.46307C37.7287 3.33049 38.1679 3.2642 38.6286 3.2642C38.9335 3.2642 39.2566 3.30066 39.598 3.37358C39.9427 3.44318 40.2642 3.57244 40.5625 3.76136C40.8641 3.95028 41.111 4.22041 41.3033 4.57173C41.4955 4.91974 41.5916 5.37216 41.5916 5.92898V11H40.1399V9.95597H40.0803C39.9841 10.1482 39.84 10.3371 39.6477 10.5227C39.4555 10.7083 39.2086 10.8625 38.907 10.9851C38.6054 11.1077 38.2441 11.169 37.8232 11.169ZM38.1463 9.97585C38.5573 9.97585 38.9086 9.89465 39.2003 9.73224C39.4953 9.56984 39.719 9.35772 39.8714 9.09588C40.0272 8.83073 40.1051 8.54735 40.1051 8.24574V7.26136C40.0521 7.31439 39.9493 7.36411 39.7969 7.41051C39.6477 7.4536 39.477 7.49171 39.2848 7.52486C39.0926 7.55469 38.9053 7.58286 38.723 7.60938C38.5407 7.63258 38.3883 7.65246 38.2656 7.66903C37.9773 7.70549 37.7138 7.76681 37.4751 7.85298C37.2398 7.93916 37.0509 8.06345 36.9084 8.22585C36.7692 8.38494 36.6996 8.59706 36.6996 8.86222C36.6996 9.23011 36.8355 9.50852 37.1072 9.69744C37.379 9.88305 37.7254 9.97585 38.1463 9.97585ZM46.7733 14.0227C46.1667 14.0227 45.6447 13.9432 45.2072 13.7841C44.773 13.625 44.4184 13.4145 44.1433 13.1527C43.8682 12.8909 43.6627 12.6042 43.5268 12.2926L44.8045 11.7656C44.894 11.9115 45.0133 12.0656 45.1625 12.228C45.3149 12.3937 45.5204 12.5346 45.7789 12.6506C46.0408 12.7666 46.3772 12.8246 46.7882 12.8246C47.3516 12.8246 47.8173 12.687 48.1852 12.4119C48.5531 12.1402 48.737 11.706 48.737 11.1094V9.60795H48.6426C48.5531 9.77036 48.4238 9.95099 48.2548 10.1499C48.0891 10.3487 47.8604 10.5211 47.5687 10.6669C47.277 10.8127 46.8975 10.8857 46.4302 10.8857C45.827 10.8857 45.2834 10.7448 44.7995 10.4631C44.319 10.178 43.9378 9.75876 43.6561 9.20526C43.3777 8.64844 43.2385 7.96401 43.2385 7.15199C43.2385 6.33996 43.376 5.64394 43.6511 5.06392C43.9295 4.4839 44.3107 4.03977 44.7946 3.73153C45.2785 3.41998 45.827 3.2642 46.4402 3.2642C46.9141 3.2642 47.2969 3.34375 47.5886 3.50284C47.8803 3.65862 48.1073 3.84091 48.2697 4.04972C48.4354 4.25852 48.563 4.44247 48.6525 4.60156H48.7619V3.36364H50.2186V11.169C50.2186 11.8253 50.0661 12.3639 49.7612 12.7848C49.4563 13.2057 49.0436 13.5173 48.5233 13.7195C48.0062 13.9216 47.4229 14.0227 46.7733 14.0227ZM46.7583 9.6527C47.1859 9.6527 47.5472 9.55327 47.8422 9.3544C48.1404 9.15223 48.3658 8.86387 48.5183 8.48935C48.6741 8.11151 48.752 7.65909 48.752 7.1321C48.752 6.61837 48.6757 6.16596 48.5233 5.77486C48.3708 5.38376 48.1471 5.07884 47.8521 4.86009C47.5571 4.63802 47.1925 4.52699 46.7583 4.52699C46.3109 4.52699 45.938 4.64299 45.6397 4.875C45.3414 5.10369 45.1161 5.41525 44.9636 5.80966C44.8145 6.20407 44.7399 6.64489 44.7399 7.1321C44.7399 7.63258 44.8161 8.07173 44.9686 8.44957C45.121 8.82741 45.3464 9.1224 45.6447 9.33452C45.9463 9.54664 46.3175 9.6527 46.7583 9.6527ZM55.5034 11.1541C54.751 11.1541 54.103 10.9934 53.5595 10.6719C53.0192 10.3471 52.6016 9.89134 52.3066 9.30469C52.015 8.71473 51.8691 8.02367 51.8691 7.23153C51.8691 6.44934 52.015 5.75994 52.3066 5.16335C52.6016 4.56676 53.0126 4.10109 53.5396 3.76633C54.0699 3.43158 54.6897 3.2642 55.399 3.2642C55.8298 3.2642 56.2475 3.33546 56.6518 3.47798C57.0562 3.6205 57.4191 3.84422 57.7406 4.14915C58.0621 4.45407 58.3156 4.85014 58.5012 5.33736C58.6868 5.82126 58.7797 6.40956 58.7797 7.10227V7.62926H52.7093V6.51562H57.323C57.323 6.12453 57.2434 5.77817 57.0843 5.47656C56.9252 5.17164 56.7015 4.93134 56.4132 4.75568C56.1281 4.58002 55.7934 4.49219 55.4089 4.49219C54.9913 4.49219 54.6267 4.59493 54.3152 4.80043C54.0069 5.0026 53.7683 5.26776 53.5993 5.59588C53.4335 5.92069 53.3507 6.27367 53.3507 6.65483V7.52486C53.3507 8.03527 53.4402 8.46946 53.6191 8.82741C53.8014 9.18537 54.055 9.45881 54.3798 9.64773C54.7046 9.83333 55.0841 9.92614 55.5183 9.92614C55.8 9.92614 56.0569 9.88636 56.2889 9.80682C56.5209 9.72396 56.7214 9.60133 56.8904 9.43892C57.0595 9.27652 57.1887 9.07599 57.2782 8.83736L58.6852 9.09091C58.5725 9.50521 58.3703 9.86813 58.0787 10.1797C57.7903 10.4879 57.4274 10.7282 56.9899 10.9006C56.5557 11.0696 56.0602 11.1541 55.5034 11.1541ZM64.9283 6.05327V7.34091H60.4141V6.05327H64.9283ZM69.1317 11.169C68.6478 11.169 68.2103 11.0795 67.8192 10.9006C67.4281 10.7183 67.1183 10.4548 66.8896 10.1101C66.6642 9.76539 66.5515 9.3428 66.5515 8.84233C66.5515 8.41146 66.6344 8.05682 66.8001 7.77841C66.9658 7.5 67.1895 7.27959 67.4712 7.11719C67.753 6.95478 68.0678 6.83215 68.4158 6.74929C68.7638 6.66643 69.1185 6.60346 69.4798 6.56037C69.9371 6.50734 70.3084 6.46425 70.5934 6.43111C70.8784 6.39465 71.0856 6.33665 71.2148 6.2571C71.3441 6.17756 71.4087 6.0483 71.4087 5.86932V5.83452C71.4087 5.40033 71.2861 5.06392 71.0408 4.82528C70.7989 4.58665 70.4376 4.46733 69.957 4.46733C69.4566 4.46733 69.0621 4.57836 68.7738 4.80043C68.4888 5.01918 68.2915 5.26278 68.1822 5.53125L66.7852 5.21307C66.9509 4.74905 67.1928 4.37453 67.511 4.08949C67.8325 3.80114 68.2021 3.59233 68.6197 3.46307C69.0373 3.33049 69.4764 3.2642 69.9371 3.2642C70.2421 3.2642 70.5652 3.30066 70.9066 3.37358C71.2513 3.44318 71.5728 3.57244 71.8711 3.76136C72.1727 3.95028 72.4196 4.22041 72.6119 4.57173C72.8041 4.91974 72.9002 5.37216 72.9002 5.92898V11H71.4485V9.95597H71.3888C71.2927 10.1482 71.1486 10.3371 70.9563 10.5227C70.7641 10.7083 70.5172 10.8625 70.2156 10.9851C69.9139 11.1077 69.5527 11.169 69.1317 11.169ZM69.4549 9.97585C69.8659 9.97585 70.2172 9.89465 70.5089 9.73224C70.8039 9.56984 71.0276 9.35772 71.18 9.09588C71.3358 8.83073 71.4137 8.54735 71.4137 8.24574V7.26136C71.3607 7.31439 71.2579 7.36411 71.1055 7.41051C70.9563 7.4536 70.7856 7.49171 70.5934 7.52486C70.4012 7.55469 70.2139 7.58286 70.0316 7.60938C69.8493 7.63258 69.6969 7.65246 69.5742 7.66903C69.2859 7.70549 69.0224 7.76681 68.7837 7.85298C68.5484 7.93916 68.3595 8.06345 68.217 8.22585C68.0778 8.38494 68.0082 8.59706 68.0082 8.86222C68.0082 9.23011 68.1441 9.50852 68.4158 9.69744C68.6876 9.88305 69.034 9.97585 69.4549 9.97585ZM76.3667 0.818182V11H74.8801V0.818182H76.3667ZM81.6577 11.1541C80.9053 11.1541 80.2573 10.9934 79.7138 10.6719C79.1735 10.3471 78.7559 9.89134 78.4609 9.30469C78.1693 8.71473 78.0234 8.02367 78.0234 7.23153C78.0234 6.44934 78.1693 5.75994 78.4609 5.16335C78.7559 4.56676 79.1669 4.10109 79.6939 3.76633C80.2242 3.43158 80.844 3.2642 81.5533 3.2642C81.9841 3.2642 82.4018 3.33546 82.8061 3.47798C83.2105 3.6205 83.5734 3.84422 83.8949 4.14915C84.2164 4.45407 84.4699 4.85014 84.6555 5.33736C84.8411 5.82126 84.9339 6.40956 84.9339 7.10227V7.62926H78.8636V6.51562H83.4773C83.4773 6.12453 83.3977 5.77817 83.2386 5.47656C83.0795 5.17164 82.8558 4.93134 82.5675 4.75568C82.2824 4.58002 81.9477 4.49219 81.5632 4.49219C81.1456 4.49219 80.781 4.59493 80.4695 4.80043C80.1612 5.0026 79.9226 5.26776 79.7536 5.59588C79.5878 5.92069 79.505 6.27367 79.505 6.65483V7.52486C79.505 8.03527 79.5945 8.46946 79.7734 8.82741C79.9557 9.18537 80.2093 9.45881 80.5341 9.64773C80.8589 9.83333 81.2384 9.92614 81.6726 9.92614C81.9543 9.92614 82.2112 9.88636 82.4432 9.80682C82.6752 9.72396 82.8757 9.60133 83.0447 9.43892C83.2138 9.27652 83.343 9.07599 83.4325 8.83736L84.8395 9.09091C84.7268 9.50521 84.5246 9.86813 84.233 10.1797C83.9446 10.4879 83.5817 10.7282 83.1442 10.9006C82.71 11.0696 82.2145 11.1541 81.6577 11.1541ZM86.5833 11V3.36364H88.0201V4.5767H88.0996C88.2388 4.16572 88.4841 3.84257 88.8354 3.60724C89.19 3.36861 89.5911 3.24929 90.0385 3.24929C90.1313 3.24929 90.2407 3.2526 90.3667 3.25923C90.4959 3.26586 90.597 3.27415 90.6699 3.28409V4.70597C90.6103 4.68939 90.5042 4.67116 90.3517 4.65128C90.1993 4.62808 90.0468 4.61648 89.8944 4.61648C89.543 4.61648 89.2298 4.69105 88.9547 4.8402C88.6829 4.98603 88.4675 5.18987 88.3084 5.4517C88.1493 5.71023 88.0698 6.00521 88.0698 6.33665V11H86.5833ZM95.9721 3.36364V4.55682H91.801V3.36364H95.9721ZM92.9196 1.53409H94.4061V8.75781C94.4061 9.04616 94.4492 9.26326 94.5353 9.40909C94.6215 9.55161 94.7325 9.64938 94.8684 9.70241C95.0076 9.75213 95.1584 9.77699 95.3208 9.77699C95.4402 9.77699 95.5446 9.7687 95.6341 9.75213C95.7235 9.73556 95.7931 9.7223 95.8429 9.71236L96.1113 10.9403C96.0252 10.9735 95.9025 11.0066 95.7434 11.0398C95.5843 11.0762 95.3855 11.0961 95.1468 11.0994C94.7557 11.1061 94.3912 11.0365 94.0531 10.8906C93.715 10.7448 93.4416 10.5194 93.2328 10.2145C93.024 9.90956 92.9196 9.52675 92.9196 9.06605V1.53409ZM101.856 6.05327V7.34091H97.3418V6.05327H101.856ZM107.054 11.1541C106.315 11.1541 105.678 10.9867 105.145 10.652C104.614 10.3139 104.207 9.84825 103.922 9.25497C103.637 8.66169 103.494 7.98224 103.494 7.21662C103.494 6.44105 103.64 5.75663 103.932 5.16335C104.223 4.56676 104.634 4.10109 105.165 3.76633C105.695 3.43158 106.32 3.2642 107.039 3.2642C107.619 3.2642 108.136 3.37192 108.59 3.58736C109.044 3.79948 109.41 4.09777 109.689 4.48224C109.97 4.86671 110.138 5.31581 110.191 5.82955H108.744C108.665 5.47159 108.482 5.16335 108.197 4.90483C107.916 4.64631 107.538 4.51705 107.064 4.51705C106.649 4.51705 106.287 4.62642 105.975 4.84517C105.667 5.06061 105.426 5.36884 105.254 5.76989C105.082 6.16761 104.996 6.63826 104.996 7.18182C104.996 7.73864 105.08 8.21922 105.249 8.62358C105.418 9.02794 105.657 9.34115 105.965 9.56321C106.277 9.78527 106.643 9.89631 107.064 9.89631C107.345 9.89631 107.601 9.84493 107.829 9.74219C108.061 9.63613 108.255 9.48532 108.411 9.28977C108.57 9.09422 108.681 8.8589 108.744 8.58381H110.191C110.138 9.07765 109.977 9.51847 109.709 9.90625C109.44 10.294 109.081 10.599 108.63 10.821C108.182 11.0431 107.657 11.1541 107.054 11.1541ZM111.781 11V3.36364H113.267V11H111.781ZM112.531 2.18537C112.273 2.18537 112.051 2.09919 111.865 1.92685C111.683 1.75118 111.592 1.54238 111.592 1.30043C111.592 1.05516 111.683 0.846354 111.865 0.674005C112.051 0.498342 112.273 0.410511 112.531 0.410511C112.79 0.410511 113.01 0.498342 113.192 0.674005C113.378 0.846354 113.471 1.05516 113.471 1.30043C113.471 1.54238 113.378 1.75118 113.192 1.92685C113.01 2.09919 112.79 2.18537 112.531 2.18537ZM115.267 11V3.36364H116.704V4.5767H116.783C116.922 4.16572 117.168 3.84257 117.519 3.60724C117.874 3.36861 118.275 3.24929 118.722 3.24929C118.815 3.24929 118.924 3.2526 119.05 3.25923C119.18 3.26586 119.281 3.27415 119.354 3.28409V4.70597C119.294 4.68939 119.188 4.67116 119.035 4.65128C118.883 4.62808 118.73 4.61648 118.578 4.61648C118.227 4.61648 117.913 4.69105 117.638 4.8402C117.367 4.98603 117.151 5.18987 116.992 5.4517C116.833 5.71023 116.753 6.00521 116.753 6.33665V11H115.267ZM123.583 11.1541C122.844 11.1541 122.208 10.9867 121.674 10.652C121.144 10.3139 120.736 9.84825 120.451 9.25497C120.166 8.66169 120.023 7.98224 120.023 7.21662C120.023 6.44105 120.169 5.75663 120.461 5.16335C120.753 4.56676 121.164 4.10109 121.694 3.76633C122.224 3.43158 122.849 3.2642 123.568 3.2642C124.148 3.2642 124.665 3.37192 125.119 3.58736C125.573 3.79948 125.94 4.09777 126.218 4.48224C126.5 4.86671 126.667 5.31581 126.72 5.82955H125.273C125.194 5.47159 125.012 5.16335 124.727 4.90483C124.445 4.64631 124.067 4.51705 123.593 4.51705C123.179 4.51705 122.816 4.62642 122.504 4.84517C122.196 5.06061 121.956 5.36884 121.783 5.76989C121.611 6.16761 121.525 6.63826 121.525 7.18182C121.525 7.73864 121.609 8.21922 121.778 8.62358C121.947 9.02794 122.186 9.34115 122.494 9.56321C122.806 9.78527 123.172 9.89631 123.593 9.89631C123.875 9.89631 124.13 9.84493 124.359 9.74219C124.591 9.63613 124.785 9.48532 124.94 9.28977C125.099 9.09422 125.21 8.8589 125.273 8.58381H126.72C126.667 9.07765 126.506 9.51847 126.238 9.90625C125.969 10.294 125.61 10.599 125.159 10.821C124.712 11.0431 124.186 11.1541 123.583 11.1541ZM129.796 0.818182V11H128.31V0.818182H129.796ZM135.087 11.1541C134.335 11.1541 133.687 10.9934 133.143 10.6719C132.603 10.3471 132.186 9.89134 131.891 9.30469C131.599 8.71473 131.453 8.02367 131.453 7.23153C131.453 6.44934 131.599 5.75994 131.891 5.16335C132.186 4.56676 132.597 4.10109 133.124 3.76633C133.654 3.43158 134.274 3.2642 134.983 3.2642C135.414 3.2642 135.831 3.33546 136.236 3.47798C136.64 3.6205 137.003 3.84422 137.325 4.14915C137.646 4.45407 137.9 4.85014 138.085 5.33736C138.271 5.82126 138.364 6.40956 138.364 7.10227V7.62926H132.293V6.51562H136.907C136.907 6.12453 136.827 5.77817 136.668 5.47656C136.509 5.17164 136.286 4.93134 135.997 4.75568C135.712 4.58002 135.377 4.49219 134.993 4.49219C134.575 4.49219 134.211 4.59493 133.899 4.80043C133.591 5.0026 133.352 5.26776 133.183 5.59588C133.018 5.92069 132.935 6.27367 132.935 6.65483V7.52486C132.935 8.03527 133.024 8.46946 133.203 8.82741C133.385 9.18537 133.639 9.45881 133.964 9.64773C134.289 9.83333 134.668 9.92614 135.102 9.92614C135.384 9.92614 135.641 9.88636 135.873 9.80682C136.105 9.72396 136.305 9.60133 136.474 9.43892C136.643 9.27652 136.773 9.07599 136.862 8.83736L138.269 9.09091C138.156 9.50521 137.954 9.86813 137.663 10.1797C137.374 10.4879 137.011 10.7282 136.574 10.9006C136.14 11.0696 135.644 11.1541 135.087 11.1541Z" fill="black"/>
</svg>
