<svg width="133" height="15" viewBox="0 0 133 15" fill="none" xmlns="http://www.w3.org/2000/svg">
<path d="M-0.000710189 11V3.36364H1.42614V4.60653H1.5206C1.67969 4.18561 1.93987 3.85748 2.30114 3.62216C2.66241 3.38352 3.09493 3.2642 3.59872 3.2642C4.10914 3.2642 4.5367 3.38352 4.88139 3.62216C5.2294 3.8608 5.48627 4.18892 5.65199 4.60653H5.73153C5.91383 4.19886 6.20384 3.87405 6.60156 3.6321C6.99929 3.38684 7.47325 3.2642 8.02344 3.2642C8.71615 3.2642 9.28125 3.4813 9.71875 3.91548C10.1596 4.34967 10.38 5.00426 10.38 5.87926V11H8.89347V6.01847C8.89347 5.50142 8.7526 5.12689 8.47088 4.89489C8.18916 4.66288 7.85275 4.54688 7.46165 4.54688C6.97775 4.54688 6.60156 4.69602 6.3331 4.99432C6.06463 5.2893 5.9304 5.6688 5.9304 6.13281V11H4.44886V5.92401C4.44886 5.50971 4.3196 5.17661 4.06108 4.92472C3.80256 4.67282 3.46615 4.54688 3.05185 4.54688C2.77012 4.54688 2.50994 4.62145 2.27131 4.7706C2.03599 4.91643 1.84541 5.12026 1.69957 5.3821C1.55706 5.64394 1.4858 5.94721 1.4858 6.2919V11H-0.000710189ZM15.6635 11.1541C14.9112 11.1541 14.2632 10.9934 13.7196 10.6719C13.1794 10.3471 12.7618 9.89134 12.4668 9.30469C12.1751 8.71473 12.0293 8.02367 12.0293 7.23153C12.0293 6.44934 12.1751 5.75994 12.4668 5.16335C12.7618 4.56676 13.1728 4.10109 13.6998 3.76633C14.2301 3.43158 14.8498 3.2642 15.5591 3.2642C15.99 3.2642 16.4076 3.33546 16.812 3.47798C17.2163 3.6205 17.5792 3.84422 17.9007 4.14915C18.2222 4.45407 18.4758 4.85014 18.6614 5.33736C18.847 5.82126 18.9398 6.40956 18.9398 7.10227V7.62926H12.8695V6.51562H17.4831C17.4831 6.12453 17.4036 5.77817 17.2445 5.47656C17.0854 5.17164 16.8617 4.93134 16.5733 4.75568C16.2883 4.58002 15.9535 4.49219 15.5691 4.49219C15.1515 4.49219 14.7869 4.59493 14.4753 4.80043C14.1671 5.0026 13.9284 5.26776 13.7594 5.59588C13.5937 5.92069 13.5108 6.27367 13.5108 6.65483V7.52486C13.5108 8.03527 13.6003 8.46946 13.7793 8.82741C13.9616 9.18537 14.2151 9.45881 14.54 9.64773C14.8648 9.83333 15.2443 9.92614 15.6784 9.92614C15.9602 9.92614 16.217 9.88636 16.449 9.80682C16.681 9.72396 16.8816 9.60133 17.0506 9.43892C17.2196 9.27652 17.3489 9.07599 17.4384 8.83736L18.8453 9.09091C18.7327 9.50521 18.5305 9.86813 18.2388 10.1797C17.9505 10.4879 17.5875 10.7282 17.15 10.9006C16.7158 11.0696 16.2203 11.1541 15.6635 11.1541ZM26.3114 5.22798L24.9641 5.46662C24.9078 5.29427 24.8183 5.13021 24.6957 4.97443C24.5763 4.81865 24.4139 4.69105 24.2085 4.59162C24.003 4.49219 23.7461 4.44247 23.4379 4.44247C23.0169 4.44247 22.6656 4.53693 22.3839 4.72585C22.1022 4.91146 21.9613 5.15175 21.9613 5.44673C21.9613 5.70194 22.0558 5.90743 22.2447 6.06321C22.4336 6.21899 22.7385 6.34659 23.1594 6.44602L24.3725 6.72443C25.0752 6.88684 25.5988 7.13707 25.9435 7.47514C26.2882 7.81321 26.4606 8.25237 26.4606 8.79261C26.4606 9.25 26.328 9.65767 26.0629 10.0156C25.801 10.3703 25.4348 10.6487 24.9641 10.8509C24.4968 11.053 23.9549 11.1541 23.3384 11.1541C22.4833 11.1541 21.7856 10.9718 21.2454 10.6072C20.7051 10.2393 20.3737 9.71733 20.2511 9.04119L21.6879 8.82244C21.7773 9.19697 21.9613 9.48035 22.2397 9.67259C22.5181 9.86151 22.881 9.95597 23.3285 9.95597C23.8157 9.95597 24.2051 9.85488 24.4968 9.6527C24.7885 9.44721 24.9343 9.19697 24.9343 8.90199C24.9343 8.66335 24.8448 8.46283 24.6658 8.30043C24.4902 8.13802 24.2201 8.01539 23.8555 7.93253L22.5629 7.64915C21.8503 7.48674 21.3233 7.22822 20.9819 6.87358C20.6438 6.51894 20.4748 6.06984 20.4748 5.52628C20.4748 5.07552 20.6007 4.68111 20.8526 4.34304C21.1045 4.00497 21.4525 3.74148 21.8967 3.55256C22.3408 3.36032 22.8496 3.2642 23.4229 3.2642C24.2482 3.2642 24.8978 3.44318 25.3718 3.80114C25.8458 4.15578 26.159 4.63139 26.3114 5.22798ZM33.8173 5.22798L32.47 5.46662C32.4136 5.29427 32.3242 5.13021 32.2015 4.97443C32.0822 4.81865 31.9198 4.69105 31.7143 4.59162C31.5088 4.49219 31.252 4.44247 30.9437 4.44247C30.5228 4.44247 30.1715 4.53693 29.8897 4.72585C29.608 4.91146 29.4672 5.15175 29.4672 5.44673C29.4672 5.70194 29.5616 5.90743 29.7505 6.06321C29.9395 6.21899 30.2444 6.34659 30.6653 6.44602L31.8784 6.72443C32.581 6.88684 33.1047 7.13707 33.4494 7.47514C33.7941 7.81321 33.9664 8.25237 33.9664 8.79261C33.9664 9.25 33.8339 9.65767 33.5687 10.0156C33.3069 10.3703 32.9406 10.6487 32.47 10.8509C32.0027 11.053 31.4608 11.1541 30.8443 11.1541C29.9892 11.1541 29.2915 10.9718 28.7512 10.6072C28.211 10.2393 27.8796 9.71733 27.7569 9.04119L29.1937 8.82244C29.2832 9.19697 29.4672 9.48035 29.7456 9.67259C30.024 9.86151 30.3869 9.95597 30.8343 9.95597C31.3216 9.95597 31.711 9.85488 32.0027 9.6527C32.2943 9.44721 32.4402 9.19697 32.4402 8.90199C32.4402 8.66335 32.3507 8.46283 32.1717 8.30043C31.996 8.13802 31.7259 8.01539 31.3613 7.93253L30.0687 7.64915C29.3561 7.48674 28.8291 7.22822 28.4877 6.87358C28.1497 6.51894 27.9806 6.06984 27.9806 5.52628C27.9806 5.07552 28.1066 4.68111 28.3585 4.34304C28.6104 4.00497 28.9584 3.74148 29.4025 3.55256C29.8467 3.36032 30.3554 3.2642 30.9288 3.2642C31.7541 3.2642 32.4037 3.44318 32.8777 3.80114C33.3516 4.15578 33.6648 4.63139 33.8173 5.22798ZM37.8232 11.169C37.3393 11.169 36.9018 11.0795 36.5107 10.9006C36.1196 10.7183 35.8097 10.4548 35.581 10.1101C35.3556 9.76539 35.2429 9.3428 35.2429 8.84233C35.2429 8.41146 35.3258 8.05682 35.4915 7.77841C35.6572 7.5 35.8809 7.27959 36.1626 7.11719C36.4444 6.95478 36.7592 6.83215 37.1072 6.74929C37.4553 6.66643 37.8099 6.60346 38.1712 6.56037C38.6286 6.50734 38.9998 6.46425 39.2848 6.43111C39.5698 6.39465 39.777 6.33665 39.9062 6.2571C40.0355 6.17756 40.1001 6.0483 40.1001 5.86932V5.83452C40.1001 5.40033 39.9775 5.06392 39.7322 4.82528C39.4903 4.58665 39.129 4.46733 38.6484 4.46733C38.148 4.46733 37.7536 4.57836 37.4652 4.80043C37.1802 5.01918 36.983 5.26278 36.8736 5.53125L35.4766 5.21307C35.6423 4.74905 35.8842 4.37453 36.2024 4.08949C36.5239 3.80114 36.8935 3.59233 37.3111 3.46307C37.7287 3.33049 38.1679 3.2642 38.6286 3.2642C38.9335 3.2642 39.2566 3.30066 39.598 3.37358C39.9427 3.44318 40.2642 3.57244 40.5625 3.76136C40.8641 3.95028 41.111 4.22041 41.3033 4.57173C41.4955 4.91974 41.5916 5.37216 41.5916 5.92898V11H40.1399V9.95597H40.0803C39.9841 10.1482 39.84 10.3371 39.6477 10.5227C39.4555 10.7083 39.2086 10.8625 38.907 10.9851C38.6054 11.1077 38.2441 11.169 37.8232 11.169ZM38.1463 9.97585C38.5573 9.97585 38.9086 9.89465 39.2003 9.73224C39.4953 9.56984 39.719 9.35772 39.8714 9.09588C40.0272 8.83073 40.1051 8.54735 40.1051 8.24574V7.26136C40.0521 7.31439 39.9493 7.36411 39.7969 7.41051C39.6477 7.4536 39.477 7.49171 39.2848 7.52486C39.0926 7.55469 38.9053 7.58286 38.723 7.60938C38.5407 7.63258 38.3883 7.65246 38.2656 7.66903C37.9773 7.70549 37.7138 7.76681 37.4751 7.85298C37.2398 7.93916 37.0509 8.06345 36.9084 8.22585C36.7692 8.38494 36.6996 8.59706 36.6996 8.86222C36.6996 9.23011 36.8355 9.50852 37.1072 9.69744C37.379 9.88305 37.7254 9.97585 38.1463 9.97585ZM46.7733 14.0227C46.1667 14.0227 45.6447 13.9432 45.2072 13.7841C44.773 13.625 44.4184 13.4145 44.1433 13.1527C43.8682 12.8909 43.6627 12.6042 43.5268 12.2926L44.8045 11.7656C44.894 11.9115 45.0133 12.0656 45.1625 12.228C45.3149 12.3937 45.5204 12.5346 45.7789 12.6506C46.0408 12.7666 46.3772 12.8246 46.7882 12.8246C47.3516 12.8246 47.8173 12.687 48.1852 12.4119C48.5531 12.1402 48.737 11.706 48.737 11.1094V9.60795H48.6426C48.5531 9.77036 48.4238 9.95099 48.2548 10.1499C48.0891 10.3487 47.8604 10.5211 47.5687 10.6669C47.277 10.8127 46.8975 10.8857 46.4302 10.8857C45.827 10.8857 45.2834 10.7448 44.7995 10.4631C44.319 10.178 43.9378 9.75876 43.6561 9.20526C43.3777 8.64844 43.2385 7.96401 43.2385 7.15199C43.2385 6.33996 43.376 5.64394 43.6511 5.06392C43.9295 4.4839 44.3107 4.03977 44.7946 3.73153C45.2785 3.41998 45.827 3.2642 46.4402 3.2642C46.9141 3.2642 47.2969 3.34375 47.5886 3.50284C47.8803 3.65862 48.1073 3.84091 48.2697 4.04972C48.4354 4.25852 48.563 4.44247 48.6525 4.60156H48.7619V3.36364H50.2186V11.169C50.2186 11.8253 50.0661 12.3639 49.7612 12.7848C49.4563 13.2057 49.0436 13.5173 48.5233 13.7195C48.0062 13.9216 47.4229 14.0227 46.7733 14.0227ZM46.7583 9.6527C47.1859 9.6527 47.5472 9.55327 47.8422 9.3544C48.1404 9.15223 48.3658 8.86387 48.5183 8.48935C48.6741 8.11151 48.752 7.65909 48.752 7.1321C48.752 6.61837 48.6757 6.16596 48.5233 5.77486C48.3708 5.38376 48.1471 5.07884 47.8521 4.86009C47.5571 4.63802 47.1925 4.52699 46.7583 4.52699C46.3109 4.52699 45.938 4.64299 45.6397 4.875C45.3414 5.10369 45.1161 5.41525 44.9636 5.80966C44.8145 6.20407 44.7399 6.64489 44.7399 7.1321C44.7399 7.63258 44.8161 8.07173 44.9686 8.44957C45.121 8.82741 45.3464 9.1224 45.6447 9.33452C45.9463 9.54664 46.3175 9.6527 46.7583 9.6527ZM55.5034 11.1541C54.751 11.1541 54.103 10.9934 53.5595 10.6719C53.0192 10.3471 52.6016 9.89134 52.3066 9.30469C52.015 8.71473 51.8691 8.02367 51.8691 7.23153C51.8691 6.44934 52.015 5.75994 52.3066 5.16335C52.6016 4.56676 53.0126 4.10109 53.5396 3.76633C54.0699 3.43158 54.6897 3.2642 55.399 3.2642C55.8298 3.2642 56.2475 3.33546 56.6518 3.47798C57.0562 3.6205 57.4191 3.84422 57.7406 4.14915C58.0621 4.45407 58.3156 4.85014 58.5012 5.33736C58.6868 5.82126 58.7797 6.40956 58.7797 7.10227V7.62926H52.7093V6.51562H57.323C57.323 6.12453 57.2434 5.77817 57.0843 5.47656C56.9252 5.17164 56.7015 4.93134 56.4132 4.75568C56.1281 4.58002 55.7934 4.49219 55.4089 4.49219C54.9913 4.49219 54.6267 4.59493 54.3152 4.80043C54.0069 5.0026 53.7683 5.26776 53.5993 5.59588C53.4335 5.92069 53.3507 6.27367 53.3507 6.65483V7.52486C53.3507 8.03527 53.4402 8.46946 53.6191 8.82741C53.8014 9.18537 54.055 9.45881 54.3798 9.64773C54.7046 9.83333 55.0841 9.92614 55.5183 9.92614C55.8 9.92614 56.0569 9.88636 56.2889 9.80682C56.5209 9.72396 56.7214 9.60133 56.8904 9.43892C57.0595 9.27652 57.1887 9.07599 57.2782 8.83736L58.6852 9.09091C58.5725 9.50521 58.3703 9.86813 58.0787 10.1797C57.7903 10.4879 57.4274 10.7282 56.9899 10.9006C56.5557 11.0696 56.0602 11.1541 55.5034 11.1541ZM64.9283 6.05327V7.34091H60.4141V6.05327H64.9283ZM72.6317 5.22798L71.2844 5.46662C71.2281 5.29427 71.1386 5.13021 71.016 4.97443C70.8967 4.81865 70.7343 4.69105 70.5288 4.59162C70.3233 4.49219 70.0664 4.44247 69.7582 4.44247C69.3372 4.44247 68.9859 4.53693 68.7042 4.72585C68.4225 4.91146 68.2816 5.15175 68.2816 5.44673C68.2816 5.70194 68.3761 5.90743 68.565 6.06321C68.7539 6.21899 69.0588 6.34659 69.4798 6.44602L70.6928 6.72443C71.3955 6.88684 71.9192 7.13707 72.2638 7.47514C72.6085 7.81321 72.7809 8.25237 72.7809 8.79261C72.7809 9.25 72.6483 9.65767 72.3832 10.0156C72.1213 10.3703 71.7551 10.6487 71.2844 10.8509C70.8171 11.053 70.2752 11.1541 69.6587 11.1541C68.8036 11.1541 68.1059 10.9718 67.5657 10.6072C67.0254 10.2393 66.694 9.71733 66.5714 9.04119L68.0082 8.82244C68.0977 9.19697 68.2816 9.48035 68.56 9.67259C68.8384 9.86151 69.2013 9.95597 69.6488 9.95597C70.136 9.95597 70.5254 9.85488 70.8171 9.6527C71.1088 9.44721 71.2546 9.19697 71.2546 8.90199C71.2546 8.66335 71.1651 8.46283 70.9862 8.30043C70.8105 8.13802 70.5404 8.01539 70.1758 7.93253L68.8832 7.64915C68.1706 7.48674 67.6436 7.22822 67.3022 6.87358C66.9641 6.51894 66.7951 6.06984 66.7951 5.52628C66.7951 5.07552 66.921 4.68111 67.1729 4.34304C67.4248 4.00497 67.7728 3.74148 68.217 3.55256C68.6611 3.36032 69.1699 3.2642 69.7433 3.2642C70.5685 3.2642 71.2182 3.44318 71.6921 3.80114C72.1661 4.15578 72.4793 4.63139 72.6317 5.22798ZM79.5708 13.8636V9.81179H79.4814C79.3919 9.9742 79.2626 10.1598 79.0936 10.3686C78.9279 10.5774 78.6992 10.7597 78.4075 10.9155C78.1158 11.0713 77.738 11.1491 77.274 11.1491C76.6575 11.1491 76.1073 10.9917 75.6234 10.6768C75.1428 10.3587 74.765 9.90625 74.4899 9.3196C74.2181 8.72964 74.0822 8.02202 74.0822 7.19673C74.0822 6.37145 74.2198 5.66548 74.4949 5.07884C74.7733 4.49219 75.1544 4.04309 75.6383 3.73153C76.1222 3.41998 76.6708 3.2642 77.2839 3.2642C77.7579 3.2642 78.139 3.34375 78.4274 3.50284C78.719 3.65862 78.9444 3.84091 79.1035 4.04972C79.2659 4.25852 79.3919 4.44247 79.4814 4.60156H79.6056V3.36364H81.0574V13.8636H79.5708ZM77.6021 9.88139C78.0297 9.88139 78.3909 9.7687 78.6859 9.54332C78.9842 9.31463 79.2096 8.99811 79.362 8.59375C79.5178 8.18939 79.5957 7.71875 79.5957 7.18182C79.5957 6.65151 79.5195 6.1875 79.367 5.78977C79.2145 5.39205 78.9908 5.08215 78.6958 4.86009C78.4009 4.63802 78.0363 4.52699 77.6021 4.52699C77.1547 4.52699 76.7818 4.64299 76.4835 4.875C76.1852 5.10701 75.9598 5.42353 75.8074 5.82457C75.6582 6.22562 75.5836 6.67803 75.5836 7.18182C75.5836 7.69223 75.6599 8.15128 75.8123 8.55895C75.9648 8.96662 76.1902 9.28977 76.4885 9.52841C76.7901 9.76373 77.1613 9.88139 77.6021 9.88139ZM87.8933 7.8331V3.36364H89.3848V11H87.9231V9.67756H87.8436C87.6679 10.0852 87.3862 10.425 86.9984 10.6967C86.6139 10.9652 86.135 11.0994 85.5616 11.0994C85.0711 11.0994 84.6369 10.9917 84.2591 10.7763C83.8845 10.5575 83.5895 10.2344 83.3741 9.80682C83.162 9.37926 83.0559 8.85062 83.0559 8.22088V3.36364H84.5424V8.0419C84.5424 8.56226 84.6866 8.97656 84.975 9.2848C85.2633 9.59304 85.6378 9.74716 86.0985 9.74716C86.377 9.74716 86.6537 9.67756 86.9288 9.53835C87.2072 9.39915 87.4376 9.18868 87.6199 8.90696C87.8055 8.62524 87.8966 8.26728 87.8933 7.8331ZM93.6044 11.169C93.1205 11.169 92.683 11.0795 92.2919 10.9006C91.9008 10.7183 91.5909 10.4548 91.3622 10.1101C91.1368 9.76539 91.0241 9.3428 91.0241 8.84233C91.0241 8.41146 91.107 8.05682 91.2727 7.77841C91.4384 7.5 91.6622 7.27959 91.9439 7.11719C92.2256 6.95478 92.5405 6.83215 92.8885 6.74929C93.2365 6.66643 93.5911 6.60346 93.9524 6.56037C94.4098 6.50734 94.781 6.46425 95.0661 6.43111C95.3511 6.39465 95.5582 6.33665 95.6875 6.2571C95.8168 6.17756 95.8814 6.0483 95.8814 5.86932V5.83452C95.8814 5.40033 95.7588 5.06392 95.5135 4.82528C95.2715 4.58665 94.9103 4.46733 94.4297 4.46733C93.9292 4.46733 93.5348 4.57836 93.2464 4.80043C92.9614 5.01918 92.7642 5.26278 92.6548 5.53125L91.2578 5.21307C91.4235 4.74905 91.6655 4.37453 91.9837 4.08949C92.3052 3.80114 92.6747 3.59233 93.0923 3.46307C93.5099 3.33049 93.9491 3.2642 94.4098 3.2642C94.7147 3.2642 95.0379 3.30066 95.3793 3.37358C95.724 3.44318 96.0455 3.57244 96.3438 3.76136C96.6454 3.95028 96.8923 4.22041 97.0845 4.57173C97.2768 4.91974 97.3729 5.37216 97.3729 5.92898V11H95.9212V9.95597H95.8615C95.7654 10.1482 95.6212 10.3371 95.429 10.5227C95.2367 10.7083 94.9898 10.8625 94.6882 10.9851C94.3866 11.1077 94.0253 11.169 93.6044 11.169ZM93.9276 9.97585C94.3385 9.97585 94.6899 9.89465 94.9815 9.73224C95.2765 9.56984 95.5002 9.35772 95.6527 9.09588C95.8085 8.83073 95.8864 8.54735 95.8864 8.24574V7.26136C95.8333 7.31439 95.7306 7.36411 95.5781 7.41051C95.429 7.4536 95.2583 7.49171 95.0661 7.52486C94.8738 7.55469 94.6866 7.58286 94.5043 7.60938C94.322 7.63258 94.1695 7.65246 94.0469 7.66903C93.7585 7.70549 93.495 7.76681 93.2564 7.85298C93.0211 7.93916 92.8321 8.06345 92.6896 8.22585C92.5504 8.38494 92.4808 8.59706 92.4808 8.86222C92.4808 9.23011 92.6167 9.50852 92.8885 9.69744C93.1603 9.88305 93.5066 9.97585 93.9276 9.97585ZM99.3528 11V3.36364H100.79V4.5767H100.869C101.008 4.16572 101.254 3.84257 101.605 3.60724C101.96 3.36861 102.361 3.24929 102.808 3.24929C102.901 3.24929 103.01 3.2526 103.136 3.25923C103.265 3.26586 103.367 3.27415 103.439 3.28409V4.70597C103.38 4.68939 103.274 4.67116 103.121 4.65128C102.969 4.62808 102.816 4.61648 102.664 4.61648C102.313 4.61648 101.999 4.69105 101.724 4.8402C101.452 4.98603 101.237 5.18987 101.078 5.4517C100.919 5.71023 100.839 6.00521 100.839 6.33665V11H99.3528ZM107.744 11.1541C106.991 11.1541 106.343 10.9934 105.8 10.6719C105.259 10.3471 104.842 9.89134 104.547 9.30469C104.255 8.71473 104.109 8.02367 104.109 7.23153C104.109 6.44934 104.255 5.75994 104.547 5.16335C104.842 4.56676 105.253 4.10109 105.78 3.76633C106.31 3.43158 106.93 3.2642 107.639 3.2642C108.07 3.2642 108.488 3.33546 108.892 3.47798C109.296 3.6205 109.659 3.84422 109.981 4.14915C110.302 4.45407 110.556 4.85014 110.741 5.33736C110.927 5.82126 111.02 6.40956 111.02 7.10227V7.62926H104.95V6.51562H109.563C109.563 6.12453 109.484 5.77817 109.325 5.47656C109.165 5.17164 108.942 4.93134 108.653 4.75568C108.368 4.58002 108.034 4.49219 107.649 4.49219C107.232 4.49219 106.867 4.59493 106.555 4.80043C106.247 5.0026 106.009 5.26776 105.839 5.59588C105.674 5.92069 105.591 6.27367 105.591 6.65483V7.52486C105.591 8.03527 105.68 8.46946 105.859 8.82741C106.042 9.18537 106.295 9.45881 106.62 9.64773C106.945 9.83333 107.324 9.92614 107.759 9.92614C108.04 9.92614 108.297 9.88636 108.529 9.80682C108.761 9.72396 108.962 9.60133 109.131 9.43892C109.3 9.27652 109.429 9.07599 109.518 8.83736L110.925 9.09091C110.813 9.50521 110.611 9.86813 110.319 10.1797C110.031 10.4879 109.668 10.7282 109.23 10.9006C108.796 11.0696 108.3 11.1541 107.744 11.1541ZM117.169 6.05327V7.34091H112.654V6.05327H117.169ZM122.675 11.169C121.889 11.1657 121.218 10.9586 120.661 10.5476C120.104 10.1366 119.678 9.53835 119.383 8.75284C119.088 7.96733 118.941 7.02107 118.941 5.91406C118.941 4.81037 119.088 3.86742 119.383 3.08523C119.682 2.30303 120.109 1.70644 120.666 1.29545C121.226 0.884469 121.896 0.678977 122.675 0.678977C123.453 0.678977 124.121 0.886126 124.678 1.30043C125.235 1.71141 125.661 2.308 125.956 3.0902C126.254 3.86908 126.403 4.81037 126.403 5.91406C126.403 7.02438 126.256 7.9723 125.961 8.75781C125.666 9.54001 125.24 10.1383 124.683 10.5526C124.126 10.9635 123.457 11.169 122.675 11.169ZM122.675 9.84162C123.364 9.84162 123.903 9.50521 124.29 8.83239C124.681 8.15956 124.877 7.18679 124.877 5.91406C124.877 5.06889 124.787 4.35464 124.608 3.77131C124.433 3.18466 124.179 2.74053 123.848 2.43892C123.52 2.134 123.129 1.98153 122.675 1.98153C121.988 1.98153 121.45 2.3196 121.059 2.99574C120.668 3.67187 120.47 4.64465 120.467 5.91406C120.467 6.76255 120.555 7.48011 120.731 8.06676C120.91 8.65009 121.163 9.09257 121.491 9.39418C121.819 9.69247 122.214 9.84162 122.675 9.84162ZM132.03 0.818182V11H130.489V2.35938H130.429L127.993 3.95028V2.47869L130.533 0.818182H132.03Z" fill="black"/>
</svg>
