<svg width="57" height="12" viewBox="0 0 57 12" fill="none" xmlns="http://www.w3.org/2000/svg">
<path d="M6.72159 5.22798L5.37429 5.46662C5.31795 5.29427 5.22846 5.13021 5.10582 4.97443C4.98651 4.81865 4.8241 4.69105 4.61861 4.59162C4.41312 4.49219 4.15625 4.44247 3.84801 4.44247C3.42708 4.44247 3.07576 4.53693 2.79403 4.72585C2.51231 4.91146 2.37145 5.15175 2.37145 5.44673C2.37145 5.70194 2.46591 5.90743 2.65483 6.06321C2.84375 6.21899 3.14867 6.34659 3.5696 6.44602L4.78267 6.72443C5.48532 6.88684 6.009 7.13707 6.35369 7.47514C6.69839 7.81321 6.87074 8.25237 6.87074 8.79261C6.87074 9.25 6.73816 9.65767 6.47301 10.0156C6.21117 10.3703 5.84493 10.6487 5.37429 10.8509C4.90696 11.053 4.36506 11.1541 3.74858 11.1541C2.89347 11.1541 2.19579 10.9718 1.65554 10.6072C1.11529 10.2393 0.783854 9.71733 0.661222 9.04119L2.09801 8.82244C2.1875 9.19697 2.37145 9.48035 2.64986 9.67259C2.92827 9.86151 3.29119 9.95597 3.73864 9.95597C4.22585 9.95597 4.61529 9.85488 4.90696 9.6527C5.19863 9.44721 5.34446 9.19697 5.34446 8.90199C5.34446 8.66335 5.25497 8.46283 5.07599 8.30043C4.90033 8.13802 4.63021 8.01539 4.26562 7.93253L2.97301 7.64915C2.26042 7.48674 1.73343 7.22822 1.39205 6.87358C1.05398 6.51894 0.884943 6.06984 0.884943 5.52628C0.884943 5.07552 1.01089 4.68111 1.26278 4.34304C1.51468 4.00497 1.86269 3.74148 2.30682 3.55256C2.75095 3.36032 3.25971 3.2642 3.8331 3.2642C4.65838 3.2642 5.308 3.44318 5.78196 3.80114C6.25592 4.15578 6.56913 4.63139 6.72159 5.22798ZM11.7963 11.1541C11.044 11.1541 10.396 10.9934 9.85245 10.6719C9.3122 10.3471 8.89459 9.89134 8.59961 9.30469C8.30794 8.71473 8.16211 8.02367 8.16211 7.23153C8.16211 6.44934 8.30794 5.75994 8.59961 5.16335C8.89459 4.56676 9.30558 4.10109 9.83256 3.76633C10.3629 3.43158 10.9827 3.2642 11.6919 3.2642C12.1228 3.2642 12.5404 3.33546 12.9448 3.47798C13.3491 3.6205 13.7121 3.84422 14.0336 4.14915C14.3551 4.45407 14.6086 4.85014 14.7942 5.33736C14.9798 5.82126 15.0726 6.40956 15.0726 7.10227V7.62926H9.00231V6.51562H13.6159C13.6159 6.12453 13.5364 5.77817 13.3773 5.47656C13.2182 5.17164 12.9945 4.93134 12.7061 4.75568C12.4211 4.58002 12.0864 4.49219 11.7019 4.49219C11.2843 4.49219 10.9197 4.59493 10.6081 4.80043C10.2999 5.0026 10.0613 5.26776 9.89222 5.59588C9.7265 5.92069 9.64364 6.27367 9.64364 6.65483V7.52486C9.64364 8.03527 9.73313 8.46946 9.91211 8.82741C10.0944 9.18537 10.348 9.45881 10.6728 9.64773C10.9976 9.83333 11.3771 9.92614 11.8113 9.92614C12.093 9.92614 12.3498 9.88636 12.5819 9.80682C12.8139 9.72396 13.0144 9.60133 13.1834 9.43892C13.3525 9.27652 13.4817 9.07599 13.5712 8.83736L14.9782 9.09091C14.8655 9.50521 14.6633 9.86813 14.3716 10.1797C14.0833 10.4879 13.7203 10.7282 13.2828 10.9006C12.8487 11.0696 12.3532 11.1541 11.7963 11.1541ZM18.2085 6.46591V11H16.7219V3.36364H18.1488V4.60653H18.2433C18.4189 4.20218 18.694 3.87737 19.0685 3.6321C19.4464 3.38684 19.922 3.2642 20.4954 3.2642C21.0157 3.2642 21.4715 3.37358 21.8626 3.59233C22.2537 3.80777 22.5569 4.12926 22.7724 4.55682C22.9878 4.98437 23.0955 5.51302 23.0955 6.14276V11H21.609V6.32173C21.609 5.76823 21.4648 5.3357 21.1765 5.02415C20.8881 4.70928 20.4921 4.55185 19.9883 4.55185C19.6436 4.55185 19.337 4.62642 19.0685 4.77557C18.8034 4.92472 18.5929 5.14347 18.4371 5.43182C18.2847 5.71686 18.2085 6.06155 18.2085 6.46591ZM27.9478 11.1491C27.3313 11.1491 26.7811 10.9917 26.2972 10.6768C25.8166 10.3587 25.4388 9.90625 25.1637 9.3196C24.8919 8.72964 24.756 8.02202 24.756 7.19673C24.756 6.37145 24.8936 5.66548 25.1687 5.07884C25.4471 4.49219 25.8282 4.04309 26.3121 3.73153C26.796 3.41998 27.3446 3.2642 27.9577 3.2642C28.4317 3.2642 28.8129 3.34375 29.1012 3.50284C29.3929 3.65862 29.6183 3.84091 29.7773 4.04972C29.9397 4.25852 30.0657 4.44247 30.1552 4.60156H30.2447V0.818182H31.7312V11H30.2795V9.81179H30.1552C30.0657 9.9742 29.9364 10.1598 29.7674 10.3686C29.6017 10.5774 29.373 10.7597 29.0813 10.9155C28.7897 11.0713 28.4118 11.1491 27.9478 11.1491ZM28.2759 9.88139C28.7035 9.88139 29.0647 9.7687 29.3597 9.54332C29.658 9.31463 29.8834 8.99811 30.0359 8.59375C30.1916 8.18939 30.2695 7.71875 30.2695 7.18182C30.2695 6.65151 30.1933 6.1875 30.0408 5.78977C29.8884 5.39205 29.6647 5.08215 29.3697 4.86009C29.0747 4.63802 28.7101 4.52699 28.2759 4.52699C27.8285 4.52699 27.4556 4.64299 27.1573 4.875C26.859 5.10701 26.6336 5.42353 26.4812 5.82457C26.332 6.22562 26.2575 6.67803 26.2575 7.18182C26.2575 7.69223 26.3337 8.15128 26.4862 8.55895C26.6386 8.96662 26.864 9.28977 27.1623 9.52841C27.4639 9.76373 27.8351 9.88139 28.2759 9.88139ZM38.3521 6.05327V7.34091H33.8379V6.05327H38.3521ZM43.8581 11.169C43.0726 11.1657 42.4015 10.9586 41.8446 10.5476C41.2878 10.1366 40.8619 9.53835 40.5669 8.75284C40.272 7.96733 40.1245 7.02107 40.1245 5.91406C40.1245 4.81037 40.272 3.86742 40.5669 3.08523C40.8652 2.30303 41.2928 1.70644 41.8496 1.29545C42.4097 0.884469 43.0792 0.678977 43.8581 0.678977C44.637 0.678977 45.3049 0.886126 45.8617 1.30043C46.4185 1.71141 46.8444 2.308 47.1394 3.0902C47.4377 3.86908 47.5868 4.81037 47.5868 5.91406C47.5868 7.02438 47.4393 7.9723 47.1444 8.75781C46.8494 9.54001 46.4235 10.1383 45.8667 10.5526C45.3098 10.9635 44.6403 11.169 43.8581 11.169ZM43.8581 9.84162C44.5475 9.84162 45.0861 9.50521 45.4739 8.83239C45.865 8.15956 46.0605 7.18679 46.0605 5.91406C46.0605 5.06889 45.9711 4.35464 45.7921 3.77131C45.6164 3.18466 45.3629 2.74053 45.0314 2.43892C44.7033 2.134 44.3122 1.98153 43.8581 1.98153C43.1721 1.98153 42.6335 2.3196 42.2424 2.99574C41.8513 3.67187 41.6541 4.64465 41.6507 5.91406C41.6507 6.76255 41.7386 7.48011 41.9142 8.06676C42.0932 8.65009 42.3468 9.09257 42.6749 9.39418C43.003 9.69247 43.3974 9.84162 43.8581 9.84162ZM52.8952 11.1392C52.2125 11.1392 51.6026 11.0215 51.0657 10.7862C50.5321 10.5509 50.1095 10.2244 49.7979 9.80682C49.4897 9.38589 49.324 8.89867 49.3008 8.34517H50.8619C50.8817 8.64678 50.9828 8.90862 51.1651 9.13068C51.3507 9.34943 51.5927 9.51847 51.891 9.63778C52.1893 9.7571 52.5207 9.81676 52.8853 9.81676C53.2863 9.81676 53.641 9.74716 53.9492 9.60795C54.2608 9.46875 54.5044 9.27486 54.68 9.02628C54.8557 8.77438 54.9435 8.48438 54.9435 8.15625C54.9435 7.81487 54.8557 7.51491 54.68 7.25639C54.5077 6.99455 54.2541 6.78906 53.9194 6.63991C53.588 6.49077 53.1869 6.41619 52.7163 6.41619H51.8562V5.16335H52.7163C53.0941 5.16335 53.4255 5.09541 53.7106 4.95952C53.9989 4.82363 54.2243 4.63471 54.3867 4.39276C54.5491 4.14749 54.6303 3.8608 54.6303 3.53267C54.6303 3.2178 54.5591 2.94437 54.4165 2.71236C54.2773 2.47704 54.0785 2.29309 53.82 2.16051C53.5647 2.02794 53.2631 1.96165 52.9151 1.96165C52.5837 1.96165 52.2738 2.02296 51.9854 2.1456C51.7004 2.26491 51.4684 2.43726 51.2894 2.66264C51.1104 2.88471 51.0143 3.15151 51.0011 3.46307H49.5146C49.5311 2.91288 49.6935 2.42898 50.0018 2.01136C50.3133 1.59375 50.7243 1.26728 51.2347 1.03196C51.7451 0.796638 52.3119 0.678977 52.935 0.678977C53.588 0.678977 54.1514 0.806581 54.6254 1.06179C55.1026 1.31368 55.4705 1.65009 55.729 2.07102C55.9909 2.49195 56.1201 2.95265 56.1168 3.45312C56.1201 4.0232 55.9611 4.5071 55.6396 4.90483C55.3214 5.30256 54.8971 5.56937 54.3668 5.70526V5.7848C55.043 5.88755 55.5666 6.15601 55.9379 6.5902C56.3124 7.02438 56.498 7.56297 56.4947 8.20597C56.498 8.7661 56.3422 9.26823 56.0273 9.71236C55.7158 10.1565 55.2899 10.5062 54.7496 10.7614C54.2094 11.0133 53.5913 11.1392 52.8952 11.1392Z" fill="black"/>
</svg>
