<svg width="138" height="15" viewBox="0 0 138 15" fill="none" xmlns="http://www.w3.org/2000/svg">
<path d="M-0.000710189 11V3.36364H1.42614V4.60653H1.5206C1.67969 4.18561 1.93987 3.85748 2.30114 3.62216C2.66241 3.38352 3.09493 3.2642 3.59872 3.2642C4.10914 3.2642 4.5367 3.38352 4.88139 3.62216C5.2294 3.8608 5.48627 4.18892 5.65199 4.60653H5.73153C5.91383 4.19886 6.20384 3.87405 6.60156 3.6321C6.99929 3.38684 7.47325 3.2642 8.02344 3.2642C8.71615 3.2642 9.28125 3.4813 9.71875 3.91548C10.1596 4.34967 10.38 5.00426 10.38 5.87926V11H8.89347V6.01847C8.89347 5.50142 8.7526 5.12689 8.47088 4.89489C8.18916 4.66288 7.85275 4.54688 7.46165 4.54688C6.97775 4.54688 6.60156 4.69602 6.3331 4.99432C6.06463 5.2893 5.9304 5.6688 5.9304 6.13281V11H4.44886V5.92401C4.44886 5.50971 4.3196 5.17661 4.06108 4.92472C3.80256 4.67282 3.46615 4.54688 3.05185 4.54688C2.77012 4.54688 2.50994 4.62145 2.27131 4.7706C2.03599 4.91643 1.84541 5.12026 1.69957 5.3821C1.55706 5.64394 1.4858 5.94721 1.4858 6.2919V11H-0.000710189ZM15.6635 11.1541C14.9112 11.1541 14.2632 10.9934 13.7196 10.6719C13.1794 10.3471 12.7618 9.89134 12.4668 9.30469C12.1751 8.71473 12.0293 8.02367 12.0293 7.23153C12.0293 6.44934 12.1751 5.75994 12.4668 5.16335C12.7618 4.56676 13.1728 4.10109 13.6998 3.76633C14.2301 3.43158 14.8498 3.2642 15.5591 3.2642C15.99 3.2642 16.4076 3.33546 16.812 3.47798C17.2163 3.6205 17.5792 3.84422 17.9007 4.14915C18.2222 4.45407 18.4758 4.85014 18.6614 5.33736C18.847 5.82126 18.9398 6.40956 18.9398 7.10227V7.62926H12.8695V6.51562H17.4831C17.4831 6.12453 17.4036 5.77817 17.2445 5.47656C17.0854 5.17164 16.8617 4.93134 16.5733 4.75568C16.2883 4.58002 15.9535 4.49219 15.5691 4.49219C15.1515 4.49219 14.7869 4.59493 14.4753 4.80043C14.1671 5.0026 13.9284 5.26776 13.7594 5.59588C13.5937 5.92069 13.5108 6.27367 13.5108 6.65483V7.52486C13.5108 8.03527 13.6003 8.46946 13.7793 8.82741C13.9616 9.18537 14.2151 9.45881 14.54 9.64773C14.8648 9.83333 15.2443 9.92614 15.6784 9.92614C15.9602 9.92614 16.217 9.88636 16.449 9.80682C16.681 9.72396 16.8816 9.60133 17.0506 9.43892C17.2196 9.27652 17.3489 9.07599 17.4384 8.83736L18.8453 9.09091C18.7327 9.50521 18.5305 9.86813 18.2388 10.1797C17.9505 10.4879 17.5875 10.7282 17.15 10.9006C16.7158 11.0696 16.2203 11.1541 15.6635 11.1541ZM26.3114 5.22798L24.9641 5.46662C24.9078 5.29427 24.8183 5.13021 24.6957 4.97443C24.5763 4.81865 24.4139 4.69105 24.2085 4.59162C24.003 4.49219 23.7461 4.44247 23.4379 4.44247C23.0169 4.44247 22.6656 4.53693 22.3839 4.72585C22.1022 4.91146 21.9613 5.15175 21.9613 5.44673C21.9613 5.70194 22.0558 5.90743 22.2447 6.06321C22.4336 6.21899 22.7385 6.34659 23.1594 6.44602L24.3725 6.72443C25.0752 6.88684 25.5988 7.13707 25.9435 7.47514C26.2882 7.81321 26.4606 8.25237 26.4606 8.79261C26.4606 9.25 26.328 9.65767 26.0629 10.0156C25.801 10.3703 25.4348 10.6487 24.9641 10.8509C24.4968 11.053 23.9549 11.1541 23.3384 11.1541C22.4833 11.1541 21.7856 10.9718 21.2454 10.6072C20.7051 10.2393 20.3737 9.71733 20.2511 9.04119L21.6879 8.82244C21.7773 9.19697 21.9613 9.48035 22.2397 9.67259C22.5181 9.86151 22.881 9.95597 23.3285 9.95597C23.8157 9.95597 24.2051 9.85488 24.4968 9.6527C24.7885 9.44721 24.9343 9.19697 24.9343 8.90199C24.9343 8.66335 24.8448 8.46283 24.6658 8.30043C24.4902 8.13802 24.2201 8.01539 23.8555 7.93253L22.5629 7.64915C21.8503 7.48674 21.3233 7.22822 20.9819 6.87358C20.6438 6.51894 20.4748 6.06984 20.4748 5.52628C20.4748 5.07552 20.6007 4.68111 20.8526 4.34304C21.1045 4.00497 21.4525 3.74148 21.8967 3.55256C22.3408 3.36032 22.8496 3.2642 23.4229 3.2642C24.2482 3.2642 24.8978 3.44318 25.3718 3.80114C25.8458 4.15578 26.159 4.63139 26.3114 5.22798ZM33.8173 5.22798L32.47 5.46662C32.4136 5.29427 32.3242 5.13021 32.2015 4.97443C32.0822 4.81865 31.9198 4.69105 31.7143 4.59162C31.5088 4.49219 31.252 4.44247 30.9437 4.44247C30.5228 4.44247 30.1715 4.53693 29.8897 4.72585C29.608 4.91146 29.4672 5.15175 29.4672 5.44673C29.4672 5.70194 29.5616 5.90743 29.7505 6.06321C29.9395 6.21899 30.2444 6.34659 30.6653 6.44602L31.8784 6.72443C32.581 6.88684 33.1047 7.13707 33.4494 7.47514C33.7941 7.81321 33.9664 8.25237 33.9664 8.79261C33.9664 9.25 33.8339 9.65767 33.5687 10.0156C33.3069 10.3703 32.9406 10.6487 32.47 10.8509C32.0027 11.053 31.4608 11.1541 30.8443 11.1541C29.9892 11.1541 29.2915 10.9718 28.7512 10.6072C28.211 10.2393 27.8796 9.71733 27.7569 9.04119L29.1937 8.82244C29.2832 9.19697 29.4672 9.48035 29.7456 9.67259C30.024 9.86151 30.3869 9.95597 30.8343 9.95597C31.3216 9.95597 31.711 9.85488 32.0027 9.6527C32.2943 9.44721 32.4402 9.19697 32.4402 8.90199C32.4402 8.66335 32.3507 8.46283 32.1717 8.30043C31.996 8.13802 31.7259 8.01539 31.3613 7.93253L30.0687 7.64915C29.3561 7.48674 28.8291 7.22822 28.4877 6.87358C28.1497 6.51894 27.9806 6.06984 27.9806 5.52628C27.9806 5.07552 28.1066 4.68111 28.3585 4.34304C28.6104 4.00497 28.9584 3.74148 29.4025 3.55256C29.8467 3.36032 30.3554 3.2642 30.9288 3.2642C31.7541 3.2642 32.4037 3.44318 32.8777 3.80114C33.3516 4.15578 33.6648 4.63139 33.8173 5.22798ZM37.8232 11.169C37.3393 11.169 36.9018 11.0795 36.5107 10.9006C36.1196 10.7183 35.8097 10.4548 35.581 10.1101C35.3556 9.76539 35.2429 9.3428 35.2429 8.84233C35.2429 8.41146 35.3258 8.05682 35.4915 7.77841C35.6572 7.5 35.8809 7.27959 36.1626 7.11719C36.4444 6.95478 36.7592 6.83215 37.1072 6.74929C37.4553 6.66643 37.8099 6.60346 38.1712 6.56037C38.6286 6.50734 38.9998 6.46425 39.2848 6.43111C39.5698 6.39465 39.777 6.33665 39.9062 6.2571C40.0355 6.17756 40.1001 6.0483 40.1001 5.86932V5.83452C40.1001 5.40033 39.9775 5.06392 39.7322 4.82528C39.4903 4.58665 39.129 4.46733 38.6484 4.46733C38.148 4.46733 37.7536 4.57836 37.4652 4.80043C37.1802 5.01918 36.983 5.26278 36.8736 5.53125L35.4766 5.21307C35.6423 4.74905 35.8842 4.37453 36.2024 4.08949C36.5239 3.80114 36.8935 3.59233 37.3111 3.46307C37.7287 3.33049 38.1679 3.2642 38.6286 3.2642C38.9335 3.2642 39.2566 3.30066 39.598 3.37358C39.9427 3.44318 40.2642 3.57244 40.5625 3.76136C40.8641 3.95028 41.111 4.22041 41.3033 4.57173C41.4955 4.91974 41.5916 5.37216 41.5916 5.92898V11H40.1399V9.95597H40.0803C39.9841 10.1482 39.84 10.3371 39.6477 10.5227C39.4555 10.7083 39.2086 10.8625 38.907 10.9851C38.6054 11.1077 38.2441 11.169 37.8232 11.169ZM38.1463 9.97585C38.5573 9.97585 38.9086 9.89465 39.2003 9.73224C39.4953 9.56984 39.719 9.35772 39.8714 9.09588C40.0272 8.83073 40.1051 8.54735 40.1051 8.24574V7.26136C40.0521 7.31439 39.9493 7.36411 39.7969 7.41051C39.6477 7.4536 39.477 7.49171 39.2848 7.52486C39.0926 7.55469 38.9053 7.58286 38.723 7.60938C38.5407 7.63258 38.3883 7.65246 38.2656 7.66903C37.9773 7.70549 37.7138 7.76681 37.4751 7.85298C37.2398 7.93916 37.0509 8.06345 36.9084 8.22585C36.7692 8.38494 36.6996 8.59706 36.6996 8.86222C36.6996 9.23011 36.8355 9.50852 37.1072 9.69744C37.379 9.88305 37.7254 9.97585 38.1463 9.97585ZM46.7733 14.0227C46.1667 14.0227 45.6447 13.9432 45.2072 13.7841C44.773 13.625 44.4184 13.4145 44.1433 13.1527C43.8682 12.8909 43.6627 12.6042 43.5268 12.2926L44.8045 11.7656C44.894 11.9115 45.0133 12.0656 45.1625 12.228C45.3149 12.3937 45.5204 12.5346 45.7789 12.6506C46.0408 12.7666 46.3772 12.8246 46.7882 12.8246C47.3516 12.8246 47.8173 12.687 48.1852 12.4119C48.5531 12.1402 48.737 11.706 48.737 11.1094V9.60795H48.6426C48.5531 9.77036 48.4238 9.95099 48.2548 10.1499C48.0891 10.3487 47.8604 10.5211 47.5687 10.6669C47.277 10.8127 46.8975 10.8857 46.4302 10.8857C45.827 10.8857 45.2834 10.7448 44.7995 10.4631C44.319 10.178 43.9378 9.75876 43.6561 9.20526C43.3777 8.64844 43.2385 7.96401 43.2385 7.15199C43.2385 6.33996 43.376 5.64394 43.6511 5.06392C43.9295 4.4839 44.3107 4.03977 44.7946 3.73153C45.2785 3.41998 45.827 3.2642 46.4402 3.2642C46.9141 3.2642 47.2969 3.34375 47.5886 3.50284C47.8803 3.65862 48.1073 3.84091 48.2697 4.04972C48.4354 4.25852 48.563 4.44247 48.6525 4.60156H48.7619V3.36364H50.2186V11.169C50.2186 11.8253 50.0661 12.3639 49.7612 12.7848C49.4563 13.2057 49.0436 13.5173 48.5233 13.7195C48.0062 13.9216 47.4229 14.0227 46.7733 14.0227ZM46.7583 9.6527C47.1859 9.6527 47.5472 9.55327 47.8422 9.3544C48.1404 9.15223 48.3658 8.86387 48.5183 8.48935C48.6741 8.11151 48.752 7.65909 48.752 7.1321C48.752 6.61837 48.6757 6.16596 48.5233 5.77486C48.3708 5.38376 48.1471 5.07884 47.8521 4.86009C47.5571 4.63802 47.1925 4.52699 46.7583 4.52699C46.3109 4.52699 45.938 4.64299 45.6397 4.875C45.3414 5.10369 45.1161 5.41525 44.9636 5.80966C44.8145 6.20407 44.7399 6.64489 44.7399 7.1321C44.7399 7.63258 44.8161 8.07173 44.9686 8.44957C45.121 8.82741 45.3464 9.1224 45.6447 9.33452C45.9463 9.54664 46.3175 9.6527 46.7583 9.6527ZM55.5034 11.1541C54.751 11.1541 54.103 10.9934 53.5595 10.6719C53.0192 10.3471 52.6016 9.89134 52.3066 9.30469C52.015 8.71473 51.8691 8.02367 51.8691 7.23153C51.8691 6.44934 52.015 5.75994 52.3066 5.16335C52.6016 4.56676 53.0126 4.10109 53.5396 3.76633C54.0699 3.43158 54.6897 3.2642 55.399 3.2642C55.8298 3.2642 56.2475 3.33546 56.6518 3.47798C57.0562 3.6205 57.4191 3.84422 57.7406 4.14915C58.0621 4.45407 58.3156 4.85014 58.5012 5.33736C58.6868 5.82126 58.7797 6.40956 58.7797 7.10227V7.62926H52.7093V6.51562H57.323C57.323 6.12453 57.2434 5.77817 57.0843 5.47656C56.9252 5.17164 56.7015 4.93134 56.4132 4.75568C56.1281 4.58002 55.7934 4.49219 55.4089 4.49219C54.9913 4.49219 54.6267 4.59493 54.3152 4.80043C54.0069 5.0026 53.7683 5.26776 53.5993 5.59588C53.4335 5.92069 53.3507 6.27367 53.3507 6.65483V7.52486C53.3507 8.03527 53.4402 8.46946 53.6191 8.82741C53.8014 9.18537 54.055 9.45881 54.3798 9.64773C54.7046 9.83333 55.0841 9.92614 55.5183 9.92614C55.8 9.92614 56.0569 9.88636 56.2889 9.80682C56.5209 9.72396 56.7214 9.60133 56.8904 9.43892C57.0595 9.27652 57.1887 9.07599 57.2782 8.83736L58.6852 9.09091C58.5725 9.50521 58.3703 9.86813 58.0787 10.1797C57.7903 10.4879 57.4274 10.7282 56.9899 10.9006C56.5557 11.0696 56.0602 11.1541 55.5034 11.1541ZM64.9283 6.05327V7.34091H60.4141V6.05327H64.9283ZM70.1261 11.1541C69.387 11.1541 68.7506 10.9867 68.217 10.652C67.6867 10.3139 67.279 9.84825 66.994 9.25497C66.7089 8.66169 66.5664 7.98224 66.5664 7.21662C66.5664 6.44105 66.7122 5.75663 67.0039 5.16335C67.2956 4.56676 67.7066 4.10109 68.2369 3.76633C68.7672 3.43158 69.3919 3.2642 70.1112 3.2642C70.6912 3.2642 71.2082 3.37192 71.6623 3.58736C72.1164 3.79948 72.4826 4.09777 72.761 4.48224C73.0427 4.86671 73.2101 5.31581 73.2631 5.82955H71.8164C71.7369 5.47159 71.5546 5.16335 71.2695 4.90483C70.9878 4.64631 70.61 4.51705 70.136 4.51705C69.7217 4.51705 69.3588 4.62642 69.0472 4.84517C68.739 5.06061 68.4987 5.36884 68.3263 5.76989C68.154 6.16761 68.0678 6.63826 68.0678 7.18182C68.0678 7.73864 68.1523 8.21922 68.3214 8.62358C68.4904 9.02794 68.729 9.34115 69.0373 9.56321C69.3488 9.78527 69.7151 9.89631 70.136 9.89631C70.4177 9.89631 70.6729 9.84493 70.9016 9.74219C71.1336 9.63613 71.3275 9.48532 71.4833 9.28977C71.6424 9.09422 71.7534 8.8589 71.8164 8.58381H73.2631C73.2101 9.07765 73.0494 9.51847 72.7809 9.90625C72.5124 10.294 72.1528 10.599 71.7021 10.821C71.2546 11.0431 70.7293 11.1541 70.1261 11.1541ZM76.3393 6.46591V11H74.8528V0.818182H76.3194V4.60653H76.4139C76.5929 4.19555 76.8663 3.86908 77.2342 3.62713C77.6021 3.38518 78.0827 3.2642 78.676 3.2642C79.1996 3.2642 79.657 3.37192 80.0481 3.58736C80.4425 3.80279 80.7475 4.12429 80.9629 4.55185C81.1816 4.97609 81.291 5.50639 81.291 6.14276V11H79.8045V6.32173C79.8045 5.7616 79.6603 5.32741 79.372 5.01918C79.0836 4.70762 78.6826 4.55185 78.1689 4.55185C77.8175 4.55185 77.5027 4.62642 77.2243 4.77557C76.9492 4.92472 76.7321 5.14347 76.573 5.43182C76.4172 5.71686 76.3393 6.06155 76.3393 6.46591ZM85.497 11.169C85.0131 11.169 84.5756 11.0795 84.1845 10.9006C83.7934 10.7183 83.4835 10.4548 83.2548 10.1101C83.0294 9.76539 82.9167 9.3428 82.9167 8.84233C82.9167 8.41146 82.9996 8.05682 83.1653 7.77841C83.331 7.5 83.5547 7.27959 83.8365 7.11719C84.1182 6.95478 84.4331 6.83215 84.7811 6.74929C85.1291 6.66643 85.4837 6.60346 85.845 6.56037C86.3024 6.50734 86.6736 6.46425 86.9586 6.43111C87.2437 6.39465 87.4508 6.33665 87.5801 6.2571C87.7093 6.17756 87.774 6.0483 87.774 5.86932V5.83452C87.774 5.40033 87.6513 5.06392 87.4061 4.82528C87.1641 4.58665 86.8029 4.46733 86.3223 4.46733C85.8218 4.46733 85.4274 4.57836 85.139 4.80043C84.854 5.01918 84.6568 5.26278 84.5474 5.53125L83.1504 5.21307C83.3161 4.74905 83.5581 4.37453 83.8762 4.08949C84.1977 3.80114 84.5673 3.59233 84.9849 3.46307C85.4025 3.33049 85.8417 3.2642 86.3024 3.2642C86.6073 3.2642 86.9305 3.30066 87.2718 3.37358C87.6165 3.44318 87.938 3.57244 88.2363 3.76136C88.5379 3.95028 88.7849 4.22041 88.9771 4.57173C89.1693 4.91974 89.2654 5.37216 89.2654 5.92898V11H87.8137V9.95597H87.7541C87.658 10.1482 87.5138 10.3371 87.3216 10.5227C87.1293 10.7083 86.8824 10.8625 86.5808 10.9851C86.2792 11.1077 85.9179 11.169 85.497 11.169ZM85.8201 9.97585C86.2311 9.97585 86.5824 9.89465 86.8741 9.73224C87.1691 9.56984 87.3928 9.35772 87.5453 9.09588C87.7011 8.83073 87.7789 8.54735 87.7789 8.24574V7.26136C87.7259 7.31439 87.6232 7.36411 87.4707 7.41051C87.3216 7.4536 87.1509 7.49171 86.9586 7.52486C86.7664 7.55469 86.5791 7.58286 86.3968 7.60938C86.2145 7.63258 86.0621 7.65246 85.9395 7.66903C85.6511 7.70549 85.3876 7.76681 85.149 7.85298C84.9136 7.93916 84.7247 8.06345 84.5822 8.22585C84.443 8.38494 84.3734 8.59706 84.3734 8.86222C84.3734 9.23011 84.5093 9.50852 84.7811 9.69744C85.0529 9.88305 85.3992 9.97585 85.8201 9.97585ZM94.81 3.36364V4.55682H90.6388V3.36364H94.81ZM91.7575 1.53409H93.244V8.75781C93.244 9.04616 93.2871 9.26326 93.3732 9.40909C93.4594 9.55161 93.5704 9.64938 93.7063 9.70241C93.8455 9.75213 93.9963 9.77699 94.1587 9.77699C94.2781 9.77699 94.3825 9.7687 94.4719 9.75213C94.5614 9.73556 94.631 9.7223 94.6808 9.71236L94.9492 10.9403C94.863 10.9735 94.7404 11.0066 94.5813 11.0398C94.4222 11.0762 94.2234 11.0961 93.9847 11.0994C93.5936 11.1061 93.229 11.0365 92.891 10.8906C92.5529 10.7448 92.2795 10.5194 92.0707 10.2145C91.8619 9.90956 91.7575 9.52675 91.7575 9.06605V1.53409ZM100.694 6.05327V7.34091H96.1797V6.05327H100.694ZM105.892 11.1541C105.153 11.1541 104.516 10.9867 103.983 10.652C103.452 10.3139 103.045 9.84825 102.76 9.25497C102.475 8.66169 102.332 7.98224 102.332 7.21662C102.332 6.44105 102.478 5.75663 102.77 5.16335C103.061 4.56676 103.472 4.10109 104.002 3.76633C104.533 3.43158 105.158 3.2642 105.877 3.2642C106.457 3.2642 106.974 3.37192 107.428 3.58736C107.882 3.79948 108.248 4.09777 108.527 4.48224C108.808 4.86671 108.976 5.31581 109.029 5.82955H107.582C107.502 5.47159 107.32 5.16335 107.035 4.90483C106.753 4.64631 106.376 4.51705 105.902 4.51705C105.487 4.51705 105.124 4.62642 104.813 4.84517C104.505 5.06061 104.264 5.36884 104.092 5.76989C103.92 6.16761 103.833 6.63826 103.833 7.18182C103.833 7.73864 103.918 8.21922 104.087 8.62358C104.256 9.02794 104.495 9.34115 104.803 9.56321C105.114 9.78527 105.481 9.89631 105.902 9.89631C106.183 9.89631 106.439 9.84493 106.667 9.74219C106.899 9.63613 107.093 9.48532 107.249 9.28977C107.408 9.09422 107.519 8.8589 107.582 8.58381H109.029C108.976 9.07765 108.815 9.51847 108.547 9.90625C108.278 10.294 107.918 10.599 107.468 10.821C107.02 11.0431 106.495 11.1541 105.892 11.1541ZM110.618 11V3.36364H112.105V11H110.618ZM111.369 2.18537C111.111 2.18537 110.889 2.09919 110.703 1.92685C110.521 1.75118 110.43 1.54238 110.43 1.30043C110.43 1.05516 110.521 0.846354 110.703 0.674005C110.889 0.498342 111.111 0.410511 111.369 0.410511C111.628 0.410511 111.848 0.498342 112.03 0.674005C112.216 0.846354 112.309 1.05516 112.309 1.30043C112.309 1.54238 112.216 1.75118 112.03 1.92685C111.848 2.09919 111.628 2.18537 111.369 2.18537ZM114.105 11V3.36364H115.542V4.5767H115.621C115.76 4.16572 116.006 3.84257 116.357 3.60724C116.712 3.36861 117.113 3.24929 117.56 3.24929C117.653 3.24929 117.762 3.2526 117.888 3.25923C118.017 3.26586 118.118 3.27415 118.191 3.28409V4.70597C118.132 4.68939 118.026 4.67116 117.873 4.65128C117.721 4.62808 117.568 4.61648 117.416 4.61648C117.065 4.61648 116.751 4.69105 116.476 4.8402C116.204 4.98603 115.989 5.18987 115.83 5.4517C115.671 5.71023 115.591 6.00521 115.591 6.33665V11H114.105ZM122.421 11.1541C121.682 11.1541 121.046 10.9867 120.512 10.652C119.982 10.3139 119.574 9.84825 119.289 9.25497C119.004 8.66169 118.861 7.98224 118.861 7.21662C118.861 6.44105 119.007 5.75663 119.299 5.16335C119.59 4.56676 120.001 4.10109 120.532 3.76633C121.062 3.43158 121.687 3.2642 122.406 3.2642C122.986 3.2642 123.503 3.37192 123.957 3.58736C124.411 3.79948 124.778 4.09777 125.056 4.48224C125.338 4.86671 125.505 5.31581 125.558 5.82955H124.111C124.032 5.47159 123.849 5.16335 123.564 4.90483C123.283 4.64631 122.905 4.51705 122.431 4.51705C122.017 4.51705 121.654 4.62642 121.342 4.84517C121.034 5.06061 120.794 5.36884 120.621 5.76989C120.449 6.16761 120.363 6.63826 120.363 7.18182C120.363 7.73864 120.447 8.21922 120.616 8.62358C120.785 9.02794 121.024 9.34115 121.332 9.56321C121.644 9.78527 122.01 9.89631 122.431 9.89631C122.713 9.89631 122.968 9.84493 123.197 9.74219C123.429 9.63613 123.622 9.48532 123.778 9.28977C123.937 9.09422 124.048 8.8589 124.111 8.58381H125.558C125.505 9.07765 125.344 9.51847 125.076 9.90625C124.807 10.294 124.448 10.599 123.997 10.821C123.55 11.0431 123.024 11.1541 122.421 11.1541ZM128.634 0.818182V11H127.148V0.818182H128.634ZM133.925 11.1541C133.173 11.1541 132.525 10.9934 131.981 10.6719C131.441 10.3471 131.023 9.89134 130.729 9.30469C130.437 8.71473 130.291 8.02367 130.291 7.23153C130.291 6.44934 130.437 5.75994 130.729 5.16335C131.023 4.56676 131.434 4.10109 131.961 3.76633C132.492 3.43158 133.112 3.2642 133.821 3.2642C134.252 3.2642 134.669 3.33546 135.074 3.47798C135.478 3.6205 135.841 3.84422 136.162 4.14915C136.484 4.45407 136.738 4.85014 136.923 5.33736C137.109 5.82126 137.202 6.40956 137.202 7.10227V7.62926H131.131V6.51562H135.745C135.745 6.12453 135.665 5.77817 135.506 5.47656C135.347 5.17164 135.123 4.93134 134.835 4.75568C134.55 4.58002 134.215 4.49219 133.831 4.49219C133.413 4.49219 133.049 4.59493 132.737 4.80043C132.429 5.0026 132.19 5.26776 132.021 5.59588C131.855 5.92069 131.773 6.27367 131.773 6.65483V7.52486C131.773 8.03527 131.862 8.46946 132.041 8.82741C132.223 9.18537 132.477 9.45881 132.802 9.64773C133.126 9.83333 133.506 9.92614 133.94 9.92614C134.222 9.92614 134.479 9.88636 134.711 9.80682C134.943 9.72396 135.143 9.60133 135.312 9.43892C135.481 9.27652 135.611 9.07599 135.7 8.83736L137.107 9.09091C136.994 9.50521 136.792 9.86813 136.501 10.1797C136.212 10.4879 135.849 10.7282 135.412 10.9006C134.978 11.0696 134.482 11.1541 133.925 11.1541Z" fill="black"/>
</svg>
