<svg width="128" height="15" viewBox="0 0 128 15" fill="none" xmlns="http://www.w3.org/2000/svg">
<path d="M-0.000710189 13.8636V3.36364H1.45099V4.60156H1.57528C1.66146 4.44247 1.78575 4.25852 1.94815 4.04972C2.11056 3.84091 2.33594 3.65862 2.62429 3.50284C2.91264 3.34375 3.2938 3.2642 3.76776 3.2642C4.38423 3.2642 4.93442 3.41998 5.41832 3.73153C5.90223 4.04309 6.28172 4.49219 6.55682 5.07884C6.83523 5.66548 6.97443 6.37145 6.97443 7.19673C6.97443 8.02202 6.83688 8.72964 6.56179 9.3196C6.2867 9.90625 5.90885 10.3587 5.42827 10.6768C4.94768 10.9917 4.39915 11.1491 3.78267 11.1491C3.31866 11.1491 2.93916 11.0713 2.64418 10.9155C2.35251 10.7597 2.12382 10.5774 1.9581 10.3686C1.79238 10.1598 1.66477 9.9742 1.57528 9.81179H1.4858V13.8636H-0.000710189ZM1.45597 7.18182C1.45597 7.71875 1.53385 8.18939 1.68963 8.59375C1.84541 8.99811 2.07079 9.31463 2.36577 9.54332C2.66075 9.7687 3.02202 9.88139 3.44957 9.88139C3.8937 9.88139 4.26491 9.76373 4.56321 9.52841C4.86151 9.28977 5.08688 8.96662 5.23935 8.55895C5.39512 8.15128 5.47301 7.69223 5.47301 7.18182C5.47301 6.67803 5.39678 6.22562 5.24432 5.82457C5.09517 5.42353 4.86979 5.10701 4.56818 4.875C4.26989 4.64299 3.89702 4.52699 3.44957 4.52699C3.0187 4.52699 2.65412 4.63802 2.35582 4.86009C2.06084 5.08215 1.83712 5.39205 1.68466 5.78977C1.5322 6.1875 1.45597 6.65151 1.45597 7.18182ZM10.1264 6.46591V11H8.63991V0.818182H10.1065V4.60653H10.201C10.38 4.19555 10.6534 3.86908 11.0213 3.62713C11.3892 3.38518 11.8698 3.2642 12.4631 3.2642C12.9867 3.2642 13.4441 3.37192 13.8352 3.58736C14.2296 3.80279 14.5346 4.12429 14.75 4.55185C14.9688 4.97609 15.0781 5.50639 15.0781 6.14276V11H13.5916V6.32173C13.5916 5.7616 13.4474 5.32741 13.1591 5.01918C12.8707 4.70762 12.4697 4.55185 11.956 4.55185C11.6046 4.55185 11.2898 4.62642 11.0114 4.77557C10.7363 4.92472 10.5192 5.14347 10.3601 5.43182C10.2043 5.71686 10.1264 6.06155 10.1264 6.46591ZM20.2784 11.1541C19.5625 11.1541 18.9377 10.9901 18.4041 10.6619C17.8705 10.3338 17.4562 9.87476 17.1612 9.2848C16.8662 8.69484 16.7188 8.00544 16.7188 7.21662C16.7188 6.42448 16.8662 5.73177 17.1612 5.13849C17.4562 4.54522 17.8705 4.08452 18.4041 3.75639C18.9377 3.42827 19.5625 3.2642 20.2784 3.2642C20.9943 3.2642 21.6191 3.42827 22.1527 3.75639C22.6863 4.08452 23.1006 4.54522 23.3956 5.13849C23.6906 5.73177 23.8381 6.42448 23.8381 7.21662C23.8381 8.00544 23.6906 8.69484 23.3956 9.2848C23.1006 9.87476 22.6863 10.3338 22.1527 10.6619C21.6191 10.9901 20.9943 11.1541 20.2784 11.1541ZM20.2834 9.90625C20.7474 9.90625 21.1319 9.78362 21.4368 9.53835C21.7417 9.29309 21.9671 8.96662 22.1129 8.55895C22.2621 8.15128 22.3366 7.70218 22.3366 7.21165C22.3366 6.72443 22.2621 6.27699 22.1129 5.86932C21.9671 5.45833 21.7417 5.12855 21.4368 4.87997C21.1319 4.63139 20.7474 4.5071 20.2834 4.5071C19.8161 4.5071 19.4283 4.63139 19.12 4.87997C18.8151 5.12855 18.5881 5.45833 18.4389 5.86932C18.2931 6.27699 18.2202 6.72443 18.2202 7.21165C18.2202 7.70218 18.2931 8.15128 18.4389 8.55895C18.5881 8.96662 18.8151 9.29309 19.12 9.53835C19.4283 9.78362 19.8161 9.90625 20.2834 9.90625ZM26.9838 6.46591V11H25.4973V3.36364H26.9242V4.60653H27.0186C27.1943 4.20218 27.4694 3.87737 27.8439 3.6321C28.2218 3.38684 28.6974 3.2642 29.2708 3.2642C29.7911 3.2642 30.2469 3.37358 30.638 3.59233C31.0291 3.80777 31.3323 4.12926 31.5478 4.55682C31.7632 4.98437 31.8709 5.51302 31.8709 6.14276V11H30.3844V6.32173C30.3844 5.76823 30.2402 5.3357 29.9519 5.02415C29.6635 4.70928 29.2675 4.55185 28.7637 4.55185C28.419 4.55185 28.1124 4.62642 27.8439 4.77557C27.5788 4.92472 27.3683 5.14347 27.2125 5.43182C27.0601 5.71686 26.9838 6.06155 26.9838 6.46591ZM37.1557 11.1541C36.4033 11.1541 35.7554 10.9934 35.2118 10.6719C34.6716 10.3471 34.254 9.89134 33.959 9.30469C33.6673 8.71473 33.5215 8.02367 33.5215 7.23153C33.5215 6.44934 33.6673 5.75994 33.959 5.16335C34.254 4.56676 34.665 4.10109 35.1919 3.76633C35.7222 3.43158 36.342 3.2642 37.0513 3.2642C37.4822 3.2642 37.8998 3.33546 38.3042 3.47798C38.7085 3.6205 39.0714 3.84422 39.3929 4.14915C39.7144 4.45407 39.968 4.85014 40.1536 5.33736C40.3392 5.82126 40.432 6.40956 40.432 7.10227V7.62926H34.3617V6.51562H38.9753C38.9753 6.12453 38.8958 5.77817 38.7367 5.47656C38.5776 5.17164 38.3539 4.93134 38.0655 4.75568C37.7805 4.58002 37.4457 4.49219 37.0613 4.49219C36.6436 4.49219 36.2791 4.59493 35.9675 4.80043C35.6593 5.0026 35.4206 5.26776 35.2516 5.59588C35.0859 5.92069 35.003 6.27367 35.003 6.65483V7.52486C35.003 8.03527 35.0925 8.46946 35.2715 8.82741C35.4538 9.18537 35.7073 9.45881 36.0321 9.64773C36.3569 9.83333 36.7364 9.92614 37.1706 9.92614C37.4524 9.92614 37.7092 9.88636 37.9412 9.80682C38.1732 9.72396 38.3738 9.60133 38.5428 9.43892C38.7118 9.27652 38.8411 9.07599 38.9306 8.83736L40.3375 9.09091C40.2248 9.50521 40.0227 9.86813 39.731 10.1797C39.4426 10.4879 39.0797 10.7282 38.6422 10.9006C38.208 11.0696 37.7125 11.1541 37.1557 11.1541ZM46.5806 6.05327V7.34091H42.0664V6.05327H46.5806ZM51.7784 11.1541C51.0625 11.1541 50.4377 10.9901 49.9041 10.6619C49.3705 10.3338 48.9562 9.87476 48.6612 9.2848C48.3662 8.69484 48.2188 8.00544 48.2188 7.21662C48.2188 6.42448 48.3662 5.73177 48.6612 5.13849C48.9562 4.54522 49.3705 4.08452 49.9041 3.75639C50.4377 3.42827 51.0625 3.2642 51.7784 3.2642C52.4943 3.2642 53.1191 3.42827 53.6527 3.75639C54.1863 4.08452 54.6006 4.54522 54.8956 5.13849C55.1906 5.73177 55.3381 6.42448 55.3381 7.21662C55.3381 8.00544 55.1906 8.69484 54.8956 9.2848C54.6006 9.87476 54.1863 10.3338 53.6527 10.6619C53.1191 10.9901 52.4943 11.1541 51.7784 11.1541ZM51.7834 9.90625C52.2474 9.90625 52.6319 9.78362 52.9368 9.53835C53.2417 9.29309 53.4671 8.96662 53.6129 8.55895C53.7621 8.15128 53.8366 7.70218 53.8366 7.21165C53.8366 6.72443 53.7621 6.27699 53.6129 5.86932C53.4671 5.45833 53.2417 5.12855 52.9368 4.87997C52.6319 4.63139 52.2474 4.5071 51.7834 4.5071C51.3161 4.5071 50.9283 4.63139 50.62 4.87997C50.3151 5.12855 50.0881 5.45833 49.9389 5.86932C49.7931 6.27699 49.7202 6.72443 49.7202 7.21165C49.7202 7.70218 49.7931 8.15128 49.9389 8.55895C50.0881 8.96662 50.3151 9.29309 50.62 9.53835C50.9283 9.78362 51.3161 9.90625 51.7834 9.90625ZM61.8347 7.8331V3.36364H63.3262V11H61.8645V9.67756H61.785C61.6093 10.0852 61.3276 10.425 60.9398 10.6967C60.5553 10.9652 60.0764 11.0994 59.503 11.0994C59.0125 11.0994 58.5783 10.9917 58.2005 10.7763C57.8259 10.5575 57.531 10.2344 57.3155 9.80682C57.1034 9.37926 56.9973 8.85062 56.9973 8.22088V3.36364H58.4838V8.0419C58.4838 8.56226 58.628 8.97656 58.9164 9.2848C59.2047 9.59304 59.5792 9.74716 60.04 9.74716C60.3184 9.74716 60.5951 9.67756 60.8702 9.53835C61.1486 9.39915 61.379 9.18868 61.5613 8.90696C61.7469 8.62524 61.838 8.26728 61.8347 7.8331ZM68.8881 3.36364V4.55682H64.717V3.36364H68.8881ZM65.8356 1.53409H67.3221V8.75781C67.3221 9.04616 67.3652 9.26326 67.4513 9.40909C67.5375 9.55161 67.6486 9.64938 67.7844 9.70241C67.9237 9.75213 68.0745 9.77699 68.2369 9.77699C68.3562 9.77699 68.4606 9.7687 68.5501 9.75213C68.6396 9.73556 68.7092 9.7223 68.7589 9.71236L69.0273 10.9403C68.9412 10.9735 68.8185 11.0066 68.6594 11.0398C68.5004 11.0762 68.3015 11.0961 68.0629 11.0994C67.6718 11.1061 67.3072 11.0365 66.9691 10.8906C66.631 10.7448 66.3576 10.5194 66.1488 10.2145C65.94 9.90956 65.8356 9.52675 65.8356 9.06605V1.53409ZM73.6522 14.0227C73.0456 14.0227 72.5236 13.9432 72.0861 13.7841C71.6519 13.625 71.2973 13.4145 71.0222 13.1527C70.7471 12.8909 70.5416 12.6042 70.4057 12.2926L71.6834 11.7656C71.7729 11.9115 71.8922 12.0656 72.0414 12.228C72.1938 12.3937 72.3993 12.5346 72.6578 12.6506C72.9197 12.7666 73.2561 12.8246 73.6671 12.8246C74.2305 12.8246 74.6962 12.687 75.0641 12.4119C75.432 12.1402 75.6159 11.706 75.6159 11.1094V9.60795H75.5215C75.432 9.77036 75.3027 9.95099 75.1337 10.1499C74.968 10.3487 74.7393 10.5211 74.4476 10.6669C74.156 10.8127 73.7765 10.8857 73.3091 10.8857C72.7059 10.8857 72.1623 10.7448 71.6784 10.4631C71.1979 10.178 70.8167 9.75876 70.535 9.20526C70.2566 8.64844 70.1174 7.96401 70.1174 7.15199C70.1174 6.33996 70.2549 5.64394 70.53 5.06392C70.8084 4.4839 71.1896 4.03977 71.6735 3.73153C72.1574 3.41998 72.7059 3.2642 73.3191 3.2642C73.793 3.2642 74.1758 3.34375 74.4675 3.50284C74.7592 3.65862 74.9862 3.84091 75.1486 4.04972C75.3143 4.25852 75.4419 4.44247 75.5314 4.60156H75.6408V3.36364H77.0975V11.169C77.0975 11.8253 76.945 12.3639 76.6401 12.7848C76.3352 13.2057 75.9225 13.5173 75.4022 13.7195C74.8851 13.9216 74.3018 14.0227 73.6522 14.0227ZM73.6373 9.6527C74.0648 9.6527 74.4261 9.55327 74.7211 9.3544C75.0194 9.15223 75.2447 8.86387 75.3972 8.48935C75.553 8.11151 75.6309 7.65909 75.6309 7.1321C75.6309 6.61837 75.5546 6.16596 75.4022 5.77486C75.2497 5.38376 75.026 5.07884 74.731 4.86009C74.436 4.63802 74.0714 4.52699 73.6373 4.52699C73.1898 4.52699 72.8169 4.64299 72.5186 4.875C72.2203 5.10369 71.995 5.41525 71.8425 5.80966C71.6934 6.20407 71.6188 6.64489 71.6188 7.1321C71.6188 7.63258 71.695 8.07173 71.8475 8.44957C71.9999 8.82741 72.2253 9.1224 72.5236 9.33452C72.8252 9.54664 73.1964 9.6527 73.6373 9.6527ZM82.3077 11.1541C81.5918 11.1541 80.967 10.9901 80.4334 10.6619C79.8998 10.3338 79.4855 9.87476 79.1905 9.2848C78.8955 8.69484 78.748 8.00544 78.748 7.21662C78.748 6.42448 78.8955 5.73177 79.1905 5.13849C79.4855 4.54522 79.8998 4.08452 80.4334 3.75639C80.967 3.42827 81.5918 3.2642 82.3077 3.2642C83.0236 3.2642 83.6484 3.42827 84.182 3.75639C84.7156 4.08452 85.1299 4.54522 85.4249 5.13849C85.7199 5.73177 85.8674 6.42448 85.8674 7.21662C85.8674 8.00544 85.7199 8.69484 85.4249 9.2848C85.1299 9.87476 84.7156 10.3338 84.182 10.6619C83.6484 10.9901 83.0236 11.1541 82.3077 11.1541ZM82.3127 9.90625C82.7767 9.90625 83.1612 9.78362 83.4661 9.53835C83.771 9.29309 83.9964 8.96662 84.1422 8.55895C84.2914 8.15128 84.3659 7.70218 84.3659 7.21165C84.3659 6.72443 84.2914 6.27699 84.1422 5.86932C83.9964 5.45833 83.771 5.12855 83.4661 4.87997C83.1612 4.63139 82.7767 4.5071 82.3127 4.5071C81.8453 4.5071 81.4576 4.63139 81.1493 4.87997C80.8444 5.12855 80.6174 5.45833 80.4682 5.86932C80.3224 6.27699 80.2495 6.72443 80.2495 7.21165C80.2495 7.70218 80.3224 8.15128 80.4682 8.55895C80.6174 8.96662 80.8444 9.29309 81.1493 9.53835C81.4576 9.78362 81.8453 9.90625 82.3127 9.90625ZM87.5266 11V3.36364H89.0131V11H87.5266ZM88.2773 2.18537C88.0188 2.18537 87.7968 2.09919 87.6112 1.92685C87.4289 1.75118 87.3377 1.54238 87.3377 1.30043C87.3377 1.05516 87.4289 0.846354 87.6112 0.674005C87.7968 0.498342 88.0188 0.410511 88.2773 0.410511C88.5359 0.410511 88.7563 0.498342 88.9386 0.674005C89.1242 0.846354 89.217 1.05516 89.217 1.30043C89.217 1.54238 89.1242 1.75118 88.9386 1.92685C88.7563 2.09919 88.5359 2.18537 88.2773 2.18537ZM92.4995 6.46591V11H91.013V3.36364H92.4398V4.60653H92.5343C92.7099 4.20218 92.985 3.87737 93.3596 3.6321C93.7374 3.38684 94.213 3.2642 94.7864 3.2642C95.3068 3.2642 95.7625 3.37358 96.1536 3.59233C96.5447 3.80777 96.848 4.12926 97.0634 4.55682C97.2788 4.98437 97.3865 5.51302 97.3865 6.14276V11H95.9V6.32173C95.9 5.76823 95.7559 5.3357 95.4675 5.02415C95.1792 4.70928 94.7831 4.55185 94.2793 4.55185C93.9346 4.55185 93.628 4.62642 93.3596 4.77557C93.0944 4.92472 92.8839 5.14347 92.7282 5.43182C92.5757 5.71686 92.4995 6.06155 92.4995 6.46591ZM102.582 14.0227C101.975 14.0227 101.453 13.9432 101.016 13.7841C100.582 13.625 100.227 13.4145 99.9519 13.1527C99.6768 12.8909 99.4713 12.6042 99.3354 12.2926L100.613 11.7656C100.703 11.9115 100.822 12.0656 100.971 12.228C101.124 12.3937 101.329 12.5346 101.588 12.6506C101.849 12.7666 102.186 12.8246 102.597 12.8246C103.16 12.8246 103.626 12.687 103.994 12.4119C104.362 12.1402 104.546 11.706 104.546 11.1094V9.60795H104.451C104.362 9.77036 104.232 9.95099 104.063 10.1499C103.898 10.3487 103.669 10.5211 103.377 10.6669C103.086 10.8127 102.706 10.8857 102.239 10.8857C101.636 10.8857 101.092 10.7448 100.608 10.4631C100.128 10.178 99.7464 9.75876 99.4647 9.20526C99.1863 8.64844 99.0471 7.96401 99.0471 7.15199C99.0471 6.33996 99.1846 5.64394 99.4597 5.06392C99.7381 4.4839 100.119 4.03977 100.603 3.73153C101.087 3.41998 101.636 3.2642 102.249 3.2642C102.723 3.2642 103.106 3.34375 103.397 3.50284C103.689 3.65862 103.916 3.84091 104.078 4.04972C104.244 4.25852 104.372 4.44247 104.461 4.60156H104.57V3.36364H106.027V11.169C106.027 11.8253 105.875 12.3639 105.57 12.7848C105.265 13.2057 104.852 13.5173 104.332 13.7195C103.815 13.9216 103.231 14.0227 102.582 14.0227ZM102.567 9.6527C102.994 9.6527 103.356 9.55327 103.651 9.3544C103.949 9.15223 104.174 8.86387 104.327 8.48935C104.483 8.11151 104.561 7.65909 104.561 7.1321C104.561 6.61837 104.484 6.16596 104.332 5.77486C104.179 5.38376 103.956 5.07884 103.661 4.86009C103.366 4.63802 103.001 4.52699 102.567 4.52699C102.119 4.52699 101.747 4.64299 101.448 4.875C101.15 5.10369 100.925 5.41525 100.772 5.80966C100.623 6.20407 100.548 6.64489 100.548 7.1321C100.548 7.63258 100.625 8.07173 100.777 8.44957C100.93 8.82741 101.155 9.1224 101.453 9.33452C101.755 9.54664 102.126 9.6527 102.567 9.6527ZM112.52 6.05327V7.34091H108.006V6.05327H112.52ZM118.026 11.169C117.241 11.1657 116.569 10.9586 116.013 10.5476C115.456 10.1366 115.03 9.53835 114.735 8.75284C114.44 7.96733 114.292 7.02107 114.292 5.91406C114.292 4.81037 114.44 3.86742 114.735 3.08523C115.033 2.30303 115.461 1.70644 116.018 1.29545C116.578 0.884469 117.247 0.678977 118.026 0.678977C118.805 0.678977 119.473 0.886126 120.03 1.30043C120.586 1.71141 121.012 2.308 121.307 3.0902C121.606 3.86908 121.755 4.81037 121.755 5.91406C121.755 7.02438 121.607 7.9723 121.312 8.75781C121.017 9.54001 120.591 10.1383 120.035 10.5526C119.478 10.9635 118.808 11.169 118.026 11.169ZM118.026 9.84162C118.715 9.84162 119.254 9.50521 119.642 8.83239C120.033 8.15956 120.229 7.18679 120.229 5.91406C120.229 5.06889 120.139 4.35464 119.96 3.77131C119.784 3.18466 119.531 2.74053 119.199 2.43892C118.871 2.134 118.48 1.98153 118.026 1.98153C117.34 1.98153 116.801 2.3196 116.41 2.99574C116.019 3.67187 115.822 4.64465 115.819 5.91406C115.819 6.76255 115.907 7.48011 116.082 8.06676C116.261 8.65009 116.515 9.09257 116.843 9.39418C117.171 9.69247 117.565 9.84162 118.026 9.84162ZM127.381 0.818182V11H125.84V2.35938H125.781L123.344 3.95028V2.47869L125.885 0.818182H127.381Z" fill="black"/>
</svg>
