<svg width="119" height="12" viewBox="0 0 119 12" fill="none" xmlns="http://www.w3.org/2000/svg">
<path d="M3.22159 11.169C2.73769 11.169 2.30019 11.0795 1.90909 10.9006C1.51799 10.7183 1.2081 10.4548 0.979403 10.1101C0.754025 9.76539 0.641335 9.3428 0.641335 8.84233C0.641335 8.41146 0.724195 8.05682 0.889915 7.77841C1.05563 7.5 1.27936 7.27959 1.56108 7.11719C1.8428 6.95478 2.15767 6.83215 2.50568 6.74929C2.85369 6.66643 3.20833 6.60346 3.5696 6.56037C4.02699 6.50734 4.3982 6.46425 4.68324 6.43111C4.96828 6.39465 5.17543 6.33665 5.30469 6.2571C5.43395 6.17756 5.49858 6.0483 5.49858 5.86932V5.83452C5.49858 5.40033 5.37595 5.06392 5.13068 4.82528C4.88873 4.58665 4.52746 4.46733 4.04688 4.46733C3.5464 4.46733 3.15199 4.57836 2.86364 4.80043C2.5786 5.01918 2.38139 5.26278 2.27202 5.53125L0.875 5.21307C1.04072 4.74905 1.28267 4.37453 1.60085 4.08949C1.92235 3.80114 2.2919 3.59233 2.70952 3.46307C3.12713 3.33049 3.56629 3.2642 4.02699 3.2642C4.33191 3.2642 4.65507 3.30066 4.99645 3.37358C5.34115 3.44318 5.66264 3.57244 5.96094 3.76136C6.26255 3.95028 6.50947 4.22041 6.7017 4.57173C6.89394 4.91974 6.99006 5.37216 6.99006 5.92898V11H5.53835V9.95597H5.47869C5.38258 10.1482 5.2384 10.3371 5.04616 10.5227C4.85393 10.7083 4.60701 10.8625 4.3054 10.9851C4.00379 11.1077 3.64252 11.169 3.22159 11.169ZM3.54474 9.97585C3.95573 9.97585 4.30706 9.89465 4.59872 9.73224C4.8937 9.56984 5.11742 9.35772 5.26989 9.09588C5.42566 8.83073 5.50355 8.54735 5.50355 8.24574V7.26136C5.45052 7.31439 5.34777 7.36411 5.19531 7.41051C5.04616 7.4536 4.87547 7.49171 4.68324 7.52486C4.491 7.55469 4.30374 7.58286 4.12145 7.60938C3.93916 7.63258 3.7867 7.65246 3.66406 7.66903C3.37571 7.70549 3.11222 7.76681 2.87358 7.85298C2.63826 7.93916 2.44934 8.06345 2.30682 8.22585C2.16761 8.38494 2.09801 8.59706 2.09801 8.86222C2.09801 9.23011 2.2339 9.50852 2.50568 9.69744C2.77746 9.88305 3.12382 9.97585 3.54474 9.97585ZM10.4565 6.46591V11H8.96999V3.36364H10.3968V4.60653H10.4913C10.667 4.20218 10.9421 3.87737 11.3166 3.6321C11.6944 3.38684 12.17 3.2642 12.7434 3.2642C13.2638 3.2642 13.7195 3.37358 14.1106 3.59233C14.5017 3.80777 14.805 4.12926 15.0204 4.55682C15.2359 4.98437 15.3436 5.51302 15.3436 6.14276V11H13.8571V6.32173C13.8571 5.76823 13.7129 5.3357 13.4245 5.02415C13.1362 4.70928 12.7401 4.55185 12.2363 4.55185C11.8916 4.55185 11.585 4.62642 11.3166 4.77557C11.0514 4.92472 10.841 5.14347 10.6852 5.43182C10.5327 5.71686 10.4565 6.06155 10.4565 6.46591ZM18.8237 6.46591V11H17.3372V3.36364H18.764V4.60653H18.8585C19.0342 4.20218 19.3092 3.87737 19.6838 3.6321C20.0616 3.38684 20.5372 3.2642 21.1106 3.2642C21.631 3.2642 22.0867 3.37358 22.4778 3.59233C22.8689 3.80777 23.1722 4.12926 23.3876 4.55682C23.603 4.98437 23.7108 5.51302 23.7108 6.14276V11H22.2243V6.32173C22.2243 5.76823 22.0801 5.3357 21.7917 5.02415C21.5034 4.70928 21.1073 4.55185 20.6035 4.55185C20.2588 4.55185 19.9522 4.62642 19.6838 4.77557C19.4186 4.92472 19.2082 5.14347 19.0524 5.43182C18.8999 5.71686 18.8237 6.06155 18.8237 6.46591ZM28.921 11.1541C28.2051 11.1541 27.5803 10.9901 27.0467 10.6619C26.5131 10.3338 26.0988 9.87476 25.8038 9.2848C25.5088 8.69484 25.3613 8.00544 25.3613 7.21662C25.3613 6.42448 25.5088 5.73177 25.8038 5.13849C26.0988 4.54522 26.5131 4.08452 27.0467 3.75639C27.5803 3.42827 28.2051 3.2642 28.921 3.2642C29.6369 3.2642 30.2617 3.42827 30.7953 3.75639C31.3289 4.08452 31.7432 4.54522 32.0382 5.13849C32.3332 5.73177 32.4806 6.42448 32.4806 7.21662C32.4806 8.00544 32.3332 8.69484 32.0382 9.2848C31.7432 9.87476 31.3289 10.3338 30.7953 10.6619C30.2617 10.9901 29.6369 11.1541 28.921 11.1541ZM28.926 9.90625C29.39 9.90625 29.7744 9.78362 30.0794 9.53835C30.3843 9.29309 30.6097 8.96662 30.7555 8.55895C30.9047 8.15128 30.9792 7.70218 30.9792 7.21165C30.9792 6.72443 30.9047 6.27699 30.7555 5.86932C30.6097 5.45833 30.3843 5.12855 30.0794 4.87997C29.7744 4.63139 29.39 4.5071 28.926 4.5071C28.4586 4.5071 28.0708 4.63139 27.7626 4.87997C27.4577 5.12855 27.2306 5.45833 27.0815 5.86932C26.9357 6.27699 26.8627 6.72443 26.8627 7.21165C26.8627 7.70218 26.9357 8.15128 27.0815 8.55895C27.2306 8.96662 27.4577 9.29309 27.7626 9.53835C28.0708 9.78362 28.4586 9.90625 28.926 9.90625ZM37.7045 3.36364V4.55682H33.5334V3.36364H37.7045ZM34.652 1.53409H36.1385V8.75781C36.1385 9.04616 36.1816 9.26326 36.2678 9.40909C36.3539 9.55161 36.465 9.64938 36.6009 9.70241C36.7401 9.75213 36.8909 9.77699 37.0533 9.77699C37.1726 9.77699 37.277 9.7687 37.3665 9.75213C37.456 9.73556 37.5256 9.7223 37.5753 9.71236L37.8438 10.9403C37.7576 10.9735 37.6349 11.0066 37.4759 11.0398C37.3168 11.0762 37.1179 11.0961 36.8793 11.0994C36.4882 11.1061 36.1236 11.0365 35.7855 10.8906C35.4474 10.7448 35.174 10.5194 34.9652 10.2145C34.7564 9.90956 34.652 9.52675 34.652 9.06605V1.53409ZM41.5712 11.169C41.0873 11.169 40.6498 11.0795 40.2587 10.9006C39.8676 10.7183 39.5577 10.4548 39.329 10.1101C39.1036 9.76539 38.9909 9.3428 38.9909 8.84233C38.9909 8.41146 39.0738 8.05682 39.2395 7.77841C39.4052 7.5 39.629 7.27959 39.9107 7.11719C40.1924 6.95478 40.5073 6.83215 40.8553 6.74929C41.2033 6.66643 41.5579 6.60346 41.9192 6.56037C42.3766 6.50734 42.7478 6.46425 43.0328 6.43111C43.3179 6.39465 43.525 6.33665 43.6543 6.2571C43.7836 6.17756 43.8482 6.0483 43.8482 5.86932V5.83452C43.8482 5.40033 43.7256 5.06392 43.4803 4.82528C43.2383 4.58665 42.8771 4.46733 42.3965 4.46733C41.896 4.46733 41.5016 4.57836 41.2132 4.80043C40.9282 5.01918 40.731 5.26278 40.6216 5.53125L39.2246 5.21307C39.3903 4.74905 39.6323 4.37453 39.9505 4.08949C40.272 3.80114 40.6415 3.59233 41.0591 3.46307C41.4767 3.33049 41.9159 3.2642 42.3766 3.2642C42.6815 3.2642 43.0047 3.30066 43.3461 3.37358C43.6908 3.44318 44.0123 3.57244 44.3105 3.76136C44.6122 3.95028 44.8591 4.22041 45.0513 4.57173C45.2435 4.91974 45.3397 5.37216 45.3397 5.92898V11H43.888V9.95597H43.8283C43.7322 10.1482 43.588 10.3371 43.3958 10.5227C43.2035 10.7083 42.9566 10.8625 42.655 10.9851C42.3534 11.1077 41.9921 11.169 41.5712 11.169ZM41.8944 9.97585C42.3053 9.97585 42.6567 9.89465 42.9483 9.73224C43.2433 9.56984 43.467 9.35772 43.6195 9.09588C43.7753 8.83073 43.8532 8.54735 43.8532 8.24574V7.26136C43.8001 7.31439 43.6974 7.36411 43.5449 7.41051C43.3958 7.4536 43.2251 7.49171 43.0328 7.52486C42.8406 7.55469 42.6534 7.58286 42.4711 7.60938C42.2888 7.63258 42.1363 7.65246 42.0137 7.66903C41.7253 7.70549 41.4618 7.76681 41.2232 7.85298C40.9879 7.93916 40.7989 8.06345 40.6564 8.22585C40.5172 8.38494 40.4476 8.59706 40.4476 8.86222C40.4476 9.23011 40.5835 9.50852 40.8553 9.69744C41.1271 9.88305 41.4734 9.97585 41.8944 9.97585ZM50.8842 3.36364V4.55682H46.7131V3.36364H50.8842ZM47.8317 1.53409H49.3182V8.75781C49.3182 9.04616 49.3613 9.26326 49.4474 9.40909C49.5336 9.55161 49.6446 9.64938 49.7805 9.70241C49.9197 9.75213 50.0705 9.77699 50.233 9.77699C50.3523 9.77699 50.4567 9.7687 50.5462 9.75213C50.6357 9.73556 50.7053 9.7223 50.755 9.71236L51.0234 10.9403C50.9373 10.9735 50.8146 11.0066 50.6555 11.0398C50.4964 11.0762 50.2976 11.0961 50.0589 11.0994C49.6679 11.1061 49.3033 11.0365 48.9652 10.8906C48.6271 10.7448 48.3537 10.5194 48.1449 10.2145C47.9361 9.90956 47.8317 9.52675 47.8317 9.06605V1.53409ZM52.5286 11V3.36364H54.0151V11H52.5286ZM53.2793 2.18537C53.0208 2.18537 52.7987 2.09919 52.6131 1.92685C52.4308 1.75118 52.3397 1.54238 52.3397 1.30043C52.3397 1.05516 52.4308 0.846354 52.6131 0.674005C52.7987 0.498342 53.0208 0.410511 53.2793 0.410511C53.5378 0.410511 53.7582 0.498342 53.9405 0.674005C54.1261 0.846354 54.2189 1.05516 54.2189 1.30043C54.2189 1.54238 54.1261 1.75118 53.9405 1.92685C53.7582 2.09919 53.5378 2.18537 53.2793 2.18537ZM59.2315 11.1541C58.5156 11.1541 57.8909 10.9901 57.3572 10.6619C56.8236 10.3338 56.4093 9.87476 56.1143 9.2848C55.8194 8.69484 55.6719 8.00544 55.6719 7.21662C55.6719 6.42448 55.8194 5.73177 56.1143 5.13849C56.4093 4.54522 56.8236 4.08452 57.3572 3.75639C57.8909 3.42827 58.5156 3.2642 59.2315 3.2642C59.9474 3.2642 60.5722 3.42827 61.1058 3.75639C61.6394 4.08452 62.0537 4.54522 62.3487 5.13849C62.6437 5.73177 62.7912 6.42448 62.7912 7.21662C62.7912 8.00544 62.6437 8.69484 62.3487 9.2848C62.0537 9.87476 61.6394 10.3338 61.1058 10.6619C60.5722 10.9901 59.9474 11.1541 59.2315 11.1541ZM59.2365 9.90625C59.7005 9.90625 60.085 9.78362 60.3899 9.53835C60.6948 9.29309 60.9202 8.96662 61.0661 8.55895C61.2152 8.15128 61.2898 7.70218 61.2898 7.21165C61.2898 6.72443 61.2152 6.27699 61.0661 5.86932C60.9202 5.45833 60.6948 5.12855 60.3899 4.87997C60.085 4.63139 59.7005 4.5071 59.2365 4.5071C58.7692 4.5071 58.3814 4.63139 58.0732 4.87997C57.7682 5.12855 57.5412 5.45833 57.392 5.86932C57.2462 6.27699 57.1733 6.72443 57.1733 7.21165C57.1733 7.70218 57.2462 8.15128 57.392 8.55895C57.5412 8.96662 57.7682 9.29309 58.0732 9.53835C58.3814 9.78362 58.7692 9.90625 59.2365 9.90625ZM65.937 6.46591V11H64.4505V3.36364H65.8773V4.60653H65.9718C66.1474 4.20218 66.4225 3.87737 66.7971 3.6321C67.1749 3.38684 67.6505 3.2642 68.2239 3.2642C68.7443 3.2642 69.2 3.37358 69.5911 3.59233C69.9822 3.80777 70.2855 4.12926 70.5009 4.55682C70.7163 4.98437 70.824 5.51302 70.824 6.14276V11H69.3375V6.32173C69.3375 5.76823 69.1934 5.3357 68.905 5.02415C68.6167 4.70928 68.2206 4.55185 67.7168 4.55185C67.3721 4.55185 67.0655 4.62642 66.7971 4.77557C66.5319 4.92472 66.3214 5.14347 66.1657 5.43182C66.0132 5.71686 65.937 6.06155 65.937 6.46591ZM77.3169 6.05327V7.34091H72.8027V6.05327H77.3169ZM82.5147 11.1541C81.7756 11.1541 81.1393 10.9867 80.6056 10.652C80.0753 10.3139 79.6677 9.84825 79.3826 9.25497C79.0976 8.66169 78.9551 7.98224 78.9551 7.21662C78.9551 6.44105 79.1009 5.75663 79.3926 5.16335C79.6842 4.56676 80.0952 4.10109 80.6255 3.76633C81.1558 3.43158 81.7806 3.2642 82.4998 3.2642C83.0798 3.2642 83.5969 3.37192 84.051 3.58736C84.505 3.79948 84.8713 4.09777 85.1497 4.48224C85.4314 4.86671 85.5988 5.31581 85.6518 5.82955H84.2051C84.1255 5.47159 83.9432 5.16335 83.6582 4.90483C83.3765 4.64631 82.9986 4.51705 82.5247 4.51705C82.1104 4.51705 81.7475 4.62642 81.4359 4.84517C81.1277 5.06061 80.8874 5.36884 80.715 5.76989C80.5427 6.16761 80.4565 6.63826 80.4565 7.18182C80.4565 7.73864 80.541 8.21922 80.71 8.62358C80.8791 9.02794 81.1177 9.34115 81.426 9.56321C81.7375 9.78527 82.1038 9.89631 82.5247 9.89631C82.8064 9.89631 83.0616 9.84493 83.2903 9.74219C83.5223 9.63613 83.7162 9.48532 83.872 9.28977C84.0311 9.09422 84.1421 8.8589 84.2051 8.58381H85.6518C85.5988 9.07765 85.438 9.51847 85.1696 9.90625C84.9011 10.294 84.5415 10.599 84.0907 10.821C83.6433 11.0431 83.118 11.1541 82.5147 11.1541ZM88.728 6.46591V11H87.2415V0.818182H88.7081V4.60653H88.8026C88.9815 4.19555 89.255 3.86908 89.6229 3.62713C89.9908 3.38518 90.4714 3.2642 91.0646 3.2642C91.5883 3.2642 92.0457 3.37192 92.4368 3.58736C92.8312 3.80279 93.1361 4.12429 93.3516 4.55185C93.5703 4.97609 93.6797 5.50639 93.6797 6.14276V11H92.1932V6.32173C92.1932 5.7616 92.049 5.32741 91.7607 5.01918C91.4723 4.70762 91.0713 4.55185 90.5575 4.55185C90.2062 4.55185 89.8913 4.62642 89.6129 4.77557C89.3378 4.92472 89.1207 5.14347 88.9616 5.43182C88.8059 5.71686 88.728 6.06155 88.728 6.46591ZM98.9545 11.1541C98.2022 11.1541 97.5542 10.9934 97.0107 10.6719C96.4704 10.3471 96.0528 9.89134 95.7578 9.30469C95.4661 8.71473 95.3203 8.02367 95.3203 7.23153C95.3203 6.44934 95.4661 5.75994 95.7578 5.16335C96.0528 4.56676 96.4638 4.10109 96.9908 3.76633C97.5211 3.43158 98.1409 3.2642 98.8501 3.2642C99.281 3.2642 99.6986 3.33546 100.103 3.47798C100.507 3.6205 100.87 3.84422 101.192 4.14915C101.513 4.45407 101.767 4.85014 101.952 5.33736C102.138 5.82126 102.231 6.40956 102.231 7.10227V7.62926H96.1605V6.51562H100.774C100.774 6.12453 100.695 5.77817 100.536 5.47656C100.376 5.17164 100.153 4.93134 99.8643 4.75568C99.5793 4.58002 99.2446 4.49219 98.8601 4.49219C98.4425 4.49219 98.0779 4.59493 97.7663 4.80043C97.4581 5.0026 97.2195 5.26776 97.0504 5.59588C96.8847 5.92069 96.8018 6.27367 96.8018 6.65483V7.52486C96.8018 8.03527 96.8913 8.46946 97.0703 8.82741C97.2526 9.18537 97.5062 9.45881 97.831 9.64773C98.1558 9.83333 98.5353 9.92614 98.9695 9.92614C99.2512 9.92614 99.508 9.88636 99.7401 9.80682C99.9721 9.72396 100.173 9.60133 100.342 9.43892C100.511 9.27652 100.64 9.07599 100.729 8.83736L102.136 9.09091C102.024 9.50521 101.821 9.86813 101.53 10.1797C101.241 10.4879 100.879 10.7282 100.441 10.9006C100.007 11.0696 99.5114 11.1541 98.9545 11.1541ZM107.097 11.1541C106.358 11.1541 105.721 10.9867 105.188 10.652C104.657 10.3139 104.25 9.84825 103.965 9.25497C103.68 8.66169 103.537 7.98224 103.537 7.21662C103.537 6.44105 103.683 5.75663 103.975 5.16335C104.266 4.56676 104.677 4.10109 105.208 3.76633C105.738 3.43158 106.363 3.2642 107.082 3.2642C107.662 3.2642 108.179 3.37192 108.633 3.58736C109.087 3.79948 109.453 4.09777 109.732 4.48224C110.013 4.86671 110.181 5.31581 110.234 5.82955H108.787C108.708 5.47159 108.525 5.16335 108.24 4.90483C107.959 4.64631 107.581 4.51705 107.107 4.51705C106.692 4.51705 106.329 4.62642 106.018 4.84517C105.71 5.06061 105.469 5.36884 105.297 5.76989C105.125 6.16761 105.039 6.63826 105.039 7.18182C105.039 7.73864 105.123 8.21922 105.292 8.62358C105.461 9.02794 105.7 9.34115 106.008 9.56321C106.32 9.78527 106.686 9.89631 107.107 9.89631C107.388 9.89631 107.644 9.84493 107.872 9.74219C108.104 9.63613 108.298 9.48532 108.454 9.28977C108.613 9.09422 108.724 8.8589 108.787 8.58381H110.234C110.181 9.07765 110.02 9.51847 109.752 9.90625C109.483 10.294 109.124 10.599 108.673 10.821C108.225 11.0431 107.7 11.1541 107.097 11.1541ZM113.191 8.4098L113.181 6.59517H113.439L116.482 3.36364H118.262L114.792 7.04261H114.558L113.191 8.4098ZM111.824 11V0.818182H113.31V11H111.824ZM116.646 11L113.912 7.37074L114.936 6.33168L118.471 11H116.646Z" fill="black"/>
</svg>
