<svg width="125" height="12" viewBox="0 0 125 12" fill="none" xmlns="http://www.w3.org/2000/svg">
<path d="M-0.000710189 8V0.363636H1.42614V1.60653H1.5206C1.67969 1.18561 1.93987 0.857481 2.30114 0.622159C2.66241 0.383523 3.09493 0.264205 3.59872 0.264205C4.10914 0.264205 4.5367 0.383523 4.88139 0.622159C5.2294 0.860795 5.48627 1.18892 5.65199 1.60653H5.73153C5.91383 1.19886 6.20384 0.874053 6.60156 0.632102C6.99929 0.386837 7.47325 0.264205 8.02344 0.264205C8.71615 0.264205 9.28125 0.481297 9.71875 0.915483C10.1596 1.34967 10.38 2.00426 10.38 2.87926V8H8.89347V3.01847C8.89347 2.50142 8.7526 2.12689 8.47088 1.89489C8.18916 1.66288 7.85275 1.54688 7.46165 1.54688C6.97775 1.54688 6.60156 1.69602 6.3331 1.99432C6.06463 2.2893 5.9304 2.6688 5.9304 3.13281V8H4.44886V2.92401C4.44886 2.50971 4.3196 2.17661 4.06108 1.92472C3.80256 1.67282 3.46615 1.54688 3.05185 1.54688C2.77012 1.54688 2.50994 1.62145 2.27131 1.7706C2.03599 1.91643 1.84541 2.12026 1.69957 2.3821C1.55706 2.64394 1.4858 2.94721 1.4858 3.2919V8H-0.000710189ZM15.6635 8.15412C14.9112 8.15412 14.2632 7.99337 13.7196 7.67188C13.1794 7.34706 12.7618 6.89134 12.4668 6.30469C12.1751 5.71473 12.0293 5.02367 12.0293 4.23153C12.0293 3.44934 12.1751 2.75994 12.4668 2.16335C12.7618 1.56676 13.1728 1.10109 13.6998 0.766335C14.2301 0.431581 14.8498 0.264205 15.5591 0.264205C15.99 0.264205 16.4076 0.335464 16.812 0.477983C17.2163 0.620502 17.5792 0.844223 17.9007 1.14915C18.2222 1.45407 18.4758 1.85014 18.6614 2.33736C18.847 2.82126 18.9398 3.40956 18.9398 4.10227V4.62926H12.8695V3.51562H17.4831C17.4831 3.12453 17.4036 2.77817 17.2445 2.47656C17.0854 2.17164 16.8617 1.93134 16.5733 1.75568C16.2883 1.58002 15.9535 1.49219 15.5691 1.49219C15.1515 1.49219 14.7869 1.59493 14.4753 1.80043C14.1671 2.0026 13.9284 2.26776 13.7594 2.59588C13.5937 2.92069 13.5108 3.27367 13.5108 3.65483V4.52486C13.5108 5.03527 13.6003 5.46946 13.7793 5.82741C13.9616 6.18537 14.2151 6.45881 14.54 6.64773C14.8648 6.83333 15.2443 6.92614 15.6784 6.92614C15.9602 6.92614 16.217 6.88636 16.449 6.80682C16.681 6.72396 16.8816 6.60133 17.0506 6.43892C17.2196 6.27652 17.3489 6.07599 17.4384 5.83736L18.8453 6.09091C18.7327 6.50521 18.5305 6.86813 18.2388 7.17969C17.9505 7.48793 17.5875 7.72822 17.15 7.90057C16.7158 8.0696 16.2203 8.15412 15.6635 8.15412ZM26.3114 2.22798L24.9641 2.46662C24.9078 2.29427 24.8183 2.13021 24.6957 1.97443C24.5763 1.81865 24.4139 1.69105 24.2085 1.59162C24.003 1.49219 23.7461 1.44247 23.4379 1.44247C23.0169 1.44247 22.6656 1.53693 22.3839 1.72585C22.1022 1.91146 21.9613 2.15175 21.9613 2.44673C21.9613 2.70194 22.0558 2.90743 22.2447 3.06321C22.4336 3.21899 22.7385 3.34659 23.1594 3.44602L24.3725 3.72443C25.0752 3.88684 25.5988 4.13707 25.9435 4.47514C26.2882 4.81321 26.4606 5.25237 26.4606 5.79261C26.4606 6.25 26.328 6.65767 26.0629 7.01562C25.801 7.37027 25.4348 7.64867 24.9641 7.85085C24.4968 8.05303 23.9549 8.15412 23.3384 8.15412C22.4833 8.15412 21.7856 7.97183 21.2454 7.60724C20.7051 7.23935 20.3737 6.71733 20.2511 6.04119L21.6879 5.82244C21.7773 6.19697 21.9613 6.48035 22.2397 6.67259C22.5181 6.86151 22.881 6.95597 23.3285 6.95597C23.8157 6.95597 24.2051 6.85488 24.4968 6.6527C24.7885 6.44721 24.9343 6.19697 24.9343 5.90199C24.9343 5.66335 24.8448 5.46283 24.6658 5.30043C24.4902 5.13802 24.2201 5.01539 23.8555 4.93253L22.5629 4.64915C21.8503 4.48674 21.3233 4.22822 20.9819 3.87358C20.6438 3.51894 20.4748 3.06984 20.4748 2.52628C20.4748 2.07552 20.6007 1.68111 20.8526 1.34304C21.1045 1.00497 21.4525 0.741477 21.8967 0.552557C22.3408 0.360322 22.8496 0.264205 23.4229 0.264205C24.2482 0.264205 24.8978 0.443182 25.3718 0.801136C25.8458 1.15578 26.159 1.63139 26.3114 2.22798ZM33.8173 2.22798L32.47 2.46662C32.4136 2.29427 32.3242 2.13021 32.2015 1.97443C32.0822 1.81865 31.9198 1.69105 31.7143 1.59162C31.5088 1.49219 31.252 1.44247 30.9437 1.44247C30.5228 1.44247 30.1715 1.53693 29.8897 1.72585C29.608 1.91146 29.4672 2.15175 29.4672 2.44673C29.4672 2.70194 29.5616 2.90743 29.7505 3.06321C29.9395 3.21899 30.2444 3.34659 30.6653 3.44602L31.8784 3.72443C32.581 3.88684 33.1047 4.13707 33.4494 4.47514C33.7941 4.81321 33.9664 5.25237 33.9664 5.79261C33.9664 6.25 33.8339 6.65767 33.5687 7.01562C33.3069 7.37027 32.9406 7.64867 32.47 7.85085C32.0027 8.05303 31.4608 8.15412 30.8443 8.15412C29.9892 8.15412 29.2915 7.97183 28.7512 7.60724C28.211 7.23935 27.8796 6.71733 27.7569 6.04119L29.1937 5.82244C29.2832 6.19697 29.4672 6.48035 29.7456 6.67259C30.024 6.86151 30.3869 6.95597 30.8343 6.95597C31.3216 6.95597 31.711 6.85488 32.0027 6.6527C32.2943 6.44721 32.4402 6.19697 32.4402 5.90199C32.4402 5.66335 32.3507 5.46283 32.1717 5.30043C31.996 5.13802 31.7259 5.01539 31.3613 4.93253L30.0687 4.64915C29.3561 4.48674 28.8291 4.22822 28.4877 3.87358C28.1497 3.51894 27.9806 3.06984 27.9806 2.52628C27.9806 2.07552 28.1066 1.68111 28.3585 1.34304C28.6104 1.00497 28.9584 0.741477 29.4025 0.552557C29.8467 0.360322 30.3554 0.264205 30.9288 0.264205C31.7541 0.264205 32.4037 0.443182 32.8777 0.801136C33.3516 1.15578 33.6648 1.63139 33.8173 2.22798ZM37.8232 8.16903C37.3393 8.16903 36.9018 8.07955 36.5107 7.90057C36.1196 7.71828 35.8097 7.45478 35.581 7.11009C35.3556 6.76539 35.2429 6.3428 35.2429 5.84233C35.2429 5.41146 35.3258 5.05682 35.4915 4.77841C35.6572 4.5 35.8809 4.27959 36.1626 4.11719C36.4444 3.95478 36.7592 3.83215 37.1072 3.74929C37.4553 3.66643 37.8099 3.60346 38.1712 3.56037C38.6286 3.50734 38.9998 3.46425 39.2848 3.43111C39.5698 3.39465 39.777 3.33665 39.9062 3.2571C40.0355 3.17756 40.1001 3.0483 40.1001 2.86932V2.83452C40.1001 2.40033 39.9775 2.06392 39.7322 1.82528C39.4903 1.58665 39.129 1.46733 38.6484 1.46733C38.148 1.46733 37.7536 1.57836 37.4652 1.80043C37.1802 2.01918 36.983 2.26278 36.8736 2.53125L35.4766 2.21307C35.6423 1.74905 35.8842 1.37453 36.2024 1.08949C36.5239 0.801136 36.8935 0.592329 37.3111 0.463068C37.7287 0.330492 38.1679 0.264205 38.6286 0.264205C38.9335 0.264205 39.2566 0.300663 39.598 0.37358C39.9427 0.443182 40.2642 0.572443 40.5625 0.761363C40.8641 0.950284 41.111 1.22041 41.3033 1.57173C41.4955 1.91974 41.5916 2.37216 41.5916 2.92898V8H40.1399V6.95597H40.0803C39.9841 7.1482 39.84 7.33712 39.6477 7.52273C39.4555 7.70833 39.2086 7.86245 38.907 7.98509C38.6054 8.10772 38.2441 8.16903 37.8232 8.16903ZM38.1463 6.97585C38.5573 6.97585 38.9086 6.89465 39.2003 6.73224C39.4953 6.56984 39.719 6.35772 39.8714 6.09588C40.0272 5.83073 40.1051 5.54735 40.1051 5.24574V4.26136C40.0521 4.31439 39.9493 4.36411 39.7969 4.41051C39.6477 4.4536 39.477 4.49171 39.2848 4.52486C39.0926 4.55469 38.9053 4.58286 38.723 4.60938C38.5407 4.63258 38.3883 4.65246 38.2656 4.66903C37.9773 4.70549 37.7138 4.76681 37.4751 4.85298C37.2398 4.93916 37.0509 5.06345 36.9084 5.22585C36.7692 5.38494 36.6996 5.59706 36.6996 5.86222C36.6996 6.23011 36.8355 6.50852 37.1072 6.69744C37.379 6.88305 37.7254 6.97585 38.1463 6.97585ZM46.7733 11.0227C46.1667 11.0227 45.6447 10.9432 45.2072 10.7841C44.773 10.625 44.4184 10.4145 44.1433 10.1527C43.8682 9.89086 43.6627 9.60417 43.5268 9.29261L44.8045 8.76562C44.894 8.91146 45.0133 9.06558 45.1625 9.22798C45.3149 9.3937 45.5204 9.53456 45.7789 9.65057C46.0408 9.76657 46.3772 9.82457 46.7882 9.82457C47.3516 9.82457 47.8173 9.68703 48.1852 9.41193C48.5531 9.14015 48.737 8.70597 48.737 8.10938V6.60795H48.6426C48.5531 6.77036 48.4238 6.95099 48.2548 7.14986C48.0891 7.34872 47.8604 7.52107 47.5687 7.6669C47.277 7.81274 46.8975 7.88565 46.4302 7.88565C45.827 7.88565 45.2834 7.74479 44.7995 7.46307C44.319 7.17803 43.9378 6.75876 43.6561 6.20526C43.3777 5.64844 43.2385 4.96401 43.2385 4.15199C43.2385 3.33996 43.376 2.64394 43.6511 2.06392C43.9295 1.4839 44.3107 1.03977 44.7946 0.731534C45.2785 0.419981 45.827 0.264205 46.4402 0.264205C46.9141 0.264205 47.2969 0.34375 47.5886 0.502841C47.8803 0.658617 48.1073 0.840909 48.2697 1.04972C48.4354 1.25852 48.563 1.44247 48.6525 1.60156H48.7619V0.363636H50.2186V8.16903C50.2186 8.82528 50.0661 9.36387 49.7612 9.7848C49.4563 10.2057 49.0436 10.5173 48.5233 10.7195C48.0062 10.9216 47.4229 11.0227 46.7733 11.0227ZM46.7583 6.6527C47.1859 6.6527 47.5472 6.55327 47.8422 6.3544C48.1404 6.15223 48.3658 5.86387 48.5183 5.48935C48.6741 5.11151 48.752 4.65909 48.752 4.1321C48.752 3.61837 48.6757 3.16596 48.5233 2.77486C48.3708 2.38376 48.1471 2.07884 47.8521 1.86009C47.5571 1.63802 47.1925 1.52699 46.7583 1.52699C46.3109 1.52699 45.938 1.64299 45.6397 1.875C45.3414 2.10369 45.1161 2.41525 44.9636 2.80966C44.8145 3.20407 44.7399 3.64489 44.7399 4.1321C44.7399 4.63258 44.8161 5.07173 44.9686 5.44957C45.121 5.82741 45.3464 6.1224 45.6447 6.33452C45.9463 6.54664 46.3175 6.6527 46.7583 6.6527ZM55.5034 8.15412C54.751 8.15412 54.103 7.99337 53.5595 7.67188C53.0192 7.34706 52.6016 6.89134 52.3066 6.30469C52.015 5.71473 51.8691 5.02367 51.8691 4.23153C51.8691 3.44934 52.015 2.75994 52.3066 2.16335C52.6016 1.56676 53.0126 1.10109 53.5396 0.766335C54.0699 0.431581 54.6897 0.264205 55.399 0.264205C55.8298 0.264205 56.2475 0.335464 56.6518 0.477983C57.0562 0.620502 57.4191 0.844223 57.7406 1.14915C58.0621 1.45407 58.3156 1.85014 58.5012 2.33736C58.6868 2.82126 58.7797 3.40956 58.7797 4.10227V4.62926H52.7093V3.51562H57.323C57.323 3.12453 57.2434 2.77817 57.0843 2.47656C56.9252 2.17164 56.7015 1.93134 56.4132 1.75568C56.1281 1.58002 55.7934 1.49219 55.4089 1.49219C54.9913 1.49219 54.6267 1.59493 54.3152 1.80043C54.0069 2.0026 53.7683 2.26776 53.5993 2.59588C53.4335 2.92069 53.3507 3.27367 53.3507 3.65483V4.52486C53.3507 5.03527 53.4402 5.46946 53.6191 5.82741C53.8014 6.18537 54.055 6.45881 54.3798 6.64773C54.7046 6.83333 55.0841 6.92614 55.5183 6.92614C55.8 6.92614 56.0569 6.88636 56.2889 6.80682C56.5209 6.72396 56.7214 6.60133 56.8904 6.43892C57.0595 6.27652 57.1887 6.07599 57.2782 5.83736L58.6852 6.09091C58.5725 6.50521 58.3703 6.86813 58.0787 7.17969C57.7903 7.48793 57.4274 7.72822 56.9899 7.90057C56.5557 8.0696 56.0602 8.15412 55.5034 8.15412ZM64.9283 3.05327V4.34091H60.4141V3.05327H64.9283ZM67.7683 0.363636L69.4537 3.33665L71.1539 0.363636H72.7797L70.3983 4.18182L72.7995 8H71.1738L69.4537 5.14631L67.7385 8H66.1078L68.4842 4.18182L66.1376 0.363636H67.7683ZM78.4908 3.05327V4.34091H73.9766V3.05327H78.4908ZM86.1942 2.22798L84.8469 2.46662C84.7906 2.29427 84.7011 2.13021 84.5785 1.97443C84.4592 1.81865 84.2968 1.69105 84.0913 1.59162C83.8858 1.49219 83.6289 1.44247 83.3207 1.44247C82.8997 1.44247 82.5484 1.53693 82.2667 1.72585C81.985 1.91146 81.8441 2.15175 81.8441 2.44673C81.8441 2.70194 81.9386 2.90743 82.1275 3.06321C82.3164 3.21899 82.6213 3.34659 83.0423 3.44602L84.2553 3.72443C84.958 3.88684 85.4817 4.13707 85.8263 4.47514C86.171 4.81321 86.3434 5.25237 86.3434 5.79261C86.3434 6.25 86.2108 6.65767 85.9457 7.01562C85.6838 7.37027 85.3176 7.64867 84.8469 7.85085C84.3796 8.05303 83.8377 8.15412 83.2212 8.15412C82.3661 8.15412 81.6684 7.97183 81.1282 7.60724C80.5879 7.23935 80.2565 6.71733 80.1339 6.04119L81.5707 5.82244C81.6602 6.19697 81.8441 6.48035 82.1225 6.67259C82.4009 6.86151 82.7638 6.95597 83.2113 6.95597C83.6985 6.95597 84.0879 6.85488 84.3796 6.6527C84.6713 6.44721 84.8171 6.19697 84.8171 5.90199C84.8171 5.66335 84.7276 5.46283 84.5487 5.30043C84.373 5.13802 84.1029 5.01539 83.7383 4.93253L82.4457 4.64915C81.7331 4.48674 81.2061 4.22822 80.8647 3.87358C80.5266 3.51894 80.3576 3.06984 80.3576 2.52628C80.3576 2.07552 80.4835 1.68111 80.7354 1.34304C80.9873 1.00497 81.3353 0.741477 81.7795 0.552557C82.2236 0.360322 82.7324 0.264205 83.3058 0.264205C84.131 0.264205 84.7807 0.443182 85.2546 0.801136C85.7286 1.15578 86.0418 1.63139 86.1942 2.22798ZM93.1333 10.8636V6.81179H93.0439C92.9544 6.9742 92.8251 7.1598 92.6561 7.36861C92.4904 7.57741 92.2617 7.75971 91.97 7.91548C91.6783 8.07126 91.3005 8.14915 90.8365 8.14915C90.22 8.14915 89.6698 7.99171 89.1859 7.67685C88.7053 7.35866 88.3275 6.90625 88.0524 6.3196C87.7806 5.72964 87.6447 5.02202 87.6447 4.19673C87.6447 3.37145 87.7823 2.66548 88.0574 2.07884C88.3358 1.49219 88.7169 1.04309 89.2008 0.731534C89.6847 0.419981 90.2333 0.264205 90.8464 0.264205C91.3204 0.264205 91.7015 0.34375 91.9899 0.502841C92.2815 0.658617 92.5069 0.840909 92.666 1.04972C92.8284 1.25852 92.9544 1.44247 93.0439 1.60156H93.1681V0.363636H94.6199V10.8636H93.1333ZM91.1646 6.88139C91.5922 6.88139 91.9534 6.7687 92.2484 6.54332C92.5467 6.31463 92.7721 5.99811 92.9245 5.59375C93.0803 5.18939 93.1582 4.71875 93.1582 4.18182C93.1582 3.65151 93.082 3.1875 92.9295 2.78977C92.777 2.39205 92.5533 2.08215 92.2583 1.86009C91.9634 1.63802 91.5988 1.52699 91.1646 1.52699C90.7172 1.52699 90.3443 1.64299 90.046 1.875C89.7477 2.10701 89.5223 2.42353 89.3699 2.82457C89.2207 3.22562 89.1461 3.67803 89.1461 4.18182C89.1461 4.69223 89.2224 5.15128 89.3748 5.55895C89.5273 5.96662 89.7527 6.28977 90.051 6.52841C90.3526 6.76373 90.7238 6.88139 91.1646 6.88139ZM101.456 4.8331V0.363636H102.947V8H101.486V6.67756H101.406C101.23 7.08523 100.949 7.42495 100.561 7.69673C100.176 7.9652 99.6975 8.09943 99.1241 8.09943C98.6336 8.09943 98.1994 7.99171 97.8216 7.77628C97.447 7.55753 97.152 7.23438 96.9366 6.80682C96.7245 6.37926 96.6184 5.85062 96.6184 5.22088V0.363636H98.1049V5.0419C98.1049 5.56226 98.2491 5.97656 98.5375 6.2848C98.8258 6.59304 99.2003 6.74716 99.661 6.74716C99.9395 6.74716 100.216 6.67756 100.491 6.53835C100.77 6.39915 101 6.18868 101.182 5.90696C101.368 5.62524 101.459 5.26728 101.456 4.8331ZM107.167 8.16903C106.683 8.16903 106.246 8.07955 105.854 7.90057C105.463 7.71828 105.153 7.45478 104.925 7.11009C104.699 6.76539 104.587 6.3428 104.587 5.84233C104.587 5.41146 104.67 5.05682 104.835 4.77841C105.001 4.5 105.225 4.27959 105.506 4.11719C105.788 3.95478 106.103 3.83215 106.451 3.74929C106.799 3.66643 107.154 3.60346 107.515 3.56037C107.972 3.50734 108.344 3.46425 108.629 3.43111C108.914 3.39465 109.121 3.33665 109.25 3.2571C109.379 3.17756 109.444 3.0483 109.444 2.86932V2.83452C109.444 2.40033 109.321 2.06392 109.076 1.82528C108.834 1.58665 108.473 1.46733 107.992 1.46733C107.492 1.46733 107.097 1.57836 106.809 1.80043C106.524 2.01918 106.327 2.26278 106.217 2.53125L104.82 2.21307C104.986 1.74905 105.228 1.37453 105.546 1.08949C105.868 0.801136 106.237 0.592329 106.655 0.463068C107.072 0.330492 107.512 0.264205 107.972 0.264205C108.277 0.264205 108.6 0.300663 108.942 0.37358C109.286 0.443182 109.608 0.572443 109.906 0.761363C110.208 0.950284 110.455 1.22041 110.647 1.57173C110.839 1.91974 110.935 2.37216 110.935 2.92898V8H109.484V6.95597H109.424C109.328 7.1482 109.184 7.33712 108.991 7.52273C108.799 7.70833 108.552 7.86245 108.251 7.98509C107.949 8.10772 107.588 8.16903 107.167 8.16903ZM107.49 6.97585C107.901 6.97585 108.252 6.89465 108.544 6.73224C108.839 6.56984 109.063 6.35772 109.215 6.09588C109.371 5.83073 109.449 5.54735 109.449 5.24574V4.26136C109.396 4.31439 109.293 4.36411 109.141 4.41051C108.991 4.4536 108.821 4.49171 108.629 4.52486C108.436 4.55469 108.249 4.58286 108.067 4.60938C107.884 4.63258 107.732 4.65246 107.609 4.66903C107.321 4.70549 107.058 4.76681 106.819 4.85298C106.584 4.93916 106.395 5.06345 106.252 5.22585C106.113 5.38494 106.043 5.59706 106.043 5.86222C106.043 6.23011 106.179 6.50852 106.451 6.69744C106.723 6.88305 107.069 6.97585 107.49 6.97585ZM112.915 8V0.363636H114.352V1.5767H114.432C114.571 1.16572 114.816 0.842566 115.167 0.607244C115.522 0.368608 115.923 0.249289 116.371 0.249289C116.463 0.249289 116.573 0.252604 116.699 0.259233C116.828 0.265861 116.929 0.274147 117.002 0.284091V1.70597C116.942 1.68939 116.836 1.67116 116.684 1.65128C116.531 1.62808 116.379 1.61648 116.226 1.61648C115.875 1.61648 115.562 1.69105 115.287 1.8402C115.015 1.98603 114.8 2.18987 114.64 2.4517C114.481 2.71023 114.402 3.00521 114.402 3.33665V8H112.915ZM121.306 8.15412C120.554 8.15412 119.906 7.99337 119.362 7.67188C118.822 7.34706 118.404 6.89134 118.109 6.30469C117.818 5.71473 117.672 5.02367 117.672 4.23153C117.672 3.44934 117.818 2.75994 118.109 2.16335C118.404 1.56676 118.815 1.10109 119.342 0.766335C119.873 0.431581 120.492 0.264205 121.202 0.264205C121.633 0.264205 122.05 0.335464 122.455 0.477983C122.859 0.620502 123.222 0.844223 123.543 1.14915C123.865 1.45407 124.118 1.85014 124.304 2.33736C124.49 2.82126 124.582 3.40956 124.582 4.10227V4.62926H118.512V3.51562H123.126C123.126 3.12453 123.046 2.77817 122.887 2.47656C122.728 2.17164 122.504 1.93134 122.216 1.75568C121.931 1.58002 121.596 1.49219 121.212 1.49219C120.794 1.49219 120.429 1.59493 120.118 1.80043C119.81 2.0026 119.571 2.26776 119.402 2.59588C119.236 2.92069 119.153 3.27367 119.153 3.65483V4.52486C119.153 5.03527 119.243 5.46946 119.422 5.82741C119.604 6.18537 119.858 6.45881 120.183 6.64773C120.507 6.83333 120.887 6.92614 121.321 6.92614C121.603 6.92614 121.86 6.88636 122.092 6.80682C122.324 6.72396 122.524 6.60133 122.693 6.43892C122.862 6.27652 122.991 6.07599 123.081 5.83736L124.488 6.09091C124.375 6.50521 124.173 6.86813 123.881 7.17969C123.593 7.48793 123.23 7.72822 122.793 7.90057C122.358 8.0696 121.863 8.15412 121.306 8.15412Z" fill="black"/>
</svg>
