<svg width="104" height="15" viewBox="0 0 104 15" fill="none" xmlns="http://www.w3.org/2000/svg">
<path d="M-0.000710189 13.8636V3.36364H1.45099V4.60156H1.57528C1.66146 4.44247 1.78575 4.25852 1.94815 4.04972C2.11056 3.84091 2.33594 3.65862 2.62429 3.50284C2.91264 3.34375 3.2938 3.2642 3.76776 3.2642C4.38423 3.2642 4.93442 3.41998 5.41832 3.73153C5.90223 4.04309 6.28172 4.49219 6.55682 5.07884C6.83523 5.66548 6.97443 6.37145 6.97443 7.19673C6.97443 8.02202 6.83688 8.72964 6.56179 9.3196C6.2867 9.90625 5.90885 10.3587 5.42827 10.6768C4.94768 10.9917 4.39915 11.1491 3.78267 11.1491C3.31866 11.1491 2.93916 11.0713 2.64418 10.9155C2.35251 10.7597 2.12382 10.5774 1.9581 10.3686C1.79238 10.1598 1.66477 9.9742 1.57528 9.81179H1.4858V13.8636H-0.000710189ZM1.45597 7.18182C1.45597 7.71875 1.53385 8.18939 1.68963 8.59375C1.84541 8.99811 2.07079 9.31463 2.36577 9.54332C2.66075 9.7687 3.02202 9.88139 3.44957 9.88139C3.8937 9.88139 4.26491 9.76373 4.56321 9.52841C4.86151 9.28977 5.08688 8.96662 5.23935 8.55895C5.39512 8.15128 5.47301 7.69223 5.47301 7.18182C5.47301 6.67803 5.39678 6.22562 5.24432 5.82457C5.09517 5.42353 4.86979 5.10701 4.56818 4.875C4.26989 4.64299 3.89702 4.52699 3.44957 4.52699C3.0187 4.52699 2.65412 4.63802 2.35582 4.86009C2.06084 5.08215 1.83712 5.39205 1.68466 5.78977C1.5322 6.1875 1.45597 6.65151 1.45597 7.18182ZM10.1264 6.46591V11H8.63991V0.818182H10.1065V4.60653H10.201C10.38 4.19555 10.6534 3.86908 11.0213 3.62713C11.3892 3.38518 11.8698 3.2642 12.4631 3.2642C12.9867 3.2642 13.4441 3.37192 13.8352 3.58736C14.2296 3.80279 14.5346 4.12429 14.75 4.55185C14.9688 4.97609 15.0781 5.50639 15.0781 6.14276V11H13.5916V6.32173C13.5916 5.7616 13.4474 5.32741 13.1591 5.01918C12.8707 4.70762 12.4697 4.55185 11.956 4.55185C11.6046 4.55185 11.2898 4.62642 11.0114 4.77557C10.7363 4.92472 10.5192 5.14347 10.3601 5.43182C10.2043 5.71686 10.1264 6.06155 10.1264 6.46591ZM20.2784 11.1541C19.5625 11.1541 18.9377 10.9901 18.4041 10.6619C17.8705 10.3338 17.4562 9.87476 17.1612 9.2848C16.8662 8.69484 16.7188 8.00544 16.7188 7.21662C16.7188 6.42448 16.8662 5.73177 17.1612 5.13849C17.4562 4.54522 17.8705 4.08452 18.4041 3.75639C18.9377 3.42827 19.5625 3.2642 20.2784 3.2642C20.9943 3.2642 21.6191 3.42827 22.1527 3.75639C22.6863 4.08452 23.1006 4.54522 23.3956 5.13849C23.6906 5.73177 23.8381 6.42448 23.8381 7.21662C23.8381 8.00544 23.6906 8.69484 23.3956 9.2848C23.1006 9.87476 22.6863 10.3338 22.1527 10.6619C21.6191 10.9901 20.9943 11.1541 20.2784 11.1541ZM20.2834 9.90625C20.7474 9.90625 21.1319 9.78362 21.4368 9.53835C21.7417 9.29309 21.9671 8.96662 22.1129 8.55895C22.2621 8.15128 22.3366 7.70218 22.3366 7.21165C22.3366 6.72443 22.2621 6.27699 22.1129 5.86932C21.9671 5.45833 21.7417 5.12855 21.4368 4.87997C21.1319 4.63139 20.7474 4.5071 20.2834 4.5071C19.8161 4.5071 19.4283 4.63139 19.12 4.87997C18.8151 5.12855 18.5881 5.45833 18.4389 5.86932C18.2931 6.27699 18.2202 6.72443 18.2202 7.21165C18.2202 7.70218 18.2931 8.15128 18.4389 8.55895C18.5881 8.96662 18.8151 9.29309 19.12 9.53835C19.4283 9.78362 19.8161 9.90625 20.2834 9.90625ZM26.9838 6.46591V11H25.4973V3.36364H26.9242V4.60653H27.0186C27.1943 4.20218 27.4694 3.87737 27.8439 3.6321C28.2218 3.38684 28.6974 3.2642 29.2708 3.2642C29.7911 3.2642 30.2469 3.37358 30.638 3.59233C31.0291 3.80777 31.3323 4.12926 31.5478 4.55682C31.7632 4.98437 31.8709 5.51302 31.8709 6.14276V11H30.3844V6.32173C30.3844 5.76823 30.2402 5.3357 29.9519 5.02415C29.6635 4.70928 29.2675 4.55185 28.7637 4.55185C28.419 4.55185 28.1124 4.62642 27.8439 4.77557C27.5788 4.92472 27.3683 5.14347 27.2125 5.43182C27.0601 5.71686 26.9838 6.06155 26.9838 6.46591ZM37.1557 11.1541C36.4033 11.1541 35.7554 10.9934 35.2118 10.6719C34.6716 10.3471 34.254 9.89134 33.959 9.30469C33.6673 8.71473 33.5215 8.02367 33.5215 7.23153C33.5215 6.44934 33.6673 5.75994 33.959 5.16335C34.254 4.56676 34.665 4.10109 35.1919 3.76633C35.7222 3.43158 36.342 3.2642 37.0513 3.2642C37.4822 3.2642 37.8998 3.33546 38.3042 3.47798C38.7085 3.6205 39.0714 3.84422 39.3929 4.14915C39.7144 4.45407 39.968 4.85014 40.1536 5.33736C40.3392 5.82126 40.432 6.40956 40.432 7.10227V7.62926H34.3617V6.51562H38.9753C38.9753 6.12453 38.8958 5.77817 38.7367 5.47656C38.5776 5.17164 38.3539 4.93134 38.0655 4.75568C37.7805 4.58002 37.4457 4.49219 37.0613 4.49219C36.6436 4.49219 36.2791 4.59493 35.9675 4.80043C35.6593 5.0026 35.4206 5.26776 35.2516 5.59588C35.0859 5.92069 35.003 6.27367 35.003 6.65483V7.52486C35.003 8.03527 35.0925 8.46946 35.2715 8.82741C35.4538 9.18537 35.7073 9.45881 36.0321 9.64773C36.3569 9.83333 36.7364 9.92614 37.1706 9.92614C37.4524 9.92614 37.7092 9.88636 37.9412 9.80682C38.1732 9.72396 38.3738 9.60133 38.5428 9.43892C38.7118 9.27652 38.8411 9.07599 38.9306 8.83736L40.3375 9.09091C40.2248 9.50521 40.0227 9.86813 39.731 10.1797C39.4426 10.4879 39.0797 10.7282 38.6422 10.9006C38.208 11.0696 37.7125 11.1541 37.1557 11.1541ZM46.5806 6.05327V7.34091H42.0664V6.05327H46.5806ZM50.0483 6.46591V11H48.5618V0.818182H50.0284V4.60653H50.1229C50.3018 4.19555 50.5753 3.86908 50.9432 3.62713C51.3111 3.38518 51.7917 3.2642 52.3849 3.2642C52.9086 3.2642 53.366 3.37192 53.7571 3.58736C54.1515 3.80279 54.4564 4.12429 54.6719 4.55185C54.8906 4.97609 55 5.50639 55 6.14276V11H53.5135V6.32173C53.5135 5.7616 53.3693 5.32741 53.081 5.01918C52.7926 4.70762 52.3916 4.55185 51.8778 4.55185C51.5265 4.55185 51.2116 4.62642 50.9332 4.77557C50.6581 4.92472 50.4411 5.14347 50.282 5.43182C50.1262 5.71686 50.0483 6.06155 50.0483 6.46591ZM59.206 11.169C58.7221 11.169 58.2846 11.0795 57.8935 10.9006C57.5024 10.7183 57.1925 10.4548 56.9638 10.1101C56.7384 9.76539 56.6257 9.3428 56.6257 8.84233C56.6257 8.41146 56.7086 8.05682 56.8743 7.77841C57.04 7.5 57.2637 7.27959 57.5455 7.11719C57.8272 6.95478 58.142 6.83215 58.4901 6.74929C58.8381 6.66643 59.1927 6.60346 59.554 6.56037C60.0114 6.50734 60.3826 6.46425 60.6676 6.43111C60.9527 6.39465 61.1598 6.33665 61.2891 6.2571C61.4183 6.17756 61.483 6.0483 61.483 5.86932V5.83452C61.483 5.40033 61.3603 5.06392 61.1151 4.82528C60.8731 4.58665 60.5118 4.46733 60.0312 4.46733C59.5308 4.46733 59.1364 4.57836 58.848 4.80043C58.563 5.01918 58.3658 5.26278 58.2564 5.53125L56.8594 5.21307C57.0251 4.74905 57.267 4.37453 57.5852 4.08949C57.9067 3.80114 58.2763 3.59233 58.6939 3.46307C59.1115 3.33049 59.5507 3.2642 60.0114 3.2642C60.3163 3.2642 60.6394 3.30066 60.9808 3.37358C61.3255 3.44318 61.647 3.57244 61.9453 3.76136C62.2469 3.95028 62.4938 4.22041 62.6861 4.57173C62.8783 4.91974 62.9744 5.37216 62.9744 5.92898V11H61.5227V9.95597H61.4631C61.367 10.1482 61.2228 10.3371 61.0305 10.5227C60.8383 10.7083 60.5914 10.8625 60.2898 10.9851C59.9882 11.1077 59.6269 11.169 59.206 11.169ZM59.5291 9.97585C59.9401 9.97585 60.2914 9.89465 60.5831 9.73224C60.8781 9.56984 61.1018 9.35772 61.2543 9.09588C61.41 8.83073 61.4879 8.54735 61.4879 8.24574V7.26136C61.4349 7.31439 61.3321 7.36411 61.1797 7.41051C61.0305 7.4536 60.8598 7.49171 60.6676 7.52486C60.4754 7.55469 60.2881 7.58286 60.1058 7.60938C59.9235 7.63258 59.7711 7.65246 59.6484 7.66903C59.3601 7.70549 59.0966 7.76681 58.858 7.85298C58.6226 7.93916 58.4337 8.06345 58.2912 8.22585C58.152 8.38494 58.0824 8.59706 58.0824 8.86222C58.0824 9.23011 58.2183 9.50852 58.4901 9.69744C58.7618 9.88305 59.1082 9.97585 59.5291 9.97585ZM66.4409 6.46591V11H64.9544V3.36364H66.3812V4.60653H66.4757C66.6513 4.20218 66.9264 3.87737 67.301 3.6321C67.6788 3.38684 68.1544 3.2642 68.7278 3.2642C69.2482 3.2642 69.7039 3.37358 70.095 3.59233C70.4861 3.80777 70.7894 4.12926 71.0048 4.55682C71.2202 4.98437 71.3279 5.51302 71.3279 6.14276V11H69.8414V6.32173C69.8414 5.76823 69.6973 5.3357 69.4089 5.02415C69.1206 4.70928 68.7245 4.55185 68.2207 4.55185C67.876 4.55185 67.5694 4.62642 67.301 4.77557C67.0358 4.92472 66.8253 5.14347 66.6696 5.43182C66.5171 5.71686 66.4409 6.06155 66.4409 6.46591ZM76.5233 14.0227C75.9167 14.0227 75.3947 13.9432 74.9572 13.7841C74.523 13.625 74.1684 13.4145 73.8933 13.1527C73.6182 12.8909 73.4127 12.6042 73.2768 12.2926L74.5545 11.7656C74.644 11.9115 74.7633 12.0656 74.9125 12.228C75.0649 12.3937 75.2704 12.5346 75.5289 12.6506C75.7908 12.7666 76.1272 12.8246 76.5382 12.8246C77.1016 12.8246 77.5673 12.687 77.9352 12.4119C78.3031 12.1402 78.487 11.706 78.487 11.1094V9.60795H78.3926C78.3031 9.77036 78.1738 9.95099 78.0048 10.1499C77.8391 10.3487 77.6104 10.5211 77.3187 10.6669C77.027 10.8127 76.6475 10.8857 76.1802 10.8857C75.577 10.8857 75.0334 10.7448 74.5495 10.4631C74.069 10.178 73.6878 9.75876 73.4061 9.20526C73.1277 8.64844 72.9885 7.96401 72.9885 7.15199C72.9885 6.33996 73.126 5.64394 73.4011 5.06392C73.6795 4.4839 74.0607 4.03977 74.5446 3.73153C75.0285 3.41998 75.577 3.2642 76.1902 3.2642C76.6641 3.2642 77.0469 3.34375 77.3386 3.50284C77.6303 3.65862 77.8573 3.84091 78.0197 4.04972C78.1854 4.25852 78.313 4.44247 78.4025 4.60156H78.5119V3.36364H79.9686V11.169C79.9686 11.8253 79.8161 12.3639 79.5112 12.7848C79.2063 13.2057 78.7936 13.5173 78.2733 13.7195C77.7562 13.9216 77.1729 14.0227 76.5233 14.0227ZM76.5083 9.6527C76.9359 9.6527 77.2972 9.55327 77.5922 9.3544C77.8904 9.15223 78.1158 8.86387 78.2683 8.48935C78.4241 8.11151 78.502 7.65909 78.502 7.1321C78.502 6.61837 78.4257 6.16596 78.2733 5.77486C78.1208 5.38376 77.8971 5.07884 77.6021 4.86009C77.3071 4.63802 76.9425 4.52699 76.5083 4.52699C76.0609 4.52699 75.688 4.64299 75.3897 4.875C75.0914 5.10369 74.8661 5.41525 74.7136 5.80966C74.5645 6.20407 74.4899 6.64489 74.4899 7.1321C74.4899 7.63258 74.5661 8.07173 74.7186 8.44957C74.871 8.82741 75.0964 9.1224 75.3947 9.33452C75.6963 9.54664 76.0675 9.6527 76.5083 9.6527ZM86.4615 6.05327V7.34091H81.9473V6.05327H86.4615ZM93.28 7.8331V3.36364H94.7715V11H93.3098V9.67756H93.2303C93.0546 10.0852 92.7729 10.425 92.3851 10.6967C92.0007 10.9652 91.5217 11.0994 90.9483 11.0994C90.4578 11.0994 90.0236 10.9917 89.6458 10.7763C89.2712 10.5575 88.9763 10.2344 88.7608 9.80682C88.5487 9.37926 88.4426 8.85062 88.4426 8.22088V3.36364H89.9292V8.0419C89.9292 8.56226 90.0733 8.97656 90.3617 9.2848C90.65 9.59304 91.0246 9.74716 91.4853 9.74716C91.7637 9.74716 92.0404 9.67756 92.3155 9.53835C92.5939 9.39915 92.8243 9.18868 93.0066 8.90696C93.1922 8.62524 93.2833 8.26728 93.28 7.8331ZM96.7688 13.8636V3.36364H98.2205V4.60156H98.3448C98.431 4.44247 98.5553 4.25852 98.7177 4.04972C98.8801 3.84091 99.1055 3.65862 99.3938 3.50284C99.6822 3.34375 100.063 3.2642 100.537 3.2642C101.154 3.2642 101.704 3.41998 102.188 3.73153C102.672 4.04309 103.051 4.49219 103.326 5.07884C103.605 5.66548 103.744 6.37145 103.744 7.19673C103.744 8.02202 103.606 8.72964 103.331 9.3196C103.056 9.90625 102.678 10.3587 102.198 10.6768C101.717 10.9917 101.169 11.1491 100.552 11.1491C100.088 11.1491 99.7087 11.0713 99.4137 10.9155C99.122 10.7597 98.8933 10.5774 98.7276 10.3686C98.5619 10.1598 98.4343 9.9742 98.3448 9.81179H98.2553V13.8636H96.7688ZM98.2255 7.18182C98.2255 7.71875 98.3034 8.18939 98.4592 8.59375C98.6149 8.99811 98.8403 9.31463 99.1353 9.54332C99.4303 9.7687 99.7915 9.88139 100.219 9.88139C100.663 9.88139 101.034 9.76373 101.333 9.52841C101.631 9.28977 101.856 8.96662 102.009 8.55895C102.165 8.15128 102.243 7.69223 102.243 7.18182C102.243 6.67803 102.166 6.22562 102.014 5.82457C101.865 5.42353 101.639 5.10701 101.338 4.875C101.039 4.64299 100.667 4.52699 100.219 4.52699C99.7882 4.52699 99.4237 4.63802 99.1254 4.86009C98.8304 5.08215 98.6067 5.39205 98.4542 5.78977C98.3017 6.1875 98.2255 6.65151 98.2255 7.18182Z" fill="black"/>
</svg>
