<svg width="103" height="12" viewBox="0 0 103 12" fill="none" xmlns="http://www.w3.org/2000/svg">
<path d="M3.22159 11.169C2.73769 11.169 2.30019 11.0795 1.90909 10.9006C1.51799 10.7183 1.2081 10.4548 0.979403 10.1101C0.754025 9.76539 0.641335 9.3428 0.641335 8.84233C0.641335 8.41146 0.724195 8.05682 0.889915 7.77841C1.05563 7.5 1.27936 7.27959 1.56108 7.11719C1.8428 6.95478 2.15767 6.83215 2.50568 6.74929C2.85369 6.66643 3.20833 6.60346 3.5696 6.56037C4.02699 6.50734 4.3982 6.46425 4.68324 6.43111C4.96828 6.39465 5.17543 6.33665 5.30469 6.2571C5.43395 6.17756 5.49858 6.0483 5.49858 5.86932V5.83452C5.49858 5.40033 5.37595 5.06392 5.13068 4.82528C4.88873 4.58665 4.52746 4.46733 4.04688 4.46733C3.5464 4.46733 3.15199 4.57836 2.86364 4.80043C2.5786 5.01918 2.38139 5.26278 2.27202 5.53125L0.875 5.21307C1.04072 4.74905 1.28267 4.37453 1.60085 4.08949C1.92235 3.80114 2.2919 3.59233 2.70952 3.46307C3.12713 3.33049 3.56629 3.2642 4.02699 3.2642C4.33191 3.2642 4.65507 3.30066 4.99645 3.37358C5.34115 3.44318 5.66264 3.57244 5.96094 3.76136C6.26255 3.95028 6.50947 4.22041 6.7017 4.57173C6.89394 4.91974 6.99006 5.37216 6.99006 5.92898V11H5.53835V9.95597H5.47869C5.38258 10.1482 5.2384 10.3371 5.04616 10.5227C4.85393 10.7083 4.60701 10.8625 4.3054 10.9851C4.00379 11.1077 3.64252 11.169 3.22159 11.169ZM3.54474 9.97585C3.95573 9.97585 4.30706 9.89465 4.59872 9.73224C4.8937 9.56984 5.11742 9.35772 5.26989 9.09588C5.42566 8.83073 5.50355 8.54735 5.50355 8.24574V7.26136C5.45052 7.31439 5.34777 7.36411 5.19531 7.41051C5.04616 7.4536 4.87547 7.49171 4.68324 7.52486C4.491 7.55469 4.30374 7.58286 4.12145 7.60938C3.93916 7.63258 3.7867 7.65246 3.66406 7.66903C3.37571 7.70549 3.11222 7.76681 2.87358 7.85298C2.63826 7.93916 2.44934 8.06345 2.30682 8.22585C2.16761 8.38494 2.09801 8.59706 2.09801 8.86222C2.09801 9.23011 2.2339 9.50852 2.50568 9.69744C2.77746 9.88305 3.12382 9.97585 3.54474 9.97585ZM10.4565 6.46591V11H8.96999V3.36364H10.3968V4.60653H10.4913C10.667 4.20218 10.9421 3.87737 11.3166 3.6321C11.6944 3.38684 12.17 3.2642 12.7434 3.2642C13.2638 3.2642 13.7195 3.37358 14.1106 3.59233C14.5017 3.80777 14.805 4.12926 15.0204 4.55682C15.2359 4.98437 15.3436 5.51302 15.3436 6.14276V11H13.8571V6.32173C13.8571 5.76823 13.7129 5.3357 13.4245 5.02415C13.1362 4.70928 12.7401 4.55185 12.2363 4.55185C11.8916 4.55185 11.585 4.62642 11.3166 4.77557C11.0514 4.92472 10.841 5.14347 10.6852 5.43182C10.5327 5.71686 10.4565 6.06155 10.4565 6.46591ZM18.8237 6.46591V11H17.3372V3.36364H18.764V4.60653H18.8585C19.0342 4.20218 19.3092 3.87737 19.6838 3.6321C20.0616 3.38684 20.5372 3.2642 21.1106 3.2642C21.631 3.2642 22.0867 3.37358 22.4778 3.59233C22.8689 3.80777 23.1722 4.12926 23.3876 4.55682C23.603 4.98437 23.7108 5.51302 23.7108 6.14276V11H22.2243V6.32173C22.2243 5.76823 22.0801 5.3357 21.7917 5.02415C21.5034 4.70928 21.1073 4.55185 20.6035 4.55185C20.2588 4.55185 19.9522 4.62642 19.6838 4.77557C19.4186 4.92472 19.2082 5.14347 19.0524 5.43182C18.8999 5.71686 18.8237 6.06155 18.8237 6.46591ZM28.921 11.1541C28.2051 11.1541 27.5803 10.9901 27.0467 10.6619C26.5131 10.3338 26.0988 9.87476 25.8038 9.2848C25.5088 8.69484 25.3613 8.00544 25.3613 7.21662C25.3613 6.42448 25.5088 5.73177 25.8038 5.13849C26.0988 4.54522 26.5131 4.08452 27.0467 3.75639C27.5803 3.42827 28.2051 3.2642 28.921 3.2642C29.6369 3.2642 30.2617 3.42827 30.7953 3.75639C31.3289 4.08452 31.7432 4.54522 32.0382 5.13849C32.3332 5.73177 32.4806 6.42448 32.4806 7.21662C32.4806 8.00544 32.3332 8.69484 32.0382 9.2848C31.7432 9.87476 31.3289 10.3338 30.7953 10.6619C30.2617 10.9901 29.6369 11.1541 28.921 11.1541ZM28.926 9.90625C29.39 9.90625 29.7744 9.78362 30.0794 9.53835C30.3843 9.29309 30.6097 8.96662 30.7555 8.55895C30.9047 8.15128 30.9792 7.70218 30.9792 7.21165C30.9792 6.72443 30.9047 6.27699 30.7555 5.86932C30.6097 5.45833 30.3843 5.12855 30.0794 4.87997C29.7744 4.63139 29.39 4.5071 28.926 4.5071C28.4586 4.5071 28.0708 4.63139 27.7626 4.87997C27.4577 5.12855 27.2306 5.45833 27.0815 5.86932C26.9357 6.27699 26.8627 6.72443 26.8627 7.21165C26.8627 7.70218 26.9357 8.15128 27.0815 8.55895C27.2306 8.96662 27.4577 9.29309 27.7626 9.53835C28.0708 9.78362 28.4586 9.90625 28.926 9.90625ZM37.7045 3.36364V4.55682H33.5334V3.36364H37.7045ZM34.652 1.53409H36.1385V8.75781C36.1385 9.04616 36.1816 9.26326 36.2678 9.40909C36.3539 9.55161 36.465 9.64938 36.6009 9.70241C36.7401 9.75213 36.8909 9.77699 37.0533 9.77699C37.1726 9.77699 37.277 9.7687 37.3665 9.75213C37.456 9.73556 37.5256 9.7223 37.5753 9.71236L37.8438 10.9403C37.7576 10.9735 37.6349 11.0066 37.4759 11.0398C37.3168 11.0762 37.1179 11.0961 36.8793 11.0994C36.4882 11.1061 36.1236 11.0365 35.7855 10.8906C35.4474 10.7448 35.174 10.5194 34.9652 10.2145C34.7564 9.90956 34.652 9.52675 34.652 9.06605V1.53409ZM41.5712 11.169C41.0873 11.169 40.6498 11.0795 40.2587 10.9006C39.8676 10.7183 39.5577 10.4548 39.329 10.1101C39.1036 9.76539 38.9909 9.3428 38.9909 8.84233C38.9909 8.41146 39.0738 8.05682 39.2395 7.77841C39.4052 7.5 39.629 7.27959 39.9107 7.11719C40.1924 6.95478 40.5073 6.83215 40.8553 6.74929C41.2033 6.66643 41.5579 6.60346 41.9192 6.56037C42.3766 6.50734 42.7478 6.46425 43.0328 6.43111C43.3179 6.39465 43.525 6.33665 43.6543 6.2571C43.7836 6.17756 43.8482 6.0483 43.8482 5.86932V5.83452C43.8482 5.40033 43.7256 5.06392 43.4803 4.82528C43.2383 4.58665 42.8771 4.46733 42.3965 4.46733C41.896 4.46733 41.5016 4.57836 41.2132 4.80043C40.9282 5.01918 40.731 5.26278 40.6216 5.53125L39.2246 5.21307C39.3903 4.74905 39.6323 4.37453 39.9505 4.08949C40.272 3.80114 40.6415 3.59233 41.0591 3.46307C41.4767 3.33049 41.9159 3.2642 42.3766 3.2642C42.6815 3.2642 43.0047 3.30066 43.3461 3.37358C43.6908 3.44318 44.0123 3.57244 44.3105 3.76136C44.6122 3.95028 44.8591 4.22041 45.0513 4.57173C45.2435 4.91974 45.3397 5.37216 45.3397 5.92898V11H43.888V9.95597H43.8283C43.7322 10.1482 43.588 10.3371 43.3958 10.5227C43.2035 10.7083 42.9566 10.8625 42.655 10.9851C42.3534 11.1077 41.9921 11.169 41.5712 11.169ZM41.8944 9.97585C42.3053 9.97585 42.6567 9.89465 42.9483 9.73224C43.2433 9.56984 43.467 9.35772 43.6195 9.09588C43.7753 8.83073 43.8532 8.54735 43.8532 8.24574V7.26136C43.8001 7.31439 43.6974 7.36411 43.5449 7.41051C43.3958 7.4536 43.2251 7.49171 43.0328 7.52486C42.8406 7.55469 42.6534 7.58286 42.4711 7.60938C42.2888 7.63258 42.1363 7.65246 42.0137 7.66903C41.7253 7.70549 41.4618 7.76681 41.2232 7.85298C40.9879 7.93916 40.7989 8.06345 40.6564 8.22585C40.5172 8.38494 40.4476 8.59706 40.4476 8.86222C40.4476 9.23011 40.5835 9.50852 40.8553 9.69744C41.1271 9.88305 41.4734 9.97585 41.8944 9.97585ZM50.8842 3.36364V4.55682H46.7131V3.36364H50.8842ZM47.8317 1.53409H49.3182V8.75781C49.3182 9.04616 49.3613 9.26326 49.4474 9.40909C49.5336 9.55161 49.6446 9.64938 49.7805 9.70241C49.9197 9.75213 50.0705 9.77699 50.233 9.77699C50.3523 9.77699 50.4567 9.7687 50.5462 9.75213C50.6357 9.73556 50.7053 9.7223 50.755 9.71236L51.0234 10.9403C50.9373 10.9735 50.8146 11.0066 50.6555 11.0398C50.4964 11.0762 50.2976 11.0961 50.0589 11.0994C49.6679 11.1061 49.3033 11.0365 48.9652 10.8906C48.6271 10.7448 48.3537 10.5194 48.1449 10.2145C47.9361 9.90956 47.8317 9.52675 47.8317 9.06605V1.53409ZM52.5286 11V3.36364H54.0151V11H52.5286ZM53.2793 2.18537C53.0208 2.18537 52.7987 2.09919 52.6131 1.92685C52.4308 1.75118 52.3397 1.54238 52.3397 1.30043C52.3397 1.05516 52.4308 0.846354 52.6131 0.674005C52.7987 0.498342 53.0208 0.410511 53.2793 0.410511C53.5378 0.410511 53.7582 0.498342 53.9405 0.674005C54.1261 0.846354 54.2189 1.05516 54.2189 1.30043C54.2189 1.54238 54.1261 1.75118 53.9405 1.92685C53.7582 2.09919 53.5378 2.18537 53.2793 2.18537ZM59.2315 11.1541C58.5156 11.1541 57.8909 10.9901 57.3572 10.6619C56.8236 10.3338 56.4093 9.87476 56.1143 9.2848C55.8194 8.69484 55.6719 8.00544 55.6719 7.21662C55.6719 6.42448 55.8194 5.73177 56.1143 5.13849C56.4093 4.54522 56.8236 4.08452 57.3572 3.75639C57.8909 3.42827 58.5156 3.2642 59.2315 3.2642C59.9474 3.2642 60.5722 3.42827 61.1058 3.75639C61.6394 4.08452 62.0537 4.54522 62.3487 5.13849C62.6437 5.73177 62.7912 6.42448 62.7912 7.21662C62.7912 8.00544 62.6437 8.69484 62.3487 9.2848C62.0537 9.87476 61.6394 10.3338 61.1058 10.6619C60.5722 10.9901 59.9474 11.1541 59.2315 11.1541ZM59.2365 9.90625C59.7005 9.90625 60.085 9.78362 60.3899 9.53835C60.6948 9.29309 60.9202 8.96662 61.0661 8.55895C61.2152 8.15128 61.2898 7.70218 61.2898 7.21165C61.2898 6.72443 61.2152 6.27699 61.0661 5.86932C60.9202 5.45833 60.6948 5.12855 60.3899 4.87997C60.085 4.63139 59.7005 4.5071 59.2365 4.5071C58.7692 4.5071 58.3814 4.63139 58.0732 4.87997C57.7682 5.12855 57.5412 5.45833 57.392 5.86932C57.2462 6.27699 57.1733 6.72443 57.1733 7.21165C57.1733 7.70218 57.2462 8.15128 57.392 8.55895C57.5412 8.96662 57.7682 9.29309 58.0732 9.53835C58.3814 9.78362 58.7692 9.90625 59.2365 9.90625ZM65.937 6.46591V11H64.4505V3.36364H65.8773V4.60653H65.9718C66.1474 4.20218 66.4225 3.87737 66.7971 3.6321C67.1749 3.38684 67.6505 3.2642 68.2239 3.2642C68.7443 3.2642 69.2 3.37358 69.5911 3.59233C69.9822 3.80777 70.2855 4.12926 70.5009 4.55682C70.7163 4.98437 70.824 5.51302 70.824 6.14276V11H69.3375V6.32173C69.3375 5.76823 69.1934 5.3357 68.905 5.02415C68.6167 4.70928 68.2206 4.55185 67.7168 4.55185C67.3721 4.55185 67.0655 4.62642 66.7971 4.77557C66.5319 4.92472 66.3214 5.14347 66.1657 5.43182C66.0132 5.71686 65.937 6.06155 65.937 6.46591ZM77.3169 6.05327V7.34091H72.8027V6.05327H77.3169ZM79.2981 11V3.36364H80.7846V11H79.2981ZM80.0488 2.18537C79.7903 2.18537 79.5682 2.09919 79.3826 1.92685C79.2003 1.75118 79.1092 1.54238 79.1092 1.30043C79.1092 1.05516 79.2003 0.846354 79.3826 0.674005C79.5682 0.498342 79.7903 0.410511 80.0488 0.410511C80.3074 0.410511 80.5278 0.498342 80.71 0.674005C80.8957 0.846354 80.9885 1.05516 80.9885 1.30043C80.9885 1.54238 80.8957 1.75118 80.71 1.92685C80.5278 2.09919 80.3074 2.18537 80.0488 2.18537ZM84.271 6.46591V11H82.7844V3.36364H84.2113V4.60653H84.3058C84.4814 4.20218 84.7565 3.87737 85.131 3.6321C85.5089 3.38684 85.9845 3.2642 86.5579 3.2642C87.0782 3.2642 87.534 3.37358 87.9251 3.59233C88.3162 3.80777 88.6194 4.12926 88.8349 4.55682C89.0503 4.98437 89.158 5.51302 89.158 6.14276V11H87.6715V6.32173C87.6715 5.76823 87.5273 5.3357 87.239 5.02415C86.9506 4.70928 86.5546 4.55185 86.0508 4.55185C85.7061 4.55185 85.3995 4.62642 85.131 4.77557C84.8659 4.92472 84.6554 5.14347 84.4996 5.43182C84.3472 5.71686 84.271 6.06155 84.271 6.46591ZM94.7859 3.36364V4.55682H90.4705V3.36364H94.7859ZM91.6538 11V2.47869C91.6538 2.00142 91.7582 1.60535 91.967 1.29048C92.1758 0.972301 92.4525 0.735322 92.7972 0.579545C93.1419 0.420454 93.5165 0.340908 93.9208 0.340908C94.2191 0.340908 94.4743 0.365767 94.6864 0.415483C94.8986 0.461884 95.056 0.504971 95.1587 0.544744L94.8107 1.74787C94.7411 1.72798 94.6516 1.70478 94.5423 1.67827C94.4329 1.64844 94.3003 1.63352 94.1445 1.63352C93.7833 1.63352 93.5247 1.72301 93.369 1.90199C93.2165 2.08097 93.1403 2.33949 93.1403 2.67756V11H91.6538ZM99.2354 11.1541C98.5195 11.1541 97.8948 10.9901 97.3612 10.6619C96.8275 10.3338 96.4132 9.87476 96.1183 9.2848C95.8233 8.69484 95.6758 8.00544 95.6758 7.21662C95.6758 6.42448 95.8233 5.73177 96.1183 5.13849C96.4132 4.54522 96.8275 4.08452 97.3612 3.75639C97.8948 3.42827 98.5195 3.2642 99.2354 3.2642C99.9513 3.2642 100.576 3.42827 101.11 3.75639C101.643 4.08452 102.058 4.54522 102.353 5.13849C102.648 5.73177 102.795 6.42448 102.795 7.21662C102.795 8.00544 102.648 8.69484 102.353 9.2848C102.058 9.87476 101.643 10.3338 101.11 10.6619C100.576 10.9901 99.9513 11.1541 99.2354 11.1541ZM99.2404 9.90625C99.7044 9.90625 100.089 9.78362 100.394 9.53835C100.699 9.29309 100.924 8.96662 101.07 8.55895C101.219 8.15128 101.294 7.70218 101.294 7.21165C101.294 6.72443 101.219 6.27699 101.07 5.86932C100.924 5.45833 100.699 5.12855 100.394 4.87997C100.089 4.63139 99.7044 4.5071 99.2404 4.5071C98.7731 4.5071 98.3853 4.63139 98.0771 4.87997C97.7721 5.12855 97.5451 5.45833 97.396 5.86932C97.2501 6.27699 97.1772 6.72443 97.1772 7.21165C97.1772 7.70218 97.2501 8.15128 97.396 8.55895C97.5451 8.96662 97.7721 9.29309 98.0771 9.53835C98.3853 9.78362 98.7731 9.90625 99.2404 9.90625Z" fill="black"/>
</svg>
