<svg width="50" height="12" viewBox="0 0 50 12" fill="none" xmlns="http://www.w3.org/2000/svg">
<path d="M-0.000710189 11V3.36364H1.42614V4.60653H1.5206C1.67969 4.18561 1.93987 3.85748 2.30114 3.62216C2.66241 3.38352 3.09493 3.2642 3.59872 3.2642C4.10914 3.2642 4.5367 3.38352 4.88139 3.62216C5.2294 3.8608 5.48627 4.18892 5.65199 4.60653H5.73153C5.91383 4.19886 6.20384 3.87405 6.60156 3.6321C6.99929 3.38684 7.47325 3.2642 8.02344 3.2642C8.71615 3.2642 9.28125 3.4813 9.71875 3.91548C10.1596 4.34967 10.38 5.00426 10.38 5.87926V11H8.89347V6.01847C8.89347 5.50142 8.7526 5.12689 8.47088 4.89489C8.18916 4.66288 7.85275 4.54688 7.46165 4.54688C6.97775 4.54688 6.60156 4.69602 6.3331 4.99432C6.06463 5.2893 5.9304 5.6688 5.9304 6.13281V11H4.44886V5.92401C4.44886 5.50971 4.3196 5.17661 4.06108 4.92472C3.80256 4.67282 3.46615 4.54688 3.05185 4.54688C2.77012 4.54688 2.50994 4.62145 2.27131 4.7706C2.03599 4.91643 1.84541 5.12026 1.69957 5.3821C1.55706 5.64394 1.4858 5.94721 1.4858 6.2919V11H-0.000710189ZM14.5946 11.169C14.1107 11.169 13.6732 11.0795 13.2821 10.9006C12.891 10.7183 12.5811 10.4548 12.3525 10.1101C12.1271 9.76539 12.0144 9.3428 12.0144 8.84233C12.0144 8.41146 12.0972 8.05682 12.263 7.77841C12.4287 7.5 12.6524 7.27959 12.9341 7.11719C13.2158 6.95478 13.5307 6.83215 13.8787 6.74929C14.2267 6.66643 14.5814 6.60346 14.9426 6.56037C15.4 6.50734 15.7712 6.46425 16.0563 6.43111C16.3413 6.39465 16.5485 6.33665 16.6777 6.2571C16.807 6.17756 16.8716 6.0483 16.8716 5.86932V5.83452C16.8716 5.40033 16.749 5.06392 16.5037 4.82528C16.2618 4.58665 15.9005 4.46733 15.4199 4.46733C14.9194 4.46733 14.525 4.57836 14.2367 4.80043C13.9516 5.01918 13.7544 5.26278 13.6451 5.53125L12.248 5.21307C12.4138 4.74905 12.6557 4.37453 12.9739 4.08949C13.2954 3.80114 13.665 3.59233 14.0826 3.46307C14.5002 3.33049 14.9393 3.2642 15.4 3.2642C15.705 3.2642 16.0281 3.30066 16.3695 3.37358C16.7142 3.44318 17.0357 3.57244 17.334 3.76136C17.6356 3.95028 17.8825 4.22041 18.0748 4.57173C18.267 4.91974 18.3631 5.37216 18.3631 5.92898V11H16.9114V9.95597H16.8517C16.7556 10.1482 16.6114 10.3371 16.4192 10.5227C16.227 10.7083 15.9801 10.8625 15.6784 10.9851C15.3768 11.1077 15.0156 11.169 14.5946 11.169ZM14.9178 9.97585C15.3288 9.97585 15.6801 9.89465 15.9718 9.73224C16.2667 9.56984 16.4905 9.35772 16.6429 9.09588C16.7987 8.83073 16.8766 8.54735 16.8766 8.24574V7.26136C16.8236 7.31439 16.7208 7.36411 16.5684 7.41051C16.4192 7.4536 16.2485 7.49171 16.0563 7.52486C15.8641 7.55469 15.6768 7.58286 15.4945 7.60938C15.3122 7.63258 15.1597 7.65246 15.0371 7.66903C14.7488 7.70549 14.4853 7.76681 14.2466 7.85298C14.0113 7.93916 13.8224 8.06345 13.6799 8.22585C13.5407 8.38494 13.4711 8.59706 13.4711 8.86222C13.4711 9.23011 13.6069 9.50852 13.8787 9.69744C14.1505 9.88305 14.4969 9.97585 14.9178 9.97585ZM20.343 11V3.36364H21.8295V11H20.343ZM21.0938 2.18537C20.8352 2.18537 20.6132 2.09919 20.4276 1.92685C20.2453 1.75118 20.1541 1.54238 20.1541 1.30043C20.1541 1.05516 20.2453 0.846354 20.4276 0.674005C20.6132 0.498342 20.8352 0.410511 21.0938 0.410511C21.3523 0.410511 21.5727 0.498342 21.755 0.674005C21.9406 0.846354 22.0334 1.05516 22.0334 1.30043C22.0334 1.54238 21.9406 1.75118 21.755 1.92685C21.5727 2.09919 21.3523 2.18537 21.0938 2.18537ZM25.3159 0.818182V11H23.8294V0.818182H25.3159ZM31.815 6.05327V7.34091H27.3008V6.05327H31.815ZM37.321 11.169C36.5355 11.1657 35.8643 10.9586 35.3075 10.5476C34.7507 10.1366 34.3248 9.53835 34.0298 8.75284C33.7348 7.96733 33.5874 7.02107 33.5874 5.91406C33.5874 4.81037 33.7348 3.86742 34.0298 3.08523C34.3281 2.30303 34.7557 1.70644 35.3125 1.29545C35.8726 0.884469 36.5421 0.678977 37.321 0.678977C38.0999 0.678977 38.7678 0.886126 39.3246 1.30043C39.8814 1.71141 40.3073 2.308 40.6023 3.0902C40.9006 3.86908 41.0497 4.81037 41.0497 5.91406C41.0497 7.02438 40.9022 7.9723 40.6072 8.75781C40.3123 9.54001 39.8864 10.1383 39.3295 10.5526C38.7727 10.9635 38.1032 11.169 37.321 11.169ZM37.321 9.84162C38.0104 9.84162 38.549 9.50521 38.9368 8.83239C39.3279 8.15956 39.5234 7.18679 39.5234 5.91406C39.5234 5.06889 39.4339 4.35464 39.255 3.77131C39.0793 3.18466 38.8258 2.74053 38.4943 2.43892C38.1662 2.134 37.7751 1.98153 37.321 1.98153C36.6349 1.98153 36.0964 2.3196 35.7053 2.99574C35.3142 3.67187 35.117 4.64465 35.1136 5.91406C35.1136 6.76255 35.2015 7.48011 35.3771 8.06676C35.5561 8.65009 35.8097 9.09257 36.1378 9.39418C36.4659 9.69247 36.8603 9.84162 37.321 9.84162ZM46.1742 11.1392C45.5511 11.1392 44.9909 11.0199 44.4938 10.7812C43.9999 10.5393 43.6055 10.2079 43.3105 9.78693C43.0156 9.366 42.8581 8.88542 42.8382 8.34517H44.3297C44.3662 8.78267 44.5601 9.14228 44.9114 9.42401C45.2627 9.70573 45.6837 9.84659 46.1742 9.84659C46.5653 9.84659 46.9116 9.7571 47.2132 9.57812C47.5182 9.39583 47.7568 9.1456 47.9292 8.82741C48.1048 8.50923 48.1926 8.14631 48.1926 7.73864C48.1926 7.32434 48.1032 6.95478 47.9242 6.62997C47.7452 6.30516 47.4983 6.04995 47.1834 5.86435C46.8719 5.67874 46.5139 5.58428 46.1096 5.58097C45.8013 5.58097 45.4914 5.634 45.1799 5.74006C44.8683 5.84612 44.6164 5.98532 44.4242 6.15767L43.0172 5.94886L43.589 0.818182H49.187V2.13565H44.8667L44.5435 4.98438H44.6032C44.802 4.79214 45.0655 4.63139 45.3936 4.50213C45.7251 4.37287 46.0797 4.30824 46.4576 4.30824C47.0774 4.30824 47.6292 4.45573 48.1131 4.75071C48.6003 5.04569 48.9831 5.44839 49.2615 5.95881C49.5433 6.46591 49.6825 7.04924 49.6792 7.70881C49.6825 8.36837 49.5333 8.95668 49.2317 9.47372C48.9334 9.99077 48.5191 10.3984 47.9888 10.6967C47.4618 10.9917 46.8569 11.1392 46.1742 11.1392Z" fill="black"/>
</svg>
