<svg width="115" height="15" viewBox="0 0 115 15" fill="none" xmlns="http://www.w3.org/2000/svg">
<path d="M-0.000710189 11V3.36364H1.42614V4.60653H1.5206C1.67969 4.18561 1.93987 3.85748 2.30114 3.62216C2.66241 3.38352 3.09493 3.2642 3.59872 3.2642C4.10914 3.2642 4.5367 3.38352 4.88139 3.62216C5.2294 3.8608 5.48627 4.18892 5.65199 4.60653H5.73153C5.91383 4.19886 6.20384 3.87405 6.60156 3.6321C6.99929 3.38684 7.47325 3.2642 8.02344 3.2642C8.71615 3.2642 9.28125 3.4813 9.71875 3.91548C10.1596 4.34967 10.38 5.00426 10.38 5.87926V11H8.89347V6.01847C8.89347 5.50142 8.7526 5.12689 8.47088 4.89489C8.18916 4.66288 7.85275 4.54688 7.46165 4.54688C6.97775 4.54688 6.60156 4.69602 6.3331 4.99432C6.06463 5.2893 5.9304 5.6688 5.9304 6.13281V11H4.44886V5.92401C4.44886 5.50971 4.3196 5.17661 4.06108 4.92472C3.80256 4.67282 3.46615 4.54688 3.05185 4.54688C2.77012 4.54688 2.50994 4.62145 2.27131 4.7706C2.03599 4.91643 1.84541 5.12026 1.69957 5.3821C1.55706 5.64394 1.4858 5.94721 1.4858 6.2919V11H-0.000710189ZM15.6635 11.1541C14.9112 11.1541 14.2632 10.9934 13.7196 10.6719C13.1794 10.3471 12.7618 9.89134 12.4668 9.30469C12.1751 8.71473 12.0293 8.02367 12.0293 7.23153C12.0293 6.44934 12.1751 5.75994 12.4668 5.16335C12.7618 4.56676 13.1728 4.10109 13.6998 3.76633C14.2301 3.43158 14.8498 3.2642 15.5591 3.2642C15.99 3.2642 16.4076 3.33546 16.812 3.47798C17.2163 3.6205 17.5792 3.84422 17.9007 4.14915C18.2222 4.45407 18.4758 4.85014 18.6614 5.33736C18.847 5.82126 18.9398 6.40956 18.9398 7.10227V7.62926H12.8695V6.51562H17.4831C17.4831 6.12453 17.4036 5.77817 17.2445 5.47656C17.0854 5.17164 16.8617 4.93134 16.5733 4.75568C16.2883 4.58002 15.9535 4.49219 15.5691 4.49219C15.1515 4.49219 14.7869 4.59493 14.4753 4.80043C14.1671 5.0026 13.9284 5.26776 13.7594 5.59588C13.5937 5.92069 13.5108 6.27367 13.5108 6.65483V7.52486C13.5108 8.03527 13.6003 8.46946 13.7793 8.82741C13.9616 9.18537 14.2151 9.45881 14.54 9.64773C14.8648 9.83333 15.2443 9.92614 15.6784 9.92614C15.9602 9.92614 16.217 9.88636 16.449 9.80682C16.681 9.72396 16.8816 9.60133 17.0506 9.43892C17.2196 9.27652 17.3489 9.07599 17.4384 8.83736L18.8453 9.09091C18.7327 9.50521 18.5305 9.86813 18.2388 10.1797C17.9505 10.4879 17.5875 10.7282 17.15 10.9006C16.7158 11.0696 16.2203 11.1541 15.6635 11.1541ZM26.3114 5.22798L24.9641 5.46662C24.9078 5.29427 24.8183 5.13021 24.6957 4.97443C24.5763 4.81865 24.4139 4.69105 24.2085 4.59162C24.003 4.49219 23.7461 4.44247 23.4379 4.44247C23.0169 4.44247 22.6656 4.53693 22.3839 4.72585C22.1022 4.91146 21.9613 5.15175 21.9613 5.44673C21.9613 5.70194 22.0558 5.90743 22.2447 6.06321C22.4336 6.21899 22.7385 6.34659 23.1594 6.44602L24.3725 6.72443C25.0752 6.88684 25.5988 7.13707 25.9435 7.47514C26.2882 7.81321 26.4606 8.25237 26.4606 8.79261C26.4606 9.25 26.328 9.65767 26.0629 10.0156C25.801 10.3703 25.4348 10.6487 24.9641 10.8509C24.4968 11.053 23.9549 11.1541 23.3384 11.1541C22.4833 11.1541 21.7856 10.9718 21.2454 10.6072C20.7051 10.2393 20.3737 9.71733 20.2511 9.04119L21.6879 8.82244C21.7773 9.19697 21.9613 9.48035 22.2397 9.67259C22.5181 9.86151 22.881 9.95597 23.3285 9.95597C23.8157 9.95597 24.2051 9.85488 24.4968 9.6527C24.7885 9.44721 24.9343 9.19697 24.9343 8.90199C24.9343 8.66335 24.8448 8.46283 24.6658 8.30043C24.4902 8.13802 24.2201 8.01539 23.8555 7.93253L22.5629 7.64915C21.8503 7.48674 21.3233 7.22822 20.9819 6.87358C20.6438 6.51894 20.4748 6.06984 20.4748 5.52628C20.4748 5.07552 20.6007 4.68111 20.8526 4.34304C21.1045 4.00497 21.4525 3.74148 21.8967 3.55256C22.3408 3.36032 22.8496 3.2642 23.4229 3.2642C24.2482 3.2642 24.8978 3.44318 25.3718 3.80114C25.8458 4.15578 26.159 4.63139 26.3114 5.22798ZM33.8173 5.22798L32.47 5.46662C32.4136 5.29427 32.3242 5.13021 32.2015 4.97443C32.0822 4.81865 31.9198 4.69105 31.7143 4.59162C31.5088 4.49219 31.252 4.44247 30.9437 4.44247C30.5228 4.44247 30.1715 4.53693 29.8897 4.72585C29.608 4.91146 29.4672 5.15175 29.4672 5.44673C29.4672 5.70194 29.5616 5.90743 29.7505 6.06321C29.9395 6.21899 30.2444 6.34659 30.6653 6.44602L31.8784 6.72443C32.581 6.88684 33.1047 7.13707 33.4494 7.47514C33.7941 7.81321 33.9664 8.25237 33.9664 8.79261C33.9664 9.25 33.8339 9.65767 33.5687 10.0156C33.3069 10.3703 32.9406 10.6487 32.47 10.8509C32.0027 11.053 31.4608 11.1541 30.8443 11.1541C29.9892 11.1541 29.2915 10.9718 28.7512 10.6072C28.211 10.2393 27.8796 9.71733 27.7569 9.04119L29.1937 8.82244C29.2832 9.19697 29.4672 9.48035 29.7456 9.67259C30.024 9.86151 30.3869 9.95597 30.8343 9.95597C31.3216 9.95597 31.711 9.85488 32.0027 9.6527C32.2943 9.44721 32.4402 9.19697 32.4402 8.90199C32.4402 8.66335 32.3507 8.46283 32.1717 8.30043C31.996 8.13802 31.7259 8.01539 31.3613 7.93253L30.0687 7.64915C29.3561 7.48674 28.8291 7.22822 28.4877 6.87358C28.1497 6.51894 27.9806 6.06984 27.9806 5.52628C27.9806 5.07552 28.1066 4.68111 28.3585 4.34304C28.6104 4.00497 28.9584 3.74148 29.4025 3.55256C29.8467 3.36032 30.3554 3.2642 30.9288 3.2642C31.7541 3.2642 32.4037 3.44318 32.8777 3.80114C33.3516 4.15578 33.6648 4.63139 33.8173 5.22798ZM37.8232 11.169C37.3393 11.169 36.9018 11.0795 36.5107 10.9006C36.1196 10.7183 35.8097 10.4548 35.581 10.1101C35.3556 9.76539 35.2429 9.3428 35.2429 8.84233C35.2429 8.41146 35.3258 8.05682 35.4915 7.77841C35.6572 7.5 35.8809 7.27959 36.1626 7.11719C36.4444 6.95478 36.7592 6.83215 37.1072 6.74929C37.4553 6.66643 37.8099 6.60346 38.1712 6.56037C38.6286 6.50734 38.9998 6.46425 39.2848 6.43111C39.5698 6.39465 39.777 6.33665 39.9062 6.2571C40.0355 6.17756 40.1001 6.0483 40.1001 5.86932V5.83452C40.1001 5.40033 39.9775 5.06392 39.7322 4.82528C39.4903 4.58665 39.129 4.46733 38.6484 4.46733C38.148 4.46733 37.7536 4.57836 37.4652 4.80043C37.1802 5.01918 36.983 5.26278 36.8736 5.53125L35.4766 5.21307C35.6423 4.74905 35.8842 4.37453 36.2024 4.08949C36.5239 3.80114 36.8935 3.59233 37.3111 3.46307C37.7287 3.33049 38.1679 3.2642 38.6286 3.2642C38.9335 3.2642 39.2566 3.30066 39.598 3.37358C39.9427 3.44318 40.2642 3.57244 40.5625 3.76136C40.8641 3.95028 41.111 4.22041 41.3033 4.57173C41.4955 4.91974 41.5916 5.37216 41.5916 5.92898V11H40.1399V9.95597H40.0803C39.9841 10.1482 39.84 10.3371 39.6477 10.5227C39.4555 10.7083 39.2086 10.8625 38.907 10.9851C38.6054 11.1077 38.2441 11.169 37.8232 11.169ZM38.1463 9.97585C38.5573 9.97585 38.9086 9.89465 39.2003 9.73224C39.4953 9.56984 39.719 9.35772 39.8714 9.09588C40.0272 8.83073 40.1051 8.54735 40.1051 8.24574V7.26136C40.0521 7.31439 39.9493 7.36411 39.7969 7.41051C39.6477 7.4536 39.477 7.49171 39.2848 7.52486C39.0926 7.55469 38.9053 7.58286 38.723 7.60938C38.5407 7.63258 38.3883 7.65246 38.2656 7.66903C37.9773 7.70549 37.7138 7.76681 37.4751 7.85298C37.2398 7.93916 37.0509 8.06345 36.9084 8.22585C36.7692 8.38494 36.6996 8.59706 36.6996 8.86222C36.6996 9.23011 36.8355 9.50852 37.1072 9.69744C37.379 9.88305 37.7254 9.97585 38.1463 9.97585ZM46.7733 14.0227C46.1667 14.0227 45.6447 13.9432 45.2072 13.7841C44.773 13.625 44.4184 13.4145 44.1433 13.1527C43.8682 12.8909 43.6627 12.6042 43.5268 12.2926L44.8045 11.7656C44.894 11.9115 45.0133 12.0656 45.1625 12.228C45.3149 12.3937 45.5204 12.5346 45.7789 12.6506C46.0408 12.7666 46.3772 12.8246 46.7882 12.8246C47.3516 12.8246 47.8173 12.687 48.1852 12.4119C48.5531 12.1402 48.737 11.706 48.737 11.1094V9.60795H48.6426C48.5531 9.77036 48.4238 9.95099 48.2548 10.1499C48.0891 10.3487 47.8604 10.5211 47.5687 10.6669C47.277 10.8127 46.8975 10.8857 46.4302 10.8857C45.827 10.8857 45.2834 10.7448 44.7995 10.4631C44.319 10.178 43.9378 9.75876 43.6561 9.20526C43.3777 8.64844 43.2385 7.96401 43.2385 7.15199C43.2385 6.33996 43.376 5.64394 43.6511 5.06392C43.9295 4.4839 44.3107 4.03977 44.7946 3.73153C45.2785 3.41998 45.827 3.2642 46.4402 3.2642C46.9141 3.2642 47.2969 3.34375 47.5886 3.50284C47.8803 3.65862 48.1073 3.84091 48.2697 4.04972C48.4354 4.25852 48.563 4.44247 48.6525 4.60156H48.7619V3.36364H50.2186V11.169C50.2186 11.8253 50.0661 12.3639 49.7612 12.7848C49.4563 13.2057 49.0436 13.5173 48.5233 13.7195C48.0062 13.9216 47.4229 14.0227 46.7733 14.0227ZM46.7583 9.6527C47.1859 9.6527 47.5472 9.55327 47.8422 9.3544C48.1404 9.15223 48.3658 8.86387 48.5183 8.48935C48.6741 8.11151 48.752 7.65909 48.752 7.1321C48.752 6.61837 48.6757 6.16596 48.5233 5.77486C48.3708 5.38376 48.1471 5.07884 47.8521 4.86009C47.5571 4.63802 47.1925 4.52699 46.7583 4.52699C46.3109 4.52699 45.938 4.64299 45.6397 4.875C45.3414 5.10369 45.1161 5.41525 44.9636 5.80966C44.8145 6.20407 44.7399 6.64489 44.7399 7.1321C44.7399 7.63258 44.8161 8.07173 44.9686 8.44957C45.121 8.82741 45.3464 9.1224 45.6447 9.33452C45.9463 9.54664 46.3175 9.6527 46.7583 9.6527ZM55.5034 11.1541C54.751 11.1541 54.103 10.9934 53.5595 10.6719C53.0192 10.3471 52.6016 9.89134 52.3066 9.30469C52.015 8.71473 51.8691 8.02367 51.8691 7.23153C51.8691 6.44934 52.015 5.75994 52.3066 5.16335C52.6016 4.56676 53.0126 4.10109 53.5396 3.76633C54.0699 3.43158 54.6897 3.2642 55.399 3.2642C55.8298 3.2642 56.2475 3.33546 56.6518 3.47798C57.0562 3.6205 57.4191 3.84422 57.7406 4.14915C58.0621 4.45407 58.3156 4.85014 58.5012 5.33736C58.6868 5.82126 58.7797 6.40956 58.7797 7.10227V7.62926H52.7093V6.51562H57.323C57.323 6.12453 57.2434 5.77817 57.0843 5.47656C56.9252 5.17164 56.7015 4.93134 56.4132 4.75568C56.1281 4.58002 55.7934 4.49219 55.4089 4.49219C54.9913 4.49219 54.6267 4.59493 54.3152 4.80043C54.0069 5.0026 53.7683 5.26776 53.5993 5.59588C53.4335 5.92069 53.3507 6.27367 53.3507 6.65483V7.52486C53.3507 8.03527 53.4402 8.46946 53.6191 8.82741C53.8014 9.18537 54.055 9.45881 54.3798 9.64773C54.7046 9.83333 55.0841 9.92614 55.5183 9.92614C55.8 9.92614 56.0569 9.88636 56.2889 9.80682C56.5209 9.72396 56.7214 9.60133 56.8904 9.43892C57.0595 9.27652 57.1887 9.07599 57.2782 8.83736L58.6852 9.09091C58.5725 9.50521 58.3703 9.86813 58.0787 10.1797C57.7903 10.4879 57.4274 10.7282 56.9899 10.9006C56.5557 11.0696 56.0602 11.1541 55.5034 11.1541ZM64.9283 6.05327V7.34091H60.4141V6.05327H64.9283ZM67.7683 3.36364L69.4537 6.33665L71.1539 3.36364H72.7797L70.3983 7.18182L72.7995 11H71.1738L69.4537 8.14631L67.7385 11H66.1078L68.4842 7.18182L66.1376 3.36364H67.7683ZM78.4908 6.05327V7.34091H73.9766V6.05327H78.4908ZM83.6886 11.1541C82.9495 11.1541 82.3131 10.9867 81.7795 10.652C81.2492 10.3139 80.8415 9.84825 80.5565 9.25497C80.2714 8.66169 80.1289 7.98224 80.1289 7.21662C80.1289 6.44105 80.2747 5.75663 80.5664 5.16335C80.8581 4.56676 81.2691 4.10109 81.7994 3.76633C82.3297 3.43158 82.9544 3.2642 83.6737 3.2642C84.2537 3.2642 84.7707 3.37192 85.2248 3.58736C85.6789 3.79948 86.0451 4.09777 86.3235 4.48224C86.6052 4.86671 86.7726 5.31581 86.8256 5.82955H85.3789C85.2994 5.47159 85.1171 5.16335 84.832 4.90483C84.5503 4.64631 84.1725 4.51705 83.6985 4.51705C83.2842 4.51705 82.9213 4.62642 82.6097 4.84517C82.3015 5.06061 82.0612 5.36884 81.8888 5.76989C81.7165 6.16761 81.6303 6.63826 81.6303 7.18182C81.6303 7.73864 81.7148 8.21922 81.8839 8.62358C82.0529 9.02794 82.2915 9.34115 82.5998 9.56321C82.9113 9.78527 83.2776 9.89631 83.6985 9.89631C83.9802 9.89631 84.2354 9.84493 84.4641 9.74219C84.6961 9.63613 84.89 9.48532 85.0458 9.28977C85.2049 9.09422 85.3159 8.8589 85.3789 8.58381H86.8256C86.7726 9.07765 86.6119 9.51847 86.3434 9.90625C86.0749 10.294 85.7153 10.599 85.2646 10.821C84.8171 11.0431 84.2918 11.1541 83.6886 11.1541ZM88.4153 11V3.36364H89.9018V11H88.4153ZM89.166 2.18537C88.9075 2.18537 88.6854 2.09919 88.4998 1.92685C88.3175 1.75118 88.2264 1.54238 88.2264 1.30043C88.2264 1.05516 88.3175 0.846354 88.4998 0.674005C88.6854 0.498342 88.9075 0.410511 89.166 0.410511C89.4245 0.410511 89.6449 0.498342 89.8272 0.674005C90.0128 0.846354 90.1056 1.05516 90.1056 1.30043C90.1056 1.54238 90.0128 1.75118 89.8272 1.92685C89.6449 2.09919 89.4245 2.18537 89.166 2.18537ZM91.9016 11V3.36364H93.3384V4.5767H93.418C93.5572 4.16572 93.8024 3.84257 94.1538 3.60724C94.5084 3.36861 94.9094 3.24929 95.3569 3.24929C95.4497 3.24929 95.5591 3.2526 95.685 3.25923C95.8143 3.26586 95.9154 3.27415 95.9883 3.28409V4.70597C95.9286 4.68939 95.8226 4.67116 95.6701 4.65128C95.5176 4.62808 95.3652 4.61648 95.2127 4.61648C94.8614 4.61648 94.5482 4.69105 94.2731 4.8402C94.0013 4.98603 93.7859 5.18987 93.6268 5.4517C93.4677 5.71023 93.3881 6.00521 93.3881 6.33665V11H91.9016ZM100.218 11.1541C99.4788 11.1541 98.8424 10.9867 98.3088 10.652C97.7785 10.3139 97.3708 9.84825 97.0858 9.25497C96.8007 8.66169 96.6582 7.98224 96.6582 7.21662C96.6582 6.44105 96.804 5.75663 97.0957 5.16335C97.3874 4.56676 97.7984 4.10109 98.3287 3.76633C98.859 3.43158 99.4837 3.2642 100.203 3.2642C100.783 3.2642 101.3 3.37192 101.754 3.58736C102.208 3.79948 102.574 4.09777 102.853 4.48224C103.135 4.86671 103.302 5.31581 103.355 5.82955H101.908C101.829 5.47159 101.646 5.16335 101.361 4.90483C101.08 4.64631 100.702 4.51705 100.228 4.51705C99.8135 4.51705 99.4506 4.62642 99.139 4.84517C98.8308 5.06061 98.5905 5.36884 98.4181 5.76989C98.2458 6.16761 98.1596 6.63826 98.1596 7.18182C98.1596 7.73864 98.2441 8.21922 98.4132 8.62358C98.5822 9.02794 98.8208 9.34115 99.1291 9.56321C99.4406 9.78527 99.8069 9.89631 100.228 9.89631C100.51 9.89631 100.765 9.84493 100.993 9.74219C101.225 9.63613 101.419 9.48532 101.575 9.28977C101.734 9.09422 101.845 8.8589 101.908 8.58381H103.355C103.302 9.07765 103.141 9.51847 102.873 9.90625C102.604 10.294 102.245 10.599 101.794 10.821C101.346 11.0431 100.821 11.1541 100.218 11.1541ZM106.431 0.818182V11H104.945V0.818182H106.431ZM111.722 11.1541C110.97 11.1541 110.322 10.9934 109.778 10.6719C109.238 10.3471 108.82 9.89134 108.525 9.30469C108.234 8.71473 108.088 8.02367 108.088 7.23153C108.088 6.44934 108.234 5.75994 108.525 5.16335C108.82 4.56676 109.231 4.10109 109.758 3.76633C110.289 3.43158 110.908 3.2642 111.618 3.2642C112.049 3.2642 112.466 3.33546 112.871 3.47798C113.275 3.6205 113.638 3.84422 113.959 4.14915C114.281 4.45407 114.534 4.85014 114.72 5.33736C114.906 5.82126 114.998 6.40956 114.998 7.10227V7.62926H108.928V6.51562H113.542C113.542 6.12453 113.462 5.77817 113.303 5.47656C113.144 5.17164 112.92 4.93134 112.632 4.75568C112.347 4.58002 112.012 4.49219 111.628 4.49219C111.21 4.49219 110.845 4.59493 110.534 4.80043C110.226 5.0026 109.987 5.26776 109.818 5.59588C109.652 5.92069 109.569 6.27367 109.569 6.65483V7.52486C109.569 8.03527 109.659 8.46946 109.838 8.82741C110.02 9.18537 110.274 9.45881 110.599 9.64773C110.923 9.83333 111.303 9.92614 111.737 9.92614C112.019 9.92614 112.276 9.88636 112.508 9.80682C112.74 9.72396 112.94 9.60133 113.109 9.43892C113.278 9.27652 113.407 9.07599 113.497 8.83736L114.904 9.09091C114.791 9.50521 114.589 9.86813 114.297 10.1797C114.009 10.4879 113.646 10.7282 113.209 10.9006C112.774 11.0696 112.279 11.1541 111.722 11.1541Z" fill="black"/>
</svg>
