<svg width="168" height="15" viewBox="0 0 168 15" fill="none" xmlns="http://www.w3.org/2000/svg">
<path d="M-0.000710189 11V3.36364H1.42614V4.60653H1.5206C1.67969 4.18561 1.93987 3.85748 2.30114 3.62216C2.66241 3.38352 3.09493 3.2642 3.59872 3.2642C4.10914 3.2642 4.5367 3.38352 4.88139 3.62216C5.2294 3.8608 5.48627 4.18892 5.65199 4.60653H5.73153C5.91383 4.19886 6.20384 3.87405 6.60156 3.6321C6.99929 3.38684 7.47325 3.2642 8.02344 3.2642C8.71615 3.2642 9.28125 3.4813 9.71875 3.91548C10.1596 4.34967 10.38 5.00426 10.38 5.87926V11H8.89347V6.01847C8.89347 5.50142 8.7526 5.12689 8.47088 4.89489C8.18916 4.66288 7.85275 4.54688 7.46165 4.54688C6.97775 4.54688 6.60156 4.69602 6.3331 4.99432C6.06463 5.2893 5.9304 5.6688 5.9304 6.13281V11H4.44886V5.92401C4.44886 5.50971 4.3196 5.17661 4.06108 4.92472C3.80256 4.67282 3.46615 4.54688 3.05185 4.54688C2.77012 4.54688 2.50994 4.62145 2.27131 4.7706C2.03599 4.91643 1.84541 5.12026 1.69957 5.3821C1.55706 5.64394 1.4858 5.94721 1.4858 6.2919V11H-0.000710189ZM15.6635 11.1541C14.9112 11.1541 14.2632 10.9934 13.7196 10.6719C13.1794 10.3471 12.7618 9.89134 12.4668 9.30469C12.1751 8.71473 12.0293 8.02367 12.0293 7.23153C12.0293 6.44934 12.1751 5.75994 12.4668 5.16335C12.7618 4.56676 13.1728 4.10109 13.6998 3.76633C14.2301 3.43158 14.8498 3.2642 15.5591 3.2642C15.99 3.2642 16.4076 3.33546 16.812 3.47798C17.2163 3.6205 17.5792 3.84422 17.9007 4.14915C18.2222 4.45407 18.4758 4.85014 18.6614 5.33736C18.847 5.82126 18.9398 6.40956 18.9398 7.10227V7.62926H12.8695V6.51562H17.4831C17.4831 6.12453 17.4036 5.77817 17.2445 5.47656C17.0854 5.17164 16.8617 4.93134 16.5733 4.75568C16.2883 4.58002 15.9535 4.49219 15.5691 4.49219C15.1515 4.49219 14.7869 4.59493 14.4753 4.80043C14.1671 5.0026 13.9284 5.26776 13.7594 5.59588C13.5937 5.92069 13.5108 6.27367 13.5108 6.65483V7.52486C13.5108 8.03527 13.6003 8.46946 13.7793 8.82741C13.9616 9.18537 14.2151 9.45881 14.54 9.64773C14.8648 9.83333 15.2443 9.92614 15.6784 9.92614C15.9602 9.92614 16.217 9.88636 16.449 9.80682C16.681 9.72396 16.8816 9.60133 17.0506 9.43892C17.2196 9.27652 17.3489 9.07599 17.4384 8.83736L18.8453 9.09091C18.7327 9.50521 18.5305 9.86813 18.2388 10.1797C17.9505 10.4879 17.5875 10.7282 17.15 10.9006C16.7158 11.0696 16.2203 11.1541 15.6635 11.1541ZM26.3114 5.22798L24.9641 5.46662C24.9078 5.29427 24.8183 5.13021 24.6957 4.97443C24.5763 4.81865 24.4139 4.69105 24.2085 4.59162C24.003 4.49219 23.7461 4.44247 23.4379 4.44247C23.0169 4.44247 22.6656 4.53693 22.3839 4.72585C22.1022 4.91146 21.9613 5.15175 21.9613 5.44673C21.9613 5.70194 22.0558 5.90743 22.2447 6.06321C22.4336 6.21899 22.7385 6.34659 23.1594 6.44602L24.3725 6.72443C25.0752 6.88684 25.5988 7.13707 25.9435 7.47514C26.2882 7.81321 26.4606 8.25237 26.4606 8.79261C26.4606 9.25 26.328 9.65767 26.0629 10.0156C25.801 10.3703 25.4348 10.6487 24.9641 10.8509C24.4968 11.053 23.9549 11.1541 23.3384 11.1541C22.4833 11.1541 21.7856 10.9718 21.2454 10.6072C20.7051 10.2393 20.3737 9.71733 20.2511 9.04119L21.6879 8.82244C21.7773 9.19697 21.9613 9.48035 22.2397 9.67259C22.5181 9.86151 22.881 9.95597 23.3285 9.95597C23.8157 9.95597 24.2051 9.85488 24.4968 9.6527C24.7885 9.44721 24.9343 9.19697 24.9343 8.90199C24.9343 8.66335 24.8448 8.46283 24.6658 8.30043C24.4902 8.13802 24.2201 8.01539 23.8555 7.93253L22.5629 7.64915C21.8503 7.48674 21.3233 7.22822 20.9819 6.87358C20.6438 6.51894 20.4748 6.06984 20.4748 5.52628C20.4748 5.07552 20.6007 4.68111 20.8526 4.34304C21.1045 4.00497 21.4525 3.74148 21.8967 3.55256C22.3408 3.36032 22.8496 3.2642 23.4229 3.2642C24.2482 3.2642 24.8978 3.44318 25.3718 3.80114C25.8458 4.15578 26.159 4.63139 26.3114 5.22798ZM33.8173 5.22798L32.47 5.46662C32.4136 5.29427 32.3242 5.13021 32.2015 4.97443C32.0822 4.81865 31.9198 4.69105 31.7143 4.59162C31.5088 4.49219 31.252 4.44247 30.9437 4.44247C30.5228 4.44247 30.1715 4.53693 29.8897 4.72585C29.608 4.91146 29.4672 5.15175 29.4672 5.44673C29.4672 5.70194 29.5616 5.90743 29.7505 6.06321C29.9395 6.21899 30.2444 6.34659 30.6653 6.44602L31.8784 6.72443C32.581 6.88684 33.1047 7.13707 33.4494 7.47514C33.7941 7.81321 33.9664 8.25237 33.9664 8.79261C33.9664 9.25 33.8339 9.65767 33.5687 10.0156C33.3069 10.3703 32.9406 10.6487 32.47 10.8509C32.0027 11.053 31.4608 11.1541 30.8443 11.1541C29.9892 11.1541 29.2915 10.9718 28.7512 10.6072C28.211 10.2393 27.8796 9.71733 27.7569 9.04119L29.1937 8.82244C29.2832 9.19697 29.4672 9.48035 29.7456 9.67259C30.024 9.86151 30.3869 9.95597 30.8343 9.95597C31.3216 9.95597 31.711 9.85488 32.0027 9.6527C32.2943 9.44721 32.4402 9.19697 32.4402 8.90199C32.4402 8.66335 32.3507 8.46283 32.1717 8.30043C31.996 8.13802 31.7259 8.01539 31.3613 7.93253L30.0687 7.64915C29.3561 7.48674 28.8291 7.22822 28.4877 6.87358C28.1497 6.51894 27.9806 6.06984 27.9806 5.52628C27.9806 5.07552 28.1066 4.68111 28.3585 4.34304C28.6104 4.00497 28.9584 3.74148 29.4025 3.55256C29.8467 3.36032 30.3554 3.2642 30.9288 3.2642C31.7541 3.2642 32.4037 3.44318 32.8777 3.80114C33.3516 4.15578 33.6648 4.63139 33.8173 5.22798ZM37.8232 11.169C37.3393 11.169 36.9018 11.0795 36.5107 10.9006C36.1196 10.7183 35.8097 10.4548 35.581 10.1101C35.3556 9.76539 35.2429 9.3428 35.2429 8.84233C35.2429 8.41146 35.3258 8.05682 35.4915 7.77841C35.6572 7.5 35.8809 7.27959 36.1626 7.11719C36.4444 6.95478 36.7592 6.83215 37.1072 6.74929C37.4553 6.66643 37.8099 6.60346 38.1712 6.56037C38.6286 6.50734 38.9998 6.46425 39.2848 6.43111C39.5698 6.39465 39.777 6.33665 39.9062 6.2571C40.0355 6.17756 40.1001 6.0483 40.1001 5.86932V5.83452C40.1001 5.40033 39.9775 5.06392 39.7322 4.82528C39.4903 4.58665 39.129 4.46733 38.6484 4.46733C38.148 4.46733 37.7536 4.57836 37.4652 4.80043C37.1802 5.01918 36.983 5.26278 36.8736 5.53125L35.4766 5.21307C35.6423 4.74905 35.8842 4.37453 36.2024 4.08949C36.5239 3.80114 36.8935 3.59233 37.3111 3.46307C37.7287 3.33049 38.1679 3.2642 38.6286 3.2642C38.9335 3.2642 39.2566 3.30066 39.598 3.37358C39.9427 3.44318 40.2642 3.57244 40.5625 3.76136C40.8641 3.95028 41.111 4.22041 41.3033 4.57173C41.4955 4.91974 41.5916 5.37216 41.5916 5.92898V11H40.1399V9.95597H40.0803C39.9841 10.1482 39.84 10.3371 39.6477 10.5227C39.4555 10.7083 39.2086 10.8625 38.907 10.9851C38.6054 11.1077 38.2441 11.169 37.8232 11.169ZM38.1463 9.97585C38.5573 9.97585 38.9086 9.89465 39.2003 9.73224C39.4953 9.56984 39.719 9.35772 39.8714 9.09588C40.0272 8.83073 40.1051 8.54735 40.1051 8.24574V7.26136C40.0521 7.31439 39.9493 7.36411 39.7969 7.41051C39.6477 7.4536 39.477 7.49171 39.2848 7.52486C39.0926 7.55469 38.9053 7.58286 38.723 7.60938C38.5407 7.63258 38.3883 7.65246 38.2656 7.66903C37.9773 7.70549 37.7138 7.76681 37.4751 7.85298C37.2398 7.93916 37.0509 8.06345 36.9084 8.22585C36.7692 8.38494 36.6996 8.59706 36.6996 8.86222C36.6996 9.23011 36.8355 9.50852 37.1072 9.69744C37.379 9.88305 37.7254 9.97585 38.1463 9.97585ZM46.7733 14.0227C46.1667 14.0227 45.6447 13.9432 45.2072 13.7841C44.773 13.625 44.4184 13.4145 44.1433 13.1527C43.8682 12.8909 43.6627 12.6042 43.5268 12.2926L44.8045 11.7656C44.894 11.9115 45.0133 12.0656 45.1625 12.228C45.3149 12.3937 45.5204 12.5346 45.7789 12.6506C46.0408 12.7666 46.3772 12.8246 46.7882 12.8246C47.3516 12.8246 47.8173 12.687 48.1852 12.4119C48.5531 12.1402 48.737 11.706 48.737 11.1094V9.60795H48.6426C48.5531 9.77036 48.4238 9.95099 48.2548 10.1499C48.0891 10.3487 47.8604 10.5211 47.5687 10.6669C47.277 10.8127 46.8975 10.8857 46.4302 10.8857C45.827 10.8857 45.2834 10.7448 44.7995 10.4631C44.319 10.178 43.9378 9.75876 43.6561 9.20526C43.3777 8.64844 43.2385 7.96401 43.2385 7.15199C43.2385 6.33996 43.376 5.64394 43.6511 5.06392C43.9295 4.4839 44.3107 4.03977 44.7946 3.73153C45.2785 3.41998 45.827 3.2642 46.4402 3.2642C46.9141 3.2642 47.2969 3.34375 47.5886 3.50284C47.8803 3.65862 48.1073 3.84091 48.2697 4.04972C48.4354 4.25852 48.563 4.44247 48.6525 4.60156H48.7619V3.36364H50.2186V11.169C50.2186 11.8253 50.0661 12.3639 49.7612 12.7848C49.4563 13.2057 49.0436 13.5173 48.5233 13.7195C48.0062 13.9216 47.4229 14.0227 46.7733 14.0227ZM46.7583 9.6527C47.1859 9.6527 47.5472 9.55327 47.8422 9.3544C48.1404 9.15223 48.3658 8.86387 48.5183 8.48935C48.6741 8.11151 48.752 7.65909 48.752 7.1321C48.752 6.61837 48.6757 6.16596 48.5233 5.77486C48.3708 5.38376 48.1471 5.07884 47.8521 4.86009C47.5571 4.63802 47.1925 4.52699 46.7583 4.52699C46.3109 4.52699 45.938 4.64299 45.6397 4.875C45.3414 5.10369 45.1161 5.41525 44.9636 5.80966C44.8145 6.20407 44.7399 6.64489 44.7399 7.1321C44.7399 7.63258 44.8161 8.07173 44.9686 8.44957C45.121 8.82741 45.3464 9.1224 45.6447 9.33452C45.9463 9.54664 46.3175 9.6527 46.7583 9.6527ZM55.5034 11.1541C54.751 11.1541 54.103 10.9934 53.5595 10.6719C53.0192 10.3471 52.6016 9.89134 52.3066 9.30469C52.015 8.71473 51.8691 8.02367 51.8691 7.23153C51.8691 6.44934 52.015 5.75994 52.3066 5.16335C52.6016 4.56676 53.0126 4.10109 53.5396 3.76633C54.0699 3.43158 54.6897 3.2642 55.399 3.2642C55.8298 3.2642 56.2475 3.33546 56.6518 3.47798C57.0562 3.6205 57.4191 3.84422 57.7406 4.14915C58.0621 4.45407 58.3156 4.85014 58.5012 5.33736C58.6868 5.82126 58.7797 6.40956 58.7797 7.10227V7.62926H52.7093V6.51562H57.323C57.323 6.12453 57.2434 5.77817 57.0843 5.47656C56.9252 5.17164 56.7015 4.93134 56.4132 4.75568C56.1281 4.58002 55.7934 4.49219 55.4089 4.49219C54.9913 4.49219 54.6267 4.59493 54.3152 4.80043C54.0069 5.0026 53.7683 5.26776 53.5993 5.59588C53.4335 5.92069 53.3507 6.27367 53.3507 6.65483V7.52486C53.3507 8.03527 53.4402 8.46946 53.6191 8.82741C53.8014 9.18537 54.055 9.45881 54.3798 9.64773C54.7046 9.83333 55.0841 9.92614 55.5183 9.92614C55.8 9.92614 56.0569 9.88636 56.2889 9.80682C56.5209 9.72396 56.7214 9.60133 56.8904 9.43892C57.0595 9.27652 57.1887 9.07599 57.2782 8.83736L58.6852 9.09091C58.5725 9.50521 58.3703 9.86813 58.0787 10.1797C57.7903 10.4879 57.4274 10.7282 56.9899 10.9006C56.5557 11.0696 56.0602 11.1541 55.5034 11.1541ZM64.9283 6.05327V7.34091H60.4141V6.05327H64.9283ZM70.4741 3.36364V4.55682H66.3029V3.36364H70.4741ZM67.4215 1.53409H68.908V8.75781C68.908 9.04616 68.9511 9.26326 69.0373 9.40909C69.1235 9.55161 69.2345 9.64938 69.3704 9.70241C69.5096 9.75213 69.6604 9.77699 69.8228 9.77699C69.9421 9.77699 70.0465 9.7687 70.136 9.75213C70.2255 9.73556 70.2951 9.7223 70.3448 9.71236L70.6133 10.9403C70.5271 10.9735 70.4045 11.0066 70.2454 11.0398C70.0863 11.0762 69.8874 11.0961 69.6488 11.0994C69.2577 11.1061 68.8931 11.0365 68.555 10.8906C68.217 10.7448 67.9435 10.5194 67.7347 10.2145C67.5259 9.90956 67.4215 9.52675 67.4215 9.06605V1.53409ZM75.3276 11.1541C74.5752 11.1541 73.9273 10.9934 73.3837 10.6719C72.8435 10.3471 72.4258 9.89134 72.1309 9.30469C71.8392 8.71473 71.6934 8.02367 71.6934 7.23153C71.6934 6.44934 71.8392 5.75994 72.1309 5.16335C72.4258 4.56676 72.8368 4.10109 73.3638 3.76633C73.8941 3.43158 74.5139 3.2642 75.2232 3.2642C75.6541 3.2642 76.0717 3.33546 76.476 3.47798C76.8804 3.6205 77.2433 3.84422 77.5648 4.14915C77.8863 4.45407 78.1399 4.85014 78.3255 5.33736C78.5111 5.82126 78.6039 6.40956 78.6039 7.10227V7.62926H72.5336V6.51562H77.1472C77.1472 6.12453 77.0676 5.77817 76.9086 5.47656C76.7495 5.17164 76.5257 4.93134 76.2374 4.75568C75.9524 4.58002 75.6176 4.49219 75.2331 4.49219C74.8155 4.49219 74.4509 4.59493 74.1394 4.80043C73.8311 5.0026 73.5925 5.26776 73.4235 5.59588C73.2578 5.92069 73.1749 6.27367 73.1749 6.65483V7.52486C73.1749 8.03527 73.2644 8.46946 73.4434 8.82741C73.6257 9.18537 73.8792 9.45881 74.204 9.64773C74.5288 9.83333 74.9083 9.92614 75.3425 9.92614C75.6242 9.92614 75.8811 9.88636 76.1131 9.80682C76.3451 9.72396 76.5456 9.60133 76.7147 9.43892C76.8837 9.27652 77.013 9.07599 77.1025 8.83736L78.5094 9.09091C78.3967 9.50521 78.1945 9.86813 77.9029 10.1797C77.6145 10.4879 77.2516 10.7282 76.8141 10.9006C76.3799 11.0696 75.8844 11.1541 75.3276 11.1541ZM81.2488 3.36364L82.9341 6.33665L84.6344 3.36364H86.2601L83.8787 7.18182L86.28 11H84.6543L82.9341 8.14631L81.2189 11H79.5882L81.9647 7.18182L79.6181 3.36364H81.2488ZM91.351 3.36364V4.55682H87.1799V3.36364H91.351ZM88.2985 1.53409H89.785V8.75781C89.785 9.04616 89.8281 9.26326 89.9142 9.40909C90.0004 9.55161 90.1114 9.64938 90.2473 9.70241C90.3865 9.75213 90.5373 9.77699 90.6998 9.77699C90.8191 9.77699 90.9235 9.7687 91.013 9.75213C91.1025 9.73556 91.1721 9.7223 91.2218 9.71236L91.4902 10.9403C91.4041 10.9735 91.2814 11.0066 91.1223 11.0398C90.9632 11.0762 90.7644 11.0961 90.5257 11.0994C90.1346 11.1061 89.7701 11.0365 89.432 10.8906C89.0939 10.7448 88.8205 10.5194 88.6117 10.2145C88.4029 9.90956 88.2985 9.52675 88.2985 9.06605V1.53409ZM97.2349 6.05327V7.34091H92.7207V6.05327H97.2349ZM104.938 5.22798L103.591 5.46662C103.535 5.29427 103.445 5.13021 103.323 4.97443C103.203 4.81865 103.041 4.69105 102.835 4.59162C102.63 4.49219 102.373 4.44247 102.065 4.44247C101.644 4.44247 101.293 4.53693 101.011 4.72585C100.729 4.91146 100.588 5.15175 100.588 5.44673C100.588 5.70194 100.683 5.90743 100.872 6.06321C101.061 6.21899 101.365 6.34659 101.786 6.44602L102.999 6.72443C103.702 6.88684 104.226 7.13707 104.57 7.47514C104.915 7.81321 105.088 8.25237 105.088 8.79261C105.088 9.25 104.955 9.65767 104.69 10.0156C104.428 10.3703 104.062 10.6487 103.591 10.8509C103.124 11.053 102.582 11.1541 101.965 11.1541C101.11 11.1541 100.413 10.9718 99.8723 10.6072C99.3321 10.2393 99.0007 9.71733 98.878 9.04119L100.315 8.82244C100.404 9.19697 100.588 9.48035 100.867 9.67259C101.145 9.86151 101.508 9.95597 101.955 9.95597C102.443 9.95597 102.832 9.85488 103.124 9.6527C103.415 9.44721 103.561 9.19697 103.561 8.90199C103.561 8.66335 103.472 8.46283 103.293 8.30043C103.117 8.13802 102.847 8.01539 102.482 7.93253L101.19 7.64915C100.477 7.48674 99.9502 7.22822 99.6088 6.87358C99.2708 6.51894 99.1017 6.06984 99.1017 5.52628C99.1017 5.07552 99.2277 4.68111 99.4796 4.34304C99.7315 4.00497 100.079 3.74148 100.524 3.55256C100.968 3.36032 101.477 3.2642 102.05 3.2642C102.875 3.2642 103.525 3.44318 103.999 3.80114C104.473 4.15578 104.786 4.63139 104.938 5.22798ZM111.877 13.8636V9.81179H111.788C111.699 9.9742 111.569 10.1598 111.4 10.3686C111.234 10.5774 111.006 10.7597 110.714 10.9155C110.422 11.0713 110.045 11.1491 109.581 11.1491C108.964 11.1491 108.414 10.9917 107.93 10.6768C107.449 10.3587 107.072 9.90625 106.797 9.3196C106.525 8.72964 106.389 8.02202 106.389 7.19673C106.389 6.37145 106.526 5.66548 106.801 5.07884C107.08 4.49219 107.461 4.04309 107.945 3.73153C108.429 3.41998 108.977 3.2642 109.591 3.2642C110.065 3.2642 110.446 3.34375 110.734 3.50284C111.026 3.65862 111.251 3.84091 111.41 4.04972C111.573 4.25852 111.699 4.44247 111.788 4.60156H111.912V3.36364H113.364V13.8636H111.877ZM109.909 9.88139C110.336 9.88139 110.698 9.7687 110.993 9.54332C111.291 9.31463 111.516 8.99811 111.669 8.59375C111.824 8.18939 111.902 7.71875 111.902 7.18182C111.902 6.65151 111.826 6.1875 111.674 5.78977C111.521 5.39205 111.297 5.08215 111.002 4.86009C110.708 4.63802 110.343 4.52699 109.909 4.52699C109.461 4.52699 109.088 4.64299 108.79 4.875C108.492 5.10701 108.266 5.42353 108.114 5.82457C107.965 6.22562 107.89 6.67803 107.89 7.18182C107.89 7.69223 107.967 8.15128 108.119 8.55895C108.271 8.96662 108.497 9.28977 108.795 9.52841C109.097 9.76373 109.468 9.88139 109.909 9.88139ZM120.2 7.8331V3.36364H121.691V11H120.23V9.67756H120.15C119.975 10.0852 119.693 10.425 119.305 10.6967C118.921 10.9652 118.442 11.0994 117.868 11.0994C117.378 11.0994 116.944 10.9917 116.566 10.7763C116.191 10.5575 115.896 10.2344 115.681 9.80682C115.469 9.37926 115.363 8.85062 115.363 8.22088V3.36364H116.849V8.0419C116.849 8.56226 116.993 8.97656 117.282 9.2848C117.57 9.59304 117.944 9.74716 118.405 9.74716C118.684 9.74716 118.96 9.67756 119.235 9.53835C119.514 9.39915 119.744 9.18868 119.926 8.90696C120.112 8.62524 120.203 8.26728 120.2 7.8331ZM125.911 11.169C125.427 11.169 124.99 11.0795 124.599 10.9006C124.207 10.7183 123.898 10.4548 123.669 10.1101C123.443 9.76539 123.331 9.3428 123.331 8.84233C123.331 8.41146 123.414 8.05682 123.579 7.77841C123.745 7.5 123.969 7.27959 124.251 7.11719C124.532 6.95478 124.847 6.83215 125.195 6.74929C125.543 6.66643 125.898 6.60346 126.259 6.56037C126.716 6.50734 127.088 6.46425 127.373 6.43111C127.658 6.39465 127.865 6.33665 127.994 6.2571C128.123 6.17756 128.188 6.0483 128.188 5.86932V5.83452C128.188 5.40033 128.065 5.06392 127.82 4.82528C127.578 4.58665 127.217 4.46733 126.736 4.46733C126.236 4.46733 125.841 4.57836 125.553 4.80043C125.268 5.01918 125.071 5.26278 124.961 5.53125L123.564 5.21307C123.73 4.74905 123.972 4.37453 124.29 4.08949C124.612 3.80114 124.981 3.59233 125.399 3.46307C125.817 3.33049 126.256 3.2642 126.716 3.2642C127.021 3.2642 127.345 3.30066 127.686 3.37358C128.031 3.44318 128.352 3.57244 128.65 3.76136C128.952 3.95028 129.199 4.22041 129.391 4.57173C129.583 4.91974 129.68 5.37216 129.68 5.92898V11H128.228V9.95597H128.168C128.072 10.1482 127.928 10.3371 127.736 10.5227C127.543 10.7083 127.296 10.8625 126.995 10.9851C126.693 11.1077 126.332 11.169 125.911 11.169ZM126.234 9.97585C126.645 9.97585 126.997 9.89465 127.288 9.73224C127.583 9.56984 127.807 9.35772 127.959 9.09588C128.115 8.83073 128.193 8.54735 128.193 8.24574V7.26136C128.14 7.31439 128.037 7.36411 127.885 7.41051C127.736 7.4536 127.565 7.49171 127.373 7.52486C127.18 7.55469 126.993 7.58286 126.811 7.60938C126.629 7.63258 126.476 7.65246 126.354 7.66903C126.065 7.70549 125.802 7.76681 125.563 7.85298C125.328 7.93916 125.139 8.06345 124.996 8.22585C124.857 8.38494 124.787 8.59706 124.787 8.86222C124.787 9.23011 124.923 9.50852 125.195 9.69744C125.467 9.88305 125.813 9.97585 126.234 9.97585ZM131.659 11V3.36364H133.096V4.5767H133.176C133.315 4.16572 133.56 3.84257 133.912 3.60724C134.266 3.36861 134.667 3.24929 135.115 3.24929C135.208 3.24929 135.317 3.2526 135.443 3.25923C135.572 3.26586 135.673 3.27415 135.746 3.28409V4.70597C135.686 4.68939 135.58 4.67116 135.428 4.65128C135.275 4.62808 135.123 4.61648 134.971 4.61648C134.619 4.61648 134.306 4.69105 134.031 4.8402C133.759 4.98603 133.544 5.18987 133.385 5.4517C133.225 5.71023 133.146 6.00521 133.146 6.33665V11H131.659ZM140.05 11.1541C139.298 11.1541 138.65 10.9934 138.106 10.6719C137.566 10.3471 137.148 9.89134 136.854 9.30469C136.562 8.71473 136.416 8.02367 136.416 7.23153C136.416 6.44934 136.562 5.75994 136.854 5.16335C137.148 4.56676 137.559 4.10109 138.086 3.76633C138.617 3.43158 139.237 3.2642 139.946 3.2642C140.377 3.2642 140.794 3.33546 141.199 3.47798C141.603 3.6205 141.966 3.84422 142.287 4.14915C142.609 4.45407 142.863 4.85014 143.048 5.33736C143.234 5.82126 143.327 6.40956 143.327 7.10227V7.62926H137.256V6.51562H141.87C141.87 6.12453 141.79 5.77817 141.631 5.47656C141.472 5.17164 141.248 4.93134 140.96 4.75568C140.675 4.58002 140.34 4.49219 139.956 4.49219C139.538 4.49219 139.174 4.59493 138.862 4.80043C138.554 5.0026 138.315 5.26776 138.146 5.59588C137.98 5.92069 137.898 6.27367 137.898 6.65483V7.52486C137.898 8.03527 137.987 8.46946 138.166 8.82741C138.348 9.18537 138.602 9.45881 138.927 9.64773C139.251 9.83333 139.631 9.92614 140.065 9.92614C140.347 9.92614 140.604 9.88636 140.836 9.80682C141.068 9.72396 141.268 9.60133 141.437 9.43892C141.606 9.27652 141.736 9.07599 141.825 8.83736L143.232 9.09091C143.119 9.50521 142.917 9.86813 142.626 10.1797C142.337 10.4879 141.974 10.7282 141.537 10.9006C141.103 11.0696 140.607 11.1541 140.05 11.1541ZM149.475 6.05327V7.34091H144.961V6.05327H149.475ZM154.981 11.169C154.196 11.1657 153.525 10.9586 152.968 10.5476C152.411 10.1366 151.985 9.53835 151.69 8.75284C151.395 7.96733 151.248 7.02107 151.248 5.91406C151.248 4.81037 151.395 3.86742 151.69 3.08523C151.988 2.30303 152.416 1.70644 152.973 1.29545C153.533 0.884469 154.202 0.678977 154.981 0.678977C155.76 0.678977 156.428 0.886126 156.985 1.30043C157.542 1.71141 157.967 2.308 158.262 3.0902C158.561 3.86908 158.71 4.81037 158.71 5.91406C158.71 7.02438 158.562 7.9723 158.267 8.75781C157.972 9.54001 157.547 10.1383 156.99 10.5526C156.433 10.9635 155.763 11.169 154.981 11.169ZM154.981 9.84162C155.671 9.84162 156.209 9.50521 156.597 8.83239C156.988 8.15956 157.184 7.18679 157.184 5.91406C157.184 5.06889 157.094 4.35464 156.915 3.77131C156.739 3.18466 156.486 2.74053 156.154 2.43892C155.826 2.134 155.435 1.98153 154.981 1.98153C154.295 1.98153 153.757 2.3196 153.365 2.99574C152.974 3.67187 152.777 4.64465 152.774 5.91406C152.774 6.76255 152.862 7.48011 153.037 8.06676C153.216 8.65009 153.47 9.09257 153.798 9.39418C154.126 9.69247 154.52 9.84162 154.981 9.84162ZM160.474 11V9.88636L163.919 6.31676C164.287 5.92898 164.59 5.58925 164.829 5.29759C165.071 5.0026 165.251 4.72254 165.371 4.45739C165.49 4.19223 165.55 3.91051 165.55 3.61222C165.55 3.27415 165.47 2.98248 165.311 2.73722C165.152 2.48864 164.935 2.29806 164.66 2.16548C164.385 2.02959 164.075 1.96165 163.73 1.96165C163.365 1.96165 163.047 2.03622 162.775 2.18537C162.504 2.33452 162.295 2.54498 162.149 2.81676C162.003 3.08854 161.93 3.40672 161.93 3.77131H160.464C160.464 3.15151 160.606 2.60961 160.891 2.1456C161.176 1.68158 161.567 1.32197 162.064 1.06676C162.562 0.808238 163.127 0.678977 163.76 0.678977C164.399 0.678977 164.963 0.806581 165.45 1.06179C165.941 1.31368 166.323 1.65838 166.599 2.09588C166.874 2.53007 167.011 3.0206 167.011 3.56747C167.011 3.94531 166.94 4.31487 166.797 4.67614C166.658 5.0374 166.415 5.4401 166.067 5.88423C165.719 6.32505 165.235 6.86032 164.615 7.49006L162.591 9.60795V9.68253H167.175V11H160.474Z" fill="black"/>
</svg>
