<svg width="143" height="15" viewBox="0 0 143 15" fill="none" xmlns="http://www.w3.org/2000/svg">
<path d="M-0.000710189 11V3.36364H1.42614V4.60653H1.5206C1.67969 4.18561 1.93987 3.85748 2.30114 3.62216C2.66241 3.38352 3.09493 3.2642 3.59872 3.2642C4.10914 3.2642 4.5367 3.38352 4.88139 3.62216C5.2294 3.8608 5.48627 4.18892 5.65199 4.60653H5.73153C5.91383 4.19886 6.20384 3.87405 6.60156 3.6321C6.99929 3.38684 7.47325 3.2642 8.02344 3.2642C8.71615 3.2642 9.28125 3.4813 9.71875 3.91548C10.1596 4.34967 10.38 5.00426 10.38 5.87926V11H8.89347V6.01847C8.89347 5.50142 8.7526 5.12689 8.47088 4.89489C8.18916 4.66288 7.85275 4.54688 7.46165 4.54688C6.97775 4.54688 6.60156 4.69602 6.3331 4.99432C6.06463 5.2893 5.9304 5.6688 5.9304 6.13281V11H4.44886V5.92401C4.44886 5.50971 4.3196 5.17661 4.06108 4.92472C3.80256 4.67282 3.46615 4.54688 3.05185 4.54688C2.77012 4.54688 2.50994 4.62145 2.27131 4.7706C2.03599 4.91643 1.84541 5.12026 1.69957 5.3821C1.55706 5.64394 1.4858 5.94721 1.4858 6.2919V11H-0.000710189ZM15.6635 11.1541C14.9112 11.1541 14.2632 10.9934 13.7196 10.6719C13.1794 10.3471 12.7618 9.89134 12.4668 9.30469C12.1751 8.71473 12.0293 8.02367 12.0293 7.23153C12.0293 6.44934 12.1751 5.75994 12.4668 5.16335C12.7618 4.56676 13.1728 4.10109 13.6998 3.76633C14.2301 3.43158 14.8498 3.2642 15.5591 3.2642C15.99 3.2642 16.4076 3.33546 16.812 3.47798C17.2163 3.6205 17.5792 3.84422 17.9007 4.14915C18.2222 4.45407 18.4758 4.85014 18.6614 5.33736C18.847 5.82126 18.9398 6.40956 18.9398 7.10227V7.62926H12.8695V6.51562H17.4831C17.4831 6.12453 17.4036 5.77817 17.2445 5.47656C17.0854 5.17164 16.8617 4.93134 16.5733 4.75568C16.2883 4.58002 15.9535 4.49219 15.5691 4.49219C15.1515 4.49219 14.7869 4.59493 14.4753 4.80043C14.1671 5.0026 13.9284 5.26776 13.7594 5.59588C13.5937 5.92069 13.5108 6.27367 13.5108 6.65483V7.52486C13.5108 8.03527 13.6003 8.46946 13.7793 8.82741C13.9616 9.18537 14.2151 9.45881 14.54 9.64773C14.8648 9.83333 15.2443 9.92614 15.6784 9.92614C15.9602 9.92614 16.217 9.88636 16.449 9.80682C16.681 9.72396 16.8816 9.60133 17.0506 9.43892C17.2196 9.27652 17.3489 9.07599 17.4384 8.83736L18.8453 9.09091C18.7327 9.50521 18.5305 9.86813 18.2388 10.1797C17.9505 10.4879 17.5875 10.7282 17.15 10.9006C16.7158 11.0696 16.2203 11.1541 15.6635 11.1541ZM26.3114 5.22798L24.9641 5.46662C24.9078 5.29427 24.8183 5.13021 24.6957 4.97443C24.5763 4.81865 24.4139 4.69105 24.2085 4.59162C24.003 4.49219 23.7461 4.44247 23.4379 4.44247C23.0169 4.44247 22.6656 4.53693 22.3839 4.72585C22.1022 4.91146 21.9613 5.15175 21.9613 5.44673C21.9613 5.70194 22.0558 5.90743 22.2447 6.06321C22.4336 6.21899 22.7385 6.34659 23.1594 6.44602L24.3725 6.72443C25.0752 6.88684 25.5988 7.13707 25.9435 7.47514C26.2882 7.81321 26.4606 8.25237 26.4606 8.79261C26.4606 9.25 26.328 9.65767 26.0629 10.0156C25.801 10.3703 25.4348 10.6487 24.9641 10.8509C24.4968 11.053 23.9549 11.1541 23.3384 11.1541C22.4833 11.1541 21.7856 10.9718 21.2454 10.6072C20.7051 10.2393 20.3737 9.71733 20.2511 9.04119L21.6879 8.82244C21.7773 9.19697 21.9613 9.48035 22.2397 9.67259C22.5181 9.86151 22.881 9.95597 23.3285 9.95597C23.8157 9.95597 24.2051 9.85488 24.4968 9.6527C24.7885 9.44721 24.9343 9.19697 24.9343 8.90199C24.9343 8.66335 24.8448 8.46283 24.6658 8.30043C24.4902 8.13802 24.2201 8.01539 23.8555 7.93253L22.5629 7.64915C21.8503 7.48674 21.3233 7.22822 20.9819 6.87358C20.6438 6.51894 20.4748 6.06984 20.4748 5.52628C20.4748 5.07552 20.6007 4.68111 20.8526 4.34304C21.1045 4.00497 21.4525 3.74148 21.8967 3.55256C22.3408 3.36032 22.8496 3.2642 23.4229 3.2642C24.2482 3.2642 24.8978 3.44318 25.3718 3.80114C25.8458 4.15578 26.159 4.63139 26.3114 5.22798ZM33.8173 5.22798L32.47 5.46662C32.4136 5.29427 32.3242 5.13021 32.2015 4.97443C32.0822 4.81865 31.9198 4.69105 31.7143 4.59162C31.5088 4.49219 31.252 4.44247 30.9437 4.44247C30.5228 4.44247 30.1715 4.53693 29.8897 4.72585C29.608 4.91146 29.4672 5.15175 29.4672 5.44673C29.4672 5.70194 29.5616 5.90743 29.7505 6.06321C29.9395 6.21899 30.2444 6.34659 30.6653 6.44602L31.8784 6.72443C32.581 6.88684 33.1047 7.13707 33.4494 7.47514C33.7941 7.81321 33.9664 8.25237 33.9664 8.79261C33.9664 9.25 33.8339 9.65767 33.5687 10.0156C33.3069 10.3703 32.9406 10.6487 32.47 10.8509C32.0027 11.053 31.4608 11.1541 30.8443 11.1541C29.9892 11.1541 29.2915 10.9718 28.7512 10.6072C28.211 10.2393 27.8796 9.71733 27.7569 9.04119L29.1937 8.82244C29.2832 9.19697 29.4672 9.48035 29.7456 9.67259C30.024 9.86151 30.3869 9.95597 30.8343 9.95597C31.3216 9.95597 31.711 9.85488 32.0027 9.6527C32.2943 9.44721 32.4402 9.19697 32.4402 8.90199C32.4402 8.66335 32.3507 8.46283 32.1717 8.30043C31.996 8.13802 31.7259 8.01539 31.3613 7.93253L30.0687 7.64915C29.3561 7.48674 28.8291 7.22822 28.4877 6.87358C28.1497 6.51894 27.9806 6.06984 27.9806 5.52628C27.9806 5.07552 28.1066 4.68111 28.3585 4.34304C28.6104 4.00497 28.9584 3.74148 29.4025 3.55256C29.8467 3.36032 30.3554 3.2642 30.9288 3.2642C31.7541 3.2642 32.4037 3.44318 32.8777 3.80114C33.3516 4.15578 33.6648 4.63139 33.8173 5.22798ZM37.8232 11.169C37.3393 11.169 36.9018 11.0795 36.5107 10.9006C36.1196 10.7183 35.8097 10.4548 35.581 10.1101C35.3556 9.76539 35.2429 9.3428 35.2429 8.84233C35.2429 8.41146 35.3258 8.05682 35.4915 7.77841C35.6572 7.5 35.8809 7.27959 36.1626 7.11719C36.4444 6.95478 36.7592 6.83215 37.1072 6.74929C37.4553 6.66643 37.8099 6.60346 38.1712 6.56037C38.6286 6.50734 38.9998 6.46425 39.2848 6.43111C39.5698 6.39465 39.777 6.33665 39.9062 6.2571C40.0355 6.17756 40.1001 6.0483 40.1001 5.86932V5.83452C40.1001 5.40033 39.9775 5.06392 39.7322 4.82528C39.4903 4.58665 39.129 4.46733 38.6484 4.46733C38.148 4.46733 37.7536 4.57836 37.4652 4.80043C37.1802 5.01918 36.983 5.26278 36.8736 5.53125L35.4766 5.21307C35.6423 4.74905 35.8842 4.37453 36.2024 4.08949C36.5239 3.80114 36.8935 3.59233 37.3111 3.46307C37.7287 3.33049 38.1679 3.2642 38.6286 3.2642C38.9335 3.2642 39.2566 3.30066 39.598 3.37358C39.9427 3.44318 40.2642 3.57244 40.5625 3.76136C40.8641 3.95028 41.111 4.22041 41.3033 4.57173C41.4955 4.91974 41.5916 5.37216 41.5916 5.92898V11H40.1399V9.95597H40.0803C39.9841 10.1482 39.84 10.3371 39.6477 10.5227C39.4555 10.7083 39.2086 10.8625 38.907 10.9851C38.6054 11.1077 38.2441 11.169 37.8232 11.169ZM38.1463 9.97585C38.5573 9.97585 38.9086 9.89465 39.2003 9.73224C39.4953 9.56984 39.719 9.35772 39.8714 9.09588C40.0272 8.83073 40.1051 8.54735 40.1051 8.24574V7.26136C40.0521 7.31439 39.9493 7.36411 39.7969 7.41051C39.6477 7.4536 39.477 7.49171 39.2848 7.52486C39.0926 7.55469 38.9053 7.58286 38.723 7.60938C38.5407 7.63258 38.3883 7.65246 38.2656 7.66903C37.9773 7.70549 37.7138 7.76681 37.4751 7.85298C37.2398 7.93916 37.0509 8.06345 36.9084 8.22585C36.7692 8.38494 36.6996 8.59706 36.6996 8.86222C36.6996 9.23011 36.8355 9.50852 37.1072 9.69744C37.379 9.88305 37.7254 9.97585 38.1463 9.97585ZM46.7733 14.0227C46.1667 14.0227 45.6447 13.9432 45.2072 13.7841C44.773 13.625 44.4184 13.4145 44.1433 13.1527C43.8682 12.8909 43.6627 12.6042 43.5268 12.2926L44.8045 11.7656C44.894 11.9115 45.0133 12.0656 45.1625 12.228C45.3149 12.3937 45.5204 12.5346 45.7789 12.6506C46.0408 12.7666 46.3772 12.8246 46.7882 12.8246C47.3516 12.8246 47.8173 12.687 48.1852 12.4119C48.5531 12.1402 48.737 11.706 48.737 11.1094V9.60795H48.6426C48.5531 9.77036 48.4238 9.95099 48.2548 10.1499C48.0891 10.3487 47.8604 10.5211 47.5687 10.6669C47.277 10.8127 46.8975 10.8857 46.4302 10.8857C45.827 10.8857 45.2834 10.7448 44.7995 10.4631C44.319 10.178 43.9378 9.75876 43.6561 9.20526C43.3777 8.64844 43.2385 7.96401 43.2385 7.15199C43.2385 6.33996 43.376 5.64394 43.6511 5.06392C43.9295 4.4839 44.3107 4.03977 44.7946 3.73153C45.2785 3.41998 45.827 3.2642 46.4402 3.2642C46.9141 3.2642 47.2969 3.34375 47.5886 3.50284C47.8803 3.65862 48.1073 3.84091 48.2697 4.04972C48.4354 4.25852 48.563 4.44247 48.6525 4.60156H48.7619V3.36364H50.2186V11.169C50.2186 11.8253 50.0661 12.3639 49.7612 12.7848C49.4563 13.2057 49.0436 13.5173 48.5233 13.7195C48.0062 13.9216 47.4229 14.0227 46.7733 14.0227ZM46.7583 9.6527C47.1859 9.6527 47.5472 9.55327 47.8422 9.3544C48.1404 9.15223 48.3658 8.86387 48.5183 8.48935C48.6741 8.11151 48.752 7.65909 48.752 7.1321C48.752 6.61837 48.6757 6.16596 48.5233 5.77486C48.3708 5.38376 48.1471 5.07884 47.8521 4.86009C47.5571 4.63802 47.1925 4.52699 46.7583 4.52699C46.3109 4.52699 45.938 4.64299 45.6397 4.875C45.3414 5.10369 45.1161 5.41525 44.9636 5.80966C44.8145 6.20407 44.7399 6.64489 44.7399 7.1321C44.7399 7.63258 44.8161 8.07173 44.9686 8.44957C45.121 8.82741 45.3464 9.1224 45.6447 9.33452C45.9463 9.54664 46.3175 9.6527 46.7583 9.6527ZM55.5034 11.1541C54.751 11.1541 54.103 10.9934 53.5595 10.6719C53.0192 10.3471 52.6016 9.89134 52.3066 9.30469C52.015 8.71473 51.8691 8.02367 51.8691 7.23153C51.8691 6.44934 52.015 5.75994 52.3066 5.16335C52.6016 4.56676 53.0126 4.10109 53.5396 3.76633C54.0699 3.43158 54.6897 3.2642 55.399 3.2642C55.8298 3.2642 56.2475 3.33546 56.6518 3.47798C57.0562 3.6205 57.4191 3.84422 57.7406 4.14915C58.0621 4.45407 58.3156 4.85014 58.5012 5.33736C58.6868 5.82126 58.7797 6.40956 58.7797 7.10227V7.62926H52.7093V6.51562H57.323C57.323 6.12453 57.2434 5.77817 57.0843 5.47656C56.9252 5.17164 56.7015 4.93134 56.4132 4.75568C56.1281 4.58002 55.7934 4.49219 55.4089 4.49219C54.9913 4.49219 54.6267 4.59493 54.3152 4.80043C54.0069 5.0026 53.7683 5.26776 53.5993 5.59588C53.4335 5.92069 53.3507 6.27367 53.3507 6.65483V7.52486C53.3507 8.03527 53.4402 8.46946 53.6191 8.82741C53.8014 9.18537 54.055 9.45881 54.3798 9.64773C54.7046 9.83333 55.0841 9.92614 55.5183 9.92614C55.8 9.92614 56.0569 9.88636 56.2889 9.80682C56.5209 9.72396 56.7214 9.60133 56.8904 9.43892C57.0595 9.27652 57.1887 9.07599 57.2782 8.83736L58.6852 9.09091C58.5725 9.50521 58.3703 9.86813 58.0787 10.1797C57.7903 10.4879 57.4274 10.7282 56.9899 10.9006C56.5557 11.0696 56.0602 11.1541 55.5034 11.1541ZM64.9283 6.05327V7.34091H60.4141V6.05327H64.9283ZM72.6317 5.22798L71.2844 5.46662C71.2281 5.29427 71.1386 5.13021 71.016 4.97443C70.8967 4.81865 70.7343 4.69105 70.5288 4.59162C70.3233 4.49219 70.0664 4.44247 69.7582 4.44247C69.3372 4.44247 68.9859 4.53693 68.7042 4.72585C68.4225 4.91146 68.2816 5.15175 68.2816 5.44673C68.2816 5.70194 68.3761 5.90743 68.565 6.06321C68.7539 6.21899 69.0588 6.34659 69.4798 6.44602L70.6928 6.72443C71.3955 6.88684 71.9192 7.13707 72.2638 7.47514C72.6085 7.81321 72.7809 8.25237 72.7809 8.79261C72.7809 9.25 72.6483 9.65767 72.3832 10.0156C72.1213 10.3703 71.7551 10.6487 71.2844 10.8509C70.8171 11.053 70.2752 11.1541 69.6587 11.1541C68.8036 11.1541 68.1059 10.9718 67.5657 10.6072C67.0254 10.2393 66.694 9.71733 66.5714 9.04119L68.0082 8.82244C68.0977 9.19697 68.2816 9.48035 68.56 9.67259C68.8384 9.86151 69.2013 9.95597 69.6488 9.95597C70.136 9.95597 70.5254 9.85488 70.8171 9.6527C71.1088 9.44721 71.2546 9.19697 71.2546 8.90199C71.2546 8.66335 71.1651 8.46283 70.9862 8.30043C70.8105 8.13802 70.5404 8.01539 70.1758 7.93253L68.8832 7.64915C68.1706 7.48674 67.6436 7.22822 67.3022 6.87358C66.9641 6.51894 66.7951 6.06984 66.7951 5.52628C66.7951 5.07552 66.921 4.68111 67.1729 4.34304C67.4248 4.00497 67.7728 3.74148 68.217 3.55256C68.6611 3.36032 69.1699 3.2642 69.7433 3.2642C70.5685 3.2642 71.2182 3.44318 71.6921 3.80114C72.1661 4.15578 72.4793 4.63139 72.6317 5.22798ZM74.4153 11V3.36364H75.8422V4.60653H75.9366C76.0957 4.18561 76.3559 3.85748 76.7172 3.62216C77.0784 3.38352 77.5109 3.2642 78.0147 3.2642C78.5252 3.2642 78.9527 3.38352 79.2974 3.62216C79.6454 3.8608 79.9023 4.18892 80.068 4.60653H80.1475C80.3298 4.19886 80.6199 3.87405 81.0176 3.6321C81.4153 3.38684 81.8893 3.2642 82.4395 3.2642C83.1322 3.2642 83.6973 3.4813 84.1348 3.91548C84.5756 4.34967 84.796 5.00426 84.796 5.87926V11H83.3095V6.01847C83.3095 5.50142 83.1686 5.12689 82.8869 4.89489C82.6052 4.66288 82.2688 4.54688 81.8777 4.54688C81.3938 4.54688 81.0176 4.69602 80.7491 4.99432C80.4806 5.2893 80.3464 5.6688 80.3464 6.13281V11H78.8649V5.92401C78.8649 5.50971 78.7356 5.17661 78.4771 4.92472C78.2186 4.67282 77.8822 4.54688 77.4679 4.54688C77.1861 4.54688 76.926 4.62145 76.6873 4.7706C76.452 4.91643 76.2614 5.12026 76.1156 5.3821C75.9731 5.64394 75.9018 5.94721 75.9018 6.2919V11H74.4153ZM86.7884 11V3.36364H88.2749V11H86.7884ZM87.5391 2.18537C87.2805 2.18537 87.0585 2.09919 86.8729 1.92685C86.6906 1.75118 86.5994 1.54238 86.5994 1.30043C86.5994 1.05516 86.6906 0.846354 86.8729 0.674005C87.0585 0.498342 87.2805 0.410511 87.5391 0.410511C87.7976 0.410511 88.018 0.498342 88.2003 0.674005C88.3859 0.846354 88.4787 1.05516 88.4787 1.30043C88.4787 1.54238 88.3859 1.75118 88.2003 1.92685C88.018 2.09919 87.7976 2.18537 87.5391 2.18537ZM91.7612 0.818182V11H90.2747V0.818182H91.7612ZM97.0522 11.1541C96.2998 11.1541 95.6519 10.9934 95.1083 10.6719C94.5681 10.3471 94.1504 9.89134 93.8555 9.30469C93.5638 8.71473 93.418 8.02367 93.418 7.23153C93.418 6.44934 93.5638 5.75994 93.8555 5.16335C94.1504 4.56676 94.5614 4.10109 95.0884 3.76633C95.6187 3.43158 96.2385 3.2642 96.9478 3.2642C97.3787 3.2642 97.7963 3.33546 98.2006 3.47798C98.605 3.6205 98.9679 3.84422 99.2894 4.14915C99.6109 4.45407 99.8645 4.85014 100.05 5.33736C100.236 5.82126 100.328 6.40956 100.328 7.10227V7.62926H94.2582V6.51562H98.8718C98.8718 6.12453 98.7923 5.77817 98.6332 5.47656C98.4741 5.17164 98.2504 4.93134 97.962 4.75568C97.677 4.58002 97.3422 4.49219 96.9577 4.49219C96.5401 4.49219 96.1755 4.59493 95.864 4.80043C95.5558 5.0026 95.3171 5.26776 95.1481 5.59588C94.9824 5.92069 94.8995 6.27367 94.8995 6.65483V7.52486C94.8995 8.03527 94.989 8.46946 95.168 8.82741C95.3503 9.18537 95.6038 9.45881 95.9286 9.64773C96.2534 9.83333 96.6329 9.92614 97.0671 9.92614C97.3488 9.92614 97.6057 9.88636 97.8377 9.80682C98.0697 9.72396 98.2702 9.60133 98.4393 9.43892C98.6083 9.27652 98.7376 9.07599 98.8271 8.83736L100.234 9.09091C100.121 9.50521 99.9192 9.86813 99.6275 10.1797C99.3391 10.4879 98.9762 10.7282 98.5387 10.9006C98.1045 11.0696 97.609 11.1541 97.0522 11.1541ZM106.477 6.05327V7.34091H101.963V6.05327H106.477ZM111.675 11.1541C110.936 11.1541 110.299 10.9867 109.766 10.652C109.235 10.3139 108.828 9.84825 108.543 9.25497C108.258 8.66169 108.115 7.98224 108.115 7.21662C108.115 6.44105 108.261 5.75663 108.553 5.16335C108.844 4.56676 109.255 4.10109 109.786 3.76633C110.316 3.43158 110.941 3.2642 111.66 3.2642C112.24 3.2642 112.757 3.37192 113.211 3.58736C113.665 3.79948 114.031 4.09777 114.31 4.48224C114.592 4.86671 114.759 5.31581 114.812 5.82955H113.365C113.286 5.47159 113.103 5.16335 112.818 4.90483C112.537 4.64631 112.159 4.51705 111.685 4.51705C111.271 4.51705 110.908 4.62642 110.596 4.84517C110.288 5.06061 110.048 5.36884 109.875 5.76989C109.703 6.16761 109.617 6.63826 109.617 7.18182C109.617 7.73864 109.701 8.21922 109.87 8.62358C110.039 9.02794 110.278 9.34115 110.586 9.56321C110.898 9.78527 111.264 9.89631 111.685 9.89631C111.967 9.89631 112.222 9.84493 112.45 9.74219C112.682 9.63613 112.876 9.48532 113.032 9.28977C113.191 9.09422 113.302 8.8589 113.365 8.58381H114.812C114.759 9.07765 114.598 9.51847 114.33 9.90625C114.061 10.294 113.702 10.599 113.251 10.821C112.803 11.0431 112.278 11.1541 111.675 11.1541ZM116.402 11V3.36364H117.888V11H116.402ZM117.152 2.18537C116.894 2.18537 116.672 2.09919 116.486 1.92685C116.304 1.75118 116.213 1.54238 116.213 1.30043C116.213 1.05516 116.304 0.846354 116.486 0.674005C116.672 0.498342 116.894 0.410511 117.152 0.410511C117.411 0.410511 117.631 0.498342 117.814 0.674005C117.999 0.846354 118.092 1.05516 118.092 1.30043C118.092 1.54238 117.999 1.75118 117.814 1.92685C117.631 2.09919 117.411 2.18537 117.152 2.18537ZM119.888 11V3.36364H121.325V4.5767H121.404C121.544 4.16572 121.789 3.84257 122.14 3.60724C122.495 3.36861 122.896 3.24929 123.343 3.24929C123.436 3.24929 123.545 3.2526 123.671 3.25923C123.801 3.26586 123.902 3.27415 123.975 3.28409V4.70597C123.915 4.68939 123.809 4.67116 123.656 4.65128C123.504 4.62808 123.352 4.61648 123.199 4.61648C122.848 4.61648 122.535 4.69105 122.259 4.8402C121.988 4.98603 121.772 5.18987 121.613 5.4517C121.454 5.71023 121.374 6.00521 121.374 6.33665V11H119.888ZM128.204 11.1541C127.465 11.1541 126.829 10.9867 126.295 10.652C125.765 10.3139 125.357 9.84825 125.072 9.25497C124.787 8.66169 124.645 7.98224 124.645 7.21662C124.645 6.44105 124.79 5.75663 125.082 5.16335C125.374 4.56676 125.785 4.10109 126.315 3.76633C126.845 3.43158 127.47 3.2642 128.189 3.2642C128.769 3.2642 129.286 3.37192 129.74 3.58736C130.194 3.79948 130.561 4.09777 130.839 4.48224C131.121 4.86671 131.288 5.31581 131.341 5.82955H129.895C129.815 5.47159 129.633 5.16335 129.348 4.90483C129.066 4.64631 128.688 4.51705 128.214 4.51705C127.8 4.51705 127.437 4.62642 127.125 4.84517C126.817 5.06061 126.577 5.36884 126.404 5.76989C126.232 6.16761 126.146 6.63826 126.146 7.18182C126.146 7.73864 126.23 8.21922 126.4 8.62358C126.569 9.02794 126.807 9.34115 127.115 9.56321C127.427 9.78527 127.793 9.89631 128.214 9.89631C128.496 9.89631 128.751 9.84493 128.98 9.74219C129.212 9.63613 129.406 9.48532 129.561 9.28977C129.721 9.09422 129.832 8.8589 129.895 8.58381H131.341C131.288 9.07765 131.127 9.51847 130.859 9.90625C130.591 10.294 130.231 10.599 129.78 10.821C129.333 11.0431 128.807 11.1541 128.204 11.1541ZM134.417 0.818182V11H132.931V0.818182H134.417ZM139.708 11.1541C138.956 11.1541 138.308 10.9934 137.765 10.6719C137.224 10.3471 136.807 9.89134 136.512 9.30469C136.22 8.71473 136.074 8.02367 136.074 7.23153C136.074 6.44934 136.22 5.75994 136.512 5.16335C136.807 4.56676 137.218 4.10109 137.745 3.76633C138.275 3.43158 138.895 3.2642 139.604 3.2642C140.035 3.2642 140.453 3.33546 140.857 3.47798C141.261 3.6205 141.624 3.84422 141.946 4.14915C142.267 4.45407 142.521 4.85014 142.706 5.33736C142.892 5.82126 142.985 6.40956 142.985 7.10227V7.62926H136.914V6.51562H141.528C141.528 6.12453 141.449 5.77817 141.289 5.47656C141.13 5.17164 140.907 4.93134 140.618 4.75568C140.333 4.58002 139.998 4.49219 139.614 4.49219C139.196 4.49219 138.832 4.59493 138.52 4.80043C138.212 5.0026 137.973 5.26776 137.804 5.59588C137.639 5.92069 137.556 6.27367 137.556 6.65483V7.52486C137.556 8.03527 137.645 8.46946 137.824 8.82741C138.007 9.18537 138.26 9.45881 138.585 9.64773C138.91 9.83333 139.289 9.92614 139.723 9.92614C140.005 9.92614 140.262 9.88636 140.494 9.80682C140.726 9.72396 140.926 9.60133 141.096 9.43892C141.265 9.27652 141.394 9.07599 141.483 8.83736L142.89 9.09091C142.778 9.50521 142.575 9.86813 142.284 10.1797C141.995 10.4879 141.632 10.7282 141.195 10.9006C140.761 11.0696 140.265 11.1541 139.708 11.1541Z" fill="black"/>
</svg>
