<svg width="176" height="15" viewBox="0 0 176 15" fill="none" xmlns="http://www.w3.org/2000/svg">
<path d="M-0.000710189 11V3.36364H1.42614V4.60653H1.5206C1.67969 4.18561 1.93987 3.85748 2.30114 3.62216C2.66241 3.38352 3.09493 3.2642 3.59872 3.2642C4.10914 3.2642 4.5367 3.38352 4.88139 3.62216C5.2294 3.8608 5.48627 4.18892 5.65199 4.60653H5.73153C5.91383 4.19886 6.20384 3.87405 6.60156 3.6321C6.99929 3.38684 7.47325 3.2642 8.02344 3.2642C8.71615 3.2642 9.28125 3.4813 9.71875 3.91548C10.1596 4.34967 10.38 5.00426 10.38 5.87926V11H8.89347V6.01847C8.89347 5.50142 8.7526 5.12689 8.47088 4.89489C8.18916 4.66288 7.85275 4.54688 7.46165 4.54688C6.97775 4.54688 6.60156 4.69602 6.3331 4.99432C6.06463 5.2893 5.9304 5.6688 5.9304 6.13281V11H4.44886V5.92401C4.44886 5.50971 4.3196 5.17661 4.06108 4.92472C3.80256 4.67282 3.46615 4.54688 3.05185 4.54688C2.77012 4.54688 2.50994 4.62145 2.27131 4.7706C2.03599 4.91643 1.84541 5.12026 1.69957 5.3821C1.55706 5.64394 1.4858 5.94721 1.4858 6.2919V11H-0.000710189ZM15.6635 11.1541C14.9112 11.1541 14.2632 10.9934 13.7196 10.6719C13.1794 10.3471 12.7618 9.89134 12.4668 9.30469C12.1751 8.71473 12.0293 8.02367 12.0293 7.23153C12.0293 6.44934 12.1751 5.75994 12.4668 5.16335C12.7618 4.56676 13.1728 4.10109 13.6998 3.76633C14.2301 3.43158 14.8498 3.2642 15.5591 3.2642C15.99 3.2642 16.4076 3.33546 16.812 3.47798C17.2163 3.6205 17.5792 3.84422 17.9007 4.14915C18.2222 4.45407 18.4758 4.85014 18.6614 5.33736C18.847 5.82126 18.9398 6.40956 18.9398 7.10227V7.62926H12.8695V6.51562H17.4831C17.4831 6.12453 17.4036 5.77817 17.2445 5.47656C17.0854 5.17164 16.8617 4.93134 16.5733 4.75568C16.2883 4.58002 15.9535 4.49219 15.5691 4.49219C15.1515 4.49219 14.7869 4.59493 14.4753 4.80043C14.1671 5.0026 13.9284 5.26776 13.7594 5.59588C13.5937 5.92069 13.5108 6.27367 13.5108 6.65483V7.52486C13.5108 8.03527 13.6003 8.46946 13.7793 8.82741C13.9616 9.18537 14.2151 9.45881 14.54 9.64773C14.8648 9.83333 15.2443 9.92614 15.6784 9.92614C15.9602 9.92614 16.217 9.88636 16.449 9.80682C16.681 9.72396 16.8816 9.60133 17.0506 9.43892C17.2196 9.27652 17.3489 9.07599 17.4384 8.83736L18.8453 9.09091C18.7327 9.50521 18.5305 9.86813 18.2388 10.1797C17.9505 10.4879 17.5875 10.7282 17.15 10.9006C16.7158 11.0696 16.2203 11.1541 15.6635 11.1541ZM26.3114 5.22798L24.9641 5.46662C24.9078 5.29427 24.8183 5.13021 24.6957 4.97443C24.5763 4.81865 24.4139 4.69105 24.2085 4.59162C24.003 4.49219 23.7461 4.44247 23.4379 4.44247C23.0169 4.44247 22.6656 4.53693 22.3839 4.72585C22.1022 4.91146 21.9613 5.15175 21.9613 5.44673C21.9613 5.70194 22.0558 5.90743 22.2447 6.06321C22.4336 6.21899 22.7385 6.34659 23.1594 6.44602L24.3725 6.72443C25.0752 6.88684 25.5988 7.13707 25.9435 7.47514C26.2882 7.81321 26.4606 8.25237 26.4606 8.79261C26.4606 9.25 26.328 9.65767 26.0629 10.0156C25.801 10.3703 25.4348 10.6487 24.9641 10.8509C24.4968 11.053 23.9549 11.1541 23.3384 11.1541C22.4833 11.1541 21.7856 10.9718 21.2454 10.6072C20.7051 10.2393 20.3737 9.71733 20.2511 9.04119L21.6879 8.82244C21.7773 9.19697 21.9613 9.48035 22.2397 9.67259C22.5181 9.86151 22.881 9.95597 23.3285 9.95597C23.8157 9.95597 24.2051 9.85488 24.4968 9.6527C24.7885 9.44721 24.9343 9.19697 24.9343 8.90199C24.9343 8.66335 24.8448 8.46283 24.6658 8.30043C24.4902 8.13802 24.2201 8.01539 23.8555 7.93253L22.5629 7.64915C21.8503 7.48674 21.3233 7.22822 20.9819 6.87358C20.6438 6.51894 20.4748 6.06984 20.4748 5.52628C20.4748 5.07552 20.6007 4.68111 20.8526 4.34304C21.1045 4.00497 21.4525 3.74148 21.8967 3.55256C22.3408 3.36032 22.8496 3.2642 23.4229 3.2642C24.2482 3.2642 24.8978 3.44318 25.3718 3.80114C25.8458 4.15578 26.159 4.63139 26.3114 5.22798ZM33.8173 5.22798L32.47 5.46662C32.4136 5.29427 32.3242 5.13021 32.2015 4.97443C32.0822 4.81865 31.9198 4.69105 31.7143 4.59162C31.5088 4.49219 31.252 4.44247 30.9437 4.44247C30.5228 4.44247 30.1715 4.53693 29.8897 4.72585C29.608 4.91146 29.4672 5.15175 29.4672 5.44673C29.4672 5.70194 29.5616 5.90743 29.7505 6.06321C29.9395 6.21899 30.2444 6.34659 30.6653 6.44602L31.8784 6.72443C32.581 6.88684 33.1047 7.13707 33.4494 7.47514C33.7941 7.81321 33.9664 8.25237 33.9664 8.79261C33.9664 9.25 33.8339 9.65767 33.5687 10.0156C33.3069 10.3703 32.9406 10.6487 32.47 10.8509C32.0027 11.053 31.4608 11.1541 30.8443 11.1541C29.9892 11.1541 29.2915 10.9718 28.7512 10.6072C28.211 10.2393 27.8796 9.71733 27.7569 9.04119L29.1937 8.82244C29.2832 9.19697 29.4672 9.48035 29.7456 9.67259C30.024 9.86151 30.3869 9.95597 30.8343 9.95597C31.3216 9.95597 31.711 9.85488 32.0027 9.6527C32.2943 9.44721 32.4402 9.19697 32.4402 8.90199C32.4402 8.66335 32.3507 8.46283 32.1717 8.30043C31.996 8.13802 31.7259 8.01539 31.3613 7.93253L30.0687 7.64915C29.3561 7.48674 28.8291 7.22822 28.4877 6.87358C28.1497 6.51894 27.9806 6.06984 27.9806 5.52628C27.9806 5.07552 28.1066 4.68111 28.3585 4.34304C28.6104 4.00497 28.9584 3.74148 29.4025 3.55256C29.8467 3.36032 30.3554 3.2642 30.9288 3.2642C31.7541 3.2642 32.4037 3.44318 32.8777 3.80114C33.3516 4.15578 33.6648 4.63139 33.8173 5.22798ZM37.8232 11.169C37.3393 11.169 36.9018 11.0795 36.5107 10.9006C36.1196 10.7183 35.8097 10.4548 35.581 10.1101C35.3556 9.76539 35.2429 9.3428 35.2429 8.84233C35.2429 8.41146 35.3258 8.05682 35.4915 7.77841C35.6572 7.5 35.8809 7.27959 36.1626 7.11719C36.4444 6.95478 36.7592 6.83215 37.1072 6.74929C37.4553 6.66643 37.8099 6.60346 38.1712 6.56037C38.6286 6.50734 38.9998 6.46425 39.2848 6.43111C39.5698 6.39465 39.777 6.33665 39.9062 6.2571C40.0355 6.17756 40.1001 6.0483 40.1001 5.86932V5.83452C40.1001 5.40033 39.9775 5.06392 39.7322 4.82528C39.4903 4.58665 39.129 4.46733 38.6484 4.46733C38.148 4.46733 37.7536 4.57836 37.4652 4.80043C37.1802 5.01918 36.983 5.26278 36.8736 5.53125L35.4766 5.21307C35.6423 4.74905 35.8842 4.37453 36.2024 4.08949C36.5239 3.80114 36.8935 3.59233 37.3111 3.46307C37.7287 3.33049 38.1679 3.2642 38.6286 3.2642C38.9335 3.2642 39.2566 3.30066 39.598 3.37358C39.9427 3.44318 40.2642 3.57244 40.5625 3.76136C40.8641 3.95028 41.111 4.22041 41.3033 4.57173C41.4955 4.91974 41.5916 5.37216 41.5916 5.92898V11H40.1399V9.95597H40.0803C39.9841 10.1482 39.84 10.3371 39.6477 10.5227C39.4555 10.7083 39.2086 10.8625 38.907 10.9851C38.6054 11.1077 38.2441 11.169 37.8232 11.169ZM38.1463 9.97585C38.5573 9.97585 38.9086 9.89465 39.2003 9.73224C39.4953 9.56984 39.719 9.35772 39.8714 9.09588C40.0272 8.83073 40.1051 8.54735 40.1051 8.24574V7.26136C40.0521 7.31439 39.9493 7.36411 39.7969 7.41051C39.6477 7.4536 39.477 7.49171 39.2848 7.52486C39.0926 7.55469 38.9053 7.58286 38.723 7.60938C38.5407 7.63258 38.3883 7.65246 38.2656 7.66903C37.9773 7.70549 37.7138 7.76681 37.4751 7.85298C37.2398 7.93916 37.0509 8.06345 36.9084 8.22585C36.7692 8.38494 36.6996 8.59706 36.6996 8.86222C36.6996 9.23011 36.8355 9.50852 37.1072 9.69744C37.379 9.88305 37.7254 9.97585 38.1463 9.97585ZM46.7733 14.0227C46.1667 14.0227 45.6447 13.9432 45.2072 13.7841C44.773 13.625 44.4184 13.4145 44.1433 13.1527C43.8682 12.8909 43.6627 12.6042 43.5268 12.2926L44.8045 11.7656C44.894 11.9115 45.0133 12.0656 45.1625 12.228C45.3149 12.3937 45.5204 12.5346 45.7789 12.6506C46.0408 12.7666 46.3772 12.8246 46.7882 12.8246C47.3516 12.8246 47.8173 12.687 48.1852 12.4119C48.5531 12.1402 48.737 11.706 48.737 11.1094V9.60795H48.6426C48.5531 9.77036 48.4238 9.95099 48.2548 10.1499C48.0891 10.3487 47.8604 10.5211 47.5687 10.6669C47.277 10.8127 46.8975 10.8857 46.4302 10.8857C45.827 10.8857 45.2834 10.7448 44.7995 10.4631C44.319 10.178 43.9378 9.75876 43.6561 9.20526C43.3777 8.64844 43.2385 7.96401 43.2385 7.15199C43.2385 6.33996 43.376 5.64394 43.6511 5.06392C43.9295 4.4839 44.3107 4.03977 44.7946 3.73153C45.2785 3.41998 45.827 3.2642 46.4402 3.2642C46.9141 3.2642 47.2969 3.34375 47.5886 3.50284C47.8803 3.65862 48.1073 3.84091 48.2697 4.04972C48.4354 4.25852 48.563 4.44247 48.6525 4.60156H48.7619V3.36364H50.2186V11.169C50.2186 11.8253 50.0661 12.3639 49.7612 12.7848C49.4563 13.2057 49.0436 13.5173 48.5233 13.7195C48.0062 13.9216 47.4229 14.0227 46.7733 14.0227ZM46.7583 9.6527C47.1859 9.6527 47.5472 9.55327 47.8422 9.3544C48.1404 9.15223 48.3658 8.86387 48.5183 8.48935C48.6741 8.11151 48.752 7.65909 48.752 7.1321C48.752 6.61837 48.6757 6.16596 48.5233 5.77486C48.3708 5.38376 48.1471 5.07884 47.8521 4.86009C47.5571 4.63802 47.1925 4.52699 46.7583 4.52699C46.3109 4.52699 45.938 4.64299 45.6397 4.875C45.3414 5.10369 45.1161 5.41525 44.9636 5.80966C44.8145 6.20407 44.7399 6.64489 44.7399 7.1321C44.7399 7.63258 44.8161 8.07173 44.9686 8.44957C45.121 8.82741 45.3464 9.1224 45.6447 9.33452C45.9463 9.54664 46.3175 9.6527 46.7583 9.6527ZM55.5034 11.1541C54.751 11.1541 54.103 10.9934 53.5595 10.6719C53.0192 10.3471 52.6016 9.89134 52.3066 9.30469C52.015 8.71473 51.8691 8.02367 51.8691 7.23153C51.8691 6.44934 52.015 5.75994 52.3066 5.16335C52.6016 4.56676 53.0126 4.10109 53.5396 3.76633C54.0699 3.43158 54.6897 3.2642 55.399 3.2642C55.8298 3.2642 56.2475 3.33546 56.6518 3.47798C57.0562 3.6205 57.4191 3.84422 57.7406 4.14915C58.0621 4.45407 58.3156 4.85014 58.5012 5.33736C58.6868 5.82126 58.7797 6.40956 58.7797 7.10227V7.62926H52.7093V6.51562H57.323C57.323 6.12453 57.2434 5.77817 57.0843 5.47656C56.9252 5.17164 56.7015 4.93134 56.4132 4.75568C56.1281 4.58002 55.7934 4.49219 55.4089 4.49219C54.9913 4.49219 54.6267 4.59493 54.3152 4.80043C54.0069 5.0026 53.7683 5.26776 53.5993 5.59588C53.4335 5.92069 53.3507 6.27367 53.3507 6.65483V7.52486C53.3507 8.03527 53.4402 8.46946 53.6191 8.82741C53.8014 9.18537 54.055 9.45881 54.3798 9.64773C54.7046 9.83333 55.0841 9.92614 55.5183 9.92614C55.8 9.92614 56.0569 9.88636 56.2889 9.80682C56.5209 9.72396 56.7214 9.60133 56.8904 9.43892C57.0595 9.27652 57.1887 9.07599 57.2782 8.83736L58.6852 9.09091C58.5725 9.50521 58.3703 9.86813 58.0787 10.1797C57.7903 10.4879 57.4274 10.7282 56.9899 10.9006C56.5557 11.0696 56.0602 11.1541 55.5034 11.1541ZM64.9283 6.05327V7.34091H60.4141V6.05327H64.9283ZM72.065 13.8636V9.81179H71.9755C71.886 9.9742 71.7567 10.1598 71.5877 10.3686C71.422 10.5774 71.1933 10.7597 70.9016 10.9155C70.61 11.0713 70.2321 11.1491 69.7681 11.1491C69.1516 11.1491 68.6014 10.9917 68.1175 10.6768C67.637 10.3587 67.2591 9.90625 66.984 9.3196C66.7122 8.72964 66.5763 8.02202 66.5763 7.19673C66.5763 6.37145 66.7139 5.66548 66.989 5.07884C67.2674 4.49219 67.6486 4.04309 68.1325 3.73153C68.6164 3.41998 69.1649 3.2642 69.7781 3.2642C70.252 3.2642 70.6332 3.34375 70.9215 3.50284C71.2132 3.65862 71.4386 3.84091 71.5977 4.04972C71.7601 4.25852 71.886 4.44247 71.9755 4.60156H72.0998V3.36364H73.5515V13.8636H72.065ZM70.0962 9.88139C70.5238 9.88139 70.8851 9.7687 71.18 9.54332C71.4783 9.31463 71.7037 8.99811 71.8562 8.59375C72.012 8.18939 72.0898 7.71875 72.0898 7.18182C72.0898 6.65151 72.0136 6.1875 71.8612 5.78977C71.7087 5.39205 71.485 5.08215 71.19 4.86009C70.895 4.63802 70.5304 4.52699 70.0962 4.52699C69.6488 4.52699 69.2759 4.64299 68.9776 4.875C68.6793 5.10701 68.454 5.42353 68.3015 5.82457C68.1523 6.22562 68.0778 6.67803 68.0778 7.18182C68.0778 7.69223 68.154 8.15128 68.3065 8.55895C68.4589 8.96662 68.6843 9.28977 68.9826 9.52841C69.2842 9.76373 69.6554 9.88139 70.0962 9.88139ZM80.3874 7.8331V3.36364H81.8789V11H80.4173V9.67756H80.3377C80.1621 10.0852 79.8803 10.425 79.4925 10.6967C79.1081 10.9652 78.6291 11.0994 78.0558 11.0994C77.5652 11.0994 77.131 10.9917 76.7532 10.7763C76.3787 10.5575 76.0837 10.2344 75.8683 9.80682C75.6561 9.37926 75.5501 8.85062 75.5501 8.22088V3.36364H77.0366V8.0419C77.0366 8.56226 77.1808 8.97656 77.4691 9.2848C77.7575 9.59304 78.132 9.74716 78.5927 9.74716C78.8711 9.74716 79.1478 9.67756 79.4229 9.53835C79.7013 9.39915 79.9317 9.18868 80.114 8.90696C80.2996 8.62524 80.3907 8.26728 80.3874 7.8331ZM87.1674 11.1541C86.4151 11.1541 85.7671 10.9934 85.2235 10.6719C84.6833 10.3471 84.2657 9.89134 83.9707 9.30469C83.679 8.71473 83.5332 8.02367 83.5332 7.23153C83.5332 6.44934 83.679 5.75994 83.9707 5.16335C84.2657 4.56676 84.6767 4.10109 85.2037 3.76633C85.734 3.43158 86.3538 3.2642 87.063 3.2642C87.4939 3.2642 87.9115 3.33546 88.3159 3.47798C88.7202 3.6205 89.0832 3.84422 89.4047 4.14915C89.7261 4.45407 89.9797 4.85014 90.1653 5.33736C90.3509 5.82126 90.4437 6.40956 90.4437 7.10227V7.62926H84.3734V6.51562H88.987C88.987 6.12453 88.9075 5.77817 88.7484 5.47656C88.5893 5.17164 88.3656 4.93134 88.0772 4.75568C87.7922 4.58002 87.4574 4.49219 87.073 4.49219C86.6554 4.49219 86.2908 4.59493 85.9792 4.80043C85.671 5.0026 85.4324 5.26776 85.2633 5.59588C85.0976 5.92069 85.0147 6.27367 85.0147 6.65483V7.52486C85.0147 8.03527 85.1042 8.46946 85.2832 8.82741C85.4655 9.18537 85.719 9.45881 86.0439 9.64773C86.3687 9.83333 86.7482 9.92614 87.1824 9.92614C87.4641 9.92614 87.7209 9.88636 87.9529 9.80682C88.185 9.72396 88.3855 9.60133 88.5545 9.43892C88.7235 9.27652 88.8528 9.07599 88.9423 8.83736L90.3493 9.09091C90.2366 9.50521 90.0344 9.86813 89.7427 10.1797C89.4544 10.4879 89.0914 10.7282 88.6539 10.9006C88.2198 11.0696 87.7243 11.1541 87.1674 11.1541ZM97.8153 5.22798L96.468 5.46662C96.4117 5.29427 96.3222 5.13021 96.1996 4.97443C96.0803 4.81865 95.9179 4.69105 95.7124 4.59162C95.5069 4.49219 95.25 4.44247 94.9418 4.44247C94.5208 4.44247 94.1695 4.53693 93.8878 4.72585C93.6061 4.91146 93.4652 5.15175 93.4652 5.44673C93.4652 5.70194 93.5597 5.90743 93.7486 6.06321C93.9375 6.21899 94.2424 6.34659 94.6634 6.44602L95.8764 6.72443C96.5791 6.88684 97.1027 7.13707 97.4474 7.47514C97.7921 7.81321 97.9645 8.25237 97.9645 8.79261C97.9645 9.25 97.8319 9.65767 97.5668 10.0156C97.3049 10.3703 96.9387 10.6487 96.468 10.8509C96.0007 11.053 95.4588 11.1541 94.8423 11.1541C93.9872 11.1541 93.2895 10.9718 92.7493 10.6072C92.209 10.2393 91.8776 9.71733 91.755 9.04119L93.1918 8.82244C93.2813 9.19697 93.4652 9.48035 93.7436 9.67259C94.022 9.86151 94.3849 9.95597 94.8324 9.95597C95.3196 9.95597 95.709 9.85488 96.0007 9.6527C96.2924 9.44721 96.4382 9.19697 96.4382 8.90199C96.4382 8.66335 96.3487 8.46283 96.1697 8.30043C95.9941 8.13802 95.724 8.01539 95.3594 7.93253L94.0668 7.64915C93.3542 7.48674 92.8272 7.22822 92.4858 6.87358C92.1477 6.51894 91.9787 6.06984 91.9787 5.52628C91.9787 5.07552 92.1046 4.68111 92.3565 4.34304C92.6084 4.00497 92.9564 3.74148 93.4006 3.55256C93.8447 3.36032 94.3535 3.2642 94.9268 3.2642C95.7521 3.2642 96.4018 3.44318 96.8757 3.80114C97.3497 4.15578 97.6629 4.63139 97.8153 5.22798ZM103.164 3.36364V4.55682H98.9924V3.36364H103.164ZM100.111 1.53409H101.597V8.75781C101.597 9.04616 101.641 9.26326 101.727 9.40909C101.813 9.55161 101.924 9.64938 102.06 9.70241C102.199 9.75213 102.35 9.77699 102.512 9.77699C102.632 9.77699 102.736 9.7687 102.825 9.75213C102.915 9.73556 102.985 9.7223 103.034 9.71236L103.303 10.9403C103.217 10.9735 103.094 11.0066 102.935 11.0398C102.776 11.0762 102.577 11.0961 102.338 11.0994C101.947 11.1061 101.583 11.0365 101.244 10.8906C100.906 10.7448 100.633 10.5194 100.424 10.2145C100.215 9.90956 100.111 9.52675 100.111 9.06605V1.53409ZM104.808 11V3.36364H106.294V11H104.808ZM105.559 2.18537C105.3 2.18537 105.078 2.09919 104.892 1.92685C104.71 1.75118 104.619 1.54238 104.619 1.30043C104.619 1.05516 104.71 0.846354 104.892 0.674005C105.078 0.498342 105.3 0.410511 105.559 0.410511C105.817 0.410511 106.038 0.498342 106.22 0.674005C106.405 0.846354 106.498 1.05516 106.498 1.30043C106.498 1.54238 106.405 1.75118 106.22 1.92685C106.038 2.09919 105.817 2.18537 105.559 2.18537ZM111.511 11.1541C110.795 11.1541 110.17 10.9901 109.637 10.6619C109.103 10.3338 108.689 9.87476 108.394 9.2848C108.099 8.69484 107.951 8.00544 107.951 7.21662C107.951 6.42448 108.099 5.73177 108.394 5.13849C108.689 4.54522 109.103 4.08452 109.637 3.75639C110.17 3.42827 110.795 3.2642 111.511 3.2642C112.227 3.2642 112.852 3.42827 113.385 3.75639C113.919 4.08452 114.333 4.54522 114.628 5.13849C114.923 5.73177 115.07 6.42448 115.07 7.21662C115.07 8.00544 114.923 8.69484 114.628 9.2848C114.333 9.87476 113.919 10.3338 113.385 10.6619C112.852 10.9901 112.227 11.1541 111.511 11.1541ZM111.516 9.90625C111.98 9.90625 112.364 9.78362 112.669 9.53835C112.974 9.29309 113.2 8.96662 113.345 8.55895C113.494 8.15128 113.569 7.70218 113.569 7.21165C113.569 6.72443 113.494 6.27699 113.345 5.86932C113.2 5.45833 112.974 5.12855 112.669 4.87997C112.364 4.63139 111.98 4.5071 111.516 4.5071C111.048 4.5071 110.661 4.63139 110.352 4.87997C110.048 5.12855 109.82 5.45833 109.671 5.86932C109.526 6.27699 109.453 6.72443 109.453 7.21165C109.453 7.70218 109.526 8.15128 109.671 8.55895C109.82 8.96662 110.048 9.29309 110.352 9.53835C110.661 9.78362 111.048 9.90625 111.516 9.90625ZM118.216 6.46591V11H116.73V3.36364H118.157V4.60653H118.251C118.427 4.20218 118.702 3.87737 119.076 3.6321C119.454 3.38684 119.93 3.2642 120.503 3.2642C121.024 3.2642 121.479 3.37358 121.87 3.59233C122.261 3.80777 122.565 4.12926 122.78 4.55682C122.996 4.98437 123.103 5.51302 123.103 6.14276V11H121.617V6.32173C121.617 5.76823 121.473 5.3357 121.184 5.02415C120.896 4.70928 120.5 4.55185 119.996 4.55185C119.651 4.55185 119.345 4.62642 119.076 4.77557C118.811 4.92472 118.601 5.14347 118.445 5.43182C118.292 5.71686 118.216 6.06155 118.216 6.46591ZM129.596 6.05327V7.34091H125.082V6.05327H129.596ZM137.3 5.22798L135.952 5.46662C135.896 5.29427 135.807 5.13021 135.684 4.97443C135.565 4.81865 135.402 4.69105 135.197 4.59162C134.991 4.49219 134.734 4.44247 134.426 4.44247C134.005 4.44247 133.654 4.53693 133.372 4.72585C133.09 4.91146 132.95 5.15175 132.95 5.44673C132.95 5.70194 133.044 5.90743 133.233 6.06321C133.422 6.21899 133.727 6.34659 134.148 6.44602L135.361 6.72443C136.063 6.88684 136.587 7.13707 136.932 7.47514C137.277 7.81321 137.449 8.25237 137.449 8.79261C137.449 9.25 137.316 9.65767 137.051 10.0156C136.789 10.3703 136.423 10.6487 135.952 10.8509C135.485 11.053 134.943 11.1541 134.327 11.1541C133.472 11.1541 132.774 10.9718 132.234 10.6072C131.693 10.2393 131.362 9.71733 131.239 9.04119L132.676 8.82244C132.766 9.19697 132.95 9.48035 133.228 9.67259C133.506 9.86151 133.869 9.95597 134.317 9.95597C134.804 9.95597 135.193 9.85488 135.485 9.6527C135.777 9.44721 135.923 9.19697 135.923 8.90199C135.923 8.66335 135.833 8.46283 135.654 8.30043C135.478 8.13802 135.208 8.01539 134.844 7.93253L133.551 7.64915C132.839 7.48674 132.312 7.22822 131.97 6.87358C131.632 6.51894 131.463 6.06984 131.463 5.52628C131.463 5.07552 131.589 4.68111 131.841 4.34304C132.093 4.00497 132.441 3.74148 132.885 3.55256C133.329 3.36032 133.838 3.2642 134.411 3.2642C135.237 3.2642 135.886 3.44318 136.36 3.80114C136.834 4.15578 137.147 4.63139 137.3 5.22798ZM144.239 13.8636V9.81179H144.149C144.06 9.9742 143.931 10.1598 143.762 10.3686C143.596 10.5774 143.367 10.7597 143.075 10.9155C142.784 11.0713 142.406 11.1491 141.942 11.1491C141.325 11.1491 140.775 10.9917 140.291 10.6768C139.811 10.3587 139.433 9.90625 139.158 9.3196C138.886 8.72964 138.75 8.02202 138.75 7.19673C138.75 6.37145 138.888 5.66548 139.163 5.07884C139.441 4.49219 139.822 4.04309 140.306 3.73153C140.79 3.41998 141.339 3.2642 141.952 3.2642C142.426 3.2642 142.807 3.34375 143.095 3.50284C143.387 3.65862 143.612 3.84091 143.771 4.04972C143.934 4.25852 144.06 4.44247 144.149 4.60156H144.274V3.36364H145.725V13.8636H144.239ZM142.27 9.88139C142.698 9.88139 143.059 9.7687 143.354 9.54332C143.652 9.31463 143.878 8.99811 144.03 8.59375C144.186 8.18939 144.264 7.71875 144.264 7.18182C144.264 6.65151 144.187 6.1875 144.035 5.78977C143.883 5.39205 143.659 5.08215 143.364 4.86009C143.069 4.63802 142.704 4.52699 142.27 4.52699C141.823 4.52699 141.45 4.64299 141.151 4.875C140.853 5.10701 140.628 5.42353 140.475 5.82457C140.326 6.22562 140.252 6.67803 140.252 7.18182C140.252 7.69223 140.328 8.15128 140.48 8.55895C140.633 8.96662 140.858 9.28977 141.156 9.52841C141.458 9.76373 141.829 9.88139 142.27 9.88139ZM152.561 7.8331V3.36364H154.053V11H152.591V9.67756H152.512C152.336 10.0852 152.054 10.425 151.666 10.6967C151.282 10.9652 150.803 11.0994 150.23 11.0994C149.739 11.0994 149.305 10.9917 148.927 10.7763C148.552 10.5575 148.258 10.2344 148.042 9.80682C147.83 9.37926 147.724 8.85062 147.724 8.22088V3.36364H149.21V8.0419C149.21 8.56226 149.355 8.97656 149.643 9.2848C149.931 9.59304 150.306 9.74716 150.767 9.74716C151.045 9.74716 151.322 9.67756 151.597 9.53835C151.875 9.39915 152.106 9.18868 152.288 8.90696C152.473 8.62524 152.565 8.26728 152.561 7.8331ZM158.272 11.169C157.788 11.169 157.351 11.0795 156.96 10.9006C156.569 10.7183 156.259 10.4548 156.03 10.1101C155.805 9.76539 155.692 9.3428 155.692 8.84233C155.692 8.41146 155.775 8.05682 155.941 7.77841C156.106 7.5 156.33 7.27959 156.612 7.11719C156.894 6.95478 157.208 6.83215 157.556 6.74929C157.904 6.66643 158.259 6.60346 158.62 6.56037C159.078 6.50734 159.449 6.46425 159.734 6.43111C160.019 6.39465 160.226 6.33665 160.355 6.2571C160.485 6.17756 160.549 6.0483 160.549 5.86932V5.83452C160.549 5.40033 160.427 5.06392 160.181 4.82528C159.94 4.58665 159.578 4.46733 159.098 4.46733C158.597 4.46733 158.203 4.57836 157.914 4.80043C157.629 5.01918 157.432 5.26278 157.323 5.53125L155.926 5.21307C156.092 4.74905 156.333 4.37453 156.652 4.08949C156.973 3.80114 157.343 3.59233 157.76 3.46307C158.178 3.33049 158.617 3.2642 159.078 3.2642C159.383 3.2642 159.706 3.30066 160.047 3.37358C160.392 3.44318 160.713 3.57244 161.012 3.76136C161.313 3.95028 161.56 4.22041 161.752 4.57173C161.945 4.91974 162.041 5.37216 162.041 5.92898V11H160.589V9.95597H160.529C160.433 10.1482 160.289 10.3371 160.097 10.5227C159.905 10.7083 159.658 10.8625 159.356 10.9851C159.055 11.1077 158.693 11.169 158.272 11.169ZM158.596 9.97585C159.007 9.97585 159.358 9.89465 159.65 9.73224C159.944 9.56984 160.168 9.35772 160.321 9.09588C160.476 8.83073 160.554 8.54735 160.554 8.24574V7.26136C160.501 7.31439 160.399 7.36411 160.246 7.41051C160.097 7.4536 159.926 7.49171 159.734 7.52486C159.542 7.55469 159.355 7.58286 159.172 7.60938C158.99 7.63258 158.837 7.65246 158.715 7.66903C158.426 7.70549 158.163 7.76681 157.924 7.85298C157.689 7.93916 157.5 8.06345 157.358 8.22585C157.218 8.38494 157.149 8.59706 157.149 8.86222C157.149 9.23011 157.285 9.50852 157.556 9.69744C157.828 9.88305 158.175 9.97585 158.596 9.97585ZM164.021 11V3.36364H165.458V4.5767H165.537C165.676 4.16572 165.922 3.84257 166.273 3.60724C166.628 3.36861 167.029 3.24929 167.476 3.24929C167.569 3.24929 167.678 3.2526 167.804 3.25923C167.933 3.26586 168.035 3.27415 168.107 3.28409V4.70597C168.048 4.68939 167.942 4.67116 167.789 4.65128C167.637 4.62808 167.484 4.61648 167.332 4.61648C166.981 4.61648 166.667 4.69105 166.392 4.8402C166.12 4.98603 165.905 5.18987 165.746 5.4517C165.587 5.71023 165.507 6.00521 165.507 6.33665V11H164.021ZM172.412 11.1541C171.659 11.1541 171.011 10.9934 170.468 10.6719C169.927 10.3471 169.51 9.89134 169.215 9.30469C168.923 8.71473 168.777 8.02367 168.777 7.23153C168.777 6.44934 168.923 5.75994 169.215 5.16335C169.51 4.56676 169.921 4.10109 170.448 3.76633C170.978 3.43158 171.598 3.2642 172.307 3.2642C172.738 3.2642 173.156 3.33546 173.56 3.47798C173.964 3.6205 174.327 3.84422 174.649 4.14915C174.97 4.45407 175.224 4.85014 175.409 5.33736C175.595 5.82126 175.688 6.40956 175.688 7.10227V7.62926H169.618V6.51562H174.231C174.231 6.12453 174.152 5.77817 173.993 5.47656C173.833 5.17164 173.61 4.93134 173.321 4.75568C173.036 4.58002 172.702 4.49219 172.317 4.49219C171.9 4.49219 171.535 4.59493 171.223 4.80043C170.915 5.0026 170.676 5.26776 170.507 5.59588C170.342 5.92069 170.259 6.27367 170.259 6.65483V7.52486C170.259 8.03527 170.348 8.46946 170.527 8.82741C170.71 9.18537 170.963 9.45881 171.288 9.64773C171.613 9.83333 171.992 9.92614 172.426 9.92614C172.708 9.92614 172.965 9.88636 173.197 9.80682C173.429 9.72396 173.63 9.60133 173.799 9.43892C173.968 9.27652 174.097 9.07599 174.186 8.83736L175.593 9.09091C175.481 9.50521 175.279 9.86813 174.987 10.1797C174.699 10.4879 174.336 10.7282 173.898 10.9006C173.464 11.0696 172.968 11.1541 172.412 11.1541Z" fill="black"/>
</svg>
