<svg width="144" height="15" viewBox="0 0 144 15" fill="none" xmlns="http://www.w3.org/2000/svg">
<path d="M-0.000710189 11V3.36364H1.42614V4.60653H1.5206C1.67969 4.18561 1.93987 3.85748 2.30114 3.62216C2.66241 3.38352 3.09493 3.2642 3.59872 3.2642C4.10914 3.2642 4.5367 3.38352 4.88139 3.62216C5.2294 3.8608 5.48627 4.18892 5.65199 4.60653H5.73153C5.91383 4.19886 6.20384 3.87405 6.60156 3.6321C6.99929 3.38684 7.47325 3.2642 8.02344 3.2642C8.71615 3.2642 9.28125 3.4813 9.71875 3.91548C10.1596 4.34967 10.38 5.00426 10.38 5.87926V11H8.89347V6.01847C8.89347 5.50142 8.7526 5.12689 8.47088 4.89489C8.18916 4.66288 7.85275 4.54688 7.46165 4.54688C6.97775 4.54688 6.60156 4.69602 6.3331 4.99432C6.06463 5.2893 5.9304 5.6688 5.9304 6.13281V11H4.44886V5.92401C4.44886 5.50971 4.3196 5.17661 4.06108 4.92472C3.80256 4.67282 3.46615 4.54688 3.05185 4.54688C2.77012 4.54688 2.50994 4.62145 2.27131 4.7706C2.03599 4.91643 1.84541 5.12026 1.69957 5.3821C1.55706 5.64394 1.4858 5.94721 1.4858 6.2919V11H-0.000710189ZM15.6635 11.1541C14.9112 11.1541 14.2632 10.9934 13.7196 10.6719C13.1794 10.3471 12.7618 9.89134 12.4668 9.30469C12.1751 8.71473 12.0293 8.02367 12.0293 7.23153C12.0293 6.44934 12.1751 5.75994 12.4668 5.16335C12.7618 4.56676 13.1728 4.10109 13.6998 3.76633C14.2301 3.43158 14.8498 3.2642 15.5591 3.2642C15.99 3.2642 16.4076 3.33546 16.812 3.47798C17.2163 3.6205 17.5792 3.84422 17.9007 4.14915C18.2222 4.45407 18.4758 4.85014 18.6614 5.33736C18.847 5.82126 18.9398 6.40956 18.9398 7.10227V7.62926H12.8695V6.51562H17.4831C17.4831 6.12453 17.4036 5.77817 17.2445 5.47656C17.0854 5.17164 16.8617 4.93134 16.5733 4.75568C16.2883 4.58002 15.9535 4.49219 15.5691 4.49219C15.1515 4.49219 14.7869 4.59493 14.4753 4.80043C14.1671 5.0026 13.9284 5.26776 13.7594 5.59588C13.5937 5.92069 13.5108 6.27367 13.5108 6.65483V7.52486C13.5108 8.03527 13.6003 8.46946 13.7793 8.82741C13.9616 9.18537 14.2151 9.45881 14.54 9.64773C14.8648 9.83333 15.2443 9.92614 15.6784 9.92614C15.9602 9.92614 16.217 9.88636 16.449 9.80682C16.681 9.72396 16.8816 9.60133 17.0506 9.43892C17.2196 9.27652 17.3489 9.07599 17.4384 8.83736L18.8453 9.09091C18.7327 9.50521 18.5305 9.86813 18.2388 10.1797C17.9505 10.4879 17.5875 10.7282 17.15 10.9006C16.7158 11.0696 16.2203 11.1541 15.6635 11.1541ZM26.3114 5.22798L24.9641 5.46662C24.9078 5.29427 24.8183 5.13021 24.6957 4.97443C24.5763 4.81865 24.4139 4.69105 24.2085 4.59162C24.003 4.49219 23.7461 4.44247 23.4379 4.44247C23.0169 4.44247 22.6656 4.53693 22.3839 4.72585C22.1022 4.91146 21.9613 5.15175 21.9613 5.44673C21.9613 5.70194 22.0558 5.90743 22.2447 6.06321C22.4336 6.21899 22.7385 6.34659 23.1594 6.44602L24.3725 6.72443C25.0752 6.88684 25.5988 7.13707 25.9435 7.47514C26.2882 7.81321 26.4606 8.25237 26.4606 8.79261C26.4606 9.25 26.328 9.65767 26.0629 10.0156C25.801 10.3703 25.4348 10.6487 24.9641 10.8509C24.4968 11.053 23.9549 11.1541 23.3384 11.1541C22.4833 11.1541 21.7856 10.9718 21.2454 10.6072C20.7051 10.2393 20.3737 9.71733 20.2511 9.04119L21.6879 8.82244C21.7773 9.19697 21.9613 9.48035 22.2397 9.67259C22.5181 9.86151 22.881 9.95597 23.3285 9.95597C23.8157 9.95597 24.2051 9.85488 24.4968 9.6527C24.7885 9.44721 24.9343 9.19697 24.9343 8.90199C24.9343 8.66335 24.8448 8.46283 24.6658 8.30043C24.4902 8.13802 24.2201 8.01539 23.8555 7.93253L22.5629 7.64915C21.8503 7.48674 21.3233 7.22822 20.9819 6.87358C20.6438 6.51894 20.4748 6.06984 20.4748 5.52628C20.4748 5.07552 20.6007 4.68111 20.8526 4.34304C21.1045 4.00497 21.4525 3.74148 21.8967 3.55256C22.3408 3.36032 22.8496 3.2642 23.4229 3.2642C24.2482 3.2642 24.8978 3.44318 25.3718 3.80114C25.8458 4.15578 26.159 4.63139 26.3114 5.22798ZM33.8173 5.22798L32.47 5.46662C32.4136 5.29427 32.3242 5.13021 32.2015 4.97443C32.0822 4.81865 31.9198 4.69105 31.7143 4.59162C31.5088 4.49219 31.252 4.44247 30.9437 4.44247C30.5228 4.44247 30.1715 4.53693 29.8897 4.72585C29.608 4.91146 29.4672 5.15175 29.4672 5.44673C29.4672 5.70194 29.5616 5.90743 29.7505 6.06321C29.9395 6.21899 30.2444 6.34659 30.6653 6.44602L31.8784 6.72443C32.581 6.88684 33.1047 7.13707 33.4494 7.47514C33.7941 7.81321 33.9664 8.25237 33.9664 8.79261C33.9664 9.25 33.8339 9.65767 33.5687 10.0156C33.3069 10.3703 32.9406 10.6487 32.47 10.8509C32.0027 11.053 31.4608 11.1541 30.8443 11.1541C29.9892 11.1541 29.2915 10.9718 28.7512 10.6072C28.211 10.2393 27.8796 9.71733 27.7569 9.04119L29.1937 8.82244C29.2832 9.19697 29.4672 9.48035 29.7456 9.67259C30.024 9.86151 30.3869 9.95597 30.8343 9.95597C31.3216 9.95597 31.711 9.85488 32.0027 9.6527C32.2943 9.44721 32.4402 9.19697 32.4402 8.90199C32.4402 8.66335 32.3507 8.46283 32.1717 8.30043C31.996 8.13802 31.7259 8.01539 31.3613 7.93253L30.0687 7.64915C29.3561 7.48674 28.8291 7.22822 28.4877 6.87358C28.1497 6.51894 27.9806 6.06984 27.9806 5.52628C27.9806 5.07552 28.1066 4.68111 28.3585 4.34304C28.6104 4.00497 28.9584 3.74148 29.4025 3.55256C29.8467 3.36032 30.3554 3.2642 30.9288 3.2642C31.7541 3.2642 32.4037 3.44318 32.8777 3.80114C33.3516 4.15578 33.6648 4.63139 33.8173 5.22798ZM37.8232 11.169C37.3393 11.169 36.9018 11.0795 36.5107 10.9006C36.1196 10.7183 35.8097 10.4548 35.581 10.1101C35.3556 9.76539 35.2429 9.3428 35.2429 8.84233C35.2429 8.41146 35.3258 8.05682 35.4915 7.77841C35.6572 7.5 35.8809 7.27959 36.1626 7.11719C36.4444 6.95478 36.7592 6.83215 37.1072 6.74929C37.4553 6.66643 37.8099 6.60346 38.1712 6.56037C38.6286 6.50734 38.9998 6.46425 39.2848 6.43111C39.5698 6.39465 39.777 6.33665 39.9062 6.2571C40.0355 6.17756 40.1001 6.0483 40.1001 5.86932V5.83452C40.1001 5.40033 39.9775 5.06392 39.7322 4.82528C39.4903 4.58665 39.129 4.46733 38.6484 4.46733C38.148 4.46733 37.7536 4.57836 37.4652 4.80043C37.1802 5.01918 36.983 5.26278 36.8736 5.53125L35.4766 5.21307C35.6423 4.74905 35.8842 4.37453 36.2024 4.08949C36.5239 3.80114 36.8935 3.59233 37.3111 3.46307C37.7287 3.33049 38.1679 3.2642 38.6286 3.2642C38.9335 3.2642 39.2566 3.30066 39.598 3.37358C39.9427 3.44318 40.2642 3.57244 40.5625 3.76136C40.8641 3.95028 41.111 4.22041 41.3033 4.57173C41.4955 4.91974 41.5916 5.37216 41.5916 5.92898V11H40.1399V9.95597H40.0803C39.9841 10.1482 39.84 10.3371 39.6477 10.5227C39.4555 10.7083 39.2086 10.8625 38.907 10.9851C38.6054 11.1077 38.2441 11.169 37.8232 11.169ZM38.1463 9.97585C38.5573 9.97585 38.9086 9.89465 39.2003 9.73224C39.4953 9.56984 39.719 9.35772 39.8714 9.09588C40.0272 8.83073 40.1051 8.54735 40.1051 8.24574V7.26136C40.0521 7.31439 39.9493 7.36411 39.7969 7.41051C39.6477 7.4536 39.477 7.49171 39.2848 7.52486C39.0926 7.55469 38.9053 7.58286 38.723 7.60938C38.5407 7.63258 38.3883 7.65246 38.2656 7.66903C37.9773 7.70549 37.7138 7.76681 37.4751 7.85298C37.2398 7.93916 37.0509 8.06345 36.9084 8.22585C36.7692 8.38494 36.6996 8.59706 36.6996 8.86222C36.6996 9.23011 36.8355 9.50852 37.1072 9.69744C37.379 9.88305 37.7254 9.97585 38.1463 9.97585ZM46.7733 14.0227C46.1667 14.0227 45.6447 13.9432 45.2072 13.7841C44.773 13.625 44.4184 13.4145 44.1433 13.1527C43.8682 12.8909 43.6627 12.6042 43.5268 12.2926L44.8045 11.7656C44.894 11.9115 45.0133 12.0656 45.1625 12.228C45.3149 12.3937 45.5204 12.5346 45.7789 12.6506C46.0408 12.7666 46.3772 12.8246 46.7882 12.8246C47.3516 12.8246 47.8173 12.687 48.1852 12.4119C48.5531 12.1402 48.737 11.706 48.737 11.1094V9.60795H48.6426C48.5531 9.77036 48.4238 9.95099 48.2548 10.1499C48.0891 10.3487 47.8604 10.5211 47.5687 10.6669C47.277 10.8127 46.8975 10.8857 46.4302 10.8857C45.827 10.8857 45.2834 10.7448 44.7995 10.4631C44.319 10.178 43.9378 9.75876 43.6561 9.20526C43.3777 8.64844 43.2385 7.96401 43.2385 7.15199C43.2385 6.33996 43.376 5.64394 43.6511 5.06392C43.9295 4.4839 44.3107 4.03977 44.7946 3.73153C45.2785 3.41998 45.827 3.2642 46.4402 3.2642C46.9141 3.2642 47.2969 3.34375 47.5886 3.50284C47.8803 3.65862 48.1073 3.84091 48.2697 4.04972C48.4354 4.25852 48.563 4.44247 48.6525 4.60156H48.7619V3.36364H50.2186V11.169C50.2186 11.8253 50.0661 12.3639 49.7612 12.7848C49.4563 13.2057 49.0436 13.5173 48.5233 13.7195C48.0062 13.9216 47.4229 14.0227 46.7733 14.0227ZM46.7583 9.6527C47.1859 9.6527 47.5472 9.55327 47.8422 9.3544C48.1404 9.15223 48.3658 8.86387 48.5183 8.48935C48.6741 8.11151 48.752 7.65909 48.752 7.1321C48.752 6.61837 48.6757 6.16596 48.5233 5.77486C48.3708 5.38376 48.1471 5.07884 47.8521 4.86009C47.5571 4.63802 47.1925 4.52699 46.7583 4.52699C46.3109 4.52699 45.938 4.64299 45.6397 4.875C45.3414 5.10369 45.1161 5.41525 44.9636 5.80966C44.8145 6.20407 44.7399 6.64489 44.7399 7.1321C44.7399 7.63258 44.8161 8.07173 44.9686 8.44957C45.121 8.82741 45.3464 9.1224 45.6447 9.33452C45.9463 9.54664 46.3175 9.6527 46.7583 9.6527ZM55.5034 11.1541C54.751 11.1541 54.103 10.9934 53.5595 10.6719C53.0192 10.3471 52.6016 9.89134 52.3066 9.30469C52.015 8.71473 51.8691 8.02367 51.8691 7.23153C51.8691 6.44934 52.015 5.75994 52.3066 5.16335C52.6016 4.56676 53.0126 4.10109 53.5396 3.76633C54.0699 3.43158 54.6897 3.2642 55.399 3.2642C55.8298 3.2642 56.2475 3.33546 56.6518 3.47798C57.0562 3.6205 57.4191 3.84422 57.7406 4.14915C58.0621 4.45407 58.3156 4.85014 58.5012 5.33736C58.6868 5.82126 58.7797 6.40956 58.7797 7.10227V7.62926H52.7093V6.51562H57.323C57.323 6.12453 57.2434 5.77817 57.0843 5.47656C56.9252 5.17164 56.7015 4.93134 56.4132 4.75568C56.1281 4.58002 55.7934 4.49219 55.4089 4.49219C54.9913 4.49219 54.6267 4.59493 54.3152 4.80043C54.0069 5.0026 53.7683 5.26776 53.5993 5.59588C53.4335 5.92069 53.3507 6.27367 53.3507 6.65483V7.52486C53.3507 8.03527 53.4402 8.46946 53.6191 8.82741C53.8014 9.18537 54.055 9.45881 54.3798 9.64773C54.7046 9.83333 55.0841 9.92614 55.5183 9.92614C55.8 9.92614 56.0569 9.88636 56.2889 9.80682C56.5209 9.72396 56.7214 9.60133 56.8904 9.43892C57.0595 9.27652 57.1887 9.07599 57.2782 8.83736L58.6852 9.09091C58.5725 9.50521 58.3703 9.86813 58.0787 10.1797C57.7903 10.4879 57.4274 10.7282 56.9899 10.9006C56.5557 11.0696 56.0602 11.1541 55.5034 11.1541ZM64.9283 6.05327V7.34091H60.4141V6.05327H64.9283ZM68.396 6.46591V11H66.9094V0.818182H68.3761V4.60653H68.4705C68.6495 4.19555 68.9229 3.86908 69.2908 3.62713C69.6587 3.38518 70.1393 3.2642 70.7326 3.2642C71.2563 3.2642 71.7137 3.37192 72.1048 3.58736C72.4992 3.80279 72.8041 4.12429 73.0195 4.55185C73.2383 4.97609 73.3477 5.50639 73.3477 6.14276V11H71.8612V6.32173C71.8612 5.7616 71.717 5.32741 71.4286 5.01918C71.1403 4.70762 70.7392 4.55185 70.2255 4.55185C69.8742 4.55185 69.5593 4.62642 69.2809 4.77557C69.0058 4.92472 68.7887 5.14347 68.6296 5.43182C68.4738 5.71686 68.396 6.06155 68.396 6.46591ZM78.6225 11.1541C77.8701 11.1541 77.2222 10.9934 76.6786 10.6719C76.1384 10.3471 75.7208 9.89134 75.4258 9.30469C75.1341 8.71473 74.9883 8.02367 74.9883 7.23153C74.9883 6.44934 75.1341 5.75994 75.4258 5.16335C75.7208 4.56676 76.1317 4.10109 76.6587 3.76633C77.189 3.43158 77.8088 3.2642 78.5181 3.2642C78.949 3.2642 79.3666 3.33546 79.771 3.47798C80.1753 3.6205 80.5382 3.84422 80.8597 4.14915C81.1812 4.45407 81.4348 4.85014 81.6204 5.33736C81.806 5.82126 81.8988 6.40956 81.8988 7.10227V7.62926H75.8285V6.51562H80.4421C80.4421 6.12453 80.3626 5.77817 80.2035 5.47656C80.0444 5.17164 79.8207 4.93134 79.5323 4.75568C79.2473 4.58002 78.9125 4.49219 78.5281 4.49219C78.1104 4.49219 77.7459 4.59493 77.4343 4.80043C77.1261 5.0026 76.8874 5.26776 76.7184 5.59588C76.5527 5.92069 76.4698 6.27367 76.4698 6.65483V7.52486C76.4698 8.03527 76.5593 8.46946 76.7383 8.82741C76.9206 9.18537 77.1741 9.45881 77.4989 9.64773C77.8237 9.83333 78.2032 9.92614 78.6374 9.92614C78.9192 9.92614 79.176 9.88636 79.408 9.80682C79.64 9.72396 79.8406 9.60133 80.0096 9.43892C80.1786 9.27652 80.3079 9.07599 80.3974 8.83736L81.8043 9.09091C81.6916 9.50521 81.4895 9.86813 81.1978 10.1797C80.9094 10.4879 80.5465 10.7282 80.109 10.9006C79.6748 11.0696 79.1793 11.1541 78.6225 11.1541ZM85.7704 11.169C85.2865 11.169 84.849 11.0795 84.4579 10.9006C84.0668 10.7183 83.7569 10.4548 83.5282 10.1101C83.3029 9.76539 83.1902 9.3428 83.1902 8.84233C83.1902 8.41146 83.273 8.05682 83.4387 7.77841C83.6045 7.5 83.8282 7.27959 84.1099 7.11719C84.3916 6.95478 84.7065 6.83215 85.0545 6.74929C85.4025 6.66643 85.7572 6.60346 86.1184 6.56037C86.5758 6.50734 86.947 6.46425 87.2321 6.43111C87.5171 6.39465 87.7243 6.33665 87.8535 6.2571C87.9828 6.17756 88.0474 6.0483 88.0474 5.86932V5.83452C88.0474 5.40033 87.9248 5.06392 87.6795 4.82528C87.4376 4.58665 87.0763 4.46733 86.5957 4.46733C86.0952 4.46733 85.7008 4.57836 85.4125 4.80043C85.1274 5.01918 84.9302 5.26278 84.8208 5.53125L83.4238 5.21307C83.5895 4.74905 83.8315 4.37453 84.1497 4.08949C84.4712 3.80114 84.8407 3.59233 85.2583 3.46307C85.676 3.33049 86.1151 3.2642 86.5758 3.2642C86.8807 3.2642 87.2039 3.30066 87.5453 3.37358C87.89 3.44318 88.2115 3.57244 88.5098 3.76136C88.8114 3.95028 89.0583 4.22041 89.2505 4.57173C89.4428 4.91974 89.5389 5.37216 89.5389 5.92898V11H88.0872V9.95597H88.0275C87.9314 10.1482 87.7872 10.3371 87.595 10.5227C87.4028 10.7083 87.1558 10.8625 86.8542 10.9851C86.5526 11.1077 86.1913 11.169 85.7704 11.169ZM86.0936 9.97585C86.5046 9.97585 86.8559 9.89465 87.1475 9.73224C87.4425 9.56984 87.6663 9.35772 87.8187 9.09588C87.9745 8.83073 88.0524 8.54735 88.0524 8.24574V7.26136C87.9993 7.31439 87.8966 7.36411 87.7441 7.41051C87.595 7.4536 87.4243 7.49171 87.2321 7.52486C87.0398 7.55469 86.8526 7.58286 86.6703 7.60938C86.488 7.63258 86.3355 7.65246 86.2129 7.66903C85.9245 7.70549 85.661 7.76681 85.4224 7.85298C85.1871 7.93916 84.9982 8.06345 84.8556 8.22585C84.7164 8.38494 84.6468 8.59706 84.6468 8.86222C84.6468 9.23011 84.7827 9.50852 85.0545 9.69744C85.3263 9.88305 85.6726 9.97585 86.0936 9.97585ZM91.5188 11V3.36364H92.9556V4.5767H93.0352C93.1744 4.16572 93.4196 3.84257 93.771 3.60724C94.1256 3.36861 94.5266 3.24929 94.9741 3.24929C95.0669 3.24929 95.1763 3.2526 95.3022 3.25923C95.4315 3.26586 95.5326 3.27415 95.6055 3.28409V4.70597C95.5458 4.68939 95.4397 4.67116 95.2873 4.65128C95.1348 4.62808 94.9824 4.61648 94.8299 4.61648C94.4786 4.61648 94.1654 4.69105 93.8903 4.8402C93.6185 4.98603 93.4031 5.18987 93.244 5.4517C93.0849 5.71023 93.0053 6.00521 93.0053 6.33665V11H91.5188ZM100.908 3.36364V4.55682H96.7365V3.36364H100.908ZM97.8551 1.53409H99.3416V8.75781C99.3416 9.04616 99.3847 9.26326 99.4709 9.40909C99.5571 9.55161 99.6681 9.64938 99.804 9.70241C99.9432 9.75213 100.094 9.77699 100.256 9.77699C100.376 9.77699 100.48 9.7687 100.57 9.75213C100.659 9.73556 100.729 9.7223 100.778 9.71236L101.047 10.9403C100.961 10.9735 100.838 11.0066 100.679 11.0398C100.52 11.0762 100.321 11.0961 100.082 11.0994C99.6913 11.1061 99.3267 11.0365 98.9886 10.8906C98.6506 10.7448 98.3771 10.5194 98.1683 10.2145C97.9595 9.90956 97.8551 9.52675 97.8551 9.06605V1.53409ZM106.792 6.05327V7.34091H102.277V6.05327H106.792ZM111.989 11.1541C111.25 11.1541 110.614 10.9867 110.08 10.652C109.55 10.3139 109.142 9.84825 108.857 9.25497C108.572 8.66169 108.43 7.98224 108.43 7.21662C108.43 6.44105 108.576 5.75663 108.867 5.16335C109.159 4.56676 109.57 4.10109 110.1 3.76633C110.63 3.43158 111.255 3.2642 111.974 3.2642C112.554 3.2642 113.071 3.37192 113.526 3.58736C113.98 3.79948 114.346 4.09777 114.624 4.48224C114.906 4.86671 115.073 5.31581 115.126 5.82955H113.68C113.6 5.47159 113.418 5.16335 113.133 4.90483C112.851 4.64631 112.473 4.51705 111.999 4.51705C111.585 4.51705 111.222 4.62642 110.911 4.84517C110.602 5.06061 110.362 5.36884 110.19 5.76989C110.017 6.16761 109.931 6.63826 109.931 7.18182C109.931 7.73864 110.016 8.21922 110.185 8.62358C110.354 9.02794 110.592 9.34115 110.901 9.56321C111.212 9.78527 111.578 9.89631 111.999 9.89631C112.281 9.89631 112.536 9.84493 112.765 9.74219C112.997 9.63613 113.191 9.48532 113.347 9.28977C113.506 9.09422 113.617 8.8589 113.68 8.58381H115.126C115.073 9.07765 114.913 9.51847 114.644 9.90625C114.376 10.294 114.016 10.599 113.565 10.821C113.118 11.0431 112.593 11.1541 111.989 11.1541ZM116.716 11V3.36364H118.203V11H116.716ZM117.467 2.18537C117.208 2.18537 116.986 2.09919 116.801 1.92685C116.618 1.75118 116.527 1.54238 116.527 1.30043C116.527 1.05516 116.618 0.846354 116.801 0.674005C116.986 0.498342 117.208 0.410511 117.467 0.410511C117.725 0.410511 117.946 0.498342 118.128 0.674005C118.314 0.846354 118.406 1.05516 118.406 1.30043C118.406 1.54238 118.314 1.75118 118.128 1.92685C117.946 2.09919 117.725 2.18537 117.467 2.18537ZM120.202 11V3.36364H121.639V4.5767H121.719C121.858 4.16572 122.103 3.84257 122.455 3.60724C122.809 3.36861 123.21 3.24929 123.658 3.24929C123.75 3.24929 123.86 3.2526 123.986 3.25923C124.115 3.26586 124.216 3.27415 124.289 3.28409V4.70597C124.229 4.68939 124.123 4.67116 123.971 4.65128C123.818 4.62808 123.666 4.61648 123.513 4.61648C123.162 4.61648 122.849 4.69105 122.574 4.8402C122.302 4.98603 122.087 5.18987 121.928 5.4517C121.768 5.71023 121.689 6.00521 121.689 6.33665V11H120.202ZM128.519 11.1541C127.78 11.1541 127.143 10.9867 126.61 10.652C126.079 10.3139 125.672 9.84825 125.387 9.25497C125.102 8.66169 124.959 7.98224 124.959 7.21662C124.959 6.44105 125.105 5.75663 125.396 5.16335C125.688 4.56676 126.099 4.10109 126.629 3.76633C127.16 3.43158 127.785 3.2642 128.504 3.2642C129.084 3.2642 129.601 3.37192 130.055 3.58736C130.509 3.79948 130.875 4.09777 131.154 4.48224C131.435 4.86671 131.603 5.31581 131.656 5.82955H130.209C130.129 5.47159 129.947 5.16335 129.662 4.90483C129.38 4.64631 129.003 4.51705 128.529 4.51705C128.114 4.51705 127.751 4.62642 127.44 4.84517C127.132 5.06061 126.891 5.36884 126.719 5.76989C126.547 6.16761 126.46 6.63826 126.46 7.18182C126.46 7.73864 126.545 8.21922 126.714 8.62358C126.883 9.02794 127.122 9.34115 127.43 9.56321C127.741 9.78527 128.108 9.89631 128.529 9.89631C128.81 9.89631 129.066 9.84493 129.294 9.74219C129.526 9.63613 129.72 9.48532 129.876 9.28977C130.035 9.09422 130.146 8.8589 130.209 8.58381H131.656C131.603 9.07765 131.442 9.51847 131.173 9.90625C130.905 10.294 130.545 10.599 130.095 10.821C129.647 11.0431 129.122 11.1541 128.519 11.1541ZM134.732 0.818182V11H133.245V0.818182H134.732ZM140.023 11.1541C139.271 11.1541 138.623 10.9934 138.079 10.6719C137.539 10.3471 137.121 9.89134 136.826 9.30469C136.535 8.71473 136.389 8.02367 136.389 7.23153C136.389 6.44934 136.535 5.75994 136.826 5.16335C137.121 4.56676 137.532 4.10109 138.059 3.76633C138.589 3.43158 139.209 3.2642 139.919 3.2642C140.349 3.2642 140.767 3.33546 141.171 3.47798C141.576 3.6205 141.939 3.84422 142.26 4.14915C142.582 4.45407 142.835 4.85014 143.021 5.33736C143.206 5.82126 143.299 6.40956 143.299 7.10227V7.62926H137.229V6.51562H141.843C141.843 6.12453 141.763 5.77817 141.604 5.47656C141.445 5.17164 141.221 4.93134 140.933 4.75568C140.648 4.58002 140.313 4.49219 139.928 4.49219C139.511 4.49219 139.146 4.59493 138.835 4.80043C138.526 5.0026 138.288 5.26776 138.119 5.59588C137.953 5.92069 137.87 6.27367 137.87 6.65483V7.52486C137.87 8.03527 137.96 8.46946 138.139 8.82741C138.321 9.18537 138.575 9.45881 138.899 9.64773C139.224 9.83333 139.604 9.92614 140.038 9.92614C140.32 9.92614 140.576 9.88636 140.808 9.80682C141.04 9.72396 141.241 9.60133 141.41 9.43892C141.579 9.27652 141.708 9.07599 141.798 8.83736L143.205 9.09091C143.092 9.50521 142.89 9.86813 142.598 10.1797C142.31 10.4879 141.947 10.7282 141.509 10.9006C141.075 11.0696 140.58 11.1541 140.023 11.1541Z" fill="black"/>
</svg>
