<svg width="88" height="14" viewBox="0 0 88 14" fill="none" xmlns="http://www.w3.org/2000/svg">
<path d="M-0.000710189 13.8636V3.36364H1.45099V4.60156H1.57528C1.66146 4.44247 1.78575 4.25852 1.94815 4.04972C2.11056 3.84091 2.33594 3.65862 2.62429 3.50284C2.91264 3.34375 3.2938 3.2642 3.76776 3.2642C4.38423 3.2642 4.93442 3.41998 5.41832 3.73153C5.90223 4.04309 6.28172 4.49219 6.55682 5.07884C6.83523 5.66548 6.97443 6.37145 6.97443 7.19673C6.97443 8.02202 6.83688 8.72964 6.56179 9.3196C6.2867 9.90625 5.90885 10.3587 5.42827 10.6768C4.94768 10.9917 4.39915 11.1491 3.78267 11.1491C3.31866 11.1491 2.93916 11.0713 2.64418 10.9155C2.35251 10.7597 2.12382 10.5774 1.9581 10.3686C1.79238 10.1598 1.66477 9.9742 1.57528 9.81179H1.4858V13.8636H-0.000710189ZM1.45597 7.18182C1.45597 7.71875 1.53385 8.18939 1.68963 8.59375C1.84541 8.99811 2.07079 9.31463 2.36577 9.54332C2.66075 9.7687 3.02202 9.88139 3.44957 9.88139C3.8937 9.88139 4.26491 9.76373 4.56321 9.52841C4.86151 9.28977 5.08688 8.96662 5.23935 8.55895C5.39512 8.15128 5.47301 7.69223 5.47301 7.18182C5.47301 6.67803 5.39678 6.22562 5.24432 5.82457C5.09517 5.42353 4.86979 5.10701 4.56818 4.875C4.26989 4.64299 3.89702 4.52699 3.44957 4.52699C3.0187 4.52699 2.65412 4.63802 2.35582 4.86009C2.06084 5.08215 1.83712 5.39205 1.68466 5.78977C1.5322 6.1875 1.45597 6.65151 1.45597 7.18182ZM10.1264 6.46591V11H8.63991V0.818182H10.1065V4.60653H10.201C10.38 4.19555 10.6534 3.86908 11.0213 3.62713C11.3892 3.38518 11.8698 3.2642 12.4631 3.2642C12.9867 3.2642 13.4441 3.37192 13.8352 3.58736C14.2296 3.80279 14.5346 4.12429 14.75 4.55185C14.9688 4.97609 15.0781 5.50639 15.0781 6.14276V11H13.5916V6.32173C13.5916 5.7616 13.4474 5.32741 13.1591 5.01918C12.8707 4.70762 12.4697 4.55185 11.956 4.55185C11.6046 4.55185 11.2898 4.62642 11.0114 4.77557C10.7363 4.92472 10.5192 5.14347 10.3601 5.43182C10.2043 5.71686 10.1264 6.06155 10.1264 6.46591ZM20.2784 11.1541C19.5625 11.1541 18.9377 10.9901 18.4041 10.6619C17.8705 10.3338 17.4562 9.87476 17.1612 9.2848C16.8662 8.69484 16.7188 8.00544 16.7188 7.21662C16.7188 6.42448 16.8662 5.73177 17.1612 5.13849C17.4562 4.54522 17.8705 4.08452 18.4041 3.75639C18.9377 3.42827 19.5625 3.2642 20.2784 3.2642C20.9943 3.2642 21.6191 3.42827 22.1527 3.75639C22.6863 4.08452 23.1006 4.54522 23.3956 5.13849C23.6906 5.73177 23.8381 6.42448 23.8381 7.21662C23.8381 8.00544 23.6906 8.69484 23.3956 9.2848C23.1006 9.87476 22.6863 10.3338 22.1527 10.6619C21.6191 10.9901 20.9943 11.1541 20.2784 11.1541ZM20.2834 9.90625C20.7474 9.90625 21.1319 9.78362 21.4368 9.53835C21.7417 9.29309 21.9671 8.96662 22.1129 8.55895C22.2621 8.15128 22.3366 7.70218 22.3366 7.21165C22.3366 6.72443 22.2621 6.27699 22.1129 5.86932C21.9671 5.45833 21.7417 5.12855 21.4368 4.87997C21.1319 4.63139 20.7474 4.5071 20.2834 4.5071C19.8161 4.5071 19.4283 4.63139 19.12 4.87997C18.8151 5.12855 18.5881 5.45833 18.4389 5.86932C18.2931 6.27699 18.2202 6.72443 18.2202 7.21165C18.2202 7.70218 18.2931 8.15128 18.4389 8.55895C18.5881 8.96662 18.8151 9.29309 19.12 9.53835C19.4283 9.78362 19.8161 9.90625 20.2834 9.90625ZM26.9838 6.46591V11H25.4973V3.36364H26.9242V4.60653H27.0186C27.1943 4.20218 27.4694 3.87737 27.8439 3.6321C28.2218 3.38684 28.6974 3.2642 29.2708 3.2642C29.7911 3.2642 30.2469 3.37358 30.638 3.59233C31.0291 3.80777 31.3323 4.12926 31.5478 4.55682C31.7632 4.98437 31.8709 5.51302 31.8709 6.14276V11H30.3844V6.32173C30.3844 5.76823 30.2402 5.3357 29.9519 5.02415C29.6635 4.70928 29.2675 4.55185 28.7637 4.55185C28.419 4.55185 28.1124 4.62642 27.8439 4.77557C27.5788 4.92472 27.3683 5.14347 27.2125 5.43182C27.0601 5.71686 26.9838 6.06155 26.9838 6.46591ZM37.1557 11.1541C36.4033 11.1541 35.7554 10.9934 35.2118 10.6719C34.6716 10.3471 34.254 9.89134 33.959 9.30469C33.6673 8.71473 33.5215 8.02367 33.5215 7.23153C33.5215 6.44934 33.6673 5.75994 33.959 5.16335C34.254 4.56676 34.665 4.10109 35.1919 3.76633C35.7222 3.43158 36.342 3.2642 37.0513 3.2642C37.4822 3.2642 37.8998 3.33546 38.3042 3.47798C38.7085 3.6205 39.0714 3.84422 39.3929 4.14915C39.7144 4.45407 39.968 4.85014 40.1536 5.33736C40.3392 5.82126 40.432 6.40956 40.432 7.10227V7.62926H34.3617V6.51562H38.9753C38.9753 6.12453 38.8958 5.77817 38.7367 5.47656C38.5776 5.17164 38.3539 4.93134 38.0655 4.75568C37.7805 4.58002 37.4457 4.49219 37.0613 4.49219C36.6436 4.49219 36.2791 4.59493 35.9675 4.80043C35.6593 5.0026 35.4206 5.26776 35.2516 5.59588C35.0859 5.92069 35.003 6.27367 35.003 6.65483V7.52486C35.003 8.03527 35.0925 8.46946 35.2715 8.82741C35.4538 9.18537 35.7073 9.45881 36.0321 9.64773C36.3569 9.83333 36.7364 9.92614 37.1706 9.92614C37.4524 9.92614 37.7092 9.88636 37.9412 9.80682C38.1732 9.72396 38.3738 9.60133 38.5428 9.43892C38.7118 9.27652 38.8411 9.07599 38.9306 8.83736L40.3375 9.09091C40.2248 9.50521 40.0227 9.86813 39.731 10.1797C39.4426 10.4879 39.0797 10.7282 38.6422 10.9006C38.208 11.0696 37.7125 11.1541 37.1557 11.1541ZM46.5806 6.05327V7.34091H42.0664V6.05327H46.5806ZM48.5618 13.8636V3.36364H50.0135V4.60156H50.1378C50.224 4.44247 50.3482 4.25852 50.5107 4.04972C50.6731 3.84091 50.8984 3.65862 51.1868 3.50284C51.4751 3.34375 51.8563 3.2642 52.3303 3.2642C52.9467 3.2642 53.4969 3.41998 53.9808 3.73153C54.4647 4.04309 54.8442 4.49219 55.1193 5.07884C55.3977 5.66548 55.5369 6.37145 55.5369 7.19673C55.5369 8.02202 55.3994 8.72964 55.1243 9.3196C54.8492 9.90625 54.4714 10.3587 53.9908 10.6768C53.5102 10.9917 52.9616 11.1491 52.3452 11.1491C51.8812 11.1491 51.5017 11.0713 51.2067 10.9155C50.915 10.7597 50.6863 10.5774 50.5206 10.3686C50.3549 10.1598 50.2273 9.9742 50.1378 9.81179H50.0483V13.8636H48.5618ZM50.0185 7.18182C50.0185 7.71875 50.0964 8.18939 50.2521 8.59375C50.4079 8.99811 50.6333 9.31463 50.9283 9.54332C51.2232 9.7687 51.5845 9.88139 52.0121 9.88139C52.4562 9.88139 52.8274 9.76373 53.1257 9.52841C53.424 9.28977 53.6494 8.96662 53.8018 8.55895C53.9576 8.15128 54.0355 7.69223 54.0355 7.18182C54.0355 6.67803 53.9593 6.22562 53.8068 5.82457C53.6577 5.42353 53.4323 5.10701 53.1307 4.875C52.8324 4.64299 52.4595 4.52699 52.0121 4.52699C51.5812 4.52699 51.2166 4.63802 50.9183 4.86009C50.6233 5.08215 50.3996 5.39205 50.2472 5.78977C50.0947 6.1875 50.0185 6.65151 50.0185 7.18182ZM59.4247 11.169C58.9408 11.169 58.5033 11.0795 58.1122 10.9006C57.7211 10.7183 57.4112 10.4548 57.1825 10.1101C56.9571 9.76539 56.8445 9.3428 56.8445 8.84233C56.8445 8.41146 56.9273 8.05682 57.093 7.77841C57.2588 7.5 57.4825 7.27959 57.7642 7.11719C58.0459 6.95478 58.3608 6.83215 58.7088 6.74929C59.0568 6.66643 59.4115 6.60346 59.7727 6.56037C60.2301 6.50734 60.6013 6.46425 60.8864 6.43111C61.1714 6.39465 61.3786 6.33665 61.5078 6.2571C61.6371 6.17756 61.7017 6.0483 61.7017 5.86932V5.83452C61.7017 5.40033 61.5791 5.06392 61.3338 4.82528C61.0919 4.58665 60.7306 4.46733 60.25 4.46733C59.7495 4.46733 59.3551 4.57836 59.0668 4.80043C58.7817 5.01918 58.5845 5.26278 58.4751 5.53125L57.0781 5.21307C57.2438 4.74905 57.4858 4.37453 57.804 4.08949C58.1255 3.80114 58.495 3.59233 58.9126 3.46307C59.3303 3.33049 59.7694 3.2642 60.2301 3.2642C60.535 3.2642 60.8582 3.30066 61.1996 3.37358C61.5443 3.44318 61.8658 3.57244 62.1641 3.76136C62.4657 3.95028 62.7126 4.22041 62.9048 4.57173C63.0971 4.91974 63.1932 5.37216 63.1932 5.92898V11H61.7415V9.95597H61.6818C61.5857 10.1482 61.4415 10.3371 61.2493 10.5227C61.0571 10.7083 60.8101 10.8625 60.5085 10.9851C60.2069 11.1077 59.8456 11.169 59.4247 11.169ZM59.7479 9.97585C60.1589 9.97585 60.5102 9.89465 60.8018 9.73224C61.0968 9.56984 61.3205 9.35772 61.473 9.09588C61.6288 8.83073 61.7067 8.54735 61.7067 8.24574V7.26136C61.6536 7.31439 61.5509 7.36411 61.3984 7.41051C61.2493 7.4536 61.0786 7.49171 60.8864 7.52486C60.6941 7.55469 60.5069 7.58286 60.3246 7.60938C60.1423 7.63258 59.9898 7.65246 59.8672 7.66903C59.5788 7.70549 59.3153 7.76681 59.0767 7.85298C58.8414 7.93916 58.6525 8.06345 58.5099 8.22585C58.3707 8.38494 58.3011 8.59706 58.3011 8.86222C58.3011 9.23011 58.437 9.50852 58.7088 9.69744C58.9806 9.88305 59.3269 9.97585 59.7479 9.97585ZM70.0105 7.8331V3.36364H71.502V11H70.0403V9.67756H69.9608C69.7851 10.0852 69.5034 10.425 69.1156 10.6967C68.7311 10.9652 68.2522 11.0994 67.6788 11.0994C67.1883 11.0994 66.7541 10.9917 66.3762 10.7763C66.0017 10.5575 65.7067 10.2344 65.4913 9.80682C65.2792 9.37926 65.1731 8.85062 65.1731 8.22088V3.36364H66.6596V8.0419C66.6596 8.56226 66.8038 8.97656 67.0922 9.2848C67.3805 9.59304 67.755 9.74716 68.2157 9.74716C68.4941 9.74716 68.7709 9.67756 69.046 9.53835C69.3244 9.39915 69.5547 9.18868 69.737 8.90696C69.9226 8.62524 70.0138 8.26728 70.0105 7.8331ZM79.2216 5.22798L77.8743 5.46662C77.8179 5.29427 77.7285 5.13021 77.6058 4.97443C77.4865 4.81865 77.3241 4.69105 77.1186 4.59162C76.9131 4.49219 76.6563 4.44247 76.348 4.44247C75.9271 4.44247 75.5758 4.53693 75.294 4.72585C75.0123 4.91146 74.8714 5.15175 74.8714 5.44673C74.8714 5.70194 74.9659 5.90743 75.1548 6.06321C75.3438 6.21899 75.6487 6.34659 76.0696 6.44602L77.2827 6.72443C77.9853 6.88684 78.509 7.13707 78.8537 7.47514C79.1984 7.81321 79.3707 8.25237 79.3707 8.79261C79.3707 9.25 79.2382 9.65767 78.973 10.0156C78.7112 10.3703 78.3449 10.6487 77.8743 10.8509C77.407 11.053 76.8651 11.1541 76.2486 11.1541C75.3935 11.1541 74.6958 10.9718 74.1555 10.6072C73.6153 10.2393 73.2839 9.71733 73.1612 9.04119L74.598 8.82244C74.6875 9.19697 74.8714 9.48035 75.1499 9.67259C75.4283 9.86151 75.7912 9.95597 76.2386 9.95597C76.7259 9.95597 77.1153 9.85488 77.407 9.6527C77.6986 9.44721 77.8445 9.19697 77.8445 8.90199C77.8445 8.66335 77.755 8.46283 77.576 8.30043C77.4003 8.13802 77.1302 8.01539 76.7656 7.93253L75.473 7.64915C74.7604 7.48674 74.2334 7.22822 73.892 6.87358C73.554 6.51894 73.3849 6.06984 73.3849 5.52628C73.3849 5.07552 73.5109 4.68111 73.7628 4.34304C74.0147 4.00497 74.3627 3.74148 74.8068 3.55256C75.2509 3.36032 75.7597 3.2642 76.3331 3.2642C77.1584 3.2642 77.808 3.44318 78.282 3.80114C78.7559 4.15578 79.0691 4.63139 79.2216 5.22798ZM84.2963 11.1541C83.544 11.1541 82.896 10.9934 82.3525 10.6719C81.8122 10.3471 81.3946 9.89134 81.0996 9.30469C80.8079 8.71473 80.6621 8.02367 80.6621 7.23153C80.6621 6.44934 80.8079 5.75994 81.0996 5.16335C81.3946 4.56676 81.8056 4.10109 82.3326 3.76633C82.8629 3.43158 83.4827 3.2642 84.1919 3.2642C84.6228 3.2642 85.0404 3.33546 85.4448 3.47798C85.8491 3.6205 86.2121 3.84422 86.5336 4.14915C86.8551 4.45407 87.1086 4.85014 87.2942 5.33736C87.4798 5.82126 87.5726 6.40956 87.5726 7.10227V7.62926H81.5023V6.51562H86.1159C86.1159 6.12453 86.0364 5.77817 85.8773 5.47656C85.7182 5.17164 85.4945 4.93134 85.2061 4.75568C84.9211 4.58002 84.5864 4.49219 84.2019 4.49219C83.7843 4.49219 83.4197 4.59493 83.1081 4.80043C82.7999 5.0026 82.5613 5.26776 82.3922 5.59588C82.2265 5.92069 82.1436 6.27367 82.1436 6.65483V7.52486C82.1436 8.03527 82.2331 8.46946 82.4121 8.82741C82.5944 9.18537 82.848 9.45881 83.1728 9.64773C83.4976 9.83333 83.8771 9.92614 84.3113 9.92614C84.593 9.92614 84.8498 9.88636 85.0819 9.80682C85.3139 9.72396 85.5144 9.60133 85.6834 9.43892C85.8525 9.27652 85.9817 9.07599 86.0712 8.83736L87.4782 9.09091C87.3655 9.50521 87.1633 9.86813 86.8716 10.1797C86.5833 10.4879 86.2203 10.7282 85.7828 10.9006C85.3487 11.0696 84.8532 11.1541 84.2963 11.1541Z" fill="black"/>
</svg>
