<svg width="94" height="12" viewBox="0 0 94 12" fill="none" xmlns="http://www.w3.org/2000/svg">
<path d="M4.21591 11.1541C3.4768 11.1541 2.84044 10.9867 2.30682 10.652C1.77652 10.3139 1.36884 9.84825 1.08381 9.25497C0.798769 8.66169 0.65625 7.98224 0.65625 7.21662C0.65625 6.44105 0.802083 5.75663 1.09375 5.16335C1.38542 4.56676 1.7964 4.10109 2.3267 3.76633C2.85701 3.43158 3.48177 3.2642 4.20099 3.2642C4.78101 3.2642 5.29806 3.37192 5.75213 3.58736C6.2062 3.79948 6.57244 4.09777 6.85085 4.48224C7.13258 4.86671 7.29995 5.31581 7.35298 5.82955H5.90625C5.8267 5.47159 5.64441 5.16335 5.35938 4.90483C5.07765 4.64631 4.69981 4.51705 4.22585 4.51705C3.81155 4.51705 3.44863 4.62642 3.13707 4.84517C2.82884 5.06061 2.58854 5.36884 2.41619 5.76989C2.24384 6.16761 2.15767 6.63826 2.15767 7.18182C2.15767 7.73864 2.24219 8.21922 2.41122 8.62358C2.58026 9.02794 2.81889 9.34115 3.12713 9.56321C3.43868 9.78527 3.80492 9.89631 4.22585 9.89631C4.50758 9.89631 4.76278 9.84493 4.99148 9.74219C5.22349 9.63613 5.41738 9.48532 5.57315 9.28977C5.73224 9.09422 5.84328 8.8589 5.90625 8.58381H7.35298C7.29995 9.07765 7.1392 9.51847 6.87074 9.90625C6.60227 10.294 6.24266 10.599 5.7919 10.821C5.34446 11.0431 4.81913 11.1541 4.21591 11.1541ZM11.165 11.169C10.681 11.169 10.2435 11.0795 9.85245 10.9006C9.46135 10.7183 9.15146 10.4548 8.92276 10.1101C8.69738 9.76539 8.58469 9.3428 8.58469 8.84233C8.58469 8.41146 8.66755 8.05682 8.83327 7.77841C8.99899 7.5 9.22272 7.27959 9.50444 7.11719C9.78616 6.95478 10.101 6.83215 10.449 6.74929C10.7971 6.66643 11.1517 6.60346 11.513 6.56037C11.9703 6.50734 12.3416 6.46425 12.6266 6.43111C12.9116 6.39465 13.1188 6.33665 13.248 6.2571C13.3773 6.17756 13.4419 6.0483 13.4419 5.86932V5.83452C13.4419 5.40033 13.3193 5.06392 13.074 4.82528C12.8321 4.58665 12.4708 4.46733 11.9902 4.46733C11.4898 4.46733 11.0953 4.57836 10.807 4.80043C10.522 5.01918 10.3248 5.26278 10.2154 5.53125L8.81836 5.21307C8.98408 4.74905 9.22603 4.37453 9.54421 4.08949C9.86571 3.80114 10.2353 3.59233 10.6529 3.46307C11.0705 3.33049 11.5096 3.2642 11.9703 3.2642C12.2753 3.2642 12.5984 3.30066 12.9398 3.37358C13.2845 3.44318 13.606 3.57244 13.9043 3.76136C14.2059 3.95028 14.4528 4.22041 14.6451 4.57173C14.8373 4.91974 14.9334 5.37216 14.9334 5.92898V11H13.4817V9.95597H13.4221C13.3259 10.1482 13.1818 10.3371 12.9895 10.5227C12.7973 10.7083 12.5504 10.8625 12.2488 10.9851C11.9471 11.1077 11.5859 11.169 11.165 11.169ZM11.4881 9.97585C11.8991 9.97585 12.2504 9.89465 12.5421 9.73224C12.8371 9.56984 13.0608 9.35772 13.2132 9.09588C13.369 8.83073 13.4469 8.54735 13.4469 8.24574V7.26136C13.3939 7.31439 13.2911 7.36411 13.1387 7.41051C12.9895 7.4536 12.8188 7.49171 12.6266 7.52486C12.4344 7.55469 12.2471 7.58286 12.0648 7.60938C11.8825 7.63258 11.7301 7.65246 11.6074 7.66903C11.3191 7.70549 11.0556 7.76681 10.8169 7.85298C10.5816 7.93916 10.3927 8.06345 10.2502 8.22585C10.111 8.38494 10.0414 8.59706 10.0414 8.86222C10.0414 9.23011 10.1773 9.50852 10.449 9.69744C10.7208 9.88305 11.0672 9.97585 11.4881 9.97585ZM18.3999 0.818182V11H16.9134V0.818182H18.3999ZM23.6909 11.1541C22.9385 11.1541 22.2905 10.9934 21.747 10.6719C21.2067 10.3471 20.7891 9.89134 20.4941 9.30469C20.2025 8.71473 20.0566 8.02367 20.0566 7.23153C20.0566 6.44934 20.2025 5.75994 20.4941 5.16335C20.7891 4.56676 21.2001 4.10109 21.7271 3.76633C22.2574 3.43158 22.8772 3.2642 23.5865 3.2642C24.0173 3.2642 24.435 3.33546 24.8393 3.47798C25.2437 3.6205 25.6066 3.84422 25.9281 4.14915C26.2496 4.45407 26.5031 4.85014 26.6887 5.33736C26.8743 5.82126 26.9672 6.40956 26.9672 7.10227V7.62926H20.8968V6.51562H25.5105C25.5105 6.12453 25.4309 5.77817 25.2718 5.47656C25.1127 5.17164 24.889 4.93134 24.6007 4.75568C24.3156 4.58002 23.9809 4.49219 23.5964 4.49219C23.1788 4.49219 22.8142 4.59493 22.5027 4.80043C22.1944 5.0026 21.9558 5.26776 21.7868 5.59588C21.621 5.92069 21.5382 6.27367 21.5382 6.65483V7.52486C21.5382 8.03527 21.6277 8.46946 21.8066 8.82741C21.9889 9.18537 22.2425 9.45881 22.5673 9.64773C22.8921 9.83333 23.2716 9.92614 23.7058 9.92614C23.9875 9.92614 24.2444 9.88636 24.4764 9.80682C24.7084 9.72396 24.9089 9.60133 25.0779 9.43892C25.247 9.27652 25.3762 9.07599 25.4657 8.83736L26.8727 9.09091C26.76 9.50521 26.5578 9.86813 26.2662 10.1797C25.9778 10.4879 25.6149 10.7282 25.1774 10.9006C24.7432 11.0696 24.2477 11.1541 23.6909 11.1541ZM30.103 6.46591V11H28.6165V3.36364H30.0433V4.60653H30.1378C30.3134 4.20218 30.5885 3.87737 30.9631 3.6321C31.3409 3.38684 31.8165 3.2642 32.3899 3.2642C32.9103 3.2642 33.366 3.37358 33.7571 3.59233C34.1482 3.80777 34.4515 4.12926 34.6669 4.55682C34.8823 4.98437 34.9901 5.51302 34.9901 6.14276V11H33.5036V6.32173C33.5036 5.76823 33.3594 5.3357 33.071 5.02415C32.7827 4.70928 32.3866 4.55185 31.8828 4.55185C31.5381 4.55185 31.2315 4.62642 30.9631 4.77557C30.6979 4.92472 30.4875 5.14347 30.3317 5.43182C30.1792 5.71686 30.103 6.06155 30.103 6.46591ZM39.8423 11.1491C39.2259 11.1491 38.6757 10.9917 38.1918 10.6768C37.7112 10.3587 37.3333 9.90625 37.0582 9.3196C36.7865 8.72964 36.6506 8.02202 36.6506 7.19673C36.6506 6.37145 36.7881 5.66548 37.0632 5.07884C37.3416 4.49219 37.7228 4.04309 38.2067 3.73153C38.6906 3.41998 39.2391 3.2642 39.8523 3.2642C40.3262 3.2642 40.7074 3.34375 40.9957 3.50284C41.2874 3.65862 41.5128 3.84091 41.6719 4.04972C41.8343 4.25852 41.9602 4.44247 42.0497 4.60156H42.1392V0.818182H43.6257V11H42.174V9.81179H42.0497C41.9602 9.9742 41.831 10.1598 41.6619 10.3686C41.4962 10.5774 41.2675 10.7597 40.9759 10.9155C40.6842 11.0713 40.3063 11.1491 39.8423 11.1491ZM40.1705 9.88139C40.598 9.88139 40.9593 9.7687 41.2543 9.54332C41.5526 9.31463 41.7779 8.99811 41.9304 8.59375C42.0862 8.18939 42.1641 7.71875 42.1641 7.18182C42.1641 6.65151 42.0878 6.1875 41.9354 5.78977C41.7829 5.39205 41.5592 5.08215 41.2642 4.86009C40.9692 4.63802 40.6046 4.52699 40.1705 4.52699C39.723 4.52699 39.3501 4.64299 39.0518 4.875C38.7536 5.10701 38.5282 5.42353 38.3757 5.82457C38.2266 6.22562 38.152 6.67803 38.152 7.18182C38.152 7.69223 38.2282 8.15128 38.3807 8.55895C38.5331 8.96662 38.7585 9.28977 39.0568 9.52841C39.3584 9.76373 39.7296 9.88139 40.1705 9.88139ZM47.9696 11.169C47.4857 11.169 47.0482 11.0795 46.6571 10.9006C46.266 10.7183 45.9561 10.4548 45.7275 10.1101C45.5021 9.76539 45.3894 9.3428 45.3894 8.84233C45.3894 8.41146 45.4722 8.05682 45.638 7.77841C45.8037 7.5 46.0274 7.27959 46.3091 7.11719C46.5908 6.95478 46.9057 6.83215 47.2537 6.74929C47.6017 6.66643 47.9564 6.60346 48.3176 6.56037C48.775 6.50734 49.1462 6.46425 49.4313 6.43111C49.7163 6.39465 49.9235 6.33665 50.0527 6.2571C50.182 6.17756 50.2466 6.0483 50.2466 5.86932V5.83452C50.2466 5.40033 50.124 5.06392 49.8787 4.82528C49.6368 4.58665 49.2755 4.46733 48.7949 4.46733C48.2944 4.46733 47.9 4.57836 47.6117 4.80043C47.3266 5.01918 47.1294 5.26278 47.0201 5.53125L45.623 5.21307C45.7888 4.74905 46.0307 4.37453 46.3489 4.08949C46.6704 3.80114 47.04 3.59233 47.4576 3.46307C47.8752 3.33049 48.3143 3.2642 48.775 3.2642C49.08 3.2642 49.4031 3.30066 49.7445 3.37358C50.0892 3.44318 50.4107 3.57244 50.709 3.76136C51.0106 3.95028 51.2575 4.22041 51.4498 4.57173C51.642 4.91974 51.7381 5.37216 51.7381 5.92898V11H50.2864V9.95597H50.2267C50.1306 10.1482 49.9864 10.3371 49.7942 10.5227C49.602 10.7083 49.3551 10.8625 49.0534 10.9851C48.7518 11.1077 48.3906 11.169 47.9696 11.169ZM48.2928 9.97585C48.7038 9.97585 49.0551 9.89465 49.3468 9.73224C49.6417 9.56984 49.8655 9.35772 50.0179 9.09588C50.1737 8.83073 50.2516 8.54735 50.2516 8.24574V7.26136C50.1986 7.31439 50.0958 7.36411 49.9434 7.41051C49.7942 7.4536 49.6235 7.49171 49.4313 7.52486C49.2391 7.55469 49.0518 7.58286 48.8695 7.60938C48.6872 7.63258 48.5347 7.65246 48.4121 7.66903C48.1238 7.70549 47.8603 7.76681 47.6216 7.85298C47.3863 7.93916 47.1974 8.06345 47.0549 8.22585C46.9157 8.38494 46.8461 8.59706 46.8461 8.86222C46.8461 9.23011 46.9819 9.50852 47.2537 9.69744C47.5255 9.88305 47.8719 9.97585 48.2928 9.97585ZM53.718 11V3.36364H55.1548V4.5767H55.2344C55.3736 4.16572 55.6188 3.84257 55.9702 3.60724C56.3248 3.36861 56.7259 3.24929 57.1733 3.24929C57.2661 3.24929 57.3755 3.2526 57.5014 3.25923C57.6307 3.26586 57.7318 3.27415 57.8047 3.28409V4.70597C57.745 4.68939 57.639 4.67116 57.4865 4.65128C57.334 4.62808 57.1816 4.61648 57.0291 4.61648C56.6778 4.61648 56.3646 4.69105 56.0895 4.8402C55.8177 4.98603 55.6023 5.18987 55.4432 5.4517C55.2841 5.71023 55.2045 6.00521 55.2045 6.33665V11H53.718ZM63.1392 6.05327V7.34091H58.625V6.05327H63.1392ZM67.979 11.1491C67.3626 11.1491 66.8124 10.9917 66.3285 10.6768C65.8479 10.3587 65.4701 9.90625 65.195 9.3196C64.9232 8.72964 64.7873 8.02202 64.7873 7.19673C64.7873 6.37145 64.9248 5.66548 65.1999 5.07884C65.4783 4.49219 65.8595 4.04309 66.3434 3.73153C66.8273 3.41998 67.3758 3.2642 67.989 3.2642C68.4629 3.2642 68.8441 3.34375 69.1325 3.50284C69.4241 3.65862 69.6495 3.84091 69.8086 4.04972C69.971 4.25852 70.0969 4.44247 70.1864 4.60156H70.2759V0.818182H71.7624V11H70.3107V9.81179H70.1864C70.0969 9.9742 69.9677 10.1598 69.7987 10.3686C69.6329 10.5774 69.4042 10.7597 69.1126 10.9155C68.8209 11.0713 68.4431 11.1491 67.979 11.1491ZM68.3072 9.88139C68.7347 9.88139 69.096 9.7687 69.391 9.54332C69.6893 9.31463 69.9147 8.99811 70.0671 8.59375C70.2229 8.18939 70.3008 7.71875 70.3008 7.18182C70.3008 6.65151 70.2246 6.1875 70.0721 5.78977C69.9196 5.39205 69.6959 5.08215 69.4009 4.86009C69.1059 4.63802 68.7414 4.52699 68.3072 4.52699C67.8597 4.52699 67.4869 4.64299 67.1886 4.875C66.8903 5.10701 66.6649 5.42353 66.5124 5.82457C66.3633 6.22562 66.2887 6.67803 66.2887 7.18182C66.2887 7.69223 66.3649 8.15128 66.5174 8.55895C66.6699 8.96662 66.8952 9.28977 67.1935 9.52841C67.4951 9.76373 67.8664 9.88139 68.3072 9.88139ZM76.1064 11.169C75.6225 11.169 75.185 11.0795 74.7939 10.9006C74.4028 10.7183 74.0929 10.4548 73.8642 10.1101C73.6388 9.76539 73.5261 9.3428 73.5261 8.84233C73.5261 8.41146 73.609 8.05682 73.7747 7.77841C73.9404 7.5 74.1641 7.27959 74.4458 7.11719C74.7276 6.95478 75.0424 6.83215 75.3904 6.74929C75.7385 6.66643 76.0931 6.60346 76.4544 6.56037C76.9118 6.50734 77.283 6.46425 77.568 6.43111C77.853 6.39465 78.0602 6.33665 78.1895 6.2571C78.3187 6.17756 78.3833 6.0483 78.3833 5.86932V5.83452C78.3833 5.40033 78.2607 5.06392 78.0154 4.82528C77.7735 4.58665 77.4122 4.46733 76.9316 4.46733C76.4312 4.46733 76.0368 4.57836 75.7484 4.80043C75.4634 5.01918 75.2662 5.26278 75.1568 5.53125L73.7598 5.21307C73.9255 4.74905 74.1674 4.37453 74.4856 4.08949C74.8071 3.80114 75.1767 3.59233 75.5943 3.46307C76.0119 3.33049 76.4511 3.2642 76.9118 3.2642C77.2167 3.2642 77.5398 3.30066 77.8812 3.37358C78.2259 3.44318 78.5474 3.57244 78.8457 3.76136C79.1473 3.95028 79.3942 4.22041 79.5865 4.57173C79.7787 4.91974 79.8748 5.37216 79.8748 5.92898V11H78.4231V9.95597H78.3635C78.2673 10.1482 78.1232 10.3371 77.9309 10.5227C77.7387 10.7083 77.4918 10.8625 77.1902 10.9851C76.8886 11.1077 76.5273 11.169 76.1064 11.169ZM76.4295 9.97585C76.8405 9.97585 77.1918 9.89465 77.4835 9.73224C77.7785 9.56984 78.0022 9.35772 78.1547 9.09588C78.3104 8.83073 78.3883 8.54735 78.3883 8.24574V7.26136C78.3353 7.31439 78.2325 7.36411 78.0801 7.41051C77.9309 7.4536 77.7602 7.49171 77.568 7.52486C77.3758 7.55469 77.1885 7.58286 77.0062 7.60938C76.8239 7.63258 76.6715 7.65246 76.5488 7.66903C76.2605 7.70549 75.997 7.76681 75.7583 7.85298C75.523 7.93916 75.3341 8.06345 75.1916 8.22585C75.0524 8.38494 74.9828 8.59706 74.9828 8.86222C74.9828 9.23011 75.1187 9.50852 75.3904 9.69744C75.6622 9.88305 76.0086 9.97585 76.4295 9.97585ZM85.4194 3.36364V4.55682H81.2482V3.36364H85.4194ZM82.3668 1.53409H83.8533V8.75781C83.8533 9.04616 83.8964 9.26326 83.9826 9.40909C84.0688 9.55161 84.1798 9.64938 84.3157 9.70241C84.4549 9.75213 84.6057 9.77699 84.7681 9.77699C84.8874 9.77699 84.9918 9.7687 85.0813 9.75213C85.1708 9.73556 85.2404 9.7223 85.2901 9.71236L85.5586 10.9403C85.4724 10.9735 85.3498 11.0066 85.1907 11.0398C85.0316 11.0762 84.8327 11.0961 84.5941 11.0994C84.203 11.1061 83.8384 11.0365 83.5004 10.8906C83.1623 10.7448 82.8888 10.5194 82.68 10.2145C82.4712 9.90956 82.3668 9.52675 82.3668 9.06605V1.53409ZM90.2729 11.1541C89.5205 11.1541 88.8726 10.9934 88.329 10.6719C87.7888 10.3471 87.3712 9.89134 87.0762 9.30469C86.7845 8.71473 86.6387 8.02367 86.6387 7.23153C86.6387 6.44934 86.7845 5.75994 87.0762 5.16335C87.3712 4.56676 87.7821 4.10109 88.3091 3.76633C88.8394 3.43158 89.4592 3.2642 90.1685 3.2642C90.5994 3.2642 91.017 3.33546 91.4213 3.47798C91.8257 3.6205 92.1886 3.84422 92.5101 4.14915C92.8316 4.45407 93.0852 4.85014 93.2708 5.33736C93.4564 5.82126 93.5492 6.40956 93.5492 7.10227V7.62926H87.4789V6.51562H92.0925C92.0925 6.12453 92.013 5.77817 91.8539 5.47656C91.6948 5.17164 91.4711 4.93134 91.1827 4.75568C90.8977 4.58002 90.5629 4.49219 90.1784 4.49219C89.7608 4.49219 89.3962 4.59493 89.0847 4.80043C88.7765 5.0026 88.5378 5.26776 88.3688 5.59588C88.2031 5.92069 88.1202 6.27367 88.1202 6.65483V7.52486C88.1202 8.03527 88.2097 8.46946 88.3887 8.82741C88.571 9.18537 88.8245 9.45881 89.1493 9.64773C89.4741 9.83333 89.8536 9.92614 90.2878 9.92614C90.5695 9.92614 90.8264 9.88636 91.0584 9.80682C91.2904 9.72396 91.4909 9.60133 91.66 9.43892C91.829 9.27652 91.9583 9.07599 92.0478 8.83736L93.4547 9.09091C93.342 9.50521 93.1399 9.86813 92.8482 10.1797C92.5598 10.4879 92.1969 10.7282 91.7594 10.9006C91.3252 11.0696 90.8297 11.1541 90.2729 11.1541Z" fill="black"/>
</svg>
