<svg width="120" height="12" viewBox="0 0 120 12" fill="none" xmlns="http://www.w3.org/2000/svg">
<path d="M4.21591 11.1541C3.4768 11.1541 2.84044 10.9867 2.30682 10.652C1.77652 10.3139 1.36884 9.84825 1.08381 9.25497C0.798769 8.66169 0.65625 7.98224 0.65625 7.21662C0.65625 6.44105 0.802083 5.75663 1.09375 5.16335C1.38542 4.56676 1.7964 4.10109 2.3267 3.76633C2.85701 3.43158 3.48177 3.2642 4.20099 3.2642C4.78101 3.2642 5.29806 3.37192 5.75213 3.58736C6.2062 3.79948 6.57244 4.09777 6.85085 4.48224C7.13258 4.86671 7.29995 5.31581 7.35298 5.82955H5.90625C5.8267 5.47159 5.64441 5.16335 5.35938 4.90483C5.07765 4.64631 4.69981 4.51705 4.22585 4.51705C3.81155 4.51705 3.44863 4.62642 3.13707 4.84517C2.82884 5.06061 2.58854 5.36884 2.41619 5.76989C2.24384 6.16761 2.15767 6.63826 2.15767 7.18182C2.15767 7.73864 2.24219 8.21922 2.41122 8.62358C2.58026 9.02794 2.81889 9.34115 3.12713 9.56321C3.43868 9.78527 3.80492 9.89631 4.22585 9.89631C4.50758 9.89631 4.76278 9.84493 4.99148 9.74219C5.22349 9.63613 5.41738 9.48532 5.57315 9.28977C5.73224 9.09422 5.84328 8.8589 5.90625 8.58381H7.35298C7.29995 9.07765 7.1392 9.51847 6.87074 9.90625C6.60227 10.294 6.24266 10.599 5.7919 10.821C5.34446 11.0431 4.81913 11.1541 4.21591 11.1541ZM11.165 11.169C10.681 11.169 10.2435 11.0795 9.85245 10.9006C9.46135 10.7183 9.15146 10.4548 8.92276 10.1101C8.69738 9.76539 8.58469 9.3428 8.58469 8.84233C8.58469 8.41146 8.66755 8.05682 8.83327 7.77841C8.99899 7.5 9.22272 7.27959 9.50444 7.11719C9.78616 6.95478 10.101 6.83215 10.449 6.74929C10.7971 6.66643 11.1517 6.60346 11.513 6.56037C11.9703 6.50734 12.3416 6.46425 12.6266 6.43111C12.9116 6.39465 13.1188 6.33665 13.248 6.2571C13.3773 6.17756 13.4419 6.0483 13.4419 5.86932V5.83452C13.4419 5.40033 13.3193 5.06392 13.074 4.82528C12.8321 4.58665 12.4708 4.46733 11.9902 4.46733C11.4898 4.46733 11.0953 4.57836 10.807 4.80043C10.522 5.01918 10.3248 5.26278 10.2154 5.53125L8.81836 5.21307C8.98408 4.74905 9.22603 4.37453 9.54421 4.08949C9.86571 3.80114 10.2353 3.59233 10.6529 3.46307C11.0705 3.33049 11.5096 3.2642 11.9703 3.2642C12.2753 3.2642 12.5984 3.30066 12.9398 3.37358C13.2845 3.44318 13.606 3.57244 13.9043 3.76136C14.2059 3.95028 14.4528 4.22041 14.6451 4.57173C14.8373 4.91974 14.9334 5.37216 14.9334 5.92898V11H13.4817V9.95597H13.4221C13.3259 10.1482 13.1818 10.3371 12.9895 10.5227C12.7973 10.7083 12.5504 10.8625 12.2488 10.9851C11.9471 11.1077 11.5859 11.169 11.165 11.169ZM11.4881 9.97585C11.8991 9.97585 12.2504 9.89465 12.5421 9.73224C12.8371 9.56984 13.0608 9.35772 13.2132 9.09588C13.369 8.83073 13.4469 8.54735 13.4469 8.24574V7.26136C13.3939 7.31439 13.2911 7.36411 13.1387 7.41051C12.9895 7.4536 12.8188 7.49171 12.6266 7.52486C12.4344 7.55469 12.2471 7.58286 12.0648 7.60938C11.8825 7.63258 11.7301 7.65246 11.6074 7.66903C11.3191 7.70549 11.0556 7.76681 10.8169 7.85298C10.5816 7.93916 10.3927 8.06345 10.2502 8.22585C10.111 8.38494 10.0414 8.59706 10.0414 8.86222C10.0414 9.23011 10.1773 9.50852 10.449 9.69744C10.7208 9.88305 11.0672 9.97585 11.4881 9.97585ZM18.3999 0.818182V11H16.9134V0.818182H18.3999ZM23.6909 11.1541C22.9385 11.1541 22.2905 10.9934 21.747 10.6719C21.2067 10.3471 20.7891 9.89134 20.4941 9.30469C20.2025 8.71473 20.0566 8.02367 20.0566 7.23153C20.0566 6.44934 20.2025 5.75994 20.4941 5.16335C20.7891 4.56676 21.2001 4.10109 21.7271 3.76633C22.2574 3.43158 22.8772 3.2642 23.5865 3.2642C24.0173 3.2642 24.435 3.33546 24.8393 3.47798C25.2437 3.6205 25.6066 3.84422 25.9281 4.14915C26.2496 4.45407 26.5031 4.85014 26.6887 5.33736C26.8743 5.82126 26.9672 6.40956 26.9672 7.10227V7.62926H20.8968V6.51562H25.5105C25.5105 6.12453 25.4309 5.77817 25.2718 5.47656C25.1127 5.17164 24.889 4.93134 24.6007 4.75568C24.3156 4.58002 23.9809 4.49219 23.5964 4.49219C23.1788 4.49219 22.8142 4.59493 22.5027 4.80043C22.1944 5.0026 21.9558 5.26776 21.7868 5.59588C21.621 5.92069 21.5382 6.27367 21.5382 6.65483V7.52486C21.5382 8.03527 21.6277 8.46946 21.8066 8.82741C21.9889 9.18537 22.2425 9.45881 22.5673 9.64773C22.8921 9.83333 23.2716 9.92614 23.7058 9.92614C23.9875 9.92614 24.2444 9.88636 24.4764 9.80682C24.7084 9.72396 24.9089 9.60133 25.0779 9.43892C25.247 9.27652 25.3762 9.07599 25.4657 8.83736L26.8727 9.09091C26.76 9.50521 26.5578 9.86813 26.2662 10.1797C25.9778 10.4879 25.6149 10.7282 25.1774 10.9006C24.7432 11.0696 24.2477 11.1541 23.6909 11.1541ZM30.103 6.46591V11H28.6165V3.36364H30.0433V4.60653H30.1378C30.3134 4.20218 30.5885 3.87737 30.9631 3.6321C31.3409 3.38684 31.8165 3.2642 32.3899 3.2642C32.9103 3.2642 33.366 3.37358 33.7571 3.59233C34.1482 3.80777 34.4515 4.12926 34.6669 4.55682C34.8823 4.98437 34.9901 5.51302 34.9901 6.14276V11H33.5036V6.32173C33.5036 5.76823 33.3594 5.3357 33.071 5.02415C32.7827 4.70928 32.3866 4.55185 31.8828 4.55185C31.5381 4.55185 31.2315 4.62642 30.9631 4.77557C30.6979 4.92472 30.4875 5.14347 30.3317 5.43182C30.1792 5.71686 30.103 6.06155 30.103 6.46591ZM39.8423 11.1491C39.2259 11.1491 38.6757 10.9917 38.1918 10.6768C37.7112 10.3587 37.3333 9.90625 37.0582 9.3196C36.7865 8.72964 36.6506 8.02202 36.6506 7.19673C36.6506 6.37145 36.7881 5.66548 37.0632 5.07884C37.3416 4.49219 37.7228 4.04309 38.2067 3.73153C38.6906 3.41998 39.2391 3.2642 39.8523 3.2642C40.3262 3.2642 40.7074 3.34375 40.9957 3.50284C41.2874 3.65862 41.5128 3.84091 41.6719 4.04972C41.8343 4.25852 41.9602 4.44247 42.0497 4.60156H42.1392V0.818182H43.6257V11H42.174V9.81179H42.0497C41.9602 9.9742 41.831 10.1598 41.6619 10.3686C41.4962 10.5774 41.2675 10.7597 40.9759 10.9155C40.6842 11.0713 40.3063 11.1491 39.8423 11.1491ZM40.1705 9.88139C40.598 9.88139 40.9593 9.7687 41.2543 9.54332C41.5526 9.31463 41.7779 8.99811 41.9304 8.59375C42.0862 8.18939 42.1641 7.71875 42.1641 7.18182C42.1641 6.65151 42.0878 6.1875 41.9354 5.78977C41.7829 5.39205 41.5592 5.08215 41.2642 4.86009C40.9692 4.63802 40.6046 4.52699 40.1705 4.52699C39.723 4.52699 39.3501 4.64299 39.0518 4.875C38.7536 5.10701 38.5282 5.42353 38.3757 5.82457C38.2266 6.22562 38.152 6.67803 38.152 7.18182C38.152 7.69223 38.2282 8.15128 38.3807 8.55895C38.5331 8.96662 38.7585 9.28977 39.0568 9.52841C39.3584 9.76373 39.7296 9.88139 40.1705 9.88139ZM47.9696 11.169C47.4857 11.169 47.0482 11.0795 46.6571 10.9006C46.266 10.7183 45.9561 10.4548 45.7275 10.1101C45.5021 9.76539 45.3894 9.3428 45.3894 8.84233C45.3894 8.41146 45.4722 8.05682 45.638 7.77841C45.8037 7.5 46.0274 7.27959 46.3091 7.11719C46.5908 6.95478 46.9057 6.83215 47.2537 6.74929C47.6017 6.66643 47.9564 6.60346 48.3176 6.56037C48.775 6.50734 49.1462 6.46425 49.4313 6.43111C49.7163 6.39465 49.9235 6.33665 50.0527 6.2571C50.182 6.17756 50.2466 6.0483 50.2466 5.86932V5.83452C50.2466 5.40033 50.124 5.06392 49.8787 4.82528C49.6368 4.58665 49.2755 4.46733 48.7949 4.46733C48.2944 4.46733 47.9 4.57836 47.6117 4.80043C47.3266 5.01918 47.1294 5.26278 47.0201 5.53125L45.623 5.21307C45.7888 4.74905 46.0307 4.37453 46.3489 4.08949C46.6704 3.80114 47.04 3.59233 47.4576 3.46307C47.8752 3.33049 48.3143 3.2642 48.775 3.2642C49.08 3.2642 49.4031 3.30066 49.7445 3.37358C50.0892 3.44318 50.4107 3.57244 50.709 3.76136C51.0106 3.95028 51.2575 4.22041 51.4498 4.57173C51.642 4.91974 51.7381 5.37216 51.7381 5.92898V11H50.2864V9.95597H50.2267C50.1306 10.1482 49.9864 10.3371 49.7942 10.5227C49.602 10.7083 49.3551 10.8625 49.0534 10.9851C48.7518 11.1077 48.3906 11.169 47.9696 11.169ZM48.2928 9.97585C48.7038 9.97585 49.0551 9.89465 49.3468 9.73224C49.6417 9.56984 49.8655 9.35772 50.0179 9.09588C50.1737 8.83073 50.2516 8.54735 50.2516 8.24574V7.26136C50.1986 7.31439 50.0958 7.36411 49.9434 7.41051C49.7942 7.4536 49.6235 7.49171 49.4313 7.52486C49.2391 7.55469 49.0518 7.58286 48.8695 7.60938C48.6872 7.63258 48.5347 7.65246 48.4121 7.66903C48.1238 7.70549 47.8603 7.76681 47.6216 7.85298C47.3863 7.93916 47.1974 8.06345 47.0549 8.22585C46.9157 8.38494 46.8461 8.59706 46.8461 8.86222C46.8461 9.23011 46.9819 9.50852 47.2537 9.69744C47.5255 9.88305 47.8719 9.97585 48.2928 9.97585ZM53.718 11V3.36364H55.1548V4.5767H55.2344C55.3736 4.16572 55.6188 3.84257 55.9702 3.60724C56.3248 3.36861 56.7259 3.24929 57.1733 3.24929C57.2661 3.24929 57.3755 3.2526 57.5014 3.25923C57.6307 3.26586 57.7318 3.27415 57.8047 3.28409V4.70597C57.745 4.68939 57.639 4.67116 57.4865 4.65128C57.334 4.62808 57.1816 4.61648 57.0291 4.61648C56.6778 4.61648 56.3646 4.69105 56.0895 4.8402C55.8177 4.98603 55.6023 5.18987 55.4432 5.4517C55.2841 5.71023 55.2045 6.00521 55.2045 6.33665V11H53.718ZM63.1392 6.05327V7.34091H58.625V6.05327H63.1392ZM66.6069 6.46591V11H65.1204V0.818182H66.587V4.60653H66.6815C66.8604 4.19555 67.1339 3.86908 67.5018 3.62713C67.8697 3.38518 68.3503 3.2642 68.9435 3.2642C69.4672 3.2642 69.9246 3.37192 70.3157 3.58736C70.7101 3.80279 71.015 4.12429 71.2305 4.55185C71.4492 4.97609 71.5586 5.50639 71.5586 6.14276V11H70.0721V6.32173C70.0721 5.7616 69.9279 5.32741 69.6396 5.01918C69.3512 4.70762 68.9502 4.55185 68.4364 4.55185C68.0851 4.55185 67.7702 4.62642 67.4918 4.77557C67.2167 4.92472 66.9996 5.14347 66.8406 5.43182C66.6848 5.71686 66.6069 6.06155 66.6069 6.46591ZM76.8335 11.1541C76.0811 11.1541 75.4331 10.9934 74.8896 10.6719C74.3493 10.3471 73.9317 9.89134 73.6367 9.30469C73.3451 8.71473 73.1992 8.02367 73.1992 7.23153C73.1992 6.44934 73.3451 5.75994 73.6367 5.16335C73.9317 4.56676 74.3427 4.10109 74.8697 3.76633C75.4 3.43158 76.0198 3.2642 76.729 3.2642C77.1599 3.2642 77.5775 3.33546 77.9819 3.47798C78.3862 3.6205 78.7492 3.84422 79.0707 4.14915C79.3922 4.45407 79.6457 4.85014 79.8313 5.33736C80.0169 5.82126 80.1097 6.40956 80.1097 7.10227V7.62926H74.0394V6.51562H78.6531C78.6531 6.12453 78.5735 5.77817 78.4144 5.47656C78.2553 5.17164 78.0316 4.93134 77.7433 4.75568C77.4582 4.58002 77.1235 4.49219 76.739 4.49219C76.3214 4.49219 75.9568 4.59493 75.6452 4.80043C75.337 5.0026 75.0984 5.26776 74.9293 5.59588C74.7636 5.92069 74.6808 6.27367 74.6808 6.65483V7.52486C74.6808 8.03527 74.7702 8.46946 74.9492 8.82741C75.1315 9.18537 75.3851 9.45881 75.7099 9.64773C76.0347 9.83333 76.4142 9.92614 76.8484 9.92614C77.1301 9.92614 77.387 9.88636 77.619 9.80682C77.851 9.72396 78.0515 9.60133 78.2205 9.43892C78.3896 9.27652 78.5188 9.07599 78.6083 8.83736L80.0153 9.09091C79.9026 9.50521 79.7004 9.86813 79.4087 10.1797C79.1204 10.4879 78.7575 10.7282 78.32 10.9006C77.8858 11.0696 77.3903 11.1541 76.8335 11.1541ZM83.9814 11.169C83.4975 11.169 83.06 11.0795 82.6689 10.9006C82.2778 10.7183 81.9679 10.4548 81.7392 10.1101C81.5138 9.76539 81.4011 9.3428 81.4011 8.84233C81.4011 8.41146 81.484 8.05682 81.6497 7.77841C81.8154 7.5 82.0391 7.27959 82.3208 7.11719C82.6026 6.95478 82.9174 6.83215 83.2654 6.74929C83.6135 6.66643 83.9681 6.60346 84.3294 6.56037C84.7868 6.50734 85.158 6.46425 85.443 6.43111C85.728 6.39465 85.9352 6.33665 86.0645 6.2571C86.1937 6.17756 86.2583 6.0483 86.2583 5.86932V5.83452C86.2583 5.40033 86.1357 5.06392 85.8904 4.82528C85.6485 4.58665 85.2872 4.46733 84.8066 4.46733C84.3062 4.46733 83.9118 4.57836 83.6234 4.80043C83.3384 5.01918 83.1412 5.26278 83.0318 5.53125L81.6348 5.21307C81.8005 4.74905 82.0424 4.37453 82.3606 4.08949C82.6821 3.80114 83.0517 3.59233 83.4693 3.46307C83.8869 3.33049 84.3261 3.2642 84.7868 3.2642C85.0917 3.2642 85.4148 3.30066 85.7562 3.37358C86.1009 3.44318 86.4224 3.57244 86.7207 3.76136C87.0223 3.95028 87.2692 4.22041 87.4615 4.57173C87.6537 4.91974 87.7498 5.37216 87.7498 5.92898V11H86.2981V9.95597H86.2385C86.1423 10.1482 85.9982 10.3371 85.8059 10.5227C85.6137 10.7083 85.3668 10.8625 85.0652 10.9851C84.7636 11.1077 84.4023 11.169 83.9814 11.169ZM84.3045 9.97585C84.7155 9.97585 85.0668 9.89465 85.3585 9.73224C85.6535 9.56984 85.8772 9.35772 86.0297 9.09588C86.1854 8.83073 86.2633 8.54735 86.2633 8.24574V7.26136C86.2103 7.31439 86.1075 7.36411 85.9551 7.41051C85.8059 7.4536 85.6352 7.49171 85.443 7.52486C85.2508 7.55469 85.0635 7.58286 84.8812 7.60938C84.6989 7.63258 84.5465 7.65246 84.4238 7.66903C84.1355 7.70549 83.872 7.76681 83.6333 7.85298C83.398 7.93916 83.2091 8.06345 83.0666 8.22585C82.9274 8.38494 82.8578 8.59706 82.8578 8.86222C82.8578 9.23011 82.9937 9.50852 83.2654 9.69744C83.5372 9.88305 83.8836 9.97585 84.3045 9.97585ZM89.7298 11V3.36364H91.1665V4.5767H91.2461C91.3853 4.16572 91.6306 3.84257 91.9819 3.60724C92.3365 3.36861 92.7376 3.24929 93.185 3.24929C93.2778 3.24929 93.3872 3.2526 93.5131 3.25923C93.6424 3.26586 93.7435 3.27415 93.8164 3.28409V4.70597C93.7567 4.68939 93.6507 4.67116 93.4982 4.65128C93.3458 4.62808 93.1933 4.61648 93.0408 4.61648C92.6895 4.61648 92.3763 4.69105 92.1012 4.8402C91.8294 4.98603 91.614 5.18987 91.4549 5.4517C91.2958 5.71023 91.2163 6.00521 91.2163 6.33665V11H89.7298ZM99.1186 3.36364V4.55682H94.9474V3.36364H99.1186ZM96.0661 1.53409H97.5526V8.75781C97.5526 9.04616 97.5956 9.26326 97.6818 9.40909C97.768 9.55161 97.879 9.64938 98.0149 9.70241C98.1541 9.75213 98.3049 9.77699 98.4673 9.77699C98.5866 9.77699 98.6911 9.7687 98.7805 9.75213C98.87 9.73556 98.9396 9.7223 98.9893 9.71236L99.2578 10.9403C99.1716 10.9735 99.049 11.0066 98.8899 11.0398C98.7308 11.0762 98.532 11.0961 98.2933 11.0994C97.9022 11.1061 97.5376 11.0365 97.1996 10.8906C96.8615 10.7448 96.5881 10.5194 96.3793 10.2145C96.1705 9.90956 96.0661 9.52675 96.0661 9.06605V1.53409ZM105.002 6.05327V7.34091H100.488V6.05327H105.002ZM110.509 11.169C109.723 11.1657 109.052 10.9586 108.495 10.5476C107.938 10.1366 107.512 9.53835 107.217 8.75284C106.922 7.96733 106.775 7.02107 106.775 5.91406C106.775 4.81037 106.922 3.86742 107.217 3.08523C107.516 2.30303 107.943 1.70644 108.5 1.29545C109.06 0.884469 109.73 0.678977 110.509 0.678977C111.287 0.678977 111.955 0.886126 112.512 1.30043C113.069 1.71141 113.495 2.308 113.79 3.0902C114.088 3.86908 114.237 4.81037 114.237 5.91406C114.237 7.02438 114.09 7.9723 113.795 8.75781C113.5 9.54001 113.074 10.1383 112.517 10.5526C111.96 10.9635 111.291 11.169 110.509 11.169ZM110.509 9.84162C111.198 9.84162 111.737 9.50521 112.124 8.83239C112.515 8.15956 112.711 7.18679 112.711 5.91406C112.711 5.06889 112.621 4.35464 112.442 3.77131C112.267 3.18466 112.013 2.74053 111.682 2.43892C111.354 2.134 110.963 1.98153 110.509 1.98153C109.822 1.98153 109.284 2.3196 108.893 2.99574C108.502 3.67187 108.304 4.64465 108.301 5.91406C108.301 6.76255 108.389 7.48011 108.565 8.06676C108.744 8.65009 108.997 9.09257 109.325 9.39418C109.653 9.69247 110.048 9.84162 110.509 9.84162ZM119.864 0.818182V11H118.323V2.35938H118.263L115.827 3.95028V2.47869L118.367 0.818182H119.864Z" fill="black"/>
</svg>
