<svg width="36" height="12" viewBox="0 0 36 12" fill="none" xmlns="http://www.w3.org/2000/svg">
<path d="M4.21591 11.1541C3.4768 11.1541 2.84044 10.9867 2.30682 10.652C1.77652 10.3139 1.36884 9.84825 1.08381 9.25497C0.798769 8.66169 0.65625 7.98224 0.65625 7.21662C0.65625 6.44105 0.802083 5.75663 1.09375 5.16335C1.38542 4.56676 1.7964 4.10109 2.3267 3.76633C2.85701 3.43158 3.48177 3.2642 4.20099 3.2642C4.78101 3.2642 5.29806 3.37192 5.75213 3.58736C6.2062 3.79948 6.57244 4.09777 6.85085 4.48224C7.13258 4.86671 7.29995 5.31581 7.35298 5.82955H5.90625C5.8267 5.47159 5.64441 5.16335 5.35938 4.90483C5.07765 4.64631 4.69981 4.51705 4.22585 4.51705C3.81155 4.51705 3.44863 4.62642 3.13707 4.84517C2.82884 5.06061 2.58854 5.36884 2.41619 5.76989C2.24384 6.16761 2.15767 6.63826 2.15767 7.18182C2.15767 7.73864 2.24219 8.21922 2.41122 8.62358C2.58026 9.02794 2.81889 9.34115 3.12713 9.56321C3.43868 9.78527 3.80492 9.89631 4.22585 9.89631C4.50758 9.89631 4.76278 9.84493 4.99148 9.74219C5.22349 9.63613 5.41738 9.48532 5.57315 9.28977C5.73224 9.09422 5.84328 8.8589 5.90625 8.58381H7.35298C7.29995 9.07765 7.1392 9.51847 6.87074 9.90625C6.60227 10.294 6.24266 10.599 5.7919 10.821C5.34446 11.0431 4.81913 11.1541 4.21591 11.1541ZM10.4292 0.818182V11H8.94265V0.818182H10.4292ZM15.6456 11.1541C14.9297 11.1541 14.3049 10.9901 13.7713 10.6619C13.2377 10.3338 12.8234 9.87476 12.5284 9.2848C12.2334 8.69484 12.0859 8.00544 12.0859 7.21662C12.0859 6.42448 12.2334 5.73177 12.5284 5.13849C12.8234 4.54522 13.2377 4.08452 13.7713 3.75639C14.3049 3.42827 14.9297 3.2642 15.6456 3.2642C16.3615 3.2642 16.9863 3.42827 17.5199 3.75639C18.0535 4.08452 18.4678 4.54522 18.7628 5.13849C19.0578 5.73177 19.2053 6.42448 19.2053 7.21662C19.2053 8.00544 19.0578 8.69484 18.7628 9.2848C18.4678 9.87476 18.0535 10.3338 17.5199 10.6619C16.9863 10.9901 16.3615 11.1541 15.6456 11.1541ZM15.6506 9.90625C16.1146 9.90625 16.4991 9.78362 16.804 9.53835C17.1089 9.29309 17.3343 8.96662 17.4801 8.55895C17.6293 8.15128 17.7038 7.70218 17.7038 7.21165C17.7038 6.72443 17.6293 6.27699 17.4801 5.86932C17.3343 5.45833 17.1089 5.12855 16.804 4.87997C16.4991 4.63139 16.1146 4.5071 15.6506 4.5071C15.1832 4.5071 14.7955 4.63139 14.4872 4.87997C14.1823 5.12855 13.9553 5.45833 13.8061 5.86932C13.6603 6.27699 13.5874 6.72443 13.5874 7.21165C13.5874 7.70218 13.6603 8.15128 13.8061 8.55895C13.9553 8.96662 14.1823 9.29309 14.4872 9.53835C14.7955 9.78362 15.1832 9.90625 15.6506 9.90625ZM24.0811 11.1541C23.342 11.1541 22.7057 10.9867 22.1721 10.652C21.6417 10.3139 21.2341 9.84825 20.949 9.25497C20.664 8.66169 20.5215 7.98224 20.5215 7.21662C20.5215 6.44105 20.6673 5.75663 20.959 5.16335C21.2507 4.56676 21.6616 4.10109 22.1919 3.76633C22.7222 3.43158 23.347 3.2642 24.0662 3.2642C24.6462 3.2642 25.1633 3.37192 25.6174 3.58736C26.0714 3.79948 26.4377 4.09777 26.7161 4.48224C26.9978 4.86671 27.1652 5.31581 27.2182 5.82955H25.7715C25.6919 5.47159 25.5096 5.16335 25.2246 4.90483C24.9429 4.64631 24.565 4.51705 24.0911 4.51705C23.6768 4.51705 23.3139 4.62642 23.0023 4.84517C22.6941 5.06061 22.4538 5.36884 22.2814 5.76989C22.1091 6.16761 22.0229 6.63826 22.0229 7.18182C22.0229 7.73864 22.1074 8.21922 22.2765 8.62358C22.4455 9.02794 22.6841 9.34115 22.9924 9.56321C23.3039 9.78527 23.6702 9.89631 24.0911 9.89631C24.3728 9.89631 24.628 9.84493 24.8567 9.74219C25.0887 9.63613 25.2826 9.48532 25.4384 9.28977C25.5975 9.09422 25.7085 8.8589 25.7715 8.58381H27.2182C27.1652 9.07765 27.0044 9.51847 26.736 9.90625C26.4675 10.294 26.1079 10.599 25.6571 10.821C25.2097 11.0431 24.6844 11.1541 24.0811 11.1541ZM30.1751 8.4098L30.1651 6.59517H30.4237L33.4663 3.36364H35.2461L31.7759 7.04261H31.5423L30.1751 8.4098ZM28.8079 11V0.818182H30.2944V11H28.8079ZM33.6303 11L30.896 7.37074L31.9201 6.33168L35.4549 11H33.6303Z" fill="black"/>
</svg>
