<svg width="89" height="12" viewBox="0 0 89 12" fill="none" xmlns="http://www.w3.org/2000/svg">
<path d="M4.21591 11.1541C3.4768 11.1541 2.84044 10.9867 2.30682 10.652C1.77652 10.3139 1.36884 9.84825 1.08381 9.25497C0.798769 8.66169 0.65625 7.98224 0.65625 7.21662C0.65625 6.44105 0.802083 5.75663 1.09375 5.16335C1.38542 4.56676 1.7964 4.10109 2.3267 3.76633C2.85701 3.43158 3.48177 3.2642 4.20099 3.2642C4.78101 3.2642 5.29806 3.37192 5.75213 3.58736C6.2062 3.79948 6.57244 4.09777 6.85085 4.48224C7.13258 4.86671 7.29995 5.31581 7.35298 5.82955H5.90625C5.8267 5.47159 5.64441 5.16335 5.35938 4.90483C5.07765 4.64631 4.69981 4.51705 4.22585 4.51705C3.81155 4.51705 3.44863 4.62642 3.13707 4.84517C2.82884 5.06061 2.58854 5.36884 2.41619 5.76989C2.24384 6.16761 2.15767 6.63826 2.15767 7.18182C2.15767 7.73864 2.24219 8.21922 2.41122 8.62358C2.58026 9.02794 2.81889 9.34115 3.12713 9.56321C3.43868 9.78527 3.80492 9.89631 4.22585 9.89631C4.50758 9.89631 4.76278 9.84493 4.99148 9.74219C5.22349 9.63613 5.41738 9.48532 5.57315 9.28977C5.73224 9.09422 5.84328 8.8589 5.90625 8.58381H7.35298C7.29995 9.07765 7.1392 9.51847 6.87074 9.90625C6.60227 10.294 6.24266 10.599 5.7919 10.821C5.34446 11.0431 4.81913 11.1541 4.21591 11.1541ZM10.4292 0.818182V11H8.94265V0.818182H10.4292ZM15.6456 11.1541C14.9297 11.1541 14.3049 10.9901 13.7713 10.6619C13.2377 10.3338 12.8234 9.87476 12.5284 9.2848C12.2334 8.69484 12.0859 8.00544 12.0859 7.21662C12.0859 6.42448 12.2334 5.73177 12.5284 5.13849C12.8234 4.54522 13.2377 4.08452 13.7713 3.75639C14.3049 3.42827 14.9297 3.2642 15.6456 3.2642C16.3615 3.2642 16.9863 3.42827 17.5199 3.75639C18.0535 4.08452 18.4678 4.54522 18.7628 5.13849C19.0578 5.73177 19.2053 6.42448 19.2053 7.21662C19.2053 8.00544 19.0578 8.69484 18.7628 9.2848C18.4678 9.87476 18.0535 10.3338 17.5199 10.6619C16.9863 10.9901 16.3615 11.1541 15.6456 11.1541ZM15.6506 9.90625C16.1146 9.90625 16.4991 9.78362 16.804 9.53835C17.1089 9.29309 17.3343 8.96662 17.4801 8.55895C17.6293 8.15128 17.7038 7.70218 17.7038 7.21165C17.7038 6.72443 17.6293 6.27699 17.4801 5.86932C17.3343 5.45833 17.1089 5.12855 16.804 4.87997C16.4991 4.63139 16.1146 4.5071 15.6506 4.5071C15.1832 4.5071 14.7955 4.63139 14.4872 4.87997C14.1823 5.12855 13.9553 5.45833 13.8061 5.86932C13.6603 6.27699 13.5874 6.72443 13.5874 7.21165C13.5874 7.70218 13.6603 8.15128 13.8061 8.55895C13.9553 8.96662 14.1823 9.29309 14.4872 9.53835C14.7955 9.78362 15.1832 9.90625 15.6506 9.90625ZM24.0811 11.1541C23.342 11.1541 22.7057 10.9867 22.1721 10.652C21.6417 10.3139 21.2341 9.84825 20.949 9.25497C20.664 8.66169 20.5215 7.98224 20.5215 7.21662C20.5215 6.44105 20.6673 5.75663 20.959 5.16335C21.2507 4.56676 21.6616 4.10109 22.1919 3.76633C22.7222 3.43158 23.347 3.2642 24.0662 3.2642C24.6462 3.2642 25.1633 3.37192 25.6174 3.58736C26.0714 3.79948 26.4377 4.09777 26.7161 4.48224C26.9978 4.86671 27.1652 5.31581 27.2182 5.82955H25.7715C25.6919 5.47159 25.5096 5.16335 25.2246 4.90483C24.9429 4.64631 24.565 4.51705 24.0911 4.51705C23.6768 4.51705 23.3139 4.62642 23.0023 4.84517C22.6941 5.06061 22.4538 5.36884 22.2814 5.76989C22.1091 6.16761 22.0229 6.63826 22.0229 7.18182C22.0229 7.73864 22.1074 8.21922 22.2765 8.62358C22.4455 9.02794 22.6841 9.34115 22.9924 9.56321C23.3039 9.78527 23.6702 9.89631 24.0911 9.89631C24.3728 9.89631 24.628 9.84493 24.8567 9.74219C25.0887 9.63613 25.2826 9.48532 25.4384 9.28977C25.5975 9.09422 25.7085 8.8589 25.7715 8.58381H27.2182C27.1652 9.07765 27.0044 9.51847 26.736 9.90625C26.4675 10.294 26.1079 10.599 25.6571 10.821C25.2097 11.0431 24.6844 11.1541 24.0811 11.1541ZM30.1751 8.4098L30.1651 6.59517H30.4237L33.4663 3.36364H35.2461L31.7759 7.04261H31.5423L30.1751 8.4098ZM28.8079 11V0.818182H30.2944V11H28.8079ZM33.6303 11L30.896 7.37074L31.9201 6.33168L35.4549 11H33.6303ZM40.5806 6.05327V7.34091H36.0664V6.05327H40.5806ZM42.5618 11V3.36364H43.9986V4.5767H44.0781C44.2173 4.16572 44.4626 3.84257 44.8139 3.60724C45.1686 3.36861 45.5696 3.24929 46.017 3.24929C46.1098 3.24929 46.2192 3.2526 46.3452 3.25923C46.4744 3.26586 46.5755 3.27415 46.6484 3.28409V4.70597C46.5888 4.68939 46.4827 4.67116 46.3303 4.65128C46.1778 4.62808 46.0253 4.61648 45.8729 4.61648C45.5215 4.61648 45.2083 4.69105 44.9332 4.8402C44.6615 4.98603 44.446 5.18987 44.2869 5.4517C44.1278 5.71023 44.0483 6.00521 44.0483 6.33665V11H42.5618ZM50.9526 11.1541C50.2002 11.1541 49.5523 10.9934 49.0087 10.6719C48.4685 10.3471 48.0508 9.89134 47.7559 9.30469C47.4642 8.71473 47.3184 8.02367 47.3184 7.23153C47.3184 6.44934 47.4642 5.75994 47.7559 5.16335C48.0508 4.56676 48.4618 4.10109 48.9888 3.76633C49.5191 3.43158 50.1389 3.2642 50.8482 3.2642C51.2791 3.2642 51.6967 3.33546 52.101 3.47798C52.5054 3.6205 52.8683 3.84422 53.1898 4.14915C53.5113 4.45407 53.7649 4.85014 53.9505 5.33736C54.1361 5.82126 54.2289 6.40956 54.2289 7.10227V7.62926H48.1586V6.51562H52.7722C52.7722 6.12453 52.6926 5.77817 52.5336 5.47656C52.3745 5.17164 52.1507 4.93134 51.8624 4.75568C51.5774 4.58002 51.2426 4.49219 50.8581 4.49219C50.4405 4.49219 50.0759 4.59493 49.7644 4.80043C49.4561 5.0026 49.2175 5.26776 49.0485 5.59588C48.8828 5.92069 48.7999 6.27367 48.7999 6.65483V7.52486C48.7999 8.03527 48.8894 8.46946 49.0684 8.82741C49.2507 9.18537 49.5042 9.45881 49.829 9.64773C50.1538 9.83333 50.5333 9.92614 50.9675 9.92614C51.2492 9.92614 51.5061 9.88636 51.7381 9.80682C51.9701 9.72396 52.1706 9.60133 52.3397 9.43892C52.5087 9.27652 52.638 9.07599 52.7275 8.83736L54.1344 9.09091C54.0217 9.50521 53.8195 9.86813 53.5279 10.1797C53.2395 10.4879 52.8766 10.7282 52.4391 10.9006C52.0049 11.0696 51.5094 11.1541 50.9526 11.1541ZM59.5124 3.36364V4.55682H55.1971V3.36364H59.5124ZM56.3803 11V2.47869C56.3803 2.00142 56.4847 1.60535 56.6935 1.29048C56.9023 0.972301 57.1791 0.735322 57.5238 0.579545C57.8685 0.420454 58.243 0.340908 58.6474 0.340908C58.9457 0.340908 59.2009 0.365767 59.413 0.415483C59.6251 0.461884 59.7826 0.504971 59.8853 0.544744L59.5373 1.74787C59.4677 1.72798 59.3782 1.70478 59.2688 1.67827C59.1594 1.64844 59.0269 1.63352 58.8711 1.63352C58.5098 1.63352 58.2513 1.72301 58.0955 1.90199C57.9431 2.08097 57.8668 2.33949 57.8668 2.67756V11H56.3803ZM61.0462 11V3.36364H62.483V4.5767H62.5625C62.7017 4.16572 62.947 3.84257 63.2983 3.60724C63.6529 3.36861 64.054 3.24929 64.5014 3.24929C64.5942 3.24929 64.7036 3.2526 64.8295 3.25923C64.9588 3.26586 65.0599 3.27415 65.1328 3.28409V4.70597C65.0732 4.68939 64.9671 4.67116 64.8146 4.65128C64.6622 4.62808 64.5097 4.61648 64.3572 4.61648C64.0059 4.61648 63.6927 4.69105 63.4176 4.8402C63.1458 4.98603 62.9304 5.18987 62.7713 5.4517C62.6122 5.71023 62.5327 6.00521 62.5327 6.33665V11H61.0462ZM69.437 11.1541C68.6846 11.1541 68.0366 10.9934 67.4931 10.6719C66.9528 10.3471 66.5352 9.89134 66.2402 9.30469C65.9486 8.71473 65.8027 8.02367 65.8027 7.23153C65.8027 6.44934 65.9486 5.75994 66.2402 5.16335C66.5352 4.56676 66.9462 4.10109 67.4732 3.76633C68.0035 3.43158 68.6233 3.2642 69.3326 3.2642C69.7634 3.2642 70.181 3.33546 70.5854 3.47798C70.9898 3.6205 71.3527 3.84422 71.6742 4.14915C71.9957 4.45407 72.2492 4.85014 72.4348 5.33736C72.6204 5.82126 72.7132 6.40956 72.7132 7.10227V7.62926H66.6429V6.51562H71.2566C71.2566 6.12453 71.177 5.77817 71.0179 5.47656C70.8588 5.17164 70.6351 4.93134 70.3468 4.75568C70.0617 4.58002 69.727 4.49219 69.3425 4.49219C68.9249 4.49219 68.5603 4.59493 68.2488 4.80043C67.9405 5.0026 67.7019 5.26776 67.5328 5.59588C67.3671 5.92069 67.2843 6.27367 67.2843 6.65483V7.52486C67.2843 8.03527 67.3738 8.46946 67.5527 8.82741C67.735 9.18537 67.9886 9.45881 68.3134 9.64773C68.6382 9.83333 69.0177 9.92614 69.4519 9.92614C69.7336 9.92614 69.9905 9.88636 70.2225 9.80682C70.4545 9.72396 70.655 9.60133 70.824 9.43892C70.9931 9.27652 71.1223 9.07599 71.2118 8.83736L72.6188 9.09091C72.5061 9.50521 72.3039 9.86813 72.0123 10.1797C71.7239 10.4879 71.361 10.7282 70.9235 10.9006C70.4893 11.0696 69.9938 11.1541 69.437 11.1541ZM80.0849 5.22798L78.7376 5.46662C78.6812 5.29427 78.5917 5.13021 78.4691 4.97443C78.3498 4.81865 78.1874 4.69105 77.9819 4.59162C77.7764 4.49219 77.5195 4.44247 77.2113 4.44247C76.7904 4.44247 76.439 4.53693 76.1573 4.72585C75.8756 4.91146 75.7347 5.15175 75.7347 5.44673C75.7347 5.70194 75.8292 5.90743 76.0181 6.06321C76.207 6.21899 76.512 6.34659 76.9329 6.44602L78.146 6.72443C78.8486 6.88684 79.3723 7.13707 79.717 7.47514C80.0617 7.81321 80.234 8.25237 80.234 8.79261C80.234 9.25 80.1014 9.65767 79.8363 10.0156C79.5745 10.3703 79.2082 10.6487 78.7376 10.8509C78.2702 11.053 77.7283 11.1541 77.1119 11.1541C76.2567 11.1541 75.5591 10.9718 75.0188 10.6072C74.4786 10.2393 74.1471 9.71733 74.0245 9.04119L75.4613 8.82244C75.5508 9.19697 75.7347 9.48035 76.0131 9.67259C76.2915 9.86151 76.6545 9.95597 77.1019 9.95597C77.5891 9.95597 77.9786 9.85488 78.2702 9.6527C78.5619 9.44721 78.7077 9.19697 78.7077 8.90199C78.7077 8.66335 78.6183 8.46283 78.4393 8.30043C78.2636 8.13802 77.9935 8.01539 77.6289 7.93253L76.3363 7.64915C75.6237 7.48674 75.0967 7.22822 74.7553 6.87358C74.4173 6.51894 74.2482 6.06984 74.2482 5.52628C74.2482 5.07552 74.3742 4.68111 74.6261 4.34304C74.878 4.00497 75.226 3.74148 75.6701 3.55256C76.1142 3.36032 76.623 3.2642 77.1964 3.2642C78.0217 3.2642 78.6713 3.44318 79.1452 3.80114C79.6192 4.15578 79.9324 4.63139 80.0849 5.22798ZM83.3549 6.46591V11H81.8684V0.818182H83.335V4.60653H83.4295C83.6085 4.19555 83.8819 3.86908 84.2498 3.62713C84.6177 3.38518 85.0983 3.2642 85.6916 3.2642C86.2153 3.2642 86.6726 3.37192 87.0637 3.58736C87.4582 3.80279 87.7631 4.12429 87.9785 4.55185C88.1973 4.97609 88.3066 5.50639 88.3066 6.14276V11H86.8201V6.32173C86.8201 5.7616 86.676 5.32741 86.3876 5.01918C86.0993 4.70762 85.6982 4.55185 85.1845 4.55185C84.8332 4.55185 84.5183 4.62642 84.2399 4.77557C83.9648 4.92472 83.7477 5.14347 83.5886 5.43182C83.4328 5.71686 83.3549 6.06155 83.3549 6.46591Z" fill="black"/>
</svg>
