<svg width="126" height="12" viewBox="0 0 126 12" fill="none" xmlns="http://www.w3.org/2000/svg">
<path d="M3.22159 11.169C2.73769 11.169 2.30019 11.0795 1.90909 10.9006C1.51799 10.7183 1.2081 10.4548 0.979403 10.1101C0.754025 9.76539 0.641335 9.3428 0.641335 8.84233C0.641335 8.41146 0.724195 8.05682 0.889915 7.77841C1.05563 7.5 1.27936 7.27959 1.56108 7.11719C1.8428 6.95478 2.15767 6.83215 2.50568 6.74929C2.85369 6.66643 3.20833 6.60346 3.5696 6.56037C4.02699 6.50734 4.3982 6.46425 4.68324 6.43111C4.96828 6.39465 5.17543 6.33665 5.30469 6.2571C5.43395 6.17756 5.49858 6.0483 5.49858 5.86932V5.83452C5.49858 5.40033 5.37595 5.06392 5.13068 4.82528C4.88873 4.58665 4.52746 4.46733 4.04688 4.46733C3.5464 4.46733 3.15199 4.57836 2.86364 4.80043C2.5786 5.01918 2.38139 5.26278 2.27202 5.53125L0.875 5.21307C1.04072 4.74905 1.28267 4.37453 1.60085 4.08949C1.92235 3.80114 2.2919 3.59233 2.70952 3.46307C3.12713 3.33049 3.56629 3.2642 4.02699 3.2642C4.33191 3.2642 4.65507 3.30066 4.99645 3.37358C5.34115 3.44318 5.66264 3.57244 5.96094 3.76136C6.26255 3.95028 6.50947 4.22041 6.7017 4.57173C6.89394 4.91974 6.99006 5.37216 6.99006 5.92898V11H5.53835V9.95597H5.47869C5.38258 10.1482 5.2384 10.3371 5.04616 10.5227C4.85393 10.7083 4.60701 10.8625 4.3054 10.9851C4.00379 11.1077 3.64252 11.169 3.22159 11.169ZM3.54474 9.97585C3.95573 9.97585 4.30706 9.89465 4.59872 9.73224C4.8937 9.56984 5.11742 9.35772 5.26989 9.09588C5.42566 8.83073 5.50355 8.54735 5.50355 8.24574V7.26136C5.45052 7.31439 5.34777 7.36411 5.19531 7.41051C5.04616 7.4536 4.87547 7.49171 4.68324 7.52486C4.491 7.55469 4.30374 7.58286 4.12145 7.60938C3.93916 7.63258 3.7867 7.65246 3.66406 7.66903C3.37571 7.70549 3.11222 7.76681 2.87358 7.85298C2.63826 7.93916 2.44934 8.06345 2.30682 8.22585C2.16761 8.38494 2.09801 8.59706 2.09801 8.86222C2.09801 9.23011 2.2339 9.50852 2.50568 9.69744C2.77746 9.88305 3.12382 9.97585 3.54474 9.97585ZM10.4565 0.818182V11H8.96999V0.818182H10.4565ZM14.6786 11.169C14.1947 11.169 13.7572 11.0795 13.3661 10.9006C12.975 10.7183 12.6651 10.4548 12.4364 10.1101C12.2111 9.76539 12.0984 9.3428 12.0984 8.84233C12.0984 8.41146 12.1812 8.05682 12.3469 7.77841C12.5127 7.5 12.7364 7.27959 13.0181 7.11719C13.2998 6.95478 13.6147 6.83215 13.9627 6.74929C14.3107 6.66643 14.6654 6.60346 15.0266 6.56037C15.484 6.50734 15.8552 6.46425 16.1403 6.43111C16.4253 6.39465 16.6325 6.33665 16.7617 6.2571C16.891 6.17756 16.9556 6.0483 16.9556 5.86932V5.83452C16.9556 5.40033 16.833 5.06392 16.5877 4.82528C16.3458 4.58665 15.9845 4.46733 15.5039 4.46733C15.0034 4.46733 14.609 4.57836 14.3207 4.80043C14.0356 5.01918 13.8384 5.26278 13.729 5.53125L12.332 5.21307C12.4978 4.74905 12.7397 4.37453 13.0579 4.08949C13.3794 3.80114 13.7489 3.59233 14.1665 3.46307C14.5842 3.33049 15.0233 3.2642 15.484 3.2642C15.7889 3.2642 16.1121 3.30066 16.4535 3.37358C16.7982 3.44318 17.1197 3.57244 17.418 3.76136C17.7196 3.95028 17.9665 4.22041 18.1587 4.57173C18.351 4.91974 18.4471 5.37216 18.4471 5.92898V11H16.9954V9.95597H16.9357C16.8396 10.1482 16.6954 10.3371 16.5032 10.5227C16.311 10.7083 16.064 10.8625 15.7624 10.9851C15.4608 11.1077 15.0996 11.169 14.6786 11.169ZM15.0018 9.97585C15.4128 9.97585 15.7641 9.89465 16.0558 9.73224C16.3507 9.56984 16.5745 9.35772 16.7269 9.09588C16.8827 8.83073 16.9606 8.54735 16.9606 8.24574V7.26136C16.9076 7.31439 16.8048 7.36411 16.6523 7.41051C16.5032 7.4536 16.3325 7.49171 16.1403 7.52486C15.948 7.55469 15.7608 7.58286 15.5785 7.60938C15.3962 7.63258 15.2437 7.65246 15.1211 7.66903C14.8327 7.70549 14.5692 7.76681 14.3306 7.85298C14.0953 7.93916 13.9064 8.06345 13.7638 8.22585C13.6246 8.38494 13.555 8.59706 13.555 8.86222C13.555 9.23011 13.6909 9.50852 13.9627 9.69744C14.2345 9.88305 14.5808 9.97585 15.0018 9.97585ZM20.427 11V3.36364H21.8638V4.5767H21.9434C22.0826 4.16572 22.3278 3.84257 22.6792 3.60724C23.0338 3.36861 23.4348 3.24929 23.8823 3.24929C23.9751 3.24929 24.0845 3.2526 24.2104 3.25923C24.3397 3.26586 24.4408 3.27415 24.5137 3.28409V4.70597C24.454 4.68939 24.348 4.67116 24.1955 4.65128C24.043 4.62808 23.8906 4.61648 23.7381 4.61648C23.3868 4.61648 23.0736 4.69105 22.7985 4.8402C22.5267 4.98603 22.3113 5.18987 22.1522 5.4517C21.9931 5.71023 21.9135 6.00521 21.9135 6.33665V11H20.427ZM25.8001 11V3.36364H27.2269V4.60653H27.3214C27.4805 4.18561 27.7406 3.85748 28.1019 3.62216C28.4632 3.38352 28.8957 3.2642 29.3995 3.2642C29.9099 3.2642 30.3375 3.38352 30.6822 3.62216C31.0302 3.8608 31.2871 4.18892 31.4528 4.60653H31.5323C31.7146 4.19886 32.0046 3.87405 32.4023 3.6321C32.8001 3.38684 33.274 3.2642 33.8242 3.2642C34.5169 3.2642 35.082 3.4813 35.5195 3.91548C35.9603 4.34967 36.1808 5.00426 36.1808 5.87926V11H34.6942V6.01847C34.6942 5.50142 34.5534 5.12689 34.2717 4.89489C33.9899 4.66288 33.6535 4.54688 33.2624 4.54688C32.7785 4.54688 32.4023 4.69602 32.1339 4.99432C31.8654 5.2893 31.7312 5.6688 31.7312 6.13281V11H30.2496V5.92401C30.2496 5.50971 30.1204 5.17661 29.8619 4.92472C29.6033 4.67282 29.2669 4.54688 28.8526 4.54688C28.5709 4.54688 28.3107 4.62145 28.0721 4.7706C27.8368 4.91643 27.6462 5.12026 27.5004 5.3821C27.3578 5.64394 27.2866 5.94721 27.2866 6.2919V11H25.8001ZM42.6724 6.05327V7.34091H38.1582V6.05327H42.6724ZM47.8702 11.1541C47.1311 11.1541 46.4947 10.9867 45.9611 10.652C45.4308 10.3139 45.0231 9.84825 44.7381 9.25497C44.4531 8.66169 44.3105 7.98224 44.3105 7.21662C44.3105 6.44105 44.4564 5.75663 44.748 5.16335C45.0397 4.56676 45.4507 4.10109 45.981 3.76633C46.5113 3.43158 47.1361 3.2642 47.8553 3.2642C48.4353 3.2642 48.9524 3.37192 49.4064 3.58736C49.8605 3.79948 50.2267 4.09777 50.5051 4.48224C50.7869 4.86671 50.9542 5.31581 51.0073 5.82955H49.5605C49.481 5.47159 49.2987 5.16335 49.0137 4.90483C48.7319 4.64631 48.3541 4.51705 47.8801 4.51705C47.4659 4.51705 47.1029 4.62642 46.7914 4.84517C46.4831 5.06061 46.2428 5.36884 46.0705 5.76989C45.8981 6.16761 45.812 6.63826 45.812 7.18182C45.812 7.73864 45.8965 8.21922 46.0655 8.62358C46.2346 9.02794 46.4732 9.34115 46.7814 9.56321C47.093 9.78527 47.4592 9.89631 47.8801 9.89631C48.1619 9.89631 48.4171 9.84493 48.6458 9.74219C48.8778 9.63613 49.0717 9.48532 49.2275 9.28977C49.3865 9.09422 49.4976 8.8589 49.5605 8.58381H51.0073C50.9542 9.07765 50.7935 9.51847 50.525 9.90625C50.2566 10.294 49.897 10.599 49.4462 10.821C48.9988 11.0431 48.4734 11.1541 47.8702 11.1541ZM54.0835 0.818182V11H52.5969V0.818182H54.0835ZM59.2999 11.1541C58.584 11.1541 57.9592 10.9901 57.4256 10.6619C56.892 10.3338 56.4777 9.87476 56.1827 9.2848C55.8877 8.69484 55.7402 8.00544 55.7402 7.21662C55.7402 6.42448 55.8877 5.73177 56.1827 5.13849C56.4777 4.54522 56.892 4.08452 57.4256 3.75639C57.9592 3.42827 58.584 3.2642 59.2999 3.2642C60.0158 3.2642 60.6406 3.42827 61.1742 3.75639C61.7078 4.08452 62.1221 4.54522 62.4171 5.13849C62.7121 5.73177 62.8596 6.42448 62.8596 7.21662C62.8596 8.00544 62.7121 8.69484 62.4171 9.2848C62.1221 9.87476 61.7078 10.3338 61.1742 10.6619C60.6406 10.9901 60.0158 11.1541 59.2999 11.1541ZM59.3049 9.90625C59.7689 9.90625 60.1534 9.78362 60.4583 9.53835C60.7632 9.29309 60.9886 8.96662 61.1344 8.55895C61.2836 8.15128 61.3581 7.70218 61.3581 7.21165C61.3581 6.72443 61.2836 6.27699 61.1344 5.86932C60.9886 5.45833 60.7632 5.12855 60.4583 4.87997C60.1534 4.63139 59.7689 4.5071 59.3049 4.5071C58.8375 4.5071 58.4498 4.63139 58.1415 4.87997C57.8366 5.12855 57.6096 5.45833 57.4604 5.86932C57.3146 6.27699 57.2417 6.72443 57.2417 7.21165C57.2417 7.70218 57.3146 8.15128 57.4604 8.55895C57.6096 8.96662 57.8366 9.29309 58.1415 9.53835C58.4498 9.78362 58.8375 9.90625 59.3049 9.90625ZM67.7354 11.1541C66.9963 11.1541 66.36 10.9867 65.8263 10.652C65.296 10.3139 64.8884 9.84825 64.6033 9.25497C64.3183 8.66169 64.1758 7.98224 64.1758 7.21662C64.1758 6.44105 64.3216 5.75663 64.6133 5.16335C64.9049 4.56676 65.3159 4.10109 65.8462 3.76633C66.3765 3.43158 67.0013 3.2642 67.7205 3.2642C68.3005 3.2642 68.8176 3.37192 69.2717 3.58736C69.7257 3.79948 70.092 4.09777 70.3704 4.48224C70.6521 4.86671 70.8195 5.31581 70.8725 5.82955H69.4258C69.3462 5.47159 69.1639 5.16335 68.8789 4.90483C68.5972 4.64631 68.2193 4.51705 67.7454 4.51705C67.3311 4.51705 66.9682 4.62642 66.6566 4.84517C66.3484 5.06061 66.1081 5.36884 65.9357 5.76989C65.7634 6.16761 65.6772 6.63826 65.6772 7.18182C65.6772 7.73864 65.7617 8.21922 65.9308 8.62358C66.0998 9.02794 66.3384 9.34115 66.6467 9.56321C66.9582 9.78527 67.3245 9.89631 67.7454 9.89631C68.0271 9.89631 68.2823 9.84493 68.511 9.74219C68.743 9.63613 68.9369 9.48532 69.0927 9.28977C69.2518 9.09422 69.3628 8.8589 69.4258 8.58381H70.8725C70.8195 9.07765 70.6587 9.51847 70.3903 9.90625C70.1218 10.294 69.7622 10.599 69.3114 10.821C68.864 11.0431 68.3387 11.1541 67.7354 11.1541ZM73.8294 8.4098L73.8194 6.59517H74.0779L77.1206 3.36364H78.9004L75.4302 7.04261H75.1966L73.8294 8.4098ZM72.4622 11V0.818182H73.9487V11H72.4622ZM77.2846 11L74.5502 7.37074L75.5744 6.33168L79.1092 11H77.2846ZM84.2349 6.05327V7.34091H79.7207V6.05327H84.2349ZM89.4327 11.1541C88.6936 11.1541 88.0572 10.9867 87.5236 10.652C86.9933 10.3139 86.5856 9.84825 86.3006 9.25497C86.0156 8.66169 85.873 7.98224 85.873 7.21662C85.873 6.44105 86.0189 5.75663 86.3105 5.16335C86.6022 4.56676 87.0132 4.10109 87.5435 3.76633C88.0738 3.43158 88.6986 3.2642 89.4178 3.2642C89.9978 3.2642 90.5149 3.37192 90.9689 3.58736C91.423 3.79948 91.7892 4.09777 92.0676 4.48224C92.3494 4.86671 92.5167 5.31581 92.5698 5.82955H91.123C91.0435 5.47159 90.8612 5.16335 90.5762 4.90483C90.2944 4.64631 89.9166 4.51705 89.4426 4.51705C89.0284 4.51705 88.6654 4.62642 88.3539 4.84517C88.0456 5.06061 87.8053 5.36884 87.633 5.76989C87.4606 6.16761 87.3745 6.63826 87.3745 7.18182C87.3745 7.73864 87.459 8.21922 87.628 8.62358C87.7971 9.02794 88.0357 9.34115 88.3439 9.56321C88.6555 9.78527 89.0217 9.89631 89.4426 9.89631C89.7244 9.89631 89.9796 9.84493 90.2083 9.74219C90.4403 9.63613 90.6342 9.48532 90.79 9.28977C90.949 9.09422 91.0601 8.8589 91.123 8.58381H92.5698C92.5167 9.07765 92.356 9.51847 92.0875 9.90625C91.8191 10.294 91.4595 10.599 91.0087 10.821C90.5613 11.0431 90.0359 11.1541 89.4327 11.1541ZM95.646 6.46591V11H94.1594V0.818182H95.6261V4.60653H95.7205C95.8995 4.19555 96.1729 3.86908 96.5408 3.62713C96.9087 3.38518 97.3893 3.2642 97.9826 3.2642C98.5063 3.2642 98.9637 3.37192 99.3548 3.58736C99.7492 3.80279 100.054 4.12429 100.27 4.55185C100.488 4.97609 100.598 5.50639 100.598 6.14276V11H99.1112V6.32173C99.1112 5.7616 98.967 5.32741 98.6786 5.01918C98.3903 4.70762 97.9892 4.55185 97.4755 4.55185C97.1242 4.55185 96.8093 4.62642 96.5309 4.77557C96.2558 4.92472 96.0387 5.14347 95.8796 5.43182C95.7238 5.71686 95.646 6.06155 95.646 6.46591ZM105.873 11.1541C105.12 11.1541 104.472 10.9934 103.929 10.6719C103.388 10.3471 102.971 9.89134 102.676 9.30469C102.384 8.71473 102.238 8.02367 102.238 7.23153C102.238 6.44934 102.384 5.75994 102.676 5.16335C102.971 4.56676 103.382 4.10109 103.909 3.76633C104.439 3.43158 105.059 3.2642 105.768 3.2642C106.199 3.2642 106.617 3.33546 107.021 3.47798C107.425 3.6205 107.788 3.84422 108.11 4.14915C108.431 4.45407 108.685 4.85014 108.87 5.33736C109.056 5.82126 109.149 6.40956 109.149 7.10227V7.62926H103.078V6.51562H107.692C107.692 6.12453 107.613 5.77817 107.453 5.47656C107.294 5.17164 107.071 4.93134 106.782 4.75568C106.497 4.58002 106.163 4.49219 105.778 4.49219C105.36 4.49219 104.996 4.59493 104.684 4.80043C104.376 5.0026 104.137 5.26776 103.968 5.59588C103.803 5.92069 103.72 6.27367 103.72 6.65483V7.52486C103.72 8.03527 103.809 8.46946 103.988 8.82741C104.171 9.18537 104.424 9.45881 104.749 9.64773C105.074 9.83333 105.453 9.92614 105.887 9.92614C106.169 9.92614 106.426 9.88636 106.658 9.80682C106.89 9.72396 107.091 9.60133 107.26 9.43892C107.429 9.27652 107.558 9.07599 107.647 8.83736L109.054 9.09091C108.942 9.50521 108.739 9.86813 108.448 10.1797C108.159 10.4879 107.797 10.7282 107.359 10.9006C106.925 11.0696 106.429 11.1541 105.873 11.1541ZM114.015 11.1541C113.276 11.1541 112.639 10.9867 112.106 10.652C111.575 10.3139 111.168 9.84825 110.883 9.25497C110.598 8.66169 110.455 7.98224 110.455 7.21662C110.455 6.44105 110.601 5.75663 110.893 5.16335C111.184 4.56676 111.595 4.10109 112.126 3.76633C112.656 3.43158 113.281 3.2642 114 3.2642C114.58 3.2642 115.097 3.37192 115.551 3.58736C116.005 3.79948 116.371 4.09777 116.65 4.48224C116.931 4.86671 117.099 5.31581 117.152 5.82955H115.705C115.626 5.47159 115.443 5.16335 115.158 4.90483C114.876 4.64631 114.499 4.51705 114.025 4.51705C113.61 4.51705 113.247 4.62642 112.936 4.84517C112.628 5.06061 112.387 5.36884 112.215 5.76989C112.043 6.16761 111.956 6.63826 111.956 7.18182C111.956 7.73864 112.041 8.21922 112.21 8.62358C112.379 9.02794 112.618 9.34115 112.926 9.56321C113.238 9.78527 113.604 9.89631 114.025 9.89631C114.306 9.89631 114.562 9.84493 114.79 9.74219C115.022 9.63613 115.216 9.48532 115.372 9.28977C115.531 9.09422 115.642 8.8589 115.705 8.58381H117.152C117.099 9.07765 116.938 9.51847 116.67 9.90625C116.401 10.294 116.041 10.599 115.591 10.821C115.143 11.0431 114.618 11.1541 114.015 11.1541ZM120.109 8.4098L120.099 6.59517H120.357L123.4 3.36364H125.18L121.71 7.04261H121.476L120.109 8.4098ZM118.741 11V0.818182H120.228V11H118.741ZM123.564 11L120.83 7.37074L121.854 6.33168L125.388 11H123.564Z" fill="black"/>
</svg>
