<svg width="69" height="14" viewBox="0 0 69 14" fill="none" xmlns="http://www.w3.org/2000/svg">
<path d="M4.21591 11.1541C3.4768 11.1541 2.84044 10.9867 2.30682 10.652C1.77652 10.3139 1.36884 9.84825 1.08381 9.25497C0.798769 8.66169 0.65625 7.98224 0.65625 7.21662C0.65625 6.44105 0.802083 5.75663 1.09375 5.16335C1.38542 4.56676 1.7964 4.10109 2.3267 3.76633C2.85701 3.43158 3.48177 3.2642 4.20099 3.2642C4.78101 3.2642 5.29806 3.37192 5.75213 3.58736C6.2062 3.79948 6.57244 4.09777 6.85085 4.48224C7.13258 4.86671 7.29995 5.31581 7.35298 5.82955H5.90625C5.8267 5.47159 5.64441 5.16335 5.35938 4.90483C5.07765 4.64631 4.69981 4.51705 4.22585 4.51705C3.81155 4.51705 3.44863 4.62642 3.13707 4.84517C2.82884 5.06061 2.58854 5.36884 2.41619 5.76989C2.24384 6.16761 2.15767 6.63826 2.15767 7.18182C2.15767 7.73864 2.24219 8.21922 2.41122 8.62358C2.58026 9.02794 2.81889 9.34115 3.12713 9.56321C3.43868 9.78527 3.80492 9.89631 4.22585 9.89631C4.50758 9.89631 4.76278 9.84493 4.99148 9.74219C5.22349 9.63613 5.41738 9.48532 5.57315 9.28977C5.73224 9.09422 5.84328 8.8589 5.90625 8.58381H7.35298C7.29995 9.07765 7.1392 9.51847 6.87074 9.90625C6.60227 10.294 6.24266 10.599 5.7919 10.821C5.34446 11.0431 4.81913 11.1541 4.21591 11.1541ZM10.4292 0.818182V11H8.94265V0.818182H10.4292ZM15.6456 11.1541C14.9297 11.1541 14.3049 10.9901 13.7713 10.6619C13.2377 10.3338 12.8234 9.87476 12.5284 9.2848C12.2334 8.69484 12.0859 8.00544 12.0859 7.21662C12.0859 6.42448 12.2334 5.73177 12.5284 5.13849C12.8234 4.54522 13.2377 4.08452 13.7713 3.75639C14.3049 3.42827 14.9297 3.2642 15.6456 3.2642C16.3615 3.2642 16.9863 3.42827 17.5199 3.75639C18.0535 4.08452 18.4678 4.54522 18.7628 5.13849C19.0578 5.73177 19.2053 6.42448 19.2053 7.21662C19.2053 8.00544 19.0578 8.69484 18.7628 9.2848C18.4678 9.87476 18.0535 10.3338 17.5199 10.6619C16.9863 10.9901 16.3615 11.1541 15.6456 11.1541ZM15.6506 9.90625C16.1146 9.90625 16.4991 9.78362 16.804 9.53835C17.1089 9.29309 17.3343 8.96662 17.4801 8.55895C17.6293 8.15128 17.7038 7.70218 17.7038 7.21165C17.7038 6.72443 17.6293 6.27699 17.4801 5.86932C17.3343 5.45833 17.1089 5.12855 16.804 4.87997C16.4991 4.63139 16.1146 4.5071 15.6506 4.5071C15.1832 4.5071 14.7955 4.63139 14.4872 4.87997C14.1823 5.12855 13.9553 5.45833 13.8061 5.86932C13.6603 6.27699 13.5874 6.72443 13.5874 7.21165C13.5874 7.70218 13.6603 8.15128 13.8061 8.55895C13.9553 8.96662 14.1823 9.29309 14.4872 9.53835C14.7955 9.78362 15.1832 9.90625 15.6506 9.90625ZM24.0811 11.1541C23.342 11.1541 22.7057 10.9867 22.1721 10.652C21.6417 10.3139 21.2341 9.84825 20.949 9.25497C20.664 8.66169 20.5215 7.98224 20.5215 7.21662C20.5215 6.44105 20.6673 5.75663 20.959 5.16335C21.2507 4.56676 21.6616 4.10109 22.1919 3.76633C22.7222 3.43158 23.347 3.2642 24.0662 3.2642C24.6462 3.2642 25.1633 3.37192 25.6174 3.58736C26.0714 3.79948 26.4377 4.09777 26.7161 4.48224C26.9978 4.86671 27.1652 5.31581 27.2182 5.82955H25.7715C25.6919 5.47159 25.5096 5.16335 25.2246 4.90483C24.9429 4.64631 24.565 4.51705 24.0911 4.51705C23.6768 4.51705 23.3139 4.62642 23.0023 4.84517C22.6941 5.06061 22.4538 5.36884 22.2814 5.76989C22.1091 6.16761 22.0229 6.63826 22.0229 7.18182C22.0229 7.73864 22.1074 8.21922 22.2765 8.62358C22.4455 9.02794 22.6841 9.34115 22.9924 9.56321C23.3039 9.78527 23.6702 9.89631 24.0911 9.89631C24.3728 9.89631 24.628 9.84493 24.8567 9.74219C25.0887 9.63613 25.2826 9.48532 25.4384 9.28977C25.5975 9.09422 25.7085 8.8589 25.7715 8.58381H27.2182C27.1652 9.07765 27.0044 9.51847 26.736 9.90625C26.4675 10.294 26.1079 10.599 25.6571 10.821C25.2097 11.0431 24.6844 11.1541 24.0811 11.1541ZM30.1751 8.4098L30.1651 6.59517H30.4237L33.4663 3.36364H35.2461L31.7759 7.04261H31.5423L30.1751 8.4098ZM28.8079 11V0.818182H30.2944V11H28.8079ZM33.6303 11L30.896 7.37074L31.9201 6.33168L35.4549 11H33.6303ZM40.5806 6.05327V7.34091H36.0664V6.05327H40.5806ZM42.5618 13.8636V3.36364H44.0135V4.60156H44.1378C44.224 4.44247 44.3482 4.25852 44.5107 4.04972C44.6731 3.84091 44.8984 3.65862 45.1868 3.50284C45.4751 3.34375 45.8563 3.2642 46.3303 3.2642C46.9467 3.2642 47.4969 3.41998 47.9808 3.73153C48.4647 4.04309 48.8442 4.49219 49.1193 5.07884C49.3977 5.66548 49.5369 6.37145 49.5369 7.19673C49.5369 8.02202 49.3994 8.72964 49.1243 9.3196C48.8492 9.90625 48.4714 10.3587 47.9908 10.6768C47.5102 10.9917 46.9616 11.1491 46.3452 11.1491C45.8812 11.1491 45.5017 11.0713 45.2067 10.9155C44.915 10.7597 44.6863 10.5774 44.5206 10.3686C44.3549 10.1598 44.2273 9.9742 44.1378 9.81179H44.0483V13.8636H42.5618ZM44.0185 7.18182C44.0185 7.71875 44.0964 8.18939 44.2521 8.59375C44.4079 8.99811 44.6333 9.31463 44.9283 9.54332C45.2232 9.7687 45.5845 9.88139 46.0121 9.88139C46.4562 9.88139 46.8274 9.76373 47.1257 9.52841C47.424 9.28977 47.6494 8.96662 47.8018 8.55895C47.9576 8.15128 48.0355 7.69223 48.0355 7.18182C48.0355 6.67803 47.9593 6.22562 47.8068 5.82457C47.6577 5.42353 47.4323 5.10701 47.1307 4.875C46.8324 4.64299 46.4595 4.52699 46.0121 4.52699C45.5812 4.52699 45.2166 4.63802 44.9183 4.86009C44.6233 5.08215 44.3996 5.39205 44.2472 5.78977C44.0947 6.1875 44.0185 6.65151 44.0185 7.18182ZM52.6889 0.818182V11H51.2024V0.818182H52.6889ZM59.5261 7.8331V3.36364H61.0176V11H59.5559V9.67756H59.4764C59.3007 10.0852 59.019 10.425 58.6312 10.6967C58.2467 10.9652 57.7678 11.0994 57.1944 11.0994C56.7039 11.0994 56.2697 10.9917 55.8919 10.7763C55.5173 10.5575 55.2224 10.2344 55.0069 9.80682C54.7948 9.37926 54.6887 8.85062 54.6887 8.22088V3.36364H56.1752V8.0419C56.1752 8.56226 56.3194 8.97656 56.6078 9.2848C56.8961 9.59304 57.2707 9.74716 57.7314 9.74716C58.0098 9.74716 58.2865 9.67756 58.5616 9.53835C58.84 9.39915 59.0704 9.18868 59.2527 8.90696C59.4383 8.62524 59.5294 8.26728 59.5261 7.8331ZM68.7372 5.22798L67.3899 5.46662C67.3336 5.29427 67.2441 5.13021 67.1214 4.97443C67.0021 4.81865 66.8397 4.69105 66.6342 4.59162C66.4287 4.49219 66.1719 4.44247 65.8636 4.44247C65.4427 4.44247 65.0914 4.53693 64.8097 4.72585C64.5279 4.91146 64.3871 5.15175 64.3871 5.44673C64.3871 5.70194 64.4815 5.90743 64.6705 6.06321C64.8594 6.21899 65.1643 6.34659 65.5852 6.44602L66.7983 6.72443C67.5009 6.88684 68.0246 7.13707 68.3693 7.47514C68.714 7.81321 68.8864 8.25237 68.8864 8.79261C68.8864 9.25 68.7538 9.65767 68.4886 10.0156C68.2268 10.3703 67.8606 10.6487 67.3899 10.8509C66.9226 11.053 66.3807 11.1541 65.7642 11.1541C64.9091 11.1541 64.2114 10.9718 63.6712 10.6072C63.1309 10.2393 62.7995 9.71733 62.6768 9.04119L64.1136 8.82244C64.2031 9.19697 64.3871 9.48035 64.6655 9.67259C64.9439 9.86151 65.3068 9.95597 65.7543 9.95597C66.2415 9.95597 66.6309 9.85488 66.9226 9.6527C67.2143 9.44721 67.3601 9.19697 67.3601 8.90199C67.3601 8.66335 67.2706 8.46283 67.0916 8.30043C66.916 8.13802 66.6458 8.01539 66.2812 7.93253L64.9886 7.64915C64.276 7.48674 63.7491 7.22822 63.4077 6.87358C63.0696 6.51894 62.9006 6.06984 62.9006 5.52628C62.9006 5.07552 63.0265 4.68111 63.2784 4.34304C63.5303 4.00497 63.8783 3.74148 64.3224 3.55256C64.7666 3.36032 65.2753 3.2642 65.8487 3.2642C66.674 3.2642 67.3236 3.44318 67.7976 3.80114C68.2715 4.15578 68.5848 4.63139 68.7372 5.22798Z" fill="black"/>
</svg>
