<svg width="113" height="14" viewBox="0 0 113 14" fill="none" xmlns="http://www.w3.org/2000/svg">
<path d="M4.21591 11.1541C3.4768 11.1541 2.84044 10.9867 2.30682 10.652C1.77652 10.3139 1.36884 9.84825 1.08381 9.25497C0.798769 8.66169 0.65625 7.98224 0.65625 7.21662C0.65625 6.44105 0.802083 5.75663 1.09375 5.16335C1.38542 4.56676 1.7964 4.10109 2.3267 3.76633C2.85701 3.43158 3.48177 3.2642 4.20099 3.2642C4.78101 3.2642 5.29806 3.37192 5.75213 3.58736C6.2062 3.79948 6.57244 4.09777 6.85085 4.48224C7.13258 4.86671 7.29995 5.31581 7.35298 5.82955H5.90625C5.8267 5.47159 5.64441 5.16335 5.35938 4.90483C5.07765 4.64631 4.69981 4.51705 4.22585 4.51705C3.81155 4.51705 3.44863 4.62642 3.13707 4.84517C2.82884 5.06061 2.58854 5.36884 2.41619 5.76989C2.24384 6.16761 2.15767 6.63826 2.15767 7.18182C2.15767 7.73864 2.24219 8.21922 2.41122 8.62358C2.58026 9.02794 2.81889 9.34115 3.12713 9.56321C3.43868 9.78527 3.80492 9.89631 4.22585 9.89631C4.50758 9.89631 4.76278 9.84493 4.99148 9.74219C5.22349 9.63613 5.41738 9.48532 5.57315 9.28977C5.73224 9.09422 5.84328 8.8589 5.90625 8.58381H7.35298C7.29995 9.07765 7.1392 9.51847 6.87074 9.90625C6.60227 10.294 6.24266 10.599 5.7919 10.821C5.34446 11.0431 4.81913 11.1541 4.21591 11.1541ZM11.165 11.169C10.681 11.169 10.2435 11.0795 9.85245 10.9006C9.46135 10.7183 9.15146 10.4548 8.92276 10.1101C8.69738 9.76539 8.58469 9.3428 8.58469 8.84233C8.58469 8.41146 8.66755 8.05682 8.83327 7.77841C8.99899 7.5 9.22272 7.27959 9.50444 7.11719C9.78616 6.95478 10.101 6.83215 10.449 6.74929C10.7971 6.66643 11.1517 6.60346 11.513 6.56037C11.9703 6.50734 12.3416 6.46425 12.6266 6.43111C12.9116 6.39465 13.1188 6.33665 13.248 6.2571C13.3773 6.17756 13.4419 6.0483 13.4419 5.86932V5.83452C13.4419 5.40033 13.3193 5.06392 13.074 4.82528C12.8321 4.58665 12.4708 4.46733 11.9902 4.46733C11.4898 4.46733 11.0953 4.57836 10.807 4.80043C10.522 5.01918 10.3248 5.26278 10.2154 5.53125L8.81836 5.21307C8.98408 4.74905 9.22603 4.37453 9.54421 4.08949C9.86571 3.80114 10.2353 3.59233 10.6529 3.46307C11.0705 3.33049 11.5096 3.2642 11.9703 3.2642C12.2753 3.2642 12.5984 3.30066 12.9398 3.37358C13.2845 3.44318 13.606 3.57244 13.9043 3.76136C14.2059 3.95028 14.4528 4.22041 14.6451 4.57173C14.8373 4.91974 14.9334 5.37216 14.9334 5.92898V11H13.4817V9.95597H13.4221C13.3259 10.1482 13.1818 10.3371 12.9895 10.5227C12.7973 10.7083 12.5504 10.8625 12.2488 10.9851C11.9471 11.1077 11.5859 11.169 11.165 11.169ZM11.4881 9.97585C11.8991 9.97585 12.2504 9.89465 12.5421 9.73224C12.8371 9.56984 13.0608 9.35772 13.2132 9.09588C13.369 8.83073 13.4469 8.54735 13.4469 8.24574V7.26136C13.3939 7.31439 13.2911 7.36411 13.1387 7.41051C12.9895 7.4536 12.8188 7.49171 12.6266 7.52486C12.4344 7.55469 12.2471 7.58286 12.0648 7.60938C11.8825 7.63258 11.7301 7.65246 11.6074 7.66903C11.3191 7.70549 11.0556 7.76681 10.8169 7.85298C10.5816 7.93916 10.3927 8.06345 10.2502 8.22585C10.111 8.38494 10.0414 8.59706 10.0414 8.86222C10.0414 9.23011 10.1773 9.50852 10.449 9.69744C10.7208 9.88305 11.0672 9.97585 11.4881 9.97585ZM18.3999 0.818182V11H16.9134V0.818182H18.3999ZM23.6909 11.1541C22.9385 11.1541 22.2905 10.9934 21.747 10.6719C21.2067 10.3471 20.7891 9.89134 20.4941 9.30469C20.2025 8.71473 20.0566 8.02367 20.0566 7.23153C20.0566 6.44934 20.2025 5.75994 20.4941 5.16335C20.7891 4.56676 21.2001 4.10109 21.7271 3.76633C22.2574 3.43158 22.8772 3.2642 23.5865 3.2642C24.0173 3.2642 24.435 3.33546 24.8393 3.47798C25.2437 3.6205 25.6066 3.84422 25.9281 4.14915C26.2496 4.45407 26.5031 4.85014 26.6887 5.33736C26.8743 5.82126 26.9672 6.40956 26.9672 7.10227V7.62926H20.8968V6.51562H25.5105C25.5105 6.12453 25.4309 5.77817 25.2718 5.47656C25.1127 5.17164 24.889 4.93134 24.6007 4.75568C24.3156 4.58002 23.9809 4.49219 23.5964 4.49219C23.1788 4.49219 22.8142 4.59493 22.5027 4.80043C22.1944 5.0026 21.9558 5.26776 21.7868 5.59588C21.621 5.92069 21.5382 6.27367 21.5382 6.65483V7.52486C21.5382 8.03527 21.6277 8.46946 21.8066 8.82741C21.9889 9.18537 22.2425 9.45881 22.5673 9.64773C22.8921 9.83333 23.2716 9.92614 23.7058 9.92614C23.9875 9.92614 24.2444 9.88636 24.4764 9.80682C24.7084 9.72396 24.9089 9.60133 25.0779 9.43892C25.247 9.27652 25.3762 9.07599 25.4657 8.83736L26.8727 9.09091C26.76 9.50521 26.5578 9.86813 26.2662 10.1797C25.9778 10.4879 25.6149 10.7282 25.1774 10.9006C24.7432 11.0696 24.2477 11.1541 23.6909 11.1541ZM30.103 6.46591V11H28.6165V3.36364H30.0433V4.60653H30.1378C30.3134 4.20218 30.5885 3.87737 30.9631 3.6321C31.3409 3.38684 31.8165 3.2642 32.3899 3.2642C32.9103 3.2642 33.366 3.37358 33.7571 3.59233C34.1482 3.80777 34.4515 4.12926 34.6669 4.55682C34.8823 4.98437 34.9901 5.51302 34.9901 6.14276V11H33.5036V6.32173C33.5036 5.76823 33.3594 5.3357 33.071 5.02415C32.7827 4.70928 32.3866 4.55185 31.8828 4.55185C31.5381 4.55185 31.2315 4.62642 30.9631 4.77557C30.6979 4.92472 30.4875 5.14347 30.3317 5.43182C30.1792 5.71686 30.103 6.06155 30.103 6.46591ZM39.8423 11.1491C39.2259 11.1491 38.6757 10.9917 38.1918 10.6768C37.7112 10.3587 37.3333 9.90625 37.0582 9.3196C36.7865 8.72964 36.6506 8.02202 36.6506 7.19673C36.6506 6.37145 36.7881 5.66548 37.0632 5.07884C37.3416 4.49219 37.7228 4.04309 38.2067 3.73153C38.6906 3.41998 39.2391 3.2642 39.8523 3.2642C40.3262 3.2642 40.7074 3.34375 40.9957 3.50284C41.2874 3.65862 41.5128 3.84091 41.6719 4.04972C41.8343 4.25852 41.9602 4.44247 42.0497 4.60156H42.1392V0.818182H43.6257V11H42.174V9.81179H42.0497C41.9602 9.9742 41.831 10.1598 41.6619 10.3686C41.4962 10.5774 41.2675 10.7597 40.9759 10.9155C40.6842 11.0713 40.3063 11.1491 39.8423 11.1491ZM40.1705 9.88139C40.598 9.88139 40.9593 9.7687 41.2543 9.54332C41.5526 9.31463 41.7779 8.99811 41.9304 8.59375C42.0862 8.18939 42.1641 7.71875 42.1641 7.18182C42.1641 6.65151 42.0878 6.1875 41.9354 5.78977C41.7829 5.39205 41.5592 5.08215 41.2642 4.86009C40.9692 4.63802 40.6046 4.52699 40.1705 4.52699C39.723 4.52699 39.3501 4.64299 39.0518 4.875C38.7536 5.10701 38.5282 5.42353 38.3757 5.82457C38.2266 6.22562 38.152 6.67803 38.152 7.18182C38.152 7.69223 38.2282 8.15128 38.3807 8.55895C38.5331 8.96662 38.7585 9.28977 39.0568 9.52841C39.3584 9.76373 39.7296 9.88139 40.1705 9.88139ZM47.9696 11.169C47.4857 11.169 47.0482 11.0795 46.6571 10.9006C46.266 10.7183 45.9561 10.4548 45.7275 10.1101C45.5021 9.76539 45.3894 9.3428 45.3894 8.84233C45.3894 8.41146 45.4722 8.05682 45.638 7.77841C45.8037 7.5 46.0274 7.27959 46.3091 7.11719C46.5908 6.95478 46.9057 6.83215 47.2537 6.74929C47.6017 6.66643 47.9564 6.60346 48.3176 6.56037C48.775 6.50734 49.1462 6.46425 49.4313 6.43111C49.7163 6.39465 49.9235 6.33665 50.0527 6.2571C50.182 6.17756 50.2466 6.0483 50.2466 5.86932V5.83452C50.2466 5.40033 50.124 5.06392 49.8787 4.82528C49.6368 4.58665 49.2755 4.46733 48.7949 4.46733C48.2944 4.46733 47.9 4.57836 47.6117 4.80043C47.3266 5.01918 47.1294 5.26278 47.0201 5.53125L45.623 5.21307C45.7888 4.74905 46.0307 4.37453 46.3489 4.08949C46.6704 3.80114 47.04 3.59233 47.4576 3.46307C47.8752 3.33049 48.3143 3.2642 48.775 3.2642C49.08 3.2642 49.4031 3.30066 49.7445 3.37358C50.0892 3.44318 50.4107 3.57244 50.709 3.76136C51.0106 3.95028 51.2575 4.22041 51.4498 4.57173C51.642 4.91974 51.7381 5.37216 51.7381 5.92898V11H50.2864V9.95597H50.2267C50.1306 10.1482 49.9864 10.3371 49.7942 10.5227C49.602 10.7083 49.3551 10.8625 49.0534 10.9851C48.7518 11.1077 48.3906 11.169 47.9696 11.169ZM48.2928 9.97585C48.7038 9.97585 49.0551 9.89465 49.3468 9.73224C49.6417 9.56984 49.8655 9.35772 50.0179 9.09588C50.1737 8.83073 50.2516 8.54735 50.2516 8.24574V7.26136C50.1986 7.31439 50.0958 7.36411 49.9434 7.41051C49.7942 7.4536 49.6235 7.49171 49.4313 7.52486C49.2391 7.55469 49.0518 7.58286 48.8695 7.60938C48.6872 7.63258 48.5347 7.65246 48.4121 7.66903C48.1238 7.70549 47.8603 7.76681 47.6216 7.85298C47.3863 7.93916 47.1974 8.06345 47.0549 8.22585C46.9157 8.38494 46.8461 8.59706 46.8461 8.86222C46.8461 9.23011 46.9819 9.50852 47.2537 9.69744C47.5255 9.88305 47.8719 9.97585 48.2928 9.97585ZM53.718 11V3.36364H55.1548V4.5767H55.2344C55.3736 4.16572 55.6188 3.84257 55.9702 3.60724C56.3248 3.36861 56.7259 3.24929 57.1733 3.24929C57.2661 3.24929 57.3755 3.2526 57.5014 3.25923C57.6307 3.26586 57.7318 3.27415 57.8047 3.28409V4.70597C57.745 4.68939 57.639 4.67116 57.4865 4.65128C57.334 4.62808 57.1816 4.61648 57.0291 4.61648C56.6778 4.61648 56.3646 4.69105 56.0895 4.8402C55.8177 4.98603 55.6023 5.18987 55.4432 5.4517C55.2841 5.71023 55.2045 6.00521 55.2045 6.33665V11H53.718ZM63.1392 6.05327V7.34091H58.625V6.05327H63.1392ZM65.1204 13.8636V3.36364H66.5721V4.60156H66.6964C66.7826 4.44247 66.9068 4.25852 67.0692 4.04972C67.2317 3.84091 67.457 3.65862 67.7454 3.50284C68.0337 3.34375 68.4149 3.2642 68.8888 3.2642C69.5053 3.2642 70.0555 3.41998 70.5394 3.73153C71.0233 4.04309 71.4028 4.49219 71.6779 5.07884C71.9563 5.66548 72.0955 6.37145 72.0955 7.19673C72.0955 8.02202 71.958 8.72964 71.6829 9.3196C71.4078 9.90625 71.0299 10.3587 70.5494 10.6768C70.0688 10.9917 69.5202 11.1491 68.9038 11.1491C68.4397 11.1491 68.0603 11.0713 67.7653 10.9155C67.4736 10.7597 67.2449 10.5774 67.0792 10.3686C66.9135 10.1598 66.7859 9.9742 66.6964 9.81179H66.6069V13.8636H65.1204ZM66.5771 7.18182C66.5771 7.71875 66.6549 8.18939 66.8107 8.59375C66.9665 8.99811 67.1919 9.31463 67.4869 9.54332C67.7818 9.7687 68.1431 9.88139 68.5707 9.88139C69.0148 9.88139 69.386 9.76373 69.6843 9.52841C69.9826 9.28977 70.208 8.96662 70.3604 8.55895C70.5162 8.15128 70.5941 7.69223 70.5941 7.18182C70.5941 6.67803 70.5179 6.22562 70.3654 5.82457C70.2163 5.42353 69.9909 5.10701 69.6893 4.875C69.391 4.64299 69.0181 4.52699 68.5707 4.52699C68.1398 4.52699 67.7752 4.63802 67.4769 4.86009C67.1819 5.08215 66.9582 5.39205 66.8058 5.78977C66.6533 6.1875 66.5771 6.65151 66.5771 7.18182ZM75.2475 0.818182V11H73.761V0.818182H75.2475ZM82.0847 7.8331V3.36364H83.5762V11H82.1145V9.67756H82.035C81.8593 10.0852 81.5776 10.425 81.1898 10.6967C80.8053 10.9652 80.3264 11.0994 79.753 11.0994C79.2625 11.0994 78.8283 10.9917 78.4505 10.7763C78.0759 10.5575 77.781 10.2344 77.5655 9.80682C77.3534 9.37926 77.2473 8.85062 77.2473 8.22088V3.36364H78.7338V8.0419C78.7338 8.56226 78.878 8.97656 79.1664 9.2848C79.4547 9.59304 79.8292 9.74716 80.29 9.74716C80.5684 9.74716 80.8451 9.67756 81.1202 9.53835C81.3986 9.39915 81.629 9.18868 81.8113 8.90696C81.9969 8.62524 82.088 8.26728 82.0847 7.8331ZM91.2958 5.22798L89.9485 5.46662C89.8922 5.29427 89.8027 5.13021 89.68 4.97443C89.5607 4.81865 89.3983 4.69105 89.1928 4.59162C88.9873 4.49219 88.7305 4.44247 88.4222 4.44247C88.0013 4.44247 87.65 4.53693 87.3683 4.72585C87.0865 4.91146 86.9457 5.15175 86.9457 5.44673C86.9457 5.70194 87.0401 5.90743 87.229 6.06321C87.418 6.21899 87.7229 6.34659 88.1438 6.44602L89.3569 6.72443C90.0595 6.88684 90.5832 7.13707 90.9279 7.47514C91.2726 7.81321 91.445 8.25237 91.445 8.79261C91.445 9.25 91.3124 9.65767 91.0472 10.0156C90.7854 10.3703 90.4192 10.6487 89.9485 10.8509C89.4812 11.053 88.9393 11.1541 88.3228 11.1541C87.4677 11.1541 86.77 10.9718 86.2298 10.6072C85.6895 10.2393 85.3581 9.71733 85.2354 9.04119L86.6722 8.82244C86.7617 9.19697 86.9457 9.48035 87.2241 9.67259C87.5025 9.86151 87.8654 9.95597 88.3129 9.95597C88.8001 9.95597 89.1895 9.85488 89.4812 9.6527C89.7728 9.44721 89.9187 9.19697 89.9187 8.90199C89.9187 8.66335 89.8292 8.46283 89.6502 8.30043C89.4746 8.13802 89.2044 8.01539 88.8398 7.93253L87.5472 7.64915C86.8346 7.48674 86.3076 7.22822 85.9663 6.87358C85.6282 6.51894 85.4592 6.06984 85.4592 5.52628C85.4592 5.07552 85.5851 4.68111 85.837 4.34304C86.0889 4.00497 86.4369 3.74148 86.881 3.55256C87.3252 3.36032 87.8339 3.2642 88.4073 3.2642C89.2326 3.2642 89.8822 3.44318 90.3562 3.80114C90.8301 4.15578 91.1433 4.63139 91.2958 5.22798ZM97.5787 6.05327V7.34091H93.0645V6.05327H97.5787ZM103.085 11.169C102.299 11.1657 101.628 10.9586 101.071 10.5476C100.514 10.1366 100.088 9.53835 99.7935 8.75284C99.4985 7.96733 99.351 7.02107 99.351 5.91406C99.351 4.81037 99.4985 3.86742 99.7935 3.08523C100.092 2.30303 100.519 1.70644 101.076 1.29545C101.636 0.884469 102.306 0.678977 103.085 0.678977C103.864 0.678977 104.531 0.886126 105.088 1.30043C105.645 1.71141 106.071 2.308 106.366 3.0902C106.664 3.86908 106.813 4.81037 106.813 5.91406C106.813 7.02438 106.666 7.9723 106.371 8.75781C106.076 9.54001 105.65 10.1383 105.093 10.5526C104.536 10.9635 103.867 11.169 103.085 11.169ZM103.085 9.84162C103.774 9.84162 104.313 9.50521 104.7 8.83239C105.092 8.15956 105.287 7.18679 105.287 5.91406C105.287 5.06889 105.198 4.35464 105.019 3.77131C104.843 3.18466 104.589 2.74053 104.258 2.43892C103.93 2.134 103.539 1.98153 103.085 1.98153C102.399 1.98153 101.86 2.3196 101.469 2.99574C101.078 3.67187 100.881 4.64465 100.877 5.91406C100.877 6.76255 100.965 7.48011 101.141 8.06676C101.32 8.65009 101.573 9.09257 101.901 9.39418C102.23 9.69247 102.624 9.84162 103.085 9.84162ZM112.44 0.818182V11H110.899V2.35938H110.839L108.403 3.95028V2.47869L110.944 0.818182H112.44Z" fill="black"/>
</svg>
