<svg width="93" height="14" viewBox="0 0 93 14" fill="none" xmlns="http://www.w3.org/2000/svg">
<path d="M2.65483 11L0.40767 3.36364H1.94389L3.44034 8.97159H3.51491L5.01634 3.36364H6.55256L8.04403 8.94673H8.11861L9.60511 3.36364H11.1413L8.89915 11H7.38281L5.83168 5.48651H5.71733L4.16619 11H2.65483ZM14.7743 11.169C14.2904 11.169 13.8529 11.0795 13.4618 10.9006C13.0707 10.7183 12.7608 10.4548 12.5321 10.1101C12.3068 9.76539 12.1941 9.3428 12.1941 8.84233C12.1941 8.41146 12.2769 8.05682 12.4426 7.77841C12.6084 7.5 12.8321 7.27959 13.1138 7.11719C13.3955 6.95478 13.7104 6.83215 14.0584 6.74929C14.4064 6.66643 14.7611 6.60346 15.1223 6.56037C15.5797 6.50734 15.9509 6.46425 16.236 6.43111C16.521 6.39465 16.7282 6.33665 16.8574 6.2571C16.9867 6.17756 17.0513 6.0483 17.0513 5.86932V5.83452C17.0513 5.40033 16.9287 5.06392 16.6834 4.82528C16.4415 4.58665 16.0802 4.46733 15.5996 4.46733C15.0991 4.46733 14.7047 4.57836 14.4164 4.80043C14.1313 5.01918 13.9341 5.26278 13.8248 5.53125L12.4277 5.21307C12.5935 4.74905 12.8354 4.37453 13.1536 4.08949C13.4751 3.80114 13.8446 3.59233 14.2623 3.46307C14.6799 3.33049 15.119 3.2642 15.5797 3.2642C15.8846 3.2642 16.2078 3.30066 16.5492 3.37358C16.8939 3.44318 17.2154 3.57244 17.5137 3.76136C17.8153 3.95028 18.0622 4.22041 18.2544 4.57173C18.4467 4.91974 18.5428 5.37216 18.5428 5.92898V11H17.0911V9.95597H17.0314C16.9353 10.1482 16.7911 10.3371 16.5989 10.5227C16.4067 10.7083 16.1597 10.8625 15.8581 10.9851C15.5565 11.1077 15.1953 11.169 14.7743 11.169ZM15.0975 9.97585C15.5085 9.97585 15.8598 9.89465 16.1515 9.73224C16.4464 9.56984 16.6702 9.35772 16.8226 9.09588C16.9784 8.83073 17.0563 8.54735 17.0563 8.24574V7.26136C17.0033 7.31439 16.9005 7.36411 16.748 7.41051C16.5989 7.4536 16.4282 7.49171 16.236 7.52486C16.0437 7.55469 15.8565 7.58286 15.6742 7.60938C15.4919 7.63258 15.3394 7.65246 15.2168 7.66903C14.9284 7.70549 14.665 7.76681 14.4263 7.85298C14.191 7.93916 14.0021 8.06345 13.8596 8.22585C13.7203 8.38494 13.6507 8.59706 13.6507 8.86222C13.6507 9.23011 13.7866 9.50852 14.0584 9.69744C14.3302 9.88305 14.6766 9.97585 15.0975 9.97585ZM24.0874 3.36364V4.55682H19.9162V3.36364H24.0874ZM21.0348 1.53409H22.5213V8.75781C22.5213 9.04616 22.5644 9.26326 22.6506 9.40909C22.7367 9.55161 22.8478 9.64938 22.9837 9.70241C23.1229 9.75213 23.2737 9.77699 23.4361 9.77699C23.5554 9.77699 23.6598 9.7687 23.7493 9.75213C23.8388 9.73556 23.9084 9.7223 23.9581 9.71236L24.2266 10.9403C24.1404 10.9735 24.0178 11.0066 23.8587 11.0398C23.6996 11.0762 23.5007 11.0961 23.2621 11.0994C22.871 11.1061 22.5064 11.0365 22.1683 10.8906C21.8303 10.7448 21.5568 10.5194 21.348 10.2145C21.1392 9.90956 21.0348 9.52675 21.0348 9.06605V1.53409ZM28.8663 11.1541C28.1272 11.1541 27.4908 10.9867 26.9572 10.652C26.4269 10.3139 26.0192 9.84825 25.7342 9.25497C25.4492 8.66169 25.3066 7.98224 25.3066 7.21662C25.3066 6.44105 25.4525 5.75663 25.7441 5.16335C26.0358 4.56676 26.4468 4.10109 26.9771 3.76633C27.5074 3.43158 28.1322 3.2642 28.8514 3.2642C29.4314 3.2642 29.9484 3.37192 30.4025 3.58736C30.8566 3.79948 31.2228 4.09777 31.5012 4.48224C31.783 4.86671 31.9503 5.31581 32.0034 5.82955H30.5566C30.4771 5.47159 30.2948 5.16335 30.0098 4.90483C29.728 4.64631 29.3502 4.51705 28.8762 4.51705C28.4619 4.51705 28.099 4.62642 27.7875 4.84517C27.4792 5.06061 27.2389 5.36884 27.0666 5.76989C26.8942 6.16761 26.8081 6.63826 26.8081 7.18182C26.8081 7.73864 26.8926 8.21922 27.0616 8.62358C27.2306 9.02794 27.4693 9.34115 27.7775 9.56321C28.0891 9.78527 28.4553 9.89631 28.8762 9.89631C29.158 9.89631 29.4132 9.84493 29.6419 9.74219C29.8739 9.63613 30.0678 9.48532 30.2235 9.28977C30.3826 9.09422 30.4937 8.8589 30.5566 8.58381H32.0034C31.9503 9.07765 31.7896 9.51847 31.5211 9.90625C31.2527 10.294 30.8931 10.599 30.4423 10.821C29.9949 11.0431 29.4695 11.1541 28.8663 11.1541ZM35.0795 6.46591V11H33.593V0.818182H35.0597V4.60653H35.1541C35.3331 4.19555 35.6065 3.86908 35.9744 3.62713C36.3423 3.38518 36.8229 3.2642 37.4162 3.2642C37.9399 3.2642 38.3973 3.37192 38.7884 3.58736C39.1828 3.80279 39.4877 4.12429 39.7031 4.55185C39.9219 4.97609 40.0312 5.50639 40.0312 6.14276V11H38.5447V6.32173C38.5447 5.7616 38.4006 5.32741 38.1122 5.01918C37.8239 4.70762 37.4228 4.55185 36.9091 4.55185C36.5578 4.55185 36.2429 4.62642 35.9645 4.77557C35.6894 4.92472 35.4723 5.14347 35.3132 5.43182C35.1574 5.71686 35.0795 6.06155 35.0795 6.46591ZM46.5142 6.05327V7.34091H42V6.05327H46.5142ZM54.2177 5.22798L52.8704 5.46662C52.814 5.29427 52.7246 5.13021 52.6019 4.97443C52.4826 4.81865 52.3202 4.69105 52.1147 4.59162C51.9092 4.49219 51.6523 4.44247 51.3441 4.44247C50.9232 4.44247 50.5719 4.53693 50.2901 4.72585C50.0084 4.91146 49.8675 5.15175 49.8675 5.44673C49.8675 5.70194 49.962 5.90743 50.1509 6.06321C50.3398 6.21899 50.6448 6.34659 51.0657 6.44602L52.2788 6.72443C52.9814 6.88684 53.5051 7.13707 53.8498 7.47514C54.1945 7.81321 54.3668 8.25237 54.3668 8.79261C54.3668 9.25 54.2343 9.65767 53.9691 10.0156C53.7073 10.3703 53.341 10.6487 52.8704 10.8509C52.4031 11.053 51.8612 11.1541 51.2447 11.1541C50.3896 11.1541 49.6919 10.9718 49.1516 10.6072C48.6114 10.2393 48.2799 9.71733 48.1573 9.04119L49.5941 8.82244C49.6836 9.19697 49.8675 9.48035 50.146 9.67259C50.4244 9.86151 50.7873 9.95597 51.2347 9.95597C51.7219 9.95597 52.1114 9.85488 52.4031 9.6527C52.6947 9.44721 52.8406 9.19697 52.8406 8.90199C52.8406 8.66335 52.7511 8.46283 52.5721 8.30043C52.3964 8.13802 52.1263 8.01539 51.7617 7.93253L50.4691 7.64915C49.7565 7.48674 49.2295 7.22822 48.8881 6.87358C48.5501 6.51894 48.381 6.06984 48.381 5.52628C48.381 5.07552 48.507 4.68111 48.7589 4.34304C49.0108 4.00497 49.3588 3.74148 49.8029 3.55256C50.247 3.36032 50.7558 3.2642 51.3292 3.2642C52.1545 3.2642 52.8041 3.44318 53.2781 3.80114C53.752 4.15578 54.0652 4.63139 54.2177 5.22798ZM61.1568 13.8636V9.81179H61.0673C60.9778 9.9742 60.8485 10.1598 60.6795 10.3686C60.5138 10.5774 60.2851 10.7597 59.9934 10.9155C59.7018 11.0713 59.3239 11.1491 58.8599 11.1491C58.2434 11.1491 57.6932 10.9917 57.2093 10.6768C56.7288 10.3587 56.3509 9.90625 56.0758 9.3196C55.804 8.72964 55.6681 8.02202 55.6681 7.19673C55.6681 6.37145 55.8057 5.66548 56.0808 5.07884C56.3592 4.49219 56.7404 4.04309 57.2243 3.73153C57.7082 3.41998 58.2567 3.2642 58.8699 3.2642C59.3438 3.2642 59.725 3.34375 60.0133 3.50284C60.305 3.65862 60.5304 3.84091 60.6895 4.04972C60.8519 4.25852 60.9778 4.44247 61.0673 4.60156H61.1916V3.36364H62.6433V13.8636H61.1568ZM59.188 9.88139C59.6156 9.88139 59.9769 9.7687 60.2718 9.54332C60.5701 9.31463 60.7955 8.99811 60.948 8.59375C61.1038 8.18939 61.1816 7.71875 61.1816 7.18182C61.1816 6.65151 61.1054 6.1875 60.9529 5.78977C60.8005 5.39205 60.5768 5.08215 60.2818 4.86009C59.9868 4.63802 59.6222 4.52699 59.188 4.52699C58.7406 4.52699 58.3677 4.64299 58.0694 4.875C57.7711 5.10701 57.5458 5.42353 57.3933 5.82457C57.2441 6.22562 57.1696 6.67803 57.1696 7.18182C57.1696 7.69223 57.2458 8.15128 57.3983 8.55895C57.5507 8.96662 57.7761 9.28977 58.0744 9.52841C58.376 9.76373 58.7472 9.88139 59.188 9.88139ZM69.4792 7.8331V3.36364H70.9707V11H69.5091V9.67756H69.4295C69.2538 10.0852 68.9721 10.425 68.5843 10.6967C68.1999 10.9652 67.7209 11.0994 67.1475 11.0994C66.657 11.0994 66.2228 10.9917 65.845 10.7763C65.4705 10.5575 65.1755 10.2344 64.96 9.80682C64.7479 9.37926 64.6419 8.85062 64.6419 8.22088V3.36364H66.1284V8.0419C66.1284 8.56226 66.2725 8.97656 66.5609 9.2848C66.8493 9.59304 67.2238 9.74716 67.6845 9.74716C67.9629 9.74716 68.2396 9.67756 68.5147 9.53835C68.7931 9.39915 69.0235 9.18868 69.2058 8.90696C69.3914 8.62524 69.4825 8.26728 69.4792 7.8331ZM75.1903 11.169C74.7064 11.169 74.2689 11.0795 73.8778 10.9006C73.4867 10.7183 73.1768 10.4548 72.9482 10.1101C72.7228 9.76539 72.6101 9.3428 72.6101 8.84233C72.6101 8.41146 72.6929 8.05682 72.8587 7.77841C73.0244 7.5 73.2481 7.27959 73.5298 7.11719C73.8116 6.95478 74.1264 6.83215 74.4744 6.74929C74.8224 6.66643 75.1771 6.60346 75.5384 6.56037C75.9957 6.50734 76.367 6.46425 76.652 6.43111C76.937 6.39465 77.1442 6.33665 77.2734 6.2571C77.4027 6.17756 77.4673 6.0483 77.4673 5.86932V5.83452C77.4673 5.40033 77.3447 5.06392 77.0994 4.82528C76.8575 4.58665 76.4962 4.46733 76.0156 4.46733C75.5152 4.46733 75.1207 4.57836 74.8324 4.80043C74.5473 5.01918 74.3501 5.26278 74.2408 5.53125L72.8438 5.21307C73.0095 4.74905 73.2514 4.37453 73.5696 4.08949C73.8911 3.80114 74.2607 3.59233 74.6783 3.46307C75.0959 3.33049 75.535 3.2642 75.9957 3.2642C76.3007 3.2642 76.6238 3.30066 76.9652 3.37358C77.3099 3.44318 77.6314 3.57244 77.9297 3.76136C78.2313 3.95028 78.4782 4.22041 78.6705 4.57173C78.8627 4.91974 78.9588 5.37216 78.9588 5.92898V11H77.5071V9.95597H77.4474C77.3513 10.1482 77.2071 10.3371 77.0149 10.5227C76.8227 10.7083 76.5758 10.8625 76.2741 10.9851C75.9725 11.1077 75.6113 11.169 75.1903 11.169ZM75.5135 9.97585C75.9245 9.97585 76.2758 9.89465 76.5675 9.73224C76.8625 9.56984 77.0862 9.35772 77.2386 9.09588C77.3944 8.83073 77.4723 8.54735 77.4723 8.24574V7.26136C77.4193 7.31439 77.3165 7.36411 77.1641 7.41051C77.0149 7.4536 76.8442 7.49171 76.652 7.52486C76.4598 7.55469 76.2725 7.58286 76.0902 7.60938C75.9079 7.63258 75.7554 7.65246 75.6328 7.66903C75.3445 7.70549 75.081 7.76681 74.8423 7.85298C74.607 7.93916 74.4181 8.06345 74.2756 8.22585C74.1364 8.38494 74.0668 8.59706 74.0668 8.86222C74.0668 9.23011 74.2027 9.50852 74.4744 9.69744C74.7462 9.88305 75.0926 9.97585 75.5135 9.97585ZM80.9387 11V3.36364H82.3755V4.5767H82.4551C82.5943 4.16572 82.8395 3.84257 83.1909 3.60724C83.5455 3.36861 83.9466 3.24929 84.394 3.24929C84.4868 3.24929 84.5962 3.2526 84.7221 3.25923C84.8514 3.26586 84.9525 3.27415 85.0254 3.28409V4.70597C84.9657 4.68939 84.8597 4.67116 84.7072 4.65128C84.5547 4.62808 84.4023 4.61648 84.2498 4.61648C83.8985 4.61648 83.5853 4.69105 83.3102 4.8402C83.0384 4.98603 82.823 5.18987 82.6639 5.4517C82.5048 5.71023 82.4252 6.00521 82.4252 6.33665V11H80.9387ZM89.3295 11.1541C88.5772 11.1541 87.9292 10.9934 87.3857 10.6719C86.8454 10.3471 86.4278 9.89134 86.1328 9.30469C85.8411 8.71473 85.6953 8.02367 85.6953 7.23153C85.6953 6.44934 85.8411 5.75994 86.1328 5.16335C86.4278 4.56676 86.8388 4.10109 87.3658 3.76633C87.8961 3.43158 88.5159 3.2642 89.2251 3.2642C89.656 3.2642 90.0736 3.33546 90.478 3.47798C90.8823 3.6205 91.2453 3.84422 91.5668 4.14915C91.8883 4.45407 92.1418 4.85014 92.3274 5.33736C92.513 5.82126 92.6058 6.40956 92.6058 7.10227V7.62926H86.5355V6.51562H91.1491C91.1491 6.12453 91.0696 5.77817 90.9105 5.47656C90.7514 5.17164 90.5277 4.93134 90.2393 4.75568C89.9543 4.58002 89.6196 4.49219 89.2351 4.49219C88.8175 4.49219 88.4529 4.59493 88.1413 4.80043C87.8331 5.0026 87.5945 5.26776 87.4254 5.59588C87.2597 5.92069 87.1768 6.27367 87.1768 6.65483V7.52486C87.1768 8.03527 87.2663 8.46946 87.4453 8.82741C87.6276 9.18537 87.8812 9.45881 88.206 9.64773C88.5308 9.83333 88.9103 9.92614 89.3445 9.92614C89.6262 9.92614 89.883 9.88636 90.1151 9.80682C90.3471 9.72396 90.5476 9.60133 90.7166 9.43892C90.8857 9.27652 91.0149 9.07599 91.1044 8.83736L92.5114 9.09091C92.3987 9.50521 92.1965 9.86813 91.9048 10.1797C91.6165 10.4879 91.2536 10.7282 90.8161 10.9006C90.3819 11.0696 89.8864 11.1541 89.3295 11.1541Z" fill="black"/>
</svg>
