<svg width="112" height="14" viewBox="0 0 112 14" fill="none" xmlns="http://www.w3.org/2000/svg">
<path d="M4.21591 11.1541C3.4768 11.1541 2.84044 10.9867 2.30682 10.652C1.77652 10.3139 1.36884 9.84825 1.08381 9.25497C0.798769 8.66169 0.65625 7.98224 0.65625 7.21662C0.65625 6.44105 0.802083 5.75663 1.09375 5.16335C1.38542 4.56676 1.7964 4.10109 2.3267 3.76633C2.85701 3.43158 3.48177 3.2642 4.20099 3.2642C4.78101 3.2642 5.29806 3.37192 5.75213 3.58736C6.2062 3.79948 6.57244 4.09777 6.85085 4.48224C7.13258 4.86671 7.29995 5.31581 7.35298 5.82955H5.90625C5.8267 5.47159 5.64441 5.16335 5.35938 4.90483C5.07765 4.64631 4.69981 4.51705 4.22585 4.51705C3.81155 4.51705 3.44863 4.62642 3.13707 4.84517C2.82884 5.06061 2.58854 5.36884 2.41619 5.76989C2.24384 6.16761 2.15767 6.63826 2.15767 7.18182C2.15767 7.73864 2.24219 8.21922 2.41122 8.62358C2.58026 9.02794 2.81889 9.34115 3.12713 9.56321C3.43868 9.78527 3.80492 9.89631 4.22585 9.89631C4.50758 9.89631 4.76278 9.84493 4.99148 9.74219C5.22349 9.63613 5.41738 9.48532 5.57315 9.28977C5.73224 9.09422 5.84328 8.8589 5.90625 8.58381H7.35298C7.29995 9.07765 7.1392 9.51847 6.87074 9.90625C6.60227 10.294 6.24266 10.599 5.7919 10.821C5.34446 11.0431 4.81913 11.1541 4.21591 11.1541ZM10.4292 0.818182V11H8.94265V0.818182H10.4292ZM15.6456 11.1541C14.9297 11.1541 14.3049 10.9901 13.7713 10.6619C13.2377 10.3338 12.8234 9.87476 12.5284 9.2848C12.2334 8.69484 12.0859 8.00544 12.0859 7.21662C12.0859 6.42448 12.2334 5.73177 12.5284 5.13849C12.8234 4.54522 13.2377 4.08452 13.7713 3.75639C14.3049 3.42827 14.9297 3.2642 15.6456 3.2642C16.3615 3.2642 16.9863 3.42827 17.5199 3.75639C18.0535 4.08452 18.4678 4.54522 18.7628 5.13849C19.0578 5.73177 19.2053 6.42448 19.2053 7.21662C19.2053 8.00544 19.0578 8.69484 18.7628 9.2848C18.4678 9.87476 18.0535 10.3338 17.5199 10.6619C16.9863 10.9901 16.3615 11.1541 15.6456 11.1541ZM15.6506 9.90625C16.1146 9.90625 16.4991 9.78362 16.804 9.53835C17.1089 9.29309 17.3343 8.96662 17.4801 8.55895C17.6293 8.15128 17.7038 7.70218 17.7038 7.21165C17.7038 6.72443 17.6293 6.27699 17.4801 5.86932C17.3343 5.45833 17.1089 5.12855 16.804 4.87997C16.4991 4.63139 16.1146 4.5071 15.6506 4.5071C15.1832 4.5071 14.7955 4.63139 14.4872 4.87997C14.1823 5.12855 13.9553 5.45833 13.8061 5.86932C13.6603 6.27699 13.5874 6.72443 13.5874 7.21165C13.5874 7.70218 13.6603 8.15128 13.8061 8.55895C13.9553 8.96662 14.1823 9.29309 14.4872 9.53835C14.7955 9.78362 15.1832 9.90625 15.6506 9.90625ZM24.0811 11.1541C23.342 11.1541 22.7057 10.9867 22.1721 10.652C21.6417 10.3139 21.2341 9.84825 20.949 9.25497C20.664 8.66169 20.5215 7.98224 20.5215 7.21662C20.5215 6.44105 20.6673 5.75663 20.959 5.16335C21.2507 4.56676 21.6616 4.10109 22.1919 3.76633C22.7222 3.43158 23.347 3.2642 24.0662 3.2642C24.6462 3.2642 25.1633 3.37192 25.6174 3.58736C26.0714 3.79948 26.4377 4.09777 26.7161 4.48224C26.9978 4.86671 27.1652 5.31581 27.2182 5.82955H25.7715C25.6919 5.47159 25.5096 5.16335 25.2246 4.90483C24.9429 4.64631 24.565 4.51705 24.0911 4.51705C23.6768 4.51705 23.3139 4.62642 23.0023 4.84517C22.6941 5.06061 22.4538 5.36884 22.2814 5.76989C22.1091 6.16761 22.0229 6.63826 22.0229 7.18182C22.0229 7.73864 22.1074 8.21922 22.2765 8.62358C22.4455 9.02794 22.6841 9.34115 22.9924 9.56321C23.3039 9.78527 23.6702 9.89631 24.0911 9.89631C24.3728 9.89631 24.628 9.84493 24.8567 9.74219C25.0887 9.63613 25.2826 9.48532 25.4384 9.28977C25.5975 9.09422 25.7085 8.8589 25.7715 8.58381H27.2182C27.1652 9.07765 27.0044 9.51847 26.736 9.90625C26.4675 10.294 26.1079 10.599 25.6571 10.821C25.2097 11.0431 24.6844 11.1541 24.0811 11.1541ZM30.1751 8.4098L30.1651 6.59517H30.4237L33.4663 3.36364H35.2461L31.7759 7.04261H31.5423L30.1751 8.4098ZM28.8079 11V0.818182H30.2944V11H28.8079ZM33.6303 11L30.896 7.37074L31.9201 6.33168L35.4549 11H33.6303ZM40.5806 6.05327V7.34091H36.0664V6.05327H40.5806ZM48.2841 5.22798L46.9368 5.46662C46.8804 5.29427 46.791 5.13021 46.6683 4.97443C46.549 4.81865 46.3866 4.69105 46.1811 4.59162C45.9756 4.49219 45.7188 4.44247 45.4105 4.44247C44.9896 4.44247 44.6383 4.53693 44.3565 4.72585C44.0748 4.91146 43.9339 5.15175 43.9339 5.44673C43.9339 5.70194 44.0284 5.90743 44.2173 6.06321C44.4063 6.21899 44.7112 6.34659 45.1321 6.44602L46.3452 6.72443C47.0478 6.88684 47.5715 7.13707 47.9162 7.47514C48.2609 7.81321 48.4332 8.25237 48.4332 8.79261C48.4332 9.25 48.3007 9.65767 48.0355 10.0156C47.7737 10.3703 47.4074 10.6487 46.9368 10.8509C46.4695 11.053 45.9276 11.1541 45.3111 11.1541C44.456 11.1541 43.7583 10.9718 43.218 10.6072C42.6778 10.2393 42.3464 9.71733 42.2237 9.04119L43.6605 8.82244C43.75 9.19697 43.9339 9.48035 44.2124 9.67259C44.4908 9.86151 44.8537 9.95597 45.3011 9.95597C45.7884 9.95597 46.1778 9.85488 46.4695 9.6527C46.7611 9.44721 46.907 9.19697 46.907 8.90199C46.907 8.66335 46.8175 8.46283 46.6385 8.30043C46.4628 8.13802 46.1927 8.01539 45.8281 7.93253L44.5355 7.64915C43.8229 7.48674 43.2959 7.22822 42.9545 6.87358C42.6165 6.51894 42.4474 6.06984 42.4474 5.52628C42.4474 5.07552 42.5734 4.68111 42.8253 4.34304C43.0772 4.00497 43.4252 3.74148 43.8693 3.55256C44.3134 3.36032 44.8222 3.2642 45.3956 3.2642C46.2209 3.2642 46.8705 3.44318 47.3445 3.80114C47.8184 4.15578 48.1316 4.63139 48.2841 5.22798ZM53.6323 3.36364V4.55682H49.4611V3.36364H53.6323ZM50.5797 1.53409H52.0662V8.75781C52.0662 9.04616 52.1093 9.26326 52.1955 9.40909C52.2817 9.55161 52.3927 9.64938 52.5286 9.70241C52.6678 9.75213 52.8186 9.77699 52.981 9.77699C53.1003 9.77699 53.2047 9.7687 53.2942 9.75213C53.3837 9.73556 53.4533 9.7223 53.503 9.71236L53.7715 10.9403C53.6853 10.9735 53.5627 11.0066 53.4036 11.0398C53.2445 11.0762 53.0456 11.0961 52.807 11.0994C52.4159 11.1061 52.0513 11.0365 51.7132 10.8906C51.3752 10.7448 51.1017 10.5194 50.8929 10.2145C50.6841 9.90956 50.5797 9.52675 50.5797 9.06605V1.53409ZM58.4112 11.1541C57.6953 11.1541 57.0705 10.9901 56.5369 10.6619C56.0033 10.3338 55.589 9.87476 55.294 9.2848C54.9991 8.69484 54.8516 8.00544 54.8516 7.21662C54.8516 6.42448 54.9991 5.73177 55.294 5.13849C55.589 4.54522 56.0033 4.08452 56.5369 3.75639C57.0705 3.42827 57.6953 3.2642 58.4112 3.2642C59.1271 3.2642 59.7519 3.42827 60.2855 3.75639C60.8191 4.08452 61.2334 4.54522 61.5284 5.13849C61.8234 5.73177 61.9709 6.42448 61.9709 7.21662C61.9709 8.00544 61.8234 8.69484 61.5284 9.2848C61.2334 9.87476 60.8191 10.3338 60.2855 10.6619C59.7519 10.9901 59.1271 11.1541 58.4112 11.1541ZM58.4162 9.90625C58.8802 9.90625 59.2647 9.78362 59.5696 9.53835C59.8745 9.29309 60.0999 8.96662 60.2457 8.55895C60.3949 8.15128 60.4695 7.70218 60.4695 7.21165C60.4695 6.72443 60.3949 6.27699 60.2457 5.86932C60.0999 5.45833 59.8745 5.12855 59.5696 4.87997C59.2647 4.63139 58.8802 4.5071 58.4162 4.5071C57.9489 4.5071 57.5611 4.63139 57.2528 4.87997C56.9479 5.12855 56.7209 5.45833 56.5717 5.86932C56.4259 6.27699 56.353 6.72443 56.353 7.21165C56.353 7.70218 56.4259 8.15128 56.5717 8.55895C56.7209 8.96662 56.9479 9.29309 57.2528 9.53835C57.5611 9.78362 57.9489 9.90625 58.4162 9.90625ZM63.6301 13.8636V3.36364H65.0819V4.60156H65.2061C65.2923 4.44247 65.4166 4.25852 65.579 4.04972C65.7414 3.84091 65.9668 3.65862 66.2551 3.50284C66.5435 3.34375 66.9247 3.2642 67.3986 3.2642C68.0151 3.2642 68.5653 3.41998 69.0492 3.73153C69.5331 4.04309 69.9126 4.49219 70.1877 5.07884C70.4661 5.66548 70.6053 6.37145 70.6053 7.19673C70.6053 8.02202 70.4677 8.72964 70.1926 9.3196C69.9176 9.90625 69.5397 10.3587 69.0591 10.6768C68.5785 10.9917 68.03 11.1491 67.4135 11.1491C66.9495 11.1491 66.57 11.0713 66.275 10.9155C65.9834 10.7597 65.7547 10.5774 65.589 10.3686C65.4232 10.1598 65.2956 9.9742 65.2061 9.81179H65.1167V13.8636H63.6301ZM65.0868 7.18182C65.0868 7.71875 65.1647 8.18939 65.3205 8.59375C65.4763 8.99811 65.7016 9.31463 65.9966 9.54332C66.2916 9.7687 66.6529 9.88139 67.0804 9.88139C67.5246 9.88139 67.8958 9.76373 68.1941 9.52841C68.4924 9.28977 68.7177 8.96662 68.8702 8.55895C69.026 8.15128 69.1039 7.69223 69.1039 7.18182C69.1039 6.67803 69.0276 6.22562 68.8752 5.82457C68.726 5.42353 68.5007 5.10701 68.199 4.875C67.9007 4.64299 67.5279 4.52699 67.0804 4.52699C66.6496 4.52699 66.285 4.63802 65.9867 4.86009C65.6917 5.08215 65.468 5.39205 65.3155 5.78977C65.1631 6.1875 65.0868 6.65151 65.0868 7.18182ZM73.6939 11L71.4467 3.36364H72.983L74.4794 8.97159H74.554L76.0554 3.36364H77.5916L79.0831 8.94673H79.1577L80.6442 3.36364H82.1804L79.9382 11H78.4219L76.8707 5.48651H76.7564L75.2053 11H73.6939ZM85.8134 11.169C85.3295 11.169 84.892 11.0795 84.5009 10.9006C84.1098 10.7183 83.7999 10.4548 83.5712 10.1101C83.3458 9.76539 83.2331 9.3428 83.2331 8.84233C83.2331 8.41146 83.316 8.05682 83.4817 7.77841C83.6474 7.5 83.8712 7.27959 84.1529 7.11719C84.4346 6.95478 84.7495 6.83215 85.0975 6.74929C85.4455 6.66643 85.8001 6.60346 86.1614 6.56037C86.6188 6.50734 86.99 6.46425 87.275 6.43111C87.5601 6.39465 87.7672 6.33665 87.8965 6.2571C88.0257 6.17756 88.0904 6.0483 88.0904 5.86932V5.83452C88.0904 5.40033 87.9677 5.06392 87.7225 4.82528C87.4805 4.58665 87.1193 4.46733 86.6387 4.46733C86.1382 4.46733 85.7438 4.57836 85.4554 4.80043C85.1704 5.01918 84.9732 5.26278 84.8638 5.53125L83.4668 5.21307C83.6325 4.74905 83.8745 4.37453 84.1926 4.08949C84.5141 3.80114 84.8837 3.59233 85.3013 3.46307C85.7189 3.33049 86.1581 3.2642 86.6188 3.2642C86.9237 3.2642 87.2469 3.30066 87.5882 3.37358C87.9329 3.44318 88.2544 3.57244 88.5527 3.76136C88.8543 3.95028 89.1013 4.22041 89.2935 4.57173C89.4857 4.91974 89.5819 5.37216 89.5819 5.92898V11H88.1301V9.95597H88.0705C87.9744 10.1482 87.8302 10.3371 87.638 10.5227C87.4457 10.7083 87.1988 10.8625 86.8972 10.9851C86.5956 11.1077 86.2343 11.169 85.8134 11.169ZM86.1365 9.97585C86.5475 9.97585 86.8989 9.89465 87.1905 9.73224C87.4855 9.56984 87.7092 9.35772 87.8617 9.09588C88.0175 8.83073 88.0953 8.54735 88.0953 8.24574V7.26136C88.0423 7.31439 87.9396 7.36411 87.7871 7.41051C87.638 7.4536 87.4673 7.49171 87.275 7.52486C87.0828 7.55469 86.8955 7.58286 86.7132 7.60938C86.531 7.63258 86.3785 7.65246 86.2559 7.66903C85.9675 7.70549 85.704 7.76681 85.4654 7.85298C85.2301 7.93916 85.0411 8.06345 84.8986 8.22585C84.7594 8.38494 84.6898 8.59706 84.6898 8.86222C84.6898 9.23011 84.8257 9.50852 85.0975 9.69744C85.3693 9.88305 85.7156 9.97585 86.1365 9.97585ZM95.1264 3.36364V4.55682H90.9553V3.36364H95.1264ZM92.0739 1.53409H93.5604V8.75781C93.5604 9.04616 93.6035 9.26326 93.6896 9.40909C93.7758 9.55161 93.8868 9.64938 94.0227 9.70241C94.1619 9.75213 94.3127 9.77699 94.4751 9.77699C94.5945 9.77699 94.6989 9.7687 94.7884 9.75213C94.8778 9.73556 94.9474 9.7223 94.9972 9.71236L95.2656 10.9403C95.1795 10.9735 95.0568 11.0066 94.8977 11.0398C94.7386 11.0762 94.5398 11.0961 94.3011 11.0994C93.91 11.1061 93.5455 11.0365 93.2074 10.8906C92.8693 10.7448 92.5959 10.5194 92.3871 10.2145C92.1783 9.90956 92.0739 9.52675 92.0739 9.06605V1.53409ZM99.9054 11.1541C99.1663 11.1541 98.5299 10.9867 97.9963 10.652C97.466 10.3139 97.0583 9.84825 96.7733 9.25497C96.4882 8.66169 96.3457 7.98224 96.3457 7.21662C96.3457 6.44105 96.4915 5.75663 96.7832 5.16335C97.0749 4.56676 97.4859 4.10109 98.0162 3.76633C98.5465 3.43158 99.1712 3.2642 99.8904 3.2642C100.47 3.2642 100.988 3.37192 101.442 3.58736C101.896 3.79948 102.262 4.09777 102.54 4.48224C102.822 4.86671 102.989 5.31581 103.042 5.82955H101.596C101.516 5.47159 101.334 5.16335 101.049 4.90483C100.767 4.64631 100.389 4.51705 99.9153 4.51705C99.501 4.51705 99.1381 4.62642 98.8265 4.84517C98.5183 5.06061 98.278 5.36884 98.1056 5.76989C97.9333 6.16761 97.8471 6.63826 97.8471 7.18182C97.8471 7.73864 97.9316 8.21922 98.1007 8.62358C98.2697 9.02794 98.5083 9.34115 98.8166 9.56321C99.1281 9.78527 99.4944 9.89631 99.9153 9.89631C100.197 9.89631 100.452 9.84493 100.681 9.74219C100.913 9.63613 101.107 9.48532 101.263 9.28977C101.422 9.09422 101.533 8.8589 101.596 8.58381H103.042C102.989 9.07765 102.829 9.51847 102.56 9.90625C102.292 10.294 101.932 10.599 101.481 10.821C101.034 11.0431 100.509 11.1541 99.9054 11.1541ZM106.119 6.46591V11H104.632V0.818182H106.099V4.60653H106.193C106.372 4.19555 106.646 3.86908 107.013 3.62713C107.381 3.38518 107.862 3.2642 108.455 3.2642C108.979 3.2642 109.436 3.37192 109.827 3.58736C110.222 3.80279 110.527 4.12429 110.742 4.55185C110.961 4.97609 111.07 5.50639 111.07 6.14276V11H109.584V6.32173C109.584 5.7616 109.44 5.32741 109.151 5.01918C108.863 4.70762 108.462 4.55185 107.948 4.55185C107.597 4.55185 107.282 4.62642 107.004 4.77557C106.728 4.92472 106.511 5.14347 106.352 5.43182C106.196 5.71686 106.119 6.06155 106.119 6.46591Z" fill="black"/>
</svg>
