<svg width="128" height="12" viewBox="0 0 128 12" fill="none" xmlns="http://www.w3.org/2000/svg">
<path d="M4.21591 11.1541C3.4768 11.1541 2.84044 10.9867 2.30682 10.652C1.77652 10.3139 1.36884 9.84825 1.08381 9.25497C0.798769 8.66169 0.65625 7.98224 0.65625 7.21662C0.65625 6.44105 0.802083 5.75663 1.09375 5.16335C1.38542 4.56676 1.7964 4.10109 2.3267 3.76633C2.85701 3.43158 3.48177 3.2642 4.20099 3.2642C4.78101 3.2642 5.29806 3.37192 5.75213 3.58736C6.2062 3.79948 6.57244 4.09777 6.85085 4.48224C7.13258 4.86671 7.29995 5.31581 7.35298 5.82955H5.90625C5.8267 5.47159 5.64441 5.16335 5.35938 4.90483C5.07765 4.64631 4.69981 4.51705 4.22585 4.51705C3.81155 4.51705 3.44863 4.62642 3.13707 4.84517C2.82884 5.06061 2.58854 5.36884 2.41619 5.76989C2.24384 6.16761 2.15767 6.63826 2.15767 7.18182C2.15767 7.73864 2.24219 8.21922 2.41122 8.62358C2.58026 9.02794 2.81889 9.34115 3.12713 9.56321C3.43868 9.78527 3.80492 9.89631 4.22585 9.89631C4.50758 9.89631 4.76278 9.84493 4.99148 9.74219C5.22349 9.63613 5.41738 9.48532 5.57315 9.28977C5.73224 9.09422 5.84328 8.8589 5.90625 8.58381H7.35298C7.29995 9.07765 7.1392 9.51847 6.87074 9.90625C6.60227 10.294 6.24266 10.599 5.7919 10.821C5.34446 11.0431 4.81913 11.1541 4.21591 11.1541ZM11.165 11.169C10.681 11.169 10.2435 11.0795 9.85245 10.9006C9.46135 10.7183 9.15146 10.4548 8.92276 10.1101C8.69738 9.76539 8.58469 9.3428 8.58469 8.84233C8.58469 8.41146 8.66755 8.05682 8.83327 7.77841C8.99899 7.5 9.22272 7.27959 9.50444 7.11719C9.78616 6.95478 10.101 6.83215 10.449 6.74929C10.7971 6.66643 11.1517 6.60346 11.513 6.56037C11.9703 6.50734 12.3416 6.46425 12.6266 6.43111C12.9116 6.39465 13.1188 6.33665 13.248 6.2571C13.3773 6.17756 13.4419 6.0483 13.4419 5.86932V5.83452C13.4419 5.40033 13.3193 5.06392 13.074 4.82528C12.8321 4.58665 12.4708 4.46733 11.9902 4.46733C11.4898 4.46733 11.0953 4.57836 10.807 4.80043C10.522 5.01918 10.3248 5.26278 10.2154 5.53125L8.81836 5.21307C8.98408 4.74905 9.22603 4.37453 9.54421 4.08949C9.86571 3.80114 10.2353 3.59233 10.6529 3.46307C11.0705 3.33049 11.5096 3.2642 11.9703 3.2642C12.2753 3.2642 12.5984 3.30066 12.9398 3.37358C13.2845 3.44318 13.606 3.57244 13.9043 3.76136C14.2059 3.95028 14.4528 4.22041 14.6451 4.57173C14.8373 4.91974 14.9334 5.37216 14.9334 5.92898V11H13.4817V9.95597H13.4221C13.3259 10.1482 13.1818 10.3371 12.9895 10.5227C12.7973 10.7083 12.5504 10.8625 12.2488 10.9851C11.9471 11.1077 11.5859 11.169 11.165 11.169ZM11.4881 9.97585C11.8991 9.97585 12.2504 9.89465 12.5421 9.73224C12.8371 9.56984 13.0608 9.35772 13.2132 9.09588C13.369 8.83073 13.4469 8.54735 13.4469 8.24574V7.26136C13.3939 7.31439 13.2911 7.36411 13.1387 7.41051C12.9895 7.4536 12.8188 7.49171 12.6266 7.52486C12.4344 7.55469 12.2471 7.58286 12.0648 7.60938C11.8825 7.63258 11.7301 7.65246 11.6074 7.66903C11.3191 7.70549 11.0556 7.76681 10.8169 7.85298C10.5816 7.93916 10.3927 8.06345 10.2502 8.22585C10.111 8.38494 10.0414 8.59706 10.0414 8.86222C10.0414 9.23011 10.1773 9.50852 10.449 9.69744C10.7208 9.88305 11.0672 9.97585 11.4881 9.97585ZM18.3999 0.818182V11H16.9134V0.818182H18.3999ZM23.6909 11.1541C22.9385 11.1541 22.2905 10.9934 21.747 10.6719C21.2067 10.3471 20.7891 9.89134 20.4941 9.30469C20.2025 8.71473 20.0566 8.02367 20.0566 7.23153C20.0566 6.44934 20.2025 5.75994 20.4941 5.16335C20.7891 4.56676 21.2001 4.10109 21.7271 3.76633C22.2574 3.43158 22.8772 3.2642 23.5865 3.2642C24.0173 3.2642 24.435 3.33546 24.8393 3.47798C25.2437 3.6205 25.6066 3.84422 25.9281 4.14915C26.2496 4.45407 26.5031 4.85014 26.6887 5.33736C26.8743 5.82126 26.9672 6.40956 26.9672 7.10227V7.62926H20.8968V6.51562H25.5105C25.5105 6.12453 25.4309 5.77817 25.2718 5.47656C25.1127 5.17164 24.889 4.93134 24.6007 4.75568C24.3156 4.58002 23.9809 4.49219 23.5964 4.49219C23.1788 4.49219 22.8142 4.59493 22.5027 4.80043C22.1944 5.0026 21.9558 5.26776 21.7868 5.59588C21.621 5.92069 21.5382 6.27367 21.5382 6.65483V7.52486C21.5382 8.03527 21.6277 8.46946 21.8066 8.82741C21.9889 9.18537 22.2425 9.45881 22.5673 9.64773C22.8921 9.83333 23.2716 9.92614 23.7058 9.92614C23.9875 9.92614 24.2444 9.88636 24.4764 9.80682C24.7084 9.72396 24.9089 9.60133 25.0779 9.43892C25.247 9.27652 25.3762 9.07599 25.4657 8.83736L26.8727 9.09091C26.76 9.50521 26.5578 9.86813 26.2662 10.1797C25.9778 10.4879 25.6149 10.7282 25.1774 10.9006C24.7432 11.0696 24.2477 11.1541 23.6909 11.1541ZM30.103 6.46591V11H28.6165V3.36364H30.0433V4.60653H30.1378C30.3134 4.20218 30.5885 3.87737 30.9631 3.6321C31.3409 3.38684 31.8165 3.2642 32.3899 3.2642C32.9103 3.2642 33.366 3.37358 33.7571 3.59233C34.1482 3.80777 34.4515 4.12926 34.6669 4.55682C34.8823 4.98437 34.9901 5.51302 34.9901 6.14276V11H33.5036V6.32173C33.5036 5.76823 33.3594 5.3357 33.071 5.02415C32.7827 4.70928 32.3866 4.55185 31.8828 4.55185C31.5381 4.55185 31.2315 4.62642 30.9631 4.77557C30.6979 4.92472 30.4875 5.14347 30.3317 5.43182C30.1792 5.71686 30.103 6.06155 30.103 6.46591ZM39.8423 11.1491C39.2259 11.1491 38.6757 10.9917 38.1918 10.6768C37.7112 10.3587 37.3333 9.90625 37.0582 9.3196C36.7865 8.72964 36.6506 8.02202 36.6506 7.19673C36.6506 6.37145 36.7881 5.66548 37.0632 5.07884C37.3416 4.49219 37.7228 4.04309 38.2067 3.73153C38.6906 3.41998 39.2391 3.2642 39.8523 3.2642C40.3262 3.2642 40.7074 3.34375 40.9957 3.50284C41.2874 3.65862 41.5128 3.84091 41.6719 4.04972C41.8343 4.25852 41.9602 4.44247 42.0497 4.60156H42.1392V0.818182H43.6257V11H42.174V9.81179H42.0497C41.9602 9.9742 41.831 10.1598 41.6619 10.3686C41.4962 10.5774 41.2675 10.7597 40.9759 10.9155C40.6842 11.0713 40.3063 11.1491 39.8423 11.1491ZM40.1705 9.88139C40.598 9.88139 40.9593 9.7687 41.2543 9.54332C41.5526 9.31463 41.7779 8.99811 41.9304 8.59375C42.0862 8.18939 42.1641 7.71875 42.1641 7.18182C42.1641 6.65151 42.0878 6.1875 41.9354 5.78977C41.7829 5.39205 41.5592 5.08215 41.2642 4.86009C40.9692 4.63802 40.6046 4.52699 40.1705 4.52699C39.723 4.52699 39.3501 4.64299 39.0518 4.875C38.7536 5.10701 38.5282 5.42353 38.3757 5.82457C38.2266 6.22562 38.152 6.67803 38.152 7.18182C38.152 7.69223 38.2282 8.15128 38.3807 8.55895C38.5331 8.96662 38.7585 9.28977 39.0568 9.52841C39.3584 9.76373 39.7296 9.88139 40.1705 9.88139ZM47.9696 11.169C47.4857 11.169 47.0482 11.0795 46.6571 10.9006C46.266 10.7183 45.9561 10.4548 45.7275 10.1101C45.5021 9.76539 45.3894 9.3428 45.3894 8.84233C45.3894 8.41146 45.4722 8.05682 45.638 7.77841C45.8037 7.5 46.0274 7.27959 46.3091 7.11719C46.5908 6.95478 46.9057 6.83215 47.2537 6.74929C47.6017 6.66643 47.9564 6.60346 48.3176 6.56037C48.775 6.50734 49.1462 6.46425 49.4313 6.43111C49.7163 6.39465 49.9235 6.33665 50.0527 6.2571C50.182 6.17756 50.2466 6.0483 50.2466 5.86932V5.83452C50.2466 5.40033 50.124 5.06392 49.8787 4.82528C49.6368 4.58665 49.2755 4.46733 48.7949 4.46733C48.2944 4.46733 47.9 4.57836 47.6117 4.80043C47.3266 5.01918 47.1294 5.26278 47.0201 5.53125L45.623 5.21307C45.7888 4.74905 46.0307 4.37453 46.3489 4.08949C46.6704 3.80114 47.04 3.59233 47.4576 3.46307C47.8752 3.33049 48.3143 3.2642 48.775 3.2642C49.08 3.2642 49.4031 3.30066 49.7445 3.37358C50.0892 3.44318 50.4107 3.57244 50.709 3.76136C51.0106 3.95028 51.2575 4.22041 51.4498 4.57173C51.642 4.91974 51.7381 5.37216 51.7381 5.92898V11H50.2864V9.95597H50.2267C50.1306 10.1482 49.9864 10.3371 49.7942 10.5227C49.602 10.7083 49.3551 10.8625 49.0534 10.9851C48.7518 11.1077 48.3906 11.169 47.9696 11.169ZM48.2928 9.97585C48.7038 9.97585 49.0551 9.89465 49.3468 9.73224C49.6417 9.56984 49.8655 9.35772 50.0179 9.09588C50.1737 8.83073 50.2516 8.54735 50.2516 8.24574V7.26136C50.1986 7.31439 50.0958 7.36411 49.9434 7.41051C49.7942 7.4536 49.6235 7.49171 49.4313 7.52486C49.2391 7.55469 49.0518 7.58286 48.8695 7.60938C48.6872 7.63258 48.5347 7.65246 48.4121 7.66903C48.1238 7.70549 47.8603 7.76681 47.6216 7.85298C47.3863 7.93916 47.1974 8.06345 47.0549 8.22585C46.9157 8.38494 46.8461 8.59706 46.8461 8.86222C46.8461 9.23011 46.9819 9.50852 47.2537 9.69744C47.5255 9.88305 47.8719 9.97585 48.2928 9.97585ZM53.718 11V3.36364H55.1548V4.5767H55.2344C55.3736 4.16572 55.6188 3.84257 55.9702 3.60724C56.3248 3.36861 56.7259 3.24929 57.1733 3.24929C57.2661 3.24929 57.3755 3.2526 57.5014 3.25923C57.6307 3.26586 57.7318 3.27415 57.8047 3.28409V4.70597C57.745 4.68939 57.639 4.67116 57.4865 4.65128C57.334 4.62808 57.1816 4.61648 57.0291 4.61648C56.6778 4.61648 56.3646 4.69105 56.0895 4.8402C55.8177 4.98603 55.6023 5.18987 55.4432 5.4517C55.2841 5.71023 55.2045 6.00521 55.2045 6.33665V11H53.718ZM63.1392 6.05327V7.34091H58.625V6.05327H63.1392ZM68.337 11.1541C67.5979 11.1541 66.9615 10.9867 66.4279 10.652C65.8976 10.3139 65.4899 9.84825 65.2049 9.25497C64.9199 8.66169 64.7773 7.98224 64.7773 7.21662C64.7773 6.44105 64.9232 5.75663 65.2148 5.16335C65.5065 4.56676 65.9175 4.10109 66.4478 3.76633C66.9781 3.43158 67.6029 3.2642 68.3221 3.2642C68.9021 3.2642 69.4192 3.37192 69.8732 3.58736C70.3273 3.79948 70.6935 4.09777 70.9719 4.48224C71.2537 4.86671 71.421 5.31581 71.4741 5.82955H70.0273C69.9478 5.47159 69.7655 5.16335 69.4805 4.90483C69.1987 4.64631 68.8209 4.51705 68.3469 4.51705C67.9326 4.51705 67.5697 4.62642 67.2582 4.84517C66.9499 5.06061 66.7096 5.36884 66.5373 5.76989C66.3649 6.16761 66.2788 6.63826 66.2788 7.18182C66.2788 7.73864 66.3633 8.21922 66.5323 8.62358C66.7013 9.02794 66.94 9.34115 67.2482 9.56321C67.5598 9.78527 67.926 9.89631 68.3469 9.89631C68.6287 9.89631 68.8839 9.84493 69.1126 9.74219C69.3446 9.63613 69.5385 9.48532 69.6942 9.28977C69.8533 9.09422 69.9644 8.8589 70.0273 8.58381H71.4741C71.421 9.07765 71.2603 9.51847 70.9918 9.90625C70.7234 10.294 70.3638 10.599 69.913 10.821C69.4656 11.0431 68.9402 11.1541 68.337 11.1541ZM74.5502 6.46591V11H73.0637V0.818182H74.5304V4.60653H74.6248C74.8038 4.19555 75.0772 3.86908 75.4451 3.62713C75.813 3.38518 76.2936 3.2642 76.8869 3.2642C77.4106 3.2642 77.868 3.37192 78.2591 3.58736C78.6535 3.80279 78.9584 4.12429 79.1738 4.55185C79.3926 4.97609 79.502 5.50639 79.502 6.14276V11H78.0154V6.32173C78.0154 5.7616 77.8713 5.32741 77.5829 5.01918C77.2946 4.70762 76.8935 4.55185 76.3798 4.55185C76.0285 4.55185 75.7136 4.62642 75.4352 4.77557C75.1601 4.92472 74.943 5.14347 74.7839 5.43182C74.6281 5.71686 74.5502 6.06155 74.5502 6.46591ZM84.7768 11.1541C84.0244 11.1541 83.3765 10.9934 82.8329 10.6719C82.2927 10.3471 81.8751 9.89134 81.5801 9.30469C81.2884 8.71473 81.1426 8.02367 81.1426 7.23153C81.1426 6.44934 81.2884 5.75994 81.5801 5.16335C81.8751 4.56676 82.286 4.10109 82.813 3.76633C83.3433 3.43158 83.9631 3.2642 84.6724 3.2642C85.1033 3.2642 85.5209 3.33546 85.9252 3.47798C86.3296 3.6205 86.6925 3.84422 87.014 4.14915C87.3355 4.45407 87.5891 4.85014 87.7747 5.33736C87.9603 5.82126 88.0531 6.40956 88.0531 7.10227V7.62926H81.9828V6.51562H86.5964C86.5964 6.12453 86.5169 5.77817 86.3578 5.47656C86.1987 5.17164 85.975 4.93134 85.6866 4.75568C85.4016 4.58002 85.0668 4.49219 84.6824 4.49219C84.2647 4.49219 83.9002 4.59493 83.5886 4.80043C83.2804 5.0026 83.0417 5.26776 82.8727 5.59588C82.707 5.92069 82.6241 6.27367 82.6241 6.65483V7.52486C82.6241 8.03527 82.7136 8.46946 82.8926 8.82741C83.0749 9.18537 83.3284 9.45881 83.6532 9.64773C83.978 9.83333 84.3575 9.92614 84.7917 9.92614C85.0734 9.92614 85.3303 9.88636 85.5623 9.80682C85.7943 9.72396 85.9949 9.60133 86.1639 9.43892C86.3329 9.27652 86.4622 9.07599 86.5517 8.83736L87.9586 9.09091C87.8459 9.50521 87.6438 9.86813 87.3521 10.1797C87.0637 10.4879 86.7008 10.7282 86.2633 10.9006C85.8291 11.0696 85.3336 11.1541 84.7768 11.1541ZM92.919 11.1541C92.1799 11.1541 91.5436 10.9867 91.0099 10.652C90.4796 10.3139 90.072 9.84825 89.7869 9.25497C89.5019 8.66169 89.3594 7.98224 89.3594 7.21662C89.3594 6.44105 89.5052 5.75663 89.7969 5.16335C90.0885 4.56676 90.4995 4.10109 91.0298 3.76633C91.5601 3.43158 92.1849 3.2642 92.9041 3.2642C93.4841 3.2642 94.0012 3.37192 94.4553 3.58736C94.9093 3.79948 95.2756 4.09777 95.554 4.48224C95.8357 4.86671 96.0031 5.31581 96.0561 5.82955H94.6094C94.5298 5.47159 94.3475 5.16335 94.0625 4.90483C93.7808 4.64631 93.4029 4.51705 92.929 4.51705C92.5147 4.51705 92.1518 4.62642 91.8402 4.84517C91.532 5.06061 91.2917 5.36884 91.1193 5.76989C90.947 6.16761 90.8608 6.63826 90.8608 7.18182C90.8608 7.73864 90.9453 8.21922 91.1143 8.62358C91.2834 9.02794 91.522 9.34115 91.8303 9.56321C92.1418 9.78527 92.508 9.89631 92.929 9.89631C93.2107 9.89631 93.4659 9.84493 93.6946 9.74219C93.9266 9.63613 94.1205 9.48532 94.2763 9.28977C94.4354 9.09422 94.5464 8.8589 94.6094 8.58381H96.0561C96.0031 9.07765 95.8423 9.51847 95.5739 9.90625C95.3054 10.294 94.9458 10.599 94.495 10.821C94.0476 11.0431 93.5223 11.1541 92.919 11.1541ZM99.013 8.4098L99.003 6.59517H99.2615L102.304 3.36364H104.084L100.614 7.04261H100.38L99.013 8.4098ZM97.6458 11V0.818182H99.1323V11H97.6458ZM102.468 11L99.7338 7.37074L100.758 6.33168L104.293 11H102.468ZM109.419 6.05327V7.34091H104.904V6.05327H109.419ZM114.925 11.169C114.139 11.1657 113.468 10.9586 112.911 10.5476C112.354 10.1366 111.928 9.53835 111.633 8.75284C111.338 7.96733 111.191 7.02107 111.191 5.91406C111.191 4.81037 111.338 3.86742 111.633 3.08523C111.932 2.30303 112.359 1.70644 112.916 1.29545C113.476 0.884469 114.146 0.678977 114.925 0.678977C115.703 0.678977 116.371 0.886126 116.928 1.30043C117.485 1.71141 117.911 2.308 118.206 3.0902C118.504 3.86908 118.653 4.81037 118.653 5.91406C118.653 7.02438 118.506 7.9723 118.211 8.75781C117.916 9.54001 117.49 10.1383 116.933 10.5526C116.376 10.9635 115.707 11.169 114.925 11.169ZM114.925 9.84162C115.614 9.84162 116.153 9.50521 116.54 8.83239C116.931 8.15956 117.127 7.18679 117.127 5.91406C117.127 5.06889 117.037 4.35464 116.858 3.77131C116.683 3.18466 116.429 2.74053 116.098 2.43892C115.77 2.134 115.379 1.98153 114.925 1.98153C114.238 1.98153 113.7 2.3196 113.309 2.99574C112.918 3.67187 112.72 4.64465 112.717 5.91406C112.717 6.76255 112.805 7.48011 112.981 8.06676C113.16 8.65009 113.413 9.09257 113.741 9.39418C114.069 9.69247 114.464 9.84162 114.925 9.84162ZM120.417 11V9.88636L123.862 6.31676C124.23 5.92898 124.533 5.58925 124.772 5.29759C125.014 5.0026 125.195 4.72254 125.314 4.45739C125.433 4.19223 125.493 3.91051 125.493 3.61222C125.493 3.27415 125.413 2.98248 125.254 2.73722C125.095 2.48864 124.878 2.29806 124.603 2.16548C124.328 2.02959 124.018 1.96165 123.673 1.96165C123.309 1.96165 122.991 2.03622 122.719 2.18537C122.447 2.33452 122.238 2.54498 122.092 2.81676C121.946 3.08854 121.874 3.40672 121.874 3.77131H120.407C120.407 3.15151 120.549 2.60961 120.835 2.1456C121.12 1.68158 121.511 1.32197 122.008 1.06676C122.505 0.808238 123.07 0.678977 123.703 0.678977C124.343 0.678977 124.906 0.806581 125.393 1.06179C125.884 1.31368 126.267 1.65838 126.542 2.09588C126.817 2.53007 126.955 3.0206 126.955 3.56747C126.955 3.94531 126.883 4.31487 126.741 4.67614C126.602 5.0374 126.358 5.4401 126.01 5.88423C125.662 6.32505 125.178 6.86032 124.558 7.49006L122.535 9.60795V9.68253H127.119V11H120.417Z" fill="black"/>
</svg>
