<svg width="84" height="12" viewBox="0 0 84 12" fill="none" xmlns="http://www.w3.org/2000/svg">
<path d="M2.65483 11L0.40767 3.36364H1.94389L3.44034 8.97159H3.51491L5.01634 3.36364H6.55256L8.04403 8.94673H8.11861L9.60511 3.36364H11.1413L8.89915 11H7.38281L5.83168 5.48651H5.71733L4.16619 11H2.65483ZM14.7743 11.169C14.2904 11.169 13.8529 11.0795 13.4618 10.9006C13.0707 10.7183 12.7608 10.4548 12.5321 10.1101C12.3068 9.76539 12.1941 9.3428 12.1941 8.84233C12.1941 8.41146 12.2769 8.05682 12.4426 7.77841C12.6084 7.5 12.8321 7.27959 13.1138 7.11719C13.3955 6.95478 13.7104 6.83215 14.0584 6.74929C14.4064 6.66643 14.7611 6.60346 15.1223 6.56037C15.5797 6.50734 15.9509 6.46425 16.236 6.43111C16.521 6.39465 16.7282 6.33665 16.8574 6.2571C16.9867 6.17756 17.0513 6.0483 17.0513 5.86932V5.83452C17.0513 5.40033 16.9287 5.06392 16.6834 4.82528C16.4415 4.58665 16.0802 4.46733 15.5996 4.46733C15.0991 4.46733 14.7047 4.57836 14.4164 4.80043C14.1313 5.01918 13.9341 5.26278 13.8248 5.53125L12.4277 5.21307C12.5935 4.74905 12.8354 4.37453 13.1536 4.08949C13.4751 3.80114 13.8446 3.59233 14.2623 3.46307C14.6799 3.33049 15.119 3.2642 15.5797 3.2642C15.8846 3.2642 16.2078 3.30066 16.5492 3.37358C16.8939 3.44318 17.2154 3.57244 17.5137 3.76136C17.8153 3.95028 18.0622 4.22041 18.2544 4.57173C18.4467 4.91974 18.5428 5.37216 18.5428 5.92898V11H17.0911V9.95597H17.0314C16.9353 10.1482 16.7911 10.3371 16.5989 10.5227C16.4067 10.7083 16.1597 10.8625 15.8581 10.9851C15.5565 11.1077 15.1953 11.169 14.7743 11.169ZM15.0975 9.97585C15.5085 9.97585 15.8598 9.89465 16.1515 9.73224C16.4464 9.56984 16.6702 9.35772 16.8226 9.09588C16.9784 8.83073 17.0563 8.54735 17.0563 8.24574V7.26136C17.0033 7.31439 16.9005 7.36411 16.748 7.41051C16.5989 7.4536 16.4282 7.49171 16.236 7.52486C16.0437 7.55469 15.8565 7.58286 15.6742 7.60938C15.4919 7.63258 15.3394 7.65246 15.2168 7.66903C14.9284 7.70549 14.665 7.76681 14.4263 7.85298C14.191 7.93916 14.0021 8.06345 13.8596 8.22585C13.7203 8.38494 13.6507 8.59706 13.6507 8.86222C13.6507 9.23011 13.7866 9.50852 14.0584 9.69744C14.3302 9.88305 14.6766 9.97585 15.0975 9.97585ZM24.0874 3.36364V4.55682H19.9162V3.36364H24.0874ZM21.0348 1.53409H22.5213V8.75781C22.5213 9.04616 22.5644 9.26326 22.6506 9.40909C22.7367 9.55161 22.8478 9.64938 22.9837 9.70241C23.1229 9.75213 23.2737 9.77699 23.4361 9.77699C23.5554 9.77699 23.6598 9.7687 23.7493 9.75213C23.8388 9.73556 23.9084 9.7223 23.9581 9.71236L24.2266 10.9403C24.1404 10.9735 24.0178 11.0066 23.8587 11.0398C23.6996 11.0762 23.5007 11.0961 23.2621 11.0994C22.871 11.1061 22.5064 11.0365 22.1683 10.8906C21.8303 10.7448 21.5568 10.5194 21.348 10.2145C21.1392 9.90956 21.0348 9.52675 21.0348 9.06605V1.53409ZM28.8663 11.1541C28.1272 11.1541 27.4908 10.9867 26.9572 10.652C26.4269 10.3139 26.0192 9.84825 25.7342 9.25497C25.4492 8.66169 25.3066 7.98224 25.3066 7.21662C25.3066 6.44105 25.4525 5.75663 25.7441 5.16335C26.0358 4.56676 26.4468 4.10109 26.9771 3.76633C27.5074 3.43158 28.1322 3.2642 28.8514 3.2642C29.4314 3.2642 29.9484 3.37192 30.4025 3.58736C30.8566 3.79948 31.2228 4.09777 31.5012 4.48224C31.783 4.86671 31.9503 5.31581 32.0034 5.82955H30.5566C30.4771 5.47159 30.2948 5.16335 30.0098 4.90483C29.728 4.64631 29.3502 4.51705 28.8762 4.51705C28.4619 4.51705 28.099 4.62642 27.7875 4.84517C27.4792 5.06061 27.2389 5.36884 27.0666 5.76989C26.8942 6.16761 26.8081 6.63826 26.8081 7.18182C26.8081 7.73864 26.8926 8.21922 27.0616 8.62358C27.2306 9.02794 27.4693 9.34115 27.7775 9.56321C28.0891 9.78527 28.4553 9.89631 28.8762 9.89631C29.158 9.89631 29.4132 9.84493 29.6419 9.74219C29.8739 9.63613 30.0678 9.48532 30.2235 9.28977C30.3826 9.09422 30.4937 8.8589 30.5566 8.58381H32.0034C31.9503 9.07765 31.7896 9.51847 31.5211 9.90625C31.2527 10.294 30.8931 10.599 30.4423 10.821C29.9949 11.0431 29.4695 11.1541 28.8663 11.1541ZM35.0795 6.46591V11H33.593V0.818182H35.0597V4.60653H35.1541C35.3331 4.19555 35.6065 3.86908 35.9744 3.62713C36.3423 3.38518 36.8229 3.2642 37.4162 3.2642C37.9399 3.2642 38.3973 3.37192 38.7884 3.58736C39.1828 3.80279 39.4877 4.12429 39.7031 4.55185C39.9219 4.97609 40.0312 5.50639 40.0312 6.14276V11H38.5447V6.32173C38.5447 5.7616 38.4006 5.32741 38.1122 5.01918C37.8239 4.70762 37.4228 4.55185 36.9091 4.55185C36.5578 4.55185 36.2429 4.62642 35.9645 4.77557C35.6894 4.92472 35.4723 5.14347 35.3132 5.43182C35.1574 5.71686 35.0795 6.06155 35.0795 6.46591ZM46.5142 6.05327V7.34091H42V6.05327H46.5142ZM51.712 11.1541C50.9729 11.1541 50.3365 10.9867 49.8029 10.652C49.2726 10.3139 48.8649 9.84825 48.5799 9.25497C48.2949 8.66169 48.1523 7.98224 48.1523 7.21662C48.1523 6.44105 48.2982 5.75663 48.5898 5.16335C48.8815 4.56676 49.2925 4.10109 49.8228 3.76633C50.3531 3.43158 50.9779 3.2642 51.6971 3.2642C52.2771 3.2642 52.7942 3.37192 53.2482 3.58736C53.7023 3.79948 54.0685 4.09777 54.3469 4.48224C54.6287 4.86671 54.796 5.31581 54.8491 5.82955H53.4023C53.3228 5.47159 53.1405 5.16335 52.8555 4.90483C52.5737 4.64631 52.1959 4.51705 51.7219 4.51705C51.3076 4.51705 50.9447 4.62642 50.6332 4.84517C50.3249 5.06061 50.0846 5.36884 49.9123 5.76989C49.7399 6.16761 49.6538 6.63826 49.6538 7.18182C49.6538 7.73864 49.7383 8.21922 49.9073 8.62358C50.0763 9.02794 50.315 9.34115 50.6232 9.56321C50.9348 9.78527 51.301 9.89631 51.7219 9.89631C52.0037 9.89631 52.2589 9.84493 52.4876 9.74219C52.7196 9.63613 52.9135 9.48532 53.0692 9.28977C53.2283 9.09422 53.3394 8.8589 53.4023 8.58381H54.8491C54.796 9.07765 54.6353 9.51847 54.3668 9.90625C54.0984 10.294 53.7388 10.599 53.288 10.821C52.8406 11.0431 52.3152 11.1541 51.712 11.1541ZM56.4387 11V3.36364H57.9252V11H56.4387ZM57.1895 2.18537C56.9309 2.18537 56.7089 2.09919 56.5233 1.92685C56.341 1.75118 56.2498 1.54238 56.2498 1.30043C56.2498 1.05516 56.341 0.846354 56.5233 0.674005C56.7089 0.498342 56.9309 0.410511 57.1895 0.410511C57.448 0.410511 57.6684 0.498342 57.8507 0.674005C58.0363 0.846354 58.1291 1.05516 58.1291 1.30043C58.1291 1.54238 58.0363 1.75118 57.8507 1.92685C57.6684 2.09919 57.448 2.18537 57.1895 2.18537ZM59.9251 11V3.36364H61.3619V4.5767H61.4414C61.5806 4.16572 61.8259 3.84257 62.1772 3.60724C62.5318 3.36861 62.9329 3.24929 63.3803 3.24929C63.4731 3.24929 63.5825 3.2526 63.7085 3.25923C63.8377 3.26586 63.9388 3.27415 64.0117 3.28409V4.70597C63.9521 4.68939 63.846 4.67116 63.6935 4.65128C63.5411 4.62808 63.3886 4.61648 63.2362 4.61648C62.8848 4.61648 62.5716 4.69105 62.2965 4.8402C62.0247 4.98603 61.8093 5.18987 61.6502 5.4517C61.4911 5.71023 61.4116 6.00521 61.4116 6.33665V11H59.9251ZM68.2413 11.1541C67.5022 11.1541 66.8658 10.9867 66.3322 10.652C65.8019 10.3139 65.3942 9.84825 65.1092 9.25497C64.8242 8.66169 64.6816 7.98224 64.6816 7.21662C64.6816 6.44105 64.8275 5.75663 65.1191 5.16335C65.4108 4.56676 65.8218 4.10109 66.3521 3.76633C66.8824 3.43158 67.5072 3.2642 68.2264 3.2642C68.8064 3.2642 69.3234 3.37192 69.7775 3.58736C70.2316 3.79948 70.5978 4.09777 70.8762 4.48224C71.158 4.86671 71.3253 5.31581 71.3784 5.82955H69.9316C69.8521 5.47159 69.6698 5.16335 69.3848 4.90483C69.103 4.64631 68.7252 4.51705 68.2512 4.51705C67.8369 4.51705 67.474 4.62642 67.1625 4.84517C66.8542 5.06061 66.6139 5.36884 66.4416 5.76989C66.2692 6.16761 66.1831 6.63826 66.1831 7.18182C66.1831 7.73864 66.2676 8.21922 66.4366 8.62358C66.6056 9.02794 66.8443 9.34115 67.1525 9.56321C67.4641 9.78527 67.8303 9.89631 68.2512 9.89631C68.533 9.89631 68.7882 9.84493 69.0169 9.74219C69.2489 9.63613 69.4428 9.48532 69.5985 9.28977C69.7576 9.09422 69.8687 8.8589 69.9316 8.58381H71.3784C71.3253 9.07765 71.1646 9.51847 70.8961 9.90625C70.6277 10.294 70.2681 10.599 69.8173 10.821C69.3699 11.0431 68.8445 11.1541 68.2413 11.1541ZM74.4545 0.818182V11H72.968V0.818182H74.4545ZM79.7456 11.1541C78.9932 11.1541 78.3452 10.9934 77.8017 10.6719C77.2614 10.3471 76.8438 9.89134 76.5488 9.30469C76.2572 8.71473 76.1113 8.02367 76.1113 7.23153C76.1113 6.44934 76.2572 5.75994 76.5488 5.16335C76.8438 4.56676 77.2548 4.10109 77.7818 3.76633C78.3121 3.43158 78.9319 3.2642 79.6412 3.2642C80.072 3.2642 80.4896 3.33546 80.894 3.47798C81.2984 3.6205 81.6613 3.84422 81.9828 4.14915C82.3043 4.45407 82.5578 4.85014 82.7434 5.33736C82.929 5.82126 83.0218 6.40956 83.0218 7.10227V7.62926H76.9515V6.51562H81.5652C81.5652 6.12453 81.4856 5.77817 81.3265 5.47656C81.1674 5.17164 80.9437 4.93134 80.6554 4.75568C80.3703 4.58002 80.0356 4.49219 79.6511 4.49219C79.2335 4.49219 78.8689 4.59493 78.5574 4.80043C78.2491 5.0026 78.0105 5.26776 77.8414 5.59588C77.6757 5.92069 77.5929 6.27367 77.5929 6.65483V7.52486C77.5929 8.03527 77.6824 8.46946 77.8613 8.82741C78.0436 9.18537 78.2972 9.45881 78.622 9.64773C78.9468 9.83333 79.3263 9.92614 79.7605 9.92614C80.0422 9.92614 80.2991 9.88636 80.5311 9.80682C80.7631 9.72396 80.9636 9.60133 81.1326 9.43892C81.3017 9.27652 81.4309 9.07599 81.5204 8.83736L82.9274 9.09091C82.8147 9.50521 82.6125 9.86813 82.3208 10.1797C82.0325 10.4879 81.6696 10.7282 81.2321 10.9006C80.7979 11.0696 80.3024 11.1541 79.7456 11.1541Z" fill="black"/>
</svg>
