<svg width="64" height="12" viewBox="0 0 64 12" fill="none" xmlns="http://www.w3.org/2000/svg">
<path d="M4.21591 11.1541C3.4768 11.1541 2.84044 10.9867 2.30682 10.652C1.77652 10.3139 1.36884 9.84825 1.08381 9.25497C0.798769 8.66169 0.65625 7.98224 0.65625 7.21662C0.65625 6.44105 0.802083 5.75663 1.09375 5.16335C1.38542 4.56676 1.7964 4.10109 2.3267 3.76633C2.85701 3.43158 3.48177 3.2642 4.20099 3.2642C4.78101 3.2642 5.29806 3.37192 5.75213 3.58736C6.2062 3.79948 6.57244 4.09777 6.85085 4.48224C7.13258 4.86671 7.29995 5.31581 7.35298 5.82955H5.90625C5.8267 5.47159 5.64441 5.16335 5.35938 4.90483C5.07765 4.64631 4.69981 4.51705 4.22585 4.51705C3.81155 4.51705 3.44863 4.62642 3.13707 4.84517C2.82884 5.06061 2.58854 5.36884 2.41619 5.76989C2.24384 6.16761 2.15767 6.63826 2.15767 7.18182C2.15767 7.73864 2.24219 8.21922 2.41122 8.62358C2.58026 9.02794 2.81889 9.34115 3.12713 9.56321C3.43868 9.78527 3.80492 9.89631 4.22585 9.89631C4.50758 9.89631 4.76278 9.84493 4.99148 9.74219C5.22349 9.63613 5.41738 9.48532 5.57315 9.28977C5.73224 9.09422 5.84328 8.8589 5.90625 8.58381H7.35298C7.29995 9.07765 7.1392 9.51847 6.87074 9.90625C6.60227 10.294 6.24266 10.599 5.7919 10.821C5.34446 11.0431 4.81913 11.1541 4.21591 11.1541ZM12.1593 11.1541C11.4434 11.1541 10.8186 10.9901 10.285 10.6619C9.75136 10.3338 9.33706 9.87476 9.04208 9.2848C8.7471 8.69484 8.59961 8.00544 8.59961 7.21662C8.59961 6.42448 8.7471 5.73177 9.04208 5.13849C9.33706 4.54522 9.75136 4.08452 10.285 3.75639C10.8186 3.42827 11.4434 3.2642 12.1593 3.2642C12.8752 3.2642 13.4999 3.42827 14.0336 3.75639C14.5672 4.08452 14.9815 4.54522 15.2765 5.13849C15.5714 5.73177 15.7189 6.42448 15.7189 7.21662C15.7189 8.00544 15.5714 8.69484 15.2765 9.2848C14.9815 9.87476 14.5672 10.3338 14.0336 10.6619C13.4999 10.9901 12.8752 11.1541 12.1593 11.1541ZM12.1642 9.90625C12.6283 9.90625 13.0127 9.78362 13.3176 9.53835C13.6226 9.29309 13.848 8.96662 13.9938 8.55895C14.1429 8.15128 14.2175 7.70218 14.2175 7.21165C14.2175 6.72443 14.1429 6.27699 13.9938 5.86932C13.848 5.45833 13.6226 5.12855 13.3176 4.87997C13.0127 4.63139 12.6283 4.5071 12.1642 4.5071C11.6969 4.5071 11.3091 4.63139 11.0009 4.87997C10.696 5.12855 10.4689 5.45833 10.3198 5.86932C10.1739 6.27699 10.101 6.72443 10.101 7.21165C10.101 7.70218 10.1739 8.15128 10.3198 8.55895C10.4689 8.96662 10.696 9.29309 11.0009 9.53835C11.3091 9.78362 11.6969 9.90625 12.1642 9.90625ZM18.8647 6.46591V11H17.3782V3.36364H18.805V4.60653H18.8995C19.0752 4.20218 19.3503 3.87737 19.7248 3.6321C20.1026 3.38684 20.5782 3.2642 21.1516 3.2642C21.672 3.2642 22.1277 3.37358 22.5188 3.59233C22.9099 3.80777 23.2132 4.12926 23.4286 4.55682C23.6441 4.98437 23.7518 5.51302 23.7518 6.14276V11H22.2653V6.32173C22.2653 5.76823 22.1211 5.3357 21.8327 5.02415C21.5444 4.70928 21.1483 4.55185 20.6445 4.55185C20.2998 4.55185 19.9933 4.62642 19.7248 4.77557C19.4596 4.92472 19.2492 5.14347 19.0934 5.43182C18.9409 5.71686 18.8647 6.06155 18.8647 6.46591ZM29.31 3.36364V4.55682H25.1388V3.36364H29.31ZM26.2575 1.53409H27.744V8.75781C27.744 9.04616 27.7871 9.26326 27.8732 9.40909C27.9594 9.55161 28.0704 9.64938 28.2063 9.70241C28.3455 9.75213 28.4963 9.77699 28.6587 9.77699C28.7781 9.77699 28.8825 9.7687 28.9719 9.75213C29.0614 9.73556 29.131 9.7223 29.1808 9.71236L29.4492 10.9403C29.363 10.9735 29.2404 11.0066 29.0813 11.0398C28.9222 11.0762 28.7234 11.0961 28.4847 11.0994C28.0936 11.1061 27.729 11.0365 27.391 10.8906C27.0529 10.7448 26.7795 10.5194 26.5707 10.2145C26.3619 9.90956 26.2575 9.52675 26.2575 9.06605V1.53409ZM33.1767 11.169C32.6928 11.169 32.2553 11.0795 31.8642 10.9006C31.4731 10.7183 31.1632 10.4548 30.9345 10.1101C30.7091 9.76539 30.5964 9.3428 30.5964 8.84233C30.5964 8.41146 30.6793 8.05682 30.845 7.77841C31.0107 7.5 31.2344 7.27959 31.5162 7.11719C31.7979 6.95478 32.1127 6.83215 32.4608 6.74929C32.8088 6.66643 33.1634 6.60346 33.5247 6.56037C33.9821 6.50734 34.3533 6.46425 34.6383 6.43111C34.9234 6.39465 35.1305 6.33665 35.2598 6.2571C35.389 6.17756 35.4537 6.0483 35.4537 5.86932V5.83452C35.4537 5.40033 35.331 5.06392 35.0858 4.82528C34.8438 4.58665 34.4825 4.46733 34.002 4.46733C33.5015 4.46733 33.1071 4.57836 32.8187 4.80043C32.5337 5.01918 32.3365 5.26278 32.2271 5.53125L30.8301 5.21307C30.9958 4.74905 31.2377 4.37453 31.5559 4.08949C31.8774 3.80114 32.247 3.59233 32.6646 3.46307C33.0822 3.33049 33.5214 3.2642 33.9821 3.2642C34.287 3.2642 34.6101 3.30066 34.9515 3.37358C35.2962 3.44318 35.6177 3.57244 35.916 3.76136C36.2176 3.95028 36.4645 4.22041 36.6568 4.57173C36.849 4.91974 36.9451 5.37216 36.9451 5.92898V11H35.4934V9.95597H35.4338C35.3377 10.1482 35.1935 10.3371 35.0012 10.5227C34.809 10.7083 34.5621 10.8625 34.2605 10.9851C33.9589 11.1077 33.5976 11.169 33.1767 11.169ZM33.4998 9.97585C33.9108 9.97585 34.2621 9.89465 34.5538 9.73224C34.8488 9.56984 35.0725 9.35772 35.225 9.09588C35.3807 8.83073 35.4586 8.54735 35.4586 8.24574V7.26136C35.4056 7.31439 35.3029 7.36411 35.1504 7.41051C35.0012 7.4536 34.8306 7.49171 34.6383 7.52486C34.4461 7.55469 34.2588 7.58286 34.0765 7.60938C33.8942 7.63258 33.7418 7.65246 33.6191 7.66903C33.3308 7.70549 33.0673 7.76681 32.8287 7.85298C32.5933 7.93916 32.4044 8.06345 32.2619 8.22585C32.1227 8.38494 32.0531 8.59706 32.0531 8.86222C32.0531 9.23011 32.189 9.50852 32.4608 9.69744C32.7325 9.88305 33.0789 9.97585 33.4998 9.97585ZM38.9251 11V3.36364H40.4116V11H38.9251ZM39.6758 2.18537C39.4173 2.18537 39.1952 2.09919 39.0096 1.92685C38.8273 1.75118 38.7362 1.54238 38.7362 1.30043C38.7362 1.05516 38.8273 0.846354 39.0096 0.674005C39.1952 0.498342 39.4173 0.410511 39.6758 0.410511C39.9343 0.410511 40.1547 0.498342 40.337 0.674005C40.5226 0.846354 40.6154 1.05516 40.6154 1.30043C40.6154 1.54238 40.5226 1.75118 40.337 1.92685C40.1547 2.09919 39.9343 2.18537 39.6758 2.18537ZM43.8979 6.46591V11H42.4114V3.36364H43.8382V4.60653H43.9327C44.1084 4.20218 44.3835 3.87737 44.758 3.6321C45.1358 3.38684 45.6114 3.2642 46.1848 3.2642C46.7052 3.2642 47.1609 3.37358 47.552 3.59233C47.9431 3.80777 48.2464 4.12926 48.4618 4.55682C48.6773 4.98437 48.785 5.51302 48.785 6.14276V11H47.2985V6.32173C47.2985 5.76823 47.1543 5.3357 46.8659 5.02415C46.5776 4.70928 46.1815 4.55185 45.6777 4.55185C45.333 4.55185 45.0265 4.62642 44.758 4.77557C44.4928 4.92472 44.2824 5.14347 44.1266 5.43182C43.9741 5.71686 43.8979 6.06155 43.8979 6.46591ZM54.0698 11.1541C53.3174 11.1541 52.6694 10.9934 52.1259 10.6719C51.5856 10.3471 51.168 9.89134 50.873 9.30469C50.5814 8.71473 50.4355 8.02367 50.4355 7.23153C50.4355 6.44934 50.5814 5.75994 50.873 5.16335C51.168 4.56676 51.579 4.10109 52.106 3.76633C52.6363 3.43158 53.2561 3.2642 53.9654 3.2642C54.3962 3.2642 54.8139 3.33546 55.2182 3.47798C55.6226 3.6205 55.9855 3.84422 56.307 4.14915C56.6285 4.45407 56.882 4.85014 57.0676 5.33736C57.2533 5.82126 57.3461 6.40956 57.3461 7.10227V7.62926H51.2757V6.51562H55.8894C55.8894 6.12453 55.8098 5.77817 55.6507 5.47656C55.4917 5.17164 55.2679 4.93134 54.9796 4.75568C54.6945 4.58002 54.3598 4.49219 53.9753 4.49219C53.5577 4.49219 53.1931 4.59493 52.8816 4.80043C52.5733 5.0026 52.3347 5.26776 52.1657 5.59588C51.9999 5.92069 51.9171 6.27367 51.9171 6.65483V7.52486C51.9171 8.03527 52.0066 8.46946 52.1855 8.82741C52.3678 9.18537 52.6214 9.45881 52.9462 9.64773C53.271 9.83333 53.6505 9.92614 54.0847 9.92614C54.3664 9.92614 54.6233 9.88636 54.8553 9.80682C55.0873 9.72396 55.2878 9.60133 55.4569 9.43892C55.6259 9.27652 55.7551 9.07599 55.8446 8.83736L57.2516 9.09091C57.1389 9.50521 56.9367 9.86813 56.6451 10.1797C56.3567 10.4879 55.9938 10.7282 55.5563 10.9006C55.1221 11.0696 54.6266 11.1541 54.0698 11.1541ZM58.9954 11V3.36364H60.4322V4.5767H60.5117C60.6509 4.16572 60.8962 3.84257 61.2475 3.60724C61.6022 3.36861 62.0032 3.24929 62.4506 3.24929C62.5434 3.24929 62.6528 3.2526 62.7788 3.25923C62.908 3.26586 63.0091 3.27415 63.082 3.28409V4.70597C63.0224 4.68939 62.9163 4.67116 62.7638 4.65128C62.6114 4.62808 62.4589 4.61648 62.3065 4.61648C61.9551 4.61648 61.6419 4.69105 61.3668 4.8402C61.0951 4.98603 60.8796 5.18987 60.7205 5.4517C60.5614 5.71023 60.4819 6.00521 60.4819 6.33665V11H58.9954Z" fill="black"/>
</svg>
