<svg width="58" height="14" viewBox="0 0 58 14" fill="none" xmlns="http://www.w3.org/2000/svg">
<path d="M4.21591 11.1541C3.4768 11.1541 2.84044 10.9867 2.30682 10.652C1.77652 10.3139 1.36884 9.84825 1.08381 9.25497C0.798769 8.66169 0.65625 7.98224 0.65625 7.21662C0.65625 6.44105 0.802083 5.75663 1.09375 5.16335C1.38542 4.56676 1.7964 4.10109 2.3267 3.76633C2.85701 3.43158 3.48177 3.2642 4.20099 3.2642C4.78101 3.2642 5.29806 3.37192 5.75213 3.58736C6.2062 3.79948 6.57244 4.09777 6.85085 4.48224C7.13258 4.86671 7.29995 5.31581 7.35298 5.82955H5.90625C5.8267 5.47159 5.64441 5.16335 5.35938 4.90483C5.07765 4.64631 4.69981 4.51705 4.22585 4.51705C3.81155 4.51705 3.44863 4.62642 3.13707 4.84517C2.82884 5.06061 2.58854 5.36884 2.41619 5.76989C2.24384 6.16761 2.15767 6.63826 2.15767 7.18182C2.15767 7.73864 2.24219 8.21922 2.41122 8.62358C2.58026 9.02794 2.81889 9.34115 3.12713 9.56321C3.43868 9.78527 3.80492 9.89631 4.22585 9.89631C4.50758 9.89631 4.76278 9.84493 4.99148 9.74219C5.22349 9.63613 5.41738 9.48532 5.57315 9.28977C5.73224 9.09422 5.84328 8.8589 5.90625 8.58381H7.35298C7.29995 9.07765 7.1392 9.51847 6.87074 9.90625C6.60227 10.294 6.24266 10.599 5.7919 10.821C5.34446 11.0431 4.81913 11.1541 4.21591 11.1541ZM12.1593 11.1541C11.4434 11.1541 10.8186 10.9901 10.285 10.6619C9.75136 10.3338 9.33706 9.87476 9.04208 9.2848C8.7471 8.69484 8.59961 8.00544 8.59961 7.21662C8.59961 6.42448 8.7471 5.73177 9.04208 5.13849C9.33706 4.54522 9.75136 4.08452 10.285 3.75639C10.8186 3.42827 11.4434 3.2642 12.1593 3.2642C12.8752 3.2642 13.4999 3.42827 14.0336 3.75639C14.5672 4.08452 14.9815 4.54522 15.2765 5.13849C15.5714 5.73177 15.7189 6.42448 15.7189 7.21662C15.7189 8.00544 15.5714 8.69484 15.2765 9.2848C14.9815 9.87476 14.5672 10.3338 14.0336 10.6619C13.4999 10.9901 12.8752 11.1541 12.1593 11.1541ZM12.1642 9.90625C12.6283 9.90625 13.0127 9.78362 13.3176 9.53835C13.6226 9.29309 13.848 8.96662 13.9938 8.55895C14.1429 8.15128 14.2175 7.70218 14.2175 7.21165C14.2175 6.72443 14.1429 6.27699 13.9938 5.86932C13.848 5.45833 13.6226 5.12855 13.3176 4.87997C13.0127 4.63139 12.6283 4.5071 12.1642 4.5071C11.6969 4.5071 11.3091 4.63139 11.0009 4.87997C10.696 5.12855 10.4689 5.45833 10.3198 5.86932C10.1739 6.27699 10.101 6.72443 10.101 7.21165C10.101 7.70218 10.1739 8.15128 10.3198 8.55895C10.4689 8.96662 10.696 9.29309 11.0009 9.53835C11.3091 9.78362 11.6969 9.90625 12.1642 9.90625ZM20.2369 11.1491C19.6204 11.1491 19.0702 10.9917 18.5863 10.6768C18.1057 10.3587 17.7279 9.90625 17.4528 9.3196C17.181 8.72964 17.0451 8.02202 17.0451 7.19673C17.0451 6.37145 17.1826 5.66548 17.4577 5.07884C17.7362 4.49219 18.1173 4.04309 18.6012 3.73153C19.0851 3.41998 19.6336 3.2642 20.2468 3.2642C20.7208 3.2642 21.1019 3.34375 21.3903 3.50284C21.6819 3.65862 21.9073 3.84091 22.0664 4.04972C22.2288 4.25852 22.3548 4.44247 22.4442 4.60156H22.5337V0.818182H24.0202V11H22.5685V9.81179H22.4442C22.3548 9.9742 22.2255 10.1598 22.0565 10.3686C21.8907 10.5774 21.6621 10.7597 21.3704 10.9155C21.0787 11.0713 20.7009 11.1491 20.2369 11.1491ZM20.565 9.88139C20.9925 9.88139 21.3538 9.7687 21.6488 9.54332C21.9471 9.31463 22.1725 8.99811 22.3249 8.59375C22.4807 8.18939 22.5586 7.71875 22.5586 7.18182C22.5586 6.65151 22.4824 6.1875 22.3299 5.78977C22.1774 5.39205 21.9537 5.08215 21.6587 4.86009C21.3638 4.63802 20.9992 4.52699 20.565 4.52699C20.1175 4.52699 19.7447 4.64299 19.4464 4.875C19.1481 5.10701 18.9227 5.42353 18.7702 5.82457C18.6211 6.22562 18.5465 6.67803 18.5465 7.18182C18.5465 7.69223 18.6228 8.15128 18.7752 8.55895C18.9277 8.96662 19.1531 9.28977 19.4513 9.52841C19.753 9.76373 20.1242 9.88139 20.565 9.88139ZM29.4331 11.1541C28.6807 11.1541 28.0327 10.9934 27.4892 10.6719C26.9489 10.3471 26.5313 9.89134 26.2363 9.30469C25.9447 8.71473 25.7988 8.02367 25.7988 7.23153C25.7988 6.44934 25.9447 5.75994 26.2363 5.16335C26.5313 4.56676 26.9423 4.10109 27.4693 3.76633C27.9996 3.43158 28.6194 3.2642 29.3287 3.2642C29.7595 3.2642 30.1771 3.33546 30.5815 3.47798C30.9859 3.6205 31.3488 3.84422 31.6703 4.14915C31.9918 4.45407 32.2453 4.85014 32.4309 5.33736C32.6165 5.82126 32.7093 6.40956 32.7093 7.10227V7.62926H26.639V6.51562H31.2527C31.2527 6.12453 31.1731 5.77817 31.014 5.47656C30.8549 5.17164 30.6312 4.93134 30.3429 4.75568C30.0578 4.58002 29.7231 4.49219 29.3386 4.49219C28.921 4.49219 28.5564 4.59493 28.2449 4.80043C27.9366 5.0026 27.698 5.26776 27.5289 5.59588C27.3632 5.92069 27.2804 6.27367 27.2804 6.65483V7.52486C27.2804 8.03527 27.3699 8.46946 27.5488 8.82741C27.7311 9.18537 27.9847 9.45881 28.3095 9.64773C28.6343 9.83333 29.0138 9.92614 29.448 9.92614C29.7297 9.92614 29.9866 9.88636 30.2186 9.80682C30.4506 9.72396 30.6511 9.60133 30.8201 9.43892C30.9892 9.27652 31.1184 9.07599 31.2079 8.83736L32.6149 9.09091C32.5022 9.50521 32.3 9.86813 32.0083 10.1797C31.72 10.4879 31.3571 10.7282 30.9196 10.9006C30.4854 11.0696 29.9899 11.1541 29.4331 11.1541ZM34.3587 13.8636V3.36364H35.8104V4.60156H35.9347C36.0208 4.44247 36.1451 4.25852 36.3075 4.04972C36.4699 3.84091 36.6953 3.65862 36.9837 3.50284C37.272 3.34375 37.6532 3.2642 38.1271 3.2642C38.7436 3.2642 39.2938 3.41998 39.7777 3.73153C40.2616 4.04309 40.6411 4.49219 40.9162 5.07884C41.1946 5.66548 41.3338 6.37145 41.3338 7.19673C41.3338 8.02202 41.1963 8.72964 40.9212 9.3196C40.6461 9.90625 40.2682 10.3587 39.7876 10.6768C39.3071 10.9917 38.7585 11.1491 38.142 11.1491C37.678 11.1491 37.2985 11.0713 37.0036 10.9155C36.7119 10.7597 36.4832 10.5774 36.3175 10.3686C36.1518 10.1598 36.0241 9.9742 35.9347 9.81179H35.8452V13.8636H34.3587ZM35.8153 7.18182C35.8153 7.71875 35.8932 8.18939 36.049 8.59375C36.2048 8.99811 36.4302 9.31463 36.7251 9.54332C37.0201 9.7687 37.3814 9.88139 37.8089 9.88139C38.2531 9.88139 38.6243 9.76373 38.9226 9.52841C39.2209 9.28977 39.4463 8.96662 39.5987 8.55895C39.7545 8.15128 39.8324 7.69223 39.8324 7.18182C39.8324 6.67803 39.7562 6.22562 39.6037 5.82457C39.4545 5.42353 39.2292 5.10701 38.9276 4.875C38.6293 4.64299 38.2564 4.52699 37.8089 4.52699C37.3781 4.52699 37.0135 4.63802 36.7152 4.86009C36.4202 5.08215 36.1965 5.39205 36.044 5.78977C35.8916 6.1875 35.8153 6.65151 35.8153 7.18182ZM46.2905 11.1541C45.5381 11.1541 44.8902 10.9934 44.3466 10.6719C43.8063 10.3471 43.3887 9.89134 43.0938 9.30469C42.8021 8.71473 42.6562 8.02367 42.6562 7.23153C42.6562 6.44934 42.8021 5.75994 43.0938 5.16335C43.3887 4.56676 43.7997 4.10109 44.3267 3.76633C44.857 3.43158 45.4768 3.2642 46.1861 3.2642C46.617 3.2642 47.0346 3.33546 47.4389 3.47798C47.8433 3.6205 48.2062 3.84422 48.5277 4.14915C48.8492 4.45407 49.1027 4.85014 49.2884 5.33736C49.474 5.82126 49.5668 6.40956 49.5668 7.10227V7.62926H43.4964V6.51562H48.1101C48.1101 6.12453 48.0305 5.77817 47.8714 5.47656C47.7124 5.17164 47.4886 4.93134 47.2003 4.75568C46.9152 4.58002 46.5805 4.49219 46.196 4.49219C45.7784 4.49219 45.4138 4.59493 45.1023 4.80043C44.794 5.0026 44.5554 5.26776 44.3864 5.59588C44.2206 5.92069 44.1378 6.27367 44.1378 6.65483V7.52486C44.1378 8.03527 44.2273 8.46946 44.4062 8.82741C44.5885 9.18537 44.8421 9.45881 45.1669 9.64773C45.4917 9.83333 45.8712 9.92614 46.3054 9.92614C46.5871 9.92614 46.844 9.88636 47.076 9.80682C47.308 9.72396 47.5085 9.60133 47.6776 9.43892C47.8466 9.27652 47.9759 9.07599 48.0653 8.83736L49.4723 9.09091C49.3596 9.50521 49.1574 9.86813 48.8658 10.1797C48.5774 10.4879 48.2145 10.7282 47.777 10.9006C47.3428 11.0696 46.8473 11.1541 46.2905 11.1541ZM52.7026 6.46591V11H51.2161V3.36364H52.6429V4.60653H52.7374C52.9131 4.20218 53.1882 3.87737 53.5627 3.6321C53.9405 3.38684 54.4161 3.2642 54.9895 3.2642C55.5099 3.2642 55.9656 3.37358 56.3567 3.59233C56.7478 3.80777 57.0511 4.12926 57.2665 4.55682C57.4819 4.98437 57.5897 5.51302 57.5897 6.14276V11H56.1032V6.32173C56.1032 5.76823 55.959 5.3357 55.6706 5.02415C55.3823 4.70928 54.9862 4.55185 54.4824 4.55185C54.1377 4.55185 53.8311 4.62642 53.5627 4.77557C53.2975 4.92472 53.0871 5.14347 52.9313 5.43182C52.7788 5.71686 52.7026 6.06155 52.7026 6.46591Z" fill="black"/>
</svg>
