<svg width="104" height="12" viewBox="0 0 104 12" fill="none" xmlns="http://www.w3.org/2000/svg">
<path d="M0.118608 11V0.818182H1.60511V4.60156H1.6946C1.78078 4.44247 1.90507 4.25852 2.06747 4.04972C2.22988 3.84091 2.45526 3.65862 2.74361 3.50284C3.03196 3.34375 3.41312 3.2642 3.88707 3.2642C4.50355 3.2642 5.05374 3.41998 5.53764 3.73153C6.02154 4.04309 6.40104 4.49219 6.67614 5.07884C6.95455 5.66548 7.09375 6.37145 7.09375 7.19673C7.09375 8.02202 6.9562 8.72964 6.68111 9.3196C6.40601 9.90625 6.02817 10.3587 5.54759 10.6768C5.067 10.9917 4.51847 11.1491 3.90199 11.1491C3.43797 11.1491 3.05848 11.0713 2.76349 10.9155C2.47183 10.7597 2.24313 10.5774 2.07741 10.3686C1.9117 10.1598 1.78409 9.9742 1.6946 9.81179H1.57031V11H0.118608ZM1.57528 7.18182C1.57528 7.71875 1.65317 8.18939 1.80895 8.59375C1.96473 8.99811 2.1901 9.31463 2.48509 9.54332C2.78007 9.7687 3.14134 9.88139 3.56889 9.88139C4.01302 9.88139 4.38423 9.76373 4.68253 9.52841C4.98082 9.28977 5.2062 8.96662 5.35866 8.55895C5.51444 8.15128 5.59233 7.69223 5.59233 7.18182C5.59233 6.67803 5.5161 6.22562 5.36364 5.82457C5.21449 5.42353 4.98911 5.10701 4.6875 4.875C4.3892 4.64299 4.01634 4.52699 3.56889 4.52699C3.13802 4.52699 2.77344 4.63802 2.47514 4.86009C2.18016 5.08215 1.95644 5.39205 1.80398 5.78977C1.65152 6.1875 1.57528 6.65151 1.57528 7.18182ZM8.76296 11V3.36364H10.1998V4.5767H10.2793C10.4185 4.16572 10.6638 3.84257 11.0151 3.60724C11.3697 3.36861 11.7708 3.24929 12.2182 3.24929C12.311 3.24929 12.4204 3.2526 12.5463 3.25923C12.6756 3.26586 12.7767 3.27415 12.8496 3.28409V4.70597C12.79 4.68939 12.6839 4.67116 12.5314 4.65128C12.379 4.62808 12.2265 4.61648 12.074 4.61648C11.7227 4.61648 11.4095 4.69105 11.1344 4.8402C10.8626 4.98603 10.6472 5.18987 10.4881 5.4517C10.329 5.71023 10.2495 6.00521 10.2495 6.33665V11H8.76296ZM16.29 11.169C15.806 11.169 15.3685 11.0795 14.9775 10.9006C14.5864 10.7183 14.2765 10.4548 14.0478 10.1101C13.8224 9.76539 13.7097 9.3428 13.7097 8.84233C13.7097 8.41146 13.7926 8.05682 13.9583 7.77841C14.124 7.5 14.3477 7.27959 14.6294 7.11719C14.9112 6.95478 15.226 6.83215 15.574 6.74929C15.9221 6.66643 16.2767 6.60346 16.638 6.56037C17.0953 6.50734 17.4666 6.46425 17.7516 6.43111C18.0366 6.39465 18.2438 6.33665 18.373 6.2571C18.5023 6.17756 18.5669 6.0483 18.5669 5.86932V5.83452C18.5669 5.40033 18.4443 5.06392 18.199 4.82528C17.9571 4.58665 17.5958 4.46733 17.1152 4.46733C16.6148 4.46733 16.2203 4.57836 15.932 4.80043C15.647 5.01918 15.4498 5.26278 15.3404 5.53125L13.9434 5.21307C14.1091 4.74905 14.351 4.37453 14.6692 4.08949C14.9907 3.80114 15.3603 3.59233 15.7779 3.46307C16.1955 3.33049 16.6346 3.2642 17.0953 3.2642C17.4003 3.2642 17.7234 3.30066 18.0648 3.37358C18.4095 3.44318 18.731 3.57244 19.0293 3.76136C19.3309 3.95028 19.5778 4.22041 19.7701 4.57173C19.9623 4.91974 20.0584 5.37216 20.0584 5.92898V11H18.6067V9.95597H18.5471C18.4509 10.1482 18.3068 10.3371 18.1145 10.5227C17.9223 10.7083 17.6754 10.8625 17.3738 10.9851C17.0721 11.1077 16.7109 11.169 16.29 11.169ZM16.6131 9.97585C17.0241 9.97585 17.3754 9.89465 17.6671 9.73224C17.9621 9.56984 18.1858 9.35772 18.3382 9.09588C18.494 8.83073 18.5719 8.54735 18.5719 8.24574V7.26136C18.5189 7.31439 18.4161 7.36411 18.2637 7.41051C18.1145 7.4536 17.9438 7.49171 17.7516 7.52486C17.5594 7.55469 17.3721 7.58286 17.1898 7.60938C17.0075 7.63258 16.8551 7.65246 16.7324 7.66903C16.4441 7.70549 16.1806 7.76681 15.9419 7.85298C15.7066 7.93916 15.5177 8.06345 15.3752 8.22585C15.236 8.38494 15.1664 8.59706 15.1664 8.86222C15.1664 9.23011 15.3023 9.50852 15.574 9.69744C15.8458 9.88305 16.1922 9.97585 16.6131 9.97585ZM25.255 11.1541C24.5159 11.1541 23.8795 10.9867 23.3459 10.652C22.8156 10.3139 22.4079 9.84825 22.1229 9.25497C21.8378 8.66169 21.6953 7.98224 21.6953 7.21662C21.6953 6.44105 21.8411 5.75663 22.1328 5.16335C22.4245 4.56676 22.8355 4.10109 23.3658 3.76633C23.8961 3.43158 24.5208 3.2642 25.2401 3.2642C25.8201 3.2642 26.3371 3.37192 26.7912 3.58736C27.2453 3.79948 27.6115 4.09777 27.8899 4.48224C28.1716 4.86671 28.339 5.31581 28.392 5.82955H26.9453C26.8658 5.47159 26.6835 5.16335 26.3984 4.90483C26.1167 4.64631 25.7389 4.51705 25.2649 4.51705C24.8506 4.51705 24.4877 4.62642 24.1761 4.84517C23.8679 5.06061 23.6276 5.36884 23.4553 5.76989C23.2829 6.16761 23.1967 6.63826 23.1967 7.18182C23.1967 7.73864 23.2813 8.21922 23.4503 8.62358C23.6193 9.02794 23.858 9.34115 24.1662 9.56321C24.4777 9.78527 24.844 9.89631 25.2649 9.89631C25.5466 9.89631 25.8018 9.84493 26.0305 9.74219C26.2625 9.63613 26.4564 9.48532 26.6122 9.28977C26.7713 9.09422 26.8823 8.8589 26.9453 8.58381H28.392C28.339 9.07765 28.1783 9.51847 27.9098 9.90625C27.6413 10.294 27.2817 10.599 26.831 10.821C26.3835 11.0431 25.8582 11.1541 25.255 11.1541ZM31.3489 8.4098L31.339 6.59517H31.5975L34.6401 3.36364H36.4199L32.9498 7.04261H32.7161L31.3489 8.4098ZM29.9817 11V0.818182H31.4682V11H29.9817ZM34.8042 11L32.0698 7.37074L33.0939 6.33168L36.6287 11H34.8042ZM40.7514 11.1541C39.9991 11.1541 39.3511 10.9934 38.8075 10.6719C38.2673 10.3471 37.8497 9.89134 37.5547 9.30469C37.263 8.71473 37.1172 8.02367 37.1172 7.23153C37.1172 6.44934 37.263 5.75994 37.5547 5.16335C37.8497 4.56676 38.2607 4.10109 38.7876 3.76633C39.3179 3.43158 39.9377 3.2642 40.647 3.2642C41.0779 3.2642 41.4955 3.33546 41.8999 3.47798C42.3042 3.6205 42.6671 3.84422 42.9886 4.14915C43.3101 4.45407 43.5637 4.85014 43.7493 5.33736C43.9349 5.82126 44.0277 6.40956 44.0277 7.10227V7.62926H37.9574V6.51562H42.571C42.571 6.12453 42.4915 5.77817 42.3324 5.47656C42.1733 5.17164 41.9496 4.93134 41.6612 4.75568C41.3762 4.58002 41.0414 4.49219 40.657 4.49219C40.2393 4.49219 39.8748 4.59493 39.5632 4.80043C39.255 5.0026 39.0163 5.26776 38.8473 5.59588C38.6816 5.92069 38.5987 6.27367 38.5987 6.65483V7.52486C38.5987 8.03527 38.6882 8.46946 38.8672 8.82741C39.0495 9.18537 39.303 9.45881 39.6278 9.64773C39.9527 9.83333 40.3321 9.92614 40.7663 9.92614C41.0481 9.92614 41.3049 9.88636 41.5369 9.80682C41.7689 9.72396 41.9695 9.60133 42.1385 9.43892C42.3075 9.27652 42.4368 9.07599 42.5263 8.83736L43.9332 9.09091C43.8205 9.50521 43.6184 9.86813 43.3267 10.1797C43.0384 10.4879 42.6754 10.7282 42.2379 10.9006C41.8037 11.0696 41.3082 11.1541 40.7514 11.1541ZM49.2417 3.36364V4.55682H45.0705V3.36364H49.2417ZM46.1891 1.53409H47.6756V8.75781C47.6756 9.04616 47.7187 9.26326 47.8049 9.40909C47.891 9.55161 48.0021 9.64938 48.138 9.70241C48.2772 9.75213 48.428 9.77699 48.5904 9.77699C48.7097 9.77699 48.8141 9.7687 48.9036 9.75213C48.9931 9.73556 49.0627 9.7223 49.1124 9.71236L49.3809 10.9403C49.2947 10.9735 49.1721 11.0066 49.013 11.0398C48.8539 11.0762 48.655 11.0961 48.4164 11.0994C48.0253 11.1061 47.6607 11.0365 47.3226 10.8906C46.9846 10.7448 46.7111 10.5194 46.5023 10.2145C46.2935 9.90956 46.1891 9.52675 46.1891 9.06605V1.53409ZM56.4853 5.22798L55.138 5.46662C55.0816 5.29427 54.9921 5.13021 54.8695 4.97443C54.7502 4.81865 54.5878 4.69105 54.3823 4.59162C54.1768 4.49219 53.9199 4.44247 53.6117 4.44247C53.1908 4.44247 52.8394 4.53693 52.5577 4.72585C52.276 4.91146 52.1351 5.15175 52.1351 5.44673C52.1351 5.70194 52.2296 5.90743 52.4185 6.06321C52.6074 6.21899 52.9123 6.34659 53.3333 6.44602L54.5463 6.72443C55.249 6.88684 55.7727 7.13707 56.1174 7.47514C56.4621 7.81321 56.6344 8.25237 56.6344 8.79261C56.6344 9.25 56.5018 9.65767 56.2367 10.0156C55.9748 10.3703 55.6086 10.6487 55.138 10.8509C54.6706 11.053 54.1287 11.1541 53.5123 11.1541C52.6571 11.1541 51.9595 10.9718 51.4192 10.6072C50.879 10.2393 50.5475 9.71733 50.4249 9.04119L51.8617 8.82244C51.9512 9.19697 52.1351 9.48035 52.4135 9.67259C52.6919 9.86151 53.0549 9.95597 53.5023 9.95597C53.9895 9.95597 54.379 9.85488 54.6706 9.6527C54.9623 9.44721 55.1081 9.19697 55.1081 8.90199C55.1081 8.66335 55.0186 8.46283 54.8397 8.30043C54.664 8.13802 54.3939 8.01539 54.0293 7.93253L52.7367 7.64915C52.0241 7.48674 51.4971 7.22822 51.1557 6.87358C50.8176 6.51894 50.6486 6.06984 50.6486 5.52628C50.6486 5.07552 50.7746 4.68111 51.0265 4.34304C51.2783 4.00497 51.6264 3.74148 52.0705 3.55256C52.5146 3.36032 53.0234 3.2642 53.5968 3.2642C54.4221 3.2642 55.0717 3.44318 55.5456 3.80114C56.0196 4.15578 56.3328 4.63139 56.4853 5.22798ZM62.7681 6.05327V7.34091H58.2539V6.05327H62.7681ZM67.9659 11.1541C67.2268 11.1541 66.5904 10.9867 66.0568 10.652C65.5265 10.3139 65.1188 9.84825 64.8338 9.25497C64.5488 8.66169 64.4062 7.98224 64.4062 7.21662C64.4062 6.44105 64.5521 5.75663 64.8438 5.16335C65.1354 4.56676 65.5464 4.10109 66.0767 3.76633C66.607 3.43158 67.2318 3.2642 67.951 3.2642C68.531 3.2642 69.0481 3.37192 69.5021 3.58736C69.9562 3.79948 70.3224 4.09777 70.6009 4.48224C70.8826 4.86671 71.05 5.31581 71.103 5.82955H69.6562C69.5767 5.47159 69.3944 5.16335 69.1094 4.90483C68.8277 4.64631 68.4498 4.51705 67.9759 4.51705C67.5616 4.51705 67.1986 4.62642 66.8871 4.84517C66.5788 5.06061 66.3385 5.36884 66.1662 5.76989C65.9938 6.16761 65.9077 6.63826 65.9077 7.18182C65.9077 7.73864 65.9922 8.21922 66.1612 8.62358C66.3303 9.02794 66.5689 9.34115 66.8771 9.56321C67.1887 9.78527 67.5549 9.89631 67.9759 9.89631C68.2576 9.89631 68.5128 9.84493 68.7415 9.74219C68.9735 9.63613 69.1674 9.48532 69.3232 9.28977C69.4822 9.09422 69.5933 8.8589 69.6562 8.58381H71.103C71.05 9.07765 70.8892 9.51847 70.6207 9.90625C70.3523 10.294 69.9927 10.599 69.5419 10.821C69.0945 11.0431 68.5691 11.1541 67.9659 11.1541ZM74.1792 6.46591V11H72.6926V0.818182H74.1593V4.60653H74.2537C74.4327 4.19555 74.7061 3.86908 75.074 3.62713C75.4419 3.38518 75.9225 3.2642 76.5158 3.2642C77.0395 3.2642 77.4969 3.37192 77.888 3.58736C78.2824 3.80279 78.5873 4.12429 78.8027 4.55185C79.0215 4.97609 79.1309 5.50639 79.1309 6.14276V11H77.6444V6.32173C77.6444 5.7616 77.5002 5.32741 77.2118 5.01918C76.9235 4.70762 76.5224 4.55185 76.0087 4.55185C75.6574 4.55185 75.3425 4.62642 75.0641 4.77557C74.789 4.92472 74.5719 5.14347 74.4128 5.43182C74.257 5.71686 74.1792 6.06155 74.1792 6.46591ZM84.4057 11.1541C83.6533 11.1541 83.0054 10.9934 82.4618 10.6719C81.9216 10.3471 81.504 9.89134 81.209 9.30469C80.9173 8.71473 80.7715 8.02367 80.7715 7.23153C80.7715 6.44934 80.9173 5.75994 81.209 5.16335C81.504 4.56676 81.915 4.10109 82.4419 3.76633C82.9722 3.43158 83.592 3.2642 84.3013 3.2642C84.7322 3.2642 85.1498 3.33546 85.5542 3.47798C85.9585 3.6205 86.3214 3.84422 86.6429 4.14915C86.9644 4.45407 87.218 4.85014 87.4036 5.33736C87.5892 5.82126 87.682 6.40956 87.682 7.10227V7.62926H81.6117V6.51562H86.2253C86.2253 6.12453 86.1458 5.77817 85.9867 5.47656C85.8276 5.17164 85.6039 4.93134 85.3155 4.75568C85.0305 4.58002 84.6957 4.49219 84.3113 4.49219C83.8936 4.49219 83.5291 4.59493 83.2175 4.80043C82.9093 5.0026 82.6706 5.26776 82.5016 5.59588C82.3359 5.92069 82.253 6.27367 82.253 6.65483V7.52486C82.253 8.03527 82.3425 8.46946 82.5215 8.82741C82.7038 9.18537 82.9573 9.45881 83.2821 9.64773C83.6069 9.83333 83.9864 9.92614 84.4206 9.92614C84.7024 9.92614 84.9592 9.88636 85.1912 9.80682C85.4232 9.72396 85.6238 9.60133 85.7928 9.43892C85.9618 9.27652 86.0911 9.07599 86.1806 8.83736L87.5875 9.09091C87.4748 9.50521 87.2727 9.86813 86.981 10.1797C86.6926 10.4879 86.3297 10.7282 85.8922 10.9006C85.458 11.0696 84.9625 11.1541 84.4057 11.1541ZM92.5479 11.1541C91.8088 11.1541 91.1725 10.9867 90.6388 10.652C90.1085 10.3139 89.7009 9.84825 89.4158 9.25497C89.1308 8.66169 88.9883 7.98224 88.9883 7.21662C88.9883 6.44105 89.1341 5.75663 89.4258 5.16335C89.7174 4.56676 90.1284 4.10109 90.6587 3.76633C91.189 3.43158 91.8138 3.2642 92.533 3.2642C93.113 3.2642 93.6301 3.37192 94.0842 3.58736C94.5382 3.79948 94.9045 4.09777 95.1829 4.48224C95.4646 4.86671 95.632 5.31581 95.685 5.82955H94.2383C94.1587 5.47159 93.9764 5.16335 93.6914 4.90483C93.4097 4.64631 93.0318 4.51705 92.5579 4.51705C92.1436 4.51705 91.7807 4.62642 91.4691 4.84517C91.1609 5.06061 90.9206 5.36884 90.7482 5.76989C90.5759 6.16761 90.4897 6.63826 90.4897 7.18182C90.4897 7.73864 90.5742 8.21922 90.7433 8.62358C90.9123 9.02794 91.1509 9.34115 91.4592 9.56321C91.7707 9.78527 92.137 9.89631 92.5579 9.89631C92.8396 9.89631 93.0948 9.84493 93.3235 9.74219C93.5555 9.63613 93.7494 9.48532 93.9052 9.28977C94.0643 9.09422 94.1753 8.8589 94.2383 8.58381H95.685C95.632 9.07765 95.4712 9.51847 95.2028 9.90625C94.9343 10.294 94.5747 10.599 94.1239 10.821C93.6765 11.0431 93.1512 11.1541 92.5479 11.1541ZM98.6419 8.4098L98.6319 6.59517H98.8904L101.933 3.36364H103.713L100.243 7.04261H100.009L98.6419 8.4098ZM97.2747 11V0.818182H98.7612V11H97.2747ZM102.097 11L99.3627 7.37074L100.387 6.33168L103.922 11H102.097Z" fill="black"/>
</svg>
