<svg width="77" height="14" viewBox="0 0 77 14" fill="none" xmlns="http://www.w3.org/2000/svg">
<path d="M6.15483 13.8636V9.81179H6.06534C5.97585 9.9742 5.84659 10.1598 5.67756 10.3686C5.51184 10.5774 5.28314 10.7597 4.99148 10.9155C4.69981 11.0713 4.32197 11.1491 3.85795 11.1491C3.24148 11.1491 2.69129 10.9917 2.20739 10.6768C1.7268 10.3587 1.34896 9.90625 1.07386 9.3196C0.802083 8.72964 0.666193 8.02202 0.666193 7.19673C0.666193 6.37145 0.803741 5.66548 1.07884 5.07884C1.35724 4.49219 1.7384 4.04309 2.2223 3.73153C2.7062 3.41998 3.25473 3.2642 3.8679 3.2642C4.34186 3.2642 4.72301 3.34375 5.01136 3.50284C5.30303 3.65862 5.52841 3.84091 5.6875 4.04972C5.84991 4.25852 5.97585 4.44247 6.06534 4.60156H6.18963V3.36364H7.64134V13.8636H6.15483ZM4.18608 9.88139C4.61364 9.88139 4.97491 9.7687 5.26989 9.54332C5.56818 9.31463 5.79356 8.99811 5.94602 8.59375C6.1018 8.18939 6.17969 7.71875 6.17969 7.18182C6.17969 6.65151 6.10346 6.1875 5.95099 5.78977C5.79853 5.39205 5.57481 5.08215 5.27983 4.86009C4.98485 4.63802 4.62027 4.52699 4.18608 4.52699C3.73864 4.52699 3.36577 4.64299 3.06747 4.875C2.76918 5.10701 2.5438 5.42353 2.39134 5.82457C2.24219 6.22562 2.16761 6.67803 2.16761 7.18182C2.16761 7.69223 2.24384 8.15128 2.39631 8.55895C2.54877 8.96662 2.77415 9.28977 3.07244 9.52841C3.37405 9.76373 3.74527 9.88139 4.18608 9.88139ZM9.63991 11V3.36364H11.0767V4.5767H11.1562C11.2955 4.16572 11.5407 3.84257 11.892 3.60724C12.2467 3.36861 12.6477 3.24929 13.0952 3.24929C13.188 3.24929 13.2973 3.2526 13.4233 3.25923C13.5526 3.26586 13.6536 3.27415 13.7266 3.28409V4.70597C13.6669 4.68939 13.5608 4.67116 13.4084 4.65128C13.2559 4.62808 13.1035 4.61648 12.951 4.61648C12.5997 4.61648 12.2865 4.69105 12.0114 4.8402C11.7396 4.98603 11.5241 5.18987 11.3651 5.4517C11.206 5.71023 11.1264 6.00521 11.1264 6.33665V11H9.63991ZM19.0611 6.05327V7.34091H14.5469V6.05327H19.0611ZM24.2589 11.1541C23.5198 11.1541 22.8834 10.9867 22.3498 10.652C21.8195 10.3139 21.4118 9.84825 21.1268 9.25497C20.8417 8.66169 20.6992 7.98224 20.6992 7.21662C20.6992 6.44105 20.8451 5.75663 21.1367 5.16335C21.4284 4.56676 21.8394 4.10109 22.3697 3.76633C22.9 3.43158 23.5247 3.2642 24.244 3.2642C24.824 3.2642 25.341 3.37192 25.7951 3.58736C26.2492 3.79948 26.6154 4.09777 26.8938 4.48224C27.1755 4.86671 27.3429 5.31581 27.396 5.82955H25.9492C25.8697 5.47159 25.6874 5.16335 25.4023 4.90483C25.1206 4.64631 24.7428 4.51705 24.2688 4.51705C23.8545 4.51705 23.4916 4.62642 23.18 4.84517C22.8718 5.06061 22.6315 5.36884 22.4592 5.76989C22.2868 6.16761 22.2006 6.63826 22.2006 7.18182C22.2006 7.73864 22.2852 8.21922 22.4542 8.62358C22.6232 9.02794 22.8619 9.34115 23.1701 9.56321C23.4817 9.78527 23.8479 9.89631 24.2688 9.89631C24.5505 9.89631 24.8058 9.84493 25.0344 9.74219C25.2665 9.63613 25.4603 9.48532 25.6161 9.28977C25.7752 9.09422 25.8862 8.8589 25.9492 8.58381H27.396C27.3429 9.07765 27.1822 9.51847 26.9137 9.90625C26.6452 10.294 26.2856 10.599 25.8349 10.821C25.3874 11.0431 24.8621 11.1541 24.2589 11.1541ZM32.2022 11.1541C31.4863 11.1541 30.8616 10.9901 30.3279 10.6619C29.7943 10.3338 29.38 9.87476 29.085 9.2848C28.7901 8.69484 28.6426 8.00544 28.6426 7.21662C28.6426 6.42448 28.7901 5.73177 29.085 5.13849C29.38 4.54522 29.7943 4.08452 30.3279 3.75639C30.8616 3.42827 31.4863 3.2642 32.2022 3.2642C32.9181 3.2642 33.5429 3.42827 34.0765 3.75639C34.6101 4.08452 35.0244 4.54522 35.3194 5.13849C35.6144 5.73177 35.7619 6.42448 35.7619 7.21662C35.7619 8.00544 35.6144 8.69484 35.3194 9.2848C35.0244 9.87476 34.6101 10.3338 34.0765 10.6619C33.5429 10.9901 32.9181 11.1541 32.2022 11.1541ZM32.2072 9.90625C32.6712 9.90625 33.0557 9.78362 33.3606 9.53835C33.6655 9.29309 33.8909 8.96662 34.0368 8.55895C34.1859 8.15128 34.2605 7.70218 34.2605 7.21165C34.2605 6.72443 34.1859 6.27699 34.0368 5.86932C33.8909 5.45833 33.6655 5.12855 33.3606 4.87997C33.0557 4.63139 32.6712 4.5071 32.2072 4.5071C31.7399 4.5071 31.3521 4.63139 31.0439 4.87997C30.7389 5.12855 30.5119 5.45833 30.3627 5.86932C30.2169 6.27699 30.144 6.72443 30.144 7.21165C30.144 7.70218 30.2169 8.15128 30.3627 8.55895C30.5119 8.96662 30.7389 9.29309 31.0439 9.53835C31.3521 9.78362 31.7399 9.90625 32.2072 9.90625ZM40.2798 11.1491C39.6634 11.1491 39.1132 10.9917 38.6293 10.6768C38.1487 10.3587 37.7708 9.90625 37.4957 9.3196C37.224 8.72964 37.0881 8.02202 37.0881 7.19673C37.0881 6.37145 37.2256 5.66548 37.5007 5.07884C37.7791 4.49219 38.1603 4.04309 38.6442 3.73153C39.1281 3.41998 39.6766 3.2642 40.2898 3.2642C40.7637 3.2642 41.1449 3.34375 41.4332 3.50284C41.7249 3.65862 41.9503 3.84091 42.1094 4.04972C42.2718 4.25852 42.3977 4.44247 42.4872 4.60156H42.5767V0.818182H44.0632V11H42.6115V9.81179H42.4872C42.3977 9.9742 42.2685 10.1598 42.0994 10.3686C41.9337 10.5774 41.705 10.7597 41.4134 10.9155C41.1217 11.0713 40.7438 11.1491 40.2798 11.1491ZM40.608 9.88139C41.0355 9.88139 41.3968 9.7687 41.6918 9.54332C41.9901 9.31463 42.2154 8.99811 42.3679 8.59375C42.5237 8.18939 42.6016 7.71875 42.6016 7.18182C42.6016 6.65151 42.5253 6.1875 42.3729 5.78977C42.2204 5.39205 41.9967 5.08215 41.7017 4.86009C41.4067 4.63802 41.0421 4.52699 40.608 4.52699C40.1605 4.52699 39.7876 4.64299 39.4893 4.875C39.1911 5.10701 38.9657 5.42353 38.8132 5.82457C38.6641 6.22562 38.5895 6.67803 38.5895 7.18182C38.5895 7.69223 38.6657 8.15128 38.8182 8.55895C38.9706 8.96662 39.196 9.28977 39.4943 9.52841C39.7959 9.76373 40.1671 9.88139 40.608 9.88139ZM49.476 11.1541C48.7237 11.1541 48.0757 10.9934 47.5321 10.6719C46.9919 10.3471 46.5743 9.89134 46.2793 9.30469C45.9876 8.71473 45.8418 8.02367 45.8418 7.23153C45.8418 6.44934 45.9876 5.75994 46.2793 5.16335C46.5743 4.56676 46.9853 4.10109 47.5123 3.76633C48.0426 3.43158 48.6623 3.2642 49.3716 3.2642C49.8025 3.2642 50.2201 3.33546 50.6245 3.47798C51.0288 3.6205 51.3917 3.84422 51.7132 4.14915C52.0347 4.45407 52.2883 4.85014 52.4739 5.33736C52.6595 5.82126 52.7523 6.40956 52.7523 7.10227V7.62926H46.682V6.51562H51.2956C51.2956 6.12453 51.2161 5.77817 51.057 5.47656C50.8979 5.17164 50.6742 4.93134 50.3858 4.75568C50.1008 4.58002 49.766 4.49219 49.3816 4.49219C48.964 4.49219 48.5994 4.59493 48.2878 4.80043C47.9796 5.0026 47.7409 5.26776 47.5719 5.59588C47.4062 5.92069 47.3233 6.27367 47.3233 6.65483V7.52486C47.3233 8.03527 47.4128 8.46946 47.5918 8.82741C47.7741 9.18537 48.0276 9.45881 48.3525 9.64773C48.6773 9.83333 49.0568 9.92614 49.4909 9.92614C49.7727 9.92614 50.0295 9.88636 50.2615 9.80682C50.4935 9.72396 50.6941 9.60133 50.8631 9.43892C51.0321 9.27652 51.1614 9.07599 51.2509 8.83736L52.6578 9.09091C52.5452 9.50521 52.343 9.86813 52.0513 10.1797C51.763 10.4879 51.4 10.7282 50.9625 10.9006C50.5283 11.0696 50.0328 11.1541 49.476 11.1541ZM58.9009 6.05327V7.34091H54.3867V6.05327H58.9009ZM64.407 11.169C63.6214 11.1657 62.9503 10.9586 62.3935 10.5476C61.8366 10.1366 61.4107 9.53835 61.1158 8.75284C60.8208 7.96733 60.6733 7.02107 60.6733 5.91406C60.6733 4.81037 60.8208 3.86742 61.1158 3.08523C61.4141 2.30303 61.8416 1.70644 62.3984 1.29545C62.9586 0.884469 63.6281 0.678977 64.407 0.678977C65.1858 0.678977 65.8537 0.886126 66.4105 1.30043C66.9673 1.71141 67.3932 2.308 67.6882 3.0902C67.9865 3.86908 68.1357 4.81037 68.1357 5.91406C68.1357 7.02438 67.9882 7.9723 67.6932 8.75781C67.3982 9.54001 66.9723 10.1383 66.4155 10.5526C65.8587 10.9635 65.1892 11.169 64.407 11.169ZM64.407 9.84162C65.0964 9.84162 65.6349 9.50521 66.0227 8.83239C66.4138 8.15956 66.6094 7.18679 66.6094 5.91406C66.6094 5.06889 66.5199 4.35464 66.3409 3.77131C66.1652 3.18466 65.9117 2.74053 65.5803 2.43892C65.2521 2.134 64.861 1.98153 64.407 1.98153C63.7209 1.98153 63.1823 2.3196 62.7912 2.99574C62.4001 3.67187 62.2029 4.64465 62.1996 5.91406C62.1996 6.76255 62.2874 7.48011 62.4631 8.06676C62.642 8.65009 62.8956 9.09257 63.2237 9.39418C63.5518 9.69247 63.9463 9.84162 64.407 9.84162ZM69.8993 11V9.88636L73.3446 6.31676C73.7125 5.92898 74.0158 5.58925 74.2544 5.29759C74.4964 5.0026 74.677 4.72254 74.7963 4.45739C74.9157 4.19223 74.9753 3.91051 74.9753 3.61222C74.9753 3.27415 74.8958 2.98248 74.7367 2.73722C74.5776 2.48864 74.3605 2.29806 74.0854 2.16548C73.8103 2.02959 73.5004 1.96165 73.1557 1.96165C72.7911 1.96165 72.473 2.03622 72.2012 2.18537C71.9294 2.33452 71.7206 2.54498 71.5748 2.81676C71.4289 3.08854 71.356 3.40672 71.356 3.77131H69.8894C69.8894 3.15151 70.0319 2.60961 70.3169 2.1456C70.602 1.68158 70.9931 1.32197 71.4902 1.06676C71.9874 0.808238 72.5525 0.678977 73.1855 0.678977C73.8252 0.678977 74.3887 0.806581 74.8759 1.06179C75.3664 1.31368 75.7492 1.65838 76.0243 2.09588C76.2994 2.53007 76.437 3.0206 76.437 3.56747C76.437 3.94531 76.3657 4.31487 76.2232 4.67614C76.084 5.0374 75.8404 5.4401 75.4924 5.88423C75.1444 6.32505 74.6605 6.86032 74.0407 7.49006L72.0172 9.60795V9.68253H76.601V11H69.8993Z" fill="black"/>
</svg>
