<svg width="73" height="15" viewBox="0 0 73 15" fill="none" xmlns="http://www.w3.org/2000/svg">
<path d="M4.20099 14.0227C3.59446 14.0227 3.07244 13.9432 2.63494 13.7841C2.20076 13.625 1.84612 13.4145 1.57102 13.1527C1.29593 12.8909 1.09044 12.6042 0.954545 12.2926L2.23224 11.7656C2.32173 11.9115 2.44105 12.0656 2.5902 12.228C2.74266 12.3937 2.94815 12.5346 3.20668 12.6506C3.46851 12.7666 3.80492 12.8246 4.21591 12.8246C4.77936 12.8246 5.24503 12.687 5.61293 12.4119C5.98082 12.1402 6.16477 11.706 6.16477 11.1094V9.60795H6.07031C5.98082 9.77036 5.85156 9.95099 5.68253 10.1499C5.51681 10.3487 5.28812 10.5211 4.99645 10.6669C4.70478 10.8127 4.32528 10.8857 3.85795 10.8857C3.25473 10.8857 2.71117 10.7448 2.22727 10.4631C1.74669 10.178 1.36553 9.75876 1.08381 9.20526C0.805398 8.64844 0.666193 7.96401 0.666193 7.15199C0.666193 6.33996 0.803741 5.64394 1.07884 5.06392C1.35724 4.4839 1.7384 4.03977 2.2223 3.73153C2.7062 3.41998 3.25473 3.2642 3.8679 3.2642C4.34186 3.2642 4.72467 3.34375 5.01634 3.50284C5.308 3.65862 5.53504 3.84091 5.69744 4.04972C5.86316 4.25852 5.99077 4.44247 6.08026 4.60156H6.18963V3.36364H7.64631V11.169C7.64631 11.8253 7.49385 12.3639 7.18892 12.7848C6.884 13.2057 6.47135 13.5173 5.95099 13.7195C5.43395 13.9216 4.85062 14.0227 4.20099 14.0227ZM4.18608 9.6527C4.61364 9.6527 4.97491 9.55327 5.26989 9.3544C5.56818 9.15223 5.79356 8.86387 5.94602 8.48935C6.1018 8.11151 6.17969 7.65909 6.17969 7.1321C6.17969 6.61837 6.10346 6.16596 5.95099 5.77486C5.79853 5.38376 5.57481 5.07884 5.27983 4.86009C4.98485 4.63802 4.62027 4.52699 4.18608 4.52699C3.73864 4.52699 3.36577 4.64299 3.06747 4.875C2.76918 5.10369 2.5438 5.41525 2.39134 5.80966C2.24219 6.20407 2.16761 6.64489 2.16761 7.1321C2.16761 7.63258 2.24384 8.07173 2.39631 8.44957C2.54877 8.82741 2.77415 9.1224 3.07244 9.33452C3.37405 9.54664 3.74527 9.6527 4.18608 9.6527ZM9.63991 11V3.36364H11.1264V11H9.63991ZM10.3906 2.18537C10.1321 2.18537 9.91004 2.09919 9.72443 1.92685C9.54214 1.75118 9.45099 1.54238 9.45099 1.30043C9.45099 1.05516 9.54214 0.846354 9.72443 0.674005C9.91004 0.498342 10.1321 0.410511 10.3906 0.410511C10.6491 0.410511 10.8696 0.498342 11.0518 0.674005C11.2375 0.846354 11.3303 1.05516 11.3303 1.30043C11.3303 1.54238 11.2375 1.75118 11.0518 1.92685C10.8696 2.09919 10.6491 2.18537 10.3906 2.18537ZM16.6909 3.36364V4.55682H12.5197V3.36364H16.6909ZM13.6383 1.53409H15.1248V8.75781C15.1248 9.04616 15.1679 9.26326 15.2541 9.40909C15.3403 9.55161 15.4513 9.64938 15.5872 9.70241C15.7264 9.75213 15.8772 9.77699 16.0396 9.77699C16.1589 9.77699 16.2633 9.7687 16.3528 9.75213C16.4423 9.73556 16.5119 9.7223 16.5616 9.71236L16.8301 10.9403C16.7439 10.9735 16.6213 11.0066 16.4622 11.0398C16.3031 11.0762 16.1042 11.0961 15.8656 11.0994C15.4745 11.1061 15.1099 11.0365 14.7718 10.8906C14.4338 10.7448 14.1603 10.5194 13.9515 10.2145C13.7427 9.90956 13.6383 9.52675 13.6383 9.06605V1.53409ZM22.5748 6.05327V7.34091H18.0605V6.05327H22.5748ZM27.7725 11.1541C27.0334 11.1541 26.3971 10.9867 25.8635 10.652C25.3332 10.3139 24.9255 9.84825 24.6404 9.25497C24.3554 8.66169 24.2129 7.98224 24.2129 7.21662C24.2129 6.44105 24.3587 5.75663 24.6504 5.16335C24.9421 4.56676 25.353 4.10109 25.8833 3.76633C26.4136 3.43158 27.0384 3.2642 27.7576 3.2642C28.3377 3.2642 28.8547 3.37192 29.3088 3.58736C29.7628 3.79948 30.1291 4.09777 30.4075 4.48224C30.6892 4.86671 30.8566 5.31581 30.9096 5.82955H29.4629C29.3833 5.47159 29.2011 5.16335 28.916 4.90483C28.6343 4.64631 28.2565 4.51705 27.7825 4.51705C27.3682 4.51705 27.0053 4.62642 26.6937 4.84517C26.3855 5.06061 26.1452 5.36884 25.9728 5.76989C25.8005 6.16761 25.7143 6.63826 25.7143 7.18182C25.7143 7.73864 25.7988 8.21922 25.9679 8.62358C26.1369 9.02794 26.3755 9.34115 26.6838 9.56321C26.9953 9.78527 27.3616 9.89631 27.7825 9.89631C28.0642 9.89631 28.3194 9.84493 28.5481 9.74219C28.7801 9.63613 28.974 9.48532 29.1298 9.28977C29.2889 9.09422 29.3999 8.8589 29.4629 8.58381H30.9096C30.8566 9.07765 30.6958 9.51847 30.4274 9.90625C30.1589 10.294 29.7993 10.599 29.3485 10.821C28.9011 11.0431 28.3758 11.1541 27.7725 11.1541ZM35.7159 11.1541C35 11.1541 34.3752 10.9901 33.8416 10.6619C33.308 10.3338 32.8937 9.87476 32.5987 9.2848C32.3037 8.69484 32.1562 8.00544 32.1562 7.21662C32.1562 6.42448 32.3037 5.73177 32.5987 5.13849C32.8937 4.54522 33.308 4.08452 33.8416 3.75639C34.3752 3.42827 35 3.2642 35.7159 3.2642C36.4318 3.2642 37.0566 3.42827 37.5902 3.75639C38.1238 4.08452 38.5381 4.54522 38.8331 5.13849C39.1281 5.73177 39.2756 6.42448 39.2756 7.21662C39.2756 8.00544 39.1281 8.69484 38.8331 9.2848C38.5381 9.87476 38.1238 10.3338 37.5902 10.6619C37.0566 10.9901 36.4318 11.1541 35.7159 11.1541ZM35.7209 9.90625C36.1849 9.90625 36.5694 9.78362 36.8743 9.53835C37.1792 9.29309 37.4046 8.96662 37.5504 8.55895C37.6996 8.15128 37.7741 7.70218 37.7741 7.21165C37.7741 6.72443 37.6996 6.27699 37.5504 5.86932C37.4046 5.45833 37.1792 5.12855 36.8743 4.87997C36.5694 4.63139 36.1849 4.5071 35.7209 4.5071C35.2536 4.5071 34.8658 4.63139 34.5575 4.87997C34.2526 5.12855 34.0256 5.45833 33.8764 5.86932C33.7306 6.27699 33.6577 6.72443 33.6577 7.21165C33.6577 7.70218 33.7306 8.15128 33.8764 8.55895C34.0256 8.96662 34.2526 9.29309 34.5575 9.53835C34.8658 9.78362 35.2536 9.90625 35.7209 9.90625ZM40.9348 11V3.36364H42.3617V4.60653H42.4561C42.6152 4.18561 42.8754 3.85748 43.2367 3.62216C43.598 3.38352 44.0305 3.2642 44.5343 3.2642C45.0447 3.2642 45.4722 3.38352 45.8169 3.62216C46.165 3.8608 46.4218 4.18892 46.5875 4.60653H46.6671C46.8494 4.19886 47.1394 3.87405 47.5371 3.6321C47.9348 3.38684 48.4088 3.2642 48.959 3.2642C49.6517 3.2642 50.2168 3.4813 50.6543 3.91548C51.0951 4.34967 51.3155 5.00426 51.3155 5.87926V11H49.829V6.01847C49.829 5.50142 49.6882 5.12689 49.4064 4.89489C49.1247 4.66288 48.7883 4.54688 48.3972 4.54688C47.9133 4.54688 47.5371 4.69602 47.2686 4.99432C47.0002 5.2893 46.8659 5.6688 46.8659 6.13281V11H45.3844V5.92401C45.3844 5.50971 45.2551 5.17661 44.9966 4.92472C44.7381 4.67282 44.4017 4.54688 43.9874 4.54688C43.7057 4.54688 43.4455 4.62145 43.2069 4.7706C42.9715 4.91643 42.781 5.12026 42.6351 5.3821C42.4926 5.64394 42.4213 5.94721 42.4213 6.2919V11H40.9348ZM53.3079 11V3.36364H54.7347V4.60653H54.8292C54.9883 4.18561 55.2485 3.85748 55.6097 3.62216C55.971 3.38352 56.4035 3.2642 56.9073 3.2642C57.4177 3.2642 57.8453 3.38352 58.19 3.62216C58.538 3.8608 58.7949 4.18892 58.9606 4.60653H59.0401C59.2224 4.19886 59.5124 3.87405 59.9102 3.6321C60.3079 3.38684 60.7818 3.2642 61.332 3.2642C62.0247 3.2642 62.5898 3.4813 63.0273 3.91548C63.4682 4.34967 63.6886 5.00426 63.6886 5.87926V11H62.2021V6.01847C62.2021 5.50142 62.0612 5.12689 61.7795 4.89489C61.4978 4.66288 61.1613 4.54688 60.7702 4.54688C60.2863 4.54688 59.9102 4.69602 59.6417 4.99432C59.3732 5.2893 59.239 5.6688 59.239 6.13281V11H57.7575V5.92401C57.7575 5.50971 57.6282 5.17661 57.3697 4.92472C57.1112 4.67282 56.7747 4.54688 56.3604 4.54688C56.0787 4.54688 55.8185 4.62145 55.5799 4.7706C55.3446 4.91643 55.154 5.12026 55.0082 5.3821C54.8656 5.64394 54.7944 5.94721 54.7944 6.2919V11H53.3079ZM65.6809 11V3.36364H67.1674V11H65.6809ZM66.4316 2.18537C66.1731 2.18537 65.9511 2.09919 65.7654 1.92685C65.5832 1.75118 65.492 1.54238 65.492 1.30043C65.492 1.05516 65.5832 0.846354 65.7654 0.674005C65.9511 0.498342 66.1731 0.410511 66.4316 0.410511C66.6902 0.410511 66.9106 0.498342 67.0929 0.674005C67.2785 0.846354 67.3713 1.05516 67.3713 1.30043C67.3713 1.54238 67.2785 1.75118 67.0929 1.92685C66.9106 2.09919 66.6902 2.18537 66.4316 2.18537ZM72.7319 3.36364V4.55682H68.5607V3.36364H72.7319ZM69.6793 1.53409H71.1658V8.75781C71.1658 9.04616 71.2089 9.26326 71.2951 9.40909C71.3813 9.55161 71.4923 9.64938 71.6282 9.70241C71.7674 9.75213 71.9182 9.77699 72.0806 9.77699C72.1999 9.77699 72.3043 9.7687 72.3938 9.75213C72.4833 9.73556 72.5529 9.7223 72.6026 9.71236L72.8711 10.9403C72.7849 10.9735 72.6623 11.0066 72.5032 11.0398C72.3441 11.0762 72.1452 11.0961 71.9066 11.0994C71.5155 11.1061 71.1509 11.0365 70.8129 10.8906C70.4748 10.7448 70.2013 10.5194 69.9925 10.2145C69.7837 9.90956 69.6793 9.52675 69.6793 9.06605V1.53409Z" fill="black"/>
</svg>
