<svg width="54" height="12" viewBox="0 0 54 12" fill="none" xmlns="http://www.w3.org/2000/svg">
<path d="M4.21591 11.1541C3.4768 11.1541 2.84044 10.9867 2.30682 10.652C1.77652 10.3139 1.36884 9.84825 1.08381 9.25497C0.798769 8.66169 0.65625 7.98224 0.65625 7.21662C0.65625 6.44105 0.802083 5.75663 1.09375 5.16335C1.38542 4.56676 1.7964 4.10109 2.3267 3.76633C2.85701 3.43158 3.48177 3.2642 4.20099 3.2642C4.78101 3.2642 5.29806 3.37192 5.75213 3.58736C6.2062 3.79948 6.57244 4.09777 6.85085 4.48224C7.13258 4.86671 7.29995 5.31581 7.35298 5.82955H5.90625C5.8267 5.47159 5.64441 5.16335 5.35938 4.90483C5.07765 4.64631 4.69981 4.51705 4.22585 4.51705C3.81155 4.51705 3.44863 4.62642 3.13707 4.84517C2.82884 5.06061 2.58854 5.36884 2.41619 5.76989C2.24384 6.16761 2.15767 6.63826 2.15767 7.18182C2.15767 7.73864 2.24219 8.21922 2.41122 8.62358C2.58026 9.02794 2.81889 9.34115 3.12713 9.56321C3.43868 9.78527 3.80492 9.89631 4.22585 9.89631C4.50758 9.89631 4.76278 9.84493 4.99148 9.74219C5.22349 9.63613 5.41738 9.48532 5.57315 9.28977C5.73224 9.09422 5.84328 8.8589 5.90625 8.58381H7.35298C7.29995 9.07765 7.1392 9.51847 6.87074 9.90625C6.60227 10.294 6.24266 10.599 5.7919 10.821C5.34446 11.0431 4.81913 11.1541 4.21591 11.1541ZM12.1593 11.1541C11.4434 11.1541 10.8186 10.9901 10.285 10.6619C9.75136 10.3338 9.33706 9.87476 9.04208 9.2848C8.7471 8.69484 8.59961 8.00544 8.59961 7.21662C8.59961 6.42448 8.7471 5.73177 9.04208 5.13849C9.33706 4.54522 9.75136 4.08452 10.285 3.75639C10.8186 3.42827 11.4434 3.2642 12.1593 3.2642C12.8752 3.2642 13.4999 3.42827 14.0336 3.75639C14.5672 4.08452 14.9815 4.54522 15.2765 5.13849C15.5714 5.73177 15.7189 6.42448 15.7189 7.21662C15.7189 8.00544 15.5714 8.69484 15.2765 9.2848C14.9815 9.87476 14.5672 10.3338 14.0336 10.6619C13.4999 10.9901 12.8752 11.1541 12.1593 11.1541ZM12.1642 9.90625C12.6283 9.90625 13.0127 9.78362 13.3176 9.53835C13.6226 9.29309 13.848 8.96662 13.9938 8.55895C14.1429 8.15128 14.2175 7.70218 14.2175 7.21165C14.2175 6.72443 14.1429 6.27699 13.9938 5.86932C13.848 5.45833 13.6226 5.12855 13.3176 4.87997C13.0127 4.63139 12.6283 4.5071 12.1642 4.5071C11.6969 4.5071 11.3091 4.63139 11.0009 4.87997C10.696 5.12855 10.4689 5.45833 10.3198 5.86932C10.1739 6.27699 10.101 6.72443 10.101 7.21165C10.101 7.70218 10.1739 8.15128 10.3198 8.55895C10.4689 8.96662 10.696 9.29309 11.0009 9.53835C11.3091 9.78362 11.6969 9.90625 12.1642 9.90625ZM20.2369 11.1491C19.6204 11.1491 19.0702 10.9917 18.5863 10.6768C18.1057 10.3587 17.7279 9.90625 17.4528 9.3196C17.181 8.72964 17.0451 8.02202 17.0451 7.19673C17.0451 6.37145 17.1826 5.66548 17.4577 5.07884C17.7362 4.49219 18.1173 4.04309 18.6012 3.73153C19.0851 3.41998 19.6336 3.2642 20.2468 3.2642C20.7208 3.2642 21.1019 3.34375 21.3903 3.50284C21.6819 3.65862 21.9073 3.84091 22.0664 4.04972C22.2288 4.25852 22.3548 4.44247 22.4442 4.60156H22.5337V0.818182H24.0202V11H22.5685V9.81179H22.4442C22.3548 9.9742 22.2255 10.1598 22.0565 10.3686C21.8907 10.5774 21.6621 10.7597 21.3704 10.9155C21.0787 11.0713 20.7009 11.1491 20.2369 11.1491ZM20.565 9.88139C20.9925 9.88139 21.3538 9.7687 21.6488 9.54332C21.9471 9.31463 22.1725 8.99811 22.3249 8.59375C22.4807 8.18939 22.5586 7.71875 22.5586 7.18182C22.5586 6.65151 22.4824 6.1875 22.3299 5.78977C22.1774 5.39205 21.9537 5.08215 21.6587 4.86009C21.3638 4.63802 20.9992 4.52699 20.565 4.52699C20.1175 4.52699 19.7447 4.64299 19.4464 4.875C19.1481 5.10701 18.9227 5.42353 18.7702 5.82457C18.6211 6.22562 18.5465 6.67803 18.5465 7.18182C18.5465 7.69223 18.6228 8.15128 18.7752 8.55895C18.9277 8.96662 19.1531 9.28977 19.4513 9.52841C19.753 9.76373 20.1242 9.88139 20.565 9.88139ZM29.4331 11.1541C28.6807 11.1541 28.0327 10.9934 27.4892 10.6719C26.9489 10.3471 26.5313 9.89134 26.2363 9.30469C25.9447 8.71473 25.7988 8.02367 25.7988 7.23153C25.7988 6.44934 25.9447 5.75994 26.2363 5.16335C26.5313 4.56676 26.9423 4.10109 27.4693 3.76633C27.9996 3.43158 28.6194 3.2642 29.3287 3.2642C29.7595 3.2642 30.1771 3.33546 30.5815 3.47798C30.9859 3.6205 31.3488 3.84422 31.6703 4.14915C31.9918 4.45407 32.2453 4.85014 32.4309 5.33736C32.6165 5.82126 32.7093 6.40956 32.7093 7.10227V7.62926H26.639V6.51562H31.2527C31.2527 6.12453 31.1731 5.77817 31.014 5.47656C30.8549 5.17164 30.6312 4.93134 30.3429 4.75568C30.0578 4.58002 29.7231 4.49219 29.3386 4.49219C28.921 4.49219 28.5564 4.59493 28.2449 4.80043C27.9366 5.0026 27.698 5.26776 27.5289 5.59588C27.3632 5.92069 27.2804 6.27367 27.2804 6.65483V7.52486C27.2804 8.03527 27.3699 8.46946 27.5488 8.82741C27.7311 9.18537 27.9847 9.45881 28.3095 9.64773C28.6343 9.83333 29.0138 9.92614 29.448 9.92614C29.7297 9.92614 29.9866 9.88636 30.2186 9.80682C30.4506 9.72396 30.6511 9.60133 30.8201 9.43892C30.9892 9.27652 31.1184 9.07599 31.2079 8.83736L32.6149 9.09091C32.5022 9.50521 32.3 9.86813 32.0083 10.1797C31.72 10.4879 31.3571 10.7282 30.9196 10.9006C30.4854 11.0696 29.9899 11.1541 29.4331 11.1541ZM38.858 6.05327V7.34091H34.3438V6.05327H38.858ZM44.364 11.169C43.5785 11.1657 42.9073 10.9586 42.3505 10.5476C41.7937 10.1366 41.3678 9.53835 41.0728 8.75284C40.7778 7.96733 40.6303 7.02107 40.6303 5.91406C40.6303 4.81037 40.7778 3.86742 41.0728 3.08523C41.3711 2.30303 41.7987 1.70644 42.3555 1.29545C42.9156 0.884469 43.5851 0.678977 44.364 0.678977C45.1429 0.678977 45.8107 0.886126 46.3675 1.30043C46.9244 1.71141 47.3503 2.308 47.6452 3.0902C47.9435 3.86908 48.0927 4.81037 48.0927 5.91406C48.0927 7.02438 47.9452 7.9723 47.6502 8.75781C47.3552 9.54001 46.9293 10.1383 46.3725 10.5526C45.8157 10.9635 45.1462 11.169 44.364 11.169ZM44.364 9.84162C45.0534 9.84162 45.592 9.50521 45.9798 8.83239C46.3709 8.15956 46.5664 7.18679 46.5664 5.91406C46.5664 5.06889 46.4769 4.35464 46.2979 3.77131C46.1223 3.18466 45.8687 2.74053 45.5373 2.43892C45.2092 2.134 44.8181 1.98153 44.364 1.98153C43.6779 1.98153 43.1393 2.3196 42.7482 2.99574C42.3571 3.67187 42.1599 4.64465 42.1566 5.91406C42.1566 6.76255 42.2444 7.48011 42.4201 8.06676C42.5991 8.65009 42.8526 9.09257 43.1808 9.39418C43.5089 9.69247 43.9033 9.84162 44.364 9.84162ZM53.7193 0.818182V11H52.1781V2.35938H52.1184L49.6824 3.95028V2.47869L52.2228 0.818182H53.7193Z" fill="black"/>
</svg>
