<svg width="116" height="12" viewBox="0 0 116 12" fill="none" xmlns="http://www.w3.org/2000/svg">
<path d="M4.56392 3.36364V4.55682H0.392756V3.36364H4.56392ZM1.51136 1.53409H2.99787V8.75781C2.99787 9.04616 3.04096 9.26326 3.12713 9.40909C3.21331 9.55161 3.32434 9.64938 3.46023 9.70241C3.59943 9.75213 3.75024 9.77699 3.91264 9.77699C4.03196 9.77699 4.13636 9.7687 4.22585 9.75213C4.31534 9.73556 4.38494 9.7223 4.43466 9.71236L4.70312 10.9403C4.61695 10.9735 4.49432 11.0066 4.33523 11.0398C4.17614 11.0762 3.97727 11.0961 3.73864 11.0994C3.34754 11.1061 2.98295 11.0365 2.64489 10.8906C2.30682 10.7448 2.03338 10.5194 1.82457 10.2145C1.61577 9.90956 1.51136 9.52675 1.51136 9.06605V1.53409ZM9.41744 11.1541C8.66507 11.1541 8.0171 10.9934 7.47354 10.6719C6.9333 10.3471 6.51568 9.89134 6.2207 9.30469C5.92904 8.71473 5.7832 8.02367 5.7832 7.23153C5.7832 6.44934 5.92904 5.75994 6.2207 5.16335C6.51568 4.56676 6.92667 4.10109 7.45366 3.76633C7.98396 3.43158 8.60375 3.2642 9.31303 3.2642C9.7439 3.2642 10.1615 3.33546 10.5659 3.47798C10.9702 3.6205 11.3332 3.84422 11.6547 4.14915C11.9761 4.45407 12.2297 4.85014 12.4153 5.33736C12.6009 5.82126 12.6937 6.40956 12.6937 7.10227V7.62926H6.6234V6.51562H11.237C11.237 6.12453 11.1575 5.77817 10.9984 5.47656C10.8393 5.17164 10.6156 4.93134 10.3272 4.75568C10.0422 4.58002 9.70745 4.49219 9.32298 4.49219C8.90536 4.49219 8.54078 4.59493 8.22923 4.80043C7.92099 5.0026 7.68235 5.26776 7.51332 5.59588C7.3476 5.92069 7.26474 6.27367 7.26474 6.65483V7.52486C7.26474 8.03527 7.35423 8.46946 7.5332 8.82741C7.71549 9.18537 7.96905 9.45881 8.29386 9.64773C8.61867 9.83333 8.99817 9.92614 9.43235 9.92614C9.71407 9.92614 9.97094 9.88636 10.2029 9.80682C10.435 9.72396 10.6355 9.60133 10.8045 9.43892C10.9735 9.27652 11.1028 9.07599 11.1923 8.83736L12.5993 9.09091C12.4866 9.50521 12.2844 9.86813 11.9927 10.1797C11.7044 10.4879 11.3414 10.7282 10.9039 10.9006C10.4698 11.0696 9.97425 11.1541 9.41744 11.1541ZM14.343 11V3.36364H15.7798V4.5767H15.8594C15.9986 4.16572 16.2438 3.84257 16.5952 3.60724C16.9498 3.36861 17.3509 3.24929 17.7983 3.24929C17.8911 3.24929 18.0005 3.2526 18.1264 3.25923C18.2557 3.26586 18.3568 3.27415 18.4297 3.28409V4.70597C18.37 4.68939 18.264 4.67116 18.1115 4.65128C17.959 4.62808 17.8066 4.61648 17.6541 4.61648C17.3028 4.61648 16.9896 4.69105 16.7145 4.8402C16.4427 4.98603 16.2273 5.18987 16.0682 5.4517C15.9091 5.71023 15.8295 6.00521 15.8295 6.33665V11H14.343ZM19.7161 11V3.36364H21.1429V4.60653H21.2374C21.3965 4.18561 21.6567 3.85748 22.0179 3.62216C22.3792 3.38352 22.8117 3.2642 23.3155 3.2642C23.8259 3.2642 24.2535 3.38352 24.5982 3.62216C24.9462 3.8608 25.2031 4.18892 25.3688 4.60653H25.4483C25.6306 4.19886 25.9206 3.87405 26.3184 3.6321C26.7161 3.38684 27.19 3.2642 27.7402 3.2642C28.4329 3.2642 28.998 3.4813 29.4355 3.91548C29.8764 4.34967 30.0968 5.00426 30.0968 5.87926V11H28.6103V6.01847C28.6103 5.50142 28.4694 5.12689 28.1877 4.89489C27.906 4.66288 27.5695 4.54688 27.1784 4.54688C26.6945 4.54688 26.3184 4.69602 26.0499 4.99432C25.7814 5.2893 25.6472 5.6688 25.6472 6.13281V11H24.1657V5.92401C24.1657 5.50971 24.0364 5.17661 23.7779 4.92472C23.5194 4.67282 23.1829 4.54688 22.7686 4.54688C22.4869 4.54688 22.2267 4.62145 21.9881 4.7706C21.7528 4.91643 21.5622 5.12026 21.4164 5.3821C21.2739 5.64394 21.2026 5.94721 21.2026 6.2919V11H19.7161ZM32.0891 11V3.36364H33.5756V11H32.0891ZM32.8398 2.18537C32.5813 2.18537 32.3593 2.09919 32.1737 1.92685C31.9914 1.75118 31.9002 1.54238 31.9002 1.30043C31.9002 1.05516 31.9914 0.846354 32.1737 0.674005C32.3593 0.498342 32.5813 0.410511 32.8398 0.410511C33.0984 0.410511 33.3188 0.498342 33.5011 0.674005C33.6867 0.846354 33.7795 1.05516 33.7795 1.30043C33.7795 1.54238 33.6867 1.75118 33.5011 1.92685C33.3188 2.09919 33.0984 2.18537 32.8398 2.18537ZM37.062 6.46591V11H35.5755V3.36364H37.0023V4.60653H37.0968C37.2724 4.20218 37.5475 3.87737 37.9221 3.6321C38.2999 3.38684 38.7755 3.2642 39.3489 3.2642C39.8693 3.2642 40.325 3.37358 40.7161 3.59233C41.1072 3.80777 41.4105 4.12926 41.6259 4.55682C41.8413 4.98437 41.949 5.51302 41.949 6.14276V11H40.4625V6.32173C40.4625 5.76823 40.3184 5.3357 40.03 5.02415C39.7417 4.70928 39.3456 4.55185 38.8418 4.55185C38.4971 4.55185 38.1905 4.62642 37.9221 4.77557C37.6569 4.92472 37.4464 5.14347 37.2907 5.43182C37.1382 5.71686 37.062 6.06155 37.062 6.46591ZM46.165 11.169C45.681 11.169 45.2435 11.0795 44.8525 10.9006C44.4614 10.7183 44.1515 10.4548 43.9228 10.1101C43.6974 9.76539 43.5847 9.3428 43.5847 8.84233C43.5847 8.41146 43.6676 8.05682 43.8333 7.77841C43.999 7.5 44.2227 7.27959 44.5044 7.11719C44.7862 6.95478 45.101 6.83215 45.449 6.74929C45.7971 6.66643 46.1517 6.60346 46.513 6.56037C46.9703 6.50734 47.3416 6.46425 47.6266 6.43111C47.9116 6.39465 48.1188 6.33665 48.248 6.2571C48.3773 6.17756 48.4419 6.0483 48.4419 5.86932V5.83452C48.4419 5.40033 48.3193 5.06392 48.074 4.82528C47.8321 4.58665 47.4708 4.46733 46.9902 4.46733C46.4898 4.46733 46.0953 4.57836 45.807 4.80043C45.522 5.01918 45.3248 5.26278 45.2154 5.53125L43.8184 5.21307C43.9841 4.74905 44.226 4.37453 44.5442 4.08949C44.8657 3.80114 45.2353 3.59233 45.6529 3.46307C46.0705 3.33049 46.5096 3.2642 46.9703 3.2642C47.2753 3.2642 47.5984 3.30066 47.9398 3.37358C48.2845 3.44318 48.606 3.57244 48.9043 3.76136C49.2059 3.95028 49.4528 4.22041 49.6451 4.57173C49.8373 4.91974 49.9334 5.37216 49.9334 5.92898V11H48.4817V9.95597H48.4221C48.3259 10.1482 48.1818 10.3371 47.9895 10.5227C47.7973 10.7083 47.5504 10.8625 47.2488 10.9851C46.9471 11.1077 46.5859 11.169 46.165 11.169ZM46.4881 9.97585C46.8991 9.97585 47.2504 9.89465 47.5421 9.73224C47.8371 9.56984 48.0608 9.35772 48.2132 9.09588C48.369 8.83073 48.4469 8.54735 48.4469 8.24574V7.26136C48.3939 7.31439 48.2911 7.36411 48.1387 7.41051C47.9895 7.4536 47.8188 7.49171 47.6266 7.52486C47.4344 7.55469 47.2471 7.58286 47.0648 7.60938C46.8825 7.63258 46.7301 7.65246 46.6074 7.66903C46.3191 7.70549 46.0556 7.76681 45.8169 7.85298C45.5816 7.93916 45.3927 8.06345 45.2502 8.22585C45.111 8.38494 45.0414 8.59706 45.0414 8.86222C45.0414 9.23011 45.1773 9.50852 45.449 9.69744C45.7208 9.88305 46.0672 9.97585 46.4881 9.97585ZM53.3999 0.818182V11H51.9134V0.818182H53.3999ZM59.899 6.05327V7.34091H55.3848V6.05327H59.899ZM61.9995 11V0.818182H63.486V4.60156H63.5755C63.6616 4.44247 63.7859 4.25852 63.9483 4.04972C64.1107 3.84091 64.3361 3.65862 64.6245 3.50284C64.9128 3.34375 65.294 3.2642 65.7679 3.2642C66.3844 3.2642 66.9346 3.41998 67.4185 3.73153C67.9024 4.04309 68.2819 4.49219 68.557 5.07884C68.8354 5.66548 68.9746 6.37145 68.9746 7.19673C68.9746 8.02202 68.8371 8.72964 68.562 9.3196C68.2869 9.90625 67.909 10.3587 67.4284 10.6768C66.9479 10.9917 66.3993 11.1491 65.7828 11.1491C65.3188 11.1491 64.9393 11.0713 64.6444 10.9155C64.3527 10.7597 64.124 10.5774 63.9583 10.3686C63.7926 10.1598 63.665 9.9742 63.5755 9.81179H63.4512V11H61.9995ZM63.4561 7.18182C63.4561 7.71875 63.534 8.18939 63.6898 8.59375C63.8456 8.99811 64.071 9.31463 64.3659 9.54332C64.6609 9.7687 65.0222 9.88139 65.4498 9.88139C65.8939 9.88139 66.2651 9.76373 66.5634 9.52841C66.8617 9.28977 67.0871 8.96662 67.2395 8.55895C67.3953 8.15128 67.4732 7.69223 67.4732 7.18182C67.4732 6.67803 67.397 6.22562 67.2445 5.82457C67.0953 5.42353 66.87 5.10701 66.5684 4.875C66.2701 4.64299 65.8972 4.52699 65.4498 4.52699C65.0189 4.52699 64.6543 4.63802 64.356 4.86009C64.061 5.08215 63.8373 5.39205 63.6848 5.78977C63.5324 6.1875 63.4561 6.65151 63.4561 7.18182ZM70.6438 11V3.36364H72.0806V4.5767H72.1602C72.2994 4.16572 72.5446 3.84257 72.896 3.60724C73.2506 3.36861 73.6516 3.24929 74.0991 3.24929C74.1919 3.24929 74.3013 3.2526 74.4272 3.25923C74.5565 3.26586 74.6576 3.27415 74.7305 3.28409V4.70597C74.6708 4.68939 74.5647 4.67116 74.4123 4.65128C74.2598 4.62808 74.1074 4.61648 73.9549 4.61648C73.6036 4.61648 73.2904 4.69105 73.0153 4.8402C72.7435 4.98603 72.5281 5.18987 72.369 5.4517C72.2099 5.71023 72.1303 6.00521 72.1303 6.33665V11H70.6438ZM78.96 11.1541C78.2441 11.1541 77.6194 10.9901 77.0858 10.6619C76.5521 10.3338 76.1378 9.87476 75.8429 9.2848C75.5479 8.69484 75.4004 8.00544 75.4004 7.21662C75.4004 6.42448 75.5479 5.73177 75.8429 5.13849C76.1378 4.54522 76.5521 4.08452 77.0858 3.75639C77.6194 3.42827 78.2441 3.2642 78.96 3.2642C79.676 3.2642 80.3007 3.42827 80.8343 3.75639C81.368 4.08452 81.7823 4.54522 82.0772 5.13849C82.3722 5.73177 82.5197 6.42448 82.5197 7.21662C82.5197 8.00544 82.3722 8.69484 82.0772 9.2848C81.7823 9.87476 81.368 10.3338 80.8343 10.6619C80.3007 10.9901 79.676 11.1541 78.96 11.1541ZM78.965 9.90625C79.429 9.90625 79.8135 9.78362 80.1184 9.53835C80.4234 9.29309 80.6487 8.96662 80.7946 8.55895C80.9437 8.15128 81.0183 7.70218 81.0183 7.21165C81.0183 6.72443 80.9437 6.27699 80.7946 5.86932C80.6487 5.45833 80.4234 5.12855 80.1184 4.87997C79.8135 4.63139 79.429 4.5071 78.965 4.5071C78.4977 4.5071 78.1099 4.63139 77.8017 4.87997C77.4967 5.12855 77.2697 5.45833 77.1206 5.86932C76.9747 6.27699 76.9018 6.72443 76.9018 7.21165C76.9018 7.70218 76.9747 8.15128 77.1206 8.55895C77.2697 8.96662 77.4967 9.29309 77.8017 9.53835C78.1099 9.78362 78.4977 9.90625 78.965 9.90625ZM85.6021 11L83.3549 3.36364H84.8912L86.3876 8.97159H86.4622L87.9636 3.36364H89.4998L90.9913 8.94673H91.0659L92.5524 3.36364H94.0886L91.8464 11H90.3301L88.7789 5.48651H88.6646L87.1135 11H85.6021ZM101.222 5.22798L99.8743 5.46662C99.8179 5.29427 99.7285 5.13021 99.6058 4.97443C99.4865 4.81865 99.3241 4.69105 99.1186 4.59162C98.9131 4.49219 98.6563 4.44247 98.348 4.44247C97.9271 4.44247 97.5758 4.53693 97.294 4.72585C97.0123 4.91146 96.8714 5.15175 96.8714 5.44673C96.8714 5.70194 96.9659 5.90743 97.1548 6.06321C97.3438 6.21899 97.6487 6.34659 98.0696 6.44602L99.2827 6.72443C99.9853 6.88684 100.509 7.13707 100.854 7.47514C101.198 7.81321 101.371 8.25237 101.371 8.79261C101.371 9.25 101.238 9.65767 100.973 10.0156C100.711 10.3703 100.345 10.6487 99.8743 10.8509C99.407 11.053 98.8651 11.1541 98.2486 11.1541C97.3935 11.1541 96.6958 10.9718 96.1555 10.6072C95.6153 10.2393 95.2839 9.71733 95.1612 9.04119L96.598 8.82244C96.6875 9.19697 96.8714 9.48035 97.1499 9.67259C97.4283 9.86151 97.7912 9.95597 98.2386 9.95597C98.7259 9.95597 99.1153 9.85488 99.407 9.6527C99.6986 9.44721 99.8445 9.19697 99.8445 8.90199C99.8445 8.66335 99.755 8.46283 99.576 8.30043C99.4003 8.13802 99.1302 8.01539 98.7656 7.93253L97.473 7.64915C96.7604 7.48674 96.2334 7.22822 95.892 6.87358C95.554 6.51894 95.3849 6.06984 95.3849 5.52628C95.3849 5.07552 95.5109 4.68111 95.7628 4.34304C96.0147 4.00497 96.3627 3.74148 96.8068 3.55256C97.2509 3.36032 97.7597 3.2642 98.3331 3.2642C99.1584 3.2642 99.808 3.44318 100.282 3.80114C100.756 4.15578 101.069 4.63139 101.222 5.22798ZM106.296 11.1541C105.544 11.1541 104.896 10.9934 104.352 10.6719C103.812 10.3471 103.395 9.89134 103.1 9.30469C102.808 8.71473 102.662 8.02367 102.662 7.23153C102.662 6.44934 102.808 5.75994 103.1 5.16335C103.395 4.56676 103.806 4.10109 104.333 3.76633C104.863 3.43158 105.483 3.2642 106.192 3.2642C106.623 3.2642 107.04 3.33546 107.445 3.47798C107.849 3.6205 108.212 3.84422 108.534 4.14915C108.855 4.45407 109.109 4.85014 109.294 5.33736C109.48 5.82126 109.573 6.40956 109.573 7.10227V7.62926H103.502V6.51562H108.116C108.116 6.12453 108.036 5.77817 107.877 5.47656C107.718 5.17164 107.494 4.93134 107.206 4.75568C106.921 4.58002 106.586 4.49219 106.202 4.49219C105.784 4.49219 105.42 4.59493 105.108 4.80043C104.8 5.0026 104.561 5.26776 104.392 5.59588C104.227 5.92069 104.144 6.27367 104.144 6.65483V7.52486C104.144 8.03527 104.233 8.46946 104.412 8.82741C104.594 9.18537 104.848 9.45881 105.173 9.64773C105.498 9.83333 105.877 9.92614 106.311 9.92614C106.593 9.92614 106.85 9.88636 107.082 9.80682C107.314 9.72396 107.514 9.60133 107.683 9.43892C107.852 9.27652 107.982 9.07599 108.071 8.83736L109.478 9.09091C109.365 9.50521 109.163 9.86813 108.872 10.1797C108.583 10.4879 108.22 10.7282 107.783 10.9006C107.349 11.0696 106.853 11.1541 106.296 11.1541ZM111.222 11V3.36364H112.659V4.5767H112.738C112.877 4.16572 113.123 3.84257 113.474 3.60724C113.829 3.36861 114.23 3.24929 114.677 3.24929C114.77 3.24929 114.879 3.2526 115.005 3.25923C115.135 3.26586 115.236 3.27415 115.309 3.28409V4.70597C115.249 4.68939 115.143 4.67116 114.99 4.65128C114.838 4.62808 114.685 4.61648 114.533 4.61648C114.182 4.61648 113.868 4.69105 113.593 4.8402C113.322 4.98603 113.106 5.18987 112.947 5.4517C112.788 5.71023 112.708 6.00521 112.708 6.33665V11H111.222Z" fill="black"/>
</svg>
