<svg width="53" height="12" viewBox="0 0 53 12" fill="none" xmlns="http://www.w3.org/2000/svg">
<path d="M7.53196 3.36364L4.76278 11H3.17188L0.397727 3.36364H1.99361L3.92756 9.24006H4.0071L5.93608 3.36364H7.53196ZM10.9325 11.169C10.4486 11.169 10.0111 11.0795 9.62003 10.9006C9.22893 10.7183 8.91903 10.4548 8.69034 10.1101C8.46496 9.76539 8.35227 9.3428 8.35227 8.84233C8.35227 8.41146 8.43513 8.05682 8.60085 7.77841C8.76657 7.5 8.99029 7.27959 9.27202 7.11719C9.55374 6.95478 9.86861 6.83215 10.2166 6.74929C10.5646 6.66643 10.9193 6.60346 11.2805 6.56037C11.7379 6.50734 12.1091 6.46425 12.3942 6.43111C12.6792 6.39465 12.8864 6.33665 13.0156 6.2571C13.1449 6.17756 13.2095 6.0483 13.2095 5.86932V5.83452C13.2095 5.40033 13.0869 5.06392 12.8416 4.82528C12.5997 4.58665 12.2384 4.46733 11.7578 4.46733C11.2573 4.46733 10.8629 4.57836 10.5746 4.80043C10.2895 5.01918 10.0923 5.26278 9.98295 5.53125L8.58594 5.21307C8.75166 4.74905 8.99361 4.37453 9.31179 4.08949C9.63329 3.80114 10.0028 3.59233 10.4205 3.46307C10.8381 3.33049 11.2772 3.2642 11.7379 3.2642C12.0429 3.2642 12.366 3.30066 12.7074 3.37358C13.0521 3.44318 13.3736 3.57244 13.6719 3.76136C13.9735 3.95028 14.2204 4.22041 14.4126 4.57173C14.6049 4.91974 14.701 5.37216 14.701 5.92898V11H13.2493V9.95597H13.1896C13.0935 10.1482 12.9493 10.3371 12.7571 10.5227C12.5649 10.7083 12.3179 10.8625 12.0163 10.9851C11.7147 11.1077 11.3535 11.169 10.9325 11.169ZM11.2557 9.97585C11.6667 9.97585 12.018 9.89465 12.3097 9.73224C12.6046 9.56984 12.8284 9.35772 12.9808 9.09588C13.1366 8.83073 13.2145 8.54735 13.2145 8.24574V7.26136C13.1615 7.31439 13.0587 7.36411 12.9062 7.41051C12.7571 7.4536 12.5864 7.49171 12.3942 7.52486C12.2019 7.55469 12.0147 7.58286 11.8324 7.60938C11.6501 7.63258 11.4976 7.65246 11.375 7.66903C11.0866 7.70549 10.8232 7.76681 10.5845 7.85298C10.3492 7.93916 10.1603 8.06345 10.0178 8.22585C9.87855 8.38494 9.80895 8.59706 9.80895 8.86222C9.80895 9.23011 9.94484 9.50852 10.2166 9.69744C10.4884 9.88305 10.8348 9.97585 11.2557 9.97585ZM16.6809 11V3.36364H18.1177V4.5767H18.1973C18.3365 4.16572 18.5817 3.84257 18.9331 3.60724C19.2877 3.36861 19.6887 3.24929 20.1362 3.24929C20.229 3.24929 20.3384 3.2526 20.4643 3.25923C20.5936 3.26586 20.6947 3.27415 20.7676 3.28409V4.70597C20.7079 4.68939 20.6019 4.67116 20.4494 4.65128C20.2969 4.62808 20.1445 4.61648 19.992 4.61648C19.6407 4.61648 19.3275 4.69105 19.0524 4.8402C18.7806 4.98603 18.5652 5.18987 18.4061 5.4517C18.247 5.71023 18.1674 6.00521 18.1674 6.33665V11H16.6809ZM22.054 11V3.36364H23.5405V11H22.054ZM22.8047 2.18537C22.5462 2.18537 22.3241 2.09919 22.1385 1.92685C21.9562 1.75118 21.8651 1.54238 21.8651 1.30043C21.8651 1.05516 21.9562 0.846354 22.1385 0.674005C22.3241 0.498342 22.5462 0.410511 22.8047 0.410511C23.0632 0.410511 23.2836 0.498342 23.4659 0.674005C23.6515 0.846354 23.7443 1.05516 23.7443 1.30043C23.7443 1.54238 23.6515 1.75118 23.4659 1.92685C23.2836 2.09919 23.0632 2.18537 22.8047 2.18537ZM27.7626 11.169C27.2787 11.169 26.8412 11.0795 26.4501 10.9006C26.059 10.7183 25.7491 10.4548 25.5204 10.1101C25.295 9.76539 25.1824 9.3428 25.1824 8.84233C25.1824 8.41146 25.2652 8.05682 25.4309 7.77841C25.5967 7.5 25.8204 7.27959 26.1021 7.11719C26.3838 6.95478 26.6987 6.83215 27.0467 6.74929C27.3947 6.66643 27.7493 6.60346 28.1106 6.56037C28.568 6.50734 28.9392 6.46425 29.2243 6.43111C29.5093 6.39465 29.7164 6.33665 29.8457 6.2571C29.975 6.17756 30.0396 6.0483 30.0396 5.86932V5.83452C30.0396 5.40033 29.917 5.06392 29.6717 4.82528C29.4297 4.58665 29.0685 4.46733 28.5879 4.46733C28.0874 4.46733 27.693 4.57836 27.4047 4.80043C27.1196 5.01918 26.9224 5.26278 26.813 5.53125L25.416 5.21307C25.5817 4.74905 25.8237 4.37453 26.1419 4.08949C26.4634 3.80114 26.8329 3.59233 27.2505 3.46307C27.6681 3.33049 28.1073 3.2642 28.568 3.2642C28.8729 3.2642 29.1961 3.30066 29.5375 3.37358C29.8822 3.44318 30.2037 3.57244 30.502 3.76136C30.8036 3.95028 31.0505 4.22041 31.2427 4.57173C31.435 4.91974 31.5311 5.37216 31.5311 5.92898V11H30.0794V9.95597H30.0197C29.9236 10.1482 29.7794 10.3371 29.5872 10.5227C29.3949 10.7083 29.148 10.8625 28.8464 10.9851C28.5448 11.1077 28.1835 11.169 27.7626 11.169ZM28.0858 9.97585C28.4967 9.97585 28.8481 9.89465 29.1397 9.73224C29.4347 9.56984 29.6584 9.35772 29.8109 9.09588C29.9667 8.83073 30.0446 8.54735 30.0446 8.24574V7.26136C29.9915 7.31439 29.8888 7.36411 29.7363 7.41051C29.5872 7.4536 29.4165 7.49171 29.2243 7.52486C29.032 7.55469 28.8448 7.58286 28.6625 7.60938C28.4802 7.63258 28.3277 7.65246 28.2051 7.66903C27.9167 7.70549 27.6532 7.76681 27.4146 7.85298C27.1793 7.93916 26.9904 8.06345 26.8478 8.22585C26.7086 8.38494 26.639 8.59706 26.639 8.86222C26.639 9.23011 26.7749 9.50852 27.0467 9.69744C27.3185 9.88305 27.6648 9.97585 28.0858 9.97585ZM33.6303 11V0.818182H35.1168V4.60156H35.2063C35.2925 4.44247 35.4168 4.25852 35.5792 4.04972C35.7416 3.84091 35.967 3.65862 36.2553 3.50284C36.5437 3.34375 36.9248 3.2642 37.3988 3.2642C38.0153 3.2642 38.5655 3.41998 39.0494 3.73153C39.5333 4.04309 39.9128 4.49219 40.1879 5.07884C40.4663 5.66548 40.6055 6.37145 40.6055 7.19673C40.6055 8.02202 40.4679 8.72964 40.1928 9.3196C39.9177 9.90625 39.5399 10.3587 39.0593 10.6768C38.5787 10.9917 38.0302 11.1491 37.4137 11.1491C36.9497 11.1491 36.5702 11.0713 36.2752 10.9155C35.9835 10.7597 35.7549 10.5774 35.5891 10.3686C35.4234 10.1598 35.2958 9.9742 35.2063 9.81179H35.082V11H33.6303ZM35.087 7.18182C35.087 7.71875 35.1649 8.18939 35.3207 8.59375C35.4764 8.99811 35.7018 9.31463 35.9968 9.54332C36.2918 9.7687 36.6531 9.88139 37.0806 9.88139C37.5247 9.88139 37.896 9.76373 38.1942 9.52841C38.4925 9.28977 38.7179 8.96662 38.8704 8.55895C39.0262 8.15128 39.104 7.69223 39.104 7.18182C39.104 6.67803 39.0278 6.22562 38.8754 5.82457C38.7262 5.42353 38.5008 5.10701 38.1992 4.875C37.9009 4.64299 37.5281 4.52699 37.0806 4.52699C36.6497 4.52699 36.2852 4.63802 35.9869 4.86009C35.6919 5.08215 35.4682 5.39205 35.3157 5.78977C35.1632 6.1875 35.087 6.65151 35.087 7.18182ZM43.7612 0.818182V11H42.2747V0.818182H43.7612ZM49.0522 11.1541C48.2998 11.1541 47.6519 10.9934 47.1083 10.6719C46.5681 10.3471 46.1504 9.89134 45.8555 9.30469C45.5638 8.71473 45.418 8.02367 45.418 7.23153C45.418 6.44934 45.5638 5.75994 45.8555 5.16335C46.1504 4.56676 46.5614 4.10109 47.0884 3.76633C47.6187 3.43158 48.2385 3.2642 48.9478 3.2642C49.3787 3.2642 49.7963 3.33546 50.2006 3.47798C50.605 3.6205 50.9679 3.84422 51.2894 4.14915C51.6109 4.45407 51.8645 4.85014 52.0501 5.33736C52.2357 5.82126 52.3285 6.40956 52.3285 7.10227V7.62926H46.2582V6.51562H50.8718C50.8718 6.12453 50.7923 5.77817 50.6332 5.47656C50.4741 5.17164 50.2504 4.93134 49.962 4.75568C49.677 4.58002 49.3422 4.49219 48.9577 4.49219C48.5401 4.49219 48.1755 4.59493 47.864 4.80043C47.5558 5.0026 47.3171 5.26776 47.1481 5.59588C46.9824 5.92069 46.8995 6.27367 46.8995 6.65483V7.52486C46.8995 8.03527 46.989 8.46946 47.168 8.82741C47.3503 9.18537 47.6038 9.45881 47.9286 9.64773C48.2534 9.83333 48.6329 9.92614 49.0671 9.92614C49.3488 9.92614 49.6057 9.88636 49.8377 9.80682C50.0697 9.72396 50.2702 9.60133 50.4393 9.43892C50.6083 9.27652 50.7376 9.07599 50.8271 8.83736L52.234 9.09091C52.1213 9.50521 51.9192 9.86813 51.6275 10.1797C51.3391 10.4879 50.9762 10.7282 50.5387 10.9006C50.1045 11.0696 49.609 11.1541 49.0522 11.1541Z" fill="black"/>
</svg>
