<svg width="29" height="12" viewBox="0 0 29 12" fill="none" xmlns="http://www.w3.org/2000/svg">
<path d="M3.85795 11.1491C3.24148 11.1491 2.69129 10.9917 2.20739 10.6768C1.7268 10.3587 1.34896 9.90625 1.07386 9.3196C0.802083 8.72964 0.666193 8.02202 0.666193 7.19673C0.666193 6.37145 0.803741 5.66548 1.07884 5.07884C1.35724 4.49219 1.7384 4.04309 2.2223 3.73153C2.7062 3.41998 3.25473 3.2642 3.8679 3.2642C4.34186 3.2642 4.72301 3.34375 5.01136 3.50284C5.30303 3.65862 5.52841 3.84091 5.6875 4.04972C5.84991 4.25852 5.97585 4.44247 6.06534 4.60156H6.15483V0.818182H7.64134V11H6.18963V9.81179H6.06534C5.97585 9.9742 5.84659 10.1598 5.67756 10.3686C5.51184 10.5774 5.28314 10.7597 4.99148 10.9155C4.69981 11.0713 4.32197 11.1491 3.85795 11.1491ZM4.18608 9.88139C4.61364 9.88139 4.97491 9.7687 5.26989 9.54332C5.56818 9.31463 5.79356 8.99811 5.94602 8.59375C6.1018 8.18939 6.17969 7.71875 6.17969 7.18182C6.17969 6.65151 6.10346 6.1875 5.95099 5.78977C5.79853 5.39205 5.57481 5.08215 5.27983 4.86009C4.98485 4.63802 4.62027 4.52699 4.18608 4.52699C3.73864 4.52699 3.36577 4.64299 3.06747 4.875C2.76918 5.10701 2.5438 5.42353 2.39134 5.82457C2.24219 6.22562 2.16761 6.67803 2.16761 7.18182C2.16761 7.69223 2.24384 8.15128 2.39631 8.55895C2.54877 8.96662 2.77415 9.28977 3.07244 9.52841C3.37405 9.76373 3.74527 9.88139 4.18608 9.88139ZM11.9853 11.169C11.5014 11.169 11.0639 11.0795 10.6728 10.9006C10.2817 10.7183 9.97177 10.4548 9.74308 10.1101C9.5177 9.76539 9.40501 9.3428 9.40501 8.84233C9.40501 8.41146 9.48787 8.05682 9.65359 7.77841C9.81931 7.5 10.043 7.27959 10.3248 7.11719C10.6065 6.95478 10.9213 6.83215 11.2694 6.74929C11.6174 6.66643 11.972 6.60346 12.3333 6.56037C12.7907 6.50734 13.1619 6.46425 13.4469 6.43111C13.7319 6.39465 13.9391 6.33665 14.0684 6.2571C14.1976 6.17756 14.2623 6.0483 14.2623 5.86932V5.83452C14.2623 5.40033 14.1396 5.06392 13.8944 4.82528C13.6524 4.58665 13.2911 4.46733 12.8105 4.46733C12.3101 4.46733 11.9157 4.57836 11.6273 4.80043C11.3423 5.01918 11.1451 5.26278 11.0357 5.53125L9.63867 5.21307C9.80439 4.74905 10.0463 4.37453 10.3645 4.08949C10.686 3.80114 11.0556 3.59233 11.4732 3.46307C11.8908 3.33049 12.33 3.2642 12.7907 3.2642C13.0956 3.2642 13.4187 3.30066 13.7601 3.37358C14.1048 3.44318 14.4263 3.57244 14.7246 3.76136C15.0262 3.95028 15.2731 4.22041 15.4654 4.57173C15.6576 4.91974 15.7537 5.37216 15.7537 5.92898V11H14.302V9.95597H14.2424C14.1462 10.1482 14.0021 10.3371 13.8098 10.5227C13.6176 10.7083 13.3707 10.8625 13.0691 10.9851C12.7675 11.1077 12.4062 11.169 11.9853 11.169ZM12.3084 9.97585C12.7194 9.97585 13.0707 9.89465 13.3624 9.73224C13.6574 9.56984 13.8811 9.35772 14.0336 9.09588C14.1893 8.83073 14.2672 8.54735 14.2672 8.24574V7.26136C14.2142 7.31439 14.1114 7.36411 13.959 7.41051C13.8098 7.4536 13.6391 7.49171 13.4469 7.52486C13.2547 7.55469 13.0674 7.58286 12.8851 7.60938C12.7028 7.63258 12.5504 7.65246 12.4277 7.66903C12.1394 7.70549 11.8759 7.76681 11.6373 7.85298C11.4019 7.93916 11.213 8.06345 11.0705 8.22585C10.9313 8.38494 10.8617 8.59706 10.8617 8.86222C10.8617 9.23011 10.9976 9.50852 11.2694 9.69744C11.5411 9.88305 11.8875 9.97585 12.3084 9.97585ZM21.2983 3.36364V4.55682H17.1271V3.36364H21.2983ZM18.2457 1.53409H19.7322V8.75781C19.7322 9.04616 19.7753 9.26326 19.8615 9.40909C19.9477 9.55161 20.0587 9.64938 20.1946 9.70241C20.3338 9.75213 20.4846 9.77699 20.647 9.77699C20.7663 9.77699 20.8707 9.7687 20.9602 9.75213C21.0497 9.73556 21.1193 9.7223 21.169 9.71236L21.4375 10.9403C21.3513 10.9735 21.2287 11.0066 21.0696 11.0398C20.9105 11.0762 20.7116 11.0961 20.473 11.0994C20.0819 11.1061 19.7173 11.0365 19.3793 10.8906C19.0412 10.7448 18.7678 10.5194 18.5589 10.2145C18.3501 9.90956 18.2457 9.52675 18.2457 9.06605V1.53409ZM25.165 11.169C24.681 11.169 24.2435 11.0795 23.8525 10.9006C23.4614 10.7183 23.1515 10.4548 22.9228 10.1101C22.6974 9.76539 22.5847 9.3428 22.5847 8.84233C22.5847 8.41146 22.6676 8.05682 22.8333 7.77841C22.999 7.5 23.2227 7.27959 23.5044 7.11719C23.7862 6.95478 24.101 6.83215 24.449 6.74929C24.7971 6.66643 25.1517 6.60346 25.513 6.56037C25.9703 6.50734 26.3416 6.46425 26.6266 6.43111C26.9116 6.39465 27.1188 6.33665 27.248 6.2571C27.3773 6.17756 27.4419 6.0483 27.4419 5.86932V5.83452C27.4419 5.40033 27.3193 5.06392 27.074 4.82528C26.8321 4.58665 26.4708 4.46733 25.9902 4.46733C25.4898 4.46733 25.0953 4.57836 24.807 4.80043C24.522 5.01918 24.3248 5.26278 24.2154 5.53125L22.8184 5.21307C22.9841 4.74905 23.226 4.37453 23.5442 4.08949C23.8657 3.80114 24.2353 3.59233 24.6529 3.46307C25.0705 3.33049 25.5096 3.2642 25.9703 3.2642C26.2753 3.2642 26.5984 3.30066 26.9398 3.37358C27.2845 3.44318 27.606 3.57244 27.9043 3.76136C28.2059 3.95028 28.4528 4.22041 28.6451 4.57173C28.8373 4.91974 28.9334 5.37216 28.9334 5.92898V11H27.4817V9.95597H27.4221C27.3259 10.1482 27.1818 10.3371 26.9895 10.5227C26.7973 10.7083 26.5504 10.8625 26.2488 10.9851C25.9471 11.1077 25.5859 11.169 25.165 11.169ZM25.4881 9.97585C25.8991 9.97585 26.2504 9.89465 26.5421 9.73224C26.8371 9.56984 27.0608 9.35772 27.2132 9.09588C27.369 8.83073 27.4469 8.54735 27.4469 8.24574V7.26136C27.3939 7.31439 27.2911 7.36411 27.1387 7.41051C26.9895 7.4536 26.8188 7.49171 26.6266 7.52486C26.4344 7.55469 26.2471 7.58286 26.0648 7.60938C25.8825 7.63258 25.7301 7.65246 25.6074 7.66903C25.3191 7.70549 25.0556 7.76681 24.8169 7.85298C24.5816 7.93916 24.3927 8.06345 24.2502 8.22585C24.111 8.38494 24.0414 8.59706 24.0414 8.86222C24.0414 9.23011 24.1773 9.50852 24.449 9.69744C24.7208 9.88305 25.0672 9.97585 25.4881 9.97585Z" fill="black"/>
</svg>
