<svg width="114" height="14" viewBox="0 0 114 14" fill="none" xmlns="http://www.w3.org/2000/svg">
<path d="M0.118608 11V0.818182H1.60511V4.60156H1.6946C1.78078 4.44247 1.90507 4.25852 2.06747 4.04972C2.22988 3.84091 2.45526 3.65862 2.74361 3.50284C3.03196 3.34375 3.41312 3.2642 3.88707 3.2642C4.50355 3.2642 5.05374 3.41998 5.53764 3.73153C6.02154 4.04309 6.40104 4.49219 6.67614 5.07884C6.95455 5.66548 7.09375 6.37145 7.09375 7.19673C7.09375 8.02202 6.9562 8.72964 6.68111 9.3196C6.40601 9.90625 6.02817 10.3587 5.54759 10.6768C5.067 10.9917 4.51847 11.1491 3.90199 11.1491C3.43797 11.1491 3.05848 11.0713 2.76349 10.9155C2.47183 10.7597 2.24313 10.5774 2.07741 10.3686C1.9117 10.1598 1.78409 9.9742 1.6946 9.81179H1.57031V11H0.118608ZM1.57528 7.18182C1.57528 7.71875 1.65317 8.18939 1.80895 8.59375C1.96473 8.99811 2.1901 9.31463 2.48509 9.54332C2.78007 9.7687 3.14134 9.88139 3.56889 9.88139C4.01302 9.88139 4.38423 9.76373 4.68253 9.52841C4.98082 9.28977 5.2062 8.96662 5.35866 8.55895C5.51444 8.15128 5.59233 7.69223 5.59233 7.18182C5.59233 6.67803 5.5161 6.22562 5.36364 5.82457C5.21449 5.42353 4.98911 5.10701 4.6875 4.875C4.3892 4.64299 4.01634 4.52699 3.56889 4.52699C3.13802 4.52699 2.77344 4.63802 2.47514 4.86009C2.18016 5.08215 1.95644 5.39205 1.80398 5.78977C1.65152 6.1875 1.57528 6.65151 1.57528 7.18182ZM8.76296 11V3.36364H10.1998V4.5767H10.2793C10.4185 4.16572 10.6638 3.84257 11.0151 3.60724C11.3697 3.36861 11.7708 3.24929 12.2182 3.24929C12.311 3.24929 12.4204 3.2526 12.5463 3.25923C12.6756 3.26586 12.7767 3.27415 12.8496 3.28409V4.70597C12.79 4.68939 12.6839 4.67116 12.5314 4.65128C12.379 4.62808 12.2265 4.61648 12.074 4.61648C11.7227 4.61648 11.4095 4.69105 11.1344 4.8402C10.8626 4.98603 10.6472 5.18987 10.4881 5.4517C10.329 5.71023 10.2495 6.00521 10.2495 6.33665V11H8.76296ZM16.29 11.169C15.806 11.169 15.3685 11.0795 14.9775 10.9006C14.5864 10.7183 14.2765 10.4548 14.0478 10.1101C13.8224 9.76539 13.7097 9.3428 13.7097 8.84233C13.7097 8.41146 13.7926 8.05682 13.9583 7.77841C14.124 7.5 14.3477 7.27959 14.6294 7.11719C14.9112 6.95478 15.226 6.83215 15.574 6.74929C15.9221 6.66643 16.2767 6.60346 16.638 6.56037C17.0953 6.50734 17.4666 6.46425 17.7516 6.43111C18.0366 6.39465 18.2438 6.33665 18.373 6.2571C18.5023 6.17756 18.5669 6.0483 18.5669 5.86932V5.83452C18.5669 5.40033 18.4443 5.06392 18.199 4.82528C17.9571 4.58665 17.5958 4.46733 17.1152 4.46733C16.6148 4.46733 16.2203 4.57836 15.932 4.80043C15.647 5.01918 15.4498 5.26278 15.3404 5.53125L13.9434 5.21307C14.1091 4.74905 14.351 4.37453 14.6692 4.08949C14.9907 3.80114 15.3603 3.59233 15.7779 3.46307C16.1955 3.33049 16.6346 3.2642 17.0953 3.2642C17.4003 3.2642 17.7234 3.30066 18.0648 3.37358C18.4095 3.44318 18.731 3.57244 19.0293 3.76136C19.3309 3.95028 19.5778 4.22041 19.7701 4.57173C19.9623 4.91974 20.0584 5.37216 20.0584 5.92898V11H18.6067V9.95597H18.5471C18.4509 10.1482 18.3068 10.3371 18.1145 10.5227C17.9223 10.7083 17.6754 10.8625 17.3738 10.9851C17.0721 11.1077 16.7109 11.169 16.29 11.169ZM16.6131 9.97585C17.0241 9.97585 17.3754 9.89465 17.6671 9.73224C17.9621 9.56984 18.1858 9.35772 18.3382 9.09588C18.494 8.83073 18.5719 8.54735 18.5719 8.24574V7.26136C18.5189 7.31439 18.4161 7.36411 18.2637 7.41051C18.1145 7.4536 17.9438 7.49171 17.7516 7.52486C17.5594 7.55469 17.3721 7.58286 17.1898 7.60938C17.0075 7.63258 16.8551 7.65246 16.7324 7.66903C16.4441 7.70549 16.1806 7.76681 15.9419 7.85298C15.7066 7.93916 15.5177 8.06345 15.3752 8.22585C15.236 8.38494 15.1664 8.59706 15.1664 8.86222C15.1664 9.23011 15.3023 9.50852 15.574 9.69744C15.8458 9.88305 16.1922 9.97585 16.6131 9.97585ZM25.255 11.1541C24.5159 11.1541 23.8795 10.9867 23.3459 10.652C22.8156 10.3139 22.4079 9.84825 22.1229 9.25497C21.8378 8.66169 21.6953 7.98224 21.6953 7.21662C21.6953 6.44105 21.8411 5.75663 22.1328 5.16335C22.4245 4.56676 22.8355 4.10109 23.3658 3.76633C23.8961 3.43158 24.5208 3.2642 25.2401 3.2642C25.8201 3.2642 26.3371 3.37192 26.7912 3.58736C27.2453 3.79948 27.6115 4.09777 27.8899 4.48224C28.1716 4.86671 28.339 5.31581 28.392 5.82955H26.9453C26.8658 5.47159 26.6835 5.16335 26.3984 4.90483C26.1167 4.64631 25.7389 4.51705 25.2649 4.51705C24.8506 4.51705 24.4877 4.62642 24.1761 4.84517C23.8679 5.06061 23.6276 5.36884 23.4553 5.76989C23.2829 6.16761 23.1967 6.63826 23.1967 7.18182C23.1967 7.73864 23.2813 8.21922 23.4503 8.62358C23.6193 9.02794 23.858 9.34115 24.1662 9.56321C24.4777 9.78527 24.844 9.89631 25.2649 9.89631C25.5466 9.89631 25.8018 9.84493 26.0305 9.74219C26.2625 9.63613 26.4564 9.48532 26.6122 9.28977C26.7713 9.09422 26.8823 8.8589 26.9453 8.58381H28.392C28.339 9.07765 28.1783 9.51847 27.9098 9.90625C27.6413 10.294 27.2817 10.599 26.831 10.821C26.3835 11.0431 25.8582 11.1541 25.255 11.1541ZM31.3489 8.4098L31.339 6.59517H31.5975L34.6401 3.36364H36.4199L32.9498 7.04261H32.7161L31.3489 8.4098ZM29.9817 11V0.818182H31.4682V11H29.9817ZM34.8042 11L32.0698 7.37074L33.0939 6.33168L36.6287 11H34.8042ZM40.7514 11.1541C39.9991 11.1541 39.3511 10.9934 38.8075 10.6719C38.2673 10.3471 37.8497 9.89134 37.5547 9.30469C37.263 8.71473 37.1172 8.02367 37.1172 7.23153C37.1172 6.44934 37.263 5.75994 37.5547 5.16335C37.8497 4.56676 38.2607 4.10109 38.7876 3.76633C39.3179 3.43158 39.9377 3.2642 40.647 3.2642C41.0779 3.2642 41.4955 3.33546 41.8999 3.47798C42.3042 3.6205 42.6671 3.84422 42.9886 4.14915C43.3101 4.45407 43.5637 4.85014 43.7493 5.33736C43.9349 5.82126 44.0277 6.40956 44.0277 7.10227V7.62926H37.9574V6.51562H42.571C42.571 6.12453 42.4915 5.77817 42.3324 5.47656C42.1733 5.17164 41.9496 4.93134 41.6612 4.75568C41.3762 4.58002 41.0414 4.49219 40.657 4.49219C40.2393 4.49219 39.8748 4.59493 39.5632 4.80043C39.255 5.0026 39.0163 5.26776 38.8473 5.59588C38.6816 5.92069 38.5987 6.27367 38.5987 6.65483V7.52486C38.5987 8.03527 38.6882 8.46946 38.8672 8.82741C39.0495 9.18537 39.303 9.45881 39.6278 9.64773C39.9527 9.83333 40.3321 9.92614 40.7663 9.92614C41.0481 9.92614 41.3049 9.88636 41.5369 9.80682C41.7689 9.72396 41.9695 9.60133 42.1385 9.43892C42.3075 9.27652 42.4368 9.07599 42.5263 8.83736L43.9332 9.09091C43.8205 9.50521 43.6184 9.86813 43.3267 10.1797C43.0384 10.4879 42.6754 10.7282 42.2379 10.9006C41.8037 11.0696 41.3082 11.1541 40.7514 11.1541ZM49.2417 3.36364V4.55682H45.0705V3.36364H49.2417ZM46.1891 1.53409H47.6756V8.75781C47.6756 9.04616 47.7187 9.26326 47.8049 9.40909C47.891 9.55161 48.0021 9.64938 48.138 9.70241C48.2772 9.75213 48.428 9.77699 48.5904 9.77699C48.7097 9.77699 48.8141 9.7687 48.9036 9.75213C48.9931 9.73556 49.0627 9.7223 49.1124 9.71236L49.3809 10.9403C49.2947 10.9735 49.1721 11.0066 49.013 11.0398C48.8539 11.0762 48.655 11.0961 48.4164 11.0994C48.0253 11.1061 47.6607 11.0365 47.3226 10.8906C46.9846 10.7448 46.7111 10.5194 46.5023 10.2145C46.2935 9.90956 46.1891 9.52675 46.1891 9.06605V1.53409ZM56.4853 5.22798L55.138 5.46662C55.0816 5.29427 54.9921 5.13021 54.8695 4.97443C54.7502 4.81865 54.5878 4.69105 54.3823 4.59162C54.1768 4.49219 53.9199 4.44247 53.6117 4.44247C53.1908 4.44247 52.8394 4.53693 52.5577 4.72585C52.276 4.91146 52.1351 5.15175 52.1351 5.44673C52.1351 5.70194 52.2296 5.90743 52.4185 6.06321C52.6074 6.21899 52.9123 6.34659 53.3333 6.44602L54.5463 6.72443C55.249 6.88684 55.7727 7.13707 56.1174 7.47514C56.4621 7.81321 56.6344 8.25237 56.6344 8.79261C56.6344 9.25 56.5018 9.65767 56.2367 10.0156C55.9748 10.3703 55.6086 10.6487 55.138 10.8509C54.6706 11.053 54.1287 11.1541 53.5123 11.1541C52.6571 11.1541 51.9595 10.9718 51.4192 10.6072C50.879 10.2393 50.5475 9.71733 50.4249 9.04119L51.8617 8.82244C51.9512 9.19697 52.1351 9.48035 52.4135 9.67259C52.6919 9.86151 53.0549 9.95597 53.5023 9.95597C53.9895 9.95597 54.379 9.85488 54.6706 9.6527C54.9623 9.44721 55.1081 9.19697 55.1081 8.90199C55.1081 8.66335 55.0186 8.46283 54.8397 8.30043C54.664 8.13802 54.3939 8.01539 54.0293 7.93253L52.7367 7.64915C52.0241 7.48674 51.4971 7.22822 51.1557 6.87358C50.8176 6.51894 50.6486 6.06984 50.6486 5.52628C50.6486 5.07552 50.7746 4.68111 51.0265 4.34304C51.2783 4.00497 51.6264 3.74148 52.0705 3.55256C52.5146 3.36032 53.0234 3.2642 53.5968 3.2642C54.4221 3.2642 55.0717 3.44318 55.5456 3.80114C56.0196 4.15578 56.3328 4.63139 56.4853 5.22798ZM62.7681 6.05327V7.34091H58.2539V6.05327H62.7681ZM68.0405 11.1541C67.2881 11.1541 66.6402 10.9934 66.0966 10.6719C65.5563 10.3471 65.1387 9.89134 64.8438 9.30469C64.5521 8.71473 64.4062 8.02367 64.4062 7.23153C64.4062 6.44934 64.5521 5.75994 64.8438 5.16335C65.1387 4.56676 65.5497 4.10109 66.0767 3.76633C66.607 3.43158 67.2268 3.2642 67.9361 3.2642C68.367 3.2642 68.7846 3.33546 69.1889 3.47798C69.5933 3.6205 69.9562 3.84422 70.2777 4.14915C70.5992 4.45407 70.8527 4.85014 71.0384 5.33736C71.224 5.82126 71.3168 6.40956 71.3168 7.10227V7.62926H65.2464V6.51562H69.8601C69.8601 6.12453 69.7805 5.77817 69.6214 5.47656C69.4624 5.17164 69.2386 4.93134 68.9503 4.75568C68.6652 4.58002 68.3305 4.49219 67.946 4.49219C67.5284 4.49219 67.1638 4.59493 66.8523 4.80043C66.544 5.0026 66.3054 5.26776 66.1364 5.59588C65.9706 5.92069 65.8878 6.27367 65.8878 6.65483V7.52486C65.8878 8.03527 65.9773 8.46946 66.1562 8.82741C66.3385 9.18537 66.5921 9.45881 66.9169 9.64773C67.2417 9.83333 67.6212 9.92614 68.0554 9.92614C68.3371 9.92614 68.594 9.88636 68.826 9.80682C69.058 9.72396 69.2585 9.60133 69.4276 9.43892C69.5966 9.27652 69.7259 9.07599 69.8153 8.83736L71.2223 9.09091C71.1096 9.50521 70.9074 9.86813 70.6158 10.1797C70.3274 10.4879 69.9645 10.7282 69.527 10.9006C69.0928 11.0696 68.5973 11.1541 68.0405 11.1541ZM74.4526 0.818182V11H72.9661V0.818182H74.4526ZM77.9389 0.818182V11H76.4524V0.818182H77.9389ZM79.9387 11V3.36364H81.4252V11H79.9387ZM80.6895 2.18537C80.4309 2.18537 80.2089 2.09919 80.0233 1.92685C79.841 1.75118 79.7498 1.54238 79.7498 1.30043C79.7498 1.05516 79.841 0.846354 80.0233 0.674005C80.2089 0.498342 80.4309 0.410511 80.6895 0.410511C80.948 0.410511 81.1684 0.498342 81.3507 0.674005C81.5363 0.846354 81.6291 1.05516 81.6291 1.30043C81.6291 1.54238 81.5363 1.75118 81.3507 1.92685C81.1684 2.09919 80.948 2.18537 80.6895 2.18537ZM83.4251 13.8636V3.36364H84.8768V4.60156H85.0011C85.0872 4.44247 85.2115 4.25852 85.3739 4.04972C85.5363 3.84091 85.7617 3.65862 86.0501 3.50284C86.3384 3.34375 86.7196 3.2642 87.1935 3.2642C87.81 3.2642 88.3602 3.41998 88.8441 3.73153C89.328 4.04309 89.7075 4.49219 89.9826 5.07884C90.261 5.66548 90.4002 6.37145 90.4002 7.19673C90.4002 8.02202 90.2627 8.72964 89.9876 9.3196C89.7125 9.90625 89.3346 10.3587 88.854 10.6768C88.3735 10.9917 87.8249 11.1491 87.2085 11.1491C86.7444 11.1491 86.3649 11.0713 86.07 10.9155C85.7783 10.7597 85.5496 10.5774 85.3839 10.3686C85.2182 10.1598 85.0906 9.9742 85.0011 9.81179H84.9116V13.8636H83.4251ZM84.8817 7.18182C84.8817 7.71875 84.9596 8.18939 85.1154 8.59375C85.2712 8.99811 85.4966 9.31463 85.7915 9.54332C86.0865 9.7687 86.4478 9.88139 86.8754 9.88139C87.3195 9.88139 87.6907 9.76373 87.989 9.52841C88.2873 9.28977 88.5127 8.96662 88.6651 8.55895C88.8209 8.15128 88.8988 7.69223 88.8988 7.18182C88.8988 6.67803 88.8226 6.22562 88.6701 5.82457C88.521 5.42353 88.2956 5.10701 87.994 4.875C87.6957 4.64299 87.3228 4.52699 86.8754 4.52699C86.4445 4.52699 86.0799 4.63802 85.7816 4.86009C85.4866 5.08215 85.2629 5.39205 85.1104 5.78977C84.958 6.1875 84.8817 6.65151 84.8817 7.18182ZM97.788 5.22798L96.4407 5.46662C96.3844 5.29427 96.2949 5.13021 96.1722 4.97443C96.0529 4.81865 95.8905 4.69105 95.685 4.59162C95.4795 4.49219 95.2227 4.44247 94.9144 4.44247C94.4935 4.44247 94.1422 4.53693 93.8604 4.72585C93.5787 4.91146 93.4379 5.15175 93.4379 5.44673C93.4379 5.70194 93.5323 5.90743 93.7212 6.06321C93.9102 6.21899 94.2151 6.34659 94.636 6.44602L95.8491 6.72443C96.5517 6.88684 97.0754 7.13707 97.4201 7.47514C97.7648 7.81321 97.9371 8.25237 97.9371 8.79261C97.9371 9.25 97.8046 9.65767 97.5394 10.0156C97.2776 10.3703 96.9113 10.6487 96.4407 10.8509C95.9734 11.053 95.4315 11.1541 94.815 11.1541C93.9599 11.1541 93.2622 10.9718 92.7219 10.6072C92.1817 10.2393 91.8503 9.71733 91.7276 9.04119L93.1644 8.82244C93.2539 9.19697 93.4379 9.48035 93.7163 9.67259C93.9947 9.86151 94.3576 9.95597 94.805 9.95597C95.2923 9.95597 95.6817 9.85488 95.9734 9.6527C96.265 9.44721 96.4109 9.19697 96.4109 8.90199C96.4109 8.66335 96.3214 8.46283 96.1424 8.30043C95.9667 8.13802 95.6966 8.01539 95.332 7.93253L94.0394 7.64915C93.3268 7.48674 92.7998 7.22822 92.4585 6.87358C92.1204 6.51894 91.9513 6.06984 91.9513 5.52628C91.9513 5.07552 92.0773 4.68111 92.3292 4.34304C92.5811 4.00497 92.9291 3.74148 93.3732 3.55256C93.8174 3.36032 94.3261 3.2642 94.8995 3.2642C95.7248 3.2642 96.3744 3.44318 96.8484 3.80114C97.3223 4.15578 97.6355 4.63139 97.788 5.22798ZM102.863 11.1541C102.11 11.1541 101.462 10.9934 100.919 10.6719C100.379 10.3471 99.961 9.89134 99.666 9.30469C99.3743 8.71473 99.2285 8.02367 99.2285 7.23153C99.2285 6.44934 99.3743 5.75994 99.666 5.16335C99.961 4.56676 100.372 4.10109 100.899 3.76633C101.429 3.43158 102.049 3.2642 102.758 3.2642C103.189 3.2642 103.607 3.33546 104.011 3.47798C104.416 3.6205 104.778 3.84422 105.1 4.14915C105.421 4.45407 105.675 4.85014 105.861 5.33736C106.046 5.82126 106.139 6.40956 106.139 7.10227V7.62926H100.069V6.51562H104.682C104.682 6.12453 104.603 5.77817 104.444 5.47656C104.285 5.17164 104.061 4.93134 103.773 4.75568C103.488 4.58002 103.153 4.49219 102.768 4.49219C102.351 4.49219 101.986 4.59493 101.675 4.80043C101.366 5.0026 101.128 5.26776 100.959 5.59588C100.793 5.92069 100.71 6.27367 100.71 6.65483V7.52486C100.71 8.03527 100.8 8.46946 100.979 8.82741C101.161 9.18537 101.414 9.45881 101.739 9.64773C102.064 9.83333 102.443 9.92614 102.878 9.92614C103.159 9.92614 103.416 9.88636 103.648 9.80682C103.88 9.72396 104.081 9.60133 104.25 9.43892C104.419 9.27652 104.548 9.07599 104.638 8.83736L106.045 9.09091C105.932 9.50521 105.73 9.86813 105.438 10.1797C105.15 10.4879 104.787 10.7282 104.349 10.9006C103.915 11.0696 103.42 11.1541 102.863 11.1541ZM113.511 5.22798L112.163 5.46662C112.107 5.29427 112.018 5.13021 111.895 4.97443C111.776 4.81865 111.613 4.69105 111.408 4.59162C111.202 4.49219 110.945 4.44247 110.637 4.44247C110.216 4.44247 109.865 4.53693 109.583 4.72585C109.301 4.91146 109.161 5.15175 109.161 5.44673C109.161 5.70194 109.255 5.90743 109.444 6.06321C109.633 6.21899 109.938 6.34659 110.359 6.44602L111.572 6.72443C112.274 6.88684 112.798 7.13707 113.143 7.47514C113.487 7.81321 113.66 8.25237 113.66 8.79261C113.66 9.25 113.527 9.65767 113.262 10.0156C113 10.3703 112.634 10.6487 112.163 10.8509C111.696 11.053 111.154 11.1541 110.538 11.1541C109.683 11.1541 108.985 10.9718 108.445 10.6072C107.904 10.2393 107.573 9.71733 107.45 9.04119L108.887 8.82244C108.977 9.19697 109.161 9.48035 109.439 9.67259C109.717 9.86151 110.08 9.95597 110.528 9.95597C111.015 9.95597 111.404 9.85488 111.696 9.6527C111.988 9.44721 112.134 9.19697 112.134 8.90199C112.134 8.66335 112.044 8.46283 111.865 8.30043C111.689 8.13802 111.419 8.01539 111.055 7.93253L109.762 7.64915C109.049 7.48674 108.522 7.22822 108.181 6.87358C107.843 6.51894 107.674 6.06984 107.674 5.52628C107.674 5.07552 107.8 4.68111 108.052 4.34304C108.304 4.00497 108.652 3.74148 109.096 3.55256C109.54 3.36032 110.049 3.2642 110.622 3.2642C111.447 3.2642 112.097 3.44318 112.571 3.80114C113.045 4.15578 113.358 4.63139 113.511 5.22798Z" fill="black"/>
</svg>
