<svg width="54" height="12" viewBox="0 0 54 12" fill="none" xmlns="http://www.w3.org/2000/svg">
<path d="M4.56392 3.36364V4.55682H0.392756V3.36364H4.56392ZM1.51136 1.53409H2.99787V8.75781C2.99787 9.04616 3.04096 9.26326 3.12713 9.40909C3.21331 9.55161 3.32434 9.64938 3.46023 9.70241C3.59943 9.75213 3.75024 9.77699 3.91264 9.77699C4.03196 9.77699 4.13636 9.7687 4.22585 9.75213C4.31534 9.73556 4.38494 9.7223 4.43466 9.71236L4.70312 10.9403C4.61695 10.9735 4.49432 11.0066 4.33523 11.0398C4.17614 11.0762 3.97727 11.0961 3.73864 11.0994C3.34754 11.1061 2.98295 11.0365 2.64489 10.8906C2.30682 10.7448 2.03338 10.5194 1.82457 10.2145C1.61577 9.90956 1.51136 9.52675 1.51136 9.06605V1.53409ZM9.41744 11.1541C8.66507 11.1541 8.0171 10.9934 7.47354 10.6719C6.9333 10.3471 6.51568 9.89134 6.2207 9.30469C5.92904 8.71473 5.7832 8.02367 5.7832 7.23153C5.7832 6.44934 5.92904 5.75994 6.2207 5.16335C6.51568 4.56676 6.92667 4.10109 7.45366 3.76633C7.98396 3.43158 8.60375 3.2642 9.31303 3.2642C9.7439 3.2642 10.1615 3.33546 10.5659 3.47798C10.9702 3.6205 11.3332 3.84422 11.6547 4.14915C11.9761 4.45407 12.2297 4.85014 12.4153 5.33736C12.6009 5.82126 12.6937 6.40956 12.6937 7.10227V7.62926H6.6234V6.51562H11.237C11.237 6.12453 11.1575 5.77817 10.9984 5.47656C10.8393 5.17164 10.6156 4.93134 10.3272 4.75568C10.0422 4.58002 9.70745 4.49219 9.32298 4.49219C8.90536 4.49219 8.54078 4.59493 8.22923 4.80043C7.92099 5.0026 7.68235 5.26776 7.51332 5.59588C7.3476 5.92069 7.26474 6.27367 7.26474 6.65483V7.52486C7.26474 8.03527 7.35423 8.46946 7.5332 8.82741C7.71549 9.18537 7.96905 9.45881 8.29386 9.64773C8.61867 9.83333 8.99817 9.92614 9.43235 9.92614C9.71407 9.92614 9.97094 9.88636 10.2029 9.80682C10.435 9.72396 10.6355 9.60133 10.8045 9.43892C10.9735 9.27652 11.1028 9.07599 11.1923 8.83736L12.5993 9.09091C12.4866 9.50521 12.2844 9.86813 11.9927 10.1797C11.7044 10.4879 11.3414 10.7282 10.9039 10.9006C10.4698 11.0696 9.97425 11.1541 9.41744 11.1541ZM14.343 11V3.36364H15.7798V4.5767H15.8594C15.9986 4.16572 16.2438 3.84257 16.5952 3.60724C16.9498 3.36861 17.3509 3.24929 17.7983 3.24929C17.8911 3.24929 18.0005 3.2526 18.1264 3.25923C18.2557 3.26586 18.3568 3.27415 18.4297 3.28409V4.70597C18.37 4.68939 18.264 4.67116 18.1115 4.65128C17.959 4.62808 17.8066 4.61648 17.6541 4.61648C17.3028 4.61648 16.9896 4.69105 16.7145 4.8402C16.4427 4.98603 16.2273 5.18987 16.0682 5.4517C15.9091 5.71023 15.8295 6.00521 15.8295 6.33665V11H14.343ZM19.7161 11V3.36364H21.1429V4.60653H21.2374C21.3965 4.18561 21.6567 3.85748 22.0179 3.62216C22.3792 3.38352 22.8117 3.2642 23.3155 3.2642C23.8259 3.2642 24.2535 3.38352 24.5982 3.62216C24.9462 3.8608 25.2031 4.18892 25.3688 4.60653H25.4483C25.6306 4.19886 25.9206 3.87405 26.3184 3.6321C26.7161 3.38684 27.19 3.2642 27.7402 3.2642C28.4329 3.2642 28.998 3.4813 29.4355 3.91548C29.8764 4.34967 30.0968 5.00426 30.0968 5.87926V11H28.6103V6.01847C28.6103 5.50142 28.4694 5.12689 28.1877 4.89489C27.906 4.66288 27.5695 4.54688 27.1784 4.54688C26.6945 4.54688 26.3184 4.69602 26.0499 4.99432C25.7814 5.2893 25.6472 5.6688 25.6472 6.13281V11H24.1657V5.92401C24.1657 5.50971 24.0364 5.17661 23.7779 4.92472C23.5194 4.67282 23.1829 4.54688 22.7686 4.54688C22.4869 4.54688 22.2267 4.62145 21.9881 4.7706C21.7528 4.91643 21.5622 5.12026 21.4164 5.3821C21.2739 5.64394 21.2026 5.94721 21.2026 6.2919V11H19.7161ZM32.0891 11V3.36364H33.5756V11H32.0891ZM32.8398 2.18537C32.5813 2.18537 32.3593 2.09919 32.1737 1.92685C31.9914 1.75118 31.9002 1.54238 31.9002 1.30043C31.9002 1.05516 31.9914 0.846354 32.1737 0.674005C32.3593 0.498342 32.5813 0.410511 32.8398 0.410511C33.0984 0.410511 33.3188 0.498342 33.5011 0.674005C33.6867 0.846354 33.7795 1.05516 33.7795 1.30043C33.7795 1.54238 33.6867 1.75118 33.5011 1.92685C33.3188 2.09919 33.0984 2.18537 32.8398 2.18537ZM37.062 6.46591V11H35.5755V3.36364H37.0023V4.60653H37.0968C37.2724 4.20218 37.5475 3.87737 37.9221 3.6321C38.2999 3.38684 38.7755 3.2642 39.3489 3.2642C39.8693 3.2642 40.325 3.37358 40.7161 3.59233C41.1072 3.80777 41.4105 4.12926 41.6259 4.55682C41.8413 4.98437 41.949 5.51302 41.949 6.14276V11H40.4625V6.32173C40.4625 5.76823 40.3184 5.3357 40.03 5.02415C39.7417 4.70928 39.3456 4.55185 38.8418 4.55185C38.4971 4.55185 38.1905 4.62642 37.9221 4.77557C37.6569 4.92472 37.4464 5.14347 37.2907 5.43182C37.1382 5.71686 37.062 6.06155 37.062 6.46591ZM46.165 11.169C45.681 11.169 45.2435 11.0795 44.8525 10.9006C44.4614 10.7183 44.1515 10.4548 43.9228 10.1101C43.6974 9.76539 43.5847 9.3428 43.5847 8.84233C43.5847 8.41146 43.6676 8.05682 43.8333 7.77841C43.999 7.5 44.2227 7.27959 44.5044 7.11719C44.7862 6.95478 45.101 6.83215 45.449 6.74929C45.7971 6.66643 46.1517 6.60346 46.513 6.56037C46.9703 6.50734 47.3416 6.46425 47.6266 6.43111C47.9116 6.39465 48.1188 6.33665 48.248 6.2571C48.3773 6.17756 48.4419 6.0483 48.4419 5.86932V5.83452C48.4419 5.40033 48.3193 5.06392 48.074 4.82528C47.8321 4.58665 47.4708 4.46733 46.9902 4.46733C46.4898 4.46733 46.0953 4.57836 45.807 4.80043C45.522 5.01918 45.3248 5.26278 45.2154 5.53125L43.8184 5.21307C43.9841 4.74905 44.226 4.37453 44.5442 4.08949C44.8657 3.80114 45.2353 3.59233 45.6529 3.46307C46.0705 3.33049 46.5096 3.2642 46.9703 3.2642C47.2753 3.2642 47.5984 3.30066 47.9398 3.37358C48.2845 3.44318 48.606 3.57244 48.9043 3.76136C49.2059 3.95028 49.4528 4.22041 49.6451 4.57173C49.8373 4.91974 49.9334 5.37216 49.9334 5.92898V11H48.4817V9.95597H48.4221C48.3259 10.1482 48.1818 10.3371 47.9895 10.5227C47.7973 10.7083 47.5504 10.8625 47.2488 10.9851C46.9471 11.1077 46.5859 11.169 46.165 11.169ZM46.4881 9.97585C46.8991 9.97585 47.2504 9.89465 47.5421 9.73224C47.8371 9.56984 48.0608 9.35772 48.2132 9.09588C48.369 8.83073 48.4469 8.54735 48.4469 8.24574V7.26136C48.3939 7.31439 48.2911 7.36411 48.1387 7.41051C47.9895 7.4536 47.8188 7.49171 47.6266 7.52486C47.4344 7.55469 47.2471 7.58286 47.0648 7.60938C46.8825 7.63258 46.7301 7.65246 46.6074 7.66903C46.3191 7.70549 46.0556 7.76681 45.8169 7.85298C45.5816 7.93916 45.3927 8.06345 45.2502 8.22585C45.111 8.38494 45.0414 8.59706 45.0414 8.86222C45.0414 9.23011 45.1773 9.50852 45.449 9.69744C45.7208 9.88305 46.0672 9.97585 46.4881 9.97585ZM53.3999 0.818182V11H51.9134V0.818182H53.3999Z" fill="black"/>
</svg>
