<svg width="84" height="14" viewBox="0 0 84 14" fill="none" xmlns="http://www.w3.org/2000/svg">
<path d="M4.21591 11.1541C3.4768 11.1541 2.84044 10.9867 2.30682 10.652C1.77652 10.3139 1.36884 9.84825 1.08381 9.25497C0.798769 8.66169 0.65625 7.98224 0.65625 7.21662C0.65625 6.44105 0.802083 5.75663 1.09375 5.16335C1.38542 4.56676 1.7964 4.10109 2.3267 3.76633C2.85701 3.43158 3.48177 3.2642 4.20099 3.2642C4.78101 3.2642 5.29806 3.37192 5.75213 3.58736C6.2062 3.79948 6.57244 4.09777 6.85085 4.48224C7.13258 4.86671 7.29995 5.31581 7.35298 5.82955H5.90625C5.8267 5.47159 5.64441 5.16335 5.35938 4.90483C5.07765 4.64631 4.69981 4.51705 4.22585 4.51705C3.81155 4.51705 3.44863 4.62642 3.13707 4.84517C2.82884 5.06061 2.58854 5.36884 2.41619 5.76989C2.24384 6.16761 2.15767 6.63826 2.15767 7.18182C2.15767 7.73864 2.24219 8.21922 2.41122 8.62358C2.58026 9.02794 2.81889 9.34115 3.12713 9.56321C3.43868 9.78527 3.80492 9.89631 4.22585 9.89631C4.50758 9.89631 4.76278 9.84493 4.99148 9.74219C5.22349 9.63613 5.41738 9.48532 5.57315 9.28977C5.73224 9.09422 5.84328 8.8589 5.90625 8.58381H7.35298C7.29995 9.07765 7.1392 9.51847 6.87074 9.90625C6.60227 10.294 6.24266 10.599 5.7919 10.821C5.34446 11.0431 4.81913 11.1541 4.21591 11.1541ZM8.94265 13.8636V3.36364H10.3944V4.60156H10.5186C10.6048 4.44247 10.7291 4.25852 10.8915 4.04972C11.0539 3.84091 11.2793 3.65862 11.5676 3.50284C11.856 3.34375 12.2372 3.2642 12.7111 3.2642C13.3276 3.2642 13.8778 3.41998 14.3617 3.73153C14.8456 4.04309 15.2251 4.49219 15.5002 5.07884C15.7786 5.66548 15.9178 6.37145 15.9178 7.19673C15.9178 8.02202 15.7802 8.72964 15.5051 9.3196C15.2301 9.90625 14.8522 10.3587 14.3716 10.6768C13.891 10.9917 13.3425 11.1491 12.726 11.1491C12.262 11.1491 11.8825 11.0713 11.5875 10.9155C11.2959 10.7597 11.0672 10.5774 10.9015 10.3686C10.7357 10.1598 10.6081 9.9742 10.5186 9.81179H10.4292V13.8636H8.94265ZM10.3993 7.18182C10.3993 7.71875 10.4772 8.18939 10.633 8.59375C10.7888 8.99811 11.0141 9.31463 11.3091 9.54332C11.6041 9.7687 11.9654 9.88139 12.3929 9.88139C12.8371 9.88139 13.2083 9.76373 13.5066 9.52841C13.8049 9.28977 14.0302 8.96662 14.1827 8.55895C14.3385 8.15128 14.4164 7.69223 14.4164 7.18182C14.4164 6.67803 14.3401 6.22562 14.1877 5.82457C14.0385 5.42353 13.8132 5.10701 13.5115 4.875C13.2132 4.64299 12.8404 4.52699 12.3929 4.52699C11.9621 4.52699 11.5975 4.63802 11.2992 4.86009C11.0042 5.08215 10.7805 5.39205 10.628 5.78977C10.4756 6.1875 10.3993 6.65151 10.3993 7.18182ZM22.4206 7.8331V3.36364H23.9121V11H22.4505V9.67756H22.3709C22.1953 10.0852 21.9135 10.425 21.5257 10.6967C21.1413 10.9652 20.6623 11.0994 20.089 11.0994C19.5984 11.0994 19.1642 10.9917 18.7864 10.7763C18.4119 10.5575 18.1169 10.2344 17.9015 9.80682C17.6893 9.37926 17.5833 8.85062 17.5833 8.22088V3.36364H19.0698V8.0419C19.0698 8.56226 19.214 8.97656 19.5023 9.2848C19.7907 9.59304 20.1652 9.74716 20.6259 9.74716C20.9043 9.74716 21.181 9.67756 21.4561 9.53835C21.7346 9.39915 21.9649 9.18868 22.1472 8.90696C22.3328 8.62524 22.4239 8.26728 22.4206 7.8331ZM30.4087 6.05327V7.34091H25.8945V6.05327H30.4087ZM35.6065 11.1541C34.8674 11.1541 34.2311 10.9867 33.6974 10.652C33.1671 10.3139 32.7595 9.84825 32.4744 9.25497C32.1894 8.66169 32.0469 7.98224 32.0469 7.21662C32.0469 6.44105 32.1927 5.75663 32.4844 5.16335C32.776 4.56676 33.187 4.10109 33.7173 3.76633C34.2476 3.43158 34.8724 3.2642 35.5916 3.2642C36.1716 3.2642 36.6887 3.37192 37.1428 3.58736C37.5968 3.79948 37.9631 4.09777 38.2415 4.48224C38.5232 4.86671 38.6906 5.31581 38.7436 5.82955H37.2969C37.2173 5.47159 37.035 5.16335 36.75 4.90483C36.4683 4.64631 36.0904 4.51705 35.6165 4.51705C35.2022 4.51705 34.8393 4.62642 34.5277 4.84517C34.2195 5.06061 33.9792 5.36884 33.8068 5.76989C33.6345 6.16761 33.5483 6.63826 33.5483 7.18182C33.5483 7.73864 33.6328 8.21922 33.8018 8.62358C33.9709 9.02794 34.2095 9.34115 34.5178 9.56321C34.8293 9.78527 35.1955 9.89631 35.6165 9.89631C35.8982 9.89631 36.1534 9.84493 36.3821 9.74219C36.6141 9.63613 36.808 9.48532 36.9638 9.28977C37.1229 9.09422 37.2339 8.8589 37.2969 8.58381H38.7436C38.6906 9.07765 38.5298 9.51847 38.2614 9.90625C37.9929 10.294 37.6333 10.599 37.1825 10.821C36.7351 11.0431 36.2098 11.1541 35.6065 11.1541ZM41.8198 6.46591V11H40.3333V0.818182H41.7999V4.60653H41.8944C42.0733 4.19555 42.3468 3.86908 42.7147 3.62713C43.0826 3.38518 43.5632 3.2642 44.1564 3.2642C44.6801 3.2642 45.1375 3.37192 45.5286 3.58736C45.923 3.80279 46.2279 4.12429 46.4434 4.55185C46.6621 4.97609 46.7715 5.50639 46.7715 6.14276V11H45.285V6.32173C45.285 5.7616 45.1408 5.32741 44.8525 5.01918C44.5641 4.70762 44.1631 4.55185 43.6493 4.55185C43.298 4.55185 42.9831 4.62642 42.7047 4.77557C42.4296 4.92472 42.2125 5.14347 42.0534 5.43182C41.8977 5.71686 41.8198 6.06155 41.8198 6.46591ZM48.7551 11V3.36364H50.2417V11H48.7551ZM49.5059 2.18537C49.2473 2.18537 49.0253 2.09919 48.8397 1.92685C48.6574 1.75118 48.5662 1.54238 48.5662 1.30043C48.5662 1.05516 48.6574 0.846354 48.8397 0.674005C49.0253 0.498342 49.2473 0.410511 49.5059 0.410511C49.7644 0.410511 49.9848 0.498342 50.1671 0.674005C50.3527 0.846354 50.4455 1.05516 50.4455 1.30043C50.4455 1.54238 50.3527 1.75118 50.1671 1.92685C49.9848 2.09919 49.7644 2.18537 49.5059 2.18537ZM52.2415 13.8636V3.36364H53.6932V4.60156H53.8175C53.9036 4.44247 54.0279 4.25852 54.1903 4.04972C54.3527 3.84091 54.5781 3.65862 54.8665 3.50284C55.1548 3.34375 55.536 3.2642 56.0099 3.2642C56.6264 3.2642 57.1766 3.41998 57.6605 3.73153C58.1444 4.04309 58.5239 4.49219 58.799 5.07884C59.0774 5.66548 59.2166 6.37145 59.2166 7.19673C59.2166 8.02202 59.0791 8.72964 58.804 9.3196C58.5289 9.90625 58.151 10.3587 57.6705 10.6768C57.1899 10.9917 56.6413 11.1491 56.0249 11.1491C55.5608 11.1491 55.1813 11.0713 54.8864 10.9155C54.5947 10.7597 54.366 10.5774 54.2003 10.3686C54.0346 10.1598 53.907 9.9742 53.8175 9.81179H53.728V13.8636H52.2415ZM53.6982 7.18182C53.6982 7.71875 53.776 8.18939 53.9318 8.59375C54.0876 8.99811 54.313 9.31463 54.608 9.54332C54.9029 9.7687 55.2642 9.88139 55.6918 9.88139C56.1359 9.88139 56.5071 9.76373 56.8054 9.52841C57.1037 9.28977 57.3291 8.96662 57.4815 8.55895C57.6373 8.15128 57.7152 7.69223 57.7152 7.18182C57.7152 6.67803 57.639 6.22562 57.4865 5.82457C57.3374 5.42353 57.112 5.10701 56.8104 4.875C56.5121 4.64299 56.1392 4.52699 55.6918 4.52699C55.2609 4.52699 54.8963 4.63802 54.598 4.86009C54.303 5.08215 54.0793 5.39205 53.9268 5.78977C53.7744 6.1875 53.6982 6.65151 53.6982 7.18182ZM65.3814 6.05327V7.34091H60.8672V6.05327H65.3814ZM70.8874 11.169C70.1019 11.1657 69.4308 10.9586 68.8739 10.5476C68.3171 10.1366 67.8912 9.53835 67.5962 8.75284C67.3013 7.96733 67.1538 7.02107 67.1538 5.91406C67.1538 4.81037 67.3013 3.86742 67.5962 3.08523C67.8945 2.30303 68.3221 1.70644 68.8789 1.29545C69.439 0.884469 70.1085 0.678977 70.8874 0.678977C71.6663 0.678977 72.3342 0.886126 72.891 1.30043C73.4478 1.71141 73.8737 2.308 74.1687 3.0902C74.467 3.86908 74.6161 4.81037 74.6161 5.91406C74.6161 7.02438 74.4686 7.9723 74.1737 8.75781C73.8787 9.54001 73.4528 10.1383 72.896 10.5526C72.3391 10.9635 71.6696 11.169 70.8874 11.169ZM70.8874 9.84162C71.5768 9.84162 72.1154 9.50521 72.5032 8.83239C72.8943 8.15956 73.0898 7.18679 73.0898 5.91406C73.0898 5.06889 73.0004 4.35464 72.8214 3.77131C72.6457 3.18466 72.3922 2.74053 72.0607 2.43892C71.7326 2.134 71.3415 1.98153 70.8874 1.98153C70.2013 1.98153 69.6628 2.3196 69.2717 2.99574C68.8806 3.67187 68.6834 4.64465 68.68 5.91406C68.68 6.76255 68.7679 7.48011 68.9435 8.06676C69.1225 8.65009 69.3761 9.09257 69.7042 9.39418C70.0323 9.69247 70.4267 9.84162 70.8874 9.84162ZM76.3798 11V9.88636L79.8251 6.31676C80.193 5.92898 80.4963 5.58925 80.7349 5.29759C80.9769 5.0026 81.1575 4.72254 81.2768 4.45739C81.3961 4.19223 81.4558 3.91051 81.4558 3.61222C81.4558 3.27415 81.3762 2.98248 81.2172 2.73722C81.0581 2.48864 80.841 2.29806 80.5659 2.16548C80.2908 2.02959 79.9809 1.96165 79.6362 1.96165C79.2716 1.96165 78.9534 2.03622 78.6816 2.18537C78.4099 2.33452 78.2011 2.54498 78.0552 2.81676C77.9094 3.08854 77.8365 3.40672 77.8365 3.77131H76.3699C76.3699 3.15151 76.5124 2.60961 76.7974 2.1456C77.0824 1.68158 77.4735 1.32197 77.9707 1.06676C78.4679 0.808238 79.033 0.678977 79.666 0.678977C80.3057 0.678977 80.8691 0.806581 81.3564 1.06179C81.8469 1.31368 82.2297 1.65838 82.5048 2.09588C82.7799 2.53007 82.9174 3.0206 82.9174 3.56747C82.9174 3.94531 82.8462 4.31487 82.7037 4.67614C82.5645 5.0374 82.3208 5.4401 81.9728 5.88423C81.6248 6.32505 81.1409 6.86032 80.5211 7.49006L78.4977 9.60795V9.68253H83.0815V11H76.3798Z" fill="black"/>
</svg>
