<svg width="66" height="15" viewBox="0 0 66 15" fill="none" xmlns="http://www.w3.org/2000/svg">
<path d="M4.20099 14.0227C3.59446 14.0227 3.07244 13.9432 2.63494 13.7841C2.20076 13.625 1.84612 13.4145 1.57102 13.1527C1.29593 12.8909 1.09044 12.6042 0.954545 12.2926L2.23224 11.7656C2.32173 11.9115 2.44105 12.0656 2.5902 12.228C2.74266 12.3937 2.94815 12.5346 3.20668 12.6506C3.46851 12.7666 3.80492 12.8246 4.21591 12.8246C4.77936 12.8246 5.24503 12.687 5.61293 12.4119C5.98082 12.1402 6.16477 11.706 6.16477 11.1094V9.60795H6.07031C5.98082 9.77036 5.85156 9.95099 5.68253 10.1499C5.51681 10.3487 5.28812 10.5211 4.99645 10.6669C4.70478 10.8127 4.32528 10.8857 3.85795 10.8857C3.25473 10.8857 2.71117 10.7448 2.22727 10.4631C1.74669 10.178 1.36553 9.75876 1.08381 9.20526C0.805398 8.64844 0.666193 7.96401 0.666193 7.15199C0.666193 6.33996 0.803741 5.64394 1.07884 5.06392C1.35724 4.4839 1.7384 4.03977 2.2223 3.73153C2.7062 3.41998 3.25473 3.2642 3.8679 3.2642C4.34186 3.2642 4.72467 3.34375 5.01634 3.50284C5.308 3.65862 5.53504 3.84091 5.69744 4.04972C5.86316 4.25852 5.99077 4.44247 6.08026 4.60156H6.18963V3.36364H7.64631V11.169C7.64631 11.8253 7.49385 12.3639 7.18892 12.7848C6.884 13.2057 6.47135 13.5173 5.95099 13.7195C5.43395 13.9216 4.85062 14.0227 4.20099 14.0227ZM4.18608 9.6527C4.61364 9.6527 4.97491 9.55327 5.26989 9.3544C5.56818 9.15223 5.79356 8.86387 5.94602 8.48935C6.1018 8.11151 6.17969 7.65909 6.17969 7.1321C6.17969 6.61837 6.10346 6.16596 5.95099 5.77486C5.79853 5.38376 5.57481 5.07884 5.27983 4.86009C4.98485 4.63802 4.62027 4.52699 4.18608 4.52699C3.73864 4.52699 3.36577 4.64299 3.06747 4.875C2.76918 5.10369 2.5438 5.41525 2.39134 5.80966C2.24219 6.20407 2.16761 6.64489 2.16761 7.1321C2.16761 7.63258 2.24384 8.07173 2.39631 8.44957C2.54877 8.82741 2.77415 9.1224 3.07244 9.33452C3.37405 9.54664 3.74527 9.6527 4.18608 9.6527ZM9.63991 11V3.36364H11.1264V11H9.63991ZM10.3906 2.18537C10.1321 2.18537 9.91004 2.09919 9.72443 1.92685C9.54214 1.75118 9.45099 1.54238 9.45099 1.30043C9.45099 1.05516 9.54214 0.846354 9.72443 0.674005C9.91004 0.498342 10.1321 0.410511 10.3906 0.410511C10.6491 0.410511 10.8696 0.498342 11.0518 0.674005C11.2375 0.846354 11.3303 1.05516 11.3303 1.30043C11.3303 1.54238 11.2375 1.75118 11.0518 1.92685C10.8696 2.09919 10.6491 2.18537 10.3906 2.18537ZM16.6909 3.36364V4.55682H12.5197V3.36364H16.6909ZM13.6383 1.53409H15.1248V8.75781C15.1248 9.04616 15.1679 9.26326 15.2541 9.40909C15.3403 9.55161 15.4513 9.64938 15.5872 9.70241C15.7264 9.75213 15.8772 9.77699 16.0396 9.77699C16.1589 9.77699 16.2633 9.7687 16.3528 9.75213C16.4423 9.73556 16.5119 9.7223 16.5616 9.71236L16.8301 10.9403C16.7439 10.9735 16.6213 11.0066 16.4622 11.0398C16.3031 11.0762 16.1042 11.0961 15.8656 11.0994C15.4745 11.1061 15.1099 11.0365 14.7718 10.8906C14.4338 10.7448 14.1603 10.5194 13.9515 10.2145C13.7427 9.90956 13.6383 9.52675 13.6383 9.06605V1.53409ZM22.5748 6.05327V7.34091H18.0605V6.05327H22.5748ZM24.5559 11V3.36364H25.9828V4.60653H26.0772C26.2363 4.18561 26.4965 3.85748 26.8578 3.62216C27.219 3.38352 27.6516 3.2642 28.1554 3.2642C28.6658 3.2642 29.0933 3.38352 29.438 3.62216C29.786 3.8608 30.0429 4.18892 30.2086 4.60653H30.2882C30.4705 4.19886 30.7605 3.87405 31.1582 3.6321C31.5559 3.38684 32.0299 3.2642 32.5801 3.2642C33.2728 3.2642 33.8379 3.4813 34.2754 3.91548C34.7162 4.34967 34.9366 5.00426 34.9366 5.87926V11H33.4501V6.01847C33.4501 5.50142 33.3092 5.12689 33.0275 4.89489C32.7458 4.66288 32.4094 4.54688 32.0183 4.54688C31.5344 4.54688 31.1582 4.69602 30.8897 4.99432C30.6213 5.2893 30.487 5.6688 30.487 6.13281V11H29.0055V5.92401C29.0055 5.50971 28.8762 5.17661 28.6177 4.92472C28.3592 4.67282 28.0228 4.54688 27.6085 4.54688C27.3268 4.54688 27.0666 4.62145 26.8279 4.7706C26.5926 4.91643 26.402 5.12026 26.2562 5.3821C26.1137 5.64394 26.0424 5.94721 26.0424 6.2919V11H24.5559ZM40.2202 11.1541C39.4678 11.1541 38.8198 10.9934 38.2763 10.6719C37.736 10.3471 37.3184 9.89134 37.0234 9.30469C36.7318 8.71473 36.5859 8.02367 36.5859 7.23153C36.5859 6.44934 36.7318 5.75994 37.0234 5.16335C37.3184 4.56676 37.7294 4.10109 38.2564 3.76633C38.7867 3.43158 39.4065 3.2642 40.1158 3.2642C40.5466 3.2642 40.9643 3.33546 41.3686 3.47798C41.773 3.6205 42.1359 3.84422 42.4574 4.14915C42.7789 4.45407 43.0324 4.85014 43.218 5.33736C43.4036 5.82126 43.4964 6.40956 43.4964 7.10227V7.62926H37.4261V6.51562H42.0398C42.0398 6.12453 41.9602 5.77817 41.8011 5.47656C41.642 5.17164 41.4183 4.93134 41.13 4.75568C40.8449 4.58002 40.5102 4.49219 40.1257 4.49219C39.7081 4.49219 39.3435 4.59493 39.032 4.80043C38.7237 5.0026 38.4851 5.26776 38.3161 5.59588C38.1503 5.92069 38.0675 6.27367 38.0675 6.65483V7.52486C38.0675 8.03527 38.157 8.46946 38.3359 8.82741C38.5182 9.18537 38.7718 9.45881 39.0966 9.64773C39.4214 9.83333 39.8009 9.92614 40.2351 9.92614C40.5168 9.92614 40.7737 9.88636 41.0057 9.80682C41.2377 9.72396 41.4382 9.60133 41.6072 9.43892C41.7763 9.27652 41.9055 9.07599 41.995 8.83736L43.402 9.09091C43.2893 9.50521 43.0871 9.86813 42.7955 10.1797C42.5071 10.4879 42.1442 10.7282 41.7067 10.9006C41.2725 11.0696 40.777 11.1541 40.2202 11.1541ZM45.1458 11V3.36364H46.5826V4.5767H46.6621C46.8013 4.16572 47.0466 3.84257 47.3979 3.60724C47.7525 3.36861 48.1536 3.24929 48.601 3.24929C48.6938 3.24929 48.8032 3.2526 48.9292 3.25923C49.0584 3.26586 49.1595 3.27415 49.2324 3.28409V4.70597C49.1728 4.68939 49.0667 4.67116 48.9142 4.65128C48.7618 4.62808 48.6093 4.61648 48.4569 4.61648C48.1055 4.61648 47.7923 4.69105 47.5172 4.8402C47.2454 4.98603 47.03 5.18987 46.8709 5.4517C46.7118 5.71023 46.6323 6.00521 46.6323 6.33665V11H45.1458ZM53.4471 14.0227C52.8406 14.0227 52.3185 13.9432 51.881 13.7841C51.4469 13.625 51.0922 13.4145 50.8171 13.1527C50.542 12.8909 50.3365 12.6042 50.2006 12.2926L51.4783 11.7656C51.5678 11.9115 51.6871 12.0656 51.8363 12.228C51.9888 12.3937 52.1942 12.5346 52.4528 12.6506C52.7146 12.7666 53.051 12.8246 53.462 12.8246C54.0254 12.8246 54.4911 12.687 54.859 12.4119C55.2269 12.1402 55.4109 11.706 55.4109 11.1094V9.60795H55.3164C55.2269 9.77036 55.0977 9.95099 54.9286 10.1499C54.7629 10.3487 54.5342 10.5211 54.2425 10.6669C53.9509 10.8127 53.5714 10.8857 53.104 10.8857C52.5008 10.8857 51.9573 10.7448 51.4734 10.4631C50.9928 10.178 50.6116 9.75876 50.3299 9.20526C50.0515 8.64844 49.9123 7.96401 49.9123 7.15199C49.9123 6.33996 50.0498 5.64394 50.3249 5.06392C50.6033 4.4839 50.9845 4.03977 51.4684 3.73153C51.9523 3.41998 52.5008 3.2642 53.114 3.2642C53.5879 3.2642 53.9708 3.34375 54.2624 3.50284C54.5541 3.65862 54.7811 3.84091 54.9435 4.04972C55.1093 4.25852 55.2369 4.44247 55.3263 4.60156H55.4357V3.36364H56.8924V11.169C56.8924 11.8253 56.7399 12.3639 56.435 12.7848C56.1301 13.2057 55.7174 13.5173 55.1971 13.7195C54.68 13.9216 54.0967 14.0227 53.4471 14.0227ZM53.4322 9.6527C53.8597 9.6527 54.221 9.55327 54.516 9.3544C54.8143 9.15223 55.0397 8.86387 55.1921 8.48935C55.3479 8.11151 55.4258 7.65909 55.4258 7.1321C55.4258 6.61837 55.3496 6.16596 55.1971 5.77486C55.0446 5.38376 54.8209 5.07884 54.5259 4.86009C54.2309 4.63802 53.8664 4.52699 53.4322 4.52699C52.9847 4.52699 52.6119 4.64299 52.3136 4.875C52.0153 5.10369 51.7899 5.41525 51.6374 5.80966C51.4883 6.20407 51.4137 6.64489 51.4137 7.1321C51.4137 7.63258 51.4899 8.07173 51.6424 8.44957C51.7949 8.82741 52.0202 9.1224 52.3185 9.33452C52.6201 9.54664 52.9914 9.6527 53.4322 9.6527ZM62.1772 11.1541C61.4248 11.1541 60.7769 10.9934 60.2333 10.6719C59.6931 10.3471 59.2754 9.89134 58.9805 9.30469C58.6888 8.71473 58.543 8.02367 58.543 7.23153C58.543 6.44934 58.6888 5.75994 58.9805 5.16335C59.2754 4.56676 59.6864 4.10109 60.2134 3.76633C60.7437 3.43158 61.3635 3.2642 62.0728 3.2642C62.5037 3.2642 62.9213 3.33546 63.3256 3.47798C63.73 3.6205 64.0929 3.84422 64.4144 4.14915C64.7359 4.45407 64.9895 4.85014 65.1751 5.33736C65.3607 5.82126 65.4535 6.40956 65.4535 7.10227V7.62926H59.3832V6.51562H63.9968C63.9968 6.12453 63.9173 5.77817 63.7582 5.47656C63.5991 5.17164 63.3754 4.93134 63.087 4.75568C62.802 4.58002 62.4672 4.49219 62.0827 4.49219C61.6651 4.49219 61.3005 4.59493 60.989 4.80043C60.6808 5.0026 60.4421 5.26776 60.2731 5.59588C60.1074 5.92069 60.0245 6.27367 60.0245 6.65483V7.52486C60.0245 8.03527 60.114 8.46946 60.293 8.82741C60.4753 9.18537 60.7288 9.45881 61.0536 9.64773C61.3784 9.83333 61.7579 9.92614 62.1921 9.92614C62.4738 9.92614 62.7307 9.88636 62.9627 9.80682C63.1947 9.72396 63.3952 9.60133 63.5643 9.43892C63.7333 9.27652 63.8626 9.07599 63.9521 8.83736L65.359 9.09091C65.2463 9.50521 65.0442 9.86813 64.7525 10.1797C64.4641 10.4879 64.1012 10.7282 63.6637 10.9006C63.2295 11.0696 62.734 11.1541 62.1772 11.1541Z" fill="black"/>
</svg>
