<svg width="66" height="12" viewBox="0 0 66 12" fill="none" xmlns="http://www.w3.org/2000/svg">
<path d="M6.72159 5.22798L5.37429 5.46662C5.31795 5.29427 5.22846 5.13021 5.10582 4.97443C4.98651 4.81865 4.8241 4.69105 4.61861 4.59162C4.41312 4.49219 4.15625 4.44247 3.84801 4.44247C3.42708 4.44247 3.07576 4.53693 2.79403 4.72585C2.51231 4.91146 2.37145 5.15175 2.37145 5.44673C2.37145 5.70194 2.46591 5.90743 2.65483 6.06321C2.84375 6.21899 3.14867 6.34659 3.5696 6.44602L4.78267 6.72443C5.48532 6.88684 6.009 7.13707 6.35369 7.47514C6.69839 7.81321 6.87074 8.25237 6.87074 8.79261C6.87074 9.25 6.73816 9.65767 6.47301 10.0156C6.21117 10.3703 5.84493 10.6487 5.37429 10.8509C4.90696 11.053 4.36506 11.1541 3.74858 11.1541C2.89347 11.1541 2.19579 10.9718 1.65554 10.6072C1.11529 10.2393 0.783854 9.71733 0.661222 9.04119L2.09801 8.82244C2.1875 9.19697 2.37145 9.48035 2.64986 9.67259C2.92827 9.86151 3.29119 9.95597 3.73864 9.95597C4.22585 9.95597 4.61529 9.85488 4.90696 9.6527C5.19863 9.44721 5.34446 9.19697 5.34446 8.90199C5.34446 8.66335 5.25497 8.46283 5.07599 8.30043C4.90033 8.13802 4.63021 8.01539 4.26562 7.93253L2.97301 7.64915C2.26042 7.48674 1.73343 7.22822 1.39205 6.87358C1.05398 6.51894 0.884943 6.06984 0.884943 5.52628C0.884943 5.07552 1.01089 4.68111 1.26278 4.34304C1.51468 4.00497 1.86269 3.74148 2.30682 3.55256C2.75095 3.36032 3.25971 3.2642 3.8331 3.2642C4.65838 3.2642 5.308 3.44318 5.78196 3.80114C6.25592 4.15578 6.56913 4.63139 6.72159 5.22798ZM11.7963 11.1541C11.044 11.1541 10.396 10.9934 9.85245 10.6719C9.3122 10.3471 8.89459 9.89134 8.59961 9.30469C8.30794 8.71473 8.16211 8.02367 8.16211 7.23153C8.16211 6.44934 8.30794 5.75994 8.59961 5.16335C8.89459 4.56676 9.30558 4.10109 9.83256 3.76633C10.3629 3.43158 10.9827 3.2642 11.6919 3.2642C12.1228 3.2642 12.5404 3.33546 12.9448 3.47798C13.3491 3.6205 13.7121 3.84422 14.0336 4.14915C14.3551 4.45407 14.6086 4.85014 14.7942 5.33736C14.9798 5.82126 15.0726 6.40956 15.0726 7.10227V7.62926H9.00231V6.51562H13.6159C13.6159 6.12453 13.5364 5.77817 13.3773 5.47656C13.2182 5.17164 12.9945 4.93134 12.7061 4.75568C12.4211 4.58002 12.0864 4.49219 11.7019 4.49219C11.2843 4.49219 10.9197 4.59493 10.6081 4.80043C10.2999 5.0026 10.0613 5.26776 9.89222 5.59588C9.7265 5.92069 9.64364 6.27367 9.64364 6.65483V7.52486C9.64364 8.03527 9.73313 8.46946 9.91211 8.82741C10.0944 9.18537 10.348 9.45881 10.6728 9.64773C10.9976 9.83333 11.3771 9.92614 11.8113 9.92614C12.093 9.92614 12.3498 9.88636 12.5819 9.80682C12.8139 9.72396 13.0144 9.60133 13.1834 9.43892C13.3525 9.27652 13.4817 9.07599 13.5712 8.83736L14.9782 9.09091C14.8655 9.50521 14.6633 9.86813 14.3716 10.1797C14.0833 10.4879 13.7203 10.7282 13.2828 10.9006C12.8487 11.0696 12.3532 11.1541 11.7963 11.1541ZM16.7219 11V3.36364H18.1587V4.5767H18.2383C18.3775 4.16572 18.6228 3.84257 18.9741 3.60724C19.3287 3.36861 19.7298 3.24929 20.1772 3.24929C20.27 3.24929 20.3794 3.2526 20.5053 3.25923C20.6346 3.26586 20.7357 3.27415 20.8086 3.28409V4.70597C20.7489 4.68939 20.6429 4.67116 20.4904 4.65128C20.3379 4.62808 20.1855 4.61648 20.033 4.61648C19.6817 4.61648 19.3685 4.69105 19.0934 4.8402C18.8216 4.98603 18.6062 5.18987 18.4471 5.4517C18.288 5.71023 18.2085 6.00521 18.2085 6.33665V11H16.7219ZM28.8601 3.36364L26.0909 11H24.5L21.7259 3.36364H23.3217L25.2557 9.24006H25.3352L27.2642 3.36364H28.8601ZM33.2885 11.1541C32.5362 11.1541 31.8882 10.9934 31.3446 10.6719C30.8044 10.3471 30.3868 9.89134 30.0918 9.30469C29.8001 8.71473 29.6543 8.02367 29.6543 7.23153C29.6543 6.44934 29.8001 5.75994 30.0918 5.16335C30.3868 4.56676 30.7978 4.10109 31.3248 3.76633C31.8551 3.43158 32.4748 3.2642 33.1841 3.2642C33.615 3.2642 34.0326 3.33546 34.437 3.47798C34.8413 3.6205 35.2042 3.84422 35.5257 4.14915C35.8472 4.45407 36.1008 4.85014 36.2864 5.33736C36.472 5.82126 36.5648 6.40956 36.5648 7.10227V7.62926H30.4945V6.51562H35.1081C35.1081 6.12453 35.0286 5.77817 34.8695 5.47656C34.7104 5.17164 34.4867 4.93134 34.1983 4.75568C33.9133 4.58002 33.5785 4.49219 33.1941 4.49219C32.7765 4.49219 32.4119 4.59493 32.1003 4.80043C31.7921 5.0026 31.5534 5.26776 31.3844 5.59588C31.2187 5.92069 31.1358 6.27367 31.1358 6.65483V7.52486C31.1358 8.03527 31.2253 8.46946 31.4043 8.82741C31.5866 9.18537 31.8401 9.45881 32.165 9.64773C32.4898 9.83333 32.8693 9.92614 33.3034 9.92614C33.5852 9.92614 33.842 9.88636 34.074 9.80682C34.306 9.72396 34.5066 9.60133 34.6756 9.43892C34.8446 9.27652 34.9739 9.07599 35.0634 8.83736L36.4703 9.09091C36.3577 9.50521 36.1555 9.86813 35.8638 10.1797C35.5755 10.4879 35.2125 10.7282 34.775 10.9006C34.3408 11.0696 33.8453 11.1541 33.2885 11.1541ZM38.2141 11V3.36364H39.6509V4.5767H39.7305C39.8697 4.16572 40.1149 3.84257 40.4663 3.60724C40.8209 3.36861 41.2219 3.24929 41.6694 3.24929C41.7622 3.24929 41.8716 3.2526 41.9975 3.25923C42.1268 3.26586 42.2279 3.27415 42.3008 3.28409V4.70597C42.2411 4.68939 42.1351 4.67116 41.9826 4.65128C41.8301 4.62808 41.6777 4.61648 41.5252 4.61648C41.1739 4.61648 40.8607 4.69105 40.5856 4.8402C40.3138 4.98603 40.0984 5.18987 39.9393 5.4517C39.7802 5.71023 39.7006 6.00521 39.7006 6.33665V11H38.2141ZM47.6353 6.05327V7.34091H43.1211V6.05327H47.6353ZM53.1413 11.169C52.3558 11.1657 51.6847 10.9586 51.1278 10.5476C50.571 10.1366 50.1451 9.53835 49.8501 8.75284C49.5552 7.96733 49.4077 7.02107 49.4077 5.91406C49.4077 4.81037 49.5552 3.86742 49.8501 3.08523C50.1484 2.30303 50.576 1.70644 51.1328 1.29545C51.6929 0.884469 52.3625 0.678977 53.1413 0.678977C53.9202 0.678977 54.5881 0.886126 55.1449 1.30043C55.7017 1.71141 56.1276 2.308 56.4226 3.0902C56.7209 3.86908 56.87 4.81037 56.87 5.91406C56.87 7.02438 56.7225 7.9723 56.4276 8.75781C56.1326 9.54001 55.7067 10.1383 55.1499 10.5526C54.593 10.9635 53.9235 11.169 53.1413 11.169ZM53.1413 9.84162C53.8307 9.84162 54.3693 9.50521 54.7571 8.83239C55.1482 8.15956 55.3438 7.18679 55.3438 5.91406C55.3438 5.06889 55.2543 4.35464 55.0753 3.77131C54.8996 3.18466 54.6461 2.74053 54.3146 2.43892C53.9865 2.134 53.5954 1.98153 53.1413 1.98153C52.4553 1.98153 51.9167 2.3196 51.5256 2.99574C51.1345 3.67187 50.9373 4.64465 50.9339 5.91406C50.9339 6.76255 51.0218 7.48011 51.1974 8.06676C51.3764 8.65009 51.63 9.09257 51.9581 9.39418C52.2862 9.69247 52.6806 9.84162 53.1413 9.84162ZM58.6337 11V9.88636L62.079 6.31676C62.4469 5.92898 62.7502 5.58925 62.9888 5.29759C63.2308 5.0026 63.4114 4.72254 63.5307 4.45739C63.65 4.19223 63.7097 3.91051 63.7097 3.61222C63.7097 3.27415 63.6301 2.98248 63.4711 2.73722C63.312 2.48864 63.0949 2.29806 62.8198 2.16548C62.5447 2.02959 62.2348 1.96165 61.8901 1.96165C61.5255 1.96165 61.2073 2.03622 60.9355 2.18537C60.6638 2.33452 60.455 2.54498 60.3091 2.81676C60.1633 3.08854 60.0904 3.40672 60.0904 3.77131H58.6238C58.6238 3.15151 58.7663 2.60961 59.0513 2.1456C59.3364 1.68158 59.7275 1.32197 60.2246 1.06676C60.7218 0.808238 61.2869 0.678977 61.9199 0.678977C62.5596 0.678977 63.123 0.806581 63.6103 1.06179C64.1008 1.31368 64.4836 1.65838 64.7587 2.09588C65.0338 2.53007 65.1713 3.0206 65.1713 3.56747C65.1713 3.94531 65.1001 4.31487 64.9576 4.67614C64.8184 5.0374 64.5748 5.4401 64.2267 5.88423C63.8787 6.32505 63.3948 6.86032 62.775 7.49006L60.7516 9.60795V9.68253H65.3354V11H58.6337Z" fill="black"/>
</svg>
