<svg width="79" height="12" viewBox="0 0 79 12" fill="none" xmlns="http://www.w3.org/2000/svg">
<path d="M3.85795 11.1491C3.24148 11.1491 2.69129 10.9917 2.20739 10.6768C1.7268 10.3587 1.34896 9.90625 1.07386 9.3196C0.802083 8.72964 0.666193 8.02202 0.666193 7.19673C0.666193 6.37145 0.803741 5.66548 1.07884 5.07884C1.35724 4.49219 1.7384 4.04309 2.2223 3.73153C2.7062 3.41998 3.25473 3.2642 3.8679 3.2642C4.34186 3.2642 4.72301 3.34375 5.01136 3.50284C5.30303 3.65862 5.52841 3.84091 5.6875 4.04972C5.84991 4.25852 5.97585 4.44247 6.06534 4.60156H6.15483V0.818182H7.64134V11H6.18963V9.81179H6.06534C5.97585 9.9742 5.84659 10.1598 5.67756 10.3686C5.51184 10.5774 5.28314 10.7597 4.99148 10.9155C4.69981 11.0713 4.32197 11.1491 3.85795 11.1491ZM4.18608 9.88139C4.61364 9.88139 4.97491 9.7687 5.26989 9.54332C5.56818 9.31463 5.79356 8.99811 5.94602 8.59375C6.1018 8.18939 6.17969 7.71875 6.17969 7.18182C6.17969 6.65151 6.10346 6.1875 5.95099 5.78977C5.79853 5.39205 5.57481 5.08215 5.27983 4.86009C4.98485 4.63802 4.62027 4.52699 4.18608 4.52699C3.73864 4.52699 3.36577 4.64299 3.06747 4.875C2.76918 5.10701 2.5438 5.42353 2.39134 5.82457C2.24219 6.22562 2.16761 6.67803 2.16761 7.18182C2.16761 7.69223 2.24384 8.15128 2.39631 8.55895C2.54877 8.96662 2.77415 9.28977 3.07244 9.52841C3.37405 9.76373 3.74527 9.88139 4.18608 9.88139ZM11.9853 11.169C11.5014 11.169 11.0639 11.0795 10.6728 10.9006C10.2817 10.7183 9.97177 10.4548 9.74308 10.1101C9.5177 9.76539 9.40501 9.3428 9.40501 8.84233C9.40501 8.41146 9.48787 8.05682 9.65359 7.77841C9.81931 7.5 10.043 7.27959 10.3248 7.11719C10.6065 6.95478 10.9213 6.83215 11.2694 6.74929C11.6174 6.66643 11.972 6.60346 12.3333 6.56037C12.7907 6.50734 13.1619 6.46425 13.4469 6.43111C13.7319 6.39465 13.9391 6.33665 14.0684 6.2571C14.1976 6.17756 14.2623 6.0483 14.2623 5.86932V5.83452C14.2623 5.40033 14.1396 5.06392 13.8944 4.82528C13.6524 4.58665 13.2911 4.46733 12.8105 4.46733C12.3101 4.46733 11.9157 4.57836 11.6273 4.80043C11.3423 5.01918 11.1451 5.26278 11.0357 5.53125L9.63867 5.21307C9.80439 4.74905 10.0463 4.37453 10.3645 4.08949C10.686 3.80114 11.0556 3.59233 11.4732 3.46307C11.8908 3.33049 12.33 3.2642 12.7907 3.2642C13.0956 3.2642 13.4187 3.30066 13.7601 3.37358C14.1048 3.44318 14.4263 3.57244 14.7246 3.76136C15.0262 3.95028 15.2731 4.22041 15.4654 4.57173C15.6576 4.91974 15.7537 5.37216 15.7537 5.92898V11H14.302V9.95597H14.2424C14.1462 10.1482 14.0021 10.3371 13.8098 10.5227C13.6176 10.7083 13.3707 10.8625 13.0691 10.9851C12.7675 11.1077 12.4062 11.169 11.9853 11.169ZM12.3084 9.97585C12.7194 9.97585 13.0707 9.89465 13.3624 9.73224C13.6574 9.56984 13.8811 9.35772 14.0336 9.09588C14.1893 8.83073 14.2672 8.54735 14.2672 8.24574V7.26136C14.2142 7.31439 14.1114 7.36411 13.959 7.41051C13.8098 7.4536 13.6391 7.49171 13.4469 7.52486C13.2547 7.55469 13.0674 7.58286 12.8851 7.60938C12.7028 7.63258 12.5504 7.65246 12.4277 7.66903C12.1394 7.70549 11.8759 7.76681 11.6373 7.85298C11.4019 7.93916 11.213 8.06345 11.0705 8.22585C10.9313 8.38494 10.8617 8.59706 10.8617 8.86222C10.8617 9.23011 10.9976 9.50852 11.2694 9.69744C11.5411 9.88305 11.8875 9.97585 12.3084 9.97585ZM21.2983 3.36364V4.55682H17.1271V3.36364H21.2983ZM18.2457 1.53409H19.7322V8.75781C19.7322 9.04616 19.7753 9.26326 19.8615 9.40909C19.9477 9.55161 20.0587 9.64938 20.1946 9.70241C20.3338 9.75213 20.4846 9.77699 20.647 9.77699C20.7663 9.77699 20.8707 9.7687 20.9602 9.75213C21.0497 9.73556 21.1193 9.7223 21.169 9.71236L21.4375 10.9403C21.3513 10.9735 21.2287 11.0066 21.0696 11.0398C20.9105 11.0762 20.7116 11.0961 20.473 11.0994C20.0819 11.1061 19.7173 11.0365 19.3793 10.8906C19.0412 10.7448 18.7678 10.5194 18.5589 10.2145C18.3501 9.90956 18.2457 9.52675 18.2457 9.06605V1.53409ZM25.165 11.169C24.681 11.169 24.2435 11.0795 23.8525 10.9006C23.4614 10.7183 23.1515 10.4548 22.9228 10.1101C22.6974 9.76539 22.5847 9.3428 22.5847 8.84233C22.5847 8.41146 22.6676 8.05682 22.8333 7.77841C22.999 7.5 23.2227 7.27959 23.5044 7.11719C23.7862 6.95478 24.101 6.83215 24.449 6.74929C24.7971 6.66643 25.1517 6.60346 25.513 6.56037C25.9703 6.50734 26.3416 6.46425 26.6266 6.43111C26.9116 6.39465 27.1188 6.33665 27.248 6.2571C27.3773 6.17756 27.4419 6.0483 27.4419 5.86932V5.83452C27.4419 5.40033 27.3193 5.06392 27.074 4.82528C26.8321 4.58665 26.4708 4.46733 25.9902 4.46733C25.4898 4.46733 25.0953 4.57836 24.807 4.80043C24.522 5.01918 24.3248 5.26278 24.2154 5.53125L22.8184 5.21307C22.9841 4.74905 23.226 4.37453 23.5442 4.08949C23.8657 3.80114 24.2353 3.59233 24.6529 3.46307C25.0705 3.33049 25.5096 3.2642 25.9703 3.2642C26.2753 3.2642 26.5984 3.30066 26.9398 3.37358C27.2845 3.44318 27.606 3.57244 27.9043 3.76136C28.2059 3.95028 28.4528 4.22041 28.6451 4.57173C28.8373 4.91974 28.9334 5.37216 28.9334 5.92898V11H27.4817V9.95597H27.4221C27.3259 10.1482 27.1818 10.3371 26.9895 10.5227C26.7973 10.7083 26.5504 10.8625 26.2488 10.9851C25.9471 11.1077 25.5859 11.169 25.165 11.169ZM25.4881 9.97585C25.8991 9.97585 26.2504 9.89465 26.5421 9.73224C26.8371 9.56984 27.0608 9.35772 27.2132 9.09588C27.369 8.83073 27.4469 8.54735 27.4469 8.24574V7.26136C27.3939 7.31439 27.2911 7.36411 27.1387 7.41051C26.9895 7.4536 26.8188 7.49171 26.6266 7.52486C26.4344 7.55469 26.2471 7.58286 26.0648 7.60938C25.8825 7.63258 25.7301 7.65246 25.6074 7.66903C25.3191 7.70549 25.0556 7.76681 24.8169 7.85298C24.5816 7.93916 24.3927 8.06345 24.2502 8.22585C24.111 8.38494 24.0414 8.59706 24.0414 8.86222C24.0414 9.23011 24.1773 9.50852 24.449 9.69744C24.7208 9.88305 25.0672 9.97585 25.4881 9.97585ZM34.5476 3.36364V4.55682H30.2322V3.36364H34.5476ZM31.4155 11V2.47869C31.4155 2.00142 31.5199 1.60535 31.7287 1.29048C31.9375 0.972301 32.2143 0.735322 32.5589 0.579545C32.9036 0.420454 33.2782 0.340908 33.6825 0.340908C33.9808 0.340908 34.236 0.365767 34.4482 0.415483C34.6603 0.461884 34.8177 0.504971 34.9205 0.544744L34.5724 1.74787C34.5028 1.72798 34.4134 1.70478 34.304 1.67827C34.1946 1.64844 34.062 1.63352 33.9062 1.63352C33.545 1.63352 33.2865 1.72301 33.1307 1.90199C32.9782 2.08097 32.902 2.33949 32.902 2.67756V11H31.4155ZM37.5678 0.818182V11H36.0813V0.818182H37.5678ZM42.7843 11.1541C42.0684 11.1541 41.4436 10.9901 40.91 10.6619C40.3764 10.3338 39.9621 9.87476 39.6671 9.2848C39.3721 8.69484 39.2246 8.00544 39.2246 7.21662C39.2246 6.42448 39.3721 5.73177 39.6671 5.13849C39.9621 4.54522 40.3764 4.08452 40.91 3.75639C41.4436 3.42827 42.0684 3.2642 42.7843 3.2642C43.5002 3.2642 44.1249 3.42827 44.6586 3.75639C45.1922 4.08452 45.6065 4.54522 45.9015 5.13849C46.1964 5.73177 46.3439 6.42448 46.3439 7.21662C46.3439 8.00544 46.1964 8.69484 45.9015 9.2848C45.6065 9.87476 45.1922 10.3338 44.6586 10.6619C44.1249 10.9901 43.5002 11.1541 42.7843 11.1541ZM42.7892 9.90625C43.2533 9.90625 43.6377 9.78362 43.9426 9.53835C44.2476 9.29309 44.473 8.96662 44.6188 8.55895C44.7679 8.15128 44.8425 7.70218 44.8425 7.21165C44.8425 6.72443 44.7679 6.27699 44.6188 5.86932C44.473 5.45833 44.2476 5.12855 43.9426 4.87997C43.6377 4.63139 43.2533 4.5071 42.7892 4.5071C42.3219 4.5071 41.9341 4.63139 41.6259 4.87997C41.321 5.12855 41.0939 5.45833 40.9448 5.86932C40.7989 6.27699 40.726 6.72443 40.726 7.21165C40.726 7.70218 40.7989 8.15128 40.9448 8.55895C41.0939 8.96662 41.321 9.29309 41.6259 9.53835C41.9341 9.78362 42.3219 9.90625 42.7892 9.90625ZM49.4263 11L47.1792 3.36364H48.7154L50.2118 8.97159H50.2864L51.7878 3.36364H53.324L54.8155 8.94673H54.8901L56.3766 3.36364H57.9128L55.6706 11H54.1543L52.6032 5.48651H52.4888L50.9377 11H49.4263ZM63.8228 6.05327V7.34091H59.3086V6.05327H63.8228ZM69.3288 11.169C68.5433 11.1657 67.8722 10.9586 67.3153 10.5476C66.7585 10.1366 66.3326 9.53835 66.0376 8.75284C65.7427 7.96733 65.5952 7.02107 65.5952 5.91406C65.5952 4.81037 65.7427 3.86742 66.0376 3.08523C66.3359 2.30303 66.7635 1.70644 67.3203 1.29545C67.8804 0.884469 68.55 0.678977 69.3288 0.678977C70.1077 0.678977 70.7756 0.886126 71.3324 1.30043C71.8892 1.71141 72.3151 2.308 72.6101 3.0902C72.9084 3.86908 73.0575 4.81037 73.0575 5.91406C73.0575 7.02438 72.91 7.9723 72.6151 8.75781C72.3201 9.54001 71.8942 10.1383 71.3374 10.5526C70.7805 10.9635 70.111 11.169 69.3288 11.169ZM69.3288 9.84162C70.0182 9.84162 70.5568 9.50521 70.9446 8.83239C71.3357 8.15956 71.5312 7.18679 71.5312 5.91406C71.5312 5.06889 71.4418 4.35464 71.2628 3.77131C71.0871 3.18466 70.8336 2.74053 70.5021 2.43892C70.174 2.134 69.7829 1.98153 69.3288 1.98153C68.6428 1.98153 68.1042 2.3196 67.7131 2.99574C67.322 3.67187 67.1248 4.64465 67.1214 5.91406C67.1214 6.76255 67.2093 7.48011 67.3849 8.06676C67.5639 8.65009 67.8175 9.09257 68.1456 9.39418C68.4737 9.69247 68.8681 9.84162 69.3288 9.84162ZM78.6841 0.818182V11H77.1429V2.35938H77.0833L74.6472 3.95028V2.47869L77.1877 0.818182H78.6841Z" fill="black"/>
</svg>
