<svg width="103" height="15" viewBox="0 0 103 15" fill="none" xmlns="http://www.w3.org/2000/svg">
<path d="M-0.000710189 13.8636V3.36364H1.45099V4.60156H1.57528C1.66146 4.44247 1.78575 4.25852 1.94815 4.04972C2.11056 3.84091 2.33594 3.65862 2.62429 3.50284C2.91264 3.34375 3.2938 3.2642 3.76776 3.2642C4.38423 3.2642 4.93442 3.41998 5.41832 3.73153C5.90223 4.04309 6.28172 4.49219 6.55682 5.07884C6.83523 5.66548 6.97443 6.37145 6.97443 7.19673C6.97443 8.02202 6.83688 8.72964 6.56179 9.3196C6.2867 9.90625 5.90885 10.3587 5.42827 10.6768C4.94768 10.9917 4.39915 11.1491 3.78267 11.1491C3.31866 11.1491 2.93916 11.0713 2.64418 10.9155C2.35251 10.7597 2.12382 10.5774 1.9581 10.3686C1.79238 10.1598 1.66477 9.9742 1.57528 9.81179H1.4858V13.8636H-0.000710189ZM1.45597 7.18182C1.45597 7.71875 1.53385 8.18939 1.68963 8.59375C1.84541 8.99811 2.07079 9.31463 2.36577 9.54332C2.66075 9.7687 3.02202 9.88139 3.44957 9.88139C3.8937 9.88139 4.26491 9.76373 4.56321 9.52841C4.86151 9.28977 5.08688 8.96662 5.23935 8.55895C5.39512 8.15128 5.47301 7.69223 5.47301 7.18182C5.47301 6.67803 5.39678 6.22562 5.24432 5.82457C5.09517 5.42353 4.86979 5.10701 4.56818 4.875C4.26989 4.64299 3.89702 4.52699 3.44957 4.52699C3.0187 4.52699 2.65412 4.63802 2.35582 4.86009C2.06084 5.08215 1.83712 5.39205 1.68466 5.78977C1.5322 6.1875 1.45597 6.65151 1.45597 7.18182ZM10.8622 11.169C10.3783 11.169 9.94081 11.0795 9.54972 10.9006C9.15862 10.7183 8.84872 10.4548 8.62003 10.1101C8.39465 9.76539 8.28196 9.3428 8.28196 8.84233C8.28196 8.41146 8.36482 8.05682 8.53054 7.77841C8.69626 7.5 8.91998 7.27959 9.2017 7.11719C9.48343 6.95478 9.7983 6.83215 10.1463 6.74929C10.4943 6.66643 10.849 6.60346 11.2102 6.56037C11.6676 6.50734 12.0388 6.46425 12.3239 6.43111C12.6089 6.39465 12.8161 6.33665 12.9453 6.2571C13.0746 6.17756 13.1392 6.0483 13.1392 5.86932V5.83452C13.1392 5.40033 13.0166 5.06392 12.7713 4.82528C12.5294 4.58665 12.1681 4.46733 11.6875 4.46733C11.187 4.46733 10.7926 4.57836 10.5043 4.80043C10.2192 5.01918 10.022 5.26278 9.91264 5.53125L8.51562 5.21307C8.68134 4.74905 8.9233 4.37453 9.24148 4.08949C9.56297 3.80114 9.93253 3.59233 10.3501 3.46307C10.7678 3.33049 11.2069 3.2642 11.6676 3.2642C11.9725 3.2642 12.2957 3.30066 12.6371 3.37358C12.9818 3.44318 13.3033 3.57244 13.6016 3.76136C13.9032 3.95028 14.1501 4.22041 14.3423 4.57173C14.5346 4.91974 14.6307 5.37216 14.6307 5.92898V11H13.179V9.95597H13.1193C13.0232 10.1482 12.879 10.3371 12.6868 10.5227C12.4946 10.7083 12.2476 10.8625 11.946 10.9851C11.6444 11.1077 11.2831 11.169 10.8622 11.169ZM11.1854 9.97585C11.5964 9.97585 11.9477 9.89465 12.2393 9.73224C12.5343 9.56984 12.758 9.35772 12.9105 9.09588C13.0663 8.83073 13.1442 8.54735 13.1442 8.24574V7.26136C13.0911 7.31439 12.9884 7.36411 12.8359 7.41051C12.6868 7.4536 12.5161 7.49171 12.3239 7.52486C12.1316 7.55469 11.9444 7.58286 11.7621 7.60938C11.5798 7.63258 11.4273 7.65246 11.3047 7.66903C11.0163 7.70549 10.7528 7.76681 10.5142 7.85298C10.2789 7.93916 10.09 8.06345 9.94744 8.22585C9.80824 8.38494 9.73864 8.59706 9.73864 8.86222C9.73864 9.23011 9.87453 9.50852 10.1463 9.69744C10.4181 9.88305 10.7644 9.97585 11.1854 9.97585ZM19.8272 11.1541C19.0881 11.1541 18.4518 10.9867 17.9181 10.652C17.3878 10.3139 16.9802 9.84825 16.6951 9.25497C16.4101 8.66169 16.2676 7.98224 16.2676 7.21662C16.2676 6.44105 16.4134 5.75663 16.7051 5.16335C16.9967 4.56676 17.4077 4.10109 17.938 3.76633C18.4683 3.43158 19.0931 3.2642 19.8123 3.2642C20.3923 3.2642 20.9094 3.37192 21.3635 3.58736C21.8175 3.79948 22.1838 4.09777 22.4622 4.48224C22.7439 4.86671 22.9113 5.31581 22.9643 5.82955H21.5176C21.438 5.47159 21.2557 5.16335 20.9707 4.90483C20.689 4.64631 20.3111 4.51705 19.8372 4.51705C19.4229 4.51705 19.06 4.62642 18.7484 4.84517C18.4402 5.06061 18.1999 5.36884 18.0275 5.76989C17.8552 6.16761 17.769 6.63826 17.769 7.18182C17.769 7.73864 17.8535 8.21922 18.0225 8.62358C18.1916 9.02794 18.4302 9.34115 18.7385 9.56321C19.05 9.78527 19.4163 9.89631 19.8372 9.89631C20.1189 9.89631 20.3741 9.84493 20.6028 9.74219C20.8348 9.63613 21.0287 9.48532 21.1845 9.28977C21.3436 9.09422 21.4546 8.8589 21.5176 8.58381H22.9643C22.9113 9.07765 22.7505 9.51847 22.4821 9.90625C22.2136 10.294 21.854 10.599 21.4032 10.821C20.9558 11.0431 20.4305 11.1541 19.8272 11.1541ZM25.9212 8.4098L25.9112 6.59517H26.1697L29.2124 3.36364H30.9922L27.522 7.04261H27.2884L25.9212 8.4098ZM24.554 11V0.818182H26.0405V11H24.554ZM29.3764 11L26.642 7.37074L27.6662 6.33168L31.201 11H29.3764ZM34.5692 11.169C34.0853 11.169 33.6478 11.0795 33.2567 10.9006C32.8656 10.7183 32.5558 10.4548 32.3271 10.1101C32.1017 9.76539 31.989 9.3428 31.989 8.84233C31.989 8.41146 32.0719 8.05682 32.2376 7.77841C32.4033 7.5 32.627 7.27959 32.9087 7.11719C33.1905 6.95478 33.5053 6.83215 33.8533 6.74929C34.2013 6.66643 34.556 6.60346 34.9173 6.56037C35.3746 6.50734 35.7459 6.46425 36.0309 6.43111C36.3159 6.39465 36.5231 6.33665 36.6523 6.2571C36.7816 6.17756 36.8462 6.0483 36.8462 5.86932V5.83452C36.8462 5.40033 36.7236 5.06392 36.4783 4.82528C36.2364 4.58665 35.8751 4.46733 35.3945 4.46733C34.8941 4.46733 34.4996 4.57836 34.2113 4.80043C33.9263 5.01918 33.729 5.26278 33.6197 5.53125L32.2227 5.21307C32.3884 4.74905 32.6303 4.37453 32.9485 4.08949C33.27 3.80114 33.6396 3.59233 34.0572 3.46307C34.4748 3.33049 34.9139 3.2642 35.3746 3.2642C35.6796 3.2642 36.0027 3.30066 36.3441 3.37358C36.6888 3.44318 37.0103 3.57244 37.3086 3.76136C37.6102 3.95028 37.8571 4.22041 38.0494 4.57173C38.2416 4.91974 38.3377 5.37216 38.3377 5.92898V11H36.886V9.95597H36.8263C36.7302 10.1482 36.5861 10.3371 36.3938 10.5227C36.2016 10.7083 35.9547 10.8625 35.6531 10.9851C35.3514 11.1077 34.9902 11.169 34.5692 11.169ZM34.8924 9.97585C35.3034 9.97585 35.6547 9.89465 35.9464 9.73224C36.2414 9.56984 36.4651 9.35772 36.6175 9.09588C36.7733 8.83073 36.8512 8.54735 36.8512 8.24574V7.26136C36.7982 7.31439 36.6954 7.36411 36.543 7.41051C36.3938 7.4536 36.2231 7.49171 36.0309 7.52486C35.8387 7.55469 35.6514 7.58286 35.4691 7.60938C35.2868 7.63258 35.1344 7.65246 35.0117 7.66903C34.7234 7.70549 34.4599 7.76681 34.2212 7.85298C33.9859 7.93916 33.797 8.06345 33.6545 8.22585C33.5153 8.38494 33.4457 8.59706 33.4457 8.86222C33.4457 9.23011 33.5816 9.50852 33.8533 9.69744C34.1251 9.88305 34.4715 9.97585 34.8924 9.97585ZM43.5194 14.0227C42.9128 14.0227 42.3908 13.9432 41.9533 13.7841C41.5191 13.625 41.1645 13.4145 40.8894 13.1527C40.6143 12.8909 40.4088 12.6042 40.2729 12.2926L41.5506 11.7656C41.6401 11.9115 41.7594 12.0656 41.9086 12.228C42.061 12.3937 42.2665 12.5346 42.525 12.6506C42.7869 12.7666 43.1233 12.8246 43.5343 12.8246C44.0977 12.8246 44.5634 12.687 44.9313 12.4119C45.2992 12.1402 45.4831 11.706 45.4831 11.1094V9.60795H45.3887C45.2992 9.77036 45.1699 9.95099 45.0009 10.1499C44.8352 10.3487 44.6065 10.5211 44.3148 10.6669C44.0231 10.8127 43.6436 10.8857 43.1763 10.8857C42.5731 10.8857 42.0295 10.7448 41.5456 10.4631C41.065 10.178 40.6839 9.75876 40.4022 9.20526C40.1238 8.64844 39.9846 7.96401 39.9846 7.15199C39.9846 6.33996 40.1221 5.64394 40.3972 5.06392C40.6756 4.4839 41.0568 4.03977 41.5407 3.73153C42.0246 3.41998 42.5731 3.2642 43.1863 3.2642C43.6602 3.2642 44.043 3.34375 44.3347 3.50284C44.6264 3.65862 44.8534 3.84091 45.0158 4.04972C45.1815 4.25852 45.3091 4.44247 45.3986 4.60156H45.508V3.36364H46.9647V11.169C46.9647 11.8253 46.8122 12.3639 46.5073 12.7848C46.2024 13.2057 45.7897 13.5173 45.2694 13.7195C44.7523 13.9216 44.169 14.0227 43.5194 14.0227ZM43.5044 9.6527C43.932 9.6527 44.2933 9.55327 44.5882 9.3544C44.8865 9.15223 45.1119 8.86387 45.2644 8.48935C45.4202 8.11151 45.498 7.65909 45.498 7.1321C45.498 6.61837 45.4218 6.16596 45.2694 5.77486C45.1169 5.38376 44.8932 5.07884 44.5982 4.86009C44.3032 4.63802 43.9386 4.52699 43.5044 4.52699C43.057 4.52699 42.6841 4.64299 42.3858 4.875C42.0875 5.10369 41.8622 5.41525 41.7097 5.80966C41.5605 6.20407 41.486 6.64489 41.486 7.1321C41.486 7.63258 41.5622 8.07173 41.7147 8.44957C41.8671 8.82741 42.0925 9.1224 42.3908 9.33452C42.6924 9.54664 43.0636 9.6527 43.5044 9.6527ZM52.2495 11.1541C51.4971 11.1541 50.8491 10.9934 50.3056 10.6719C49.7653 10.3471 49.3477 9.89134 49.0527 9.30469C48.7611 8.71473 48.6152 8.02367 48.6152 7.23153C48.6152 6.44934 48.7611 5.75994 49.0527 5.16335C49.3477 4.56676 49.7587 4.10109 50.2857 3.76633C50.816 3.43158 51.4358 3.2642 52.1451 3.2642C52.5759 3.2642 52.9935 3.33546 53.3979 3.47798C53.8023 3.6205 54.1652 3.84422 54.4867 4.14915C54.8082 4.45407 55.0617 4.85014 55.2473 5.33736C55.4329 5.82126 55.5257 6.40956 55.5257 7.10227V7.62926H49.4554V6.51562H54.0691C54.0691 6.12453 53.9895 5.77817 53.8304 5.47656C53.6713 5.17164 53.4476 4.93134 53.1593 4.75568C52.8742 4.58002 52.5395 4.49219 52.155 4.49219C51.7374 4.49219 51.3728 4.59493 51.0613 4.80043C50.753 5.0026 50.5144 5.26776 50.3453 5.59588C50.1796 5.92069 50.0968 6.27367 50.0968 6.65483V7.52486C50.0968 8.03527 50.1863 8.46946 50.3652 8.82741C50.5475 9.18537 50.8011 9.45881 51.1259 9.64773C51.4507 9.83333 51.8302 9.92614 52.2644 9.92614C52.5461 9.92614 52.803 9.88636 53.035 9.80682C53.267 9.72396 53.4675 9.60133 53.6365 9.43892C53.8056 9.27652 53.9348 9.07599 54.0243 8.83736L55.4313 9.09091C55.3186 9.50521 55.1164 9.86813 54.8248 10.1797C54.5364 10.4879 54.1735 10.7282 53.736 10.9006C53.3018 11.0696 52.8063 11.1541 52.2495 11.1541ZM61.6744 6.05327V7.34091H57.1602V6.05327H61.6744ZM66.8722 11.1541C66.133 11.1541 65.4967 10.9867 64.9631 10.652C64.4328 10.3139 64.0251 9.84825 63.7401 9.25497C63.455 8.66169 63.3125 7.98224 63.3125 7.21662C63.3125 6.44105 63.4583 5.75663 63.75 5.16335C64.0417 4.56676 64.4527 4.10109 64.983 3.76633C65.5133 3.43158 66.138 3.2642 66.8572 3.2642C67.4373 3.2642 67.9543 3.37192 68.4084 3.58736C68.8625 3.79948 69.2287 4.09777 69.5071 4.48224C69.7888 4.86671 69.9562 5.31581 70.0092 5.82955H68.5625C68.483 5.47159 68.3007 5.16335 68.0156 4.90483C67.7339 4.64631 67.3561 4.51705 66.8821 4.51705C66.4678 4.51705 66.1049 4.62642 65.7933 4.84517C65.4851 5.06061 65.2448 5.36884 65.0724 5.76989C64.9001 6.16761 64.8139 6.63826 64.8139 7.18182C64.8139 7.73864 64.8984 8.21922 65.0675 8.62358C65.2365 9.02794 65.4751 9.34115 65.7834 9.56321C66.0949 9.78527 66.4612 9.89631 66.8821 9.89631C67.1638 9.89631 67.419 9.84493 67.6477 9.74219C67.8797 9.63613 68.0736 9.48532 68.2294 9.28977C68.3885 9.09422 68.4995 8.8589 68.5625 8.58381H70.0092C69.9562 9.07765 69.7955 9.51847 69.527 9.90625C69.2585 10.294 68.8989 10.599 68.4482 10.821C68.0007 11.0431 67.4754 11.1541 66.8722 11.1541ZM73.0854 6.46591V11H71.5989V0.818182H73.0655V4.60653H73.16C73.339 4.19555 73.6124 3.86908 73.9803 3.62713C74.3482 3.38518 74.8288 3.2642 75.4221 3.2642C75.9457 3.2642 76.4031 3.37192 76.7942 3.58736C77.1886 3.80279 77.4935 4.12429 77.709 4.55185C77.9277 4.97609 78.0371 5.50639 78.0371 6.14276V11H76.5506V6.32173C76.5506 5.7616 76.4064 5.32741 76.1181 5.01918C75.8297 4.70762 75.4287 4.55185 74.915 4.55185C74.5636 4.55185 74.2488 4.62642 73.9703 4.77557C73.6953 4.92472 73.4782 5.14347 73.3191 5.43182C73.1633 5.71686 73.0854 6.06155 73.0854 6.46591ZM83.312 11.1541C82.5596 11.1541 81.9116 10.9934 81.3681 10.6719C80.8278 10.3471 80.4102 9.89134 80.1152 9.30469C79.8236 8.71473 79.6777 8.02367 79.6777 7.23153C79.6777 6.44934 79.8236 5.75994 80.1152 5.16335C80.4102 4.56676 80.8212 4.10109 81.3482 3.76633C81.8785 3.43158 82.4983 3.2642 83.2076 3.2642C83.6384 3.2642 84.056 3.33546 84.4604 3.47798C84.8648 3.6205 85.2277 3.84422 85.5492 4.14915C85.8707 4.45407 86.1242 4.85014 86.3098 5.33736C86.4954 5.82126 86.5882 6.40956 86.5882 7.10227V7.62926H80.5179V6.51562H85.1316C85.1316 6.12453 85.052 5.77817 84.8929 5.47656C84.7338 5.17164 84.5101 4.93134 84.2218 4.75568C83.9367 4.58002 83.602 4.49219 83.2175 4.49219C82.7999 4.49219 82.4353 4.59493 82.1238 4.80043C81.8155 5.0026 81.5769 5.26776 81.4078 5.59588C81.2421 5.92069 81.1593 6.27367 81.1593 6.65483V7.52486C81.1593 8.03527 81.2488 8.46946 81.4277 8.82741C81.61 9.18537 81.8636 9.45881 82.1884 9.64773C82.5132 9.83333 82.8927 9.92614 83.3269 9.92614C83.6086 9.92614 83.8655 9.88636 84.0975 9.80682C84.3295 9.72396 84.53 9.60133 84.699 9.43892C84.8681 9.27652 84.9973 9.07599 85.0868 8.83736L86.4938 9.09091C86.3811 9.50521 86.1789 9.86813 85.8873 10.1797C85.5989 10.4879 85.236 10.7282 84.7985 10.9006C84.3643 11.0696 83.8688 11.1541 83.312 11.1541ZM91.4542 11.1541C90.7151 11.1541 90.0787 10.9867 89.5451 10.652C89.0148 10.3139 88.6071 9.84825 88.3221 9.25497C88.0371 8.66169 87.8945 7.98224 87.8945 7.21662C87.8945 6.44105 88.0404 5.75663 88.332 5.16335C88.6237 4.56676 89.0347 4.10109 89.565 3.76633C90.0953 3.43158 90.7201 3.2642 91.4393 3.2642C92.0193 3.2642 92.5363 3.37192 92.9904 3.58736C93.4445 3.79948 93.8107 4.09777 94.0891 4.48224C94.3709 4.86671 94.5382 5.31581 94.5913 5.82955H93.1445C93.065 5.47159 92.8827 5.16335 92.5977 4.90483C92.3159 4.64631 91.9381 4.51705 91.4641 4.51705C91.0498 4.51705 90.6869 4.62642 90.3754 4.84517C90.0671 5.06061 89.8268 5.36884 89.6545 5.76989C89.4821 6.16761 89.396 6.63826 89.396 7.18182C89.396 7.73864 89.4805 8.21922 89.6495 8.62358C89.8185 9.02794 90.0572 9.34115 90.3654 9.56321C90.677 9.78527 91.0432 9.89631 91.4641 9.89631C91.7459 9.89631 92.0011 9.84493 92.2298 9.74219C92.4618 9.63613 92.6557 9.48532 92.8114 9.28977C92.9705 9.09422 93.0816 8.8589 93.1445 8.58381H94.5913C94.5382 9.07765 94.3775 9.51847 94.109 9.90625C93.8406 10.294 93.4809 10.599 93.0302 10.821C92.5827 11.0431 92.0574 11.1541 91.4542 11.1541ZM97.5481 8.4098L97.5382 6.59517H97.7967L100.839 3.36364H102.619L99.149 7.04261H98.9153L97.5481 8.4098ZM96.1809 11V0.818182H97.6674V11H96.1809ZM101.003 11L98.269 7.37074L99.2931 6.33168L102.828 11H101.003Z" fill="black"/>
</svg>
