<svg width="68" height="12" viewBox="0 0 68 12" fill="none" xmlns="http://www.w3.org/2000/svg">
<path d="M0.118608 11V0.818182H1.60511V4.60156H1.6946C1.78078 4.44247 1.90507 4.25852 2.06747 4.04972C2.22988 3.84091 2.45526 3.65862 2.74361 3.50284C3.03196 3.34375 3.41312 3.2642 3.88707 3.2642C4.50355 3.2642 5.05374 3.41998 5.53764 3.73153C6.02154 4.04309 6.40104 4.49219 6.67614 5.07884C6.95455 5.66548 7.09375 6.37145 7.09375 7.19673C7.09375 8.02202 6.9562 8.72964 6.68111 9.3196C6.40601 9.90625 6.02817 10.3587 5.54759 10.6768C5.067 10.9917 4.51847 11.1491 3.90199 11.1491C3.43797 11.1491 3.05848 11.0713 2.76349 10.9155C2.47183 10.7597 2.24313 10.5774 2.07741 10.3686C1.9117 10.1598 1.78409 9.9742 1.6946 9.81179H1.57031V11H0.118608ZM1.57528 7.18182C1.57528 7.71875 1.65317 8.18939 1.80895 8.59375C1.96473 8.99811 2.1901 9.31463 2.48509 9.54332C2.78007 9.7687 3.14134 9.88139 3.56889 9.88139C4.01302 9.88139 4.38423 9.76373 4.68253 9.52841C4.98082 9.28977 5.2062 8.96662 5.35866 8.55895C5.51444 8.15128 5.59233 7.69223 5.59233 7.18182C5.59233 6.67803 5.5161 6.22562 5.36364 5.82457C5.21449 5.42353 4.98911 5.10701 4.6875 4.875C4.3892 4.64299 4.01634 4.52699 3.56889 4.52699C3.13802 4.52699 2.77344 4.63802 2.47514 4.86009C2.18016 5.08215 1.95644 5.39205 1.80398 5.78977C1.65152 6.1875 1.57528 6.65151 1.57528 7.18182ZM12.0542 11.1541C11.3018 11.1541 10.6538 10.9934 10.1103 10.6719C9.57002 10.3471 9.1524 9.89134 8.85742 9.30469C8.56576 8.71473 8.41992 8.02367 8.41992 7.23153C8.41992 6.44934 8.56576 5.75994 8.85742 5.16335C9.1524 4.56676 9.56339 4.10109 10.0904 3.76633C10.6207 3.43158 11.2405 3.2642 11.9498 3.2642C12.3806 3.2642 12.7982 3.33546 13.2026 3.47798C13.6069 3.6205 13.9699 3.84422 14.2914 4.14915C14.6129 4.45407 14.8664 4.85014 15.052 5.33736C15.2376 5.82126 15.3304 6.40956 15.3304 7.10227V7.62926H9.26012V6.51562H13.8738C13.8738 6.12453 13.7942 5.77817 13.6351 5.47656C13.476 5.17164 13.2523 4.93134 12.964 4.75568C12.6789 4.58002 12.3442 4.49219 11.9597 4.49219C11.5421 4.49219 11.1775 4.59493 10.8659 4.80043C10.5577 5.0026 10.3191 5.26776 10.15 5.59588C9.98432 5.92069 9.90146 6.27367 9.90146 6.65483V7.52486C9.90146 8.03527 9.99094 8.46946 10.1699 8.82741C10.3522 9.18537 10.6058 9.45881 10.9306 9.64773C11.2554 9.83333 11.6349 9.92614 12.0691 9.92614C12.3508 9.92614 12.6077 9.88636 12.8397 9.80682C13.0717 9.72396 13.2722 9.60133 13.4412 9.43892C13.6103 9.27652 13.7395 9.07599 13.829 8.83736L15.236 9.09091C15.1233 9.50521 14.9211 9.86813 14.6294 10.1797C14.3411 10.4879 13.9782 10.7282 13.5407 10.9006C13.1065 11.0696 12.611 11.1541 12.0542 11.1541ZM19.2021 11.169C18.7182 11.169 18.2807 11.0795 17.8896 10.9006C17.4985 10.7183 17.1886 10.4548 16.9599 10.1101C16.7345 9.76539 16.6218 9.3428 16.6218 8.84233C16.6218 8.41146 16.7047 8.05682 16.8704 7.77841C17.0361 7.5 17.2598 7.27959 17.5415 7.11719C17.8233 6.95478 18.1381 6.83215 18.4862 6.74929C18.8342 6.66643 19.1888 6.60346 19.5501 6.56037C20.0075 6.50734 20.3787 6.46425 20.6637 6.43111C20.9487 6.39465 21.1559 6.33665 21.2852 6.2571C21.4144 6.17756 21.479 6.0483 21.479 5.86932V5.83452C21.479 5.40033 21.3564 5.06392 21.1112 4.82528C20.8692 4.58665 20.5079 4.46733 20.0273 4.46733C19.5269 4.46733 19.1325 4.57836 18.8441 4.80043C18.5591 5.01918 18.3619 5.26278 18.2525 5.53125L16.8555 5.21307C17.0212 4.74905 17.2631 4.37453 17.5813 4.08949C17.9028 3.80114 18.2724 3.59233 18.69 3.46307C19.1076 3.33049 19.5468 3.2642 20.0075 3.2642C20.3124 3.2642 20.6355 3.30066 20.9769 3.37358C21.3216 3.44318 21.6431 3.57244 21.9414 3.76136C22.243 3.95028 22.4899 4.22041 22.6822 4.57173C22.8744 4.91974 22.9705 5.37216 22.9705 5.92898V11H21.5188V9.95597H21.4592C21.363 10.1482 21.2189 10.3371 21.0266 10.5227C20.8344 10.7083 20.5875 10.8625 20.2859 10.9851C19.9843 11.1077 19.623 11.169 19.2021 11.169ZM19.5252 9.97585C19.9362 9.97585 20.2875 9.89465 20.5792 9.73224C20.8742 9.56984 21.0979 9.35772 21.2504 9.09588C21.4061 8.83073 21.484 8.54735 21.484 8.24574V7.26136C21.431 7.31439 21.3282 7.36411 21.1758 7.41051C21.0266 7.4536 20.8559 7.49171 20.6637 7.52486C20.4715 7.55469 20.2842 7.58286 20.1019 7.60938C19.9196 7.63258 19.7672 7.65246 19.6445 7.66903C19.3562 7.70549 19.0927 7.76681 18.854 7.85298C18.6187 7.93916 18.4298 8.06345 18.2873 8.22585C18.1481 8.38494 18.0785 8.59706 18.0785 8.86222C18.0785 9.23011 18.2144 9.50852 18.4862 9.69744C18.7579 9.88305 19.1043 9.97585 19.5252 9.97585ZM26.3176 8.4098L26.3077 6.59517H26.5662L29.6088 3.36364H31.3887L27.9185 7.04261H27.6848L26.3176 8.4098ZM24.9505 11V0.818182H26.437V11H24.9505ZM29.7729 11L27.0385 7.37074L28.0627 6.33168L31.5975 11H29.7729ZM35.7202 11.1541C34.9678 11.1541 34.3198 10.9934 33.7763 10.6719C33.236 10.3471 32.8184 9.89134 32.5234 9.30469C32.2318 8.71473 32.0859 8.02367 32.0859 7.23153C32.0859 6.44934 32.2318 5.75994 32.5234 5.16335C32.8184 4.56676 33.2294 4.10109 33.7564 3.76633C34.2867 3.43158 34.9065 3.2642 35.6158 3.2642C36.0466 3.2642 36.4643 3.33546 36.8686 3.47798C37.273 3.6205 37.6359 3.84422 37.9574 4.14915C38.2789 4.45407 38.5324 4.85014 38.718 5.33736C38.9036 5.82126 38.9964 6.40956 38.9964 7.10227V7.62926H32.9261V6.51562H37.5398C37.5398 6.12453 37.4602 5.77817 37.3011 5.47656C37.142 5.17164 36.9183 4.93134 36.63 4.75568C36.3449 4.58002 36.0102 4.49219 35.6257 4.49219C35.2081 4.49219 34.8435 4.59493 34.532 4.80043C34.2237 5.0026 33.9851 5.26776 33.8161 5.59588C33.6503 5.92069 33.5675 6.27367 33.5675 6.65483V7.52486C33.5675 8.03527 33.657 8.46946 33.8359 8.82741C34.0182 9.18537 34.2718 9.45881 34.5966 9.64773C34.9214 9.83333 35.3009 9.92614 35.7351 9.92614C36.0168 9.92614 36.2737 9.88636 36.5057 9.80682C36.7377 9.72396 36.9382 9.60133 37.1072 9.43892C37.2763 9.27652 37.4055 9.07599 37.495 8.83736L38.902 9.09091C38.7893 9.50521 38.5871 9.86813 38.2955 10.1797C38.0071 10.4879 37.6442 10.7282 37.2067 10.9006C36.7725 11.0696 36.277 11.1541 35.7202 11.1541ZM40.6458 11V3.36364H42.0826V4.5767H42.1621C42.3013 4.16572 42.5466 3.84257 42.8979 3.60724C43.2525 3.36861 43.6536 3.24929 44.101 3.24929C44.1938 3.24929 44.3032 3.2526 44.4292 3.25923C44.5584 3.26586 44.6595 3.27415 44.7324 3.28409V4.70597C44.6728 4.68939 44.5667 4.67116 44.4142 4.65128C44.2618 4.62808 44.1093 4.61648 43.9569 4.61648C43.6055 4.61648 43.2923 4.69105 43.0172 4.8402C42.7454 4.98603 42.53 5.18987 42.3709 5.4517C42.2118 5.71023 42.1323 6.00521 42.1323 6.33665V11H40.6458ZM50.0669 6.05327V7.34091H45.5527V6.05327H50.0669ZM55.573 11.169C54.7875 11.1657 54.1163 10.9586 53.5595 10.5476C53.0027 10.1366 52.5768 9.53835 52.2818 8.75284C51.9868 7.96733 51.8393 7.02107 51.8393 5.91406C51.8393 4.81037 51.9868 3.86742 52.2818 3.08523C52.5801 2.30303 53.0076 1.70644 53.5645 1.29545C54.1246 0.884469 54.7941 0.678977 55.573 0.678977C56.3519 0.678977 57.0197 0.886126 57.5765 1.30043C58.1333 1.71141 58.5592 2.308 58.8542 3.0902C59.1525 3.86908 59.3017 4.81037 59.3017 5.91406C59.3017 7.02438 59.1542 7.9723 58.8592 8.75781C58.5642 9.54001 58.1383 10.1383 57.5815 10.5526C57.0247 10.9635 56.3552 11.169 55.573 11.169ZM55.573 9.84162C56.2624 9.84162 56.801 9.50521 57.1887 8.83239C57.5798 8.15956 57.7754 7.18679 57.7754 5.91406C57.7754 5.06889 57.6859 4.35464 57.5069 3.77131C57.3313 3.18466 57.0777 2.74053 56.7463 2.43892C56.4181 2.134 56.027 1.98153 55.573 1.98153C54.8869 1.98153 54.3483 2.3196 53.9572 2.99574C53.5661 3.67187 53.3689 4.64465 53.3656 5.91406C53.3656 6.76255 53.4534 7.48011 53.6291 8.06676C53.8081 8.65009 54.0616 9.09257 54.3897 9.39418C54.7179 9.69247 55.1123 9.84162 55.573 9.84162ZM61.0653 11V9.88636L64.5107 6.31676C64.8786 5.92898 65.1818 5.58925 65.4205 5.29759C65.6624 5.0026 65.843 4.72254 65.9624 4.45739C66.0817 4.19223 66.1413 3.91051 66.1413 3.61222C66.1413 3.27415 66.0618 2.98248 65.9027 2.73722C65.7436 2.48864 65.5265 2.29806 65.2514 2.16548C64.9763 2.02959 64.6664 1.96165 64.3217 1.96165C63.9571 1.96165 63.639 2.03622 63.3672 2.18537C63.0954 2.33452 62.8866 2.54498 62.7408 2.81676C62.5949 3.08854 62.522 3.40672 62.522 3.77131H61.0554C61.0554 3.15151 61.1979 2.60961 61.483 2.1456C61.768 1.68158 62.1591 1.32197 62.6562 1.06676C63.1534 0.808238 63.7185 0.678977 64.3516 0.678977C64.9912 0.678977 65.5547 0.806581 66.0419 1.06179C66.5324 1.31368 66.9152 1.65838 67.1903 2.09588C67.4654 2.53007 67.603 3.0206 67.603 3.56747C67.603 3.94531 67.5317 4.31487 67.3892 4.67614C67.25 5.0374 67.0064 5.4401 66.6584 5.88423C66.3104 6.32505 65.8265 6.86032 65.2067 7.49006L63.1832 9.60795V9.68253H67.767V11H61.0653Z" fill="black"/>
</svg>
