<svg width="66" height="12" viewBox="0 0 66 12" fill="none" xmlns="http://www.w3.org/2000/svg">
<path d="M4.21591 11.1541C3.4768 11.1541 2.84044 10.9867 2.30682 10.652C1.77652 10.3139 1.36884 9.84825 1.08381 9.25497C0.798769 8.66169 0.65625 7.98224 0.65625 7.21662C0.65625 6.44105 0.802083 5.75663 1.09375 5.16335C1.38542 4.56676 1.7964 4.10109 2.3267 3.76633C2.85701 3.43158 3.48177 3.2642 4.20099 3.2642C4.78101 3.2642 5.29806 3.37192 5.75213 3.58736C6.2062 3.79948 6.57244 4.09777 6.85085 4.48224C7.13258 4.86671 7.29995 5.31581 7.35298 5.82955H5.90625C5.8267 5.47159 5.64441 5.16335 5.35938 4.90483C5.07765 4.64631 4.69981 4.51705 4.22585 4.51705C3.81155 4.51705 3.44863 4.62642 3.13707 4.84517C2.82884 5.06061 2.58854 5.36884 2.41619 5.76989C2.24384 6.16761 2.15767 6.63826 2.15767 7.18182C2.15767 7.73864 2.24219 8.21922 2.41122 8.62358C2.58026 9.02794 2.81889 9.34115 3.12713 9.56321C3.43868 9.78527 3.80492 9.89631 4.22585 9.89631C4.50758 9.89631 4.76278 9.84493 4.99148 9.74219C5.22349 9.63613 5.41738 9.48532 5.57315 9.28977C5.73224 9.09422 5.84328 8.8589 5.90625 8.58381H7.35298C7.29995 9.07765 7.1392 9.51847 6.87074 9.90625C6.60227 10.294 6.24266 10.599 5.7919 10.821C5.34446 11.0431 4.81913 11.1541 4.21591 11.1541ZM11.165 11.169C10.681 11.169 10.2435 11.0795 9.85245 10.9006C9.46135 10.7183 9.15146 10.4548 8.92276 10.1101C8.69738 9.76539 8.58469 9.3428 8.58469 8.84233C8.58469 8.41146 8.66755 8.05682 8.83327 7.77841C8.99899 7.5 9.22272 7.27959 9.50444 7.11719C9.78616 6.95478 10.101 6.83215 10.449 6.74929C10.7971 6.66643 11.1517 6.60346 11.513 6.56037C11.9703 6.50734 12.3416 6.46425 12.6266 6.43111C12.9116 6.39465 13.1188 6.33665 13.248 6.2571C13.3773 6.17756 13.4419 6.0483 13.4419 5.86932V5.83452C13.4419 5.40033 13.3193 5.06392 13.074 4.82528C12.8321 4.58665 12.4708 4.46733 11.9902 4.46733C11.4898 4.46733 11.0953 4.57836 10.807 4.80043C10.522 5.01918 10.3248 5.26278 10.2154 5.53125L8.81836 5.21307C8.98408 4.74905 9.22603 4.37453 9.54421 4.08949C9.86571 3.80114 10.2353 3.59233 10.6529 3.46307C11.0705 3.33049 11.5096 3.2642 11.9703 3.2642C12.2753 3.2642 12.5984 3.30066 12.9398 3.37358C13.2845 3.44318 13.606 3.57244 13.9043 3.76136C14.2059 3.95028 14.4528 4.22041 14.6451 4.57173C14.8373 4.91974 14.9334 5.37216 14.9334 5.92898V11H13.4817V9.95597H13.4221C13.3259 10.1482 13.1818 10.3371 12.9895 10.5227C12.7973 10.7083 12.5504 10.8625 12.2488 10.9851C11.9471 11.1077 11.5859 11.169 11.165 11.169ZM11.4881 9.97585C11.8991 9.97585 12.2504 9.89465 12.5421 9.73224C12.8371 9.56984 13.0608 9.35772 13.2132 9.09588C13.369 8.83073 13.4469 8.54735 13.4469 8.24574V7.26136C13.3939 7.31439 13.2911 7.36411 13.1387 7.41051C12.9895 7.4536 12.8188 7.49171 12.6266 7.52486C12.4344 7.55469 12.2471 7.58286 12.0648 7.60938C11.8825 7.63258 11.7301 7.65246 11.6074 7.66903C11.3191 7.70549 11.0556 7.76681 10.8169 7.85298C10.5816 7.93916 10.3927 8.06345 10.2502 8.22585C10.111 8.38494 10.0414 8.59706 10.0414 8.86222C10.0414 9.23011 10.1773 9.50852 10.449 9.69744C10.7208 9.88305 11.0672 9.97585 11.4881 9.97585ZM18.3999 0.818182V11H16.9134V0.818182H18.3999ZM23.6163 11.1541C22.8772 11.1541 22.2408 10.9867 21.7072 10.652C21.1769 10.3139 20.7692 9.84825 20.4842 9.25497C20.1992 8.66169 20.0566 7.98224 20.0566 7.21662C20.0566 6.44105 20.2025 5.75663 20.4941 5.16335C20.7858 4.56676 21.1968 4.10109 21.7271 3.76633C22.2574 3.43158 22.8822 3.2642 23.6014 3.2642C24.1814 3.2642 24.6984 3.37192 25.1525 3.58736C25.6066 3.79948 25.9728 4.09777 26.2512 4.48224C26.533 4.86671 26.7003 5.31581 26.7534 5.82955H25.3066C25.2271 5.47159 25.0448 5.16335 24.7598 4.90483C24.478 4.64631 24.1002 4.51705 23.6262 4.51705C23.2119 4.51705 22.849 4.62642 22.5375 4.84517C22.2292 5.06061 21.9889 5.36884 21.8166 5.76989C21.6442 6.16761 21.5581 6.63826 21.5581 7.18182C21.5581 7.73864 21.6426 8.21922 21.8116 8.62358C21.9806 9.02794 22.2193 9.34115 22.5275 9.56321C22.8391 9.78527 23.2053 9.89631 23.6262 9.89631C23.908 9.89631 24.1632 9.84493 24.3919 9.74219C24.6239 9.63613 24.8178 9.48532 24.9735 9.28977C25.1326 9.09422 25.2437 8.8589 25.3066 8.58381H26.7534C26.7003 9.07765 26.5396 9.51847 26.2711 9.90625C26.0027 10.294 25.6431 10.599 25.1923 10.821C24.7449 11.0431 24.2195 11.1541 23.6163 11.1541ZM33.1804 7.8331V3.36364H34.6719V11H33.2102V9.67756H33.1307C32.955 10.0852 32.6733 10.425 32.2855 10.6967C31.901 10.9652 31.4221 11.0994 30.8487 11.0994C30.3582 11.0994 29.924 10.9917 29.5462 10.7763C29.1716 10.5575 28.8767 10.2344 28.6612 9.80682C28.4491 9.37926 28.343 8.85062 28.343 8.22088V3.36364H29.8295V8.0419C29.8295 8.56226 29.9737 8.97656 30.2621 9.2848C30.5504 9.59304 30.925 9.74716 31.3857 9.74716C31.6641 9.74716 31.9408 9.67756 32.2159 9.53835C32.4943 9.39915 32.7247 9.18868 32.907 8.90696C33.0926 8.62524 33.1837 8.26728 33.1804 7.8331ZM38.1557 0.818182V11H36.6692V0.818182H38.1557ZM42.3778 11.169C41.8939 11.169 41.4564 11.0795 41.0653 10.9006C40.6742 10.7183 40.3643 10.4548 40.1357 10.1101C39.9103 9.76539 39.7976 9.3428 39.7976 8.84233C39.7976 8.41146 39.8804 8.05682 40.0462 7.77841C40.2119 7.5 40.4356 7.27959 40.7173 7.11719C40.9991 6.95478 41.3139 6.83215 41.6619 6.74929C42.0099 6.66643 42.3646 6.60346 42.7259 6.56037C43.1832 6.50734 43.5545 6.46425 43.8395 6.43111C44.1245 6.39465 44.3317 6.33665 44.4609 6.2571C44.5902 6.17756 44.6548 6.0483 44.6548 5.86932V5.83452C44.6548 5.40033 44.5322 5.06392 44.2869 4.82528C44.045 4.58665 43.6837 4.46733 43.2031 4.46733C42.7027 4.46733 42.3082 4.57836 42.0199 4.80043C41.7348 5.01918 41.5376 5.26278 41.4283 5.53125L40.0312 5.21307C40.197 4.74905 40.4389 4.37453 40.7571 4.08949C41.0786 3.80114 41.4482 3.59233 41.8658 3.46307C42.2834 3.33049 42.7225 3.2642 43.1832 3.2642C43.4882 3.2642 43.8113 3.30066 44.1527 3.37358C44.4974 3.44318 44.8189 3.57244 45.1172 3.76136C45.4188 3.95028 45.6657 4.22041 45.858 4.57173C46.0502 4.91974 46.1463 5.37216 46.1463 5.92898V11H44.6946V9.95597H44.6349C44.5388 10.1482 44.3946 10.3371 44.2024 10.5227C44.0102 10.7083 43.7633 10.8625 43.4616 10.9851C43.16 11.1077 42.7988 11.169 42.3778 11.169ZM42.701 9.97585C43.112 9.97585 43.4633 9.89465 43.755 9.73224C44.05 9.56984 44.2737 9.35772 44.4261 9.09588C44.5819 8.83073 44.6598 8.54735 44.6598 8.24574V7.26136C44.6068 7.31439 44.504 7.36411 44.3516 7.41051C44.2024 7.4536 44.0317 7.49171 43.8395 7.52486C43.6473 7.55469 43.46 7.58286 43.2777 7.60938C43.0954 7.63258 42.9429 7.65246 42.8203 7.66903C42.532 7.70549 42.2685 7.76681 42.0298 7.85298C41.7945 7.93916 41.6056 8.06345 41.4631 8.22585C41.3239 8.38494 41.2543 8.59706 41.2543 8.86222C41.2543 9.23011 41.3902 9.50852 41.6619 9.69744C41.9337 9.88305 42.2801 9.97585 42.701 9.97585ZM51.6909 3.36364V4.55682H47.5197V3.36364H51.6909ZM48.6383 1.53409H50.1248V8.75781C50.1248 9.04616 50.1679 9.26326 50.2541 9.40909C50.3403 9.55161 50.4513 9.64938 50.5872 9.70241C50.7264 9.75213 50.8772 9.77699 51.0396 9.77699C51.1589 9.77699 51.2633 9.7687 51.3528 9.75213C51.4423 9.73556 51.5119 9.7223 51.5616 9.71236L51.8301 10.9403C51.7439 10.9735 51.6213 11.0066 51.4622 11.0398C51.3031 11.0762 51.1042 11.0961 50.8656 11.0994C50.4745 11.1061 50.1099 11.0365 49.7718 10.8906C49.4338 10.7448 49.1603 10.5194 48.9515 10.2145C48.7427 9.90956 48.6383 9.52675 48.6383 9.06605V1.53409ZM56.4698 11.1541C55.7539 11.1541 55.1291 10.9901 54.5955 10.6619C54.0619 10.3338 53.6476 9.87476 53.3526 9.2848C53.0576 8.69484 52.9102 8.00544 52.9102 7.21662C52.9102 6.42448 53.0576 5.73177 53.3526 5.13849C53.6476 4.54522 54.0619 4.08452 54.5955 3.75639C55.1291 3.42827 55.7539 3.2642 56.4698 3.2642C57.1857 3.2642 57.8105 3.42827 58.3441 3.75639C58.8777 4.08452 59.292 4.54522 59.587 5.13849C59.882 5.73177 60.0295 6.42448 60.0295 7.21662C60.0295 8.00544 59.882 8.69484 59.587 9.2848C59.292 9.87476 58.8777 10.3338 58.3441 10.6619C57.8105 10.9901 57.1857 11.1541 56.4698 11.1541ZM56.4748 9.90625C56.9388 9.90625 57.3233 9.78362 57.6282 9.53835C57.9331 9.29309 58.1585 8.96662 58.3043 8.55895C58.4535 8.15128 58.5281 7.70218 58.5281 7.21165C58.5281 6.72443 58.4535 6.27699 58.3043 5.86932C58.1585 5.45833 57.9331 5.12855 57.6282 4.87997C57.3233 4.63139 56.9388 4.5071 56.4748 4.5071C56.0075 4.5071 55.6197 4.63139 55.3114 4.87997C55.0065 5.12855 54.7795 5.45833 54.6303 5.86932C54.4845 6.27699 54.4116 6.72443 54.4116 7.21165C54.4116 7.70218 54.4845 8.15128 54.6303 8.55895C54.7795 8.96662 55.0065 9.29309 55.3114 9.53835C55.6197 9.78362 56.0075 9.90625 56.4748 9.90625ZM61.6887 11V3.36364H63.1255V4.5767H63.2051C63.3443 4.16572 63.5895 3.84257 63.9409 3.60724C64.2955 3.36861 64.6966 3.24929 65.144 3.24929C65.2368 3.24929 65.3462 3.2526 65.4721 3.25923C65.6014 3.26586 65.7025 3.27415 65.7754 3.28409V4.70597C65.7157 4.68939 65.6097 4.67116 65.4572 4.65128C65.3047 4.62808 65.1523 4.61648 64.9998 4.61648C64.6485 4.61648 64.3353 4.69105 64.0602 4.8402C63.7884 4.98603 63.573 5.18987 63.4139 5.4517C63.2548 5.71023 63.1752 6.00521 63.1752 6.33665V11H61.6887Z" fill="black"/>
</svg>
