<svg width="58" height="12" viewBox="0 0 58 12" fill="none" xmlns="http://www.w3.org/2000/svg">
<path d="M3.22159 11.169C2.73769 11.169 2.30019 11.0795 1.90909 10.9006C1.51799 10.7183 1.2081 10.4548 0.979403 10.1101C0.754025 9.76539 0.641335 9.3428 0.641335 8.84233C0.641335 8.41146 0.724195 8.05682 0.889915 7.77841C1.05563 7.5 1.27936 7.27959 1.56108 7.11719C1.8428 6.95478 2.15767 6.83215 2.50568 6.74929C2.85369 6.66643 3.20833 6.60346 3.5696 6.56037C4.02699 6.50734 4.3982 6.46425 4.68324 6.43111C4.96828 6.39465 5.17543 6.33665 5.30469 6.2571C5.43395 6.17756 5.49858 6.0483 5.49858 5.86932V5.83452C5.49858 5.40033 5.37595 5.06392 5.13068 4.82528C4.88873 4.58665 4.52746 4.46733 4.04688 4.46733C3.5464 4.46733 3.15199 4.57836 2.86364 4.80043C2.5786 5.01918 2.38139 5.26278 2.27202 5.53125L0.875 5.21307C1.04072 4.74905 1.28267 4.37453 1.60085 4.08949C1.92235 3.80114 2.2919 3.59233 2.70952 3.46307C3.12713 3.33049 3.56629 3.2642 4.02699 3.2642C4.33191 3.2642 4.65507 3.30066 4.99645 3.37358C5.34115 3.44318 5.66264 3.57244 5.96094 3.76136C6.26255 3.95028 6.50947 4.22041 6.7017 4.57173C6.89394 4.91974 6.99006 5.37216 6.99006 5.92898V11H5.53835V9.95597H5.47869C5.38258 10.1482 5.2384 10.3371 5.04616 10.5227C4.85393 10.7083 4.60701 10.8625 4.3054 10.9851C4.00379 11.1077 3.64252 11.169 3.22159 11.169ZM3.54474 9.97585C3.95573 9.97585 4.30706 9.89465 4.59872 9.73224C4.8937 9.56984 5.11742 9.35772 5.26989 9.09588C5.42566 8.83073 5.50355 8.54735 5.50355 8.24574V7.26136C5.45052 7.31439 5.34777 7.36411 5.19531 7.41051C5.04616 7.4536 4.87547 7.49171 4.68324 7.52486C4.491 7.55469 4.30374 7.58286 4.12145 7.60938C3.93916 7.63258 3.7867 7.65246 3.66406 7.66903C3.37571 7.70549 3.11222 7.76681 2.87358 7.85298C2.63826 7.93916 2.44934 8.06345 2.30682 8.22585C2.16761 8.38494 2.09801 8.59706 2.09801 8.86222C2.09801 9.23011 2.2339 9.50852 2.50568 9.69744C2.77746 9.88305 3.12382 9.97585 3.54474 9.97585ZM12.5346 3.36364V4.55682H8.36346V3.36364H12.5346ZM9.48207 1.53409H10.9686V8.75781C10.9686 9.04616 11.0117 9.26326 11.0978 9.40909C11.184 9.55161 11.295 9.64938 11.4309 9.70241C11.5701 9.75213 11.7209 9.77699 11.8833 9.77699C12.0027 9.77699 12.1071 9.7687 12.1966 9.75213C12.286 9.73556 12.3556 9.7223 12.4054 9.71236L12.6738 10.9403C12.5877 10.9735 12.465 11.0066 12.3059 11.0398C12.1468 11.0762 11.948 11.0961 11.7093 11.0994C11.3182 11.1061 10.9537 11.0365 10.6156 10.8906C10.2775 10.7448 10.0041 10.5194 9.79528 10.2145C9.58647 9.90956 9.48207 9.52675 9.48207 9.06605V1.53409ZM17.3136 11.1541C16.5977 11.1541 15.9729 10.9901 15.4393 10.6619C14.9057 10.3338 14.4914 9.87476 14.1964 9.2848C13.9014 8.69484 13.7539 8.00544 13.7539 7.21662C13.7539 6.42448 13.9014 5.73177 14.1964 5.13849C14.4914 4.54522 14.9057 4.08452 15.4393 3.75639C15.9729 3.42827 16.5977 3.2642 17.3136 3.2642C18.0295 3.2642 18.6542 3.42827 19.1879 3.75639C19.7215 4.08452 20.1358 4.54522 20.4308 5.13849C20.7257 5.73177 20.8732 6.42448 20.8732 7.21662C20.8732 8.00544 20.7257 8.69484 20.4308 9.2848C20.1358 9.87476 19.7215 10.3338 19.1879 10.6619C18.6542 10.9901 18.0295 11.1541 17.3136 11.1541ZM17.3185 9.90625C17.7826 9.90625 18.167 9.78362 18.4719 9.53835C18.7769 9.29309 19.0022 8.96662 19.1481 8.55895C19.2972 8.15128 19.3718 7.70218 19.3718 7.21165C19.3718 6.72443 19.2972 6.27699 19.1481 5.86932C19.0022 5.45833 18.7769 5.12855 18.4719 4.87997C18.167 4.63139 17.7826 4.5071 17.3185 4.5071C16.8512 4.5071 16.4634 4.63139 16.1552 4.87997C15.8503 5.12855 15.6232 5.45833 15.4741 5.86932C15.3282 6.27699 15.2553 6.72443 15.2553 7.21165C15.2553 7.70218 15.3282 8.15128 15.4741 8.55895C15.6232 8.96662 15.8503 9.29309 16.1552 9.53835C16.4634 9.78362 16.8512 9.90625 17.3185 9.90625ZM22.5325 11V3.36364H23.9593V4.60653H24.0538C24.2129 4.18561 24.4731 3.85748 24.8343 3.62216C25.1956 3.38352 25.6281 3.2642 26.1319 3.2642C26.6423 3.2642 27.0699 3.38352 27.4146 3.62216C27.7626 3.8608 28.0195 4.18892 28.1852 4.60653H28.2647C28.447 4.19886 28.737 3.87405 29.1348 3.6321C29.5325 3.38684 30.0065 3.2642 30.5566 3.2642C31.2493 3.2642 31.8145 3.4813 32.252 3.91548C32.6928 4.34967 32.9132 5.00426 32.9132 5.87926V11H31.4267V6.01847C31.4267 5.50142 31.2858 5.12689 31.0041 4.89489C30.7224 4.66288 30.3859 4.54688 29.9949 4.54688C29.5109 4.54688 29.1348 4.69602 28.8663 4.99432C28.5978 5.2893 28.4636 5.6688 28.4636 6.13281V11H26.9821V5.92401C26.9821 5.50971 26.8528 5.17661 26.5943 4.92472C26.3358 4.67282 25.9993 4.54688 25.585 4.54688C25.3033 4.54688 25.0431 4.62145 24.8045 4.7706C24.5692 4.91643 24.3786 5.12026 24.2328 5.3821C24.0903 5.64394 24.019 5.94721 24.019 6.2919V11H22.5325ZM39.4048 6.05327V7.34091H34.8906V6.05327H39.4048ZM44.9109 11.169C44.1254 11.1657 43.4542 10.9586 42.8974 10.5476C42.3406 10.1366 41.9147 9.53835 41.6197 8.75284C41.3247 7.96733 41.1772 7.02107 41.1772 5.91406C41.1772 4.81037 41.3247 3.86742 41.6197 3.08523C41.918 2.30303 42.3455 1.70644 42.9023 1.29545C43.4625 0.884469 44.132 0.678977 44.9109 0.678977C45.6897 0.678977 46.3576 0.886126 46.9144 1.30043C47.4712 1.71141 47.8971 2.308 48.1921 3.0902C48.4904 3.86908 48.6396 4.81037 48.6396 5.91406C48.6396 7.02438 48.4921 7.9723 48.1971 8.75781C47.9021 9.54001 47.4762 10.1383 46.9194 10.5526C46.3626 10.9635 45.6931 11.169 44.9109 11.169ZM44.9109 9.84162C45.6003 9.84162 46.1388 9.50521 46.5266 8.83239C46.9177 8.15956 47.1133 7.18679 47.1133 5.91406C47.1133 5.06889 47.0238 4.35464 46.8448 3.77131C46.6692 3.18466 46.4156 2.74053 46.0842 2.43892C45.756 2.134 45.3649 1.98153 44.9109 1.98153C44.2248 1.98153 43.6862 2.3196 43.2951 2.99574C42.904 3.67187 42.7068 4.64465 42.7035 5.91406C42.7035 6.76255 42.7913 7.48011 42.967 8.06676C43.146 8.65009 43.3995 9.09257 43.7276 9.39418C44.0558 9.69247 44.4502 9.84162 44.9109 9.84162ZM50.4032 11V9.88636L53.8485 6.31676C54.2164 5.92898 54.5197 5.58925 54.7583 5.29759C55.0003 5.0026 55.1809 4.72254 55.3002 4.45739C55.4196 4.19223 55.4792 3.91051 55.4792 3.61222C55.4792 3.27415 55.3997 2.98248 55.2406 2.73722C55.0815 2.48864 54.8644 2.29806 54.5893 2.16548C54.3142 2.02959 54.0043 1.96165 53.6596 1.96165C53.295 1.96165 52.9769 2.03622 52.7051 2.18537C52.4333 2.33452 52.2245 2.54498 52.0787 2.81676C51.9328 3.08854 51.8599 3.40672 51.8599 3.77131H50.3933C50.3933 3.15151 50.5358 2.60961 50.8208 2.1456C51.1059 1.68158 51.497 1.32197 51.9941 1.06676C52.4913 0.808238 53.0564 0.678977 53.6895 0.678977C54.3291 0.678977 54.8926 0.806581 55.3798 1.06179C55.8703 1.31368 56.2531 1.65838 56.5282 2.09588C56.8033 2.53007 56.9409 3.0206 56.9409 3.56747C56.9409 3.94531 56.8696 4.31487 56.7271 4.67614C56.5879 5.0374 56.3443 5.4401 55.9963 5.88423C55.6483 6.32505 55.1644 6.86032 54.5446 7.49006L52.5211 9.60795V9.68253H57.1049V11H50.4032Z" fill="black"/>
</svg>
