<svg width="60" height="11" viewBox="0 0 60 11" fill="none" xmlns="http://www.w3.org/2000/svg">
<path d="M4.21591 8.15412C3.4768 8.15412 2.84044 7.98674 2.30682 7.65199C1.77652 7.31392 1.36884 6.84825 1.08381 6.25497C0.798769 5.66169 0.65625 4.98224 0.65625 4.21662C0.65625 3.44105 0.802083 2.75663 1.09375 2.16335C1.38542 1.56676 1.7964 1.10109 2.3267 0.766335C2.85701 0.431581 3.48177 0.264205 4.20099 0.264205C4.78101 0.264205 5.29806 0.371922 5.75213 0.587358C6.2062 0.799479 6.57244 1.09777 6.85085 1.48224C7.13258 1.86671 7.29995 2.31581 7.35298 2.82955H5.90625C5.8267 2.47159 5.64441 2.16335 5.35938 1.90483C5.07765 1.64631 4.69981 1.51705 4.22585 1.51705C3.81155 1.51705 3.44863 1.62642 3.13707 1.84517C2.82884 2.06061 2.58854 2.36884 2.41619 2.76989C2.24384 3.16761 2.15767 3.63826 2.15767 4.18182C2.15767 4.73864 2.24219 5.21922 2.41122 5.62358C2.58026 6.02794 2.81889 6.34115 3.12713 6.56321C3.43868 6.78527 3.80492 6.89631 4.22585 6.89631C4.50758 6.89631 4.76278 6.84493 4.99148 6.74219C5.22349 6.63613 5.41738 6.48532 5.57315 6.28977C5.73224 6.09422 5.84328 5.8589 5.90625 5.58381H7.35298C7.29995 6.07765 7.1392 6.51847 6.87074 6.90625C6.60227 7.29403 6.24266 7.59896 5.7919 7.82102C5.34446 8.04309 4.81913 8.15412 4.21591 8.15412ZM12.1593 8.15412C11.4434 8.15412 10.8186 7.99006 10.285 7.66193C9.75136 7.33381 9.33706 6.87476 9.04208 6.2848C8.7471 5.69484 8.59961 5.00544 8.59961 4.21662C8.59961 3.42448 8.7471 2.73177 9.04208 2.13849C9.33706 1.54522 9.75136 1.08452 10.285 0.756392C10.8186 0.428267 11.4434 0.264205 12.1593 0.264205C12.8752 0.264205 13.4999 0.428267 14.0336 0.756392C14.5672 1.08452 14.9815 1.54522 15.2765 2.13849C15.5714 2.73177 15.7189 3.42448 15.7189 4.21662C15.7189 5.00544 15.5714 5.69484 15.2765 6.2848C14.9815 6.87476 14.5672 7.33381 14.0336 7.66193C13.4999 7.99006 12.8752 8.15412 12.1593 8.15412ZM12.1642 6.90625C12.6283 6.90625 13.0127 6.78362 13.3176 6.53835C13.6226 6.29309 13.848 5.96662 13.9938 5.55895C14.1429 5.15128 14.2175 4.70218 14.2175 4.21165C14.2175 3.72443 14.1429 3.27699 13.9938 2.86932C13.848 2.45833 13.6226 2.12855 13.3176 1.87997C13.0127 1.63139 12.6283 1.5071 12.1642 1.5071C11.6969 1.5071 11.3091 1.63139 11.0009 1.87997C10.696 2.12855 10.4689 2.45833 10.3198 2.86932C10.1739 3.27699 10.101 3.72443 10.101 4.21165C10.101 4.70218 10.1739 5.15128 10.3198 5.55895C10.4689 5.96662 10.696 6.29309 11.0009 6.53835C11.3091 6.78362 11.6969 6.90625 12.1642 6.90625ZM17.3782 8V0.363636H18.805V1.60653H18.8995C19.0586 1.18561 19.3188 0.857481 19.68 0.622159C20.0413 0.383523 20.4738 0.264205 20.9776 0.264205C21.488 0.264205 21.9156 0.383523 22.2603 0.622159C22.6083 0.860795 22.8652 1.18892 23.0309 1.60653H23.1104C23.2927 1.19886 23.5827 0.874053 23.9805 0.632102C24.3782 0.386837 24.8522 0.264205 25.4023 0.264205C26.0951 0.264205 26.6602 0.481297 27.0977 0.915483C27.5385 1.34967 27.7589 2.00426 27.7589 2.87926V8H26.2724V3.01847C26.2724 2.50142 26.1315 2.12689 25.8498 1.89489C25.5681 1.66288 25.2317 1.54688 24.8406 1.54688C24.3567 1.54688 23.9805 1.69602 23.712 1.99432C23.4435 2.2893 23.3093 2.6688 23.3093 3.13281V8H21.8278V2.92401C21.8278 2.50971 21.6985 2.17661 21.44 1.92472C21.1815 1.67282 20.8451 1.54688 20.4308 1.54688C20.149 1.54688 19.8888 1.62145 19.6502 1.7706C19.4149 1.91643 19.2243 2.12026 19.0785 2.3821C18.936 2.64394 18.8647 2.94721 18.8647 3.2919V8H17.3782ZM29.7512 10.8636V0.363636H31.2029V1.60156H31.3272C31.4134 1.44247 31.5377 1.25852 31.7001 1.04972C31.8625 0.840909 32.0879 0.658617 32.3762 0.502841C32.6646 0.34375 33.0458 0.264205 33.5197 0.264205C34.1362 0.264205 34.6864 0.419981 35.1703 0.731534C35.6542 1.04309 36.0337 1.49219 36.3088 2.07884C36.5872 2.66548 36.7264 3.37145 36.7264 4.19673C36.7264 5.02202 36.5888 5.72964 36.3137 6.3196C36.0386 6.90625 35.6608 7.35866 35.1802 7.67685C34.6996 7.99171 34.1511 8.14915 33.5346 8.14915C33.0706 8.14915 32.6911 8.07126 32.3961 7.91548C32.1045 7.75971 31.8758 7.57741 31.71 7.36861C31.5443 7.1598 31.4167 6.9742 31.3272 6.81179H31.2377V10.8636H29.7512ZM31.2079 4.18182C31.2079 4.71875 31.2858 5.18939 31.4416 5.59375C31.5974 5.99811 31.8227 6.31463 32.1177 6.54332C32.4127 6.7687 32.774 6.88139 33.2015 6.88139C33.6457 6.88139 34.0169 6.76373 34.3152 6.52841C34.6135 6.28977 34.8388 5.96662 34.9913 5.55895C35.1471 5.15128 35.225 4.69223 35.225 4.18182C35.225 3.67803 35.1487 3.22562 34.9963 2.82457C34.8471 2.42353 34.6217 2.10701 34.3201 1.875C34.0218 1.64299 33.649 1.52699 33.2015 1.52699C32.7707 1.52699 32.4061 1.63802 32.1078 1.86009C31.8128 2.08215 31.5891 2.39205 31.4366 2.78977C31.2842 3.1875 31.2079 3.65151 31.2079 4.18182ZM40.6142 8.16903C40.1303 8.16903 39.6928 8.07955 39.3017 7.90057C38.9106 7.71828 38.6007 7.45478 38.372 7.11009C38.1466 6.76539 38.0339 6.3428 38.0339 5.84233C38.0339 5.41146 38.1168 5.05682 38.2825 4.77841C38.4482 4.5 38.6719 4.27959 38.9537 4.11719C39.2354 3.95478 39.5502 3.83215 39.8983 3.74929C40.2463 3.66643 40.6009 3.60346 40.9622 3.56037C41.4196 3.50734 41.7908 3.46425 42.0758 3.43111C42.3609 3.39465 42.568 3.33665 42.6973 3.2571C42.8265 3.17756 42.8912 3.0483 42.8912 2.86932V2.83452C42.8912 2.40033 42.7685 2.06392 42.5233 1.82528C42.2813 1.58665 41.92 1.46733 41.4395 1.46733C40.939 1.46733 40.5446 1.57836 40.2562 1.80043C39.9712 2.01918 39.774 2.26278 39.6646 2.53125L38.2676 2.21307C38.4333 1.74905 38.6752 1.37453 38.9934 1.08949C39.3149 0.801136 39.6845 0.592329 40.1021 0.463068C40.5197 0.330492 40.9589 0.264205 41.4196 0.264205C41.7245 0.264205 42.0476 0.300663 42.389 0.37358C42.7337 0.443182 43.0552 0.572443 43.3535 0.761363C43.6551 0.950284 43.902 1.22041 44.0943 1.57173C44.2865 1.91974 44.3826 2.37216 44.3826 2.92898V8H42.9309V6.95597H42.8713C42.7752 7.1482 42.631 7.33712 42.4387 7.52273C42.2465 7.70833 41.9996 7.86245 41.698 7.98509C41.3964 8.10772 41.0351 8.16903 40.6142 8.16903ZM40.9373 6.97585C41.3483 6.97585 41.6996 6.89465 41.9913 6.73224C42.2863 6.56984 42.51 6.35772 42.6625 6.09588C42.8182 5.83073 42.8961 5.54735 42.8961 5.24574V4.26136C42.8431 4.31439 42.7404 4.36411 42.5879 4.41051C42.4387 4.4536 42.2681 4.49171 42.0758 4.52486C41.8836 4.55469 41.6963 4.58286 41.514 4.60938C41.3317 4.63258 41.1793 4.65246 41.0566 4.66903C40.7683 4.70549 40.5048 4.76681 40.2662 4.85298C40.0308 4.93916 39.8419 5.06345 39.6994 5.22585C39.5602 5.38494 39.4906 5.59706 39.4906 5.86222C39.4906 6.23011 39.6265 6.50852 39.8983 6.69744C40.17 6.88305 40.5164 6.97585 40.9373 6.97585ZM52.0849 2.22798L50.7376 2.46662C50.6812 2.29427 50.5917 2.13021 50.4691 1.97443C50.3498 1.81865 50.1874 1.69105 49.9819 1.59162C49.7764 1.49219 49.5195 1.44247 49.2113 1.44247C48.7904 1.44247 48.439 1.53693 48.1573 1.72585C47.8756 1.91146 47.7347 2.15175 47.7347 2.44673C47.7347 2.70194 47.8292 2.90743 48.0181 3.06321C48.207 3.21899 48.512 3.34659 48.9329 3.44602L50.146 3.72443C50.8486 3.88684 51.3723 4.13707 51.717 4.47514C52.0617 4.81321 52.234 5.25237 52.234 5.79261C52.234 6.25 52.1014 6.65767 51.8363 7.01562C51.5745 7.37027 51.2082 7.64867 50.7376 7.85085C50.2702 8.05303 49.7283 8.15412 49.1119 8.15412C48.2567 8.15412 47.5591 7.97183 47.0188 7.60724C46.4786 7.23935 46.1471 6.71733 46.0245 6.04119L47.4613 5.82244C47.5508 6.19697 47.7347 6.48035 48.0131 6.67259C48.2915 6.86151 48.6545 6.95597 49.1019 6.95597C49.5891 6.95597 49.9786 6.85488 50.2702 6.6527C50.5619 6.44721 50.7077 6.19697 50.7077 5.90199C50.7077 5.66335 50.6183 5.46283 50.4393 5.30043C50.2636 5.13802 49.9935 5.01539 49.6289 4.93253L48.3363 4.64915C47.6237 4.48674 47.0967 4.22822 46.7553 3.87358C46.4173 3.51894 46.2482 3.06984 46.2482 2.52628C46.2482 2.07552 46.3742 1.68111 46.6261 1.34304C46.878 1.00497 47.226 0.741477 47.6701 0.552557C48.1142 0.360322 48.623 0.264205 49.1964 0.264205C50.0217 0.264205 50.6713 0.443182 51.1452 0.801136C51.6192 1.15578 51.9324 1.63139 52.0849 2.22798ZM59.5907 2.22798L58.2434 2.46662C58.1871 2.29427 58.0976 2.13021 57.975 1.97443C57.8556 1.81865 57.6932 1.69105 57.4877 1.59162C57.2823 1.49219 57.0254 1.44247 56.7172 1.44247C56.2962 1.44247 55.9449 1.53693 55.6632 1.72585C55.3815 1.91146 55.2406 2.15175 55.2406 2.44673C55.2406 2.70194 55.335 2.90743 55.524 3.06321C55.7129 3.21899 56.0178 3.34659 56.4387 3.44602L57.6518 3.72443C58.3545 3.88684 58.8781 4.13707 59.2228 4.47514C59.5675 4.81321 59.7399 5.25237 59.7399 5.79261C59.7399 6.25 59.6073 6.65767 59.3422 7.01562C59.0803 7.37027 58.7141 7.64867 58.2434 7.85085C57.7761 8.05303 57.2342 8.15412 56.6177 8.15412C55.7626 8.15412 55.0649 7.97183 54.5247 7.60724C53.9844 7.23935 53.653 6.71733 53.5304 6.04119L54.9672 5.82244C55.0566 6.19697 55.2406 6.48035 55.519 6.67259C55.7974 6.86151 56.1603 6.95597 56.6078 6.95597C57.095 6.95597 57.4844 6.85488 57.7761 6.6527C58.0678 6.44721 58.2136 6.19697 58.2136 5.90199C58.2136 5.66335 58.1241 5.46283 57.9451 5.30043C57.7695 5.13802 57.4993 5.01539 57.1348 4.93253L55.8422 4.64915C55.1296 4.48674 54.6026 4.22822 54.2612 3.87358C53.9231 3.51894 53.7541 3.06984 53.7541 2.52628C53.7541 2.07552 53.88 1.68111 54.1319 1.34304C54.3838 1.00497 54.7318 0.741477 55.176 0.552557C55.6201 0.360322 56.1288 0.264205 56.7022 0.264205C57.5275 0.264205 58.1771 0.443182 58.6511 0.801136C59.1251 1.15578 59.4383 1.63139 59.5907 2.22798Z" fill="black"/>
</svg>
