<svg width="30" height="12" viewBox="0 0 30 12" fill="none" xmlns="http://www.w3.org/2000/svg">
<path d="M-0.000710189 11V3.36364H1.43608V4.5767H1.51562C1.65483 4.16572 1.90009 3.84257 2.25142 3.60724C2.60606 3.36861 3.0071 3.24929 3.45455 3.24929C3.54735 3.24929 3.65672 3.2526 3.78267 3.25923C3.91193 3.26586 4.01302 3.27415 4.08594 3.28409V4.70597C4.02628 4.68939 3.92022 4.67116 3.76776 4.65128C3.61529 4.62808 3.46283 4.61648 3.31037 4.61648C2.95904 4.61648 2.64583 4.69105 2.37074 4.8402C2.09896 4.98603 1.88352 5.18987 1.72443 5.4517C1.56534 5.71023 1.4858 6.00521 1.4858 6.33665V11H-0.000710189ZM10.2097 7.8331V3.36364H11.7012V11H10.2395V9.67756H10.16C9.98432 10.0852 9.70259 10.425 9.31481 10.6967C8.93034 10.9652 8.45141 11.0994 7.87802 11.0994C7.38749 11.0994 6.9533 10.9917 6.57546 10.7763C6.20094 10.5575 5.90595 10.2344 5.69052 9.80682C5.4784 9.37926 5.37234 8.85062 5.37234 8.22088V3.36364H6.85884V8.0419C6.85884 8.56226 7.00302 8.97656 7.29137 9.2848C7.57972 9.59304 7.95425 9.74716 8.41495 9.74716C8.69336 9.74716 8.97011 9.67756 9.24521 9.53835C9.52362 9.39915 9.75397 9.18868 9.93626 8.90696C10.1219 8.62524 10.213 8.26728 10.2097 7.8331ZM15.185 0.818182V11H13.6985V0.818182H15.185ZM20.476 11.1541C19.7237 11.1541 19.0757 10.9934 18.5321 10.6719C17.9919 10.3471 17.5743 9.89134 17.2793 9.30469C16.9876 8.71473 16.8418 8.02367 16.8418 7.23153C16.8418 6.44934 16.9876 5.75994 17.2793 5.16335C17.5743 4.56676 17.9853 4.10109 18.5123 3.76633C19.0426 3.43158 19.6623 3.2642 20.3716 3.2642C20.8025 3.2642 21.2201 3.33546 21.6245 3.47798C22.0288 3.6205 22.3917 3.84422 22.7132 4.14915C23.0347 4.45407 23.2883 4.85014 23.4739 5.33736C23.6595 5.82126 23.7523 6.40956 23.7523 7.10227V7.62926H17.682V6.51562H22.2956C22.2956 6.12453 22.2161 5.77817 22.057 5.47656C21.8979 5.17164 21.6742 4.93134 21.3858 4.75568C21.1008 4.58002 20.766 4.49219 20.3816 4.49219C19.964 4.49219 19.5994 4.59493 19.2878 4.80043C18.9796 5.0026 18.7409 5.26776 18.5719 5.59588C18.4062 5.92069 18.3233 6.27367 18.3233 6.65483V7.52486C18.3233 8.03527 18.4128 8.46946 18.5918 8.82741C18.7741 9.18537 19.0276 9.45881 19.3525 9.64773C19.6773 9.83333 20.0568 9.92614 20.4909 9.92614C20.7727 9.92614 21.0295 9.88636 21.2615 9.80682C21.4935 9.72396 21.6941 9.60133 21.8631 9.43892C22.0321 9.27652 22.1614 9.07599 22.2509 8.83736L23.6578 9.09091C23.5452 9.50521 23.343 9.86813 23.0513 10.1797C22.763 10.4879 22.4 10.7282 21.9625 10.9006C21.5283 11.0696 21.0328 11.1541 20.476 11.1541ZM25.4016 11V3.36364H26.8384V4.5767H26.918C27.0572 4.16572 27.3024 3.84257 27.6538 3.60724C28.0084 3.36861 28.4094 3.24929 28.8569 3.24929C28.9497 3.24929 29.0591 3.2526 29.185 3.25923C29.3143 3.26586 29.4154 3.27415 29.4883 3.28409V4.70597C29.4286 4.68939 29.3226 4.67116 29.1701 4.65128C29.0176 4.62808 28.8652 4.61648 28.7127 4.61648C28.3614 4.61648 28.0482 4.69105 27.7731 4.8402C27.5013 4.98603 27.2859 5.18987 27.1268 5.4517C26.9677 5.71023 26.8881 6.00521 26.8881 6.33665V11H25.4016Z" fill="black"/>
</svg>
