<svg width="89" height="12" viewBox="0 0 89 12" fill="none" xmlns="http://www.w3.org/2000/svg">
<path d="M4.21591 11.1541C3.4768 11.1541 2.84044 10.9867 2.30682 10.652C1.77652 10.3139 1.36884 9.84825 1.08381 9.25497C0.798769 8.66169 0.65625 7.98224 0.65625 7.21662C0.65625 6.44105 0.802083 5.75663 1.09375 5.16335C1.38542 4.56676 1.7964 4.10109 2.3267 3.76633C2.85701 3.43158 3.48177 3.2642 4.20099 3.2642C4.78101 3.2642 5.29806 3.37192 5.75213 3.58736C6.2062 3.79948 6.57244 4.09777 6.85085 4.48224C7.13258 4.86671 7.29995 5.31581 7.35298 5.82955H5.90625C5.8267 5.47159 5.64441 5.16335 5.35938 4.90483C5.07765 4.64631 4.69981 4.51705 4.22585 4.51705C3.81155 4.51705 3.44863 4.62642 3.13707 4.84517C2.82884 5.06061 2.58854 5.36884 2.41619 5.76989C2.24384 6.16761 2.15767 6.63826 2.15767 7.18182C2.15767 7.73864 2.24219 8.21922 2.41122 8.62358C2.58026 9.02794 2.81889 9.34115 3.12713 9.56321C3.43868 9.78527 3.80492 9.89631 4.22585 9.89631C4.50758 9.89631 4.76278 9.84493 4.99148 9.74219C5.22349 9.63613 5.41738 9.48532 5.57315 9.28977C5.73224 9.09422 5.84328 8.8589 5.90625 8.58381H7.35298C7.29995 9.07765 7.1392 9.51847 6.87074 9.90625C6.60227 10.294 6.24266 10.599 5.7919 10.821C5.34446 11.0431 4.81913 11.1541 4.21591 11.1541ZM12.2338 11.1541C11.4815 11.1541 10.8335 10.9934 10.29 10.6719C9.7497 10.3471 9.33209 9.89134 9.03711 9.30469C8.74544 8.71473 8.59961 8.02367 8.59961 7.23153C8.59961 6.44934 8.74544 5.75994 9.03711 5.16335C9.33209 4.56676 9.74308 4.10109 10.2701 3.76633C10.8004 3.43158 11.4202 3.2642 12.1294 3.2642C12.5603 3.2642 12.9779 3.33546 13.3823 3.47798C13.7866 3.6205 14.1496 3.84422 14.4711 4.14915C14.7926 4.45407 15.0461 4.85014 15.2317 5.33736C15.4173 5.82126 15.5101 6.40956 15.5101 7.10227V7.62926H9.43981V6.51562H14.0534C14.0534 6.12453 13.9739 5.77817 13.8148 5.47656C13.6557 5.17164 13.432 4.93134 13.1436 4.75568C12.8586 4.58002 12.5239 4.49219 12.1394 4.49219C11.7218 4.49219 11.3572 4.59493 11.0456 4.80043C10.7374 5.0026 10.4988 5.26776 10.3297 5.59588C10.164 5.92069 10.0811 6.27367 10.0811 6.65483V7.52486C10.0811 8.03527 10.1706 8.46946 10.3496 8.82741C10.5319 9.18537 10.7855 9.45881 11.1103 9.64773C11.4351 9.83333 11.8146 9.92614 12.2488 9.92614C12.5305 9.92614 12.7873 9.88636 13.0194 9.80682C13.2514 9.72396 13.4519 9.60133 13.6209 9.43892C13.79 9.27652 13.9192 9.07599 14.0087 8.83736L15.4157 9.09091C15.303 9.50521 15.1008 9.86813 14.8091 10.1797C14.5208 10.4879 14.1578 10.7282 13.7203 10.9006C13.2862 11.0696 12.7907 11.1541 12.2338 11.1541ZM17.1594 11V3.36364H18.5962V4.5767H18.6758C18.815 4.16572 19.0603 3.84257 19.4116 3.60724C19.7662 3.36861 20.1673 3.24929 20.6147 3.24929C20.7075 3.24929 20.8169 3.2526 20.9428 3.25923C21.0721 3.26586 21.1732 3.27415 21.2461 3.28409V4.70597C21.1864 4.68939 21.0804 4.67116 20.9279 4.65128C20.7754 4.62808 20.623 4.61648 20.4705 4.61648C20.1192 4.61648 19.806 4.69105 19.5309 4.8402C19.2591 4.98603 19.0437 5.18987 18.8846 5.4517C18.7255 5.71023 18.646 6.00521 18.646 6.33665V11H17.1594ZM26.5483 3.36364V4.55682H22.3771V3.36364H26.5483ZM23.4957 1.53409H24.9822V8.75781C24.9822 9.04616 25.0253 9.26326 25.1115 9.40909C25.1977 9.55161 25.3087 9.64938 25.4446 9.70241C25.5838 9.75213 25.7346 9.77699 25.897 9.77699C26.0163 9.77699 26.1207 9.7687 26.2102 9.75213C26.2997 9.73556 26.3693 9.7223 26.419 9.71236L26.6875 10.9403C26.6013 10.9735 26.4787 11.0066 26.3196 11.0398C26.1605 11.0762 25.9616 11.0961 25.723 11.0994C25.3319 11.1061 24.9673 11.0365 24.6293 10.8906C24.2912 10.7448 24.0178 10.5194 23.8089 10.2145C23.6001 9.90956 23.4957 9.52675 23.4957 9.06605V1.53409ZM28.1926 11V3.36364H29.6792V11H28.1926ZM28.9434 2.18537C28.6848 2.18537 28.4628 2.09919 28.2772 1.92685C28.0949 1.75118 28.0037 1.54238 28.0037 1.30043C28.0037 1.05516 28.0949 0.846354 28.2772 0.674005C28.4628 0.498342 28.6848 0.410511 28.9434 0.410511C29.2019 0.410511 29.4223 0.498342 29.6046 0.674005C29.7902 0.846354 29.883 1.05516 29.883 1.30043C29.883 1.54238 29.7902 1.75118 29.6046 1.92685C29.4223 2.09919 29.2019 2.18537 28.9434 2.18537ZM35.3132 3.36364V4.55682H30.9979V3.36364H35.3132ZM32.1811 11V2.47869C32.1811 2.00142 32.2855 1.60535 32.4943 1.29048C32.7031 0.972301 32.9799 0.735322 33.3246 0.579545C33.6693 0.420454 34.0438 0.340908 34.4482 0.340908C34.7464 0.340908 35.0017 0.365767 35.2138 0.415483C35.4259 0.461884 35.5833 0.504971 35.6861 0.544744L35.3381 1.74787C35.2685 1.72798 35.179 1.70478 35.0696 1.67827C34.9602 1.64844 34.8277 1.63352 34.6719 1.63352C34.3106 1.63352 34.0521 1.72301 33.8963 1.90199C33.7438 2.08097 33.6676 2.33949 33.6676 2.67756V11H32.1811ZM36.8469 11V3.36364H38.3335V11H36.8469ZM37.5977 2.18537C37.3391 2.18537 37.1171 2.09919 36.9315 1.92685C36.7492 1.75118 36.658 1.54238 36.658 1.30043C36.658 1.05516 36.7492 0.846354 36.9315 0.674005C37.1171 0.498342 37.3391 0.410511 37.5977 0.410511C37.8562 0.410511 38.0766 0.498342 38.2589 0.674005C38.4445 0.846354 38.5373 1.05516 38.5373 1.30043C38.5373 1.54238 38.4445 1.75118 38.2589 1.92685C38.0766 2.09919 37.8562 2.18537 37.5977 2.18537ZM43.5499 11.1541C42.8108 11.1541 42.1744 10.9867 41.6408 10.652C41.1105 10.3139 40.7028 9.84825 40.4178 9.25497C40.1328 8.66169 39.9902 7.98224 39.9902 7.21662C39.9902 6.44105 40.1361 5.75663 40.4277 5.16335C40.7194 4.56676 41.1304 4.10109 41.6607 3.76633C42.191 3.43158 42.8158 3.2642 43.535 3.2642C44.115 3.2642 44.632 3.37192 45.0861 3.58736C45.5402 3.79948 45.9064 4.09777 46.1848 4.48224C46.4666 4.86671 46.6339 5.31581 46.687 5.82955H45.2402C45.1607 5.47159 44.9784 5.16335 44.6934 4.90483C44.4116 4.64631 44.0338 4.51705 43.5598 4.51705C43.1455 4.51705 42.7826 4.62642 42.4711 4.84517C42.1628 5.06061 41.9225 5.36884 41.7502 5.76989C41.5778 6.16761 41.4917 6.63826 41.4917 7.18182C41.4917 7.73864 41.5762 8.21922 41.7452 8.62358C41.9142 9.02794 42.1529 9.34115 42.4611 9.56321C42.7727 9.78527 43.1389 9.89631 43.5598 9.89631C43.8416 9.89631 44.0968 9.84493 44.3255 9.74219C44.5575 9.63613 44.7514 9.48532 44.9071 9.28977C45.0662 9.09422 45.1773 8.8589 45.2402 8.58381H46.687C46.6339 9.07765 46.4732 9.51847 46.2047 9.90625C45.9363 10.294 45.5766 10.599 45.1259 10.821C44.6784 11.0431 44.1531 11.1541 43.5499 11.1541ZM50.4989 11.169C50.015 11.169 49.5775 11.0795 49.1864 10.9006C48.7953 10.7183 48.4854 10.4548 48.2567 10.1101C48.0314 9.76539 47.9187 9.3428 47.9187 8.84233C47.9187 8.41146 48.0015 8.05682 48.1673 7.77841C48.333 7.5 48.5567 7.27959 48.8384 7.11719C49.1201 6.95478 49.435 6.83215 49.783 6.74929C50.131 6.66643 50.4857 6.60346 50.8469 6.56037C51.3043 6.50734 51.6755 6.46425 51.9606 6.43111C52.2456 6.39465 52.4528 6.33665 52.582 6.2571C52.7113 6.17756 52.7759 6.0483 52.7759 5.86932V5.83452C52.7759 5.40033 52.6533 5.06392 52.408 4.82528C52.1661 4.58665 51.8048 4.46733 51.3242 4.46733C50.8237 4.46733 50.4293 4.57836 50.141 4.80043C49.8559 5.01918 49.6587 5.26278 49.5494 5.53125L48.1523 5.21307C48.3181 4.74905 48.56 4.37453 48.8782 4.08949C49.1997 3.80114 49.5692 3.59233 49.9869 3.46307C50.4045 3.33049 50.8436 3.2642 51.3043 3.2642C51.6093 3.2642 51.9324 3.30066 52.2738 3.37358C52.6185 3.44318 52.94 3.57244 53.2383 3.76136C53.5399 3.95028 53.7868 4.22041 53.979 4.57173C54.1713 4.91974 54.2674 5.37216 54.2674 5.92898V11H52.8157V9.95597H52.756C52.6599 10.1482 52.5157 10.3371 52.3235 10.5227C52.1313 10.7083 51.8844 10.8625 51.5827 10.9851C51.2811 11.1077 50.9199 11.169 50.4989 11.169ZM50.8221 9.97585C51.2331 9.97585 51.5844 9.89465 51.8761 9.73224C52.171 9.56984 52.3948 9.35772 52.5472 9.09588C52.703 8.83073 52.7809 8.54735 52.7809 8.24574V7.26136C52.7279 7.31439 52.6251 7.36411 52.4727 7.41051C52.3235 7.4536 52.1528 7.49171 51.9606 7.52486C51.7683 7.55469 51.5811 7.58286 51.3988 7.60938C51.2165 7.63258 51.064 7.65246 50.9414 7.66903C50.6531 7.70549 50.3896 7.76681 50.1509 7.85298C49.9156 7.93916 49.7267 8.06345 49.5842 8.22585C49.445 8.38494 49.3754 8.59706 49.3754 8.86222C49.3754 9.23011 49.5112 9.50852 49.783 9.69744C50.0548 9.88305 50.4012 9.97585 50.8221 9.97585ZM59.812 3.36364V4.55682H55.6408V3.36364H59.812ZM56.7594 1.53409H58.2459V8.75781C58.2459 9.04616 58.289 9.26326 58.3752 9.40909C58.4614 9.55161 58.5724 9.64938 58.7083 9.70241C58.8475 9.75213 58.9983 9.77699 59.1607 9.77699C59.28 9.77699 59.3844 9.7687 59.4739 9.75213C59.5634 9.73556 59.633 9.7223 59.6827 9.71236L59.9512 10.9403C59.865 10.9735 59.7424 11.0066 59.5833 11.0398C59.4242 11.0762 59.2253 11.0961 58.9867 11.0994C58.5956 11.1061 58.231 11.0365 57.8929 10.8906C57.5549 10.7448 57.2814 10.5194 57.0726 10.2145C56.8638 9.90956 56.7594 9.52675 56.7594 9.06605V1.53409ZM64.6655 11.1541C63.9131 11.1541 63.2652 10.9934 62.7216 10.6719C62.1813 10.3471 61.7637 9.89134 61.4688 9.30469C61.1771 8.71473 61.0312 8.02367 61.0312 7.23153C61.0312 6.44934 61.1771 5.75994 61.4688 5.16335C61.7637 4.56676 62.1747 4.10109 62.7017 3.76633C63.232 3.43158 63.8518 3.2642 64.5611 3.2642C64.992 3.2642 65.4096 3.33546 65.8139 3.47798C66.2183 3.6205 66.5812 3.84422 66.9027 4.14915C67.2242 4.45407 67.4777 4.85014 67.6634 5.33736C67.849 5.82126 67.9418 6.40956 67.9418 7.10227V7.62926H61.8714V6.51562H66.4851C66.4851 6.12453 66.4055 5.77817 66.2464 5.47656C66.0874 5.17164 65.8636 4.93134 65.5753 4.75568C65.2902 4.58002 64.9555 4.49219 64.571 4.49219C64.1534 4.49219 63.7888 4.59493 63.4773 4.80043C63.169 5.0026 62.9304 5.26776 62.7614 5.59588C62.5956 5.92069 62.5128 6.27367 62.5128 6.65483V7.52486C62.5128 8.03527 62.6023 8.46946 62.7812 8.82741C62.9635 9.18537 63.2171 9.45881 63.5419 9.64773C63.8667 9.83333 64.2462 9.92614 64.6804 9.92614C64.9621 9.92614 65.219 9.88636 65.451 9.80682C65.683 9.72396 65.8835 9.60133 66.0526 9.43892C66.2216 9.27652 66.3509 9.07599 66.4403 8.83736L67.8473 9.09091C67.7346 9.50521 67.5324 9.86813 67.2408 10.1797C66.9524 10.4879 66.5895 10.7282 66.152 10.9006C65.7178 11.0696 65.2223 11.1541 64.6655 11.1541ZM74.0904 6.05327V7.34091H69.5762V6.05327H74.0904ZM79.5964 11.169C78.8109 11.1657 78.1397 10.9586 77.5829 10.5476C77.0261 10.1366 76.6002 9.53835 76.3052 8.75284C76.0102 7.96733 75.8627 7.02107 75.8627 5.91406C75.8627 4.81037 76.0102 3.86742 76.3052 3.08523C76.6035 2.30303 77.0311 1.70644 77.5879 1.29545C78.148 0.884469 78.8175 0.678977 79.5964 0.678977C80.3753 0.678977 81.0431 0.886126 81.6 1.30043C82.1568 1.71141 82.5827 2.308 82.8777 3.0902C83.176 3.86908 83.3251 4.81037 83.3251 5.91406C83.3251 7.02438 83.1776 7.9723 82.8826 8.75781C82.5877 9.54001 82.1618 10.1383 81.6049 10.5526C81.0481 10.9635 80.3786 11.169 79.5964 11.169ZM79.5964 9.84162C80.2858 9.84162 80.8244 9.50521 81.2122 8.83239C81.6033 8.15956 81.7988 7.18679 81.7988 5.91406C81.7988 5.06889 81.7093 4.35464 81.5304 3.77131C81.3547 3.18466 81.1011 2.74053 80.7697 2.43892C80.4416 2.134 80.0505 1.98153 79.5964 1.98153C78.9103 1.98153 78.3717 2.3196 77.9806 2.99574C77.5895 3.67187 77.3923 4.64465 77.389 5.91406C77.389 6.76255 77.4769 7.48011 77.6525 8.06676C77.8315 8.65009 78.085 9.09257 78.4132 9.39418C78.7413 9.69247 79.1357 9.84162 79.5964 9.84162ZM88.9517 0.818182V11H87.4105V2.35938H87.3509L84.9148 3.95028V2.47869L87.4553 0.818182H88.9517Z" fill="black"/>
</svg>
