<svg width="85" height="12" viewBox="0 0 85 12" fill="none" xmlns="http://www.w3.org/2000/svg">
<path d="M0.118608 11V0.818182H1.60511V4.60156H1.6946C1.78078 4.44247 1.90507 4.25852 2.06747 4.04972C2.22988 3.84091 2.45526 3.65862 2.74361 3.50284C3.03196 3.34375 3.41312 3.2642 3.88707 3.2642C4.50355 3.2642 5.05374 3.41998 5.53764 3.73153C6.02154 4.04309 6.40104 4.49219 6.67614 5.07884C6.95455 5.66548 7.09375 6.37145 7.09375 7.19673C7.09375 8.02202 6.9562 8.72964 6.68111 9.3196C6.40601 9.90625 6.02817 10.3587 5.54759 10.6768C5.067 10.9917 4.51847 11.1491 3.90199 11.1491C3.43797 11.1491 3.05848 11.0713 2.76349 10.9155C2.47183 10.7597 2.24313 10.5774 2.07741 10.3686C1.9117 10.1598 1.78409 9.9742 1.6946 9.81179H1.57031V11H0.118608ZM1.57528 7.18182C1.57528 7.71875 1.65317 8.18939 1.80895 8.59375C1.96473 8.99811 2.1901 9.31463 2.48509 9.54332C2.78007 9.7687 3.14134 9.88139 3.56889 9.88139C4.01302 9.88139 4.38423 9.76373 4.68253 9.52841C4.98082 9.28977 5.2062 8.96662 5.35866 8.55895C5.51444 8.15128 5.59233 7.69223 5.59233 7.18182C5.59233 6.67803 5.5161 6.22562 5.36364 5.82457C5.21449 5.42353 4.98911 5.10701 4.6875 4.875C4.3892 4.64299 4.01634 4.52699 3.56889 4.52699C3.13802 4.52699 2.77344 4.63802 2.47514 4.86009C2.18016 5.08215 1.95644 5.39205 1.80398 5.78977C1.65152 6.1875 1.57528 6.65151 1.57528 7.18182ZM8.76296 11V3.36364H10.1998V4.5767H10.2793C10.4185 4.16572 10.6638 3.84257 11.0151 3.60724C11.3697 3.36861 11.7708 3.24929 12.2182 3.24929C12.311 3.24929 12.4204 3.2526 12.5463 3.25923C12.6756 3.26586 12.7767 3.27415 12.8496 3.28409V4.70597C12.79 4.68939 12.6839 4.67116 12.5314 4.65128C12.379 4.62808 12.2265 4.61648 12.074 4.61648C11.7227 4.61648 11.4095 4.69105 11.1344 4.8402C10.8626 4.98603 10.6472 5.18987 10.4881 5.4517C10.329 5.71023 10.2495 6.00521 10.2495 6.33665V11H8.76296ZM14.136 11V3.36364H15.6225V11H14.136ZM14.8867 2.18537C14.6282 2.18537 14.4061 2.09919 14.2205 1.92685C14.0382 1.75118 13.9471 1.54238 13.9471 1.30043C13.9471 1.05516 14.0382 0.846354 14.2205 0.674005C14.4061 0.498342 14.6282 0.410511 14.8867 0.410511C15.1452 0.410511 15.3656 0.498342 15.5479 0.674005C15.7335 0.846354 15.8263 1.05516 15.8263 1.30043C15.8263 1.54238 15.7335 1.75118 15.5479 1.92685C15.3656 2.09919 15.1452 2.18537 14.8867 2.18537ZM20.9135 11.1541C20.1612 11.1541 19.5132 10.9934 18.9696 10.6719C18.4294 10.3471 18.0118 9.89134 17.7168 9.30469C17.4251 8.71473 17.2793 8.02367 17.2793 7.23153C17.2793 6.44934 17.4251 5.75994 17.7168 5.16335C18.0118 4.56676 18.4228 4.10109 18.9498 3.76633C19.4801 3.43158 20.0998 3.2642 20.8091 3.2642C21.24 3.2642 21.6576 3.33546 22.062 3.47798C22.4663 3.6205 22.8292 3.84422 23.1507 4.14915C23.4722 4.45407 23.7258 4.85014 23.9114 5.33736C24.097 5.82126 24.1898 6.40956 24.1898 7.10227V7.62926H18.1195V6.51562H22.7331C22.7331 6.12453 22.6536 5.77817 22.4945 5.47656C22.3354 5.17164 22.1117 4.93134 21.8233 4.75568C21.5383 4.58002 21.2035 4.49219 20.8191 4.49219C20.4015 4.49219 20.0369 4.59493 19.7253 4.80043C19.4171 5.0026 19.1784 5.26776 19.0094 5.59588C18.8437 5.92069 18.7608 6.27367 18.7608 6.65483V7.52486C18.7608 8.03527 18.8503 8.46946 19.0293 8.82741C19.2116 9.18537 19.4651 9.45881 19.79 9.64773C20.1148 9.83333 20.4943 9.92614 20.9284 9.92614C21.2102 9.92614 21.467 9.88636 21.699 9.80682C21.931 9.72396 22.1316 9.60133 22.3006 9.43892C22.4696 9.27652 22.5989 9.07599 22.6884 8.83736L24.0953 9.09091C23.9827 9.50521 23.7805 9.86813 23.4888 10.1797C23.2005 10.4879 22.8375 10.7282 22.4 10.9006C21.9658 11.0696 21.4703 11.1541 20.9135 11.1541ZM29.4734 3.36364V4.55682H25.158V3.36364H29.4734ZM26.3413 11V2.47869C26.3413 2.00142 26.4457 1.60535 26.6545 1.29048C26.8633 0.972301 27.14 0.735322 27.4847 0.579545C27.8294 0.420454 28.204 0.340908 28.6083 0.340908C28.9066 0.340908 29.1618 0.365767 29.3739 0.415483C29.5861 0.461884 29.7435 0.504971 29.8462 0.544744L29.4982 1.74787C29.4286 1.72798 29.3391 1.70478 29.2298 1.67827C29.1204 1.64844 28.9878 1.63352 28.832 1.63352C28.4708 1.63352 28.2122 1.72301 28.0565 1.90199C27.904 2.08097 27.8278 2.33949 27.8278 2.67756V11H26.3413ZM33.9229 11.1541C33.1838 11.1541 32.5475 10.9867 32.0138 10.652C31.4835 10.3139 31.0759 9.84825 30.7908 9.25497C30.5058 8.66169 30.3633 7.98224 30.3633 7.21662C30.3633 6.44105 30.5091 5.75663 30.8008 5.16335C31.0924 4.56676 31.5034 4.10109 32.0337 3.76633C32.564 3.43158 33.1888 3.2642 33.908 3.2642C34.488 3.2642 35.0051 3.37192 35.4592 3.58736C35.9132 3.79948 36.2795 4.09777 36.5579 4.48224C36.8396 4.86671 37.007 5.31581 37.06 5.82955H35.6133C35.5337 5.47159 35.3514 5.16335 35.0664 4.90483C34.7847 4.64631 34.4068 4.51705 33.9329 4.51705C33.5186 4.51705 33.1557 4.62642 32.8441 4.84517C32.5359 5.06061 32.2956 5.36884 32.1232 5.76989C31.9509 6.16761 31.8647 6.63826 31.8647 7.18182C31.8647 7.73864 31.9492 8.21922 32.1183 8.62358C32.2873 9.02794 32.5259 9.34115 32.8342 9.56321C33.1457 9.78527 33.512 9.89631 33.9329 9.89631C34.2146 9.89631 34.4698 9.84493 34.6985 9.74219C34.9305 9.63613 35.1244 9.48532 35.2802 9.28977C35.4393 9.09422 35.5503 8.8589 35.6133 8.58381H37.06C37.007 9.07765 36.8462 9.51847 36.5778 9.90625C36.3093 10.294 35.9497 10.599 35.4989 10.821C35.0515 11.0431 34.5262 11.1541 33.9229 11.1541ZM40.872 11.169C40.3881 11.169 39.9506 11.0795 39.5595 10.9006C39.1684 10.7183 38.8585 10.4548 38.6298 10.1101C38.4044 9.76539 38.2917 9.3428 38.2917 8.84233C38.2917 8.41146 38.3746 8.05682 38.5403 7.77841C38.706 7.5 38.9297 7.27959 39.2115 7.11719C39.4932 6.95478 39.8081 6.83215 40.1561 6.74929C40.5041 6.66643 40.8587 6.60346 41.22 6.56037C41.6774 6.50734 42.0486 6.46425 42.3336 6.43111C42.6187 6.39465 42.8258 6.33665 42.9551 6.2571C43.0843 6.17756 43.149 6.0483 43.149 5.86932V5.83452C43.149 5.40033 43.0263 5.06392 42.7811 4.82528C42.5391 4.58665 42.1779 4.46733 41.6973 4.46733C41.1968 4.46733 40.8024 4.57836 40.514 4.80043C40.229 5.01918 40.0318 5.26278 39.9224 5.53125L38.5254 5.21307C38.6911 4.74905 38.9331 4.37453 39.2512 4.08949C39.5727 3.80114 39.9423 3.59233 40.3599 3.46307C40.7775 3.33049 41.2167 3.2642 41.6774 3.2642C41.9823 3.2642 42.3055 3.30066 42.6468 3.37358C42.9915 3.44318 43.313 3.57244 43.6113 3.76136C43.9129 3.95028 44.1599 4.22041 44.3521 4.57173C44.5443 4.91974 44.6404 5.37216 44.6404 5.92898V11H43.1887V9.95597H43.1291C43.033 10.1482 42.8888 10.3371 42.6966 10.5227C42.5043 10.7083 42.2574 10.8625 41.9558 10.9851C41.6542 11.1077 41.2929 11.169 40.872 11.169ZM41.1951 9.97585C41.6061 9.97585 41.9574 9.89465 42.2491 9.73224C42.5441 9.56984 42.7678 9.35772 42.9203 9.09588C43.0761 8.83073 43.1539 8.54735 43.1539 8.24574V7.26136C43.1009 7.31439 42.9982 7.36411 42.8457 7.41051C42.6966 7.4536 42.5259 7.49171 42.3336 7.52486C42.1414 7.55469 41.9541 7.58286 41.7718 7.60938C41.5895 7.63258 41.4371 7.65246 41.3145 7.66903C41.0261 7.70549 40.7626 7.76681 40.524 7.85298C40.2886 7.93916 40.0997 8.06345 39.9572 8.22585C39.818 8.38494 39.7484 8.59706 39.7484 8.86222C39.7484 9.23011 39.8843 9.50852 40.1561 9.69744C40.4279 9.88305 40.7742 9.97585 41.1951 9.97585ZM52.3427 5.22798L50.9954 5.46662C50.939 5.29427 50.8496 5.13021 50.7269 4.97443C50.6076 4.81865 50.4452 4.69105 50.2397 4.59162C50.0342 4.49219 49.7773 4.44247 49.4691 4.44247C49.0482 4.44247 48.6969 4.53693 48.4151 4.72585C48.1334 4.91146 47.9925 5.15175 47.9925 5.44673C47.9925 5.70194 48.087 5.90743 48.2759 6.06321C48.4648 6.21899 48.7698 6.34659 49.1907 6.44602L50.4038 6.72443C51.1064 6.88684 51.6301 7.13707 51.9748 7.47514C52.3195 7.81321 52.4918 8.25237 52.4918 8.79261C52.4918 9.25 52.3593 9.65767 52.0941 10.0156C51.8323 10.3703 51.466 10.6487 50.9954 10.8509C50.5281 11.053 49.9862 11.1541 49.3697 11.1541C48.5146 11.1541 47.8169 10.9718 47.2766 10.6072C46.7364 10.2393 46.4049 9.71733 46.2823 9.04119L47.7191 8.82244C47.8086 9.19697 47.9925 9.48035 48.271 9.67259C48.5494 9.86151 48.9123 9.95597 49.3597 9.95597C49.8469 9.95597 50.2364 9.85488 50.5281 9.6527C50.8197 9.44721 50.9656 9.19697 50.9656 8.90199C50.9656 8.66335 50.8761 8.46283 50.6971 8.30043C50.5214 8.13802 50.2513 8.01539 49.8867 7.93253L48.5941 7.64915C47.8815 7.48674 47.3545 7.22822 47.0131 6.87358C46.6751 6.51894 46.506 6.06984 46.506 5.52628C46.506 5.07552 46.632 4.68111 46.8839 4.34304C47.1358 4.00497 47.4838 3.74148 47.9279 3.55256C48.372 3.36032 48.8808 3.2642 49.4542 3.2642C50.2795 3.2642 50.9291 3.44318 51.4031 3.80114C51.877 4.15578 52.1902 4.63139 52.3427 5.22798ZM57.4174 11.1541C56.6651 11.1541 56.0171 10.9934 55.4735 10.6719C54.9333 10.3471 54.5157 9.89134 54.2207 9.30469C53.929 8.71473 53.7832 8.02367 53.7832 7.23153C53.7832 6.44934 53.929 5.75994 54.2207 5.16335C54.5157 4.56676 54.9267 4.10109 55.4537 3.76633C55.984 3.43158 56.6038 3.2642 57.313 3.2642C57.7439 3.2642 58.1615 3.33546 58.5659 3.47798C58.9702 3.6205 59.3332 3.84422 59.6547 4.14915C59.9761 4.45407 60.2297 4.85014 60.4153 5.33736C60.6009 5.82126 60.6937 6.40956 60.6937 7.10227V7.62926H54.6234V6.51562H59.237C59.237 6.12453 59.1575 5.77817 58.9984 5.47656C58.8393 5.17164 58.6156 4.93134 58.3272 4.75568C58.0422 4.58002 57.7074 4.49219 57.323 4.49219C56.9054 4.49219 56.5408 4.59493 56.2292 4.80043C55.921 5.0026 55.6824 5.26776 55.5133 5.59588C55.3476 5.92069 55.2647 6.27367 55.2647 6.65483V7.52486C55.2647 8.03527 55.3542 8.46946 55.5332 8.82741C55.7155 9.18537 55.969 9.45881 56.2939 9.64773C56.6187 9.83333 56.9982 9.92614 57.4324 9.92614C57.7141 9.92614 57.9709 9.88636 58.2029 9.80682C58.435 9.72396 58.6355 9.60133 58.8045 9.43892C58.9735 9.27652 59.1028 9.07599 59.1923 8.83736L60.5993 9.09091C60.4866 9.50521 60.2844 9.86813 59.9927 10.1797C59.7044 10.4879 59.3414 10.7282 58.9039 10.9006C58.4698 11.0696 57.9743 11.1541 57.4174 11.1541ZM66.8423 6.05327V7.34091H62.3281V6.05327H66.8423ZM72.3484 11.169C71.5629 11.1657 70.8917 10.9586 70.3349 10.5476C69.7781 10.1366 69.3522 9.53835 69.0572 8.75284C68.7622 7.96733 68.6147 7.02107 68.6147 5.91406C68.6147 4.81037 68.7622 3.86742 69.0572 3.08523C69.3555 2.30303 69.783 1.70644 70.3398 1.29545C70.9 0.884469 71.5695 0.678977 72.3484 0.678977C73.1272 0.678977 73.7951 0.886126 74.3519 1.30043C74.9087 1.71141 75.3346 2.308 75.6296 3.0902C75.9279 3.86908 76.0771 4.81037 76.0771 5.91406C76.0771 7.02438 75.9296 7.9723 75.6346 8.75781C75.3396 9.54001 74.9137 10.1383 74.3569 10.5526C73.8001 10.9635 73.1306 11.169 72.3484 11.169ZM72.3484 9.84162C73.0378 9.84162 73.5763 9.50521 73.9641 8.83239C74.3552 8.15956 74.5508 7.18679 74.5508 5.91406C74.5508 5.06889 74.4613 4.35464 74.2823 3.77131C74.1067 3.18466 73.8531 2.74053 73.5217 2.43892C73.1935 2.134 72.8024 1.98153 72.3484 1.98153C71.6623 1.98153 71.1237 2.3196 70.7326 2.99574C70.3415 3.67187 70.1443 4.64465 70.141 5.91406C70.141 6.76255 70.2288 7.48011 70.4045 8.06676C70.5835 8.65009 70.837 9.09257 71.1651 9.39418C71.4933 9.69247 71.8877 9.84162 72.3484 9.84162ZM77.8407 11V9.88636L81.286 6.31676C81.6539 5.92898 81.9572 5.58925 82.1958 5.29759C82.4378 5.0026 82.6184 4.72254 82.7377 4.45739C82.8571 4.19223 82.9167 3.91051 82.9167 3.61222C82.9167 3.27415 82.8372 2.98248 82.6781 2.73722C82.519 2.48864 82.3019 2.29806 82.0268 2.16548C81.7517 2.02959 81.4418 1.96165 81.0971 1.96165C80.7325 1.96165 80.4144 2.03622 80.1426 2.18537C79.8708 2.33452 79.662 2.54498 79.5162 2.81676C79.3703 3.08854 79.2974 3.40672 79.2974 3.77131H77.8308C77.8308 3.15151 77.9733 2.60961 78.2583 2.1456C78.5434 1.68158 78.9345 1.32197 79.4316 1.06676C79.9288 0.808238 80.4939 0.678977 81.127 0.678977C81.7666 0.678977 82.3301 0.806581 82.8173 1.06179C83.3078 1.31368 83.6906 1.65838 83.9657 2.09588C84.2408 2.53007 84.3784 3.0206 84.3784 3.56747C84.3784 3.94531 84.3071 4.31487 84.1646 4.67614C84.0254 5.0374 83.7818 5.4401 83.4338 5.88423C83.0858 6.32505 82.6019 6.86032 81.9821 7.49006L79.9586 9.60795V9.68253H84.5424V11H77.8407Z" fill="black"/>
</svg>
