<svg width="43" height="9" viewBox="0 0 43 9" fill="none" xmlns="http://www.w3.org/2000/svg">
<path d="M2.65483 8L0.40767 0.363636H1.94389L3.44034 5.97159H3.51491L5.01634 0.363636H6.55256L8.04403 5.94673H8.11861L9.60511 0.363636H11.1413L8.89915 8H7.38281L5.83168 2.48651H5.71733L4.16619 8H2.65483ZM14.7743 8.16903C14.2904 8.16903 13.8529 8.07955 13.4618 7.90057C13.0707 7.71828 12.7608 7.45478 12.5321 7.11009C12.3068 6.76539 12.1941 6.3428 12.1941 5.84233C12.1941 5.41146 12.2769 5.05682 12.4426 4.77841C12.6084 4.5 12.8321 4.27959 13.1138 4.11719C13.3955 3.95478 13.7104 3.83215 14.0584 3.74929C14.4064 3.66643 14.7611 3.60346 15.1223 3.56037C15.5797 3.50734 15.9509 3.46425 16.236 3.43111C16.521 3.39465 16.7282 3.33665 16.8574 3.2571C16.9867 3.17756 17.0513 3.0483 17.0513 2.86932V2.83452C17.0513 2.40033 16.9287 2.06392 16.6834 1.82528C16.4415 1.58665 16.0802 1.46733 15.5996 1.46733C15.0991 1.46733 14.7047 1.57836 14.4164 1.80043C14.1313 2.01918 13.9341 2.26278 13.8248 2.53125L12.4277 2.21307C12.5935 1.74905 12.8354 1.37453 13.1536 1.08949C13.4751 0.801136 13.8446 0.592329 14.2623 0.463068C14.6799 0.330492 15.119 0.264205 15.5797 0.264205C15.8846 0.264205 16.2078 0.300663 16.5492 0.37358C16.8939 0.443182 17.2154 0.572443 17.5137 0.761363C17.8153 0.950284 18.0622 1.22041 18.2544 1.57173C18.4467 1.91974 18.5428 2.37216 18.5428 2.92898V8H17.0911V6.95597H17.0314C16.9353 7.1482 16.7911 7.33712 16.5989 7.52273C16.4067 7.70833 16.1597 7.86245 15.8581 7.98509C15.5565 8.10772 15.1953 8.16903 14.7743 8.16903ZM15.0975 6.97585C15.5085 6.97585 15.8598 6.89465 16.1515 6.73224C16.4464 6.56984 16.6702 6.35772 16.8226 6.09588C16.9784 5.83073 17.0563 5.54735 17.0563 5.24574V4.26136C17.0033 4.31439 16.9005 4.36411 16.748 4.41051C16.5989 4.4536 16.4282 4.49171 16.236 4.52486C16.0437 4.55469 15.8565 4.58286 15.6742 4.60938C15.4919 4.63258 15.3394 4.65246 15.2168 4.66903C14.9284 4.70549 14.665 4.76681 14.4263 4.85298C14.191 4.93916 14.0021 5.06345 13.8596 5.22585C13.7203 5.38494 13.6507 5.59706 13.6507 5.86222C13.6507 6.23011 13.7866 6.50852 14.0584 6.69744C14.3302 6.88305 14.6766 6.97585 15.0975 6.97585ZM26.782 0.363636L24.0128 8H22.4219L19.6477 0.363636H21.2436L23.1776 6.24006H23.2571L25.1861 0.363636H26.782ZM31.2104 8.15412C30.458 8.15412 29.8101 7.99337 29.2665 7.67188C28.7263 7.34706 28.3087 6.89134 28.0137 6.30469C27.722 5.71473 27.5762 5.02367 27.5762 4.23153C27.5762 3.44934 27.722 2.75994 28.0137 2.16335C28.3087 1.56676 28.7196 1.10109 29.2466 0.766335C29.7769 0.431581 30.3967 0.264205 31.106 0.264205C31.5369 0.264205 31.9545 0.335464 32.3588 0.477983C32.7632 0.620502 33.1261 0.844223 33.4476 1.14915C33.7691 1.45407 34.0227 1.85014 34.2083 2.33736C34.3939 2.82126 34.4867 3.40956 34.4867 4.10227V4.62926H28.4164V3.51562H33.03C33.03 3.12453 32.9505 2.77817 32.7914 2.47656C32.6323 2.17164 32.4086 1.93134 32.1202 1.75568C31.8352 1.58002 31.5004 1.49219 31.1159 1.49219C30.6983 1.49219 30.3337 1.59493 30.0222 1.80043C29.714 2.0026 29.4753 2.26776 29.3063 2.59588C29.1406 2.92069 29.0577 3.27367 29.0577 3.65483V4.52486C29.0577 5.03527 29.1472 5.46946 29.3262 5.82741C29.5085 6.18537 29.762 6.45881 30.0868 6.64773C30.4116 6.83333 30.7911 6.92614 31.2253 6.92614C31.507 6.92614 31.7639 6.88636 31.9959 6.80682C32.2279 6.72396 32.4284 6.60133 32.5975 6.43892C32.7665 6.27652 32.8958 6.07599 32.9853 5.83736L34.3922 6.09091C34.2795 6.50521 34.0774 6.86813 33.7857 7.17969C33.4973 7.48793 33.1344 7.72822 32.6969 7.90057C32.2627 8.0696 31.7672 8.15412 31.2104 8.15412ZM41.8583 2.22798L40.511 2.46662C40.4547 2.29427 40.3652 2.13021 40.2425 1.97443C40.1232 1.81865 39.9608 1.69105 39.7553 1.59162C39.5498 1.49219 39.293 1.44247 38.9847 1.44247C38.5638 1.44247 38.2125 1.53693 37.9308 1.72585C37.649 1.91146 37.5082 2.15175 37.5082 2.44673C37.5082 2.70194 37.6026 2.90743 37.7915 3.06321C37.9805 3.21899 38.2854 3.34659 38.7063 3.44602L39.9194 3.72443C40.622 3.88684 41.1457 4.13707 41.4904 4.47514C41.8351 4.81321 42.0075 5.25237 42.0075 5.79261C42.0075 6.25 41.8749 6.65767 41.6097 7.01562C41.3479 7.37027 40.9817 7.64867 40.511 7.85085C40.0437 8.05303 39.5018 8.15412 38.8853 8.15412C38.0302 8.15412 37.3325 7.97183 36.7923 7.60724C36.252 7.23935 35.9206 6.71733 35.7979 6.04119L37.2347 5.82244C37.3242 6.19697 37.5082 6.48035 37.7866 6.67259C38.065 6.86151 38.4279 6.95597 38.8754 6.95597C39.3626 6.95597 39.752 6.85488 40.0437 6.6527C40.3353 6.44721 40.4812 6.19697 40.4812 5.90199C40.4812 5.66335 40.3917 5.46283 40.2127 5.30043C40.0371 5.13802 39.7669 5.01539 39.4023 4.93253L38.1097 4.64915C37.3971 4.48674 36.8701 4.22822 36.5288 3.87358C36.1907 3.51894 36.0217 3.06984 36.0217 2.52628C36.0217 2.07552 36.1476 1.68111 36.3995 1.34304C36.6514 1.00497 36.9994 0.741477 37.4435 0.552557C37.8877 0.360322 38.3964 0.264205 38.9698 0.264205C39.7951 0.264205 40.4447 0.443182 40.9187 0.801136C41.3926 1.15578 41.7058 1.63139 41.8583 2.22798Z" fill="black"/>
</svg>
