<svg width="113" height="15" viewBox="0 0 113 15" fill="none" xmlns="http://www.w3.org/2000/svg">
<path d="M4.21591 11.1541C3.4768 11.1541 2.84044 10.9867 2.30682 10.652C1.77652 10.3139 1.36884 9.84825 1.08381 9.25497C0.798769 8.66169 0.65625 7.98224 0.65625 7.21662C0.65625 6.44105 0.802083 5.75663 1.09375 5.16335C1.38542 4.56676 1.7964 4.10109 2.3267 3.76633C2.85701 3.43158 3.48177 3.2642 4.20099 3.2642C4.78101 3.2642 5.29806 3.37192 5.75213 3.58736C6.2062 3.79948 6.57244 4.09777 6.85085 4.48224C7.13258 4.86671 7.29995 5.31581 7.35298 5.82955H5.90625C5.8267 5.47159 5.64441 5.16335 5.35938 4.90483C5.07765 4.64631 4.69981 4.51705 4.22585 4.51705C3.81155 4.51705 3.44863 4.62642 3.13707 4.84517C2.82884 5.06061 2.58854 5.36884 2.41619 5.76989C2.24384 6.16761 2.15767 6.63826 2.15767 7.18182C2.15767 7.73864 2.24219 8.21922 2.41122 8.62358C2.58026 9.02794 2.81889 9.34115 3.12713 9.56321C3.43868 9.78527 3.80492 9.89631 4.22585 9.89631C4.50758 9.89631 4.76278 9.84493 4.99148 9.74219C5.22349 9.63613 5.41738 9.48532 5.57315 9.28977C5.73224 9.09422 5.84328 8.8589 5.90625 8.58381H7.35298C7.29995 9.07765 7.1392 9.51847 6.87074 9.90625C6.60227 10.294 6.24266 10.599 5.7919 10.821C5.34446 11.0431 4.81913 11.1541 4.21591 11.1541ZM10.4292 0.818182V11H8.94265V0.818182H10.4292ZM15.6456 11.1541C14.9297 11.1541 14.3049 10.9901 13.7713 10.6619C13.2377 10.3338 12.8234 9.87476 12.5284 9.2848C12.2334 8.69484 12.0859 8.00544 12.0859 7.21662C12.0859 6.42448 12.2334 5.73177 12.5284 5.13849C12.8234 4.54522 13.2377 4.08452 13.7713 3.75639C14.3049 3.42827 14.9297 3.2642 15.6456 3.2642C16.3615 3.2642 16.9863 3.42827 17.5199 3.75639C18.0535 4.08452 18.4678 4.54522 18.7628 5.13849C19.0578 5.73177 19.2053 6.42448 19.2053 7.21662C19.2053 8.00544 19.0578 8.69484 18.7628 9.2848C18.4678 9.87476 18.0535 10.3338 17.5199 10.6619C16.9863 10.9901 16.3615 11.1541 15.6456 11.1541ZM15.6506 9.90625C16.1146 9.90625 16.4991 9.78362 16.804 9.53835C17.1089 9.29309 17.3343 8.96662 17.4801 8.55895C17.6293 8.15128 17.7038 7.70218 17.7038 7.21165C17.7038 6.72443 17.6293 6.27699 17.4801 5.86932C17.3343 5.45833 17.1089 5.12855 16.804 4.87997C16.4991 4.63139 16.1146 4.5071 15.6506 4.5071C15.1832 4.5071 14.7955 4.63139 14.4872 4.87997C14.1823 5.12855 13.9553 5.45833 13.8061 5.86932C13.6603 6.27699 13.5874 6.72443 13.5874 7.21165C13.5874 7.70218 13.6603 8.15128 13.8061 8.55895C13.9553 8.96662 14.1823 9.29309 14.4872 9.53835C14.7955 9.78362 15.1832 9.90625 15.6506 9.90625ZM25.7019 7.8331V3.36364H27.1934V11H25.7317V9.67756H25.6522C25.4765 10.0852 25.1948 10.425 24.807 10.6967C24.4225 10.9652 23.9436 11.0994 23.3702 11.0994C22.8797 11.0994 22.4455 10.9917 22.0676 10.7763C21.6931 10.5575 21.3981 10.2344 21.1827 9.80682C20.9706 9.37926 20.8645 8.85062 20.8645 8.22088V3.36364H22.351V8.0419C22.351 8.56226 22.4952 8.97656 22.7836 9.2848C23.0719 9.59304 23.4464 9.74716 23.9071 9.74716C24.1855 9.74716 24.4623 9.67756 24.7374 9.53835C25.0158 9.39915 25.2462 9.18868 25.4284 8.90696C25.6141 8.62524 25.7052 8.26728 25.7019 7.8331ZM32.0494 11.1491C31.4329 11.1491 30.8827 10.9917 30.3988 10.6768C29.9182 10.3587 29.5404 9.90625 29.2653 9.3196C28.9935 8.72964 28.8576 8.02202 28.8576 7.19673C28.8576 6.37145 28.9951 5.66548 29.2702 5.07884C29.5487 4.49219 29.9298 4.04309 30.4137 3.73153C30.8976 3.41998 31.4461 3.2642 32.0593 3.2642C32.5333 3.2642 32.9144 3.34375 33.2028 3.50284C33.4944 3.65862 33.7198 3.84091 33.8789 4.04972C34.0413 4.25852 34.1673 4.44247 34.2567 4.60156H34.3462V0.818182H35.8327V11H34.381V9.81179H34.2567C34.1673 9.9742 34.038 10.1598 33.869 10.3686C33.7032 10.5774 33.4746 10.7597 33.1829 10.9155C32.8912 11.0713 32.5134 11.1491 32.0494 11.1491ZM32.3775 9.88139C32.805 9.88139 33.1663 9.7687 33.4613 9.54332C33.7596 9.31463 33.985 8.99811 34.1374 8.59375C34.2932 8.18939 34.3711 7.71875 34.3711 7.18182C34.3711 6.65151 34.2949 6.1875 34.1424 5.78977C33.9899 5.39205 33.7662 5.08215 33.4712 4.86009C33.1763 4.63802 32.8117 4.52699 32.3775 4.52699C31.93 4.52699 31.5572 4.64299 31.2589 4.875C30.9606 5.10701 30.7352 5.42353 30.5827 5.82457C30.4336 6.22562 30.359 6.67803 30.359 7.18182C30.359 7.69223 30.4353 8.15128 30.5877 8.55895C30.7402 8.96662 30.9656 9.28977 31.2638 9.52841C31.5655 9.76373 31.9367 9.88139 32.3775 9.88139ZM42.4537 6.05327V7.34091H37.9395V6.05327H42.4537ZM44.4348 11V3.36364H45.8716V4.5767H45.9512C46.0904 4.16572 46.3356 3.84257 46.687 3.60724C47.0416 3.36861 47.4426 3.24929 47.8901 3.24929C47.9829 3.24929 48.0923 3.2526 48.2182 3.25923C48.3475 3.26586 48.4486 3.27415 48.5215 3.28409V4.70597C48.4618 4.68939 48.3558 4.67116 48.2033 4.65128C48.0508 4.62808 47.8984 4.61648 47.7459 4.61648C47.3946 4.61648 47.0814 4.69105 46.8063 4.8402C46.5345 4.98603 46.3191 5.18987 46.16 5.4517C46.0009 5.71023 45.9213 6.00521 45.9213 6.33665V11H44.4348ZM51.9618 11.169C51.4779 11.169 51.0404 11.0795 50.6493 10.9006C50.2582 10.7183 49.9483 10.4548 49.7196 10.1101C49.4943 9.76539 49.3816 9.3428 49.3816 8.84233C49.3816 8.41146 49.4644 8.05682 49.6301 7.77841C49.7959 7.5 50.0196 7.27959 50.3013 7.11719C50.583 6.95478 50.8979 6.83215 51.2459 6.74929C51.5939 6.66643 51.9486 6.60346 52.3098 6.56037C52.7672 6.50734 53.1384 6.46425 53.4235 6.43111C53.7085 6.39465 53.9157 6.33665 54.0449 6.2571C54.1742 6.17756 54.2388 6.0483 54.2388 5.86932V5.83452C54.2388 5.40033 54.1162 5.06392 53.8709 4.82528C53.629 4.58665 53.2677 4.46733 52.7871 4.46733C52.2866 4.46733 51.8922 4.57836 51.6039 4.80043C51.3188 5.01918 51.1216 5.26278 51.0123 5.53125L49.6152 5.21307C49.781 4.74905 50.0229 4.37453 50.3411 4.08949C50.6626 3.80114 51.0321 3.59233 51.4498 3.46307C51.8674 3.33049 52.3065 3.2642 52.7672 3.2642C53.0721 3.2642 53.3953 3.30066 53.7367 3.37358C54.0814 3.44318 54.4029 3.57244 54.7012 3.76136C55.0028 3.95028 55.2497 4.22041 55.4419 4.57173C55.6342 4.91974 55.7303 5.37216 55.7303 5.92898V11H54.2786V9.95597H54.2189C54.1228 10.1482 53.9786 10.3371 53.7864 10.5227C53.5942 10.7083 53.3472 10.8625 53.0456 10.9851C52.744 11.1077 52.3828 11.169 51.9618 11.169ZM52.285 9.97585C52.696 9.97585 53.0473 9.89465 53.339 9.73224C53.6339 9.56984 53.8577 9.35772 54.0101 9.09588C54.1659 8.83073 54.2438 8.54735 54.2438 8.24574V7.26136C54.1908 7.31439 54.088 7.36411 53.9355 7.41051C53.7864 7.4536 53.6157 7.49171 53.4235 7.52486C53.2312 7.55469 53.044 7.58286 52.8617 7.60938C52.6794 7.63258 52.5269 7.65246 52.4043 7.66903C52.1159 7.70549 51.8525 7.76681 51.6138 7.85298C51.3785 7.93916 51.1896 8.06345 51.0471 8.22585C50.9078 8.38494 50.8382 8.59706 50.8382 8.86222C50.8382 9.23011 50.9741 9.50852 51.2459 9.69744C51.5177 9.88305 51.8641 9.97585 52.285 9.97585ZM57.7102 11V3.36364H59.1967V11H57.7102ZM58.4609 2.18537C58.2024 2.18537 57.9804 2.09919 57.7947 1.92685C57.6125 1.75118 57.5213 1.54238 57.5213 1.30043C57.5213 1.05516 57.6125 0.846354 57.7947 0.674005C57.9804 0.498342 58.2024 0.410511 58.4609 0.410511C58.7195 0.410511 58.9399 0.498342 59.1222 0.674005C59.3078 0.846354 59.4006 1.05516 59.4006 1.30043C59.4006 1.54238 59.3078 1.75118 59.1222 1.92685C58.9399 2.09919 58.7195 2.18537 58.4609 2.18537ZM62.6831 6.46591V11H61.1966V3.36364H62.6234V4.60653H62.7179C62.8935 4.20218 63.1686 3.87737 63.5431 3.6321C63.921 3.38684 64.3966 3.2642 64.97 3.2642C65.4904 3.2642 65.9461 3.37358 66.3372 3.59233C66.7283 3.80777 67.0315 4.12926 67.247 4.55682C67.4624 4.98437 67.5701 5.51302 67.5701 6.14276V11H66.0836V6.32173C66.0836 5.76823 65.9395 5.3357 65.6511 5.02415C65.3627 4.70928 64.9667 4.55185 64.4629 4.55185C64.1182 4.55185 63.8116 4.62642 63.5431 4.77557C63.278 4.92472 63.0675 5.14347 62.9118 5.43182C62.7593 5.71686 62.6831 6.06155 62.6831 6.46591ZM69.5637 11V3.36364H71.0502V11H69.5637ZM70.3145 2.18537C70.0559 2.18537 69.8339 2.09919 69.6483 1.92685C69.466 1.75118 69.3748 1.54238 69.3748 1.30043C69.3748 1.05516 69.466 0.846354 69.6483 0.674005C69.8339 0.498342 70.0559 0.410511 70.3145 0.410511C70.573 0.410511 70.7934 0.498342 70.9757 0.674005C71.1613 0.846354 71.2541 1.05516 71.2541 1.30043C71.2541 1.54238 71.1613 1.75118 70.9757 1.92685C70.7934 2.09919 70.573 2.18537 70.3145 2.18537ZM74.5366 6.46591V11H73.0501V3.36364H74.4769V4.60653H74.5714C74.747 4.20218 75.0221 3.87737 75.3967 3.6321C75.7745 3.38684 76.2501 3.2642 76.8235 3.2642C77.3439 3.2642 77.7996 3.37358 78.1907 3.59233C78.5818 3.80777 78.8851 4.12926 79.1005 4.55682C79.3159 4.98437 79.4237 5.51302 79.4237 6.14276V11H77.9371V6.32173C77.9371 5.76823 77.793 5.3357 77.5046 5.02415C77.2163 4.70928 76.8202 4.55185 76.3164 4.55185C75.9717 4.55185 75.6651 4.62642 75.3967 4.77557C75.1315 4.92472 74.921 5.14347 74.7653 5.43182C74.6128 5.71686 74.5366 6.06155 74.5366 6.46591ZM84.619 14.0227C84.0124 14.0227 83.4904 13.9432 83.0529 13.7841C82.6187 13.625 82.2641 13.4145 81.989 13.1527C81.7139 12.8909 81.5084 12.6042 81.3725 12.2926L82.6502 11.7656C82.7397 11.9115 82.859 12.0656 83.0082 12.228C83.1606 12.3937 83.3661 12.5346 83.6246 12.6506C83.8865 12.7666 84.2229 12.8246 84.6339 12.8246C85.1973 12.8246 85.663 12.687 86.0309 12.4119C86.3988 12.1402 86.5827 11.706 86.5827 11.1094V9.60795H86.4883C86.3988 9.77036 86.2695 9.95099 86.1005 10.1499C85.9348 10.3487 85.7061 10.5211 85.4144 10.6669C85.1228 10.8127 84.7433 10.8857 84.2759 10.8857C83.6727 10.8857 83.1291 10.7448 82.6452 10.4631C82.1647 10.178 81.7835 9.75876 81.5018 9.20526C81.2234 8.64844 81.0842 7.96401 81.0842 7.15199C81.0842 6.33996 81.2217 5.64394 81.4968 5.06392C81.7752 4.4839 82.1564 4.03977 82.6403 3.73153C83.1242 3.41998 83.6727 3.2642 84.2859 3.2642C84.7598 3.2642 85.1426 3.34375 85.4343 3.50284C85.726 3.65862 85.953 3.84091 86.1154 4.04972C86.2811 4.25852 86.4087 4.44247 86.4982 4.60156H86.6076V3.36364H88.0643V11.169C88.0643 11.8253 87.9118 12.3639 87.6069 12.7848C87.302 13.2057 86.8893 13.5173 86.369 13.7195C85.8519 13.9216 85.2686 14.0227 84.619 14.0227ZM84.604 9.6527C85.0316 9.6527 85.3929 9.55327 85.6879 9.3544C85.9862 9.15223 86.2115 8.86387 86.364 8.48935C86.5198 8.11151 86.5977 7.65909 86.5977 7.1321C86.5977 6.61837 86.5214 6.16596 86.369 5.77486C86.2165 5.38376 85.9928 5.07884 85.6978 4.86009C85.4028 4.63802 85.0382 4.52699 84.604 4.52699C84.1566 4.52699 83.7837 4.64299 83.4854 4.875C83.1871 5.10369 82.9618 5.41525 82.8093 5.80966C82.6602 6.20407 82.5856 6.64489 82.5856 7.1321C82.5856 7.63258 82.6618 8.07173 82.8143 8.44957C82.9667 8.82741 83.1921 9.1224 83.4904 9.33452C83.792 9.54664 84.1632 9.6527 84.604 9.6527ZM94.5572 6.05327V7.34091H90.043V6.05327H94.5572ZM100.063 11.169C99.2777 11.1657 98.6065 10.9586 98.0497 10.5476C97.4929 10.1366 97.067 9.53835 96.772 8.75284C96.477 7.96733 96.3295 7.02107 96.3295 5.91406C96.3295 4.81037 96.477 3.86742 96.772 3.08523C97.0703 2.30303 97.4979 1.70644 98.0547 1.29545C98.6148 0.884469 99.2843 0.678977 100.063 0.678977C100.842 0.678977 101.51 0.886126 102.067 1.30043C102.624 1.71141 103.049 2.308 103.344 3.0902C103.643 3.86908 103.792 4.81037 103.792 5.91406C103.792 7.02438 103.644 7.9723 103.349 8.75781C103.054 9.54001 102.629 10.1383 102.072 10.5526C101.515 10.9635 100.845 11.169 100.063 11.169ZM100.063 9.84162C100.753 9.84162 101.291 9.50521 101.679 8.83239C102.07 8.15956 102.266 7.18679 102.266 5.91406C102.266 5.06889 102.176 4.35464 101.997 3.77131C101.821 3.18466 101.568 2.74053 101.237 2.43892C100.908 2.134 100.517 1.98153 100.063 1.98153C99.3771 1.98153 98.8385 2.3196 98.4474 2.99574C98.0563 3.67187 97.8591 4.64465 97.8558 5.91406C97.8558 6.76255 97.9437 7.48011 98.1193 8.06676C98.2983 8.65009 98.5518 9.09257 98.88 9.39418C99.2081 9.69247 99.6025 9.84162 100.063 9.84162ZM105.556 11V9.88636L109.001 6.31676C109.369 5.92898 109.672 5.58925 109.911 5.29759C110.153 5.0026 110.333 4.72254 110.453 4.45739C110.572 4.19223 110.632 3.91051 110.632 3.61222C110.632 3.27415 110.552 2.98248 110.393 2.73722C110.234 2.48864 110.017 2.29806 109.742 2.16548C109.467 2.02959 109.157 1.96165 108.812 1.96165C108.447 1.96165 108.129 2.03622 107.857 2.18537C107.586 2.33452 107.377 2.54498 107.231 2.81676C107.085 3.08854 107.012 3.40672 107.012 3.77131H105.546C105.546 3.15151 105.688 2.60961 105.973 2.1456C106.258 1.68158 106.649 1.32197 107.146 1.06676C107.644 0.808238 108.209 0.678977 108.842 0.678977C109.481 0.678977 110.045 0.806581 110.532 1.06179C111.023 1.31368 111.405 1.65838 111.681 2.09588C111.956 2.53007 112.093 3.0206 112.093 3.56747C112.093 3.94531 112.022 4.31487 111.879 4.67614C111.74 5.0374 111.497 5.4401 111.149 5.88423C110.801 6.32505 110.317 6.86032 109.697 7.49006L107.673 9.60795V9.68253H112.257V11H105.556Z" fill="black"/>
</svg>
