<svg width="87" height="12" viewBox="0 0 87 12" fill="none" xmlns="http://www.w3.org/2000/svg">
<path d="M1.4858 6.46591V11H-0.000710189V0.818182H1.46591V4.60653H1.56037C1.73935 4.19555 2.01278 3.86908 2.38068 3.62713C2.74858 3.38518 3.22917 3.2642 3.82244 3.2642C4.34612 3.2642 4.8035 3.37192 5.1946 3.58736C5.58902 3.80279 5.89394 4.12429 6.10938 4.55185C6.32812 4.97609 6.4375 5.50639 6.4375 6.14276V11H4.95099V6.32173C4.95099 5.7616 4.80682 5.32741 4.51847 5.01918C4.23011 4.70762 3.82907 4.55185 3.31534 4.55185C2.96402 4.55185 2.64915 4.62642 2.37074 4.77557C2.09564 4.92472 1.87855 5.14347 1.71946 5.43182C1.56368 5.71686 1.4858 6.06155 1.4858 6.46591ZM13.2585 7.8331V3.36364H14.75V11H13.2884V9.67756H13.2088C13.0331 10.0852 12.7514 10.425 12.3636 10.6967C11.9792 10.9652 11.5002 11.0994 10.9268 11.0994C10.4363 11.0994 10.0021 10.9917 9.62429 10.7763C9.24976 10.5575 8.95478 10.2344 8.73935 9.80682C8.52723 9.37926 8.42116 8.85062 8.42116 8.22088V3.36364H9.90767V8.0419C9.90767 8.56226 10.0518 8.97656 10.3402 9.2848C10.6286 9.59304 11.0031 9.74716 11.4638 9.74716C11.7422 9.74716 12.0189 9.67756 12.294 9.53835C12.5724 9.39915 12.8028 9.18868 12.9851 8.90696C13.1707 8.62524 13.2618 8.26728 13.2585 7.8331ZM16.7473 11V3.36364H18.1841V4.5767H18.2637C18.4029 4.16572 18.6481 3.84257 18.9995 3.60724C19.3541 3.36861 19.7551 3.24929 20.2026 3.24929C20.2954 3.24929 20.4048 3.2526 20.5307 3.25923C20.66 3.26586 20.7611 3.27415 20.834 3.28409V4.70597C20.7743 4.68939 20.6683 4.67116 20.5158 4.65128C20.3633 4.62808 20.2109 4.61648 20.0584 4.61648C19.7071 4.61648 19.3939 4.69105 19.1188 4.8402C18.847 4.98603 18.6316 5.18987 18.4725 5.4517C18.3134 5.71023 18.2338 6.00521 18.2338 6.33665V11H16.7473ZM22.1204 11V3.36364H23.5572V4.5767H23.6367C23.7759 4.16572 24.0212 3.84257 24.3725 3.60724C24.7272 3.36861 25.1282 3.24929 25.5756 3.24929C25.6684 3.24929 25.7778 3.2526 25.9038 3.25923C26.033 3.26586 26.1341 3.27415 26.207 3.28409V4.70597C26.1474 4.68939 26.0413 4.67116 25.8888 4.65128C25.7364 4.62808 25.5839 4.61648 25.4315 4.61648C25.0801 4.61648 24.7669 4.69105 24.4918 4.8402C24.2201 4.98603 24.0046 5.18987 23.8455 5.4517C23.6864 5.71023 23.6069 6.00521 23.6069 6.33665V11H22.1204ZM27.4934 11V3.36364H28.9799V11H27.4934ZM28.2441 2.18537C27.9856 2.18537 27.7636 2.09919 27.5779 1.92685C27.3957 1.75118 27.3045 1.54238 27.3045 1.30043C27.3045 1.05516 27.3957 0.846354 27.5779 0.674005C27.7636 0.498342 27.9856 0.410511 28.2441 0.410511C28.5027 0.410511 28.7231 0.498342 28.9054 0.674005C29.091 0.846354 29.1838 1.05516 29.1838 1.30043C29.1838 1.54238 29.091 1.75118 28.9054 1.92685C28.7231 2.09919 28.5027 2.18537 28.2441 2.18537ZM34.1964 11.1541C33.4573 11.1541 32.8209 10.9867 32.2873 10.652C31.757 10.3139 31.3493 9.84825 31.0643 9.25497C30.7792 8.66169 30.6367 7.98224 30.6367 7.21662C30.6367 6.44105 30.7826 5.75663 31.0742 5.16335C31.3659 4.56676 31.7769 4.10109 32.3072 3.76633C32.8375 3.43158 33.4622 3.2642 34.1815 3.2642C34.7615 3.2642 35.2785 3.37192 35.7326 3.58736C36.1867 3.79948 36.5529 4.09777 36.8313 4.48224C37.113 4.86671 37.2804 5.31581 37.3335 5.82955H35.8867C35.8072 5.47159 35.6249 5.16335 35.3398 4.90483C35.0581 4.64631 34.6803 4.51705 34.2063 4.51705C33.792 4.51705 33.4291 4.62642 33.1175 4.84517C32.8093 5.06061 32.569 5.36884 32.3967 5.76989C32.2243 6.16761 32.1381 6.63826 32.1381 7.18182C32.1381 7.73864 32.2227 8.21922 32.3917 8.62358C32.5607 9.02794 32.7994 9.34115 33.1076 9.56321C33.4192 9.78527 33.7854 9.89631 34.2063 9.89631C34.488 9.89631 34.7433 9.84493 34.9719 9.74219C35.204 9.63613 35.3978 9.48532 35.5536 9.28977C35.7127 9.09422 35.8237 8.8589 35.8867 8.58381H37.3335C37.2804 9.07765 37.1197 9.51847 36.8512 9.90625C36.5827 10.294 36.2231 10.599 35.7724 10.821C35.3249 11.0431 34.7996 11.1541 34.1964 11.1541ZM41.1454 11.169C40.6615 11.169 40.224 11.0795 39.8329 10.9006C39.4418 10.7183 39.1319 10.4548 38.9032 10.1101C38.6779 9.76539 38.5652 9.3428 38.5652 8.84233C38.5652 8.41146 38.648 8.05682 38.8137 7.77841C38.9795 7.5 39.2032 7.27959 39.4849 7.11719C39.7666 6.95478 40.0815 6.83215 40.4295 6.74929C40.7775 6.66643 41.1322 6.60346 41.4934 6.56037C41.9508 6.50734 42.322 6.46425 42.6071 6.43111C42.8921 6.39465 43.0993 6.33665 43.2285 6.2571C43.3578 6.17756 43.4224 6.0483 43.4224 5.86932V5.83452C43.4224 5.40033 43.2998 5.06392 43.0545 4.82528C42.8126 4.58665 42.4513 4.46733 41.9707 4.46733C41.4702 4.46733 41.0758 4.57836 40.7875 4.80043C40.5024 5.01918 40.3052 5.26278 40.1958 5.53125L38.7988 5.21307C38.9645 4.74905 39.2065 4.37453 39.5247 4.08949C39.8462 3.80114 40.2157 3.59233 40.6333 3.46307C41.051 3.33049 41.4901 3.2642 41.9508 3.2642C42.2557 3.2642 42.5789 3.30066 42.9203 3.37358C43.265 3.44318 43.5865 3.57244 43.8848 3.76136C44.1864 3.95028 44.4333 4.22041 44.6255 4.57173C44.8178 4.91974 44.9139 5.37216 44.9139 5.92898V11H43.4622V9.95597H43.4025C43.3064 10.1482 43.1622 10.3371 42.97 10.5227C42.7778 10.7083 42.5308 10.8625 42.2292 10.9851C41.9276 11.1077 41.5663 11.169 41.1454 11.169ZM41.4686 9.97585C41.8796 9.97585 42.2309 9.89465 42.5225 9.73224C42.8175 9.56984 43.0413 9.35772 43.1937 9.09588C43.3495 8.83073 43.4274 8.54735 43.4274 8.24574V7.26136C43.3743 7.31439 43.2716 7.36411 43.1191 7.41051C42.97 7.4536 42.7993 7.49171 42.6071 7.52486C42.4148 7.55469 42.2276 7.58286 42.0453 7.60938C41.863 7.63258 41.7105 7.65246 41.5879 7.66903C41.2995 7.70549 41.036 7.76681 40.7974 7.85298C40.5621 7.93916 40.3732 8.06345 40.2306 8.22585C40.0914 8.38494 40.0218 8.59706 40.0218 8.86222C40.0218 9.23011 40.1577 9.50852 40.4295 9.69744C40.7013 9.88305 41.0476 9.97585 41.4686 9.97585ZM48.3803 6.46591V11H46.8938V3.36364H48.3207V4.60653H48.4151C48.5908 4.20218 48.8659 3.87737 49.2404 3.6321C49.6183 3.38684 50.0939 3.2642 50.6673 3.2642C51.1876 3.2642 51.6433 3.37358 52.0344 3.59233C52.4255 3.80777 52.7288 4.12926 52.9442 4.55682C53.1597 4.98437 53.2674 5.51302 53.2674 6.14276V11H51.7809V6.32173C51.7809 5.76823 51.6367 5.3357 51.3484 5.02415C51.06 4.70928 50.6639 4.55185 50.1602 4.55185C49.8155 4.55185 49.5089 4.62642 49.2404 4.77557C48.9753 4.92472 48.7648 5.14347 48.609 5.43182C48.4566 5.71686 48.3803 6.06155 48.3803 6.46591ZM58.5522 11.1541C57.7998 11.1541 57.1519 10.9934 56.6083 10.6719C56.0681 10.3471 55.6504 9.89134 55.3555 9.30469C55.0638 8.71473 54.918 8.02367 54.918 7.23153C54.918 6.44934 55.0638 5.75994 55.3555 5.16335C55.6504 4.56676 56.0614 4.10109 56.5884 3.76633C57.1187 3.43158 57.7385 3.2642 58.4478 3.2642C58.8787 3.2642 59.2963 3.33546 59.7006 3.47798C60.105 3.6205 60.4679 3.84422 60.7894 4.14915C61.1109 4.45407 61.3645 4.85014 61.5501 5.33736C61.7357 5.82126 61.8285 6.40956 61.8285 7.10227V7.62926H55.7582V6.51562H60.3718C60.3718 6.12453 60.2923 5.77817 60.1332 5.47656C59.9741 5.17164 59.7504 4.93134 59.462 4.75568C59.177 4.58002 58.8422 4.49219 58.4577 4.49219C58.0401 4.49219 57.6755 4.59493 57.364 4.80043C57.0558 5.0026 56.8171 5.26776 56.6481 5.59588C56.4824 5.92069 56.3995 6.27367 56.3995 6.65483V7.52486C56.3995 8.03527 56.489 8.46946 56.668 8.82741C56.8503 9.18537 57.1038 9.45881 57.4286 9.64773C57.7534 9.83333 58.1329 9.92614 58.5671 9.92614C58.8488 9.92614 59.1057 9.88636 59.3377 9.80682C59.5697 9.72396 59.7702 9.60133 59.9393 9.43892C60.1083 9.27652 60.2376 9.07599 60.3271 8.83736L61.734 9.09091C61.6213 9.50521 61.4192 9.86813 61.1275 10.1797C60.8391 10.4879 60.4762 10.7282 60.0387 10.9006C59.6045 11.0696 59.109 11.1541 58.5522 11.1541ZM67.9771 6.05327V7.34091H63.4629V6.05327H67.9771ZM73.4831 11.169C72.6976 11.1657 72.0265 10.9586 71.4696 10.5476C70.9128 10.1366 70.4869 9.53835 70.1919 8.75284C69.897 7.96733 69.7495 7.02107 69.7495 5.91406C69.7495 4.81037 69.897 3.86742 70.1919 3.08523C70.4902 2.30303 70.9178 1.70644 71.4746 1.29545C72.0347 0.884469 72.7042 0.678977 73.4831 0.678977C74.262 0.678977 74.9299 0.886126 75.4867 1.30043C76.0435 1.71141 76.4694 2.308 76.7644 3.0902C77.0627 3.86908 77.2118 4.81037 77.2118 5.91406C77.2118 7.02438 77.0643 7.9723 76.7694 8.75781C76.4744 9.54001 76.0485 10.1383 75.4917 10.5526C74.9348 10.9635 74.2653 11.169 73.4831 11.169ZM73.4831 9.84162C74.1725 9.84162 74.7111 9.50521 75.0989 8.83239C75.49 8.15956 75.6855 7.18679 75.6855 5.91406C75.6855 5.06889 75.5961 4.35464 75.4171 3.77131C75.2414 3.18466 74.9879 2.74053 74.6564 2.43892C74.3283 2.134 73.9372 1.98153 73.4831 1.98153C72.7971 1.98153 72.2585 2.3196 71.8674 2.99574C71.4763 3.67187 71.2791 4.64465 71.2757 5.91406C71.2757 6.76255 71.3636 7.48011 71.5392 8.06676C71.7182 8.65009 71.9718 9.09257 72.2999 9.39418C72.628 9.69247 73.0224 9.84162 73.4831 9.84162ZM82.5202 11.1392C81.8375 11.1392 81.2276 11.0215 80.6907 10.7862C80.1571 10.5509 79.7345 10.2244 79.4229 9.80682C79.1147 9.38589 78.949 8.89867 78.9258 8.34517H80.4869C80.5067 8.64678 80.6078 8.90862 80.7901 9.13068C80.9757 9.34943 81.2177 9.51847 81.516 9.63778C81.8143 9.7571 82.1457 9.81676 82.5103 9.81676C82.9113 9.81676 83.266 9.74716 83.5742 9.60795C83.8858 9.46875 84.1294 9.27486 84.305 9.02628C84.4807 8.77438 84.5685 8.48438 84.5685 8.15625C84.5685 7.81487 84.4807 7.51491 84.305 7.25639C84.1327 6.99455 83.8791 6.78906 83.5444 6.63991C83.213 6.49077 82.8119 6.41619 82.3413 6.41619H81.4812V5.16335H82.3413C82.7191 5.16335 83.0505 5.09541 83.3356 4.95952C83.6239 4.82363 83.8493 4.63471 84.0117 4.39276C84.1741 4.14749 84.2553 3.8608 84.2553 3.53267C84.2553 3.2178 84.1841 2.94437 84.0415 2.71236C83.9023 2.47704 83.7035 2.29309 83.445 2.16051C83.1897 2.02794 82.8881 1.96165 82.5401 1.96165C82.2087 1.96165 81.8988 2.02296 81.6104 2.1456C81.3254 2.26491 81.0934 2.43726 80.9144 2.66264C80.7354 2.88471 80.6393 3.15151 80.6261 3.46307H79.1396C79.1561 2.91288 79.3185 2.42898 79.6268 2.01136C79.9383 1.59375 80.3493 1.26728 80.8597 1.03196C81.3701 0.796638 81.9369 0.678977 82.56 0.678977C83.213 0.678977 83.7764 0.806581 84.2504 1.06179C84.7276 1.31368 85.0955 1.65009 85.354 2.07102C85.6159 2.49195 85.7451 2.95265 85.7418 3.45312C85.7451 4.0232 85.5861 4.5071 85.2646 4.90483C84.9464 5.30256 84.5221 5.56937 83.9918 5.70526V5.7848C84.668 5.88755 85.1916 6.15601 85.5629 6.5902C85.9374 7.02438 86.123 7.56297 86.1197 8.20597C86.123 8.7661 85.9672 9.26823 85.6523 9.71236C85.3408 10.1565 84.9149 10.5062 84.3746 10.7614C83.8344 11.0133 83.2163 11.1392 82.5202 11.1392Z" fill="black"/>
</svg>
