<svg width="111" height="12" viewBox="0 0 111 12" fill="none" xmlns="http://www.w3.org/2000/svg">
<path d="M4.56392 3.36364V4.55682H0.392756V3.36364H4.56392ZM1.51136 1.53409H2.99787V8.75781C2.99787 9.04616 3.04096 9.26326 3.12713 9.40909C3.21331 9.55161 3.32434 9.64938 3.46023 9.70241C3.59943 9.75213 3.75024 9.77699 3.91264 9.77699C4.03196 9.77699 4.13636 9.7687 4.22585 9.75213C4.31534 9.73556 4.38494 9.7223 4.43466 9.71236L4.70312 10.9403C4.61695 10.9735 4.49432 11.0066 4.33523 11.0398C4.17614 11.0762 3.97727 11.0961 3.73864 11.0994C3.34754 11.1061 2.98295 11.0365 2.64489 10.8906C2.30682 10.7448 2.03338 10.5194 1.82457 10.2145C1.61577 9.90956 1.51136 9.52675 1.51136 9.06605V1.53409ZM7.85884 6.46591V11H6.37234V0.818182H7.83896V4.60653H7.93342C8.11239 4.19555 8.38583 3.86908 8.75373 3.62713C9.12163 3.38518 9.60221 3.2642 10.1955 3.2642C10.7192 3.2642 11.1766 3.37192 11.5676 3.58736C11.9621 3.80279 12.267 4.12429 12.4824 4.55185C12.7012 4.97609 12.8105 5.50639 12.8105 6.14276V11H11.324V6.32173C11.324 5.7616 11.1799 5.32741 10.8915 5.01918C10.6032 4.70762 10.2021 4.55185 9.68839 4.55185C9.33706 4.55185 9.02219 4.62642 8.74379 4.77557C8.46869 4.92472 8.2516 5.14347 8.09251 5.43182C7.93673 5.71686 7.85884 6.06155 7.85884 6.46591ZM18.0854 11.1541C17.333 11.1541 16.6851 10.9934 16.1415 10.6719C15.6013 10.3471 15.1837 9.89134 14.8887 9.30469C14.597 8.71473 14.4512 8.02367 14.4512 7.23153C14.4512 6.44934 14.597 5.75994 14.8887 5.16335C15.1837 4.56676 15.5946 4.10109 16.1216 3.76633C16.6519 3.43158 17.2717 3.2642 17.981 3.2642C18.4119 3.2642 18.8295 3.33546 19.2338 3.47798C19.6382 3.6205 20.0011 3.84422 20.3226 4.14915C20.6441 4.45407 20.8977 4.85014 21.0833 5.33736C21.2689 5.82126 21.3617 6.40956 21.3617 7.10227V7.62926H15.2914V6.51562H19.905C19.905 6.12453 19.8255 5.77817 19.6664 5.47656C19.5073 5.17164 19.2836 4.93134 18.9952 4.75568C18.7102 4.58002 18.3754 4.49219 17.9909 4.49219C17.5733 4.49219 17.2087 4.59493 16.8972 4.80043C16.589 5.0026 16.3503 5.26776 16.1813 5.59588C16.0156 5.92069 15.9327 6.27367 15.9327 6.65483V7.52486C15.9327 8.03527 16.0222 8.46946 16.2012 8.82741C16.3835 9.18537 16.637 9.45881 16.9618 9.64773C17.2866 9.83333 17.6661 9.92614 18.1003 9.92614C18.382 9.92614 18.6389 9.88636 18.8709 9.80682C19.1029 9.72396 19.3034 9.60133 19.4725 9.43892C19.6415 9.27652 19.7708 9.07599 19.8603 8.83736L21.2672 9.09091C21.1545 9.50521 20.9524 9.86813 20.6607 10.1797C20.3723 10.4879 20.0094 10.7282 19.5719 10.9006C19.1377 11.0696 18.6422 11.1541 18.0854 11.1541ZM23.011 11V3.36364H24.4478V4.5767H24.5273C24.6665 4.16572 24.9118 3.84257 25.2631 3.60724C25.6178 3.36861 26.0188 3.24929 26.4663 3.24929C26.5591 3.24929 26.6684 3.2526 26.7944 3.25923C26.9237 3.26586 27.0247 3.27415 27.0977 3.28409V4.70597C27.038 4.68939 26.9319 4.67116 26.7795 4.65128C26.627 4.62808 26.4746 4.61648 26.3221 4.61648C25.9708 4.61648 25.6576 4.69105 25.3825 4.8402C25.1107 4.98603 24.8952 5.18987 24.7362 5.4517C24.5771 5.71023 24.4975 6.00521 24.4975 6.33665V11H23.011ZM28.3841 11V3.36364H29.8109V4.60653H29.9054C30.0645 4.18561 30.3246 3.85748 30.6859 3.62216C31.0472 3.38352 31.4797 3.2642 31.9835 3.2642C32.4939 3.2642 32.9215 3.38352 33.2662 3.62216C33.6142 3.8608 33.871 4.18892 34.0368 4.60653H34.1163C34.2986 4.19886 34.5886 3.87405 34.9863 3.6321C35.3841 3.38684 35.858 3.2642 36.4082 3.2642C37.1009 3.2642 37.666 3.4813 38.1035 3.91548C38.5443 4.34967 38.7647 5.00426 38.7647 5.87926V11H37.2782V6.01847C37.2782 5.50142 37.1374 5.12689 36.8556 4.89489C36.5739 4.66288 36.2375 4.54688 35.8464 4.54688C35.3625 4.54688 34.9863 4.69602 34.7179 4.99432C34.4494 5.2893 34.3152 5.6688 34.3152 6.13281V11H32.8336V5.92401C32.8336 5.50971 32.7044 5.17661 32.4458 4.92472C32.1873 4.67282 31.8509 4.54688 31.4366 4.54688C31.1549 4.54688 30.8947 4.62145 30.6561 4.7706C30.4208 4.91643 30.2302 5.12026 30.0843 5.3821C29.9418 5.64394 29.8706 5.94721 29.8706 6.2919V11H28.3841ZM43.9737 11.1541C43.2578 11.1541 42.633 10.9901 42.0994 10.6619C41.5658 10.3338 41.1515 9.87476 40.8565 9.2848C40.5616 8.69484 40.4141 8.00544 40.4141 7.21662C40.4141 6.42448 40.5616 5.73177 40.8565 5.13849C41.1515 4.54522 41.5658 4.08452 42.0994 3.75639C42.633 3.42827 43.2578 3.2642 43.9737 3.2642C44.6896 3.2642 45.3144 3.42827 45.848 3.75639C46.3816 4.08452 46.7959 4.54522 47.0909 5.13849C47.3859 5.73177 47.5334 6.42448 47.5334 7.21662C47.5334 8.00544 47.3859 8.69484 47.0909 9.2848C46.7959 9.87476 46.3816 10.3338 45.848 10.6619C45.3144 10.9901 44.6896 11.1541 43.9737 11.1541ZM43.9787 9.90625C44.4427 9.90625 44.8272 9.78362 45.1321 9.53835C45.437 9.29309 45.6624 8.96662 45.8082 8.55895C45.9574 8.15128 46.032 7.70218 46.032 7.21165C46.032 6.72443 45.9574 6.27699 45.8082 5.86932C45.6624 5.45833 45.437 5.12855 45.1321 4.87997C44.8272 4.63139 44.4427 4.5071 43.9787 4.5071C43.5114 4.5071 43.1236 4.63139 42.8153 4.87997C42.5104 5.12855 42.2834 5.45833 42.1342 5.86932C41.9884 6.27699 41.9155 6.72443 41.9155 7.21165C41.9155 7.70218 41.9884 8.15128 42.1342 8.55895C42.2834 8.96662 42.5104 9.29309 42.8153 9.53835C43.1236 9.78362 43.5114 9.90625 43.9787 9.90625ZM49.1926 11V3.36364H50.6195V4.60653H50.714C50.873 4.18561 51.1332 3.85748 51.4945 3.62216C51.8558 3.38352 52.2883 3.2642 52.7921 3.2642C53.3025 3.2642 53.7301 3.38352 54.0748 3.62216C54.4228 3.8608 54.6796 4.18892 54.8453 4.60653H54.9249C55.1072 4.19886 55.3972 3.87405 55.7949 3.6321C56.1926 3.38684 56.6666 3.2642 57.2168 3.2642C57.9095 3.2642 58.4746 3.4813 58.9121 3.91548C59.3529 4.34967 59.5733 5.00426 59.5733 5.87926V11H58.0868V6.01847C58.0868 5.50142 57.946 5.12689 57.6642 4.89489C57.3825 4.66288 57.0461 4.54688 56.655 4.54688C56.1711 4.54688 55.7949 4.69602 55.5265 4.99432C55.258 5.2893 55.1238 5.6688 55.1238 6.13281V11H53.6422V5.92401C53.6422 5.50971 53.513 5.17661 53.2544 4.92472C52.9959 4.67282 52.6595 4.54688 52.2452 4.54688C51.9635 4.54688 51.7033 4.62145 51.4647 4.7706C51.2293 4.91643 51.0388 5.12026 50.8929 5.3821C50.7504 5.64394 50.6792 5.94721 50.6792 6.2919V11H49.1926ZM64.8569 11.1541C64.1045 11.1541 63.4566 10.9934 62.913 10.6719C62.3728 10.3471 61.9551 9.89134 61.6602 9.30469C61.3685 8.71473 61.2227 8.02367 61.2227 7.23153C61.2227 6.44934 61.3685 5.75994 61.6602 5.16335C61.9551 4.56676 62.3661 4.10109 62.8931 3.76633C63.4234 3.43158 64.0432 3.2642 64.7525 3.2642C65.1834 3.2642 65.601 3.33546 66.0053 3.47798C66.4097 3.6205 66.7726 3.84422 67.0941 4.14915C67.4156 4.45407 67.6692 4.85014 67.8548 5.33736C68.0404 5.82126 68.1332 6.40956 68.1332 7.10227V7.62926H62.0629V6.51562H66.6765C66.6765 6.12453 66.5969 5.77817 66.4379 5.47656C66.2788 5.17164 66.055 4.93134 65.7667 4.75568C65.4817 4.58002 65.1469 4.49219 64.7624 4.49219C64.3448 4.49219 63.9802 4.59493 63.6687 4.80043C63.3604 5.0026 63.1218 5.26776 62.9528 5.59588C62.7871 5.92069 62.7042 6.27367 62.7042 6.65483V7.52486C62.7042 8.03527 62.7937 8.46946 62.9727 8.82741C63.1549 9.18537 63.4085 9.45881 63.7333 9.64773C64.0581 9.83333 64.4376 9.92614 64.8718 9.92614C65.1535 9.92614 65.4104 9.88636 65.6424 9.80682C65.8744 9.72396 66.0749 9.60133 66.244 9.43892C66.413 9.27652 66.5423 9.07599 66.6317 8.83736L68.0387 9.09091C67.926 9.50521 67.7238 9.86813 67.4322 10.1797C67.1438 10.4879 66.7809 10.7282 66.3434 10.9006C65.9092 11.0696 65.4137 11.1541 64.8569 11.1541ZM73.3471 3.36364V4.55682H69.176V3.36364H73.3471ZM70.2946 1.53409H71.7811V8.75781C71.7811 9.04616 71.8242 9.26326 71.9103 9.40909C71.9965 9.55161 72.1075 9.64938 72.2434 9.70241C72.3826 9.75213 72.5334 9.77699 72.6958 9.77699C72.8152 9.77699 72.9196 9.7687 73.0091 9.75213C73.0985 9.73556 73.1681 9.7223 73.2179 9.71236L73.4863 10.9403C73.4002 10.9735 73.2775 11.0066 73.1184 11.0398C72.9593 11.0762 72.7605 11.0961 72.5218 11.0994C72.1307 11.1061 71.7662 11.0365 71.4281 10.8906C71.09 10.7448 70.8166 10.5194 70.6078 10.2145C70.399 9.90956 70.2946 9.52675 70.2946 9.06605V1.53409ZM78.2006 11.1541C77.4483 11.1541 76.8003 10.9934 76.2567 10.6719C75.7165 10.3471 75.2989 9.89134 75.0039 9.30469C74.7122 8.71473 74.5664 8.02367 74.5664 7.23153C74.5664 6.44934 74.7122 5.75994 75.0039 5.16335C75.2989 4.56676 75.7099 4.10109 76.2369 3.76633C76.7672 3.43158 77.387 3.2642 78.0962 3.2642C78.5271 3.2642 78.9447 3.33546 79.3491 3.47798C79.7534 3.6205 80.1164 3.84422 80.4379 4.14915C80.7594 4.45407 81.0129 4.85014 81.1985 5.33736C81.3841 5.82126 81.4769 6.40956 81.4769 7.10227V7.62926H75.4066V6.51562H80.0202C80.0202 6.12453 79.9407 5.77817 79.7816 5.47656C79.6225 5.17164 79.3988 4.93134 79.1104 4.75568C78.8254 4.58002 78.4906 4.49219 78.1062 4.49219C77.6886 4.49219 77.324 4.59493 77.0124 4.80043C76.7042 5.0026 76.4656 5.26776 76.2965 5.59588C76.1308 5.92069 76.0479 6.27367 76.0479 6.65483V7.52486C76.0479 8.03527 76.1374 8.46946 76.3164 8.82741C76.4987 9.18537 76.7522 9.45881 77.0771 9.64773C77.4019 9.83333 77.7814 9.92614 78.2156 9.92614C78.4973 9.92614 78.7541 9.88636 78.9862 9.80682C79.2182 9.72396 79.4187 9.60133 79.5877 9.43892C79.7567 9.27652 79.886 9.07599 79.9755 8.83736L81.3825 9.09091C81.2698 9.50521 81.0676 9.86813 80.7759 10.1797C80.4876 10.4879 80.1246 10.7282 79.6871 10.9006C79.253 11.0696 78.7575 11.1541 78.2006 11.1541ZM83.1262 11V3.36364H84.563V4.5767H84.6426C84.7818 4.16572 85.027 3.84257 85.3784 3.60724C85.733 3.36861 86.1341 3.24929 86.5815 3.24929C86.6743 3.24929 86.7837 3.2526 86.9096 3.25923C87.0389 3.26586 87.14 3.27415 87.2129 3.28409V4.70597C87.1532 4.68939 87.0472 4.67116 86.8947 4.65128C86.7422 4.62808 86.5898 4.61648 86.4373 4.61648C86.086 4.61648 85.7728 4.69105 85.4977 4.8402C85.2259 4.98603 85.0105 5.18987 84.8514 5.4517C84.6923 5.71023 84.6127 6.00521 84.6127 6.33665V11H83.1262ZM92.5474 6.05327V7.34091H88.0332V6.05327H92.5474ZM98.0534 11.169C97.2679 11.1657 96.5968 10.9586 96.04 10.5476C95.4831 10.1366 95.0572 9.53835 94.7623 8.75284C94.4673 7.96733 94.3198 7.02107 94.3198 5.91406C94.3198 4.81037 94.4673 3.86742 94.7623 3.08523C95.0605 2.30303 95.4881 1.70644 96.0449 1.29545C96.6051 0.884469 97.2746 0.678977 98.0534 0.678977C98.8323 0.678977 99.5002 0.886126 100.057 1.30043C100.614 1.71141 101.04 2.308 101.335 3.0902C101.633 3.86908 101.782 4.81037 101.782 5.91406C101.782 7.02438 101.635 7.9723 101.34 8.75781C101.045 9.54001 100.619 10.1383 100.062 10.5526C99.5051 10.9635 98.8356 11.169 98.0534 11.169ZM98.0534 9.84162C98.7428 9.84162 99.2814 9.50521 99.6692 8.83239C100.06 8.15956 100.256 7.18679 100.256 5.91406C100.256 5.06889 100.166 4.35464 99.9874 3.77131C99.8117 3.18466 99.5582 2.74053 99.2267 2.43892C98.8986 2.134 98.5075 1.98153 98.0534 1.98153C97.3674 1.98153 96.8288 2.3196 96.4377 2.99574C96.0466 3.67187 95.8494 4.64465 95.8461 5.91406C95.8461 6.76255 95.9339 7.48011 96.1096 8.06676C96.2885 8.65009 96.5421 9.09257 96.8702 9.39418C97.1983 9.69247 97.5927 9.84162 98.0534 9.84162ZM103.546 11V9.88636L106.991 6.31676C107.359 5.92898 107.662 5.58925 107.901 5.29759C108.143 5.0026 108.324 4.72254 108.443 4.45739C108.562 4.19223 108.622 3.91051 108.622 3.61222C108.622 3.27415 108.542 2.98248 108.383 2.73722C108.224 2.48864 108.007 2.29806 107.732 2.16548C107.457 2.02959 107.147 1.96165 106.802 1.96165C106.438 1.96165 106.119 2.03622 105.848 2.18537C105.576 2.33452 105.367 2.54498 105.221 2.81676C105.075 3.08854 105.002 3.40672 105.002 3.77131H103.536C103.536 3.15151 103.678 2.60961 103.963 2.1456C104.248 1.68158 104.64 1.32197 105.137 1.06676C105.634 0.808238 106.199 0.678977 106.832 0.678977C107.472 0.678977 108.035 0.806581 108.522 1.06179C109.013 1.31368 109.396 1.65838 109.671 2.09588C109.946 2.53007 110.083 3.0206 110.083 3.56747C110.083 3.94531 110.012 4.31487 109.87 4.67614C109.73 5.0374 109.487 5.4401 109.139 5.88423C108.791 6.32505 108.307 6.86032 107.687 7.49006L105.664 9.60795V9.68253H110.248V11H103.546Z" fill="black"/>
</svg>
