<svg width="101" height="15" viewBox="0 0 101 15" fill="none" xmlns="http://www.w3.org/2000/svg">
<path d="M4.21591 11.1541C3.4768 11.1541 2.84044 10.9867 2.30682 10.652C1.77652 10.3139 1.36884 9.84825 1.08381 9.25497C0.798769 8.66169 0.65625 7.98224 0.65625 7.21662C0.65625 6.44105 0.802083 5.75663 1.09375 5.16335C1.38542 4.56676 1.7964 4.10109 2.3267 3.76633C2.85701 3.43158 3.48177 3.2642 4.20099 3.2642C4.78101 3.2642 5.29806 3.37192 5.75213 3.58736C6.2062 3.79948 6.57244 4.09777 6.85085 4.48224C7.13258 4.86671 7.29995 5.31581 7.35298 5.82955H5.90625C5.8267 5.47159 5.64441 5.16335 5.35938 4.90483C5.07765 4.64631 4.69981 4.51705 4.22585 4.51705C3.81155 4.51705 3.44863 4.62642 3.13707 4.84517C2.82884 5.06061 2.58854 5.36884 2.41619 5.76989C2.24384 6.16761 2.15767 6.63826 2.15767 7.18182C2.15767 7.73864 2.24219 8.21922 2.41122 8.62358C2.58026 9.02794 2.81889 9.34115 3.12713 9.56321C3.43868 9.78527 3.80492 9.89631 4.22585 9.89631C4.50758 9.89631 4.76278 9.84493 4.99148 9.74219C5.22349 9.63613 5.41738 9.48532 5.57315 9.28977C5.73224 9.09422 5.84328 8.8589 5.90625 8.58381H7.35298C7.29995 9.07765 7.1392 9.51847 6.87074 9.90625C6.60227 10.294 6.24266 10.599 5.7919 10.821C5.34446 11.0431 4.81913 11.1541 4.21591 11.1541ZM10.4292 0.818182V11H8.94265V0.818182H10.4292ZM15.6456 11.1541C14.9297 11.1541 14.3049 10.9901 13.7713 10.6619C13.2377 10.3338 12.8234 9.87476 12.5284 9.2848C12.2334 8.69484 12.0859 8.00544 12.0859 7.21662C12.0859 6.42448 12.2334 5.73177 12.5284 5.13849C12.8234 4.54522 13.2377 4.08452 13.7713 3.75639C14.3049 3.42827 14.9297 3.2642 15.6456 3.2642C16.3615 3.2642 16.9863 3.42827 17.5199 3.75639C18.0535 4.08452 18.4678 4.54522 18.7628 5.13849C19.0578 5.73177 19.2053 6.42448 19.2053 7.21662C19.2053 8.00544 19.0578 8.69484 18.7628 9.2848C18.4678 9.87476 18.0535 10.3338 17.5199 10.6619C16.9863 10.9901 16.3615 11.1541 15.6456 11.1541ZM15.6506 9.90625C16.1146 9.90625 16.4991 9.78362 16.804 9.53835C17.1089 9.29309 17.3343 8.96662 17.4801 8.55895C17.6293 8.15128 17.7038 7.70218 17.7038 7.21165C17.7038 6.72443 17.6293 6.27699 17.4801 5.86932C17.3343 5.45833 17.1089 5.12855 16.804 4.87997C16.4991 4.63139 16.1146 4.5071 15.6506 4.5071C15.1832 4.5071 14.7955 4.63139 14.4872 4.87997C14.1823 5.12855 13.9553 5.45833 13.8061 5.86932C13.6603 6.27699 13.5874 6.72443 13.5874 7.21165C13.5874 7.70218 13.6603 8.15128 13.8061 8.55895C13.9553 8.96662 14.1823 9.29309 14.4872 9.53835C14.7955 9.78362 15.1832 9.90625 15.6506 9.90625ZM25.7019 7.8331V3.36364H27.1934V11H25.7317V9.67756H25.6522C25.4765 10.0852 25.1948 10.425 24.807 10.6967C24.4225 10.9652 23.9436 11.0994 23.3702 11.0994C22.8797 11.0994 22.4455 10.9917 22.0676 10.7763C21.6931 10.5575 21.3981 10.2344 21.1827 9.80682C20.9706 9.37926 20.8645 8.85062 20.8645 8.22088V3.36364H22.351V8.0419C22.351 8.56226 22.4952 8.97656 22.7836 9.2848C23.0719 9.59304 23.4464 9.74716 23.9071 9.74716C24.1855 9.74716 24.4623 9.67756 24.7374 9.53835C25.0158 9.39915 25.2462 9.18868 25.4284 8.90696C25.6141 8.62524 25.7052 8.26728 25.7019 7.8331ZM32.0494 11.1491C31.4329 11.1491 30.8827 10.9917 30.3988 10.6768C29.9182 10.3587 29.5404 9.90625 29.2653 9.3196C28.9935 8.72964 28.8576 8.02202 28.8576 7.19673C28.8576 6.37145 28.9951 5.66548 29.2702 5.07884C29.5487 4.49219 29.9298 4.04309 30.4137 3.73153C30.8976 3.41998 31.4461 3.2642 32.0593 3.2642C32.5333 3.2642 32.9144 3.34375 33.2028 3.50284C33.4944 3.65862 33.7198 3.84091 33.8789 4.04972C34.0413 4.25852 34.1673 4.44247 34.2567 4.60156H34.3462V0.818182H35.8327V11H34.381V9.81179H34.2567C34.1673 9.9742 34.038 10.1598 33.869 10.3686C33.7032 10.5774 33.4746 10.7597 33.1829 10.9155C32.8912 11.0713 32.5134 11.1491 32.0494 11.1491ZM32.3775 9.88139C32.805 9.88139 33.1663 9.7687 33.4613 9.54332C33.7596 9.31463 33.985 8.99811 34.1374 8.59375C34.2932 8.18939 34.3711 7.71875 34.3711 7.18182C34.3711 6.65151 34.2949 6.1875 34.1424 5.78977C33.9899 5.39205 33.7662 5.08215 33.4712 4.86009C33.1763 4.63802 32.8117 4.52699 32.3775 4.52699C31.93 4.52699 31.5572 4.64299 31.2589 4.875C30.9606 5.10701 30.7352 5.42353 30.5827 5.82457C30.4336 6.22562 30.359 6.67803 30.359 7.18182C30.359 7.69223 30.4353 8.15128 30.5877 8.55895C30.7402 8.96662 30.9656 9.28977 31.2638 9.52841C31.5655 9.76373 31.9367 9.88139 32.3775 9.88139ZM42.4537 6.05327V7.34091H37.9395V6.05327H42.4537ZM45.9213 0.818182V11H44.4348V0.818182H45.9213ZM47.9212 11V3.36364H49.4077V11H47.9212ZM48.6719 2.18537C48.4134 2.18537 48.1913 2.09919 48.0057 1.92685C47.8234 1.75118 47.7322 1.54238 47.7322 1.30043C47.7322 1.05516 47.8234 0.846354 48.0057 0.674005C48.1913 0.498342 48.4134 0.410511 48.6719 0.410511C48.9304 0.410511 49.1508 0.498342 49.3331 0.674005C49.5187 0.846354 49.6115 1.05516 49.6115 1.30043C49.6115 1.54238 49.5187 1.75118 49.3331 1.92685C49.1508 2.09919 48.9304 2.18537 48.6719 2.18537ZM54.6092 14.0227C54.0027 14.0227 53.4806 13.9432 53.0431 13.7841C52.609 13.625 52.2543 13.4145 51.9792 13.1527C51.7041 12.8909 51.4986 12.6042 51.3627 12.2926L52.6404 11.7656C52.7299 11.9115 52.8493 12.0656 52.9984 12.228C53.1509 12.3937 53.3564 12.5346 53.6149 12.6506C53.8767 12.7666 54.2131 12.8246 54.6241 12.8246C55.1876 12.8246 55.6532 12.687 56.0211 12.4119C56.389 12.1402 56.573 11.706 56.573 11.1094V9.60795H56.4785C56.389 9.77036 56.2598 9.95099 56.0907 10.1499C55.925 10.3487 55.6963 10.5211 55.4047 10.6669C55.113 10.8127 54.7335 10.8857 54.2662 10.8857C53.6629 10.8857 53.1194 10.7448 52.6355 10.4631C52.1549 10.178 51.7737 9.75876 51.492 9.20526C51.2136 8.64844 51.0744 7.96401 51.0744 7.15199C51.0744 6.33996 51.2119 5.64394 51.487 5.06392C51.7654 4.4839 52.1466 4.03977 52.6305 3.73153C53.1144 3.41998 53.6629 3.2642 54.2761 3.2642C54.7501 3.2642 55.1329 3.34375 55.4245 3.50284C55.7162 3.65862 55.9432 3.84091 56.1056 4.04972C56.2714 4.25852 56.399 4.44247 56.4885 4.60156H56.5978V3.36364H58.0545V11.169C58.0545 11.8253 57.902 12.3639 57.5971 12.7848C57.2922 13.2057 56.8796 13.5173 56.3592 13.7195C55.8422 13.9216 55.2588 14.0227 54.6092 14.0227ZM54.5943 9.6527C55.0218 9.6527 55.3831 9.55327 55.6781 9.3544C55.9764 9.15223 56.2018 8.86387 56.3542 8.48935C56.51 8.11151 56.5879 7.65909 56.5879 7.1321C56.5879 6.61837 56.5117 6.16596 56.3592 5.77486C56.2067 5.38376 55.983 5.07884 55.688 4.86009C55.3931 4.63802 55.0285 4.52699 54.5943 4.52699C54.1468 4.52699 53.774 4.64299 53.4757 4.875C53.1774 5.10369 52.952 5.41525 52.7995 5.80966C52.6504 6.20407 52.5758 6.64489 52.5758 7.1321C52.5758 7.63258 52.652 8.07173 52.8045 8.44957C52.957 8.82741 53.1824 9.1224 53.4806 9.33452C53.7823 9.54664 54.1535 9.6527 54.5943 9.6527ZM61.5346 6.46591V11H60.0481V0.818182H61.5147V4.60653H61.6092C61.7882 4.19555 62.0616 3.86908 62.4295 3.62713C62.7974 3.38518 63.278 3.2642 63.8713 3.2642C64.3949 3.2642 64.8523 3.37192 65.2434 3.58736C65.6378 3.80279 65.9428 4.12429 66.1582 4.55185C66.377 4.97609 66.4863 5.50639 66.4863 6.14276V11H64.9998V6.32173C64.9998 5.7616 64.8556 5.32741 64.5673 5.01918C64.2789 4.70762 63.8779 4.55185 63.3642 4.55185C63.0128 4.55185 62.698 4.62642 62.4196 4.77557C62.1445 4.92472 61.9274 5.14347 61.7683 5.43182C61.6125 5.71686 61.5346 6.06155 61.5346 6.46591ZM72.0346 3.36364V4.55682H67.8635V3.36364H72.0346ZM68.9821 1.53409H70.4686V8.75781C70.4686 9.04616 70.5117 9.26326 70.5978 9.40909C70.684 9.55161 70.795 9.64938 70.9309 9.70241C71.0701 9.75213 71.2209 9.77699 71.3833 9.77699C71.5027 9.77699 71.6071 9.7687 71.6966 9.75213C71.786 9.73556 71.8556 9.7223 71.9054 9.71236L72.1738 10.9403C72.0877 10.9735 71.965 11.0066 71.8059 11.0398C71.6468 11.0762 71.448 11.0961 71.2093 11.0994C70.8182 11.1061 70.4537 11.0365 70.1156 10.8906C69.7775 10.7448 69.5041 10.5194 69.2953 10.2145C69.0865 9.90956 68.9821 9.52675 68.9821 9.06605V1.53409ZM75.1655 6.46591V11H73.679V3.36364H75.1058V4.60653H75.2003C75.3759 4.20218 75.651 3.87737 76.0256 3.6321C76.4034 3.38684 76.879 3.2642 77.4524 3.2642C77.9728 3.2642 78.4285 3.37358 78.8196 3.59233C79.2107 3.80777 79.514 4.12926 79.7294 4.55682C79.9448 4.98437 80.0526 5.51302 80.0526 6.14276V11H78.5661V6.32173C78.5661 5.76823 78.4219 5.3357 78.1335 5.02415C77.8452 4.70928 77.4491 4.55185 76.9453 4.55185C76.6006 4.55185 76.294 4.62642 76.0256 4.77557C75.7604 4.92472 75.55 5.14347 75.3942 5.43182C75.2417 5.71686 75.1655 6.06155 75.1655 6.46591ZM82.0462 11V3.36364H83.5327V11H82.0462ZM82.7969 2.18537C82.5384 2.18537 82.3163 2.09919 82.1307 1.92685C81.9484 1.75118 81.8572 1.54238 81.8572 1.30043C81.8572 1.05516 81.9484 0.846354 82.1307 0.674005C82.3163 0.498342 82.5384 0.410511 82.7969 0.410511C83.0554 0.410511 83.2758 0.498342 83.4581 0.674005C83.6437 0.846354 83.7365 1.05516 83.7365 1.30043C83.7365 1.54238 83.6437 1.75118 83.4581 1.92685C83.2758 2.09919 83.0554 2.18537 82.7969 2.18537ZM87.019 6.46591V11H85.5325V3.36364H86.9593V4.60653H87.0538C87.2295 4.20218 87.5046 3.87737 87.8791 3.6321C88.2569 3.38684 88.7325 3.2642 89.3059 3.2642C89.8263 3.2642 90.282 3.37358 90.6731 3.59233C91.0642 3.80777 91.3675 4.12926 91.5829 4.55682C91.7984 4.98437 91.9061 5.51302 91.9061 6.14276V11H90.4196V6.32173C90.4196 5.76823 90.2754 5.3357 89.987 5.02415C89.6987 4.70928 89.3026 4.55185 88.7988 4.55185C88.4541 4.55185 88.1475 4.62642 87.8791 4.77557C87.6139 4.92472 87.4035 5.14347 87.2477 5.43182C87.0952 5.71686 87.019 6.06155 87.019 6.46591ZM97.1014 14.0227C96.4949 14.0227 95.9728 13.9432 95.5353 13.7841C95.1011 13.625 94.7465 13.4145 94.4714 13.1527C94.1963 12.8909 93.9908 12.6042 93.8549 12.2926L95.1326 11.7656C95.2221 11.9115 95.3414 12.0656 95.4906 12.228C95.6431 12.3937 95.8485 12.5346 96.1071 12.6506C96.3689 12.7666 96.7053 12.8246 97.1163 12.8246C97.6797 12.8246 98.1454 12.687 98.5133 12.4119C98.8812 12.1402 99.0652 11.706 99.0652 11.1094V9.60795H98.9707C98.8812 9.77036 98.752 9.95099 98.5829 10.1499C98.4172 10.3487 98.1885 10.5211 97.8968 10.6669C97.6052 10.8127 97.2257 10.8857 96.7583 10.8857C96.1551 10.8857 95.6116 10.7448 95.1277 10.4631C94.6471 10.178 94.2659 9.75876 93.9842 9.20526C93.7058 8.64844 93.5666 7.96401 93.5666 7.15199C93.5666 6.33996 93.7041 5.64394 93.9792 5.06392C94.2576 4.4839 94.6388 4.03977 95.1227 3.73153C95.6066 3.41998 96.1551 3.2642 96.7683 3.2642C97.2422 3.2642 97.6251 3.34375 97.9167 3.50284C98.2084 3.65862 98.4354 3.84091 98.5978 4.04972C98.7636 4.25852 98.8912 4.44247 98.9806 4.60156H99.09V3.36364H100.547V11.169C100.547 11.8253 100.394 12.3639 100.089 12.7848C99.7844 13.2057 99.3717 13.5173 98.8514 13.7195C98.3343 13.9216 97.751 14.0227 97.1014 14.0227ZM97.0865 9.6527C97.514 9.6527 97.8753 9.55327 98.1703 9.3544C98.4686 9.15223 98.694 8.86387 98.8464 8.48935C99.0022 8.11151 99.0801 7.65909 99.0801 7.1321C99.0801 6.61837 99.0038 6.16596 98.8514 5.77486C98.6989 5.38376 98.4752 5.07884 98.1802 4.86009C97.8852 4.63802 97.5207 4.52699 97.0865 4.52699C96.639 4.52699 96.2662 4.64299 95.9679 4.875C95.6696 5.10369 95.4442 5.41525 95.2917 5.80966C95.1426 6.20407 95.068 6.64489 95.068 7.1321C95.068 7.63258 95.1442 8.07173 95.2967 8.44957C95.4492 8.82741 95.6745 9.1224 95.9728 9.33452C96.2744 9.54664 96.6457 9.6527 97.0865 9.6527Z" fill="black"/>
</svg>
