<svg width="55" height="14" viewBox="0 0 55 14" fill="none" xmlns="http://www.w3.org/2000/svg">
<path d="M4.21591 10.1541C3.5 10.1541 2.87524 9.99006 2.34162 9.66193C1.808 9.33381 1.3937 8.87476 1.09872 8.2848C0.803741 7.69484 0.65625 7.00544 0.65625 6.21662C0.65625 5.42448 0.803741 4.73177 1.09872 4.13849C1.3937 3.54522 1.808 3.08452 2.34162 2.75639C2.87524 2.42827 3.5 2.2642 4.21591 2.2642C4.93182 2.2642 5.55658 2.42827 6.0902 2.75639C6.62382 3.08452 7.03812 3.54522 7.3331 4.13849C7.62808 4.73177 7.77557 5.42448 7.77557 6.21662C7.77557 7.00544 7.62808 7.69484 7.3331 8.2848C7.03812 8.87476 6.62382 9.33381 6.0902 9.66193C5.55658 9.99006 4.93182 10.1541 4.21591 10.1541ZM4.22088 8.90625C4.6849 8.90625 5.06937 8.78362 5.37429 8.53835C5.67921 8.29309 5.90459 7.96662 6.05043 7.55895C6.19957 7.15128 6.27415 6.70218 6.27415 6.21165C6.27415 5.72443 6.19957 5.27699 6.05043 4.86932C5.90459 4.45833 5.67921 4.12855 5.37429 3.87997C5.06937 3.63139 4.6849 3.5071 4.22088 3.5071C3.75355 3.5071 3.36577 3.63139 3.05753 3.87997C2.7526 4.12855 2.52557 4.45833 2.37642 4.86932C2.23059 5.27699 2.15767 5.72443 2.15767 6.21165C2.15767 6.70218 2.23059 7.15128 2.37642 7.55895C2.52557 7.96662 2.7526 8.29309 3.05753 8.53835C3.36577 8.78362 3.75355 8.90625 4.22088 8.90625ZM12.6515 10.1541C11.9123 10.1541 11.276 9.98674 10.7424 9.65199C10.2121 9.31392 9.80439 8.84825 9.51935 8.25497C9.23432 7.66169 9.0918 6.98224 9.0918 6.21662C9.0918 5.44105 9.23763 4.75663 9.5293 4.16335C9.82096 3.56676 10.2319 3.10109 10.7623 2.76633C11.2926 2.43158 11.9173 2.2642 12.6365 2.2642C13.2166 2.2642 13.7336 2.37192 14.1877 2.58736C14.6417 2.79948 15.008 3.09777 15.2864 3.48224C15.5681 3.86671 15.7355 4.31581 15.7885 4.82955H14.3418C14.2623 4.47159 14.08 4.16335 13.7949 3.90483C13.5132 3.64631 13.1354 3.51705 12.6614 3.51705C12.2471 3.51705 11.8842 3.62642 11.5726 3.84517C11.2644 4.06061 11.0241 4.36884 10.8517 4.76989C10.6794 5.16761 10.5932 5.63826 10.5932 6.18182C10.5932 6.73864 10.6777 7.21922 10.8468 7.62358C11.0158 8.02794 11.2544 8.34115 11.5627 8.56321C11.8742 8.78527 12.2405 8.89631 12.6614 8.89631C12.9431 8.89631 13.1983 8.84493 13.427 8.74219C13.659 8.63613 13.8529 8.48532 14.0087 8.28977C14.1678 8.09422 14.2788 7.8589 14.3418 7.58381H15.7885C15.7355 8.07765 15.5748 8.51847 15.3063 8.90625C15.0378 9.29403 14.6782 9.59896 14.2275 9.82102C13.78 10.0431 13.2547 10.1541 12.6515 10.1541ZM20.9428 2.36364V3.55682H16.7717V2.36364H20.9428ZM17.8903 0.534091H19.3768V7.75781C19.3768 8.04616 19.4199 8.26326 19.506 8.40909C19.5922 8.55161 19.7032 8.64938 19.8391 8.70241C19.9783 8.75213 20.1291 8.77699 20.2915 8.77699C20.4109 8.77699 20.5153 8.7687 20.6048 8.75213C20.6942 8.73556 20.7638 8.7223 20.8136 8.71236L21.082 9.94034C20.9959 9.97348 20.8732 10.0066 20.7141 10.0398C20.555 10.0762 20.3562 10.0961 20.1175 10.0994C19.7264 10.1061 19.3619 10.0365 19.0238 9.89062C18.6857 9.74479 18.4123 9.51941 18.2035 9.21449C17.9947 8.90956 17.8903 8.52675 17.8903 8.06605V0.534091ZM24.8095 10.169C24.3256 10.169 23.8881 10.0795 23.497 9.90057C23.1059 9.71828 22.796 9.45478 22.5673 9.11009C22.3419 8.76539 22.2292 8.3428 22.2292 7.84233C22.2292 7.41146 22.3121 7.05682 22.4778 6.77841C22.6435 6.5 22.8672 6.27959 23.149 6.11719C23.4307 5.95478 23.7456 5.83215 24.0936 5.74929C24.4416 5.66643 24.7962 5.60346 25.1575 5.56037C25.6149 5.50734 25.9861 5.46425 26.2711 5.43111C26.5562 5.39465 26.7633 5.33665 26.8926 5.2571C27.0218 5.17756 27.0865 5.0483 27.0865 4.86932V4.83452C27.0865 4.40033 26.9638 4.06392 26.7186 3.82528C26.4766 3.58665 26.1154 3.46733 25.6348 3.46733C25.1343 3.46733 24.7399 3.57836 24.4515 3.80043C24.1665 4.01918 23.9693 4.26278 23.8599 4.53125L22.4629 4.21307C22.6286 3.74905 22.8706 3.37453 23.1887 3.08949C23.5102 2.80114 23.8798 2.59233 24.2974 2.46307C24.715 2.33049 25.1542 2.2642 25.6149 2.2642C25.9198 2.2642 26.243 2.30066 26.5843 2.37358C26.929 2.44318 27.2505 2.57244 27.5488 2.76136C27.8504 2.95028 28.0974 3.22041 28.2896 3.57173C28.4818 3.91974 28.5779 4.37216 28.5779 4.92898V10H27.1262V8.95597H27.0666C26.9705 9.1482 26.8263 9.33712 26.6341 9.52273C26.4418 9.70833 26.1949 9.86245 25.8933 9.98509C25.5917 10.1077 25.2304 10.169 24.8095 10.169ZM25.1326 8.97585C25.5436 8.97585 25.8949 8.89465 26.1866 8.73224C26.4816 8.56984 26.7053 8.35772 26.8578 8.09588C27.0136 7.83073 27.0914 7.54735 27.0914 7.24574V6.26136C27.0384 6.31439 26.9357 6.36411 26.7832 6.41051C26.6341 6.4536 26.4634 6.49171 26.2711 6.52486C26.0789 6.55469 25.8916 6.58286 25.7093 6.60938C25.527 6.63258 25.3746 6.65246 25.252 6.66903C24.9636 6.70549 24.7001 6.76681 24.4615 6.85298C24.2261 6.93916 24.0372 7.06345 23.8947 7.22585C23.7555 7.38494 23.6859 7.59706 23.6859 7.86222C23.6859 8.23011 23.8218 8.50852 24.0936 8.69744C24.3654 8.88305 24.7117 8.97585 25.1326 8.97585ZM33.7596 13.0227C33.1531 13.0227 32.631 12.9432 32.1935 12.7841C31.7594 12.625 31.4047 12.4145 31.1296 12.1527C30.8545 11.8909 30.649 11.6042 30.5131 11.2926L31.7908 10.7656C31.8803 10.9115 31.9996 11.0656 32.1488 11.228C32.3013 11.3937 32.5067 11.5346 32.7653 11.6506C33.0271 11.7666 33.3635 11.8246 33.7745 11.8246C34.3379 11.8246 34.8036 11.687 35.1715 11.4119C35.5394 11.1402 35.7234 10.706 35.7234 10.1094V8.60795H35.6289C35.5394 8.77036 35.4102 8.95099 35.2411 9.14986C35.0754 9.34872 34.8467 9.52107 34.555 9.6669C34.2634 9.81274 33.8839 9.88565 33.4165 9.88565C32.8133 9.88565 32.2698 9.74479 31.7859 9.46307C31.3053 9.17803 30.9241 8.75876 30.6424 8.20526C30.364 7.64844 30.2248 6.96401 30.2248 6.15199C30.2248 5.33996 30.3623 4.64394 30.6374 4.06392C30.9158 3.4839 31.297 3.03977 31.7809 2.73153C32.2648 2.41998 32.8133 2.2642 33.4265 2.2642C33.9004 2.2642 34.2833 2.34375 34.5749 2.50284C34.8666 2.65862 35.0936 2.84091 35.256 3.04972C35.4218 3.25852 35.5494 3.44247 35.6388 3.60156H35.7482V2.36364H37.2049V10.169C37.2049 10.8253 37.0524 11.3639 36.7475 11.7848C36.4426 12.2057 36.0299 12.5173 35.5096 12.7195C34.9925 12.9216 34.4092 13.0227 33.7596 13.0227ZM33.7447 8.6527C34.1722 8.6527 34.5335 8.55327 34.8285 8.3544C35.1268 8.15223 35.3522 7.86387 35.5046 7.48935C35.6604 7.11151 35.7383 6.65909 35.7383 6.1321C35.7383 5.61837 35.6621 5.16596 35.5096 4.77486C35.3571 4.38376 35.1334 4.07884 34.8384 3.86009C34.5434 3.63802 34.1789 3.52699 33.7447 3.52699C33.2972 3.52699 32.9244 3.64299 32.6261 3.875C32.3278 4.10369 32.1024 4.41525 31.9499 4.80966C31.8008 5.20407 31.7262 5.64489 31.7262 6.1321C31.7262 6.63258 31.8024 7.07173 31.9549 7.44957C32.1074 7.82741 32.3327 8.1224 32.631 8.33452C32.9326 8.54664 33.3039 8.6527 33.7447 8.6527ZM42.4151 10.1541C41.6992 10.1541 41.0745 9.99006 40.5408 9.66193C40.0072 9.33381 39.5929 8.87476 39.2979 8.2848C39.003 7.69484 38.8555 7.00544 38.8555 6.21662C38.8555 5.42448 39.003 4.73177 39.2979 4.13849C39.5929 3.54522 40.0072 3.08452 40.5408 2.75639C41.0745 2.42827 41.6992 2.2642 42.4151 2.2642C43.131 2.2642 43.7558 2.42827 44.2894 2.75639C44.823 3.08452 45.2373 3.54522 45.5323 4.13849C45.8273 4.73177 45.9748 5.42448 45.9748 6.21662C45.9748 7.00544 45.8273 7.69484 45.5323 8.2848C45.2373 8.87476 44.823 9.33381 44.2894 9.66193C43.7558 9.99006 43.131 10.1541 42.4151 10.1541ZM42.4201 8.90625C42.8841 8.90625 43.2686 8.78362 43.5735 8.53835C43.8784 8.29309 44.1038 7.96662 44.2496 7.55895C44.3988 7.15128 44.4734 6.70218 44.4734 6.21165C44.4734 5.72443 44.3988 5.27699 44.2496 4.86932C44.1038 4.45833 43.8784 4.12855 43.5735 3.87997C43.2686 3.63139 42.8841 3.5071 42.4201 3.5071C41.9528 3.5071 41.565 3.63139 41.2567 3.87997C40.9518 4.12855 40.7248 4.45833 40.5756 4.86932C40.4298 5.27699 40.3569 5.72443 40.3569 6.21165C40.3569 6.70218 40.4298 7.15128 40.5756 7.55895C40.7248 7.96662 40.9518 8.29309 41.2567 8.53835C41.565 8.78362 41.9528 8.90625 42.4201 8.90625ZM49.1206 5.46591V10H47.6341V2.36364H49.0609V3.60653H49.1554C49.331 3.20218 49.6061 2.87737 49.9806 2.6321C50.3585 2.38684 50.8341 2.2642 51.4075 2.2642C51.9279 2.2642 52.3836 2.37358 52.7747 2.59233C53.1658 2.80777 53.469 3.12926 53.6845 3.55682C53.8999 3.98437 54.0076 4.51302 54.0076 5.14276V10H52.5211V5.32173C52.5211 4.76823 52.377 4.3357 52.0886 4.02415C51.8002 3.70928 51.4042 3.55185 50.9004 3.55185C50.5557 3.55185 50.2491 3.62642 49.9806 3.77557C49.7155 3.92472 49.505 4.14347 49.3493 4.43182C49.1968 4.71686 49.1206 5.06155 49.1206 5.46591Z" fill="black"/>
</svg>
