<svg viewBox="0 0 27 14" fill="none" stroke-width="2" stroke="currentColor" aria-hidden="true">
  <path d="M-0.000710189 13.8636V3.36364H1.45099V4.60156H1.57528C1.66146 4.44247 1.78575 4.25852 1.94815 4.04972C2.11056 3.84091 2.33594 3.65862 2.62429 3.50284C2.91264 3.34375 3.2938 3.2642 3.76776 3.2642C4.38423 3.2642 4.93442 3.41998 5.41832 3.73153C5.90223 4.04309 6.28172 4.49219 6.55682 5.07884C6.83523 5.66548 6.97443 6.37145 6.97443 7.19673C6.97443 8.02202 6.83688 8.72964 6.56179 9.3196C6.2867 9.90625 5.90885 10.3587 5.42827 10.6768C4.94768 10.9917 4.39915 11.1491 3.78267 11.1491C3.31866 11.1491 2.93916 11.0713 2.64418 10.9155C2.35251 10.7597 2.12382 10.5774 1.9581 10.3686C1.79238 10.1598 1.66477 9.9742 1.57528 9.81179H1.4858V13.8636H-0.000710189ZM1.45597 7.18182C1.45597 7.71875 1.53385 8.18939 1.68963 8.59375C1.84541 8.99811 2.07079 9.31463 2.36577 9.54332C2.66075 9.7687 3.02202 9.88139 3.44957 9.88139C3.8937 9.88139 4.26491 9.76373 4.56321 9.52841C4.86151 9.28977 5.08688 8.96662 5.23935 8.55895C5.39512 8.15128 5.47301 7.69223 5.47301 7.18182C5.47301 6.67803 5.39678 6.22562 5.24432 5.82457C5.09517 5.42353 4.86979 5.10701 4.56818 4.875C4.26989 4.64299 3.89702 4.52699 3.44957 4.52699C3.0187 4.52699 2.65412 4.63802 2.35582 4.86009C2.06084 5.08215 1.83712 5.39205 1.68466 5.78977C1.5322 6.1875 1.45597 6.65151 1.45597 7.18182ZM10.1264 0.818182V11H8.63991V0.818182H10.1264ZM16.9636 7.8331V3.36364H18.4551V11H16.9934V9.67756H16.9139C16.7382 10.0852 16.4565 10.425 16.0687 10.6967C15.6842 10.9652 15.2053 11.0994 14.6319 11.0994C14.1414 11.0994 13.7072 10.9917 13.3294 10.7763C12.9548 10.5575 12.6599 10.2344 12.4444 9.80682C12.2323 9.37926 12.1262 8.85062 12.1262 8.22088V3.36364H13.6127V8.0419C13.6127 8.56226 13.7569 8.97656 14.0453 9.2848C14.3336 9.59304 14.7082 9.74716 15.1689 9.74716C15.4473 9.74716 15.724 9.67756 15.9991 9.53835C16.2775 9.39915 16.5079 9.18868 16.6902 8.90696C16.8758 8.62524 16.9669 8.26728 16.9636 7.8331ZM26.1747 5.22798L24.8274 5.46662C24.7711 5.29427 24.6816 5.13021 24.5589 4.97443C24.4396 4.81865 24.2772 4.69105 24.0717 4.59162C23.8662 4.49219 23.6094 4.44247 23.3011 4.44247C22.8802 4.44247 22.5289 4.53693 22.2472 4.72585C21.9654 4.91146 21.8246 5.15175 21.8246 5.44673C21.8246 5.70194 21.919 5.90743 22.108 6.06321C22.2969 6.21899 22.6018 6.34659 23.0227 6.44602L24.2358 6.72443C24.9384 6.88684 25.4621 7.13707 25.8068 7.47514C26.1515 7.81321 26.3239 8.25237 26.3239 8.79261C26.3239 9.25 26.1913 9.65767 25.9261 10.0156C25.6643 10.3703 25.2981 10.6487 24.8274 10.8509C24.3601 11.053 23.8182 11.1541 23.2017 11.1541C22.3466 11.1541 21.6489 10.9718 21.1087 10.6072C20.5684 10.2393 20.237 9.71733 20.1143 9.04119L21.5511 8.82244C21.6406 9.19697 21.8246 9.48035 22.103 9.67259C22.3814 9.86151 22.7443 9.95597 23.1918 9.95597C23.679 9.95597 24.0684 9.85488 24.3601 9.6527C24.6518 9.44721 24.7976 9.19697 24.7976 8.90199C24.7976 8.66335 24.7081 8.46283 24.5291 8.30043C24.3535 8.13802 24.0833 8.01539 23.7188 7.93253L22.4261 7.64915C21.7135 7.48674 21.1866 7.22822 20.8452 6.87358C20.5071 6.51894 20.3381 6.06984 20.3381 5.52628C20.3381 5.07552 20.464 4.68111 20.7159 4.34304C20.9678 4.00497 21.3158 3.74148 21.7599 3.55256C22.2041 3.36032 22.7128 3.2642 23.2862 3.2642C24.1115 3.2642 24.7611 3.44318 25.2351 3.80114C25.709 4.15578 26.0223 4.63139 26.1747 5.22798Z" fill="black"/>
</svg>
