<svg viewBox="0 0 32 12" fill="none" stroke-width="2" stroke="currentColor" aria-hidden="true">
  <path d="M7.53196 3.36364L4.76278 11H3.17188L0.397727 3.36364H1.99361L3.92756 9.24006H4.0071L5.93608 3.36364H7.53196ZM8.92898 11V3.36364H10.4155V11H8.92898ZM9.67969 2.18537C9.42116 2.18537 9.1991 2.09919 9.01349 1.92685C8.8312 1.75118 8.74006 1.54238 8.74006 1.30043C8.74006 1.05516 8.8312 0.846354 9.01349 0.674005C9.1991 0.498342 9.42116 0.410511 9.67969 0.410511C9.93821 0.410511 10.1586 0.498342 10.3409 0.674005C10.5265 0.846354 10.6193 1.05516 10.6193 1.30043C10.6193 1.54238 10.5265 1.75118 10.3409 1.92685C10.1586 2.09919 9.93821 2.18537 9.67969 2.18537ZM12.4153 11V3.36364H13.8521V4.5767H13.9316C14.0708 4.16572 14.3161 3.84257 14.6674 3.60724C15.0221 3.36861 15.4231 3.24929 15.8706 3.24929C15.9634 3.24929 16.0727 3.2526 16.1987 3.25923C16.3279 3.26586 16.429 3.27415 16.502 3.28409V4.70597C16.4423 4.68939 16.3362 4.67116 16.1838 4.65128C16.0313 4.62808 15.8788 4.61648 15.7264 4.61648C15.3751 4.61648 15.0618 4.69105 14.7868 4.8402C14.515 4.98603 14.2995 5.18987 14.1404 5.4517C13.9814 5.71023 13.9018 6.00521 13.9018 6.33665V11H12.4153ZM22.6257 7.8331V3.36364H24.1172V11H22.6555V9.67756H22.576C22.4003 10.0852 22.1186 10.425 21.7308 10.6967C21.3464 10.9652 20.8674 11.0994 20.294 11.0994C19.8035 11.0994 19.3693 10.9917 18.9915 10.7763C18.617 10.5575 18.322 10.2344 18.1065 9.80682C17.8944 9.37926 17.7884 8.85062 17.7884 8.22088V3.36364H19.2749V8.0419C19.2749 8.56226 19.419 8.97656 19.7074 9.2848C19.9957 9.59304 20.3703 9.74716 20.831 9.74716C21.1094 9.74716 21.3861 9.67756 21.6612 9.53835C21.9396 9.39915 22.17 9.18868 22.3523 8.90696C22.5379 8.62524 22.629 8.26728 22.6257 7.8331ZM31.8368 5.22798L30.4895 5.46662C30.4332 5.29427 30.3437 5.13021 30.2211 4.97443C30.1017 4.81865 29.9393 4.69105 29.7338 4.59162C29.5284 4.49219 29.2715 4.44247 28.9632 4.44247C28.5423 4.44247 28.191 4.53693 27.9093 4.72585C27.6275 4.91146 27.4867 5.15175 27.4867 5.44673C27.4867 5.70194 27.5811 5.90743 27.7701 6.06321C27.959 6.21899 28.2639 6.34659 28.6848 6.44602L29.8979 6.72443C30.6006 6.88684 31.1242 7.13707 31.4689 7.47514C31.8136 7.81321 31.986 8.25237 31.986 8.79261C31.986 9.25 31.8534 9.65767 31.5882 10.0156C31.3264 10.3703 30.9602 10.6487 30.4895 10.8509C30.0222 11.053 29.4803 11.1541 28.8638 11.1541C28.0087 11.1541 27.311 10.9718 26.7708 10.6072C26.2305 10.2393 25.8991 9.71733 25.7765 9.04119L27.2132 8.82244C27.3027 9.19697 27.4867 9.48035 27.7651 9.67259C28.0435 9.86151 28.4064 9.95597 28.8539 9.95597C29.3411 9.95597 29.7305 9.85488 30.0222 9.6527C30.3139 9.44721 30.4597 9.19697 30.4597 8.90199C30.4597 8.66335 30.3702 8.46283 30.1912 8.30043C30.0156 8.13802 29.7454 8.01539 29.3809 7.93253L28.0882 7.64915C27.3757 7.48674 26.8487 7.22822 26.5073 6.87358C26.1692 6.51894 26.0002 6.06984 26.0002 5.52628C26.0002 5.07552 26.1261 4.68111 26.378 4.34304C26.6299 4.00497 26.9779 3.74148 27.4221 3.55256C27.8662 3.36032 28.3749 3.2642 28.9483 3.2642C29.7736 3.2642 30.4232 3.44318 30.8972 3.80114C31.3712 4.15578 31.6844 4.63139 31.8368 5.22798Z" fill="black"/>
</svg>
