<svg viewBox="0 0 72 12" fill="none" stroke-width="2" stroke="currentColor" aria-hidden="true">
  <path d="M6.72159 5.22798L5.37429 5.46662C5.31795 5.29427 5.22846 5.13021 5.10582 4.97443C4.98651 4.81865 4.8241 4.69105 4.61861 4.59162C4.41312 4.49219 4.15625 4.44247 3.84801 4.44247C3.42708 4.44247 3.07576 4.53693 2.79403 4.72585C2.51231 4.91146 2.37145 5.15175 2.37145 5.44673C2.37145 5.70194 2.46591 5.90743 2.65483 6.06321C2.84375 6.21899 3.14867 6.34659 3.5696 6.44602L4.78267 6.72443C5.48532 6.88684 6.009 7.13707 6.35369 7.47514C6.69839 7.81321 6.87074 8.25237 6.87074 8.79261C6.87074 9.25 6.73816 9.65767 6.47301 10.0156C6.21117 10.3703 5.84493 10.6487 5.37429 10.8509C4.90696 11.053 4.36506 11.1541 3.74858 11.1541C2.89347 11.1541 2.19579 10.9718 1.65554 10.6072C1.11529 10.2393 0.783854 9.71733 0.661222 9.04119L2.09801 8.82244C2.1875 9.19697 2.37145 9.48035 2.64986 9.67259C2.92827 9.86151 3.29119 9.95597 3.73864 9.95597C4.22585 9.95597 4.61529 9.85488 4.90696 9.6527C5.19863 9.44721 5.34446 9.19697 5.34446 8.90199C5.34446 8.66335 5.25497 8.46283 5.07599 8.30043C4.90033 8.13802 4.63021 8.01539 4.26562 7.93253L2.97301 7.64915C2.26042 7.48674 1.73343 7.22822 1.39205 6.87358C1.05398 6.51894 0.884943 6.06984 0.884943 5.52628C0.884943 5.07552 1.01089 4.68111 1.26278 4.34304C1.51468 4.00497 1.86269 3.74148 2.30682 3.55256C2.75095 3.36032 3.25971 3.2642 3.8331 3.2642C4.65838 3.2642 5.308 3.44318 5.78196 3.80114C6.25592 4.15578 6.56913 4.63139 6.72159 5.22798ZM11.7963 11.1541C11.044 11.1541 10.396 10.9934 9.85245 10.6719C9.3122 10.3471 8.89459 9.89134 8.59961 9.30469C8.30794 8.71473 8.16211 8.02367 8.16211 7.23153C8.16211 6.44934 8.30794 5.75994 8.59961 5.16335C8.89459 4.56676 9.30558 4.10109 9.83256 3.76633C10.3629 3.43158 10.9827 3.2642 11.6919 3.2642C12.1228 3.2642 12.5404 3.33546 12.9448 3.47798C13.3491 3.6205 13.7121 3.84422 14.0336 4.14915C14.3551 4.45407 14.6086 4.85014 14.7942 5.33736C14.9798 5.82126 15.0726 6.40956 15.0726 7.10227V7.62926H9.00231V6.51562H13.6159C13.6159 6.12453 13.5364 5.77817 13.3773 5.47656C13.2182 5.17164 12.9945 4.93134 12.7061 4.75568C12.4211 4.58002 12.0864 4.49219 11.7019 4.49219C11.2843 4.49219 10.9197 4.59493 10.6081 4.80043C10.2999 5.0026 10.0613 5.26776 9.89222 5.59588C9.7265 5.92069 9.64364 6.27367 9.64364 6.65483V7.52486C9.64364 8.03527 9.73313 8.46946 9.91211 8.82741C10.0944 9.18537 10.348 9.45881 10.6728 9.64773C10.9976 9.83333 11.3771 9.92614 11.8113 9.92614C12.093 9.92614 12.3498 9.88636 12.5819 9.80682C12.8139 9.72396 13.0144 9.60133 13.1834 9.43892C13.3525 9.27652 13.4817 9.07599 13.5712 8.83736L14.9782 9.09091C14.8655 9.50521 14.6633 9.86813 14.3716 10.1797C14.0833 10.4879 13.7203 10.7282 13.2828 10.9006C12.8487 11.0696 12.3532 11.1541 11.7963 11.1541ZM18.9442 11.169C18.4603 11.169 18.0228 11.0795 17.6317 10.9006C17.2406 10.7183 16.9308 10.4548 16.7021 10.1101C16.4767 9.76539 16.364 9.3428 16.364 8.84233C16.364 8.41146 16.4469 8.05682 16.6126 7.77841C16.7783 7.5 17.002 7.27959 17.2837 7.11719C17.5655 6.95478 17.8803 6.83215 18.2283 6.74929C18.5763 6.66643 18.931 6.60346 19.2923 6.56037C19.7496 6.50734 20.1209 6.46425 20.4059 6.43111C20.6909 6.39465 20.8981 6.33665 21.0273 6.2571C21.1566 6.17756 21.2212 6.0483 21.2212 5.86932V5.83452C21.2212 5.40033 21.0986 5.06392 20.8533 4.82528C20.6114 4.58665 20.2501 4.46733 19.7695 4.46733C19.2691 4.46733 18.8746 4.57836 18.5863 4.80043C18.3013 5.01918 18.104 5.26278 17.9947 5.53125L16.5977 5.21307C16.7634 4.74905 17.0053 4.37453 17.3235 4.08949C17.645 3.80114 18.0146 3.59233 18.4322 3.46307C18.8498 3.33049 19.2889 3.2642 19.7496 3.2642C20.0546 3.2642 20.3777 3.30066 20.7191 3.37358C21.0638 3.44318 21.3853 3.57244 21.6836 3.76136C21.9852 3.95028 22.2321 4.22041 22.4244 4.57173C22.6166 4.91974 22.7127 5.37216 22.7127 5.92898V11H21.261V9.95597H21.2013C21.1052 10.1482 20.9611 10.3371 20.7688 10.5227C20.5766 10.7083 20.3297 10.8625 20.0281 10.9851C19.7264 11.1077 19.3652 11.169 18.9442 11.169ZM19.2674 9.97585C19.6784 9.97585 20.0297 9.89465 20.3214 9.73224C20.6164 9.56984 20.8401 9.35772 20.9925 9.09588C21.1483 8.83073 21.2262 8.54735 21.2262 8.24574V7.26136C21.1732 7.31439 21.0704 7.36411 20.918 7.41051C20.7688 7.4536 20.5981 7.49171 20.4059 7.52486C20.2137 7.55469 20.0264 7.58286 19.8441 7.60938C19.6618 7.63258 19.5094 7.65246 19.3867 7.66903C19.0984 7.70549 18.8349 7.76681 18.5962 7.85298C18.3609 7.93916 18.172 8.06345 18.0295 8.22585C17.8903 8.38494 17.8207 8.59706 17.8207 8.86222C17.8207 9.23011 17.9566 9.50852 18.2283 9.69744C18.5001 9.88305 18.8465 9.97585 19.2674 9.97585ZM24.6926 11V3.36364H26.1294V4.5767H26.209C26.3482 4.16572 26.5935 3.84257 26.9448 3.60724C27.2994 3.36861 27.7005 3.24929 28.1479 3.24929C28.2407 3.24929 28.3501 3.2526 28.476 3.25923C28.6053 3.26586 28.7064 3.27415 28.7793 3.28409V4.70597C28.7196 4.68939 28.6136 4.67116 28.4611 4.65128C28.3087 4.62808 28.1562 4.61648 28.0037 4.61648C27.6524 4.61648 27.3392 4.69105 27.0641 4.8402C26.7923 4.98603 26.5769 5.18987 26.4178 5.4517C26.2587 5.71023 26.1792 6.00521 26.1792 6.33665V11H24.6926ZM33.0089 11.1541C32.2698 11.1541 31.6334 10.9867 31.0998 10.652C30.5695 10.3139 30.1618 9.84825 29.8768 9.25497C29.5917 8.66169 29.4492 7.98224 29.4492 7.21662C29.4492 6.44105 29.5951 5.75663 29.8867 5.16335C30.1784 4.56676 30.5894 4.10109 31.1197 3.76633C31.65 3.43158 32.2747 3.2642 32.994 3.2642C33.574 3.2642 34.091 3.37192 34.5451 3.58736C34.9992 3.79948 35.3654 4.09777 35.6438 4.48224C35.9255 4.86671 36.0929 5.31581 36.146 5.82955H34.6992C34.6197 5.47159 34.4374 5.16335 34.1523 4.90483C33.8706 4.64631 33.4928 4.51705 33.0188 4.51705C32.6045 4.51705 32.2416 4.62642 31.93 4.84517C31.6218 5.06061 31.3815 5.36884 31.2092 5.76989C31.0368 6.16761 30.9506 6.63826 30.9506 7.18182C30.9506 7.73864 31.0352 8.21922 31.2042 8.62358C31.3732 9.02794 31.6119 9.34115 31.9201 9.56321C32.2317 9.78527 32.5979 9.89631 33.0188 9.89631C33.3005 9.89631 33.5558 9.84493 33.7844 9.74219C34.0165 9.63613 34.2103 9.48532 34.3661 9.28977C34.5252 9.09422 34.6362 8.8589 34.6992 8.58381H36.146C36.0929 9.07765 35.9322 9.51847 35.6637 9.90625C35.3952 10.294 35.0356 10.599 34.5849 10.821C34.1374 11.0431 33.6121 11.1541 33.0089 11.1541ZM39.2221 6.46591V11H37.7356V0.818182H39.2022V4.60653H39.2967C39.4757 4.19555 39.7491 3.86908 40.117 3.62713C40.4849 3.38518 40.9655 3.2642 41.5588 3.2642C42.0824 3.2642 42.5398 3.37192 42.9309 3.58736C43.3253 3.80279 43.6303 4.12429 43.8457 4.55185C44.0645 4.97609 44.1738 5.50639 44.1738 6.14276V11H42.6873V6.32173C42.6873 5.7616 42.5431 5.32741 42.2548 5.01918C41.9664 4.70762 41.5654 4.55185 41.0517 4.55185C40.7003 4.55185 40.3855 4.62642 40.1071 4.77557C39.832 4.92472 39.6149 5.14347 39.4558 5.43182C39.3 5.71686 39.2221 6.06155 39.2221 6.46591ZM50.6568 6.05327V7.34091H46.1426V6.05327H50.6568ZM52.638 11V3.36364H54.0648V4.60653H54.1593C54.3184 4.18561 54.5785 3.85748 54.9398 3.62216C55.3011 3.38352 55.7336 3.2642 56.2374 3.2642C56.7478 3.2642 57.1754 3.38352 57.5201 3.62216C57.8681 3.8608 58.1249 4.18892 58.2907 4.60653H58.3702C58.5525 4.19886 58.8425 3.87405 59.2402 3.6321C59.638 3.38684 60.1119 3.2642 60.6621 3.2642C61.3548 3.2642 61.9199 3.4813 62.3574 3.91548C62.7982 4.34967 63.0186 5.00426 63.0186 5.87926V11H61.5321V6.01847C61.5321 5.50142 61.3913 5.12689 61.1096 4.89489C60.8278 4.66288 60.4914 4.54688 60.1003 4.54688C59.6164 4.54688 59.2402 4.69602 58.9718 4.99432C58.7033 5.2893 58.5691 5.6688 58.5691 6.13281V11H57.0875V5.92401C57.0875 5.50971 56.9583 5.17661 56.6998 4.92472C56.4412 4.67282 56.1048 4.54688 55.6905 4.54688C55.4088 4.54688 55.1486 4.62145 54.91 4.7706C54.6747 4.91643 54.4841 5.12026 54.3382 5.3821C54.1957 5.64394 54.1245 5.94721 54.1245 6.2919V11H52.638ZM67.8697 11.1491C67.2532 11.1491 66.703 10.9917 66.2191 10.6768C65.7385 10.3587 65.3607 9.90625 65.0856 9.3196C64.8138 8.72964 64.6779 8.02202 64.6779 7.19673C64.6779 6.37145 64.8155 5.66548 65.0906 5.07884C65.369 4.49219 65.7501 4.04309 66.234 3.73153C66.7179 3.41998 67.2665 3.2642 67.8796 3.2642C68.3536 3.2642 68.7347 3.34375 69.0231 3.50284C69.3147 3.65862 69.5401 3.84091 69.6992 4.04972C69.8616 4.25852 69.9876 4.44247 70.0771 4.60156H70.1665V0.818182H71.6531V11H70.2013V9.81179H70.0771C69.9876 9.9742 69.8583 10.1598 69.6893 10.3686C69.5236 10.5774 69.2949 10.7597 69.0032 10.9155C68.7115 11.0713 68.3337 11.1491 67.8697 11.1491ZM68.1978 9.88139C68.6254 9.88139 68.9866 9.7687 69.2816 9.54332C69.5799 9.31463 69.8053 8.99811 69.9577 8.59375C70.1135 8.18939 70.1914 7.71875 70.1914 7.18182C70.1914 6.65151 70.1152 6.1875 69.9627 5.78977C69.8103 5.39205 69.5865 5.08215 69.2915 4.86009C68.9966 4.63802 68.632 4.52699 68.1978 4.52699C67.7504 4.52699 67.3775 4.64299 67.0792 4.875C66.7809 5.10701 66.5555 5.42353 66.4031 5.82457C66.2539 6.22562 66.1793 6.67803 66.1793 7.18182C66.1793 7.69223 66.2556 8.15128 66.408 8.55895C66.5605 8.96662 66.7859 9.28977 67.0842 9.52841C67.3858 9.76373 67.757 9.88139 68.1978 9.88139Z" fill="black"/>
</svg>
