<svg viewBox="0 0 67 14" fill="none" stroke-width="2" stroke="currentColor" aria-hidden="true">
  <path d="M0.840199 11V9.98082L4.97656 4.72585V4.65625H0.974432V3.36364H6.83097V4.44744L2.85369 9.63778V9.70739H6.97017V11H0.840199ZM10.9462 11.169C10.4623 11.169 10.0248 11.0795 9.6337 10.9006C9.2426 10.7183 8.93271 10.4548 8.70401 10.1101C8.47863 9.76539 8.36594 9.3428 8.36594 8.84233C8.36594 8.41146 8.4488 8.05682 8.61452 7.77841C8.78024 7.5 9.00397 7.27959 9.28569 7.11719C9.56741 6.95478 9.88228 6.83215 10.2303 6.74929C10.5783 6.66643 10.9329 6.60346 11.2942 6.56037C11.7516 6.50734 12.1228 6.46425 12.4078 6.43111C12.6929 6.39465 12.9 6.33665 13.0293 6.2571C13.1586 6.17756 13.2232 6.0483 13.2232 5.86932V5.83452C13.2232 5.40033 13.1006 5.06392 12.8553 4.82528C12.6133 4.58665 12.2521 4.46733 11.7715 4.46733C11.271 4.46733 10.8766 4.57836 10.5882 4.80043C10.3032 5.01918 10.106 5.26278 9.99663 5.53125L8.59961 5.21307C8.76533 4.74905 9.00728 4.37453 9.32546 4.08949C9.64696 3.80114 10.0165 3.59233 10.4341 3.46307C10.8517 3.33049 11.2909 3.2642 11.7516 3.2642C12.0565 3.2642 12.3797 3.30066 12.7211 3.37358C13.0658 3.44318 13.3873 3.57244 13.6855 3.76136C13.9872 3.95028 14.2341 4.22041 14.4263 4.57173C14.6185 4.91974 14.7147 5.37216 14.7147 5.92898V11H13.263V9.95597H13.2033C13.1072 10.1482 12.963 10.3371 12.7708 10.5227C12.5785 10.7083 12.3316 10.8625 12.03 10.9851C11.7284 11.1077 11.3671 11.169 10.9462 11.169ZM11.2694 9.97585C11.6803 9.97585 12.0317 9.89465 12.3233 9.73224C12.6183 9.56984 12.842 9.35772 12.9945 9.09588C13.1503 8.83073 13.2282 8.54735 13.2282 8.24574V7.26136C13.1751 7.31439 13.0724 7.36411 12.9199 7.41051C12.7708 7.4536 12.6001 7.49171 12.4078 7.52486C12.2156 7.55469 12.0284 7.58286 11.8461 7.60938C11.6638 7.63258 11.5113 7.65246 11.3887 7.66903C11.1003 7.70549 10.8368 7.76681 10.5982 7.85298C10.3629 7.93916 10.1739 8.06345 10.0314 8.22585C9.89222 8.38494 9.82262 8.59706 9.82262 8.86222C9.82262 9.23011 9.95851 9.50852 10.2303 9.69744C10.5021 9.88305 10.8484 9.97585 11.2694 9.97585ZM16.6946 13.8636V3.36364H18.1463V4.60156H18.2706C18.3568 4.44247 18.4811 4.25852 18.6435 4.04972C18.8059 3.84091 19.0313 3.65862 19.3196 3.50284C19.608 3.34375 19.9891 3.2642 20.4631 3.2642C21.0795 3.2642 21.6297 3.41998 22.1136 3.73153C22.5975 4.04309 22.977 4.49219 23.2521 5.07884C23.5305 5.66548 23.6697 6.37145 23.6697 7.19673C23.6697 8.02202 23.5322 8.72964 23.2571 9.3196C22.982 9.90625 22.6042 10.3587 22.1236 10.6768C21.643 10.9917 21.0945 11.1491 20.478 11.1491C20.014 11.1491 19.6345 11.0713 19.3395 10.9155C19.0478 10.7597 18.8191 10.5774 18.6534 10.3686C18.4877 10.1598 18.3601 9.9742 18.2706 9.81179H18.1811V13.8636H16.6946ZM18.1513 7.18182C18.1513 7.71875 18.2292 8.18939 18.3849 8.59375C18.5407 8.99811 18.7661 9.31463 19.0611 9.54332C19.3561 9.7687 19.7173 9.88139 20.1449 9.88139C20.589 9.88139 20.9602 9.76373 21.2585 9.52841C21.5568 9.28977 21.7822 8.96662 21.9347 8.55895C22.0904 8.15128 22.1683 7.69223 22.1683 7.18182C22.1683 6.67803 22.0921 6.22562 21.9396 5.82457C21.7905 5.42353 21.5651 5.10701 21.2635 4.875C20.9652 4.64299 20.5923 4.52699 20.1449 4.52699C19.714 4.52699 19.3494 4.63802 19.0511 4.86009C18.7562 5.08215 18.5324 5.39205 18.38 5.78977C18.2275 6.1875 18.1513 6.65151 18.1513 7.18182ZM29.8345 6.05327V7.34091H25.3203V6.05327H29.8345ZM35.0323 11.1541C34.2932 11.1541 33.6568 10.9867 33.1232 10.652C32.5929 10.3139 32.1853 9.84825 31.9002 9.25497C31.6152 8.66169 31.4727 7.98224 31.4727 7.21662C31.4727 6.44105 31.6185 5.75663 31.9102 5.16335C32.2018 4.56676 32.6128 4.10109 33.1431 3.76633C33.6734 3.43158 34.2982 3.2642 35.0174 3.2642C35.5974 3.2642 36.1145 3.37192 36.5685 3.58736C37.0226 3.79948 37.3888 4.09777 37.6673 4.48224C37.949 4.86671 38.1164 5.31581 38.1694 5.82955H36.7227C36.6431 5.47159 36.4608 5.16335 36.1758 4.90483C35.8941 4.64631 35.5162 4.51705 35.0423 4.51705C34.628 4.51705 34.265 4.62642 33.9535 4.84517C33.6452 5.06061 33.4049 5.36884 33.2326 5.76989C33.0603 6.16761 32.9741 6.63826 32.9741 7.18182C32.9741 7.73864 33.0586 8.21922 33.2276 8.62358C33.3967 9.02794 33.6353 9.34115 33.9435 9.56321C34.2551 9.78527 34.6213 9.89631 35.0423 9.89631C35.324 9.89631 35.5792 9.84493 35.8079 9.74219C36.0399 9.63613 36.2338 9.48532 36.3896 9.28977C36.5487 9.09422 36.6597 8.8589 36.7227 8.58381H38.1694C38.1164 9.07765 37.9556 9.51847 37.6871 9.90625C37.4187 10.294 37.0591 10.599 36.6083 10.821C36.1609 11.0431 35.6355 11.1541 35.0323 11.1541ZM39.7591 11V3.36364H41.2456V11H39.7591ZM40.5098 2.18537C40.2512 2.18537 40.0292 2.09919 39.8436 1.92685C39.6613 1.75118 39.5701 1.54238 39.5701 1.30043C39.5701 1.05516 39.6613 0.846354 39.8436 0.674005C40.0292 0.498342 40.2512 0.410511 40.5098 0.410511C40.7683 0.410511 40.9887 0.498342 41.171 0.674005C41.3566 0.846354 41.4494 1.05516 41.4494 1.30043C41.4494 1.54238 41.3566 1.75118 41.171 1.92685C40.9887 2.09919 40.7683 2.18537 40.5098 2.18537ZM43.2454 11V3.36364H44.6822V4.5767H44.7617C44.9009 4.16572 45.1462 3.84257 45.4975 3.60724C45.8522 3.36861 46.2532 3.24929 46.7006 3.24929C46.7934 3.24929 46.9028 3.2526 47.0288 3.25923C47.158 3.26586 47.2591 3.27415 47.332 3.28409V4.70597C47.2724 4.68939 47.1663 4.67116 47.0138 4.65128C46.8614 4.62808 46.7089 4.61648 46.5565 4.61648C46.2051 4.61648 45.8919 4.69105 45.6168 4.8402C45.3451 4.98603 45.1296 5.18987 44.9705 5.4517C44.8114 5.71023 44.7319 6.00521 44.7319 6.33665V11H43.2454ZM51.5616 11.1541C50.8225 11.1541 50.1861 10.9867 49.6525 10.652C49.1222 10.3139 48.7145 9.84825 48.4295 9.25497C48.1445 8.66169 48.002 7.98224 48.002 7.21662C48.002 6.44105 48.1478 5.75663 48.4395 5.16335C48.7311 4.56676 49.1421 4.10109 49.6724 3.76633C50.2027 3.43158 50.8275 3.2642 51.5467 3.2642C52.1267 3.2642 52.6438 3.37192 53.0978 3.58736C53.5519 3.79948 53.9181 4.09777 54.1966 4.48224C54.4783 4.86671 54.6457 5.31581 54.6987 5.82955H53.252C53.1724 5.47159 52.9901 5.16335 52.7051 4.90483C52.4234 4.64631 52.0455 4.51705 51.5716 4.51705C51.1573 4.51705 50.7943 4.62642 50.4828 4.84517C50.1745 5.06061 49.9342 5.36884 49.7619 5.76989C49.5895 6.16761 49.5034 6.63826 49.5034 7.18182C49.5034 7.73864 49.5879 8.21922 49.7569 8.62358C49.926 9.02794 50.1646 9.34115 50.4728 9.56321C50.7844 9.78527 51.1506 9.89631 51.5716 9.89631C51.8533 9.89631 52.1085 9.84493 52.3372 9.74219C52.5692 9.63613 52.7631 9.48532 52.9189 9.28977C53.0779 9.09422 53.189 8.8589 53.252 8.58381H54.6987C54.6457 9.07765 54.4849 9.51847 54.2164 9.90625C53.948 10.294 53.5884 10.599 53.1376 10.821C52.6902 11.0431 52.1648 11.1541 51.5616 11.1541ZM57.7749 0.818182V11H56.2884V0.818182H57.7749ZM63.0659 11.1541C62.3135 11.1541 61.6655 10.9934 61.122 10.6719C60.5817 10.3471 60.1641 9.89134 59.8691 9.30469C59.5775 8.71473 59.4316 8.02367 59.4316 7.23153C59.4316 6.44934 59.5775 5.75994 59.8691 5.16335C60.1641 4.56676 60.5751 4.10109 61.1021 3.76633C61.6324 3.43158 62.2522 3.2642 62.9615 3.2642C63.3923 3.2642 63.81 3.33546 64.2143 3.47798C64.6187 3.6205 64.9816 3.84422 65.3031 4.14915C65.6246 4.45407 65.8781 4.85014 66.0637 5.33736C66.2493 5.82126 66.3422 6.40956 66.3422 7.10227V7.62926H60.2718V6.51562H64.8855C64.8855 6.12453 64.8059 5.77817 64.6468 5.47656C64.4877 5.17164 64.264 4.93134 63.9757 4.75568C63.6906 4.58002 63.3559 4.49219 62.9714 4.49219C62.5538 4.49219 62.1892 4.59493 61.8777 4.80043C61.5694 5.0026 61.3308 5.26776 61.1618 5.59588C60.996 5.92069 60.9132 6.27367 60.9132 6.65483V7.52486C60.9132 8.03527 61.0027 8.46946 61.1816 8.82741C61.3639 9.18537 61.6175 9.45881 61.9423 9.64773C62.2671 9.83333 62.6466 9.92614 63.0808 9.92614C63.3625 9.92614 63.6194 9.88636 63.8514 9.80682C64.0834 9.72396 64.2839 9.60133 64.4529 9.43892C64.622 9.27652 64.7512 9.07599 64.8407 8.83736L66.2477 9.09091C66.135 9.50521 65.9328 9.86813 65.6412 10.1797C65.3528 10.4879 64.9899 10.7282 64.5524 10.9006C64.1182 11.0696 63.6227 11.1541 63.0659 11.1541Z" fill="black"/>
</svg>
