<svg viewBox="0 0 113 12" fill="none" stroke-width="2" stroke="currentColor" aria-hidden="true">
  <path d="M0.118608 11V0.818182H1.60511V4.60156H1.6946C1.78078 4.44247 1.90507 4.25852 2.06747 4.04972C2.22988 3.84091 2.45526 3.65862 2.74361 3.50284C3.03196 3.34375 3.41312 3.2642 3.88707 3.2642C4.50355 3.2642 5.05374 3.41998 5.53764 3.73153C6.02154 4.04309 6.40104 4.49219 6.67614 5.07884C6.95455 5.66548 7.09375 6.37145 7.09375 7.19673C7.09375 8.02202 6.9562 8.72964 6.68111 9.3196C6.40601 9.90625 6.02817 10.3587 5.54759 10.6768C5.067 10.9917 4.51847 11.1491 3.90199 11.1491C3.43797 11.1491 3.05848 11.0713 2.76349 10.9155C2.47183 10.7597 2.24313 10.5774 2.07741 10.3686C1.9117 10.1598 1.78409 9.9742 1.6946 9.81179H1.57031V11H0.118608ZM1.57528 7.18182C1.57528 7.71875 1.65317 8.18939 1.80895 8.59375C1.96473 8.99811 2.1901 9.31463 2.48509 9.54332C2.78007 9.7687 3.14134 9.88139 3.56889 9.88139C4.01302 9.88139 4.38423 9.76373 4.68253 9.52841C4.98082 9.28977 5.2062 8.96662 5.35866 8.55895C5.51444 8.15128 5.59233 7.69223 5.59233 7.18182C5.59233 6.67803 5.5161 6.22562 5.36364 5.82457C5.21449 5.42353 4.98911 5.10701 4.6875 4.875C4.3892 4.64299 4.01634 4.52699 3.56889 4.52699C3.13802 4.52699 2.77344 4.63802 2.47514 4.86009C2.18016 5.08215 1.95644 5.39205 1.80398 5.78977C1.65152 6.1875 1.57528 6.65151 1.57528 7.18182ZM11.9796 11.1541C11.2637 11.1541 10.6389 10.9901 10.1053 10.6619C9.57167 10.3338 9.15737 9.87476 8.86239 9.2848C8.56741 8.69484 8.41992 8.00544 8.41992 7.21662C8.41992 6.42448 8.56741 5.73177 8.86239 5.13849C9.15737 4.54522 9.57167 4.08452 10.1053 3.75639C10.6389 3.42827 11.2637 3.2642 11.9796 3.2642C12.6955 3.2642 13.3203 3.42827 13.8539 3.75639C14.3875 4.08452 14.8018 4.54522 15.0968 5.13849C15.3917 5.73177 15.5392 6.42448 15.5392 7.21662C15.5392 8.00544 15.3917 8.69484 15.0968 9.2848C14.8018 9.87476 14.3875 10.3338 13.8539 10.6619C13.3203 10.9901 12.6955 11.1541 11.9796 11.1541ZM11.9846 9.90625C12.4486 9.90625 12.833 9.78362 13.138 9.53835C13.4429 9.29309 13.6683 8.96662 13.8141 8.55895C13.9632 8.15128 14.0378 7.70218 14.0378 7.21165C14.0378 6.72443 13.9632 6.27699 13.8141 5.86932C13.6683 5.45833 13.4429 5.12855 13.138 4.87997C12.833 4.63139 12.4486 4.5071 11.9846 4.5071C11.5172 4.5071 11.1294 4.63139 10.8212 4.87997C10.5163 5.12855 10.2892 5.45833 10.1401 5.86932C9.99426 6.27699 9.92134 6.72443 9.92134 7.21165C9.92134 7.70218 9.99426 8.15128 10.1401 8.55895C10.2892 8.96662 10.5163 9.29309 10.8212 9.53835C11.1294 9.78362 11.5172 9.90625 11.9846 9.90625ZM20.4151 11.1541C19.6992 11.1541 19.0745 10.9901 18.5408 10.6619C18.0072 10.3338 17.5929 9.87476 17.2979 9.2848C17.003 8.69484 16.8555 8.00544 16.8555 7.21662C16.8555 6.42448 17.003 5.73177 17.2979 5.13849C17.5929 4.54522 18.0072 4.08452 18.5408 3.75639C19.0745 3.42827 19.6992 3.2642 20.4151 3.2642C21.131 3.2642 21.7558 3.42827 22.2894 3.75639C22.823 4.08452 23.2373 4.54522 23.5323 5.13849C23.8273 5.73177 23.9748 6.42448 23.9748 7.21662C23.9748 8.00544 23.8273 8.69484 23.5323 9.2848C23.2373 9.87476 22.823 10.3338 22.2894 10.6619C21.7558 10.9901 21.131 11.1541 20.4151 11.1541ZM20.4201 9.90625C20.8841 9.90625 21.2686 9.78362 21.5735 9.53835C21.8784 9.29309 22.1038 8.96662 22.2496 8.55895C22.3988 8.15128 22.4734 7.70218 22.4734 7.21165C22.4734 6.72443 22.3988 6.27699 22.2496 5.86932C22.1038 5.45833 21.8784 5.12855 21.5735 4.87997C21.2686 4.63139 20.8841 4.5071 20.4201 4.5071C19.9528 4.5071 19.565 4.63139 19.2567 4.87997C18.9518 5.12855 18.7248 5.45833 18.5756 5.86932C18.4298 6.27699 18.3569 6.72443 18.3569 7.21165C18.3569 7.70218 18.4298 8.15128 18.5756 8.55895C18.7248 8.96662 18.9518 9.29309 19.2567 9.53835C19.565 9.78362 19.9528 9.90625 20.4201 9.90625ZM27.0012 8.4098L26.9913 6.59517H27.2498L30.2924 3.36364H32.0723L28.6021 7.04261H28.3684L27.0012 8.4098ZM25.6341 11V0.818182H27.1206V11H25.6341ZM30.4565 11L27.7221 7.37074L28.7463 6.33168L32.2811 11H30.4565ZM33.427 11V3.36364H34.8539V4.60653H34.9483C35.1074 4.18561 35.3676 3.85748 35.7289 3.62216C36.0901 3.38352 36.5227 3.2642 37.0265 3.2642C37.5369 3.2642 37.9644 3.38352 38.3091 3.62216C38.6571 3.8608 38.914 4.18892 39.0797 4.60653H39.1593C39.3416 4.19886 39.6316 3.87405 40.0293 3.6321C40.427 3.38684 40.901 3.2642 41.4512 3.2642C42.1439 3.2642 42.709 3.4813 43.1465 3.91548C43.5873 4.34967 43.8077 5.00426 43.8077 5.87926V11H42.3212V6.01847C42.3212 5.50142 42.1803 5.12689 41.8986 4.89489C41.6169 4.66288 41.2805 4.54688 40.8894 4.54688C40.4055 4.54688 40.0293 4.69602 39.7608 4.99432C39.4924 5.2893 39.3581 5.6688 39.3581 6.13281V11H37.8766V5.92401C37.8766 5.50971 37.7473 5.17661 37.4888 4.92472C37.2303 4.67282 36.8939 4.54688 36.4796 4.54688C36.1979 4.54688 35.9377 4.62145 35.699 4.7706C35.4637 4.91643 35.2731 5.12026 35.1273 5.3821C34.9848 5.64394 34.9135 5.94721 34.9135 6.2919V11H33.427ZM48.0224 11.169C47.5385 11.169 47.101 11.0795 46.7099 10.9006C46.3188 10.7183 46.0089 10.4548 45.7802 10.1101C45.5548 9.76539 45.4421 9.3428 45.4421 8.84233C45.4421 8.41146 45.525 8.05682 45.6907 7.77841C45.8564 7.5 46.0801 7.27959 46.3619 7.11719C46.6436 6.95478 46.9585 6.83215 47.3065 6.74929C47.6545 6.66643 48.0091 6.60346 48.3704 6.56037C48.8278 6.50734 49.199 6.46425 49.484 6.43111C49.7691 6.39465 49.9762 6.33665 50.1055 6.2571C50.2347 6.17756 50.2994 6.0483 50.2994 5.86932V5.83452C50.2994 5.40033 50.1767 5.06392 49.9315 4.82528C49.6895 4.58665 49.3282 4.46733 48.8477 4.46733C48.3472 4.46733 47.9528 4.57836 47.6644 4.80043C47.3794 5.01918 47.1822 5.26278 47.0728 5.53125L45.6758 5.21307C45.8415 4.74905 46.0835 4.37453 46.4016 4.08949C46.7231 3.80114 47.0927 3.59233 47.5103 3.46307C47.9279 3.33049 48.3671 3.2642 48.8278 3.2642C49.1327 3.2642 49.4558 3.30066 49.7972 3.37358C50.1419 3.44318 50.4634 3.57244 50.7617 3.76136C51.0633 3.95028 51.3103 4.22041 51.5025 4.57173C51.6947 4.91974 51.7908 5.37216 51.7908 5.92898V11H50.3391V9.95597H50.2795C50.1834 10.1482 50.0392 10.3371 49.8469 10.5227C49.6547 10.7083 49.4078 10.8625 49.1062 10.9851C48.8046 11.1077 48.4433 11.169 48.0224 11.169ZM48.3455 9.97585C48.7565 9.97585 49.1078 9.89465 49.3995 9.73224C49.6945 9.56984 49.9182 9.35772 50.0707 9.09588C50.2264 8.83073 50.3043 8.54735 50.3043 8.24574V7.26136C50.2513 7.31439 50.1486 7.36411 49.9961 7.41051C49.8469 7.4536 49.6763 7.49171 49.484 7.52486C49.2918 7.55469 49.1045 7.58286 48.9222 7.60938C48.7399 7.63258 48.5875 7.65246 48.4648 7.66903C48.1765 7.70549 47.913 7.76681 47.6744 7.85298C47.439 7.93916 47.2501 8.06345 47.1076 8.22585C46.9684 8.38494 46.8988 8.59706 46.8988 8.86222C46.8988 9.23011 47.0347 9.50852 47.3065 9.69744C47.5782 9.88305 47.9246 9.97585 48.3455 9.97585ZM53.7708 11V3.36364H55.2076V4.5767H55.2871C55.4263 4.16572 55.6716 3.84257 56.0229 3.60724C56.3775 3.36861 56.7786 3.24929 57.226 3.24929C57.3188 3.24929 57.4282 3.2526 57.5542 3.25923C57.6834 3.26586 57.7845 3.27415 57.8574 3.28409V4.70597C57.7978 4.68939 57.6917 4.67116 57.5392 4.65128C57.3868 4.62808 57.2343 4.61648 57.0819 4.61648C56.7305 4.61648 56.4173 4.69105 56.1422 4.8402C55.8704 4.98603 55.655 5.18987 55.4959 5.4517C55.3368 5.71023 55.2573 6.00521 55.2573 6.33665V11H53.7708ZM60.511 8.4098L60.5011 6.59517H60.7596L63.8022 3.36364H65.582L62.1119 7.04261H61.8782L60.511 8.4098ZM59.1438 11V0.818182H60.6303V11H59.1438ZM63.9663 11L61.2319 7.37074L62.256 6.33168L65.7908 11H63.9663ZM70.9165 6.05327V7.34091H66.4023V6.05327H70.9165ZM76.1143 11.1541C75.3752 11.1541 74.7389 10.9867 74.2053 10.652C73.675 10.3139 73.2673 9.84825 72.9822 9.25497C72.6972 8.66169 72.5547 7.98224 72.5547 7.21662C72.5547 6.44105 72.7005 5.75663 72.9922 5.16335C73.2839 4.56676 73.6948 4.10109 74.2251 3.76633C74.7554 3.43158 75.3802 3.2642 76.0994 3.2642C76.6795 3.2642 77.1965 3.37192 77.6506 3.58736C78.1046 3.79948 78.4709 4.09777 78.7493 4.48224C79.031 4.86671 79.1984 5.31581 79.2514 5.82955H77.8047C77.7251 5.47159 77.5429 5.16335 77.2578 4.90483C76.9761 4.64631 76.5982 4.51705 76.1243 4.51705C75.71 4.51705 75.3471 4.62642 75.0355 4.84517C74.7273 5.06061 74.487 5.36884 74.3146 5.76989C74.1423 6.16761 74.0561 6.63826 74.0561 7.18182C74.0561 7.73864 74.1406 8.21922 74.3097 8.62358C74.4787 9.02794 74.7173 9.34115 75.0256 9.56321C75.3371 9.78527 75.7034 9.89631 76.1243 9.89631C76.406 9.89631 76.6612 9.84493 76.8899 9.74219C77.1219 9.63613 77.3158 9.48532 77.4716 9.28977C77.6307 9.09422 77.7417 8.8589 77.8047 8.58381H79.2514C79.1984 9.07765 79.0376 9.51847 78.7692 9.90625C78.5007 10.294 78.1411 10.599 77.6903 10.821C77.2429 11.0431 76.7176 11.1541 76.1143 11.1541ZM82.3276 6.46591V11H80.8411V0.818182H82.3077V4.60653H82.4022C82.5811 4.19555 82.8546 3.86908 83.2225 3.62713C83.5904 3.38518 84.071 3.2642 84.6642 3.2642C85.1879 3.2642 85.6453 3.37192 86.0364 3.58736C86.4308 3.80279 86.7357 4.12429 86.9512 4.55185C87.1699 4.97609 87.2793 5.50639 87.2793 6.14276V11H85.7928V6.32173C85.7928 5.7616 85.6486 5.32741 85.3603 5.01918C85.0719 4.70762 84.6709 4.55185 84.1571 4.55185C83.8058 4.55185 83.4909 4.62642 83.2125 4.77557C82.9374 4.92472 82.7203 5.14347 82.5613 5.43182C82.4055 5.71686 82.3276 6.06155 82.3276 6.46591ZM92.5542 11.1541C91.8018 11.1541 91.1538 10.9934 90.6103 10.6719C90.07 10.3471 89.6524 9.89134 89.3574 9.30469C89.0658 8.71473 88.9199 8.02367 88.9199 7.23153C88.9199 6.44934 89.0658 5.75994 89.3574 5.16335C89.6524 4.56676 90.0634 4.10109 90.5904 3.76633C91.1207 3.43158 91.7405 3.2642 92.4498 3.2642C92.8806 3.2642 93.2982 3.33546 93.7026 3.47798C94.1069 3.6205 94.4699 3.84422 94.7914 4.14915C95.1129 4.45407 95.3664 4.85014 95.552 5.33736C95.7376 5.82126 95.8304 6.40956 95.8304 7.10227V7.62926H89.7601V6.51562H94.3738C94.3738 6.12453 94.2942 5.77817 94.1351 5.47656C93.976 5.17164 93.7523 4.93134 93.464 4.75568C93.1789 4.58002 92.8442 4.49219 92.4597 4.49219C92.0421 4.49219 91.6775 4.59493 91.3659 4.80043C91.0577 5.0026 90.8191 5.26776 90.65 5.59588C90.4843 5.92069 90.4015 6.27367 90.4015 6.65483V7.52486C90.4015 8.03527 90.4909 8.46946 90.6699 8.82741C90.8522 9.18537 91.1058 9.45881 91.4306 9.64773C91.7554 9.83333 92.1349 9.92614 92.5691 9.92614C92.8508 9.92614 93.1077 9.88636 93.3397 9.80682C93.5717 9.72396 93.7722 9.60133 93.9412 9.43892C94.1103 9.27652 94.2395 9.07599 94.329 8.83736L95.736 9.09091C95.6233 9.50521 95.4211 9.86813 95.1294 10.1797C94.8411 10.4879 94.4782 10.7282 94.0407 10.9006C93.6065 11.0696 93.111 11.1541 92.5542 11.1541ZM100.696 11.1541C99.9573 11.1541 99.3209 10.9867 98.7873 10.652C98.257 10.3139 97.8493 9.84825 97.5643 9.25497C97.2792 8.66169 97.1367 7.98224 97.1367 7.21662C97.1367 6.44105 97.2826 5.75663 97.5742 5.16335C97.8659 4.56676 98.2769 4.10109 98.8072 3.76633C99.3375 3.43158 99.9622 3.2642 100.681 3.2642C101.261 3.2642 101.779 3.37192 102.233 3.58736C102.687 3.79948 103.053 4.09777 103.331 4.48224C103.613 4.86671 103.78 5.31581 103.833 5.82955H102.387C102.307 5.47159 102.125 5.16335 101.84 4.90483C101.558 4.64631 101.18 4.51705 100.706 4.51705C100.292 4.51705 99.9291 4.62642 99.6175 4.84517C99.3093 5.06061 99.069 5.36884 98.8967 5.76989C98.7243 6.16761 98.6381 6.63826 98.6381 7.18182C98.6381 7.73864 98.7227 8.21922 98.8917 8.62358C99.0607 9.02794 99.2994 9.34115 99.6076 9.56321C99.9192 9.78527 100.285 9.89631 100.706 9.89631C100.988 9.89631 101.243 9.84493 101.472 9.74219C101.704 9.63613 101.898 9.48532 102.054 9.28977C102.213 9.09422 102.324 8.8589 102.387 8.58381H103.833C103.78 9.07765 103.62 9.51847 103.351 9.90625C103.083 10.294 102.723 10.599 102.272 10.821C101.825 11.0431 101.3 11.1541 100.696 11.1541ZM106.79 8.4098L106.78 6.59517H107.039L110.081 3.36364H111.861L108.391 7.04261H108.157L106.79 8.4098ZM105.423 11V0.818182H106.91V11H105.423ZM110.246 11L107.511 7.37074L108.535 6.33168L112.07 11H110.246Z" fill="black"/>
</svg>
