<svg viewBox="0 0 100 12" fill="none" stroke-width="2" stroke="currentColor" aria-hidden="true">
  <path d="M4.63352 3.36364V4.55682H0.318182V3.36364H4.63352ZM1.50142 11V2.47869C1.50142 2.00142 1.60582 1.60535 1.81463 1.29048C2.02344 0.972301 2.30019 0.735322 2.64489 0.579545C2.98958 0.420454 3.36411 0.340908 3.76847 0.340908C4.06676 0.340908 4.32197 0.365767 4.53409 0.415483C4.74621 0.461884 4.90365 0.504971 5.00639 0.544744L4.65838 1.74787C4.58878 1.72798 4.49929 1.70478 4.38991 1.67827C4.28054 1.64844 4.14796 1.63352 3.99219 1.63352C3.63092 1.63352 3.3724 1.72301 3.21662 1.90199C3.06416 2.08097 2.98793 2.33949 2.98793 2.67756V11H1.50142ZM6.16726 11V3.36364H7.65376V11H6.16726ZM6.91797 2.18537C6.65945 2.18537 6.43738 2.09919 6.25178 1.92685C6.06948 1.75118 5.97834 1.54238 5.97834 1.30043C5.97834 1.05516 6.06948 0.846354 6.25178 0.674005C6.43738 0.498342 6.65945 0.410511 6.91797 0.410511C7.17649 0.410511 7.3969 0.498342 7.57919 0.674005C7.7648 0.846354 7.8576 1.05516 7.8576 1.30043C7.8576 1.54238 7.7648 1.75118 7.57919 1.92685C7.3969 2.09919 7.17649 2.18537 6.91797 2.18537ZM11.1401 0.818182V11H9.65359V0.818182H11.1401ZM16.7045 3.36364V4.55682H12.5334V3.36364H16.7045ZM13.652 1.53409H15.1385V8.75781C15.1385 9.04616 15.1816 9.26326 15.2678 9.40909C15.3539 9.55161 15.465 9.64938 15.6009 9.70241C15.7401 9.75213 15.8909 9.77699 16.0533 9.77699C16.1726 9.77699 16.277 9.7687 16.3665 9.75213C16.456 9.73556 16.5256 9.7223 16.5753 9.71236L16.8438 10.9403C16.7576 10.9735 16.6349 11.0066 16.4759 11.0398C16.3168 11.0762 16.1179 11.0961 15.8793 11.0994C15.4882 11.1061 15.1236 11.0365 14.7855 10.8906C14.4474 10.7448 14.174 10.5194 13.9652 10.2145C13.7564 9.90956 13.652 9.52675 13.652 9.06605V1.53409ZM21.5581 11.1541C20.8057 11.1541 20.1577 10.9934 19.6142 10.6719C19.0739 10.3471 18.6563 9.89134 18.3613 9.30469C18.0697 8.71473 17.9238 8.02367 17.9238 7.23153C17.9238 6.44934 18.0697 5.75994 18.3613 5.16335C18.6563 4.56676 19.0673 4.10109 19.5943 3.76633C20.1246 3.43158 20.7444 3.2642 21.4537 3.2642C21.8845 3.2642 22.3021 3.33546 22.7065 3.47798C23.1109 3.6205 23.4738 3.84422 23.7953 4.14915C24.1168 4.45407 24.3703 4.85014 24.5559 5.33736C24.7415 5.82126 24.8343 6.40956 24.8343 7.10227V7.62926H18.764V6.51562H23.3777C23.3777 6.12453 23.2981 5.77817 23.139 5.47656C22.9799 5.17164 22.7562 4.93134 22.4679 4.75568C22.1828 4.58002 21.8481 4.49219 21.4636 4.49219C21.046 4.49219 20.6814 4.59493 20.3699 4.80043C20.0616 5.0026 19.823 5.26776 19.6539 5.59588C19.4882 5.92069 19.4054 6.27367 19.4054 6.65483V7.52486C19.4054 8.03527 19.4949 8.46946 19.6738 8.82741C19.8561 9.18537 20.1097 9.45881 20.4345 9.64773C20.7593 9.83333 21.1388 9.92614 21.573 9.92614C21.8547 9.92614 22.1116 9.88636 22.3436 9.80682C22.5756 9.72396 22.7761 9.60133 22.9451 9.43892C23.1142 9.27652 23.2434 9.07599 23.3329 8.83736L24.7399 9.09091C24.6272 9.50521 24.425 9.86813 24.1333 10.1797C23.845 10.4879 23.4821 10.7282 23.0446 10.9006C22.6104 11.0696 22.1149 11.1541 21.5581 11.1541ZM26.4837 11V3.36364H27.9205V4.5767H28C28.1392 4.16572 28.3845 3.84257 28.7358 3.60724C29.0904 3.36861 29.4915 3.24929 29.9389 3.24929C30.0317 3.24929 30.1411 3.2526 30.267 3.25923C30.3963 3.26586 30.4974 3.27415 30.5703 3.28409V4.70597C30.5107 4.68939 30.4046 4.67116 30.2521 4.65128C30.0997 4.62808 29.9472 4.61648 29.7947 4.61648C29.4434 4.61648 29.1302 4.69105 28.8551 4.8402C28.5833 4.98603 28.3679 5.18987 28.2088 5.4517C28.0497 5.71023 27.9702 6.00521 27.9702 6.33665V11H26.4837ZM35.9048 6.05327V7.34091H31.3906V6.05327H35.9048ZM41.5202 3.36364V4.55682H37.2049V3.36364H41.5202ZM38.3881 11V2.47869C38.3881 2.00142 38.4925 1.60535 38.7013 1.29048C38.9102 0.972301 39.1869 0.735322 39.5316 0.579545C39.8763 0.420454 40.2508 0.340908 40.6552 0.340908C40.9535 0.340908 41.2087 0.365767 41.4208 0.415483C41.6329 0.461884 41.7904 0.504971 41.8931 0.544744L41.5451 1.74787C41.4755 1.72798 41.386 1.70478 41.2766 1.67827C41.1673 1.64844 41.0347 1.63352 40.8789 1.63352C40.5176 1.63352 40.2591 1.72301 40.1033 1.90199C39.9509 2.08097 39.8746 2.33949 39.8746 2.67756V11H38.3881ZM47.8913 7.8331V3.36364H49.3828V11H47.9212V9.67756H47.8416C47.666 10.0852 47.3842 10.425 46.9964 10.6967C46.612 10.9652 46.133 11.0994 45.5597 11.0994C45.0691 11.0994 44.6349 10.9917 44.2571 10.7763C43.8826 10.5575 43.5876 10.2344 43.3722 9.80682C43.16 9.37926 43.054 8.85062 43.054 8.22088V3.36364H44.5405V8.0419C44.5405 8.56226 44.6847 8.97656 44.973 9.2848C45.2614 9.59304 45.6359 9.74716 46.0966 9.74716C46.375 9.74716 46.6518 9.67756 46.9268 9.53835C47.2053 9.39915 47.4356 9.18868 47.6179 8.90696C47.8035 8.62524 47.8946 8.26728 47.8913 7.8331ZM52.8667 6.46591V11H51.3801V3.36364H52.807V4.60653H52.9015C53.0771 4.20218 53.3522 3.87737 53.7267 3.6321C54.1046 3.38684 54.5802 3.2642 55.1536 3.2642C55.6739 3.2642 56.1297 3.37358 56.5208 3.59233C56.9119 3.80777 57.2151 4.12926 57.4306 4.55682C57.646 4.98437 57.7537 5.51302 57.7537 6.14276V11H56.2672V6.32173C56.2672 5.76823 56.123 5.3357 55.8347 5.02415C55.5463 4.70928 55.1503 4.55185 54.6465 4.55185C54.3018 4.55185 53.9952 4.62642 53.7267 4.77557C53.4616 4.92472 53.2511 5.14347 53.0953 5.43182C52.9429 5.71686 52.8667 6.06155 52.8667 6.46591ZM61.2338 6.46591V11H59.7473V3.36364H61.1742V4.60653H61.2686C61.4443 4.20218 61.7194 3.87737 62.0939 3.6321C62.4718 3.38684 62.9474 3.2642 63.5208 3.2642C64.0411 3.2642 64.4969 3.37358 64.888 3.59233C65.2791 3.80777 65.5823 4.12926 65.7978 4.55682C66.0132 4.98437 66.1209 5.51302 66.1209 6.14276V11H64.6344V6.32173C64.6344 5.76823 64.4902 5.3357 64.2019 5.02415C63.9135 4.70928 63.5175 4.55185 63.0137 4.55185C62.669 4.55185 62.3624 4.62642 62.0939 4.77557C61.8288 4.92472 61.6183 5.14347 61.4625 5.43182C61.3101 5.71686 61.2338 6.06155 61.2338 6.46591ZM71.4057 11.1541C70.6533 11.1541 70.0054 10.9934 69.4618 10.6719C68.9216 10.3471 68.504 9.89134 68.209 9.30469C67.9173 8.71473 67.7715 8.02367 67.7715 7.23153C67.7715 6.44934 67.9173 5.75994 68.209 5.16335C68.504 4.56676 68.915 4.10109 69.4419 3.76633C69.9722 3.43158 70.592 3.2642 71.3013 3.2642C71.7322 3.2642 72.1498 3.33546 72.5542 3.47798C72.9585 3.6205 73.3214 3.84422 73.6429 4.14915C73.9644 4.45407 74.218 4.85014 74.4036 5.33736C74.5892 5.82126 74.682 6.40956 74.682 7.10227V7.62926H68.6117V6.51562H73.2253C73.2253 6.12453 73.1458 5.77817 72.9867 5.47656C72.8276 5.17164 72.6039 4.93134 72.3155 4.75568C72.0305 4.58002 71.6957 4.49219 71.3113 4.49219C70.8936 4.49219 70.5291 4.59493 70.2175 4.80043C69.9093 5.0026 69.6706 5.26776 69.5016 5.59588C69.3359 5.92069 69.253 6.27367 69.253 6.65483V7.52486C69.253 8.03527 69.3425 8.46946 69.5215 8.82741C69.7038 9.18537 69.9573 9.45881 70.2821 9.64773C70.6069 9.83333 70.9864 9.92614 71.4206 9.92614C71.7024 9.92614 71.9592 9.88636 72.1912 9.80682C72.4232 9.72396 72.6238 9.60133 72.7928 9.43892C72.9618 9.27652 73.0911 9.07599 73.1806 8.83736L74.5875 9.09091C74.4748 9.50521 74.2727 9.86813 73.981 10.1797C73.6926 10.4879 73.3297 10.7282 72.8922 10.9006C72.458 11.0696 71.9625 11.1541 71.4057 11.1541ZM77.8178 0.818182V11H76.3313V0.818182H77.8178ZM84.3169 6.05327V7.34091H79.8027V6.05327H84.3169ZM89.823 11.169C89.0375 11.1657 88.3663 10.9586 87.8095 10.5476C87.2527 10.1366 86.8268 9.53835 86.5318 8.75284C86.2368 7.96733 86.0893 7.02107 86.0893 5.91406C86.0893 4.81037 86.2368 3.86742 86.5318 3.08523C86.8301 2.30303 87.2576 1.70644 87.8145 1.29545C88.3746 0.884469 89.0441 0.678977 89.823 0.678977C90.6019 0.678977 91.2697 0.886126 91.8265 1.30043C92.3833 1.71141 92.8092 2.308 93.1042 3.0902C93.4025 3.86908 93.5517 4.81037 93.5517 5.91406C93.5517 7.02438 93.4042 7.9723 93.1092 8.75781C92.8142 9.54001 92.3883 10.1383 91.8315 10.5526C91.2747 10.9635 90.6052 11.169 89.823 11.169ZM89.823 9.84162C90.5124 9.84162 91.051 9.50521 91.4387 8.83239C91.8298 8.15956 92.0254 7.18679 92.0254 5.91406C92.0254 5.06889 91.9359 4.35464 91.7569 3.77131C91.5813 3.18466 91.3277 2.74053 90.9963 2.43892C90.6681 2.134 90.277 1.98153 89.823 1.98153C89.1369 1.98153 88.5983 2.3196 88.2072 2.99574C87.8161 3.67187 87.6189 4.64465 87.6156 5.91406C87.6156 6.76255 87.7034 7.48011 87.8791 8.06676C88.0581 8.65009 88.3116 9.09257 88.6397 9.39418C88.9679 9.69247 89.3623 9.84162 89.823 9.84162ZM99.1783 0.818182V11H97.6371V2.35938H97.5774L95.1413 3.95028V2.47869L97.6818 0.818182H99.1783Z" fill="black"/>
</svg>
