<svg viewBox="0 0 95 15" fill="none" stroke-width="2" stroke="currentColor" aria-hidden="true">
  <path d="M4.56392 3.36364V4.55682H0.392756V3.36364H4.56392ZM1.51136 1.53409H2.99787V8.75781C2.99787 9.04616 3.04096 9.26326 3.12713 9.40909C3.21331 9.55161 3.32434 9.64938 3.46023 9.70241C3.59943 9.75213 3.75024 9.77699 3.91264 9.77699C4.03196 9.77699 4.13636 9.7687 4.22585 9.75213C4.31534 9.73556 4.38494 9.7223 4.43466 9.71236L4.70312 10.9403C4.61695 10.9735 4.49432 11.0066 4.33523 11.0398C4.17614 11.0762 3.97727 11.0961 3.73864 11.0994C3.34754 11.1061 2.98295 11.0365 2.64489 10.8906C2.30682 10.7448 2.03338 10.5194 1.82457 10.2145C1.61577 9.90956 1.51136 9.52675 1.51136 9.06605V1.53409ZM9.34286 11.1541C8.62695 11.1541 8.00219 10.9901 7.46857 10.6619C6.93496 10.3338 6.52066 9.87476 6.22567 9.2848C5.93069 8.69484 5.7832 8.00544 5.7832 7.21662C5.7832 6.42448 5.93069 5.73177 6.22567 5.13849C6.52066 4.54522 6.93496 4.08452 7.46857 3.75639C8.00219 3.42827 8.62695 3.2642 9.34286 3.2642C10.0588 3.2642 10.6835 3.42827 11.2172 3.75639C11.7508 4.08452 12.1651 4.54522 12.46 5.13849C12.755 5.73177 12.9025 6.42448 12.9025 7.21662C12.9025 8.00544 12.755 8.69484 12.46 9.2848C12.1651 9.87476 11.7508 10.3338 11.2172 10.6619C10.6835 10.9901 10.0588 11.1541 9.34286 11.1541ZM9.34783 9.90625C9.81185 9.90625 10.1963 9.78362 10.5012 9.53835C10.8062 9.29309 11.0315 8.96662 11.1774 8.55895C11.3265 8.15128 11.4011 7.70218 11.4011 7.21165C11.4011 6.72443 11.3265 6.27699 11.1774 5.86932C11.0315 5.45833 10.8062 5.12855 10.5012 4.87997C10.1963 4.63139 9.81185 4.5071 9.34783 4.5071C8.8805 4.5071 8.49272 4.63139 8.18448 4.87997C7.87956 5.12855 7.65252 5.45833 7.50337 5.86932C7.35754 6.27699 7.28462 6.72443 7.28462 7.21165C7.28462 7.70218 7.35754 8.15128 7.50337 8.55895C7.65252 8.96662 7.87956 9.29309 8.18448 9.53835C8.49272 9.78362 8.8805 9.90625 9.34783 9.90625ZM17.7635 14.0227C17.157 14.0227 16.6349 13.9432 16.1974 13.7841C15.7633 13.625 15.4086 13.4145 15.1335 13.1527C14.8584 12.8909 14.6529 12.6042 14.517 12.2926L15.7947 11.7656C15.8842 11.9115 16.0036 12.0656 16.1527 12.228C16.3052 12.3937 16.5107 12.5346 16.7692 12.6506C17.031 12.7666 17.3674 12.8246 17.7784 12.8246C18.3419 12.8246 18.8075 12.687 19.1754 12.4119C19.5433 12.1402 19.7273 11.706 19.7273 11.1094V9.60795H19.6328C19.5433 9.77036 19.4141 9.95099 19.245 10.1499C19.0793 10.3487 18.8506 10.5211 18.5589 10.6669C18.2673 10.8127 17.8878 10.8857 17.4205 10.8857C16.8172 10.8857 16.2737 10.7448 15.7898 10.4631C15.3092 10.178 14.928 9.75876 14.6463 9.20526C14.3679 8.64844 14.2287 7.96401 14.2287 7.15199C14.2287 6.33996 14.3662 5.64394 14.6413 5.06392C14.9197 4.4839 15.3009 4.03977 15.7848 3.73153C16.2687 3.41998 16.8172 3.2642 17.4304 3.2642C17.9044 3.2642 18.2872 3.34375 18.5788 3.50284C18.8705 3.65862 19.0975 3.84091 19.2599 4.04972C19.4257 4.25852 19.5533 4.44247 19.6428 4.60156H19.7521V3.36364H21.2088V11.169C21.2088 11.8253 21.0563 12.3639 20.7514 12.7848C20.4465 13.2057 20.0339 13.5173 19.5135 13.7195C18.9964 13.9216 18.4131 14.0227 17.7635 14.0227ZM17.7486 9.6527C18.1761 9.6527 18.5374 9.55327 18.8324 9.3544C19.1307 9.15223 19.3561 8.86387 19.5085 8.48935C19.6643 8.11151 19.7422 7.65909 19.7422 7.1321C19.7422 6.61837 19.666 6.16596 19.5135 5.77486C19.361 5.38376 19.1373 5.07884 18.8423 4.86009C18.5473 4.63802 18.1828 4.52699 17.7486 4.52699C17.3011 4.52699 16.9283 4.64299 16.63 4.875C16.3317 5.10369 16.1063 5.41525 15.9538 5.80966C15.8047 6.20407 15.7301 6.64489 15.7301 7.1321C15.7301 7.63258 15.8063 8.07173 15.9588 8.44957C16.1113 8.82741 16.3366 9.1224 16.6349 9.33452C16.9366 9.54664 17.3078 9.6527 17.7486 9.6527ZM26.4041 14.0227C25.7976 14.0227 25.2756 13.9432 24.8381 13.7841C24.4039 13.625 24.0492 13.4145 23.7741 13.1527C23.4991 12.8909 23.2936 12.6042 23.1577 12.2926L24.4354 11.7656C24.5249 11.9115 24.6442 12.0656 24.7933 12.228C24.9458 12.3937 25.1513 12.5346 25.4098 12.6506C25.6716 12.7666 26.008 12.8246 26.419 12.8246C26.9825 12.8246 27.4482 12.687 27.8161 12.4119C28.1839 12.1402 28.3679 11.706 28.3679 11.1094V9.60795H28.2734C28.1839 9.77036 28.0547 9.95099 27.8857 10.1499C27.7199 10.3487 27.4912 10.5211 27.1996 10.6669C26.9079 10.8127 26.5284 10.8857 26.0611 10.8857C25.4579 10.8857 24.9143 10.7448 24.4304 10.4631C23.9498 10.178 23.5687 9.75876 23.2869 9.20526C23.0085 8.64844 22.8693 7.96401 22.8693 7.15199C22.8693 6.33996 23.0069 5.64394 23.282 5.06392C23.5604 4.4839 23.9415 4.03977 24.4254 3.73153C24.9093 3.41998 25.4579 3.2642 26.071 3.2642C26.545 3.2642 26.9278 3.34375 27.2195 3.50284C27.5111 3.65862 27.7382 3.84091 27.9006 4.04972C28.0663 4.25852 28.1939 4.44247 28.2834 4.60156H28.3928V3.36364H29.8494V11.169C29.8494 11.8253 29.697 12.3639 29.392 12.7848C29.0871 13.2057 28.6745 13.5173 28.1541 13.7195C27.6371 13.9216 27.0537 14.0227 26.4041 14.0227ZM26.3892 9.6527C26.8168 9.6527 27.178 9.55327 27.473 9.3544C27.7713 9.15223 27.9967 8.86387 28.1491 8.48935C28.3049 8.11151 28.3828 7.65909 28.3828 7.1321C28.3828 6.61837 28.3066 6.16596 28.1541 5.77486C28.0017 5.38376 27.7779 5.07884 27.483 4.86009C27.188 4.63802 26.8234 4.52699 26.3892 4.52699C25.9418 4.52699 25.5689 4.64299 25.2706 4.875C24.9723 5.10369 24.7469 5.41525 24.5945 5.80966C24.4453 6.20407 24.3707 6.64489 24.3707 7.1321C24.3707 7.63258 24.447 8.07173 24.5994 8.44957C24.7519 8.82741 24.9773 9.1224 25.2756 9.33452C25.5772 9.54664 25.9484 9.6527 26.3892 9.6527ZM33.3295 0.818182V11H31.843V0.818182H33.3295ZM38.6206 11.1541C37.8682 11.1541 37.2202 10.9934 36.6767 10.6719C36.1364 10.3471 35.7188 9.89134 35.4238 9.30469C35.1322 8.71473 34.9863 8.02367 34.9863 7.23153C34.9863 6.44934 35.1322 5.75994 35.4238 5.16335C35.7188 4.56676 36.1298 4.10109 36.6568 3.76633C37.1871 3.43158 37.8069 3.2642 38.5162 3.2642C38.947 3.2642 39.3646 3.33546 39.769 3.47798C40.1734 3.6205 40.5363 3.84422 40.8578 4.14915C41.1793 4.45407 41.4328 4.85014 41.6184 5.33736C41.804 5.82126 41.8968 6.40956 41.8968 7.10227V7.62926H35.8265V6.51562H40.4402C40.4402 6.12453 40.3606 5.77817 40.2015 5.47656C40.0424 5.17164 39.8187 4.93134 39.5304 4.75568C39.2453 4.58002 38.9106 4.49219 38.5261 4.49219C38.1085 4.49219 37.7439 4.59493 37.4324 4.80043C37.1241 5.0026 36.8855 5.26776 36.7164 5.59588C36.5507 5.92069 36.4679 6.27367 36.4679 6.65483V7.52486C36.4679 8.03527 36.5574 8.46946 36.7363 8.82741C36.9186 9.18537 37.1722 9.45881 37.497 9.64773C37.8218 9.83333 38.2013 9.92614 38.6355 9.92614C38.9172 9.92614 39.1741 9.88636 39.4061 9.80682C39.6381 9.72396 39.8386 9.60133 40.0076 9.43892C40.1767 9.27652 40.3059 9.07599 40.3954 8.83736L41.8024 9.09091C41.6897 9.50521 41.4875 9.86813 41.1958 10.1797C40.9075 10.4879 40.5446 10.7282 40.1071 10.9006C39.6729 11.0696 39.1774 11.1541 38.6206 11.1541ZM48.0455 6.05327V7.34091H43.5312V6.05327H48.0455ZM53.5515 11.169C52.766 11.1657 52.0948 10.9586 51.538 10.5476C50.9812 10.1366 50.5553 9.53835 50.2603 8.75284C49.9653 7.96733 49.8178 7.02107 49.8178 5.91406C49.8178 4.81037 49.9653 3.86742 50.2603 3.08523C50.5586 2.30303 50.9862 1.70644 51.543 1.29545C52.1031 0.884469 52.7726 0.678977 53.5515 0.678977C54.3304 0.678977 54.9982 0.886126 55.555 1.30043C56.1119 1.71141 56.5378 2.308 56.8327 3.0902C57.131 3.86908 57.2802 4.81037 57.2802 5.91406C57.2802 7.02438 57.1327 7.9723 56.8377 8.75781C56.5427 9.54001 56.1168 10.1383 55.56 10.5526C55.0032 10.9635 54.3337 11.169 53.5515 11.169ZM53.5515 9.84162C54.2409 9.84162 54.7795 9.50521 55.1673 8.83239C55.5584 8.15956 55.7539 7.18679 55.7539 5.91406C55.7539 5.06889 55.6644 4.35464 55.4854 3.77131C55.3098 3.18466 55.0562 2.74053 54.7248 2.43892C54.3967 2.134 54.0056 1.98153 53.5515 1.98153C52.8654 1.98153 52.3268 2.3196 51.9357 2.99574C51.5446 3.67187 51.3474 4.64465 51.3441 5.91406C51.3441 6.76255 51.4319 7.48011 51.6076 8.06676C51.7866 8.65009 52.0401 9.09257 52.3683 9.39418C52.6964 9.69247 53.0908 9.84162 53.5515 9.84162ZM59.0439 11V9.88636L62.4892 6.31676C62.8571 5.92898 63.1603 5.58925 63.399 5.29759C63.6409 5.0026 63.8216 4.72254 63.9409 4.45739C64.0602 4.19223 64.1199 3.91051 64.1199 3.61222C64.1199 3.27415 64.0403 2.98248 63.8812 2.73722C63.7221 2.48864 63.505 2.29806 63.2299 2.16548C62.9548 2.02959 62.6449 1.96165 62.3002 1.96165C61.9357 1.96165 61.6175 2.03622 61.3457 2.18537C61.0739 2.33452 60.8651 2.54498 60.7193 2.81676C60.5734 3.08854 60.5005 3.40672 60.5005 3.77131H59.0339C59.0339 3.15151 59.1764 2.60961 59.4615 2.1456C59.7465 1.68158 60.1376 1.32197 60.6348 1.06676C61.1319 0.808238 61.697 0.678977 62.3301 0.678977C62.9698 0.678977 63.5332 0.806581 64.0204 1.06179C64.5109 1.31368 64.8938 1.65838 65.1689 2.09588C65.444 2.53007 65.5815 3.0206 65.5815 3.56747C65.5815 3.94531 65.5102 4.31487 65.3677 4.67614C65.2285 5.0374 64.9849 5.4401 64.6369 5.88423C64.2889 6.32505 63.805 6.86032 63.1852 7.49006L61.1618 9.60795V9.68253H65.7456V11H59.0439ZM72.149 6.05327V7.34091H67.6348V6.05327H72.149ZM75.6167 0.818182V11H74.1301V0.818182H75.6167ZM80.9077 11.1541C80.1553 11.1541 79.5073 10.9934 78.9638 10.6719C78.4235 10.3471 78.0059 9.89134 77.7109 9.30469C77.4193 8.71473 77.2734 8.02367 77.2734 7.23153C77.2734 6.44934 77.4193 5.75994 77.7109 5.16335C78.0059 4.56676 78.4169 4.10109 78.9439 3.76633C79.4742 3.43158 80.094 3.2642 80.8033 3.2642C81.2341 3.2642 81.6518 3.33546 82.0561 3.47798C82.4605 3.6205 82.8234 3.84422 83.1449 4.14915C83.4664 4.45407 83.7199 4.85014 83.9055 5.33736C84.0911 5.82126 84.1839 6.40956 84.1839 7.10227V7.62926H78.1136V6.51562H82.7273C82.7273 6.12453 82.6477 5.77817 82.4886 5.47656C82.3295 5.17164 82.1058 4.93134 81.8175 4.75568C81.5324 4.58002 81.1977 4.49219 80.8132 4.49219C80.3956 4.49219 80.031 4.59493 79.7195 4.80043C79.4112 5.0026 79.1726 5.26776 79.0036 5.59588C78.8378 5.92069 78.755 6.27367 78.755 6.65483V7.52486C78.755 8.03527 78.8445 8.46946 79.0234 8.82741C79.2057 9.18537 79.4593 9.45881 79.7841 9.64773C80.1089 9.83333 80.4884 9.92614 80.9226 9.92614C81.2043 9.92614 81.4612 9.88636 81.6932 9.80682C81.9252 9.72396 82.1257 9.60133 82.2947 9.43892C82.4638 9.27652 82.593 9.07599 82.6825 8.83736L84.0895 9.09091C83.9768 9.50521 83.7746 9.86813 83.483 10.1797C83.1946 10.4879 82.8317 10.7282 82.3942 10.9006C81.96 11.0696 81.4645 11.1541 80.9077 11.1541ZM89.4675 3.36364V4.55682H85.1522V3.36364H89.4675ZM86.3354 11V2.47869C86.3354 2.00142 86.4398 1.60535 86.6486 1.29048C86.8574 0.972301 87.1342 0.735322 87.4789 0.579545C87.8236 0.420454 88.1981 0.340908 88.6025 0.340908C88.9007 0.340908 89.156 0.365767 89.3681 0.415483C89.5802 0.461884 89.7376 0.504971 89.8404 0.544744L89.4924 1.74787C89.4228 1.72798 89.3333 1.70478 89.2239 1.67827C89.1145 1.64844 88.9819 1.63352 88.8262 1.63352C88.4649 1.63352 88.2064 1.72301 88.0506 1.90199C87.8981 2.08097 87.8219 2.33949 87.8219 2.67756V11H86.3354ZM94.5659 3.36364V4.55682H90.3947V3.36364H94.5659ZM91.5133 1.53409H92.9998V8.75781C92.9998 9.04616 93.0429 9.26326 93.1291 9.40909C93.2153 9.55161 93.3263 9.64938 93.4622 9.70241C93.6014 9.75213 93.7522 9.77699 93.9146 9.77699C94.0339 9.77699 94.1383 9.7687 94.2278 9.75213C94.3173 9.73556 94.3869 9.7223 94.4366 9.71236L94.7051 10.9403C94.6189 10.9735 94.4963 11.0066 94.3372 11.0398C94.1781 11.0762 93.9792 11.0961 93.7406 11.0994C93.3495 11.1061 92.9849 11.0365 92.6468 10.8906C92.3088 10.7448 92.0353 10.5194 91.8265 10.2145C91.6177 9.90956 91.5133 9.52675 91.5133 9.06605V1.53409Z" fill="black"/>
</svg>
