<svg viewBox="0 0 101 12" fill="none" stroke-width="2" stroke="currentColor" aria-hidden="true">
  <path d="M6.72159 5.22798L5.37429 5.46662C5.31795 5.29427 5.22846 5.13021 5.10582 4.97443C4.98651 4.81865 4.8241 4.69105 4.61861 4.59162C4.41312 4.49219 4.15625 4.44247 3.84801 4.44247C3.42708 4.44247 3.07576 4.53693 2.79403 4.72585C2.51231 4.91146 2.37145 5.15175 2.37145 5.44673C2.37145 5.70194 2.46591 5.90743 2.65483 6.06321C2.84375 6.21899 3.14867 6.34659 3.5696 6.44602L4.78267 6.72443C5.48532 6.88684 6.009 7.13707 6.35369 7.47514C6.69839 7.81321 6.87074 8.25237 6.87074 8.79261C6.87074 9.25 6.73816 9.65767 6.47301 10.0156C6.21117 10.3703 5.84493 10.6487 5.37429 10.8509C4.90696 11.053 4.36506 11.1541 3.74858 11.1541C2.89347 11.1541 2.19579 10.9718 1.65554 10.6072C1.11529 10.2393 0.783854 9.71733 0.661222 9.04119L2.09801 8.82244C2.1875 9.19697 2.37145 9.48035 2.64986 9.67259C2.92827 9.86151 3.29119 9.95597 3.73864 9.95597C4.22585 9.95597 4.61529 9.85488 4.90696 9.6527C5.19863 9.44721 5.34446 9.19697 5.34446 8.90199C5.34446 8.66335 5.25497 8.46283 5.07599 8.30043C4.90033 8.13802 4.63021 8.01539 4.26562 7.93253L2.97301 7.64915C2.26042 7.48674 1.73343 7.22822 1.39205 6.87358C1.05398 6.51894 0.884943 6.06984 0.884943 5.52628C0.884943 5.07552 1.01089 4.68111 1.26278 4.34304C1.51468 4.00497 1.86269 3.74148 2.30682 3.55256C2.75095 3.36032 3.25971 3.2642 3.8331 3.2642C4.65838 3.2642 5.308 3.44318 5.78196 3.80114C6.25592 4.15578 6.56913 4.63139 6.72159 5.22798ZM9.99165 0.818182V11H8.50515V0.818182H9.99165ZM14.2138 11.169C13.7299 11.169 13.2924 11.0795 12.9013 10.9006C12.5102 10.7183 12.2003 10.4548 11.9716 10.1101C11.7462 9.76539 11.6335 9.3428 11.6335 8.84233C11.6335 8.41146 11.7164 8.05682 11.8821 7.77841C12.0478 7.5 12.2715 7.27959 12.5533 7.11719C12.835 6.95478 13.1499 6.83215 13.4979 6.74929C13.8459 6.66643 14.2005 6.60346 14.5618 6.56037C15.0192 6.50734 15.3904 6.46425 15.6754 6.43111C15.9605 6.39465 16.1676 6.33665 16.2969 6.2571C16.4261 6.17756 16.4908 6.0483 16.4908 5.86932V5.83452C16.4908 5.40033 16.3681 5.06392 16.1229 4.82528C15.8809 4.58665 15.5196 4.46733 15.0391 4.46733C14.5386 4.46733 14.1442 4.57836 13.8558 4.80043C13.5708 5.01918 13.3736 5.26278 13.2642 5.53125L11.8672 5.21307C12.0329 4.74905 12.2749 4.37453 12.593 4.08949C12.9145 3.80114 13.2841 3.59233 13.7017 3.46307C14.1193 3.33049 14.5585 3.2642 15.0192 3.2642C15.3241 3.2642 15.6473 3.30066 15.9886 3.37358C16.3333 3.44318 16.6548 3.57244 16.9531 3.76136C17.2547 3.95028 17.5017 4.22041 17.6939 4.57173C17.8861 4.91974 17.9822 5.37216 17.9822 5.92898V11H16.5305V9.95597H16.4709C16.3748 10.1482 16.2306 10.3371 16.0384 10.5227C15.8461 10.7083 15.5992 10.8625 15.2976 10.9851C14.996 11.1077 14.6347 11.169 14.2138 11.169ZM14.5369 9.97585C14.9479 9.97585 15.2992 9.89465 15.5909 9.73224C15.8859 9.56984 16.1096 9.35772 16.2621 9.09588C16.4179 8.83073 16.4957 8.54735 16.4957 8.24574V7.26136C16.4427 7.31439 16.34 7.36411 16.1875 7.41051C16.0384 7.4536 15.8677 7.49171 15.6754 7.52486C15.4832 7.55469 15.2959 7.58286 15.1136 7.60938C14.9313 7.63258 14.7789 7.65246 14.6562 7.66903C14.3679 7.70549 14.1044 7.76681 13.8658 7.85298C13.6304 7.93916 13.4415 8.06345 13.299 8.22585C13.1598 8.38494 13.0902 8.59706 13.0902 8.86222C13.0902 9.23011 13.2261 9.50852 13.4979 9.69744C13.7696 9.88305 14.116 9.97585 14.5369 9.97585ZM25.6845 5.22798L24.3372 5.46662C24.2808 5.29427 24.1913 5.13021 24.0687 4.97443C23.9494 4.81865 23.787 4.69105 23.5815 4.59162C23.376 4.49219 23.1191 4.44247 22.8109 4.44247C22.39 4.44247 22.0386 4.53693 21.7569 4.72585C21.4752 4.91146 21.3343 5.15175 21.3343 5.44673C21.3343 5.70194 21.4288 5.90743 21.6177 6.06321C21.8066 6.21899 22.1116 6.34659 22.5325 6.44602L23.7456 6.72443C24.4482 6.88684 24.9719 7.13707 25.3166 7.47514C25.6613 7.81321 25.8336 8.25237 25.8336 8.79261C25.8336 9.25 25.7011 9.65767 25.4359 10.0156C25.1741 10.3703 24.8078 10.6487 24.3372 10.8509C23.8699 11.053 23.3279 11.1541 22.7115 11.1541C21.8564 11.1541 21.1587 10.9718 20.6184 10.6072C20.0782 10.2393 19.7467 9.71733 19.6241 9.04119L21.0609 8.82244C21.1504 9.19697 21.3343 9.48035 21.6127 9.67259C21.8912 9.86151 22.2541 9.95597 22.7015 9.95597C23.1887 9.95597 23.5782 9.85488 23.8699 9.6527C24.1615 9.44721 24.3074 9.19697 24.3074 8.90199C24.3074 8.66335 24.2179 8.46283 24.0389 8.30043C23.8632 8.13802 23.5931 8.01539 23.2285 7.93253L21.9359 7.64915C21.2233 7.48674 20.6963 7.22822 20.3549 6.87358C20.0169 6.51894 19.8478 6.06984 19.8478 5.52628C19.8478 5.07552 19.9738 4.68111 20.2257 4.34304C20.4776 4.00497 20.8256 3.74148 21.2697 3.55256C21.7138 3.36032 22.2226 3.2642 22.796 3.2642C23.6213 3.2642 24.2709 3.44318 24.7449 3.80114C25.2188 4.15578 25.532 4.63139 25.6845 5.22798ZM28.9545 6.46591V11H27.468V0.818182H28.9347V4.60653H29.0291C29.2081 4.19555 29.4815 3.86908 29.8494 3.62713C30.2173 3.38518 30.6979 3.2642 31.2912 3.2642C31.8149 3.2642 32.2723 3.37192 32.6634 3.58736C33.0578 3.80279 33.3627 4.12429 33.5781 4.55185C33.7969 4.97609 33.9062 5.50639 33.9062 6.14276V11H32.4197V6.32173C32.4197 5.7616 32.2756 5.32741 31.9872 5.01918C31.6989 4.70762 31.2978 4.55185 30.7841 4.55185C30.4328 4.55185 30.1179 4.62642 29.8395 4.77557C29.5644 4.92472 29.3473 5.14347 29.1882 5.43182C29.0324 5.71686 28.9545 6.06155 28.9545 6.46591ZM40.3892 6.05327V7.34091H35.875V6.05327H40.3892ZM45.587 11.1541C44.8479 11.1541 44.2115 10.9867 43.6779 10.652C43.1476 10.3139 42.7399 9.84825 42.4549 9.25497C42.1699 8.66169 42.0273 7.98224 42.0273 7.21662C42.0273 6.44105 42.1732 5.75663 42.4648 5.16335C42.7565 4.56676 43.1675 4.10109 43.6978 3.76633C44.2281 3.43158 44.8529 3.2642 45.5721 3.2642C46.1521 3.2642 46.6692 3.37192 47.1232 3.58736C47.5773 3.79948 47.9435 4.09777 48.2219 4.48224C48.5037 4.86671 48.671 5.31581 48.7241 5.82955H47.2773C47.1978 5.47159 47.0155 5.16335 46.7305 4.90483C46.4487 4.64631 46.0709 4.51705 45.5969 4.51705C45.1826 4.51705 44.8197 4.62642 44.5082 4.84517C44.1999 5.06061 43.9596 5.36884 43.7873 5.76989C43.6149 6.16761 43.5288 6.63826 43.5288 7.18182C43.5288 7.73864 43.6133 8.21922 43.7823 8.62358C43.9513 9.02794 44.19 9.34115 44.4982 9.56321C44.8098 9.78527 45.176 9.89631 45.5969 9.89631C45.8787 9.89631 46.1339 9.84493 46.3626 9.74219C46.5946 9.63613 46.7885 9.48532 46.9442 9.28977C47.1033 9.09422 47.2144 8.8589 47.2773 8.58381H48.7241C48.671 9.07765 48.5103 9.51847 48.2418 9.90625C47.9734 10.294 47.6138 10.599 47.163 10.821C46.7156 11.0431 46.1902 11.1541 45.587 11.1541ZM50.3137 11V3.36364H51.8002V11H50.3137ZM51.0645 2.18537C50.8059 2.18537 50.5839 2.09919 50.3983 1.92685C50.216 1.75118 50.1248 1.54238 50.1248 1.30043C50.1248 1.05516 50.216 0.846354 50.3983 0.674005C50.5839 0.498342 50.8059 0.410511 51.0645 0.410511C51.323 0.410511 51.5434 0.498342 51.7257 0.674005C51.9113 0.846354 52.0041 1.05516 52.0041 1.30043C52.0041 1.54238 51.9113 1.75118 51.7257 1.92685C51.5434 2.09919 51.323 2.18537 51.0645 2.18537ZM53.8001 11V3.36364H55.2369V4.5767H55.3164C55.4556 4.16572 55.7009 3.84257 56.0522 3.60724C56.4068 3.36861 56.8079 3.24929 57.2553 3.24929C57.3481 3.24929 57.4575 3.2526 57.5835 3.25923C57.7127 3.26586 57.8138 3.27415 57.8867 3.28409V4.70597C57.8271 4.68939 57.721 4.67116 57.5685 4.65128C57.4161 4.62808 57.2636 4.61648 57.1112 4.61648C56.7598 4.61648 56.4466 4.69105 56.1715 4.8402C55.8997 4.98603 55.6843 5.18987 55.5252 5.4517C55.3661 5.71023 55.2866 6.00521 55.2866 6.33665V11H53.8001ZM62.1163 11.1541C61.3772 11.1541 60.7408 10.9867 60.2072 10.652C59.6769 10.3139 59.2692 9.84825 58.9842 9.25497C58.6992 8.66169 58.5566 7.98224 58.5566 7.21662C58.5566 6.44105 58.7025 5.75663 58.9941 5.16335C59.2858 4.56676 59.6968 4.10109 60.2271 3.76633C60.7574 3.43158 61.3822 3.2642 62.1014 3.2642C62.6814 3.2642 63.1984 3.37192 63.6525 3.58736C64.1066 3.79948 64.4728 4.09777 64.7512 4.48224C65.033 4.86671 65.2003 5.31581 65.2534 5.82955H63.8066C63.7271 5.47159 63.5448 5.16335 63.2598 4.90483C62.978 4.64631 62.6002 4.51705 62.1262 4.51705C61.7119 4.51705 61.349 4.62642 61.0375 4.84517C60.7292 5.06061 60.4889 5.36884 60.3166 5.76989C60.1442 6.16761 60.0581 6.63826 60.0581 7.18182C60.0581 7.73864 60.1426 8.21922 60.3116 8.62358C60.4806 9.02794 60.7193 9.34115 61.0275 9.56321C61.3391 9.78527 61.7053 9.89631 62.1262 9.89631C62.408 9.89631 62.6632 9.84493 62.8919 9.74219C63.1239 9.63613 63.3178 9.48532 63.4735 9.28977C63.6326 9.09422 63.7437 8.8589 63.8066 8.58381H65.2534C65.2003 9.07765 65.0396 9.51847 64.7711 9.90625C64.5027 10.294 64.1431 10.599 63.6923 10.821C63.2449 11.0431 62.7195 11.1541 62.1163 11.1541ZM68.3295 0.818182V11H66.843V0.818182H68.3295ZM73.6206 11.1541C72.8682 11.1541 72.2202 10.9934 71.6767 10.6719C71.1364 10.3471 70.7188 9.89134 70.4238 9.30469C70.1322 8.71473 69.9863 8.02367 69.9863 7.23153C69.9863 6.44934 70.1322 5.75994 70.4238 5.16335C70.7188 4.56676 71.1298 4.10109 71.6568 3.76633C72.1871 3.43158 72.8069 3.2642 73.5162 3.2642C73.947 3.2642 74.3646 3.33546 74.769 3.47798C75.1734 3.6205 75.5363 3.84422 75.8578 4.14915C76.1793 4.45407 76.4328 4.85014 76.6184 5.33736C76.804 5.82126 76.8968 6.40956 76.8968 7.10227V7.62926H70.8265V6.51562H75.4402C75.4402 6.12453 75.3606 5.77817 75.2015 5.47656C75.0424 5.17164 74.8187 4.93134 74.5304 4.75568C74.2453 4.58002 73.9106 4.49219 73.5261 4.49219C73.1085 4.49219 72.7439 4.59493 72.4324 4.80043C72.1241 5.0026 71.8855 5.26776 71.7164 5.59588C71.5507 5.92069 71.4679 6.27367 71.4679 6.65483V7.52486C71.4679 8.03527 71.5574 8.46946 71.7363 8.82741C71.9186 9.18537 72.1722 9.45881 72.497 9.64773C72.8218 9.83333 73.2013 9.92614 73.6355 9.92614C73.9172 9.92614 74.1741 9.88636 74.4061 9.80682C74.6381 9.72396 74.8386 9.60133 75.0076 9.43892C75.1767 9.27652 75.3059 9.07599 75.3954 8.83736L76.8024 9.09091C76.6897 9.50521 76.4875 9.86813 76.1958 10.1797C75.9075 10.4879 75.5446 10.7282 75.1071 10.9006C74.6729 11.0696 74.1774 11.1541 73.6206 11.1541ZM83.0455 6.05327V7.34091H78.5312V6.05327H83.0455ZM88.5515 11.169C87.766 11.1657 87.0948 10.9586 86.538 10.5476C85.9812 10.1366 85.5553 9.53835 85.2603 8.75284C84.9653 7.96733 84.8178 7.02107 84.8178 5.91406C84.8178 4.81037 84.9653 3.86742 85.2603 3.08523C85.5586 2.30303 85.9862 1.70644 86.543 1.29545C87.1031 0.884469 87.7726 0.678977 88.5515 0.678977C89.3304 0.678977 89.9982 0.886126 90.555 1.30043C91.1119 1.71141 91.5378 2.308 91.8327 3.0902C92.131 3.86908 92.2802 4.81037 92.2802 5.91406C92.2802 7.02438 92.1327 7.9723 91.8377 8.75781C91.5427 9.54001 91.1168 10.1383 90.56 10.5526C90.0032 10.9635 89.3337 11.169 88.5515 11.169ZM88.5515 9.84162C89.2409 9.84162 89.7795 9.50521 90.1673 8.83239C90.5584 8.15956 90.7539 7.18679 90.7539 5.91406C90.7539 5.06889 90.6644 4.35464 90.4854 3.77131C90.3098 3.18466 90.0562 2.74053 89.7248 2.43892C89.3967 2.134 89.0056 1.98153 88.5515 1.98153C87.8654 1.98153 87.3268 2.3196 86.9357 2.99574C86.5446 3.67187 86.3474 4.64465 86.3441 5.91406C86.3441 6.76255 86.4319 7.48011 86.6076 8.06676C86.7866 8.65009 87.0401 9.09257 87.3683 9.39418C87.6964 9.69247 88.0908 9.84162 88.5515 9.84162ZM94.0439 11V9.88636L97.4892 6.31676C97.8571 5.92898 98.1603 5.58925 98.399 5.29759C98.6409 5.0026 98.8216 4.72254 98.9409 4.45739C99.0602 4.19223 99.1199 3.91051 99.1199 3.61222C99.1199 3.27415 99.0403 2.98248 98.8812 2.73722C98.7221 2.48864 98.505 2.29806 98.2299 2.16548C97.9548 2.02959 97.6449 1.96165 97.3002 1.96165C96.9357 1.96165 96.6175 2.03622 96.3457 2.18537C96.0739 2.33452 95.8651 2.54498 95.7193 2.81676C95.5734 3.08854 95.5005 3.40672 95.5005 3.77131H94.0339C94.0339 3.15151 94.1764 2.60961 94.4615 2.1456C94.7465 1.68158 95.1376 1.32197 95.6348 1.06676C96.1319 0.808238 96.697 0.678977 97.3301 0.678977C97.9698 0.678977 98.5332 0.806581 99.0204 1.06179C99.5109 1.31368 99.8938 1.65838 100.169 2.09588C100.444 2.53007 100.581 3.0206 100.581 3.56747C100.581 3.94531 100.51 4.31487 100.368 4.67614C100.229 5.0374 99.9849 5.4401 99.6369 5.88423C99.2889 6.32505 98.805 6.86032 98.1852 7.49006L96.1618 9.60795V9.68253H100.746V11H94.0439Z" fill="black"/>
</svg>
