<svg viewBox="0 0 103 14" fill="none" stroke-width="2" stroke="currentColor" aria-hidden="true">
  <path d="M-0.000710189 11V3.36364H1.42614V4.60653H1.5206C1.67969 4.18561 1.93987 3.85748 2.30114 3.62216C2.66241 3.38352 3.09493 3.2642 3.59872 3.2642C4.10914 3.2642 4.5367 3.38352 4.88139 3.62216C5.2294 3.8608 5.48627 4.18892 5.65199 4.60653H5.73153C5.91383 4.19886 6.20384 3.87405 6.60156 3.6321C6.99929 3.38684 7.47325 3.2642 8.02344 3.2642C8.71615 3.2642 9.28125 3.4813 9.71875 3.91548C10.1596 4.34967 10.38 5.00426 10.38 5.87926V11H8.89347V6.01847C8.89347 5.50142 8.7526 5.12689 8.47088 4.89489C8.18916 4.66288 7.85275 4.54688 7.46165 4.54688C6.97775 4.54688 6.60156 4.69602 6.3331 4.99432C6.06463 5.2893 5.9304 5.6688 5.9304 6.13281V11H4.44886V5.92401C4.44886 5.50971 4.3196 5.17661 4.06108 4.92472C3.80256 4.67282 3.46615 4.54688 3.05185 4.54688C2.77012 4.54688 2.50994 4.62145 2.27131 4.7706C2.03599 4.91643 1.84541 5.12026 1.69957 5.3821C1.55706 5.64394 1.4858 5.94721 1.4858 6.2919V11H-0.000710189ZM15.6635 11.1541C14.9112 11.1541 14.2632 10.9934 13.7196 10.6719C13.1794 10.3471 12.7618 9.89134 12.4668 9.30469C12.1751 8.71473 12.0293 8.02367 12.0293 7.23153C12.0293 6.44934 12.1751 5.75994 12.4668 5.16335C12.7618 4.56676 13.1728 4.10109 13.6998 3.76633C14.2301 3.43158 14.8498 3.2642 15.5591 3.2642C15.99 3.2642 16.4076 3.33546 16.812 3.47798C17.2163 3.6205 17.5792 3.84422 17.9007 4.14915C18.2222 4.45407 18.4758 4.85014 18.6614 5.33736C18.847 5.82126 18.9398 6.40956 18.9398 7.10227V7.62926H12.8695V6.51562H17.4831C17.4831 6.12453 17.4036 5.77817 17.2445 5.47656C17.0854 5.17164 16.8617 4.93134 16.5733 4.75568C16.2883 4.58002 15.9535 4.49219 15.5691 4.49219C15.1515 4.49219 14.7869 4.59493 14.4753 4.80043C14.1671 5.0026 13.9284 5.26776 13.7594 5.59588C13.5937 5.92069 13.5108 6.27367 13.5108 6.65483V7.52486C13.5108 8.03527 13.6003 8.46946 13.7793 8.82741C13.9616 9.18537 14.2151 9.45881 14.54 9.64773C14.8648 9.83333 15.2443 9.92614 15.6784 9.92614C15.9602 9.92614 16.217 9.88636 16.449 9.80682C16.681 9.72396 16.8816 9.60133 17.0506 9.43892C17.2196 9.27652 17.3489 9.07599 17.4384 8.83736L18.8453 9.09091C18.7327 9.50521 18.5305 9.86813 18.2388 10.1797C17.9505 10.4879 17.5875 10.7282 17.15 10.9006C16.7158 11.0696 16.2203 11.1541 15.6635 11.1541ZM23.4478 11.1491C22.8313 11.1491 22.2811 10.9917 21.7972 10.6768C21.3166 10.3587 20.9388 9.90625 20.6637 9.3196C20.3919 8.72964 20.256 8.02202 20.256 7.19673C20.256 6.37145 20.3936 5.66548 20.6687 5.07884C20.9471 4.49219 21.3282 4.04309 21.8121 3.73153C22.296 3.41998 22.8446 3.2642 23.4577 3.2642C23.9317 3.2642 24.3129 3.34375 24.6012 3.50284C24.8929 3.65862 25.1183 3.84091 25.2773 4.04972C25.4397 4.25852 25.5657 4.44247 25.6552 4.60156H25.7447V0.818182H27.2312V11H25.7795V9.81179H25.6552C25.5657 9.9742 25.4364 10.1598 25.2674 10.3686C25.1017 10.5774 24.873 10.7597 24.5813 10.9155C24.2897 11.0713 23.9118 11.1491 23.4478 11.1491ZM23.7759 9.88139C24.2035 9.88139 24.5647 9.7687 24.8597 9.54332C25.158 9.31463 25.3834 8.99811 25.5359 8.59375C25.6916 8.18939 25.7695 7.71875 25.7695 7.18182C25.7695 6.65151 25.6933 6.1875 25.5408 5.78977C25.3884 5.39205 25.1647 5.08215 24.8697 4.86009C24.5747 4.63802 24.2101 4.52699 23.7759 4.52699C23.3285 4.52699 22.9556 4.64299 22.6573 4.875C22.359 5.10701 22.1336 5.42353 21.9812 5.82457C21.832 6.22562 21.7575 6.67803 21.7575 7.18182C21.7575 7.69223 21.8337 8.15128 21.9862 8.55895C22.1386 8.96662 22.364 9.28977 22.6623 9.52841C22.9639 9.76373 23.3351 9.88139 23.7759 9.88139ZM29.3528 11V3.36364H30.8393V11H29.3528ZM30.1035 2.18537C29.845 2.18537 29.6229 2.09919 29.4373 1.92685C29.255 1.75118 29.1639 1.54238 29.1639 1.30043C29.1639 1.05516 29.255 0.846354 29.4373 0.674005C29.6229 0.498342 29.845 0.410511 30.1035 0.410511C30.362 0.410511 30.5824 0.498342 30.7647 0.674005C30.9503 0.846354 31.0431 1.05516 31.0431 1.30043C31.0431 1.54238 30.9503 1.75118 30.7647 1.92685C30.5824 2.09919 30.362 2.18537 30.1035 2.18537ZM36.0558 11.1541C35.3166 11.1541 34.6803 10.9867 34.1467 10.652C33.6164 10.3139 33.2087 9.84825 32.9237 9.25497C32.6386 8.66169 32.4961 7.98224 32.4961 7.21662C32.4961 6.44105 32.6419 5.75663 32.9336 5.16335C33.2253 4.56676 33.6362 4.10109 34.1665 3.76633C34.6969 3.43158 35.3216 3.2642 36.0408 3.2642C36.6209 3.2642 37.1379 3.37192 37.592 3.58736C38.046 3.79948 38.4123 4.09777 38.6907 4.48224C38.9724 4.86671 39.1398 5.31581 39.1928 5.82955H37.7461C37.6665 5.47159 37.4843 5.16335 37.1992 4.90483C36.9175 4.64631 36.5397 4.51705 36.0657 4.51705C35.6514 4.51705 35.2885 4.62642 34.9769 4.84517C34.6687 5.06061 34.4284 5.36884 34.256 5.76989C34.0837 6.16761 33.9975 6.63826 33.9975 7.18182C33.9975 7.73864 34.082 8.21922 34.2511 8.62358C34.4201 9.02794 34.6587 9.34115 34.967 9.56321C35.2785 9.78527 35.6448 9.89631 36.0657 9.89631C36.3474 9.89631 36.6026 9.84493 36.8313 9.74219C37.0633 9.63613 37.2572 9.48532 37.413 9.28977C37.5721 9.09422 37.6831 8.8589 37.7461 8.58381H39.1928C39.1398 9.07765 38.979 9.51847 38.7106 9.90625C38.4421 10.294 38.0825 10.599 37.6317 10.821C37.1843 11.0431 36.659 11.1541 36.0558 11.1541ZM43.0048 11.169C42.5209 11.169 42.0834 11.0795 41.6923 10.9006C41.3012 10.7183 40.9913 10.4548 40.7626 10.1101C40.5372 9.76539 40.4245 9.3428 40.4245 8.84233C40.4245 8.41146 40.5074 8.05682 40.6731 7.77841C40.8388 7.5 41.0626 7.27959 41.3443 7.11719C41.626 6.95478 41.9409 6.83215 42.2889 6.74929C42.6369 6.66643 42.9915 6.60346 43.3528 6.56037C43.8102 6.50734 44.1814 6.46425 44.4664 6.43111C44.7515 6.39465 44.9586 6.33665 45.0879 6.2571C45.2172 6.17756 45.2818 6.0483 45.2818 5.86932V5.83452C45.2818 5.40033 45.1592 5.06392 44.9139 4.82528C44.6719 4.58665 44.3107 4.46733 43.8301 4.46733C43.3296 4.46733 42.9352 4.57836 42.6468 4.80043C42.3618 5.01918 42.1646 5.26278 42.0552 5.53125L40.6582 5.21307C40.8239 4.74905 41.0659 4.37453 41.3841 4.08949C41.7056 3.80114 42.0751 3.59233 42.4927 3.46307C42.9103 3.33049 43.3495 3.2642 43.8102 3.2642C44.1151 3.2642 44.4383 3.30066 44.7797 3.37358C45.1243 3.44318 45.4458 3.57244 45.7441 3.76136C46.0458 3.95028 46.2927 4.22041 46.4849 4.57173C46.6771 4.91974 46.7733 5.37216 46.7733 5.92898V11H45.3216V9.95597H45.2619C45.1658 10.1482 45.0216 10.3371 44.8294 10.5227C44.6371 10.7083 44.3902 10.8625 44.0886 10.9851C43.787 11.1077 43.4257 11.169 43.0048 11.169ZM43.3279 9.97585C43.7389 9.97585 44.0903 9.89465 44.3819 9.73224C44.6769 9.56984 44.9006 9.35772 45.0531 9.09588C45.2089 8.83073 45.2868 8.54735 45.2868 8.24574V7.26136C45.2337 7.31439 45.131 7.36411 44.9785 7.41051C44.8294 7.4536 44.6587 7.49171 44.4664 7.52486C44.2742 7.55469 44.0869 7.58286 43.9047 7.60938C43.7224 7.63258 43.5699 7.65246 43.4473 7.66903C43.1589 7.70549 42.8954 7.76681 42.6568 7.85298C42.4215 7.93916 42.2325 8.06345 42.09 8.22585C41.9508 8.38494 41.8812 8.59706 41.8812 8.86222C41.8812 9.23011 42.0171 9.50852 42.2889 9.69744C42.5607 9.88305 42.907 9.97585 43.3279 9.97585ZM50.2397 0.818182V11H48.7532V0.818182H50.2397ZM56.7388 6.05327V7.34091H52.2246V6.05327H56.7388ZM64.4423 5.22798L63.095 5.46662C63.0386 5.29427 62.9492 5.13021 62.8265 4.97443C62.7072 4.81865 62.5448 4.69105 62.3393 4.59162C62.1338 4.49219 61.877 4.44247 61.5687 4.44247C61.1478 4.44247 60.7965 4.53693 60.5147 4.72585C60.233 4.91146 60.0922 5.15175 60.0922 5.44673C60.0922 5.70194 60.1866 5.90743 60.3755 6.06321C60.5645 6.21899 60.8694 6.34659 61.2903 6.44602L62.5034 6.72443C63.206 6.88684 63.7297 7.13707 64.0744 7.47514C64.4191 7.81321 64.5914 8.25237 64.5914 8.79261C64.5914 9.25 64.4589 9.65767 64.1937 10.0156C63.9319 10.3703 63.5656 10.6487 63.095 10.8509C62.6277 11.053 62.0858 11.1541 61.4693 11.1541C60.6142 11.1541 59.9165 10.9718 59.3762 10.6072C58.836 10.2393 58.5046 9.71733 58.3819 9.04119L59.8187 8.82244C59.9082 9.19697 60.0922 9.48035 60.3706 9.67259C60.649 9.86151 61.0119 9.95597 61.4593 9.95597C61.9466 9.95597 62.336 9.85488 62.6277 9.6527C62.9193 9.44721 63.0652 9.19697 63.0652 8.90199C63.0652 8.66335 62.9757 8.46283 62.7967 8.30043C62.621 8.13802 62.3509 8.01539 61.9863 7.93253L60.6937 7.64915C59.9811 7.48674 59.4541 7.22822 59.1127 6.87358C58.7747 6.51894 58.6056 6.06984 58.6056 5.52628C58.6056 5.07552 58.7316 4.68111 58.9835 4.34304C59.2354 4.00497 59.5834 3.74148 60.0275 3.55256C60.4717 3.36032 60.9804 3.2642 61.5538 3.2642C62.3791 3.2642 63.0287 3.44318 63.5027 3.80114C63.9766 4.15578 64.2898 4.63139 64.4423 5.22798ZM71.3814 13.8636V9.81179H71.2919C71.2024 9.9742 71.0732 10.1598 70.9041 10.3686C70.7384 10.5774 70.5097 10.7597 70.218 10.9155C69.9264 11.0713 69.5485 11.1491 69.0845 11.1491C68.468 11.1491 67.9179 10.9917 67.4339 10.6768C66.9534 10.3587 66.5755 9.90625 66.3004 9.3196C66.0286 8.72964 65.8928 8.02202 65.8928 7.19673C65.8928 6.37145 66.0303 5.66548 66.3054 5.07884C66.5838 4.49219 66.965 4.04309 67.4489 3.73153C67.9328 3.41998 68.4813 3.2642 69.0945 3.2642C69.5684 3.2642 69.9496 3.34375 70.2379 3.50284C70.5296 3.65862 70.755 3.84091 70.9141 4.04972C71.0765 4.25852 71.2024 4.44247 71.2919 4.60156H71.4162V3.36364H72.8679V13.8636H71.3814ZM69.4126 9.88139C69.8402 9.88139 70.2015 9.7687 70.4964 9.54332C70.7947 9.31463 71.0201 8.99811 71.1726 8.59375C71.3284 8.18939 71.4062 7.71875 71.4062 7.18182C71.4062 6.65151 71.33 6.1875 71.1776 5.78977C71.0251 5.39205 70.8014 5.08215 70.5064 4.86009C70.2114 4.63802 69.8468 4.52699 69.4126 4.52699C68.9652 4.52699 68.5923 4.64299 68.294 4.875C67.9957 5.10701 67.7704 5.42353 67.6179 5.82457C67.4688 6.22562 67.3942 6.67803 67.3942 7.18182C67.3942 7.69223 67.4704 8.15128 67.6229 8.55895C67.7753 8.96662 68.0007 9.28977 68.299 9.52841C68.6006 9.76373 68.9718 9.88139 69.4126 9.88139ZM79.7038 7.8331V3.36364H81.1953V11H79.7337V9.67756H79.6541C79.4785 10.0852 79.1967 10.425 78.8089 10.6967C78.4245 10.9652 77.9455 11.0994 77.3722 11.0994C76.8816 11.0994 76.4474 10.9917 76.0696 10.7763C75.6951 10.5575 75.4001 10.2344 75.1847 9.80682C74.9725 9.37926 74.8665 8.85062 74.8665 8.22088V3.36364H76.353V8.0419C76.353 8.56226 76.4972 8.97656 76.7855 9.2848C77.0739 9.59304 77.4484 9.74716 77.9091 9.74716C78.1875 9.74716 78.4643 9.67756 78.7393 9.53835C79.0178 9.39915 79.2481 9.18868 79.4304 8.90696C79.616 8.62524 79.7071 8.26728 79.7038 7.8331ZM85.415 11.169C84.931 11.169 84.4935 11.0795 84.1025 10.9006C83.7114 10.7183 83.4015 10.4548 83.1728 10.1101C82.9474 9.76539 82.8347 9.3428 82.8347 8.84233C82.8347 8.41146 82.9176 8.05682 83.0833 7.77841C83.249 7.5 83.4727 7.27959 83.7544 7.11719C84.0362 6.95478 84.351 6.83215 84.699 6.74929C85.0471 6.66643 85.4017 6.60346 85.763 6.56037C86.2203 6.50734 86.5916 6.46425 86.8766 6.43111C87.1616 6.39465 87.3688 6.33665 87.498 6.2571C87.6273 6.17756 87.6919 6.0483 87.6919 5.86932V5.83452C87.6919 5.40033 87.5693 5.06392 87.324 4.82528C87.0821 4.58665 86.7208 4.46733 86.2402 4.46733C85.7398 4.46733 85.3453 4.57836 85.057 4.80043C84.772 5.01918 84.5748 5.26278 84.4654 5.53125L83.0684 5.21307C83.2341 4.74905 83.476 4.37453 83.7942 4.08949C84.1157 3.80114 84.4853 3.59233 84.9029 3.46307C85.3205 3.33049 85.7596 3.2642 86.2203 3.2642C86.5253 3.2642 86.8484 3.30066 87.1898 3.37358C87.5345 3.44318 87.856 3.57244 88.1543 3.76136C88.4559 3.95028 88.7028 4.22041 88.8951 4.57173C89.0873 4.91974 89.1834 5.37216 89.1834 5.92898V11H87.7317V9.95597H87.6721C87.5759 10.1482 87.4318 10.3371 87.2395 10.5227C87.0473 10.7083 86.8004 10.8625 86.4988 10.9851C86.1971 11.1077 85.8359 11.169 85.415 11.169ZM85.7381 9.97585C86.1491 9.97585 86.5004 9.89465 86.7921 9.73224C87.0871 9.56984 87.3108 9.35772 87.4632 9.09588C87.619 8.83073 87.6969 8.54735 87.6969 8.24574V7.26136C87.6439 7.31439 87.5411 7.36411 87.3887 7.41051C87.2395 7.4536 87.0688 7.49171 86.8766 7.52486C86.6844 7.55469 86.4971 7.58286 86.3148 7.60938C86.1325 7.63258 85.9801 7.65246 85.8574 7.66903C85.5691 7.70549 85.3056 7.76681 85.0669 7.85298C84.8316 7.93916 84.6427 8.06345 84.5002 8.22585C84.361 8.38494 84.2914 8.59706 84.2914 8.86222C84.2914 9.23011 84.4273 9.50852 84.699 9.69744C84.9708 9.88305 85.3172 9.97585 85.7381 9.97585ZM91.1634 11V3.36364H92.6001V4.5767H92.6797C92.8189 4.16572 93.0642 3.84257 93.4155 3.60724C93.7701 3.36861 94.1712 3.24929 94.6186 3.24929C94.7114 3.24929 94.8208 3.2526 94.9467 3.25923C95.076 3.26586 95.1771 3.27415 95.25 3.28409V4.70597C95.1903 4.68939 95.0843 4.67116 94.9318 4.65128C94.7794 4.62808 94.6269 4.61648 94.4744 4.61648C94.1231 4.61648 93.8099 4.69105 93.5348 4.8402C93.263 4.98603 93.0476 5.18987 92.8885 5.4517C92.7294 5.71023 92.6499 6.00521 92.6499 6.33665V11H91.1634ZM99.5542 11.1541C98.8018 11.1541 98.1538 10.9934 97.6103 10.6719C97.07 10.3471 96.6524 9.89134 96.3574 9.30469C96.0658 8.71473 95.9199 8.02367 95.9199 7.23153C95.9199 6.44934 96.0658 5.75994 96.3574 5.16335C96.6524 4.56676 97.0634 4.10109 97.5904 3.76633C98.1207 3.43158 98.7405 3.2642 99.4498 3.2642C99.8806 3.2642 100.298 3.33546 100.703 3.47798C101.107 3.6205 101.47 3.84422 101.791 4.14915C102.113 4.45407 102.366 4.85014 102.552 5.33736C102.738 5.82126 102.83 6.40956 102.83 7.10227V7.62926H96.7601V6.51562H101.374C101.374 6.12453 101.294 5.77817 101.135 5.47656C100.976 5.17164 100.752 4.93134 100.464 4.75568C100.179 4.58002 99.8442 4.49219 99.4597 4.49219C99.0421 4.49219 98.6775 4.59493 98.3659 4.80043C98.0577 5.0026 97.8191 5.26776 97.65 5.59588C97.4843 5.92069 97.4015 6.27367 97.4015 6.65483V7.52486C97.4015 8.03527 97.4909 8.46946 97.6699 8.82741C97.8522 9.18537 98.1058 9.45881 98.4306 9.64773C98.7554 9.83333 99.1349 9.92614 99.5691 9.92614C99.8508 9.92614 100.108 9.88636 100.34 9.80682C100.572 9.72396 100.772 9.60133 100.941 9.43892C101.11 9.27652 101.24 9.07599 101.329 8.83736L102.736 9.09091C102.623 9.50521 102.421 9.86813 102.129 10.1797C101.841 10.4879 101.478 10.7282 101.041 10.9006C100.606 11.0696 100.111 11.1541 99.5542 11.1541Z" fill="black"/>
</svg>
