<svg viewBox="0 0 105 15" fill="none" stroke-width="2" stroke="currentColor" aria-hidden="true">
  <path d="M4.56392 3.36364V4.55682H0.392756V3.36364H4.56392ZM1.51136 1.53409H2.99787V8.75781C2.99787 9.04616 3.04096 9.26326 3.12713 9.40909C3.21331 9.55161 3.32434 9.64938 3.46023 9.70241C3.59943 9.75213 3.75024 9.77699 3.91264 9.77699C4.03196 9.77699 4.13636 9.7687 4.22585 9.75213C4.31534 9.73556 4.38494 9.7223 4.43466 9.71236L4.70312 10.9403C4.61695 10.9735 4.49432 11.0066 4.33523 11.0398C4.17614 11.0762 3.97727 11.0961 3.73864 11.0994C3.34754 11.1061 2.98295 11.0365 2.64489 10.8906C2.30682 10.7448 2.03338 10.5194 1.82457 10.2145C1.61577 9.90956 1.51136 9.52675 1.51136 9.06605V1.53409ZM9.34286 11.1541C8.62695 11.1541 8.00219 10.9901 7.46857 10.6619C6.93496 10.3338 6.52066 9.87476 6.22567 9.2848C5.93069 8.69484 5.7832 8.00544 5.7832 7.21662C5.7832 6.42448 5.93069 5.73177 6.22567 5.13849C6.52066 4.54522 6.93496 4.08452 7.46857 3.75639C8.00219 3.42827 8.62695 3.2642 9.34286 3.2642C10.0588 3.2642 10.6835 3.42827 11.2172 3.75639C11.7508 4.08452 12.1651 4.54522 12.46 5.13849C12.755 5.73177 12.9025 6.42448 12.9025 7.21662C12.9025 8.00544 12.755 8.69484 12.46 9.2848C12.1651 9.87476 11.7508 10.3338 11.2172 10.6619C10.6835 10.9901 10.0588 11.1541 9.34286 11.1541ZM9.34783 9.90625C9.81185 9.90625 10.1963 9.78362 10.5012 9.53835C10.8062 9.29309 11.0315 8.96662 11.1774 8.55895C11.3265 8.15128 11.4011 7.70218 11.4011 7.21165C11.4011 6.72443 11.3265 6.27699 11.1774 5.86932C11.0315 5.45833 10.8062 5.12855 10.5012 4.87997C10.1963 4.63139 9.81185 4.5071 9.34783 4.5071C8.8805 4.5071 8.49272 4.63139 8.18448 4.87997C7.87956 5.12855 7.65252 5.45833 7.50337 5.86932C7.35754 6.27699 7.28462 6.72443 7.28462 7.21165C7.28462 7.70218 7.35754 8.15128 7.50337 8.55895C7.65252 8.96662 7.87956 9.29309 8.18448 9.53835C8.49272 9.78362 8.8805 9.90625 9.34783 9.90625ZM17.7635 14.0227C17.157 14.0227 16.6349 13.9432 16.1974 13.7841C15.7633 13.625 15.4086 13.4145 15.1335 13.1527C14.8584 12.8909 14.6529 12.6042 14.517 12.2926L15.7947 11.7656C15.8842 11.9115 16.0036 12.0656 16.1527 12.228C16.3052 12.3937 16.5107 12.5346 16.7692 12.6506C17.031 12.7666 17.3674 12.8246 17.7784 12.8246C18.3419 12.8246 18.8075 12.687 19.1754 12.4119C19.5433 12.1402 19.7273 11.706 19.7273 11.1094V9.60795H19.6328C19.5433 9.77036 19.4141 9.95099 19.245 10.1499C19.0793 10.3487 18.8506 10.5211 18.5589 10.6669C18.2673 10.8127 17.8878 10.8857 17.4205 10.8857C16.8172 10.8857 16.2737 10.7448 15.7898 10.4631C15.3092 10.178 14.928 9.75876 14.6463 9.20526C14.3679 8.64844 14.2287 7.96401 14.2287 7.15199C14.2287 6.33996 14.3662 5.64394 14.6413 5.06392C14.9197 4.4839 15.3009 4.03977 15.7848 3.73153C16.2687 3.41998 16.8172 3.2642 17.4304 3.2642C17.9044 3.2642 18.2872 3.34375 18.5788 3.50284C18.8705 3.65862 19.0975 3.84091 19.2599 4.04972C19.4257 4.25852 19.5533 4.44247 19.6428 4.60156H19.7521V3.36364H21.2088V11.169C21.2088 11.8253 21.0563 12.3639 20.7514 12.7848C20.4465 13.2057 20.0339 13.5173 19.5135 13.7195C18.9964 13.9216 18.4131 14.0227 17.7635 14.0227ZM17.7486 9.6527C18.1761 9.6527 18.5374 9.55327 18.8324 9.3544C19.1307 9.15223 19.3561 8.86387 19.5085 8.48935C19.6643 8.11151 19.7422 7.65909 19.7422 7.1321C19.7422 6.61837 19.666 6.16596 19.5135 5.77486C19.361 5.38376 19.1373 5.07884 18.8423 4.86009C18.5473 4.63802 18.1828 4.52699 17.7486 4.52699C17.3011 4.52699 16.9283 4.64299 16.63 4.875C16.3317 5.10369 16.1063 5.41525 15.9538 5.80966C15.8047 6.20407 15.7301 6.64489 15.7301 7.1321C15.7301 7.63258 15.8063 8.07173 15.9588 8.44957C16.1113 8.82741 16.3366 9.1224 16.6349 9.33452C16.9366 9.54664 17.3078 9.6527 17.7486 9.6527ZM26.4041 14.0227C25.7976 14.0227 25.2756 13.9432 24.8381 13.7841C24.4039 13.625 24.0492 13.4145 23.7741 13.1527C23.4991 12.8909 23.2936 12.6042 23.1577 12.2926L24.4354 11.7656C24.5249 11.9115 24.6442 12.0656 24.7933 12.228C24.9458 12.3937 25.1513 12.5346 25.4098 12.6506C25.6716 12.7666 26.008 12.8246 26.419 12.8246C26.9825 12.8246 27.4482 12.687 27.8161 12.4119C28.1839 12.1402 28.3679 11.706 28.3679 11.1094V9.60795H28.2734C28.1839 9.77036 28.0547 9.95099 27.8857 10.1499C27.7199 10.3487 27.4912 10.5211 27.1996 10.6669C26.9079 10.8127 26.5284 10.8857 26.0611 10.8857C25.4579 10.8857 24.9143 10.7448 24.4304 10.4631C23.9498 10.178 23.5687 9.75876 23.2869 9.20526C23.0085 8.64844 22.8693 7.96401 22.8693 7.15199C22.8693 6.33996 23.0069 5.64394 23.282 5.06392C23.5604 4.4839 23.9415 4.03977 24.4254 3.73153C24.9093 3.41998 25.4579 3.2642 26.071 3.2642C26.545 3.2642 26.9278 3.34375 27.2195 3.50284C27.5111 3.65862 27.7382 3.84091 27.9006 4.04972C28.0663 4.25852 28.1939 4.44247 28.2834 4.60156H28.3928V3.36364H29.8494V11.169C29.8494 11.8253 29.697 12.3639 29.392 12.7848C29.0871 13.2057 28.6745 13.5173 28.1541 13.7195C27.6371 13.9216 27.0537 14.0227 26.4041 14.0227ZM26.3892 9.6527C26.8168 9.6527 27.178 9.55327 27.473 9.3544C27.7713 9.15223 27.9967 8.86387 28.1491 8.48935C28.3049 8.11151 28.3828 7.65909 28.3828 7.1321C28.3828 6.61837 28.3066 6.16596 28.1541 5.77486C28.0017 5.38376 27.7779 5.07884 27.483 4.86009C27.188 4.63802 26.8234 4.52699 26.3892 4.52699C25.9418 4.52699 25.5689 4.64299 25.2706 4.875C24.9723 5.10369 24.7469 5.41525 24.5945 5.80966C24.4453 6.20407 24.3707 6.64489 24.3707 7.1321C24.3707 7.63258 24.447 8.07173 24.5994 8.44957C24.7519 8.82741 24.9773 9.1224 25.2756 9.33452C25.5772 9.54664 25.9484 9.6527 26.3892 9.6527ZM33.3295 0.818182V11H31.843V0.818182H33.3295ZM38.6206 11.1541C37.8682 11.1541 37.2202 10.9934 36.6767 10.6719C36.1364 10.3471 35.7188 9.89134 35.4238 9.30469C35.1322 8.71473 34.9863 8.02367 34.9863 7.23153C34.9863 6.44934 35.1322 5.75994 35.4238 5.16335C35.7188 4.56676 36.1298 4.10109 36.6568 3.76633C37.1871 3.43158 37.8069 3.2642 38.5162 3.2642C38.947 3.2642 39.3646 3.33546 39.769 3.47798C40.1734 3.6205 40.5363 3.84422 40.8578 4.14915C41.1793 4.45407 41.4328 4.85014 41.6184 5.33736C41.804 5.82126 41.8968 6.40956 41.8968 7.10227V7.62926H35.8265V6.51562H40.4402C40.4402 6.12453 40.3606 5.77817 40.2015 5.47656C40.0424 5.17164 39.8187 4.93134 39.5304 4.75568C39.2453 4.58002 38.9106 4.49219 38.5261 4.49219C38.1085 4.49219 37.7439 4.59493 37.4324 4.80043C37.1241 5.0026 36.8855 5.26776 36.7164 5.59588C36.5507 5.92069 36.4679 6.27367 36.4679 6.65483V7.52486C36.4679 8.03527 36.5574 8.46946 36.7363 8.82741C36.9186 9.18537 37.1722 9.45881 37.497 9.64773C37.8218 9.83333 38.2013 9.92614 38.6355 9.92614C38.9172 9.92614 39.1741 9.88636 39.4061 9.80682C39.6381 9.72396 39.8386 9.60133 40.0076 9.43892C40.1767 9.27652 40.3059 9.07599 40.3954 8.83736L41.8024 9.09091C41.6897 9.50521 41.4875 9.86813 41.1958 10.1797C40.9075 10.4879 40.5446 10.7282 40.1071 10.9006C39.6729 11.0696 39.1774 11.1541 38.6206 11.1541ZM48.0455 6.05327V7.34091H43.5312V6.05327H48.0455ZM53.5515 11.169C52.766 11.1657 52.0948 10.9586 51.538 10.5476C50.9812 10.1366 50.5553 9.53835 50.2603 8.75284C49.9653 7.96733 49.8178 7.02107 49.8178 5.91406C49.8178 4.81037 49.9653 3.86742 50.2603 3.08523C50.5586 2.30303 50.9862 1.70644 51.543 1.29545C52.1031 0.884469 52.7726 0.678977 53.5515 0.678977C54.3304 0.678977 54.9982 0.886126 55.555 1.30043C56.1119 1.71141 56.5378 2.308 56.8327 3.0902C57.131 3.86908 57.2802 4.81037 57.2802 5.91406C57.2802 7.02438 57.1327 7.9723 56.8377 8.75781C56.5427 9.54001 56.1168 10.1383 55.56 10.5526C55.0032 10.9635 54.3337 11.169 53.5515 11.169ZM53.5515 9.84162C54.2409 9.84162 54.7795 9.50521 55.1673 8.83239C55.5584 8.15956 55.7539 7.18679 55.7539 5.91406C55.7539 5.06889 55.6644 4.35464 55.4854 3.77131C55.3098 3.18466 55.0562 2.74053 54.7248 2.43892C54.3967 2.134 54.0056 1.98153 53.5515 1.98153C52.8654 1.98153 52.3268 2.3196 51.9357 2.99574C51.5446 3.67187 51.3474 4.64465 51.3441 5.91406C51.3441 6.76255 51.4319 7.48011 51.6076 8.06676C51.7866 8.65009 52.0401 9.09257 52.3683 9.39418C52.6964 9.69247 53.0908 9.84162 53.5515 9.84162ZM62.5886 11.1392C61.9058 11.1392 61.296 11.0215 60.7591 10.7862C60.2254 10.5509 59.8029 10.2244 59.4913 9.80682C59.1831 9.38589 59.0173 8.89867 58.9941 8.34517H60.5552C60.5751 8.64678 60.6762 8.90862 60.8585 9.13068C61.0441 9.34943 61.286 9.51847 61.5843 9.63778C61.8826 9.7571 62.2141 9.81676 62.5787 9.81676C62.9797 9.81676 63.3343 9.74716 63.6426 9.60795C63.9541 9.46875 64.1977 9.27486 64.3734 9.02628C64.5491 8.77438 64.6369 8.48438 64.6369 8.15625C64.6369 7.81487 64.5491 7.51491 64.3734 7.25639C64.2011 6.99455 63.9475 6.78906 63.6127 6.63991C63.2813 6.49077 62.8803 6.41619 62.4096 6.41619H61.5495V5.16335H62.4096C62.7875 5.16335 63.1189 5.09541 63.4039 4.95952C63.6923 4.82363 63.9177 4.63471 64.0801 4.39276C64.2425 4.14749 64.3237 3.8608 64.3237 3.53267C64.3237 3.2178 64.2524 2.94437 64.1099 2.71236C63.9707 2.47704 63.7718 2.29309 63.5133 2.16051C63.2581 2.02794 62.9565 1.96165 62.6085 1.96165C62.277 1.96165 61.9672 2.02296 61.6788 2.1456C61.3938 2.26491 61.1618 2.43726 60.9828 2.66264C60.8038 2.88471 60.7077 3.15151 60.6944 3.46307H59.2079C59.2245 2.91288 59.3869 2.42898 59.6951 2.01136C60.0067 1.59375 60.4177 1.26728 60.9281 1.03196C61.4385 0.796638 62.0053 0.678977 62.6284 0.678977C63.2813 0.678977 63.8448 0.806581 64.3187 1.06179C64.796 1.31368 65.1639 1.65009 65.4224 2.07102C65.6842 2.49195 65.8135 2.95265 65.8102 3.45312C65.8135 4.0232 65.6544 4.5071 65.3329 4.90483C65.0147 5.30256 64.5905 5.56937 64.0602 5.70526V5.7848C64.7363 5.88755 65.26 6.15601 65.6312 6.5902C66.0057 7.02438 66.1913 7.56297 66.188 8.20597C66.1913 8.7661 66.0356 9.26823 65.7207 9.71236C65.4092 10.1565 64.9833 10.5062 64.443 10.7614C63.9028 11.0133 63.2846 11.1392 62.5886 11.1392ZM72.5865 6.05327V7.34091H68.0723V6.05327H72.5865ZM74.5676 11V3.36364H76.0044V4.5767H76.084C76.2232 4.16572 76.4685 3.84257 76.8198 3.60724C77.1744 3.36861 77.5755 3.24929 78.0229 3.24929C78.1157 3.24929 78.2251 3.2526 78.351 3.25923C78.4803 3.26586 78.5814 3.27415 78.6543 3.28409V4.70597C78.5946 4.68939 78.4886 4.67116 78.3361 4.65128C78.1837 4.62808 78.0312 4.61648 77.8787 4.61648C77.5274 4.61648 77.2142 4.69105 76.9391 4.8402C76.6673 4.98603 76.4519 5.18987 76.2928 5.4517C76.1337 5.71023 76.0542 6.00521 76.0542 6.33665V11H74.5676ZM79.9407 11V3.36364H81.4272V11H79.9407ZM80.6914 2.18537C80.4329 2.18537 80.2108 2.09919 80.0252 1.92685C79.8429 1.75118 79.7518 1.54238 79.7518 1.30043C79.7518 1.05516 79.8429 0.846354 80.0252 0.674005C80.2108 0.498342 80.4329 0.410511 80.6914 0.410511C80.9499 0.410511 81.1703 0.498342 81.3526 0.674005C81.5382 0.846354 81.631 1.05516 81.631 1.30043C81.631 1.54238 81.5382 1.75118 81.3526 1.92685C81.1703 2.09919 80.9499 2.18537 80.6914 2.18537ZM86.6287 14.0227C86.0222 14.0227 85.5002 13.9432 85.0627 13.7841C84.6285 13.625 84.2739 13.4145 83.9988 13.1527C83.7237 12.8909 83.5182 12.6042 83.3823 12.2926L84.66 11.7656C84.7495 11.9115 84.8688 12.0656 85.0179 12.228C85.1704 12.3937 85.3759 12.5346 85.6344 12.6506C85.8962 12.7666 86.2327 12.8246 86.6436 12.8246C87.2071 12.8246 87.6728 12.687 88.0407 12.4119C88.4086 12.1402 88.5925 11.706 88.5925 11.1094V9.60795H88.498C88.4086 9.77036 88.2793 9.95099 88.1103 10.1499C87.9445 10.3487 87.7159 10.5211 87.4242 10.6669C87.1325 10.8127 86.753 10.8857 86.2857 10.8857C85.6825 10.8857 85.1389 10.7448 84.655 10.4631C84.1744 10.178 83.7933 9.75876 83.5115 9.20526C83.2331 8.64844 83.0939 7.96401 83.0939 7.15199C83.0939 6.33996 83.2315 5.64394 83.5066 5.06392C83.785 4.4839 84.1661 4.03977 84.65 3.73153C85.1339 3.41998 85.6825 3.2642 86.2956 3.2642C86.7696 3.2642 87.1524 3.34375 87.4441 3.50284C87.7357 3.65862 87.9628 3.84091 88.1252 4.04972C88.2909 4.25852 88.4185 4.44247 88.508 4.60156H88.6174V3.36364H90.074V11.169C90.074 11.8253 89.9216 12.3639 89.6167 12.7848C89.3117 13.2057 88.8991 13.5173 88.3787 13.7195C87.8617 13.9216 87.2784 14.0227 86.6287 14.0227ZM86.6138 9.6527C87.0414 9.6527 87.4026 9.55327 87.6976 9.3544C87.9959 9.15223 88.2213 8.86387 88.3738 8.48935C88.5295 8.11151 88.6074 7.65909 88.6074 7.1321C88.6074 6.61837 88.5312 6.16596 88.3787 5.77486C88.2263 5.38376 88.0025 5.07884 87.7076 4.86009C87.4126 4.63802 87.048 4.52699 86.6138 4.52699C86.1664 4.52699 85.7935 4.64299 85.4952 4.875C85.1969 5.10369 84.9715 5.41525 84.8191 5.80966C84.6699 6.20407 84.5953 6.64489 84.5953 7.1321C84.5953 7.63258 84.6716 8.07173 84.824 8.44957C84.9765 8.82741 85.2019 9.1224 85.5002 9.33452C85.8018 9.54664 86.173 9.6527 86.6138 9.6527ZM93.5542 6.46591V11H92.0676V0.818182H93.5343V4.60653H93.6287C93.8077 4.19555 94.0811 3.86908 94.449 3.62713C94.8169 3.38518 95.2975 3.2642 95.8908 3.2642C96.4145 3.2642 96.8719 3.37192 97.263 3.58736C97.6574 3.80279 97.9623 4.12429 98.1777 4.55185C98.3965 4.97609 98.5059 5.50639 98.5059 6.14276V11H97.0194V6.32173C97.0194 5.7616 96.8752 5.32741 96.5868 5.01918C96.2985 4.70762 95.8974 4.55185 95.3837 4.55185C95.0324 4.55185 94.7175 4.62642 94.4391 4.77557C94.164 4.92472 93.9469 5.14347 93.7878 5.43182C93.632 5.71686 93.5542 6.06155 93.5542 6.46591ZM104.054 3.36364V4.55682H99.883V3.36364H104.054ZM101.002 1.53409H102.488V8.75781C102.488 9.04616 102.531 9.26326 102.617 9.40909C102.704 9.55161 102.815 9.64938 102.95 9.70241C103.09 9.75213 103.24 9.77699 103.403 9.77699C103.522 9.77699 103.627 9.7687 103.716 9.75213C103.806 9.73556 103.875 9.7223 103.925 9.71236L104.193 10.9403C104.107 10.9735 103.985 11.0066 103.825 11.0398C103.666 11.0762 103.468 11.0961 103.229 11.0994C102.838 11.1061 102.473 11.0365 102.135 10.8906C101.797 10.7448 101.524 10.5194 101.315 10.2145C101.106 9.90956 101.002 9.52675 101.002 9.06605V1.53409Z" fill="black"/>
</svg>
