<svg viewBox="0 0 94 12" fill="none" stroke-width="2" stroke="currentColor" aria-hidden="true">
  <path d="M-0.000710189 11V3.36364H1.42614V4.60653H1.5206C1.67969 4.18561 1.93987 3.85748 2.30114 3.62216C2.66241 3.38352 3.09493 3.2642 3.59872 3.2642C4.10914 3.2642 4.5367 3.38352 4.88139 3.62216C5.2294 3.8608 5.48627 4.18892 5.65199 4.60653H5.73153C5.91383 4.19886 6.20384 3.87405 6.60156 3.6321C6.99929 3.38684 7.47325 3.2642 8.02344 3.2642C8.71615 3.2642 9.28125 3.4813 9.71875 3.91548C10.1596 4.34967 10.38 5.00426 10.38 5.87926V11H8.89347V6.01847C8.89347 5.50142 8.7526 5.12689 8.47088 4.89489C8.18916 4.66288 7.85275 4.54688 7.46165 4.54688C6.97775 4.54688 6.60156 4.69602 6.3331 4.99432C6.06463 5.2893 5.9304 5.6688 5.9304 6.13281V11H4.44886V5.92401C4.44886 5.50971 4.3196 5.17661 4.06108 4.92472C3.80256 4.67282 3.46615 4.54688 3.05185 4.54688C2.77012 4.54688 2.50994 4.62145 2.27131 4.7706C2.03599 4.91643 1.84541 5.12026 1.69957 5.3821C1.55706 5.64394 1.4858 5.94721 1.4858 6.2919V11H-0.000710189ZM15.6635 11.1541C14.9112 11.1541 14.2632 10.9934 13.7196 10.6719C13.1794 10.3471 12.7618 9.89134 12.4668 9.30469C12.1751 8.71473 12.0293 8.02367 12.0293 7.23153C12.0293 6.44934 12.1751 5.75994 12.4668 5.16335C12.7618 4.56676 13.1728 4.10109 13.6998 3.76633C14.2301 3.43158 14.8498 3.2642 15.5591 3.2642C15.99 3.2642 16.4076 3.33546 16.812 3.47798C17.2163 3.6205 17.5792 3.84422 17.9007 4.14915C18.2222 4.45407 18.4758 4.85014 18.6614 5.33736C18.847 5.82126 18.9398 6.40956 18.9398 7.10227V7.62926H12.8695V6.51562H17.4831C17.4831 6.12453 17.4036 5.77817 17.2445 5.47656C17.0854 5.17164 16.8617 4.93134 16.5733 4.75568C16.2883 4.58002 15.9535 4.49219 15.5691 4.49219C15.1515 4.49219 14.7869 4.59493 14.4753 4.80043C14.1671 5.0026 13.9284 5.26776 13.7594 5.59588C13.5937 5.92069 13.5108 6.27367 13.5108 6.65483V7.52486C13.5108 8.03527 13.6003 8.46946 13.7793 8.82741C13.9616 9.18537 14.2151 9.45881 14.54 9.64773C14.8648 9.83333 15.2443 9.92614 15.6784 9.92614C15.9602 9.92614 16.217 9.88636 16.449 9.80682C16.681 9.72396 16.8816 9.60133 17.0506 9.43892C17.2196 9.27652 17.3489 9.07599 17.4384 8.83736L18.8453 9.09091C18.7327 9.50521 18.5305 9.86813 18.2388 10.1797C17.9505 10.4879 17.5875 10.7282 17.15 10.9006C16.7158 11.0696 16.2203 11.1541 15.6635 11.1541ZM23.4478 11.1491C22.8313 11.1491 22.2811 10.9917 21.7972 10.6768C21.3166 10.3587 20.9388 9.90625 20.6637 9.3196C20.3919 8.72964 20.256 8.02202 20.256 7.19673C20.256 6.37145 20.3936 5.66548 20.6687 5.07884C20.9471 4.49219 21.3282 4.04309 21.8121 3.73153C22.296 3.41998 22.8446 3.2642 23.4577 3.2642C23.9317 3.2642 24.3129 3.34375 24.6012 3.50284C24.8929 3.65862 25.1183 3.84091 25.2773 4.04972C25.4397 4.25852 25.5657 4.44247 25.6552 4.60156H25.7447V0.818182H27.2312V11H25.7795V9.81179H25.6552C25.5657 9.9742 25.4364 10.1598 25.2674 10.3686C25.1017 10.5774 24.873 10.7597 24.5813 10.9155C24.2897 11.0713 23.9118 11.1491 23.4478 11.1491ZM23.7759 9.88139C24.2035 9.88139 24.5647 9.7687 24.8597 9.54332C25.158 9.31463 25.3834 8.99811 25.5359 8.59375C25.6916 8.18939 25.7695 7.71875 25.7695 7.18182C25.7695 6.65151 25.6933 6.1875 25.5408 5.78977C25.3884 5.39205 25.1647 5.08215 24.8697 4.86009C24.5747 4.63802 24.2101 4.52699 23.7759 4.52699C23.3285 4.52699 22.9556 4.64299 22.6573 4.875C22.359 5.10701 22.1336 5.42353 21.9812 5.82457C21.832 6.22562 21.7575 6.67803 21.7575 7.18182C21.7575 7.69223 21.8337 8.15128 21.9862 8.55895C22.1386 8.96662 22.364 9.28977 22.6623 9.52841C22.9639 9.76373 23.3351 9.88139 23.7759 9.88139ZM29.3528 11V3.36364H30.8393V11H29.3528ZM30.1035 2.18537C29.845 2.18537 29.6229 2.09919 29.4373 1.92685C29.255 1.75118 29.1639 1.54238 29.1639 1.30043C29.1639 1.05516 29.255 0.846354 29.4373 0.674005C29.6229 0.498342 29.845 0.410511 30.1035 0.410511C30.362 0.410511 30.5824 0.498342 30.7647 0.674005C30.9503 0.846354 31.0431 1.05516 31.0431 1.30043C31.0431 1.54238 30.9503 1.75118 30.7647 1.92685C30.5824 2.09919 30.362 2.18537 30.1035 2.18537ZM36.0558 11.1541C35.3166 11.1541 34.6803 10.9867 34.1467 10.652C33.6164 10.3139 33.2087 9.84825 32.9237 9.25497C32.6386 8.66169 32.4961 7.98224 32.4961 7.21662C32.4961 6.44105 32.6419 5.75663 32.9336 5.16335C33.2253 4.56676 33.6362 4.10109 34.1665 3.76633C34.6969 3.43158 35.3216 3.2642 36.0408 3.2642C36.6209 3.2642 37.1379 3.37192 37.592 3.58736C38.046 3.79948 38.4123 4.09777 38.6907 4.48224C38.9724 4.86671 39.1398 5.31581 39.1928 5.82955H37.7461C37.6665 5.47159 37.4843 5.16335 37.1992 4.90483C36.9175 4.64631 36.5397 4.51705 36.0657 4.51705C35.6514 4.51705 35.2885 4.62642 34.9769 4.84517C34.6687 5.06061 34.4284 5.36884 34.256 5.76989C34.0837 6.16761 33.9975 6.63826 33.9975 7.18182C33.9975 7.73864 34.082 8.21922 34.2511 8.62358C34.4201 9.02794 34.6587 9.34115 34.967 9.56321C35.2785 9.78527 35.6448 9.89631 36.0657 9.89631C36.3474 9.89631 36.6026 9.84493 36.8313 9.74219C37.0633 9.63613 37.2572 9.48532 37.413 9.28977C37.5721 9.09422 37.6831 8.8589 37.7461 8.58381H39.1928C39.1398 9.07765 38.979 9.51847 38.7106 9.90625C38.4421 10.294 38.0825 10.599 37.6317 10.821C37.1843 11.0431 36.659 11.1541 36.0558 11.1541ZM43.0048 11.169C42.5209 11.169 42.0834 11.0795 41.6923 10.9006C41.3012 10.7183 40.9913 10.4548 40.7626 10.1101C40.5372 9.76539 40.4245 9.3428 40.4245 8.84233C40.4245 8.41146 40.5074 8.05682 40.6731 7.77841C40.8388 7.5 41.0626 7.27959 41.3443 7.11719C41.626 6.95478 41.9409 6.83215 42.2889 6.74929C42.6369 6.66643 42.9915 6.60346 43.3528 6.56037C43.8102 6.50734 44.1814 6.46425 44.4664 6.43111C44.7515 6.39465 44.9586 6.33665 45.0879 6.2571C45.2172 6.17756 45.2818 6.0483 45.2818 5.86932V5.83452C45.2818 5.40033 45.1592 5.06392 44.9139 4.82528C44.6719 4.58665 44.3107 4.46733 43.8301 4.46733C43.3296 4.46733 42.9352 4.57836 42.6468 4.80043C42.3618 5.01918 42.1646 5.26278 42.0552 5.53125L40.6582 5.21307C40.8239 4.74905 41.0659 4.37453 41.3841 4.08949C41.7056 3.80114 42.0751 3.59233 42.4927 3.46307C42.9103 3.33049 43.3495 3.2642 43.8102 3.2642C44.1151 3.2642 44.4383 3.30066 44.7797 3.37358C45.1243 3.44318 45.4458 3.57244 45.7441 3.76136C46.0458 3.95028 46.2927 4.22041 46.4849 4.57173C46.6771 4.91974 46.7733 5.37216 46.7733 5.92898V11H45.3216V9.95597H45.2619C45.1658 10.1482 45.0216 10.3371 44.8294 10.5227C44.6371 10.7083 44.3902 10.8625 44.0886 10.9851C43.787 11.1077 43.4257 11.169 43.0048 11.169ZM43.3279 9.97585C43.7389 9.97585 44.0903 9.89465 44.3819 9.73224C44.6769 9.56984 44.9006 9.35772 45.0531 9.09588C45.2089 8.83073 45.2868 8.54735 45.2868 8.24574V7.26136C45.2337 7.31439 45.131 7.36411 44.9785 7.41051C44.8294 7.4536 44.6587 7.49171 44.4664 7.52486C44.2742 7.55469 44.0869 7.58286 43.9047 7.60938C43.7224 7.63258 43.5699 7.65246 43.4473 7.66903C43.1589 7.70549 42.8954 7.76681 42.6568 7.85298C42.4215 7.93916 42.2325 8.06345 42.09 8.22585C41.9508 8.38494 41.8812 8.59706 41.8812 8.86222C41.8812 9.23011 42.0171 9.50852 42.2889 9.69744C42.5607 9.88305 42.907 9.97585 43.3279 9.97585ZM50.2397 0.818182V11H48.7532V0.818182H50.2397ZM56.7388 6.05327V7.34091H52.2246V6.05327H56.7388ZM61.9366 11.1541C61.1975 11.1541 60.5611 10.9867 60.0275 10.652C59.4972 10.3139 59.0895 9.84825 58.8045 9.25497C58.5195 8.66169 58.377 7.98224 58.377 7.21662C58.377 6.44105 58.5228 5.75663 58.8145 5.16335C59.1061 4.56676 59.5171 4.10109 60.0474 3.76633C60.5777 3.43158 61.2025 3.2642 61.9217 3.2642C62.5017 3.2642 63.0188 3.37192 63.4728 3.58736C63.9269 3.79948 64.2931 4.09777 64.5716 4.48224C64.8533 4.86671 65.0207 5.31581 65.0737 5.82955H63.627C63.5474 5.47159 63.3651 5.16335 63.0801 4.90483C62.7984 4.64631 62.4205 4.51705 61.9466 4.51705C61.5323 4.51705 61.1693 4.62642 60.8578 4.84517C60.5495 5.06061 60.3092 5.36884 60.1369 5.76989C59.9645 6.16761 59.8784 6.63826 59.8784 7.18182C59.8784 7.73864 59.9629 8.21922 60.1319 8.62358C60.301 9.02794 60.5396 9.34115 60.8478 9.56321C61.1594 9.78527 61.5256 9.89631 61.9466 9.89631C62.2283 9.89631 62.4835 9.84493 62.7122 9.74219C62.9442 9.63613 63.1381 9.48532 63.2939 9.28977C63.4529 9.09422 63.564 8.8589 63.627 8.58381H65.0737C65.0207 9.07765 64.8599 9.51847 64.5914 9.90625C64.323 10.294 63.9634 10.599 63.5126 10.821C63.0652 11.0431 62.5398 11.1541 61.9366 11.1541ZM66.6634 11V3.36364H68.1499V11H66.6634ZM67.4141 2.18537C67.1555 2.18537 66.9335 2.09919 66.7479 1.92685C66.5656 1.75118 66.4744 1.54238 66.4744 1.30043C66.4744 1.05516 66.5656 0.846354 66.7479 0.674005C66.9335 0.498342 67.1555 0.410511 67.4141 0.410511C67.6726 0.410511 67.893 0.498342 68.0753 0.674005C68.2609 0.846354 68.3537 1.05516 68.3537 1.30043C68.3537 1.54238 68.2609 1.75118 68.0753 1.92685C67.893 2.09919 67.6726 2.18537 67.4141 2.18537ZM70.1497 11V3.36364H71.5865V4.5767H71.666C71.8052 4.16572 72.0505 3.84257 72.4018 3.60724C72.7565 3.36861 73.1575 3.24929 73.6049 3.24929C73.6977 3.24929 73.8071 3.2526 73.9331 3.25923C74.0623 3.26586 74.1634 3.27415 74.2363 3.28409V4.70597C74.1767 4.68939 74.0706 4.67116 73.9181 4.65128C73.7657 4.62808 73.6132 4.61648 73.4608 4.61648C73.1094 4.61648 72.7962 4.69105 72.5211 4.8402C72.2493 4.98603 72.0339 5.18987 71.8748 5.4517C71.7157 5.71023 71.6362 6.00521 71.6362 6.33665V11H70.1497ZM78.4659 11.1541C77.7268 11.1541 77.0904 10.9867 76.5568 10.652C76.0265 10.3139 75.6188 9.84825 75.3338 9.25497C75.0488 8.66169 74.9062 7.98224 74.9062 7.21662C74.9062 6.44105 75.0521 5.75663 75.3438 5.16335C75.6354 4.56676 76.0464 4.10109 76.5767 3.76633C77.107 3.43158 77.7318 3.2642 78.451 3.2642C79.031 3.2642 79.5481 3.37192 80.0021 3.58736C80.4562 3.79948 80.8224 4.09777 81.1009 4.48224C81.3826 4.86671 81.55 5.31581 81.603 5.82955H80.1562C80.0767 5.47159 79.8944 5.16335 79.6094 4.90483C79.3277 4.64631 78.9498 4.51705 78.4759 4.51705C78.0616 4.51705 77.6986 4.62642 77.3871 4.84517C77.0788 5.06061 76.8385 5.36884 76.6662 5.76989C76.4938 6.16761 76.4077 6.63826 76.4077 7.18182C76.4077 7.73864 76.4922 8.21922 76.6612 8.62358C76.8303 9.02794 77.0689 9.34115 77.3771 9.56321C77.6887 9.78527 78.0549 9.89631 78.4759 9.89631C78.7576 9.89631 79.0128 9.84493 79.2415 9.74219C79.4735 9.63613 79.6674 9.48532 79.8232 9.28977C79.9822 9.09422 80.0933 8.8589 80.1562 8.58381H81.603C81.55 9.07765 81.3892 9.51847 81.1207 9.90625C80.8523 10.294 80.4927 10.599 80.0419 10.821C79.5945 11.0431 79.0691 11.1541 78.4659 11.1541ZM84.6792 0.818182V11H83.1926V0.818182H84.6792ZM89.9702 11.1541C89.2178 11.1541 88.5698 10.9934 88.0263 10.6719C87.486 10.3471 87.0684 9.89134 86.7734 9.30469C86.4818 8.71473 86.3359 8.02367 86.3359 7.23153C86.3359 6.44934 86.4818 5.75994 86.7734 5.16335C87.0684 4.56676 87.4794 4.10109 88.0064 3.76633C88.5367 3.43158 89.1565 3.2642 89.8658 3.2642C90.2966 3.2642 90.7143 3.33546 91.1186 3.47798C91.523 3.6205 91.8859 3.84422 92.2074 4.14915C92.5289 4.45407 92.7824 4.85014 92.968 5.33736C93.1536 5.82126 93.2464 6.40956 93.2464 7.10227V7.62926H87.1761V6.51562H91.7898C91.7898 6.12453 91.7102 5.77817 91.5511 5.47656C91.392 5.17164 91.1683 4.93134 90.88 4.75568C90.5949 4.58002 90.2602 4.49219 89.8757 4.49219C89.4581 4.49219 89.0935 4.59493 88.782 4.80043C88.4737 5.0026 88.2351 5.26776 88.0661 5.59588C87.9003 5.92069 87.8175 6.27367 87.8175 6.65483V7.52486C87.8175 8.03527 87.907 8.46946 88.0859 8.82741C88.2682 9.18537 88.5218 9.45881 88.8466 9.64773C89.1714 9.83333 89.5509 9.92614 89.9851 9.92614C90.2668 9.92614 90.5237 9.88636 90.7557 9.80682C90.9877 9.72396 91.1882 9.60133 91.3572 9.43892C91.5263 9.27652 91.6555 9.07599 91.745 8.83736L93.152 9.09091C93.0393 9.50521 92.8371 9.86813 92.5455 10.1797C92.2571 10.4879 91.8942 10.7282 91.4567 10.9006C91.0225 11.0696 90.527 11.1541 89.9702 11.1541Z" fill="black"/>
</svg>
