<svg viewBox="0 0 60 12" fill="none" stroke-width="2" stroke="currentColor" aria-hidden="true">
  <path d="M1.4858 6.46591V11H-0.000710189V0.818182H1.46591V4.60653H1.56037C1.73935 4.19555 2.01278 3.86908 2.38068 3.62713C2.74858 3.38518 3.22917 3.2642 3.82244 3.2642C4.34612 3.2642 4.8035 3.37192 5.1946 3.58736C5.58902 3.80279 5.89394 4.12429 6.10938 4.55185C6.32812 4.97609 6.4375 5.50639 6.4375 6.14276V11H4.95099V6.32173C4.95099 5.7616 4.80682 5.32741 4.51847 5.01918C4.23011 4.70762 3.82907 4.55185 3.31534 4.55185C2.96402 4.55185 2.64915 4.62642 2.37074 4.77557C2.09564 4.92472 1.87855 5.14347 1.71946 5.43182C1.56368 5.71686 1.4858 6.06155 1.4858 6.46591ZM11.6378 11.1541C10.9219 11.1541 10.2971 10.9901 9.76349 10.6619C9.22988 10.3338 8.81558 9.87476 8.5206 9.2848C8.22562 8.69484 8.07812 8.00544 8.07812 7.21662C8.07812 6.42448 8.22562 5.73177 8.5206 5.13849C8.81558 4.54522 9.22988 4.08452 9.76349 3.75639C10.2971 3.42827 10.9219 3.2642 11.6378 3.2642C12.3537 3.2642 12.9785 3.42827 13.5121 3.75639C14.0457 4.08452 14.46 4.54522 14.755 5.13849C15.05 5.73177 15.1974 6.42448 15.1974 7.21662C15.1974 8.00544 15.05 8.69484 14.755 9.2848C14.46 9.87476 14.0457 10.3338 13.5121 10.6619C12.9785 10.9901 12.3537 11.1541 11.6378 11.1541ZM11.6428 9.90625C12.1068 9.90625 12.4912 9.78362 12.7962 9.53835C13.1011 9.29309 13.3265 8.96662 13.4723 8.55895C13.6214 8.15128 13.696 7.70218 13.696 7.21165C13.696 6.72443 13.6214 6.27699 13.4723 5.86932C13.3265 5.45833 13.1011 5.12855 12.7962 4.87997C12.4912 4.63139 12.1068 4.5071 11.6428 4.5071C11.1754 4.5071 10.7876 4.63139 10.4794 4.87997C10.1745 5.12855 9.94744 5.45833 9.7983 5.86932C9.65246 6.27699 9.57955 6.72443 9.57955 7.21165C9.57955 7.70218 9.65246 8.15128 9.7983 8.55895C9.94744 8.96662 10.1745 9.29309 10.4794 9.53835C10.7876 9.78362 11.1754 9.90625 11.6428 9.90625ZM16.8567 11V3.36364H18.2836V4.60653H18.378C18.5371 4.18561 18.7973 3.85748 19.1586 3.62216C19.5198 3.38352 19.9524 3.2642 20.4561 3.2642C20.9666 3.2642 21.3941 3.38352 21.7388 3.62216C22.0868 3.8608 22.3437 4.18892 22.5094 4.60653H22.589C22.7712 4.19886 23.0613 3.87405 23.459 3.6321C23.8567 3.38684 24.3307 3.2642 24.8809 3.2642C25.5736 3.2642 26.1387 3.4813 26.5762 3.91548C27.017 4.34967 27.2374 5.00426 27.2374 5.87926V11H25.7509V6.01847C25.7509 5.50142 25.61 5.12689 25.3283 4.89489C25.0466 4.66288 24.7102 4.54688 24.3191 4.54688C23.8352 4.54688 23.459 4.69602 23.1905 4.99432C22.9221 5.2893 22.7878 5.6688 22.7878 6.13281V11H21.3063V5.92401C21.3063 5.50971 21.177 5.17661 20.9185 4.92472C20.66 4.67282 20.3236 4.54688 19.9093 4.54688C19.6275 4.54688 19.3674 4.62145 19.1287 4.7706C18.8934 4.91643 18.7028 5.12026 18.557 5.3821C18.4145 5.64394 18.3432 5.94721 18.3432 6.2919V11H16.8567ZM32.521 11.1541C31.7686 11.1541 31.1206 10.9934 30.5771 10.6719C30.0368 10.3471 29.6192 9.89134 29.3242 9.30469C29.0326 8.71473 28.8867 8.02367 28.8867 7.23153C28.8867 6.44934 29.0326 5.75994 29.3242 5.16335C29.6192 4.56676 30.0302 4.10109 30.5572 3.76633C31.0875 3.43158 31.7073 3.2642 32.4165 3.2642C32.8474 3.2642 33.265 3.33546 33.6694 3.47798C34.0737 3.6205 34.4367 3.84422 34.7582 4.14915C35.0797 4.45407 35.3332 4.85014 35.5188 5.33736C35.7044 5.82126 35.7972 6.40956 35.7972 7.10227V7.62926H29.7269V6.51562H34.3406C34.3406 6.12453 34.261 5.77817 34.1019 5.47656C33.9428 5.17164 33.7191 4.93134 33.4308 4.75568C33.1457 4.58002 32.811 4.49219 32.4265 4.49219C32.0089 4.49219 31.6443 4.59493 31.3327 4.80043C31.0245 5.0026 30.7859 5.26776 30.6168 5.59588C30.4511 5.92069 30.3683 6.27367 30.3683 6.65483V7.52486C30.3683 8.03527 30.4577 8.46946 30.6367 8.82741C30.819 9.18537 31.0726 9.45881 31.3974 9.64773C31.7222 9.83333 32.1017 9.92614 32.5359 9.92614C32.8176 9.92614 33.0745 9.88636 33.3065 9.80682C33.5385 9.72396 33.739 9.60133 33.908 9.43892C34.0771 9.27652 34.2063 9.07599 34.2958 8.83736L35.7028 9.09091C35.5901 9.50521 35.3879 9.86813 35.0962 10.1797C34.8079 10.4879 34.445 10.7282 34.0075 10.9006C33.5733 11.0696 33.0778 11.1541 32.521 11.1541ZM41.9458 6.05327V7.34091H37.4316V6.05327H41.9458ZM47.4519 11.169C46.6664 11.1657 45.9952 10.9586 45.4384 10.5476C44.8816 10.1366 44.4557 9.53835 44.1607 8.75284C43.8657 7.96733 43.7182 7.02107 43.7182 5.91406C43.7182 4.81037 43.8657 3.86742 44.1607 3.08523C44.459 2.30303 44.8865 1.70644 45.4434 1.29545C46.0035 0.884469 46.673 0.678977 47.4519 0.678977C48.2308 0.678977 48.8986 0.886126 49.4554 1.30043C50.0123 1.71141 50.4382 2.308 50.7331 3.0902C51.0314 3.86908 51.1806 4.81037 51.1806 5.91406C51.1806 7.02438 51.0331 7.9723 50.7381 8.75781C50.4431 9.54001 50.0172 10.1383 49.4604 10.5526C48.9036 10.9635 48.2341 11.169 47.4519 11.169ZM47.4519 9.84162C48.1413 9.84162 48.6799 9.50521 49.0676 8.83239C49.4587 8.15956 49.6543 7.18679 49.6543 5.91406C49.6543 5.06889 49.5648 4.35464 49.3858 3.77131C49.2102 3.18466 48.9566 2.74053 48.6252 2.43892C48.2971 2.134 47.906 1.98153 47.4519 1.98153C46.7658 1.98153 46.2272 2.3196 45.8361 2.99574C45.445 3.67187 45.2478 4.64465 45.2445 5.91406C45.2445 6.76255 45.3323 7.48011 45.508 8.06676C45.687 8.65009 45.9405 9.09257 46.2686 9.39418C46.5968 9.69247 46.9912 9.84162 47.4519 9.84162ZM52.9442 11V9.88636L56.3896 6.31676C56.7575 5.92898 57.0607 5.58925 57.2994 5.29759C57.5413 5.0026 57.7219 4.72254 57.8413 4.45739C57.9606 4.19223 58.0202 3.91051 58.0202 3.61222C58.0202 3.27415 57.9407 2.98248 57.7816 2.73722C57.6225 2.48864 57.4054 2.29806 57.1303 2.16548C56.8552 2.02959 56.5453 1.96165 56.2006 1.96165C55.8361 1.96165 55.5179 2.03622 55.2461 2.18537C54.9743 2.33452 54.7655 2.54498 54.6197 2.81676C54.4738 3.08854 54.4009 3.40672 54.4009 3.77131H52.9343C52.9343 3.15151 53.0768 2.60961 53.3619 2.1456C53.6469 1.68158 54.038 1.32197 54.5352 1.06676C55.0323 0.808238 55.5974 0.678977 56.2305 0.678977C56.8701 0.678977 57.4336 0.806581 57.9208 1.06179C58.4113 1.31368 58.7942 1.65838 59.0692 2.09588C59.3443 2.53007 59.4819 3.0206 59.4819 3.56747C59.4819 3.94531 59.4106 4.31487 59.2681 4.67614C59.1289 5.0374 58.8853 5.4401 58.5373 5.88423C58.1893 6.32505 57.7054 6.86032 57.0856 7.49006L55.0621 9.60795V9.68253H59.646V11H52.9442Z" fill="black"/>
</svg>
