<svg viewBox="0 0 59 15" fill="none" stroke-width="2" stroke="currentColor" aria-hidden="true">
  <path d="M1.4858 0.818182V11H-0.000710189V0.818182H1.4858ZM6.70224 11.1541C5.98633 11.1541 5.36156 10.9901 4.82795 10.6619C4.29433 10.3338 3.88003 9.87476 3.58505 9.2848C3.29007 8.69484 3.14258 8.00544 3.14258 7.21662C3.14258 6.42448 3.29007 5.73177 3.58505 5.13849C3.88003 4.54522 4.29433 4.08452 4.82795 3.75639C5.36156 3.42827 5.98633 3.2642 6.70224 3.2642C7.41815 3.2642 8.04291 3.42827 8.57653 3.75639C9.11014 4.08452 9.52444 4.54522 9.81942 5.13849C10.1144 5.73177 10.2619 6.42448 10.2619 7.21662C10.2619 8.00544 10.1144 8.69484 9.81942 9.2848C9.52444 9.87476 9.11014 10.3338 8.57653 10.6619C8.04291 10.9901 7.41815 11.1541 6.70224 11.1541ZM6.70721 9.90625C7.17122 9.90625 7.55569 9.78362 7.86062 9.53835C8.16554 9.29309 8.39092 8.96662 8.53675 8.55895C8.6859 8.15128 8.76048 7.70218 8.76048 7.21165C8.76048 6.72443 8.6859 6.27699 8.53675 5.86932C8.39092 5.45833 8.16554 5.12855 7.86062 4.87997C7.55569 4.63139 7.17122 4.5071 6.70721 4.5071C6.23988 4.5071 5.8521 4.63139 5.54386 4.87997C5.23893 5.12855 5.0119 5.45833 4.86275 5.86932C4.71692 6.27699 4.644 6.72443 4.644 7.21165C4.644 7.70218 4.71692 8.15128 4.86275 8.55895C5.0119 8.96662 5.23893 9.29309 5.54386 9.53835C5.8521 9.78362 6.23988 9.90625 6.70721 9.90625ZM15.1229 14.0227C14.5163 14.0227 13.9943 13.9432 13.5568 13.7841C13.1226 13.625 12.768 13.4145 12.4929 13.1527C12.2178 12.8909 12.0123 12.6042 11.8764 12.2926L13.1541 11.7656C13.2436 11.9115 13.3629 12.0656 13.5121 12.228C13.6645 12.3937 13.87 12.5346 14.1286 12.6506C14.3904 12.7666 14.7268 12.8246 15.1378 12.8246C15.7012 12.8246 16.1669 12.687 16.5348 12.4119C16.9027 12.1402 17.0866 11.706 17.0866 11.1094V9.60795H16.9922C16.9027 9.77036 16.7734 9.95099 16.6044 10.1499C16.4387 10.3487 16.21 10.5211 15.9183 10.6669C15.6267 10.8127 15.2472 10.8857 14.7798 10.8857C14.1766 10.8857 13.633 10.7448 13.1491 10.4631C12.6686 10.178 12.2874 9.75876 12.0057 9.20526C11.7273 8.64844 11.5881 7.96401 11.5881 7.15199C11.5881 6.33996 11.7256 5.64394 12.0007 5.06392C12.2791 4.4839 12.6603 4.03977 13.1442 3.73153C13.6281 3.41998 14.1766 3.2642 14.7898 3.2642C15.2637 3.2642 15.6465 3.34375 15.9382 3.50284C16.2299 3.65862 16.4569 3.84091 16.6193 4.04972C16.785 4.25852 16.9126 4.44247 17.0021 4.60156H17.1115V3.36364H18.5682V11.169C18.5682 11.8253 18.4157 12.3639 18.1108 12.7848C17.8059 13.2057 17.3932 13.5173 16.8729 13.7195C16.3558 13.9216 15.7725 14.0227 15.1229 14.0227ZM15.108 9.6527C15.5355 9.6527 15.8968 9.55327 16.1918 9.3544C16.4901 9.15223 16.7154 8.86387 16.8679 8.48935C17.0237 8.11151 17.1016 7.65909 17.1016 7.1321C17.1016 6.61837 17.0253 6.16596 16.8729 5.77486C16.7204 5.38376 16.4967 5.07884 16.2017 4.86009C15.9067 4.63802 15.5421 4.52699 15.108 4.52699C14.6605 4.52699 14.2876 4.64299 13.9893 4.875C13.6911 5.10369 13.4657 5.41525 13.3132 5.80966C13.1641 6.20407 13.0895 6.64489 13.0895 7.1321C13.0895 7.63258 13.1657 8.07173 13.3182 8.44957C13.4706 8.82741 13.696 9.1224 13.9943 9.33452C14.2959 9.54664 14.6671 9.6527 15.108 9.6527ZM25.0611 6.05327V7.34091H20.5469V6.05327H25.0611ZM27.0423 11V3.36364H28.5288V11H27.0423ZM27.793 2.18537C27.5344 2.18537 27.3124 2.09919 27.1268 1.92685C26.9445 1.75118 26.8533 1.54238 26.8533 1.30043C26.8533 1.05516 26.9445 0.846354 27.1268 0.674005C27.3124 0.498342 27.5344 0.410511 27.793 0.410511C28.0515 0.410511 28.2719 0.498342 28.4542 0.674005C28.6398 0.846354 28.7326 1.05516 28.7326 1.30043C28.7326 1.54238 28.6398 1.75118 28.4542 1.92685C28.2719 2.09919 28.0515 2.18537 27.793 2.18537ZM32.0151 6.46591V11H30.5286V3.36364H31.9554V4.60653H32.0499C32.2256 4.20218 32.5007 3.87737 32.8752 3.6321C33.253 3.38684 33.7286 3.2642 34.302 3.2642C34.8224 3.2642 35.2781 3.37358 35.6692 3.59233C36.0603 3.80777 36.3636 4.12926 36.579 4.55682C36.7944 4.98437 36.9022 5.51302 36.9022 6.14276V11H35.4157V6.32173C35.4157 5.76823 35.2715 5.3357 34.9831 5.02415C34.6948 4.70928 34.2987 4.55185 33.7949 4.55185C33.4502 4.55185 33.1436 4.62642 32.8752 4.77557C32.61 4.92472 32.3996 5.14347 32.2438 5.43182C32.0913 5.71686 32.0151 6.06155 32.0151 6.46591ZM43.3951 6.05327V7.34091H38.8809V6.05327H43.3951ZM48.9011 11.169C48.1156 11.1657 47.4444 10.9586 46.8876 10.5476C46.3308 10.1366 45.9049 9.53835 45.6099 8.75284C45.3149 7.96733 45.1674 7.02107 45.1674 5.91406C45.1674 4.81037 45.3149 3.86742 45.6099 3.08523C45.9082 2.30303 46.3358 1.70644 46.8926 1.29545C47.4527 0.884469 48.1222 0.678977 48.9011 0.678977C49.68 0.678977 50.3478 0.886126 50.9047 1.30043C51.4615 1.71141 51.8874 2.308 52.1824 3.0902C52.4806 3.86908 52.6298 4.81037 52.6298 5.91406C52.6298 7.02438 52.4823 7.9723 52.1873 8.75781C51.8923 9.54001 51.4664 10.1383 50.9096 10.5526C50.3528 10.9635 49.6833 11.169 48.9011 11.169ZM48.9011 9.84162C49.5905 9.84162 50.1291 9.50521 50.5169 8.83239C50.908 8.15956 51.1035 7.18679 51.1035 5.91406C51.1035 5.06889 51.014 4.35464 50.835 3.77131C50.6594 3.18466 50.4058 2.74053 50.0744 2.43892C49.7463 2.134 49.3552 1.98153 48.9011 1.98153C48.215 1.98153 47.6764 2.3196 47.2853 2.99574C46.8942 3.67187 46.697 4.64465 46.6937 5.91406C46.6937 6.76255 46.7815 7.48011 46.9572 8.06676C47.1362 8.65009 47.3897 9.09257 47.7179 9.39418C48.046 9.69247 48.4404 9.84162 48.9011 9.84162ZM58.2564 0.818182V11H56.7152V2.35938H56.6555L54.2195 3.95028V2.47869L56.7599 0.818182H58.2564Z" fill="black"/>
</svg>
