<svg viewBox="0 0 103 15" fill="none" stroke-width="2" stroke="currentColor" aria-hidden="true">
  <path d="M4.20099 14.0227C3.59446 14.0227 3.07244 13.9432 2.63494 13.7841C2.20076 13.625 1.84612 13.4145 1.57102 13.1527C1.29593 12.8909 1.09044 12.6042 0.954545 12.2926L2.23224 11.7656C2.32173 11.9115 2.44105 12.0656 2.5902 12.228C2.74266 12.3937 2.94815 12.5346 3.20668 12.6506C3.46851 12.7666 3.80492 12.8246 4.21591 12.8246C4.77936 12.8246 5.24503 12.687 5.61293 12.4119C5.98082 12.1402 6.16477 11.706 6.16477 11.1094V9.60795H6.07031C5.98082 9.77036 5.85156 9.95099 5.68253 10.1499C5.51681 10.3487 5.28812 10.5211 4.99645 10.6669C4.70478 10.8127 4.32528 10.8857 3.85795 10.8857C3.25473 10.8857 2.71117 10.7448 2.22727 10.4631C1.74669 10.178 1.36553 9.75876 1.08381 9.20526C0.805398 8.64844 0.666193 7.96401 0.666193 7.15199C0.666193 6.33996 0.803741 5.64394 1.07884 5.06392C1.35724 4.4839 1.7384 4.03977 2.2223 3.73153C2.7062 3.41998 3.25473 3.2642 3.8679 3.2642C4.34186 3.2642 4.72467 3.34375 5.01634 3.50284C5.308 3.65862 5.53504 3.84091 5.69744 4.04972C5.86316 4.25852 5.99077 4.44247 6.08026 4.60156H6.18963V3.36364H7.64631V11.169C7.64631 11.8253 7.49385 12.3639 7.18892 12.7848C6.884 13.2057 6.47135 13.5173 5.95099 13.7195C5.43395 13.9216 4.85062 14.0227 4.20099 14.0227ZM4.18608 9.6527C4.61364 9.6527 4.97491 9.55327 5.26989 9.3544C5.56818 9.15223 5.79356 8.86387 5.94602 8.48935C6.1018 8.11151 6.17969 7.65909 6.17969 7.1321C6.17969 6.61837 6.10346 6.16596 5.95099 5.77486C5.79853 5.38376 5.57481 5.07884 5.27983 4.86009C4.98485 4.63802 4.62027 4.52699 4.18608 4.52699C3.73864 4.52699 3.36577 4.64299 3.06747 4.875C2.76918 5.10369 2.5438 5.41525 2.39134 5.80966C2.24219 6.20407 2.16761 6.64489 2.16761 7.1321C2.16761 7.63258 2.24384 8.07173 2.39631 8.44957C2.54877 8.82741 2.77415 9.1224 3.07244 9.33452C3.37405 9.54664 3.74527 9.6527 4.18608 9.6527ZM12.8565 11.1541C12.1406 11.1541 11.5159 10.9901 10.9822 10.6619C10.4486 10.3338 10.0343 9.87476 9.73935 9.2848C9.44437 8.69484 9.29688 8.00544 9.29688 7.21662C9.29688 6.42448 9.44437 5.73177 9.73935 5.13849C10.0343 4.54522 10.4486 4.08452 10.9822 3.75639C11.5159 3.42827 12.1406 3.2642 12.8565 3.2642C13.5724 3.2642 14.1972 3.42827 14.7308 3.75639C15.2644 4.08452 15.6787 4.54522 15.9737 5.13849C16.2687 5.73177 16.4162 6.42448 16.4162 7.21662C16.4162 8.00544 16.2687 8.69484 15.9737 9.2848C15.6787 9.87476 15.2644 10.3338 14.7308 10.6619C14.1972 10.9901 13.5724 11.1541 12.8565 11.1541ZM12.8615 9.90625C13.3255 9.90625 13.71 9.78362 14.0149 9.53835C14.3198 9.29309 14.5452 8.96662 14.6911 8.55895C14.8402 8.15128 14.9148 7.70218 14.9148 7.21165C14.9148 6.72443 14.8402 6.27699 14.6911 5.86932C14.5452 5.45833 14.3198 5.12855 14.0149 4.87997C13.71 4.63139 13.3255 4.5071 12.8615 4.5071C12.3942 4.5071 12.0064 4.63139 11.6982 4.87997C11.3932 5.12855 11.1662 5.45833 11.017 5.86932C10.8712 6.27699 10.7983 6.72443 10.7983 7.21165C10.7983 7.70218 10.8712 8.15128 11.017 8.55895C11.1662 8.96662 11.3932 9.29309 11.6982 9.53835C12.0064 9.78362 12.3942 9.90625 12.8615 9.90625ZM21.2921 11.1541C20.5762 11.1541 19.9514 10.9901 19.4178 10.6619C18.8842 10.3338 18.4699 9.87476 18.1749 9.2848C17.8799 8.69484 17.7324 8.00544 17.7324 7.21662C17.7324 6.42448 17.8799 5.73177 18.1749 5.13849C18.4699 4.54522 18.8842 4.08452 19.4178 3.75639C19.9514 3.42827 20.5762 3.2642 21.2921 3.2642C22.008 3.2642 22.6328 3.42827 23.1664 3.75639C23.7 4.08452 24.1143 4.54522 24.4093 5.13849C24.7042 5.73177 24.8517 6.42448 24.8517 7.21662C24.8517 8.00544 24.7042 8.69484 24.4093 9.2848C24.1143 9.87476 23.7 10.3338 23.1664 10.6619C22.6328 10.9901 22.008 11.1541 21.2921 11.1541ZM21.2971 9.90625C21.7611 9.90625 22.1455 9.78362 22.4505 9.53835C22.7554 9.29309 22.9808 8.96662 23.1266 8.55895C23.2757 8.15128 23.3503 7.70218 23.3503 7.21165C23.3503 6.72443 23.2757 6.27699 23.1266 5.86932C22.9808 5.45833 22.7554 5.12855 22.4505 4.87997C22.1455 4.63139 21.7611 4.5071 21.2971 4.5071C20.8297 4.5071 20.4419 4.63139 20.1337 4.87997C19.8288 5.12855 19.6017 5.45833 19.4526 5.86932C19.3068 6.27699 19.2338 6.72443 19.2338 7.21165C19.2338 7.70218 19.3068 8.15128 19.4526 8.55895C19.6017 8.96662 19.8288 9.29309 20.1337 9.53835C20.4419 9.78362 20.8297 9.90625 21.2971 9.90625ZM29.7127 14.0227C29.1062 14.0227 28.5842 13.9432 28.1467 13.7841C27.7125 13.625 27.3578 13.4145 27.0827 13.1527C26.8076 12.8909 26.6022 12.6042 26.4663 12.2926L27.744 11.7656C27.8335 11.9115 27.9528 12.0656 28.1019 12.228C28.2544 12.3937 28.4599 12.5346 28.7184 12.6506C28.9802 12.7666 29.3166 12.8246 29.7276 12.8246C30.2911 12.8246 30.7567 12.687 31.1246 12.4119C31.4925 12.1402 31.6765 11.706 31.6765 11.1094V9.60795H31.582C31.4925 9.77036 31.3633 9.95099 31.1942 10.1499C31.0285 10.3487 30.7998 10.5211 30.5082 10.6669C30.2165 10.8127 29.837 10.8857 29.3697 10.8857C28.7665 10.8857 28.2229 10.7448 27.739 10.4631C27.2584 10.178 26.8772 9.75876 26.5955 9.20526C26.3171 8.64844 26.1779 7.96401 26.1779 7.15199C26.1779 6.33996 26.3155 5.64394 26.5906 5.06392C26.869 4.4839 27.2501 4.03977 27.734 3.73153C28.2179 3.41998 28.7665 3.2642 29.3796 3.2642C29.8536 3.2642 30.2364 3.34375 30.5281 3.50284C30.8197 3.65862 31.0468 3.84091 31.2092 4.04972C31.3749 4.25852 31.5025 4.44247 31.592 4.60156H31.7013V3.36364H33.158V11.169C33.158 11.8253 33.0056 12.3639 32.7006 12.7848C32.3957 13.2057 31.9831 13.5173 31.4627 13.7195C30.9457 13.9216 30.3623 14.0227 29.7127 14.0227ZM29.6978 9.6527C30.1254 9.6527 30.4866 9.55327 30.7816 9.3544C31.0799 9.15223 31.3053 8.86387 31.4577 8.48935C31.6135 8.11151 31.6914 7.65909 31.6914 7.1321C31.6914 6.61837 31.6152 6.16596 31.4627 5.77486C31.3103 5.38376 31.0865 5.07884 30.7915 4.86009C30.4966 4.63802 30.132 4.52699 29.6978 4.52699C29.2504 4.52699 28.8775 4.64299 28.5792 4.875C28.2809 5.10369 28.0555 5.41525 27.9031 5.80966C27.7539 6.20407 27.6793 6.64489 27.6793 7.1321C27.6793 7.63258 27.7556 8.07173 27.908 8.44957C28.0605 8.82741 28.2859 9.1224 28.5842 9.33452C28.8858 9.54664 29.257 9.6527 29.6978 9.6527ZM36.6381 0.818182V11H35.1516V0.818182H36.6381ZM41.9292 11.1541C41.1768 11.1541 40.5288 10.9934 39.9853 10.6719C39.445 10.3471 39.0274 9.89134 38.7324 9.30469C38.4408 8.71473 38.2949 8.02367 38.2949 7.23153C38.2949 6.44934 38.4408 5.75994 38.7324 5.16335C39.0274 4.56676 39.4384 4.10109 39.9654 3.76633C40.4957 3.43158 41.1155 3.2642 41.8248 3.2642C42.2556 3.2642 42.6732 3.33546 43.0776 3.47798C43.4819 3.6205 43.8449 3.84422 44.1664 4.14915C44.4879 4.45407 44.7414 4.85014 44.927 5.33736C45.1126 5.82126 45.2054 6.40956 45.2054 7.10227V7.62926H39.1351V6.51562H43.7488C43.7488 6.12453 43.6692 5.77817 43.5101 5.47656C43.351 5.17164 43.1273 4.93134 42.839 4.75568C42.5539 4.58002 42.2192 4.49219 41.8347 4.49219C41.4171 4.49219 41.0525 4.59493 40.7409 4.80043C40.4327 5.0026 40.1941 5.26776 40.025 5.59588C39.8593 5.92069 39.7765 6.27367 39.7765 6.65483V7.52486C39.7765 8.03527 39.8659 8.46946 40.0449 8.82741C40.2272 9.18537 40.4808 9.45881 40.8056 9.64773C41.1304 9.83333 41.5099 9.92614 41.9441 9.92614C42.2258 9.92614 42.4827 9.88636 42.7147 9.80682C42.9467 9.72396 43.1472 9.60133 43.3162 9.43892C43.4853 9.27652 43.6145 9.07599 43.704 8.83736L45.111 9.09091C44.9983 9.50521 44.7961 9.86813 44.5044 10.1797C44.2161 10.4879 43.8532 10.7282 43.4157 10.9006C42.9815 11.0696 42.486 11.1541 41.9292 11.1541ZM51.354 6.05327V7.34091H46.8398V6.05327H51.354ZM56.5518 11.1541C55.8127 11.1541 55.1764 10.9867 54.6428 10.652C54.1125 10.3139 53.7048 9.84825 53.4197 9.25497C53.1347 8.66169 52.9922 7.98224 52.9922 7.21662C52.9922 6.44105 53.138 5.75663 53.4297 5.16335C53.7214 4.56676 54.1323 4.10109 54.6626 3.76633C55.1929 3.43158 55.8177 3.2642 56.5369 3.2642C57.117 3.2642 57.634 3.37192 58.0881 3.58736C58.5421 3.79948 58.9084 4.09777 59.1868 4.48224C59.4685 4.86671 59.6359 5.31581 59.6889 5.82955H58.2422C58.1626 5.47159 57.9804 5.16335 57.6953 4.90483C57.4136 4.64631 57.0357 4.51705 56.5618 4.51705C56.1475 4.51705 55.7846 4.62642 55.473 4.84517C55.1648 5.06061 54.9245 5.36884 54.7521 5.76989C54.5798 6.16761 54.4936 6.63826 54.4936 7.18182C54.4936 7.73864 54.5781 8.21922 54.7472 8.62358C54.9162 9.02794 55.1548 9.34115 55.4631 9.56321C55.7746 9.78527 56.1409 9.89631 56.5618 9.89631C56.8435 9.89631 57.0987 9.84493 57.3274 9.74219C57.5594 9.63613 57.7533 9.48532 57.9091 9.28977C58.0682 9.09422 58.1792 8.8589 58.2422 8.58381H59.6889C59.6359 9.07765 59.4751 9.51847 59.2067 9.90625C58.9382 10.294 58.5786 10.599 58.1278 10.821C57.6804 11.0431 57.1551 11.1541 56.5518 11.1541ZM62.7651 6.46591V11H61.2786V0.818182H62.7452V4.60653H62.8397C63.0186 4.19555 63.2921 3.86908 63.66 3.62713C64.0279 3.38518 64.5085 3.2642 65.1017 3.2642C65.6254 3.2642 66.0828 3.37192 66.4739 3.58736C66.8683 3.80279 67.1732 4.12429 67.3887 4.55185C67.6074 4.97609 67.7168 5.50639 67.7168 6.14276V11H66.2303V6.32173C66.2303 5.7616 66.0861 5.32741 65.7978 5.01918C65.5094 4.70762 65.1084 4.55185 64.5946 4.55185C64.2433 4.55185 63.9284 4.62642 63.65 4.77557C63.3749 4.92472 63.1578 5.14347 62.9988 5.43182C62.843 5.71686 62.7651 6.06155 62.7651 6.46591ZM69.7005 11V3.36364H71.1373V4.5767H71.2168C71.356 4.16572 71.6013 3.84257 71.9526 3.60724C72.3072 3.36861 72.7083 3.24929 73.1557 3.24929C73.2485 3.24929 73.3579 3.2526 73.4838 3.25923C73.6131 3.26586 73.7142 3.27415 73.7871 3.28409V4.70597C73.7275 4.68939 73.6214 4.67116 73.4689 4.65128C73.3165 4.62808 73.164 4.61648 73.0115 4.61648C72.6602 4.61648 72.347 4.69105 72.0719 4.8402C71.8001 4.98603 71.5847 5.18987 71.4256 5.4517C71.2665 5.71023 71.187 6.00521 71.187 6.33665V11H69.7005ZM78.0167 11.1541C77.3008 11.1541 76.676 10.9901 76.1424 10.6619C75.6088 10.3338 75.1945 9.87476 74.8995 9.2848C74.6045 8.69484 74.457 8.00544 74.457 7.21662C74.457 6.42448 74.6045 5.73177 74.8995 5.13849C75.1945 4.54522 75.6088 4.08452 76.1424 3.75639C76.676 3.42827 77.3008 3.2642 78.0167 3.2642C78.7326 3.2642 79.3574 3.42827 79.891 3.75639C80.4246 4.08452 80.8389 4.54522 81.1339 5.13849C81.4289 5.73177 81.5763 6.42448 81.5763 7.21662C81.5763 8.00544 81.4289 8.69484 81.1339 9.2848C80.8389 9.87476 80.4246 10.3338 79.891 10.6619C79.3574 10.9901 78.7326 11.1541 78.0167 11.1541ZM78.0217 9.90625C78.4857 9.90625 78.8701 9.78362 79.1751 9.53835C79.48 9.29309 79.7054 8.96662 79.8512 8.55895C80.0004 8.15128 80.0749 7.70218 80.0749 7.21165C80.0749 6.72443 80.0004 6.27699 79.8512 5.86932C79.7054 5.45833 79.48 5.12855 79.1751 4.87997C78.8701 4.63139 78.4857 4.5071 78.0217 4.5071C77.5543 4.5071 77.1665 4.63139 76.8583 4.87997C76.5534 5.12855 76.3263 5.45833 76.1772 5.86932C76.0314 6.27699 75.9585 6.72443 75.9585 7.21165C75.9585 7.70218 76.0314 8.15128 76.1772 8.55895C76.3263 8.96662 76.5534 9.29309 76.8583 9.53835C77.1665 9.78362 77.5543 9.90625 78.0217 9.90625ZM83.2356 11V3.36364H84.6625V4.60653H84.7569C84.916 4.18561 85.1762 3.85748 85.5375 3.62216C85.8987 3.38352 86.3313 3.2642 86.835 3.2642C87.3455 3.2642 87.773 3.38352 88.1177 3.62216C88.4657 3.8608 88.7226 4.18892 88.8883 4.60653H88.9679C89.1502 4.19886 89.4402 3.87405 89.8379 3.6321C90.2356 3.38684 90.7096 3.2642 91.2598 3.2642C91.9525 3.2642 92.5176 3.4813 92.9551 3.91548C93.3959 4.34967 93.6163 5.00426 93.6163 5.87926V11H92.1298V6.01847C92.1298 5.50142 91.9889 5.12689 91.7072 4.89489C91.4255 4.66288 91.0891 4.54688 90.698 4.54688C90.2141 4.54688 89.8379 4.69602 89.5694 4.99432C89.301 5.2893 89.1667 5.6688 89.1667 6.13281V11H87.6852V5.92401C87.6852 5.50971 87.5559 5.17661 87.2974 4.92472C87.0389 4.67282 86.7025 4.54688 86.2882 4.54688C86.0065 4.54688 85.7463 4.62145 85.5076 4.7706C85.2723 4.91643 85.0817 5.12026 84.9359 5.3821C84.7934 5.64394 84.7221 5.94721 84.7221 6.2919V11H83.2356ZM98.8999 11.1541C98.1475 11.1541 97.4995 10.9934 96.956 10.6719C96.4157 10.3471 95.9981 9.89134 95.7031 9.30469C95.4115 8.71473 95.2656 8.02367 95.2656 7.23153C95.2656 6.44934 95.4115 5.75994 95.7031 5.16335C95.9981 4.56676 96.4091 4.10109 96.9361 3.76633C97.4664 3.43158 98.0862 3.2642 98.7955 3.2642C99.2263 3.2642 99.6439 3.33546 100.048 3.47798C100.453 3.6205 100.816 3.84422 101.137 4.14915C101.459 4.45407 101.712 4.85014 101.898 5.33736C102.083 5.82126 102.176 6.40956 102.176 7.10227V7.62926H96.1058V6.51562H100.719C100.719 6.12453 100.64 5.77817 100.481 5.47656C100.322 5.17164 100.098 4.93134 99.8097 4.75568C99.5246 4.58002 99.1899 4.49219 98.8054 4.49219C98.3878 4.49219 98.0232 4.59493 97.7116 4.80043C97.4034 5.0026 97.1648 5.26776 96.9957 5.59588C96.83 5.92069 96.7472 6.27367 96.7472 6.65483V7.52486C96.7472 8.03527 96.8366 8.46946 97.0156 8.82741C97.1979 9.18537 97.4515 9.45881 97.7763 9.64773C98.1011 9.83333 98.4806 9.92614 98.9148 9.92614C99.1965 9.92614 99.4534 9.88636 99.6854 9.80682C99.9174 9.72396 100.118 9.60133 100.287 9.43892C100.456 9.27652 100.585 9.07599 100.675 8.83736L102.082 9.09091C101.969 9.50521 101.767 9.86813 101.475 10.1797C101.187 10.4879 100.824 10.7282 100.386 10.9006C99.9522 11.0696 99.4567 11.1541 98.8999 11.1541Z" fill="black"/>
</svg>
