<svg viewBox="0 0 49 12" fill="none" stroke-width="2" stroke="currentColor" aria-hidden="true">
  <path d="M2.17259 3.36364L3.85795 6.33665L5.55824 3.36364H7.18395L4.80256 7.18182L7.20384 11H5.57812L3.85795 8.14631L2.14276 11H0.512074L2.88849 7.18182L0.541903 3.36364H2.17259ZM12.8951 6.05327V7.34091H8.38086V6.05327H12.8951ZM18.0929 11.1541C17.3538 11.1541 16.7174 10.9867 16.1838 10.652C15.6535 10.3139 15.2458 9.84825 14.9608 9.25497C14.6757 8.66169 14.5332 7.98224 14.5332 7.21662C14.5332 6.44105 14.679 5.75663 14.9707 5.16335C15.2624 4.56676 15.6734 4.10109 16.2037 3.76633C16.734 3.43158 17.3587 3.2642 18.0779 3.2642C18.658 3.2642 19.175 3.37192 19.6291 3.58736C20.0832 3.79948 20.4494 4.09777 20.7278 4.48224C21.0095 4.86671 21.1769 5.31581 21.2299 5.82955H19.7832C19.7037 5.47159 19.5214 5.16335 19.2363 4.90483C18.9546 4.64631 18.5768 4.51705 18.1028 4.51705C17.6885 4.51705 17.3256 4.62642 17.014 4.84517C16.7058 5.06061 16.4655 5.36884 16.2931 5.76989C16.1208 6.16761 16.0346 6.63826 16.0346 7.18182C16.0346 7.73864 16.1191 8.21922 16.2882 8.62358C16.4572 9.02794 16.6958 9.34115 17.0041 9.56321C17.3156 9.78527 17.6819 9.89631 18.1028 9.89631C18.3845 9.89631 18.6397 9.84493 18.8684 9.74219C19.1004 9.63613 19.2943 9.48532 19.4501 9.28977C19.6092 9.09422 19.7202 8.8589 19.7832 8.58381H21.2299C21.1769 9.07765 21.0162 9.51847 20.7477 9.90625C20.4792 10.294 20.1196 10.599 19.6689 10.821C19.2214 11.0431 18.6961 11.1541 18.0929 11.1541ZM24.3061 0.818182V11H22.8196V0.818182H24.3061ZM29.5225 11.1541C28.8066 11.1541 28.1819 10.9901 27.6483 10.6619C27.1146 10.3338 26.7003 9.87476 26.4054 9.2848C26.1104 8.69484 25.9629 8.00544 25.9629 7.21662C25.9629 6.42448 26.1104 5.73177 26.4054 5.13849C26.7003 4.54522 27.1146 4.08452 27.6483 3.75639C28.1819 3.42827 28.8066 3.2642 29.5225 3.2642C30.2385 3.2642 30.8632 3.42827 31.3968 3.75639C31.9305 4.08452 32.3448 4.54522 32.6397 5.13849C32.9347 5.73177 33.0822 6.42448 33.0822 7.21662C33.0822 8.00544 32.9347 8.69484 32.6397 9.2848C32.3448 9.87476 31.9305 10.3338 31.3968 10.6619C30.8632 10.9901 30.2385 11.1541 29.5225 11.1541ZM29.5275 9.90625C29.9915 9.90625 30.376 9.78362 30.6809 9.53835C30.9859 9.29309 31.2112 8.96662 31.3571 8.55895C31.5062 8.15128 31.5808 7.70218 31.5808 7.21165C31.5808 6.72443 31.5062 6.27699 31.3571 5.86932C31.2112 5.45833 30.9859 5.12855 30.6809 4.87997C30.376 4.63139 29.9915 4.5071 29.5275 4.5071C29.0602 4.5071 28.6724 4.63139 28.3642 4.87997C28.0592 5.12855 27.8322 5.45833 27.6831 5.86932C27.5372 6.27699 27.4643 6.72443 27.4643 7.21165C27.4643 7.70218 27.5372 8.15128 27.6831 8.55895C27.8322 8.96662 28.0592 9.29309 28.3642 9.53835C28.6724 9.78362 29.0602 9.90625 29.5275 9.90625ZM40.4638 5.22798L39.1165 5.46662C39.0601 5.29427 38.9706 5.13021 38.848 4.97443C38.7287 4.81865 38.5663 4.69105 38.3608 4.59162C38.1553 4.49219 37.8984 4.44247 37.5902 4.44247C37.1693 4.44247 36.8179 4.53693 36.5362 4.72585C36.2545 4.91146 36.1136 5.15175 36.1136 5.44673C36.1136 5.70194 36.2081 5.90743 36.397 6.06321C36.5859 6.21899 36.8909 6.34659 37.3118 6.44602L38.5249 6.72443C39.2275 6.88684 39.7512 7.13707 40.0959 7.47514C40.4406 7.81321 40.6129 8.25237 40.6129 8.79261C40.6129 9.25 40.4804 9.65767 40.2152 10.0156C39.9534 10.3703 39.5871 10.6487 39.1165 10.8509C38.6491 11.053 38.1072 11.1541 37.4908 11.1541C36.6357 11.1541 35.938 10.9718 35.3977 10.6072C34.8575 10.2393 34.526 9.71733 34.4034 9.04119L35.8402 8.82244C35.9297 9.19697 36.1136 9.48035 36.392 9.67259C36.6705 9.86151 37.0334 9.95597 37.4808 9.95597C37.968 9.95597 38.3575 9.85488 38.6491 9.6527C38.9408 9.44721 39.0866 9.19697 39.0866 8.90199C39.0866 8.66335 38.9972 8.46283 38.8182 8.30043C38.6425 8.13802 38.3724 8.01539 38.0078 7.93253L36.7152 7.64915C36.0026 7.48674 35.4756 7.22822 35.1342 6.87358C34.7962 6.51894 34.6271 6.06984 34.6271 5.52628C34.6271 5.07552 34.7531 4.68111 35.005 4.34304C35.2569 4.00497 35.6049 3.74148 36.049 3.55256C36.4931 3.36032 37.0019 3.2642 37.5753 3.2642C38.4006 3.2642 39.0502 3.44318 39.5241 3.80114C39.9981 4.15578 40.3113 4.63139 40.4638 5.22798ZM45.5385 11.1541C44.7862 11.1541 44.1382 10.9934 43.5946 10.6719C43.0544 10.3471 42.6368 9.89134 42.3418 9.30469C42.0501 8.71473 41.9043 8.02367 41.9043 7.23153C41.9043 6.44934 42.0501 5.75994 42.3418 5.16335C42.6368 4.56676 43.0478 4.10109 43.5748 3.76633C44.1051 3.43158 44.7248 3.2642 45.4341 3.2642C45.865 3.2642 46.2826 3.33546 46.687 3.47798C47.0913 3.6205 47.4542 3.84422 47.7757 4.14915C48.0972 4.45407 48.3508 4.85014 48.5364 5.33736C48.722 5.82126 48.8148 6.40956 48.8148 7.10227V7.62926H42.7445V6.51562H47.3581C47.3581 6.12453 47.2786 5.77817 47.1195 5.47656C46.9604 5.17164 46.7367 4.93134 46.4483 4.75568C46.1633 4.58002 45.8285 4.49219 45.4441 4.49219C45.0265 4.49219 44.6619 4.59493 44.3503 4.80043C44.0421 5.0026 43.8034 5.26776 43.6344 5.59588C43.4687 5.92069 43.3858 6.27367 43.3858 6.65483V7.52486C43.3858 8.03527 43.4753 8.46946 43.6543 8.82741C43.8366 9.18537 44.0901 9.45881 44.415 9.64773C44.7398 9.83333 45.1193 9.92614 45.5534 9.92614C45.8352 9.92614 46.092 9.88636 46.324 9.80682C46.556 9.72396 46.7566 9.60133 46.9256 9.43892C47.0946 9.27652 47.2239 9.07599 47.3134 8.83736L48.7203 9.09091C48.6077 9.50521 48.4055 9.86813 48.1138 10.1797C47.8255 10.4879 47.4625 10.7282 47.025 10.9006C46.5908 11.0696 46.0953 11.1541 45.5385 11.1541Z" fill="black"/>
</svg>
