<svg viewBox="0 0 67 14" fill="none" stroke-width="2" stroke="currentColor" aria-hidden="true">
  <path d="M3.22159 11.169C2.73769 11.169 2.30019 11.0795 1.90909 10.9006C1.51799 10.7183 1.2081 10.4548 0.979403 10.1101C0.754025 9.76539 0.641335 9.3428 0.641335 8.84233C0.641335 8.41146 0.724195 8.05682 0.889915 7.77841C1.05563 7.5 1.27936 7.27959 1.56108 7.11719C1.8428 6.95478 2.15767 6.83215 2.50568 6.74929C2.85369 6.66643 3.20833 6.60346 3.5696 6.56037C4.02699 6.50734 4.3982 6.46425 4.68324 6.43111C4.96828 6.39465 5.17543 6.33665 5.30469 6.2571C5.43395 6.17756 5.49858 6.0483 5.49858 5.86932V5.83452C5.49858 5.40033 5.37595 5.06392 5.13068 4.82528C4.88873 4.58665 4.52746 4.46733 4.04688 4.46733C3.5464 4.46733 3.15199 4.57836 2.86364 4.80043C2.5786 5.01918 2.38139 5.26278 2.27202 5.53125L0.875 5.21307C1.04072 4.74905 1.28267 4.37453 1.60085 4.08949C1.92235 3.80114 2.2919 3.59233 2.70952 3.46307C3.12713 3.33049 3.56629 3.2642 4.02699 3.2642C4.33191 3.2642 4.65507 3.30066 4.99645 3.37358C5.34115 3.44318 5.66264 3.57244 5.96094 3.76136C6.26255 3.95028 6.50947 4.22041 6.7017 4.57173C6.89394 4.91974 6.99006 5.37216 6.99006 5.92898V11H5.53835V9.95597H5.47869C5.38258 10.1482 5.2384 10.3371 5.04616 10.5227C4.85393 10.7083 4.60701 10.8625 4.3054 10.9851C4.00379 11.1077 3.64252 11.169 3.22159 11.169ZM3.54474 9.97585C3.95573 9.97585 4.30706 9.89465 4.59872 9.73224C4.8937 9.56984 5.11742 9.35772 5.26989 9.09588C5.42566 8.83073 5.50355 8.54735 5.50355 8.24574V7.26136C5.45052 7.31439 5.34777 7.36411 5.19531 7.41051C5.04616 7.4536 4.87547 7.49171 4.68324 7.52486C4.491 7.55469 4.30374 7.58286 4.12145 7.60938C3.93916 7.63258 3.7867 7.65246 3.66406 7.66903C3.37571 7.70549 3.11222 7.76681 2.87358 7.85298C2.63826 7.93916 2.44934 8.06345 2.30682 8.22585C2.16761 8.38494 2.09801 8.59706 2.09801 8.86222C2.09801 9.23011 2.2339 9.50852 2.50568 9.69744C2.77746 9.88305 3.12382 9.97585 3.54474 9.97585ZM12.5346 3.36364V4.55682H8.36346V3.36364H12.5346ZM9.48207 1.53409H10.9686V8.75781C10.9686 9.04616 11.0117 9.26326 11.0978 9.40909C11.184 9.55161 11.295 9.64938 11.4309 9.70241C11.5701 9.75213 11.7209 9.77699 11.8833 9.77699C12.0027 9.77699 12.1071 9.7687 12.1966 9.75213C12.286 9.73556 12.3556 9.7223 12.4054 9.71236L12.6738 10.9403C12.5877 10.9735 12.465 11.0066 12.3059 11.0398C12.1468 11.0762 11.948 11.0961 11.7093 11.0994C11.3182 11.1061 10.9537 11.0365 10.6156 10.8906C10.2775 10.7448 10.0041 10.5194 9.79528 10.2145C9.58647 9.90956 9.48207 9.52675 9.48207 9.06605V1.53409ZM18.4185 6.05327V7.34091H13.9043V6.05327H18.4185ZM26.122 5.22798L24.7747 5.46662C24.7183 5.29427 24.6288 5.13021 24.5062 4.97443C24.3869 4.81865 24.2245 4.69105 24.019 4.59162C23.8135 4.49219 23.5566 4.44247 23.2484 4.44247C22.8275 4.44247 22.4761 4.53693 22.1944 4.72585C21.9127 4.91146 21.7718 5.15175 21.7718 5.44673C21.7718 5.70194 21.8663 5.90743 22.0552 6.06321C22.2441 6.21899 22.5491 6.34659 22.97 6.44602L24.1831 6.72443C24.8857 6.88684 25.4094 7.13707 25.7541 7.47514C26.0988 7.81321 26.2711 8.25237 26.2711 8.79261C26.2711 9.25 26.1386 9.65767 25.8734 10.0156C25.6116 10.3703 25.2453 10.6487 24.7747 10.8509C24.3074 11.053 23.7654 11.1541 23.149 11.1541C22.2939 11.1541 21.5962 10.9718 21.0559 10.6072C20.5157 10.2393 20.1842 9.71733 20.0616 9.04119L21.4984 8.82244C21.5879 9.19697 21.7718 9.48035 22.0502 9.67259C22.3287 9.86151 22.6916 9.95597 23.139 9.95597C23.6262 9.95597 24.0157 9.85488 24.3074 9.6527C24.599 9.44721 24.7449 9.19697 24.7449 8.90199C24.7449 8.66335 24.6554 8.46283 24.4764 8.30043C24.3007 8.13802 24.0306 8.01539 23.666 7.93253L22.3734 7.64915C21.6608 7.48674 21.1338 7.22822 20.7924 6.87358C20.4544 6.51894 20.2853 6.06984 20.2853 5.52628C20.2853 5.07552 20.4113 4.68111 20.6632 4.34304C20.9151 4.00497 21.2631 3.74148 21.7072 3.55256C22.1513 3.36032 22.6601 3.2642 23.2335 3.2642C24.0588 3.2642 24.7084 3.44318 25.1824 3.80114C25.6563 4.15578 25.9695 4.63139 26.122 5.22798ZM28.8452 13.8636C28.6231 13.8636 28.4209 13.8454 28.2386 13.8089C28.0563 13.7758 27.9205 13.7393 27.831 13.6996L28.1889 12.4815C28.4607 12.5545 28.7027 12.5859 28.9148 12.576C29.1269 12.5661 29.3142 12.4865 29.4766 12.3374C29.6423 12.1882 29.7881 11.9446 29.9141 11.6065L30.098 11.0994L27.304 3.36364H28.8949L30.8288 9.28977H30.9084L32.8423 3.36364H34.4382L31.2912 12.0192C31.1454 12.4169 30.9598 12.7533 30.7344 13.0284C30.509 13.3068 30.2405 13.5156 29.929 13.6548C29.6174 13.794 29.2562 13.8636 28.8452 13.8636ZM35.8352 11V3.36364H37.2621V4.60653H37.3565C37.5156 4.18561 37.7758 3.85748 38.1371 3.62216C38.4983 3.38352 38.9309 3.2642 39.4347 3.2642C39.9451 3.2642 40.3726 3.38352 40.7173 3.62216C41.0653 3.8608 41.3222 4.18892 41.4879 4.60653H41.5675C41.7498 4.19886 42.0398 3.87405 42.4375 3.6321C42.8352 3.38684 43.3092 3.2642 43.8594 3.2642C44.5521 3.2642 45.1172 3.4813 45.5547 3.91548C45.9955 4.34967 46.2159 5.00426 46.2159 5.87926V11H44.7294V6.01847C44.7294 5.50142 44.5885 5.12689 44.3068 4.89489C44.0251 4.66288 43.6887 4.54688 43.2976 4.54688C42.8137 4.54688 42.4375 4.69602 42.169 4.99432C41.9006 5.2893 41.7663 5.6688 41.7663 6.13281V11H40.2848V5.92401C40.2848 5.50971 40.1555 5.17661 39.897 4.92472C39.6385 4.67282 39.3021 4.54688 38.8878 4.54688C38.6061 4.54688 38.3459 4.62145 38.1072 4.7706C37.8719 4.91643 37.6813 5.12026 37.5355 5.3821C37.393 5.64394 37.3217 5.94721 37.3217 6.2919V11H35.8352ZM48.3276 11V0.818182H49.8141V4.60156H49.9036C49.9898 4.44247 50.1141 4.25852 50.2765 4.04972C50.4389 3.84091 50.6642 3.65862 50.9526 3.50284C51.2409 3.34375 51.6221 3.2642 52.0961 3.2642C52.7125 3.2642 53.2627 3.41998 53.7466 3.73153C54.2305 4.04309 54.61 4.49219 54.8851 5.07884C55.1635 5.66548 55.3027 6.37145 55.3027 7.19673C55.3027 8.02202 55.1652 8.72964 54.8901 9.3196C54.615 9.90625 54.2372 10.3587 53.7566 10.6768C53.276 10.9917 52.7275 11.1491 52.111 11.1491C51.647 11.1491 51.2675 11.0713 50.9725 10.9155C50.6808 10.7597 50.4521 10.5774 50.2864 10.3686C50.1207 10.1598 49.9931 9.9742 49.9036 9.81179H49.7793V11H48.3276ZM49.7843 7.18182C49.7843 7.71875 49.8622 8.18939 50.0179 8.59375C50.1737 8.99811 50.3991 9.31463 50.6941 9.54332C50.9891 9.7687 51.3503 9.88139 51.7779 9.88139C52.222 9.88139 52.5932 9.76373 52.8915 9.52841C53.1898 9.28977 53.4152 8.96662 53.5676 8.55895C53.7234 8.15128 53.8013 7.69223 53.8013 7.18182C53.8013 6.67803 53.7251 6.22562 53.5726 5.82457C53.4235 5.42353 53.1981 5.10701 52.8965 4.875C52.5982 4.64299 52.2253 4.52699 51.7779 4.52699C51.347 4.52699 50.9824 4.63802 50.6841 4.86009C50.3891 5.08215 50.1654 5.39205 50.013 5.78977C49.8605 6.1875 49.7843 6.65151 49.7843 7.18182ZM60.1886 11.1541C59.4727 11.1541 58.8479 10.9901 58.3143 10.6619C57.7807 10.3338 57.3664 9.87476 57.0714 9.2848C56.7764 8.69484 56.6289 8.00544 56.6289 7.21662C56.6289 6.42448 56.7764 5.73177 57.0714 5.13849C57.3664 4.54522 57.7807 4.08452 58.3143 3.75639C58.8479 3.42827 59.4727 3.2642 60.1886 3.2642C60.9045 3.2642 61.5292 3.42827 62.0629 3.75639C62.5965 4.08452 63.0108 4.54522 63.3058 5.13849C63.6007 5.73177 63.7482 6.42448 63.7482 7.21662C63.7482 8.00544 63.6007 8.69484 63.3058 9.2848C63.0108 9.87476 62.5965 10.3338 62.0629 10.6619C61.5292 10.9901 60.9045 11.1541 60.1886 11.1541ZM60.1935 9.90625C60.6576 9.90625 61.042 9.78362 61.3469 9.53835C61.6519 9.29309 61.8772 8.96662 62.0231 8.55895C62.1722 8.15128 62.2468 7.70218 62.2468 7.21165C62.2468 6.72443 62.1722 6.27699 62.0231 5.86932C61.8772 5.45833 61.6519 5.12855 61.3469 4.87997C61.042 4.63139 60.6576 4.5071 60.1935 4.5071C59.7262 4.5071 59.3384 4.63139 59.0302 4.87997C58.7253 5.12855 58.4982 5.45833 58.3491 5.86932C58.2032 6.27699 58.1303 6.72443 58.1303 7.21165C58.1303 7.70218 58.2032 8.15128 58.3491 8.55895C58.4982 8.96662 58.7253 9.29309 59.0302 9.53835C59.3384 9.78362 59.7262 9.90625 60.1935 9.90625ZM66.894 0.818182V11H65.4075V0.818182H66.894Z" fill="black"/>
</svg>
