<svg viewBox="0 0 50 14" fill="none" stroke-width="2" stroke="currentColor" aria-hidden="true">
  <path d="M0.840199 11V9.98082L4.97656 4.72585V4.65625H0.974432V3.36364H6.83097V4.44744L2.85369 9.63778V9.70739H6.97017V11H0.840199ZM10.9462 11.169C10.4623 11.169 10.0248 11.0795 9.6337 10.9006C9.2426 10.7183 8.93271 10.4548 8.70401 10.1101C8.47863 9.76539 8.36594 9.3428 8.36594 8.84233C8.36594 8.41146 8.4488 8.05682 8.61452 7.77841C8.78024 7.5 9.00397 7.27959 9.28569 7.11719C9.56741 6.95478 9.88228 6.83215 10.2303 6.74929C10.5783 6.66643 10.9329 6.60346 11.2942 6.56037C11.7516 6.50734 12.1228 6.46425 12.4078 6.43111C12.6929 6.39465 12.9 6.33665 13.0293 6.2571C13.1586 6.17756 13.2232 6.0483 13.2232 5.86932V5.83452C13.2232 5.40033 13.1006 5.06392 12.8553 4.82528C12.6133 4.58665 12.2521 4.46733 11.7715 4.46733C11.271 4.46733 10.8766 4.57836 10.5882 4.80043C10.3032 5.01918 10.106 5.26278 9.99663 5.53125L8.59961 5.21307C8.76533 4.74905 9.00728 4.37453 9.32546 4.08949C9.64696 3.80114 10.0165 3.59233 10.4341 3.46307C10.8517 3.33049 11.2909 3.2642 11.7516 3.2642C12.0565 3.2642 12.3797 3.30066 12.7211 3.37358C13.0658 3.44318 13.3873 3.57244 13.6855 3.76136C13.9872 3.95028 14.2341 4.22041 14.4263 4.57173C14.6185 4.91974 14.7147 5.37216 14.7147 5.92898V11H13.263V9.95597H13.2033C13.1072 10.1482 12.963 10.3371 12.7708 10.5227C12.5785 10.7083 12.3316 10.8625 12.03 10.9851C11.7284 11.1077 11.3671 11.169 10.9462 11.169ZM11.2694 9.97585C11.6803 9.97585 12.0317 9.89465 12.3233 9.73224C12.6183 9.56984 12.842 9.35772 12.9945 9.09588C13.1503 8.83073 13.2282 8.54735 13.2282 8.24574V7.26136C13.1751 7.31439 13.0724 7.36411 12.9199 7.41051C12.7708 7.4536 12.6001 7.49171 12.4078 7.52486C12.2156 7.55469 12.0284 7.58286 11.8461 7.60938C11.6638 7.63258 11.5113 7.65246 11.3887 7.66903C11.1003 7.70549 10.8368 7.76681 10.5982 7.85298C10.3629 7.93916 10.1739 8.06345 10.0314 8.22585C9.89222 8.38494 9.82262 8.59706 9.82262 8.86222C9.82262 9.23011 9.95851 9.50852 10.2303 9.69744C10.5021 9.88305 10.8484 9.97585 11.2694 9.97585ZM16.6946 13.8636V3.36364H18.1463V4.60156H18.2706C18.3568 4.44247 18.4811 4.25852 18.6435 4.04972C18.8059 3.84091 19.0313 3.65862 19.3196 3.50284C19.608 3.34375 19.9891 3.2642 20.4631 3.2642C21.0795 3.2642 21.6297 3.41998 22.1136 3.73153C22.5975 4.04309 22.977 4.49219 23.2521 5.07884C23.5305 5.66548 23.6697 6.37145 23.6697 7.19673C23.6697 8.02202 23.5322 8.72964 23.2571 9.3196C22.982 9.90625 22.6042 10.3587 22.1236 10.6768C21.643 10.9917 21.0945 11.1491 20.478 11.1491C20.014 11.1491 19.6345 11.0713 19.3395 10.9155C19.0478 10.7597 18.8191 10.5774 18.6534 10.3686C18.4877 10.1598 18.3601 9.9742 18.2706 9.81179H18.1811V13.8636H16.6946ZM18.1513 7.18182C18.1513 7.71875 18.2292 8.18939 18.3849 8.59375C18.5407 8.99811 18.7661 9.31463 19.0611 9.54332C19.3561 9.7687 19.7173 9.88139 20.1449 9.88139C20.589 9.88139 20.9602 9.76373 21.2585 9.52841C21.5568 9.28977 21.7822 8.96662 21.9347 8.55895C22.0904 8.15128 22.1683 7.69223 22.1683 7.18182C22.1683 6.67803 22.0921 6.22562 21.9396 5.82457C21.7905 5.42353 21.5651 5.10701 21.2635 4.875C20.9652 4.64299 20.5923 4.52699 20.1449 4.52699C19.714 4.52699 19.3494 4.63802 19.0511 4.86009C18.7562 5.08215 18.5324 5.39205 18.38 5.78977C18.2275 6.1875 18.1513 6.65151 18.1513 7.18182ZM29.8345 6.05327V7.34091H25.3203V6.05327H29.8345ZM35.0323 11.1541C34.3164 11.1541 33.6916 10.9901 33.158 10.6619C32.6244 10.3338 32.2101 9.87476 31.9151 9.2848C31.6201 8.69484 31.4727 8.00544 31.4727 7.21662C31.4727 6.42448 31.6201 5.73177 31.9151 5.13849C32.2101 4.54522 32.6244 4.08452 33.158 3.75639C33.6916 3.42827 34.3164 3.2642 35.0323 3.2642C35.7482 3.2642 36.373 3.42827 36.9066 3.75639C37.4402 4.08452 37.8545 4.54522 38.1495 5.13849C38.4445 5.73177 38.592 6.42448 38.592 7.21662C38.592 8.00544 38.4445 8.69484 38.1495 9.2848C37.8545 9.87476 37.4402 10.3338 36.9066 10.6619C36.373 10.9901 35.7482 11.1541 35.0323 11.1541ZM35.0373 9.90625C35.5013 9.90625 35.8858 9.78362 36.1907 9.53835C36.4956 9.29309 36.721 8.96662 36.8668 8.55895C37.016 8.15128 37.0906 7.70218 37.0906 7.21165C37.0906 6.72443 37.016 6.27699 36.8668 5.86932C36.721 5.45833 36.4956 5.12855 36.1907 4.87997C35.8858 4.63139 35.5013 4.5071 35.0373 4.5071C34.57 4.5071 34.1822 4.63139 33.8739 4.87997C33.569 5.12855 33.342 5.45833 33.1928 5.86932C33.047 6.27699 32.9741 6.72443 32.9741 7.21165C32.9741 7.70218 33.047 8.15128 33.1928 8.55895C33.342 8.96662 33.569 9.29309 33.8739 9.53835C34.1822 9.78362 34.57 9.90625 35.0373 9.90625ZM43.8855 3.36364V4.55682H39.5701V3.36364H43.8855ZM40.7534 11V2.47869C40.7534 2.00142 40.8578 1.60535 41.0666 1.29048C41.2754 0.972301 41.5521 0.735322 41.8968 0.579545C42.2415 0.420454 42.6161 0.340908 43.0204 0.340908C43.3187 0.340908 43.5739 0.365767 43.786 0.415483C43.9982 0.461884 44.1556 0.504971 44.2583 0.544744L43.9103 1.74787C43.8407 1.72798 43.7512 1.70478 43.6419 1.67827C43.5325 1.64844 43.3999 1.63352 43.2441 1.63352C42.8829 1.63352 42.6243 1.72301 42.4686 1.90199C42.3161 2.08097 42.2399 2.33949 42.2399 2.67756V11H40.7534ZM49.0534 3.36364V4.55682H44.7381V3.36364H49.0534ZM45.9213 11V2.47869C45.9213 2.00142 46.0257 1.60535 46.2346 1.29048C46.4434 0.972301 46.7201 0.735322 47.0648 0.579545C47.4095 0.420454 47.784 0.340908 48.1884 0.340908C48.4867 0.340908 48.7419 0.365767 48.954 0.415483C49.1661 0.461884 49.3236 0.504971 49.4263 0.544744L49.0783 1.74787C49.0087 1.72798 48.9192 1.70478 48.8098 1.67827C48.7005 1.64844 48.5679 1.63352 48.4121 1.63352C48.0508 1.63352 47.7923 1.72301 47.6365 1.90199C47.4841 2.08097 47.4078 2.33949 47.4078 2.67756V11H45.9213Z" fill="black"/>
</svg>
