<svg viewBox="0 0 94 12" fill="none" stroke-width="2" stroke="currentColor" aria-hidden="true">
  <path d="M-0.000710189 11V3.36364H1.42614V4.60653H1.5206C1.67969 4.18561 1.93987 3.85748 2.30114 3.62216C2.66241 3.38352 3.09493 3.2642 3.59872 3.2642C4.10914 3.2642 4.5367 3.38352 4.88139 3.62216C5.2294 3.8608 5.48627 4.18892 5.65199 4.60653H5.73153C5.91383 4.19886 6.20384 3.87405 6.60156 3.6321C6.99929 3.38684 7.47325 3.2642 8.02344 3.2642C8.71615 3.2642 9.28125 3.4813 9.71875 3.91548C10.1596 4.34967 10.38 5.00426 10.38 5.87926V11H8.89347V6.01847C8.89347 5.50142 8.7526 5.12689 8.47088 4.89489C8.18916 4.66288 7.85275 4.54688 7.46165 4.54688C6.97775 4.54688 6.60156 4.69602 6.3331 4.99432C6.06463 5.2893 5.9304 5.6688 5.9304 6.13281V11H4.44886V5.92401C4.44886 5.50971 4.3196 5.17661 4.06108 4.92472C3.80256 4.67282 3.46615 4.54688 3.05185 4.54688C2.77012 4.54688 2.50994 4.62145 2.27131 4.7706C2.03599 4.91643 1.84541 5.12026 1.69957 5.3821C1.55706 5.64394 1.4858 5.94721 1.4858 6.2919V11H-0.000710189ZM15.6635 11.1541C14.9112 11.1541 14.2632 10.9934 13.7196 10.6719C13.1794 10.3471 12.7618 9.89134 12.4668 9.30469C12.1751 8.71473 12.0293 8.02367 12.0293 7.23153C12.0293 6.44934 12.1751 5.75994 12.4668 5.16335C12.7618 4.56676 13.1728 4.10109 13.6998 3.76633C14.2301 3.43158 14.8498 3.2642 15.5591 3.2642C15.99 3.2642 16.4076 3.33546 16.812 3.47798C17.2163 3.6205 17.5792 3.84422 17.9007 4.14915C18.2222 4.45407 18.4758 4.85014 18.6614 5.33736C18.847 5.82126 18.9398 6.40956 18.9398 7.10227V7.62926H12.8695V6.51562H17.4831C17.4831 6.12453 17.4036 5.77817 17.2445 5.47656C17.0854 5.17164 16.8617 4.93134 16.5733 4.75568C16.2883 4.58002 15.9535 4.49219 15.5691 4.49219C15.1515 4.49219 14.7869 4.59493 14.4753 4.80043C14.1671 5.0026 13.9284 5.26776 13.7594 5.59588C13.5937 5.92069 13.5108 6.27367 13.5108 6.65483V7.52486C13.5108 8.03527 13.6003 8.46946 13.7793 8.82741C13.9616 9.18537 14.2151 9.45881 14.54 9.64773C14.8648 9.83333 15.2443 9.92614 15.6784 9.92614C15.9602 9.92614 16.217 9.88636 16.449 9.80682C16.681 9.72396 16.8816 9.60133 17.0506 9.43892C17.2196 9.27652 17.3489 9.07599 17.4384 8.83736L18.8453 9.09091C18.7327 9.50521 18.5305 9.86813 18.2388 10.1797C17.9505 10.4879 17.5875 10.7282 17.15 10.9006C16.7158 11.0696 16.2203 11.1541 15.6635 11.1541ZM23.4478 11.1491C22.8313 11.1491 22.2811 10.9917 21.7972 10.6768C21.3166 10.3587 20.9388 9.90625 20.6637 9.3196C20.3919 8.72964 20.256 8.02202 20.256 7.19673C20.256 6.37145 20.3936 5.66548 20.6687 5.07884C20.9471 4.49219 21.3282 4.04309 21.8121 3.73153C22.296 3.41998 22.8446 3.2642 23.4577 3.2642C23.9317 3.2642 24.3129 3.34375 24.6012 3.50284C24.8929 3.65862 25.1183 3.84091 25.2773 4.04972C25.4397 4.25852 25.5657 4.44247 25.6552 4.60156H25.7447V0.818182H27.2312V11H25.7795V9.81179H25.6552C25.5657 9.9742 25.4364 10.1598 25.2674 10.3686C25.1017 10.5774 24.873 10.7597 24.5813 10.9155C24.2897 11.0713 23.9118 11.1491 23.4478 11.1491ZM23.7759 9.88139C24.2035 9.88139 24.5647 9.7687 24.8597 9.54332C25.158 9.31463 25.3834 8.99811 25.5359 8.59375C25.6916 8.18939 25.7695 7.71875 25.7695 7.18182C25.7695 6.65151 25.6933 6.1875 25.5408 5.78977C25.3884 5.39205 25.1647 5.08215 24.8697 4.86009C24.5747 4.63802 24.2101 4.52699 23.7759 4.52699C23.3285 4.52699 22.9556 4.64299 22.6573 4.875C22.359 5.10701 22.1336 5.42353 21.9812 5.82457C21.832 6.22562 21.7575 6.67803 21.7575 7.18182C21.7575 7.69223 21.8337 8.15128 21.9862 8.55895C22.1386 8.96662 22.364 9.28977 22.6623 9.52841C22.9639 9.76373 23.3351 9.88139 23.7759 9.88139ZM29.3528 11V3.36364H30.8393V11H29.3528ZM30.1035 2.18537C29.845 2.18537 29.6229 2.09919 29.4373 1.92685C29.255 1.75118 29.1639 1.54238 29.1639 1.30043C29.1639 1.05516 29.255 0.846354 29.4373 0.674005C29.6229 0.498342 29.845 0.410511 30.1035 0.410511C30.362 0.410511 30.5824 0.498342 30.7647 0.674005C30.9503 0.846354 31.0431 1.05516 31.0431 1.30043C31.0431 1.54238 30.9503 1.75118 30.7647 1.92685C30.5824 2.09919 30.362 2.18537 30.1035 2.18537ZM36.0558 11.1541C35.3166 11.1541 34.6803 10.9867 34.1467 10.652C33.6164 10.3139 33.2087 9.84825 32.9237 9.25497C32.6386 8.66169 32.4961 7.98224 32.4961 7.21662C32.4961 6.44105 32.6419 5.75663 32.9336 5.16335C33.2253 4.56676 33.6362 4.10109 34.1665 3.76633C34.6969 3.43158 35.3216 3.2642 36.0408 3.2642C36.6209 3.2642 37.1379 3.37192 37.592 3.58736C38.046 3.79948 38.4123 4.09777 38.6907 4.48224C38.9724 4.86671 39.1398 5.31581 39.1928 5.82955H37.7461C37.6665 5.47159 37.4843 5.16335 37.1992 4.90483C36.9175 4.64631 36.5397 4.51705 36.0657 4.51705C35.6514 4.51705 35.2885 4.62642 34.9769 4.84517C34.6687 5.06061 34.4284 5.36884 34.256 5.76989C34.0837 6.16761 33.9975 6.63826 33.9975 7.18182C33.9975 7.73864 34.082 8.21922 34.2511 8.62358C34.4201 9.02794 34.6587 9.34115 34.967 9.56321C35.2785 9.78527 35.6448 9.89631 36.0657 9.89631C36.3474 9.89631 36.6026 9.84493 36.8313 9.74219C37.0633 9.63613 37.2572 9.48532 37.413 9.28977C37.5721 9.09422 37.6831 8.8589 37.7461 8.58381H39.1928C39.1398 9.07765 38.979 9.51847 38.7106 9.90625C38.4421 10.294 38.0825 10.599 37.6317 10.821C37.1843 11.0431 36.659 11.1541 36.0558 11.1541ZM43.0048 11.169C42.5209 11.169 42.0834 11.0795 41.6923 10.9006C41.3012 10.7183 40.9913 10.4548 40.7626 10.1101C40.5372 9.76539 40.4245 9.3428 40.4245 8.84233C40.4245 8.41146 40.5074 8.05682 40.6731 7.77841C40.8388 7.5 41.0626 7.27959 41.3443 7.11719C41.626 6.95478 41.9409 6.83215 42.2889 6.74929C42.6369 6.66643 42.9915 6.60346 43.3528 6.56037C43.8102 6.50734 44.1814 6.46425 44.4664 6.43111C44.7515 6.39465 44.9586 6.33665 45.0879 6.2571C45.2172 6.17756 45.2818 6.0483 45.2818 5.86932V5.83452C45.2818 5.40033 45.1592 5.06392 44.9139 4.82528C44.6719 4.58665 44.3107 4.46733 43.8301 4.46733C43.3296 4.46733 42.9352 4.57836 42.6468 4.80043C42.3618 5.01918 42.1646 5.26278 42.0552 5.53125L40.6582 5.21307C40.8239 4.74905 41.0659 4.37453 41.3841 4.08949C41.7056 3.80114 42.0751 3.59233 42.4927 3.46307C42.9103 3.33049 43.3495 3.2642 43.8102 3.2642C44.1151 3.2642 44.4383 3.30066 44.7797 3.37358C45.1243 3.44318 45.4458 3.57244 45.7441 3.76136C46.0458 3.95028 46.2927 4.22041 46.4849 4.57173C46.6771 4.91974 46.7733 5.37216 46.7733 5.92898V11H45.3216V9.95597H45.2619C45.1658 10.1482 45.0216 10.3371 44.8294 10.5227C44.6371 10.7083 44.3902 10.8625 44.0886 10.9851C43.787 11.1077 43.4257 11.169 43.0048 11.169ZM43.3279 9.97585C43.7389 9.97585 44.0903 9.89465 44.3819 9.73224C44.6769 9.56984 44.9006 9.35772 45.0531 9.09588C45.2089 8.83073 45.2868 8.54735 45.2868 8.24574V7.26136C45.2337 7.31439 45.131 7.36411 44.9785 7.41051C44.8294 7.4536 44.6587 7.49171 44.4664 7.52486C44.2742 7.55469 44.0869 7.58286 43.9047 7.60938C43.7224 7.63258 43.5699 7.65246 43.4473 7.66903C43.1589 7.70549 42.8954 7.76681 42.6568 7.85298C42.4215 7.93916 42.2325 8.06345 42.09 8.22585C41.9508 8.38494 41.8812 8.59706 41.8812 8.86222C41.8812 9.23011 42.0171 9.50852 42.2889 9.69744C42.5607 9.88305 42.907 9.97585 43.3279 9.97585ZM50.2397 0.818182V11H48.7532V0.818182H50.2397ZM56.7388 6.05327V7.34091H52.2246V6.05327H56.7388ZM61.9366 11.1541C61.1975 11.1541 60.5611 10.9867 60.0275 10.652C59.4972 10.3139 59.0895 9.84825 58.8045 9.25497C58.5195 8.66169 58.377 7.98224 58.377 7.21662C58.377 6.44105 58.5228 5.75663 58.8145 5.16335C59.1061 4.56676 59.5171 4.10109 60.0474 3.76633C60.5777 3.43158 61.2025 3.2642 61.9217 3.2642C62.5017 3.2642 63.0188 3.37192 63.4728 3.58736C63.9269 3.79948 64.2931 4.09777 64.5716 4.48224C64.8533 4.86671 65.0207 5.31581 65.0737 5.82955H63.627C63.5474 5.47159 63.3651 5.16335 63.0801 4.90483C62.7984 4.64631 62.4205 4.51705 61.9466 4.51705C61.5323 4.51705 61.1693 4.62642 60.8578 4.84517C60.5495 5.06061 60.3092 5.36884 60.1369 5.76989C59.9645 6.16761 59.8784 6.63826 59.8784 7.18182C59.8784 7.73864 59.9629 8.21922 60.1319 8.62358C60.301 9.02794 60.5396 9.34115 60.8478 9.56321C61.1594 9.78527 61.5256 9.89631 61.9466 9.89631C62.2283 9.89631 62.4835 9.84493 62.7122 9.74219C62.9442 9.63613 63.1381 9.48532 63.2939 9.28977C63.4529 9.09422 63.564 8.8589 63.627 8.58381H65.0737C65.0207 9.07765 64.8599 9.51847 64.5914 9.90625C64.323 10.294 63.9634 10.599 63.5126 10.821C63.0652 11.0431 62.5398 11.1541 61.9366 11.1541ZM66.6634 11V3.36364H68.1001V4.5767H68.1797C68.3189 4.16572 68.5642 3.84257 68.9155 3.60724C69.2701 3.36861 69.6712 3.24929 70.1186 3.24929C70.2114 3.24929 70.3208 3.2526 70.4467 3.25923C70.576 3.26586 70.6771 3.27415 70.75 3.28409V4.70597C70.6903 4.68939 70.5843 4.67116 70.4318 4.65128C70.2794 4.62808 70.1269 4.61648 69.9744 4.61648C69.6231 4.61648 69.3099 4.69105 69.0348 4.8402C68.763 4.98603 68.5476 5.18987 68.3885 5.4517C68.2294 5.71023 68.1499 6.00521 68.1499 6.33665V11H66.6634ZM74.9796 11.1541C74.2637 11.1541 73.6389 10.9901 73.1053 10.6619C72.5717 10.3338 72.1574 9.87476 71.8624 9.2848C71.5674 8.69484 71.4199 8.00544 71.4199 7.21662C71.4199 6.42448 71.5674 5.73177 71.8624 5.13849C72.1574 4.54522 72.5717 4.08452 73.1053 3.75639C73.6389 3.42827 74.2637 3.2642 74.9796 3.2642C75.6955 3.2642 76.3203 3.42827 76.8539 3.75639C77.3875 4.08452 77.8018 4.54522 78.0968 5.13849C78.3917 5.73177 78.5392 6.42448 78.5392 7.21662C78.5392 8.00544 78.3917 8.69484 78.0968 9.2848C77.8018 9.87476 77.3875 10.3338 76.8539 10.6619C76.3203 10.9901 75.6955 11.1541 74.9796 11.1541ZM74.9846 9.90625C75.4486 9.90625 75.833 9.78362 76.138 9.53835C76.4429 9.29309 76.6683 8.96662 76.8141 8.55895C76.9632 8.15128 77.0378 7.70218 77.0378 7.21165C77.0378 6.72443 76.9632 6.27699 76.8141 5.86932C76.6683 5.45833 76.4429 5.12855 76.138 4.87997C75.833 4.63139 75.4486 4.5071 74.9846 4.5071C74.5172 4.5071 74.1294 4.63139 73.8212 4.87997C73.5163 5.12855 73.2892 5.45833 73.1401 5.86932C72.9943 6.27699 72.9213 6.72443 72.9213 7.21165C72.9213 7.70218 72.9943 8.15128 73.1401 8.55895C73.2892 8.96662 73.5163 9.29309 73.8212 9.53835C74.1294 9.78362 74.5172 9.90625 74.9846 9.90625ZM85.9208 5.22798L84.5735 5.46662C84.5172 5.29427 84.4277 5.13021 84.305 4.97443C84.1857 4.81865 84.0233 4.69105 83.8178 4.59162C83.6123 4.49219 83.3555 4.44247 83.0472 4.44247C82.6263 4.44247 82.275 4.53693 81.9933 4.72585C81.7115 4.91146 81.5707 5.15175 81.5707 5.44673C81.5707 5.70194 81.6651 5.90743 81.854 6.06321C82.043 6.21899 82.3479 6.34659 82.7688 6.44602L83.9819 6.72443C84.6845 6.88684 85.2082 7.13707 85.5529 7.47514C85.8976 7.81321 86.07 8.25237 86.07 8.79261C86.07 9.25 85.9374 9.65767 85.6722 10.0156C85.4104 10.3703 85.0442 10.6487 84.5735 10.8509C84.1062 11.053 83.5643 11.1541 82.9478 11.1541C82.0927 11.1541 81.395 10.9718 80.8548 10.6072C80.3145 10.2393 79.9831 9.71733 79.8604 9.04119L81.2972 8.82244C81.3867 9.19697 81.5707 9.48035 81.8491 9.67259C82.1275 9.86151 82.4904 9.95597 82.9379 9.95597C83.4251 9.95597 83.8145 9.85488 84.1062 9.6527C84.3978 9.44721 84.5437 9.19697 84.5437 8.90199C84.5437 8.66335 84.4542 8.46283 84.2752 8.30043C84.0996 8.13802 83.8294 8.01539 83.4648 7.93253L82.1722 7.64915C81.4596 7.48674 80.9326 7.22822 80.5913 6.87358C80.2532 6.51894 80.0842 6.06984 80.0842 5.52628C80.0842 5.07552 80.2101 4.68111 80.462 4.34304C80.7139 4.00497 81.0619 3.74148 81.506 3.55256C81.9502 3.36032 82.4589 3.2642 83.0323 3.2642C83.8576 3.2642 84.5072 3.44318 84.9812 3.80114C85.4551 4.15578 85.7683 4.63139 85.9208 5.22798ZM93.4267 5.22798L92.0794 5.46662C92.023 5.29427 91.9335 5.13021 91.8109 4.97443C91.6916 4.81865 91.5292 4.69105 91.3237 4.59162C91.1182 4.49219 90.8613 4.44247 90.5531 4.44247C90.1322 4.44247 89.7808 4.53693 89.4991 4.72585C89.2174 4.91146 89.0765 5.15175 89.0765 5.44673C89.0765 5.70194 89.171 5.90743 89.3599 6.06321C89.5488 6.21899 89.8538 6.34659 90.2747 6.44602L91.4877 6.72443C92.1904 6.88684 92.7141 7.13707 93.0588 7.47514C93.4035 7.81321 93.5758 8.25237 93.5758 8.79261C93.5758 9.25 93.4432 9.65767 93.1781 10.0156C92.9163 10.3703 92.55 10.6487 92.0794 10.8509C91.612 11.053 91.0701 11.1541 90.4537 11.1541C89.5985 11.1541 88.9009 10.9718 88.3606 10.6072C87.8204 10.2393 87.4889 9.71733 87.3663 9.04119L88.8031 8.82244C88.8926 9.19697 89.0765 9.48035 89.3549 9.67259C89.6333 9.86151 89.9963 9.95597 90.4437 9.95597C90.9309 9.95597 91.3204 9.85488 91.612 9.6527C91.9037 9.44721 92.0495 9.19697 92.0495 8.90199C92.0495 8.66335 91.96 8.46283 91.7811 8.30043C91.6054 8.13802 91.3353 8.01539 90.9707 7.93253L89.6781 7.64915C88.9655 7.48674 88.4385 7.22822 88.0971 6.87358C87.7591 6.51894 87.59 6.06984 87.59 5.52628C87.59 5.07552 87.716 4.68111 87.9679 4.34304C88.2198 4.00497 88.5678 3.74148 89.0119 3.55256C89.456 3.36032 89.9648 3.2642 90.5382 3.2642C91.3635 3.2642 92.0131 3.44318 92.487 3.80114C92.961 4.15578 93.2742 4.63139 93.4267 5.22798Z" fill="black"/>
</svg>
