<svg viewBox="0 0 49 12" fill="none" stroke-width="2" stroke="currentColor" aria-hidden="true">
  <path d="M3.22159 11.169C2.73769 11.169 2.30019 11.0795 1.90909 10.9006C1.51799 10.7183 1.2081 10.4548 0.979403 10.1101C0.754025 9.76539 0.641335 9.3428 0.641335 8.84233C0.641335 8.41146 0.724195 8.05682 0.889915 7.77841C1.05563 7.5 1.27936 7.27959 1.56108 7.11719C1.8428 6.95478 2.15767 6.83215 2.50568 6.74929C2.85369 6.66643 3.20833 6.60346 3.5696 6.56037C4.02699 6.50734 4.3982 6.46425 4.68324 6.43111C4.96828 6.39465 5.17543 6.33665 5.30469 6.2571C5.43395 6.17756 5.49858 6.0483 5.49858 5.86932V5.83452C5.49858 5.40033 5.37595 5.06392 5.13068 4.82528C4.88873 4.58665 4.52746 4.46733 4.04688 4.46733C3.5464 4.46733 3.15199 4.57836 2.86364 4.80043C2.5786 5.01918 2.38139 5.26278 2.27202 5.53125L0.875 5.21307C1.04072 4.74905 1.28267 4.37453 1.60085 4.08949C1.92235 3.80114 2.2919 3.59233 2.70952 3.46307C3.12713 3.33049 3.56629 3.2642 4.02699 3.2642C4.33191 3.2642 4.65507 3.30066 4.99645 3.37358C5.34115 3.44318 5.66264 3.57244 5.96094 3.76136C6.26255 3.95028 6.50947 4.22041 6.7017 4.57173C6.89394 4.91974 6.99006 5.37216 6.99006 5.92898V11H5.53835V9.95597H5.47869C5.38258 10.1482 5.2384 10.3371 5.04616 10.5227C4.85393 10.7083 4.60701 10.8625 4.3054 10.9851C4.00379 11.1077 3.64252 11.169 3.22159 11.169ZM3.54474 9.97585C3.95573 9.97585 4.30706 9.89465 4.59872 9.73224C4.8937 9.56984 5.11742 9.35772 5.26989 9.09588C5.42566 8.83073 5.50355 8.54735 5.50355 8.24574V7.26136C5.45052 7.31439 5.34777 7.36411 5.19531 7.41051C5.04616 7.4536 4.87547 7.49171 4.68324 7.52486C4.491 7.55469 4.30374 7.58286 4.12145 7.60938C3.93916 7.63258 3.7867 7.65246 3.66406 7.66903C3.37571 7.70549 3.11222 7.76681 2.87358 7.85298C2.63826 7.93916 2.44934 8.06345 2.30682 8.22585C2.16761 8.38494 2.09801 8.59706 2.09801 8.86222C2.09801 9.23011 2.2339 9.50852 2.50568 9.69744C2.77746 9.88305 3.12382 9.97585 3.54474 9.97585ZM8.96999 11V3.36364H10.4068V4.5767H10.4863C10.6255 4.16572 10.8708 3.84257 11.2221 3.60724C11.5768 3.36861 11.9778 3.24929 12.4252 3.24929C12.5181 3.24929 12.6274 3.2526 12.7534 3.25923C12.8826 3.26586 12.9837 3.27415 13.0566 3.28409V4.70597C12.997 4.68939 12.8909 4.67116 12.7385 4.65128C12.586 4.62808 12.4335 4.61648 12.2811 4.61648C11.9297 4.61648 11.6165 4.69105 11.3414 4.8402C11.0697 4.98603 10.8542 5.18987 10.6951 5.4517C10.536 5.71023 10.4565 6.00521 10.4565 6.33665V11H8.96999ZM17.2862 11.1541C16.5471 11.1541 15.9107 10.9867 15.3771 10.652C14.8468 10.3139 14.4392 9.84825 14.1541 9.25497C13.8691 8.66169 13.7266 7.98224 13.7266 7.21662C13.7266 6.44105 13.8724 5.75663 14.1641 5.16335C14.4557 4.56676 14.8667 4.10109 15.397 3.76633C15.9273 3.43158 16.5521 3.2642 17.2713 3.2642C17.8513 3.2642 18.3684 3.37192 18.8224 3.58736C19.2765 3.79948 19.6428 4.09777 19.9212 4.48224C20.2029 4.86671 20.3703 5.31581 20.4233 5.82955H18.9766C18.897 5.47159 18.7147 5.16335 18.4297 4.90483C18.148 4.64631 17.7701 4.51705 17.2962 4.51705C16.8819 4.51705 16.5189 4.62642 16.2074 4.84517C15.8991 5.06061 15.6589 5.36884 15.4865 5.76989C15.3142 6.16761 15.228 6.63826 15.228 7.18182C15.228 7.73864 15.3125 8.21922 15.4815 8.62358C15.6506 9.02794 15.8892 9.34115 16.1974 9.56321C16.509 9.78527 16.8752 9.89631 17.2962 9.89631C17.5779 9.89631 17.8331 9.84493 18.0618 9.74219C18.2938 9.63613 18.4877 9.48532 18.6435 9.28977C18.8026 9.09422 18.9136 8.8589 18.9766 8.58381H20.4233C20.3703 9.07765 20.2095 9.51847 19.9411 9.90625C19.6726 10.294 19.313 10.599 18.8622 10.821C18.4148 11.0431 17.8894 11.1541 17.2862 11.1541ZM23.4995 6.46591V11H22.013V0.818182H23.4796V4.60653H23.574C23.753 4.19555 24.0265 3.86908 24.3944 3.62713C24.7623 3.38518 25.2428 3.2642 25.8361 3.2642C26.3598 3.2642 26.8172 3.37192 27.2083 3.58736C27.6027 3.80279 27.9076 4.12429 28.123 4.55185C28.3418 4.97609 28.4512 5.50639 28.4512 6.14276V11H26.9647V6.32173C26.9647 5.7616 26.8205 5.32741 26.5321 5.01918C26.2438 4.70762 25.8427 4.55185 25.329 4.55185C24.9777 4.55185 24.6628 4.62642 24.3844 4.77557C24.1093 4.92472 23.8922 5.14347 23.7331 5.43182C23.5774 5.71686 23.4995 6.06155 23.4995 6.46591ZM30.4348 11V3.36364H31.9213V11H30.4348ZM31.1855 2.18537C30.927 2.18537 30.705 2.09919 30.5194 1.92685C30.3371 1.75118 30.2459 1.54238 30.2459 1.30043C30.2459 1.05516 30.3371 0.846354 30.5194 0.674005C30.705 0.498342 30.927 0.410511 31.1855 0.410511C31.4441 0.410511 31.6645 0.498342 31.8468 0.674005C32.0324 0.846354 32.1252 1.05516 32.1252 1.30043C32.1252 1.54238 32.0324 1.75118 31.8468 1.92685C31.6645 2.09919 31.4441 2.18537 31.1855 2.18537ZM40.4538 3.36364L37.6847 11H36.0938L33.3196 3.36364H34.9155L36.8494 9.24006H36.929L38.858 3.36364H40.4538ZM44.8823 11.1541C44.1299 11.1541 43.4819 10.9934 42.9384 10.6719C42.3981 10.3471 41.9805 9.89134 41.6855 9.30469C41.3939 8.71473 41.248 8.02367 41.248 7.23153C41.248 6.44934 41.3939 5.75994 41.6855 5.16335C41.9805 4.56676 42.3915 4.10109 42.9185 3.76633C43.4488 3.43158 44.0686 3.2642 44.7779 3.2642C45.2087 3.2642 45.6264 3.33546 46.0307 3.47798C46.4351 3.6205 46.798 3.84422 47.1195 4.14915C47.441 4.45407 47.6945 4.85014 47.8801 5.33736C48.0658 5.82126 48.1586 6.40956 48.1586 7.10227V7.62926H42.0882V6.51562H46.7019C46.7019 6.12453 46.6223 5.77817 46.4632 5.47656C46.3042 5.17164 46.0804 4.93134 45.7921 4.75568C45.507 4.58002 45.1723 4.49219 44.7878 4.49219C44.3702 4.49219 44.0056 4.59493 43.6941 4.80043C43.3858 5.0026 43.1472 5.26776 42.9782 5.59588C42.8124 5.92069 42.7296 6.27367 42.7296 6.65483V7.52486C42.7296 8.03527 42.8191 8.46946 42.998 8.82741C43.1803 9.18537 43.4339 9.45881 43.7587 9.64773C44.0835 9.83333 44.463 9.92614 44.8972 9.92614C45.1789 9.92614 45.4358 9.88636 45.6678 9.80682C45.8998 9.72396 46.1003 9.60133 46.2694 9.43892C46.4384 9.27652 46.5676 9.07599 46.6571 8.83736L48.0641 9.09091C47.9514 9.50521 47.7492 9.86813 47.4576 10.1797C47.1692 10.4879 46.8063 10.7282 46.3688 10.9006C45.9346 11.0696 45.4391 11.1541 44.8823 11.1541Z" fill="black"/>
</svg>
