<svg viewBox="0 0 91 14" fill="none" stroke-width="2" stroke="currentColor" aria-hidden="true">
  <path d="M-0.000710189 11V3.36364H1.42614V4.60653H1.5206C1.67969 4.18561 1.93987 3.85748 2.30114 3.62216C2.66241 3.38352 3.09493 3.2642 3.59872 3.2642C4.10914 3.2642 4.5367 3.38352 4.88139 3.62216C5.2294 3.8608 5.48627 4.18892 5.65199 4.60653H5.73153C5.91383 4.19886 6.20384 3.87405 6.60156 3.6321C6.99929 3.38684 7.47325 3.2642 8.02344 3.2642C8.71615 3.2642 9.28125 3.4813 9.71875 3.91548C10.1596 4.34967 10.38 5.00426 10.38 5.87926V11H8.89347V6.01847C8.89347 5.50142 8.7526 5.12689 8.47088 4.89489C8.18916 4.66288 7.85275 4.54688 7.46165 4.54688C6.97775 4.54688 6.60156 4.69602 6.3331 4.99432C6.06463 5.2893 5.9304 5.6688 5.9304 6.13281V11H4.44886V5.92401C4.44886 5.50971 4.3196 5.17661 4.06108 4.92472C3.80256 4.67282 3.46615 4.54688 3.05185 4.54688C2.77012 4.54688 2.50994 4.62145 2.27131 4.7706C2.03599 4.91643 1.84541 5.12026 1.69957 5.3821C1.55706 5.64394 1.4858 5.94721 1.4858 6.2919V11H-0.000710189ZM12.3723 11V3.36364H13.8588V11H12.3723ZM13.123 2.18537C12.8645 2.18537 12.6425 2.09919 12.4569 1.92685C12.2746 1.75118 12.1834 1.54238 12.1834 1.30043C12.1834 1.05516 12.2746 0.846354 12.4569 0.674005C12.6425 0.498342 12.8645 0.410511 13.123 0.410511C13.3816 0.410511 13.602 0.498342 13.7843 0.674005C13.9699 0.846354 14.0627 1.05516 14.0627 1.30043C14.0627 1.54238 13.9699 1.75118 13.7843 1.92685C13.602 2.09919 13.3816 2.18537 13.123 2.18537ZM17.3452 6.46591V11H15.8587V3.36364H17.2855V4.60653H17.38C17.5556 4.20218 17.8307 3.87737 18.2053 3.6321C18.5831 3.38684 19.0587 3.2642 19.6321 3.2642C20.1525 3.2642 20.6082 3.37358 20.9993 3.59233C21.3904 3.80777 21.6937 4.12926 21.9091 4.55682C22.1245 4.98437 22.2322 5.51302 22.2322 6.14276V11H20.7457V6.32173C20.7457 5.76823 20.6016 5.3357 20.3132 5.02415C20.0249 4.70928 19.6288 4.55185 19.125 4.55185C18.7803 4.55185 18.4737 4.62642 18.2053 4.77557C17.9401 4.92472 17.7296 5.14347 17.5739 5.43182C17.4214 5.71686 17.3452 6.06155 17.3452 6.46591ZM29.0632 7.8331V3.36364H30.5547V11H29.093V9.67756H29.0135C28.8378 10.0852 28.5561 10.425 28.1683 10.6967C27.7839 10.9652 27.3049 11.0994 26.7315 11.0994C26.241 11.0994 25.8068 10.9917 25.429 10.7763C25.0545 10.5575 24.7595 10.2344 24.544 9.80682C24.3319 9.37926 24.2259 8.85062 24.2259 8.22088V3.36364H25.7124V8.0419C25.7124 8.56226 25.8565 8.97656 26.1449 9.2848C26.4332 9.59304 26.8078 9.74716 27.2685 9.74716C27.5469 9.74716 27.8236 9.67756 28.0987 9.53835C28.3771 9.39915 28.6075 9.18868 28.7898 8.90696C28.9754 8.62524 29.0665 8.26728 29.0632 7.8331ZM38.2743 5.22798L36.927 5.46662C36.8707 5.29427 36.7812 5.13021 36.6586 4.97443C36.5392 4.81865 36.3768 4.69105 36.1713 4.59162C35.9659 4.49219 35.709 4.44247 35.4007 4.44247C34.9798 4.44247 34.6285 4.53693 34.3468 4.72585C34.065 4.91146 33.9242 5.15175 33.9242 5.44673C33.9242 5.70194 34.0186 5.90743 34.2076 6.06321C34.3965 6.21899 34.7014 6.34659 35.1223 6.44602L36.3354 6.72443C37.0381 6.88684 37.5617 7.13707 37.9064 7.47514C38.2511 7.81321 38.4235 8.25237 38.4235 8.79261C38.4235 9.25 38.2909 9.65767 38.0257 10.0156C37.7639 10.3703 37.3977 10.6487 36.927 10.8509C36.4597 11.053 35.9178 11.1541 35.3013 11.1541C34.4462 11.1541 33.7485 10.9718 33.2083 10.6072C32.668 10.2393 32.3366 9.71733 32.214 9.04119L33.6507 8.82244C33.7402 9.19697 33.9242 9.48035 34.2026 9.67259C34.481 9.86151 34.8439 9.95597 35.2914 9.95597C35.7786 9.95597 36.168 9.85488 36.4597 9.6527C36.7514 9.44721 36.8972 9.19697 36.8972 8.90199C36.8972 8.66335 36.8077 8.46283 36.6287 8.30043C36.4531 8.13802 36.1829 8.01539 35.8184 7.93253L34.5257 7.64915C33.8132 7.48674 33.2862 7.22822 32.9448 6.87358C32.6067 6.51894 32.4377 6.06984 32.4377 5.52628C32.4377 5.07552 32.5636 4.68111 32.8155 4.34304C33.0674 4.00497 33.4154 3.74148 33.8596 3.55256C34.3037 3.36032 34.8124 3.2642 35.3858 3.2642C36.2111 3.2642 36.8607 3.44318 37.3347 3.80114C37.8087 4.15578 38.1219 4.63139 38.2743 5.22798ZM44.5572 6.05327V7.34091H40.043V6.05327H44.5572ZM52.2607 5.22798L50.9134 5.46662C50.857 5.29427 50.7675 5.13021 50.6449 4.97443C50.5256 4.81865 50.3632 4.69105 50.1577 4.59162C49.9522 4.49219 49.6953 4.44247 49.3871 4.44247C48.9661 4.44247 48.6148 4.53693 48.3331 4.72585C48.0514 4.91146 47.9105 5.15175 47.9105 5.44673C47.9105 5.70194 48.005 5.90743 48.1939 6.06321C48.3828 6.21899 48.6877 6.34659 49.1087 6.44602L50.3217 6.72443C51.0244 6.88684 51.5481 7.13707 51.8928 7.47514C52.2375 7.81321 52.4098 8.25237 52.4098 8.79261C52.4098 9.25 52.2772 9.65767 52.0121 10.0156C51.7502 10.3703 51.384 10.6487 50.9134 10.8509C50.446 11.053 49.9041 11.1541 49.2876 11.1541C48.4325 11.1541 47.7348 10.9718 47.1946 10.6072C46.6544 10.2393 46.3229 9.71733 46.2003 9.04119L47.6371 8.82244C47.7266 9.19697 47.9105 9.48035 48.1889 9.67259C48.4673 9.86151 48.8303 9.95597 49.2777 9.95597C49.7649 9.95597 50.1544 9.85488 50.446 9.6527C50.7377 9.44721 50.8835 9.19697 50.8835 8.90199C50.8835 8.66335 50.794 8.46283 50.6151 8.30043C50.4394 8.13802 50.1693 8.01539 49.8047 7.93253L48.5121 7.64915C47.7995 7.48674 47.2725 7.22822 46.9311 6.87358C46.593 6.51894 46.424 6.06984 46.424 5.52628C46.424 5.07552 46.55 4.68111 46.8018 4.34304C47.0537 4.00497 47.4018 3.74148 47.8459 3.55256C48.29 3.36032 48.7988 3.2642 49.3722 3.2642C50.1974 3.2642 50.8471 3.44318 51.321 3.80114C51.795 4.15578 52.1082 4.63139 52.2607 5.22798ZM59.1998 13.8636V9.81179H59.1103C59.0208 9.9742 58.8915 10.1598 58.7225 10.3686C58.5568 10.5774 58.3281 10.7597 58.0364 10.9155C57.7447 11.0713 57.3669 11.1491 56.9029 11.1491C56.2864 11.1491 55.7362 10.9917 55.2523 10.6768C54.7717 10.3587 54.3939 9.90625 54.1188 9.3196C53.847 8.72964 53.7111 8.02202 53.7111 7.19673C53.7111 6.37145 53.8487 5.66548 54.1238 5.07884C54.4022 4.49219 54.7833 4.04309 55.2672 3.73153C55.7511 3.41998 56.2997 3.2642 56.9128 3.2642C57.3868 3.2642 57.7679 3.34375 58.0563 3.50284C58.348 3.65862 58.5733 3.84091 58.7324 4.04972C58.8948 4.25852 59.0208 4.44247 59.1103 4.60156H59.2346V3.36364H60.6863V13.8636H59.1998ZM57.231 9.88139C57.6586 9.88139 58.0198 9.7687 58.3148 9.54332C58.6131 9.31463 58.8385 8.99811 58.9909 8.59375C59.1467 8.18939 59.2246 7.71875 59.2246 7.18182C59.2246 6.65151 59.1484 6.1875 58.9959 5.78977C58.8435 5.39205 58.6197 5.08215 58.3248 4.86009C58.0298 4.63802 57.6652 4.52699 57.231 4.52699C56.7836 4.52699 56.4107 4.64299 56.1124 4.875C55.8141 5.10701 55.5887 5.42353 55.4363 5.82457C55.2871 6.22562 55.2125 6.67803 55.2125 7.18182C55.2125 7.69223 55.2888 8.15128 55.4412 8.55895C55.5937 8.96662 55.8191 9.28977 56.1174 9.52841C56.419 9.76373 56.7902 9.88139 57.231 9.88139ZM67.5222 7.8331V3.36364H69.0137V11H67.552V9.67756H67.4725C67.2968 10.0852 67.0151 10.425 66.6273 10.6967C66.2428 10.9652 65.7639 11.0994 65.1905 11.0994C64.7 11.0994 64.2658 10.9917 63.888 10.7763C63.5134 10.5575 63.2185 10.2344 63.003 9.80682C62.7909 9.37926 62.6848 8.85062 62.6848 8.22088V3.36364H64.1713V8.0419C64.1713 8.56226 64.3155 8.97656 64.6039 9.2848C64.8922 9.59304 65.2667 9.74716 65.7275 9.74716C66.0059 9.74716 66.2826 9.67756 66.5577 9.53835C66.8361 9.39915 67.0665 9.18868 67.2488 8.90696C67.4344 8.62524 67.5255 8.26728 67.5222 7.8331ZM73.2333 11.169C72.7494 11.169 72.3119 11.0795 71.9208 10.9006C71.5297 10.7183 71.2198 10.4548 70.9911 10.1101C70.7657 9.76539 70.6531 9.3428 70.6531 8.84233C70.6531 8.41146 70.7359 8.05682 70.9016 7.77841C71.0674 7.5 71.2911 7.27959 71.5728 7.11719C71.8545 6.95478 72.1694 6.83215 72.5174 6.74929C72.8654 6.66643 73.2201 6.60346 73.5813 6.56037C74.0387 6.50734 74.4099 6.46425 74.695 6.43111C74.98 6.39465 75.1871 6.33665 75.3164 6.2571C75.4457 6.17756 75.5103 6.0483 75.5103 5.86932V5.83452C75.5103 5.40033 75.3877 5.06392 75.1424 4.82528C74.9005 4.58665 74.5392 4.46733 74.0586 4.46733C73.5581 4.46733 73.1637 4.57836 72.8754 4.80043C72.5903 5.01918 72.3931 5.26278 72.2837 5.53125L70.8867 5.21307C71.0524 4.74905 71.2944 4.37453 71.6126 4.08949C71.9341 3.80114 72.3036 3.59233 72.7212 3.46307C73.1388 3.33049 73.578 3.2642 74.0387 3.2642C74.3436 3.2642 74.6668 3.30066 75.0082 3.37358C75.3529 3.44318 75.6744 3.57244 75.9727 3.76136C76.2743 3.95028 76.5212 4.22041 76.7134 4.57173C76.9057 4.91974 77.0018 5.37216 77.0018 5.92898V11H75.5501V9.95597H75.4904C75.3943 10.1482 75.2501 10.3371 75.0579 10.5227C74.8656 10.7083 74.6187 10.8625 74.3171 10.9851C74.0155 11.1077 73.6542 11.169 73.2333 11.169ZM73.5565 9.97585C73.9674 9.97585 74.3188 9.89465 74.6104 9.73224C74.9054 9.56984 75.1291 9.35772 75.2816 9.09588C75.4374 8.83073 75.5153 8.54735 75.5153 8.24574V7.26136C75.4622 7.31439 75.3595 7.36411 75.207 7.41051C75.0579 7.4536 74.8872 7.49171 74.695 7.52486C74.5027 7.55469 74.3155 7.58286 74.1332 7.60938C73.9509 7.63258 73.7984 7.65246 73.6758 7.66903C73.3874 7.70549 73.1239 7.76681 72.8853 7.85298C72.65 7.93916 72.4611 8.06345 72.3185 8.22585C72.1793 8.38494 72.1097 8.59706 72.1097 8.86222C72.1097 9.23011 72.2456 9.50852 72.5174 9.69744C72.7892 9.88305 73.1355 9.97585 73.5565 9.97585ZM78.9817 11V3.36364H80.4185V4.5767H80.498C80.6373 4.16572 80.8825 3.84257 81.2338 3.60724C81.5885 3.36861 81.9895 3.24929 82.437 3.24929C82.5298 3.24929 82.6391 3.2526 82.7651 3.25923C82.8944 3.26586 82.9954 3.27415 83.0684 3.28409V4.70597C83.0087 4.68939 82.9026 4.67116 82.7502 4.65128C82.5977 4.62808 82.4453 4.61648 82.2928 4.61648C81.9415 4.61648 81.6283 4.69105 81.3532 4.8402C81.0814 4.98603 80.8659 5.18987 80.7069 5.4517C80.5478 5.71023 80.4682 6.00521 80.4682 6.33665V11H78.9817ZM87.3725 11.1541C86.6201 11.1541 85.9722 10.9934 85.4286 10.6719C84.8884 10.3471 84.4708 9.89134 84.1758 9.30469C83.8841 8.71473 83.7383 8.02367 83.7383 7.23153C83.7383 6.44934 83.8841 5.75994 84.1758 5.16335C84.4708 4.56676 84.8817 4.10109 85.4087 3.76633C85.939 3.43158 86.5588 3.2642 87.2681 3.2642C87.699 3.2642 88.1166 3.33546 88.521 3.47798C88.9253 3.6205 89.2882 3.84422 89.6097 4.14915C89.9312 4.45407 90.1848 4.85014 90.3704 5.33736C90.556 5.82126 90.6488 6.40956 90.6488 7.10227V7.62926H84.5785V6.51562H89.1921C89.1921 6.12453 89.1126 5.77817 88.9535 5.47656C88.7944 5.17164 88.5707 4.93134 88.2823 4.75568C87.9973 4.58002 87.6625 4.49219 87.2781 4.49219C86.8604 4.49219 86.4959 4.59493 86.1843 4.80043C85.8761 5.0026 85.6374 5.26776 85.4684 5.59588C85.3027 5.92069 85.2198 6.27367 85.2198 6.65483V7.52486C85.2198 8.03527 85.3093 8.46946 85.4883 8.82741C85.6706 9.18537 85.9241 9.45881 86.2489 9.64773C86.5737 9.83333 86.9532 9.92614 87.3874 9.92614C87.6692 9.92614 87.926 9.88636 88.158 9.80682C88.39 9.72396 88.5906 9.60133 88.7596 9.43892C88.9286 9.27652 89.0579 9.07599 89.1474 8.83736L90.5543 9.09091C90.4416 9.50521 90.2395 9.86813 89.9478 10.1797C89.6594 10.4879 89.2965 10.7282 88.859 10.9006C88.4248 11.0696 87.9293 11.1541 87.3725 11.1541Z" fill="black"/>
</svg>
