<svg viewBox="0 0 49 12" fill="none" stroke-width="2" stroke="currentColor" aria-hidden="true">
  <path d="M4.29048 11.1541C3.53812 11.1541 2.89015 10.9934 2.34659 10.6719C1.80634 10.3471 1.38873 9.89134 1.09375 9.30469C0.802083 8.71473 0.65625 8.02367 0.65625 7.23153C0.65625 6.44934 0.802083 5.75994 1.09375 5.16335C1.38873 4.56676 1.79972 4.10109 2.3267 3.76633C2.85701 3.43158 3.4768 3.2642 4.18608 3.2642C4.61695 3.2642 5.03456 3.33546 5.43892 3.47798C5.84328 3.6205 6.2062 3.84422 6.5277 4.14915C6.8492 4.45407 7.10275 4.85014 7.28835 5.33736C7.47396 5.82126 7.56676 6.40956 7.56676 7.10227V7.62926H1.49645V6.51562H6.11009C6.11009 6.12453 6.03054 5.77817 5.87145 5.47656C5.71236 5.17164 5.48864 4.93134 5.20028 4.75568C4.91525 4.58002 4.58049 4.49219 4.19602 4.49219C3.77841 4.49219 3.41383 4.59493 3.10227 4.80043C2.79403 5.0026 2.5554 5.26776 2.38636 5.59588C2.22064 5.92069 2.13778 6.27367 2.13778 6.65483V7.52486C2.13778 8.03527 2.22727 8.46946 2.40625 8.82741C2.58854 9.18537 2.84209 9.45881 3.1669 9.64773C3.49171 9.83333 3.87121 9.92614 4.3054 9.92614C4.58712 9.92614 4.84399 9.88636 5.07599 9.80682C5.308 9.72396 5.50852 9.60133 5.67756 9.43892C5.84659 9.27652 5.97585 9.07599 6.06534 8.83736L7.4723 9.09091C7.35961 9.50521 7.15743 9.86813 6.86577 10.1797C6.57741 10.4879 6.21449 10.7282 5.77699 10.9006C5.3428 11.0696 4.8473 11.1541 4.29048 11.1541ZM12.0748 11.1491C11.4583 11.1491 10.9081 10.9917 10.4242 10.6768C9.9436 10.3587 9.56576 9.90625 9.29066 9.3196C9.01888 8.72964 8.88299 8.02202 8.88299 7.19673C8.88299 6.37145 9.02054 5.66548 9.29563 5.07884C9.57404 4.49219 9.9552 4.04309 10.4391 3.73153C10.923 3.41998 11.4715 3.2642 12.0847 3.2642C12.5587 3.2642 12.9398 3.34375 13.2282 3.50284C13.5198 3.65862 13.7452 3.84091 13.9043 4.04972C14.0667 4.25852 14.1926 4.44247 14.2821 4.60156H14.3716V0.818182H15.8581V11H14.4064V9.81179H14.2821C14.1926 9.9742 14.0634 10.1598 13.8944 10.3686C13.7286 10.5774 13.4999 10.7597 13.2083 10.9155C12.9166 11.0713 12.5388 11.1491 12.0748 11.1491ZM12.4029 9.88139C12.8304 9.88139 13.1917 9.7687 13.4867 9.54332C13.785 9.31463 14.0104 8.99811 14.1628 8.59375C14.3186 8.18939 14.3965 7.71875 14.3965 7.18182C14.3965 6.65151 14.3203 6.1875 14.1678 5.78977C14.0153 5.39205 13.7916 5.08215 13.4966 4.86009C13.2016 4.63802 12.8371 4.52699 12.4029 4.52699C11.9554 4.52699 11.5826 4.64299 11.2843 4.875C10.986 5.10701 10.7606 5.42353 10.6081 5.82457C10.459 6.22562 10.3844 6.67803 10.3844 7.18182C10.3844 7.69223 10.4606 8.15128 10.6131 8.55895C10.7656 8.96662 10.9909 9.28977 11.2892 9.52841C11.5908 9.76373 11.9621 9.88139 12.4029 9.88139ZM17.9798 11V3.36364H19.4663V11H17.9798ZM18.7305 2.18537C18.4719 2.18537 18.2499 2.09919 18.0643 1.92685C17.882 1.75118 17.7908 1.54238 17.7908 1.30043C17.7908 1.05516 17.882 0.846354 18.0643 0.674005C18.2499 0.498342 18.4719 0.410511 18.7305 0.410511C18.989 0.410511 19.2094 0.498342 19.3917 0.674005C19.5773 0.846354 19.6701 1.05516 19.6701 1.30043C19.6701 1.54238 19.5773 1.75118 19.3917 1.92685C19.2094 2.09919 18.989 2.18537 18.7305 2.18537ZM25.0307 3.36364V4.55682H20.8596V3.36364H25.0307ZM21.9782 1.53409H23.4647V8.75781C23.4647 9.04616 23.5078 9.26326 23.5939 9.40909C23.6801 9.55161 23.7911 9.64938 23.927 9.70241C24.0662 9.75213 24.217 9.77699 24.3794 9.77699C24.4988 9.77699 24.6032 9.7687 24.6926 9.75213C24.7821 9.73556 24.8517 9.7223 24.9015 9.71236L25.1699 10.9403C25.0837 10.9735 24.9611 11.0066 24.802 11.0398C24.6429 11.0762 24.4441 11.0961 24.2054 11.0994C23.8143 11.1061 23.4498 11.0365 23.1117 10.8906C22.7736 10.7448 22.5002 10.5194 22.2914 10.2145C22.0826 9.90956 21.9782 9.52675 21.9782 9.06605V1.53409ZM30.9146 6.05327V7.34091H26.4004V6.05327H30.9146ZM36.4206 11.169C35.6351 11.1657 34.964 10.9586 34.4071 10.5476C33.8503 10.1366 33.4244 9.53835 33.1294 8.75284C32.8345 7.96733 32.687 7.02107 32.687 5.91406C32.687 4.81037 32.8345 3.86742 33.1294 3.08523C33.4277 2.30303 33.8553 1.70644 34.4121 1.29545C34.9722 0.884469 35.6417 0.678977 36.4206 0.678977C37.1995 0.678977 37.8674 0.886126 38.4242 1.30043C38.981 1.71141 39.4069 2.308 39.7019 3.0902C40.0002 3.86908 40.1493 4.81037 40.1493 5.91406C40.1493 7.02438 40.0018 7.9723 39.7069 8.75781C39.4119 9.54001 38.986 10.1383 38.4292 10.5526C37.8723 10.9635 37.2028 11.169 36.4206 11.169ZM36.4206 9.84162C37.11 9.84162 37.6486 9.50521 38.0364 8.83239C38.4275 8.15956 38.623 7.18679 38.623 5.91406C38.623 5.06889 38.5336 4.35464 38.3546 3.77131C38.1789 3.18466 37.9254 2.74053 37.5939 2.43892C37.2658 2.134 36.8747 1.98153 36.4206 1.98153C35.7346 1.98153 35.196 2.3196 34.8049 2.99574C34.4138 3.67187 34.2166 4.64465 34.2132 5.91406C34.2132 6.76255 34.3011 7.48011 34.4767 8.06676C34.6557 8.65009 34.9093 9.09257 35.2374 9.39418C35.5655 9.69247 35.9599 9.84162 36.4206 9.84162ZM41.913 11V9.88636L45.3583 6.31676C45.7262 5.92898 46.0295 5.58925 46.2681 5.29759C46.5101 5.0026 46.6907 4.72254 46.81 4.45739C46.9293 4.19223 46.989 3.91051 46.989 3.61222C46.989 3.27415 46.9094 2.98248 46.7504 2.73722C46.5913 2.48864 46.3742 2.29806 46.0991 2.16548C45.824 2.02959 45.5141 1.96165 45.1694 1.96165C44.8048 1.96165 44.4866 2.03622 44.2148 2.18537C43.9431 2.33452 43.7343 2.54498 43.5884 2.81676C43.4426 3.08854 43.3697 3.40672 43.3697 3.77131H41.9031C41.9031 3.15151 42.0456 2.60961 42.3306 2.1456C42.6156 1.68158 43.0067 1.32197 43.5039 1.06676C44.0011 0.808238 44.5662 0.678977 45.1992 0.678977C45.8389 0.678977 46.4023 0.806581 46.8896 1.06179C47.3801 1.31368 47.7629 1.65838 48.038 2.09588C48.3131 2.53007 48.4506 3.0206 48.4506 3.56747C48.4506 3.94531 48.3794 4.31487 48.2369 4.67614C48.0977 5.0374 47.854 5.4401 47.506 5.88423C47.158 6.32505 46.6741 6.86032 46.0543 7.49006L44.0309 9.60795V9.68253H48.6147V11H41.913Z" fill="black"/>
</svg>
