<svg viewBox="0 0 77 12" fill="none" stroke-width="2" stroke="currentColor" aria-hidden="true">
  <path d="M1.4858 6.46591V11H-0.000710189V0.818182H1.46591V4.60653H1.56037C1.73935 4.19555 2.01278 3.86908 2.38068 3.62713C2.74858 3.38518 3.22917 3.2642 3.82244 3.2642C4.34612 3.2642 4.8035 3.37192 5.1946 3.58736C5.58902 3.80279 5.89394 4.12429 6.10938 4.55185C6.32812 4.97609 6.4375 5.50639 6.4375 6.14276V11H4.95099V6.32173C4.95099 5.7616 4.80682 5.32741 4.51847 5.01918C4.23011 4.70762 3.82907 4.55185 3.31534 4.55185C2.96402 4.55185 2.64915 4.62642 2.37074 4.77557C2.09564 4.92472 1.87855 5.14347 1.71946 5.43182C1.56368 5.71686 1.4858 6.06155 1.4858 6.46591ZM11.7124 11.1541C10.96 11.1541 10.312 10.9934 9.76847 10.6719C9.22822 10.3471 8.81061 9.89134 8.51562 9.30469C8.22396 8.71473 8.07812 8.02367 8.07812 7.23153C8.07812 6.44934 8.22396 5.75994 8.51562 5.16335C8.81061 4.56676 9.22159 4.10109 9.74858 3.76633C10.2789 3.43158 10.8987 3.2642 11.608 3.2642C12.0388 3.2642 12.4564 3.33546 12.8608 3.47798C13.2652 3.6205 13.6281 3.84422 13.9496 4.14915C14.2711 4.45407 14.5246 4.85014 14.7102 5.33736C14.8958 5.82126 14.9886 6.40956 14.9886 7.10227V7.62926H8.91832V6.51562H13.532C13.532 6.12453 13.4524 5.77817 13.2933 5.47656C13.1342 5.17164 12.9105 4.93134 12.6222 4.75568C12.3371 4.58002 12.0024 4.49219 11.6179 4.49219C11.2003 4.49219 10.8357 4.59493 10.5241 4.80043C10.2159 5.0026 9.97727 5.26776 9.80824 5.59588C9.64252 5.92069 9.55966 6.27367 9.55966 6.65483V7.52486C9.55966 8.03527 9.64915 8.46946 9.82812 8.82741C10.0104 9.18537 10.264 9.45881 10.5888 9.64773C10.9136 9.83333 11.2931 9.92614 11.7273 9.92614C12.009 9.92614 12.2659 9.88636 12.4979 9.80682C12.7299 9.72396 12.9304 9.60133 13.0994 9.43892C13.2685 9.27652 13.3977 9.07599 13.4872 8.83736L14.8942 9.09091C14.7815 9.50521 14.5793 9.86813 14.2876 10.1797C13.9993 10.4879 13.6364 10.7282 13.1989 10.9006C12.7647 11.0696 12.2692 11.1541 11.7124 11.1541ZM18.8603 11.169C18.3764 11.169 17.9389 11.0795 17.5478 10.9006C17.1567 10.7183 16.8468 10.4548 16.6181 10.1101C16.3927 9.76539 16.28 9.3428 16.28 8.84233C16.28 8.41146 16.3629 8.05682 16.5286 7.77841C16.6943 7.5 16.918 7.27959 17.1998 7.11719C17.4815 6.95478 17.7963 6.83215 18.1444 6.74929C18.4924 6.66643 18.847 6.60346 19.2083 6.56037C19.6657 6.50734 20.0369 6.46425 20.3219 6.43111C20.6069 6.39465 20.8141 6.33665 20.9434 6.2571C21.0726 6.17756 21.1373 6.0483 21.1373 5.86932V5.83452C21.1373 5.40033 21.0146 5.06392 20.7694 4.82528C20.5274 4.58665 20.1661 4.46733 19.6855 4.46733C19.1851 4.46733 18.7907 4.57836 18.5023 4.80043C18.2173 5.01918 18.0201 5.26278 17.9107 5.53125L16.5137 5.21307C16.6794 4.74905 16.9213 4.37453 17.2395 4.08949C17.561 3.80114 17.9306 3.59233 18.3482 3.46307C18.7658 3.33049 19.205 3.2642 19.6657 3.2642C19.9706 3.2642 20.2937 3.30066 20.6351 3.37358C20.9798 3.44318 21.3013 3.57244 21.5996 3.76136C21.9012 3.95028 22.1481 4.22041 22.3404 4.57173C22.5326 4.91974 22.6287 5.37216 22.6287 5.92898V11H21.177V9.95597H21.1174C21.0212 10.1482 20.8771 10.3371 20.6848 10.5227C20.4926 10.7083 20.2457 10.8625 19.9441 10.9851C19.6425 11.1077 19.2812 11.169 18.8603 11.169ZM19.1834 9.97585C19.5944 9.97585 19.9457 9.89465 20.2374 9.73224C20.5324 9.56984 20.7561 9.35772 20.9086 9.09588C21.0643 8.83073 21.1422 8.54735 21.1422 8.24574V7.26136C21.0892 7.31439 20.9864 7.36411 20.834 7.41051C20.6848 7.4536 20.5141 7.49171 20.3219 7.52486C20.1297 7.55469 19.9424 7.58286 19.7601 7.60938C19.5778 7.63258 19.4254 7.65246 19.3027 7.66903C19.0144 7.70549 18.7509 7.76681 18.5123 7.85298C18.2769 7.93916 18.088 8.06345 17.9455 8.22585C17.8063 8.38494 17.7367 8.59706 17.7367 8.86222C17.7367 9.23011 17.8726 9.50852 18.1444 9.69744C18.4161 9.88305 18.7625 9.97585 19.1834 9.97585ZM24.6087 11V3.36364H26.0455V4.5767H26.125C26.2642 4.16572 26.5095 3.84257 26.8608 3.60724C27.2154 3.36861 27.6165 3.24929 28.0639 3.24929C28.1567 3.24929 28.2661 3.2526 28.392 3.25923C28.5213 3.26586 28.6224 3.27415 28.6953 3.28409V4.70597C28.6357 4.68939 28.5296 4.67116 28.3771 4.65128C28.2247 4.62808 28.0722 4.61648 27.9197 4.61648C27.5684 4.61648 27.2552 4.69105 26.9801 4.8402C26.7083 4.98603 26.4929 5.18987 26.3338 5.4517C26.1747 5.71023 26.0952 6.00521 26.0952 6.33665V11H24.6087ZM33.9975 3.36364V4.55682H29.8263V3.36364H33.9975ZM30.945 1.53409H32.4315V8.75781C32.4315 9.04616 32.4746 9.26326 32.5607 9.40909C32.6469 9.55161 32.7579 9.64938 32.8938 9.70241C33.033 9.75213 33.1838 9.77699 33.3462 9.77699C33.4656 9.77699 33.57 9.7687 33.6594 9.75213C33.7489 9.73556 33.8185 9.7223 33.8683 9.71236L34.1367 10.9403C34.0505 10.9735 33.9279 11.0066 33.7688 11.0398C33.6097 11.0762 33.4109 11.0961 33.1722 11.0994C32.7811 11.1061 32.4165 11.0365 32.0785 10.8906C31.7404 10.7448 31.467 10.5194 31.2582 10.2145C31.0494 9.90956 30.945 9.52675 30.945 9.06605V1.53409ZM39.8814 6.05327V7.34091H35.3672V6.05327H39.8814ZM45.0792 11.1541C44.3401 11.1541 43.7037 10.9867 43.1701 10.652C42.6398 10.3139 42.2321 9.84825 41.9471 9.25497C41.6621 8.66169 41.5195 7.98224 41.5195 7.21662C41.5195 6.44105 41.6654 5.75663 41.957 5.16335C42.2487 4.56676 42.6597 4.10109 43.19 3.76633C43.7203 3.43158 44.3451 3.2642 45.0643 3.2642C45.6443 3.2642 46.1613 3.37192 46.6154 3.58736C47.0695 3.79948 47.4357 4.09777 47.7141 4.48224C47.9959 4.86671 48.1632 5.31581 48.2163 5.82955H46.7695C46.69 5.47159 46.5077 5.16335 46.2227 4.90483C45.9409 4.64631 45.5631 4.51705 45.0891 4.51705C44.6748 4.51705 44.3119 4.62642 44.0004 4.84517C43.6921 5.06061 43.4518 5.36884 43.2795 5.76989C43.1071 6.16761 43.021 6.63826 43.021 7.18182C43.021 7.73864 43.1055 8.21922 43.2745 8.62358C43.4435 9.02794 43.6822 9.34115 43.9904 9.56321C44.302 9.78527 44.6682 9.89631 45.0891 9.89631C45.3709 9.89631 45.6261 9.84493 45.8548 9.74219C46.0868 9.63613 46.2807 9.48532 46.4364 9.28977C46.5955 9.09422 46.7066 8.8589 46.7695 8.58381H48.2163C48.1632 9.07765 48.0025 9.51847 47.734 9.90625C47.4656 10.294 47.1059 10.599 46.6552 10.821C46.2077 11.0431 45.6824 11.1541 45.0792 11.1541ZM49.8059 11V3.36364H51.2924V11H49.8059ZM50.5566 2.18537C50.2981 2.18537 50.0761 2.09919 49.8904 1.92685C49.7082 1.75118 49.617 1.54238 49.617 1.30043C49.617 1.05516 49.7082 0.846354 49.8904 0.674005C50.0761 0.498342 50.2981 0.410511 50.5566 0.410511C50.8152 0.410511 51.0356 0.498342 51.2179 0.674005C51.4035 0.846354 51.4963 1.05516 51.4963 1.30043C51.4963 1.54238 51.4035 1.75118 51.2179 1.92685C51.0356 2.09919 50.8152 2.18537 50.5566 2.18537ZM53.2923 11V3.36364H54.729V4.5767H54.8086C54.9478 4.16572 55.1931 3.84257 55.5444 3.60724C55.899 3.36861 56.3001 3.24929 56.7475 3.24929C56.8403 3.24929 56.9497 3.2526 57.0756 3.25923C57.2049 3.26586 57.306 3.27415 57.3789 3.28409V4.70597C57.3192 4.68939 57.2132 4.67116 57.0607 4.65128C56.9083 4.62808 56.7558 4.61648 56.6033 4.61648C56.252 4.61648 55.9388 4.69105 55.6637 4.8402C55.3919 4.98603 55.1765 5.18987 55.0174 5.4517C54.8583 5.71023 54.7788 6.00521 54.7788 6.33665V11H53.2923ZM61.6085 11.1541C60.8694 11.1541 60.233 10.9867 59.6994 10.652C59.1691 10.3139 58.7614 9.84825 58.4764 9.25497C58.1913 8.66169 58.0488 7.98224 58.0488 7.21662C58.0488 6.44105 58.1947 5.75663 58.4863 5.16335C58.778 4.56676 59.189 4.10109 59.7193 3.76633C60.2496 3.43158 60.8743 3.2642 61.5936 3.2642C62.1736 3.2642 62.6906 3.37192 63.1447 3.58736C63.5988 3.79948 63.965 4.09777 64.2434 4.48224C64.5252 4.86671 64.6925 5.31581 64.7456 5.82955H63.2988C63.2193 5.47159 63.037 5.16335 62.752 4.90483C62.4702 4.64631 62.0924 4.51705 61.6184 4.51705C61.2041 4.51705 60.8412 4.62642 60.5297 4.84517C60.2214 5.06061 59.9811 5.36884 59.8088 5.76989C59.6364 6.16761 59.5502 6.63826 59.5502 7.18182C59.5502 7.73864 59.6348 8.21922 59.8038 8.62358C59.9728 9.02794 60.2115 9.34115 60.5197 9.56321C60.8313 9.78527 61.1975 9.89631 61.6184 9.89631C61.9002 9.89631 62.1554 9.84493 62.3841 9.74219C62.6161 9.63613 62.81 9.48532 62.9657 9.28977C63.1248 9.09422 63.2359 8.8589 63.2988 8.58381H64.7456C64.6925 9.07765 64.5318 9.51847 64.2633 9.90625C63.9949 10.294 63.6352 10.599 63.1845 10.821C62.737 11.0431 62.2117 11.1541 61.6085 11.1541ZM67.8217 0.818182V11H66.3352V0.818182H67.8217ZM73.1127 11.1541C72.3604 11.1541 71.7124 10.9934 71.1689 10.6719C70.6286 10.3471 70.211 9.89134 69.916 9.30469C69.6243 8.71473 69.4785 8.02367 69.4785 7.23153C69.4785 6.44934 69.6243 5.75994 69.916 5.16335C70.211 4.56676 70.622 4.10109 71.149 3.76633C71.6793 3.43158 72.2991 3.2642 73.0083 3.2642C73.4392 3.2642 73.8568 3.33546 74.2612 3.47798C74.6655 3.6205 75.0285 3.84422 75.35 4.14915C75.6715 4.45407 75.925 4.85014 76.1106 5.33736C76.2962 5.82126 76.389 6.40956 76.389 7.10227V7.62926H70.3187V6.51562H74.9324C74.9324 6.12453 74.8528 5.77817 74.6937 5.47656C74.5346 5.17164 74.3109 4.93134 74.0225 4.75568C73.7375 4.58002 73.4028 4.49219 73.0183 4.49219C72.6007 4.49219 72.2361 4.59493 71.9245 4.80043C71.6163 5.0026 71.3777 5.26776 71.2086 5.59588C71.0429 5.92069 70.96 6.27367 70.96 6.65483V7.52486C70.96 8.03527 71.0495 8.46946 71.2285 8.82741C71.4108 9.18537 71.6644 9.45881 71.9892 9.64773C72.314 9.83333 72.6935 9.92614 73.1277 9.92614C73.4094 9.92614 73.6663 9.88636 73.8983 9.80682C74.1303 9.72396 74.3308 9.60133 74.4998 9.43892C74.6689 9.27652 74.7981 9.07599 74.8876 8.83736L76.2946 9.09091C76.1819 9.50521 75.9797 9.86813 75.688 10.1797C75.3997 10.4879 75.0368 10.7282 74.5993 10.9006C74.1651 11.0696 73.6696 11.1541 73.1127 11.1541Z" fill="black"/>
</svg>
