<svg viewBox="0 0 60 12" fill="none" stroke-width="2" stroke="currentColor" aria-hidden="true">
  <path d="M-0.000710189 11V3.36364H1.42614V4.60653H1.5206C1.67969 4.18561 1.93987 3.85748 2.30114 3.62216C2.66241 3.38352 3.09493 3.2642 3.59872 3.2642C4.10914 3.2642 4.5367 3.38352 4.88139 3.62216C5.2294 3.8608 5.48627 4.18892 5.65199 4.60653H5.73153C5.91383 4.19886 6.20384 3.87405 6.60156 3.6321C6.99929 3.38684 7.47325 3.2642 8.02344 3.2642C8.71615 3.2642 9.28125 3.4813 9.71875 3.91548C10.1596 4.34967 10.38 5.00426 10.38 5.87926V11H8.89347V6.01847C8.89347 5.50142 8.7526 5.12689 8.47088 4.89489C8.18916 4.66288 7.85275 4.54688 7.46165 4.54688C6.97775 4.54688 6.60156 4.69602 6.3331 4.99432C6.06463 5.2893 5.9304 5.6688 5.9304 6.13281V11H4.44886V5.92401C4.44886 5.50971 4.3196 5.17661 4.06108 4.92472C3.80256 4.67282 3.46615 4.54688 3.05185 4.54688C2.77012 4.54688 2.50994 4.62145 2.27131 4.7706C2.03599 4.91643 1.84541 5.12026 1.69957 5.3821C1.55706 5.64394 1.4858 5.94721 1.4858 6.2919V11H-0.000710189ZM15.6635 11.1541C14.9112 11.1541 14.2632 10.9934 13.7196 10.6719C13.1794 10.3471 12.7618 9.89134 12.4668 9.30469C12.1751 8.71473 12.0293 8.02367 12.0293 7.23153C12.0293 6.44934 12.1751 5.75994 12.4668 5.16335C12.7618 4.56676 13.1728 4.10109 13.6998 3.76633C14.2301 3.43158 14.8498 3.2642 15.5591 3.2642C15.99 3.2642 16.4076 3.33546 16.812 3.47798C17.2163 3.6205 17.5792 3.84422 17.9007 4.14915C18.2222 4.45407 18.4758 4.85014 18.6614 5.33736C18.847 5.82126 18.9398 6.40956 18.9398 7.10227V7.62926H12.8695V6.51562H17.4831C17.4831 6.12453 17.4036 5.77817 17.2445 5.47656C17.0854 5.17164 16.8617 4.93134 16.5733 4.75568C16.2883 4.58002 15.9535 4.49219 15.5691 4.49219C15.1515 4.49219 14.7869 4.59493 14.4753 4.80043C14.1671 5.0026 13.9284 5.26776 13.7594 5.59588C13.5937 5.92069 13.5108 6.27367 13.5108 6.65483V7.52486C13.5108 8.03527 13.6003 8.46946 13.7793 8.82741C13.9616 9.18537 14.2151 9.45881 14.54 9.64773C14.8648 9.83333 15.2443 9.92614 15.6784 9.92614C15.9602 9.92614 16.217 9.88636 16.449 9.80682C16.681 9.72396 16.8816 9.60133 17.0506 9.43892C17.2196 9.27652 17.3489 9.07599 17.4384 8.83736L18.8453 9.09091C18.7327 9.50521 18.5305 9.86813 18.2388 10.1797C17.9505 10.4879 17.5875 10.7282 17.15 10.9006C16.7158 11.0696 16.2203 11.1541 15.6635 11.1541ZM22.0756 6.46591V11H20.5891V3.36364H22.016V4.60653H22.1104C22.2861 4.20218 22.5612 3.87737 22.9357 3.6321C23.3136 3.38684 23.7892 3.2642 24.3626 3.2642C24.8829 3.2642 25.3387 3.37358 25.7298 3.59233C26.1209 3.80777 26.4241 4.12926 26.6396 4.55682C26.855 4.98437 26.9627 5.51302 26.9627 6.14276V11H25.4762V6.32173C25.4762 5.76823 25.332 5.3357 25.0437 5.02415C24.7553 4.70928 24.3593 4.55185 23.8555 4.55185C23.5108 4.55185 23.2042 4.62642 22.9357 4.77557C22.6706 4.92472 22.4601 5.14347 22.3043 5.43182C22.1519 5.71686 22.0756 6.06155 22.0756 6.46591ZM33.7937 7.8331V3.36364H35.2852V11H33.8235V9.67756H33.744C33.5683 10.0852 33.2866 10.425 32.8988 10.6967C32.5143 10.9652 32.0354 11.0994 31.462 11.0994C30.9715 11.0994 30.5373 10.9917 30.1594 10.7763C29.7849 10.5575 29.4899 10.2344 29.2745 9.80682C29.0624 9.37926 28.9563 8.85062 28.9563 8.22088V3.36364H30.4428V8.0419C30.4428 8.56226 30.587 8.97656 30.8754 9.2848C31.1637 9.59304 31.5382 9.74716 31.9989 9.74716C32.2773 9.74716 32.5541 9.67756 32.8292 9.53835C33.1076 9.39915 33.3379 9.18868 33.5202 8.90696C33.7058 8.62524 33.797 8.26728 33.7937 7.8331ZM41.7818 6.05327V7.34091H37.2676V6.05327H41.7818ZM47.2878 11.169C46.5023 11.1657 45.8311 10.9586 45.2743 10.5476C44.7175 10.1366 44.2916 9.53835 43.9966 8.75284C43.7016 7.96733 43.5542 7.02107 43.5542 5.91406C43.5542 4.81037 43.7016 3.86742 43.9966 3.08523C44.2949 2.30303 44.7225 1.70644 45.2793 1.29545C45.8394 0.884469 46.5089 0.678977 47.2878 0.678977C48.0667 0.678977 48.7346 0.886126 49.2914 1.30043C49.8482 1.71141 50.2741 2.308 50.5691 3.0902C50.8674 3.86908 51.0165 4.81037 51.0165 5.91406C51.0165 7.02438 50.869 7.9723 50.574 8.75781C50.2791 9.54001 49.8532 10.1383 49.2963 10.5526C48.7395 10.9635 48.07 11.169 47.2878 11.169ZM47.2878 9.84162C47.9772 9.84162 48.5158 9.50521 48.9036 8.83239C49.2947 8.15956 49.4902 7.18679 49.4902 5.91406C49.4902 5.06889 49.4007 4.35464 49.2218 3.77131C49.0461 3.18466 48.7926 2.74053 48.4611 2.43892C48.133 2.134 47.7419 1.98153 47.2878 1.98153C46.6017 1.98153 46.0632 2.3196 45.6721 2.99574C45.281 3.67187 45.0837 4.64465 45.0804 5.91406C45.0804 6.76255 45.1683 7.48011 45.3439 8.06676C45.5229 8.65009 45.7765 9.09257 46.1046 9.39418C46.4327 9.69247 46.8271 9.84162 47.2878 9.84162ZM56.3249 11.1392C55.6422 11.1392 55.0323 11.0215 54.4954 10.7862C53.9618 10.5509 53.5392 10.2244 53.2276 9.80682C52.9194 9.38589 52.7537 8.89867 52.7305 8.34517H54.2915C54.3114 8.64678 54.4125 8.90862 54.5948 9.13068C54.7804 9.34943 55.0224 9.51847 55.3207 9.63778C55.619 9.7571 55.9504 9.81676 56.315 9.81676C56.716 9.81676 57.0707 9.74716 57.3789 9.60795C57.6905 9.46875 57.9341 9.27486 58.1097 9.02628C58.2854 8.77438 58.3732 8.48438 58.3732 8.15625C58.3732 7.81487 58.2854 7.51491 58.1097 7.25639C57.9374 6.99455 57.6838 6.78906 57.3491 6.63991C57.0176 6.49077 56.6166 6.41619 56.146 6.41619H55.2859V5.16335H56.146C56.5238 5.16335 56.8552 5.09541 57.1403 4.95952C57.4286 4.82363 57.654 4.63471 57.8164 4.39276C57.9788 4.14749 58.06 3.8608 58.06 3.53267C58.06 3.2178 57.9888 2.94437 57.8462 2.71236C57.707 2.47704 57.5082 2.29309 57.2496 2.16051C56.9944 2.02794 56.6928 1.96165 56.3448 1.96165C56.0134 1.96165 55.7035 2.02296 55.4151 2.1456C55.1301 2.26491 54.8981 2.43726 54.7191 2.66264C54.5401 2.88471 54.444 3.15151 54.4308 3.46307H52.9442C52.9608 2.91288 53.1232 2.42898 53.4315 2.01136C53.743 1.59375 54.154 1.26728 54.6644 1.03196C55.1748 0.796638 55.7416 0.678977 56.3647 0.678977C57.0176 0.678977 57.5811 0.806581 58.055 1.06179C58.5323 1.31368 58.9002 1.65009 59.1587 2.07102C59.4206 2.49195 59.5498 2.95265 59.5465 3.45312C59.5498 4.0232 59.3907 4.5071 59.0692 4.90483C58.7511 5.30256 58.3268 5.56937 57.7965 5.70526V5.7848C58.4727 5.88755 58.9963 6.15601 59.3675 6.5902C59.7421 7.02438 59.9277 7.56297 59.9244 8.20597C59.9277 8.7661 59.7719 9.26823 59.457 9.71236C59.1455 10.1565 58.7196 10.5062 58.1793 10.7614C57.6391 11.0133 57.021 11.1392 56.3249 11.1392Z" fill="black"/>
</svg>
