<svg viewBox="0 0 52 12" fill="none" stroke-width="2" stroke="currentColor" aria-hidden="true">
  <path d="M1.4858 6.46591V11H-0.000710189V0.818182H1.46591V4.60653H1.56037C1.73935 4.19555 2.01278 3.86908 2.38068 3.62713C2.74858 3.38518 3.22917 3.2642 3.82244 3.2642C4.34612 3.2642 4.8035 3.37192 5.1946 3.58736C5.58902 3.80279 5.89394 4.12429 6.10938 4.55185C6.32812 4.97609 6.4375 5.50639 6.4375 6.14276V11H4.95099V6.32173C4.95099 5.7616 4.80682 5.32741 4.51847 5.01918C4.23011 4.70762 3.82907 4.55185 3.31534 4.55185C2.96402 4.55185 2.64915 4.62642 2.37074 4.77557C2.09564 4.92472 1.87855 5.14347 1.71946 5.43182C1.56368 5.71686 1.4858 6.06155 1.4858 6.46591ZM10.6435 11.169C10.1596 11.169 9.72206 11.0795 9.33097 10.9006C8.93987 10.7183 8.62997 10.4548 8.40128 10.1101C8.1759 9.76539 8.06321 9.3428 8.06321 8.84233C8.06321 8.41146 8.14607 8.05682 8.31179 7.77841C8.47751 7.5 8.70123 7.27959 8.98295 7.11719C9.26468 6.95478 9.57955 6.83215 9.92756 6.74929C10.2756 6.66643 10.6302 6.60346 10.9915 6.56037C11.4489 6.50734 11.8201 6.46425 12.1051 6.43111C12.3902 6.39465 12.5973 6.33665 12.7266 6.2571C12.8558 6.17756 12.9205 6.0483 12.9205 5.86932V5.83452C12.9205 5.40033 12.7978 5.06392 12.5526 4.82528C12.3106 4.58665 11.9493 4.46733 11.4688 4.46733C10.9683 4.46733 10.5739 4.57836 10.2855 4.80043C10.0005 5.01918 9.80327 5.26278 9.69389 5.53125L8.29688 5.21307C8.46259 4.74905 8.70455 4.37453 9.02273 4.08949C9.34422 3.80114 9.71378 3.59233 10.1314 3.46307C10.549 3.33049 10.9882 3.2642 11.4489 3.2642C11.7538 3.2642 12.0769 3.30066 12.4183 3.37358C12.763 3.44318 13.0845 3.57244 13.3828 3.76136C13.6844 3.95028 13.9313 4.22041 14.1236 4.57173C14.3158 4.91974 14.4119 5.37216 14.4119 5.92898V11H12.9602V9.95597H12.9006C12.8045 10.1482 12.6603 10.3371 12.468 10.5227C12.2758 10.7083 12.0289 10.8625 11.7273 10.9851C11.4257 11.1077 11.0644 11.169 10.6435 11.169ZM10.9666 9.97585C11.3776 9.97585 11.7289 9.89465 12.0206 9.73224C12.3156 9.56984 12.5393 9.35772 12.6918 9.09588C12.8475 8.83073 12.9254 8.54735 12.9254 8.24574V7.26136C12.8724 7.31439 12.7696 7.36411 12.6172 7.41051C12.468 7.4536 12.2973 7.49171 12.1051 7.52486C11.9129 7.55469 11.7256 7.58286 11.5433 7.60938C11.361 7.63258 11.2086 7.65246 11.0859 7.66903C10.7976 7.70549 10.5341 7.76681 10.2955 7.85298C10.0601 7.93916 9.87121 8.06345 9.72869 8.22585C9.58949 8.38494 9.51989 8.59706 9.51989 8.86222C9.51989 9.23011 9.65578 9.50852 9.92756 9.69744C10.1993 9.88305 10.5457 9.97585 10.9666 9.97585ZM22.1142 5.22798L20.7669 5.46662C20.7105 5.29427 20.621 5.13021 20.4984 4.97443C20.3791 4.81865 20.2167 4.69105 20.0112 4.59162C19.8057 4.49219 19.5488 4.44247 19.2406 4.44247C18.8197 4.44247 18.4683 4.53693 18.1866 4.72585C17.9049 4.91146 17.764 5.15175 17.764 5.44673C17.764 5.70194 17.8585 5.90743 18.0474 6.06321C18.2363 6.21899 18.5413 6.34659 18.9622 6.44602L20.1752 6.72443C20.8779 6.88684 21.4016 7.13707 21.7463 7.47514C22.091 7.81321 22.2633 8.25237 22.2633 8.79261C22.2633 9.25 22.1307 9.65767 21.8656 10.0156C21.6038 10.3703 21.2375 10.6487 20.7669 10.8509C20.2995 11.053 19.7576 11.1541 19.1412 11.1541C18.286 11.1541 17.5884 10.9718 17.0481 10.6072C16.5079 10.2393 16.1764 9.71733 16.0538 9.04119L17.4906 8.82244C17.5801 9.19697 17.764 9.48035 18.0424 9.67259C18.3208 9.86151 18.6838 9.95597 19.1312 9.95597C19.6184 9.95597 20.0079 9.85488 20.2995 9.6527C20.5912 9.44721 20.737 9.19697 20.737 8.90199C20.737 8.66335 20.6475 8.46283 20.4686 8.30043C20.2929 8.13802 20.0228 8.01539 19.6582 7.93253L18.3656 7.64915C17.653 7.48674 17.126 7.22822 16.7846 6.87358C16.4466 6.51894 16.2775 6.06984 16.2775 5.52628C16.2775 5.07552 16.4035 4.68111 16.6554 4.34304C16.9073 4.00497 17.2553 3.74148 17.6994 3.55256C18.1435 3.36032 18.6523 3.2642 19.2257 3.2642C20.051 3.2642 20.7006 3.44318 21.1745 3.80114C21.6485 4.15578 21.9617 4.63139 22.1142 5.22798ZM25.3842 6.46591V11H23.8977V0.818182H25.3643V4.60653H25.4588C25.6378 4.19555 25.9112 3.86908 26.2791 3.62713C26.647 3.38518 27.1276 3.2642 27.7209 3.2642C28.2446 3.2642 28.7019 3.37192 29.093 3.58736C29.4875 3.80279 29.7924 4.12429 30.0078 4.55185C30.2266 4.97609 30.3359 5.50639 30.3359 6.14276V11H28.8494V6.32173C28.8494 5.7616 28.7053 5.32741 28.4169 5.01918C28.1286 4.70762 27.7275 4.55185 27.2138 4.55185C26.8625 4.55185 26.5476 4.62642 26.2692 4.77557C25.9941 4.92472 25.777 5.14347 25.6179 5.43182C25.4621 5.71686 25.3842 6.06155 25.3842 6.46591ZM36.8189 6.05327V7.34091H32.3047V6.05327H36.8189ZM42.3249 11.169C41.5394 11.1657 40.8683 10.9586 40.3114 10.5476C39.7546 10.1366 39.3287 9.53835 39.0337 8.75284C38.7388 7.96733 38.5913 7.02107 38.5913 5.91406C38.5913 4.81037 38.7388 3.86742 39.0337 3.08523C39.332 2.30303 39.7596 1.70644 40.3164 1.29545C40.8765 0.884469 41.546 0.678977 42.3249 0.678977C43.1038 0.678977 43.7717 0.886126 44.3285 1.30043C44.8853 1.71141 45.3112 2.308 45.6062 3.0902C45.9045 3.86908 46.0536 4.81037 46.0536 5.91406C46.0536 7.02438 45.9061 7.9723 45.6112 8.75781C45.3162 9.54001 44.8903 10.1383 44.3335 10.5526C43.7766 10.9635 43.1071 11.169 42.3249 11.169ZM42.3249 9.84162C43.0143 9.84162 43.5529 9.50521 43.9407 8.83239C44.3318 8.15956 44.5273 7.18679 44.5273 5.91406C44.5273 5.06889 44.4379 4.35464 44.2589 3.77131C44.0832 3.18466 43.8297 2.74053 43.4982 2.43892C43.1701 2.134 42.779 1.98153 42.3249 1.98153C41.6388 1.98153 41.1003 2.3196 40.7092 2.99574C40.3181 3.67187 40.1209 4.64465 40.1175 5.91406C40.1175 6.76255 40.2054 7.48011 40.381 8.06676C40.56 8.65009 40.8136 9.09257 41.1417 9.39418C41.4698 9.69247 41.8642 9.84162 42.3249 9.84162ZM51.6802 0.818182V11H50.139V2.35938H50.0794L47.6433 3.95028V2.47869L50.1838 0.818182H51.6802Z" fill="black"/>
</svg>
