<svg viewBox="0 0 65 14" fill="none" stroke-width="2" stroke="currentColor" aria-hidden="true">
  <path d="M4.29048 11.1541C3.53812 11.1541 2.89015 10.9934 2.34659 10.6719C1.80634 10.3471 1.38873 9.89134 1.09375 9.30469C0.802083 8.71473 0.65625 8.02367 0.65625 7.23153C0.65625 6.44934 0.802083 5.75994 1.09375 5.16335C1.38873 4.56676 1.79972 4.10109 2.3267 3.76633C2.85701 3.43158 3.4768 3.2642 4.18608 3.2642C4.61695 3.2642 5.03456 3.33546 5.43892 3.47798C5.84328 3.6205 6.2062 3.84422 6.5277 4.14915C6.8492 4.45407 7.10275 4.85014 7.28835 5.33736C7.47396 5.82126 7.56676 6.40956 7.56676 7.10227V7.62926H1.49645V6.51562H6.11009C6.11009 6.12453 6.03054 5.77817 5.87145 5.47656C5.71236 5.17164 5.48864 4.93134 5.20028 4.75568C4.91525 4.58002 4.58049 4.49219 4.19602 4.49219C3.77841 4.49219 3.41383 4.59493 3.10227 4.80043C2.79403 5.0026 2.5554 5.26776 2.38636 5.59588C2.22064 5.92069 2.13778 6.27367 2.13778 6.65483V7.52486C2.13778 8.03527 2.22727 8.46946 2.40625 8.82741C2.58854 9.18537 2.84209 9.45881 3.1669 9.64773C3.49171 9.83333 3.87121 9.92614 4.3054 9.92614C4.58712 9.92614 4.84399 9.88636 5.07599 9.80682C5.308 9.72396 5.50852 9.60133 5.67756 9.43892C5.84659 9.27652 5.97585 9.07599 6.06534 8.83736L7.4723 9.09091C7.35961 9.50521 7.15743 9.86813 6.86577 10.1797C6.57741 10.4879 6.21449 10.7282 5.77699 10.9006C5.3428 11.0696 4.8473 11.1541 4.29048 11.1541ZM14.3716 13.8636V9.81179H14.2821C14.1926 9.9742 14.0634 10.1598 13.8944 10.3686C13.7286 10.5774 13.4999 10.7597 13.2083 10.9155C12.9166 11.0713 12.5388 11.1491 12.0748 11.1491C11.4583 11.1491 10.9081 10.9917 10.4242 10.6768C9.9436 10.3587 9.56576 9.90625 9.29066 9.3196C9.01888 8.72964 8.88299 8.02202 8.88299 7.19673C8.88299 6.37145 9.02054 5.66548 9.29563 5.07884C9.57404 4.49219 9.9552 4.04309 10.4391 3.73153C10.923 3.41998 11.4715 3.2642 12.0847 3.2642C12.5587 3.2642 12.9398 3.34375 13.2282 3.50284C13.5198 3.65862 13.7452 3.84091 13.9043 4.04972C14.0667 4.25852 14.1926 4.44247 14.2821 4.60156H14.4064V3.36364H15.8581V13.8636H14.3716ZM12.4029 9.88139C12.8304 9.88139 13.1917 9.7687 13.4867 9.54332C13.785 9.31463 14.0104 8.99811 14.1628 8.59375C14.3186 8.18939 14.3965 7.71875 14.3965 7.18182C14.3965 6.65151 14.3203 6.1875 14.1678 5.78977C14.0153 5.39205 13.7916 5.08215 13.4966 4.86009C13.2016 4.63802 12.8371 4.52699 12.4029 4.52699C11.9554 4.52699 11.5826 4.64299 11.2843 4.875C10.986 5.10701 10.7606 5.42353 10.6081 5.82457C10.459 6.22562 10.3844 6.67803 10.3844 7.18182C10.3844 7.69223 10.4606 8.15128 10.6131 8.55895C10.7656 8.96662 10.9909 9.28977 11.2892 9.52841C11.5908 9.76373 11.9621 9.88139 12.4029 9.88139ZM22.6941 7.8331V3.36364H24.1855V11H22.7239V9.67756H22.6444C22.4687 10.0852 22.187 10.425 21.7992 10.6967C21.4147 10.9652 20.9358 11.0994 20.3624 11.0994C19.8719 11.0994 19.4377 10.9917 19.0598 10.7763C18.6853 10.5575 18.3903 10.2344 18.1749 9.80682C17.9628 9.37926 17.8567 8.85062 17.8567 8.22088V3.36364H19.3432V8.0419C19.3432 8.56226 19.4874 8.97656 19.7757 9.2848C20.0641 9.59304 20.4386 9.74716 20.8993 9.74716C21.1777 9.74716 21.4545 9.67756 21.7296 9.53835C22.008 9.39915 22.2383 9.18868 22.4206 8.90696C22.6062 8.62524 22.6974 8.26728 22.6941 7.8331ZM28.4052 11.169C27.9213 11.169 27.4838 11.0795 27.0927 10.9006C26.7016 10.7183 26.3917 10.4548 26.163 10.1101C25.9376 9.76539 25.8249 9.3428 25.8249 8.84233C25.8249 8.41146 25.9078 8.05682 26.0735 7.77841C26.2392 7.5 26.4629 7.27959 26.7447 7.11719C27.0264 6.95478 27.3413 6.83215 27.6893 6.74929C28.0373 6.66643 28.3919 6.60346 28.7532 6.56037C29.2106 6.50734 29.5818 6.46425 29.8668 6.43111C30.1519 6.39465 30.359 6.33665 30.4883 6.2571C30.6175 6.17756 30.6822 6.0483 30.6822 5.86932V5.83452C30.6822 5.40033 30.5595 5.06392 30.3143 4.82528C30.0723 4.58665 29.7111 4.46733 29.2305 4.46733C28.73 4.46733 28.3356 4.57836 28.0472 4.80043C27.7622 5.01918 27.565 5.26278 27.4556 5.53125L26.0586 5.21307C26.2243 4.74905 26.4663 4.37453 26.7844 4.08949C27.1059 3.80114 27.4755 3.59233 27.8931 3.46307C28.3107 3.33049 28.7499 3.2642 29.2106 3.2642C29.5155 3.2642 29.8387 3.30066 30.18 3.37358C30.5247 3.44318 30.8462 3.57244 31.1445 3.76136C31.4461 3.95028 31.6931 4.22041 31.8853 4.57173C32.0775 4.91974 32.1737 5.37216 32.1737 5.92898V11H30.7219V9.95597H30.6623C30.5662 10.1482 30.422 10.3371 30.2298 10.5227C30.0375 10.7083 29.7906 10.8625 29.489 10.9851C29.1874 11.1077 28.8261 11.169 28.4052 11.169ZM28.7283 9.97585C29.1393 9.97585 29.4906 9.89465 29.7823 9.73224C30.0773 9.56984 30.301 9.35772 30.4535 9.09588C30.6093 8.83073 30.6871 8.54735 30.6871 8.24574V7.26136C30.6341 7.31439 30.5314 7.36411 30.3789 7.41051C30.2298 7.4536 30.0591 7.49171 29.8668 7.52486C29.6746 7.55469 29.4873 7.58286 29.305 7.60938C29.1228 7.63258 28.9703 7.65246 28.8477 7.66903C28.5593 7.70549 28.2958 7.76681 28.0572 7.85298C27.8219 7.93916 27.6329 8.06345 27.4904 8.22585C27.3512 8.38494 27.2816 8.59706 27.2816 8.86222C27.2816 9.23011 27.4175 9.50852 27.6893 9.69744C27.9611 9.88305 28.3074 9.97585 28.7283 9.97585ZM35.6401 0.818182V11H34.1536V0.818182H35.6401ZM42.1392 6.05327V7.34091H37.625V6.05327H42.1392ZM45.6069 6.46591V11H44.1204V3.36364H45.5472V4.60653H45.6417C45.8174 4.20218 46.0924 3.87737 46.467 3.6321C46.8448 3.38684 47.3204 3.2642 47.8938 3.2642C48.4142 3.2642 48.8699 3.37358 49.261 3.59233C49.6521 3.80777 49.9554 4.12926 50.1708 4.55682C50.3862 4.98437 50.494 5.51302 50.494 6.14276V11H49.0075V6.32173C49.0075 5.76823 48.8633 5.3357 48.5749 5.02415C48.2866 4.70928 47.8905 4.55185 47.3867 4.55185C47.042 4.55185 46.7354 4.62642 46.467 4.77557C46.2018 4.92472 45.9914 5.14347 45.8356 5.43182C45.6831 5.71686 45.6069 6.06155 45.6069 6.46591ZM55.7042 11.1541C54.9883 11.1541 54.3635 10.9901 53.8299 10.6619C53.2963 10.3338 52.882 9.87476 52.587 9.2848C52.292 8.69484 52.1445 8.00544 52.1445 7.21662C52.1445 6.42448 52.292 5.73177 52.587 5.13849C52.882 4.54522 53.2963 4.08452 53.8299 3.75639C54.3635 3.42827 54.9883 3.2642 55.7042 3.2642C56.4201 3.2642 57.0449 3.42827 57.5785 3.75639C58.1121 4.08452 58.5264 4.54522 58.8214 5.13849C59.1164 5.73177 59.2638 6.42448 59.2638 7.21662C59.2638 8.00544 59.1164 8.69484 58.8214 9.2848C58.5264 9.87476 58.1121 10.3338 57.5785 10.6619C57.0449 10.9901 56.4201 11.1541 55.7042 11.1541ZM55.7092 9.90625C56.1732 9.90625 56.5576 9.78362 56.8626 9.53835C57.1675 9.29309 57.3929 8.96662 57.5387 8.55895C57.6879 8.15128 57.7624 7.70218 57.7624 7.21165C57.7624 6.72443 57.6879 6.27699 57.5387 5.86932C57.3929 5.45833 57.1675 5.12855 56.8626 4.87997C56.5576 4.63139 56.1732 4.5071 55.7092 4.5071C55.2418 4.5071 54.854 4.63139 54.5458 4.87997C54.2409 5.12855 54.0138 5.45833 53.8647 5.86932C53.7189 6.27699 53.646 6.72443 53.646 7.21165C53.646 7.70218 53.7189 8.15128 53.8647 8.55895C54.0138 8.96662 54.2409 9.29309 54.5458 9.53835C54.854 9.78362 55.2418 9.90625 55.7092 9.90625ZM64.4877 3.36364V4.55682H60.3166V3.36364H64.4877ZM61.4352 1.53409H62.9217V8.75781C62.9217 9.04616 62.9648 9.26326 63.051 9.40909C63.1371 9.55161 63.2482 9.64938 63.3841 9.70241C63.5233 9.75213 63.6741 9.77699 63.8365 9.77699C63.9558 9.77699 64.0602 9.7687 64.1497 9.75213C64.2392 9.73556 64.3088 9.7223 64.3585 9.71236L64.627 10.9403C64.5408 10.9735 64.4181 11.0066 64.2591 11.0398C64.1 11.0762 63.9011 11.0961 63.6625 11.0994C63.2714 11.1061 62.9068 11.0365 62.5687 10.8906C62.2306 10.7448 61.9572 10.5194 61.7484 10.2145C61.5396 9.90956 61.4352 9.52675 61.4352 9.06605V1.53409Z" fill="black"/>
</svg>
