<svg viewBox="0 0 39 12" fill="none" stroke-width="2" stroke="currentColor" aria-hidden="true">
  <path d="M-0.000710189 11V3.36364H1.42614V4.60653H1.5206C1.67969 4.18561 1.93987 3.85748 2.30114 3.62216C2.66241 3.38352 3.09493 3.2642 3.59872 3.2642C4.10914 3.2642 4.5367 3.38352 4.88139 3.62216C5.2294 3.8608 5.48627 4.18892 5.65199 4.60653H5.73153C5.91383 4.19886 6.20384 3.87405 6.60156 3.6321C6.99929 3.38684 7.47325 3.2642 8.02344 3.2642C8.71615 3.2642 9.28125 3.4813 9.71875 3.91548C10.1596 4.34967 10.38 5.00426 10.38 5.87926V11H8.89347V6.01847C8.89347 5.50142 8.7526 5.12689 8.47088 4.89489C8.18916 4.66288 7.85275 4.54688 7.46165 4.54688C6.97775 4.54688 6.60156 4.69602 6.3331 4.99432C6.06463 5.2893 5.9304 5.6688 5.9304 6.13281V11H4.44886V5.92401C4.44886 5.50971 4.3196 5.17661 4.06108 4.92472C3.80256 4.67282 3.46615 4.54688 3.05185 4.54688C2.77012 4.54688 2.50994 4.62145 2.27131 4.7706C2.03599 4.91643 1.84541 5.12026 1.69957 5.3821C1.55706 5.64394 1.4858 5.94721 1.4858 6.2919V11H-0.000710189ZM12.3723 11V3.36364H13.8588V11H12.3723ZM13.123 2.18537C12.8645 2.18537 12.6425 2.09919 12.4569 1.92685C12.2746 1.75118 12.1834 1.54238 12.1834 1.30043C12.1834 1.05516 12.2746 0.846354 12.4569 0.674005C12.6425 0.498342 12.8645 0.410511 13.123 0.410511C13.3816 0.410511 13.602 0.498342 13.7843 0.674005C13.9699 0.846354 14.0627 1.05516 14.0627 1.30043C14.0627 1.54238 13.9699 1.75118 13.7843 1.92685C13.602 2.09919 13.3816 2.18537 13.123 2.18537ZM17.3452 6.46591V11H15.8587V3.36364H17.2855V4.60653H17.38C17.5556 4.20218 17.8307 3.87737 18.2053 3.6321C18.5831 3.38684 19.0587 3.2642 19.6321 3.2642C20.1525 3.2642 20.6082 3.37358 20.9993 3.59233C21.3904 3.80777 21.6937 4.12926 21.9091 4.55682C22.1245 4.98437 22.2322 5.51302 22.2322 6.14276V11H20.7457V6.32173C20.7457 5.76823 20.6016 5.3357 20.3132 5.02415C20.0249 4.70928 19.6288 4.55185 19.125 4.55185C18.7803 4.55185 18.4737 4.62642 18.2053 4.77557C17.9401 4.92472 17.7296 5.14347 17.5739 5.43182C17.4214 5.71686 17.3452 6.06155 17.3452 6.46591ZM29.0632 7.8331V3.36364H30.5547V11H29.093V9.67756H29.0135C28.8378 10.0852 28.5561 10.425 28.1683 10.6967C27.7839 10.9652 27.3049 11.0994 26.7315 11.0994C26.241 11.0994 25.8068 10.9917 25.429 10.7763C25.0545 10.5575 24.7595 10.2344 24.544 9.80682C24.3319 9.37926 24.2259 8.85062 24.2259 8.22088V3.36364H25.7124V8.0419C25.7124 8.56226 25.8565 8.97656 26.1449 9.2848C26.4332 9.59304 26.8078 9.74716 27.2685 9.74716C27.5469 9.74716 27.8236 9.67756 28.0987 9.53835C28.3771 9.39915 28.6075 9.18868 28.7898 8.90696C28.9754 8.62524 29.0665 8.26728 29.0632 7.8331ZM38.2743 5.22798L36.927 5.46662C36.8707 5.29427 36.7812 5.13021 36.6586 4.97443C36.5392 4.81865 36.3768 4.69105 36.1713 4.59162C35.9659 4.49219 35.709 4.44247 35.4007 4.44247C34.9798 4.44247 34.6285 4.53693 34.3468 4.72585C34.065 4.91146 33.9242 5.15175 33.9242 5.44673C33.9242 5.70194 34.0186 5.90743 34.2076 6.06321C34.3965 6.21899 34.7014 6.34659 35.1223 6.44602L36.3354 6.72443C37.0381 6.88684 37.5617 7.13707 37.9064 7.47514C38.2511 7.81321 38.4235 8.25237 38.4235 8.79261C38.4235 9.25 38.2909 9.65767 38.0257 10.0156C37.7639 10.3703 37.3977 10.6487 36.927 10.8509C36.4597 11.053 35.9178 11.1541 35.3013 11.1541C34.4462 11.1541 33.7485 10.9718 33.2083 10.6072C32.668 10.2393 32.3366 9.71733 32.214 9.04119L33.6507 8.82244C33.7402 9.19697 33.9242 9.48035 34.2026 9.67259C34.481 9.86151 34.8439 9.95597 35.2914 9.95597C35.7786 9.95597 36.168 9.85488 36.4597 9.6527C36.7514 9.44721 36.8972 9.19697 36.8972 8.90199C36.8972 8.66335 36.8077 8.46283 36.6287 8.30043C36.4531 8.13802 36.1829 8.01539 35.8184 7.93253L34.5257 7.64915C33.8132 7.48674 33.2862 7.22822 32.9448 6.87358C32.6067 6.51894 32.4377 6.06984 32.4377 5.52628C32.4377 5.07552 32.5636 4.68111 32.8155 4.34304C33.0674 4.00497 33.4154 3.74148 33.8596 3.55256C34.3037 3.36032 34.8124 3.2642 35.3858 3.2642C36.2111 3.2642 36.8607 3.44318 37.3347 3.80114C37.8087 4.15578 38.1219 4.63139 38.2743 5.22798Z" fill="black"/>
</svg>
