<svg viewBox="0 0 104 15" fill="none" stroke-width="2" stroke="currentColor" aria-hidden="true">
  <path d="M4.56392 3.36364V4.55682H0.392756V3.36364H4.56392ZM1.51136 1.53409H2.99787V8.75781C2.99787 9.04616 3.04096 9.26326 3.12713 9.40909C3.21331 9.55161 3.32434 9.64938 3.46023 9.70241C3.59943 9.75213 3.75024 9.77699 3.91264 9.77699C4.03196 9.77699 4.13636 9.7687 4.22585 9.75213C4.31534 9.73556 4.38494 9.7223 4.43466 9.71236L4.70312 10.9403C4.61695 10.9735 4.49432 11.0066 4.33523 11.0398C4.17614 11.0762 3.97727 11.0961 3.73864 11.0994C3.34754 11.1061 2.98295 11.0365 2.64489 10.8906C2.30682 10.7448 2.03338 10.5194 1.82457 10.2145C1.61577 9.90956 1.51136 9.52675 1.51136 9.06605V1.53409ZM9.34286 11.1541C8.62695 11.1541 8.00219 10.9901 7.46857 10.6619C6.93496 10.3338 6.52066 9.87476 6.22567 9.2848C5.93069 8.69484 5.7832 8.00544 5.7832 7.21662C5.7832 6.42448 5.93069 5.73177 6.22567 5.13849C6.52066 4.54522 6.93496 4.08452 7.46857 3.75639C8.00219 3.42827 8.62695 3.2642 9.34286 3.2642C10.0588 3.2642 10.6835 3.42827 11.2172 3.75639C11.7508 4.08452 12.1651 4.54522 12.46 5.13849C12.755 5.73177 12.9025 6.42448 12.9025 7.21662C12.9025 8.00544 12.755 8.69484 12.46 9.2848C12.1651 9.87476 11.7508 10.3338 11.2172 10.6619C10.6835 10.9901 10.0588 11.1541 9.34286 11.1541ZM9.34783 9.90625C9.81185 9.90625 10.1963 9.78362 10.5012 9.53835C10.8062 9.29309 11.0315 8.96662 11.1774 8.55895C11.3265 8.15128 11.4011 7.70218 11.4011 7.21165C11.4011 6.72443 11.3265 6.27699 11.1774 5.86932C11.0315 5.45833 10.8062 5.12855 10.5012 4.87997C10.1963 4.63139 9.81185 4.5071 9.34783 4.5071C8.8805 4.5071 8.49272 4.63139 8.18448 4.87997C7.87956 5.12855 7.65252 5.45833 7.50337 5.86932C7.35754 6.27699 7.28462 6.72443 7.28462 7.21165C7.28462 7.70218 7.35754 8.15128 7.50337 8.55895C7.65252 8.96662 7.87956 9.29309 8.18448 9.53835C8.49272 9.78362 8.8805 9.90625 9.34783 9.90625ZM17.7635 14.0227C17.157 14.0227 16.6349 13.9432 16.1974 13.7841C15.7633 13.625 15.4086 13.4145 15.1335 13.1527C14.8584 12.8909 14.6529 12.6042 14.517 12.2926L15.7947 11.7656C15.8842 11.9115 16.0036 12.0656 16.1527 12.228C16.3052 12.3937 16.5107 12.5346 16.7692 12.6506C17.031 12.7666 17.3674 12.8246 17.7784 12.8246C18.3419 12.8246 18.8075 12.687 19.1754 12.4119C19.5433 12.1402 19.7273 11.706 19.7273 11.1094V9.60795H19.6328C19.5433 9.77036 19.4141 9.95099 19.245 10.1499C19.0793 10.3487 18.8506 10.5211 18.5589 10.6669C18.2673 10.8127 17.8878 10.8857 17.4205 10.8857C16.8172 10.8857 16.2737 10.7448 15.7898 10.4631C15.3092 10.178 14.928 9.75876 14.6463 9.20526C14.3679 8.64844 14.2287 7.96401 14.2287 7.15199C14.2287 6.33996 14.3662 5.64394 14.6413 5.06392C14.9197 4.4839 15.3009 4.03977 15.7848 3.73153C16.2687 3.41998 16.8172 3.2642 17.4304 3.2642C17.9044 3.2642 18.2872 3.34375 18.5788 3.50284C18.8705 3.65862 19.0975 3.84091 19.2599 4.04972C19.4257 4.25852 19.5533 4.44247 19.6428 4.60156H19.7521V3.36364H21.2088V11.169C21.2088 11.8253 21.0563 12.3639 20.7514 12.7848C20.4465 13.2057 20.0339 13.5173 19.5135 13.7195C18.9964 13.9216 18.4131 14.0227 17.7635 14.0227ZM17.7486 9.6527C18.1761 9.6527 18.5374 9.55327 18.8324 9.3544C19.1307 9.15223 19.3561 8.86387 19.5085 8.48935C19.6643 8.11151 19.7422 7.65909 19.7422 7.1321C19.7422 6.61837 19.666 6.16596 19.5135 5.77486C19.361 5.38376 19.1373 5.07884 18.8423 4.86009C18.5473 4.63802 18.1828 4.52699 17.7486 4.52699C17.3011 4.52699 16.9283 4.64299 16.63 4.875C16.3317 5.10369 16.1063 5.41525 15.9538 5.80966C15.8047 6.20407 15.7301 6.64489 15.7301 7.1321C15.7301 7.63258 15.8063 8.07173 15.9588 8.44957C16.1113 8.82741 16.3366 9.1224 16.6349 9.33452C16.9366 9.54664 17.3078 9.6527 17.7486 9.6527ZM26.4041 14.0227C25.7976 14.0227 25.2756 13.9432 24.8381 13.7841C24.4039 13.625 24.0492 13.4145 23.7741 13.1527C23.4991 12.8909 23.2936 12.6042 23.1577 12.2926L24.4354 11.7656C24.5249 11.9115 24.6442 12.0656 24.7933 12.228C24.9458 12.3937 25.1513 12.5346 25.4098 12.6506C25.6716 12.7666 26.008 12.8246 26.419 12.8246C26.9825 12.8246 27.4482 12.687 27.8161 12.4119C28.1839 12.1402 28.3679 11.706 28.3679 11.1094V9.60795H28.2734C28.1839 9.77036 28.0547 9.95099 27.8857 10.1499C27.7199 10.3487 27.4912 10.5211 27.1996 10.6669C26.9079 10.8127 26.5284 10.8857 26.0611 10.8857C25.4579 10.8857 24.9143 10.7448 24.4304 10.4631C23.9498 10.178 23.5687 9.75876 23.2869 9.20526C23.0085 8.64844 22.8693 7.96401 22.8693 7.15199C22.8693 6.33996 23.0069 5.64394 23.282 5.06392C23.5604 4.4839 23.9415 4.03977 24.4254 3.73153C24.9093 3.41998 25.4579 3.2642 26.071 3.2642C26.545 3.2642 26.9278 3.34375 27.2195 3.50284C27.5111 3.65862 27.7382 3.84091 27.9006 4.04972C28.0663 4.25852 28.1939 4.44247 28.2834 4.60156H28.3928V3.36364H29.8494V11.169C29.8494 11.8253 29.697 12.3639 29.392 12.7848C29.0871 13.2057 28.6745 13.5173 28.1541 13.7195C27.6371 13.9216 27.0537 14.0227 26.4041 14.0227ZM26.3892 9.6527C26.8168 9.6527 27.178 9.55327 27.473 9.3544C27.7713 9.15223 27.9967 8.86387 28.1491 8.48935C28.3049 8.11151 28.3828 7.65909 28.3828 7.1321C28.3828 6.61837 28.3066 6.16596 28.1541 5.77486C28.0017 5.38376 27.7779 5.07884 27.483 4.86009C27.188 4.63802 26.8234 4.52699 26.3892 4.52699C25.9418 4.52699 25.5689 4.64299 25.2706 4.875C24.9723 5.10369 24.7469 5.41525 24.5945 5.80966C24.4453 6.20407 24.3707 6.64489 24.3707 7.1321C24.3707 7.63258 24.447 8.07173 24.5994 8.44957C24.7519 8.82741 24.9773 9.1224 25.2756 9.33452C25.5772 9.54664 25.9484 9.6527 26.3892 9.6527ZM33.3295 0.818182V11H31.843V0.818182H33.3295ZM38.6206 11.1541C37.8682 11.1541 37.2202 10.9934 36.6767 10.6719C36.1364 10.3471 35.7188 9.89134 35.4238 9.30469C35.1322 8.71473 34.9863 8.02367 34.9863 7.23153C34.9863 6.44934 35.1322 5.75994 35.4238 5.16335C35.7188 4.56676 36.1298 4.10109 36.6568 3.76633C37.1871 3.43158 37.8069 3.2642 38.5162 3.2642C38.947 3.2642 39.3646 3.33546 39.769 3.47798C40.1734 3.6205 40.5363 3.84422 40.8578 4.14915C41.1793 4.45407 41.4328 4.85014 41.6184 5.33736C41.804 5.82126 41.8968 6.40956 41.8968 7.10227V7.62926H35.8265V6.51562H40.4402C40.4402 6.12453 40.3606 5.77817 40.2015 5.47656C40.0424 5.17164 39.8187 4.93134 39.5304 4.75568C39.2453 4.58002 38.9106 4.49219 38.5261 4.49219C38.1085 4.49219 37.7439 4.59493 37.4324 4.80043C37.1241 5.0026 36.8855 5.26776 36.7164 5.59588C36.5507 5.92069 36.4679 6.27367 36.4679 6.65483V7.52486C36.4679 8.03527 36.5574 8.46946 36.7363 8.82741C36.9186 9.18537 37.1722 9.45881 37.497 9.64773C37.8218 9.83333 38.2013 9.92614 38.6355 9.92614C38.9172 9.92614 39.1741 9.88636 39.4061 9.80682C39.6381 9.72396 39.8386 9.60133 40.0076 9.43892C40.1767 9.27652 40.3059 9.07599 40.3954 8.83736L41.8024 9.09091C41.6897 9.50521 41.4875 9.86813 41.1958 10.1797C40.9075 10.4879 40.5446 10.7282 40.1071 10.9006C39.6729 11.0696 39.1774 11.1541 38.6206 11.1541ZM48.0455 6.05327V7.34091H43.5312V6.05327H48.0455ZM53.5515 11.169C52.766 11.1657 52.0948 10.9586 51.538 10.5476C50.9812 10.1366 50.5553 9.53835 50.2603 8.75284C49.9653 7.96733 49.8178 7.02107 49.8178 5.91406C49.8178 4.81037 49.9653 3.86742 50.2603 3.08523C50.5586 2.30303 50.9862 1.70644 51.543 1.29545C52.1031 0.884469 52.7726 0.678977 53.5515 0.678977C54.3304 0.678977 54.9982 0.886126 55.555 1.30043C56.1119 1.71141 56.5378 2.308 56.8327 3.0902C57.131 3.86908 57.2802 4.81037 57.2802 5.91406C57.2802 7.02438 57.1327 7.9723 56.8377 8.75781C56.5427 9.54001 56.1168 10.1383 55.56 10.5526C55.0032 10.9635 54.3337 11.169 53.5515 11.169ZM53.5515 9.84162C54.2409 9.84162 54.7795 9.50521 55.1673 8.83239C55.5584 8.15956 55.7539 7.18679 55.7539 5.91406C55.7539 5.06889 55.6644 4.35464 55.4854 3.77131C55.3098 3.18466 55.0562 2.74053 54.7248 2.43892C54.3967 2.134 54.0056 1.98153 53.5515 1.98153C52.8654 1.98153 52.3268 2.3196 51.9357 2.99574C51.5446 3.67187 51.3474 4.64465 51.3441 5.91406C51.3441 6.76255 51.4319 7.48011 51.6076 8.06676C51.7866 8.65009 52.0401 9.09257 52.3683 9.39418C52.6964 9.69247 53.0908 9.84162 53.5515 9.84162ZM59.0439 11V9.88636L62.4892 6.31676C62.8571 5.92898 63.1603 5.58925 63.399 5.29759C63.6409 5.0026 63.8216 4.72254 63.9409 4.45739C64.0602 4.19223 64.1199 3.91051 64.1199 3.61222C64.1199 3.27415 64.0403 2.98248 63.8812 2.73722C63.7221 2.48864 63.505 2.29806 63.2299 2.16548C62.9548 2.02959 62.6449 1.96165 62.3002 1.96165C61.9357 1.96165 61.6175 2.03622 61.3457 2.18537C61.0739 2.33452 60.8651 2.54498 60.7193 2.81676C60.5734 3.08854 60.5005 3.40672 60.5005 3.77131H59.0339C59.0339 3.15151 59.1764 2.60961 59.4615 2.1456C59.7465 1.68158 60.1376 1.32197 60.6348 1.06676C61.1319 0.808238 61.697 0.678977 62.3301 0.678977C62.9698 0.678977 63.5332 0.806581 64.0204 1.06179C64.5109 1.31368 64.8938 1.65838 65.1689 2.09588C65.444 2.53007 65.5815 3.0206 65.5815 3.56747C65.5815 3.94531 65.5102 4.31487 65.3677 4.67614C65.2285 5.0374 64.9849 5.4401 64.6369 5.88423C64.2889 6.32505 63.805 6.86032 63.1852 7.49006L61.1618 9.60795V9.68253H65.7456V11H59.0439ZM72.149 6.05327V7.34091H67.6348V6.05327H72.149ZM74.1301 11V3.36364H75.5669V4.5767H75.6465C75.7857 4.16572 76.031 3.84257 76.3823 3.60724C76.7369 3.36861 77.138 3.24929 77.5854 3.24929C77.6782 3.24929 77.7876 3.2526 77.9135 3.25923C78.0428 3.26586 78.1439 3.27415 78.2168 3.28409V4.70597C78.1571 4.68939 78.0511 4.67116 77.8986 4.65128C77.7462 4.62808 77.5937 4.61648 77.4412 4.61648C77.0899 4.61648 76.7767 4.69105 76.5016 4.8402C76.2298 4.98603 76.0144 5.18987 75.8553 5.4517C75.6962 5.71023 75.6167 6.00521 75.6167 6.33665V11H74.1301ZM79.5032 11V3.36364H80.9897V11H79.5032ZM80.2539 2.18537C79.9954 2.18537 79.7733 2.09919 79.5877 1.92685C79.4054 1.75118 79.3143 1.54238 79.3143 1.30043C79.3143 1.05516 79.4054 0.846354 79.5877 0.674005C79.7733 0.498342 79.9954 0.410511 80.2539 0.410511C80.5124 0.410511 80.7328 0.498342 80.9151 0.674005C81.1007 0.846354 81.1935 1.05516 81.1935 1.30043C81.1935 1.54238 81.1007 1.75118 80.9151 1.92685C80.7328 2.09919 80.5124 2.18537 80.2539 2.18537ZM86.1912 14.0227C85.5847 14.0227 85.0627 13.9432 84.6252 13.7841C84.191 13.625 83.8364 13.4145 83.5613 13.1527C83.2862 12.8909 83.0807 12.6042 82.9448 12.2926L84.2225 11.7656C84.312 11.9115 84.4313 12.0656 84.5804 12.228C84.7329 12.3937 84.9384 12.5346 85.1969 12.6506C85.4587 12.7666 85.7952 12.8246 86.2061 12.8246C86.7696 12.8246 87.2353 12.687 87.6032 12.4119C87.9711 12.1402 88.155 11.706 88.155 11.1094V9.60795H88.0605C87.9711 9.77036 87.8418 9.95099 87.6728 10.1499C87.507 10.3487 87.2784 10.5211 86.9867 10.6669C86.695 10.8127 86.3155 10.8857 85.8482 10.8857C85.245 10.8857 84.7014 10.7448 84.2175 10.4631C83.7369 10.178 83.3558 9.75876 83.074 9.20526C82.7956 8.64844 82.6564 7.96401 82.6564 7.15199C82.6564 6.33996 82.794 5.64394 83.0691 5.06392C83.3475 4.4839 83.7286 4.03977 84.2125 3.73153C84.6964 3.41998 85.245 3.2642 85.8581 3.2642C86.3321 3.2642 86.7149 3.34375 87.0066 3.50284C87.2982 3.65862 87.5253 3.84091 87.6877 4.04972C87.8534 4.25852 87.981 4.44247 88.0705 4.60156H88.1799V3.36364H89.6365V11.169C89.6365 11.8253 89.4841 12.3639 89.1792 12.7848C88.8742 13.2057 88.4616 13.5173 87.9412 13.7195C87.4242 13.9216 86.8409 14.0227 86.1912 14.0227ZM86.1763 9.6527C86.6039 9.6527 86.9651 9.55327 87.2601 9.3544C87.5584 9.15223 87.7838 8.86387 87.9363 8.48935C88.092 8.11151 88.1699 7.65909 88.1699 7.1321C88.1699 6.61837 88.0937 6.16596 87.9412 5.77486C87.7888 5.38376 87.565 5.07884 87.2701 4.86009C86.9751 4.63802 86.6105 4.52699 86.1763 4.52699C85.7289 4.52699 85.356 4.64299 85.0577 4.875C84.7594 5.10369 84.534 5.41525 84.3816 5.80966C84.2324 6.20407 84.1578 6.64489 84.1578 7.1321C84.1578 7.63258 84.2341 8.07173 84.3865 8.44957C84.539 8.82741 84.7644 9.1224 85.0627 9.33452C85.3643 9.54664 85.7355 9.6527 86.1763 9.6527ZM93.1167 6.46591V11H91.6301V0.818182H93.0968V4.60653H93.1912C93.3702 4.19555 93.6436 3.86908 94.0115 3.62713C94.3794 3.38518 94.86 3.2642 95.4533 3.2642C95.977 3.2642 96.4344 3.37192 96.8255 3.58736C97.2199 3.80279 97.5248 4.12429 97.7402 4.55185C97.959 4.97609 98.0684 5.50639 98.0684 6.14276V11H96.5819V6.32173C96.5819 5.7616 96.4377 5.32741 96.1493 5.01918C95.861 4.70762 95.4599 4.55185 94.9462 4.55185C94.5949 4.55185 94.28 4.62642 94.0016 4.77557C93.7265 4.92472 93.5094 5.14347 93.3503 5.43182C93.1945 5.71686 93.1167 6.06155 93.1167 6.46591ZM103.617 3.36364V4.55682H99.4455V3.36364H103.617ZM100.564 1.53409H102.051V8.75781C102.051 9.04616 102.094 9.26326 102.18 9.40909C102.266 9.55161 102.377 9.64938 102.513 9.70241C102.652 9.75213 102.803 9.77699 102.965 9.77699C103.085 9.77699 103.189 9.7687 103.279 9.75213C103.368 9.73556 103.438 9.7223 103.487 9.71236L103.756 10.9403C103.67 10.9735 103.547 11.0066 103.388 11.0398C103.229 11.0762 103.03 11.0961 102.791 11.0994C102.4 11.1061 102.036 11.0365 101.698 10.8906C101.36 10.7448 101.086 10.5194 100.877 10.2145C100.669 9.90956 100.564 9.52675 100.564 9.06605V1.53409Z" fill="black"/>
</svg>
