<svg viewBox="0 0 72 15" fill="none" stroke-width="2" stroke="currentColor" aria-hidden="true">
  <path d="M1.4858 0.818182V11H-0.000710189V0.818182H1.4858ZM6.70224 11.1541C5.98633 11.1541 5.36156 10.9901 4.82795 10.6619C4.29433 10.3338 3.88003 9.87476 3.58505 9.2848C3.29007 8.69484 3.14258 8.00544 3.14258 7.21662C3.14258 6.42448 3.29007 5.73177 3.58505 5.13849C3.88003 4.54522 4.29433 4.08452 4.82795 3.75639C5.36156 3.42827 5.98633 3.2642 6.70224 3.2642C7.41815 3.2642 8.04291 3.42827 8.57653 3.75639C9.11014 4.08452 9.52444 4.54522 9.81942 5.13849C10.1144 5.73177 10.2619 6.42448 10.2619 7.21662C10.2619 8.00544 10.1144 8.69484 9.81942 9.2848C9.52444 9.87476 9.11014 10.3338 8.57653 10.6619C8.04291 10.9901 7.41815 11.1541 6.70224 11.1541ZM6.70721 9.90625C7.17122 9.90625 7.55569 9.78362 7.86062 9.53835C8.16554 9.29309 8.39092 8.96662 8.53675 8.55895C8.6859 8.15128 8.76048 7.70218 8.76048 7.21165C8.76048 6.72443 8.6859 6.27699 8.53675 5.86932C8.39092 5.45833 8.16554 5.12855 7.86062 4.87997C7.55569 4.63139 7.17122 4.5071 6.70721 4.5071C6.23988 4.5071 5.8521 4.63139 5.54386 4.87997C5.23893 5.12855 5.0119 5.45833 4.86275 5.86932C4.71692 6.27699 4.644 6.72443 4.644 7.21165C4.644 7.70218 4.71692 8.15128 4.86275 8.55895C5.0119 8.96662 5.23893 9.29309 5.54386 9.53835C5.8521 9.78362 6.23988 9.90625 6.70721 9.90625ZM14.1435 11.169C13.6596 11.169 13.2221 11.0795 12.831 10.9006C12.4399 10.7183 12.13 10.4548 11.9013 10.1101C11.6759 9.76539 11.5632 9.3428 11.5632 8.84233C11.5632 8.41146 11.6461 8.05682 11.8118 7.77841C11.9775 7.5 12.2012 7.27959 12.483 7.11719C12.7647 6.95478 13.0795 6.83215 13.4276 6.74929C13.7756 6.66643 14.1302 6.60346 14.4915 6.56037C14.9489 6.50734 15.3201 6.46425 15.6051 6.43111C15.8902 6.39465 16.0973 6.33665 16.2266 6.2571C16.3558 6.17756 16.4205 6.0483 16.4205 5.86932V5.83452C16.4205 5.40033 16.2978 5.06392 16.0526 4.82528C15.8106 4.58665 15.4493 4.46733 14.9688 4.46733C14.4683 4.46733 14.0739 4.57836 13.7855 4.80043C13.5005 5.01918 13.3033 5.26278 13.1939 5.53125L11.7969 5.21307C11.9626 4.74905 12.2045 4.37453 12.5227 4.08949C12.8442 3.80114 13.2138 3.59233 13.6314 3.46307C14.049 3.33049 14.4882 3.2642 14.9489 3.2642C15.2538 3.2642 15.5769 3.30066 15.9183 3.37358C16.263 3.44318 16.5845 3.57244 16.8828 3.76136C17.1844 3.95028 17.4313 4.22041 17.6236 4.57173C17.8158 4.91974 17.9119 5.37216 17.9119 5.92898V11H16.4602V9.95597H16.4006C16.3045 10.1482 16.1603 10.3371 15.968 10.5227C15.7758 10.7083 15.5289 10.8625 15.2273 10.9851C14.9257 11.1077 14.5644 11.169 14.1435 11.169ZM14.4666 9.97585C14.8776 9.97585 15.2289 9.89465 15.5206 9.73224C15.8156 9.56984 16.0393 9.35772 16.1918 9.09588C16.3475 8.83073 16.4254 8.54735 16.4254 8.24574V7.26136C16.3724 7.31439 16.2696 7.36411 16.1172 7.41051C15.968 7.4536 15.7973 7.49171 15.6051 7.52486C15.4129 7.55469 15.2256 7.58286 15.0433 7.60938C14.861 7.63258 14.7086 7.65246 14.5859 7.66903C14.2976 7.70549 14.0341 7.76681 13.7955 7.85298C13.5601 7.93916 13.3712 8.06345 13.2287 8.22585C13.0895 8.38494 13.0199 8.59706 13.0199 8.86222C13.0199 9.23011 13.1558 9.50852 13.4276 9.69744C13.6993 9.88305 14.0457 9.97585 14.4666 9.97585ZM22.7505 11.1491C22.1341 11.1491 21.5839 10.9917 21.1 10.6768C20.6194 10.3587 20.2415 9.90625 19.9664 9.3196C19.6947 8.72964 19.5588 8.02202 19.5588 7.19673C19.5588 6.37145 19.6963 5.66548 19.9714 5.07884C20.2498 4.49219 20.631 4.04309 21.1149 3.73153C21.5988 3.41998 22.1473 3.2642 22.7605 3.2642C23.2344 3.2642 23.6156 3.34375 23.9039 3.50284C24.1956 3.65862 24.421 3.84091 24.5801 4.04972C24.7425 4.25852 24.8684 4.44247 24.9579 4.60156H25.0474V0.818182H26.5339V11H25.0822V9.81179H24.9579C24.8684 9.9742 24.7392 10.1598 24.5701 10.3686C24.4044 10.5774 24.1757 10.7597 23.8841 10.9155C23.5924 11.0713 23.2145 11.1491 22.7505 11.1491ZM23.0787 9.88139C23.5062 9.88139 23.8675 9.7687 24.1625 9.54332C24.4608 9.31463 24.6861 8.99811 24.8386 8.59375C24.9944 8.18939 25.0723 7.71875 25.0723 7.18182C25.0723 6.65151 24.996 6.1875 24.8436 5.78977C24.6911 5.39205 24.4674 5.08215 24.1724 4.86009C23.8774 4.63802 23.5128 4.52699 23.0787 4.52699C22.6312 4.52699 22.2583 4.64299 21.96 4.875C21.6618 5.10701 21.4364 5.42353 21.2839 5.82457C21.1348 6.22562 21.0602 6.67803 21.0602 7.18182C21.0602 7.69223 21.1364 8.15128 21.2889 8.55895C21.4413 8.96662 21.6667 9.28977 21.965 9.52841C22.2666 9.76373 22.6378 9.88139 23.0787 9.88139ZM28.6555 11V3.36364H30.142V11H28.6555ZM29.4062 2.18537C29.1477 2.18537 28.9257 2.09919 28.7401 1.92685C28.5578 1.75118 28.4666 1.54238 28.4666 1.30043C28.4666 1.05516 28.5578 0.846354 28.7401 0.674005C28.9257 0.498342 29.1477 0.410511 29.4062 0.410511C29.6648 0.410511 29.8852 0.498342 30.0675 0.674005C30.2531 0.846354 30.3459 1.05516 30.3459 1.30043C30.3459 1.54238 30.2531 1.75118 30.0675 1.92685C29.8852 2.09919 29.6648 2.18537 29.4062 2.18537ZM33.6284 6.46591V11H32.1419V3.36364H33.5687V4.60653H33.6632C33.8388 4.20218 34.1139 3.87737 34.4885 3.6321C34.8663 3.38684 35.3419 3.2642 35.9153 3.2642C36.4357 3.2642 36.8914 3.37358 37.2825 3.59233C37.6736 3.80777 37.9769 4.12926 38.1923 4.55682C38.4077 4.98437 38.5154 5.51302 38.5154 6.14276V11H37.0289V6.32173C37.0289 5.76823 36.8848 5.3357 36.5964 5.02415C36.3081 4.70928 35.912 4.55185 35.4082 4.55185C35.0635 4.55185 34.7569 4.62642 34.4885 4.77557C34.2233 4.92472 34.0128 5.14347 33.8571 5.43182C33.7046 5.71686 33.6284 6.06155 33.6284 6.46591ZM43.7108 14.0227C43.1042 14.0227 42.5822 13.9432 42.1447 13.7841C41.7105 13.625 41.3559 13.4145 41.0808 13.1527C40.8057 12.8909 40.6002 12.6042 40.4643 12.2926L41.742 11.7656C41.8315 11.9115 41.9508 12.0656 42.1 12.228C42.2524 12.3937 42.4579 12.5346 42.7164 12.6506C42.9783 12.7666 43.3147 12.8246 43.7257 12.8246C44.2891 12.8246 44.7548 12.687 45.1227 12.4119C45.4906 12.1402 45.6745 11.706 45.6745 11.1094V9.60795H45.5801C45.4906 9.77036 45.3613 9.95099 45.1923 10.1499C45.0266 10.3487 44.7979 10.5211 44.5062 10.6669C44.2145 10.8127 43.835 10.8857 43.3677 10.8857C42.7645 10.8857 42.2209 10.7448 41.737 10.4631C41.2565 10.178 40.8753 9.75876 40.5936 9.20526C40.3152 8.64844 40.176 7.96401 40.176 7.15199C40.176 6.33996 40.3135 5.64394 40.5886 5.06392C40.867 4.4839 41.2482 4.03977 41.7321 3.73153C42.216 3.41998 42.7645 3.2642 43.3777 3.2642C43.8516 3.2642 44.2344 3.34375 44.5261 3.50284C44.8178 3.65862 45.0448 3.84091 45.2072 4.04972C45.3729 4.25852 45.5005 4.44247 45.59 4.60156H45.6994V3.36364H47.1561V11.169C47.1561 11.8253 47.0036 12.3639 46.6987 12.7848C46.3938 13.2057 45.9811 13.5173 45.4608 13.7195C44.9437 13.9216 44.3604 14.0227 43.7108 14.0227ZM43.6958 9.6527C44.1234 9.6527 44.4847 9.55327 44.7797 9.3544C45.0779 9.15223 45.3033 8.86387 45.4558 8.48935C45.6116 8.11151 45.6895 7.65909 45.6895 7.1321C45.6895 6.61837 45.6132 6.16596 45.4608 5.77486C45.3083 5.38376 45.0846 5.07884 44.7896 4.86009C44.4946 4.63802 44.13 4.52699 43.6958 4.52699C43.2484 4.52699 42.8755 4.64299 42.5772 4.875C42.2789 5.10369 42.0536 5.41525 41.9011 5.80966C41.752 6.20407 41.6774 6.64489 41.6774 7.1321C41.6774 7.63258 41.7536 8.07173 41.9061 8.44957C42.0585 8.82741 42.2839 9.1224 42.5822 9.33452C42.8838 9.54664 43.255 9.6527 43.6958 9.6527ZM53.649 6.05327V7.34091H49.1348V6.05327H53.649ZM59.155 11.169C58.3695 11.1657 57.6983 10.9586 57.1415 10.5476C56.5847 10.1366 56.1588 9.53835 55.8638 8.75284C55.5688 7.96733 55.4213 7.02107 55.4213 5.91406C55.4213 4.81037 55.5688 3.86742 55.8638 3.08523C56.1621 2.30303 56.5897 1.70644 57.1465 1.29545C57.7066 0.884469 58.3761 0.678977 59.155 0.678977C59.9339 0.678977 60.6017 0.886126 61.1586 1.30043C61.7154 1.71141 62.1413 2.308 62.4363 3.0902C62.7346 3.86908 62.8837 4.81037 62.8837 5.91406C62.8837 7.02438 62.7362 7.9723 62.4412 8.75781C62.1462 9.54001 61.7203 10.1383 61.1635 10.5526C60.6067 10.9635 59.9372 11.169 59.155 11.169ZM59.155 9.84162C59.8444 9.84162 60.383 9.50521 60.7708 8.83239C61.1619 8.15956 61.3574 7.18679 61.3574 5.91406C61.3574 5.06889 61.2679 4.35464 61.089 3.77131C60.9133 3.18466 60.6597 2.74053 60.3283 2.43892C60.0002 2.134 59.6091 1.98153 59.155 1.98153C58.4689 1.98153 57.9303 2.3196 57.5392 2.99574C57.1481 3.67187 56.9509 4.64465 56.9476 5.91406C56.9476 6.76255 57.0355 7.48011 57.2111 8.06676C57.3901 8.65009 57.6436 9.09257 57.9718 9.39418C58.2999 9.69247 58.6943 9.84162 59.155 9.84162ZM64.6474 11V9.88636L68.0927 6.31676C68.4606 5.92898 68.7638 5.58925 69.0025 5.29759C69.2444 5.0026 69.4251 4.72254 69.5444 4.45739C69.6637 4.19223 69.7234 3.91051 69.7234 3.61222C69.7234 3.27415 69.6438 2.98248 69.4847 2.73722C69.3256 2.48864 69.1085 2.29806 68.8335 2.16548C68.5584 2.02959 68.2485 1.96165 67.9038 1.96165C67.5392 1.96165 67.221 2.03622 66.9492 2.18537C66.6774 2.33452 66.4686 2.54498 66.3228 2.81676C66.177 3.08854 66.104 3.40672 66.104 3.77131H64.6374C64.6374 3.15151 64.7799 2.60961 65.065 2.1456C65.35 1.68158 65.7411 1.32197 66.2383 1.06676C66.7354 0.808238 67.3005 0.678977 67.9336 0.678977C68.5733 0.678977 69.1367 0.806581 69.6239 1.06179C70.1145 1.31368 70.4973 1.65838 70.7724 2.09588C71.0475 2.53007 71.185 3.0206 71.185 3.56747C71.185 3.94531 71.1138 4.31487 70.9712 4.67614C70.832 5.0374 70.5884 5.4401 70.2404 5.88423C69.8924 6.32505 69.4085 6.86032 68.7887 7.49006L66.7653 9.60795V9.68253H71.3491V11H64.6474Z" fill="black"/>
</svg>
