<svg viewBox="0 0 97 12" fill="none" stroke-width="2" stroke="currentColor" aria-hidden="true">
  <path d="M0.118608 11V0.818182H1.60511V4.60156H1.6946C1.78078 4.44247 1.90507 4.25852 2.06747 4.04972C2.22988 3.84091 2.45526 3.65862 2.74361 3.50284C3.03196 3.34375 3.41312 3.2642 3.88707 3.2642C4.50355 3.2642 5.05374 3.41998 5.53764 3.73153C6.02154 4.04309 6.40104 4.49219 6.67614 5.07884C6.95455 5.66548 7.09375 6.37145 7.09375 7.19673C7.09375 8.02202 6.9562 8.72964 6.68111 9.3196C6.40601 9.90625 6.02817 10.3587 5.54759 10.6768C5.067 10.9917 4.51847 11.1491 3.90199 11.1491C3.43797 11.1491 3.05848 11.0713 2.76349 10.9155C2.47183 10.7597 2.24313 10.5774 2.07741 10.3686C1.9117 10.1598 1.78409 9.9742 1.6946 9.81179H1.57031V11H0.118608ZM1.57528 7.18182C1.57528 7.71875 1.65317 8.18939 1.80895 8.59375C1.96473 8.99811 2.1901 9.31463 2.48509 9.54332C2.78007 9.7687 3.14134 9.88139 3.56889 9.88139C4.01302 9.88139 4.38423 9.76373 4.68253 9.52841C4.98082 9.28977 5.2062 8.96662 5.35866 8.55895C5.51444 8.15128 5.59233 7.69223 5.59233 7.18182C5.59233 6.67803 5.5161 6.22562 5.36364 5.82457C5.21449 5.42353 4.98911 5.10701 4.6875 4.875C4.3892 4.64299 4.01634 4.52699 3.56889 4.52699C3.13802 4.52699 2.77344 4.63802 2.47514 4.86009C2.18016 5.08215 1.95644 5.39205 1.80398 5.78977C1.65152 6.1875 1.57528 6.65151 1.57528 7.18182ZM11.9796 11.1541C11.2637 11.1541 10.6389 10.9901 10.1053 10.6619C9.57167 10.3338 9.15737 9.87476 8.86239 9.2848C8.56741 8.69484 8.41992 8.00544 8.41992 7.21662C8.41992 6.42448 8.56741 5.73177 8.86239 5.13849C9.15737 4.54522 9.57167 4.08452 10.1053 3.75639C10.6389 3.42827 11.2637 3.2642 11.9796 3.2642C12.6955 3.2642 13.3203 3.42827 13.8539 3.75639C14.3875 4.08452 14.8018 4.54522 15.0968 5.13849C15.3917 5.73177 15.5392 6.42448 15.5392 7.21662C15.5392 8.00544 15.3917 8.69484 15.0968 9.2848C14.8018 9.87476 14.3875 10.3338 13.8539 10.6619C13.3203 10.9901 12.6955 11.1541 11.9796 11.1541ZM11.9846 9.90625C12.4486 9.90625 12.833 9.78362 13.138 9.53835C13.4429 9.29309 13.6683 8.96662 13.8141 8.55895C13.9632 8.15128 14.0378 7.70218 14.0378 7.21165C14.0378 6.72443 13.9632 6.27699 13.8141 5.86932C13.6683 5.45833 13.4429 5.12855 13.138 4.87997C12.833 4.63139 12.4486 4.5071 11.9846 4.5071C11.5172 4.5071 11.1294 4.63139 10.8212 4.87997C10.5163 5.12855 10.2892 5.45833 10.1401 5.86932C9.99426 6.27699 9.92134 6.72443 9.92134 7.21165C9.92134 7.70218 9.99426 8.15128 10.1401 8.55895C10.2892 8.96662 10.5163 9.29309 10.8212 9.53835C11.1294 9.78362 11.5172 9.90625 11.9846 9.90625ZM20.4151 11.1541C19.6992 11.1541 19.0745 10.9901 18.5408 10.6619C18.0072 10.3338 17.5929 9.87476 17.2979 9.2848C17.003 8.69484 16.8555 8.00544 16.8555 7.21662C16.8555 6.42448 17.003 5.73177 17.2979 5.13849C17.5929 4.54522 18.0072 4.08452 18.5408 3.75639C19.0745 3.42827 19.6992 3.2642 20.4151 3.2642C21.131 3.2642 21.7558 3.42827 22.2894 3.75639C22.823 4.08452 23.2373 4.54522 23.5323 5.13849C23.8273 5.73177 23.9748 6.42448 23.9748 7.21662C23.9748 8.00544 23.8273 8.69484 23.5323 9.2848C23.2373 9.87476 22.823 10.3338 22.2894 10.6619C21.7558 10.9901 21.131 11.1541 20.4151 11.1541ZM20.4201 9.90625C20.8841 9.90625 21.2686 9.78362 21.5735 9.53835C21.8784 9.29309 22.1038 8.96662 22.2496 8.55895C22.3988 8.15128 22.4734 7.70218 22.4734 7.21165C22.4734 6.72443 22.3988 6.27699 22.2496 5.86932C22.1038 5.45833 21.8784 5.12855 21.5735 4.87997C21.2686 4.63139 20.8841 4.5071 20.4201 4.5071C19.9528 4.5071 19.565 4.63139 19.2567 4.87997C18.9518 5.12855 18.7248 5.45833 18.5756 5.86932C18.4298 6.27699 18.3569 6.72443 18.3569 7.21165C18.3569 7.70218 18.4298 8.15128 18.5756 8.55895C18.7248 8.96662 18.9518 9.29309 19.2567 9.53835C19.565 9.78362 19.9528 9.90625 20.4201 9.90625ZM27.0012 8.4098L26.9913 6.59517H27.2498L30.2924 3.36364H32.0723L28.6021 7.04261H28.3684L27.0012 8.4098ZM25.6341 11V0.818182H27.1206V11H25.6341ZM30.4565 11L27.7221 7.37074L28.7463 6.33168L32.2811 11H30.4565ZM33.427 11V3.36364H34.8539V4.60653H34.9483C35.1074 4.18561 35.3676 3.85748 35.7289 3.62216C36.0901 3.38352 36.5227 3.2642 37.0265 3.2642C37.5369 3.2642 37.9644 3.38352 38.3091 3.62216C38.6571 3.8608 38.914 4.18892 39.0797 4.60653H39.1593C39.3416 4.19886 39.6316 3.87405 40.0293 3.6321C40.427 3.38684 40.901 3.2642 41.4512 3.2642C42.1439 3.2642 42.709 3.4813 43.1465 3.91548C43.5873 4.34967 43.8077 5.00426 43.8077 5.87926V11H42.3212V6.01847C42.3212 5.50142 42.1803 5.12689 41.8986 4.89489C41.6169 4.66288 41.2805 4.54688 40.8894 4.54688C40.4055 4.54688 40.0293 4.69602 39.7608 4.99432C39.4924 5.2893 39.3581 5.6688 39.3581 6.13281V11H37.8766V5.92401C37.8766 5.50971 37.7473 5.17661 37.4888 4.92472C37.2303 4.67282 36.8939 4.54688 36.4796 4.54688C36.1979 4.54688 35.9377 4.62145 35.699 4.7706C35.4637 4.91643 35.2731 5.12026 35.1273 5.3821C34.9848 5.64394 34.9135 5.94721 34.9135 6.2919V11H33.427ZM48.0224 11.169C47.5385 11.169 47.101 11.0795 46.7099 10.9006C46.3188 10.7183 46.0089 10.4548 45.7802 10.1101C45.5548 9.76539 45.4421 9.3428 45.4421 8.84233C45.4421 8.41146 45.525 8.05682 45.6907 7.77841C45.8564 7.5 46.0801 7.27959 46.3619 7.11719C46.6436 6.95478 46.9585 6.83215 47.3065 6.74929C47.6545 6.66643 48.0091 6.60346 48.3704 6.56037C48.8278 6.50734 49.199 6.46425 49.484 6.43111C49.7691 6.39465 49.9762 6.33665 50.1055 6.2571C50.2347 6.17756 50.2994 6.0483 50.2994 5.86932V5.83452C50.2994 5.40033 50.1767 5.06392 49.9315 4.82528C49.6895 4.58665 49.3282 4.46733 48.8477 4.46733C48.3472 4.46733 47.9528 4.57836 47.6644 4.80043C47.3794 5.01918 47.1822 5.26278 47.0728 5.53125L45.6758 5.21307C45.8415 4.74905 46.0835 4.37453 46.4016 4.08949C46.7231 3.80114 47.0927 3.59233 47.5103 3.46307C47.9279 3.33049 48.3671 3.2642 48.8278 3.2642C49.1327 3.2642 49.4558 3.30066 49.7972 3.37358C50.1419 3.44318 50.4634 3.57244 50.7617 3.76136C51.0633 3.95028 51.3103 4.22041 51.5025 4.57173C51.6947 4.91974 51.7908 5.37216 51.7908 5.92898V11H50.3391V9.95597H50.2795C50.1834 10.1482 50.0392 10.3371 49.8469 10.5227C49.6547 10.7083 49.4078 10.8625 49.1062 10.9851C48.8046 11.1077 48.4433 11.169 48.0224 11.169ZM48.3455 9.97585C48.7565 9.97585 49.1078 9.89465 49.3995 9.73224C49.6945 9.56984 49.9182 9.35772 50.0707 9.09588C50.2264 8.83073 50.3043 8.54735 50.3043 8.24574V7.26136C50.2513 7.31439 50.1486 7.36411 49.9961 7.41051C49.8469 7.4536 49.6763 7.49171 49.484 7.52486C49.2918 7.55469 49.1045 7.58286 48.9222 7.60938C48.7399 7.63258 48.5875 7.65246 48.4648 7.66903C48.1765 7.70549 47.913 7.76681 47.6744 7.85298C47.439 7.93916 47.2501 8.06345 47.1076 8.22585C46.9684 8.38494 46.8988 8.59706 46.8988 8.86222C46.8988 9.23011 47.0347 9.50852 47.3065 9.69744C47.5782 9.88305 47.9246 9.97585 48.3455 9.97585ZM53.7708 11V3.36364H55.2076V4.5767H55.2871C55.4263 4.16572 55.6716 3.84257 56.0229 3.60724C56.3775 3.36861 56.7786 3.24929 57.226 3.24929C57.3188 3.24929 57.4282 3.2526 57.5542 3.25923C57.6834 3.26586 57.7845 3.27415 57.8574 3.28409V4.70597C57.7978 4.68939 57.6917 4.67116 57.5392 4.65128C57.3868 4.62808 57.2343 4.61648 57.0819 4.61648C56.7305 4.61648 56.4173 4.69105 56.1422 4.8402C55.8704 4.98603 55.655 5.18987 55.4959 5.4517C55.3368 5.71023 55.2573 6.00521 55.2573 6.33665V11H53.7708ZM60.511 8.4098L60.5011 6.59517H60.7596L63.8022 3.36364H65.582L62.1119 7.04261H61.8782L60.511 8.4098ZM59.1438 11V0.818182H60.6303V11H59.1438ZM63.9663 11L61.2319 7.37074L62.256 6.33168L65.7908 11H63.9663ZM70.9165 6.05327V7.34091H66.4023V6.05327H70.9165ZM75.12 11.169C74.6361 11.169 74.1986 11.0795 73.8075 10.9006C73.4164 10.7183 73.1065 10.4548 72.8778 10.1101C72.6525 9.76539 72.5398 9.3428 72.5398 8.84233C72.5398 8.41146 72.6226 8.05682 72.7884 7.77841C72.9541 7.5 73.1778 7.27959 73.4595 7.11719C73.7412 6.95478 74.0561 6.83215 74.4041 6.74929C74.7521 6.66643 75.1068 6.60346 75.468 6.56037C75.9254 6.50734 76.2966 6.46425 76.5817 6.43111C76.8667 6.39465 77.0739 6.33665 77.2031 6.2571C77.3324 6.17756 77.397 6.0483 77.397 5.86932V5.83452C77.397 5.40033 77.2744 5.06392 77.0291 4.82528C76.7872 4.58665 76.4259 4.46733 75.9453 4.46733C75.4448 4.46733 75.0504 4.57836 74.7621 4.80043C74.477 5.01918 74.2798 5.26278 74.1705 5.53125L72.7734 5.21307C72.9392 4.74905 73.1811 4.37453 73.4993 4.08949C73.8208 3.80114 74.1903 3.59233 74.608 3.46307C75.0256 3.33049 75.4647 3.2642 75.9254 3.2642C76.2304 3.2642 76.5535 3.30066 76.8949 3.37358C77.2396 3.44318 77.5611 3.57244 77.8594 3.76136C78.161 3.95028 78.4079 4.22041 78.6001 4.57173C78.7924 4.91974 78.8885 5.37216 78.8885 5.92898V11H77.4368V9.95597H77.3771C77.281 10.1482 77.1368 10.3371 76.9446 10.5227C76.7524 10.7083 76.5054 10.8625 76.2038 10.9851C75.9022 11.1077 75.541 11.169 75.12 11.169ZM75.4432 9.97585C75.8542 9.97585 76.2055 9.89465 76.4972 9.73224C76.7921 9.56984 77.0159 9.35772 77.1683 9.09588C77.3241 8.83073 77.402 8.54735 77.402 8.24574V7.26136C77.349 7.31439 77.2462 7.36411 77.0938 7.41051C76.9446 7.4536 76.7739 7.49171 76.5817 7.52486C76.3894 7.55469 76.2022 7.58286 76.0199 7.60938C75.8376 7.63258 75.6851 7.65246 75.5625 7.66903C75.2741 7.70549 75.0107 7.76681 74.772 7.85298C74.5367 7.93916 74.3478 8.06345 74.2053 8.22585C74.0661 8.38494 73.9964 8.59706 73.9964 8.86222C73.9964 9.23011 74.1323 9.50852 74.4041 9.69744C74.6759 9.88305 75.0223 9.97585 75.4432 9.97585ZM83.7271 11.1491C83.1106 11.1491 82.5604 10.9917 82.0765 10.6768C81.5959 10.3587 81.2181 9.90625 80.943 9.3196C80.6712 8.72964 80.5353 8.02202 80.5353 7.19673C80.5353 6.37145 80.6729 5.66548 80.948 5.07884C81.2264 4.49219 81.6075 4.04309 82.0914 3.73153C82.5753 3.41998 83.1239 3.2642 83.737 3.2642C84.211 3.2642 84.5922 3.34375 84.8805 3.50284C85.1722 3.65862 85.3975 3.84091 85.5566 4.04972C85.719 4.25852 85.845 4.44247 85.9345 4.60156H86.024V0.818182H87.5105V11H86.0588V9.81179H85.9345C85.845 9.9742 85.7157 10.1598 85.5467 10.3686C85.381 10.5774 85.1523 10.7597 84.8606 10.9155C84.569 11.0713 84.1911 11.1491 83.7271 11.1491ZM84.0552 9.88139C84.4828 9.88139 84.844 9.7687 85.139 9.54332C85.4373 9.31463 85.6627 8.99811 85.8152 8.59375C85.9709 8.18939 86.0488 7.71875 86.0488 7.18182C86.0488 6.65151 85.9726 6.1875 85.8201 5.78977C85.6677 5.39205 85.444 5.08215 85.149 4.86009C84.854 4.63802 84.4894 4.52699 84.0552 4.52699C83.6078 4.52699 83.2349 4.64299 82.9366 4.875C82.6383 5.10701 82.4129 5.42353 82.2605 5.82457C82.1113 6.22562 82.0368 6.67803 82.0368 7.18182C82.0368 7.69223 82.113 8.15128 82.2654 8.55895C82.4179 8.96662 82.6433 9.28977 82.9416 9.52841C83.2432 9.76373 83.6144 9.88139 84.0552 9.88139ZM92.4908 11.1491C91.8743 11.1491 91.3241 10.9917 90.8402 10.6768C90.3596 10.3587 89.9818 9.90625 89.7067 9.3196C89.4349 8.72964 89.299 8.02202 89.299 7.19673C89.299 6.37145 89.4366 5.66548 89.7116 5.07884C89.9901 4.49219 90.3712 4.04309 90.8551 3.73153C91.339 3.41998 91.8875 3.2642 92.5007 3.2642C92.9747 3.2642 93.3558 3.34375 93.6442 3.50284C93.9358 3.65862 94.1612 3.84091 94.3203 4.04972C94.4827 4.25852 94.6087 4.44247 94.6982 4.60156H94.7876V0.818182H96.2741V11H94.8224V9.81179H94.6982C94.6087 9.9742 94.4794 10.1598 94.3104 10.3686C94.1446 10.5774 93.916 10.7597 93.6243 10.9155C93.3326 11.0713 92.9548 11.1491 92.4908 11.1491ZM92.8189 9.88139C93.2464 9.88139 93.6077 9.7687 93.9027 9.54332C94.201 9.31463 94.4264 8.99811 94.5788 8.59375C94.7346 8.18939 94.8125 7.71875 94.8125 7.18182C94.8125 6.65151 94.7363 6.1875 94.5838 5.78977C94.4313 5.39205 94.2076 5.08215 93.9126 4.86009C93.6177 4.63802 93.2531 4.52699 92.8189 4.52699C92.3714 4.52699 91.9986 4.64299 91.7003 4.875C91.402 5.10701 91.1766 5.42353 91.0241 5.82457C90.875 6.22562 90.8004 6.67803 90.8004 7.18182C90.8004 7.69223 90.8767 8.15128 91.0291 8.55895C91.1816 8.96662 91.407 9.28977 91.7053 9.52841C92.0069 9.76373 92.3781 9.88139 92.8189 9.88139Z" fill="black"/>
</svg>
