<svg viewBox="0 0 113 14" fill="none" stroke-width="2" stroke="currentColor" aria-hidden="true">
  <path d="M6.72159 5.22798L5.37429 5.46662C5.31795 5.29427 5.22846 5.13021 5.10582 4.97443C4.98651 4.81865 4.8241 4.69105 4.61861 4.59162C4.41312 4.49219 4.15625 4.44247 3.84801 4.44247C3.42708 4.44247 3.07576 4.53693 2.79403 4.72585C2.51231 4.91146 2.37145 5.15175 2.37145 5.44673C2.37145 5.70194 2.46591 5.90743 2.65483 6.06321C2.84375 6.21899 3.14867 6.34659 3.5696 6.44602L4.78267 6.72443C5.48532 6.88684 6.009 7.13707 6.35369 7.47514C6.69839 7.81321 6.87074 8.25237 6.87074 8.79261C6.87074 9.25 6.73816 9.65767 6.47301 10.0156C6.21117 10.3703 5.84493 10.6487 5.37429 10.8509C4.90696 11.053 4.36506 11.1541 3.74858 11.1541C2.89347 11.1541 2.19579 10.9718 1.65554 10.6072C1.11529 10.2393 0.783854 9.71733 0.661222 9.04119L2.09801 8.82244C2.1875 9.19697 2.37145 9.48035 2.64986 9.67259C2.92827 9.86151 3.29119 9.95597 3.73864 9.95597C4.22585 9.95597 4.61529 9.85488 4.90696 9.6527C5.19863 9.44721 5.34446 9.19697 5.34446 8.90199C5.34446 8.66335 5.25497 8.46283 5.07599 8.30043C4.90033 8.13802 4.63021 8.01539 4.26562 7.93253L2.97301 7.64915C2.26042 7.48674 1.73343 7.22822 1.39205 6.87358C1.05398 6.51894 0.884943 6.06984 0.884943 5.52628C0.884943 5.07552 1.01089 4.68111 1.26278 4.34304C1.51468 4.00497 1.86269 3.74148 2.30682 3.55256C2.75095 3.36032 3.25971 3.2642 3.8331 3.2642C4.65838 3.2642 5.308 3.44318 5.78196 3.80114C6.25592 4.15578 6.56913 4.63139 6.72159 5.22798ZM8.50515 13.8636V3.36364H9.95685V4.60156H10.0811C10.1673 4.44247 10.2916 4.25852 10.454 4.04972C10.6164 3.84091 10.8418 3.65862 11.1301 3.50284C11.4185 3.34375 11.7997 3.2642 12.2736 3.2642C12.8901 3.2642 13.4403 3.41998 13.9242 3.73153C14.4081 4.04309 14.7876 4.49219 15.0627 5.07884C15.3411 5.66548 15.4803 6.37145 15.4803 7.19673C15.4803 8.02202 15.3427 8.72964 15.0676 9.3196C14.7926 9.90625 14.4147 10.3587 13.9341 10.6768C13.4535 10.9917 12.905 11.1491 12.2885 11.1491C11.8245 11.1491 11.445 11.0713 11.15 10.9155C10.8584 10.7597 10.6297 10.5774 10.464 10.3686C10.2982 10.1598 10.1706 9.9742 10.0811 9.81179H9.99165V13.8636H8.50515ZM9.96183 7.18182C9.96183 7.71875 10.0397 8.18939 10.1955 8.59375C10.3513 8.99811 10.5766 9.31463 10.8716 9.54332C11.1666 9.7687 11.5279 9.88139 11.9554 9.88139C12.3996 9.88139 12.7708 9.76373 13.0691 9.52841C13.3674 9.28977 13.5927 8.96662 13.7452 8.55895C13.901 8.15128 13.9789 7.69223 13.9789 7.18182C13.9789 6.67803 13.9026 6.22562 13.7502 5.82457C13.601 5.42353 13.3757 5.10701 13.074 4.875C12.7757 4.64299 12.4029 4.52699 11.9554 4.52699C11.5246 4.52699 11.16 4.63802 10.8617 4.86009C10.5667 5.08215 10.343 5.39205 10.1905 5.78977C10.0381 6.1875 9.96183 6.65151 9.96183 7.18182ZM20.437 11.1541C19.6846 11.1541 19.0366 10.9934 18.4931 10.6719C17.9528 10.3471 17.5352 9.89134 17.2402 9.30469C16.9486 8.71473 16.8027 8.02367 16.8027 7.23153C16.8027 6.44934 16.9486 5.75994 17.2402 5.16335C17.5352 4.56676 17.9462 4.10109 18.4732 3.76633C19.0035 3.43158 19.6233 3.2642 20.3326 3.2642C20.7634 3.2642 21.181 3.33546 21.5854 3.47798C21.9898 3.6205 22.3527 3.84422 22.6742 4.14915C22.9957 4.45407 23.2492 4.85014 23.4348 5.33736C23.6204 5.82126 23.7132 6.40956 23.7132 7.10227V7.62926H17.6429V6.51562H22.2566C22.2566 6.12453 22.177 5.77817 22.0179 5.47656C21.8588 5.17164 21.6351 4.93134 21.3468 4.75568C21.0617 4.58002 20.727 4.49219 20.3425 4.49219C19.9249 4.49219 19.5603 4.59493 19.2488 4.80043C18.9405 5.0026 18.7019 5.26776 18.5328 5.59588C18.3671 5.92069 18.2843 6.27367 18.2843 6.65483V7.52486C18.2843 8.03527 18.3738 8.46946 18.5527 8.82741C18.735 9.18537 18.9886 9.45881 19.3134 9.64773C19.6382 9.83333 20.0177 9.92614 20.4519 9.92614C20.7336 9.92614 20.9905 9.88636 21.2225 9.80682C21.4545 9.72396 21.655 9.60133 21.824 9.43892C21.9931 9.27652 22.1223 9.07599 22.2118 8.83736L23.6188 9.09091C23.5061 9.50521 23.3039 9.86813 23.0123 10.1797C22.7239 10.4879 22.361 10.7282 21.9235 10.9006C21.4893 11.0696 20.9938 11.1541 20.437 11.1541ZM28.6538 11.1541C27.9014 11.1541 27.2534 10.9934 26.7099 10.6719C26.1696 10.3471 25.752 9.89134 25.457 9.30469C25.1654 8.71473 25.0195 8.02367 25.0195 7.23153C25.0195 6.44934 25.1654 5.75994 25.457 5.16335C25.752 4.56676 26.163 4.10109 26.69 3.76633C27.2203 3.43158 27.8401 3.2642 28.5494 3.2642C28.9802 3.2642 29.3978 3.33546 29.8022 3.47798C30.2066 3.6205 30.5695 3.84422 30.891 4.14915C31.2125 4.45407 31.466 4.85014 31.6516 5.33736C31.8372 5.82126 31.93 6.40956 31.93 7.10227V7.62926H25.8597V6.51562H30.4734C30.4734 6.12453 30.3938 5.77817 30.2347 5.47656C30.0756 5.17164 29.8519 4.93134 29.5636 4.75568C29.2785 4.58002 28.9438 4.49219 28.5593 4.49219C28.1417 4.49219 27.7771 4.59493 27.4656 4.80043C27.1573 5.0026 26.9187 5.26776 26.7496 5.59588C26.5839 5.92069 26.5011 6.27367 26.5011 6.65483V7.52486C26.5011 8.03527 26.5906 8.46946 26.7695 8.82741C26.9518 9.18537 27.2054 9.45881 27.5302 9.64773C27.855 9.83333 28.2345 9.92614 28.6687 9.92614C28.9504 9.92614 29.2073 9.88636 29.4393 9.80682C29.6713 9.72396 29.8718 9.60133 30.0408 9.43892C30.2099 9.27652 30.3391 9.07599 30.4286 8.83736L31.8356 9.09091C31.7229 9.50521 31.5207 9.86813 31.229 10.1797C30.9407 10.4879 30.5778 10.7282 30.1403 10.9006C29.7061 11.0696 29.2106 11.1541 28.6538 11.1541ZM36.438 11.1491C35.8216 11.1491 35.2714 10.9917 34.7875 10.6768C34.3069 10.3587 33.929 9.90625 33.6539 9.3196C33.3822 8.72964 33.2463 8.02202 33.2463 7.19673C33.2463 6.37145 33.3838 5.66548 33.6589 5.07884C33.9373 4.49219 34.3185 4.04309 34.8024 3.73153C35.2863 3.41998 35.8348 3.2642 36.448 3.2642C36.9219 3.2642 37.3031 3.34375 37.5914 3.50284C37.8831 3.65862 38.1085 3.84091 38.2676 4.04972C38.43 4.25852 38.5559 4.44247 38.6454 4.60156H38.7349V0.818182H40.2214V11H38.7697V9.81179H38.6454C38.5559 9.9742 38.4267 10.1598 38.2576 10.3686C38.0919 10.5774 37.8632 10.7597 37.5716 10.9155C37.2799 11.0713 36.902 11.1491 36.438 11.1491ZM36.7662 9.88139C37.1937 9.88139 37.555 9.7687 37.85 9.54332C38.1483 9.31463 38.3736 8.99811 38.5261 8.59375C38.6819 8.18939 38.7598 7.71875 38.7598 7.18182C38.7598 6.65151 38.6835 6.1875 38.5311 5.78977C38.3786 5.39205 38.1549 5.08215 37.8599 4.86009C37.5649 4.63802 37.2003 4.52699 36.7662 4.52699C36.3187 4.52699 35.9458 4.64299 35.6475 4.875C35.3493 5.10701 35.1239 5.42353 34.9714 5.82457C34.8223 6.22562 34.7477 6.67803 34.7477 7.18182C34.7477 7.69223 34.8239 8.15128 34.9764 8.55895C35.1288 8.96662 35.3542 9.28977 35.6525 9.52841C35.9541 9.76373 36.3253 9.88139 36.7662 9.88139ZM45.5597 11.1541C44.8438 11.1541 44.219 10.9901 43.6854 10.6619C43.1518 10.3338 42.7375 9.87476 42.4425 9.2848C42.1475 8.69484 42 8.00544 42 7.21662C42 6.42448 42.1475 5.73177 42.4425 5.13849C42.7375 4.54522 43.1518 4.08452 43.6854 3.75639C44.219 3.42827 44.8438 3.2642 45.5597 3.2642C46.2756 3.2642 46.9003 3.42827 47.4339 3.75639C47.9676 4.08452 48.3819 4.54522 48.6768 5.13849C48.9718 5.73177 49.1193 6.42448 49.1193 7.21662C49.1193 8.00544 48.9718 8.69484 48.6768 9.2848C48.3819 9.87476 47.9676 10.3338 47.4339 10.6619C46.9003 10.9901 46.2756 11.1541 45.5597 11.1541ZM45.5646 9.90625C46.0286 9.90625 46.4131 9.78362 46.718 9.53835C47.023 9.29309 47.2483 8.96662 47.3942 8.55895C47.5433 8.15128 47.6179 7.70218 47.6179 7.21165C47.6179 6.72443 47.5433 6.27699 47.3942 5.86932C47.2483 5.45833 47.023 5.12855 46.718 4.87997C46.4131 4.63139 46.0286 4.5071 45.5646 4.5071C45.0973 4.5071 44.7095 4.63139 44.4013 4.87997C44.0964 5.12855 43.8693 5.45833 43.7202 5.86932C43.5743 6.27699 43.5014 6.72443 43.5014 7.21165C43.5014 7.70218 43.5743 8.15128 43.7202 8.55895C43.8693 8.96662 44.0964 9.29309 44.4013 9.53835C44.7095 9.78362 45.0973 9.90625 45.5646 9.90625ZM50.7786 11V3.36364H52.2054V4.60653H52.2999C52.459 4.18561 52.7192 3.85748 53.0804 3.62216C53.4417 3.38352 53.8742 3.2642 54.378 3.2642C54.8884 3.2642 55.316 3.38352 55.6607 3.62216C56.0087 3.8608 56.2656 4.18892 56.4313 4.60653H56.5108C56.6931 4.19886 56.9831 3.87405 57.3809 3.6321C57.7786 3.38684 58.2525 3.2642 58.8027 3.2642C59.4954 3.2642 60.0605 3.4813 60.498 3.91548C60.9389 4.34967 61.1593 5.00426 61.1593 5.87926V11H59.6728V6.01847C59.6728 5.50142 59.5319 5.12689 59.2502 4.89489C58.9685 4.66288 58.632 4.54688 58.2409 4.54688C57.757 4.54688 57.3809 4.69602 57.1124 4.99432C56.8439 5.2893 56.7097 5.6688 56.7097 6.13281V11H55.2282V5.92401C55.2282 5.50971 55.0989 5.17661 54.8404 4.92472C54.5819 4.67282 54.2454 4.54688 53.8311 4.54688C53.5494 4.54688 53.2892 4.62145 53.0506 4.7706C52.8153 4.91643 52.6247 5.12026 52.4789 5.3821C52.3364 5.64394 52.2651 5.94721 52.2651 6.2919V11H50.7786ZM66.4428 11.1541C65.6905 11.1541 65.0425 10.9934 64.4989 10.6719C63.9587 10.3471 63.5411 9.89134 63.2461 9.30469C62.9544 8.71473 62.8086 8.02367 62.8086 7.23153C62.8086 6.44934 62.9544 5.75994 63.2461 5.16335C63.5411 4.56676 63.9521 4.10109 64.479 3.76633C65.0094 3.43158 65.6291 3.2642 66.3384 3.2642C66.7693 3.2642 67.1869 3.33546 67.5913 3.47798C67.9956 3.6205 68.3585 3.84422 68.68 4.14915C69.0015 4.45407 69.2551 4.85014 69.4407 5.33736C69.6263 5.82126 69.7191 6.40956 69.7191 7.10227V7.62926H63.6488V6.51562H68.2624C68.2624 6.12453 68.1829 5.77817 68.0238 5.47656C67.8647 5.17164 67.641 4.93134 67.3526 4.75568C67.0676 4.58002 66.7328 4.49219 66.3484 4.49219C65.9308 4.49219 65.5662 4.59493 65.2546 4.80043C64.9464 5.0026 64.7077 5.26776 64.5387 5.59588C64.373 5.92069 64.2901 6.27367 64.2901 6.65483V7.52486C64.2901 8.03527 64.3796 8.46946 64.5586 8.82741C64.7409 9.18537 64.9944 9.45881 65.3192 9.64773C65.6441 9.83333 66.0236 9.92614 66.4577 9.92614C66.7395 9.92614 66.9963 9.88636 67.2283 9.80682C67.4603 9.72396 67.6609 9.60133 67.8299 9.43892C67.9989 9.27652 68.1282 9.07599 68.2177 8.83736L69.6246 9.09091C69.512 9.50521 69.3098 9.86813 69.0181 10.1797C68.7298 10.4879 68.3668 10.7282 67.9293 10.9006C67.4951 11.0696 66.9996 11.1541 66.4428 11.1541ZM74.9331 3.36364V4.55682H70.7619V3.36364H74.9331ZM71.8805 1.53409H73.367V8.75781C73.367 9.04616 73.4101 9.26326 73.4963 9.40909C73.5824 9.55161 73.6935 9.64938 73.8294 9.70241C73.9686 9.75213 74.1194 9.77699 74.2818 9.77699C74.4011 9.77699 74.5055 9.7687 74.595 9.75213C74.6845 9.73556 74.7541 9.7223 74.8038 9.71236L75.0723 10.9403C74.9861 10.9735 74.8635 11.0066 74.7044 11.0398C74.5453 11.0762 74.3464 11.0961 74.1078 11.0994C73.7167 11.1061 73.3521 11.0365 73.014 10.8906C72.676 10.7448 72.4025 10.5194 72.1937 10.2145C71.9849 9.90956 71.8805 9.52675 71.8805 9.06605V1.53409ZM79.7866 11.1541C79.0342 11.1541 78.3862 10.9934 77.8427 10.6719C77.3024 10.3471 76.8848 9.89134 76.5898 9.30469C76.2982 8.71473 76.1523 8.02367 76.1523 7.23153C76.1523 6.44934 76.2982 5.75994 76.5898 5.16335C76.8848 4.56676 77.2958 4.10109 77.8228 3.76633C78.3531 3.43158 78.9729 3.2642 79.6822 3.2642C80.113 3.2642 80.5307 3.33546 80.935 3.47798C81.3394 3.6205 81.7023 3.84422 82.0238 4.14915C82.3453 4.45407 82.5988 4.85014 82.7844 5.33736C82.9701 5.82126 83.0629 6.40956 83.0629 7.10227V7.62926H76.9925V6.51562H81.6062C81.6062 6.12453 81.5266 5.77817 81.3675 5.47656C81.2085 5.17164 80.9847 4.93134 80.6964 4.75568C80.4113 4.58002 80.0766 4.49219 79.6921 4.49219C79.2745 4.49219 78.9099 4.59493 78.5984 4.80043C78.2901 5.0026 78.0515 5.26776 77.8825 5.59588C77.7167 5.92069 77.6339 6.27367 77.6339 6.65483V7.52486C77.6339 8.03527 77.7234 8.46946 77.9023 8.82741C78.0846 9.18537 78.3382 9.45881 78.663 9.64773C78.9878 9.83333 79.3673 9.92614 79.8015 9.92614C80.0832 9.92614 80.3401 9.88636 80.5721 9.80682C80.8041 9.72396 81.0046 9.60133 81.1737 9.43892C81.3427 9.27652 81.4719 9.07599 81.5614 8.83736L82.9684 9.09091C82.8557 9.50521 82.6535 9.86813 82.3619 10.1797C82.0735 10.4879 81.7106 10.7282 81.2731 10.9006C80.8389 11.0696 80.3434 11.1541 79.7866 11.1541ZM84.7122 11V3.36364H86.149V4.5767H86.2285C86.3677 4.16572 86.613 3.84257 86.9643 3.60724C87.319 3.36861 87.72 3.24929 88.1674 3.24929C88.2602 3.24929 88.3696 3.2526 88.4956 3.25923C88.6248 3.26586 88.7259 3.27415 88.7988 3.28409V4.70597C88.7392 4.68939 88.6331 4.67116 88.4806 4.65128C88.3282 4.62808 88.1757 4.61648 88.0233 4.61648C87.6719 4.61648 87.3587 4.69105 87.0836 4.8402C86.8118 4.98603 86.5964 5.18987 86.4373 5.4517C86.2782 5.71023 86.1987 6.00521 86.1987 6.33665V11H84.7122ZM94.1333 6.05327V7.34091H89.6191V6.05327H94.1333ZM99.6394 11.169C98.8539 11.1657 98.1827 10.9586 97.6259 10.5476C97.0691 10.1366 96.6432 9.53835 96.3482 8.75284C96.0532 7.96733 95.9057 7.02107 95.9057 5.91406C95.9057 4.81037 96.0532 3.86742 96.3482 3.08523C96.6465 2.30303 97.074 1.70644 97.6309 1.29545C98.191 0.884469 98.8605 0.678977 99.6394 0.678977C100.418 0.678977 101.086 0.886126 101.643 1.30043C102.2 1.71141 102.626 2.308 102.921 3.0902C103.219 3.86908 103.368 4.81037 103.368 5.91406C103.368 7.02438 103.221 7.9723 102.926 8.75781C102.631 9.54001 102.205 10.1383 101.648 10.5526C101.091 10.9635 100.422 11.169 99.6394 11.169ZM99.6394 9.84162C100.329 9.84162 100.867 9.50521 101.255 8.83239C101.646 8.15956 101.842 7.18679 101.842 5.91406C101.842 5.06889 101.752 4.35464 101.573 3.77131C101.398 3.18466 101.144 2.74053 100.813 2.43892C100.485 2.134 100.093 1.98153 99.6394 1.98153C98.9533 1.98153 98.4147 2.3196 98.0236 2.99574C97.6325 3.67187 97.4353 4.64465 97.432 5.91406C97.432 6.76255 97.5198 7.48011 97.6955 8.06676C97.8745 8.65009 98.128 9.09257 98.4561 9.39418C98.7843 9.69247 99.1787 9.84162 99.6394 9.84162ZM104.918 9.01136V7.76847L109.318 0.818182H110.297V2.64773H109.676L106.529 7.62926V7.70881H112.559V9.01136H104.918ZM109.745 11V8.63352L109.755 8.06676V0.818182H111.212V11H109.745Z" fill="black"/>
</svg>
