<svg viewBox="0 0 100 12" fill="none" stroke-width="2" stroke="currentColor" aria-hidden="true">
  <path d="M4.21591 11.1541C3.4768 11.1541 2.84044 10.9867 2.30682 10.652C1.77652 10.3139 1.36884 9.84825 1.08381 9.25497C0.798769 8.66169 0.65625 7.98224 0.65625 7.21662C0.65625 6.44105 0.802083 5.75663 1.09375 5.16335C1.38542 4.56676 1.7964 4.10109 2.3267 3.76633C2.85701 3.43158 3.48177 3.2642 4.20099 3.2642C4.78101 3.2642 5.29806 3.37192 5.75213 3.58736C6.2062 3.79948 6.57244 4.09777 6.85085 4.48224C7.13258 4.86671 7.29995 5.31581 7.35298 5.82955H5.90625C5.8267 5.47159 5.64441 5.16335 5.35938 4.90483C5.07765 4.64631 4.69981 4.51705 4.22585 4.51705C3.81155 4.51705 3.44863 4.62642 3.13707 4.84517C2.82884 5.06061 2.58854 5.36884 2.41619 5.76989C2.24384 6.16761 2.15767 6.63826 2.15767 7.18182C2.15767 7.73864 2.24219 8.21922 2.41122 8.62358C2.58026 9.02794 2.81889 9.34115 3.12713 9.56321C3.43868 9.78527 3.80492 9.89631 4.22585 9.89631C4.50758 9.89631 4.76278 9.84493 4.99148 9.74219C5.22349 9.63613 5.41738 9.48532 5.57315 9.28977C5.73224 9.09422 5.84328 8.8589 5.90625 8.58381H7.35298C7.29995 9.07765 7.1392 9.51847 6.87074 9.90625C6.60227 10.294 6.24266 10.599 5.7919 10.821C5.34446 11.0431 4.81913 11.1541 4.21591 11.1541ZM10.4292 0.818182V11H8.94265V0.818182H10.4292ZM15.6456 11.1541C14.9297 11.1541 14.3049 10.9901 13.7713 10.6619C13.2377 10.3338 12.8234 9.87476 12.5284 9.2848C12.2334 8.69484 12.0859 8.00544 12.0859 7.21662C12.0859 6.42448 12.2334 5.73177 12.5284 5.13849C12.8234 4.54522 13.2377 4.08452 13.7713 3.75639C14.3049 3.42827 14.9297 3.2642 15.6456 3.2642C16.3615 3.2642 16.9863 3.42827 17.5199 3.75639C18.0535 4.08452 18.4678 4.54522 18.7628 5.13849C19.0578 5.73177 19.2053 6.42448 19.2053 7.21662C19.2053 8.00544 19.0578 8.69484 18.7628 9.2848C18.4678 9.87476 18.0535 10.3338 17.5199 10.6619C16.9863 10.9901 16.3615 11.1541 15.6456 11.1541ZM15.6506 9.90625C16.1146 9.90625 16.4991 9.78362 16.804 9.53835C17.1089 9.29309 17.3343 8.96662 17.4801 8.55895C17.6293 8.15128 17.7038 7.70218 17.7038 7.21165C17.7038 6.72443 17.6293 6.27699 17.4801 5.86932C17.3343 5.45833 17.1089 5.12855 16.804 4.87997C16.4991 4.63139 16.1146 4.5071 15.6506 4.5071C15.1832 4.5071 14.7955 4.63139 14.4872 4.87997C14.1823 5.12855 13.9553 5.45833 13.8061 5.86932C13.6603 6.27699 13.5874 6.72443 13.5874 7.21165C13.5874 7.70218 13.6603 8.15128 13.8061 8.55895C13.9553 8.96662 14.1823 9.29309 14.4872 9.53835C14.7955 9.78362 15.1832 9.90625 15.6506 9.90625ZM25.7019 7.8331V3.36364H27.1934V11H25.7317V9.67756H25.6522C25.4765 10.0852 25.1948 10.425 24.807 10.6967C24.4225 10.9652 23.9436 11.0994 23.3702 11.0994C22.8797 11.0994 22.4455 10.9917 22.0676 10.7763C21.6931 10.5575 21.3981 10.2344 21.1827 9.80682C20.9706 9.37926 20.8645 8.85062 20.8645 8.22088V3.36364H22.351V8.0419C22.351 8.56226 22.4952 8.97656 22.7836 9.2848C23.0719 9.59304 23.4464 9.74716 23.9071 9.74716C24.1855 9.74716 24.4623 9.67756 24.7374 9.53835C25.0158 9.39915 25.2462 9.18868 25.4284 8.90696C25.6141 8.62524 25.7052 8.26728 25.7019 7.8331ZM32.0494 11.1491C31.4329 11.1491 30.8827 10.9917 30.3988 10.6768C29.9182 10.3587 29.5404 9.90625 29.2653 9.3196C28.9935 8.72964 28.8576 8.02202 28.8576 7.19673C28.8576 6.37145 28.9951 5.66548 29.2702 5.07884C29.5487 4.49219 29.9298 4.04309 30.4137 3.73153C30.8976 3.41998 31.4461 3.2642 32.0593 3.2642C32.5333 3.2642 32.9144 3.34375 33.2028 3.50284C33.4944 3.65862 33.7198 3.84091 33.8789 4.04972C34.0413 4.25852 34.1673 4.44247 34.2567 4.60156H34.3462V0.818182H35.8327V11H34.381V9.81179H34.2567C34.1673 9.9742 34.038 10.1598 33.869 10.3686C33.7032 10.5774 33.4746 10.7597 33.1829 10.9155C32.8912 11.0713 32.5134 11.1491 32.0494 11.1491ZM32.3775 9.88139C32.805 9.88139 33.1663 9.7687 33.4613 9.54332C33.7596 9.31463 33.985 8.99811 34.1374 8.59375C34.2932 8.18939 34.3711 7.71875 34.3711 7.18182C34.3711 6.65151 34.2949 6.1875 34.1424 5.78977C33.9899 5.39205 33.7662 5.08215 33.4712 4.86009C33.1763 4.63802 32.8117 4.52699 32.3775 4.52699C31.93 4.52699 31.5572 4.64299 31.2589 4.875C30.9606 5.10701 30.7352 5.42353 30.5827 5.82457C30.4336 6.22562 30.359 6.67803 30.359 7.18182C30.359 7.69223 30.4353 8.15128 30.5877 8.55895C30.7402 8.96662 30.9656 9.28977 31.2638 9.52841C31.5655 9.76373 31.9367 9.88139 32.3775 9.88139ZM42.4537 6.05327V7.34091H37.9395V6.05327H42.4537ZM44.5542 11V0.818182H46.0407V4.60156H46.1301C46.2163 4.44247 46.3406 4.25852 46.503 4.04972C46.6654 3.84091 46.8908 3.65862 47.1792 3.50284C47.4675 3.34375 47.8487 3.2642 48.3226 3.2642C48.9391 3.2642 49.4893 3.41998 49.9732 3.73153C50.4571 4.04309 50.8366 4.49219 51.1117 5.07884C51.3901 5.66548 51.5293 6.37145 51.5293 7.19673C51.5293 8.02202 51.3917 8.72964 51.1167 9.3196C50.8416 9.90625 50.4637 10.3587 49.9831 10.6768C49.5025 10.9917 48.954 11.1491 48.3375 11.1491C47.8735 11.1491 47.494 11.0713 47.199 10.9155C46.9074 10.7597 46.6787 10.5774 46.513 10.3686C46.3472 10.1598 46.2196 9.9742 46.1301 9.81179H46.0059V11H44.5542ZM46.0108 7.18182C46.0108 7.71875 46.0887 8.18939 46.2445 8.59375C46.4003 8.99811 46.6257 9.31463 46.9206 9.54332C47.2156 9.7687 47.5769 9.88139 48.0044 9.88139C48.4486 9.88139 48.8198 9.76373 49.1181 9.52841C49.4164 9.28977 49.6417 8.96662 49.7942 8.55895C49.95 8.15128 50.0279 7.69223 50.0279 7.18182C50.0279 6.67803 49.9516 6.22562 49.7992 5.82457C49.65 5.42353 49.4247 5.10701 49.123 4.875C48.8248 4.64299 48.4519 4.52699 48.0044 4.52699C47.5736 4.52699 47.209 4.63802 46.9107 4.86009C46.6157 5.08215 46.392 5.39205 46.2395 5.78977C46.0871 6.1875 46.0108 6.65151 46.0108 7.18182ZM54.685 0.818182V11H53.1985V0.818182H54.685ZM58.9071 11.169C58.4232 11.169 57.9857 11.0795 57.5946 10.9006C57.2035 10.7183 56.8936 10.4548 56.665 10.1101C56.4396 9.76539 56.3269 9.3428 56.3269 8.84233C56.3269 8.41146 56.4097 8.05682 56.5755 7.77841C56.7412 7.5 56.9649 7.27959 57.2466 7.11719C57.5283 6.95478 57.8432 6.83215 58.1912 6.74929C58.5392 6.66643 58.8939 6.60346 59.2551 6.56037C59.7125 6.50734 60.0837 6.46425 60.3688 6.43111C60.6538 6.39465 60.861 6.33665 60.9902 6.2571C61.1195 6.17756 61.1841 6.0483 61.1841 5.86932V5.83452C61.1841 5.40033 61.0615 5.06392 60.8162 4.82528C60.5743 4.58665 60.213 4.46733 59.7324 4.46733C59.2319 4.46733 58.8375 4.57836 58.5492 4.80043C58.2641 5.01918 58.0669 5.26278 57.9576 5.53125L56.5605 5.21307C56.7263 4.74905 56.9682 4.37453 57.2864 4.08949C57.6079 3.80114 57.9775 3.59233 58.3951 3.46307C58.8127 3.33049 59.2518 3.2642 59.7125 3.2642C60.0175 3.2642 60.3406 3.30066 60.682 3.37358C61.0267 3.44318 61.3482 3.57244 61.6465 3.76136C61.9481 3.95028 62.195 4.22041 62.3873 4.57173C62.5795 4.91974 62.6756 5.37216 62.6756 5.92898V11H61.2239V9.95597H61.1642C61.0681 10.1482 60.9239 10.3371 60.7317 10.5227C60.5395 10.7083 60.2926 10.8625 59.9909 10.9851C59.6893 11.1077 59.3281 11.169 58.9071 11.169ZM59.2303 9.97585C59.6413 9.97585 59.9926 9.89465 60.2843 9.73224C60.5792 9.56984 60.803 9.35772 60.9554 9.09588C61.1112 8.83073 61.1891 8.54735 61.1891 8.24574V7.26136C61.1361 7.31439 61.0333 7.36411 60.8809 7.41051C60.7317 7.4536 60.561 7.49171 60.3688 7.52486C60.1766 7.55469 59.9893 7.58286 59.807 7.60938C59.6247 7.63258 59.4722 7.65246 59.3496 7.66903C59.0613 7.70549 58.7978 7.76681 58.5591 7.85298C58.3238 7.93916 58.1349 8.06345 57.9924 8.22585C57.8532 8.38494 57.7836 8.59706 57.7836 8.86222C57.7836 9.23011 57.9194 9.50852 58.1912 9.69744C58.463 9.88305 58.8094 9.97585 59.2303 9.97585ZM66.142 6.46591V11H64.6555V3.36364H66.0824V4.60653H66.1768C66.3525 4.20218 66.6276 3.87737 67.0021 3.6321C67.38 3.38684 67.8556 3.2642 68.429 3.2642C68.9493 3.2642 69.4051 3.37358 69.7962 3.59233C70.1873 3.80777 70.4905 4.12926 70.706 4.55682C70.9214 4.98437 71.0291 5.51302 71.0291 6.14276V11H69.5426V6.32173C69.5426 5.76823 69.3984 5.3357 69.1101 5.02415C68.8217 4.70928 68.4257 4.55185 67.9219 4.55185C67.5772 4.55185 67.2706 4.62642 67.0021 4.77557C66.737 4.92472 66.5265 5.14347 66.3707 5.43182C66.2183 5.71686 66.142 6.06155 66.142 6.46591ZM74.3899 8.4098L74.38 6.59517H74.6385L77.6811 3.36364H79.4609L75.9908 7.04261H75.7571L74.3899 8.4098ZM73.0227 11V0.818182H74.5092V11H73.0227ZM77.8452 11L75.1108 7.37074L76.1349 6.33168L79.6697 11H77.8452ZM84.7955 6.05327V7.34091H80.2812V6.05327H84.7955ZM90.3015 11.169C89.516 11.1657 88.8448 10.9586 88.288 10.5476C87.7312 10.1366 87.3053 9.53835 87.0103 8.75284C86.7153 7.96733 86.5678 7.02107 86.5678 5.91406C86.5678 4.81037 86.7153 3.86742 87.0103 3.08523C87.3086 2.30303 87.7362 1.70644 88.293 1.29545C88.8531 0.884469 89.5226 0.678977 90.3015 0.678977C91.0804 0.678977 91.7482 0.886126 92.305 1.30043C92.8619 1.71141 93.2878 2.308 93.5827 3.0902C93.881 3.86908 94.0302 4.81037 94.0302 5.91406C94.0302 7.02438 93.8827 7.9723 93.5877 8.75781C93.2927 9.54001 92.8668 10.1383 92.31 10.5526C91.7532 10.9635 91.0837 11.169 90.3015 11.169ZM90.3015 9.84162C90.9909 9.84162 91.5295 9.50521 91.9173 8.83239C92.3084 8.15956 92.5039 7.18679 92.5039 5.91406C92.5039 5.06889 92.4144 4.35464 92.2354 3.77131C92.0598 3.18466 91.8062 2.74053 91.4748 2.43892C91.1467 2.134 90.7556 1.98153 90.3015 1.98153C89.6154 1.98153 89.0768 2.3196 88.6857 2.99574C88.2946 3.67187 88.0974 4.64465 88.0941 5.91406C88.0941 6.76255 88.1819 7.48011 88.3576 8.06676C88.5366 8.65009 88.7901 9.09257 89.1183 9.39418C89.4464 9.69247 89.8408 9.84162 90.3015 9.84162ZM99.6568 0.818182V11H98.1156V2.35938H98.0559L95.6199 3.95028V2.47869L98.1603 0.818182H99.6568Z" fill="black"/>
</svg>
