<svg viewBox="0 0 78 15" fill="none" stroke-width="2" stroke="currentColor" aria-hidden="true">
  <path d="M6.72159 5.22798L5.37429 5.46662C5.31795 5.29427 5.22846 5.13021 5.10582 4.97443C4.98651 4.81865 4.8241 4.69105 4.61861 4.59162C4.41312 4.49219 4.15625 4.44247 3.84801 4.44247C3.42708 4.44247 3.07576 4.53693 2.79403 4.72585C2.51231 4.91146 2.37145 5.15175 2.37145 5.44673C2.37145 5.70194 2.46591 5.90743 2.65483 6.06321C2.84375 6.21899 3.14867 6.34659 3.5696 6.44602L4.78267 6.72443C5.48532 6.88684 6.009 7.13707 6.35369 7.47514C6.69839 7.81321 6.87074 8.25237 6.87074 8.79261C6.87074 9.25 6.73816 9.65767 6.47301 10.0156C6.21117 10.3703 5.84493 10.6487 5.37429 10.8509C4.90696 11.053 4.36506 11.1541 3.74858 11.1541C2.89347 11.1541 2.19579 10.9718 1.65554 10.6072C1.11529 10.2393 0.783854 9.71733 0.661222 9.04119L2.09801 8.82244C2.1875 9.19697 2.37145 9.48035 2.64986 9.67259C2.92827 9.86151 3.29119 9.95597 3.73864 9.95597C4.22585 9.95597 4.61529 9.85488 4.90696 9.6527C5.19863 9.44721 5.34446 9.19697 5.34446 8.90199C5.34446 8.66335 5.25497 8.46283 5.07599 8.30043C4.90033 8.13802 4.63021 8.01539 4.26562 7.93253L2.97301 7.64915C2.26042 7.48674 1.73343 7.22822 1.39205 6.87358C1.05398 6.51894 0.884943 6.06984 0.884943 5.52628C0.884943 5.07552 1.01089 4.68111 1.26278 4.34304C1.51468 4.00497 1.86269 3.74148 2.30682 3.55256C2.75095 3.36032 3.25971 3.2642 3.8331 3.2642C4.65838 3.2642 5.308 3.44318 5.78196 3.80114C6.25592 4.15578 6.56913 4.63139 6.72159 5.22798ZM11.7963 11.1541C11.044 11.1541 10.396 10.9934 9.85245 10.6719C9.3122 10.3471 8.89459 9.89134 8.59961 9.30469C8.30794 8.71473 8.16211 8.02367 8.16211 7.23153C8.16211 6.44934 8.30794 5.75994 8.59961 5.16335C8.89459 4.56676 9.30558 4.10109 9.83256 3.76633C10.3629 3.43158 10.9827 3.2642 11.6919 3.2642C12.1228 3.2642 12.5404 3.33546 12.9448 3.47798C13.3491 3.6205 13.7121 3.84422 14.0336 4.14915C14.3551 4.45407 14.6086 4.85014 14.7942 5.33736C14.9798 5.82126 15.0726 6.40956 15.0726 7.10227V7.62926H9.00231V6.51562H13.6159C13.6159 6.12453 13.5364 5.77817 13.3773 5.47656C13.2182 5.17164 12.9945 4.93134 12.7061 4.75568C12.4211 4.58002 12.0864 4.49219 11.7019 4.49219C11.2843 4.49219 10.9197 4.59493 10.6081 4.80043C10.2999 5.0026 10.0613 5.26776 9.89222 5.59588C9.7265 5.92069 9.64364 6.27367 9.64364 6.65483V7.52486C9.64364 8.03527 9.73313 8.46946 9.91211 8.82741C10.0944 9.18537 10.348 9.45881 10.6728 9.64773C10.9976 9.83333 11.3771 9.92614 11.8113 9.92614C12.093 9.92614 12.3498 9.88636 12.5819 9.80682C12.8139 9.72396 13.0144 9.60133 13.1834 9.43892C13.3525 9.27652 13.4817 9.07599 13.5712 8.83736L14.9782 9.09091C14.8655 9.50521 14.6633 9.86813 14.3716 10.1797C14.0833 10.4879 13.7203 10.7282 13.2828 10.9006C12.8487 11.0696 12.3532 11.1541 11.7963 11.1541ZM20.2866 3.36364V4.55682H16.1154V3.36364H20.2866ZM17.234 1.53409H18.7205V8.75781C18.7205 9.04616 18.7636 9.26326 18.8498 9.40909C18.936 9.55161 19.047 9.64938 19.1829 9.70241C19.3221 9.75213 19.4729 9.77699 19.6353 9.77699C19.7546 9.77699 19.859 9.7687 19.9485 9.75213C20.038 9.73556 20.1076 9.7223 20.1573 9.71236L20.4258 10.9403C20.3396 10.9735 20.217 11.0066 20.0579 11.0398C19.8988 11.0762 19.6999 11.0961 19.4613 11.0994C19.0702 11.1061 18.7056 11.0365 18.3675 10.8906C18.0295 10.7448 17.756 10.5194 17.5472 10.2145C17.3384 9.90956 17.234 9.52675 17.234 9.06605V1.53409ZM25.4956 3.36364V4.55682H21.3244V3.36364H25.4956ZM22.443 1.53409H23.9295V8.75781C23.9295 9.04616 23.9726 9.26326 24.0588 9.40909C24.1449 9.55161 24.256 9.64938 24.3919 9.70241C24.5311 9.75213 24.6819 9.77699 24.8443 9.77699C24.9636 9.77699 25.068 9.7687 25.1575 9.75213C25.247 9.73556 25.3166 9.7223 25.3663 9.71236L25.6348 10.9403C25.5486 10.9735 25.426 11.0066 25.2669 11.0398C25.1078 11.0762 24.9089 11.0961 24.6703 11.0994C24.2792 11.1061 23.9146 11.0365 23.5765 10.8906C23.2385 10.7448 22.965 10.5194 22.7562 10.2145C22.5474 9.90956 22.443 9.52675 22.443 9.06605V1.53409ZM27.1399 11V3.36364H28.6264V11H27.1399ZM27.8906 2.18537C27.6321 2.18537 27.41 2.09919 27.2244 1.92685C27.0421 1.75118 26.951 1.54238 26.951 1.30043C26.951 1.05516 27.0421 0.846354 27.2244 0.674005C27.41 0.498342 27.6321 0.410511 27.8906 0.410511C28.1491 0.410511 28.3696 0.498342 28.5518 0.674005C28.7375 0.846354 28.8303 1.05516 28.8303 1.30043C28.8303 1.54238 28.7375 1.75118 28.5518 1.92685C28.3696 2.09919 28.1491 2.18537 27.8906 2.18537ZM32.1127 6.46591V11H30.6262V3.36364H32.0531V4.60653H32.1475C32.3232 4.20218 32.5983 3.87737 32.9728 3.6321C33.3507 3.38684 33.8263 3.2642 34.3997 3.2642C34.92 3.2642 35.3758 3.37358 35.7669 3.59233C36.158 3.80777 36.4612 4.12926 36.6767 4.55682C36.8921 4.98437 36.9998 5.51302 36.9998 6.14276V11H35.5133V6.32173C35.5133 5.76823 35.3691 5.3357 35.0808 5.02415C34.7924 4.70928 34.3964 4.55185 33.8926 4.55185C33.5479 4.55185 33.2413 4.62642 32.9728 4.77557C32.7077 4.92472 32.4972 5.14347 32.3414 5.43182C32.189 5.71686 32.1127 6.06155 32.1127 6.46591ZM42.1951 14.0227C41.5886 14.0227 41.0666 13.9432 40.6291 13.7841C40.1949 13.625 39.8403 13.4145 39.5652 13.1527C39.2901 12.8909 39.0846 12.6042 38.9487 12.2926L40.2264 11.7656C40.3159 11.9115 40.4352 12.0656 40.5843 12.228C40.7368 12.3937 40.9423 12.5346 41.2008 12.6506C41.4627 12.7666 41.7991 12.8246 42.21 12.8246C42.7735 12.8246 43.2392 12.687 43.6071 12.4119C43.975 12.1402 44.1589 11.706 44.1589 11.1094V9.60795H44.0645C43.975 9.77036 43.8457 9.95099 43.6767 10.1499C43.5109 10.3487 43.2823 10.5211 42.9906 10.6669C42.6989 10.8127 42.3194 10.8857 41.8521 10.8857C41.2489 10.8857 40.7053 10.7448 40.2214 10.4631C39.7408 10.178 39.3597 9.75876 39.0779 9.20526C38.7995 8.64844 38.6603 7.96401 38.6603 7.15199C38.6603 6.33996 38.7979 5.64394 39.073 5.06392C39.3514 4.4839 39.7325 4.03977 40.2164 3.73153C40.7003 3.41998 41.2489 3.2642 41.862 3.2642C42.336 3.2642 42.7188 3.34375 43.0105 3.50284C43.3021 3.65862 43.5292 3.84091 43.6916 4.04972C43.8573 4.25852 43.9849 4.44247 44.0744 4.60156H44.1838V3.36364H45.6404V11.169C45.6404 11.8253 45.488 12.3639 45.1831 12.7848C44.8781 13.2057 44.4655 13.5173 43.9451 13.7195C43.4281 13.9216 42.8448 14.0227 42.1951 14.0227ZM42.1802 9.6527C42.6078 9.6527 42.969 9.55327 43.264 9.3544C43.5623 9.15223 43.7877 8.86387 43.9402 8.48935C44.0959 8.11151 44.1738 7.65909 44.1738 7.1321C44.1738 6.61837 44.0976 6.16596 43.9451 5.77486C43.7927 5.38376 43.569 5.07884 43.274 4.86009C42.979 4.63802 42.6144 4.52699 42.1802 4.52699C41.7328 4.52699 41.3599 4.64299 41.0616 4.875C40.7633 5.10369 40.5379 5.41525 40.3855 5.80966C40.2363 6.20407 40.1618 6.64489 40.1618 7.1321C40.1618 7.63258 40.238 8.07173 40.3904 8.44957C40.5429 8.82741 40.7683 9.1224 41.0666 9.33452C41.3682 9.54664 41.7394 9.6527 42.1802 9.6527ZM53.3564 5.22798L52.0091 5.46662C51.9527 5.29427 51.8632 5.13021 51.7406 4.97443C51.6213 4.81865 51.4589 4.69105 51.2534 4.59162C51.0479 4.49219 50.791 4.44247 50.4828 4.44247C50.0618 4.44247 49.7105 4.53693 49.4288 4.72585C49.1471 4.91146 49.0062 5.15175 49.0062 5.44673C49.0062 5.70194 49.1007 5.90743 49.2896 6.06321C49.4785 6.21899 49.7834 6.34659 50.2044 6.44602L51.4174 6.72443C52.1201 6.88684 52.6438 7.13707 52.9885 7.47514C53.3332 7.81321 53.5055 8.25237 53.5055 8.79261C53.5055 9.25 53.3729 9.65767 53.1078 10.0156C52.8459 10.3703 52.4797 10.6487 52.0091 10.8509C51.5417 11.053 50.9998 11.1541 50.3833 11.1541C49.5282 11.1541 48.8306 10.9718 48.2903 10.6072C47.7501 10.2393 47.4186 9.71733 47.296 9.04119L48.7328 8.82244C48.8223 9.19697 49.0062 9.48035 49.2846 9.67259C49.563 9.86151 49.926 9.95597 50.3734 9.95597C50.8606 9.95597 51.2501 9.85488 51.5417 9.6527C51.8334 9.44721 51.9792 9.19697 51.9792 8.90199C51.9792 8.66335 51.8897 8.46283 51.7108 8.30043C51.5351 8.13802 51.265 8.01539 50.9004 7.93253L49.6078 7.64915C48.8952 7.48674 48.3682 7.22822 48.0268 6.87358C47.6887 6.51894 47.5197 6.06984 47.5197 5.52628C47.5197 5.07552 47.6457 4.68111 47.8975 4.34304C48.1494 4.00497 48.4975 3.74148 48.9416 3.55256C49.3857 3.36032 49.8945 3.2642 50.4679 3.2642C51.2931 3.2642 51.9428 3.44318 52.4167 3.80114C52.8907 4.15578 53.2039 4.63139 53.3564 5.22798ZM59.6392 6.05327V7.34091H55.125V6.05327H59.6392ZM65.1452 11.169C64.3597 11.1657 63.6886 10.9586 63.1317 10.5476C62.5749 10.1366 62.149 9.53835 61.854 8.75284C61.5591 7.96733 61.4116 7.02107 61.4116 5.91406C61.4116 4.81037 61.5591 3.86742 61.854 3.08523C62.1523 2.30303 62.5799 1.70644 63.1367 1.29545C63.6969 0.884469 64.3664 0.678977 65.1452 0.678977C65.9241 0.678977 66.592 0.886126 67.1488 1.30043C67.7056 1.71141 68.1315 2.308 68.4265 3.0902C68.7248 3.86908 68.8739 4.81037 68.8739 5.91406C68.8739 7.02438 68.7264 7.9723 68.4315 8.75781C68.1365 9.54001 67.7106 10.1383 67.1538 10.5526C66.5969 10.9635 65.9274 11.169 65.1452 11.169ZM65.1452 9.84162C65.8346 9.84162 66.3732 9.50521 66.761 8.83239C67.1521 8.15956 67.3477 7.18679 67.3477 5.91406C67.3477 5.06889 67.2582 4.35464 67.0792 3.77131C66.9035 3.18466 66.65 2.74053 66.3185 2.43892C65.9904 2.134 65.5993 1.98153 65.1452 1.98153C64.4592 1.98153 63.9206 2.3196 63.5295 2.99574C63.1384 3.67187 62.9412 4.64465 62.9379 5.91406C62.9379 6.76255 63.0257 7.48011 63.2013 8.06676C63.3803 8.65009 63.6339 9.09257 63.962 9.39418C64.2901 9.69247 64.6845 9.84162 65.1452 9.84162ZM74.1824 11.1392C73.4996 11.1392 72.8897 11.0215 72.3528 10.7862C71.8192 10.5509 71.3966 10.2244 71.085 9.80682C70.7768 9.38589 70.6111 8.89867 70.5879 8.34517H72.149C72.1689 8.64678 72.2699 8.90862 72.4522 9.13068C72.6378 9.34943 72.8798 9.51847 73.1781 9.63778C73.4764 9.7571 73.8078 9.81676 74.1724 9.81676C74.5734 9.81676 74.9281 9.74716 75.2363 9.60795C75.5479 9.46875 75.7915 9.27486 75.9672 9.02628C76.1428 8.77438 76.2306 8.48438 76.2306 8.15625C76.2306 7.81487 76.1428 7.51491 75.9672 7.25639C75.7948 6.99455 75.5413 6.78906 75.2065 6.63991C74.8751 6.49077 74.474 6.41619 74.0034 6.41619H73.1433V5.16335H74.0034C74.3812 5.16335 74.7127 5.09541 74.9977 4.95952C75.286 4.82363 75.5114 4.63471 75.6738 4.39276C75.8362 4.14749 75.9174 3.8608 75.9174 3.53267C75.9174 3.2178 75.8462 2.94437 75.7037 2.71236C75.5645 2.47704 75.3656 2.29309 75.1071 2.16051C74.8519 2.02794 74.5502 1.96165 74.2022 1.96165C73.8708 1.96165 73.5609 2.02296 73.2725 2.1456C72.9875 2.26491 72.7555 2.43726 72.5765 2.66264C72.3975 2.88471 72.3014 3.15151 72.2882 3.46307H70.8017C70.8182 2.91288 70.9806 2.42898 71.2889 2.01136C71.6004 1.59375 72.0114 1.26728 72.5218 1.03196C73.0323 0.796638 73.599 0.678977 74.2221 0.678977C74.8751 0.678977 75.4385 0.806581 75.9125 1.06179C76.3897 1.31368 76.7576 1.65009 77.0162 2.07102C77.278 2.49195 77.4073 2.95265 77.4039 3.45312C77.4073 4.0232 77.2482 4.5071 76.9267 4.90483C76.6085 5.30256 76.1842 5.56937 75.6539 5.70526V5.7848C76.3301 5.88755 76.8538 6.15601 77.225 6.5902C77.5995 7.02438 77.7851 7.56297 77.7818 8.20597C77.7851 8.7661 77.6293 9.26823 77.3145 9.71236C77.0029 10.1565 76.577 10.5062 76.0368 10.7614C75.4965 11.0133 74.8784 11.1392 74.1824 11.1392Z" fill="black"/>
</svg>
