<svg viewBox="0 0 130 12" fill="none" stroke-width="2" stroke="currentColor" aria-hidden="true">
  <path d="M3.85795 11.1491C3.24148 11.1491 2.69129 10.9917 2.20739 10.6768C1.7268 10.3587 1.34896 9.90625 1.07386 9.3196C0.802083 8.72964 0.666193 8.02202 0.666193 7.19673C0.666193 6.37145 0.803741 5.66548 1.07884 5.07884C1.35724 4.49219 1.7384 4.04309 2.2223 3.73153C2.7062 3.41998 3.25473 3.2642 3.8679 3.2642C4.34186 3.2642 4.72301 3.34375 5.01136 3.50284C5.30303 3.65862 5.52841 3.84091 5.6875 4.04972C5.84991 4.25852 5.97585 4.44247 6.06534 4.60156H6.15483V0.818182H7.64134V11H6.18963V9.81179H6.06534C5.97585 9.9742 5.84659 10.1598 5.67756 10.3686C5.51184 10.5774 5.28314 10.7597 4.99148 10.9155C4.69981 11.0713 4.32197 11.1491 3.85795 11.1491ZM4.18608 9.88139C4.61364 9.88139 4.97491 9.7687 5.26989 9.54332C5.56818 9.31463 5.79356 8.99811 5.94602 8.59375C6.1018 8.18939 6.17969 7.71875 6.17969 7.18182C6.17969 6.65151 6.10346 6.1875 5.95099 5.78977C5.79853 5.39205 5.57481 5.08215 5.27983 4.86009C4.98485 4.63802 4.62027 4.52699 4.18608 4.52699C3.73864 4.52699 3.36577 4.64299 3.06747 4.875C2.76918 5.10701 2.5438 5.42353 2.39134 5.82457C2.24219 6.22562 2.16761 6.67803 2.16761 7.18182C2.16761 7.69223 2.24384 8.15128 2.39631 8.55895C2.54877 8.96662 2.77415 9.28977 3.07244 9.52841C3.37405 9.76373 3.74527 9.88139 4.18608 9.88139ZM12.9796 11.1541C12.2637 11.1541 11.6389 10.9901 11.1053 10.6619C10.5717 10.3338 10.1574 9.87476 9.86239 9.2848C9.56741 8.69484 9.41992 8.00544 9.41992 7.21662C9.41992 6.42448 9.56741 5.73177 9.86239 5.13849C10.1574 4.54522 10.5717 4.08452 11.1053 3.75639C11.6389 3.42827 12.2637 3.2642 12.9796 3.2642C13.6955 3.2642 14.3203 3.42827 14.8539 3.75639C15.3875 4.08452 15.8018 4.54522 16.0968 5.13849C16.3917 5.73177 16.5392 6.42448 16.5392 7.21662C16.5392 8.00544 16.3917 8.69484 16.0968 9.2848C15.8018 9.87476 15.3875 10.3338 14.8539 10.6619C14.3203 10.9901 13.6955 11.1541 12.9796 11.1541ZM12.9846 9.90625C13.4486 9.90625 13.833 9.78362 14.138 9.53835C14.4429 9.29309 14.6683 8.96662 14.8141 8.55895C14.9632 8.15128 15.0378 7.70218 15.0378 7.21165C15.0378 6.72443 14.9632 6.27699 14.8141 5.86932C14.6683 5.45833 14.4429 5.12855 14.138 4.87997C13.833 4.63139 13.4486 4.5071 12.9846 4.5071C12.5172 4.5071 12.1294 4.63139 11.8212 4.87997C11.5163 5.12855 11.2892 5.45833 11.1401 5.86932C10.9943 6.27699 10.9213 6.72443 10.9213 7.21165C10.9213 7.70218 10.9943 8.15128 11.1401 8.55895C11.2892 8.96662 11.5163 9.29309 11.8212 9.53835C12.1294 9.78362 12.5172 9.90625 12.9846 9.90625ZM19.6216 11L17.3745 3.36364H18.9107L20.4071 8.97159H20.4817L21.9831 3.36364H23.5194L25.0108 8.94673H25.0854L26.5719 3.36364H28.1081L25.8659 11H24.3496L22.7985 5.48651H22.6841L21.133 11H19.6216ZM31.0053 6.46591V11H29.5188V3.36364H30.9457V4.60653H31.0401C31.2158 4.20218 31.4909 3.87737 31.8654 3.6321C32.2433 3.38684 32.7189 3.2642 33.2923 3.2642C33.8126 3.2642 34.2683 3.37358 34.6594 3.59233C35.0505 3.80777 35.3538 4.12926 35.5692 4.55682C35.7847 4.98437 35.8924 5.51302 35.8924 6.14276V11H34.4059V6.32173C34.4059 5.76823 34.2617 5.3357 33.9734 5.02415C33.685 4.70928 33.2889 4.55185 32.7852 4.55185C32.4405 4.55185 32.1339 4.62642 31.8654 4.77557C31.6003 4.92472 31.3898 5.14347 31.234 5.43182C31.0816 5.71686 31.0053 6.06155 31.0053 6.46591ZM39.3725 0.818182V11H37.886V0.818182H39.3725ZM44.589 11.1541C43.873 11.1541 43.2483 10.9901 42.7147 10.6619C42.181 10.3338 41.7667 9.87476 41.4718 9.2848C41.1768 8.69484 41.0293 8.00544 41.0293 7.21662C41.0293 6.42448 41.1768 5.73177 41.4718 5.13849C41.7667 4.54522 42.181 4.08452 42.7147 3.75639C43.2483 3.42827 43.873 3.2642 44.589 3.2642C45.3049 3.2642 45.9296 3.42827 46.4632 3.75639C46.9969 4.08452 47.4112 4.54522 47.7061 5.13849C48.0011 5.73177 48.1486 6.42448 48.1486 7.21662C48.1486 8.00544 48.0011 8.69484 47.7061 9.2848C47.4112 9.87476 46.9969 10.3338 46.4632 10.6619C45.9296 10.9901 45.3049 11.1541 44.589 11.1541ZM44.5939 9.90625C45.0579 9.90625 45.4424 9.78362 45.7473 9.53835C46.0523 9.29309 46.2776 8.96662 46.4235 8.55895C46.5726 8.15128 46.6472 7.70218 46.6472 7.21165C46.6472 6.72443 46.5726 6.27699 46.4235 5.86932C46.2776 5.45833 46.0523 5.12855 45.7473 4.87997C45.4424 4.63139 45.0579 4.5071 44.5939 4.5071C44.1266 4.5071 43.7388 4.63139 43.4306 4.87997C43.1257 5.12855 42.8986 5.45833 42.7495 5.86932C42.6036 6.27699 42.5307 6.72443 42.5307 7.21165C42.5307 7.70218 42.6036 8.15128 42.7495 8.55895C42.8986 8.96662 43.1257 9.29309 43.4306 9.53835C43.7388 9.78362 44.1266 9.90625 44.5939 9.90625ZM52.0302 11.169C51.5463 11.169 51.1088 11.0795 50.7177 10.9006C50.3266 10.7183 50.0167 10.4548 49.788 10.1101C49.5626 9.76539 49.4499 9.3428 49.4499 8.84233C49.4499 8.41146 49.5328 8.05682 49.6985 7.77841C49.8642 7.5 50.0879 7.27959 50.3697 7.11719C50.6514 6.95478 50.9663 6.83215 51.3143 6.74929C51.6623 6.66643 52.0169 6.60346 52.3782 6.56037C52.8356 6.50734 53.2068 6.46425 53.4918 6.43111C53.7769 6.39465 53.984 6.33665 54.1133 6.2571C54.2425 6.17756 54.3072 6.0483 54.3072 5.86932V5.83452C54.3072 5.40033 54.1845 5.06392 53.9393 4.82528C53.6973 4.58665 53.3361 4.46733 52.8555 4.46733C52.355 4.46733 51.9606 4.57836 51.6722 4.80043C51.3872 5.01918 51.19 5.26278 51.0806 5.53125L49.6836 5.21307C49.8493 4.74905 50.0913 4.37453 50.4094 4.08949C50.7309 3.80114 51.1005 3.59233 51.5181 3.46307C51.9357 3.33049 52.3749 3.2642 52.8356 3.2642C53.1405 3.2642 53.4637 3.30066 53.805 3.37358C54.1497 3.44318 54.4712 3.57244 54.7695 3.76136C55.0711 3.95028 55.3181 4.22041 55.5103 4.57173C55.7025 4.91974 55.7987 5.37216 55.7987 5.92898V11H54.3469V9.95597H54.2873C54.1912 10.1482 54.047 10.3371 53.8548 10.5227C53.6625 10.7083 53.4156 10.8625 53.114 10.9851C52.8124 11.1077 52.4511 11.169 52.0302 11.169ZM52.3533 9.97585C52.7643 9.97585 53.1156 9.89465 53.4073 9.73224C53.7023 9.56984 53.926 9.35772 54.0785 9.09588C54.2343 8.83073 54.3121 8.54735 54.3121 8.24574V7.26136C54.2591 7.31439 54.1564 7.36411 54.0039 7.41051C53.8548 7.4536 53.6841 7.49171 53.4918 7.52486C53.2996 7.55469 53.1123 7.58286 52.93 7.60938C52.7478 7.63258 52.5953 7.65246 52.4727 7.66903C52.1843 7.70549 51.9208 7.76681 51.6822 7.85298C51.4469 7.93916 51.2579 8.06345 51.1154 8.22585C50.9762 8.38494 50.9066 8.59706 50.9066 8.86222C50.9066 9.23011 51.0425 9.50852 51.3143 9.69744C51.5861 9.88305 51.9324 9.97585 52.3533 9.97585ZM60.6373 11.1491C60.0208 11.1491 59.4706 10.9917 58.9867 10.6768C58.5061 10.3587 58.1283 9.90625 57.8532 9.3196C57.5814 8.72964 57.4455 8.02202 57.4455 7.19673C57.4455 6.37145 57.583 5.66548 57.8581 5.07884C58.1365 4.49219 58.5177 4.04309 59.0016 3.73153C59.4855 3.41998 60.034 3.2642 60.6472 3.2642C61.1212 3.2642 61.5023 3.34375 61.7907 3.50284C62.0823 3.65862 62.3077 3.84091 62.4668 4.04972C62.6292 4.25852 62.7551 4.44247 62.8446 4.60156H62.9341V0.818182H64.4206V11H62.9689V9.81179H62.8446C62.7551 9.9742 62.6259 10.1598 62.4569 10.3686C62.2911 10.5774 62.0624 10.7597 61.7708 10.9155C61.4791 11.0713 61.1013 11.1491 60.6373 11.1491ZM60.9654 9.88139C61.3929 9.88139 61.7542 9.7687 62.0492 9.54332C62.3475 9.31463 62.5729 8.99811 62.7253 8.59375C62.8811 8.18939 62.959 7.71875 62.959 7.18182C62.959 6.65151 62.8828 6.1875 62.7303 5.78977C62.5778 5.39205 62.3541 5.08215 62.0591 4.86009C61.7641 4.63802 61.3996 4.52699 60.9654 4.52699C60.5179 4.52699 60.1451 4.64299 59.8468 4.875C59.5485 5.10701 59.3231 5.42353 59.1706 5.82457C59.0215 6.22562 58.9469 6.67803 58.9469 7.18182C58.9469 7.69223 59.0231 8.15128 59.1756 8.55895C59.3281 8.96662 59.5534 9.28977 59.8517 9.52841C60.1533 9.76373 60.5246 9.88139 60.9654 9.88139ZM71.0415 6.05327V7.34091H66.5273V6.05327H71.0415ZM76.2393 11.1541C75.5002 11.1541 74.8639 10.9867 74.3303 10.652C73.8 10.3139 73.3923 9.84825 73.1072 9.25497C72.8222 8.66169 72.6797 7.98224 72.6797 7.21662C72.6797 6.44105 72.8255 5.75663 73.1172 5.16335C73.4089 4.56676 73.8198 4.10109 74.3501 3.76633C74.8804 3.43158 75.5052 3.2642 76.2244 3.2642C76.8045 3.2642 77.3215 3.37192 77.7756 3.58736C78.2296 3.79948 78.5959 4.09777 78.8743 4.48224C79.156 4.86671 79.3234 5.31581 79.3764 5.82955H77.9297C77.8501 5.47159 77.6679 5.16335 77.3828 4.90483C77.1011 4.64631 76.7232 4.51705 76.2493 4.51705C75.835 4.51705 75.4721 4.62642 75.1605 4.84517C74.8523 5.06061 74.612 5.36884 74.4396 5.76989C74.2673 6.16761 74.1811 6.63826 74.1811 7.18182C74.1811 7.73864 74.2656 8.21922 74.4347 8.62358C74.6037 9.02794 74.8423 9.34115 75.1506 9.56321C75.4621 9.78527 75.8284 9.89631 76.2493 9.89631C76.531 9.89631 76.7862 9.84493 77.0149 9.74219C77.2469 9.63613 77.4408 9.48532 77.5966 9.28977C77.7557 9.09422 77.8667 8.8589 77.9297 8.58381H79.3764C79.3234 9.07765 79.1626 9.51847 78.8942 9.90625C78.6257 10.294 78.2661 10.599 77.8153 10.821C77.3679 11.0431 76.8426 11.1541 76.2393 11.1541ZM82.4526 0.818182V11H80.9661V0.818182H82.4526ZM87.669 11.1541C86.9531 11.1541 86.3284 10.9901 85.7947 10.6619C85.2611 10.3338 84.8468 9.87476 84.5518 9.2848C84.2569 8.69484 84.1094 8.00544 84.1094 7.21662C84.1094 6.42448 84.2569 5.73177 84.5518 5.13849C84.8468 4.54522 85.2611 4.08452 85.7947 3.75639C86.3284 3.42827 86.9531 3.2642 87.669 3.2642C88.3849 3.2642 89.0097 3.42827 89.5433 3.75639C90.0769 4.08452 90.4912 4.54522 90.7862 5.13849C91.0812 5.73177 91.2287 6.42448 91.2287 7.21662C91.2287 8.00544 91.0812 8.69484 90.7862 9.2848C90.4912 9.87476 90.0769 10.3338 89.5433 10.6619C89.0097 10.9901 88.3849 11.1541 87.669 11.1541ZM87.674 9.90625C88.138 9.90625 88.5225 9.78362 88.8274 9.53835C89.1323 9.29309 89.3577 8.96662 89.5036 8.55895C89.6527 8.15128 89.7273 7.70218 89.7273 7.21165C89.7273 6.72443 89.6527 6.27699 89.5036 5.86932C89.3577 5.45833 89.1323 5.12855 88.8274 4.87997C88.5225 4.63139 88.138 4.5071 87.674 4.5071C87.2067 4.5071 86.8189 4.63139 86.5107 4.87997C86.2057 5.12855 85.9787 5.45833 85.8295 5.86932C85.6837 6.27699 85.6108 6.72443 85.6108 7.21165C85.6108 7.70218 85.6837 8.15128 85.8295 8.55895C85.9787 8.96662 86.2057 9.29309 86.5107 9.53835C86.8189 9.78362 87.2067 9.90625 87.674 9.90625ZM97.7253 7.8331V3.36364H99.2168V11H97.7551V9.67756H97.6756C97.4999 10.0852 97.2182 10.425 96.8304 10.6967C96.446 10.9652 95.967 11.0994 95.3936 11.0994C94.9031 11.0994 94.4689 10.9917 94.0911 10.7763C93.7166 10.5575 93.4216 10.2344 93.2061 9.80682C92.994 9.37926 92.888 8.85062 92.888 8.22088V3.36364H94.3745V8.0419C94.3745 8.56226 94.5186 8.97656 94.807 9.2848C95.0953 9.59304 95.4699 9.74716 95.9306 9.74716C96.209 9.74716 96.4857 9.67756 96.7608 9.53835C97.0392 9.39915 97.2696 9.18868 97.4519 8.90696C97.6375 8.62524 97.7286 8.26728 97.7253 7.8331ZM104.073 11.1491C103.456 11.1491 102.906 10.9917 102.422 10.6768C101.942 10.3587 101.564 9.90625 101.289 9.3196C101.017 8.72964 100.881 8.02202 100.881 7.19673C100.881 6.37145 101.019 5.66548 101.294 5.07884C101.572 4.49219 101.953 4.04309 102.437 3.73153C102.921 3.41998 103.47 3.2642 104.083 3.2642C104.557 3.2642 104.938 3.34375 105.226 3.50284C105.518 3.65862 105.743 3.84091 105.902 4.04972C106.065 4.25852 106.191 4.44247 106.28 4.60156H106.37V0.818182H107.856V11H106.404V9.81179H106.28C106.191 9.9742 106.061 10.1598 105.892 10.3686C105.727 10.5774 105.498 10.7597 105.206 10.9155C104.915 11.0713 104.537 11.1491 104.073 11.1491ZM104.401 9.88139C104.828 9.88139 105.19 9.7687 105.485 9.54332C105.783 9.31463 106.008 8.99811 106.161 8.59375C106.317 8.18939 106.395 7.71875 106.395 7.18182C106.395 6.65151 106.318 6.1875 106.166 5.78977C106.013 5.39205 105.79 5.08215 105.495 4.86009C105.2 4.63802 104.835 4.52699 104.401 4.52699C103.953 4.52699 103.581 4.64299 103.282 4.875C102.984 5.10701 102.759 5.42353 102.606 5.82457C102.457 6.22562 102.382 6.67803 102.382 7.18182C102.382 7.69223 102.459 8.15128 102.611 8.55895C102.764 8.96662 102.989 9.28977 103.287 9.52841C103.589 9.76373 103.96 9.88139 104.401 9.88139ZM114.477 6.05327V7.34091H109.963V6.05327H114.477ZM119.983 11.169C119.198 11.1657 118.526 10.9586 117.97 10.5476C117.413 10.1366 116.987 9.53835 116.692 8.75284C116.397 7.96733 116.249 7.02107 116.249 5.91406C116.249 4.81037 116.397 3.86742 116.692 3.08523C116.99 2.30303 117.418 1.70644 117.975 1.29545C118.535 0.884469 119.204 0.678977 119.983 0.678977C120.762 0.678977 121.43 0.886126 121.987 1.30043C122.544 1.71141 122.969 2.308 123.264 3.0902C123.563 3.86908 123.712 4.81037 123.712 5.91406C123.712 7.02438 123.564 7.9723 123.269 8.75781C122.974 9.54001 122.548 10.1383 121.992 10.5526C121.435 10.9635 120.765 11.169 119.983 11.169ZM119.983 9.84162C120.673 9.84162 121.211 9.50521 121.599 8.83239C121.99 8.15956 122.186 7.18679 122.186 5.91406C122.186 5.06889 122.096 4.35464 121.917 3.77131C121.741 3.18466 121.488 2.74053 121.156 2.43892C120.828 2.134 120.437 1.98153 119.983 1.98153C119.297 1.98153 118.758 2.3196 118.367 2.99574C117.976 3.67187 117.779 4.64465 117.776 5.91406C117.776 6.76255 117.864 7.48011 118.039 8.06676C118.218 8.65009 118.472 9.09257 118.8 9.39418C119.128 9.69247 119.522 9.84162 119.983 9.84162ZM129.338 0.818182V11H127.797V2.35938H127.738L125.301 3.95028V2.47869L127.842 0.818182H129.338Z" fill="black"/>
</svg>
