<svg viewBox="0 0 118 12" fill="none" stroke-width="2" stroke="currentColor" aria-hidden="true">
  <path d="M4.21591 11.1541C3.4768 11.1541 2.84044 10.9867 2.30682 10.652C1.77652 10.3139 1.36884 9.84825 1.08381 9.25497C0.798769 8.66169 0.65625 7.98224 0.65625 7.21662C0.65625 6.44105 0.802083 5.75663 1.09375 5.16335C1.38542 4.56676 1.7964 4.10109 2.3267 3.76633C2.85701 3.43158 3.48177 3.2642 4.20099 3.2642C4.78101 3.2642 5.29806 3.37192 5.75213 3.58736C6.2062 3.79948 6.57244 4.09777 6.85085 4.48224C7.13258 4.86671 7.29995 5.31581 7.35298 5.82955H5.90625C5.8267 5.47159 5.64441 5.16335 5.35938 4.90483C5.07765 4.64631 4.69981 4.51705 4.22585 4.51705C3.81155 4.51705 3.44863 4.62642 3.13707 4.84517C2.82884 5.06061 2.58854 5.36884 2.41619 5.76989C2.24384 6.16761 2.15767 6.63826 2.15767 7.18182C2.15767 7.73864 2.24219 8.21922 2.41122 8.62358C2.58026 9.02794 2.81889 9.34115 3.12713 9.56321C3.43868 9.78527 3.80492 9.89631 4.22585 9.89631C4.50758 9.89631 4.76278 9.84493 4.99148 9.74219C5.22349 9.63613 5.41738 9.48532 5.57315 9.28977C5.73224 9.09422 5.84328 8.8589 5.90625 8.58381H7.35298C7.29995 9.07765 7.1392 9.51847 6.87074 9.90625C6.60227 10.294 6.24266 10.599 5.7919 10.821C5.34446 11.0431 4.81913 11.1541 4.21591 11.1541ZM10.4292 6.46591V11H8.94265V0.818182H10.4093V4.60653H10.5037C10.6827 4.19555 10.9561 3.86908 11.324 3.62713C11.6919 3.38518 12.1725 3.2642 12.7658 3.2642C13.2895 3.2642 13.7469 3.37192 14.138 3.58736C14.5324 3.80279 14.8373 4.12429 15.0527 4.55185C15.2715 4.97609 15.3809 5.50639 15.3809 6.14276V11H13.8944V6.32173C13.8944 5.7616 13.7502 5.32741 13.4618 5.01918C13.1735 4.70762 12.7724 4.55185 12.2587 4.55185C11.9074 4.55185 11.5925 4.62642 11.3141 4.77557C11.039 4.92472 10.8219 5.14347 10.6628 5.43182C10.507 5.71686 10.4292 6.06155 10.4292 6.46591ZM20.6557 11.1541C19.9033 11.1541 19.2554 10.9934 18.7118 10.6719C18.1716 10.3471 17.754 9.89134 17.459 9.30469C17.1673 8.71473 17.0215 8.02367 17.0215 7.23153C17.0215 6.44934 17.1673 5.75994 17.459 5.16335C17.754 4.56676 18.165 4.10109 18.6919 3.76633C19.2222 3.43158 19.842 3.2642 20.5513 3.2642C20.9822 3.2642 21.3998 3.33546 21.8042 3.47798C22.2085 3.6205 22.5714 3.84422 22.8929 4.14915C23.2144 4.45407 23.468 4.85014 23.6536 5.33736C23.8392 5.82126 23.932 6.40956 23.932 7.10227V7.62926H17.8617V6.51562H22.4753C22.4753 6.12453 22.3958 5.77817 22.2367 5.47656C22.0776 5.17164 21.8539 4.93134 21.5655 4.75568C21.2805 4.58002 20.9457 4.49219 20.5613 4.49219C20.1436 4.49219 19.7791 4.59493 19.4675 4.80043C19.1593 5.0026 18.9206 5.26776 18.7516 5.59588C18.5859 5.92069 18.503 6.27367 18.503 6.65483V7.52486C18.503 8.03527 18.5925 8.46946 18.7715 8.82741C18.9538 9.18537 19.2073 9.45881 19.5321 9.64773C19.8569 9.83333 20.2364 9.92614 20.6706 9.92614C20.9524 9.92614 21.2092 9.88636 21.4412 9.80682C21.6732 9.72396 21.8738 9.60133 22.0428 9.43892C22.2118 9.27652 22.3411 9.07599 22.4306 8.83736L23.8375 9.09091C23.7248 9.50521 23.5227 9.86813 23.231 10.1797C22.9426 10.4879 22.5797 10.7282 22.1422 10.9006C21.708 11.0696 21.2125 11.1541 20.6557 11.1541ZM28.7979 11.1541C28.0588 11.1541 27.4225 10.9867 26.8888 10.652C26.3585 10.3139 25.9509 9.84825 25.6658 9.25497C25.3808 8.66169 25.2383 7.98224 25.2383 7.21662C25.2383 6.44105 25.3841 5.75663 25.6758 5.16335C25.9674 4.56676 26.3784 4.10109 26.9087 3.76633C27.439 3.43158 28.0638 3.2642 28.783 3.2642C29.363 3.2642 29.8801 3.37192 30.3342 3.58736C30.7882 3.79948 31.1545 4.09777 31.4329 4.48224C31.7146 4.86671 31.882 5.31581 31.935 5.82955H30.4883C30.4087 5.47159 30.2264 5.16335 29.9414 4.90483C29.6597 4.64631 29.2818 4.51705 28.8079 4.51705C28.3936 4.51705 28.0307 4.62642 27.7191 4.84517C27.4109 5.06061 27.1706 5.36884 26.9982 5.76989C26.8259 6.16761 26.7397 6.63826 26.7397 7.18182C26.7397 7.73864 26.8242 8.21922 26.9933 8.62358C27.1623 9.02794 27.4009 9.34115 27.7092 9.56321C28.0207 9.78527 28.387 9.89631 28.8079 9.89631C29.0896 9.89631 29.3448 9.84493 29.5735 9.74219C29.8055 9.63613 29.9994 9.48532 30.1552 9.28977C30.3143 9.09422 30.4253 8.8589 30.4883 8.58381H31.935C31.882 9.07765 31.7212 9.51847 31.4528 9.90625C31.1843 10.294 30.8247 10.599 30.3739 10.821C29.9265 11.0431 29.4012 11.1541 28.7979 11.1541ZM34.8919 8.4098L34.8819 6.59517H35.1404L38.1831 3.36364H39.9629L36.4927 7.04261H36.2591L34.8919 8.4098ZM33.5247 11V0.818182H35.0112V11H33.5247ZM38.3471 11L35.6127 7.37074L36.6369 6.33168L40.1717 11H38.3471ZM45.2974 6.05327V7.34091H40.7832V6.05327H45.2974ZM53.8113 3.36364L51.0421 11H49.4512L46.677 3.36364H48.2729L50.2069 9.24006H50.2864L52.2154 3.36364H53.8113ZM58.2397 11.1541C57.4873 11.1541 56.8394 10.9934 56.2958 10.6719C55.7556 10.3471 55.3379 9.89134 55.043 9.30469C54.7513 8.71473 54.6055 8.02367 54.6055 7.23153C54.6055 6.44934 54.7513 5.75994 55.043 5.16335C55.3379 4.56676 55.7489 4.10109 56.2759 3.76633C56.8062 3.43158 57.426 3.2642 58.1353 3.2642C58.5662 3.2642 58.9838 3.33546 59.3881 3.47798C59.7925 3.6205 60.1554 3.84422 60.4769 4.14915C60.7984 4.45407 61.052 4.85014 61.2376 5.33736C61.4232 5.82126 61.516 6.40956 61.516 7.10227V7.62926H55.4457V6.51562H60.0593C60.0593 6.12453 59.9798 5.77817 59.8207 5.47656C59.6616 5.17164 59.4379 4.93134 59.1495 4.75568C58.8645 4.58002 58.5297 4.49219 58.1452 4.49219C57.7276 4.49219 57.363 4.59493 57.0515 4.80043C56.7433 5.0026 56.5046 5.26776 56.3356 5.59588C56.1699 5.92069 56.087 6.27367 56.087 6.65483V7.52486C56.087 8.03527 56.1765 8.46946 56.3555 8.82741C56.5378 9.18537 56.7913 9.45881 57.1161 9.64773C57.4409 9.83333 57.8204 9.92614 58.2546 9.92614C58.5363 9.92614 58.7932 9.88636 59.0252 9.80682C59.2572 9.72396 59.4577 9.60133 59.6268 9.43892C59.7958 9.27652 59.9251 9.07599 60.0146 8.83736L61.4215 9.09091C61.3088 9.50521 61.1067 9.86813 60.815 10.1797C60.5266 10.4879 60.1637 10.7282 59.7262 10.9006C59.292 11.0696 58.7965 11.1541 58.2397 11.1541ZM63.1653 11V3.36364H64.6021V4.5767H64.6816C64.8208 4.16572 65.0661 3.84257 65.4174 3.60724C65.7721 3.36861 66.1731 3.24929 66.6206 3.24929C66.7134 3.24929 66.8227 3.2526 66.9487 3.25923C67.0779 3.26586 67.179 3.27415 67.252 3.28409V4.70597C67.1923 4.68939 67.0862 4.67116 66.9338 4.65128C66.7813 4.62808 66.6288 4.61648 66.4764 4.61648C66.1251 4.61648 65.8118 4.69105 65.5368 4.8402C65.265 4.98603 65.0495 5.18987 64.8904 5.4517C64.7314 5.71023 64.6518 6.00521 64.6518 6.33665V11H63.1653ZM68.5384 11V3.36364H70.0249V11H68.5384ZM69.2891 2.18537C69.0305 2.18537 68.8085 2.09919 68.6229 1.92685C68.4406 1.75118 68.3494 1.54238 68.3494 1.30043C68.3494 1.05516 68.4406 0.846354 68.6229 0.674005C68.8085 0.498342 69.0305 0.410511 69.2891 0.410511C69.5476 0.410511 69.768 0.498342 69.9503 0.674005C70.1359 0.846354 70.2287 1.05516 70.2287 1.30043C70.2287 1.54238 70.1359 1.75118 69.9503 1.92685C69.768 2.09919 69.5476 2.18537 69.2891 2.18537ZM75.6589 3.36364V4.55682H71.3436V3.36364H75.6589ZM72.5268 11V2.47869C72.5268 2.00142 72.6312 1.60535 72.84 1.29048C73.0488 0.972301 73.3256 0.735322 73.6703 0.579545C74.015 0.420454 74.3895 0.340908 74.7939 0.340908C75.0922 0.340908 75.3474 0.365767 75.5595 0.415483C75.7716 0.461884 75.929 0.504971 76.0318 0.544744L75.6838 1.74787C75.6142 1.72798 75.5247 1.70478 75.4153 1.67827C75.3059 1.64844 75.1734 1.63352 75.0176 1.63352C74.6563 1.63352 74.3978 1.72301 74.242 1.90199C74.0895 2.08097 74.0133 2.33949 74.0133 2.67756V11H72.5268ZM77.1926 11V3.36364H78.6792V11H77.1926ZM77.9434 2.18537C77.6848 2.18537 77.4628 2.09919 77.2772 1.92685C77.0949 1.75118 77.0037 1.54238 77.0037 1.30043C77.0037 1.05516 77.0949 0.846354 77.2772 0.674005C77.4628 0.498342 77.6848 0.410511 77.9434 0.410511C78.2019 0.410511 78.4223 0.498342 78.6046 0.674005C78.7902 0.846354 78.883 1.05516 78.883 1.30043C78.883 1.54238 78.7902 1.75118 78.6046 1.92685C78.4223 2.09919 78.2019 2.18537 77.9434 2.18537ZM83.9702 11.1541C83.2178 11.1541 82.5698 10.9934 82.0263 10.6719C81.486 10.3471 81.0684 9.89134 80.7734 9.30469C80.4818 8.71473 80.3359 8.02367 80.3359 7.23153C80.3359 6.44934 80.4818 5.75994 80.7734 5.16335C81.0684 4.56676 81.4794 4.10109 82.0064 3.76633C82.5367 3.43158 83.1565 3.2642 83.8658 3.2642C84.2966 3.2642 84.7143 3.33546 85.1186 3.47798C85.523 3.6205 85.8859 3.84422 86.2074 4.14915C86.5289 4.45407 86.7824 4.85014 86.968 5.33736C87.1536 5.82126 87.2464 6.40956 87.2464 7.10227V7.62926H81.1761V6.51562H85.7898C85.7898 6.12453 85.7102 5.77817 85.5511 5.47656C85.392 5.17164 85.1683 4.93134 84.88 4.75568C84.5949 4.58002 84.2602 4.49219 83.8757 4.49219C83.4581 4.49219 83.0935 4.59493 82.782 4.80043C82.4737 5.0026 82.2351 5.26776 82.0661 5.59588C81.9003 5.92069 81.8175 6.27367 81.8175 6.65483V7.52486C81.8175 8.03527 81.907 8.46946 82.0859 8.82741C82.2682 9.18537 82.5218 9.45881 82.8466 9.64773C83.1714 9.83333 83.5509 9.92614 83.9851 9.92614C84.2668 9.92614 84.5237 9.88636 84.7557 9.80682C84.9877 9.72396 85.1882 9.60133 85.3572 9.43892C85.5263 9.27652 85.6555 9.07599 85.745 8.83736L87.152 9.09091C87.0393 9.50521 86.8371 9.86813 86.5455 10.1797C86.2571 10.4879 85.8942 10.7282 85.4567 10.9006C85.0225 11.0696 84.527 11.1541 83.9702 11.1541ZM91.7544 11.1491C91.138 11.1491 90.5878 10.9917 90.1039 10.6768C89.6233 10.3587 89.2454 9.90625 88.9703 9.3196C88.6986 8.72964 88.5627 8.02202 88.5627 7.19673C88.5627 6.37145 88.7002 5.66548 88.9753 5.07884C89.2537 4.49219 89.6349 4.04309 90.1188 3.73153C90.6027 3.41998 91.1512 3.2642 91.7644 3.2642C92.2383 3.2642 92.6195 3.34375 92.9078 3.50284C93.1995 3.65862 93.4249 3.84091 93.584 4.04972C93.7464 4.25852 93.8723 4.44247 93.9618 4.60156H94.0513V0.818182H95.5378V11H94.0861V9.81179H93.9618C93.8723 9.9742 93.7431 10.1598 93.574 10.3686C93.4083 10.5774 93.1796 10.7597 92.888 10.9155C92.5963 11.0713 92.2185 11.1491 91.7544 11.1491ZM92.0826 9.88139C92.5101 9.88139 92.8714 9.7687 93.1664 9.54332C93.4647 9.31463 93.69 8.99811 93.8425 8.59375C93.9983 8.18939 94.0762 7.71875 94.0762 7.18182C94.0762 6.65151 93.9999 6.1875 93.8475 5.78977C93.695 5.39205 93.4713 5.08215 93.1763 4.86009C92.8813 4.63802 92.5167 4.52699 92.0826 4.52699C91.6351 4.52699 91.2623 4.64299 90.964 4.875C90.6657 5.10701 90.4403 5.42353 90.2878 5.82457C90.1387 6.22562 90.0641 6.67803 90.0641 7.18182C90.0641 7.69223 90.1403 8.15128 90.2928 8.55895C90.4453 8.96662 90.6706 9.28977 90.9689 9.52841C91.2705 9.76373 91.6417 9.88139 92.0826 9.88139ZM102.159 6.05327V7.34091H97.6445V6.05327H102.159ZM107.665 11.169C106.879 11.1657 106.208 10.9586 105.651 10.5476C105.094 10.1366 104.669 9.53835 104.374 8.75284C104.079 7.96733 103.931 7.02107 103.931 5.91406C103.931 4.81037 104.079 3.86742 104.374 3.08523C104.672 2.30303 105.099 1.70644 105.656 1.29545C106.216 0.884469 106.886 0.678977 107.665 0.678977C108.444 0.678977 109.112 0.886126 109.668 1.30043C110.225 1.71141 110.651 2.308 110.946 3.0902C111.244 3.86908 111.393 4.81037 111.393 5.91406C111.393 7.02438 111.246 7.9723 110.951 8.75781C110.656 9.54001 110.23 10.1383 109.673 10.5526C109.116 10.9635 108.447 11.169 107.665 11.169ZM107.665 9.84162C108.354 9.84162 108.893 9.50521 109.281 8.83239C109.672 8.15956 109.867 7.18679 109.867 5.91406C109.867 5.06889 109.778 4.35464 109.599 3.77131C109.423 3.18466 109.17 2.74053 108.838 2.43892C108.51 2.134 108.119 1.98153 107.665 1.98153C106.979 1.98153 106.44 2.3196 106.049 2.99574C105.658 3.67187 105.461 4.64465 105.457 5.91406C105.457 6.76255 105.545 7.48011 105.721 8.06676C105.9 8.65009 106.153 9.09257 106.482 9.39418C106.81 9.69247 107.204 9.84162 107.665 9.84162ZM117.02 0.818182V11H115.479V2.35938H115.419L112.983 3.95028V2.47869L115.524 0.818182H117.02Z" fill="black"/>
</svg>
