<svg viewBox="0 0 78 12" fill="none" stroke-width="2" stroke="currentColor" aria-hidden="true">
  <path d="M1.4858 6.46591V11H-0.000710189V0.818182H1.46591V4.60653H1.56037C1.73935 4.19555 2.01278 3.86908 2.38068 3.62713C2.74858 3.38518 3.22917 3.2642 3.82244 3.2642C4.34612 3.2642 4.8035 3.37192 5.1946 3.58736C5.58902 3.80279 5.89394 4.12429 6.10938 4.55185C6.32812 4.97609 6.4375 5.50639 6.4375 6.14276V11H4.95099V6.32173C4.95099 5.7616 4.80682 5.32741 4.51847 5.01918C4.23011 4.70762 3.82907 4.55185 3.31534 4.55185C2.96402 4.55185 2.64915 4.62642 2.37074 4.77557C2.09564 4.92472 1.87855 5.14347 1.71946 5.43182C1.56368 5.71686 1.4858 6.06155 1.4858 6.46591ZM11.6378 11.1541C10.9219 11.1541 10.2971 10.9901 9.76349 10.6619C9.22988 10.3338 8.81558 9.87476 8.5206 9.2848C8.22562 8.69484 8.07812 8.00544 8.07812 7.21662C8.07812 6.42448 8.22562 5.73177 8.5206 5.13849C8.81558 4.54522 9.22988 4.08452 9.76349 3.75639C10.2971 3.42827 10.9219 3.2642 11.6378 3.2642C12.3537 3.2642 12.9785 3.42827 13.5121 3.75639C14.0457 4.08452 14.46 4.54522 14.755 5.13849C15.05 5.73177 15.1974 6.42448 15.1974 7.21662C15.1974 8.00544 15.05 8.69484 14.755 9.2848C14.46 9.87476 14.0457 10.3338 13.5121 10.6619C12.9785 10.9901 12.3537 11.1541 11.6378 11.1541ZM11.6428 9.90625C12.1068 9.90625 12.4912 9.78362 12.7962 9.53835C13.1011 9.29309 13.3265 8.96662 13.4723 8.55895C13.6214 8.15128 13.696 7.70218 13.696 7.21165C13.696 6.72443 13.6214 6.27699 13.4723 5.86932C13.3265 5.45833 13.1011 5.12855 12.7962 4.87997C12.4912 4.63139 12.1068 4.5071 11.6428 4.5071C11.1754 4.5071 10.7876 4.63139 10.4794 4.87997C10.1745 5.12855 9.94744 5.45833 9.7983 5.86932C9.65246 6.27699 9.57955 6.72443 9.57955 7.21165C9.57955 7.70218 9.65246 8.15128 9.7983 8.55895C9.94744 8.96662 10.1745 9.29309 10.4794 9.53835C10.7876 9.78362 11.1754 9.90625 11.6428 9.90625ZM16.8567 11V3.36364H18.2836V4.60653H18.378C18.5371 4.18561 18.7973 3.85748 19.1586 3.62216C19.5198 3.38352 19.9524 3.2642 20.4561 3.2642C20.9666 3.2642 21.3941 3.38352 21.7388 3.62216C22.0868 3.8608 22.3437 4.18892 22.5094 4.60653H22.589C22.7712 4.19886 23.0613 3.87405 23.459 3.6321C23.8567 3.38684 24.3307 3.2642 24.8809 3.2642C25.5736 3.2642 26.1387 3.4813 26.5762 3.91548C27.017 4.34967 27.2374 5.00426 27.2374 5.87926V11H25.7509V6.01847C25.7509 5.50142 25.61 5.12689 25.3283 4.89489C25.0466 4.66288 24.7102 4.54688 24.3191 4.54688C23.8352 4.54688 23.459 4.69602 23.1905 4.99432C22.9221 5.2893 22.7878 5.6688 22.7878 6.13281V11H21.3063V5.92401C21.3063 5.50971 21.177 5.17661 20.9185 4.92472C20.66 4.67282 20.3236 4.54688 19.9093 4.54688C19.6275 4.54688 19.3674 4.62145 19.1287 4.7706C18.8934 4.91643 18.7028 5.12026 18.557 5.3821C18.4145 5.64394 18.3432 5.94721 18.3432 6.2919V11H16.8567ZM32.521 11.1541C31.7686 11.1541 31.1206 10.9934 30.5771 10.6719C30.0368 10.3471 29.6192 9.89134 29.3242 9.30469C29.0326 8.71473 28.8867 8.02367 28.8867 7.23153C28.8867 6.44934 29.0326 5.75994 29.3242 5.16335C29.6192 4.56676 30.0302 4.10109 30.5572 3.76633C31.0875 3.43158 31.7073 3.2642 32.4165 3.2642C32.8474 3.2642 33.265 3.33546 33.6694 3.47798C34.0737 3.6205 34.4367 3.84422 34.7582 4.14915C35.0797 4.45407 35.3332 4.85014 35.5188 5.33736C35.7044 5.82126 35.7972 6.40956 35.7972 7.10227V7.62926H29.7269V6.51562H34.3406C34.3406 6.12453 34.261 5.77817 34.1019 5.47656C33.9428 5.17164 33.7191 4.93134 33.4308 4.75568C33.1457 4.58002 32.811 4.49219 32.4265 4.49219C32.0089 4.49219 31.6443 4.59493 31.3327 4.80043C31.0245 5.0026 30.7859 5.26776 30.6168 5.59588C30.4511 5.92069 30.3683 6.27367 30.3683 6.65483V7.52486C30.3683 8.03527 30.4577 8.46946 30.6367 8.82741C30.819 9.18537 31.0726 9.45881 31.3974 9.64773C31.7222 9.83333 32.1017 9.92614 32.5359 9.92614C32.8176 9.92614 33.0745 9.88636 33.3065 9.80682C33.5385 9.72396 33.739 9.60133 33.908 9.43892C34.0771 9.27652 34.2063 9.07599 34.2958 8.83736L35.7028 9.09091C35.5901 9.50521 35.3879 9.86813 35.0962 10.1797C34.8079 10.4879 34.445 10.7282 34.0075 10.9006C33.5733 11.0696 33.0778 11.1541 32.521 11.1541ZM41.9458 6.05327V7.34091H37.4316V6.05327H41.9458ZM49.6493 5.22798L48.302 5.46662C48.2457 5.29427 48.1562 5.13021 48.0336 4.97443C47.9142 4.81865 47.7518 4.69105 47.5463 4.59162C47.3409 4.49219 47.084 4.44247 46.7757 4.44247C46.3548 4.44247 46.0035 4.53693 45.7218 4.72585C45.44 4.91146 45.2992 5.15175 45.2992 5.44673C45.2992 5.70194 45.3936 5.90743 45.5826 6.06321C45.7715 6.21899 46.0764 6.34659 46.4973 6.44602L47.7104 6.72443C48.4131 6.88684 48.9367 7.13707 49.2814 7.47514C49.6261 7.81321 49.7985 8.25237 49.7985 8.79261C49.7985 9.25 49.6659 9.65767 49.4007 10.0156C49.1389 10.3703 48.7727 10.6487 48.302 10.8509C47.8347 11.053 47.2928 11.1541 46.6763 11.1541C45.8212 11.1541 45.1235 10.9718 44.5833 10.6072C44.043 10.2393 43.7116 9.71733 43.589 9.04119L45.0257 8.82244C45.1152 9.19697 45.2992 9.48035 45.5776 9.67259C45.856 9.86151 46.2189 9.95597 46.6664 9.95597C47.1536 9.95597 47.543 9.85488 47.8347 9.6527C48.1264 9.44721 48.2722 9.19697 48.2722 8.90199C48.2722 8.66335 48.1827 8.46283 48.0037 8.30043C47.8281 8.13802 47.5579 8.01539 47.1934 7.93253L45.9007 7.64915C45.1882 7.48674 44.6612 7.22822 44.3198 6.87358C43.9817 6.51894 43.8127 6.06984 43.8127 5.52628C43.8127 5.07552 43.9386 4.68111 44.1905 4.34304C44.4424 4.00497 44.7904 3.74148 45.2346 3.55256C45.6787 3.36032 46.1874 3.2642 46.7608 3.2642C47.5861 3.2642 48.2357 3.44318 48.7097 3.80114C49.1837 4.15578 49.4969 4.63139 49.6493 5.22798ZM51.4329 11V3.36364H52.8597V4.60653H52.9542C53.1133 4.18561 53.3735 3.85748 53.7347 3.62216C54.096 3.38352 54.5285 3.2642 55.0323 3.2642C55.5427 3.2642 55.9703 3.38352 56.315 3.62216C56.663 3.8608 56.9199 4.18892 57.0856 4.60653H57.1651C57.3474 4.19886 57.6374 3.87405 58.0352 3.6321C58.4329 3.38684 58.9068 3.2642 59.457 3.2642C60.1497 3.2642 60.7148 3.4813 61.1523 3.91548C61.5932 4.34967 61.8136 5.00426 61.8136 5.87926V11H60.3271V6.01847C60.3271 5.50142 60.1862 5.12689 59.9045 4.89489C59.6228 4.66288 59.2863 4.54688 58.8952 4.54688C58.4113 4.54688 58.0352 4.69602 57.7667 4.99432C57.4982 5.2893 57.364 5.6688 57.364 6.13281V11H55.8825V5.92401C55.8825 5.50971 55.7532 5.17661 55.4947 4.92472C55.2362 4.67282 54.8997 4.54688 54.4854 4.54688C54.2037 4.54688 53.9435 4.62145 53.7049 4.7706C53.4696 4.91643 53.279 5.12026 53.1332 5.3821C52.9906 5.64394 52.9194 5.94721 52.9194 6.2919V11H51.4329ZM63.8059 11V3.36364H65.2924V11H63.8059ZM64.5566 2.18537C64.2981 2.18537 64.0761 2.09919 63.8904 1.92685C63.7082 1.75118 63.617 1.54238 63.617 1.30043C63.617 1.05516 63.7082 0.846354 63.8904 0.674005C64.0761 0.498342 64.2981 0.410511 64.5566 0.410511C64.8152 0.410511 65.0356 0.498342 65.2179 0.674005C65.4035 0.846354 65.4963 1.05516 65.4963 1.30043C65.4963 1.54238 65.4035 1.75118 65.2179 1.92685C65.0356 2.09919 64.8152 2.18537 64.5566 2.18537ZM68.7788 0.818182V11H67.2923V0.818182H68.7788ZM74.0698 11.1541C73.3174 11.1541 72.6694 10.9934 72.1259 10.6719C71.5856 10.3471 71.168 9.89134 70.873 9.30469C70.5814 8.71473 70.4355 8.02367 70.4355 7.23153C70.4355 6.44934 70.5814 5.75994 70.873 5.16335C71.168 4.56676 71.579 4.10109 72.106 3.76633C72.6363 3.43158 73.2561 3.2642 73.9654 3.2642C74.3962 3.2642 74.8139 3.33546 75.2182 3.47798C75.6226 3.6205 75.9855 3.84422 76.307 4.14915C76.6285 4.45407 76.882 4.85014 77.0676 5.33736C77.2533 5.82126 77.3461 6.40956 77.3461 7.10227V7.62926H71.2757V6.51562H75.8894C75.8894 6.12453 75.8098 5.77817 75.6507 5.47656C75.4917 5.17164 75.2679 4.93134 74.9796 4.75568C74.6945 4.58002 74.3598 4.49219 73.9753 4.49219C73.5577 4.49219 73.1931 4.59493 72.8816 4.80043C72.5733 5.0026 72.3347 5.26776 72.1657 5.59588C71.9999 5.92069 71.9171 6.27367 71.9171 6.65483V7.52486C71.9171 8.03527 72.0066 8.46946 72.1855 8.82741C72.3678 9.18537 72.6214 9.45881 72.9462 9.64773C73.271 9.83333 73.6505 9.92614 74.0847 9.92614C74.3664 9.92614 74.6233 9.88636 74.8553 9.80682C75.0873 9.72396 75.2878 9.60133 75.4569 9.43892C75.6259 9.27652 75.7551 9.07599 75.8446 8.83736L77.2516 9.09091C77.1389 9.50521 76.9367 9.86813 76.6451 10.1797C76.3567 10.4879 75.9938 10.7282 75.5563 10.9006C75.1221 11.0696 74.6266 11.1541 74.0698 11.1541Z" fill="black"/>
</svg>
