<svg width="76" height="15" viewBox="0 0 76 15" fill="none" xmlns="http://www.w3.org/2000/svg">
<path d="M3.22159 11.169C2.73769 11.169 2.30019 11.0795 1.90909 10.9006C1.51799 10.7183 1.2081 10.4548 0.979403 10.1101C0.754025 9.76539 0.641335 9.3428 0.641335 8.84233C0.641335 8.41146 0.724195 8.05682 0.889915 7.77841C1.05563 7.5 1.27936 7.27959 1.56108 7.11719C1.8428 6.95478 2.15767 6.83215 2.50568 6.74929C2.85369 6.66643 3.20833 6.60346 3.5696 6.56037C4.02699 6.50734 4.3982 6.46425 4.68324 6.43111C4.96828 6.39465 5.17543 6.33665 5.30469 6.2571C5.43395 6.17756 5.49858 6.0483 5.49858 5.86932V5.83452C5.49858 5.40033 5.37595 5.06392 5.13068 4.82528C4.88873 4.58665 4.52746 4.46733 4.04688 4.46733C3.5464 4.46733 3.15199 4.57836 2.86364 4.80043C2.5786 5.01918 2.38139 5.26278 2.27202 5.53125L0.875 5.21307C1.04072 4.74905 1.28267 4.37453 1.60085 4.08949C1.92235 3.80114 2.2919 3.59233 2.70952 3.46307C3.12713 3.33049 3.56629 3.2642 4.02699 3.2642C4.33191 3.2642 4.65507 3.30066 4.99645 3.37358C5.34115 3.44318 5.66264 3.57244 5.96094 3.76136C6.26255 3.95028 6.50947 4.22041 6.7017 4.57173C6.89394 4.91974 6.99006 5.37216 6.99006 5.92898V11H5.53835V9.95597H5.47869C5.38258 10.1482 5.2384 10.3371 5.04616 10.5227C4.85393 10.7083 4.60701 10.8625 4.3054 10.9851C4.00379 11.1077 3.64252 11.169 3.22159 11.169ZM3.54474 9.97585C3.95573 9.97585 4.30706 9.89465 4.59872 9.73224C4.8937 9.56984 5.11742 9.35772 5.26989 9.09588C5.42566 8.83073 5.50355 8.54735 5.50355 8.24574V7.26136C5.45052 7.31439 5.34777 7.36411 5.19531 7.41051C5.04616 7.4536 4.87547 7.49171 4.68324 7.52486C4.491 7.55469 4.30374 7.58286 4.12145 7.60938C3.93916 7.63258 3.7867 7.65246 3.66406 7.66903C3.37571 7.70549 3.11222 7.76681 2.87358 7.85298C2.63826 7.93916 2.44934 8.06345 2.30682 8.22585C2.16761 8.38494 2.09801 8.59706 2.09801 8.86222C2.09801 9.23011 2.2339 9.50852 2.50568 9.69744C2.77746 9.88305 3.12382 9.97585 3.54474 9.97585ZM8.96999 11V3.36364H10.4068V4.5767H10.4863C10.6255 4.16572 10.8708 3.84257 11.2221 3.60724C11.5768 3.36861 11.9778 3.24929 12.4252 3.24929C12.5181 3.24929 12.6274 3.2526 12.7534 3.25923C12.8826 3.26586 12.9837 3.27415 13.0566 3.28409V4.70597C12.997 4.68939 12.8909 4.67116 12.7385 4.65128C12.586 4.62808 12.4335 4.61648 12.2811 4.61648C11.9297 4.61648 11.6165 4.69105 11.3414 4.8402C11.0697 4.98603 10.8542 5.18987 10.6951 5.4517C10.536 5.71023 10.4565 6.00521 10.4565 6.33665V11H8.96999ZM14.343 11V3.36364H15.7798V4.5767H15.8594C15.9986 4.16572 16.2438 3.84257 16.5952 3.60724C16.9498 3.36861 17.3509 3.24929 17.7983 3.24929C17.8911 3.24929 18.0005 3.2526 18.1264 3.25923C18.2557 3.26586 18.3568 3.27415 18.4297 3.28409V4.70597C18.37 4.68939 18.264 4.67116 18.1115 4.65128C17.959 4.62808 17.8066 4.61648 17.6541 4.61648C17.3028 4.61648 16.9896 4.69105 16.7145 4.8402C16.4427 4.98603 16.2273 5.18987 16.0682 5.4517C15.9091 5.71023 15.8295 6.00521 15.8295 6.33665V11H14.343ZM22.6593 11.1541C21.9434 11.1541 21.3186 10.9901 20.785 10.6619C20.2514 10.3338 19.8371 9.87476 19.5421 9.2848C19.2471 8.69484 19.0996 8.00544 19.0996 7.21662C19.0996 6.42448 19.2471 5.73177 19.5421 5.13849C19.8371 4.54522 20.2514 4.08452 20.785 3.75639C21.3186 3.42827 21.9434 3.2642 22.6593 3.2642C23.3752 3.2642 23.9999 3.42827 24.5336 3.75639C25.0672 4.08452 25.4815 4.54522 25.7765 5.13849C26.0714 5.73177 26.2189 6.42448 26.2189 7.21662C26.2189 8.00544 26.0714 8.69484 25.7765 9.2848C25.4815 9.87476 25.0672 10.3338 24.5336 10.6619C23.9999 10.9901 23.3752 11.1541 22.6593 11.1541ZM22.6642 9.90625C23.1283 9.90625 23.5127 9.78362 23.8176 9.53835C24.1226 9.29309 24.348 8.96662 24.4938 8.55895C24.6429 8.15128 24.7175 7.70218 24.7175 7.21165C24.7175 6.72443 24.6429 6.27699 24.4938 5.86932C24.348 5.45833 24.1226 5.12855 23.8176 4.87997C23.5127 4.63139 23.1283 4.5071 22.6642 4.5071C22.1969 4.5071 21.8091 4.63139 21.5009 4.87997C21.196 5.12855 20.9689 5.45833 20.8198 5.86932C20.6739 6.27699 20.601 6.72443 20.601 7.21165C20.601 7.70218 20.6739 8.15128 20.8198 8.55895C20.9689 8.96662 21.196 9.29309 21.5009 9.53835C21.8091 9.78362 22.1969 9.90625 22.6642 9.90625ZM29.3013 11L27.0542 3.36364H28.5904L30.0868 8.97159H30.1614L31.6628 3.36364H33.199L34.6905 8.94673H34.7651L36.2516 3.36364H37.7878L35.5456 11H34.0293L32.4782 5.48651H32.3638L30.8127 11H29.3013ZM43.6978 6.05327V7.34091H39.1836V6.05327H43.6978ZM45.679 11V3.36364H47.1158V4.5767H47.1953C47.3345 4.16572 47.5798 3.84257 47.9311 3.60724C48.2857 3.36861 48.6868 3.24929 49.1342 3.24929C49.227 3.24929 49.3364 3.2526 49.4624 3.25923C49.5916 3.26586 49.6927 3.27415 49.7656 3.28409V4.70597C49.706 4.68939 49.5999 4.67116 49.4474 4.65128C49.295 4.62808 49.1425 4.61648 48.9901 4.61648C48.6387 4.61648 48.3255 4.69105 48.0504 4.8402C47.7786 4.98603 47.5632 5.18987 47.4041 5.4517C47.245 5.71023 47.1655 6.00521 47.1655 6.33665V11H45.679ZM51.052 11V3.36364H52.5385V11H51.052ZM51.8027 2.18537C51.5442 2.18537 51.3221 2.09919 51.1365 1.92685C50.9542 1.75118 50.8631 1.54238 50.8631 1.30043C50.8631 1.05516 50.9542 0.846354 51.1365 0.674005C51.3221 0.498342 51.5442 0.410511 51.8027 0.410511C52.0613 0.410511 52.2817 0.498342 52.464 0.674005C52.6496 0.846354 52.7424 1.05516 52.7424 1.30043C52.7424 1.54238 52.6496 1.75118 52.464 1.92685C52.2817 2.09919 52.0613 2.18537 51.8027 2.18537ZM57.7401 14.0227C57.1335 14.0227 56.6115 13.9432 56.174 13.7841C55.7398 13.625 55.3852 13.4145 55.1101 13.1527C54.835 12.8909 54.6295 12.6042 54.4936 12.2926L55.7713 11.7656C55.8608 11.9115 55.9801 12.0656 56.1293 12.228C56.2817 12.3937 56.4872 12.5346 56.7457 12.6506C57.0076 12.7666 57.344 12.8246 57.755 12.8246C58.3184 12.8246 58.7841 12.687 59.152 12.4119C59.5199 12.1402 59.7038 11.706 59.7038 11.1094V9.60795H59.6094C59.5199 9.77036 59.3906 9.95099 59.2216 10.1499C59.0559 10.3487 58.8272 10.5211 58.5355 10.6669C58.2438 10.8127 57.8643 10.8857 57.397 10.8857C56.7938 10.8857 56.2502 10.7448 55.7663 10.4631C55.2857 10.178 54.9046 9.75876 54.6229 9.20526C54.3445 8.64844 54.2053 7.96401 54.2053 7.15199C54.2053 6.33996 54.3428 5.64394 54.6179 5.06392C54.8963 4.4839 55.2775 4.03977 55.7614 3.73153C56.2453 3.41998 56.7938 3.2642 57.407 3.2642C57.8809 3.2642 58.2637 3.34375 58.5554 3.50284C58.8471 3.65862 59.0741 3.84091 59.2365 4.04972C59.4022 4.25852 59.5298 4.44247 59.6193 4.60156H59.7287V3.36364H61.1854V11.169C61.1854 11.8253 61.0329 12.3639 60.728 12.7848C60.4231 13.2057 60.0104 13.5173 59.4901 13.7195C58.973 13.9216 58.3897 14.0227 57.7401 14.0227ZM57.7251 9.6527C58.1527 9.6527 58.514 9.55327 58.8089 9.3544C59.1072 9.15223 59.3326 8.86387 59.4851 8.48935C59.6409 8.11151 59.7188 7.65909 59.7188 7.1321C59.7188 6.61837 59.6425 6.16596 59.4901 5.77486C59.3376 5.38376 59.1139 5.07884 58.8189 4.86009C58.5239 4.63802 58.1593 4.52699 57.7251 4.52699C57.2777 4.52699 56.9048 4.64299 56.6065 4.875C56.3082 5.10369 56.0829 5.41525 55.9304 5.80966C55.7813 6.20407 55.7067 6.64489 55.7067 7.1321C55.7067 7.63258 55.7829 8.07173 55.9354 8.44957C56.0878 8.82741 56.3132 9.1224 56.6115 9.33452C56.9131 9.54664 57.2843 9.6527 57.7251 9.6527ZM64.6655 6.46591V11H63.179V0.818182H64.6456V4.60653H64.7401C64.919 4.19555 65.1925 3.86908 65.5604 3.62713C65.9283 3.38518 66.4089 3.2642 67.0021 3.2642C67.5258 3.2642 67.9832 3.37192 68.3743 3.58736C68.7687 3.80279 69.0736 4.12429 69.2891 4.55185C69.5078 4.97609 69.6172 5.50639 69.6172 6.14276V11H68.1307V6.32173C68.1307 5.7616 67.9865 5.32741 67.6982 5.01918C67.4098 4.70762 67.0088 4.55185 66.495 4.55185C66.1437 4.55185 65.8288 4.62642 65.5504 4.77557C65.2753 4.92472 65.0582 5.14347 64.8991 5.43182C64.7434 5.71686 64.6655 6.06155 64.6655 6.46591ZM75.1655 3.36364V4.55682H70.9943V3.36364H75.1655ZM72.1129 1.53409H73.5994V8.75781C73.5994 9.04616 73.6425 9.26326 73.7287 9.40909C73.8149 9.55161 73.9259 9.64938 74.0618 9.70241C74.201 9.75213 74.3518 9.77699 74.5142 9.77699C74.6335 9.77699 74.7379 9.7687 74.8274 9.75213C74.9169 9.73556 74.9865 9.7223 75.0362 9.71236L75.3047 10.9403C75.2185 10.9735 75.0959 11.0066 74.9368 11.0398C74.7777 11.0762 74.5788 11.0961 74.3402 11.0994C73.9491 11.1061 73.5845 11.0365 73.2464 10.8906C72.9084 10.7448 72.6349 10.5194 72.4261 10.2145C72.2173 9.90956 72.1129 9.52675 72.1129 9.06605V1.53409Z" fill="black"/>
</svg>
