<svg width="79" height="14" viewBox="0 0 79 14" fill="none" xmlns="http://www.w3.org/2000/svg">
<path d="M4.63352 3.36364V4.55682H0.318182V3.36364H4.63352ZM1.50142 11V2.47869C1.50142 2.00142 1.60582 1.60535 1.81463 1.29048C2.02344 0.972301 2.30019 0.735322 2.64489 0.579545C2.98958 0.420454 3.36411 0.340908 3.76847 0.340908C4.06676 0.340908 4.32197 0.365767 4.53409 0.415483C4.74621 0.461884 4.90365 0.504971 5.00639 0.544744L4.65838 1.74787C4.58878 1.72798 4.49929 1.70478 4.38991 1.67827C4.28054 1.64844 4.14796 1.63352 3.99219 1.63352C3.63092 1.63352 3.3724 1.72301 3.21662 1.90199C3.06416 2.08097 2.98793 2.33949 2.98793 2.67756V11H1.50142ZM7.65376 0.818182V11H6.16726V0.818182H7.65376ZM9.65359 11V3.36364H11.1401V11H9.65359ZM10.4043 2.18537C10.1458 2.18537 9.92371 2.09919 9.7381 1.92685C9.55581 1.75118 9.46467 1.54238 9.46467 1.30043C9.46467 1.05516 9.55581 0.846354 9.7381 0.674005C9.92371 0.498342 10.1458 0.410511 10.4043 0.410511C10.6628 0.410511 10.8832 0.498342 11.0655 0.674005C11.2511 0.846354 11.3439 1.05516 11.3439 1.30043C11.3439 1.54238 11.2511 1.75118 11.0655 1.92685C10.8832 2.09919 10.6628 2.18537 10.4043 2.18537ZM13.1399 13.8636V3.36364H14.5916V4.60156H14.7159C14.8021 4.44247 14.9264 4.25852 15.0888 4.04972C15.2512 3.84091 15.4766 3.65862 15.7649 3.50284C16.0533 3.34375 16.4344 3.2642 16.9084 3.2642C17.5249 3.2642 18.075 3.41998 18.5589 3.73153C19.0429 4.04309 19.4223 4.49219 19.6974 5.07884C19.9759 5.66548 20.1151 6.37145 20.1151 7.19673C20.1151 8.02202 19.9775 8.72964 19.7024 9.3196C19.4273 9.90625 19.0495 10.3587 18.5689 10.6768C18.0883 10.9917 17.5398 11.1491 16.9233 11.1491C16.4593 11.1491 16.0798 11.0713 15.7848 10.9155C15.4931 10.7597 15.2644 10.5774 15.0987 10.3686C14.933 10.1598 14.8054 9.9742 14.7159 9.81179H14.6264V13.8636H13.1399ZM14.5966 7.18182C14.5966 7.71875 14.6745 8.18939 14.8303 8.59375C14.986 8.99811 15.2114 9.31463 15.5064 9.54332C15.8014 9.7687 16.1626 9.88139 16.5902 9.88139C17.0343 9.88139 17.4055 9.76373 17.7038 9.52841C18.0021 9.28977 18.2275 8.96662 18.38 8.55895C18.5357 8.15128 18.6136 7.69223 18.6136 7.18182C18.6136 6.67803 18.5374 6.22562 18.3849 5.82457C18.2358 5.42353 18.0104 5.10701 17.7088 4.875C17.4105 4.64299 17.0376 4.52699 16.5902 4.52699C16.1593 4.52699 15.7947 4.63802 15.4964 4.86009C15.2015 5.08215 14.9777 5.39205 14.8253 5.78977C14.6728 6.1875 14.5966 6.65151 14.5966 7.18182ZM26.2798 6.05327V7.34091H21.7656V6.05327H26.2798ZM31.8952 3.36364V4.55682H27.5799V3.36364H31.8952ZM28.7631 11V2.47869C28.7631 2.00142 28.8675 1.60535 29.0763 1.29048C29.2852 0.972301 29.5619 0.735322 29.9066 0.579545C30.2513 0.420454 30.6258 0.340908 31.0302 0.340908C31.3285 0.340908 31.5837 0.365767 31.7958 0.415483C32.0079 0.461884 32.1654 0.504971 32.2681 0.544744L31.9201 1.74787C31.8505 1.72798 31.761 1.70478 31.6516 1.67827C31.5423 1.64844 31.4097 1.63352 31.2539 1.63352C30.8926 1.63352 30.6341 1.72301 30.4783 1.90199C30.3259 2.08097 30.2496 2.33949 30.2496 2.67756V11H28.7631ZM36.3448 11.1541C35.6289 11.1541 35.0041 10.9901 34.4705 10.6619C33.9369 10.3338 33.5226 9.87476 33.2276 9.2848C32.9326 8.69484 32.7852 8.00544 32.7852 7.21662C32.7852 6.42448 32.9326 5.73177 33.2276 5.13849C33.5226 4.54522 33.9369 4.08452 34.4705 3.75639C35.0041 3.42827 35.6289 3.2642 36.3448 3.2642C37.0607 3.2642 37.6855 3.42827 38.2191 3.75639C38.7527 4.08452 39.167 4.54522 39.462 5.13849C39.757 5.73177 39.9045 6.42448 39.9045 7.21662C39.9045 8.00544 39.757 8.69484 39.462 9.2848C39.167 9.87476 38.7527 10.3338 38.2191 10.6619C37.6855 10.9901 37.0607 11.1541 36.3448 11.1541ZM36.3498 9.90625C36.8138 9.90625 37.1983 9.78362 37.5032 9.53835C37.8081 9.29309 38.0335 8.96662 38.1793 8.55895C38.3285 8.15128 38.4031 7.70218 38.4031 7.21165C38.4031 6.72443 38.3285 6.27699 38.1793 5.86932C38.0335 5.45833 37.8081 5.12855 37.5032 4.87997C37.1983 4.63139 36.8138 4.5071 36.3498 4.5071C35.8825 4.5071 35.4947 4.63139 35.1864 4.87997C34.8815 5.12855 34.6545 5.45833 34.5053 5.86932C34.3595 6.27699 34.2866 6.72443 34.2866 7.21165C34.2866 7.70218 34.3595 8.15128 34.5053 8.55895C34.6545 8.96662 34.8815 9.29309 35.1864 9.53835C35.4947 9.78362 35.8825 9.90625 36.3498 9.90625ZM41.5637 11V3.36364H43.0005V4.5767H43.0801C43.2193 4.16572 43.4645 3.84257 43.8159 3.60724C44.1705 3.36861 44.5716 3.24929 45.019 3.24929C45.1118 3.24929 45.2212 3.2526 45.3471 3.25923C45.4764 3.26586 45.5775 3.27415 45.6504 3.28409V4.70597C45.5907 4.68939 45.4847 4.67116 45.3322 4.65128C45.1797 4.62808 45.0273 4.61648 44.8748 4.61648C44.5235 4.61648 44.2103 4.69105 43.9352 4.8402C43.6634 4.98603 43.448 5.18987 43.2889 5.4517C43.1298 5.71023 43.0502 6.00521 43.0502 6.33665V11H41.5637ZM48.7154 11L46.4682 3.36364H48.0044L49.5009 8.97159H49.5755L51.0769 3.36364H52.6131L54.1046 8.94673H54.1792L55.6657 3.36364H57.2019L54.9597 11H53.4434L51.8922 5.48651H51.7779L50.2267 11H48.7154ZM60.8349 11.169C60.351 11.169 59.9135 11.0795 59.5224 10.9006C59.1313 10.7183 58.8214 10.4548 58.5927 10.1101C58.3673 9.76539 58.2546 9.3428 58.2546 8.84233C58.2546 8.41146 58.3375 8.05682 58.5032 7.77841C58.6689 7.5 58.8926 7.27959 59.1744 7.11719C59.4561 6.95478 59.771 6.83215 60.119 6.74929C60.467 6.66643 60.8216 6.60346 61.1829 6.56037C61.6403 6.50734 62.0115 6.46425 62.2965 6.43111C62.5816 6.39465 62.7887 6.33665 62.918 6.2571C63.0472 6.17756 63.1119 6.0483 63.1119 5.86932V5.83452C63.1119 5.40033 62.9892 5.06392 62.744 4.82528C62.502 4.58665 62.1407 4.46733 61.6602 4.46733C61.1597 4.46733 60.7653 4.57836 60.4769 4.80043C60.1919 5.01918 59.9947 5.26278 59.8853 5.53125L58.4883 5.21307C58.654 4.74905 58.896 4.37453 59.2141 4.08949C59.5356 3.80114 59.9052 3.59233 60.3228 3.46307C60.7404 3.33049 61.1796 3.2642 61.6403 3.2642C61.9452 3.2642 62.2683 3.30066 62.6097 3.37358C62.9544 3.44318 63.2759 3.57244 63.5742 3.76136C63.8758 3.95028 64.1228 4.22041 64.315 4.57173C64.5072 4.91974 64.6033 5.37216 64.6033 5.92898V11H63.1516V9.95597H63.092C62.9959 10.1482 62.8517 10.3371 62.6594 10.5227C62.4672 10.7083 62.2203 10.8625 61.9187 10.9851C61.6171 11.1077 61.2558 11.169 60.8349 11.169ZM61.158 9.97585C61.569 9.97585 61.9203 9.89465 62.212 9.73224C62.507 9.56984 62.7307 9.35772 62.8832 9.09588C63.0389 8.83073 63.1168 8.54735 63.1168 8.24574V7.26136C63.0638 7.31439 62.9611 7.36411 62.8086 7.41051C62.6594 7.4536 62.4888 7.49171 62.2965 7.52486C62.1043 7.55469 61.917 7.58286 61.7347 7.60938C61.5524 7.63258 61.4 7.65246 61.2773 7.66903C60.989 7.70549 60.7255 7.76681 60.4869 7.85298C60.2515 7.93916 60.0626 8.06345 59.9201 8.22585C59.7809 8.38494 59.7113 8.59706 59.7113 8.86222C59.7113 9.23011 59.8472 9.50852 60.119 9.69744C60.3907 9.88305 60.7371 9.97585 61.158 9.97585ZM66.5833 11V3.36364H68.0201V4.5767H68.0996C68.2388 4.16572 68.4841 3.84257 68.8354 3.60724C69.19 3.36861 69.5911 3.24929 70.0385 3.24929C70.1313 3.24929 70.2407 3.2526 70.3667 3.25923C70.4959 3.26586 70.597 3.27415 70.6699 3.28409V4.70597C70.6103 4.68939 70.5042 4.67116 70.3517 4.65128C70.1993 4.62808 70.0468 4.61648 69.8944 4.61648C69.543 4.61648 69.2298 4.69105 68.9547 4.8402C68.6829 4.98603 68.4675 5.18987 68.3084 5.4517C68.1493 5.71023 68.0698 6.00521 68.0698 6.33665V11H66.5833ZM74.5415 11.1491C73.9251 11.1491 73.3749 10.9917 72.891 10.6768C72.4104 10.3587 72.0326 9.90625 71.7575 9.3196C71.4857 8.72964 71.3498 8.02202 71.3498 7.19673C71.3498 6.37145 71.4873 5.66548 71.7624 5.07884C72.0408 4.49219 72.422 4.04309 72.9059 3.73153C73.3898 3.41998 73.9383 3.2642 74.5515 3.2642C75.0254 3.2642 75.4066 3.34375 75.695 3.50284C75.9866 3.65862 76.212 3.84091 76.3711 4.04972C76.5335 4.25852 76.6594 4.44247 76.7489 4.60156H76.8384V0.818182H78.3249V11H76.8732V9.81179H76.7489C76.6594 9.9742 76.5302 10.1598 76.3612 10.3686C76.1954 10.5774 75.9667 10.7597 75.6751 10.9155C75.3834 11.0713 75.0056 11.1491 74.5415 11.1491ZM74.8697 9.88139C75.2972 9.88139 75.6585 9.7687 75.9535 9.54332C76.2518 9.31463 76.4772 8.99811 76.6296 8.59375C76.7854 8.18939 76.8633 7.71875 76.8633 7.18182C76.8633 6.65151 76.7871 6.1875 76.6346 5.78977C76.4821 5.39205 76.2584 5.08215 75.9634 4.86009C75.6684 4.63802 75.3039 4.52699 74.8697 4.52699C74.4222 4.52699 74.0494 4.64299 73.7511 4.875C73.4528 5.10701 73.2274 5.42353 73.0749 5.82457C72.9258 6.22562 72.8512 6.67803 72.8512 7.18182C72.8512 7.69223 72.9274 8.15128 73.0799 8.55895C73.2324 8.96662 73.4577 9.28977 73.756 9.52841C74.0576 9.76373 74.4289 9.88139 74.8697 9.88139Z" fill="black"/>
</svg>
