<svg width="61" height="11" viewBox="0 0 61 11" fill="none" xmlns="http://www.w3.org/2000/svg">
<path d="M3.22159 8.16903C2.73769 8.16903 2.30019 8.07955 1.90909 7.90057C1.51799 7.71828 1.2081 7.45478 0.979403 7.11009C0.754025 6.76539 0.641335 6.3428 0.641335 5.84233C0.641335 5.41146 0.724195 5.05682 0.889915 4.77841C1.05563 4.5 1.27936 4.27959 1.56108 4.11719C1.8428 3.95478 2.15767 3.83215 2.50568 3.74929C2.85369 3.66643 3.20833 3.60346 3.5696 3.56037C4.02699 3.50734 4.3982 3.46425 4.68324 3.43111C4.96828 3.39465 5.17543 3.33665 5.30469 3.2571C5.43395 3.17756 5.49858 3.0483 5.49858 2.86932V2.83452C5.49858 2.40033 5.37595 2.06392 5.13068 1.82528C4.88873 1.58665 4.52746 1.46733 4.04688 1.46733C3.5464 1.46733 3.15199 1.57836 2.86364 1.80043C2.5786 2.01918 2.38139 2.26278 2.27202 2.53125L0.875 2.21307C1.04072 1.74905 1.28267 1.37453 1.60085 1.08949C1.92235 0.801136 2.2919 0.592329 2.70952 0.463068C3.12713 0.330492 3.56629 0.264205 4.02699 0.264205C4.33191 0.264205 4.65507 0.300663 4.99645 0.37358C5.34115 0.443182 5.66264 0.572443 5.96094 0.761363C6.26255 0.950284 6.50947 1.22041 6.7017 1.57173C6.89394 1.91974 6.99006 2.37216 6.99006 2.92898V8H5.53835V6.95597H5.47869C5.38258 7.1482 5.2384 7.33712 5.04616 7.52273C4.85393 7.70833 4.60701 7.86245 4.3054 7.98509C4.00379 8.10772 3.64252 8.16903 3.22159 8.16903ZM3.54474 6.97585C3.95573 6.97585 4.30706 6.89465 4.59872 6.73224C4.8937 6.56984 5.11742 6.35772 5.26989 6.09588C5.42566 5.83073 5.50355 5.54735 5.50355 5.24574V4.26136C5.45052 4.31439 5.34777 4.36411 5.19531 4.41051C5.04616 4.4536 4.87547 4.49171 4.68324 4.52486C4.491 4.55469 4.30374 4.58286 4.12145 4.60938C3.93916 4.63258 3.7867 4.65246 3.66406 4.66903C3.37571 4.70549 3.11222 4.76681 2.87358 4.85298C2.63826 4.93916 2.44934 5.06345 2.30682 5.22585C2.16761 5.38494 2.09801 5.59706 2.09801 5.86222C2.09801 6.23011 2.2339 6.50852 2.50568 6.69744C2.77746 6.88305 3.12382 6.97585 3.54474 6.97585ZM8.96999 8V0.363636H10.4068V1.5767H10.4863C10.6255 1.16572 10.8708 0.842566 11.2221 0.607244C11.5768 0.368608 11.9778 0.249289 12.4252 0.249289C12.5181 0.249289 12.6274 0.252604 12.7534 0.259233C12.8826 0.265861 12.9837 0.274147 13.0566 0.284091V1.70597C12.997 1.68939 12.8909 1.67116 12.7385 1.65128C12.586 1.62808 12.4335 1.61648 12.2811 1.61648C11.9297 1.61648 11.6165 1.69105 11.3414 1.8402C11.0697 1.98603 10.8542 2.18987 10.6951 2.4517C10.536 2.71023 10.4565 3.00521 10.4565 3.33665V8H8.96999ZM14.343 8V0.363636H15.7798V1.5767H15.8594C15.9986 1.16572 16.2438 0.842566 16.5952 0.607244C16.9498 0.368608 17.3509 0.249289 17.7983 0.249289C17.8911 0.249289 18.0005 0.252604 18.1264 0.259233C18.2557 0.265861 18.3568 0.274147 18.4297 0.284091V1.70597C18.37 1.68939 18.264 1.67116 18.1115 1.65128C17.959 1.62808 17.8066 1.61648 17.6541 1.61648C17.3028 1.61648 16.9896 1.69105 16.7145 1.8402C16.4427 1.98603 16.2273 2.18987 16.0682 2.4517C15.9091 2.71023 15.8295 3.00521 15.8295 3.33665V8H14.343ZM22.6593 8.15412C21.9434 8.15412 21.3186 7.99006 20.785 7.66193C20.2514 7.33381 19.8371 6.87476 19.5421 6.2848C19.2471 5.69484 19.0996 5.00544 19.0996 4.21662C19.0996 3.42448 19.2471 2.73177 19.5421 2.13849C19.8371 1.54522 20.2514 1.08452 20.785 0.756392C21.3186 0.428267 21.9434 0.264205 22.6593 0.264205C23.3752 0.264205 23.9999 0.428267 24.5336 0.756392C25.0672 1.08452 25.4815 1.54522 25.7765 2.13849C26.0714 2.73177 26.2189 3.42448 26.2189 4.21662C26.2189 5.00544 26.0714 5.69484 25.7765 6.2848C25.4815 6.87476 25.0672 7.33381 24.5336 7.66193C23.9999 7.99006 23.3752 8.15412 22.6593 8.15412ZM22.6642 6.90625C23.1283 6.90625 23.5127 6.78362 23.8176 6.53835C24.1226 6.29309 24.348 5.96662 24.4938 5.55895C24.6429 5.15128 24.7175 4.70218 24.7175 4.21165C24.7175 3.72443 24.6429 3.27699 24.4938 2.86932C24.348 2.45833 24.1226 2.12855 23.8176 1.87997C23.5127 1.63139 23.1283 1.5071 22.6642 1.5071C22.1969 1.5071 21.8091 1.63139 21.5009 1.87997C21.196 2.12855 20.9689 2.45833 20.8198 2.86932C20.6739 3.27699 20.601 3.72443 20.601 4.21165C20.601 4.70218 20.6739 5.15128 20.8198 5.55895C20.9689 5.96662 21.196 6.29309 21.5009 6.53835C21.8091 6.78362 22.1969 6.90625 22.6642 6.90625ZM29.3013 8L27.0542 0.363636H28.5904L30.0868 5.97159H30.1614L31.6628 0.363636H33.199L34.6905 5.94673H34.7651L36.2516 0.363636H37.7878L35.5456 8H34.0293L32.4782 2.48651H32.3638L30.8127 8H29.3013ZM43.6978 3.05327V4.34091H39.1836V3.05327H43.6978ZM50.5163 4.8331V0.363636H52.0078V8H50.5462V6.67756H50.4666C50.291 7.08523 50.0092 7.42495 49.6214 7.69673C49.237 7.9652 48.758 8.09943 48.1847 8.09943C47.6941 8.09943 47.2599 7.99171 46.8821 7.77628C46.5076 7.55753 46.2126 7.23438 45.9972 6.80682C45.785 6.37926 45.679 5.85062 45.679 5.22088V0.363636H47.1655V5.0419C47.1655 5.56226 47.3097 5.97656 47.598 6.2848C47.8864 6.59304 48.2609 6.74716 48.7216 6.74716C49 6.74716 49.2768 6.67756 49.5518 6.53835C49.8303 6.39915 50.0606 6.18868 50.2429 5.90696C50.4285 5.62524 50.5196 5.26728 50.5163 4.8331ZM54.0051 10.8636V0.363636H55.4569V1.60156H55.5811C55.6673 1.44247 55.7916 1.25852 55.954 1.04972C56.1164 0.840909 56.3418 0.658617 56.6301 0.502841C56.9185 0.34375 57.2997 0.264205 57.7736 0.264205C58.3901 0.264205 58.9403 0.419981 59.4242 0.731534C59.9081 1.04309 60.2876 1.49219 60.5627 2.07884C60.8411 2.66548 60.9803 3.37145 60.9803 4.19673C60.9803 5.02202 60.8427 5.72964 60.5676 6.3196C60.2926 6.90625 59.9147 7.35866 59.4341 7.67685C58.9535 7.99171 58.405 8.14915 57.7885 8.14915C57.3245 8.14915 56.945 8.07126 56.65 7.91548C56.3584 7.75971 56.1297 7.57741 55.964 7.36861C55.7982 7.1598 55.6706 6.9742 55.5811 6.81179H55.4917V10.8636H54.0051ZM55.4618 4.18182C55.4618 4.71875 55.5397 5.18939 55.6955 5.59375C55.8513 5.99811 56.0766 6.31463 56.3716 6.54332C56.6666 6.7687 57.0279 6.88139 57.4554 6.88139C57.8996 6.88139 58.2708 6.76373 58.5691 6.52841C58.8674 6.28977 59.0927 5.96662 59.2452 5.55895C59.401 5.15128 59.4789 4.69223 59.4789 4.18182C59.4789 3.67803 59.4026 3.22562 59.2502 2.82457C59.101 2.42353 58.8757 2.10701 58.574 1.875C58.2757 1.64299 57.9029 1.52699 57.4554 1.52699C57.0246 1.52699 56.66 1.63802 56.3617 1.86009C56.0667 2.08215 55.843 2.39205 55.6905 2.78977C55.5381 3.1875 55.4618 3.65151 55.4618 4.18182Z" fill="black"/>
</svg>
