<svg width="94" height="12" viewBox="0 0 94 12" fill="none" xmlns="http://www.w3.org/2000/svg">
<path d="M-0.000710189 11V3.36364H1.43608V4.5767H1.51562C1.65483 4.16572 1.90009 3.84257 2.25142 3.60724C2.60606 3.36861 3.0071 3.24929 3.45455 3.24929C3.54735 3.24929 3.65672 3.2526 3.78267 3.25923C3.91193 3.26586 4.01302 3.27415 4.08594 3.28409V4.70597C4.02628 4.68939 3.92022 4.67116 3.76776 4.65128C3.61529 4.62808 3.46283 4.61648 3.31037 4.61648C2.95904 4.61648 2.64583 4.69105 2.37074 4.8402C2.09896 4.98603 1.88352 5.18987 1.72443 5.4517C1.56534 5.71023 1.4858 6.00521 1.4858 6.33665V11H-0.000710189ZM8.39009 11.1541C7.63772 11.1541 6.98976 10.9934 6.4462 10.6719C5.90595 10.3471 5.48834 9.89134 5.19336 9.30469C4.90169 8.71473 4.75586 8.02367 4.75586 7.23153C4.75586 6.44934 4.90169 5.75994 5.19336 5.16335C5.48834 4.56676 5.89933 4.10109 6.42631 3.76633C6.95662 3.43158 7.57641 3.2642 8.28569 3.2642C8.71656 3.2642 9.13417 3.33546 9.53853 3.47798C9.94289 3.6205 10.3058 3.84422 10.6273 4.14915C10.9488 4.45407 11.2024 4.85014 11.388 5.33736C11.5736 5.82126 11.6664 6.40956 11.6664 7.10227V7.62926H5.59606V6.51562H10.2097C10.2097 6.12453 10.1301 5.77817 9.97106 5.47656C9.81197 5.17164 9.58825 4.93134 9.29989 4.75568C9.01486 4.58002 8.6801 4.49219 8.29563 4.49219C7.87802 4.49219 7.51344 4.59493 7.20188 4.80043C6.89364 5.0026 6.65501 5.26776 6.48597 5.59588C6.32025 5.92069 6.23739 6.27367 6.23739 6.65483V7.52486C6.23739 8.03527 6.32688 8.46946 6.50586 8.82741C6.68815 9.18537 6.9417 9.45881 7.26651 9.64773C7.59132 9.83333 7.97082 9.92614 8.40501 9.92614C8.68673 9.92614 8.9436 9.88636 9.1756 9.80682C9.40761 9.72396 9.60813 9.60133 9.77717 9.43892C9.9462 9.27652 10.0755 9.07599 10.165 8.83736L11.5719 9.09091C11.4592 9.50521 11.257 9.86813 10.9654 10.1797C10.677 10.4879 10.3141 10.7282 9.8766 10.9006C9.44241 11.0696 8.94691 11.1541 8.39009 11.1541ZM16.9499 3.36364V4.55682H12.6346V3.36364H16.9499ZM13.8178 11V2.47869C13.8178 2.00142 13.9222 1.60535 14.131 1.29048C14.3398 0.972301 14.6166 0.735322 14.9613 0.579545C15.306 0.420454 15.6805 0.340908 16.0849 0.340908C16.3832 0.340908 16.6384 0.365767 16.8505 0.415483C17.0626 0.461884 17.2201 0.504971 17.3228 0.544744L16.9748 1.74787C16.9052 1.72798 16.8157 1.70478 16.7063 1.67827C16.5969 1.64844 16.4644 1.63352 16.3086 1.63352C15.9473 1.63352 15.6888 1.72301 15.533 1.90199C15.3806 2.08097 15.3043 2.33949 15.3043 2.67756V11H13.8178ZM18.4837 11V3.36364H19.9205V4.5767H20C20.1392 4.16572 20.3845 3.84257 20.7358 3.60724C21.0904 3.36861 21.4915 3.24929 21.9389 3.24929C22.0317 3.24929 22.1411 3.2526 22.267 3.25923C22.3963 3.26586 22.4974 3.27415 22.5703 3.28409V4.70597C22.5107 4.68939 22.4046 4.67116 22.2521 4.65128C22.0997 4.62808 21.9472 4.61648 21.7947 4.61648C21.4434 4.61648 21.1302 4.69105 20.8551 4.8402C20.5833 4.98603 20.3679 5.18987 20.2088 5.4517C20.0497 5.71023 19.9702 6.00521 19.9702 6.33665V11H18.4837ZM26.8745 11.1541C26.1221 11.1541 25.4741 10.9934 24.9306 10.6719C24.3903 10.3471 23.9727 9.89134 23.6777 9.30469C23.3861 8.71473 23.2402 8.02367 23.2402 7.23153C23.2402 6.44934 23.3861 5.75994 23.6777 5.16335C23.9727 4.56676 24.3837 4.10109 24.9107 3.76633C25.441 3.43158 26.0608 3.2642 26.7701 3.2642C27.2009 3.2642 27.6185 3.33546 28.0229 3.47798C28.4273 3.6205 28.7902 3.84422 29.1117 4.14915C29.4332 4.45407 29.6867 4.85014 29.8723 5.33736C30.0579 5.82126 30.1507 6.40956 30.1507 7.10227V7.62926H24.0804V6.51562H28.6941C28.6941 6.12453 28.6145 5.77817 28.4554 5.47656C28.2963 5.17164 28.0726 4.93134 27.7843 4.75568C27.4992 4.58002 27.1645 4.49219 26.78 4.49219C26.3624 4.49219 25.9978 4.59493 25.6863 4.80043C25.378 5.0026 25.1394 5.26776 24.9703 5.59588C24.8046 5.92069 24.7218 6.27367 24.7218 6.65483V7.52486C24.7218 8.03527 24.8113 8.46946 24.9902 8.82741C25.1725 9.18537 25.4261 9.45881 25.7509 9.64773C26.0757 9.83333 26.4552 9.92614 26.8894 9.92614C27.1711 9.92614 27.428 9.88636 27.66 9.80682C27.892 9.72396 28.0925 9.60133 28.2615 9.43892C28.4306 9.27652 28.5598 9.07599 28.6493 8.83736L30.0563 9.09091C29.9436 9.50521 29.7414 9.86813 29.4498 10.1797C29.1614 10.4879 28.7985 10.7282 28.361 10.9006C27.9268 11.0696 27.4313 11.1541 26.8745 11.1541ZM37.5224 5.22798L36.1751 5.46662C36.1187 5.29427 36.0292 5.13021 35.9066 4.97443C35.7873 4.81865 35.6249 4.69105 35.4194 4.59162C35.2139 4.49219 34.957 4.44247 34.6488 4.44247C34.2279 4.44247 33.8765 4.53693 33.5948 4.72585C33.3131 4.91146 33.1722 5.15175 33.1722 5.44673C33.1722 5.70194 33.2667 5.90743 33.4556 6.06321C33.6445 6.21899 33.9495 6.34659 34.3704 6.44602L35.5835 6.72443C36.2861 6.88684 36.8098 7.13707 37.1545 7.47514C37.4992 7.81321 37.6715 8.25237 37.6715 8.79261C37.6715 9.25 37.5389 9.65767 37.2738 10.0156C37.012 10.3703 36.6457 10.6487 36.1751 10.8509C35.7077 11.053 35.1658 11.1541 34.5494 11.1541C33.6942 11.1541 32.9966 10.9718 32.4563 10.6072C31.9161 10.2393 31.5846 9.71733 31.462 9.04119L32.8988 8.82244C32.9883 9.19697 33.1722 9.48035 33.4506 9.67259C33.729 9.86151 34.092 9.95597 34.5394 9.95597C35.0266 9.95597 35.4161 9.85488 35.7077 9.6527C35.9994 9.44721 36.1452 9.19697 36.1452 8.90199C36.1452 8.66335 36.0558 8.46283 35.8768 8.30043C35.7011 8.13802 35.431 8.01539 35.0664 7.93253L33.7738 7.64915C33.0612 7.48674 32.5342 7.22822 32.1928 6.87358C31.8548 6.51894 31.6857 6.06984 31.6857 5.52628C31.6857 5.07552 31.8117 4.68111 32.0636 4.34304C32.3155 4.00497 32.6635 3.74148 33.1076 3.55256C33.5517 3.36032 34.0605 3.2642 34.6339 3.2642C35.4592 3.2642 36.1088 3.44318 36.5827 3.80114C37.0567 4.15578 37.3699 4.63139 37.5224 5.22798ZM40.7924 6.46591V11H39.3059V0.818182H40.7725V4.60653H40.867C41.046 4.19555 41.3194 3.86908 41.6873 3.62713C42.0552 3.38518 42.5358 3.2642 43.1291 3.2642C43.6528 3.2642 44.1101 3.37192 44.5012 3.58736C44.8957 3.80279 45.2006 4.12429 45.416 4.55185C45.6348 4.97609 45.7441 5.50639 45.7441 6.14276V11H44.2576V6.32173C44.2576 5.7616 44.1135 5.32741 43.8251 5.01918C43.5368 4.70762 43.1357 4.55185 42.622 4.55185C42.2707 4.55185 41.9558 4.62642 41.6774 4.77557C41.4023 4.92472 41.1852 5.14347 41.0261 5.43182C40.8703 5.71686 40.7924 6.06155 40.7924 6.46591ZM52.2271 6.05327V7.34091H47.7129V6.05327H52.2271ZM57.4249 11.1541C56.6858 11.1541 56.0494 10.9867 55.5158 10.652C54.9855 10.3139 54.5778 9.84825 54.2928 9.25497C54.0078 8.66169 53.8652 7.98224 53.8652 7.21662C53.8652 6.44105 54.0111 5.75663 54.3027 5.16335C54.5944 4.56676 55.0054 4.10109 55.5357 3.76633C56.066 3.43158 56.6908 3.2642 57.41 3.2642C57.99 3.2642 58.507 3.37192 58.9611 3.58736C59.4152 3.79948 59.7814 4.09777 60.0598 4.48224C60.3416 4.86671 60.5089 5.31581 60.562 5.82955H59.1152C59.0357 5.47159 58.8534 5.16335 58.5684 4.90483C58.2866 4.64631 57.9088 4.51705 57.4348 4.51705C57.0205 4.51705 56.6576 4.62642 56.3461 4.84517C56.0378 5.06061 55.7975 5.36884 55.6252 5.76989C55.4528 6.16761 55.3667 6.63826 55.3667 7.18182C55.3667 7.73864 55.4512 8.21922 55.6202 8.62358C55.7892 9.02794 56.0279 9.34115 56.3361 9.56321C56.6477 9.78527 57.0139 9.89631 57.4348 9.89631C57.7166 9.89631 57.9718 9.84493 58.2005 9.74219C58.4325 9.63613 58.6264 9.48532 58.7821 9.28977C58.9412 9.09422 59.0523 8.8589 59.1152 8.58381H60.562C60.5089 9.07765 60.3482 9.51847 60.0797 9.90625C59.8113 10.294 59.4516 10.599 59.0009 10.821C58.5534 11.0431 58.0281 11.1541 57.4249 11.1541ZM63.8072 11L61.56 3.36364H63.0962L64.5927 8.97159H64.6673L66.1687 3.36364H67.7049L69.1964 8.94673H69.271L70.7575 3.36364H72.2937L70.0515 11H68.5352L66.984 5.48651H66.8697L65.3185 11H63.8072ZM78.2037 6.05327V7.34091H73.6895V6.05327H78.2037ZM83.7097 11.169C82.9242 11.1657 82.253 10.9586 81.6962 10.5476C81.1394 10.1366 80.7135 9.53835 80.4185 8.75284C80.1235 7.96733 79.976 7.02107 79.976 5.91406C79.976 4.81037 80.1235 3.86742 80.4185 3.08523C80.7168 2.30303 81.1444 1.70644 81.7012 1.29545C82.2613 0.884469 82.9308 0.678977 83.7097 0.678977C84.4886 0.678977 85.1564 0.886126 85.7132 1.30043C86.2701 1.71141 86.696 2.308 86.9909 3.0902C87.2892 3.86908 87.4384 4.81037 87.4384 5.91406C87.4384 7.02438 87.2909 7.9723 86.9959 8.75781C86.7009 9.54001 86.275 10.1383 85.7182 10.5526C85.1614 10.9635 84.4919 11.169 83.7097 11.169ZM83.7097 9.84162C84.3991 9.84162 84.9377 9.50521 85.3255 8.83239C85.7166 8.15956 85.9121 7.18679 85.9121 5.91406C85.9121 5.06889 85.8226 4.35464 85.6436 3.77131C85.468 3.18466 85.2144 2.74053 84.883 2.43892C84.5549 2.134 84.1638 1.98153 83.7097 1.98153C83.0236 1.98153 82.485 2.3196 82.0939 2.99574C81.7028 3.67187 81.5056 4.64465 81.5023 5.91406C81.5023 6.76255 81.5901 7.48011 81.7658 8.06676C81.9448 8.65009 82.1983 9.09257 82.5265 9.39418C82.8546 9.69247 83.249 9.84162 83.7097 9.84162ZM93.065 0.818182V11H91.5238V2.35938H91.4641L89.0281 3.95028V2.47869L91.5685 0.818182H93.065Z" fill="black"/>
</svg>
