<svg width="104" height="14" viewBox="0 0 104 14" fill="none" xmlns="http://www.w3.org/2000/svg">
<path d="M3.22159 11.169C2.73769 11.169 2.30019 11.0795 1.90909 10.9006C1.51799 10.7183 1.2081 10.4548 0.979403 10.1101C0.754025 9.76539 0.641335 9.3428 0.641335 8.84233C0.641335 8.41146 0.724195 8.05682 0.889915 7.77841C1.05563 7.5 1.27936 7.27959 1.56108 7.11719C1.8428 6.95478 2.15767 6.83215 2.50568 6.74929C2.85369 6.66643 3.20833 6.60346 3.5696 6.56037C4.02699 6.50734 4.3982 6.46425 4.68324 6.43111C4.96828 6.39465 5.17543 6.33665 5.30469 6.2571C5.43395 6.17756 5.49858 6.0483 5.49858 5.86932V5.83452C5.49858 5.40033 5.37595 5.06392 5.13068 4.82528C4.88873 4.58665 4.52746 4.46733 4.04688 4.46733C3.5464 4.46733 3.15199 4.57836 2.86364 4.80043C2.5786 5.01918 2.38139 5.26278 2.27202 5.53125L0.875 5.21307C1.04072 4.74905 1.28267 4.37453 1.60085 4.08949C1.92235 3.80114 2.2919 3.59233 2.70952 3.46307C3.12713 3.33049 3.56629 3.2642 4.02699 3.2642C4.33191 3.2642 4.65507 3.30066 4.99645 3.37358C5.34115 3.44318 5.66264 3.57244 5.96094 3.76136C6.26255 3.95028 6.50947 4.22041 6.7017 4.57173C6.89394 4.91974 6.99006 5.37216 6.99006 5.92898V11H5.53835V9.95597H5.47869C5.38258 10.1482 5.2384 10.3371 5.04616 10.5227C4.85393 10.7083 4.60701 10.8625 4.3054 10.9851C4.00379 11.1077 3.64252 11.169 3.22159 11.169ZM3.54474 9.97585C3.95573 9.97585 4.30706 9.89465 4.59872 9.73224C4.8937 9.56984 5.11742 9.35772 5.26989 9.09588C5.42566 8.83073 5.50355 8.54735 5.50355 8.24574V7.26136C5.45052 7.31439 5.34777 7.36411 5.19531 7.41051C5.04616 7.4536 4.87547 7.49171 4.68324 7.52486C4.491 7.55469 4.30374 7.58286 4.12145 7.60938C3.93916 7.63258 3.7867 7.65246 3.66406 7.66903C3.37571 7.70549 3.11222 7.76681 2.87358 7.85298C2.63826 7.93916 2.44934 8.06345 2.30682 8.22585C2.16761 8.38494 2.09801 8.59706 2.09801 8.86222C2.09801 9.23011 2.2339 9.50852 2.50568 9.69744C2.77746 9.88305 3.12382 9.97585 3.54474 9.97585ZM8.96999 11V3.36364H10.4068V4.5767H10.4863C10.6255 4.16572 10.8708 3.84257 11.2221 3.60724C11.5768 3.36861 11.9778 3.24929 12.4252 3.24929C12.5181 3.24929 12.6274 3.2526 12.7534 3.25923C12.8826 3.26586 12.9837 3.27415 13.0566 3.28409V4.70597C12.997 4.68939 12.8909 4.67116 12.7385 4.65128C12.586 4.62808 12.4335 4.61648 12.2811 4.61648C11.9297 4.61648 11.6165 4.69105 11.3414 4.8402C11.0697 4.98603 10.8542 5.18987 10.6951 5.4517C10.536 5.71023 10.4565 6.00521 10.4565 6.33665V11H8.96999ZM14.343 11V3.36364H15.7798V4.5767H15.8594C15.9986 4.16572 16.2438 3.84257 16.5952 3.60724C16.9498 3.36861 17.3509 3.24929 17.7983 3.24929C17.8911 3.24929 18.0005 3.2526 18.1264 3.25923C18.2557 3.26586 18.3568 3.27415 18.4297 3.28409V4.70597C18.37 4.68939 18.264 4.67116 18.1115 4.65128C17.959 4.62808 17.8066 4.61648 17.6541 4.61648C17.3028 4.61648 16.9896 4.69105 16.7145 4.8402C16.4427 4.98603 16.2273 5.18987 16.0682 5.4517C15.9091 5.71023 15.8295 6.00521 15.8295 6.33665V11H14.343ZM22.6593 11.1541C21.9434 11.1541 21.3186 10.9901 20.785 10.6619C20.2514 10.3338 19.8371 9.87476 19.5421 9.2848C19.2471 8.69484 19.0996 8.00544 19.0996 7.21662C19.0996 6.42448 19.2471 5.73177 19.5421 5.13849C19.8371 4.54522 20.2514 4.08452 20.785 3.75639C21.3186 3.42827 21.9434 3.2642 22.6593 3.2642C23.3752 3.2642 23.9999 3.42827 24.5336 3.75639C25.0672 4.08452 25.4815 4.54522 25.7765 5.13849C26.0714 5.73177 26.2189 6.42448 26.2189 7.21662C26.2189 8.00544 26.0714 8.69484 25.7765 9.2848C25.4815 9.87476 25.0672 10.3338 24.5336 10.6619C23.9999 10.9901 23.3752 11.1541 22.6593 11.1541ZM22.6642 9.90625C23.1283 9.90625 23.5127 9.78362 23.8176 9.53835C24.1226 9.29309 24.348 8.96662 24.4938 8.55895C24.6429 8.15128 24.7175 7.70218 24.7175 7.21165C24.7175 6.72443 24.6429 6.27699 24.4938 5.86932C24.348 5.45833 24.1226 5.12855 23.8176 4.87997C23.5127 4.63139 23.1283 4.5071 22.6642 4.5071C22.1969 4.5071 21.8091 4.63139 21.5009 4.87997C21.196 5.12855 20.9689 5.45833 20.8198 5.86932C20.6739 6.27699 20.601 6.72443 20.601 7.21165C20.601 7.70218 20.6739 8.15128 20.8198 8.55895C20.9689 8.96662 21.196 9.29309 21.5009 9.53835C21.8091 9.78362 22.1969 9.90625 22.6642 9.90625ZM29.3013 11L27.0542 3.36364H28.5904L30.0868 8.97159H30.1614L31.6628 3.36364H33.199L34.6905 8.94673H34.7651L36.2516 3.36364H37.7878L35.5456 11H34.0293L32.4782 5.48651H32.3638L30.8127 11H29.3013ZM43.6978 6.05327V7.34091H39.1836V6.05327H43.6978ZM45.7983 11V0.818182H47.2848V4.60156H47.3743C47.4605 4.44247 47.5848 4.25852 47.7472 4.04972C47.9096 3.84091 48.1349 3.65862 48.4233 3.50284C48.7116 3.34375 49.0928 3.2642 49.5668 3.2642C50.1832 3.2642 50.7334 3.41998 51.2173 3.73153C51.7012 4.04309 52.0807 4.49219 52.3558 5.07884C52.6342 5.66548 52.7734 6.37145 52.7734 7.19673C52.7734 8.02202 52.6359 8.72964 52.3608 9.3196C52.0857 9.90625 51.7079 10.3587 51.2273 10.6768C50.7467 10.9917 50.1982 11.1491 49.5817 11.1491C49.1177 11.1491 48.7382 11.0713 48.4432 10.9155C48.1515 10.7597 47.9228 10.5774 47.7571 10.3686C47.5914 10.1598 47.4638 9.9742 47.3743 9.81179H47.25V11H45.7983ZM47.255 7.18182C47.255 7.71875 47.3329 8.18939 47.4886 8.59375C47.6444 8.99811 47.8698 9.31463 48.1648 9.54332C48.4598 9.7687 48.821 9.88139 49.2486 9.88139C49.6927 9.88139 50.0639 9.76373 50.3622 9.52841C50.6605 9.28977 50.8859 8.96662 51.0384 8.55895C51.1941 8.15128 51.272 7.69223 51.272 7.18182C51.272 6.67803 51.1958 6.22562 51.0433 5.82457C50.8942 5.42353 50.6688 5.10701 50.3672 4.875C50.0689 4.64299 49.696 4.52699 49.2486 4.52699C48.8177 4.52699 48.4531 4.63802 48.1548 4.86009C47.8598 5.08215 47.6361 5.39205 47.4837 5.78977C47.3312 6.1875 47.255 6.65151 47.255 7.18182ZM55.9292 0.818182V11H54.4426V0.818182H55.9292ZM61.1456 11.1541C60.4297 11.1541 59.8049 10.9901 59.2713 10.6619C58.7377 10.3338 58.3234 9.87476 58.0284 9.2848C57.7334 8.69484 57.5859 8.00544 57.5859 7.21662C57.5859 6.42448 57.7334 5.73177 58.0284 5.13849C58.3234 4.54522 58.7377 4.08452 59.2713 3.75639C59.8049 3.42827 60.4297 3.2642 61.1456 3.2642C61.8615 3.2642 62.4863 3.42827 63.0199 3.75639C63.5535 4.08452 63.9678 4.54522 64.2628 5.13849C64.5578 5.73177 64.7053 6.42448 64.7053 7.21662C64.7053 8.00544 64.5578 8.69484 64.2628 9.2848C63.9678 9.87476 63.5535 10.3338 63.0199 10.6619C62.4863 10.9901 61.8615 11.1541 61.1456 11.1541ZM61.1506 9.90625C61.6146 9.90625 61.9991 9.78362 62.304 9.53835C62.6089 9.29309 62.8343 8.96662 62.9801 8.55895C63.1293 8.15128 63.2038 7.70218 63.2038 7.21165C63.2038 6.72443 63.1293 6.27699 62.9801 5.86932C62.8343 5.45833 62.6089 5.12855 62.304 4.87997C61.9991 4.63139 61.6146 4.5071 61.1506 4.5071C60.6832 4.5071 60.2955 4.63139 59.9872 4.87997C59.6823 5.12855 59.4553 5.45833 59.3061 5.86932C59.1603 6.27699 59.0874 6.72443 59.0874 7.21165C59.0874 7.70218 59.1603 8.15128 59.3061 8.55895C59.4553 8.96662 59.6823 9.29309 59.9872 9.53835C60.2955 9.78362 60.6832 9.90625 61.1506 9.90625ZM69.5811 11.1541C68.842 11.1541 68.2057 10.9867 67.6721 10.652C67.1417 10.3139 66.7341 9.84825 66.449 9.25497C66.164 8.66169 66.0215 7.98224 66.0215 7.21662C66.0215 6.44105 66.1673 5.75663 66.459 5.16335C66.7507 4.56676 67.1616 4.10109 67.6919 3.76633C68.2222 3.43158 68.847 3.2642 69.5662 3.2642C70.1462 3.2642 70.6633 3.37192 71.1174 3.58736C71.5714 3.79948 71.9377 4.09777 72.2161 4.48224C72.4978 4.86671 72.6652 5.31581 72.7182 5.82955H71.2715C71.1919 5.47159 71.0096 5.16335 70.7246 4.90483C70.4429 4.64631 70.065 4.51705 69.5911 4.51705C69.1768 4.51705 68.8139 4.62642 68.5023 4.84517C68.1941 5.06061 67.9538 5.36884 67.7814 5.76989C67.6091 6.16761 67.5229 6.63826 67.5229 7.18182C67.5229 7.73864 67.6074 8.21922 67.7765 8.62358C67.9455 9.02794 68.1841 9.34115 68.4924 9.56321C68.8039 9.78527 69.1702 9.89631 69.5911 9.89631C69.8728 9.89631 70.128 9.84493 70.3567 9.74219C70.5887 9.63613 70.7826 9.48532 70.9384 9.28977C71.0975 9.09422 71.2085 8.8589 71.2715 8.58381H72.7182C72.6652 9.07765 72.5044 9.51847 72.236 9.90625C71.9675 10.294 71.6079 10.599 71.1571 10.821C70.7097 11.0431 70.1844 11.1541 69.5811 11.1541ZM75.6751 8.4098L75.6651 6.59517H75.9237L78.9663 3.36364H80.7461L77.2759 7.04261H77.0423L75.6751 8.4098ZM74.3079 11V0.818182H75.7944V11H74.3079ZM79.1303 11L76.396 7.37074L77.4201 6.33168L80.9549 11H79.1303ZM86.0806 6.05327V7.34091H81.5664V6.05327H86.0806ZM92.8991 7.8331V3.36364H94.3906V11H92.929V9.67756H92.8494C92.6738 10.0852 92.392 10.425 92.0043 10.6967C91.6198 10.9652 91.1409 11.0994 90.5675 11.0994C90.0769 11.0994 89.6428 10.9917 89.2649 10.7763C88.8904 10.5575 88.5954 10.2344 88.38 9.80682C88.1679 9.37926 88.0618 8.85062 88.0618 8.22088V3.36364H89.5483V8.0419C89.5483 8.56226 89.6925 8.97656 89.9808 9.2848C90.2692 9.59304 90.6437 9.74716 91.1044 9.74716C91.3828 9.74716 91.6596 9.67756 91.9347 9.53835C92.2131 9.39915 92.4434 9.18868 92.6257 8.90696C92.8113 8.62524 92.9025 8.26728 92.8991 7.8331ZM96.388 13.8636V3.36364H97.8397V4.60156H97.964C98.0501 4.44247 98.1744 4.25852 98.3368 4.04972C98.4992 3.84091 98.7246 3.65862 99.013 3.50284C99.3013 3.34375 99.6825 3.2642 100.156 3.2642C100.773 3.2642 101.323 3.41998 101.807 3.73153C102.291 4.04309 102.67 4.49219 102.945 5.07884C103.224 5.66548 103.363 6.37145 103.363 7.19673C103.363 8.02202 103.226 8.72964 102.95 9.3196C102.675 9.90625 102.298 10.3587 101.817 10.6768C101.336 10.9917 100.788 11.1491 100.171 11.1491C99.7073 11.1491 99.3278 11.0713 99.0328 10.9155C98.7412 10.7597 98.5125 10.5774 98.3468 10.3686C98.181 10.1598 98.0534 9.9742 97.964 9.81179H97.8745V13.8636H96.388ZM97.8446 7.18182C97.8446 7.71875 97.9225 8.18939 98.0783 8.59375C98.2341 8.99811 98.4595 9.31463 98.7544 9.54332C99.0494 9.7687 99.4107 9.88139 99.8382 9.88139C100.282 9.88139 100.654 9.76373 100.952 9.52841C101.25 9.28977 101.476 8.96662 101.628 8.55895C101.784 8.15128 101.862 7.69223 101.862 7.18182C101.862 6.67803 101.785 6.22562 101.633 5.82457C101.484 5.42353 101.258 5.10701 100.957 4.875C100.659 4.64299 100.286 4.52699 99.8382 4.52699C99.4074 4.52699 99.0428 4.63802 98.7445 4.86009C98.4495 5.08215 98.2258 5.39205 98.0733 5.78977C97.9209 6.1875 97.8446 6.65151 97.8446 7.18182Z" fill="black"/>
</svg>
