<svg width="119" height="14" viewBox="0 0 119 14" fill="none" xmlns="http://www.w3.org/2000/svg">
<path d="M3.22159 11.169C2.73769 11.169 2.30019 11.0795 1.90909 10.9006C1.51799 10.7183 1.2081 10.4548 0.979403 10.1101C0.754025 9.76539 0.641335 9.3428 0.641335 8.84233C0.641335 8.41146 0.724195 8.05682 0.889915 7.77841C1.05563 7.5 1.27936 7.27959 1.56108 7.11719C1.8428 6.95478 2.15767 6.83215 2.50568 6.74929C2.85369 6.66643 3.20833 6.60346 3.5696 6.56037C4.02699 6.50734 4.3982 6.46425 4.68324 6.43111C4.96828 6.39465 5.17543 6.33665 5.30469 6.2571C5.43395 6.17756 5.49858 6.0483 5.49858 5.86932V5.83452C5.49858 5.40033 5.37595 5.06392 5.13068 4.82528C4.88873 4.58665 4.52746 4.46733 4.04688 4.46733C3.5464 4.46733 3.15199 4.57836 2.86364 4.80043C2.5786 5.01918 2.38139 5.26278 2.27202 5.53125L0.875 5.21307C1.04072 4.74905 1.28267 4.37453 1.60085 4.08949C1.92235 3.80114 2.2919 3.59233 2.70952 3.46307C3.12713 3.33049 3.56629 3.2642 4.02699 3.2642C4.33191 3.2642 4.65507 3.30066 4.99645 3.37358C5.34115 3.44318 5.66264 3.57244 5.96094 3.76136C6.26255 3.95028 6.50947 4.22041 6.7017 4.57173C6.89394 4.91974 6.99006 5.37216 6.99006 5.92898V11H5.53835V9.95597H5.47869C5.38258 10.1482 5.2384 10.3371 5.04616 10.5227C4.85393 10.7083 4.60701 10.8625 4.3054 10.9851C4.00379 11.1077 3.64252 11.169 3.22159 11.169ZM3.54474 9.97585C3.95573 9.97585 4.30706 9.89465 4.59872 9.73224C4.8937 9.56984 5.11742 9.35772 5.26989 9.09588C5.42566 8.83073 5.50355 8.54735 5.50355 8.24574V7.26136C5.45052 7.31439 5.34777 7.36411 5.19531 7.41051C5.04616 7.4536 4.87547 7.49171 4.68324 7.52486C4.491 7.55469 4.30374 7.58286 4.12145 7.60938C3.93916 7.63258 3.7867 7.65246 3.66406 7.66903C3.37571 7.70549 3.11222 7.76681 2.87358 7.85298C2.63826 7.93916 2.44934 8.06345 2.30682 8.22585C2.16761 8.38494 2.09801 8.59706 2.09801 8.86222C2.09801 9.23011 2.2339 9.50852 2.50568 9.69744C2.77746 9.88305 3.12382 9.97585 3.54474 9.97585ZM8.96999 11V3.36364H10.4068V4.5767H10.4863C10.6255 4.16572 10.8708 3.84257 11.2221 3.60724C11.5768 3.36861 11.9778 3.24929 12.4252 3.24929C12.5181 3.24929 12.6274 3.2526 12.7534 3.25923C12.8826 3.26586 12.9837 3.27415 13.0566 3.28409V4.70597C12.997 4.68939 12.8909 4.67116 12.7385 4.65128C12.586 4.62808 12.4335 4.61648 12.2811 4.61648C11.9297 4.61648 11.6165 4.69105 11.3414 4.8402C11.0697 4.98603 10.8542 5.18987 10.6951 5.4517C10.536 5.71023 10.4565 6.00521 10.4565 6.33665V11H8.96999ZM14.343 11V3.36364H15.7798V4.5767H15.8594C15.9986 4.16572 16.2438 3.84257 16.5952 3.60724C16.9498 3.36861 17.3509 3.24929 17.7983 3.24929C17.8911 3.24929 18.0005 3.2526 18.1264 3.25923C18.2557 3.26586 18.3568 3.27415 18.4297 3.28409V4.70597C18.37 4.68939 18.264 4.67116 18.1115 4.65128C17.959 4.62808 17.8066 4.61648 17.6541 4.61648C17.3028 4.61648 16.9896 4.69105 16.7145 4.8402C16.4427 4.98603 16.2273 5.18987 16.0682 5.4517C15.9091 5.71023 15.8295 6.00521 15.8295 6.33665V11H14.343ZM22.6593 11.1541C21.9434 11.1541 21.3186 10.9901 20.785 10.6619C20.2514 10.3338 19.8371 9.87476 19.5421 9.2848C19.2471 8.69484 19.0996 8.00544 19.0996 7.21662C19.0996 6.42448 19.2471 5.73177 19.5421 5.13849C19.8371 4.54522 20.2514 4.08452 20.785 3.75639C21.3186 3.42827 21.9434 3.2642 22.6593 3.2642C23.3752 3.2642 23.9999 3.42827 24.5336 3.75639C25.0672 4.08452 25.4815 4.54522 25.7765 5.13849C26.0714 5.73177 26.2189 6.42448 26.2189 7.21662C26.2189 8.00544 26.0714 8.69484 25.7765 9.2848C25.4815 9.87476 25.0672 10.3338 24.5336 10.6619C23.9999 10.9901 23.3752 11.1541 22.6593 11.1541ZM22.6642 9.90625C23.1283 9.90625 23.5127 9.78362 23.8176 9.53835C24.1226 9.29309 24.348 8.96662 24.4938 8.55895C24.6429 8.15128 24.7175 7.70218 24.7175 7.21165C24.7175 6.72443 24.6429 6.27699 24.4938 5.86932C24.348 5.45833 24.1226 5.12855 23.8176 4.87997C23.5127 4.63139 23.1283 4.5071 22.6642 4.5071C22.1969 4.5071 21.8091 4.63139 21.5009 4.87997C21.196 5.12855 20.9689 5.45833 20.8198 5.86932C20.6739 6.27699 20.601 6.72443 20.601 7.21165C20.601 7.70218 20.6739 8.15128 20.8198 8.55895C20.9689 8.96662 21.196 9.29309 21.5009 9.53835C21.8091 9.78362 22.1969 9.90625 22.6642 9.90625ZM29.3013 11L27.0542 3.36364H28.5904L30.0868 8.97159H30.1614L31.6628 3.36364H33.199L34.6905 8.94673H34.7651L36.2516 3.36364H37.7878L35.5456 11H34.0293L32.4782 5.48651H32.3638L30.8127 11H29.3013ZM43.6978 6.05327V7.34091H39.1836V6.05327H43.6978ZM51.4013 5.22798L50.054 5.46662C49.9976 5.29427 49.9081 5.13021 49.7855 4.97443C49.6662 4.81865 49.5038 4.69105 49.2983 4.59162C49.0928 4.49219 48.8359 4.44247 48.5277 4.44247C48.1068 4.44247 47.7554 4.53693 47.4737 4.72585C47.192 4.91146 47.0511 5.15175 47.0511 5.44673C47.0511 5.70194 47.1456 5.90743 47.3345 6.06321C47.5234 6.21899 47.8284 6.34659 48.2493 6.44602L49.4624 6.72443C50.165 6.88684 50.6887 7.13707 51.0334 7.47514C51.3781 7.81321 51.5504 8.25237 51.5504 8.79261C51.5504 9.25 51.4179 9.65767 51.1527 10.0156C50.8909 10.3703 50.5246 10.6487 50.054 10.8509C49.5866 11.053 49.0447 11.1541 48.4283 11.1541C47.5732 11.1541 46.8755 10.9718 46.3352 10.6072C45.795 10.2393 45.4635 9.71733 45.3409 9.04119L46.7777 8.82244C46.8672 9.19697 47.0511 9.48035 47.3295 9.67259C47.608 9.86151 47.9709 9.95597 48.4183 9.95597C48.9055 9.95597 49.295 9.85488 49.5866 9.6527C49.8783 9.44721 50.0241 9.19697 50.0241 8.90199C50.0241 8.66335 49.9347 8.46283 49.7557 8.30043C49.58 8.13802 49.3099 8.01539 48.9453 7.93253L47.6527 7.64915C46.9401 7.48674 46.4131 7.22822 46.0717 6.87358C45.7337 6.51894 45.5646 6.06984 45.5646 5.52628C45.5646 5.07552 45.6906 4.68111 45.9425 4.34304C46.1944 4.00497 46.5424 3.74148 46.9865 3.55256C47.4306 3.36032 47.9394 3.2642 48.5128 3.2642C49.3381 3.2642 49.9877 3.44318 50.4616 3.80114C50.9356 4.15578 51.2488 4.63139 51.4013 5.22798ZM58.3404 13.8636V9.81179H58.2509C58.1614 9.9742 58.0321 10.1598 57.8631 10.3686C57.6974 10.5774 57.4687 10.7597 57.177 10.9155C56.8854 11.0713 56.5075 11.1491 56.0435 11.1491C55.427 11.1491 54.8768 10.9917 54.3929 10.6768C53.9123 10.3587 53.5345 9.90625 53.2594 9.3196C52.9876 8.72964 52.8517 8.02202 52.8517 7.19673C52.8517 6.37145 52.9893 5.66548 53.2644 5.07884C53.5428 4.49219 53.9239 4.04309 54.4078 3.73153C54.8917 3.41998 55.4403 3.2642 56.0534 3.2642C56.5274 3.2642 56.9086 3.34375 57.1969 3.50284C57.4886 3.65862 57.714 3.84091 57.873 4.04972C58.0355 4.25852 58.1614 4.44247 58.2509 4.60156H58.3752V3.36364H59.8269V13.8636H58.3404ZM56.3716 9.88139C56.7992 9.88139 57.1605 9.7687 57.4554 9.54332C57.7537 9.31463 57.9791 8.99811 58.1316 8.59375C58.2873 8.18939 58.3652 7.71875 58.3652 7.18182C58.3652 6.65151 58.289 6.1875 58.1365 5.78977C57.9841 5.39205 57.7604 5.08215 57.4654 4.86009C57.1704 4.63802 56.8058 4.52699 56.3716 4.52699C55.9242 4.52699 55.5513 4.64299 55.253 4.875C54.9547 5.10701 54.7293 5.42353 54.5769 5.82457C54.4277 6.22562 54.3532 6.67803 54.3532 7.18182C54.3532 7.69223 54.4294 8.15128 54.5819 8.55895C54.7343 8.96662 54.9597 9.28977 55.258 9.52841C55.5596 9.76373 55.9308 9.88139 56.3716 9.88139ZM66.6628 7.8331V3.36364H68.1543V11H66.6926V9.67756H66.6131C66.4374 10.0852 66.1557 10.425 65.7679 10.6967C65.3835 10.9652 64.9045 11.0994 64.3311 11.0994C63.8406 11.0994 63.4064 10.9917 63.0286 10.7763C62.6541 10.5575 62.3591 10.2344 62.1436 9.80682C61.9315 9.37926 61.8255 8.85062 61.8255 8.22088V3.36364H63.312V8.0419C63.312 8.56226 63.4561 8.97656 63.7445 9.2848C64.0328 9.59304 64.4074 9.74716 64.8681 9.74716C65.1465 9.74716 65.4232 9.67756 65.6983 9.53835C65.9767 9.39915 66.2071 9.18868 66.3894 8.90696C66.575 8.62524 66.6661 8.26728 66.6628 7.8331ZM72.3739 11.169C71.89 11.169 71.4525 11.0795 71.0614 10.9006C70.6703 10.7183 70.3604 10.4548 70.1317 10.1101C69.9064 9.76539 69.7937 9.3428 69.7937 8.84233C69.7937 8.41146 69.8765 8.05682 70.0423 7.77841C70.208 7.5 70.4317 7.27959 70.7134 7.11719C70.9951 6.95478 71.31 6.83215 71.658 6.74929C72.006 6.66643 72.3607 6.60346 72.7219 6.56037C73.1793 6.50734 73.5505 6.46425 73.8356 6.43111C74.1206 6.39465 74.3278 6.33665 74.457 6.2571C74.5863 6.17756 74.6509 6.0483 74.6509 5.86932V5.83452C74.6509 5.40033 74.5283 5.06392 74.283 4.82528C74.0411 4.58665 73.6798 4.46733 73.1992 4.46733C72.6987 4.46733 72.3043 4.57836 72.016 4.80043C71.7309 5.01918 71.5337 5.26278 71.4244 5.53125L70.0273 5.21307C70.1931 4.74905 70.435 4.37453 70.7532 4.08949C71.0747 3.80114 71.4442 3.59233 71.8619 3.46307C72.2795 3.33049 72.7186 3.2642 73.1793 3.2642C73.4843 3.2642 73.8074 3.30066 74.1488 3.37358C74.4935 3.44318 74.815 3.57244 75.1133 3.76136C75.4149 3.95028 75.6618 4.22041 75.854 4.57173C76.0463 4.91974 76.1424 5.37216 76.1424 5.92898V11H74.6907V9.95597H74.631C74.5349 10.1482 74.3907 10.3371 74.1985 10.5227C74.0063 10.7083 73.7594 10.8625 73.4577 10.9851C73.1561 11.1077 72.7949 11.169 72.3739 11.169ZM72.6971 9.97585C73.1081 9.97585 73.4594 9.89465 73.7511 9.73224C74.046 9.56984 74.2698 9.35772 74.4222 9.09588C74.578 8.83073 74.6559 8.54735 74.6559 8.24574V7.26136C74.6029 7.31439 74.5001 7.36411 74.3477 7.41051C74.1985 7.4536 74.0278 7.49171 73.8356 7.52486C73.6433 7.55469 73.4561 7.58286 73.2738 7.60938C73.0915 7.63258 72.939 7.65246 72.8164 7.66903C72.5281 7.70549 72.2646 7.76681 72.0259 7.85298C71.7906 7.93916 71.6017 8.06345 71.4592 8.22585C71.32 8.38494 71.2504 8.59706 71.2504 8.86222C71.2504 9.23011 71.3862 9.50852 71.658 9.69744C71.9298 9.88305 72.2762 9.97585 72.6971 9.97585ZM78.1223 11V3.36364H79.5591V4.5767H79.6387C79.7779 4.16572 80.0231 3.84257 80.3745 3.60724C80.7291 3.36861 81.1301 3.24929 81.5776 3.24929C81.6704 3.24929 81.7798 3.2526 81.9057 3.25923C82.035 3.26586 82.1361 3.27415 82.209 3.28409V4.70597C82.1493 4.68939 82.0433 4.67116 81.8908 4.65128C81.7383 4.62808 81.5859 4.61648 81.4334 4.61648C81.0821 4.61648 80.7689 4.69105 80.4938 4.8402C80.222 4.98603 80.0066 5.18987 79.8475 5.4517C79.6884 5.71023 79.6088 6.00521 79.6088 6.33665V11H78.1223ZM86.5131 11.1541C85.7608 11.1541 85.1128 10.9934 84.5692 10.6719C84.029 10.3471 83.6114 9.89134 83.3164 9.30469C83.0247 8.71473 82.8789 8.02367 82.8789 7.23153C82.8789 6.44934 83.0247 5.75994 83.3164 5.16335C83.6114 4.56676 84.0224 4.10109 84.5494 3.76633C85.0797 3.43158 85.6995 3.2642 86.4087 3.2642C86.8396 3.2642 87.2572 3.33546 87.6616 3.47798C88.0659 3.6205 88.4289 3.84422 88.7504 4.14915C89.0719 4.45407 89.3254 4.85014 89.511 5.33736C89.6966 5.82126 89.7894 6.40956 89.7894 7.10227V7.62926H83.7191V6.51562H88.3327C88.3327 6.12453 88.2532 5.77817 88.0941 5.47656C87.935 5.17164 87.7113 4.93134 87.4229 4.75568C87.1379 4.58002 86.8031 4.49219 86.4187 4.49219C86.0011 4.49219 85.6365 4.59493 85.3249 4.80043C85.0167 5.0026 84.7781 5.26776 84.609 5.59588C84.4433 5.92069 84.3604 6.27367 84.3604 6.65483V7.52486C84.3604 8.03527 84.4499 8.46946 84.6289 8.82741C84.8112 9.18537 85.0647 9.45881 85.3896 9.64773C85.7144 9.83333 86.0939 9.92614 86.5281 9.92614C86.8098 9.92614 87.0666 9.88636 87.2987 9.80682C87.5307 9.72396 87.7312 9.60133 87.9002 9.43892C88.0692 9.27652 88.1985 9.07599 88.288 8.83736L89.695 9.09091C89.5823 9.50521 89.3801 9.86813 89.0884 10.1797C88.8001 10.4879 88.4371 10.7282 87.9996 10.9006C87.5655 11.0696 87.07 11.1541 86.5131 11.1541ZM95.938 6.05327V7.34091H91.4238V6.05327H95.938ZM99.4057 0.818182V11H97.9192V0.818182H99.4057ZM104.697 11.1541C103.944 11.1541 103.296 10.9934 102.753 10.6719C102.213 10.3471 101.795 9.89134 101.5 9.30469C101.208 8.71473 101.062 8.02367 101.062 7.23153C101.062 6.44934 101.208 5.75994 101.5 5.16335C101.795 4.56676 102.206 4.10109 102.733 3.76633C103.263 3.43158 103.883 3.2642 104.592 3.2642C105.023 3.2642 105.441 3.33546 105.845 3.47798C106.25 3.6205 106.612 3.84422 106.934 4.14915C107.255 4.45407 107.509 4.85014 107.695 5.33736C107.88 5.82126 107.973 6.40956 107.973 7.10227V7.62926H101.903V6.51562H106.516C106.516 6.12453 106.437 5.77817 106.278 5.47656C106.119 5.17164 105.895 4.93134 105.607 4.75568C105.321 4.58002 104.987 4.49219 104.602 4.49219C104.185 4.49219 103.82 4.59493 103.509 4.80043C103.2 5.0026 102.962 5.26776 102.793 5.59588C102.627 5.92069 102.544 6.27367 102.544 6.65483V7.52486C102.544 8.03527 102.634 8.46946 102.812 8.82741C102.995 9.18537 103.248 9.45881 103.573 9.64773C103.898 9.83333 104.277 9.92614 104.712 9.92614C104.993 9.92614 105.25 9.88636 105.482 9.80682C105.714 9.72396 105.915 9.60133 106.084 9.43892C106.253 9.27652 106.382 9.07599 106.472 8.83736L107.879 9.09091C107.766 9.50521 107.564 9.86813 107.272 10.1797C106.984 10.4879 106.621 10.7282 106.183 10.9006C105.749 11.0696 105.254 11.1541 104.697 11.1541ZM113.257 3.36364V4.55682H108.941V3.36364H113.257ZM110.124 11V2.47869C110.124 2.00142 110.229 1.60535 110.438 1.29048C110.646 0.972301 110.923 0.735322 111.268 0.579545C111.613 0.420454 111.987 0.340908 112.392 0.340908C112.69 0.340908 112.945 0.365767 113.157 0.415483C113.369 0.461884 113.527 0.504971 113.629 0.544744L113.281 1.74787C113.212 1.72798 113.122 1.70478 113.013 1.67827C112.904 1.64844 112.771 1.63352 112.615 1.63352C112.254 1.63352 111.995 1.72301 111.84 1.90199C111.687 2.08097 111.611 2.33949 111.611 2.67756V11H110.124ZM118.355 3.36364V4.55682H114.184V3.36364H118.355ZM115.302 1.53409H116.789V8.75781C116.789 9.04616 116.832 9.26326 116.918 9.40909C117.004 9.55161 117.115 9.64938 117.251 9.70241C117.39 9.75213 117.541 9.77699 117.704 9.77699C117.823 9.77699 117.927 9.7687 118.017 9.75213C118.106 9.73556 118.176 9.7223 118.226 9.71236L118.494 10.9403C118.408 10.9735 118.285 11.0066 118.126 11.0398C117.967 11.0762 117.768 11.0961 117.53 11.0994C117.139 11.1061 116.774 11.0365 116.436 10.8906C116.098 10.7448 115.824 10.5194 115.616 10.2145C115.407 9.90956 115.302 9.52675 115.302 9.06605V1.53409Z" fill="black"/>
</svg>
