<svg width="150" height="12" viewBox="0 0 150 12" fill="none" xmlns="http://www.w3.org/2000/svg">
<path d="M4.21591 11.1541C3.4768 11.1541 2.84044 10.9867 2.30682 10.652C1.77652 10.3139 1.36884 9.84825 1.08381 9.25497C0.798769 8.66169 0.65625 7.98224 0.65625 7.21662C0.65625 6.44105 0.802083 5.75663 1.09375 5.16335C1.38542 4.56676 1.7964 4.10109 2.3267 3.76633C2.85701 3.43158 3.48177 3.2642 4.20099 3.2642C4.78101 3.2642 5.29806 3.37192 5.75213 3.58736C6.2062 3.79948 6.57244 4.09777 6.85085 4.48224C7.13258 4.86671 7.29995 5.31581 7.35298 5.82955H5.90625C5.8267 5.47159 5.64441 5.16335 5.35938 4.90483C5.07765 4.64631 4.69981 4.51705 4.22585 4.51705C3.81155 4.51705 3.44863 4.62642 3.13707 4.84517C2.82884 5.06061 2.58854 5.36884 2.41619 5.76989C2.24384 6.16761 2.15767 6.63826 2.15767 7.18182C2.15767 7.73864 2.24219 8.21922 2.41122 8.62358C2.58026 9.02794 2.81889 9.34115 3.12713 9.56321C3.43868 9.78527 3.80492 9.89631 4.22585 9.89631C4.50758 9.89631 4.76278 9.84493 4.99148 9.74219C5.22349 9.63613 5.41738 9.48532 5.57315 9.28977C5.73224 9.09422 5.84328 8.8589 5.90625 8.58381H7.35298C7.29995 9.07765 7.1392 9.51847 6.87074 9.90625C6.60227 10.294 6.24266 10.599 5.7919 10.821C5.34446 11.0431 4.81913 11.1541 4.21591 11.1541ZM10.4292 6.46591V11H8.94265V0.818182H10.4093V4.60653H10.5037C10.6827 4.19555 10.9561 3.86908 11.324 3.62713C11.6919 3.38518 12.1725 3.2642 12.7658 3.2642C13.2895 3.2642 13.7469 3.37192 14.138 3.58736C14.5324 3.80279 14.8373 4.12429 15.0527 4.55185C15.2715 4.97609 15.3809 5.50639 15.3809 6.14276V11H13.8944V6.32173C13.8944 5.7616 13.7502 5.32741 13.4618 5.01918C13.1735 4.70762 12.7724 4.55185 12.2587 4.55185C11.9074 4.55185 11.5925 4.62642 11.3141 4.77557C11.039 4.92472 10.8219 5.14347 10.6628 5.43182C10.507 5.71686 10.4292 6.06155 10.4292 6.46591ZM20.6557 11.1541C19.9033 11.1541 19.2554 10.9934 18.7118 10.6719C18.1716 10.3471 17.754 9.89134 17.459 9.30469C17.1673 8.71473 17.0215 8.02367 17.0215 7.23153C17.0215 6.44934 17.1673 5.75994 17.459 5.16335C17.754 4.56676 18.165 4.10109 18.6919 3.76633C19.2222 3.43158 19.842 3.2642 20.5513 3.2642C20.9822 3.2642 21.3998 3.33546 21.8042 3.47798C22.2085 3.6205 22.5714 3.84422 22.8929 4.14915C23.2144 4.45407 23.468 4.85014 23.6536 5.33736C23.8392 5.82126 23.932 6.40956 23.932 7.10227V7.62926H17.8617V6.51562H22.4753C22.4753 6.12453 22.3958 5.77817 22.2367 5.47656C22.0776 5.17164 21.8539 4.93134 21.5655 4.75568C21.2805 4.58002 20.9457 4.49219 20.5613 4.49219C20.1436 4.49219 19.7791 4.59493 19.4675 4.80043C19.1593 5.0026 18.9206 5.26776 18.7516 5.59588C18.5859 5.92069 18.503 6.27367 18.503 6.65483V7.52486C18.503 8.03527 18.5925 8.46946 18.7715 8.82741C18.9538 9.18537 19.2073 9.45881 19.5321 9.64773C19.8569 9.83333 20.2364 9.92614 20.6706 9.92614C20.9524 9.92614 21.2092 9.88636 21.4412 9.80682C21.6732 9.72396 21.8738 9.60133 22.0428 9.43892C22.2118 9.27652 22.3411 9.07599 22.4306 8.83736L23.8375 9.09091C23.7248 9.50521 23.5227 9.86813 23.231 10.1797C22.9426 10.4879 22.5797 10.7282 22.1422 10.9006C21.708 11.0696 21.2125 11.1541 20.6557 11.1541ZM31.8952 3.36364L29.1261 11H27.5352L24.761 3.36364H26.3569L28.2908 9.24006H28.3704L30.2994 3.36364H31.8952ZM33.2923 11V3.36364H34.729V4.5767H34.8086C34.9478 4.16572 35.1931 3.84257 35.5444 3.60724C35.899 3.36861 36.3001 3.24929 36.7475 3.24929C36.8403 3.24929 36.9497 3.2526 37.0756 3.25923C37.2049 3.26586 37.306 3.27415 37.3789 3.28409V4.70597C37.3192 4.68939 37.2132 4.67116 37.0607 4.65128C36.9083 4.62808 36.7558 4.61648 36.6033 4.61648C36.252 4.61648 35.9388 4.69105 35.6637 4.8402C35.3919 4.98603 35.1765 5.18987 35.0174 5.4517C34.8583 5.71023 34.7788 6.00521 34.7788 6.33665V11H33.2923ZM41.6085 11.1541C40.8926 11.1541 40.2678 10.9901 39.7342 10.6619C39.2006 10.3338 38.7863 9.87476 38.4913 9.2848C38.1963 8.69484 38.0488 8.00544 38.0488 7.21662C38.0488 6.42448 38.1963 5.73177 38.4913 5.13849C38.7863 4.54522 39.2006 4.08452 39.7342 3.75639C40.2678 3.42827 40.8926 3.2642 41.6085 3.2642C42.3244 3.2642 42.9492 3.42827 43.4828 3.75639C44.0164 4.08452 44.4307 4.54522 44.7257 5.13849C45.0207 5.73177 45.1681 6.42448 45.1681 7.21662C45.1681 8.00544 45.0207 8.69484 44.7257 9.2848C44.4307 9.87476 44.0164 10.3338 43.4828 10.6619C42.9492 10.9901 42.3244 11.1541 41.6085 11.1541ZM41.6135 9.90625C42.0775 9.90625 42.4619 9.78362 42.7669 9.53835C43.0718 9.29309 43.2972 8.96662 43.443 8.55895C43.5922 8.15128 43.6667 7.70218 43.6667 7.21165C43.6667 6.72443 43.5922 6.27699 43.443 5.86932C43.2972 5.45833 43.0718 5.12855 42.7669 4.87997C42.4619 4.63139 42.0775 4.5071 41.6135 4.5071C41.1461 4.5071 40.7583 4.63139 40.4501 4.87997C40.1452 5.12855 39.9181 5.45833 39.769 5.86932C39.6232 6.27699 39.5502 6.72443 39.5502 7.21165C39.5502 7.70218 39.6232 8.15128 39.769 8.55895C39.9181 8.96662 40.1452 9.29309 40.4501 9.53835C40.7583 9.78362 41.1461 9.90625 41.6135 9.90625ZM48.3139 6.46591V11H46.8274V3.36364H48.2543V4.60653H48.3487C48.5244 4.20218 48.7995 3.87737 49.174 3.6321C49.5518 3.38684 50.0275 3.2642 50.6009 3.2642C51.1212 3.2642 51.5769 3.37358 51.968 3.59233C52.3591 3.80777 52.6624 4.12926 52.8778 4.55682C53.0933 4.98437 53.201 5.51302 53.201 6.14276V11H51.7145V6.32173C51.7145 5.76823 51.5703 5.3357 51.282 5.02415C50.9936 4.70928 50.5975 4.55185 50.0938 4.55185C49.7491 4.55185 49.4425 4.62642 49.174 4.77557C48.9089 4.92472 48.6984 5.14347 48.5426 5.43182C48.3902 5.71686 48.3139 6.06155 48.3139 6.46591ZM59.6939 6.05327V7.34091H55.1797V6.05327H59.6939ZM64.5337 11.1491C63.9173 11.1491 63.3671 10.9917 62.8832 10.6768C62.4026 10.3587 62.0247 9.90625 61.7496 9.3196C61.4779 8.72964 61.342 8.02202 61.342 7.19673C61.342 6.37145 61.4795 5.66548 61.7546 5.07884C62.033 4.49219 62.4142 4.04309 62.8981 3.73153C63.382 3.41998 63.9305 3.2642 64.5437 3.2642C65.0176 3.2642 65.3988 3.34375 65.6871 3.50284C65.9788 3.65862 66.2042 3.84091 66.3633 4.04972C66.5257 4.25852 66.6516 4.44247 66.7411 4.60156H66.8306V0.818182H68.3171V11H66.8654V9.81179H66.7411C66.6516 9.9742 66.5224 10.1598 66.3533 10.3686C66.1876 10.5774 65.9589 10.7597 65.6673 10.9155C65.3756 11.0713 64.9978 11.1491 64.5337 11.1491ZM64.8619 9.88139C65.2894 9.88139 65.6507 9.7687 65.9457 9.54332C66.244 9.31463 66.4693 8.99811 66.6218 8.59375C66.7776 8.18939 66.8555 7.71875 66.8555 7.18182C66.8555 6.65151 66.7792 6.1875 66.6268 5.78977C66.4743 5.39205 66.2506 5.08215 65.9556 4.86009C65.6606 4.63802 65.296 4.52699 64.8619 4.52699C64.4144 4.52699 64.0415 4.64299 63.7433 4.875C63.445 5.10701 63.2196 5.42353 63.0671 5.82457C62.918 6.22562 62.8434 6.67803 62.8434 7.18182C62.8434 7.69223 62.9196 8.15128 63.0721 8.55895C63.2246 8.96662 63.4499 9.28977 63.7482 9.52841C64.0498 9.76373 64.421 9.88139 64.8619 9.88139ZM73.6554 11.1541C72.9395 11.1541 72.3147 10.9901 71.7811 10.6619C71.2475 10.3338 70.8332 9.87476 70.5382 9.2848C70.2432 8.69484 70.0957 8.00544 70.0957 7.21662C70.0957 6.42448 70.2432 5.73177 70.5382 5.13849C70.8332 4.54522 71.2475 4.08452 71.7811 3.75639C72.3147 3.42827 72.9395 3.2642 73.6554 3.2642C74.3713 3.2642 74.996 3.42827 75.5297 3.75639C76.0633 4.08452 76.4776 4.54522 76.7725 5.13849C77.0675 5.73177 77.215 6.42448 77.215 7.21662C77.215 8.00544 77.0675 8.69484 76.7725 9.2848C76.4776 9.87476 76.0633 10.3338 75.5297 10.6619C74.996 10.9901 74.3713 11.1541 73.6554 11.1541ZM73.6603 9.90625C74.1243 9.90625 74.5088 9.78362 74.8137 9.53835C75.1187 9.29309 75.344 8.96662 75.4899 8.55895C75.639 8.15128 75.7136 7.70218 75.7136 7.21165C75.7136 6.72443 75.639 6.27699 75.4899 5.86932C75.344 5.45833 75.1187 5.12855 74.8137 4.87997C74.5088 4.63139 74.1243 4.5071 73.6603 4.5071C73.193 4.5071 72.8052 4.63139 72.497 4.87997C72.1921 5.12855 71.965 5.45833 71.8159 5.86932C71.67 6.27699 71.5971 6.72443 71.5971 7.21165C71.5971 7.70218 71.67 8.15128 71.8159 8.55895C71.965 8.96662 72.1921 9.29309 72.497 9.53835C72.8052 9.78362 73.193 9.90625 73.6603 9.90625ZM80.2974 11L78.0502 3.36364H79.5865L81.0829 8.97159H81.1575L82.6589 3.36364H84.1951L85.6866 8.94673H85.7612L87.2477 3.36364H88.7839L86.5417 11H85.0254L83.4743 5.48651H83.3599L81.8088 11H80.2974ZM91.6811 6.46591V11H90.1946V3.36364H91.6214V4.60653H91.7159C91.8916 4.20218 92.1667 3.87737 92.5412 3.6321C92.919 3.38684 93.3946 3.2642 93.968 3.2642C94.4884 3.2642 94.9441 3.37358 95.3352 3.59233C95.7263 3.80777 96.0296 4.12926 96.245 4.55682C96.4605 4.98437 96.5682 5.51302 96.5682 6.14276V11H95.0817V6.32173C95.0817 5.76823 94.9375 5.3357 94.6491 5.02415C94.3608 4.70928 93.9647 4.55185 93.4609 4.55185C93.1162 4.55185 92.8097 4.62642 92.5412 4.77557C92.276 4.92472 92.0656 5.14347 91.9098 5.43182C91.7573 5.71686 91.6811 6.06155 91.6811 6.46591ZM103.061 6.05327V7.34091H98.5469V6.05327H103.061ZM107.901 11.1491C107.284 11.1491 106.734 10.9917 106.25 10.6768C105.77 10.3587 105.392 9.90625 105.117 9.3196C104.845 8.72964 104.709 8.02202 104.709 7.19673C104.709 6.37145 104.847 5.66548 105.122 5.07884C105.4 4.49219 105.781 4.04309 106.265 3.73153C106.749 3.41998 107.298 3.2642 107.911 3.2642C108.385 3.2642 108.766 3.34375 109.054 3.50284C109.346 3.65862 109.571 3.84091 109.73 4.04972C109.893 4.25852 110.019 4.44247 110.108 4.60156H110.198V0.818182H111.684V11H110.233V9.81179H110.108C110.019 9.9742 109.89 10.1598 109.721 10.3686C109.555 10.5774 109.326 10.7597 109.034 10.9155C108.743 11.0713 108.365 11.1491 107.901 11.1491ZM108.229 9.88139C108.657 9.88139 109.018 9.7687 109.313 9.54332C109.611 9.31463 109.837 8.99811 109.989 8.59375C110.145 8.18939 110.223 7.71875 110.223 7.18182C110.223 6.65151 110.146 6.1875 109.994 5.78977C109.842 5.39205 109.618 5.08215 109.323 4.86009C109.028 4.63802 108.663 4.52699 108.229 4.52699C107.782 4.52699 107.409 4.64299 107.11 4.875C106.812 5.10701 106.587 5.42353 106.434 5.82457C106.285 6.22562 106.211 6.67803 106.211 7.18182C106.211 7.69223 106.287 8.15128 106.439 8.55895C106.592 8.96662 106.817 9.28977 107.115 9.52841C107.417 9.76373 107.788 9.88139 108.229 9.88139ZM117.023 11.1541C116.307 11.1541 115.682 10.9901 115.148 10.6619C114.615 10.3338 114.2 9.87476 113.905 9.2848C113.61 8.69484 113.463 8.00544 113.463 7.21662C113.463 6.42448 113.61 5.73177 113.905 5.13849C114.2 4.54522 114.615 4.08452 115.148 3.75639C115.682 3.42827 116.307 3.2642 117.023 3.2642C117.738 3.2642 118.363 3.42827 118.897 3.75639C119.43 4.08452 119.845 4.54522 120.14 5.13849C120.435 5.73177 120.582 6.42448 120.582 7.21662C120.582 8.00544 120.435 8.69484 120.14 9.2848C119.845 9.87476 119.43 10.3338 118.897 10.6619C118.363 10.9901 117.738 11.1541 117.023 11.1541ZM117.028 9.90625C117.492 9.90625 117.876 9.78362 118.181 9.53835C118.486 9.29309 118.711 8.96662 118.857 8.55895C119.006 8.15128 119.081 7.70218 119.081 7.21165C119.081 6.72443 119.006 6.27699 118.857 5.86932C118.711 5.45833 118.486 5.12855 118.181 4.87997C117.876 4.63139 117.492 4.5071 117.028 4.5071C116.56 4.5071 116.172 4.63139 115.864 4.87997C115.559 5.12855 115.332 5.45833 115.183 5.86932C115.037 6.27699 114.964 6.72443 114.964 7.21165C114.964 7.70218 115.037 8.15128 115.183 8.55895C115.332 8.96662 115.559 9.29309 115.864 9.53835C116.172 9.78362 116.56 9.90625 117.028 9.90625ZM127.079 7.8331V3.36364H128.57V11H127.109V9.67756H127.029C126.853 10.0852 126.572 10.425 126.184 10.6967C125.799 10.9652 125.321 11.0994 124.747 11.0994C124.257 11.0994 123.822 10.9917 123.445 10.7763C123.07 10.5575 122.775 10.2344 122.56 9.80682C122.348 9.37926 122.241 8.85062 122.241 8.22088V3.36364H123.728V8.0419C123.728 8.56226 123.872 8.97656 124.161 9.2848C124.449 9.59304 124.823 9.74716 125.284 9.74716C125.563 9.74716 125.839 9.67756 126.114 9.53835C126.393 9.39915 126.623 9.18868 126.805 8.90696C126.991 8.62524 127.082 8.26728 127.079 7.8331ZM130.687 11V0.818182H132.173V4.60156H132.263C132.349 4.44247 132.473 4.25852 132.636 4.04972C132.798 3.84091 133.024 3.65862 133.312 3.50284C133.6 3.34375 133.981 3.2642 134.455 3.2642C135.072 3.2642 135.622 3.41998 136.106 3.73153C136.59 4.04309 136.969 4.49219 137.244 5.07884C137.523 5.66548 137.662 6.37145 137.662 7.19673C137.662 8.02202 137.525 8.72964 137.249 9.3196C136.974 9.90625 136.597 10.3587 136.116 10.6768C135.635 10.9917 135.087 11.1491 134.47 11.1491C134.006 11.1491 133.627 11.0713 133.332 10.9155C133.04 10.7597 132.811 10.5774 132.646 10.3686C132.48 10.1598 132.352 9.9742 132.263 9.81179H132.139V11H130.687ZM132.144 7.18182C132.144 7.71875 132.222 8.18939 132.377 8.59375C132.533 8.99811 132.758 9.31463 133.053 9.54332C133.348 9.7687 133.71 9.88139 134.137 9.88139C134.581 9.88139 134.953 9.76373 135.251 9.52841C135.549 9.28977 135.775 8.96662 135.927 8.55895C136.083 8.15128 136.161 7.69223 136.161 7.18182C136.161 6.67803 136.084 6.22562 135.932 5.82457C135.783 5.42353 135.557 5.10701 135.256 4.875C134.958 4.64299 134.585 4.52699 134.137 4.52699C133.706 4.52699 133.342 4.63802 133.044 4.86009C132.749 5.08215 132.525 5.39205 132.372 5.78977C132.22 6.1875 132.144 6.65151 132.144 7.18182ZM140.818 0.818182V11H139.331V0.818182H140.818ZM146.109 11.1541C145.356 11.1541 144.709 10.9934 144.165 10.6719C143.625 10.3471 143.207 9.89134 142.912 9.30469C142.62 8.71473 142.475 8.02367 142.475 7.23153C142.475 6.44934 142.62 5.75994 142.912 5.16335C143.207 4.56676 143.618 4.10109 144.145 3.76633C144.675 3.43158 145.295 3.2642 146.004 3.2642C146.435 3.2642 146.853 3.33546 147.257 3.47798C147.662 3.6205 148.025 3.84422 148.346 4.14915C148.668 4.45407 148.921 4.85014 149.107 5.33736C149.292 5.82126 149.385 6.40956 149.385 7.10227V7.62926H143.315V6.51562H147.928C147.928 6.12453 147.849 5.77817 147.69 5.47656C147.531 5.17164 147.307 4.93134 147.019 4.75568C146.734 4.58002 146.399 4.49219 146.014 4.49219C145.597 4.49219 145.232 4.59493 144.921 4.80043C144.612 5.0026 144.374 5.26776 144.205 5.59588C144.039 5.92069 143.956 6.27367 143.956 6.65483V7.52486C143.956 8.03527 144.046 8.46946 144.225 8.82741C144.407 9.18537 144.66 9.45881 144.985 9.64773C145.31 9.83333 145.69 9.92614 146.124 9.92614C146.405 9.92614 146.662 9.88636 146.894 9.80682C147.126 9.72396 147.327 9.60133 147.496 9.43892C147.665 9.27652 147.794 9.07599 147.884 8.83736L149.291 9.09091C149.178 9.50521 148.976 9.86813 148.684 10.1797C148.396 10.4879 148.033 10.7282 147.595 10.9006C147.161 11.0696 146.666 11.1541 146.109 11.1541Z" fill="black"/>
</svg>
