<svg width="103" height="15" viewBox="0 0 103 15" fill="none" xmlns="http://www.w3.org/2000/svg">
<path d="M3.22159 11.169C2.73769 11.169 2.30019 11.0795 1.90909 10.9006C1.51799 10.7183 1.2081 10.4548 0.979403 10.1101C0.754025 9.76539 0.641335 9.3428 0.641335 8.84233C0.641335 8.41146 0.724195 8.05682 0.889915 7.77841C1.05563 7.5 1.27936 7.27959 1.56108 7.11719C1.8428 6.95478 2.15767 6.83215 2.50568 6.74929C2.85369 6.66643 3.20833 6.60346 3.5696 6.56037C4.02699 6.50734 4.3982 6.46425 4.68324 6.43111C4.96828 6.39465 5.17543 6.33665 5.30469 6.2571C5.43395 6.17756 5.49858 6.0483 5.49858 5.86932V5.83452C5.49858 5.40033 5.37595 5.06392 5.13068 4.82528C4.88873 4.58665 4.52746 4.46733 4.04688 4.46733C3.5464 4.46733 3.15199 4.57836 2.86364 4.80043C2.5786 5.01918 2.38139 5.26278 2.27202 5.53125L0.875 5.21307C1.04072 4.74905 1.28267 4.37453 1.60085 4.08949C1.92235 3.80114 2.2919 3.59233 2.70952 3.46307C3.12713 3.33049 3.56629 3.2642 4.02699 3.2642C4.33191 3.2642 4.65507 3.30066 4.99645 3.37358C5.34115 3.44318 5.66264 3.57244 5.96094 3.76136C6.26255 3.95028 6.50947 4.22041 6.7017 4.57173C6.89394 4.91974 6.99006 5.37216 6.99006 5.92898V11H5.53835V9.95597H5.47869C5.38258 10.1482 5.2384 10.3371 5.04616 10.5227C4.85393 10.7083 4.60701 10.8625 4.3054 10.9851C4.00379 11.1077 3.64252 11.169 3.22159 11.169ZM3.54474 9.97585C3.95573 9.97585 4.30706 9.89465 4.59872 9.73224C4.8937 9.56984 5.11742 9.35772 5.26989 9.09588C5.42566 8.83073 5.50355 8.54735 5.50355 8.24574V7.26136C5.45052 7.31439 5.34777 7.36411 5.19531 7.41051C5.04616 7.4536 4.87547 7.49171 4.68324 7.52486C4.491 7.55469 4.30374 7.58286 4.12145 7.60938C3.93916 7.63258 3.7867 7.65246 3.66406 7.66903C3.37571 7.70549 3.11222 7.76681 2.87358 7.85298C2.63826 7.93916 2.44934 8.06345 2.30682 8.22585C2.16761 8.38494 2.09801 8.59706 2.09801 8.86222C2.09801 9.23011 2.2339 9.50852 2.50568 9.69744C2.77746 9.88305 3.12382 9.97585 3.54474 9.97585ZM8.96999 11V3.36364H10.4068V4.5767H10.4863C10.6255 4.16572 10.8708 3.84257 11.2221 3.60724C11.5768 3.36861 11.9778 3.24929 12.4252 3.24929C12.5181 3.24929 12.6274 3.2526 12.7534 3.25923C12.8826 3.26586 12.9837 3.27415 13.0566 3.28409V4.70597C12.997 4.68939 12.8909 4.67116 12.7385 4.65128C12.586 4.62808 12.4335 4.61648 12.2811 4.61648C11.9297 4.61648 11.6165 4.69105 11.3414 4.8402C11.0697 4.98603 10.8542 5.18987 10.6951 5.4517C10.536 5.71023 10.4565 6.00521 10.4565 6.33665V11H8.96999ZM14.343 11V3.36364H15.7798V4.5767H15.8594C15.9986 4.16572 16.2438 3.84257 16.5952 3.60724C16.9498 3.36861 17.3509 3.24929 17.7983 3.24929C17.8911 3.24929 18.0005 3.2526 18.1264 3.25923C18.2557 3.26586 18.3568 3.27415 18.4297 3.28409V4.70597C18.37 4.68939 18.264 4.67116 18.1115 4.65128C17.959 4.62808 17.8066 4.61648 17.6541 4.61648C17.3028 4.61648 16.9896 4.69105 16.7145 4.8402C16.4427 4.98603 16.2273 5.18987 16.0682 5.4517C15.9091 5.71023 15.8295 6.00521 15.8295 6.33665V11H14.343ZM22.6593 11.1541C21.9434 11.1541 21.3186 10.9901 20.785 10.6619C20.2514 10.3338 19.8371 9.87476 19.5421 9.2848C19.2471 8.69484 19.0996 8.00544 19.0996 7.21662C19.0996 6.42448 19.2471 5.73177 19.5421 5.13849C19.8371 4.54522 20.2514 4.08452 20.785 3.75639C21.3186 3.42827 21.9434 3.2642 22.6593 3.2642C23.3752 3.2642 23.9999 3.42827 24.5336 3.75639C25.0672 4.08452 25.4815 4.54522 25.7765 5.13849C26.0714 5.73177 26.2189 6.42448 26.2189 7.21662C26.2189 8.00544 26.0714 8.69484 25.7765 9.2848C25.4815 9.87476 25.0672 10.3338 24.5336 10.6619C23.9999 10.9901 23.3752 11.1541 22.6593 11.1541ZM22.6642 9.90625C23.1283 9.90625 23.5127 9.78362 23.8176 9.53835C24.1226 9.29309 24.348 8.96662 24.4938 8.55895C24.6429 8.15128 24.7175 7.70218 24.7175 7.21165C24.7175 6.72443 24.6429 6.27699 24.4938 5.86932C24.348 5.45833 24.1226 5.12855 23.8176 4.87997C23.5127 4.63139 23.1283 4.5071 22.6642 4.5071C22.1969 4.5071 21.8091 4.63139 21.5009 4.87997C21.196 5.12855 20.9689 5.45833 20.8198 5.86932C20.6739 6.27699 20.601 6.72443 20.601 7.21165C20.601 7.70218 20.6739 8.15128 20.8198 8.55895C20.9689 8.96662 21.196 9.29309 21.5009 9.53835C21.8091 9.78362 22.1969 9.90625 22.6642 9.90625ZM29.3013 11L27.0542 3.36364H28.5904L30.0868 8.97159H30.1614L31.6628 3.36364H33.199L34.6905 8.94673H34.7651L36.2516 3.36364H37.7878L35.5456 11H34.0293L32.4782 5.48651H32.3638L30.8127 11H29.3013ZM44.9208 5.22798L43.5735 5.46662C43.5172 5.29427 43.4277 5.13021 43.305 4.97443C43.1857 4.81865 43.0233 4.69105 42.8178 4.59162C42.6123 4.49219 42.3555 4.44247 42.0472 4.44247C41.6263 4.44247 41.275 4.53693 40.9933 4.72585C40.7115 4.91146 40.5707 5.15175 40.5707 5.44673C40.5707 5.70194 40.6651 5.90743 40.854 6.06321C41.043 6.21899 41.3479 6.34659 41.7688 6.44602L42.9819 6.72443C43.6845 6.88684 44.2082 7.13707 44.5529 7.47514C44.8976 7.81321 45.07 8.25237 45.07 8.79261C45.07 9.25 44.9374 9.65767 44.6722 10.0156C44.4104 10.3703 44.0442 10.6487 43.5735 10.8509C43.1062 11.053 42.5643 11.1541 41.9478 11.1541C41.0927 11.1541 40.395 10.9718 39.8548 10.6072C39.3145 10.2393 38.9831 9.71733 38.8604 9.04119L40.2972 8.82244C40.3867 9.19697 40.5707 9.48035 40.8491 9.67259C41.1275 9.86151 41.4904 9.95597 41.9379 9.95597C42.4251 9.95597 42.8145 9.85488 43.1062 9.6527C43.3978 9.44721 43.5437 9.19697 43.5437 8.90199C43.5437 8.66335 43.4542 8.46283 43.2752 8.30043C43.0996 8.13802 42.8294 8.01539 42.4648 7.93253L41.1722 7.64915C40.4596 7.48674 39.9326 7.22822 39.5913 6.87358C39.2532 6.51894 39.0842 6.06984 39.0842 5.52628C39.0842 5.07552 39.2101 4.68111 39.462 4.34304C39.7139 4.00497 40.0619 3.74148 40.506 3.55256C40.9502 3.36032 41.4589 3.2642 42.0323 3.2642C42.8576 3.2642 43.5072 3.44318 43.9812 3.80114C44.4551 4.15578 44.7683 4.63139 44.9208 5.22798ZM51.2037 6.05327V7.34091H46.6895V6.05327H51.2037ZM56.7495 3.36364V4.55682H52.5783V3.36364H56.7495ZM53.6969 1.53409H55.1834V8.75781C55.1834 9.04616 55.2265 9.26326 55.3127 9.40909C55.3989 9.55161 55.5099 9.64938 55.6458 9.70241C55.785 9.75213 55.9358 9.77699 56.0982 9.77699C56.2175 9.77699 56.3219 9.7687 56.4114 9.75213C56.5009 9.73556 56.5705 9.7223 56.6202 9.71236L56.8887 10.9403C56.8025 10.9735 56.6799 11.0066 56.5208 11.0398C56.3617 11.0762 56.1628 11.0961 55.9242 11.0994C55.5331 11.1061 55.1685 11.0365 54.8304 10.8906C54.4924 10.7448 54.2189 10.5194 54.0101 10.2145C53.8013 9.90956 53.6969 9.52675 53.6969 9.06605V1.53409ZM58.3938 11V3.36364H59.8306V4.5767H59.9102C60.0494 4.16572 60.2946 3.84257 60.646 3.60724C61.0006 3.36861 61.4016 3.24929 61.8491 3.24929C61.9419 3.24929 62.0513 3.2526 62.1772 3.25923C62.3065 3.26586 62.4076 3.27415 62.4805 3.28409V4.70597C62.4208 4.68939 62.3147 4.67116 62.1623 4.65128C62.0098 4.62808 61.8574 4.61648 61.7049 4.61648C61.3536 4.61648 61.0404 4.69105 60.7653 4.8402C60.4935 4.98603 60.2781 5.18987 60.119 5.4517C59.9599 5.71023 59.8803 6.00521 59.8803 6.33665V11H58.3938ZM63.7669 11V3.36364H65.2534V11H63.7669ZM64.5176 2.18537C64.2591 2.18537 64.037 2.09919 63.8514 1.92685C63.6691 1.75118 63.5779 1.54238 63.5779 1.30043C63.5779 1.05516 63.6691 0.846354 63.8514 0.674005C64.037 0.498342 64.2591 0.410511 64.5176 0.410511C64.7761 0.410511 64.9965 0.498342 65.1788 0.674005C65.3644 0.846354 65.4572 1.05516 65.4572 1.30043C65.4572 1.54238 65.3644 1.75118 65.1788 1.92685C64.9965 2.09919 64.7761 2.18537 64.5176 2.18537ZM69.4755 11.169C68.9916 11.169 68.5541 11.0795 68.163 10.9006C67.7719 10.7183 67.462 10.4548 67.2333 10.1101C67.0079 9.76539 66.8952 9.3428 66.8952 8.84233C66.8952 8.41146 66.9781 8.05682 67.1438 7.77841C67.3095 7.5 67.5333 7.27959 67.815 7.11719C68.0967 6.95478 68.4116 6.83215 68.7596 6.74929C69.1076 6.66643 69.4622 6.60346 69.8235 6.56037C70.2809 6.50734 70.6521 6.46425 70.9371 6.43111C71.2222 6.39465 71.4293 6.33665 71.5586 6.2571C71.6879 6.17756 71.7525 6.0483 71.7525 5.86932V5.83452C71.7525 5.40033 71.6299 5.06392 71.3846 4.82528C71.1426 4.58665 70.7814 4.46733 70.3008 4.46733C69.8003 4.46733 69.4059 4.57836 69.1175 4.80043C68.8325 5.01918 68.6353 5.26278 68.5259 5.53125L67.1289 5.21307C67.2946 4.74905 67.5366 4.37453 67.8548 4.08949C68.1763 3.80114 68.5458 3.59233 68.9634 3.46307C69.381 3.33049 69.8202 3.2642 70.2809 3.2642C70.5858 3.2642 70.909 3.30066 71.2504 3.37358C71.5951 3.44318 71.9165 3.57244 72.2148 3.76136C72.5165 3.95028 72.7634 4.22041 72.9556 4.57173C73.1478 4.91974 73.244 5.37216 73.244 5.92898V11H71.7923V9.95597H71.7326C71.6365 10.1482 71.4923 10.3371 71.3001 10.5227C71.1078 10.7083 70.8609 10.8625 70.5593 10.9851C70.2577 11.1077 69.8964 11.169 69.4755 11.169ZM69.7987 9.97585C70.2096 9.97585 70.561 9.89465 70.8526 9.73224C71.1476 9.56984 71.3713 9.35772 71.5238 9.09588C71.6796 8.83073 71.7575 8.54735 71.7575 8.24574V7.26136C71.7044 7.31439 71.6017 7.36411 71.4492 7.41051C71.3001 7.4536 71.1294 7.49171 70.9371 7.52486C70.7449 7.55469 70.5576 7.58286 70.3754 7.60938C70.1931 7.63258 70.0406 7.65246 69.918 7.66903C69.6296 7.70549 69.3661 7.76681 69.1275 7.85298C68.8922 7.93916 68.7032 8.06345 68.5607 8.22585C68.4215 8.38494 68.3519 8.59706 68.3519 8.86222C68.3519 9.23011 68.4878 9.50852 68.7596 9.69744C69.0314 9.88305 69.3777 9.97585 69.7987 9.97585ZM76.7104 6.46591V11H75.2239V3.36364H76.6507V4.60653H76.7452C76.9209 4.20218 77.196 3.87737 77.5705 3.6321C77.9483 3.38684 78.4239 3.2642 78.9973 3.2642C79.5177 3.2642 79.9734 3.37358 80.3645 3.59233C80.7556 3.80777 81.0589 4.12926 81.2743 4.55682C81.4898 4.98437 81.5975 5.51302 81.5975 6.14276V11H80.111V6.32173C80.111 5.76823 79.9668 5.3357 79.6784 5.02415C79.3901 4.70928 78.994 4.55185 78.4902 4.55185C78.1455 4.55185 77.839 4.62642 77.5705 4.77557C77.3053 4.92472 77.0949 5.14347 76.9391 5.43182C76.7866 5.71686 76.7104 6.06155 76.7104 6.46591ZM86.7928 14.0227C86.1863 14.0227 85.6642 13.9432 85.2267 13.7841C84.7926 13.625 84.4379 13.4145 84.1628 13.1527C83.8877 12.8909 83.6822 12.6042 83.5463 12.2926L84.824 11.7656C84.9135 11.9115 85.0328 12.0656 85.182 12.228C85.3345 12.3937 85.54 12.5346 85.7985 12.6506C86.0603 12.7666 86.3967 12.8246 86.8077 12.8246C87.3712 12.8246 87.8368 12.687 88.2047 12.4119C88.5726 12.1402 88.7566 11.706 88.7566 11.1094V9.60795H88.6621C88.5726 9.77036 88.4434 9.95099 88.2743 10.1499C88.1086 10.3487 87.8799 10.5211 87.5882 10.6669C87.2966 10.8127 86.9171 10.8857 86.4498 10.8857C85.8465 10.8857 85.303 10.7448 84.8191 10.4631C84.3385 10.178 83.9573 9.75876 83.6756 9.20526C83.3972 8.64844 83.258 7.96401 83.258 7.15199C83.258 6.33996 83.3955 5.64394 83.6706 5.06392C83.949 4.4839 84.3302 4.03977 84.8141 3.73153C85.298 3.41998 85.8465 3.2642 86.4597 3.2642C86.9337 3.2642 87.3165 3.34375 87.6081 3.50284C87.8998 3.65862 88.1268 3.84091 88.2892 4.04972C88.455 4.25852 88.5826 4.44247 88.6721 4.60156H88.7814V3.36364H90.2381V11.169C90.2381 11.8253 90.0856 12.3639 89.7807 12.7848C89.4758 13.2057 89.0632 13.5173 88.5428 13.7195C88.0257 13.9216 87.4424 14.0227 86.7928 14.0227ZM86.7779 9.6527C87.2054 9.6527 87.5667 9.55327 87.8617 9.3544C88.16 9.15223 88.3854 8.86387 88.5378 8.48935C88.6936 8.11151 88.7715 7.65909 88.7715 7.1321C88.7715 6.61837 88.6953 6.16596 88.5428 5.77486C88.3903 5.38376 88.1666 5.07884 87.8716 4.86009C87.5766 4.63802 87.2121 4.52699 86.7779 4.52699C86.3304 4.52699 85.9576 4.64299 85.6593 4.875C85.361 5.10369 85.1356 5.41525 84.9831 5.80966C84.834 6.20407 84.7594 6.64489 84.7594 7.1321C84.7594 7.63258 84.8356 8.07173 84.9881 8.44957C85.1406 8.82741 85.3659 9.1224 85.6642 9.33452C85.9658 9.54664 86.3371 9.6527 86.7779 9.6527ZM93.7182 0.818182V11H92.2317V0.818182H93.7182ZM99.0092 11.1541C98.2569 11.1541 97.6089 10.9934 97.0653 10.6719C96.5251 10.3471 96.1075 9.89134 95.8125 9.30469C95.5208 8.71473 95.375 8.02367 95.375 7.23153C95.375 6.44934 95.5208 5.75994 95.8125 5.16335C96.1075 4.56676 96.5185 4.10109 97.0455 3.76633C97.5758 3.43158 98.1955 3.2642 98.9048 3.2642C99.3357 3.2642 99.7533 3.33546 100.158 3.47798C100.562 3.6205 100.925 3.84422 101.246 4.14915C101.568 4.45407 101.821 4.85014 102.007 5.33736C102.193 5.82126 102.286 6.40956 102.286 7.10227V7.62926H96.2152V6.51562H100.829C100.829 6.12453 100.749 5.77817 100.59 5.47656C100.431 5.17164 100.207 4.93134 99.919 4.75568C99.634 4.58002 99.2992 4.49219 98.9148 4.49219C98.4972 4.49219 98.1326 4.59493 97.821 4.80043C97.5128 5.0026 97.2741 5.26776 97.1051 5.59588C96.9394 5.92069 96.8565 6.27367 96.8565 6.65483V7.52486C96.8565 8.03527 96.946 8.46946 97.125 8.82741C97.3073 9.18537 97.5608 9.45881 97.8857 9.64773C98.2105 9.83333 98.59 9.92614 99.0241 9.92614C99.3059 9.92614 99.5627 9.88636 99.7947 9.80682C100.027 9.72396 100.227 9.60133 100.396 9.43892C100.565 9.27652 100.695 9.07599 100.784 8.83736L102.191 9.09091C102.078 9.50521 101.876 9.86813 101.585 10.1797C101.296 10.4879 100.933 10.7282 100.496 10.9006C100.062 11.0696 99.5661 11.1541 99.0092 11.1541Z" fill="black"/>
</svg>
