<svg width="123" height="12" viewBox="0 0 123 12" fill="none" xmlns="http://www.w3.org/2000/svg">
<path d="M3.22159 11.169C2.73769 11.169 2.30019 11.0795 1.90909 10.9006C1.51799 10.7183 1.2081 10.4548 0.979403 10.1101C0.754025 9.76539 0.641335 9.3428 0.641335 8.84233C0.641335 8.41146 0.724195 8.05682 0.889915 7.77841C1.05563 7.5 1.27936 7.27959 1.56108 7.11719C1.8428 6.95478 2.15767 6.83215 2.50568 6.74929C2.85369 6.66643 3.20833 6.60346 3.5696 6.56037C4.02699 6.50734 4.3982 6.46425 4.68324 6.43111C4.96828 6.39465 5.17543 6.33665 5.30469 6.2571C5.43395 6.17756 5.49858 6.0483 5.49858 5.86932V5.83452C5.49858 5.40033 5.37595 5.06392 5.13068 4.82528C4.88873 4.58665 4.52746 4.46733 4.04688 4.46733C3.5464 4.46733 3.15199 4.57836 2.86364 4.80043C2.5786 5.01918 2.38139 5.26278 2.27202 5.53125L0.875 5.21307C1.04072 4.74905 1.28267 4.37453 1.60085 4.08949C1.92235 3.80114 2.2919 3.59233 2.70952 3.46307C3.12713 3.33049 3.56629 3.2642 4.02699 3.2642C4.33191 3.2642 4.65507 3.30066 4.99645 3.37358C5.34115 3.44318 5.66264 3.57244 5.96094 3.76136C6.26255 3.95028 6.50947 4.22041 6.7017 4.57173C6.89394 4.91974 6.99006 5.37216 6.99006 5.92898V11H5.53835V9.95597H5.47869C5.38258 10.1482 5.2384 10.3371 5.04616 10.5227C4.85393 10.7083 4.60701 10.8625 4.3054 10.9851C4.00379 11.1077 3.64252 11.169 3.22159 11.169ZM3.54474 9.97585C3.95573 9.97585 4.30706 9.89465 4.59872 9.73224C4.8937 9.56984 5.11742 9.35772 5.26989 9.09588C5.42566 8.83073 5.50355 8.54735 5.50355 8.24574V7.26136C5.45052 7.31439 5.34777 7.36411 5.19531 7.41051C5.04616 7.4536 4.87547 7.49171 4.68324 7.52486C4.491 7.55469 4.30374 7.58286 4.12145 7.60938C3.93916 7.63258 3.7867 7.65246 3.66406 7.66903C3.37571 7.70549 3.11222 7.76681 2.87358 7.85298C2.63826 7.93916 2.44934 8.06345 2.30682 8.22585C2.16761 8.38494 2.09801 8.59706 2.09801 8.86222C2.09801 9.23011 2.2339 9.50852 2.50568 9.69744C2.77746 9.88305 3.12382 9.97585 3.54474 9.97585ZM8.96999 11V3.36364H10.4068V4.5767H10.4863C10.6255 4.16572 10.8708 3.84257 11.2221 3.60724C11.5768 3.36861 11.9778 3.24929 12.4252 3.24929C12.5181 3.24929 12.6274 3.2526 12.7534 3.25923C12.8826 3.26586 12.9837 3.27415 13.0566 3.28409V4.70597C12.997 4.68939 12.8909 4.67116 12.7385 4.65128C12.586 4.62808 12.4335 4.61648 12.2811 4.61648C11.9297 4.61648 11.6165 4.69105 11.3414 4.8402C11.0697 4.98603 10.8542 5.18987 10.6951 5.4517C10.536 5.71023 10.4565 6.00521 10.4565 6.33665V11H8.96999ZM14.343 11V3.36364H15.7798V4.5767H15.8594C15.9986 4.16572 16.2438 3.84257 16.5952 3.60724C16.9498 3.36861 17.3509 3.24929 17.7983 3.24929C17.8911 3.24929 18.0005 3.2526 18.1264 3.25923C18.2557 3.26586 18.3568 3.27415 18.4297 3.28409V4.70597C18.37 4.68939 18.264 4.67116 18.1115 4.65128C17.959 4.62808 17.8066 4.61648 17.6541 4.61648C17.3028 4.61648 16.9896 4.69105 16.7145 4.8402C16.4427 4.98603 16.2273 5.18987 16.0682 5.4517C15.9091 5.71023 15.8295 6.00521 15.8295 6.33665V11H14.343ZM22.6593 11.1541C21.9434 11.1541 21.3186 10.9901 20.785 10.6619C20.2514 10.3338 19.8371 9.87476 19.5421 9.2848C19.2471 8.69484 19.0996 8.00544 19.0996 7.21662C19.0996 6.42448 19.2471 5.73177 19.5421 5.13849C19.8371 4.54522 20.2514 4.08452 20.785 3.75639C21.3186 3.42827 21.9434 3.2642 22.6593 3.2642C23.3752 3.2642 23.9999 3.42827 24.5336 3.75639C25.0672 4.08452 25.4815 4.54522 25.7765 5.13849C26.0714 5.73177 26.2189 6.42448 26.2189 7.21662C26.2189 8.00544 26.0714 8.69484 25.7765 9.2848C25.4815 9.87476 25.0672 10.3338 24.5336 10.6619C23.9999 10.9901 23.3752 11.1541 22.6593 11.1541ZM22.6642 9.90625C23.1283 9.90625 23.5127 9.78362 23.8176 9.53835C24.1226 9.29309 24.348 8.96662 24.4938 8.55895C24.6429 8.15128 24.7175 7.70218 24.7175 7.21165C24.7175 6.72443 24.6429 6.27699 24.4938 5.86932C24.348 5.45833 24.1226 5.12855 23.8176 4.87997C23.5127 4.63139 23.1283 4.5071 22.6642 4.5071C22.1969 4.5071 21.8091 4.63139 21.5009 4.87997C21.196 5.12855 20.9689 5.45833 20.8198 5.86932C20.6739 6.27699 20.601 6.72443 20.601 7.21165C20.601 7.70218 20.6739 8.15128 20.8198 8.55895C20.9689 8.96662 21.196 9.29309 21.5009 9.53835C21.8091 9.78362 22.1969 9.90625 22.6642 9.90625ZM29.3013 11L27.0542 3.36364H28.5904L30.0868 8.97159H30.1614L31.6628 3.36364H33.199L34.6905 8.94673H34.7651L36.2516 3.36364H37.7878L35.5456 11H34.0293L32.4782 5.48651H32.3638L30.8127 11H29.3013ZM43.6978 6.05327V7.34091H39.1836V6.05327H43.6978ZM45.7983 11V0.818182H47.2848V4.60156H47.3743C47.4605 4.44247 47.5848 4.25852 47.7472 4.04972C47.9096 3.84091 48.1349 3.65862 48.4233 3.50284C48.7116 3.34375 49.0928 3.2642 49.5668 3.2642C50.1832 3.2642 50.7334 3.41998 51.2173 3.73153C51.7012 4.04309 52.0807 4.49219 52.3558 5.07884C52.6342 5.66548 52.7734 6.37145 52.7734 7.19673C52.7734 8.02202 52.6359 8.72964 52.3608 9.3196C52.0857 9.90625 51.7079 10.3587 51.2273 10.6768C50.7467 10.9917 50.1982 11.1491 49.5817 11.1491C49.1177 11.1491 48.7382 11.0713 48.4432 10.9155C48.1515 10.7597 47.9228 10.5774 47.7571 10.3686C47.5914 10.1598 47.4638 9.9742 47.3743 9.81179H47.25V11H45.7983ZM47.255 7.18182C47.255 7.71875 47.3329 8.18939 47.4886 8.59375C47.6444 8.99811 47.8698 9.31463 48.1648 9.54332C48.4598 9.7687 48.821 9.88139 49.2486 9.88139C49.6927 9.88139 50.0639 9.76373 50.3622 9.52841C50.6605 9.28977 50.8859 8.96662 51.0384 8.55895C51.1941 8.15128 51.272 7.69223 51.272 7.18182C51.272 6.67803 51.1958 6.22562 51.0433 5.82457C50.8942 5.42353 50.6688 5.10701 50.3672 4.875C50.0689 4.64299 49.696 4.52699 49.2486 4.52699C48.8177 4.52699 48.4531 4.63802 48.1548 4.86009C47.8598 5.08215 47.6361 5.39205 47.4837 5.78977C47.3312 6.1875 47.255 6.65151 47.255 7.18182ZM55.9292 0.818182V11H54.4426V0.818182H55.9292ZM61.1456 11.1541C60.4297 11.1541 59.8049 10.9901 59.2713 10.6619C58.7377 10.3338 58.3234 9.87476 58.0284 9.2848C57.7334 8.69484 57.5859 8.00544 57.5859 7.21662C57.5859 6.42448 57.7334 5.73177 58.0284 5.13849C58.3234 4.54522 58.7377 4.08452 59.2713 3.75639C59.8049 3.42827 60.4297 3.2642 61.1456 3.2642C61.8615 3.2642 62.4863 3.42827 63.0199 3.75639C63.5535 4.08452 63.9678 4.54522 64.2628 5.13849C64.5578 5.73177 64.7053 6.42448 64.7053 7.21662C64.7053 8.00544 64.5578 8.69484 64.2628 9.2848C63.9678 9.87476 63.5535 10.3338 63.0199 10.6619C62.4863 10.9901 61.8615 11.1541 61.1456 11.1541ZM61.1506 9.90625C61.6146 9.90625 61.9991 9.78362 62.304 9.53835C62.6089 9.29309 62.8343 8.96662 62.9801 8.55895C63.1293 8.15128 63.2038 7.70218 63.2038 7.21165C63.2038 6.72443 63.1293 6.27699 62.9801 5.86932C62.8343 5.45833 62.6089 5.12855 62.304 4.87997C61.9991 4.63139 61.6146 4.5071 61.1506 4.5071C60.6832 4.5071 60.2955 4.63139 59.9872 4.87997C59.6823 5.12855 59.4553 5.45833 59.3061 5.86932C59.1603 6.27699 59.0874 6.72443 59.0874 7.21165C59.0874 7.70218 59.1603 8.15128 59.3061 8.55895C59.4553 8.96662 59.6823 9.29309 59.9872 9.53835C60.2955 9.78362 60.6832 9.90625 61.1506 9.90625ZM69.5811 11.1541C68.842 11.1541 68.2057 10.9867 67.6721 10.652C67.1417 10.3139 66.7341 9.84825 66.449 9.25497C66.164 8.66169 66.0215 7.98224 66.0215 7.21662C66.0215 6.44105 66.1673 5.75663 66.459 5.16335C66.7507 4.56676 67.1616 4.10109 67.6919 3.76633C68.2222 3.43158 68.847 3.2642 69.5662 3.2642C70.1462 3.2642 70.6633 3.37192 71.1174 3.58736C71.5714 3.79948 71.9377 4.09777 72.2161 4.48224C72.4978 4.86671 72.6652 5.31581 72.7182 5.82955H71.2715C71.1919 5.47159 71.0096 5.16335 70.7246 4.90483C70.4429 4.64631 70.065 4.51705 69.5911 4.51705C69.1768 4.51705 68.8139 4.62642 68.5023 4.84517C68.1941 5.06061 67.9538 5.36884 67.7814 5.76989C67.6091 6.16761 67.5229 6.63826 67.5229 7.18182C67.5229 7.73864 67.6074 8.21922 67.7765 8.62358C67.9455 9.02794 68.1841 9.34115 68.4924 9.56321C68.8039 9.78527 69.1702 9.89631 69.5911 9.89631C69.8728 9.89631 70.128 9.84493 70.3567 9.74219C70.5887 9.63613 70.7826 9.48532 70.9384 9.28977C71.0975 9.09422 71.2085 8.8589 71.2715 8.58381H72.7182C72.6652 9.07765 72.5044 9.51847 72.236 9.90625C71.9675 10.294 71.6079 10.599 71.1571 10.821C70.7097 11.0431 70.1844 11.1541 69.5811 11.1541ZM75.6751 8.4098L75.6651 6.59517H75.9237L78.9663 3.36364H80.7461L77.2759 7.04261H77.0423L75.6751 8.4098ZM74.3079 11V0.818182H75.7944V11H74.3079ZM79.1303 11L76.396 7.37074L77.4201 6.33168L80.9549 11H79.1303ZM86.0806 6.05327V7.34091H81.5664V6.05327H86.0806ZM90.9205 11.1491C90.304 11.1491 89.7538 10.9917 89.2699 10.6768C88.7893 10.3587 88.4115 9.90625 88.1364 9.3196C87.8646 8.72964 87.7287 8.02202 87.7287 7.19673C87.7287 6.37145 87.8662 5.66548 88.1413 5.07884C88.4197 4.49219 88.8009 4.04309 89.2848 3.73153C89.7687 3.41998 90.3172 3.2642 90.9304 3.2642C91.4044 3.2642 91.7855 3.34375 92.0739 3.50284C92.3655 3.65862 92.5909 3.84091 92.75 4.04972C92.9124 4.25852 93.0384 4.44247 93.1278 4.60156H93.2173V0.818182H94.7038V11H93.2521V9.81179H93.1278C93.0384 9.9742 92.9091 10.1598 92.7401 10.3686C92.5743 10.5774 92.3456 10.7597 92.054 10.9155C91.7623 11.0713 91.3845 11.1491 90.9205 11.1491ZM91.2486 9.88139C91.6761 9.88139 92.0374 9.7687 92.3324 9.54332C92.6307 9.31463 92.8561 8.99811 93.0085 8.59375C93.1643 8.18939 93.2422 7.71875 93.2422 7.18182C93.2422 6.65151 93.166 6.1875 93.0135 5.78977C92.861 5.39205 92.6373 5.08215 92.3423 4.86009C92.0473 4.63802 91.6828 4.52699 91.2486 4.52699C90.8011 4.52699 90.4283 4.64299 90.13 4.875C89.8317 5.10701 89.6063 5.42353 89.4538 5.82457C89.3047 6.22562 89.2301 6.67803 89.2301 7.18182C89.2301 7.69223 89.3063 8.15128 89.4588 8.55895C89.6113 8.96662 89.8366 9.28977 90.1349 9.52841C90.4366 9.76373 90.8078 9.88139 91.2486 9.88139ZM100.042 11.1541C99.3262 11.1541 98.7014 10.9901 98.1678 10.6619C97.6342 10.3338 97.2199 9.87476 96.9249 9.2848C96.6299 8.69484 96.4824 8.00544 96.4824 7.21662C96.4824 6.42448 96.6299 5.73177 96.9249 5.13849C97.2199 4.54522 97.6342 4.08452 98.1678 3.75639C98.7014 3.42827 99.3262 3.2642 100.042 3.2642C100.758 3.2642 101.383 3.42827 101.916 3.75639C102.45 4.08452 102.864 4.54522 103.159 5.13849C103.454 5.73177 103.602 6.42448 103.602 7.21662C103.602 8.00544 103.454 8.69484 103.159 9.2848C102.864 9.87476 102.45 10.3338 101.916 10.6619C101.383 10.9901 100.758 11.1541 100.042 11.1541ZM100.047 9.90625C100.511 9.90625 100.896 9.78362 101.2 9.53835C101.505 9.29309 101.731 8.96662 101.877 8.55895C102.026 8.15128 102.1 7.70218 102.1 7.21165C102.1 6.72443 102.026 6.27699 101.877 5.86932C101.731 5.45833 101.505 5.12855 101.2 4.87997C100.896 4.63139 100.511 4.5071 100.047 4.5071C99.5797 4.5071 99.1919 4.63139 98.8837 4.87997C98.5788 5.12855 98.3517 5.45833 98.2026 5.86932C98.0568 6.27699 97.9838 6.72443 97.9838 7.21165C97.9838 7.70218 98.0568 8.15128 98.2026 8.55895C98.3517 8.96662 98.5788 9.29309 98.8837 9.53835C99.1919 9.78362 99.5797 9.90625 100.047 9.90625ZM106.684 11L104.437 3.36364H105.973L107.47 8.97159H107.544L109.046 3.36364H110.582L112.073 8.94673H112.148L113.634 3.36364H115.171L112.928 11H111.412L109.861 5.48651H109.747L108.195 11H106.684ZM118.068 6.46591V11H116.581V3.36364H118.008V4.60653H118.103C118.278 4.20218 118.553 3.87737 118.928 3.6321C119.306 3.38684 119.781 3.2642 120.355 3.2642C120.875 3.2642 121.331 3.37358 121.722 3.59233C122.113 3.80777 122.416 4.12926 122.632 4.55682C122.847 4.98437 122.955 5.51302 122.955 6.14276V11H121.468V6.32173C121.468 5.76823 121.324 5.3357 121.036 5.02415C120.748 4.70928 120.351 4.55185 119.848 4.55185C119.503 4.55185 119.196 4.62642 118.928 4.77557C118.663 4.92472 118.452 5.14347 118.297 5.43182C118.144 5.71686 118.068 6.06155 118.068 6.46591Z" fill="black"/>
</svg>
