<svg width="81" height="12" viewBox="0 0 81 12" fill="none" xmlns="http://www.w3.org/2000/svg">
<path d="M3.22159 11.169C2.73769 11.169 2.30019 11.0795 1.90909 10.9006C1.51799 10.7183 1.2081 10.4548 0.979403 10.1101C0.754025 9.76539 0.641335 9.3428 0.641335 8.84233C0.641335 8.41146 0.724195 8.05682 0.889915 7.77841C1.05563 7.5 1.27936 7.27959 1.56108 7.11719C1.8428 6.95478 2.15767 6.83215 2.50568 6.74929C2.85369 6.66643 3.20833 6.60346 3.5696 6.56037C4.02699 6.50734 4.3982 6.46425 4.68324 6.43111C4.96828 6.39465 5.17543 6.33665 5.30469 6.2571C5.43395 6.17756 5.49858 6.0483 5.49858 5.86932V5.83452C5.49858 5.40033 5.37595 5.06392 5.13068 4.82528C4.88873 4.58665 4.52746 4.46733 4.04688 4.46733C3.5464 4.46733 3.15199 4.57836 2.86364 4.80043C2.5786 5.01918 2.38139 5.26278 2.27202 5.53125L0.875 5.21307C1.04072 4.74905 1.28267 4.37453 1.60085 4.08949C1.92235 3.80114 2.2919 3.59233 2.70952 3.46307C3.12713 3.33049 3.56629 3.2642 4.02699 3.2642C4.33191 3.2642 4.65507 3.30066 4.99645 3.37358C5.34115 3.44318 5.66264 3.57244 5.96094 3.76136C6.26255 3.95028 6.50947 4.22041 6.7017 4.57173C6.89394 4.91974 6.99006 5.37216 6.99006 5.92898V11H5.53835V9.95597H5.47869C5.38258 10.1482 5.2384 10.3371 5.04616 10.5227C4.85393 10.7083 4.60701 10.8625 4.3054 10.9851C4.00379 11.1077 3.64252 11.169 3.22159 11.169ZM3.54474 9.97585C3.95573 9.97585 4.30706 9.89465 4.59872 9.73224C4.8937 9.56984 5.11742 9.35772 5.26989 9.09588C5.42566 8.83073 5.50355 8.54735 5.50355 8.24574V7.26136C5.45052 7.31439 5.34777 7.36411 5.19531 7.41051C5.04616 7.4536 4.87547 7.49171 4.68324 7.52486C4.491 7.55469 4.30374 7.58286 4.12145 7.60938C3.93916 7.63258 3.7867 7.65246 3.66406 7.66903C3.37571 7.70549 3.11222 7.76681 2.87358 7.85298C2.63826 7.93916 2.44934 8.06345 2.30682 8.22585C2.16761 8.38494 2.09801 8.59706 2.09801 8.86222C2.09801 9.23011 2.2339 9.50852 2.50568 9.69744C2.77746 9.88305 3.12382 9.97585 3.54474 9.97585ZM8.96999 11V3.36364H10.4068V4.5767H10.4863C10.6255 4.16572 10.8708 3.84257 11.2221 3.60724C11.5768 3.36861 11.9778 3.24929 12.4252 3.24929C12.5181 3.24929 12.6274 3.2526 12.7534 3.25923C12.8826 3.26586 12.9837 3.27415 13.0566 3.28409V4.70597C12.997 4.68939 12.8909 4.67116 12.7385 4.65128C12.586 4.62808 12.4335 4.61648 12.2811 4.61648C11.9297 4.61648 11.6165 4.69105 11.3414 4.8402C11.0697 4.98603 10.8542 5.18987 10.6951 5.4517C10.536 5.71023 10.4565 6.00521 10.4565 6.33665V11H8.96999ZM14.343 11V3.36364H15.7798V4.5767H15.8594C15.9986 4.16572 16.2438 3.84257 16.5952 3.60724C16.9498 3.36861 17.3509 3.24929 17.7983 3.24929C17.8911 3.24929 18.0005 3.2526 18.1264 3.25923C18.2557 3.26586 18.3568 3.27415 18.4297 3.28409V4.70597C18.37 4.68939 18.264 4.67116 18.1115 4.65128C17.959 4.62808 17.8066 4.61648 17.6541 4.61648C17.3028 4.61648 16.9896 4.69105 16.7145 4.8402C16.4427 4.98603 16.2273 5.18987 16.0682 5.4517C15.9091 5.71023 15.8295 6.00521 15.8295 6.33665V11H14.343ZM22.6593 11.1541C21.9434 11.1541 21.3186 10.9901 20.785 10.6619C20.2514 10.3338 19.8371 9.87476 19.5421 9.2848C19.2471 8.69484 19.0996 8.00544 19.0996 7.21662C19.0996 6.42448 19.2471 5.73177 19.5421 5.13849C19.8371 4.54522 20.2514 4.08452 20.785 3.75639C21.3186 3.42827 21.9434 3.2642 22.6593 3.2642C23.3752 3.2642 23.9999 3.42827 24.5336 3.75639C25.0672 4.08452 25.4815 4.54522 25.7765 5.13849C26.0714 5.73177 26.2189 6.42448 26.2189 7.21662C26.2189 8.00544 26.0714 8.69484 25.7765 9.2848C25.4815 9.87476 25.0672 10.3338 24.5336 10.6619C23.9999 10.9901 23.3752 11.1541 22.6593 11.1541ZM22.6642 9.90625C23.1283 9.90625 23.5127 9.78362 23.8176 9.53835C24.1226 9.29309 24.348 8.96662 24.4938 8.55895C24.6429 8.15128 24.7175 7.70218 24.7175 7.21165C24.7175 6.72443 24.6429 6.27699 24.4938 5.86932C24.348 5.45833 24.1226 5.12855 23.8176 4.87997C23.5127 4.63139 23.1283 4.5071 22.6642 4.5071C22.1969 4.5071 21.8091 4.63139 21.5009 4.87997C21.196 5.12855 20.9689 5.45833 20.8198 5.86932C20.6739 6.27699 20.601 6.72443 20.601 7.21165C20.601 7.70218 20.6739 8.15128 20.8198 8.55895C20.9689 8.96662 21.196 9.29309 21.5009 9.53835C21.8091 9.78362 22.1969 9.90625 22.6642 9.90625ZM29.3013 11L27.0542 3.36364H28.5904L30.0868 8.97159H30.1614L31.6628 3.36364H33.199L34.6905 8.94673H34.7651L36.2516 3.36364H37.7878L35.5456 11H34.0293L32.4782 5.48651H32.3638L30.8127 11H29.3013ZM43.6978 6.05327V7.34091H39.1836V6.05327H43.6978ZM48.5376 11.1491C47.9212 11.1491 47.371 10.9917 46.8871 10.6768C46.4065 10.3587 46.0286 9.90625 45.7536 9.3196C45.4818 8.72964 45.3459 8.02202 45.3459 7.19673C45.3459 6.37145 45.4834 5.66548 45.7585 5.07884C46.0369 4.49219 46.4181 4.04309 46.902 3.73153C47.3859 3.41998 47.9344 3.2642 48.5476 3.2642C49.0215 3.2642 49.4027 3.34375 49.6911 3.50284C49.9827 3.65862 50.2081 3.84091 50.3672 4.04972C50.5296 4.25852 50.6555 4.44247 50.745 4.60156H50.8345V0.818182H52.321V11H50.8693V9.81179H50.745C50.6555 9.9742 50.5263 10.1598 50.3572 10.3686C50.1915 10.5774 49.9628 10.7597 49.6712 10.9155C49.3795 11.0713 49.0017 11.1491 48.5376 11.1491ZM48.8658 9.88139C49.2933 9.88139 49.6546 9.7687 49.9496 9.54332C50.2479 9.31463 50.4732 8.99811 50.6257 8.59375C50.7815 8.18939 50.8594 7.71875 50.8594 7.18182C50.8594 6.65151 50.7831 6.1875 50.6307 5.78977C50.4782 5.39205 50.2545 5.08215 49.9595 4.86009C49.6645 4.63802 49.3 4.52699 48.8658 4.52699C48.4183 4.52699 48.0455 4.64299 47.7472 4.875C47.4489 5.10701 47.2235 5.42353 47.071 5.82457C46.9219 6.22562 46.8473 6.67803 46.8473 7.18182C46.8473 7.69223 46.9235 8.15128 47.076 8.55895C47.2285 8.96662 47.4538 9.28977 47.7521 9.52841C48.0537 9.76373 48.425 9.88139 48.8658 9.88139ZM57.6593 11.1541C56.9434 11.1541 56.3186 10.9901 55.785 10.6619C55.2514 10.3338 54.8371 9.87476 54.5421 9.2848C54.2471 8.69484 54.0996 8.00544 54.0996 7.21662C54.0996 6.42448 54.2471 5.73177 54.5421 5.13849C54.8371 4.54522 55.2514 4.08452 55.785 3.75639C56.3186 3.42827 56.9434 3.2642 57.6593 3.2642C58.3752 3.2642 58.9999 3.42827 59.5336 3.75639C60.0672 4.08452 60.4815 4.54522 60.7765 5.13849C61.0714 5.73177 61.2189 6.42448 61.2189 7.21662C61.2189 8.00544 61.0714 8.69484 60.7765 9.2848C60.4815 9.87476 60.0672 10.3338 59.5336 10.6619C58.9999 10.9901 58.3752 11.1541 57.6593 11.1541ZM57.6642 9.90625C58.1283 9.90625 58.5127 9.78362 58.8176 9.53835C59.1226 9.29309 59.348 8.96662 59.4938 8.55895C59.6429 8.15128 59.7175 7.70218 59.7175 7.21165C59.7175 6.72443 59.6429 6.27699 59.4938 5.86932C59.348 5.45833 59.1226 5.12855 58.8176 4.87997C58.5127 4.63139 58.1283 4.5071 57.6642 4.5071C57.1969 4.5071 56.8091 4.63139 56.5009 4.87997C56.196 5.12855 55.9689 5.45833 55.8198 5.86932C55.6739 6.27699 55.601 6.72443 55.601 7.21165C55.601 7.70218 55.6739 8.15128 55.8198 8.55895C55.9689 8.96662 56.196 9.29309 56.5009 9.53835C56.8091 9.78362 57.1969 9.90625 57.6642 9.90625ZM64.3013 11L62.0542 3.36364H63.5904L65.0868 8.97159H65.1614L66.6628 3.36364H68.199L69.6905 8.94673H69.7651L71.2516 3.36364H72.7878L70.5456 11H69.0293L67.4782 5.48651H67.3638L65.8127 11H64.3013ZM75.685 6.46591V11H74.1985V3.36364H75.6254V4.60653H75.7198C75.8955 4.20218 76.1706 3.87737 76.5451 3.6321C76.9229 3.38684 77.3986 3.2642 77.9719 3.2642C78.4923 3.2642 78.948 3.37358 79.3391 3.59233C79.7302 3.80777 80.0335 4.12926 80.2489 4.55682C80.4644 4.98437 80.5721 5.51302 80.5721 6.14276V11H79.0856V6.32173C79.0856 5.76823 78.9414 5.3357 78.6531 5.02415C78.3647 4.70928 77.9686 4.55185 77.4648 4.55185C77.1201 4.55185 76.8136 4.62642 76.5451 4.77557C76.2799 4.92472 76.0695 5.14347 75.9137 5.43182C75.7612 5.71686 75.685 6.06155 75.685 6.46591Z" fill="black"/>
</svg>
