<svg width="114" height="11" viewBox="0 0 114 11" fill="none" xmlns="http://www.w3.org/2000/svg">
<path d="M3.22159 8.16903C2.73769 8.16903 2.30019 8.07955 1.90909 7.90057C1.51799 7.71828 1.2081 7.45478 0.979403 7.11009C0.754025 6.76539 0.641335 6.3428 0.641335 5.84233C0.641335 5.41146 0.724195 5.05682 0.889915 4.77841C1.05563 4.5 1.27936 4.27959 1.56108 4.11719C1.8428 3.95478 2.15767 3.83215 2.50568 3.74929C2.85369 3.66643 3.20833 3.60346 3.5696 3.56037C4.02699 3.50734 4.3982 3.46425 4.68324 3.43111C4.96828 3.39465 5.17543 3.33665 5.30469 3.2571C5.43395 3.17756 5.49858 3.0483 5.49858 2.86932V2.83452C5.49858 2.40033 5.37595 2.06392 5.13068 1.82528C4.88873 1.58665 4.52746 1.46733 4.04688 1.46733C3.5464 1.46733 3.15199 1.57836 2.86364 1.80043C2.5786 2.01918 2.38139 2.26278 2.27202 2.53125L0.875 2.21307C1.04072 1.74905 1.28267 1.37453 1.60085 1.08949C1.92235 0.801136 2.2919 0.592329 2.70952 0.463068C3.12713 0.330492 3.56629 0.264205 4.02699 0.264205C4.33191 0.264205 4.65507 0.300663 4.99645 0.37358C5.34115 0.443182 5.66264 0.572443 5.96094 0.761363C6.26255 0.950284 6.50947 1.22041 6.7017 1.57173C6.89394 1.91974 6.99006 2.37216 6.99006 2.92898V8H5.53835V6.95597H5.47869C5.38258 7.1482 5.2384 7.33712 5.04616 7.52273C4.85393 7.70833 4.60701 7.86245 4.3054 7.98509C4.00379 8.10772 3.64252 8.16903 3.22159 8.16903ZM3.54474 6.97585C3.95573 6.97585 4.30706 6.89465 4.59872 6.73224C4.8937 6.56984 5.11742 6.35772 5.26989 6.09588C5.42566 5.83073 5.50355 5.54735 5.50355 5.24574V4.26136C5.45052 4.31439 5.34777 4.36411 5.19531 4.41051C5.04616 4.4536 4.87547 4.49171 4.68324 4.52486C4.491 4.55469 4.30374 4.58286 4.12145 4.60938C3.93916 4.63258 3.7867 4.65246 3.66406 4.66903C3.37571 4.70549 3.11222 4.76681 2.87358 4.85298C2.63826 4.93916 2.44934 5.06345 2.30682 5.22585C2.16761 5.38494 2.09801 5.59706 2.09801 5.86222C2.09801 6.23011 2.2339 6.50852 2.50568 6.69744C2.77746 6.88305 3.12382 6.97585 3.54474 6.97585ZM8.96999 8V0.363636H10.4068V1.5767H10.4863C10.6255 1.16572 10.8708 0.842566 11.2221 0.607244C11.5768 0.368608 11.9778 0.249289 12.4252 0.249289C12.5181 0.249289 12.6274 0.252604 12.7534 0.259233C12.8826 0.265861 12.9837 0.274147 13.0566 0.284091V1.70597C12.997 1.68939 12.8909 1.67116 12.7385 1.65128C12.586 1.62808 12.4335 1.61648 12.2811 1.61648C11.9297 1.61648 11.6165 1.69105 11.3414 1.8402C11.0697 1.98603 10.8542 2.18987 10.6951 2.4517C10.536 2.71023 10.4565 3.00521 10.4565 3.33665V8H8.96999ZM14.343 8V0.363636H15.7798V1.5767H15.8594C15.9986 1.16572 16.2438 0.842566 16.5952 0.607244C16.9498 0.368608 17.3509 0.249289 17.7983 0.249289C17.8911 0.249289 18.0005 0.252604 18.1264 0.259233C18.2557 0.265861 18.3568 0.274147 18.4297 0.284091V1.70597C18.37 1.68939 18.264 1.67116 18.1115 1.65128C17.959 1.62808 17.8066 1.61648 17.6541 1.61648C17.3028 1.61648 16.9896 1.69105 16.7145 1.8402C16.4427 1.98603 16.2273 2.18987 16.0682 2.4517C15.9091 2.71023 15.8295 3.00521 15.8295 3.33665V8H14.343ZM22.6593 8.15412C21.9434 8.15412 21.3186 7.99006 20.785 7.66193C20.2514 7.33381 19.8371 6.87476 19.5421 6.2848C19.2471 5.69484 19.0996 5.00544 19.0996 4.21662C19.0996 3.42448 19.2471 2.73177 19.5421 2.13849C19.8371 1.54522 20.2514 1.08452 20.785 0.756392C21.3186 0.428267 21.9434 0.264205 22.6593 0.264205C23.3752 0.264205 23.9999 0.428267 24.5336 0.756392C25.0672 1.08452 25.4815 1.54522 25.7765 2.13849C26.0714 2.73177 26.2189 3.42448 26.2189 4.21662C26.2189 5.00544 26.0714 5.69484 25.7765 6.2848C25.4815 6.87476 25.0672 7.33381 24.5336 7.66193C23.9999 7.99006 23.3752 8.15412 22.6593 8.15412ZM22.6642 6.90625C23.1283 6.90625 23.5127 6.78362 23.8176 6.53835C24.1226 6.29309 24.348 5.96662 24.4938 5.55895C24.6429 5.15128 24.7175 4.70218 24.7175 4.21165C24.7175 3.72443 24.6429 3.27699 24.4938 2.86932C24.348 2.45833 24.1226 2.12855 23.8176 1.87997C23.5127 1.63139 23.1283 1.5071 22.6642 1.5071C22.1969 1.5071 21.8091 1.63139 21.5009 1.87997C21.196 2.12855 20.9689 2.45833 20.8198 2.86932C20.6739 3.27699 20.601 3.72443 20.601 4.21165C20.601 4.70218 20.6739 5.15128 20.8198 5.55895C20.9689 5.96662 21.196 6.29309 21.5009 6.53835C21.8091 6.78362 22.1969 6.90625 22.6642 6.90625ZM29.3013 8L27.0542 0.363636H28.5904L30.0868 5.97159H30.1614L31.6628 0.363636H33.199L34.6905 5.94673H34.7651L36.2516 0.363636H37.7878L35.5456 8H34.0293L32.4782 2.48651H32.3638L30.8127 8H29.3013ZM43.6978 3.05327V4.34091H39.1836V3.05327H43.6978ZM51.4013 2.22798L50.054 2.46662C49.9976 2.29427 49.9081 2.13021 49.7855 1.97443C49.6662 1.81865 49.5038 1.69105 49.2983 1.59162C49.0928 1.49219 48.8359 1.44247 48.5277 1.44247C48.1068 1.44247 47.7554 1.53693 47.4737 1.72585C47.192 1.91146 47.0511 2.15175 47.0511 2.44673C47.0511 2.70194 47.1456 2.90743 47.3345 3.06321C47.5234 3.21899 47.8284 3.34659 48.2493 3.44602L49.4624 3.72443C50.165 3.88684 50.6887 4.13707 51.0334 4.47514C51.3781 4.81321 51.5504 5.25237 51.5504 5.79261C51.5504 6.25 51.4179 6.65767 51.1527 7.01562C50.8909 7.37027 50.5246 7.64867 50.054 7.85085C49.5866 8.05303 49.0447 8.15412 48.4283 8.15412C47.5732 8.15412 46.8755 7.97183 46.3352 7.60724C45.795 7.23935 45.4635 6.71733 45.3409 6.04119L46.7777 5.82244C46.8672 6.19697 47.0511 6.48035 47.3295 6.67259C47.608 6.86151 47.9709 6.95597 48.4183 6.95597C48.9055 6.95597 49.295 6.85488 49.5866 6.6527C49.8783 6.44721 50.0241 6.19697 50.0241 5.90199C50.0241 5.66335 49.9347 5.46283 49.7557 5.30043C49.58 5.13802 49.3099 5.01539 48.9453 4.93253L47.6527 4.64915C46.9401 4.48674 46.4131 4.22822 46.0717 3.87358C45.7337 3.51894 45.5646 3.06984 45.5646 2.52628C45.5646 2.07552 45.6906 1.68111 45.9425 1.34304C46.1944 1.00497 46.5424 0.741477 46.9865 0.552557C47.4306 0.360322 47.9394 0.264205 48.5128 0.264205C49.3381 0.264205 49.9877 0.443182 50.4616 0.801136C50.9356 1.15578 51.2488 1.63139 51.4013 2.22798ZM58.3404 10.8636V6.81179H58.2509C58.1614 6.9742 58.0321 7.1598 57.8631 7.36861C57.6974 7.57741 57.4687 7.75971 57.177 7.91548C56.8854 8.07126 56.5075 8.14915 56.0435 8.14915C55.427 8.14915 54.8768 7.99171 54.3929 7.67685C53.9123 7.35866 53.5345 6.90625 53.2594 6.3196C52.9876 5.72964 52.8517 5.02202 52.8517 4.19673C52.8517 3.37145 52.9893 2.66548 53.2644 2.07884C53.5428 1.49219 53.9239 1.04309 54.4078 0.731534C54.8917 0.419981 55.4403 0.264205 56.0534 0.264205C56.5274 0.264205 56.9086 0.34375 57.1969 0.502841C57.4886 0.658617 57.714 0.840909 57.873 1.04972C58.0355 1.25852 58.1614 1.44247 58.2509 1.60156H58.3752V0.363636H59.8269V10.8636H58.3404ZM56.3716 6.88139C56.7992 6.88139 57.1605 6.7687 57.4554 6.54332C57.7537 6.31463 57.9791 5.99811 58.1316 5.59375C58.2873 5.18939 58.3652 4.71875 58.3652 4.18182C58.3652 3.65151 58.289 3.1875 58.1365 2.78977C57.9841 2.39205 57.7604 2.08215 57.4654 1.86009C57.1704 1.63802 56.8058 1.52699 56.3716 1.52699C55.9242 1.52699 55.5513 1.64299 55.253 1.875C54.9547 2.10701 54.7293 2.42353 54.5769 2.82457C54.4277 3.22562 54.3532 3.67803 54.3532 4.18182C54.3532 4.69223 54.4294 5.15128 54.5819 5.55895C54.7343 5.96662 54.9597 6.28977 55.258 6.52841C55.5596 6.76373 55.9308 6.88139 56.3716 6.88139ZM66.6628 4.8331V0.363636H68.1543V8H66.6926V6.67756H66.6131C66.4374 7.08523 66.1557 7.42495 65.7679 7.69673C65.3835 7.9652 64.9045 8.09943 64.3311 8.09943C63.8406 8.09943 63.4064 7.99171 63.0286 7.77628C62.6541 7.55753 62.3591 7.23438 62.1436 6.80682C61.9315 6.37926 61.8255 5.85062 61.8255 5.22088V0.363636H63.312V5.0419C63.312 5.56226 63.4561 5.97656 63.7445 6.2848C64.0328 6.59304 64.4074 6.74716 64.8681 6.74716C65.1465 6.74716 65.4232 6.67756 65.6983 6.53835C65.9767 6.39915 66.2071 6.18868 66.3894 5.90696C66.575 5.62524 66.6661 5.26728 66.6628 4.8331ZM72.3739 8.16903C71.89 8.16903 71.4525 8.07955 71.0614 7.90057C70.6703 7.71828 70.3604 7.45478 70.1317 7.11009C69.9064 6.76539 69.7937 6.3428 69.7937 5.84233C69.7937 5.41146 69.8765 5.05682 70.0423 4.77841C70.208 4.5 70.4317 4.27959 70.7134 4.11719C70.9951 3.95478 71.31 3.83215 71.658 3.74929C72.006 3.66643 72.3607 3.60346 72.7219 3.56037C73.1793 3.50734 73.5505 3.46425 73.8356 3.43111C74.1206 3.39465 74.3278 3.33665 74.457 3.2571C74.5863 3.17756 74.6509 3.0483 74.6509 2.86932V2.83452C74.6509 2.40033 74.5283 2.06392 74.283 1.82528C74.0411 1.58665 73.6798 1.46733 73.1992 1.46733C72.6987 1.46733 72.3043 1.57836 72.016 1.80043C71.7309 2.01918 71.5337 2.26278 71.4244 2.53125L70.0273 2.21307C70.1931 1.74905 70.435 1.37453 70.7532 1.08949C71.0747 0.801136 71.4442 0.592329 71.8619 0.463068C72.2795 0.330492 72.7186 0.264205 73.1793 0.264205C73.4843 0.264205 73.8074 0.300663 74.1488 0.37358C74.4935 0.443182 74.815 0.572443 75.1133 0.761363C75.4149 0.950284 75.6618 1.22041 75.854 1.57173C76.0463 1.91974 76.1424 2.37216 76.1424 2.92898V8H74.6907V6.95597H74.631C74.5349 7.1482 74.3907 7.33712 74.1985 7.52273C74.0063 7.70833 73.7594 7.86245 73.4577 7.98509C73.1561 8.10772 72.7949 8.16903 72.3739 8.16903ZM72.6971 6.97585C73.1081 6.97585 73.4594 6.89465 73.7511 6.73224C74.046 6.56984 74.2698 6.35772 74.4222 6.09588C74.578 5.83073 74.6559 5.54735 74.6559 5.24574V4.26136C74.6029 4.31439 74.5001 4.36411 74.3477 4.41051C74.1985 4.4536 74.0278 4.49171 73.8356 4.52486C73.6433 4.55469 73.4561 4.58286 73.2738 4.60938C73.0915 4.63258 72.939 4.65246 72.8164 4.66903C72.5281 4.70549 72.2646 4.76681 72.0259 4.85298C71.7906 4.93916 71.6017 5.06345 71.4592 5.22585C71.32 5.38494 71.2504 5.59706 71.2504 5.86222C71.2504 6.23011 71.3862 6.50852 71.658 6.69744C71.9298 6.88305 72.2762 6.97585 72.6971 6.97585ZM78.1223 8V0.363636H79.5591V1.5767H79.6387C79.7779 1.16572 80.0231 0.842566 80.3745 0.607244C80.7291 0.368608 81.1301 0.249289 81.5776 0.249289C81.6704 0.249289 81.7798 0.252604 81.9057 0.259233C82.035 0.265861 82.1361 0.274147 82.209 0.284091V1.70597C82.1493 1.68939 82.0433 1.67116 81.8908 1.65128C81.7383 1.62808 81.5859 1.61648 81.4334 1.61648C81.0821 1.61648 80.7689 1.69105 80.4938 1.8402C80.222 1.98603 80.0066 2.18987 79.8475 2.4517C79.6884 2.71023 79.6088 3.00521 79.6088 3.33665V8H78.1223ZM86.5131 8.15412C85.7608 8.15412 85.1128 7.99337 84.5692 7.67188C84.029 7.34706 83.6114 6.89134 83.3164 6.30469C83.0247 5.71473 82.8789 5.02367 82.8789 4.23153C82.8789 3.44934 83.0247 2.75994 83.3164 2.16335C83.6114 1.56676 84.0224 1.10109 84.5494 0.766335C85.0797 0.431581 85.6995 0.264205 86.4087 0.264205C86.8396 0.264205 87.2572 0.335464 87.6616 0.477983C88.0659 0.620502 88.4289 0.844223 88.7504 1.14915C89.0719 1.45407 89.3254 1.85014 89.511 2.33736C89.6966 2.82126 89.7894 3.40956 89.7894 4.10227V4.62926H83.7191V3.51562H88.3327C88.3327 3.12453 88.2532 2.77817 88.0941 2.47656C87.935 2.17164 87.7113 1.93134 87.4229 1.75568C87.1379 1.58002 86.8031 1.49219 86.4187 1.49219C86.0011 1.49219 85.6365 1.59493 85.3249 1.80043C85.0167 2.0026 84.7781 2.26776 84.609 2.59588C84.4433 2.92069 84.3604 3.27367 84.3604 3.65483V4.52486C84.3604 5.03527 84.4499 5.46946 84.6289 5.82741C84.8112 6.18537 85.0647 6.45881 85.3896 6.64773C85.7144 6.83333 86.0939 6.92614 86.5281 6.92614C86.8098 6.92614 87.0666 6.88636 87.2987 6.80682C87.5307 6.72396 87.7312 6.60133 87.9002 6.43892C88.0692 6.27652 88.1985 6.07599 88.288 5.83736L89.695 6.09091C89.5823 6.50521 89.3801 6.86813 89.0884 7.17969C88.8001 7.48793 88.4371 7.72822 87.9996 7.90057C87.5655 8.0696 87.07 8.15412 86.5131 8.15412ZM95.938 3.05327V4.34091H91.4238V3.05327H95.938ZM102.757 4.8331V0.363636H104.248V8H102.786V6.67756H102.707C102.531 7.08523 102.249 7.42495 101.862 7.69673C101.477 7.9652 100.998 8.09943 100.425 8.09943C99.9344 8.09943 99.5002 7.99171 99.1223 7.77628C98.7478 7.55753 98.4528 7.23438 98.2374 6.80682C98.0253 6.37926 97.9192 5.85062 97.9192 5.22088V0.363636H99.4057V5.0419C99.4057 5.56226 99.5499 5.97656 99.8382 6.2848C100.127 6.59304 100.501 6.74716 100.962 6.74716C101.24 6.74716 101.517 6.67756 101.792 6.53835C102.07 6.39915 102.301 6.18868 102.483 5.90696C102.669 5.62524 102.76 5.26728 102.757 4.8331ZM106.245 10.8636V0.363636H107.697V1.60156H107.821C107.908 1.44247 108.032 1.25852 108.194 1.04972C108.357 0.840909 108.582 0.658617 108.87 0.502841C109.159 0.34375 109.54 0.264205 110.014 0.264205C110.63 0.264205 111.181 0.419981 111.664 0.731534C112.148 1.04309 112.528 1.49219 112.803 2.07884C113.081 2.66548 113.221 3.37145 113.221 4.19673C113.221 5.02202 113.083 5.72964 112.808 6.3196C112.533 6.90625 112.155 7.35866 111.674 7.67685C111.194 7.99171 110.645 8.14915 110.029 8.14915C109.565 8.14915 109.185 8.07126 108.89 7.91548C108.599 7.75971 108.37 7.57741 108.204 7.36861C108.038 7.1598 107.911 6.9742 107.821 6.81179H107.732V10.8636H106.245ZM107.702 4.18182C107.702 4.71875 107.78 5.18939 107.936 5.59375C108.092 5.99811 108.317 6.31463 108.612 6.54332C108.907 6.7687 109.268 6.88139 109.696 6.88139C110.14 6.88139 110.511 6.76373 110.809 6.52841C111.108 6.28977 111.333 5.96662 111.485 5.55895C111.641 5.15128 111.719 4.69223 111.719 4.18182C111.719 3.67803 111.643 3.22562 111.49 2.82457C111.341 2.42353 111.116 2.10701 110.814 1.875C110.516 1.64299 110.143 1.52699 109.696 1.52699C109.265 1.52699 108.9 1.63802 108.602 1.86009C108.307 2.08215 108.083 2.39205 107.931 2.78977C107.778 3.1875 107.702 3.65151 107.702 4.18182Z" fill="black"/>
</svg>
