<svg width="114" height="12" viewBox="0 0 114 12" fill="none" xmlns="http://www.w3.org/2000/svg">
<path d="M4.21591 11.1541C3.4768 11.1541 2.84044 10.9867 2.30682 10.652C1.77652 10.3139 1.36884 9.84825 1.08381 9.25497C0.798769 8.66169 0.65625 7.98224 0.65625 7.21662C0.65625 6.44105 0.802083 5.75663 1.09375 5.16335C1.38542 4.56676 1.7964 4.10109 2.3267 3.76633C2.85701 3.43158 3.48177 3.2642 4.20099 3.2642C4.78101 3.2642 5.29806 3.37192 5.75213 3.58736C6.2062 3.79948 6.57244 4.09777 6.85085 4.48224C7.13258 4.86671 7.29995 5.31581 7.35298 5.82955H5.90625C5.8267 5.47159 5.64441 5.16335 5.35938 4.90483C5.07765 4.64631 4.69981 4.51705 4.22585 4.51705C3.81155 4.51705 3.44863 4.62642 3.13707 4.84517C2.82884 5.06061 2.58854 5.36884 2.41619 5.76989C2.24384 6.16761 2.15767 6.63826 2.15767 7.18182C2.15767 7.73864 2.24219 8.21922 2.41122 8.62358C2.58026 9.02794 2.81889 9.34115 3.12713 9.56321C3.43868 9.78527 3.80492 9.89631 4.22585 9.89631C4.50758 9.89631 4.76278 9.84493 4.99148 9.74219C5.22349 9.63613 5.41738 9.48532 5.57315 9.28977C5.73224 9.09422 5.84328 8.8589 5.90625 8.58381H7.35298C7.29995 9.07765 7.1392 9.51847 6.87074 9.90625C6.60227 10.294 6.24266 10.599 5.7919 10.821C5.34446 11.0431 4.81913 11.1541 4.21591 11.1541ZM12.1593 11.1541C11.4434 11.1541 10.8186 10.9901 10.285 10.6619C9.75136 10.3338 9.33706 9.87476 9.04208 9.2848C8.7471 8.69484 8.59961 8.00544 8.59961 7.21662C8.59961 6.42448 8.7471 5.73177 9.04208 5.13849C9.33706 4.54522 9.75136 4.08452 10.285 3.75639C10.8186 3.42827 11.4434 3.2642 12.1593 3.2642C12.8752 3.2642 13.4999 3.42827 14.0336 3.75639C14.5672 4.08452 14.9815 4.54522 15.2765 5.13849C15.5714 5.73177 15.7189 6.42448 15.7189 7.21662C15.7189 8.00544 15.5714 8.69484 15.2765 9.2848C14.9815 9.87476 14.5672 10.3338 14.0336 10.6619C13.4999 10.9901 12.8752 11.1541 12.1593 11.1541ZM12.1642 9.90625C12.6283 9.90625 13.0127 9.78362 13.3176 9.53835C13.6226 9.29309 13.848 8.96662 13.9938 8.55895C14.1429 8.15128 14.2175 7.70218 14.2175 7.21165C14.2175 6.72443 14.1429 6.27699 13.9938 5.86932C13.848 5.45833 13.6226 5.12855 13.3176 4.87997C13.0127 4.63139 12.6283 4.5071 12.1642 4.5071C11.6969 4.5071 11.3091 4.63139 11.0009 4.87997C10.696 5.12855 10.4689 5.45833 10.3198 5.86932C10.1739 6.27699 10.101 6.72443 10.101 7.21165C10.101 7.70218 10.1739 8.15128 10.3198 8.55895C10.4689 8.96662 10.696 9.29309 11.0009 9.53835C11.3091 9.78362 11.6969 9.90625 12.1642 9.90625ZM17.3782 11V3.36364H18.815V4.5767H18.8945C19.0337 4.16572 19.279 3.84257 19.6303 3.60724C19.985 3.36861 20.386 3.24929 20.8335 3.24929C20.9263 3.24929 21.0356 3.2526 21.1616 3.25923C21.2908 3.26586 21.3919 3.27415 21.4648 3.28409V4.70597C21.4052 4.68939 21.2991 4.67116 21.1467 4.65128C20.9942 4.62808 20.8417 4.61648 20.6893 4.61648C20.338 4.61648 20.0247 4.69105 19.7496 4.8402C19.4779 4.98603 19.2624 5.18987 19.1033 5.4517C18.9442 5.71023 18.8647 6.00521 18.8647 6.33665V11H17.3782ZM24.2377 6.46591V11H22.7512V3.36364H24.1781V4.60653H24.2725C24.4482 4.20218 24.7233 3.87737 25.0978 3.6321C25.4757 3.38684 25.9513 3.2642 26.5247 3.2642C27.045 3.2642 27.5008 3.37358 27.8919 3.59233C28.283 3.80777 28.5862 4.12926 28.8017 4.55682C29.0171 4.98437 29.1248 5.51302 29.1248 6.14276V11H27.6383V6.32173C27.6383 5.76823 27.4941 5.3357 27.2058 5.02415C26.9174 4.70928 26.5214 4.55185 26.0176 4.55185C25.6729 4.55185 25.3663 4.62642 25.0978 4.77557C24.8327 4.92472 24.6222 5.14347 24.4664 5.43182C24.314 5.71686 24.2377 6.06155 24.2377 6.46591ZM34.4096 11.1541C33.6573 11.1541 33.0093 10.9934 32.4657 10.6719C31.9255 10.3471 31.5079 9.89134 31.2129 9.30469C30.9212 8.71473 30.7754 8.02367 30.7754 7.23153C30.7754 6.44934 30.9212 5.75994 31.2129 5.16335C31.5079 4.56676 31.9189 4.10109 32.4458 3.76633C32.9761 3.43158 33.5959 3.2642 34.3052 3.2642C34.7361 3.2642 35.1537 3.33546 35.5581 3.47798C35.9624 3.6205 36.3253 3.84422 36.6468 4.14915C36.9683 4.45407 37.2219 4.85014 37.4075 5.33736C37.5931 5.82126 37.6859 6.40956 37.6859 7.10227V7.62926H31.6156V6.51562H36.2292C36.2292 6.12453 36.1497 5.77817 35.9906 5.47656C35.8315 5.17164 35.6078 4.93134 35.3194 4.75568C35.0344 4.58002 34.6996 4.49219 34.3152 4.49219C33.8975 4.49219 33.533 4.59493 33.2214 4.80043C32.9132 5.0026 32.6745 5.26776 32.5055 5.59588C32.3398 5.92069 32.2569 6.27367 32.2569 6.65483V7.52486C32.2569 8.03527 32.3464 8.46946 32.5254 8.82741C32.7077 9.18537 32.9612 9.45881 33.286 9.64773C33.6109 9.83333 33.9904 9.92614 34.4245 9.92614C34.7063 9.92614 34.9631 9.88636 35.1951 9.80682C35.4271 9.72396 35.6277 9.60133 35.7967 9.43892C35.9657 9.27652 36.095 9.07599 36.1845 8.83736L37.5914 9.09091C37.4788 9.50521 37.2766 9.86813 36.9849 10.1797C36.6966 10.4879 36.3336 10.7282 35.8961 10.9006C35.4619 11.0696 34.9664 11.1541 34.4096 11.1541ZM39.3352 11V3.36364H40.772V4.5767H40.8516C40.9908 4.16572 41.236 3.84257 41.5874 3.60724C41.942 3.36861 42.343 3.24929 42.7905 3.24929C42.8833 3.24929 42.9927 3.2526 43.1186 3.25923C43.2479 3.26586 43.349 3.27415 43.4219 3.28409V4.70597C43.3622 4.68939 43.2562 4.67116 43.1037 4.65128C42.9512 4.62808 42.7988 4.61648 42.6463 4.61648C42.295 4.61648 41.9818 4.69105 41.7067 4.8402C41.4349 4.98603 41.2195 5.18987 41.0604 5.4517C40.9013 5.71023 40.8217 6.00521 40.8217 6.33665V11H39.3352ZM48.7564 6.05327V7.34091H44.2422V6.05327H48.7564ZM52.2241 0.818182V11H50.7376V0.818182H52.2241ZM57.5151 11.1541C56.7627 11.1541 56.1148 10.9934 55.5712 10.6719C55.031 10.3471 54.6133 9.89134 54.3184 9.30469C54.0267 8.71473 53.8809 8.02367 53.8809 7.23153C53.8809 6.44934 54.0267 5.75994 54.3184 5.16335C54.6133 4.56676 55.0243 4.10109 55.5513 3.76633C56.0816 3.43158 56.7014 3.2642 57.4107 3.2642C57.8416 3.2642 58.2592 3.33546 58.6635 3.47798C59.0679 3.6205 59.4308 3.84422 59.7523 4.14915C60.0738 4.45407 60.3274 4.85014 60.513 5.33736C60.6986 5.82126 60.7914 6.40956 60.7914 7.10227V7.62926H54.7211V6.51562H59.3347C59.3347 6.12453 59.2551 5.77817 59.0961 5.47656C58.937 5.17164 58.7132 4.93134 58.4249 4.75568C58.1399 4.58002 57.8051 4.49219 57.4206 4.49219C57.003 4.49219 56.6384 4.59493 56.3269 4.80043C56.0186 5.0026 55.78 5.26776 55.611 5.59588C55.4453 5.92069 55.3624 6.27367 55.3624 6.65483V7.52486C55.3624 8.03527 55.4519 8.46946 55.6309 8.82741C55.8132 9.18537 56.0667 9.45881 56.3915 9.64773C56.7163 9.83333 57.0958 9.92614 57.53 9.92614C57.8117 9.92614 58.0686 9.88636 58.3006 9.80682C58.5326 9.72396 58.7331 9.60133 58.9022 9.43892C59.0712 9.27652 59.2005 9.07599 59.29 8.83736L60.6969 9.09091C60.5842 9.50521 60.382 9.86813 60.0904 10.1797C59.802 10.4879 59.4391 10.7282 59.0016 10.9006C58.5674 11.0696 58.0719 11.1541 57.5151 11.1541ZM66.0749 3.36364V4.55682H61.7596V3.36364H66.0749ZM62.9428 11V2.47869C62.9428 2.00142 63.0472 1.60535 63.256 1.29048C63.4648 0.972301 63.7416 0.735322 64.0863 0.579545C64.431 0.420454 64.8055 0.340908 65.2099 0.340908C65.5082 0.340908 65.7634 0.365767 65.9755 0.415483C66.1876 0.461884 66.3451 0.504971 66.4478 0.544744L66.0998 1.74787C66.0302 1.72798 65.9407 1.70478 65.8313 1.67827C65.7219 1.64844 65.5894 1.63352 65.4336 1.63352C65.0723 1.63352 64.8138 1.72301 64.658 1.90199C64.5056 2.08097 64.4293 2.33949 64.4293 2.67756V11H62.9428ZM71.1733 3.36364V4.55682H67.0021V3.36364H71.1733ZM68.1207 1.53409H69.6072V8.75781C69.6072 9.04616 69.6503 9.26326 69.7365 9.40909C69.8227 9.55161 69.9337 9.64938 70.0696 9.70241C70.2088 9.75213 70.3596 9.77699 70.522 9.77699C70.6413 9.77699 70.7457 9.7687 70.8352 9.75213C70.9247 9.73556 70.9943 9.7223 71.044 9.71236L71.3125 10.9403C71.2263 10.9735 71.1037 11.0066 70.9446 11.0398C70.7855 11.0762 70.5866 11.0961 70.348 11.0994C69.9569 11.1061 69.5923 11.0365 69.2543 10.8906C68.9162 10.7448 68.6428 10.5194 68.4339 10.2145C68.2251 9.90956 68.1207 9.52675 68.1207 9.06605V1.53409ZM77.0572 6.05327V7.34091H72.543V6.05327H77.0572ZM81.897 11.1491C81.2805 11.1491 80.7304 10.9917 80.2464 10.6768C79.7659 10.3587 79.388 9.90625 79.1129 9.3196C78.8411 8.72964 78.7053 8.02202 78.7053 7.19673C78.7053 6.37145 78.8428 5.66548 79.1179 5.07884C79.3963 4.49219 79.7775 4.04309 80.2614 3.73153C80.7453 3.41998 81.2938 3.2642 81.907 3.2642C82.3809 3.2642 82.7621 3.34375 83.0504 3.50284C83.3421 3.65862 83.5675 3.84091 83.7266 4.04972C83.889 4.25852 84.0149 4.44247 84.1044 4.60156H84.1939V0.818182H85.6804V11H84.2287V9.81179H84.1044C84.0149 9.9742 83.8857 10.1598 83.7166 10.3686C83.5509 10.5774 83.3222 10.7597 83.0305 10.9155C82.7389 11.0713 82.361 11.1491 81.897 11.1491ZM82.2251 9.88139C82.6527 9.88139 83.014 9.7687 83.3089 9.54332C83.6072 9.31463 83.8326 8.99811 83.9851 8.59375C84.1409 8.18939 84.2188 7.71875 84.2188 7.18182C84.2188 6.65151 84.1425 6.1875 83.9901 5.78977C83.8376 5.39205 83.6139 5.08215 83.3189 4.86009C83.0239 4.63802 82.6593 4.52699 82.2251 4.52699C81.7777 4.52699 81.4048 4.64299 81.1065 4.875C80.8082 5.10701 80.5829 5.42353 80.4304 5.82457C80.2813 6.22562 80.2067 6.67803 80.2067 7.18182C80.2067 7.69223 80.2829 8.15128 80.4354 8.55895C80.5878 8.96662 80.8132 9.28977 81.1115 9.52841C81.4131 9.76373 81.7843 9.88139 82.2251 9.88139ZM91.0186 11.1541C90.3027 11.1541 89.678 10.9901 89.1444 10.6619C88.6107 10.3338 88.1964 9.87476 87.9015 9.2848C87.6065 8.69484 87.459 8.00544 87.459 7.21662C87.459 6.42448 87.6065 5.73177 87.9015 5.13849C88.1964 4.54522 88.6107 4.08452 89.1444 3.75639C89.678 3.42827 90.3027 3.2642 91.0186 3.2642C91.7346 3.2642 92.3593 3.42827 92.8929 3.75639C93.4266 4.08452 93.8408 4.54522 94.1358 5.13849C94.4308 5.73177 94.5783 6.42448 94.5783 7.21662C94.5783 8.00544 94.4308 8.69484 94.1358 9.2848C93.8408 9.87476 93.4266 10.3338 92.8929 10.6619C92.3593 10.9901 91.7346 11.1541 91.0186 11.1541ZM91.0236 9.90625C91.4876 9.90625 91.8721 9.78362 92.177 9.53835C92.4819 9.29309 92.7073 8.96662 92.8532 8.55895C93.0023 8.15128 93.0769 7.70218 93.0769 7.21165C93.0769 6.72443 93.0023 6.27699 92.8532 5.86932C92.7073 5.45833 92.4819 5.12855 92.177 4.87997C91.8721 4.63139 91.4876 4.5071 91.0236 4.5071C90.5563 4.5071 90.1685 4.63139 89.8603 4.87997C89.5553 5.12855 89.3283 5.45833 89.1792 5.86932C89.0333 6.27699 88.9604 6.72443 88.9604 7.21165C88.9604 7.70218 89.0333 8.15128 89.1792 8.55895C89.3283 8.96662 89.5553 9.29309 89.8603 9.53835C90.1685 9.78362 90.5563 9.90625 91.0236 9.90625ZM97.6607 11L95.4135 3.36364H96.9498L98.4462 8.97159H98.5208L100.022 3.36364H101.558L103.05 8.94673H103.124L104.611 3.36364H106.147L103.905 11H102.389L100.838 5.48651H100.723L99.1721 11H97.6607ZM109.044 6.46591V11H107.558V3.36364H108.985V4.60653H109.079C109.255 4.20218 109.53 3.87737 109.904 3.6321C110.282 3.38684 110.758 3.2642 111.331 3.2642C111.852 3.2642 112.307 3.37358 112.699 3.59233C113.09 3.80777 113.393 4.12926 113.608 4.55682C113.824 4.98437 113.931 5.51302 113.931 6.14276V11H112.445V6.32173C112.445 5.76823 112.301 5.3357 112.012 5.02415C111.724 4.70928 111.328 4.55185 110.824 4.55185C110.48 4.55185 110.173 4.62642 109.904 4.77557C109.639 4.92472 109.429 5.14347 109.273 5.43182C109.121 5.71686 109.044 6.06155 109.044 6.46591Z" fill="black"/>
</svg>
