<svg width="135" height="12" viewBox="0 0 135 12" fill="none" xmlns="http://www.w3.org/2000/svg">
<path d="M4.21591 11.1541C3.4768 11.1541 2.84044 10.9867 2.30682 10.652C1.77652 10.3139 1.36884 9.84825 1.08381 9.25497C0.798769 8.66169 0.65625 7.98224 0.65625 7.21662C0.65625 6.44105 0.802083 5.75663 1.09375 5.16335C1.38542 4.56676 1.7964 4.10109 2.3267 3.76633C2.85701 3.43158 3.48177 3.2642 4.20099 3.2642C4.78101 3.2642 5.29806 3.37192 5.75213 3.58736C6.2062 3.79948 6.57244 4.09777 6.85085 4.48224C7.13258 4.86671 7.29995 5.31581 7.35298 5.82955H5.90625C5.8267 5.47159 5.64441 5.16335 5.35938 4.90483C5.07765 4.64631 4.69981 4.51705 4.22585 4.51705C3.81155 4.51705 3.44863 4.62642 3.13707 4.84517C2.82884 5.06061 2.58854 5.36884 2.41619 5.76989C2.24384 6.16761 2.15767 6.63826 2.15767 7.18182C2.15767 7.73864 2.24219 8.21922 2.41122 8.62358C2.58026 9.02794 2.81889 9.34115 3.12713 9.56321C3.43868 9.78527 3.80492 9.89631 4.22585 9.89631C4.50758 9.89631 4.76278 9.84493 4.99148 9.74219C5.22349 9.63613 5.41738 9.48532 5.57315 9.28977C5.73224 9.09422 5.84328 8.8589 5.90625 8.58381H7.35298C7.29995 9.07765 7.1392 9.51847 6.87074 9.90625C6.60227 10.294 6.24266 10.599 5.7919 10.821C5.34446 11.0431 4.81913 11.1541 4.21591 11.1541ZM10.4292 6.46591V11H8.94265V0.818182H10.4093V4.60653H10.5037C10.6827 4.19555 10.9561 3.86908 11.324 3.62713C11.6919 3.38518 12.1725 3.2642 12.7658 3.2642C13.2895 3.2642 13.7469 3.37192 14.138 3.58736C14.5324 3.80279 14.8373 4.12429 15.0527 4.55185C15.2715 4.97609 15.3809 5.50639 15.3809 6.14276V11H13.8944V6.32173C13.8944 5.7616 13.7502 5.32741 13.4618 5.01918C13.1735 4.70762 12.7724 4.55185 12.2587 4.55185C11.9074 4.55185 11.5925 4.62642 11.3141 4.77557C11.039 4.92472 10.8219 5.14347 10.6628 5.43182C10.507 5.71686 10.4292 6.06155 10.4292 6.46591ZM20.6557 11.1541C19.9033 11.1541 19.2554 10.9934 18.7118 10.6719C18.1716 10.3471 17.754 9.89134 17.459 9.30469C17.1673 8.71473 17.0215 8.02367 17.0215 7.23153C17.0215 6.44934 17.1673 5.75994 17.459 5.16335C17.754 4.56676 18.165 4.10109 18.6919 3.76633C19.2222 3.43158 19.842 3.2642 20.5513 3.2642C20.9822 3.2642 21.3998 3.33546 21.8042 3.47798C22.2085 3.6205 22.5714 3.84422 22.8929 4.14915C23.2144 4.45407 23.468 4.85014 23.6536 5.33736C23.8392 5.82126 23.932 6.40956 23.932 7.10227V7.62926H17.8617V6.51562H22.4753C22.4753 6.12453 22.3958 5.77817 22.2367 5.47656C22.0776 5.17164 21.8539 4.93134 21.5655 4.75568C21.2805 4.58002 20.9457 4.49219 20.5613 4.49219C20.1436 4.49219 19.7791 4.59493 19.4675 4.80043C19.1593 5.0026 18.9206 5.26776 18.7516 5.59588C18.5859 5.92069 18.503 6.27367 18.503 6.65483V7.52486C18.503 8.03527 18.5925 8.46946 18.7715 8.82741C18.9538 9.18537 19.2073 9.45881 19.5321 9.64773C19.8569 9.83333 20.2364 9.92614 20.6706 9.92614C20.9524 9.92614 21.2092 9.88636 21.4412 9.80682C21.6732 9.72396 21.8738 9.60133 22.0428 9.43892C22.2118 9.27652 22.3411 9.07599 22.4306 8.83736L23.8375 9.09091C23.7248 9.50521 23.5227 9.86813 23.231 10.1797C22.9426 10.4879 22.5797 10.7282 22.1422 10.9006C21.708 11.0696 21.2125 11.1541 20.6557 11.1541ZM31.8952 3.36364L29.1261 11H27.5352L24.761 3.36364H26.3569L28.2908 9.24006H28.3704L30.2994 3.36364H31.8952ZM33.2923 11V3.36364H34.729V4.5767H34.8086C34.9478 4.16572 35.1931 3.84257 35.5444 3.60724C35.899 3.36861 36.3001 3.24929 36.7475 3.24929C36.8403 3.24929 36.9497 3.2526 37.0756 3.25923C37.2049 3.26586 37.306 3.27415 37.3789 3.28409V4.70597C37.3192 4.68939 37.2132 4.67116 37.0607 4.65128C36.9083 4.62808 36.7558 4.61648 36.6033 4.61648C36.252 4.61648 35.9388 4.69105 35.6637 4.8402C35.3919 4.98603 35.1765 5.18987 35.0174 5.4517C34.8583 5.71023 34.7788 6.00521 34.7788 6.33665V11H33.2923ZM41.6085 11.1541C40.8926 11.1541 40.2678 10.9901 39.7342 10.6619C39.2006 10.3338 38.7863 9.87476 38.4913 9.2848C38.1963 8.69484 38.0488 8.00544 38.0488 7.21662C38.0488 6.42448 38.1963 5.73177 38.4913 5.13849C38.7863 4.54522 39.2006 4.08452 39.7342 3.75639C40.2678 3.42827 40.8926 3.2642 41.6085 3.2642C42.3244 3.2642 42.9492 3.42827 43.4828 3.75639C44.0164 4.08452 44.4307 4.54522 44.7257 5.13849C45.0207 5.73177 45.1681 6.42448 45.1681 7.21662C45.1681 8.00544 45.0207 8.69484 44.7257 9.2848C44.4307 9.87476 44.0164 10.3338 43.4828 10.6619C42.9492 10.9901 42.3244 11.1541 41.6085 11.1541ZM41.6135 9.90625C42.0775 9.90625 42.4619 9.78362 42.7669 9.53835C43.0718 9.29309 43.2972 8.96662 43.443 8.55895C43.5922 8.15128 43.6667 7.70218 43.6667 7.21165C43.6667 6.72443 43.5922 6.27699 43.443 5.86932C43.2972 5.45833 43.0718 5.12855 42.7669 4.87997C42.4619 4.63139 42.0775 4.5071 41.6135 4.5071C41.1461 4.5071 40.7583 4.63139 40.4501 4.87997C40.1452 5.12855 39.9181 5.45833 39.769 5.86932C39.6232 6.27699 39.5502 6.72443 39.5502 7.21165C39.5502 7.70218 39.6232 8.15128 39.769 8.55895C39.9181 8.96662 40.1452 9.29309 40.4501 9.53835C40.7583 9.78362 41.1461 9.90625 41.6135 9.90625ZM48.3139 6.46591V11H46.8274V3.36364H48.2543V4.60653H48.3487C48.5244 4.20218 48.7995 3.87737 49.174 3.6321C49.5518 3.38684 50.0275 3.2642 50.6009 3.2642C51.1212 3.2642 51.5769 3.37358 51.968 3.59233C52.3591 3.80777 52.6624 4.12926 52.8778 4.55682C53.0933 4.98437 53.201 5.51302 53.201 6.14276V11H51.7145V6.32173C51.7145 5.76823 51.5703 5.3357 51.282 5.02415C50.9936 4.70928 50.5975 4.55185 50.0938 4.55185C49.7491 4.55185 49.4425 4.62642 49.174 4.77557C48.9089 4.92472 48.6984 5.14347 48.5426 5.43182C48.3902 5.71686 48.3139 6.06155 48.3139 6.46591ZM59.6939 6.05327V7.34091H55.1797V6.05327H59.6939ZM63.1616 0.818182V11H61.6751V0.818182H63.1616ZM68.4526 11.1541C67.7002 11.1541 67.0523 10.9934 66.5087 10.6719C65.9685 10.3471 65.5508 9.89134 65.2559 9.30469C64.9642 8.71473 64.8184 8.02367 64.8184 7.23153C64.8184 6.44934 64.9642 5.75994 65.2559 5.16335C65.5508 4.56676 65.9618 4.10109 66.4888 3.76633C67.0191 3.43158 67.6389 3.2642 68.3482 3.2642C68.7791 3.2642 69.1967 3.33546 69.601 3.47798C70.0054 3.6205 70.3683 3.84422 70.6898 4.14915C71.0113 4.45407 71.2649 4.85014 71.4505 5.33736C71.6361 5.82126 71.7289 6.40956 71.7289 7.10227V7.62926H65.6586V6.51562H70.2722C70.2722 6.12453 70.1926 5.77817 70.0336 5.47656C69.8745 5.17164 69.6507 4.93134 69.3624 4.75568C69.0774 4.58002 68.7426 4.49219 68.3581 4.49219C67.9405 4.49219 67.5759 4.59493 67.2644 4.80043C66.9561 5.0026 66.7175 5.26776 66.5485 5.59588C66.3828 5.92069 66.2999 6.27367 66.2999 6.65483V7.52486C66.2999 8.03527 66.3894 8.46946 66.5684 8.82741C66.7507 9.18537 67.0042 9.45881 67.329 9.64773C67.6538 9.83333 68.0333 9.92614 68.4675 9.92614C68.7492 9.92614 69.0061 9.88636 69.2381 9.80682C69.4701 9.72396 69.6706 9.60133 69.8397 9.43892C70.0087 9.27652 70.138 9.07599 70.2275 8.83736L71.6344 9.09091C71.5217 9.50521 71.3195 9.86813 71.0279 10.1797C70.7395 10.4879 70.3766 10.7282 69.9391 10.9006C69.5049 11.0696 69.0094 11.1541 68.4526 11.1541ZM77.0124 3.36364V4.55682H72.6971V3.36364H77.0124ZM73.8803 11V2.47869C73.8803 2.00142 73.9847 1.60535 74.1935 1.29048C74.4023 0.972301 74.6791 0.735322 75.0238 0.579545C75.3685 0.420454 75.743 0.340908 76.1474 0.340908C76.4457 0.340908 76.7009 0.365767 76.913 0.415483C77.1251 0.461884 77.2826 0.504971 77.3853 0.544744L77.0373 1.74787C76.9677 1.72798 76.8782 1.70478 76.7688 1.67827C76.6594 1.64844 76.5269 1.63352 76.3711 1.63352C76.0098 1.63352 75.7513 1.72301 75.5955 1.90199C75.4431 2.08097 75.3668 2.33949 75.3668 2.67756V11H73.8803ZM82.1108 3.36364V4.55682H77.9396V3.36364H82.1108ZM79.0582 1.53409H80.5447V8.75781C80.5447 9.04616 80.5878 9.26326 80.674 9.40909C80.7602 9.55161 80.8712 9.64938 81.0071 9.70241C81.1463 9.75213 81.2971 9.77699 81.4595 9.77699C81.5788 9.77699 81.6832 9.7687 81.7727 9.75213C81.8622 9.73556 81.9318 9.7223 81.9815 9.71236L82.25 10.9403C82.1638 10.9735 82.0412 11.0066 81.8821 11.0398C81.723 11.0762 81.5241 11.0961 81.2855 11.0994C80.8944 11.1061 80.5298 11.0365 80.1918 10.8906C79.8537 10.7448 79.5803 10.5194 79.3714 10.2145C79.1626 9.90956 79.0582 9.52675 79.0582 9.06605V1.53409ZM87.9947 6.05327V7.34091H83.4805V6.05327H87.9947ZM92.8345 11.1491C92.218 11.1491 91.6679 10.9917 91.1839 10.6768C90.7034 10.3587 90.3255 9.90625 90.0504 9.3196C89.7786 8.72964 89.6428 8.02202 89.6428 7.19673C89.6428 6.37145 89.7803 5.66548 90.0554 5.07884C90.3338 4.49219 90.715 4.04309 91.1989 3.73153C91.6828 3.41998 92.2313 3.2642 92.8445 3.2642C93.3184 3.2642 93.6996 3.34375 93.9879 3.50284C94.2796 3.65862 94.505 3.84091 94.6641 4.04972C94.8265 4.25852 94.9524 4.44247 95.0419 4.60156H95.1314V0.818182H96.6179V11H95.1662V9.81179H95.0419C94.9524 9.9742 94.8232 10.1598 94.6541 10.3686C94.4884 10.5774 94.2597 10.7597 93.968 10.9155C93.6764 11.0713 93.2985 11.1491 92.8345 11.1491ZM93.1626 9.88139C93.5902 9.88139 93.9515 9.7687 94.2464 9.54332C94.5447 9.31463 94.7701 8.99811 94.9226 8.59375C95.0784 8.18939 95.1562 7.71875 95.1562 7.18182C95.1562 6.65151 95.08 6.1875 94.9276 5.78977C94.7751 5.39205 94.5514 5.08215 94.2564 4.86009C93.9614 4.63802 93.5968 4.52699 93.1626 4.52699C92.7152 4.52699 92.3423 4.64299 92.044 4.875C91.7457 5.10701 91.5204 5.42353 91.3679 5.82457C91.2188 6.22562 91.1442 6.67803 91.1442 7.18182C91.1442 7.69223 91.2204 8.15128 91.3729 8.55895C91.5253 8.96662 91.7507 9.28977 92.049 9.52841C92.3506 9.76373 92.7218 9.88139 93.1626 9.88139ZM101.956 11.1541C101.24 11.1541 100.615 10.9901 100.082 10.6619C99.5482 10.3338 99.1339 9.87476 98.839 9.2848C98.544 8.69484 98.3965 8.00544 98.3965 7.21662C98.3965 6.42448 98.544 5.73177 98.839 5.13849C99.1339 4.54522 99.5482 4.08452 100.082 3.75639C100.615 3.42827 101.24 3.2642 101.956 3.2642C102.672 3.2642 103.297 3.42827 103.83 3.75639C104.364 4.08452 104.778 4.54522 105.073 5.13849C105.368 5.73177 105.516 6.42448 105.516 7.21662C105.516 8.00544 105.368 8.69484 105.073 9.2848C104.778 9.87476 104.364 10.3338 103.83 10.6619C103.297 10.9901 102.672 11.1541 101.956 11.1541ZM101.961 9.90625C102.425 9.90625 102.81 9.78362 103.115 9.53835C103.419 9.29309 103.645 8.96662 103.791 8.55895C103.94 8.15128 104.014 7.70218 104.014 7.21165C104.014 6.72443 103.94 6.27699 103.791 5.86932C103.645 5.45833 103.419 5.12855 103.115 4.87997C102.81 4.63139 102.425 4.5071 101.961 4.5071C101.494 4.5071 101.106 4.63139 100.798 4.87997C100.493 5.12855 100.266 5.45833 100.117 5.86932C99.9708 6.27699 99.8979 6.72443 99.8979 7.21165C99.8979 7.70218 99.9708 8.15128 100.117 8.55895C100.266 8.96662 100.493 9.29309 100.798 9.53835C101.106 9.78362 101.494 9.90625 101.961 9.90625ZM112.012 7.8331V3.36364H113.504V11H112.042V9.67756H111.963C111.787 10.0852 111.505 10.425 111.118 10.6967C110.733 10.9652 110.254 11.0994 109.681 11.0994C109.19 11.0994 108.756 10.9917 108.378 10.7763C108.004 10.5575 107.709 10.2344 107.493 9.80682C107.281 9.37926 107.175 8.85062 107.175 8.22088V3.36364H108.662V8.0419C108.662 8.56226 108.806 8.97656 109.094 9.2848C109.382 9.59304 109.757 9.74716 110.218 9.74716C110.496 9.74716 110.773 9.67756 111.048 9.53835C111.326 9.39915 111.557 9.18868 111.739 8.90696C111.925 8.62524 112.016 8.26728 112.012 7.8331ZM115.621 11V0.818182H117.107V4.60156H117.197C117.283 4.44247 117.407 4.25852 117.569 4.04972C117.732 3.84091 117.957 3.65862 118.246 3.50284C118.534 3.34375 118.915 3.2642 119.389 3.2642C120.006 3.2642 120.556 3.41998 121.04 3.73153C121.523 4.04309 121.903 4.49219 122.178 5.07884C122.456 5.66548 122.596 6.37145 122.596 7.19673C122.596 8.02202 122.458 8.72964 122.183 9.3196C121.908 9.90625 121.53 10.3587 121.05 10.6768C120.569 10.9917 120.02 11.1491 119.404 11.1491C118.94 11.1491 118.56 11.0713 118.265 10.9155C117.974 10.7597 117.745 10.5774 117.579 10.3686C117.414 10.1598 117.286 9.9742 117.197 9.81179H117.072V11H115.621ZM117.077 7.18182C117.077 7.71875 117.155 8.18939 117.311 8.59375C117.467 8.99811 117.692 9.31463 117.987 9.54332C118.282 9.7687 118.643 9.88139 119.071 9.88139C119.515 9.88139 119.886 9.76373 120.184 9.52841C120.483 9.28977 120.708 8.96662 120.861 8.55895C121.016 8.15128 121.094 7.69223 121.094 7.18182C121.094 6.67803 121.018 6.22562 120.866 5.82457C120.716 5.42353 120.491 5.10701 120.189 4.875C119.891 4.64299 119.518 4.52699 119.071 4.52699C118.64 4.52699 118.275 4.63802 117.977 4.86009C117.682 5.08215 117.458 5.39205 117.306 5.78977C117.153 6.1875 117.077 6.65151 117.077 7.18182ZM125.751 0.818182V11H124.265V0.818182H125.751ZM131.042 11.1541C130.29 11.1541 129.642 10.9934 129.099 10.6719C128.558 10.3471 128.141 9.89134 127.846 9.30469C127.554 8.71473 127.408 8.02367 127.408 7.23153C127.408 6.44934 127.554 5.75994 127.846 5.16335C128.141 4.56676 128.552 4.10109 129.079 3.76633C129.609 3.43158 130.229 3.2642 130.938 3.2642C131.369 3.2642 131.787 3.33546 132.191 3.47798C132.595 3.6205 132.958 3.84422 133.28 4.14915C133.601 4.45407 133.855 4.85014 134.04 5.33736C134.226 5.82126 134.319 6.40956 134.319 7.10227V7.62926H128.248V6.51562H132.862C132.862 6.12453 132.782 5.77817 132.623 5.47656C132.464 5.17164 132.241 4.93134 131.952 4.75568C131.667 4.58002 131.332 4.49219 130.948 4.49219C130.53 4.49219 130.166 4.59493 129.854 4.80043C129.546 5.0026 129.307 5.26776 129.138 5.59588C128.973 5.92069 128.89 6.27367 128.89 6.65483V7.52486C128.89 8.03527 128.979 8.46946 129.158 8.82741C129.34 9.18537 129.594 9.45881 129.919 9.64773C130.244 9.83333 130.623 9.92614 131.057 9.92614C131.339 9.92614 131.596 9.88636 131.828 9.80682C132.06 9.72396 132.26 9.60133 132.43 9.43892C132.599 9.27652 132.728 9.07599 132.817 8.83736L134.224 9.09091C134.112 9.50521 133.909 9.86813 133.618 10.1797C133.329 10.4879 132.966 10.7282 132.529 10.9006C132.095 11.0696 131.599 11.1541 131.042 11.1541Z" fill="black"/>
</svg>
