<svg width="70" height="14" viewBox="0 0 70 14" fill="none" xmlns="http://www.w3.org/2000/svg">
<path d="M4.29048 11.1541C3.53812 11.1541 2.89015 10.9934 2.34659 10.6719C1.80634 10.3471 1.38873 9.89134 1.09375 9.30469C0.802083 8.71473 0.65625 8.02367 0.65625 7.23153C0.65625 6.44934 0.802083 5.75994 1.09375 5.16335C1.38873 4.56676 1.79972 4.10109 2.3267 3.76633C2.85701 3.43158 3.4768 3.2642 4.18608 3.2642C4.61695 3.2642 5.03456 3.33546 5.43892 3.47798C5.84328 3.6205 6.2062 3.84422 6.5277 4.14915C6.8492 4.45407 7.10275 4.85014 7.28835 5.33736C7.47396 5.82126 7.56676 6.40956 7.56676 7.10227V7.62926H1.49645V6.51562H6.11009C6.11009 6.12453 6.03054 5.77817 5.87145 5.47656C5.71236 5.17164 5.48864 4.93134 5.20028 4.75568C4.91525 4.58002 4.58049 4.49219 4.19602 4.49219C3.77841 4.49219 3.41383 4.59493 3.10227 4.80043C2.79403 5.0026 2.5554 5.26776 2.38636 5.59588C2.22064 5.92069 2.13778 6.27367 2.13778 6.65483V7.52486C2.13778 8.03527 2.22727 8.46946 2.40625 8.82741C2.58854 9.18537 2.84209 9.45881 3.1669 9.64773C3.49171 9.83333 3.87121 9.92614 4.3054 9.92614C4.58712 9.92614 4.84399 9.88636 5.07599 9.80682C5.308 9.72396 5.50852 9.60133 5.67756 9.43892C5.84659 9.27652 5.97585 9.07599 6.06534 8.83736L7.4723 9.09091C7.35961 9.50521 7.15743 9.86813 6.86577 10.1797C6.57741 10.4879 6.21449 10.7282 5.77699 10.9006C5.3428 11.0696 4.8473 11.1541 4.29048 11.1541ZM10.2116 3.36364L11.897 6.33665L13.5973 3.36364H15.223L12.8416 7.18182L15.2429 11H13.6172L11.897 8.14631L10.1818 11H8.55114L10.9276 7.18182L8.58097 3.36364H10.2116ZM16.7493 13.8636V3.36364H18.201V4.60156H18.3253C18.4115 4.44247 18.5357 4.25852 18.6982 4.04972C18.8606 3.84091 19.0859 3.65862 19.3743 3.50284C19.6626 3.34375 20.0438 3.2642 20.5178 3.2642C21.1342 3.2642 21.6844 3.41998 22.1683 3.73153C22.6522 4.04309 23.0317 4.49219 23.3068 5.07884C23.5852 5.66548 23.7244 6.37145 23.7244 7.19673C23.7244 8.02202 23.5869 8.72964 23.3118 9.3196C23.0367 9.90625 22.6589 10.3587 22.1783 10.6768C21.6977 10.9917 21.1491 11.1491 20.5327 11.1491C20.0687 11.1491 19.6892 11.0713 19.3942 10.9155C19.1025 10.7597 18.8738 10.5774 18.7081 10.3686C18.5424 10.1598 18.4148 9.9742 18.3253 9.81179H18.2358V13.8636H16.7493ZM18.206 7.18182C18.206 7.71875 18.2839 8.18939 18.4396 8.59375C18.5954 8.99811 18.8208 9.31463 19.1158 9.54332C19.4107 9.7687 19.772 9.88139 20.1996 9.88139C20.6437 9.88139 21.0149 9.76373 21.3132 9.52841C21.6115 9.28977 21.8369 8.96662 21.9893 8.55895C22.1451 8.15128 22.223 7.69223 22.223 7.18182C22.223 6.67803 22.1468 6.22562 21.9943 5.82457C21.8452 5.42353 21.6198 5.10701 21.3182 4.875C21.0199 4.64299 20.647 4.52699 20.1996 4.52699C19.7687 4.52699 19.4041 4.63802 19.1058 4.86009C18.8108 5.08215 18.5871 5.39205 18.4347 5.78977C18.2822 6.1875 18.206 6.65151 18.206 7.18182ZM27.6122 11.169C27.1283 11.169 26.6908 11.0795 26.2997 10.9006C25.9086 10.7183 25.5987 10.4548 25.37 10.1101C25.1446 9.76539 25.032 9.3428 25.032 8.84233C25.032 8.41146 25.1148 8.05682 25.2805 7.77841C25.4463 7.5 25.67 7.27959 25.9517 7.11719C26.2334 6.95478 26.5483 6.83215 26.8963 6.74929C27.2443 6.66643 27.599 6.60346 27.9602 6.56037C28.4176 6.50734 28.7888 6.46425 29.0739 6.43111C29.3589 6.39465 29.5661 6.33665 29.6953 6.2571C29.8246 6.17756 29.8892 6.0483 29.8892 5.86932V5.83452C29.8892 5.40033 29.7666 5.06392 29.5213 4.82528C29.2794 4.58665 28.9181 4.46733 28.4375 4.46733C27.937 4.46733 27.5426 4.57836 27.2543 4.80043C26.9692 5.01918 26.772 5.26278 26.6626 5.53125L25.2656 5.21307C25.4313 4.74905 25.6733 4.37453 25.9915 4.08949C26.313 3.80114 26.6825 3.59233 27.1001 3.46307C27.5178 3.33049 27.9569 3.2642 28.4176 3.2642C28.7225 3.2642 29.0457 3.30066 29.3871 3.37358C29.7318 3.44318 30.0533 3.57244 30.3516 3.76136C30.6532 3.95028 30.9001 4.22041 31.0923 4.57173C31.2846 4.91974 31.3807 5.37216 31.3807 5.92898V11H29.929V9.95597H29.8693C29.7732 10.1482 29.629 10.3371 29.4368 10.5227C29.2446 10.7083 28.9976 10.8625 28.696 10.9851C28.3944 11.1077 28.0331 11.169 27.6122 11.169ZM27.9354 9.97585C28.3464 9.97585 28.6977 9.89465 28.9893 9.73224C29.2843 9.56984 29.508 9.35772 29.6605 9.09588C29.8163 8.83073 29.8942 8.54735 29.8942 8.24574V7.26136C29.8411 7.31439 29.7384 7.36411 29.5859 7.41051C29.4368 7.4536 29.2661 7.49171 29.0739 7.52486C28.8816 7.55469 28.6944 7.58286 28.5121 7.60938C28.3298 7.63258 28.1773 7.65246 28.0547 7.66903C27.7663 7.70549 27.5028 7.76681 27.2642 7.85298C27.0289 7.93916 26.84 8.06345 26.6974 8.22585C26.5582 8.38494 26.4886 8.59706 26.4886 8.86222C26.4886 9.23011 26.6245 9.50852 26.8963 9.69744C27.1681 9.88305 27.5144 9.97585 27.9354 9.97585ZM34.8471 6.46591V11H33.3606V3.36364H34.7875V4.60653H34.8819C35.0576 4.20218 35.3327 3.87737 35.7072 3.6321C36.085 3.38684 36.5607 3.2642 37.1341 3.2642C37.6544 3.2642 38.1101 3.37358 38.5012 3.59233C38.8923 3.80777 39.1956 4.12926 39.411 4.55682C39.6265 4.98437 39.7342 5.51302 39.7342 6.14276V11H38.2477V6.32173C38.2477 5.76823 38.1035 5.3357 37.8152 5.02415C37.5268 4.70928 37.1307 4.55185 36.627 4.55185C36.2823 4.55185 35.9757 4.62642 35.7072 4.77557C35.4421 4.92472 35.2316 5.14347 35.0758 5.43182C34.9234 5.71686 34.8471 6.06155 34.8471 6.46591ZM44.5865 11.1491C43.97 11.1491 43.4198 10.9917 42.9359 10.6768C42.4553 10.3587 42.0775 9.90625 41.8024 9.3196C41.5306 8.72964 41.3947 8.02202 41.3947 7.19673C41.3947 6.37145 41.5323 5.66548 41.8074 5.07884C42.0858 4.49219 42.4669 4.04309 42.9508 3.73153C43.4347 3.41998 43.9833 3.2642 44.5964 3.2642C45.0704 3.2642 45.4515 3.34375 45.7399 3.50284C46.0315 3.65862 46.2569 3.84091 46.416 4.04972C46.5784 4.25852 46.7044 4.44247 46.7939 4.60156H46.8833V0.818182H48.3699V11H46.9181V9.81179H46.7939C46.7044 9.9742 46.5751 10.1598 46.4061 10.3686C46.2404 10.5774 46.0117 10.7597 45.72 10.9155C45.4283 11.0713 45.0505 11.1491 44.5865 11.1491ZM44.9146 9.88139C45.3422 9.88139 45.7034 9.7687 45.9984 9.54332C46.2967 9.31463 46.5221 8.99811 46.6745 8.59375C46.8303 8.18939 46.9082 7.71875 46.9082 7.18182C46.9082 6.65151 46.832 6.1875 46.6795 5.78977C46.527 5.39205 46.3033 5.08215 46.0083 4.86009C45.7134 4.63802 45.3488 4.52699 44.9146 4.52699C44.4672 4.52699 44.0943 4.64299 43.796 4.875C43.4977 5.10701 43.2723 5.42353 43.1199 5.82457C42.9707 6.22562 42.8961 6.67803 42.8961 7.18182C42.8961 7.69223 42.9724 8.15128 43.1248 8.55895C43.2773 8.96662 43.5027 9.28977 43.801 9.52841C44.1026 9.76373 44.4738 9.88139 44.9146 9.88139ZM54.9908 6.05327V7.34091H50.4766V6.05327H54.9908ZM60.4968 11.169C59.7113 11.1657 59.0401 10.9586 58.4833 10.5476C57.9265 10.1366 57.5006 9.53835 57.2056 8.75284C56.9106 7.96733 56.7631 7.02107 56.7631 5.91406C56.7631 4.81037 56.9106 3.86742 57.2056 3.08523C57.5039 2.30303 57.9315 1.70644 58.4883 1.29545C59.0484 0.884469 59.7179 0.678977 60.4968 0.678977C61.2757 0.678977 61.9435 0.886126 62.5004 1.30043C63.0572 1.71141 63.4831 2.308 63.7781 3.0902C64.0763 3.86908 64.2255 4.81037 64.2255 5.91406C64.2255 7.02438 64.078 7.9723 63.783 8.75781C63.488 9.54001 63.0621 10.1383 62.5053 10.5526C61.9485 10.9635 61.279 11.169 60.4968 11.169ZM60.4968 9.84162C61.1862 9.84162 61.7248 9.50521 62.1126 8.83239C62.5037 8.15956 62.6992 7.18679 62.6992 5.91406C62.6992 5.06889 62.6097 4.35464 62.4308 3.77131C62.2551 3.18466 62.0015 2.74053 61.6701 2.43892C61.342 2.134 60.9509 1.98153 60.4968 1.98153C59.8107 1.98153 59.2721 2.3196 58.881 2.99574C58.4899 3.67187 58.2927 4.64465 58.2894 5.91406C58.2894 6.76255 58.3772 7.48011 58.5529 8.06676C58.7319 8.65009 58.9854 9.09257 59.3136 9.39418C59.6417 9.69247 60.0361 9.84162 60.4968 9.84162ZM69.8521 0.818182V11H68.3109V2.35938H68.2512L65.8152 3.95028V2.47869L68.3556 0.818182H69.8521Z" fill="black"/>
</svg>
