<svg width="89" height="12" viewBox="0 0 89 12" fill="none" xmlns="http://www.w3.org/2000/svg">
<path d="M3.22159 11.169C2.73769 11.169 2.30019 11.0795 1.90909 10.9006C1.51799 10.7183 1.2081 10.4548 0.979403 10.1101C0.754025 9.76539 0.641335 9.3428 0.641335 8.84233C0.641335 8.41146 0.724195 8.05682 0.889915 7.77841C1.05563 7.5 1.27936 7.27959 1.56108 7.11719C1.8428 6.95478 2.15767 6.83215 2.50568 6.74929C2.85369 6.66643 3.20833 6.60346 3.5696 6.56037C4.02699 6.50734 4.3982 6.46425 4.68324 6.43111C4.96828 6.39465 5.17543 6.33665 5.30469 6.2571C5.43395 6.17756 5.49858 6.0483 5.49858 5.86932V5.83452C5.49858 5.40033 5.37595 5.06392 5.13068 4.82528C4.88873 4.58665 4.52746 4.46733 4.04688 4.46733C3.5464 4.46733 3.15199 4.57836 2.86364 4.80043C2.5786 5.01918 2.38139 5.26278 2.27202 5.53125L0.875 5.21307C1.04072 4.74905 1.28267 4.37453 1.60085 4.08949C1.92235 3.80114 2.2919 3.59233 2.70952 3.46307C3.12713 3.33049 3.56629 3.2642 4.02699 3.2642C4.33191 3.2642 4.65507 3.30066 4.99645 3.37358C5.34115 3.44318 5.66264 3.57244 5.96094 3.76136C6.26255 3.95028 6.50947 4.22041 6.7017 4.57173C6.89394 4.91974 6.99006 5.37216 6.99006 5.92898V11H5.53835V9.95597H5.47869C5.38258 10.1482 5.2384 10.3371 5.04616 10.5227C4.85393 10.7083 4.60701 10.8625 4.3054 10.9851C4.00379 11.1077 3.64252 11.169 3.22159 11.169ZM3.54474 9.97585C3.95573 9.97585 4.30706 9.89465 4.59872 9.73224C4.8937 9.56984 5.11742 9.35772 5.26989 9.09588C5.42566 8.83073 5.50355 8.54735 5.50355 8.24574V7.26136C5.45052 7.31439 5.34777 7.36411 5.19531 7.41051C5.04616 7.4536 4.87547 7.49171 4.68324 7.52486C4.491 7.55469 4.30374 7.58286 4.12145 7.60938C3.93916 7.63258 3.7867 7.65246 3.66406 7.66903C3.37571 7.70549 3.11222 7.76681 2.87358 7.85298C2.63826 7.93916 2.44934 8.06345 2.30682 8.22585C2.16761 8.38494 2.09801 8.59706 2.09801 8.86222C2.09801 9.23011 2.2339 9.50852 2.50568 9.69744C2.77746 9.88305 3.12382 9.97585 3.54474 9.97585ZM8.96999 11V3.36364H10.4068V4.5767H10.4863C10.6255 4.16572 10.8708 3.84257 11.2221 3.60724C11.5768 3.36861 11.9778 3.24929 12.4252 3.24929C12.5181 3.24929 12.6274 3.2526 12.7534 3.25923C12.8826 3.26586 12.9837 3.27415 13.0566 3.28409V4.70597C12.997 4.68939 12.8909 4.67116 12.7385 4.65128C12.586 4.62808 12.4335 4.61648 12.2811 4.61648C11.9297 4.61648 11.6165 4.69105 11.3414 4.8402C11.0697 4.98603 10.8542 5.18987 10.6951 5.4517C10.536 5.71023 10.4565 6.00521 10.4565 6.33665V11H8.96999ZM14.343 11V3.36364H15.7798V4.5767H15.8594C15.9986 4.16572 16.2438 3.84257 16.5952 3.60724C16.9498 3.36861 17.3509 3.24929 17.7983 3.24929C17.8911 3.24929 18.0005 3.2526 18.1264 3.25923C18.2557 3.26586 18.3568 3.27415 18.4297 3.28409V4.70597C18.37 4.68939 18.264 4.67116 18.1115 4.65128C17.959 4.62808 17.8066 4.61648 17.6541 4.61648C17.3028 4.61648 16.9896 4.69105 16.7145 4.8402C16.4427 4.98603 16.2273 5.18987 16.0682 5.4517C15.9091 5.71023 15.8295 6.00521 15.8295 6.33665V11H14.343ZM22.6593 11.1541C21.9434 11.1541 21.3186 10.9901 20.785 10.6619C20.2514 10.3338 19.8371 9.87476 19.5421 9.2848C19.2471 8.69484 19.0996 8.00544 19.0996 7.21662C19.0996 6.42448 19.2471 5.73177 19.5421 5.13849C19.8371 4.54522 20.2514 4.08452 20.785 3.75639C21.3186 3.42827 21.9434 3.2642 22.6593 3.2642C23.3752 3.2642 23.9999 3.42827 24.5336 3.75639C25.0672 4.08452 25.4815 4.54522 25.7765 5.13849C26.0714 5.73177 26.2189 6.42448 26.2189 7.21662C26.2189 8.00544 26.0714 8.69484 25.7765 9.2848C25.4815 9.87476 25.0672 10.3338 24.5336 10.6619C23.9999 10.9901 23.3752 11.1541 22.6593 11.1541ZM22.6642 9.90625C23.1283 9.90625 23.5127 9.78362 23.8176 9.53835C24.1226 9.29309 24.348 8.96662 24.4938 8.55895C24.6429 8.15128 24.7175 7.70218 24.7175 7.21165C24.7175 6.72443 24.6429 6.27699 24.4938 5.86932C24.348 5.45833 24.1226 5.12855 23.8176 4.87997C23.5127 4.63139 23.1283 4.5071 22.6642 4.5071C22.1969 4.5071 21.8091 4.63139 21.5009 4.87997C21.196 5.12855 20.9689 5.45833 20.8198 5.86932C20.6739 6.27699 20.601 6.72443 20.601 7.21165C20.601 7.70218 20.6739 8.15128 20.8198 8.55895C20.9689 8.96662 21.196 9.29309 21.5009 9.53835C21.8091 9.78362 22.1969 9.90625 22.6642 9.90625ZM29.3013 11L27.0542 3.36364H28.5904L30.0868 8.97159H30.1614L31.6628 3.36364H33.199L34.6905 8.94673H34.7651L36.2516 3.36364H37.7878L35.5456 11H34.0293L32.4782 5.48651H32.3638L30.8127 11H29.3013ZM44.9208 5.22798L43.5735 5.46662C43.5172 5.29427 43.4277 5.13021 43.305 4.97443C43.1857 4.81865 43.0233 4.69105 42.8178 4.59162C42.6123 4.49219 42.3555 4.44247 42.0472 4.44247C41.6263 4.44247 41.275 4.53693 40.9933 4.72585C40.7115 4.91146 40.5707 5.15175 40.5707 5.44673C40.5707 5.70194 40.6651 5.90743 40.854 6.06321C41.043 6.21899 41.3479 6.34659 41.7688 6.44602L42.9819 6.72443C43.6845 6.88684 44.2082 7.13707 44.5529 7.47514C44.8976 7.81321 45.07 8.25237 45.07 8.79261C45.07 9.25 44.9374 9.65767 44.6722 10.0156C44.4104 10.3703 44.0442 10.6487 43.5735 10.8509C43.1062 11.053 42.5643 11.1541 41.9478 11.1541C41.0927 11.1541 40.395 10.9718 39.8548 10.6072C39.3145 10.2393 38.9831 9.71733 38.8604 9.04119L40.2972 8.82244C40.3867 9.19697 40.5707 9.48035 40.8491 9.67259C41.1275 9.86151 41.4904 9.95597 41.9379 9.95597C42.4251 9.95597 42.8145 9.85488 43.1062 9.6527C43.3978 9.44721 43.5437 9.19697 43.5437 8.90199C43.5437 8.66335 43.4542 8.46283 43.2752 8.30043C43.0996 8.13802 42.8294 8.01539 42.4648 7.93253L41.1722 7.64915C40.4596 7.48674 39.9326 7.22822 39.5913 6.87358C39.2532 6.51894 39.0842 6.06984 39.0842 5.52628C39.0842 5.07552 39.2101 4.68111 39.462 4.34304C39.7139 4.00497 40.0619 3.74148 40.506 3.55256C40.9502 3.36032 41.4589 3.2642 42.0323 3.2642C42.8576 3.2642 43.5072 3.44318 43.9812 3.80114C44.4551 4.15578 44.7683 4.63139 44.9208 5.22798ZM51.2037 6.05327V7.34091H46.6895V6.05327H51.2037ZM56.0435 11.1491C55.427 11.1491 54.8768 10.9917 54.3929 10.6768C53.9123 10.3587 53.5345 9.90625 53.2594 9.3196C52.9876 8.72964 52.8517 8.02202 52.8517 7.19673C52.8517 6.37145 52.9893 5.66548 53.2644 5.07884C53.5428 4.49219 53.9239 4.04309 54.4078 3.73153C54.8917 3.41998 55.4403 3.2642 56.0534 3.2642C56.5274 3.2642 56.9086 3.34375 57.1969 3.50284C57.4886 3.65862 57.714 3.84091 57.873 4.04972C58.0355 4.25852 58.1614 4.44247 58.2509 4.60156H58.3404V0.818182H59.8269V11H58.3752V9.81179H58.2509C58.1614 9.9742 58.0321 10.1598 57.8631 10.3686C57.6974 10.5774 57.4687 10.7597 57.177 10.9155C56.8854 11.0713 56.5075 11.1491 56.0435 11.1491ZM56.3716 9.88139C56.7992 9.88139 57.1605 9.7687 57.4554 9.54332C57.7537 9.31463 57.9791 8.99811 58.1316 8.59375C58.2873 8.18939 58.3652 7.71875 58.3652 7.18182C58.3652 6.65151 58.289 6.1875 58.1365 5.78977C57.9841 5.39205 57.7604 5.08215 57.4654 4.86009C57.1704 4.63802 56.8058 4.52699 56.3716 4.52699C55.9242 4.52699 55.5513 4.64299 55.253 4.875C54.9547 5.10701 54.7293 5.42353 54.5769 5.82457C54.4277 6.22562 54.3532 6.67803 54.3532 7.18182C54.3532 7.69223 54.4294 8.15128 54.5819 8.55895C54.7343 8.96662 54.9597 9.28977 55.258 9.52841C55.5596 9.76373 55.9308 9.88139 56.3716 9.88139ZM65.1651 11.1541C64.4492 11.1541 63.8245 10.9901 63.2908 10.6619C62.7572 10.3338 62.3429 9.87476 62.0479 9.2848C61.753 8.69484 61.6055 8.00544 61.6055 7.21662C61.6055 6.42448 61.753 5.73177 62.0479 5.13849C62.3429 4.54522 62.7572 4.08452 63.2908 3.75639C63.8245 3.42827 64.4492 3.2642 65.1651 3.2642C65.881 3.2642 66.5058 3.42827 67.0394 3.75639C67.573 4.08452 67.9873 4.54522 68.2823 5.13849C68.5773 5.73177 68.7248 6.42448 68.7248 7.21662C68.7248 8.00544 68.5773 8.69484 68.2823 9.2848C67.9873 9.87476 67.573 10.3338 67.0394 10.6619C66.5058 10.9901 65.881 11.1541 65.1651 11.1541ZM65.1701 9.90625C65.6341 9.90625 66.0186 9.78362 66.3235 9.53835C66.6284 9.29309 66.8538 8.96662 66.9996 8.55895C67.1488 8.15128 67.2234 7.70218 67.2234 7.21165C67.2234 6.72443 67.1488 6.27699 66.9996 5.86932C66.8538 5.45833 66.6284 5.12855 66.3235 4.87997C66.0186 4.63139 65.6341 4.5071 65.1701 4.5071C64.7028 4.5071 64.315 4.63139 64.0067 4.87997C63.7018 5.12855 63.4748 5.45833 63.3256 5.86932C63.1798 6.27699 63.1069 6.72443 63.1069 7.21165C63.1069 7.70218 63.1798 8.15128 63.3256 8.55895C63.4748 8.96662 63.7018 9.29309 64.0067 9.53835C64.315 9.78362 64.7028 9.90625 65.1701 9.90625ZM71.8072 11L69.56 3.36364H71.0962L72.5927 8.97159H72.6673L74.1687 3.36364H75.7049L77.1964 8.94673H77.271L78.7575 3.36364H80.2937L78.0515 11H76.5352L74.984 5.48651H74.8697L73.3185 11H71.8072ZM83.1909 6.46591V11H81.7044V3.36364H83.1312V4.60653H83.2257C83.4013 4.20218 83.6764 3.87737 84.051 3.6321C84.4288 3.38684 84.9044 3.2642 85.4778 3.2642C85.9982 3.2642 86.4539 3.37358 86.845 3.59233C87.2361 3.80777 87.5394 4.12926 87.7548 4.55682C87.9702 4.98437 88.0779 5.51302 88.0779 6.14276V11H86.5914V6.32173C86.5914 5.76823 86.4473 5.3357 86.1589 5.02415C85.8706 4.70928 85.4745 4.55185 84.9707 4.55185C84.626 4.55185 84.3194 4.62642 84.051 4.77557C83.7858 4.92472 83.5753 5.14347 83.4196 5.43182C83.2671 5.71686 83.1909 6.06155 83.1909 6.46591Z" fill="black"/>
</svg>
