<svg width="92" height="14" viewBox="0 0 92 14" fill="none" xmlns="http://www.w3.org/2000/svg">
<path d="M4.63352 3.36364V4.55682H0.318182V3.36364H4.63352ZM1.50142 11V2.47869C1.50142 2.00142 1.60582 1.60535 1.81463 1.29048C2.02344 0.972301 2.30019 0.735322 2.64489 0.579545C2.98958 0.420454 3.36411 0.340908 3.76847 0.340908C4.06676 0.340908 4.32197 0.365767 4.53409 0.415483C4.74621 0.461884 4.90365 0.504971 5.00639 0.544744L4.65838 1.74787C4.58878 1.72798 4.49929 1.70478 4.38991 1.67827C4.28054 1.64844 4.14796 1.63352 3.99219 1.63352C3.63092 1.63352 3.3724 1.72301 3.21662 1.90199C3.06416 2.08097 2.98793 2.33949 2.98793 2.67756V11H1.50142ZM7.65376 0.818182V11H6.16726V0.818182H7.65376ZM9.65359 11V3.36364H11.1401V11H9.65359ZM10.4043 2.18537C10.1458 2.18537 9.92371 2.09919 9.7381 1.92685C9.55581 1.75118 9.46467 1.54238 9.46467 1.30043C9.46467 1.05516 9.55581 0.846354 9.7381 0.674005C9.92371 0.498342 10.1458 0.410511 10.4043 0.410511C10.6628 0.410511 10.8832 0.498342 11.0655 0.674005C11.2511 0.846354 11.3439 1.05516 11.3439 1.30043C11.3439 1.54238 11.2511 1.75118 11.0655 1.92685C10.8832 2.09919 10.6628 2.18537 10.4043 2.18537ZM13.1399 13.8636V3.36364H14.5916V4.60156H14.7159C14.8021 4.44247 14.9264 4.25852 15.0888 4.04972C15.2512 3.84091 15.4766 3.65862 15.7649 3.50284C16.0533 3.34375 16.4344 3.2642 16.9084 3.2642C17.5249 3.2642 18.075 3.41998 18.5589 3.73153C19.0429 4.04309 19.4223 4.49219 19.6974 5.07884C19.9759 5.66548 20.1151 6.37145 20.1151 7.19673C20.1151 8.02202 19.9775 8.72964 19.7024 9.3196C19.4273 9.90625 19.0495 10.3587 18.5689 10.6768C18.0883 10.9917 17.5398 11.1491 16.9233 11.1491C16.4593 11.1491 16.0798 11.0713 15.7848 10.9155C15.4931 10.7597 15.2644 10.5774 15.0987 10.3686C14.933 10.1598 14.8054 9.9742 14.7159 9.81179H14.6264V13.8636H13.1399ZM14.5966 7.18182C14.5966 7.71875 14.6745 8.18939 14.8303 8.59375C14.986 8.99811 15.2114 9.31463 15.5064 9.54332C15.8014 9.7687 16.1626 9.88139 16.5902 9.88139C17.0343 9.88139 17.4055 9.76373 17.7038 9.52841C18.0021 9.28977 18.2275 8.96662 18.38 8.55895C18.5357 8.15128 18.6136 7.69223 18.6136 7.18182C18.6136 6.67803 18.5374 6.22562 18.3849 5.82457C18.2358 5.42353 18.0104 5.10701 17.7088 4.875C17.4105 4.64299 17.0376 4.52699 16.5902 4.52699C16.1593 4.52699 15.7947 4.63802 15.4964 4.86009C15.2015 5.08215 14.9777 5.39205 14.8253 5.78977C14.6728 6.1875 14.5966 6.65151 14.5966 7.18182ZM26.2798 6.05327V7.34091H21.7656V6.05327H26.2798ZM28.3803 11V0.818182H29.8668V4.60156H29.9563C30.0425 4.44247 30.1668 4.25852 30.3292 4.04972C30.4916 3.84091 30.717 3.65862 31.0053 3.50284C31.2937 3.34375 31.6748 3.2642 32.1488 3.2642C32.7653 3.2642 33.3155 3.41998 33.7994 3.73153C34.2833 4.04309 34.6628 4.49219 34.9379 5.07884C35.2163 5.66548 35.3555 6.37145 35.3555 7.19673C35.3555 8.02202 35.2179 8.72964 34.9428 9.3196C34.6677 9.90625 34.2899 10.3587 33.8093 10.6768C33.3287 10.9917 32.7802 11.1491 32.1637 11.1491C31.6997 11.1491 31.3202 11.0713 31.0252 10.9155C30.7335 10.7597 30.5049 10.5774 30.3391 10.3686C30.1734 10.1598 30.0458 9.9742 29.9563 9.81179H29.832V11H28.3803ZM29.837 7.18182C29.837 7.71875 29.9149 8.18939 30.0707 8.59375C30.2264 8.99811 30.4518 9.31463 30.7468 9.54332C31.0418 9.7687 31.4031 9.88139 31.8306 9.88139C32.2747 9.88139 32.646 9.76373 32.9442 9.52841C33.2425 9.28977 33.4679 8.96662 33.6204 8.55895C33.7762 8.15128 33.854 7.69223 33.854 7.18182C33.854 6.67803 33.7778 6.22562 33.6254 5.82457C33.4762 5.42353 33.2508 5.10701 32.9492 4.875C32.6509 4.64299 32.2781 4.52699 31.8306 4.52699C31.3997 4.52699 31.0352 4.63802 30.7369 4.86009C30.4419 5.08215 30.2182 5.39205 30.0657 5.78977C29.9132 6.1875 29.837 6.65151 29.837 7.18182ZM39.247 11.169C38.7631 11.169 38.3256 11.0795 37.9345 10.9006C37.5434 10.7183 37.2335 10.4548 37.0048 10.1101C36.7794 9.76539 36.6667 9.3428 36.6667 8.84233C36.6667 8.41146 36.7496 8.05682 36.9153 7.77841C37.081 7.5 37.3047 7.27959 37.5865 7.11719C37.8682 6.95478 38.1831 6.83215 38.5311 6.74929C38.8791 6.66643 39.2337 6.60346 39.595 6.56037C40.0524 6.50734 40.4236 6.46425 40.7086 6.43111C40.9937 6.39465 41.2008 6.33665 41.3301 6.2571C41.4593 6.17756 41.524 6.0483 41.524 5.86932V5.83452C41.524 5.40033 41.4013 5.06392 41.1561 4.82528C40.9141 4.58665 40.5529 4.46733 40.0723 4.46733C39.5718 4.46733 39.1774 4.57836 38.889 4.80043C38.604 5.01918 38.4068 5.26278 38.2974 5.53125L36.9004 5.21307C37.0661 4.74905 37.3081 4.37453 37.6262 4.08949C37.9477 3.80114 38.3173 3.59233 38.7349 3.46307C39.1525 3.33049 39.5917 3.2642 40.0524 3.2642C40.3573 3.2642 40.6805 3.30066 41.0218 3.37358C41.3665 3.44318 41.688 3.57244 41.9863 3.76136C42.2879 3.95028 42.5349 4.22041 42.7271 4.57173C42.9193 4.91974 43.0154 5.37216 43.0154 5.92898V11H41.5637V9.95597H41.5041C41.408 10.1482 41.2638 10.3371 41.0716 10.5227C40.8793 10.7083 40.6324 10.8625 40.3308 10.9851C40.0292 11.1077 39.6679 11.169 39.247 11.169ZM39.5701 9.97585C39.9811 9.97585 40.3324 9.89465 40.6241 9.73224C40.9191 9.56984 41.1428 9.35772 41.2953 9.09588C41.4511 8.83073 41.5289 8.54735 41.5289 8.24574V7.26136C41.4759 7.31439 41.3732 7.36411 41.2207 7.41051C41.0716 7.4536 40.9009 7.49171 40.7086 7.52486C40.5164 7.55469 40.3291 7.58286 40.1468 7.60938C39.9645 7.63258 39.8121 7.65246 39.6895 7.66903C39.4011 7.70549 39.1376 7.76681 38.899 7.85298C38.6636 7.93916 38.4747 8.06345 38.3322 8.22585C38.193 8.38494 38.1234 8.59706 38.1234 8.86222C38.1234 9.23011 38.2593 9.50852 38.5311 9.69744C38.8029 9.88305 39.1492 9.97585 39.5701 9.97585ZM48.212 11.1541C47.4729 11.1541 46.8365 10.9867 46.3029 10.652C45.7726 10.3139 45.3649 9.84825 45.0799 9.25497C44.7949 8.66169 44.6523 7.98224 44.6523 7.21662C44.6523 6.44105 44.7982 5.75663 45.0898 5.16335C45.3815 4.56676 45.7925 4.10109 46.3228 3.76633C46.8531 3.43158 47.4779 3.2642 48.1971 3.2642C48.7771 3.2642 49.2942 3.37192 49.7482 3.58736C50.2023 3.79948 50.5685 4.09777 50.8469 4.48224C51.1287 4.86671 51.296 5.31581 51.3491 5.82955H49.9023C49.8228 5.47159 49.6405 5.16335 49.3555 4.90483C49.0737 4.64631 48.6959 4.51705 48.2219 4.51705C47.8076 4.51705 47.4447 4.62642 47.1332 4.84517C46.8249 5.06061 46.5846 5.36884 46.4123 5.76989C46.2399 6.16761 46.1538 6.63826 46.1538 7.18182C46.1538 7.73864 46.2383 8.21922 46.4073 8.62358C46.5763 9.02794 46.815 9.34115 47.1232 9.56321C47.4348 9.78527 47.801 9.89631 48.2219 9.89631C48.5037 9.89631 48.7589 9.84493 48.9876 9.74219C49.2196 9.63613 49.4135 9.48532 49.5692 9.28977C49.7283 9.09422 49.8394 8.8589 49.9023 8.58381H51.3491C51.296 9.07765 51.1353 9.51847 50.8668 9.90625C50.5984 10.294 50.2388 10.599 49.788 10.821C49.3406 11.0431 48.8152 11.1541 48.212 11.1541ZM54.3059 8.4098L54.296 6.59517H54.5545L57.5971 3.36364H59.377L55.9068 7.04261H55.6731L54.3059 8.4098ZM52.9387 11V0.818182H54.4252V11H52.9387ZM57.7612 11L55.0268 7.37074L56.051 6.33168L59.5858 11H57.7612ZM62.3873 11L60.1401 3.36364H61.6763L63.1728 8.97159H63.2473L64.7488 3.36364H66.285L67.7765 8.94673H67.851L69.3375 3.36364H70.8738L68.6316 11H67.1152L65.5641 5.48651H65.4498L63.8986 11H62.3873ZM74.5067 11.169C74.0228 11.169 73.5853 11.0795 73.1942 10.9006C72.8031 10.7183 72.4933 10.4548 72.2646 10.1101C72.0392 9.76539 71.9265 9.3428 71.9265 8.84233C71.9265 8.41146 72.0094 8.05682 72.1751 7.77841C72.3408 7.5 72.5645 7.27959 72.8462 7.11719C73.128 6.95478 73.4428 6.83215 73.7908 6.74929C74.1388 6.66643 74.4935 6.60346 74.8548 6.56037C75.3121 6.50734 75.6834 6.46425 75.9684 6.43111C76.2534 6.39465 76.4606 6.33665 76.5898 6.2571C76.7191 6.17756 76.7837 6.0483 76.7837 5.86932V5.83452C76.7837 5.40033 76.6611 5.06392 76.4158 4.82528C76.1739 4.58665 75.8126 4.46733 75.332 4.46733C74.8316 4.46733 74.4371 4.57836 74.1488 4.80043C73.8638 5.01918 73.6665 5.26278 73.5572 5.53125L72.1602 5.21307C72.3259 4.74905 72.5678 4.37453 72.886 4.08949C73.2075 3.80114 73.5771 3.59233 73.9947 3.46307C74.4123 3.33049 74.8514 3.2642 75.3121 3.2642C75.6171 3.2642 75.9402 3.30066 76.2816 3.37358C76.6263 3.44318 76.9478 3.57244 77.2461 3.76136C77.5477 3.95028 77.7946 4.22041 77.9869 4.57173C78.1791 4.91974 78.2752 5.37216 78.2752 5.92898V11H76.8235V9.95597H76.7638C76.6677 10.1482 76.5236 10.3371 76.3313 10.5227C76.1391 10.7083 75.8922 10.8625 75.5906 10.9851C75.2889 11.1077 74.9277 11.169 74.5067 11.169ZM74.8299 9.97585C75.2409 9.97585 75.5922 9.89465 75.8839 9.73224C76.1789 9.56984 76.4026 9.35772 76.555 9.09588C76.7108 8.83073 76.7887 8.54735 76.7887 8.24574V7.26136C76.7357 7.31439 76.6329 7.36411 76.4805 7.41051C76.3313 7.4536 76.1606 7.49171 75.9684 7.52486C75.7762 7.55469 75.5889 7.58286 75.4066 7.60938C75.2243 7.63258 75.0719 7.65246 74.9492 7.66903C74.6609 7.70549 74.3974 7.76681 74.1587 7.85298C73.9234 7.93916 73.7345 8.06345 73.592 8.22585C73.4528 8.38494 73.3832 8.59706 73.3832 8.86222C73.3832 9.23011 73.5191 9.50852 73.7908 9.69744C74.0626 9.88305 74.409 9.97585 74.8299 9.97585ZM80.2551 11V3.36364H81.6919V4.5767H81.7715C81.9107 4.16572 82.156 3.84257 82.5073 3.60724C82.8619 3.36861 83.263 3.24929 83.7104 3.24929C83.8032 3.24929 83.9126 3.2526 84.0385 3.25923C84.1678 3.26586 84.2689 3.27415 84.3418 3.28409V4.70597C84.2821 4.68939 84.1761 4.67116 84.0236 4.65128C83.8712 4.62808 83.7187 4.61648 83.5662 4.61648C83.2149 4.61648 82.9017 4.69105 82.6266 4.8402C82.3548 4.98603 82.1394 5.18987 81.9803 5.4517C81.8212 5.71023 81.7417 6.00521 81.7417 6.33665V11H80.2551ZM88.2134 11.1491C87.5969 11.1491 87.0468 10.9917 86.5629 10.6768C86.0823 10.3587 85.7044 9.90625 85.4293 9.3196C85.1576 8.72964 85.0217 8.02202 85.0217 7.19673C85.0217 6.37145 85.1592 5.66548 85.4343 5.07884C85.7127 4.49219 86.0939 4.04309 86.5778 3.73153C87.0617 3.41998 87.6102 3.2642 88.2234 3.2642C88.6973 3.2642 89.0785 3.34375 89.3668 3.50284C89.6585 3.65862 89.8839 3.84091 90.043 4.04972C90.2054 4.25852 90.3313 4.44247 90.4208 4.60156H90.5103V0.818182H91.9968V11H90.5451V9.81179H90.4208C90.3313 9.9742 90.2021 10.1598 90.033 10.3686C89.8673 10.5774 89.6386 10.7597 89.3469 10.9155C89.0553 11.0713 88.6774 11.1491 88.2134 11.1491ZM88.5415 9.88139C88.9691 9.88139 89.3304 9.7687 89.6254 9.54332C89.9237 9.31463 90.149 8.99811 90.3015 8.59375C90.4573 8.18939 90.5352 7.71875 90.5352 7.18182C90.5352 6.65151 90.4589 6.1875 90.3065 5.78977C90.154 5.39205 89.9303 5.08215 89.6353 4.86009C89.3403 4.63802 88.9757 4.52699 88.5415 4.52699C88.0941 4.52699 87.7212 4.64299 87.4229 4.875C87.1246 5.10701 86.8993 5.42353 86.7468 5.82457C86.5977 6.22562 86.5231 6.67803 86.5231 7.18182C86.5231 7.69223 86.5993 8.15128 86.7518 8.55895C86.9042 8.96662 87.1296 9.28977 87.4279 9.52841C87.7295 9.76373 88.1007 9.88139 88.5415 9.88139Z" fill="black"/>
</svg>
