<svg width="172" height="15" viewBox="0 0 172 15" fill="none" xmlns="http://www.w3.org/2000/svg">
<path d="M3.22159 11.169C2.73769 11.169 2.30019 11.0795 1.90909 10.9006C1.51799 10.7183 1.2081 10.4548 0.979403 10.1101C0.754025 9.76539 0.641335 9.3428 0.641335 8.84233C0.641335 8.41146 0.724195 8.05682 0.889915 7.77841C1.05563 7.5 1.27936 7.27959 1.56108 7.11719C1.8428 6.95478 2.15767 6.83215 2.50568 6.74929C2.85369 6.66643 3.20833 6.60346 3.5696 6.56037C4.02699 6.50734 4.3982 6.46425 4.68324 6.43111C4.96828 6.39465 5.17543 6.33665 5.30469 6.2571C5.43395 6.17756 5.49858 6.0483 5.49858 5.86932V5.83452C5.49858 5.40033 5.37595 5.06392 5.13068 4.82528C4.88873 4.58665 4.52746 4.46733 4.04688 4.46733C3.5464 4.46733 3.15199 4.57836 2.86364 4.80043C2.5786 5.01918 2.38139 5.26278 2.27202 5.53125L0.875 5.21307C1.04072 4.74905 1.28267 4.37453 1.60085 4.08949C1.92235 3.80114 2.2919 3.59233 2.70952 3.46307C3.12713 3.33049 3.56629 3.2642 4.02699 3.2642C4.33191 3.2642 4.65507 3.30066 4.99645 3.37358C5.34115 3.44318 5.66264 3.57244 5.96094 3.76136C6.26255 3.95028 6.50947 4.22041 6.7017 4.57173C6.89394 4.91974 6.99006 5.37216 6.99006 5.92898V11H5.53835V9.95597H5.47869C5.38258 10.1482 5.2384 10.3371 5.04616 10.5227C4.85393 10.7083 4.60701 10.8625 4.3054 10.9851C4.00379 11.1077 3.64252 11.169 3.22159 11.169ZM3.54474 9.97585C3.95573 9.97585 4.30706 9.89465 4.59872 9.73224C4.8937 9.56984 5.11742 9.35772 5.26989 9.09588C5.42566 8.83073 5.50355 8.54735 5.50355 8.24574V7.26136C5.45052 7.31439 5.34777 7.36411 5.19531 7.41051C5.04616 7.4536 4.87547 7.49171 4.68324 7.52486C4.491 7.55469 4.30374 7.58286 4.12145 7.60938C3.93916 7.63258 3.7867 7.65246 3.66406 7.66903C3.37571 7.70549 3.11222 7.76681 2.87358 7.85298C2.63826 7.93916 2.44934 8.06345 2.30682 8.22585C2.16761 8.38494 2.09801 8.59706 2.09801 8.86222C2.09801 9.23011 2.2339 9.50852 2.50568 9.69744C2.77746 9.88305 3.12382 9.97585 3.54474 9.97585ZM8.96999 11V3.36364H10.4068V4.5767H10.4863C10.6255 4.16572 10.8708 3.84257 11.2221 3.60724C11.5768 3.36861 11.9778 3.24929 12.4252 3.24929C12.5181 3.24929 12.6274 3.2526 12.7534 3.25923C12.8826 3.26586 12.9837 3.27415 13.0566 3.28409V4.70597C12.997 4.68939 12.8909 4.67116 12.7385 4.65128C12.586 4.62808 12.4335 4.61648 12.2811 4.61648C11.9297 4.61648 11.6165 4.69105 11.3414 4.8402C11.0697 4.98603 10.8542 5.18987 10.6951 5.4517C10.536 5.71023 10.4565 6.00521 10.4565 6.33665V11H8.96999ZM14.343 11V3.36364H15.7798V4.5767H15.8594C15.9986 4.16572 16.2438 3.84257 16.5952 3.60724C16.9498 3.36861 17.3509 3.24929 17.7983 3.24929C17.8911 3.24929 18.0005 3.2526 18.1264 3.25923C18.2557 3.26586 18.3568 3.27415 18.4297 3.28409V4.70597C18.37 4.68939 18.264 4.67116 18.1115 4.65128C17.959 4.62808 17.8066 4.61648 17.6541 4.61648C17.3028 4.61648 16.9896 4.69105 16.7145 4.8402C16.4427 4.98603 16.2273 5.18987 16.0682 5.4517C15.9091 5.71023 15.8295 6.00521 15.8295 6.33665V11H14.343ZM22.6593 11.1541C21.9434 11.1541 21.3186 10.9901 20.785 10.6619C20.2514 10.3338 19.8371 9.87476 19.5421 9.2848C19.2471 8.69484 19.0996 8.00544 19.0996 7.21662C19.0996 6.42448 19.2471 5.73177 19.5421 5.13849C19.8371 4.54522 20.2514 4.08452 20.785 3.75639C21.3186 3.42827 21.9434 3.2642 22.6593 3.2642C23.3752 3.2642 23.9999 3.42827 24.5336 3.75639C25.0672 4.08452 25.4815 4.54522 25.7765 5.13849C26.0714 5.73177 26.2189 6.42448 26.2189 7.21662C26.2189 8.00544 26.0714 8.69484 25.7765 9.2848C25.4815 9.87476 25.0672 10.3338 24.5336 10.6619C23.9999 10.9901 23.3752 11.1541 22.6593 11.1541ZM22.6642 9.90625C23.1283 9.90625 23.5127 9.78362 23.8176 9.53835C24.1226 9.29309 24.348 8.96662 24.4938 8.55895C24.6429 8.15128 24.7175 7.70218 24.7175 7.21165C24.7175 6.72443 24.6429 6.27699 24.4938 5.86932C24.348 5.45833 24.1226 5.12855 23.8176 4.87997C23.5127 4.63139 23.1283 4.5071 22.6642 4.5071C22.1969 4.5071 21.8091 4.63139 21.5009 4.87997C21.196 5.12855 20.9689 5.45833 20.8198 5.86932C20.6739 6.27699 20.601 6.72443 20.601 7.21165C20.601 7.70218 20.6739 8.15128 20.8198 8.55895C20.9689 8.96662 21.196 9.29309 21.5009 9.53835C21.8091 9.78362 22.1969 9.90625 22.6642 9.90625ZM29.3013 11L27.0542 3.36364H28.5904L30.0868 8.97159H30.1614L31.6628 3.36364H33.199L34.6905 8.94673H34.7651L36.2516 3.36364H37.7878L35.5456 11H34.0293L32.4782 5.48651H32.3638L30.8127 11H29.3013ZM43.6978 6.05327V7.34091H39.1836V6.05327H43.6978ZM47.1655 6.46591V11H45.679V3.36364H47.1058V4.60653H47.2003C47.3759 4.20218 47.651 3.87737 48.0256 3.6321C48.4034 3.38684 48.879 3.2642 49.4524 3.2642C49.9728 3.2642 50.4285 3.37358 50.8196 3.59233C51.2107 3.80777 51.514 4.12926 51.7294 4.55682C51.9448 4.98437 52.0526 5.51302 52.0526 6.14276V11H50.5661V6.32173C50.5661 5.76823 50.4219 5.3357 50.1335 5.02415C49.8452 4.70928 49.4491 4.55185 48.9453 4.55185C48.6006 4.55185 48.294 4.62642 48.0256 4.77557C47.7604 4.92472 47.55 5.14347 47.3942 5.43182C47.2417 5.71686 47.1655 6.06155 47.1655 6.46591ZM56.2685 11.169C55.7846 11.169 55.3471 11.0795 54.956 10.9006C54.5649 10.7183 54.255 10.4548 54.0263 10.1101C53.8009 9.76539 53.6882 9.3428 53.6882 8.84233C53.6882 8.41146 53.7711 8.05682 53.9368 7.77841C54.1025 7.5 54.3262 7.27959 54.608 7.11719C54.8897 6.95478 55.2045 6.83215 55.5526 6.74929C55.9006 6.66643 56.2552 6.60346 56.6165 6.56037C57.0739 6.50734 57.4451 6.46425 57.7301 6.43111C58.0152 6.39465 58.2223 6.33665 58.3516 6.2571C58.4808 6.17756 58.5455 6.0483 58.5455 5.86932V5.83452C58.5455 5.40033 58.4228 5.06392 58.1776 4.82528C57.9356 4.58665 57.5743 4.46733 57.0938 4.46733C56.5933 4.46733 56.1989 4.57836 55.9105 4.80043C55.6255 5.01918 55.4283 5.26278 55.3189 5.53125L53.9219 5.21307C54.0876 4.74905 54.3295 4.37453 54.6477 4.08949C54.9692 3.80114 55.3388 3.59233 55.7564 3.46307C56.174 3.33049 56.6132 3.2642 57.0739 3.2642C57.3788 3.2642 57.7019 3.30066 58.0433 3.37358C58.388 3.44318 58.7095 3.57244 59.0078 3.76136C59.3094 3.95028 59.5563 4.22041 59.7486 4.57173C59.9408 4.91974 60.0369 5.37216 60.0369 5.92898V11H58.5852V9.95597H58.5256C58.4295 10.1482 58.2853 10.3371 58.093 10.5227C57.9008 10.7083 57.6539 10.8625 57.3523 10.9851C57.0507 11.1077 56.6894 11.169 56.2685 11.169ZM56.5916 9.97585C57.0026 9.97585 57.3539 9.89465 57.6456 9.73224C57.9406 9.56984 58.1643 9.35772 58.3168 9.09588C58.4725 8.83073 58.5504 8.54735 58.5504 8.24574V7.26136C58.4974 7.31439 58.3946 7.36411 58.2422 7.41051C58.093 7.4536 57.9223 7.49171 57.7301 7.52486C57.5379 7.55469 57.3506 7.58286 57.1683 7.60938C56.986 7.63258 56.8336 7.65246 56.7109 7.66903C56.4226 7.70549 56.1591 7.76681 55.9205 7.85298C55.6851 7.93916 55.4962 8.06345 55.3537 8.22585C55.2145 8.38494 55.1449 8.59706 55.1449 8.86222C55.1449 9.23011 55.2808 9.50852 55.5526 9.69744C55.8243 9.88305 56.1707 9.97585 56.5916 9.97585ZM62.0169 11V3.36364H63.4537V4.5767H63.5332C63.6724 4.16572 63.9177 3.84257 64.269 3.60724C64.6236 3.36861 65.0247 3.24929 65.4721 3.24929C65.5649 3.24929 65.6743 3.2526 65.8002 3.25923C65.9295 3.26586 66.0306 3.27415 66.1035 3.28409V4.70597C66.0439 4.68939 65.9378 4.67116 65.7853 4.65128C65.6329 4.62808 65.4804 4.61648 65.3279 4.61648C64.9766 4.61648 64.6634 4.69105 64.3883 4.8402C64.1165 4.98603 63.9011 5.18987 63.742 5.4517C63.5829 5.71023 63.5034 6.00521 63.5034 6.33665V11H62.0169ZM67.3899 11V3.36364H68.8267V4.5767H68.9062C69.0455 4.16572 69.2907 3.84257 69.642 3.60724C69.9967 3.36861 70.3977 3.24929 70.8452 3.24929C70.938 3.24929 71.0473 3.2526 71.1733 3.25923C71.3026 3.26586 71.4036 3.27415 71.4766 3.28409V4.70597C71.4169 4.68939 71.3108 4.67116 71.1584 4.65128C71.0059 4.62808 70.8535 4.61648 70.701 4.61648C70.3497 4.61648 70.0365 4.69105 69.7614 4.8402C69.4896 4.98603 69.2741 5.18987 69.1151 5.4517C68.956 5.71023 68.8764 6.00521 68.8764 6.33665V11H67.3899ZM75.7061 11.1541C74.9902 11.1541 74.3655 10.9901 73.8319 10.6619C73.2982 10.3338 72.8839 9.87476 72.589 9.2848C72.294 8.69484 72.1465 8.00544 72.1465 7.21662C72.1465 6.42448 72.294 5.73177 72.589 5.13849C72.8839 4.54522 73.2982 4.08452 73.8319 3.75639C74.3655 3.42827 74.9902 3.2642 75.7061 3.2642C76.4221 3.2642 77.0468 3.42827 77.5804 3.75639C78.1141 4.08452 78.5283 4.54522 78.8233 5.13849C79.1183 5.73177 79.2658 6.42448 79.2658 7.21662C79.2658 8.00544 79.1183 8.69484 78.8233 9.2848C78.5283 9.87476 78.1141 10.3338 77.5804 10.6619C77.0468 10.9901 76.4221 11.1541 75.7061 11.1541ZM75.7111 9.90625C76.1751 9.90625 76.5596 9.78362 76.8645 9.53835C77.1694 9.29309 77.3948 8.96662 77.5407 8.55895C77.6898 8.15128 77.7644 7.70218 77.7644 7.21165C77.7644 6.72443 77.6898 6.27699 77.5407 5.86932C77.3948 5.45833 77.1694 5.12855 76.8645 4.87997C76.5596 4.63139 76.1751 4.5071 75.7111 4.5071C75.2438 4.5071 74.856 4.63139 74.5478 4.87997C74.2428 5.12855 74.0158 5.45833 73.8667 5.86932C73.7208 6.27699 73.6479 6.72443 73.6479 7.21165C73.6479 7.70218 73.7208 8.15128 73.8667 8.55895C74.0158 8.96662 74.2428 9.29309 74.5478 9.53835C74.856 9.78362 75.2438 9.90625 75.7111 9.90625ZM82.3482 11L80.101 3.36364H81.6373L83.1337 8.97159H83.2083L84.7097 3.36364H86.2459L87.7374 8.94673H87.812L89.2985 3.36364H90.8347L88.5925 11H87.0762L85.525 5.48651H85.4107L83.8596 11H82.3482ZM96.7447 6.05327V7.34091H92.2305V6.05327H96.7447ZM101.585 11.1491C100.968 11.1491 100.418 10.9917 99.9339 10.6768C99.4534 10.3587 99.0755 9.90625 98.8004 9.3196C98.5286 8.72964 98.3928 8.02202 98.3928 7.19673C98.3928 6.37145 98.5303 5.66548 98.8054 5.07884C99.0838 4.49219 99.465 4.04309 99.9489 3.73153C100.433 3.41998 100.981 3.2642 101.594 3.2642C102.068 3.2642 102.45 3.34375 102.738 3.50284C103.03 3.65862 103.255 3.84091 103.414 4.04972C103.576 4.25852 103.702 4.44247 103.792 4.60156H103.881V0.818182H105.368V11H103.916V9.81179H103.792C103.702 9.9742 103.573 10.1598 103.404 10.3686C103.238 10.5774 103.01 10.7597 102.718 10.9155C102.426 11.0713 102.049 11.1491 101.585 11.1491ZM101.913 9.88139C102.34 9.88139 102.701 9.7687 102.996 9.54332C103.295 9.31463 103.52 8.99811 103.673 8.59375C103.828 8.18939 103.906 7.71875 103.906 7.18182C103.906 6.65151 103.83 6.1875 103.678 5.78977C103.525 5.39205 103.301 5.08215 103.006 4.86009C102.711 4.63802 102.347 4.52699 101.913 4.52699C101.465 4.52699 101.092 4.64299 100.794 4.875C100.496 5.10701 100.27 5.42353 100.118 5.82457C99.9688 6.22562 99.8942 6.67803 99.8942 7.18182C99.8942 7.69223 99.9704 8.15128 100.123 8.55895C100.275 8.96662 100.501 9.28977 100.799 9.52841C101.101 9.76373 101.472 9.88139 101.913 9.88139ZM110.706 11.1541C109.99 11.1541 109.365 10.9901 108.832 10.6619C108.298 10.3338 107.884 9.87476 107.589 9.2848C107.294 8.69484 107.146 8.00544 107.146 7.21662C107.146 6.42448 107.294 5.73177 107.589 5.13849C107.884 4.54522 108.298 4.08452 108.832 3.75639C109.365 3.42827 109.99 3.2642 110.706 3.2642C111.422 3.2642 112.047 3.42827 112.58 3.75639C113.114 4.08452 113.528 4.54522 113.823 5.13849C114.118 5.73177 114.266 6.42448 114.266 7.21662C114.266 8.00544 114.118 8.69484 113.823 9.2848C113.528 9.87476 113.114 10.3338 112.58 10.6619C112.047 10.9901 111.422 11.1541 110.706 11.1541ZM110.711 9.90625C111.175 9.90625 111.56 9.78362 111.865 9.53835C112.169 9.29309 112.395 8.96662 112.541 8.55895C112.69 8.15128 112.764 7.70218 112.764 7.21165C112.764 6.72443 112.69 6.27699 112.541 5.86932C112.395 5.45833 112.169 5.12855 111.865 4.87997C111.56 4.63139 111.175 4.5071 110.711 4.5071C110.244 4.5071 109.856 4.63139 109.548 4.87997C109.243 5.12855 109.016 5.45833 108.867 5.86932C108.721 6.27699 108.648 6.72443 108.648 7.21165C108.648 7.70218 108.721 8.15128 108.867 8.55895C109.016 8.96662 109.243 9.29309 109.548 9.53835C109.856 9.78362 110.244 9.90625 110.711 9.90625ZM117.348 11L115.101 3.36364H116.637L118.134 8.97159H118.208L119.71 3.36364H121.246L122.737 8.94673H122.812L124.298 3.36364H125.835L123.593 11H122.076L120.525 5.48651H120.411L118.86 11H117.348ZM128.732 6.46591V11H127.245V3.36364H128.672V4.60653H128.767C128.942 4.20218 129.217 3.87737 129.592 3.6321C129.97 3.38684 130.445 3.2642 131.019 3.2642C131.539 3.2642 131.995 3.37358 132.386 3.59233C132.777 3.80777 133.08 4.12926 133.296 4.55682C133.511 4.98437 133.619 5.51302 133.619 6.14276V11H132.132V6.32173C132.132 5.76823 131.988 5.3357 131.7 5.02415C131.412 4.70928 131.016 4.55185 130.512 4.55185C130.167 4.55185 129.86 4.62642 129.592 4.77557C129.327 4.92472 129.116 5.14347 128.961 5.43182C128.808 5.71686 128.732 6.06155 128.732 6.46591ZM140.112 6.05327V7.34091H135.598V6.05327H140.112ZM142.093 11V3.36364H143.53V4.5767H143.609C143.749 4.16572 143.994 3.84257 144.345 3.60724C144.7 3.36861 145.101 3.24929 145.548 3.24929C145.641 3.24929 145.75 3.2526 145.876 3.25923C146.006 3.26586 146.107 3.27415 146.18 3.28409V4.70597C146.12 4.68939 146.014 4.67116 145.862 4.65128C145.709 4.62808 145.557 4.61648 145.404 4.61648C145.053 4.61648 144.74 4.69105 144.464 4.8402C144.193 4.98603 143.977 5.18987 143.818 5.4517C143.659 5.71023 143.58 6.00521 143.58 6.33665V11H142.093ZM147.466 11V3.36364H148.953V11H147.466ZM148.217 2.18537C147.958 2.18537 147.736 2.09919 147.551 1.92685C147.368 1.75118 147.277 1.54238 147.277 1.30043C147.277 1.05516 147.368 0.846354 147.551 0.674005C147.736 0.498342 147.958 0.410511 148.217 0.410511C148.475 0.410511 148.696 0.498342 148.878 0.674005C149.064 0.846354 149.156 1.05516 149.156 1.30043C149.156 1.54238 149.064 1.75118 148.878 1.92685C148.696 2.09919 148.475 2.18537 148.217 2.18537ZM154.154 14.0227C153.548 14.0227 153.026 13.9432 152.588 13.7841C152.154 13.625 151.799 13.4145 151.524 13.1527C151.249 12.8909 151.044 12.6042 150.908 12.2926L152.185 11.7656C152.275 11.9115 152.394 12.0656 152.543 12.228C152.696 12.3937 152.901 12.5346 153.16 12.6506C153.422 12.7666 153.758 12.8246 154.169 12.8246C154.732 12.8246 155.198 12.687 155.566 12.4119C155.934 12.1402 156.118 11.706 156.118 11.1094V9.60795H156.023C155.934 9.77036 155.805 9.95099 155.636 10.1499C155.47 10.3487 155.241 10.5211 154.95 10.6669C154.658 10.8127 154.278 10.8857 153.811 10.8857C153.208 10.8857 152.664 10.7448 152.18 10.4631C151.7 10.178 151.319 9.75876 151.037 9.20526C150.759 8.64844 150.619 7.96401 150.619 7.15199C150.619 6.33996 150.757 5.64394 151.032 5.06392C151.31 4.4839 151.692 4.03977 152.175 3.73153C152.659 3.41998 153.208 3.2642 153.821 3.2642C154.295 3.2642 154.678 3.34375 154.969 3.50284C155.261 3.65862 155.488 3.84091 155.651 4.04972C155.816 4.25852 155.944 4.44247 156.033 4.60156H156.143V3.36364H157.599V11.169C157.599 11.8253 157.447 12.3639 157.142 12.7848C156.837 13.2057 156.424 13.5173 155.904 13.7195C155.387 13.9216 154.804 14.0227 154.154 14.0227ZM154.139 9.6527C154.567 9.6527 154.928 9.55327 155.223 9.3544C155.521 9.15223 155.747 8.86387 155.899 8.48935C156.055 8.11151 156.133 7.65909 156.133 7.1321C156.133 6.61837 156.057 6.16596 155.904 5.77486C155.752 5.38376 155.528 5.07884 155.233 4.86009C154.938 4.63802 154.573 4.52699 154.139 4.52699C153.692 4.52699 153.319 4.64299 153.021 4.875C152.722 5.10369 152.497 5.41525 152.344 5.80966C152.195 6.20407 152.121 6.64489 152.121 7.1321C152.121 7.63258 152.197 8.07173 152.349 8.44957C152.502 8.82741 152.727 9.1224 153.026 9.33452C153.327 9.54664 153.698 9.6527 154.139 9.6527ZM161.08 6.46591V11H159.593V0.818182H161.06V4.60653H161.154C161.333 4.19555 161.607 3.86908 161.974 3.62713C162.342 3.38518 162.823 3.2642 163.416 3.2642C163.94 3.2642 164.397 3.37192 164.788 3.58736C165.183 3.80279 165.488 4.12429 165.703 4.55185C165.922 4.97609 166.031 5.50639 166.031 6.14276V11H164.545V6.32173C164.545 5.7616 164.401 5.32741 164.112 5.01918C163.824 4.70762 163.423 4.55185 162.909 4.55185C162.558 4.55185 162.243 4.62642 161.964 4.77557C161.689 4.92472 161.472 5.14347 161.313 5.43182C161.157 5.71686 161.08 6.06155 161.08 6.46591ZM171.58 3.36364V4.55682H167.408V3.36364H171.58ZM168.527 1.53409H170.013V8.75781C170.013 9.04616 170.057 9.26326 170.143 9.40909C170.229 9.55161 170.34 9.64938 170.476 9.70241C170.615 9.75213 170.766 9.77699 170.928 9.77699C171.048 9.77699 171.152 9.7687 171.241 9.75213C171.331 9.73556 171.401 9.7223 171.45 9.71236L171.719 10.9403C171.633 10.9735 171.51 11.0066 171.351 11.0398C171.192 11.0762 170.993 11.0961 170.754 11.0994C170.363 11.1061 169.999 11.0365 169.661 10.8906C169.322 10.7448 169.049 10.5194 168.84 10.2145C168.631 9.90956 168.527 9.52675 168.527 9.06605V1.53409Z" fill="black"/>
</svg>
