<svg width="78" height="12" viewBox="0 0 78 12" fill="none" xmlns="http://www.w3.org/2000/svg">
<path d="M-0.000710189 11V3.36364H1.43608V4.5767H1.51562C1.65483 4.16572 1.90009 3.84257 2.25142 3.60724C2.60606 3.36861 3.0071 3.24929 3.45455 3.24929C3.54735 3.24929 3.65672 3.2526 3.78267 3.25923C3.91193 3.26586 4.01302 3.27415 4.08594 3.28409V4.70597C4.02628 4.68939 3.92022 4.67116 3.76776 4.65128C3.61529 4.62808 3.46283 4.61648 3.31037 4.61648C2.95904 4.61648 2.64583 4.69105 2.37074 4.8402C2.09896 4.98603 1.88352 5.18987 1.72443 5.4517C1.56534 5.71023 1.4858 6.00521 1.4858 6.33665V11H-0.000710189ZM8.39009 11.1541C7.63772 11.1541 6.98976 10.9934 6.4462 10.6719C5.90595 10.3471 5.48834 9.89134 5.19336 9.30469C4.90169 8.71473 4.75586 8.02367 4.75586 7.23153C4.75586 6.44934 4.90169 5.75994 5.19336 5.16335C5.48834 4.56676 5.89933 4.10109 6.42631 3.76633C6.95662 3.43158 7.57641 3.2642 8.28569 3.2642C8.71656 3.2642 9.13417 3.33546 9.53853 3.47798C9.94289 3.6205 10.3058 3.84422 10.6273 4.14915C10.9488 4.45407 11.2024 4.85014 11.388 5.33736C11.5736 5.82126 11.6664 6.40956 11.6664 7.10227V7.62926H5.59606V6.51562H10.2097C10.2097 6.12453 10.1301 5.77817 9.97106 5.47656C9.81197 5.17164 9.58825 4.93134 9.29989 4.75568C9.01486 4.58002 8.6801 4.49219 8.29563 4.49219C7.87802 4.49219 7.51344 4.59493 7.20188 4.80043C6.89364 5.0026 6.65501 5.26776 6.48597 5.59588C6.32025 5.92069 6.23739 6.27367 6.23739 6.65483V7.52486C6.23739 8.03527 6.32688 8.46946 6.50586 8.82741C6.68815 9.18537 6.9417 9.45881 7.26651 9.64773C7.59132 9.83333 7.97082 9.92614 8.40501 9.92614C8.68673 9.92614 8.9436 9.88636 9.1756 9.80682C9.40761 9.72396 9.60813 9.60133 9.77717 9.43892C9.9462 9.27652 10.0755 9.07599 10.165 8.83736L11.5719 9.09091C11.4592 9.50521 11.257 9.86813 10.9654 10.1797C10.677 10.4879 10.3141 10.7282 9.8766 10.9006C9.44241 11.0696 8.94691 11.1541 8.39009 11.1541ZM19.6296 3.36364L16.8604 11H15.2695L12.4954 3.36364H14.0913L16.0252 9.24006H16.1048L18.0337 3.36364H19.6296ZM24.0581 11.1541C23.3057 11.1541 22.6577 10.9934 22.1142 10.6719C21.5739 10.3471 21.1563 9.89134 20.8613 9.30469C20.5697 8.71473 20.4238 8.02367 20.4238 7.23153C20.4238 6.44934 20.5697 5.75994 20.8613 5.16335C21.1563 4.56676 21.5673 4.10109 22.0943 3.76633C22.6246 3.43158 23.2444 3.2642 23.9537 3.2642C24.3845 3.2642 24.8021 3.33546 25.2065 3.47798C25.6109 3.6205 25.9738 3.84422 26.2953 4.14915C26.6168 4.45407 26.8703 4.85014 27.0559 5.33736C27.2415 5.82126 27.3343 6.40956 27.3343 7.10227V7.62926H21.264V6.51562H25.8777C25.8777 6.12453 25.7981 5.77817 25.639 5.47656C25.4799 5.17164 25.2562 4.93134 24.9679 4.75568C24.6828 4.58002 24.3481 4.49219 23.9636 4.49219C23.546 4.49219 23.1814 4.59493 22.8699 4.80043C22.5616 5.0026 22.323 5.26776 22.1539 5.59588C21.9882 5.92069 21.9054 6.27367 21.9054 6.65483V7.52486C21.9054 8.03527 21.9949 8.46946 22.1738 8.82741C22.3561 9.18537 22.6097 9.45881 22.9345 9.64773C23.2593 9.83333 23.6388 9.92614 24.073 9.92614C24.3547 9.92614 24.6116 9.88636 24.8436 9.80682C25.0756 9.72396 25.2761 9.60133 25.4451 9.43892C25.6142 9.27652 25.7434 9.07599 25.8329 8.83736L27.2399 9.09091C27.1272 9.50521 26.925 9.86813 26.6333 10.1797C26.345 10.4879 25.9821 10.7282 25.5446 10.9006C25.1104 11.0696 24.6149 11.1541 24.0581 11.1541ZM28.9837 11V3.36364H30.4205V4.5767H30.5C30.6392 4.16572 30.8845 3.84257 31.2358 3.60724C31.5904 3.36861 31.9915 3.24929 32.4389 3.24929C32.5317 3.24929 32.6411 3.2526 32.767 3.25923C32.8963 3.26586 32.9974 3.27415 33.0703 3.28409V4.70597C33.0107 4.68939 32.9046 4.67116 32.7521 4.65128C32.5997 4.62808 32.4472 4.61648 32.2947 4.61648C31.9434 4.61648 31.6302 4.69105 31.3551 4.8402C31.0833 4.98603 30.8679 5.18987 30.7088 5.4517C30.5497 5.71023 30.4702 6.00521 30.4702 6.33665V11H28.9837ZM40.079 5.22798L38.7317 5.46662C38.6754 5.29427 38.5859 5.13021 38.4632 4.97443C38.3439 4.81865 38.1815 4.69105 37.976 4.59162C37.7705 4.49219 37.5137 4.44247 37.2054 4.44247C36.7845 4.44247 36.4332 4.53693 36.1515 4.72585C35.8697 4.91146 35.7289 5.15175 35.7289 5.44673C35.7289 5.70194 35.8233 5.90743 36.0123 6.06321C36.2012 6.21899 36.5061 6.34659 36.927 6.44602L38.1401 6.72443C38.8427 6.88684 39.3664 7.13707 39.7111 7.47514C40.0558 7.81321 40.2282 8.25237 40.2282 8.79261C40.2282 9.25 40.0956 9.65767 39.8304 10.0156C39.5686 10.3703 39.2024 10.6487 38.7317 10.8509C38.2644 11.053 37.7225 11.1541 37.106 11.1541C36.2509 11.1541 35.5532 10.9718 35.013 10.6072C34.4727 10.2393 34.1413 9.71733 34.0186 9.04119L35.4554 8.82244C35.5449 9.19697 35.7289 9.48035 36.0073 9.67259C36.2857 9.86151 36.6486 9.95597 37.0961 9.95597C37.5833 9.95597 37.9727 9.85488 38.2644 9.6527C38.556 9.44721 38.7019 9.19697 38.7019 8.90199C38.7019 8.66335 38.6124 8.46283 38.4334 8.30043C38.2578 8.13802 37.9876 8.01539 37.623 7.93253L36.3304 7.64915C35.6178 7.48674 35.0908 7.22822 34.7495 6.87358C34.4114 6.51894 34.2424 6.06984 34.2424 5.52628C34.2424 5.07552 34.3683 4.68111 34.6202 4.34304C34.8721 4.00497 35.2201 3.74148 35.6642 3.55256C36.1084 3.36032 36.6171 3.2642 37.1905 3.2642C38.0158 3.2642 38.6654 3.44318 39.1394 3.80114C39.6133 4.15578 39.9266 4.63139 40.079 5.22798ZM45.1538 11.1541C44.4014 11.1541 43.7534 10.9934 43.2099 10.6719C42.6696 10.3471 42.252 9.89134 41.957 9.30469C41.6654 8.71473 41.5195 8.02367 41.5195 7.23153C41.5195 6.44934 41.6654 5.75994 41.957 5.16335C42.252 4.56676 42.663 4.10109 43.19 3.76633C43.7203 3.43158 44.3401 3.2642 45.0494 3.2642C45.4802 3.2642 45.8978 3.33546 46.3022 3.47798C46.7066 3.6205 47.0695 3.84422 47.391 4.14915C47.7125 4.45407 47.966 4.85014 48.1516 5.33736C48.3372 5.82126 48.43 6.40956 48.43 7.10227V7.62926H42.3597V6.51562H46.9734C46.9734 6.12453 46.8938 5.77817 46.7347 5.47656C46.5756 5.17164 46.3519 4.93134 46.0636 4.75568C45.7785 4.58002 45.4438 4.49219 45.0593 4.49219C44.6417 4.49219 44.2771 4.59493 43.9656 4.80043C43.6573 5.0026 43.4187 5.26776 43.2496 5.59588C43.0839 5.92069 43.0011 6.27367 43.0011 6.65483V7.52486C43.0011 8.03527 43.0906 8.46946 43.2695 8.82741C43.4518 9.18537 43.7054 9.45881 44.0302 9.64773C44.355 9.83333 44.7345 9.92614 45.1687 9.92614C45.4504 9.92614 45.7073 9.88636 45.9393 9.80682C46.1713 9.72396 46.3718 9.60133 46.5408 9.43892C46.7099 9.27652 46.8391 9.07599 46.9286 8.83736L48.3356 9.09091C48.2229 9.50521 48.0207 9.86813 47.729 10.1797C47.4407 10.4879 47.0778 10.7282 46.6403 10.9006C46.2061 11.0696 45.7106 11.1541 45.1538 11.1541ZM54.5787 6.05327V7.34091H50.0645V6.05327H54.5787ZM58.0463 0.818182V11H56.5598V0.818182H58.0463ZM63.3374 11.1541C62.585 11.1541 61.937 10.9934 61.3935 10.6719C60.8532 10.3471 60.4356 9.89134 60.1406 9.30469C59.849 8.71473 59.7031 8.02367 59.7031 7.23153C59.7031 6.44934 59.849 5.75994 60.1406 5.16335C60.4356 4.56676 60.8466 4.10109 61.3736 3.76633C61.9039 3.43158 62.5237 3.2642 63.233 3.2642C63.6638 3.2642 64.0814 3.33546 64.4858 3.47798C64.8902 3.6205 65.2531 3.84422 65.5746 4.14915C65.8961 4.45407 66.1496 4.85014 66.3352 5.33736C66.5208 5.82126 66.6136 6.40956 66.6136 7.10227V7.62926H60.5433V6.51562H65.157C65.157 6.12453 65.0774 5.77817 64.9183 5.47656C64.7592 5.17164 64.5355 4.93134 64.2472 4.75568C63.9621 4.58002 63.6274 4.49219 63.2429 4.49219C62.8253 4.49219 62.4607 4.59493 62.1491 4.80043C61.8409 5.0026 61.6023 5.26776 61.4332 5.59588C61.2675 5.92069 61.1847 6.27367 61.1847 6.65483V7.52486C61.1847 8.03527 61.2741 8.46946 61.4531 8.82741C61.6354 9.18537 61.889 9.45881 62.2138 9.64773C62.5386 9.83333 62.9181 9.92614 63.3523 9.92614C63.634 9.92614 63.8909 9.88636 64.1229 9.80682C64.3549 9.72396 64.5554 9.60133 64.7244 9.43892C64.8935 9.27652 65.0227 9.07599 65.1122 8.83736L66.5192 9.09091C66.4065 9.50521 66.2043 9.86813 65.9126 10.1797C65.6243 10.4879 65.2614 10.7282 64.8239 10.9006C64.3897 11.0696 63.8942 11.1541 63.3374 11.1541ZM71.8972 3.36364V4.55682H67.5819V3.36364H71.8972ZM68.7651 11V2.47869C68.7651 2.00142 68.8695 1.60535 69.0783 1.29048C69.2871 0.972301 69.5639 0.735322 69.9086 0.579545C70.2533 0.420454 70.6278 0.340908 71.0321 0.340908C71.3304 0.340908 71.5856 0.365767 71.7978 0.415483C72.0099 0.461884 72.1673 0.504971 72.2701 0.544744L71.9221 1.74787C71.8525 1.72798 71.763 1.70478 71.6536 1.67827C71.5442 1.64844 71.4116 1.63352 71.2559 1.63352C70.8946 1.63352 70.6361 1.72301 70.4803 1.90199C70.3278 2.08097 70.2516 2.33949 70.2516 2.67756V11H68.7651ZM76.9956 3.36364V4.55682H72.8244V3.36364H76.9956ZM73.943 1.53409H75.4295V8.75781C75.4295 9.04616 75.4726 9.26326 75.5588 9.40909C75.6449 9.55161 75.756 9.64938 75.8919 9.70241C76.0311 9.75213 76.1819 9.77699 76.3443 9.77699C76.4636 9.77699 76.568 9.7687 76.6575 9.75213C76.747 9.73556 76.8166 9.7223 76.8663 9.71236L77.1348 10.9403C77.0486 10.9735 76.926 11.0066 76.7669 11.0398C76.6078 11.0762 76.4089 11.0961 76.1703 11.0994C75.7792 11.1061 75.4146 11.0365 75.0765 10.8906C74.7385 10.7448 74.465 10.5194 74.2562 10.2145C74.0474 9.90956 73.943 9.52675 73.943 9.06605V1.53409Z" fill="black"/>
</svg>
