<svg width="109" height="12" viewBox="0 0 109 12" fill="none" xmlns="http://www.w3.org/2000/svg">
<path d="M3.22159 11.169C2.73769 11.169 2.30019 11.0795 1.90909 10.9006C1.51799 10.7183 1.2081 10.4548 0.979403 10.1101C0.754025 9.76539 0.641335 9.3428 0.641335 8.84233C0.641335 8.41146 0.724195 8.05682 0.889915 7.77841C1.05563 7.5 1.27936 7.27959 1.56108 7.11719C1.8428 6.95478 2.15767 6.83215 2.50568 6.74929C2.85369 6.66643 3.20833 6.60346 3.5696 6.56037C4.02699 6.50734 4.3982 6.46425 4.68324 6.43111C4.96828 6.39465 5.17543 6.33665 5.30469 6.2571C5.43395 6.17756 5.49858 6.0483 5.49858 5.86932V5.83452C5.49858 5.40033 5.37595 5.06392 5.13068 4.82528C4.88873 4.58665 4.52746 4.46733 4.04688 4.46733C3.5464 4.46733 3.15199 4.57836 2.86364 4.80043C2.5786 5.01918 2.38139 5.26278 2.27202 5.53125L0.875 5.21307C1.04072 4.74905 1.28267 4.37453 1.60085 4.08949C1.92235 3.80114 2.2919 3.59233 2.70952 3.46307C3.12713 3.33049 3.56629 3.2642 4.02699 3.2642C4.33191 3.2642 4.65507 3.30066 4.99645 3.37358C5.34115 3.44318 5.66264 3.57244 5.96094 3.76136C6.26255 3.95028 6.50947 4.22041 6.7017 4.57173C6.89394 4.91974 6.99006 5.37216 6.99006 5.92898V11H5.53835V9.95597H5.47869C5.38258 10.1482 5.2384 10.3371 5.04616 10.5227C4.85393 10.7083 4.60701 10.8625 4.3054 10.9851C4.00379 11.1077 3.64252 11.169 3.22159 11.169ZM3.54474 9.97585C3.95573 9.97585 4.30706 9.89465 4.59872 9.73224C4.8937 9.56984 5.11742 9.35772 5.26989 9.09588C5.42566 8.83073 5.50355 8.54735 5.50355 8.24574V7.26136C5.45052 7.31439 5.34777 7.36411 5.19531 7.41051C5.04616 7.4536 4.87547 7.49171 4.68324 7.52486C4.491 7.55469 4.30374 7.58286 4.12145 7.60938C3.93916 7.63258 3.7867 7.65246 3.66406 7.66903C3.37571 7.70549 3.11222 7.76681 2.87358 7.85298C2.63826 7.93916 2.44934 8.06345 2.30682 8.22585C2.16761 8.38494 2.09801 8.59706 2.09801 8.86222C2.09801 9.23011 2.2339 9.50852 2.50568 9.69744C2.77746 9.88305 3.12382 9.97585 3.54474 9.97585ZM8.96999 11V3.36364H10.4068V4.5767H10.4863C10.6255 4.16572 10.8708 3.84257 11.2221 3.60724C11.5768 3.36861 11.9778 3.24929 12.4252 3.24929C12.5181 3.24929 12.6274 3.2526 12.7534 3.25923C12.8826 3.26586 12.9837 3.27415 13.0566 3.28409V4.70597C12.997 4.68939 12.8909 4.67116 12.7385 4.65128C12.586 4.62808 12.4335 4.61648 12.2811 4.61648C11.9297 4.61648 11.6165 4.69105 11.3414 4.8402C11.0697 4.98603 10.8542 5.18987 10.6951 5.4517C10.536 5.71023 10.4565 6.00521 10.4565 6.33665V11H8.96999ZM14.343 11V3.36364H15.7798V4.5767H15.8594C15.9986 4.16572 16.2438 3.84257 16.5952 3.60724C16.9498 3.36861 17.3509 3.24929 17.7983 3.24929C17.8911 3.24929 18.0005 3.2526 18.1264 3.25923C18.2557 3.26586 18.3568 3.27415 18.4297 3.28409V4.70597C18.37 4.68939 18.264 4.67116 18.1115 4.65128C17.959 4.62808 17.8066 4.61648 17.6541 4.61648C17.3028 4.61648 16.9896 4.69105 16.7145 4.8402C16.4427 4.98603 16.2273 5.18987 16.0682 5.4517C15.9091 5.71023 15.8295 6.00521 15.8295 6.33665V11H14.343ZM22.6593 11.1541C21.9434 11.1541 21.3186 10.9901 20.785 10.6619C20.2514 10.3338 19.8371 9.87476 19.5421 9.2848C19.2471 8.69484 19.0996 8.00544 19.0996 7.21662C19.0996 6.42448 19.2471 5.73177 19.5421 5.13849C19.8371 4.54522 20.2514 4.08452 20.785 3.75639C21.3186 3.42827 21.9434 3.2642 22.6593 3.2642C23.3752 3.2642 23.9999 3.42827 24.5336 3.75639C25.0672 4.08452 25.4815 4.54522 25.7765 5.13849C26.0714 5.73177 26.2189 6.42448 26.2189 7.21662C26.2189 8.00544 26.0714 8.69484 25.7765 9.2848C25.4815 9.87476 25.0672 10.3338 24.5336 10.6619C23.9999 10.9901 23.3752 11.1541 22.6593 11.1541ZM22.6642 9.90625C23.1283 9.90625 23.5127 9.78362 23.8176 9.53835C24.1226 9.29309 24.348 8.96662 24.4938 8.55895C24.6429 8.15128 24.7175 7.70218 24.7175 7.21165C24.7175 6.72443 24.6429 6.27699 24.4938 5.86932C24.348 5.45833 24.1226 5.12855 23.8176 4.87997C23.5127 4.63139 23.1283 4.5071 22.6642 4.5071C22.1969 4.5071 21.8091 4.63139 21.5009 4.87997C21.196 5.12855 20.9689 5.45833 20.8198 5.86932C20.6739 6.27699 20.601 6.72443 20.601 7.21165C20.601 7.70218 20.6739 8.15128 20.8198 8.55895C20.9689 8.96662 21.196 9.29309 21.5009 9.53835C21.8091 9.78362 22.1969 9.90625 22.6642 9.90625ZM29.3013 11L27.0542 3.36364H28.5904L30.0868 8.97159H30.1614L31.6628 3.36364H33.199L34.6905 8.94673H34.7651L36.2516 3.36364H37.7878L35.5456 11H34.0293L32.4782 5.48651H32.3638L30.8127 11H29.3013ZM43.6978 6.05327V7.34091H39.1836V6.05327H43.6978ZM48.8956 11.1541C48.1565 11.1541 47.5201 10.9867 46.9865 10.652C46.4562 10.3139 46.0485 9.84825 45.7635 9.25497C45.4785 8.66169 45.3359 7.98224 45.3359 7.21662C45.3359 6.44105 45.4818 5.75663 45.7734 5.16335C46.0651 4.56676 46.4761 4.10109 47.0064 3.76633C47.5367 3.43158 48.1615 3.2642 48.8807 3.2642C49.4607 3.2642 49.9777 3.37192 50.4318 3.58736C50.8859 3.79948 51.2521 4.09777 51.5305 4.48224C51.8123 4.86671 51.9796 5.31581 52.0327 5.82955H50.5859C50.5064 5.47159 50.3241 5.16335 50.0391 4.90483C49.7573 4.64631 49.3795 4.51705 48.9055 4.51705C48.4912 4.51705 48.1283 4.62642 47.8168 4.84517C47.5085 5.06061 47.2682 5.36884 47.0959 5.76989C46.9235 6.16761 46.8374 6.63826 46.8374 7.18182C46.8374 7.73864 46.9219 8.21922 47.0909 8.62358C47.2599 9.02794 47.4986 9.34115 47.8068 9.56321C48.1184 9.78527 48.4846 9.89631 48.9055 9.89631C49.1873 9.89631 49.4425 9.84493 49.6712 9.74219C49.9032 9.63613 50.0971 9.48532 50.2528 9.28977C50.4119 9.09422 50.523 8.8589 50.5859 8.58381H52.0327C51.9796 9.07765 51.8189 9.51847 51.5504 9.90625C51.282 10.294 50.9223 10.599 50.4716 10.821C50.0241 11.0431 49.4988 11.1541 48.8956 11.1541ZM53.6223 11V3.36364H55.1088V11H53.6223ZM54.373 2.18537C54.1145 2.18537 53.8925 2.09919 53.7069 1.92685C53.5246 1.75118 53.4334 1.54238 53.4334 1.30043C53.4334 1.05516 53.5246 0.846354 53.7069 0.674005C53.8925 0.498342 54.1145 0.410511 54.373 0.410511C54.6316 0.410511 54.852 0.498342 55.0343 0.674005C55.2199 0.846354 55.3127 1.05516 55.3127 1.30043C55.3127 1.54238 55.2199 1.75118 55.0343 1.92685C54.852 2.09919 54.6316 2.18537 54.373 2.18537ZM57.1087 11V3.36364H58.5455V4.5767H58.625C58.7642 4.16572 59.0095 3.84257 59.3608 3.60724C59.7154 3.36861 60.1165 3.24929 60.5639 3.24929C60.6567 3.24929 60.7661 3.2526 60.892 3.25923C61.0213 3.26586 61.1224 3.27415 61.1953 3.28409V4.70597C61.1357 4.68939 61.0296 4.67116 60.8771 4.65128C60.7247 4.62808 60.5722 4.61648 60.4197 4.61648C60.0684 4.61648 59.7552 4.69105 59.4801 4.8402C59.2083 4.98603 58.9929 5.18987 58.8338 5.4517C58.6747 5.71023 58.5952 6.00521 58.5952 6.33665V11H57.1087ZM65.4249 11.1541C64.6858 11.1541 64.0494 10.9867 63.5158 10.652C62.9855 10.3139 62.5778 9.84825 62.2928 9.25497C62.0078 8.66169 61.8652 7.98224 61.8652 7.21662C61.8652 6.44105 62.0111 5.75663 62.3027 5.16335C62.5944 4.56676 63.0054 4.10109 63.5357 3.76633C64.066 3.43158 64.6908 3.2642 65.41 3.2642C65.99 3.2642 66.507 3.37192 66.9611 3.58736C67.4152 3.79948 67.7814 4.09777 68.0598 4.48224C68.3416 4.86671 68.5089 5.31581 68.562 5.82955H67.1152C67.0357 5.47159 66.8534 5.16335 66.5684 4.90483C66.2866 4.64631 65.9088 4.51705 65.4348 4.51705C65.0205 4.51705 64.6576 4.62642 64.3461 4.84517C64.0378 5.06061 63.7975 5.36884 63.6252 5.76989C63.4528 6.16761 63.3667 6.63826 63.3667 7.18182C63.3667 7.73864 63.4512 8.21922 63.6202 8.62358C63.7892 9.02794 64.0279 9.34115 64.3361 9.56321C64.6477 9.78527 65.0139 9.89631 65.4348 9.89631C65.7166 9.89631 65.9718 9.84493 66.2005 9.74219C66.4325 9.63613 66.6264 9.48532 66.7821 9.28977C66.9412 9.09422 67.0523 8.8589 67.1152 8.58381H68.562C68.5089 9.07765 68.3482 9.51847 68.0797 9.90625C67.8113 10.294 67.4516 10.599 67.0009 10.821C66.5534 11.0431 66.0281 11.1541 65.4249 11.1541ZM71.6381 0.818182V11H70.1516V0.818182H71.6381ZM76.9292 11.1541C76.1768 11.1541 75.5288 10.9934 74.9853 10.6719C74.445 10.3471 74.0274 9.89134 73.7324 9.30469C73.4408 8.71473 73.2949 8.02367 73.2949 7.23153C73.2949 6.44934 73.4408 5.75994 73.7324 5.16335C74.0274 4.56676 74.4384 4.10109 74.9654 3.76633C75.4957 3.43158 76.1155 3.2642 76.8248 3.2642C77.2556 3.2642 77.6732 3.33546 78.0776 3.47798C78.4819 3.6205 78.8449 3.84422 79.1664 4.14915C79.4879 4.45407 79.7414 4.85014 79.927 5.33736C80.1126 5.82126 80.2054 6.40956 80.2054 7.10227V7.62926H74.1351V6.51562H78.7488C78.7488 6.12453 78.6692 5.77817 78.5101 5.47656C78.351 5.17164 78.1273 4.93134 77.839 4.75568C77.5539 4.58002 77.2192 4.49219 76.8347 4.49219C76.4171 4.49219 76.0525 4.59493 75.7409 4.80043C75.4327 5.0026 75.1941 5.26776 75.025 5.59588C74.8593 5.92069 74.7765 6.27367 74.7765 6.65483V7.52486C74.7765 8.03527 74.8659 8.46946 75.0449 8.82741C75.2272 9.18537 75.4808 9.45881 75.8056 9.64773C76.1304 9.83333 76.5099 9.92614 76.9441 9.92614C77.2258 9.92614 77.4827 9.88636 77.7147 9.80682C77.9467 9.72396 78.1472 9.60133 78.3162 9.43892C78.4853 9.27652 78.6145 9.07599 78.704 8.83736L80.111 9.09091C79.9983 9.50521 79.7961 9.86813 79.5044 10.1797C79.2161 10.4879 78.8532 10.7282 78.4157 10.9006C77.9815 11.0696 77.486 11.1541 76.9292 11.1541ZM86.354 6.05327V7.34091H81.8398V6.05327H86.354ZM89.8217 0.818182V11H88.3352V0.818182H89.8217ZM95.1127 11.1541C94.3604 11.1541 93.7124 10.9934 93.1689 10.6719C92.6286 10.3471 92.211 9.89134 91.916 9.30469C91.6243 8.71473 91.4785 8.02367 91.4785 7.23153C91.4785 6.44934 91.6243 5.75994 91.916 5.16335C92.211 4.56676 92.622 4.10109 93.149 3.76633C93.6793 3.43158 94.2991 3.2642 95.0083 3.2642C95.4392 3.2642 95.8568 3.33546 96.2612 3.47798C96.6655 3.6205 97.0285 3.84422 97.35 4.14915C97.6715 4.45407 97.925 4.85014 98.1106 5.33736C98.2962 5.82126 98.389 6.40956 98.389 7.10227V7.62926H92.3187V6.51562H96.9324C96.9324 6.12453 96.8528 5.77817 96.6937 5.47656C96.5346 5.17164 96.3109 4.93134 96.0225 4.75568C95.7375 4.58002 95.4028 4.49219 95.0183 4.49219C94.6007 4.49219 94.2361 4.59493 93.9245 4.80043C93.6163 5.0026 93.3777 5.26776 93.2086 5.59588C93.0429 5.92069 92.96 6.27367 92.96 6.65483V7.52486C92.96 8.03527 93.0495 8.46946 93.2285 8.82741C93.4108 9.18537 93.6644 9.45881 93.9892 9.64773C94.314 9.83333 94.6935 9.92614 95.1277 9.92614C95.4094 9.92614 95.6663 9.88636 95.8983 9.80682C96.1303 9.72396 96.3308 9.60133 96.4998 9.43892C96.6689 9.27652 96.7981 9.07599 96.8876 8.83736L98.2946 9.09091C98.1819 9.50521 97.9797 9.86813 97.688 10.1797C97.3997 10.4879 97.0368 10.7282 96.5993 10.9006C96.1651 11.0696 95.6696 11.1541 95.1127 11.1541ZM103.673 3.36364V4.55682H99.3572V3.36364H103.673ZM100.54 11V2.47869C100.54 2.00142 100.645 1.60535 100.854 1.29048C101.063 0.972301 101.339 0.735322 101.684 0.579545C102.029 0.420454 102.403 0.340908 102.808 0.340908C103.106 0.340908 103.361 0.365767 103.573 0.415483C103.785 0.461884 103.943 0.504971 104.045 0.544744L103.697 1.74787C103.628 1.72798 103.538 1.70478 103.429 1.67827C103.32 1.64844 103.187 1.63352 103.031 1.63352C102.67 1.63352 102.411 1.72301 102.256 1.90199C102.103 2.08097 102.027 2.33949 102.027 2.67756V11H100.54ZM108.771 3.36364V4.55682H104.6V3.36364H108.771ZM105.718 1.53409H107.205V8.75781C107.205 9.04616 107.248 9.26326 107.334 9.40909C107.42 9.55161 107.531 9.64938 107.667 9.70241C107.806 9.75213 107.957 9.77699 108.12 9.77699C108.239 9.77699 108.343 9.7687 108.433 9.75213C108.522 9.73556 108.592 9.7223 108.642 9.71236L108.91 10.9403C108.824 10.9735 108.701 11.0066 108.542 11.0398C108.383 11.0762 108.184 11.0961 107.946 11.0994C107.555 11.1061 107.19 11.0365 106.852 10.8906C106.514 10.7448 106.24 10.5194 106.032 10.2145C105.823 9.90956 105.718 9.52675 105.718 9.06605V1.53409Z" fill="black"/>
</svg>
