<svg width="104" height="15" viewBox="0 0 104 15" fill="none" xmlns="http://www.w3.org/2000/svg">
<path d="M4.21591 11.1541C3.4768 11.1541 2.84044 10.9867 2.30682 10.652C1.77652 10.3139 1.36884 9.84825 1.08381 9.25497C0.798769 8.66169 0.65625 7.98224 0.65625 7.21662C0.65625 6.44105 0.802083 5.75663 1.09375 5.16335C1.38542 4.56676 1.7964 4.10109 2.3267 3.76633C2.85701 3.43158 3.48177 3.2642 4.20099 3.2642C4.78101 3.2642 5.29806 3.37192 5.75213 3.58736C6.2062 3.79948 6.57244 4.09777 6.85085 4.48224C7.13258 4.86671 7.29995 5.31581 7.35298 5.82955H5.90625C5.8267 5.47159 5.64441 5.16335 5.35938 4.90483C5.07765 4.64631 4.69981 4.51705 4.22585 4.51705C3.81155 4.51705 3.44863 4.62642 3.13707 4.84517C2.82884 5.06061 2.58854 5.36884 2.41619 5.76989C2.24384 6.16761 2.15767 6.63826 2.15767 7.18182C2.15767 7.73864 2.24219 8.21922 2.41122 8.62358C2.58026 9.02794 2.81889 9.34115 3.12713 9.56321C3.43868 9.78527 3.80492 9.89631 4.22585 9.89631C4.50758 9.89631 4.76278 9.84493 4.99148 9.74219C5.22349 9.63613 5.41738 9.48532 5.57315 9.28977C5.73224 9.09422 5.84328 8.8589 5.90625 8.58381H7.35298C7.29995 9.07765 7.1392 9.51847 6.87074 9.90625C6.60227 10.294 6.24266 10.599 5.7919 10.821C5.34446 11.0431 4.81913 11.1541 4.21591 11.1541ZM12.1593 11.1541C11.4434 11.1541 10.8186 10.9901 10.285 10.6619C9.75136 10.3338 9.33706 9.87476 9.04208 9.2848C8.7471 8.69484 8.59961 8.00544 8.59961 7.21662C8.59961 6.42448 8.7471 5.73177 9.04208 5.13849C9.33706 4.54522 9.75136 4.08452 10.285 3.75639C10.8186 3.42827 11.4434 3.2642 12.1593 3.2642C12.8752 3.2642 13.4999 3.42827 14.0336 3.75639C14.5672 4.08452 14.9815 4.54522 15.2765 5.13849C15.5714 5.73177 15.7189 6.42448 15.7189 7.21662C15.7189 8.00544 15.5714 8.69484 15.2765 9.2848C14.9815 9.87476 14.5672 10.3338 14.0336 10.6619C13.4999 10.9901 12.8752 11.1541 12.1593 11.1541ZM12.1642 9.90625C12.6283 9.90625 13.0127 9.78362 13.3176 9.53835C13.6226 9.29309 13.848 8.96662 13.9938 8.55895C14.1429 8.15128 14.2175 7.70218 14.2175 7.21165C14.2175 6.72443 14.1429 6.27699 13.9938 5.86932C13.848 5.45833 13.6226 5.12855 13.3176 4.87997C13.0127 4.63139 12.6283 4.5071 12.1642 4.5071C11.6969 4.5071 11.3091 4.63139 11.0009 4.87997C10.696 5.12855 10.4689 5.45833 10.3198 5.86932C10.1739 6.27699 10.101 6.72443 10.101 7.21165C10.101 7.70218 10.1739 8.15128 10.3198 8.55895C10.4689 8.96662 10.696 9.29309 11.0009 9.53835C11.3091 9.78362 11.6969 9.90625 12.1642 9.90625ZM17.3782 11V3.36364H18.815V4.5767H18.8945C19.0337 4.16572 19.279 3.84257 19.6303 3.60724C19.985 3.36861 20.386 3.24929 20.8335 3.24929C20.9263 3.24929 21.0356 3.2526 21.1616 3.25923C21.2908 3.26586 21.3919 3.27415 21.4648 3.28409V4.70597C21.4052 4.68939 21.2991 4.67116 21.1467 4.65128C20.9942 4.62808 20.8417 4.61648 20.6893 4.61648C20.338 4.61648 20.0247 4.69105 19.7496 4.8402C19.4779 4.98603 19.2624 5.18987 19.1033 5.4517C18.9442 5.71023 18.8647 6.00521 18.8647 6.33665V11H17.3782ZM24.2377 6.46591V11H22.7512V3.36364H24.1781V4.60653H24.2725C24.4482 4.20218 24.7233 3.87737 25.0978 3.6321C25.4757 3.38684 25.9513 3.2642 26.5247 3.2642C27.045 3.2642 27.5008 3.37358 27.8919 3.59233C28.283 3.80777 28.5862 4.12926 28.8017 4.55682C29.0171 4.98437 29.1248 5.51302 29.1248 6.14276V11H27.6383V6.32173C27.6383 5.76823 27.4941 5.3357 27.2058 5.02415C26.9174 4.70928 26.5214 4.55185 26.0176 4.55185C25.6729 4.55185 25.3663 4.62642 25.0978 4.77557C24.8327 4.92472 24.6222 5.14347 24.4664 5.43182C24.314 5.71686 24.2377 6.06155 24.2377 6.46591ZM34.4096 11.1541C33.6573 11.1541 33.0093 10.9934 32.4657 10.6719C31.9255 10.3471 31.5079 9.89134 31.2129 9.30469C30.9212 8.71473 30.7754 8.02367 30.7754 7.23153C30.7754 6.44934 30.9212 5.75994 31.2129 5.16335C31.5079 4.56676 31.9189 4.10109 32.4458 3.76633C32.9761 3.43158 33.5959 3.2642 34.3052 3.2642C34.7361 3.2642 35.1537 3.33546 35.5581 3.47798C35.9624 3.6205 36.3253 3.84422 36.6468 4.14915C36.9683 4.45407 37.2219 4.85014 37.4075 5.33736C37.5931 5.82126 37.6859 6.40956 37.6859 7.10227V7.62926H31.6156V6.51562H36.2292C36.2292 6.12453 36.1497 5.77817 35.9906 5.47656C35.8315 5.17164 35.6078 4.93134 35.3194 4.75568C35.0344 4.58002 34.6996 4.49219 34.3152 4.49219C33.8975 4.49219 33.533 4.59493 33.2214 4.80043C32.9132 5.0026 32.6745 5.26776 32.5055 5.59588C32.3398 5.92069 32.2569 6.27367 32.2569 6.65483V7.52486C32.2569 8.03527 32.3464 8.46946 32.5254 8.82741C32.7077 9.18537 32.9612 9.45881 33.286 9.64773C33.6109 9.83333 33.9904 9.92614 34.4245 9.92614C34.7063 9.92614 34.9631 9.88636 35.1951 9.80682C35.4271 9.72396 35.6277 9.60133 35.7967 9.43892C35.9657 9.27652 36.095 9.07599 36.1845 8.83736L37.5914 9.09091C37.4788 9.50521 37.2766 9.86813 36.9849 10.1797C36.6966 10.4879 36.3336 10.7282 35.8961 10.9006C35.4619 11.0696 34.9664 11.1541 34.4096 11.1541ZM39.3352 11V3.36364H40.772V4.5767H40.8516C40.9908 4.16572 41.236 3.84257 41.5874 3.60724C41.942 3.36861 42.343 3.24929 42.7905 3.24929C42.8833 3.24929 42.9927 3.2526 43.1186 3.25923C43.2479 3.26586 43.349 3.27415 43.4219 3.28409V4.70597C43.3622 4.68939 43.2562 4.67116 43.1037 4.65128C42.9512 4.62808 42.7988 4.61648 42.6463 4.61648C42.295 4.61648 41.9818 4.69105 41.7067 4.8402C41.4349 4.98603 41.2195 5.18987 41.0604 5.4517C40.9013 5.71023 40.8217 6.00521 40.8217 6.33665V11H39.3352ZM48.7564 6.05327V7.34091H44.2422V6.05327H48.7564ZM55.5749 7.8331V3.36364H57.0664V11H55.6048V9.67756H55.5252C55.3496 10.0852 55.0678 10.425 54.68 10.6967C54.2956 10.9652 53.8166 11.0994 53.2433 11.0994C52.7527 11.0994 52.3185 10.9917 51.9407 10.7763C51.5662 10.5575 51.2712 10.2344 51.0558 9.80682C50.8436 9.37926 50.7376 8.85062 50.7376 8.22088V3.36364H52.2241V8.0419C52.2241 8.56226 52.3683 8.97656 52.6566 9.2848C52.945 9.59304 53.3195 9.74716 53.7802 9.74716C54.0586 9.74716 54.3353 9.67756 54.6104 9.53835C54.8888 9.39915 55.1192 9.18868 55.3015 8.90696C55.4871 8.62524 55.5782 8.26728 55.5749 7.8331ZM59.0637 13.8636V3.36364H60.5154V4.60156H60.6397C60.7259 4.44247 60.8502 4.25852 61.0126 4.04972C61.175 3.84091 61.4004 3.65862 61.6887 3.50284C61.9771 3.34375 62.3583 3.2642 62.8322 3.2642C63.4487 3.2642 63.9989 3.41998 64.4828 3.73153C64.9667 4.04309 65.3462 4.49219 65.6213 5.07884C65.8997 5.66548 66.0389 6.37145 66.0389 7.19673C66.0389 8.02202 65.9013 8.72964 65.6262 9.3196C65.3511 9.90625 64.9733 10.3587 64.4927 10.6768C64.0121 10.9917 63.4636 11.1491 62.8471 11.1491C62.3831 11.1491 62.0036 11.0713 61.7086 10.9155C61.417 10.7597 61.1883 10.5774 61.0225 10.3686C60.8568 10.1598 60.7292 9.9742 60.6397 9.81179H60.5502V13.8636H59.0637ZM60.5204 7.18182C60.5204 7.71875 60.5983 8.18939 60.7541 8.59375C60.9099 8.99811 61.1352 9.31463 61.4302 9.54332C61.7252 9.7687 62.0865 9.88139 62.514 9.88139C62.9582 9.88139 63.3294 9.76373 63.6277 9.52841C63.926 9.28977 64.1513 8.96662 64.3038 8.55895C64.4596 8.15128 64.5375 7.69223 64.5375 7.18182C64.5375 6.67803 64.4612 6.22562 64.3088 5.82457C64.1596 5.42353 63.9342 5.10701 63.6326 4.875C63.3343 4.64299 62.9615 4.52699 62.514 4.52699C62.0832 4.52699 61.7186 4.63802 61.4203 4.86009C61.1253 5.08215 60.9016 5.39205 60.7491 5.78977C60.5967 6.1875 60.5204 6.65151 60.5204 7.18182ZM72.2037 6.05327V7.34091H67.6895V6.05327H72.2037ZM74.1848 11V3.36364H75.6216V4.5767H75.7012C75.8404 4.16572 76.0856 3.84257 76.437 3.60724C76.7916 3.36861 77.1926 3.24929 77.6401 3.24929C77.7329 3.24929 77.8423 3.2526 77.9682 3.25923C78.0975 3.26586 78.1986 3.27415 78.2715 3.28409V4.70597C78.2118 4.68939 78.1058 4.67116 77.9533 4.65128C77.8008 4.62808 77.6484 4.61648 77.4959 4.61648C77.1446 4.61648 76.8314 4.69105 76.5563 4.8402C76.2845 4.98603 76.0691 5.18987 75.91 5.4517C75.7509 5.71023 75.6713 6.00521 75.6713 6.33665V11H74.1848ZM79.5579 11V3.36364H81.0444V11H79.5579ZM80.3086 2.18537C80.0501 2.18537 79.828 2.09919 79.6424 1.92685C79.4601 1.75118 79.369 1.54238 79.369 1.30043C79.369 1.05516 79.4601 0.846354 79.6424 0.674005C79.828 0.498342 80.0501 0.410511 80.3086 0.410511C80.5671 0.410511 80.7875 0.498342 80.9698 0.674005C81.1554 0.846354 81.2482 1.05516 81.2482 1.30043C81.2482 1.54238 81.1554 1.75118 80.9698 1.92685C80.7875 2.09919 80.5671 2.18537 80.3086 2.18537ZM86.2459 14.0227C85.6394 14.0227 85.1174 13.9432 84.6799 13.7841C84.2457 13.625 83.891 13.4145 83.6159 13.1527C83.3408 12.8909 83.1354 12.6042 82.9995 12.2926L84.2772 11.7656C84.3667 11.9115 84.486 12.0656 84.6351 12.228C84.7876 12.3937 84.9931 12.5346 85.2516 12.6506C85.5134 12.7666 85.8498 12.8246 86.2608 12.8246C86.8243 12.8246 87.29 12.687 87.6578 12.4119C88.0257 12.1402 88.2097 11.706 88.2097 11.1094V9.60795H88.1152C88.0257 9.77036 87.8965 9.95099 87.7275 10.1499C87.5617 10.3487 87.333 10.5211 87.0414 10.6669C86.7497 10.8127 86.3702 10.8857 85.9029 10.8857C85.2997 10.8857 84.7561 10.7448 84.2722 10.4631C83.7916 10.178 83.4105 9.75876 83.1287 9.20526C82.8503 8.64844 82.7111 7.96401 82.7111 7.15199C82.7111 6.33996 82.8487 5.64394 83.1238 5.06392C83.4022 4.4839 83.7833 4.03977 84.2672 3.73153C84.7511 3.41998 85.2997 3.2642 85.9128 3.2642C86.3868 3.2642 86.7696 3.34375 87.0613 3.50284C87.3529 3.65862 87.58 3.84091 87.7424 4.04972C87.9081 4.25852 88.0357 4.44247 88.1252 4.60156H88.2346V3.36364H89.6912V11.169C89.6912 11.8253 89.5388 12.3639 89.2338 12.7848C88.9289 13.2057 88.5163 13.5173 87.9959 13.7195C87.4789 13.9216 86.8955 14.0227 86.2459 14.0227ZM86.231 9.6527C86.6586 9.6527 87.0198 9.55327 87.3148 9.3544C87.6131 9.15223 87.8385 8.86387 87.9909 8.48935C88.1467 8.11151 88.2246 7.65909 88.2246 7.1321C88.2246 6.61837 88.1484 6.16596 87.9959 5.77486C87.8435 5.38376 87.6197 5.07884 87.3248 4.86009C87.0298 4.63802 86.6652 4.52699 86.231 4.52699C85.7836 4.52699 85.4107 4.64299 85.1124 4.875C84.8141 5.10369 84.5887 5.41525 84.4363 5.80966C84.2871 6.20407 84.2125 6.64489 84.2125 7.1321C84.2125 7.63258 84.2888 8.07173 84.4412 8.44957C84.5937 8.82741 84.8191 9.1224 85.1174 9.33452C85.419 9.54664 85.7902 9.6527 86.231 9.6527ZM93.1713 6.46591V11H91.6848V0.818182H93.1515V4.60653H93.2459C93.4249 4.19555 93.6983 3.86908 94.0662 3.62713C94.4341 3.38518 94.9147 3.2642 95.508 3.2642C96.0317 3.2642 96.4891 3.37192 96.8801 3.58736C97.2746 3.80279 97.5795 4.12429 97.7949 4.55185C98.0137 4.97609 98.123 5.50639 98.123 6.14276V11H96.6365V6.32173C96.6365 5.7616 96.4924 5.32741 96.204 5.01918C95.9157 4.70762 95.5146 4.55185 95.0009 4.55185C94.6496 4.55185 94.3347 4.62642 94.0563 4.77557C93.7812 4.92472 93.5641 5.14347 93.405 5.43182C93.2492 5.71686 93.1713 6.06155 93.1713 6.46591ZM103.671 3.36364V4.55682H99.5002V3.36364H103.671ZM100.619 1.53409H102.105V8.75781C102.105 9.04616 102.148 9.26326 102.235 9.40909C102.321 9.55161 102.432 9.64938 102.568 9.70241C102.707 9.75213 102.858 9.77699 103.02 9.77699C103.139 9.77699 103.244 9.7687 103.333 9.75213C103.423 9.73556 103.492 9.7223 103.542 9.71236L103.811 10.9403C103.724 10.9735 103.602 11.0066 103.443 11.0398C103.284 11.0762 103.085 11.0961 102.846 11.0994C102.455 11.1061 102.09 11.0365 101.752 10.8906C101.414 10.7448 101.141 10.5194 100.932 10.2145C100.723 9.90956 100.619 9.52675 100.619 9.06605V1.53409Z" fill="black"/>
</svg>
