<svg width="104" height="15" viewBox="0 0 104 15" fill="none" xmlns="http://www.w3.org/2000/svg">
<path d="M4.21591 11.1541C3.4768 11.1541 2.84044 10.9867 2.30682 10.652C1.77652 10.3139 1.36884 9.84825 1.08381 9.25497C0.798769 8.66169 0.65625 7.98224 0.65625 7.21662C0.65625 6.44105 0.802083 5.75663 1.09375 5.16335C1.38542 4.56676 1.7964 4.10109 2.3267 3.76633C2.85701 3.43158 3.48177 3.2642 4.20099 3.2642C4.78101 3.2642 5.29806 3.37192 5.75213 3.58736C6.2062 3.79948 6.57244 4.09777 6.85085 4.48224C7.13258 4.86671 7.29995 5.31581 7.35298 5.82955H5.90625C5.8267 5.47159 5.64441 5.16335 5.35938 4.90483C5.07765 4.64631 4.69981 4.51705 4.22585 4.51705C3.81155 4.51705 3.44863 4.62642 3.13707 4.84517C2.82884 5.06061 2.58854 5.36884 2.41619 5.76989C2.24384 6.16761 2.15767 6.63826 2.15767 7.18182C2.15767 7.73864 2.24219 8.21922 2.41122 8.62358C2.58026 9.02794 2.81889 9.34115 3.12713 9.56321C3.43868 9.78527 3.80492 9.89631 4.22585 9.89631C4.50758 9.89631 4.76278 9.84493 4.99148 9.74219C5.22349 9.63613 5.41738 9.48532 5.57315 9.28977C5.73224 9.09422 5.84328 8.8589 5.90625 8.58381H7.35298C7.29995 9.07765 7.1392 9.51847 6.87074 9.90625C6.60227 10.294 6.24266 10.599 5.7919 10.821C5.34446 11.0431 4.81913 11.1541 4.21591 11.1541ZM12.1593 11.1541C11.4434 11.1541 10.8186 10.9901 10.285 10.6619C9.75136 10.3338 9.33706 9.87476 9.04208 9.2848C8.7471 8.69484 8.59961 8.00544 8.59961 7.21662C8.59961 6.42448 8.7471 5.73177 9.04208 5.13849C9.33706 4.54522 9.75136 4.08452 10.285 3.75639C10.8186 3.42827 11.4434 3.2642 12.1593 3.2642C12.8752 3.2642 13.4999 3.42827 14.0336 3.75639C14.5672 4.08452 14.9815 4.54522 15.2765 5.13849C15.5714 5.73177 15.7189 6.42448 15.7189 7.21662C15.7189 8.00544 15.5714 8.69484 15.2765 9.2848C14.9815 9.87476 14.5672 10.3338 14.0336 10.6619C13.4999 10.9901 12.8752 11.1541 12.1593 11.1541ZM12.1642 9.90625C12.6283 9.90625 13.0127 9.78362 13.3176 9.53835C13.6226 9.29309 13.848 8.96662 13.9938 8.55895C14.1429 8.15128 14.2175 7.70218 14.2175 7.21165C14.2175 6.72443 14.1429 6.27699 13.9938 5.86932C13.848 5.45833 13.6226 5.12855 13.3176 4.87997C13.0127 4.63139 12.6283 4.5071 12.1642 4.5071C11.6969 4.5071 11.3091 4.63139 11.0009 4.87997C10.696 5.12855 10.4689 5.45833 10.3198 5.86932C10.1739 6.27699 10.101 6.72443 10.101 7.21165C10.101 7.70218 10.1739 8.15128 10.3198 8.55895C10.4689 8.96662 10.696 9.29309 11.0009 9.53835C11.3091 9.78362 11.6969 9.90625 12.1642 9.90625ZM17.3782 11V3.36364H18.815V4.5767H18.8945C19.0337 4.16572 19.279 3.84257 19.6303 3.60724C19.985 3.36861 20.386 3.24929 20.8335 3.24929C20.9263 3.24929 21.0356 3.2526 21.1616 3.25923C21.2908 3.26586 21.3919 3.27415 21.4648 3.28409V4.70597C21.4052 4.68939 21.2991 4.67116 21.1467 4.65128C20.9942 4.62808 20.8417 4.61648 20.6893 4.61648C20.338 4.61648 20.0247 4.69105 19.7496 4.8402C19.4779 4.98603 19.2624 5.18987 19.1033 5.4517C18.9442 5.71023 18.8647 6.00521 18.8647 6.33665V11H17.3782ZM24.2377 6.46591V11H22.7512V3.36364H24.1781V4.60653H24.2725C24.4482 4.20218 24.7233 3.87737 25.0978 3.6321C25.4757 3.38684 25.9513 3.2642 26.5247 3.2642C27.045 3.2642 27.5008 3.37358 27.8919 3.59233C28.283 3.80777 28.5862 4.12926 28.8017 4.55682C29.0171 4.98437 29.1248 5.51302 29.1248 6.14276V11H27.6383V6.32173C27.6383 5.76823 27.4941 5.3357 27.2058 5.02415C26.9174 4.70928 26.5214 4.55185 26.0176 4.55185C25.6729 4.55185 25.3663 4.62642 25.0978 4.77557C24.8327 4.92472 24.6222 5.14347 24.4664 5.43182C24.314 5.71686 24.2377 6.06155 24.2377 6.46591ZM34.4096 11.1541C33.6573 11.1541 33.0093 10.9934 32.4657 10.6719C31.9255 10.3471 31.5079 9.89134 31.2129 9.30469C30.9212 8.71473 30.7754 8.02367 30.7754 7.23153C30.7754 6.44934 30.9212 5.75994 31.2129 5.16335C31.5079 4.56676 31.9189 4.10109 32.4458 3.76633C32.9761 3.43158 33.5959 3.2642 34.3052 3.2642C34.7361 3.2642 35.1537 3.33546 35.5581 3.47798C35.9624 3.6205 36.3253 3.84422 36.6468 4.14915C36.9683 4.45407 37.2219 4.85014 37.4075 5.33736C37.5931 5.82126 37.6859 6.40956 37.6859 7.10227V7.62926H31.6156V6.51562H36.2292C36.2292 6.12453 36.1497 5.77817 35.9906 5.47656C35.8315 5.17164 35.6078 4.93134 35.3194 4.75568C35.0344 4.58002 34.6996 4.49219 34.3152 4.49219C33.8975 4.49219 33.533 4.59493 33.2214 4.80043C32.9132 5.0026 32.6745 5.26776 32.5055 5.59588C32.3398 5.92069 32.2569 6.27367 32.2569 6.65483V7.52486C32.2569 8.03527 32.3464 8.46946 32.5254 8.82741C32.7077 9.18537 32.9612 9.45881 33.286 9.64773C33.6109 9.83333 33.9904 9.92614 34.4245 9.92614C34.7063 9.92614 34.9631 9.88636 35.1951 9.80682C35.4271 9.72396 35.6277 9.60133 35.7967 9.43892C35.9657 9.27652 36.095 9.07599 36.1845 8.83736L37.5914 9.09091C37.4788 9.50521 37.2766 9.86813 36.9849 10.1797C36.6966 10.4879 36.3336 10.7282 35.8961 10.9006C35.4619 11.0696 34.9664 11.1541 34.4096 11.1541ZM39.3352 11V3.36364H40.772V4.5767H40.8516C40.9908 4.16572 41.236 3.84257 41.5874 3.60724C41.942 3.36861 42.343 3.24929 42.7905 3.24929C42.8833 3.24929 42.9927 3.2526 43.1186 3.25923C43.2479 3.26586 43.349 3.27415 43.4219 3.28409V4.70597C43.3622 4.68939 43.2562 4.67116 43.1037 4.65128C42.9512 4.62808 42.7988 4.61648 42.6463 4.61648C42.295 4.61648 41.9818 4.69105 41.7067 4.8402C41.4349 4.98603 41.2195 5.18987 41.0604 5.4517C40.9013 5.71023 40.8217 6.00521 40.8217 6.33665V11H39.3352ZM48.7564 6.05327V7.34091H44.2422V6.05327H48.7564ZM50.7376 11V3.36364H52.1744V4.5767H52.2539C52.3931 4.16572 52.6384 3.84257 52.9897 3.60724C53.3443 3.36861 53.7454 3.24929 54.1928 3.24929C54.2856 3.24929 54.395 3.2526 54.521 3.25923C54.6502 3.26586 54.7513 3.27415 54.8242 3.28409V4.70597C54.7646 4.68939 54.6585 4.67116 54.506 4.65128C54.3536 4.62808 54.2011 4.61648 54.0487 4.61648C53.6973 4.61648 53.3841 4.69105 53.109 4.8402C52.8372 4.98603 52.6218 5.18987 52.4627 5.4517C52.3036 5.71023 52.2241 6.00521 52.2241 6.33665V11H50.7376ZM56.1106 11V3.36364H57.5971V11H56.1106ZM56.8613 2.18537C56.6028 2.18537 56.3807 2.09919 56.1951 1.92685C56.0128 1.75118 55.9217 1.54238 55.9217 1.30043C55.9217 1.05516 56.0128 0.846354 56.1951 0.674005C56.3807 0.498342 56.6028 0.410511 56.8613 0.410511C57.1199 0.410511 57.3403 0.498342 57.5225 0.674005C57.7082 0.846354 57.801 1.05516 57.801 1.30043C57.801 1.54238 57.7082 1.75118 57.5225 1.92685C57.3403 2.09919 57.1199 2.18537 56.8613 2.18537ZM62.7987 14.0227C62.1921 14.0227 61.6701 13.9432 61.2326 13.7841C60.7984 13.625 60.4438 13.4145 60.1687 13.1527C59.8936 12.8909 59.6881 12.6042 59.5522 12.2926L60.8299 11.7656C60.9194 11.9115 61.0387 12.0656 61.1879 12.228C61.3403 12.3937 61.5458 12.5346 61.8043 12.6506C62.0662 12.7666 62.4026 12.8246 62.8136 12.8246C63.377 12.8246 63.8427 12.687 64.2106 12.4119C64.5785 12.1402 64.7624 11.706 64.7624 11.1094V9.60795H64.668C64.5785 9.77036 64.4492 9.95099 64.2802 10.1499C64.1145 10.3487 63.8858 10.5211 63.5941 10.6669C63.3024 10.8127 62.9229 10.8857 62.4556 10.8857C61.8524 10.8857 61.3088 10.7448 60.8249 10.4631C60.3443 10.178 59.9632 9.75876 59.6815 9.20526C59.4031 8.64844 59.2638 7.96401 59.2638 7.15199C59.2638 6.33996 59.4014 5.64394 59.6765 5.06392C59.9549 4.4839 60.3361 4.03977 60.82 3.73153C61.3039 3.41998 61.8524 3.2642 62.4656 3.2642C62.9395 3.2642 63.3223 3.34375 63.614 3.50284C63.9057 3.65862 64.1327 3.84091 64.2951 4.04972C64.4608 4.25852 64.5884 4.44247 64.6779 4.60156H64.7873V3.36364H66.244V11.169C66.244 11.8253 66.0915 12.3639 65.7866 12.7848C65.4817 13.2057 65.069 13.5173 64.5487 13.7195C64.0316 13.9216 63.4483 14.0227 62.7987 14.0227ZM62.7837 9.6527C63.2113 9.6527 63.5726 9.55327 63.8675 9.3544C64.1658 9.15223 64.3912 8.86387 64.5437 8.48935C64.6995 8.11151 64.7773 7.65909 64.7773 7.1321C64.7773 6.61837 64.7011 6.16596 64.5487 5.77486C64.3962 5.38376 64.1725 5.07884 63.8775 4.86009C63.5825 4.63802 63.2179 4.52699 62.7837 4.52699C62.3363 4.52699 61.9634 4.64299 61.6651 4.875C61.3668 5.10369 61.1415 5.41525 60.989 5.80966C60.8398 6.20407 60.7653 6.64489 60.7653 7.1321C60.7653 7.63258 60.8415 8.07173 60.994 8.44957C61.1464 8.82741 61.3718 9.1224 61.6701 9.33452C61.9717 9.54664 62.3429 9.6527 62.7837 9.6527ZM69.7241 6.46591V11H68.2376V0.818182H69.7042V4.60653H69.7987C69.9776 4.19555 70.2511 3.86908 70.619 3.62713C70.9869 3.38518 71.4674 3.2642 72.0607 3.2642C72.5844 3.2642 73.0418 3.37192 73.4329 3.58736C73.8273 3.80279 74.1322 4.12429 74.3477 4.55185C74.5664 4.97609 74.6758 5.50639 74.6758 6.14276V11H73.1893V6.32173C73.1893 5.7616 73.0451 5.32741 72.7567 5.01918C72.4684 4.70762 72.0674 4.55185 71.5536 4.55185C71.2023 4.55185 70.8874 4.62642 70.609 4.77557C70.3339 4.92472 70.1168 5.14347 69.9577 5.43182C69.802 5.71686 69.7241 6.06155 69.7241 6.46591ZM80.2241 3.36364V4.55682H76.0529V3.36364H80.2241ZM77.1715 1.53409H78.658V8.75781C78.658 9.04616 78.7011 9.26326 78.7873 9.40909C78.8735 9.55161 78.9845 9.64938 79.1204 9.70241C79.2596 9.75213 79.4104 9.77699 79.5728 9.77699C79.6921 9.77699 79.7965 9.7687 79.886 9.75213C79.9755 9.73556 80.0451 9.7223 80.0948 9.71236L80.3633 10.9403C80.2771 10.9735 80.1545 11.0066 79.9954 11.0398C79.8363 11.0762 79.6374 11.0961 79.3988 11.0994C79.0077 11.1061 78.6431 11.0365 78.305 10.8906C77.967 10.7448 77.6935 10.5194 77.4847 10.2145C77.2759 9.90956 77.1715 9.52675 77.1715 9.06605V1.53409ZM86.108 6.05327V7.34091H81.5938V6.05327H86.108ZM92.9265 7.8331V3.36364H94.418V11H92.9563V9.67756H92.8768C92.7011 10.0852 92.4194 10.425 92.0316 10.6967C91.6471 10.9652 91.1682 11.0994 90.5948 11.0994C90.1043 11.0994 89.6701 10.9917 89.2923 10.7763C88.9177 10.5575 88.6228 10.2344 88.4073 9.80682C88.1952 9.37926 88.0891 8.85062 88.0891 8.22088V3.36364H89.5756V8.0419C89.5756 8.56226 89.7198 8.97656 90.0082 9.2848C90.2965 9.59304 90.671 9.74716 91.1317 9.74716C91.4102 9.74716 91.6869 9.67756 91.962 9.53835C92.2404 9.39915 92.4708 9.18868 92.6531 8.90696C92.8387 8.62524 92.9298 8.26728 92.9265 7.8331ZM96.4153 13.8636V3.36364H97.867V4.60156H97.9913C98.0775 4.44247 98.2018 4.25852 98.3642 4.04972C98.5266 3.84091 98.752 3.65862 99.0403 3.50284C99.3287 3.34375 99.7098 3.2642 100.184 3.2642C100.8 3.2642 101.35 3.41998 101.834 3.73153C102.318 4.04309 102.698 4.49219 102.973 5.07884C103.251 5.66548 103.39 6.37145 103.39 7.19673C103.39 8.02202 103.253 8.72964 102.978 9.3196C102.703 9.90625 102.325 10.3587 101.844 10.6768C101.364 10.9917 100.815 11.1491 100.199 11.1491C99.7347 11.1491 99.3552 11.0713 99.0602 10.9155C98.7685 10.7597 98.5398 10.5774 98.3741 10.3686C98.2084 10.1598 98.0808 9.9742 97.9913 9.81179H97.9018V13.8636H96.4153ZM97.872 7.18182C97.872 7.71875 97.9499 8.18939 98.1056 8.59375C98.2614 8.99811 98.4868 9.31463 98.7818 9.54332C99.0768 9.7687 99.438 9.88139 99.8656 9.88139C100.31 9.88139 100.681 9.76373 100.979 9.52841C101.278 9.28977 101.503 8.96662 101.655 8.55895C101.811 8.15128 101.889 7.69223 101.889 7.18182C101.889 6.67803 101.813 6.22562 101.66 5.82457C101.511 5.42353 101.286 5.10701 100.984 4.875C100.686 4.64299 100.313 4.52699 99.8656 4.52699C99.4347 4.52699 99.0701 4.63802 98.7718 4.86009C98.4769 5.08215 98.2531 5.39205 98.1007 5.78977C97.9482 6.1875 97.872 6.65151 97.872 7.18182Z" fill="black"/>
</svg>
