<svg width="152" height="15" viewBox="0 0 152 15" fill="none" xmlns="http://www.w3.org/2000/svg">
<path d="M3.22159 11.169C2.73769 11.169 2.30019 11.0795 1.90909 10.9006C1.51799 10.7183 1.2081 10.4548 0.979403 10.1101C0.754025 9.76539 0.641335 9.3428 0.641335 8.84233C0.641335 8.41146 0.724195 8.05682 0.889915 7.77841C1.05563 7.5 1.27936 7.27959 1.56108 7.11719C1.8428 6.95478 2.15767 6.83215 2.50568 6.74929C2.85369 6.66643 3.20833 6.60346 3.5696 6.56037C4.02699 6.50734 4.3982 6.46425 4.68324 6.43111C4.96828 6.39465 5.17543 6.33665 5.30469 6.2571C5.43395 6.17756 5.49858 6.0483 5.49858 5.86932V5.83452C5.49858 5.40033 5.37595 5.06392 5.13068 4.82528C4.88873 4.58665 4.52746 4.46733 4.04688 4.46733C3.5464 4.46733 3.15199 4.57836 2.86364 4.80043C2.5786 5.01918 2.38139 5.26278 2.27202 5.53125L0.875 5.21307C1.04072 4.74905 1.28267 4.37453 1.60085 4.08949C1.92235 3.80114 2.2919 3.59233 2.70952 3.46307C3.12713 3.33049 3.56629 3.2642 4.02699 3.2642C4.33191 3.2642 4.65507 3.30066 4.99645 3.37358C5.34115 3.44318 5.66264 3.57244 5.96094 3.76136C6.26255 3.95028 6.50947 4.22041 6.7017 4.57173C6.89394 4.91974 6.99006 5.37216 6.99006 5.92898V11H5.53835V9.95597H5.47869C5.38258 10.1482 5.2384 10.3371 5.04616 10.5227C4.85393 10.7083 4.60701 10.8625 4.3054 10.9851C4.00379 11.1077 3.64252 11.169 3.22159 11.169ZM3.54474 9.97585C3.95573 9.97585 4.30706 9.89465 4.59872 9.73224C4.8937 9.56984 5.11742 9.35772 5.26989 9.09588C5.42566 8.83073 5.50355 8.54735 5.50355 8.24574V7.26136C5.45052 7.31439 5.34777 7.36411 5.19531 7.41051C5.04616 7.4536 4.87547 7.49171 4.68324 7.52486C4.491 7.55469 4.30374 7.58286 4.12145 7.60938C3.93916 7.63258 3.7867 7.65246 3.66406 7.66903C3.37571 7.70549 3.11222 7.76681 2.87358 7.85298C2.63826 7.93916 2.44934 8.06345 2.30682 8.22585C2.16761 8.38494 2.09801 8.59706 2.09801 8.86222C2.09801 9.23011 2.2339 9.50852 2.50568 9.69744C2.77746 9.88305 3.12382 9.97585 3.54474 9.97585ZM8.96999 11V3.36364H10.4068V4.5767H10.4863C10.6255 4.16572 10.8708 3.84257 11.2221 3.60724C11.5768 3.36861 11.9778 3.24929 12.4252 3.24929C12.5181 3.24929 12.6274 3.2526 12.7534 3.25923C12.8826 3.26586 12.9837 3.27415 13.0566 3.28409V4.70597C12.997 4.68939 12.8909 4.67116 12.7385 4.65128C12.586 4.62808 12.4335 4.61648 12.2811 4.61648C11.9297 4.61648 11.6165 4.69105 11.3414 4.8402C11.0697 4.98603 10.8542 5.18987 10.6951 5.4517C10.536 5.71023 10.4565 6.00521 10.4565 6.33665V11H8.96999ZM14.343 11V3.36364H15.7798V4.5767H15.8594C15.9986 4.16572 16.2438 3.84257 16.5952 3.60724C16.9498 3.36861 17.3509 3.24929 17.7983 3.24929C17.8911 3.24929 18.0005 3.2526 18.1264 3.25923C18.2557 3.26586 18.3568 3.27415 18.4297 3.28409V4.70597C18.37 4.68939 18.264 4.67116 18.1115 4.65128C17.959 4.62808 17.8066 4.61648 17.6541 4.61648C17.3028 4.61648 16.9896 4.69105 16.7145 4.8402C16.4427 4.98603 16.2273 5.18987 16.0682 5.4517C15.9091 5.71023 15.8295 6.00521 15.8295 6.33665V11H14.343ZM22.6593 11.1541C21.9434 11.1541 21.3186 10.9901 20.785 10.6619C20.2514 10.3338 19.8371 9.87476 19.5421 9.2848C19.2471 8.69484 19.0996 8.00544 19.0996 7.21662C19.0996 6.42448 19.2471 5.73177 19.5421 5.13849C19.8371 4.54522 20.2514 4.08452 20.785 3.75639C21.3186 3.42827 21.9434 3.2642 22.6593 3.2642C23.3752 3.2642 23.9999 3.42827 24.5336 3.75639C25.0672 4.08452 25.4815 4.54522 25.7765 5.13849C26.0714 5.73177 26.2189 6.42448 26.2189 7.21662C26.2189 8.00544 26.0714 8.69484 25.7765 9.2848C25.4815 9.87476 25.0672 10.3338 24.5336 10.6619C23.9999 10.9901 23.3752 11.1541 22.6593 11.1541ZM22.6642 9.90625C23.1283 9.90625 23.5127 9.78362 23.8176 9.53835C24.1226 9.29309 24.348 8.96662 24.4938 8.55895C24.6429 8.15128 24.7175 7.70218 24.7175 7.21165C24.7175 6.72443 24.6429 6.27699 24.4938 5.86932C24.348 5.45833 24.1226 5.12855 23.8176 4.87997C23.5127 4.63139 23.1283 4.5071 22.6642 4.5071C22.1969 4.5071 21.8091 4.63139 21.5009 4.87997C21.196 5.12855 20.9689 5.45833 20.8198 5.86932C20.6739 6.27699 20.601 6.72443 20.601 7.21165C20.601 7.70218 20.6739 8.15128 20.8198 8.55895C20.9689 8.96662 21.196 9.29309 21.5009 9.53835C21.8091 9.78362 22.1969 9.90625 22.6642 9.90625ZM29.3013 11L27.0542 3.36364H28.5904L30.0868 8.97159H30.1614L31.6628 3.36364H33.199L34.6905 8.94673H34.7651L36.2516 3.36364H37.7878L35.5456 11H34.0293L32.4782 5.48651H32.3638L30.8127 11H29.3013ZM43.6978 6.05327V7.34091H39.1836V6.05327H43.6978ZM47.1655 6.46591V11H45.679V3.36364H47.1058V4.60653H47.2003C47.3759 4.20218 47.651 3.87737 48.0256 3.6321C48.4034 3.38684 48.879 3.2642 49.4524 3.2642C49.9728 3.2642 50.4285 3.37358 50.8196 3.59233C51.2107 3.80777 51.514 4.12926 51.7294 4.55682C51.9448 4.98437 52.0526 5.51302 52.0526 6.14276V11H50.5661V6.32173C50.5661 5.76823 50.4219 5.3357 50.1335 5.02415C49.8452 4.70928 49.4491 4.55185 48.9453 4.55185C48.6006 4.55185 48.294 4.62642 48.0256 4.77557C47.7604 4.92472 47.55 5.14347 47.3942 5.43182C47.2417 5.71686 47.1655 6.06155 47.1655 6.46591ZM56.2685 11.169C55.7846 11.169 55.3471 11.0795 54.956 10.9006C54.5649 10.7183 54.255 10.4548 54.0263 10.1101C53.8009 9.76539 53.6882 9.3428 53.6882 8.84233C53.6882 8.41146 53.7711 8.05682 53.9368 7.77841C54.1025 7.5 54.3262 7.27959 54.608 7.11719C54.8897 6.95478 55.2045 6.83215 55.5526 6.74929C55.9006 6.66643 56.2552 6.60346 56.6165 6.56037C57.0739 6.50734 57.4451 6.46425 57.7301 6.43111C58.0152 6.39465 58.2223 6.33665 58.3516 6.2571C58.4808 6.17756 58.5455 6.0483 58.5455 5.86932V5.83452C58.5455 5.40033 58.4228 5.06392 58.1776 4.82528C57.9356 4.58665 57.5743 4.46733 57.0938 4.46733C56.5933 4.46733 56.1989 4.57836 55.9105 4.80043C55.6255 5.01918 55.4283 5.26278 55.3189 5.53125L53.9219 5.21307C54.0876 4.74905 54.3295 4.37453 54.6477 4.08949C54.9692 3.80114 55.3388 3.59233 55.7564 3.46307C56.174 3.33049 56.6132 3.2642 57.0739 3.2642C57.3788 3.2642 57.7019 3.30066 58.0433 3.37358C58.388 3.44318 58.7095 3.57244 59.0078 3.76136C59.3094 3.95028 59.5563 4.22041 59.7486 4.57173C59.9408 4.91974 60.0369 5.37216 60.0369 5.92898V11H58.5852V9.95597H58.5256C58.4295 10.1482 58.2853 10.3371 58.093 10.5227C57.9008 10.7083 57.6539 10.8625 57.3523 10.9851C57.0507 11.1077 56.6894 11.169 56.2685 11.169ZM56.5916 9.97585C57.0026 9.97585 57.3539 9.89465 57.6456 9.73224C57.9406 9.56984 58.1643 9.35772 58.3168 9.09588C58.4725 8.83073 58.5504 8.54735 58.5504 8.24574V7.26136C58.4974 7.31439 58.3946 7.36411 58.2422 7.41051C58.093 7.4536 57.9223 7.49171 57.7301 7.52486C57.5379 7.55469 57.3506 7.58286 57.1683 7.60938C56.986 7.63258 56.8336 7.65246 56.7109 7.66903C56.4226 7.70549 56.1591 7.76681 55.9205 7.85298C55.6851 7.93916 55.4962 8.06345 55.3537 8.22585C55.2145 8.38494 55.1449 8.59706 55.1449 8.86222C55.1449 9.23011 55.2808 9.50852 55.5526 9.69744C55.8243 9.88305 56.1707 9.97585 56.5916 9.97585ZM62.0169 11V3.36364H63.4537V4.5767H63.5332C63.6724 4.16572 63.9177 3.84257 64.269 3.60724C64.6236 3.36861 65.0247 3.24929 65.4721 3.24929C65.5649 3.24929 65.6743 3.2526 65.8002 3.25923C65.9295 3.26586 66.0306 3.27415 66.1035 3.28409V4.70597C66.0439 4.68939 65.9378 4.67116 65.7853 4.65128C65.6329 4.62808 65.4804 4.61648 65.3279 4.61648C64.9766 4.61648 64.6634 4.69105 64.3883 4.8402C64.1165 4.98603 63.9011 5.18987 63.742 5.4517C63.5829 5.71023 63.5034 6.00521 63.5034 6.33665V11H62.0169ZM67.3899 11V3.36364H68.8267V4.5767H68.9062C69.0455 4.16572 69.2907 3.84257 69.642 3.60724C69.9967 3.36861 70.3977 3.24929 70.8452 3.24929C70.938 3.24929 71.0473 3.2526 71.1733 3.25923C71.3026 3.26586 71.4036 3.27415 71.4766 3.28409V4.70597C71.4169 4.68939 71.3108 4.67116 71.1584 4.65128C71.0059 4.62808 70.8535 4.61648 70.701 4.61648C70.3497 4.61648 70.0365 4.69105 69.7614 4.8402C69.4896 4.98603 69.2741 5.18987 69.1151 5.4517C68.956 5.71023 68.8764 6.00521 68.8764 6.33665V11H67.3899ZM75.7061 11.1541C74.9902 11.1541 74.3655 10.9901 73.8319 10.6619C73.2982 10.3338 72.8839 9.87476 72.589 9.2848C72.294 8.69484 72.1465 8.00544 72.1465 7.21662C72.1465 6.42448 72.294 5.73177 72.589 5.13849C72.8839 4.54522 73.2982 4.08452 73.8319 3.75639C74.3655 3.42827 74.9902 3.2642 75.7061 3.2642C76.4221 3.2642 77.0468 3.42827 77.5804 3.75639C78.1141 4.08452 78.5283 4.54522 78.8233 5.13849C79.1183 5.73177 79.2658 6.42448 79.2658 7.21662C79.2658 8.00544 79.1183 8.69484 78.8233 9.2848C78.5283 9.87476 78.1141 10.3338 77.5804 10.6619C77.0468 10.9901 76.4221 11.1541 75.7061 11.1541ZM75.7111 9.90625C76.1751 9.90625 76.5596 9.78362 76.8645 9.53835C77.1694 9.29309 77.3948 8.96662 77.5407 8.55895C77.6898 8.15128 77.7644 7.70218 77.7644 7.21165C77.7644 6.72443 77.6898 6.27699 77.5407 5.86932C77.3948 5.45833 77.1694 5.12855 76.8645 4.87997C76.5596 4.63139 76.1751 4.5071 75.7111 4.5071C75.2438 4.5071 74.856 4.63139 74.5478 4.87997C74.2428 5.12855 74.0158 5.45833 73.8667 5.86932C73.7208 6.27699 73.6479 6.72443 73.6479 7.21165C73.6479 7.70218 73.7208 8.15128 73.8667 8.55895C74.0158 8.96662 74.2428 9.29309 74.5478 9.53835C74.856 9.78362 75.2438 9.90625 75.7111 9.90625ZM82.3482 11L80.101 3.36364H81.6373L83.1337 8.97159H83.2083L84.7097 3.36364H86.2459L87.7374 8.94673H87.812L89.2985 3.36364H90.8347L88.5925 11H87.0762L85.525 5.48651H85.4107L83.8596 11H82.3482ZM96.7447 6.05327V7.34091H92.2305V6.05327H96.7447ZM103.563 7.8331V3.36364H105.055V11H103.593V9.67756H103.513C103.338 10.0852 103.056 10.425 102.668 10.6967C102.284 10.9652 101.805 11.0994 101.232 11.0994C100.741 11.0994 100.307 10.9917 99.929 10.7763C99.5545 10.5575 99.2595 10.2344 99.044 9.80682C98.8319 9.37926 98.7259 8.85062 98.7259 8.22088V3.36364H100.212V8.0419C100.212 8.56226 100.357 8.97656 100.645 9.2848C100.933 9.59304 101.308 9.74716 101.768 9.74716C102.047 9.74716 102.324 9.67756 102.599 9.53835C102.877 9.39915 103.107 9.18868 103.29 8.90696C103.475 8.62524 103.567 8.26728 103.563 7.8331ZM107.052 13.8636V3.36364H108.504V4.60156H108.628C108.714 4.44247 108.838 4.25852 109.001 4.04972C109.163 3.84091 109.389 3.65862 109.677 3.50284C109.965 3.34375 110.347 3.2642 110.82 3.2642C111.437 3.2642 111.987 3.41998 112.471 3.73153C112.955 4.04309 113.334 4.49219 113.61 5.07884C113.888 5.66548 114.027 6.37145 114.027 7.19673C114.027 8.02202 113.89 8.72964 113.615 9.3196C113.339 9.90625 112.962 10.3587 112.481 10.6768C112 10.9917 111.452 11.1491 110.835 11.1491C110.371 11.1491 109.992 11.0713 109.697 10.9155C109.405 10.7597 109.177 10.5774 109.011 10.3686C108.845 10.1598 108.718 9.9742 108.628 9.81179H108.539V13.8636H107.052ZM108.509 7.18182C108.509 7.71875 108.587 8.18939 108.742 8.59375C108.898 8.99811 109.124 9.31463 109.419 9.54332C109.713 9.7687 110.075 9.88139 110.502 9.88139C110.946 9.88139 111.318 9.76373 111.616 9.52841C111.914 9.28977 112.14 8.96662 112.292 8.55895C112.448 8.15128 112.526 7.69223 112.526 7.18182C112.526 6.67803 112.45 6.22562 112.297 5.82457C112.148 5.42353 111.923 5.10701 111.621 4.875C111.323 4.64299 110.95 4.52699 110.502 4.52699C110.071 4.52699 109.707 4.63802 109.409 4.86009C109.114 5.08215 108.89 5.39205 108.737 5.78977C108.585 6.1875 108.509 6.65151 108.509 7.18182ZM120.192 6.05327V7.34091H115.678V6.05327H120.192ZM122.173 11V3.36364H123.61V4.5767H123.689C123.829 4.16572 124.074 3.84257 124.425 3.60724C124.78 3.36861 125.181 3.24929 125.628 3.24929C125.721 3.24929 125.831 3.2526 125.956 3.25923C126.086 3.26586 126.187 3.27415 126.26 3.28409V4.70597C126.2 4.68939 126.094 4.67116 125.942 4.65128C125.789 4.62808 125.637 4.61648 125.484 4.61648C125.133 4.61648 124.82 4.69105 124.545 4.8402C124.273 4.98603 124.057 5.18987 123.898 5.4517C123.739 5.71023 123.66 6.00521 123.66 6.33665V11H122.173ZM127.546 11V3.36364H129.033V11H127.546ZM128.297 2.18537C128.038 2.18537 127.816 2.09919 127.631 1.92685C127.448 1.75118 127.357 1.54238 127.357 1.30043C127.357 1.05516 127.448 0.846354 127.631 0.674005C127.816 0.498342 128.038 0.410511 128.297 0.410511C128.555 0.410511 128.776 0.498342 128.958 0.674005C129.144 0.846354 129.237 1.05516 129.237 1.30043C129.237 1.54238 129.144 1.75118 128.958 1.92685C128.776 2.09919 128.555 2.18537 128.297 2.18537ZM134.234 14.0227C133.628 14.0227 133.106 13.9432 132.668 13.7841C132.234 13.625 131.879 13.4145 131.604 13.1527C131.329 12.8909 131.124 12.6042 130.988 12.2926L132.265 11.7656C132.355 11.9115 132.474 12.0656 132.623 12.228C132.776 12.3937 132.981 12.5346 133.24 12.6506C133.502 12.7666 133.838 12.8246 134.249 12.8246C134.813 12.8246 135.278 12.687 135.646 12.4119C136.014 12.1402 136.198 11.706 136.198 11.1094V9.60795H136.104C136.014 9.77036 135.885 9.95099 135.716 10.1499C135.55 10.3487 135.321 10.5211 135.03 10.6669C134.738 10.8127 134.358 10.8857 133.891 10.8857C133.288 10.8857 132.744 10.7448 132.26 10.4631C131.78 10.178 131.399 9.75876 131.117 9.20526C130.839 8.64844 130.699 7.96401 130.699 7.15199C130.699 6.33996 130.837 5.64394 131.112 5.06392C131.39 4.4839 131.772 4.03977 132.256 3.73153C132.739 3.41998 133.288 3.2642 133.901 3.2642C134.375 3.2642 134.758 3.34375 135.05 3.50284C135.341 3.65862 135.568 3.84091 135.731 4.04972C135.896 4.25852 136.024 4.44247 136.113 4.60156H136.223V3.36364H137.68V11.169C137.68 11.8253 137.527 12.3639 137.222 12.7848C136.917 13.2057 136.505 13.5173 135.984 13.7195C135.467 13.9216 134.884 14.0227 134.234 14.0227ZM134.219 9.6527C134.647 9.6527 135.008 9.55327 135.303 9.3544C135.601 9.15223 135.827 8.86387 135.979 8.48935C136.135 8.11151 136.213 7.65909 136.213 7.1321C136.213 6.61837 136.137 6.16596 135.984 5.77486C135.832 5.38376 135.608 5.07884 135.313 4.86009C135.018 4.63802 134.653 4.52699 134.219 4.52699C133.772 4.52699 133.399 4.64299 133.101 4.875C132.802 5.10369 132.577 5.41525 132.425 5.80966C132.275 6.20407 132.201 6.64489 132.201 7.1321C132.201 7.63258 132.277 8.07173 132.43 8.44957C132.582 8.82741 132.807 9.1224 133.106 9.33452C133.407 9.54664 133.778 9.6527 134.219 9.6527ZM141.16 6.46591V11H139.673V0.818182H141.14V4.60653H141.234C141.413 4.19555 141.687 3.86908 142.055 3.62713C142.422 3.38518 142.903 3.2642 143.496 3.2642C144.02 3.2642 144.477 3.37192 144.868 3.58736C145.263 3.80279 145.568 4.12429 145.783 4.55185C146.002 4.97609 146.111 5.50639 146.111 6.14276V11H144.625V6.32173C144.625 5.7616 144.481 5.32741 144.192 5.01918C143.904 4.70762 143.503 4.55185 142.989 4.55185C142.638 4.55185 142.323 4.62642 142.045 4.77557C141.769 4.92472 141.552 5.14347 141.393 5.43182C141.238 5.71686 141.16 6.06155 141.16 6.46591ZM151.66 3.36364V4.55682H147.488V3.36364H151.66ZM148.607 1.53409H150.094V8.75781C150.094 9.04616 150.137 9.26326 150.223 9.40909C150.309 9.55161 150.42 9.64938 150.556 9.70241C150.695 9.75213 150.846 9.77699 151.008 9.77699C151.128 9.77699 151.232 9.7687 151.322 9.75213C151.411 9.73556 151.481 9.7223 151.53 9.71236L151.799 10.9403C151.713 10.9735 151.59 11.0066 151.431 11.0398C151.272 11.0762 151.073 11.0961 150.834 11.0994C150.443 11.1061 150.079 11.0365 149.741 10.8906C149.403 10.7448 149.129 10.5194 148.92 10.2145C148.711 9.90956 148.607 9.52675 148.607 9.06605V1.53409Z" fill="black"/>
</svg>
