<svg width="74" height="12" viewBox="0 0 74 12" fill="none" xmlns="http://www.w3.org/2000/svg">
<path d="M3.22159 11.169C2.73769 11.169 2.30019 11.0795 1.90909 10.9006C1.51799 10.7183 1.2081 10.4548 0.979403 10.1101C0.754025 9.76539 0.641335 9.3428 0.641335 8.84233C0.641335 8.41146 0.724195 8.05682 0.889915 7.77841C1.05563 7.5 1.27936 7.27959 1.56108 7.11719C1.8428 6.95478 2.15767 6.83215 2.50568 6.74929C2.85369 6.66643 3.20833 6.60346 3.5696 6.56037C4.02699 6.50734 4.3982 6.46425 4.68324 6.43111C4.96828 6.39465 5.17543 6.33665 5.30469 6.2571C5.43395 6.17756 5.49858 6.0483 5.49858 5.86932V5.83452C5.49858 5.40033 5.37595 5.06392 5.13068 4.82528C4.88873 4.58665 4.52746 4.46733 4.04688 4.46733C3.5464 4.46733 3.15199 4.57836 2.86364 4.80043C2.5786 5.01918 2.38139 5.26278 2.27202 5.53125L0.875 5.21307C1.04072 4.74905 1.28267 4.37453 1.60085 4.08949C1.92235 3.80114 2.2919 3.59233 2.70952 3.46307C3.12713 3.33049 3.56629 3.2642 4.02699 3.2642C4.33191 3.2642 4.65507 3.30066 4.99645 3.37358C5.34115 3.44318 5.66264 3.57244 5.96094 3.76136C6.26255 3.95028 6.50947 4.22041 6.7017 4.57173C6.89394 4.91974 6.99006 5.37216 6.99006 5.92898V11H5.53835V9.95597H5.47869C5.38258 10.1482 5.2384 10.3371 5.04616 10.5227C4.85393 10.7083 4.60701 10.8625 4.3054 10.9851C4.00379 11.1077 3.64252 11.169 3.22159 11.169ZM3.54474 9.97585C3.95573 9.97585 4.30706 9.89465 4.59872 9.73224C4.8937 9.56984 5.11742 9.35772 5.26989 9.09588C5.42566 8.83073 5.50355 8.54735 5.50355 8.24574V7.26136C5.45052 7.31439 5.34777 7.36411 5.19531 7.41051C5.04616 7.4536 4.87547 7.49171 4.68324 7.52486C4.491 7.55469 4.30374 7.58286 4.12145 7.60938C3.93916 7.63258 3.7867 7.65246 3.66406 7.66903C3.37571 7.70549 3.11222 7.76681 2.87358 7.85298C2.63826 7.93916 2.44934 8.06345 2.30682 8.22585C2.16761 8.38494 2.09801 8.59706 2.09801 8.86222C2.09801 9.23011 2.2339 9.50852 2.50568 9.69744C2.77746 9.88305 3.12382 9.97585 3.54474 9.97585ZM8.96999 11V3.36364H10.4068V4.5767H10.4863C10.6255 4.16572 10.8708 3.84257 11.2221 3.60724C11.5768 3.36861 11.9778 3.24929 12.4252 3.24929C12.5181 3.24929 12.6274 3.2526 12.7534 3.25923C12.8826 3.26586 12.9837 3.27415 13.0566 3.28409V4.70597C12.997 4.68939 12.8909 4.67116 12.7385 4.65128C12.586 4.62808 12.4335 4.61648 12.2811 4.61648C11.9297 4.61648 11.6165 4.69105 11.3414 4.8402C11.0697 4.98603 10.8542 5.18987 10.6951 5.4517C10.536 5.71023 10.4565 6.00521 10.4565 6.33665V11H8.96999ZM14.343 11V3.36364H15.7798V4.5767H15.8594C15.9986 4.16572 16.2438 3.84257 16.5952 3.60724C16.9498 3.36861 17.3509 3.24929 17.7983 3.24929C17.8911 3.24929 18.0005 3.2526 18.1264 3.25923C18.2557 3.26586 18.3568 3.27415 18.4297 3.28409V4.70597C18.37 4.68939 18.264 4.67116 18.1115 4.65128C17.959 4.62808 17.8066 4.61648 17.6541 4.61648C17.3028 4.61648 16.9896 4.69105 16.7145 4.8402C16.4427 4.98603 16.2273 5.18987 16.0682 5.4517C15.9091 5.71023 15.8295 6.00521 15.8295 6.33665V11H14.343ZM22.6593 11.1541C21.9434 11.1541 21.3186 10.9901 20.785 10.6619C20.2514 10.3338 19.8371 9.87476 19.5421 9.2848C19.2471 8.69484 19.0996 8.00544 19.0996 7.21662C19.0996 6.42448 19.2471 5.73177 19.5421 5.13849C19.8371 4.54522 20.2514 4.08452 20.785 3.75639C21.3186 3.42827 21.9434 3.2642 22.6593 3.2642C23.3752 3.2642 23.9999 3.42827 24.5336 3.75639C25.0672 4.08452 25.4815 4.54522 25.7765 5.13849C26.0714 5.73177 26.2189 6.42448 26.2189 7.21662C26.2189 8.00544 26.0714 8.69484 25.7765 9.2848C25.4815 9.87476 25.0672 10.3338 24.5336 10.6619C23.9999 10.9901 23.3752 11.1541 22.6593 11.1541ZM22.6642 9.90625C23.1283 9.90625 23.5127 9.78362 23.8176 9.53835C24.1226 9.29309 24.348 8.96662 24.4938 8.55895C24.6429 8.15128 24.7175 7.70218 24.7175 7.21165C24.7175 6.72443 24.6429 6.27699 24.4938 5.86932C24.348 5.45833 24.1226 5.12855 23.8176 4.87997C23.5127 4.63139 23.1283 4.5071 22.6642 4.5071C22.1969 4.5071 21.8091 4.63139 21.5009 4.87997C21.196 5.12855 20.9689 5.45833 20.8198 5.86932C20.6739 6.27699 20.601 6.72443 20.601 7.21165C20.601 7.70218 20.6739 8.15128 20.8198 8.55895C20.9689 8.96662 21.196 9.29309 21.5009 9.53835C21.8091 9.78362 22.1969 9.90625 22.6642 9.90625ZM29.3013 11L27.0542 3.36364H28.5904L30.0868 8.97159H30.1614L31.6628 3.36364H33.199L34.6905 8.94673H34.7651L36.2516 3.36364H37.7878L35.5456 11H34.0293L32.4782 5.48651H32.3638L30.8127 11H29.3013ZM44.9208 5.22798L43.5735 5.46662C43.5172 5.29427 43.4277 5.13021 43.305 4.97443C43.1857 4.81865 43.0233 4.69105 42.8178 4.59162C42.6123 4.49219 42.3555 4.44247 42.0472 4.44247C41.6263 4.44247 41.275 4.53693 40.9933 4.72585C40.7115 4.91146 40.5707 5.15175 40.5707 5.44673C40.5707 5.70194 40.6651 5.90743 40.854 6.06321C41.043 6.21899 41.3479 6.34659 41.7688 6.44602L42.9819 6.72443C43.6845 6.88684 44.2082 7.13707 44.5529 7.47514C44.8976 7.81321 45.07 8.25237 45.07 8.79261C45.07 9.25 44.9374 9.65767 44.6722 10.0156C44.4104 10.3703 44.0442 10.6487 43.5735 10.8509C43.1062 11.053 42.5643 11.1541 41.9478 11.1541C41.0927 11.1541 40.395 10.9718 39.8548 10.6072C39.3145 10.2393 38.9831 9.71733 38.8604 9.04119L40.2972 8.82244C40.3867 9.19697 40.5707 9.48035 40.8491 9.67259C41.1275 9.86151 41.4904 9.95597 41.9379 9.95597C42.4251 9.95597 42.8145 9.85488 43.1062 9.6527C43.3978 9.44721 43.5437 9.19697 43.5437 8.90199C43.5437 8.66335 43.4542 8.46283 43.2752 8.30043C43.0996 8.13802 42.8294 8.01539 42.4648 7.93253L41.1722 7.64915C40.4596 7.48674 39.9326 7.22822 39.5913 6.87358C39.2532 6.51894 39.0842 6.06984 39.0842 5.52628C39.0842 5.07552 39.2101 4.68111 39.462 4.34304C39.7139 4.00497 40.0619 3.74148 40.506 3.55256C40.9502 3.36032 41.4589 3.2642 42.0323 3.2642C42.8576 3.2642 43.5072 3.44318 43.9812 3.80114C44.4551 4.15578 44.7683 4.63139 44.9208 5.22798ZM51.2037 6.05327V7.34091H46.6895V6.05327H51.2037ZM54.6713 0.818182V11H53.1848V0.818182H54.6713ZM59.9624 11.1541C59.21 11.1541 58.562 10.9934 58.0185 10.6719C57.4782 10.3471 57.0606 9.89134 56.7656 9.30469C56.474 8.71473 56.3281 8.02367 56.3281 7.23153C56.3281 6.44934 56.474 5.75994 56.7656 5.16335C57.0606 4.56676 57.4716 4.10109 57.9986 3.76633C58.5289 3.43158 59.1487 3.2642 59.858 3.2642C60.2888 3.2642 60.7064 3.33546 61.1108 3.47798C61.5152 3.6205 61.8781 3.84422 62.1996 4.14915C62.5211 4.45407 62.7746 4.85014 62.9602 5.33736C63.1458 5.82126 63.2386 6.40956 63.2386 7.10227V7.62926H57.1683V6.51562H61.782C61.782 6.12453 61.7024 5.77817 61.5433 5.47656C61.3842 5.17164 61.1605 4.93134 60.8722 4.75568C60.5871 4.58002 60.2524 4.49219 59.8679 4.49219C59.4503 4.49219 59.0857 4.59493 58.7741 4.80043C58.4659 5.0026 58.2273 5.26776 58.0582 5.59588C57.8925 5.92069 57.8097 6.27367 57.8097 6.65483V7.52486C57.8097 8.03527 57.8991 8.46946 58.0781 8.82741C58.2604 9.18537 58.514 9.45881 58.8388 9.64773C59.1636 9.83333 59.5431 9.92614 59.9773 9.92614C60.259 9.92614 60.5159 9.88636 60.7479 9.80682C60.9799 9.72396 61.1804 9.60133 61.3494 9.43892C61.5185 9.27652 61.6477 9.07599 61.7372 8.83736L63.1442 9.09091C63.0315 9.50521 62.8293 9.86813 62.5376 10.1797C62.2493 10.4879 61.8864 10.7282 61.4489 10.9006C61.0147 11.0696 60.5192 11.1541 59.9624 11.1541ZM68.5222 3.36364V4.55682H64.2069V3.36364H68.5222ZM65.3901 11V2.47869C65.3901 2.00142 65.4945 1.60535 65.7033 1.29048C65.9121 0.972301 66.1889 0.735322 66.5336 0.579545C66.8783 0.420454 67.2528 0.340908 67.6571 0.340908C67.9554 0.340908 68.2106 0.365767 68.4228 0.415483C68.6349 0.461884 68.7923 0.504971 68.8951 0.544744L68.5471 1.74787C68.4775 1.72798 68.388 1.70478 68.2786 1.67827C68.1692 1.64844 68.0366 1.63352 67.8809 1.63352C67.5196 1.63352 67.2611 1.72301 67.1053 1.90199C66.9528 2.08097 66.8766 2.33949 66.8766 2.67756V11H65.3901ZM73.6206 3.36364V4.55682H69.4494V3.36364H73.6206ZM70.568 1.53409H72.0545V8.75781C72.0545 9.04616 72.0976 9.26326 72.1838 9.40909C72.2699 9.55161 72.381 9.64938 72.5169 9.70241C72.6561 9.75213 72.8069 9.77699 72.9693 9.77699C73.0886 9.77699 73.193 9.7687 73.2825 9.75213C73.372 9.73556 73.4416 9.7223 73.4913 9.71236L73.7598 10.9403C73.6736 10.9735 73.551 11.0066 73.3919 11.0398C73.2328 11.0762 73.0339 11.0961 72.7953 11.0994C72.4042 11.1061 72.0396 11.0365 71.7015 10.8906C71.3635 10.7448 71.09 10.5194 70.8812 10.2145C70.6724 9.90956 70.568 9.52675 70.568 9.06605V1.53409Z" fill="black"/>
</svg>
