<svg width="142" height="15" viewBox="0 0 142 15" fill="none" xmlns="http://www.w3.org/2000/svg">
<path d="M3.22159 11.169C2.73769 11.169 2.30019 11.0795 1.90909 10.9006C1.51799 10.7183 1.2081 10.4548 0.979403 10.1101C0.754025 9.76539 0.641335 9.3428 0.641335 8.84233C0.641335 8.41146 0.724195 8.05682 0.889915 7.77841C1.05563 7.5 1.27936 7.27959 1.56108 7.11719C1.8428 6.95478 2.15767 6.83215 2.50568 6.74929C2.85369 6.66643 3.20833 6.60346 3.5696 6.56037C4.02699 6.50734 4.3982 6.46425 4.68324 6.43111C4.96828 6.39465 5.17543 6.33665 5.30469 6.2571C5.43395 6.17756 5.49858 6.0483 5.49858 5.86932V5.83452C5.49858 5.40033 5.37595 5.06392 5.13068 4.82528C4.88873 4.58665 4.52746 4.46733 4.04688 4.46733C3.5464 4.46733 3.15199 4.57836 2.86364 4.80043C2.5786 5.01918 2.38139 5.26278 2.27202 5.53125L0.875 5.21307C1.04072 4.74905 1.28267 4.37453 1.60085 4.08949C1.92235 3.80114 2.2919 3.59233 2.70952 3.46307C3.12713 3.33049 3.56629 3.2642 4.02699 3.2642C4.33191 3.2642 4.65507 3.30066 4.99645 3.37358C5.34115 3.44318 5.66264 3.57244 5.96094 3.76136C6.26255 3.95028 6.50947 4.22041 6.7017 4.57173C6.89394 4.91974 6.99006 5.37216 6.99006 5.92898V11H5.53835V9.95597H5.47869C5.38258 10.1482 5.2384 10.3371 5.04616 10.5227C4.85393 10.7083 4.60701 10.8625 4.3054 10.9851C4.00379 11.1077 3.64252 11.169 3.22159 11.169ZM3.54474 9.97585C3.95573 9.97585 4.30706 9.89465 4.59872 9.73224C4.8937 9.56984 5.11742 9.35772 5.26989 9.09588C5.42566 8.83073 5.50355 8.54735 5.50355 8.24574V7.26136C5.45052 7.31439 5.34777 7.36411 5.19531 7.41051C5.04616 7.4536 4.87547 7.49171 4.68324 7.52486C4.491 7.55469 4.30374 7.58286 4.12145 7.60938C3.93916 7.63258 3.7867 7.65246 3.66406 7.66903C3.37571 7.70549 3.11222 7.76681 2.87358 7.85298C2.63826 7.93916 2.44934 8.06345 2.30682 8.22585C2.16761 8.38494 2.09801 8.59706 2.09801 8.86222C2.09801 9.23011 2.2339 9.50852 2.50568 9.69744C2.77746 9.88305 3.12382 9.97585 3.54474 9.97585ZM8.96999 11V3.36364H10.4068V4.5767H10.4863C10.6255 4.16572 10.8708 3.84257 11.2221 3.60724C11.5768 3.36861 11.9778 3.24929 12.4252 3.24929C12.5181 3.24929 12.6274 3.2526 12.7534 3.25923C12.8826 3.26586 12.9837 3.27415 13.0566 3.28409V4.70597C12.997 4.68939 12.8909 4.67116 12.7385 4.65128C12.586 4.62808 12.4335 4.61648 12.2811 4.61648C11.9297 4.61648 11.6165 4.69105 11.3414 4.8402C11.0697 4.98603 10.8542 5.18987 10.6951 5.4517C10.536 5.71023 10.4565 6.00521 10.4565 6.33665V11H8.96999ZM14.343 11V3.36364H15.7798V4.5767H15.8594C15.9986 4.16572 16.2438 3.84257 16.5952 3.60724C16.9498 3.36861 17.3509 3.24929 17.7983 3.24929C17.8911 3.24929 18.0005 3.2526 18.1264 3.25923C18.2557 3.26586 18.3568 3.27415 18.4297 3.28409V4.70597C18.37 4.68939 18.264 4.67116 18.1115 4.65128C17.959 4.62808 17.8066 4.61648 17.6541 4.61648C17.3028 4.61648 16.9896 4.69105 16.7145 4.8402C16.4427 4.98603 16.2273 5.18987 16.0682 5.4517C15.9091 5.71023 15.8295 6.00521 15.8295 6.33665V11H14.343ZM22.6593 11.1541C21.9434 11.1541 21.3186 10.9901 20.785 10.6619C20.2514 10.3338 19.8371 9.87476 19.5421 9.2848C19.2471 8.69484 19.0996 8.00544 19.0996 7.21662C19.0996 6.42448 19.2471 5.73177 19.5421 5.13849C19.8371 4.54522 20.2514 4.08452 20.785 3.75639C21.3186 3.42827 21.9434 3.2642 22.6593 3.2642C23.3752 3.2642 23.9999 3.42827 24.5336 3.75639C25.0672 4.08452 25.4815 4.54522 25.7765 5.13849C26.0714 5.73177 26.2189 6.42448 26.2189 7.21662C26.2189 8.00544 26.0714 8.69484 25.7765 9.2848C25.4815 9.87476 25.0672 10.3338 24.5336 10.6619C23.9999 10.9901 23.3752 11.1541 22.6593 11.1541ZM22.6642 9.90625C23.1283 9.90625 23.5127 9.78362 23.8176 9.53835C24.1226 9.29309 24.348 8.96662 24.4938 8.55895C24.6429 8.15128 24.7175 7.70218 24.7175 7.21165C24.7175 6.72443 24.6429 6.27699 24.4938 5.86932C24.348 5.45833 24.1226 5.12855 23.8176 4.87997C23.5127 4.63139 23.1283 4.5071 22.6642 4.5071C22.1969 4.5071 21.8091 4.63139 21.5009 4.87997C21.196 5.12855 20.9689 5.45833 20.8198 5.86932C20.6739 6.27699 20.601 6.72443 20.601 7.21165C20.601 7.70218 20.6739 8.15128 20.8198 8.55895C20.9689 8.96662 21.196 9.29309 21.5009 9.53835C21.8091 9.78362 22.1969 9.90625 22.6642 9.90625ZM29.3013 11L27.0542 3.36364H28.5904L30.0868 8.97159H30.1614L31.6628 3.36364H33.199L34.6905 8.94673H34.7651L36.2516 3.36364H37.7878L35.5456 11H34.0293L32.4782 5.48651H32.3638L30.8127 11H29.3013ZM43.6978 6.05327V7.34091H39.1836V6.05327H43.6978ZM48.8956 11.1541C48.1565 11.1541 47.5201 10.9867 46.9865 10.652C46.4562 10.3139 46.0485 9.84825 45.7635 9.25497C45.4785 8.66169 45.3359 7.98224 45.3359 7.21662C45.3359 6.44105 45.4818 5.75663 45.7734 5.16335C46.0651 4.56676 46.4761 4.10109 47.0064 3.76633C47.5367 3.43158 48.1615 3.2642 48.8807 3.2642C49.4607 3.2642 49.9777 3.37192 50.4318 3.58736C50.8859 3.79948 51.2521 4.09777 51.5305 4.48224C51.8123 4.86671 51.9796 5.31581 52.0327 5.82955H50.5859C50.5064 5.47159 50.3241 5.16335 50.0391 4.90483C49.7573 4.64631 49.3795 4.51705 48.9055 4.51705C48.4912 4.51705 48.1283 4.62642 47.8168 4.84517C47.5085 5.06061 47.2682 5.36884 47.0959 5.76989C46.9235 6.16761 46.8374 6.63826 46.8374 7.18182C46.8374 7.73864 46.9219 8.21922 47.0909 8.62358C47.2599 9.02794 47.4986 9.34115 47.8068 9.56321C48.1184 9.78527 48.4846 9.89631 48.9055 9.89631C49.1873 9.89631 49.4425 9.84493 49.6712 9.74219C49.9032 9.63613 50.0971 9.48532 50.2528 9.28977C50.4119 9.09422 50.523 8.8589 50.5859 8.58381H52.0327C51.9796 9.07765 51.8189 9.51847 51.5504 9.90625C51.282 10.294 50.9223 10.599 50.4716 10.821C50.0241 11.0431 49.4988 11.1541 48.8956 11.1541ZM53.6223 11V3.36364H55.1088V11H53.6223ZM54.373 2.18537C54.1145 2.18537 53.8925 2.09919 53.7069 1.92685C53.5246 1.75118 53.4334 1.54238 53.4334 1.30043C53.4334 1.05516 53.5246 0.846354 53.7069 0.674005C53.8925 0.498342 54.1145 0.410511 54.373 0.410511C54.6316 0.410511 54.852 0.498342 55.0343 0.674005C55.2199 0.846354 55.3127 1.05516 55.3127 1.30043C55.3127 1.54238 55.2199 1.75118 55.0343 1.92685C54.852 2.09919 54.6316 2.18537 54.373 2.18537ZM57.1087 11V3.36364H58.5455V4.5767H58.625C58.7642 4.16572 59.0095 3.84257 59.3608 3.60724C59.7154 3.36861 60.1165 3.24929 60.5639 3.24929C60.6567 3.24929 60.7661 3.2526 60.892 3.25923C61.0213 3.26586 61.1224 3.27415 61.1953 3.28409V4.70597C61.1357 4.68939 61.0296 4.67116 60.8771 4.65128C60.7247 4.62808 60.5722 4.61648 60.4197 4.61648C60.0684 4.61648 59.7552 4.69105 59.4801 4.8402C59.2083 4.98603 58.9929 5.18987 58.8338 5.4517C58.6747 5.71023 58.5952 6.00521 58.5952 6.33665V11H57.1087ZM65.4249 11.1541C64.6858 11.1541 64.0494 10.9867 63.5158 10.652C62.9855 10.3139 62.5778 9.84825 62.2928 9.25497C62.0078 8.66169 61.8652 7.98224 61.8652 7.21662C61.8652 6.44105 62.0111 5.75663 62.3027 5.16335C62.5944 4.56676 63.0054 4.10109 63.5357 3.76633C64.066 3.43158 64.6908 3.2642 65.41 3.2642C65.99 3.2642 66.507 3.37192 66.9611 3.58736C67.4152 3.79948 67.7814 4.09777 68.0598 4.48224C68.3416 4.86671 68.5089 5.31581 68.562 5.82955H67.1152C67.0357 5.47159 66.8534 5.16335 66.5684 4.90483C66.2866 4.64631 65.9088 4.51705 65.4348 4.51705C65.0205 4.51705 64.6576 4.62642 64.3461 4.84517C64.0378 5.06061 63.7975 5.36884 63.6252 5.76989C63.4528 6.16761 63.3667 6.63826 63.3667 7.18182C63.3667 7.73864 63.4512 8.21922 63.6202 8.62358C63.7892 9.02794 64.0279 9.34115 64.3361 9.56321C64.6477 9.78527 65.0139 9.89631 65.4348 9.89631C65.7166 9.89631 65.9718 9.84493 66.2005 9.74219C66.4325 9.63613 66.6264 9.48532 66.7821 9.28977C66.9412 9.09422 67.0523 8.8589 67.1152 8.58381H68.562C68.5089 9.07765 68.3482 9.51847 68.0797 9.90625C67.8113 10.294 67.4516 10.599 67.0009 10.821C66.5534 11.0431 66.0281 11.1541 65.4249 11.1541ZM71.6381 0.818182V11H70.1516V0.818182H71.6381ZM76.9292 11.1541C76.1768 11.1541 75.5288 10.9934 74.9853 10.6719C74.445 10.3471 74.0274 9.89134 73.7324 9.30469C73.4408 8.71473 73.2949 8.02367 73.2949 7.23153C73.2949 6.44934 73.4408 5.75994 73.7324 5.16335C74.0274 4.56676 74.4384 4.10109 74.9654 3.76633C75.4957 3.43158 76.1155 3.2642 76.8248 3.2642C77.2556 3.2642 77.6732 3.33546 78.0776 3.47798C78.4819 3.6205 78.8449 3.84422 79.1664 4.14915C79.4879 4.45407 79.7414 4.85014 79.927 5.33736C80.1126 5.82126 80.2054 6.40956 80.2054 7.10227V7.62926H74.1351V6.51562H78.7488C78.7488 6.12453 78.6692 5.77817 78.5101 5.47656C78.351 5.17164 78.1273 4.93134 77.839 4.75568C77.5539 4.58002 77.2192 4.49219 76.8347 4.49219C76.4171 4.49219 76.0525 4.59493 75.7409 4.80043C75.4327 5.0026 75.1941 5.26776 75.025 5.59588C74.8593 5.92069 74.7765 6.27367 74.7765 6.65483V7.52486C74.7765 8.03527 74.8659 8.46946 75.0449 8.82741C75.2272 9.18537 75.4808 9.45881 75.8056 9.64773C76.1304 9.83333 76.5099 9.92614 76.9441 9.92614C77.2258 9.92614 77.4827 9.88636 77.7147 9.80682C77.9467 9.72396 78.1472 9.60133 78.3162 9.43892C78.4853 9.27652 78.6145 9.07599 78.704 8.83736L80.111 9.09091C79.9983 9.50521 79.7961 9.86813 79.5044 10.1797C79.2161 10.4879 78.8532 10.7282 78.4157 10.9006C77.9815 11.0696 77.486 11.1541 76.9292 11.1541ZM86.354 6.05327V7.34091H81.8398V6.05327H86.354ZM93.1726 7.8331V3.36364H94.6641V11H93.2024V9.67756H93.1229C92.9472 10.0852 92.6655 10.425 92.2777 10.6967C91.8932 10.9652 91.4143 11.0994 90.8409 11.0994C90.3504 11.0994 89.9162 10.9917 89.5384 10.7763C89.1638 10.5575 88.8688 10.2344 88.6534 9.80682C88.4413 9.37926 88.3352 8.85062 88.3352 8.22088V3.36364H89.8217V8.0419C89.8217 8.56226 89.9659 8.97656 90.2543 9.2848C90.5426 9.59304 90.9171 9.74716 91.3778 9.74716C91.6563 9.74716 91.933 9.67756 92.2081 9.53835C92.4865 9.39915 92.7169 9.18868 92.8991 8.90696C93.0848 8.62524 93.1759 8.26728 93.1726 7.8331ZM96.6614 13.8636V3.36364H98.1131V4.60156H98.2374C98.3236 4.44247 98.4479 4.25852 98.6103 4.04972C98.7727 3.84091 98.998 3.65862 99.2864 3.50284C99.5748 3.34375 99.9559 3.2642 100.43 3.2642C101.046 3.2642 101.597 3.41998 102.08 3.73153C102.564 4.04309 102.944 4.49219 103.219 5.07884C103.497 5.66548 103.637 6.37145 103.637 7.19673C103.637 8.02202 103.499 8.72964 103.224 9.3196C102.949 9.90625 102.571 10.3587 102.09 10.6768C101.61 10.9917 101.061 11.1491 100.445 11.1491C99.9808 11.1491 99.6013 11.0713 99.3063 10.9155C99.0146 10.7597 98.7859 10.5774 98.6202 10.3686C98.4545 10.1598 98.3269 9.9742 98.2374 9.81179H98.1479V13.8636H96.6614ZM98.1181 7.18182C98.1181 7.71875 98.196 8.18939 98.3517 8.59375C98.5075 8.99811 98.7329 9.31463 99.0279 9.54332C99.3229 9.7687 99.6841 9.88139 100.112 9.88139C100.556 9.88139 100.927 9.76373 101.225 9.52841C101.524 9.28977 101.749 8.96662 101.901 8.55895C102.057 8.15128 102.135 7.69223 102.135 7.18182C102.135 6.67803 102.059 6.22562 101.906 5.82457C101.757 5.42353 101.532 5.10701 101.23 4.875C100.932 4.64299 100.559 4.52699 100.112 4.52699C99.6808 4.52699 99.3162 4.63802 99.0179 4.86009C98.723 5.08215 98.4992 5.39205 98.3468 5.78977C98.1943 6.1875 98.1181 6.65151 98.1181 7.18182ZM109.801 6.05327V7.34091H105.287V6.05327H109.801ZM111.782 11V3.36364H113.219V4.5767H113.299C113.438 4.16572 113.683 3.84257 114.035 3.60724C114.389 3.36861 114.79 3.24929 115.238 3.24929C115.331 3.24929 115.44 3.2526 115.566 3.25923C115.695 3.26586 115.796 3.27415 115.869 3.28409V4.70597C115.809 4.68939 115.703 4.67116 115.551 4.65128C115.398 4.62808 115.246 4.61648 115.094 4.61648C114.742 4.61648 114.429 4.69105 114.154 4.8402C113.882 4.98603 113.667 5.18987 113.508 5.4517C113.349 5.71023 113.269 6.00521 113.269 6.33665V11H111.782ZM117.156 11V3.36364H118.642V11H117.156ZM117.906 2.18537C117.648 2.18537 117.426 2.09919 117.24 1.92685C117.058 1.75118 116.967 1.54238 116.967 1.30043C116.967 1.05516 117.058 0.846354 117.24 0.674005C117.426 0.498342 117.648 0.410511 117.906 0.410511C118.165 0.410511 118.385 0.498342 118.567 0.674005C118.753 0.846354 118.846 1.05516 118.846 1.30043C118.846 1.54238 118.753 1.75118 118.567 1.92685C118.385 2.09919 118.165 2.18537 117.906 2.18537ZM123.844 14.0227C123.237 14.0227 122.715 13.9432 122.278 13.7841C121.843 13.625 121.489 13.4145 121.214 13.1527C120.939 12.8909 120.733 12.6042 120.597 12.2926L121.875 11.7656C121.964 11.9115 122.084 12.0656 122.233 12.228C122.385 12.3937 122.591 12.5346 122.849 12.6506C123.111 12.7666 123.448 12.8246 123.858 12.8246C124.422 12.8246 124.888 12.687 125.256 12.4119C125.623 12.1402 125.807 11.706 125.807 11.1094V9.60795H125.713C125.623 9.77036 125.494 9.95099 125.325 10.1499C125.159 10.3487 124.931 10.5211 124.639 10.6669C124.347 10.8127 123.968 10.8857 123.501 10.8857C122.897 10.8857 122.354 10.7448 121.87 10.4631C121.389 10.178 121.008 9.75876 120.726 9.20526C120.448 8.64844 120.309 7.96401 120.309 7.15199C120.309 6.33996 120.446 5.64394 120.721 5.06392C121 4.4839 121.381 4.03977 121.865 3.73153C122.349 3.41998 122.897 3.2642 123.51 3.2642C123.984 3.2642 124.367 3.34375 124.659 3.50284C124.951 3.65862 125.178 3.84091 125.34 4.04972C125.506 4.25852 125.633 4.44247 125.723 4.60156H125.832V3.36364H127.289V11.169C127.289 11.8253 127.136 12.3639 126.831 12.7848C126.527 13.2057 126.114 13.5173 125.594 13.7195C125.077 13.9216 124.493 14.0227 123.844 14.0227ZM123.829 9.6527C124.256 9.6527 124.617 9.55327 124.912 9.3544C125.211 9.15223 125.436 8.86387 125.589 8.48935C125.744 8.11151 125.822 7.65909 125.822 7.1321C125.822 6.61837 125.746 6.16596 125.594 5.77486C125.441 5.38376 125.217 5.07884 124.922 4.86009C124.627 4.63802 124.263 4.52699 123.829 4.52699C123.381 4.52699 123.008 4.64299 122.71 4.875C122.412 5.10369 122.186 5.41525 122.034 5.80966C121.885 6.20407 121.81 6.64489 121.81 7.1321C121.81 7.63258 121.886 8.07173 122.039 8.44957C122.191 8.82741 122.417 9.1224 122.715 9.33452C123.017 9.54664 123.388 9.6527 123.829 9.6527ZM130.769 6.46591V11H129.282V0.818182H130.749V4.60653H130.844C131.023 4.19555 131.296 3.86908 131.664 3.62713C132.032 3.38518 132.512 3.2642 133.106 3.2642C133.629 3.2642 134.087 3.37192 134.478 3.58736C134.872 3.80279 135.177 4.12429 135.393 4.55185C135.611 4.97609 135.721 5.50639 135.721 6.14276V11H134.234V6.32173C134.234 5.7616 134.09 5.32741 133.802 5.01918C133.513 4.70762 133.112 4.55185 132.599 4.55185C132.247 4.55185 131.932 4.62642 131.654 4.77557C131.379 4.92472 131.162 5.14347 131.003 5.43182C130.847 5.71686 130.769 6.06155 130.769 6.46591ZM141.269 3.36364V4.55682H137.098V3.36364H141.269ZM138.216 1.53409H139.703V8.75781C139.703 9.04616 139.746 9.26326 139.832 9.40909C139.918 9.55161 140.029 9.64938 140.165 9.70241C140.305 9.75213 140.455 9.77699 140.618 9.77699C140.737 9.77699 140.841 9.7687 140.931 9.75213C141.02 9.73556 141.09 9.7223 141.14 9.71236L141.408 10.9403C141.322 10.9735 141.199 11.0066 141.04 11.0398C140.881 11.0762 140.682 11.0961 140.444 11.0994C140.053 11.1061 139.688 11.0365 139.35 10.8906C139.012 10.7448 138.738 10.5194 138.53 10.2145C138.321 9.90956 138.216 9.52675 138.216 9.06605V1.53409Z" fill="black"/>
</svg>
