<svg width="186" height="14" viewBox="0 0 186 14" fill="none" xmlns="http://www.w3.org/2000/svg">
<path d="M3.22159 11.169C2.73769 11.169 2.30019 11.0795 1.90909 10.9006C1.51799 10.7183 1.2081 10.4548 0.979403 10.1101C0.754025 9.76539 0.641335 9.3428 0.641335 8.84233C0.641335 8.41146 0.724195 8.05682 0.889915 7.77841C1.05563 7.5 1.27936 7.27959 1.56108 7.11719C1.8428 6.95478 2.15767 6.83215 2.50568 6.74929C2.85369 6.66643 3.20833 6.60346 3.5696 6.56037C4.02699 6.50734 4.3982 6.46425 4.68324 6.43111C4.96828 6.39465 5.17543 6.33665 5.30469 6.2571C5.43395 6.17756 5.49858 6.0483 5.49858 5.86932V5.83452C5.49858 5.40033 5.37595 5.06392 5.13068 4.82528C4.88873 4.58665 4.52746 4.46733 4.04688 4.46733C3.5464 4.46733 3.15199 4.57836 2.86364 4.80043C2.5786 5.01918 2.38139 5.26278 2.27202 5.53125L0.875 5.21307C1.04072 4.74905 1.28267 4.37453 1.60085 4.08949C1.92235 3.80114 2.2919 3.59233 2.70952 3.46307C3.12713 3.33049 3.56629 3.2642 4.02699 3.2642C4.33191 3.2642 4.65507 3.30066 4.99645 3.37358C5.34115 3.44318 5.66264 3.57244 5.96094 3.76136C6.26255 3.95028 6.50947 4.22041 6.7017 4.57173C6.89394 4.91974 6.99006 5.37216 6.99006 5.92898V11H5.53835V9.95597H5.47869C5.38258 10.1482 5.2384 10.3371 5.04616 10.5227C4.85393 10.7083 4.60701 10.8625 4.3054 10.9851C4.00379 11.1077 3.64252 11.169 3.22159 11.169ZM3.54474 9.97585C3.95573 9.97585 4.30706 9.89465 4.59872 9.73224C4.8937 9.56984 5.11742 9.35772 5.26989 9.09588C5.42566 8.83073 5.50355 8.54735 5.50355 8.24574V7.26136C5.45052 7.31439 5.34777 7.36411 5.19531 7.41051C5.04616 7.4536 4.87547 7.49171 4.68324 7.52486C4.491 7.55469 4.30374 7.58286 4.12145 7.60938C3.93916 7.63258 3.7867 7.65246 3.66406 7.66903C3.37571 7.70549 3.11222 7.76681 2.87358 7.85298C2.63826 7.93916 2.44934 8.06345 2.30682 8.22585C2.16761 8.38494 2.09801 8.59706 2.09801 8.86222C2.09801 9.23011 2.2339 9.50852 2.50568 9.69744C2.77746 9.88305 3.12382 9.97585 3.54474 9.97585ZM8.96999 11V3.36364H10.4068V4.5767H10.4863C10.6255 4.16572 10.8708 3.84257 11.2221 3.60724C11.5768 3.36861 11.9778 3.24929 12.4252 3.24929C12.5181 3.24929 12.6274 3.2526 12.7534 3.25923C12.8826 3.26586 12.9837 3.27415 13.0566 3.28409V4.70597C12.997 4.68939 12.8909 4.67116 12.7385 4.65128C12.586 4.62808 12.4335 4.61648 12.2811 4.61648C11.9297 4.61648 11.6165 4.69105 11.3414 4.8402C11.0697 4.98603 10.8542 5.18987 10.6951 5.4517C10.536 5.71023 10.4565 6.00521 10.4565 6.33665V11H8.96999ZM14.343 11V3.36364H15.7798V4.5767H15.8594C15.9986 4.16572 16.2438 3.84257 16.5952 3.60724C16.9498 3.36861 17.3509 3.24929 17.7983 3.24929C17.8911 3.24929 18.0005 3.2526 18.1264 3.25923C18.2557 3.26586 18.3568 3.27415 18.4297 3.28409V4.70597C18.37 4.68939 18.264 4.67116 18.1115 4.65128C17.959 4.62808 17.8066 4.61648 17.6541 4.61648C17.3028 4.61648 16.9896 4.69105 16.7145 4.8402C16.4427 4.98603 16.2273 5.18987 16.0682 5.4517C15.9091 5.71023 15.8295 6.00521 15.8295 6.33665V11H14.343ZM22.6593 11.1541C21.9434 11.1541 21.3186 10.9901 20.785 10.6619C20.2514 10.3338 19.8371 9.87476 19.5421 9.2848C19.2471 8.69484 19.0996 8.00544 19.0996 7.21662C19.0996 6.42448 19.2471 5.73177 19.5421 5.13849C19.8371 4.54522 20.2514 4.08452 20.785 3.75639C21.3186 3.42827 21.9434 3.2642 22.6593 3.2642C23.3752 3.2642 23.9999 3.42827 24.5336 3.75639C25.0672 4.08452 25.4815 4.54522 25.7765 5.13849C26.0714 5.73177 26.2189 6.42448 26.2189 7.21662C26.2189 8.00544 26.0714 8.69484 25.7765 9.2848C25.4815 9.87476 25.0672 10.3338 24.5336 10.6619C23.9999 10.9901 23.3752 11.1541 22.6593 11.1541ZM22.6642 9.90625C23.1283 9.90625 23.5127 9.78362 23.8176 9.53835C24.1226 9.29309 24.348 8.96662 24.4938 8.55895C24.6429 8.15128 24.7175 7.70218 24.7175 7.21165C24.7175 6.72443 24.6429 6.27699 24.4938 5.86932C24.348 5.45833 24.1226 5.12855 23.8176 4.87997C23.5127 4.63139 23.1283 4.5071 22.6642 4.5071C22.1969 4.5071 21.8091 4.63139 21.5009 4.87997C21.196 5.12855 20.9689 5.45833 20.8198 5.86932C20.6739 6.27699 20.601 6.72443 20.601 7.21165C20.601 7.70218 20.6739 8.15128 20.8198 8.55895C20.9689 8.96662 21.196 9.29309 21.5009 9.53835C21.8091 9.78362 22.1969 9.90625 22.6642 9.90625ZM29.3013 11L27.0542 3.36364H28.5904L30.0868 8.97159H30.1614L31.6628 3.36364H33.199L34.6905 8.94673H34.7651L36.2516 3.36364H37.7878L35.5456 11H34.0293L32.4782 5.48651H32.3638L30.8127 11H29.3013ZM43.6978 6.05327V7.34091H39.1836V6.05327H43.6978ZM48.8956 11.1541C48.1565 11.1541 47.5201 10.9867 46.9865 10.652C46.4562 10.3139 46.0485 9.84825 45.7635 9.25497C45.4785 8.66169 45.3359 7.98224 45.3359 7.21662C45.3359 6.44105 45.4818 5.75663 45.7734 5.16335C46.0651 4.56676 46.4761 4.10109 47.0064 3.76633C47.5367 3.43158 48.1615 3.2642 48.8807 3.2642C49.4607 3.2642 49.9777 3.37192 50.4318 3.58736C50.8859 3.79948 51.2521 4.09777 51.5305 4.48224C51.8123 4.86671 51.9796 5.31581 52.0327 5.82955H50.5859C50.5064 5.47159 50.3241 5.16335 50.0391 4.90483C49.7573 4.64631 49.3795 4.51705 48.9055 4.51705C48.4912 4.51705 48.1283 4.62642 47.8168 4.84517C47.5085 5.06061 47.2682 5.36884 47.0959 5.76989C46.9235 6.16761 46.8374 6.63826 46.8374 7.18182C46.8374 7.73864 46.9219 8.21922 47.0909 8.62358C47.2599 9.02794 47.4986 9.34115 47.8068 9.56321C48.1184 9.78527 48.4846 9.89631 48.9055 9.89631C49.1873 9.89631 49.4425 9.84493 49.6712 9.74219C49.9032 9.63613 50.0971 9.48532 50.2528 9.28977C50.4119 9.09422 50.523 8.8589 50.5859 8.58381H52.0327C51.9796 9.07765 51.8189 9.51847 51.5504 9.90625C51.282 10.294 50.9223 10.599 50.4716 10.821C50.0241 11.0431 49.4988 11.1541 48.8956 11.1541ZM53.6223 11V3.36364H55.1088V11H53.6223ZM54.373 2.18537C54.1145 2.18537 53.8925 2.09919 53.7069 1.92685C53.5246 1.75118 53.4334 1.54238 53.4334 1.30043C53.4334 1.05516 53.5246 0.846354 53.7069 0.674005C53.8925 0.498342 54.1145 0.410511 54.373 0.410511C54.6316 0.410511 54.852 0.498342 55.0343 0.674005C55.2199 0.846354 55.3127 1.05516 55.3127 1.30043C55.3127 1.54238 55.2199 1.75118 55.0343 1.92685C54.852 2.09919 54.6316 2.18537 54.373 2.18537ZM57.1087 11V3.36364H58.5455V4.5767H58.625C58.7642 4.16572 59.0095 3.84257 59.3608 3.60724C59.7154 3.36861 60.1165 3.24929 60.5639 3.24929C60.6567 3.24929 60.7661 3.2526 60.892 3.25923C61.0213 3.26586 61.1224 3.27415 61.1953 3.28409V4.70597C61.1357 4.68939 61.0296 4.67116 60.8771 4.65128C60.7247 4.62808 60.5722 4.61648 60.4197 4.61648C60.0684 4.61648 59.7552 4.69105 59.4801 4.8402C59.2083 4.98603 58.9929 5.18987 58.8338 5.4517C58.6747 5.71023 58.5952 6.00521 58.5952 6.33665V11H57.1087ZM65.4249 11.1541C64.6858 11.1541 64.0494 10.9867 63.5158 10.652C62.9855 10.3139 62.5778 9.84825 62.2928 9.25497C62.0078 8.66169 61.8652 7.98224 61.8652 7.21662C61.8652 6.44105 62.0111 5.75663 62.3027 5.16335C62.5944 4.56676 63.0054 4.10109 63.5357 3.76633C64.066 3.43158 64.6908 3.2642 65.41 3.2642C65.99 3.2642 66.507 3.37192 66.9611 3.58736C67.4152 3.79948 67.7814 4.09777 68.0598 4.48224C68.3416 4.86671 68.5089 5.31581 68.562 5.82955H67.1152C67.0357 5.47159 66.8534 5.16335 66.5684 4.90483C66.2866 4.64631 65.9088 4.51705 65.4348 4.51705C65.0205 4.51705 64.6576 4.62642 64.3461 4.84517C64.0378 5.06061 63.7975 5.36884 63.6252 5.76989C63.4528 6.16761 63.3667 6.63826 63.3667 7.18182C63.3667 7.73864 63.4512 8.21922 63.6202 8.62358C63.7892 9.02794 64.0279 9.34115 64.3361 9.56321C64.6477 9.78527 65.0139 9.89631 65.4348 9.89631C65.7166 9.89631 65.9718 9.84493 66.2005 9.74219C66.4325 9.63613 66.6264 9.48532 66.7821 9.28977C66.9412 9.09422 67.0523 8.8589 67.1152 8.58381H68.562C68.5089 9.07765 68.3482 9.51847 68.0797 9.90625C67.8113 10.294 67.4516 10.599 67.0009 10.821C66.5534 11.0431 66.0281 11.1541 65.4249 11.1541ZM71.6381 0.818182V11H70.1516V0.818182H71.6381ZM76.9292 11.1541C76.1768 11.1541 75.5288 10.9934 74.9853 10.6719C74.445 10.3471 74.0274 9.89134 73.7324 9.30469C73.4408 8.71473 73.2949 8.02367 73.2949 7.23153C73.2949 6.44934 73.4408 5.75994 73.7324 5.16335C74.0274 4.56676 74.4384 4.10109 74.9654 3.76633C75.4957 3.43158 76.1155 3.2642 76.8248 3.2642C77.2556 3.2642 77.6732 3.33546 78.0776 3.47798C78.4819 3.6205 78.8449 3.84422 79.1664 4.14915C79.4879 4.45407 79.7414 4.85014 79.927 5.33736C80.1126 5.82126 80.2054 6.40956 80.2054 7.10227V7.62926H74.1351V6.51562H78.7488C78.7488 6.12453 78.6692 5.77817 78.5101 5.47656C78.351 5.17164 78.1273 4.93134 77.839 4.75568C77.5539 4.58002 77.2192 4.49219 76.8347 4.49219C76.4171 4.49219 76.0525 4.59493 75.7409 4.80043C75.4327 5.0026 75.1941 5.26776 75.025 5.59588C74.8593 5.92069 74.7765 6.27367 74.7765 6.65483V7.52486C74.7765 8.03527 74.8659 8.46946 75.0449 8.82741C75.2272 9.18537 75.4808 9.45881 75.8056 9.64773C76.1304 9.83333 76.5099 9.92614 76.9441 9.92614C77.2258 9.92614 77.4827 9.88636 77.7147 9.80682C77.9467 9.72396 78.1472 9.60133 78.3162 9.43892C78.4853 9.27652 78.6145 9.07599 78.704 8.83736L80.111 9.09091C79.9983 9.50521 79.7961 9.86813 79.5044 10.1797C79.2161 10.4879 78.8532 10.7282 78.4157 10.9006C77.9815 11.0696 77.486 11.1541 76.9292 11.1541ZM86.354 6.05327V7.34091H81.8398V6.05327H86.354ZM88.4545 11V0.818182H89.9411V4.60156H90.0305C90.1167 4.44247 90.241 4.25852 90.4034 4.04972C90.5658 3.84091 90.7912 3.65862 91.0795 3.50284C91.3679 3.34375 91.7491 3.2642 92.223 3.2642C92.8395 3.2642 93.3897 3.41998 93.8736 3.73153C94.3575 4.04309 94.737 4.49219 95.0121 5.07884C95.2905 5.66548 95.4297 6.37145 95.4297 7.19673C95.4297 8.02202 95.2921 8.72964 95.017 9.3196C94.742 9.90625 94.3641 10.3587 93.8835 10.6768C93.4029 10.9917 92.8544 11.1491 92.2379 11.1491C91.7739 11.1491 91.3944 11.0713 91.0994 10.9155C90.8078 10.7597 90.5791 10.5774 90.4134 10.3686C90.2476 10.1598 90.12 9.9742 90.0305 9.81179H89.9062V11H88.4545ZM89.9112 7.18182C89.9112 7.71875 89.9891 8.18939 90.1449 8.59375C90.3007 8.99811 90.526 9.31463 90.821 9.54332C91.116 9.7687 91.4773 9.88139 91.9048 9.88139C92.349 9.88139 92.7202 9.76373 93.0185 9.52841C93.3168 9.28977 93.5421 8.96662 93.6946 8.55895C93.8504 8.15128 93.9283 7.69223 93.9283 7.18182C93.9283 6.67803 93.852 6.22562 93.6996 5.82457C93.5504 5.42353 93.325 5.10701 93.0234 4.875C92.7251 4.64299 92.3523 4.52699 91.9048 4.52699C91.474 4.52699 91.1094 4.63802 90.8111 4.86009C90.5161 5.08215 90.2924 5.39205 90.1399 5.78977C89.9875 6.1875 89.9112 6.65151 89.9112 7.18182ZM97.0989 11V3.36364H98.5357V4.5767H98.6152C98.7544 4.16572 98.9997 3.84257 99.351 3.60724C99.7057 3.36861 100.107 3.24929 100.554 3.24929C100.647 3.24929 100.756 3.2526 100.882 3.25923C101.012 3.26586 101.113 3.27415 101.186 3.28409V4.70597C101.126 4.68939 101.02 4.67116 100.867 4.65128C100.715 4.62808 100.562 4.61648 100.41 4.61648C100.059 4.61648 99.7454 4.69105 99.4703 4.8402C99.1986 4.98603 98.9831 5.18987 98.824 5.4517C98.665 5.71023 98.5854 6.00521 98.5854 6.33665V11H97.0989ZM105.415 11.1541C104.699 11.1541 104.074 10.9901 103.541 10.6619C103.007 10.3338 102.593 9.87476 102.298 9.2848C102.003 8.69484 101.855 8.00544 101.855 7.21662C101.855 6.42448 102.003 5.73177 102.298 5.13849C102.593 4.54522 103.007 4.08452 103.541 3.75639C104.074 3.42827 104.699 3.2642 105.415 3.2642C106.131 3.2642 106.756 3.42827 107.289 3.75639C107.823 4.08452 108.237 4.54522 108.532 5.13849C108.827 5.73177 108.975 6.42448 108.975 7.21662C108.975 8.00544 108.827 8.69484 108.532 9.2848C108.237 9.87476 107.823 10.3338 107.289 10.6619C106.756 10.9901 106.131 11.1541 105.415 11.1541ZM105.42 9.90625C105.884 9.90625 106.269 9.78362 106.574 9.53835C106.878 9.29309 107.104 8.96662 107.25 8.55895C107.399 8.15128 107.473 7.70218 107.473 7.21165C107.473 6.72443 107.399 6.27699 107.25 5.86932C107.104 5.45833 106.878 5.12855 106.574 4.87997C106.269 4.63139 105.884 4.5071 105.42 4.5071C104.953 4.5071 104.565 4.63139 104.257 4.87997C103.952 5.12855 103.725 5.45833 103.576 5.86932C103.43 6.27699 103.357 6.72443 103.357 7.21165C103.357 7.70218 103.43 8.15128 103.576 8.55895C103.725 8.96662 103.952 9.29309 104.257 9.53835C104.565 9.78362 104.953 9.90625 105.42 9.90625ZM112.001 8.4098L111.991 6.59517H112.25L115.292 3.36364H117.072L113.602 7.04261H113.368L112.001 8.4098ZM110.634 11V0.818182H112.121V11H110.634ZM115.456 11L112.722 7.37074L113.746 6.33168L117.281 11H115.456ZM121.404 11.1541C120.651 11.1541 120.003 10.9934 119.46 10.6719C118.92 10.3471 118.502 9.89134 118.207 9.30469C117.915 8.71473 117.77 8.02367 117.77 7.23153C117.77 6.44934 117.915 5.75994 118.207 5.16335C118.502 4.56676 118.913 4.10109 119.44 3.76633C119.97 3.43158 120.59 3.2642 121.299 3.2642C121.73 3.2642 122.148 3.33546 122.552 3.47798C122.957 3.6205 123.319 3.84422 123.641 4.14915C123.962 4.45407 124.216 4.85014 124.402 5.33736C124.587 5.82126 124.68 6.40956 124.68 7.10227V7.62926H118.61V6.51562H123.223C123.223 6.12453 123.144 5.77817 122.985 5.47656C122.826 5.17164 122.602 4.93134 122.314 4.75568C122.029 4.58002 121.694 4.49219 121.309 4.49219C120.892 4.49219 120.527 4.59493 120.216 4.80043C119.907 5.0026 119.669 5.26776 119.5 5.59588C119.334 5.92069 119.251 6.27367 119.251 6.65483V7.52486C119.251 8.03527 119.341 8.46946 119.52 8.82741C119.702 9.18537 119.955 9.45881 120.28 9.64773C120.605 9.83333 120.984 9.92614 121.419 9.92614C121.7 9.92614 121.957 9.88636 122.189 9.80682C122.421 9.72396 122.622 9.60133 122.791 9.43892C122.96 9.27652 123.089 9.07599 123.179 8.83736L124.586 9.09091C124.473 9.50521 124.271 9.86813 123.979 10.1797C123.691 10.4879 123.328 10.7282 122.89 10.9006C122.456 11.0696 121.961 11.1541 121.404 11.1541ZM127.816 6.46591V11H126.329V3.36364H127.756V4.60653H127.851C128.026 4.20218 128.301 3.87737 128.676 3.6321C129.054 3.38684 129.529 3.2642 130.103 3.2642C130.623 3.2642 131.079 3.37358 131.47 3.59233C131.861 3.80777 132.164 4.12926 132.38 4.55682C132.595 4.98437 132.703 5.51302 132.703 6.14276V11H131.216V6.32173C131.216 5.76823 131.072 5.3357 130.784 5.02415C130.496 4.70928 130.099 4.55185 129.596 4.55185C129.251 4.55185 128.944 4.62642 128.676 4.77557C128.411 4.92472 128.2 5.14347 128.045 5.43182C127.892 5.71686 127.816 6.06155 127.816 6.46591ZM139.196 6.05327V7.34091H134.682V6.05327H139.196ZM146.014 7.8331V3.36364H147.506V11H146.044V9.67756H145.965C145.789 10.0852 145.507 10.425 145.119 10.6967C144.735 10.9652 144.256 11.0994 143.683 11.0994C143.192 11.0994 142.758 10.9917 142.38 10.7763C142.006 10.5575 141.711 10.2344 141.495 9.80682C141.283 9.37926 141.177 8.85062 141.177 8.22088V3.36364H142.664V8.0419C142.664 8.56226 142.808 8.97656 143.096 9.2848C143.384 9.59304 143.759 9.74716 144.22 9.74716C144.498 9.74716 144.775 9.67756 145.05 9.53835C145.328 9.39915 145.559 9.18868 145.741 8.90696C145.927 8.62524 146.018 8.26728 146.014 7.8331ZM149.503 13.8636V3.36364H150.955V4.60156H151.079C151.165 4.44247 151.29 4.25852 151.452 4.04972C151.614 3.84091 151.84 3.65862 152.128 3.50284C152.417 3.34375 152.798 3.2642 153.272 3.2642C153.888 3.2642 154.438 3.41998 154.922 3.73153C155.406 4.04309 155.786 4.49219 156.061 5.07884C156.339 5.66548 156.478 6.37145 156.478 7.19673C156.478 8.02202 156.341 8.72964 156.066 9.3196C155.791 9.90625 155.413 10.3587 154.932 10.6768C154.452 10.9917 153.903 11.1491 153.287 11.1491C152.823 11.1491 152.443 11.0713 152.148 10.9155C151.856 10.7597 151.628 10.5774 151.462 10.3686C151.296 10.1598 151.169 9.9742 151.079 9.81179H150.99V13.8636H149.503ZM150.96 7.18182C150.96 7.71875 151.038 8.18939 151.194 8.59375C151.349 8.99811 151.575 9.31463 151.87 9.54332C152.165 9.7687 152.526 9.88139 152.953 9.88139C153.398 9.88139 153.769 9.76373 154.067 9.52841C154.365 9.28977 154.591 8.96662 154.743 8.55895C154.899 8.15128 154.977 7.69223 154.977 7.18182C154.977 6.67803 154.901 6.22562 154.748 5.82457C154.599 5.42353 154.374 5.10701 154.072 4.875C153.774 4.64299 153.401 4.52699 152.953 4.52699C152.523 4.52699 152.158 4.63802 151.86 4.86009C151.565 5.08215 151.341 5.39205 151.189 5.78977C151.036 6.1875 150.96 6.65151 150.96 7.18182ZM162.643 6.05327V7.34091H158.129V6.05327H162.643ZM166.111 0.818182V11H164.624V0.818182H166.111ZM171.402 11.1541C170.649 11.1541 170.001 10.9934 169.458 10.6719C168.918 10.3471 168.5 9.89134 168.205 9.30469C167.913 8.71473 167.768 8.02367 167.768 7.23153C167.768 6.44934 167.913 5.75994 168.205 5.16335C168.5 4.56676 168.911 4.10109 169.438 3.76633C169.968 3.43158 170.588 3.2642 171.297 3.2642C171.728 3.2642 172.146 3.33546 172.55 3.47798C172.955 3.6205 173.318 3.84422 173.639 4.14915C173.961 4.45407 174.214 4.85014 174.4 5.33736C174.585 5.82126 174.678 6.40956 174.678 7.10227V7.62926H168.608V6.51562H173.221C173.221 6.12453 173.142 5.77817 172.983 5.47656C172.824 5.17164 172.6 4.93134 172.312 4.75568C172.027 4.58002 171.692 4.49219 171.307 4.49219C170.89 4.49219 170.525 4.59493 170.214 4.80043C169.905 5.0026 169.667 5.26776 169.498 5.59588C169.332 5.92069 169.249 6.27367 169.249 6.65483V7.52486C169.249 8.03527 169.339 8.46946 169.518 8.82741C169.7 9.18537 169.953 9.45881 170.278 9.64773C170.603 9.83333 170.983 9.92614 171.417 9.92614C171.698 9.92614 171.955 9.88636 172.187 9.80682C172.419 9.72396 172.62 9.60133 172.789 9.43892C172.958 9.27652 173.087 9.07599 173.177 8.83736L174.584 9.09091C174.471 9.50521 174.269 9.86813 173.977 10.1797C173.689 10.4879 173.326 10.7282 172.888 10.9006C172.454 11.0696 171.959 11.1541 171.402 11.1541ZM179.962 3.36364V4.55682H175.646V3.36364H179.962ZM176.83 11V2.47869C176.83 2.00142 176.934 1.60535 177.143 1.29048C177.352 0.972301 177.628 0.735322 177.973 0.579545C178.318 0.420454 178.692 0.340908 179.097 0.340908C179.395 0.340908 179.65 0.365767 179.862 0.415483C180.074 0.461884 180.232 0.504971 180.335 0.544744L179.987 1.74787C179.917 1.72798 179.827 1.70478 179.718 1.67827C179.609 1.64844 179.476 1.63352 179.32 1.63352C178.959 1.63352 178.701 1.72301 178.545 1.90199C178.392 2.08097 178.316 2.33949 178.316 2.67756V11H176.83ZM185.06 3.36364V4.55682H180.889V3.36364H185.06ZM182.007 1.53409H183.494V8.75781C183.494 9.04616 183.537 9.26326 183.623 9.40909C183.709 9.55161 183.82 9.64938 183.956 9.70241C184.096 9.75213 184.246 9.77699 184.409 9.77699C184.528 9.77699 184.632 9.7687 184.722 9.75213C184.811 9.73556 184.881 9.7223 184.931 9.71236L185.199 10.9403C185.113 10.9735 184.99 11.0066 184.831 11.0398C184.672 11.0762 184.473 11.0961 184.235 11.0994C183.844 11.1061 183.479 11.0365 183.141 10.8906C182.803 10.7448 182.529 10.5194 182.321 10.2145C182.112 9.90956 182.007 9.52675 182.007 9.06605V1.53409Z" fill="black"/>
</svg>
