<svg width="162" height="15" viewBox="0 0 162 15" fill="none" xmlns="http://www.w3.org/2000/svg">
<path d="M3.22159 11.169C2.73769 11.169 2.30019 11.0795 1.90909 10.9006C1.51799 10.7183 1.2081 10.4548 0.979403 10.1101C0.754025 9.76539 0.641335 9.3428 0.641335 8.84233C0.641335 8.41146 0.724195 8.05682 0.889915 7.77841C1.05563 7.5 1.27936 7.27959 1.56108 7.11719C1.8428 6.95478 2.15767 6.83215 2.50568 6.74929C2.85369 6.66643 3.20833 6.60346 3.5696 6.56037C4.02699 6.50734 4.3982 6.46425 4.68324 6.43111C4.96828 6.39465 5.17543 6.33665 5.30469 6.2571C5.43395 6.17756 5.49858 6.0483 5.49858 5.86932V5.83452C5.49858 5.40033 5.37595 5.06392 5.13068 4.82528C4.88873 4.58665 4.52746 4.46733 4.04688 4.46733C3.5464 4.46733 3.15199 4.57836 2.86364 4.80043C2.5786 5.01918 2.38139 5.26278 2.27202 5.53125L0.875 5.21307C1.04072 4.74905 1.28267 4.37453 1.60085 4.08949C1.92235 3.80114 2.2919 3.59233 2.70952 3.46307C3.12713 3.33049 3.56629 3.2642 4.02699 3.2642C4.33191 3.2642 4.65507 3.30066 4.99645 3.37358C5.34115 3.44318 5.66264 3.57244 5.96094 3.76136C6.26255 3.95028 6.50947 4.22041 6.7017 4.57173C6.89394 4.91974 6.99006 5.37216 6.99006 5.92898V11H5.53835V9.95597H5.47869C5.38258 10.1482 5.2384 10.3371 5.04616 10.5227C4.85393 10.7083 4.60701 10.8625 4.3054 10.9851C4.00379 11.1077 3.64252 11.169 3.22159 11.169ZM3.54474 9.97585C3.95573 9.97585 4.30706 9.89465 4.59872 9.73224C4.8937 9.56984 5.11742 9.35772 5.26989 9.09588C5.42566 8.83073 5.50355 8.54735 5.50355 8.24574V7.26136C5.45052 7.31439 5.34777 7.36411 5.19531 7.41051C5.04616 7.4536 4.87547 7.49171 4.68324 7.52486C4.491 7.55469 4.30374 7.58286 4.12145 7.60938C3.93916 7.63258 3.7867 7.65246 3.66406 7.66903C3.37571 7.70549 3.11222 7.76681 2.87358 7.85298C2.63826 7.93916 2.44934 8.06345 2.30682 8.22585C2.16761 8.38494 2.09801 8.59706 2.09801 8.86222C2.09801 9.23011 2.2339 9.50852 2.50568 9.69744C2.77746 9.88305 3.12382 9.97585 3.54474 9.97585ZM8.96999 11V3.36364H10.4068V4.5767H10.4863C10.6255 4.16572 10.8708 3.84257 11.2221 3.60724C11.5768 3.36861 11.9778 3.24929 12.4252 3.24929C12.5181 3.24929 12.6274 3.2526 12.7534 3.25923C12.8826 3.26586 12.9837 3.27415 13.0566 3.28409V4.70597C12.997 4.68939 12.8909 4.67116 12.7385 4.65128C12.586 4.62808 12.4335 4.61648 12.2811 4.61648C11.9297 4.61648 11.6165 4.69105 11.3414 4.8402C11.0697 4.98603 10.8542 5.18987 10.6951 5.4517C10.536 5.71023 10.4565 6.00521 10.4565 6.33665V11H8.96999ZM14.343 11V3.36364H15.7798V4.5767H15.8594C15.9986 4.16572 16.2438 3.84257 16.5952 3.60724C16.9498 3.36861 17.3509 3.24929 17.7983 3.24929C17.8911 3.24929 18.0005 3.2526 18.1264 3.25923C18.2557 3.26586 18.3568 3.27415 18.4297 3.28409V4.70597C18.37 4.68939 18.264 4.67116 18.1115 4.65128C17.959 4.62808 17.8066 4.61648 17.6541 4.61648C17.3028 4.61648 16.9896 4.69105 16.7145 4.8402C16.4427 4.98603 16.2273 5.18987 16.0682 5.4517C15.9091 5.71023 15.8295 6.00521 15.8295 6.33665V11H14.343ZM22.6593 11.1541C21.9434 11.1541 21.3186 10.9901 20.785 10.6619C20.2514 10.3338 19.8371 9.87476 19.5421 9.2848C19.2471 8.69484 19.0996 8.00544 19.0996 7.21662C19.0996 6.42448 19.2471 5.73177 19.5421 5.13849C19.8371 4.54522 20.2514 4.08452 20.785 3.75639C21.3186 3.42827 21.9434 3.2642 22.6593 3.2642C23.3752 3.2642 23.9999 3.42827 24.5336 3.75639C25.0672 4.08452 25.4815 4.54522 25.7765 5.13849C26.0714 5.73177 26.2189 6.42448 26.2189 7.21662C26.2189 8.00544 26.0714 8.69484 25.7765 9.2848C25.4815 9.87476 25.0672 10.3338 24.5336 10.6619C23.9999 10.9901 23.3752 11.1541 22.6593 11.1541ZM22.6642 9.90625C23.1283 9.90625 23.5127 9.78362 23.8176 9.53835C24.1226 9.29309 24.348 8.96662 24.4938 8.55895C24.6429 8.15128 24.7175 7.70218 24.7175 7.21165C24.7175 6.72443 24.6429 6.27699 24.4938 5.86932C24.348 5.45833 24.1226 5.12855 23.8176 4.87997C23.5127 4.63139 23.1283 4.5071 22.6642 4.5071C22.1969 4.5071 21.8091 4.63139 21.5009 4.87997C21.196 5.12855 20.9689 5.45833 20.8198 5.86932C20.6739 6.27699 20.601 6.72443 20.601 7.21165C20.601 7.70218 20.6739 8.15128 20.8198 8.55895C20.9689 8.96662 21.196 9.29309 21.5009 9.53835C21.8091 9.78362 22.1969 9.90625 22.6642 9.90625ZM29.3013 11L27.0542 3.36364H28.5904L30.0868 8.97159H30.1614L31.6628 3.36364H33.199L34.6905 8.94673H34.7651L36.2516 3.36364H37.7878L35.5456 11H34.0293L32.4782 5.48651H32.3638L30.8127 11H29.3013ZM43.6978 6.05327V7.34091H39.1836V6.05327H43.6978ZM48.8956 11.1541C48.1565 11.1541 47.5201 10.9867 46.9865 10.652C46.4562 10.3139 46.0485 9.84825 45.7635 9.25497C45.4785 8.66169 45.3359 7.98224 45.3359 7.21662C45.3359 6.44105 45.4818 5.75663 45.7734 5.16335C46.0651 4.56676 46.4761 4.10109 47.0064 3.76633C47.5367 3.43158 48.1615 3.2642 48.8807 3.2642C49.4607 3.2642 49.9777 3.37192 50.4318 3.58736C50.8859 3.79948 51.2521 4.09777 51.5305 4.48224C51.8123 4.86671 51.9796 5.31581 52.0327 5.82955H50.5859C50.5064 5.47159 50.3241 5.16335 50.0391 4.90483C49.7573 4.64631 49.3795 4.51705 48.9055 4.51705C48.4912 4.51705 48.1283 4.62642 47.8168 4.84517C47.5085 5.06061 47.2682 5.36884 47.0959 5.76989C46.9235 6.16761 46.8374 6.63826 46.8374 7.18182C46.8374 7.73864 46.9219 8.21922 47.0909 8.62358C47.2599 9.02794 47.4986 9.34115 47.8068 9.56321C48.1184 9.78527 48.4846 9.89631 48.9055 9.89631C49.1873 9.89631 49.4425 9.84493 49.6712 9.74219C49.9032 9.63613 50.0971 9.48532 50.2528 9.28977C50.4119 9.09422 50.523 8.8589 50.5859 8.58381H52.0327C51.9796 9.07765 51.8189 9.51847 51.5504 9.90625C51.282 10.294 50.9223 10.599 50.4716 10.821C50.0241 11.0431 49.4988 11.1541 48.8956 11.1541ZM53.6223 11V3.36364H55.1088V11H53.6223ZM54.373 2.18537C54.1145 2.18537 53.8925 2.09919 53.7069 1.92685C53.5246 1.75118 53.4334 1.54238 53.4334 1.30043C53.4334 1.05516 53.5246 0.846354 53.7069 0.674005C53.8925 0.498342 54.1145 0.410511 54.373 0.410511C54.6316 0.410511 54.852 0.498342 55.0343 0.674005C55.2199 0.846354 55.3127 1.05516 55.3127 1.30043C55.3127 1.54238 55.2199 1.75118 55.0343 1.92685C54.852 2.09919 54.6316 2.18537 54.373 2.18537ZM57.1087 11V3.36364H58.5455V4.5767H58.625C58.7642 4.16572 59.0095 3.84257 59.3608 3.60724C59.7154 3.36861 60.1165 3.24929 60.5639 3.24929C60.6567 3.24929 60.7661 3.2526 60.892 3.25923C61.0213 3.26586 61.1224 3.27415 61.1953 3.28409V4.70597C61.1357 4.68939 61.0296 4.67116 60.8771 4.65128C60.7247 4.62808 60.5722 4.61648 60.4197 4.61648C60.0684 4.61648 59.7552 4.69105 59.4801 4.8402C59.2083 4.98603 58.9929 5.18987 58.8338 5.4517C58.6747 5.71023 58.5952 6.00521 58.5952 6.33665V11H57.1087ZM65.4249 11.1541C64.6858 11.1541 64.0494 10.9867 63.5158 10.652C62.9855 10.3139 62.5778 9.84825 62.2928 9.25497C62.0078 8.66169 61.8652 7.98224 61.8652 7.21662C61.8652 6.44105 62.0111 5.75663 62.3027 5.16335C62.5944 4.56676 63.0054 4.10109 63.5357 3.76633C64.066 3.43158 64.6908 3.2642 65.41 3.2642C65.99 3.2642 66.507 3.37192 66.9611 3.58736C67.4152 3.79948 67.7814 4.09777 68.0598 4.48224C68.3416 4.86671 68.5089 5.31581 68.562 5.82955H67.1152C67.0357 5.47159 66.8534 5.16335 66.5684 4.90483C66.2866 4.64631 65.9088 4.51705 65.4348 4.51705C65.0205 4.51705 64.6576 4.62642 64.3461 4.84517C64.0378 5.06061 63.7975 5.36884 63.6252 5.76989C63.4528 6.16761 63.3667 6.63826 63.3667 7.18182C63.3667 7.73864 63.4512 8.21922 63.6202 8.62358C63.7892 9.02794 64.0279 9.34115 64.3361 9.56321C64.6477 9.78527 65.0139 9.89631 65.4348 9.89631C65.7166 9.89631 65.9718 9.84493 66.2005 9.74219C66.4325 9.63613 66.6264 9.48532 66.7821 9.28977C66.9412 9.09422 67.0523 8.8589 67.1152 8.58381H68.562C68.5089 9.07765 68.3482 9.51847 68.0797 9.90625C67.8113 10.294 67.4516 10.599 67.0009 10.821C66.5534 11.0431 66.0281 11.1541 65.4249 11.1541ZM71.6381 0.818182V11H70.1516V0.818182H71.6381ZM76.9292 11.1541C76.1768 11.1541 75.5288 10.9934 74.9853 10.6719C74.445 10.3471 74.0274 9.89134 73.7324 9.30469C73.4408 8.71473 73.2949 8.02367 73.2949 7.23153C73.2949 6.44934 73.4408 5.75994 73.7324 5.16335C74.0274 4.56676 74.4384 4.10109 74.9654 3.76633C75.4957 3.43158 76.1155 3.2642 76.8248 3.2642C77.2556 3.2642 77.6732 3.33546 78.0776 3.47798C78.4819 3.6205 78.8449 3.84422 79.1664 4.14915C79.4879 4.45407 79.7414 4.85014 79.927 5.33736C80.1126 5.82126 80.2054 6.40956 80.2054 7.10227V7.62926H74.1351V6.51562H78.7488C78.7488 6.12453 78.6692 5.77817 78.5101 5.47656C78.351 5.17164 78.1273 4.93134 77.839 4.75568C77.5539 4.58002 77.2192 4.49219 76.8347 4.49219C76.4171 4.49219 76.0525 4.59493 75.7409 4.80043C75.4327 5.0026 75.1941 5.26776 75.025 5.59588C74.8593 5.92069 74.7765 6.27367 74.7765 6.65483V7.52486C74.7765 8.03527 74.8659 8.46946 75.0449 8.82741C75.2272 9.18537 75.4808 9.45881 75.8056 9.64773C76.1304 9.83333 76.5099 9.92614 76.9441 9.92614C77.2258 9.92614 77.4827 9.88636 77.7147 9.80682C77.9467 9.72396 78.1472 9.60133 78.3162 9.43892C78.4853 9.27652 78.6145 9.07599 78.704 8.83736L80.111 9.09091C79.9983 9.50521 79.7961 9.86813 79.5044 10.1797C79.2161 10.4879 78.8532 10.7282 78.4157 10.9006C77.9815 11.0696 77.486 11.1541 76.9292 11.1541ZM86.354 6.05327V7.34091H81.8398V6.05327H86.354ZM91.1939 11.1491C90.5774 11.1491 90.0272 10.9917 89.5433 10.6768C89.0627 10.3587 88.6849 9.90625 88.4098 9.3196C88.138 8.72964 88.0021 8.02202 88.0021 7.19673C88.0021 6.37145 88.1397 5.66548 88.4148 5.07884C88.6932 4.49219 89.0743 4.04309 89.5582 3.73153C90.0421 3.41998 90.5907 3.2642 91.2038 3.2642C91.6778 3.2642 92.0589 3.34375 92.3473 3.50284C92.639 3.65862 92.8643 3.84091 93.0234 4.04972C93.1858 4.25852 93.3118 4.44247 93.4013 4.60156H93.4908V0.818182H94.9773V11H93.5256V9.81179H93.4013C93.3118 9.9742 93.1825 10.1598 93.0135 10.3686C92.8478 10.5774 92.6191 10.7597 92.3274 10.9155C92.0357 11.0713 91.6579 11.1491 91.1939 11.1491ZM91.522 9.88139C91.9496 9.88139 92.3108 9.7687 92.6058 9.54332C92.9041 9.31463 93.1295 8.99811 93.282 8.59375C93.4377 8.18939 93.5156 7.71875 93.5156 7.18182C93.5156 6.65151 93.4394 6.1875 93.2869 5.78977C93.1345 5.39205 92.9107 5.08215 92.6158 4.86009C92.3208 4.63802 91.9562 4.52699 91.522 4.52699C91.0746 4.52699 90.7017 4.64299 90.4034 4.875C90.1051 5.10701 89.8797 5.42353 89.7273 5.82457C89.5781 6.22562 89.5036 6.67803 89.5036 7.18182C89.5036 7.69223 89.5798 8.15128 89.7322 8.55895C89.8847 8.96662 90.1101 9.28977 90.4084 9.52841C90.71 9.76373 91.0812 9.88139 91.522 9.88139ZM100.316 11.1541C99.5996 11.1541 98.9748 10.9901 98.4412 10.6619C97.9076 10.3338 97.4933 9.87476 97.1983 9.2848C96.9033 8.69484 96.7559 8.00544 96.7559 7.21662C96.7559 6.42448 96.9033 5.73177 97.1983 5.13849C97.4933 4.54522 97.9076 4.08452 98.4412 3.75639C98.9748 3.42827 99.5996 3.2642 100.316 3.2642C101.031 3.2642 101.656 3.42827 102.19 3.75639C102.723 4.08452 103.138 4.54522 103.433 5.13849C103.728 5.73177 103.875 6.42448 103.875 7.21662C103.875 8.00544 103.728 8.69484 103.433 9.2848C103.138 9.87476 102.723 10.3338 102.19 10.6619C101.656 10.9901 101.031 11.1541 100.316 11.1541ZM100.32 9.90625C100.785 9.90625 101.169 9.78362 101.474 9.53835C101.779 9.29309 102.004 8.96662 102.15 8.55895C102.299 8.15128 102.374 7.70218 102.374 7.21165C102.374 6.72443 102.299 6.27699 102.15 5.86932C102.004 5.45833 101.779 5.12855 101.474 4.87997C101.169 4.63139 100.785 4.5071 100.32 4.5071C99.8532 4.5071 99.4654 4.63139 99.1571 4.87997C98.8522 5.12855 98.6252 5.45833 98.476 5.86932C98.3302 6.27699 98.2573 6.72443 98.2573 7.21165C98.2573 7.70218 98.3302 8.15128 98.476 8.55895C98.6252 8.96662 98.8522 9.29309 99.1571 9.53835C99.4654 9.78362 99.8532 9.90625 100.32 9.90625ZM106.958 11L104.71 3.36364H106.247L107.743 8.97159H107.818L109.319 3.36364H110.855L112.347 8.94673H112.421L113.908 3.36364H115.444L113.202 11H111.686L110.134 5.48651H110.02L108.469 11H106.958ZM118.341 6.46591V11H116.855V3.36364H118.282V4.60653H118.376C118.552 4.20218 118.827 3.87737 119.201 3.6321C119.579 3.38684 120.055 3.2642 120.628 3.2642C121.149 3.2642 121.604 3.37358 121.995 3.59233C122.386 3.80777 122.69 4.12926 122.905 4.55682C123.121 4.98437 123.228 5.51302 123.228 6.14276V11H121.742V6.32173C121.742 5.76823 121.598 5.3357 121.309 5.02415C121.021 4.70928 120.625 4.55185 120.121 4.55185C119.776 4.55185 119.47 4.62642 119.201 4.77557C118.936 4.92472 118.726 5.14347 118.57 5.43182C118.417 5.71686 118.341 6.06155 118.341 6.46591ZM129.721 6.05327V7.34091H125.207V6.05327H129.721ZM131.702 11V3.36364H133.139V4.5767H133.219C133.358 4.16572 133.603 3.84257 133.955 3.60724C134.309 3.36861 134.71 3.24929 135.158 3.24929C135.25 3.24929 135.36 3.2526 135.486 3.25923C135.615 3.26586 135.716 3.27415 135.789 3.28409V4.70597C135.729 4.68939 135.623 4.67116 135.471 4.65128C135.318 4.62808 135.166 4.61648 135.013 4.61648C134.662 4.61648 134.349 4.69105 134.074 4.8402C133.802 4.98603 133.587 5.18987 133.428 5.4517C133.268 5.71023 133.189 6.00521 133.189 6.33665V11H131.702ZM137.075 11V3.36364H138.562V11H137.075ZM137.826 2.18537C137.568 2.18537 137.346 2.09919 137.16 1.92685C136.978 1.75118 136.887 1.54238 136.887 1.30043C136.887 1.05516 136.978 0.846354 137.16 0.674005C137.346 0.498342 137.568 0.410511 137.826 0.410511C138.085 0.410511 138.305 0.498342 138.487 0.674005C138.673 0.846354 138.766 1.05516 138.766 1.30043C138.766 1.54238 138.673 1.75118 138.487 1.92685C138.305 2.09919 138.085 2.18537 137.826 2.18537ZM143.763 14.0227C143.157 14.0227 142.635 13.9432 142.197 13.7841C141.763 13.625 141.409 13.4145 141.134 13.1527C140.858 12.8909 140.653 12.6042 140.517 12.2926L141.795 11.7656C141.884 11.9115 142.004 12.0656 142.153 12.228C142.305 12.3937 142.511 12.5346 142.769 12.6506C143.031 12.7666 143.367 12.8246 143.778 12.8246C144.342 12.8246 144.808 12.687 145.175 12.4119C145.543 12.1402 145.727 11.706 145.727 11.1094V9.60795H145.633C145.543 9.77036 145.414 9.95099 145.245 10.1499C145.079 10.3487 144.851 10.5211 144.559 10.6669C144.267 10.8127 143.888 10.8857 143.42 10.8857C142.817 10.8857 142.274 10.7448 141.79 10.4631C141.309 10.178 140.928 9.75876 140.646 9.20526C140.368 8.64844 140.229 7.96401 140.229 7.15199C140.229 6.33996 140.366 5.64394 140.641 5.06392C140.92 4.4839 141.301 4.03977 141.785 3.73153C142.269 3.41998 142.817 3.2642 143.43 3.2642C143.904 3.2642 144.287 3.34375 144.579 3.50284C144.871 3.65862 145.098 3.84091 145.26 4.04972C145.426 4.25852 145.553 4.44247 145.643 4.60156H145.752V3.36364H147.209V11.169C147.209 11.8253 147.056 12.3639 146.751 12.7848C146.446 13.2057 146.034 13.5173 145.513 13.7195C144.996 13.9216 144.413 14.0227 143.763 14.0227ZM143.749 9.6527C144.176 9.6527 144.537 9.55327 144.832 9.3544C145.131 9.15223 145.356 8.86387 145.509 8.48935C145.664 8.11151 145.742 7.65909 145.742 7.1321C145.742 6.61837 145.666 6.16596 145.513 5.77486C145.361 5.38376 145.137 5.07884 144.842 4.86009C144.547 4.63802 144.183 4.52699 143.749 4.52699C143.301 4.52699 142.928 4.64299 142.63 4.875C142.332 5.10369 142.106 5.41525 141.954 5.80966C141.805 6.20407 141.73 6.64489 141.73 7.1321C141.73 7.63258 141.806 8.07173 141.959 8.44957C142.111 8.82741 142.337 9.1224 142.635 9.33452C142.937 9.54664 143.308 9.6527 143.749 9.6527ZM150.689 6.46591V11H149.202V0.818182H150.669V4.60653H150.763C150.942 4.19555 151.216 3.86908 151.584 3.62713C151.952 3.38518 152.432 3.2642 153.026 3.2642C153.549 3.2642 154.007 3.37192 154.398 3.58736C154.792 3.80279 155.097 4.12429 155.312 4.55185C155.531 4.97609 155.641 5.50639 155.641 6.14276V11H154.154V6.32173C154.154 5.7616 154.01 5.32741 153.722 5.01918C153.433 4.70762 153.032 4.55185 152.518 4.55185C152.167 4.55185 151.852 4.62642 151.574 4.77557C151.299 4.92472 151.082 5.14347 150.923 5.43182C150.767 5.71686 150.689 6.06155 150.689 6.46591ZM161.189 3.36364V4.55682H157.018V3.36364H161.189ZM158.136 1.53409H159.623V8.75781C159.623 9.04616 159.666 9.26326 159.752 9.40909C159.838 9.55161 159.949 9.64938 160.085 9.70241C160.224 9.75213 160.375 9.77699 160.538 9.77699C160.657 9.77699 160.761 9.7687 160.851 9.75213C160.94 9.73556 161.01 9.7223 161.06 9.71236L161.328 10.9403C161.242 10.9735 161.119 11.0066 160.96 11.0398C160.801 11.0762 160.602 11.0961 160.364 11.0994C159.973 11.1061 159.608 11.0365 159.27 10.8906C158.932 10.7448 158.658 10.5194 158.45 10.2145C158.241 9.90956 158.136 9.52675 158.136 9.06605V1.53409Z" fill="black"/>
</svg>
