<svg width="187" height="12" viewBox="0 0 187 12" fill="none" xmlns="http://www.w3.org/2000/svg">
<path d="M4.21591 11.1541C3.4768 11.1541 2.84044 10.9867 2.30682 10.652C1.77652 10.3139 1.36884 9.84825 1.08381 9.25497C0.798769 8.66169 0.65625 7.98224 0.65625 7.21662C0.65625 6.44105 0.802083 5.75663 1.09375 5.16335C1.38542 4.56676 1.7964 4.10109 2.3267 3.76633C2.85701 3.43158 3.48177 3.2642 4.20099 3.2642C4.78101 3.2642 5.29806 3.37192 5.75213 3.58736C6.2062 3.79948 6.57244 4.09777 6.85085 4.48224C7.13258 4.86671 7.29995 5.31581 7.35298 5.82955H5.90625C5.8267 5.47159 5.64441 5.16335 5.35938 4.90483C5.07765 4.64631 4.69981 4.51705 4.22585 4.51705C3.81155 4.51705 3.44863 4.62642 3.13707 4.84517C2.82884 5.06061 2.58854 5.36884 2.41619 5.76989C2.24384 6.16761 2.15767 6.63826 2.15767 7.18182C2.15767 7.73864 2.24219 8.21922 2.41122 8.62358C2.58026 9.02794 2.81889 9.34115 3.12713 9.56321C3.43868 9.78527 3.80492 9.89631 4.22585 9.89631C4.50758 9.89631 4.76278 9.84493 4.99148 9.74219C5.22349 9.63613 5.41738 9.48532 5.57315 9.28977C5.73224 9.09422 5.84328 8.8589 5.90625 8.58381H7.35298C7.29995 9.07765 7.1392 9.51847 6.87074 9.90625C6.60227 10.294 6.24266 10.599 5.7919 10.821C5.34446 11.0431 4.81913 11.1541 4.21591 11.1541ZM10.4292 6.46591V11H8.94265V0.818182H10.4093V4.60653H10.5037C10.6827 4.19555 10.9561 3.86908 11.324 3.62713C11.6919 3.38518 12.1725 3.2642 12.7658 3.2642C13.2895 3.2642 13.7469 3.37192 14.138 3.58736C14.5324 3.80279 14.8373 4.12429 15.0527 4.55185C15.2715 4.97609 15.3809 5.50639 15.3809 6.14276V11H13.8944V6.32173C13.8944 5.7616 13.7502 5.32741 13.4618 5.01918C13.1735 4.70762 12.7724 4.55185 12.2587 4.55185C11.9074 4.55185 11.5925 4.62642 11.3141 4.77557C11.039 4.92472 10.8219 5.14347 10.6628 5.43182C10.507 5.71686 10.4292 6.06155 10.4292 6.46591ZM20.6557 11.1541C19.9033 11.1541 19.2554 10.9934 18.7118 10.6719C18.1716 10.3471 17.754 9.89134 17.459 9.30469C17.1673 8.71473 17.0215 8.02367 17.0215 7.23153C17.0215 6.44934 17.1673 5.75994 17.459 5.16335C17.754 4.56676 18.165 4.10109 18.6919 3.76633C19.2222 3.43158 19.842 3.2642 20.5513 3.2642C20.9822 3.2642 21.3998 3.33546 21.8042 3.47798C22.2085 3.6205 22.5714 3.84422 22.8929 4.14915C23.2144 4.45407 23.468 4.85014 23.6536 5.33736C23.8392 5.82126 23.932 6.40956 23.932 7.10227V7.62926H17.8617V6.51562H22.4753C22.4753 6.12453 22.3958 5.77817 22.2367 5.47656C22.0776 5.17164 21.8539 4.93134 21.5655 4.75568C21.2805 4.58002 20.9457 4.49219 20.5613 4.49219C20.1436 4.49219 19.7791 4.59493 19.4675 4.80043C19.1593 5.0026 18.9206 5.26776 18.7516 5.59588C18.5859 5.92069 18.503 6.27367 18.503 6.65483V7.52486C18.503 8.03527 18.5925 8.46946 18.7715 8.82741C18.9538 9.18537 19.2073 9.45881 19.5321 9.64773C19.8569 9.83333 20.2364 9.92614 20.6706 9.92614C20.9524 9.92614 21.2092 9.88636 21.4412 9.80682C21.6732 9.72396 21.8738 9.60133 22.0428 9.43892C22.2118 9.27652 22.3411 9.07599 22.4306 8.83736L23.8375 9.09091C23.7248 9.50521 23.5227 9.86813 23.231 10.1797C22.9426 10.4879 22.5797 10.7282 22.1422 10.9006C21.708 11.0696 21.2125 11.1541 20.6557 11.1541ZM31.8952 3.36364L29.1261 11H27.5352L24.761 3.36364H26.3569L28.2908 9.24006H28.3704L30.2994 3.36364H31.8952ZM33.2923 11V3.36364H34.729V4.5767H34.8086C34.9478 4.16572 35.1931 3.84257 35.5444 3.60724C35.899 3.36861 36.3001 3.24929 36.7475 3.24929C36.8403 3.24929 36.9497 3.2526 37.0756 3.25923C37.2049 3.26586 37.306 3.27415 37.3789 3.28409V4.70597C37.3192 4.68939 37.2132 4.67116 37.0607 4.65128C36.9083 4.62808 36.7558 4.61648 36.6033 4.61648C36.252 4.61648 35.9388 4.69105 35.6637 4.8402C35.3919 4.98603 35.1765 5.18987 35.0174 5.4517C34.8583 5.71023 34.7788 6.00521 34.7788 6.33665V11H33.2923ZM41.6085 11.1541C40.8926 11.1541 40.2678 10.9901 39.7342 10.6619C39.2006 10.3338 38.7863 9.87476 38.4913 9.2848C38.1963 8.69484 38.0488 8.00544 38.0488 7.21662C38.0488 6.42448 38.1963 5.73177 38.4913 5.13849C38.7863 4.54522 39.2006 4.08452 39.7342 3.75639C40.2678 3.42827 40.8926 3.2642 41.6085 3.2642C42.3244 3.2642 42.9492 3.42827 43.4828 3.75639C44.0164 4.08452 44.4307 4.54522 44.7257 5.13849C45.0207 5.73177 45.1681 6.42448 45.1681 7.21662C45.1681 8.00544 45.0207 8.69484 44.7257 9.2848C44.4307 9.87476 44.0164 10.3338 43.4828 10.6619C42.9492 10.9901 42.3244 11.1541 41.6085 11.1541ZM41.6135 9.90625C42.0775 9.90625 42.4619 9.78362 42.7669 9.53835C43.0718 9.29309 43.2972 8.96662 43.443 8.55895C43.5922 8.15128 43.6667 7.70218 43.6667 7.21165C43.6667 6.72443 43.5922 6.27699 43.443 5.86932C43.2972 5.45833 43.0718 5.12855 42.7669 4.87997C42.4619 4.63139 42.0775 4.5071 41.6135 4.5071C41.1461 4.5071 40.7583 4.63139 40.4501 4.87997C40.1452 5.12855 39.9181 5.45833 39.769 5.86932C39.6232 6.27699 39.5502 6.72443 39.5502 7.21165C39.5502 7.70218 39.6232 8.15128 39.769 8.55895C39.9181 8.96662 40.1452 9.29309 40.4501 9.53835C40.7583 9.78362 41.1461 9.90625 41.6135 9.90625ZM48.3139 6.46591V11H46.8274V3.36364H48.2543V4.60653H48.3487C48.5244 4.20218 48.7995 3.87737 49.174 3.6321C49.5518 3.38684 50.0275 3.2642 50.6009 3.2642C51.1212 3.2642 51.5769 3.37358 51.968 3.59233C52.3591 3.80777 52.6624 4.12926 52.8778 4.55682C53.0933 4.98437 53.201 5.51302 53.201 6.14276V11H51.7145V6.32173C51.7145 5.76823 51.5703 5.3357 51.282 5.02415C50.9936 4.70928 50.5975 4.55185 50.0938 4.55185C49.7491 4.55185 49.4425 4.62642 49.174 4.77557C48.9089 4.92472 48.6984 5.14347 48.5426 5.43182C48.3902 5.71686 48.3139 6.06155 48.3139 6.46591ZM59.6939 6.05327V7.34091H55.1797V6.05327H59.6939ZM67.3974 5.22798L66.0501 5.46662C65.9937 5.29427 65.9042 5.13021 65.7816 4.97443C65.6623 4.81865 65.4999 4.69105 65.2944 4.59162C65.0889 4.49219 64.832 4.44247 64.5238 4.44247C64.1029 4.44247 63.7515 4.53693 63.4698 4.72585C63.1881 4.91146 63.0472 5.15175 63.0472 5.44673C63.0472 5.70194 63.1417 5.90743 63.3306 6.06321C63.5195 6.21899 63.8245 6.34659 64.2454 6.44602L65.4585 6.72443C66.1611 6.88684 66.6848 7.13707 67.0295 7.47514C67.3742 7.81321 67.5465 8.25237 67.5465 8.79261C67.5465 9.25 67.4139 9.65767 67.1488 10.0156C66.887 10.3703 66.5207 10.6487 66.0501 10.8509C65.5827 11.053 65.0408 11.1541 64.4244 11.1541C63.5692 11.1541 62.8716 10.9718 62.3313 10.6072C61.7911 10.2393 61.4596 9.71733 61.337 9.04119L62.7738 8.82244C62.8633 9.19697 63.0472 9.48035 63.3256 9.67259C63.604 9.86151 63.967 9.95597 64.4144 9.95597C64.9016 9.95597 65.2911 9.85488 65.5827 9.6527C65.8744 9.44721 66.0202 9.19697 66.0202 8.90199C66.0202 8.66335 65.9308 8.46283 65.7518 8.30043C65.5761 8.13802 65.306 8.01539 64.9414 7.93253L63.6488 7.64915C62.9362 7.48674 62.4092 7.22822 62.0678 6.87358C61.7298 6.51894 61.5607 6.06984 61.5607 5.52628C61.5607 5.07552 61.6867 4.68111 61.9386 4.34304C62.1905 4.00497 62.5385 3.74148 62.9826 3.55256C63.4267 3.36032 63.9355 3.2642 64.5089 3.2642C65.3342 3.2642 65.9838 3.44318 66.4577 3.80114C66.9317 4.15578 67.2449 4.63139 67.3974 5.22798ZM72.4721 11.1541C71.7198 11.1541 71.0718 10.9934 70.5282 10.6719C69.988 10.3471 69.5704 9.89134 69.2754 9.30469C68.9837 8.71473 68.8379 8.02367 68.8379 7.23153C68.8379 6.44934 68.9837 5.75994 69.2754 5.16335C69.5704 4.56676 69.9814 4.10109 70.5083 3.76633C71.0386 3.43158 71.6584 3.2642 72.3677 3.2642C72.7986 3.2642 73.2162 3.33546 73.6206 3.47798C74.0249 3.6205 74.3878 3.84422 74.7093 4.14915C75.0308 4.45407 75.2844 4.85014 75.47 5.33736C75.6556 5.82126 75.7484 6.40956 75.7484 7.10227V7.62926H69.6781V6.51562H74.2917C74.2917 6.12453 74.2122 5.77817 74.0531 5.47656C73.894 5.17164 73.6703 4.93134 73.3819 4.75568C73.0969 4.58002 72.7621 4.49219 72.3777 4.49219C71.96 4.49219 71.5955 4.59493 71.2839 4.80043C70.9757 5.0026 70.737 5.26776 70.568 5.59588C70.4023 5.92069 70.3194 6.27367 70.3194 6.65483V7.52486C70.3194 8.03527 70.4089 8.46946 70.5879 8.82741C70.7702 9.18537 71.0237 9.45881 71.3485 9.64773C71.6734 9.83333 72.0529 9.92614 72.487 9.92614C72.7688 9.92614 73.0256 9.88636 73.2576 9.80682C73.4896 9.72396 73.6902 9.60133 73.8592 9.43892C74.0282 9.27652 74.1575 9.07599 74.247 8.83736L75.6539 9.09091C75.5413 9.50521 75.3391 9.86813 75.0474 10.1797C74.7591 10.4879 74.3961 10.7282 73.9586 10.9006C73.5244 11.0696 73.0289 11.1541 72.4721 11.1541ZM78.8842 0.818182V11H77.3977V0.818182H78.8842ZM84.1752 11.1541C83.4229 11.1541 82.7749 10.9934 82.2314 10.6719C81.6911 10.3471 81.2735 9.89134 80.9785 9.30469C80.6868 8.71473 80.541 8.02367 80.541 7.23153C80.541 6.44934 80.6868 5.75994 80.9785 5.16335C81.2735 4.56676 81.6845 4.10109 82.2115 3.76633C82.7418 3.43158 83.3616 3.2642 84.0708 3.2642C84.5017 3.2642 84.9193 3.33546 85.3237 3.47798C85.728 3.6205 86.091 3.84422 86.4125 4.14915C86.734 4.45407 86.9875 4.85014 87.1731 5.33736C87.3587 5.82126 87.4515 6.40956 87.4515 7.10227V7.62926H81.3812V6.51562H85.9949C85.9949 6.12453 85.9153 5.77817 85.7562 5.47656C85.5971 5.17164 85.3734 4.93134 85.085 4.75568C84.8 4.58002 84.4653 4.49219 84.0808 4.49219C83.6632 4.49219 83.2986 4.59493 82.987 4.80043C82.6788 5.0026 82.4402 5.26776 82.2711 5.59588C82.1054 5.92069 82.0225 6.27367 82.0225 6.65483V7.52486C82.0225 8.03527 82.112 8.46946 82.291 8.82741C82.4733 9.18537 82.7269 9.45881 83.0517 9.64773C83.3765 9.83333 83.756 9.92614 84.1902 9.92614C84.4719 9.92614 84.7288 9.88636 84.9608 9.80682C85.1928 9.72396 85.3933 9.60133 85.5623 9.43892C85.7314 9.27652 85.8606 9.07599 85.9501 8.83736L87.3571 9.09091C87.2444 9.50521 87.0422 9.86813 86.7505 10.1797C86.4622 10.4879 86.0993 10.7282 85.6618 10.9006C85.2276 11.0696 84.7321 11.1541 84.1752 11.1541ZM92.3175 11.1541C91.5784 11.1541 90.942 10.9867 90.4084 10.652C89.8781 10.3139 89.4704 9.84825 89.1854 9.25497C88.9003 8.66169 88.7578 7.98224 88.7578 7.21662C88.7578 6.44105 88.9036 5.75663 89.1953 5.16335C89.487 4.56676 89.898 4.10109 90.4283 3.76633C90.9586 3.43158 91.5833 3.2642 92.3026 3.2642C92.8826 3.2642 93.3996 3.37192 93.8537 3.58736C94.3078 3.79948 94.674 4.09777 94.9524 4.48224C95.2341 4.86671 95.4015 5.31581 95.4545 5.82955H94.0078C93.9283 5.47159 93.746 5.16335 93.4609 4.90483C93.1792 4.64631 92.8014 4.51705 92.3274 4.51705C91.9131 4.51705 91.5502 4.62642 91.2386 4.84517C90.9304 5.06061 90.6901 5.36884 90.5178 5.76989C90.3454 6.16761 90.2592 6.63826 90.2592 7.18182C90.2592 7.73864 90.3438 8.21922 90.5128 8.62358C90.6818 9.02794 90.9205 9.34115 91.2287 9.56321C91.5402 9.78527 91.9065 9.89631 92.3274 9.89631C92.6091 9.89631 92.8643 9.84493 93.093 9.74219C93.325 9.63613 93.5189 9.48532 93.6747 9.28977C93.8338 9.09422 93.9448 8.8589 94.0078 8.58381H95.4545C95.4015 9.07765 95.2408 9.51847 94.9723 9.90625C94.7038 10.294 94.3442 10.599 93.8935 10.821C93.446 11.0431 92.9207 11.1541 92.3175 11.1541ZM100.609 3.36364V4.55682H96.4377V3.36364H100.609ZM97.5563 1.53409H99.0428V8.75781C99.0428 9.04616 99.0859 9.26326 99.1721 9.40909C99.2582 9.55161 99.3693 9.64938 99.5051 9.70241C99.6444 9.75213 99.7952 9.77699 99.9576 9.77699C100.077 9.77699 100.181 9.7687 100.271 9.75213C100.36 9.73556 100.43 9.7223 100.48 9.71236L100.748 10.9403C100.662 10.9735 100.539 11.0066 100.38 11.0398C100.221 11.0762 100.022 11.0961 99.7836 11.0994C99.3925 11.1061 99.0279 11.0365 98.6898 10.8906C98.3517 10.7448 98.0783 10.5194 97.8695 10.2145C97.6607 9.90956 97.5563 9.52675 97.5563 9.06605V1.53409ZM105.388 11.1541C104.672 11.1541 104.047 10.9901 103.513 10.6619C102.98 10.3338 102.566 9.87476 102.271 9.2848C101.976 8.69484 101.828 8.00544 101.828 7.21662C101.828 6.42448 101.976 5.73177 102.271 5.13849C102.566 4.54522 102.98 4.08452 103.513 3.75639C104.047 3.42827 104.672 3.2642 105.388 3.2642C106.104 3.2642 106.728 3.42827 107.262 3.75639C107.796 4.08452 108.21 4.54522 108.505 5.13849C108.8 5.73177 108.947 6.42448 108.947 7.21662C108.947 8.00544 108.8 8.69484 108.505 9.2848C108.21 9.87476 107.796 10.3338 107.262 10.6619C106.728 10.9901 106.104 11.1541 105.388 11.1541ZM105.393 9.90625C105.857 9.90625 106.241 9.78362 106.546 9.53835C106.851 9.29309 107.076 8.96662 107.222 8.55895C107.371 8.15128 107.446 7.70218 107.446 7.21165C107.446 6.72443 107.371 6.27699 107.222 5.86932C107.076 5.45833 106.851 5.12855 106.546 4.87997C106.241 4.63139 105.857 4.5071 105.393 4.5071C104.925 4.5071 104.538 4.63139 104.229 4.87997C103.924 5.12855 103.697 5.45833 103.548 5.86932C103.402 6.27699 103.33 6.72443 103.33 7.21165C103.33 7.70218 103.402 8.15128 103.548 8.55895C103.697 8.96662 103.924 9.29309 104.229 9.53835C104.538 9.78362 104.925 9.90625 105.393 9.90625ZM110.607 11V3.36364H112.044V4.5767H112.123C112.262 4.16572 112.508 3.84257 112.859 3.60724C113.213 3.36861 113.615 3.24929 114.062 3.24929C114.155 3.24929 114.264 3.2526 114.39 3.25923C114.519 3.26586 114.62 3.27415 114.693 3.28409V4.70597C114.634 4.68939 114.528 4.67116 114.375 4.65128C114.223 4.62808 114.07 4.61648 113.918 4.61648C113.566 4.61648 113.253 4.69105 112.978 4.8402C112.706 4.98603 112.491 5.18987 112.332 5.4517C112.173 5.71023 112.093 6.00521 112.093 6.33665V11H110.607ZM120.028 6.05327V7.34091H115.514V6.05327H120.028ZM123.496 6.46591V11H122.009V0.818182H123.476V4.60653H123.57C123.749 4.19555 124.023 3.86908 124.39 3.62713C124.758 3.38518 125.239 3.2642 125.832 3.2642C126.356 3.2642 126.813 3.37192 127.204 3.58736C127.599 3.80279 127.904 4.12429 128.119 4.55185C128.338 4.97609 128.447 5.50639 128.447 6.14276V11H126.961V6.32173C126.961 5.7616 126.817 5.32741 126.528 5.01918C126.24 4.70762 125.839 4.55185 125.325 4.55185C124.974 4.55185 124.659 4.62642 124.381 4.77557C124.105 4.92472 123.888 5.14347 123.729 5.43182C123.573 5.71686 123.496 6.06155 123.496 6.46591ZM133.648 11.1541C132.932 11.1541 132.307 10.9901 131.773 10.6619C131.24 10.3338 130.825 9.87476 130.53 9.2848C130.235 8.69484 130.088 8.00544 130.088 7.21662C130.088 6.42448 130.235 5.73177 130.53 5.13849C130.825 4.54522 131.24 4.08452 131.773 3.75639C132.307 3.42827 132.932 3.2642 133.648 3.2642C134.363 3.2642 134.988 3.42827 135.522 3.75639C136.055 4.08452 136.47 4.54522 136.765 5.13849C137.06 5.73177 137.207 6.42448 137.207 7.21662C137.207 8.00544 137.06 8.69484 136.765 9.2848C136.47 9.87476 136.055 10.3338 135.522 10.6619C134.988 10.9901 134.363 11.1541 133.648 11.1541ZM133.653 9.90625C134.117 9.90625 134.501 9.78362 134.806 9.53835C135.111 9.29309 135.336 8.96662 135.482 8.55895C135.631 8.15128 135.706 7.70218 135.706 7.21165C135.706 6.72443 135.631 6.27699 135.482 5.86932C135.336 5.45833 135.111 5.12855 134.806 4.87997C134.501 4.63139 134.117 4.5071 133.653 4.5071C133.185 4.5071 132.797 4.63139 132.489 4.87997C132.184 5.12855 131.957 5.45833 131.808 5.86932C131.662 6.27699 131.589 6.72443 131.589 7.21165C131.589 7.70218 131.662 8.15128 131.808 8.55895C131.957 8.96662 132.184 9.29309 132.489 9.53835C132.797 9.78362 133.185 9.90625 133.653 9.90625ZM138.866 11V3.36364H140.303V4.5767H140.383C140.522 4.16572 140.767 3.84257 141.119 3.60724C141.473 3.36861 141.874 3.24929 142.322 3.24929C142.415 3.24929 142.524 3.2526 142.65 3.25923C142.779 3.26586 142.88 3.27415 142.953 3.28409V4.70597C142.893 4.68939 142.787 4.67116 142.635 4.65128C142.482 4.62808 142.33 4.61648 142.178 4.61648C141.826 4.61648 141.513 4.69105 141.238 4.8402C140.966 4.98603 140.751 5.18987 140.592 5.4517C140.433 5.71023 140.353 6.00521 140.353 6.33665V11H138.866ZM144.24 11V3.36364H145.726V11H144.24ZM144.99 2.18537C144.732 2.18537 144.51 2.09919 144.324 1.92685C144.142 1.75118 144.051 1.54238 144.051 1.30043C144.051 1.05516 144.142 0.846354 144.324 0.674005C144.51 0.498342 144.732 0.410511 144.99 0.410511C145.249 0.410511 145.469 0.498342 145.651 0.674005C145.837 0.846354 145.93 1.05516 145.93 1.30043C145.93 1.54238 145.837 1.75118 145.651 1.92685C145.469 2.09919 145.249 2.18537 144.99 2.18537ZM147.567 11V9.98082L151.703 4.72585V4.65625H147.701V3.36364H153.558V4.44744L149.58 9.63778V9.70739H153.697V11H147.567ZM158.448 11.1541C157.732 11.1541 157.108 10.9901 156.574 10.6619C156.04 10.3338 155.626 9.87476 155.331 9.2848C155.036 8.69484 154.889 8.00544 154.889 7.21662C154.889 6.42448 155.036 5.73177 155.331 5.13849C155.626 4.54522 156.04 4.08452 156.574 3.75639C157.108 3.42827 157.732 3.2642 158.448 3.2642C159.164 3.2642 159.789 3.42827 160.323 3.75639C160.856 4.08452 161.271 4.54522 161.566 5.13849C161.86 5.73177 162.008 6.42448 162.008 7.21662C162.008 8.00544 161.86 8.69484 161.566 9.2848C161.271 9.87476 160.856 10.3338 160.323 10.6619C159.789 10.9901 159.164 11.1541 158.448 11.1541ZM158.453 9.90625C158.917 9.90625 159.302 9.78362 159.607 9.53835C159.912 9.29309 160.137 8.96662 160.283 8.55895C160.432 8.15128 160.507 7.70218 160.507 7.21165C160.507 6.72443 160.432 6.27699 160.283 5.86932C160.137 5.45833 159.912 5.12855 159.607 4.87997C159.302 4.63139 158.917 4.5071 158.453 4.5071C157.986 4.5071 157.598 4.63139 157.29 4.87997C156.985 5.12855 156.758 5.45833 156.609 5.86932C156.463 6.27699 156.39 6.72443 156.39 7.21165C156.39 7.70218 156.463 8.15128 156.609 8.55895C156.758 8.96662 156.985 9.29309 157.29 9.53835C157.598 9.78362 157.986 9.90625 158.453 9.90625ZM165.154 6.46591V11H163.667V3.36364H165.094V4.60653H165.189C165.364 4.20218 165.639 3.87737 166.014 3.6321C166.392 3.38684 166.867 3.2642 167.441 3.2642C167.961 3.2642 168.417 3.37358 168.808 3.59233C169.199 3.80777 169.502 4.12926 169.718 4.55682C169.933 4.98437 170.041 5.51302 170.041 6.14276V11H168.554V6.32173C168.554 5.76823 168.41 5.3357 168.122 5.02415C167.833 4.70928 167.437 4.55185 166.934 4.55185C166.589 4.55185 166.282 4.62642 166.014 4.77557C165.749 4.92472 165.538 5.14347 165.382 5.43182C165.23 5.71686 165.154 6.06155 165.154 6.46591ZM175.599 3.36364V4.55682H171.428V3.36364H175.599ZM172.547 1.53409H174.033V8.75781C174.033 9.04616 174.076 9.26326 174.162 9.40909C174.248 9.55161 174.359 9.64938 174.495 9.70241C174.635 9.75213 174.785 9.77699 174.948 9.77699C175.067 9.77699 175.172 9.7687 175.261 9.75213C175.35 9.73556 175.42 9.7223 175.47 9.71236L175.738 10.9403C175.652 10.9735 175.529 11.0066 175.37 11.0398C175.211 11.0762 175.012 11.0961 174.774 11.0994C174.383 11.1061 174.018 11.0365 173.68 10.8906C173.342 10.7448 173.069 10.5194 172.86 10.2145C172.651 9.90956 172.547 9.52675 172.547 9.06605V1.53409ZM179.466 11.169C178.982 11.169 178.544 11.0795 178.153 10.9006C177.762 10.7183 177.452 10.4548 177.224 10.1101C176.998 9.76539 176.885 9.3428 176.885 8.84233C176.885 8.41146 176.968 8.05682 177.134 7.77841C177.3 7.5 177.523 7.27959 177.805 7.11719C178.087 6.95478 178.402 6.83215 178.75 6.74929C179.098 6.66643 179.452 6.60346 179.814 6.56037C180.271 6.50734 180.642 6.46425 180.927 6.43111C181.212 6.39465 181.42 6.33665 181.549 6.2571C181.678 6.17756 181.743 6.0483 181.743 5.86932V5.83452C181.743 5.40033 181.62 5.06392 181.375 4.82528C181.133 4.58665 180.772 4.46733 180.291 4.46733C179.791 4.46733 179.396 4.57836 179.108 4.80043C178.823 5.01918 178.626 5.26278 178.516 5.53125L177.119 5.21307C177.285 4.74905 177.527 4.37453 177.845 4.08949C178.166 3.80114 178.536 3.59233 178.954 3.46307C179.371 3.33049 179.81 3.2642 180.271 3.2642C180.576 3.2642 180.899 3.30066 181.241 3.37358C181.585 3.44318 181.907 3.57244 182.205 3.76136C182.507 3.95028 182.754 4.22041 182.946 4.57173C183.138 4.91974 183.234 5.37216 183.234 5.92898V11H181.782V9.95597H181.723C181.627 10.1482 181.483 10.3371 181.29 10.5227C181.098 10.7083 180.851 10.8625 180.55 10.9851C180.248 11.1077 179.887 11.169 179.466 11.169ZM179.789 9.97585C180.2 9.97585 180.551 9.89465 180.843 9.73224C181.138 9.56984 181.362 9.35772 181.514 9.09588C181.67 8.83073 181.748 8.54735 181.748 8.24574V7.26136C181.695 7.31439 181.592 7.36411 181.439 7.41051C181.29 7.4536 181.12 7.49171 180.927 7.52486C180.735 7.55469 180.548 7.58286 180.366 7.60938C180.183 7.63258 180.031 7.65246 179.908 7.66903C179.62 7.70549 179.356 7.76681 179.118 7.85298C178.882 7.93916 178.693 8.06345 178.551 8.22585C178.412 8.38494 178.342 8.59706 178.342 8.86222C178.342 9.23011 178.478 9.50852 178.75 9.69744C179.022 9.88305 179.368 9.97585 179.789 9.97585ZM186.701 0.818182V11H185.214V0.818182H186.701Z" fill="black"/>
</svg>
