<svg width="90" height="14" viewBox="0 0 90 14" fill="none" xmlns="http://www.w3.org/2000/svg">
<path d="M3.22159 11.169C2.73769 11.169 2.30019 11.0795 1.90909 10.9006C1.51799 10.7183 1.2081 10.4548 0.979403 10.1101C0.754025 9.76539 0.641335 9.3428 0.641335 8.84233C0.641335 8.41146 0.724195 8.05682 0.889915 7.77841C1.05563 7.5 1.27936 7.27959 1.56108 7.11719C1.8428 6.95478 2.15767 6.83215 2.50568 6.74929C2.85369 6.66643 3.20833 6.60346 3.5696 6.56037C4.02699 6.50734 4.3982 6.46425 4.68324 6.43111C4.96828 6.39465 5.17543 6.33665 5.30469 6.2571C5.43395 6.17756 5.49858 6.0483 5.49858 5.86932V5.83452C5.49858 5.40033 5.37595 5.06392 5.13068 4.82528C4.88873 4.58665 4.52746 4.46733 4.04688 4.46733C3.5464 4.46733 3.15199 4.57836 2.86364 4.80043C2.5786 5.01918 2.38139 5.26278 2.27202 5.53125L0.875 5.21307C1.04072 4.74905 1.28267 4.37453 1.60085 4.08949C1.92235 3.80114 2.2919 3.59233 2.70952 3.46307C3.12713 3.33049 3.56629 3.2642 4.02699 3.2642C4.33191 3.2642 4.65507 3.30066 4.99645 3.37358C5.34115 3.44318 5.66264 3.57244 5.96094 3.76136C6.26255 3.95028 6.50947 4.22041 6.7017 4.57173C6.89394 4.91974 6.99006 5.37216 6.99006 5.92898V11H5.53835V9.95597H5.47869C5.38258 10.1482 5.2384 10.3371 5.04616 10.5227C4.85393 10.7083 4.60701 10.8625 4.3054 10.9851C4.00379 11.1077 3.64252 11.169 3.22159 11.169ZM3.54474 9.97585C3.95573 9.97585 4.30706 9.89465 4.59872 9.73224C4.8937 9.56984 5.11742 9.35772 5.26989 9.09588C5.42566 8.83073 5.50355 8.54735 5.50355 8.24574V7.26136C5.45052 7.31439 5.34777 7.36411 5.19531 7.41051C5.04616 7.4536 4.87547 7.49171 4.68324 7.52486C4.491 7.55469 4.30374 7.58286 4.12145 7.60938C3.93916 7.63258 3.7867 7.65246 3.66406 7.66903C3.37571 7.70549 3.11222 7.76681 2.87358 7.85298C2.63826 7.93916 2.44934 8.06345 2.30682 8.22585C2.16761 8.38494 2.09801 8.59706 2.09801 8.86222C2.09801 9.23011 2.2339 9.50852 2.50568 9.69744C2.77746 9.88305 3.12382 9.97585 3.54474 9.97585ZM8.96999 11V3.36364H10.4068V4.5767H10.4863C10.6255 4.16572 10.8708 3.84257 11.2221 3.60724C11.5768 3.36861 11.9778 3.24929 12.4252 3.24929C12.5181 3.24929 12.6274 3.2526 12.7534 3.25923C12.8826 3.26586 12.9837 3.27415 13.0566 3.28409V4.70597C12.997 4.68939 12.8909 4.67116 12.7385 4.65128C12.586 4.62808 12.4335 4.61648 12.2811 4.61648C11.9297 4.61648 11.6165 4.69105 11.3414 4.8402C11.0697 4.98603 10.8542 5.18987 10.6951 5.4517C10.536 5.71023 10.4565 6.00521 10.4565 6.33665V11H8.96999ZM14.343 11V3.36364H15.7798V4.5767H15.8594C15.9986 4.16572 16.2438 3.84257 16.5952 3.60724C16.9498 3.36861 17.3509 3.24929 17.7983 3.24929C17.8911 3.24929 18.0005 3.2526 18.1264 3.25923C18.2557 3.26586 18.3568 3.27415 18.4297 3.28409V4.70597C18.37 4.68939 18.264 4.67116 18.1115 4.65128C17.959 4.62808 17.8066 4.61648 17.6541 4.61648C17.3028 4.61648 16.9896 4.69105 16.7145 4.8402C16.4427 4.98603 16.2273 5.18987 16.0682 5.4517C15.9091 5.71023 15.8295 6.00521 15.8295 6.33665V11H14.343ZM22.6593 11.1541C21.9434 11.1541 21.3186 10.9901 20.785 10.6619C20.2514 10.3338 19.8371 9.87476 19.5421 9.2848C19.2471 8.69484 19.0996 8.00544 19.0996 7.21662C19.0996 6.42448 19.2471 5.73177 19.5421 5.13849C19.8371 4.54522 20.2514 4.08452 20.785 3.75639C21.3186 3.42827 21.9434 3.2642 22.6593 3.2642C23.3752 3.2642 23.9999 3.42827 24.5336 3.75639C25.0672 4.08452 25.4815 4.54522 25.7765 5.13849C26.0714 5.73177 26.2189 6.42448 26.2189 7.21662C26.2189 8.00544 26.0714 8.69484 25.7765 9.2848C25.4815 9.87476 25.0672 10.3338 24.5336 10.6619C23.9999 10.9901 23.3752 11.1541 22.6593 11.1541ZM22.6642 9.90625C23.1283 9.90625 23.5127 9.78362 23.8176 9.53835C24.1226 9.29309 24.348 8.96662 24.4938 8.55895C24.6429 8.15128 24.7175 7.70218 24.7175 7.21165C24.7175 6.72443 24.6429 6.27699 24.4938 5.86932C24.348 5.45833 24.1226 5.12855 23.8176 4.87997C23.5127 4.63139 23.1283 4.5071 22.6642 4.5071C22.1969 4.5071 21.8091 4.63139 21.5009 4.87997C21.196 5.12855 20.9689 5.45833 20.8198 5.86932C20.6739 6.27699 20.601 6.72443 20.601 7.21165C20.601 7.70218 20.6739 8.15128 20.8198 8.55895C20.9689 8.96662 21.196 9.29309 21.5009 9.53835C21.8091 9.78362 22.1969 9.90625 22.6642 9.90625ZM29.3013 11L27.0542 3.36364H28.5904L30.0868 8.97159H30.1614L31.6628 3.36364H33.199L34.6905 8.94673H34.7651L36.2516 3.36364H37.7878L35.5456 11H34.0293L32.4782 5.48651H32.3638L30.8127 11H29.3013ZM43.6978 6.05327V7.34091H39.1836V6.05327H43.6978ZM50.5163 7.8331V3.36364H52.0078V11H50.5462V9.67756H50.4666C50.291 10.0852 50.0092 10.425 49.6214 10.6967C49.237 10.9652 48.758 11.0994 48.1847 11.0994C47.6941 11.0994 47.2599 10.9917 46.8821 10.7763C46.5076 10.5575 46.2126 10.2344 45.9972 9.80682C45.785 9.37926 45.679 8.85062 45.679 8.22088V3.36364H47.1655V8.0419C47.1655 8.56226 47.3097 8.97656 47.598 9.2848C47.8864 9.59304 48.2609 9.74716 48.7216 9.74716C49 9.74716 49.2768 9.67756 49.5518 9.53835C49.8303 9.39915 50.0606 9.18868 50.2429 8.90696C50.4285 8.62524 50.5196 8.26728 50.5163 7.8331ZM54.0051 13.8636V3.36364H55.4569V4.60156H55.5811C55.6673 4.44247 55.7916 4.25852 55.954 4.04972C56.1164 3.84091 56.3418 3.65862 56.6301 3.50284C56.9185 3.34375 57.2997 3.2642 57.7736 3.2642C58.3901 3.2642 58.9403 3.41998 59.4242 3.73153C59.9081 4.04309 60.2876 4.49219 60.5627 5.07884C60.8411 5.66548 60.9803 6.37145 60.9803 7.19673C60.9803 8.02202 60.8427 8.72964 60.5676 9.3196C60.2926 9.90625 59.9147 10.3587 59.4341 10.6768C58.9535 10.9917 58.405 11.1491 57.7885 11.1491C57.3245 11.1491 56.945 11.0713 56.65 10.9155C56.3584 10.7597 56.1297 10.5774 55.964 10.3686C55.7982 10.1598 55.6706 9.9742 55.5811 9.81179H55.4917V13.8636H54.0051ZM55.4618 7.18182C55.4618 7.71875 55.5397 8.18939 55.6955 8.59375C55.8513 8.99811 56.0766 9.31463 56.3716 9.54332C56.6666 9.7687 57.0279 9.88139 57.4554 9.88139C57.8996 9.88139 58.2708 9.76373 58.5691 9.52841C58.8674 9.28977 59.0927 8.96662 59.2452 8.55895C59.401 8.15128 59.4789 7.69223 59.4789 7.18182C59.4789 6.67803 59.4026 6.22562 59.2502 5.82457C59.101 5.42353 58.8757 5.10701 58.574 4.875C58.2757 4.64299 57.9029 4.52699 57.4554 4.52699C57.0246 4.52699 56.66 4.63802 56.3617 4.86009C56.0667 5.08215 55.843 5.39205 55.6905 5.78977C55.5381 6.1875 55.4618 6.65151 55.4618 7.18182ZM67.1451 6.05327V7.34091H62.6309V6.05327H67.1451ZM70.6127 0.818182V11H69.1262V0.818182H70.6127ZM75.9038 11.1541C75.1514 11.1541 74.5034 10.9934 73.9599 10.6719C73.4196 10.3471 73.002 9.89134 72.707 9.30469C72.4154 8.71473 72.2695 8.02367 72.2695 7.23153C72.2695 6.44934 72.4154 5.75994 72.707 5.16335C73.002 4.56676 73.413 4.10109 73.94 3.76633C74.4703 3.43158 75.0901 3.2642 75.7994 3.2642C76.2302 3.2642 76.6478 3.33546 77.0522 3.47798C77.4566 3.6205 77.8195 3.84422 78.141 4.14915C78.4625 4.45407 78.716 4.85014 78.9016 5.33736C79.0872 5.82126 79.18 6.40956 79.18 7.10227V7.62926H73.1097V6.51562H77.7234C77.7234 6.12453 77.6438 5.77817 77.4847 5.47656C77.3256 5.17164 77.1019 4.93134 76.8136 4.75568C76.5285 4.58002 76.1938 4.49219 75.8093 4.49219C75.3917 4.49219 75.0271 4.59493 74.7156 4.80043C74.4073 5.0026 74.1687 5.26776 73.9996 5.59588C73.8339 5.92069 73.7511 6.27367 73.7511 6.65483V7.52486C73.7511 8.03527 73.8406 8.46946 74.0195 8.82741C74.2018 9.18537 74.4554 9.45881 74.7802 9.64773C75.105 9.83333 75.4845 9.92614 75.9187 9.92614C76.2004 9.92614 76.4573 9.88636 76.6893 9.80682C76.9213 9.72396 77.1218 9.60133 77.2908 9.43892C77.4599 9.27652 77.5891 9.07599 77.6786 8.83736L79.0856 9.09091C78.9729 9.50521 78.7707 9.86813 78.479 10.1797C78.1907 10.4879 77.8278 10.7282 77.3903 10.9006C76.9561 11.0696 76.4606 11.1541 75.9038 11.1541ZM84.4636 3.36364V4.55682H80.1483V3.36364H84.4636ZM81.3315 11V2.47869C81.3315 2.00142 81.4359 1.60535 81.6447 1.29048C81.8535 0.972301 82.1303 0.735322 82.475 0.579545C82.8197 0.420454 83.1942 0.340908 83.5985 0.340908C83.8968 0.340908 84.152 0.365767 84.3642 0.415483C84.5763 0.461884 84.7337 0.504971 84.8365 0.544744L84.4885 1.74787C84.4189 1.72798 84.3294 1.70478 84.22 1.67827C84.1106 1.64844 83.978 1.63352 83.8223 1.63352C83.461 1.63352 83.2025 1.72301 83.0467 1.90199C82.8942 2.08097 82.818 2.33949 82.818 2.67756V11H81.3315ZM89.562 3.36364V4.55682H85.3908V3.36364H89.562ZM86.5094 1.53409H87.9959V8.75781C87.9959 9.04616 88.039 9.26326 88.1252 9.40909C88.2114 9.55161 88.3224 9.64938 88.4583 9.70241C88.5975 9.75213 88.7483 9.77699 88.9107 9.77699C89.03 9.77699 89.1344 9.7687 89.2239 9.75213C89.3134 9.73556 89.383 9.7223 89.4327 9.71236L89.7012 10.9403C89.615 10.9735 89.4924 11.0066 89.3333 11.0398C89.1742 11.0762 88.9753 11.0961 88.7367 11.0994C88.3456 11.1061 87.981 11.0365 87.6429 10.8906C87.3049 10.7448 87.0314 10.5194 86.8226 10.2145C86.6138 9.90956 86.5094 9.52675 86.5094 9.06605V1.53409Z" fill="black"/>
</svg>
