<svg width="77" height="14" viewBox="0 0 77 14" fill="none" xmlns="http://www.w3.org/2000/svg">
<path d="M4.21591 11.1541C3.4768 11.1541 2.84044 10.9867 2.30682 10.652C1.77652 10.3139 1.36884 9.84825 1.08381 9.25497C0.798769 8.66169 0.65625 7.98224 0.65625 7.21662C0.65625 6.44105 0.802083 5.75663 1.09375 5.16335C1.38542 4.56676 1.7964 4.10109 2.3267 3.76633C2.85701 3.43158 3.48177 3.2642 4.20099 3.2642C4.78101 3.2642 5.29806 3.37192 5.75213 3.58736C6.2062 3.79948 6.57244 4.09777 6.85085 4.48224C7.13258 4.86671 7.29995 5.31581 7.35298 5.82955H5.90625C5.8267 5.47159 5.64441 5.16335 5.35938 4.90483C5.07765 4.64631 4.69981 4.51705 4.22585 4.51705C3.81155 4.51705 3.44863 4.62642 3.13707 4.84517C2.82884 5.06061 2.58854 5.36884 2.41619 5.76989C2.24384 6.16761 2.15767 6.63826 2.15767 7.18182C2.15767 7.73864 2.24219 8.21922 2.41122 8.62358C2.58026 9.02794 2.81889 9.34115 3.12713 9.56321C3.43868 9.78527 3.80492 9.89631 4.22585 9.89631C4.50758 9.89631 4.76278 9.84493 4.99148 9.74219C5.22349 9.63613 5.41738 9.48532 5.57315 9.28977C5.73224 9.09422 5.84328 8.8589 5.90625 8.58381H7.35298C7.29995 9.07765 7.1392 9.51847 6.87074 9.90625C6.60227 10.294 6.24266 10.599 5.7919 10.821C5.34446 11.0431 4.81913 11.1541 4.21591 11.1541ZM10.4292 6.46591V11H8.94265V0.818182H10.4093V4.60653H10.5037C10.6827 4.19555 10.9561 3.86908 11.324 3.62713C11.6919 3.38518 12.1725 3.2642 12.7658 3.2642C13.2895 3.2642 13.7469 3.37192 14.138 3.58736C14.5324 3.80279 14.8373 4.12429 15.0527 4.55185C15.2715 4.97609 15.3809 5.50639 15.3809 6.14276V11H13.8944V6.32173C13.8944 5.7616 13.7502 5.32741 13.4618 5.01918C13.1735 4.70762 12.7724 4.55185 12.2587 4.55185C11.9074 4.55185 11.5925 4.62642 11.3141 4.77557C11.039 4.92472 10.8219 5.14347 10.6628 5.43182C10.507 5.71686 10.4292 6.06155 10.4292 6.46591ZM20.6557 11.1541C19.9033 11.1541 19.2554 10.9934 18.7118 10.6719C18.1716 10.3471 17.754 9.89134 17.459 9.30469C17.1673 8.71473 17.0215 8.02367 17.0215 7.23153C17.0215 6.44934 17.1673 5.75994 17.459 5.16335C17.754 4.56676 18.165 4.10109 18.6919 3.76633C19.2222 3.43158 19.842 3.2642 20.5513 3.2642C20.9822 3.2642 21.3998 3.33546 21.8042 3.47798C22.2085 3.6205 22.5714 3.84422 22.8929 4.14915C23.2144 4.45407 23.468 4.85014 23.6536 5.33736C23.8392 5.82126 23.932 6.40956 23.932 7.10227V7.62926H17.8617V6.51562H22.4753C22.4753 6.12453 22.3958 5.77817 22.2367 5.47656C22.0776 5.17164 21.8539 4.93134 21.5655 4.75568C21.2805 4.58002 20.9457 4.49219 20.5613 4.49219C20.1436 4.49219 19.7791 4.59493 19.4675 4.80043C19.1593 5.0026 18.9206 5.26776 18.7516 5.59588C18.5859 5.92069 18.503 6.27367 18.503 6.65483V7.52486C18.503 8.03527 18.5925 8.46946 18.7715 8.82741C18.9538 9.18537 19.2073 9.45881 19.5321 9.64773C19.8569 9.83333 20.2364 9.92614 20.6706 9.92614C20.9524 9.92614 21.2092 9.88636 21.4412 9.80682C21.6732 9.72396 21.8738 9.60133 22.0428 9.43892C22.2118 9.27652 22.3411 9.07599 22.4306 8.83736L23.8375 9.09091C23.7248 9.50521 23.5227 9.86813 23.231 10.1797C22.9426 10.4879 22.5797 10.7282 22.1422 10.9006C21.708 11.0696 21.2125 11.1541 20.6557 11.1541ZM31.8952 3.36364L29.1261 11H27.5352L24.761 3.36364H26.3569L28.2908 9.24006H28.3704L30.2994 3.36364H31.8952ZM33.2923 11V3.36364H34.729V4.5767H34.8086C34.9478 4.16572 35.1931 3.84257 35.5444 3.60724C35.899 3.36861 36.3001 3.24929 36.7475 3.24929C36.8403 3.24929 36.9497 3.2526 37.0756 3.25923C37.2049 3.26586 37.306 3.27415 37.3789 3.28409V4.70597C37.3192 4.68939 37.2132 4.67116 37.0607 4.65128C36.9083 4.62808 36.7558 4.61648 36.6033 4.61648C36.252 4.61648 35.9388 4.69105 35.6637 4.8402C35.3919 4.98603 35.1765 5.18987 35.0174 5.4517C34.8583 5.71023 34.7788 6.00521 34.7788 6.33665V11H33.2923ZM41.6085 11.1541C40.8926 11.1541 40.2678 10.9901 39.7342 10.6619C39.2006 10.3338 38.7863 9.87476 38.4913 9.2848C38.1963 8.69484 38.0488 8.00544 38.0488 7.21662C38.0488 6.42448 38.1963 5.73177 38.4913 5.13849C38.7863 4.54522 39.2006 4.08452 39.7342 3.75639C40.2678 3.42827 40.8926 3.2642 41.6085 3.2642C42.3244 3.2642 42.9492 3.42827 43.4828 3.75639C44.0164 4.08452 44.4307 4.54522 44.7257 5.13849C45.0207 5.73177 45.1681 6.42448 45.1681 7.21662C45.1681 8.00544 45.0207 8.69484 44.7257 9.2848C44.4307 9.87476 44.0164 10.3338 43.4828 10.6619C42.9492 10.9901 42.3244 11.1541 41.6085 11.1541ZM41.6135 9.90625C42.0775 9.90625 42.4619 9.78362 42.7669 9.53835C43.0718 9.29309 43.2972 8.96662 43.443 8.55895C43.5922 8.15128 43.6667 7.70218 43.6667 7.21165C43.6667 6.72443 43.5922 6.27699 43.443 5.86932C43.2972 5.45833 43.0718 5.12855 42.7669 4.87997C42.4619 4.63139 42.0775 4.5071 41.6135 4.5071C41.1461 4.5071 40.7583 4.63139 40.4501 4.87997C40.1452 5.12855 39.9181 5.45833 39.769 5.86932C39.6232 6.27699 39.5502 6.72443 39.5502 7.21165C39.5502 7.70218 39.6232 8.15128 39.769 8.55895C39.9181 8.96662 40.1452 9.29309 40.4501 9.53835C40.7583 9.78362 41.1461 9.90625 41.6135 9.90625ZM48.3139 6.46591V11H46.8274V3.36364H48.2543V4.60653H48.3487C48.5244 4.20218 48.7995 3.87737 49.174 3.6321C49.5518 3.38684 50.0275 3.2642 50.6009 3.2642C51.1212 3.2642 51.5769 3.37358 51.968 3.59233C52.3591 3.80777 52.6624 4.12926 52.8778 4.55682C53.0933 4.98437 53.201 5.51302 53.201 6.14276V11H51.7145V6.32173C51.7145 5.76823 51.5703 5.3357 51.282 5.02415C50.9936 4.70928 50.5975 4.55185 50.0938 4.55185C49.7491 4.55185 49.4425 4.62642 49.174 4.77557C48.9089 4.92472 48.6984 5.14347 48.5426 5.43182C48.3902 5.71686 48.3139 6.06155 48.3139 6.46591ZM59.6939 6.05327V7.34091H55.1797V6.05327H59.6939ZM66.5124 7.8331V3.36364H68.0039V11H66.5423V9.67756H66.4627C66.2871 10.0852 66.0053 10.425 65.6175 10.6967C65.2331 10.9652 64.7541 11.0994 64.1808 11.0994C63.6902 11.0994 63.256 10.9917 62.8782 10.7763C62.5037 10.5575 62.2087 10.2344 61.9933 9.80682C61.7811 9.37926 61.6751 8.85062 61.6751 8.22088V3.36364H63.1616V8.0419C63.1616 8.56226 63.3058 8.97656 63.5941 9.2848C63.8825 9.59304 64.257 9.74716 64.7177 9.74716C64.9961 9.74716 65.2728 9.67756 65.5479 9.53835C65.8263 9.39915 66.0567 9.18868 66.239 8.90696C66.4246 8.62524 66.5157 8.26728 66.5124 7.8331ZM70.0012 13.8636V3.36364H71.4529V4.60156H71.5772C71.6634 4.44247 71.7877 4.25852 71.9501 4.04972C72.1125 3.84091 72.3379 3.65862 72.6262 3.50284C72.9146 3.34375 73.2958 3.2642 73.7697 3.2642C74.3862 3.2642 74.9364 3.41998 75.4203 3.73153C75.9042 4.04309 76.2837 4.49219 76.5588 5.07884C76.8372 5.66548 76.9764 6.37145 76.9764 7.19673C76.9764 8.02202 76.8388 8.72964 76.5637 9.3196C76.2886 9.90625 75.9108 10.3587 75.4302 10.6768C74.9496 10.9917 74.4011 11.1491 73.7846 11.1491C73.3206 11.1491 72.9411 11.0713 72.6461 10.9155C72.3545 10.7597 72.1258 10.5774 71.96 10.3686C71.7943 10.1598 71.6667 9.9742 71.5772 9.81179H71.4877V13.8636H70.0012ZM71.4579 7.18182C71.4579 7.71875 71.5358 8.18939 71.6916 8.59375C71.8474 8.99811 72.0727 9.31463 72.3677 9.54332C72.6627 9.7687 73.024 9.88139 73.4515 9.88139C73.8957 9.88139 74.2669 9.76373 74.5652 9.52841C74.8635 9.28977 75.0888 8.96662 75.2413 8.55895C75.3971 8.15128 75.475 7.69223 75.475 7.18182C75.475 6.67803 75.3987 6.22562 75.2463 5.82457C75.0971 5.42353 74.8717 5.10701 74.5701 4.875C74.2718 4.64299 73.899 4.52699 73.4515 4.52699C73.0207 4.52699 72.6561 4.63802 72.3578 4.86009C72.0628 5.08215 71.8391 5.39205 71.6866 5.78977C71.5342 6.1875 71.4579 6.65151 71.4579 7.18182Z" fill="black"/>
</svg>
