<svg width="67" height="12" viewBox="0 0 67 12" fill="none" xmlns="http://www.w3.org/2000/svg">
<path d="M3.22159 11.169C2.73769 11.169 2.30019 11.0795 1.90909 10.9006C1.51799 10.7183 1.2081 10.4548 0.979403 10.1101C0.754025 9.76539 0.641335 9.3428 0.641335 8.84233C0.641335 8.41146 0.724195 8.05682 0.889915 7.77841C1.05563 7.5 1.27936 7.27959 1.56108 7.11719C1.8428 6.95478 2.15767 6.83215 2.50568 6.74929C2.85369 6.66643 3.20833 6.60346 3.5696 6.56037C4.02699 6.50734 4.3982 6.46425 4.68324 6.43111C4.96828 6.39465 5.17543 6.33665 5.30469 6.2571C5.43395 6.17756 5.49858 6.0483 5.49858 5.86932V5.83452C5.49858 5.40033 5.37595 5.06392 5.13068 4.82528C4.88873 4.58665 4.52746 4.46733 4.04688 4.46733C3.5464 4.46733 3.15199 4.57836 2.86364 4.80043C2.5786 5.01918 2.38139 5.26278 2.27202 5.53125L0.875 5.21307C1.04072 4.74905 1.28267 4.37453 1.60085 4.08949C1.92235 3.80114 2.2919 3.59233 2.70952 3.46307C3.12713 3.33049 3.56629 3.2642 4.02699 3.2642C4.33191 3.2642 4.65507 3.30066 4.99645 3.37358C5.34115 3.44318 5.66264 3.57244 5.96094 3.76136C6.26255 3.95028 6.50947 4.22041 6.7017 4.57173C6.89394 4.91974 6.99006 5.37216 6.99006 5.92898V11H5.53835V9.95597H5.47869C5.38258 10.1482 5.2384 10.3371 5.04616 10.5227C4.85393 10.7083 4.60701 10.8625 4.3054 10.9851C4.00379 11.1077 3.64252 11.169 3.22159 11.169ZM3.54474 9.97585C3.95573 9.97585 4.30706 9.89465 4.59872 9.73224C4.8937 9.56984 5.11742 9.35772 5.26989 9.09588C5.42566 8.83073 5.50355 8.54735 5.50355 8.24574V7.26136C5.45052 7.31439 5.34777 7.36411 5.19531 7.41051C5.04616 7.4536 4.87547 7.49171 4.68324 7.52486C4.491 7.55469 4.30374 7.58286 4.12145 7.60938C3.93916 7.63258 3.7867 7.65246 3.66406 7.66903C3.37571 7.70549 3.11222 7.76681 2.87358 7.85298C2.63826 7.93916 2.44934 8.06345 2.30682 8.22585C2.16761 8.38494 2.09801 8.59706 2.09801 8.86222C2.09801 9.23011 2.2339 9.50852 2.50568 9.69744C2.77746 9.88305 3.12382 9.97585 3.54474 9.97585ZM8.96999 11V3.36364H10.4068V4.5767H10.4863C10.6255 4.16572 10.8708 3.84257 11.2221 3.60724C11.5768 3.36861 11.9778 3.24929 12.4252 3.24929C12.5181 3.24929 12.6274 3.2526 12.7534 3.25923C12.8826 3.26586 12.9837 3.27415 13.0566 3.28409V4.70597C12.997 4.68939 12.8909 4.67116 12.7385 4.65128C12.586 4.62808 12.4335 4.61648 12.2811 4.61648C11.9297 4.61648 11.6165 4.69105 11.3414 4.8402C11.0697 4.98603 10.8542 5.18987 10.6951 5.4517C10.536 5.71023 10.4565 6.00521 10.4565 6.33665V11H8.96999ZM14.343 11V3.36364H15.7798V4.5767H15.8594C15.9986 4.16572 16.2438 3.84257 16.5952 3.60724C16.9498 3.36861 17.3509 3.24929 17.7983 3.24929C17.8911 3.24929 18.0005 3.2526 18.1264 3.25923C18.2557 3.26586 18.3568 3.27415 18.4297 3.28409V4.70597C18.37 4.68939 18.264 4.67116 18.1115 4.65128C17.959 4.62808 17.8066 4.61648 17.6541 4.61648C17.3028 4.61648 16.9896 4.69105 16.7145 4.8402C16.4427 4.98603 16.2273 5.18987 16.0682 5.4517C15.9091 5.71023 15.8295 6.00521 15.8295 6.33665V11H14.343ZM22.6593 11.1541C21.9434 11.1541 21.3186 10.9901 20.785 10.6619C20.2514 10.3338 19.8371 9.87476 19.5421 9.2848C19.2471 8.69484 19.0996 8.00544 19.0996 7.21662C19.0996 6.42448 19.2471 5.73177 19.5421 5.13849C19.8371 4.54522 20.2514 4.08452 20.785 3.75639C21.3186 3.42827 21.9434 3.2642 22.6593 3.2642C23.3752 3.2642 23.9999 3.42827 24.5336 3.75639C25.0672 4.08452 25.4815 4.54522 25.7765 5.13849C26.0714 5.73177 26.2189 6.42448 26.2189 7.21662C26.2189 8.00544 26.0714 8.69484 25.7765 9.2848C25.4815 9.87476 25.0672 10.3338 24.5336 10.6619C23.9999 10.9901 23.3752 11.1541 22.6593 11.1541ZM22.6642 9.90625C23.1283 9.90625 23.5127 9.78362 23.8176 9.53835C24.1226 9.29309 24.348 8.96662 24.4938 8.55895C24.6429 8.15128 24.7175 7.70218 24.7175 7.21165C24.7175 6.72443 24.6429 6.27699 24.4938 5.86932C24.348 5.45833 24.1226 5.12855 23.8176 4.87997C23.5127 4.63139 23.1283 4.5071 22.6642 4.5071C22.1969 4.5071 21.8091 4.63139 21.5009 4.87997C21.196 5.12855 20.9689 5.45833 20.8198 5.86932C20.6739 6.27699 20.601 6.72443 20.601 7.21165C20.601 7.70218 20.6739 8.15128 20.8198 8.55895C20.9689 8.96662 21.196 9.29309 21.5009 9.53835C21.8091 9.78362 22.1969 9.90625 22.6642 9.90625ZM29.3013 11L27.0542 3.36364H28.5904L30.0868 8.97159H30.1614L31.6628 3.36364H33.199L34.6905 8.94673H34.7651L36.2516 3.36364H37.7878L35.5456 11H34.0293L32.4782 5.48651H32.3638L30.8127 11H29.3013ZM43.6978 6.05327V7.34091H39.1836V6.05327H43.6978ZM47.1655 0.818182V11H45.679V0.818182H47.1655ZM52.4565 11.1541C51.7041 11.1541 51.0562 10.9934 50.5126 10.6719C49.9724 10.3471 49.5547 9.89134 49.2598 9.30469C48.9681 8.71473 48.8223 8.02367 48.8223 7.23153C48.8223 6.44934 48.9681 5.75994 49.2598 5.16335C49.5547 4.56676 49.9657 4.10109 50.4927 3.76633C51.023 3.43158 51.6428 3.2642 52.3521 3.2642C52.783 3.2642 53.2006 3.33546 53.6049 3.47798C54.0093 3.6205 54.3722 3.84422 54.6937 4.14915C55.0152 4.45407 55.2688 4.85014 55.4544 5.33736C55.64 5.82126 55.7328 6.40956 55.7328 7.10227V7.62926H49.6625V6.51562H54.2761C54.2761 6.12453 54.1966 5.77817 54.0375 5.47656C53.8784 5.17164 53.6547 4.93134 53.3663 4.75568C53.0813 4.58002 52.7465 4.49219 52.362 4.49219C51.9444 4.49219 51.5798 4.59493 51.2683 4.80043C50.96 5.0026 50.7214 5.26776 50.5524 5.59588C50.3867 5.92069 50.3038 6.27367 50.3038 6.65483V7.52486C50.3038 8.03527 50.3933 8.46946 50.5723 8.82741C50.7546 9.18537 51.0081 9.45881 51.3329 9.64773C51.6577 9.83333 52.0372 9.92614 52.4714 9.92614C52.7531 9.92614 53.01 9.88636 53.242 9.80682C53.474 9.72396 53.6745 9.60133 53.8436 9.43892C54.0126 9.27652 54.1419 9.07599 54.2314 8.83736L55.6383 9.09091C55.5256 9.50521 55.3234 9.86813 55.0318 10.1797C54.7434 10.4879 54.3805 10.7282 53.943 10.9006C53.5088 11.0696 53.0133 11.1541 52.4565 11.1541ZM61.0163 3.36364V4.55682H56.701V3.36364H61.0163ZM57.8842 11V2.47869C57.8842 2.00142 57.9886 1.60535 58.1974 1.29048C58.4063 0.972301 58.683 0.735322 59.0277 0.579545C59.3724 0.420454 59.7469 0.340908 60.1513 0.340908C60.4496 0.340908 60.7048 0.365767 60.9169 0.415483C61.129 0.461884 61.2865 0.504971 61.3892 0.544744L61.0412 1.74787C60.9716 1.72798 60.8821 1.70478 60.7727 1.67827C60.6634 1.64844 60.5308 1.63352 60.375 1.63352C60.0137 1.63352 59.7552 1.72301 59.5994 1.90199C59.447 2.08097 59.3707 2.33949 59.3707 2.67756V11H57.8842ZM66.1147 3.36364V4.55682H61.9435V3.36364H66.1147ZM63.0621 1.53409H64.5487V8.75781C64.5487 9.04616 64.5917 9.26326 64.6779 9.40909C64.7641 9.55161 64.8751 9.64938 65.011 9.70241C65.1502 9.75213 65.301 9.77699 65.4634 9.77699C65.5827 9.77699 65.6871 9.7687 65.7766 9.75213C65.8661 9.73556 65.9357 9.7223 65.9854 9.71236L66.2539 10.9403C66.1677 10.9735 66.0451 11.0066 65.886 11.0398C65.7269 11.0762 65.5281 11.0961 65.2894 11.0994C64.8983 11.1061 64.5337 11.0365 64.1957 10.8906C63.8576 10.7448 63.5842 10.5194 63.3754 10.2145C63.1665 9.90956 63.0621 9.52675 63.0621 9.06605V1.53409Z" fill="black"/>
</svg>
