<svg width="143" height="14" viewBox="0 0 143 14" fill="none" xmlns="http://www.w3.org/2000/svg">
<path d="M3.22159 11.169C2.73769 11.169 2.30019 11.0795 1.90909 10.9006C1.51799 10.7183 1.2081 10.4548 0.979403 10.1101C0.754025 9.76539 0.641335 9.3428 0.641335 8.84233C0.641335 8.41146 0.724195 8.05682 0.889915 7.77841C1.05563 7.5 1.27936 7.27959 1.56108 7.11719C1.8428 6.95478 2.15767 6.83215 2.50568 6.74929C2.85369 6.66643 3.20833 6.60346 3.5696 6.56037C4.02699 6.50734 4.3982 6.46425 4.68324 6.43111C4.96828 6.39465 5.17543 6.33665 5.30469 6.2571C5.43395 6.17756 5.49858 6.0483 5.49858 5.86932V5.83452C5.49858 5.40033 5.37595 5.06392 5.13068 4.82528C4.88873 4.58665 4.52746 4.46733 4.04688 4.46733C3.5464 4.46733 3.15199 4.57836 2.86364 4.80043C2.5786 5.01918 2.38139 5.26278 2.27202 5.53125L0.875 5.21307C1.04072 4.74905 1.28267 4.37453 1.60085 4.08949C1.92235 3.80114 2.2919 3.59233 2.70952 3.46307C3.12713 3.33049 3.56629 3.2642 4.02699 3.2642C4.33191 3.2642 4.65507 3.30066 4.99645 3.37358C5.34115 3.44318 5.66264 3.57244 5.96094 3.76136C6.26255 3.95028 6.50947 4.22041 6.7017 4.57173C6.89394 4.91974 6.99006 5.37216 6.99006 5.92898V11H5.53835V9.95597H5.47869C5.38258 10.1482 5.2384 10.3371 5.04616 10.5227C4.85393 10.7083 4.60701 10.8625 4.3054 10.9851C4.00379 11.1077 3.64252 11.169 3.22159 11.169ZM3.54474 9.97585C3.95573 9.97585 4.30706 9.89465 4.59872 9.73224C4.8937 9.56984 5.11742 9.35772 5.26989 9.09588C5.42566 8.83073 5.50355 8.54735 5.50355 8.24574V7.26136C5.45052 7.31439 5.34777 7.36411 5.19531 7.41051C5.04616 7.4536 4.87547 7.49171 4.68324 7.52486C4.491 7.55469 4.30374 7.58286 4.12145 7.60938C3.93916 7.63258 3.7867 7.65246 3.66406 7.66903C3.37571 7.70549 3.11222 7.76681 2.87358 7.85298C2.63826 7.93916 2.44934 8.06345 2.30682 8.22585C2.16761 8.38494 2.09801 8.59706 2.09801 8.86222C2.09801 9.23011 2.2339 9.50852 2.50568 9.69744C2.77746 9.88305 3.12382 9.97585 3.54474 9.97585ZM8.96999 11V3.36364H10.4068V4.5767H10.4863C10.6255 4.16572 10.8708 3.84257 11.2221 3.60724C11.5768 3.36861 11.9778 3.24929 12.4252 3.24929C12.5181 3.24929 12.6274 3.2526 12.7534 3.25923C12.8826 3.26586 12.9837 3.27415 13.0566 3.28409V4.70597C12.997 4.68939 12.8909 4.67116 12.7385 4.65128C12.586 4.62808 12.4335 4.61648 12.2811 4.61648C11.9297 4.61648 11.6165 4.69105 11.3414 4.8402C11.0697 4.98603 10.8542 5.18987 10.6951 5.4517C10.536 5.71023 10.4565 6.00521 10.4565 6.33665V11H8.96999ZM14.343 11V3.36364H15.7798V4.5767H15.8594C15.9986 4.16572 16.2438 3.84257 16.5952 3.60724C16.9498 3.36861 17.3509 3.24929 17.7983 3.24929C17.8911 3.24929 18.0005 3.2526 18.1264 3.25923C18.2557 3.26586 18.3568 3.27415 18.4297 3.28409V4.70597C18.37 4.68939 18.264 4.67116 18.1115 4.65128C17.959 4.62808 17.8066 4.61648 17.6541 4.61648C17.3028 4.61648 16.9896 4.69105 16.7145 4.8402C16.4427 4.98603 16.2273 5.18987 16.0682 5.4517C15.9091 5.71023 15.8295 6.00521 15.8295 6.33665V11H14.343ZM22.6593 11.1541C21.9434 11.1541 21.3186 10.9901 20.785 10.6619C20.2514 10.3338 19.8371 9.87476 19.5421 9.2848C19.2471 8.69484 19.0996 8.00544 19.0996 7.21662C19.0996 6.42448 19.2471 5.73177 19.5421 5.13849C19.8371 4.54522 20.2514 4.08452 20.785 3.75639C21.3186 3.42827 21.9434 3.2642 22.6593 3.2642C23.3752 3.2642 23.9999 3.42827 24.5336 3.75639C25.0672 4.08452 25.4815 4.54522 25.7765 5.13849C26.0714 5.73177 26.2189 6.42448 26.2189 7.21662C26.2189 8.00544 26.0714 8.69484 25.7765 9.2848C25.4815 9.87476 25.0672 10.3338 24.5336 10.6619C23.9999 10.9901 23.3752 11.1541 22.6593 11.1541ZM22.6642 9.90625C23.1283 9.90625 23.5127 9.78362 23.8176 9.53835C24.1226 9.29309 24.348 8.96662 24.4938 8.55895C24.6429 8.15128 24.7175 7.70218 24.7175 7.21165C24.7175 6.72443 24.6429 6.27699 24.4938 5.86932C24.348 5.45833 24.1226 5.12855 23.8176 4.87997C23.5127 4.63139 23.1283 4.5071 22.6642 4.5071C22.1969 4.5071 21.8091 4.63139 21.5009 4.87997C21.196 5.12855 20.9689 5.45833 20.8198 5.86932C20.6739 6.27699 20.601 6.72443 20.601 7.21165C20.601 7.70218 20.6739 8.15128 20.8198 8.55895C20.9689 8.96662 21.196 9.29309 21.5009 9.53835C21.8091 9.78362 22.1969 9.90625 22.6642 9.90625ZM29.3013 11L27.0542 3.36364H28.5904L30.0868 8.97159H30.1614L31.6628 3.36364H33.199L34.6905 8.94673H34.7651L36.2516 3.36364H37.7878L35.5456 11H34.0293L32.4782 5.48651H32.3638L30.8127 11H29.3013ZM43.6978 6.05327V7.34091H39.1836V6.05327H43.6978ZM47.1655 6.46591V11H45.679V3.36364H47.1058V4.60653H47.2003C47.3759 4.20218 47.651 3.87737 48.0256 3.6321C48.4034 3.38684 48.879 3.2642 49.4524 3.2642C49.9728 3.2642 50.4285 3.37358 50.8196 3.59233C51.2107 3.80777 51.514 4.12926 51.7294 4.55682C51.9448 4.98437 52.0526 5.51302 52.0526 6.14276V11H50.5661V6.32173C50.5661 5.76823 50.4219 5.3357 50.1335 5.02415C49.8452 4.70928 49.4491 4.55185 48.9453 4.55185C48.6006 4.55185 48.294 4.62642 48.0256 4.77557C47.7604 4.92472 47.55 5.14347 47.3942 5.43182C47.2417 5.71686 47.1655 6.06155 47.1655 6.46591ZM56.2685 11.169C55.7846 11.169 55.3471 11.0795 54.956 10.9006C54.5649 10.7183 54.255 10.4548 54.0263 10.1101C53.8009 9.76539 53.6882 9.3428 53.6882 8.84233C53.6882 8.41146 53.7711 8.05682 53.9368 7.77841C54.1025 7.5 54.3262 7.27959 54.608 7.11719C54.8897 6.95478 55.2045 6.83215 55.5526 6.74929C55.9006 6.66643 56.2552 6.60346 56.6165 6.56037C57.0739 6.50734 57.4451 6.46425 57.7301 6.43111C58.0152 6.39465 58.2223 6.33665 58.3516 6.2571C58.4808 6.17756 58.5455 6.0483 58.5455 5.86932V5.83452C58.5455 5.40033 58.4228 5.06392 58.1776 4.82528C57.9356 4.58665 57.5743 4.46733 57.0938 4.46733C56.5933 4.46733 56.1989 4.57836 55.9105 4.80043C55.6255 5.01918 55.4283 5.26278 55.3189 5.53125L53.9219 5.21307C54.0876 4.74905 54.3295 4.37453 54.6477 4.08949C54.9692 3.80114 55.3388 3.59233 55.7564 3.46307C56.174 3.33049 56.6132 3.2642 57.0739 3.2642C57.3788 3.2642 57.7019 3.30066 58.0433 3.37358C58.388 3.44318 58.7095 3.57244 59.0078 3.76136C59.3094 3.95028 59.5563 4.22041 59.7486 4.57173C59.9408 4.91974 60.0369 5.37216 60.0369 5.92898V11H58.5852V9.95597H58.5256C58.4295 10.1482 58.2853 10.3371 58.093 10.5227C57.9008 10.7083 57.6539 10.8625 57.3523 10.9851C57.0507 11.1077 56.6894 11.169 56.2685 11.169ZM56.5916 9.97585C57.0026 9.97585 57.3539 9.89465 57.6456 9.73224C57.9406 9.56984 58.1643 9.35772 58.3168 9.09588C58.4725 8.83073 58.5504 8.54735 58.5504 8.24574V7.26136C58.4974 7.31439 58.3946 7.36411 58.2422 7.41051C58.093 7.4536 57.9223 7.49171 57.7301 7.52486C57.5379 7.55469 57.3506 7.58286 57.1683 7.60938C56.986 7.63258 56.8336 7.65246 56.7109 7.66903C56.4226 7.70549 56.1591 7.76681 55.9205 7.85298C55.6851 7.93916 55.4962 8.06345 55.3537 8.22585C55.2145 8.38494 55.1449 8.59706 55.1449 8.86222C55.1449 9.23011 55.2808 9.50852 55.5526 9.69744C55.8243 9.88305 56.1707 9.97585 56.5916 9.97585ZM62.0169 11V3.36364H63.4537V4.5767H63.5332C63.6724 4.16572 63.9177 3.84257 64.269 3.60724C64.6236 3.36861 65.0247 3.24929 65.4721 3.24929C65.5649 3.24929 65.6743 3.2526 65.8002 3.25923C65.9295 3.26586 66.0306 3.27415 66.1035 3.28409V4.70597C66.0439 4.68939 65.9378 4.67116 65.7853 4.65128C65.6329 4.62808 65.4804 4.61648 65.3279 4.61648C64.9766 4.61648 64.6634 4.69105 64.3883 4.8402C64.1165 4.98603 63.9011 5.18987 63.742 5.4517C63.5829 5.71023 63.5034 6.00521 63.5034 6.33665V11H62.0169ZM67.3899 11V3.36364H68.8267V4.5767H68.9062C69.0455 4.16572 69.2907 3.84257 69.642 3.60724C69.9967 3.36861 70.3977 3.24929 70.8452 3.24929C70.938 3.24929 71.0473 3.2526 71.1733 3.25923C71.3026 3.26586 71.4036 3.27415 71.4766 3.28409V4.70597C71.4169 4.68939 71.3108 4.67116 71.1584 4.65128C71.0059 4.62808 70.8535 4.61648 70.701 4.61648C70.3497 4.61648 70.0365 4.69105 69.7614 4.8402C69.4896 4.98603 69.2741 5.18987 69.1151 5.4517C68.956 5.71023 68.8764 6.00521 68.8764 6.33665V11H67.3899ZM75.7061 11.1541C74.9902 11.1541 74.3655 10.9901 73.8319 10.6619C73.2982 10.3338 72.8839 9.87476 72.589 9.2848C72.294 8.69484 72.1465 8.00544 72.1465 7.21662C72.1465 6.42448 72.294 5.73177 72.589 5.13849C72.8839 4.54522 73.2982 4.08452 73.8319 3.75639C74.3655 3.42827 74.9902 3.2642 75.7061 3.2642C76.4221 3.2642 77.0468 3.42827 77.5804 3.75639C78.1141 4.08452 78.5283 4.54522 78.8233 5.13849C79.1183 5.73177 79.2658 6.42448 79.2658 7.21662C79.2658 8.00544 79.1183 8.69484 78.8233 9.2848C78.5283 9.87476 78.1141 10.3338 77.5804 10.6619C77.0468 10.9901 76.4221 11.1541 75.7061 11.1541ZM75.7111 9.90625C76.1751 9.90625 76.5596 9.78362 76.8645 9.53835C77.1694 9.29309 77.3948 8.96662 77.5407 8.55895C77.6898 8.15128 77.7644 7.70218 77.7644 7.21165C77.7644 6.72443 77.6898 6.27699 77.5407 5.86932C77.3948 5.45833 77.1694 5.12855 76.8645 4.87997C76.5596 4.63139 76.1751 4.5071 75.7111 4.5071C75.2438 4.5071 74.856 4.63139 74.5478 4.87997C74.2428 5.12855 74.0158 5.45833 73.8667 5.86932C73.7208 6.27699 73.6479 6.72443 73.6479 7.21165C73.6479 7.70218 73.7208 8.15128 73.8667 8.55895C74.0158 8.96662 74.2428 9.29309 74.5478 9.53835C74.856 9.78362 75.2438 9.90625 75.7111 9.90625ZM82.3482 11L80.101 3.36364H81.6373L83.1337 8.97159H83.2083L84.7097 3.36364H86.2459L87.7374 8.94673H87.812L89.2985 3.36364H90.8347L88.5925 11H87.0762L85.525 5.48651H85.4107L83.8596 11H82.3482ZM96.7447 6.05327V7.34091H92.2305V6.05327H96.7447ZM103.563 7.8331V3.36364H105.055V11H103.593V9.67756H103.513C103.338 10.0852 103.056 10.425 102.668 10.6967C102.284 10.9652 101.805 11.0994 101.232 11.0994C100.741 11.0994 100.307 10.9917 99.929 10.7763C99.5545 10.5575 99.2595 10.2344 99.044 9.80682C98.8319 9.37926 98.7259 8.85062 98.7259 8.22088V3.36364H100.212V8.0419C100.212 8.56226 100.357 8.97656 100.645 9.2848C100.933 9.59304 101.308 9.74716 101.768 9.74716C102.047 9.74716 102.324 9.67756 102.599 9.53835C102.877 9.39915 103.107 9.18868 103.29 8.90696C103.475 8.62524 103.567 8.26728 103.563 7.8331ZM107.052 13.8636V3.36364H108.504V4.60156H108.628C108.714 4.44247 108.838 4.25852 109.001 4.04972C109.163 3.84091 109.389 3.65862 109.677 3.50284C109.965 3.34375 110.347 3.2642 110.82 3.2642C111.437 3.2642 111.987 3.41998 112.471 3.73153C112.955 4.04309 113.334 4.49219 113.61 5.07884C113.888 5.66548 114.027 6.37145 114.027 7.19673C114.027 8.02202 113.89 8.72964 113.615 9.3196C113.339 9.90625 112.962 10.3587 112.481 10.6768C112 10.9917 111.452 11.1491 110.835 11.1491C110.371 11.1491 109.992 11.0713 109.697 10.9155C109.405 10.7597 109.177 10.5774 109.011 10.3686C108.845 10.1598 108.718 9.9742 108.628 9.81179H108.539V13.8636H107.052ZM108.509 7.18182C108.509 7.71875 108.587 8.18939 108.742 8.59375C108.898 8.99811 109.124 9.31463 109.419 9.54332C109.713 9.7687 110.075 9.88139 110.502 9.88139C110.946 9.88139 111.318 9.76373 111.616 9.52841C111.914 9.28977 112.14 8.96662 112.292 8.55895C112.448 8.15128 112.526 7.69223 112.526 7.18182C112.526 6.67803 112.45 6.22562 112.297 5.82457C112.148 5.42353 111.923 5.10701 111.621 4.875C111.323 4.64299 110.95 4.52699 110.502 4.52699C110.071 4.52699 109.707 4.63802 109.409 4.86009C109.114 5.08215 108.89 5.39205 108.737 5.78977C108.585 6.1875 108.509 6.65151 108.509 7.18182ZM120.192 6.05327V7.34091H115.678V6.05327H120.192ZM123.66 0.818182V11H122.173V0.818182H123.66ZM128.951 11.1541C128.198 11.1541 127.55 10.9934 127.007 10.6719C126.467 10.3471 126.049 9.89134 125.754 9.30469C125.462 8.71473 125.316 8.02367 125.316 7.23153C125.316 6.44934 125.462 5.75994 125.754 5.16335C126.049 4.56676 126.46 4.10109 126.987 3.76633C127.517 3.43158 128.137 3.2642 128.846 3.2642C129.277 3.2642 129.695 3.33546 130.099 3.47798C130.503 3.6205 130.866 3.84422 131.188 4.14915C131.509 4.45407 131.763 4.85014 131.949 5.33736C132.134 5.82126 132.227 6.40956 132.227 7.10227V7.62926H126.157V6.51562H130.77C130.77 6.12453 130.691 5.77817 130.532 5.47656C130.373 5.17164 130.149 4.93134 129.86 4.75568C129.575 4.58002 129.241 4.49219 128.856 4.49219C128.439 4.49219 128.074 4.59493 127.762 4.80043C127.454 5.0026 127.216 5.26776 127.047 5.59588C126.881 5.92069 126.798 6.27367 126.798 6.65483V7.52486C126.798 8.03527 126.887 8.46946 127.066 8.82741C127.249 9.18537 127.502 9.45881 127.827 9.64773C128.152 9.83333 128.531 9.92614 128.966 9.92614C129.247 9.92614 129.504 9.88636 129.736 9.80682C129.968 9.72396 130.169 9.60133 130.338 9.43892C130.507 9.27652 130.636 9.07599 130.725 8.83736L132.132 9.09091C132.02 9.50521 131.818 9.86813 131.526 10.1797C131.238 10.4879 130.875 10.7282 130.437 10.9006C130.003 11.0696 129.507 11.1541 128.951 11.1541ZM137.51 3.36364V4.55682H133.195V3.36364H137.51ZM134.378 11V2.47869C134.378 2.00142 134.483 1.60535 134.692 1.29048C134.9 0.972301 135.177 0.735322 135.522 0.579545C135.867 0.420454 136.241 0.340908 136.645 0.340908C136.944 0.340908 137.199 0.365767 137.411 0.415483C137.623 0.461884 137.781 0.504971 137.883 0.544744L137.535 1.74787C137.466 1.72798 137.376 1.70478 137.267 1.67827C137.157 1.64844 137.025 1.63352 136.869 1.63352C136.508 1.63352 136.249 1.72301 136.094 1.90199C135.941 2.08097 135.865 2.33949 135.865 2.67756V11H134.378ZM142.609 3.36364V4.55682H138.438V3.36364H142.609ZM139.556 1.53409H141.043V8.75781C141.043 9.04616 141.086 9.26326 141.172 9.40909C141.258 9.55161 141.369 9.64938 141.505 9.70241C141.644 9.75213 141.795 9.77699 141.958 9.77699C142.077 9.77699 142.181 9.7687 142.271 9.75213C142.36 9.73556 142.43 9.7223 142.48 9.71236L142.748 10.9403C142.662 10.9735 142.539 11.0066 142.38 11.0398C142.221 11.0762 142.022 11.0961 141.784 11.0994C141.392 11.1061 141.028 11.0365 140.69 10.8906C140.352 10.7448 140.078 10.5194 139.869 10.2145C139.661 9.90956 139.556 9.52675 139.556 9.06605V1.53409Z" fill="black"/>
</svg>
