<svg viewBox="0 0 84 14" fill="none" stroke-width="2" stroke="currentColor" aria-hidden="true">
  <path d="M4.21591 11.1541C3.4768 11.1541 2.84044 10.9867 2.30682 10.652C1.77652 10.3139 1.36884 9.84825 1.08381 9.25497C0.798769 8.66169 0.65625 7.98224 0.65625 7.21662C0.65625 6.44105 0.802083 5.75663 1.09375 5.16335C1.38542 4.56676 1.7964 4.10109 2.3267 3.76633C2.85701 3.43158 3.48177 3.2642 4.20099 3.2642C4.78101 3.2642 5.29806 3.37192 5.75213 3.58736C6.2062 3.79948 6.57244 4.09777 6.85085 4.48224C7.13258 4.86671 7.29995 5.31581 7.35298 5.82955H5.90625C5.8267 5.47159 5.64441 5.16335 5.35938 4.90483C5.07765 4.64631 4.69981 4.51705 4.22585 4.51705C3.81155 4.51705 3.44863 4.62642 3.13707 4.84517C2.82884 5.06061 2.58854 5.36884 2.41619 5.76989C2.24384 6.16761 2.15767 6.63826 2.15767 7.18182C2.15767 7.73864 2.24219 8.21922 2.41122 8.62358C2.58026 9.02794 2.81889 9.34115 3.12713 9.56321C3.43868 9.78527 3.80492 9.89631 4.22585 9.89631C4.50758 9.89631 4.76278 9.84493 4.99148 9.74219C5.22349 9.63613 5.41738 9.48532 5.57315 9.28977C5.73224 9.09422 5.84328 8.8589 5.90625 8.58381H7.35298C7.29995 9.07765 7.1392 9.51847 6.87074 9.90625C6.60227 10.294 6.24266 10.599 5.7919 10.821C5.34446 11.0431 4.81913 11.1541 4.21591 11.1541ZM11.165 11.169C10.681 11.169 10.2435 11.0795 9.85245 10.9006C9.46135 10.7183 9.15146 10.4548 8.92276 10.1101C8.69738 9.76539 8.58469 9.3428 8.58469 8.84233C8.58469 8.41146 8.66755 8.05682 8.83327 7.77841C8.99899 7.5 9.22272 7.27959 9.50444 7.11719C9.78616 6.95478 10.101 6.83215 10.449 6.74929C10.7971 6.66643 11.1517 6.60346 11.513 6.56037C11.9703 6.50734 12.3416 6.46425 12.6266 6.43111C12.9116 6.39465 13.1188 6.33665 13.248 6.2571C13.3773 6.17756 13.4419 6.0483 13.4419 5.86932V5.83452C13.4419 5.40033 13.3193 5.06392 13.074 4.82528C12.8321 4.58665 12.4708 4.46733 11.9902 4.46733C11.4898 4.46733 11.0953 4.57836 10.807 4.80043C10.522 5.01918 10.3248 5.26278 10.2154 5.53125L8.81836 5.21307C8.98408 4.74905 9.22603 4.37453 9.54421 4.08949C9.86571 3.80114 10.2353 3.59233 10.6529 3.46307C11.0705 3.33049 11.5096 3.2642 11.9703 3.2642C12.2753 3.2642 12.5984 3.30066 12.9398 3.37358C13.2845 3.44318 13.606 3.57244 13.9043 3.76136C14.2059 3.95028 14.4528 4.22041 14.6451 4.57173C14.8373 4.91974 14.9334 5.37216 14.9334 5.92898V11H13.4817V9.95597H13.4221C13.3259 10.1482 13.1818 10.3371 12.9895 10.5227C12.7973 10.7083 12.5504 10.8625 12.2488 10.9851C11.9471 11.1077 11.5859 11.169 11.165 11.169ZM11.4881 9.97585C11.8991 9.97585 12.2504 9.89465 12.5421 9.73224C12.8371 9.56984 13.0608 9.35772 13.2132 9.09588C13.369 8.83073 13.4469 8.54735 13.4469 8.24574V7.26136C13.3939 7.31439 13.2911 7.36411 13.1387 7.41051C12.9895 7.4536 12.8188 7.49171 12.6266 7.52486C12.4344 7.55469 12.2471 7.58286 12.0648 7.60938C11.8825 7.63258 11.7301 7.65246 11.6074 7.66903C11.3191 7.70549 11.0556 7.76681 10.8169 7.85298C10.5816 7.93916 10.3927 8.06345 10.2502 8.22585C10.111 8.38494 10.0414 8.59706 10.0414 8.86222C10.0414 9.23011 10.1773 9.50852 10.449 9.69744C10.7208 9.88305 11.0672 9.97585 11.4881 9.97585ZM16.9134 11V3.36364H18.3402V4.60653H18.4347C18.5938 4.18561 18.8539 3.85748 19.2152 3.62216C19.5765 3.38352 20.009 3.2642 20.5128 3.2642C21.0232 3.2642 21.4508 3.38352 21.7955 3.62216C22.1435 3.8608 22.4003 4.18892 22.5661 4.60653H22.6456C22.8279 4.19886 23.1179 3.87405 23.5156 3.6321C23.9134 3.38684 24.3873 3.2642 24.9375 3.2642C25.6302 3.2642 26.1953 3.4813 26.6328 3.91548C27.0736 4.34967 27.294 5.00426 27.294 5.87926V11H25.8075V6.01847C25.8075 5.50142 25.6667 5.12689 25.3849 4.89489C25.1032 4.66288 24.7668 4.54688 24.3757 4.54688C23.8918 4.54688 23.5156 4.69602 23.2472 4.99432C22.9787 5.2893 22.8445 5.6688 22.8445 6.13281V11H21.3629V5.92401C21.3629 5.50971 21.2337 5.17661 20.9751 4.92472C20.7166 4.67282 20.3802 4.54688 19.9659 4.54688C19.6842 4.54688 19.424 4.62145 19.1854 4.7706C18.95 4.91643 18.7595 5.12026 18.6136 5.3821C18.4711 5.64394 18.3999 5.94721 18.3999 6.2919V11H16.9134ZM32.5776 11.1541C31.8252 11.1541 31.1773 10.9934 30.6337 10.6719C30.0935 10.3471 29.6758 9.89134 29.3809 9.30469C29.0892 8.71473 28.9434 8.02367 28.9434 7.23153C28.9434 6.44934 29.0892 5.75994 29.3809 5.16335C29.6758 4.56676 30.0868 4.10109 30.6138 3.76633C31.1441 3.43158 31.7639 3.2642 32.4732 3.2642C32.9041 3.2642 33.3217 3.33546 33.726 3.47798C34.1304 3.6205 34.4933 3.84422 34.8148 4.14915C35.1363 4.45407 35.3899 4.85014 35.5755 5.33736C35.7611 5.82126 35.8539 6.40956 35.8539 7.10227V7.62926H29.7836V6.51562H34.3972C34.3972 6.12453 34.3176 5.77817 34.1586 5.47656C33.9995 5.17164 33.7757 4.93134 33.4874 4.75568C33.2024 4.58002 32.8676 4.49219 32.4831 4.49219C32.0655 4.49219 31.7009 4.59493 31.3894 4.80043C31.0811 5.0026 30.8425 5.26776 30.6735 5.59588C30.5078 5.92069 30.4249 6.27367 30.4249 6.65483V7.52486C30.4249 8.03527 30.5144 8.46946 30.6934 8.82741C30.8757 9.18537 31.1292 9.45881 31.454 9.64773C31.7788 9.83333 32.1583 9.92614 32.5925 9.92614C32.8742 9.92614 33.1311 9.88636 33.3631 9.80682C33.5951 9.72396 33.7956 9.60133 33.9647 9.43892C34.1337 9.27652 34.263 9.07599 34.3525 8.83736L35.7594 9.09091C35.6467 9.50521 35.4445 9.86813 35.1529 10.1797C34.8645 10.4879 34.5016 10.7282 34.0641 10.9006C33.6299 11.0696 33.1344 11.1541 32.5776 11.1541ZM37.5032 11V3.36364H38.94V4.5767H39.0195C39.1587 4.16572 39.404 3.84257 39.7553 3.60724C40.11 3.36861 40.511 3.24929 40.9585 3.24929C41.0513 3.24929 41.1606 3.2526 41.2866 3.25923C41.4158 3.26586 41.5169 3.27415 41.5898 3.28409V4.70597C41.5302 4.68939 41.4241 4.67116 41.2717 4.65128C41.1192 4.62808 40.9667 4.61648 40.8143 4.61648C40.463 4.61648 40.1497 4.69105 39.8746 4.8402C39.6029 4.98603 39.3874 5.18987 39.2283 5.4517C39.0692 5.71023 38.9897 6.00521 38.9897 6.33665V11H37.5032ZM45.0302 11.169C44.5463 11.169 44.1088 11.0795 43.7177 10.9006C43.3266 10.7183 43.0167 10.4548 42.788 10.1101C42.5626 9.76539 42.4499 9.3428 42.4499 8.84233C42.4499 8.41146 42.5328 8.05682 42.6985 7.77841C42.8642 7.5 43.0879 7.27959 43.3697 7.11719C43.6514 6.95478 43.9663 6.83215 44.3143 6.74929C44.6623 6.66643 45.0169 6.60346 45.3782 6.56037C45.8356 6.50734 46.2068 6.46425 46.4918 6.43111C46.7769 6.39465 46.984 6.33665 47.1133 6.2571C47.2425 6.17756 47.3072 6.0483 47.3072 5.86932V5.83452C47.3072 5.40033 47.1845 5.06392 46.9393 4.82528C46.6973 4.58665 46.3361 4.46733 45.8555 4.46733C45.355 4.46733 44.9606 4.57836 44.6722 4.80043C44.3872 5.01918 44.19 5.26278 44.0806 5.53125L42.6836 5.21307C42.8493 4.74905 43.0913 4.37453 43.4094 4.08949C43.7309 3.80114 44.1005 3.59233 44.5181 3.46307C44.9357 3.33049 45.3749 3.2642 45.8356 3.2642C46.1405 3.2642 46.4637 3.30066 46.805 3.37358C47.1497 3.44318 47.4712 3.57244 47.7695 3.76136C48.0711 3.95028 48.3181 4.22041 48.5103 4.57173C48.7025 4.91974 48.7987 5.37216 48.7987 5.92898V11H47.3469V9.95597H47.2873C47.1912 10.1482 47.047 10.3371 46.8548 10.5227C46.6625 10.7083 46.4156 10.8625 46.114 10.9851C45.8124 11.1077 45.4511 11.169 45.0302 11.169ZM45.3533 9.97585C45.7643 9.97585 46.1156 9.89465 46.4073 9.73224C46.7023 9.56984 46.926 9.35772 47.0785 9.09588C47.2343 8.83073 47.3121 8.54735 47.3121 8.24574V7.26136C47.2591 7.31439 47.1564 7.36411 47.0039 7.41051C46.8548 7.4536 46.6841 7.49171 46.4918 7.52486C46.2996 7.55469 46.1123 7.58286 45.93 7.60938C45.7478 7.63258 45.5953 7.65246 45.4727 7.66903C45.1843 7.70549 44.9208 7.76681 44.6822 7.85298C44.4469 7.93916 44.2579 8.06345 44.1154 8.22585C43.9762 8.38494 43.9066 8.59706 43.9066 8.86222C43.9066 9.23011 44.0425 9.50852 44.3143 9.69744C44.5861 9.88305 44.9324 9.97585 45.3533 9.97585ZM55.2779 6.05327V7.34091H50.7637V6.05327H55.2779ZM57.2591 13.8636V3.36364H58.7108V4.60156H58.835C58.9212 4.44247 59.0455 4.25852 59.2079 4.04972C59.3703 3.84091 59.5957 3.65862 59.8841 3.50284C60.1724 3.34375 60.5536 3.2642 61.0275 3.2642C61.644 3.2642 62.1942 3.41998 62.6781 3.73153C63.162 4.04309 63.5415 4.49219 63.8166 5.07884C64.095 5.66548 64.2342 6.37145 64.2342 7.19673C64.2342 8.02202 64.0967 8.72964 63.8216 9.3196C63.5465 9.90625 63.1686 10.3587 62.688 10.6768C62.2074 10.9917 61.6589 11.1491 61.0424 11.1491C60.5784 11.1491 60.1989 11.0713 59.9039 10.9155C59.6123 10.7597 59.3836 10.5774 59.2179 10.3686C59.0521 10.1598 58.9245 9.9742 58.835 9.81179H58.7456V13.8636H57.2591ZM58.7157 7.18182C58.7157 7.71875 58.7936 8.18939 58.9494 8.59375C59.1052 8.99811 59.3306 9.31463 59.6255 9.54332C59.9205 9.7687 60.2818 9.88139 60.7093 9.88139C61.1535 9.88139 61.5247 9.76373 61.823 9.52841C62.1213 9.28977 62.3467 8.96662 62.4991 8.55895C62.6549 8.15128 62.7328 7.69223 62.7328 7.18182C62.7328 6.67803 62.6565 6.22562 62.5041 5.82457C62.3549 5.42353 62.1296 5.10701 61.8279 4.875C61.5297 4.64299 61.1568 4.52699 60.7093 4.52699C60.2785 4.52699 59.9139 4.63802 59.6156 4.86009C59.3206 5.08215 59.0969 5.39205 58.9444 5.78977C58.792 6.1875 58.7157 6.65151 58.7157 7.18182ZM67.3862 0.818182V11H65.8997V0.818182H67.3862ZM74.2234 7.8331V3.36364H75.7148V11H74.2532V9.67756H74.1737C73.998 10.0852 73.7163 10.425 73.3285 10.6967C72.944 10.9652 72.4651 11.0994 71.8917 11.0994C71.4012 11.0994 70.967 10.9917 70.5891 10.7763C70.2146 10.5575 69.9196 10.2344 69.7042 9.80682C69.4921 9.37926 69.386 8.85062 69.386 8.22088V3.36364H70.8725V8.0419C70.8725 8.56226 71.0167 8.97656 71.305 9.2848C71.5934 9.59304 71.9679 9.74716 72.4286 9.74716C72.707 9.74716 72.9838 9.67756 73.2589 9.53835C73.5373 9.39915 73.7676 9.18868 73.9499 8.90696C74.1355 8.62524 74.2267 8.26728 74.2234 7.8331ZM83.4345 5.22798L82.0872 5.46662C82.0308 5.29427 81.9413 5.13021 81.8187 4.97443C81.6994 4.81865 81.537 4.69105 81.3315 4.59162C81.126 4.49219 80.8691 4.44247 80.5609 4.44247C80.14 4.44247 79.7886 4.53693 79.5069 4.72585C79.2252 4.91146 79.0843 5.15175 79.0843 5.44673C79.0843 5.70194 79.1788 5.90743 79.3677 6.06321C79.5566 6.21899 79.8616 6.34659 80.2825 6.44602L81.4956 6.72443C82.1982 6.88684 82.7219 7.13707 83.0666 7.47514C83.4113 7.81321 83.5836 8.25237 83.5836 8.79261C83.5836 9.25 83.4511 9.65767 83.1859 10.0156C82.9241 10.3703 82.5578 10.6487 82.0872 10.8509C81.6199 11.053 81.0779 11.1541 80.4615 11.1541C79.6064 11.1541 78.9087 10.9718 78.3684 10.6072C77.8282 10.2393 77.4967 9.71733 77.3741 9.04119L78.8109 8.82244C78.9004 9.19697 79.0843 9.48035 79.3627 9.67259C79.6412 9.86151 80.0041 9.95597 80.4515 9.95597C80.9387 9.95597 81.3282 9.85488 81.6199 9.6527C81.9115 9.44721 82.0574 9.19697 82.0574 8.90199C82.0574 8.66335 81.9679 8.46283 81.7889 8.30043C81.6132 8.13802 81.3431 8.01539 80.9785 7.93253L79.6859 7.64915C78.9733 7.48674 78.4463 7.22822 78.1049 6.87358C77.7669 6.51894 77.5978 6.06984 77.5978 5.52628C77.5978 5.07552 77.7238 4.68111 77.9757 4.34304C78.2276 4.00497 78.5756 3.74148 79.0197 3.55256C79.4638 3.36032 79.9726 3.2642 80.546 3.2642C81.3713 3.2642 82.0209 3.44318 82.4949 3.80114C82.9688 4.15578 83.282 4.63139 83.4345 5.22798Z" fill="black"/>
</svg>
