<svg viewBox="0 0 123 15" fill="none" stroke-width="2" stroke="currentColor" aria-hidden="true">
  <path d="M0.99929 11V3.36364H2.4858V11H0.99929ZM1.75 2.18537C1.49148 2.18537 1.26941 2.09919 1.08381 1.92685C0.901515 1.75118 0.810369 1.54238 0.810369 1.30043C0.810369 1.05516 0.901515 0.846354 1.08381 0.674005C1.26941 0.498342 1.49148 0.410511 1.75 0.410511C2.00852 0.410511 2.22893 0.498342 2.41122 0.674005C2.59683 0.846354 2.68963 1.05516 2.68963 1.30043C2.68963 1.54238 2.59683 1.75118 2.41122 1.92685C2.22893 2.09919 2.00852 2.18537 1.75 2.18537ZM4.48562 11V3.36364H5.91246V4.60653H6.00692C6.16602 4.18561 6.4262 3.85748 6.78746 3.62216C7.14873 3.38352 7.58126 3.2642 8.08505 3.2642C8.59547 3.2642 9.02302 3.38352 9.36772 3.62216C9.71573 3.8608 9.9726 4.18892 10.1383 4.60653H10.2179C10.4002 4.19886 10.6902 3.87405 11.0879 3.6321C11.4856 3.38684 11.9596 3.2642 12.5098 3.2642C13.2025 3.2642 13.7676 3.4813 14.2051 3.91548C14.6459 4.34967 14.8663 5.00426 14.8663 5.87926V11H13.3798V6.01847C13.3798 5.50142 13.2389 5.12689 12.9572 4.89489C12.6755 4.66288 12.3391 4.54688 11.948 4.54688C11.4641 4.54688 11.0879 4.69602 10.8194 4.99432C10.551 5.2893 10.4167 5.6688 10.4167 6.13281V11H8.93519V5.92401C8.93519 5.50971 8.80593 5.17661 8.54741 4.92472C8.28889 4.67282 7.95247 4.54688 7.53817 4.54688C7.25645 4.54688 6.99627 4.62145 6.75764 4.7706C6.52231 4.91643 6.33174 5.12026 6.1859 5.3821C6.04338 5.64394 5.97212 5.94721 5.97212 6.2919V11H4.48562ZM19.081 11.169C18.5971 11.169 18.1596 11.0795 17.7685 10.9006C17.3774 10.7183 17.0675 10.4548 16.8388 10.1101C16.6134 9.76539 16.5007 9.3428 16.5007 8.84233C16.5007 8.41146 16.5836 8.05682 16.7493 7.77841C16.915 7.5 17.1387 7.27959 17.4205 7.11719C17.7022 6.95478 18.017 6.83215 18.3651 6.74929C18.7131 6.66643 19.0677 6.60346 19.429 6.56037C19.8864 6.50734 20.2576 6.46425 20.5426 6.43111C20.8277 6.39465 21.0348 6.33665 21.1641 6.2571C21.2933 6.17756 21.358 6.0483 21.358 5.86932V5.83452C21.358 5.40033 21.2353 5.06392 20.9901 4.82528C20.7481 4.58665 20.3868 4.46733 19.9062 4.46733C19.4058 4.46733 19.0114 4.57836 18.723 4.80043C18.438 5.01918 18.2408 5.26278 18.1314 5.53125L16.7344 5.21307C16.9001 4.74905 17.142 4.37453 17.4602 4.08949C17.7817 3.80114 18.1513 3.59233 18.5689 3.46307C18.9865 3.33049 19.4257 3.2642 19.8864 3.2642C20.1913 3.2642 20.5144 3.30066 20.8558 3.37358C21.2005 3.44318 21.522 3.57244 21.8203 3.76136C22.1219 3.95028 22.3688 4.22041 22.5611 4.57173C22.7533 4.91974 22.8494 5.37216 22.8494 5.92898V11H21.3977V9.95597H21.3381C21.242 10.1482 21.0978 10.3371 20.9055 10.5227C20.7133 10.7083 20.4664 10.8625 20.1648 10.9851C19.8632 11.1077 19.5019 11.169 19.081 11.169ZM19.4041 9.97585C19.8151 9.97585 20.1664 9.89465 20.4581 9.73224C20.7531 9.56984 20.9768 9.35772 21.1293 9.09588C21.285 8.83073 21.3629 8.54735 21.3629 8.24574V7.26136C21.3099 7.31439 21.2071 7.36411 21.0547 7.41051C20.9055 7.4536 20.7348 7.49171 20.5426 7.52486C20.3504 7.55469 20.1631 7.58286 19.9808 7.60938C19.7985 7.63258 19.6461 7.65246 19.5234 7.66903C19.2351 7.70549 18.9716 7.76681 18.733 7.85298C18.4976 7.93916 18.3087 8.06345 18.1662 8.22585C18.027 8.38494 17.9574 8.59706 17.9574 8.86222C17.9574 9.23011 18.0933 9.50852 18.3651 9.69744C18.6368 9.88305 18.9832 9.97585 19.4041 9.97585ZM28.0311 14.0227C27.4245 14.0227 26.9025 13.9432 26.465 13.7841C26.0308 13.625 25.6762 13.4145 25.4011 13.1527C25.126 12.8909 24.9205 12.6042 24.7846 12.2926L26.0623 11.7656C26.1518 11.9115 26.2711 12.0656 26.4203 12.228C26.5727 12.3937 26.7782 12.5346 27.0368 12.6506C27.2986 12.7666 27.635 12.8246 28.046 12.8246C28.6094 12.8246 29.0751 12.687 29.443 12.4119C29.8109 12.1402 29.9949 11.706 29.9949 11.1094V9.60795H29.9004C29.8109 9.77036 29.6816 9.95099 29.5126 10.1499C29.3469 10.3487 29.1182 10.5211 28.8265 10.6669C28.5349 10.8127 28.1554 10.8857 27.688 10.8857C27.0848 10.8857 26.5413 10.7448 26.0574 10.4631C25.5768 10.178 25.1956 9.75876 24.9139 9.20526C24.6355 8.64844 24.4963 7.96401 24.4963 7.15199C24.4963 6.33996 24.6338 5.64394 24.9089 5.06392C25.1873 4.4839 25.5685 4.03977 26.0524 3.73153C26.5363 3.41998 27.0848 3.2642 27.698 3.2642C28.1719 3.2642 28.5547 3.34375 28.8464 3.50284C29.1381 3.65862 29.3651 3.84091 29.5275 4.04972C29.6932 4.25852 29.8208 4.44247 29.9103 4.60156H30.0197V3.36364H31.4764V11.169C31.4764 11.8253 31.3239 12.3639 31.019 12.7848C30.7141 13.2057 30.3014 13.5173 29.7811 13.7195C29.264 13.9216 28.6807 14.0227 28.0311 14.0227ZM28.0162 9.6527C28.4437 9.6527 28.805 9.55327 29.1 9.3544C29.3983 9.15223 29.6236 8.86387 29.7761 8.48935C29.9319 8.11151 30.0098 7.65909 30.0098 7.1321C30.0098 6.61837 29.9335 6.16596 29.7811 5.77486C29.6286 5.38376 29.4049 5.07884 29.1099 4.86009C28.8149 4.63802 28.4503 4.52699 28.0162 4.52699C27.5687 4.52699 27.1958 4.64299 26.8975 4.875C26.5993 5.10369 26.3739 5.41525 26.2214 5.80966C26.0723 6.20407 25.9977 6.64489 25.9977 7.1321C25.9977 7.63258 26.0739 8.07173 26.2264 8.44957C26.3788 8.82741 26.6042 9.1224 26.9025 9.33452C27.2041 9.54664 27.5753 9.6527 28.0162 9.6527ZM36.7612 11.1541C36.0088 11.1541 35.3609 10.9934 34.8173 10.6719C34.277 10.3471 33.8594 9.89134 33.5645 9.30469C33.2728 8.71473 33.127 8.02367 33.127 7.23153C33.127 6.44934 33.2728 5.75994 33.5645 5.16335C33.8594 4.56676 34.2704 4.10109 34.7974 3.76633C35.3277 3.43158 35.9475 3.2642 36.6568 3.2642C37.0877 3.2642 37.5053 3.33546 37.9096 3.47798C38.314 3.6205 38.6769 3.84422 38.9984 4.14915C39.3199 4.45407 39.5734 4.85014 39.7591 5.33736C39.9447 5.82126 40.0375 6.40956 40.0375 7.10227V7.62926H33.9672V6.51562H38.5808C38.5808 6.12453 38.5012 5.77817 38.3422 5.47656C38.1831 5.17164 37.9593 4.93134 37.671 4.75568C37.3859 4.58002 37.0512 4.49219 36.6667 4.49219C36.2491 4.49219 35.8845 4.59493 35.573 4.80043C35.2647 5.0026 35.0261 5.26776 34.8571 5.59588C34.6913 5.92069 34.6085 6.27367 34.6085 6.65483V7.52486C34.6085 8.03527 34.698 8.46946 34.877 8.82741C35.0592 9.18537 35.3128 9.45881 35.6376 9.64773C35.9624 9.83333 36.3419 9.92614 36.7761 9.92614C37.0578 9.92614 37.3147 9.88636 37.5467 9.80682C37.7787 9.72396 37.9792 9.60133 38.1483 9.43892C38.3173 9.27652 38.4466 9.07599 38.536 8.83736L39.943 9.09091C39.8303 9.50521 39.6281 9.86813 39.3365 10.1797C39.0481 10.4879 38.6852 10.7282 38.2477 10.9006C37.8135 11.0696 37.318 11.1541 36.7612 11.1541ZM46.1861 6.05327V7.34091H41.6719V6.05327H46.1861ZM53.0046 7.8331V3.36364H54.4961V11H53.0344V9.67756H52.9549C52.7792 10.0852 52.4975 10.425 52.1097 10.6967C51.7253 10.9652 51.2463 11.0994 50.6729 11.0994C50.1824 11.0994 49.7482 10.9917 49.3704 10.7763C48.9959 10.5575 48.7009 10.2344 48.4854 9.80682C48.2733 9.37926 48.1673 8.85062 48.1673 8.22088V3.36364H49.6538V8.0419C49.6538 8.56226 49.7979 8.97656 50.0863 9.2848C50.3746 9.59304 50.7492 9.74716 51.2099 9.74716C51.4883 9.74716 51.765 9.67756 52.0401 9.53835C52.3185 9.39915 52.5489 9.18868 52.7312 8.90696C52.9168 8.62524 53.0079 8.26728 53.0046 7.8331ZM62.2157 5.22798L60.8684 5.46662C60.8121 5.29427 60.7226 5.13021 60.6 4.97443C60.4806 4.81865 60.3182 4.69105 60.1127 4.59162C59.9073 4.49219 59.6504 4.44247 59.3422 4.44247C58.9212 4.44247 58.5699 4.53693 58.2882 4.72585C58.0065 4.91146 57.8656 5.15175 57.8656 5.44673C57.8656 5.70194 57.96 5.90743 58.149 6.06321C58.3379 6.21899 58.6428 6.34659 59.0637 6.44602L60.2768 6.72443C60.9795 6.88684 61.5031 7.13707 61.8478 7.47514C62.1925 7.81321 62.3649 8.25237 62.3649 8.79261C62.3649 9.25 62.2323 9.65767 61.9672 10.0156C61.7053 10.3703 61.3391 10.6487 60.8684 10.8509C60.4011 11.053 59.8592 11.1541 59.2427 11.1541C58.3876 11.1541 57.6899 10.9718 57.1497 10.6072C56.6094 10.2393 56.278 9.71733 56.1554 9.04119L57.5922 8.82244C57.6816 9.19697 57.8656 9.48035 58.144 9.67259C58.4224 9.86151 58.7853 9.95597 59.2328 9.95597C59.72 9.95597 60.1094 9.85488 60.4011 9.6527C60.6928 9.44721 60.8386 9.19697 60.8386 8.90199C60.8386 8.66335 60.7491 8.46283 60.5701 8.30043C60.3945 8.13802 60.1243 8.01539 59.7598 7.93253L58.4672 7.64915C57.7546 7.48674 57.2276 7.22822 56.8862 6.87358C56.5481 6.51894 56.3791 6.06984 56.3791 5.52628C56.3791 5.07552 56.505 4.68111 56.7569 4.34304C57.0088 4.00497 57.3568 3.74148 57.801 3.55256C58.2451 3.36032 58.7538 3.2642 59.3272 3.2642C60.1525 3.2642 60.8021 3.44318 61.2761 3.80114C61.7501 4.15578 62.0633 4.63139 62.2157 5.22798ZM67.2905 11.1541C66.5381 11.1541 65.8902 10.9934 65.3466 10.6719C64.8063 10.3471 64.3887 9.89134 64.0938 9.30469C63.8021 8.71473 63.6562 8.02367 63.6562 7.23153C63.6562 6.44934 63.8021 5.75994 64.0938 5.16335C64.3887 4.56676 64.7997 4.10109 65.3267 3.76633C65.857 3.43158 66.4768 3.2642 67.1861 3.2642C67.617 3.2642 68.0346 3.33546 68.4389 3.47798C68.8433 3.6205 69.2062 3.84422 69.5277 4.14915C69.8492 4.45407 70.1027 4.85014 70.2884 5.33736C70.474 5.82126 70.5668 6.40956 70.5668 7.10227V7.62926H64.4964V6.51562H69.1101C69.1101 6.12453 69.0305 5.77817 68.8714 5.47656C68.7124 5.17164 68.4886 4.93134 68.2003 4.75568C67.9152 4.58002 67.5805 4.49219 67.196 4.49219C66.7784 4.49219 66.4138 4.59493 66.1023 4.80043C65.794 5.0026 65.5554 5.26776 65.3864 5.59588C65.2206 5.92069 65.1378 6.27367 65.1378 6.65483V7.52486C65.1378 8.03527 65.2273 8.46946 65.4062 8.82741C65.5885 9.18537 65.8421 9.45881 66.1669 9.64773C66.4917 9.83333 66.8712 9.92614 67.3054 9.92614C67.5871 9.92614 67.844 9.88636 68.076 9.80682C68.308 9.72396 68.5085 9.60133 68.6776 9.43892C68.8466 9.27652 68.9759 9.07599 69.0653 8.83736L70.4723 9.09091C70.3596 9.50521 70.1574 9.86813 69.8658 10.1797C69.5774 10.4879 69.2145 10.7282 68.777 10.9006C68.3428 11.0696 67.8473 11.1541 67.2905 11.1541ZM72.2161 11V3.36364H73.6529V4.5767H73.7324C73.8716 4.16572 74.1169 3.84257 74.4682 3.60724C74.8229 3.36861 75.2239 3.24929 75.6713 3.24929C75.7641 3.24929 75.8735 3.2526 75.9995 3.25923C76.1287 3.26586 76.2298 3.27415 76.3027 3.28409V4.70597C76.2431 4.68939 76.137 4.67116 75.9846 4.65128C75.8321 4.62808 75.6796 4.61648 75.5272 4.61648C75.1758 4.61648 74.8626 4.69105 74.5875 4.8402C74.3158 4.98603 74.1003 5.18987 73.9412 5.4517C73.7821 5.71023 73.7026 6.00521 73.7026 6.33665V11H72.2161ZM81.6373 6.05327V7.34091H77.123V6.05327H81.6373ZM86.835 11.1541C86.0959 11.1541 85.4596 10.9867 84.926 10.652C84.3957 10.3139 83.988 9.84825 83.7029 9.25497C83.4179 8.66169 83.2754 7.98224 83.2754 7.21662C83.2754 6.44105 83.4212 5.75663 83.7129 5.16335C84.0046 4.56676 84.4155 4.10109 84.9458 3.76633C85.4761 3.43158 86.1009 3.2642 86.8201 3.2642C87.4002 3.2642 87.9172 3.37192 88.3713 3.58736C88.8253 3.79948 89.1916 4.09777 89.47 4.48224C89.7517 4.86671 89.9191 5.31581 89.9721 5.82955H88.5254C88.4458 5.47159 88.2636 5.16335 87.9785 4.90483C87.6968 4.64631 87.319 4.51705 86.845 4.51705C86.4307 4.51705 86.0678 4.62642 85.7562 4.84517C85.448 5.06061 85.2077 5.36884 85.0353 5.76989C84.863 6.16761 84.7768 6.63826 84.7768 7.18182C84.7768 7.73864 84.8613 8.21922 85.0304 8.62358C85.1994 9.02794 85.438 9.34115 85.7463 9.56321C86.0578 9.78527 86.4241 9.89631 86.845 9.89631C87.1267 9.89631 87.3819 9.84493 87.6106 9.74219C87.8426 9.63613 88.0365 9.48532 88.1923 9.28977C88.3514 9.09422 88.4624 8.8589 88.5254 8.58381H89.9721C89.9191 9.07765 89.7583 9.51847 89.4899 9.90625C89.2214 10.294 88.8618 10.599 88.411 10.821C87.9636 11.0431 87.4383 11.1541 86.835 11.1541ZM93.0483 6.46591V11H91.5618V0.818182H93.0284V4.60653H93.1229C93.3018 4.19555 93.5753 3.86908 93.9432 3.62713C94.3111 3.38518 94.7917 3.2642 95.3849 3.2642C95.9086 3.2642 96.366 3.37192 96.7571 3.58736C97.1515 3.80279 97.4564 4.12429 97.6719 4.55185C97.8906 4.97609 98 5.50639 98 6.14276V11H96.5135V6.32173C96.5135 5.7616 96.3693 5.32741 96.081 5.01918C95.7926 4.70762 95.3916 4.55185 94.8778 4.55185C94.5265 4.55185 94.2116 4.62642 93.9332 4.77557C93.6581 4.92472 93.4411 5.14347 93.282 5.43182C93.1262 5.71686 93.0483 6.06155 93.0483 6.46591ZM103.275 11.1541C102.522 11.1541 101.875 10.9934 101.331 10.6719C100.791 10.3471 100.373 9.89134 100.078 9.30469C99.7865 8.71473 99.6406 8.02367 99.6406 7.23153C99.6406 6.44934 99.7865 5.75994 100.078 5.16335C100.373 4.56676 100.784 4.10109 101.311 3.76633C101.841 3.43158 102.461 3.2642 103.17 3.2642C103.601 3.2642 104.019 3.33546 104.423 3.47798C104.828 3.6205 105.191 3.84422 105.512 4.14915C105.834 4.45407 106.087 4.85014 106.273 5.33736C106.458 5.82126 106.551 6.40956 106.551 7.10227V7.62926H100.481V6.51562H105.094C105.094 6.12453 105.015 5.77817 104.856 5.47656C104.697 5.17164 104.473 4.93134 104.185 4.75568C103.9 4.58002 103.565 4.49219 103.18 4.49219C102.763 4.49219 102.398 4.59493 102.087 4.80043C101.778 5.0026 101.54 5.26776 101.371 5.59588C101.205 5.92069 101.122 6.27367 101.122 6.65483V7.52486C101.122 8.03527 101.212 8.46946 101.391 8.82741C101.573 9.18537 101.826 9.45881 102.151 9.64773C102.476 9.83333 102.856 9.92614 103.29 9.92614C103.571 9.92614 103.828 9.88636 104.06 9.80682C104.292 9.72396 104.493 9.60133 104.662 9.43892C104.831 9.27652 104.96 9.07599 105.05 8.83736L106.457 9.09091C106.344 9.50521 106.142 9.86813 105.85 10.1797C105.562 10.4879 105.199 10.7282 104.761 10.9006C104.327 11.0696 103.832 11.1541 103.275 11.1541ZM111.417 11.1541C110.678 11.1541 110.042 10.9867 109.508 10.652C108.978 10.3139 108.57 9.84825 108.285 9.25497C108 8.66169 107.857 7.98224 107.857 7.21662C107.857 6.44105 108.003 5.75663 108.295 5.16335C108.587 4.56676 108.998 4.10109 109.528 3.76633C110.058 3.43158 110.683 3.2642 111.402 3.2642C111.982 3.2642 112.499 3.37192 112.953 3.58736C113.407 3.79948 113.774 4.09777 114.052 4.48224C114.334 4.86671 114.501 5.31581 114.554 5.82955H113.107C113.028 5.47159 112.846 5.16335 112.561 4.90483C112.279 4.64631 111.901 4.51705 111.427 4.51705C111.013 4.51705 110.65 4.62642 110.338 4.84517C110.03 5.06061 109.79 5.36884 109.617 5.76989C109.445 6.16761 109.359 6.63826 109.359 7.18182C109.359 7.73864 109.443 8.21922 109.612 8.62358C109.781 9.02794 110.02 9.34115 110.328 9.56321C110.64 9.78527 111.006 9.89631 111.427 9.89631C111.709 9.89631 111.964 9.84493 112.193 9.74219C112.425 9.63613 112.619 9.48532 112.774 9.28977C112.933 9.09422 113.044 8.8589 113.107 8.58381H114.554C114.501 9.07765 114.34 9.51847 114.072 9.90625C113.803 10.294 113.444 10.599 112.993 10.821C112.546 11.0431 112.02 11.1541 111.417 11.1541ZM117.511 8.4098L117.501 6.59517H117.76L120.802 3.36364H122.582L119.112 7.04261H118.878L117.511 8.4098ZM116.144 11V0.818182H117.63V11H116.144ZM120.966 11L118.232 7.37074L119.256 6.33168L122.791 11H120.966Z" fill="black"/>
</svg>
