<svg viewBox="0 0 75 12" fill="none" stroke-width="2" stroke="currentColor" aria-hidden="true">
  <path d="M4.21591 11.1541C3.4768 11.1541 2.84044 10.9867 2.30682 10.652C1.77652 10.3139 1.36884 9.84825 1.08381 9.25497C0.798769 8.66169 0.65625 7.98224 0.65625 7.21662C0.65625 6.44105 0.802083 5.75663 1.09375 5.16335C1.38542 4.56676 1.7964 4.10109 2.3267 3.76633C2.85701 3.43158 3.48177 3.2642 4.20099 3.2642C4.78101 3.2642 5.29806 3.37192 5.75213 3.58736C6.2062 3.79948 6.57244 4.09777 6.85085 4.48224C7.13258 4.86671 7.29995 5.31581 7.35298 5.82955H5.90625C5.8267 5.47159 5.64441 5.16335 5.35938 4.90483C5.07765 4.64631 4.69981 4.51705 4.22585 4.51705C3.81155 4.51705 3.44863 4.62642 3.13707 4.84517C2.82884 5.06061 2.58854 5.36884 2.41619 5.76989C2.24384 6.16761 2.15767 6.63826 2.15767 7.18182C2.15767 7.73864 2.24219 8.21922 2.41122 8.62358C2.58026 9.02794 2.81889 9.34115 3.12713 9.56321C3.43868 9.78527 3.80492 9.89631 4.22585 9.89631C4.50758 9.89631 4.76278 9.84493 4.99148 9.74219C5.22349 9.63613 5.41738 9.48532 5.57315 9.28977C5.73224 9.09422 5.84328 8.8589 5.90625 8.58381H7.35298C7.29995 9.07765 7.1392 9.51847 6.87074 9.90625C6.60227 10.294 6.24266 10.599 5.7919 10.821C5.34446 11.0431 4.81913 11.1541 4.21591 11.1541ZM11.165 11.169C10.681 11.169 10.2435 11.0795 9.85245 10.9006C9.46135 10.7183 9.15146 10.4548 8.92276 10.1101C8.69738 9.76539 8.58469 9.3428 8.58469 8.84233C8.58469 8.41146 8.66755 8.05682 8.83327 7.77841C8.99899 7.5 9.22272 7.27959 9.50444 7.11719C9.78616 6.95478 10.101 6.83215 10.449 6.74929C10.7971 6.66643 11.1517 6.60346 11.513 6.56037C11.9703 6.50734 12.3416 6.46425 12.6266 6.43111C12.9116 6.39465 13.1188 6.33665 13.248 6.2571C13.3773 6.17756 13.4419 6.0483 13.4419 5.86932V5.83452C13.4419 5.40033 13.3193 5.06392 13.074 4.82528C12.8321 4.58665 12.4708 4.46733 11.9902 4.46733C11.4898 4.46733 11.0953 4.57836 10.807 4.80043C10.522 5.01918 10.3248 5.26278 10.2154 5.53125L8.81836 5.21307C8.98408 4.74905 9.22603 4.37453 9.54421 4.08949C9.86571 3.80114 10.2353 3.59233 10.6529 3.46307C11.0705 3.33049 11.5096 3.2642 11.9703 3.2642C12.2753 3.2642 12.5984 3.30066 12.9398 3.37358C13.2845 3.44318 13.606 3.57244 13.9043 3.76136C14.2059 3.95028 14.4528 4.22041 14.6451 4.57173C14.8373 4.91974 14.9334 5.37216 14.9334 5.92898V11H13.4817V9.95597H13.4221C13.3259 10.1482 13.1818 10.3371 12.9895 10.5227C12.7973 10.7083 12.5504 10.8625 12.2488 10.9851C11.9471 11.1077 11.5859 11.169 11.165 11.169ZM11.4881 9.97585C11.8991 9.97585 12.2504 9.89465 12.5421 9.73224C12.8371 9.56984 13.0608 9.35772 13.2132 9.09588C13.369 8.83073 13.4469 8.54735 13.4469 8.24574V7.26136C13.3939 7.31439 13.2911 7.36411 13.1387 7.41051C12.9895 7.4536 12.8188 7.49171 12.6266 7.52486C12.4344 7.55469 12.2471 7.58286 12.0648 7.60938C11.8825 7.63258 11.7301 7.65246 11.6074 7.66903C11.3191 7.70549 11.0556 7.76681 10.8169 7.85298C10.5816 7.93916 10.3927 8.06345 10.2502 8.22585C10.111 8.38494 10.0414 8.59706 10.0414 8.86222C10.0414 9.23011 10.1773 9.50852 10.449 9.69744C10.7208 9.88305 11.0672 9.97585 11.4881 9.97585ZM16.9134 11V3.36364H18.3402V4.60653H18.4347C18.5938 4.18561 18.8539 3.85748 19.2152 3.62216C19.5765 3.38352 20.009 3.2642 20.5128 3.2642C21.0232 3.2642 21.4508 3.38352 21.7955 3.62216C22.1435 3.8608 22.4003 4.18892 22.5661 4.60653H22.6456C22.8279 4.19886 23.1179 3.87405 23.5156 3.6321C23.9134 3.38684 24.3873 3.2642 24.9375 3.2642C25.6302 3.2642 26.1953 3.4813 26.6328 3.91548C27.0736 4.34967 27.294 5.00426 27.294 5.87926V11H25.8075V6.01847C25.8075 5.50142 25.6667 5.12689 25.3849 4.89489C25.1032 4.66288 24.7668 4.54688 24.3757 4.54688C23.8918 4.54688 23.5156 4.69602 23.2472 4.99432C22.9787 5.2893 22.8445 5.6688 22.8445 6.13281V11H21.3629V5.92401C21.3629 5.50971 21.2337 5.17661 20.9751 4.92472C20.7166 4.67282 20.3802 4.54688 19.9659 4.54688C19.6842 4.54688 19.424 4.62145 19.1854 4.7706C18.95 4.91643 18.7595 5.12026 18.6136 5.3821C18.4711 5.64394 18.3999 5.94721 18.3999 6.2919V11H16.9134ZM32.5776 11.1541C31.8252 11.1541 31.1773 10.9934 30.6337 10.6719C30.0935 10.3471 29.6758 9.89134 29.3809 9.30469C29.0892 8.71473 28.9434 8.02367 28.9434 7.23153C28.9434 6.44934 29.0892 5.75994 29.3809 5.16335C29.6758 4.56676 30.0868 4.10109 30.6138 3.76633C31.1441 3.43158 31.7639 3.2642 32.4732 3.2642C32.9041 3.2642 33.3217 3.33546 33.726 3.47798C34.1304 3.6205 34.4933 3.84422 34.8148 4.14915C35.1363 4.45407 35.3899 4.85014 35.5755 5.33736C35.7611 5.82126 35.8539 6.40956 35.8539 7.10227V7.62926H29.7836V6.51562H34.3972C34.3972 6.12453 34.3176 5.77817 34.1586 5.47656C33.9995 5.17164 33.7757 4.93134 33.4874 4.75568C33.2024 4.58002 32.8676 4.49219 32.4831 4.49219C32.0655 4.49219 31.7009 4.59493 31.3894 4.80043C31.0811 5.0026 30.8425 5.26776 30.6735 5.59588C30.5078 5.92069 30.4249 6.27367 30.4249 6.65483V7.52486C30.4249 8.03527 30.5144 8.46946 30.6934 8.82741C30.8757 9.18537 31.1292 9.45881 31.454 9.64773C31.7788 9.83333 32.1583 9.92614 32.5925 9.92614C32.8742 9.92614 33.1311 9.88636 33.3631 9.80682C33.5951 9.72396 33.7956 9.60133 33.9647 9.43892C34.1337 9.27652 34.263 9.07599 34.3525 8.83736L35.7594 9.09091C35.6467 9.50521 35.4445 9.86813 35.1529 10.1797C34.8645 10.4879 34.5016 10.7282 34.0641 10.9006C33.6299 11.0696 33.1344 11.1541 32.5776 11.1541ZM37.5032 11V3.36364H38.94V4.5767H39.0195C39.1587 4.16572 39.404 3.84257 39.7553 3.60724C40.11 3.36861 40.511 3.24929 40.9585 3.24929C41.0513 3.24929 41.1606 3.2526 41.2866 3.25923C41.4158 3.26586 41.5169 3.27415 41.5898 3.28409V4.70597C41.5302 4.68939 41.4241 4.67116 41.2717 4.65128C41.1192 4.62808 40.9667 4.61648 40.8143 4.61648C40.463 4.61648 40.1497 4.69105 39.8746 4.8402C39.6029 4.98603 39.3874 5.18987 39.2283 5.4517C39.0692 5.71023 38.9897 6.00521 38.9897 6.33665V11H37.5032ZM45.0302 11.169C44.5463 11.169 44.1088 11.0795 43.7177 10.9006C43.3266 10.7183 43.0167 10.4548 42.788 10.1101C42.5626 9.76539 42.4499 9.3428 42.4499 8.84233C42.4499 8.41146 42.5328 8.05682 42.6985 7.77841C42.8642 7.5 43.0879 7.27959 43.3697 7.11719C43.6514 6.95478 43.9663 6.83215 44.3143 6.74929C44.6623 6.66643 45.0169 6.60346 45.3782 6.56037C45.8356 6.50734 46.2068 6.46425 46.4918 6.43111C46.7769 6.39465 46.984 6.33665 47.1133 6.2571C47.2425 6.17756 47.3072 6.0483 47.3072 5.86932V5.83452C47.3072 5.40033 47.1845 5.06392 46.9393 4.82528C46.6973 4.58665 46.3361 4.46733 45.8555 4.46733C45.355 4.46733 44.9606 4.57836 44.6722 4.80043C44.3872 5.01918 44.19 5.26278 44.0806 5.53125L42.6836 5.21307C42.8493 4.74905 43.0913 4.37453 43.4094 4.08949C43.7309 3.80114 44.1005 3.59233 44.5181 3.46307C44.9357 3.33049 45.3749 3.2642 45.8356 3.2642C46.1405 3.2642 46.4637 3.30066 46.805 3.37358C47.1497 3.44318 47.4712 3.57244 47.7695 3.76136C48.0711 3.95028 48.3181 4.22041 48.5103 4.57173C48.7025 4.91974 48.7987 5.37216 48.7987 5.92898V11H47.3469V9.95597H47.2873C47.1912 10.1482 47.047 10.3371 46.8548 10.5227C46.6625 10.7083 46.4156 10.8625 46.114 10.9851C45.8124 11.1077 45.4511 11.169 45.0302 11.169ZM45.3533 9.97585C45.7643 9.97585 46.1156 9.89465 46.4073 9.73224C46.7023 9.56984 46.926 9.35772 47.0785 9.09588C47.2343 8.83073 47.3121 8.54735 47.3121 8.24574V7.26136C47.2591 7.31439 47.1564 7.36411 47.0039 7.41051C46.8548 7.4536 46.6841 7.49171 46.4918 7.52486C46.2996 7.55469 46.1123 7.58286 45.93 7.60938C45.7478 7.63258 45.5953 7.65246 45.4727 7.66903C45.1843 7.70549 44.9208 7.76681 44.6822 7.85298C44.4469 7.93916 44.2579 8.06345 44.1154 8.22585C43.9762 8.38494 43.9066 8.59706 43.9066 8.86222C43.9066 9.23011 44.0425 9.50852 44.3143 9.69744C44.5861 9.88305 44.9324 9.97585 45.3533 9.97585ZM55.2779 6.05327V7.34091H50.7637V6.05327H55.2779ZM60.4757 11.1541C59.7598 11.1541 59.135 10.9901 58.6014 10.6619C58.0678 10.3338 57.6535 9.87476 57.3585 9.2848C57.0635 8.69484 56.916 8.00544 56.916 7.21662C56.916 6.42448 57.0635 5.73177 57.3585 5.13849C57.6535 4.54522 58.0678 4.08452 58.6014 3.75639C59.135 3.42827 59.7598 3.2642 60.4757 3.2642C61.1916 3.2642 61.8163 3.42827 62.35 3.75639C62.8836 4.08452 63.2979 4.54522 63.5929 5.13849C63.8878 5.73177 64.0353 6.42448 64.0353 7.21662C64.0353 8.00544 63.8878 8.69484 63.5929 9.2848C63.2979 9.87476 62.8836 10.3338 62.35 10.6619C61.8163 10.9901 61.1916 11.1541 60.4757 11.1541ZM60.4806 9.90625C60.9447 9.90625 61.3291 9.78362 61.6341 9.53835C61.939 9.29309 62.1644 8.96662 62.3102 8.55895C62.4593 8.15128 62.5339 7.70218 62.5339 7.21165C62.5339 6.72443 62.4593 6.27699 62.3102 5.86932C62.1644 5.45833 61.939 5.12855 61.6341 4.87997C61.3291 4.63139 60.9447 4.5071 60.4806 4.5071C60.0133 4.5071 59.6255 4.63139 59.3173 4.87997C59.0124 5.12855 58.7853 5.45833 58.6362 5.86932C58.4904 6.27699 58.4174 6.72443 58.4174 7.21165C58.4174 7.70218 58.4904 8.15128 58.6362 8.55895C58.7853 8.96662 59.0124 9.29309 59.3173 9.53835C59.6255 9.78362 60.0133 9.90625 60.4806 9.90625ZM69.3288 3.36364V4.55682H65.0135V3.36364H69.3288ZM66.1967 11V2.47869C66.1967 2.00142 66.3011 1.60535 66.5099 1.29048C66.7188 0.972301 66.9955 0.735322 67.3402 0.579545C67.6849 0.420454 68.0594 0.340908 68.4638 0.340908C68.7621 0.340908 69.0173 0.365767 69.2294 0.415483C69.4415 0.461884 69.599 0.504971 69.7017 0.544744L69.3537 1.74787C69.2841 1.72798 69.1946 1.70478 69.0852 1.67827C68.9759 1.64844 68.8433 1.63352 68.6875 1.63352C68.3262 1.63352 68.0677 1.72301 67.9119 1.90199C67.7595 2.08097 67.6832 2.33949 67.6832 2.67756V11H66.1967ZM74.4968 3.36364V4.55682H70.1815V3.36364H74.4968ZM71.3647 11V2.47869C71.3647 2.00142 71.4691 1.60535 71.6779 1.29048C71.8867 0.972301 72.1635 0.735322 72.5082 0.579545C72.8529 0.420454 73.2274 0.340908 73.6317 0.340908C73.93 0.340908 74.1853 0.365767 74.3974 0.415483C74.6095 0.461884 74.7669 0.504971 74.8697 0.544744L74.5217 1.74787C74.4521 1.72798 74.3626 1.70478 74.2532 1.67827C74.1438 1.64844 74.0112 1.63352 73.8555 1.63352C73.4942 1.63352 73.2357 1.72301 73.0799 1.90199C72.9274 2.08097 72.8512 2.33949 72.8512 2.67756V11H71.3647Z" fill="black"/>
</svg>
