<svg viewBox="0 0 88 15" fill="none" stroke-width="2" stroke="currentColor" aria-hidden="true">
  <path d="M0.99929 11V3.36364H2.4858V11H0.99929ZM1.75 2.18537C1.49148 2.18537 1.26941 2.09919 1.08381 1.92685C0.901515 1.75118 0.810369 1.54238 0.810369 1.30043C0.810369 1.05516 0.901515 0.846354 1.08381 0.674005C1.26941 0.498342 1.49148 0.410511 1.75 0.410511C2.00852 0.410511 2.22893 0.498342 2.41122 0.674005C2.59683 0.846354 2.68963 1.05516 2.68963 1.30043C2.68963 1.54238 2.59683 1.75118 2.41122 1.92685C2.22893 2.09919 2.00852 2.18537 1.75 2.18537ZM4.48562 11V3.36364H5.91246V4.60653H6.00692C6.16602 4.18561 6.4262 3.85748 6.78746 3.62216C7.14873 3.38352 7.58126 3.2642 8.08505 3.2642C8.59547 3.2642 9.02302 3.38352 9.36772 3.62216C9.71573 3.8608 9.9726 4.18892 10.1383 4.60653H10.2179C10.4002 4.19886 10.6902 3.87405 11.0879 3.6321C11.4856 3.38684 11.9596 3.2642 12.5098 3.2642C13.2025 3.2642 13.7676 3.4813 14.2051 3.91548C14.6459 4.34967 14.8663 5.00426 14.8663 5.87926V11H13.3798V6.01847C13.3798 5.50142 13.2389 5.12689 12.9572 4.89489C12.6755 4.66288 12.3391 4.54688 11.948 4.54688C11.4641 4.54688 11.0879 4.69602 10.8194 4.99432C10.551 5.2893 10.4167 5.6688 10.4167 6.13281V11H8.93519V5.92401C8.93519 5.50971 8.80593 5.17661 8.54741 4.92472C8.28889 4.67282 7.95247 4.54688 7.53817 4.54688C7.25645 4.54688 6.99627 4.62145 6.75764 4.7706C6.52231 4.91643 6.33174 5.12026 6.1859 5.3821C6.04338 5.64394 5.97212 5.94721 5.97212 6.2919V11H4.48562ZM19.081 11.169C18.5971 11.169 18.1596 11.0795 17.7685 10.9006C17.3774 10.7183 17.0675 10.4548 16.8388 10.1101C16.6134 9.76539 16.5007 9.3428 16.5007 8.84233C16.5007 8.41146 16.5836 8.05682 16.7493 7.77841C16.915 7.5 17.1387 7.27959 17.4205 7.11719C17.7022 6.95478 18.017 6.83215 18.3651 6.74929C18.7131 6.66643 19.0677 6.60346 19.429 6.56037C19.8864 6.50734 20.2576 6.46425 20.5426 6.43111C20.8277 6.39465 21.0348 6.33665 21.1641 6.2571C21.2933 6.17756 21.358 6.0483 21.358 5.86932V5.83452C21.358 5.40033 21.2353 5.06392 20.9901 4.82528C20.7481 4.58665 20.3868 4.46733 19.9062 4.46733C19.4058 4.46733 19.0114 4.57836 18.723 4.80043C18.438 5.01918 18.2408 5.26278 18.1314 5.53125L16.7344 5.21307C16.9001 4.74905 17.142 4.37453 17.4602 4.08949C17.7817 3.80114 18.1513 3.59233 18.5689 3.46307C18.9865 3.33049 19.4257 3.2642 19.8864 3.2642C20.1913 3.2642 20.5144 3.30066 20.8558 3.37358C21.2005 3.44318 21.522 3.57244 21.8203 3.76136C22.1219 3.95028 22.3688 4.22041 22.5611 4.57173C22.7533 4.91974 22.8494 5.37216 22.8494 5.92898V11H21.3977V9.95597H21.3381C21.242 10.1482 21.0978 10.3371 20.9055 10.5227C20.7133 10.7083 20.4664 10.8625 20.1648 10.9851C19.8632 11.1077 19.5019 11.169 19.081 11.169ZM19.4041 9.97585C19.8151 9.97585 20.1664 9.89465 20.4581 9.73224C20.7531 9.56984 20.9768 9.35772 21.1293 9.09588C21.285 8.83073 21.3629 8.54735 21.3629 8.24574V7.26136C21.3099 7.31439 21.2071 7.36411 21.0547 7.41051C20.9055 7.4536 20.7348 7.49171 20.5426 7.52486C20.3504 7.55469 20.1631 7.58286 19.9808 7.60938C19.7985 7.63258 19.6461 7.65246 19.5234 7.66903C19.2351 7.70549 18.9716 7.76681 18.733 7.85298C18.4976 7.93916 18.3087 8.06345 18.1662 8.22585C18.027 8.38494 17.9574 8.59706 17.9574 8.86222C17.9574 9.23011 18.0933 9.50852 18.3651 9.69744C18.6368 9.88305 18.9832 9.97585 19.4041 9.97585ZM28.0311 14.0227C27.4245 14.0227 26.9025 13.9432 26.465 13.7841C26.0308 13.625 25.6762 13.4145 25.4011 13.1527C25.126 12.8909 24.9205 12.6042 24.7846 12.2926L26.0623 11.7656C26.1518 11.9115 26.2711 12.0656 26.4203 12.228C26.5727 12.3937 26.7782 12.5346 27.0368 12.6506C27.2986 12.7666 27.635 12.8246 28.046 12.8246C28.6094 12.8246 29.0751 12.687 29.443 12.4119C29.8109 12.1402 29.9949 11.706 29.9949 11.1094V9.60795H29.9004C29.8109 9.77036 29.6816 9.95099 29.5126 10.1499C29.3469 10.3487 29.1182 10.5211 28.8265 10.6669C28.5349 10.8127 28.1554 10.8857 27.688 10.8857C27.0848 10.8857 26.5413 10.7448 26.0574 10.4631C25.5768 10.178 25.1956 9.75876 24.9139 9.20526C24.6355 8.64844 24.4963 7.96401 24.4963 7.15199C24.4963 6.33996 24.6338 5.64394 24.9089 5.06392C25.1873 4.4839 25.5685 4.03977 26.0524 3.73153C26.5363 3.41998 27.0848 3.2642 27.698 3.2642C28.1719 3.2642 28.5547 3.34375 28.8464 3.50284C29.1381 3.65862 29.3651 3.84091 29.5275 4.04972C29.6932 4.25852 29.8208 4.44247 29.9103 4.60156H30.0197V3.36364H31.4764V11.169C31.4764 11.8253 31.3239 12.3639 31.019 12.7848C30.7141 13.2057 30.3014 13.5173 29.7811 13.7195C29.264 13.9216 28.6807 14.0227 28.0311 14.0227ZM28.0162 9.6527C28.4437 9.6527 28.805 9.55327 29.1 9.3544C29.3983 9.15223 29.6236 8.86387 29.7761 8.48935C29.9319 8.11151 30.0098 7.65909 30.0098 7.1321C30.0098 6.61837 29.9335 6.16596 29.7811 5.77486C29.6286 5.38376 29.4049 5.07884 29.1099 4.86009C28.8149 4.63802 28.4503 4.52699 28.0162 4.52699C27.5687 4.52699 27.1958 4.64299 26.8975 4.875C26.5993 5.10369 26.3739 5.41525 26.2214 5.80966C26.0723 6.20407 25.9977 6.64489 25.9977 7.1321C25.9977 7.63258 26.0739 8.07173 26.2264 8.44957C26.3788 8.82741 26.6042 9.1224 26.9025 9.33452C27.2041 9.54664 27.5753 9.6527 28.0162 9.6527ZM36.7612 11.1541C36.0088 11.1541 35.3609 10.9934 34.8173 10.6719C34.277 10.3471 33.8594 9.89134 33.5645 9.30469C33.2728 8.71473 33.127 8.02367 33.127 7.23153C33.127 6.44934 33.2728 5.75994 33.5645 5.16335C33.8594 4.56676 34.2704 4.10109 34.7974 3.76633C35.3277 3.43158 35.9475 3.2642 36.6568 3.2642C37.0877 3.2642 37.5053 3.33546 37.9096 3.47798C38.314 3.6205 38.6769 3.84422 38.9984 4.14915C39.3199 4.45407 39.5734 4.85014 39.7591 5.33736C39.9447 5.82126 40.0375 6.40956 40.0375 7.10227V7.62926H33.9672V6.51562H38.5808C38.5808 6.12453 38.5012 5.77817 38.3422 5.47656C38.1831 5.17164 37.9593 4.93134 37.671 4.75568C37.3859 4.58002 37.0512 4.49219 36.6667 4.49219C36.2491 4.49219 35.8845 4.59493 35.573 4.80043C35.2647 5.0026 35.0261 5.26776 34.8571 5.59588C34.6913 5.92069 34.6085 6.27367 34.6085 6.65483V7.52486C34.6085 8.03527 34.698 8.46946 34.877 8.82741C35.0592 9.18537 35.3128 9.45881 35.6376 9.64773C35.9624 9.83333 36.3419 9.92614 36.7761 9.92614C37.0578 9.92614 37.3147 9.88636 37.5467 9.80682C37.7787 9.72396 37.9792 9.60133 38.1483 9.43892C38.3173 9.27652 38.4466 9.07599 38.536 8.83736L39.943 9.09091C39.8303 9.50521 39.6281 9.86813 39.3365 10.1797C39.0481 10.4879 38.6852 10.7282 38.2477 10.9006C37.8135 11.0696 37.318 11.1541 36.7612 11.1541ZM46.1861 6.05327V7.34091H41.6719V6.05327H46.1861ZM51.3839 11.1541C50.6448 11.1541 50.0084 10.9867 49.4748 10.652C48.9445 10.3139 48.5368 9.84825 48.2518 9.25497C47.9667 8.66169 47.8242 7.98224 47.8242 7.21662C47.8242 6.44105 47.9701 5.75663 48.2617 5.16335C48.5534 4.56676 48.9644 4.10109 49.4947 3.76633C50.025 3.43158 50.6497 3.2642 51.369 3.2642C51.949 3.2642 52.466 3.37192 52.9201 3.58736C53.3742 3.79948 53.7404 4.09777 54.0188 4.48224C54.3005 4.86671 54.4679 5.31581 54.521 5.82955H53.0742C52.9947 5.47159 52.8124 5.16335 52.5273 4.90483C52.2456 4.64631 51.8678 4.51705 51.3938 4.51705C50.9795 4.51705 50.6166 4.62642 50.305 4.84517C49.9968 5.06061 49.7565 5.36884 49.5842 5.76989C49.4118 6.16761 49.3256 6.63826 49.3256 7.18182C49.3256 7.73864 49.4102 8.21922 49.5792 8.62358C49.7482 9.02794 49.9869 9.34115 50.2951 9.56321C50.6067 9.78527 50.9729 9.89631 51.3938 9.89631C51.6755 9.89631 51.9308 9.84493 52.1594 9.74219C52.3915 9.63613 52.5853 9.48532 52.7411 9.28977C52.9002 9.09422 53.0112 8.8589 53.0742 8.58381H54.521C54.4679 9.07765 54.3072 9.51847 54.0387 9.90625C53.7702 10.294 53.4106 10.599 52.9599 10.821C52.5124 11.0431 51.9871 11.1541 51.3839 11.1541ZM57.5971 6.46591V11H56.1106V0.818182H57.5772V4.60653H57.6717C57.8507 4.19555 58.1241 3.86908 58.492 3.62713C58.8599 3.38518 59.3405 3.2642 59.9338 3.2642C60.4574 3.2642 60.9148 3.37192 61.3059 3.58736C61.7003 3.80279 62.0053 4.12429 62.2207 4.55185C62.4395 4.97609 62.5488 5.50639 62.5488 6.14276V11H61.0623V6.32173C61.0623 5.7616 60.9181 5.32741 60.6298 5.01918C60.3414 4.70762 59.9404 4.55185 59.4267 4.55185C59.0753 4.55185 58.7605 4.62642 58.4821 4.77557C58.207 4.92472 57.9899 5.14347 57.8308 5.43182C57.675 5.71686 57.5971 6.06155 57.5971 6.46591ZM67.8237 11.1541C67.0713 11.1541 66.4234 10.9934 65.8798 10.6719C65.3395 10.3471 64.9219 9.89134 64.627 9.30469C64.3353 8.71473 64.1895 8.02367 64.1895 7.23153C64.1895 6.44934 64.3353 5.75994 64.627 5.16335C64.9219 4.56676 65.3329 4.10109 65.8599 3.76633C66.3902 3.43158 67.01 3.2642 67.7193 3.2642C68.1502 3.2642 68.5678 3.33546 68.9721 3.47798C69.3765 3.6205 69.7394 3.84422 70.0609 4.14915C70.3824 4.45407 70.6359 4.85014 70.8216 5.33736C71.0072 5.82126 71.1 6.40956 71.1 7.10227V7.62926H65.0297V6.51562H69.6433C69.6433 6.12453 69.5637 5.77817 69.4047 5.47656C69.2456 5.17164 69.0218 4.93134 68.7335 4.75568C68.4484 4.58002 68.1137 4.49219 67.7292 4.49219C67.3116 4.49219 66.947 4.59493 66.6355 4.80043C66.3272 5.0026 66.0886 5.26776 65.9196 5.59588C65.7538 5.92069 65.671 6.27367 65.671 6.65483V7.52486C65.671 8.03527 65.7605 8.46946 65.9395 8.82741C66.1217 9.18537 66.3753 9.45881 66.7001 9.64773C67.0249 9.83333 67.4044 9.92614 67.8386 9.92614C68.1203 9.92614 68.3772 9.88636 68.6092 9.80682C68.8412 9.72396 69.0417 9.60133 69.2108 9.43892C69.3798 9.27652 69.5091 9.07599 69.5985 8.83736L71.0055 9.09091C70.8928 9.50521 70.6906 9.86813 70.399 10.1797C70.1106 10.4879 69.7477 10.7282 69.3102 10.9006C68.876 11.0696 68.3805 11.1541 67.8237 11.1541ZM75.9659 11.1541C75.2268 11.1541 74.5904 10.9867 74.0568 10.652C73.5265 10.3139 73.1188 9.84825 72.8338 9.25497C72.5488 8.66169 72.4062 7.98224 72.4062 7.21662C72.4062 6.44105 72.5521 5.75663 72.8438 5.16335C73.1354 4.56676 73.5464 4.10109 74.0767 3.76633C74.607 3.43158 75.2318 3.2642 75.951 3.2642C76.531 3.2642 77.0481 3.37192 77.5021 3.58736C77.9562 3.79948 78.3224 4.09777 78.6009 4.48224C78.8826 4.86671 79.05 5.31581 79.103 5.82955H77.6562C77.5767 5.47159 77.3944 5.16335 77.1094 4.90483C76.8277 4.64631 76.4498 4.51705 75.9759 4.51705C75.5616 4.51705 75.1986 4.62642 74.8871 4.84517C74.5788 5.06061 74.3385 5.36884 74.1662 5.76989C73.9938 6.16761 73.9077 6.63826 73.9077 7.18182C73.9077 7.73864 73.9922 8.21922 74.1612 8.62358C74.3303 9.02794 74.5689 9.34115 74.8771 9.56321C75.1887 9.78527 75.5549 9.89631 75.9759 9.89631C76.2576 9.89631 76.5128 9.84493 76.7415 9.74219C76.9735 9.63613 77.1674 9.48532 77.3232 9.28977C77.4822 9.09422 77.5933 8.8589 77.6562 8.58381H79.103C79.05 9.07765 78.8892 9.51847 78.6207 9.90625C78.3523 10.294 77.9927 10.599 77.5419 10.821C77.0945 11.0431 76.5691 11.1541 75.9659 11.1541ZM82.0598 8.4098L82.0499 6.59517H82.3084L85.351 3.36364H87.1309L83.6607 7.04261H83.427L82.0598 8.4098ZM80.6926 11V0.818182H82.1792V11H80.6926ZM85.5151 11L82.7807 7.37074L83.8049 6.33168L87.3397 11H85.5151Z" fill="black"/>
</svg>
