<svg width="131" height="12" viewBox="0 0 131 12" fill="none" xmlns="http://www.w3.org/2000/svg">
<path d="M1.4858 0.818182V11H-0.000710189V0.818182H1.4858ZM3.48562 11V3.36364H4.97212V11H3.48562ZM4.23633 2.18537C3.97781 2.18537 3.75574 2.09919 3.57013 1.92685C3.38784 1.75118 3.2967 1.54238 3.2967 1.30043C3.2967 1.05516 3.38784 0.846354 3.57013 0.674005C3.75574 0.498342 3.97781 0.410511 4.23633 0.410511C4.49485 0.410511 4.71526 0.498342 4.89755 0.674005C5.08316 0.846354 5.17596 1.05516 5.17596 1.30043C5.17596 1.54238 5.08316 1.75118 4.89755 1.92685C4.71526 2.09919 4.49485 2.18537 4.23633 2.18537ZM8.45845 6.46591V11H6.97195V3.36364H8.39879V4.60653H8.49325C8.66892 4.20218 8.94401 3.87737 9.31854 3.6321C9.69638 3.38684 10.172 3.2642 10.7454 3.2642C11.2657 3.2642 11.7215 3.37358 12.1126 3.59233C12.5037 3.80777 12.8069 4.12926 13.0224 4.55682C13.2378 4.98437 13.3455 5.51302 13.3455 6.14276V11H11.859V6.32173C11.859 5.76823 11.7148 5.3357 11.4265 5.02415C11.1381 4.70928 10.7421 4.55185 10.2383 4.55185C9.89358 4.55185 9.587 4.62642 9.31854 4.77557C9.05339 4.92472 8.84292 5.14347 8.68714 5.43182C8.53468 5.71686 8.45845 6.06155 8.45845 6.46591ZM18.6303 11.1541C17.878 11.1541 17.23 10.9934 16.6864 10.6719C16.1462 10.3471 15.7286 9.89134 15.4336 9.30469C15.1419 8.71473 14.9961 8.02367 14.9961 7.23153C14.9961 6.44934 15.1419 5.75994 15.4336 5.16335C15.7286 4.56676 16.1396 4.10109 16.6665 3.76633C17.1969 3.43158 17.8166 3.2642 18.5259 3.2642C18.9568 3.2642 19.3744 3.33546 19.7788 3.47798C20.1831 3.6205 20.546 3.84422 20.8675 4.14915C21.189 4.45407 21.4426 4.85014 21.6282 5.33736C21.8138 5.82126 21.9066 6.40956 21.9066 7.10227V7.62926H15.8363V6.51562H20.4499C20.4499 6.12453 20.3704 5.77817 20.2113 5.47656C20.0522 5.17164 19.8285 4.93134 19.5401 4.75568C19.2551 4.58002 18.9203 4.49219 18.5359 4.49219C18.1183 4.49219 17.7537 4.59493 17.4421 4.80043C17.1339 5.0026 16.8952 5.26776 16.7262 5.59588C16.5605 5.92069 16.4776 6.27367 16.4776 6.65483V7.52486C16.4776 8.03527 16.5671 8.46946 16.7461 8.82741C16.9284 9.18537 17.1819 9.45881 17.5067 9.64773C17.8316 9.83333 18.2111 9.92614 18.6452 9.92614C18.927 9.92614 19.1838 9.88636 19.4158 9.80682C19.6478 9.72396 19.8484 9.60133 20.0174 9.43892C20.1864 9.27652 20.3157 9.07599 20.4052 8.83736L21.8121 9.09091C21.6995 9.50521 21.4973 9.86813 21.2056 10.1797C20.9173 10.4879 20.5543 10.7282 20.1168 10.9006C19.6826 11.0696 19.1871 11.1541 18.6303 11.1541ZM28.0552 6.05327V7.34091H23.541V6.05327H28.0552ZM33.253 11.1541C32.5139 11.1541 31.8775 10.9867 31.3439 10.652C30.8136 10.3139 30.406 9.84825 30.1209 9.25497C29.8359 8.66169 29.6934 7.98224 29.6934 7.21662C29.6934 6.44105 29.8392 5.75663 30.1309 5.16335C30.4225 4.56676 30.8335 4.10109 31.3638 3.76633C31.8941 3.43158 32.5189 3.2642 33.2381 3.2642C33.8181 3.2642 34.3352 3.37192 34.7892 3.58736C35.2433 3.79948 35.6096 4.09777 35.888 4.48224C36.1697 4.86671 36.3371 5.31581 36.3901 5.82955H34.9434C34.8638 5.47159 34.6815 5.16335 34.3965 4.90483C34.1148 4.64631 33.7369 4.51705 33.263 4.51705C32.8487 4.51705 32.4857 4.62642 32.1742 4.84517C31.8659 5.06061 31.6257 5.36884 31.4533 5.76989C31.281 6.16761 31.1948 6.63826 31.1948 7.18182C31.1948 7.73864 31.2793 8.21922 31.4483 8.62358C31.6174 9.02794 31.856 9.34115 32.1642 9.56321C32.4758 9.78527 32.842 9.89631 33.263 9.89631C33.5447 9.89631 33.7999 9.84493 34.0286 9.74219C34.2606 9.63613 34.4545 9.48532 34.6103 9.28977C34.7694 9.09422 34.8804 8.8589 34.9434 8.58381H36.3901C36.3371 9.07765 36.1763 9.51847 35.9078 9.90625C35.6394 10.294 35.2798 10.599 34.829 10.821C34.3816 11.0431 33.8562 11.1541 33.253 11.1541ZM39.4663 6.46591V11H37.9798V0.818182H39.4464V4.60653H39.5408C39.7198 4.19555 39.9933 3.86908 40.3612 3.62713C40.729 3.38518 41.2096 3.2642 41.8029 3.2642C42.3266 3.2642 42.784 3.37192 43.1751 3.58736C43.5695 3.80279 43.8744 4.12429 44.0898 4.55185C44.3086 4.97609 44.418 5.50639 44.418 6.14276V11H42.9315V6.32173C42.9315 5.7616 42.7873 5.32741 42.4989 5.01918C42.2106 4.70762 41.8095 4.55185 41.2958 4.55185C40.9445 4.55185 40.6296 4.62642 40.3512 4.77557C40.0761 4.92472 39.859 5.14347 39.6999 5.43182C39.5442 5.71686 39.4663 6.06155 39.4663 6.46591ZM48.6239 11.169C48.14 11.169 47.7025 11.0795 47.3114 10.9006C46.9203 10.7183 46.6104 10.4548 46.3817 10.1101C46.1564 9.76539 46.0437 9.3428 46.0437 8.84233C46.0437 8.41146 46.1265 8.05682 46.2923 7.77841C46.458 7.5 46.6817 7.27959 46.9634 7.11719C47.2451 6.95478 47.56 6.83215 47.908 6.74929C48.256 6.66643 48.6107 6.60346 48.9719 6.56037C49.4293 6.50734 49.8005 6.46425 50.0856 6.43111C50.3706 6.39465 50.5778 6.33665 50.707 6.2571C50.8363 6.17756 50.9009 6.0483 50.9009 5.86932V5.83452C50.9009 5.40033 50.7783 5.06392 50.533 4.82528C50.2911 4.58665 49.9298 4.46733 49.4492 4.46733C48.9487 4.46733 48.5543 4.57836 48.266 4.80043C47.9809 5.01918 47.7837 5.26278 47.6744 5.53125L46.2773 5.21307C46.4431 4.74905 46.685 4.37453 47.0032 4.08949C47.3247 3.80114 47.6942 3.59233 48.1119 3.46307C48.5295 3.33049 48.9686 3.2642 49.4293 3.2642C49.7343 3.2642 50.0574 3.30066 50.3988 3.37358C50.7435 3.44318 51.065 3.57244 51.3633 3.76136C51.6649 3.95028 51.9118 4.22041 52.104 4.57173C52.2963 4.91974 52.3924 5.37216 52.3924 5.92898V11H50.9407V9.95597H50.881C50.7849 10.1482 50.6407 10.3371 50.4485 10.5227C50.2563 10.7083 50.0094 10.8625 49.7077 10.9851C49.4061 11.1077 49.0449 11.169 48.6239 11.169ZM48.9471 9.97585C49.3581 9.97585 49.7094 9.89465 50.0011 9.73224C50.296 9.56984 50.5198 9.35772 50.6722 9.09588C50.828 8.83073 50.9059 8.54735 50.9059 8.24574V7.26136C50.8529 7.31439 50.7501 7.36411 50.5977 7.41051C50.4485 7.4536 50.2778 7.49171 50.0856 7.52486C49.8933 7.55469 49.7061 7.58286 49.5238 7.60938C49.3415 7.63258 49.189 7.65246 49.0664 7.66903C48.7781 7.70549 48.5146 7.76681 48.2759 7.85298C48.0406 7.93916 47.8517 8.06345 47.7092 8.22585C47.57 8.38494 47.5004 8.59706 47.5004 8.86222C47.5004 9.23011 47.6362 9.50852 47.908 9.69744C48.1798 9.88305 48.5262 9.97585 48.9471 9.97585ZM54.3723 11V3.36364H55.8091V4.5767H55.8887C56.0279 4.16572 56.2731 3.84257 56.6245 3.60724C56.9791 3.36861 57.3801 3.24929 57.8276 3.24929C57.9204 3.24929 58.0298 3.2526 58.1557 3.25923C58.285 3.26586 58.3861 3.27415 58.459 3.28409V4.70597C58.3993 4.68939 58.2933 4.67116 58.1408 4.65128C57.9883 4.62808 57.8359 4.61648 57.6834 4.61648C57.3321 4.61648 57.0189 4.69105 56.7438 4.8402C56.472 4.98603 56.2566 5.18987 56.0975 5.4517C55.9384 5.71023 55.8588 6.00521 55.8588 6.33665V11H54.3723ZM63.7612 3.36364V4.55682H59.59V3.36364H63.7612ZM60.7086 1.53409H62.1951V8.75781C62.1951 9.04616 62.2382 9.26326 62.3244 9.40909C62.4106 9.55161 62.5216 9.64938 62.6575 9.70241C62.7967 9.75213 62.9475 9.77699 63.1099 9.77699C63.2292 9.77699 63.3336 9.7687 63.4231 9.75213C63.5126 9.73556 63.5822 9.7223 63.6319 9.71236L63.9004 10.9403C63.8142 10.9735 63.6916 11.0066 63.5325 11.0398C63.3734 11.0762 63.1745 11.0961 62.9359 11.0994C62.5448 11.1061 62.1802 11.0365 61.8422 10.8906C61.5041 10.7448 61.2306 10.5194 61.0218 10.2145C60.813 9.90956 60.7086 9.52675 60.7086 9.06605V1.53409ZM69.6451 6.05327V7.34091H65.1309V6.05327H69.6451ZM74.4849 11.1491C73.8684 11.1491 73.3182 10.9917 72.8343 10.6768C72.3538 10.3587 71.9759 9.90625 71.7008 9.3196C71.429 8.72964 71.2931 8.02202 71.2931 7.19673C71.2931 6.37145 71.4307 5.66548 71.7058 5.07884C71.9842 4.49219 72.3654 4.04309 72.8493 3.73153C73.3332 3.41998 73.8817 3.2642 74.4949 3.2642C74.9688 3.2642 75.35 3.34375 75.6383 3.50284C75.93 3.65862 76.1554 3.84091 76.3145 4.04972C76.4769 4.25852 76.6028 4.44247 76.6923 4.60156H76.7818V0.818182H78.2683V11H76.8166V9.81179H76.6923C76.6028 9.9742 76.4735 10.1598 76.3045 10.3686C76.1388 10.5774 75.9101 10.7597 75.6184 10.9155C75.3268 11.0713 74.9489 11.1491 74.4849 11.1491ZM74.813 9.88139C75.2406 9.88139 75.6019 9.7687 75.8968 9.54332C76.1951 9.31463 76.4205 8.99811 76.573 8.59375C76.7288 8.18939 76.8066 7.71875 76.8066 7.18182C76.8066 6.65151 76.7304 6.1875 76.5779 5.78977C76.4255 5.39205 76.2018 5.08215 75.9068 4.86009C75.6118 4.63802 75.2472 4.52699 74.813 4.52699C74.3656 4.52699 73.9927 4.64299 73.6944 4.875C73.3961 5.10701 73.1708 5.42353 73.0183 5.82457C72.8691 6.22562 72.7946 6.67803 72.7946 7.18182C72.7946 7.69223 72.8708 8.15128 73.0233 8.55895C73.1757 8.96662 73.4011 9.28977 73.6994 9.52841C74.001 9.76373 74.3722 9.88139 74.813 9.88139ZM83.6065 11.1541C82.8906 11.1541 82.2659 10.9901 81.7322 10.6619C81.1986 10.3338 80.7843 9.87476 80.4893 9.2848C80.1944 8.69484 80.0469 8.00544 80.0469 7.21662C80.0469 6.42448 80.1944 5.73177 80.4893 5.13849C80.7843 4.54522 81.1986 4.08452 81.7322 3.75639C82.2659 3.42827 82.8906 3.2642 83.6065 3.2642C84.3224 3.2642 84.9472 3.42827 85.4808 3.75639C86.0144 4.08452 86.4287 4.54522 86.7237 5.13849C87.0187 5.73177 87.1662 6.42448 87.1662 7.21662C87.1662 8.00544 87.0187 8.69484 86.7237 9.2848C86.4287 9.87476 86.0144 10.3338 85.4808 10.6619C84.9472 10.9901 84.3224 11.1541 83.6065 11.1541ZM83.6115 9.90625C84.0755 9.90625 84.46 9.78362 84.7649 9.53835C85.0698 9.29309 85.2952 8.96662 85.4411 8.55895C85.5902 8.15128 85.6648 7.70218 85.6648 7.21165C85.6648 6.72443 85.5902 6.27699 85.4411 5.86932C85.2952 5.45833 85.0698 5.12855 84.7649 4.87997C84.46 4.63139 84.0755 4.5071 83.6115 4.5071C83.1442 4.5071 82.7564 4.63139 82.4482 4.87997C82.1432 5.12855 81.9162 5.45833 81.767 5.86932C81.6212 6.27699 81.5483 6.72443 81.5483 7.21165C81.5483 7.70218 81.6212 8.15128 81.767 8.55895C81.9162 8.96662 82.1432 9.29309 82.4482 9.53835C82.7564 9.78362 83.1442 9.90625 83.6115 9.90625ZM90.2486 11L88.0014 3.36364H89.5376L91.0341 8.97159H91.1087L92.6101 3.36364H94.1463L95.6378 8.94673H95.7124L97.1989 3.36364H98.7351L96.4929 11H94.9766L93.4254 5.48651H93.3111L91.7599 11H90.2486ZM101.632 6.46591V11H100.146V3.36364H101.573V4.60653H101.667C101.843 4.20218 102.118 3.87737 102.492 3.6321C102.87 3.38684 103.346 3.2642 103.919 3.2642C104.44 3.2642 104.895 3.37358 105.286 3.59233C105.677 3.80777 105.981 4.12926 106.196 4.55682C106.412 4.98437 106.519 5.51302 106.519 6.14276V11H105.033V6.32173C105.033 5.76823 104.889 5.3357 104.6 5.02415C104.312 4.70928 103.916 4.55185 103.412 4.55185C103.067 4.55185 102.761 4.62642 102.492 4.77557C102.227 4.92472 102.017 5.14347 101.861 5.43182C101.709 5.71686 101.632 6.06155 101.632 6.46591ZM113.012 6.05327V7.34091H108.498V6.05327H113.012ZM118.518 11.169C117.733 11.1657 117.062 10.9586 116.505 10.5476C115.948 10.1366 115.522 9.53835 115.227 8.75284C114.932 7.96733 114.785 7.02107 114.785 5.91406C114.785 4.81037 114.932 3.86742 115.227 3.08523C115.525 2.30303 115.953 1.70644 116.51 1.29545C117.07 0.884469 117.739 0.678977 118.518 0.678977C119.297 0.678977 119.965 0.886126 120.522 1.30043C121.079 1.71141 121.505 2.308 121.8 3.0902C122.098 3.86908 122.247 4.81037 122.247 5.91406C122.247 7.02438 122.099 7.9723 121.805 8.75781C121.51 9.54001 121.084 10.1383 120.527 10.5526C119.97 10.9635 119.3 11.169 118.518 11.169ZM118.518 9.84162C119.208 9.84162 119.746 9.50521 120.134 8.83239C120.525 8.15956 120.721 7.18679 120.721 5.91406C120.721 5.06889 120.631 4.35464 120.452 3.77131C120.277 3.18466 120.023 2.74053 119.692 2.43892C119.363 2.134 118.972 1.98153 118.518 1.98153C117.832 1.98153 117.294 2.3196 116.903 2.99574C116.511 3.67187 116.314 4.64465 116.311 5.91406C116.311 6.76255 116.399 7.48011 116.574 8.06676C116.753 8.65009 117.007 9.09257 117.335 9.39418C117.663 9.69247 118.058 9.84162 118.518 9.84162ZM124.011 11V9.88636L127.456 6.31676C127.824 5.92898 128.127 5.58925 128.366 5.29759C128.608 5.0026 128.788 4.72254 128.908 4.45739C129.027 4.19223 129.087 3.91051 129.087 3.61222C129.087 3.27415 129.007 2.98248 128.848 2.73722C128.689 2.48864 128.472 2.29806 128.197 2.16548C127.922 2.02959 127.612 1.96165 127.267 1.96165C126.902 1.96165 126.584 2.03622 126.312 2.18537C126.041 2.33452 125.832 2.54498 125.686 2.81676C125.54 3.08854 125.467 3.40672 125.467 3.77131H124.001C124.001 3.15151 124.143 2.60961 124.428 2.1456C124.713 1.68158 125.104 1.32197 125.602 1.06676C126.099 0.808238 126.664 0.678977 127.297 0.678977C127.937 0.678977 128.5 0.806581 128.987 1.06179C129.478 1.31368 129.861 1.65838 130.136 2.09588C130.411 2.53007 130.548 3.0206 130.548 3.56747C130.548 3.94531 130.477 4.31487 130.335 4.67614C130.195 5.0374 129.952 5.4401 129.604 5.88423C129.256 6.32505 128.772 6.86032 128.152 7.49006L126.129 9.60795V9.68253H130.712V11H124.011Z" fill="black"/>
</svg>
