<svg width="129" height="12" viewBox="0 0 129 12" fill="none" xmlns="http://www.w3.org/2000/svg">
<path d="M0.118608 11V0.818182H1.60511V4.60156H1.6946C1.78078 4.44247 1.90507 4.25852 2.06747 4.04972C2.22988 3.84091 2.45526 3.65862 2.74361 3.50284C3.03196 3.34375 3.41312 3.2642 3.88707 3.2642C4.50355 3.2642 5.05374 3.41998 5.53764 3.73153C6.02154 4.04309 6.40104 4.49219 6.67614 5.07884C6.95455 5.66548 7.09375 6.37145 7.09375 7.19673C7.09375 8.02202 6.9562 8.72964 6.68111 9.3196C6.40601 9.90625 6.02817 10.3587 5.54759 10.6768C5.067 10.9917 4.51847 11.1491 3.90199 11.1491C3.43797 11.1491 3.05848 11.0713 2.76349 10.9155C2.47183 10.7597 2.24313 10.5774 2.07741 10.3686C1.9117 10.1598 1.78409 9.9742 1.6946 9.81179H1.57031V11H0.118608ZM1.57528 7.18182C1.57528 7.71875 1.65317 8.18939 1.80895 8.59375C1.96473 8.99811 2.1901 9.31463 2.48509 9.54332C2.78007 9.7687 3.14134 9.88139 3.56889 9.88139C4.01302 9.88139 4.38423 9.76373 4.68253 9.52841C4.98082 9.28977 5.2062 8.96662 5.35866 8.55895C5.51444 8.15128 5.59233 7.69223 5.59233 7.18182C5.59233 6.67803 5.5161 6.22562 5.36364 5.82457C5.21449 5.42353 4.98911 5.10701 4.6875 4.875C4.3892 4.64299 4.01634 4.52699 3.56889 4.52699C3.13802 4.52699 2.77344 4.63802 2.47514 4.86009C2.18016 5.08215 1.95644 5.39205 1.80398 5.78977C1.65152 6.1875 1.57528 6.65151 1.57528 7.18182ZM10.9853 11.169C10.5014 11.169 10.0639 11.0795 9.67276 10.9006C9.28166 10.7183 8.97177 10.4548 8.74308 10.1101C8.5177 9.76539 8.40501 9.3428 8.40501 8.84233C8.40501 8.41146 8.48787 8.05682 8.65359 7.77841C8.81931 7.5 9.04303 7.27959 9.32475 7.11719C9.60647 6.95478 9.92134 6.83215 10.2694 6.74929C10.6174 6.66643 10.972 6.60346 11.3333 6.56037C11.7907 6.50734 12.1619 6.46425 12.4469 6.43111C12.7319 6.39465 12.9391 6.33665 13.0684 6.2571C13.1976 6.17756 13.2623 6.0483 13.2623 5.86932V5.83452C13.2623 5.40033 13.1396 5.06392 12.8944 4.82528C12.6524 4.58665 12.2911 4.46733 11.8105 4.46733C11.3101 4.46733 10.9157 4.57836 10.6273 4.80043C10.3423 5.01918 10.1451 5.26278 10.0357 5.53125L8.63867 5.21307C8.80439 4.74905 9.04634 4.37453 9.36452 4.08949C9.68602 3.80114 10.0556 3.59233 10.4732 3.46307C10.8908 3.33049 11.33 3.2642 11.7907 3.2642C12.0956 3.2642 12.4187 3.30066 12.7601 3.37358C13.1048 3.44318 13.4263 3.57244 13.7246 3.76136C14.0262 3.95028 14.2731 4.22041 14.4654 4.57173C14.6576 4.91974 14.7537 5.37216 14.7537 5.92898V11H13.302V9.95597H13.2424C13.1462 10.1482 13.0021 10.3371 12.8098 10.5227C12.6176 10.7083 12.3707 10.8625 12.0691 10.9851C11.7675 11.1077 11.4062 11.169 10.9853 11.169ZM11.3084 9.97585C11.7194 9.97585 12.0707 9.89465 12.3624 9.73224C12.6574 9.56984 12.8811 9.35772 13.0336 9.09588C13.1893 8.83073 13.2672 8.54735 13.2672 8.24574V7.26136C13.2142 7.31439 13.1114 7.36411 12.959 7.41051C12.8098 7.4536 12.6391 7.49171 12.4469 7.52486C12.2547 7.55469 12.0674 7.58286 11.8851 7.60938C11.7028 7.63258 11.5504 7.65246 11.4277 7.66903C11.1394 7.70549 10.8759 7.76681 10.6373 7.85298C10.4019 7.93916 10.213 8.06345 10.0705 8.22585C9.93129 8.38494 9.86168 8.59706 9.86168 8.86222C9.86168 9.23011 9.99757 9.50852 10.2694 9.69744C10.5411 9.88305 10.8875 9.97585 11.3084 9.97585ZM16.7337 11V3.36364H18.1705V4.5767H18.25C18.3892 4.16572 18.6345 3.84257 18.9858 3.60724C19.3404 3.36861 19.7415 3.24929 20.1889 3.24929C20.2817 3.24929 20.3911 3.2526 20.517 3.25923C20.6463 3.26586 20.7474 3.27415 20.8203 3.28409V4.70597C20.7607 4.68939 20.6546 4.67116 20.5021 4.65128C20.3497 4.62808 20.1972 4.61648 20.0447 4.61648C19.6934 4.61648 19.3802 4.69105 19.1051 4.8402C18.8333 4.98603 18.6179 5.18987 18.4588 5.4517C18.2997 5.71023 18.2202 6.00521 18.2202 6.33665V11H16.7337ZM26.1548 6.05327V7.34091H21.6406V6.05327H26.1548ZM31.3526 11.1541C30.6135 11.1541 29.9772 10.9867 29.4435 10.652C28.9132 10.3139 28.5056 9.84825 28.2205 9.25497C27.9355 8.66169 27.793 7.98224 27.793 7.21662C27.793 6.44105 27.9388 5.75663 28.2305 5.16335C28.5221 4.56676 28.9331 4.10109 29.4634 3.76633C29.9937 3.43158 30.6185 3.2642 31.3377 3.2642C31.9177 3.2642 32.4348 3.37192 32.8888 3.58736C33.3429 3.79948 33.7092 4.09777 33.9876 4.48224C34.2693 4.86671 34.4367 5.31581 34.4897 5.82955H33.043C32.9634 5.47159 32.7811 5.16335 32.4961 4.90483C32.2144 4.64631 31.8365 4.51705 31.3626 4.51705C30.9483 4.51705 30.5853 4.62642 30.2738 4.84517C29.9656 5.06061 29.7253 5.36884 29.5529 5.76989C29.3806 6.16761 29.2944 6.63826 29.2944 7.18182C29.2944 7.73864 29.3789 8.21922 29.5479 8.62358C29.717 9.02794 29.9556 9.34115 30.2638 9.56321C30.5754 9.78527 30.9416 9.89631 31.3626 9.89631C31.6443 9.89631 31.8995 9.84493 32.1282 9.74219C32.3602 9.63613 32.5541 9.48532 32.7099 9.28977C32.869 9.09422 32.98 8.8589 33.043 8.58381H34.4897C34.4367 9.07765 34.2759 9.51847 34.0075 9.90625C33.739 10.294 33.3794 10.599 32.9286 10.821C32.4812 11.0431 31.9558 11.1541 31.3526 11.1541ZM37.5659 6.46591V11H36.0794V0.818182H37.546V4.60653H37.6404C37.8194 4.19555 38.0929 3.86908 38.4608 3.62713C38.8287 3.38518 39.3092 3.2642 39.9025 3.2642C40.4262 3.2642 40.8836 3.37192 41.2747 3.58736C41.6691 3.80279 41.974 4.12429 42.1895 4.55185C42.4082 4.97609 42.5176 5.50639 42.5176 6.14276V11H41.0311V6.32173C41.0311 5.7616 40.8869 5.32741 40.5985 5.01918C40.3102 4.70762 39.9092 4.55185 39.3954 4.55185C39.0441 4.55185 38.7292 4.62642 38.4508 4.77557C38.1757 4.92472 37.9586 5.14347 37.7995 5.43182C37.6438 5.71686 37.5659 6.06155 37.5659 6.46591ZM46.7235 11.169C46.2396 11.169 45.8021 11.0795 45.411 10.9006C45.0199 10.7183 44.71 10.4548 44.4814 10.1101C44.256 9.76539 44.1433 9.3428 44.1433 8.84233C44.1433 8.41146 44.2261 8.05682 44.3919 7.77841C44.5576 7.5 44.7813 7.27959 45.063 7.11719C45.3448 6.95478 45.6596 6.83215 46.0076 6.74929C46.3556 6.66643 46.7103 6.60346 47.0716 6.56037C47.5289 6.50734 47.9002 6.46425 48.1852 6.43111C48.4702 6.39465 48.6774 6.33665 48.8066 6.2571C48.9359 6.17756 49.0005 6.0483 49.0005 5.86932V5.83452C49.0005 5.40033 48.8779 5.06392 48.6326 4.82528C48.3907 4.58665 48.0294 4.46733 47.5488 4.46733C47.0484 4.46733 46.6539 4.57836 46.3656 4.80043C46.0806 5.01918 45.8833 5.26278 45.774 5.53125L44.377 5.21307C44.5427 4.74905 44.7846 4.37453 45.1028 4.08949C45.4243 3.80114 45.7939 3.59233 46.2115 3.46307C46.6291 3.33049 47.0682 3.2642 47.5289 3.2642C47.8339 3.2642 48.157 3.30066 48.4984 3.37358C48.8431 3.44318 49.1646 3.57244 49.4629 3.76136C49.7645 3.95028 50.0114 4.22041 50.2037 4.57173C50.3959 4.91974 50.492 5.37216 50.492 5.92898V11H49.0403V9.95597H48.9806C48.8845 10.1482 48.7404 10.3371 48.5481 10.5227C48.3559 10.7083 48.109 10.8625 47.8074 10.9851C47.5057 11.1077 47.1445 11.169 46.7235 11.169ZM47.0467 9.97585C47.4577 9.97585 47.809 9.89465 48.1007 9.73224C48.3957 9.56984 48.6194 9.35772 48.7718 9.09588C48.9276 8.83073 49.0055 8.54735 49.0055 8.24574V7.26136C48.9525 7.31439 48.8497 7.36411 48.6973 7.41051C48.5481 7.4536 48.3774 7.49171 48.1852 7.52486C47.993 7.55469 47.8057 7.58286 47.6234 7.60938C47.4411 7.63258 47.2886 7.65246 47.166 7.66903C46.8777 7.70549 46.6142 7.76681 46.3755 7.85298C46.1402 7.93916 45.9513 8.06345 45.8088 8.22585C45.6696 8.38494 45.6 8.59706 45.6 8.86222C45.6 9.23011 45.7359 9.50852 46.0076 9.69744C46.2794 9.88305 46.6258 9.97585 47.0467 9.97585ZM52.4719 11V3.36364H53.9087V4.5767H53.9883C54.1275 4.16572 54.3728 3.84257 54.7241 3.60724C55.0787 3.36861 55.4798 3.24929 55.9272 3.24929C56.02 3.24929 56.1294 3.2526 56.2553 3.25923C56.3846 3.26586 56.4857 3.27415 56.5586 3.28409V4.70597C56.4989 4.68939 56.3929 4.67116 56.2404 4.65128C56.0879 4.62808 55.9355 4.61648 55.783 4.61648C55.4317 4.61648 55.1185 4.69105 54.8434 4.8402C54.5716 4.98603 54.3562 5.18987 54.1971 5.4517C54.038 5.71023 53.9585 6.00521 53.9585 6.33665V11H52.4719ZM61.8608 3.36364V4.55682H57.6896V3.36364H61.8608ZM58.8082 1.53409H60.2947V8.75781C60.2947 9.04616 60.3378 9.26326 60.424 9.40909C60.5102 9.55161 60.6212 9.64938 60.7571 9.70241C60.8963 9.75213 61.0471 9.77699 61.2095 9.77699C61.3288 9.77699 61.4332 9.7687 61.5227 9.75213C61.6122 9.73556 61.6818 9.7223 61.7315 9.71236L62 10.9403C61.9138 10.9735 61.7912 11.0066 61.6321 11.0398C61.473 11.0762 61.2741 11.0961 61.0355 11.0994C60.6444 11.1061 60.2798 11.0365 59.9418 10.8906C59.6037 10.7448 59.3303 10.5194 59.1214 10.2145C58.9126 9.90956 58.8082 9.52675 58.8082 9.06605V1.53409ZM67.7447 6.05327V7.34091H63.2305V6.05327H67.7447ZM72.9425 11.1541C72.2034 11.1541 71.567 10.9867 71.0334 10.652C70.5031 10.3139 70.0954 9.84825 69.8104 9.25497C69.5253 8.66169 69.3828 7.98224 69.3828 7.21662C69.3828 6.44105 69.5286 5.75663 69.8203 5.16335C70.112 4.56676 70.523 4.10109 71.0533 3.76633C71.5836 3.43158 72.2083 3.2642 72.9276 3.2642C73.5076 3.2642 74.0246 3.37192 74.4787 3.58736C74.9328 3.79948 75.299 4.09777 75.5774 4.48224C75.8591 4.86671 76.0265 5.31581 76.0795 5.82955H74.6328C74.5533 5.47159 74.371 5.16335 74.0859 4.90483C73.8042 4.64631 73.4264 4.51705 72.9524 4.51705C72.5381 4.51705 72.1752 4.62642 71.8636 4.84517C71.5554 5.06061 71.3151 5.36884 71.1428 5.76989C70.9704 6.16761 70.8842 6.63826 70.8842 7.18182C70.8842 7.73864 70.9688 8.21922 71.1378 8.62358C71.3068 9.02794 71.5455 9.34115 71.8537 9.56321C72.1652 9.78527 72.5315 9.89631 72.9524 9.89631C73.2341 9.89631 73.4893 9.84493 73.718 9.74219C73.95 9.63613 74.1439 9.48532 74.2997 9.28977C74.4588 9.09422 74.5698 8.8589 74.6328 8.58381H76.0795C76.0265 9.07765 75.8658 9.51847 75.5973 9.90625C75.3288 10.294 74.9692 10.599 74.5185 10.821C74.071 11.0431 73.5457 11.1541 72.9425 11.1541ZM77.6692 11V3.36364H79.1557V11H77.6692ZM78.4199 2.18537C78.1614 2.18537 77.9393 2.09919 77.7537 1.92685C77.5714 1.75118 77.4803 1.54238 77.4803 1.30043C77.4803 1.05516 77.5714 0.846354 77.7537 0.674005C77.9393 0.498342 78.1614 0.410511 78.4199 0.410511C78.6784 0.410511 78.8989 0.498342 79.0811 0.674005C79.2667 0.846354 79.3596 1.05516 79.3596 1.30043C79.3596 1.54238 79.2667 1.75118 79.0811 1.92685C78.8989 2.09919 78.6784 2.18537 78.4199 2.18537ZM81.1555 11V3.36364H82.5923V4.5767H82.6719C82.8111 4.16572 83.0563 3.84257 83.4077 3.60724C83.7623 3.36861 84.1634 3.24929 84.6108 3.24929C84.7036 3.24929 84.813 3.2526 84.9389 3.25923C85.0682 3.26586 85.1693 3.27415 85.2422 3.28409V4.70597C85.1825 4.68939 85.0765 4.67116 84.924 4.65128C84.7715 4.62808 84.6191 4.61648 84.4666 4.61648C84.1153 4.61648 83.8021 4.69105 83.527 4.8402C83.2552 4.98603 83.0398 5.18987 82.8807 5.4517C82.7216 5.71023 82.642 6.00521 82.642 6.33665V11H81.1555ZM89.4718 11.1541C88.7327 11.1541 88.0963 10.9867 87.5627 10.652C87.0324 10.3139 86.6247 9.84825 86.3397 9.25497C86.0546 8.66169 85.9121 7.98224 85.9121 7.21662C85.9121 6.44105 86.0579 5.75663 86.3496 5.16335C86.6413 4.56676 87.0523 4.10109 87.5826 3.76633C88.1129 3.43158 88.7376 3.2642 89.4569 3.2642C90.0369 3.2642 90.5539 3.37192 91.008 3.58736C91.4621 3.79948 91.8283 4.09777 92.1067 4.48224C92.3884 4.86671 92.5558 5.31581 92.6088 5.82955H91.1621C91.0826 5.47159 90.9003 5.16335 90.6152 4.90483C90.3335 4.64631 89.9557 4.51705 89.4817 4.51705C89.0674 4.51705 88.7045 4.62642 88.3929 4.84517C88.0847 5.06061 87.8444 5.36884 87.6721 5.76989C87.4997 6.16761 87.4135 6.63826 87.4135 7.18182C87.4135 7.73864 87.498 8.21922 87.6671 8.62358C87.8361 9.02794 88.0748 9.34115 88.383 9.56321C88.6945 9.78527 89.0608 9.89631 89.4817 9.89631C89.7634 9.89631 90.0186 9.84493 90.2473 9.74219C90.4793 9.63613 90.6732 9.48532 90.829 9.28977C90.9881 9.09422 91.0991 8.8589 91.1621 8.58381H92.6088C92.5558 9.07765 92.3951 9.51847 92.1266 9.90625C91.8581 10.294 91.4985 10.599 91.0478 10.821C90.6003 11.0431 90.075 11.1541 89.4718 11.1541ZM95.685 0.818182V11H94.1985V0.818182H95.685ZM100.976 11.1541C100.224 11.1541 99.5757 10.9934 99.0321 10.6719C98.4919 10.3471 98.0743 9.89134 97.7793 9.30469C97.4876 8.71473 97.3418 8.02367 97.3418 7.23153C97.3418 6.44934 97.4876 5.75994 97.7793 5.16335C98.0743 4.56676 98.4853 4.10109 99.0123 3.76633C99.5426 3.43158 100.162 3.2642 100.872 3.2642C101.302 3.2642 101.72 3.33546 102.124 3.47798C102.529 3.6205 102.892 3.84422 103.213 4.14915C103.535 4.45407 103.788 4.85014 103.974 5.33736C104.16 5.82126 104.252 6.40956 104.252 7.10227V7.62926H98.182V6.51562H102.796C102.796 6.12453 102.716 5.77817 102.557 5.47656C102.398 5.17164 102.174 4.93134 101.886 4.75568C101.601 4.58002 101.266 4.49219 100.882 4.49219C100.464 4.49219 100.099 4.59493 99.7878 4.80043C99.4796 5.0026 99.2409 5.26776 99.0719 5.59588C98.9062 5.92069 98.8233 6.27367 98.8233 6.65483V7.52486C98.8233 8.03527 98.9128 8.46946 99.0918 8.82741C99.2741 9.18537 99.5276 9.45881 99.8525 9.64773C100.177 9.83333 100.557 9.92614 100.991 9.92614C101.273 9.92614 101.53 9.88636 101.762 9.80682C101.994 9.72396 102.194 9.60133 102.363 9.43892C102.532 9.27652 102.661 9.07599 102.751 8.83736L104.158 9.09091C104.045 9.50521 103.843 9.86813 103.551 10.1797C103.263 10.4879 102.9 10.7282 102.463 10.9006C102.028 11.0696 101.533 11.1541 100.976 11.1541ZM110.401 6.05327V7.34091H105.887V6.05327H110.401ZM115.907 11.169C115.121 11.1657 114.45 10.9586 113.893 10.5476C113.337 10.1366 112.911 9.53835 112.616 8.75284C112.321 7.96733 112.173 7.02107 112.173 5.91406C112.173 4.81037 112.321 3.86742 112.616 3.08523C112.914 2.30303 113.342 1.70644 113.898 1.29545C114.459 0.884469 115.128 0.678977 115.907 0.678977C116.686 0.678977 117.354 0.886126 117.911 1.30043C118.467 1.71141 118.893 2.308 119.188 3.0902C119.487 3.86908 119.636 4.81037 119.636 5.91406C119.636 7.02438 119.488 7.9723 119.193 8.75781C118.898 9.54001 118.472 10.1383 117.915 10.5526C117.359 10.9635 116.689 11.169 115.907 11.169ZM115.907 9.84162C116.596 9.84162 117.135 9.50521 117.523 8.83239C117.914 8.15956 118.109 7.18679 118.109 5.91406C118.109 5.06889 118.02 4.35464 117.841 3.77131C117.665 3.18466 117.412 2.74053 117.08 2.43892C116.752 2.134 116.361 1.98153 115.907 1.98153C115.221 1.98153 114.682 2.3196 114.291 2.99574C113.9 3.67187 113.703 4.64465 113.7 5.91406C113.7 6.76255 113.787 7.48011 113.963 8.06676C114.142 8.65009 114.396 9.09257 114.724 9.39418C115.052 9.69247 115.446 9.84162 115.907 9.84162ZM121.399 11V9.88636L124.845 6.31676C125.213 5.92898 125.516 5.58925 125.754 5.29759C125.996 5.0026 126.177 4.72254 126.296 4.45739C126.416 4.19223 126.475 3.91051 126.475 3.61222C126.475 3.27415 126.396 2.98248 126.237 2.73722C126.078 2.48864 125.86 2.29806 125.585 2.16548C125.31 2.02959 125 1.96165 124.656 1.96165C124.291 1.96165 123.973 2.03622 123.701 2.18537C123.429 2.33452 123.221 2.54498 123.075 2.81676C122.929 3.08854 122.856 3.40672 122.856 3.77131H121.389C121.389 3.15151 121.532 2.60961 121.817 2.1456C122.102 1.68158 122.493 1.32197 122.99 1.06676C123.487 0.808238 124.052 0.678977 124.686 0.678977C125.325 0.678977 125.889 0.806581 126.376 1.06179C126.866 1.31368 127.249 1.65838 127.524 2.09588C127.799 2.53007 127.937 3.0206 127.937 3.56747C127.937 3.94531 127.866 4.31487 127.723 4.67614C127.584 5.0374 127.34 5.4401 126.992 5.88423C126.644 6.32505 126.16 6.86032 125.541 7.49006L123.517 9.60795V9.68253H128.101V11H121.399Z" fill="black"/>
</svg>
