<svg width="93" height="12" viewBox="0 0 93 12" fill="none" xmlns="http://www.w3.org/2000/svg">
<path d="M0.118608 11V0.818182H1.60511V4.60156H1.6946C1.78078 4.44247 1.90507 4.25852 2.06747 4.04972C2.22988 3.84091 2.45526 3.65862 2.74361 3.50284C3.03196 3.34375 3.41312 3.2642 3.88707 3.2642C4.50355 3.2642 5.05374 3.41998 5.53764 3.73153C6.02154 4.04309 6.40104 4.49219 6.67614 5.07884C6.95455 5.66548 7.09375 6.37145 7.09375 7.19673C7.09375 8.02202 6.9562 8.72964 6.68111 9.3196C6.40601 9.90625 6.02817 10.3587 5.54759 10.6768C5.067 10.9917 4.51847 11.1491 3.90199 11.1491C3.43797 11.1491 3.05848 11.0713 2.76349 10.9155C2.47183 10.7597 2.24313 10.5774 2.07741 10.3686C1.9117 10.1598 1.78409 9.9742 1.6946 9.81179H1.57031V11H0.118608ZM1.57528 7.18182C1.57528 7.71875 1.65317 8.18939 1.80895 8.59375C1.96473 8.99811 2.1901 9.31463 2.48509 9.54332C2.78007 9.7687 3.14134 9.88139 3.56889 9.88139C4.01302 9.88139 4.38423 9.76373 4.68253 9.52841C4.98082 9.28977 5.2062 8.96662 5.35866 8.55895C5.51444 8.15128 5.59233 7.69223 5.59233 7.18182C5.59233 6.67803 5.5161 6.22562 5.36364 5.82457C5.21449 5.42353 4.98911 5.10701 4.6875 4.875C4.3892 4.64299 4.01634 4.52699 3.56889 4.52699C3.13802 4.52699 2.77344 4.63802 2.47514 4.86009C2.18016 5.08215 1.95644 5.39205 1.80398 5.78977C1.65152 6.1875 1.57528 6.65151 1.57528 7.18182ZM10.9853 11.169C10.5014 11.169 10.0639 11.0795 9.67276 10.9006C9.28166 10.7183 8.97177 10.4548 8.74308 10.1101C8.5177 9.76539 8.40501 9.3428 8.40501 8.84233C8.40501 8.41146 8.48787 8.05682 8.65359 7.77841C8.81931 7.5 9.04303 7.27959 9.32475 7.11719C9.60647 6.95478 9.92134 6.83215 10.2694 6.74929C10.6174 6.66643 10.972 6.60346 11.3333 6.56037C11.7907 6.50734 12.1619 6.46425 12.4469 6.43111C12.7319 6.39465 12.9391 6.33665 13.0684 6.2571C13.1976 6.17756 13.2623 6.0483 13.2623 5.86932V5.83452C13.2623 5.40033 13.1396 5.06392 12.8944 4.82528C12.6524 4.58665 12.2911 4.46733 11.8105 4.46733C11.3101 4.46733 10.9157 4.57836 10.6273 4.80043C10.3423 5.01918 10.1451 5.26278 10.0357 5.53125L8.63867 5.21307C8.80439 4.74905 9.04634 4.37453 9.36452 4.08949C9.68602 3.80114 10.0556 3.59233 10.4732 3.46307C10.8908 3.33049 11.33 3.2642 11.7907 3.2642C12.0956 3.2642 12.4187 3.30066 12.7601 3.37358C13.1048 3.44318 13.4263 3.57244 13.7246 3.76136C14.0262 3.95028 14.2731 4.22041 14.4654 4.57173C14.6576 4.91974 14.7537 5.37216 14.7537 5.92898V11H13.302V9.95597H13.2424C13.1462 10.1482 13.0021 10.3371 12.8098 10.5227C12.6176 10.7083 12.3707 10.8625 12.0691 10.9851C11.7675 11.1077 11.4062 11.169 10.9853 11.169ZM11.3084 9.97585C11.7194 9.97585 12.0707 9.89465 12.3624 9.73224C12.6574 9.56984 12.8811 9.35772 13.0336 9.09588C13.1893 8.83073 13.2672 8.54735 13.2672 8.24574V7.26136C13.2142 7.31439 13.1114 7.36411 12.959 7.41051C12.8098 7.4536 12.6391 7.49171 12.4469 7.52486C12.2547 7.55469 12.0674 7.58286 11.8851 7.60938C11.7028 7.63258 11.5504 7.65246 11.4277 7.66903C11.1394 7.70549 10.8759 7.76681 10.6373 7.85298C10.4019 7.93916 10.213 8.06345 10.0705 8.22585C9.93129 8.38494 9.86168 8.59706 9.86168 8.86222C9.86168 9.23011 9.99757 9.50852 10.2694 9.69744C10.5411 9.88305 10.8875 9.97585 11.3084 9.97585ZM16.7337 11V3.36364H18.1705V4.5767H18.25C18.3892 4.16572 18.6345 3.84257 18.9858 3.60724C19.3404 3.36861 19.7415 3.24929 20.1889 3.24929C20.2817 3.24929 20.3911 3.2526 20.517 3.25923C20.6463 3.26586 20.7474 3.27415 20.8203 3.28409V4.70597C20.7607 4.68939 20.6546 4.67116 20.5021 4.65128C20.3497 4.62808 20.1972 4.61648 20.0447 4.61648C19.6934 4.61648 19.3802 4.69105 19.1051 4.8402C18.8333 4.98603 18.6179 5.18987 18.4588 5.4517C18.2997 5.71023 18.2202 6.00521 18.2202 6.33665V11H16.7337ZM26.1548 6.05327V7.34091H21.6406V6.05327H26.1548ZM29.6225 0.818182V11H28.136V0.818182H29.6225ZM31.6223 11V3.36364H33.1088V11H31.6223ZM32.373 2.18537C32.1145 2.18537 31.8925 2.09919 31.7069 1.92685C31.5246 1.75118 31.4334 1.54238 31.4334 1.30043C31.4334 1.05516 31.5246 0.846354 31.7069 0.674005C31.8925 0.498342 32.1145 0.410511 32.373 0.410511C32.6316 0.410511 32.852 0.498342 33.0343 0.674005C33.2199 0.846354 33.3127 1.05516 33.3127 1.30043C33.3127 1.54238 33.2199 1.75118 33.0343 1.92685C32.852 2.09919 32.6316 2.18537 32.373 2.18537ZM36.5952 6.46591V11H35.1087V3.36364H36.5355V4.60653H36.63C36.8056 4.20218 37.0807 3.87737 37.4553 3.6321C37.8331 3.38684 38.3087 3.2642 38.8821 3.2642C39.4025 3.2642 39.8582 3.37358 40.2493 3.59233C40.6404 3.80777 40.9437 4.12926 41.1591 4.55682C41.3745 4.98437 41.4822 5.51302 41.4822 6.14276V11H39.9957V6.32173C39.9957 5.76823 39.8516 5.3357 39.5632 5.02415C39.2749 4.70928 38.8788 4.55185 38.375 4.55185C38.0303 4.55185 37.7237 4.62642 37.4553 4.77557C37.1901 4.92472 36.9796 5.14347 36.8239 5.43182C36.6714 5.71686 36.5952 6.06155 36.5952 6.46591ZM46.767 11.1541C46.0147 11.1541 45.3667 10.9934 44.8232 10.6719C44.2829 10.3471 43.8653 9.89134 43.5703 9.30469C43.2786 8.71473 43.1328 8.02367 43.1328 7.23153C43.1328 6.44934 43.2786 5.75994 43.5703 5.16335C43.8653 4.56676 44.2763 4.10109 44.8033 3.76633C45.3336 3.43158 45.9534 3.2642 46.6626 3.2642C47.0935 3.2642 47.5111 3.33546 47.9155 3.47798C48.3198 3.6205 48.6828 3.84422 49.0043 4.14915C49.3258 4.45407 49.5793 4.85014 49.7649 5.33736C49.9505 5.82126 50.0433 6.40956 50.0433 7.10227V7.62926H43.973V6.51562H48.5866C48.5866 6.12453 48.5071 5.77817 48.348 5.47656C48.1889 5.17164 47.9652 4.93134 47.6768 4.75568C47.3918 4.58002 47.0571 4.49219 46.6726 4.49219C46.255 4.49219 45.8904 4.59493 45.5788 4.80043C45.2706 5.0026 45.032 5.26776 44.8629 5.59588C44.6972 5.92069 44.6143 6.27367 44.6143 6.65483V7.52486C44.6143 8.03527 44.7038 8.46946 44.8828 8.82741C45.0651 9.18537 45.3187 9.45881 45.6435 9.64773C45.9683 9.83333 46.3478 9.92614 46.782 9.92614C47.0637 9.92614 47.3205 9.88636 47.5526 9.80682C47.7846 9.72396 47.9851 9.60133 48.1541 9.43892C48.3232 9.27652 48.4524 9.07599 48.5419 8.83736L49.9489 9.09091C49.8362 9.50521 49.634 9.86813 49.3423 10.1797C49.054 10.4879 48.6911 10.7282 48.2536 10.9006C47.8194 11.0696 47.3239 11.1541 46.767 11.1541ZM56.1919 6.05327V7.34091H51.6777V6.05327H56.1919ZM61.3897 11.1541C60.6506 11.1541 60.0143 10.9867 59.4806 10.652C58.9503 10.3139 58.5427 9.84825 58.2576 9.25497C57.9726 8.66169 57.8301 7.98224 57.8301 7.21662C57.8301 6.44105 57.9759 5.75663 58.2676 5.16335C58.5592 4.56676 58.9702 4.10109 59.5005 3.76633C60.0308 3.43158 60.6556 3.2642 61.3748 3.2642C61.9548 3.2642 62.4719 3.37192 62.926 3.58736C63.38 3.79948 63.7463 4.09777 64.0247 4.48224C64.3064 4.86671 64.4738 5.31581 64.5268 5.82955H63.0801C63.0005 5.47159 62.8182 5.16335 62.5332 4.90483C62.2515 4.64631 61.8736 4.51705 61.3997 4.51705C60.9854 4.51705 60.6225 4.62642 60.3109 4.84517C60.0027 5.06061 59.7624 5.36884 59.59 5.76989C59.4177 6.16761 59.3315 6.63826 59.3315 7.18182C59.3315 7.73864 59.416 8.21922 59.585 8.62358C59.7541 9.02794 59.9927 9.34115 60.301 9.56321C60.6125 9.78527 60.9788 9.89631 61.3997 9.89631C61.6814 9.89631 61.9366 9.84493 62.1653 9.74219C62.3973 9.63613 62.5912 9.48532 62.747 9.28977C62.9061 9.09422 63.0171 8.8589 63.0801 8.58381H64.5268C64.4738 9.07765 64.313 9.51847 64.0446 9.90625C63.7761 10.294 63.4165 10.599 62.9657 10.821C62.5183 11.0431 61.993 11.1541 61.3897 11.1541ZM67.603 6.46591V11H66.1165V0.818182H67.5831V4.60653H67.6776C67.8565 4.19555 68.13 3.86908 68.4979 3.62713C68.8658 3.38518 69.3464 3.2642 69.9396 3.2642C70.4633 3.2642 70.9207 3.37192 71.3118 3.58736C71.7062 3.80279 72.0111 4.12429 72.2266 4.55185C72.4453 4.97609 72.5547 5.50639 72.5547 6.14276V11H71.0682V6.32173C71.0682 5.7616 70.924 5.32741 70.6357 5.01918C70.3473 4.70762 69.9463 4.55185 69.4325 4.55185C69.0812 4.55185 68.7663 4.62642 68.4879 4.77557C68.2128 4.92472 67.9957 5.14347 67.8366 5.43182C67.6809 5.71686 67.603 6.06155 67.603 6.46591ZM76.7607 11.169C76.2768 11.169 75.8393 11.0795 75.4482 10.9006C75.0571 10.7183 74.7472 10.4548 74.5185 10.1101C74.2931 9.76539 74.1804 9.3428 74.1804 8.84233C74.1804 8.41146 74.2633 8.05682 74.429 7.77841C74.5947 7.5 74.8184 7.27959 75.1001 7.11719C75.3819 6.95478 75.6967 6.83215 76.0447 6.74929C76.3928 6.66643 76.7474 6.60346 77.1087 6.56037C77.5661 6.50734 77.9373 6.46425 78.2223 6.43111C78.5073 6.39465 78.7145 6.33665 78.8438 6.2571C78.973 6.17756 79.0376 6.0483 79.0376 5.86932V5.83452C79.0376 5.40033 78.915 5.06392 78.6697 4.82528C78.4278 4.58665 78.0665 4.46733 77.5859 4.46733C77.0855 4.46733 76.6911 4.57836 76.4027 4.80043C76.1177 5.01918 75.9205 5.26278 75.8111 5.53125L74.4141 5.21307C74.5798 4.74905 74.8217 4.37453 75.1399 4.08949C75.4614 3.80114 75.831 3.59233 76.2486 3.46307C76.6662 3.33049 77.1054 3.2642 77.5661 3.2642C77.871 3.2642 78.1941 3.30066 78.5355 3.37358C78.8802 3.44318 79.2017 3.57244 79.5 3.76136C79.8016 3.95028 80.0485 4.22041 80.2408 4.57173C80.433 4.91974 80.5291 5.37216 80.5291 5.92898V11H79.0774V9.95597H79.0178C78.9216 10.1482 78.7775 10.3371 78.5852 10.5227C78.393 10.7083 78.1461 10.8625 77.8445 10.9851C77.5429 11.1077 77.1816 11.169 76.7607 11.169ZM77.0838 9.97585C77.4948 9.97585 77.8461 9.89465 78.1378 9.73224C78.4328 9.56984 78.6565 9.35772 78.8089 9.09588C78.9647 8.83073 79.0426 8.54735 79.0426 8.24574V7.26136C78.9896 7.31439 78.8868 7.36411 78.7344 7.41051C78.5852 7.4536 78.4145 7.49171 78.2223 7.52486C78.0301 7.55469 77.8428 7.58286 77.6605 7.60938C77.4782 7.63258 77.3258 7.65246 77.2031 7.66903C76.9148 7.70549 76.6513 7.76681 76.4126 7.85298C76.1773 7.93916 75.9884 8.06345 75.8459 8.22585C75.7067 8.38494 75.6371 8.59706 75.6371 8.86222C75.6371 9.23011 75.773 9.50852 76.0447 9.69744C76.3165 9.88305 76.6629 9.97585 77.0838 9.97585ZM82.5091 11V3.36364H83.9458V4.5767H84.0254C84.1646 4.16572 84.4099 3.84257 84.7612 3.60724C85.1158 3.36861 85.5169 3.24929 85.9643 3.24929C86.0571 3.24929 86.1665 3.2526 86.2924 3.25923C86.4217 3.26586 86.5228 3.27415 86.5957 3.28409V4.70597C86.536 4.68939 86.43 4.67116 86.2775 4.65128C86.1251 4.62808 85.9726 4.61648 85.8201 4.61648C85.4688 4.61648 85.1556 4.69105 84.8805 4.8402C84.6087 4.98603 84.3933 5.18987 84.2342 5.4517C84.0751 5.71023 83.9956 6.00521 83.9956 6.33665V11H82.5091ZM91.8979 3.36364V4.55682H87.7267V3.36364H91.8979ZM88.8453 1.53409H90.3319V8.75781C90.3319 9.04616 90.3749 9.26326 90.4611 9.40909C90.5473 9.55161 90.6583 9.64938 90.7942 9.70241C90.9334 9.75213 91.0842 9.77699 91.2466 9.77699C91.3659 9.77699 91.4703 9.7687 91.5598 9.75213C91.6493 9.73556 91.7189 9.7223 91.7686 9.71236L92.0371 10.9403C91.9509 10.9735 91.8283 11.0066 91.6692 11.0398C91.5101 11.0762 91.3113 11.0961 91.0726 11.0994C90.6815 11.1061 90.3169 11.0365 89.9789 10.8906C89.6408 10.7448 89.3674 10.5194 89.1586 10.2145C88.9498 9.90956 88.8453 9.52675 88.8453 9.06605V1.53409Z" fill="black"/>
</svg>
