<svg width="146" height="14" viewBox="0 0 146 14" fill="none" xmlns="http://www.w3.org/2000/svg">
<path d="M-0.000710189 13.8636V3.36364H1.45099V4.60156H1.57528C1.66146 4.44247 1.78575 4.25852 1.94815 4.04972C2.11056 3.84091 2.33594 3.65862 2.62429 3.50284C2.91264 3.34375 3.2938 3.2642 3.76776 3.2642C4.38423 3.2642 4.93442 3.41998 5.41832 3.73153C5.90223 4.04309 6.28172 4.49219 6.55682 5.07884C6.83523 5.66548 6.97443 6.37145 6.97443 7.19673C6.97443 8.02202 6.83688 8.72964 6.56179 9.3196C6.2867 9.90625 5.90885 10.3587 5.42827 10.6768C4.94768 10.9917 4.39915 11.1491 3.78267 11.1491C3.31866 11.1491 2.93916 11.0713 2.64418 10.9155C2.35251 10.7597 2.12382 10.5774 1.9581 10.3686C1.79238 10.1598 1.66477 9.9742 1.57528 9.81179H1.4858V13.8636H-0.000710189ZM1.45597 7.18182C1.45597 7.71875 1.53385 8.18939 1.68963 8.59375C1.84541 8.99811 2.07079 9.31463 2.36577 9.54332C2.66075 9.7687 3.02202 9.88139 3.44957 9.88139C3.8937 9.88139 4.26491 9.76373 4.56321 9.52841C4.86151 9.28977 5.08688 8.96662 5.23935 8.55895C5.39512 8.15128 5.47301 7.69223 5.47301 7.18182C5.47301 6.67803 5.39678 6.22562 5.24432 5.82457C5.09517 5.42353 4.86979 5.10701 4.56818 4.875C4.26989 4.64299 3.89702 4.52699 3.44957 4.52699C3.0187 4.52699 2.65412 4.63802 2.35582 4.86009C2.06084 5.08215 1.83712 5.39205 1.68466 5.78977C1.5322 6.1875 1.45597 6.65151 1.45597 7.18182ZM8.63991 11V3.36364H10.0767V4.5767H10.1562C10.2955 4.16572 10.5407 3.84257 10.892 3.60724C11.2467 3.36861 11.6477 3.24929 12.0952 3.24929C12.188 3.24929 12.2973 3.2526 12.4233 3.25923C12.5526 3.26586 12.6536 3.27415 12.7266 3.28409V4.70597C12.6669 4.68939 12.5608 4.67116 12.4084 4.65128C12.2559 4.62808 12.1035 4.61648 11.951 4.61648C11.5997 4.61648 11.2865 4.69105 11.0114 4.8402C10.7396 4.98603 10.5241 5.18987 10.3651 5.4517C10.206 5.71023 10.1264 6.00521 10.1264 6.33665V11H8.63991ZM17.0307 11.1541C16.2783 11.1541 15.6304 10.9934 15.0868 10.6719C14.5466 10.3471 14.129 9.89134 13.834 9.30469C13.5423 8.71473 13.3965 8.02367 13.3965 7.23153C13.3965 6.44934 13.5423 5.75994 13.834 5.16335C14.129 4.56676 14.54 4.10109 15.0669 3.76633C15.5972 3.43158 16.217 3.2642 16.9263 3.2642C17.3572 3.2642 17.7748 3.33546 18.1792 3.47798C18.5835 3.6205 18.9464 3.84422 19.2679 4.14915C19.5894 4.45407 19.843 4.85014 20.0286 5.33736C20.2142 5.82126 20.307 6.40956 20.307 7.10227V7.62926H14.2367V6.51562H18.8503C18.8503 6.12453 18.7708 5.77817 18.6117 5.47656C18.4526 5.17164 18.2289 4.93134 17.9405 4.75568C17.6555 4.58002 17.3207 4.49219 16.9363 4.49219C16.5186 4.49219 16.1541 4.59493 15.8425 4.80043C15.5343 5.0026 15.2956 5.26776 15.1266 5.59588C14.9609 5.92069 14.878 6.27367 14.878 6.65483V7.52486C14.878 8.03527 14.9675 8.46946 15.1465 8.82741C15.3288 9.18537 15.5823 9.45881 15.9071 9.64773C16.2319 9.83333 16.6114 9.92614 17.0456 9.92614C17.3274 9.92614 17.5842 9.88636 17.8162 9.80682C18.0482 9.72396 18.2488 9.60133 18.4178 9.43892C18.5868 9.27652 18.7161 9.07599 18.8056 8.83736L20.2125 9.09091C20.0998 9.50521 19.8977 9.86813 19.606 10.1797C19.3176 10.4879 18.9547 10.7282 18.5172 10.9006C18.083 11.0696 17.5875 11.1541 17.0307 11.1541ZM27.6786 5.22798L26.3313 5.46662C26.275 5.29427 26.1855 5.13021 26.0629 4.97443C25.9435 4.81865 25.7811 4.69105 25.5756 4.59162C25.3701 4.49219 25.1133 4.44247 24.805 4.44247C24.3841 4.44247 24.0328 4.53693 23.7511 4.72585C23.4693 4.91146 23.3285 5.15175 23.3285 5.44673C23.3285 5.70194 23.4229 5.90743 23.6119 6.06321C23.8008 6.21899 24.1057 6.34659 24.5266 6.44602L25.7397 6.72443C26.4424 6.88684 26.966 7.13707 27.3107 7.47514C27.6554 7.81321 27.8278 8.25237 27.8278 8.79261C27.8278 9.25 27.6952 9.65767 27.43 10.0156C27.1682 10.3703 26.802 10.6487 26.3313 10.8509C25.864 11.053 25.3221 11.1541 24.7056 11.1541C23.8505 11.1541 23.1528 10.9718 22.6126 10.6072C22.0723 10.2393 21.7409 9.71733 21.6183 9.04119L23.055 8.82244C23.1445 9.19697 23.3285 9.48035 23.6069 9.67259C23.8853 9.86151 24.2482 9.95597 24.6957 9.95597C25.1829 9.95597 25.5723 9.85488 25.864 9.6527C26.1557 9.44721 26.3015 9.19697 26.3015 8.90199C26.3015 8.66335 26.212 8.46283 26.033 8.30043C25.8574 8.13802 25.5872 8.01539 25.2227 7.93253L23.93 7.64915C23.2174 7.48674 22.6905 7.22822 22.3491 6.87358C22.011 6.51894 21.842 6.06984 21.842 5.52628C21.842 5.07552 21.9679 4.68111 22.2198 4.34304C22.4717 4.00497 22.8197 3.74148 23.2638 3.55256C23.708 3.36032 24.2167 3.2642 24.7901 3.2642C25.6154 3.2642 26.265 3.44318 26.739 3.80114C27.213 4.15578 27.5262 4.63139 27.6786 5.22798ZM32.7534 11.1541C32.001 11.1541 31.353 10.9934 30.8095 10.6719C30.2692 10.3471 29.8516 9.89134 29.5566 9.30469C29.265 8.71473 29.1191 8.02367 29.1191 7.23153C29.1191 6.44934 29.265 5.75994 29.5566 5.16335C29.8516 4.56676 30.2626 4.10109 30.7896 3.76633C31.3199 3.43158 31.9397 3.2642 32.649 3.2642C33.0798 3.2642 33.4975 3.33546 33.9018 3.47798C34.3062 3.6205 34.6691 3.84422 34.9906 4.14915C35.3121 4.45407 35.5656 4.85014 35.7512 5.33736C35.9368 5.82126 36.0297 6.40956 36.0297 7.10227V7.62926H29.9593V6.51562H34.573C34.573 6.12453 34.4934 5.77817 34.3343 5.47656C34.1752 5.17164 33.9515 4.93134 33.6632 4.75568C33.3781 4.58002 33.0434 4.49219 32.6589 4.49219C32.2413 4.49219 31.8767 4.59493 31.5652 4.80043C31.2569 5.0026 31.0183 5.26776 30.8493 5.59588C30.6835 5.92069 30.6007 6.27367 30.6007 6.65483V7.52486C30.6007 8.03527 30.6902 8.46946 30.8691 8.82741C31.0514 9.18537 31.305 9.45881 31.6298 9.64773C31.9546 9.83333 32.3341 9.92614 32.7683 9.92614C33.05 9.92614 33.3069 9.88636 33.5389 9.80682C33.7709 9.72396 33.9714 9.60133 34.1404 9.43892C34.3095 9.27652 34.4387 9.07599 34.5282 8.83736L35.9352 9.09091C35.8225 9.50521 35.6203 9.86813 35.3287 10.1797C35.0403 10.4879 34.6774 10.7282 34.2399 10.9006C33.8057 11.0696 33.3102 11.1541 32.7534 11.1541ZM39.1655 6.46591V11H37.679V3.36364H39.1058V4.60653H39.2003C39.3759 4.20218 39.651 3.87737 40.0256 3.6321C40.4034 3.38684 40.879 3.2642 41.4524 3.2642C41.9728 3.2642 42.4285 3.37358 42.8196 3.59233C43.2107 3.80777 43.514 4.12926 43.7294 4.55682C43.9448 4.98437 44.0526 5.51302 44.0526 6.14276V11H42.5661V6.32173C42.5661 5.76823 42.4219 5.3357 42.1335 5.02415C41.8452 4.70928 41.4491 4.55185 40.9453 4.55185C40.6006 4.55185 40.294 4.62642 40.0256 4.77557C39.7604 4.92472 39.55 5.14347 39.3942 5.43182C39.2417 5.71686 39.1655 6.06155 39.1655 6.46591ZM49.6108 3.36364V4.55682H45.4396V3.36364H49.6108ZM46.5582 1.53409H48.0447V8.75781C48.0447 9.04616 48.0878 9.26326 48.174 9.40909C48.2602 9.55161 48.3712 9.64938 48.5071 9.70241C48.6463 9.75213 48.7971 9.77699 48.9595 9.77699C49.0788 9.77699 49.1832 9.7687 49.2727 9.75213C49.3622 9.73556 49.4318 9.7223 49.4815 9.71236L49.75 10.9403C49.6638 10.9735 49.5412 11.0066 49.3821 11.0398C49.223 11.0762 49.0241 11.0961 48.7855 11.0994C48.3944 11.1061 48.0298 11.0365 47.6918 10.8906C47.3537 10.7448 47.0803 10.5194 46.8714 10.2145C46.6626 9.90956 46.5582 9.52675 46.5582 9.06605V1.53409ZM53.4775 11.169C52.9935 11.169 52.556 11.0795 52.165 10.9006C51.7739 10.7183 51.464 10.4548 51.2353 10.1101C51.0099 9.76539 50.8972 9.3428 50.8972 8.84233C50.8972 8.41146 50.9801 8.05682 51.1458 7.77841C51.3115 7.5 51.5352 7.27959 51.8169 7.11719C52.0987 6.95478 52.4135 6.83215 52.7615 6.74929C53.1096 6.66643 53.4642 6.60346 53.8255 6.56037C54.2828 6.50734 54.6541 6.46425 54.9391 6.43111C55.2241 6.39465 55.4313 6.33665 55.5605 6.2571C55.6898 6.17756 55.7544 6.0483 55.7544 5.86932V5.83452C55.7544 5.40033 55.6318 5.06392 55.3865 4.82528C55.1446 4.58665 54.7833 4.46733 54.3027 4.46733C53.8023 4.46733 53.4078 4.57836 53.1195 4.80043C52.8345 5.01918 52.6373 5.26278 52.5279 5.53125L51.1309 5.21307C51.2966 4.74905 51.5385 4.37453 51.8567 4.08949C52.1782 3.80114 52.5478 3.59233 52.9654 3.46307C53.383 3.33049 53.8221 3.2642 54.2828 3.2642C54.5878 3.2642 54.9109 3.30066 55.2523 3.37358C55.597 3.44318 55.9185 3.57244 56.2168 3.76136C56.5184 3.95028 56.7653 4.22041 56.9576 4.57173C57.1498 4.91974 57.2459 5.37216 57.2459 5.92898V11H55.7942V9.95597H55.7346C55.6384 10.1482 55.4943 10.3371 55.302 10.5227C55.1098 10.7083 54.8629 10.8625 54.5613 10.9851C54.2596 11.1077 53.8984 11.169 53.4775 11.169ZM53.8006 9.97585C54.2116 9.97585 54.5629 9.89465 54.8546 9.73224C55.1496 9.56984 55.3733 9.35772 55.5257 9.09588C55.6815 8.83073 55.7594 8.54735 55.7594 8.24574V7.26136C55.7064 7.31439 55.6036 7.36411 55.4512 7.41051C55.302 7.4536 55.1313 7.49171 54.9391 7.52486C54.7469 7.55469 54.5596 7.58286 54.3773 7.60938C54.195 7.63258 54.0426 7.65246 53.9199 7.66903C53.6316 7.70549 53.3681 7.76681 53.1294 7.85298C52.8941 7.93916 52.7052 8.06345 52.5627 8.22585C52.4235 8.38494 52.3539 8.59706 52.3539 8.86222C52.3539 9.23011 52.4898 9.50852 52.7615 9.69744C53.0333 9.88305 53.3797 9.97585 53.8006 9.97585ZM62.7905 3.36364V4.55682H58.6193V3.36364H62.7905ZM59.7379 1.53409H61.2244V8.75781C61.2244 9.04616 61.2675 9.26326 61.3537 9.40909C61.4399 9.55161 61.5509 9.64938 61.6868 9.70241C61.826 9.75213 61.9768 9.77699 62.1392 9.77699C62.2585 9.77699 62.3629 9.7687 62.4524 9.75213C62.5419 9.73556 62.6115 9.7223 62.6612 9.71236L62.9297 10.9403C62.8435 10.9735 62.7209 11.0066 62.5618 11.0398C62.4027 11.0762 62.2038 11.0961 61.9652 11.0994C61.5741 11.1061 61.2095 11.0365 60.8714 10.8906C60.5334 10.7448 60.2599 10.5194 60.0511 10.2145C59.8423 9.90956 59.7379 9.52675 59.7379 9.06605V1.53409ZM64.4348 11V3.36364H65.9213V11H64.4348ZM65.1855 2.18537C64.927 2.18537 64.705 2.09919 64.5194 1.92685C64.3371 1.75118 64.2459 1.54238 64.2459 1.30043C64.2459 1.05516 64.3371 0.846354 64.5194 0.674005C64.705 0.498342 64.927 0.410511 65.1855 0.410511C65.4441 0.410511 65.6645 0.498342 65.8468 0.674005C66.0324 0.846354 66.1252 1.05516 66.1252 1.30043C66.1252 1.54238 66.0324 1.75118 65.8468 1.92685C65.6645 2.09919 65.4441 2.18537 65.1855 2.18537ZM71.1378 11.1541C70.4219 11.1541 69.7971 10.9901 69.2635 10.6619C68.7299 10.3338 68.3156 9.87476 68.0206 9.2848C67.7256 8.69484 67.5781 8.00544 67.5781 7.21662C67.5781 6.42448 67.7256 5.73177 68.0206 5.13849C68.3156 4.54522 68.7299 4.08452 69.2635 3.75639C69.7971 3.42827 70.4219 3.2642 71.1378 3.2642C71.8537 3.2642 72.4785 3.42827 73.0121 3.75639C73.5457 4.08452 73.96 4.54522 74.255 5.13849C74.55 5.73177 74.6974 6.42448 74.6974 7.21662C74.6974 8.00544 74.55 8.69484 74.255 9.2848C73.96 9.87476 73.5457 10.3338 73.0121 10.6619C72.4785 10.9901 71.8537 11.1541 71.1378 11.1541ZM71.1428 9.90625C71.6068 9.90625 71.9912 9.78362 72.2962 9.53835C72.6011 9.29309 72.8265 8.96662 72.9723 8.55895C73.1214 8.15128 73.196 7.70218 73.196 7.21165C73.196 6.72443 73.1214 6.27699 72.9723 5.86932C72.8265 5.45833 72.6011 5.12855 72.2962 4.87997C71.9912 4.63139 71.6068 4.5071 71.1428 4.5071C70.6754 4.5071 70.2876 4.63139 69.9794 4.87997C69.6745 5.12855 69.4474 5.45833 69.2983 5.86932C69.1525 6.27699 69.0795 6.72443 69.0795 7.21165C69.0795 7.70218 69.1525 8.15128 69.2983 8.55895C69.4474 8.96662 69.6745 9.29309 69.9794 9.53835C70.2876 9.78362 70.6754 9.90625 71.1428 9.90625ZM77.8432 6.46591V11H76.3567V3.36364H77.7836V4.60653H77.878C78.0537 4.20218 78.3288 3.87737 78.7033 3.6321C79.0811 3.38684 79.5568 3.2642 80.1301 3.2642C80.6505 3.2642 81.1062 3.37358 81.4973 3.59233C81.8884 3.80777 82.1917 4.12926 82.4071 4.55682C82.6226 4.98437 82.7303 5.51302 82.7303 6.14276V11H81.2438V6.32173C81.2438 5.76823 81.0996 5.3357 80.8113 5.02415C80.5229 4.70928 80.1268 4.55185 79.623 4.55185C79.2783 4.55185 78.9718 4.62642 78.7033 4.77557C78.4382 4.92472 78.2277 5.14347 78.0719 5.43182C77.9194 5.71686 77.8432 6.06155 77.8432 6.46591ZM89.2232 6.05327V7.34091H84.709V6.05327H89.2232ZM94.421 11.1541C93.6819 11.1541 93.0455 10.9867 92.5119 10.652C91.9816 10.3139 91.5739 9.84825 91.2889 9.25497C91.0038 8.66169 90.8613 7.98224 90.8613 7.21662C90.8613 6.44105 91.0072 5.75663 91.2988 5.16335C91.5905 4.56676 92.0015 4.10109 92.5318 3.76633C93.0621 3.43158 93.6868 3.2642 94.4061 3.2642C94.9861 3.2642 95.5031 3.37192 95.9572 3.58736C96.4113 3.79948 96.7775 4.09777 97.0559 4.48224C97.3377 4.86671 97.505 5.31581 97.5581 5.82955H96.1113C96.0318 5.47159 95.8495 5.16335 95.5645 4.90483C95.2827 4.64631 94.9049 4.51705 94.4309 4.51705C94.0166 4.51705 93.6537 4.62642 93.3422 4.84517C93.0339 5.06061 92.7936 5.36884 92.6213 5.76989C92.4489 6.16761 92.3627 6.63826 92.3627 7.18182C92.3627 7.73864 92.4473 8.21922 92.6163 8.62358C92.7853 9.02794 93.024 9.34115 93.3322 9.56321C93.6438 9.78527 94.01 9.89631 94.4309 9.89631C94.7127 9.89631 94.9679 9.84493 95.1966 9.74219C95.4286 9.63613 95.6225 9.48532 95.7782 9.28977C95.9373 9.09422 96.0484 8.8589 96.1113 8.58381H97.5581C97.505 9.07765 97.3443 9.51847 97.0758 9.90625C96.8074 10.294 96.4477 10.599 95.997 10.821C95.5495 11.0431 95.0242 11.1541 94.421 11.1541ZM100.634 6.46591V11H99.1477V0.818182H100.614V4.60653H100.709C100.888 4.19555 101.161 3.86908 101.529 3.62713C101.897 3.38518 102.378 3.2642 102.971 3.2642C103.495 3.2642 103.952 3.37192 104.343 3.58736C104.737 3.80279 105.042 4.12429 105.258 4.55185C105.477 4.97609 105.586 5.50639 105.586 6.14276V11H104.099V6.32173C104.099 5.7616 103.955 5.32741 103.667 5.01918C103.379 4.70762 102.978 4.55185 102.464 4.55185C102.112 4.55185 101.798 4.62642 101.519 4.77557C101.244 4.92472 101.027 5.14347 100.868 5.43182C100.712 5.71686 100.634 6.06155 100.634 6.46591ZM109.792 11.169C109.308 11.169 108.871 11.0795 108.479 10.9006C108.088 10.7183 107.778 10.4548 107.55 10.1101C107.324 9.76539 107.212 9.3428 107.212 8.84233C107.212 8.41146 107.295 8.05682 107.46 7.77841C107.626 7.5 107.85 7.27959 108.131 7.11719C108.413 6.95478 108.728 6.83215 109.076 6.74929C109.424 6.66643 109.779 6.60346 110.14 6.56037C110.597 6.50734 110.969 6.46425 111.254 6.43111C111.539 6.39465 111.746 6.33665 111.875 6.2571C112.004 6.17756 112.069 6.0483 112.069 5.86932V5.83452C112.069 5.40033 111.946 5.06392 111.701 4.82528C111.459 4.58665 111.098 4.46733 110.617 4.46733C110.117 4.46733 109.722 4.57836 109.434 4.80043C109.149 5.01918 108.952 5.26278 108.842 5.53125L107.445 5.21307C107.611 4.74905 107.853 4.37453 108.171 4.08949C108.493 3.80114 108.862 3.59233 109.28 3.46307C109.697 3.33049 110.137 3.2642 110.597 3.2642C110.902 3.2642 111.225 3.30066 111.567 3.37358C111.911 3.44318 112.233 3.57244 112.531 3.76136C112.833 3.95028 113.08 4.22041 113.272 4.57173C113.464 4.91974 113.56 5.37216 113.56 5.92898V11H112.109V9.95597H112.049C111.953 10.1482 111.809 10.3371 111.616 10.5227C111.424 10.7083 111.177 10.8625 110.876 10.9851C110.574 11.1077 110.213 11.169 109.792 11.169ZM110.115 9.97585C110.526 9.97585 110.877 9.89465 111.169 9.73224C111.464 9.56984 111.688 9.35772 111.84 9.09588C111.996 8.83073 112.074 8.54735 112.074 8.24574V7.26136C112.021 7.31439 111.918 7.36411 111.766 7.41051C111.616 7.4536 111.446 7.49171 111.254 7.52486C111.061 7.55469 110.874 7.58286 110.692 7.60938C110.509 7.63258 110.357 7.65246 110.234 7.66903C109.946 7.70549 109.683 7.76681 109.444 7.85298C109.209 7.93916 109.02 8.06345 108.877 8.22585C108.738 8.38494 108.668 8.59706 108.668 8.86222C108.668 9.23011 108.804 9.50852 109.076 9.69744C109.348 9.88305 109.694 9.97585 110.115 9.97585ZM115.54 11V3.36364H116.977V4.5767H117.057C117.196 4.16572 117.441 3.84257 117.792 3.60724C118.147 3.36861 118.548 3.24929 118.996 3.24929C119.088 3.24929 119.198 3.2526 119.324 3.25923C119.453 3.26586 119.554 3.27415 119.627 3.28409V4.70597C119.567 4.68939 119.461 4.67116 119.309 4.65128C119.156 4.62808 119.004 4.61648 118.851 4.61648C118.5 4.61648 118.187 4.69105 117.912 4.8402C117.64 4.98603 117.425 5.18987 117.265 5.4517C117.106 5.71023 117.027 6.00521 117.027 6.33665V11H115.54ZM124.929 3.36364V4.55682H120.758V3.36364H124.929ZM121.877 1.53409H123.363V8.75781C123.363 9.04616 123.406 9.26326 123.492 9.40909C123.579 9.55161 123.69 9.64938 123.825 9.70241C123.965 9.75213 124.115 9.77699 124.278 9.77699C124.397 9.77699 124.502 9.7687 124.591 9.75213C124.681 9.73556 124.75 9.7223 124.8 9.71236L125.068 10.9403C124.982 10.9735 124.86 11.0066 124.7 11.0398C124.541 11.0762 124.343 11.0961 124.104 11.0994C123.713 11.1061 123.348 11.0365 123.01 10.8906C122.672 10.7448 122.399 10.5194 122.19 10.2145C121.981 9.90956 121.877 9.52675 121.877 9.06605V1.53409ZM130.813 6.05327V7.34091H126.299V6.05327H130.813ZM136.319 11.169C135.534 11.1657 134.862 10.9586 134.306 10.5476C133.749 10.1366 133.323 9.53835 133.028 8.75284C132.733 7.96733 132.585 7.02107 132.585 5.91406C132.585 4.81037 132.733 3.86742 133.028 3.08523C133.326 2.30303 133.754 1.70644 134.311 1.29545C134.871 0.884469 135.54 0.678977 136.319 0.678977C137.098 0.678977 137.766 0.886126 138.323 1.30043C138.879 1.71141 139.305 2.308 139.6 3.0902C139.899 3.86908 140.048 4.81037 140.048 5.91406C140.048 7.02438 139.9 7.9723 139.605 8.75781C139.31 9.54001 138.884 10.1383 138.328 10.5526C137.771 10.9635 137.101 11.169 136.319 11.169ZM136.319 9.84162C137.008 9.84162 137.547 9.50521 137.935 8.83239C138.326 8.15956 138.521 7.18679 138.521 5.91406C138.521 5.06889 138.432 4.35464 138.253 3.77131C138.077 3.18466 137.824 2.74053 137.492 2.43892C137.164 2.134 136.773 1.98153 136.319 1.98153C135.633 1.98153 135.094 2.3196 134.703 2.99574C134.312 3.67187 134.115 4.64465 134.112 5.91406C134.112 6.76255 134.2 7.48011 134.375 8.06676C134.554 8.65009 134.808 9.09257 135.136 9.39418C135.464 9.69247 135.858 9.84162 136.319 9.84162ZM145.674 0.818182V11H144.133V2.35938H144.074L141.637 3.95028V2.47869L144.178 0.818182H145.674Z" fill="black"/>
</svg>
