<svg width="111" height="14" viewBox="0 0 111 14" fill="none" xmlns="http://www.w3.org/2000/svg">
<path d="M1.4858 0.818182V11H-0.000710189V0.818182H1.4858ZM3.48562 11V3.36364H4.97212V11H3.48562ZM4.23633 2.18537C3.97781 2.18537 3.75574 2.09919 3.57013 1.92685C3.38784 1.75118 3.2967 1.54238 3.2967 1.30043C3.2967 1.05516 3.38784 0.846354 3.57013 0.674005C3.75574 0.498342 3.97781 0.410511 4.23633 0.410511C4.49485 0.410511 4.71526 0.498342 4.89755 0.674005C5.08316 0.846354 5.17596 1.05516 5.17596 1.30043C5.17596 1.54238 5.08316 1.75118 4.89755 1.92685C4.71526 2.09919 4.49485 2.18537 4.23633 2.18537ZM8.45845 6.46591V11H6.97195V3.36364H8.39879V4.60653H8.49325C8.66892 4.20218 8.94401 3.87737 9.31854 3.6321C9.69638 3.38684 10.172 3.2642 10.7454 3.2642C11.2657 3.2642 11.7215 3.37358 12.1126 3.59233C12.5037 3.80777 12.8069 4.12926 13.0224 4.55682C13.2378 4.98437 13.3455 5.51302 13.3455 6.14276V11H11.859V6.32173C11.859 5.76823 11.7148 5.3357 11.4265 5.02415C11.1381 4.70928 10.7421 4.55185 10.2383 4.55185C9.89358 4.55185 9.587 4.62642 9.31854 4.77557C9.05339 4.92472 8.84292 5.14347 8.68714 5.43182C8.53468 5.71686 8.45845 6.06155 8.45845 6.46591ZM18.6303 11.1541C17.878 11.1541 17.23 10.9934 16.6864 10.6719C16.1462 10.3471 15.7286 9.89134 15.4336 9.30469C15.1419 8.71473 14.9961 8.02367 14.9961 7.23153C14.9961 6.44934 15.1419 5.75994 15.4336 5.16335C15.7286 4.56676 16.1396 4.10109 16.6665 3.76633C17.1969 3.43158 17.8166 3.2642 18.5259 3.2642C18.9568 3.2642 19.3744 3.33546 19.7788 3.47798C20.1831 3.6205 20.546 3.84422 20.8675 4.14915C21.189 4.45407 21.4426 4.85014 21.6282 5.33736C21.8138 5.82126 21.9066 6.40956 21.9066 7.10227V7.62926H15.8363V6.51562H20.4499C20.4499 6.12453 20.3704 5.77817 20.2113 5.47656C20.0522 5.17164 19.8285 4.93134 19.5401 4.75568C19.2551 4.58002 18.9203 4.49219 18.5359 4.49219C18.1183 4.49219 17.7537 4.59493 17.4421 4.80043C17.1339 5.0026 16.8952 5.26776 16.7262 5.59588C16.5605 5.92069 16.4776 6.27367 16.4776 6.65483V7.52486C16.4776 8.03527 16.5671 8.46946 16.7461 8.82741C16.9284 9.18537 17.1819 9.45881 17.5067 9.64773C17.8316 9.83333 18.2111 9.92614 18.6452 9.92614C18.927 9.92614 19.1838 9.88636 19.4158 9.80682C19.6478 9.72396 19.8484 9.60133 20.0174 9.43892C20.1864 9.27652 20.3157 9.07599 20.4052 8.83736L21.8121 9.09091C21.6995 9.50521 21.4973 9.86813 21.2056 10.1797C20.9173 10.4879 20.5543 10.7282 20.1168 10.9006C19.6826 11.0696 19.1871 11.1541 18.6303 11.1541ZM28.0552 6.05327V7.34091H23.541V6.05327H28.0552ZM33.253 11.1541C32.5139 11.1541 31.8775 10.9867 31.3439 10.652C30.8136 10.3139 30.406 9.84825 30.1209 9.25497C29.8359 8.66169 29.6934 7.98224 29.6934 7.21662C29.6934 6.44105 29.8392 5.75663 30.1309 5.16335C30.4225 4.56676 30.8335 4.10109 31.3638 3.76633C31.8941 3.43158 32.5189 3.2642 33.2381 3.2642C33.8181 3.2642 34.3352 3.37192 34.7892 3.58736C35.2433 3.79948 35.6096 4.09777 35.888 4.48224C36.1697 4.86671 36.3371 5.31581 36.3901 5.82955H34.9434C34.8638 5.47159 34.6815 5.16335 34.3965 4.90483C34.1148 4.64631 33.7369 4.51705 33.263 4.51705C32.8487 4.51705 32.4857 4.62642 32.1742 4.84517C31.8659 5.06061 31.6257 5.36884 31.4533 5.76989C31.281 6.16761 31.1948 6.63826 31.1948 7.18182C31.1948 7.73864 31.2793 8.21922 31.4483 8.62358C31.6174 9.02794 31.856 9.34115 32.1642 9.56321C32.4758 9.78527 32.842 9.89631 33.263 9.89631C33.5447 9.89631 33.7999 9.84493 34.0286 9.74219C34.2606 9.63613 34.4545 9.48532 34.6103 9.28977C34.7694 9.09422 34.8804 8.8589 34.9434 8.58381H36.3901C36.3371 9.07765 36.1763 9.51847 35.9078 9.90625C35.6394 10.294 35.2798 10.599 34.829 10.821C34.3816 11.0431 33.8562 11.1541 33.253 11.1541ZM39.4663 6.46591V11H37.9798V0.818182H39.4464V4.60653H39.5408C39.7198 4.19555 39.9933 3.86908 40.3612 3.62713C40.729 3.38518 41.2096 3.2642 41.8029 3.2642C42.3266 3.2642 42.784 3.37192 43.1751 3.58736C43.5695 3.80279 43.8744 4.12429 44.0898 4.55185C44.3086 4.97609 44.418 5.50639 44.418 6.14276V11H42.9315V6.32173C42.9315 5.7616 42.7873 5.32741 42.4989 5.01918C42.2106 4.70762 41.8095 4.55185 41.2958 4.55185C40.9445 4.55185 40.6296 4.62642 40.3512 4.77557C40.0761 4.92472 39.859 5.14347 39.6999 5.43182C39.5442 5.71686 39.4663 6.06155 39.4663 6.46591ZM48.6239 11.169C48.14 11.169 47.7025 11.0795 47.3114 10.9006C46.9203 10.7183 46.6104 10.4548 46.3817 10.1101C46.1564 9.76539 46.0437 9.3428 46.0437 8.84233C46.0437 8.41146 46.1265 8.05682 46.2923 7.77841C46.458 7.5 46.6817 7.27959 46.9634 7.11719C47.2451 6.95478 47.56 6.83215 47.908 6.74929C48.256 6.66643 48.6107 6.60346 48.9719 6.56037C49.4293 6.50734 49.8005 6.46425 50.0856 6.43111C50.3706 6.39465 50.5778 6.33665 50.707 6.2571C50.8363 6.17756 50.9009 6.0483 50.9009 5.86932V5.83452C50.9009 5.40033 50.7783 5.06392 50.533 4.82528C50.2911 4.58665 49.9298 4.46733 49.4492 4.46733C48.9487 4.46733 48.5543 4.57836 48.266 4.80043C47.9809 5.01918 47.7837 5.26278 47.6744 5.53125L46.2773 5.21307C46.4431 4.74905 46.685 4.37453 47.0032 4.08949C47.3247 3.80114 47.6942 3.59233 48.1119 3.46307C48.5295 3.33049 48.9686 3.2642 49.4293 3.2642C49.7343 3.2642 50.0574 3.30066 50.3988 3.37358C50.7435 3.44318 51.065 3.57244 51.3633 3.76136C51.6649 3.95028 51.9118 4.22041 52.104 4.57173C52.2963 4.91974 52.3924 5.37216 52.3924 5.92898V11H50.9407V9.95597H50.881C50.7849 10.1482 50.6407 10.3371 50.4485 10.5227C50.2563 10.7083 50.0094 10.8625 49.7077 10.9851C49.4061 11.1077 49.0449 11.169 48.6239 11.169ZM48.9471 9.97585C49.3581 9.97585 49.7094 9.89465 50.0011 9.73224C50.296 9.56984 50.5198 9.35772 50.6722 9.09588C50.828 8.83073 50.9059 8.54735 50.9059 8.24574V7.26136C50.8529 7.31439 50.7501 7.36411 50.5977 7.41051C50.4485 7.4536 50.2778 7.49171 50.0856 7.52486C49.8933 7.55469 49.7061 7.58286 49.5238 7.60938C49.3415 7.63258 49.189 7.65246 49.0664 7.66903C48.7781 7.70549 48.5146 7.76681 48.2759 7.85298C48.0406 7.93916 47.8517 8.06345 47.7092 8.22585C47.57 8.38494 47.5004 8.59706 47.5004 8.86222C47.5004 9.23011 47.6362 9.50852 47.908 9.69744C48.1798 9.88305 48.5262 9.97585 48.9471 9.97585ZM54.3723 11V3.36364H55.8091V4.5767H55.8887C56.0279 4.16572 56.2731 3.84257 56.6245 3.60724C56.9791 3.36861 57.3801 3.24929 57.8276 3.24929C57.9204 3.24929 58.0298 3.2526 58.1557 3.25923C58.285 3.26586 58.3861 3.27415 58.459 3.28409V4.70597C58.3993 4.68939 58.2933 4.67116 58.1408 4.65128C57.9883 4.62808 57.8359 4.61648 57.6834 4.61648C57.3321 4.61648 57.0189 4.69105 56.7438 4.8402C56.472 4.98603 56.2566 5.18987 56.0975 5.4517C55.9384 5.71023 55.8588 6.00521 55.8588 6.33665V11H54.3723ZM63.7612 3.36364V4.55682H59.59V3.36364H63.7612ZM60.7086 1.53409H62.1951V8.75781C62.1951 9.04616 62.2382 9.26326 62.3244 9.40909C62.4106 9.55161 62.5216 9.64938 62.6575 9.70241C62.7967 9.75213 62.9475 9.77699 63.1099 9.77699C63.2292 9.77699 63.3336 9.7687 63.4231 9.75213C63.5126 9.73556 63.5822 9.7223 63.6319 9.71236L63.9004 10.9403C63.8142 10.9735 63.6916 11.0066 63.5325 11.0398C63.3734 11.0762 63.1745 11.0961 62.9359 11.0994C62.5448 11.1061 62.1802 11.0365 61.8422 10.8906C61.5041 10.7448 61.2306 10.5194 61.0218 10.2145C60.813 9.90956 60.7086 9.52675 60.7086 9.06605V1.53409ZM69.6451 6.05327V7.34091H65.1309V6.05327H69.6451ZM76.4636 7.8331V3.36364H77.9551V11H76.4934V9.67756H76.4139C76.2382 10.0852 75.9565 10.425 75.5687 10.6967C75.1842 10.9652 74.7053 11.0994 74.1319 11.0994C73.6414 11.0994 73.2072 10.9917 72.8294 10.7763C72.4548 10.5575 72.1599 10.2344 71.9444 9.80682C71.7323 9.37926 71.6262 8.85062 71.6262 8.22088V3.36364H73.1127V8.0419C73.1127 8.56226 73.2569 8.97656 73.5453 9.2848C73.8336 9.59304 74.2082 9.74716 74.6689 9.74716C74.9473 9.74716 75.224 9.67756 75.4991 9.53835C75.7775 9.39915 76.0079 9.18868 76.1902 8.90696C76.3758 8.62524 76.4669 8.26728 76.4636 7.8331ZM79.9524 13.8636V3.36364H81.4041V4.60156H81.5284C81.6146 4.44247 81.7389 4.25852 81.9013 4.04972C82.0637 3.84091 82.2891 3.65862 82.5774 3.50284C82.8658 3.34375 83.2469 3.2642 83.7209 3.2642C84.3374 3.2642 84.8875 3.41998 85.3714 3.73153C85.8554 4.04309 86.2348 4.49219 86.5099 5.07884C86.7884 5.66548 86.9276 6.37145 86.9276 7.19673C86.9276 8.02202 86.79 8.72964 86.5149 9.3196C86.2398 9.90625 85.862 10.3587 85.3814 10.6768C84.9008 10.9917 84.3523 11.1491 83.7358 11.1491C83.2718 11.1491 82.8923 11.0713 82.5973 10.9155C82.3056 10.7597 82.0769 10.5774 81.9112 10.3686C81.7455 10.1598 81.6179 9.9742 81.5284 9.81179H81.4389V13.8636H79.9524ZM81.4091 7.18182C81.4091 7.71875 81.487 8.18939 81.6428 8.59375C81.7985 8.99811 82.0239 9.31463 82.3189 9.54332C82.6139 9.7687 82.9751 9.88139 83.4027 9.88139C83.8468 9.88139 84.218 9.76373 84.5163 9.52841C84.8146 9.28977 85.04 8.96662 85.1925 8.55895C85.3482 8.15128 85.4261 7.69223 85.4261 7.18182C85.4261 6.67803 85.3499 6.22562 85.1974 5.82457C85.0483 5.42353 84.8229 5.10701 84.5213 4.875C84.223 4.64299 83.8501 4.52699 83.4027 4.52699C82.9718 4.52699 82.6072 4.63802 82.3089 4.86009C82.014 5.08215 81.7902 5.39205 81.6378 5.78977C81.4853 6.1875 81.4091 6.65151 81.4091 7.18182ZM93.0923 6.05327V7.34091H88.5781V6.05327H93.0923ZM98.5984 11.169C97.8129 11.1657 97.1417 10.9586 96.5849 10.5476C96.0281 10.1366 95.6022 9.53835 95.3072 8.75284C95.0122 7.96733 94.8647 7.02107 94.8647 5.91406C94.8647 4.81037 95.0122 3.86742 95.3072 3.08523C95.6055 2.30303 96.033 1.70644 96.5898 1.29545C97.15 0.884469 97.8195 0.678977 98.5984 0.678977C99.3772 0.678977 100.045 0.886126 100.602 1.30043C101.159 1.71141 101.585 2.308 101.88 3.0902C102.178 3.86908 102.327 4.81037 102.327 5.91406C102.327 7.02438 102.18 7.9723 101.885 8.75781C101.59 9.54001 101.164 10.1383 100.607 10.5526C100.05 10.9635 99.3806 11.169 98.5984 11.169ZM98.5984 9.84162C99.2878 9.84162 99.8263 9.50521 100.214 8.83239C100.605 8.15956 100.801 7.18679 100.801 5.91406C100.801 5.06889 100.711 4.35464 100.532 3.77131C100.357 3.18466 100.103 2.74053 99.7717 2.43892C99.4435 2.134 99.0524 1.98153 98.5984 1.98153C97.9123 1.98153 97.3737 2.3196 96.9826 2.99574C96.5915 3.67187 96.3943 4.64465 96.391 5.91406C96.391 6.76255 96.4788 7.48011 96.6545 8.06676C96.8335 8.65009 97.087 9.09257 97.4151 9.39418C97.7433 9.69247 98.1377 9.84162 98.5984 9.84162ZM107.452 11.1392C106.828 11.1392 106.268 11.0199 105.771 10.7812C105.277 10.5393 104.883 10.2079 104.588 9.78693C104.293 9.366 104.135 8.88542 104.116 8.34517H105.607C105.644 8.78267 105.837 9.14228 106.189 9.42401C106.54 9.70573 106.961 9.84659 107.452 9.84659C107.843 9.84659 108.189 9.7571 108.491 9.57812C108.796 9.39583 109.034 9.1456 109.206 8.82741C109.382 8.50923 109.47 8.14631 109.47 7.73864C109.47 7.32434 109.381 6.95478 109.202 6.62997C109.023 6.30516 108.776 6.04995 108.461 5.86435C108.149 5.67874 107.791 5.58428 107.387 5.58097C107.079 5.58097 106.769 5.634 106.457 5.74006C106.146 5.84612 105.894 5.98532 105.702 6.15767L104.295 5.94886L104.866 0.818182H110.464V2.13565H106.144L105.821 4.98438H105.881C106.079 4.79214 106.343 4.63139 106.671 4.50213C107.002 4.37287 107.357 4.30824 107.735 4.30824C108.355 4.30824 108.907 4.45573 109.39 4.75071C109.878 5.04569 110.26 5.44839 110.539 5.95881C110.821 6.46591 110.96 7.04924 110.956 7.70881C110.96 8.36837 110.811 8.95668 110.509 9.47372C110.211 9.99077 109.796 10.3984 109.266 10.6967C108.739 10.9917 108.134 11.1392 107.452 11.1392Z" fill="black"/>
</svg>
