<svg width="143" height="12" viewBox="0 0 143 12" fill="none" xmlns="http://www.w3.org/2000/svg">
<path d="M4.21591 11.1541C3.4768 11.1541 2.84044 10.9867 2.30682 10.652C1.77652 10.3139 1.36884 9.84825 1.08381 9.25497C0.798769 8.66169 0.65625 7.98224 0.65625 7.21662C0.65625 6.44105 0.802083 5.75663 1.09375 5.16335C1.38542 4.56676 1.7964 4.10109 2.3267 3.76633C2.85701 3.43158 3.48177 3.2642 4.20099 3.2642C4.78101 3.2642 5.29806 3.37192 5.75213 3.58736C6.2062 3.79948 6.57244 4.09777 6.85085 4.48224C7.13258 4.86671 7.29995 5.31581 7.35298 5.82955H5.90625C5.8267 5.47159 5.64441 5.16335 5.35938 4.90483C5.07765 4.64631 4.69981 4.51705 4.22585 4.51705C3.81155 4.51705 3.44863 4.62642 3.13707 4.84517C2.82884 5.06061 2.58854 5.36884 2.41619 5.76989C2.24384 6.16761 2.15767 6.63826 2.15767 7.18182C2.15767 7.73864 2.24219 8.21922 2.41122 8.62358C2.58026 9.02794 2.81889 9.34115 3.12713 9.56321C3.43868 9.78527 3.80492 9.89631 4.22585 9.89631C4.50758 9.89631 4.76278 9.84493 4.99148 9.74219C5.22349 9.63613 5.41738 9.48532 5.57315 9.28977C5.73224 9.09422 5.84328 8.8589 5.90625 8.58381H7.35298C7.29995 9.07765 7.1392 9.51847 6.87074 9.90625C6.60227 10.294 6.24266 10.599 5.7919 10.821C5.34446 11.0431 4.81913 11.1541 4.21591 11.1541ZM10.4292 6.46591V11H8.94265V0.818182H10.4093V4.60653H10.5037C10.6827 4.19555 10.9561 3.86908 11.324 3.62713C11.6919 3.38518 12.1725 3.2642 12.7658 3.2642C13.2895 3.2642 13.7469 3.37192 14.138 3.58736C14.5324 3.80279 14.8373 4.12429 15.0527 4.55185C15.2715 4.97609 15.3809 5.50639 15.3809 6.14276V11H13.8944V6.32173C13.8944 5.7616 13.7502 5.32741 13.4618 5.01918C13.1735 4.70762 12.7724 4.55185 12.2587 4.55185C11.9074 4.55185 11.5925 4.62642 11.3141 4.77557C11.039 4.92472 10.8219 5.14347 10.6628 5.43182C10.507 5.71686 10.4292 6.06155 10.4292 6.46591ZM19.5868 11.169C19.1029 11.169 18.6654 11.0795 18.2743 10.9006C17.8832 10.7183 17.5733 10.4548 17.3446 10.1101C17.1193 9.76539 17.0066 9.3428 17.0066 8.84233C17.0066 8.41146 17.0894 8.05682 17.2551 7.77841C17.4209 7.5 17.6446 7.27959 17.9263 7.11719C18.208 6.95478 18.5229 6.83215 18.8709 6.74929C19.2189 6.66643 19.5736 6.60346 19.9348 6.56037C20.3922 6.50734 20.7634 6.46425 21.0485 6.43111C21.3335 6.39465 21.5407 6.33665 21.6699 6.2571C21.7992 6.17756 21.8638 6.0483 21.8638 5.86932V5.83452C21.8638 5.40033 21.7412 5.06392 21.4959 4.82528C21.254 4.58665 20.8927 4.46733 20.4121 4.46733C19.9116 4.46733 19.5172 4.57836 19.2289 4.80043C18.9438 5.01918 18.7466 5.26278 18.6373 5.53125L17.2402 5.21307C17.406 4.74905 17.6479 4.37453 17.9661 4.08949C18.2876 3.80114 18.6571 3.59233 19.0748 3.46307C19.4924 3.33049 19.9315 3.2642 20.3922 3.2642C20.6971 3.2642 21.0203 3.30066 21.3617 3.37358C21.7064 3.44318 22.0279 3.57244 22.3262 3.76136C22.6278 3.95028 22.8747 4.22041 23.0669 4.57173C23.2592 4.91974 23.3553 5.37216 23.3553 5.92898V11H21.9036V9.95597H21.8439C21.7478 10.1482 21.6036 10.3371 21.4114 10.5227C21.2192 10.7083 20.9722 10.8625 20.6706 10.9851C20.369 11.1077 20.0078 11.169 19.5868 11.169ZM19.91 9.97585C20.321 9.97585 20.6723 9.89465 20.964 9.73224C21.2589 9.56984 21.4827 9.35772 21.6351 9.09588C21.7909 8.83073 21.8688 8.54735 21.8688 8.24574V7.26136C21.8158 7.31439 21.713 7.36411 21.5605 7.41051C21.4114 7.4536 21.2407 7.49171 21.0485 7.52486C20.8562 7.55469 20.669 7.58286 20.4867 7.60938C20.3044 7.63258 20.1519 7.65246 20.0293 7.66903C19.7409 7.70549 19.4775 7.76681 19.2388 7.85298C19.0035 7.93916 18.8146 8.06345 18.6721 8.22585C18.5328 8.38494 18.4632 8.59706 18.4632 8.86222C18.4632 9.23011 18.5991 9.50852 18.8709 9.69744C19.1427 9.88305 19.4891 9.97585 19.91 9.97585ZM25.3352 11V3.36364H26.772V4.5767H26.8516C26.9908 4.16572 27.236 3.84257 27.5874 3.60724C27.942 3.36861 28.343 3.24929 28.7905 3.24929C28.8833 3.24929 28.9927 3.2526 29.1186 3.25923C29.2479 3.26586 29.349 3.27415 29.4219 3.28409V4.70597C29.3622 4.68939 29.2562 4.67116 29.1037 4.65128C28.9512 4.62808 28.7988 4.61648 28.6463 4.61648C28.295 4.61648 27.9818 4.69105 27.7067 4.8402C27.4349 4.98603 27.2195 5.18987 27.0604 5.4517C26.9013 5.71023 26.8217 6.00521 26.8217 6.33665V11H25.3352ZM34.7241 3.36364V4.55682H30.5529V3.36364H34.7241ZM31.6715 1.53409H33.158V8.75781C33.158 9.04616 33.2011 9.26326 33.2873 9.40909C33.3735 9.55161 33.4845 9.64938 33.6204 9.70241C33.7596 9.75213 33.9104 9.77699 34.0728 9.77699C34.1921 9.77699 34.2965 9.7687 34.386 9.75213C34.4755 9.73556 34.5451 9.7223 34.5948 9.71236L34.8633 10.9403C34.7771 10.9735 34.6545 11.0066 34.4954 11.0398C34.3363 11.0762 34.1374 11.0961 33.8988 11.0994C33.5077 11.1061 33.1431 11.0365 32.805 10.8906C32.467 10.7448 32.1935 10.5194 31.9847 10.2145C31.7759 9.90956 31.6715 9.52675 31.6715 9.06605V1.53409ZM40.608 6.05327V7.34091H36.0938V6.05327H40.608ZM42.7085 11V0.818182H44.195V4.60156H44.2844C44.3706 4.44247 44.4949 4.25852 44.6573 4.04972C44.8197 3.84091 45.0451 3.65862 45.3335 3.50284C45.6218 3.34375 46.003 3.2642 46.4769 3.2642C47.0934 3.2642 47.6436 3.41998 48.1275 3.73153C48.6114 4.04309 48.9909 4.49219 49.266 5.07884C49.5444 5.66548 49.6836 6.37145 49.6836 7.19673C49.6836 8.02202 49.546 8.72964 49.271 9.3196C48.9959 9.90625 48.618 10.3587 48.1374 10.6768C47.6568 10.9917 47.1083 11.1491 46.4918 11.1491C46.0278 11.1491 45.6483 11.0713 45.3533 10.9155C45.0617 10.7597 44.833 10.5774 44.6673 10.3686C44.5015 10.1598 44.3739 9.9742 44.2844 9.81179H44.1602V11H42.7085ZM44.1651 7.18182C44.1651 7.71875 44.243 8.18939 44.3988 8.59375C44.5546 8.99811 44.7799 9.31463 45.0749 9.54332C45.3699 9.7687 45.7312 9.88139 46.1587 9.88139C46.6029 9.88139 46.9741 9.76373 47.2724 9.52841C47.5707 9.28977 47.796 8.96662 47.9485 8.55895C48.1043 8.15128 48.1822 7.69223 48.1822 7.18182C48.1822 6.67803 48.1059 6.22562 47.9535 5.82457C47.8043 5.42353 47.579 5.10701 47.2773 4.875C46.979 4.64299 46.6062 4.52699 46.1587 4.52699C45.7279 4.52699 45.3633 4.63802 45.065 4.86009C44.77 5.08215 44.5463 5.39205 44.3938 5.78977C44.2414 6.1875 44.1651 6.65151 44.1651 7.18182ZM51.3528 11V3.36364H52.7896V4.5767H52.8691C53.0083 4.16572 53.2536 3.84257 53.6049 3.60724C53.9596 3.36861 54.3606 3.24929 54.8081 3.24929C54.9009 3.24929 55.0102 3.2526 55.1362 3.25923C55.2654 3.26586 55.3665 3.27415 55.4395 3.28409V4.70597C55.3798 4.68939 55.2737 4.67116 55.1213 4.65128C54.9688 4.62808 54.8163 4.61648 54.6639 4.61648C54.3126 4.61648 53.9993 4.69105 53.7243 4.8402C53.4525 4.98603 53.237 5.18987 53.0779 5.4517C52.9189 5.71023 52.8393 6.00521 52.8393 6.33665V11H51.3528ZM59.7436 11.1541C58.9912 11.1541 58.3433 10.9934 57.7997 10.6719C57.2595 10.3471 56.8419 9.89134 56.5469 9.30469C56.2552 8.71473 56.1094 8.02367 56.1094 7.23153C56.1094 6.44934 56.2552 5.75994 56.5469 5.16335C56.8419 4.56676 57.2528 4.10109 57.7798 3.76633C58.3101 3.43158 58.9299 3.2642 59.6392 3.2642C60.0701 3.2642 60.4877 3.33546 60.892 3.47798C61.2964 3.6205 61.6593 3.84422 61.9808 4.14915C62.3023 4.45407 62.5559 4.85014 62.7415 5.33736C62.9271 5.82126 63.0199 6.40956 63.0199 7.10227V7.62926H56.9496V6.51562H61.5632C61.5632 6.12453 61.4837 5.77817 61.3246 5.47656C61.1655 5.17164 60.9418 4.93134 60.6534 4.75568C60.3684 4.58002 60.0336 4.49219 59.6491 4.49219C59.2315 4.49219 58.867 4.59493 58.5554 4.80043C58.2472 5.0026 58.0085 5.26776 57.8395 5.59588C57.6738 5.92069 57.5909 6.27367 57.5909 6.65483V7.52486C57.5909 8.03527 57.6804 8.46946 57.8594 8.82741C58.0417 9.18537 58.2952 9.45881 58.62 9.64773C58.9448 9.83333 59.3243 9.92614 59.7585 9.92614C60.0402 9.92614 60.2971 9.88636 60.5291 9.80682C60.7611 9.72396 60.9616 9.60133 61.1307 9.43892C61.2997 9.27652 61.429 9.07599 61.5185 8.83736L62.9254 9.09091C62.8127 9.50521 62.6106 9.86813 62.3189 10.1797C62.0305 10.4879 61.6676 10.7282 61.2301 10.9006C60.7959 11.0696 60.3004 11.1541 59.7436 11.1541ZM66.8915 11.169C66.4076 11.169 65.9701 11.0795 65.579 10.9006C65.1879 10.7183 64.878 10.4548 64.6493 10.1101C64.4239 9.76539 64.3113 9.3428 64.3113 8.84233C64.3113 8.41146 64.3941 8.05682 64.5598 7.77841C64.7256 7.5 64.9493 7.27959 65.231 7.11719C65.5127 6.95478 65.8276 6.83215 66.1756 6.74929C66.5236 6.66643 66.8783 6.60346 67.2395 6.56037C67.6969 6.50734 68.0681 6.46425 68.3532 6.43111C68.6382 6.39465 68.8453 6.33665 68.9746 6.2571C69.1039 6.17756 69.1685 6.0483 69.1685 5.86932V5.83452C69.1685 5.40033 69.0459 5.06392 68.8006 4.82528C68.5587 4.58665 68.1974 4.46733 67.7168 4.46733C67.2163 4.46733 66.8219 4.57836 66.5336 4.80043C66.2485 5.01918 66.0513 5.26278 65.9419 5.53125L64.5449 5.21307C64.7106 4.74905 64.9526 4.37453 65.2708 4.08949C65.5923 3.80114 65.9618 3.59233 66.3794 3.46307C66.7971 3.33049 67.2362 3.2642 67.6969 3.2642C68.0018 3.2642 68.325 3.30066 68.6664 3.37358C69.0111 3.44318 69.3326 3.57244 69.6309 3.76136C69.9325 3.95028 70.1794 4.22041 70.3716 4.57173C70.5639 4.91974 70.66 5.37216 70.66 5.92898V11H69.2083V9.95597H69.1486C69.0525 10.1482 68.9083 10.3371 68.7161 10.5227C68.5239 10.7083 68.2769 10.8625 67.9753 10.9851C67.6737 11.1077 67.3124 11.169 66.8915 11.169ZM67.2147 9.97585C67.6257 9.97585 67.977 9.89465 68.2686 9.73224C68.5636 9.56984 68.7873 9.35772 68.9398 9.09588C69.0956 8.83073 69.1735 8.54735 69.1735 8.24574V7.26136C69.1204 7.31439 69.0177 7.36411 68.8652 7.41051C68.7161 7.4536 68.5454 7.49171 68.3532 7.52486C68.1609 7.55469 67.9737 7.58286 67.7914 7.60938C67.6091 7.63258 67.4566 7.65246 67.334 7.66903C67.0456 7.70549 66.7821 7.76681 66.5435 7.85298C66.3082 7.93916 66.1193 8.06345 65.9767 8.22585C65.8375 8.38494 65.7679 8.59706 65.7679 8.86222C65.7679 9.23011 65.9038 9.50852 66.1756 9.69744C66.4474 9.88305 66.7937 9.97585 67.2147 9.97585ZM74.0071 8.4098L73.9972 6.59517H74.2557L77.2983 3.36364H79.0781L75.608 7.04261H75.3743L74.0071 8.4098ZM72.6399 11V0.818182H74.1264V11H72.6399ZM77.4624 11L74.728 7.37074L75.7521 6.33168L79.2869 11H77.4624ZM83.335 11.1541C82.6191 11.1541 81.9944 10.9901 81.4608 10.6619C80.9271 10.3338 80.5128 9.87476 80.2179 9.2848C79.9229 8.69484 79.7754 8.00544 79.7754 7.21662C79.7754 6.42448 79.9229 5.73177 80.2179 5.13849C80.5128 4.54522 80.9271 4.08452 81.4608 3.75639C81.9944 3.42827 82.6191 3.2642 83.335 3.2642C84.051 3.2642 84.6757 3.42827 85.2093 3.75639C85.743 4.08452 86.1573 4.54522 86.4522 5.13849C86.7472 5.73177 86.8947 6.42448 86.8947 7.21662C86.8947 8.00544 86.7472 8.69484 86.4522 9.2848C86.1573 9.87476 85.743 10.3338 85.2093 10.6619C84.6757 10.9901 84.051 11.1541 83.335 11.1541ZM83.34 9.90625C83.804 9.90625 84.1885 9.78362 84.4934 9.53835C84.7984 9.29309 85.0237 8.96662 85.1696 8.55895C85.3187 8.15128 85.3933 7.70218 85.3933 7.21165C85.3933 6.72443 85.3187 6.27699 85.1696 5.86932C85.0237 5.45833 84.7984 5.12855 84.4934 4.87997C84.1885 4.63139 83.804 4.5071 83.34 4.5071C82.8727 4.5071 82.4849 4.63139 82.1767 4.87997C81.8717 5.12855 81.6447 5.45833 81.4956 5.86932C81.3497 6.27699 81.2768 6.72443 81.2768 7.21165C81.2768 7.70218 81.3497 8.15128 81.4956 8.55895C81.6447 8.96662 81.8717 9.29309 82.1767 9.53835C82.4849 9.78362 82.8727 9.90625 83.34 9.90625ZM93.3913 7.8331V3.36364H94.8828V11H93.4212V9.67756H93.3416C93.166 10.0852 92.8842 10.425 92.4964 10.6967C92.112 10.9652 91.633 11.0994 91.0597 11.0994C90.5691 11.0994 90.1349 10.9917 89.7571 10.7763C89.3826 10.5575 89.0876 10.2344 88.8722 9.80682C88.66 9.37926 88.554 8.85062 88.554 8.22088V3.36364H90.0405V8.0419C90.0405 8.56226 90.1847 8.97656 90.473 9.2848C90.7614 9.59304 91.1359 9.74716 91.5966 9.74716C91.875 9.74716 92.1518 9.67756 92.4268 9.53835C92.7053 9.39915 92.9356 9.18868 93.1179 8.90696C93.3035 8.62524 93.3946 8.26728 93.3913 7.8331ZM100.445 3.36364V4.55682H96.2736V3.36364H100.445ZM97.3922 1.53409H98.8787V8.75781C98.8787 9.04616 98.9218 9.26326 99.008 9.40909C99.0942 9.55161 99.2052 9.64938 99.3411 9.70241C99.4803 9.75213 99.6311 9.77699 99.7935 9.77699C99.9128 9.77699 100.017 9.7687 100.107 9.75213C100.196 9.73556 100.266 9.7223 100.316 9.71236L100.584 10.9403C100.498 10.9735 100.375 11.0066 100.216 11.0398C100.057 11.0762 99.8581 11.0961 99.6195 11.0994C99.2284 11.1061 98.8638 11.0365 98.5257 10.8906C98.1877 10.7448 97.9142 10.5194 97.7054 10.2145C97.4966 9.90956 97.3922 9.52675 97.3922 9.06605V1.53409ZM106.329 6.05327V7.34091H101.814V6.05327H106.329ZM111.526 11.1541C110.787 11.1541 110.151 10.9867 109.617 10.652C109.087 10.3139 108.679 9.84825 108.394 9.25497C108.109 8.66169 107.967 7.98224 107.967 7.21662C107.967 6.44105 108.113 5.75663 108.404 5.16335C108.696 4.56676 109.107 4.10109 109.637 3.76633C110.168 3.43158 110.792 3.2642 111.512 3.2642C112.092 3.2642 112.609 3.37192 113.063 3.58736C113.517 3.79948 113.883 4.09777 114.161 4.48224C114.443 4.86671 114.61 5.31581 114.664 5.82955H113.217C113.137 5.47159 112.955 5.16335 112.67 4.90483C112.388 4.64631 112.01 4.51705 111.536 4.51705C111.122 4.51705 110.759 4.62642 110.448 4.84517C110.139 5.06061 109.899 5.36884 109.727 5.76989C109.554 6.16761 109.468 6.63826 109.468 7.18182C109.468 7.73864 109.553 8.21922 109.722 8.62358C109.891 9.02794 110.129 9.34115 110.438 9.56321C110.749 9.78527 111.115 9.89631 111.536 9.89631C111.818 9.89631 112.073 9.84493 112.302 9.74219C112.534 9.63613 112.728 9.48532 112.884 9.28977C113.043 9.09422 113.154 8.8589 113.217 8.58381H114.664C114.61 9.07765 114.45 9.51847 114.181 9.90625C113.913 10.294 113.553 10.599 113.102 10.821C112.655 11.0431 112.13 11.1541 111.526 11.1541ZM116.253 11V3.36364H117.74V11H116.253ZM117.004 2.18537C116.745 2.18537 116.523 2.09919 116.338 1.92685C116.155 1.75118 116.064 1.54238 116.064 1.30043C116.064 1.05516 116.155 0.846354 116.338 0.674005C116.523 0.498342 116.745 0.410511 117.004 0.410511C117.262 0.410511 117.483 0.498342 117.665 0.674005C117.851 0.846354 117.944 1.05516 117.944 1.30043C117.944 1.54238 117.851 1.75118 117.665 1.92685C117.483 2.09919 117.262 2.18537 117.004 2.18537ZM119.74 11V3.36364H121.176V4.5767H121.256C121.395 4.16572 121.64 3.84257 121.992 3.60724C122.346 3.36861 122.747 3.24929 123.195 3.24929C123.288 3.24929 123.397 3.2526 123.523 3.25923C123.652 3.26586 123.753 3.27415 123.826 3.28409V4.70597C123.767 4.68939 123.66 4.67116 123.508 4.65128C123.356 4.62808 123.203 4.61648 123.051 4.61648C122.699 4.61648 122.386 4.69105 122.111 4.8402C121.839 4.98603 121.624 5.18987 121.465 5.4517C121.306 5.71023 121.226 6.00521 121.226 6.33665V11H119.74ZM128.056 11.1541C127.317 11.1541 126.68 10.9867 126.147 10.652C125.616 10.3139 125.209 9.84825 124.924 9.25497C124.639 8.66169 124.496 7.98224 124.496 7.21662C124.496 6.44105 124.642 5.75663 124.934 5.16335C125.225 4.56676 125.636 4.10109 126.167 3.76633C126.697 3.43158 127.322 3.2642 128.041 3.2642C128.621 3.2642 129.138 3.37192 129.592 3.58736C130.046 3.79948 130.412 4.09777 130.691 4.48224C130.972 4.86671 131.14 5.31581 131.193 5.82955H129.746C129.667 5.47159 129.484 5.16335 129.199 4.90483C128.917 4.64631 128.54 4.51705 128.066 4.51705C127.651 4.51705 127.288 4.62642 126.977 4.84517C126.669 5.06061 126.428 5.36884 126.256 5.76989C126.084 6.16761 125.998 6.63826 125.998 7.18182C125.998 7.73864 126.082 8.21922 126.251 8.62358C126.42 9.02794 126.659 9.34115 126.967 9.56321C127.279 9.78527 127.645 9.89631 128.066 9.89631C128.347 9.89631 128.603 9.84493 128.831 9.74219C129.063 9.63613 129.257 9.48532 129.413 9.28977C129.572 9.09422 129.683 8.8589 129.746 8.58381H131.193C131.14 9.07765 130.979 9.51847 130.711 9.90625C130.442 10.294 130.083 10.599 129.632 10.821C129.184 11.0431 128.659 11.1541 128.056 11.1541ZM134.269 0.818182V11H132.782V0.818182H134.269ZM139.56 11.1541C138.808 11.1541 138.16 10.9934 137.616 10.6719C137.076 10.3471 136.658 9.89134 136.363 9.30469C136.072 8.71473 135.926 8.02367 135.926 7.23153C135.926 6.44934 136.072 5.75994 136.363 5.16335C136.658 4.56676 137.069 4.10109 137.596 3.76633C138.127 3.43158 138.746 3.2642 139.456 3.2642C139.886 3.2642 140.304 3.33546 140.708 3.47798C141.113 3.6205 141.476 3.84422 141.797 4.14915C142.119 4.45407 142.372 4.85014 142.558 5.33736C142.743 5.82126 142.836 6.40956 142.836 7.10227V7.62926H136.766V6.51562H141.38C141.38 6.12453 141.3 5.77817 141.141 5.47656C140.982 5.17164 140.758 4.93134 140.47 4.75568C140.185 4.58002 139.85 4.49219 139.466 4.49219C139.048 4.49219 138.683 4.59493 138.372 4.80043C138.064 5.0026 137.825 5.26776 137.656 5.59588C137.49 5.92069 137.407 6.27367 137.407 6.65483V7.52486C137.407 8.03527 137.497 8.46946 137.676 8.82741C137.858 9.18537 138.112 9.45881 138.436 9.64773C138.761 9.83333 139.141 9.92614 139.575 9.92614C139.857 9.92614 140.114 9.88636 140.346 9.80682C140.578 9.72396 140.778 9.60133 140.947 9.43892C141.116 9.27652 141.245 9.07599 141.335 8.83736L142.742 9.09091C142.629 9.50521 142.427 9.86813 142.135 10.1797C141.847 10.4879 141.484 10.7282 141.047 10.9006C140.612 11.0696 140.117 11.1541 139.56 11.1541Z" fill="black"/>
</svg>
