<svg width="80" height="14" viewBox="0 0 80 14" fill="none" xmlns="http://www.w3.org/2000/svg">
<path d="M4.56392 3.36364V4.55682H0.392756V3.36364H4.56392ZM1.51136 1.53409H2.99787V8.75781C2.99787 9.04616 3.04096 9.26326 3.12713 9.40909C3.21331 9.55161 3.32434 9.64938 3.46023 9.70241C3.59943 9.75213 3.75024 9.77699 3.91264 9.77699C4.03196 9.77699 4.13636 9.7687 4.22585 9.75213C4.31534 9.73556 4.38494 9.7223 4.43466 9.71236L4.70312 10.9403C4.61695 10.9735 4.49432 11.0066 4.33523 11.0398C4.17614 11.0762 3.97727 11.0961 3.73864 11.0994C3.34754 11.1061 2.98295 11.0365 2.64489 10.8906C2.30682 10.7448 2.03338 10.5194 1.82457 10.2145C1.61577 9.90956 1.51136 9.52675 1.51136 9.06605V1.53409ZM6.20827 11V3.36364H7.64506V4.5767H7.72461C7.86381 4.16572 8.10908 3.84257 8.4604 3.60724C8.81505 3.36861 9.21609 3.24929 9.66353 3.24929C9.75633 3.24929 9.86571 3.2526 9.99166 3.25923C10.1209 3.26586 10.222 3.27415 10.2949 3.28409V4.70597C10.2353 4.68939 10.1292 4.67116 9.97674 4.65128C9.82428 4.62808 9.67182 4.61648 9.51935 4.61648C9.16803 4.61648 8.85482 4.69105 8.57972 4.8402C8.30794 4.98603 8.09251 5.18987 7.93342 5.4517C7.77433 5.71023 7.69478 6.00521 7.69478 6.33665V11H6.20827ZM14.5991 11.1541C13.8467 11.1541 13.1987 10.9934 12.6552 10.6719C12.1149 10.3471 11.6973 9.89134 11.4023 9.30469C11.1107 8.71473 10.9648 8.02367 10.9648 7.23153C10.9648 6.44934 11.1107 5.75994 11.4023 5.16335C11.6973 4.56676 12.1083 4.10109 12.6353 3.76633C13.1656 3.43158 13.7854 3.2642 14.4947 3.2642C14.9255 3.2642 15.3432 3.33546 15.7475 3.47798C16.1519 3.6205 16.5148 3.84422 16.8363 4.14915C17.1578 4.45407 17.4113 4.85014 17.5969 5.33736C17.7826 5.82126 17.8754 6.40956 17.8754 7.10227V7.62926H11.805V6.51562H16.4187C16.4187 6.12453 16.3391 5.77817 16.18 5.47656C16.021 5.17164 15.7972 4.93134 15.5089 4.75568C15.2238 4.58002 14.8891 4.49219 14.5046 4.49219C14.087 4.49219 13.7224 4.59493 13.4109 4.80043C13.1026 5.0026 12.864 5.26776 12.695 5.59588C12.5292 5.92069 12.4464 6.27367 12.4464 6.65483V7.52486C12.4464 8.03527 12.5359 8.46946 12.7148 8.82741C12.8971 9.18537 13.1507 9.45881 13.4755 9.64773C13.8003 9.83333 14.1798 9.92614 14.614 9.92614C14.8957 9.92614 15.1526 9.88636 15.3846 9.80682C15.6166 9.72396 15.8171 9.60133 15.9862 9.43892C16.1552 9.27652 16.2844 9.07599 16.3739 8.83736L17.7809 9.09091C17.6682 9.50521 17.466 9.86813 17.1744 10.1797C16.886 10.4879 16.5231 10.7282 16.0856 10.9006C15.6514 11.0696 15.1559 11.1541 14.5991 11.1541ZM21.0112 6.46591V11H19.5247V3.36364H20.9515V4.60653H21.046C21.2217 4.20218 21.4967 3.87737 21.8713 3.6321C22.2491 3.38684 22.7247 3.2642 23.2981 3.2642C23.8185 3.2642 24.2742 3.37358 24.6653 3.59233C25.0564 3.80777 25.3597 4.12926 25.5751 4.55682C25.7905 4.98437 25.8983 5.51302 25.8983 6.14276V11H24.4118V6.32173C24.4118 5.76823 24.2676 5.3357 23.9792 5.02415C23.6909 4.70928 23.2948 4.55185 22.791 4.55185C22.4463 4.55185 22.1397 4.62642 21.8713 4.77557C21.6061 4.92472 21.3957 5.14347 21.2399 5.43182C21.0874 5.71686 21.0112 6.06155 21.0112 6.46591ZM30.7505 11.1491C30.1341 11.1491 29.5839 10.9917 29.1 10.6768C28.6194 10.3587 28.2415 9.90625 27.9664 9.3196C27.6947 8.72964 27.5588 8.02202 27.5588 7.19673C27.5588 6.37145 27.6963 5.66548 27.9714 5.07884C28.2498 4.49219 28.631 4.04309 29.1149 3.73153C29.5988 3.41998 30.1473 3.2642 30.7605 3.2642C31.2344 3.2642 31.6156 3.34375 31.9039 3.50284C32.1956 3.65862 32.421 3.84091 32.5801 4.04972C32.7425 4.25852 32.8684 4.44247 32.9579 4.60156H33.0474V0.818182H34.5339V11H33.0822V9.81179H32.9579C32.8684 9.9742 32.7392 10.1598 32.5701 10.3686C32.4044 10.5774 32.1757 10.7597 31.8841 10.9155C31.5924 11.0713 31.2145 11.1491 30.7505 11.1491ZM31.0787 9.88139C31.5062 9.88139 31.8675 9.7687 32.1625 9.54332C32.4608 9.31463 32.6861 8.99811 32.8386 8.59375C32.9944 8.18939 33.0723 7.71875 33.0723 7.18182C33.0723 6.65151 32.996 6.1875 32.8436 5.78977C32.6911 5.39205 32.4674 5.08215 32.1724 4.86009C31.8774 4.63802 31.5128 4.52699 31.0787 4.52699C30.6312 4.52699 30.2583 4.64299 29.96 4.875C29.6618 5.10701 29.4364 5.42353 29.2839 5.82457C29.1348 6.22562 29.0602 6.67803 29.0602 7.18182C29.0602 7.69223 29.1364 8.15128 29.2889 8.55895C29.4413 8.96662 29.6667 9.28977 29.965 9.52841C30.2666 9.76373 30.6378 9.88139 31.0787 9.88139ZM41.1548 6.05327V7.34091H36.6406V6.05327H41.1548ZM47.9734 7.8331V3.36364H49.4648V11H48.0032V9.67756H47.9237C47.748 10.0852 47.4663 10.425 47.0785 10.6967C46.694 10.9652 46.2151 11.0994 45.6417 11.0994C45.1512 11.0994 44.717 10.9917 44.3391 10.7763C43.9646 10.5575 43.6696 10.2344 43.4542 9.80682C43.2421 9.37926 43.136 8.85062 43.136 8.22088V3.36364H44.6225V8.0419C44.6225 8.56226 44.7667 8.97656 45.055 9.2848C45.3434 9.59304 45.7179 9.74716 46.1786 9.74716C46.457 9.74716 46.7338 9.67756 47.0089 9.53835C47.2873 9.39915 47.5176 9.18868 47.6999 8.90696C47.8855 8.62524 47.9767 8.26728 47.9734 7.8331ZM51.4622 13.8636V3.36364H52.9139V4.60156H53.0382C53.1243 4.44247 53.2486 4.25852 53.411 4.04972C53.5734 3.84091 53.7988 3.65862 54.0872 3.50284C54.3755 3.34375 54.7567 3.2642 55.2306 3.2642C55.8471 3.2642 56.3973 3.41998 56.8812 3.73153C57.3651 4.04309 57.7446 4.49219 58.0197 5.07884C58.2981 5.66548 58.4373 6.37145 58.4373 7.19673C58.4373 8.02202 58.2998 8.72964 58.0247 9.3196C57.7496 9.90625 57.3717 10.3587 56.8912 10.6768C56.4106 10.9917 55.862 11.1491 55.2456 11.1491C54.7815 11.1491 54.402 11.0713 54.1071 10.9155C53.8154 10.7597 53.5867 10.5774 53.421 10.3686C53.2553 10.1598 53.1277 9.9742 53.0382 9.81179H52.9487V13.8636H51.4622ZM52.9189 7.18182C52.9189 7.71875 52.9967 8.18939 53.1525 8.59375C53.3083 8.99811 53.5337 9.31463 53.8287 9.54332C54.1236 9.7687 54.4849 9.88139 54.9125 9.88139C55.3566 9.88139 55.7278 9.76373 56.0261 9.52841C56.3244 9.28977 56.5498 8.96662 56.7022 8.55895C56.858 8.15128 56.9359 7.69223 56.9359 7.18182C56.9359 6.67803 56.8597 6.22562 56.7072 5.82457C56.5581 5.42353 56.3327 5.10701 56.0311 4.875C55.7328 4.64299 55.3599 4.52699 54.9125 4.52699C54.4816 4.52699 54.117 4.63802 53.8187 4.86009C53.5237 5.08215 53.3 5.39205 53.1475 5.78977C52.9951 6.1875 52.9189 6.65151 52.9189 7.18182ZM64.6021 6.05327V7.34091H60.0879V6.05327H64.6021ZM70.1081 11.169C69.3226 11.1657 68.6515 10.9586 68.0946 10.5476C67.5378 10.1366 67.1119 9.53835 66.8169 8.75284C66.522 7.96733 66.3745 7.02107 66.3745 5.91406C66.3745 4.81037 66.522 3.86742 66.8169 3.08523C67.1152 2.30303 67.5428 1.70644 68.0996 1.29545C68.6597 0.884469 69.3292 0.678977 70.1081 0.678977C70.887 0.678977 71.5549 0.886126 72.1117 1.30043C72.6685 1.71141 73.0944 2.308 73.3894 3.0902C73.6877 3.86908 73.8368 4.81037 73.8368 5.91406C73.8368 7.02438 73.6893 7.9723 73.3944 8.75781C73.0994 9.54001 72.6735 10.1383 72.1167 10.5526C71.5598 10.9635 70.8903 11.169 70.1081 11.169ZM70.1081 9.84162C70.7975 9.84162 71.3361 9.50521 71.7239 8.83239C72.115 8.15956 72.3105 7.18679 72.3105 5.91406C72.3105 5.06889 72.2211 4.35464 72.0421 3.77131C71.8664 3.18466 71.6129 2.74053 71.2814 2.43892C70.9533 2.134 70.5622 1.98153 70.1081 1.98153C69.4221 1.98153 68.8835 2.3196 68.4924 2.99574C68.1013 3.67187 67.9041 4.64465 67.9007 5.91406C67.9007 6.76255 67.9886 7.48011 68.1642 8.06676C68.3432 8.65009 68.5968 9.09257 68.9249 9.39418C69.253 9.69247 69.6474 9.84162 70.1081 9.84162ZM79.4634 0.818182V11H77.9222V2.35938H77.8626L75.4265 3.95028V2.47869L77.967 0.818182H79.4634Z" fill="black"/>
</svg>
