<svg width="159" height="12" viewBox="0 0 159 12" fill="none" xmlns="http://www.w3.org/2000/svg">
<path d="M1.4858 6.46591V11H-0.000710189V0.818182H1.46591V4.60653H1.56037C1.73935 4.19555 2.01278 3.86908 2.38068 3.62713C2.74858 3.38518 3.22917 3.2642 3.82244 3.2642C4.34612 3.2642 4.8035 3.37192 5.1946 3.58736C5.58902 3.80279 5.89394 4.12429 6.10938 4.55185C6.32812 4.97609 6.4375 5.50639 6.4375 6.14276V11H4.95099V6.32173C4.95099 5.7616 4.80682 5.32741 4.51847 5.01918C4.23011 4.70762 3.82907 4.55185 3.31534 4.55185C2.96402 4.55185 2.64915 4.62642 2.37074 4.77557C2.09564 4.92472 1.87855 5.14347 1.71946 5.43182C1.56368 5.71686 1.4858 6.06155 1.4858 6.46591ZM11.6378 11.1541C10.9219 11.1541 10.2971 10.9901 9.76349 10.6619C9.22988 10.3338 8.81558 9.87476 8.5206 9.2848C8.22562 8.69484 8.07812 8.00544 8.07812 7.21662C8.07812 6.42448 8.22562 5.73177 8.5206 5.13849C8.81558 4.54522 9.22988 4.08452 9.76349 3.75639C10.2971 3.42827 10.9219 3.2642 11.6378 3.2642C12.3537 3.2642 12.9785 3.42827 13.5121 3.75639C14.0457 4.08452 14.46 4.54522 14.755 5.13849C15.05 5.73177 15.1974 6.42448 15.1974 7.21662C15.1974 8.00544 15.05 8.69484 14.755 9.2848C14.46 9.87476 14.0457 10.3338 13.5121 10.6619C12.9785 10.9901 12.3537 11.1541 11.6378 11.1541ZM11.6428 9.90625C12.1068 9.90625 12.4912 9.78362 12.7962 9.53835C13.1011 9.29309 13.3265 8.96662 13.4723 8.55895C13.6214 8.15128 13.696 7.70218 13.696 7.21165C13.696 6.72443 13.6214 6.27699 13.4723 5.86932C13.3265 5.45833 13.1011 5.12855 12.7962 4.87997C12.4912 4.63139 12.1068 4.5071 11.6428 4.5071C11.1754 4.5071 10.7876 4.63139 10.4794 4.87997C10.1745 5.12855 9.94744 5.45833 9.7983 5.86932C9.65246 6.27699 9.57955 6.72443 9.57955 7.21165C9.57955 7.70218 9.65246 8.15128 9.7983 8.55895C9.94744 8.96662 10.1745 9.29309 10.4794 9.53835C10.7876 9.78362 11.1754 9.90625 11.6428 9.90625ZM16.8567 11V3.36364H18.2935V4.5767H18.373C18.5123 4.16572 18.7575 3.84257 19.1088 3.60724C19.4635 3.36861 19.8645 3.24929 20.312 3.24929C20.4048 3.24929 20.5141 3.2526 20.6401 3.25923C20.7694 3.26586 20.8704 3.27415 20.9434 3.28409V4.70597C20.8837 4.68939 20.7776 4.67116 20.6252 4.65128C20.4727 4.62808 20.3203 4.61648 20.1678 4.61648C19.8165 4.61648 19.5033 4.69105 19.2282 4.8402C18.9564 4.98603 18.7409 5.18987 18.5819 5.4517C18.4228 5.71023 18.3432 6.00521 18.3432 6.33665V11H16.8567ZM22.2298 11V3.36364H23.7163V11H22.2298ZM22.9805 2.18537C22.7219 2.18537 22.4999 2.09919 22.3143 1.92685C22.132 1.75118 22.0408 1.54238 22.0408 1.30043C22.0408 1.05516 22.132 0.846354 22.3143 0.674005C22.4999 0.498342 22.7219 0.410511 22.9805 0.410511C23.239 0.410511 23.4594 0.498342 23.6417 0.674005C23.8273 0.846354 23.9201 1.05516 23.9201 1.30043C23.9201 1.54238 23.8273 1.75118 23.6417 1.92685C23.4594 2.09919 23.239 2.18537 22.9805 2.18537ZM25.557 11V9.98082L29.6934 4.72585V4.65625H25.6912V3.36364H31.5478V4.44744L27.5705 9.63778V9.70739H31.687V11H25.557ZM36.4386 11.1541C35.7227 11.1541 35.0979 10.9901 34.5643 10.6619C34.0307 10.3338 33.6164 9.87476 33.3214 9.2848C33.0264 8.69484 32.8789 8.00544 32.8789 7.21662C32.8789 6.42448 33.0264 5.73177 33.3214 5.13849C33.6164 4.54522 34.0307 4.08452 34.5643 3.75639C35.0979 3.42827 35.7227 3.2642 36.4386 3.2642C37.1545 3.2642 37.7792 3.42827 38.3129 3.75639C38.8465 4.08452 39.2608 4.54522 39.5558 5.13849C39.8507 5.73177 39.9982 6.42448 39.9982 7.21662C39.9982 8.00544 39.8507 8.69484 39.5558 9.2848C39.2608 9.87476 38.8465 10.3338 38.3129 10.6619C37.7792 10.9901 37.1545 11.1541 36.4386 11.1541ZM36.4435 9.90625C36.9076 9.90625 37.292 9.78362 37.5969 9.53835C37.9019 9.29309 38.1272 8.96662 38.2731 8.55895C38.4222 8.15128 38.4968 7.70218 38.4968 7.21165C38.4968 6.72443 38.4222 6.27699 38.2731 5.86932C38.1272 5.45833 37.9019 5.12855 37.5969 4.87997C37.292 4.63139 36.9076 4.5071 36.4435 4.5071C35.9762 4.5071 35.5884 4.63139 35.2802 4.87997C34.9753 5.12855 34.7482 5.45833 34.5991 5.86932C34.4532 6.27699 34.3803 6.72443 34.3803 7.21165C34.3803 7.70218 34.4532 8.15128 34.5991 8.55895C34.7482 8.96662 34.9753 9.29309 35.2802 9.53835C35.5884 9.78362 35.9762 9.90625 36.4435 9.90625ZM43.144 6.46591V11H41.6575V3.36364H43.0843V4.60653H43.1788C43.3545 4.20218 43.6296 3.87737 44.0041 3.6321C44.3819 3.38684 44.8575 3.2642 45.4309 3.2642C45.9513 3.2642 46.407 3.37358 46.7981 3.59233C47.1892 3.80777 47.4925 4.12926 47.7079 4.55682C47.9234 4.98437 48.0311 5.51302 48.0311 6.14276V11H46.5446V6.32173C46.5446 5.76823 46.4004 5.3357 46.112 5.02415C45.8237 4.70928 45.4276 4.55185 44.9238 4.55185C44.5791 4.55185 44.2725 4.62642 44.0041 4.77557C43.7389 4.92472 43.5285 5.14347 43.3727 5.43182C43.2202 5.71686 43.144 6.06155 43.144 6.46591ZM53.5893 3.36364V4.55682H49.4181V3.36364H53.5893ZM50.5368 1.53409H52.0233V8.75781C52.0233 9.04616 52.0663 9.26326 52.1525 9.40909C52.2387 9.55161 52.3497 9.64938 52.4856 9.70241C52.6248 9.75213 52.7756 9.77699 52.938 9.77699C53.0574 9.77699 53.1618 9.7687 53.2512 9.75213C53.3407 9.73556 53.4103 9.7223 53.46 9.71236L53.7285 10.9403C53.6423 10.9735 53.5197 11.0066 53.3606 11.0398C53.2015 11.0762 53.0027 11.0961 52.764 11.0994C52.3729 11.1061 52.0083 11.0365 51.6703 10.8906C51.3322 10.7448 51.0588 10.5194 50.85 10.2145C50.6412 9.90956 50.5368 9.52675 50.5368 9.06605V1.53409ZM57.456 11.169C56.9721 11.169 56.5346 11.0795 56.1435 10.9006C55.7524 10.7183 55.4425 10.4548 55.2138 10.1101C54.9884 9.76539 54.8757 9.3428 54.8757 8.84233C54.8757 8.41146 54.9586 8.05682 55.1243 7.77841C55.29 7.5 55.5137 7.27959 55.7955 7.11719C56.0772 6.95478 56.392 6.83215 56.7401 6.74929C57.0881 6.66643 57.4427 6.60346 57.804 6.56037C58.2614 6.50734 58.6326 6.46425 58.9176 6.43111C59.2027 6.39465 59.4098 6.33665 59.5391 6.2571C59.6683 6.17756 59.733 6.0483 59.733 5.86932V5.83452C59.733 5.40033 59.6103 5.06392 59.3651 4.82528C59.1231 4.58665 58.7618 4.46733 58.2812 4.46733C57.7808 4.46733 57.3864 4.57836 57.098 4.80043C56.813 5.01918 56.6158 5.26278 56.5064 5.53125L55.1094 5.21307C55.2751 4.74905 55.517 4.37453 55.8352 4.08949C56.1567 3.80114 56.5263 3.59233 56.9439 3.46307C57.3615 3.33049 57.8007 3.2642 58.2614 3.2642C58.5663 3.2642 58.8894 3.30066 59.2308 3.37358C59.5755 3.44318 59.897 3.57244 60.1953 3.76136C60.4969 3.95028 60.7438 4.22041 60.9361 4.57173C61.1283 4.91974 61.2244 5.37216 61.2244 5.92898V11H59.7727V9.95597H59.7131C59.617 10.1482 59.4728 10.3371 59.2805 10.5227C59.0883 10.7083 58.8414 10.8625 58.5398 10.9851C58.2382 11.1077 57.8769 11.169 57.456 11.169ZM57.7791 9.97585C58.1901 9.97585 58.5414 9.89465 58.8331 9.73224C59.1281 9.56984 59.3518 9.35772 59.5043 9.09588C59.66 8.83073 59.7379 8.54735 59.7379 8.24574V7.26136C59.6849 7.31439 59.5821 7.36411 59.4297 7.41051C59.2805 7.4536 59.1098 7.49171 58.9176 7.52486C58.7254 7.55469 58.5381 7.58286 58.3558 7.60938C58.1735 7.63258 58.0211 7.65246 57.8984 7.66903C57.6101 7.70549 57.3466 7.76681 57.108 7.85298C56.8726 7.93916 56.6837 8.06345 56.5412 8.22585C56.402 8.38494 56.3324 8.59706 56.3324 8.86222C56.3324 9.23011 56.4683 9.50852 56.7401 9.69744C57.0118 9.88305 57.3582 9.97585 57.7791 9.97585ZM64.6909 0.818182V11H63.2044V0.818182H64.6909ZM71.19 6.05327V7.34091H66.6758V6.05327H71.19ZM73.2905 11V0.818182H74.777V4.60156H74.8665C74.9527 4.44247 75.0769 4.25852 75.2393 4.04972C75.4018 3.84091 75.6271 3.65862 75.9155 3.50284C76.2038 3.34375 76.585 3.2642 77.0589 3.2642C77.6754 3.2642 78.2256 3.41998 78.7095 3.73153C79.1934 4.04309 79.5729 4.49219 79.848 5.07884C80.1264 5.66548 80.2656 6.37145 80.2656 7.19673C80.2656 8.02202 80.1281 8.72964 79.853 9.3196C79.5779 9.90625 79.2 10.3587 78.7195 10.6768C78.2389 10.9917 77.6903 11.1491 77.0739 11.1491C76.6098 11.1491 76.2304 11.0713 75.9354 10.9155C75.6437 10.7597 75.415 10.5774 75.2493 10.3686C75.0836 10.1598 74.956 9.9742 74.8665 9.81179H74.7422V11H73.2905ZM74.7472 7.18182C74.7472 7.71875 74.825 8.18939 74.9808 8.59375C75.1366 8.99811 75.362 9.31463 75.657 9.54332C75.9519 9.7687 76.3132 9.88139 76.7408 9.88139C77.1849 9.88139 77.5561 9.76373 77.8544 9.52841C78.1527 9.28977 78.3781 8.96662 78.5305 8.55895C78.6863 8.15128 78.7642 7.69223 78.7642 7.18182C78.7642 6.67803 78.688 6.22562 78.5355 5.82457C78.3864 5.42353 78.161 5.10701 77.8594 4.875C77.5611 4.64299 77.1882 4.52699 76.7408 4.52699C76.3099 4.52699 75.9453 4.63802 75.647 4.86009C75.352 5.08215 75.1283 5.39205 74.9759 5.78977C74.8234 6.1875 74.7472 6.65151 74.7472 7.18182ZM84.1571 11.169C83.6732 11.169 83.2357 11.0795 82.8446 10.9006C82.4535 10.7183 82.1436 10.4548 81.915 10.1101C81.6896 9.76539 81.5769 9.3428 81.5769 8.84233C81.5769 8.41146 81.6597 8.05682 81.8255 7.77841C81.9912 7.5 82.2149 7.27959 82.4966 7.11719C82.7783 6.95478 83.0932 6.83215 83.4412 6.74929C83.7892 6.66643 84.1439 6.60346 84.5051 6.56037C84.9625 6.50734 85.3337 6.46425 85.6188 6.43111C85.9038 6.39465 86.111 6.33665 86.2402 6.2571C86.3695 6.17756 86.4341 6.0483 86.4341 5.86932V5.83452C86.4341 5.40033 86.3115 5.06392 86.0662 4.82528C85.8243 4.58665 85.463 4.46733 84.9824 4.46733C84.4819 4.46733 84.0875 4.57836 83.7992 4.80043C83.5141 5.01918 83.3169 5.26278 83.2076 5.53125L81.8105 5.21307C81.9763 4.74905 82.2182 4.37453 82.5364 4.08949C82.8579 3.80114 83.2275 3.59233 83.6451 3.46307C84.0627 3.33049 84.5018 3.2642 84.9625 3.2642C85.2675 3.2642 85.5906 3.30066 85.932 3.37358C86.2767 3.44318 86.5982 3.57244 86.8965 3.76136C87.1981 3.95028 87.445 4.22041 87.6373 4.57173C87.8295 4.91974 87.9256 5.37216 87.9256 5.92898V11H86.4739V9.95597H86.4142C86.3181 10.1482 86.1739 10.3371 85.9817 10.5227C85.7895 10.7083 85.5426 10.8625 85.2409 10.9851C84.9393 11.1077 84.5781 11.169 84.1571 11.169ZM84.4803 9.97585C84.8913 9.97585 85.2426 9.89465 85.5343 9.73224C85.8292 9.56984 86.053 9.35772 86.2054 9.09588C86.3612 8.83073 86.4391 8.54735 86.4391 8.24574V7.26136C86.3861 7.31439 86.2833 7.36411 86.1309 7.41051C85.9817 7.4536 85.811 7.49171 85.6188 7.52486C85.4266 7.55469 85.2393 7.58286 85.057 7.60938C84.8747 7.63258 84.7222 7.65246 84.5996 7.66903C84.3113 7.70549 84.0478 7.76681 83.8091 7.85298C83.5738 7.93916 83.3849 8.06345 83.2424 8.22585C83.1032 8.38494 83.0336 8.59706 83.0336 8.86222C83.0336 9.23011 83.1694 9.50852 83.4412 9.69744C83.713 9.88305 84.0594 9.97585 84.4803 9.97585ZM89.9055 11V3.36364H91.3423V4.5767H91.4219C91.5611 4.16572 91.8063 3.84257 92.1577 3.60724C92.5123 3.36861 92.9134 3.24929 93.3608 3.24929C93.4536 3.24929 93.563 3.2526 93.6889 3.25923C93.8182 3.26586 93.9193 3.27415 93.9922 3.28409V4.70597C93.9325 4.68939 93.8265 4.67116 93.674 4.65128C93.5215 4.62808 93.3691 4.61648 93.2166 4.61648C92.8653 4.61648 92.5521 4.69105 92.277 4.8402C92.0052 4.98603 91.7898 5.18987 91.6307 5.4517C91.4716 5.71023 91.392 6.00521 91.392 6.33665V11H89.9055ZM99.3267 6.05327V7.34091H94.8125V6.05327H99.3267ZM104.525 11.1541C103.785 11.1541 103.149 10.9867 102.615 10.652C102.085 10.3139 101.677 9.84825 101.392 9.25497C101.107 8.66169 100.965 7.98224 100.965 7.21662C100.965 6.44105 101.111 5.75663 101.402 5.16335C101.694 4.56676 102.105 4.10109 102.635 3.76633C103.166 3.43158 103.79 3.2642 104.51 3.2642C105.09 3.2642 105.607 3.37192 106.061 3.58736C106.515 3.79948 106.881 4.09777 107.159 4.48224C107.441 4.86671 107.609 5.31581 107.662 5.82955H106.215C106.135 5.47159 105.953 5.16335 105.668 4.90483C105.386 4.64631 105.008 4.51705 104.534 4.51705C104.12 4.51705 103.757 4.62642 103.446 4.84517C103.137 5.06061 102.897 5.36884 102.725 5.76989C102.552 6.16761 102.466 6.63826 102.466 7.18182C102.466 7.73864 102.551 8.21922 102.72 8.62358C102.889 9.02794 103.127 9.34115 103.436 9.56321C103.747 9.78527 104.114 9.89631 104.534 9.89631C104.816 9.89631 105.071 9.84493 105.3 9.74219C105.532 9.63613 105.726 9.48532 105.882 9.28977C106.041 9.09422 106.152 8.8589 106.215 8.58381H107.662C107.609 9.07765 107.448 9.51847 107.179 9.90625C106.911 10.294 106.551 10.599 106.1 10.821C105.653 11.0431 105.128 11.1541 104.525 11.1541ZM110.738 6.46591V11H109.251V0.818182H110.718V4.60653H110.812C110.991 4.19555 111.265 3.86908 111.633 3.62713C112.001 3.38518 112.481 3.2642 113.074 3.2642C113.598 3.2642 114.055 3.37192 114.447 3.58736C114.841 3.80279 115.146 4.12429 115.361 4.55185C115.58 4.97609 115.689 5.50639 115.689 6.14276V11H114.203V6.32173C114.203 5.7616 114.059 5.32741 113.77 5.01918C113.482 4.70762 113.081 4.55185 112.567 4.55185C112.216 4.55185 111.901 4.62642 111.623 4.77557C111.348 4.92472 111.131 5.14347 110.971 5.43182C110.816 5.71686 110.738 6.06155 110.738 6.46591ZM119.895 11.169C119.412 11.169 118.974 11.0795 118.583 10.9006C118.192 10.7183 117.882 10.4548 117.653 10.1101C117.428 9.76539 117.315 9.3428 117.315 8.84233C117.315 8.41146 117.398 8.05682 117.564 7.77841C117.729 7.5 117.953 7.27959 118.235 7.11719C118.517 6.95478 118.831 6.83215 119.18 6.74929C119.528 6.66643 119.882 6.60346 120.243 6.56037C120.701 6.50734 121.072 6.46425 121.357 6.43111C121.642 6.39465 121.849 6.33665 121.979 6.2571C122.108 6.17756 122.172 6.0483 122.172 5.86932V5.83452C122.172 5.40033 122.05 5.06392 121.805 4.82528C121.563 4.58665 121.201 4.46733 120.721 4.46733C120.22 4.46733 119.826 4.57836 119.537 4.80043C119.252 5.01918 119.055 5.26278 118.946 5.53125L117.549 5.21307C117.715 4.74905 117.956 4.37453 118.275 4.08949C118.596 3.80114 118.966 3.59233 119.383 3.46307C119.801 3.33049 120.24 3.2642 120.701 3.2642C121.006 3.2642 121.329 3.30066 121.67 3.37358C122.015 3.44318 122.336 3.57244 122.635 3.76136C122.936 3.95028 123.183 4.22041 123.376 4.57173C123.568 4.91974 123.664 5.37216 123.664 5.92898V11H122.212V9.95597H122.153C122.056 10.1482 121.912 10.3371 121.72 10.5227C121.528 10.7083 121.281 10.8625 120.979 10.9851C120.678 11.1077 120.316 11.169 119.895 11.169ZM120.219 9.97585C120.63 9.97585 120.981 9.89465 121.273 9.73224C121.568 9.56984 121.791 9.35772 121.944 9.09588C122.099 8.83073 122.177 8.54735 122.177 8.24574V7.26136C122.124 7.31439 122.022 7.36411 121.869 7.41051C121.72 7.4536 121.549 7.49171 121.357 7.52486C121.165 7.55469 120.978 7.58286 120.795 7.60938C120.613 7.63258 120.461 7.65246 120.338 7.66903C120.05 7.70549 119.786 7.76681 119.547 7.85298C119.312 7.93916 119.123 8.06345 118.981 8.22585C118.841 8.38494 118.772 8.59706 118.772 8.86222C118.772 9.23011 118.908 9.50852 119.18 9.69744C119.451 9.88305 119.798 9.97585 120.219 9.97585ZM125.644 11V3.36364H127.081V4.5767H127.16C127.299 4.16572 127.545 3.84257 127.896 3.60724C128.251 3.36861 128.652 3.24929 129.099 3.24929C129.192 3.24929 129.301 3.2526 129.427 3.25923C129.556 3.26586 129.658 3.27415 129.73 3.28409V4.70597C129.671 4.68939 129.565 4.67116 129.412 4.65128C129.26 4.62808 129.107 4.61648 128.955 4.61648C128.604 4.61648 128.29 4.69105 128.015 4.8402C127.743 4.98603 127.528 5.18987 127.369 5.4517C127.21 5.71023 127.13 6.00521 127.13 6.33665V11H125.644ZM135.033 3.36364V4.55682H130.862V3.36364H135.033ZM131.98 1.53409H133.467V8.75781C133.467 9.04616 133.51 9.26326 133.596 9.40909C133.682 9.55161 133.793 9.64938 133.929 9.70241C134.068 9.75213 134.219 9.77699 134.381 9.77699C134.501 9.77699 134.605 9.7687 134.695 9.75213C134.784 9.73556 134.854 9.7223 134.903 9.71236L135.172 10.9403C135.086 10.9735 134.963 11.0066 134.804 11.0398C134.645 11.0762 134.446 11.0961 134.207 11.0994C133.816 11.1061 133.452 11.0365 133.114 10.8906C132.776 10.7448 132.502 10.5194 132.293 10.2145C132.085 9.90956 131.98 9.52675 131.98 9.06605V1.53409ZM140.917 6.05327V7.34091H136.402V6.05327H140.917ZM146.423 11.169C145.637 11.1657 144.966 10.9586 144.409 10.5476C143.852 10.1366 143.426 9.53835 143.131 8.75284C142.836 7.96733 142.689 7.02107 142.689 5.91406C142.689 4.81037 142.836 3.86742 143.131 3.08523C143.43 2.30303 143.857 1.70644 144.414 1.29545C144.974 0.884469 145.644 0.678977 146.423 0.678977C147.201 0.678977 147.869 0.886126 148.426 1.30043C148.983 1.71141 149.409 2.308 149.704 3.0902C150.002 3.86908 150.151 4.81037 150.151 5.91406C150.151 7.02438 150.004 7.9723 149.709 8.75781C149.414 9.54001 148.988 10.1383 148.431 10.5526C147.874 10.9635 147.205 11.169 146.423 11.169ZM146.423 9.84162C147.112 9.84162 147.651 9.50521 148.038 8.83239C148.429 8.15956 148.625 7.18679 148.625 5.91406C148.625 5.06889 148.536 4.35464 148.357 3.77131C148.181 3.18466 147.927 2.74053 147.596 2.43892C147.268 2.134 146.877 1.98153 146.423 1.98153C145.737 1.98153 145.198 2.3196 144.807 2.99574C144.416 3.67187 144.219 4.64465 144.215 5.91406C144.215 6.76255 144.303 7.48011 144.479 8.06676C144.658 8.65009 144.911 9.09257 145.239 9.39418C145.567 9.69247 145.962 9.84162 146.423 9.84162ZM151.915 11V9.88636L155.36 6.31676C155.728 5.92898 156.031 5.58925 156.27 5.29759C156.512 5.0026 156.693 4.72254 156.812 4.45739C156.931 4.19223 156.991 3.91051 156.991 3.61222C156.991 3.27415 156.911 2.98248 156.752 2.73722C156.593 2.48864 156.376 2.29806 156.101 2.16548C155.826 2.02959 155.516 1.96165 155.171 1.96165C154.807 1.96165 154.489 2.03622 154.217 2.18537C153.945 2.33452 153.736 2.54498 153.59 2.81676C153.445 3.08854 153.372 3.40672 153.372 3.77131H151.905C151.905 3.15151 152.048 2.60961 152.333 2.1456C152.618 1.68158 153.009 1.32197 153.506 1.06676C154.003 0.808238 154.568 0.678977 155.201 0.678977C155.841 0.678977 156.404 0.806581 156.892 1.06179C157.382 1.31368 157.765 1.65838 158.04 2.09588C158.315 2.53007 158.453 3.0206 158.453 3.56747C158.453 3.94531 158.381 4.31487 158.239 4.67614C158.1 5.0374 157.856 5.4401 157.508 5.88423C157.16 6.32505 156.676 6.86032 156.056 7.49006L154.033 9.60795V9.68253H158.617V11H151.915Z" fill="black"/>
</svg>
