<svg width="86" height="12" viewBox="0 0 86 12" fill="none" xmlns="http://www.w3.org/2000/svg">
<path d="M0.118608 11V0.818182H1.60511V4.60156H1.6946C1.78078 4.44247 1.90507 4.25852 2.06747 4.04972C2.22988 3.84091 2.45526 3.65862 2.74361 3.50284C3.03196 3.34375 3.41312 3.2642 3.88707 3.2642C4.50355 3.2642 5.05374 3.41998 5.53764 3.73153C6.02154 4.04309 6.40104 4.49219 6.67614 5.07884C6.95455 5.66548 7.09375 6.37145 7.09375 7.19673C7.09375 8.02202 6.9562 8.72964 6.68111 9.3196C6.40601 9.90625 6.02817 10.3587 5.54759 10.6768C5.067 10.9917 4.51847 11.1491 3.90199 11.1491C3.43797 11.1491 3.05848 11.0713 2.76349 10.9155C2.47183 10.7597 2.24313 10.5774 2.07741 10.3686C1.9117 10.1598 1.78409 9.9742 1.6946 9.81179H1.57031V11H0.118608ZM1.57528 7.18182C1.57528 7.71875 1.65317 8.18939 1.80895 8.59375C1.96473 8.99811 2.1901 9.31463 2.48509 9.54332C2.78007 9.7687 3.14134 9.88139 3.56889 9.88139C4.01302 9.88139 4.38423 9.76373 4.68253 9.52841C4.98082 9.28977 5.2062 8.96662 5.35866 8.55895C5.51444 8.15128 5.59233 7.69223 5.59233 7.18182C5.59233 6.67803 5.5161 6.22562 5.36364 5.82457C5.21449 5.42353 4.98911 5.10701 4.6875 4.875C4.3892 4.64299 4.01634 4.52699 3.56889 4.52699C3.13802 4.52699 2.77344 4.63802 2.47514 4.86009C2.18016 5.08215 1.95644 5.39205 1.80398 5.78977C1.65152 6.1875 1.57528 6.65151 1.57528 7.18182ZM10.9853 11.169C10.5014 11.169 10.0639 11.0795 9.67276 10.9006C9.28166 10.7183 8.97177 10.4548 8.74308 10.1101C8.5177 9.76539 8.40501 9.3428 8.40501 8.84233C8.40501 8.41146 8.48787 8.05682 8.65359 7.77841C8.81931 7.5 9.04303 7.27959 9.32475 7.11719C9.60647 6.95478 9.92134 6.83215 10.2694 6.74929C10.6174 6.66643 10.972 6.60346 11.3333 6.56037C11.7907 6.50734 12.1619 6.46425 12.4469 6.43111C12.7319 6.39465 12.9391 6.33665 13.0684 6.2571C13.1976 6.17756 13.2623 6.0483 13.2623 5.86932V5.83452C13.2623 5.40033 13.1396 5.06392 12.8944 4.82528C12.6524 4.58665 12.2911 4.46733 11.8105 4.46733C11.3101 4.46733 10.9157 4.57836 10.6273 4.80043C10.3423 5.01918 10.1451 5.26278 10.0357 5.53125L8.63867 5.21307C8.80439 4.74905 9.04634 4.37453 9.36452 4.08949C9.68602 3.80114 10.0556 3.59233 10.4732 3.46307C10.8908 3.33049 11.33 3.2642 11.7907 3.2642C12.0956 3.2642 12.4187 3.30066 12.7601 3.37358C13.1048 3.44318 13.4263 3.57244 13.7246 3.76136C14.0262 3.95028 14.2731 4.22041 14.4654 4.57173C14.6576 4.91974 14.7537 5.37216 14.7537 5.92898V11H13.302V9.95597H13.2424C13.1462 10.1482 13.0021 10.3371 12.8098 10.5227C12.6176 10.7083 12.3707 10.8625 12.0691 10.9851C11.7675 11.1077 11.4062 11.169 10.9853 11.169ZM11.3084 9.97585C11.7194 9.97585 12.0707 9.89465 12.3624 9.73224C12.6574 9.56984 12.8811 9.35772 13.0336 9.09588C13.1893 8.83073 13.2672 8.54735 13.2672 8.24574V7.26136C13.2142 7.31439 13.1114 7.36411 12.959 7.41051C12.8098 7.4536 12.6391 7.49171 12.4469 7.52486C12.2547 7.55469 12.0674 7.58286 11.8851 7.60938C11.7028 7.63258 11.5504 7.65246 11.4277 7.66903C11.1394 7.70549 10.8759 7.76681 10.6373 7.85298C10.4019 7.93916 10.213 8.06345 10.0705 8.22585C9.93129 8.38494 9.86168 8.59706 9.86168 8.86222C9.86168 9.23011 9.99757 9.50852 10.2694 9.69744C10.5411 9.88305 10.8875 9.97585 11.3084 9.97585ZM16.7337 11V3.36364H18.1705V4.5767H18.25C18.3892 4.16572 18.6345 3.84257 18.9858 3.60724C19.3404 3.36861 19.7415 3.24929 20.1889 3.24929C20.2817 3.24929 20.3911 3.2526 20.517 3.25923C20.6463 3.26586 20.7474 3.27415 20.8203 3.28409V4.70597C20.7607 4.68939 20.6546 4.67116 20.5021 4.65128C20.3497 4.62808 20.1972 4.61648 20.0447 4.61648C19.6934 4.61648 19.3802 4.69105 19.1051 4.8402C18.8333 4.98603 18.6179 5.18987 18.4588 5.4517C18.2997 5.71023 18.2202 6.00521 18.2202 6.33665V11H16.7337ZM26.1548 6.05327V7.34091H21.6406V6.05327H26.1548ZM31.3526 11.1541C30.6135 11.1541 29.9772 10.9867 29.4435 10.652C28.9132 10.3139 28.5056 9.84825 28.2205 9.25497C27.9355 8.66169 27.793 7.98224 27.793 7.21662C27.793 6.44105 27.9388 5.75663 28.2305 5.16335C28.5221 4.56676 28.9331 4.10109 29.4634 3.76633C29.9937 3.43158 30.6185 3.2642 31.3377 3.2642C31.9177 3.2642 32.4348 3.37192 32.8888 3.58736C33.3429 3.79948 33.7092 4.09777 33.9876 4.48224C34.2693 4.86671 34.4367 5.31581 34.4897 5.82955H33.043C32.9634 5.47159 32.7811 5.16335 32.4961 4.90483C32.2144 4.64631 31.8365 4.51705 31.3626 4.51705C30.9483 4.51705 30.5853 4.62642 30.2738 4.84517C29.9656 5.06061 29.7253 5.36884 29.5529 5.76989C29.3806 6.16761 29.2944 6.63826 29.2944 7.18182C29.2944 7.73864 29.3789 8.21922 29.5479 8.62358C29.717 9.02794 29.9556 9.34115 30.2638 9.56321C30.5754 9.78527 30.9416 9.89631 31.3626 9.89631C31.6443 9.89631 31.8995 9.84493 32.1282 9.74219C32.3602 9.63613 32.5541 9.48532 32.7099 9.28977C32.869 9.09422 32.98 8.8589 33.043 8.58381H34.4897C34.4367 9.07765 34.2759 9.51847 34.0075 9.90625C33.739 10.294 33.3794 10.599 32.9286 10.821C32.4812 11.0431 31.9558 11.1541 31.3526 11.1541ZM37.5659 6.46591V11H36.0794V0.818182H37.546V4.60653H37.6404C37.8194 4.19555 38.0929 3.86908 38.4608 3.62713C38.8287 3.38518 39.3092 3.2642 39.9025 3.2642C40.4262 3.2642 40.8836 3.37192 41.2747 3.58736C41.6691 3.80279 41.974 4.12429 42.1895 4.55185C42.4082 4.97609 42.5176 5.50639 42.5176 6.14276V11H41.0311V6.32173C41.0311 5.7616 40.8869 5.32741 40.5985 5.01918C40.3102 4.70762 39.9092 4.55185 39.3954 4.55185C39.0441 4.55185 38.7292 4.62642 38.4508 4.77557C38.1757 4.92472 37.9586 5.14347 37.7995 5.43182C37.6438 5.71686 37.5659 6.06155 37.5659 6.46591ZM46.7235 11.169C46.2396 11.169 45.8021 11.0795 45.411 10.9006C45.0199 10.7183 44.71 10.4548 44.4814 10.1101C44.256 9.76539 44.1433 9.3428 44.1433 8.84233C44.1433 8.41146 44.2261 8.05682 44.3919 7.77841C44.5576 7.5 44.7813 7.27959 45.063 7.11719C45.3448 6.95478 45.6596 6.83215 46.0076 6.74929C46.3556 6.66643 46.7103 6.60346 47.0716 6.56037C47.5289 6.50734 47.9002 6.46425 48.1852 6.43111C48.4702 6.39465 48.6774 6.33665 48.8066 6.2571C48.9359 6.17756 49.0005 6.0483 49.0005 5.86932V5.83452C49.0005 5.40033 48.8779 5.06392 48.6326 4.82528C48.3907 4.58665 48.0294 4.46733 47.5488 4.46733C47.0484 4.46733 46.6539 4.57836 46.3656 4.80043C46.0806 5.01918 45.8833 5.26278 45.774 5.53125L44.377 5.21307C44.5427 4.74905 44.7846 4.37453 45.1028 4.08949C45.4243 3.80114 45.7939 3.59233 46.2115 3.46307C46.6291 3.33049 47.0682 3.2642 47.5289 3.2642C47.8339 3.2642 48.157 3.30066 48.4984 3.37358C48.8431 3.44318 49.1646 3.57244 49.4629 3.76136C49.7645 3.95028 50.0114 4.22041 50.2037 4.57173C50.3959 4.91974 50.492 5.37216 50.492 5.92898V11H49.0403V9.95597H48.9806C48.8845 10.1482 48.7404 10.3371 48.5481 10.5227C48.3559 10.7083 48.109 10.8625 47.8074 10.9851C47.5057 11.1077 47.1445 11.169 46.7235 11.169ZM47.0467 9.97585C47.4577 9.97585 47.809 9.89465 48.1007 9.73224C48.3957 9.56984 48.6194 9.35772 48.7718 9.09588C48.9276 8.83073 49.0055 8.54735 49.0055 8.24574V7.26136C48.9525 7.31439 48.8497 7.36411 48.6973 7.41051C48.5481 7.4536 48.3774 7.49171 48.1852 7.52486C47.993 7.55469 47.8057 7.58286 47.6234 7.60938C47.4411 7.63258 47.2886 7.65246 47.166 7.66903C46.8777 7.70549 46.6142 7.76681 46.3755 7.85298C46.1402 7.93916 45.9513 8.06345 45.8088 8.22585C45.6696 8.38494 45.6 8.59706 45.6 8.86222C45.6 9.23011 45.7359 9.50852 46.0076 9.69744C46.2794 9.88305 46.6258 9.97585 47.0467 9.97585ZM52.4719 11V3.36364H53.9087V4.5767H53.9883C54.1275 4.16572 54.3728 3.84257 54.7241 3.60724C55.0787 3.36861 55.4798 3.24929 55.9272 3.24929C56.02 3.24929 56.1294 3.2526 56.2553 3.25923C56.3846 3.26586 56.4857 3.27415 56.5586 3.28409V4.70597C56.4989 4.68939 56.3929 4.67116 56.2404 4.65128C56.0879 4.62808 55.9355 4.61648 55.783 4.61648C55.4317 4.61648 55.1185 4.69105 54.8434 4.8402C54.5716 4.98603 54.3562 5.18987 54.1971 5.4517C54.038 5.71023 53.9585 6.00521 53.9585 6.33665V11H52.4719ZM61.8608 3.36364V4.55682H57.6896V3.36364H61.8608ZM58.8082 1.53409H60.2947V8.75781C60.2947 9.04616 60.3378 9.26326 60.424 9.40909C60.5102 9.55161 60.6212 9.64938 60.7571 9.70241C60.8963 9.75213 61.0471 9.77699 61.2095 9.77699C61.3288 9.77699 61.4332 9.7687 61.5227 9.75213C61.6122 9.73556 61.6818 9.7223 61.7315 9.71236L62 10.9403C61.9138 10.9735 61.7912 11.0066 61.6321 11.0398C61.473 11.0762 61.2741 11.0961 61.0355 11.0994C60.6444 11.1061 60.2798 11.0365 59.9418 10.8906C59.6037 10.7448 59.3303 10.5194 59.1214 10.2145C58.9126 9.90956 58.8082 9.52675 58.8082 9.06605V1.53409ZM67.7447 6.05327V7.34091H63.2305V6.05327H67.7447ZM73.2507 11.169C72.4652 11.1657 71.794 10.9586 71.2372 10.5476C70.6804 10.1366 70.2545 9.53835 69.9595 8.75284C69.6645 7.96733 69.517 7.02107 69.517 5.91406C69.517 4.81037 69.6645 3.86742 69.9595 3.08523C70.2578 2.30303 70.6854 1.70644 71.2422 1.29545C71.8023 0.884469 72.4718 0.678977 73.2507 0.678977C74.0296 0.678977 74.6974 0.886126 75.2543 1.30043C75.8111 1.71141 76.237 2.308 76.532 3.0902C76.8303 3.86908 76.9794 4.81037 76.9794 5.91406C76.9794 7.02438 76.8319 7.9723 76.5369 8.75781C76.242 9.54001 75.8161 10.1383 75.2592 10.5526C74.7024 10.9635 74.0329 11.169 73.2507 11.169ZM73.2507 9.84162C73.9401 9.84162 74.4787 9.50521 74.8665 8.83239C75.2576 8.15956 75.4531 7.18679 75.4531 5.91406C75.4531 5.06889 75.3636 4.35464 75.1847 3.77131C75.009 3.18466 74.7554 2.74053 74.424 2.43892C74.0959 2.134 73.7048 1.98153 73.2507 1.98153C72.5646 1.98153 72.026 2.3196 71.6349 2.99574C71.2438 3.67187 71.0466 4.64465 71.0433 5.91406C71.0433 6.76255 71.1312 7.48011 71.3068 8.06676C71.4858 8.65009 71.7393 9.09257 72.0675 9.39418C72.3956 9.69247 72.79 9.84162 73.2507 9.84162ZM82.1834 11.1392C81.4708 11.1392 80.8411 11.0166 80.2942 10.7713C79.7507 10.526 79.3248 10.188 79.0165 9.7571C78.7083 9.32623 78.5558 8.8357 78.5591 8.28551C78.5558 7.85464 78.6436 7.45857 78.8226 7.0973C79.0049 6.73272 79.2518 6.42945 79.5634 6.1875C79.8749 5.94223 80.223 5.78646 80.6074 5.72017V5.66051C80.1003 5.53788 79.6943 5.2661 79.3894 4.84517C79.0845 4.42424 78.9337 3.94034 78.937 3.39347C78.9337 2.87311 79.0712 2.40909 79.3496 2.00142C79.6313 1.59044 80.0175 1.26728 80.508 1.03196C80.9985 0.796638 81.557 0.678977 82.1834 0.678977C82.8032 0.678977 83.3567 0.798295 83.8439 1.03693C84.3345 1.27225 84.7206 1.59541 85.0023 2.00639C85.284 2.41406 85.4266 2.87642 85.4299 3.39347C85.4266 3.94034 85.2708 4.42424 84.9625 4.84517C84.6543 5.2661 84.2533 5.53788 83.7594 5.66051V5.72017C84.1406 5.78646 84.4836 5.94223 84.7885 6.1875C85.0968 6.42945 85.342 6.73272 85.5243 7.0973C85.7099 7.45857 85.8044 7.85464 85.8077 8.28551C85.8044 8.8357 85.6486 9.32623 85.3404 9.7571C85.0321 10.188 84.6046 10.526 84.0577 10.7713C83.5141 11.0166 82.8894 11.1392 82.1834 11.1392ZM82.1834 9.88139C82.6043 9.88139 82.9689 9.81179 83.2772 9.67259C83.5854 9.53007 83.824 9.33286 83.9931 9.08097C84.1621 8.82576 84.2483 8.52746 84.2516 8.18608C84.2483 7.83144 84.1555 7.51823 83.9732 7.24645C83.7942 6.97467 83.5506 6.76089 83.2424 6.60511C82.9341 6.44934 82.5811 6.37145 82.1834 6.37145C81.7824 6.37145 81.4261 6.44934 81.1145 6.60511C80.803 6.76089 80.5577 6.97467 80.3787 7.24645C80.1998 7.51823 80.1119 7.83144 80.1152 8.18608C80.1119 8.52746 80.1931 8.82576 80.3588 9.08097C80.5279 9.33286 80.7682 9.53007 81.0797 9.67259C81.3913 9.81179 81.7592 9.88139 82.1834 9.88139ZM82.1834 5.14347C82.5215 5.14347 82.8214 5.07552 83.0833 4.93963C83.3451 4.80374 83.5506 4.61482 83.6998 4.37287C83.8522 4.13092 83.9301 3.84754 83.9334 3.52273C83.9301 3.20455 83.8539 2.92614 83.7047 2.6875C83.5589 2.44886 83.3551 2.26491 83.0932 2.13565C82.8314 2.00308 82.5281 1.93679 82.1834 1.93679C81.8321 1.93679 81.5239 2.00308 81.2587 2.13565C80.9969 2.26491 80.793 2.44886 80.6472 2.6875C80.5014 2.92614 80.4301 3.20455 80.4334 3.52273C80.4301 3.84754 80.503 4.13092 80.6522 4.37287C80.8013 4.61482 81.0068 4.80374 81.2686 4.93963C81.5338 5.07552 81.8387 5.14347 82.1834 5.14347Z" fill="black"/>
</svg>
