<svg width="85" height="14" viewBox="0 0 85 14" fill="none" xmlns="http://www.w3.org/2000/svg">
<path d="M-0.000710189 13.8636V3.36364H1.45099V4.60156H1.57528C1.66146 4.44247 1.78575 4.25852 1.94815 4.04972C2.11056 3.84091 2.33594 3.65862 2.62429 3.50284C2.91264 3.34375 3.2938 3.2642 3.76776 3.2642C4.38423 3.2642 4.93442 3.41998 5.41832 3.73153C5.90223 4.04309 6.28172 4.49219 6.55682 5.07884C6.83523 5.66548 6.97443 6.37145 6.97443 7.19673C6.97443 8.02202 6.83688 8.72964 6.56179 9.3196C6.2867 9.90625 5.90885 10.3587 5.42827 10.6768C4.94768 10.9917 4.39915 11.1491 3.78267 11.1491C3.31866 11.1491 2.93916 11.0713 2.64418 10.9155C2.35251 10.7597 2.12382 10.5774 1.9581 10.3686C1.79238 10.1598 1.66477 9.9742 1.57528 9.81179H1.4858V13.8636H-0.000710189ZM1.45597 7.18182C1.45597 7.71875 1.53385 8.18939 1.68963 8.59375C1.84541 8.99811 2.07079 9.31463 2.36577 9.54332C2.66075 9.7687 3.02202 9.88139 3.44957 9.88139C3.8937 9.88139 4.26491 9.76373 4.56321 9.52841C4.86151 9.28977 5.08688 8.96662 5.23935 8.55895C5.39512 8.15128 5.47301 7.69223 5.47301 7.18182C5.47301 6.67803 5.39678 6.22562 5.24432 5.82457C5.09517 5.42353 4.86979 5.10701 4.56818 4.875C4.26989 4.64299 3.89702 4.52699 3.44957 4.52699C3.0187 4.52699 2.65412 4.63802 2.35582 4.86009C2.06084 5.08215 1.83712 5.39205 1.68466 5.78977C1.5322 6.1875 1.45597 6.65151 1.45597 7.18182ZM8.63991 11V3.36364H10.1264V11H8.63991ZM9.39062 2.18537C9.1321 2.18537 8.91004 2.09919 8.72443 1.92685C8.54214 1.75118 8.45099 1.54238 8.45099 1.30043C8.45099 1.05516 8.54214 0.846354 8.72443 0.674005C8.91004 0.498342 9.1321 0.410511 9.39062 0.410511C9.64915 0.410511 9.86956 0.498342 10.0518 0.674005C10.2375 0.846354 10.3303 1.05516 10.3303 1.30043C10.3303 1.54238 10.2375 1.75118 10.0518 1.92685C9.86956 2.09919 9.64915 2.18537 9.39062 2.18537ZM15.4174 11.1541C14.6651 11.1541 14.0171 10.9934 13.4735 10.6719C12.9333 10.3471 12.5157 9.89134 12.2207 9.30469C11.929 8.71473 11.7832 8.02367 11.7832 7.23153C11.7832 6.44934 11.929 5.75994 12.2207 5.16335C12.5157 4.56676 12.9267 4.10109 13.4537 3.76633C13.984 3.43158 14.6038 3.2642 15.313 3.2642C15.7439 3.2642 16.1615 3.33546 16.5659 3.47798C16.9702 3.6205 17.3332 3.84422 17.6547 4.14915C17.9761 4.45407 18.2297 4.85014 18.4153 5.33736C18.6009 5.82126 18.6937 6.40956 18.6937 7.10227V7.62926H12.6234V6.51562H17.237C17.237 6.12453 17.1575 5.77817 16.9984 5.47656C16.8393 5.17164 16.6156 4.93134 16.3272 4.75568C16.0422 4.58002 15.7074 4.49219 15.323 4.49219C14.9054 4.49219 14.5408 4.59493 14.2292 4.80043C13.921 5.0026 13.6824 5.26776 13.5133 5.59588C13.3476 5.92069 13.2647 6.27367 13.2647 6.65483V7.52486C13.2647 8.03527 13.3542 8.46946 13.5332 8.82741C13.7155 9.18537 13.969 9.45881 14.2939 9.64773C14.6187 9.83333 14.9982 9.92614 15.4324 9.92614C15.7141 9.92614 15.9709 9.88636 16.2029 9.80682C16.435 9.72396 16.6355 9.60133 16.8045 9.43892C16.9735 9.27652 17.1028 9.07599 17.1923 8.83736L18.5993 9.09091C18.4866 9.50521 18.2844 9.86813 17.9927 10.1797C17.7044 10.4879 17.3414 10.7282 16.9039 10.9006C16.4698 11.0696 15.9743 11.1541 15.4174 11.1541ZM24.8423 6.05327V7.34091H20.3281V6.05327H24.8423ZM30.0401 11.1541C29.301 11.1541 28.6647 10.9867 28.131 10.652C27.6007 10.3139 27.1931 9.84825 26.908 9.25497C26.623 8.66169 26.4805 7.98224 26.4805 7.21662C26.4805 6.44105 26.6263 5.75663 26.918 5.16335C27.2096 4.56676 27.6206 4.10109 28.1509 3.76633C28.6812 3.43158 29.306 3.2642 30.0252 3.2642C30.6052 3.2642 31.1223 3.37192 31.5763 3.58736C32.0304 3.79948 32.3967 4.09777 32.6751 4.48224C32.9568 4.86671 33.1242 5.31581 33.1772 5.82955H31.7305C31.6509 5.47159 31.4686 5.16335 31.1836 4.90483C30.9019 4.64631 30.524 4.51705 30.0501 4.51705C29.6358 4.51705 29.2728 4.62642 28.9613 4.84517C28.6531 5.06061 28.4128 5.36884 28.2404 5.76989C28.0681 6.16761 27.9819 6.63826 27.9819 7.18182C27.9819 7.73864 28.0664 8.21922 28.2354 8.62358C28.4045 9.02794 28.6431 9.34115 28.9513 9.56321C29.2629 9.78527 29.6291 9.89631 30.0501 9.89631C30.3318 9.89631 30.587 9.84493 30.8157 9.74219C31.0477 9.63613 31.2416 9.48532 31.3974 9.28977C31.5565 9.09422 31.6675 8.8589 31.7305 8.58381H33.1772C33.1242 9.07765 32.9634 9.51847 32.695 9.90625C32.4265 10.294 32.0669 10.599 31.6161 10.821C31.1687 11.0431 30.6433 11.1541 30.0401 11.1541ZM36.2534 6.46591V11H34.7669V0.818182H36.2335V4.60653H36.3279C36.5069 4.19555 36.7804 3.86908 37.1483 3.62713C37.5162 3.38518 37.9967 3.2642 38.59 3.2642C39.1137 3.2642 39.5711 3.37192 39.9622 3.58736C40.3566 3.80279 40.6615 4.12429 40.877 4.55185C41.0957 4.97609 41.2051 5.50639 41.2051 6.14276V11H39.7186V6.32173C39.7186 5.7616 39.5744 5.32741 39.286 5.01918C38.9977 4.70762 38.5967 4.55185 38.0829 4.55185C37.7316 4.55185 37.4167 4.62642 37.1383 4.77557C36.8632 4.92472 36.6461 5.14347 36.487 5.43182C36.3313 5.71686 36.2534 6.06155 36.2534 6.46591ZM45.411 11.169C44.9271 11.169 44.4896 11.0795 44.0985 10.9006C43.7074 10.7183 43.3975 10.4548 43.1689 10.1101C42.9435 9.76539 42.8308 9.3428 42.8308 8.84233C42.8308 8.41146 42.9136 8.05682 43.0794 7.77841C43.2451 7.5 43.4688 7.27959 43.7505 7.11719C44.0323 6.95478 44.3471 6.83215 44.6951 6.74929C45.0431 6.66643 45.3978 6.60346 45.7591 6.56037C46.2164 6.50734 46.5877 6.46425 46.8727 6.43111C47.1577 6.39465 47.3649 6.33665 47.4941 6.2571C47.6234 6.17756 47.688 6.0483 47.688 5.86932V5.83452C47.688 5.40033 47.5654 5.06392 47.3201 4.82528C47.0782 4.58665 46.7169 4.46733 46.2363 4.46733C45.7359 4.46733 45.3414 4.57836 45.0531 4.80043C44.7681 5.01918 44.5708 5.26278 44.4615 5.53125L43.0645 5.21307C43.2302 4.74905 43.4721 4.37453 43.7903 4.08949C44.1118 3.80114 44.4814 3.59233 44.899 3.46307C45.3166 3.33049 45.7557 3.2642 46.2164 3.2642C46.5214 3.2642 46.8445 3.30066 47.1859 3.37358C47.5306 3.44318 47.8521 3.57244 48.1504 3.76136C48.452 3.95028 48.6989 4.22041 48.8912 4.57173C49.0834 4.91974 49.1795 5.37216 49.1795 5.92898V11H47.7278V9.95597H47.6681C47.572 10.1482 47.4279 10.3371 47.2356 10.5227C47.0434 10.7083 46.7965 10.8625 46.4949 10.9851C46.1932 11.1077 45.832 11.169 45.411 11.169ZM45.7342 9.97585C46.1452 9.97585 46.4965 9.89465 46.7882 9.73224C47.0832 9.56984 47.3069 9.35772 47.4593 9.09588C47.6151 8.83073 47.693 8.54735 47.693 8.24574V7.26136C47.64 7.31439 47.5372 7.36411 47.3848 7.41051C47.2356 7.4536 47.0649 7.49171 46.8727 7.52486C46.6805 7.55469 46.4932 7.58286 46.3109 7.60938C46.1286 7.63258 45.9761 7.65246 45.8535 7.66903C45.5652 7.70549 45.3017 7.76681 45.063 7.85298C44.8277 7.93916 44.6388 8.06345 44.4963 8.22585C44.3571 8.38494 44.2875 8.59706 44.2875 8.86222C44.2875 9.23011 44.4234 9.50852 44.6951 9.69744C44.9669 9.88305 45.3133 9.97585 45.7342 9.97585ZM51.1594 11V3.36364H52.5962V4.5767H52.6758C52.815 4.16572 53.0603 3.84257 53.4116 3.60724C53.7662 3.36861 54.1673 3.24929 54.6147 3.24929C54.7075 3.24929 54.8169 3.2526 54.9428 3.25923C55.0721 3.26586 55.1732 3.27415 55.2461 3.28409V4.70597C55.1864 4.68939 55.0804 4.67116 54.9279 4.65128C54.7754 4.62808 54.623 4.61648 54.4705 4.61648C54.1192 4.61648 53.806 4.69105 53.5309 4.8402C53.2591 4.98603 53.0437 5.18987 52.8846 5.4517C52.7255 5.71023 52.646 6.00521 52.646 6.33665V11H51.1594ZM60.5483 3.36364V4.55682H56.3771V3.36364H60.5483ZM57.4957 1.53409H58.9822V8.75781C58.9822 9.04616 59.0253 9.26326 59.1115 9.40909C59.1977 9.55161 59.3087 9.64938 59.4446 9.70241C59.5838 9.75213 59.7346 9.77699 59.897 9.77699C60.0163 9.77699 60.1207 9.7687 60.2102 9.75213C60.2997 9.73556 60.3693 9.7223 60.419 9.71236L60.6875 10.9403C60.6013 10.9735 60.4787 11.0066 60.3196 11.0398C60.1605 11.0762 59.9616 11.0961 59.723 11.0994C59.3319 11.1061 58.9673 11.0365 58.6293 10.8906C58.2912 10.7448 58.0178 10.5194 57.8089 10.2145C57.6001 9.90956 57.4957 9.52675 57.4957 9.06605V1.53409ZM66.4322 6.05327V7.34091H61.918V6.05327H66.4322ZM71.9382 11.169C71.1527 11.1657 70.4815 10.9586 69.9247 10.5476C69.3679 10.1366 68.942 9.53835 68.647 8.75284C68.352 7.96733 68.2045 7.02107 68.2045 5.91406C68.2045 4.81037 68.352 3.86742 68.647 3.08523C68.9453 2.30303 69.3729 1.70644 69.9297 1.29545C70.4898 0.884469 71.1593 0.678977 71.9382 0.678977C72.7171 0.678977 73.3849 0.886126 73.9418 1.30043C74.4986 1.71141 74.9245 2.308 75.2195 3.0902C75.5178 3.86908 75.6669 4.81037 75.6669 5.91406C75.6669 7.02438 75.5194 7.9723 75.2244 8.75781C74.9295 9.54001 74.5036 10.1383 73.9467 10.5526C73.3899 10.9635 72.7204 11.169 71.9382 11.169ZM71.9382 9.84162C72.6276 9.84162 73.1662 9.50521 73.554 8.83239C73.9451 8.15956 74.1406 7.18679 74.1406 5.91406C74.1406 5.06889 74.0511 4.35464 73.8722 3.77131C73.6965 3.18466 73.4429 2.74053 73.1115 2.43892C72.7834 2.134 72.3923 1.98153 71.9382 1.98153C71.2521 1.98153 70.7135 2.3196 70.3224 2.99574C69.9313 3.67187 69.7341 4.64465 69.7308 5.91406C69.7308 6.76255 69.8187 7.48011 69.9943 8.06676C70.1733 8.65009 70.4268 9.09257 70.755 9.39418C71.0831 9.69247 71.4775 9.84162 71.9382 9.84162ZM80.9753 11.1392C80.2926 11.1392 79.6827 11.0215 79.1458 10.7862C78.6122 10.5509 78.1896 10.2244 77.878 9.80682C77.5698 9.38589 77.4041 8.89867 77.3809 8.34517H78.9419C78.9618 8.64678 79.0629 8.90862 79.2452 9.13068C79.4308 9.34943 79.6728 9.51847 79.9711 9.63778C80.2694 9.7571 80.6008 9.81676 80.9654 9.81676C81.3664 9.81676 81.7211 9.74716 82.0293 9.60795C82.3408 9.46875 82.5845 9.27486 82.7601 9.02628C82.9358 8.77438 83.0236 8.48438 83.0236 8.15625C83.0236 7.81487 82.9358 7.51491 82.7601 7.25639C82.5878 6.99455 82.3342 6.78906 81.9995 6.63991C81.668 6.49077 81.267 6.41619 80.7963 6.41619H79.9363V5.16335H80.7963C81.1742 5.16335 81.5056 5.09541 81.7907 4.95952C82.079 4.82363 82.3044 4.63471 82.4668 4.39276C82.6292 4.14749 82.7104 3.8608 82.7104 3.53267C82.7104 3.2178 82.6391 2.94437 82.4966 2.71236C82.3574 2.47704 82.1586 2.29309 81.9 2.16051C81.6448 2.02794 81.3432 1.96165 80.9952 1.96165C80.6638 1.96165 80.3539 2.02296 80.0655 2.1456C79.7805 2.26491 79.5485 2.43726 79.3695 2.66264C79.1905 2.88471 79.0944 3.15151 79.0811 3.46307H77.5946C77.6112 2.91288 77.7736 2.42898 78.0819 2.01136C78.3934 1.59375 78.8044 1.26728 79.3148 1.03196C79.8252 0.796638 80.392 0.678977 81.0151 0.678977C81.668 0.678977 82.2315 0.806581 82.7054 1.06179C83.1827 1.31368 83.5506 1.65009 83.8091 2.07102C84.071 2.49195 84.2002 2.95265 84.1969 3.45312C84.2002 4.0232 84.0411 4.5071 83.7196 4.90483C83.4015 5.30256 82.9772 5.56937 82.4469 5.70526V5.7848C83.123 5.88755 83.6467 6.15601 84.0179 6.5902C84.3925 7.02438 84.5781 7.56297 84.5748 8.20597C84.5781 8.7661 84.4223 9.26823 84.1074 9.71236C83.7959 10.1565 83.37 10.5062 82.8297 10.7614C82.2895 11.0133 81.6713 11.1392 80.9753 11.1392Z" fill="black"/>
</svg>
