<svg width="77" height="14" viewBox="0 0 77 14" fill="none" xmlns="http://www.w3.org/2000/svg">
<path d="M6.72159 5.22798L5.37429 5.46662C5.31795 5.29427 5.22846 5.13021 5.10582 4.97443C4.98651 4.81865 4.8241 4.69105 4.61861 4.59162C4.41312 4.49219 4.15625 4.44247 3.84801 4.44247C3.42708 4.44247 3.07576 4.53693 2.79403 4.72585C2.51231 4.91146 2.37145 5.15175 2.37145 5.44673C2.37145 5.70194 2.46591 5.90743 2.65483 6.06321C2.84375 6.21899 3.14867 6.34659 3.5696 6.44602L4.78267 6.72443C5.48532 6.88684 6.009 7.13707 6.35369 7.47514C6.69839 7.81321 6.87074 8.25237 6.87074 8.79261C6.87074 9.25 6.73816 9.65767 6.47301 10.0156C6.21117 10.3703 5.84493 10.6487 5.37429 10.8509C4.90696 11.053 4.36506 11.1541 3.74858 11.1541C2.89347 11.1541 2.19579 10.9718 1.65554 10.6072C1.11529 10.2393 0.783854 9.71733 0.661222 9.04119L2.09801 8.82244C2.1875 9.19697 2.37145 9.48035 2.64986 9.67259C2.92827 9.86151 3.29119 9.95597 3.73864 9.95597C4.22585 9.95597 4.61529 9.85488 4.90696 9.6527C5.19863 9.44721 5.34446 9.19697 5.34446 8.90199C5.34446 8.66335 5.25497 8.46283 5.07599 8.30043C4.90033 8.13802 4.63021 8.01539 4.26562 7.93253L2.97301 7.64915C2.26042 7.48674 1.73343 7.22822 1.39205 6.87358C1.05398 6.51894 0.884943 6.06984 0.884943 5.52628C0.884943 5.07552 1.01089 4.68111 1.26278 4.34304C1.51468 4.00497 1.86269 3.74148 2.30682 3.55256C2.75095 3.36032 3.25971 3.2642 3.8331 3.2642C4.65838 3.2642 5.308 3.44318 5.78196 3.80114C6.25592 4.15578 6.56913 4.63139 6.72159 5.22798ZM8.50515 13.8636V3.36364H9.95685V4.60156H10.0811C10.1673 4.44247 10.2916 4.25852 10.454 4.04972C10.6164 3.84091 10.8418 3.65862 11.1301 3.50284C11.4185 3.34375 11.7997 3.2642 12.2736 3.2642C12.8901 3.2642 13.4403 3.41998 13.9242 3.73153C14.4081 4.04309 14.7876 4.49219 15.0627 5.07884C15.3411 5.66548 15.4803 6.37145 15.4803 7.19673C15.4803 8.02202 15.3427 8.72964 15.0676 9.3196C14.7926 9.90625 14.4147 10.3587 13.9341 10.6768C13.4535 10.9917 12.905 11.1491 12.2885 11.1491C11.8245 11.1491 11.445 11.0713 11.15 10.9155C10.8584 10.7597 10.6297 10.5774 10.464 10.3686C10.2982 10.1598 10.1706 9.9742 10.0811 9.81179H9.99165V13.8636H8.50515ZM9.96183 7.18182C9.96183 7.71875 10.0397 8.18939 10.1955 8.59375C10.3513 8.99811 10.5766 9.31463 10.8716 9.54332C11.1666 9.7687 11.5279 9.88139 11.9554 9.88139C12.3996 9.88139 12.7708 9.76373 13.0691 9.52841C13.3674 9.28977 13.5927 8.96662 13.7452 8.55895C13.901 8.15128 13.9789 7.69223 13.9789 7.18182C13.9789 6.67803 13.9026 6.22562 13.7502 5.82457C13.601 5.42353 13.3757 5.10701 13.074 4.875C12.7757 4.64299 12.4029 4.52699 11.9554 4.52699C11.5246 4.52699 11.16 4.63802 10.8617 4.86009C10.5667 5.08215 10.343 5.39205 10.1905 5.78977C10.0381 6.1875 9.96183 6.65151 9.96183 7.18182ZM20.437 11.1541C19.6846 11.1541 19.0366 10.9934 18.4931 10.6719C17.9528 10.3471 17.5352 9.89134 17.2402 9.30469C16.9486 8.71473 16.8027 8.02367 16.8027 7.23153C16.8027 6.44934 16.9486 5.75994 17.2402 5.16335C17.5352 4.56676 17.9462 4.10109 18.4732 3.76633C19.0035 3.43158 19.6233 3.2642 20.3326 3.2642C20.7634 3.2642 21.181 3.33546 21.5854 3.47798C21.9898 3.6205 22.3527 3.84422 22.6742 4.14915C22.9957 4.45407 23.2492 4.85014 23.4348 5.33736C23.6204 5.82126 23.7132 6.40956 23.7132 7.10227V7.62926H17.6429V6.51562H22.2566C22.2566 6.12453 22.177 5.77817 22.0179 5.47656C21.8588 5.17164 21.6351 4.93134 21.3468 4.75568C21.0617 4.58002 20.727 4.49219 20.3425 4.49219C19.9249 4.49219 19.5603 4.59493 19.2488 4.80043C18.9405 5.0026 18.7019 5.26776 18.5328 5.59588C18.3671 5.92069 18.2843 6.27367 18.2843 6.65483V7.52486C18.2843 8.03527 18.3738 8.46946 18.5527 8.82741C18.735 9.18537 18.9886 9.45881 19.3134 9.64773C19.6382 9.83333 20.0177 9.92614 20.4519 9.92614C20.7336 9.92614 20.9905 9.88636 21.2225 9.80682C21.4545 9.72396 21.655 9.60133 21.824 9.43892C21.9931 9.27652 22.1223 9.07599 22.2118 8.83736L23.6188 9.09091C23.5061 9.50521 23.3039 9.86813 23.0123 10.1797C22.7239 10.4879 22.361 10.7282 21.9235 10.9006C21.4893 11.0696 20.9938 11.1541 20.437 11.1541ZM27.5849 11.169C27.101 11.169 26.6635 11.0795 26.2724 10.9006C25.8813 10.7183 25.5714 10.4548 25.3427 10.1101C25.1173 9.76539 25.0046 9.3428 25.0046 8.84233C25.0046 8.41146 25.0875 8.05682 25.2532 7.77841C25.4189 7.5 25.6426 7.27959 25.9244 7.11719C26.2061 6.95478 26.521 6.83215 26.869 6.74929C27.217 6.66643 27.5716 6.60346 27.9329 6.56037C28.3903 6.50734 28.7615 6.46425 29.0465 6.43111C29.3316 6.39465 29.5387 6.33665 29.668 6.2571C29.7972 6.17756 29.8619 6.0483 29.8619 5.86932V5.83452C29.8619 5.40033 29.7392 5.06392 29.494 4.82528C29.252 4.58665 28.8907 4.46733 28.4102 4.46733C27.9097 4.46733 27.5153 4.57836 27.2269 4.80043C26.9419 5.01918 26.7447 5.26278 26.6353 5.53125L25.2383 5.21307C25.404 4.74905 25.646 4.37453 25.9641 4.08949C26.2856 3.80114 26.6552 3.59233 27.0728 3.46307C27.4904 3.33049 27.9296 3.2642 28.3903 3.2642C28.6952 3.2642 29.0183 3.30066 29.3597 3.37358C29.7044 3.44318 30.0259 3.57244 30.3242 3.76136C30.6258 3.95028 30.8728 4.22041 31.065 4.57173C31.2572 4.91974 31.3533 5.37216 31.3533 5.92898V11H29.9016V9.95597H29.842C29.7459 10.1482 29.6017 10.3371 29.4094 10.5227C29.2172 10.7083 28.9703 10.8625 28.6687 10.9851C28.3671 11.1077 28.0058 11.169 27.5849 11.169ZM27.908 9.97585C28.319 9.97585 28.6703 9.89465 28.962 9.73224C29.257 9.56984 29.4807 9.35772 29.6332 9.09588C29.7889 8.83073 29.8668 8.54735 29.8668 8.24574V7.26136C29.8138 7.31439 29.7111 7.36411 29.5586 7.41051C29.4094 7.4536 29.2388 7.49171 29.0465 7.52486C28.8543 7.55469 28.667 7.58286 28.4847 7.60938C28.3024 7.63258 28.15 7.65246 28.0273 7.66903C27.739 7.70549 27.4755 7.76681 27.2369 7.85298C27.0015 7.93916 26.8126 8.06345 26.6701 8.22585C26.5309 8.38494 26.4613 8.59706 26.4613 8.86222C26.4613 9.23011 26.5972 9.50852 26.869 9.69744C27.1407 9.88305 27.4871 9.97585 27.908 9.97585ZM34.7005 8.4098L34.6905 6.59517H34.949L37.9917 3.36364H39.7715L36.3013 7.04261H36.0676L34.7005 8.4098ZM33.3333 11V0.818182H34.8198V11H33.3333ZM38.1557 11L35.4213 7.37074L36.4455 6.33168L39.9803 11H38.1557ZM44.103 11.1541C43.3506 11.1541 42.7027 10.9934 42.1591 10.6719C41.6188 10.3471 41.2012 9.89134 40.9062 9.30469C40.6146 8.71473 40.4688 8.02367 40.4688 7.23153C40.4688 6.44934 40.6146 5.75994 40.9062 5.16335C41.2012 4.56676 41.6122 4.10109 42.1392 3.76633C42.6695 3.43158 43.2893 3.2642 43.9986 3.2642C44.4295 3.2642 44.8471 3.33546 45.2514 3.47798C45.6558 3.6205 46.0187 3.84422 46.3402 4.14915C46.6617 4.45407 46.9152 4.85014 47.1009 5.33736C47.2865 5.82126 47.3793 6.40956 47.3793 7.10227V7.62926H41.3089V6.51562H45.9226C45.9226 6.12453 45.843 5.77817 45.6839 5.47656C45.5249 5.17164 45.3011 4.93134 45.0128 4.75568C44.7277 4.58002 44.393 4.49219 44.0085 4.49219C43.5909 4.49219 43.2263 4.59493 42.9148 4.80043C42.6065 5.0026 42.3679 5.26776 42.1989 5.59588C42.0331 5.92069 41.9503 6.27367 41.9503 6.65483V7.52486C41.9503 8.03527 42.0398 8.46946 42.2188 8.82741C42.401 9.18537 42.6546 9.45881 42.9794 9.64773C43.3042 9.83333 43.6837 9.92614 44.1179 9.92614C44.3996 9.92614 44.6565 9.88636 44.8885 9.80682C45.1205 9.72396 45.321 9.60133 45.4901 9.43892C45.6591 9.27652 45.7884 9.07599 45.8778 8.83736L47.2848 9.09091C47.1721 9.50521 46.9699 9.86813 46.6783 10.1797C46.3899 10.4879 46.027 10.7282 45.5895 10.9006C45.1553 11.0696 44.6598 11.1541 44.103 11.1541ZM49.0286 11V3.36364H50.4654V4.5767H50.5449C50.6841 4.16572 50.9294 3.84257 51.2807 3.60724C51.6354 3.36861 52.0364 3.24929 52.4838 3.24929C52.5766 3.24929 52.686 3.2526 52.812 3.25923C52.9412 3.26586 53.0423 3.27415 53.1152 3.28409V4.70597C53.0556 4.68939 52.9495 4.67116 52.7971 4.65128C52.6446 4.62808 52.4921 4.61648 52.3397 4.61648C51.9883 4.61648 51.6751 4.69105 51.4 4.8402C51.1283 4.98603 50.9128 5.18987 50.7537 5.4517C50.5946 5.71023 50.5151 6.00521 50.5151 6.33665V11H49.0286ZM58.4498 6.05327V7.34091H53.9355V6.05327H58.4498ZM63.9558 11.169C63.1703 11.1657 62.4991 10.9586 61.9423 10.5476C61.3855 10.1366 60.9596 9.53835 60.6646 8.75284C60.3696 7.96733 60.2221 7.02107 60.2221 5.91406C60.2221 4.81037 60.3696 3.86742 60.6646 3.08523C60.9629 2.30303 61.3904 1.70644 61.9473 1.29545C62.5074 0.884469 63.1769 0.678977 63.9558 0.678977C64.7347 0.678977 65.4025 0.886126 65.9593 1.30043C66.5162 1.71141 66.9421 2.308 67.237 3.0902C67.5353 3.86908 67.6845 4.81037 67.6845 5.91406C67.6845 7.02438 67.537 7.9723 67.242 8.75781C66.947 9.54001 66.5211 10.1383 65.9643 10.5526C65.4075 10.9635 64.738 11.169 63.9558 11.169ZM63.9558 9.84162C64.6452 9.84162 65.1838 9.50521 65.5716 8.83239C65.9627 8.15956 66.1582 7.18679 66.1582 5.91406C66.1582 5.06889 66.0687 4.35464 65.8897 3.77131C65.7141 3.18466 65.4605 2.74053 65.1291 2.43892C64.801 2.134 64.4099 1.98153 63.9558 1.98153C63.2697 1.98153 62.7311 2.3196 62.34 2.99574C61.9489 3.67187 61.7517 4.64465 61.7484 5.91406C61.7484 6.76255 61.8362 7.48011 62.0119 8.06676C62.1909 8.65009 62.4444 9.09257 62.7725 9.39418C63.1007 9.69247 63.4951 9.84162 63.9558 9.84162ZM69.4482 11V9.88636L72.8935 6.31676C73.2614 5.92898 73.5646 5.58925 73.8033 5.29759C74.0452 5.0026 74.2259 4.72254 74.3452 4.45739C74.4645 4.19223 74.5241 3.91051 74.5241 3.61222C74.5241 3.27415 74.4446 2.98248 74.2855 2.73722C74.1264 2.48864 73.9093 2.29806 73.6342 2.16548C73.3591 2.02959 73.0492 1.96165 72.7045 1.96165C72.34 1.96165 72.0218 2.03622 71.75 2.18537C71.4782 2.33452 71.2694 2.54498 71.1236 2.81676C70.9777 3.08854 70.9048 3.40672 70.9048 3.77131H69.4382C69.4382 3.15151 69.5807 2.60961 69.8658 2.1456C70.1508 1.68158 70.5419 1.32197 71.0391 1.06676C71.5362 0.808238 72.1013 0.678977 72.7344 0.678977C73.3741 0.678977 73.9375 0.806581 74.4247 1.06179C74.9152 1.31368 75.2981 1.65838 75.5732 2.09588C75.8482 2.53007 75.9858 3.0206 75.9858 3.56747C75.9858 3.94531 75.9145 4.31487 75.772 4.67614C75.6328 5.0374 75.3892 5.4401 75.0412 5.88423C74.6932 6.32505 74.2093 6.86032 73.5895 7.49006L71.5661 9.60795V9.68253H76.1499V11H69.4482Z" fill="black"/>
</svg>
