<svg width="55" height="14" viewBox="0 0 55 14" fill="none" xmlns="http://www.w3.org/2000/svg">
<path d="M1.93892 13.8636C1.71686 13.8636 1.51468 13.8454 1.33239 13.8089C1.15009 13.7758 1.0142 13.7393 0.924716 13.6996L1.28267 12.4815C1.55445 12.5545 1.7964 12.5859 2.00852 12.576C2.22064 12.5661 2.40791 12.4865 2.57031 12.3374C2.73603 12.1882 2.88187 11.9446 3.00781 11.6065L3.19176 11.0994L0.397727 3.36364H1.98864L3.92259 9.28977H4.00213L5.93608 3.36364H7.53196L4.38494 12.0192C4.23911 12.4169 4.0535 12.7533 3.82812 13.0284C3.60275 13.3068 3.33428 13.5156 3.02273 13.6548C2.71117 13.794 2.34991 13.8636 1.93892 13.8636ZM11.8858 11.1541C11.1699 11.1541 10.5452 10.9901 10.0115 10.6619C9.47792 10.3338 9.06362 9.87476 8.76864 9.2848C8.47366 8.69484 8.32617 8.00544 8.32617 7.21662C8.32617 6.42448 8.47366 5.73177 8.76864 5.13849C9.06362 4.54522 9.47792 4.08452 10.0115 3.75639C10.5452 3.42827 11.1699 3.2642 11.8858 3.2642C12.6017 3.2642 13.2265 3.42827 13.7601 3.75639C14.2937 4.08452 14.708 4.54522 15.003 5.13849C15.298 5.73177 15.4455 6.42448 15.4455 7.21662C15.4455 8.00544 15.298 8.69484 15.003 9.2848C14.708 9.87476 14.2937 10.3338 13.7601 10.6619C13.2265 10.9901 12.6017 11.1541 11.8858 11.1541ZM11.8908 9.90625C12.3548 9.90625 12.7393 9.78362 13.0442 9.53835C13.3491 9.29309 13.5745 8.96662 13.7203 8.55895C13.8695 8.15128 13.9441 7.70218 13.9441 7.21165C13.9441 6.72443 13.8695 6.27699 13.7203 5.86932C13.5745 5.45833 13.3491 5.12855 13.0442 4.87997C12.7393 4.63139 12.3548 4.5071 11.8908 4.5071C11.4235 4.5071 11.0357 4.63139 10.7275 4.87997C10.4225 5.12855 10.1955 5.45833 10.0463 5.86932C9.90051 6.27699 9.82759 6.72443 9.82759 7.21165C9.82759 7.70218 9.90051 8.15128 10.0463 8.55895C10.1955 8.96662 10.4225 9.29309 10.7275 9.53835C11.0357 9.78362 11.4235 9.90625 11.8908 9.90625ZM21.9421 7.8331V3.36364H23.4336V11H21.9719V9.67756H21.8924C21.7167 10.0852 21.435 10.425 21.0472 10.6967C20.6628 10.9652 20.1838 11.0994 19.6104 11.0994C19.1199 11.0994 18.6857 10.9917 18.3079 10.7763C17.9334 10.5575 17.6384 10.2344 17.4229 9.80682C17.2108 9.37926 17.1048 8.85062 17.1048 8.22088V3.36364H18.5913V8.0419C18.5913 8.56226 18.7354 8.97656 19.0238 9.2848C19.3121 9.59304 19.6867 9.74716 20.1474 9.74716C20.4258 9.74716 20.7025 9.67756 20.9776 9.53835C21.256 9.39915 21.4864 9.18868 21.6687 8.90696C21.8543 8.62524 21.9454 8.26728 21.9421 7.8331ZM28.9956 3.36364V4.55682H24.8244V3.36364H28.9956ZM25.943 1.53409H27.4295V8.75781C27.4295 9.04616 27.4726 9.26326 27.5588 9.40909C27.6449 9.55161 27.756 9.64938 27.8919 9.70241C28.0311 9.75213 28.1819 9.77699 28.3443 9.77699C28.4636 9.77699 28.568 9.7687 28.6575 9.75213C28.747 9.73556 28.8166 9.7223 28.8663 9.71236L29.1348 10.9403C29.0486 10.9735 28.926 11.0066 28.7669 11.0398C28.6078 11.0762 28.4089 11.0961 28.1703 11.0994C27.7792 11.1061 27.4146 11.0365 27.0765 10.8906C26.7385 10.7448 26.465 10.5194 26.2562 10.2145C26.0474 9.90956 25.943 9.52675 25.943 9.06605V1.53409ZM35.4773 7.8331V3.36364H36.9688V11H35.5071V9.67756H35.4276C35.2519 10.0852 34.9702 10.425 34.5824 10.6967C34.1979 10.9652 33.719 11.0994 33.1456 11.0994C32.6551 11.0994 32.2209 10.9917 31.843 10.7763C31.4685 10.5575 31.1735 10.2344 30.9581 9.80682C30.746 9.37926 30.6399 8.85062 30.6399 8.22088V3.36364H32.1264V8.0419C32.1264 8.56226 32.2706 8.97656 32.5589 9.2848C32.8473 9.59304 33.2218 9.74716 33.6825 9.74716C33.9609 9.74716 34.2377 9.67756 34.5128 9.53835C34.7912 9.39915 35.0215 9.18868 35.2038 8.90696C35.3894 8.62524 35.4806 8.26728 35.4773 7.8331ZM39.0854 11V0.818182H40.5719V4.60156H40.6614C40.7476 4.44247 40.8719 4.25852 41.0343 4.04972C41.1967 3.84091 41.4221 3.65862 41.7104 3.50284C41.9988 3.34375 42.3799 3.2642 42.8539 3.2642C43.4703 3.2642 44.0205 3.41998 44.5044 3.73153C44.9883 4.04309 45.3678 4.49219 45.6429 5.07884C45.9213 5.66548 46.0605 6.37145 46.0605 7.19673C46.0605 8.02202 45.923 8.72964 45.6479 9.3196C45.3728 9.90625 44.995 10.3587 44.5144 10.6768C44.0338 10.9917 43.4853 11.1491 42.8688 11.1491C42.4048 11.1491 42.0253 11.0713 41.7303 10.9155C41.4386 10.7597 41.2099 10.5774 41.0442 10.3686C40.8785 10.1598 40.7509 9.9742 40.6614 9.81179H40.5371V11H39.0854ZM40.5421 7.18182C40.5421 7.71875 40.62 8.18939 40.7757 8.59375C40.9315 8.99811 41.1569 9.31463 41.4519 9.54332C41.7469 9.7687 42.1081 9.88139 42.5357 9.88139C42.9798 9.88139 43.351 9.76373 43.6493 9.52841C43.9476 9.28977 44.173 8.96662 44.3255 8.55895C44.4812 8.15128 44.5591 7.69223 44.5591 7.18182C44.5591 6.67803 44.4829 6.22562 44.3304 5.82457C44.1813 5.42353 43.9559 5.10701 43.6543 4.875C43.356 4.64299 42.9831 4.52699 42.5357 4.52699C42.1048 4.52699 41.7402 4.63802 41.4419 4.86009C41.147 5.08215 40.9232 5.39205 40.7708 5.78977C40.6183 6.1875 40.5421 6.65151 40.5421 7.18182ZM51.021 11.1541C50.2686 11.1541 49.6206 10.9934 49.0771 10.6719C48.5368 10.3471 48.1192 9.89134 47.8242 9.30469C47.5326 8.71473 47.3867 8.02367 47.3867 7.23153C47.3867 6.44934 47.5326 5.75994 47.8242 5.16335C48.1192 4.56676 48.5302 4.10109 49.0572 3.76633C49.5875 3.43158 50.2073 3.2642 50.9165 3.2642C51.3474 3.2642 51.765 3.33546 52.1694 3.47798C52.5737 3.6205 52.9367 3.84422 53.2582 4.14915C53.5797 4.45407 53.8332 4.85014 54.0188 5.33736C54.2044 5.82126 54.2972 6.40956 54.2972 7.10227V7.62926H48.2269V6.51562H52.8406C52.8406 6.12453 52.761 5.77817 52.6019 5.47656C52.4428 5.17164 52.2191 4.93134 51.9308 4.75568C51.6457 4.58002 51.311 4.49219 50.9265 4.49219C50.5089 4.49219 50.1443 4.59493 49.8327 4.80043C49.5245 5.0026 49.2859 5.26776 49.1168 5.59588C48.9511 5.92069 48.8683 6.27367 48.8683 6.65483V7.52486C48.8683 8.03527 48.9577 8.46946 49.1367 8.82741C49.319 9.18537 49.5726 9.45881 49.8974 9.64773C50.2222 9.83333 50.6017 9.92614 51.0359 9.92614C51.3176 9.92614 51.5745 9.88636 51.8065 9.80682C52.0385 9.72396 52.239 9.60133 52.408 9.43892C52.5771 9.27652 52.7063 9.07599 52.7958 8.83736L54.2028 9.09091C54.0901 9.50521 53.8879 9.86813 53.5962 10.1797C53.3079 10.4879 52.945 10.7282 52.5075 10.9006C52.0733 11.0696 51.5778 11.1541 51.021 11.1541Z" fill="black"/>
</svg>
