<svg width="40" height="12" viewBox="0 0 40 12" fill="none" xmlns="http://www.w3.org/2000/svg">
<path d="M-0.000710189 11V3.36364H1.43608V4.5767H1.51562C1.65483 4.16572 1.90009 3.84257 2.25142 3.60724C2.60606 3.36861 3.0071 3.24929 3.45455 3.24929C3.54735 3.24929 3.65672 3.2526 3.78267 3.25923C3.91193 3.26586 4.01302 3.27415 4.08594 3.28409V4.70597C4.02628 4.68939 3.92022 4.67116 3.76776 4.65128C3.61529 4.62808 3.46283 4.61648 3.31037 4.61648C2.95904 4.61648 2.64583 4.69105 2.37074 4.8402C2.09896 4.98603 1.88352 5.18987 1.72443 5.4517C1.56534 5.71023 1.4858 6.00521 1.4858 6.33665V11H-0.000710189ZM11.0946 5.22798L9.74734 5.46662C9.69099 5.29427 9.6015 5.13021 9.47887 4.97443C9.35955 4.81865 9.19715 4.69105 8.99166 4.59162C8.78616 4.49219 8.5293 4.44247 8.22106 4.44247C7.80013 4.44247 7.4488 4.53693 7.16708 4.72585C6.88536 4.91146 6.7445 5.15175 6.7445 5.44673C6.7445 5.70194 6.83896 5.90743 7.02788 6.06321C7.2168 6.21899 7.52172 6.34659 7.94265 6.44602L9.15572 6.72443C9.85837 6.88684 10.382 7.13707 10.7267 7.47514C11.0714 7.81321 11.2438 8.25237 11.2438 8.79261C11.2438 9.25 11.1112 9.65767 10.8461 10.0156C10.5842 10.3703 10.218 10.6487 9.74734 10.8509C9.28001 11.053 8.7381 11.1541 8.12163 11.1541C7.26651 11.1541 6.56883 10.9718 6.02859 10.6072C5.48834 10.2393 5.1569 9.71733 5.03427 9.04119L6.47106 8.82244C6.56055 9.19697 6.7445 9.48035 7.0229 9.67259C7.30131 9.86151 7.66424 9.95597 8.11168 9.95597C8.5989 9.95597 8.98834 9.85488 9.28001 9.6527C9.57167 9.44721 9.71751 9.19697 9.71751 8.90199C9.71751 8.66335 9.62802 8.46283 9.44904 8.30043C9.27338 8.13802 9.00326 8.01539 8.63867 7.93253L7.34606 7.64915C6.63346 7.48674 6.10647 7.22822 5.76509 6.87358C5.42702 6.51894 5.25799 6.06984 5.25799 5.52628C5.25799 5.07552 5.38394 4.68111 5.63583 4.34304C5.88772 4.00497 6.23574 3.74148 6.67987 3.55256C7.12399 3.36032 7.63275 3.2642 8.20614 3.2642C9.03143 3.2642 9.68105 3.44318 10.155 3.80114C10.629 4.15578 10.9422 4.63139 11.0946 5.22798ZM18.6005 5.22798L17.2532 5.46662C17.1969 5.29427 17.1074 5.13021 16.9847 4.97443C16.8654 4.81865 16.703 4.69105 16.4975 4.59162C16.292 4.49219 16.0352 4.44247 15.7269 4.44247C15.306 4.44247 14.9547 4.53693 14.6729 4.72585C14.3912 4.91146 14.2504 5.15175 14.2504 5.44673C14.2504 5.70194 14.3448 5.90743 14.5337 6.06321C14.7227 6.21899 15.0276 6.34659 15.4485 6.44602L16.6616 6.72443C17.3642 6.88684 17.8879 7.13707 18.2326 7.47514C18.5773 7.81321 18.7496 8.25237 18.7496 8.79261C18.7496 9.25 18.6171 9.65767 18.3519 10.0156C18.0901 10.3703 17.7238 10.6487 17.2532 10.8509C16.7859 11.053 16.244 11.1541 15.6275 11.1541C14.7724 11.1541 14.0747 10.9718 13.5344 10.6072C12.9942 10.2393 12.6628 9.71733 12.5401 9.04119L13.9769 8.82244C14.0664 9.19697 14.2504 9.48035 14.5288 9.67259C14.8072 9.86151 15.1701 9.95597 15.6175 9.95597C16.1048 9.95597 16.4942 9.85488 16.7859 9.6527C17.0775 9.44721 17.2234 9.19697 17.2234 8.90199C17.2234 8.66335 17.1339 8.46283 16.9549 8.30043C16.7792 8.13802 16.5091 8.01539 16.1445 7.93253L14.8519 7.64915C14.1393 7.48674 13.6123 7.22822 13.271 6.87358C12.9329 6.51894 12.7638 6.06984 12.7638 5.52628C12.7638 5.07552 12.8898 4.68111 13.1417 4.34304C13.3936 4.00497 13.7416 3.74148 14.1857 3.55256C14.6299 3.36032 15.1386 3.2642 15.712 3.2642C16.5373 3.2642 17.1869 3.44318 17.6609 3.80114C18.1348 4.15578 18.448 4.63139 18.6005 5.22798ZM24.8833 6.05327V7.34091H20.3691V6.05327H24.8833ZM30.3894 11.169C29.6039 11.1657 28.9327 10.9586 28.3759 10.5476C27.8191 10.1366 27.3932 9.53835 27.0982 8.75284C26.8032 7.96733 26.6557 7.02107 26.6557 5.91406C26.6557 4.81037 26.8032 3.86742 27.0982 3.08523C27.3965 2.30303 27.824 1.70644 28.3809 1.29545C28.941 0.884469 29.6105 0.678977 30.3894 0.678977C31.1683 0.678977 31.8361 0.886126 32.3929 1.30043C32.9498 1.71141 33.3757 2.308 33.6706 3.0902C33.9689 3.86908 34.1181 4.81037 34.1181 5.91406C34.1181 7.02438 33.9706 7.9723 33.6756 8.75781C33.3806 9.54001 32.9547 10.1383 32.3979 10.5526C31.8411 10.9635 31.1716 11.169 30.3894 11.169ZM30.3894 9.84162C31.0788 9.84162 31.6174 9.50521 32.0051 8.83239C32.3962 8.15956 32.5918 7.18679 32.5918 5.91406C32.5918 5.06889 32.5023 4.35464 32.3233 3.77131C32.1477 3.18466 31.8941 2.74053 31.5627 2.43892C31.2346 2.134 30.8435 1.98153 30.3894 1.98153C29.7033 1.98153 29.1647 2.3196 28.7736 2.99574C28.3825 3.67187 28.1853 4.64465 28.182 5.91406C28.182 6.76255 28.2698 7.48011 28.4455 8.06676C28.6245 8.65009 28.878 9.09257 29.2061 9.39418C29.5343 9.69247 29.9287 9.84162 30.3894 9.84162ZM39.7447 0.818182V11H38.2035V2.35938H38.1438L35.7077 3.95028V2.47869L38.2482 0.818182H39.7447Z" fill="black"/>
</svg>
