<svg width="27" height="14" viewBox="0 0 27 14" fill="none" xmlns="http://www.w3.org/2000/svg">
<path d="M-0.000710189 13.8636V3.36364H1.45099V4.60156H1.57528C1.66146 4.44247 1.78575 4.25852 1.94815 4.04972C2.11056 3.84091 2.33594 3.65862 2.62429 3.50284C2.91264 3.34375 3.2938 3.2642 3.76776 3.2642C4.38423 3.2642 4.93442 3.41998 5.41832 3.73153C5.90223 4.04309 6.28172 4.49219 6.55682 5.07884C6.83523 5.66548 6.97443 6.37145 6.97443 7.19673C6.97443 8.02202 6.83688 8.72964 6.56179 9.3196C6.2867 9.90625 5.90885 10.3587 5.42827 10.6768C4.94768 10.9917 4.39915 11.1491 3.78267 11.1491C3.31866 11.1491 2.93916 11.0713 2.64418 10.9155C2.35251 10.7597 2.12382 10.5774 1.9581 10.3686C1.79238 10.1598 1.66477 9.9742 1.57528 9.81179H1.4858V13.8636H-0.000710189ZM1.45597 7.18182C1.45597 7.71875 1.53385 8.18939 1.68963 8.59375C1.84541 8.99811 2.07079 9.31463 2.36577 9.54332C2.66075 9.7687 3.02202 9.88139 3.44957 9.88139C3.8937 9.88139 4.26491 9.76373 4.56321 9.52841C4.86151 9.28977 5.08688 8.96662 5.23935 8.55895C5.39512 8.15128 5.47301 7.69223 5.47301 7.18182C5.47301 6.67803 5.39678 6.22562 5.24432 5.82457C5.09517 5.42353 4.86979 5.10701 4.56818 4.875C4.26989 4.64299 3.89702 4.52699 3.44957 4.52699C3.0187 4.52699 2.65412 4.63802 2.35582 4.86009C2.06084 5.08215 1.83712 5.39205 1.68466 5.78977C1.5322 6.1875 1.45597 6.65151 1.45597 7.18182ZM10.1264 0.818182V11H8.63991V0.818182H10.1264ZM14.3485 11.169C13.8646 11.169 13.4271 11.0795 13.036 10.9006C12.6449 10.7183 12.335 10.4548 12.1064 10.1101C11.881 9.76539 11.7683 9.3428 11.7683 8.84233C11.7683 8.41146 11.8511 8.05682 12.0169 7.77841C12.1826 7.5 12.4063 7.27959 12.688 7.11719C12.9698 6.95478 13.2846 6.83215 13.6326 6.74929C13.9806 6.66643 14.3353 6.60346 14.6966 6.56037C15.1539 6.50734 15.5252 6.46425 15.8102 6.43111C16.0952 6.39465 16.3024 6.33665 16.4316 6.2571C16.5609 6.17756 16.6255 6.0483 16.6255 5.86932V5.83452C16.6255 5.40033 16.5029 5.06392 16.2576 4.82528C16.0157 4.58665 15.6544 4.46733 15.1738 4.46733C14.6734 4.46733 14.2789 4.57836 13.9906 4.80043C13.7056 5.01918 13.5083 5.26278 13.399 5.53125L12.002 5.21307C12.1677 4.74905 12.4096 4.37453 12.7278 4.08949C13.0493 3.80114 13.4189 3.59233 13.8365 3.46307C14.2541 3.33049 14.6932 3.2642 15.1539 3.2642C15.4589 3.2642 15.782 3.30066 16.1234 3.37358C16.4681 3.44318 16.7896 3.57244 17.0879 3.76136C17.3895 3.95028 17.6364 4.22041 17.8287 4.57173C18.0209 4.91974 18.117 5.37216 18.117 5.92898V11H16.6653V9.95597H16.6056C16.5095 10.1482 16.3654 10.3371 16.1731 10.5227C15.9809 10.7083 15.734 10.8625 15.4324 10.9851C15.1307 11.1077 14.7695 11.169 14.3485 11.169ZM14.6717 9.97585C15.0827 9.97585 15.434 9.89465 15.7257 9.73224C16.0207 9.56984 16.2444 9.35772 16.3968 9.09588C16.5526 8.83073 16.6305 8.54735 16.6305 8.24574V7.26136C16.5775 7.31439 16.4747 7.36411 16.3223 7.41051C16.1731 7.4536 16.0024 7.49171 15.8102 7.52486C15.618 7.55469 15.4307 7.58286 15.2484 7.60938C15.0661 7.63258 14.9136 7.65246 14.791 7.66903C14.5027 7.70549 14.2392 7.76681 14.0005 7.85298C13.7652 7.93916 13.5763 8.06345 13.4338 8.22585C13.2946 8.38494 13.225 8.59706 13.225 8.86222C13.225 9.23011 13.3609 9.50852 13.6326 9.69744C13.9044 9.88305 14.2508 9.97585 14.6717 9.97585ZM20.7631 13.8636C20.5411 13.8636 20.3389 13.8454 20.1566 13.8089C19.9743 13.7758 19.8384 13.7393 19.7489 13.6996L20.1069 12.4815C20.3787 12.5545 20.6206 12.5859 20.8327 12.576C21.0449 12.5661 21.2321 12.4865 21.3945 12.3374C21.5603 12.1882 21.7061 11.9446 21.832 11.6065L22.016 11.0994L19.2219 3.36364H20.8129L22.7468 9.28977H22.8263L24.7603 3.36364H26.3562L23.2092 12.0192C23.0633 12.4169 22.8777 12.7533 22.6523 13.0284C22.427 13.3068 22.1585 13.5156 21.8469 13.6548C21.5354 13.794 21.1741 13.8636 20.7631 13.8636Z" fill="black"/>
</svg>
