<svg width="44" height="9" viewBox="0 0 44 9" fill="none" xmlns="http://www.w3.org/2000/svg">
<path d="M-0.000710189 8V0.363636H1.42614V1.60653H1.5206C1.67969 1.18561 1.93987 0.857481 2.30114 0.622159C2.66241 0.383523 3.09493 0.264205 3.59872 0.264205C4.10914 0.264205 4.5367 0.383523 4.88139 0.622159C5.2294 0.860795 5.48627 1.18892 5.65199 1.60653H5.73153C5.91383 1.19886 6.20384 0.874053 6.60156 0.632102C6.99929 0.386837 7.47325 0.264205 8.02344 0.264205C8.71615 0.264205 9.28125 0.481297 9.71875 0.915483C10.1596 1.34967 10.38 2.00426 10.38 2.87926V8H8.89347V3.01847C8.89347 2.50142 8.7526 2.12689 8.47088 1.89489C8.18916 1.66288 7.85275 1.54688 7.46165 1.54688C6.97775 1.54688 6.60156 1.69602 6.3331 1.99432C6.06463 2.2893 5.9304 2.6688 5.9304 3.13281V8H4.44886V2.92401C4.44886 2.50971 4.3196 2.17661 4.06108 1.92472C3.80256 1.67282 3.46615 1.54688 3.05185 1.54688C2.77012 1.54688 2.50994 1.62145 2.27131 1.7706C2.03599 1.91643 1.84541 2.12026 1.69957 2.3821C1.55706 2.64394 1.4858 2.94721 1.4858 3.2919V8H-0.000710189ZM15.589 8.15412C14.873 8.15412 14.2483 7.99006 13.7147 7.66193C13.181 7.33381 12.7667 6.87476 12.4718 6.2848C12.1768 5.69484 12.0293 5.00544 12.0293 4.21662C12.0293 3.42448 12.1768 2.73177 12.4718 2.13849C12.7667 1.54522 13.181 1.08452 13.7147 0.756392C14.2483 0.428267 14.873 0.264205 15.589 0.264205C16.3049 0.264205 16.9296 0.428267 17.4632 0.756392C17.9969 1.08452 18.4112 1.54522 18.7061 2.13849C19.0011 2.73177 19.1486 3.42448 19.1486 4.21662C19.1486 5.00544 19.0011 5.69484 18.7061 6.2848C18.4112 6.87476 17.9969 7.33381 17.4632 7.66193C16.9296 7.99006 16.3049 8.15412 15.589 8.15412ZM15.5939 6.90625C16.0579 6.90625 16.4424 6.78362 16.7473 6.53835C17.0523 6.29309 17.2776 5.96662 17.4235 5.55895C17.5726 5.15128 17.6472 4.70218 17.6472 4.21165C17.6472 3.72443 17.5726 3.27699 17.4235 2.86932C17.2776 2.45833 17.0523 2.12855 16.7473 1.87997C16.4424 1.63139 16.0579 1.5071 15.5939 1.5071C15.1266 1.5071 14.7388 1.63139 14.4306 1.87997C14.1257 2.12855 13.8986 2.45833 13.7495 2.86932C13.6036 3.27699 13.5307 3.72443 13.5307 4.21165C13.5307 4.70218 13.6036 5.15128 13.7495 5.55895C13.8986 5.96662 14.1257 6.29309 14.4306 6.53835C14.7388 6.78362 15.1266 6.90625 15.5939 6.90625ZM25.6452 4.8331V0.363636H27.1367V8H25.6751V6.67756H25.5955C25.4199 7.08523 25.1381 7.42495 24.7504 7.69673C24.3659 7.9652 23.887 8.09943 23.3136 8.09943C22.823 8.09943 22.3888 7.99171 22.011 7.77628C21.6365 7.55753 21.3415 7.23438 21.1261 6.80682C20.9139 6.37926 20.8079 5.85062 20.8079 5.22088V0.363636H22.2944V5.0419C22.2944 5.56226 22.4386 5.97656 22.7269 6.2848C23.0153 6.59304 23.3898 6.74716 23.8505 6.74716C24.1289 6.74716 24.4057 6.67756 24.6808 6.53835C24.9592 6.39915 25.1895 6.18868 25.3718 5.90696C25.5574 5.62524 25.6486 5.26728 25.6452 4.8331ZM34.8564 2.22798L33.5091 2.46662C33.4527 2.29427 33.3632 2.13021 33.2406 1.97443C33.1213 1.81865 32.9589 1.69105 32.7534 1.59162C32.5479 1.49219 32.291 1.44247 31.9828 1.44247C31.5618 1.44247 31.2105 1.53693 30.9288 1.72585C30.6471 1.91146 30.5062 2.15175 30.5062 2.44673C30.5062 2.70194 30.6007 2.90743 30.7896 3.06321C30.9785 3.21899 31.2834 3.34659 31.7044 3.44602L32.9174 3.72443C33.6201 3.88684 34.1438 4.13707 34.4885 4.47514C34.8332 4.81321 35.0055 5.25237 35.0055 5.79261C35.0055 6.25 34.8729 6.65767 34.6078 7.01562C34.3459 7.37027 33.9797 7.64867 33.5091 7.85085C33.0417 8.05303 32.4998 8.15412 31.8833 8.15412C31.0282 8.15412 30.3306 7.97183 29.7903 7.60724C29.2501 7.23935 28.9186 6.71733 28.796 6.04119L30.2328 5.82244C30.3223 6.19697 30.5062 6.48035 30.7846 6.67259C31.063 6.86151 31.426 6.95597 31.8734 6.95597C32.3606 6.95597 32.7501 6.85488 33.0417 6.6527C33.3334 6.44721 33.4792 6.19697 33.4792 5.90199C33.4792 5.66335 33.3897 5.46283 33.2108 5.30043C33.0351 5.13802 32.765 5.01539 32.4004 4.93253L31.1078 4.64915C30.3952 4.48674 29.8682 4.22822 29.5268 3.87358C29.1887 3.51894 29.0197 3.06984 29.0197 2.52628C29.0197 2.07552 29.1457 1.68111 29.3975 1.34304C29.6494 1.00497 29.9975 0.741477 30.4416 0.552557C30.8857 0.360322 31.3945 0.264205 31.9679 0.264205C32.7931 0.264205 33.4428 0.443182 33.9167 0.801136C34.3907 1.15578 34.7039 1.63139 34.8564 2.22798ZM39.9311 8.15412C39.1787 8.15412 38.5308 7.99337 37.9872 7.67188C37.447 7.34706 37.0294 6.89134 36.7344 6.30469C36.4427 5.71473 36.2969 5.02367 36.2969 4.23153C36.2969 3.44934 36.4427 2.75994 36.7344 2.16335C37.0294 1.56676 37.4403 1.10109 37.9673 0.766335C38.4976 0.431581 39.1174 0.264205 39.8267 0.264205C40.2576 0.264205 40.6752 0.335464 41.0795 0.477983C41.4839 0.620502 41.8468 0.844223 42.1683 1.14915C42.4898 1.45407 42.7434 1.85014 42.929 2.33736C43.1146 2.82126 43.2074 3.40956 43.2074 4.10227V4.62926H37.1371V3.51562H41.7507C41.7507 3.12453 41.6712 2.77817 41.5121 2.47656C41.353 2.17164 41.1293 1.93134 40.8409 1.75568C40.5559 1.58002 40.2211 1.49219 39.8366 1.49219C39.419 1.49219 39.0545 1.59493 38.7429 1.80043C38.4347 2.0026 38.196 2.26776 38.027 2.59588C37.8613 2.92069 37.7784 3.27367 37.7784 3.65483V4.52486C37.7784 5.03527 37.8679 5.46946 38.0469 5.82741C38.2292 6.18537 38.4827 6.45881 38.8075 6.64773C39.1323 6.83333 39.5118 6.92614 39.946 6.92614C40.2277 6.92614 40.4846 6.88636 40.7166 6.80682C40.9486 6.72396 41.1491 6.60133 41.3182 6.43892C41.4872 6.27652 41.6165 6.07599 41.706 5.83736L43.1129 6.09091C43.0002 6.50521 42.7981 6.86813 42.5064 7.17969C42.218 7.48793 41.8551 7.72822 41.4176 7.90057C40.9834 8.0696 40.4879 8.15412 39.9311 8.15412Z" fill="black"/>
</svg>
