<svg width="89" height="14" viewBox="0 0 89 14" fill="none" xmlns="http://www.w3.org/2000/svg">
<path d="M4.21591 11.1541C3.4768 11.1541 2.84044 10.9867 2.30682 10.652C1.77652 10.3139 1.36884 9.84825 1.08381 9.25497C0.798769 8.66169 0.65625 7.98224 0.65625 7.21662C0.65625 6.44105 0.802083 5.75663 1.09375 5.16335C1.38542 4.56676 1.7964 4.10109 2.3267 3.76633C2.85701 3.43158 3.48177 3.2642 4.20099 3.2642C4.78101 3.2642 5.29806 3.37192 5.75213 3.58736C6.2062 3.79948 6.57244 4.09777 6.85085 4.48224C7.13258 4.86671 7.29995 5.31581 7.35298 5.82955H5.90625C5.8267 5.47159 5.64441 5.16335 5.35938 4.90483C5.07765 4.64631 4.69981 4.51705 4.22585 4.51705C3.81155 4.51705 3.44863 4.62642 3.13707 4.84517C2.82884 5.06061 2.58854 5.36884 2.41619 5.76989C2.24384 6.16761 2.15767 6.63826 2.15767 7.18182C2.15767 7.73864 2.24219 8.21922 2.41122 8.62358C2.58026 9.02794 2.81889 9.34115 3.12713 9.56321C3.43868 9.78527 3.80492 9.89631 4.22585 9.89631C4.50758 9.89631 4.76278 9.84493 4.99148 9.74219C5.22349 9.63613 5.41738 9.48532 5.57315 9.28977C5.73224 9.09422 5.84328 8.8589 5.90625 8.58381H7.35298C7.29995 9.07765 7.1392 9.51847 6.87074 9.90625C6.60227 10.294 6.24266 10.599 5.7919 10.821C5.34446 11.0431 4.81913 11.1541 4.21591 11.1541ZM10.4292 0.818182V11H8.94265V0.818182H10.4292ZM14.6513 11.169C14.1674 11.169 13.7299 11.0795 13.3388 10.9006C12.9477 10.7183 12.6378 10.4548 12.4091 10.1101C12.1837 9.76539 12.071 9.3428 12.071 8.84233C12.071 8.41146 12.1539 8.05682 12.3196 7.77841C12.4853 7.5 12.709 7.27959 12.9908 7.11719C13.2725 6.95478 13.5874 6.83215 13.9354 6.74929C14.2834 6.66643 14.638 6.60346 14.9993 6.56037C15.4567 6.50734 15.8279 6.46425 16.1129 6.43111C16.398 6.39465 16.6051 6.33665 16.7344 6.2571C16.8636 6.17756 16.9283 6.0483 16.9283 5.86932V5.83452C16.9283 5.40033 16.8056 5.06392 16.5604 4.82528C16.3184 4.58665 15.9571 4.46733 15.4766 4.46733C14.9761 4.46733 14.5817 4.57836 14.2933 4.80043C14.0083 5.01918 13.8111 5.26278 13.7017 5.53125L12.3047 5.21307C12.4704 4.74905 12.7124 4.37453 13.0305 4.08949C13.352 3.80114 13.7216 3.59233 14.1392 3.46307C14.5568 3.33049 14.996 3.2642 15.4567 3.2642C15.7616 3.2642 16.0848 3.30066 16.4261 3.37358C16.7708 3.44318 17.0923 3.57244 17.3906 3.76136C17.6922 3.95028 17.9392 4.22041 18.1314 4.57173C18.3236 4.91974 18.4197 5.37216 18.4197 5.92898V11H16.968V9.95597H16.9084C16.8123 10.1482 16.6681 10.3371 16.4759 10.5227C16.2836 10.7083 16.0367 10.8625 15.7351 10.9851C15.4335 11.1077 15.0722 11.169 14.6513 11.169ZM14.9744 9.97585C15.3854 9.97585 15.7367 9.89465 16.0284 9.73224C16.3234 9.56984 16.5471 9.35772 16.6996 9.09588C16.8554 8.83073 16.9332 8.54735 16.9332 8.24574V7.26136C16.8802 7.31439 16.7775 7.36411 16.625 7.41051C16.4759 7.4536 16.3052 7.49171 16.1129 7.52486C15.9207 7.55469 15.7334 7.58286 15.5511 7.60938C15.3688 7.63258 15.2164 7.65246 15.0938 7.66903C14.8054 7.70549 14.5419 7.76681 14.3033 7.85298C14.0679 7.93916 13.879 8.06345 13.7365 8.22585C13.5973 8.38494 13.5277 8.59706 13.5277 8.86222C13.5277 9.23011 13.6636 9.50852 13.9354 9.69744C14.2071 9.88305 14.5535 9.97585 14.9744 9.97585ZM20.3997 13.8636V3.36364H21.8514V4.60156H21.9757C22.0618 4.44247 22.1861 4.25852 22.3485 4.04972C22.5109 3.84091 22.7363 3.65862 23.0247 3.50284C23.313 3.34375 23.6942 3.2642 24.1681 3.2642C24.7846 3.2642 25.3348 3.41998 25.8187 3.73153C26.3026 4.04309 26.6821 4.49219 26.9572 5.07884C27.2356 5.66548 27.3748 6.37145 27.3748 7.19673C27.3748 8.02202 27.2373 8.72964 26.9622 9.3196C26.6871 9.90625 26.3092 10.3587 25.8287 10.6768C25.3481 10.9917 24.7995 11.1491 24.1831 11.1491C23.719 11.1491 23.3395 11.0713 23.0446 10.9155C22.7529 10.7597 22.5242 10.5774 22.3585 10.3686C22.1928 10.1598 22.0652 9.9742 21.9757 9.81179H21.8862V13.8636H20.3997ZM21.8564 7.18182C21.8564 7.71875 21.9342 8.18939 22.09 8.59375C22.2458 8.99811 22.4712 9.31463 22.7662 9.54332C23.0611 9.7687 23.4224 9.88139 23.85 9.88139C24.2941 9.88139 24.6653 9.76373 24.9636 9.52841C25.2619 9.28977 25.4873 8.96662 25.6397 8.55895C25.7955 8.15128 25.8734 7.69223 25.8734 7.18182C25.8734 6.67803 25.7972 6.22562 25.6447 5.82457C25.4956 5.42353 25.2702 5.10701 24.9686 4.875C24.6703 4.64299 24.2974 4.52699 23.85 4.52699C23.4191 4.52699 23.0545 4.63802 22.7562 4.86009C22.4612 5.08215 22.2375 5.39205 22.085 5.78977C21.9326 6.1875 21.8564 6.65151 21.8564 7.18182ZM29.0403 13.8636V3.36364H30.492V4.60156H30.6163C30.7025 4.44247 30.8268 4.25852 30.9892 4.04972C31.1516 3.84091 31.377 3.65862 31.6653 3.50284C31.9537 3.34375 32.3348 3.2642 32.8088 3.2642C33.4252 3.2642 33.9754 3.41998 34.4593 3.73153C34.9432 4.04309 35.3227 4.49219 35.5978 5.07884C35.8762 5.66548 36.0154 6.37145 36.0154 7.19673C36.0154 8.02202 35.8779 8.72964 35.6028 9.3196C35.3277 9.90625 34.9499 10.3587 34.4693 10.6768C33.9887 10.9917 33.4402 11.1491 32.8237 11.1491C32.3597 11.1491 31.9802 11.0713 31.6852 10.9155C31.3935 10.7597 31.1648 10.5774 30.9991 10.3686C30.8334 10.1598 30.7058 9.9742 30.6163 9.81179H30.5268V13.8636H29.0403ZM30.497 7.18182C30.497 7.71875 30.5749 8.18939 30.7306 8.59375C30.8864 8.99811 31.1118 9.31463 31.4068 9.54332C31.7018 9.7687 32.063 9.88139 32.4906 9.88139C32.9347 9.88139 33.3059 9.76373 33.6042 9.52841C33.9025 9.28977 34.1279 8.96662 34.2804 8.55895C34.4361 8.15128 34.514 7.69223 34.514 7.18182C34.514 6.67803 34.4378 6.22562 34.2853 5.82457C34.1362 5.42353 33.9108 5.10701 33.6092 4.875C33.3109 4.64299 32.938 4.52699 32.4906 4.52699C32.0597 4.52699 31.6951 4.63802 31.3968 4.86009C31.1019 5.08215 30.8781 5.39205 30.7257 5.78977C30.5732 6.1875 30.497 6.65151 30.497 7.18182ZM40.9721 11.1541C40.2198 11.1541 39.5718 10.9934 39.0282 10.6719C38.488 10.3471 38.0704 9.89134 37.7754 9.30469C37.4837 8.71473 37.3379 8.02367 37.3379 7.23153C37.3379 6.44934 37.4837 5.75994 37.7754 5.16335C38.0704 4.56676 38.4814 4.10109 39.0083 3.76633C39.5386 3.43158 40.1584 3.2642 40.8677 3.2642C41.2986 3.2642 41.7162 3.33546 42.1206 3.47798C42.5249 3.6205 42.8878 3.84422 43.2093 4.14915C43.5308 4.45407 43.7844 4.85014 43.97 5.33736C44.1556 5.82126 44.2484 6.40956 44.2484 7.10227V7.62926H38.1781V6.51562H42.7917C42.7917 6.12453 42.7122 5.77817 42.5531 5.47656C42.394 5.17164 42.1703 4.93134 41.8819 4.75568C41.5969 4.58002 41.2621 4.49219 40.8777 4.49219C40.46 4.49219 40.0955 4.59493 39.7839 4.80043C39.4757 5.0026 39.237 5.26776 39.068 5.59588C38.9023 5.92069 38.8194 6.27367 38.8194 6.65483V7.52486C38.8194 8.03527 38.9089 8.46946 39.0879 8.82741C39.2702 9.18537 39.5237 9.45881 39.8485 9.64773C40.1734 9.83333 40.5529 9.92614 40.987 9.92614C41.2688 9.92614 41.5256 9.88636 41.7576 9.80682C41.9896 9.72396 42.1902 9.60133 42.3592 9.43892C42.5282 9.27652 42.6575 9.07599 42.747 8.83736L44.1539 9.09091C44.0413 9.50521 43.8391 9.86813 43.5474 10.1797C43.2591 10.4879 42.8961 10.7282 42.4586 10.9006C42.0244 11.0696 41.5289 11.1541 40.9721 11.1541ZM45.8977 11V3.36364H47.3345V4.5767H47.4141C47.5533 4.16572 47.7985 3.84257 48.1499 3.60724C48.5045 3.36861 48.9055 3.24929 49.353 3.24929C49.4458 3.24929 49.5552 3.2526 49.6811 3.25923C49.8104 3.26586 49.9115 3.27415 49.9844 3.28409V4.70597C49.9247 4.68939 49.8187 4.67116 49.6662 4.65128C49.5137 4.62808 49.3613 4.61648 49.2088 4.61648C48.8575 4.61648 48.5443 4.69105 48.2692 4.8402C47.9974 4.98603 47.782 5.18987 47.6229 5.4517C47.4638 5.71023 47.3842 6.00521 47.3842 6.33665V11H45.8977ZM51.3901 11V0.818182H52.8766V4.60156H52.9661C53.0523 4.44247 53.1766 4.25852 53.339 4.04972C53.5014 3.84091 53.7267 3.65862 54.0151 3.50284C54.3034 3.34375 54.6846 3.2642 55.1586 3.2642C55.775 3.2642 56.3252 3.41998 56.8091 3.73153C57.293 4.04309 57.6725 4.49219 57.9476 5.07884C58.226 5.66548 58.3652 6.37145 58.3652 7.19673C58.3652 8.02202 58.2277 8.72964 57.9526 9.3196C57.6775 9.90625 57.2997 10.3587 56.8191 10.6768C56.3385 10.9917 55.79 11.1491 55.1735 11.1491C54.7095 11.1491 54.33 11.0713 54.035 10.9155C53.7433 10.7597 53.5146 10.5774 53.3489 10.3686C53.1832 10.1598 53.0556 9.9742 52.9661 9.81179H52.8418V11H51.3901ZM52.8468 7.18182C52.8468 7.71875 52.9247 8.18939 53.0804 8.59375C53.2362 8.99811 53.4616 9.31463 53.7566 9.54332C54.0516 9.7687 54.4128 9.88139 54.8404 9.88139C55.2845 9.88139 55.6557 9.76373 55.954 9.52841C56.2523 9.28977 56.4777 8.96662 56.6301 8.55895C56.7859 8.15128 56.8638 7.69223 56.8638 7.18182C56.8638 6.67803 56.7876 6.22562 56.6351 5.82457C56.486 5.42353 56.2606 5.10701 55.959 4.875C55.6607 4.64299 55.2878 4.52699 54.8404 4.52699C54.4095 4.52699 54.0449 4.63802 53.7466 4.86009C53.4516 5.08215 53.2279 5.39205 53.0755 5.78977C52.923 6.1875 52.8468 6.65151 52.8468 7.18182ZM63.2511 11.1541C62.5352 11.1541 61.9104 10.9901 61.3768 10.6619C60.8432 10.3338 60.4289 9.87476 60.1339 9.2848C59.8389 8.69484 59.6914 8.00544 59.6914 7.21662C59.6914 6.42448 59.8389 5.73177 60.1339 5.13849C60.4289 4.54522 60.8432 4.08452 61.3768 3.75639C61.9104 3.42827 62.5352 3.2642 63.2511 3.2642C63.967 3.2642 64.5917 3.42827 65.1254 3.75639C65.659 4.08452 66.0733 4.54522 66.3683 5.13849C66.6632 5.73177 66.8107 6.42448 66.8107 7.21662C66.8107 8.00544 66.6632 8.69484 66.3683 9.2848C66.0733 9.87476 65.659 10.3338 65.1254 10.6619C64.5917 10.9901 63.967 11.1541 63.2511 11.1541ZM63.256 9.90625C63.7201 9.90625 64.1045 9.78362 64.4094 9.53835C64.7144 9.29309 64.9397 8.96662 65.0856 8.55895C65.2347 8.15128 65.3093 7.70218 65.3093 7.21165C65.3093 6.72443 65.2347 6.27699 65.0856 5.86932C64.9397 5.45833 64.7144 5.12855 64.4094 4.87997C64.1045 4.63139 63.7201 4.5071 63.256 4.5071C62.7887 4.5071 62.4009 4.63139 62.0927 4.87997C61.7878 5.12855 61.5607 5.45833 61.4116 5.86932C61.2657 6.27699 61.1928 6.72443 61.1928 7.21165C61.1928 7.70218 61.2657 8.15128 61.4116 8.55895C61.5607 8.96662 61.7878 9.29309 62.0927 9.53835C62.4009 9.78362 62.7887 9.90625 63.256 9.90625ZM70.6923 11.169C70.2084 11.169 69.7709 11.0795 69.3798 10.9006C68.9887 10.7183 68.6788 10.4548 68.4501 10.1101C68.2247 9.76539 68.112 9.3428 68.112 8.84233C68.112 8.41146 68.1949 8.05682 68.3606 7.77841C68.5263 7.5 68.7501 7.27959 69.0318 7.11719C69.3135 6.95478 69.6284 6.83215 69.9764 6.74929C70.3244 6.66643 70.679 6.60346 71.0403 6.56037C71.4977 6.50734 71.8689 6.46425 72.1539 6.43111C72.439 6.39465 72.6461 6.33665 72.7754 6.2571C72.9047 6.17756 72.9693 6.0483 72.9693 5.86932V5.83452C72.9693 5.40033 72.8467 5.06392 72.6014 4.82528C72.3594 4.58665 71.9982 4.46733 71.5176 4.46733C71.0171 4.46733 70.6227 4.57836 70.3343 4.80043C70.0493 5.01918 69.8521 5.26278 69.7427 5.53125L68.3457 5.21307C68.5114 4.74905 68.7534 4.37453 69.0716 4.08949C69.3931 3.80114 69.7626 3.59233 70.1802 3.46307C70.5978 3.33049 71.037 3.2642 71.4977 3.2642C71.8026 3.2642 72.1258 3.30066 72.4672 3.37358C72.8118 3.44318 73.1333 3.57244 73.4316 3.76136C73.7333 3.95028 73.9802 4.22041 74.1724 4.57173C74.3646 4.91974 74.4608 5.37216 74.4608 5.92898V11H73.0091V9.95597H72.9494C72.8533 10.1482 72.7091 10.3371 72.5169 10.5227C72.3246 10.7083 72.0777 10.8625 71.7761 10.9851C71.4745 11.1077 71.1132 11.169 70.6923 11.169ZM71.0154 9.97585C71.4264 9.97585 71.7778 9.89465 72.0694 9.73224C72.3644 9.56984 72.5881 9.35772 72.7406 9.09588C72.8964 8.83073 72.9743 8.54735 72.9743 8.24574V7.26136C72.9212 7.31439 72.8185 7.36411 72.666 7.41051C72.5169 7.4536 72.3462 7.49171 72.1539 7.52486C71.9617 7.55469 71.7744 7.58286 71.5922 7.60938C71.4099 7.63258 71.2574 7.65246 71.1348 7.66903C70.8464 7.70549 70.5829 7.76681 70.3443 7.85298C70.109 7.93916 69.92 8.06345 69.7775 8.22585C69.6383 8.38494 69.5687 8.59706 69.5687 8.86222C69.5687 9.23011 69.7046 9.50852 69.9764 9.69744C70.2482 9.88305 70.5945 9.97585 71.0154 9.97585ZM76.4407 11V3.36364H77.8775V4.5767H77.957C78.0962 4.16572 78.3415 3.84257 78.6928 3.60724C79.0475 3.36861 79.4485 3.24929 79.896 3.24929C79.9888 3.24929 80.0981 3.2526 80.2241 3.25923C80.3533 3.26586 80.4544 3.27415 80.5273 3.28409V4.70597C80.4677 4.68939 80.3616 4.67116 80.2092 4.65128C80.0567 4.62808 79.9042 4.61648 79.7518 4.61648C79.4005 4.61648 79.0872 4.69105 78.8121 4.8402C78.5404 4.98603 78.3249 5.18987 78.1658 5.4517C78.0067 5.71023 77.9272 6.00521 77.9272 6.33665V11H76.4407ZM84.399 11.1491C83.7825 11.1491 83.2323 10.9917 82.7484 10.6768C82.2678 10.3587 81.89 9.90625 81.6149 9.3196C81.3431 8.72964 81.2072 8.02202 81.2072 7.19673C81.2072 6.37145 81.3448 5.66548 81.6199 5.07884C81.8983 4.49219 82.2794 4.04309 82.7633 3.73153C83.2472 3.41998 83.7958 3.2642 84.4089 3.2642C84.8829 3.2642 85.264 3.34375 85.5524 3.50284C85.844 3.65862 86.0694 3.84091 86.2285 4.04972C86.3909 4.25852 86.5169 4.44247 86.6064 4.60156H86.6958V0.818182H88.1824V11H86.7306V9.81179H86.6064C86.5169 9.9742 86.3876 10.1598 86.2186 10.3686C86.0529 10.5774 85.8242 10.7597 85.5325 10.9155C85.2408 11.0713 84.863 11.1491 84.399 11.1491ZM84.7271 9.88139C85.1547 9.88139 85.5159 9.7687 85.8109 9.54332C86.1092 9.31463 86.3346 8.99811 86.487 8.59375C86.6428 8.18939 86.7207 7.71875 86.7207 7.18182C86.7207 6.65151 86.6445 6.1875 86.492 5.78977C86.3395 5.39205 86.1158 5.08215 85.8208 4.86009C85.5259 4.63802 85.1613 4.52699 84.7271 4.52699C84.2797 4.52699 83.9068 4.64299 83.6085 4.875C83.3102 5.10701 83.0848 5.42353 82.9324 5.82457C82.7832 6.22562 82.7086 6.67803 82.7086 7.18182C82.7086 7.69223 82.7849 8.15128 82.9373 8.55895C83.0898 8.96662 83.3152 9.28977 83.6135 9.52841C83.9151 9.76373 84.2863 9.88139 84.7271 9.88139Z" fill="black"/>
</svg>
