<svg width="92" height="11" viewBox="0 0 92 11" fill="none" xmlns="http://www.w3.org/2000/svg">
<path d="M-0.000710189 10.8636V0.363636H1.45099V1.60156H1.57528C1.66146 1.44247 1.78575 1.25852 1.94815 1.04972C2.11056 0.840909 2.33594 0.658617 2.62429 0.502841C2.91264 0.34375 3.2938 0.264205 3.76776 0.264205C4.38423 0.264205 4.93442 0.419981 5.41832 0.731534C5.90223 1.04309 6.28172 1.49219 6.55682 2.07884C6.83523 2.66548 6.97443 3.37145 6.97443 4.19673C6.97443 5.02202 6.83688 5.72964 6.56179 6.3196C6.2867 6.90625 5.90885 7.35866 5.42827 7.67685C4.94768 7.99171 4.39915 8.14915 3.78267 8.14915C3.31866 8.14915 2.93916 8.07126 2.64418 7.91548C2.35251 7.75971 2.12382 7.57741 1.9581 7.36861C1.79238 7.1598 1.66477 6.9742 1.57528 6.81179H1.4858V10.8636H-0.000710189ZM1.45597 4.18182C1.45597 4.71875 1.53385 5.18939 1.68963 5.59375C1.84541 5.99811 2.07079 6.31463 2.36577 6.54332C2.66075 6.7687 3.02202 6.88139 3.44957 6.88139C3.8937 6.88139 4.26491 6.76373 4.56321 6.52841C4.86151 6.28977 5.08688 5.96662 5.23935 5.55895C5.39512 5.15128 5.47301 4.69223 5.47301 4.18182C5.47301 3.67803 5.39678 3.22562 5.24432 2.82457C5.09517 2.42353 4.86979 2.10701 4.56818 1.875C4.26989 1.64299 3.89702 1.52699 3.44957 1.52699C3.0187 1.52699 2.65412 1.63802 2.35582 1.86009C2.06084 2.08215 1.83712 2.39205 1.68466 2.78977C1.5322 3.1875 1.45597 3.65151 1.45597 4.18182ZM10.8622 8.16903C10.3783 8.16903 9.94081 8.07955 9.54972 7.90057C9.15862 7.71828 8.84872 7.45478 8.62003 7.11009C8.39465 6.76539 8.28196 6.3428 8.28196 5.84233C8.28196 5.41146 8.36482 5.05682 8.53054 4.77841C8.69626 4.5 8.91998 4.27959 9.2017 4.11719C9.48343 3.95478 9.7983 3.83215 10.1463 3.74929C10.4943 3.66643 10.849 3.60346 11.2102 3.56037C11.6676 3.50734 12.0388 3.46425 12.3239 3.43111C12.6089 3.39465 12.8161 3.33665 12.9453 3.2571C13.0746 3.17756 13.1392 3.0483 13.1392 2.86932V2.83452C13.1392 2.40033 13.0166 2.06392 12.7713 1.82528C12.5294 1.58665 12.1681 1.46733 11.6875 1.46733C11.187 1.46733 10.7926 1.57836 10.5043 1.80043C10.2192 2.01918 10.022 2.26278 9.91264 2.53125L8.51562 2.21307C8.68134 1.74905 8.9233 1.37453 9.24148 1.08949C9.56297 0.801136 9.93253 0.592329 10.3501 0.463068C10.7678 0.330492 11.2069 0.264205 11.6676 0.264205C11.9725 0.264205 12.2957 0.300663 12.6371 0.37358C12.9818 0.443182 13.3033 0.572443 13.6016 0.761363C13.9032 0.950284 14.1501 1.22041 14.3423 1.57173C14.5346 1.91974 14.6307 2.37216 14.6307 2.92898V8H13.179V6.95597H13.1193C13.0232 7.1482 12.879 7.33712 12.6868 7.52273C12.4946 7.70833 12.2476 7.86245 11.946 7.98509C11.6444 8.10772 11.2831 8.16903 10.8622 8.16903ZM11.1854 6.97585C11.5964 6.97585 11.9477 6.89465 12.2393 6.73224C12.5343 6.56984 12.758 6.35772 12.9105 6.09588C13.0663 5.83073 13.1442 5.54735 13.1442 5.24574V4.26136C13.0911 4.31439 12.9884 4.36411 12.8359 4.41051C12.6868 4.4536 12.5161 4.49171 12.3239 4.52486C12.1316 4.55469 11.9444 4.58286 11.7621 4.60938C11.5798 4.63258 11.4273 4.65246 11.3047 4.66903C11.0163 4.70549 10.7528 4.76681 10.5142 4.85298C10.2789 4.93916 10.09 5.06345 9.94744 5.22585C9.80824 5.38494 9.73864 5.59706 9.73864 5.86222C9.73864 6.23011 9.87453 6.50852 10.1463 6.69744C10.4181 6.88305 10.7644 6.97585 11.1854 6.97585ZM21.448 4.8331V0.363636H22.9395V8H21.4778V6.67756H21.3983C21.2226 7.08523 20.9409 7.42495 20.5531 7.69673C20.1686 7.9652 19.6897 8.09943 19.1163 8.09943C18.6258 8.09943 18.1916 7.99171 17.8137 7.77628C17.4392 7.55753 17.1442 7.23438 16.9288 6.80682C16.7167 6.37926 16.6106 5.85062 16.6106 5.22088V0.363636H18.0971V5.0419C18.0971 5.56226 18.2413 5.97656 18.5297 6.2848C18.818 6.59304 19.1925 6.74716 19.6532 6.74716C19.9316 6.74716 20.2084 6.67756 20.4835 6.53835C20.7619 6.39915 20.9922 6.18868 21.1745 5.90696C21.3601 5.62524 21.4513 5.26728 21.448 4.8331ZM30.6591 2.22798L29.3118 2.46662C29.2554 2.29427 29.166 2.13021 29.0433 1.97443C28.924 1.81865 28.7616 1.69105 28.5561 1.59162C28.3506 1.49219 28.0938 1.44247 27.7855 1.44247C27.3646 1.44247 27.0133 1.53693 26.7315 1.72585C26.4498 1.91146 26.3089 2.15175 26.3089 2.44673C26.3089 2.70194 26.4034 2.90743 26.5923 3.06321C26.7813 3.21899 27.0862 3.34659 27.5071 3.44602L28.7202 3.72443C29.4228 3.88684 29.9465 4.13707 30.2912 4.47514C30.6359 4.81321 30.8082 5.25237 30.8082 5.79261C30.8082 6.25 30.6757 6.65767 30.4105 7.01562C30.1487 7.37027 29.7824 7.64867 29.3118 7.85085C28.8445 8.05303 28.3026 8.15412 27.6861 8.15412C26.831 8.15412 26.1333 7.97183 25.593 7.60724C25.0528 7.23935 24.7214 6.71733 24.5987 6.04119L26.0355 5.82244C26.125 6.19697 26.3089 6.48035 26.5874 6.67259C26.8658 6.86151 27.2287 6.95597 27.6761 6.95597C28.1634 6.95597 28.5528 6.85488 28.8445 6.6527C29.1361 6.44721 29.282 6.19697 29.282 5.90199C29.282 5.66335 29.1925 5.46283 29.0135 5.30043C28.8378 5.13802 28.5677 5.01539 28.2031 4.93253L26.9105 4.64915C26.1979 4.48674 25.6709 4.22822 25.3295 3.87358C24.9915 3.51894 24.8224 3.06984 24.8224 2.52628C24.8224 2.07552 24.9484 1.68111 25.2003 1.34304C25.4522 1.00497 25.8002 0.741477 26.2443 0.552557C26.6884 0.360322 27.1972 0.264205 27.7706 0.264205C28.5959 0.264205 29.2455 0.443182 29.7195 0.801136C30.1934 1.15578 30.5066 1.63139 30.6591 2.22798ZM35.7338 8.15412C34.9815 8.15412 34.3335 7.99337 33.79 7.67188C33.2497 7.34706 32.8321 6.89134 32.5371 6.30469C32.2454 5.71473 32.0996 5.02367 32.0996 4.23153C32.0996 3.44934 32.2454 2.75994 32.5371 2.16335C32.8321 1.56676 33.2431 1.10109 33.7701 0.766335C34.3004 0.431581 34.9202 0.264205 35.6294 0.264205C36.0603 0.264205 36.4779 0.335464 36.8823 0.477983C37.2866 0.620502 37.6496 0.844223 37.9711 1.14915C38.2926 1.45407 38.5461 1.85014 38.7317 2.33736C38.9173 2.82126 39.0101 3.40956 39.0101 4.10227V4.62926H32.9398V3.51562H37.5534C37.5534 3.12453 37.4739 2.77817 37.3148 2.47656C37.1557 2.17164 36.932 1.93134 36.6436 1.75568C36.3586 1.58002 36.0239 1.49219 35.6394 1.49219C35.2218 1.49219 34.8572 1.59493 34.5456 1.80043C34.2374 2.0026 33.9988 2.26776 33.8297 2.59588C33.664 2.92069 33.5811 3.27367 33.5811 3.65483V4.52486C33.5811 5.03527 33.6706 5.46946 33.8496 5.82741C34.0319 6.18537 34.2855 6.45881 34.6103 6.64773C34.9351 6.83333 35.3146 6.92614 35.7488 6.92614C36.0305 6.92614 36.2873 6.88636 36.5194 6.80682C36.7514 6.72396 36.9519 6.60133 37.1209 6.43892C37.29 6.27652 37.4192 6.07599 37.5087 5.83736L38.9157 6.09091C38.803 6.50521 38.6008 6.86813 38.3091 7.17969C38.0208 7.48793 37.6578 7.72822 37.2203 7.90057C36.7862 8.0696 36.2907 8.15412 35.7338 8.15412ZM45.1587 3.05327V4.34091H40.6445V3.05327H45.1587ZM52.8622 2.22798L51.5149 2.46662C51.4586 2.29427 51.3691 2.13021 51.2464 1.97443C51.1271 1.81865 50.9647 1.69105 50.7592 1.59162C50.5537 1.49219 50.2969 1.44247 49.9886 1.44247C49.5677 1.44247 49.2164 1.53693 48.9347 1.72585C48.6529 1.91146 48.5121 2.15175 48.5121 2.44673C48.5121 2.70194 48.6065 2.90743 48.7955 3.06321C48.9844 3.21899 49.2893 3.34659 49.7102 3.44602L50.9233 3.72443C51.6259 3.88684 52.1496 4.13707 52.4943 4.47514C52.839 4.81321 53.0114 5.25237 53.0114 5.79261C53.0114 6.25 52.8788 6.65767 52.6136 7.01562C52.3518 7.37027 51.9856 7.64867 51.5149 7.85085C51.0476 8.05303 50.5057 8.15412 49.8892 8.15412C49.0341 8.15412 48.3364 7.97183 47.7962 7.60724C47.2559 7.23935 46.9245 6.71733 46.8018 6.04119L48.2386 5.82244C48.3281 6.19697 48.5121 6.48035 48.7905 6.67259C49.0689 6.86151 49.4318 6.95597 49.8793 6.95597C50.3665 6.95597 50.7559 6.85488 51.0476 6.6527C51.3393 6.44721 51.4851 6.19697 51.4851 5.90199C51.4851 5.66335 51.3956 5.46283 51.2166 5.30043C51.041 5.13802 50.7708 5.01539 50.4062 4.93253L49.1136 4.64915C48.401 4.48674 47.8741 4.22822 47.5327 3.87358C47.1946 3.51894 47.0256 3.06984 47.0256 2.52628C47.0256 2.07552 47.1515 1.68111 47.4034 1.34304C47.6553 1.00497 48.0033 0.741477 48.4474 0.552557C48.8916 0.360322 49.4003 0.264205 49.9737 0.264205C50.799 0.264205 51.4486 0.443182 51.9226 0.801136C52.3965 1.15578 52.7098 1.63139 52.8622 2.22798ZM59.8013 10.8636V6.81179H59.7118C59.6223 6.9742 59.4931 7.1598 59.324 7.36861C59.1583 7.57741 58.9296 7.75971 58.638 7.91548C58.3463 8.07126 57.9685 8.14915 57.5044 8.14915C56.888 8.14915 56.3378 7.99171 55.8539 7.67685C55.3733 7.35866 54.9954 6.90625 54.7203 6.3196C54.4486 5.72964 54.3127 5.02202 54.3127 4.19673C54.3127 3.37145 54.4502 2.66548 54.7253 2.07884C55.0037 1.49219 55.3849 1.04309 55.8688 0.731534C56.3527 0.419981 56.9012 0.264205 57.5144 0.264205C57.9883 0.264205 58.3695 0.34375 58.6578 0.502841C58.9495 0.658617 59.1749 0.840909 59.334 1.04972C59.4964 1.25852 59.6223 1.44247 59.7118 1.60156H59.8361V0.363636H61.2878V10.8636H59.8013ZM57.8326 6.88139C58.2601 6.88139 58.6214 6.7687 58.9164 6.54332C59.2147 6.31463 59.44 5.99811 59.5925 5.59375C59.7483 5.18939 59.8262 4.71875 59.8262 4.18182C59.8262 3.65151 59.7499 3.1875 59.5975 2.78977C59.445 2.39205 59.2213 2.08215 58.9263 1.86009C58.6313 1.63802 58.2667 1.52699 57.8326 1.52699C57.3851 1.52699 57.0123 1.64299 56.714 1.875C56.4157 2.10701 56.1903 2.42353 56.0378 2.82457C55.8887 3.22562 55.8141 3.67803 55.8141 4.18182C55.8141 4.69223 55.8903 5.15128 56.0428 5.55895C56.1953 5.96662 56.4206 6.28977 56.7189 6.52841C57.0205 6.76373 57.3917 6.88139 57.8326 6.88139ZM68.1238 4.8331V0.363636H69.6152V8H68.1536V6.67756H68.074C67.8984 7.08523 67.6167 7.42495 67.2289 7.69673C66.8444 7.9652 66.3655 8.09943 65.7921 8.09943C65.3016 8.09943 64.8674 7.99171 64.4895 7.77628C64.115 7.55753 63.82 7.23438 63.6046 6.80682C63.3925 6.37926 63.2864 5.85062 63.2864 5.22088V0.363636H64.7729V5.0419C64.7729 5.56226 64.9171 5.97656 65.2054 6.2848C65.4938 6.59304 65.8683 6.74716 66.329 6.74716C66.6074 6.74716 66.8842 6.67756 67.1593 6.53835C67.4377 6.39915 67.668 6.18868 67.8503 5.90696C68.0359 5.62524 68.1271 5.26728 68.1238 4.8331ZM73.8349 8.16903C73.351 8.16903 72.9135 8.07955 72.5224 7.90057C72.1313 7.71828 71.8214 7.45478 71.5927 7.11009C71.3673 6.76539 71.2546 6.3428 71.2546 5.84233C71.2546 5.41146 71.3375 5.05682 71.5032 4.77841C71.6689 4.5 71.8926 4.27959 72.1744 4.11719C72.4561 3.95478 72.771 3.83215 73.119 3.74929C73.467 3.66643 73.8216 3.60346 74.1829 3.56037C74.6403 3.50734 75.0115 3.46425 75.2965 3.43111C75.5816 3.39465 75.7887 3.33665 75.918 3.2571C76.0472 3.17756 76.1119 3.0483 76.1119 2.86932V2.83452C76.1119 2.40033 75.9892 2.06392 75.744 1.82528C75.502 1.58665 75.1407 1.46733 74.6602 1.46733C74.1597 1.46733 73.7653 1.57836 73.4769 1.80043C73.1919 2.01918 72.9947 2.26278 72.8853 2.53125L71.4883 2.21307C71.654 1.74905 71.896 1.37453 72.2141 1.08949C72.5356 0.801136 72.9052 0.592329 73.3228 0.463068C73.7404 0.330492 74.1796 0.264205 74.6403 0.264205C74.9452 0.264205 75.2683 0.300663 75.6097 0.37358C75.9544 0.443182 76.2759 0.572443 76.5742 0.761363C76.8758 0.950284 77.1228 1.22041 77.315 1.57173C77.5072 1.91974 77.6033 2.37216 77.6033 2.92898V8H76.1516V6.95597H76.092C75.9959 7.1482 75.8517 7.33712 75.6594 7.52273C75.4672 7.70833 75.2203 7.86245 74.9187 7.98509C74.6171 8.10772 74.2558 8.16903 73.8349 8.16903ZM74.158 6.97585C74.569 6.97585 74.9203 6.89465 75.212 6.73224C75.507 6.56984 75.7307 6.35772 75.8832 6.09588C76.0389 5.83073 76.1168 5.54735 76.1168 5.24574V4.26136C76.0638 4.31439 75.9611 4.36411 75.8086 4.41051C75.6594 4.4536 75.4888 4.49171 75.2965 4.52486C75.1043 4.55469 74.917 4.58286 74.7347 4.60938C74.5524 4.63258 74.4 4.65246 74.2773 4.66903C73.989 4.70549 73.7255 4.76681 73.4869 4.85298C73.2515 4.93916 73.0626 5.06345 72.9201 5.22585C72.7809 5.38494 72.7113 5.59706 72.7113 5.86222C72.7113 6.23011 72.8472 6.50852 73.119 6.69744C73.3907 6.88305 73.7371 6.97585 74.158 6.97585ZM79.5833 8V0.363636H81.0201V1.5767H81.0996C81.2388 1.16572 81.4841 0.842566 81.8354 0.607244C82.19 0.368608 82.5911 0.249289 83.0385 0.249289C83.1313 0.249289 83.2407 0.252604 83.3667 0.259233C83.4959 0.265861 83.597 0.274147 83.6699 0.284091V1.70597C83.6103 1.68939 83.5042 1.67116 83.3517 1.65128C83.1993 1.62808 83.0468 1.61648 82.8944 1.61648C82.543 1.61648 82.2298 1.69105 81.9547 1.8402C81.6829 1.98603 81.4675 2.18987 81.3084 2.4517C81.1493 2.71023 81.0698 3.00521 81.0698 3.33665V8H79.5833ZM87.9741 8.15412C87.2217 8.15412 86.5737 7.99337 86.0302 7.67188C85.4899 7.34706 85.0723 6.89134 84.7773 6.30469C84.4857 5.71473 84.3398 5.02367 84.3398 4.23153C84.3398 3.44934 84.4857 2.75994 84.7773 2.16335C85.0723 1.56676 85.4833 1.10109 86.0103 0.766335C86.5406 0.431581 87.1604 0.264205 87.8697 0.264205C88.3005 0.264205 88.7182 0.335464 89.1225 0.477983C89.5269 0.620502 89.8898 0.844223 90.2113 1.14915C90.5328 1.45407 90.7863 1.85014 90.9719 2.33736C91.1576 2.82126 91.2504 3.40956 91.2504 4.10227V4.62926H85.18V3.51562H89.7937C89.7937 3.12453 89.7141 2.77817 89.555 2.47656C89.396 2.17164 89.1722 1.93134 88.8839 1.75568C88.5988 1.58002 88.2641 1.49219 87.8796 1.49219C87.462 1.49219 87.0974 1.59493 86.7859 1.80043C86.4776 2.0026 86.239 2.26776 86.07 2.59588C85.9042 2.92069 85.8214 3.27367 85.8214 3.65483V4.52486C85.8214 5.03527 85.9109 5.46946 86.0898 5.82741C86.2721 6.18537 86.5257 6.45881 86.8505 6.64773C87.1753 6.83333 87.5548 6.92614 87.989 6.92614C88.2707 6.92614 88.5276 6.88636 88.7596 6.80682C88.9916 6.72396 89.1921 6.60133 89.3612 6.43892C89.5302 6.27652 89.6594 6.07599 89.7489 5.83736L91.1559 6.09091C91.0432 6.50521 90.841 6.86813 90.5494 7.17969C90.261 7.48793 89.8981 7.72822 89.4606 7.90057C89.0264 8.0696 88.5309 8.15412 87.9741 8.15412Z" fill="black"/>
</svg>
