<svg width="63" height="15" viewBox="0 0 63 15" fill="none" xmlns="http://www.w3.org/2000/svg">
<path d="M6.72159 5.22798L5.37429 5.46662C5.31795 5.29427 5.22846 5.13021 5.10582 4.97443C4.98651 4.81865 4.8241 4.69105 4.61861 4.59162C4.41312 4.49219 4.15625 4.44247 3.84801 4.44247C3.42708 4.44247 3.07576 4.53693 2.79403 4.72585C2.51231 4.91146 2.37145 5.15175 2.37145 5.44673C2.37145 5.70194 2.46591 5.90743 2.65483 6.06321C2.84375 6.21899 3.14867 6.34659 3.5696 6.44602L4.78267 6.72443C5.48532 6.88684 6.009 7.13707 6.35369 7.47514C6.69839 7.81321 6.87074 8.25237 6.87074 8.79261C6.87074 9.25 6.73816 9.65767 6.47301 10.0156C6.21117 10.3703 5.84493 10.6487 5.37429 10.8509C4.90696 11.053 4.36506 11.1541 3.74858 11.1541C2.89347 11.1541 2.19579 10.9718 1.65554 10.6072C1.11529 10.2393 0.783854 9.71733 0.661222 9.04119L2.09801 8.82244C2.1875 9.19697 2.37145 9.48035 2.64986 9.67259C2.92827 9.86151 3.29119 9.95597 3.73864 9.95597C4.22585 9.95597 4.61529 9.85488 4.90696 9.6527C5.19863 9.44721 5.34446 9.19697 5.34446 8.90199C5.34446 8.66335 5.25497 8.46283 5.07599 8.30043C4.90033 8.13802 4.63021 8.01539 4.26562 7.93253L2.97301 7.64915C2.26042 7.48674 1.73343 7.22822 1.39205 6.87358C1.05398 6.51894 0.884943 6.06984 0.884943 5.52628C0.884943 5.07552 1.01089 4.68111 1.26278 4.34304C1.51468 4.00497 1.86269 3.74148 2.30682 3.55256C2.75095 3.36032 3.25971 3.2642 3.8331 3.2642C4.65838 3.2642 5.308 3.44318 5.78196 3.80114C6.25592 4.15578 6.56913 4.63139 6.72159 5.22798ZM8.50515 11V3.36364H9.99165V11H8.50515ZM9.25586 2.18537C8.99734 2.18537 8.77527 2.09919 8.58967 1.92685C8.40737 1.75118 8.31623 1.54238 8.31623 1.30043C8.31623 1.05516 8.40737 0.846354 8.58967 0.674005C8.77527 0.498342 8.99734 0.410511 9.25586 0.410511C9.51438 0.410511 9.73479 0.498342 9.91708 0.674005C10.1027 0.846354 10.1955 1.05516 10.1955 1.30043C10.1955 1.54238 10.1027 1.75118 9.91708 1.92685C9.73479 2.09919 9.51438 2.18537 9.25586 2.18537ZM15.1932 14.0227C14.5866 14.0227 14.0646 13.9432 13.6271 13.7841C13.1929 13.625 12.8383 13.4145 12.5632 13.1527C12.2881 12.8909 12.0826 12.6042 11.9467 12.2926L13.2244 11.7656C13.3139 11.9115 13.4332 12.0656 13.5824 12.228C13.7348 12.3937 13.9403 12.5346 14.1989 12.6506C14.4607 12.7666 14.7971 12.8246 15.2081 12.8246C15.7715 12.8246 16.2372 12.687 16.6051 12.4119C16.973 12.1402 17.157 11.706 17.157 11.1094V9.60795H17.0625C16.973 9.77036 16.8438 9.95099 16.6747 10.1499C16.509 10.3487 16.2803 10.5211 15.9886 10.6669C15.697 10.8127 15.3175 10.8857 14.8501 10.8857C14.2469 10.8857 13.7034 10.7448 13.2195 10.4631C12.7389 10.178 12.3577 9.75876 12.076 9.20526C11.7976 8.64844 11.6584 7.96401 11.6584 7.15199C11.6584 6.33996 11.7959 5.64394 12.071 5.06392C12.3494 4.4839 12.7306 4.03977 13.2145 3.73153C13.6984 3.41998 14.2469 3.2642 14.8601 3.2642C15.334 3.2642 15.7169 3.34375 16.0085 3.50284C16.3002 3.65862 16.5272 3.84091 16.6896 4.04972C16.8554 4.25852 16.983 4.44247 17.0724 4.60156H17.1818V3.36364H18.6385V11.169C18.6385 11.8253 18.486 12.3639 18.1811 12.7848C17.8762 13.2057 17.4635 13.5173 16.9432 13.7195C16.4261 13.9216 15.8428 14.0227 15.1932 14.0227ZM15.1783 9.6527C15.6058 9.6527 15.9671 9.55327 16.2621 9.3544C16.5604 9.15223 16.7857 8.86387 16.9382 8.48935C17.094 8.11151 17.1719 7.65909 17.1719 7.1321C17.1719 6.61837 17.0956 6.16596 16.9432 5.77486C16.7907 5.38376 16.567 5.07884 16.272 4.86009C15.977 4.63802 15.6125 4.52699 15.1783 4.52699C14.7308 4.52699 14.358 4.64299 14.0597 4.875C13.7614 5.10369 13.536 5.41525 13.3835 5.80966C13.2344 6.20407 13.1598 6.64489 13.1598 7.1321C13.1598 7.63258 13.236 8.07173 13.3885 8.44957C13.541 8.82741 13.7663 9.1224 14.0646 9.33452C14.3662 9.54664 14.7375 9.6527 15.1783 9.6527ZM22.1186 6.46591V11H20.6321V3.36364H22.0589V4.60653H22.1534C22.3291 4.20218 22.6042 3.87737 22.9787 3.6321C23.3565 3.38684 23.8321 3.2642 24.4055 3.2642C24.9259 3.2642 25.3816 3.37358 25.7727 3.59233C26.1638 3.80777 26.4671 4.12926 26.6825 4.55682C26.898 4.98437 27.0057 5.51302 27.0057 6.14276V11H25.5192V6.32173C25.5192 5.76823 25.375 5.3357 25.0866 5.02415C24.7983 4.70928 24.4022 4.55185 23.8984 4.55185C23.5537 4.55185 23.2472 4.62642 22.9787 4.77557C22.7135 4.92472 22.5031 5.14347 22.3473 5.43182C22.1948 5.71686 22.1186 6.06155 22.1186 6.46591ZM31.2216 11.169C30.7377 11.169 30.3002 11.0795 29.9091 10.9006C29.518 10.7183 29.2081 10.4548 28.9794 10.1101C28.754 9.76539 28.6413 9.3428 28.6413 8.84233C28.6413 8.41146 28.7242 8.05682 28.8899 7.77841C29.0556 7.5 29.2794 7.27959 29.5611 7.11719C29.8428 6.95478 30.1577 6.83215 30.5057 6.74929C30.8537 6.66643 31.2083 6.60346 31.5696 6.56037C32.027 6.50734 32.3982 6.46425 32.6832 6.43111C32.9683 6.39465 33.1754 6.33665 33.3047 6.2571C33.4339 6.17756 33.4986 6.0483 33.4986 5.86932V5.83452C33.4986 5.40033 33.3759 5.06392 33.1307 4.82528C32.8887 4.58665 32.5275 4.46733 32.0469 4.46733C31.5464 4.46733 31.152 4.57836 30.8636 4.80043C30.5786 5.01918 30.3814 5.26278 30.272 5.53125L28.875 5.21307C29.0407 4.74905 29.2827 4.37453 29.6009 4.08949C29.9223 3.80114 30.2919 3.59233 30.7095 3.46307C31.1271 3.33049 31.5663 3.2642 32.027 3.2642C32.3319 3.2642 32.6551 3.30066 32.9964 3.37358C33.3411 3.44318 33.6626 3.57244 33.9609 3.76136C34.2625 3.95028 34.5095 4.22041 34.7017 4.57173C34.8939 4.91974 34.9901 5.37216 34.9901 5.92898V11H33.5384V9.95597H33.4787C33.3826 10.1482 33.2384 10.3371 33.0462 10.5227C32.8539 10.7083 32.607 10.8625 32.3054 10.9851C32.0038 11.1077 31.6425 11.169 31.2216 11.169ZM31.5447 9.97585C31.9557 9.97585 32.3071 9.89465 32.5987 9.73224C32.8937 9.56984 33.1174 9.35772 33.2699 9.09588C33.4257 8.83073 33.5036 8.54735 33.5036 8.24574V7.26136C33.4505 7.31439 33.3478 7.36411 33.1953 7.41051C33.0462 7.4536 32.8755 7.49171 32.6832 7.52486C32.491 7.55469 32.3037 7.58286 32.1214 7.60938C31.9392 7.63258 31.7867 7.65246 31.6641 7.66903C31.3757 7.70549 31.1122 7.76681 30.8736 7.85298C30.6383 7.93916 30.4493 8.06345 30.3068 8.22585C30.1676 8.38494 30.098 8.59706 30.098 8.86222C30.098 9.23011 30.2339 9.50852 30.5057 9.69744C30.7775 9.88305 31.1238 9.97585 31.5447 9.97585ZM38.4565 0.818182V11H36.97V0.818182H38.4565ZM44.9556 6.05327V7.34091H40.4414V6.05327H44.9556ZM50.4616 11.169C49.6761 11.1657 49.005 10.9586 48.4482 10.5476C47.8913 10.1366 47.4654 9.53835 47.1705 8.75284C46.8755 7.96733 46.728 7.02107 46.728 5.91406C46.728 4.81037 46.8755 3.86742 47.1705 3.08523C47.4688 2.30303 47.8963 1.70644 48.4531 1.29545C49.0133 0.884469 49.6828 0.678977 50.4616 0.678977C51.2405 0.678977 51.9084 0.886126 52.4652 1.30043C53.022 1.71141 53.4479 2.308 53.7429 3.0902C54.0412 3.86908 54.1903 4.81037 54.1903 5.91406C54.1903 7.02438 54.0429 7.9723 53.7479 8.75781C53.4529 9.54001 53.027 10.1383 52.4702 10.5526C51.9134 10.9635 51.2438 11.169 50.4616 11.169ZM50.4616 9.84162C51.151 9.84162 51.6896 9.50521 52.0774 8.83239C52.4685 8.15956 52.6641 7.18679 52.6641 5.91406C52.6641 5.06889 52.5746 4.35464 52.3956 3.77131C52.2199 3.18466 51.9664 2.74053 51.6349 2.43892C51.3068 2.134 50.9157 1.98153 50.4616 1.98153C49.7756 1.98153 49.237 2.3196 48.8459 2.99574C48.4548 3.67187 48.2576 4.64465 48.2543 5.91406C48.2543 6.76255 48.3421 7.48011 48.5178 8.06676C48.6967 8.65009 48.9503 9.09257 49.2784 9.39418C49.6065 9.69247 50.0009 9.84162 50.4616 9.84162ZM55.954 11V9.88636L59.3993 6.31676C59.7672 5.92898 60.0705 5.58925 60.3091 5.29759C60.5511 5.0026 60.7317 4.72254 60.851 4.45739C60.9703 4.19223 61.03 3.91051 61.03 3.61222C61.03 3.27415 60.9505 2.98248 60.7914 2.73722C60.6323 2.48864 60.4152 2.29806 60.1401 2.16548C59.865 2.02959 59.5551 1.96165 59.2104 1.96165C58.8458 1.96165 58.5276 2.03622 58.2559 2.18537C57.9841 2.33452 57.7753 2.54498 57.6294 2.81676C57.4836 3.08854 57.4107 3.40672 57.4107 3.77131H55.9441C55.9441 3.15151 56.0866 2.60961 56.3716 2.1456C56.6567 1.68158 57.0478 1.32197 57.5449 1.06676C58.0421 0.808238 58.6072 0.678977 59.2402 0.678977C59.8799 0.678977 60.4434 0.806581 60.9306 1.06179C61.4211 1.31368 61.8039 1.65838 62.079 2.09588C62.3541 2.53007 62.4917 3.0206 62.4917 3.56747C62.4917 3.94531 62.4204 4.31487 62.2779 4.67614C62.1387 5.0374 61.8951 5.4401 61.5471 5.88423C61.199 6.32505 60.7151 6.86032 60.0953 7.49006L58.0719 9.60795V9.68253H62.6557V11H55.954Z" fill="black"/>
</svg>
