<svg width="125" height="12" viewBox="0 0 125 12" fill="none" xmlns="http://www.w3.org/2000/svg">
<path d="M0.118608 11V0.818182H1.60511V4.60156H1.6946C1.78078 4.44247 1.90507 4.25852 2.06747 4.04972C2.22988 3.84091 2.45526 3.65862 2.74361 3.50284C3.03196 3.34375 3.41312 3.2642 3.88707 3.2642C4.50355 3.2642 5.05374 3.41998 5.53764 3.73153C6.02154 4.04309 6.40104 4.49219 6.67614 5.07884C6.95455 5.66548 7.09375 6.37145 7.09375 7.19673C7.09375 8.02202 6.9562 8.72964 6.68111 9.3196C6.40601 9.90625 6.02817 10.3587 5.54759 10.6768C5.067 10.9917 4.51847 11.1491 3.90199 11.1491C3.43797 11.1491 3.05848 11.0713 2.76349 10.9155C2.47183 10.7597 2.24313 10.5774 2.07741 10.3686C1.9117 10.1598 1.78409 9.9742 1.6946 9.81179H1.57031V11H0.118608ZM1.57528 7.18182C1.57528 7.71875 1.65317 8.18939 1.80895 8.59375C1.96473 8.99811 2.1901 9.31463 2.48509 9.54332C2.78007 9.7687 3.14134 9.88139 3.56889 9.88139C4.01302 9.88139 4.38423 9.76373 4.68253 9.52841C4.98082 9.28977 5.2062 8.96662 5.35866 8.55895C5.51444 8.15128 5.59233 7.69223 5.59233 7.18182C5.59233 6.67803 5.5161 6.22562 5.36364 5.82457C5.21449 5.42353 4.98911 5.10701 4.6875 4.875C4.3892 4.64299 4.01634 4.52699 3.56889 4.52699C3.13802 4.52699 2.77344 4.63802 2.47514 4.86009C2.18016 5.08215 1.95644 5.39205 1.80398 5.78977C1.65152 6.1875 1.57528 6.65151 1.57528 7.18182ZM10.2495 0.818182V11H8.76296V0.818182H10.2495ZM17.0866 7.8331V3.36364H18.5781V11H17.1165V9.67756H17.0369C16.8613 10.0852 16.5795 10.425 16.1918 10.6967C15.8073 10.9652 15.3284 11.0994 14.755 11.0994C14.2644 11.0994 13.8303 10.9917 13.4524 10.7763C13.0779 10.5575 12.7829 10.2344 12.5675 9.80682C12.3554 9.37926 12.2493 8.85062 12.2493 8.22088V3.36364H13.7358V8.0419C13.7358 8.56226 13.88 8.97656 14.1683 9.2848C14.4567 9.59304 14.8312 9.74716 15.2919 9.74716C15.5703 9.74716 15.8471 9.67756 16.1222 9.53835C16.4006 9.39915 16.6309 9.18868 16.8132 8.90696C16.9988 8.62524 17.09 8.26728 17.0866 7.8331ZM23.8667 11.1541C23.1143 11.1541 22.4663 10.9934 21.9228 10.6719C21.3825 10.3471 20.9649 9.89134 20.6699 9.30469C20.3783 8.71473 20.2324 8.02367 20.2324 7.23153C20.2324 6.44934 20.3783 5.75994 20.6699 5.16335C20.9649 4.56676 21.3759 4.10109 21.9029 3.76633C22.4332 3.43158 23.053 3.2642 23.7623 3.2642C24.1931 3.2642 24.6107 3.33546 25.0151 3.47798C25.4194 3.6205 25.7824 3.84422 26.1039 4.14915C26.4254 4.45407 26.6789 4.85014 26.8645 5.33736C27.0501 5.82126 27.1429 6.40956 27.1429 7.10227V7.62926H21.0726V6.51562H25.6863C25.6863 6.12453 25.6067 5.77817 25.4476 5.47656C25.2885 5.17164 25.0648 4.93134 24.7765 4.75568C24.4914 4.58002 24.1567 4.49219 23.7722 4.49219C23.3546 4.49219 22.99 4.59493 22.6784 4.80043C22.3702 5.0026 22.1316 5.26776 21.9625 5.59588C21.7968 5.92069 21.714 6.27367 21.714 6.65483V7.52486C21.714 8.03527 21.8034 8.46946 21.9824 8.82741C22.1647 9.18537 22.4183 9.45881 22.7431 9.64773C23.0679 9.83333 23.4474 9.92614 23.8816 9.92614C24.1633 9.92614 24.4202 9.88636 24.6522 9.80682C24.8842 9.72396 25.0847 9.60133 25.2537 9.43892C25.4228 9.27652 25.552 9.07599 25.6415 8.83736L27.0485 9.09091C26.9358 9.50521 26.7336 9.86813 26.4419 10.1797C26.1536 10.4879 25.7907 10.7282 25.3532 10.9006C24.919 11.0696 24.4235 11.1541 23.8667 11.1541ZM32.3569 3.36364V4.55682H28.1857V3.36364H32.3569ZM29.3043 1.53409H30.7908V8.75781C30.7908 9.04616 30.8339 9.26326 30.9201 9.40909C31.0063 9.55161 31.1173 9.64938 31.2532 9.70241C31.3924 9.75213 31.5432 9.77699 31.7056 9.77699C31.8249 9.77699 31.9293 9.7687 32.0188 9.75213C32.1083 9.73556 32.1779 9.7223 32.2276 9.71236L32.4961 10.9403C32.4099 10.9735 32.2873 11.0066 32.1282 11.0398C31.9691 11.0762 31.7702 11.0961 31.5316 11.0994C31.1405 11.1061 30.7759 11.0365 30.4379 10.8906C30.0998 10.7448 29.8263 10.5194 29.6175 10.2145C29.4087 9.90956 29.3043 9.52675 29.3043 9.06605V1.53409ZM37.1358 11.1541C36.4199 11.1541 35.7952 10.9901 35.2615 10.6619C34.7279 10.3338 34.3136 9.87476 34.0186 9.2848C33.7237 8.69484 33.5762 8.00544 33.5762 7.21662C33.5762 6.42448 33.7237 5.73177 34.0186 5.13849C34.3136 4.54522 34.7279 4.08452 35.2615 3.75639C35.7952 3.42827 36.4199 3.2642 37.1358 3.2642C37.8517 3.2642 38.4765 3.42827 39.0101 3.75639C39.5437 4.08452 39.958 4.54522 40.253 5.13849C40.548 5.73177 40.6955 6.42448 40.6955 7.21662C40.6955 8.00544 40.548 8.69484 40.253 9.2848C39.958 9.87476 39.5437 10.3338 39.0101 10.6619C38.4765 10.9901 37.8517 11.1541 37.1358 11.1541ZM37.1408 9.90625C37.6048 9.90625 37.9893 9.78362 38.2942 9.53835C38.5991 9.29309 38.8245 8.96662 38.9703 8.55895C39.1195 8.15128 39.1941 7.70218 39.1941 7.21165C39.1941 6.72443 39.1195 6.27699 38.9703 5.86932C38.8245 5.45833 38.5991 5.12855 38.2942 4.87997C37.9893 4.63139 37.6048 4.5071 37.1408 4.5071C36.6735 4.5071 36.2857 4.63139 35.9775 4.87997C35.6725 5.12855 35.4455 5.45833 35.2963 5.86932C35.1505 6.27699 35.0776 6.72443 35.0776 7.21165C35.0776 7.70218 35.1505 8.15128 35.2963 8.55895C35.4455 8.96662 35.6725 9.29309 35.9775 9.53835C36.2857 9.78362 36.6735 9.90625 37.1408 9.90625ZM45.5714 11.1541C44.8555 11.1541 44.2307 10.9901 43.6971 10.6619C43.1635 10.3338 42.7492 9.87476 42.4542 9.2848C42.1592 8.69484 42.0117 8.00544 42.0117 7.21662C42.0117 6.42448 42.1592 5.73177 42.4542 5.13849C42.7492 4.54522 43.1635 4.08452 43.6971 3.75639C44.2307 3.42827 44.8555 3.2642 45.5714 3.2642C46.2873 3.2642 46.9121 3.42827 47.4457 3.75639C47.9793 4.08452 48.3936 4.54522 48.6886 5.13849C48.9835 5.73177 49.131 6.42448 49.131 7.21662C49.131 8.00544 48.9835 8.69484 48.6886 9.2848C48.3936 9.87476 47.9793 10.3338 47.4457 10.6619C46.9121 10.9901 46.2873 11.1541 45.5714 11.1541ZM45.5763 9.90625C46.0404 9.90625 46.4248 9.78362 46.7298 9.53835C47.0347 9.29309 47.2601 8.96662 47.4059 8.55895C47.555 8.15128 47.6296 7.70218 47.6296 7.21165C47.6296 6.72443 47.555 6.27699 47.4059 5.86932C47.2601 5.45833 47.0347 5.12855 46.7298 4.87997C46.4248 4.63139 46.0404 4.5071 45.5763 4.5071C45.109 4.5071 44.7212 4.63139 44.413 4.87997C44.1081 5.12855 43.881 5.45833 43.7319 5.86932C43.5861 6.27699 43.5131 6.72443 43.5131 7.21165C43.5131 7.70218 43.5861 8.15128 43.7319 8.55895C43.881 8.96662 44.1081 9.29309 44.413 9.53835C44.7212 9.78362 45.109 9.90625 45.5763 9.90625ZM54.3549 3.36364V4.55682H50.1838V3.36364H54.3549ZM51.3024 1.53409H52.7889V8.75781C52.7889 9.04616 52.832 9.26326 52.9181 9.40909C53.0043 9.55161 53.1154 9.64938 53.2512 9.70241C53.3904 9.75213 53.5413 9.77699 53.7037 9.77699C53.823 9.77699 53.9274 9.7687 54.0169 9.75213C54.1064 9.73556 54.176 9.7223 54.2257 9.71236L54.4941 10.9403C54.408 10.9735 54.2853 11.0066 54.1262 11.0398C53.9672 11.0762 53.7683 11.0961 53.5297 11.0994C53.1386 11.1061 52.774 11.0365 52.4359 10.8906C52.0978 10.7448 51.8244 10.5194 51.6156 10.2145C51.4068 9.90956 51.3024 9.52675 51.3024 9.06605V1.53409ZM57.6499 6.46591V11H56.1634V0.818182H57.63V4.60653H57.7244C57.9034 4.19555 58.1768 3.86908 58.5447 3.62713C58.9126 3.38518 59.3932 3.2642 59.9865 3.2642C60.5102 3.2642 60.9676 3.37192 61.3587 3.58736C61.7531 3.80279 62.058 4.12429 62.2734 4.55185C62.4922 4.97609 62.6016 5.50639 62.6016 6.14276V11H61.1151V6.32173C61.1151 5.7616 60.9709 5.32741 60.6825 5.01918C60.3942 4.70762 59.9931 4.55185 59.4794 4.55185C59.1281 4.55185 58.8132 4.62642 58.5348 4.77557C58.2597 4.92472 58.0426 5.14347 57.8835 5.43182C57.7277 5.71686 57.6499 6.06155 57.6499 6.46591ZM69.0845 6.05327V7.34091H64.5703V6.05327H69.0845ZM74.2823 11.1541C73.5432 11.1541 72.9068 10.9867 72.3732 10.652C71.8429 10.3139 71.4353 9.84825 71.1502 9.25497C70.8652 8.66169 70.7227 7.98224 70.7227 7.21662C70.7227 6.44105 70.8685 5.75663 71.1602 5.16335C71.4518 4.56676 71.8628 4.10109 72.3931 3.76633C72.9234 3.43158 73.5482 3.2642 74.2674 3.2642C74.8474 3.2642 75.3645 3.37192 75.8185 3.58736C76.2726 3.79948 76.6388 4.09777 76.9173 4.48224C77.199 4.86671 77.3664 5.31581 77.4194 5.82955H75.9727C75.8931 5.47159 75.7108 5.16335 75.4258 4.90483C75.1441 4.64631 74.7662 4.51705 74.2923 4.51705C73.878 4.51705 73.515 4.62642 73.2035 4.84517C72.8952 5.06061 72.6549 5.36884 72.4826 5.76989C72.3103 6.16761 72.2241 6.63826 72.2241 7.18182C72.2241 7.73864 72.3086 8.21922 72.4776 8.62358C72.6467 9.02794 72.8853 9.34115 73.1935 9.56321C73.5051 9.78527 73.8713 9.89631 74.2923 9.89631C74.574 9.89631 74.8292 9.84493 75.0579 9.74219C75.2899 9.63613 75.4838 9.48532 75.6396 9.28977C75.7987 9.09422 75.9097 8.8589 75.9727 8.58381H77.4194C77.3664 9.07765 77.2056 9.51847 76.9371 9.90625C76.6687 10.294 76.3091 10.599 75.8583 10.821C75.4109 11.0431 74.8855 11.1541 74.2823 11.1541ZM82.2257 11.1541C81.5098 11.1541 80.885 10.9901 80.3514 10.6619C79.8178 10.3338 79.4035 9.87476 79.1085 9.2848C78.8135 8.69484 78.666 8.00544 78.666 7.21662C78.666 6.42448 78.8135 5.73177 79.1085 5.13849C79.4035 4.54522 79.8178 4.08452 80.3514 3.75639C80.885 3.42827 81.5098 3.2642 82.2257 3.2642C82.9416 3.2642 83.5663 3.42827 84.1 3.75639C84.6336 4.08452 85.0479 4.54522 85.3429 5.13849C85.6378 5.73177 85.7853 6.42448 85.7853 7.21662C85.7853 8.00544 85.6378 8.69484 85.3429 9.2848C85.0479 9.87476 84.6336 10.3338 84.1 10.6619C83.5663 10.9901 82.9416 11.1541 82.2257 11.1541ZM82.2306 9.90625C82.6947 9.90625 83.0791 9.78362 83.3841 9.53835C83.689 9.29309 83.9144 8.96662 84.0602 8.55895C84.2093 8.15128 84.2839 7.70218 84.2839 7.21165C84.2839 6.72443 84.2093 6.27699 84.0602 5.86932C83.9144 5.45833 83.689 5.12855 83.3841 4.87997C83.0791 4.63139 82.6947 4.5071 82.2306 4.5071C81.7633 4.5071 81.3755 4.63139 81.0673 4.87997C80.7624 5.12855 80.5353 5.45833 80.3862 5.86932C80.2404 6.27699 80.1674 6.72443 80.1674 7.21165C80.1674 7.70218 80.2404 8.15128 80.3862 8.55895C80.5353 8.96662 80.7624 9.29309 81.0673 9.53835C81.3755 9.78362 81.7633 9.90625 82.2306 9.90625ZM88.9311 6.46591V11H87.4446V3.36364H88.8714V4.60653H88.9659C89.1416 4.20218 89.4167 3.87737 89.7912 3.6321C90.169 3.38684 90.6446 3.2642 91.218 3.2642C91.7384 3.2642 92.1941 3.37358 92.5852 3.59233C92.9763 3.80777 93.2796 4.12926 93.495 4.55682C93.7105 4.98437 93.8182 5.51302 93.8182 6.14276V11H92.3317V6.32173C92.3317 5.76823 92.1875 5.3357 91.8991 5.02415C91.6108 4.70928 91.2147 4.55185 90.7109 4.55185C90.3662 4.55185 90.0597 4.62642 89.7912 4.77557C89.526 4.92472 89.3156 5.14347 89.1598 5.43182C89.0073 5.71686 88.9311 6.06155 88.9311 6.46591ZM97.2983 6.46591V11H95.8118V3.36364H97.2386V4.60653H97.3331C97.5088 4.20218 97.7839 3.87737 98.1584 3.6321C98.5362 3.38684 99.0118 3.2642 99.5852 3.2642C100.106 3.2642 100.561 3.37358 100.952 3.59233C101.344 3.80777 101.647 4.12926 101.862 4.55682C102.078 4.98437 102.185 5.51302 102.185 6.14276V11H100.699V6.32173C100.699 5.76823 100.555 5.3357 100.266 5.02415C99.978 4.70928 99.5819 4.55185 99.0781 4.55185C98.7334 4.55185 98.4268 4.62642 98.1584 4.77557C97.8932 4.92472 97.6828 5.14347 97.527 5.43182C97.3745 5.71686 97.2983 6.06155 97.2983 6.46591ZM107.47 11.1541C106.718 11.1541 106.07 10.9934 105.526 10.6719C104.986 10.3471 104.568 9.89134 104.273 9.30469C103.982 8.71473 103.836 8.02367 103.836 7.23153C103.836 6.44934 103.982 5.75994 104.273 5.16335C104.568 4.56676 104.979 4.10109 105.506 3.76633C106.037 3.43158 106.656 3.2642 107.366 3.2642C107.797 3.2642 108.214 3.33546 108.619 3.47798C109.023 3.6205 109.386 3.84422 109.707 4.14915C110.029 4.45407 110.282 4.85014 110.468 5.33736C110.654 5.82126 110.746 6.40956 110.746 7.10227V7.62926H104.676V6.51562H109.29C109.29 6.12453 109.21 5.77817 109.051 5.47656C108.892 5.17164 108.668 4.93134 108.38 4.75568C108.095 4.58002 107.76 4.49219 107.376 4.49219C106.958 4.49219 106.594 4.59493 106.282 4.80043C105.974 5.0026 105.735 5.26776 105.566 5.59588C105.4 5.92069 105.317 6.27367 105.317 6.65483V7.52486C105.317 8.03527 105.407 8.46946 105.586 8.82741C105.768 9.18537 106.022 9.45881 106.347 9.64773C106.671 9.83333 107.051 9.92614 107.485 9.92614C107.767 9.92614 108.024 9.88636 108.256 9.80682C108.488 9.72396 108.688 9.60133 108.857 9.43892C109.026 9.27652 109.156 9.07599 109.245 8.83736L110.652 9.09091C110.539 9.50521 110.337 9.86813 110.045 10.1797C109.757 10.4879 109.394 10.7282 108.957 10.9006C108.522 11.0696 108.027 11.1541 107.47 11.1541ZM115.612 11.1541C114.873 11.1541 114.237 10.9867 113.703 10.652C113.173 10.3139 112.765 9.84825 112.48 9.25497C112.195 8.66169 112.053 7.98224 112.053 7.21662C112.053 6.44105 112.199 5.75663 112.49 5.16335C112.782 4.56676 113.193 4.10109 113.723 3.76633C114.253 3.43158 114.878 3.2642 115.597 3.2642C116.177 3.2642 116.695 3.37192 117.149 3.58736C117.603 3.79948 117.969 4.09777 118.247 4.48224C118.529 4.86671 118.696 5.31581 118.749 5.82955H117.303C117.223 5.47159 117.041 5.16335 116.756 4.90483C116.474 4.64631 116.096 4.51705 115.622 4.51705C115.208 4.51705 114.845 4.62642 114.534 4.84517C114.225 5.06061 113.985 5.36884 113.813 5.76989C113.64 6.16761 113.554 6.63826 113.554 7.18182C113.554 7.73864 113.639 8.21922 113.808 8.62358C113.977 9.02794 114.215 9.34115 114.524 9.56321C114.835 9.78527 115.201 9.89631 115.622 9.89631C115.904 9.89631 116.159 9.84493 116.388 9.74219C116.62 9.63613 116.814 9.48532 116.97 9.28977C117.129 9.09422 117.24 8.8589 117.303 8.58381H118.749C118.696 9.07765 118.536 9.51847 118.267 9.90625C117.999 10.294 117.639 10.599 117.188 10.821C116.741 11.0431 116.216 11.1541 115.612 11.1541ZM123.904 3.36364V4.55682H119.733V3.36364H123.904ZM120.851 1.53409H122.338V8.75781C122.338 9.04616 122.381 9.26326 122.467 9.40909C122.553 9.55161 122.664 9.64938 122.8 9.70241C122.939 9.75213 123.09 9.77699 123.252 9.77699C123.372 9.77699 123.476 9.7687 123.566 9.75213C123.655 9.73556 123.725 9.7223 123.775 9.71236L124.043 10.9403C123.957 10.9735 123.834 11.0066 123.675 11.0398C123.516 11.0762 123.317 11.0961 123.078 11.0994C122.687 11.1061 122.323 11.0365 121.985 10.8906C121.647 10.7448 121.373 10.5194 121.164 10.2145C120.956 9.90956 120.851 9.52675 120.851 9.06605V1.53409Z" fill="black"/>
</svg>
