<svg width="59" height="12" viewBox="0 0 59 12" fill="none" xmlns="http://www.w3.org/2000/svg">
<path d="M4.56392 3.36364V4.55682H0.392756V3.36364H4.56392ZM1.51136 1.53409H2.99787V8.75781C2.99787 9.04616 3.04096 9.26326 3.12713 9.40909C3.21331 9.55161 3.32434 9.64938 3.46023 9.70241C3.59943 9.75213 3.75024 9.77699 3.91264 9.77699C4.03196 9.77699 4.13636 9.7687 4.22585 9.75213C4.31534 9.73556 4.38494 9.7223 4.43466 9.71236L4.70312 10.9403C4.61695 10.9735 4.49432 11.0066 4.33523 11.0398C4.17614 11.0762 3.97727 11.0961 3.73864 11.0994C3.34754 11.1061 2.98295 11.0365 2.64489 10.8906C2.30682 10.7448 2.03338 10.5194 1.82457 10.2145C1.61577 9.90956 1.51136 9.52675 1.51136 9.06605V1.53409ZM8.43058 11.169C7.94667 11.169 7.50917 11.0795 7.11808 10.9006C6.72698 10.7183 6.41708 10.4548 6.18839 10.1101C5.96301 9.76539 5.85032 9.3428 5.85032 8.84233C5.85032 8.41146 5.93318 8.05682 6.0989 7.77841C6.26462 7.5 6.48834 7.27959 6.77006 7.11719C7.05179 6.95478 7.36665 6.83215 7.71467 6.74929C8.06268 6.66643 8.41732 6.60346 8.77859 6.56037C9.23597 6.50734 9.60719 6.46425 9.89222 6.43111C10.1773 6.39465 10.3844 6.33665 10.5137 6.2571C10.6429 6.17756 10.7076 6.0483 10.7076 5.86932V5.83452C10.7076 5.40033 10.5849 5.06392 10.3397 4.82528C10.0977 4.58665 9.73645 4.46733 9.25586 4.46733C8.75539 4.46733 8.36097 4.57836 8.07262 4.80043C7.78758 5.01918 7.59038 5.26278 7.481 5.53125L6.08398 5.21307C6.2497 4.74905 6.49165 4.37453 6.80984 4.08949C7.13133 3.80114 7.50089 3.59233 7.9185 3.46307C8.33612 3.33049 8.77527 3.2642 9.23597 3.2642C9.5409 3.2642 9.86405 3.30066 10.2054 3.37358C10.5501 3.44318 10.8716 3.57244 11.1699 3.76136C11.4715 3.95028 11.7185 4.22041 11.9107 4.57173C12.1029 4.91974 12.199 5.37216 12.199 5.92898V11H10.7473V9.95597H10.6877C10.5916 10.1482 10.4474 10.3371 10.2551 10.5227C10.0629 10.7083 9.81599 10.8625 9.51438 10.9851C9.21277 11.1077 8.8515 11.169 8.43058 11.169ZM8.75373 9.97585C9.16471 9.97585 9.51604 9.89465 9.80771 9.73224C10.1027 9.56984 10.3264 9.35772 10.4789 9.09588C10.6346 8.83073 10.7125 8.54735 10.7125 8.24574V7.26136C10.6595 7.31439 10.5568 7.36411 10.4043 7.41051C10.2551 7.4536 10.0845 7.49171 9.89222 7.52486C9.69999 7.55469 9.51273 7.58286 9.33043 7.60938C9.14814 7.63258 8.99568 7.65246 8.87305 7.66903C8.58469 7.70549 8.3212 7.76681 8.08256 7.85298C7.84724 7.93916 7.65832 8.06345 7.5158 8.22585C7.3766 8.38494 7.307 8.59706 7.307 8.86222C7.307 9.23011 7.44289 9.50852 7.71467 9.69744C7.98645 9.88305 8.3328 9.97585 8.75373 9.97585ZM14.2983 11V0.818182H15.7848V4.60156H15.8743C15.9605 4.44247 16.0848 4.25852 16.2472 4.04972C16.4096 3.84091 16.6349 3.65862 16.9233 3.50284C17.2116 3.34375 17.5928 3.2642 18.0668 3.2642C18.6832 3.2642 19.2334 3.41998 19.7173 3.73153C20.2012 4.04309 20.5807 4.49219 20.8558 5.07884C21.1342 5.66548 21.2734 6.37145 21.2734 7.19673C21.2734 8.02202 21.1359 8.72964 20.8608 9.3196C20.5857 9.90625 20.2079 10.3587 19.7273 10.6768C19.2467 10.9917 18.6982 11.1491 18.0817 11.1491C17.6177 11.1491 17.2382 11.0713 16.9432 10.9155C16.6515 10.7597 16.4228 10.5774 16.2571 10.3686C16.0914 10.1598 15.9638 9.9742 15.8743 9.81179H15.75V11H14.2983ZM15.755 7.18182C15.755 7.71875 15.8329 8.18939 15.9886 8.59375C16.1444 8.99811 16.3698 9.31463 16.6648 9.54332C16.9598 9.7687 17.321 9.88139 17.7486 9.88139C18.1927 9.88139 18.5639 9.76373 18.8622 9.52841C19.1605 9.28977 19.3859 8.96662 19.5384 8.55895C19.6941 8.15128 19.772 7.69223 19.772 7.18182C19.772 6.67803 19.6958 6.22562 19.5433 5.82457C19.3942 5.42353 19.1688 5.10701 18.8672 4.875C18.5689 4.64299 18.196 4.52699 17.7486 4.52699C17.3177 4.52699 16.9531 4.63802 16.6548 4.86009C16.3598 5.08215 16.1361 5.39205 15.9837 5.78977C15.8312 6.1875 15.755 6.65151 15.755 7.18182ZM24.4292 0.818182V11H22.9426V0.818182H24.4292ZM29.7202 11.1541C28.9678 11.1541 28.3198 10.9934 27.7763 10.6719C27.236 10.3471 26.8184 9.89134 26.5234 9.30469C26.2318 8.71473 26.0859 8.02367 26.0859 7.23153C26.0859 6.44934 26.2318 5.75994 26.5234 5.16335C26.8184 4.56676 27.2294 4.10109 27.7564 3.76633C28.2867 3.43158 28.9065 3.2642 29.6158 3.2642C30.0466 3.2642 30.4643 3.33546 30.8686 3.47798C31.273 3.6205 31.6359 3.84422 31.9574 4.14915C32.2789 4.45407 32.5324 4.85014 32.718 5.33736C32.9036 5.82126 32.9964 6.40956 32.9964 7.10227V7.62926H26.9261V6.51562H31.5398C31.5398 6.12453 31.4602 5.77817 31.3011 5.47656C31.142 5.17164 30.9183 4.93134 30.63 4.75568C30.3449 4.58002 30.0102 4.49219 29.6257 4.49219C29.2081 4.49219 28.8435 4.59493 28.532 4.80043C28.2237 5.0026 27.9851 5.26776 27.8161 5.59588C27.6503 5.92069 27.5675 6.27367 27.5675 6.65483V7.52486C27.5675 8.03527 27.657 8.46946 27.8359 8.82741C28.0182 9.18537 28.2718 9.45881 28.5966 9.64773C28.9214 9.83333 29.3009 9.92614 29.7351 9.92614C30.0168 9.92614 30.2737 9.88636 30.5057 9.80682C30.7377 9.72396 30.9382 9.60133 31.1072 9.43892C31.2763 9.27652 31.4055 9.07599 31.495 8.83736L32.902 9.09091C32.7893 9.50521 32.5871 9.86813 32.2955 10.1797C32.0071 10.4879 31.6442 10.7282 31.2067 10.9006C30.7725 11.0696 30.277 11.1541 29.7202 11.1541ZM38.2104 3.36364V4.55682H34.0392V3.36364H38.2104ZM35.1578 1.53409H36.6444V8.75781C36.6444 9.04616 36.6874 9.26326 36.7736 9.40909C36.8598 9.55161 36.9708 9.64938 37.1067 9.70241C37.2459 9.75213 37.3967 9.77699 37.5591 9.77699C37.6784 9.77699 37.7828 9.7687 37.8723 9.75213C37.9618 9.73556 38.0314 9.7223 38.0811 9.71236L38.3496 10.9403C38.2634 10.9735 38.1408 11.0066 37.9817 11.0398C37.8226 11.0762 37.6238 11.0961 37.3851 11.0994C36.994 11.1061 36.6294 11.0365 36.2914 10.8906C35.9533 10.7448 35.6799 10.5194 35.4711 10.2145C35.2623 9.90956 35.1578 9.52675 35.1578 9.06605V1.53409ZM44.0943 6.05327V7.34091H39.5801V6.05327H44.0943ZM49.6003 11.169C48.8148 11.1657 48.1436 10.9586 47.5868 10.5476C47.03 10.1366 46.6041 9.53835 46.3091 8.75284C46.0141 7.96733 45.8667 7.02107 45.8667 5.91406C45.8667 4.81037 46.0141 3.86742 46.3091 3.08523C46.6074 2.30303 47.035 1.70644 47.5918 1.29545C48.1519 0.884469 48.8214 0.678977 49.6003 0.678977C50.3792 0.678977 51.0471 0.886126 51.6039 1.30043C52.1607 1.71141 52.5866 2.308 52.8816 3.0902C53.1799 3.86908 53.329 4.81037 53.329 5.91406C53.329 7.02438 53.1815 7.9723 52.8865 8.75781C52.5916 9.54001 52.1657 10.1383 51.6088 10.5526C51.052 10.9635 50.3825 11.169 49.6003 11.169ZM49.6003 9.84162C50.2897 9.84162 50.8283 9.50521 51.2161 8.83239C51.6072 8.15956 51.8027 7.18679 51.8027 5.91406C51.8027 5.06889 51.7132 4.35464 51.5343 3.77131C51.3586 3.18466 51.1051 2.74053 50.7736 2.43892C50.4455 2.134 50.0544 1.98153 49.6003 1.98153C48.9142 1.98153 48.3757 2.3196 47.9846 2.99574C47.5935 3.67187 47.3962 4.64465 47.3929 5.91406C47.3929 6.76255 47.4808 7.48011 47.6564 8.06676C47.8354 8.65009 48.089 9.09257 48.4171 9.39418C48.7452 9.69247 49.1396 9.84162 49.6003 9.84162ZM58.9556 0.818182V11H57.4144V2.35938H57.3548L54.9187 3.95028V2.47869L57.4592 0.818182H58.9556Z" fill="black"/>
</svg>
