<svg width="81" height="15" viewBox="0 0 81 15" fill="none" xmlns="http://www.w3.org/2000/svg">
<path d="M1.4858 0.818182V11H-0.000710189V0.818182H1.4858ZM3.48562 11V3.36364H4.97212V11H3.48562ZM4.23633 2.18537C3.97781 2.18537 3.75574 2.09919 3.57013 1.92685C3.38784 1.75118 3.2967 1.54238 3.2967 1.30043C3.2967 1.05516 3.38784 0.846354 3.57013 0.674005C3.75574 0.498342 3.97781 0.410511 4.23633 0.410511C4.49485 0.410511 4.71526 0.498342 4.89755 0.674005C5.08316 0.846354 5.17596 1.05516 5.17596 1.30043C5.17596 1.54238 5.08316 1.75118 4.89755 1.92685C4.71526 2.09919 4.49485 2.18537 4.23633 2.18537ZM10.1737 14.0227C9.56712 14.0227 9.0451 13.9432 8.6076 13.7841C8.17341 13.625 7.81877 13.4145 7.54368 13.1527C7.26858 12.8909 7.06309 12.6042 6.9272 12.2926L8.2049 11.7656C8.29439 11.9115 8.41371 12.0656 8.56286 12.228C8.71532 12.3937 8.92081 12.5346 9.17933 12.6506C9.44117 12.7666 9.77758 12.8246 10.1886 12.8246C10.752 12.8246 11.2177 12.687 11.5856 12.4119C11.9535 12.1402 12.1374 11.706 12.1374 11.1094V9.60795H12.043C11.9535 9.77036 11.8242 9.95099 11.6552 10.1499C11.4895 10.3487 11.2608 10.5211 10.9691 10.6669C10.6774 10.8127 10.2979 10.8857 9.83061 10.8857C9.22739 10.8857 8.68383 10.7448 8.19993 10.4631C7.71934 10.178 7.33819 9.75876 7.05646 9.20526C6.77805 8.64844 6.63885 7.96401 6.63885 7.15199C6.63885 6.33996 6.7764 5.64394 7.05149 5.06392C7.3299 4.4839 7.71106 4.03977 8.19496 3.73153C8.67886 3.41998 9.22739 3.2642 9.84055 3.2642C10.3145 3.2642 10.6973 3.34375 10.989 3.50284C11.2807 3.65862 11.5077 3.84091 11.6701 4.04972C11.8358 4.25852 11.9634 4.44247 12.0529 4.60156H12.1623V3.36364H13.619V11.169C13.619 11.8253 13.4665 12.3639 13.1616 12.7848C12.8567 13.2057 12.444 13.5173 11.9237 13.7195C11.4066 13.9216 10.8233 14.0227 10.1737 14.0227ZM10.1587 9.6527C10.5863 9.6527 10.9476 9.55327 11.2425 9.3544C11.5408 9.15223 11.7662 8.86387 11.9187 8.48935C12.0745 8.11151 12.1523 7.65909 12.1523 7.1321C12.1523 6.61837 12.0761 6.16596 11.9237 5.77486C11.7712 5.38376 11.5475 5.07884 11.2525 4.86009C10.9575 4.63802 10.5929 4.52699 10.1587 4.52699C9.71129 4.52699 9.33842 4.64299 9.04013 4.875C8.74183 5.10369 8.51645 5.41525 8.36399 5.80966C8.21484 6.20407 8.14027 6.64489 8.14027 7.1321C8.14027 7.63258 8.2165 8.07173 8.36896 8.44957C8.52143 8.82741 8.7468 9.1224 9.0451 9.33452C9.34671 9.54664 9.71792 9.6527 10.1587 9.6527ZM17.0991 6.46591V11H15.6126V0.818182H17.0792V4.60653H17.1737C17.3526 4.19555 17.6261 3.86908 17.994 3.62713C18.3619 3.38518 18.8424 3.2642 19.4357 3.2642C19.9594 3.2642 20.4168 3.37192 20.8079 3.58736C21.2023 3.80279 21.5072 4.12429 21.7227 4.55185C21.9414 4.97609 22.0508 5.50639 22.0508 6.14276V11H20.5643V6.32173C20.5643 5.7616 20.4201 5.32741 20.1317 5.01918C19.8434 4.70762 19.4424 4.55185 18.9286 4.55185C18.5773 4.55185 18.2624 4.62642 17.984 4.77557C17.7089 4.92472 17.4918 5.14347 17.3327 5.43182C17.177 5.71686 17.0991 6.06155 17.0991 6.46591ZM27.5991 3.36364V4.55682H23.4279V3.36364H27.5991ZM24.5465 1.53409H26.033V8.75781C26.033 9.04616 26.0761 9.26326 26.1623 9.40909C26.2485 9.55161 26.3595 9.64938 26.4954 9.70241C26.6346 9.75213 26.7854 9.77699 26.9478 9.77699C27.0671 9.77699 27.1715 9.7687 27.261 9.75213C27.3505 9.73556 27.4201 9.7223 27.4698 9.71236L27.7383 10.9403C27.6521 10.9735 27.5295 11.0066 27.3704 11.0398C27.2113 11.0762 27.0124 11.0961 26.7738 11.0994C26.3827 11.1061 26.0181 11.0365 25.68 10.8906C25.342 10.7448 25.0685 10.5194 24.8597 10.2145C24.6509 9.90956 24.5465 9.52675 24.5465 9.06605V1.53409ZM29.5268 11V0.818182H31.0133V4.60156H31.1028C31.189 4.44247 31.3133 4.25852 31.4757 4.04972C31.6381 3.84091 31.8635 3.65862 32.1518 3.50284C32.4402 3.34375 32.8213 3.2642 33.2953 3.2642C33.9118 3.2642 34.4619 3.41998 34.9458 3.73153C35.4297 4.04309 35.8092 4.49219 36.0843 5.07884C36.3627 5.66548 36.502 6.37145 36.502 7.19673C36.502 8.02202 36.3644 8.72964 36.0893 9.3196C35.8142 9.90625 35.4364 10.3587 34.9558 10.6768C34.4752 10.9917 33.9267 11.1491 33.3102 11.1491C32.8462 11.1491 32.4667 11.0713 32.1717 10.9155C31.88 10.7597 31.6513 10.5774 31.4856 10.3686C31.3199 10.1598 31.1923 9.9742 31.1028 9.81179H30.9785V11H29.5268ZM30.9835 7.18182C30.9835 7.71875 31.0614 8.18939 31.2172 8.59375C31.3729 8.99811 31.5983 9.31463 31.8933 9.54332C32.1883 9.7687 32.5495 9.88139 32.9771 9.88139C33.4212 9.88139 33.7924 9.76373 34.0907 9.52841C34.389 9.28977 34.6144 8.96662 34.7669 8.55895C34.9226 8.15128 35.0005 7.69223 35.0005 7.18182C35.0005 6.67803 34.9243 6.22562 34.7718 5.82457C34.6227 5.42353 34.3973 5.10701 34.0957 4.875C33.7974 4.64299 33.4245 4.52699 32.9771 4.52699C32.5462 4.52699 32.1816 4.63802 31.8833 4.86009C31.5884 5.08215 31.3646 5.39205 31.2122 5.78977C31.0597 6.1875 30.9835 6.65151 30.9835 7.18182ZM43.0085 7.8331V3.36364H44.5V11H43.0384V9.67756H42.9588C42.7831 10.0852 42.5014 10.425 42.1136 10.6967C41.7292 10.9652 41.2502 11.0994 40.6768 11.0994C40.1863 11.0994 39.7521 10.9917 39.3743 10.7763C38.9998 10.5575 38.7048 10.2344 38.4893 9.80682C38.2772 9.37926 38.1712 8.85062 38.1712 8.22088V3.36364H39.6577V8.0419C39.6577 8.56226 39.8018 8.97656 40.0902 9.2848C40.3786 9.59304 40.7531 9.74716 41.2138 9.74716C41.4922 9.74716 41.7689 9.67756 42.044 9.53835C42.3224 9.39915 42.5528 9.18868 42.7351 8.90696C42.9207 8.62524 43.0118 8.26728 43.0085 7.8331ZM47.9838 0.818182V11H46.4973V0.818182H47.9838ZM50.103 11V0.818182H51.5895V4.60156H51.679C51.7652 4.44247 51.8894 4.25852 52.0518 4.04972C52.2143 3.84091 52.4396 3.65862 52.728 3.50284C53.0163 3.34375 53.3975 3.2642 53.8714 3.2642C54.4879 3.2642 55.0381 3.41998 55.522 3.73153C56.0059 4.04309 56.3854 4.49219 56.6605 5.07884C56.9389 5.66548 57.0781 6.37145 57.0781 7.19673C57.0781 8.02202 56.9406 8.72964 56.6655 9.3196C56.3904 9.90625 56.0125 10.3587 55.532 10.6768C55.0514 10.9917 54.5028 11.1491 53.8864 11.1491C53.4223 11.1491 53.0429 11.0713 52.7479 10.9155C52.4562 10.7597 52.2275 10.5774 52.0618 10.3686C51.8961 10.1598 51.7685 9.9742 51.679 9.81179H51.5547V11H50.103ZM51.5597 7.18182C51.5597 7.71875 51.6375 8.18939 51.7933 8.59375C51.9491 8.99811 52.1745 9.31463 52.4695 9.54332C52.7644 9.7687 53.1257 9.88139 53.5533 9.88139C53.9974 9.88139 54.3686 9.76373 54.6669 9.52841C54.9652 9.28977 55.1906 8.96662 55.343 8.55895C55.4988 8.15128 55.5767 7.69223 55.5767 7.18182C55.5767 6.67803 55.5005 6.22562 55.348 5.82457C55.1989 5.42353 54.9735 5.10701 54.6719 4.875C54.3736 4.64299 54.0007 4.52699 53.5533 4.52699C53.1224 4.52699 52.7578 4.63802 52.4595 4.86009C52.1645 5.08215 51.9408 5.39205 51.7884 5.78977C51.6359 6.1875 51.5597 6.65151 51.5597 7.18182ZM63.2466 6.05327V7.34091H58.7324V6.05327H63.2466ZM68.7527 11.169C67.9672 11.1657 67.296 10.9586 66.7392 10.5476C66.1824 10.1366 65.7565 9.53835 65.4615 8.75284C65.1665 7.96733 65.019 7.02107 65.019 5.91406C65.019 4.81037 65.1665 3.86742 65.4615 3.08523C65.7598 2.30303 66.1873 1.70644 66.7441 1.29545C67.3043 0.884469 67.9738 0.678977 68.7527 0.678977C69.5315 0.678977 70.1994 0.886126 70.7562 1.30043C71.313 1.71141 71.7389 2.308 72.0339 3.0902C72.3322 3.86908 72.4814 4.81037 72.4814 5.91406C72.4814 7.02438 72.3339 7.9723 72.0389 8.75781C71.7439 9.54001 71.318 10.1383 70.7612 10.5526C70.2044 10.9635 69.5349 11.169 68.7527 11.169ZM68.7527 9.84162C69.4421 9.84162 69.9806 9.50521 70.3684 8.83239C70.7595 8.15956 70.9551 7.18679 70.9551 5.91406C70.9551 5.06889 70.8656 4.35464 70.6866 3.77131C70.5109 3.18466 70.2574 2.74053 69.926 2.43892C69.5978 2.134 69.2067 1.98153 68.7527 1.98153C68.0666 1.98153 67.528 2.3196 67.1369 2.99574C66.7458 3.67187 66.5486 4.64465 66.5453 5.91406C66.5453 6.76255 66.6331 7.48011 66.8088 8.06676C66.9877 8.65009 67.2413 9.09257 67.5694 9.39418C67.8975 9.69247 68.292 9.84162 68.7527 9.84162ZM74.245 11V9.88636L77.6903 6.31676C78.0582 5.92898 78.3615 5.58925 78.6001 5.29759C78.8421 5.0026 79.0227 4.72254 79.142 4.45739C79.2614 4.19223 79.321 3.91051 79.321 3.61222C79.321 3.27415 79.2415 2.98248 79.0824 2.73722C78.9233 2.48864 78.7062 2.29806 78.4311 2.16548C78.156 2.02959 77.8461 1.96165 77.5014 1.96165C77.1368 1.96165 76.8187 2.03622 76.5469 2.18537C76.2751 2.33452 76.0663 2.54498 75.9205 2.81676C75.7746 3.08854 75.7017 3.40672 75.7017 3.77131H74.2351C74.2351 3.15151 74.3776 2.60961 74.6626 2.1456C74.9477 1.68158 75.3388 1.32197 75.8359 1.06676C76.3331 0.808238 76.8982 0.678977 77.5312 0.678977C78.1709 0.678977 78.7344 0.806581 79.2216 1.06179C79.7121 1.31368 80.0949 1.65838 80.37 2.09588C80.6451 2.53007 80.7827 3.0206 80.7827 3.56747C80.7827 3.94531 80.7114 4.31487 80.5689 4.67614C80.4297 5.0374 80.1861 5.4401 79.8381 5.88423C79.4901 6.32505 79.0062 6.86032 78.3864 7.49006L76.3629 9.60795V9.68253H80.9467V11H74.245Z" fill="black"/>
</svg>
