<svg width="53" height="12" viewBox="0 0 53 12" fill="none" xmlns="http://www.w3.org/2000/svg">
<path d="M6.72159 5.22798L5.37429 5.46662C5.31795 5.29427 5.22846 5.13021 5.10582 4.97443C4.98651 4.81865 4.8241 4.69105 4.61861 4.59162C4.41312 4.49219 4.15625 4.44247 3.84801 4.44247C3.42708 4.44247 3.07576 4.53693 2.79403 4.72585C2.51231 4.91146 2.37145 5.15175 2.37145 5.44673C2.37145 5.70194 2.46591 5.90743 2.65483 6.06321C2.84375 6.21899 3.14867 6.34659 3.5696 6.44602L4.78267 6.72443C5.48532 6.88684 6.009 7.13707 6.35369 7.47514C6.69839 7.81321 6.87074 8.25237 6.87074 8.79261C6.87074 9.25 6.73816 9.65767 6.47301 10.0156C6.21117 10.3703 5.84493 10.6487 5.37429 10.8509C4.90696 11.053 4.36506 11.1541 3.74858 11.1541C2.89347 11.1541 2.19579 10.9718 1.65554 10.6072C1.11529 10.2393 0.783854 9.71733 0.661222 9.04119L2.09801 8.82244C2.1875 9.19697 2.37145 9.48035 2.64986 9.67259C2.92827 9.86151 3.29119 9.95597 3.73864 9.95597C4.22585 9.95597 4.61529 9.85488 4.90696 9.6527C5.19863 9.44721 5.34446 9.19697 5.34446 8.90199C5.34446 8.66335 5.25497 8.46283 5.07599 8.30043C4.90033 8.13802 4.63021 8.01539 4.26562 7.93253L2.97301 7.64915C2.26042 7.48674 1.73343 7.22822 1.39205 6.87358C1.05398 6.51894 0.884943 6.06984 0.884943 5.52628C0.884943 5.07552 1.01089 4.68111 1.26278 4.34304C1.51468 4.00497 1.86269 3.74148 2.30682 3.55256C2.75095 3.36032 3.25971 3.2642 3.8331 3.2642C4.65838 3.2642 5.308 3.44318 5.78196 3.80114C6.25592 4.15578 6.56913 4.63139 6.72159 5.22798ZM8.50515 11V3.36364H9.99165V11H8.50515ZM9.25586 2.18537C8.99734 2.18537 8.77527 2.09919 8.58967 1.92685C8.40737 1.75118 8.31623 1.54238 8.31623 1.30043C8.31623 1.05516 8.40737 0.846354 8.58967 0.674005C8.77527 0.498342 8.99734 0.410511 9.25586 0.410511C9.51438 0.410511 9.73479 0.498342 9.91708 0.674005C10.1027 0.846354 10.1955 1.05516 10.1955 1.30043C10.1955 1.54238 10.1027 1.75118 9.91708 1.92685C9.73479 2.09919 9.51438 2.18537 9.25586 2.18537ZM11.9915 11V3.36364H13.4183V4.60653H13.5128C13.6719 4.18561 13.9321 3.85748 14.2933 3.62216C14.6546 3.38352 15.0871 3.2642 15.5909 3.2642C16.1013 3.2642 16.5289 3.38352 16.8736 3.62216C17.2216 3.8608 17.4785 4.18892 17.6442 4.60653H17.7237C17.906 4.19886 18.196 3.87405 18.5938 3.6321C18.9915 3.38684 19.4654 3.2642 20.0156 3.2642C20.7083 3.2642 21.2734 3.4813 21.7109 3.91548C22.1518 4.34967 22.3722 5.00426 22.3722 5.87926V11H20.8857V6.01847C20.8857 5.50142 20.7448 5.12689 20.4631 4.89489C20.1813 4.66288 19.8449 4.54688 19.4538 4.54688C18.9699 4.54688 18.5938 4.69602 18.3253 4.99432C18.0568 5.2893 17.9226 5.6688 17.9226 6.13281V11H16.4411V5.92401C16.4411 5.50971 16.3118 5.17661 16.0533 4.92472C15.7947 4.67282 15.4583 4.54688 15.044 4.54688C14.7623 4.54688 14.5021 4.62145 14.2635 4.7706C14.0282 4.91643 13.8376 5.12026 13.6918 5.3821C13.5492 5.64394 13.478 5.94721 13.478 6.2919V11H11.9915ZM27.5811 11.1541C26.842 11.1541 26.2057 10.9867 25.6721 10.652C25.1417 10.3139 24.7341 9.84825 24.449 9.25497C24.164 8.66169 24.0215 7.98224 24.0215 7.21662C24.0215 6.44105 24.1673 5.75663 24.459 5.16335C24.7507 4.56676 25.1616 4.10109 25.6919 3.76633C26.2222 3.43158 26.847 3.2642 27.5662 3.2642C28.1462 3.2642 28.6633 3.37192 29.1174 3.58736C29.5714 3.79948 29.9377 4.09777 30.2161 4.48224C30.4978 4.86671 30.6652 5.31581 30.7182 5.82955H29.2715C29.1919 5.47159 29.0096 5.16335 28.7246 4.90483C28.4429 4.64631 28.065 4.51705 27.5911 4.51705C27.1768 4.51705 26.8139 4.62642 26.5023 4.84517C26.1941 5.06061 25.9538 5.36884 25.7814 5.76989C25.6091 6.16761 25.5229 6.63826 25.5229 7.18182C25.5229 7.73864 25.6074 8.21922 25.7765 8.62358C25.9455 9.02794 26.1841 9.34115 26.4924 9.56321C26.8039 9.78527 27.1702 9.89631 27.5911 9.89631C27.8728 9.89631 28.128 9.84493 28.3567 9.74219C28.5887 9.63613 28.7826 9.48532 28.9384 9.28977C29.0975 9.09422 29.2085 8.8589 29.2715 8.58381H30.7182C30.6652 9.07765 30.5044 9.51847 30.236 9.90625C29.9675 10.294 29.6079 10.599 29.1571 10.821C28.7097 11.0431 28.1844 11.1541 27.5811 11.1541ZM34.5302 11.169C34.0463 11.169 33.6088 11.0795 33.2177 10.9006C32.8266 10.7183 32.5167 10.4548 32.288 10.1101C32.0626 9.76539 31.9499 9.3428 31.9499 8.84233C31.9499 8.41146 32.0328 8.05682 32.1985 7.77841C32.3642 7.5 32.5879 7.27959 32.8697 7.11719C33.1514 6.95478 33.4663 6.83215 33.8143 6.74929C34.1623 6.66643 34.5169 6.60346 34.8782 6.56037C35.3356 6.50734 35.7068 6.46425 35.9918 6.43111C36.2769 6.39465 36.484 6.33665 36.6133 6.2571C36.7425 6.17756 36.8072 6.0483 36.8072 5.86932V5.83452C36.8072 5.40033 36.6845 5.06392 36.4393 4.82528C36.1973 4.58665 35.8361 4.46733 35.3555 4.46733C34.855 4.46733 34.4606 4.57836 34.1722 4.80043C33.8872 5.01918 33.69 5.26278 33.5806 5.53125L32.1836 5.21307C32.3493 4.74905 32.5913 4.37453 32.9094 4.08949C33.2309 3.80114 33.6005 3.59233 34.0181 3.46307C34.4357 3.33049 34.8749 3.2642 35.3356 3.2642C35.6405 3.2642 35.9637 3.30066 36.305 3.37358C36.6497 3.44318 36.9712 3.57244 37.2695 3.76136C37.5711 3.95028 37.8181 4.22041 38.0103 4.57173C38.2025 4.91974 38.2987 5.37216 38.2987 5.92898V11H36.8469V9.95597H36.7873C36.6912 10.1482 36.547 10.3371 36.3548 10.5227C36.1625 10.7083 35.9156 10.8625 35.614 10.9851C35.3124 11.1077 34.9511 11.169 34.5302 11.169ZM34.8533 9.97585C35.2643 9.97585 35.6156 9.89465 35.9073 9.73224C36.2023 9.56984 36.426 9.35772 36.5785 9.09588C36.7343 8.83073 36.8121 8.54735 36.8121 8.24574V7.26136C36.7591 7.31439 36.6564 7.36411 36.5039 7.41051C36.3548 7.4536 36.1841 7.49171 35.9918 7.52486C35.7996 7.55469 35.6123 7.58286 35.43 7.60938C35.2478 7.63258 35.0953 7.65246 34.9727 7.66903C34.6843 7.70549 34.4208 7.76681 34.1822 7.85298C33.9469 7.93916 33.7579 8.06345 33.6154 8.22585C33.4762 8.38494 33.4066 8.59706 33.4066 8.86222C33.4066 9.23011 33.5425 9.50852 33.8143 9.69744C34.0861 9.88305 34.4324 9.97585 34.8533 9.97585ZM40.2786 11V3.36364H41.7154V4.5767H41.7949C41.9341 4.16572 42.1794 3.84257 42.5307 3.60724C42.8854 3.36861 43.2864 3.24929 43.7338 3.24929C43.8266 3.24929 43.936 3.2526 44.062 3.25923C44.1912 3.26586 44.2923 3.27415 44.3652 3.28409V4.70597C44.3056 4.68939 44.1995 4.67116 44.0471 4.65128C43.8946 4.62808 43.7421 4.61648 43.5897 4.61648C43.2383 4.61648 42.9251 4.69105 42.65 4.8402C42.3783 4.98603 42.1628 5.18987 42.0037 5.4517C41.8446 5.71023 41.7651 6.00521 41.7651 6.33665V11H40.2786ZM48.2369 11.1491C47.6204 11.1491 47.0702 10.9917 46.5863 10.6768C46.1057 10.3587 45.7279 9.90625 45.4528 9.3196C45.181 8.72964 45.0451 8.02202 45.0451 7.19673C45.0451 6.37145 45.1826 5.66548 45.4577 5.07884C45.7362 4.49219 46.1173 4.04309 46.6012 3.73153C47.0851 3.41998 47.6336 3.2642 48.2468 3.2642C48.7208 3.2642 49.1019 3.34375 49.3903 3.50284C49.6819 3.65862 49.9073 3.84091 50.0664 4.04972C50.2288 4.25852 50.3548 4.44247 50.4442 4.60156H50.5337V0.818182H52.0202V11H50.5685V9.81179H50.4442C50.3548 9.9742 50.2255 10.1598 50.0565 10.3686C49.8907 10.5774 49.6621 10.7597 49.3704 10.9155C49.0787 11.0713 48.7009 11.1491 48.2369 11.1491ZM48.565 9.88139C48.9925 9.88139 49.3538 9.7687 49.6488 9.54332C49.9471 9.31463 50.1725 8.99811 50.3249 8.59375C50.4807 8.18939 50.5586 7.71875 50.5586 7.18182C50.5586 6.65151 50.4824 6.1875 50.3299 5.78977C50.1774 5.39205 49.9537 5.08215 49.6587 4.86009C49.3638 4.63802 48.9992 4.52699 48.565 4.52699C48.1175 4.52699 47.7447 4.64299 47.4464 4.875C47.1481 5.10701 46.9227 5.42353 46.7702 5.82457C46.6211 6.22562 46.5465 6.67803 46.5465 7.18182C46.5465 7.69223 46.6228 8.15128 46.7752 8.55895C46.9277 8.96662 47.1531 9.28977 47.4513 9.52841C47.753 9.76373 48.1242 9.88139 48.565 9.88139Z" fill="black"/>
</svg>
