<svg width="49" height="12" viewBox="0 0 49 12" fill="none" xmlns="http://www.w3.org/2000/svg">
<path d="M2.65483 11L0.40767 3.36364H1.94389L3.44034 8.97159H3.51491L5.01634 3.36364H6.55256L8.04403 8.94673H8.11861L9.60511 3.36364H11.1413L8.89915 11H7.38281L5.83168 5.48651H5.71733L4.16619 11H2.65483ZM12.552 11V3.36364H14.0385V11H12.552ZM13.3027 2.18537C13.0442 2.18537 12.8221 2.09919 12.6365 1.92685C12.4542 1.75118 12.3631 1.54238 12.3631 1.30043C12.3631 1.05516 12.4542 0.846354 12.6365 0.674005C12.8221 0.498342 13.0442 0.410511 13.3027 0.410511C13.5613 0.410511 13.7817 0.498342 13.964 0.674005C14.1496 0.846354 14.2424 1.05516 14.2424 1.30043C14.2424 1.54238 14.1496 1.75118 13.964 1.92685C13.7817 2.09919 13.5613 2.18537 13.3027 2.18537ZM19.6726 3.36364V4.55682H15.3572V3.36364H19.6726ZM16.5405 11V2.47869C16.5405 2.00142 16.6449 1.60535 16.8537 1.29048C17.0625 0.972301 17.3393 0.735322 17.6839 0.579545C18.0286 0.420454 18.4032 0.340908 18.8075 0.340908C19.1058 0.340908 19.361 0.365767 19.5732 0.415483C19.7853 0.461884 19.9427 0.504971 20.0455 0.544744L19.6974 1.74787C19.6278 1.72798 19.5384 1.70478 19.429 1.67827C19.3196 1.64844 19.187 1.63352 19.0312 1.63352C18.67 1.63352 18.4115 1.72301 18.2557 1.90199C18.1032 2.08097 18.027 2.33949 18.027 2.67756V11H16.5405ZM21.2063 11V3.36364H22.6928V11H21.2063ZM21.957 2.18537C21.6985 2.18537 21.4764 2.09919 21.2908 1.92685C21.1085 1.75118 21.0174 1.54238 21.0174 1.30043C21.0174 1.05516 21.1085 0.846354 21.2908 0.674005C21.4764 0.498342 21.6985 0.410511 21.957 0.410511C22.2156 0.410511 22.436 0.498342 22.6183 0.674005C22.8039 0.846354 22.8967 1.05516 22.8967 1.30043C22.8967 1.54238 22.8039 1.75118 22.6183 1.92685C22.436 2.09919 22.2156 2.18537 21.957 2.18537ZM29.1919 6.05327V7.34091H24.6777V6.05327H29.1919ZM34.3897 11.1541C33.6738 11.1541 33.0491 10.9901 32.5154 10.6619C31.9818 10.3338 31.5675 9.87476 31.2725 9.2848C30.9776 8.69484 30.8301 8.00544 30.8301 7.21662C30.8301 6.42448 30.9776 5.73177 31.2725 5.13849C31.5675 4.54522 31.9818 4.08452 32.5154 3.75639C33.0491 3.42827 33.6738 3.2642 34.3897 3.2642C35.1056 3.2642 35.7304 3.42827 36.264 3.75639C36.7976 4.08452 37.2119 4.54522 37.5069 5.13849C37.8019 5.73177 37.9494 6.42448 37.9494 7.21662C37.9494 8.00544 37.8019 8.69484 37.5069 9.2848C37.2119 9.87476 36.7976 10.3338 36.264 10.6619C35.7304 10.9901 35.1056 11.1541 34.3897 11.1541ZM34.3947 9.90625C34.8587 9.90625 35.2432 9.78362 35.5481 9.53835C35.853 9.29309 36.0784 8.96662 36.2243 8.55895C36.3734 8.15128 36.448 7.70218 36.448 7.21165C36.448 6.72443 36.3734 6.27699 36.2243 5.86932C36.0784 5.45833 35.853 5.12855 35.5481 4.87997C35.2432 4.63139 34.8587 4.5071 34.3947 4.5071C33.9274 4.5071 33.5396 4.63139 33.2314 4.87997C32.9264 5.12855 32.6994 5.45833 32.5502 5.86932C32.4044 6.27699 32.3315 6.72443 32.3315 7.21165C32.3315 7.70218 32.4044 8.15128 32.5502 8.55895C32.6994 8.96662 32.9264 9.29309 33.2314 9.53835C33.5396 9.78362 33.9274 9.90625 34.3947 9.90625ZM43.2429 3.36364V4.55682H38.9276V3.36364H43.2429ZM40.1108 11V2.47869C40.1108 2.00142 40.2152 1.60535 40.424 1.29048C40.6328 0.972301 40.9096 0.735322 41.2543 0.579545C41.599 0.420454 41.9735 0.340908 42.3778 0.340908C42.6761 0.340908 42.9313 0.365767 43.1435 0.415483C43.3556 0.461884 43.513 0.504971 43.6158 0.544744L43.2678 1.74787C43.1982 1.72798 43.1087 1.70478 42.9993 1.67827C42.8899 1.64844 42.7573 1.63352 42.6016 1.63352C42.2403 1.63352 41.9818 1.72301 41.826 1.90199C41.6735 2.08097 41.5973 2.33949 41.5973 2.67756V11H40.1108ZM48.4109 3.36364V4.55682H44.0955V3.36364H48.4109ZM45.2788 11V2.47869C45.2788 2.00142 45.3832 1.60535 45.592 1.29048C45.8008 0.972301 46.0775 0.735322 46.4222 0.579545C46.7669 0.420454 47.1415 0.340908 47.5458 0.340908C47.8441 0.340908 48.0993 0.365767 48.3114 0.415483C48.5236 0.461884 48.681 0.504971 48.7837 0.544744L48.4357 1.74787C48.3661 1.72798 48.2766 1.70478 48.1673 1.67827C48.0579 1.64844 47.9253 1.63352 47.7695 1.63352C47.4083 1.63352 47.1497 1.72301 46.994 1.90199C46.8415 2.08097 46.7653 2.33949 46.7653 2.67756V11H45.2788Z" fill="black"/>
</svg>
