<svg width="30" height="13" viewBox="0 0 30 13" fill="none" xmlns="http://www.w3.org/2000/svg">
<path d="M6.72159 4.22798L5.37429 4.46662C5.31795 4.29427 5.22846 4.13021 5.10582 3.97443C4.98651 3.81865 4.8241 3.69105 4.61861 3.59162C4.41312 3.49219 4.15625 3.44247 3.84801 3.44247C3.42708 3.44247 3.07576 3.53693 2.79403 3.72585C2.51231 3.91146 2.37145 4.15175 2.37145 4.44673C2.37145 4.70194 2.46591 4.90743 2.65483 5.06321C2.84375 5.21899 3.14867 5.34659 3.5696 5.44602L4.78267 5.72443C5.48532 5.88684 6.009 6.13707 6.35369 6.47514C6.69839 6.81321 6.87074 7.25237 6.87074 7.79261C6.87074 8.25 6.73816 8.65767 6.47301 9.01562C6.21117 9.37027 5.84493 9.64867 5.37429 9.85085C4.90696 10.053 4.36506 10.1541 3.74858 10.1541C2.89347 10.1541 2.19579 9.97183 1.65554 9.60724C1.11529 9.23935 0.783854 8.71733 0.661222 8.04119L2.09801 7.82244C2.1875 8.19697 2.37145 8.48035 2.64986 8.67259C2.92827 8.86151 3.29119 8.95597 3.73864 8.95597C4.22585 8.95597 4.61529 8.85488 4.90696 8.6527C5.19863 8.44721 5.34446 8.19697 5.34446 7.90199C5.34446 7.66335 5.25497 7.46283 5.07599 7.30043C4.90033 7.13802 4.63021 7.01539 4.26562 6.93253L2.97301 6.64915C2.26042 6.48674 1.73343 6.22822 1.39205 5.87358C1.05398 5.51894 0.884943 5.06984 0.884943 4.52628C0.884943 4.07552 1.01089 3.68111 1.26278 3.34304C1.51468 3.00497 1.86269 2.74148 2.30682 2.55256C2.75095 2.36032 3.25971 2.2642 3.8331 2.2642C4.65838 2.2642 5.308 2.44318 5.78196 2.80114C6.25592 3.15578 6.56913 3.63139 6.72159 4.22798ZM12.0698 2.36364V3.55682H7.89862V2.36364H12.0698ZM9.01722 0.534091H10.5037V7.75781C10.5037 8.04616 10.5468 8.26326 10.633 8.40909C10.7192 8.55161 10.8302 8.64938 10.9661 8.70241C11.1053 8.75213 11.2561 8.77699 11.4185 8.77699C11.5378 8.77699 11.6422 8.7687 11.7317 8.75213C11.8212 8.73556 11.8908 8.7223 11.9405 8.71236L12.209 9.94034C12.1228 9.97348 12.0002 10.0066 11.8411 10.0398C11.682 10.0762 11.4831 10.0961 11.2445 10.0994C10.8534 10.1061 10.4888 10.0365 10.1507 9.89062C9.81268 9.74479 9.53924 9.51941 9.33043 9.21449C9.12163 8.90956 9.01722 8.52675 9.01722 8.06605V0.534091ZM16.8487 10.1541C16.1328 10.1541 15.508 9.99006 14.9744 9.66193C14.4408 9.33381 14.0265 8.87476 13.7315 8.2848C13.4366 7.69484 13.2891 7.00544 13.2891 6.21662C13.2891 5.42448 13.4366 4.73177 13.7315 4.13849C14.0265 3.54522 14.4408 3.08452 14.9744 2.75639C15.508 2.42827 16.1328 2.2642 16.8487 2.2642C17.5646 2.2642 18.1894 2.42827 18.723 2.75639C19.2566 3.08452 19.6709 3.54522 19.9659 4.13849C20.2609 4.73177 20.4084 5.42448 20.4084 6.21662C20.4084 7.00544 20.2609 7.69484 19.9659 8.2848C19.6709 8.87476 19.2566 9.33381 18.723 9.66193C18.1894 9.99006 17.5646 10.1541 16.8487 10.1541ZM16.8537 8.90625C17.3177 8.90625 17.7022 8.78362 18.0071 8.53835C18.312 8.29309 18.5374 7.96662 18.6832 7.55895C18.8324 7.15128 18.907 6.70218 18.907 6.21165C18.907 5.72443 18.8324 5.27699 18.6832 4.86932C18.5374 4.45833 18.312 4.12855 18.0071 3.87997C17.7022 3.63139 17.3177 3.5071 16.8537 3.5071C16.3864 3.5071 15.9986 3.63139 15.6903 3.87997C15.3854 4.12855 15.1584 4.45833 15.0092 4.86932C14.8634 5.27699 14.7905 5.72443 14.7905 6.21165C14.7905 6.70218 14.8634 7.15128 15.0092 7.55895C15.1584 7.96662 15.3854 8.29309 15.6903 8.53835C15.9986 8.78362 16.3864 8.90625 16.8537 8.90625ZM22.0676 12.8636V2.36364H23.5194V3.60156H23.6436C23.7298 3.44247 23.8541 3.25852 24.0165 3.04972C24.1789 2.84091 24.4043 2.65862 24.6926 2.50284C24.981 2.34375 25.3622 2.2642 25.8361 2.2642C26.4526 2.2642 27.0028 2.41998 27.4867 2.73153C27.9706 3.04309 28.3501 3.49219 28.6252 4.07884C28.9036 4.66548 29.0428 5.37145 29.0428 6.19673C29.0428 7.02202 28.9052 7.72964 28.6301 8.3196C28.3551 8.90625 27.9772 9.35866 27.4966 9.67685C27.016 9.99171 26.4675 10.1491 25.851 10.1491C25.387 10.1491 25.0075 10.0713 24.7125 9.91548C24.4209 9.75971 24.1922 9.57741 24.0265 9.36861C23.8607 9.1598 23.7331 8.9742 23.6436 8.81179H23.5542V12.8636H22.0676ZM23.5243 6.18182C23.5243 6.71875 23.6022 7.18939 23.758 7.59375C23.9138 7.99811 24.1391 8.31463 24.4341 8.54332C24.7291 8.7687 25.0904 8.88139 25.5179 8.88139C25.9621 8.88139 26.3333 8.76373 26.6316 8.52841C26.9299 8.28977 27.1552 7.96662 27.3077 7.55895C27.4635 7.15128 27.5414 6.69223 27.5414 6.18182C27.5414 5.67803 27.4651 5.22562 27.3127 4.82457C27.1635 4.42353 26.9382 4.10701 26.6365 3.875C26.3382 3.64299 25.9654 3.52699 25.5179 3.52699C25.0871 3.52699 24.7225 3.63802 24.4242 3.86009C24.1292 4.08215 23.9055 4.39205 23.753 4.78977C23.6006 5.1875 23.5243 5.65151 23.5243 6.18182Z" fill="black"/>
</svg>
