<svg width="65" height="14" viewBox="0 0 65 14" fill="none" xmlns="http://www.w3.org/2000/svg">
<path d="M1.4858 0.818182V11H-0.000710189V0.818182H1.4858ZM5.70792 11.169C5.22402 11.169 4.78652 11.0795 4.39542 10.9006C4.00432 10.7183 3.69442 10.4548 3.46573 10.1101C3.24035 9.76539 3.12766 9.3428 3.12766 8.84233C3.12766 8.41146 3.21052 8.05682 3.37624 7.77841C3.54196 7.5 3.76568 7.27959 4.04741 7.11719C4.32913 6.95478 4.644 6.83215 4.99201 6.74929C5.34002 6.66643 5.69466 6.60346 6.05593 6.56037C6.51332 6.50734 6.88453 6.46425 7.16957 6.43111C7.4546 6.39465 7.66175 6.33665 7.79102 6.2571C7.92028 6.17756 7.98491 6.0483 7.98491 5.86932V5.83452C7.98491 5.40033 7.86228 5.06392 7.61701 4.82528C7.37506 4.58665 7.01379 4.46733 6.5332 4.46733C6.03273 4.46733 5.63832 4.57836 5.34996 4.80043C5.06493 5.01918 4.86772 5.26278 4.75835 5.53125L3.36133 5.21307C3.52705 4.74905 3.769 4.37453 4.08718 4.08949C4.40868 3.80114 4.77823 3.59233 5.19585 3.46307C5.61346 3.33049 6.05262 3.2642 6.51332 3.2642C6.81824 3.2642 7.14139 3.30066 7.48278 3.37358C7.82747 3.44318 8.14897 3.57244 8.44727 3.76136C8.74888 3.95028 8.9958 4.22041 9.18803 4.57173C9.38027 4.91974 9.47639 5.37216 9.47639 5.92898V11H8.02468V9.95597H7.96502C7.8689 10.1482 7.72473 10.3371 7.53249 10.5227C7.34026 10.7083 7.09334 10.8625 6.79173 10.9851C6.49012 11.1077 6.12885 11.169 5.70792 11.169ZM6.03107 9.97585C6.44206 9.97585 6.79338 9.89465 7.08505 9.73224C7.38003 9.56984 7.60375 9.35772 7.75621 9.09588C7.91199 8.83073 7.98988 8.54735 7.98988 8.24574V7.26136C7.93685 7.31439 7.8341 7.36411 7.68164 7.41051C7.53249 7.4536 7.3618 7.49171 7.16957 7.52486C6.97733 7.55469 6.79007 7.58286 6.60778 7.60938C6.42549 7.63258 6.27302 7.65246 6.15039 7.66903C5.86204 7.70549 5.59854 7.76681 5.35991 7.85298C5.12459 7.93916 4.93567 8.06345 4.79315 8.22585C4.65394 8.38494 4.58434 8.59706 4.58434 8.86222C4.58434 9.23011 4.72023 9.50852 4.99201 9.69744C5.26379 9.88305 5.61014 9.97585 6.03107 9.97585ZM11.4563 13.8636V3.36364H12.908V4.60156H13.0323C13.1185 4.44247 13.2428 4.25852 13.4052 4.04972C13.5676 3.84091 13.793 3.65862 14.0813 3.50284C14.3697 3.34375 14.7508 3.2642 15.2248 3.2642C15.8413 3.2642 16.3915 3.41998 16.8754 3.73153C17.3593 4.04309 17.7388 4.49219 18.0138 5.07884C18.2923 5.66548 18.4315 6.37145 18.4315 7.19673C18.4315 8.02202 18.2939 8.72964 18.0188 9.3196C17.7437 9.90625 17.3659 10.3587 16.8853 10.6768C16.4047 10.9917 15.8562 11.1491 15.2397 11.1491C14.7757 11.1491 14.3962 11.0713 14.1012 10.9155C13.8095 10.7597 13.5808 10.5774 13.4151 10.3686C13.2494 10.1598 13.1218 9.9742 13.0323 9.81179H12.9428V13.8636H11.4563ZM12.913 7.18182C12.913 7.71875 12.9909 8.18939 13.1467 8.59375C13.3024 8.99811 13.5278 9.31463 13.8228 9.54332C14.1178 9.7687 14.479 9.88139 14.9066 9.88139C15.3507 9.88139 15.7219 9.76373 16.0202 9.52841C16.3185 9.28977 16.5439 8.96662 16.6964 8.55895C16.8522 8.15128 16.93 7.69223 16.93 7.18182C16.93 6.67803 16.8538 6.22562 16.7013 5.82457C16.5522 5.42353 16.3268 5.10701 16.0252 4.875C15.7269 4.64299 15.354 4.52699 14.9066 4.52699C14.4757 4.52699 14.1112 4.63802 13.8129 4.86009C13.5179 5.08215 13.2942 5.39205 13.1417 5.78977C12.9892 6.1875 12.913 6.65151 12.913 7.18182ZM23.6616 3.36364V4.55682H19.4904V3.36364H23.6616ZM20.609 1.53409H22.0955V8.75781C22.0955 9.04616 22.1386 9.26326 22.2248 9.40909C22.311 9.55161 22.422 9.64938 22.5579 9.70241C22.6971 9.75213 22.8479 9.77699 23.0103 9.77699C23.1296 9.77699 23.234 9.7687 23.3235 9.75213C23.413 9.73556 23.4826 9.7223 23.5323 9.71236L23.8008 10.9403C23.7146 10.9735 23.592 11.0066 23.4329 11.0398C23.2738 11.0762 23.0749 11.0961 22.8363 11.0994C22.4452 11.1061 22.0806 11.0365 21.7425 10.8906C21.4045 10.7448 21.131 10.5194 20.9222 10.2145C20.7134 9.90956 20.609 9.52675 20.609 9.06605V1.53409ZM28.4405 11.1541C27.7246 11.1541 27.0998 10.9901 26.5662 10.6619C26.0326 10.3338 25.6183 9.87476 25.3233 9.2848C25.0283 8.69484 24.8809 8.00544 24.8809 7.21662C24.8809 6.42448 25.0283 5.73177 25.3233 5.13849C25.6183 4.54522 26.0326 4.08452 26.5662 3.75639C27.0998 3.42827 27.7246 3.2642 28.4405 3.2642C29.1564 3.2642 29.7812 3.42827 30.3148 3.75639C30.8484 4.08452 31.2627 4.54522 31.5577 5.13849C31.8527 5.73177 32.0002 6.42448 32.0002 7.21662C32.0002 8.00544 31.8527 8.69484 31.5577 9.2848C31.2627 9.87476 30.8484 10.3338 30.3148 10.6619C29.7812 10.9901 29.1564 11.1541 28.4405 11.1541ZM28.4455 9.90625C28.9095 9.90625 29.294 9.78362 29.5989 9.53835C29.9038 9.29309 30.1292 8.96662 30.275 8.55895C30.4242 8.15128 30.4988 7.70218 30.4988 7.21165C30.4988 6.72443 30.4242 6.27699 30.275 5.86932C30.1292 5.45833 29.9038 5.12855 29.5989 4.87997C29.294 4.63139 28.9095 4.5071 28.4455 4.5071C27.9782 4.5071 27.5904 4.63139 27.2821 4.87997C26.9772 5.12855 26.7502 5.45833 26.601 5.86932C26.4552 6.27699 26.3823 6.72443 26.3823 7.21165C26.3823 7.70218 26.4552 8.15128 26.601 8.55895C26.7502 8.96662 26.9772 9.29309 27.2821 9.53835C27.5904 9.78362 27.9782 9.90625 28.4455 9.90625ZM33.6594 13.8636V3.36364H35.1112V4.60156H35.2354C35.3216 4.44247 35.4459 4.25852 35.6083 4.04972C35.7707 3.84091 35.9961 3.65862 36.2844 3.50284C36.5728 3.34375 36.954 3.2642 37.4279 3.2642C38.0444 3.2642 38.5946 3.41998 39.0785 3.73153C39.5624 4.04309 39.9419 4.49219 40.217 5.07884C40.4954 5.66548 40.6346 6.37145 40.6346 7.19673C40.6346 8.02202 40.497 8.72964 40.2219 9.3196C39.9469 9.90625 39.569 10.3587 39.0884 10.6768C38.6078 10.9917 38.0593 11.1491 37.4428 11.1491C36.9788 11.1491 36.5993 11.0713 36.3043 10.9155C36.0127 10.7597 35.784 10.5774 35.6183 10.3686C35.4525 10.1598 35.3249 9.9742 35.2354 9.81179H35.146V13.8636H33.6594ZM35.1161 7.18182C35.1161 7.71875 35.194 8.18939 35.3498 8.59375C35.5056 8.99811 35.7309 9.31463 36.0259 9.54332C36.3209 9.7687 36.6822 9.88139 37.1097 9.88139C37.5539 9.88139 37.9251 9.76373 38.2234 9.52841C38.5217 9.28977 38.747 8.96662 38.8995 8.55895C39.0553 8.15128 39.1332 7.69223 39.1332 7.18182C39.1332 6.67803 39.0569 6.22562 38.9045 5.82457C38.7553 5.42353 38.5299 5.10701 38.2283 4.875C37.93 4.64299 37.5572 4.52699 37.1097 4.52699C36.6789 4.52699 36.3143 4.63802 36.016 4.86009C35.721 5.08215 35.4973 5.39205 35.3448 5.78977C35.1924 6.1875 35.1161 6.65151 35.1161 7.18182ZM46.7994 6.05327V7.34091H42.2852V6.05327H46.7994ZM52.3054 11.169C51.5199 11.1657 50.8487 10.9586 50.2919 10.5476C49.7351 10.1366 49.3092 9.53835 49.0142 8.75284C48.7192 7.96733 48.5717 7.02107 48.5717 5.91406C48.5717 4.81037 48.7192 3.86742 49.0142 3.08523C49.3125 2.30303 49.7401 1.70644 50.2969 1.29545C50.857 0.884469 51.5265 0.678977 52.3054 0.678977C53.0843 0.678977 53.7521 0.886126 54.3089 1.30043C54.8658 1.71141 55.2917 2.308 55.5866 3.0902C55.8849 3.86908 56.0341 4.81037 56.0341 5.91406C56.0341 7.02438 55.8866 7.9723 55.5916 8.75781C55.2966 9.54001 54.8707 10.1383 54.3139 10.5526C53.7571 10.9635 53.0876 11.169 52.3054 11.169ZM52.3054 9.84162C52.9948 9.84162 53.5334 9.50521 53.9212 8.83239C54.3123 8.15956 54.5078 7.18679 54.5078 5.91406C54.5078 5.06889 54.4183 4.35464 54.2393 3.77131C54.0637 3.18466 53.8101 2.74053 53.4787 2.43892C53.1506 2.134 52.7595 1.98153 52.3054 1.98153C51.6193 1.98153 51.0807 2.3196 50.6896 2.99574C50.2985 3.67187 50.1013 4.64465 50.098 5.91406C50.098 6.76255 50.1858 7.48011 50.3615 8.06676C50.5405 8.65009 50.794 9.09257 51.1222 9.39418C51.4503 9.69247 51.8447 9.84162 52.3054 9.84162ZM57.7978 11V9.88636L61.2431 6.31676C61.611 5.92898 61.9142 5.58925 62.1529 5.29759C62.3948 5.0026 62.5755 4.72254 62.6948 4.45739C62.8141 4.19223 62.8738 3.91051 62.8738 3.61222C62.8738 3.27415 62.7942 2.98248 62.6351 2.73722C62.476 2.48864 62.2589 2.29806 61.9838 2.16548C61.7087 2.02959 61.3989 1.96165 61.0542 1.96165C60.6896 1.96165 60.3714 2.03622 60.0996 2.18537C59.8278 2.33452 59.619 2.54498 59.4732 2.81676C59.3274 3.08854 59.2544 3.40672 59.2544 3.77131H57.7878C57.7878 3.15151 57.9303 2.60961 58.2154 2.1456C58.5004 1.68158 58.8915 1.32197 59.3887 1.06676C59.8858 0.808238 60.4509 0.678977 61.084 0.678977C61.7237 0.678977 62.2871 0.806581 62.7743 1.06179C63.2649 1.31368 63.6477 1.65838 63.9228 2.09588C64.1979 2.53007 64.3354 3.0206 64.3354 3.56747C64.3354 3.94531 64.2641 4.31487 64.1216 4.67614C63.9824 5.0374 63.7388 5.4401 63.3908 5.88423C63.0428 6.32505 62.5589 6.86032 61.9391 7.49006L59.9157 9.60795V9.68253H64.4995V11H57.7978Z" fill="black"/>
</svg>
