<svg width="99" height="14" viewBox="0 0 99 14" fill="none" xmlns="http://www.w3.org/2000/svg">
<path d="M-0.000710189 11V3.36364H1.42614V4.60653H1.5206C1.67969 4.18561 1.93987 3.85748 2.30114 3.62216C2.66241 3.38352 3.09493 3.2642 3.59872 3.2642C4.10914 3.2642 4.5367 3.38352 4.88139 3.62216C5.2294 3.8608 5.48627 4.18892 5.65199 4.60653H5.73153C5.91383 4.19886 6.20384 3.87405 6.60156 3.6321C6.99929 3.38684 7.47325 3.2642 8.02344 3.2642C8.71615 3.2642 9.28125 3.4813 9.71875 3.91548C10.1596 4.34967 10.38 5.00426 10.38 5.87926V11H8.89347V6.01847C8.89347 5.50142 8.7526 5.12689 8.47088 4.89489C8.18916 4.66288 7.85275 4.54688 7.46165 4.54688C6.97775 4.54688 6.60156 4.69602 6.3331 4.99432C6.06463 5.2893 5.9304 5.6688 5.9304 6.13281V11H4.44886V5.92401C4.44886 5.50971 4.3196 5.17661 4.06108 4.92472C3.80256 4.67282 3.46615 4.54688 3.05185 4.54688C2.77012 4.54688 2.50994 4.62145 2.27131 4.7706C2.03599 4.91643 1.84541 5.12026 1.69957 5.3821C1.55706 5.64394 1.4858 5.94721 1.4858 6.2919V11H-0.000710189ZM12.3723 11V3.36364H13.8588V11H12.3723ZM13.123 2.18537C12.8645 2.18537 12.6425 2.09919 12.4569 1.92685C12.2746 1.75118 12.1834 1.54238 12.1834 1.30043C12.1834 1.05516 12.2746 0.846354 12.4569 0.674005C12.6425 0.498342 12.8645 0.410511 13.123 0.410511C13.3816 0.410511 13.602 0.498342 13.7843 0.674005C13.9699 0.846354 14.0627 1.05516 14.0627 1.30043C14.0627 1.54238 13.9699 1.75118 13.7843 1.92685C13.602 2.09919 13.3816 2.18537 13.123 2.18537ZM19.0753 11.1541C18.3362 11.1541 17.6998 10.9867 17.1662 10.652C16.6359 10.3139 16.2282 9.84825 15.9432 9.25497C15.6581 8.66169 15.5156 7.98224 15.5156 7.21662C15.5156 6.44105 15.6615 5.75663 15.9531 5.16335C16.2448 4.56676 16.6558 4.10109 17.1861 3.76633C17.7164 3.43158 18.3411 3.2642 19.0604 3.2642C19.6404 3.2642 20.1574 3.37192 20.6115 3.58736C21.0656 3.79948 21.4318 4.09777 21.7102 4.48224C21.992 4.86671 22.1593 5.31581 22.2124 5.82955H20.7656C20.6861 5.47159 20.5038 5.16335 20.2188 4.90483C19.937 4.64631 19.5592 4.51705 19.0852 4.51705C18.6709 4.51705 18.308 4.62642 17.9964 4.84517C17.6882 5.06061 17.4479 5.36884 17.2756 5.76989C17.1032 6.16761 17.017 6.63826 17.017 7.18182C17.017 7.73864 17.1016 8.21922 17.2706 8.62358C17.4396 9.02794 17.6783 9.34115 17.9865 9.56321C18.2981 9.78527 18.6643 9.89631 19.0852 9.89631C19.367 9.89631 19.6222 9.84493 19.8509 9.74219C20.0829 9.63613 20.2768 9.48532 20.4325 9.28977C20.5916 9.09422 20.7027 8.8589 20.7656 8.58381H22.2124C22.1593 9.07765 21.9986 9.51847 21.7301 9.90625C21.4616 10.294 21.102 10.599 20.6513 10.821C20.2038 11.0431 19.6785 11.1541 19.0753 11.1541ZM23.802 11V3.36364H25.2388V4.5767H25.3184C25.4576 4.16572 25.7028 3.84257 26.0542 3.60724C26.4088 3.36861 26.8098 3.24929 27.2573 3.24929C27.3501 3.24929 27.4595 3.2526 27.5854 3.25923C27.7147 3.26586 27.8158 3.27415 27.8887 3.28409V4.70597C27.829 4.68939 27.723 4.67116 27.5705 4.65128C27.418 4.62808 27.2656 4.61648 27.1131 4.61648C26.7618 4.61648 26.4486 4.69105 26.1735 4.8402C25.9017 4.98603 25.6863 5.18987 25.5272 5.4517C25.3681 5.71023 25.2885 6.00521 25.2885 6.33665V11H23.802ZM32.1183 11.1541C31.4023 11.1541 30.7776 10.9901 30.244 10.6619C29.7103 10.3338 29.296 9.87476 29.0011 9.2848C28.7061 8.69484 28.5586 8.00544 28.5586 7.21662C28.5586 6.42448 28.7061 5.73177 29.0011 5.13849C29.296 4.54522 29.7103 4.08452 30.244 3.75639C30.7776 3.42827 31.4023 3.2642 32.1183 3.2642C32.8342 3.2642 33.4589 3.42827 33.9925 3.75639C34.5262 4.08452 34.9405 4.54522 35.2354 5.13849C35.5304 5.73177 35.6779 6.42448 35.6779 7.21662C35.6779 8.00544 35.5304 8.69484 35.2354 9.2848C34.9405 9.87476 34.5262 10.3338 33.9925 10.6619C33.4589 10.9901 32.8342 11.1541 32.1183 11.1541ZM32.1232 9.90625C32.5872 9.90625 32.9717 9.78362 33.2766 9.53835C33.5816 9.29309 33.8069 8.96662 33.9528 8.55895C34.1019 8.15128 34.1765 7.70218 34.1765 7.21165C34.1765 6.72443 34.1019 6.27699 33.9528 5.86932C33.8069 5.45833 33.5816 5.12855 33.2766 4.87997C32.9717 4.63139 32.5872 4.5071 32.1232 4.5071C31.6559 4.5071 31.2681 4.63139 30.9599 4.87997C30.6549 5.12855 30.4279 5.45833 30.2788 5.86932C30.1329 6.27699 30.06 6.72443 30.06 7.21165C30.06 7.70218 30.1329 8.15128 30.2788 8.55895C30.4279 8.96662 30.6549 9.29309 30.9599 9.53835C31.2681 9.78362 31.6559 9.90625 32.1232 9.90625ZM37.3372 13.8636V3.36364H38.7889V4.60156H38.9132C38.9993 4.44247 39.1236 4.25852 39.286 4.04972C39.4484 3.84091 39.6738 3.65862 39.9622 3.50284C40.2505 3.34375 40.6317 3.2642 41.1056 3.2642C41.7221 3.2642 42.2723 3.41998 42.7562 3.73153C43.2401 4.04309 43.6196 4.49219 43.8947 5.07884C44.1731 5.66548 44.3123 6.37145 44.3123 7.19673C44.3123 8.02202 44.1748 8.72964 43.8997 9.3196C43.6246 9.90625 43.2467 10.3587 42.7662 10.6768C42.2856 10.9917 41.737 11.1491 41.1206 11.1491C40.6565 11.1491 40.277 11.0713 39.9821 10.9155C39.6904 10.7597 39.4617 10.5774 39.296 10.3686C39.1303 10.1598 39.0027 9.9742 38.9132 9.81179H38.8237V13.8636H37.3372ZM38.7939 7.18182C38.7939 7.71875 38.8717 8.18939 39.0275 8.59375C39.1833 8.99811 39.4087 9.31463 39.7037 9.54332C39.9986 9.7687 40.3599 9.88139 40.7875 9.88139C41.2316 9.88139 41.6028 9.76373 41.9011 9.52841C42.1994 9.28977 42.4248 8.96662 42.5772 8.55895C42.733 8.15128 42.8109 7.69223 42.8109 7.18182C42.8109 6.67803 42.7347 6.22562 42.5822 5.82457C42.4331 5.42353 42.2077 5.10701 41.9061 4.875C41.6078 4.64299 41.2349 4.52699 40.7875 4.52699C40.3566 4.52699 39.992 4.63802 39.6937 4.86009C39.3987 5.08215 39.175 5.39205 39.0225 5.78977C38.8701 6.1875 38.7939 6.65151 38.7939 7.18182ZM47.4643 6.46591V11H45.9778V0.818182H47.4444V4.60653H47.5389C47.7179 4.19555 47.9913 3.86908 48.3592 3.62713C48.7271 3.38518 49.2077 3.2642 49.801 3.2642C50.3246 3.2642 50.782 3.37192 51.1731 3.58736C51.5675 3.80279 51.8725 4.12429 52.0879 4.55185C52.3066 4.97609 52.416 5.50639 52.416 6.14276V11H50.9295V6.32173C50.9295 5.7616 50.7853 5.32741 50.497 5.01918C50.2086 4.70762 49.8076 4.55185 49.2939 4.55185C48.9425 4.55185 48.6277 4.62642 48.3493 4.77557C48.0742 4.92472 47.8571 5.14347 47.698 5.43182C47.5422 5.71686 47.4643 6.06155 47.4643 6.46591ZM57.6163 11.1541C56.9004 11.1541 56.2756 10.9901 55.742 10.6619C55.2084 10.3338 54.7941 9.87476 54.4991 9.2848C54.2041 8.69484 54.0566 8.00544 54.0566 7.21662C54.0566 6.42448 54.2041 5.73177 54.4991 5.13849C54.7941 4.54522 55.2084 4.08452 55.742 3.75639C56.2756 3.42827 56.9004 3.2642 57.6163 3.2642C58.3322 3.2642 58.957 3.42827 59.4906 3.75639C60.0242 4.08452 60.4385 4.54522 60.7335 5.13849C61.0285 5.73177 61.176 6.42448 61.176 7.21662C61.176 8.00544 61.0285 8.69484 60.7335 9.2848C60.4385 9.87476 60.0242 10.3338 59.4906 10.6619C58.957 10.9901 58.3322 11.1541 57.6163 11.1541ZM57.6213 9.90625C58.0853 9.90625 58.4698 9.78362 58.7747 9.53835C59.0796 9.29309 59.305 8.96662 59.4508 8.55895C59.6 8.15128 59.6745 7.70218 59.6745 7.21165C59.6745 6.72443 59.6 6.27699 59.4508 5.86932C59.305 5.45833 59.0796 5.12855 58.7747 4.87997C58.4698 4.63139 58.0853 4.5071 57.6213 4.5071C57.1539 4.5071 56.7662 4.63139 56.4579 4.87997C56.153 5.12855 55.926 5.45833 55.7768 5.86932C55.631 6.27699 55.5581 6.72443 55.5581 7.21165C55.5581 7.70218 55.631 8.15128 55.7768 8.55895C55.926 8.96662 56.153 9.29309 56.4579 9.53835C56.7662 9.78362 57.1539 9.90625 57.6213 9.90625ZM64.3217 6.46591V11H62.8352V3.36364H64.2621V4.60653H64.3565C64.5322 4.20218 64.8073 3.87737 65.1818 3.6321C65.5597 3.38684 66.0353 3.2642 66.6087 3.2642C67.129 3.2642 67.5848 3.37358 67.9759 3.59233C68.367 3.80777 68.6702 4.12926 68.8857 4.55682C69.1011 4.98437 69.2088 5.51302 69.2088 6.14276V11H67.7223V6.32173C67.7223 5.76823 67.5781 5.3357 67.2898 5.02415C67.0014 4.70928 66.6054 4.55185 66.1016 4.55185C65.7569 4.55185 65.4503 4.62642 65.1818 4.77557C64.9167 4.92472 64.7062 5.14347 64.5504 5.43182C64.398 5.71686 64.3217 6.06155 64.3217 6.46591ZM74.4936 11.1541C73.7412 11.1541 73.0933 10.9934 72.5497 10.6719C72.0095 10.3471 71.5919 9.89134 71.2969 9.30469C71.0052 8.71473 70.8594 8.02367 70.8594 7.23153C70.8594 6.44934 71.0052 5.75994 71.2969 5.16335C71.5919 4.56676 72.0028 4.10109 72.5298 3.76633C73.0601 3.43158 73.6799 3.2642 74.3892 3.2642C74.8201 3.2642 75.2377 3.33546 75.642 3.47798C76.0464 3.6205 76.4093 3.84422 76.7308 4.14915C77.0523 4.45407 77.3059 4.85014 77.4915 5.33736C77.6771 5.82126 77.7699 6.40956 77.7699 7.10227V7.62926H71.6996V6.51562H76.3132C76.3132 6.12453 76.2337 5.77817 76.0746 5.47656C75.9155 5.17164 75.6918 4.93134 75.4034 4.75568C75.1184 4.58002 74.7836 4.49219 74.3991 4.49219C73.9815 4.49219 73.617 4.59493 73.3054 4.80043C72.9972 5.0026 72.7585 5.26776 72.5895 5.59588C72.4238 5.92069 72.3409 6.27367 72.3409 6.65483V7.52486C72.3409 8.03527 72.4304 8.46946 72.6094 8.82741C72.7917 9.18537 73.0452 9.45881 73.37 9.64773C73.6948 9.83333 74.0743 9.92614 74.5085 9.92614C74.7902 9.92614 75.0471 9.88636 75.2791 9.80682C75.5111 9.72396 75.7116 9.60133 75.8807 9.43892C76.0497 9.27652 76.179 9.07599 76.2685 8.83736L77.6754 9.09091C77.5627 9.50521 77.3606 9.86813 77.0689 10.1797C76.7805 10.4879 76.4176 10.7282 75.9801 10.9006C75.5459 11.0696 75.0504 11.1541 74.4936 11.1541ZM83.9185 6.05327V7.34091H79.4043V6.05327H83.9185ZM89.4245 11.169C88.639 11.1657 87.9679 10.9586 87.411 10.5476C86.8542 10.1366 86.4283 9.53835 86.1333 8.75284C85.8384 7.96733 85.6909 7.02107 85.6909 5.91406C85.6909 4.81037 85.8384 3.86742 86.1333 3.08523C86.4316 2.30303 86.8592 1.70644 87.416 1.29545C87.9761 0.884469 88.6457 0.678977 89.4245 0.678977C90.2034 0.678977 90.8713 0.886126 91.4281 1.30043C91.9849 1.71141 92.4108 2.308 92.7058 3.0902C93.0041 3.86908 93.1532 4.81037 93.1532 5.91406C93.1532 7.02438 93.0057 7.9723 92.7108 8.75781C92.4158 9.54001 91.9899 10.1383 91.4331 10.5526C90.8762 10.9635 90.2067 11.169 89.4245 11.169ZM89.4245 9.84162C90.1139 9.84162 90.6525 9.50521 91.0403 8.83239C91.4314 8.15956 91.627 7.18679 91.627 5.91406C91.627 5.06889 91.5375 4.35464 91.3585 3.77131C91.1828 3.18466 90.9293 2.74053 90.5978 2.43892C90.2697 2.134 89.8786 1.98153 89.4245 1.98153C88.7385 1.98153 88.1999 2.3196 87.8088 2.99574C87.4177 3.67187 87.2205 4.64465 87.2172 5.91406C87.2172 6.76255 87.305 7.48011 87.4806 8.06676C87.6596 8.65009 87.9132 9.09257 88.2413 9.39418C88.5694 9.69247 88.9638 9.84162 89.4245 9.84162ZM98.7798 0.818182V11H97.2386V2.35938H97.179L94.7429 3.95028V2.47869L97.2834 0.818182H98.7798Z" fill="black"/>
</svg>
