<svg width="53" height="14" viewBox="0 0 53 14" fill="none" xmlns="http://www.w3.org/2000/svg">
<path d="M-0.000710189 13.8636V3.36364H1.45099V4.60156H1.57528C1.66146 4.44247 1.78575 4.25852 1.94815 4.04972C2.11056 3.84091 2.33594 3.65862 2.62429 3.50284C2.91264 3.34375 3.2938 3.2642 3.76776 3.2642C4.38423 3.2642 4.93442 3.41998 5.41832 3.73153C5.90223 4.04309 6.28172 4.49219 6.55682 5.07884C6.83523 5.66548 6.97443 6.37145 6.97443 7.19673C6.97443 8.02202 6.83688 8.72964 6.56179 9.3196C6.2867 9.90625 5.90885 10.3587 5.42827 10.6768C4.94768 10.9917 4.39915 11.1491 3.78267 11.1491C3.31866 11.1491 2.93916 11.0713 2.64418 10.9155C2.35251 10.7597 2.12382 10.5774 1.9581 10.3686C1.79238 10.1598 1.66477 9.9742 1.57528 9.81179H1.4858V13.8636H-0.000710189ZM1.45597 7.18182C1.45597 7.71875 1.53385 8.18939 1.68963 8.59375C1.84541 8.99811 2.07079 9.31463 2.36577 9.54332C2.66075 9.7687 3.02202 9.88139 3.44957 9.88139C3.8937 9.88139 4.26491 9.76373 4.56321 9.52841C4.86151 9.28977 5.08688 8.96662 5.23935 8.55895C5.39512 8.15128 5.47301 7.69223 5.47301 7.18182C5.47301 6.67803 5.39678 6.22562 5.24432 5.82457C5.09517 5.42353 4.86979 5.10701 4.56818 4.875C4.26989 4.64299 3.89702 4.52699 3.44957 4.52699C3.0187 4.52699 2.65412 4.63802 2.35582 4.86009C2.06084 5.08215 1.83712 5.39205 1.68466 5.78977C1.5322 6.1875 1.45597 6.65151 1.45597 7.18182ZM11.8565 11.1541C11.1406 11.1541 10.5159 10.9901 9.98224 10.6619C9.44863 10.3338 9.03433 9.87476 8.73935 9.2848C8.44437 8.69484 8.29688 8.00544 8.29688 7.21662C8.29688 6.42448 8.44437 5.73177 8.73935 5.13849C9.03433 4.54522 9.44863 4.08452 9.98224 3.75639C10.5159 3.42827 11.1406 3.2642 11.8565 3.2642C12.5724 3.2642 13.1972 3.42827 13.7308 3.75639C14.2644 4.08452 14.6787 4.54522 14.9737 5.13849C15.2687 5.73177 15.4162 6.42448 15.4162 7.21662C15.4162 8.00544 15.2687 8.69484 14.9737 9.2848C14.6787 9.87476 14.2644 10.3338 13.7308 10.6619C13.1972 10.9901 12.5724 11.1541 11.8565 11.1541ZM11.8615 9.90625C12.3255 9.90625 12.71 9.78362 13.0149 9.53835C13.3198 9.29309 13.5452 8.96662 13.6911 8.55895C13.8402 8.15128 13.9148 7.70218 13.9148 7.21165C13.9148 6.72443 13.8402 6.27699 13.6911 5.86932C13.5452 5.45833 13.3198 5.12855 13.0149 4.87997C12.71 4.63139 12.3255 4.5071 11.8615 4.5071C11.3942 4.5071 11.0064 4.63139 10.6982 4.87997C10.3932 5.12855 10.1662 5.45833 10.017 5.86932C9.87121 6.27699 9.7983 6.72443 9.7983 7.21165C9.7983 7.70218 9.87121 8.15128 10.017 8.55895C10.1662 8.96662 10.3932 9.29309 10.6982 9.53835C11.0064 9.78362 11.3942 9.90625 11.8615 9.90625ZM19.9341 11.1491C19.3176 11.1491 18.7675 10.9917 18.2836 10.6768C17.803 10.3587 17.4251 9.90625 17.15 9.3196C16.8783 8.72964 16.7424 8.02202 16.7424 7.19673C16.7424 6.37145 16.8799 5.66548 17.155 5.07884C17.4334 4.49219 17.8146 4.04309 18.2985 3.73153C18.7824 3.41998 19.3309 3.2642 19.9441 3.2642C20.418 3.2642 20.7992 3.34375 21.0875 3.50284C21.3792 3.65862 21.6046 3.84091 21.7637 4.04972C21.9261 4.25852 22.052 4.44247 22.1415 4.60156H22.231V0.818182H23.7175V11H22.2658V9.81179H22.1415C22.052 9.9742 21.9228 10.1598 21.7537 10.3686C21.588 10.5774 21.3593 10.7597 21.0676 10.9155C20.776 11.0713 20.3981 11.1491 19.9341 11.1491ZM20.2623 9.88139C20.6898 9.88139 21.0511 9.7687 21.3461 9.54332C21.6444 9.31463 21.8697 8.99811 22.0222 8.59375C22.178 8.18939 22.2559 7.71875 22.2559 7.18182C22.2559 6.65151 22.1796 6.1875 22.0272 5.78977C21.8747 5.39205 21.651 5.08215 21.356 4.86009C21.061 4.63802 20.6964 4.52699 20.2623 4.52699C19.8148 4.52699 19.4419 4.64299 19.1436 4.875C18.8453 5.10701 18.62 5.42353 18.4675 5.82457C18.3184 6.22562 18.2438 6.67803 18.2438 7.18182C18.2438 7.69223 18.32 8.15128 18.4725 8.55895C18.6249 8.96662 18.8503 9.28977 19.1486 9.52841C19.4502 9.76373 19.8214 9.88139 20.2623 9.88139ZM29.0558 11.1541C28.3166 11.1541 27.6803 10.9867 27.1467 10.652C26.6164 10.3139 26.2087 9.84825 25.9237 9.25497C25.6386 8.66169 25.4961 7.98224 25.4961 7.21662C25.4961 6.44105 25.6419 5.75663 25.9336 5.16335C26.2253 4.56676 26.6362 4.10109 27.1665 3.76633C27.6969 3.43158 28.3216 3.2642 29.0408 3.2642C29.6209 3.2642 30.1379 3.37192 30.592 3.58736C31.046 3.79948 31.4123 4.09777 31.6907 4.48224C31.9724 4.86671 32.1398 5.31581 32.1928 5.82955H30.7461C30.6665 5.47159 30.4843 5.16335 30.1992 4.90483C29.9175 4.64631 29.5397 4.51705 29.0657 4.51705C28.6514 4.51705 28.2885 4.62642 27.9769 4.84517C27.6687 5.06061 27.4284 5.36884 27.256 5.76989C27.0837 6.16761 26.9975 6.63826 26.9975 7.18182C26.9975 7.73864 27.082 8.21922 27.2511 8.62358C27.4201 9.02794 27.6587 9.34115 27.967 9.56321C28.2785 9.78527 28.6448 9.89631 29.0657 9.89631C29.3474 9.89631 29.6026 9.84493 29.8313 9.74219C30.0633 9.63613 30.2572 9.48532 30.413 9.28977C30.5721 9.09422 30.6831 8.8589 30.7461 8.58381H32.1928C32.1398 9.07765 31.979 9.51847 31.7106 9.90625C31.4421 10.294 31.0825 10.599 30.6317 10.821C30.1843 11.0431 29.659 11.1541 29.0558 11.1541ZM36.0048 11.169C35.5209 11.169 35.0834 11.0795 34.6923 10.9006C34.3012 10.7183 33.9913 10.4548 33.7626 10.1101C33.5372 9.76539 33.4245 9.3428 33.4245 8.84233C33.4245 8.41146 33.5074 8.05682 33.6731 7.77841C33.8388 7.5 34.0626 7.27959 34.3443 7.11719C34.626 6.95478 34.9409 6.83215 35.2889 6.74929C35.6369 6.66643 35.9915 6.60346 36.3528 6.56037C36.8102 6.50734 37.1814 6.46425 37.4664 6.43111C37.7515 6.39465 37.9586 6.33665 38.0879 6.2571C38.2172 6.17756 38.2818 6.0483 38.2818 5.86932V5.83452C38.2818 5.40033 38.1592 5.06392 37.9139 4.82528C37.6719 4.58665 37.3107 4.46733 36.8301 4.46733C36.3296 4.46733 35.9352 4.57836 35.6468 4.80043C35.3618 5.01918 35.1646 5.26278 35.0552 5.53125L33.6582 5.21307C33.8239 4.74905 34.0659 4.37453 34.3841 4.08949C34.7056 3.80114 35.0751 3.59233 35.4927 3.46307C35.9103 3.33049 36.3495 3.2642 36.8102 3.2642C37.1151 3.2642 37.4383 3.30066 37.7797 3.37358C38.1243 3.44318 38.4458 3.57244 38.7441 3.76136C39.0458 3.95028 39.2927 4.22041 39.4849 4.57173C39.6771 4.91974 39.7733 5.37216 39.7733 5.92898V11H38.3216V9.95597H38.2619C38.1658 10.1482 38.0216 10.3371 37.8294 10.5227C37.6371 10.7083 37.3902 10.8625 37.0886 10.9851C36.787 11.1077 36.4257 11.169 36.0048 11.169ZM36.3279 9.97585C36.7389 9.97585 37.0903 9.89465 37.3819 9.73224C37.6769 9.56984 37.9006 9.35772 38.0531 9.09588C38.2089 8.83073 38.2868 8.54735 38.2868 8.24574V7.26136C38.2337 7.31439 38.131 7.36411 37.9785 7.41051C37.8294 7.4536 37.6587 7.49171 37.4664 7.52486C37.2742 7.55469 37.0869 7.58286 36.9047 7.60938C36.7224 7.63258 36.5699 7.65246 36.4473 7.66903C36.1589 7.70549 35.8954 7.76681 35.6568 7.85298C35.4215 7.93916 35.2325 8.06345 35.09 8.22585C34.9508 8.38494 34.8812 8.59706 34.8812 8.86222C34.8812 9.23011 35.0171 9.50852 35.2889 9.69744C35.5607 9.88305 35.907 9.97585 36.3279 9.97585ZM47.4755 5.22798L46.1282 5.46662C46.0719 5.29427 45.9824 5.13021 45.8597 4.97443C45.7404 4.81865 45.578 4.69105 45.3725 4.59162C45.167 4.49219 44.9102 4.44247 44.6019 4.44247C44.181 4.44247 43.8297 4.53693 43.5479 4.72585C43.2662 4.91146 43.1254 5.15175 43.1254 5.44673C43.1254 5.70194 43.2198 5.90743 43.4087 6.06321C43.5977 6.21899 43.9026 6.34659 44.3235 6.44602L45.5366 6.72443C46.2392 6.88684 46.7629 7.13707 47.1076 7.47514C47.4523 7.81321 47.6246 8.25237 47.6246 8.79261C47.6246 9.25 47.4921 9.65767 47.2269 10.0156C46.9651 10.3703 46.5988 10.6487 46.1282 10.8509C45.6609 11.053 45.119 11.1541 44.5025 11.1541C43.6474 11.1541 42.9497 10.9718 42.4094 10.6072C41.8692 10.2393 41.5378 9.71733 41.4151 9.04119L42.8519 8.82244C42.9414 9.19697 43.1254 9.48035 43.4038 9.67259C43.6822 9.86151 44.0451 9.95597 44.4925 9.95597C44.9798 9.95597 45.3692 9.85488 45.6609 9.6527C45.9525 9.44721 46.0984 9.19697 46.0984 8.90199C46.0984 8.66335 46.0089 8.46283 45.8299 8.30043C45.6542 8.13802 45.3841 8.01539 45.0195 7.93253L43.7269 7.64915C43.0143 7.48674 42.4873 7.22822 42.146 6.87358C41.8079 6.51894 41.6388 6.06984 41.6388 5.52628C41.6388 5.07552 41.7648 4.68111 42.0167 4.34304C42.2686 4.00497 42.6166 3.74148 43.0607 3.55256C43.5049 3.36032 44.0136 3.2642 44.587 3.2642C45.4123 3.2642 46.0619 3.44318 46.5359 3.80114C47.0098 4.15578 47.323 4.63139 47.4755 5.22798ZM52.8237 3.36364V4.55682H48.6525V3.36364H52.8237ZM49.7711 1.53409H51.2576V8.75781C51.2576 9.04616 51.3007 9.26326 51.3869 9.40909C51.4731 9.55161 51.5841 9.64938 51.72 9.70241C51.8592 9.75213 52.01 9.77699 52.1724 9.77699C52.2917 9.77699 52.3961 9.7687 52.4856 9.75213C52.5751 9.73556 52.6447 9.7223 52.6944 9.71236L52.9629 10.9403C52.8767 10.9735 52.7541 11.0066 52.595 11.0398C52.4359 11.0762 52.237 11.0961 51.9984 11.0994C51.6073 11.1061 51.2427 11.0365 50.9047 10.8906C50.5666 10.7448 50.2931 10.5194 50.0843 10.2145C49.8755 9.90956 49.7711 9.52675 49.7711 9.06605V1.53409Z" fill="black"/>
</svg>
