<svg width="67" height="14" viewBox="0 0 67 14" fill="none" xmlns="http://www.w3.org/2000/svg">
<path d="M-0.000710189 11V3.36364H1.43608V4.5767H1.51562C1.65483 4.16572 1.90009 3.84257 2.25142 3.60724C2.60606 3.36861 3.0071 3.24929 3.45455 3.24929C3.54735 3.24929 3.65672 3.2526 3.78267 3.25923C3.91193 3.26586 4.01302 3.27415 4.08594 3.28409V4.70597C4.02628 4.68939 3.92022 4.67116 3.76776 4.65128C3.61529 4.62808 3.46283 4.61648 3.31037 4.61648C2.95904 4.61648 2.64583 4.69105 2.37074 4.8402C2.09896 4.98603 1.88352 5.18987 1.72443 5.4517C1.56534 5.71023 1.4858 6.00521 1.4858 6.33665V11H-0.000710189ZM8.39009 11.1541C7.63772 11.1541 6.98976 10.9934 6.4462 10.6719C5.90595 10.3471 5.48834 9.89134 5.19336 9.30469C4.90169 8.71473 4.75586 8.02367 4.75586 7.23153C4.75586 6.44934 4.90169 5.75994 5.19336 5.16335C5.48834 4.56676 5.89933 4.10109 6.42631 3.76633C6.95662 3.43158 7.57641 3.2642 8.28569 3.2642C8.71656 3.2642 9.13417 3.33546 9.53853 3.47798C9.94289 3.6205 10.3058 3.84422 10.6273 4.14915C10.9488 4.45407 11.2024 4.85014 11.388 5.33736C11.5736 5.82126 11.6664 6.40956 11.6664 7.10227V7.62926H5.59606V6.51562H10.2097C10.2097 6.12453 10.1301 5.77817 9.97106 5.47656C9.81197 5.17164 9.58825 4.93134 9.29989 4.75568C9.01486 4.58002 8.6801 4.49219 8.29563 4.49219C7.87802 4.49219 7.51344 4.59493 7.20188 4.80043C6.89364 5.0026 6.65501 5.26776 6.48597 5.59588C6.32025 5.92069 6.23739 6.27367 6.23739 6.65483V7.52486C6.23739 8.03527 6.32688 8.46946 6.50586 8.82741C6.68815 9.18537 6.9417 9.45881 7.26651 9.64773C7.59132 9.83333 7.97082 9.92614 8.40501 9.92614C8.68673 9.92614 8.9436 9.88636 9.1756 9.80682C9.40761 9.72396 9.60813 9.60133 9.77717 9.43892C9.9462 9.27652 10.0755 9.07599 10.165 8.83736L11.5719 9.09091C11.4592 9.50521 11.257 9.86813 10.9654 10.1797C10.677 10.4879 10.3141 10.7282 9.8766 10.9006C9.44241 11.0696 8.94691 11.1541 8.39009 11.1541ZM13.3157 13.8636V3.36364H14.7674V4.60156H14.8917C14.9779 4.44247 15.1022 4.25852 15.2646 4.04972C15.427 3.84091 15.6523 3.65862 15.9407 3.50284C16.229 3.34375 16.6102 3.2642 17.0842 3.2642C17.7006 3.2642 18.2508 3.41998 18.7347 3.73153C19.2186 4.04309 19.5981 4.49219 19.8732 5.07884C20.1516 5.66548 20.2908 6.37145 20.2908 7.19673C20.2908 8.02202 20.1533 8.72964 19.8782 9.3196C19.6031 9.90625 19.2253 10.3587 18.7447 10.6768C18.2641 10.9917 17.7156 11.1491 17.0991 11.1491C16.6351 11.1491 16.2556 11.0713 15.9606 10.9155C15.6689 10.7597 15.4402 10.5774 15.2745 10.3686C15.1088 10.1598 14.9812 9.9742 14.8917 9.81179H14.8022V13.8636H13.3157ZM14.7724 7.18182C14.7724 7.71875 14.8503 8.18939 15.006 8.59375C15.1618 8.99811 15.3872 9.31463 15.6822 9.54332C15.9772 9.7687 16.3384 9.88139 16.766 9.88139C17.2101 9.88139 17.5813 9.76373 17.8796 9.52841C18.1779 9.28977 18.4033 8.96662 18.5558 8.55895C18.7115 8.15128 18.7894 7.69223 18.7894 7.18182C18.7894 6.67803 18.7132 6.22562 18.5607 5.82457C18.4116 5.42353 18.1862 5.10701 17.8846 4.875C17.5863 4.64299 17.2134 4.52699 16.766 4.52699C16.3351 4.52699 15.9705 4.63802 15.6722 4.86009C15.3772 5.08215 15.1535 5.39205 15.0011 5.78977C14.8486 6.1875 14.7724 6.65151 14.7724 7.18182ZM25.2475 11.1541C24.4951 11.1541 23.8472 10.9934 23.3036 10.6719C22.7634 10.3471 22.3458 9.89134 22.0508 9.30469C21.7591 8.71473 21.6133 8.02367 21.6133 7.23153C21.6133 6.44934 21.7591 5.75994 22.0508 5.16335C22.3458 4.56676 22.7567 4.10109 23.2837 3.76633C23.814 3.43158 24.4338 3.2642 25.1431 3.2642C25.574 3.2642 25.9916 3.33546 26.396 3.47798C26.8003 3.6205 27.1632 3.84422 27.4847 4.14915C27.8062 4.45407 28.0598 4.85014 28.2454 5.33736C28.431 5.82126 28.5238 6.40956 28.5238 7.10227V7.62926H22.4535V6.51562H27.0671C27.0671 6.12453 26.9876 5.77817 26.8285 5.47656C26.6694 5.17164 26.4457 4.93134 26.1573 4.75568C25.8723 4.58002 25.5375 4.49219 25.1531 4.49219C24.7354 4.49219 24.3709 4.59493 24.0593 4.80043C23.7511 5.0026 23.5124 5.26776 23.3434 5.59588C23.1777 5.92069 23.0948 6.27367 23.0948 6.65483V7.52486C23.0948 8.03527 23.1843 8.46946 23.3633 8.82741C23.5456 9.18537 23.7991 9.45881 24.1239 9.64773C24.4487 9.83333 24.8282 9.92614 25.2624 9.92614C25.5442 9.92614 25.801 9.88636 26.033 9.80682C26.265 9.72396 26.4656 9.60133 26.6346 9.43892C26.8036 9.27652 26.9329 9.07599 27.0224 8.83736L28.4293 9.09091C28.3166 9.50521 28.1145 9.86813 27.8228 10.1797C27.5344 10.4879 27.1715 10.7282 26.734 10.9006C26.2998 11.0696 25.8043 11.1541 25.2475 11.1541ZM32.3954 11.169C31.9115 11.169 31.474 11.0795 31.0829 10.9006C30.6918 10.7183 30.3819 10.4548 30.1532 10.1101C29.9279 9.76539 29.8152 9.3428 29.8152 8.84233C29.8152 8.41146 29.898 8.05682 30.0637 7.77841C30.2295 7.5 30.4532 7.27959 30.7349 7.11719C31.0166 6.95478 31.3315 6.83215 31.6795 6.74929C32.0275 6.66643 32.3822 6.60346 32.7434 6.56037C33.2008 6.50734 33.572 6.46425 33.8571 6.43111C34.1421 6.39465 34.3493 6.33665 34.4785 6.2571C34.6078 6.17756 34.6724 6.0483 34.6724 5.86932V5.83452C34.6724 5.40033 34.5498 5.06392 34.3045 4.82528C34.0626 4.58665 33.7013 4.46733 33.2207 4.46733C32.7202 4.46733 32.3258 4.57836 32.0375 4.80043C31.7524 5.01918 31.5552 5.26278 31.4458 5.53125L30.0488 5.21307C30.2145 4.74905 30.4565 4.37453 30.7747 4.08949C31.0962 3.80114 31.4657 3.59233 31.8833 3.46307C32.301 3.33049 32.7401 3.2642 33.2008 3.2642C33.5057 3.2642 33.8289 3.30066 34.1703 3.37358C34.515 3.44318 34.8365 3.57244 35.1348 3.76136C35.4364 3.95028 35.6833 4.22041 35.8755 4.57173C36.0678 4.91974 36.1639 5.37216 36.1639 5.92898V11H34.7122V9.95597H34.6525C34.5564 10.1482 34.4122 10.3371 34.22 10.5227C34.0278 10.7083 33.7808 10.8625 33.4792 10.9851C33.1776 11.1077 32.8163 11.169 32.3954 11.169ZM32.7186 9.97585C33.1296 9.97585 33.4809 9.89465 33.7725 9.73224C34.0675 9.56984 34.2913 9.35772 34.4437 9.09588C34.5995 8.83073 34.6774 8.54735 34.6774 8.24574V7.26136C34.6243 7.31439 34.5216 7.36411 34.3691 7.41051C34.22 7.4536 34.0493 7.49171 33.8571 7.52486C33.6648 7.55469 33.4776 7.58286 33.2953 7.60938C33.113 7.63258 32.9605 7.65246 32.8379 7.66903C32.5495 7.70549 32.286 7.76681 32.0474 7.85298C31.8121 7.93916 31.6232 8.06345 31.4806 8.22585C31.3414 8.38494 31.2718 8.59706 31.2718 8.86222C31.2718 9.23011 31.4077 9.50852 31.6795 9.69744C31.9513 9.88305 32.2976 9.97585 32.7186 9.97585ZM41.7085 3.36364V4.55682H37.5373V3.36364H41.7085ZM38.6559 1.53409H40.1424V8.75781C40.1424 9.04616 40.1855 9.26326 40.2717 9.40909C40.3578 9.55161 40.4689 9.64938 40.6048 9.70241C40.744 9.75213 40.8948 9.77699 41.0572 9.77699C41.1765 9.77699 41.2809 9.7687 41.3704 9.75213C41.4599 9.73556 41.5295 9.7223 41.5792 9.71236L41.8477 10.9403C41.7615 10.9735 41.6388 11.0066 41.4798 11.0398C41.3207 11.0762 41.1218 11.0961 40.8832 11.0994C40.4921 11.1061 40.1275 11.0365 39.7894 10.8906C39.4513 10.7448 39.1779 10.5194 38.9691 10.2145C38.7603 9.90956 38.6559 9.52675 38.6559 9.06605V1.53409ZM47.5923 6.05327V7.34091H43.0781V6.05327H47.5923ZM53.0984 11.169C52.3129 11.1657 51.6417 10.9586 51.0849 10.5476C50.5281 10.1366 50.1022 9.53835 49.8072 8.75284C49.5122 7.96733 49.3647 7.02107 49.3647 5.91406C49.3647 4.81037 49.5122 3.86742 49.8072 3.08523C50.1055 2.30303 50.533 1.70644 51.0898 1.29545C51.65 0.884469 52.3195 0.678977 53.0984 0.678977C53.8772 0.678977 54.5451 0.886126 55.1019 1.30043C55.6587 1.71141 56.0846 2.308 56.3796 3.0902C56.6779 3.86908 56.8271 4.81037 56.8271 5.91406C56.8271 7.02438 56.6796 7.9723 56.3846 8.75781C56.0896 9.54001 55.6637 10.1383 55.1069 10.5526C54.5501 10.9635 53.8806 11.169 53.0984 11.169ZM53.0984 9.84162C53.7878 9.84162 54.3263 9.50521 54.7141 8.83239C55.1052 8.15956 55.3008 7.18679 55.3008 5.91406C55.3008 5.06889 55.2113 4.35464 55.0323 3.77131C54.8567 3.18466 54.6031 2.74053 54.2717 2.43892C53.9435 2.134 53.5524 1.98153 53.0984 1.98153C52.4123 1.98153 51.8737 2.3196 51.4826 2.99574C51.0915 3.67187 50.8943 4.64465 50.891 5.91406C50.891 6.76255 50.9788 7.48011 51.1545 8.06676C51.3335 8.65009 51.587 9.09257 51.9151 9.39418C52.2433 9.69247 52.6377 9.84162 53.0984 9.84162ZM58.377 9.01136V7.76847L62.7768 0.818182H63.7562V2.64773H63.1348L59.9877 7.62926V7.70881H66.0183V9.01136H58.377ZM63.2044 11V8.63352L63.2143 8.06676V0.818182H64.671V11H63.2044Z" fill="black"/>
</svg>
