<svg width="74" height="12" viewBox="0 0 74 12" fill="none" xmlns="http://www.w3.org/2000/svg">
<path d="M-0.000710189 11V3.36364H1.42614V4.60653H1.5206C1.67969 4.18561 1.93987 3.85748 2.30114 3.62216C2.66241 3.38352 3.09493 3.2642 3.59872 3.2642C4.10914 3.2642 4.5367 3.38352 4.88139 3.62216C5.2294 3.8608 5.48627 4.18892 5.65199 4.60653H5.73153C5.91383 4.19886 6.20384 3.87405 6.60156 3.6321C6.99929 3.38684 7.47325 3.2642 8.02344 3.2642C8.71615 3.2642 9.28125 3.4813 9.71875 3.91548C10.1596 4.34967 10.38 5.00426 10.38 5.87926V11H8.89347V6.01847C8.89347 5.50142 8.7526 5.12689 8.47088 4.89489C8.18916 4.66288 7.85275 4.54688 7.46165 4.54688C6.97775 4.54688 6.60156 4.69602 6.3331 4.99432C6.06463 5.2893 5.9304 5.6688 5.9304 6.13281V11H4.44886V5.92401C4.44886 5.50971 4.3196 5.17661 4.06108 4.92472C3.80256 4.67282 3.46615 4.54688 3.05185 4.54688C2.77012 4.54688 2.50994 4.62145 2.27131 4.7706C2.03599 4.91643 1.84541 5.12026 1.69957 5.3821C1.55706 5.64394 1.4858 5.94721 1.4858 6.2919V11H-0.000710189ZM15.589 11.1541C14.873 11.1541 14.2483 10.9901 13.7147 10.6619C13.181 10.3338 12.7667 9.87476 12.4718 9.2848C12.1768 8.69484 12.0293 8.00544 12.0293 7.21662C12.0293 6.42448 12.1768 5.73177 12.4718 5.13849C12.7667 4.54522 13.181 4.08452 13.7147 3.75639C14.2483 3.42827 14.873 3.2642 15.589 3.2642C16.3049 3.2642 16.9296 3.42827 17.4632 3.75639C17.9969 4.08452 18.4112 4.54522 18.7061 5.13849C19.0011 5.73177 19.1486 6.42448 19.1486 7.21662C19.1486 8.00544 19.0011 8.69484 18.7061 9.2848C18.4112 9.87476 17.9969 10.3338 17.4632 10.6619C16.9296 10.9901 16.3049 11.1541 15.589 11.1541ZM15.5939 9.90625C16.0579 9.90625 16.4424 9.78362 16.7473 9.53835C17.0523 9.29309 17.2776 8.96662 17.4235 8.55895C17.5726 8.15128 17.6472 7.70218 17.6472 7.21165C17.6472 6.72443 17.5726 6.27699 17.4235 5.86932C17.2776 5.45833 17.0523 5.12855 16.7473 4.87997C16.4424 4.63139 16.0579 4.5071 15.5939 4.5071C15.1266 4.5071 14.7388 4.63139 14.4306 4.87997C14.1257 5.12855 13.8986 5.45833 13.7495 5.86932C13.6036 6.27699 13.5307 6.72443 13.5307 7.21165C13.5307 7.70218 13.6036 8.15128 13.7495 8.55895C13.8986 8.96662 14.1257 9.29309 14.4306 9.53835C14.7388 9.78362 15.1266 9.90625 15.5939 9.90625ZM22.2944 6.46591V11H20.8079V3.36364H22.2347V4.60653H22.3292C22.5049 4.20218 22.7799 3.87737 23.1545 3.6321C23.5323 3.38684 24.0079 3.2642 24.5813 3.2642C25.1017 3.2642 25.5574 3.37358 25.9485 3.59233C26.3396 3.80777 26.6429 4.12926 26.8583 4.55682C27.0737 4.98437 27.1815 5.51302 27.1815 6.14276V11H25.695V6.32173C25.695 5.76823 25.5508 5.3357 25.2624 5.02415C24.9741 4.70928 24.578 4.55185 24.0742 4.55185C23.7295 4.55185 23.4229 4.62642 23.1545 4.77557C22.8893 4.92472 22.6789 5.14347 22.5231 5.43182C22.3706 5.71686 22.2944 6.06155 22.2944 6.46591ZM29.1751 11V3.36364H30.6616V11H29.1751ZM29.9258 2.18537C29.6673 2.18537 29.4452 2.09919 29.2596 1.92685C29.0773 1.75118 28.9862 1.54238 28.9862 1.30043C28.9862 1.05516 29.0773 0.846354 29.2596 0.674005C29.4452 0.498342 29.6673 0.410511 29.9258 0.410511C30.1843 0.410511 30.4047 0.498342 30.587 0.674005C30.7726 0.846354 30.8654 1.05516 30.8654 1.30043C30.8654 1.54238 30.7726 1.75118 30.587 1.92685C30.4047 2.09919 30.1843 2.18537 29.9258 2.18537ZM36.226 3.36364V4.55682H32.0549V3.36364H36.226ZM33.1735 1.53409H34.66V8.75781C34.66 9.04616 34.7031 9.26326 34.7892 9.40909C34.8754 9.55161 34.9864 9.64938 35.1223 9.70241C35.2615 9.75213 35.4123 9.77699 35.5748 9.77699C35.6941 9.77699 35.7985 9.7687 35.888 9.75213C35.9775 9.73556 36.0471 9.7223 36.0968 9.71236L36.3652 10.9403C36.2791 10.9735 36.1564 11.0066 35.9973 11.0398C35.8382 11.0762 35.6394 11.0961 35.4007 11.0994C35.0096 11.1061 34.6451 11.0365 34.307 10.8906C33.9689 10.7448 33.6955 10.5194 33.4867 10.2145C33.2779 9.90956 33.1735 9.52675 33.1735 9.06605V1.53409ZM41.005 11.1541C40.2891 11.1541 39.6643 10.9901 39.1307 10.6619C38.5971 10.3338 38.1828 9.87476 37.8878 9.2848C37.5928 8.69484 37.4453 8.00544 37.4453 7.21662C37.4453 6.42448 37.5928 5.73177 37.8878 5.13849C38.1828 4.54522 38.5971 4.08452 39.1307 3.75639C39.6643 3.42827 40.2891 3.2642 41.005 3.2642C41.7209 3.2642 42.3456 3.42827 42.8793 3.75639C43.4129 4.08452 43.8272 4.54522 44.1222 5.13849C44.4171 5.73177 44.5646 6.42448 44.5646 7.21662C44.5646 8.00544 44.4171 8.69484 44.1222 9.2848C43.8272 9.87476 43.4129 10.3338 42.8793 10.6619C42.3456 10.9901 41.7209 11.1541 41.005 11.1541ZM41.0099 9.90625C41.474 9.90625 41.8584 9.78362 42.1634 9.53835C42.4683 9.29309 42.6937 8.96662 42.8395 8.55895C42.9886 8.15128 43.0632 7.70218 43.0632 7.21165C43.0632 6.72443 42.9886 6.27699 42.8395 5.86932C42.6937 5.45833 42.4683 5.12855 42.1634 4.87997C41.8584 4.63139 41.474 4.5071 41.0099 4.5071C40.5426 4.5071 40.1548 4.63139 39.8466 4.87997C39.5417 5.12855 39.3146 5.45833 39.1655 5.86932C39.0196 6.27699 38.9467 6.72443 38.9467 7.21165C38.9467 7.70218 39.0196 8.15128 39.1655 8.55895C39.3146 8.96662 39.5417 9.29309 39.8466 9.53835C40.1548 9.78362 40.5426 9.90625 41.0099 9.90625ZM46.2239 11V3.36364H47.6607V4.5767H47.7402C47.8794 4.16572 48.1247 3.84257 48.476 3.60724C48.8307 3.36861 49.2317 3.24929 49.6792 3.24929C49.772 3.24929 49.8813 3.2526 50.0073 3.25923C50.1365 3.26586 50.2376 3.27415 50.3105 3.28409V4.70597C50.2509 4.68939 50.1448 4.67116 49.9924 4.65128C49.8399 4.62808 49.6874 4.61648 49.535 4.61648C49.1837 4.61648 48.8704 4.69105 48.5953 4.8402C48.3236 4.98603 48.1081 5.18987 47.949 5.4517C47.79 5.71023 47.7104 6.00521 47.7104 6.33665V11H46.2239ZM55.6451 6.05327V7.34091H51.1309V6.05327H55.6451ZM61.1511 11.169C60.3656 11.1657 59.6944 10.9586 59.1376 10.5476C58.5808 10.1366 58.1549 9.53835 57.8599 8.75284C57.5649 7.96733 57.4174 7.02107 57.4174 5.91406C57.4174 4.81037 57.5649 3.86742 57.8599 3.08523C58.1582 2.30303 58.5858 1.70644 59.1426 1.29545C59.7027 0.884469 60.3722 0.678977 61.1511 0.678977C61.93 0.678977 62.5978 0.886126 63.1547 1.30043C63.7115 1.71141 64.1374 2.308 64.4324 3.0902C64.7306 3.86908 64.8798 4.81037 64.8798 5.91406C64.8798 7.02438 64.7323 7.9723 64.4373 8.75781C64.1423 9.54001 63.7164 10.1383 63.1596 10.5526C62.6028 10.9635 61.9333 11.169 61.1511 11.169ZM61.1511 9.84162C61.8405 9.84162 62.3791 9.50521 62.7669 8.83239C63.158 8.15956 63.3535 7.18679 63.3535 5.91406C63.3535 5.06889 63.264 4.35464 63.085 3.77131C62.9094 3.18466 62.6558 2.74053 62.3244 2.43892C61.9963 2.134 61.6052 1.98153 61.1511 1.98153C60.465 1.98153 59.9264 2.3196 59.5353 2.99574C59.1442 3.67187 58.947 4.64465 58.9437 5.91406C58.9437 6.76255 59.0315 7.48011 59.2072 8.06676C59.3862 8.65009 59.6397 9.09257 59.9679 9.39418C60.296 9.69247 60.6904 9.84162 61.1511 9.84162ZM66.6435 11V9.88636L70.0888 6.31676C70.4567 5.92898 70.7599 5.58925 70.9986 5.29759C71.2405 5.0026 71.4212 4.72254 71.5405 4.45739C71.6598 4.19223 71.7195 3.91051 71.7195 3.61222C71.7195 3.27415 71.6399 2.98248 71.4808 2.73722C71.3217 2.48864 71.1046 2.29806 70.8295 2.16548C70.5545 2.02959 70.2446 1.96165 69.8999 1.96165C69.5353 1.96165 69.2171 2.03622 68.9453 2.18537C68.6735 2.33452 68.4647 2.54498 68.3189 2.81676C68.1731 3.08854 68.1001 3.40672 68.1001 3.77131H66.6335C66.6335 3.15151 66.776 2.60961 67.0611 2.1456C67.3461 1.68158 67.7372 1.32197 68.2344 1.06676C68.7315 0.808238 69.2966 0.678977 69.9297 0.678977C70.5694 0.678977 71.1328 0.806581 71.62 1.06179C72.1106 1.31368 72.4934 1.65838 72.7685 2.09588C73.0436 2.53007 73.1811 3.0206 73.1811 3.56747C73.1811 3.94531 73.1098 4.31487 72.9673 4.67614C72.8281 5.0374 72.5845 5.4401 72.2365 5.88423C71.8885 6.32505 71.4046 6.86032 70.7848 7.49006L68.7614 9.60795V9.68253H73.3452V11H66.6435Z" fill="black"/>
</svg>
