<svg width="73" height="12" viewBox="0 0 73 12" fill="none" xmlns="http://www.w3.org/2000/svg">
<path d="M-0.000710189 11V3.36364H1.42614V4.60653H1.5206C1.67969 4.18561 1.93987 3.85748 2.30114 3.62216C2.66241 3.38352 3.09493 3.2642 3.59872 3.2642C4.10914 3.2642 4.5367 3.38352 4.88139 3.62216C5.2294 3.8608 5.48627 4.18892 5.65199 4.60653H5.73153C5.91383 4.19886 6.20384 3.87405 6.60156 3.6321C6.99929 3.38684 7.47325 3.2642 8.02344 3.2642C8.71615 3.2642 9.28125 3.4813 9.71875 3.91548C10.1596 4.34967 10.38 5.00426 10.38 5.87926V11H8.89347V6.01847C8.89347 5.50142 8.7526 5.12689 8.47088 4.89489C8.18916 4.66288 7.85275 4.54688 7.46165 4.54688C6.97775 4.54688 6.60156 4.69602 6.3331 4.99432C6.06463 5.2893 5.9304 5.6688 5.9304 6.13281V11H4.44886V5.92401C4.44886 5.50971 4.3196 5.17661 4.06108 4.92472C3.80256 4.67282 3.46615 4.54688 3.05185 4.54688C2.77012 4.54688 2.50994 4.62145 2.27131 4.7706C2.03599 4.91643 1.84541 5.12026 1.69957 5.3821C1.55706 5.64394 1.4858 5.94721 1.4858 6.2919V11H-0.000710189ZM15.589 11.1541C14.873 11.1541 14.2483 10.9901 13.7147 10.6619C13.181 10.3338 12.7667 9.87476 12.4718 9.2848C12.1768 8.69484 12.0293 8.00544 12.0293 7.21662C12.0293 6.42448 12.1768 5.73177 12.4718 5.13849C12.7667 4.54522 13.181 4.08452 13.7147 3.75639C14.2483 3.42827 14.873 3.2642 15.589 3.2642C16.3049 3.2642 16.9296 3.42827 17.4632 3.75639C17.9969 4.08452 18.4112 4.54522 18.7061 5.13849C19.0011 5.73177 19.1486 6.42448 19.1486 7.21662C19.1486 8.00544 19.0011 8.69484 18.7061 9.2848C18.4112 9.87476 17.9969 10.3338 17.4632 10.6619C16.9296 10.9901 16.3049 11.1541 15.589 11.1541ZM15.5939 9.90625C16.0579 9.90625 16.4424 9.78362 16.7473 9.53835C17.0523 9.29309 17.2776 8.96662 17.4235 8.55895C17.5726 8.15128 17.6472 7.70218 17.6472 7.21165C17.6472 6.72443 17.5726 6.27699 17.4235 5.86932C17.2776 5.45833 17.0523 5.12855 16.7473 4.87997C16.4424 4.63139 16.0579 4.5071 15.5939 4.5071C15.1266 4.5071 14.7388 4.63139 14.4306 4.87997C14.1257 5.12855 13.8986 5.45833 13.7495 5.86932C13.6036 6.27699 13.5307 6.72443 13.5307 7.21165C13.5307 7.70218 13.6036 8.15128 13.7495 8.55895C13.8986 8.96662 14.1257 9.29309 14.4306 9.53835C14.7388 9.78362 15.1266 9.90625 15.5939 9.90625ZM23.6665 11.1491C23.0501 11.1491 22.4999 10.9917 22.016 10.6768C21.5354 10.3587 21.1576 9.90625 20.8825 9.3196C20.6107 8.72964 20.4748 8.02202 20.4748 7.19673C20.4748 6.37145 20.6123 5.66548 20.8874 5.07884C21.1658 4.49219 21.547 4.04309 22.0309 3.73153C22.5148 3.41998 23.0633 3.2642 23.6765 3.2642C24.1504 3.2642 24.5316 3.34375 24.82 3.50284C25.1116 3.65862 25.337 3.84091 25.4961 4.04972C25.6585 4.25852 25.7844 4.44247 25.8739 4.60156H25.9634V0.818182H27.4499V11H25.9982V9.81179H25.8739C25.7844 9.9742 25.6552 10.1598 25.4862 10.3686C25.3204 10.5774 25.0917 10.7597 24.8001 10.9155C24.5084 11.0713 24.1306 11.1491 23.6665 11.1491ZM23.9947 9.88139C24.4222 9.88139 24.7835 9.7687 25.0785 9.54332C25.3768 9.31463 25.6022 8.99811 25.7546 8.59375C25.9104 8.18939 25.9883 7.71875 25.9883 7.18182C25.9883 6.65151 25.9121 6.1875 25.7596 5.78977C25.6071 5.39205 25.3834 5.08215 25.0884 4.86009C24.7934 4.63802 24.4289 4.52699 23.9947 4.52699C23.5472 4.52699 23.1744 4.64299 22.8761 4.875C22.5778 5.10701 22.3524 5.42353 22.1999 5.82457C22.0508 6.22562 21.9762 6.67803 21.9762 7.18182C21.9762 7.69223 22.0524 8.15128 22.2049 8.55895C22.3574 8.96662 22.5827 9.28977 22.881 9.52841C23.1826 9.76373 23.5539 9.88139 23.9947 9.88139ZM32.8627 11.1541C32.1104 11.1541 31.4624 10.9934 30.9189 10.6719C30.3786 10.3471 29.961 9.89134 29.666 9.30469C29.3743 8.71473 29.2285 8.02367 29.2285 7.23153C29.2285 6.44934 29.3743 5.75994 29.666 5.16335C29.961 4.56676 30.372 4.10109 30.899 3.76633C31.4293 3.43158 32.0491 3.2642 32.7583 3.2642C33.1892 3.2642 33.6068 3.33546 34.0112 3.47798C34.4155 3.6205 34.7785 3.84422 35.1 4.14915C35.4215 4.45407 35.675 4.85014 35.8606 5.33736C36.0462 5.82126 36.139 6.40956 36.139 7.10227V7.62926H30.0687V6.51562H34.6824C34.6824 6.12453 34.6028 5.77817 34.4437 5.47656C34.2846 5.17164 34.0609 4.93134 33.7725 4.75568C33.4875 4.58002 33.1528 4.49219 32.7683 4.49219C32.3507 4.49219 31.9861 4.59493 31.6745 4.80043C31.3663 5.0026 31.1277 5.26776 30.9586 5.59588C30.7929 5.92069 30.71 6.27367 30.71 6.65483V7.52486C30.71 8.03527 30.7995 8.46946 30.9785 8.82741C31.1608 9.18537 31.4144 9.45881 31.7392 9.64773C32.064 9.83333 32.4435 9.92614 32.8777 9.92614C33.1594 9.92614 33.4163 9.88636 33.6483 9.80682C33.8803 9.72396 34.0808 9.60133 34.2498 9.43892C34.4189 9.27652 34.5481 9.07599 34.6376 8.83736L36.0446 9.09091C35.9319 9.50521 35.7297 9.86813 35.438 10.1797C35.1497 10.4879 34.7868 10.7282 34.3493 10.9006C33.9151 11.0696 33.4196 11.1541 32.8627 11.1541ZM37.7884 11V3.36364H39.2152V4.60653H39.3097C39.4688 4.18561 39.7289 3.85748 40.0902 3.62216C40.4515 3.38352 40.884 3.2642 41.3878 3.2642C41.8982 3.2642 42.3258 3.38352 42.6705 3.62216C43.0185 3.8608 43.2753 4.18892 43.4411 4.60653H43.5206C43.7029 4.19886 43.9929 3.87405 44.3906 3.6321C44.7884 3.38684 45.2623 3.2642 45.8125 3.2642C46.5052 3.2642 47.0703 3.4813 47.5078 3.91548C47.9486 4.34967 48.169 5.00426 48.169 5.87926V11H46.6825V6.01847C46.6825 5.50142 46.5417 5.12689 46.2599 4.89489C45.9782 4.66288 45.6418 4.54688 45.2507 4.54688C44.7668 4.54688 44.3906 4.69602 44.1222 4.99432C43.8537 5.2893 43.7195 5.6688 43.7195 6.13281V11H42.2379V5.92401C42.2379 5.50971 42.1087 5.17661 41.8501 4.92472C41.5916 4.67282 41.2552 4.54688 40.8409 4.54688C40.5592 4.54688 40.299 4.62145 40.0604 4.7706C39.825 4.91643 39.6345 5.12026 39.4886 5.3821C39.3461 5.64394 39.2749 5.94721 39.2749 6.2919V11H37.7884ZM54.6607 6.05327V7.34091H50.1465V6.05327H54.6607ZM60.1667 11.169C59.3812 11.1657 58.71 10.9586 58.1532 10.5476C57.5964 10.1366 57.1705 9.53835 56.8755 8.75284C56.5806 7.96733 56.4331 7.02107 56.4331 5.91406C56.4331 4.81037 56.5806 3.86742 56.8755 3.08523C57.1738 2.30303 57.6014 1.70644 58.1582 1.29545C58.7183 0.884469 59.3878 0.678977 60.1667 0.678977C60.9456 0.678977 61.6135 0.886126 62.1703 1.30043C62.7271 1.71141 63.153 2.308 63.448 3.0902C63.7463 3.86908 63.8954 4.81037 63.8954 5.91406C63.8954 7.02438 63.7479 7.9723 63.4529 8.75781C63.158 9.54001 62.7321 10.1383 62.1752 10.5526C61.6184 10.9635 60.9489 11.169 60.1667 11.169ZM60.1667 9.84162C60.8561 9.84162 61.3947 9.50521 61.7825 8.83239C62.1736 8.15956 62.3691 7.18679 62.3691 5.91406C62.3691 5.06889 62.2797 4.35464 62.1007 3.77131C61.925 3.18466 61.6715 2.74053 61.34 2.43892C61.0119 2.134 60.6208 1.98153 60.1667 1.98153C59.4806 1.98153 58.9421 2.3196 58.551 2.99574C58.1599 3.67187 57.9627 4.64465 57.9593 5.91406C57.9593 6.76255 58.0472 7.48011 58.2228 8.06676C58.4018 8.65009 58.6554 9.09257 58.9835 9.39418C59.3116 9.69247 59.706 9.84162 60.1667 9.84162ZM65.6591 11V9.88636L69.1044 6.31676C69.4723 5.92898 69.7756 5.58925 70.0142 5.29759C70.2562 5.0026 70.4368 4.72254 70.5561 4.45739C70.6754 4.19223 70.7351 3.91051 70.7351 3.61222C70.7351 3.27415 70.6555 2.98248 70.4964 2.73722C70.3374 2.48864 70.1203 2.29806 69.8452 2.16548C69.5701 2.02959 69.2602 1.96165 68.9155 1.96165C68.5509 1.96165 68.2327 2.03622 67.9609 2.18537C67.6892 2.33452 67.4804 2.54498 67.3345 2.81676C67.1887 3.08854 67.1158 3.40672 67.1158 3.77131H65.6491C65.6491 3.15151 65.7917 2.60961 66.0767 2.1456C66.3617 1.68158 66.7528 1.32197 67.25 1.06676C67.7472 0.808238 68.3123 0.678977 68.9453 0.678977C69.585 0.678977 70.1484 0.806581 70.6357 1.06179C71.1262 1.31368 71.509 1.65838 71.7841 2.09588C72.0592 2.53007 72.1967 3.0206 72.1967 3.56747C72.1967 3.94531 72.1255 4.31487 71.983 4.67614C71.8438 5.0374 71.6001 5.4401 71.2521 5.88423C70.9041 6.32505 70.4202 6.86032 69.8004 7.49006L67.777 9.60795V9.68253H72.3608V11H65.6591Z" fill="black"/>
</svg>
