<svg width="80" height="11" viewBox="0 0 80 11" fill="none" xmlns="http://www.w3.org/2000/svg">
<path d="M4.83665 4.8331V0.363636H6.32812V8H4.86648V6.67756H4.78693C4.61127 7.08523 4.32955 7.42495 3.94176 7.69673C3.55729 7.9652 3.07836 8.09943 2.50497 8.09943C2.01444 8.09943 1.58026 7.99171 1.20241 7.77628C0.827888 7.55753 0.532907 7.23438 0.317472 6.80682C0.10535 6.37926 -0.000710189 5.85062 -0.000710189 5.22088V0.363636H1.4858V5.0419C1.4858 5.56226 1.62997 5.97656 1.91832 6.2848C2.20668 6.59304 2.5812 6.74716 3.0419 6.74716C3.32031 6.74716 3.59706 6.67756 3.87216 6.53835C4.15057 6.39915 4.38092 6.18868 4.56321 5.90696C4.74882 5.62524 4.83996 5.26728 4.83665 4.8331ZM14.0478 2.22798L12.7005 2.46662C12.6441 2.29427 12.5546 2.13021 12.432 1.97443C12.3127 1.81865 12.1503 1.69105 11.9448 1.59162C11.7393 1.49219 11.4824 1.44247 11.1742 1.44247C10.7533 1.44247 10.4019 1.53693 10.1202 1.72585C9.83848 1.91146 9.69762 2.15175 9.69762 2.44673C9.69762 2.70194 9.79208 2.90743 9.981 3.06321C10.1699 3.21899 10.4748 3.34659 10.8958 3.44602L12.1088 3.72443C12.8115 3.88684 13.3352 4.13707 13.6799 4.47514C14.0246 4.81321 14.1969 5.25237 14.1969 5.79261C14.1969 6.25 14.0643 6.65767 13.7992 7.01562C13.5373 7.37027 13.1711 7.64867 12.7005 7.85085C12.2331 8.05303 11.6912 8.15412 11.0748 8.15412C10.2196 8.15412 9.52196 7.97183 8.98171 7.60724C8.44147 7.23935 8.11003 6.71733 7.98739 6.04119L9.42418 5.82244C9.51367 6.19697 9.69762 6.48035 9.97603 6.67259C10.2544 6.86151 10.6174 6.95597 11.0648 6.95597C11.552 6.95597 11.9415 6.85488 12.2331 6.6527C12.5248 6.44721 12.6706 6.19697 12.6706 5.90199C12.6706 5.66335 12.5811 5.46283 12.4022 5.30043C12.2265 5.13802 11.9564 5.01539 11.5918 4.93253L10.2992 4.64915C9.58659 4.48674 9.0596 4.22822 8.71822 3.87358C8.38015 3.51894 8.21112 3.06984 8.21112 2.52628C8.21112 2.07552 8.33706 1.68111 8.58896 1.34304C8.84085 1.00497 9.18886 0.741477 9.63299 0.552557C10.0771 0.360322 10.5859 0.264205 11.1593 0.264205C11.9846 0.264205 12.6342 0.443182 13.1081 0.801136C13.5821 1.15578 13.8953 1.63139 14.0478 2.22798ZM19.1225 8.15412C18.3701 8.15412 17.7222 7.99337 17.1786 7.67188C16.6384 7.34706 16.2208 6.89134 15.9258 6.30469C15.6341 5.71473 15.4883 5.02367 15.4883 4.23153C15.4883 3.44934 15.6341 2.75994 15.9258 2.16335C16.2208 1.56676 16.6317 1.10109 17.1587 0.766335C17.689 0.431581 18.3088 0.264205 19.0181 0.264205C19.449 0.264205 19.8666 0.335464 20.271 0.477983C20.6753 0.620502 21.0382 0.844223 21.3597 1.14915C21.6812 1.45407 21.9348 1.85014 22.1204 2.33736C22.306 2.82126 22.3988 3.40956 22.3988 4.10227V4.62926H16.3285V3.51562H20.9421C20.9421 3.12453 20.8626 2.77817 20.7035 2.47656C20.5444 2.17164 20.3207 1.93134 20.0323 1.75568C19.7473 1.58002 19.4125 1.49219 19.0281 1.49219C18.6104 1.49219 18.2459 1.59493 17.9343 1.80043C17.6261 2.0026 17.3874 2.26776 17.2184 2.59588C17.0527 2.92069 16.9698 3.27367 16.9698 3.65483V4.52486C16.9698 5.03527 17.0593 5.46946 17.2383 5.82741C17.4206 6.18537 17.6741 6.45881 17.9989 6.64773C18.3237 6.83333 18.7032 6.92614 19.1374 6.92614C19.4192 6.92614 19.676 6.88636 19.908 6.80682C20.14 6.72396 20.3406 6.60133 20.5096 6.43892C20.6786 6.27652 20.8079 6.07599 20.8974 5.83736L22.3043 6.09091C22.1916 6.50521 21.9895 6.86813 21.6978 7.17969C21.4094 7.48793 21.0465 7.72822 20.609 7.90057C20.1748 8.0696 19.6793 8.15412 19.1225 8.15412ZM24.0481 8V0.363636H25.4849V1.5767H25.5645C25.7037 1.16572 25.9489 0.842566 26.3002 0.607244C26.6549 0.368608 27.0559 0.249289 27.5034 0.249289C27.5962 0.249289 27.7056 0.252604 27.8315 0.259233C27.9608 0.265861 28.0618 0.274147 28.1348 0.284091V1.70597C28.0751 1.68939 27.969 1.67116 27.8166 1.65128C27.6641 1.62808 27.5117 1.61648 27.3592 1.61648C27.0079 1.61648 26.6947 1.69105 26.4196 1.8402C26.1478 1.98603 25.9324 2.18987 25.7733 2.4517C25.6142 2.71023 25.5346 3.00521 25.5346 3.33665V8H24.0481ZM33.4693 3.05327V4.34091H28.9551V3.05327H33.4693ZM41.1728 2.22798L39.8255 2.46662C39.7691 2.29427 39.6796 2.13021 39.557 1.97443C39.4377 1.81865 39.2753 1.69105 39.0698 1.59162C38.8643 1.49219 38.6074 1.44247 38.2992 1.44247C37.8783 1.44247 37.5269 1.53693 37.2452 1.72585C36.9635 1.91146 36.8226 2.15175 36.8226 2.44673C36.8226 2.70194 36.9171 2.90743 37.106 3.06321C37.2949 3.21899 37.5998 3.34659 38.0208 3.44602L39.2338 3.72443C39.9365 3.88684 40.4602 4.13707 40.8049 4.47514C41.1496 4.81321 41.3219 5.25237 41.3219 5.79261C41.3219 6.25 41.1893 6.65767 40.9242 7.01562C40.6623 7.37027 40.2961 7.64867 39.8255 7.85085C39.3581 8.05303 38.8162 8.15412 38.1998 8.15412C37.3446 8.15412 36.647 7.97183 36.1067 7.60724C35.5665 7.23935 35.235 6.71733 35.1124 6.04119L36.5492 5.82244C36.6387 6.19697 36.8226 6.48035 37.101 6.67259C37.3794 6.86151 37.7424 6.95597 38.1898 6.95597C38.677 6.95597 39.0665 6.85488 39.3581 6.6527C39.6498 6.44721 39.7956 6.19697 39.7956 5.90199C39.7956 5.66335 39.7061 5.46283 39.5272 5.30043C39.3515 5.13802 39.0814 5.01539 38.7168 4.93253L37.4242 4.64915C36.7116 4.48674 36.1846 4.22822 35.8432 3.87358C35.5051 3.51894 35.3361 3.06984 35.3361 2.52628C35.3361 2.07552 35.4621 1.68111 35.714 1.34304C35.9658 1.00497 36.3139 0.741477 36.758 0.552557C37.2021 0.360322 37.7109 0.264205 38.2843 0.264205C39.1096 0.264205 39.7592 0.443182 40.2331 0.801136C40.7071 1.15578 41.0203 1.63139 41.1728 2.22798ZM48.1119 10.8636V6.81179H48.0224C47.9329 6.9742 47.8036 7.1598 47.6346 7.36861C47.4689 7.57741 47.2402 7.75971 46.9485 7.91548C46.6568 8.07126 46.279 8.14915 45.815 8.14915C45.1985 8.14915 44.6483 7.99171 44.1644 7.67685C43.6838 7.35866 43.306 6.90625 43.0309 6.3196C42.7591 5.72964 42.6232 5.02202 42.6232 4.19673C42.6232 3.37145 42.7608 2.66548 43.0359 2.07884C43.3143 1.49219 43.6954 1.04309 44.1793 0.731534C44.6632 0.419981 45.2118 0.264205 45.8249 0.264205C46.2989 0.264205 46.68 0.34375 46.9684 0.502841C47.2601 0.658617 47.4854 0.840909 47.6445 1.04972C47.8069 1.25852 47.9329 1.44247 48.0224 1.60156H48.1467V0.363636H49.5984V10.8636H48.1119ZM46.1431 6.88139C46.5707 6.88139 46.9319 6.7687 47.2269 6.54332C47.5252 6.31463 47.7506 5.99811 47.9031 5.59375C48.0588 5.18939 48.1367 4.71875 48.1367 4.18182C48.1367 3.65151 48.0605 3.1875 47.908 2.78977C47.7556 2.39205 47.5318 2.08215 47.2369 1.86009C46.9419 1.63802 46.5773 1.52699 46.1431 1.52699C45.6957 1.52699 45.3228 1.64299 45.0245 1.875C44.7262 2.10701 44.5008 2.42353 44.3484 2.82457C44.1992 3.22562 44.1246 3.67803 44.1246 4.18182C44.1246 4.69223 44.2009 5.15128 44.3533 5.55895C44.5058 5.96662 44.7312 6.28977 45.0295 6.52841C45.3311 6.76373 45.7023 6.88139 46.1431 6.88139ZM56.4343 4.8331V0.363636H57.9258V8H56.4641V6.67756H56.3846C56.2089 7.08523 55.9272 7.42495 55.5394 7.69673C55.1549 7.9652 54.676 8.09943 54.1026 8.09943C53.6121 8.09943 53.1779 7.99171 52.8001 7.77628C52.4255 7.55753 52.1306 7.23438 51.9151 6.80682C51.703 6.37926 51.5969 5.85062 51.5969 5.22088V0.363636H53.0835V5.0419C53.0835 5.56226 53.2276 5.97656 53.516 6.2848C53.8043 6.59304 54.1789 6.74716 54.6396 6.74716C54.918 6.74716 55.1947 6.67756 55.4698 6.53835C55.7482 6.39915 55.9786 6.18868 56.1609 5.90696C56.3465 5.62524 56.4376 5.26728 56.4343 4.8331ZM62.1454 8.16903C61.6615 8.16903 61.224 8.07955 60.8329 7.90057C60.4418 7.71828 60.1319 7.45478 59.9032 7.11009C59.6779 6.76539 59.5652 6.3428 59.5652 5.84233C59.5652 5.41146 59.648 5.05682 59.8137 4.77841C59.9795 4.5 60.2032 4.27959 60.4849 4.11719C60.7666 3.95478 61.0815 3.83215 61.4295 3.74929C61.7775 3.66643 62.1322 3.60346 62.4934 3.56037C62.9508 3.50734 63.322 3.46425 63.6071 3.43111C63.8921 3.39465 64.0993 3.33665 64.2285 3.2571C64.3578 3.17756 64.4224 3.0483 64.4224 2.86932V2.83452C64.4224 2.40033 64.2998 2.06392 64.0545 1.82528C63.8126 1.58665 63.4513 1.46733 62.9707 1.46733C62.4702 1.46733 62.0758 1.57836 61.7875 1.80043C61.5024 2.01918 61.3052 2.26278 61.1958 2.53125L59.7988 2.21307C59.9645 1.74905 60.2065 1.37453 60.5247 1.08949C60.8462 0.801136 61.2157 0.592329 61.6333 0.463068C62.051 0.330492 62.4901 0.264205 62.9508 0.264205C63.2557 0.264205 63.5789 0.300663 63.9203 0.37358C64.265 0.443182 64.5865 0.572443 64.8848 0.761363C65.1864 0.950284 65.4333 1.22041 65.6255 1.57173C65.8178 1.91974 65.9139 2.37216 65.9139 2.92898V8H64.4622V6.95597H64.4025C64.3064 7.1482 64.1622 7.33712 63.97 7.52273C63.7778 7.70833 63.5308 7.86245 63.2292 7.98509C62.9276 8.10772 62.5663 8.16903 62.1454 8.16903ZM62.4686 6.97585C62.8796 6.97585 63.2309 6.89465 63.5225 6.73224C63.8175 6.56984 64.0413 6.35772 64.1937 6.09588C64.3495 5.83073 64.4274 5.54735 64.4274 5.24574V4.26136C64.3743 4.31439 64.2716 4.36411 64.1191 4.41051C63.97 4.4536 63.7993 4.49171 63.6071 4.52486C63.4148 4.55469 63.2276 4.58286 63.0453 4.60938C62.863 4.63258 62.7105 4.65246 62.5879 4.66903C62.2995 4.70549 62.036 4.76681 61.7974 4.85298C61.5621 4.93916 61.3732 5.06345 61.2306 5.22585C61.0914 5.38494 61.0218 5.59706 61.0218 5.86222C61.0218 6.23011 61.1577 6.50852 61.4295 6.69744C61.7013 6.88305 62.0476 6.97585 62.4686 6.97585ZM67.8938 8V0.363636H69.3306V1.5767H69.4102C69.5494 1.16572 69.7946 0.842566 70.146 0.607244C70.5006 0.368608 70.9016 0.249289 71.3491 0.249289C71.4419 0.249289 71.5513 0.252604 71.6772 0.259233C71.8065 0.265861 71.9076 0.274147 71.9805 0.284091V1.70597C71.9208 1.68939 71.8147 1.67116 71.6623 1.65128C71.5098 1.62808 71.3574 1.61648 71.2049 1.61648C70.8536 1.61648 70.5404 1.69105 70.2653 1.8402C69.9935 1.98603 69.7781 2.18987 69.619 2.4517C69.4599 2.71023 69.3803 3.00521 69.3803 3.33665V8H67.8938ZM76.2846 8.15412C75.5323 8.15412 74.8843 7.99337 74.3407 7.67188C73.8005 7.34706 73.3829 6.89134 73.0879 6.30469C72.7962 5.71473 72.6504 5.02367 72.6504 4.23153C72.6504 3.44934 72.7962 2.75994 73.0879 2.16335C73.3829 1.56676 73.7939 1.10109 74.3208 0.766335C74.8511 0.431581 75.4709 0.264205 76.1802 0.264205C76.6111 0.264205 77.0287 0.335464 77.4331 0.477983C77.8374 0.620502 78.2003 0.844223 78.5218 1.14915C78.8433 1.45407 79.0969 1.85014 79.2825 2.33736C79.4681 2.82126 79.5609 3.40956 79.5609 4.10227V4.62926H73.4906V3.51562H78.1042C78.1042 3.12453 78.0247 2.77817 77.8656 2.47656C77.7065 2.17164 77.4828 1.93134 77.1944 1.75568C76.9094 1.58002 76.5746 1.49219 76.1902 1.49219C75.7725 1.49219 75.408 1.59493 75.0964 1.80043C74.7882 2.0026 74.5495 2.26776 74.3805 2.59588C74.2148 2.92069 74.1319 3.27367 74.1319 3.65483V4.52486C74.1319 5.03527 74.2214 5.46946 74.4004 5.82741C74.5827 6.18537 74.8362 6.45881 75.161 6.64773C75.4859 6.83333 75.8654 6.92614 76.2995 6.92614C76.5813 6.92614 76.8381 6.88636 77.0701 6.80682C77.3021 6.72396 77.5027 6.60133 77.6717 6.43892C77.8407 6.27652 77.97 6.07599 78.0595 5.83736L79.4664 6.09091C79.3538 6.50521 79.1516 6.86813 78.8599 7.17969C78.5716 7.48793 78.2086 7.72822 77.7711 7.90057C77.3369 8.0696 76.8414 8.15412 76.2846 8.15412Z" fill="black"/>
</svg>
