<svg width="50" height="9" viewBox="0 0 50 9" fill="none" xmlns="http://www.w3.org/2000/svg">
<path d="M4.83665 4.8331V0.363636H6.32812V8H4.86648V6.67756H4.78693C4.61127 7.08523 4.32955 7.42495 3.94176 7.69673C3.55729 7.9652 3.07836 8.09943 2.50497 8.09943C2.01444 8.09943 1.58026 7.99171 1.20241 7.77628C0.827888 7.55753 0.532907 7.23438 0.317472 6.80682C0.10535 6.37926 -0.000710189 5.85062 -0.000710189 5.22088V0.363636H1.4858V5.0419C1.4858 5.56226 1.62997 5.97656 1.91832 6.2848C2.20668 6.59304 2.5812 6.74716 3.0419 6.74716C3.32031 6.74716 3.59706 6.67756 3.87216 6.53835C4.15057 6.39915 4.38092 6.18868 4.56321 5.90696C4.74882 5.62524 4.83996 5.26728 4.83665 4.8331ZM14.0478 2.22798L12.7005 2.46662C12.6441 2.29427 12.5546 2.13021 12.432 1.97443C12.3127 1.81865 12.1503 1.69105 11.9448 1.59162C11.7393 1.49219 11.4824 1.44247 11.1742 1.44247C10.7533 1.44247 10.4019 1.53693 10.1202 1.72585C9.83848 1.91146 9.69762 2.15175 9.69762 2.44673C9.69762 2.70194 9.79208 2.90743 9.981 3.06321C10.1699 3.21899 10.4748 3.34659 10.8958 3.44602L12.1088 3.72443C12.8115 3.88684 13.3352 4.13707 13.6799 4.47514C14.0246 4.81321 14.1969 5.25237 14.1969 5.79261C14.1969 6.25 14.0643 6.65767 13.7992 7.01562C13.5373 7.37027 13.1711 7.64867 12.7005 7.85085C12.2331 8.05303 11.6912 8.15412 11.0748 8.15412C10.2196 8.15412 9.52196 7.97183 8.98171 7.60724C8.44147 7.23935 8.11003 6.71733 7.98739 6.04119L9.42418 5.82244C9.51367 6.19697 9.69762 6.48035 9.97603 6.67259C10.2544 6.86151 10.6174 6.95597 11.0648 6.95597C11.552 6.95597 11.9415 6.85488 12.2331 6.6527C12.5248 6.44721 12.6706 6.19697 12.6706 5.90199C12.6706 5.66335 12.5811 5.46283 12.4022 5.30043C12.2265 5.13802 11.9564 5.01539 11.5918 4.93253L10.2992 4.64915C9.58659 4.48674 9.0596 4.22822 8.71822 3.87358C8.38015 3.51894 8.21112 3.06984 8.21112 2.52628C8.21112 2.07552 8.33706 1.68111 8.58896 1.34304C8.84085 1.00497 9.18886 0.741477 9.63299 0.552557C10.0771 0.360322 10.5859 0.264205 11.1593 0.264205C11.9846 0.264205 12.6342 0.443182 13.1081 0.801136C13.5821 1.15578 13.8953 1.63139 14.0478 2.22798ZM19.1225 8.15412C18.3701 8.15412 17.7222 7.99337 17.1786 7.67188C16.6384 7.34706 16.2208 6.89134 15.9258 6.30469C15.6341 5.71473 15.4883 5.02367 15.4883 4.23153C15.4883 3.44934 15.6341 2.75994 15.9258 2.16335C16.2208 1.56676 16.6317 1.10109 17.1587 0.766335C17.689 0.431581 18.3088 0.264205 19.0181 0.264205C19.449 0.264205 19.8666 0.335464 20.271 0.477983C20.6753 0.620502 21.0382 0.844223 21.3597 1.14915C21.6812 1.45407 21.9348 1.85014 22.1204 2.33736C22.306 2.82126 22.3988 3.40956 22.3988 4.10227V4.62926H16.3285V3.51562H20.9421C20.9421 3.12453 20.8626 2.77817 20.7035 2.47656C20.5444 2.17164 20.3207 1.93134 20.0323 1.75568C19.7473 1.58002 19.4125 1.49219 19.0281 1.49219C18.6104 1.49219 18.2459 1.59493 17.9343 1.80043C17.6261 2.0026 17.3874 2.26776 17.2184 2.59588C17.0527 2.92069 16.9698 3.27367 16.9698 3.65483V4.52486C16.9698 5.03527 17.0593 5.46946 17.2383 5.82741C17.4206 6.18537 17.6741 6.45881 17.9989 6.64773C18.3237 6.83333 18.7032 6.92614 19.1374 6.92614C19.4192 6.92614 19.676 6.88636 19.908 6.80682C20.14 6.72396 20.3406 6.60133 20.5096 6.43892C20.6786 6.27652 20.8079 6.07599 20.8974 5.83736L22.3043 6.09091C22.1916 6.50521 21.9895 6.86813 21.6978 7.17969C21.4094 7.48793 21.0465 7.72822 20.609 7.90057C20.1748 8.0696 19.6793 8.15412 19.1225 8.15412ZM24.0481 8V0.363636H25.4849V1.5767H25.5645C25.7037 1.16572 25.9489 0.842566 26.3002 0.607244C26.6549 0.368608 27.0559 0.249289 27.5034 0.249289C27.5962 0.249289 27.7056 0.252604 27.8315 0.259233C27.9608 0.265861 28.0618 0.274147 28.1348 0.284091V1.70597C28.0751 1.68939 27.969 1.67116 27.8166 1.65128C27.6641 1.62808 27.5117 1.61648 27.3592 1.61648C27.0079 1.61648 26.6947 1.69105 26.4196 1.8402C26.1478 1.98603 25.9324 2.18987 25.7733 2.4517C25.6142 2.71023 25.5346 3.00521 25.5346 3.33665V8H24.0481ZM35.1435 2.22798L33.7962 2.46662C33.7398 2.29427 33.6503 2.13021 33.5277 1.97443C33.4084 1.81865 33.246 1.69105 33.0405 1.59162C32.835 1.49219 32.5781 1.44247 32.2699 1.44247C31.849 1.44247 31.4976 1.53693 31.2159 1.72585C30.9342 1.91146 30.7933 2.15175 30.7933 2.44673C30.7933 2.70194 30.8878 2.90743 31.0767 3.06321C31.2656 3.21899 31.5705 3.34659 31.9915 3.44602L33.2045 3.72443C33.9072 3.88684 34.4309 4.13707 34.7756 4.47514C35.1203 4.81321 35.2926 5.25237 35.2926 5.79261C35.2926 6.25 35.16 6.65767 34.8949 7.01562C34.633 7.37027 34.2668 7.64867 33.7962 7.85085C33.3288 8.05303 32.7869 8.15412 32.1705 8.15412C31.3153 8.15412 30.6177 7.97183 30.0774 7.60724C29.5372 7.23935 29.2057 6.71733 29.0831 6.04119L30.5199 5.82244C30.6094 6.19697 30.7933 6.48035 31.0717 6.67259C31.3501 6.86151 31.7131 6.95597 32.1605 6.95597C32.6477 6.95597 33.0372 6.85488 33.3288 6.6527C33.6205 6.44721 33.7663 6.19697 33.7663 5.90199C33.7663 5.66335 33.6768 5.46283 33.4979 5.30043C33.3222 5.13802 33.0521 5.01539 32.6875 4.93253L31.3949 4.64915C30.6823 4.48674 30.1553 4.22822 29.8139 3.87358C29.4759 3.51894 29.3068 3.06984 29.3068 2.52628C29.3068 2.07552 29.4328 1.68111 29.6847 1.34304C29.9366 1.00497 30.2846 0.741477 30.7287 0.552557C31.1728 0.360322 31.6816 0.264205 32.255 0.264205C33.0803 0.264205 33.7299 0.443182 34.2038 0.801136C34.6778 1.15578 34.991 1.63139 35.1435 2.22798ZM41.4263 3.05327V4.34091H36.9121V3.05327H41.4263ZM44.2663 0.363636L45.9517 3.33665L47.652 0.363636H49.2777L46.8963 4.18182L49.2976 8H47.6719L45.9517 5.14631L44.2365 8H42.6058L44.9822 4.18182L42.6357 0.363636H44.2663Z" fill="black"/>
</svg>
