<svg width="79" height="12" viewBox="0 0 79 12" fill="none" xmlns="http://www.w3.org/2000/svg">
<path d="M4.83665 7.8331V3.36364H6.32812V11H4.86648V9.67756H4.78693C4.61127 10.0852 4.32955 10.425 3.94176 10.6967C3.55729 10.9652 3.07836 11.0994 2.50497 11.0994C2.01444 11.0994 1.58026 10.9917 1.20241 10.7763C0.827888 10.5575 0.532907 10.2344 0.317472 9.80682C0.10535 9.37926 -0.000710189 8.85062 -0.000710189 8.22088V3.36364H1.4858V8.0419C1.4858 8.56226 1.62997 8.97656 1.91832 9.2848C2.20668 9.59304 2.5812 9.74716 3.0419 9.74716C3.32031 9.74716 3.59706 9.67756 3.87216 9.53835C4.15057 9.39915 4.38092 9.18868 4.56321 8.90696C4.74882 8.62524 4.83996 8.26728 4.83665 7.8331ZM14.0478 5.22798L12.7005 5.46662C12.6441 5.29427 12.5546 5.13021 12.432 4.97443C12.3127 4.81865 12.1503 4.69105 11.9448 4.59162C11.7393 4.49219 11.4824 4.44247 11.1742 4.44247C10.7533 4.44247 10.4019 4.53693 10.1202 4.72585C9.83848 4.91146 9.69762 5.15175 9.69762 5.44673C9.69762 5.70194 9.79208 5.90743 9.981 6.06321C10.1699 6.21899 10.4748 6.34659 10.8958 6.44602L12.1088 6.72443C12.8115 6.88684 13.3352 7.13707 13.6799 7.47514C14.0246 7.81321 14.1969 8.25237 14.1969 8.79261C14.1969 9.25 14.0643 9.65767 13.7992 10.0156C13.5373 10.3703 13.1711 10.6487 12.7005 10.8509C12.2331 11.053 11.6912 11.1541 11.0748 11.1541C10.2196 11.1541 9.52196 10.9718 8.98171 10.6072C8.44147 10.2393 8.11003 9.71733 7.98739 9.04119L9.42418 8.82244C9.51367 9.19697 9.69762 9.48035 9.97603 9.67259C10.2544 9.86151 10.6174 9.95597 11.0648 9.95597C11.552 9.95597 11.9415 9.85488 12.2331 9.6527C12.5248 9.44721 12.6706 9.19697 12.6706 8.90199C12.6706 8.66335 12.5811 8.46283 12.4022 8.30043C12.2265 8.13802 11.9564 8.01539 11.5918 7.93253L10.2992 7.64915C9.58659 7.48674 9.0596 7.22822 8.71822 6.87358C8.38015 6.51894 8.21112 6.06984 8.21112 5.52628C8.21112 5.07552 8.33706 4.68111 8.58896 4.34304C8.84085 4.00497 9.18886 3.74148 9.63299 3.55256C10.0771 3.36032 10.5859 3.2642 11.1593 3.2642C11.9846 3.2642 12.6342 3.44318 13.1081 3.80114C13.5821 4.15578 13.8953 4.63139 14.0478 5.22798ZM19.1225 11.1541C18.3701 11.1541 17.7222 10.9934 17.1786 10.6719C16.6384 10.3471 16.2208 9.89134 15.9258 9.30469C15.6341 8.71473 15.4883 8.02367 15.4883 7.23153C15.4883 6.44934 15.6341 5.75994 15.9258 5.16335C16.2208 4.56676 16.6317 4.10109 17.1587 3.76633C17.689 3.43158 18.3088 3.2642 19.0181 3.2642C19.449 3.2642 19.8666 3.33546 20.271 3.47798C20.6753 3.6205 21.0382 3.84422 21.3597 4.14915C21.6812 4.45407 21.9348 4.85014 22.1204 5.33736C22.306 5.82126 22.3988 6.40956 22.3988 7.10227V7.62926H16.3285V6.51562H20.9421C20.9421 6.12453 20.8626 5.77817 20.7035 5.47656C20.5444 5.17164 20.3207 4.93134 20.0323 4.75568C19.7473 4.58002 19.4125 4.49219 19.0281 4.49219C18.6104 4.49219 18.2459 4.59493 17.9343 4.80043C17.6261 5.0026 17.3874 5.26776 17.2184 5.59588C17.0527 5.92069 16.9698 6.27367 16.9698 6.65483V7.52486C16.9698 8.03527 17.0593 8.46946 17.2383 8.82741C17.4206 9.18537 17.6741 9.45881 17.9989 9.64773C18.3237 9.83333 18.7032 9.92614 19.1374 9.92614C19.4192 9.92614 19.676 9.88636 19.908 9.80682C20.14 9.72396 20.3406 9.60133 20.5096 9.43892C20.6786 9.27652 20.8079 9.07599 20.8974 8.83736L22.3043 9.09091C22.1916 9.50521 21.9895 9.86813 21.6978 10.1797C21.4094 10.4879 21.0465 10.7282 20.609 10.9006C20.1748 11.0696 19.6793 11.1541 19.1225 11.1541ZM24.0481 11V3.36364H25.4849V4.5767H25.5645C25.7037 4.16572 25.9489 3.84257 26.3002 3.60724C26.6549 3.36861 27.0559 3.24929 27.5034 3.24929C27.5962 3.24929 27.7056 3.2526 27.8315 3.25923C27.9608 3.26586 28.0618 3.27415 28.1348 3.28409V4.70597C28.0751 4.68939 27.969 4.67116 27.8166 4.65128C27.6641 4.62808 27.5117 4.61648 27.3592 4.61648C27.0079 4.61648 26.6947 4.69105 26.4196 4.8402C26.1478 4.98603 25.9324 5.18987 25.7733 5.4517C25.6142 5.71023 25.5346 6.00521 25.5346 6.33665V11H24.0481ZM35.1435 5.22798L33.7962 5.46662C33.7398 5.29427 33.6503 5.13021 33.5277 4.97443C33.4084 4.81865 33.246 4.69105 33.0405 4.59162C32.835 4.49219 32.5781 4.44247 32.2699 4.44247C31.849 4.44247 31.4976 4.53693 31.2159 4.72585C30.9342 4.91146 30.7933 5.15175 30.7933 5.44673C30.7933 5.70194 30.8878 5.90743 31.0767 6.06321C31.2656 6.21899 31.5705 6.34659 31.9915 6.44602L33.2045 6.72443C33.9072 6.88684 34.4309 7.13707 34.7756 7.47514C35.1203 7.81321 35.2926 8.25237 35.2926 8.79261C35.2926 9.25 35.16 9.65767 34.8949 10.0156C34.633 10.3703 34.2668 10.6487 33.7962 10.8509C33.3288 11.053 32.7869 11.1541 32.1705 11.1541C31.3153 11.1541 30.6177 10.9718 30.0774 10.6072C29.5372 10.2393 29.2057 9.71733 29.0831 9.04119L30.5199 8.82244C30.6094 9.19697 30.7933 9.48035 31.0717 9.67259C31.3501 9.86151 31.7131 9.95597 32.1605 9.95597C32.6477 9.95597 33.0372 9.85488 33.3288 9.6527C33.6205 9.44721 33.7663 9.19697 33.7663 8.90199C33.7663 8.66335 33.6768 8.46283 33.4979 8.30043C33.3222 8.13802 33.0521 8.01539 32.6875 7.93253L31.3949 7.64915C30.6823 7.48674 30.1553 7.22822 29.8139 6.87358C29.4759 6.51894 29.3068 6.06984 29.3068 5.52628C29.3068 5.07552 29.4328 4.68111 29.6847 4.34304C29.9366 4.00497 30.2846 3.74148 30.7287 3.55256C31.1728 3.36032 31.6816 3.2642 32.255 3.2642C33.0803 3.2642 33.7299 3.44318 34.2038 3.80114C34.6778 4.15578 34.991 4.63139 35.1435 5.22798ZM41.4263 6.05327V7.34091H36.9121V6.05327H41.4263ZM46.2662 11.1491C45.6497 11.1491 45.0995 10.9917 44.6156 10.6768C44.135 10.3587 43.7572 9.90625 43.4821 9.3196C43.2103 8.72964 43.0744 8.02202 43.0744 7.19673C43.0744 6.37145 43.2119 5.66548 43.487 5.07884C43.7654 4.49219 44.1466 4.04309 44.6305 3.73153C45.1144 3.41998 45.6629 3.2642 46.2761 3.2642C46.7501 3.2642 47.1312 3.34375 47.4196 3.50284C47.7112 3.65862 47.9366 3.84091 48.0957 4.04972C48.2581 4.25852 48.3841 4.44247 48.4735 4.60156H48.563V0.818182H50.0495V11H48.5978V9.81179H48.4735C48.3841 9.9742 48.2548 10.1598 48.0858 10.3686C47.92 10.5774 47.6913 10.7597 47.3997 10.9155C47.108 11.0713 46.7302 11.1491 46.2662 11.1491ZM46.5943 9.88139C47.0218 9.88139 47.3831 9.7687 47.6781 9.54332C47.9764 9.31463 48.2018 8.99811 48.3542 8.59375C48.51 8.18939 48.5879 7.71875 48.5879 7.18182C48.5879 6.65151 48.5117 6.1875 48.3592 5.78977C48.2067 5.39205 47.983 5.08215 47.688 4.86009C47.3931 4.63802 47.0285 4.52699 46.5943 4.52699C46.1468 4.52699 45.774 4.64299 45.4757 4.875C45.1774 5.10701 44.952 5.42353 44.7995 5.82457C44.6504 6.22562 44.5758 6.67803 44.5758 7.18182C44.5758 7.69223 44.652 8.15128 44.8045 8.55895C44.957 8.96662 45.1824 9.28977 45.4806 9.52841C45.7823 9.76373 46.1535 9.88139 46.5943 9.88139ZM55.3878 11.1541C54.6719 11.1541 54.0471 10.9901 53.5135 10.6619C52.9799 10.3338 52.5656 9.87476 52.2706 9.2848C51.9756 8.69484 51.8281 8.00544 51.8281 7.21662C51.8281 6.42448 51.9756 5.73177 52.2706 5.13849C52.5656 4.54522 52.9799 4.08452 53.5135 3.75639C54.0471 3.42827 54.6719 3.2642 55.3878 3.2642C56.1037 3.2642 56.7285 3.42827 57.2621 3.75639C57.7957 4.08452 58.21 4.54522 58.505 5.13849C58.8 5.73177 58.9474 6.42448 58.9474 7.21662C58.9474 8.00544 58.8 8.69484 58.505 9.2848C58.21 9.87476 57.7957 10.3338 57.2621 10.6619C56.7285 10.9901 56.1037 11.1541 55.3878 11.1541ZM55.3928 9.90625C55.8568 9.90625 56.2412 9.78362 56.5462 9.53835C56.8511 9.29309 57.0765 8.96662 57.2223 8.55895C57.3714 8.15128 57.446 7.70218 57.446 7.21165C57.446 6.72443 57.3714 6.27699 57.2223 5.86932C57.0765 5.45833 56.8511 5.12855 56.5462 4.87997C56.2412 4.63139 55.8568 4.5071 55.3928 4.5071C54.9254 4.5071 54.5376 4.63139 54.2294 4.87997C53.9245 5.12855 53.6974 5.45833 53.5483 5.86932C53.4025 6.27699 53.3295 6.72443 53.3295 7.21165C53.3295 7.70218 53.4025 8.15128 53.5483 8.55895C53.6974 8.96662 53.9245 9.29309 54.2294 9.53835C54.5376 9.78362 54.9254 9.90625 55.3928 9.90625ZM62.0298 11L59.7827 3.36364H61.3189L62.8153 8.97159H62.8899L64.3913 3.36364H65.9276L67.419 8.94673H67.4936L68.9801 3.36364H70.5163L68.2741 11H66.7578L65.2067 5.48651H65.0923L63.5412 11H62.0298ZM73.4135 6.46591V11H71.927V3.36364H73.3539V4.60653H73.4483C73.624 4.20218 73.8991 3.87737 74.2736 3.6321C74.6515 3.38684 75.1271 3.2642 75.7005 3.2642C76.2208 3.2642 76.6766 3.37358 77.0676 3.59233C77.4587 3.80777 77.762 4.12926 77.9775 4.55682C78.1929 4.98437 78.3006 5.51302 78.3006 6.14276V11H76.8141V6.32173C76.8141 5.76823 76.6699 5.3357 76.3816 5.02415C76.0932 4.70928 75.6971 4.55185 75.1934 4.55185C74.8487 4.55185 74.5421 4.62642 74.2736 4.77557C74.0085 4.92472 73.798 5.14347 73.6422 5.43182C73.4898 5.71686 73.4135 6.06155 73.4135 6.46591Z" fill="black"/>
</svg>
