<svg width="57" height="12" viewBox="0 0 57 12" fill="none" xmlns="http://www.w3.org/2000/svg">
<path d="M4.83665 7.8331V3.36364H6.32812V11H4.86648V9.67756H4.78693C4.61127 10.0852 4.32955 10.425 3.94176 10.6967C3.55729 10.9652 3.07836 11.0994 2.50497 11.0994C2.01444 11.0994 1.58026 10.9917 1.20241 10.7763C0.827888 10.5575 0.532907 10.2344 0.317472 9.80682C0.10535 9.37926 -0.000710189 8.85062 -0.000710189 8.22088V3.36364H1.4858V8.0419C1.4858 8.56226 1.62997 8.97656 1.91832 9.2848C2.20668 9.59304 2.5812 9.74716 3.0419 9.74716C3.32031 9.74716 3.59706 9.67756 3.87216 9.53835C4.15057 9.39915 4.38092 9.18868 4.56321 8.90696C4.74882 8.62524 4.83996 8.26728 4.83665 7.8331ZM14.0478 5.22798L12.7005 5.46662C12.6441 5.29427 12.5546 5.13021 12.432 4.97443C12.3127 4.81865 12.1503 4.69105 11.9448 4.59162C11.7393 4.49219 11.4824 4.44247 11.1742 4.44247C10.7533 4.44247 10.4019 4.53693 10.1202 4.72585C9.83848 4.91146 9.69762 5.15175 9.69762 5.44673C9.69762 5.70194 9.79208 5.90743 9.981 6.06321C10.1699 6.21899 10.4748 6.34659 10.8958 6.44602L12.1088 6.72443C12.8115 6.88684 13.3352 7.13707 13.6799 7.47514C14.0246 7.81321 14.1969 8.25237 14.1969 8.79261C14.1969 9.25 14.0643 9.65767 13.7992 10.0156C13.5373 10.3703 13.1711 10.6487 12.7005 10.8509C12.2331 11.053 11.6912 11.1541 11.0748 11.1541C10.2196 11.1541 9.52196 10.9718 8.98171 10.6072C8.44147 10.2393 8.11003 9.71733 7.98739 9.04119L9.42418 8.82244C9.51367 9.19697 9.69762 9.48035 9.97603 9.67259C10.2544 9.86151 10.6174 9.95597 11.0648 9.95597C11.552 9.95597 11.9415 9.85488 12.2331 9.6527C12.5248 9.44721 12.6706 9.19697 12.6706 8.90199C12.6706 8.66335 12.5811 8.46283 12.4022 8.30043C12.2265 8.13802 11.9564 8.01539 11.5918 7.93253L10.2992 7.64915C9.58659 7.48674 9.0596 7.22822 8.71822 6.87358C8.38015 6.51894 8.21112 6.06984 8.21112 5.52628C8.21112 5.07552 8.33706 4.68111 8.58896 4.34304C8.84085 4.00497 9.18886 3.74148 9.63299 3.55256C10.0771 3.36032 10.5859 3.2642 11.1593 3.2642C11.9846 3.2642 12.6342 3.44318 13.1081 3.80114C13.5821 4.15578 13.8953 4.63139 14.0478 5.22798ZM19.1225 11.1541C18.3701 11.1541 17.7222 10.9934 17.1786 10.6719C16.6384 10.3471 16.2208 9.89134 15.9258 9.30469C15.6341 8.71473 15.4883 8.02367 15.4883 7.23153C15.4883 6.44934 15.6341 5.75994 15.9258 5.16335C16.2208 4.56676 16.6317 4.10109 17.1587 3.76633C17.689 3.43158 18.3088 3.2642 19.0181 3.2642C19.449 3.2642 19.8666 3.33546 20.271 3.47798C20.6753 3.6205 21.0382 3.84422 21.3597 4.14915C21.6812 4.45407 21.9348 4.85014 22.1204 5.33736C22.306 5.82126 22.3988 6.40956 22.3988 7.10227V7.62926H16.3285V6.51562H20.9421C20.9421 6.12453 20.8626 5.77817 20.7035 5.47656C20.5444 5.17164 20.3207 4.93134 20.0323 4.75568C19.7473 4.58002 19.4125 4.49219 19.0281 4.49219C18.6104 4.49219 18.2459 4.59493 17.9343 4.80043C17.6261 5.0026 17.3874 5.26776 17.2184 5.59588C17.0527 5.92069 16.9698 6.27367 16.9698 6.65483V7.52486C16.9698 8.03527 17.0593 8.46946 17.2383 8.82741C17.4206 9.18537 17.6741 9.45881 17.9989 9.64773C18.3237 9.83333 18.7032 9.92614 19.1374 9.92614C19.4192 9.92614 19.676 9.88636 19.908 9.80682C20.14 9.72396 20.3406 9.60133 20.5096 9.43892C20.6786 9.27652 20.8079 9.07599 20.8974 8.83736L22.3043 9.09091C22.1916 9.50521 21.9895 9.86813 21.6978 10.1797C21.4094 10.4879 21.0465 10.7282 20.609 10.9006C20.1748 11.0696 19.6793 11.1541 19.1225 11.1541ZM24.0481 11V3.36364H25.4849V4.5767H25.5645C25.7037 4.16572 25.9489 3.84257 26.3002 3.60724C26.6549 3.36861 27.0559 3.24929 27.5034 3.24929C27.5962 3.24929 27.7056 3.2526 27.8315 3.25923C27.9608 3.26586 28.0618 3.27415 28.1348 3.28409V4.70597C28.0751 4.68939 27.969 4.67116 27.8166 4.65128C27.6641 4.62808 27.5117 4.61648 27.3592 4.61648C27.0079 4.61648 26.6947 4.69105 26.4196 4.8402C26.1478 4.98603 25.9324 5.18987 25.7733 5.4517C25.6142 5.71023 25.5346 6.00521 25.5346 6.33665V11H24.0481ZM35.1435 5.22798L33.7962 5.46662C33.7398 5.29427 33.6503 5.13021 33.5277 4.97443C33.4084 4.81865 33.246 4.69105 33.0405 4.59162C32.835 4.49219 32.5781 4.44247 32.2699 4.44247C31.849 4.44247 31.4976 4.53693 31.2159 4.72585C30.9342 4.91146 30.7933 5.15175 30.7933 5.44673C30.7933 5.70194 30.8878 5.90743 31.0767 6.06321C31.2656 6.21899 31.5705 6.34659 31.9915 6.44602L33.2045 6.72443C33.9072 6.88684 34.4309 7.13707 34.7756 7.47514C35.1203 7.81321 35.2926 8.25237 35.2926 8.79261C35.2926 9.25 35.16 9.65767 34.8949 10.0156C34.633 10.3703 34.2668 10.6487 33.7962 10.8509C33.3288 11.053 32.7869 11.1541 32.1705 11.1541C31.3153 11.1541 30.6177 10.9718 30.0774 10.6072C29.5372 10.2393 29.2057 9.71733 29.0831 9.04119L30.5199 8.82244C30.6094 9.19697 30.7933 9.48035 31.0717 9.67259C31.3501 9.86151 31.7131 9.95597 32.1605 9.95597C32.6477 9.95597 33.0372 9.85488 33.3288 9.6527C33.6205 9.44721 33.7663 9.19697 33.7663 8.90199C33.7663 8.66335 33.6768 8.46283 33.4979 8.30043C33.3222 8.13802 33.0521 8.01539 32.6875 7.93253L31.3949 7.64915C30.6823 7.48674 30.1553 7.22822 29.8139 6.87358C29.4759 6.51894 29.3068 6.06984 29.3068 5.52628C29.3068 5.07552 29.4328 4.68111 29.6847 4.34304C29.9366 4.00497 30.2846 3.74148 30.7287 3.55256C31.1728 3.36032 31.6816 3.2642 32.255 3.2642C33.0803 3.2642 33.7299 3.44318 34.2038 3.80114C34.6778 4.15578 34.991 4.63139 35.1435 5.22798ZM41.4263 6.05327V7.34091H36.9121V6.05327H41.4263ZM46.9324 11.169C46.1468 11.1657 45.4757 10.9586 44.9189 10.5476C44.362 10.1366 43.9361 9.53835 43.6412 8.75284C43.3462 7.96733 43.1987 7.02107 43.1987 5.91406C43.1987 4.81037 43.3462 3.86742 43.6412 3.08523C43.9395 2.30303 44.367 1.70644 44.9238 1.29545C45.484 0.884469 46.1535 0.678977 46.9324 0.678977C47.7112 0.678977 48.3791 0.886126 48.9359 1.30043C49.4927 1.71141 49.9186 2.308 50.2136 3.0902C50.5119 3.86908 50.661 4.81037 50.661 5.91406C50.661 7.02438 50.5136 7.9723 50.2186 8.75781C49.9236 9.54001 49.4977 10.1383 48.9409 10.5526C48.3841 10.9635 47.7145 11.169 46.9324 11.169ZM46.9324 9.84162C47.6217 9.84162 48.1603 9.50521 48.5481 8.83239C48.9392 8.15956 49.1348 7.18679 49.1348 5.91406C49.1348 5.06889 49.0453 4.35464 48.8663 3.77131C48.6906 3.18466 48.4371 2.74053 48.1056 2.43892C47.7775 2.134 47.3864 1.98153 46.9324 1.98153C46.2463 1.98153 45.7077 2.3196 45.3166 2.99574C44.9255 3.67187 44.7283 4.64465 44.725 5.91406C44.725 6.76255 44.8128 7.48011 44.9885 8.06676C45.1674 8.65009 45.421 9.09257 45.7491 9.39418C46.0772 9.69247 46.4717 9.84162 46.9324 9.84162ZM56.2876 0.818182V11H54.7464V2.35938H54.6868L52.2507 3.95028V2.47869L54.7912 0.818182H56.2876Z" fill="black"/>
</svg>
