<svg width="82" height="12" viewBox="0 0 82 12" fill="none" xmlns="http://www.w3.org/2000/svg">
<path d="M4.63352 3.36364V4.55682H0.318182V3.36364H4.63352ZM1.50142 11V2.47869C1.50142 2.00142 1.60582 1.60535 1.81463 1.29048C2.02344 0.972301 2.30019 0.735322 2.64489 0.579545C2.98958 0.420454 3.36411 0.340908 3.76847 0.340908C4.06676 0.340908 4.32197 0.365767 4.53409 0.415483C4.74621 0.461884 4.90365 0.504971 5.00639 0.544744L4.65838 1.74787C4.58878 1.72798 4.49929 1.70478 4.38991 1.67827C4.28054 1.64844 4.14796 1.63352 3.99219 1.63352C3.63092 1.63352 3.3724 1.72301 3.21662 1.90199C3.06416 2.08097 2.98793 2.33949 2.98793 2.67756V11H1.50142ZM8.15714 11.169C7.67324 11.169 7.23574 11.0795 6.84464 10.9006C6.45354 10.7183 6.14364 10.4548 5.91495 10.1101C5.68957 9.76539 5.57688 9.3428 5.57688 8.84233C5.57688 8.41146 5.65974 8.05682 5.82546 7.77841C5.99118 7.5 6.2149 7.27959 6.49663 7.11719C6.77835 6.95478 7.09322 6.83215 7.44123 6.74929C7.78924 6.66643 8.14388 6.60346 8.50515 6.56037C8.96254 6.50734 9.33375 6.46425 9.61879 6.43111C9.90382 6.39465 10.111 6.33665 10.2402 6.2571C10.3695 6.17756 10.4341 6.0483 10.4341 5.86932V5.83452C10.4341 5.40033 10.3115 5.06392 10.0662 4.82528C9.82428 4.58665 9.46301 4.46733 8.98242 4.46733C8.48195 4.46733 8.08754 4.57836 7.79918 4.80043C7.51415 5.01918 7.31694 5.26278 7.20756 5.53125L5.81055 5.21307C5.97627 4.74905 6.21822 4.37453 6.5364 4.08949C6.8579 3.80114 7.22745 3.59233 7.64506 3.46307C8.06268 3.33049 8.50183 3.2642 8.96254 3.2642C9.26746 3.2642 9.59061 3.30066 9.932 3.37358C10.2767 3.44318 10.5982 3.57244 10.8965 3.76136C11.1981 3.95028 11.445 4.22041 11.6373 4.57173C11.8295 4.91974 11.9256 5.37216 11.9256 5.92898V11H10.4739V9.95597H10.4142C10.3181 10.1482 10.1739 10.3371 9.98171 10.5227C9.78948 10.7083 9.54255 10.8625 9.24094 10.9851C8.93933 11.1077 8.57807 11.169 8.15714 11.169ZM8.48029 9.97585C8.89128 9.97585 9.2426 9.89465 9.53427 9.73224C9.82925 9.56984 10.053 9.35772 10.2054 9.09588C10.3612 8.83073 10.4391 8.54735 10.4391 8.24574V7.26136C10.3861 7.31439 10.2833 7.36411 10.1309 7.41051C9.98171 7.4536 9.81102 7.49171 9.61879 7.52486C9.42655 7.55469 9.23929 7.58286 9.057 7.60938C8.8747 7.63258 8.72224 7.65246 8.59961 7.66903C8.31126 7.70549 8.04776 7.76681 7.80913 7.85298C7.5738 7.93916 7.38488 8.06345 7.24237 8.22585C7.10316 8.38494 7.03356 8.59706 7.03356 8.86222C7.03356 9.23011 7.16945 9.50852 7.44123 9.69744C7.71301 9.88305 8.05936 9.97585 8.48029 9.97585ZM17.1222 11.1541C16.383 11.1541 15.7467 10.9867 15.2131 10.652C14.6828 10.3139 14.2751 9.84825 13.9901 9.25497C13.705 8.66169 13.5625 7.98224 13.5625 7.21662C13.5625 6.44105 13.7083 5.75663 14 5.16335C14.2917 4.56676 14.7027 4.10109 15.233 3.76633C15.7633 3.43158 16.388 3.2642 17.1072 3.2642C17.6873 3.2642 18.2043 3.37192 18.6584 3.58736C19.1125 3.79948 19.4787 4.09777 19.7571 4.48224C20.0388 4.86671 20.2062 5.31581 20.2592 5.82955H18.8125C18.733 5.47159 18.5507 5.16335 18.2656 4.90483C17.9839 4.64631 17.6061 4.51705 17.1321 4.51705C16.7178 4.51705 16.3549 4.62642 16.0433 4.84517C15.7351 5.06061 15.4948 5.36884 15.3224 5.76989C15.1501 6.16761 15.0639 6.63826 15.0639 7.18182C15.0639 7.73864 15.1484 8.21922 15.3175 8.62358C15.4865 9.02794 15.7251 9.34115 16.0334 9.56321C16.3449 9.78527 16.7112 9.89631 17.1321 9.89631C17.4138 9.89631 17.669 9.84493 17.8977 9.74219C18.1297 9.63613 18.3236 9.48532 18.4794 9.28977C18.6385 9.09422 18.7495 8.8589 18.8125 8.58381H20.2592C20.2062 9.07765 20.0455 9.51847 19.777 9.90625C19.5085 10.294 19.1489 10.599 18.6982 10.821C18.2507 11.0431 17.7254 11.1541 17.1222 11.1541ZM25.1401 11.1541C24.3877 11.1541 23.7398 10.9934 23.1962 10.6719C22.656 10.3471 22.2383 9.89134 21.9434 9.30469C21.6517 8.71473 21.5059 8.02367 21.5059 7.23153C21.5059 6.44934 21.6517 5.75994 21.9434 5.16335C22.2383 4.56676 22.6493 4.10109 23.1763 3.76633C23.7066 3.43158 24.3264 3.2642 25.0357 3.2642C25.4666 3.2642 25.8842 3.33546 26.2885 3.47798C26.6929 3.6205 27.0558 3.84422 27.3773 4.14915C27.6988 4.45407 27.9524 4.85014 28.138 5.33736C28.3236 5.82126 28.4164 6.40956 28.4164 7.10227V7.62926H22.3461V6.51562H26.9597C26.9597 6.12453 26.8801 5.77817 26.7211 5.47656C26.562 5.17164 26.3382 4.93134 26.0499 4.75568C25.7649 4.58002 25.4301 4.49219 25.0456 4.49219C24.628 4.49219 24.2634 4.59493 23.9519 4.80043C23.6436 5.0026 23.405 5.26776 23.236 5.59588C23.0703 5.92069 22.9874 6.27367 22.9874 6.65483V7.52486C22.9874 8.03527 23.0769 8.46946 23.2559 8.82741C23.4382 9.18537 23.6917 9.45881 24.0165 9.64773C24.3413 9.83333 24.7208 9.92614 25.155 9.92614C25.4367 9.92614 25.6936 9.88636 25.9256 9.80682C26.1576 9.72396 26.3581 9.60133 26.5272 9.43892C26.6962 9.27652 26.8255 9.07599 26.915 8.83736L28.3219 9.09091C28.2092 9.50521 28.007 9.86813 27.7154 10.1797C27.427 10.4879 27.0641 10.7282 26.6266 10.9006C26.1924 11.0696 25.6969 11.1541 25.1401 11.1541ZM34.565 6.05327V7.34091H30.0508V6.05327H34.565ZM38.0327 6.46591V11H36.5462V3.36364H37.973V4.60653H38.0675C38.2431 4.20218 38.5182 3.87737 38.8928 3.6321C39.2706 3.38684 39.7462 3.2642 40.3196 3.2642C40.84 3.2642 41.2957 3.37358 41.6868 3.59233C42.0779 3.80777 42.3812 4.12926 42.5966 4.55682C42.812 4.98437 42.9197 5.51302 42.9197 6.14276V11H41.4332V6.32173C41.4332 5.76823 41.2891 5.3357 41.0007 5.02415C40.7124 4.70928 40.3163 4.55185 39.8125 4.55185C39.4678 4.55185 39.1612 4.62642 38.8928 4.77557C38.6276 4.92472 38.4171 5.14347 38.2614 5.43182C38.1089 5.71686 38.0327 6.06155 38.0327 6.46591ZM48.2045 11.1541C47.4522 11.1541 46.8042 10.9934 46.2607 10.6719C45.7204 10.3471 45.3028 9.89134 45.0078 9.30469C44.7161 8.71473 44.5703 8.02367 44.5703 7.23153C44.5703 6.44934 44.7161 5.75994 45.0078 5.16335C45.3028 4.56676 45.7138 4.10109 46.2408 3.76633C46.7711 3.43158 47.3909 3.2642 48.1001 3.2642C48.531 3.2642 48.9486 3.33546 49.353 3.47798C49.7573 3.6205 50.1203 3.84422 50.4418 4.14915C50.7633 4.45407 51.0168 4.85014 51.2024 5.33736C51.388 5.82126 51.4808 6.40956 51.4808 7.10227V7.62926H45.4105V6.51562H50.0241C50.0241 6.12453 49.9446 5.77817 49.7855 5.47656C49.6264 5.17164 49.4027 4.93134 49.1143 4.75568C48.8293 4.58002 48.4946 4.49219 48.1101 4.49219C47.6925 4.49219 47.3279 4.59493 47.0163 4.80043C46.7081 5.0026 46.4695 5.26776 46.3004 5.59588C46.1347 5.92069 46.0518 6.27367 46.0518 6.65483V7.52486C46.0518 8.03527 46.1413 8.46946 46.3203 8.82741C46.5026 9.18537 46.7562 9.45881 47.081 9.64773C47.4058 9.83333 47.7853 9.92614 48.2195 9.92614C48.5012 9.92614 48.758 9.88636 48.9901 9.80682C49.2221 9.72396 49.4226 9.60133 49.5916 9.43892C49.7607 9.27652 49.8899 9.07599 49.9794 8.83736L51.3864 9.09091C51.2737 9.50521 51.0715 9.86813 50.7798 10.1797C50.4915 10.4879 50.1286 10.7282 49.6911 10.9006C49.2569 11.0696 48.7614 11.1541 48.2045 11.1541ZM57.9675 7.8331V3.36364H59.459V11H57.9973V9.67756H57.9178C57.7421 10.0852 57.4604 10.425 57.0726 10.6967C56.6882 10.9652 56.2092 11.0994 55.6358 11.0994C55.1453 11.0994 54.7111 10.9917 54.3333 10.7763C53.9587 10.5575 53.6638 10.2344 53.4483 9.80682C53.2362 9.37926 53.1301 8.85062 53.1301 8.22088V3.36364H54.6167V8.0419C54.6167 8.56226 54.7608 8.97656 55.0492 9.2848C55.3375 9.59304 55.7121 9.74716 56.1728 9.74716C56.4512 9.74716 56.7279 9.67756 57.003 9.53835C57.2814 9.39915 57.5118 9.18868 57.6941 8.90696C57.8797 8.62524 57.9708 8.26728 57.9675 7.8331ZM65.021 3.36364V4.55682H60.8498V3.36364H65.021ZM61.9684 1.53409H63.4549V8.75781C63.4549 9.04616 63.498 9.26326 63.5842 9.40909C63.6703 9.55161 63.7814 9.64938 63.9173 9.70241C64.0565 9.75213 64.2073 9.77699 64.3697 9.77699C64.489 9.77699 64.5934 9.7687 64.6829 9.75213C64.7724 9.73556 64.842 9.7223 64.8917 9.71236L65.1602 10.9403C65.074 10.9735 64.9513 11.0066 64.7923 11.0398C64.6332 11.0762 64.4343 11.0961 64.1957 11.0994C63.8046 11.1061 63.44 11.0365 63.1019 10.8906C62.7638 10.7448 62.4904 10.5194 62.2816 10.2145C62.0728 9.90956 61.9684 9.52675 61.9684 9.06605V1.53409ZM66.6653 11V3.36364H68.1021V4.5767H68.1816C68.3208 4.16572 68.5661 3.84257 68.9174 3.60724C69.2721 3.36861 69.6731 3.24929 70.1206 3.24929C70.2134 3.24929 70.3227 3.2526 70.4487 3.25923C70.5779 3.26586 70.679 3.27415 70.752 3.28409V4.70597C70.6923 4.68939 70.5862 4.67116 70.4338 4.65128C70.2813 4.62808 70.1288 4.61648 69.9764 4.61648C69.6251 4.61648 69.3118 4.69105 69.0368 4.8402C68.765 4.98603 68.5495 5.18987 68.3904 5.4517C68.2314 5.71023 68.1518 6.00521 68.1518 6.33665V11H66.6653ZM74.1923 11.169C73.7084 11.169 73.2709 11.0795 72.8798 10.9006C72.4887 10.7183 72.1788 10.4548 71.9501 10.1101C71.7247 9.76539 71.612 9.3428 71.612 8.84233C71.612 8.41146 71.6949 8.05682 71.8606 7.77841C72.0263 7.5 72.2501 7.27959 72.5318 7.11719C72.8135 6.95478 73.1284 6.83215 73.4764 6.74929C73.8244 6.66643 74.179 6.60346 74.5403 6.56037C74.9977 6.50734 75.3689 6.46425 75.6539 6.43111C75.939 6.39465 76.1461 6.33665 76.2754 6.2571C76.4047 6.17756 76.4693 6.0483 76.4693 5.86932V5.83452C76.4693 5.40033 76.3467 5.06392 76.1014 4.82528C75.8594 4.58665 75.4982 4.46733 75.0176 4.46733C74.5171 4.46733 74.1227 4.57836 73.8343 4.80043C73.5493 5.01918 73.3521 5.26278 73.2427 5.53125L71.8457 5.21307C72.0114 4.74905 72.2534 4.37453 72.5716 4.08949C72.8931 3.80114 73.2626 3.59233 73.6802 3.46307C74.0978 3.33049 74.537 3.2642 74.9977 3.2642C75.3026 3.2642 75.6258 3.30066 75.9672 3.37358C76.3118 3.44318 76.6333 3.57244 76.9316 3.76136C77.2333 3.95028 77.4802 4.22041 77.6724 4.57173C77.8646 4.91974 77.9608 5.37216 77.9608 5.92898V11H76.5091V9.95597H76.4494C76.3533 10.1482 76.2091 10.3371 76.0169 10.5227C75.8246 10.7083 75.5777 10.8625 75.2761 10.9851C74.9745 11.1077 74.6132 11.169 74.1923 11.169ZM74.5154 9.97585C74.9264 9.97585 75.2778 9.89465 75.5694 9.73224C75.8644 9.56984 76.0881 9.35772 76.2406 9.09588C76.3964 8.83073 76.4743 8.54735 76.4743 8.24574V7.26136C76.4212 7.31439 76.3185 7.36411 76.166 7.41051C76.0169 7.4536 75.8462 7.49171 75.6539 7.52486C75.4617 7.55469 75.2744 7.58286 75.0922 7.60938C74.9099 7.63258 74.7574 7.65246 74.6348 7.66903C74.3464 7.70549 74.0829 7.76681 73.8443 7.85298C73.609 7.93916 73.42 8.06345 73.2775 8.22585C73.1383 8.38494 73.0687 8.59706 73.0687 8.86222C73.0687 9.23011 73.2046 9.50852 73.4764 9.69744C73.7482 9.88305 74.0945 9.97585 74.5154 9.97585ZM81.4272 0.818182V11H79.9407V0.818182H81.4272Z" fill="black"/>
</svg>
