<svg width="72" height="14" viewBox="0 0 72 14" fill="none" xmlns="http://www.w3.org/2000/svg">
<path d="M4.83665 7.8331V3.36364H6.32812V11H4.86648V9.67756H4.78693C4.61127 10.0852 4.32955 10.425 3.94176 10.6967C3.55729 10.9652 3.07836 11.0994 2.50497 11.0994C2.01444 11.0994 1.58026 10.9917 1.20241 10.7763C0.827888 10.5575 0.532907 10.2344 0.317472 9.80682C0.10535 9.37926 -0.000710189 8.85062 -0.000710189 8.22088V3.36364H1.4858V8.0419C1.4858 8.56226 1.62997 8.97656 1.91832 9.2848C2.20668 9.59304 2.5812 9.74716 3.0419 9.74716C3.32031 9.74716 3.59706 9.67756 3.87216 9.53835C4.15057 9.39915 4.38092 9.18868 4.56321 8.90696C4.74882 8.62524 4.83996 8.26728 4.83665 7.8331ZM14.0478 5.22798L12.7005 5.46662C12.6441 5.29427 12.5546 5.13021 12.432 4.97443C12.3127 4.81865 12.1503 4.69105 11.9448 4.59162C11.7393 4.49219 11.4824 4.44247 11.1742 4.44247C10.7533 4.44247 10.4019 4.53693 10.1202 4.72585C9.83848 4.91146 9.69762 5.15175 9.69762 5.44673C9.69762 5.70194 9.79208 5.90743 9.981 6.06321C10.1699 6.21899 10.4748 6.34659 10.8958 6.44602L12.1088 6.72443C12.8115 6.88684 13.3352 7.13707 13.6799 7.47514C14.0246 7.81321 14.1969 8.25237 14.1969 8.79261C14.1969 9.25 14.0643 9.65767 13.7992 10.0156C13.5373 10.3703 13.1711 10.6487 12.7005 10.8509C12.2331 11.053 11.6912 11.1541 11.0748 11.1541C10.2196 11.1541 9.52196 10.9718 8.98171 10.6072C8.44147 10.2393 8.11003 9.71733 7.98739 9.04119L9.42418 8.82244C9.51367 9.19697 9.69762 9.48035 9.97603 9.67259C10.2544 9.86151 10.6174 9.95597 11.0648 9.95597C11.552 9.95597 11.9415 9.85488 12.2331 9.6527C12.5248 9.44721 12.6706 9.19697 12.6706 8.90199C12.6706 8.66335 12.5811 8.46283 12.4022 8.30043C12.2265 8.13802 11.9564 8.01539 11.5918 7.93253L10.2992 7.64915C9.58659 7.48674 9.0596 7.22822 8.71822 6.87358C8.38015 6.51894 8.21112 6.06984 8.21112 5.52628C8.21112 5.07552 8.33706 4.68111 8.58896 4.34304C8.84085 4.00497 9.18886 3.74148 9.63299 3.55256C10.0771 3.36032 10.5859 3.2642 11.1593 3.2642C11.9846 3.2642 12.6342 3.44318 13.1081 3.80114C13.5821 4.15578 13.8953 4.63139 14.0478 5.22798ZM19.1225 11.1541C18.3701 11.1541 17.7222 10.9934 17.1786 10.6719C16.6384 10.3471 16.2208 9.89134 15.9258 9.30469C15.6341 8.71473 15.4883 8.02367 15.4883 7.23153C15.4883 6.44934 15.6341 5.75994 15.9258 5.16335C16.2208 4.56676 16.6317 4.10109 17.1587 3.76633C17.689 3.43158 18.3088 3.2642 19.0181 3.2642C19.449 3.2642 19.8666 3.33546 20.271 3.47798C20.6753 3.6205 21.0382 3.84422 21.3597 4.14915C21.6812 4.45407 21.9348 4.85014 22.1204 5.33736C22.306 5.82126 22.3988 6.40956 22.3988 7.10227V7.62926H16.3285V6.51562H20.9421C20.9421 6.12453 20.8626 5.77817 20.7035 5.47656C20.5444 5.17164 20.3207 4.93134 20.0323 4.75568C19.7473 4.58002 19.4125 4.49219 19.0281 4.49219C18.6104 4.49219 18.2459 4.59493 17.9343 4.80043C17.6261 5.0026 17.3874 5.26776 17.2184 5.59588C17.0527 5.92069 16.9698 6.27367 16.9698 6.65483V7.52486C16.9698 8.03527 17.0593 8.46946 17.2383 8.82741C17.4206 9.18537 17.6741 9.45881 17.9989 9.64773C18.3237 9.83333 18.7032 9.92614 19.1374 9.92614C19.4192 9.92614 19.676 9.88636 19.908 9.80682C20.14 9.72396 20.3406 9.60133 20.5096 9.43892C20.6786 9.27652 20.8079 9.07599 20.8974 8.83736L22.3043 9.09091C22.1916 9.50521 21.9895 9.86813 21.6978 10.1797C21.4094 10.4879 21.0465 10.7282 20.609 10.9006C20.1748 11.0696 19.6793 11.1541 19.1225 11.1541ZM24.0481 11V3.36364H25.4849V4.5767H25.5645C25.7037 4.16572 25.9489 3.84257 26.3002 3.60724C26.6549 3.36861 27.0559 3.24929 27.5034 3.24929C27.5962 3.24929 27.7056 3.2526 27.8315 3.25923C27.9608 3.26586 28.0618 3.27415 28.1348 3.28409V4.70597C28.0751 4.68939 27.969 4.67116 27.8166 4.65128C27.6641 4.62808 27.5117 4.61648 27.3592 4.61648C27.0079 4.61648 26.6947 4.69105 26.4196 4.8402C26.1478 4.98603 25.9324 5.18987 25.7733 5.4517C25.6142 5.71023 25.5346 6.00521 25.5346 6.33665V11H24.0481ZM33.4693 6.05327V7.34091H28.9551V6.05327H33.4693ZM40.2878 7.8331V3.36364H41.7793V11H40.3176V9.67756H40.2381C40.0624 10.0852 39.7807 10.425 39.3929 10.6967C39.0085 10.9652 38.5295 11.0994 37.9561 11.0994C37.4656 11.0994 37.0314 10.9917 36.6536 10.7763C36.2791 10.5575 35.9841 10.2344 35.7686 9.80682C35.5565 9.37926 35.4505 8.85062 35.4505 8.22088V3.36364H36.937V8.0419C36.937 8.56226 37.0811 8.97656 37.3695 9.2848C37.6578 9.59304 38.0324 9.74716 38.4931 9.74716C38.7715 9.74716 39.0482 9.67756 39.3233 9.53835C39.6017 9.39915 39.8321 9.18868 40.0144 8.90696C40.2 8.62524 40.2911 8.26728 40.2878 7.8331ZM43.7766 13.8636V3.36364H45.2283V4.60156H45.3526C45.4388 4.44247 45.5631 4.25852 45.7255 4.04972C45.8879 3.84091 46.1133 3.65862 46.4016 3.50284C46.69 3.34375 47.0711 3.2642 47.5451 3.2642C48.1616 3.2642 48.7118 3.41998 49.1957 3.73153C49.6796 4.04309 50.0591 4.49219 50.3342 5.07884C50.6126 5.66548 50.7518 6.37145 50.7518 7.19673C50.7518 8.02202 50.6142 8.72964 50.3391 9.3196C50.064 9.90625 49.6862 10.3587 49.2056 10.6768C48.725 10.9917 48.1765 11.1491 47.56 11.1491C47.096 11.1491 46.7165 11.0713 46.4215 10.9155C46.1299 10.7597 45.9012 10.5774 45.7354 10.3686C45.5697 10.1598 45.4421 9.9742 45.3526 9.81179H45.2631V13.8636H43.7766ZM45.2333 7.18182C45.2333 7.71875 45.3112 8.18939 45.467 8.59375C45.6228 8.99811 45.8481 9.31463 46.1431 9.54332C46.4381 9.7687 46.7994 9.88139 47.2269 9.88139C47.671 9.88139 48.0423 9.76373 48.3406 9.52841C48.6388 9.28977 48.8642 8.96662 49.0167 8.55895C49.1725 8.15128 49.2504 7.69223 49.2504 7.18182C49.2504 6.67803 49.1741 6.22562 49.0217 5.82457C48.8725 5.42353 48.6471 5.10701 48.3455 4.875C48.0472 4.64299 47.6744 4.52699 47.2269 4.52699C46.796 4.52699 46.4315 4.63802 46.1332 4.86009C45.8382 5.08215 45.6145 5.39205 45.462 5.78977C45.3095 6.1875 45.2333 6.65151 45.2333 7.18182ZM56.9165 6.05327V7.34091H52.4023V6.05327H56.9165ZM62.4226 11.169C61.6371 11.1657 60.9659 10.9586 60.4091 10.5476C59.8523 10.1366 59.4264 9.53835 59.1314 8.75284C58.8364 7.96733 58.6889 7.02107 58.6889 5.91406C58.6889 4.81037 58.8364 3.86742 59.1314 3.08523C59.4297 2.30303 59.8572 1.70644 60.4141 1.29545C60.9742 0.884469 61.6437 0.678977 62.4226 0.678977C63.2015 0.678977 63.8693 0.886126 64.4261 1.30043C64.983 1.71141 65.4089 2.308 65.7038 3.0902C66.0021 3.86908 66.1513 4.81037 66.1513 5.91406C66.1513 7.02438 66.0038 7.9723 65.7088 8.75781C65.4138 9.54001 64.9879 10.1383 64.4311 10.5526C63.8743 10.9635 63.2048 11.169 62.4226 11.169ZM62.4226 9.84162C63.112 9.84162 63.6506 9.50521 64.0384 8.83239C64.4295 8.15956 64.625 7.18679 64.625 5.91406C64.625 5.06889 64.5355 4.35464 64.3565 3.77131C64.1809 3.18466 63.9273 2.74053 63.5959 2.43892C63.2678 2.134 62.8767 1.98153 62.4226 1.98153C61.7365 1.98153 61.1979 2.3196 60.8068 2.99574C60.4157 3.67187 60.2185 4.64465 60.2152 5.91406C60.2152 6.76255 60.303 7.48011 60.4787 8.06676C60.6577 8.65009 60.9112 9.09257 61.2393 9.39418C61.5675 9.69247 61.9619 9.84162 62.4226 9.84162ZM71.7779 0.818182V11H70.2367V2.35938H70.177L67.7409 3.95028V2.47869L70.2814 0.818182H71.7779Z" fill="black"/>
</svg>
