<svg width="80" height="12" viewBox="0 0 80 12" fill="none" xmlns="http://www.w3.org/2000/svg">
<path d="M4.83665 7.8331V3.36364H6.32812V11H4.86648V9.67756H4.78693C4.61127 10.0852 4.32955 10.425 3.94176 10.6967C3.55729 10.9652 3.07836 11.0994 2.50497 11.0994C2.01444 11.0994 1.58026 10.9917 1.20241 10.7763C0.827888 10.5575 0.532907 10.2344 0.317472 9.80682C0.10535 9.37926 -0.000710189 8.85062 -0.000710189 8.22088V3.36364H1.4858V8.0419C1.4858 8.56226 1.62997 8.97656 1.91832 9.2848C2.20668 9.59304 2.5812 9.74716 3.0419 9.74716C3.32031 9.74716 3.59706 9.67756 3.87216 9.53835C4.15057 9.39915 4.38092 9.18868 4.56321 8.90696C4.74882 8.62524 4.83996 8.26728 4.83665 7.8331ZM14.0478 5.22798L12.7005 5.46662C12.6441 5.29427 12.5546 5.13021 12.432 4.97443C12.3127 4.81865 12.1503 4.69105 11.9448 4.59162C11.7393 4.49219 11.4824 4.44247 11.1742 4.44247C10.7533 4.44247 10.4019 4.53693 10.1202 4.72585C9.83848 4.91146 9.69762 5.15175 9.69762 5.44673C9.69762 5.70194 9.79208 5.90743 9.981 6.06321C10.1699 6.21899 10.4748 6.34659 10.8958 6.44602L12.1088 6.72443C12.8115 6.88684 13.3352 7.13707 13.6799 7.47514C14.0246 7.81321 14.1969 8.25237 14.1969 8.79261C14.1969 9.25 14.0643 9.65767 13.7992 10.0156C13.5373 10.3703 13.1711 10.6487 12.7005 10.8509C12.2331 11.053 11.6912 11.1541 11.0748 11.1541C10.2196 11.1541 9.52196 10.9718 8.98171 10.6072C8.44147 10.2393 8.11003 9.71733 7.98739 9.04119L9.42418 8.82244C9.51367 9.19697 9.69762 9.48035 9.97603 9.67259C10.2544 9.86151 10.6174 9.95597 11.0648 9.95597C11.552 9.95597 11.9415 9.85488 12.2331 9.6527C12.5248 9.44721 12.6706 9.19697 12.6706 8.90199C12.6706 8.66335 12.5811 8.46283 12.4022 8.30043C12.2265 8.13802 11.9564 8.01539 11.5918 7.93253L10.2992 7.64915C9.58659 7.48674 9.0596 7.22822 8.71822 6.87358C8.38015 6.51894 8.21112 6.06984 8.21112 5.52628C8.21112 5.07552 8.33706 4.68111 8.58896 4.34304C8.84085 4.00497 9.18886 3.74148 9.63299 3.55256C10.0771 3.36032 10.5859 3.2642 11.1593 3.2642C11.9846 3.2642 12.6342 3.44318 13.1081 3.80114C13.5821 4.15578 13.8953 4.63139 14.0478 5.22798ZM19.1225 11.1541C18.3701 11.1541 17.7222 10.9934 17.1786 10.6719C16.6384 10.3471 16.2208 9.89134 15.9258 9.30469C15.6341 8.71473 15.4883 8.02367 15.4883 7.23153C15.4883 6.44934 15.6341 5.75994 15.9258 5.16335C16.2208 4.56676 16.6317 4.10109 17.1587 3.76633C17.689 3.43158 18.3088 3.2642 19.0181 3.2642C19.449 3.2642 19.8666 3.33546 20.271 3.47798C20.6753 3.6205 21.0382 3.84422 21.3597 4.14915C21.6812 4.45407 21.9348 4.85014 22.1204 5.33736C22.306 5.82126 22.3988 6.40956 22.3988 7.10227V7.62926H16.3285V6.51562H20.9421C20.9421 6.12453 20.8626 5.77817 20.7035 5.47656C20.5444 5.17164 20.3207 4.93134 20.0323 4.75568C19.7473 4.58002 19.4125 4.49219 19.0281 4.49219C18.6104 4.49219 18.2459 4.59493 17.9343 4.80043C17.6261 5.0026 17.3874 5.26776 17.2184 5.59588C17.0527 5.92069 16.9698 6.27367 16.9698 6.65483V7.52486C16.9698 8.03527 17.0593 8.46946 17.2383 8.82741C17.4206 9.18537 17.6741 9.45881 17.9989 9.64773C18.3237 9.83333 18.7032 9.92614 19.1374 9.92614C19.4192 9.92614 19.676 9.88636 19.908 9.80682C20.14 9.72396 20.3406 9.60133 20.5096 9.43892C20.6786 9.27652 20.8079 9.07599 20.8974 8.83736L22.3043 9.09091C22.1916 9.50521 21.9895 9.86813 21.6978 10.1797C21.4094 10.4879 21.0465 10.7282 20.609 10.9006C20.1748 11.0696 19.6793 11.1541 19.1225 11.1541ZM24.0481 11V3.36364H25.4849V4.5767H25.5645C25.7037 4.16572 25.9489 3.84257 26.3002 3.60724C26.6549 3.36861 27.0559 3.24929 27.5034 3.24929C27.5962 3.24929 27.7056 3.2526 27.8315 3.25923C27.9608 3.26586 28.0618 3.27415 28.1348 3.28409V4.70597C28.0751 4.68939 27.969 4.67116 27.8166 4.65128C27.6641 4.62808 27.5117 4.61648 27.3592 4.61648C27.0079 4.61648 26.6947 4.69105 26.4196 4.8402C26.1478 4.98603 25.9324 5.18987 25.7733 5.4517C25.6142 5.71023 25.5346 6.00521 25.5346 6.33665V11H24.0481ZM33.4693 6.05327V7.34091H28.9551V6.05327H33.4693ZM36.937 0.818182V11H35.4505V0.818182H36.937ZM42.228 11.1541C41.4756 11.1541 40.8277 10.9934 40.2841 10.6719C39.7438 10.3471 39.3262 9.89134 39.0312 9.30469C38.7396 8.71473 38.5938 8.02367 38.5938 7.23153C38.5938 6.44934 38.7396 5.75994 39.0312 5.16335C39.3262 4.56676 39.7372 4.10109 40.2642 3.76633C40.7945 3.43158 41.4143 3.2642 42.1236 3.2642C42.5545 3.2642 42.9721 3.33546 43.3764 3.47798C43.7808 3.6205 44.1437 3.84422 44.4652 4.14915C44.7867 4.45407 45.0402 4.85014 45.2259 5.33736C45.4115 5.82126 45.5043 6.40956 45.5043 7.10227V7.62926H39.4339V6.51562H44.0476C44.0476 6.12453 43.968 5.77817 43.8089 5.47656C43.6499 5.17164 43.4261 4.93134 43.1378 4.75568C42.8527 4.58002 42.518 4.49219 42.1335 4.49219C41.7159 4.49219 41.3513 4.59493 41.0398 4.80043C40.7315 5.0026 40.4929 5.26776 40.3239 5.59588C40.1581 5.92069 40.0753 6.27367 40.0753 6.65483V7.52486C40.0753 8.03527 40.1648 8.46946 40.3438 8.82741C40.526 9.18537 40.7796 9.45881 41.1044 9.64773C41.4292 9.83333 41.8087 9.92614 42.2429 9.92614C42.5246 9.92614 42.7815 9.88636 43.0135 9.80682C43.2455 9.72396 43.446 9.60133 43.6151 9.43892C43.7841 9.27652 43.9134 9.07599 44.0028 8.83736L45.4098 9.09091C45.2971 9.50521 45.0949 9.86813 44.8033 10.1797C44.5149 10.4879 44.152 10.7282 43.7145 10.9006C43.2803 11.0696 42.7848 11.1541 42.228 11.1541ZM50.7878 3.36364V4.55682H46.4725V3.36364H50.7878ZM47.6557 11V2.47869C47.6557 2.00142 47.7601 1.60535 47.9689 1.29048C48.1777 0.972301 48.4545 0.735322 48.7992 0.579545C49.1439 0.420454 49.5184 0.340908 49.9228 0.340908C50.2211 0.340908 50.4763 0.365767 50.6884 0.415483C50.9005 0.461884 51.0579 0.504971 51.1607 0.544744L50.8127 1.74787C50.7431 1.72798 50.6536 1.70478 50.5442 1.67827C50.4348 1.64844 50.3023 1.63352 50.1465 1.63352C49.7852 1.63352 49.5267 1.72301 49.3709 1.90199C49.2185 2.08097 49.1422 2.33949 49.1422 2.67756V11H47.6557ZM55.8862 3.36364V4.55682H51.715V3.36364H55.8862ZM52.8336 1.53409H54.3201V8.75781C54.3201 9.04616 54.3632 9.26326 54.4494 9.40909C54.5356 9.55161 54.6466 9.64938 54.7825 9.70241C54.9217 9.75213 55.0725 9.77699 55.2349 9.77699C55.3542 9.77699 55.4586 9.7687 55.5481 9.75213C55.6376 9.73556 55.7072 9.7223 55.7569 9.71236L56.0254 10.9403C55.9392 10.9735 55.8166 11.0066 55.6575 11.0398C55.4984 11.0762 55.2995 11.0961 55.0609 11.0994C54.6698 11.1061 54.3052 11.0365 53.9672 10.8906C53.6291 10.7448 53.3556 10.5194 53.1468 10.2145C52.938 9.90956 52.8336 9.52675 52.8336 9.06605V1.53409ZM61.7701 6.05327V7.34091H57.2559V6.05327H61.7701ZM67.2761 11.169C66.4906 11.1657 65.8194 10.9586 65.2626 10.5476C64.7058 10.1366 64.2799 9.53835 63.9849 8.75284C63.6899 7.96733 63.5424 7.02107 63.5424 5.91406C63.5424 4.81037 63.6899 3.86742 63.9849 3.08523C64.2832 2.30303 64.7108 1.70644 65.2676 1.29545C65.8277 0.884469 66.4972 0.678977 67.2761 0.678977C68.055 0.678977 68.7228 0.886126 69.2797 1.30043C69.8365 1.71141 70.2624 2.308 70.5574 3.0902C70.8556 3.86908 71.0048 4.81037 71.0048 5.91406C71.0048 7.02438 70.8573 7.9723 70.5623 8.75781C70.2673 9.54001 69.8414 10.1383 69.2846 10.5526C68.7278 10.9635 68.0583 11.169 67.2761 11.169ZM67.2761 9.84162C67.9655 9.84162 68.5041 9.50521 68.8919 8.83239C69.283 8.15956 69.4785 7.18679 69.4785 5.91406C69.4785 5.06889 69.389 4.35464 69.21 3.77131C69.0344 3.18466 68.7808 2.74053 68.4494 2.43892C68.1213 2.134 67.7302 1.98153 67.2761 1.98153C66.59 1.98153 66.0514 2.3196 65.6603 2.99574C65.2692 3.67187 65.072 4.64465 65.0687 5.91406C65.0687 6.76255 65.1565 7.48011 65.3322 8.06676C65.5112 8.65009 65.7647 9.09257 66.0929 9.39418C66.421 9.69247 66.8154 9.84162 67.2761 9.84162ZM72.7685 11V9.88636L76.2138 6.31676C76.5817 5.92898 76.8849 5.58925 77.1236 5.29759C77.3655 5.0026 77.5462 4.72254 77.6655 4.45739C77.7848 4.19223 77.8445 3.91051 77.8445 3.61222C77.8445 3.27415 77.7649 2.98248 77.6058 2.73722C77.4467 2.48864 77.2296 2.29806 76.9545 2.16548C76.6795 2.02959 76.3696 1.96165 76.0249 1.96165C75.6603 1.96165 75.3421 2.03622 75.0703 2.18537C74.7985 2.33452 74.5897 2.54498 74.4439 2.81676C74.2981 3.08854 74.2251 3.40672 74.2251 3.77131H72.7585C72.7585 3.15151 72.901 2.60961 73.1861 2.1456C73.4711 1.68158 73.8622 1.32197 74.3594 1.06676C74.8565 0.808238 75.4216 0.678977 76.0547 0.678977C76.6944 0.678977 77.2578 0.806581 77.745 1.06179C78.2356 1.31368 78.6184 1.65838 78.8935 2.09588C79.1686 2.53007 79.3061 3.0206 79.3061 3.56747C79.3061 3.94531 79.2348 4.31487 79.0923 4.67614C78.9531 5.0374 78.7095 5.4401 78.3615 5.88423C78.0135 6.32505 77.5296 6.86032 76.9098 7.49006L74.8864 9.60795V9.68253H79.4702V11H72.7685Z" fill="black"/>
</svg>
