<svg width="83" height="12" viewBox="0 0 83 12" fill="none" xmlns="http://www.w3.org/2000/svg">
<path d="M4.83665 7.8331V3.36364H6.32812V11H4.86648V9.67756H4.78693C4.61127 10.0852 4.32955 10.425 3.94176 10.6967C3.55729 10.9652 3.07836 11.0994 2.50497 11.0994C2.01444 11.0994 1.58026 10.9917 1.20241 10.7763C0.827888 10.5575 0.532907 10.2344 0.317472 9.80682C0.10535 9.37926 -0.000710189 8.85062 -0.000710189 8.22088V3.36364H1.4858V8.0419C1.4858 8.56226 1.62997 8.97656 1.91832 9.2848C2.20668 9.59304 2.5812 9.74716 3.0419 9.74716C3.32031 9.74716 3.59706 9.67756 3.87216 9.53835C4.15057 9.39915 4.38092 9.18868 4.56321 8.90696C4.74882 8.62524 4.83996 8.26728 4.83665 7.8331ZM14.0478 5.22798L12.7005 5.46662C12.6441 5.29427 12.5546 5.13021 12.432 4.97443C12.3127 4.81865 12.1503 4.69105 11.9448 4.59162C11.7393 4.49219 11.4824 4.44247 11.1742 4.44247C10.7533 4.44247 10.4019 4.53693 10.1202 4.72585C9.83848 4.91146 9.69762 5.15175 9.69762 5.44673C9.69762 5.70194 9.79208 5.90743 9.981 6.06321C10.1699 6.21899 10.4748 6.34659 10.8958 6.44602L12.1088 6.72443C12.8115 6.88684 13.3352 7.13707 13.6799 7.47514C14.0246 7.81321 14.1969 8.25237 14.1969 8.79261C14.1969 9.25 14.0643 9.65767 13.7992 10.0156C13.5373 10.3703 13.1711 10.6487 12.7005 10.8509C12.2331 11.053 11.6912 11.1541 11.0748 11.1541C10.2196 11.1541 9.52196 10.9718 8.98171 10.6072C8.44147 10.2393 8.11003 9.71733 7.98739 9.04119L9.42418 8.82244C9.51367 9.19697 9.69762 9.48035 9.97603 9.67259C10.2544 9.86151 10.6174 9.95597 11.0648 9.95597C11.552 9.95597 11.9415 9.85488 12.2331 9.6527C12.5248 9.44721 12.6706 9.19697 12.6706 8.90199C12.6706 8.66335 12.5811 8.46283 12.4022 8.30043C12.2265 8.13802 11.9564 8.01539 11.5918 7.93253L10.2992 7.64915C9.58659 7.48674 9.0596 7.22822 8.71822 6.87358C8.38015 6.51894 8.21112 6.06984 8.21112 5.52628C8.21112 5.07552 8.33706 4.68111 8.58896 4.34304C8.84085 4.00497 9.18886 3.74148 9.63299 3.55256C10.0771 3.36032 10.5859 3.2642 11.1593 3.2642C11.9846 3.2642 12.6342 3.44318 13.1081 3.80114C13.5821 4.15578 13.8953 4.63139 14.0478 5.22798ZM19.1225 11.1541C18.3701 11.1541 17.7222 10.9934 17.1786 10.6719C16.6384 10.3471 16.2208 9.89134 15.9258 9.30469C15.6341 8.71473 15.4883 8.02367 15.4883 7.23153C15.4883 6.44934 15.6341 5.75994 15.9258 5.16335C16.2208 4.56676 16.6317 4.10109 17.1587 3.76633C17.689 3.43158 18.3088 3.2642 19.0181 3.2642C19.449 3.2642 19.8666 3.33546 20.271 3.47798C20.6753 3.6205 21.0382 3.84422 21.3597 4.14915C21.6812 4.45407 21.9348 4.85014 22.1204 5.33736C22.306 5.82126 22.3988 6.40956 22.3988 7.10227V7.62926H16.3285V6.51562H20.9421C20.9421 6.12453 20.8626 5.77817 20.7035 5.47656C20.5444 5.17164 20.3207 4.93134 20.0323 4.75568C19.7473 4.58002 19.4125 4.49219 19.0281 4.49219C18.6104 4.49219 18.2459 4.59493 17.9343 4.80043C17.6261 5.0026 17.3874 5.26776 17.2184 5.59588C17.0527 5.92069 16.9698 6.27367 16.9698 6.65483V7.52486C16.9698 8.03527 17.0593 8.46946 17.2383 8.82741C17.4206 9.18537 17.6741 9.45881 17.9989 9.64773C18.3237 9.83333 18.7032 9.92614 19.1374 9.92614C19.4192 9.92614 19.676 9.88636 19.908 9.80682C20.14 9.72396 20.3406 9.60133 20.5096 9.43892C20.6786 9.27652 20.8079 9.07599 20.8974 8.83736L22.3043 9.09091C22.1916 9.50521 21.9895 9.86813 21.6978 10.1797C21.4094 10.4879 21.0465 10.7282 20.609 10.9006C20.1748 11.0696 19.6793 11.1541 19.1225 11.1541ZM24.0481 11V3.36364H25.4849V4.5767H25.5645C25.7037 4.16572 25.9489 3.84257 26.3002 3.60724C26.6549 3.36861 27.0559 3.24929 27.5034 3.24929C27.5962 3.24929 27.7056 3.2526 27.8315 3.25923C27.9608 3.26586 28.0618 3.27415 28.1348 3.28409V4.70597C28.0751 4.68939 27.969 4.67116 27.8166 4.65128C27.6641 4.62808 27.5117 4.61648 27.3592 4.61648C27.0079 4.61648 26.6947 4.69105 26.4196 4.8402C26.1478 4.98603 25.9324 5.18987 25.7733 5.4517C25.6142 5.71023 25.5346 6.00521 25.5346 6.33665V11H24.0481ZM35.1435 5.22798L33.7962 5.46662C33.7398 5.29427 33.6503 5.13021 33.5277 4.97443C33.4084 4.81865 33.246 4.69105 33.0405 4.59162C32.835 4.49219 32.5781 4.44247 32.2699 4.44247C31.849 4.44247 31.4976 4.53693 31.2159 4.72585C30.9342 4.91146 30.7933 5.15175 30.7933 5.44673C30.7933 5.70194 30.8878 5.90743 31.0767 6.06321C31.2656 6.21899 31.5705 6.34659 31.9915 6.44602L33.2045 6.72443C33.9072 6.88684 34.4309 7.13707 34.7756 7.47514C35.1203 7.81321 35.2926 8.25237 35.2926 8.79261C35.2926 9.25 35.16 9.65767 34.8949 10.0156C34.633 10.3703 34.2668 10.6487 33.7962 10.8509C33.3288 11.053 32.7869 11.1541 32.1705 11.1541C31.3153 11.1541 30.6177 10.9718 30.0774 10.6072C29.5372 10.2393 29.2057 9.71733 29.0831 9.04119L30.5199 8.82244C30.6094 9.19697 30.7933 9.48035 31.0717 9.67259C31.3501 9.86151 31.7131 9.95597 32.1605 9.95597C32.6477 9.95597 33.0372 9.85488 33.3288 9.6527C33.6205 9.44721 33.7663 9.19697 33.7663 8.90199C33.7663 8.66335 33.6768 8.46283 33.4979 8.30043C33.3222 8.13802 33.0521 8.01539 32.6875 7.93253L31.3949 7.64915C30.6823 7.48674 30.1553 7.22822 29.8139 6.87358C29.4759 6.51894 29.3068 6.06984 29.3068 5.52628C29.3068 5.07552 29.4328 4.68111 29.6847 4.34304C29.9366 4.00497 30.2846 3.74148 30.7287 3.55256C31.1728 3.36032 31.6816 3.2642 32.255 3.2642C33.0803 3.2642 33.7299 3.44318 34.2038 3.80114C34.6778 4.15578 34.991 4.63139 35.1435 5.22798ZM41.4263 6.05327V7.34091H36.9121V6.05327H41.4263ZM46.6241 11.1541C45.885 11.1541 45.2486 10.9867 44.715 10.652C44.1847 10.3139 43.777 9.84825 43.492 9.25497C43.207 8.66169 43.0645 7.98224 43.0645 7.21662C43.0645 6.44105 43.2103 5.75663 43.502 5.16335C43.7936 4.56676 44.2046 4.10109 44.7349 3.76633C45.2652 3.43158 45.89 3.2642 46.6092 3.2642C47.1892 3.2642 47.7063 3.37192 48.1603 3.58736C48.6144 3.79948 48.9806 4.09777 49.2591 4.48224C49.5408 4.86671 49.7082 5.31581 49.7612 5.82955H48.3145C48.2349 5.47159 48.0526 5.16335 47.7676 4.90483C47.4859 4.64631 47.108 4.51705 46.6341 4.51705C46.2198 4.51705 45.8568 4.62642 45.5453 4.84517C45.237 5.06061 44.9967 5.36884 44.8244 5.76989C44.652 6.16761 44.5659 6.63826 44.5659 7.18182C44.5659 7.73864 44.6504 8.21922 44.8194 8.62358C44.9885 9.02794 45.2271 9.34115 45.5353 9.56321C45.8469 9.78527 46.2131 9.89631 46.6341 9.89631C46.9158 9.89631 47.171 9.84493 47.3997 9.74219C47.6317 9.63613 47.8256 9.48532 47.9814 9.28977C48.1404 9.09422 48.2515 8.8589 48.3145 8.58381H49.7612C49.7082 9.07765 49.5474 9.51847 49.2789 9.90625C49.0105 10.294 48.6509 10.599 48.2001 10.821C47.7527 11.0431 47.2273 11.1541 46.6241 11.1541ZM52.8374 6.46591V11H51.3509V0.818182H52.8175V4.60653H52.9119C53.0909 4.19555 53.3643 3.86908 53.7322 3.62713C54.1001 3.38518 54.5807 3.2642 55.174 3.2642C55.6977 3.2642 56.1551 3.37192 56.5462 3.58736C56.9406 3.80279 57.2455 4.12429 57.4609 4.55185C57.6797 4.97609 57.7891 5.50639 57.7891 6.14276V11H56.3026V6.32173C56.3026 5.7616 56.1584 5.32741 55.87 5.01918C55.5817 4.70762 55.1806 4.55185 54.6669 4.55185C54.3156 4.55185 54.0007 4.62642 53.7223 4.77557C53.4472 4.92472 53.2301 5.14347 53.071 5.43182C52.9152 5.71686 52.8374 6.06155 52.8374 6.46591ZM63.0639 11.1541C62.3116 11.1541 61.6636 10.9934 61.12 10.6719C60.5798 10.3471 60.1622 9.89134 59.8672 9.30469C59.5755 8.71473 59.4297 8.02367 59.4297 7.23153C59.4297 6.44934 59.5755 5.75994 59.8672 5.16335C60.1622 4.56676 60.5732 4.10109 61.1001 3.76633C61.6304 3.43158 62.2502 3.2642 62.9595 3.2642C63.3904 3.2642 63.808 3.33546 64.2124 3.47798C64.6167 3.6205 64.9796 3.84422 65.3011 4.14915C65.6226 4.45407 65.8762 4.85014 66.0618 5.33736C66.2474 5.82126 66.3402 6.40956 66.3402 7.10227V7.62926H60.2699V6.51562H64.8835C64.8835 6.12453 64.804 5.77817 64.6449 5.47656C64.4858 5.17164 64.2621 4.93134 63.9737 4.75568C63.6887 4.58002 63.3539 4.49219 62.9695 4.49219C62.5518 4.49219 62.1873 4.59493 61.8757 4.80043C61.5675 5.0026 61.3288 5.26776 61.1598 5.59588C60.9941 5.92069 60.9112 6.27367 60.9112 6.65483V7.52486C60.9112 8.03527 61.0007 8.46946 61.1797 8.82741C61.362 9.18537 61.6155 9.45881 61.9403 9.64773C62.2652 9.83333 62.6446 9.92614 63.0788 9.92614C63.3606 9.92614 63.6174 9.88636 63.8494 9.80682C64.0814 9.72396 64.282 9.60133 64.451 9.43892C64.62 9.27652 64.7493 9.07599 64.8388 8.83736L66.2457 9.09091C66.133 9.50521 65.9309 9.86813 65.6392 10.1797C65.3509 10.4879 64.9879 10.7282 64.5504 10.9006C64.1162 11.0696 63.6207 11.1541 63.0639 11.1541ZM71.2061 11.1541C70.467 11.1541 69.8307 10.9867 69.2971 10.652C68.7667 10.3139 68.3591 9.84825 68.074 9.25497C67.789 8.66169 67.6465 7.98224 67.6465 7.21662C67.6465 6.44105 67.7923 5.75663 68.084 5.16335C68.3757 4.56676 68.7866 4.10109 69.3169 3.76633C69.8472 3.43158 70.472 3.2642 71.1912 3.2642C71.7712 3.2642 72.2883 3.37192 72.7424 3.58736C73.1964 3.79948 73.5627 4.09777 73.8411 4.48224C74.1228 4.86671 74.2902 5.31581 74.3432 5.82955H72.8965C72.8169 5.47159 72.6346 5.16335 72.3496 4.90483C72.0679 4.64631 71.69 4.51705 71.2161 4.51705C70.8018 4.51705 70.4389 4.62642 70.1273 4.84517C69.8191 5.06061 69.5788 5.36884 69.4064 5.76989C69.2341 6.16761 69.1479 6.63826 69.1479 7.18182C69.1479 7.73864 69.2324 8.21922 69.4015 8.62358C69.5705 9.02794 69.8091 9.34115 70.1174 9.56321C70.4289 9.78527 70.7952 9.89631 71.2161 9.89631C71.4978 9.89631 71.753 9.84493 71.9817 9.74219C72.2137 9.63613 72.4076 9.48532 72.5634 9.28977C72.7225 9.09422 72.8335 8.8589 72.8965 8.58381H74.3432C74.2902 9.07765 74.1294 9.51847 73.861 9.90625C73.5925 10.294 73.2329 10.599 72.7821 10.821C72.3347 11.0431 71.8094 11.1541 71.2061 11.1541ZM77.3001 8.4098L77.2901 6.59517H77.5487L80.5913 3.36364H82.3711L78.9009 7.04261H78.6673L77.3001 8.4098ZM75.9329 11V0.818182H77.4194V11H75.9329ZM80.7553 11L78.021 7.37074L79.0451 6.33168L82.5799 11H80.7553Z" fill="black"/>
</svg>
