<svg width="86" height="14" viewBox="0 0 86 14" fill="none" xmlns="http://www.w3.org/2000/svg">
<path d="M4.83665 7.8331V3.36364H6.32812V11H4.86648V9.67756H4.78693C4.61127 10.0852 4.32955 10.425 3.94176 10.6967C3.55729 10.9652 3.07836 11.0994 2.50497 11.0994C2.01444 11.0994 1.58026 10.9917 1.20241 10.7763C0.827888 10.5575 0.532907 10.2344 0.317472 9.80682C0.10535 9.37926 -0.000710189 8.85062 -0.000710189 8.22088V3.36364H1.4858V8.0419C1.4858 8.56226 1.62997 8.97656 1.91832 9.2848C2.20668 9.59304 2.5812 9.74716 3.0419 9.74716C3.32031 9.74716 3.59706 9.67756 3.87216 9.53835C4.15057 9.39915 4.38092 9.18868 4.56321 8.90696C4.74882 8.62524 4.83996 8.26728 4.83665 7.8331ZM14.0478 5.22798L12.7005 5.46662C12.6441 5.29427 12.5546 5.13021 12.432 4.97443C12.3127 4.81865 12.1503 4.69105 11.9448 4.59162C11.7393 4.49219 11.4824 4.44247 11.1742 4.44247C10.7533 4.44247 10.4019 4.53693 10.1202 4.72585C9.83848 4.91146 9.69762 5.15175 9.69762 5.44673C9.69762 5.70194 9.79208 5.90743 9.981 6.06321C10.1699 6.21899 10.4748 6.34659 10.8958 6.44602L12.1088 6.72443C12.8115 6.88684 13.3352 7.13707 13.6799 7.47514C14.0246 7.81321 14.1969 8.25237 14.1969 8.79261C14.1969 9.25 14.0643 9.65767 13.7992 10.0156C13.5373 10.3703 13.1711 10.6487 12.7005 10.8509C12.2331 11.053 11.6912 11.1541 11.0748 11.1541C10.2196 11.1541 9.52196 10.9718 8.98171 10.6072C8.44147 10.2393 8.11003 9.71733 7.98739 9.04119L9.42418 8.82244C9.51367 9.19697 9.69762 9.48035 9.97603 9.67259C10.2544 9.86151 10.6174 9.95597 11.0648 9.95597C11.552 9.95597 11.9415 9.85488 12.2331 9.6527C12.5248 9.44721 12.6706 9.19697 12.6706 8.90199C12.6706 8.66335 12.5811 8.46283 12.4022 8.30043C12.2265 8.13802 11.9564 8.01539 11.5918 7.93253L10.2992 7.64915C9.58659 7.48674 9.0596 7.22822 8.71822 6.87358C8.38015 6.51894 8.21112 6.06984 8.21112 5.52628C8.21112 5.07552 8.33706 4.68111 8.58896 4.34304C8.84085 4.00497 9.18886 3.74148 9.63299 3.55256C10.0771 3.36032 10.5859 3.2642 11.1593 3.2642C11.9846 3.2642 12.6342 3.44318 13.1081 3.80114C13.5821 4.15578 13.8953 4.63139 14.0478 5.22798ZM19.1225 11.1541C18.3701 11.1541 17.7222 10.9934 17.1786 10.6719C16.6384 10.3471 16.2208 9.89134 15.9258 9.30469C15.6341 8.71473 15.4883 8.02367 15.4883 7.23153C15.4883 6.44934 15.6341 5.75994 15.9258 5.16335C16.2208 4.56676 16.6317 4.10109 17.1587 3.76633C17.689 3.43158 18.3088 3.2642 19.0181 3.2642C19.449 3.2642 19.8666 3.33546 20.271 3.47798C20.6753 3.6205 21.0382 3.84422 21.3597 4.14915C21.6812 4.45407 21.9348 4.85014 22.1204 5.33736C22.306 5.82126 22.3988 6.40956 22.3988 7.10227V7.62926H16.3285V6.51562H20.9421C20.9421 6.12453 20.8626 5.77817 20.7035 5.47656C20.5444 5.17164 20.3207 4.93134 20.0323 4.75568C19.7473 4.58002 19.4125 4.49219 19.0281 4.49219C18.6104 4.49219 18.2459 4.59493 17.9343 4.80043C17.6261 5.0026 17.3874 5.26776 17.2184 5.59588C17.0527 5.92069 16.9698 6.27367 16.9698 6.65483V7.52486C16.9698 8.03527 17.0593 8.46946 17.2383 8.82741C17.4206 9.18537 17.6741 9.45881 17.9989 9.64773C18.3237 9.83333 18.7032 9.92614 19.1374 9.92614C19.4192 9.92614 19.676 9.88636 19.908 9.80682C20.14 9.72396 20.3406 9.60133 20.5096 9.43892C20.6786 9.27652 20.8079 9.07599 20.8974 8.83736L22.3043 9.09091C22.1916 9.50521 21.9895 9.86813 21.6978 10.1797C21.4094 10.4879 21.0465 10.7282 20.609 10.9006C20.1748 11.0696 19.6793 11.1541 19.1225 11.1541ZM24.0481 11V3.36364H25.4849V4.5767H25.5645C25.7037 4.16572 25.9489 3.84257 26.3002 3.60724C26.6549 3.36861 27.0559 3.24929 27.5034 3.24929C27.5962 3.24929 27.7056 3.2526 27.8315 3.25923C27.9608 3.26586 28.0618 3.27415 28.1348 3.28409V4.70597C28.0751 4.68939 27.969 4.67116 27.8166 4.65128C27.6641 4.62808 27.5117 4.61648 27.3592 4.61648C27.0079 4.61648 26.6947 4.69105 26.4196 4.8402C26.1478 4.98603 25.9324 5.18987 25.7733 5.4517C25.6142 5.71023 25.5346 6.00521 25.5346 6.33665V11H24.0481ZM33.4693 6.05327V7.34091H28.9551V6.05327H33.4693ZM35.4505 13.8636V3.36364H36.9022V4.60156H37.0265C37.1126 4.44247 37.2369 4.25852 37.3993 4.04972C37.5617 3.84091 37.7871 3.65862 38.0755 3.50284C38.3638 3.34375 38.745 3.2642 39.2189 3.2642C39.8354 3.2642 40.3856 3.41998 40.8695 3.73153C41.3534 4.04309 41.7329 4.49219 42.008 5.07884C42.2864 5.66548 42.4256 6.37145 42.4256 7.19673C42.4256 8.02202 42.2881 8.72964 42.013 9.3196C41.7379 9.90625 41.36 10.3587 40.8794 10.6768C40.3989 10.9917 39.8503 11.1491 39.2338 11.1491C38.7698 11.1491 38.3903 11.0713 38.0953 10.9155C37.8037 10.7597 37.575 10.5774 37.4093 10.3686C37.2435 10.1598 37.1159 9.9742 37.0265 9.81179H36.937V13.8636H35.4505ZM36.9071 7.18182C36.9071 7.71875 36.985 8.18939 37.1408 8.59375C37.2966 8.99811 37.522 9.31463 37.8169 9.54332C38.1119 9.7687 38.4732 9.88139 38.9007 9.88139C39.3449 9.88139 39.7161 9.76373 40.0144 9.52841C40.3127 9.28977 40.5381 8.96662 40.6905 8.55895C40.8463 8.15128 40.9242 7.69223 40.9242 7.18182C40.9242 6.67803 40.848 6.22562 40.6955 5.82457C40.5463 5.42353 40.321 5.10701 40.0194 4.875C39.7211 4.64299 39.3482 4.52699 38.9007 4.52699C38.4699 4.52699 38.1053 4.63802 37.807 4.86009C37.512 5.08215 37.2883 5.39205 37.1358 5.78977C36.9834 6.1875 36.9071 6.65151 36.9071 7.18182ZM45.5776 0.818182V11H44.0911V0.818182H45.5776ZM52.4148 7.8331V3.36364H53.9062V11H52.4446V9.67756H52.3651C52.1894 10.0852 51.9077 10.425 51.5199 10.6967C51.1354 10.9652 50.6565 11.0994 50.0831 11.0994C49.5926 11.0994 49.1584 10.9917 48.7805 10.7763C48.406 10.5575 48.111 10.2344 47.8956 9.80682C47.6835 9.37926 47.5774 8.85062 47.5774 8.22088V3.36364H49.0639V8.0419C49.0639 8.56226 49.2081 8.97656 49.4964 9.2848C49.7848 9.59304 50.1593 9.74716 50.62 9.74716C50.8984 9.74716 51.1752 9.67756 51.4503 9.53835C51.7287 9.39915 51.959 9.18868 52.1413 8.90696C52.3269 8.62524 52.4181 8.26728 52.4148 7.8331ZM61.6259 5.22798L60.2786 5.46662C60.2222 5.29427 60.1328 5.13021 60.0101 4.97443C59.8908 4.81865 59.7284 4.69105 59.5229 4.59162C59.3174 4.49219 59.0605 4.44247 58.7523 4.44247C58.3314 4.44247 57.9801 4.53693 57.6983 4.72585C57.4166 4.91146 57.2757 5.15175 57.2757 5.44673C57.2757 5.70194 57.3702 5.90743 57.5591 6.06321C57.748 6.21899 58.053 6.34659 58.4739 6.44602L59.687 6.72443C60.3896 6.88684 60.9133 7.13707 61.258 7.47514C61.6027 7.81321 61.775 8.25237 61.775 8.79261C61.775 9.25 61.6425 9.65767 61.3773 10.0156C61.1155 10.3703 60.7492 10.6487 60.2786 10.8509C59.8113 11.053 59.2694 11.1541 58.6529 11.1541C57.7978 11.1541 57.1001 10.9718 56.5598 10.6072C56.0196 10.2393 55.6882 9.71733 55.5655 9.04119L57.0023 8.82244C57.0918 9.19697 57.2757 9.48035 57.5542 9.67259C57.8326 9.86151 58.1955 9.95597 58.6429 9.95597C59.1301 9.95597 59.5196 9.85488 59.8113 9.6527C60.1029 9.44721 60.2488 9.19697 60.2488 8.90199C60.2488 8.66335 60.1593 8.46283 59.9803 8.30043C59.8046 8.13802 59.5345 8.01539 59.1699 7.93253L57.8773 7.64915C57.1647 7.48674 56.6377 7.22822 56.2963 6.87358C55.9583 6.51894 55.7892 6.06984 55.7892 5.52628C55.7892 5.07552 55.9152 4.68111 56.1671 4.34304C56.419 4.00497 56.767 3.74148 57.2111 3.55256C57.6552 3.36032 58.164 3.2642 58.7374 3.2642C59.5627 3.2642 60.2123 3.44318 60.6863 3.80114C61.1602 4.15578 61.4734 4.63139 61.6259 5.22798ZM67.9087 6.05327V7.34091H63.3945V6.05327H67.9087ZM73.4148 11.169C72.6293 11.1657 71.9581 10.9586 71.4013 10.5476C70.8445 10.1366 70.4186 9.53835 70.1236 8.75284C69.8286 7.96733 69.6811 7.02107 69.6811 5.91406C69.6811 4.81037 69.8286 3.86742 70.1236 3.08523C70.4219 2.30303 70.8494 1.70644 71.4062 1.29545C71.9664 0.884469 72.6359 0.678977 73.4148 0.678977C74.1937 0.678977 74.8615 0.886126 75.4183 1.30043C75.9751 1.71141 76.401 2.308 76.696 3.0902C76.9943 3.86908 77.1435 4.81037 77.1435 5.91406C77.1435 7.02438 76.996 7.9723 76.701 8.75781C76.406 9.54001 75.9801 10.1383 75.4233 10.5526C74.8665 10.9635 74.197 11.169 73.4148 11.169ZM73.4148 9.84162C74.1042 9.84162 74.6428 9.50521 75.0305 8.83239C75.4216 8.15956 75.6172 7.18679 75.6172 5.91406C75.6172 5.06889 75.5277 4.35464 75.3487 3.77131C75.1731 3.18466 74.9195 2.74053 74.5881 2.43892C74.2599 2.134 73.8688 1.98153 73.4148 1.98153C72.7287 1.98153 72.1901 2.3196 71.799 2.99574C71.4079 3.67187 71.2107 4.64465 71.2074 5.91406C71.2074 6.76255 71.2952 7.48011 71.4709 8.06676C71.6499 8.65009 71.9034 9.09257 72.2315 9.39418C72.5597 9.69247 72.9541 9.84162 73.4148 9.84162ZM78.9071 11V9.88636L82.3525 6.31676C82.7203 5.92898 83.0236 5.58925 83.2623 5.29759C83.5042 5.0026 83.6848 4.72254 83.8042 4.45739C83.9235 4.19223 83.9831 3.91051 83.9831 3.61222C83.9831 3.27415 83.9036 2.98248 83.7445 2.73722C83.5854 2.48864 83.3683 2.29806 83.0932 2.16548C82.8181 2.02959 82.5082 1.96165 82.1635 1.96165C81.7989 1.96165 81.4808 2.03622 81.209 2.18537C80.9372 2.33452 80.7284 2.54498 80.5826 2.81676C80.4367 3.08854 80.3638 3.40672 80.3638 3.77131H78.8972C78.8972 3.15151 79.0397 2.60961 79.3248 2.1456C79.6098 1.68158 80.0009 1.32197 80.498 1.06676C80.9952 0.808238 81.5603 0.678977 82.1934 0.678977C82.833 0.678977 83.3965 0.806581 83.8837 1.06179C84.3742 1.31368 84.757 1.65838 85.0321 2.09588C85.3072 2.53007 85.4448 3.0206 85.4448 3.56747C85.4448 3.94531 85.3735 4.31487 85.231 4.67614C85.0918 5.0374 84.8482 5.4401 84.5002 5.88423C84.1522 6.32505 83.6683 6.86032 83.0485 7.49006L81.025 9.60795V9.68253H85.6088V11H78.9071Z" fill="black"/>
</svg>
