<svg width="74" height="15" viewBox="0 0 74 15" fill="none" xmlns="http://www.w3.org/2000/svg">
<path d="M4.83665 7.8331V3.36364H6.32812V11H4.86648V9.67756H4.78693C4.61127 10.0852 4.32955 10.425 3.94176 10.6967C3.55729 10.9652 3.07836 11.0994 2.50497 11.0994C2.01444 11.0994 1.58026 10.9917 1.20241 10.7763C0.827888 10.5575 0.532907 10.2344 0.317472 9.80682C0.10535 9.37926 -0.000710189 8.85062 -0.000710189 8.22088V3.36364H1.4858V8.0419C1.4858 8.56226 1.62997 8.97656 1.91832 9.2848C2.20668 9.59304 2.5812 9.74716 3.0419 9.74716C3.32031 9.74716 3.59706 9.67756 3.87216 9.53835C4.15057 9.39915 4.38092 9.18868 4.56321 8.90696C4.74882 8.62524 4.83996 8.26728 4.83665 7.8331ZM14.0478 5.22798L12.7005 5.46662C12.6441 5.29427 12.5546 5.13021 12.432 4.97443C12.3127 4.81865 12.1503 4.69105 11.9448 4.59162C11.7393 4.49219 11.4824 4.44247 11.1742 4.44247C10.7533 4.44247 10.4019 4.53693 10.1202 4.72585C9.83848 4.91146 9.69762 5.15175 9.69762 5.44673C9.69762 5.70194 9.79208 5.90743 9.981 6.06321C10.1699 6.21899 10.4748 6.34659 10.8958 6.44602L12.1088 6.72443C12.8115 6.88684 13.3352 7.13707 13.6799 7.47514C14.0246 7.81321 14.1969 8.25237 14.1969 8.79261C14.1969 9.25 14.0643 9.65767 13.7992 10.0156C13.5373 10.3703 13.1711 10.6487 12.7005 10.8509C12.2331 11.053 11.6912 11.1541 11.0748 11.1541C10.2196 11.1541 9.52196 10.9718 8.98171 10.6072C8.44147 10.2393 8.11003 9.71733 7.98739 9.04119L9.42418 8.82244C9.51367 9.19697 9.69762 9.48035 9.97603 9.67259C10.2544 9.86151 10.6174 9.95597 11.0648 9.95597C11.552 9.95597 11.9415 9.85488 12.2331 9.6527C12.5248 9.44721 12.6706 9.19697 12.6706 8.90199C12.6706 8.66335 12.5811 8.46283 12.4022 8.30043C12.2265 8.13802 11.9564 8.01539 11.5918 7.93253L10.2992 7.64915C9.58659 7.48674 9.0596 7.22822 8.71822 6.87358C8.38015 6.51894 8.21112 6.06984 8.21112 5.52628C8.21112 5.07552 8.33706 4.68111 8.58896 4.34304C8.84085 4.00497 9.18886 3.74148 9.63299 3.55256C10.0771 3.36032 10.5859 3.2642 11.1593 3.2642C11.9846 3.2642 12.6342 3.44318 13.1081 3.80114C13.5821 4.15578 13.8953 4.63139 14.0478 5.22798ZM19.1225 11.1541C18.3701 11.1541 17.7222 10.9934 17.1786 10.6719C16.6384 10.3471 16.2208 9.89134 15.9258 9.30469C15.6341 8.71473 15.4883 8.02367 15.4883 7.23153C15.4883 6.44934 15.6341 5.75994 15.9258 5.16335C16.2208 4.56676 16.6317 4.10109 17.1587 3.76633C17.689 3.43158 18.3088 3.2642 19.0181 3.2642C19.449 3.2642 19.8666 3.33546 20.271 3.47798C20.6753 3.6205 21.0382 3.84422 21.3597 4.14915C21.6812 4.45407 21.9348 4.85014 22.1204 5.33736C22.306 5.82126 22.3988 6.40956 22.3988 7.10227V7.62926H16.3285V6.51562H20.9421C20.9421 6.12453 20.8626 5.77817 20.7035 5.47656C20.5444 5.17164 20.3207 4.93134 20.0323 4.75568C19.7473 4.58002 19.4125 4.49219 19.0281 4.49219C18.6104 4.49219 18.2459 4.59493 17.9343 4.80043C17.6261 5.0026 17.3874 5.26776 17.2184 5.59588C17.0527 5.92069 16.9698 6.27367 16.9698 6.65483V7.52486C16.9698 8.03527 17.0593 8.46946 17.2383 8.82741C17.4206 9.18537 17.6741 9.45881 17.9989 9.64773C18.3237 9.83333 18.7032 9.92614 19.1374 9.92614C19.4192 9.92614 19.676 9.88636 19.908 9.80682C20.14 9.72396 20.3406 9.60133 20.5096 9.43892C20.6786 9.27652 20.8079 9.07599 20.8974 8.83736L22.3043 9.09091C22.1916 9.50521 21.9895 9.86813 21.6978 10.1797C21.4094 10.4879 21.0465 10.7282 20.609 10.9006C20.1748 11.0696 19.6793 11.1541 19.1225 11.1541ZM24.0481 11V3.36364H25.4849V4.5767H25.5645C25.7037 4.16572 25.9489 3.84257 26.3002 3.60724C26.6549 3.36861 27.0559 3.24929 27.5034 3.24929C27.5962 3.24929 27.7056 3.2526 27.8315 3.25923C27.9608 3.26586 28.0618 3.27415 28.1348 3.28409V4.70597C28.0751 4.68939 27.969 4.67116 27.8166 4.65128C27.6641 4.62808 27.5117 4.61648 27.3592 4.61648C27.0079 4.61648 26.6947 4.69105 26.4196 4.8402C26.1478 4.98603 25.9324 5.18987 25.7733 5.4517C25.6142 5.71023 25.5346 6.00521 25.5346 6.33665V11H24.0481ZM35.1435 5.22798L33.7962 5.46662C33.7398 5.29427 33.6503 5.13021 33.5277 4.97443C33.4084 4.81865 33.246 4.69105 33.0405 4.59162C32.835 4.49219 32.5781 4.44247 32.2699 4.44247C31.849 4.44247 31.4976 4.53693 31.2159 4.72585C30.9342 4.91146 30.7933 5.15175 30.7933 5.44673C30.7933 5.70194 30.8878 5.90743 31.0767 6.06321C31.2656 6.21899 31.5705 6.34659 31.9915 6.44602L33.2045 6.72443C33.9072 6.88684 34.4309 7.13707 34.7756 7.47514C35.1203 7.81321 35.2926 8.25237 35.2926 8.79261C35.2926 9.25 35.16 9.65767 34.8949 10.0156C34.633 10.3703 34.2668 10.6487 33.7962 10.8509C33.3288 11.053 32.7869 11.1541 32.1705 11.1541C31.3153 11.1541 30.6177 10.9718 30.0774 10.6072C29.5372 10.2393 29.2057 9.71733 29.0831 9.04119L30.5199 8.82244C30.6094 9.19697 30.7933 9.48035 31.0717 9.67259C31.3501 9.86151 31.7131 9.95597 32.1605 9.95597C32.6477 9.95597 33.0372 9.85488 33.3288 9.6527C33.6205 9.44721 33.7663 9.19697 33.7663 8.90199C33.7663 8.66335 33.6768 8.46283 33.4979 8.30043C33.3222 8.13802 33.0521 8.01539 32.6875 7.93253L31.3949 7.64915C30.6823 7.48674 30.1553 7.22822 29.8139 6.87358C29.4759 6.51894 29.3068 6.06984 29.3068 5.52628C29.3068 5.07552 29.4328 4.68111 29.6847 4.34304C29.9366 4.00497 30.2846 3.74148 30.7287 3.55256C31.1728 3.36032 31.6816 3.2642 32.255 3.2642C33.0803 3.2642 33.7299 3.44318 34.2038 3.80114C34.6778 4.15578 34.991 4.63139 35.1435 5.22798ZM41.4263 6.05327V7.34091H36.9121V6.05327H41.4263ZM43.4075 11V3.36364H44.8443V4.5767H44.9238C45.063 4.16572 45.3083 3.84257 45.6596 3.60724C46.0143 3.36861 46.4153 3.24929 46.8627 3.24929C46.9556 3.24929 47.0649 3.2526 47.1909 3.25923C47.3201 3.26586 47.4212 3.27415 47.4941 3.28409V4.70597C47.4345 4.68939 47.3284 4.67116 47.176 4.65128C47.0235 4.62808 46.871 4.61648 46.7186 4.61648C46.3672 4.61648 46.054 4.69105 45.7789 4.8402C45.5072 4.98603 45.2917 5.18987 45.1326 5.4517C44.9735 5.71023 44.894 6.00521 44.894 6.33665V11H43.4075ZM48.7805 11V3.36364H50.267V11H48.7805ZM49.5312 2.18537C49.2727 2.18537 49.0507 2.09919 48.8651 1.92685C48.6828 1.75118 48.5916 1.54238 48.5916 1.30043C48.5916 1.05516 48.6828 0.846354 48.8651 0.674005C49.0507 0.498342 49.2727 0.410511 49.5312 0.410511C49.7898 0.410511 50.0102 0.498342 50.1925 0.674005C50.3781 0.846354 50.4709 1.05516 50.4709 1.30043C50.4709 1.54238 50.3781 1.75118 50.1925 1.92685C50.0102 2.09919 49.7898 2.18537 49.5312 2.18537ZM55.4686 14.0227C54.862 14.0227 54.34 13.9432 53.9025 13.7841C53.4683 13.625 53.1137 13.4145 52.8386 13.1527C52.5635 12.8909 52.358 12.6042 52.2221 12.2926L53.4998 11.7656C53.5893 11.9115 53.7086 12.0656 53.8578 12.228C54.0102 12.3937 54.2157 12.5346 54.4743 12.6506C54.7361 12.7666 55.0725 12.8246 55.4835 12.8246C56.0469 12.8246 56.5126 12.687 56.8805 12.4119C57.2484 12.1402 57.4324 11.706 57.4324 11.1094V9.60795H57.3379C57.2484 9.77036 57.1191 9.95099 56.9501 10.1499C56.7844 10.3487 56.5557 10.5211 56.264 10.6669C55.9724 10.8127 55.5929 10.8857 55.1255 10.8857C54.5223 10.8857 53.9788 10.7448 53.4949 10.4631C53.0143 10.178 52.6331 9.75876 52.3514 9.20526C52.073 8.64844 51.9338 7.96401 51.9338 7.15199C51.9338 6.33996 52.0713 5.64394 52.3464 5.06392C52.6248 4.4839 53.006 4.03977 53.4899 3.73153C53.9738 3.41998 54.5223 3.2642 55.1355 3.2642C55.6094 3.2642 55.9922 3.34375 56.2839 3.50284C56.5756 3.65862 56.8026 3.84091 56.965 4.04972C57.1307 4.25852 57.2583 4.44247 57.3478 4.60156H57.4572V3.36364H58.9139V11.169C58.9139 11.8253 58.7614 12.3639 58.4565 12.7848C58.1516 13.2057 57.7389 13.5173 57.2186 13.7195C56.7015 13.9216 56.1182 14.0227 55.4686 14.0227ZM55.4537 9.6527C55.8812 9.6527 56.2425 9.55327 56.5375 9.3544C56.8358 9.15223 57.0611 8.86387 57.2136 8.48935C57.3694 8.11151 57.4473 7.65909 57.4473 7.1321C57.4473 6.61837 57.371 6.16596 57.2186 5.77486C57.0661 5.38376 56.8424 5.07884 56.5474 4.86009C56.2524 4.63802 55.8878 4.52699 55.4537 4.52699C55.0062 4.52699 54.6333 4.64299 54.335 4.875C54.0368 5.10369 53.8114 5.41525 53.6589 5.80966C53.5098 6.20407 53.4352 6.64489 53.4352 7.1321C53.4352 7.63258 53.5114 8.07173 53.6639 8.44957C53.8163 8.82741 54.0417 9.1224 54.34 9.33452C54.6416 9.54664 55.0128 9.6527 55.4537 9.6527ZM62.394 6.46591V11H60.9075V0.818182H62.3741V4.60653H62.4686C62.6475 4.19555 62.921 3.86908 63.2889 3.62713C63.6568 3.38518 64.1374 3.2642 64.7306 3.2642C65.2543 3.2642 65.7117 3.37192 66.1028 3.58736C66.4972 3.80279 66.8021 4.12429 67.0176 4.55185C67.2363 4.97609 67.3457 5.50639 67.3457 6.14276V11H65.8592V6.32173C65.8592 5.7616 65.715 5.32741 65.4267 5.01918C65.1383 4.70762 64.7373 4.55185 64.2235 4.55185C63.8722 4.55185 63.5574 4.62642 63.2789 4.77557C63.0038 4.92472 62.7868 5.14347 62.6277 5.43182C62.4719 5.71686 62.394 6.06155 62.394 6.46591ZM72.894 3.36364V4.55682H68.7228V3.36364H72.894ZM69.8414 1.53409H71.3279V8.75781C71.3279 9.04616 71.371 9.26326 71.4572 9.40909C71.5434 9.55161 71.6544 9.64938 71.7903 9.70241C71.9295 9.75213 72.0803 9.77699 72.2427 9.77699C72.362 9.77699 72.4664 9.7687 72.5559 9.75213C72.6454 9.73556 72.715 9.7223 72.7647 9.71236L73.0332 10.9403C72.947 10.9735 72.8244 11.0066 72.6653 11.0398C72.5062 11.0762 72.3074 11.0961 72.0687 11.0994C71.6776 11.1061 71.313 11.0365 70.975 10.8906C70.6369 10.7448 70.3635 10.5194 70.1547 10.2145C69.9458 9.90956 69.8414 9.52675 69.8414 9.06605V1.53409Z" fill="black"/>
</svg>
