<svg width="73" height="12" viewBox="0 0 73 12" fill="none" xmlns="http://www.w3.org/2000/svg">
<path d="M4.63352 3.36364V4.55682H0.318182V3.36364H4.63352ZM1.50142 11V2.47869C1.50142 2.00142 1.60582 1.60535 1.81463 1.29048C2.02344 0.972301 2.30019 0.735322 2.64489 0.579545C2.98958 0.420454 3.36411 0.340908 3.76847 0.340908C4.06676 0.340908 4.32197 0.365767 4.53409 0.415483C4.74621 0.461884 4.90365 0.504971 5.00639 0.544744L4.65838 1.74787C4.58878 1.72798 4.49929 1.70478 4.38991 1.67827C4.28054 1.64844 4.14796 1.63352 3.99219 1.63352C3.63092 1.63352 3.3724 1.72301 3.21662 1.90199C3.06416 2.08097 2.98793 2.33949 2.98793 2.67756V11H1.50142ZM8.15714 11.169C7.67324 11.169 7.23574 11.0795 6.84464 10.9006C6.45354 10.7183 6.14364 10.4548 5.91495 10.1101C5.68957 9.76539 5.57688 9.3428 5.57688 8.84233C5.57688 8.41146 5.65974 8.05682 5.82546 7.77841C5.99118 7.5 6.2149 7.27959 6.49663 7.11719C6.77835 6.95478 7.09322 6.83215 7.44123 6.74929C7.78924 6.66643 8.14388 6.60346 8.50515 6.56037C8.96254 6.50734 9.33375 6.46425 9.61879 6.43111C9.90382 6.39465 10.111 6.33665 10.2402 6.2571C10.3695 6.17756 10.4341 6.0483 10.4341 5.86932V5.83452C10.4341 5.40033 10.3115 5.06392 10.0662 4.82528C9.82428 4.58665 9.46301 4.46733 8.98242 4.46733C8.48195 4.46733 8.08754 4.57836 7.79918 4.80043C7.51415 5.01918 7.31694 5.26278 7.20756 5.53125L5.81055 5.21307C5.97627 4.74905 6.21822 4.37453 6.5364 4.08949C6.8579 3.80114 7.22745 3.59233 7.64506 3.46307C8.06268 3.33049 8.50183 3.2642 8.96254 3.2642C9.26746 3.2642 9.59061 3.30066 9.932 3.37358C10.2767 3.44318 10.5982 3.57244 10.8965 3.76136C11.1981 3.95028 11.445 4.22041 11.6373 4.57173C11.8295 4.91974 11.9256 5.37216 11.9256 5.92898V11H10.4739V9.95597H10.4142C10.3181 10.1482 10.1739 10.3371 9.98171 10.5227C9.78948 10.7083 9.54255 10.8625 9.24094 10.9851C8.93933 11.1077 8.57807 11.169 8.15714 11.169ZM8.48029 9.97585C8.89128 9.97585 9.2426 9.89465 9.53427 9.73224C9.82925 9.56984 10.053 9.35772 10.2054 9.09588C10.3612 8.83073 10.4391 8.54735 10.4391 8.24574V7.26136C10.3861 7.31439 10.2833 7.36411 10.1309 7.41051C9.98171 7.4536 9.81102 7.49171 9.61879 7.52486C9.42655 7.55469 9.23929 7.58286 9.057 7.60938C8.8747 7.63258 8.72224 7.65246 8.59961 7.66903C8.31126 7.70549 8.04776 7.76681 7.80913 7.85298C7.5738 7.93916 7.38488 8.06345 7.24237 8.22585C7.10316 8.38494 7.03356 8.59706 7.03356 8.86222C7.03356 9.23011 7.16945 9.50852 7.44123 9.69744C7.71301 9.88305 8.05936 9.97585 8.48029 9.97585ZM17.1222 11.1541C16.383 11.1541 15.7467 10.9867 15.2131 10.652C14.6828 10.3139 14.2751 9.84825 13.9901 9.25497C13.705 8.66169 13.5625 7.98224 13.5625 7.21662C13.5625 6.44105 13.7083 5.75663 14 5.16335C14.2917 4.56676 14.7027 4.10109 15.233 3.76633C15.7633 3.43158 16.388 3.2642 17.1072 3.2642C17.6873 3.2642 18.2043 3.37192 18.6584 3.58736C19.1125 3.79948 19.4787 4.09777 19.7571 4.48224C20.0388 4.86671 20.2062 5.31581 20.2592 5.82955H18.8125C18.733 5.47159 18.5507 5.16335 18.2656 4.90483C17.9839 4.64631 17.6061 4.51705 17.1321 4.51705C16.7178 4.51705 16.3549 4.62642 16.0433 4.84517C15.7351 5.06061 15.4948 5.36884 15.3224 5.76989C15.1501 6.16761 15.0639 6.63826 15.0639 7.18182C15.0639 7.73864 15.1484 8.21922 15.3175 8.62358C15.4865 9.02794 15.7251 9.34115 16.0334 9.56321C16.3449 9.78527 16.7112 9.89631 17.1321 9.89631C17.4138 9.89631 17.669 9.84493 17.8977 9.74219C18.1297 9.63613 18.3236 9.48532 18.4794 9.28977C18.6385 9.09422 18.7495 8.8589 18.8125 8.58381H20.2592C20.2062 9.07765 20.0455 9.51847 19.777 9.90625C19.5085 10.294 19.1489 10.599 18.6982 10.821C18.2507 11.0431 17.7254 11.1541 17.1222 11.1541ZM25.1401 11.1541C24.3877 11.1541 23.7398 10.9934 23.1962 10.6719C22.656 10.3471 22.2383 9.89134 21.9434 9.30469C21.6517 8.71473 21.5059 8.02367 21.5059 7.23153C21.5059 6.44934 21.6517 5.75994 21.9434 5.16335C22.2383 4.56676 22.6493 4.10109 23.1763 3.76633C23.7066 3.43158 24.3264 3.2642 25.0357 3.2642C25.4666 3.2642 25.8842 3.33546 26.2885 3.47798C26.6929 3.6205 27.0558 3.84422 27.3773 4.14915C27.6988 4.45407 27.9524 4.85014 28.138 5.33736C28.3236 5.82126 28.4164 6.40956 28.4164 7.10227V7.62926H22.3461V6.51562H26.9597C26.9597 6.12453 26.8801 5.77817 26.7211 5.47656C26.562 5.17164 26.3382 4.93134 26.0499 4.75568C25.7649 4.58002 25.4301 4.49219 25.0456 4.49219C24.628 4.49219 24.2634 4.59493 23.9519 4.80043C23.6436 5.0026 23.405 5.26776 23.236 5.59588C23.0703 5.92069 22.9874 6.27367 22.9874 6.65483V7.52486C22.9874 8.03527 23.0769 8.46946 23.2559 8.82741C23.4382 9.18537 23.6917 9.45881 24.0165 9.64773C24.3413 9.83333 24.7208 9.92614 25.155 9.92614C25.4367 9.92614 25.6936 9.88636 25.9256 9.80682C26.1576 9.72396 26.3581 9.60133 26.5272 9.43892C26.6962 9.27652 26.8255 9.07599 26.915 8.83736L28.3219 9.09091C28.2092 9.50521 28.007 9.86813 27.7154 10.1797C27.427 10.4879 27.0641 10.7282 26.6266 10.9006C26.1924 11.0696 25.6969 11.1541 25.1401 11.1541ZM34.565 6.05327V7.34091H30.0508V6.05327H34.565ZM40.1804 3.36364V4.55682H35.8651V3.36364H40.1804ZM37.0483 11V2.47869C37.0483 2.00142 37.1527 1.60535 37.3615 1.29048C37.5703 0.972301 37.8471 0.735322 38.1918 0.579545C38.5365 0.420454 38.911 0.340908 39.3153 0.340908C39.6136 0.340908 39.8688 0.365767 40.081 0.415483C40.2931 0.461884 40.4505 0.504971 40.5533 0.544744L40.2053 1.74787C40.1357 1.72798 40.0462 1.70478 39.9368 1.67827C39.8274 1.64844 39.6948 1.63352 39.5391 1.63352C39.1778 1.63352 38.9193 1.72301 38.7635 1.90199C38.611 2.08097 38.5348 2.33949 38.5348 2.67756V11H37.0483ZM41.7141 11V3.36364H43.1509V4.5767H43.2305C43.3697 4.16572 43.6149 3.84257 43.9663 3.60724C44.3209 3.36861 44.7219 3.24929 45.1694 3.24929C45.2622 3.24929 45.3716 3.2526 45.4975 3.25923C45.6268 3.26586 45.7279 3.27415 45.8008 3.28409V4.70597C45.7411 4.68939 45.6351 4.67116 45.4826 4.65128C45.3301 4.62808 45.1777 4.61648 45.0252 4.61648C44.6739 4.61648 44.3607 4.69105 44.0856 4.8402C43.8138 4.98603 43.5984 5.18987 43.4393 5.4517C43.2802 5.71023 43.2006 6.00521 43.2006 6.33665V11H41.7141ZM50.0304 11.1541C49.3145 11.1541 48.6897 10.9901 48.1561 10.6619C47.6225 10.3338 47.2082 9.87476 46.9132 9.2848C46.6182 8.69484 46.4707 8.00544 46.4707 7.21662C46.4707 6.42448 46.6182 5.73177 46.9132 5.13849C47.2082 4.54522 47.6225 4.08452 48.1561 3.75639C48.6897 3.42827 49.3145 3.2642 50.0304 3.2642C50.7463 3.2642 51.371 3.42827 51.9047 3.75639C52.4383 4.08452 52.8526 4.54522 53.1475 5.13849C53.4425 5.73177 53.59 6.42448 53.59 7.21662C53.59 8.00544 53.4425 8.69484 53.1475 9.2848C52.8526 9.87476 52.4383 10.3338 51.9047 10.6619C51.371 10.9901 50.7463 11.1541 50.0304 11.1541ZM50.0353 9.90625C50.4993 9.90625 50.8838 9.78362 51.1887 9.53835C51.4937 9.29309 51.719 8.96662 51.8649 8.55895C52.014 8.15128 52.0886 7.70218 52.0886 7.21165C52.0886 6.72443 52.014 6.27699 51.8649 5.86932C51.719 5.45833 51.4937 5.12855 51.1887 4.87997C50.8838 4.63139 50.4993 4.5071 50.0353 4.5071C49.568 4.5071 49.1802 4.63139 48.872 4.87997C48.5671 5.12855 48.34 5.45833 48.1909 5.86932C48.045 6.27699 47.9721 6.72443 47.9721 7.21165C47.9721 7.70218 48.045 8.15128 48.1909 8.55895C48.34 8.96662 48.5671 9.29309 48.872 9.53835C49.1802 9.78362 49.568 9.90625 50.0353 9.90625ZM56.6724 11L54.4252 3.36364H55.9615L57.4579 8.97159H57.5325L59.0339 3.36364H60.5701L62.0616 8.94673H62.1362L63.6227 3.36364H65.1589L62.9167 11H61.4004L59.8493 5.48651H59.7349L58.1838 11H56.6724ZM68.0561 6.46591V11H66.5696V3.36364H67.9964V4.60653H68.0909C68.2666 4.20218 68.5417 3.87737 68.9162 3.6321C69.294 3.38684 69.7696 3.2642 70.343 3.2642C70.8634 3.2642 71.3191 3.37358 71.7102 3.59233C72.1013 3.80777 72.4046 4.12926 72.62 4.55682C72.8355 4.98437 72.9432 5.51302 72.9432 6.14276V11H71.4567V6.32173C71.4567 5.76823 71.3125 5.3357 71.0241 5.02415C70.7358 4.70928 70.3397 4.55185 69.8359 4.55185C69.4912 4.55185 69.1847 4.62642 68.9162 4.77557C68.651 4.92472 68.4406 5.14347 68.2848 5.43182C68.1323 5.71686 68.0561 6.06155 68.0561 6.46591Z" fill="black"/>
</svg>
