<svg width="70" height="12" viewBox="0 0 70 12" fill="none" xmlns="http://www.w3.org/2000/svg">
<path d="M4.63352 3.36364V4.55682H0.318182V3.36364H4.63352ZM1.50142 11V2.47869C1.50142 2.00142 1.60582 1.60535 1.81463 1.29048C2.02344 0.972301 2.30019 0.735322 2.64489 0.579545C2.98958 0.420454 3.36411 0.340908 3.76847 0.340908C4.06676 0.340908 4.32197 0.365767 4.53409 0.415483C4.74621 0.461884 4.90365 0.504971 5.00639 0.544744L4.65838 1.74787C4.58878 1.72798 4.49929 1.70478 4.38991 1.67827C4.28054 1.64844 4.14796 1.63352 3.99219 1.63352C3.63092 1.63352 3.3724 1.72301 3.21662 1.90199C3.06416 2.08097 2.98793 2.33949 2.98793 2.67756V11H1.50142ZM8.15714 11.169C7.67324 11.169 7.23574 11.0795 6.84464 10.9006C6.45354 10.7183 6.14364 10.4548 5.91495 10.1101C5.68957 9.76539 5.57688 9.3428 5.57688 8.84233C5.57688 8.41146 5.65974 8.05682 5.82546 7.77841C5.99118 7.5 6.2149 7.27959 6.49663 7.11719C6.77835 6.95478 7.09322 6.83215 7.44123 6.74929C7.78924 6.66643 8.14388 6.60346 8.50515 6.56037C8.96254 6.50734 9.33375 6.46425 9.61879 6.43111C9.90382 6.39465 10.111 6.33665 10.2402 6.2571C10.3695 6.17756 10.4341 6.0483 10.4341 5.86932V5.83452C10.4341 5.40033 10.3115 5.06392 10.0662 4.82528C9.82428 4.58665 9.46301 4.46733 8.98242 4.46733C8.48195 4.46733 8.08754 4.57836 7.79918 4.80043C7.51415 5.01918 7.31694 5.26278 7.20756 5.53125L5.81055 5.21307C5.97627 4.74905 6.21822 4.37453 6.5364 4.08949C6.8579 3.80114 7.22745 3.59233 7.64506 3.46307C8.06268 3.33049 8.50183 3.2642 8.96254 3.2642C9.26746 3.2642 9.59061 3.30066 9.932 3.37358C10.2767 3.44318 10.5982 3.57244 10.8965 3.76136C11.1981 3.95028 11.445 4.22041 11.6373 4.57173C11.8295 4.91974 11.9256 5.37216 11.9256 5.92898V11H10.4739V9.95597H10.4142C10.3181 10.1482 10.1739 10.3371 9.98171 10.5227C9.78948 10.7083 9.54255 10.8625 9.24094 10.9851C8.93933 11.1077 8.57807 11.169 8.15714 11.169ZM8.48029 9.97585C8.89128 9.97585 9.2426 9.89465 9.53427 9.73224C9.82925 9.56984 10.053 9.35772 10.2054 9.09588C10.3612 8.83073 10.4391 8.54735 10.4391 8.24574V7.26136C10.3861 7.31439 10.2833 7.36411 10.1309 7.41051C9.98171 7.4536 9.81102 7.49171 9.61879 7.52486C9.42655 7.55469 9.23929 7.58286 9.057 7.60938C8.8747 7.63258 8.72224 7.65246 8.59961 7.66903C8.31126 7.70549 8.04776 7.76681 7.80913 7.85298C7.5738 7.93916 7.38488 8.06345 7.24237 8.22585C7.10316 8.38494 7.03356 8.59706 7.03356 8.86222C7.03356 9.23011 7.16945 9.50852 7.44123 9.69744C7.71301 9.88305 8.05936 9.97585 8.48029 9.97585ZM17.1222 11.1541C16.383 11.1541 15.7467 10.9867 15.2131 10.652C14.6828 10.3139 14.2751 9.84825 13.9901 9.25497C13.705 8.66169 13.5625 7.98224 13.5625 7.21662C13.5625 6.44105 13.7083 5.75663 14 5.16335C14.2917 4.56676 14.7027 4.10109 15.233 3.76633C15.7633 3.43158 16.388 3.2642 17.1072 3.2642C17.6873 3.2642 18.2043 3.37192 18.6584 3.58736C19.1125 3.79948 19.4787 4.09777 19.7571 4.48224C20.0388 4.86671 20.2062 5.31581 20.2592 5.82955H18.8125C18.733 5.47159 18.5507 5.16335 18.2656 4.90483C17.9839 4.64631 17.6061 4.51705 17.1321 4.51705C16.7178 4.51705 16.3549 4.62642 16.0433 4.84517C15.7351 5.06061 15.4948 5.36884 15.3224 5.76989C15.1501 6.16761 15.0639 6.63826 15.0639 7.18182C15.0639 7.73864 15.1484 8.21922 15.3175 8.62358C15.4865 9.02794 15.7251 9.34115 16.0334 9.56321C16.3449 9.78527 16.7112 9.89631 17.1321 9.89631C17.4138 9.89631 17.669 9.84493 17.8977 9.74219C18.1297 9.63613 18.3236 9.48532 18.4794 9.28977C18.6385 9.09422 18.7495 8.8589 18.8125 8.58381H20.2592C20.2062 9.07765 20.0455 9.51847 19.777 9.90625C19.5085 10.294 19.1489 10.599 18.6982 10.821C18.2507 11.0431 17.7254 11.1541 17.1222 11.1541ZM25.1401 11.1541C24.3877 11.1541 23.7398 10.9934 23.1962 10.6719C22.656 10.3471 22.2383 9.89134 21.9434 9.30469C21.6517 8.71473 21.5059 8.02367 21.5059 7.23153C21.5059 6.44934 21.6517 5.75994 21.9434 5.16335C22.2383 4.56676 22.6493 4.10109 23.1763 3.76633C23.7066 3.43158 24.3264 3.2642 25.0357 3.2642C25.4666 3.2642 25.8842 3.33546 26.2885 3.47798C26.6929 3.6205 27.0558 3.84422 27.3773 4.14915C27.6988 4.45407 27.9524 4.85014 28.138 5.33736C28.3236 5.82126 28.4164 6.40956 28.4164 7.10227V7.62926H22.3461V6.51562H26.9597C26.9597 6.12453 26.8801 5.77817 26.7211 5.47656C26.562 5.17164 26.3382 4.93134 26.0499 4.75568C25.7649 4.58002 25.4301 4.49219 25.0456 4.49219C24.628 4.49219 24.2634 4.59493 23.9519 4.80043C23.6436 5.0026 23.405 5.26776 23.236 5.59588C23.0703 5.92069 22.9874 6.27367 22.9874 6.65483V7.52486C22.9874 8.03527 23.0769 8.46946 23.2559 8.82741C23.4382 9.18537 23.6917 9.45881 24.0165 9.64773C24.3413 9.83333 24.7208 9.92614 25.155 9.92614C25.4367 9.92614 25.6936 9.88636 25.9256 9.80682C26.1576 9.72396 26.3581 9.60133 26.5272 9.43892C26.6962 9.27652 26.8255 9.07599 26.915 8.83736L28.3219 9.09091C28.2092 9.50521 28.007 9.86813 27.7154 10.1797C27.427 10.4879 27.0641 10.7282 26.6266 10.9006C26.1924 11.0696 25.6969 11.1541 25.1401 11.1541ZM34.565 6.05327V7.34091H30.0508V6.05327H34.565ZM42.2685 5.22798L40.9212 5.46662C40.8648 5.29427 40.7753 5.13021 40.6527 4.97443C40.5334 4.81865 40.371 4.69105 40.1655 4.59162C39.96 4.49219 39.7031 4.44247 39.3949 4.44247C38.974 4.44247 38.6226 4.53693 38.3409 4.72585C38.0592 4.91146 37.9183 5.15175 37.9183 5.44673C37.9183 5.70194 38.0128 5.90743 38.2017 6.06321C38.3906 6.21899 38.6955 6.34659 39.1165 6.44602L40.3295 6.72443C41.0322 6.88684 41.5559 7.13707 41.9006 7.47514C42.2453 7.81321 42.4176 8.25237 42.4176 8.79261C42.4176 9.25 42.285 9.65767 42.0199 10.0156C41.758 10.3703 41.3918 10.6487 40.9212 10.8509C40.4538 11.053 39.9119 11.1541 39.2955 11.1541C38.4403 11.1541 37.7427 10.9718 37.2024 10.6072C36.6622 10.2393 36.3307 9.71733 36.2081 9.04119L37.6449 8.82244C37.7344 9.19697 37.9183 9.48035 38.1967 9.67259C38.4751 9.86151 38.8381 9.95597 39.2855 9.95597C39.7727 9.95597 40.1622 9.85488 40.4538 9.6527C40.7455 9.44721 40.8913 9.19697 40.8913 8.90199C40.8913 8.66335 40.8018 8.46283 40.6229 8.30043C40.4472 8.13802 40.1771 8.01539 39.8125 7.93253L38.5199 7.64915C37.8073 7.48674 37.2803 7.22822 36.9389 6.87358C36.6009 6.51894 36.4318 6.06984 36.4318 5.52628C36.4318 5.07552 36.5578 4.68111 36.8097 4.34304C37.0616 4.00497 37.4096 3.74148 37.8537 3.55256C38.2978 3.36032 38.8066 3.2642 39.38 3.2642C40.2053 3.2642 40.8549 3.44318 41.3288 3.80114C41.8028 4.15578 42.116 4.63139 42.2685 5.22798ZM44.052 11V3.36364H45.4789V4.60653H45.5733C45.7324 4.18561 45.9926 3.85748 46.3539 3.62216C46.7151 3.38352 47.1477 3.2642 47.6515 3.2642C48.1619 3.2642 48.5894 3.38352 48.9341 3.62216C49.2821 3.8608 49.539 4.18892 49.7047 4.60653H49.7843C49.9666 4.19886 50.2566 3.87405 50.6543 3.6321C51.052 3.38684 51.526 3.2642 52.0762 3.2642C52.7689 3.2642 53.334 3.4813 53.7715 3.91548C54.2123 4.34967 54.4327 5.00426 54.4327 5.87926V11H52.9462V6.01847C52.9462 5.50142 52.8053 5.12689 52.5236 4.89489C52.2419 4.66288 51.9055 4.54688 51.5144 4.54688C51.0305 4.54688 50.6543 4.69602 50.3858 4.99432C50.1174 5.2893 49.9831 5.6688 49.9831 6.13281V11H48.5016V5.92401C48.5016 5.50971 48.3723 5.17661 48.1138 4.92472C47.8553 4.67282 47.5189 4.54688 47.1046 4.54688C46.8229 4.54688 46.5627 4.62145 46.324 4.7706C46.0887 4.91643 45.8981 5.12026 45.7523 5.3821C45.6098 5.64394 45.5385 5.94721 45.5385 6.2919V11H44.052ZM56.4251 11V3.36364H57.9116V11H56.4251ZM57.1758 2.18537C56.9173 2.18537 56.6952 2.09919 56.5096 1.92685C56.3273 1.75118 56.2362 1.54238 56.2362 1.30043C56.2362 1.05516 56.3273 0.846354 56.5096 0.674005C56.6952 0.498342 56.9173 0.410511 57.1758 0.410511C57.4343 0.410511 57.6547 0.498342 57.837 0.674005C58.0226 0.846354 58.1154 1.05516 58.1154 1.30043C58.1154 1.54238 58.0226 1.75118 57.837 1.92685C57.6547 2.09919 57.4343 2.18537 57.1758 2.18537ZM61.3979 0.818182V11H59.9114V0.818182H61.3979ZM66.6889 11.1541C65.9366 11.1541 65.2886 10.9934 64.745 10.6719C64.2048 10.3471 63.7872 9.89134 63.4922 9.30469C63.2005 8.71473 63.0547 8.02367 63.0547 7.23153C63.0547 6.44934 63.2005 5.75994 63.4922 5.16335C63.7872 4.56676 64.1982 4.10109 64.7251 3.76633C65.2554 3.43158 65.8752 3.2642 66.5845 3.2642C67.0154 3.2642 67.433 3.33546 67.8374 3.47798C68.2417 3.6205 68.6046 3.84422 68.9261 4.14915C69.2476 4.45407 69.5012 4.85014 69.6868 5.33736C69.8724 5.82126 69.9652 6.40956 69.9652 7.10227V7.62926H63.8949V6.51562H68.5085C68.5085 6.12453 68.429 5.77817 68.2699 5.47656C68.1108 5.17164 67.8871 4.93134 67.5987 4.75568C67.3137 4.58002 66.9789 4.49219 66.5945 4.49219C66.1768 4.49219 65.8123 4.59493 65.5007 4.80043C65.1925 5.0026 64.9538 5.26776 64.7848 5.59588C64.6191 5.92069 64.5362 6.27367 64.5362 6.65483V7.52486C64.5362 8.03527 64.6257 8.46946 64.8047 8.82741C64.987 9.18537 65.2405 9.45881 65.5653 9.64773C65.8902 9.83333 66.2696 9.92614 66.7038 9.92614C66.9856 9.92614 67.2424 9.88636 67.4744 9.80682C67.7064 9.72396 67.907 9.60133 68.076 9.43892C68.245 9.27652 68.3743 9.07599 68.4638 8.83736L69.8707 9.09091C69.758 9.50521 69.5559 9.86813 69.2642 10.1797C68.9759 10.4879 68.6129 10.7282 68.1754 10.9006C67.7412 11.0696 67.2457 11.1541 66.6889 11.1541Z" fill="black"/>
</svg>
