<svg viewBox="0 0 71 14" fill="none" stroke-width="2" stroke="currentColor" aria-hidden="true">
  <path d="M-0.000710189 13.8636V3.36364H1.45099V4.60156H1.57528C1.66146 4.44247 1.78575 4.25852 1.94815 4.04972C2.11056 3.84091 2.33594 3.65862 2.62429 3.50284C2.91264 3.34375 3.2938 3.2642 3.76776 3.2642C4.38423 3.2642 4.93442 3.41998 5.41832 3.73153C5.90223 4.04309 6.28172 4.49219 6.55682 5.07884C6.83523 5.66548 6.97443 6.37145 6.97443 7.19673C6.97443 8.02202 6.83688 8.72964 6.56179 9.3196C6.2867 9.90625 5.90885 10.3587 5.42827 10.6768C4.94768 10.9917 4.39915 11.1491 3.78267 11.1491C3.31866 11.1491 2.93916 11.0713 2.64418 10.9155C2.35251 10.7597 2.12382 10.5774 1.9581 10.3686C1.79238 10.1598 1.66477 9.9742 1.57528 9.81179H1.4858V13.8636H-0.000710189ZM1.45597 7.18182C1.45597 7.71875 1.53385 8.18939 1.68963 8.59375C1.84541 8.99811 2.07079 9.31463 2.36577 9.54332C2.66075 9.7687 3.02202 9.88139 3.44957 9.88139C3.8937 9.88139 4.26491 9.76373 4.56321 9.52841C4.86151 9.28977 5.08688 8.96662 5.23935 8.55895C5.39512 8.15128 5.47301 7.69223 5.47301 7.18182C5.47301 6.67803 5.39678 6.22562 5.24432 5.82457C5.09517 5.42353 4.86979 5.10701 4.56818 4.875C4.26989 4.64299 3.89702 4.52699 3.44957 4.52699C3.0187 4.52699 2.65412 4.63802 2.35582 4.86009C2.06084 5.08215 1.83712 5.39205 1.68466 5.78977C1.5322 6.1875 1.45597 6.65151 1.45597 7.18182ZM8.63991 11V3.36364H10.1264V11H8.63991ZM9.39062 2.18537C9.1321 2.18537 8.91004 2.09919 8.72443 1.92685C8.54214 1.75118 8.45099 1.54238 8.45099 1.30043C8.45099 1.05516 8.54214 0.846354 8.72443 0.674005C8.91004 0.498342 9.1321 0.410511 9.39062 0.410511C9.64915 0.410511 9.86956 0.498342 10.0518 0.674005C10.2375 0.846354 10.3303 1.05516 10.3303 1.30043C10.3303 1.54238 10.2375 1.75118 10.0518 1.92685C9.86956 2.09919 9.64915 2.18537 9.39062 2.18537ZM13.6127 0.818182V11H12.1262V0.818182H13.6127ZM18.8292 11.1541C18.0901 11.1541 17.4537 10.9867 16.9201 10.652C16.3898 10.3139 15.9821 9.84825 15.6971 9.25497C15.4121 8.66169 15.2695 7.98224 15.2695 7.21662C15.2695 6.44105 15.4154 5.75663 15.707 5.16335C15.9987 4.56676 16.4097 4.10109 16.94 3.76633C17.4703 3.43158 18.0951 3.2642 18.8143 3.2642C19.3943 3.2642 19.9113 3.37192 20.3654 3.58736C20.8195 3.79948 21.1857 4.09777 21.4641 4.48224C21.7459 4.86671 21.9132 5.31581 21.9663 5.82955H20.5195C20.44 5.47159 20.2577 5.16335 19.9727 4.90483C19.6909 4.64631 19.3131 4.51705 18.8391 4.51705C18.4248 4.51705 18.0619 4.62642 17.7504 4.84517C17.4421 5.06061 17.2018 5.36884 17.0295 5.76989C16.8571 6.16761 16.771 6.63826 16.771 7.18182C16.771 7.73864 16.8555 8.21922 17.0245 8.62358C17.1935 9.02794 17.4322 9.34115 17.7404 9.56321C18.052 9.78527 18.4182 9.89631 18.8391 9.89631C19.1209 9.89631 19.3761 9.84493 19.6048 9.74219C19.8368 9.63613 20.0307 9.48532 20.1864 9.28977C20.3455 9.09422 20.4566 8.8589 20.5195 8.58381H21.9663C21.9132 9.07765 21.7525 9.51847 21.484 9.90625C21.2156 10.294 20.8559 10.599 20.4052 10.821C19.9577 11.0431 19.4324 11.1541 18.8292 11.1541ZM23.5559 11V3.36364H24.9927V4.5767H25.0723C25.2115 4.16572 25.4567 3.84257 25.8081 3.60724C26.1627 3.36861 26.5637 3.24929 27.0112 3.24929C27.104 3.24929 27.2134 3.2526 27.3393 3.25923C27.4686 3.26586 27.5697 3.27415 27.6426 3.28409V4.70597C27.5829 4.68939 27.4769 4.67116 27.3244 4.65128C27.1719 4.62808 27.0195 4.61648 26.867 4.61648C26.5157 4.61648 26.2025 4.69105 25.9274 4.8402C25.6556 4.98603 25.4402 5.18987 25.2811 5.4517C25.122 5.71023 25.0424 6.00521 25.0424 6.33665V11H23.5559ZM31.8722 11.1541C31.1563 11.1541 30.5315 10.9901 29.9979 10.6619C29.4643 10.3338 29.05 9.87476 28.755 9.2848C28.46 8.69484 28.3125 8.00544 28.3125 7.21662C28.3125 6.42448 28.46 5.73177 28.755 5.13849C29.05 4.54522 29.4643 4.08452 29.9979 3.75639C30.5315 3.42827 31.1563 3.2642 31.8722 3.2642C32.5881 3.2642 33.2128 3.42827 33.7464 3.75639C34.2801 4.08452 34.6944 4.54522 34.9893 5.13849C35.2843 5.73177 35.4318 6.42448 35.4318 7.21662C35.4318 8.00544 35.2843 8.69484 34.9893 9.2848C34.6944 9.87476 34.2801 10.3338 33.7464 10.6619C33.2128 10.9901 32.5881 11.1541 31.8722 11.1541ZM31.8771 9.90625C32.3411 9.90625 32.7256 9.78362 33.0305 9.53835C33.3355 9.29309 33.5608 8.96662 33.7067 8.55895C33.8558 8.15128 33.9304 7.70218 33.9304 7.21165C33.9304 6.72443 33.8558 6.27699 33.7067 5.86932C33.5608 5.45833 33.3355 5.12855 33.0305 4.87997C32.7256 4.63139 32.3411 4.5071 31.8771 4.5071C31.4098 4.5071 31.022 4.63139 30.7138 4.87997C30.4089 5.12855 30.1818 5.45833 30.0327 5.86932C29.8868 6.27699 29.8139 6.72443 29.8139 7.21165C29.8139 7.70218 29.8868 8.15128 30.0327 8.55895C30.1818 8.96662 30.4089 9.29309 30.7138 9.53835C31.022 9.78362 31.4098 9.90625 31.8771 9.90625ZM38.5142 11L36.267 3.36364H37.8033L39.2997 8.97159H39.3743L40.8757 3.36364H42.4119L43.9034 8.94673H43.978L45.4645 3.36364H47.0007L44.7585 11H43.2422L41.6911 5.48651H41.5767L40.0256 11H38.5142ZM52.9107 6.05327V7.34091H48.3965V6.05327H52.9107ZM58.4167 11.169C57.6312 11.1657 56.96 10.9586 56.4032 10.5476C55.8464 10.1366 55.4205 9.53835 55.1255 8.75284C54.8306 7.96733 54.6831 7.02107 54.6831 5.91406C54.6831 4.81037 54.8306 3.86742 55.1255 3.08523C55.4238 2.30303 55.8514 1.70644 56.4082 1.29545C56.9683 0.884469 57.6378 0.678977 58.4167 0.678977C59.1956 0.678977 59.8635 0.886126 60.4203 1.30043C60.9771 1.71141 61.403 2.308 61.698 3.0902C61.9963 3.86908 62.1454 4.81037 62.1454 5.91406C62.1454 7.02438 61.9979 7.9723 61.7029 8.75781C61.408 9.54001 60.9821 10.1383 60.4252 10.5526C59.8684 10.9635 59.1989 11.169 58.4167 11.169ZM58.4167 9.84162C59.1061 9.84162 59.6447 9.50521 60.0325 8.83239C60.4236 8.15956 60.6191 7.18679 60.6191 5.91406C60.6191 5.06889 60.5297 4.35464 60.3507 3.77131C60.175 3.18466 59.9215 2.74053 59.59 2.43892C59.2619 2.134 58.8708 1.98153 58.4167 1.98153C57.7306 1.98153 57.1921 2.3196 56.801 2.99574C56.4099 3.67187 56.2127 4.64465 56.2093 5.91406C56.2093 6.76255 56.2972 7.48011 56.4728 8.06676C56.6518 8.65009 56.9054 9.09257 57.2335 9.39418C57.5616 9.69247 57.956 9.84162 58.4167 9.84162ZM63.9091 11V9.88636L67.3544 6.31676C67.7223 5.92898 68.0256 5.58925 68.2642 5.29759C68.5062 5.0026 68.6868 4.72254 68.8061 4.45739C68.9254 4.19223 68.9851 3.91051 68.9851 3.61222C68.9851 3.27415 68.9055 2.98248 68.7464 2.73722C68.5874 2.48864 68.3703 2.29806 68.0952 2.16548C67.8201 2.02959 67.5102 1.96165 67.1655 1.96165C66.8009 1.96165 66.4827 2.03622 66.2109 2.18537C65.9392 2.33452 65.7304 2.54498 65.5845 2.81676C65.4387 3.08854 65.3658 3.40672 65.3658 3.77131H63.8991C63.8991 3.15151 64.0417 2.60961 64.3267 2.1456C64.6117 1.68158 65.0028 1.32197 65.5 1.06676C65.9972 0.808238 66.5623 0.678977 67.1953 0.678977C67.835 0.678977 68.3984 0.806581 68.8857 1.06179C69.3762 1.31368 69.759 1.65838 70.0341 2.09588C70.3092 2.53007 70.4467 3.0206 70.4467 3.56747C70.4467 3.94531 70.3755 4.31487 70.233 4.67614C70.0938 5.0374 69.8501 5.4401 69.5021 5.88423C69.1541 6.32505 68.6702 6.86032 68.0504 7.49006L66.027 9.60795V9.68253H70.6108V11H63.9091Z" fill="black"/>
</svg>
