<svg viewBox="0 0 127 15" fill="none" stroke-width="2" stroke="currentColor" aria-hidden="true">
  <path d="M0.99929 11V3.36364H2.4858V11H0.99929ZM1.75 2.18537C1.49148 2.18537 1.26941 2.09919 1.08381 1.92685C0.901515 1.75118 0.810369 1.54238 0.810369 1.30043C0.810369 1.05516 0.901515 0.846354 1.08381 0.674005C1.26941 0.498342 1.49148 0.410511 1.75 0.410511C2.00852 0.410511 2.22893 0.498342 2.41122 0.674005C2.59683 0.846354 2.68963 1.05516 2.68963 1.30043C2.68963 1.54238 2.59683 1.75118 2.41122 1.92685C2.22893 2.09919 2.00852 2.18537 1.75 2.18537ZM4.48562 11V3.36364H5.91246V4.60653H6.00692C6.16602 4.18561 6.4262 3.85748 6.78746 3.62216C7.14873 3.38352 7.58126 3.2642 8.08505 3.2642C8.59547 3.2642 9.02302 3.38352 9.36772 3.62216C9.71573 3.8608 9.9726 4.18892 10.1383 4.60653H10.2179C10.4002 4.19886 10.6902 3.87405 11.0879 3.6321C11.4856 3.38684 11.9596 3.2642 12.5098 3.2642C13.2025 3.2642 13.7676 3.4813 14.2051 3.91548C14.6459 4.34967 14.8663 5.00426 14.8663 5.87926V11H13.3798V6.01847C13.3798 5.50142 13.2389 5.12689 12.9572 4.89489C12.6755 4.66288 12.3391 4.54688 11.948 4.54688C11.4641 4.54688 11.0879 4.69602 10.8194 4.99432C10.551 5.2893 10.4167 5.6688 10.4167 6.13281V11H8.93519V5.92401C8.93519 5.50971 8.80593 5.17661 8.54741 4.92472C8.28889 4.67282 7.95247 4.54688 7.53817 4.54688C7.25645 4.54688 6.99627 4.62145 6.75764 4.7706C6.52231 4.91643 6.33174 5.12026 6.1859 5.3821C6.04338 5.64394 5.97212 5.94721 5.97212 6.2919V11H4.48562ZM19.081 11.169C18.5971 11.169 18.1596 11.0795 17.7685 10.9006C17.3774 10.7183 17.0675 10.4548 16.8388 10.1101C16.6134 9.76539 16.5007 9.3428 16.5007 8.84233C16.5007 8.41146 16.5836 8.05682 16.7493 7.77841C16.915 7.5 17.1387 7.27959 17.4205 7.11719C17.7022 6.95478 18.017 6.83215 18.3651 6.74929C18.7131 6.66643 19.0677 6.60346 19.429 6.56037C19.8864 6.50734 20.2576 6.46425 20.5426 6.43111C20.8277 6.39465 21.0348 6.33665 21.1641 6.2571C21.2933 6.17756 21.358 6.0483 21.358 5.86932V5.83452C21.358 5.40033 21.2353 5.06392 20.9901 4.82528C20.7481 4.58665 20.3868 4.46733 19.9062 4.46733C19.4058 4.46733 19.0114 4.57836 18.723 4.80043C18.438 5.01918 18.2408 5.26278 18.1314 5.53125L16.7344 5.21307C16.9001 4.74905 17.142 4.37453 17.4602 4.08949C17.7817 3.80114 18.1513 3.59233 18.5689 3.46307C18.9865 3.33049 19.4257 3.2642 19.8864 3.2642C20.1913 3.2642 20.5144 3.30066 20.8558 3.37358C21.2005 3.44318 21.522 3.57244 21.8203 3.76136C22.1219 3.95028 22.3688 4.22041 22.5611 4.57173C22.7533 4.91974 22.8494 5.37216 22.8494 5.92898V11H21.3977V9.95597H21.3381C21.242 10.1482 21.0978 10.3371 20.9055 10.5227C20.7133 10.7083 20.4664 10.8625 20.1648 10.9851C19.8632 11.1077 19.5019 11.169 19.081 11.169ZM19.4041 9.97585C19.8151 9.97585 20.1664 9.89465 20.4581 9.73224C20.7531 9.56984 20.9768 9.35772 21.1293 9.09588C21.285 8.83073 21.3629 8.54735 21.3629 8.24574V7.26136C21.3099 7.31439 21.2071 7.36411 21.0547 7.41051C20.9055 7.4536 20.7348 7.49171 20.5426 7.52486C20.3504 7.55469 20.1631 7.58286 19.9808 7.60938C19.7985 7.63258 19.6461 7.65246 19.5234 7.66903C19.2351 7.70549 18.9716 7.76681 18.733 7.85298C18.4976 7.93916 18.3087 8.06345 18.1662 8.22585C18.027 8.38494 17.9574 8.59706 17.9574 8.86222C17.9574 9.23011 18.0933 9.50852 18.3651 9.69744C18.6368 9.88305 18.9832 9.97585 19.4041 9.97585ZM28.0311 14.0227C27.4245 14.0227 26.9025 13.9432 26.465 13.7841C26.0308 13.625 25.6762 13.4145 25.4011 13.1527C25.126 12.8909 24.9205 12.6042 24.7846 12.2926L26.0623 11.7656C26.1518 11.9115 26.2711 12.0656 26.4203 12.228C26.5727 12.3937 26.7782 12.5346 27.0368 12.6506C27.2986 12.7666 27.635 12.8246 28.046 12.8246C28.6094 12.8246 29.0751 12.687 29.443 12.4119C29.8109 12.1402 29.9949 11.706 29.9949 11.1094V9.60795H29.9004C29.8109 9.77036 29.6816 9.95099 29.5126 10.1499C29.3469 10.3487 29.1182 10.5211 28.8265 10.6669C28.5349 10.8127 28.1554 10.8857 27.688 10.8857C27.0848 10.8857 26.5413 10.7448 26.0574 10.4631C25.5768 10.178 25.1956 9.75876 24.9139 9.20526C24.6355 8.64844 24.4963 7.96401 24.4963 7.15199C24.4963 6.33996 24.6338 5.64394 24.9089 5.06392C25.1873 4.4839 25.5685 4.03977 26.0524 3.73153C26.5363 3.41998 27.0848 3.2642 27.698 3.2642C28.1719 3.2642 28.5547 3.34375 28.8464 3.50284C29.1381 3.65862 29.3651 3.84091 29.5275 4.04972C29.6932 4.25852 29.8208 4.44247 29.9103 4.60156H30.0197V3.36364H31.4764V11.169C31.4764 11.8253 31.3239 12.3639 31.019 12.7848C30.7141 13.2057 30.3014 13.5173 29.7811 13.7195C29.264 13.9216 28.6807 14.0227 28.0311 14.0227ZM28.0162 9.6527C28.4437 9.6527 28.805 9.55327 29.1 9.3544C29.3983 9.15223 29.6236 8.86387 29.7761 8.48935C29.9319 8.11151 30.0098 7.65909 30.0098 7.1321C30.0098 6.61837 29.9335 6.16596 29.7811 5.77486C29.6286 5.38376 29.4049 5.07884 29.1099 4.86009C28.8149 4.63802 28.4503 4.52699 28.0162 4.52699C27.5687 4.52699 27.1958 4.64299 26.8975 4.875C26.5993 5.10369 26.3739 5.41525 26.2214 5.80966C26.0723 6.20407 25.9977 6.64489 25.9977 7.1321C25.9977 7.63258 26.0739 8.07173 26.2264 8.44957C26.3788 8.82741 26.6042 9.1224 26.9025 9.33452C27.2041 9.54664 27.5753 9.6527 28.0162 9.6527ZM36.7612 11.1541C36.0088 11.1541 35.3609 10.9934 34.8173 10.6719C34.277 10.3471 33.8594 9.89134 33.5645 9.30469C33.2728 8.71473 33.127 8.02367 33.127 7.23153C33.127 6.44934 33.2728 5.75994 33.5645 5.16335C33.8594 4.56676 34.2704 4.10109 34.7974 3.76633C35.3277 3.43158 35.9475 3.2642 36.6568 3.2642C37.0877 3.2642 37.5053 3.33546 37.9096 3.47798C38.314 3.6205 38.6769 3.84422 38.9984 4.14915C39.3199 4.45407 39.5734 4.85014 39.7591 5.33736C39.9447 5.82126 40.0375 6.40956 40.0375 7.10227V7.62926H33.9672V6.51562H38.5808C38.5808 6.12453 38.5012 5.77817 38.3422 5.47656C38.1831 5.17164 37.9593 4.93134 37.671 4.75568C37.3859 4.58002 37.0512 4.49219 36.6667 4.49219C36.2491 4.49219 35.8845 4.59493 35.573 4.80043C35.2647 5.0026 35.0261 5.26776 34.8571 5.59588C34.6913 5.92069 34.6085 6.27367 34.6085 6.65483V7.52486C34.6085 8.03527 34.698 8.46946 34.877 8.82741C35.0592 9.18537 35.3128 9.45881 35.6376 9.64773C35.9624 9.83333 36.3419 9.92614 36.7761 9.92614C37.0578 9.92614 37.3147 9.88636 37.5467 9.80682C37.7787 9.72396 37.9792 9.60133 38.1483 9.43892C38.3173 9.27652 38.4466 9.07599 38.536 8.83736L39.943 9.09091C39.8303 9.50521 39.6281 9.86813 39.3365 10.1797C39.0481 10.4879 38.6852 10.7282 38.2477 10.9006C37.8135 11.0696 37.318 11.1541 36.7612 11.1541ZM46.1861 6.05327V7.34091H41.6719V6.05327H46.1861ZM48.1673 11V3.36364H49.6538V11H48.1673ZM48.918 2.18537C48.6594 2.18537 48.4374 2.09919 48.2518 1.92685C48.0695 1.75118 47.9783 1.54238 47.9783 1.30043C47.9783 1.05516 48.0695 0.846354 48.2518 0.674005C48.4374 0.498342 48.6594 0.410511 48.918 0.410511C49.1765 0.410511 49.3969 0.498342 49.5792 0.674005C49.7648 0.846354 49.8576 1.05516 49.8576 1.30043C49.8576 1.54238 49.7648 1.75118 49.5792 1.92685C49.3969 2.09919 49.1765 2.18537 48.918 2.18537ZM53.1401 6.46591V11H51.6536V3.36364H53.0804V4.60653H53.1749C53.3506 4.20218 53.6257 3.87737 54.0002 3.6321C54.378 3.38684 54.8536 3.2642 55.427 3.2642C55.9474 3.2642 56.4031 3.37358 56.7942 3.59233C57.1853 3.80777 57.4886 4.12926 57.704 4.55682C57.9194 4.98437 58.0272 5.51302 58.0272 6.14276V11H56.5407V6.32173C56.5407 5.76823 56.3965 5.3357 56.1081 5.02415C55.8198 4.70928 55.4237 4.55185 54.9199 4.55185C54.5752 4.55185 54.2686 4.62642 54.0002 4.77557C53.735 4.92472 53.5246 5.14347 53.3688 5.43182C53.2163 5.71686 53.1401 6.06155 53.1401 6.46591ZM62.8794 11.1491C62.263 11.1491 61.7128 10.9917 61.2289 10.6768C60.7483 10.3587 60.3704 9.90625 60.0953 9.3196C59.8236 8.72964 59.6877 8.02202 59.6877 7.19673C59.6877 6.37145 59.8252 5.66548 60.1003 5.07884C60.3787 4.49219 60.7599 4.04309 61.2438 3.73153C61.7277 3.41998 62.2762 3.2642 62.8894 3.2642C63.3633 3.2642 63.7445 3.34375 64.0328 3.50284C64.3245 3.65862 64.5499 3.84091 64.709 4.04972C64.8714 4.25852 64.9973 4.44247 65.0868 4.60156H65.1763V0.818182H66.6628V11H65.2111V9.81179H65.0868C64.9973 9.9742 64.8681 10.1598 64.699 10.3686C64.5333 10.5774 64.3046 10.7597 64.013 10.9155C63.7213 11.0713 63.3435 11.1491 62.8794 11.1491ZM63.2076 9.88139C63.6351 9.88139 63.9964 9.7687 64.2914 9.54332C64.5897 9.31463 64.815 8.99811 64.9675 8.59375C65.1233 8.18939 65.2012 7.71875 65.2012 7.18182C65.2012 6.65151 65.1249 6.1875 64.9725 5.78977C64.82 5.39205 64.5963 5.08215 64.3013 4.86009C64.0063 4.63802 63.6417 4.52699 63.2076 4.52699C62.7601 4.52699 62.3873 4.64299 62.089 4.875C61.7907 5.10701 61.5653 5.42353 61.4128 5.82457C61.2637 6.22562 61.1891 6.67803 61.1891 7.18182C61.1891 7.69223 61.2653 8.15128 61.4178 8.55895C61.5703 8.96662 61.7956 9.28977 62.0939 9.52841C62.3955 9.76373 62.7667 9.88139 63.2076 9.88139ZM72.0756 11.1541C71.3233 11.1541 70.6753 10.9934 70.1317 10.6719C69.5915 10.3471 69.1739 9.89134 68.8789 9.30469C68.5872 8.71473 68.4414 8.02367 68.4414 7.23153C68.4414 6.44934 68.5872 5.75994 68.8789 5.16335C69.1739 4.56676 69.5849 4.10109 70.1119 3.76633C70.6422 3.43158 71.262 3.2642 71.9712 3.2642C72.4021 3.2642 72.8197 3.33546 73.2241 3.47798C73.6284 3.6205 73.9914 3.84422 74.3129 4.14915C74.6344 4.45407 74.8879 4.85014 75.0735 5.33736C75.2591 5.82126 75.3519 6.40956 75.3519 7.10227V7.62926H69.2816V6.51562H73.8952C73.8952 6.12453 73.8157 5.77817 73.6566 5.47656C73.4975 5.17164 73.2738 4.93134 72.9854 4.75568C72.7004 4.58002 72.3656 4.49219 71.9812 4.49219C71.5636 4.49219 71.199 4.59493 70.8874 4.80043C70.5792 5.0026 70.3406 5.26776 70.1715 5.59588C70.0058 5.92069 69.9229 6.27367 69.9229 6.65483V7.52486C69.9229 8.03527 70.0124 8.46946 70.1914 8.82741C70.3737 9.18537 70.6272 9.45881 70.9521 9.64773C71.2769 9.83333 71.6564 9.92614 72.0906 9.92614C72.3723 9.92614 72.6291 9.88636 72.8612 9.80682C73.0932 9.72396 73.2937 9.60133 73.4627 9.43892C73.6317 9.27652 73.761 9.07599 73.8505 8.83736L75.2575 9.09091C75.1448 9.50521 74.9426 9.86813 74.6509 10.1797C74.3626 10.4879 73.9996 10.7282 73.5621 10.9006C73.128 11.0696 72.6325 11.1541 72.0756 11.1541ZM78.4877 6.46591V11H77.0012V3.36364H78.4281V4.60653H78.5225C78.6982 4.20218 78.9733 3.87737 79.3478 3.6321C79.7257 3.38684 80.2013 3.2642 80.7747 3.2642C81.295 3.2642 81.7508 3.37358 82.1419 3.59233C82.533 3.80777 82.8362 4.12926 83.0517 4.55682C83.2671 4.98437 83.3748 5.51302 83.3748 6.14276V11H81.8883V6.32173C81.8883 5.76823 81.7441 5.3357 81.4558 5.02415C81.1674 4.70928 80.7714 4.55185 80.2676 4.55185C79.9229 4.55185 79.6163 4.62642 79.3478 4.77557C79.0827 4.92472 78.8722 5.14347 78.7164 5.43182C78.564 5.71686 78.4877 6.06155 78.4877 6.46591ZM88.9331 3.36364V4.55682H84.7619V3.36364H88.9331ZM85.8805 1.53409H87.367V8.75781C87.367 9.04616 87.4101 9.26326 87.4963 9.40909C87.5824 9.55161 87.6935 9.64938 87.8294 9.70241C87.9686 9.75213 88.1194 9.77699 88.2818 9.77699C88.4011 9.77699 88.5055 9.7687 88.595 9.75213C88.6845 9.73556 88.7541 9.7223 88.8038 9.71236L89.0723 10.9403C88.9861 10.9735 88.8635 11.0066 88.7044 11.0398C88.5453 11.0762 88.3464 11.0961 88.1078 11.0994C87.7167 11.1061 87.3521 11.0365 87.014 10.8906C86.676 10.7448 86.4025 10.5194 86.1937 10.2145C85.9849 9.90956 85.8805 9.52675 85.8805 9.06605V1.53409ZM94.8169 6.05327V7.34091H90.3027V6.05327H94.8169ZM96.7981 11V3.36364H98.2349V4.5767H98.3145C98.4537 4.16572 98.6989 3.84257 99.0502 3.60724C99.4049 3.36861 99.8059 3.24929 100.253 3.24929C100.346 3.24929 100.456 3.2526 100.581 3.25923C100.711 3.26586 100.812 3.27415 100.885 3.28409V4.70597C100.825 4.68939 100.719 4.67116 100.567 4.65128C100.414 4.62808 100.262 4.61648 100.109 4.61648C99.7579 4.61648 99.4447 4.69105 99.1696 4.8402C98.8978 4.98603 98.6824 5.18987 98.5233 5.4517C98.3642 5.71023 98.2846 6.00521 98.2846 6.33665V11H96.7981ZM102.171 11V3.36364H103.658V11H102.171ZM102.922 2.18537C102.663 2.18537 102.441 2.09919 102.256 1.92685C102.073 1.75118 101.982 1.54238 101.982 1.30043C101.982 1.05516 102.073 0.846354 102.256 0.674005C102.441 0.498342 102.663 0.410511 102.922 0.410511C103.18 0.410511 103.401 0.498342 103.583 0.674005C103.769 0.846354 103.862 1.05516 103.862 1.30043C103.862 1.54238 103.769 1.75118 103.583 1.92685C103.401 2.09919 103.18 2.18537 102.922 2.18537ZM108.859 14.0227C108.253 14.0227 107.731 13.9432 107.293 13.7841C106.859 13.625 106.504 13.4145 106.229 13.1527C105.954 12.8909 105.749 12.6042 105.613 12.2926L106.89 11.7656C106.98 11.9115 107.099 12.0656 107.248 12.228C107.401 12.3937 107.606 12.5346 107.865 12.6506C108.127 12.7666 108.463 12.8246 108.874 12.8246C109.438 12.8246 109.903 12.687 110.271 12.4119C110.639 12.1402 110.823 11.706 110.823 11.1094V9.60795H110.729C110.639 9.77036 110.51 9.95099 110.341 10.1499C110.175 10.3487 109.946 10.5211 109.655 10.6669C109.363 10.8127 108.983 10.8857 108.516 10.8857C107.913 10.8857 107.369 10.7448 106.885 10.4631C106.405 10.178 106.024 9.75876 105.742 9.20526C105.464 8.64844 105.324 7.96401 105.324 7.15199C105.324 6.33996 105.462 5.64394 105.737 5.06392C106.015 4.4839 106.397 4.03977 106.881 3.73153C107.364 3.41998 107.913 3.2642 108.526 3.2642C109 3.2642 109.383 3.34375 109.675 3.50284C109.966 3.65862 110.193 3.84091 110.356 4.04972C110.521 4.25852 110.649 4.44247 110.738 4.60156H110.848V3.36364H112.305V11.169C112.305 11.8253 112.152 12.3639 111.847 12.7848C111.542 13.2057 111.13 13.5173 110.609 13.7195C110.092 13.9216 109.509 14.0227 108.859 14.0227ZM108.844 9.6527C109.272 9.6527 109.633 9.55327 109.928 9.3544C110.226 9.15223 110.452 8.86387 110.604 8.48935C110.76 8.11151 110.838 7.65909 110.838 7.1321C110.838 6.61837 110.762 6.16596 110.609 5.77486C110.457 5.38376 110.233 5.07884 109.938 4.86009C109.643 4.63802 109.278 4.52699 108.844 4.52699C108.397 4.52699 108.024 4.64299 107.726 4.875C107.427 5.10369 107.202 5.41525 107.05 5.80966C106.9 6.20407 106.826 6.64489 106.826 7.1321C106.826 7.63258 106.902 8.07173 107.055 8.44957C107.207 8.82741 107.432 9.1224 107.731 9.33452C108.032 9.54664 108.403 9.6527 108.844 9.6527ZM115.785 6.46591V11H114.298V0.818182H115.765V4.60653H115.859C116.038 4.19555 116.312 3.86908 116.68 3.62713C117.047 3.38518 117.528 3.2642 118.121 3.2642C118.645 3.2642 119.102 3.37192 119.493 3.58736C119.888 3.80279 120.193 4.12429 120.408 4.55185C120.627 4.97609 120.736 5.50639 120.736 6.14276V11H119.25V6.32173C119.25 5.7616 119.106 5.32741 118.817 5.01918C118.529 4.70762 118.128 4.55185 117.614 4.55185C117.263 4.55185 116.948 4.62642 116.67 4.77557C116.394 4.92472 116.177 5.14347 116.018 5.43182C115.863 5.71686 115.785 6.06155 115.785 6.46591ZM126.285 3.36364V4.55682H122.113V3.36364H126.285ZM123.232 1.53409H124.719V8.75781C124.719 9.04616 124.762 9.26326 124.848 9.40909C124.934 9.55161 125.045 9.64938 125.181 9.70241C125.32 9.75213 125.471 9.77699 125.633 9.77699C125.753 9.77699 125.857 9.7687 125.947 9.75213C126.036 9.73556 126.106 9.7223 126.155 9.71236L126.424 10.9403C126.338 10.9735 126.215 11.0066 126.056 11.0398C125.897 11.0762 125.698 11.0961 125.459 11.0994C125.068 11.1061 124.704 11.0365 124.366 10.8906C124.028 10.7448 123.754 10.5194 123.545 10.2145C123.336 9.90956 123.232 9.52675 123.232 9.06605V1.53409Z" fill="black"/>
</svg>
