<svg viewBox="0 0 102 14" fill="none" stroke-width="2" stroke="currentColor" aria-hidden="true">
  <path d="M-0.000710189 13.8636V3.36364H1.45099V4.60156H1.57528C1.66146 4.44247 1.78575 4.25852 1.94815 4.04972C2.11056 3.84091 2.33594 3.65862 2.62429 3.50284C2.91264 3.34375 3.2938 3.2642 3.76776 3.2642C4.38423 3.2642 4.93442 3.41998 5.41832 3.73153C5.90223 4.04309 6.28172 4.49219 6.55682 5.07884C6.83523 5.66548 6.97443 6.37145 6.97443 7.19673C6.97443 8.02202 6.83688 8.72964 6.56179 9.3196C6.2867 9.90625 5.90885 10.3587 5.42827 10.6768C4.94768 10.9917 4.39915 11.1491 3.78267 11.1491C3.31866 11.1491 2.93916 11.0713 2.64418 10.9155C2.35251 10.7597 2.12382 10.5774 1.9581 10.3686C1.79238 10.1598 1.66477 9.9742 1.57528 9.81179H1.4858V13.8636H-0.000710189ZM1.45597 7.18182C1.45597 7.71875 1.53385 8.18939 1.68963 8.59375C1.84541 8.99811 2.07079 9.31463 2.36577 9.54332C2.66075 9.7687 3.02202 9.88139 3.44957 9.88139C3.8937 9.88139 4.26491 9.76373 4.56321 9.52841C4.86151 9.28977 5.08688 8.96662 5.23935 8.55895C5.39512 8.15128 5.47301 7.69223 5.47301 7.18182C5.47301 6.67803 5.39678 6.22562 5.24432 5.82457C5.09517 5.42353 4.86979 5.10701 4.56818 4.875C4.26989 4.64299 3.89702 4.52699 3.44957 4.52699C3.0187 4.52699 2.65412 4.63802 2.35582 4.86009C2.06084 5.08215 1.83712 5.39205 1.68466 5.78977C1.5322 6.1875 1.45597 6.65151 1.45597 7.18182ZM11.9311 11.1541C11.1787 11.1541 10.5308 10.9934 9.98722 10.6719C9.44697 10.3471 9.02936 9.89134 8.73438 9.30469C8.44271 8.71473 8.29688 8.02367 8.29688 7.23153C8.29688 6.44934 8.44271 5.75994 8.73438 5.16335C9.02936 4.56676 9.44034 4.10109 9.96733 3.76633C10.4976 3.43158 11.1174 3.2642 11.8267 3.2642C12.2576 3.2642 12.6752 3.33546 13.0795 3.47798C13.4839 3.6205 13.8468 3.84422 14.1683 4.14915C14.4898 4.45407 14.7434 4.85014 14.929 5.33736C15.1146 5.82126 15.2074 6.40956 15.2074 7.10227V7.62926H9.13707V6.51562H13.7507C13.7507 6.12453 13.6712 5.77817 13.5121 5.47656C13.353 5.17164 13.1293 4.93134 12.8409 4.75568C12.5559 4.58002 12.2211 4.49219 11.8366 4.49219C11.419 4.49219 11.0545 4.59493 10.7429 4.80043C10.4347 5.0026 10.196 5.26776 10.027 5.59588C9.86127 5.92069 9.77841 6.27367 9.77841 6.65483V7.52486C9.77841 8.03527 9.8679 8.46946 10.0469 8.82741C10.2292 9.18537 10.4827 9.45881 10.8075 9.64773C11.1323 9.83333 11.5118 9.92614 11.946 9.92614C12.2277 9.92614 12.4846 9.88636 12.7166 9.80682C12.9486 9.72396 13.1491 9.60133 13.3182 9.43892C13.4872 9.27652 13.6165 9.07599 13.706 8.83736L15.1129 9.09091C15.0002 9.50521 14.7981 9.86813 14.5064 10.1797C14.218 10.4879 13.8551 10.7282 13.4176 10.9006C12.9834 11.0696 12.4879 11.1541 11.9311 11.1541ZM16.8567 11V3.36364H18.2935V4.5767H18.373C18.5123 4.16572 18.7575 3.84257 19.1088 3.60724C19.4635 3.36861 19.8645 3.24929 20.312 3.24929C20.4048 3.24929 20.5141 3.2526 20.6401 3.25923C20.7694 3.26586 20.8704 3.27415 20.9434 3.28409V4.70597C20.8837 4.68939 20.7776 4.67116 20.6252 4.65128C20.4727 4.62808 20.3203 4.61648 20.1678 4.61648C19.8165 4.61648 19.5033 4.69105 19.2282 4.8402C18.9564 4.98603 18.7409 5.18987 18.5819 5.4517C18.4228 5.71023 18.3432 6.00521 18.3432 6.33665V11H16.8567ZM27.9521 5.22798L26.6048 5.46662C26.5484 5.29427 26.4589 5.13021 26.3363 4.97443C26.217 4.81865 26.0546 4.69105 25.8491 4.59162C25.6436 4.49219 25.3867 4.44247 25.0785 4.44247C24.6576 4.44247 24.3062 4.53693 24.0245 4.72585C23.7428 4.91146 23.6019 5.15175 23.6019 5.44673C23.6019 5.70194 23.6964 5.90743 23.8853 6.06321C24.0742 6.21899 24.3791 6.34659 24.8001 6.44602L26.0131 6.72443C26.7158 6.88684 27.2395 7.13707 27.5842 7.47514C27.9289 7.81321 28.1012 8.25237 28.1012 8.79261C28.1012 9.25 27.9686 9.65767 27.7035 10.0156C27.4416 10.3703 27.0754 10.6487 26.6048 10.8509C26.1374 11.053 25.5955 11.1541 24.979 11.1541C24.1239 11.1541 23.4263 10.9718 22.886 10.6072C22.3458 10.2393 22.0143 9.71733 21.8917 9.04119L23.3285 8.82244C23.418 9.19697 23.6019 9.48035 23.8803 9.67259C24.1587 9.86151 24.5217 9.95597 24.9691 9.95597C25.4563 9.95597 25.8458 9.85488 26.1374 9.6527C26.4291 9.44721 26.5749 9.19697 26.5749 8.90199C26.5749 8.66335 26.4854 8.46283 26.3065 8.30043C26.1308 8.13802 25.8607 8.01539 25.4961 7.93253L24.2035 7.64915C23.4909 7.48674 22.9639 7.22822 22.6225 6.87358C22.2844 6.51894 22.1154 6.06984 22.1154 5.52628C22.1154 5.07552 22.2414 4.68111 22.4933 4.34304C22.7451 4.00497 23.0932 3.74148 23.5373 3.55256C23.9814 3.36032 24.4902 3.2642 25.0636 3.2642C25.8888 3.2642 26.5385 3.44318 27.0124 3.80114C27.4864 4.15578 27.7996 4.63139 27.9521 5.22798ZM29.7356 13.8636V3.36364H31.1873V4.60156H31.3116C31.3978 4.44247 31.5221 4.25852 31.6845 4.04972C31.8469 3.84091 32.0723 3.65862 32.3606 3.50284C32.649 3.34375 33.0301 3.2642 33.5041 3.2642C34.1206 3.2642 34.6708 3.41998 35.1547 3.73153C35.6386 4.04309 36.0181 4.49219 36.2931 5.07884C36.5716 5.66548 36.7108 6.37145 36.7108 7.19673C36.7108 8.02202 36.5732 8.72964 36.2981 9.3196C36.023 9.90625 35.6452 10.3587 35.1646 10.6768C34.684 10.9917 34.1355 11.1491 33.519 11.1491C33.055 11.1491 32.6755 11.0713 32.3805 10.9155C32.0888 10.7597 31.8601 10.5774 31.6944 10.3686C31.5287 10.1598 31.4011 9.9742 31.3116 9.81179H31.2221V13.8636H29.7356ZM31.1923 7.18182C31.1923 7.71875 31.2702 8.18939 31.426 8.59375C31.5817 8.99811 31.8071 9.31463 32.1021 9.54332C32.3971 9.7687 32.7583 9.88139 33.1859 9.88139C33.63 9.88139 34.0012 9.76373 34.2995 9.52841C34.5978 9.28977 34.8232 8.96662 34.9757 8.55895C35.1315 8.15128 35.2093 7.69223 35.2093 7.18182C35.2093 6.67803 35.1331 6.22562 34.9806 5.82457C34.8315 5.42353 34.6061 5.10701 34.3045 4.875C34.0062 4.64299 33.6333 4.52699 33.1859 4.52699C32.755 4.52699 32.3904 4.63802 32.0922 4.86009C31.7972 5.08215 31.5734 5.39205 31.421 5.78977C31.2685 6.1875 31.1923 6.65151 31.1923 7.18182ZM41.6674 11.1541C40.9151 11.1541 40.2671 10.9934 39.7235 10.6719C39.1833 10.3471 38.7657 9.89134 38.4707 9.30469C38.179 8.71473 38.0332 8.02367 38.0332 7.23153C38.0332 6.44934 38.179 5.75994 38.4707 5.16335C38.7657 4.56676 39.1767 4.10109 39.7037 3.76633C40.234 3.43158 40.8538 3.2642 41.563 3.2642C41.9939 3.2642 42.4115 3.33546 42.8159 3.47798C43.2202 3.6205 43.5832 3.84422 43.9047 4.14915C44.2261 4.45407 44.4797 4.85014 44.6653 5.33736C44.8509 5.82126 44.9437 6.40956 44.9437 7.10227V7.62926H38.8734V6.51562H43.487C43.487 6.12453 43.4075 5.77817 43.2484 5.47656C43.0893 5.17164 42.8656 4.93134 42.5772 4.75568C42.2922 4.58002 41.9574 4.49219 41.573 4.49219C41.1554 4.49219 40.7908 4.59493 40.4792 4.80043C40.171 5.0026 39.9324 5.26776 39.7633 5.59588C39.5976 5.92069 39.5147 6.27367 39.5147 6.65483V7.52486C39.5147 8.03527 39.6042 8.46946 39.7832 8.82741C39.9655 9.18537 40.219 9.45881 40.5439 9.64773C40.8687 9.83333 41.2482 9.92614 41.6824 9.92614C41.9641 9.92614 42.2209 9.88636 42.4529 9.80682C42.685 9.72396 42.8855 9.60133 43.0545 9.43892C43.2235 9.27652 43.3528 9.07599 43.4423 8.83736L44.8493 9.09091C44.7366 9.50521 44.5344 9.86813 44.2427 10.1797C43.9544 10.4879 43.5914 10.7282 43.1539 10.9006C42.7198 11.0696 42.2243 11.1541 41.6674 11.1541ZM49.8097 11.1541C49.0705 11.1541 48.4342 10.9867 47.9006 10.652C47.3703 10.3139 46.9626 9.84825 46.6776 9.25497C46.3925 8.66169 46.25 7.98224 46.25 7.21662C46.25 6.44105 46.3958 5.75663 46.6875 5.16335C46.9792 4.56676 47.3902 4.10109 47.9205 3.76633C48.4508 3.43158 49.0755 3.2642 49.7947 3.2642C50.3748 3.2642 50.8918 3.37192 51.3459 3.58736C51.8 3.79948 52.1662 4.09777 52.4446 4.48224C52.7263 4.86671 52.8937 5.31581 52.9467 5.82955H51.5C51.4205 5.47159 51.2382 5.16335 50.9531 4.90483C50.6714 4.64631 50.2936 4.51705 49.8196 4.51705C49.4053 4.51705 49.0424 4.62642 48.7308 4.84517C48.4226 5.06061 48.1823 5.36884 48.0099 5.76989C47.8376 6.16761 47.7514 6.63826 47.7514 7.18182C47.7514 7.73864 47.8359 8.21922 48.005 8.62358C48.174 9.02794 48.4126 9.34115 48.7209 9.56321C49.0324 9.78527 49.3987 9.89631 49.8196 9.89631C50.1013 9.89631 50.3565 9.84493 50.5852 9.74219C50.8172 9.63613 51.0111 9.48532 51.1669 9.28977C51.326 9.09422 51.437 8.8589 51.5 8.58381H52.9467C52.8937 9.07765 52.733 9.51847 52.4645 9.90625C52.196 10.294 51.8364 10.599 51.3857 10.821C50.9382 11.0431 50.4129 11.1541 49.8097 11.1541ZM58.101 3.36364V4.55682H53.9299V3.36364H58.101ZM55.0485 1.53409H56.535V8.75781C56.535 9.04616 56.5781 9.26326 56.6642 9.40909C56.7504 9.55161 56.8614 9.64938 56.9973 9.70241C57.1365 9.75213 57.2873 9.77699 57.4498 9.77699C57.5691 9.77699 57.6735 9.7687 57.763 9.75213C57.8525 9.73556 57.9221 9.7223 57.9718 9.71236L58.2402 10.9403C58.1541 10.9735 58.0314 11.0066 57.8723 11.0398C57.7132 11.0762 57.5144 11.0961 57.2757 11.0994C56.8846 11.1061 56.5201 11.0365 56.182 10.8906C55.8439 10.7448 55.5705 10.5194 55.3617 10.2145C55.1529 9.90956 55.0485 9.52675 55.0485 9.06605V1.53409ZM59.7454 11V3.36364H61.2319V11H59.7454ZM60.4961 2.18537C60.2376 2.18537 60.0155 2.09919 59.8299 1.92685C59.6476 1.75118 59.5565 1.54238 59.5565 1.30043C59.5565 1.05516 59.6476 0.846354 59.8299 0.674005C60.0155 0.498342 60.2376 0.410511 60.4961 0.410511C60.7546 0.410511 60.975 0.498342 61.1573 0.674005C61.3429 0.846354 61.4357 1.05516 61.4357 1.30043C61.4357 1.54238 61.3429 1.75118 61.1573 1.92685C60.975 2.09919 60.7546 2.18537 60.4961 2.18537ZM69.7644 3.36364L66.9952 11H65.4043L62.6301 3.36364H64.226L66.16 9.24006H66.2395L68.1685 3.36364H69.7644ZM74.1928 11.1541C73.4405 11.1541 72.7925 10.9934 72.2489 10.6719C71.7087 10.3471 71.2911 9.89134 70.9961 9.30469C70.7044 8.71473 70.5586 8.02367 70.5586 7.23153C70.5586 6.44934 70.7044 5.75994 70.9961 5.16335C71.2911 4.56676 71.7021 4.10109 72.229 3.76633C72.7594 3.43158 73.3791 3.2642 74.0884 3.2642C74.5193 3.2642 74.9369 3.33546 75.3413 3.47798C75.7456 3.6205 76.1085 3.84422 76.43 4.14915C76.7515 4.45407 77.0051 4.85014 77.1907 5.33736C77.3763 5.82126 77.4691 6.40956 77.4691 7.10227V7.62926H71.3988V6.51562H76.0124C76.0124 6.12453 75.9329 5.77817 75.7738 5.47656C75.6147 5.17164 75.391 4.93134 75.1026 4.75568C74.8176 4.58002 74.4828 4.49219 74.0984 4.49219C73.6808 4.49219 73.3162 4.59493 73.0046 4.80043C72.6964 5.0026 72.4577 5.26776 72.2887 5.59588C72.123 5.92069 72.0401 6.27367 72.0401 6.65483V7.52486C72.0401 8.03527 72.1296 8.46946 72.3086 8.82741C72.4909 9.18537 72.7444 9.45881 73.0692 9.64773C73.3941 9.83333 73.7736 9.92614 74.2077 9.92614C74.4895 9.92614 74.7463 9.88636 74.9783 9.80682C75.2103 9.72396 75.4109 9.60133 75.5799 9.43892C75.7489 9.27652 75.8782 9.07599 75.9677 8.83736L77.3746 9.09091C77.262 9.50521 77.0598 9.86813 76.7681 10.1797C76.4798 10.4879 76.1168 10.7282 75.6793 10.9006C75.2451 11.0696 74.7496 11.1541 74.1928 11.1541ZM83.6177 6.05327V7.34091H79.1035V6.05327H83.6177ZM89.1238 11.169C88.3382 11.1657 87.6671 10.9586 87.1103 10.5476C86.5534 10.1366 86.1275 9.53835 85.8326 8.75284C85.5376 7.96733 85.3901 7.02107 85.3901 5.91406C85.3901 4.81037 85.5376 3.86742 85.8326 3.08523C86.1309 2.30303 86.5584 1.70644 87.1152 1.29545C87.6754 0.884469 88.3449 0.678977 89.1238 0.678977C89.9026 0.678977 90.5705 0.886126 91.1273 1.30043C91.6841 1.71141 92.11 2.308 92.405 3.0902C92.7033 3.86908 92.8525 4.81037 92.8525 5.91406C92.8525 7.02438 92.705 7.9723 92.41 8.75781C92.115 9.54001 91.6891 10.1383 91.1323 10.5526C90.5755 10.9635 89.906 11.169 89.1238 11.169ZM89.1238 9.84162C89.8132 9.84162 90.3517 9.50521 90.7395 8.83239C91.1306 8.15956 91.3262 7.18679 91.3262 5.91406C91.3262 5.06889 91.2367 4.35464 91.0577 3.77131C90.882 3.18466 90.6285 2.74053 90.2971 2.43892C89.9689 2.134 89.5778 1.98153 89.1238 1.98153C88.4377 1.98153 87.8991 2.3196 87.508 2.99574C87.1169 3.67187 86.9197 4.64465 86.9164 5.91406C86.9164 6.76255 87.0042 7.48011 87.1799 8.06676C87.3588 8.65009 87.6124 9.09257 87.9405 9.39418C88.2686 9.69247 88.6631 9.84162 89.1238 9.84162ZM94.6161 11V9.88636L98.0614 6.31676C98.4293 5.92898 98.7326 5.58925 98.9712 5.29759C99.2132 5.0026 99.3938 4.72254 99.5131 4.45739C99.6325 4.19223 99.6921 3.91051 99.6921 3.61222C99.6921 3.27415 99.6126 2.98248 99.4535 2.73722C99.2944 2.48864 99.0773 2.29806 98.8022 2.16548C98.5271 2.02959 98.2172 1.96165 97.8725 1.96165C97.5079 1.96165 97.1897 2.03622 96.918 2.18537C96.6462 2.33452 96.4374 2.54498 96.2915 2.81676C96.1457 3.08854 96.0728 3.40672 96.0728 3.77131H94.6062C94.6062 3.15151 94.7487 2.60961 95.0337 2.1456C95.3188 1.68158 95.7099 1.32197 96.207 1.06676C96.7042 0.808238 97.2693 0.678977 97.9023 0.678977C98.542 0.678977 99.1055 0.806581 99.5927 1.06179C100.083 1.31368 100.466 1.65838 100.741 2.09588C101.016 2.53007 101.154 3.0206 101.154 3.56747C101.154 3.94531 101.083 4.31487 100.94 4.67614C100.801 5.0374 100.557 5.4401 100.209 5.88423C99.8612 6.32505 99.3772 6.86032 98.7575 7.49006L96.734 9.60795V9.68253H101.318V11H94.6161Z" fill="black"/>
</svg>
