<svg viewBox="0 0 52 12" fill="none" stroke-width="2" stroke="currentColor" aria-hidden="true">
  <path d="M0.99929 11V3.36364H2.4858V11H0.99929ZM1.75 2.18537C1.49148 2.18537 1.26941 2.09919 1.08381 1.92685C0.901515 1.75118 0.810369 1.54238 0.810369 1.30043C0.810369 1.05516 0.901515 0.846354 1.08381 0.674005C1.26941 0.498342 1.49148 0.410511 1.75 0.410511C2.00852 0.410511 2.22893 0.498342 2.41122 0.674005C2.59683 0.846354 2.68963 1.05516 2.68963 1.30043C2.68963 1.54238 2.59683 1.75118 2.41122 1.92685C2.22893 2.09919 2.00852 2.18537 1.75 2.18537ZM8.05025 3.36364V4.55682H3.87908V3.36364H8.05025ZM4.99769 1.53409H6.4842V8.75781C6.4842 9.04616 6.52728 9.26326 6.61346 9.40909C6.69963 9.55161 6.81067 9.64938 6.94656 9.70241C7.08576 9.75213 7.23656 9.77699 7.39897 9.77699C7.51829 9.77699 7.62269 9.7687 7.71218 9.75213C7.80167 9.73556 7.87127 9.7223 7.92099 9.71236L8.18945 10.9403C8.10328 10.9735 7.98065 11.0066 7.82156 11.0398C7.66246 11.0762 7.4636 11.0961 7.22496 11.0994C6.83387 11.1061 6.46928 11.0365 6.13121 10.8906C5.79315 10.7448 5.51971 10.5194 5.3109 10.2145C5.1021 9.90956 4.99769 9.52675 4.99769 9.06605V1.53409ZM11.9169 11.169C11.433 11.169 10.9955 11.0795 10.6044 10.9006C10.2133 10.7183 9.90341 10.4548 9.67472 10.1101C9.44934 9.76539 9.33665 9.3428 9.33665 8.84233C9.33665 8.41146 9.41951 8.05682 9.58523 7.77841C9.75095 7.5 9.97467 7.27959 10.2564 7.11719C10.5381 6.95478 10.853 6.83215 11.201 6.74929C11.549 6.66643 11.9036 6.60346 12.2649 6.56037C12.7223 6.50734 13.0935 6.46425 13.3786 6.43111C13.6636 6.39465 13.8707 6.33665 14 6.2571C14.1293 6.17756 14.1939 6.0483 14.1939 5.86932V5.83452C14.1939 5.40033 14.0713 5.06392 13.826 4.82528C13.584 4.58665 13.2228 4.46733 12.7422 4.46733C12.2417 4.46733 11.8473 4.57836 11.5589 4.80043C11.2739 5.01918 11.0767 5.26278 10.9673 5.53125L9.57031 5.21307C9.73603 4.74905 9.97798 4.37453 10.2962 4.08949C10.6177 3.80114 10.9872 3.59233 11.4048 3.46307C11.8224 3.33049 12.2616 3.2642 12.7223 3.2642C13.0272 3.2642 13.3504 3.30066 13.6918 3.37358C14.0365 3.44318 14.358 3.57244 14.6562 3.76136C14.9579 3.95028 15.2048 4.22041 15.397 4.57173C15.5893 4.91974 15.6854 5.37216 15.6854 5.92898V11H14.2337V9.95597H14.174C14.0779 10.1482 13.9337 10.3371 13.7415 10.5227C13.5492 10.7083 13.3023 10.8625 13.0007 10.9851C12.6991 11.1077 12.3378 11.169 11.9169 11.169ZM12.2401 9.97585C12.651 9.97585 13.0024 9.89465 13.294 9.73224C13.589 9.56984 13.8127 9.35772 13.9652 9.09588C14.121 8.83073 14.1989 8.54735 14.1989 8.24574V7.26136C14.1458 7.31439 14.0431 7.36411 13.8906 7.41051C13.7415 7.4536 13.5708 7.49171 13.3786 7.52486C13.1863 7.55469 12.9991 7.58286 12.8168 7.60938C12.6345 7.63258 12.482 7.65246 12.3594 7.66903C12.071 7.70549 11.8075 7.76681 11.5689 7.85298C11.3336 7.93916 11.1446 8.06345 11.0021 8.22585C10.8629 8.38494 10.7933 8.59706 10.7933 8.86222C10.7933 9.23011 10.9292 9.50852 11.201 9.69744C11.4728 9.88305 11.8191 9.97585 12.2401 9.97585ZM19.1518 0.818182V11H17.6653V0.818182H19.1518ZM21.1516 11V3.36364H22.6381V11H21.1516ZM21.9023 2.18537C21.6438 2.18537 21.4218 2.09919 21.2362 1.92685C21.0539 1.75118 20.9627 1.54238 20.9627 1.30043C20.9627 1.05516 21.0539 0.846354 21.2362 0.674005C21.4218 0.498342 21.6438 0.410511 21.9023 0.410511C22.1609 0.410511 22.3813 0.498342 22.5636 0.674005C22.7492 0.846354 22.842 1.05516 22.842 1.30043C22.842 1.54238 22.7492 1.75118 22.5636 1.92685C22.3813 2.09919 22.1609 2.18537 21.9023 2.18537ZM27.8546 11.1541C27.1155 11.1541 26.4791 10.9867 25.9455 10.652C25.4152 10.3139 25.0075 9.84825 24.7225 9.25497C24.4374 8.66169 24.2949 7.98224 24.2949 7.21662C24.2949 6.44105 24.4408 5.75663 24.7324 5.16335C25.0241 4.56676 25.4351 4.10109 25.9654 3.76633C26.4957 3.43158 27.1204 3.2642 27.8397 3.2642C28.4197 3.2642 28.9367 3.37192 29.3908 3.58736C29.8449 3.79948 30.2111 4.09777 30.4895 4.48224C30.7712 4.86671 30.9386 5.31581 30.9917 5.82955H29.5449C29.4654 5.47159 29.2831 5.16335 28.998 4.90483C28.7163 4.64631 28.3385 4.51705 27.8645 4.51705C27.4502 4.51705 27.0873 4.62642 26.7757 4.84517C26.4675 5.06061 26.2272 5.36884 26.0549 5.76989C25.8825 6.16761 25.7963 6.63826 25.7963 7.18182C25.7963 7.73864 25.8809 8.21922 26.0499 8.62358C26.2189 9.02794 26.4576 9.34115 26.7658 9.56321C27.0774 9.78527 27.4436 9.89631 27.8645 9.89631C28.1462 9.89631 28.4015 9.84493 28.6301 9.74219C28.8622 9.63613 29.056 9.48532 29.2118 9.28977C29.3709 9.09422 29.4819 8.8589 29.5449 8.58381H30.9917C30.9386 9.07765 30.7779 9.51847 30.5094 9.90625C30.2409 10.294 29.8813 10.599 29.4306 10.821C28.9831 11.0431 28.4578 11.1541 27.8546 11.1541ZM37.0806 6.05327V7.34091H32.5664V6.05327H37.0806ZM42.5866 11.169C41.8011 11.1657 41.13 10.9586 40.5732 10.5476C40.0163 10.1366 39.5904 9.53835 39.2955 8.75284C39.0005 7.96733 38.853 7.02107 38.853 5.91406C38.853 4.81037 39.0005 3.86742 39.2955 3.08523C39.5938 2.30303 40.0213 1.70644 40.5781 1.29545C41.1383 0.884469 41.8078 0.678977 42.5866 0.678977C43.3655 0.678977 44.0334 0.886126 44.5902 1.30043C45.147 1.71141 45.5729 2.308 45.8679 3.0902C46.1662 3.86908 46.3153 4.81037 46.3153 5.91406C46.3153 7.02438 46.1679 7.9723 45.8729 8.75781C45.5779 9.54001 45.152 10.1383 44.5952 10.5526C44.0384 10.9635 43.3688 11.169 42.5866 11.169ZM42.5866 9.84162C43.276 9.84162 43.8146 9.50521 44.2024 8.83239C44.5935 8.15956 44.7891 7.18679 44.7891 5.91406C44.7891 5.06889 44.6996 4.35464 44.5206 3.77131C44.3449 3.18466 44.0914 2.74053 43.7599 2.43892C43.4318 2.134 43.0407 1.98153 42.5866 1.98153C41.9006 1.98153 41.362 2.3196 40.9709 2.99574C40.5798 3.67187 40.3826 4.64465 40.3793 5.91406C40.3793 6.76255 40.4671 7.48011 40.6428 8.06676C40.8217 8.65009 41.0753 9.09257 41.4034 9.39418C41.7315 9.69247 42.1259 9.84162 42.5866 9.84162ZM51.9419 0.818182V11H50.4007V2.35938H50.3411L47.905 3.95028V2.47869L50.4455 0.818182H51.9419Z" fill="black"/>
</svg>
