<svg viewBox="0 0 126 15" fill="none" stroke-width="2" stroke="currentColor" aria-hidden="true">
  <path d="M-0.000710189 13.8636V3.36364H1.45099V4.60156H1.57528C1.66146 4.44247 1.78575 4.25852 1.94815 4.04972C2.11056 3.84091 2.33594 3.65862 2.62429 3.50284C2.91264 3.34375 3.2938 3.2642 3.76776 3.2642C4.38423 3.2642 4.93442 3.41998 5.41832 3.73153C5.90223 4.04309 6.28172 4.49219 6.55682 5.07884C6.83523 5.66548 6.97443 6.37145 6.97443 7.19673C6.97443 8.02202 6.83688 8.72964 6.56179 9.3196C6.2867 9.90625 5.90885 10.3587 5.42827 10.6768C4.94768 10.9917 4.39915 11.1491 3.78267 11.1491C3.31866 11.1491 2.93916 11.0713 2.64418 10.9155C2.35251 10.7597 2.12382 10.5774 1.9581 10.3686C1.79238 10.1598 1.66477 9.9742 1.57528 9.81179H1.4858V13.8636H-0.000710189ZM1.45597 7.18182C1.45597 7.71875 1.53385 8.18939 1.68963 8.59375C1.84541 8.99811 2.07079 9.31463 2.36577 9.54332C2.66075 9.7687 3.02202 9.88139 3.44957 9.88139C3.8937 9.88139 4.26491 9.76373 4.56321 9.52841C4.86151 9.28977 5.08688 8.96662 5.23935 8.55895C5.39512 8.15128 5.47301 7.69223 5.47301 7.18182C5.47301 6.67803 5.39678 6.22562 5.24432 5.82457C5.09517 5.42353 4.86979 5.10701 4.56818 4.875C4.26989 4.64299 3.89702 4.52699 3.44957 4.52699C3.0187 4.52699 2.65412 4.63802 2.35582 4.86009C2.06084 5.08215 1.83712 5.39205 1.68466 5.78977C1.5322 6.1875 1.45597 6.65151 1.45597 7.18182ZM10.8622 11.169C10.3783 11.169 9.94081 11.0795 9.54972 10.9006C9.15862 10.7183 8.84872 10.4548 8.62003 10.1101C8.39465 9.76539 8.28196 9.3428 8.28196 8.84233C8.28196 8.41146 8.36482 8.05682 8.53054 7.77841C8.69626 7.5 8.91998 7.27959 9.2017 7.11719C9.48343 6.95478 9.7983 6.83215 10.1463 6.74929C10.4943 6.66643 10.849 6.60346 11.2102 6.56037C11.6676 6.50734 12.0388 6.46425 12.3239 6.43111C12.6089 6.39465 12.8161 6.33665 12.9453 6.2571C13.0746 6.17756 13.1392 6.0483 13.1392 5.86932V5.83452C13.1392 5.40033 13.0166 5.06392 12.7713 4.82528C12.5294 4.58665 12.1681 4.46733 11.6875 4.46733C11.187 4.46733 10.7926 4.57836 10.5043 4.80043C10.2192 5.01918 10.022 5.26278 9.91264 5.53125L8.51562 5.21307C8.68134 4.74905 8.9233 4.37453 9.24148 4.08949C9.56297 3.80114 9.93253 3.59233 10.3501 3.46307C10.7678 3.33049 11.2069 3.2642 11.6676 3.2642C11.9725 3.2642 12.2957 3.30066 12.6371 3.37358C12.9818 3.44318 13.3033 3.57244 13.6016 3.76136C13.9032 3.95028 14.1501 4.22041 14.3423 4.57173C14.5346 4.91974 14.6307 5.37216 14.6307 5.92898V11H13.179V9.95597H13.1193C13.0232 10.1482 12.879 10.3371 12.6868 10.5227C12.4946 10.7083 12.2476 10.8625 11.946 10.9851C11.6444 11.1077 11.2831 11.169 10.8622 11.169ZM11.1854 9.97585C11.5964 9.97585 11.9477 9.89465 12.2393 9.73224C12.5343 9.56984 12.758 9.35772 12.9105 9.09588C13.0663 8.83073 13.1442 8.54735 13.1442 8.24574V7.26136C13.0911 7.31439 12.9884 7.36411 12.8359 7.41051C12.6868 7.4536 12.5161 7.49171 12.3239 7.52486C12.1316 7.55469 11.9444 7.58286 11.7621 7.60938C11.5798 7.63258 11.4273 7.65246 11.3047 7.66903C11.0163 7.70549 10.7528 7.76681 10.5142 7.85298C10.2789 7.93916 10.09 8.06345 9.94744 8.22585C9.80824 8.38494 9.73864 8.59706 9.73864 8.86222C9.73864 9.23011 9.87453 9.50852 10.1463 9.69744C10.4181 9.88305 10.7644 9.97585 11.1854 9.97585ZM16.6106 11V3.36364H18.0474V4.5767H18.127C18.2662 4.16572 18.5114 3.84257 18.8627 3.60724C19.2174 3.36861 19.6184 3.24929 20.0659 3.24929C20.1587 3.24929 20.2681 3.2526 20.394 3.25923C20.5233 3.26586 20.6243 3.27415 20.6973 3.28409V4.70597C20.6376 4.68939 20.5315 4.67116 20.3791 4.65128C20.2266 4.62808 20.0742 4.61648 19.9217 4.61648C19.5704 4.61648 19.2572 4.69105 18.9821 4.8402C18.7103 4.98603 18.4949 5.18987 18.3358 5.4517C18.1767 5.71023 18.0971 6.00521 18.0971 6.33665V11H16.6106ZM24.1376 11.169C23.6537 11.169 23.2162 11.0795 22.8251 10.9006C22.434 10.7183 22.1241 10.4548 21.8954 10.1101C21.67 9.76539 21.5574 9.3428 21.5574 8.84233C21.5574 8.41146 21.6402 8.05682 21.8059 7.77841C21.9717 7.5 22.1954 7.27959 22.4771 7.11719C22.7588 6.95478 23.0737 6.83215 23.4217 6.74929C23.7697 6.66643 24.1243 6.60346 24.4856 6.56037C24.943 6.50734 25.3142 6.46425 25.5993 6.43111C25.8843 6.39465 26.0914 6.33665 26.2207 6.2571C26.35 6.17756 26.4146 6.0483 26.4146 5.86932V5.83452C26.4146 5.40033 26.292 5.06392 26.0467 4.82528C25.8047 4.58665 25.4435 4.46733 24.9629 4.46733C24.4624 4.46733 24.068 4.57836 23.7797 4.80043C23.4946 5.01918 23.2974 5.26278 23.188 5.53125L21.791 5.21307C21.9567 4.74905 22.1987 4.37453 22.5169 4.08949C22.8384 3.80114 23.2079 3.59233 23.6255 3.46307C24.0431 3.33049 24.4823 3.2642 24.943 3.2642C25.2479 3.2642 25.5711 3.30066 25.9125 3.37358C26.2572 3.44318 26.5787 3.57244 26.877 3.76136C27.1786 3.95028 27.4255 4.22041 27.6177 4.57173C27.81 4.91974 27.9061 5.37216 27.9061 5.92898V11H26.4544V9.95597H26.3947C26.2986 10.1482 26.1544 10.3371 25.9622 10.5227C25.7699 10.7083 25.523 10.8625 25.2214 10.9851C24.9198 11.1077 24.5585 11.169 24.1376 11.169ZM24.4608 9.97585C24.8717 9.97585 25.2231 9.89465 25.5147 9.73224C25.8097 9.56984 26.0334 9.35772 26.1859 9.09588C26.3417 8.83073 26.4196 8.54735 26.4196 8.24574V7.26136C26.3665 7.31439 26.2638 7.36411 26.1113 7.41051C25.9622 7.4536 25.7915 7.49171 25.5993 7.52486C25.407 7.55469 25.2198 7.58286 25.0375 7.60938C24.8552 7.63258 24.7027 7.65246 24.5801 7.66903C24.2917 7.70549 24.0282 7.76681 23.7896 7.85298C23.5543 7.93916 23.3654 8.06345 23.2228 8.22585C23.0836 8.38494 23.014 8.59706 23.014 8.86222C23.014 9.23011 23.1499 9.50852 23.4217 9.69744C23.6935 9.88305 24.0398 9.97585 24.4608 9.97585ZM33.0877 14.0227C32.4812 14.0227 31.9592 13.9432 31.5217 13.7841C31.0875 13.625 30.7328 13.4145 30.4577 13.1527C30.1826 12.8909 29.9772 12.6042 29.8413 12.2926L31.119 11.7656C31.2085 11.9115 31.3278 12.0656 31.4769 12.228C31.6294 12.3937 31.8349 12.5346 32.0934 12.6506C32.3552 12.7666 32.6916 12.8246 33.1026 12.8246C33.6661 12.8246 34.1317 12.687 34.4996 12.4119C34.8675 12.1402 35.0515 11.706 35.0515 11.1094V9.60795H34.957C34.8675 9.77036 34.7383 9.95099 34.5692 10.1499C34.4035 10.3487 34.1748 10.5211 33.8832 10.6669C33.5915 10.8127 33.212 10.8857 32.7447 10.8857C32.1415 10.8857 31.5979 10.7448 31.114 10.4631C30.6334 10.178 30.2522 9.75876 29.9705 9.20526C29.6921 8.64844 29.5529 7.96401 29.5529 7.15199C29.5529 6.33996 29.6905 5.64394 29.9656 5.06392C30.244 4.4839 30.6251 4.03977 31.109 3.73153C31.5929 3.41998 32.1415 3.2642 32.7546 3.2642C33.2286 3.2642 33.6114 3.34375 33.9031 3.50284C34.1947 3.65862 34.4218 3.84091 34.5842 4.04972C34.7499 4.25852 34.8775 4.44247 34.967 4.60156H35.0763V3.36364H36.533V11.169C36.533 11.8253 36.3806 12.3639 36.0756 12.7848C35.7707 13.2057 35.3581 13.5173 34.8377 13.7195C34.3207 13.9216 33.7373 14.0227 33.0877 14.0227ZM33.0728 9.6527C33.5004 9.6527 33.8616 9.55327 34.1566 9.3544C34.4549 9.15223 34.6803 8.86387 34.8327 8.48935C34.9885 8.11151 35.0664 7.65909 35.0664 7.1321C35.0664 6.61837 34.9902 6.16596 34.8377 5.77486C34.6853 5.38376 34.4615 5.07884 34.1665 4.86009C33.8716 4.63802 33.507 4.52699 33.0728 4.52699C32.6254 4.52699 32.2525 4.64299 31.9542 4.875C31.6559 5.10369 31.4305 5.41525 31.2781 5.80966C31.1289 6.20407 31.0543 6.64489 31.0543 7.1321C31.0543 7.63258 31.1306 8.07173 31.283 8.44957C31.4355 8.82741 31.6609 9.1224 31.9592 9.33452C32.2608 9.54664 32.632 9.6527 33.0728 9.6527ZM38.5266 11V3.36364H39.9634V4.5767H40.043C40.1822 4.16572 40.4274 3.84257 40.7788 3.60724C41.1334 3.36861 41.5344 3.24929 41.9819 3.24929C42.0747 3.24929 42.1841 3.2526 42.31 3.25923C42.4393 3.26586 42.5404 3.27415 42.6133 3.28409V4.70597C42.5536 4.68939 42.4476 4.67116 42.2951 4.65128C42.1426 4.62808 41.9902 4.61648 41.8377 4.61648C41.4864 4.61648 41.1732 4.69105 40.8981 4.8402C40.6263 4.98603 40.4109 5.18987 40.2518 5.4517C40.0927 5.71023 40.0131 6.00521 40.0131 6.33665V11H38.5266ZM46.0536 11.169C45.5697 11.169 45.1322 11.0795 44.7411 10.9006C44.35 10.7183 44.0401 10.4548 43.8114 10.1101C43.5861 9.76539 43.4734 9.3428 43.4734 8.84233C43.4734 8.41146 43.5562 8.05682 43.7219 7.77841C43.8877 7.5 44.1114 7.27959 44.3931 7.11719C44.6748 6.95478 44.9897 6.83215 45.3377 6.74929C45.6857 6.66643 46.0404 6.60346 46.4016 6.56037C46.859 6.50734 47.2302 6.46425 47.5153 6.43111C47.8003 6.39465 48.0075 6.33665 48.1367 6.2571C48.266 6.17756 48.3306 6.0483 48.3306 5.86932V5.83452C48.3306 5.40033 48.208 5.06392 47.9627 4.82528C47.7208 4.58665 47.3595 4.46733 46.8789 4.46733C46.3784 4.46733 45.984 4.57836 45.6957 4.80043C45.4106 5.01918 45.2134 5.26278 45.104 5.53125L43.707 5.21307C43.8728 4.74905 44.1147 4.37453 44.4329 4.08949C44.7544 3.80114 45.1239 3.59233 45.5415 3.46307C45.9592 3.33049 46.3983 3.2642 46.859 3.2642C47.1639 3.2642 47.4871 3.30066 47.8285 3.37358C48.1732 3.44318 48.4947 3.57244 48.793 3.76136C49.0946 3.95028 49.3415 4.22041 49.5337 4.57173C49.726 4.91974 49.8221 5.37216 49.8221 5.92898V11H48.3704V9.95597H48.3107C48.2146 10.1482 48.0704 10.3371 47.8782 10.5227C47.686 10.7083 47.439 10.8625 47.1374 10.9851C46.8358 11.1077 46.4746 11.169 46.0536 11.169ZM46.3768 9.97585C46.7878 9.97585 47.1391 9.89465 47.4308 9.73224C47.7257 9.56984 47.9495 9.35772 48.1019 9.09588C48.2577 8.83073 48.3356 8.54735 48.3356 8.24574V7.26136C48.2826 7.31439 48.1798 7.36411 48.0273 7.41051C47.8782 7.4536 47.7075 7.49171 47.5153 7.52486C47.323 7.55469 47.1358 7.58286 46.9535 7.60938C46.7712 7.63258 46.6187 7.65246 46.4961 7.66903C46.2077 7.70549 45.9442 7.76681 45.7056 7.85298C45.4703 7.93916 45.2814 8.06345 45.1388 8.22585C44.9996 8.38494 44.93 8.59706 44.93 8.86222C44.93 9.23011 45.0659 9.50852 45.3377 9.69744C45.6095 9.88305 45.9558 9.97585 46.3768 9.97585ZM51.802 13.8636V3.36364H53.2537V4.60156H53.378C53.4642 4.44247 53.5885 4.25852 53.7509 4.04972C53.9133 3.84091 54.1387 3.65862 54.427 3.50284C54.7154 3.34375 55.0965 3.2642 55.5705 3.2642C56.187 3.2642 56.7372 3.41998 57.2211 3.73153C57.705 4.04309 58.0845 4.49219 58.3596 5.07884C58.638 5.66548 58.7772 6.37145 58.7772 7.19673C58.7772 8.02202 58.6396 8.72964 58.3645 9.3196C58.0894 9.90625 57.7116 10.3587 57.231 10.6768C56.7504 10.9917 56.2019 11.1491 55.5854 11.1491C55.1214 11.1491 54.7419 11.0713 54.4469 10.9155C54.1552 10.7597 53.9266 10.5774 53.7608 10.3686C53.5951 10.1598 53.4675 9.9742 53.378 9.81179H53.2885V13.8636H51.802ZM53.2587 7.18182C53.2587 7.71875 53.3366 8.18939 53.4924 8.59375C53.6481 8.99811 53.8735 9.31463 54.1685 9.54332C54.4635 9.7687 54.8248 9.88139 55.2523 9.88139C55.6964 9.88139 56.0676 9.76373 56.3659 9.52841C56.6642 9.28977 56.8896 8.96662 57.0421 8.55895C57.1979 8.15128 57.2757 7.69223 57.2757 7.18182C57.2757 6.67803 57.1995 6.22562 57.0471 5.82457C56.8979 5.42353 56.6725 5.10701 56.3709 4.875C56.0726 4.64299 55.6998 4.52699 55.2523 4.52699C54.8214 4.52699 54.4569 4.63802 54.1586 4.86009C53.8636 5.08215 53.6399 5.39205 53.4874 5.78977C53.3349 6.1875 53.2587 6.65151 53.2587 7.18182ZM61.9292 6.46591V11H60.4426V0.818182H61.9093V4.60653H62.0037C62.1827 4.19555 62.4561 3.86908 62.824 3.62713C63.1919 3.38518 63.6725 3.2642 64.2658 3.2642C64.7895 3.2642 65.2469 3.37192 65.638 3.58736C66.0324 3.80279 66.3373 4.12429 66.5527 4.55185C66.7715 4.97609 66.8809 5.50639 66.8809 6.14276V11H65.3944V6.32173C65.3944 5.7616 65.2502 5.32741 64.9618 5.01918C64.6735 4.70762 64.2724 4.55185 63.7587 4.55185C63.4074 4.55185 63.0925 4.62642 62.8141 4.77557C62.539 4.92472 62.3219 5.14347 62.1628 5.43182C62.007 5.71686 61.9292 6.06155 61.9292 6.46591ZM73.3638 6.05327V7.34091H68.8496V6.05327H73.3638ZM81.0673 5.22798L79.72 5.46662C79.6636 5.29427 79.5742 5.13021 79.4515 4.97443C79.3322 4.81865 79.1698 4.69105 78.9643 4.59162C78.7588 4.49219 78.502 4.44247 78.1937 4.44247C77.7728 4.44247 77.4215 4.53693 77.1397 4.72585C76.858 4.91146 76.7172 5.15175 76.7172 5.44673C76.7172 5.70194 76.8116 5.90743 77.0005 6.06321C77.1895 6.21899 77.4944 6.34659 77.9153 6.44602L79.1284 6.72443C79.831 6.88684 80.3547 7.13707 80.6994 7.47514C81.0441 7.81321 81.2164 8.25237 81.2164 8.79261C81.2164 9.25 81.0839 9.65767 80.8187 10.0156C80.5569 10.3703 80.1906 10.6487 79.72 10.8509C79.2527 11.053 78.7108 11.1541 78.0943 11.1541C77.2392 11.1541 76.5415 10.9718 76.0012 10.6072C75.461 10.2393 75.1296 9.71733 75.0069 9.04119L76.4437 8.82244C76.5332 9.19697 76.7172 9.48035 76.9956 9.67259C77.274 9.86151 77.6369 9.95597 78.0843 9.95597C78.5716 9.95597 78.961 9.85488 79.2527 9.6527C79.5443 9.44721 79.6902 9.19697 79.6902 8.90199C79.6902 8.66335 79.6007 8.46283 79.4217 8.30043C79.246 8.13802 78.9759 8.01539 78.6113 7.93253L77.3187 7.64915C76.6061 7.48674 76.0791 7.22822 75.7377 6.87358C75.3997 6.51894 75.2306 6.06984 75.2306 5.52628C75.2306 5.07552 75.3566 4.68111 75.6085 4.34304C75.8604 4.00497 76.2084 3.74148 76.6525 3.55256C77.0967 3.36032 77.6054 3.2642 78.1788 3.2642C79.0041 3.2642 79.6537 3.44318 80.1277 3.80114C80.6016 4.15578 80.9148 4.63139 81.0673 5.22798ZM82.8509 13.8636V3.36364H84.3026V4.60156H84.4268C84.513 4.44247 84.6373 4.25852 84.7997 4.04972C84.9621 3.84091 85.1875 3.65862 85.4759 3.50284C85.7642 3.34375 86.1454 3.2642 86.6193 3.2642C87.2358 3.2642 87.786 3.41998 88.2699 3.73153C88.7538 4.04309 89.1333 4.49219 89.4084 5.07884C89.6868 5.66548 89.826 6.37145 89.826 7.19673C89.826 8.02202 89.6884 8.72964 89.4134 9.3196C89.1383 9.90625 88.7604 10.3587 88.2798 10.6768C87.7992 10.9917 87.2507 11.1491 86.6342 11.1491C86.1702 11.1491 85.7907 11.0713 85.4957 10.9155C85.2041 10.7597 84.9754 10.5774 84.8097 10.3686C84.6439 10.1598 84.5163 9.9742 84.4268 9.81179H84.3374V13.8636H82.8509ZM84.3075 7.18182C84.3075 7.71875 84.3854 8.18939 84.5412 8.59375C84.697 8.99811 84.9223 9.31463 85.2173 9.54332C85.5123 9.7687 85.8736 9.88139 86.3011 9.88139C86.7453 9.88139 87.1165 9.76373 87.4148 9.52841C87.7131 9.28977 87.9384 8.96662 88.0909 8.55895C88.2467 8.15128 88.3246 7.69223 88.3246 7.18182C88.3246 6.67803 88.2483 6.22562 88.0959 5.82457C87.9467 5.42353 87.7214 5.10701 87.4197 4.875C87.1214 4.64299 86.7486 4.52699 86.3011 4.52699C85.8703 4.52699 85.5057 4.63802 85.2074 4.86009C84.9124 5.08215 84.6887 5.39205 84.5362 5.78977C84.3838 6.1875 84.3075 6.65151 84.3075 7.18182ZM93.7138 11.169C93.2299 11.169 92.7924 11.0795 92.4013 10.9006C92.0102 10.7183 91.7003 10.4548 91.4716 10.1101C91.2462 9.76539 91.1335 9.3428 91.1335 8.84233C91.1335 8.41146 91.2164 8.05682 91.3821 7.77841C91.5478 7.5 91.7715 7.27959 92.0533 7.11719C92.335 6.95478 92.6499 6.83215 92.9979 6.74929C93.3459 6.66643 93.7005 6.60346 94.0618 6.56037C94.5192 6.50734 94.8904 6.46425 95.1754 6.43111C95.4605 6.39465 95.6676 6.33665 95.7969 6.2571C95.9261 6.17756 95.9908 6.0483 95.9908 5.86932V5.83452C95.9908 5.40033 95.8681 5.06392 95.6229 4.82528C95.3809 4.58665 95.0196 4.46733 94.5391 4.46733C94.0386 4.46733 93.6442 4.57836 93.3558 4.80043C93.0708 5.01918 92.8736 5.26278 92.7642 5.53125L91.3672 5.21307C91.5329 4.74905 91.7749 4.37453 92.093 4.08949C92.4145 3.80114 92.7841 3.59233 93.2017 3.46307C93.6193 3.33049 94.0585 3.2642 94.5192 3.2642C94.8241 3.2642 95.1473 3.30066 95.4886 3.37358C95.8333 3.44318 96.1548 3.57244 96.4531 3.76136C96.7547 3.95028 97.0017 4.22041 97.1939 4.57173C97.3861 4.91974 97.4822 5.37216 97.4822 5.92898V11H96.0305V9.95597H95.9709C95.8748 10.1482 95.7306 10.3371 95.5384 10.5227C95.3461 10.7083 95.0992 10.8625 94.7976 10.9851C94.496 11.1077 94.1347 11.169 93.7138 11.169ZM94.0369 9.97585C94.4479 9.97585 94.7992 9.89465 95.0909 9.73224C95.3859 9.56984 95.6096 9.35772 95.7621 9.09588C95.9179 8.83073 95.9957 8.54735 95.9957 8.24574V7.26136C95.9427 7.31439 95.84 7.36411 95.6875 7.41051C95.5384 7.4536 95.3677 7.49171 95.1754 7.52486C94.9832 7.55469 94.7959 7.58286 94.6136 7.60938C94.4313 7.63258 94.2789 7.65246 94.1562 7.66903C93.8679 7.70549 93.6044 7.76681 93.3658 7.85298C93.1304 7.93916 92.9415 8.06345 92.799 8.22585C92.6598 8.38494 92.5902 8.59706 92.5902 8.86222C92.5902 9.23011 92.7261 9.50852 92.9979 9.69744C93.2696 9.88305 93.616 9.97585 94.0369 9.97585ZM102.679 11.1541C101.94 11.1541 101.303 10.9867 100.77 10.652C100.239 10.3139 99.8317 9.84825 99.5467 9.25497C99.2617 8.66169 99.1191 7.98224 99.1191 7.21662C99.1191 6.44105 99.265 5.75663 99.5566 5.16335C99.8483 4.56676 100.259 4.10109 100.79 3.76633C101.32 3.43158 101.945 3.2642 102.664 3.2642C103.244 3.2642 103.761 3.37192 104.215 3.58736C104.669 3.79948 105.035 4.09777 105.314 4.48224C105.595 4.86671 105.763 5.31581 105.816 5.82955H104.369C104.29 5.47159 104.107 5.16335 103.822 4.90483C103.541 4.64631 103.163 4.51705 102.689 4.51705C102.274 4.51705 101.912 4.62642 101.6 4.84517C101.292 5.06061 101.051 5.36884 100.879 5.76989C100.707 6.16761 100.621 6.63826 100.621 7.18182C100.621 7.73864 100.705 8.21922 100.874 8.62358C101.043 9.02794 101.282 9.34115 101.59 9.56321C101.902 9.78527 102.268 9.89631 102.689 9.89631C102.97 9.89631 103.226 9.84493 103.454 9.74219C103.686 9.63613 103.88 9.48532 104.036 9.28977C104.195 9.09422 104.306 8.8589 104.369 8.58381H105.816C105.763 9.07765 105.602 9.51847 105.334 9.90625C105.065 10.294 104.706 10.599 104.255 10.821C103.807 11.0431 103.282 11.1541 102.679 11.1541ZM107.406 11V3.36364H108.892V11H107.406ZM108.156 2.18537C107.898 2.18537 107.676 2.09919 107.49 1.92685C107.308 1.75118 107.217 1.54238 107.217 1.30043C107.217 1.05516 107.308 0.846354 107.49 0.674005C107.676 0.498342 107.898 0.410511 108.156 0.410511C108.415 0.410511 108.635 0.498342 108.817 0.674005C109.003 0.846354 109.096 1.05516 109.096 1.30043C109.096 1.54238 109.003 1.75118 108.817 1.92685C108.635 2.09919 108.415 2.18537 108.156 2.18537ZM112.378 6.46591V11H110.892V3.36364H112.319V4.60653H112.413C112.589 4.20218 112.864 3.87737 113.238 3.6321C113.616 3.38684 114.092 3.2642 114.665 3.2642C115.186 3.2642 115.641 3.37358 116.032 3.59233C116.424 3.80777 116.727 4.12926 116.942 4.55682C117.158 4.98437 117.265 5.51302 117.265 6.14276V11H115.779V6.32173C115.779 5.76823 115.635 5.3357 115.346 5.02415C115.058 4.70928 114.662 4.55185 114.158 4.55185C113.814 4.55185 113.507 4.62642 113.238 4.77557C112.973 4.92472 112.763 5.14347 112.607 5.43182C112.455 5.71686 112.378 6.06155 112.378 6.46591ZM122.461 14.0227C121.854 14.0227 121.332 13.9432 120.895 13.7841C120.461 13.625 120.106 13.4145 119.831 13.1527C119.556 12.8909 119.35 12.6042 119.214 12.2926L120.492 11.7656C120.581 11.9115 120.701 12.0656 120.85 12.228C121.002 12.3937 121.208 12.5346 121.466 12.6506C121.728 12.7666 122.065 12.8246 122.476 12.8246C123.039 12.8246 123.505 12.687 123.873 12.4119C124.241 12.1402 124.425 11.706 124.425 11.1094V9.60795H124.33C124.241 9.77036 124.111 9.95099 123.942 10.1499C123.777 10.3487 123.548 10.5211 123.256 10.6669C122.965 10.8127 122.585 10.8857 122.118 10.8857C121.515 10.8857 120.971 10.7448 120.487 10.4631C120.006 10.178 119.625 9.75876 119.344 9.20526C119.065 8.64844 118.926 7.96401 118.926 7.15199C118.926 6.33996 119.064 5.64394 119.339 5.06392C119.617 4.4839 119.998 4.03977 120.482 3.73153C120.966 3.41998 121.515 3.2642 122.128 3.2642C122.602 3.2642 122.984 3.34375 123.276 3.50284C123.568 3.65862 123.795 3.84091 123.957 4.04972C124.123 4.25852 124.251 4.44247 124.34 4.60156H124.449V3.36364H125.906V11.169C125.906 11.8253 125.754 12.3639 125.449 12.7848C125.144 13.2057 124.731 13.5173 124.211 13.7195C123.694 13.9216 123.11 14.0227 122.461 14.0227ZM122.446 9.6527C122.873 9.6527 123.235 9.55327 123.53 9.3544C123.828 9.15223 124.053 8.86387 124.206 8.48935C124.362 8.11151 124.439 7.65909 124.439 7.1321C124.439 6.61837 124.363 6.16596 124.211 5.77486C124.058 5.38376 123.835 5.07884 123.54 4.86009C123.245 4.63802 122.88 4.52699 122.446 4.52699C121.998 4.52699 121.626 4.64299 121.327 4.875C121.029 5.10369 120.804 5.41525 120.651 5.80966C120.502 6.20407 120.427 6.64489 120.427 7.1321C120.427 7.63258 120.504 8.07173 120.656 8.44957C120.809 8.82741 121.034 9.1224 121.332 9.33452C121.634 9.54664 122.005 9.6527 122.446 9.6527Z" fill="black"/>
</svg>
