<svg viewBox="0 0 100 14" fill="none" stroke-width="2" stroke="currentColor" aria-hidden="true">
  <path d="M-0.000710189 13.8636V3.36364H1.45099V4.60156H1.57528C1.66146 4.44247 1.78575 4.25852 1.94815 4.04972C2.11056 3.84091 2.33594 3.65862 2.62429 3.50284C2.91264 3.34375 3.2938 3.2642 3.76776 3.2642C4.38423 3.2642 4.93442 3.41998 5.41832 3.73153C5.90223 4.04309 6.28172 4.49219 6.55682 5.07884C6.83523 5.66548 6.97443 6.37145 6.97443 7.19673C6.97443 8.02202 6.83688 8.72964 6.56179 9.3196C6.2867 9.90625 5.90885 10.3587 5.42827 10.6768C4.94768 10.9917 4.39915 11.1491 3.78267 11.1491C3.31866 11.1491 2.93916 11.0713 2.64418 10.9155C2.35251 10.7597 2.12382 10.5774 1.9581 10.3686C1.79238 10.1598 1.66477 9.9742 1.57528 9.81179H1.4858V13.8636H-0.000710189ZM1.45597 7.18182C1.45597 7.71875 1.53385 8.18939 1.68963 8.59375C1.84541 8.99811 2.07079 9.31463 2.36577 9.54332C2.66075 9.7687 3.02202 9.88139 3.44957 9.88139C3.8937 9.88139 4.26491 9.76373 4.56321 9.52841C4.86151 9.28977 5.08688 8.96662 5.23935 8.55895C5.39512 8.15128 5.47301 7.69223 5.47301 7.18182C5.47301 6.67803 5.39678 6.22562 5.24432 5.82457C5.09517 5.42353 4.86979 5.10701 4.56818 4.875C4.26989 4.64299 3.89702 4.52699 3.44957 4.52699C3.0187 4.52699 2.65412 4.63802 2.35582 4.86009C2.06084 5.08215 1.83712 5.39205 1.68466 5.78977C1.5322 6.1875 1.45597 6.65151 1.45597 7.18182ZM8.63991 11V3.36364H10.1264V11H8.63991ZM9.39062 2.18537C9.1321 2.18537 8.91004 2.09919 8.72443 1.92685C8.54214 1.75118 8.45099 1.54238 8.45099 1.30043C8.45099 1.05516 8.54214 0.846354 8.72443 0.674005C8.91004 0.498342 9.1321 0.410511 9.39062 0.410511C9.64915 0.410511 9.86956 0.498342 10.0518 0.674005C10.2375 0.846354 10.3303 1.05516 10.3303 1.30043C10.3303 1.54238 10.2375 1.75118 10.0518 1.92685C9.86956 2.09919 9.64915 2.18537 9.39062 2.18537ZM13.6127 0.818182V11H12.1262V0.818182H13.6127ZM18.8292 11.1541C18.0901 11.1541 17.4537 10.9867 16.9201 10.652C16.3898 10.3139 15.9821 9.84825 15.6971 9.25497C15.4121 8.66169 15.2695 7.98224 15.2695 7.21662C15.2695 6.44105 15.4154 5.75663 15.707 5.16335C15.9987 4.56676 16.4097 4.10109 16.94 3.76633C17.4703 3.43158 18.0951 3.2642 18.8143 3.2642C19.3943 3.2642 19.9113 3.37192 20.3654 3.58736C20.8195 3.79948 21.1857 4.09777 21.4641 4.48224C21.7459 4.86671 21.9132 5.31581 21.9663 5.82955H20.5195C20.44 5.47159 20.2577 5.16335 19.9727 4.90483C19.6909 4.64631 19.3131 4.51705 18.8391 4.51705C18.4248 4.51705 18.0619 4.62642 17.7504 4.84517C17.4421 5.06061 17.2018 5.36884 17.0295 5.76989C16.8571 6.16761 16.771 6.63826 16.771 7.18182C16.771 7.73864 16.8555 8.21922 17.0245 8.62358C17.1935 9.02794 17.4322 9.34115 17.7404 9.56321C18.052 9.78527 18.4182 9.89631 18.8391 9.89631C19.1209 9.89631 19.3761 9.84493 19.6048 9.74219C19.8368 9.63613 20.0307 9.48532 20.1864 9.28977C20.3455 9.09422 20.4566 8.8589 20.5195 8.58381H21.9663C21.9132 9.07765 21.7525 9.51847 21.484 9.90625C21.2156 10.294 20.8559 10.599 20.4052 10.821C19.9577 11.0431 19.4324 11.1541 18.8292 11.1541ZM23.5559 11V3.36364H24.9927V4.5767H25.0723C25.2115 4.16572 25.4567 3.84257 25.8081 3.60724C26.1627 3.36861 26.5637 3.24929 27.0112 3.24929C27.104 3.24929 27.2134 3.2526 27.3393 3.25923C27.4686 3.26586 27.5697 3.27415 27.6426 3.28409V4.70597C27.5829 4.68939 27.4769 4.67116 27.3244 4.65128C27.1719 4.62808 27.0195 4.61648 26.867 4.61648C26.5157 4.61648 26.2025 4.69105 25.9274 4.8402C25.6556 4.98603 25.4402 5.18987 25.2811 5.4517C25.122 5.71023 25.0424 6.00521 25.0424 6.33665V11H23.5559ZM31.8722 11.1541C31.1563 11.1541 30.5315 10.9901 29.9979 10.6619C29.4643 10.3338 29.05 9.87476 28.755 9.2848C28.46 8.69484 28.3125 8.00544 28.3125 7.21662C28.3125 6.42448 28.46 5.73177 28.755 5.13849C29.05 4.54522 29.4643 4.08452 29.9979 3.75639C30.5315 3.42827 31.1563 3.2642 31.8722 3.2642C32.5881 3.2642 33.2128 3.42827 33.7464 3.75639C34.2801 4.08452 34.6944 4.54522 34.9893 5.13849C35.2843 5.73177 35.4318 6.42448 35.4318 7.21662C35.4318 8.00544 35.2843 8.69484 34.9893 9.2848C34.6944 9.87476 34.2801 10.3338 33.7464 10.6619C33.2128 10.9901 32.5881 11.1541 31.8722 11.1541ZM31.8771 9.90625C32.3411 9.90625 32.7256 9.78362 33.0305 9.53835C33.3355 9.29309 33.5608 8.96662 33.7067 8.55895C33.8558 8.15128 33.9304 7.70218 33.9304 7.21165C33.9304 6.72443 33.8558 6.27699 33.7067 5.86932C33.5608 5.45833 33.3355 5.12855 33.0305 4.87997C32.7256 4.63139 32.3411 4.5071 31.8771 4.5071C31.4098 4.5071 31.022 4.63139 30.7138 4.87997C30.4089 5.12855 30.1818 5.45833 30.0327 5.86932C29.8868 6.27699 29.8139 6.72443 29.8139 7.21165C29.8139 7.70218 29.8868 8.15128 30.0327 8.55895C30.1818 8.96662 30.4089 9.29309 30.7138 9.53835C31.022 9.78362 31.4098 9.90625 31.8771 9.90625ZM38.5142 11L36.267 3.36364H37.8033L39.2997 8.97159H39.3743L40.8757 3.36364H42.4119L43.9034 8.94673H43.978L45.4645 3.36364H47.0007L44.7585 11H43.2422L41.6911 5.48651H41.5767L40.0256 11H38.5142ZM52.9107 6.05327V7.34091H48.3965V6.05327H52.9107ZM60.6142 5.22798L59.2669 5.46662C59.2105 5.29427 59.121 5.13021 58.9984 4.97443C58.8791 4.81865 58.7167 4.69105 58.5112 4.59162C58.3057 4.49219 58.0488 4.44247 57.7406 4.44247C57.3197 4.44247 56.9683 4.53693 56.6866 4.72585C56.4049 4.91146 56.264 5.15175 56.264 5.44673C56.264 5.70194 56.3585 5.90743 56.5474 6.06321C56.7363 6.21899 57.0413 6.34659 57.4622 6.44602L58.6752 6.72443C59.3779 6.88684 59.9016 7.13707 60.2463 7.47514C60.591 7.81321 60.7633 8.25237 60.7633 8.79261C60.7633 9.25 60.6307 9.65767 60.3656 10.0156C60.1038 10.3703 59.7375 10.6487 59.2669 10.8509C58.7995 11.053 58.2576 11.1541 57.6412 11.1541C56.786 11.1541 56.0884 10.9718 55.5481 10.6072C55.0079 10.2393 54.6764 9.71733 54.5538 9.04119L55.9906 8.82244C56.0801 9.19697 56.264 9.48035 56.5424 9.67259C56.8208 9.86151 57.1838 9.95597 57.6312 9.95597C58.1184 9.95597 58.5079 9.85488 58.7995 9.6527C59.0912 9.44721 59.237 9.19697 59.237 8.90199C59.237 8.66335 59.1475 8.46283 58.9686 8.30043C58.7929 8.13802 58.5228 8.01539 58.1582 7.93253L56.8656 7.64915C56.153 7.48674 55.626 7.22822 55.2846 6.87358C54.9466 6.51894 54.7775 6.06984 54.7775 5.52628C54.7775 5.07552 54.9035 4.68111 55.1554 4.34304C55.4073 4.00497 55.7553 3.74148 56.1994 3.55256C56.6435 3.36032 57.1523 3.2642 57.7257 3.2642C58.551 3.2642 59.2006 3.44318 59.6745 3.80114C60.1485 4.15578 60.4617 4.63139 60.6142 5.22798ZM67.5533 13.8636V9.81179H67.4638C67.3743 9.9742 67.245 10.1598 67.076 10.3686C66.9103 10.5774 66.6816 10.7597 66.3899 10.9155C66.0982 11.0713 65.7204 11.1491 65.2564 11.1491C64.6399 11.1491 64.0897 10.9917 63.6058 10.6768C63.1252 10.3587 62.7474 9.90625 62.4723 9.3196C62.2005 8.72964 62.0646 8.02202 62.0646 7.19673C62.0646 6.37145 62.2022 5.66548 62.4773 5.07884C62.7557 4.49219 63.1368 4.04309 63.6207 3.73153C64.1046 3.41998 64.6532 3.2642 65.2663 3.2642C65.7403 3.2642 66.1214 3.34375 66.4098 3.50284C66.7015 3.65862 66.9268 3.84091 67.0859 4.04972C67.2483 4.25852 67.3743 4.44247 67.4638 4.60156H67.5881V3.36364H69.0398V13.8636H67.5533ZM65.5845 9.88139C66.0121 9.88139 66.3733 9.7687 66.6683 9.54332C66.9666 9.31463 67.192 8.99811 67.3445 8.59375C67.5002 8.18939 67.5781 7.71875 67.5781 7.18182C67.5781 6.65151 67.5019 6.1875 67.3494 5.78977C67.197 5.39205 66.9732 5.08215 66.6783 4.86009C66.3833 4.63802 66.0187 4.52699 65.5845 4.52699C65.1371 4.52699 64.7642 4.64299 64.4659 4.875C64.1676 5.10701 63.9422 5.42353 63.7898 5.82457C63.6406 6.22562 63.5661 6.67803 63.5661 7.18182C63.5661 7.69223 63.6423 8.15128 63.7947 8.55895C63.9472 8.96662 64.1726 9.28977 64.4709 9.52841C64.7725 9.76373 65.1437 9.88139 65.5845 9.88139ZM75.8757 7.8331V3.36364H77.3672V11H75.9055V9.67756H75.826C75.6503 10.0852 75.3686 10.425 74.9808 10.6967C74.5964 10.9652 74.1174 11.0994 73.544 11.0994C73.0535 11.0994 72.6193 10.9917 72.2415 10.7763C71.867 10.5575 71.572 10.2344 71.3565 9.80682C71.1444 9.37926 71.0384 8.85062 71.0384 8.22088V3.36364H72.5249V8.0419C72.5249 8.56226 72.669 8.97656 72.9574 9.2848C73.2457 9.59304 73.6203 9.74716 74.081 9.74716C74.3594 9.74716 74.6361 9.67756 74.9112 9.53835C75.1896 9.39915 75.42 9.18868 75.6023 8.90696C75.7879 8.62524 75.879 8.26728 75.8757 7.8331ZM81.5868 11.169C81.1029 11.169 80.6654 11.0795 80.2743 10.9006C79.8832 10.7183 79.5733 10.4548 79.3446 10.1101C79.1193 9.76539 79.0066 9.3428 79.0066 8.84233C79.0066 8.41146 79.0894 8.05682 79.2551 7.77841C79.4209 7.5 79.6446 7.27959 79.9263 7.11719C80.208 6.95478 80.5229 6.83215 80.8709 6.74929C81.2189 6.66643 81.5736 6.60346 81.9348 6.56037C82.3922 6.50734 82.7634 6.46425 83.0485 6.43111C83.3335 6.39465 83.5407 6.33665 83.6699 6.2571C83.7992 6.17756 83.8638 6.0483 83.8638 5.86932V5.83452C83.8638 5.40033 83.7412 5.06392 83.4959 4.82528C83.254 4.58665 82.8927 4.46733 82.4121 4.46733C81.9116 4.46733 81.5172 4.57836 81.2289 4.80043C80.9438 5.01918 80.7466 5.26278 80.6373 5.53125L79.2402 5.21307C79.406 4.74905 79.6479 4.37453 79.9661 4.08949C80.2876 3.80114 80.6571 3.59233 81.0748 3.46307C81.4924 3.33049 81.9315 3.2642 82.3922 3.2642C82.6971 3.2642 83.0203 3.30066 83.3617 3.37358C83.7064 3.44318 84.0279 3.57244 84.3262 3.76136C84.6278 3.95028 84.8747 4.22041 85.0669 4.57173C85.2592 4.91974 85.3553 5.37216 85.3553 5.92898V11H83.9036V9.95597H83.8439C83.7478 10.1482 83.6036 10.3371 83.4114 10.5227C83.2192 10.7083 82.9722 10.8625 82.6706 10.9851C82.369 11.1077 82.0078 11.169 81.5868 11.169ZM81.91 9.97585C82.321 9.97585 82.6723 9.89465 82.964 9.73224C83.2589 9.56984 83.4827 9.35772 83.6351 9.09588C83.7909 8.83073 83.8688 8.54735 83.8688 8.24574V7.26136C83.8158 7.31439 83.713 7.36411 83.5605 7.41051C83.4114 7.4536 83.2407 7.49171 83.0485 7.52486C82.8562 7.55469 82.669 7.58286 82.4867 7.60938C82.3044 7.63258 82.1519 7.65246 82.0293 7.66903C81.7409 7.70549 81.4775 7.76681 81.2388 7.85298C81.0035 7.93916 80.8146 8.06345 80.6721 8.22585C80.5328 8.38494 80.4632 8.59706 80.4632 8.86222C80.4632 9.23011 80.5991 9.50852 80.8709 9.69744C81.1427 9.88305 81.4891 9.97585 81.91 9.97585ZM87.3352 11V3.36364H88.772V4.5767H88.8516C88.9908 4.16572 89.236 3.84257 89.5874 3.60724C89.942 3.36861 90.343 3.24929 90.7905 3.24929C90.8833 3.24929 90.9927 3.2526 91.1186 3.25923C91.2479 3.26586 91.349 3.27415 91.4219 3.28409V4.70597C91.3622 4.68939 91.2562 4.67116 91.1037 4.65128C90.9512 4.62808 90.7988 4.61648 90.6463 4.61648C90.295 4.61648 89.9818 4.69105 89.7067 4.8402C89.4349 4.98603 89.2195 5.18987 89.0604 5.4517C88.9013 5.71023 88.8217 6.00521 88.8217 6.33665V11H87.3352ZM95.726 11.1541C94.9737 11.1541 94.3257 10.9934 93.7821 10.6719C93.2419 10.3471 92.8243 9.89134 92.5293 9.30469C92.2376 8.71473 92.0918 8.02367 92.0918 7.23153C92.0918 6.44934 92.2376 5.75994 92.5293 5.16335C92.8243 4.56676 93.2353 4.10109 93.7623 3.76633C94.2926 3.43158 94.9123 3.2642 95.6216 3.2642C96.0525 3.2642 96.4701 3.33546 96.8745 3.47798C97.2788 3.6205 97.6417 3.84422 97.9632 4.14915C98.2847 4.45407 98.5383 4.85014 98.7239 5.33736C98.9095 5.82126 99.0023 6.40956 99.0023 7.10227V7.62926H92.932V6.51562H97.5456C97.5456 6.12453 97.4661 5.77817 97.307 5.47656C97.1479 5.17164 96.9242 4.93134 96.6358 4.75568C96.3508 4.58002 96.016 4.49219 95.6316 4.49219C95.214 4.49219 94.8494 4.59493 94.5378 4.80043C94.2296 5.0026 93.9909 5.26776 93.8219 5.59588C93.6562 5.92069 93.5733 6.27367 93.5733 6.65483V7.52486C93.5733 8.03527 93.6628 8.46946 93.8418 8.82741C94.0241 9.18537 94.2776 9.45881 94.6025 9.64773C94.9273 9.83333 95.3068 9.92614 95.7409 9.92614C96.0227 9.92614 96.2795 9.88636 96.5115 9.80682C96.7435 9.72396 96.9441 9.60133 97.1131 9.43892C97.2821 9.27652 97.4114 9.07599 97.5009 8.83736L98.9078 9.09091C98.7952 9.50521 98.593 9.86813 98.3013 10.1797C98.013 10.4879 97.65 10.7282 97.2125 10.9006C96.7783 11.0696 96.2828 11.1541 95.726 11.1541Z" fill="black"/>
</svg>
