<svg viewBox="0 0 54 14" fill="none" stroke-width="2" stroke="currentColor" aria-hidden="true">
  <path d="M4.21591 11.1541C3.4768 11.1541 2.84044 10.9867 2.30682 10.652C1.77652 10.3139 1.36884 9.84825 1.08381 9.25497C0.798769 8.66169 0.65625 7.98224 0.65625 7.21662C0.65625 6.44105 0.802083 5.75663 1.09375 5.16335C1.38542 4.56676 1.7964 4.10109 2.3267 3.76633C2.85701 3.43158 3.48177 3.2642 4.20099 3.2642C4.78101 3.2642 5.29806 3.37192 5.75213 3.58736C6.2062 3.79948 6.57244 4.09777 6.85085 4.48224C7.13258 4.86671 7.29995 5.31581 7.35298 5.82955H5.90625C5.8267 5.47159 5.64441 5.16335 5.35938 4.90483C5.07765 4.64631 4.69981 4.51705 4.22585 4.51705C3.81155 4.51705 3.44863 4.62642 3.13707 4.84517C2.82884 5.06061 2.58854 5.36884 2.41619 5.76989C2.24384 6.16761 2.15767 6.63826 2.15767 7.18182C2.15767 7.73864 2.24219 8.21922 2.41122 8.62358C2.58026 9.02794 2.81889 9.34115 3.12713 9.56321C3.43868 9.78527 3.80492 9.89631 4.22585 9.89631C4.50758 9.89631 4.76278 9.84493 4.99148 9.74219C5.22349 9.63613 5.41738 9.48532 5.57315 9.28977C5.73224 9.09422 5.84328 8.8589 5.90625 8.58381H7.35298C7.29995 9.07765 7.1392 9.51847 6.87074 9.90625C6.60227 10.294 6.24266 10.599 5.7919 10.821C5.34446 11.0431 4.81913 11.1541 4.21591 11.1541ZM8.94265 11V3.36364H10.3794V4.5767H10.459C10.5982 4.16572 10.8435 3.84257 11.1948 3.60724C11.5494 3.36861 11.9505 3.24929 12.3979 3.24929C12.4907 3.24929 12.6001 3.2526 12.726 3.25923C12.8553 3.26586 12.9564 3.27415 13.0293 3.28409V4.70597C12.9696 4.68939 12.8636 4.67116 12.7111 4.65128C12.5587 4.62808 12.4062 4.61648 12.2537 4.61648C11.9024 4.61648 11.5892 4.69105 11.3141 4.8402C11.0423 4.98603 10.8269 5.18987 10.6678 5.4517C10.5087 5.71023 10.4292 6.00521 10.4292 6.33665V11H8.94265ZM17.2589 11.1541C16.543 11.1541 15.9182 10.9901 15.3846 10.6619C14.851 10.3338 14.4367 9.87476 14.1417 9.2848C13.8467 8.69484 13.6992 8.00544 13.6992 7.21662C13.6992 6.42448 13.8467 5.73177 14.1417 5.13849C14.4367 4.54522 14.851 4.08452 15.3846 3.75639C15.9182 3.42827 16.543 3.2642 17.2589 3.2642C17.9748 3.2642 18.5996 3.42827 19.1332 3.75639C19.6668 4.08452 20.0811 4.54522 20.3761 5.13849C20.671 5.73177 20.8185 6.42448 20.8185 7.21662C20.8185 8.00544 20.671 8.69484 20.3761 9.2848C20.0811 9.87476 19.6668 10.3338 19.1332 10.6619C18.5996 10.9901 17.9748 11.1541 17.2589 11.1541ZM17.2638 9.90625C17.7279 9.90625 18.1123 9.78362 18.4173 9.53835C18.7222 9.29309 18.9476 8.96662 19.0934 8.55895C19.2425 8.15128 19.3171 7.70218 19.3171 7.21165C19.3171 6.72443 19.2425 6.27699 19.0934 5.86932C18.9476 5.45833 18.7222 5.12855 18.4173 4.87997C18.1123 4.63139 17.7279 4.5071 17.2638 4.5071C16.7965 4.5071 16.4087 4.63139 16.1005 4.87997C15.7956 5.12855 15.5685 5.45833 15.4194 5.86932C15.2736 6.27699 15.2006 6.72443 15.2006 7.21165C15.2006 7.70218 15.2736 8.15128 15.4194 8.55895C15.5685 8.96662 15.7956 9.29309 16.1005 9.53835C16.4087 9.78362 16.7965 9.90625 17.2638 9.90625ZM22.4778 13.8636V3.36364H23.9295V4.60156H24.0538C24.14 4.44247 24.2643 4.25852 24.4267 4.04972C24.5891 3.84091 24.8145 3.65862 25.1028 3.50284C25.3912 3.34375 25.7723 3.2642 26.2463 3.2642C26.8627 3.2642 27.4129 3.41998 27.8968 3.73153C28.3807 4.04309 28.7602 4.49219 29.0353 5.07884C29.3137 5.66548 29.4529 6.37145 29.4529 7.19673C29.4529 8.02202 29.3154 8.72964 29.0403 9.3196C28.7652 9.90625 28.3874 10.3587 27.9068 10.6768C27.4262 10.9917 26.8777 11.1491 26.2612 11.1491C25.7972 11.1491 25.4177 11.0713 25.1227 10.9155C24.831 10.7597 24.6023 10.5774 24.4366 10.3686C24.2709 10.1598 24.1433 9.9742 24.0538 9.81179H23.9643V13.8636H22.4778ZM23.9345 7.18182C23.9345 7.71875 24.0124 8.18939 24.1681 8.59375C24.3239 8.99811 24.5493 9.31463 24.8443 9.54332C25.1393 9.7687 25.5005 9.88139 25.9281 9.88139C26.3722 9.88139 26.7434 9.76373 27.0417 9.52841C27.34 9.28977 27.5654 8.96662 27.7179 8.55895C27.8736 8.15128 27.9515 7.69223 27.9515 7.18182C27.9515 6.67803 27.8753 6.22562 27.7228 5.82457C27.5737 5.42353 27.3483 5.10701 27.0467 4.875C26.7484 4.64299 26.3755 4.52699 25.9281 4.52699C25.4972 4.52699 25.1326 4.63802 24.8343 4.86009C24.5394 5.08215 24.3156 5.39205 24.1632 5.78977C24.0107 6.1875 23.9345 6.65151 23.9345 7.18182ZM35.6177 6.05327V7.34091H31.1035V6.05327H35.6177ZM41.1238 11.169C40.3382 11.1657 39.6671 10.9586 39.1103 10.5476C38.5534 10.1366 38.1275 9.53835 37.8326 8.75284C37.5376 7.96733 37.3901 7.02107 37.3901 5.91406C37.3901 4.81037 37.5376 3.86742 37.8326 3.08523C38.1309 2.30303 38.5584 1.70644 39.1152 1.29545C39.6754 0.884469 40.3449 0.678977 41.1238 0.678977C41.9026 0.678977 42.5705 0.886126 43.1273 1.30043C43.6841 1.71141 44.11 2.308 44.405 3.0902C44.7033 3.86908 44.8525 4.81037 44.8525 5.91406C44.8525 7.02438 44.705 7.9723 44.41 8.75781C44.115 9.54001 43.6891 10.1383 43.1323 10.5526C42.5755 10.9635 41.906 11.169 41.1238 11.169ZM41.1238 9.84162C41.8132 9.84162 42.3517 9.50521 42.7395 8.83239C43.1306 8.15956 43.3262 7.18679 43.3262 5.91406C43.3262 5.06889 43.2367 4.35464 43.0577 3.77131C42.882 3.18466 42.6285 2.74053 42.2971 2.43892C41.9689 2.134 41.5778 1.98153 41.1238 1.98153C40.4377 1.98153 39.8991 2.3196 39.508 2.99574C39.1169 3.67187 38.9197 4.64465 38.9164 5.91406C38.9164 6.76255 39.0042 7.48011 39.1799 8.06676C39.3588 8.65009 39.6124 9.09257 39.9405 9.39418C40.2686 9.69247 40.6631 9.84162 41.1238 9.84162ZM46.6161 11V9.88636L50.0614 6.31676C50.4293 5.92898 50.7326 5.58925 50.9712 5.29759C51.2132 5.0026 51.3938 4.72254 51.5131 4.45739C51.6325 4.19223 51.6921 3.91051 51.6921 3.61222C51.6921 3.27415 51.6126 2.98248 51.4535 2.73722C51.2944 2.48864 51.0773 2.29806 50.8022 2.16548C50.5271 2.02959 50.2172 1.96165 49.8725 1.96165C49.5079 1.96165 49.1897 2.03622 48.918 2.18537C48.6462 2.33452 48.4374 2.54498 48.2915 2.81676C48.1457 3.08854 48.0728 3.40672 48.0728 3.77131H46.6062C46.6062 3.15151 46.7487 2.60961 47.0337 2.1456C47.3188 1.68158 47.7099 1.32197 48.207 1.06676C48.7042 0.808238 49.2693 0.678977 49.9023 0.678977C50.542 0.678977 51.1055 0.806581 51.5927 1.06179C52.0832 1.31368 52.466 1.65838 52.7411 2.09588C53.0162 2.53007 53.1538 3.0206 53.1538 3.56747C53.1538 3.94531 53.0825 4.31487 52.94 4.67614C52.8008 5.0374 52.5572 5.4401 52.2092 5.88423C51.8612 6.32505 51.3772 6.86032 50.7575 7.49006L48.734 9.60795V9.68253H53.3178V11H46.6161Z" fill="black"/>
</svg>
