<svg viewBox="0 0 77 15" fill="none" stroke-width="2" stroke="currentColor" aria-hidden="true">
  <path d="M1.4858 6.46591V11H-0.000710189V0.818182H1.46591V4.60653H1.56037C1.73935 4.19555 2.01278 3.86908 2.38068 3.62713C2.74858 3.38518 3.22917 3.2642 3.82244 3.2642C4.34612 3.2642 4.8035 3.37192 5.1946 3.58736C5.58902 3.80279 5.89394 4.12429 6.10938 4.55185C6.32812 4.97609 6.4375 5.50639 6.4375 6.14276V11H4.95099V6.32173C4.95099 5.7616 4.80682 5.32741 4.51847 5.01918C4.23011 4.70762 3.82907 4.55185 3.31534 4.55185C2.96402 4.55185 2.64915 4.62642 2.37074 4.77557C2.09564 4.92472 1.87855 5.14347 1.71946 5.43182C1.56368 5.71686 1.4858 6.06155 1.4858 6.46591ZM11.7124 11.1541C10.96 11.1541 10.312 10.9934 9.76847 10.6719C9.22822 10.3471 8.81061 9.89134 8.51562 9.30469C8.22396 8.71473 8.07812 8.02367 8.07812 7.23153C8.07812 6.44934 8.22396 5.75994 8.51562 5.16335C8.81061 4.56676 9.22159 4.10109 9.74858 3.76633C10.2789 3.43158 10.8987 3.2642 11.608 3.2642C12.0388 3.2642 12.4564 3.33546 12.8608 3.47798C13.2652 3.6205 13.6281 3.84422 13.9496 4.14915C14.2711 4.45407 14.5246 4.85014 14.7102 5.33736C14.8958 5.82126 14.9886 6.40956 14.9886 7.10227V7.62926H8.91832V6.51562H13.532C13.532 6.12453 13.4524 5.77817 13.2933 5.47656C13.1342 5.17164 12.9105 4.93134 12.6222 4.75568C12.3371 4.58002 12.0024 4.49219 11.6179 4.49219C11.2003 4.49219 10.8357 4.59493 10.5241 4.80043C10.2159 5.0026 9.97727 5.26776 9.80824 5.59588C9.64252 5.92069 9.55966 6.27367 9.55966 6.65483V7.52486C9.55966 8.03527 9.64915 8.46946 9.82812 8.82741C10.0104 9.18537 10.264 9.45881 10.5888 9.64773C10.9136 9.83333 11.2931 9.92614 11.7273 9.92614C12.009 9.92614 12.2659 9.88636 12.4979 9.80682C12.7299 9.72396 12.9304 9.60133 13.0994 9.43892C13.2685 9.27652 13.3977 9.07599 13.4872 8.83736L14.8942 9.09091C14.7815 9.50521 14.5793 9.86813 14.2876 10.1797C13.9993 10.4879 13.6364 10.7282 13.1989 10.9006C12.7647 11.0696 12.2692 11.1541 11.7124 11.1541ZM18.8603 11.169C18.3764 11.169 17.9389 11.0795 17.5478 10.9006C17.1567 10.7183 16.8468 10.4548 16.6181 10.1101C16.3927 9.76539 16.28 9.3428 16.28 8.84233C16.28 8.41146 16.3629 8.05682 16.5286 7.77841C16.6943 7.5 16.918 7.27959 17.1998 7.11719C17.4815 6.95478 17.7963 6.83215 18.1444 6.74929C18.4924 6.66643 18.847 6.60346 19.2083 6.56037C19.6657 6.50734 20.0369 6.46425 20.3219 6.43111C20.6069 6.39465 20.8141 6.33665 20.9434 6.2571C21.0726 6.17756 21.1373 6.0483 21.1373 5.86932V5.83452C21.1373 5.40033 21.0146 5.06392 20.7694 4.82528C20.5274 4.58665 20.1661 4.46733 19.6855 4.46733C19.1851 4.46733 18.7907 4.57836 18.5023 4.80043C18.2173 5.01918 18.0201 5.26278 17.9107 5.53125L16.5137 5.21307C16.6794 4.74905 16.9213 4.37453 17.2395 4.08949C17.561 3.80114 17.9306 3.59233 18.3482 3.46307C18.7658 3.33049 19.205 3.2642 19.6657 3.2642C19.9706 3.2642 20.2937 3.30066 20.6351 3.37358C20.9798 3.44318 21.3013 3.57244 21.5996 3.76136C21.9012 3.95028 22.1481 4.22041 22.3404 4.57173C22.5326 4.91974 22.6287 5.37216 22.6287 5.92898V11H21.177V9.95597H21.1174C21.0212 10.1482 20.8771 10.3371 20.6848 10.5227C20.4926 10.7083 20.2457 10.8625 19.9441 10.9851C19.6425 11.1077 19.2812 11.169 18.8603 11.169ZM19.1834 9.97585C19.5944 9.97585 19.9457 9.89465 20.2374 9.73224C20.5324 9.56984 20.7561 9.35772 20.9086 9.09588C21.0643 8.83073 21.1422 8.54735 21.1422 8.24574V7.26136C21.0892 7.31439 20.9864 7.36411 20.834 7.41051C20.6848 7.4536 20.5141 7.49171 20.3219 7.52486C20.1297 7.55469 19.9424 7.58286 19.7601 7.60938C19.5778 7.63258 19.4254 7.65246 19.3027 7.66903C19.0144 7.70549 18.7509 7.76681 18.5123 7.85298C18.2769 7.93916 18.088 8.06345 17.9455 8.22585C17.8063 8.38494 17.7367 8.59706 17.7367 8.86222C17.7367 9.23011 17.8726 9.50852 18.1444 9.69744C18.4161 9.88305 18.7625 9.97585 19.1834 9.97585ZM27.4673 11.1491C26.8509 11.1491 26.3007 10.9917 25.8168 10.6768C25.3362 10.3587 24.9583 9.90625 24.6832 9.3196C24.4115 8.72964 24.2756 8.02202 24.2756 7.19673C24.2756 6.37145 24.4131 5.66548 24.6882 5.07884C24.9666 4.49219 25.3478 4.04309 25.8317 3.73153C26.3156 3.41998 26.8641 3.2642 27.4773 3.2642C27.9512 3.2642 28.3324 3.34375 28.6207 3.50284C28.9124 3.65862 29.1378 3.84091 29.2969 4.04972C29.4593 4.25852 29.5852 4.44247 29.6747 4.60156H29.7642V0.818182H31.2507V11H29.799V9.81179H29.6747C29.5852 9.9742 29.456 10.1598 29.2869 10.3686C29.1212 10.5774 28.8925 10.7597 28.6009 10.9155C28.3092 11.0713 27.9313 11.1491 27.4673 11.1491ZM27.7955 9.88139C28.223 9.88139 28.5843 9.7687 28.8793 9.54332C29.1776 9.31463 29.4029 8.99811 29.5554 8.59375C29.7112 8.18939 29.7891 7.71875 29.7891 7.18182C29.7891 6.65151 29.7128 6.1875 29.5604 5.78977C29.4079 5.39205 29.1842 5.08215 28.8892 4.86009C28.5942 4.63802 28.2296 4.52699 27.7955 4.52699C27.348 4.52699 26.9751 4.64299 26.6768 4.875C26.3786 5.10701 26.1532 5.42353 26.0007 5.82457C25.8516 6.22562 25.777 6.67803 25.777 7.18182C25.777 7.69223 25.8532 8.15128 26.0057 8.55895C26.1581 8.96662 26.3835 9.28977 26.6818 9.52841C26.9834 9.76373 27.3546 9.88139 27.7955 9.88139ZM33.3723 11V3.36364H34.8588V11H33.3723ZM34.123 2.18537C33.8645 2.18537 33.6425 2.09919 33.4569 1.92685C33.2746 1.75118 33.1834 1.54238 33.1834 1.30043C33.1834 1.05516 33.2746 0.846354 33.4569 0.674005C33.6425 0.498342 33.8645 0.410511 34.123 0.410511C34.3816 0.410511 34.602 0.498342 34.7843 0.674005C34.9699 0.846354 35.0627 1.05516 35.0627 1.30043C35.0627 1.54238 34.9699 1.75118 34.7843 1.92685C34.602 2.09919 34.3816 2.18537 34.123 2.18537ZM38.3452 6.46591V11H36.8587V3.36364H38.2855V4.60653H38.38C38.5556 4.20218 38.8307 3.87737 39.2053 3.6321C39.5831 3.38684 40.0587 3.2642 40.6321 3.2642C41.1525 3.2642 41.6082 3.37358 41.9993 3.59233C42.3904 3.80777 42.6937 4.12926 42.9091 4.55682C43.1245 4.98437 43.2322 5.51302 43.2322 6.14276V11H41.7457V6.32173C41.7457 5.76823 41.6016 5.3357 41.3132 5.02415C41.0249 4.70928 40.6288 4.55185 40.125 4.55185C39.7803 4.55185 39.4737 4.62642 39.2053 4.77557C38.9401 4.92472 38.7296 5.14347 38.5739 5.43182C38.4214 5.71686 38.3452 6.06155 38.3452 6.46591ZM48.4276 14.0227C47.821 14.0227 47.299 13.9432 46.8615 13.7841C46.4273 13.625 46.0727 13.4145 45.7976 13.1527C45.5225 12.8909 45.317 12.6042 45.1811 12.2926L46.4588 11.7656C46.5483 11.9115 46.6676 12.0656 46.8168 12.228C46.9692 12.3937 47.1747 12.5346 47.4332 12.6506C47.6951 12.7666 48.0315 12.8246 48.4425 12.8246C49.0059 12.8246 49.4716 12.687 49.8395 12.4119C50.2074 12.1402 50.3913 11.706 50.3913 11.1094V9.60795H50.2969C50.2074 9.77036 50.0781 9.95099 49.9091 10.1499C49.7434 10.3487 49.5147 10.5211 49.223 10.6669C48.9313 10.8127 48.5518 10.8857 48.0845 10.8857C47.4813 10.8857 46.9377 10.7448 46.4538 10.4631C45.9732 10.178 45.5921 9.75876 45.3104 9.20526C45.032 8.64844 44.8928 7.96401 44.8928 7.15199C44.8928 6.33996 45.0303 5.64394 45.3054 5.06392C45.5838 4.4839 45.965 4.03977 46.4489 3.73153C46.9328 3.41998 47.4813 3.2642 48.0945 3.2642C48.5684 3.2642 48.9512 3.34375 49.2429 3.50284C49.5346 3.65862 49.7616 3.84091 49.924 4.04972C50.0897 4.25852 50.2173 4.44247 50.3068 4.60156H50.4162V3.36364H51.8729V11.169C51.8729 11.8253 51.7204 12.3639 51.4155 12.7848C51.1106 13.2057 50.6979 13.5173 50.1776 13.7195C49.6605 13.9216 49.0772 14.0227 48.4276 14.0227ZM48.4126 9.6527C48.8402 9.6527 49.2015 9.55327 49.4964 9.3544C49.7947 9.15223 50.0201 8.86387 50.1726 8.48935C50.3284 8.11151 50.4062 7.65909 50.4062 7.1321C50.4062 6.61837 50.33 6.16596 50.1776 5.77486C50.0251 5.38376 49.8014 5.07884 49.5064 4.86009C49.2114 4.63802 48.8468 4.52699 48.4126 4.52699C47.9652 4.52699 47.5923 4.64299 47.294 4.875C46.9957 5.10369 46.7704 5.41525 46.6179 5.80966C46.4688 6.20407 46.3942 6.64489 46.3942 7.1321C46.3942 7.63258 46.4704 8.07173 46.6229 8.44957C46.7753 8.82741 47.0007 9.1224 47.299 9.33452C47.6006 9.54664 47.9718 9.6527 48.4126 9.6527ZM58.3658 6.05327V7.34091H53.8516V6.05327H58.3658ZM63.8718 11.169C63.0863 11.1657 62.4151 10.9586 61.8583 10.5476C61.3015 10.1366 60.8756 9.53835 60.5806 8.75284C60.2856 7.96733 60.1381 7.02107 60.1381 5.91406C60.1381 4.81037 60.2856 3.86742 60.5806 3.08523C60.8789 2.30303 61.3065 1.70644 61.8633 1.29545C62.4234 0.884469 63.0929 0.678977 63.8718 0.678977C64.6507 0.678977 65.3185 0.886126 65.8754 1.30043C66.4322 1.71141 66.8581 2.308 67.1531 3.0902C67.4513 3.86908 67.6005 4.81037 67.6005 5.91406C67.6005 7.02438 67.453 7.9723 67.158 8.75781C66.863 9.54001 66.4371 10.1383 65.8803 10.5526C65.3235 10.9635 64.654 11.169 63.8718 11.169ZM63.8718 9.84162C64.5612 9.84162 65.0998 9.50521 65.4876 8.83239C65.8787 8.15956 66.0742 7.18679 66.0742 5.91406C66.0742 5.06889 65.9847 4.35464 65.8058 3.77131C65.6301 3.18466 65.3765 2.74053 65.0451 2.43892C64.717 2.134 64.3259 1.98153 63.8718 1.98153C63.1857 1.98153 62.6471 2.3196 62.256 2.99574C61.8649 3.67187 61.6677 4.64465 61.6644 5.91406C61.6644 6.76255 61.7522 7.48011 61.9279 8.06676C62.1069 8.65009 62.3604 9.09257 62.6886 9.39418C63.0167 9.69247 63.4111 9.84162 63.8718 9.84162ZM69.3642 11V9.88636L72.8095 6.31676C73.1774 5.92898 73.4806 5.58925 73.7193 5.29759C73.9612 5.0026 74.1419 4.72254 74.2612 4.45739C74.3805 4.19223 74.4402 3.91051 74.4402 3.61222C74.4402 3.27415 74.3606 2.98248 74.2015 2.73722C74.0424 2.48864 73.8253 2.29806 73.5502 2.16548C73.2752 2.02959 72.9653 1.96165 72.6206 1.96165C72.256 1.96165 71.9378 2.03622 71.666 2.18537C71.3942 2.33452 71.1854 2.54498 71.0396 2.81676C70.8938 3.08854 70.8208 3.40672 70.8208 3.77131H69.3542C69.3542 3.15151 69.4967 2.60961 69.7818 2.1456C70.0668 1.68158 70.4579 1.32197 70.9551 1.06676C71.4522 0.808238 72.0173 0.678977 72.6504 0.678977C73.2901 0.678977 73.8535 0.806581 74.3407 1.06179C74.8313 1.31368 75.2141 1.65838 75.4892 2.09588C75.7643 2.53007 75.9018 3.0206 75.9018 3.56747C75.9018 3.94531 75.8306 4.31487 75.688 4.67614C75.5488 5.0374 75.3052 5.4401 74.9572 5.88423C74.6092 6.32505 74.1253 6.86032 73.5055 7.49006L71.4821 9.60795V9.68253H76.0659V11H69.3642Z" fill="black"/>
</svg>
