<svg viewBox="0 0 81 15" fill="none" stroke-width="2" stroke="currentColor" aria-hidden="true">
  <path d="M3.22159 11.169C2.73769 11.169 2.30019 11.0795 1.90909 10.9006C1.51799 10.7183 1.2081 10.4548 0.979403 10.1101C0.754025 9.76539 0.641335 9.3428 0.641335 8.84233C0.641335 8.41146 0.724195 8.05682 0.889915 7.77841C1.05563 7.5 1.27936 7.27959 1.56108 7.11719C1.8428 6.95478 2.15767 6.83215 2.50568 6.74929C2.85369 6.66643 3.20833 6.60346 3.5696 6.56037C4.02699 6.50734 4.3982 6.46425 4.68324 6.43111C4.96828 6.39465 5.17543 6.33665 5.30469 6.2571C5.43395 6.17756 5.49858 6.0483 5.49858 5.86932V5.83452C5.49858 5.40033 5.37595 5.06392 5.13068 4.82528C4.88873 4.58665 4.52746 4.46733 4.04688 4.46733C3.5464 4.46733 3.15199 4.57836 2.86364 4.80043C2.5786 5.01918 2.38139 5.26278 2.27202 5.53125L0.875 5.21307C1.04072 4.74905 1.28267 4.37453 1.60085 4.08949C1.92235 3.80114 2.2919 3.59233 2.70952 3.46307C3.12713 3.33049 3.56629 3.2642 4.02699 3.2642C4.33191 3.2642 4.65507 3.30066 4.99645 3.37358C5.34115 3.44318 5.66264 3.57244 5.96094 3.76136C6.26255 3.95028 6.50947 4.22041 6.7017 4.57173C6.89394 4.91974 6.99006 5.37216 6.99006 5.92898V11H5.53835V9.95597H5.47869C5.38258 10.1482 5.2384 10.3371 5.04616 10.5227C4.85393 10.7083 4.60701 10.8625 4.3054 10.9851C4.00379 11.1077 3.64252 11.169 3.22159 11.169ZM3.54474 9.97585C3.95573 9.97585 4.30706 9.89465 4.59872 9.73224C4.8937 9.56984 5.11742 9.35772 5.26989 9.09588C5.42566 8.83073 5.50355 8.54735 5.50355 8.24574V7.26136C5.45052 7.31439 5.34777 7.36411 5.19531 7.41051C5.04616 7.4536 4.87547 7.49171 4.68324 7.52486C4.491 7.55469 4.30374 7.58286 4.12145 7.60938C3.93916 7.63258 3.7867 7.65246 3.66406 7.66903C3.37571 7.70549 3.11222 7.76681 2.87358 7.85298C2.63826 7.93916 2.44934 8.06345 2.30682 8.22585C2.16761 8.38494 2.09801 8.59706 2.09801 8.86222C2.09801 9.23011 2.2339 9.50852 2.50568 9.69744C2.77746 9.88305 3.12382 9.97585 3.54474 9.97585ZM10.4565 0.818182V11H8.96999V0.818182H10.4565ZM12.4563 11V3.36364H13.9428V11H12.4563ZM13.207 2.18537C12.9485 2.18537 12.7264 2.09919 12.5408 1.92685C12.3585 1.75118 12.2674 1.54238 12.2674 1.30043C12.2674 1.05516 12.3585 0.846354 12.5408 0.674005C12.7264 0.498342 12.9485 0.410511 13.207 0.410511C13.4656 0.410511 13.686 0.498342 13.8683 0.674005C14.0539 0.846354 14.1467 1.05516 14.1467 1.30043C14.1467 1.54238 14.0539 1.75118 13.8683 1.92685C13.686 2.09919 13.4656 2.18537 13.207 2.18537ZM19.1444 14.0227C18.5378 14.0227 18.0158 13.9432 17.5783 13.7841C17.1441 13.625 16.7895 13.4145 16.5144 13.1527C16.2393 12.8909 16.0338 12.6042 15.8979 12.2926L17.1756 11.7656C17.2651 11.9115 17.3844 12.0656 17.5336 12.228C17.686 12.3937 17.8915 12.5346 18.15 12.6506C18.4119 12.7666 18.7483 12.8246 19.1593 12.8246C19.7227 12.8246 20.1884 12.687 20.5563 12.4119C20.9242 12.1402 21.1081 11.706 21.1081 11.1094V9.60795H21.0137C20.9242 9.77036 20.7949 9.95099 20.6259 10.1499C20.4602 10.3487 20.2315 10.5211 19.9398 10.6669C19.6481 10.8127 19.2686 10.8857 18.8013 10.8857C18.1981 10.8857 17.6545 10.7448 17.1706 10.4631C16.69 10.178 16.3089 9.75876 16.0272 9.20526C15.7488 8.64844 15.6096 7.96401 15.6096 7.15199C15.6096 6.33996 15.7471 5.64394 16.0222 5.06392C16.3006 4.4839 16.6818 4.03977 17.1657 3.73153C17.6496 3.41998 18.1981 3.2642 18.8113 3.2642C19.2852 3.2642 19.668 3.34375 19.9597 3.50284C20.2514 3.65862 20.4784 3.84091 20.6408 4.04972C20.8065 4.25852 20.9341 4.44247 21.0236 4.60156H21.133V3.36364H22.5897V11.169C22.5897 11.8253 22.4372 12.3639 22.1323 12.7848C21.8274 13.2057 21.4147 13.5173 20.8944 13.7195C20.3773 13.9216 19.794 14.0227 19.1444 14.0227ZM19.1294 9.6527C19.557 9.6527 19.9183 9.55327 20.2132 9.3544C20.5115 9.15223 20.7369 8.86387 20.8894 8.48935C21.0452 8.11151 21.123 7.65909 21.123 7.1321C21.123 6.61837 21.0468 6.16596 20.8944 5.77486C20.7419 5.38376 20.5182 5.07884 20.2232 4.86009C19.9282 4.63802 19.5636 4.52699 19.1294 4.52699C18.682 4.52699 18.3091 4.64299 18.0108 4.875C17.7125 5.10369 17.4872 5.41525 17.3347 5.80966C17.1855 6.20407 17.111 6.64489 17.111 7.1321C17.111 7.63258 17.1872 8.07173 17.3397 8.44957C17.4921 8.82741 17.7175 9.1224 18.0158 9.33452C18.3174 9.54664 18.6886 9.6527 19.1294 9.6527ZM26.0698 6.46591V11H24.5833V3.36364H26.0101V4.60653H26.1046C26.2802 4.20218 26.5553 3.87737 26.9299 3.6321C27.3077 3.38684 27.7833 3.2642 28.3567 3.2642C28.8771 3.2642 29.3328 3.37358 29.7239 3.59233C30.115 3.80777 30.4183 4.12926 30.6337 4.55682C30.8491 4.98437 30.9569 5.51302 30.9569 6.14276V11H29.4703V6.32173C29.4703 5.76823 29.3262 5.3357 29.0378 5.02415C28.7495 4.70928 28.3534 4.55185 27.8496 4.55185C27.5049 4.55185 27.1983 4.62642 26.9299 4.77557C26.6647 4.92472 26.4542 5.14347 26.2985 5.43182C26.146 5.71686 26.0698 6.06155 26.0698 6.46591ZM37.4498 6.05327V7.34091H32.9355V6.05327H37.4498ZM42.6475 11.1541C41.9084 11.1541 41.2721 10.9867 40.7385 10.652C40.2082 10.3139 39.8005 9.84825 39.5154 9.25497C39.2304 8.66169 39.0879 7.98224 39.0879 7.21662C39.0879 6.44105 39.2337 5.75663 39.5254 5.16335C39.8171 4.56676 40.228 4.10109 40.7583 3.76633C41.2886 3.43158 41.9134 3.2642 42.6326 3.2642C43.2127 3.2642 43.7297 3.37192 44.1838 3.58736C44.6378 3.79948 45.0041 4.09777 45.2825 4.48224C45.5642 4.86671 45.7316 5.31581 45.7846 5.82955H44.3379C44.2583 5.47159 44.0761 5.16335 43.791 4.90483C43.5093 4.64631 43.1315 4.51705 42.6575 4.51705C42.2432 4.51705 41.8803 4.62642 41.5687 4.84517C41.2605 5.06061 41.0202 5.36884 40.8478 5.76989C40.6755 6.16761 40.5893 6.63826 40.5893 7.18182C40.5893 7.73864 40.6738 8.21922 40.8429 8.62358C41.0119 9.02794 41.2505 9.34115 41.5588 9.56321C41.8703 9.78527 42.2366 9.89631 42.6575 9.89631C42.9392 9.89631 43.1944 9.84493 43.4231 9.74219C43.6551 9.63613 43.849 9.48532 44.0048 9.28977C44.1639 9.09422 44.2749 8.8589 44.3379 8.58381H45.7846C45.7316 9.07765 45.5708 9.51847 45.3024 9.90625C45.0339 10.294 44.6743 10.599 44.2235 10.821C43.7761 11.0431 43.2508 11.1541 42.6475 11.1541ZM50.6655 11.1541C49.9131 11.1541 49.2652 10.9934 48.7216 10.6719C48.1813 10.3471 47.7637 9.89134 47.4688 9.30469C47.1771 8.71473 47.0312 8.02367 47.0312 7.23153C47.0312 6.44934 47.1771 5.75994 47.4688 5.16335C47.7637 4.56676 48.1747 4.10109 48.7017 3.76633C49.232 3.43158 49.8518 3.2642 50.5611 3.2642C50.992 3.2642 51.4096 3.33546 51.8139 3.47798C52.2183 3.6205 52.5812 3.84422 52.9027 4.14915C53.2242 4.45407 53.4777 4.85014 53.6634 5.33736C53.849 5.82126 53.9418 6.40956 53.9418 7.10227V7.62926H47.8714V6.51562H52.4851C52.4851 6.12453 52.4055 5.77817 52.2464 5.47656C52.0874 5.17164 51.8636 4.93134 51.5753 4.75568C51.2902 4.58002 50.9555 4.49219 50.571 4.49219C50.1534 4.49219 49.7888 4.59493 49.4773 4.80043C49.169 5.0026 48.9304 5.26776 48.7614 5.59588C48.5956 5.92069 48.5128 6.27367 48.5128 6.65483V7.52486C48.5128 8.03527 48.6023 8.46946 48.7812 8.82741C48.9635 9.18537 49.2171 9.45881 49.5419 9.64773C49.8667 9.83333 50.2462 9.92614 50.6804 9.92614C50.9621 9.92614 51.219 9.88636 51.451 9.80682C51.683 9.72396 51.8835 9.60133 52.0526 9.43892C52.2216 9.27652 52.3509 9.07599 52.4403 8.83736L53.8473 9.09091C53.7346 9.50521 53.5324 9.86813 53.2408 10.1797C52.9524 10.4879 52.5895 10.7282 52.152 10.9006C51.7178 11.0696 51.2223 11.1541 50.6655 11.1541ZM57.0776 6.46591V11H55.5911V3.36364H57.0179V4.60653H57.1124C57.2881 4.20218 57.5632 3.87737 57.9377 3.6321C58.3155 3.38684 58.7911 3.2642 59.3645 3.2642C59.8849 3.2642 60.3406 3.37358 60.7317 3.59233C61.1228 3.80777 61.4261 4.12926 61.6415 4.55682C61.8569 4.98437 61.9647 5.51302 61.9647 6.14276V11H60.4782V6.32173C60.4782 5.76823 60.334 5.3357 60.0456 5.02415C59.7573 4.70928 59.3612 4.55185 58.8574 4.55185C58.5127 4.55185 58.2061 4.62642 57.9377 4.77557C57.6725 4.92472 57.4621 5.14347 57.3063 5.43182C57.1538 5.71686 57.0776 6.06155 57.0776 6.46591ZM67.5229 3.36364V4.55682H63.3517V3.36364H67.5229ZM64.4703 1.53409H65.9569V8.75781C65.9569 9.04616 65.9999 9.26326 66.0861 9.40909C66.1723 9.55161 66.2833 9.64938 66.4192 9.70241C66.5584 9.75213 66.7092 9.77699 66.8716 9.77699C66.9909 9.77699 67.0953 9.7687 67.1848 9.75213C67.2743 9.73556 67.3439 9.7223 67.3936 9.71236L67.6621 10.9403C67.5759 10.9735 67.4533 11.0066 67.2942 11.0398C67.1351 11.0762 66.9363 11.0961 66.6976 11.0994C66.3065 11.1061 65.9419 11.0365 65.6039 10.8906C65.2658 10.7448 64.9924 10.5194 64.7836 10.2145C64.5748 9.90956 64.4703 9.52675 64.4703 9.06605V1.53409ZM69.1673 11V3.36364H70.604V4.5767H70.6836C70.8228 4.16572 71.0681 3.84257 71.4194 3.60724C71.774 3.36861 72.1751 3.24929 72.6225 3.24929C72.7153 3.24929 72.8247 3.2526 72.9506 3.25923C73.0799 3.26586 73.181 3.27415 73.2539 3.28409V4.70597C73.1942 4.68939 73.0882 4.67116 72.9357 4.65128C72.7833 4.62808 72.6308 4.61648 72.4783 4.61648C72.127 4.61648 71.8138 4.69105 71.5387 4.8402C71.2669 4.98603 71.0515 5.18987 70.8924 5.4517C70.7333 5.71023 70.6538 6.00521 70.6538 6.33665V11H69.1673ZM77.5581 11.1541C76.8057 11.1541 76.1577 10.9934 75.6142 10.6719C75.0739 10.3471 74.6563 9.89134 74.3613 9.30469C74.0697 8.71473 73.9238 8.02367 73.9238 7.23153C73.9238 6.44934 74.0697 5.75994 74.3613 5.16335C74.6563 4.56676 75.0673 4.10109 75.5943 3.76633C76.1246 3.43158 76.7444 3.2642 77.4537 3.2642C77.8845 3.2642 78.3021 3.33546 78.7065 3.47798C79.1109 3.6205 79.4738 3.84422 79.7953 4.14915C80.1168 4.45407 80.3703 4.85014 80.5559 5.33736C80.7415 5.82126 80.8343 6.40956 80.8343 7.10227V7.62926H74.764V6.51562H79.3777C79.3777 6.12453 79.2981 5.77817 79.139 5.47656C78.9799 5.17164 78.7562 4.93134 78.4679 4.75568C78.1828 4.58002 77.8481 4.49219 77.4636 4.49219C77.046 4.49219 76.6814 4.59493 76.3699 4.80043C76.0616 5.0026 75.823 5.26776 75.6539 5.59588C75.4882 5.92069 75.4054 6.27367 75.4054 6.65483V7.52486C75.4054 8.03527 75.4949 8.46946 75.6738 8.82741C75.8561 9.18537 76.1097 9.45881 76.4345 9.64773C76.7593 9.83333 77.1388 9.92614 77.573 9.92614C77.8547 9.92614 78.1116 9.88636 78.3436 9.80682C78.5756 9.72396 78.7761 9.60133 78.9451 9.43892C79.1142 9.27652 79.2434 9.07599 79.3329 8.83736L80.7399 9.09091C80.6272 9.50521 80.425 9.86813 80.1333 10.1797C79.845 10.4879 79.4821 10.7282 79.0446 10.9006C78.6104 11.0696 78.1149 11.1541 77.5581 11.1541Z" fill="black"/>
</svg>
