<svg viewBox="0 0 43 9" fill="none" stroke-width="2" stroke="currentColor" aria-hidden="true">
  <path d="M4.29048 8.15412C3.53812 8.15412 2.89015 7.99337 2.34659 7.67188C1.80634 7.34706 1.38873 6.89134 1.09375 6.30469C0.802083 5.71473 0.65625 5.02367 0.65625 4.23153C0.65625 3.44934 0.802083 2.75994 1.09375 2.16335C1.38873 1.56676 1.79972 1.10109 2.3267 0.766335C2.85701 0.431581 3.4768 0.264205 4.18608 0.264205C4.61695 0.264205 5.03456 0.335464 5.43892 0.477983C5.84328 0.620502 6.2062 0.844223 6.5277 1.14915C6.8492 1.45407 7.10275 1.85014 7.28835 2.33736C7.47396 2.82126 7.56676 3.40956 7.56676 4.10227V4.62926H1.49645V3.51562H6.11009C6.11009 3.12453 6.03054 2.77817 5.87145 2.47656C5.71236 2.17164 5.48864 1.93134 5.20028 1.75568C4.91525 1.58002 4.58049 1.49219 4.19602 1.49219C3.77841 1.49219 3.41383 1.59493 3.10227 1.80043C2.79403 2.0026 2.5554 2.26776 2.38636 2.59588C2.22064 2.92069 2.13778 3.27367 2.13778 3.65483V4.52486C2.13778 5.03527 2.22727 5.46946 2.40625 5.82741C2.58854 6.18537 2.84209 6.45881 3.1669 6.64773C3.49171 6.83333 3.87121 6.92614 4.3054 6.92614C4.58712 6.92614 4.84399 6.88636 5.07599 6.80682C5.308 6.72396 5.50852 6.60133 5.67756 6.43892C5.84659 6.27652 5.97585 6.07599 6.06534 5.83736L7.4723 6.09091C7.35961 6.50521 7.15743 6.86813 6.86577 7.17969C6.57741 7.48793 6.21449 7.72822 5.77699 7.90057C5.3428 8.0696 4.8473 8.15412 4.29048 8.15412ZM9.21609 8V0.363636H10.6529V1.5767H10.7324C10.8716 1.16572 11.1169 0.842566 11.4682 0.607244C11.8229 0.368608 12.2239 0.249289 12.6713 0.249289C12.7641 0.249289 12.8735 0.252604 12.9995 0.259233C13.1287 0.265861 13.2298 0.274147 13.3027 0.284091V1.70597C13.2431 1.68939 13.137 1.67116 12.9846 1.65128C12.8321 1.62808 12.6796 1.61648 12.5272 1.61648C12.1758 1.61648 11.8626 1.69105 11.5875 1.8402C11.3158 1.98603 11.1003 2.18987 10.9412 2.4517C10.7821 2.71023 10.7026 3.00521 10.7026 3.33665V8H9.21609ZM16.7431 8.16903C16.2592 8.16903 15.8217 8.07955 15.4306 7.90057C15.0395 7.71828 14.7296 7.45478 14.5009 7.11009C14.2755 6.76539 14.1628 6.3428 14.1628 5.84233C14.1628 5.41146 14.2457 5.05682 14.4114 4.77841C14.5771 4.5 14.8008 4.27959 15.0826 4.11719C15.3643 3.95478 15.6792 3.83215 16.0272 3.74929C16.3752 3.66643 16.7298 3.60346 17.0911 3.56037C17.5485 3.50734 17.9197 3.46425 18.2047 3.43111C18.4898 3.39465 18.6969 3.33665 18.8262 3.2571C18.9554 3.17756 19.0201 3.0483 19.0201 2.86932V2.83452C19.0201 2.40033 18.8974 2.06392 18.6522 1.82528C18.4102 1.58665 18.0489 1.46733 17.5684 1.46733C17.0679 1.46733 16.6735 1.57836 16.3851 1.80043C16.1001 2.01918 15.9029 2.26278 15.7935 2.53125L14.3965 2.21307C14.5622 1.74905 14.8042 1.37453 15.1223 1.08949C15.4438 0.801136 15.8134 0.592329 16.231 0.463068C16.6486 0.330492 17.0878 0.264205 17.5485 0.264205C17.8534 0.264205 18.1766 0.300663 18.5179 0.37358C18.8626 0.443182 19.1841 0.572443 19.4824 0.761363C19.784 0.950284 20.031 1.22041 20.2232 1.57173C20.4154 1.91974 20.5115 2.37216 20.5115 2.92898V8H19.0598V6.95597H19.0002C18.9041 7.1482 18.7599 7.33712 18.5676 7.52273C18.3754 7.70833 18.1285 7.86245 17.8269 7.98509C17.5253 8.10772 17.164 8.16903 16.7431 8.16903ZM17.0662 6.97585C17.4772 6.97585 17.8285 6.89465 18.1202 6.73224C18.4152 6.56984 18.6389 6.35772 18.7914 6.09588C18.9471 5.83073 19.025 5.54735 19.025 5.24574V4.26136C18.972 4.31439 18.8693 4.36411 18.7168 4.41051C18.5676 4.4536 18.397 4.49171 18.2047 4.52486C18.0125 4.55469 17.8252 4.58286 17.6429 4.60938C17.4606 4.63258 17.3082 4.65246 17.1855 4.66903C16.8972 4.70549 16.6337 4.76681 16.3951 4.85298C16.1597 4.93916 15.9708 5.06345 15.8283 5.22585C15.6891 5.38494 15.6195 5.59706 15.6195 5.86222C15.6195 6.23011 15.7554 6.50852 16.0272 6.69744C16.2989 6.88305 16.6453 6.97585 17.0662 6.97585ZM28.2138 2.22798L26.8665 2.46662C26.8101 2.29427 26.7206 2.13021 26.598 1.97443C26.4787 1.81865 26.3163 1.69105 26.1108 1.59162C25.9053 1.49219 25.6484 1.44247 25.3402 1.44247C24.9193 1.44247 24.5679 1.53693 24.2862 1.72585C24.0045 1.91146 23.8636 2.15175 23.8636 2.44673C23.8636 2.70194 23.9581 2.90743 24.147 3.06321C24.3359 3.21899 24.6409 3.34659 25.0618 3.44602L26.2749 3.72443C26.9775 3.88684 27.5012 4.13707 27.8459 4.47514C28.1906 4.81321 28.3629 5.25237 28.3629 5.79261C28.3629 6.25 28.2304 6.65767 27.9652 7.01562C27.7034 7.37027 27.3371 7.64867 26.8665 7.85085C26.3991 8.05303 25.8572 8.15412 25.2408 8.15412C24.3857 8.15412 23.688 7.97183 23.1477 7.60724C22.6075 7.23935 22.276 6.71733 22.1534 6.04119L23.5902 5.82244C23.6797 6.19697 23.8636 6.48035 24.142 6.67259C24.4205 6.86151 24.7834 6.95597 25.2308 6.95597C25.718 6.95597 26.1075 6.85488 26.3991 6.6527C26.6908 6.44721 26.8366 6.19697 26.8366 5.90199C26.8366 5.66335 26.7472 5.46283 26.5682 5.30043C26.3925 5.13802 26.1224 5.01539 25.7578 4.93253L24.4652 4.64915C23.7526 4.48674 23.2256 4.22822 22.8842 3.87358C22.5462 3.51894 22.3771 3.06984 22.3771 2.52628C22.3771 2.07552 22.5031 1.68111 22.755 1.34304C23.0069 1.00497 23.3549 0.741477 23.799 0.552557C24.2431 0.360322 24.7519 0.264205 25.3253 0.264205C26.1506 0.264205 26.8002 0.443182 27.2741 0.801136C27.7481 1.15578 28.0613 1.63139 28.2138 2.22798ZM33.2885 8.15412C32.5362 8.15412 31.8882 7.99337 31.3446 7.67188C30.8044 7.34706 30.3868 6.89134 30.0918 6.30469C29.8001 5.71473 29.6543 5.02367 29.6543 4.23153C29.6543 3.44934 29.8001 2.75994 30.0918 2.16335C30.3868 1.56676 30.7978 1.10109 31.3248 0.766335C31.8551 0.431581 32.4748 0.264205 33.1841 0.264205C33.615 0.264205 34.0326 0.335464 34.437 0.477983C34.8413 0.620502 35.2042 0.844223 35.5257 1.14915C35.8472 1.45407 36.1008 1.85014 36.2864 2.33736C36.472 2.82126 36.5648 3.40956 36.5648 4.10227V4.62926H30.4945V3.51562H35.1081C35.1081 3.12453 35.0286 2.77817 34.8695 2.47656C34.7104 2.17164 34.4867 1.93134 34.1983 1.75568C33.9133 1.58002 33.5785 1.49219 33.1941 1.49219C32.7765 1.49219 32.4119 1.59493 32.1003 1.80043C31.7921 2.0026 31.5534 2.26776 31.3844 2.59588C31.2187 2.92069 31.1358 3.27367 31.1358 3.65483V4.52486C31.1358 5.03527 31.2253 5.46946 31.4043 5.82741C31.5866 6.18537 31.8401 6.45881 32.165 6.64773C32.4898 6.83333 32.8693 6.92614 33.3034 6.92614C33.5852 6.92614 33.842 6.88636 34.074 6.80682C34.306 6.72396 34.5066 6.60133 34.6756 6.43892C34.8446 6.27652 34.9739 6.07599 35.0634 5.83736L36.4703 6.09091C36.3577 6.50521 36.1555 6.86813 35.8638 7.17969C35.5755 7.48793 35.2125 7.72822 34.775 7.90057C34.3408 8.0696 33.8453 8.15412 33.2885 8.15412ZM38.2141 8V0.363636H39.6509V1.5767H39.7305C39.8697 1.16572 40.1149 0.842566 40.4663 0.607244C40.8209 0.368608 41.2219 0.249289 41.6694 0.249289C41.7622 0.249289 41.8716 0.252604 41.9975 0.259233C42.1268 0.265861 42.2279 0.274147 42.3008 0.284091V1.70597C42.2411 1.68939 42.1351 1.67116 41.9826 1.65128C41.8301 1.62808 41.6777 1.61648 41.5252 1.61648C41.1739 1.61648 40.8607 1.69105 40.5856 1.8402C40.3138 1.98603 40.0984 2.18987 39.9393 2.4517C39.7802 2.71023 39.7006 3.00521 39.7006 3.33665V8H38.2141Z" fill="black"/>
</svg>
