<svg viewBox="0 0 81 14" fill="none" stroke-width="2" stroke="currentColor" aria-hidden="true">
  <path d="M0.118608 11V0.818182H1.60511V4.60156H1.6946C1.78078 4.44247 1.90507 4.25852 2.06747 4.04972C2.22988 3.84091 2.45526 3.65862 2.74361 3.50284C3.03196 3.34375 3.41312 3.2642 3.88707 3.2642C4.50355 3.2642 5.05374 3.41998 5.53764 3.73153C6.02154 4.04309 6.40104 4.49219 6.67614 5.07884C6.95455 5.66548 7.09375 6.37145 7.09375 7.19673C7.09375 8.02202 6.9562 8.72964 6.68111 9.3196C6.40601 9.90625 6.02817 10.3587 5.54759 10.6768C5.067 10.9917 4.51847 11.1491 3.90199 11.1491C3.43797 11.1491 3.05848 11.0713 2.76349 10.9155C2.47183 10.7597 2.24313 10.5774 2.07741 10.3686C1.9117 10.1598 1.78409 9.9742 1.6946 9.81179H1.57031V11H0.118608ZM1.57528 7.18182C1.57528 7.71875 1.65317 8.18939 1.80895 8.59375C1.96473 8.99811 2.1901 9.31463 2.48509 9.54332C2.78007 9.7687 3.14134 9.88139 3.56889 9.88139C4.01302 9.88139 4.38423 9.76373 4.68253 9.52841C4.98082 9.28977 5.2062 8.96662 5.35866 8.55895C5.51444 8.15128 5.59233 7.69223 5.59233 7.18182C5.59233 6.67803 5.5161 6.22562 5.36364 5.82457C5.21449 5.42353 4.98911 5.10701 4.6875 4.875C4.3892 4.64299 4.01634 4.52699 3.56889 4.52699C3.13802 4.52699 2.77344 4.63802 2.47514 4.86009C2.18016 5.08215 1.95644 5.39205 1.80398 5.78977C1.65152 6.1875 1.57528 6.65151 1.57528 7.18182ZM11.9796 11.1541C11.2637 11.1541 10.6389 10.9901 10.1053 10.6619C9.57167 10.3338 9.15737 9.87476 8.86239 9.2848C8.56741 8.69484 8.41992 8.00544 8.41992 7.21662C8.41992 6.42448 8.56741 5.73177 8.86239 5.13849C9.15737 4.54522 9.57167 4.08452 10.1053 3.75639C10.6389 3.42827 11.2637 3.2642 11.9796 3.2642C12.6955 3.2642 13.3203 3.42827 13.8539 3.75639C14.3875 4.08452 14.8018 4.54522 15.0968 5.13849C15.3917 5.73177 15.5392 6.42448 15.5392 7.21662C15.5392 8.00544 15.3917 8.69484 15.0968 9.2848C14.8018 9.87476 14.3875 10.3338 13.8539 10.6619C13.3203 10.9901 12.6955 11.1541 11.9796 11.1541ZM11.9846 9.90625C12.4486 9.90625 12.833 9.78362 13.138 9.53835C13.4429 9.29309 13.6683 8.96662 13.8141 8.55895C13.9632 8.15128 14.0378 7.70218 14.0378 7.21165C14.0378 6.72443 13.9632 6.27699 13.8141 5.86932C13.6683 5.45833 13.4429 5.12855 13.138 4.87997C12.833 4.63139 12.4486 4.5071 11.9846 4.5071C11.5172 4.5071 11.1294 4.63139 10.8212 4.87997C10.5163 5.12855 10.2892 5.45833 10.1401 5.86932C9.99426 6.27699 9.92134 6.72443 9.92134 7.21165C9.92134 7.70218 9.99426 8.15128 10.1401 8.55895C10.2892 8.96662 10.5163 9.29309 10.8212 9.53835C11.1294 9.78362 11.5172 9.90625 11.9846 9.90625ZM18.685 0.818182V11H17.1985V0.818182H18.685ZM23.5435 11.1491C22.927 11.1491 22.3768 10.9917 21.8929 10.6768C21.4123 10.3587 21.0345 9.90625 20.7594 9.3196C20.4876 8.72964 20.3517 8.02202 20.3517 7.19673C20.3517 6.37145 20.4893 5.66548 20.7644 5.07884C21.0428 4.49219 21.4239 4.04309 21.9078 3.73153C22.3917 3.41998 22.9403 3.2642 23.5534 3.2642C24.0274 3.2642 24.4086 3.34375 24.6969 3.50284C24.9886 3.65862 25.214 3.84091 25.373 4.04972C25.5355 4.25852 25.6614 4.44247 25.7509 4.60156H25.8404V0.818182H27.3269V11H25.8752V9.81179H25.7509C25.6614 9.9742 25.5321 10.1598 25.3631 10.3686C25.1974 10.5774 24.9687 10.7597 24.677 10.9155C24.3854 11.0713 24.0075 11.1491 23.5435 11.1491ZM23.8716 9.88139C24.2992 9.88139 24.6605 9.7687 24.9554 9.54332C25.2537 9.31463 25.4791 8.99811 25.6316 8.59375C25.7873 8.18939 25.8652 7.71875 25.8652 7.18182C25.8652 6.65151 25.789 6.1875 25.6365 5.78977C25.4841 5.39205 25.2604 5.08215 24.9654 4.86009C24.6704 4.63802 24.3058 4.52699 23.8716 4.52699C23.4242 4.52699 23.0513 4.64299 22.753 4.875C22.4547 5.10701 22.2293 5.42353 22.0769 5.82457C21.9277 6.22562 21.8532 6.67803 21.8532 7.18182C21.8532 7.69223 21.9294 8.15128 22.0819 8.55895C22.2343 8.96662 22.4597 9.28977 22.758 9.52841C23.0596 9.76373 23.4308 9.88139 23.8716 9.88139ZM33.9478 6.05327V7.34091H29.4336V6.05327H33.9478ZM41.6513 5.22798L40.304 5.46662C40.2476 5.29427 40.1581 5.13021 40.0355 4.97443C39.9162 4.81865 39.7538 4.69105 39.5483 4.59162C39.3428 4.49219 39.0859 4.44247 38.7777 4.44247C38.3568 4.44247 38.0054 4.53693 37.7237 4.72585C37.442 4.91146 37.3011 5.15175 37.3011 5.44673C37.3011 5.70194 37.3956 5.90743 37.5845 6.06321C37.7734 6.21899 38.0784 6.34659 38.4993 6.44602L39.7124 6.72443C40.415 6.88684 40.9387 7.13707 41.2834 7.47514C41.6281 7.81321 41.8004 8.25237 41.8004 8.79261C41.8004 9.25 41.6679 9.65767 41.4027 10.0156C41.1409 10.3703 40.7746 10.6487 40.304 10.8509C39.8366 11.053 39.2947 11.1541 38.6783 11.1541C37.8232 11.1541 37.1255 10.9718 36.5852 10.6072C36.045 10.2393 35.7135 9.71733 35.5909 9.04119L37.0277 8.82244C37.1172 9.19697 37.3011 9.48035 37.5795 9.67259C37.858 9.86151 38.2209 9.95597 38.6683 9.95597C39.1555 9.95597 39.545 9.85488 39.8366 9.6527C40.1283 9.44721 40.2741 9.19697 40.2741 8.90199C40.2741 8.66335 40.1847 8.46283 40.0057 8.30043C39.83 8.13802 39.5599 8.01539 39.1953 7.93253L37.9027 7.64915C37.1901 7.48674 36.6631 7.22822 36.3217 6.87358C35.9837 6.51894 35.8146 6.06984 35.8146 5.52628C35.8146 5.07552 35.9406 4.68111 36.1925 4.34304C36.4444 4.00497 36.7924 3.74148 37.2365 3.55256C37.6806 3.36032 38.1894 3.2642 38.7628 3.2642C39.5881 3.2642 40.2377 3.44318 40.7116 3.80114C41.1856 4.15578 41.4988 4.63139 41.6513 5.22798ZM48.5904 13.8636V9.81179H48.5009C48.4114 9.9742 48.2821 10.1598 48.1131 10.3686C47.9474 10.5774 47.7187 10.7597 47.427 10.9155C47.1354 11.0713 46.7575 11.1491 46.2935 11.1491C45.677 11.1491 45.1268 10.9917 44.6429 10.6768C44.1623 10.3587 43.7845 9.90625 43.5094 9.3196C43.2376 8.72964 43.1017 8.02202 43.1017 7.19673C43.1017 6.37145 43.2393 5.66548 43.5144 5.07884C43.7928 4.49219 44.1739 4.04309 44.6578 3.73153C45.1417 3.41998 45.6903 3.2642 46.3034 3.2642C46.7774 3.2642 47.1586 3.34375 47.4469 3.50284C47.7386 3.65862 47.964 3.84091 48.123 4.04972C48.2855 4.25852 48.4114 4.44247 48.5009 4.60156H48.6252V3.36364H50.0769V13.8636H48.5904ZM46.6216 9.88139C47.0492 9.88139 47.4105 9.7687 47.7054 9.54332C48.0037 9.31463 48.2291 8.99811 48.3816 8.59375C48.5373 8.18939 48.6152 7.71875 48.6152 7.18182C48.6152 6.65151 48.539 6.1875 48.3865 5.78977C48.2341 5.39205 48.0104 5.08215 47.7154 4.86009C47.4204 4.63802 47.0558 4.52699 46.6216 4.52699C46.1742 4.52699 45.8013 4.64299 45.503 4.875C45.2047 5.10701 44.9793 5.42353 44.8269 5.82457C44.6777 6.22562 44.6032 6.67803 44.6032 7.18182C44.6032 7.69223 44.6794 8.15128 44.8319 8.55895C44.9843 8.96662 45.2097 9.28977 45.508 9.52841C45.8096 9.76373 46.1808 9.88139 46.6216 9.88139ZM56.9128 7.8331V3.36364H58.4043V11H56.9426V9.67756H56.8631C56.6874 10.0852 56.4057 10.425 56.0179 10.6967C55.6335 10.9652 55.1545 11.0994 54.5811 11.0994C54.0906 11.0994 53.6564 10.9917 53.2786 10.7763C52.9041 10.5575 52.6091 10.2344 52.3936 9.80682C52.1815 9.37926 52.0755 8.85062 52.0755 8.22088V3.36364H53.562V8.0419C53.562 8.56226 53.7061 8.97656 53.9945 9.2848C54.2828 9.59304 54.6574 9.74716 55.1181 9.74716C55.3965 9.74716 55.6732 9.67756 55.9483 9.53835C56.2267 9.39915 56.4571 9.18868 56.6394 8.90696C56.825 8.62524 56.9161 8.26728 56.9128 7.8331ZM62.6239 11.169C62.14 11.169 61.7025 11.0795 61.3114 10.9006C60.9203 10.7183 60.6104 10.4548 60.3817 10.1101C60.1564 9.76539 60.0437 9.3428 60.0437 8.84233C60.0437 8.41146 60.1265 8.05682 60.2923 7.77841C60.458 7.5 60.6817 7.27959 60.9634 7.11719C61.2451 6.95478 61.56 6.83215 61.908 6.74929C62.256 6.66643 62.6107 6.60346 62.9719 6.56037C63.4293 6.50734 63.8005 6.46425 64.0856 6.43111C64.3706 6.39465 64.5778 6.33665 64.707 6.2571C64.8363 6.17756 64.9009 6.0483 64.9009 5.86932V5.83452C64.9009 5.40033 64.7783 5.06392 64.533 4.82528C64.2911 4.58665 63.9298 4.46733 63.4492 4.46733C62.9487 4.46733 62.5543 4.57836 62.266 4.80043C61.9809 5.01918 61.7837 5.26278 61.6744 5.53125L60.2773 5.21307C60.4431 4.74905 60.685 4.37453 61.0032 4.08949C61.3247 3.80114 61.6942 3.59233 62.1119 3.46307C62.5295 3.33049 62.9686 3.2642 63.4293 3.2642C63.7343 3.2642 64.0574 3.30066 64.3988 3.37358C64.7435 3.44318 65.065 3.57244 65.3633 3.76136C65.6649 3.95028 65.9118 4.22041 66.104 4.57173C66.2963 4.91974 66.3924 5.37216 66.3924 5.92898V11H64.9407V9.95597H64.881C64.7849 10.1482 64.6407 10.3371 64.4485 10.5227C64.2563 10.7083 64.0094 10.8625 63.7077 10.9851C63.4061 11.1077 63.0449 11.169 62.6239 11.169ZM62.9471 9.97585C63.3581 9.97585 63.7094 9.89465 64.0011 9.73224C64.296 9.56984 64.5198 9.35772 64.6722 9.09588C64.828 8.83073 64.9059 8.54735 64.9059 8.24574V7.26136C64.8529 7.31439 64.7501 7.36411 64.5977 7.41051C64.4485 7.4536 64.2778 7.49171 64.0856 7.52486C63.8933 7.55469 63.7061 7.58286 63.5238 7.60938C63.3415 7.63258 63.189 7.65246 63.0664 7.66903C62.7781 7.70549 62.5146 7.76681 62.2759 7.85298C62.0406 7.93916 61.8517 8.06345 61.7092 8.22585C61.57 8.38494 61.5004 8.59706 61.5004 8.86222C61.5004 9.23011 61.6362 9.50852 61.908 9.69744C62.1798 9.88305 62.5262 9.97585 62.9471 9.97585ZM68.3723 11V3.36364H69.8091V4.5767H69.8887C70.0279 4.16572 70.2731 3.84257 70.6245 3.60724C70.9791 3.36861 71.3801 3.24929 71.8276 3.24929C71.9204 3.24929 72.0298 3.2526 72.1557 3.25923C72.285 3.26586 72.3861 3.27415 72.459 3.28409V4.70597C72.3993 4.68939 72.2933 4.67116 72.1408 4.65128C71.9883 4.62808 71.8359 4.61648 71.6834 4.61648C71.3321 4.61648 71.0189 4.69105 70.7438 4.8402C70.472 4.98603 70.2566 5.18987 70.0975 5.4517C69.9384 5.71023 69.8588 6.00521 69.8588 6.33665V11H68.3723ZM76.7631 11.1541C76.0108 11.1541 75.3628 10.9934 74.8192 10.6719C74.279 10.3471 73.8614 9.89134 73.5664 9.30469C73.2747 8.71473 73.1289 8.02367 73.1289 7.23153C73.1289 6.44934 73.2747 5.75994 73.5664 5.16335C73.8614 4.56676 74.2724 4.10109 74.7994 3.76633C75.3297 3.43158 75.9495 3.2642 76.6587 3.2642C77.0896 3.2642 77.5072 3.33546 77.9116 3.47798C78.3159 3.6205 78.6789 3.84422 79.0004 4.14915C79.3219 4.45407 79.5754 4.85014 79.761 5.33736C79.9466 5.82126 80.0394 6.40956 80.0394 7.10227V7.62926H73.9691V6.51562H78.5827C78.5827 6.12453 78.5032 5.77817 78.3441 5.47656C78.185 5.17164 77.9613 4.93134 77.6729 4.75568C77.3879 4.58002 77.0531 4.49219 76.6687 4.49219C76.2511 4.49219 75.8865 4.59493 75.5749 4.80043C75.2667 5.0026 75.0281 5.26776 74.859 5.59588C74.6933 5.92069 74.6104 6.27367 74.6104 6.65483V7.52486C74.6104 8.03527 74.6999 8.46946 74.8789 8.82741C75.0612 9.18537 75.3147 9.45881 75.6396 9.64773C75.9644 9.83333 76.3439 9.92614 76.7781 9.92614C77.0598 9.92614 77.3166 9.88636 77.5487 9.80682C77.7807 9.72396 77.9812 9.60133 78.1502 9.43892C78.3192 9.27652 78.4485 9.07599 78.538 8.83736L79.945 9.09091C79.8323 9.50521 79.6301 9.86813 79.3384 10.1797C79.0501 10.4879 78.6871 10.7282 78.2496 10.9006C77.8155 11.0696 77.32 11.1541 76.7631 11.1541Z" fill="black"/>
</svg>
