<svg viewBox="0 0 35 9" fill="none" stroke-width="2" stroke="currentColor" aria-hidden="true">
  <path d="M-0.000710189 8V0.363636H1.42614V1.60653H1.5206C1.67969 1.18561 1.93987 0.857481 2.30114 0.622159C2.66241 0.383523 3.09493 0.264205 3.59872 0.264205C4.10914 0.264205 4.5367 0.383523 4.88139 0.622159C5.2294 0.860795 5.48627 1.18892 5.65199 1.60653H5.73153C5.91383 1.19886 6.20384 0.874053 6.60156 0.632102C6.99929 0.386837 7.47325 0.264205 8.02344 0.264205C8.71615 0.264205 9.28125 0.481297 9.71875 0.915483C10.1596 1.34967 10.38 2.00426 10.38 2.87926V8H8.89347V3.01847C8.89347 2.50142 8.7526 2.12689 8.47088 1.89489C8.18916 1.66288 7.85275 1.54688 7.46165 1.54688C6.97775 1.54688 6.60156 1.69602 6.3331 1.99432C6.06463 2.2893 5.9304 2.6688 5.9304 3.13281V8H4.44886V2.92401C4.44886 2.50971 4.3196 2.17661 4.06108 1.92472C3.80256 1.67282 3.46615 1.54688 3.05185 1.54688C2.77012 1.54688 2.50994 1.62145 2.27131 1.7706C2.03599 1.91643 1.84541 2.12026 1.69957 2.3821C1.55706 2.64394 1.4858 2.94721 1.4858 3.2919V8H-0.000710189ZM15.589 8.15412C14.873 8.15412 14.2483 7.99006 13.7147 7.66193C13.181 7.33381 12.7667 6.87476 12.4718 6.2848C12.1768 5.69484 12.0293 5.00544 12.0293 4.21662C12.0293 3.42448 12.1768 2.73177 12.4718 2.13849C12.7667 1.54522 13.181 1.08452 13.7147 0.756392C14.2483 0.428267 14.873 0.264205 15.589 0.264205C16.3049 0.264205 16.9296 0.428267 17.4632 0.756392C17.9969 1.08452 18.4112 1.54522 18.7061 2.13849C19.0011 2.73177 19.1486 3.42448 19.1486 4.21662C19.1486 5.00544 19.0011 5.69484 18.7061 6.2848C18.4112 6.87476 17.9969 7.33381 17.4632 7.66193C16.9296 7.99006 16.3049 8.15412 15.589 8.15412ZM15.5939 6.90625C16.0579 6.90625 16.4424 6.78362 16.7473 6.53835C17.0523 6.29309 17.2776 5.96662 17.4235 5.55895C17.5726 5.15128 17.6472 4.70218 17.6472 4.21165C17.6472 3.72443 17.5726 3.27699 17.4235 2.86932C17.2776 2.45833 17.0523 2.12855 16.7473 1.87997C16.4424 1.63139 16.0579 1.5071 15.5939 1.5071C15.1266 1.5071 14.7388 1.63139 14.4306 1.87997C14.1257 2.12855 13.8986 2.45833 13.7495 2.86932C13.6036 3.27699 13.5307 3.72443 13.5307 4.21165C13.5307 4.70218 13.6036 5.15128 13.7495 5.55895C13.8986 5.96662 14.1257 6.29309 14.4306 6.53835C14.7388 6.78362 15.1266 6.90625 15.5939 6.90625ZM27.0808 0.363636L24.3116 8H22.7207L19.9466 0.363636H21.5424L23.4764 6.24006H23.5559L25.4849 0.363636H27.0808ZM31.5092 8.15412C30.7569 8.15412 30.1089 7.99337 29.5653 7.67188C29.0251 7.34706 28.6075 6.89134 28.3125 6.30469C28.0208 5.71473 27.875 5.02367 27.875 4.23153C27.875 3.44934 28.0208 2.75994 28.3125 2.16335C28.6075 1.56676 29.0185 1.10109 29.5455 0.766335C30.0758 0.431581 30.6955 0.264205 31.4048 0.264205C31.8357 0.264205 32.2533 0.335464 32.6577 0.477983C33.062 0.620502 33.425 0.844223 33.7464 1.14915C34.0679 1.45407 34.3215 1.85014 34.5071 2.33736C34.6927 2.82126 34.7855 3.40956 34.7855 4.10227V4.62926H28.7152V3.51562H33.3288C33.3288 3.12453 33.2493 2.77817 33.0902 2.47656C32.9311 2.17164 32.7074 1.93134 32.419 1.75568C32.134 1.58002 31.7992 1.49219 31.4148 1.49219C30.9972 1.49219 30.6326 1.59493 30.321 1.80043C30.0128 2.0026 29.7741 2.26776 29.6051 2.59588C29.4394 2.92069 29.3565 3.27367 29.3565 3.65483V4.52486C29.3565 5.03527 29.446 5.46946 29.625 5.82741C29.8073 6.18537 30.0608 6.45881 30.3857 6.64773C30.7105 6.83333 31.09 6.92614 31.5241 6.92614C31.8059 6.92614 32.0627 6.88636 32.2947 6.80682C32.5268 6.72396 32.7273 6.60133 32.8963 6.43892C33.0653 6.27652 33.1946 6.07599 33.2841 5.83736L34.6911 6.09091C34.5784 6.50521 34.3762 6.86813 34.0845 7.17969C33.7962 7.48793 33.4332 7.72822 32.9957 7.90057C32.5616 8.0696 32.0661 8.15412 31.5092 8.15412Z" fill="black"/>
</svg>
