<svg viewBox="0 0 114 15" fill="none" stroke-width="2" stroke="currentColor" aria-hidden="true">
  <path d="M6.72159 5.22798L5.37429 5.46662C5.31795 5.29427 5.22846 5.13021 5.10582 4.97443C4.98651 4.81865 4.8241 4.69105 4.61861 4.59162C4.41312 4.49219 4.15625 4.44247 3.84801 4.44247C3.42708 4.44247 3.07576 4.53693 2.79403 4.72585C2.51231 4.91146 2.37145 5.15175 2.37145 5.44673C2.37145 5.70194 2.46591 5.90743 2.65483 6.06321C2.84375 6.21899 3.14867 6.34659 3.5696 6.44602L4.78267 6.72443C5.48532 6.88684 6.009 7.13707 6.35369 7.47514C6.69839 7.81321 6.87074 8.25237 6.87074 8.79261C6.87074 9.25 6.73816 9.65767 6.47301 10.0156C6.21117 10.3703 5.84493 10.6487 5.37429 10.8509C4.90696 11.053 4.36506 11.1541 3.74858 11.1541C2.89347 11.1541 2.19579 10.9718 1.65554 10.6072C1.11529 10.2393 0.783854 9.71733 0.661222 9.04119L2.09801 8.82244C2.1875 9.19697 2.37145 9.48035 2.64986 9.67259C2.92827 9.86151 3.29119 9.95597 3.73864 9.95597C4.22585 9.95597 4.61529 9.85488 4.90696 9.6527C5.19863 9.44721 5.34446 9.19697 5.34446 8.90199C5.34446 8.66335 5.25497 8.46283 5.07599 8.30043C4.90033 8.13802 4.63021 8.01539 4.26562 7.93253L2.97301 7.64915C2.26042 7.48674 1.73343 7.22822 1.39205 6.87358C1.05398 6.51894 0.884943 6.06984 0.884943 5.52628C0.884943 5.07552 1.01089 4.68111 1.26278 4.34304C1.51468 4.00497 1.86269 3.74148 2.30682 3.55256C2.75095 3.36032 3.25971 3.2642 3.8331 3.2642C4.65838 3.2642 5.308 3.44318 5.78196 3.80114C6.25592 4.15578 6.56913 4.63139 6.72159 5.22798ZM12.0698 3.36364V4.55682H7.89862V3.36364H12.0698ZM9.01722 1.53409H10.5037V8.75781C10.5037 9.04616 10.5468 9.26326 10.633 9.40909C10.7192 9.55161 10.8302 9.64938 10.9661 9.70241C11.1053 9.75213 11.2561 9.77699 11.4185 9.77699C11.5378 9.77699 11.6422 9.7687 11.7317 9.75213C11.8212 9.73556 11.8908 9.7223 11.9405 9.71236L12.209 10.9403C12.1228 10.9735 12.0002 11.0066 11.8411 11.0398C11.682 11.0762 11.4831 11.0961 11.2445 11.0994C10.8534 11.1061 10.4888 11.0365 10.1507 10.8906C9.81268 10.7448 9.53924 10.5194 9.33043 10.2145C9.12163 9.90956 9.01722 9.52675 9.01722 9.06605V1.53409ZM13.7141 11V3.36364H15.1509V4.5767H15.2305C15.3697 4.16572 15.6149 3.84257 15.9663 3.60724C16.3209 3.36861 16.7219 3.24929 17.1694 3.24929C17.2622 3.24929 17.3716 3.2526 17.4975 3.25923C17.6268 3.26586 17.7279 3.27415 17.8008 3.28409V4.70597C17.7411 4.68939 17.6351 4.67116 17.4826 4.65128C17.3301 4.62808 17.1777 4.61648 17.0252 4.61648C16.6739 4.61648 16.3607 4.69105 16.0856 4.8402C15.8138 4.98603 15.5984 5.18987 15.4393 5.4517C15.2802 5.71023 15.2006 6.00521 15.2006 6.33665V11H13.7141ZM19.0872 11V3.36364H20.5737V11H19.0872ZM19.8379 2.18537C19.5794 2.18537 19.3573 2.09919 19.1717 1.92685C18.9894 1.75118 18.8983 1.54238 18.8983 1.30043C18.8983 1.05516 18.9894 0.846354 19.1717 0.674005C19.3573 0.498342 19.5794 0.410511 19.8379 0.410511C20.0964 0.410511 20.3168 0.498342 20.4991 0.674005C20.6847 0.846354 20.7775 1.05516 20.7775 1.30043C20.7775 1.54238 20.6847 1.75118 20.4991 1.92685C20.3168 2.09919 20.0964 2.18537 19.8379 2.18537ZM23.9407 8.4098L23.9308 6.59517H24.1893L27.2319 3.36364H29.0117L25.5415 7.04261H25.3079L23.9407 8.4098ZM22.5735 11V0.818182H24.06V11H22.5735ZM27.396 11L24.6616 7.37074L25.6857 6.33168L29.2205 11H27.396ZM33.3432 11.1541C32.5908 11.1541 31.9429 10.9934 31.3993 10.6719C30.8591 10.3471 30.4415 9.89134 30.1465 9.30469C29.8548 8.71473 29.709 8.02367 29.709 7.23153C29.709 6.44934 29.8548 5.75994 30.1465 5.16335C30.4415 4.56676 30.8525 4.10109 31.3794 3.76633C31.9097 3.43158 32.5295 3.2642 33.2388 3.2642C33.6697 3.2642 34.0873 3.33546 34.4917 3.47798C34.896 3.6205 35.2589 3.84422 35.5804 4.14915C35.9019 4.45407 36.1555 4.85014 36.3411 5.33736C36.5267 5.82126 36.6195 6.40956 36.6195 7.10227V7.62926H30.5492V6.51562H35.1628C35.1628 6.12453 35.0833 5.77817 34.9242 5.47656C34.7651 5.17164 34.5414 4.93134 34.253 4.75568C33.968 4.58002 33.6332 4.49219 33.2488 4.49219C32.8311 4.49219 32.4666 4.59493 32.155 4.80043C31.8468 5.0026 31.6081 5.26776 31.4391 5.59588C31.2734 5.92069 31.1905 6.27367 31.1905 6.65483V7.52486C31.1905 8.03527 31.28 8.46946 31.459 8.82741C31.6413 9.18537 31.8948 9.45881 32.2196 9.64773C32.5444 9.83333 32.9239 9.92614 33.3581 9.92614C33.6399 9.92614 33.8967 9.88636 34.1287 9.80682C34.3607 9.72396 34.5613 9.60133 34.7303 9.43892C34.8993 9.27652 35.0286 9.07599 35.1181 8.83736L36.525 9.09091C36.4123 9.50521 36.2102 9.86813 35.9185 10.1797C35.6301 10.4879 35.2672 10.7282 34.8297 10.9006C34.3955 11.0696 33.9 11.1541 33.3432 11.1541ZM41.8335 3.36364V4.55682H37.6623V3.36364H41.8335ZM38.7809 1.53409H40.2674V8.75781C40.2674 9.04616 40.3105 9.26326 40.3967 9.40909C40.4828 9.55161 40.5939 9.64938 40.7298 9.70241C40.869 9.75213 41.0198 9.77699 41.1822 9.77699C41.3015 9.77699 41.4059 9.7687 41.4954 9.75213C41.5849 9.73556 41.6545 9.7223 41.7042 9.71236L41.9727 10.9403C41.8865 10.9735 41.7638 11.0066 41.6048 11.0398C41.4457 11.0762 41.2468 11.0961 41.0082 11.0994C40.6171 11.1061 40.2525 11.0365 39.9144 10.8906C39.5763 10.7448 39.3029 10.5194 39.0941 10.2145C38.8853 9.90956 38.7809 9.52675 38.7809 9.06605V1.53409ZM45.1284 6.46591V11H43.6419V0.818182H45.1085V4.60653H45.2029C45.3819 4.19555 45.6554 3.86908 46.0233 3.62713C46.3912 3.38518 46.8717 3.2642 47.465 3.2642C47.9887 3.2642 48.4461 3.37192 48.8372 3.58736C49.2316 3.80279 49.5365 4.12429 49.752 4.55185C49.9707 4.97609 50.0801 5.50639 50.0801 6.14276V11H48.5936V6.32173C48.5936 5.7616 48.4494 5.32741 48.161 5.01918C47.8727 4.70762 47.4717 4.55185 46.9579 4.55185C46.6066 4.55185 46.2917 4.62642 46.0133 4.77557C45.7382 4.92472 45.5211 5.14347 45.362 5.43182C45.2063 5.71686 45.1284 6.06155 45.1284 6.46591ZM52.0637 11V3.36364H53.5005V4.5767H53.5801C53.7193 4.16572 53.9645 3.84257 54.3159 3.60724C54.6705 3.36861 55.0716 3.24929 55.519 3.24929C55.6118 3.24929 55.7212 3.2526 55.8471 3.25923C55.9764 3.26586 56.0775 3.27415 56.1504 3.28409V4.70597C56.0907 4.68939 55.9847 4.67116 55.8322 4.65128C55.6797 4.62808 55.5273 4.61648 55.3748 4.61648C55.0235 4.61648 54.7103 4.69105 54.4352 4.8402C54.1634 4.98603 53.948 5.18987 53.7889 5.4517C53.6298 5.71023 53.5502 6.00521 53.5502 6.33665V11H52.0637ZM60.38 11.1541C59.6641 11.1541 59.0393 10.9901 58.5057 10.6619C57.9721 10.3338 57.5578 9.87476 57.2628 9.2848C56.9678 8.69484 56.8203 8.00544 56.8203 7.21662C56.8203 6.42448 56.9678 5.73177 57.2628 5.13849C57.5578 4.54522 57.9721 4.08452 58.5057 3.75639C59.0393 3.42827 59.6641 3.2642 60.38 3.2642C61.0959 3.2642 61.7206 3.42827 62.2543 3.75639C62.7879 4.08452 63.2022 4.54522 63.4972 5.13849C63.7921 5.73177 63.9396 6.42448 63.9396 7.21662C63.9396 8.00544 63.7921 8.69484 63.4972 9.2848C63.2022 9.87476 62.7879 10.3338 62.2543 10.6619C61.7206 10.9901 61.0959 11.1541 60.38 11.1541ZM60.3849 9.90625C60.849 9.90625 61.2334 9.78362 61.5384 9.53835C61.8433 9.29309 62.0687 8.96662 62.2145 8.55895C62.3636 8.15128 62.4382 7.70218 62.4382 7.21165C62.4382 6.72443 62.3636 6.27699 62.2145 5.86932C62.0687 5.45833 61.8433 5.12855 61.5384 4.87997C61.2334 4.63139 60.849 4.5071 60.3849 4.5071C59.9176 4.5071 59.5298 4.63139 59.2216 4.87997C58.9167 5.12855 58.6896 5.45833 58.5405 5.86932C58.3946 6.27699 58.3217 6.72443 58.3217 7.21165C58.3217 7.70218 58.3946 8.15128 58.5405 8.55895C58.6896 8.96662 58.9167 9.29309 59.2216 9.53835C59.5298 9.78362 59.9176 9.90625 60.3849 9.90625ZM70.4363 7.8331V3.36364H71.9277V11H70.4661V9.67756H70.3865C70.2109 10.0852 69.9292 10.425 69.5414 10.6967C69.1569 10.9652 68.678 11.0994 68.1046 11.0994C67.6141 11.0994 67.1799 10.9917 66.802 10.7763C66.4275 10.5575 66.1325 10.2344 65.9171 9.80682C65.705 9.37926 65.5989 8.85062 65.5989 8.22088V3.36364H67.0854V8.0419C67.0854 8.56226 67.2296 8.97656 67.5179 9.2848C67.8063 9.59304 68.1808 9.74716 68.6415 9.74716C68.9199 9.74716 69.1967 9.67756 69.4718 9.53835C69.7502 9.39915 69.9805 9.18868 70.1628 8.90696C70.3484 8.62524 70.4396 8.26728 70.4363 7.8331ZM77.1268 14.0227C76.5202 14.0227 75.9982 13.9432 75.5607 13.7841C75.1265 13.625 74.7719 13.4145 74.4968 13.1527C74.2217 12.8909 74.0162 12.6042 73.8803 12.2926L75.158 11.7656C75.2475 11.9115 75.3668 12.0656 75.516 12.228C75.6684 12.3937 75.8739 12.5346 76.1325 12.6506C76.3943 12.7666 76.7307 12.8246 77.1417 12.8246C77.7051 12.8246 78.1708 12.687 78.5387 12.4119C78.9066 12.1402 79.0906 11.706 79.0906 11.1094V9.60795H78.9961C78.9066 9.77036 78.7773 9.95099 78.6083 10.1499C78.4426 10.3487 78.2139 10.5211 77.9222 10.6669C77.6306 10.8127 77.2511 10.8857 76.7837 10.8857C76.1805 10.8857 75.637 10.7448 75.1531 10.4631C74.6725 10.178 74.2913 9.75876 74.0096 9.20526C73.7312 8.64844 73.592 7.96401 73.592 7.15199C73.592 6.33996 73.7295 5.64394 74.0046 5.06392C74.283 4.4839 74.6642 4.03977 75.1481 3.73153C75.632 3.41998 76.1805 3.2642 76.7937 3.2642C77.2676 3.2642 77.6504 3.34375 77.9421 3.50284C78.2338 3.65862 78.4608 3.84091 78.6232 4.04972C78.7889 4.25852 78.9165 4.44247 79.006 4.60156H79.1154V3.36364H80.5721V11.169C80.5721 11.8253 80.4196 12.3639 80.1147 12.7848C79.8098 13.2057 79.3971 13.5173 78.8768 13.7195C78.3597 13.9216 77.7764 14.0227 77.1268 14.0227ZM77.1119 9.6527C77.5394 9.6527 77.9007 9.55327 78.1957 9.3544C78.494 9.15223 78.7193 8.86387 78.8718 8.48935C79.0276 8.11151 79.1055 7.65909 79.1055 7.1321C79.1055 6.61837 79.0292 6.16596 78.8768 5.77486C78.7243 5.38376 78.5006 5.07884 78.2056 4.86009C77.9106 4.63802 77.546 4.52699 77.1119 4.52699C76.6644 4.52699 76.2915 4.64299 75.9933 4.875C75.695 5.10369 75.4696 5.41525 75.3171 5.80966C75.168 6.20407 75.0934 6.64489 75.0934 7.1321C75.0934 7.63258 75.1696 8.07173 75.3221 8.44957C75.4746 8.82741 75.6999 9.1224 75.9982 9.33452C76.2998 9.54664 76.671 9.6527 77.1119 9.6527ZM84.0522 6.46591V11H82.5657V0.818182H84.0323V4.60653H84.1268C84.3058 4.19555 84.5792 3.86908 84.9471 3.62713C85.315 3.38518 85.7956 3.2642 86.3888 3.2642C86.9125 3.2642 87.3699 3.37192 87.761 3.58736C88.1554 3.80279 88.4603 4.12429 88.6758 4.55185C88.8945 4.97609 89.0039 5.50639 89.0039 6.14276V11H87.5174V6.32173C87.5174 5.7616 87.3732 5.32741 87.0849 5.01918C86.7965 4.70762 86.3955 4.55185 85.8817 4.55185C85.5304 4.55185 85.2156 4.62642 84.9371 4.77557C84.6621 4.92472 84.445 5.14347 84.2859 5.43182C84.1301 5.71686 84.0522 6.06155 84.0522 6.46591ZM95.4869 6.05327V7.34091H90.9727V6.05327H95.4869ZM100.993 11.169C100.207 11.1657 99.5362 10.9586 98.9794 10.5476C98.4226 10.1366 97.9967 9.53835 97.7017 8.75284C97.4067 7.96733 97.2592 7.02107 97.2592 5.91406C97.2592 4.81037 97.4067 3.86742 97.7017 3.08523C98 2.30303 98.4276 1.70644 98.9844 1.29545C99.5445 0.884469 100.214 0.678977 100.993 0.678977C101.772 0.678977 102.44 0.886126 102.996 1.30043C103.553 1.71141 103.979 2.308 104.274 3.0902C104.572 3.86908 104.722 4.81037 104.722 5.91406C104.722 7.02438 104.574 7.9723 104.279 8.75781C103.984 9.54001 103.558 10.1383 103.001 10.5526C102.445 10.9635 101.775 11.169 100.993 11.169ZM100.993 9.84162C101.682 9.84162 102.221 9.50521 102.609 8.83239C103 8.15956 103.195 7.18679 103.195 5.91406C103.195 5.06889 103.106 4.35464 102.927 3.77131C102.751 3.18466 102.498 2.74053 102.166 2.43892C101.838 2.134 101.447 1.98153 100.993 1.98153C100.307 1.98153 99.7682 2.3196 99.3771 2.99574C98.986 3.67187 98.7888 4.64465 98.7855 5.91406C98.7855 6.76255 98.8733 7.48011 99.049 8.06676C99.228 8.65009 99.4815 9.09257 99.8097 9.39418C100.138 9.69247 100.532 9.84162 100.993 9.84162ZM106.485 11V9.88636L109.931 6.31676C110.298 5.92898 110.602 5.58925 110.84 5.29759C111.082 5.0026 111.263 4.72254 111.382 4.45739C111.502 4.19223 111.561 3.91051 111.561 3.61222C111.561 3.27415 111.482 2.98248 111.323 2.73722C111.164 2.48864 110.946 2.29806 110.671 2.16548C110.396 2.02959 110.086 1.96165 109.742 1.96165C109.377 1.96165 109.059 2.03622 108.787 2.18537C108.515 2.33452 108.307 2.54498 108.161 2.81676C108.015 3.08854 107.942 3.40672 107.942 3.77131H106.475C106.475 3.15151 106.618 2.60961 106.903 2.1456C107.188 1.68158 107.579 1.32197 108.076 1.06676C108.573 0.808238 109.138 0.678977 109.771 0.678977C110.411 0.678977 110.975 0.806581 111.462 1.06179C111.952 1.31368 112.335 1.65838 112.61 2.09588C112.885 2.53007 113.023 3.0206 113.023 3.56747C113.023 3.94531 112.952 4.31487 112.809 4.67614C112.67 5.0374 112.426 5.4401 112.078 5.88423C111.73 6.32505 111.246 6.86032 110.627 7.49006L108.603 9.60795V9.68253H113.187V11H106.485Z" fill="black"/>
</svg>
