<svg viewBox="0 0 88 14" fill="none" stroke-width="2" stroke="currentColor" aria-hidden="true">
  <path d="M3.85795 11.1491C3.24148 11.1491 2.69129 10.9917 2.20739 10.6768C1.7268 10.3587 1.34896 9.90625 1.07386 9.3196C0.802083 8.72964 0.666193 8.02202 0.666193 7.19673C0.666193 6.37145 0.803741 5.66548 1.07884 5.07884C1.35724 4.49219 1.7384 4.04309 2.2223 3.73153C2.7062 3.41998 3.25473 3.2642 3.8679 3.2642C4.34186 3.2642 4.72301 3.34375 5.01136 3.50284C5.30303 3.65862 5.52841 3.84091 5.6875 4.04972C5.84991 4.25852 5.97585 4.44247 6.06534 4.60156H6.15483V0.818182H7.64134V11H6.18963V9.81179H6.06534C5.97585 9.9742 5.84659 10.1598 5.67756 10.3686C5.51184 10.5774 5.28314 10.7597 4.99148 10.9155C4.69981 11.0713 4.32197 11.1491 3.85795 11.1491ZM4.18608 9.88139C4.61364 9.88139 4.97491 9.7687 5.26989 9.54332C5.56818 9.31463 5.79356 8.99811 5.94602 8.59375C6.1018 8.18939 6.17969 7.71875 6.17969 7.18182C6.17969 6.65151 6.10346 6.1875 5.95099 5.78977C5.79853 5.39205 5.57481 5.08215 5.27983 4.86009C4.98485 4.63802 4.62027 4.52699 4.18608 4.52699C3.73864 4.52699 3.36577 4.64299 3.06747 4.875C2.76918 5.10701 2.5438 5.42353 2.39134 5.82457C2.24219 6.22562 2.16761 6.67803 2.16761 7.18182C2.16761 7.69223 2.24384 8.15128 2.39631 8.55895C2.54877 8.96662 2.77415 9.28977 3.07244 9.52841C3.37405 9.76373 3.74527 9.88139 4.18608 9.88139ZM12.9796 11.1541C12.2637 11.1541 11.6389 10.9901 11.1053 10.6619C10.5717 10.3338 10.1574 9.87476 9.86239 9.2848C9.56741 8.69484 9.41992 8.00544 9.41992 7.21662C9.41992 6.42448 9.56741 5.73177 9.86239 5.13849C10.1574 4.54522 10.5717 4.08452 11.1053 3.75639C11.6389 3.42827 12.2637 3.2642 12.9796 3.2642C13.6955 3.2642 14.3203 3.42827 14.8539 3.75639C15.3875 4.08452 15.8018 4.54522 16.0968 5.13849C16.3917 5.73177 16.5392 6.42448 16.5392 7.21662C16.5392 8.00544 16.3917 8.69484 16.0968 9.2848C15.8018 9.87476 15.3875 10.3338 14.8539 10.6619C14.3203 10.9901 13.6955 11.1541 12.9796 11.1541ZM12.9846 9.90625C13.4486 9.90625 13.833 9.78362 14.138 9.53835C14.4429 9.29309 14.6683 8.96662 14.8141 8.55895C14.9632 8.15128 15.0378 7.70218 15.0378 7.21165C15.0378 6.72443 14.9632 6.27699 14.8141 5.86932C14.6683 5.45833 14.4429 5.12855 14.138 4.87997C13.833 4.63139 13.4486 4.5071 12.9846 4.5071C12.5172 4.5071 12.1294 4.63139 11.8212 4.87997C11.5163 5.12855 11.2892 5.45833 11.1401 5.86932C10.9943 6.27699 10.9213 6.72443 10.9213 7.21165C10.9213 7.70218 10.9943 8.15128 11.1401 8.55895C11.2892 8.96662 11.5163 9.29309 11.8212 9.53835C12.1294 9.78362 12.5172 9.90625 12.9846 9.90625ZM21.7631 3.36364V4.55682H17.592V3.36364H21.7631ZM18.7106 1.53409H20.1971V8.75781C20.1971 9.04616 20.2402 9.26326 20.3263 9.40909C20.4125 9.55161 20.5236 9.64938 20.6594 9.70241C20.7987 9.75213 20.9495 9.77699 21.1119 9.77699C21.2312 9.77699 21.3356 9.7687 21.4251 9.75213C21.5146 9.73556 21.5842 9.7223 21.6339 9.71236L21.9023 10.9403C21.8162 10.9735 21.6935 11.0066 21.5344 11.0398C21.3754 11.0762 21.1765 11.0961 20.9379 11.0994C20.5468 11.1061 20.1822 11.0365 19.8441 10.8906C19.506 10.7448 19.2326 10.5194 19.0238 10.2145C18.815 9.90956 18.7106 9.52675 18.7106 9.06605V1.53409ZM23.4075 13.8636V3.36364H24.8592V4.60156H24.9835C25.0697 4.44247 25.194 4.25852 25.3564 4.04972C25.5188 3.84091 25.7441 3.65862 26.0325 3.50284C26.3208 3.34375 26.702 3.2642 27.176 3.2642C27.7924 3.2642 28.3426 3.41998 28.8265 3.73153C29.3104 4.04309 29.6899 4.49219 29.965 5.07884C30.2434 5.66548 30.3826 6.37145 30.3826 7.19673C30.3826 8.02202 30.2451 8.72964 29.97 9.3196C29.6949 9.90625 29.3171 10.3587 28.8365 10.6768C28.3559 10.9917 27.8074 11.1491 27.1909 11.1491C26.7269 11.1491 26.3474 11.0713 26.0524 10.9155C25.7607 10.7597 25.532 10.5774 25.3663 10.3686C25.2006 10.1598 25.073 9.9742 24.9835 9.81179H24.894V13.8636H23.4075ZM24.8642 7.18182C24.8642 7.71875 24.9421 8.18939 25.0978 8.59375C25.2536 8.99811 25.479 9.31463 25.774 9.54332C26.069 9.7687 26.4302 9.88139 26.8578 9.88139C27.3019 9.88139 27.6731 9.76373 27.9714 9.52841C28.2697 9.28977 28.4951 8.96662 28.6475 8.55895C28.8033 8.15128 28.8812 7.69223 28.8812 7.18182C28.8812 6.67803 28.805 6.22562 28.6525 5.82457C28.5034 5.42353 28.278 5.10701 27.9764 4.875C27.6781 4.64299 27.3052 4.52699 26.8578 4.52699C26.4269 4.52699 26.0623 4.63802 25.764 4.86009C25.469 5.08215 25.2453 5.39205 25.0929 5.78977C24.9404 6.1875 24.8642 6.65151 24.8642 7.18182ZM35.2647 11.1541C34.5488 11.1541 33.9241 10.9901 33.3904 10.6619C32.8568 10.3338 32.4425 9.87476 32.1475 9.2848C31.8526 8.69484 31.7051 8.00544 31.7051 7.21662C31.7051 6.42448 31.8526 5.73177 32.1475 5.13849C32.4425 4.54522 32.8568 4.08452 33.3904 3.75639C33.9241 3.42827 34.5488 3.2642 35.2647 3.2642C35.9806 3.2642 36.6054 3.42827 37.139 3.75639C37.6726 4.08452 38.0869 4.54522 38.3819 5.13849C38.6769 5.73177 38.8244 6.42448 38.8244 7.21662C38.8244 8.00544 38.6769 8.69484 38.3819 9.2848C38.0869 9.87476 37.6726 10.3338 37.139 10.6619C36.6054 10.9901 35.9806 11.1541 35.2647 11.1541ZM35.2697 9.90625C35.7337 9.90625 36.1182 9.78362 36.4231 9.53835C36.728 9.29309 36.9534 8.96662 37.0993 8.55895C37.2484 8.15128 37.323 7.70218 37.323 7.21165C37.323 6.72443 37.2484 6.27699 37.0993 5.86932C36.9534 5.45833 36.728 5.12855 36.4231 4.87997C36.1182 4.63139 35.7337 4.5071 35.2697 4.5071C34.8024 4.5071 34.4146 4.63139 34.1064 4.87997C33.8014 5.12855 33.5744 5.45833 33.4252 5.86932C33.2794 6.27699 33.2065 6.72443 33.2065 7.21165C33.2065 7.70218 33.2794 8.15128 33.4252 8.55895C33.5744 8.96662 33.8014 9.29309 34.1064 9.53835C34.4146 9.78362 34.8024 9.90625 35.2697 9.90625ZM40.4837 11V3.36364H41.9702V11H40.4837ZM41.2344 2.18537C40.9759 2.18537 40.7538 2.09919 40.5682 1.92685C40.3859 1.75118 40.2947 1.54238 40.2947 1.30043C40.2947 1.05516 40.3859 0.846354 40.5682 0.674005C40.7538 0.498342 40.9759 0.410511 41.2344 0.410511C41.4929 0.410511 41.7133 0.498342 41.8956 0.674005C42.0812 0.846354 42.174 1.05516 42.174 1.30043C42.174 1.54238 42.0812 1.75118 41.8956 1.92685C41.7133 2.09919 41.4929 2.18537 41.2344 2.18537ZM45.4565 6.46591V11H43.97V3.36364H45.3968V4.60653H45.4913C45.667 4.20218 45.9421 3.87737 46.3166 3.6321C46.6944 3.38684 47.17 3.2642 47.7434 3.2642C48.2638 3.2642 48.7195 3.37358 49.1106 3.59233C49.5017 3.80777 49.805 4.12926 50.0204 4.55682C50.2359 4.98437 50.3436 5.51302 50.3436 6.14276V11H48.8571V6.32173C48.8571 5.76823 48.7129 5.3357 48.4245 5.02415C48.1362 4.70928 47.7401 4.55185 47.2363 4.55185C46.8916 4.55185 46.585 4.62642 46.3166 4.77557C46.0514 4.92472 45.841 5.14347 45.6852 5.43182C45.5327 5.71686 45.4565 6.06155 45.4565 6.46591ZM55.9018 3.36364V4.55682H51.7306V3.36364H55.9018ZM52.8493 1.53409H54.3358V8.75781C54.3358 9.04616 54.3788 9.26326 54.465 9.40909C54.5512 9.55161 54.6622 9.64938 54.7981 9.70241C54.9373 9.75213 55.0881 9.77699 55.2505 9.77699C55.3699 9.77699 55.4743 9.7687 55.5637 9.75213C55.6532 9.73556 55.7228 9.7223 55.7725 9.71236L56.041 10.9403C55.9548 10.9735 55.8322 11.0066 55.6731 11.0398C55.514 11.0762 55.3152 11.0961 55.0765 11.0994C54.6854 11.1061 54.3208 11.0365 53.9828 10.8906C53.6447 10.7448 53.3713 10.5194 53.1625 10.2145C52.9537 9.90956 52.8493 9.52675 52.8493 9.06605V1.53409ZM63.1454 5.22798L61.7981 5.46662C61.7418 5.29427 61.6523 5.13021 61.5297 4.97443C61.4103 4.81865 61.2479 4.69105 61.0424 4.59162C60.8369 4.49219 60.5801 4.44247 60.2718 4.44247C59.8509 4.44247 59.4996 4.53693 59.2179 4.72585C58.9361 4.91146 58.7953 5.15175 58.7953 5.44673C58.7953 5.70194 58.8897 5.90743 59.0787 6.06321C59.2676 6.21899 59.5725 6.34659 59.9934 6.44602L61.2065 6.72443C61.9092 6.88684 62.4328 7.13707 62.7775 7.47514C63.1222 7.81321 63.2946 8.25237 63.2946 8.79261C63.2946 9.25 63.162 9.65767 62.8968 10.0156C62.635 10.3703 62.2688 10.6487 61.7981 10.8509C61.3308 11.053 60.7889 11.1541 60.1724 11.1541C59.3173 11.1541 58.6196 10.9718 58.0794 10.6072C57.5391 10.2393 57.2077 9.71733 57.085 9.04119L58.5218 8.82244C58.6113 9.19697 58.7953 9.48035 59.0737 9.67259C59.3521 9.86151 59.715 9.95597 60.1625 9.95597C60.6497 9.95597 61.0391 9.85488 61.3308 9.6527C61.6225 9.44721 61.7683 9.19697 61.7683 8.90199C61.7683 8.66335 61.6788 8.46283 61.4998 8.30043C61.3242 8.13802 61.054 8.01539 60.6895 7.93253L59.3968 7.64915C58.6842 7.48674 58.1573 7.22822 57.8159 6.87358C57.4778 6.51894 57.3088 6.06984 57.3088 5.52628C57.3088 5.07552 57.4347 4.68111 57.6866 4.34304C57.9385 4.00497 58.2865 3.74148 58.7306 3.55256C59.1748 3.36032 59.6835 3.2642 60.2569 3.2642C61.0822 3.2642 61.7318 3.44318 62.2058 3.80114C62.6797 4.15578 62.993 4.63139 63.1454 5.22798ZM69.4283 6.05327V7.34091H64.9141V6.05327H69.4283ZM74.9343 11.169C74.1488 11.1657 73.4776 10.9586 72.9208 10.5476C72.364 10.1366 71.9381 9.53835 71.6431 8.75284C71.3481 7.96733 71.2006 7.02107 71.2006 5.91406C71.2006 4.81037 71.3481 3.86742 71.6431 3.08523C71.9414 2.30303 72.369 1.70644 72.9258 1.29545C73.4859 0.884469 74.1554 0.678977 74.9343 0.678977C75.7132 0.678977 76.381 0.886126 76.9379 1.30043C77.4947 1.71141 77.9206 2.308 78.2156 3.0902C78.5138 3.86908 78.663 4.81037 78.663 5.91406C78.663 7.02438 78.5155 7.9723 78.2205 8.75781C77.9255 9.54001 77.4996 10.1383 76.9428 10.5526C76.386 10.9635 75.7165 11.169 74.9343 11.169ZM74.9343 9.84162C75.6237 9.84162 76.1623 9.50521 76.5501 8.83239C76.9412 8.15956 77.1367 7.18679 77.1367 5.91406C77.1367 5.06889 77.0472 4.35464 76.8683 3.77131C76.6926 3.18466 76.439 2.74053 76.1076 2.43892C75.7795 2.134 75.3884 1.98153 74.9343 1.98153C74.2482 1.98153 73.7096 2.3196 73.3185 2.99574C72.9274 3.67187 72.7302 4.64465 72.7269 5.91406C72.7269 6.76255 72.8147 7.48011 72.9904 8.06676C73.1694 8.65009 73.4229 9.09257 73.7511 9.39418C74.0792 9.69247 74.4736 9.84162 74.9343 9.84162ZM80.4267 11V9.88636L83.872 6.31676C84.2399 5.92898 84.5431 5.58925 84.7818 5.29759C85.0237 5.0026 85.2044 4.72254 85.3237 4.45739C85.443 4.19223 85.5027 3.91051 85.5027 3.61222C85.5027 3.27415 85.4231 2.98248 85.264 2.73722C85.1049 2.48864 84.8878 2.29806 84.6127 2.16548C84.3377 2.02959 84.0278 1.96165 83.6831 1.96165C83.3185 1.96165 83.0003 2.03622 82.7285 2.18537C82.4567 2.33452 82.2479 2.54498 82.1021 2.81676C81.9563 3.08854 81.8833 3.40672 81.8833 3.77131H80.4167C80.4167 3.15151 80.5592 2.60961 80.8443 2.1456C81.1293 1.68158 81.5204 1.32197 82.0176 1.06676C82.5147 0.808238 83.0798 0.678977 83.7129 0.678977C84.3526 0.678977 84.916 0.806581 85.4032 1.06179C85.8938 1.31368 86.2766 1.65838 86.5517 2.09588C86.8268 2.53007 86.9643 3.0206 86.9643 3.56747C86.9643 3.94531 86.8931 4.31487 86.7505 4.67614C86.6113 5.0374 86.3677 5.4401 86.0197 5.88423C85.6717 6.32505 85.1878 6.86032 84.568 7.49006L82.5446 9.60795V9.68253H87.1284V11H80.4267Z" fill="black"/>
</svg>
