<svg viewBox="0 0 80 12" fill="none" stroke-width="2" stroke="currentColor" aria-hidden="true">
  <path d="M4.21591 11.1541C3.4768 11.1541 2.84044 10.9867 2.30682 10.652C1.77652 10.3139 1.36884 9.84825 1.08381 9.25497C0.798769 8.66169 0.65625 7.98224 0.65625 7.21662C0.65625 6.44105 0.802083 5.75663 1.09375 5.16335C1.38542 4.56676 1.7964 4.10109 2.3267 3.76633C2.85701 3.43158 3.48177 3.2642 4.20099 3.2642C4.78101 3.2642 5.29806 3.37192 5.75213 3.58736C6.2062 3.79948 6.57244 4.09777 6.85085 4.48224C7.13258 4.86671 7.29995 5.31581 7.35298 5.82955H5.90625C5.8267 5.47159 5.64441 5.16335 5.35938 4.90483C5.07765 4.64631 4.69981 4.51705 4.22585 4.51705C3.81155 4.51705 3.44863 4.62642 3.13707 4.84517C2.82884 5.06061 2.58854 5.36884 2.41619 5.76989C2.24384 6.16761 2.15767 6.63826 2.15767 7.18182C2.15767 7.73864 2.24219 8.21922 2.41122 8.62358C2.58026 9.02794 2.81889 9.34115 3.12713 9.56321C3.43868 9.78527 3.80492 9.89631 4.22585 9.89631C4.50758 9.89631 4.76278 9.84493 4.99148 9.74219C5.22349 9.63613 5.41738 9.48532 5.57315 9.28977C5.73224 9.09422 5.84328 8.8589 5.90625 8.58381H7.35298C7.29995 9.07765 7.1392 9.51847 6.87074 9.90625C6.60227 10.294 6.24266 10.599 5.7919 10.821C5.34446 11.0431 4.81913 11.1541 4.21591 11.1541ZM12.1593 11.1541C11.4434 11.1541 10.8186 10.9901 10.285 10.6619C9.75136 10.3338 9.33706 9.87476 9.04208 9.2848C8.7471 8.69484 8.59961 8.00544 8.59961 7.21662C8.59961 6.42448 8.7471 5.73177 9.04208 5.13849C9.33706 4.54522 9.75136 4.08452 10.285 3.75639C10.8186 3.42827 11.4434 3.2642 12.1593 3.2642C12.8752 3.2642 13.4999 3.42827 14.0336 3.75639C14.5672 4.08452 14.9815 4.54522 15.2765 5.13849C15.5714 5.73177 15.7189 6.42448 15.7189 7.21662C15.7189 8.00544 15.5714 8.69484 15.2765 9.2848C14.9815 9.87476 14.5672 10.3338 14.0336 10.6619C13.4999 10.9901 12.8752 11.1541 12.1593 11.1541ZM12.1642 9.90625C12.6283 9.90625 13.0127 9.78362 13.3176 9.53835C13.6226 9.29309 13.848 8.96662 13.9938 8.55895C14.1429 8.15128 14.2175 7.70218 14.2175 7.21165C14.2175 6.72443 14.1429 6.27699 13.9938 5.86932C13.848 5.45833 13.6226 5.12855 13.3176 4.87997C13.0127 4.63139 12.6283 4.5071 12.1642 4.5071C11.6969 4.5071 11.3091 4.63139 11.0009 4.87997C10.696 5.12855 10.4689 5.45833 10.3198 5.86932C10.1739 6.27699 10.101 6.72443 10.101 7.21165C10.101 7.70218 10.1739 8.15128 10.3198 8.55895C10.4689 8.96662 10.696 9.29309 11.0009 9.53835C11.3091 9.78362 11.6969 9.90625 12.1642 9.90625ZM18.8647 6.46591V11H17.3782V3.36364H18.805V4.60653H18.8995C19.0752 4.20218 19.3503 3.87737 19.7248 3.6321C20.1026 3.38684 20.5782 3.2642 21.1516 3.2642C21.672 3.2642 22.1277 3.37358 22.5188 3.59233C22.9099 3.80777 23.2132 4.12926 23.4286 4.55682C23.6441 4.98437 23.7518 5.51302 23.7518 6.14276V11H22.2653V6.32173C22.2653 5.76823 22.1211 5.3357 21.8327 5.02415C21.5444 4.70928 21.1483 4.55185 20.6445 4.55185C20.2998 4.55185 19.9933 4.62642 19.7248 4.77557C19.4596 4.92472 19.2492 5.14347 19.0934 5.43182C18.9409 5.71686 18.8647 6.06155 18.8647 6.46591ZM29.31 3.36364V4.55682H25.1388V3.36364H29.31ZM26.2575 1.53409H27.744V8.75781C27.744 9.04616 27.7871 9.26326 27.8732 9.40909C27.9594 9.55161 28.0704 9.64938 28.2063 9.70241C28.3455 9.75213 28.4963 9.77699 28.6587 9.77699C28.7781 9.77699 28.8825 9.7687 28.9719 9.75213C29.0614 9.73556 29.131 9.7223 29.1808 9.71236L29.4492 10.9403C29.363 10.9735 29.2404 11.0066 29.0813 11.0398C28.9222 11.0762 28.7234 11.0961 28.4847 11.0994C28.0936 11.1061 27.729 11.0365 27.391 10.8906C27.0529 10.7448 26.7795 10.5194 26.5707 10.2145C26.3619 9.90956 26.2575 9.52675 26.2575 9.06605V1.53409ZM30.9544 11V3.36364H32.3912V4.5767H32.4707C32.6099 4.16572 32.8552 3.84257 33.2065 3.60724C33.5611 3.36861 33.9622 3.24929 34.4096 3.24929C34.5024 3.24929 34.6118 3.2526 34.7377 3.25923C34.867 3.26586 34.9681 3.27415 35.041 3.28409V4.70597C34.9814 4.68939 34.8753 4.67116 34.7228 4.65128C34.5704 4.62808 34.4179 4.61648 34.2654 4.61648C33.9141 4.61648 33.6009 4.69105 33.3258 4.8402C33.054 4.98603 32.8386 5.18987 32.6795 5.4517C32.5204 5.71023 32.4409 6.00521 32.4409 6.33665V11H30.9544ZM38.4814 11.169C37.9975 11.169 37.56 11.0795 37.1689 10.9006C36.7778 10.7183 36.4679 10.4548 36.2392 10.1101C36.0138 9.76539 35.9011 9.3428 35.9011 8.84233C35.9011 8.41146 35.984 8.05682 36.1497 7.77841C36.3154 7.5 36.5391 7.27959 36.8208 7.11719C37.1026 6.95478 37.4174 6.83215 37.7654 6.74929C38.1135 6.66643 38.4681 6.60346 38.8294 6.56037C39.2868 6.50734 39.658 6.46425 39.943 6.43111C40.228 6.39465 40.4352 6.33665 40.5645 6.2571C40.6937 6.17756 40.7583 6.0483 40.7583 5.86932V5.83452C40.7583 5.40033 40.6357 5.06392 40.3904 4.82528C40.1485 4.58665 39.7872 4.46733 39.3066 4.46733C38.8062 4.46733 38.4118 4.57836 38.1234 4.80043C37.8384 5.01918 37.6412 5.26278 37.5318 5.53125L36.1348 5.21307C36.3005 4.74905 36.5424 4.37453 36.8606 4.08949C37.1821 3.80114 37.5517 3.59233 37.9693 3.46307C38.3869 3.33049 38.8261 3.2642 39.2868 3.2642C39.5917 3.2642 39.9148 3.30066 40.2562 3.37358C40.6009 3.44318 40.9224 3.57244 41.2207 3.76136C41.5223 3.95028 41.7692 4.22041 41.9615 4.57173C42.1537 4.91974 42.2498 5.37216 42.2498 5.92898V11H40.7981V9.95597H40.7385C40.6423 10.1482 40.4982 10.3371 40.3059 10.5227C40.1137 10.7083 39.8668 10.8625 39.5652 10.9851C39.2636 11.1077 38.9023 11.169 38.4814 11.169ZM38.8045 9.97585C39.2155 9.97585 39.5668 9.89465 39.8585 9.73224C40.1535 9.56984 40.3772 9.35772 40.5297 9.09588C40.6854 8.83073 40.7633 8.54735 40.7633 8.24574V7.26136C40.7103 7.31439 40.6075 7.36411 40.4551 7.41051C40.3059 7.4536 40.1352 7.49171 39.943 7.52486C39.7508 7.55469 39.5635 7.58286 39.3812 7.60938C39.1989 7.63258 39.0465 7.65246 38.9238 7.66903C38.6355 7.70549 38.372 7.76681 38.1333 7.85298C37.898 7.93916 37.7091 8.06345 37.5666 8.22585C37.4274 8.38494 37.3578 8.59706 37.3578 8.86222C37.3578 9.23011 37.4937 9.50852 37.7654 9.69744C38.0372 9.88305 38.3836 9.97585 38.8045 9.97585ZM49.9521 5.22798L48.6048 5.46662C48.5484 5.29427 48.4589 5.13021 48.3363 4.97443C48.217 4.81865 48.0546 4.69105 47.8491 4.59162C47.6436 4.49219 47.3867 4.44247 47.0785 4.44247C46.6576 4.44247 46.3062 4.53693 46.0245 4.72585C45.7428 4.91146 45.6019 5.15175 45.6019 5.44673C45.6019 5.70194 45.6964 5.90743 45.8853 6.06321C46.0742 6.21899 46.3791 6.34659 46.8001 6.44602L48.0131 6.72443C48.7158 6.88684 49.2395 7.13707 49.5842 7.47514C49.9289 7.81321 50.1012 8.25237 50.1012 8.79261C50.1012 9.25 49.9686 9.65767 49.7035 10.0156C49.4416 10.3703 49.0754 10.6487 48.6048 10.8509C48.1374 11.053 47.5955 11.1541 46.979 11.1541C46.1239 11.1541 45.4263 10.9718 44.886 10.6072C44.3458 10.2393 44.0143 9.71733 43.8917 9.04119L45.3285 8.82244C45.418 9.19697 45.6019 9.48035 45.8803 9.67259C46.1587 9.86151 46.5217 9.95597 46.9691 9.95597C47.4563 9.95597 47.8458 9.85488 48.1374 9.6527C48.4291 9.44721 48.5749 9.19697 48.5749 8.90199C48.5749 8.66335 48.4854 8.46283 48.3065 8.30043C48.1308 8.13802 47.8607 8.01539 47.4961 7.93253L46.2035 7.64915C45.4909 7.48674 44.9639 7.22822 44.6225 6.87358C44.2844 6.51894 44.1154 6.06984 44.1154 5.52628C44.1154 5.07552 44.2414 4.68111 44.4933 4.34304C44.7451 4.00497 45.0932 3.74148 45.5373 3.55256C45.9814 3.36032 46.4902 3.2642 47.0636 3.2642C47.8888 3.2642 48.5385 3.44318 49.0124 3.80114C49.4864 4.15578 49.7996 4.63139 49.9521 5.22798ZM55.3002 3.36364V4.55682H51.1291V3.36364H55.3002ZM52.2477 1.53409H53.7342V8.75781C53.7342 9.04616 53.7773 9.26326 53.8635 9.40909C53.9496 9.55161 54.0607 9.64938 54.1966 9.70241C54.3358 9.75213 54.4866 9.77699 54.649 9.77699C54.7683 9.77699 54.8727 9.7687 54.9622 9.75213C55.0517 9.73556 55.1213 9.7223 55.171 9.71236L55.4395 10.9403C55.3533 10.9735 55.2306 11.0066 55.0716 11.0398C54.9125 11.0762 54.7136 11.0961 54.475 11.0994C54.0839 11.1061 53.7193 11.0365 53.3812 10.8906C53.0431 10.7448 52.7697 10.5194 52.5609 10.2145C52.3521 9.90956 52.2477 9.52675 52.2477 9.06605V1.53409ZM61.1841 6.05327V7.34091H56.6699V6.05327H61.1841ZM66.6902 11.169C65.9047 11.1657 65.2335 10.9586 64.6767 10.5476C64.1199 10.1366 63.694 9.53835 63.399 8.75284C63.104 7.96733 62.9565 7.02107 62.9565 5.91406C62.9565 4.81037 63.104 3.86742 63.399 3.08523C63.6973 2.30303 64.1248 1.70644 64.6816 1.29545C65.2418 0.884469 65.9113 0.678977 66.6902 0.678977C67.469 0.678977 68.1369 0.886126 68.6937 1.30043C69.2505 1.71141 69.6764 2.308 69.9714 3.0902C70.2697 3.86908 70.4189 4.81037 70.4189 5.91406C70.4189 7.02438 70.2714 7.9723 69.9764 8.75781C69.6814 9.54001 69.2555 10.1383 68.6987 10.5526C68.1419 10.9635 67.4724 11.169 66.6902 11.169ZM66.6902 9.84162C67.3796 9.84162 67.9181 9.50521 68.3059 8.83239C68.697 8.15956 68.8926 7.18679 68.8926 5.91406C68.8926 5.06889 68.8031 4.35464 68.6241 3.77131C68.4484 3.18466 68.1949 2.74053 67.8635 2.43892C67.5353 2.134 67.1442 1.98153 66.6902 1.98153C66.0041 1.98153 65.4655 2.3196 65.0744 2.99574C64.6833 3.67187 64.4861 4.64465 64.4828 5.91406C64.4828 6.76255 64.5706 7.48011 64.7463 8.06676C64.9252 8.65009 65.1788 9.09257 65.5069 9.39418C65.835 9.69247 66.2295 9.84162 66.6902 9.84162ZM75.7273 11.1392C75.0445 11.1392 74.4347 11.0215 73.8977 10.7862C73.3641 10.5509 72.9415 10.2244 72.63 9.80682C72.3217 9.38589 72.156 8.89867 72.1328 8.34517H73.6939C73.7138 8.64678 73.8149 8.90862 73.9972 9.13068C74.1828 9.34943 74.4247 9.51847 74.723 9.63778C75.0213 9.7571 75.3527 9.81676 75.7173 9.81676C76.1184 9.81676 76.473 9.74716 76.7812 9.60795C77.0928 9.46875 77.3364 9.27486 77.5121 9.02628C77.6877 8.77438 77.7756 8.48438 77.7756 8.15625C77.7756 7.81487 77.6877 7.51491 77.5121 7.25639C77.3397 6.99455 77.0862 6.78906 76.7514 6.63991C76.42 6.49077 76.0189 6.41619 75.5483 6.41619H74.6882V5.16335H75.5483C75.9261 5.16335 76.2576 5.09541 76.5426 4.95952C76.831 4.82363 77.0563 4.63471 77.2188 4.39276C77.3812 4.14749 77.4624 3.8608 77.4624 3.53267C77.4624 3.2178 77.3911 2.94437 77.2486 2.71236C77.1094 2.47704 76.9105 2.29309 76.652 2.16051C76.3968 2.02794 76.0952 1.96165 75.7472 1.96165C75.4157 1.96165 75.1058 2.02296 74.8175 2.1456C74.5324 2.26491 74.3004 2.43726 74.1214 2.66264C73.9425 2.88471 73.8464 3.15151 73.8331 3.46307H72.3466C72.3632 2.91288 72.5256 2.42898 72.8338 2.01136C73.1454 1.59375 73.5563 1.26728 74.0668 1.03196C74.5772 0.796638 75.1439 0.678977 75.767 0.678977C76.42 0.678977 76.9834 0.806581 77.4574 1.06179C77.9347 1.31368 78.3026 1.65009 78.5611 2.07102C78.8229 2.49195 78.9522 2.95265 78.9489 3.45312C78.9522 4.0232 78.7931 4.5071 78.4716 4.90483C78.1534 5.30256 77.7292 5.56937 77.1989 5.70526V5.7848C77.875 5.88755 78.3987 6.15601 78.7699 6.5902C79.1444 7.02438 79.33 7.56297 79.3267 8.20597C79.33 8.7661 79.1742 9.26823 78.8594 9.71236C78.5478 10.1565 78.1219 10.5062 77.5817 10.7614C77.0414 11.0133 76.4233 11.1392 75.7273 11.1392Z" fill="black"/>
</svg>
