<svg viewBox="0 0 66 14" fill="none" stroke-width="2" stroke="currentColor" aria-hidden="true">
  <path d="M4.56392 3.36364V4.55682H0.392756V3.36364H4.56392ZM1.51136 1.53409H2.99787V8.75781C2.99787 9.04616 3.04096 9.26326 3.12713 9.40909C3.21331 9.55161 3.32434 9.64938 3.46023 9.70241C3.59943 9.75213 3.75024 9.77699 3.91264 9.77699C4.03196 9.77699 4.13636 9.7687 4.22585 9.75213C4.31534 9.73556 4.38494 9.7223 4.43466 9.71236L4.70312 10.9403C4.61695 10.9735 4.49432 11.0066 4.33523 11.0398C4.17614 11.0762 3.97727 11.0961 3.73864 11.0994C3.34754 11.1061 2.98295 11.0365 2.64489 10.8906C2.30682 10.7448 2.03338 10.5194 1.82457 10.2145C1.61577 9.90956 1.51136 9.52675 1.51136 9.06605V1.53409ZM9.41744 11.1541C8.66507 11.1541 8.0171 10.9934 7.47354 10.6719C6.9333 10.3471 6.51568 9.89134 6.2207 9.30469C5.92904 8.71473 5.7832 8.02367 5.7832 7.23153C5.7832 6.44934 5.92904 5.75994 6.2207 5.16335C6.51568 4.56676 6.92667 4.10109 7.45366 3.76633C7.98396 3.43158 8.60375 3.2642 9.31303 3.2642C9.7439 3.2642 10.1615 3.33546 10.5659 3.47798C10.9702 3.6205 11.3332 3.84422 11.6547 4.14915C11.9761 4.45407 12.2297 4.85014 12.4153 5.33736C12.6009 5.82126 12.6937 6.40956 12.6937 7.10227V7.62926H6.6234V6.51562H11.237C11.237 6.12453 11.1575 5.77817 10.9984 5.47656C10.8393 5.17164 10.6156 4.93134 10.3272 4.75568C10.0422 4.58002 9.70745 4.49219 9.32298 4.49219C8.90536 4.49219 8.54078 4.59493 8.22923 4.80043C7.92099 5.0026 7.68235 5.26776 7.51332 5.59588C7.3476 5.92069 7.26474 6.27367 7.26474 6.65483V7.52486C7.26474 8.03527 7.35423 8.46946 7.5332 8.82741C7.71549 9.18537 7.96905 9.45881 8.29386 9.64773C8.61867 9.83333 8.99817 9.92614 9.43235 9.92614C9.71407 9.92614 9.97094 9.88636 10.2029 9.80682C10.435 9.72396 10.6355 9.60133 10.8045 9.43892C10.9735 9.27652 11.1028 9.07599 11.1923 8.83736L12.5993 9.09091C12.4866 9.50521 12.2844 9.86813 11.9927 10.1797C11.7044 10.4879 11.3414 10.7282 10.9039 10.9006C10.4698 11.0696 9.97425 11.1541 9.41744 11.1541ZM15.3386 3.36364L17.024 6.33665L18.7243 3.36364H20.35L17.9686 7.18182L20.3699 11H18.7441L17.024 8.14631L15.3088 11H13.6781L16.0545 7.18182L13.7079 3.36364H15.3386ZM25.4409 3.36364V4.55682H21.2697V3.36364H25.4409ZM22.3883 1.53409H23.8748V8.75781C23.8748 9.04616 23.9179 9.26326 24.0041 9.40909C24.0903 9.55161 24.2013 9.64938 24.3372 9.70241C24.4764 9.75213 24.6272 9.77699 24.7896 9.77699C24.9089 9.77699 25.0133 9.7687 25.1028 9.75213C25.1923 9.73556 25.2619 9.7223 25.3116 9.71236L25.5801 10.9403C25.4939 10.9735 25.3713 11.0066 25.2122 11.0398C25.0531 11.0762 24.8542 11.0961 24.6156 11.0994C24.2245 11.1061 23.8599 11.0365 23.5218 10.8906C23.1838 10.7448 22.9103 10.5194 22.7015 10.2145C22.4927 9.90956 22.3883 9.52675 22.3883 9.06605V1.53409ZM31.3248 6.05327V7.34091H26.8105V6.05327H31.3248ZM33.3059 11V3.36364H34.7924V11H33.3059ZM34.0566 2.18537C33.7981 2.18537 33.5761 2.09919 33.3904 1.92685C33.2082 1.75118 33.117 1.54238 33.117 1.30043C33.117 1.05516 33.2082 0.846354 33.3904 0.674005C33.5761 0.498342 33.7981 0.410511 34.0566 0.410511C34.3152 0.410511 34.5356 0.498342 34.7179 0.674005C34.9035 0.846354 34.9963 1.05516 34.9963 1.30043C34.9963 1.54238 34.9035 1.75118 34.7179 1.92685C34.5356 2.09919 34.3152 2.18537 34.0566 2.18537ZM38.2788 6.46591V11H36.7923V3.36364H38.2191V4.60653H38.3136C38.4892 4.20218 38.7643 3.87737 39.1388 3.6321C39.5167 3.38684 39.9923 3.2642 40.5657 3.2642C41.0861 3.2642 41.5418 3.37358 41.9329 3.59233C42.324 3.80777 42.6272 4.12926 42.8427 4.55682C43.0581 4.98437 43.1658 5.51302 43.1658 6.14276V11H41.6793V6.32173C41.6793 5.76823 41.5352 5.3357 41.2468 5.02415C40.9585 4.70928 40.5624 4.55185 40.0586 4.55185C39.7139 4.55185 39.4073 4.62642 39.1388 4.77557C38.8737 4.92472 38.6632 5.14347 38.5075 5.43182C38.355 5.71686 38.2788 6.06155 38.2788 6.46591ZM45.1594 13.8636V3.36364H46.6112V4.60156H46.7354C46.8216 4.44247 46.9459 4.25852 47.1083 4.04972C47.2707 3.84091 47.4961 3.65862 47.7844 3.50284C48.0728 3.34375 48.454 3.2642 48.9279 3.2642C49.5444 3.2642 50.0946 3.41998 50.5785 3.73153C51.0624 4.04309 51.4419 4.49219 51.717 5.07884C51.9954 5.66548 52.1346 6.37145 52.1346 7.19673C52.1346 8.02202 51.997 8.72964 51.7219 9.3196C51.4469 9.90625 51.069 10.3587 50.5884 10.6768C50.1078 10.9917 49.5593 11.1491 48.9428 11.1491C48.4788 11.1491 48.0993 11.0713 47.8043 10.9155C47.5127 10.7597 47.284 10.5774 47.1183 10.3686C46.9525 10.1598 46.8249 9.9742 46.7354 9.81179H46.646V13.8636H45.1594ZM46.6161 7.18182C46.6161 7.71875 46.694 8.18939 46.8498 8.59375C47.0056 8.99811 47.2309 9.31463 47.5259 9.54332C47.8209 9.7687 48.1822 9.88139 48.6097 9.88139C49.0539 9.88139 49.4251 9.76373 49.7234 9.52841C50.0217 9.28977 50.247 8.96662 50.3995 8.55895C50.5553 8.15128 50.6332 7.69223 50.6332 7.18182C50.6332 6.67803 50.5569 6.22562 50.4045 5.82457C50.2553 5.42353 50.0299 5.10701 49.7283 4.875C49.43 4.64299 49.0572 4.52699 48.6097 4.52699C48.1789 4.52699 47.8143 4.63802 47.516 4.86009C47.221 5.08215 46.9973 5.39205 46.8448 5.78977C46.6924 6.1875 46.6161 6.65151 46.6161 7.18182ZM58.6374 7.8331V3.36364H60.1289V11H58.6673V9.67756H58.5877C58.4121 10.0852 58.1303 10.425 57.7425 10.6967C57.3581 10.9652 56.8791 11.0994 56.3058 11.0994C55.8152 11.0994 55.381 10.9917 55.0032 10.7763C54.6287 10.5575 54.3337 10.2344 54.1183 9.80682C53.9061 9.37926 53.8001 8.85062 53.8001 8.22088V3.36364H55.2866V8.0419C55.2866 8.56226 55.4308 8.97656 55.7191 9.2848C56.0075 9.59304 56.382 9.74716 56.8427 9.74716C57.1211 9.74716 57.3978 9.67756 57.6729 9.53835C57.9513 9.39915 58.1817 9.18868 58.364 8.90696C58.5496 8.62524 58.6407 8.26728 58.6374 7.8331ZM65.6909 3.36364V4.55682H61.5197V3.36364H65.6909ZM62.6383 1.53409H64.1248V8.75781C64.1248 9.04616 64.1679 9.26326 64.2541 9.40909C64.3403 9.55161 64.4513 9.64938 64.5872 9.70241C64.7264 9.75213 64.8772 9.77699 65.0396 9.77699C65.1589 9.77699 65.2633 9.7687 65.3528 9.75213C65.4423 9.73556 65.5119 9.7223 65.5616 9.71236L65.8301 10.9403C65.7439 10.9735 65.6213 11.0066 65.4622 11.0398C65.3031 11.0762 65.1042 11.0961 64.8656 11.0994C64.4745 11.1061 64.1099 11.0365 63.7718 10.8906C63.4338 10.7448 63.1603 10.5194 62.9515 10.2145C62.7427 9.90956 62.6383 9.52675 62.6383 9.06605V1.53409Z" fill="black"/>
</svg>
