<svg viewBox="0 0 147 15" fill="none" stroke-width="2" stroke="currentColor" aria-hidden="true">
  <path d="M4.56392 3.36364V4.55682H0.392756V3.36364H4.56392ZM1.51136 1.53409H2.99787V8.75781C2.99787 9.04616 3.04096 9.26326 3.12713 9.40909C3.21331 9.55161 3.32434 9.64938 3.46023 9.70241C3.59943 9.75213 3.75024 9.77699 3.91264 9.77699C4.03196 9.77699 4.13636 9.7687 4.22585 9.75213C4.31534 9.73556 4.38494 9.7223 4.43466 9.71236L4.70312 10.9403C4.61695 10.9735 4.49432 11.0066 4.33523 11.0398C4.17614 11.0762 3.97727 11.0961 3.73864 11.0994C3.34754 11.1061 2.98295 11.0365 2.64489 10.8906C2.30682 10.7448 2.03338 10.5194 1.82457 10.2145C1.61577 9.90956 1.51136 9.52675 1.51136 9.06605V1.53409ZM7.1479 13.8636C6.92584 13.8636 6.72366 13.8454 6.54137 13.8089C6.35908 13.7758 6.22319 13.7393 6.1337 13.6996L6.49165 12.4815C6.76344 12.5545 7.00539 12.5859 7.21751 12.576C7.42963 12.5661 7.61689 12.4865 7.7793 12.3374C7.94502 12.1882 8.09085 11.9446 8.2168 11.6065L8.40075 11.0994L5.60671 3.36364H7.19762L9.13157 9.28977H9.21112L11.1451 3.36364H12.7409L9.59393 12.0192C9.44809 12.4169 9.26249 12.7533 9.03711 13.0284C8.81173 13.3068 8.54326 13.5156 8.23171 13.6548C7.92016 13.794 7.55889 13.8636 7.1479 13.8636ZM14.138 13.8636V3.36364H15.5897V4.60156H15.714C15.8001 4.44247 15.9244 4.25852 16.0868 4.04972C16.2492 3.84091 16.4746 3.65862 16.763 3.50284C17.0513 3.34375 17.4325 3.2642 17.9064 3.2642C18.5229 3.2642 19.0731 3.41998 19.557 3.73153C20.0409 4.04309 20.4204 4.49219 20.6955 5.07884C20.9739 5.66548 21.1131 6.37145 21.1131 7.19673C21.1131 8.02202 20.9756 8.72964 20.7005 9.3196C20.4254 9.90625 20.0475 10.3587 19.5669 10.6768C19.0864 10.9917 18.5378 11.1491 17.9213 11.1491C17.4573 11.1491 17.0778 11.0713 16.7828 10.9155C16.4912 10.7597 16.2625 10.5774 16.0968 10.3686C15.931 10.1598 15.8034 9.9742 15.714 9.81179H15.6245V13.8636H14.138ZM15.5946 7.18182C15.5946 7.71875 15.6725 8.18939 15.8283 8.59375C15.9841 8.99811 16.2095 9.31463 16.5044 9.54332C16.7994 9.7687 17.1607 9.88139 17.5882 9.88139C18.0324 9.88139 18.4036 9.76373 18.7019 9.52841C19.0002 9.28977 19.2256 8.96662 19.378 8.55895C19.5338 8.15128 19.6117 7.69223 19.6117 7.18182C19.6117 6.67803 19.5355 6.22562 19.383 5.82457C19.2338 5.42353 19.0085 5.10701 18.7069 4.875C18.4086 4.64299 18.0357 4.52699 17.5882 4.52699C17.1574 4.52699 16.7928 4.63802 16.4945 4.86009C16.1995 5.08215 15.9758 5.39205 15.8233 5.78977C15.6709 6.1875 15.5946 6.65151 15.5946 7.18182ZM26.0698 11.1541C25.3174 11.1541 24.6694 10.9934 24.1259 10.6719C23.5856 10.3471 23.168 9.89134 22.873 9.30469C22.5814 8.71473 22.4355 8.02367 22.4355 7.23153C22.4355 6.44934 22.5814 5.75994 22.873 5.16335C23.168 4.56676 23.579 4.10109 24.106 3.76633C24.6363 3.43158 25.2561 3.2642 25.9654 3.2642C26.3962 3.2642 26.8139 3.33546 27.2182 3.47798C27.6226 3.6205 27.9855 3.84422 28.307 4.14915C28.6285 4.45407 28.882 4.85014 29.0676 5.33736C29.2533 5.82126 29.3461 6.40956 29.3461 7.10227V7.62926H23.2757V6.51562H27.8894C27.8894 6.12453 27.8098 5.77817 27.6507 5.47656C27.4917 5.17164 27.2679 4.93134 26.9796 4.75568C26.6945 4.58002 26.3598 4.49219 25.9753 4.49219C25.5577 4.49219 25.1931 4.59493 24.8816 4.80043C24.5733 5.0026 24.3347 5.26776 24.1657 5.59588C23.9999 5.92069 23.9171 6.27367 23.9171 6.65483V7.52486C23.9171 8.03527 24.0066 8.46946 24.1855 8.82741C24.3678 9.18537 24.6214 9.45881 24.9462 9.64773C25.271 9.83333 25.6505 9.92614 26.0847 9.92614C26.3664 9.92614 26.6233 9.88636 26.8553 9.80682C27.0873 9.72396 27.2878 9.60133 27.4569 9.43892C27.6259 9.27652 27.7551 9.07599 27.8446 8.83736L29.2516 9.09091C29.1389 9.50521 28.9367 9.86813 28.6451 10.1797C28.3567 10.4879 27.9938 10.7282 27.5563 10.9006C27.1221 11.0696 26.6266 11.1541 26.0698 11.1541ZM35.4947 6.05327V7.34091H30.9805V6.05327H35.4947ZM43.1982 5.22798L41.8509 5.46662C41.7945 5.29427 41.705 5.13021 41.5824 4.97443C41.4631 4.81865 41.3007 4.69105 41.0952 4.59162C40.8897 4.49219 40.6328 4.44247 40.3246 4.44247C39.9036 4.44247 39.5523 4.53693 39.2706 4.72585C38.9889 4.91146 38.848 5.15175 38.848 5.44673C38.848 5.70194 38.9425 5.90743 39.1314 6.06321C39.3203 6.21899 39.6252 6.34659 40.0462 6.44602L41.2592 6.72443C41.9619 6.88684 42.4856 7.13707 42.8303 7.47514C43.175 7.81321 43.3473 8.25237 43.3473 8.79261C43.3473 9.25 43.2147 9.65767 42.9496 10.0156C42.6877 10.3703 42.3215 10.6487 41.8509 10.8509C41.3835 11.053 40.8416 11.1541 40.2251 11.1541C39.37 11.1541 38.6723 10.9718 38.1321 10.6072C37.5919 10.2393 37.2604 9.71733 37.1378 9.04119L38.5746 8.82244C38.6641 9.19697 38.848 9.48035 39.1264 9.67259C39.4048 9.86151 39.7678 9.95597 40.2152 9.95597C40.7024 9.95597 41.0919 9.85488 41.3835 9.6527C41.6752 9.44721 41.821 9.19697 41.821 8.90199C41.821 8.66335 41.7315 8.46283 41.5526 8.30043C41.3769 8.13802 41.1068 8.01539 40.7422 7.93253L39.4496 7.64915C38.737 7.48674 38.21 7.22822 37.8686 6.87358C37.5305 6.51894 37.3615 6.06984 37.3615 5.52628C37.3615 5.07552 37.4875 4.68111 37.7393 4.34304C37.9912 4.00497 38.3393 3.74148 38.7834 3.55256C39.2275 3.36032 39.7363 3.2642 40.3097 3.2642C41.1349 3.2642 41.7846 3.44318 42.2585 3.80114C42.7325 4.15578 43.0457 4.63139 43.1982 5.22798ZM48.5463 3.36364V4.55682H44.3752V3.36364H48.5463ZM45.4938 1.53409H46.9803V8.75781C46.9803 9.04616 47.0234 9.26326 47.1096 9.40909C47.1957 9.55161 47.3068 9.64938 47.4426 9.70241C47.5819 9.75213 47.7327 9.77699 47.8951 9.77699C48.0144 9.77699 48.1188 9.7687 48.2083 9.75213C48.2978 9.73556 48.3674 9.7223 48.4171 9.71236L48.6855 10.9403C48.5994 10.9735 48.4767 11.0066 48.3176 11.0398C48.1586 11.0762 47.9597 11.0961 47.7211 11.0994C47.33 11.1061 46.9654 11.0365 46.6273 10.8906C46.2892 10.7448 46.0158 10.5194 45.807 10.2145C45.5982 9.90956 45.4938 9.52675 45.4938 9.06605V1.53409ZM50.1907 11V3.36364H51.6275V4.5767H51.707C51.8462 4.16572 52.0915 3.84257 52.4428 3.60724C52.7975 3.36861 53.1985 3.24929 53.646 3.24929C53.7388 3.24929 53.8481 3.2526 53.9741 3.25923C54.1033 3.26586 54.2044 3.27415 54.2773 3.28409V4.70597C54.2177 4.68939 54.1116 4.67116 53.9592 4.65128C53.8067 4.62808 53.6542 4.61648 53.5018 4.61648C53.1505 4.61648 52.8372 4.69105 52.5621 4.8402C52.2904 4.98603 52.0749 5.18987 51.9158 5.4517C51.7567 5.71023 51.6772 6.00521 51.6772 6.33665V11H50.1907ZM55.5637 11V3.36364H57.0502V11H55.5637ZM56.3145 2.18537C56.0559 2.18537 55.8339 2.09919 55.6483 1.92685C55.466 1.75118 55.3748 1.54238 55.3748 1.30043C55.3748 1.05516 55.466 0.846354 55.6483 0.674005C55.8339 0.498342 56.0559 0.410511 56.3145 0.410511C56.573 0.410511 56.7934 0.498342 56.9757 0.674005C57.1613 0.846354 57.2541 1.05516 57.2541 1.30043C57.2541 1.54238 57.1613 1.75118 56.9757 1.92685C56.7934 2.09919 56.573 2.18537 56.3145 2.18537ZM60.4173 8.4098L60.4073 6.59517H60.6658L63.7085 3.36364H65.4883L62.0181 7.04261H61.7844L60.4173 8.4098ZM59.0501 11V0.818182H60.5366V11H59.0501ZM63.8725 11L61.1381 7.37074L62.1623 6.33168L65.6971 11H63.8725ZM69.8198 11.1541C69.0674 11.1541 68.4194 10.9934 67.8759 10.6719C67.3356 10.3471 66.918 9.89134 66.623 9.30469C66.3314 8.71473 66.1855 8.02367 66.1855 7.23153C66.1855 6.44934 66.3314 5.75994 66.623 5.16335C66.918 4.56676 67.329 4.10109 67.856 3.76633C68.3863 3.43158 69.0061 3.2642 69.7154 3.2642C70.1462 3.2642 70.5639 3.33546 70.9682 3.47798C71.3726 3.6205 71.7355 3.84422 72.057 4.14915C72.3785 4.45407 72.632 4.85014 72.8176 5.33736C73.0033 5.82126 73.0961 6.40956 73.0961 7.10227V7.62926H67.0257V6.51562H71.6394C71.6394 6.12453 71.5598 5.77817 71.4007 5.47656C71.2417 5.17164 71.0179 4.93134 70.7296 4.75568C70.4445 4.58002 70.1098 4.49219 69.7253 4.49219C69.3077 4.49219 68.9431 4.59493 68.6316 4.80043C68.3233 5.0026 68.0847 5.26776 67.9157 5.59588C67.7499 5.92069 67.6671 6.27367 67.6671 6.65483V7.52486C67.6671 8.03527 67.7566 8.46946 67.9355 8.82741C68.1178 9.18537 68.3714 9.45881 68.6962 9.64773C69.021 9.83333 69.4005 9.92614 69.8347 9.92614C70.1164 9.92614 70.3733 9.88636 70.6053 9.80682C70.8373 9.72396 71.0378 9.60133 71.2069 9.43892C71.3759 9.27652 71.5051 9.07599 71.5946 8.83736L73.0016 9.09091C72.8889 9.50521 72.6867 9.86813 72.3951 10.1797C72.1067 10.4879 71.7438 10.7282 71.3063 10.9006C70.8721 11.0696 70.3766 11.1541 69.8198 11.1541ZM78.31 3.36364V4.55682H74.1388V3.36364H78.31ZM75.2575 1.53409H76.744V8.75781C76.744 9.04616 76.7871 9.26326 76.8732 9.40909C76.9594 9.55161 77.0704 9.64938 77.2063 9.70241C77.3455 9.75213 77.4963 9.77699 77.6587 9.77699C77.7781 9.77699 77.8825 9.7687 77.9719 9.75213C78.0614 9.73556 78.131 9.7223 78.1808 9.71236L78.4492 10.9403C78.363 10.9735 78.2404 11.0066 78.0813 11.0398C77.9222 11.0762 77.7234 11.0961 77.4847 11.0994C77.0936 11.1061 76.729 11.0365 76.391 10.8906C76.0529 10.7448 75.7795 10.5194 75.5707 10.2145C75.3619 9.90956 75.2575 9.52675 75.2575 9.06605V1.53409ZM81.6049 6.46591V11H80.1184V0.818182H81.585V4.60653H81.6795C81.8585 4.19555 82.1319 3.86908 82.4998 3.62713C82.8677 3.38518 83.3483 3.2642 83.9416 3.2642C84.4653 3.2642 84.9226 3.37192 85.3137 3.58736C85.7082 3.80279 86.0131 4.12429 86.2285 4.55185C86.4473 4.97609 86.5566 5.50639 86.5566 6.14276V11H85.0701V6.32173C85.0701 5.7616 84.926 5.32741 84.6376 5.01918C84.3493 4.70762 83.9482 4.55185 83.4345 4.55185C83.0832 4.55185 82.7683 4.62642 82.4899 4.77557C82.2148 4.92472 81.9977 5.14347 81.8386 5.43182C81.6828 5.71686 81.6049 6.06155 81.6049 6.46591ZM88.5403 11V3.36364H89.9771V4.5767H90.0566C90.1958 4.16572 90.4411 3.84257 90.7924 3.60724C91.1471 3.36861 91.5481 3.24929 91.9956 3.24929C92.0884 3.24929 92.1977 3.2526 92.3237 3.25923C92.4529 3.26586 92.554 3.27415 92.627 3.28409V4.70597C92.5673 4.68939 92.4612 4.67116 92.3088 4.65128C92.1563 4.62808 92.0038 4.61648 91.8514 4.61648C91.5001 4.61648 91.1868 4.69105 90.9118 4.8402C90.64 4.98603 90.4245 5.18987 90.2654 5.4517C90.1064 5.71023 90.0268 6.00521 90.0268 6.33665V11H88.5403ZM96.8565 11.1541C96.1406 11.1541 95.5159 10.9901 94.9822 10.6619C94.4486 10.3338 94.0343 9.87476 93.7393 9.2848C93.4444 8.69484 93.2969 8.00544 93.2969 7.21662C93.2969 6.42448 93.4444 5.73177 93.7393 5.13849C94.0343 4.54522 94.4486 4.08452 94.9822 3.75639C95.5159 3.42827 96.1406 3.2642 96.8565 3.2642C97.5724 3.2642 98.1972 3.42827 98.7308 3.75639C99.2644 4.08452 99.6787 4.54522 99.9737 5.13849C100.269 5.73177 100.416 6.42448 100.416 7.21662C100.416 8.00544 100.269 8.69484 99.9737 9.2848C99.6787 9.87476 99.2644 10.3338 98.7308 10.6619C98.1972 10.9901 97.5724 11.1541 96.8565 11.1541ZM96.8615 9.90625C97.3255 9.90625 97.71 9.78362 98.0149 9.53835C98.3198 9.29309 98.5452 8.96662 98.6911 8.55895C98.8402 8.15128 98.9148 7.70218 98.9148 7.21165C98.9148 6.72443 98.8402 6.27699 98.6911 5.86932C98.5452 5.45833 98.3198 5.12855 98.0149 4.87997C97.71 4.63139 97.3255 4.5071 96.8615 4.5071C96.3942 4.5071 96.0064 4.63139 95.6982 4.87997C95.3932 5.12855 95.1662 5.45833 95.017 5.86932C94.8712 6.27699 94.7983 6.72443 94.7983 7.21165C94.7983 7.70218 94.8712 8.15128 95.017 8.55895C95.1662 8.96662 95.3932 9.29309 95.6982 9.53835C96.0064 9.78362 96.3942 9.90625 96.8615 9.90625ZM106.913 7.8331V3.36364H108.404V11H106.943V9.67756H106.863C106.687 10.0852 106.406 10.425 106.018 10.6967C105.633 10.9652 105.155 11.0994 104.581 11.0994C104.091 11.0994 103.656 10.9917 103.279 10.7763C102.904 10.5575 102.609 10.2344 102.394 9.80682C102.182 9.37926 102.075 8.85062 102.075 8.22088V3.36364H103.562V8.0419C103.562 8.56226 103.706 8.97656 103.994 9.2848C104.283 9.59304 104.657 9.74716 105.118 9.74716C105.396 9.74716 105.673 9.67756 105.948 9.53835C106.227 9.39915 106.457 9.18868 106.639 8.90696C106.825 8.62524 106.916 8.26728 106.913 7.8331ZM113.603 14.0227C112.997 14.0227 112.475 13.9432 112.037 13.7841C111.603 13.625 111.248 13.4145 110.973 13.1527C110.698 12.8909 110.493 12.6042 110.357 12.2926L111.635 11.7656C111.724 11.9115 111.843 12.0656 111.993 12.228C112.145 12.3937 112.35 12.5346 112.609 12.6506C112.871 12.7666 113.207 12.8246 113.618 12.8246C114.182 12.8246 114.647 12.687 115.015 12.4119C115.383 12.1402 115.567 11.706 115.567 11.1094V9.60795H115.473C115.383 9.77036 115.254 9.95099 115.085 10.1499C114.919 10.3487 114.69 10.5211 114.399 10.6669C114.107 10.8127 113.728 10.8857 113.26 10.8857C112.657 10.8857 112.114 10.7448 111.63 10.4631C111.149 10.178 110.768 9.75876 110.486 9.20526C110.208 8.64844 110.069 7.96401 110.069 7.15199C110.069 6.33996 110.206 5.64394 110.481 5.06392C110.76 4.4839 111.141 4.03977 111.625 3.73153C112.109 3.41998 112.657 3.2642 113.27 3.2642C113.744 3.2642 114.127 3.34375 114.419 3.50284C114.71 3.65862 114.937 3.84091 115.1 4.04972C115.266 4.25852 115.393 4.44247 115.483 4.60156H115.592V3.36364H117.049V11.169C117.049 11.8253 116.896 12.3639 116.591 12.7848C116.286 13.2057 115.874 13.5173 115.353 13.7195C114.836 13.9216 114.253 14.0227 113.603 14.0227ZM113.588 9.6527C114.016 9.6527 114.377 9.55327 114.672 9.3544C114.971 9.15223 115.196 8.86387 115.348 8.48935C115.504 8.11151 115.582 7.65909 115.582 7.1321C115.582 6.61837 115.506 6.16596 115.353 5.77486C115.201 5.38376 114.977 5.07884 114.682 4.86009C114.387 4.63802 114.023 4.52699 113.588 4.52699C113.141 4.52699 112.768 4.64299 112.47 4.875C112.172 5.10369 111.946 5.41525 111.794 5.80966C111.645 6.20407 111.57 6.64489 111.57 7.1321C111.57 7.63258 111.646 8.07173 111.799 8.44957C111.951 8.82741 112.176 9.1224 112.475 9.33452C112.776 9.54664 113.148 9.6527 113.588 9.6527ZM120.529 6.46591V11H119.042V0.818182H120.509V4.60653H120.603C120.782 4.19555 121.056 3.86908 121.424 3.62713C121.792 3.38518 122.272 3.2642 122.865 3.2642C123.389 3.2642 123.846 3.37192 124.238 3.58736C124.632 3.80279 124.937 4.12429 125.152 4.55185C125.371 4.97609 125.48 5.50639 125.48 6.14276V11H123.994V6.32173C123.994 5.7616 123.85 5.32741 123.561 5.01918C123.273 4.70762 122.872 4.55185 122.358 4.55185C122.007 4.55185 121.692 4.62642 121.414 4.77557C121.139 4.92472 120.922 5.14347 120.762 5.43182C120.607 5.71686 120.529 6.06155 120.529 6.46591ZM131.963 6.05327V7.34091H127.449V6.05327H131.963ZM137.469 11.169C136.684 11.1657 136.013 10.9586 135.456 10.5476C134.899 10.1366 134.473 9.53835 134.178 8.75284C133.883 7.96733 133.736 7.02107 133.736 5.91406C133.736 4.81037 133.883 3.86742 134.178 3.08523C134.477 2.30303 134.904 1.70644 135.461 1.29545C136.021 0.884469 136.691 0.678977 137.469 0.678977C138.248 0.678977 138.916 0.886126 139.473 1.30043C140.03 1.71141 140.456 2.308 140.751 3.0902C141.049 3.86908 141.198 4.81037 141.198 5.91406C141.198 7.02438 141.051 7.9723 140.756 8.75781C140.461 9.54001 140.035 10.1383 139.478 10.5526C138.921 10.9635 138.252 11.169 137.469 11.169ZM137.469 9.84162C138.159 9.84162 138.697 9.50521 139.085 8.83239C139.476 8.15956 139.672 7.18679 139.672 5.91406C139.672 5.06889 139.582 4.35464 139.403 3.77131C139.228 3.18466 138.974 2.74053 138.643 2.43892C138.315 2.134 137.924 1.98153 137.469 1.98153C136.783 1.98153 136.245 2.3196 135.854 2.99574C135.463 3.67187 135.265 4.64465 135.262 5.91406C135.262 6.76255 135.35 7.48011 135.526 8.06676C135.705 8.65009 135.958 9.09257 136.286 9.39418C136.614 9.69247 137.009 9.84162 137.469 9.84162ZM146.825 0.818182V11H145.284V2.35938H145.224L142.788 3.95028V2.47869L145.328 0.818182H146.825Z" fill="black"/>
</svg>
