<svg viewBox="0 0 79 12" fill="none" stroke-width="2" stroke="currentColor" aria-hidden="true">
  <path d="M6.72159 5.22798L5.37429 5.46662C5.31795 5.29427 5.22846 5.13021 5.10582 4.97443C4.98651 4.81865 4.8241 4.69105 4.61861 4.59162C4.41312 4.49219 4.15625 4.44247 3.84801 4.44247C3.42708 4.44247 3.07576 4.53693 2.79403 4.72585C2.51231 4.91146 2.37145 5.15175 2.37145 5.44673C2.37145 5.70194 2.46591 5.90743 2.65483 6.06321C2.84375 6.21899 3.14867 6.34659 3.5696 6.44602L4.78267 6.72443C5.48532 6.88684 6.009 7.13707 6.35369 7.47514C6.69839 7.81321 6.87074 8.25237 6.87074 8.79261C6.87074 9.25 6.73816 9.65767 6.47301 10.0156C6.21117 10.3703 5.84493 10.6487 5.37429 10.8509C4.90696 11.053 4.36506 11.1541 3.74858 11.1541C2.89347 11.1541 2.19579 10.9718 1.65554 10.6072C1.11529 10.2393 0.783854 9.71733 0.661222 9.04119L2.09801 8.82244C2.1875 9.19697 2.37145 9.48035 2.64986 9.67259C2.92827 9.86151 3.29119 9.95597 3.73864 9.95597C4.22585 9.95597 4.61529 9.85488 4.90696 9.6527C5.19863 9.44721 5.34446 9.19697 5.34446 8.90199C5.34446 8.66335 5.25497 8.46283 5.07599 8.30043C4.90033 8.13802 4.63021 8.01539 4.26562 7.93253L2.97301 7.64915C2.26042 7.48674 1.73343 7.22822 1.39205 6.87358C1.05398 6.51894 0.884943 6.06984 0.884943 5.52628C0.884943 5.07552 1.01089 4.68111 1.26278 4.34304C1.51468 4.00497 1.86269 3.74148 2.30682 3.55256C2.75095 3.36032 3.25971 3.2642 3.8331 3.2642C4.65838 3.2642 5.308 3.44318 5.78196 3.80114C6.25592 4.15578 6.56913 4.63139 6.72159 5.22798ZM11.7218 11.1541C10.9827 11.1541 10.3463 10.9867 9.81268 10.652C9.28237 10.3139 8.8747 9.84825 8.58967 9.25497C8.30463 8.66169 8.16211 7.98224 8.16211 7.21662C8.16211 6.44105 8.30794 5.75663 8.59961 5.16335C8.89128 4.56676 9.30226 4.10109 9.83256 3.76633C10.3629 3.43158 10.9876 3.2642 11.7069 3.2642C12.2869 3.2642 12.8039 3.37192 13.258 3.58736C13.7121 3.79948 14.0783 4.09777 14.3567 4.48224C14.6384 4.86671 14.8058 5.31581 14.8588 5.82955H13.4121C13.3326 5.47159 13.1503 5.16335 12.8652 4.90483C12.5835 4.64631 12.2057 4.51705 11.7317 4.51705C11.3174 4.51705 10.9545 4.62642 10.6429 4.84517C10.3347 5.06061 10.0944 5.36884 9.92205 5.76989C9.7497 6.16761 9.66353 6.63826 9.66353 7.18182C9.66353 7.73864 9.74805 8.21922 9.91708 8.62358C10.0861 9.02794 10.3248 9.34115 10.633 9.56321C10.9445 9.78527 11.3108 9.89631 11.7317 9.89631C12.0134 9.89631 12.2686 9.84493 12.4973 9.74219C12.7293 9.63613 12.9232 9.48532 13.079 9.28977C13.2381 9.09422 13.3491 8.8589 13.4121 8.58381H14.8588C14.8058 9.07765 14.6451 9.51847 14.3766 9.90625C14.1081 10.294 13.7485 10.599 13.2978 10.821C12.8503 11.0431 12.325 11.1541 11.7218 11.1541ZM16.4485 11V3.36364H17.935V11H16.4485ZM17.1992 2.18537C16.9407 2.18537 16.7186 2.09919 16.533 1.92685C16.3507 1.75118 16.2596 1.54238 16.2596 1.30043C16.2596 1.05516 16.3507 0.846354 16.533 0.674005C16.7186 0.498342 16.9407 0.410511 17.1992 0.410511C17.4577 0.410511 17.6781 0.498342 17.8604 0.674005C18.046 0.846354 18.1388 1.05516 18.1388 1.30043C18.1388 1.54238 18.046 1.75118 17.8604 1.92685C17.6781 2.09919 17.4577 2.18537 17.1992 2.18537ZM25.6571 5.22798L24.3098 5.46662C24.2535 5.29427 24.164 5.13021 24.0414 4.97443C23.9221 4.81865 23.7596 4.69105 23.5542 4.59162C23.3487 4.49219 23.0918 4.44247 22.7836 4.44247C22.3626 4.44247 22.0113 4.53693 21.7296 4.72585C21.4479 4.91146 21.307 5.15175 21.307 5.44673C21.307 5.70194 21.4015 5.90743 21.5904 6.06321C21.7793 6.21899 22.0842 6.34659 22.5051 6.44602L23.7182 6.72443C24.4209 6.88684 24.9445 7.13707 25.2892 7.47514C25.6339 7.81321 25.8063 8.25237 25.8063 8.79261C25.8063 9.25 25.6737 9.65767 25.4086 10.0156C25.1467 10.3703 24.7805 10.6487 24.3098 10.8509C23.8425 11.053 23.3006 11.1541 22.6841 11.1541C21.829 11.1541 21.1313 10.9718 20.5911 10.6072C20.0508 10.2393 19.7194 9.71733 19.5968 9.04119L21.0336 8.82244C21.123 9.19697 21.307 9.48035 21.5854 9.67259C21.8638 9.86151 22.2267 9.95597 22.6742 9.95597C23.1614 9.95597 23.5508 9.85488 23.8425 9.6527C24.1342 9.44721 24.28 9.19697 24.28 8.90199C24.28 8.66335 24.1905 8.46283 24.0115 8.30043C23.8359 8.13802 23.5658 8.01539 23.2012 7.93253L21.9086 7.64915C21.196 7.48674 20.669 7.22822 20.3276 6.87358C19.9895 6.51894 19.8205 6.06984 19.8205 5.52628C19.8205 5.07552 19.9464 4.68111 20.1983 4.34304C20.4502 4.00497 20.7982 3.74148 21.2424 3.55256C21.6865 3.36032 22.1953 3.2642 22.7686 3.2642C23.5939 3.2642 24.2435 3.44318 24.7175 3.80114C25.1915 4.15578 25.5047 4.63139 25.6571 5.22798ZM33.163 5.22798L31.8157 5.46662C31.7594 5.29427 31.6699 5.13021 31.5472 4.97443C31.4279 4.81865 31.2655 4.69105 31.06 4.59162C30.8545 4.49219 30.5977 4.44247 30.2894 4.44247C29.8685 4.44247 29.5172 4.53693 29.2354 4.72585C28.9537 4.91146 28.8129 5.15175 28.8129 5.44673C28.8129 5.70194 28.9073 5.90743 29.0962 6.06321C29.2852 6.21899 29.5901 6.34659 30.011 6.44602L31.2241 6.72443C31.9267 6.88684 32.4504 7.13707 32.7951 7.47514C33.1398 7.81321 33.3121 8.25237 33.3121 8.79261C33.3121 9.25 33.1796 9.65767 32.9144 10.0156C32.6526 10.3703 32.2863 10.6487 31.8157 10.8509C31.3484 11.053 30.8065 11.1541 30.19 11.1541C29.3349 11.1541 28.6372 10.9718 28.0969 10.6072C27.5567 10.2393 27.2253 9.71733 27.1026 9.04119L28.5394 8.82244C28.6289 9.19697 28.8129 9.48035 29.0913 9.67259C29.3697 9.86151 29.7326 9.95597 30.18 9.95597C30.6673 9.95597 31.0567 9.85488 31.3484 9.6527C31.64 9.44721 31.7859 9.19697 31.7859 8.90199C31.7859 8.66335 31.6964 8.46283 31.5174 8.30043C31.3417 8.13802 31.0716 8.01539 30.707 7.93253L29.4144 7.64915C28.7018 7.48674 28.1748 7.22822 27.8335 6.87358C27.4954 6.51894 27.3263 6.06984 27.3263 5.52628C27.3263 5.07552 27.4523 4.68111 27.7042 4.34304C27.9561 4.00497 28.3041 3.74148 28.7482 3.55256C29.1924 3.36032 29.7011 3.2642 30.2745 3.2642C31.0998 3.2642 31.7494 3.44318 32.2234 3.80114C32.6973 4.15578 33.0105 4.63139 33.163 5.22798ZM38.1632 11.1541C37.4473 11.1541 36.8225 10.9901 36.2889 10.6619C35.7553 10.3338 35.341 9.87476 35.046 9.2848C34.751 8.69484 34.6035 8.00544 34.6035 7.21662C34.6035 6.42448 34.751 5.73177 35.046 5.13849C35.341 4.54522 35.7553 4.08452 36.2889 3.75639C36.8225 3.42827 37.4473 3.2642 38.1632 3.2642C38.8791 3.2642 39.5038 3.42827 40.0375 3.75639C40.5711 4.08452 40.9854 4.54522 41.2804 5.13849C41.5753 5.73177 41.7228 6.42448 41.7228 7.21662C41.7228 8.00544 41.5753 8.69484 41.2804 9.2848C40.9854 9.87476 40.5711 10.3338 40.0375 10.6619C39.5038 10.9901 38.8791 11.1541 38.1632 11.1541ZM38.1681 9.90625C38.6322 9.90625 39.0166 9.78362 39.3216 9.53835C39.6265 9.29309 39.8519 8.96662 39.9977 8.55895C40.1468 8.15128 40.2214 7.70218 40.2214 7.21165C40.2214 6.72443 40.1468 6.27699 39.9977 5.86932C39.8519 5.45833 39.6265 5.12855 39.3216 4.87997C39.0166 4.63139 38.6322 4.5071 38.1681 4.5071C37.7008 4.5071 37.313 4.63139 37.0048 4.87997C36.6999 5.12855 36.4728 5.45833 36.3237 5.86932C36.1779 6.27699 36.1049 6.72443 36.1049 7.21165C36.1049 7.70218 36.1779 8.15128 36.3237 8.55895C36.4728 8.96662 36.6999 9.29309 37.0048 9.53835C37.313 9.78362 37.7008 9.90625 38.1681 9.90625ZM43.3821 11V3.36364H44.8189V4.5767H44.8984C45.0376 4.16572 45.2829 3.84257 45.6342 3.60724C45.9889 3.36861 46.3899 3.24929 46.8374 3.24929C46.9302 3.24929 47.0395 3.2526 47.1655 3.25923C47.2947 3.26586 47.3958 3.27415 47.4688 3.28409V4.70597C47.4091 4.68939 47.303 4.67116 47.1506 4.65128C46.9981 4.62808 46.8456 4.61648 46.6932 4.61648C46.3419 4.61648 46.0286 4.69105 45.7536 4.8402C45.4818 4.98603 45.2663 5.18987 45.1072 5.4517C44.9482 5.71023 44.8686 6.00521 44.8686 6.33665V11H43.3821ZM54.4775 5.22798L53.1301 5.46662C53.0738 5.29427 52.9843 5.13021 52.8617 4.97443C52.7424 4.81865 52.58 4.69105 52.3745 4.59162C52.169 4.49219 51.9121 4.44247 51.6039 4.44247C51.1829 4.44247 50.8316 4.53693 50.5499 4.72585C50.2682 4.91146 50.1273 5.15175 50.1273 5.44673C50.1273 5.70194 50.2218 5.90743 50.4107 6.06321C50.5996 6.21899 50.9045 6.34659 51.3255 6.44602L52.5385 6.72443C53.2412 6.88684 53.7649 7.13707 54.1096 7.47514C54.4542 7.81321 54.6266 8.25237 54.6266 8.79261C54.6266 9.25 54.494 9.65767 54.2289 10.0156C53.967 10.3703 53.6008 10.6487 53.1301 10.8509C52.6628 11.053 52.1209 11.1541 51.5044 11.1541C50.6493 11.1541 49.9516 10.9718 49.4114 10.6072C48.8712 10.2393 48.5397 9.71733 48.4171 9.04119L49.8539 8.82244C49.9434 9.19697 50.1273 9.48035 50.4057 9.67259C50.6841 9.86151 51.0471 9.95597 51.4945 9.95597C51.9817 9.95597 52.3712 9.85488 52.6628 9.6527C52.9545 9.44721 53.1003 9.19697 53.1003 8.90199C53.1003 8.66335 53.0108 8.46283 52.8319 8.30043C52.6562 8.13802 52.3861 8.01539 52.0215 7.93253L50.7289 7.64915C50.0163 7.48674 49.4893 7.22822 49.1479 6.87358C48.8098 6.51894 48.6408 6.06984 48.6408 5.52628C48.6408 5.07552 48.7667 4.68111 49.0186 4.34304C49.2705 4.00497 49.6185 3.74148 50.0627 3.55256C50.5068 3.36032 51.0156 3.2642 51.589 3.2642C52.4142 3.2642 53.0639 3.44318 53.5378 3.80114C54.0118 4.15578 54.325 4.63139 54.4775 5.22798ZM60.7603 6.05327V7.34091H56.2461V6.05327H60.7603ZM66.2663 11.169C65.4808 11.1657 64.8097 10.9586 64.2528 10.5476C63.696 10.1366 63.2701 9.53835 62.9751 8.75284C62.6802 7.96733 62.5327 7.02107 62.5327 5.91406C62.5327 4.81037 62.6802 3.86742 62.9751 3.08523C63.2734 2.30303 63.701 1.70644 64.2578 1.29545C64.8179 0.884469 65.4875 0.678977 66.2663 0.678977C67.0452 0.678977 67.7131 0.886126 68.2699 1.30043C68.8267 1.71141 69.2526 2.308 69.5476 3.0902C69.8459 3.86908 69.995 4.81037 69.995 5.91406C69.995 7.02438 69.8475 7.9723 69.5526 8.75781C69.2576 9.54001 68.8317 10.1383 68.2749 10.5526C67.718 10.9635 67.0485 11.169 66.2663 11.169ZM66.2663 9.84162C66.9557 9.84162 67.4943 9.50521 67.8821 8.83239C68.2732 8.15956 68.4688 7.18679 68.4688 5.91406C68.4688 5.06889 68.3793 4.35464 68.2003 3.77131C68.0246 3.18466 67.7711 2.74053 67.4396 2.43892C67.1115 2.134 66.7204 1.98153 66.2663 1.98153C65.5803 1.98153 65.0417 2.3196 64.6506 2.99574C64.2595 3.67187 64.0623 4.64465 64.0589 5.91406C64.0589 6.76255 64.1468 7.48011 64.3224 8.06676C64.5014 8.65009 64.755 9.09257 65.0831 9.39418C65.4112 9.69247 65.8056 9.84162 66.2663 9.84162ZM71.7587 11V9.88636L75.204 6.31676C75.5719 5.92898 75.8752 5.58925 76.1138 5.29759C76.3558 5.0026 76.5364 4.72254 76.6557 4.45739C76.775 4.19223 76.8347 3.91051 76.8347 3.61222C76.8347 3.27415 76.7551 2.98248 76.5961 2.73722C76.437 2.48864 76.2199 2.29806 75.9448 2.16548C75.6697 2.02959 75.3598 1.96165 75.0151 1.96165C74.6505 1.96165 74.3323 2.03622 74.0605 2.18537C73.7888 2.33452 73.58 2.54498 73.4341 2.81676C73.2883 3.08854 73.2154 3.40672 73.2154 3.77131H71.7488C71.7488 3.15151 71.8913 2.60961 72.1763 2.1456C72.4614 1.68158 72.8525 1.32197 73.3496 1.06676C73.8468 0.808238 74.4119 0.678977 75.0449 0.678977C75.6846 0.678977 76.248 0.806581 76.7353 1.06179C77.2258 1.31368 77.6086 1.65838 77.8837 2.09588C78.1588 2.53007 78.2963 3.0206 78.2963 3.56747C78.2963 3.94531 78.2251 4.31487 78.0826 4.67614C77.9434 5.0374 77.6998 5.4401 77.3517 5.88423C77.0037 6.32505 76.5198 6.86032 75.9 7.49006L73.8766 9.60795V9.68253H78.4604V11H71.7587Z" fill="black"/>
</svg>
