<svg viewBox="0 0 108 15" fill="none" stroke-width="2" stroke="currentColor" aria-hidden="true">
  <path d="M-0.000710189 13.8636V3.36364H1.45099V4.60156H1.57528C1.66146 4.44247 1.78575 4.25852 1.94815 4.04972C2.11056 3.84091 2.33594 3.65862 2.62429 3.50284C2.91264 3.34375 3.2938 3.2642 3.76776 3.2642C4.38423 3.2642 4.93442 3.41998 5.41832 3.73153C5.90223 4.04309 6.28172 4.49219 6.55682 5.07884C6.83523 5.66548 6.97443 6.37145 6.97443 7.19673C6.97443 8.02202 6.83688 8.72964 6.56179 9.3196C6.2867 9.90625 5.90885 10.3587 5.42827 10.6768C4.94768 10.9917 4.39915 11.1491 3.78267 11.1491C3.31866 11.1491 2.93916 11.0713 2.64418 10.9155C2.35251 10.7597 2.12382 10.5774 1.9581 10.3686C1.79238 10.1598 1.66477 9.9742 1.57528 9.81179H1.4858V13.8636H-0.000710189ZM1.45597 7.18182C1.45597 7.71875 1.53385 8.18939 1.68963 8.59375C1.84541 8.99811 2.07079 9.31463 2.36577 9.54332C2.66075 9.7687 3.02202 9.88139 3.44957 9.88139C3.8937 9.88139 4.26491 9.76373 4.56321 9.52841C4.86151 9.28977 5.08688 8.96662 5.23935 8.55895C5.39512 8.15128 5.47301 7.69223 5.47301 7.18182C5.47301 6.67803 5.39678 6.22562 5.24432 5.82457C5.09517 5.42353 4.86979 5.10701 4.56818 4.875C4.26989 4.64299 3.89702 4.52699 3.44957 4.52699C3.0187 4.52699 2.65412 4.63802 2.35582 4.86009C2.06084 5.08215 1.83712 5.39205 1.68466 5.78977C1.5322 6.1875 1.45597 6.65151 1.45597 7.18182ZM10.8622 11.169C10.3783 11.169 9.94081 11.0795 9.54972 10.9006C9.15862 10.7183 8.84872 10.4548 8.62003 10.1101C8.39465 9.76539 8.28196 9.3428 8.28196 8.84233C8.28196 8.41146 8.36482 8.05682 8.53054 7.77841C8.69626 7.5 8.91998 7.27959 9.2017 7.11719C9.48343 6.95478 9.7983 6.83215 10.1463 6.74929C10.4943 6.66643 10.849 6.60346 11.2102 6.56037C11.6676 6.50734 12.0388 6.46425 12.3239 6.43111C12.6089 6.39465 12.8161 6.33665 12.9453 6.2571C13.0746 6.17756 13.1392 6.0483 13.1392 5.86932V5.83452C13.1392 5.40033 13.0166 5.06392 12.7713 4.82528C12.5294 4.58665 12.1681 4.46733 11.6875 4.46733C11.187 4.46733 10.7926 4.57836 10.5043 4.80043C10.2192 5.01918 10.022 5.26278 9.91264 5.53125L8.51562 5.21307C8.68134 4.74905 8.9233 4.37453 9.24148 4.08949C9.56297 3.80114 9.93253 3.59233 10.3501 3.46307C10.7678 3.33049 11.2069 3.2642 11.6676 3.2642C11.9725 3.2642 12.2957 3.30066 12.6371 3.37358C12.9818 3.44318 13.3033 3.57244 13.6016 3.76136C13.9032 3.95028 14.1501 4.22041 14.3423 4.57173C14.5346 4.91974 14.6307 5.37216 14.6307 5.92898V11H13.179V9.95597H13.1193C13.0232 10.1482 12.879 10.3371 12.6868 10.5227C12.4946 10.7083 12.2476 10.8625 11.946 10.9851C11.6444 11.1077 11.2831 11.169 10.8622 11.169ZM11.1854 9.97585C11.5964 9.97585 11.9477 9.89465 12.2393 9.73224C12.5343 9.56984 12.758 9.35772 12.9105 9.09588C13.0663 8.83073 13.1442 8.54735 13.1442 8.24574V7.26136C13.0911 7.31439 12.9884 7.36411 12.8359 7.41051C12.6868 7.4536 12.5161 7.49171 12.3239 7.52486C12.1316 7.55469 11.9444 7.58286 11.7621 7.60938C11.5798 7.63258 11.4273 7.65246 11.3047 7.66903C11.0163 7.70549 10.7528 7.76681 10.5142 7.85298C10.2789 7.93916 10.09 8.06345 9.94744 8.22585C9.80824 8.38494 9.73864 8.59706 9.73864 8.86222C9.73864 9.23011 9.87453 9.50852 10.1463 9.69744C10.4181 9.88305 10.7644 9.97585 11.1854 9.97585ZM16.6106 11V3.36364H18.0474V4.5767H18.127C18.2662 4.16572 18.5114 3.84257 18.8627 3.60724C19.2174 3.36861 19.6184 3.24929 20.0659 3.24929C20.1587 3.24929 20.2681 3.2526 20.394 3.25923C20.5233 3.26586 20.6243 3.27415 20.6973 3.28409V4.70597C20.6376 4.68939 20.5315 4.67116 20.3791 4.65128C20.2266 4.62808 20.0742 4.61648 19.9217 4.61648C19.5704 4.61648 19.2572 4.69105 18.9821 4.8402C18.7103 4.98603 18.4949 5.18987 18.3358 5.4517C18.1767 5.71023 18.0971 6.00521 18.0971 6.33665V11H16.6106ZM24.1376 11.169C23.6537 11.169 23.2162 11.0795 22.8251 10.9006C22.434 10.7183 22.1241 10.4548 21.8954 10.1101C21.67 9.76539 21.5574 9.3428 21.5574 8.84233C21.5574 8.41146 21.6402 8.05682 21.8059 7.77841C21.9717 7.5 22.1954 7.27959 22.4771 7.11719C22.7588 6.95478 23.0737 6.83215 23.4217 6.74929C23.7697 6.66643 24.1243 6.60346 24.4856 6.56037C24.943 6.50734 25.3142 6.46425 25.5993 6.43111C25.8843 6.39465 26.0914 6.33665 26.2207 6.2571C26.35 6.17756 26.4146 6.0483 26.4146 5.86932V5.83452C26.4146 5.40033 26.292 5.06392 26.0467 4.82528C25.8047 4.58665 25.4435 4.46733 24.9629 4.46733C24.4624 4.46733 24.068 4.57836 23.7797 4.80043C23.4946 5.01918 23.2974 5.26278 23.188 5.53125L21.791 5.21307C21.9567 4.74905 22.1987 4.37453 22.5169 4.08949C22.8384 3.80114 23.2079 3.59233 23.6255 3.46307C24.0431 3.33049 24.4823 3.2642 24.943 3.2642C25.2479 3.2642 25.5711 3.30066 25.9125 3.37358C26.2572 3.44318 26.5787 3.57244 26.877 3.76136C27.1786 3.95028 27.4255 4.22041 27.6177 4.57173C27.81 4.91974 27.9061 5.37216 27.9061 5.92898V11H26.4544V9.95597H26.3947C26.2986 10.1482 26.1544 10.3371 25.9622 10.5227C25.7699 10.7083 25.523 10.8625 25.2214 10.9851C24.9198 11.1077 24.5585 11.169 24.1376 11.169ZM24.4608 9.97585C24.8717 9.97585 25.2231 9.89465 25.5147 9.73224C25.8097 9.56984 26.0334 9.35772 26.1859 9.09588C26.3417 8.83073 26.4196 8.54735 26.4196 8.24574V7.26136C26.3665 7.31439 26.2638 7.36411 26.1113 7.41051C25.9622 7.4536 25.7915 7.49171 25.5993 7.52486C25.407 7.55469 25.2198 7.58286 25.0375 7.60938C24.8552 7.63258 24.7027 7.65246 24.5801 7.66903C24.2917 7.70549 24.0282 7.76681 23.7896 7.85298C23.5543 7.93916 23.3654 8.06345 23.2228 8.22585C23.0836 8.38494 23.014 8.59706 23.014 8.86222C23.014 9.23011 23.1499 9.50852 23.4217 9.69744C23.6935 9.88305 24.0398 9.97585 24.4608 9.97585ZM33.0877 14.0227C32.4812 14.0227 31.9592 13.9432 31.5217 13.7841C31.0875 13.625 30.7328 13.4145 30.4577 13.1527C30.1826 12.8909 29.9772 12.6042 29.8413 12.2926L31.119 11.7656C31.2085 11.9115 31.3278 12.0656 31.4769 12.228C31.6294 12.3937 31.8349 12.5346 32.0934 12.6506C32.3552 12.7666 32.6916 12.8246 33.1026 12.8246C33.6661 12.8246 34.1317 12.687 34.4996 12.4119C34.8675 12.1402 35.0515 11.706 35.0515 11.1094V9.60795H34.957C34.8675 9.77036 34.7383 9.95099 34.5692 10.1499C34.4035 10.3487 34.1748 10.5211 33.8832 10.6669C33.5915 10.8127 33.212 10.8857 32.7447 10.8857C32.1415 10.8857 31.5979 10.7448 31.114 10.4631C30.6334 10.178 30.2522 9.75876 29.9705 9.20526C29.6921 8.64844 29.5529 7.96401 29.5529 7.15199C29.5529 6.33996 29.6905 5.64394 29.9656 5.06392C30.244 4.4839 30.6251 4.03977 31.109 3.73153C31.5929 3.41998 32.1415 3.2642 32.7546 3.2642C33.2286 3.2642 33.6114 3.34375 33.9031 3.50284C34.1947 3.65862 34.4218 3.84091 34.5842 4.04972C34.7499 4.25852 34.8775 4.44247 34.967 4.60156H35.0763V3.36364H36.533V11.169C36.533 11.8253 36.3806 12.3639 36.0756 12.7848C35.7707 13.2057 35.3581 13.5173 34.8377 13.7195C34.3207 13.9216 33.7373 14.0227 33.0877 14.0227ZM33.0728 9.6527C33.5004 9.6527 33.8616 9.55327 34.1566 9.3544C34.4549 9.15223 34.6803 8.86387 34.8327 8.48935C34.9885 8.11151 35.0664 7.65909 35.0664 7.1321C35.0664 6.61837 34.9902 6.16596 34.8377 5.77486C34.6853 5.38376 34.4615 5.07884 34.1665 4.86009C33.8716 4.63802 33.507 4.52699 33.0728 4.52699C32.6254 4.52699 32.2525 4.64299 31.9542 4.875C31.6559 5.10369 31.4305 5.41525 31.2781 5.80966C31.1289 6.20407 31.0543 6.64489 31.0543 7.1321C31.0543 7.63258 31.1306 8.07173 31.283 8.44957C31.4355 8.82741 31.6609 9.1224 31.9592 9.33452C32.2608 9.54664 32.632 9.6527 33.0728 9.6527ZM38.5266 11V3.36364H39.9634V4.5767H40.043C40.1822 4.16572 40.4274 3.84257 40.7788 3.60724C41.1334 3.36861 41.5344 3.24929 41.9819 3.24929C42.0747 3.24929 42.1841 3.2526 42.31 3.25923C42.4393 3.26586 42.5404 3.27415 42.6133 3.28409V4.70597C42.5536 4.68939 42.4476 4.67116 42.2951 4.65128C42.1426 4.62808 41.9902 4.61648 41.8377 4.61648C41.4864 4.61648 41.1732 4.69105 40.8981 4.8402C40.6263 4.98603 40.4109 5.18987 40.2518 5.4517C40.0927 5.71023 40.0131 6.00521 40.0131 6.33665V11H38.5266ZM46.0536 11.169C45.5697 11.169 45.1322 11.0795 44.7411 10.9006C44.35 10.7183 44.0401 10.4548 43.8114 10.1101C43.5861 9.76539 43.4734 9.3428 43.4734 8.84233C43.4734 8.41146 43.5562 8.05682 43.7219 7.77841C43.8877 7.5 44.1114 7.27959 44.3931 7.11719C44.6748 6.95478 44.9897 6.83215 45.3377 6.74929C45.6857 6.66643 46.0404 6.60346 46.4016 6.56037C46.859 6.50734 47.2302 6.46425 47.5153 6.43111C47.8003 6.39465 48.0075 6.33665 48.1367 6.2571C48.266 6.17756 48.3306 6.0483 48.3306 5.86932V5.83452C48.3306 5.40033 48.208 5.06392 47.9627 4.82528C47.7208 4.58665 47.3595 4.46733 46.8789 4.46733C46.3784 4.46733 45.984 4.57836 45.6957 4.80043C45.4106 5.01918 45.2134 5.26278 45.104 5.53125L43.707 5.21307C43.8728 4.74905 44.1147 4.37453 44.4329 4.08949C44.7544 3.80114 45.1239 3.59233 45.5415 3.46307C45.9592 3.33049 46.3983 3.2642 46.859 3.2642C47.1639 3.2642 47.4871 3.30066 47.8285 3.37358C48.1732 3.44318 48.4947 3.57244 48.793 3.76136C49.0946 3.95028 49.3415 4.22041 49.5337 4.57173C49.726 4.91974 49.8221 5.37216 49.8221 5.92898V11H48.3704V9.95597H48.3107C48.2146 10.1482 48.0704 10.3371 47.8782 10.5227C47.686 10.7083 47.439 10.8625 47.1374 10.9851C46.8358 11.1077 46.4746 11.169 46.0536 11.169ZM46.3768 9.97585C46.7878 9.97585 47.1391 9.89465 47.4308 9.73224C47.7257 9.56984 47.9495 9.35772 48.1019 9.09588C48.2577 8.83073 48.3356 8.54735 48.3356 8.24574V7.26136C48.2826 7.31439 48.1798 7.36411 48.0273 7.41051C47.8782 7.4536 47.7075 7.49171 47.5153 7.52486C47.323 7.55469 47.1358 7.58286 46.9535 7.60938C46.7712 7.63258 46.6187 7.65246 46.4961 7.66903C46.2077 7.70549 45.9442 7.76681 45.7056 7.85298C45.4703 7.93916 45.2814 8.06345 45.1388 8.22585C44.9996 8.38494 44.93 8.59706 44.93 8.86222C44.93 9.23011 45.0659 9.50852 45.3377 9.69744C45.6095 9.88305 45.9558 9.97585 46.3768 9.97585ZM51.802 13.8636V3.36364H53.2537V4.60156H53.378C53.4642 4.44247 53.5885 4.25852 53.7509 4.04972C53.9133 3.84091 54.1387 3.65862 54.427 3.50284C54.7154 3.34375 55.0965 3.2642 55.5705 3.2642C56.187 3.2642 56.7372 3.41998 57.2211 3.73153C57.705 4.04309 58.0845 4.49219 58.3596 5.07884C58.638 5.66548 58.7772 6.37145 58.7772 7.19673C58.7772 8.02202 58.6396 8.72964 58.3645 9.3196C58.0894 9.90625 57.7116 10.3587 57.231 10.6768C56.7504 10.9917 56.2019 11.1491 55.5854 11.1491C55.1214 11.1491 54.7419 11.0713 54.4469 10.9155C54.1552 10.7597 53.9266 10.5774 53.7608 10.3686C53.5951 10.1598 53.4675 9.9742 53.378 9.81179H53.2885V13.8636H51.802ZM53.2587 7.18182C53.2587 7.71875 53.3366 8.18939 53.4924 8.59375C53.6481 8.99811 53.8735 9.31463 54.1685 9.54332C54.4635 9.7687 54.8248 9.88139 55.2523 9.88139C55.6964 9.88139 56.0676 9.76373 56.3659 9.52841C56.6642 9.28977 56.8896 8.96662 57.0421 8.55895C57.1979 8.15128 57.2757 7.69223 57.2757 7.18182C57.2757 6.67803 57.1995 6.22562 57.0471 5.82457C56.8979 5.42353 56.6725 5.10701 56.3709 4.875C56.0726 4.64299 55.6998 4.52699 55.2523 4.52699C54.8214 4.52699 54.4569 4.63802 54.1586 4.86009C53.8636 5.08215 53.6399 5.39205 53.4874 5.78977C53.3349 6.1875 53.2587 6.65151 53.2587 7.18182ZM61.9292 6.46591V11H60.4426V0.818182H61.9093V4.60653H62.0037C62.1827 4.19555 62.4561 3.86908 62.824 3.62713C63.1919 3.38518 63.6725 3.2642 64.2658 3.2642C64.7895 3.2642 65.2469 3.37192 65.638 3.58736C66.0324 3.80279 66.3373 4.12429 66.5527 4.55185C66.7715 4.97609 66.8809 5.50639 66.8809 6.14276V11H65.3944V6.32173C65.3944 5.7616 65.2502 5.32741 64.9618 5.01918C64.6735 4.70762 64.2724 4.55185 63.7587 4.55185C63.4074 4.55185 63.0925 4.62642 62.8141 4.77557C62.539 4.92472 62.3219 5.14347 62.1628 5.43182C62.007 5.71686 61.9292 6.06155 61.9292 6.46591ZM73.3638 6.05327V7.34091H68.8496V6.05327H73.3638ZM77.0005 11L74.7534 3.36364H76.2896L77.786 8.97159H77.8606L79.362 3.36364H80.8983L82.3897 8.94673H82.4643L83.9508 3.36364H85.487L83.2449 11H81.7285L80.1774 5.48651H80.063L78.5119 11H77.0005ZM86.8977 11V3.36364H88.3345V4.5767H88.4141C88.5533 4.16572 88.7985 3.84257 89.1499 3.60724C89.5045 3.36861 89.9055 3.24929 90.353 3.24929C90.4458 3.24929 90.5552 3.2526 90.6811 3.25923C90.8104 3.26586 90.9115 3.27415 90.9844 3.28409V4.70597C90.9247 4.68939 90.8187 4.67116 90.6662 4.65128C90.5137 4.62808 90.3613 4.61648 90.2088 4.61648C89.8575 4.61648 89.5443 4.69105 89.2692 4.8402C88.9974 4.98603 88.782 5.18987 88.6229 5.4517C88.4638 5.71023 88.3842 6.00521 88.3842 6.33665V11H86.8977ZM94.4247 11.169C93.9408 11.169 93.5033 11.0795 93.1122 10.9006C92.7211 10.7183 92.4112 10.4548 92.1825 10.1101C91.9571 9.76539 91.8445 9.3428 91.8445 8.84233C91.8445 8.41146 91.9273 8.05682 92.093 7.77841C92.2588 7.5 92.4825 7.27959 92.7642 7.11719C93.0459 6.95478 93.3608 6.83215 93.7088 6.74929C94.0568 6.66643 94.4115 6.60346 94.7727 6.56037C95.2301 6.50734 95.6013 6.46425 95.8864 6.43111C96.1714 6.39465 96.3786 6.33665 96.5078 6.2571C96.6371 6.17756 96.7017 6.0483 96.7017 5.86932V5.83452C96.7017 5.40033 96.5791 5.06392 96.3338 4.82528C96.0919 4.58665 95.7306 4.46733 95.25 4.46733C94.7495 4.46733 94.3551 4.57836 94.0668 4.80043C93.7817 5.01918 93.5845 5.26278 93.4751 5.53125L92.0781 5.21307C92.2438 4.74905 92.4858 4.37453 92.804 4.08949C93.1255 3.80114 93.495 3.59233 93.9126 3.46307C94.3303 3.33049 94.7694 3.2642 95.2301 3.2642C95.535 3.2642 95.8582 3.30066 96.1996 3.37358C96.5443 3.44318 96.8658 3.57244 97.1641 3.76136C97.4657 3.95028 97.7126 4.22041 97.9048 4.57173C98.0971 4.91974 98.1932 5.37216 98.1932 5.92898V11H96.7415V9.95597H96.6818C96.5857 10.1482 96.4415 10.3371 96.2493 10.5227C96.0571 10.7083 95.8101 10.8625 95.5085 10.9851C95.2069 11.1077 94.8456 11.169 94.4247 11.169ZM94.7479 9.97585C95.1589 9.97585 95.5102 9.89465 95.8018 9.73224C96.0968 9.56984 96.3205 9.35772 96.473 9.09588C96.6288 8.83073 96.7067 8.54735 96.7067 8.24574V7.26136C96.6536 7.31439 96.5509 7.36411 96.3984 7.41051C96.2493 7.4536 96.0786 7.49171 95.8864 7.52486C95.6941 7.55469 95.5069 7.58286 95.3246 7.60938C95.1423 7.63258 94.9898 7.65246 94.8672 7.66903C94.5788 7.70549 94.3153 7.76681 94.0767 7.85298C93.8414 7.93916 93.6525 8.06345 93.5099 8.22585C93.3707 8.38494 93.3011 8.59706 93.3011 8.86222C93.3011 9.23011 93.437 9.50852 93.7088 9.69744C93.9806 9.88305 94.3269 9.97585 94.7479 9.97585ZM100.173 13.8636V3.36364H101.625V4.60156H101.749C101.835 4.44247 101.96 4.25852 102.122 4.04972C102.284 3.84091 102.51 3.65862 102.798 3.50284C103.086 3.34375 103.468 3.2642 103.942 3.2642C104.558 3.2642 105.108 3.41998 105.592 3.73153C106.076 4.04309 106.456 4.49219 106.731 5.07884C107.009 5.66548 107.148 6.37145 107.148 7.19673C107.148 8.02202 107.011 8.72964 106.736 9.3196C106.461 9.90625 106.083 10.3587 105.602 10.6768C105.122 10.9917 104.573 11.1491 103.956 11.1491C103.492 11.1491 103.113 11.0713 102.818 10.9155C102.526 10.7597 102.298 10.5774 102.132 10.3686C101.966 10.1598 101.839 9.9742 101.749 9.81179H101.66V13.8636H100.173ZM101.63 7.18182C101.63 7.71875 101.708 8.18939 101.863 8.59375C102.019 8.99811 102.245 9.31463 102.54 9.54332C102.835 9.7687 103.196 9.88139 103.623 9.88139C104.068 9.88139 104.439 9.76373 104.737 9.52841C105.035 9.28977 105.261 8.96662 105.413 8.55895C105.569 8.15128 105.647 7.69223 105.647 7.18182C105.647 6.67803 105.571 6.22562 105.418 5.82457C105.269 5.42353 105.044 5.10701 104.742 4.875C104.444 4.64299 104.071 4.52699 103.623 4.52699C103.193 4.52699 102.828 4.63802 102.53 4.86009C102.235 5.08215 102.011 5.39205 101.858 5.78977C101.706 6.1875 101.63 6.65151 101.63 7.18182Z" fill="black"/>
</svg>
