<svg viewBox="0 0 84 14" fill="none" stroke-width="2" stroke="currentColor" aria-hidden="true">
  <path d="M0.99929 11V3.36364H2.4858V11H0.99929ZM1.75 2.18537C1.49148 2.18537 1.26941 2.09919 1.08381 1.92685C0.901515 1.75118 0.810369 1.54238 0.810369 1.30043C0.810369 1.05516 0.901515 0.846354 1.08381 0.674005C1.26941 0.498342 1.49148 0.410511 1.75 0.410511C2.00852 0.410511 2.22893 0.498342 2.41122 0.674005C2.59683 0.846354 2.68963 1.05516 2.68963 1.30043C2.68963 1.54238 2.59683 1.75118 2.41122 1.92685C2.22893 2.09919 2.00852 2.18537 1.75 2.18537ZM8.05025 3.36364V4.55682H3.87908V3.36364H8.05025ZM4.99769 1.53409H6.4842V8.75781C6.4842 9.04616 6.52728 9.26326 6.61346 9.40909C6.69963 9.55161 6.81067 9.64938 6.94656 9.70241C7.08576 9.75213 7.23656 9.77699 7.39897 9.77699C7.51829 9.77699 7.62269 9.7687 7.71218 9.75213C7.80167 9.73556 7.87127 9.7223 7.92099 9.71236L8.18945 10.9403C8.10328 10.9735 7.98065 11.0066 7.82156 11.0398C7.66246 11.0762 7.4636 11.0961 7.22496 11.0994C6.83387 11.1061 6.46928 11.0365 6.13121 10.8906C5.79315 10.7448 5.51971 10.5194 5.3109 10.2145C5.1021 9.90956 4.99769 9.52675 4.99769 9.06605V1.53409ZM11.9169 11.169C11.433 11.169 10.9955 11.0795 10.6044 10.9006C10.2133 10.7183 9.90341 10.4548 9.67472 10.1101C9.44934 9.76539 9.33665 9.3428 9.33665 8.84233C9.33665 8.41146 9.41951 8.05682 9.58523 7.77841C9.75095 7.5 9.97467 7.27959 10.2564 7.11719C10.5381 6.95478 10.853 6.83215 11.201 6.74929C11.549 6.66643 11.9036 6.60346 12.2649 6.56037C12.7223 6.50734 13.0935 6.46425 13.3786 6.43111C13.6636 6.39465 13.8707 6.33665 14 6.2571C14.1293 6.17756 14.1939 6.0483 14.1939 5.86932V5.83452C14.1939 5.40033 14.0713 5.06392 13.826 4.82528C13.584 4.58665 13.2228 4.46733 12.7422 4.46733C12.2417 4.46733 11.8473 4.57836 11.5589 4.80043C11.2739 5.01918 11.0767 5.26278 10.9673 5.53125L9.57031 5.21307C9.73603 4.74905 9.97798 4.37453 10.2962 4.08949C10.6177 3.80114 10.9872 3.59233 11.4048 3.46307C11.8224 3.33049 12.2616 3.2642 12.7223 3.2642C13.0272 3.2642 13.3504 3.30066 13.6918 3.37358C14.0365 3.44318 14.358 3.57244 14.6562 3.76136C14.9579 3.95028 15.2048 4.22041 15.397 4.57173C15.5893 4.91974 15.6854 5.37216 15.6854 5.92898V11H14.2337V9.95597H14.174C14.0779 10.1482 13.9337 10.3371 13.7415 10.5227C13.5492 10.7083 13.3023 10.8625 13.0007 10.9851C12.6991 11.1077 12.3378 11.169 11.9169 11.169ZM12.2401 9.97585C12.651 9.97585 13.0024 9.89465 13.294 9.73224C13.589 9.56984 13.8127 9.35772 13.9652 9.09588C14.121 8.83073 14.1989 8.54735 14.1989 8.24574V7.26136C14.1458 7.31439 14.0431 7.36411 13.8906 7.41051C13.7415 7.4536 13.5708 7.49171 13.3786 7.52486C13.1863 7.55469 12.9991 7.58286 12.8168 7.60938C12.6345 7.63258 12.482 7.65246 12.3594 7.66903C12.071 7.70549 11.8075 7.76681 11.5689 7.85298C11.3336 7.93916 11.1446 8.06345 11.0021 8.22585C10.8629 8.38494 10.7933 8.59706 10.7933 8.86222C10.7933 9.23011 10.9292 9.50852 11.201 9.69744C11.4728 9.88305 11.8191 9.97585 12.2401 9.97585ZM19.1518 0.818182V11H17.6653V0.818182H19.1518ZM21.1516 11V3.36364H22.6381V11H21.1516ZM21.9023 2.18537C21.6438 2.18537 21.4218 2.09919 21.2362 1.92685C21.0539 1.75118 20.9627 1.54238 20.9627 1.30043C20.9627 1.05516 21.0539 0.846354 21.2362 0.674005C21.4218 0.498342 21.6438 0.410511 21.9023 0.410511C22.1609 0.410511 22.3813 0.498342 22.5636 0.674005C22.7492 0.846354 22.842 1.05516 22.842 1.30043C22.842 1.54238 22.7492 1.75118 22.5636 1.92685C22.3813 2.09919 22.1609 2.18537 21.9023 2.18537ZM27.8546 11.1541C27.1155 11.1541 26.4791 10.9867 25.9455 10.652C25.4152 10.3139 25.0075 9.84825 24.7225 9.25497C24.4374 8.66169 24.2949 7.98224 24.2949 7.21662C24.2949 6.44105 24.4408 5.75663 24.7324 5.16335C25.0241 4.56676 25.4351 4.10109 25.9654 3.76633C26.4957 3.43158 27.1204 3.2642 27.8397 3.2642C28.4197 3.2642 28.9367 3.37192 29.3908 3.58736C29.8449 3.79948 30.2111 4.09777 30.4895 4.48224C30.7712 4.86671 30.9386 5.31581 30.9917 5.82955H29.5449C29.4654 5.47159 29.2831 5.16335 28.998 4.90483C28.7163 4.64631 28.3385 4.51705 27.8645 4.51705C27.4502 4.51705 27.0873 4.62642 26.7757 4.84517C26.4675 5.06061 26.2272 5.36884 26.0549 5.76989C25.8825 6.16761 25.7963 6.63826 25.7963 7.18182C25.7963 7.73864 25.8809 8.21922 26.0499 8.62358C26.2189 9.02794 26.4576 9.34115 26.7658 9.56321C27.0774 9.78527 27.4436 9.89631 27.8645 9.89631C28.1462 9.89631 28.4015 9.84493 28.6301 9.74219C28.8622 9.63613 29.056 9.48532 29.2118 9.28977C29.3709 9.09422 29.4819 8.8589 29.5449 8.58381H30.9917C30.9386 9.07765 30.7779 9.51847 30.5094 9.90625C30.2409 10.294 29.8813 10.599 29.4306 10.821C28.9831 11.0431 28.4578 11.1541 27.8546 11.1541ZM37.0806 6.05327V7.34091H32.5664V6.05327H37.0806ZM44.7841 5.22798L43.4368 5.46662C43.3804 5.29427 43.291 5.13021 43.1683 4.97443C43.049 4.81865 42.8866 4.69105 42.6811 4.59162C42.4756 4.49219 42.2188 4.44247 41.9105 4.44247C41.4896 4.44247 41.1383 4.53693 40.8565 4.72585C40.5748 4.91146 40.4339 5.15175 40.4339 5.44673C40.4339 5.70194 40.5284 5.90743 40.7173 6.06321C40.9063 6.21899 41.2112 6.34659 41.6321 6.44602L42.8452 6.72443C43.5478 6.88684 44.0715 7.13707 44.4162 7.47514C44.7609 7.81321 44.9332 8.25237 44.9332 8.79261C44.9332 9.25 44.8007 9.65767 44.5355 10.0156C44.2737 10.3703 43.9074 10.6487 43.4368 10.8509C42.9695 11.053 42.4276 11.1541 41.8111 11.1541C40.956 11.1541 40.2583 10.9718 39.718 10.6072C39.1778 10.2393 38.8464 9.71733 38.7237 9.04119L40.1605 8.82244C40.25 9.19697 40.4339 9.48035 40.7124 9.67259C40.9908 9.86151 41.3537 9.95597 41.8011 9.95597C42.2884 9.95597 42.6778 9.85488 42.9695 9.6527C43.2611 9.44721 43.407 9.19697 43.407 8.90199C43.407 8.66335 43.3175 8.46283 43.1385 8.30043C42.9628 8.13802 42.6927 8.01539 42.3281 7.93253L41.0355 7.64915C40.3229 7.48674 39.7959 7.22822 39.4545 6.87358C39.1165 6.51894 38.9474 6.06984 38.9474 5.52628C38.9474 5.07552 39.0734 4.68111 39.3253 4.34304C39.5772 4.00497 39.9252 3.74148 40.3693 3.55256C40.8134 3.36032 41.3222 3.2642 41.8956 3.2642C42.7209 3.2642 43.3705 3.44318 43.8445 3.80114C44.3184 4.15578 44.6316 4.63139 44.7841 5.22798ZM51.7232 13.8636V9.81179H51.6337C51.5442 9.9742 51.415 10.1598 51.2459 10.3686C51.0802 10.5774 50.8515 10.7597 50.5598 10.9155C50.2682 11.0713 49.8903 11.1491 49.4263 11.1491C48.8098 11.1491 48.2596 10.9917 47.7757 10.6768C47.2952 10.3587 46.9173 9.90625 46.6422 9.3196C46.3704 8.72964 46.2346 8.02202 46.2346 7.19673C46.2346 6.37145 46.3721 5.66548 46.6472 5.07884C46.9256 4.49219 47.3068 4.04309 47.7907 3.73153C48.2746 3.41998 48.8231 3.2642 49.4363 3.2642C49.9102 3.2642 50.2914 3.34375 50.5797 3.50284C50.8714 3.65862 51.0968 3.84091 51.2559 4.04972C51.4183 4.25852 51.5442 4.44247 51.6337 4.60156H51.758V3.36364H53.2097V13.8636H51.7232ZM49.7544 9.88139C50.182 9.88139 50.5433 9.7687 50.8382 9.54332C51.1365 9.31463 51.3619 8.99811 51.5144 8.59375C51.6702 8.18939 51.748 7.71875 51.748 7.18182C51.748 6.65151 51.6718 6.1875 51.5194 5.78977C51.3669 5.39205 51.1432 5.08215 50.8482 4.86009C50.5532 4.63802 50.1886 4.52699 49.7544 4.52699C49.307 4.52699 48.9341 4.64299 48.6358 4.875C48.3375 5.10701 48.1122 5.42353 47.9597 5.82457C47.8105 6.22562 47.736 6.67803 47.736 7.18182C47.736 7.69223 47.8122 8.15128 47.9647 8.55895C48.1171 8.96662 48.3425 9.28977 48.6408 9.52841C48.9424 9.76373 49.3136 9.88139 49.7544 9.88139ZM60.0456 7.8331V3.36364H61.5371V11H60.0755V9.67756H59.9959C59.8203 10.0852 59.5385 10.425 59.1507 10.6967C58.7663 10.9652 58.2873 11.0994 57.714 11.0994C57.2234 11.0994 56.7892 10.9917 56.4114 10.7763C56.0369 10.5575 55.7419 10.2344 55.5265 9.80682C55.3143 9.37926 55.2083 8.85062 55.2083 8.22088V3.36364H56.6948V8.0419C56.6948 8.56226 56.839 8.97656 57.1273 9.2848C57.4157 9.59304 57.7902 9.74716 58.2509 9.74716C58.5293 9.74716 58.806 9.67756 59.0811 9.53835C59.3596 9.39915 59.5899 9.18868 59.7722 8.90696C59.9578 8.62524 60.0489 8.26728 60.0456 7.8331ZM65.7567 11.169C65.2728 11.169 64.8353 11.0795 64.4442 10.9006C64.0531 10.7183 63.7433 10.4548 63.5146 10.1101C63.2892 9.76539 63.1765 9.3428 63.1765 8.84233C63.1765 8.41146 63.2594 8.05682 63.4251 7.77841C63.5908 7.5 63.8145 7.27959 64.0962 7.11719C64.378 6.95478 64.6928 6.83215 65.0408 6.74929C65.3888 6.66643 65.7435 6.60346 66.1048 6.56037C66.5621 6.50734 66.9334 6.46425 67.2184 6.43111C67.5034 6.39465 67.7106 6.33665 67.8398 6.2571C67.9691 6.17756 68.0337 6.0483 68.0337 5.86932V5.83452C68.0337 5.40033 67.9111 5.06392 67.6658 4.82528C67.4239 4.58665 67.0626 4.46733 66.582 4.46733C66.0816 4.46733 65.6871 4.57836 65.3988 4.80043C65.1138 5.01918 64.9165 5.26278 64.8072 5.53125L63.4102 5.21307C63.5759 4.74905 63.8178 4.37453 64.136 4.08949C64.4575 3.80114 64.8271 3.59233 65.2447 3.46307C65.6623 3.33049 66.1014 3.2642 66.5621 3.2642C66.8671 3.2642 67.1902 3.30066 67.5316 3.37358C67.8763 3.44318 68.1978 3.57244 68.4961 3.76136C68.7977 3.95028 69.0446 4.22041 69.2369 4.57173C69.4291 4.91974 69.5252 5.37216 69.5252 5.92898V11H68.0735V9.95597H68.0138C67.9177 10.1482 67.7736 10.3371 67.5813 10.5227C67.3891 10.7083 67.1422 10.8625 66.8406 10.9851C66.5389 11.1077 66.1777 11.169 65.7567 11.169ZM66.0799 9.97585C66.4909 9.97585 66.8422 9.89465 67.1339 9.73224C67.4289 9.56984 67.6526 9.35772 67.805 9.09588C67.9608 8.83073 68.0387 8.54735 68.0387 8.24574V7.26136C67.9857 7.31439 67.8829 7.36411 67.7305 7.41051C67.5813 7.4536 67.4106 7.49171 67.2184 7.52486C67.0262 7.55469 66.8389 7.58286 66.6566 7.60938C66.4743 7.63258 66.3219 7.65246 66.1992 7.66903C65.9109 7.70549 65.6474 7.76681 65.4087 7.85298C65.1734 7.93916 64.9845 8.06345 64.842 8.22585C64.7028 8.38494 64.6332 8.59706 64.6332 8.86222C64.6332 9.23011 64.7691 9.50852 65.0408 9.69744C65.3126 9.88305 65.659 9.97585 66.0799 9.97585ZM71.5051 11V3.36364H72.9419V4.5767H73.0215C73.1607 4.16572 73.406 3.84257 73.7573 3.60724C74.1119 3.36861 74.513 3.24929 74.9604 3.24929C75.0532 3.24929 75.1626 3.2526 75.2885 3.25923C75.4178 3.26586 75.5189 3.27415 75.5918 3.28409V4.70597C75.5321 4.68939 75.4261 4.67116 75.2736 4.65128C75.1212 4.62808 74.9687 4.61648 74.8162 4.61648C74.4649 4.61648 74.1517 4.69105 73.8766 4.8402C73.6048 4.98603 73.3894 5.18987 73.2303 5.4517C73.0712 5.71023 72.9917 6.00521 72.9917 6.33665V11H71.5051ZM79.896 11.1541C79.1436 11.1541 78.4956 10.9934 77.9521 10.6719C77.4118 10.3471 76.9942 9.89134 76.6992 9.30469C76.4076 8.71473 76.2617 8.02367 76.2617 7.23153C76.2617 6.44934 76.4076 5.75994 76.6992 5.16335C76.9942 4.56676 77.4052 4.10109 77.9322 3.76633C78.4625 3.43158 79.0823 3.2642 79.7915 3.2642C80.2224 3.2642 80.64 3.33546 81.0444 3.47798C81.4487 3.6205 81.8117 3.84422 82.1332 4.14915C82.4547 4.45407 82.7082 4.85014 82.8938 5.33736C83.0794 5.82126 83.1722 6.40956 83.1722 7.10227V7.62926H77.1019V6.51562H81.7156C81.7156 6.12453 81.636 5.77817 81.4769 5.47656C81.3178 5.17164 81.0941 4.93134 80.8058 4.75568C80.5207 4.58002 80.186 4.49219 79.8015 4.49219C79.3839 4.49219 79.0193 4.59493 78.7077 4.80043C78.3995 5.0026 78.1609 5.26776 77.9918 5.59588C77.8261 5.92069 77.7433 6.27367 77.7433 6.65483V7.52486C77.7433 8.03527 77.8327 8.46946 78.0117 8.82741C78.194 9.18537 78.4476 9.45881 78.7724 9.64773C79.0972 9.83333 79.4767 9.92614 79.9109 9.92614C80.1926 9.92614 80.4495 9.88636 80.6815 9.80682C80.9135 9.72396 81.114 9.60133 81.283 9.43892C81.4521 9.27652 81.5813 9.07599 81.6708 8.83736L83.0778 9.09091C82.9651 9.50521 82.7629 9.86813 82.4712 10.1797C82.1829 10.4879 81.82 10.7282 81.3825 10.9006C80.9483 11.0696 80.4528 11.1541 79.896 11.1541Z" fill="black"/>
</svg>
