<svg viewBox="0 0 74 12" fill="none" stroke-width="2" stroke="currentColor" aria-hidden="true">
  <path d="M4.21591 11.1541C3.4768 11.1541 2.84044 10.9867 2.30682 10.652C1.77652 10.3139 1.36884 9.84825 1.08381 9.25497C0.798769 8.66169 0.65625 7.98224 0.65625 7.21662C0.65625 6.44105 0.802083 5.75663 1.09375 5.16335C1.38542 4.56676 1.7964 4.10109 2.3267 3.76633C2.85701 3.43158 3.48177 3.2642 4.20099 3.2642C4.78101 3.2642 5.29806 3.37192 5.75213 3.58736C6.2062 3.79948 6.57244 4.09777 6.85085 4.48224C7.13258 4.86671 7.29995 5.31581 7.35298 5.82955H5.90625C5.8267 5.47159 5.64441 5.16335 5.35938 4.90483C5.07765 4.64631 4.69981 4.51705 4.22585 4.51705C3.81155 4.51705 3.44863 4.62642 3.13707 4.84517C2.82884 5.06061 2.58854 5.36884 2.41619 5.76989C2.24384 6.16761 2.15767 6.63826 2.15767 7.18182C2.15767 7.73864 2.24219 8.21922 2.41122 8.62358C2.58026 9.02794 2.81889 9.34115 3.12713 9.56321C3.43868 9.78527 3.80492 9.89631 4.22585 9.89631C4.50758 9.89631 4.76278 9.84493 4.99148 9.74219C5.22349 9.63613 5.41738 9.48532 5.57315 9.28977C5.73224 9.09422 5.84328 8.8589 5.90625 8.58381H7.35298C7.29995 9.07765 7.1392 9.51847 6.87074 9.90625C6.60227 10.294 6.24266 10.599 5.7919 10.821C5.34446 11.0431 4.81913 11.1541 4.21591 11.1541ZM13.78 7.8331V3.36364H15.2715V11H13.8098V9.67756H13.7303C13.5546 10.0852 13.2729 10.425 12.8851 10.6967C12.5007 10.9652 12.0217 11.0994 11.4483 11.0994C10.9578 11.0994 10.5236 10.9917 10.1458 10.7763C9.77125 10.5575 9.47627 10.2344 9.26083 9.80682C9.04871 9.37926 8.94265 8.85062 8.94265 8.22088V3.36364H10.4292V8.0419C10.4292 8.56226 10.5733 8.97656 10.8617 9.2848C11.15 9.59304 11.5246 9.74716 11.9853 9.74716C12.2637 9.74716 12.5404 9.67756 12.8155 9.53835C13.0939 9.39915 13.3243 9.18868 13.5066 8.90696C13.6922 8.62524 13.7833 8.26728 13.78 7.8331ZM17.2688 11V3.36364H18.7056V4.5767H18.7852C18.9244 4.16572 19.1696 3.84257 19.521 3.60724C19.8756 3.36861 20.2766 3.24929 20.7241 3.24929C20.8169 3.24929 20.9263 3.2526 21.0522 3.25923C21.1815 3.26586 21.2826 3.27415 21.3555 3.28409V4.70597C21.2958 4.68939 21.1897 4.67116 21.0373 4.65128C20.8848 4.62808 20.7324 4.61648 20.5799 4.61648C20.2286 4.61648 19.9154 4.69105 19.6403 4.8402C19.3685 4.98603 19.1531 5.18987 18.994 5.4517C18.8349 5.71023 18.7553 6.00521 18.7553 6.33665V11H17.2688ZM28.3642 5.22798L27.0169 5.46662C26.9605 5.29427 26.871 5.13021 26.7484 4.97443C26.6291 4.81865 26.4667 4.69105 26.2612 4.59162C26.0557 4.49219 25.7988 4.44247 25.4906 4.44247C25.0697 4.44247 24.7183 4.53693 24.4366 4.72585C24.1549 4.91146 24.014 5.15175 24.014 5.44673C24.014 5.70194 24.1085 5.90743 24.2974 6.06321C24.4863 6.21899 24.7913 6.34659 25.2122 6.44602L26.4252 6.72443C27.1279 6.88684 27.6516 7.13707 27.9963 7.47514C28.341 7.81321 28.5133 8.25237 28.5133 8.79261C28.5133 9.25 28.3807 9.65767 28.1156 10.0156C27.8538 10.3703 27.4875 10.6487 27.0169 10.8509C26.5495 11.053 26.0076 11.1541 25.3912 11.1541C24.536 11.1541 23.8384 10.9718 23.2981 10.6072C22.7579 10.2393 22.4264 9.71733 22.3038 9.04119L23.7406 8.82244C23.8301 9.19697 24.014 9.48035 24.2924 9.67259C24.5708 9.86151 24.9338 9.95597 25.3812 9.95597C25.8684 9.95597 26.2579 9.85488 26.5495 9.6527C26.8412 9.44721 26.987 9.19697 26.987 8.90199C26.987 8.66335 26.8975 8.46283 26.7186 8.30043C26.5429 8.13802 26.2728 8.01539 25.9082 7.93253L24.6156 7.64915C23.903 7.48674 23.376 7.22822 23.0346 6.87358C22.6966 6.51894 22.5275 6.06984 22.5275 5.52628C22.5275 5.07552 22.6535 4.68111 22.9054 4.34304C23.1573 4.00497 23.5053 3.74148 23.9494 3.55256C24.3935 3.36032 24.9023 3.2642 25.4757 3.2642C26.301 3.2642 26.9506 3.44318 27.4245 3.80114C27.8985 4.15578 28.2117 4.63139 28.3642 5.22798ZM33.3643 11.1541C32.6484 11.1541 32.0237 10.9901 31.4901 10.6619C30.9564 10.3338 30.5421 9.87476 30.2472 9.2848C29.9522 8.69484 29.8047 8.00544 29.8047 7.21662C29.8047 6.42448 29.9522 5.73177 30.2472 5.13849C30.5421 4.54522 30.9564 4.08452 31.4901 3.75639C32.0237 3.42827 32.6484 3.2642 33.3643 3.2642C34.0803 3.2642 34.705 3.42827 35.2386 3.75639C35.7723 4.08452 36.1866 4.54522 36.4815 5.13849C36.7765 5.73177 36.924 6.42448 36.924 7.21662C36.924 8.00544 36.7765 8.69484 36.4815 9.2848C36.1866 9.87476 35.7723 10.3338 35.2386 10.6619C34.705 10.9901 34.0803 11.1541 33.3643 11.1541ZM33.3693 9.90625C33.8333 9.90625 34.2178 9.78362 34.5227 9.53835C34.8277 9.29309 35.053 8.96662 35.1989 8.55895C35.348 8.15128 35.4226 7.70218 35.4226 7.21165C35.4226 6.72443 35.348 6.27699 35.1989 5.86932C35.053 5.45833 34.8277 5.12855 34.5227 4.87997C34.2178 4.63139 33.8333 4.5071 33.3693 4.5071C32.902 4.5071 32.5142 4.63139 32.206 4.87997C31.901 5.12855 31.674 5.45833 31.5249 5.86932C31.379 6.27699 31.3061 6.72443 31.3061 7.21165C31.3061 7.70218 31.379 8.15128 31.5249 8.55895C31.674 8.96662 31.901 9.29309 32.206 9.53835C32.5142 9.78362 32.902 9.90625 33.3693 9.90625ZM38.5833 11V3.36364H40.0201V4.5767H40.0996C40.2388 4.16572 40.4841 3.84257 40.8354 3.60724C41.19 3.36861 41.5911 3.24929 42.0385 3.24929C42.1313 3.24929 42.2407 3.2526 42.3667 3.25923C42.4959 3.26586 42.597 3.27415 42.6699 3.28409V4.70597C42.6103 4.68939 42.5042 4.67116 42.3517 4.65128C42.1993 4.62808 42.0468 4.61648 41.8944 4.61648C41.543 4.61648 41.2298 4.69105 40.9547 4.8402C40.6829 4.98603 40.4675 5.18987 40.3084 5.4517C40.1493 5.71023 40.0698 6.00521 40.0698 6.33665V11H38.5833ZM48.0044 6.05327V7.34091H43.4902V6.05327H48.0044ZM50.1049 11V0.818182H51.5914V4.60156H51.6809C51.7671 4.44247 51.8914 4.25852 52.0538 4.04972C52.2162 3.84091 52.4416 3.65862 52.7299 3.50284C53.0183 3.34375 53.3994 3.2642 53.8734 3.2642C54.4899 3.2642 55.0401 3.41998 55.524 3.73153C56.0079 4.04309 56.3874 4.49219 56.6625 5.07884C56.9409 5.66548 57.0801 6.37145 57.0801 7.19673C57.0801 8.02202 56.9425 8.72964 56.6674 9.3196C56.3923 9.90625 56.0145 10.3587 55.5339 10.6768C55.0533 10.9917 54.5048 11.1491 53.8883 11.1491C53.4243 11.1491 53.0448 11.0713 52.7498 10.9155C52.4582 10.7597 52.2295 10.5774 52.0637 10.3686C51.898 10.1598 51.7704 9.9742 51.6809 9.81179H51.5566V11H50.1049ZM51.5616 7.18182C51.5616 7.71875 51.6395 8.18939 51.7953 8.59375C51.9511 8.99811 52.1764 9.31463 52.4714 9.54332C52.7664 9.7687 53.1277 9.88139 53.5552 9.88139C53.9993 9.88139 54.3706 9.76373 54.6689 9.52841C54.9672 9.28977 55.1925 8.96662 55.345 8.55895C55.5008 8.15128 55.5787 7.69223 55.5787 7.18182C55.5787 6.67803 55.5024 6.22562 55.35 5.82457C55.2008 5.42353 54.9754 5.10701 54.6738 4.875C54.3755 4.64299 54.0027 4.52699 53.5552 4.52699C53.1243 4.52699 52.7598 4.63802 52.4615 4.86009C52.1665 5.08215 51.9428 5.39205 51.7903 5.78977C51.6378 6.1875 51.5616 6.65151 51.5616 7.18182ZM61.9659 11.1541C61.25 11.1541 60.6252 10.9901 60.0916 10.6619C59.558 10.3338 59.1437 9.87476 58.8487 9.2848C58.5537 8.69484 58.4062 8.00544 58.4062 7.21662C58.4062 6.42448 58.5537 5.73177 58.8487 5.13849C59.1437 4.54522 59.558 4.08452 60.0916 3.75639C60.6252 3.42827 61.25 3.2642 61.9659 3.2642C62.6818 3.2642 63.3066 3.42827 63.8402 3.75639C64.3738 4.08452 64.7881 4.54522 65.0831 5.13849C65.3781 5.73177 65.5256 6.42448 65.5256 7.21662C65.5256 8.00544 65.3781 8.69484 65.0831 9.2848C64.7881 9.87476 64.3738 10.3338 63.8402 10.6619C63.3066 10.9901 62.6818 11.1541 61.9659 11.1541ZM61.9709 9.90625C62.4349 9.90625 62.8194 9.78362 63.1243 9.53835C63.4292 9.29309 63.6546 8.96662 63.8004 8.55895C63.9496 8.15128 64.0241 7.70218 64.0241 7.21165C64.0241 6.72443 63.9496 6.27699 63.8004 5.86932C63.6546 5.45833 63.4292 5.12855 63.1243 4.87997C62.8194 4.63139 62.4349 4.5071 61.9709 4.5071C61.5036 4.5071 61.1158 4.63139 60.8075 4.87997C60.5026 5.12855 60.2756 5.45833 60.1264 5.86932C59.9806 6.27699 59.9077 6.72443 59.9077 7.21165C59.9077 7.70218 59.9806 8.15128 60.1264 8.55895C60.2756 8.96662 60.5026 9.29309 60.8075 9.53835C61.1158 9.78362 61.5036 9.90625 61.9709 9.90625ZM68.0574 3.36364L69.7427 6.33665L71.443 3.36364H73.0687L70.6873 7.18182L73.0886 11H71.4629L69.7427 8.14631L68.0275 11H66.3968L68.7733 7.18182L66.4267 3.36364H68.0574Z" fill="black"/>
</svg>
