<svg viewBox="0 0 32 12" fill="none" stroke-width="2" stroke="currentColor" aria-hidden="true">
  <path d="M1.4858 6.46591V11H-0.000710189V0.818182H1.46591V4.60653H1.56037C1.73935 4.19555 2.01278 3.86908 2.38068 3.62713C2.74858 3.38518 3.22917 3.2642 3.82244 3.2642C4.34612 3.2642 4.8035 3.37192 5.1946 3.58736C5.58902 3.80279 5.89394 4.12429 6.10938 4.55185C6.32812 4.97609 6.4375 5.50639 6.4375 6.14276V11H4.95099V6.32173C4.95099 5.7616 4.80682 5.32741 4.51847 5.01918C4.23011 4.70762 3.82907 4.55185 3.31534 4.55185C2.96402 4.55185 2.64915 4.62642 2.37074 4.77557C2.09564 4.92472 1.87855 5.14347 1.71946 5.43182C1.56368 5.71686 1.4858 6.06155 1.4858 6.46591ZM10.6435 11.169C10.1596 11.169 9.72206 11.0795 9.33097 10.9006C8.93987 10.7183 8.62997 10.4548 8.40128 10.1101C8.1759 9.76539 8.06321 9.3428 8.06321 8.84233C8.06321 8.41146 8.14607 8.05682 8.31179 7.77841C8.47751 7.5 8.70123 7.27959 8.98295 7.11719C9.26468 6.95478 9.57955 6.83215 9.92756 6.74929C10.2756 6.66643 10.6302 6.60346 10.9915 6.56037C11.4489 6.50734 11.8201 6.46425 12.1051 6.43111C12.3902 6.39465 12.5973 6.33665 12.7266 6.2571C12.8558 6.17756 12.9205 6.0483 12.9205 5.86932V5.83452C12.9205 5.40033 12.7978 5.06392 12.5526 4.82528C12.3106 4.58665 11.9493 4.46733 11.4688 4.46733C10.9683 4.46733 10.5739 4.57836 10.2855 4.80043C10.0005 5.01918 9.80327 5.26278 9.69389 5.53125L8.29688 5.21307C8.46259 4.74905 8.70455 4.37453 9.02273 4.08949C9.34422 3.80114 9.71378 3.59233 10.1314 3.46307C10.549 3.33049 10.9882 3.2642 11.4489 3.2642C11.7538 3.2642 12.0769 3.30066 12.4183 3.37358C12.763 3.44318 13.0845 3.57244 13.3828 3.76136C13.6844 3.95028 13.9313 4.22041 14.1236 4.57173C14.3158 4.91974 14.4119 5.37216 14.4119 5.92898V11H12.9602V9.95597H12.9006C12.8045 10.1482 12.6603 10.3371 12.468 10.5227C12.2758 10.7083 12.0289 10.8625 11.7273 10.9851C11.4257 11.1077 11.0644 11.169 10.6435 11.169ZM10.9666 9.97585C11.3776 9.97585 11.7289 9.89465 12.0206 9.73224C12.3156 9.56984 12.5393 9.35772 12.6918 9.09588C12.8475 8.83073 12.9254 8.54735 12.9254 8.24574V7.26136C12.8724 7.31439 12.7696 7.36411 12.6172 7.41051C12.468 7.4536 12.2973 7.49171 12.1051 7.52486C11.9129 7.55469 11.7256 7.58286 11.5433 7.60938C11.361 7.63258 11.2086 7.65246 11.0859 7.66903C10.7976 7.70549 10.5341 7.76681 10.2955 7.85298C10.0601 7.93916 9.87121 8.06345 9.72869 8.22585C9.58949 8.38494 9.51989 8.59706 9.51989 8.86222C9.51989 9.23011 9.65578 9.50852 9.92756 9.69744C10.1993 9.88305 10.5457 9.97585 10.9666 9.97585ZM17.8784 6.46591V11H16.3919V3.36364H17.8187V4.60653H17.9132C18.0888 4.20218 18.3639 3.87737 18.7385 3.6321C19.1163 3.38684 19.5919 3.2642 20.1653 3.2642C20.6857 3.2642 21.1414 3.37358 21.5325 3.59233C21.9236 3.80777 22.2269 4.12926 22.4423 4.55682C22.6577 4.98437 22.7654 5.51302 22.7654 6.14276V11H21.2789V6.32173C21.2789 5.76823 21.1348 5.3357 20.8464 5.02415C20.5581 4.70928 20.162 4.55185 19.6582 4.55185C19.3135 4.55185 19.0069 4.62642 18.7385 4.77557C18.4733 4.92472 18.2628 5.14347 18.1071 5.43182C17.9546 5.71686 17.8784 6.06155 17.8784 6.46591ZM27.6177 11.1491C27.0012 11.1491 26.4511 10.9917 25.9672 10.6768C25.4866 10.3587 25.1087 9.90625 24.8336 9.3196C24.5618 8.72964 24.426 8.02202 24.426 7.19673C24.426 6.37145 24.5635 5.66548 24.8386 5.07884C25.117 4.49219 25.4982 4.04309 25.9821 3.73153C26.466 3.41998 27.0145 3.2642 27.6277 3.2642C28.1016 3.2642 28.4828 3.34375 28.7711 3.50284C29.0628 3.65862 29.2882 3.84091 29.4473 4.04972C29.6097 4.25852 29.7356 4.44247 29.8251 4.60156H29.9146V0.818182H31.4011V11H29.9494V9.81179H29.8251C29.7356 9.9742 29.6064 10.1598 29.4373 10.3686C29.2716 10.5774 29.0429 10.7597 28.7512 10.9155C28.4596 11.0713 28.0817 11.1491 27.6177 11.1491ZM27.9458 9.88139C28.3734 9.88139 28.7347 9.7687 29.0297 9.54332C29.3279 9.31463 29.5533 8.99811 29.7058 8.59375C29.8616 8.18939 29.9395 7.71875 29.9395 7.18182C29.9395 6.65151 29.8632 6.1875 29.7108 5.78977C29.5583 5.39205 29.3346 5.08215 29.0396 4.86009C28.7446 4.63802 28.38 4.52699 27.9458 4.52699C27.4984 4.52699 27.1255 4.64299 26.8272 4.875C26.5289 5.10701 26.3036 5.42353 26.1511 5.82457C26.002 6.22562 25.9274 6.67803 25.9274 7.18182C25.9274 7.69223 26.0036 8.15128 26.1561 8.55895C26.3085 8.96662 26.5339 9.28977 26.8322 9.52841C27.1338 9.76373 27.505 9.88139 27.9458 9.88139Z" fill="black"/>
</svg>
