<svg viewBox="0 0 110 12" fill="none" stroke-width="2" stroke="currentColor" aria-hidden="true">
  <path d="M4.63352 3.36364V4.55682H0.318182V3.36364H4.63352ZM1.50142 11V2.47869C1.50142 2.00142 1.60582 1.60535 1.81463 1.29048C2.02344 0.972301 2.30019 0.735322 2.64489 0.579545C2.98958 0.420454 3.36411 0.340908 3.76847 0.340908C4.06676 0.340908 4.32197 0.365767 4.53409 0.415483C4.74621 0.461884 4.90365 0.504971 5.00639 0.544744L4.65838 1.74787C4.58878 1.72798 4.49929 1.70478 4.38991 1.67827C4.28054 1.64844 4.14796 1.63352 3.99219 1.63352C3.63092 1.63352 3.3724 1.72301 3.21662 1.90199C3.06416 2.08097 2.98793 2.33949 2.98793 2.67756V11H1.50142ZM9.0831 11.1541C8.36719 11.1541 7.74242 10.9901 7.20881 10.6619C6.67519 10.3338 6.26089 9.87476 5.96591 9.2848C5.67093 8.69484 5.52344 8.00544 5.52344 7.21662C5.52344 6.42448 5.67093 5.73177 5.96591 5.13849C6.26089 4.54522 6.67519 4.08452 7.20881 3.75639C7.74242 3.42827 8.36719 3.2642 9.0831 3.2642C9.79901 3.2642 10.4238 3.42827 10.9574 3.75639C11.491 4.08452 11.9053 4.54522 12.2003 5.13849C12.4953 5.73177 12.6428 6.42448 12.6428 7.21662C12.6428 8.00544 12.4953 8.69484 12.2003 9.2848C11.9053 9.87476 11.491 10.3338 10.9574 10.6619C10.4238 10.9901 9.79901 11.1541 9.0831 11.1541ZM9.08807 9.90625C9.55208 9.90625 9.93655 9.78362 10.2415 9.53835C10.5464 9.29309 10.7718 8.96662 10.9176 8.55895C11.0668 8.15128 11.1413 7.70218 11.1413 7.21165C11.1413 6.72443 11.0668 6.27699 10.9176 5.86932C10.7718 5.45833 10.5464 5.12855 10.2415 4.87997C9.93655 4.63139 9.55208 4.5071 9.08807 4.5071C8.62074 4.5071 8.23295 4.63139 7.92472 4.87997C7.61979 5.12855 7.39276 5.45833 7.24361 5.86932C7.09777 6.27699 7.02486 6.72443 7.02486 7.21165C7.02486 7.70218 7.09777 8.15128 7.24361 8.55895C7.39276 8.96662 7.61979 9.29309 7.92472 9.53835C8.23295 9.78362 8.62074 9.90625 9.08807 9.90625ZM15.7885 0.818182V11H14.302V0.818182H15.7885ZM20.647 11.1491C20.0305 11.1491 19.4804 10.9917 18.9964 10.6768C18.5159 10.3587 18.138 9.90625 17.8629 9.3196C17.5911 8.72964 17.4553 8.02202 17.4553 7.19673C17.4553 6.37145 17.5928 5.66548 17.8679 5.07884C18.1463 4.49219 18.5275 4.04309 19.0114 3.73153C19.4953 3.41998 20.0438 3.2642 20.657 3.2642C21.1309 3.2642 21.5121 3.34375 21.8004 3.50284C22.0921 3.65862 22.3175 3.84091 22.4766 4.04972C22.639 4.25852 22.7649 4.44247 22.8544 4.60156H22.9439V0.818182H24.4304V11H22.9787V9.81179H22.8544C22.7649 9.9742 22.6357 10.1598 22.4666 10.3686C22.3009 10.5774 22.0722 10.7597 21.7805 10.9155C21.4889 11.0713 21.111 11.1491 20.647 11.1491ZM20.9751 9.88139C21.4027 9.88139 21.764 9.7687 22.0589 9.54332C22.3572 9.31463 22.5826 8.99811 22.7351 8.59375C22.8909 8.18939 22.9688 7.71875 22.9688 7.18182C22.9688 6.65151 22.8925 6.1875 22.7401 5.78977C22.5876 5.39205 22.3639 5.08215 22.0689 4.86009C21.7739 4.63802 21.4093 4.52699 20.9751 4.52699C20.5277 4.52699 20.1548 4.64299 19.8565 4.875C19.5582 5.10701 19.3329 5.42353 19.1804 5.82457C19.0313 6.22562 18.9567 6.67803 18.9567 7.18182C18.9567 7.69223 19.0329 8.15128 19.1854 8.55895C19.3378 8.96662 19.5632 9.28977 19.8615 9.52841C20.1631 9.76373 20.5343 9.88139 20.9751 9.88139ZM29.8432 11.1541C29.0908 11.1541 28.4429 10.9934 27.8993 10.6719C27.3591 10.3471 26.9415 9.89134 26.6465 9.30469C26.3548 8.71473 26.209 8.02367 26.209 7.23153C26.209 6.44934 26.3548 5.75994 26.6465 5.16335C26.9415 4.56676 27.3525 4.10109 27.8794 3.76633C28.4097 3.43158 29.0295 3.2642 29.7388 3.2642C30.1697 3.2642 30.5873 3.33546 30.9917 3.47798C31.396 3.6205 31.7589 3.84422 32.0804 4.14915C32.4019 4.45407 32.6555 4.85014 32.8411 5.33736C33.0267 5.82126 33.1195 6.40956 33.1195 7.10227V7.62926H27.0492V6.51562H31.6628C31.6628 6.12453 31.5833 5.77817 31.4242 5.47656C31.2651 5.17164 31.0414 4.93134 30.753 4.75568C30.468 4.58002 30.1332 4.49219 29.7488 4.49219C29.3311 4.49219 28.9666 4.59493 28.655 4.80043C28.3468 5.0026 28.1081 5.26776 27.9391 5.59588C27.7734 5.92069 27.6905 6.27367 27.6905 6.65483V7.52486C27.6905 8.03527 27.78 8.46946 27.959 8.82741C28.1413 9.18537 28.3948 9.45881 28.7196 9.64773C29.0444 9.83333 29.4239 9.92614 29.8581 9.92614C30.1399 9.92614 30.3967 9.88636 30.6287 9.80682C30.8607 9.72396 31.0613 9.60133 31.2303 9.43892C31.3993 9.27652 31.5286 9.07599 31.6181 8.83736L33.025 9.09091C32.9123 9.50521 32.7102 9.86813 32.4185 10.1797C32.1301 10.4879 31.7672 10.7282 31.3297 10.9006C30.8955 11.0696 30.4 11.1541 29.8432 11.1541ZM34.7688 11V3.36364H36.2056V4.5767H36.2852C36.4244 4.16572 36.6696 3.84257 37.021 3.60724C37.3756 3.36861 37.7766 3.24929 38.2241 3.24929C38.3169 3.24929 38.4263 3.2526 38.5522 3.25923C38.6815 3.26586 38.7826 3.27415 38.8555 3.28409V4.70597C38.7958 4.68939 38.6897 4.67116 38.5373 4.65128C38.3848 4.62808 38.2324 4.61648 38.0799 4.61648C37.7286 4.61648 37.4154 4.69105 37.1403 4.8402C36.8685 4.98603 36.6531 5.18987 36.494 5.4517C36.3349 5.71023 36.2553 6.00521 36.2553 6.33665V11H34.7688ZM44.19 6.05327V7.34091H39.6758V6.05327H44.19ZM49.0298 11.1491C48.4134 11.1491 47.8632 10.9917 47.3793 10.6768C46.8987 10.3587 46.5208 9.90625 46.2457 9.3196C45.974 8.72964 45.8381 8.02202 45.8381 7.19673C45.8381 6.37145 45.9756 5.66548 46.2507 5.07884C46.5291 4.49219 46.9103 4.04309 47.3942 3.73153C47.8781 3.41998 48.4266 3.2642 49.0398 3.2642C49.5137 3.2642 49.8949 3.34375 50.1832 3.50284C50.4749 3.65862 50.7003 3.84091 50.8594 4.04972C51.0218 4.25852 51.1477 4.44247 51.2372 4.60156H51.3267V0.818182H52.8132V11H51.3615V9.81179H51.2372C51.1477 9.9742 51.0185 10.1598 50.8494 10.3686C50.6837 10.5774 50.455 10.7597 50.1634 10.9155C49.8717 11.0713 49.4938 11.1491 49.0298 11.1491ZM49.358 9.88139C49.7855 9.88139 50.1468 9.7687 50.4418 9.54332C50.7401 9.31463 50.9654 8.99811 51.1179 8.59375C51.2737 8.18939 51.3516 7.71875 51.3516 7.18182C51.3516 6.65151 51.2753 6.1875 51.1229 5.78977C50.9704 5.39205 50.7467 5.08215 50.4517 4.86009C50.1567 4.63802 49.7921 4.52699 49.358 4.52699C48.9105 4.52699 48.5376 4.64299 48.2393 4.875C47.9411 5.10701 47.7157 5.42353 47.5632 5.82457C47.4141 6.22562 47.3395 6.67803 47.3395 7.18182C47.3395 7.69223 47.4157 8.15128 47.5682 8.55895C47.7206 8.96662 47.946 9.28977 48.2443 9.52841C48.5459 9.76373 48.9171 9.88139 49.358 9.88139ZM58.1515 11.1541C57.4355 11.1541 56.8108 10.9901 56.2772 10.6619C55.7435 10.3338 55.3292 9.87476 55.0343 9.2848C54.7393 8.69484 54.5918 8.00544 54.5918 7.21662C54.5918 6.42448 54.7393 5.73177 55.0343 5.13849C55.3292 4.54522 55.7435 4.08452 56.2772 3.75639C56.8108 3.42827 57.4355 3.2642 58.1515 3.2642C58.8674 3.2642 59.4921 3.42827 60.0257 3.75639C60.5594 4.08452 60.9737 4.54522 61.2686 5.13849C61.5636 5.73177 61.7111 6.42448 61.7111 7.21662C61.7111 8.00544 61.5636 8.69484 61.2686 9.2848C60.9737 9.87476 60.5594 10.3338 60.0257 10.6619C59.4921 10.9901 58.8674 11.1541 58.1515 11.1541ZM58.1564 9.90625C58.6204 9.90625 59.0049 9.78362 59.3098 9.53835C59.6148 9.29309 59.8401 8.96662 59.986 8.55895C60.1351 8.15128 60.2097 7.70218 60.2097 7.21165C60.2097 6.72443 60.1351 6.27699 59.986 5.86932C59.8401 5.45833 59.6148 5.12855 59.3098 4.87997C59.0049 4.63139 58.6204 4.5071 58.1564 4.5071C57.6891 4.5071 57.3013 4.63139 56.9931 4.87997C56.6882 5.12855 56.4611 5.45833 56.312 5.86932C56.1661 6.27699 56.0932 6.72443 56.0932 7.21165C56.0932 7.70218 56.1661 8.15128 56.312 8.55895C56.4611 8.96662 56.6882 9.29309 56.9931 9.53835C57.3013 9.78362 57.6891 9.90625 58.1564 9.90625ZM64.7935 11L62.5463 3.36364H64.0826L65.579 8.97159H65.6536L67.155 3.36364H68.6912L70.1827 8.94673H70.2573L71.7438 3.36364H73.28L71.0378 11H69.5215L67.9703 5.48651H67.856L66.3049 11H64.7935ZM76.1772 6.46591V11H74.6907V3.36364H76.1175V4.60653H76.212C76.3877 4.20218 76.6628 3.87737 77.0373 3.6321C77.4151 3.38684 77.8907 3.2642 78.4641 3.2642C78.9845 3.2642 79.4402 3.37358 79.8313 3.59233C80.2224 3.80777 80.5257 4.12926 80.7411 4.55682C80.9566 4.98437 81.0643 5.51302 81.0643 6.14276V11H79.5778V6.32173C79.5778 5.76823 79.4336 5.3357 79.1452 5.02415C78.8569 4.70928 78.4608 4.55185 77.957 4.55185C77.6123 4.55185 77.3058 4.62642 77.0373 4.77557C76.7721 4.92472 76.5617 5.14347 76.4059 5.43182C76.2534 5.71686 76.1772 6.06155 76.1772 6.46591ZM84.5444 0.818182V11H83.0579V0.818182H84.5444ZM89.7608 11.1541C89.0449 11.1541 88.4202 10.9901 87.8865 10.6619C87.3529 10.3338 86.9386 9.87476 86.6436 9.2848C86.3487 8.69484 86.2012 8.00544 86.2012 7.21662C86.2012 6.42448 86.3487 5.73177 86.6436 5.13849C86.9386 4.54522 87.3529 4.08452 87.8865 3.75639C88.4202 3.42827 89.0449 3.2642 89.7608 3.2642C90.4767 3.2642 91.1015 3.42827 91.6351 3.75639C92.1687 4.08452 92.583 4.54522 92.878 5.13849C93.173 5.73177 93.3205 6.42448 93.3205 7.21662C93.3205 8.00544 93.173 8.69484 92.878 9.2848C92.583 9.87476 92.1687 10.3338 91.6351 10.6619C91.1015 10.9901 90.4767 11.1541 89.7608 11.1541ZM89.7658 9.90625C90.2298 9.90625 90.6143 9.78362 90.9192 9.53835C91.2241 9.29309 91.4495 8.96662 91.5953 8.55895C91.7445 8.15128 91.8191 7.70218 91.8191 7.21165C91.8191 6.72443 91.7445 6.27699 91.5953 5.86932C91.4495 5.45833 91.2241 5.12855 90.9192 4.87997C90.6143 4.63139 90.2298 4.5071 89.7658 4.5071C89.2985 4.5071 88.9107 4.63139 88.6025 4.87997C88.2975 5.12855 88.0705 5.45833 87.9213 5.86932C87.7755 6.27699 87.7026 6.72443 87.7026 7.21165C87.7026 7.70218 87.7755 8.15128 87.9213 8.55895C88.0705 8.96662 88.2975 9.29309 88.6025 9.53835C88.9107 9.78362 89.2985 9.90625 89.7658 9.90625ZM97.2021 11.169C96.7182 11.169 96.2807 11.0795 95.8896 10.9006C95.4985 10.7183 95.1886 10.4548 94.9599 10.1101C94.7345 9.76539 94.6218 9.3428 94.6218 8.84233C94.6218 8.41146 94.7047 8.05682 94.8704 7.77841C95.0361 7.5 95.2598 7.27959 95.5415 7.11719C95.8233 6.95478 96.1381 6.83215 96.4862 6.74929C96.8342 6.66643 97.1888 6.60346 97.5501 6.56037C98.0075 6.50734 98.3787 6.46425 98.6637 6.43111C98.9487 6.39465 99.1559 6.33665 99.2852 6.2571C99.4144 6.17756 99.479 6.0483 99.479 5.86932V5.83452C99.479 5.40033 99.3564 5.06392 99.1112 4.82528C98.8692 4.58665 98.5079 4.46733 98.0273 4.46733C97.5269 4.46733 97.1325 4.57836 96.8441 4.80043C96.5591 5.01918 96.3619 5.26278 96.2525 5.53125L94.8555 5.21307C95.0212 4.74905 95.2631 4.37453 95.5813 4.08949C95.9028 3.80114 96.2724 3.59233 96.69 3.46307C97.1076 3.33049 97.5468 3.2642 98.0075 3.2642C98.3124 3.2642 98.6355 3.30066 98.9769 3.37358C99.3216 3.44318 99.6431 3.57244 99.9414 3.76136C100.243 3.95028 100.49 4.22041 100.682 4.57173C100.874 4.91974 100.971 5.37216 100.971 5.92898V11H99.5188V9.95597H99.4592C99.363 10.1482 99.2189 10.3371 99.0266 10.5227C98.8344 10.7083 98.5875 10.8625 98.2859 10.9851C97.9843 11.1077 97.623 11.169 97.2021 11.169ZM97.5252 9.97585C97.9362 9.97585 98.2875 9.89465 98.5792 9.73224C98.8742 9.56984 99.0979 9.35772 99.2504 9.09588C99.4061 8.83073 99.484 8.54735 99.484 8.24574V7.26136C99.431 7.31439 99.3282 7.36411 99.1758 7.41051C99.0266 7.4536 98.8559 7.49171 98.6637 7.52486C98.4715 7.55469 98.2842 7.58286 98.1019 7.60938C97.9196 7.63258 97.7672 7.65246 97.6445 7.66903C97.3562 7.70549 97.0927 7.76681 96.854 7.85298C96.6187 7.93916 96.4298 8.06345 96.2873 8.22585C96.1481 8.38494 96.0785 8.59706 96.0785 8.86222C96.0785 9.23011 96.2144 9.50852 96.4862 9.69744C96.7579 9.88305 97.1043 9.97585 97.5252 9.97585ZM105.809 11.1491C105.193 11.1491 104.642 10.9917 104.159 10.6768C103.678 10.3587 103.3 9.90625 103.025 9.3196C102.753 8.72964 102.617 8.02202 102.617 7.19673C102.617 6.37145 102.755 5.66548 103.03 5.07884C103.308 4.49219 103.69 4.04309 104.173 3.73153C104.657 3.41998 105.206 3.2642 105.819 3.2642C106.293 3.2642 106.674 3.34375 106.963 3.50284C107.254 3.65862 107.48 3.84091 107.639 4.04972C107.801 4.25852 107.927 4.44247 108.017 4.60156H108.106V0.818182H109.593V11H108.141V9.81179H108.017C107.927 9.9742 107.798 10.1598 107.629 10.3686C107.463 10.5774 107.234 10.7597 106.943 10.9155C106.651 11.0713 106.273 11.1491 105.809 11.1491ZM106.137 9.88139C106.565 9.88139 106.926 9.7687 107.221 9.54332C107.519 9.31463 107.745 8.99811 107.897 8.59375C108.053 8.18939 108.131 7.71875 108.131 7.18182C108.131 6.65151 108.055 6.1875 107.902 5.78977C107.75 5.39205 107.526 5.08215 107.231 4.86009C106.936 4.63802 106.571 4.52699 106.137 4.52699C105.69 4.52699 105.317 4.64299 105.019 4.875C104.72 5.10701 104.495 5.42353 104.343 5.82457C104.193 6.22562 104.119 6.67803 104.119 7.18182C104.119 7.69223 104.195 8.15128 104.347 8.55895C104.5 8.96662 104.725 9.28977 105.024 9.52841C105.325 9.76373 105.696 9.88139 106.137 9.88139Z" fill="black"/>
</svg>
