<svg viewBox="0 0 24 12" fill="none" stroke-width="2" stroke="currentColor" aria-hidden="true">
  <path d="M0.118608 11V0.818182H1.60511V4.60156H1.6946C1.78078 4.44247 1.90507 4.25852 2.06747 4.04972C2.22988 3.84091 2.45526 3.65862 2.74361 3.50284C3.03196 3.34375 3.41312 3.2642 3.88707 3.2642C4.50355 3.2642 5.05374 3.41998 5.53764 3.73153C6.02154 4.04309 6.40104 4.49219 6.67614 5.07884C6.95455 5.66548 7.09375 6.37145 7.09375 7.19673C7.09375 8.02202 6.9562 8.72964 6.68111 9.3196C6.40601 9.90625 6.02817 10.3587 5.54759 10.6768C5.067 10.9917 4.51847 11.1491 3.90199 11.1491C3.43797 11.1491 3.05848 11.0713 2.76349 10.9155C2.47183 10.7597 2.24313 10.5774 2.07741 10.3686C1.9117 10.1598 1.78409 9.9742 1.6946 9.81179H1.57031V11H0.118608ZM1.57528 7.18182C1.57528 7.71875 1.65317 8.18939 1.80895 8.59375C1.96473 8.99811 2.1901 9.31463 2.48509 9.54332C2.78007 9.7687 3.14134 9.88139 3.56889 9.88139C4.01302 9.88139 4.38423 9.76373 4.68253 9.52841C4.98082 9.28977 5.2062 8.96662 5.35866 8.55895C5.51444 8.15128 5.59233 7.69223 5.59233 7.18182C5.59233 6.67803 5.5161 6.22562 5.36364 5.82457C5.21449 5.42353 4.98911 5.10701 4.6875 4.875C4.3892 4.64299 4.01634 4.52699 3.56889 4.52699C3.13802 4.52699 2.77344 4.63802 2.47514 4.86009C2.18016 5.08215 1.95644 5.39205 1.80398 5.78977C1.65152 6.1875 1.57528 6.65151 1.57528 7.18182ZM11.9796 11.1541C11.2637 11.1541 10.6389 10.9901 10.1053 10.6619C9.57167 10.3338 9.15737 9.87476 8.86239 9.2848C8.56741 8.69484 8.41992 8.00544 8.41992 7.21662C8.41992 6.42448 8.56741 5.73177 8.86239 5.13849C9.15737 4.54522 9.57167 4.08452 10.1053 3.75639C10.6389 3.42827 11.2637 3.2642 11.9796 3.2642C12.6955 3.2642 13.3203 3.42827 13.8539 3.75639C14.3875 4.08452 14.8018 4.54522 15.0968 5.13849C15.3917 5.73177 15.5392 6.42448 15.5392 7.21662C15.5392 8.00544 15.3917 8.69484 15.0968 9.2848C14.8018 9.87476 14.3875 10.3338 13.8539 10.6619C13.3203 10.9901 12.6955 11.1541 11.9796 11.1541ZM11.9846 9.90625C12.4486 9.90625 12.833 9.78362 13.138 9.53835C13.4429 9.29309 13.6683 8.96662 13.8141 8.55895C13.9632 8.15128 14.0378 7.70218 14.0378 7.21165C14.0378 6.72443 13.9632 6.27699 13.8141 5.86932C13.6683 5.45833 13.4429 5.12855 13.138 4.87997C12.833 4.63139 12.4486 4.5071 11.9846 4.5071C11.5172 4.5071 11.1294 4.63139 10.8212 4.87997C10.5163 5.12855 10.2892 5.45833 10.1401 5.86932C9.99426 6.27699 9.92134 6.72443 9.92134 7.21165C9.92134 7.70218 9.99426 8.15128 10.1401 8.55895C10.2892 8.96662 10.5163 9.29309 10.8212 9.53835C11.1294 9.78362 11.5172 9.90625 11.9846 9.90625ZM18.071 3.36364L19.7564 6.33665L21.4567 3.36364H23.0824L20.701 7.18182L23.1023 11H21.4766L19.7564 8.14631L18.0412 11H16.4105L18.7869 7.18182L16.4403 3.36364H18.071Z" fill="black"/>
</svg>
