<svg viewBox="0 0 87 12" fill="none" stroke-width="2" stroke="currentColor" aria-hidden="true">
  <path d="M4.63352 3.36364V4.55682H0.318182V3.36364H4.63352ZM1.50142 11V2.47869C1.50142 2.00142 1.60582 1.60535 1.81463 1.29048C2.02344 0.972301 2.30019 0.735322 2.64489 0.579545C2.98958 0.420454 3.36411 0.340908 3.76847 0.340908C4.06676 0.340908 4.32197 0.365767 4.53409 0.415483C4.74621 0.461884 4.90365 0.504971 5.00639 0.544744L4.65838 1.74787C4.58878 1.72798 4.49929 1.70478 4.38991 1.67827C4.28054 1.64844 4.14796 1.63352 3.99219 1.63352C3.63092 1.63352 3.3724 1.72301 3.21662 1.90199C3.06416 2.08097 2.98793 2.33949 2.98793 2.67756V11H1.50142ZM6.16726 11V3.36364H7.65376V11H6.16726ZM6.91797 2.18537C6.65945 2.18537 6.43738 2.09919 6.25178 1.92685C6.06948 1.75118 5.97834 1.54238 5.97834 1.30043C5.97834 1.05516 6.06948 0.846354 6.25178 0.674005C6.43738 0.498342 6.65945 0.410511 6.91797 0.410511C7.17649 0.410511 7.3969 0.498342 7.57919 0.674005C7.7648 0.846354 7.8576 1.05516 7.8576 1.30043C7.8576 1.54238 7.7648 1.75118 7.57919 1.92685C7.3969 2.09919 7.17649 2.18537 6.91797 2.18537ZM11.1401 0.818182V11H9.65359V0.818182H11.1401ZM16.4311 11.1541C15.6787 11.1541 15.0308 10.9934 14.4872 10.6719C13.947 10.3471 13.5294 9.89134 13.2344 9.30469C12.9427 8.71473 12.7969 8.02367 12.7969 7.23153C12.7969 6.44934 12.9427 5.75994 13.2344 5.16335C13.5294 4.56676 13.9403 4.10109 14.4673 3.76633C14.9976 3.43158 15.6174 3.2642 16.3267 3.2642C16.7576 3.2642 17.1752 3.33546 17.5795 3.47798C17.9839 3.6205 18.3468 3.84422 18.6683 4.14915C18.9898 4.45407 19.2434 4.85014 19.429 5.33736C19.6146 5.82126 19.7074 6.40956 19.7074 7.10227V7.62926H13.6371V6.51562H18.2507C18.2507 6.12453 18.1712 5.77817 18.0121 5.47656C17.853 5.17164 17.6293 4.93134 17.3409 4.75568C17.0559 4.58002 16.7211 4.49219 16.3366 4.49219C15.919 4.49219 15.5545 4.59493 15.2429 4.80043C14.9347 5.0026 14.696 5.26776 14.527 5.59588C14.3613 5.92069 14.2784 6.27367 14.2784 6.65483V7.52486C14.2784 8.03527 14.3679 8.46946 14.5469 8.82741C14.7292 9.18537 14.9827 9.45881 15.3075 9.64773C15.6323 9.83333 16.0118 9.92614 16.446 9.92614C16.7277 9.92614 16.9846 9.88636 17.2166 9.80682C17.4486 9.72396 17.6491 9.60133 17.8182 9.43892C17.9872 9.27652 18.1165 9.07599 18.206 8.83736L19.6129 9.09091C19.5002 9.50521 19.2981 9.86813 19.0064 10.1797C18.718 10.4879 18.3551 10.7282 17.9176 10.9006C17.4834 11.0696 16.9879 11.1541 16.4311 11.1541ZM25.856 6.05327V7.34091H21.3418V6.05327H25.856ZM31.0538 11.1541C30.3147 11.1541 29.6783 10.9867 29.1447 10.652C28.6144 10.3139 28.2067 9.84825 27.9217 9.25497C27.6367 8.66169 27.4941 7.98224 27.4941 7.21662C27.4941 6.44105 27.64 5.75663 27.9316 5.16335C28.2233 4.56676 28.6343 4.10109 29.1646 3.76633C29.6949 3.43158 30.3197 3.2642 31.0389 3.2642C31.6189 3.2642 32.1359 3.37192 32.59 3.58736C33.0441 3.79948 33.4103 4.09777 33.6887 4.48224C33.9705 4.86671 34.1378 5.31581 34.1909 5.82955H32.7441C32.6646 5.47159 32.4823 5.16335 32.1973 4.90483C31.9155 4.64631 31.5377 4.51705 31.0637 4.51705C30.6494 4.51705 30.2865 4.62642 29.975 4.84517C29.6667 5.06061 29.4264 5.36884 29.2541 5.76989C29.0817 6.16761 28.9956 6.63826 28.9956 7.18182C28.9956 7.73864 29.0801 8.21922 29.2491 8.62358C29.4181 9.02794 29.6568 9.34115 29.965 9.56321C30.2766 9.78527 30.6428 9.89631 31.0637 9.89631C31.3455 9.89631 31.6007 9.84493 31.8294 9.74219C32.0614 9.63613 32.2553 9.48532 32.411 9.28977C32.5701 9.09422 32.6812 8.8589 32.7441 8.58381H34.1909C34.1378 9.07765 33.9771 9.51847 33.7086 9.90625C33.4402 10.294 33.0806 10.599 32.6298 10.821C32.1824 11.0431 31.657 11.1541 31.0538 11.1541ZM37.267 6.46591V11H35.7805V0.818182H37.2472V4.60653H37.3416C37.5206 4.19555 37.794 3.86908 38.1619 3.62713C38.5298 3.38518 39.0104 3.2642 39.6037 3.2642C40.1274 3.2642 40.5848 3.37192 40.9759 3.58736C41.3703 3.80279 41.6752 4.12429 41.8906 4.55185C42.1094 4.97609 42.2188 5.50639 42.2188 6.14276V11H40.7322V6.32173C40.7322 5.7616 40.5881 5.32741 40.2997 5.01918C40.0114 4.70762 39.6103 4.55185 39.0966 4.55185C38.7453 4.55185 38.4304 4.62642 38.152 4.77557C37.8769 4.92472 37.6598 5.14347 37.5007 5.43182C37.3449 5.71686 37.267 6.06155 37.267 6.46591ZM47.4936 11.1541C46.7412 11.1541 46.0933 10.9934 45.5497 10.6719C45.0095 10.3471 44.5919 9.89134 44.2969 9.30469C44.0052 8.71473 43.8594 8.02367 43.8594 7.23153C43.8594 6.44934 44.0052 5.75994 44.2969 5.16335C44.5919 4.56676 45.0028 4.10109 45.5298 3.76633C46.0601 3.43158 46.6799 3.2642 47.3892 3.2642C47.8201 3.2642 48.2377 3.33546 48.642 3.47798C49.0464 3.6205 49.4093 3.84422 49.7308 4.14915C50.0523 4.45407 50.3059 4.85014 50.4915 5.33736C50.6771 5.82126 50.7699 6.40956 50.7699 7.10227V7.62926H44.6996V6.51562H49.3132C49.3132 6.12453 49.2337 5.77817 49.0746 5.47656C48.9155 5.17164 48.6918 4.93134 48.4034 4.75568C48.1184 4.58002 47.7836 4.49219 47.3991 4.49219C46.9815 4.49219 46.617 4.59493 46.3054 4.80043C45.9972 5.0026 45.7585 5.26776 45.5895 5.59588C45.4238 5.92069 45.3409 6.27367 45.3409 6.65483V7.52486C45.3409 8.03527 45.4304 8.46946 45.6094 8.82741C45.7917 9.18537 46.0452 9.45881 46.37 9.64773C46.6948 9.83333 47.0743 9.92614 47.5085 9.92614C47.7902 9.92614 48.0471 9.88636 48.2791 9.80682C48.5111 9.72396 48.7116 9.60133 48.8807 9.43892C49.0497 9.27652 49.179 9.07599 49.2685 8.83736L50.6754 9.09091C50.5627 9.50521 50.3606 9.86813 50.0689 10.1797C49.7805 10.4879 49.4176 10.7282 48.9801 10.9006C48.5459 11.0696 48.0504 11.1541 47.4936 11.1541ZM55.6358 11.1541C54.8967 11.1541 54.2604 10.9867 53.7267 10.652C53.1964 10.3139 52.7888 9.84825 52.5037 9.25497C52.2187 8.66169 52.0762 7.98224 52.0762 7.21662C52.0762 6.44105 52.222 5.75663 52.5137 5.16335C52.8053 4.56676 53.2163 4.10109 53.7466 3.76633C54.2769 3.43158 54.9017 3.2642 55.6209 3.2642C56.2009 3.2642 56.718 3.37192 57.1721 3.58736C57.6261 3.79948 57.9924 4.09777 58.2708 4.48224C58.5525 4.86671 58.7199 5.31581 58.7729 5.82955H57.3262C57.2466 5.47159 57.0643 5.16335 56.7793 4.90483C56.4976 4.64631 56.1197 4.51705 55.6458 4.51705C55.2315 4.51705 54.8685 4.62642 54.557 4.84517C54.2488 5.06061 54.0085 5.36884 53.8361 5.76989C53.6638 6.16761 53.5776 6.63826 53.5776 7.18182C53.5776 7.73864 53.6621 8.21922 53.8311 8.62358C54.0002 9.02794 54.2388 9.34115 54.5471 9.56321C54.8586 9.78527 55.2248 9.89631 55.6458 9.89631C55.9275 9.89631 56.1827 9.84493 56.4114 9.74219C56.6434 9.63613 56.8373 9.48532 56.9931 9.28977C57.1522 9.09422 57.2632 8.8589 57.3262 8.58381H58.7729C58.7199 9.07765 58.5591 9.51847 58.2907 9.90625C58.0222 10.294 57.6626 10.599 57.2118 10.821C56.7644 11.0431 56.2391 11.1541 55.6358 11.1541ZM61.7298 8.4098L61.7198 6.59517H61.9783L65.021 3.36364H66.8008L63.3306 7.04261H63.0969L61.7298 8.4098ZM60.3626 11V0.818182H61.8491V11H60.3626ZM65.185 11L62.4506 7.37074L63.4748 6.33168L67.0096 11H65.185ZM72.1353 6.05327V7.34091H67.6211V6.05327H72.1353ZM77.6413 11.169C76.8558 11.1657 76.1847 10.9586 75.6278 10.5476C75.071 10.1366 74.6451 9.53835 74.3501 8.75284C74.0552 7.96733 73.9077 7.02107 73.9077 5.91406C73.9077 4.81037 74.0552 3.86742 74.3501 3.08523C74.6484 2.30303 75.076 1.70644 75.6328 1.29545C76.1929 0.884469 76.8625 0.678977 77.6413 0.678977C78.4202 0.678977 79.0881 0.886126 79.6449 1.30043C80.2017 1.71141 80.6276 2.308 80.9226 3.0902C81.2209 3.86908 81.37 4.81037 81.37 5.91406C81.37 7.02438 81.2225 7.9723 80.9276 8.75781C80.6326 9.54001 80.2067 10.1383 79.6499 10.5526C79.093 10.9635 78.4235 11.169 77.6413 11.169ZM77.6413 9.84162C78.3307 9.84162 78.8693 9.50521 79.2571 8.83239C79.6482 8.15956 79.8438 7.18679 79.8438 5.91406C79.8438 5.06889 79.7543 4.35464 79.5753 3.77131C79.3996 3.18466 79.1461 2.74053 78.8146 2.43892C78.4865 2.134 78.0954 1.98153 77.6413 1.98153C76.9553 1.98153 76.4167 2.3196 76.0256 2.99574C75.6345 3.67187 75.4373 4.64465 75.4339 5.91406C75.4339 6.76255 75.5218 7.48011 75.6974 8.06676C75.8764 8.65009 76.13 9.09257 76.4581 9.39418C76.7862 9.69247 77.1806 9.84162 77.6413 9.84162ZM86.9966 0.818182V11H85.4554V2.35938H85.3958L82.9597 3.95028V2.47869L85.5002 0.818182H86.9966Z" fill="black"/>
</svg>
