<svg viewBox="0 0 103 14" fill="none" stroke-width="2" stroke="currentColor" aria-hidden="true">
  <path d="M4.63352 3.36364V4.55682H0.318182V3.36364H4.63352ZM1.50142 11V2.47869C1.50142 2.00142 1.60582 1.60535 1.81463 1.29048C2.02344 0.972301 2.30019 0.735322 2.64489 0.579545C2.98958 0.420454 3.36411 0.340908 3.76847 0.340908C4.06676 0.340908 4.32197 0.365767 4.53409 0.415483C4.74621 0.461884 4.90365 0.504971 5.00639 0.544744L4.65838 1.74787C4.58878 1.72798 4.49929 1.70478 4.38991 1.67827C4.28054 1.64844 4.14796 1.63352 3.99219 1.63352C3.63092 1.63352 3.3724 1.72301 3.21662 1.90199C3.06416 2.08097 2.98793 2.33949 2.98793 2.67756V11H1.50142ZM9.0831 11.1541C8.36719 11.1541 7.74242 10.9901 7.20881 10.6619C6.67519 10.3338 6.26089 9.87476 5.96591 9.2848C5.67093 8.69484 5.52344 8.00544 5.52344 7.21662C5.52344 6.42448 5.67093 5.73177 5.96591 5.13849C6.26089 4.54522 6.67519 4.08452 7.20881 3.75639C7.74242 3.42827 8.36719 3.2642 9.0831 3.2642C9.79901 3.2642 10.4238 3.42827 10.9574 3.75639C11.491 4.08452 11.9053 4.54522 12.2003 5.13849C12.4953 5.73177 12.6428 6.42448 12.6428 7.21662C12.6428 8.00544 12.4953 8.69484 12.2003 9.2848C11.9053 9.87476 11.491 10.3338 10.9574 10.6619C10.4238 10.9901 9.79901 11.1541 9.0831 11.1541ZM9.08807 9.90625C9.55208 9.90625 9.93655 9.78362 10.2415 9.53835C10.5464 9.29309 10.7718 8.96662 10.9176 8.55895C11.0668 8.15128 11.1413 7.70218 11.1413 7.21165C11.1413 6.72443 11.0668 6.27699 10.9176 5.86932C10.7718 5.45833 10.5464 5.12855 10.2415 4.87997C9.93655 4.63139 9.55208 4.5071 9.08807 4.5071C8.62074 4.5071 8.23295 4.63139 7.92472 4.87997C7.61979 5.12855 7.39276 5.45833 7.24361 5.86932C7.09777 6.27699 7.02486 6.72443 7.02486 7.21165C7.02486 7.70218 7.09777 8.15128 7.24361 8.55895C7.39276 8.96662 7.61979 9.29309 7.92472 9.53835C8.23295 9.78362 8.62074 9.90625 9.08807 9.90625ZM15.7885 0.818182V11H14.302V0.818182H15.7885ZM20.647 11.1491C20.0305 11.1491 19.4804 10.9917 18.9964 10.6768C18.5159 10.3587 18.138 9.90625 17.8629 9.3196C17.5911 8.72964 17.4553 8.02202 17.4553 7.19673C17.4553 6.37145 17.5928 5.66548 17.8679 5.07884C18.1463 4.49219 18.5275 4.04309 19.0114 3.73153C19.4953 3.41998 20.0438 3.2642 20.657 3.2642C21.1309 3.2642 21.5121 3.34375 21.8004 3.50284C22.0921 3.65862 22.3175 3.84091 22.4766 4.04972C22.639 4.25852 22.7649 4.44247 22.8544 4.60156H22.9439V0.818182H24.4304V11H22.9787V9.81179H22.8544C22.7649 9.9742 22.6357 10.1598 22.4666 10.3686C22.3009 10.5774 22.0722 10.7597 21.7805 10.9155C21.4889 11.0713 21.111 11.1491 20.647 11.1491ZM20.9751 9.88139C21.4027 9.88139 21.764 9.7687 22.0589 9.54332C22.3572 9.31463 22.5826 8.99811 22.7351 8.59375C22.8909 8.18939 22.9688 7.71875 22.9688 7.18182C22.9688 6.65151 22.8925 6.1875 22.7401 5.78977C22.5876 5.39205 22.3639 5.08215 22.0689 4.86009C21.7739 4.63802 21.4093 4.52699 20.9751 4.52699C20.5277 4.52699 20.1548 4.64299 19.8565 4.875C19.5582 5.10701 19.3329 5.42353 19.1804 5.82457C19.0313 6.22562 18.9567 6.67803 18.9567 7.18182C18.9567 7.69223 19.0329 8.15128 19.1854 8.55895C19.3378 8.96662 19.5632 9.28977 19.8615 9.52841C20.1631 9.76373 20.5343 9.88139 20.9751 9.88139ZM29.8432 11.1541C29.0908 11.1541 28.4429 10.9934 27.8993 10.6719C27.3591 10.3471 26.9415 9.89134 26.6465 9.30469C26.3548 8.71473 26.209 8.02367 26.209 7.23153C26.209 6.44934 26.3548 5.75994 26.6465 5.16335C26.9415 4.56676 27.3525 4.10109 27.8794 3.76633C28.4097 3.43158 29.0295 3.2642 29.7388 3.2642C30.1697 3.2642 30.5873 3.33546 30.9917 3.47798C31.396 3.6205 31.7589 3.84422 32.0804 4.14915C32.4019 4.45407 32.6555 4.85014 32.8411 5.33736C33.0267 5.82126 33.1195 6.40956 33.1195 7.10227V7.62926H27.0492V6.51562H31.6628C31.6628 6.12453 31.5833 5.77817 31.4242 5.47656C31.2651 5.17164 31.0414 4.93134 30.753 4.75568C30.468 4.58002 30.1332 4.49219 29.7488 4.49219C29.3311 4.49219 28.9666 4.59493 28.655 4.80043C28.3468 5.0026 28.1081 5.26776 27.9391 5.59588C27.7734 5.92069 27.6905 6.27367 27.6905 6.65483V7.52486C27.6905 8.03527 27.78 8.46946 27.959 8.82741C28.1413 9.18537 28.3948 9.45881 28.7196 9.64773C29.0444 9.83333 29.4239 9.92614 29.8581 9.92614C30.1399 9.92614 30.3967 9.88636 30.6287 9.80682C30.8607 9.72396 31.0613 9.60133 31.2303 9.43892C31.3993 9.27652 31.5286 9.07599 31.6181 8.83736L33.025 9.09091C32.9123 9.50521 32.7102 9.86813 32.4185 10.1797C32.1301 10.4879 31.7672 10.7282 31.3297 10.9006C30.8955 11.0696 30.4 11.1541 29.8432 11.1541ZM34.7688 11V3.36364H36.2056V4.5767H36.2852C36.4244 4.16572 36.6696 3.84257 37.021 3.60724C37.3756 3.36861 37.7766 3.24929 38.2241 3.24929C38.3169 3.24929 38.4263 3.2526 38.5522 3.25923C38.6815 3.26586 38.7826 3.27415 38.8555 3.28409V4.70597C38.7958 4.68939 38.6897 4.67116 38.5373 4.65128C38.3848 4.62808 38.2324 4.61648 38.0799 4.61648C37.7286 4.61648 37.4154 4.69105 37.1403 4.8402C36.8685 4.98603 36.6531 5.18987 36.494 5.4517C36.3349 5.71023 36.2553 6.00521 36.2553 6.33665V11H34.7688ZM44.19 6.05327V7.34091H39.6758V6.05327H44.19ZM51.3267 13.8636V9.81179H51.2372C51.1477 9.9742 51.0185 10.1598 50.8494 10.3686C50.6837 10.5774 50.455 10.7597 50.1634 10.9155C49.8717 11.0713 49.4938 11.1491 49.0298 11.1491C48.4134 11.1491 47.8632 10.9917 47.3793 10.6768C46.8987 10.3587 46.5208 9.90625 46.2457 9.3196C45.974 8.72964 45.8381 8.02202 45.8381 7.19673C45.8381 6.37145 45.9756 5.66548 46.2507 5.07884C46.5291 4.49219 46.9103 4.04309 47.3942 3.73153C47.8781 3.41998 48.4266 3.2642 49.0398 3.2642C49.5137 3.2642 49.8949 3.34375 50.1832 3.50284C50.4749 3.65862 50.7003 3.84091 50.8594 4.04972C51.0218 4.25852 51.1477 4.44247 51.2372 4.60156H51.3615V3.36364H52.8132V13.8636H51.3267ZM49.358 9.88139C49.7855 9.88139 50.1468 9.7687 50.4418 9.54332C50.7401 9.31463 50.9654 8.99811 51.1179 8.59375C51.2737 8.18939 51.3516 7.71875 51.3516 7.18182C51.3516 6.65151 51.2753 6.1875 51.1229 5.78977C50.9704 5.39205 50.7467 5.08215 50.4517 4.86009C50.1567 4.63802 49.7921 4.52699 49.358 4.52699C48.9105 4.52699 48.5376 4.64299 48.2393 4.875C47.9411 5.10701 47.7157 5.42353 47.5632 5.82457C47.4141 6.22562 47.3395 6.67803 47.3395 7.18182C47.3395 7.69223 47.4157 8.15128 47.5682 8.55895C47.7206 8.96662 47.946 9.28977 48.2443 9.52841C48.5459 9.76373 48.9171 9.88139 49.358 9.88139ZM59.6491 7.8331V3.36364H61.1406V11H59.679V9.67756H59.5994C59.4238 10.0852 59.142 10.425 58.7543 10.6967C58.3698 10.9652 57.8909 11.0994 57.3175 11.0994C56.8269 11.0994 56.3928 10.9917 56.0149 10.7763C55.6404 10.5575 55.3454 10.2344 55.13 9.80682C54.9179 9.37926 54.8118 8.85062 54.8118 8.22088V3.36364H56.2983V8.0419C56.2983 8.56226 56.4425 8.97656 56.7308 9.2848C57.0192 9.59304 57.3937 9.74716 57.8544 9.74716C58.1328 9.74716 58.4096 9.67756 58.6847 9.53835C58.9631 9.39915 59.1934 9.18868 59.3757 8.90696C59.5613 8.62524 59.6525 8.26728 59.6491 7.8331ZM66.4292 11.1541C65.6768 11.1541 65.0288 10.9934 64.4853 10.6719C63.945 10.3471 63.5274 9.89134 63.2324 9.30469C62.9408 8.71473 62.7949 8.02367 62.7949 7.23153C62.7949 6.44934 62.9408 5.75994 63.2324 5.16335C63.5274 4.56676 63.9384 4.10109 64.4654 3.76633C64.9957 3.43158 65.6155 3.2642 66.3248 3.2642C66.7556 3.2642 67.1732 3.33546 67.5776 3.47798C67.9819 3.6205 68.3449 3.84422 68.6664 4.14915C68.9879 4.45407 69.2414 4.85014 69.427 5.33736C69.6126 5.82126 69.7054 6.40956 69.7054 7.10227V7.62926H63.6351V6.51562H68.2488C68.2488 6.12453 68.1692 5.77817 68.0101 5.47656C67.851 5.17164 67.6273 4.93134 67.339 4.75568C67.0539 4.58002 66.7192 4.49219 66.3347 4.49219C65.9171 4.49219 65.5525 4.59493 65.2409 4.80043C64.9327 5.0026 64.6941 5.26776 64.525 5.59588C64.3593 5.92069 64.2765 6.27367 64.2765 6.65483V7.52486C64.2765 8.03527 64.3659 8.46946 64.5449 8.82741C64.7272 9.18537 64.9808 9.45881 65.3056 9.64773C65.6304 9.83333 66.0099 9.92614 66.4441 9.92614C66.7258 9.92614 66.9827 9.88636 67.2147 9.80682C67.4467 9.72396 67.6472 9.60133 67.8162 9.43892C67.9853 9.27652 68.1145 9.07599 68.204 8.83736L69.611 9.09091C69.4983 9.50521 69.2961 9.86813 69.0044 10.1797C68.7161 10.4879 68.3532 10.7282 67.9157 10.9006C67.4815 11.0696 66.986 11.1541 66.4292 11.1541ZM77.0771 5.22798L75.7298 5.46662C75.6734 5.29427 75.5839 5.13021 75.4613 4.97443C75.342 4.81865 75.1796 4.69105 74.9741 4.59162C74.7686 4.49219 74.5117 4.44247 74.2035 4.44247C73.7826 4.44247 73.4312 4.53693 73.1495 4.72585C72.8678 4.91146 72.7269 5.15175 72.7269 5.44673C72.7269 5.70194 72.8214 5.90743 73.0103 6.06321C73.1992 6.21899 73.5041 6.34659 73.9251 6.44602L75.1381 6.72443C75.8408 6.88684 76.3645 7.13707 76.7092 7.47514C77.0539 7.81321 77.2262 8.25237 77.2262 8.79261C77.2262 9.25 77.0936 9.65767 76.8285 10.0156C76.5666 10.3703 76.2004 10.6487 75.7298 10.8509C75.2624 11.053 74.7205 11.1541 74.104 11.1541C73.2489 11.1541 72.5513 10.9718 72.011 10.6072C71.4708 10.2393 71.1393 9.71733 71.0167 9.04119L72.4535 8.82244C72.543 9.19697 72.7269 9.48035 73.0053 9.67259C73.2837 9.86151 73.6467 9.95597 74.0941 9.95597C74.5813 9.95597 74.9708 9.85488 75.2624 9.6527C75.5541 9.44721 75.6999 9.19697 75.6999 8.90199C75.6999 8.66335 75.6104 8.46283 75.4315 8.30043C75.2558 8.13802 74.9857 8.01539 74.6211 7.93253L73.3285 7.64915C72.6159 7.48674 72.0889 7.22822 71.7475 6.87358C71.4094 6.51894 71.2404 6.06984 71.2404 5.52628C71.2404 5.07552 71.3664 4.68111 71.6183 4.34304C71.8701 4.00497 72.2182 3.74148 72.6623 3.55256C73.1064 3.36032 73.6152 3.2642 74.1886 3.2642C75.0138 3.2642 75.6635 3.44318 76.1374 3.80114C76.6114 4.15578 76.9246 4.63139 77.0771 5.22798ZM82.4252 3.36364V4.55682H78.2541V3.36364H82.4252ZM79.3727 1.53409H80.8592V8.75781C80.8592 9.04616 80.9023 9.26326 80.9885 9.40909C81.0746 9.55161 81.1857 9.64938 81.3216 9.70241C81.4608 9.75213 81.6116 9.77699 81.774 9.77699C81.8933 9.77699 81.9977 9.7687 82.0872 9.75213C82.1767 9.73556 82.2463 9.7223 82.296 9.71236L82.5645 10.9403C82.4783 10.9735 82.3556 11.0066 82.1966 11.0398C82.0375 11.0762 81.8386 11.0961 81.6 11.0994C81.2089 11.1061 80.8443 11.0365 80.5062 10.8906C80.1681 10.7448 79.8947 10.5194 79.6859 10.2145C79.4771 9.90956 79.3727 9.52675 79.3727 9.06605V1.53409ZM84.0696 11V3.36364H85.5561V11H84.0696ZM84.8203 2.18537C84.5618 2.18537 84.3397 2.09919 84.1541 1.92685C83.9718 1.75118 83.8807 1.54238 83.8807 1.30043C83.8807 1.05516 83.9718 0.846354 84.1541 0.674005C84.3397 0.498342 84.5618 0.410511 84.8203 0.410511C85.0788 0.410511 85.2992 0.498342 85.4815 0.674005C85.6671 0.846354 85.7599 1.05516 85.7599 1.30043C85.7599 1.54238 85.6671 1.75118 85.4815 1.92685C85.2992 2.09919 85.0788 2.18537 84.8203 2.18537ZM90.7725 11.1541C90.0566 11.1541 89.4319 10.9901 88.8983 10.6619C88.3646 10.3338 87.9503 9.87476 87.6554 9.2848C87.3604 8.69484 87.2129 8.00544 87.2129 7.21662C87.2129 6.42448 87.3604 5.73177 87.6554 5.13849C87.9503 4.54522 88.3646 4.08452 88.8983 3.75639C89.4319 3.42827 90.0566 3.2642 90.7725 3.2642C91.4885 3.2642 92.1132 3.42827 92.6468 3.75639C93.1805 4.08452 93.5948 4.54522 93.8897 5.13849C94.1847 5.73177 94.3322 6.42448 94.3322 7.21662C94.3322 8.00544 94.1847 8.69484 93.8897 9.2848C93.5948 9.87476 93.1805 10.3338 92.6468 10.6619C92.1132 10.9901 91.4885 11.1541 90.7725 11.1541ZM90.7775 9.90625C91.2415 9.90625 91.626 9.78362 91.9309 9.53835C92.2359 9.29309 92.4612 8.96662 92.6071 8.55895C92.7562 8.15128 92.8308 7.70218 92.8308 7.21165C92.8308 6.72443 92.7562 6.27699 92.6071 5.86932C92.4612 5.45833 92.2359 5.12855 91.9309 4.87997C91.626 4.63139 91.2415 4.5071 90.7775 4.5071C90.3102 4.5071 89.9224 4.63139 89.6142 4.87997C89.3092 5.12855 89.0822 5.45833 88.9331 5.86932C88.7872 6.27699 88.7143 6.72443 88.7143 7.21165C88.7143 7.70218 88.7872 8.15128 88.9331 8.55895C89.0822 8.96662 89.3092 9.29309 89.6142 9.53835C89.9224 9.78362 90.3102 9.90625 90.7775 9.90625ZM97.478 6.46591V11H95.9915V3.36364H97.4183V4.60653H97.5128C97.6884 4.20218 97.9635 3.87737 98.3381 3.6321C98.7159 3.38684 99.1915 3.2642 99.7649 3.2642C100.285 3.2642 100.741 3.37358 101.132 3.59233C101.523 3.80777 101.826 4.12926 102.042 4.55682C102.257 4.98437 102.365 5.51302 102.365 6.14276V11H100.879V6.32173C100.879 5.76823 100.734 5.3357 100.446 5.02415C100.158 4.70928 99.7616 4.55185 99.2578 4.55185C98.9131 4.55185 98.6065 4.62642 98.3381 4.77557C98.0729 4.92472 97.8625 5.14347 97.7067 5.43182C97.5542 5.71686 97.478 6.06155 97.478 6.46591Z" fill="black"/>
</svg>
