<svg viewBox="0 0 86 12" fill="none" stroke-width="2" stroke="currentColor" aria-hidden="true">
  <path d="M4.63352 3.36364V4.55682H0.318182V3.36364H4.63352ZM1.50142 11V2.47869C1.50142 2.00142 1.60582 1.60535 1.81463 1.29048C2.02344 0.972301 2.30019 0.735322 2.64489 0.579545C2.98958 0.420454 3.36411 0.340908 3.76847 0.340908C4.06676 0.340908 4.32197 0.365767 4.53409 0.415483C4.74621 0.461884 4.90365 0.504971 5.00639 0.544744L4.65838 1.74787C4.58878 1.72798 4.49929 1.70478 4.38991 1.67827C4.28054 1.64844 4.14796 1.63352 3.99219 1.63352C3.63092 1.63352 3.3724 1.72301 3.21662 1.90199C3.06416 2.08097 2.98793 2.33949 2.98793 2.67756V11H1.50142ZM6.16726 11V3.36364H7.65376V11H6.16726ZM6.91797 2.18537C6.65945 2.18537 6.43738 2.09919 6.25178 1.92685C6.06948 1.75118 5.97834 1.54238 5.97834 1.30043C5.97834 1.05516 6.06948 0.846354 6.25178 0.674005C6.43738 0.498342 6.65945 0.410511 6.91797 0.410511C7.17649 0.410511 7.3969 0.498342 7.57919 0.674005C7.7648 0.846354 7.8576 1.05516 7.8576 1.30043C7.8576 1.54238 7.7648 1.75118 7.57919 1.92685C7.3969 2.09919 7.17649 2.18537 6.91797 2.18537ZM11.1401 0.818182V11H9.65359V0.818182H11.1401ZM16.4311 11.1541C15.6787 11.1541 15.0308 10.9934 14.4872 10.6719C13.947 10.3471 13.5294 9.89134 13.2344 9.30469C12.9427 8.71473 12.7969 8.02367 12.7969 7.23153C12.7969 6.44934 12.9427 5.75994 13.2344 5.16335C13.5294 4.56676 13.9403 4.10109 14.4673 3.76633C14.9976 3.43158 15.6174 3.2642 16.3267 3.2642C16.7576 3.2642 17.1752 3.33546 17.5795 3.47798C17.9839 3.6205 18.3468 3.84422 18.6683 4.14915C18.9898 4.45407 19.2434 4.85014 19.429 5.33736C19.6146 5.82126 19.7074 6.40956 19.7074 7.10227V7.62926H13.6371V6.51562H18.2507C18.2507 6.12453 18.1712 5.77817 18.0121 5.47656C17.853 5.17164 17.6293 4.93134 17.3409 4.75568C17.0559 4.58002 16.7211 4.49219 16.3366 4.49219C15.919 4.49219 15.5545 4.59493 15.2429 4.80043C14.9347 5.0026 14.696 5.26776 14.527 5.59588C14.3613 5.92069 14.2784 6.27367 14.2784 6.65483V7.52486C14.2784 8.03527 14.3679 8.46946 14.5469 8.82741C14.7292 9.18537 14.9827 9.45881 15.3075 9.64773C15.6323 9.83333 16.0118 9.92614 16.446 9.92614C16.7277 9.92614 16.9846 9.88636 17.2166 9.80682C17.4486 9.72396 17.6491 9.60133 17.8182 9.43892C17.9872 9.27652 18.1165 9.07599 18.206 8.83736L19.6129 9.09091C19.5002 9.50521 19.2981 9.86813 19.0064 10.1797C18.718 10.4879 18.3551 10.7282 17.9176 10.9006C17.4834 11.0696 16.9879 11.1541 16.4311 11.1541ZM25.856 6.05327V7.34091H21.3418V6.05327H25.856ZM29.3237 6.46591V11H27.8372V0.818182H29.3038V4.60653H29.3983C29.5772 4.19555 29.8507 3.86908 30.2186 3.62713C30.5865 3.38518 31.0671 3.2642 31.6603 3.2642C32.184 3.2642 32.6414 3.37192 33.0325 3.58736C33.4269 3.80279 33.7318 4.12429 33.9473 4.55185C34.166 4.97609 34.2754 5.50639 34.2754 6.14276V11H32.7889V6.32173C32.7889 5.7616 32.6447 5.32741 32.3564 5.01918C32.068 4.70762 31.667 4.55185 31.1532 4.55185C30.8019 4.55185 30.487 4.62642 30.2086 4.77557C29.9335 4.92472 29.7164 5.14347 29.5574 5.43182C29.4016 5.71686 29.3237 6.06155 29.3237 6.46591ZM39.5502 11.1541C38.7979 11.1541 38.1499 10.9934 37.6064 10.6719C37.0661 10.3471 36.6485 9.89134 36.3535 9.30469C36.0618 8.71473 35.916 8.02367 35.916 7.23153C35.916 6.44934 36.0618 5.75994 36.3535 5.16335C36.6485 4.56676 37.0595 4.10109 37.5865 3.76633C38.1168 3.43158 38.7366 3.2642 39.4458 3.2642C39.8767 3.2642 40.2943 3.33546 40.6987 3.47798C41.103 3.6205 41.466 3.84422 41.7875 4.14915C42.109 4.45407 42.3625 4.85014 42.5481 5.33736C42.7337 5.82126 42.8265 6.40956 42.8265 7.10227V7.62926H36.7562V6.51562H41.3699C41.3699 6.12453 41.2903 5.77817 41.1312 5.47656C40.9721 5.17164 40.7484 4.93134 40.46 4.75568C40.175 4.58002 39.8403 4.49219 39.4558 4.49219C39.0382 4.49219 38.6736 4.59493 38.362 4.80043C38.0538 5.0026 37.8152 5.26776 37.6461 5.59588C37.4804 5.92069 37.3975 6.27367 37.3975 6.65483V7.52486C37.3975 8.03527 37.487 8.46946 37.666 8.82741C37.8483 9.18537 38.1019 9.45881 38.4267 9.64773C38.7515 9.83333 39.131 9.92614 39.5652 9.92614C39.8469 9.92614 40.1038 9.88636 40.3358 9.80682C40.5678 9.72396 40.7683 9.60133 40.9373 9.43892C41.1064 9.27652 41.2356 9.07599 41.3251 8.83736L42.7321 9.09091C42.6194 9.50521 42.4172 9.86813 42.1255 10.1797C41.8372 10.4879 41.4743 10.7282 41.0368 10.9006C40.6026 11.0696 40.1071 11.1541 39.5502 11.1541ZM46.6982 11.169C46.2143 11.169 45.7768 11.0795 45.3857 10.9006C44.9946 10.7183 44.6847 10.4548 44.456 10.1101C44.2306 9.76539 44.1179 9.3428 44.1179 8.84233C44.1179 8.41146 44.2008 8.05682 44.3665 7.77841C44.5322 7.5 44.7559 7.27959 45.0376 7.11719C45.3194 6.95478 45.6342 6.83215 45.9822 6.74929C46.3303 6.66643 46.6849 6.60346 47.0462 6.56037C47.5036 6.50734 47.8748 6.46425 48.1598 6.43111C48.4448 6.39465 48.652 6.33665 48.7812 6.2571C48.9105 6.17756 48.9751 6.0483 48.9751 5.86932V5.83452C48.9751 5.40033 48.8525 5.06392 48.6072 4.82528C48.3653 4.58665 48.004 4.46733 47.5234 4.46733C47.023 4.46733 46.6286 4.57836 46.3402 4.80043C46.0552 5.01918 45.858 5.26278 45.7486 5.53125L44.3516 5.21307C44.5173 4.74905 44.7592 4.37453 45.0774 4.08949C45.3989 3.80114 45.7685 3.59233 46.1861 3.46307C46.6037 3.33049 47.0429 3.2642 47.5036 3.2642C47.8085 3.2642 48.1316 3.30066 48.473 3.37358C48.8177 3.44318 49.1392 3.57244 49.4375 3.76136C49.7391 3.95028 49.986 4.22041 50.1783 4.57173C50.3705 4.91974 50.4666 5.37216 50.4666 5.92898V11H49.0149V9.95597H48.9553C48.8591 10.1482 48.715 10.3371 48.5227 10.5227C48.3305 10.7083 48.0836 10.8625 47.782 10.9851C47.4804 11.1077 47.1191 11.169 46.6982 11.169ZM47.0213 9.97585C47.4323 9.97585 47.7836 9.89465 48.0753 9.73224C48.3703 9.56984 48.594 9.35772 48.7464 9.09588C48.9022 8.83073 48.9801 8.54735 48.9801 8.24574V7.26136C48.9271 7.31439 48.8243 7.36411 48.6719 7.41051C48.5227 7.4536 48.352 7.49171 48.1598 7.52486C47.9676 7.55469 47.7803 7.58286 47.598 7.60938C47.4157 7.63258 47.2633 7.65246 47.1406 7.66903C46.8523 7.70549 46.5888 7.76681 46.3501 7.85298C46.1148 7.93916 45.9259 8.06345 45.7834 8.22585C45.6442 8.38494 45.5746 8.59706 45.5746 8.86222C45.5746 9.23011 45.7105 9.50852 45.9822 9.69744C46.254 9.88305 46.6004 9.97585 47.0213 9.97585ZM52.4466 11V3.36364H53.8833V4.5767H53.9629C54.1021 4.16572 54.3474 3.84257 54.6987 3.60724C55.0533 3.36861 55.4544 3.24929 55.9018 3.24929C55.9946 3.24929 56.104 3.2526 56.2299 3.25923C56.3592 3.26586 56.4603 3.27415 56.5332 3.28409V4.70597C56.4735 4.68939 56.3675 4.67116 56.215 4.65128C56.0626 4.62808 55.9101 4.61648 55.7576 4.61648C55.4063 4.61648 55.0931 4.69105 54.818 4.8402C54.5462 4.98603 54.3308 5.18987 54.1717 5.4517C54.0126 5.71023 53.9331 6.00521 53.9331 6.33665V11H52.4466ZM61.8354 3.36364V4.55682H57.6642V3.36364H61.8354ZM58.7828 1.53409H60.2694V8.75781C60.2694 9.04616 60.3124 9.26326 60.3986 9.40909C60.4848 9.55161 60.5958 9.64938 60.7317 9.70241C60.8709 9.75213 61.0217 9.77699 61.1841 9.77699C61.3034 9.77699 61.4078 9.7687 61.4973 9.75213C61.5868 9.73556 61.6564 9.7223 61.7061 9.71236L61.9746 10.9403C61.8884 10.9735 61.7658 11.0066 61.6067 11.0398C61.4476 11.0762 61.2488 11.0961 61.0101 11.0994C60.619 11.1061 60.2544 11.0365 59.9164 10.8906C59.5783 10.7448 59.3049 10.5194 59.0961 10.2145C58.8873 9.90956 58.7828 9.52675 58.7828 9.06605V1.53409ZM67.7193 6.05327V7.34091H63.2051V6.05327H67.7193ZM73.2253 11.169C72.4398 11.1657 71.7686 10.9586 71.2118 10.5476C70.655 10.1366 70.2291 9.53835 69.9341 8.75284C69.6391 7.96733 69.4917 7.02107 69.4917 5.91406C69.4917 4.81037 69.6391 3.86742 69.9341 3.08523C70.2324 2.30303 70.66 1.70644 71.2168 1.29545C71.7769 0.884469 72.4464 0.678977 73.2253 0.678977C74.0042 0.678977 74.6721 0.886126 75.2289 1.30043C75.7857 1.71141 76.2116 2.308 76.5066 3.0902C76.8049 3.86908 76.954 4.81037 76.954 5.91406C76.954 7.02438 76.8065 7.9723 76.5115 8.75781C76.2166 9.54001 75.7907 10.1383 75.2338 10.5526C74.677 10.9635 74.0075 11.169 73.2253 11.169ZM73.2253 9.84162C73.9147 9.84162 74.4533 9.50521 74.8411 8.83239C75.2322 8.15956 75.4277 7.18679 75.4277 5.91406C75.4277 5.06889 75.3382 4.35464 75.1593 3.77131C74.9836 3.18466 74.7301 2.74053 74.3986 2.43892C74.0705 2.134 73.6794 1.98153 73.2253 1.98153C72.5392 1.98153 72.0007 2.3196 71.6096 2.99574C71.2185 3.67187 71.0212 4.64465 71.0179 5.91406C71.0179 6.76255 71.1058 7.48011 71.2814 8.06676C71.4604 8.65009 71.714 9.09257 72.0421 9.39418C72.3702 9.69247 72.7646 9.84162 73.2253 9.84162ZM78.7177 11V9.88636L82.163 6.31676C82.5309 5.92898 82.8342 5.58925 83.0728 5.29759C83.3147 5.0026 83.4954 4.72254 83.6147 4.45739C83.734 4.19223 83.7937 3.91051 83.7937 3.61222C83.7937 3.27415 83.7141 2.98248 83.555 2.73722C83.396 2.48864 83.1789 2.29806 82.9038 2.16548C82.6287 2.02959 82.3188 1.96165 81.9741 1.96165C81.6095 1.96165 81.2913 2.03622 81.0195 2.18537C80.7478 2.33452 80.5389 2.54498 80.3931 2.81676C80.2473 3.08854 80.1744 3.40672 80.1744 3.77131H78.7077C78.7077 3.15151 78.8503 2.60961 79.1353 2.1456C79.4203 1.68158 79.8114 1.32197 80.3086 1.06676C80.8058 0.808238 81.3709 0.678977 82.0039 0.678977C82.6436 0.678977 83.207 0.806581 83.6942 1.06179C84.1848 1.31368 84.5676 1.65838 84.8427 2.09588C85.1178 2.53007 85.2553 3.0206 85.2553 3.56747C85.2553 3.94531 85.1841 4.31487 85.0415 4.67614C84.9023 5.0374 84.6587 5.4401 84.3107 5.88423C83.9627 6.32505 83.4788 6.86032 82.859 7.49006L80.8356 9.60795V9.68253H85.4194V11H78.7177Z" fill="black"/>
</svg>
