<svg viewBox="0 0 113 12" fill="none" stroke-width="2" stroke="currentColor" aria-hidden="true">
  <path d="M4.63352 3.36364V4.55682H0.318182V3.36364H4.63352ZM1.50142 11V2.47869C1.50142 2.00142 1.60582 1.60535 1.81463 1.29048C2.02344 0.972301 2.30019 0.735322 2.64489 0.579545C2.98958 0.420454 3.36411 0.340908 3.76847 0.340908C4.06676 0.340908 4.32197 0.365767 4.53409 0.415483C4.74621 0.461884 4.90365 0.504971 5.00639 0.544744L4.65838 1.74787C4.58878 1.72798 4.49929 1.70478 4.38991 1.67827C4.28054 1.64844 4.14796 1.63352 3.99219 1.63352C3.63092 1.63352 3.3724 1.72301 3.21662 1.90199C3.06416 2.08097 2.98793 2.33949 2.98793 2.67756V11H1.50142ZM6.16726 11V3.36364H7.65376V11H6.16726ZM6.91797 2.18537C6.65945 2.18537 6.43738 2.09919 6.25178 1.92685C6.06948 1.75118 5.97834 1.54238 5.97834 1.30043C5.97834 1.05516 6.06948 0.846354 6.25178 0.674005C6.43738 0.498342 6.65945 0.410511 6.91797 0.410511C7.17649 0.410511 7.3969 0.498342 7.57919 0.674005C7.7648 0.846354 7.8576 1.05516 7.8576 1.30043C7.8576 1.54238 7.7648 1.75118 7.57919 1.92685C7.3969 2.09919 7.17649 2.18537 6.91797 2.18537ZM11.1401 0.818182V11H9.65359V0.818182H11.1401ZM16.4311 11.1541C15.6787 11.1541 15.0308 10.9934 14.4872 10.6719C13.947 10.3471 13.5294 9.89134 13.2344 9.30469C12.9427 8.71473 12.7969 8.02367 12.7969 7.23153C12.7969 6.44934 12.9427 5.75994 13.2344 5.16335C13.5294 4.56676 13.9403 4.10109 14.4673 3.76633C14.9976 3.43158 15.6174 3.2642 16.3267 3.2642C16.7576 3.2642 17.1752 3.33546 17.5795 3.47798C17.9839 3.6205 18.3468 3.84422 18.6683 4.14915C18.9898 4.45407 19.2434 4.85014 19.429 5.33736C19.6146 5.82126 19.7074 6.40956 19.7074 7.10227V7.62926H13.6371V6.51562H18.2507C18.2507 6.12453 18.1712 5.77817 18.0121 5.47656C17.853 5.17164 17.6293 4.93134 17.3409 4.75568C17.0559 4.58002 16.7211 4.49219 16.3366 4.49219C15.919 4.49219 15.5545 4.59493 15.2429 4.80043C14.9347 5.0026 14.696 5.26776 14.527 5.59588C14.3613 5.92069 14.2784 6.27367 14.2784 6.65483V7.52486C14.2784 8.03527 14.3679 8.46946 14.5469 8.82741C14.7292 9.18537 14.9827 9.45881 15.3075 9.64773C15.6323 9.83333 16.0118 9.92614 16.446 9.92614C16.7277 9.92614 16.9846 9.88636 17.2166 9.80682C17.4486 9.72396 17.6491 9.60133 17.8182 9.43892C17.9872 9.27652 18.1165 9.07599 18.206 8.83736L19.6129 9.09091C19.5002 9.50521 19.2981 9.86813 19.0064 10.1797C18.718 10.4879 18.3551 10.7282 17.9176 10.9006C17.4834 11.0696 16.9879 11.1541 16.4311 11.1541ZM25.856 6.05327V7.34091H21.3418V6.05327H25.856ZM30.6958 11.1491C30.0794 11.1491 29.5292 10.9917 29.0453 10.6768C28.5647 10.3587 28.1868 9.90625 27.9118 9.3196C27.64 8.72964 27.5041 8.02202 27.5041 7.19673C27.5041 6.37145 27.6416 5.66548 27.9167 5.07884C28.1951 4.49219 28.5763 4.04309 29.0602 3.73153C29.5441 3.41998 30.0926 3.2642 30.7058 3.2642C31.1797 3.2642 31.5609 3.34375 31.8493 3.50284C32.1409 3.65862 32.3663 3.84091 32.5254 4.04972C32.6878 4.25852 32.8137 4.44247 32.9032 4.60156H32.9927V0.818182H34.4792V11H33.0275V9.81179H32.9032C32.8137 9.9742 32.6845 10.1598 32.5154 10.3686C32.3497 10.5774 32.121 10.7597 31.8294 10.9155C31.5377 11.0713 31.1599 11.1491 30.6958 11.1491ZM31.024 9.88139C31.4515 9.88139 31.8128 9.7687 32.1078 9.54332C32.4061 9.31463 32.6315 8.99811 32.7839 8.59375C32.9397 8.18939 33.0176 7.71875 33.0176 7.18182C33.0176 6.65151 32.9413 6.1875 32.7889 5.78977C32.6364 5.39205 32.4127 5.08215 32.1177 4.86009C31.8227 4.63802 31.4582 4.52699 31.024 4.52699C30.5765 4.52699 30.2037 4.64299 29.9054 4.875C29.6071 5.10701 29.3817 5.42353 29.2292 5.82457C29.0801 6.22562 29.0055 6.67803 29.0055 7.18182C29.0055 7.69223 29.0817 8.15128 29.2342 8.55895C29.3867 8.96662 29.612 9.28977 29.9103 9.52841C30.2119 9.76373 30.5832 9.88139 31.024 9.88139ZM39.8175 11.1541C39.1016 11.1541 38.4768 10.9901 37.9432 10.6619C37.4096 10.3338 36.9953 9.87476 36.7003 9.2848C36.4053 8.69484 36.2578 8.00544 36.2578 7.21662C36.2578 6.42448 36.4053 5.73177 36.7003 5.13849C36.9953 4.54522 37.4096 4.08452 37.9432 3.75639C38.4768 3.42827 39.1016 3.2642 39.8175 3.2642C40.5334 3.2642 41.1581 3.42827 41.6918 3.75639C42.2254 4.08452 42.6397 4.54522 42.9347 5.13849C43.2296 5.73177 43.3771 6.42448 43.3771 7.21662C43.3771 8.00544 43.2296 8.69484 42.9347 9.2848C42.6397 9.87476 42.2254 10.3338 41.6918 10.6619C41.1581 10.9901 40.5334 11.1541 39.8175 11.1541ZM39.8224 9.90625C40.2865 9.90625 40.6709 9.78362 40.9759 9.53835C41.2808 9.29309 41.5062 8.96662 41.652 8.55895C41.8011 8.15128 41.8757 7.70218 41.8757 7.21165C41.8757 6.72443 41.8011 6.27699 41.652 5.86932C41.5062 5.45833 41.2808 5.12855 40.9759 4.87997C40.6709 4.63139 40.2865 4.5071 39.8224 4.5071C39.3551 4.5071 38.9673 4.63139 38.6591 4.87997C38.3542 5.12855 38.1271 5.45833 37.978 5.86932C37.8321 6.27699 37.7592 6.72443 37.7592 7.21165C37.7592 7.70218 37.8321 8.15128 37.978 8.55895C38.1271 8.96662 38.3542 9.29309 38.6591 9.53835C38.9673 9.78362 39.3551 9.90625 39.8224 9.90625ZM46.4595 11L44.2124 3.36364H45.7486L47.245 8.97159H47.3196L48.821 3.36364H50.3572L51.8487 8.94673H51.9233L53.4098 3.36364H54.946L52.7038 11H51.1875L49.6364 5.48651H49.522L47.9709 11H46.4595ZM57.8432 6.46591V11H56.3567V3.36364H57.7836V4.60653H57.878C58.0537 4.20218 58.3288 3.87737 58.7033 3.6321C59.0811 3.38684 59.5568 3.2642 60.1301 3.2642C60.6505 3.2642 61.1062 3.37358 61.4973 3.59233C61.8884 3.80777 62.1917 4.12926 62.4071 4.55682C62.6226 4.98437 62.7303 5.51302 62.7303 6.14276V11H61.2438V6.32173C61.2438 5.76823 61.0996 5.3357 60.8113 5.02415C60.5229 4.70928 60.1268 4.55185 59.623 4.55185C59.2783 4.55185 58.9718 4.62642 58.7033 4.77557C58.4382 4.92472 58.2277 5.14347 58.0719 5.43182C57.9194 5.71686 57.8432 6.06155 57.8432 6.46591ZM66.2104 0.818182V11H64.7239V0.818182H66.2104ZM71.4268 11.1541C70.7109 11.1541 70.0862 10.9901 69.5526 10.6619C69.0189 10.3338 68.6046 9.87476 68.3097 9.2848C68.0147 8.69484 67.8672 8.00544 67.8672 7.21662C67.8672 6.42448 68.0147 5.73177 68.3097 5.13849C68.6046 4.54522 69.0189 4.08452 69.5526 3.75639C70.0862 3.42827 70.7109 3.2642 71.4268 3.2642C72.1428 3.2642 72.7675 3.42827 73.3011 3.75639C73.8348 4.08452 74.2491 4.54522 74.544 5.13849C74.839 5.73177 74.9865 6.42448 74.9865 7.21662C74.9865 8.00544 74.839 8.69484 74.544 9.2848C74.2491 9.87476 73.8348 10.3338 73.3011 10.6619C72.7675 10.9901 72.1428 11.1541 71.4268 11.1541ZM71.4318 9.90625C71.8958 9.90625 72.2803 9.78362 72.5852 9.53835C72.8902 9.29309 73.1155 8.96662 73.2614 8.55895C73.4105 8.15128 73.4851 7.70218 73.4851 7.21165C73.4851 6.72443 73.4105 6.27699 73.2614 5.86932C73.1155 5.45833 72.8902 5.12855 72.5852 4.87997C72.2803 4.63139 71.8958 4.5071 71.4318 4.5071C70.9645 4.5071 70.5767 4.63139 70.2685 4.87997C69.9635 5.12855 69.7365 5.45833 69.5874 5.86932C69.4415 6.27699 69.3686 6.72443 69.3686 7.21165C69.3686 7.70218 69.4415 8.15128 69.5874 8.55895C69.7365 8.96662 69.9635 9.29309 70.2685 9.53835C70.5767 9.78362 70.9645 9.90625 71.4318 9.90625ZM78.8681 11.169C78.3842 11.169 77.9467 11.0795 77.5556 10.9006C77.1645 10.7183 76.8546 10.4548 76.6259 10.1101C76.4005 9.76539 76.2878 9.3428 76.2878 8.84233C76.2878 8.41146 76.3707 8.05682 76.5364 7.77841C76.7021 7.5 76.9258 7.27959 77.2076 7.11719C77.4893 6.95478 77.8042 6.83215 78.1522 6.74929C78.5002 6.66643 78.8548 6.60346 79.2161 6.56037C79.6735 6.50734 80.0447 6.46425 80.3297 6.43111C80.6148 6.39465 80.8219 6.33665 80.9512 6.2571C81.0804 6.17756 81.1451 6.0483 81.1451 5.86932V5.83452C81.1451 5.40033 81.0224 5.06392 80.7772 4.82528C80.5352 4.58665 80.1739 4.46733 79.6934 4.46733C79.1929 4.46733 78.7985 4.57836 78.5101 4.80043C78.2251 5.01918 78.0279 5.26278 77.9185 5.53125L76.5215 5.21307C76.6872 4.74905 76.9292 4.37453 77.2473 4.08949C77.5688 3.80114 77.9384 3.59233 78.356 3.46307C78.7736 3.33049 79.2128 3.2642 79.6735 3.2642C79.9784 3.2642 80.3016 3.30066 80.6429 3.37358C80.9876 3.44318 81.3091 3.57244 81.6074 3.76136C81.909 3.95028 82.156 4.22041 82.3482 4.57173C82.5404 4.91974 82.6365 5.37216 82.6365 5.92898V11H81.1848V9.95597H81.1252C81.0291 10.1482 80.8849 10.3371 80.6926 10.5227C80.5004 10.7083 80.2535 10.8625 79.9519 10.9851C79.6503 11.1077 79.289 11.169 78.8681 11.169ZM79.1912 9.97585C79.6022 9.97585 79.9535 9.89465 80.2452 9.73224C80.5402 9.56984 80.7639 9.35772 80.9164 9.09588C81.0721 8.83073 81.15 8.54735 81.15 8.24574V7.26136C81.097 7.31439 80.9943 7.36411 80.8418 7.41051C80.6926 7.4536 80.522 7.49171 80.3297 7.52486C80.1375 7.55469 79.9502 7.58286 79.7679 7.60938C79.5856 7.63258 79.4332 7.65246 79.3105 7.66903C79.0222 7.70549 78.7587 7.76681 78.5201 7.85298C78.2847 7.93916 78.0958 8.06345 77.9533 8.22585C77.8141 8.38494 77.7445 8.59706 77.7445 8.86222C77.7445 9.23011 77.8804 9.50852 78.1522 9.69744C78.4239 9.88305 78.7703 9.97585 79.1912 9.97585ZM87.4751 11.1491C86.8587 11.1491 86.3085 10.9917 85.8246 10.6768C85.344 10.3587 84.9661 9.90625 84.6911 9.3196C84.4193 8.72964 84.2834 8.02202 84.2834 7.19673C84.2834 6.37145 84.4209 5.66548 84.696 5.07884C84.9744 4.49219 85.3556 4.04309 85.8395 3.73153C86.3234 3.41998 86.8719 3.2642 87.4851 3.2642C87.959 3.2642 88.3402 3.34375 88.6286 3.50284C88.9202 3.65862 89.1456 3.84091 89.3047 4.04972C89.4671 4.25852 89.593 4.44247 89.6825 4.60156H89.772V0.818182H91.2585V11H89.8068V9.81179H89.6825C89.593 9.9742 89.4638 10.1598 89.2947 10.3686C89.129 10.5774 88.9003 10.7597 88.6087 10.9155C88.317 11.0713 87.9392 11.1491 87.4751 11.1491ZM87.8033 9.88139C88.2308 9.88139 88.5921 9.7687 88.8871 9.54332C89.1854 9.31463 89.4107 8.99811 89.5632 8.59375C89.719 8.18939 89.7969 7.71875 89.7969 7.18182C89.7969 6.65151 89.7206 6.1875 89.5682 5.78977C89.4157 5.39205 89.192 5.08215 88.897 4.86009C88.602 4.63802 88.2375 4.52699 87.8033 4.52699C87.3558 4.52699 86.983 4.64299 86.6847 4.875C86.3864 5.10701 86.161 5.42353 86.0085 5.82457C85.8594 6.22562 85.7848 6.67803 85.7848 7.18182C85.7848 7.69223 85.861 8.15128 86.0135 8.55895C86.166 8.96662 86.3913 9.28977 86.6896 9.52841C86.9912 9.76373 87.3625 9.88139 87.8033 9.88139ZM97.8794 6.05327V7.34091H93.3652V6.05327H97.8794ZM103.385 11.169C102.6 11.1657 101.929 10.9586 101.372 10.5476C100.815 10.1366 100.389 9.53835 100.094 8.75284C99.7993 7.96733 99.6518 7.02107 99.6518 5.91406C99.6518 4.81037 99.7993 3.86742 100.094 3.08523C100.393 2.30303 100.82 1.70644 101.377 1.29545C101.937 0.884469 102.607 0.678977 103.385 0.678977C104.164 0.678977 104.832 0.886126 105.389 1.30043C105.946 1.71141 106.372 2.308 106.667 3.0902C106.965 3.86908 107.114 4.81037 107.114 5.91406C107.114 7.02438 106.967 7.9723 106.672 8.75781C106.377 9.54001 105.951 10.1383 105.394 10.5526C104.837 10.9635 104.168 11.169 103.385 11.169ZM103.385 9.84162C104.075 9.84162 104.613 9.50521 105.001 8.83239C105.392 8.15956 105.588 7.18679 105.588 5.91406C105.588 5.06889 105.498 4.35464 105.319 3.77131C105.144 3.18466 104.89 2.74053 104.559 2.43892C104.231 2.134 103.84 1.98153 103.385 1.98153C102.699 1.98153 102.161 2.3196 101.77 2.99574C101.379 3.67187 101.181 4.64465 101.178 5.91406C101.178 6.76255 101.266 7.48011 101.442 8.06676C101.621 8.65009 101.874 9.09257 102.202 9.39418C102.53 9.69247 102.925 9.84162 103.385 9.84162ZM112.741 0.818182V11H111.2V2.35938H111.14L108.704 3.95028V2.47869L111.244 0.818182H112.741Z" fill="black"/>
</svg>
