<svg viewBox="0 0 106 14" fill="none" stroke-width="2" stroke="currentColor" aria-hidden="true">
  <path d="M4.63352 3.36364V4.55682H0.318182V3.36364H4.63352ZM1.50142 11V2.47869C1.50142 2.00142 1.60582 1.60535 1.81463 1.29048C2.02344 0.972301 2.30019 0.735322 2.64489 0.579545C2.98958 0.420454 3.36411 0.340908 3.76847 0.340908C4.06676 0.340908 4.32197 0.365767 4.53409 0.415483C4.74621 0.461884 4.90365 0.504971 5.00639 0.544744L4.65838 1.74787C4.58878 1.72798 4.49929 1.70478 4.38991 1.67827C4.28054 1.64844 4.14796 1.63352 3.99219 1.63352C3.63092 1.63352 3.3724 1.72301 3.21662 1.90199C3.06416 2.08097 2.98793 2.33949 2.98793 2.67756V11H1.50142ZM6.16726 11V3.36364H7.65376V11H6.16726ZM6.91797 2.18537C6.65945 2.18537 6.43738 2.09919 6.25178 1.92685C6.06948 1.75118 5.97834 1.54238 5.97834 1.30043C5.97834 1.05516 6.06948 0.846354 6.25178 0.674005C6.43738 0.498342 6.65945 0.410511 6.91797 0.410511C7.17649 0.410511 7.3969 0.498342 7.57919 0.674005C7.7648 0.846354 7.8576 1.05516 7.8576 1.30043C7.8576 1.54238 7.7648 1.75118 7.57919 1.92685C7.3969 2.09919 7.17649 2.18537 6.91797 2.18537ZM11.1401 0.818182V11H9.65359V0.818182H11.1401ZM16.4311 11.1541C15.6787 11.1541 15.0308 10.9934 14.4872 10.6719C13.947 10.3471 13.5294 9.89134 13.2344 9.30469C12.9427 8.71473 12.7969 8.02367 12.7969 7.23153C12.7969 6.44934 12.9427 5.75994 13.2344 5.16335C13.5294 4.56676 13.9403 4.10109 14.4673 3.76633C14.9976 3.43158 15.6174 3.2642 16.3267 3.2642C16.7576 3.2642 17.1752 3.33546 17.5795 3.47798C17.9839 3.6205 18.3468 3.84422 18.6683 4.14915C18.9898 4.45407 19.2434 4.85014 19.429 5.33736C19.6146 5.82126 19.7074 6.40956 19.7074 7.10227V7.62926H13.6371V6.51562H18.2507C18.2507 6.12453 18.1712 5.77817 18.0121 5.47656C17.853 5.17164 17.6293 4.93134 17.3409 4.75568C17.0559 4.58002 16.7211 4.49219 16.3366 4.49219C15.919 4.49219 15.5545 4.59493 15.2429 4.80043C14.9347 5.0026 14.696 5.26776 14.527 5.59588C14.3613 5.92069 14.2784 6.27367 14.2784 6.65483V7.52486C14.2784 8.03527 14.3679 8.46946 14.5469 8.82741C14.7292 9.18537 14.9827 9.45881 15.3075 9.64773C15.6323 9.83333 16.0118 9.92614 16.446 9.92614C16.7277 9.92614 16.9846 9.88636 17.2166 9.80682C17.4486 9.72396 17.6491 9.60133 17.8182 9.43892C17.9872 9.27652 18.1165 9.07599 18.206 8.83736L19.6129 9.09091C19.5002 9.50521 19.2981 9.86813 19.0064 10.1797C18.718 10.4879 18.3551 10.7282 17.9176 10.9006C17.4834 11.0696 16.9879 11.1541 16.4311 11.1541ZM25.856 6.05327V7.34091H21.3418V6.05327H25.856ZM32.9927 13.8636V9.81179H32.9032C32.8137 9.9742 32.6845 10.1598 32.5154 10.3686C32.3497 10.5774 32.121 10.7597 31.8294 10.9155C31.5377 11.0713 31.1599 11.1491 30.6958 11.1491C30.0794 11.1491 29.5292 10.9917 29.0453 10.6768C28.5647 10.3587 28.1868 9.90625 27.9118 9.3196C27.64 8.72964 27.5041 8.02202 27.5041 7.19673C27.5041 6.37145 27.6416 5.66548 27.9167 5.07884C28.1951 4.49219 28.5763 4.04309 29.0602 3.73153C29.5441 3.41998 30.0926 3.2642 30.7058 3.2642C31.1797 3.2642 31.5609 3.34375 31.8493 3.50284C32.1409 3.65862 32.3663 3.84091 32.5254 4.04972C32.6878 4.25852 32.8137 4.44247 32.9032 4.60156H33.0275V3.36364H34.4792V13.8636H32.9927ZM31.024 9.88139C31.4515 9.88139 31.8128 9.7687 32.1078 9.54332C32.4061 9.31463 32.6315 8.99811 32.7839 8.59375C32.9397 8.18939 33.0176 7.71875 33.0176 7.18182C33.0176 6.65151 32.9413 6.1875 32.7889 5.78977C32.6364 5.39205 32.4127 5.08215 32.1177 4.86009C31.8227 4.63802 31.4582 4.52699 31.024 4.52699C30.5765 4.52699 30.2037 4.64299 29.9054 4.875C29.6071 5.10701 29.3817 5.42353 29.2292 5.82457C29.0801 6.22562 29.0055 6.67803 29.0055 7.18182C29.0055 7.69223 29.0817 8.15128 29.2342 8.55895C29.3867 8.96662 29.612 9.28977 29.9103 9.52841C30.2119 9.76373 30.5832 9.88139 31.024 9.88139ZM41.3152 7.8331V3.36364H42.8066V11H41.345V9.67756H41.2654C41.0898 10.0852 40.8081 10.425 40.4203 10.6967C40.0358 10.9652 39.5569 11.0994 38.9835 11.0994C38.493 11.0994 38.0588 10.9917 37.6809 10.7763C37.3064 10.5575 37.0114 10.2344 36.796 9.80682C36.5839 9.37926 36.4778 8.85062 36.4778 8.22088V3.36364H37.9643V8.0419C37.9643 8.56226 38.1085 8.97656 38.3968 9.2848C38.6852 9.59304 39.0597 9.74716 39.5204 9.74716C39.7988 9.74716 40.0756 9.67756 40.3507 9.53835C40.6291 9.39915 40.8594 9.18868 41.0417 8.90696C41.2273 8.62524 41.3185 8.26728 41.3152 7.8331ZM48.0952 11.1541C47.3428 11.1541 46.6948 10.9934 46.1513 10.6719C45.611 10.3471 45.1934 9.89134 44.8984 9.30469C44.6068 8.71473 44.4609 8.02367 44.4609 7.23153C44.4609 6.44934 44.6068 5.75994 44.8984 5.16335C45.1934 4.56676 45.6044 4.10109 46.1314 3.76633C46.6617 3.43158 47.2815 3.2642 47.9908 3.2642C48.4216 3.2642 48.8393 3.33546 49.2436 3.47798C49.648 3.6205 50.0109 3.84422 50.3324 4.14915C50.6539 4.45407 50.9074 4.85014 51.093 5.33736C51.2786 5.82126 51.3714 6.40956 51.3714 7.10227V7.62926H45.3011V6.51562H49.9148C49.9148 6.12453 49.8352 5.77817 49.6761 5.47656C49.517 5.17164 49.2933 4.93134 49.005 4.75568C48.7199 4.58002 48.3852 4.49219 48.0007 4.49219C47.5831 4.49219 47.2185 4.59493 46.907 4.80043C46.5987 5.0026 46.3601 5.26776 46.1911 5.59588C46.0253 5.92069 45.9425 6.27367 45.9425 6.65483V7.52486C45.9425 8.03527 46.032 8.46946 46.2109 8.82741C46.3932 9.18537 46.6468 9.45881 46.9716 9.64773C47.2964 9.83333 47.6759 9.92614 48.1101 9.92614C48.3918 9.92614 48.6487 9.88636 48.8807 9.80682C49.1127 9.72396 49.3132 9.60133 49.4822 9.43892C49.6513 9.27652 49.7805 9.07599 49.87 8.83736L51.277 9.09091C51.1643 9.50521 50.9621 9.86813 50.6705 10.1797C50.3821 10.4879 50.0192 10.7282 49.5817 10.9006C49.1475 11.0696 48.652 11.1541 48.0952 11.1541ZM58.7431 5.22798L57.3958 5.46662C57.3394 5.29427 57.2499 5.13021 57.1273 4.97443C57.008 4.81865 56.8456 4.69105 56.6401 4.59162C56.4346 4.49219 56.1777 4.44247 55.8695 4.44247C55.4486 4.44247 55.0972 4.53693 54.8155 4.72585C54.5338 4.91146 54.3929 5.15175 54.3929 5.44673C54.3929 5.70194 54.4874 5.90743 54.6763 6.06321C54.8652 6.21899 55.1702 6.34659 55.5911 6.44602L56.8042 6.72443C57.5068 6.88684 58.0305 7.13707 58.3752 7.47514C58.7199 7.81321 58.8922 8.25237 58.8922 8.79261C58.8922 9.25 58.7596 9.65767 58.4945 10.0156C58.2327 10.3703 57.8664 10.6487 57.3958 10.8509C56.9284 11.053 56.3865 11.1541 55.7701 11.1541C54.915 11.1541 54.2173 10.9718 53.677 10.6072C53.1368 10.2393 52.8053 9.71733 52.6827 9.04119L54.1195 8.82244C54.209 9.19697 54.3929 9.48035 54.6713 9.67259C54.9498 9.86151 55.3127 9.95597 55.7601 9.95597C56.2473 9.95597 56.6368 9.85488 56.9284 9.6527C57.2201 9.44721 57.3659 9.19697 57.3659 8.90199C57.3659 8.66335 57.2765 8.46283 57.0975 8.30043C56.9218 8.13802 56.6517 8.01539 56.2871 7.93253L54.9945 7.64915C54.2819 7.48674 53.7549 7.22822 53.4135 6.87358C53.0755 6.51894 52.9064 6.06984 52.9064 5.52628C52.9064 5.07552 53.0324 4.68111 53.2843 4.34304C53.5362 4.00497 53.8842 3.74148 54.3283 3.55256C54.7724 3.36032 55.2812 3.2642 55.8546 3.2642C56.6799 3.2642 57.3295 3.44318 57.8034 3.80114C58.2774 4.15578 58.5906 4.63139 58.7431 5.22798ZM64.0913 3.36364V4.55682H59.9201V3.36364H64.0913ZM61.0387 1.53409H62.5252V8.75781C62.5252 9.04616 62.5683 9.26326 62.6545 9.40909C62.7406 9.55161 62.8517 9.64938 62.9876 9.70241C63.1268 9.75213 63.2776 9.77699 63.44 9.77699C63.5593 9.77699 63.6637 9.7687 63.7532 9.75213C63.8427 9.73556 63.9123 9.7223 63.962 9.71236L64.2305 10.9403C64.1443 10.9735 64.0217 11.0066 63.8626 11.0398C63.7035 11.0762 63.5046 11.0961 63.266 11.0994C62.8749 11.1061 62.5103 11.0365 62.1722 10.8906C61.8342 10.7448 61.5607 10.5194 61.3519 10.2145C61.1431 9.90956 61.0387 9.52675 61.0387 9.06605V1.53409ZM65.7356 11V3.36364H67.2221V11H65.7356ZM66.4863 2.18537C66.2278 2.18537 66.0057 2.09919 65.8201 1.92685C65.6378 1.75118 65.5467 1.54238 65.5467 1.30043C65.5467 1.05516 65.6378 0.846354 65.8201 0.674005C66.0057 0.498342 66.2278 0.410511 66.4863 0.410511C66.7449 0.410511 66.9653 0.498342 67.1475 0.674005C67.3332 0.846354 67.426 1.05516 67.426 1.30043C67.426 1.54238 67.3332 1.75118 67.1475 1.92685C66.9653 2.09919 66.7449 2.18537 66.4863 2.18537ZM72.4386 11.1541C71.7227 11.1541 71.0979 10.9901 70.5643 10.6619C70.0307 10.3338 69.6164 9.87476 69.3214 9.2848C69.0264 8.69484 68.8789 8.00544 68.8789 7.21662C68.8789 6.42448 69.0264 5.73177 69.3214 5.13849C69.6164 4.54522 70.0307 4.08452 70.5643 3.75639C71.0979 3.42827 71.7227 3.2642 72.4386 3.2642C73.1545 3.2642 73.7792 3.42827 74.3129 3.75639C74.8465 4.08452 75.2608 4.54522 75.5558 5.13849C75.8507 5.73177 75.9982 6.42448 75.9982 7.21662C75.9982 8.00544 75.8507 8.69484 75.5558 9.2848C75.2608 9.87476 74.8465 10.3338 74.3129 10.6619C73.7792 10.9901 73.1545 11.1541 72.4386 11.1541ZM72.4435 9.90625C72.9076 9.90625 73.292 9.78362 73.5969 9.53835C73.9019 9.29309 74.1272 8.96662 74.2731 8.55895C74.4222 8.15128 74.4968 7.70218 74.4968 7.21165C74.4968 6.72443 74.4222 6.27699 74.2731 5.86932C74.1272 5.45833 73.9019 5.12855 73.5969 4.87997C73.292 4.63139 72.9076 4.5071 72.4435 4.5071C71.9762 4.5071 71.5884 4.63139 71.2802 4.87997C70.9753 5.12855 70.7482 5.45833 70.5991 5.86932C70.4532 6.27699 70.3803 6.72443 70.3803 7.21165C70.3803 7.70218 70.4532 8.15128 70.5991 8.55895C70.7482 8.96662 70.9753 9.29309 71.2802 9.53835C71.5884 9.78362 71.9762 9.90625 72.4435 9.90625ZM79.144 6.46591V11H77.6575V3.36364H79.0843V4.60653H79.1788C79.3545 4.20218 79.6296 3.87737 80.0041 3.6321C80.3819 3.38684 80.8575 3.2642 81.4309 3.2642C81.9513 3.2642 82.407 3.37358 82.7981 3.59233C83.1892 3.80777 83.4925 4.12926 83.7079 4.55682C83.9234 4.98437 84.0311 5.51302 84.0311 6.14276V11H82.5446V6.32173C82.5446 5.76823 82.4004 5.3357 82.112 5.02415C81.8237 4.70928 81.4276 4.55185 80.9238 4.55185C80.5791 4.55185 80.2725 4.62642 80.0041 4.77557C79.7389 4.92472 79.5285 5.14347 79.3727 5.43182C79.2202 5.71686 79.144 6.06155 79.144 6.46591ZM90.524 6.05327V7.34091H86.0098V6.05327H90.524ZM96.03 11.169C95.2445 11.1657 94.5733 10.9586 94.0165 10.5476C93.4597 10.1366 93.0338 9.53835 92.7388 8.75284C92.4438 7.96733 92.2963 7.02107 92.2963 5.91406C92.2963 4.81037 92.4438 3.86742 92.7388 3.08523C93.0371 2.30303 93.4647 1.70644 94.0215 1.29545C94.5816 0.884469 95.2511 0.678977 96.03 0.678977C96.8089 0.678977 97.4767 0.886126 98.0336 1.30043C98.5904 1.71141 99.0163 2.308 99.3113 3.0902C99.6096 3.86908 99.7587 4.81037 99.7587 5.91406C99.7587 7.02438 99.6112 7.9723 99.3162 8.75781C99.0212 9.54001 98.5953 10.1383 98.0385 10.5526C97.4817 10.9635 96.8122 11.169 96.03 11.169ZM96.03 9.84162C96.7194 9.84162 97.258 9.50521 97.6458 8.83239C98.0369 8.15956 98.2324 7.18679 98.2324 5.91406C98.2324 5.06889 98.1429 4.35464 97.964 3.77131C97.7883 3.18466 97.5347 2.74053 97.2033 2.43892C96.8752 2.134 96.4841 1.98153 96.03 1.98153C95.3439 1.98153 94.8053 2.3196 94.4142 2.99574C94.0231 3.67187 93.8259 4.64465 93.8226 5.91406C93.8226 6.76255 93.9105 7.48011 94.0861 8.06676C94.2651 8.65009 94.5186 9.09257 94.8468 9.39418C95.1749 9.69247 95.5693 9.84162 96.03 9.84162ZM105.385 0.818182V11H103.844V2.35938H103.784L101.348 3.95028V2.47869L103.889 0.818182H105.385Z" fill="black"/>
</svg>
