<svg viewBox="0 0 55 12" fill="none" stroke-width="2" stroke="currentColor" aria-hidden="true">
  <path d="M4.63352 3.36364V4.55682H0.318182V3.36364H4.63352ZM1.50142 11V2.47869C1.50142 2.00142 1.60582 1.60535 1.81463 1.29048C2.02344 0.972301 2.30019 0.735322 2.64489 0.579545C2.98958 0.420454 3.36411 0.340908 3.76847 0.340908C4.06676 0.340908 4.32197 0.365767 4.53409 0.415483C4.74621 0.461884 4.90365 0.504971 5.00639 0.544744L4.65838 1.74787C4.58878 1.72798 4.49929 1.70478 4.38991 1.67827C4.28054 1.64844 4.14796 1.63352 3.99219 1.63352C3.63092 1.63352 3.3724 1.72301 3.21662 1.90199C3.06416 2.08097 2.98793 2.33949 2.98793 2.67756V11H1.50142ZM6.16726 11V3.36364H7.65376V11H6.16726ZM6.91797 2.18537C6.65945 2.18537 6.43738 2.09919 6.25178 1.92685C6.06948 1.75118 5.97834 1.54238 5.97834 1.30043C5.97834 1.05516 6.06948 0.846354 6.25178 0.674005C6.43738 0.498342 6.65945 0.410511 6.91797 0.410511C7.17649 0.410511 7.3969 0.498342 7.57919 0.674005C7.7648 0.846354 7.8576 1.05516 7.8576 1.30043C7.8576 1.54238 7.7648 1.75118 7.57919 1.92685C7.3969 2.09919 7.17649 2.18537 6.91797 2.18537ZM11.1401 0.818182V11H9.65359V0.818182H11.1401ZM16.4311 11.1541C15.6787 11.1541 15.0308 10.9934 14.4872 10.6719C13.947 10.3471 13.5294 9.89134 13.2344 9.30469C12.9427 8.71473 12.7969 8.02367 12.7969 7.23153C12.7969 6.44934 12.9427 5.75994 13.2344 5.16335C13.5294 4.56676 13.9403 4.10109 14.4673 3.76633C14.9976 3.43158 15.6174 3.2642 16.3267 3.2642C16.7576 3.2642 17.1752 3.33546 17.5795 3.47798C17.9839 3.6205 18.3468 3.84422 18.6683 4.14915C18.9898 4.45407 19.2434 4.85014 19.429 5.33736C19.6146 5.82126 19.7074 6.40956 19.7074 7.10227V7.62926H13.6371V6.51562H18.2507C18.2507 6.12453 18.1712 5.77817 18.0121 5.47656C17.853 5.17164 17.6293 4.93134 17.3409 4.75568C17.0559 4.58002 16.7211 4.49219 16.3366 4.49219C15.919 4.49219 15.5545 4.59493 15.2429 4.80043C14.9347 5.0026 14.696 5.26776 14.527 5.59588C14.3613 5.92069 14.2784 6.27367 14.2784 6.65483V7.52486C14.2784 8.03527 14.3679 8.46946 14.5469 8.82741C14.7292 9.18537 14.9827 9.45881 15.3075 9.64773C15.6323 9.83333 16.0118 9.92614 16.446 9.92614C16.7277 9.92614 16.9846 9.88636 17.2166 9.80682C17.4486 9.72396 17.6491 9.60133 17.8182 9.43892C17.9872 9.27652 18.1165 9.07599 18.206 8.83736L19.6129 9.09091C19.5002 9.50521 19.2981 9.86813 19.0064 10.1797C18.718 10.4879 18.3551 10.7282 17.9176 10.9006C17.4834 11.0696 16.9879 11.1541 16.4311 11.1541ZM25.856 6.05327V7.34091H21.3418V6.05327H25.856ZM28.696 3.36364L30.3814 6.33665L32.0817 3.36364H33.7074L31.326 7.18182L33.7273 11H32.1016L30.3814 8.14631L28.6662 11H27.0355L29.4119 7.18182L27.0653 3.36364H28.696ZM39.4185 6.05327V7.34091H34.9043V6.05327H39.4185ZM44.9245 11.169C44.139 11.1657 43.4679 10.9586 42.911 10.5476C42.3542 10.1366 41.9283 9.53835 41.6333 8.75284C41.3384 7.96733 41.1909 7.02107 41.1909 5.91406C41.1909 4.81037 41.3384 3.86742 41.6333 3.08523C41.9316 2.30303 42.3592 1.70644 42.916 1.29545C43.4761 0.884469 44.1457 0.678977 44.9245 0.678977C45.7034 0.678977 46.3713 0.886126 46.9281 1.30043C47.4849 1.71141 47.9108 2.308 48.2058 3.0902C48.5041 3.86908 48.6532 4.81037 48.6532 5.91406C48.6532 7.02438 48.5057 7.9723 48.2108 8.75781C47.9158 9.54001 47.4899 10.1383 46.9331 10.5526C46.3762 10.9635 45.7067 11.169 44.9245 11.169ZM44.9245 9.84162C45.6139 9.84162 46.1525 9.50521 46.5403 8.83239C46.9314 8.15956 47.127 7.18679 47.127 5.91406C47.127 5.06889 47.0375 4.35464 46.8585 3.77131C46.6828 3.18466 46.4293 2.74053 46.0978 2.43892C45.7697 2.134 45.3786 1.98153 44.9245 1.98153C44.2385 1.98153 43.6999 2.3196 43.3088 2.99574C42.9177 3.67187 42.7205 4.64465 42.7172 5.91406C42.7172 6.76255 42.805 7.48011 42.9806 8.06676C43.1596 8.65009 43.4132 9.09257 43.7413 9.39418C44.0694 9.69247 44.4638 9.84162 44.9245 9.84162ZM54.2798 0.818182V11H52.7386V2.35938H52.679L50.2429 3.95028V2.47869L52.7834 0.818182H54.2798Z" fill="black"/>
</svg>
