<svg viewBox="0 0 87 12" fill="none" stroke-width="2" stroke="currentColor" aria-hidden="true">
  <path d="M4.63352 3.36364V4.55682H0.318182V3.36364H4.63352ZM1.50142 11V2.47869C1.50142 2.00142 1.60582 1.60535 1.81463 1.29048C2.02344 0.972301 2.30019 0.735322 2.64489 0.579545C2.98958 0.420454 3.36411 0.340908 3.76847 0.340908C4.06676 0.340908 4.32197 0.365767 4.53409 0.415483C4.74621 0.461884 4.90365 0.504971 5.00639 0.544744L4.65838 1.74787C4.58878 1.72798 4.49929 1.70478 4.38991 1.67827C4.28054 1.64844 4.14796 1.63352 3.99219 1.63352C3.63092 1.63352 3.3724 1.72301 3.21662 1.90199C3.06416 2.08097 2.98793 2.33949 2.98793 2.67756V11H1.50142ZM8.15714 11.169C7.67324 11.169 7.23574 11.0795 6.84464 10.9006C6.45354 10.7183 6.14364 10.4548 5.91495 10.1101C5.68957 9.76539 5.57688 9.3428 5.57688 8.84233C5.57688 8.41146 5.65974 8.05682 5.82546 7.77841C5.99118 7.5 6.2149 7.27959 6.49663 7.11719C6.77835 6.95478 7.09322 6.83215 7.44123 6.74929C7.78924 6.66643 8.14388 6.60346 8.50515 6.56037C8.96254 6.50734 9.33375 6.46425 9.61879 6.43111C9.90382 6.39465 10.111 6.33665 10.2402 6.2571C10.3695 6.17756 10.4341 6.0483 10.4341 5.86932V5.83452C10.4341 5.40033 10.3115 5.06392 10.0662 4.82528C9.82428 4.58665 9.46301 4.46733 8.98242 4.46733C8.48195 4.46733 8.08754 4.57836 7.79918 4.80043C7.51415 5.01918 7.31694 5.26278 7.20756 5.53125L5.81055 5.21307C5.97627 4.74905 6.21822 4.37453 6.5364 4.08949C6.8579 3.80114 7.22745 3.59233 7.64506 3.46307C8.06268 3.33049 8.50183 3.2642 8.96254 3.2642C9.26746 3.2642 9.59061 3.30066 9.932 3.37358C10.2767 3.44318 10.5982 3.57244 10.8965 3.76136C11.1981 3.95028 11.445 4.22041 11.6373 4.57173C11.8295 4.91974 11.9256 5.37216 11.9256 5.92898V11H10.4739V9.95597H10.4142C10.3181 10.1482 10.1739 10.3371 9.98171 10.5227C9.78948 10.7083 9.54255 10.8625 9.24094 10.9851C8.93933 11.1077 8.57807 11.169 8.15714 11.169ZM8.48029 9.97585C8.89128 9.97585 9.2426 9.89465 9.53427 9.73224C9.82925 9.56984 10.053 9.35772 10.2054 9.09588C10.3612 8.83073 10.4391 8.54735 10.4391 8.24574V7.26136C10.3861 7.31439 10.2833 7.36411 10.1309 7.41051C9.98171 7.4536 9.81102 7.49171 9.61879 7.52486C9.42655 7.55469 9.23929 7.58286 9.057 7.60938C8.8747 7.63258 8.72224 7.65246 8.59961 7.66903C8.31126 7.70549 8.04776 7.76681 7.80913 7.85298C7.5738 7.93916 7.38488 8.06345 7.24237 8.22585C7.10316 8.38494 7.03356 8.59706 7.03356 8.86222C7.03356 9.23011 7.16945 9.50852 7.44123 9.69744C7.71301 9.88305 8.05936 9.97585 8.48029 9.97585ZM17.1222 11.1541C16.383 11.1541 15.7467 10.9867 15.2131 10.652C14.6828 10.3139 14.2751 9.84825 13.9901 9.25497C13.705 8.66169 13.5625 7.98224 13.5625 7.21662C13.5625 6.44105 13.7083 5.75663 14 5.16335C14.2917 4.56676 14.7027 4.10109 15.233 3.76633C15.7633 3.43158 16.388 3.2642 17.1072 3.2642C17.6873 3.2642 18.2043 3.37192 18.6584 3.58736C19.1125 3.79948 19.4787 4.09777 19.7571 4.48224C20.0388 4.86671 20.2062 5.31581 20.2592 5.82955H18.8125C18.733 5.47159 18.5507 5.16335 18.2656 4.90483C17.9839 4.64631 17.6061 4.51705 17.1321 4.51705C16.7178 4.51705 16.3549 4.62642 16.0433 4.84517C15.7351 5.06061 15.4948 5.36884 15.3224 5.76989C15.1501 6.16761 15.0639 6.63826 15.0639 7.18182C15.0639 7.73864 15.1484 8.21922 15.3175 8.62358C15.4865 9.02794 15.7251 9.34115 16.0334 9.56321C16.3449 9.78527 16.7112 9.89631 17.1321 9.89631C17.4138 9.89631 17.669 9.84493 17.8977 9.74219C18.1297 9.63613 18.3236 9.48532 18.4794 9.28977C18.6385 9.09422 18.7495 8.8589 18.8125 8.58381H20.2592C20.2062 9.07765 20.0455 9.51847 19.777 9.90625C19.5085 10.294 19.1489 10.599 18.6982 10.821C18.2507 11.0431 17.7254 11.1541 17.1222 11.1541ZM25.1401 11.1541C24.3877 11.1541 23.7398 10.9934 23.1962 10.6719C22.656 10.3471 22.2383 9.89134 21.9434 9.30469C21.6517 8.71473 21.5059 8.02367 21.5059 7.23153C21.5059 6.44934 21.6517 5.75994 21.9434 5.16335C22.2383 4.56676 22.6493 4.10109 23.1763 3.76633C23.7066 3.43158 24.3264 3.2642 25.0357 3.2642C25.4666 3.2642 25.8842 3.33546 26.2885 3.47798C26.6929 3.6205 27.0558 3.84422 27.3773 4.14915C27.6988 4.45407 27.9524 4.85014 28.138 5.33736C28.3236 5.82126 28.4164 6.40956 28.4164 7.10227V7.62926H22.3461V6.51562H26.9597C26.9597 6.12453 26.8801 5.77817 26.7211 5.47656C26.562 5.17164 26.3382 4.93134 26.0499 4.75568C25.7649 4.58002 25.4301 4.49219 25.0456 4.49219C24.628 4.49219 24.2634 4.59493 23.9519 4.80043C23.6436 5.0026 23.405 5.26776 23.236 5.59588C23.0703 5.92069 22.9874 6.27367 22.9874 6.65483V7.52486C22.9874 8.03527 23.0769 8.46946 23.2559 8.82741C23.4382 9.18537 23.6917 9.45881 24.0165 9.64773C24.3413 9.83333 24.7208 9.92614 25.155 9.92614C25.4367 9.92614 25.6936 9.88636 25.9256 9.80682C26.1576 9.72396 26.3581 9.60133 26.5272 9.43892C26.6962 9.27652 26.8255 9.07599 26.915 8.83736L28.3219 9.09091C28.2092 9.50521 28.007 9.86813 27.7154 10.1797C27.427 10.4879 27.0641 10.7282 26.6266 10.9006C26.1924 11.0696 25.6969 11.1541 25.1401 11.1541ZM34.565 6.05327V7.34091H30.0508V6.05327H34.565ZM39.7628 11.1541C39.0237 11.1541 38.3873 10.9867 37.8537 10.652C37.3234 10.3139 36.9157 9.84825 36.6307 9.25497C36.3456 8.66169 36.2031 7.98224 36.2031 7.21662C36.2031 6.44105 36.349 5.75663 36.6406 5.16335C36.9323 4.56676 37.3433 4.10109 37.8736 3.76633C38.4039 3.43158 39.0286 3.2642 39.7479 3.2642C40.3279 3.2642 40.8449 3.37192 41.299 3.58736C41.7531 3.79948 42.1193 4.09777 42.3977 4.48224C42.6795 4.86671 42.8468 5.31581 42.8999 5.82955H41.4531C41.3736 5.47159 41.1913 5.16335 40.9062 4.90483C40.6245 4.64631 40.2467 4.51705 39.7727 4.51705C39.3584 4.51705 38.9955 4.62642 38.6839 4.84517C38.3757 5.06061 38.1354 5.36884 37.9631 5.76989C37.7907 6.16761 37.7045 6.63826 37.7045 7.18182C37.7045 7.73864 37.7891 8.21922 37.9581 8.62358C38.1271 9.02794 38.3658 9.34115 38.674 9.56321C38.9856 9.78527 39.3518 9.89631 39.7727 9.89631C40.0545 9.89631 40.3097 9.84493 40.5384 9.74219C40.7704 9.63613 40.9643 9.48532 41.12 9.28977C41.2791 9.09422 41.3902 8.8589 41.4531 8.58381H42.8999C42.8468 9.07765 42.6861 9.51847 42.4176 9.90625C42.1491 10.294 41.7895 10.599 41.3388 10.821C40.8913 11.0431 40.366 11.1541 39.7628 11.1541ZM47.7061 11.1541C46.9902 11.1541 46.3655 10.9901 45.8319 10.6619C45.2982 10.3338 44.8839 9.87476 44.589 9.2848C44.294 8.69484 44.1465 8.00544 44.1465 7.21662C44.1465 6.42448 44.294 5.73177 44.589 5.13849C44.8839 4.54522 45.2982 4.08452 45.8319 3.75639C46.3655 3.42827 46.9902 3.2642 47.7061 3.2642C48.4221 3.2642 49.0468 3.42827 49.5804 3.75639C50.1141 4.08452 50.5283 4.54522 50.8233 5.13849C51.1183 5.73177 51.2658 6.42448 51.2658 7.21662C51.2658 8.00544 51.1183 8.69484 50.8233 9.2848C50.5283 9.87476 50.1141 10.3338 49.5804 10.6619C49.0468 10.9901 48.4221 11.1541 47.7061 11.1541ZM47.7111 9.90625C48.1751 9.90625 48.5596 9.78362 48.8645 9.53835C49.1694 9.29309 49.3948 8.96662 49.5407 8.55895C49.6898 8.15128 49.7644 7.70218 49.7644 7.21165C49.7644 6.72443 49.6898 6.27699 49.5407 5.86932C49.3948 5.45833 49.1694 5.12855 48.8645 4.87997C48.5596 4.63139 48.1751 4.5071 47.7111 4.5071C47.2438 4.5071 46.856 4.63139 46.5478 4.87997C46.2428 5.12855 46.0158 5.45833 45.8667 5.86932C45.7208 6.27699 45.6479 6.72443 45.6479 7.21165C45.6479 7.70218 45.7208 8.15128 45.8667 8.55895C46.0158 8.96662 46.2428 9.29309 46.5478 9.53835C46.856 9.78362 47.2438 9.90625 47.7111 9.90625ZM54.4116 6.46591V11H52.9251V3.36364H54.3519V4.60653H54.4464C54.622 4.20218 54.8971 3.87737 55.2717 3.6321C55.6495 3.38684 56.1251 3.2642 56.6985 3.2642C57.2189 3.2642 57.6746 3.37358 58.0657 3.59233C58.4568 3.80777 58.7601 4.12926 58.9755 4.55682C59.1909 4.98437 59.2987 5.51302 59.2987 6.14276V11H57.8121V6.32173C57.8121 5.76823 57.668 5.3357 57.3796 5.02415C57.0913 4.70928 56.6952 4.55185 56.1914 4.55185C55.8467 4.55185 55.5401 4.62642 55.2717 4.77557C55.0065 4.92472 54.796 5.14347 54.6403 5.43182C54.4878 5.71686 54.4116 6.06155 54.4116 6.46591ZM64.8569 3.36364V4.55682H60.6857V3.36364H64.8569ZM61.8043 1.53409H63.2908V8.75781C63.2908 9.04616 63.3339 9.26326 63.4201 9.40909C63.5063 9.55161 63.6173 9.64938 63.7532 9.70241C63.8924 9.75213 64.0432 9.77699 64.2056 9.77699C64.3249 9.77699 64.4293 9.7687 64.5188 9.75213C64.6083 9.73556 64.6779 9.7223 64.7276 9.71236L64.9961 10.9403C64.9099 10.9735 64.7873 11.0066 64.6282 11.0398C64.4691 11.0762 64.2702 11.0961 64.0316 11.0994C63.6405 11.1061 63.2759 11.0365 62.9379 10.8906C62.5998 10.7448 62.3263 10.5194 62.1175 10.2145C61.9087 9.90956 61.8043 9.52675 61.8043 9.06605V1.53409ZM69.7104 11.1541C68.958 11.1541 68.3101 10.9934 67.7665 10.6719C67.2263 10.3471 66.8087 9.89134 66.5137 9.30469C66.222 8.71473 66.0762 8.02367 66.0762 7.23153C66.0762 6.44934 66.222 5.75994 66.5137 5.16335C66.8087 4.56676 67.2196 4.10109 67.7466 3.76633C68.2769 3.43158 68.8967 3.2642 69.606 3.2642C70.0369 3.2642 70.4545 3.33546 70.8588 3.47798C71.2632 3.6205 71.6261 3.84422 71.9476 4.14915C72.2691 4.45407 72.5227 4.85014 72.7083 5.33736C72.8939 5.82126 72.9867 6.40956 72.9867 7.10227V7.62926H66.9164V6.51562H71.53C71.53 6.12453 71.4505 5.77817 71.2914 5.47656C71.1323 5.17164 70.9086 4.93134 70.6202 4.75568C70.3352 4.58002 70.0004 4.49219 69.6159 4.49219C69.1983 4.49219 68.8337 4.59493 68.5222 4.80043C68.214 5.0026 67.9753 5.26776 67.8063 5.59588C67.6406 5.92069 67.5577 6.27367 67.5577 6.65483V7.52486C67.5577 8.03527 67.6472 8.46946 67.8262 8.82741C68.0085 9.18537 68.262 9.45881 68.5868 9.64773C68.9116 9.83333 69.2911 9.92614 69.7253 9.92614C70.007 9.92614 70.2639 9.88636 70.4959 9.80682C70.7279 9.72396 70.9284 9.60133 71.0975 9.43892C71.2665 9.27652 71.3958 9.07599 71.4853 8.83736L72.8922 9.09091C72.7795 9.50521 72.5774 9.86813 72.2857 10.1797C71.9973 10.4879 71.6344 10.7282 71.1969 10.9006C70.7627 11.0696 70.2672 11.1541 69.7104 11.1541ZM76.1225 6.46591V11H74.636V3.36364H76.0629V4.60653H76.1573C76.333 4.20218 76.6081 3.87737 76.9826 3.6321C77.3604 3.38684 77.8361 3.2642 78.4094 3.2642C78.9298 3.2642 79.3855 3.37358 79.7766 3.59233C80.1677 3.80777 80.471 4.12926 80.6864 4.55682C80.9019 4.98437 81.0096 5.51302 81.0096 6.14276V11H79.5231V6.32173C79.5231 5.76823 79.3789 5.3357 79.0906 5.02415C78.8022 4.70928 78.4061 4.55185 77.9023 4.55185C77.5576 4.55185 77.2511 4.62642 76.9826 4.77557C76.7174 4.92472 76.507 5.14347 76.3512 5.43182C76.1987 5.71686 76.1225 6.06155 76.1225 6.46591ZM86.5678 3.36364V4.55682H82.3967V3.36364H86.5678ZM83.5153 1.53409H85.0018V8.75781C85.0018 9.04616 85.0449 9.26326 85.131 9.40909C85.2172 9.55161 85.3282 9.64938 85.4641 9.70241C85.6033 9.75213 85.7541 9.77699 85.9165 9.77699C86.0359 9.77699 86.1403 9.7687 86.2298 9.75213C86.3192 9.73556 86.3888 9.7223 86.4386 9.71236L86.707 10.9403C86.6209 10.9735 86.4982 11.0066 86.3391 11.0398C86.18 11.0762 85.9812 11.0961 85.7425 11.0994C85.3514 11.1061 84.9869 11.0365 84.6488 10.8906C84.3107 10.7448 84.0373 10.5194 83.8285 10.2145C83.6197 9.90956 83.5153 9.52675 83.5153 9.06605V1.53409Z" fill="black"/>
</svg>
