<svg viewBox="0 0 95 12" fill="none" stroke-width="2" stroke="currentColor" aria-hidden="true">
  <path d="M4.83665 7.8331V3.36364H6.32812V11H4.86648V9.67756H4.78693C4.61127 10.0852 4.32955 10.425 3.94176 10.6967C3.55729 10.9652 3.07836 11.0994 2.50497 11.0994C2.01444 11.0994 1.58026 10.9917 1.20241 10.7763C0.827888 10.5575 0.532907 10.2344 0.317472 9.80682C0.10535 9.37926 -0.000710189 8.85062 -0.000710189 8.22088V3.36364H1.4858V8.0419C1.4858 8.56226 1.62997 8.97656 1.91832 9.2848C2.20668 9.59304 2.5812 9.74716 3.0419 9.74716C3.32031 9.74716 3.59706 9.67756 3.87216 9.53835C4.15057 9.39915 4.38092 9.18868 4.56321 8.90696C4.74882 8.62524 4.83996 8.26728 4.83665 7.8331ZM14.0478 5.22798L12.7005 5.46662C12.6441 5.29427 12.5546 5.13021 12.432 4.97443C12.3127 4.81865 12.1503 4.69105 11.9448 4.59162C11.7393 4.49219 11.4824 4.44247 11.1742 4.44247C10.7533 4.44247 10.4019 4.53693 10.1202 4.72585C9.83848 4.91146 9.69762 5.15175 9.69762 5.44673C9.69762 5.70194 9.79208 5.90743 9.981 6.06321C10.1699 6.21899 10.4748 6.34659 10.8958 6.44602L12.1088 6.72443C12.8115 6.88684 13.3352 7.13707 13.6799 7.47514C14.0246 7.81321 14.1969 8.25237 14.1969 8.79261C14.1969 9.25 14.0643 9.65767 13.7992 10.0156C13.5373 10.3703 13.1711 10.6487 12.7005 10.8509C12.2331 11.053 11.6912 11.1541 11.0748 11.1541C10.2196 11.1541 9.52196 10.9718 8.98171 10.6072C8.44147 10.2393 8.11003 9.71733 7.98739 9.04119L9.42418 8.82244C9.51367 9.19697 9.69762 9.48035 9.97603 9.67259C10.2544 9.86151 10.6174 9.95597 11.0648 9.95597C11.552 9.95597 11.9415 9.85488 12.2331 9.6527C12.5248 9.44721 12.6706 9.19697 12.6706 8.90199C12.6706 8.66335 12.5811 8.46283 12.4022 8.30043C12.2265 8.13802 11.9564 8.01539 11.5918 7.93253L10.2992 7.64915C9.58659 7.48674 9.0596 7.22822 8.71822 6.87358C8.38015 6.51894 8.21112 6.06984 8.21112 5.52628C8.21112 5.07552 8.33706 4.68111 8.58896 4.34304C8.84085 4.00497 9.18886 3.74148 9.63299 3.55256C10.0771 3.36032 10.5859 3.2642 11.1593 3.2642C11.9846 3.2642 12.6342 3.44318 13.1081 3.80114C13.5821 4.15578 13.8953 4.63139 14.0478 5.22798ZM19.1225 11.1541C18.3701 11.1541 17.7222 10.9934 17.1786 10.6719C16.6384 10.3471 16.2208 9.89134 15.9258 9.30469C15.6341 8.71473 15.4883 8.02367 15.4883 7.23153C15.4883 6.44934 15.6341 5.75994 15.9258 5.16335C16.2208 4.56676 16.6317 4.10109 17.1587 3.76633C17.689 3.43158 18.3088 3.2642 19.0181 3.2642C19.449 3.2642 19.8666 3.33546 20.271 3.47798C20.6753 3.6205 21.0382 3.84422 21.3597 4.14915C21.6812 4.45407 21.9348 4.85014 22.1204 5.33736C22.306 5.82126 22.3988 6.40956 22.3988 7.10227V7.62926H16.3285V6.51562H20.9421C20.9421 6.12453 20.8626 5.77817 20.7035 5.47656C20.5444 5.17164 20.3207 4.93134 20.0323 4.75568C19.7473 4.58002 19.4125 4.49219 19.0281 4.49219C18.6104 4.49219 18.2459 4.59493 17.9343 4.80043C17.6261 5.0026 17.3874 5.26776 17.2184 5.59588C17.0527 5.92069 16.9698 6.27367 16.9698 6.65483V7.52486C16.9698 8.03527 17.0593 8.46946 17.2383 8.82741C17.4206 9.18537 17.6741 9.45881 17.9989 9.64773C18.3237 9.83333 18.7032 9.92614 19.1374 9.92614C19.4192 9.92614 19.676 9.88636 19.908 9.80682C20.14 9.72396 20.3406 9.60133 20.5096 9.43892C20.6786 9.27652 20.8079 9.07599 20.8974 8.83736L22.3043 9.09091C22.1916 9.50521 21.9895 9.86813 21.6978 10.1797C21.4094 10.4879 21.0465 10.7282 20.609 10.9006C20.1748 11.0696 19.6793 11.1541 19.1225 11.1541ZM24.0481 11V3.36364H25.4849V4.5767H25.5645C25.7037 4.16572 25.9489 3.84257 26.3002 3.60724C26.6549 3.36861 27.0559 3.24929 27.5034 3.24929C27.5962 3.24929 27.7056 3.2526 27.8315 3.25923C27.9608 3.26586 28.0618 3.27415 28.1348 3.28409V4.70597C28.0751 4.68939 27.969 4.67116 27.8166 4.65128C27.6641 4.62808 27.5117 4.61648 27.3592 4.61648C27.0079 4.61648 26.6947 4.69105 26.4196 4.8402C26.1478 4.98603 25.9324 5.18987 25.7733 5.4517C25.6142 5.71023 25.5346 6.00521 25.5346 6.33665V11H24.0481ZM33.4693 6.05327V7.34091H28.9551V6.05327H33.4693ZM35.4505 11V3.36364H36.8773V4.60653H36.9718C37.1309 4.18561 37.391 3.85748 37.7523 3.62216C38.1136 3.38352 38.5461 3.2642 39.0499 3.2642C39.5603 3.2642 39.9879 3.38352 40.3326 3.62216C40.6806 3.8608 40.9374 4.18892 41.1032 4.60653H41.1827C41.365 4.19886 41.655 3.87405 42.0527 3.6321C42.4505 3.38684 42.9244 3.2642 43.4746 3.2642C44.1673 3.2642 44.7324 3.4813 45.1699 3.91548C45.6107 4.34967 45.8311 5.00426 45.8311 5.87926V11H44.3446V6.01847C44.3446 5.50142 44.2038 5.12689 43.9221 4.89489C43.6403 4.66288 43.3039 4.54688 42.9128 4.54688C42.4289 4.54688 42.0527 4.69602 41.7843 4.99432C41.5158 5.2893 41.3816 5.6688 41.3816 6.13281V11H39.9V5.92401C39.9 5.50971 39.7708 5.17661 39.5123 4.92472C39.2537 4.67282 38.9173 4.54688 38.503 4.54688C38.2213 4.54688 37.9611 4.62145 37.7225 4.7706C37.4872 4.91643 37.2966 5.12026 37.1507 5.3821C37.0082 5.64394 36.937 5.94721 36.937 6.2919V11H35.4505ZM47.8235 11V3.36364H49.31V11H47.8235ZM48.5742 2.18537C48.3157 2.18537 48.0936 2.09919 47.908 1.92685C47.7257 1.75118 47.6346 1.54238 47.6346 1.30043C47.6346 1.05516 47.7257 0.846354 47.908 0.674005C48.0936 0.498342 48.3157 0.410511 48.5742 0.410511C48.8327 0.410511 49.0531 0.498342 49.2354 0.674005C49.421 0.846354 49.5138 1.05516 49.5138 1.30043C49.5138 1.54238 49.421 1.75118 49.2354 1.92685C49.0531 2.09919 48.8327 2.18537 48.5742 2.18537ZM52.7963 6.46591V11H51.3098V3.36364H52.7367V4.60653H52.8311C53.0068 4.20218 53.2819 3.87737 53.6564 3.6321C54.0343 3.38684 54.5099 3.2642 55.0833 3.2642C55.6036 3.2642 56.0594 3.37358 56.4505 3.59233C56.8416 3.80777 57.1448 4.12926 57.3603 4.55682C57.5757 4.98437 57.6834 5.51302 57.6834 6.14276V11H56.1969V6.32173C56.1969 5.76823 56.0527 5.3357 55.7644 5.02415C55.476 4.70928 55.08 4.55185 54.5762 4.55185C54.2315 4.55185 53.9249 4.62642 53.6564 4.77557C53.3913 4.92472 53.1808 5.14347 53.025 5.43182C52.8726 5.71686 52.7963 6.06155 52.7963 6.46591ZM64.5144 7.8331V3.36364H66.0059V11H64.5442V9.67756H64.4647C64.289 10.0852 64.0073 10.425 63.6195 10.6967C63.235 10.9652 62.7561 11.0994 62.1827 11.0994C61.6922 11.0994 61.258 10.9917 60.8801 10.7763C60.5056 10.5575 60.2106 10.2344 59.9952 9.80682C59.7831 9.37926 59.677 8.85062 59.677 8.22088V3.36364H61.1635V8.0419C61.1635 8.56226 61.3077 8.97656 61.5961 9.2848C61.8844 9.59304 62.2589 9.74716 62.7196 9.74716C62.998 9.74716 63.2748 9.67756 63.5499 9.53835C63.8283 9.39915 64.0587 9.18868 64.2409 8.90696C64.4266 8.62524 64.5177 8.26728 64.5144 7.8331ZM73.7255 5.22798L72.3782 5.46662C72.3219 5.29427 72.2324 5.13021 72.1097 4.97443C71.9904 4.81865 71.828 4.69105 71.6225 4.59162C71.417 4.49219 71.1602 4.44247 70.8519 4.44247C70.431 4.44247 70.0797 4.53693 69.7979 4.72585C69.5162 4.91146 69.3754 5.15175 69.3754 5.44673C69.3754 5.70194 69.4698 5.90743 69.6587 6.06321C69.8477 6.21899 70.1526 6.34659 70.5735 6.44602L71.7866 6.72443C72.4892 6.88684 73.0129 7.13707 73.3576 7.47514C73.7023 7.81321 73.8746 8.25237 73.8746 8.79261C73.8746 9.25 73.7421 9.65767 73.4769 10.0156C73.2151 10.3703 72.8488 10.6487 72.3782 10.8509C71.9109 11.053 71.369 11.1541 70.7525 11.1541C69.8974 11.1541 69.1997 10.9718 68.6594 10.6072C68.1192 10.2393 67.7878 9.71733 67.6651 9.04119L69.1019 8.82244C69.1914 9.19697 69.3754 9.48035 69.6538 9.67259C69.9322 9.86151 70.2951 9.95597 70.7425 9.95597C71.2298 9.95597 71.6192 9.85488 71.9109 9.6527C72.2025 9.44721 72.3484 9.19697 72.3484 8.90199C72.3484 8.66335 72.2589 8.46283 72.0799 8.30043C71.9042 8.13802 71.6341 8.01539 71.2695 7.93253L69.9769 7.64915C69.2643 7.48674 68.7373 7.22822 68.396 6.87358C68.0579 6.51894 67.8888 6.06984 67.8888 5.52628C67.8888 5.07552 68.0148 4.68111 68.2667 4.34304C68.5186 4.00497 68.8666 3.74148 69.3107 3.55256C69.7549 3.36032 70.2636 3.2642 70.837 3.2642C71.6623 3.2642 72.3119 3.44318 72.7859 3.80114C73.2598 4.15578 73.573 4.63139 73.7255 5.22798ZM80.0083 6.05327V7.34091H75.4941V6.05327H80.0083ZM85.5144 11.169C84.7289 11.1657 84.0577 10.9586 83.5009 10.5476C82.9441 10.1366 82.5182 9.53835 82.2232 8.75284C81.9282 7.96733 81.7807 7.02107 81.7807 5.91406C81.7807 4.81037 81.9282 3.86742 82.2232 3.08523C82.5215 2.30303 82.949 1.70644 83.5059 1.29545C84.066 0.884469 84.7355 0.678977 85.5144 0.678977C86.2933 0.678977 86.9611 0.886126 87.5179 1.30043C88.0748 1.71141 88.5007 2.308 88.7956 3.0902C89.0939 3.86908 89.2431 4.81037 89.2431 5.91406C89.2431 7.02438 89.0956 7.9723 88.8006 8.75781C88.5056 9.54001 88.0797 10.1383 87.5229 10.5526C86.9661 10.9635 86.2966 11.169 85.5144 11.169ZM85.5144 9.84162C86.2038 9.84162 86.7424 9.50521 87.1301 8.83239C87.5212 8.15956 87.7168 7.18679 87.7168 5.91406C87.7168 5.06889 87.6273 4.35464 87.4483 3.77131C87.2727 3.18466 87.0191 2.74053 86.6877 2.43892C86.3596 2.134 85.9685 1.98153 85.5144 1.98153C84.8283 1.98153 84.2897 2.3196 83.8986 2.99574C83.5075 3.67187 83.3103 4.64465 83.307 5.91406C83.307 6.76255 83.3948 7.48011 83.5705 8.06676C83.7495 8.65009 84.003 9.09257 84.3311 9.39418C84.6593 9.69247 85.0537 9.84162 85.5144 9.84162ZM94.8697 0.818182V11H93.3285V2.35938H93.2688L90.8327 3.95028V2.47869L93.3732 0.818182H94.8697Z" fill="black"/>
</svg>
