<svg viewBox="0 0 52 12" fill="none" stroke-width="2" stroke="currentColor" aria-hidden="true">
  <path d="M4.83665 7.8331V3.36364H6.32812V11H4.86648V9.67756H4.78693C4.61127 10.0852 4.32955 10.425 3.94176 10.6967C3.55729 10.9652 3.07836 11.0994 2.50497 11.0994C2.01444 11.0994 1.58026 10.9917 1.20241 10.7763C0.827888 10.5575 0.532907 10.2344 0.317472 9.80682C0.10535 9.37926 -0.000710189 8.85062 -0.000710189 8.22088V3.36364H1.4858V8.0419C1.4858 8.56226 1.62997 8.97656 1.91832 9.2848C2.20668 9.59304 2.5812 9.74716 3.0419 9.74716C3.32031 9.74716 3.59706 9.67756 3.87216 9.53835C4.15057 9.39915 4.38092 9.18868 4.56321 8.90696C4.74882 8.62524 4.83996 8.26728 4.83665 7.8331ZM14.0478 5.22798L12.7005 5.46662C12.6441 5.29427 12.5546 5.13021 12.432 4.97443C12.3127 4.81865 12.1503 4.69105 11.9448 4.59162C11.7393 4.49219 11.4824 4.44247 11.1742 4.44247C10.7533 4.44247 10.4019 4.53693 10.1202 4.72585C9.83848 4.91146 9.69762 5.15175 9.69762 5.44673C9.69762 5.70194 9.79208 5.90743 9.981 6.06321C10.1699 6.21899 10.4748 6.34659 10.8958 6.44602L12.1088 6.72443C12.8115 6.88684 13.3352 7.13707 13.6799 7.47514C14.0246 7.81321 14.1969 8.25237 14.1969 8.79261C14.1969 9.25 14.0643 9.65767 13.7992 10.0156C13.5373 10.3703 13.1711 10.6487 12.7005 10.8509C12.2331 11.053 11.6912 11.1541 11.0748 11.1541C10.2196 11.1541 9.52196 10.9718 8.98171 10.6072C8.44147 10.2393 8.11003 9.71733 7.98739 9.04119L9.42418 8.82244C9.51367 9.19697 9.69762 9.48035 9.97603 9.67259C10.2544 9.86151 10.6174 9.95597 11.0648 9.95597C11.552 9.95597 11.9415 9.85488 12.2331 9.6527C12.5248 9.44721 12.6706 9.19697 12.6706 8.90199C12.6706 8.66335 12.5811 8.46283 12.4022 8.30043C12.2265 8.13802 11.9564 8.01539 11.5918 7.93253L10.2992 7.64915C9.58659 7.48674 9.0596 7.22822 8.71822 6.87358C8.38015 6.51894 8.21112 6.06984 8.21112 5.52628C8.21112 5.07552 8.33706 4.68111 8.58896 4.34304C8.84085 4.00497 9.18886 3.74148 9.63299 3.55256C10.0771 3.36032 10.5859 3.2642 11.1593 3.2642C11.9846 3.2642 12.6342 3.44318 13.1081 3.80114C13.5821 4.15578 13.8953 4.63139 14.0478 5.22798ZM19.1225 11.1541C18.3701 11.1541 17.7222 10.9934 17.1786 10.6719C16.6384 10.3471 16.2208 9.89134 15.9258 9.30469C15.6341 8.71473 15.4883 8.02367 15.4883 7.23153C15.4883 6.44934 15.6341 5.75994 15.9258 5.16335C16.2208 4.56676 16.6317 4.10109 17.1587 3.76633C17.689 3.43158 18.3088 3.2642 19.0181 3.2642C19.449 3.2642 19.8666 3.33546 20.271 3.47798C20.6753 3.6205 21.0382 3.84422 21.3597 4.14915C21.6812 4.45407 21.9348 4.85014 22.1204 5.33736C22.306 5.82126 22.3988 6.40956 22.3988 7.10227V7.62926H16.3285V6.51562H20.9421C20.9421 6.12453 20.8626 5.77817 20.7035 5.47656C20.5444 5.17164 20.3207 4.93134 20.0323 4.75568C19.7473 4.58002 19.4125 4.49219 19.0281 4.49219C18.6104 4.49219 18.2459 4.59493 17.9343 4.80043C17.6261 5.0026 17.3874 5.26776 17.2184 5.59588C17.0527 5.92069 16.9698 6.27367 16.9698 6.65483V7.52486C16.9698 8.03527 17.0593 8.46946 17.2383 8.82741C17.4206 9.18537 17.6741 9.45881 17.9989 9.64773C18.3237 9.83333 18.7032 9.92614 19.1374 9.92614C19.4192 9.92614 19.676 9.88636 19.908 9.80682C20.14 9.72396 20.3406 9.60133 20.5096 9.43892C20.6786 9.27652 20.8079 9.07599 20.8974 8.83736L22.3043 9.09091C22.1916 9.50521 21.9895 9.86813 21.6978 10.1797C21.4094 10.4879 21.0465 10.7282 20.609 10.9006C20.1748 11.0696 19.6793 11.1541 19.1225 11.1541ZM24.0481 11V3.36364H25.4849V4.5767H25.5645C25.7037 4.16572 25.9489 3.84257 26.3002 3.60724C26.6549 3.36861 27.0559 3.24929 27.5034 3.24929C27.5962 3.24929 27.7056 3.2526 27.8315 3.25923C27.9608 3.26586 28.0618 3.27415 28.1348 3.28409V4.70597C28.0751 4.68939 27.969 4.67116 27.8166 4.65128C27.6641 4.62808 27.5117 4.61648 27.3592 4.61648C27.0079 4.61648 26.6947 4.69105 26.4196 4.8402C26.1478 4.98603 25.9324 5.18987 25.7733 5.4517C25.6142 5.71023 25.5346 6.00521 25.5346 6.33665V11H24.0481ZM33.4693 6.05327V7.34091H28.9551V6.05327H33.4693ZM38.9753 11.169C38.1898 11.1657 37.5186 10.9586 36.9618 10.5476C36.405 10.1366 35.9791 9.53835 35.6841 8.75284C35.3891 7.96733 35.2417 7.02107 35.2417 5.91406C35.2417 4.81037 35.3891 3.86742 35.6841 3.08523C35.9824 2.30303 36.41 1.70644 36.9668 1.29545C37.5269 0.884469 38.1964 0.678977 38.9753 0.678977C39.7542 0.678977 40.4221 0.886126 40.9789 1.30043C41.5357 1.71141 41.9616 2.308 42.2566 3.0902C42.5549 3.86908 42.704 4.81037 42.704 5.91406C42.704 7.02438 42.5565 7.9723 42.2615 8.75781C41.9666 9.54001 41.5407 10.1383 40.9838 10.5526C40.427 10.9635 39.7575 11.169 38.9753 11.169ZM38.9753 9.84162C39.6647 9.84162 40.2033 9.50521 40.5911 8.83239C40.9822 8.15956 41.1777 7.18679 41.1777 5.91406C41.1777 5.06889 41.0882 4.35464 40.9093 3.77131C40.7336 3.18466 40.4801 2.74053 40.1486 2.43892C39.8205 2.134 39.4294 1.98153 38.9753 1.98153C38.2892 1.98153 37.7507 2.3196 37.3596 2.99574C36.9685 3.67187 36.7712 4.64465 36.7679 5.91406C36.7679 6.76255 36.8558 7.48011 37.0314 8.06676C37.2104 8.65009 37.464 9.09257 37.7921 9.39418C38.1202 9.69247 38.5146 9.84162 38.9753 9.84162ZM44.4677 11V9.88636L47.913 6.31676C48.2809 5.92898 48.5842 5.58925 48.8228 5.29759C49.0647 5.0026 49.2454 4.72254 49.3647 4.45739C49.484 4.19223 49.5437 3.91051 49.5437 3.61222C49.5437 3.27415 49.4641 2.98248 49.305 2.73722C49.146 2.48864 48.9289 2.29806 48.6538 2.16548C48.3787 2.02959 48.0688 1.96165 47.7241 1.96165C47.3595 1.96165 47.0413 2.03622 46.7695 2.18537C46.4978 2.33452 46.2889 2.54498 46.1431 2.81676C45.9973 3.08854 45.9244 3.40672 45.9244 3.77131H44.4577C44.4577 3.15151 44.6003 2.60961 44.8853 2.1456C45.1703 1.68158 45.5614 1.32197 46.0586 1.06676C46.5558 0.808238 47.1209 0.678977 47.7539 0.678977C48.3936 0.678977 48.957 0.806581 49.4442 1.06179C49.9348 1.31368 50.3176 1.65838 50.5927 2.09588C50.8678 2.53007 51.0053 3.0206 51.0053 3.56747C51.0053 3.94531 50.9341 4.31487 50.7915 4.67614C50.6523 5.0374 50.4087 5.4401 50.0607 5.88423C49.7127 6.32505 49.2288 6.86032 48.609 7.49006L46.5856 9.60795V9.68253H51.1694V11H44.4677Z" fill="black"/>
</svg>
