<svg viewBox="0 0 70 12" fill="none" stroke-width="2" stroke="currentColor" aria-hidden="true">
  <path d="M4.83665 7.8331V3.36364H6.32812V11H4.86648V9.67756H4.78693C4.61127 10.0852 4.32955 10.425 3.94176 10.6967C3.55729 10.9652 3.07836 11.0994 2.50497 11.0994C2.01444 11.0994 1.58026 10.9917 1.20241 10.7763C0.827888 10.5575 0.532907 10.2344 0.317472 9.80682C0.10535 9.37926 -0.000710189 8.85062 -0.000710189 8.22088V3.36364H1.4858V8.0419C1.4858 8.56226 1.62997 8.97656 1.91832 9.2848C2.20668 9.59304 2.5812 9.74716 3.0419 9.74716C3.32031 9.74716 3.59706 9.67756 3.87216 9.53835C4.15057 9.39915 4.38092 9.18868 4.56321 8.90696C4.74882 8.62524 4.83996 8.26728 4.83665 7.8331ZM14.0478 5.22798L12.7005 5.46662C12.6441 5.29427 12.5546 5.13021 12.432 4.97443C12.3127 4.81865 12.1503 4.69105 11.9448 4.59162C11.7393 4.49219 11.4824 4.44247 11.1742 4.44247C10.7533 4.44247 10.4019 4.53693 10.1202 4.72585C9.83848 4.91146 9.69762 5.15175 9.69762 5.44673C9.69762 5.70194 9.79208 5.90743 9.981 6.06321C10.1699 6.21899 10.4748 6.34659 10.8958 6.44602L12.1088 6.72443C12.8115 6.88684 13.3352 7.13707 13.6799 7.47514C14.0246 7.81321 14.1969 8.25237 14.1969 8.79261C14.1969 9.25 14.0643 9.65767 13.7992 10.0156C13.5373 10.3703 13.1711 10.6487 12.7005 10.8509C12.2331 11.053 11.6912 11.1541 11.0748 11.1541C10.2196 11.1541 9.52196 10.9718 8.98171 10.6072C8.44147 10.2393 8.11003 9.71733 7.98739 9.04119L9.42418 8.82244C9.51367 9.19697 9.69762 9.48035 9.97603 9.67259C10.2544 9.86151 10.6174 9.95597 11.0648 9.95597C11.552 9.95597 11.9415 9.85488 12.2331 9.6527C12.5248 9.44721 12.6706 9.19697 12.6706 8.90199C12.6706 8.66335 12.5811 8.46283 12.4022 8.30043C12.2265 8.13802 11.9564 8.01539 11.5918 7.93253L10.2992 7.64915C9.58659 7.48674 9.0596 7.22822 8.71822 6.87358C8.38015 6.51894 8.21112 6.06984 8.21112 5.52628C8.21112 5.07552 8.33706 4.68111 8.58896 4.34304C8.84085 4.00497 9.18886 3.74148 9.63299 3.55256C10.0771 3.36032 10.5859 3.2642 11.1593 3.2642C11.9846 3.2642 12.6342 3.44318 13.1081 3.80114C13.5821 4.15578 13.8953 4.63139 14.0478 5.22798ZM19.1225 11.1541C18.3701 11.1541 17.7222 10.9934 17.1786 10.6719C16.6384 10.3471 16.2208 9.89134 15.9258 9.30469C15.6341 8.71473 15.4883 8.02367 15.4883 7.23153C15.4883 6.44934 15.6341 5.75994 15.9258 5.16335C16.2208 4.56676 16.6317 4.10109 17.1587 3.76633C17.689 3.43158 18.3088 3.2642 19.0181 3.2642C19.449 3.2642 19.8666 3.33546 20.271 3.47798C20.6753 3.6205 21.0382 3.84422 21.3597 4.14915C21.6812 4.45407 21.9348 4.85014 22.1204 5.33736C22.306 5.82126 22.3988 6.40956 22.3988 7.10227V7.62926H16.3285V6.51562H20.9421C20.9421 6.12453 20.8626 5.77817 20.7035 5.47656C20.5444 5.17164 20.3207 4.93134 20.0323 4.75568C19.7473 4.58002 19.4125 4.49219 19.0281 4.49219C18.6104 4.49219 18.2459 4.59493 17.9343 4.80043C17.6261 5.0026 17.3874 5.26776 17.2184 5.59588C17.0527 5.92069 16.9698 6.27367 16.9698 6.65483V7.52486C16.9698 8.03527 17.0593 8.46946 17.2383 8.82741C17.4206 9.18537 17.6741 9.45881 17.9989 9.64773C18.3237 9.83333 18.7032 9.92614 19.1374 9.92614C19.4192 9.92614 19.676 9.88636 19.908 9.80682C20.14 9.72396 20.3406 9.60133 20.5096 9.43892C20.6786 9.27652 20.8079 9.07599 20.8974 8.83736L22.3043 9.09091C22.1916 9.50521 21.9895 9.86813 21.6978 10.1797C21.4094 10.4879 21.0465 10.7282 20.609 10.9006C20.1748 11.0696 19.6793 11.1541 19.1225 11.1541ZM24.0481 11V3.36364H25.4849V4.5767H25.5645C25.7037 4.16572 25.9489 3.84257 26.3002 3.60724C26.6549 3.36861 27.0559 3.24929 27.5034 3.24929C27.5962 3.24929 27.7056 3.2526 27.8315 3.25923C27.9608 3.26586 28.0618 3.27415 28.1348 3.28409V4.70597C28.0751 4.68939 27.969 4.67116 27.8166 4.65128C27.6641 4.62808 27.5117 4.61648 27.3592 4.61648C27.0079 4.61648 26.6947 4.69105 26.4196 4.8402C26.1478 4.98603 25.9324 5.18987 25.7733 5.4517C25.6142 5.71023 25.5346 6.00521 25.5346 6.33665V11H24.0481ZM33.4693 6.05327V7.34091H28.9551V6.05327H33.4693ZM38.6671 11.1541C37.928 11.1541 37.2916 10.9867 36.758 10.652C36.2277 10.3139 35.82 9.84825 35.535 9.25497C35.2499 8.66169 35.1074 7.98224 35.1074 7.21662C35.1074 6.44105 35.2533 5.75663 35.5449 5.16335C35.8366 4.56676 36.2476 4.10109 36.7779 3.76633C37.3082 3.43158 37.9329 3.2642 38.6522 3.2642C39.2322 3.2642 39.7492 3.37192 40.2033 3.58736C40.6574 3.79948 41.0236 4.09777 41.302 4.48224C41.5837 4.86671 41.7511 5.31581 41.8042 5.82955H40.3574C40.2779 5.47159 40.0956 5.16335 39.8105 4.90483C39.5288 4.64631 39.151 4.51705 38.677 4.51705C38.2627 4.51705 37.8998 4.62642 37.5882 4.84517C37.28 5.06061 37.0397 5.36884 36.8674 5.76989C36.695 6.16761 36.6088 6.63826 36.6088 7.18182C36.6088 7.73864 36.6934 8.21922 36.8624 8.62358C37.0314 9.02794 37.2701 9.34115 37.5783 9.56321C37.8899 9.78527 38.2561 9.89631 38.677 9.89631C38.9587 9.89631 39.214 9.84493 39.4426 9.74219C39.6747 9.63613 39.8685 9.48532 40.0243 9.28977C40.1834 9.09422 40.2944 8.8589 40.3574 8.58381H41.8042C41.7511 9.07765 41.5904 9.51847 41.3219 9.90625C41.0534 10.294 40.6938 10.599 40.2431 10.821C39.7956 11.0431 39.2703 11.1541 38.6671 11.1541ZM43.3938 11V3.36364H44.8803V11H43.3938ZM44.1445 2.18537C43.886 2.18537 43.6639 2.09919 43.4783 1.92685C43.296 1.75118 43.2049 1.54238 43.2049 1.30043C43.2049 1.05516 43.296 0.846354 43.4783 0.674005C43.6639 0.498342 43.886 0.410511 44.1445 0.410511C44.4031 0.410511 44.6235 0.498342 44.8058 0.674005C44.9914 0.846354 45.0842 1.05516 45.0842 1.30043C45.0842 1.54238 44.9914 1.75118 44.8058 1.92685C44.6235 2.09919 44.4031 2.18537 44.1445 2.18537ZM46.8801 11V3.36364H48.3169V4.5767H48.3965C48.5357 4.16572 48.781 3.84257 49.1323 3.60724C49.4869 3.36861 49.888 3.24929 50.3354 3.24929C50.4282 3.24929 50.5376 3.2526 50.6635 3.25923C50.7928 3.26586 50.8939 3.27415 50.9668 3.28409V4.70597C50.9071 4.68939 50.8011 4.67116 50.6486 4.65128C50.4962 4.62808 50.3437 4.61648 50.1912 4.61648C49.8399 4.61648 49.5267 4.69105 49.2516 4.8402C48.9798 4.98603 48.7644 5.18987 48.6053 5.4517C48.4462 5.71023 48.3667 6.00521 48.3667 6.33665V11H46.8801ZM55.1964 11.1541C54.4573 11.1541 53.8209 10.9867 53.2873 10.652C52.757 10.3139 52.3493 9.84825 52.0643 9.25497C51.7792 8.66169 51.6367 7.98224 51.6367 7.21662C51.6367 6.44105 51.7826 5.75663 52.0742 5.16335C52.3659 4.56676 52.7769 4.10109 53.3072 3.76633C53.8375 3.43158 54.4622 3.2642 55.1815 3.2642C55.7615 3.2642 56.2785 3.37192 56.7326 3.58736C57.1867 3.79948 57.5529 4.09777 57.8313 4.48224C58.113 4.86671 58.2804 5.31581 58.3335 5.82955H56.8867C56.8072 5.47159 56.6249 5.16335 56.3398 4.90483C56.0581 4.64631 55.6803 4.51705 55.2063 4.51705C54.792 4.51705 54.4291 4.62642 54.1175 4.84517C53.8093 5.06061 53.569 5.36884 53.3967 5.76989C53.2243 6.16761 53.1381 6.63826 53.1381 7.18182C53.1381 7.73864 53.2227 8.21922 53.3917 8.62358C53.5607 9.02794 53.7994 9.34115 54.1076 9.56321C54.4192 9.78527 54.7854 9.89631 55.2063 9.89631C55.488 9.89631 55.7433 9.84493 55.9719 9.74219C56.204 9.63613 56.3978 9.48532 56.5536 9.28977C56.7127 9.09422 56.8237 8.8589 56.8867 8.58381H58.3335C58.2804 9.07765 58.1197 9.51847 57.8512 9.90625C57.5827 10.294 57.2231 10.599 56.7724 10.821C56.3249 11.0431 55.7996 11.1541 55.1964 11.1541ZM61.4096 0.818182V11H59.9231V0.818182H61.4096ZM66.7006 11.1541C65.9483 11.1541 65.3003 10.9934 64.7567 10.6719C64.2165 10.3471 63.7989 9.89134 63.5039 9.30469C63.2122 8.71473 63.0664 8.02367 63.0664 7.23153C63.0664 6.44934 63.2122 5.75994 63.5039 5.16335C63.7989 4.56676 64.2099 4.10109 64.7369 3.76633C65.2672 3.43158 65.887 3.2642 66.5962 3.2642C67.0271 3.2642 67.4447 3.33546 67.8491 3.47798C68.2534 3.6205 68.6164 3.84422 68.9379 4.14915C69.2594 4.45407 69.5129 4.85014 69.6985 5.33736C69.8841 5.82126 69.9769 6.40956 69.9769 7.10227V7.62926H63.9066V6.51562H68.5202C68.5202 6.12453 68.4407 5.77817 68.2816 5.47656C68.1225 5.17164 67.8988 4.93134 67.6104 4.75568C67.3254 4.58002 66.9906 4.49219 66.6062 4.49219C66.1886 4.49219 65.824 4.59493 65.5124 4.80043C65.2042 5.0026 64.9656 5.26776 64.7965 5.59588C64.6308 5.92069 64.5479 6.27367 64.5479 6.65483V7.52486C64.5479 8.03527 64.6374 8.46946 64.8164 8.82741C64.9987 9.18537 65.2522 9.45881 65.5771 9.64773C65.9019 9.83333 66.2814 9.92614 66.7156 9.92614C66.9973 9.92614 67.2541 9.88636 67.4862 9.80682C67.7182 9.72396 67.9187 9.60133 68.0877 9.43892C68.2567 9.27652 68.386 9.07599 68.4755 8.83736L69.8825 9.09091C69.7698 9.50521 69.5676 9.86813 69.2759 10.1797C68.9876 10.4879 68.6246 10.7282 68.1871 10.9006C67.753 11.0696 67.2575 11.1541 66.7006 11.1541Z" fill="black"/>
</svg>
