<svg viewBox="0 0 59 12" fill="none" stroke-width="2" stroke="currentColor" aria-hidden="true">
  <path d="M4.63352 3.36364V4.55682H0.318182V3.36364H4.63352ZM1.50142 11V2.47869C1.50142 2.00142 1.60582 1.60535 1.81463 1.29048C2.02344 0.972301 2.30019 0.735322 2.64489 0.579545C2.98958 0.420454 3.36411 0.340908 3.76847 0.340908C4.06676 0.340908 4.32197 0.365767 4.53409 0.415483C4.74621 0.461884 4.90365 0.504971 5.00639 0.544744L4.65838 1.74787C4.58878 1.72798 4.49929 1.70478 4.38991 1.67827C4.28054 1.64844 4.14796 1.63352 3.99219 1.63352C3.63092 1.63352 3.3724 1.72301 3.21662 1.90199C3.06416 2.08097 2.98793 2.33949 2.98793 2.67756V11H1.50142ZM8.15714 11.169C7.67324 11.169 7.23574 11.0795 6.84464 10.9006C6.45354 10.7183 6.14364 10.4548 5.91495 10.1101C5.68957 9.76539 5.57688 9.3428 5.57688 8.84233C5.57688 8.41146 5.65974 8.05682 5.82546 7.77841C5.99118 7.5 6.2149 7.27959 6.49663 7.11719C6.77835 6.95478 7.09322 6.83215 7.44123 6.74929C7.78924 6.66643 8.14388 6.60346 8.50515 6.56037C8.96254 6.50734 9.33375 6.46425 9.61879 6.43111C9.90382 6.39465 10.111 6.33665 10.2402 6.2571C10.3695 6.17756 10.4341 6.0483 10.4341 5.86932V5.83452C10.4341 5.40033 10.3115 5.06392 10.0662 4.82528C9.82428 4.58665 9.46301 4.46733 8.98242 4.46733C8.48195 4.46733 8.08754 4.57836 7.79918 4.80043C7.51415 5.01918 7.31694 5.26278 7.20756 5.53125L5.81055 5.21307C5.97627 4.74905 6.21822 4.37453 6.5364 4.08949C6.8579 3.80114 7.22745 3.59233 7.64506 3.46307C8.06268 3.33049 8.50183 3.2642 8.96254 3.2642C9.26746 3.2642 9.59061 3.30066 9.932 3.37358C10.2767 3.44318 10.5982 3.57244 10.8965 3.76136C11.1981 3.95028 11.445 4.22041 11.6373 4.57173C11.8295 4.91974 11.9256 5.37216 11.9256 5.92898V11H10.4739V9.95597H10.4142C10.3181 10.1482 10.1739 10.3371 9.98171 10.5227C9.78948 10.7083 9.54255 10.8625 9.24094 10.9851C8.93933 11.1077 8.57807 11.169 8.15714 11.169ZM8.48029 9.97585C8.89128 9.97585 9.2426 9.89465 9.53427 9.73224C9.82925 9.56984 10.053 9.35772 10.2054 9.09588C10.3612 8.83073 10.4391 8.54735 10.4391 8.24574V7.26136C10.3861 7.31439 10.2833 7.36411 10.1309 7.41051C9.98171 7.4536 9.81102 7.49171 9.61879 7.52486C9.42655 7.55469 9.23929 7.58286 9.057 7.60938C8.8747 7.63258 8.72224 7.65246 8.59961 7.66903C8.31126 7.70549 8.04776 7.76681 7.80913 7.85298C7.5738 7.93916 7.38488 8.06345 7.24237 8.22585C7.10316 8.38494 7.03356 8.59706 7.03356 8.86222C7.03356 9.23011 7.16945 9.50852 7.44123 9.69744C7.71301 9.88305 8.05936 9.97585 8.48029 9.97585ZM17.1222 11.1541C16.383 11.1541 15.7467 10.9867 15.2131 10.652C14.6828 10.3139 14.2751 9.84825 13.9901 9.25497C13.705 8.66169 13.5625 7.98224 13.5625 7.21662C13.5625 6.44105 13.7083 5.75663 14 5.16335C14.2917 4.56676 14.7027 4.10109 15.233 3.76633C15.7633 3.43158 16.388 3.2642 17.1072 3.2642C17.6873 3.2642 18.2043 3.37192 18.6584 3.58736C19.1125 3.79948 19.4787 4.09777 19.7571 4.48224C20.0388 4.86671 20.2062 5.31581 20.2592 5.82955H18.8125C18.733 5.47159 18.5507 5.16335 18.2656 4.90483C17.9839 4.64631 17.6061 4.51705 17.1321 4.51705C16.7178 4.51705 16.3549 4.62642 16.0433 4.84517C15.7351 5.06061 15.4948 5.36884 15.3224 5.76989C15.1501 6.16761 15.0639 6.63826 15.0639 7.18182C15.0639 7.73864 15.1484 8.21922 15.3175 8.62358C15.4865 9.02794 15.7251 9.34115 16.0334 9.56321C16.3449 9.78527 16.7112 9.89631 17.1321 9.89631C17.4138 9.89631 17.669 9.84493 17.8977 9.74219C18.1297 9.63613 18.3236 9.48532 18.4794 9.28977C18.6385 9.09422 18.7495 8.8589 18.8125 8.58381H20.2592C20.2062 9.07765 20.0455 9.51847 19.777 9.90625C19.5085 10.294 19.1489 10.599 18.6982 10.821C18.2507 11.0431 17.7254 11.1541 17.1222 11.1541ZM25.1401 11.1541C24.3877 11.1541 23.7398 10.9934 23.1962 10.6719C22.656 10.3471 22.2383 9.89134 21.9434 9.30469C21.6517 8.71473 21.5059 8.02367 21.5059 7.23153C21.5059 6.44934 21.6517 5.75994 21.9434 5.16335C22.2383 4.56676 22.6493 4.10109 23.1763 3.76633C23.7066 3.43158 24.3264 3.2642 25.0357 3.2642C25.4666 3.2642 25.8842 3.33546 26.2885 3.47798C26.6929 3.6205 27.0558 3.84422 27.3773 4.14915C27.6988 4.45407 27.9524 4.85014 28.138 5.33736C28.3236 5.82126 28.4164 6.40956 28.4164 7.10227V7.62926H22.3461V6.51562H26.9597C26.9597 6.12453 26.8801 5.77817 26.7211 5.47656C26.562 5.17164 26.3382 4.93134 26.0499 4.75568C25.7649 4.58002 25.4301 4.49219 25.0456 4.49219C24.628 4.49219 24.2634 4.59493 23.9519 4.80043C23.6436 5.0026 23.405 5.26776 23.236 5.59588C23.0703 5.92069 22.9874 6.27367 22.9874 6.65483V7.52486C22.9874 8.03527 23.0769 8.46946 23.2559 8.82741C23.4382 9.18537 23.6917 9.45881 24.0165 9.64773C24.3413 9.83333 24.7208 9.92614 25.155 9.92614C25.4367 9.92614 25.6936 9.88636 25.9256 9.80682C26.1576 9.72396 26.3581 9.60133 26.5272 9.43892C26.6962 9.27652 26.8255 9.07599 26.915 8.83736L28.3219 9.09091C28.2092 9.50521 28.007 9.86813 27.7154 10.1797C27.427 10.4879 27.0641 10.7282 26.6266 10.9006C26.1924 11.0696 25.6969 11.1541 25.1401 11.1541ZM34.565 6.05327V7.34091H30.0508V6.05327H34.565ZM42.2685 5.22798L40.9212 5.46662C40.8648 5.29427 40.7753 5.13021 40.6527 4.97443C40.5334 4.81865 40.371 4.69105 40.1655 4.59162C39.96 4.49219 39.7031 4.44247 39.3949 4.44247C38.974 4.44247 38.6226 4.53693 38.3409 4.72585C38.0592 4.91146 37.9183 5.15175 37.9183 5.44673C37.9183 5.70194 38.0128 5.90743 38.2017 6.06321C38.3906 6.21899 38.6955 6.34659 39.1165 6.44602L40.3295 6.72443C41.0322 6.88684 41.5559 7.13707 41.9006 7.47514C42.2453 7.81321 42.4176 8.25237 42.4176 8.79261C42.4176 9.25 42.285 9.65767 42.0199 10.0156C41.758 10.3703 41.3918 10.6487 40.9212 10.8509C40.4538 11.053 39.9119 11.1541 39.2955 11.1541C38.4403 11.1541 37.7427 10.9718 37.2024 10.6072C36.6622 10.2393 36.3307 9.71733 36.2081 9.04119L37.6449 8.82244C37.7344 9.19697 37.9183 9.48035 38.1967 9.67259C38.4751 9.86151 38.8381 9.95597 39.2855 9.95597C39.7727 9.95597 40.1622 9.85488 40.4538 9.6527C40.7455 9.44721 40.8913 9.19697 40.8913 8.90199C40.8913 8.66335 40.8018 8.46283 40.6229 8.30043C40.4472 8.13802 40.1771 8.01539 39.8125 7.93253L38.5199 7.64915C37.8073 7.48674 37.2803 7.22822 36.9389 6.87358C36.6009 6.51894 36.4318 6.06984 36.4318 5.52628C36.4318 5.07552 36.5578 4.68111 36.8097 4.34304C37.0616 4.00497 37.4096 3.74148 37.8537 3.55256C38.2978 3.36032 38.8066 3.2642 39.38 3.2642C40.2053 3.2642 40.8549 3.44318 41.3288 3.80114C41.8028 4.15578 42.116 4.63139 42.2685 5.22798ZM46.2743 11.169C45.7904 11.169 45.3529 11.0795 44.9618 10.9006C44.5707 10.7183 44.2608 10.4548 44.0321 10.1101C43.8068 9.76539 43.6941 9.3428 43.6941 8.84233C43.6941 8.41146 43.7769 8.05682 43.9426 7.77841C44.1084 7.5 44.3321 7.27959 44.6138 7.11719C44.8955 6.95478 45.2104 6.83215 45.5584 6.74929C45.9064 6.66643 46.2611 6.60346 46.6223 6.56037C47.0797 6.50734 47.4509 6.46425 47.736 6.43111C48.021 6.39465 48.2282 6.33665 48.3574 6.2571C48.4867 6.17756 48.5513 6.0483 48.5513 5.86932V5.83452C48.5513 5.40033 48.4287 5.06392 48.1834 4.82528C47.9415 4.58665 47.5802 4.46733 47.0996 4.46733C46.5991 4.46733 46.2047 4.57836 45.9164 4.80043C45.6313 5.01918 45.4341 5.26278 45.3248 5.53125L43.9277 5.21307C44.0935 4.74905 44.3354 4.37453 44.6536 4.08949C44.9751 3.80114 45.3446 3.59233 45.7623 3.46307C46.1799 3.33049 46.619 3.2642 47.0797 3.2642C47.3846 3.2642 47.7078 3.30066 48.0492 3.37358C48.3939 3.44318 48.7154 3.57244 49.0137 3.76136C49.3153 3.95028 49.5622 4.22041 49.7544 4.57173C49.9467 4.91974 50.0428 5.37216 50.0428 5.92898V11H48.5911V9.95597H48.5314C48.4353 10.1482 48.2911 10.3371 48.0989 10.5227C47.9067 10.7083 47.6597 10.8625 47.3581 10.9851C47.0565 11.1077 46.6953 11.169 46.2743 11.169ZM46.5975 9.97585C47.0085 9.97585 47.3598 9.89465 47.6515 9.73224C47.9464 9.56984 48.1702 9.35772 48.3226 9.09588C48.4784 8.83073 48.5563 8.54735 48.5563 8.24574V7.26136C48.5033 7.31439 48.4005 7.36411 48.248 7.41051C48.0989 7.4536 47.9282 7.49171 47.736 7.52486C47.5437 7.55469 47.3565 7.58286 47.1742 7.60938C46.9919 7.63258 46.8394 7.65246 46.7168 7.66903C46.4284 7.70549 46.165 7.76681 45.9263 7.85298C45.691 7.93916 45.5021 8.06345 45.3596 8.22585C45.2203 8.38494 45.1507 8.59706 45.1507 8.86222C45.1507 9.23011 45.2866 9.50852 45.5584 9.69744C45.8302 9.88305 46.1766 9.97585 46.5975 9.97585ZM54.8814 11.1491C54.2649 11.1491 53.7147 10.9917 53.2308 10.6768C52.7502 10.3587 52.3724 9.90625 52.0973 9.3196C51.8255 8.72964 51.6896 8.02202 51.6896 7.19673C51.6896 6.37145 51.8272 5.66548 52.1023 5.07884C52.3807 4.49219 52.7618 4.04309 53.2457 3.73153C53.7296 3.41998 54.2782 3.2642 54.8913 3.2642C55.3653 3.2642 55.7464 3.34375 56.0348 3.50284C56.3265 3.65862 56.5518 3.84091 56.7109 4.04972C56.8733 4.25852 56.9993 4.44247 57.0888 4.60156H57.1783V0.818182H58.6648V11H57.2131V9.81179H57.0888C56.9993 9.9742 56.87 10.1598 56.701 10.3686C56.5353 10.5774 56.3066 10.7597 56.0149 10.9155C55.7232 11.0713 55.3454 11.1491 54.8814 11.1491ZM55.2095 9.88139C55.6371 9.88139 55.9983 9.7687 56.2933 9.54332C56.5916 9.31463 56.817 8.99811 56.9695 8.59375C57.1252 8.18939 57.2031 7.71875 57.2031 7.18182C57.2031 6.65151 57.1269 6.1875 56.9744 5.78977C56.822 5.39205 56.5982 5.08215 56.3033 4.86009C56.0083 4.63802 55.6437 4.52699 55.2095 4.52699C54.7621 4.52699 54.3892 4.64299 54.0909 4.875C53.7926 5.10701 53.5672 5.42353 53.4148 5.82457C53.2656 6.22562 53.1911 6.67803 53.1911 7.18182C53.1911 7.69223 53.2673 8.15128 53.4197 8.55895C53.5722 8.96662 53.7976 9.28977 54.0959 9.52841C54.3975 9.76373 54.7687 9.88139 55.2095 9.88139Z" fill="black"/>
</svg>
