<svg viewBox="0 0 89 15" fill="none" stroke-width="2" stroke="currentColor" aria-hidden="true">
  <path d="M4.83665 7.8331V3.36364H6.32812V11H4.86648V9.67756H4.78693C4.61127 10.0852 4.32955 10.425 3.94176 10.6967C3.55729 10.9652 3.07836 11.0994 2.50497 11.0994C2.01444 11.0994 1.58026 10.9917 1.20241 10.7763C0.827888 10.5575 0.532907 10.2344 0.317472 9.80682C0.10535 9.37926 -0.000710189 8.85062 -0.000710189 8.22088V3.36364H1.4858V8.0419C1.4858 8.56226 1.62997 8.97656 1.91832 9.2848C2.20668 9.59304 2.5812 9.74716 3.0419 9.74716C3.32031 9.74716 3.59706 9.67756 3.87216 9.53835C4.15057 9.39915 4.38092 9.18868 4.56321 8.90696C4.74882 8.62524 4.83996 8.26728 4.83665 7.8331ZM14.0478 5.22798L12.7005 5.46662C12.6441 5.29427 12.5546 5.13021 12.432 4.97443C12.3127 4.81865 12.1503 4.69105 11.9448 4.59162C11.7393 4.49219 11.4824 4.44247 11.1742 4.44247C10.7533 4.44247 10.4019 4.53693 10.1202 4.72585C9.83848 4.91146 9.69762 5.15175 9.69762 5.44673C9.69762 5.70194 9.79208 5.90743 9.981 6.06321C10.1699 6.21899 10.4748 6.34659 10.8958 6.44602L12.1088 6.72443C12.8115 6.88684 13.3352 7.13707 13.6799 7.47514C14.0246 7.81321 14.1969 8.25237 14.1969 8.79261C14.1969 9.25 14.0643 9.65767 13.7992 10.0156C13.5373 10.3703 13.1711 10.6487 12.7005 10.8509C12.2331 11.053 11.6912 11.1541 11.0748 11.1541C10.2196 11.1541 9.52196 10.9718 8.98171 10.6072C8.44147 10.2393 8.11003 9.71733 7.98739 9.04119L9.42418 8.82244C9.51367 9.19697 9.69762 9.48035 9.97603 9.67259C10.2544 9.86151 10.6174 9.95597 11.0648 9.95597C11.552 9.95597 11.9415 9.85488 12.2331 9.6527C12.5248 9.44721 12.6706 9.19697 12.6706 8.90199C12.6706 8.66335 12.5811 8.46283 12.4022 8.30043C12.2265 8.13802 11.9564 8.01539 11.5918 7.93253L10.2992 7.64915C9.58659 7.48674 9.0596 7.22822 8.71822 6.87358C8.38015 6.51894 8.21112 6.06984 8.21112 5.52628C8.21112 5.07552 8.33706 4.68111 8.58896 4.34304C8.84085 4.00497 9.18886 3.74148 9.63299 3.55256C10.0771 3.36032 10.5859 3.2642 11.1593 3.2642C11.9846 3.2642 12.6342 3.44318 13.1081 3.80114C13.5821 4.15578 13.8953 4.63139 14.0478 5.22798ZM19.1225 11.1541C18.3701 11.1541 17.7222 10.9934 17.1786 10.6719C16.6384 10.3471 16.2208 9.89134 15.9258 9.30469C15.6341 8.71473 15.4883 8.02367 15.4883 7.23153C15.4883 6.44934 15.6341 5.75994 15.9258 5.16335C16.2208 4.56676 16.6317 4.10109 17.1587 3.76633C17.689 3.43158 18.3088 3.2642 19.0181 3.2642C19.449 3.2642 19.8666 3.33546 20.271 3.47798C20.6753 3.6205 21.0382 3.84422 21.3597 4.14915C21.6812 4.45407 21.9348 4.85014 22.1204 5.33736C22.306 5.82126 22.3988 6.40956 22.3988 7.10227V7.62926H16.3285V6.51562H20.9421C20.9421 6.12453 20.8626 5.77817 20.7035 5.47656C20.5444 5.17164 20.3207 4.93134 20.0323 4.75568C19.7473 4.58002 19.4125 4.49219 19.0281 4.49219C18.6104 4.49219 18.2459 4.59493 17.9343 4.80043C17.6261 5.0026 17.3874 5.26776 17.2184 5.59588C17.0527 5.92069 16.9698 6.27367 16.9698 6.65483V7.52486C16.9698 8.03527 17.0593 8.46946 17.2383 8.82741C17.4206 9.18537 17.6741 9.45881 17.9989 9.64773C18.3237 9.83333 18.7032 9.92614 19.1374 9.92614C19.4192 9.92614 19.676 9.88636 19.908 9.80682C20.14 9.72396 20.3406 9.60133 20.5096 9.43892C20.6786 9.27652 20.8079 9.07599 20.8974 8.83736L22.3043 9.09091C22.1916 9.50521 21.9895 9.86813 21.6978 10.1797C21.4094 10.4879 21.0465 10.7282 20.609 10.9006C20.1748 11.0696 19.6793 11.1541 19.1225 11.1541ZM24.0481 11V3.36364H25.4849V4.5767H25.5645C25.7037 4.16572 25.9489 3.84257 26.3002 3.60724C26.6549 3.36861 27.0559 3.24929 27.5034 3.24929C27.5962 3.24929 27.7056 3.2526 27.8315 3.25923C27.9608 3.26586 28.0618 3.27415 28.1348 3.28409V4.70597C28.0751 4.68939 27.969 4.67116 27.8166 4.65128C27.6641 4.62808 27.5117 4.61648 27.3592 4.61648C27.0079 4.61648 26.6947 4.69105 26.4196 4.8402C26.1478 4.98603 25.9324 5.18987 25.7733 5.4517C25.6142 5.71023 25.5346 6.00521 25.5346 6.33665V11H24.0481ZM33.4693 6.05327V7.34091H28.9551V6.05327H33.4693ZM35.4505 11V3.36364H36.8873V4.5767H36.9668C37.106 4.16572 37.3513 3.84257 37.7026 3.60724C38.0572 3.36861 38.4583 3.24929 38.9057 3.24929C38.9985 3.24929 39.1079 3.2526 39.2338 3.25923C39.3631 3.26586 39.4642 3.27415 39.5371 3.28409V4.70597C39.4775 4.68939 39.3714 4.67116 39.2189 4.65128C39.0665 4.62808 38.914 4.61648 38.7615 4.61648C38.4102 4.61648 38.097 4.69105 37.8219 4.8402C37.5501 4.98603 37.3347 5.18987 37.1756 5.4517C37.0165 5.71023 36.937 6.00521 36.937 6.33665V11H35.4505ZM40.8235 11V3.36364H42.31V11H40.8235ZM41.5742 2.18537C41.3157 2.18537 41.0936 2.09919 40.908 1.92685C40.7257 1.75118 40.6346 1.54238 40.6346 1.30043C40.6346 1.05516 40.7257 0.846354 40.908 0.674005C41.0936 0.498342 41.3157 0.410511 41.5742 0.410511C41.8327 0.410511 42.0531 0.498342 42.2354 0.674005C42.421 0.846354 42.5138 1.05516 42.5138 1.30043C42.5138 1.54238 42.421 1.75118 42.2354 1.92685C42.0531 2.09919 41.8327 2.18537 41.5742 2.18537ZM47.5115 14.0227C46.905 14.0227 46.383 13.9432 45.9455 13.7841C45.5113 13.625 45.1567 13.4145 44.8816 13.1527C44.6065 12.8909 44.401 12.6042 44.2651 12.2926L45.5428 11.7656C45.6323 11.9115 45.7516 12.0656 45.9007 12.228C46.0532 12.3937 46.2587 12.5346 46.5172 12.6506C46.7791 12.7666 47.1155 12.8246 47.5265 12.8246C48.0899 12.8246 48.5556 12.687 48.9235 12.4119C49.2914 12.1402 49.4753 11.706 49.4753 11.1094V9.60795H49.3809C49.2914 9.77036 49.1621 9.95099 48.9931 10.1499C48.8274 10.3487 48.5987 10.5211 48.307 10.6669C48.0153 10.8127 47.6358 10.8857 47.1685 10.8857C46.5653 10.8857 46.0217 10.7448 45.5378 10.4631C45.0572 10.178 44.6761 9.75876 44.3944 9.20526C44.1159 8.64844 43.9767 7.96401 43.9767 7.15199C43.9767 6.33996 44.1143 5.64394 44.3894 5.06392C44.6678 4.4839 45.0489 4.03977 45.5328 3.73153C46.0167 3.41998 46.5653 3.2642 47.1784 3.2642C47.6524 3.2642 48.0352 3.34375 48.3269 3.50284C48.6185 3.65862 48.8456 3.84091 49.008 4.04972C49.1737 4.25852 49.3013 4.44247 49.3908 4.60156H49.5002V3.36364H50.9569V11.169C50.9569 11.8253 50.8044 12.3639 50.4995 12.7848C50.1945 13.2057 49.7819 13.5173 49.2615 13.7195C48.7445 13.9216 48.1612 14.0227 47.5115 14.0227ZM47.4966 9.6527C47.9242 9.6527 48.2855 9.55327 48.5804 9.3544C48.8787 9.15223 49.1041 8.86387 49.2566 8.48935C49.4123 8.11151 49.4902 7.65909 49.4902 7.1321C49.4902 6.61837 49.414 6.16596 49.2615 5.77486C49.1091 5.38376 48.8854 5.07884 48.5904 4.86009C48.2954 4.63802 47.9308 4.52699 47.4966 4.52699C47.0492 4.52699 46.6763 4.64299 46.378 4.875C46.0797 5.10369 45.8543 5.41525 45.7019 5.80966C45.5527 6.20407 45.4782 6.64489 45.4782 7.1321C45.4782 7.63258 45.5544 8.07173 45.7069 8.44957C45.8593 8.82741 46.0847 9.1224 46.383 9.33452C46.6846 9.54664 47.0558 9.6527 47.4966 9.6527ZM54.437 6.46591V11H52.9505V0.818182H54.4171V4.60653H54.5115C54.6905 4.19555 54.964 3.86908 55.3319 3.62713C55.6998 3.38518 56.1803 3.2642 56.7736 3.2642C57.2973 3.2642 57.7547 3.37192 58.1458 3.58736C58.5402 3.80279 58.8451 4.12429 59.0605 4.55185C59.2793 4.97609 59.3887 5.50639 59.3887 6.14276V11H57.9022V6.32173C57.9022 5.7616 57.758 5.32741 57.4696 5.01918C57.1813 4.70762 56.7802 4.55185 56.2665 4.55185C55.9152 4.55185 55.6003 4.62642 55.3219 4.77557C55.0468 4.92472 54.8297 5.14347 54.6706 5.43182C54.5149 5.71686 54.437 6.06155 54.437 6.46591ZM64.937 3.36364V4.55682H60.7658V3.36364H64.937ZM61.8844 1.53409H63.3709V8.75781C63.3709 9.04616 63.414 9.26326 63.5002 9.40909C63.5864 9.55161 63.6974 9.64938 63.8333 9.70241C63.9725 9.75213 64.1233 9.77699 64.2857 9.77699C64.405 9.77699 64.5094 9.7687 64.5989 9.75213C64.6884 9.73556 64.758 9.7223 64.8077 9.71236L65.0762 10.9403C64.99 10.9735 64.8674 11.0066 64.7083 11.0398C64.5492 11.0762 64.3503 11.0961 64.1117 11.0994C63.7206 11.1061 63.356 11.0365 63.0179 10.8906C62.6799 10.7448 62.4064 10.5194 62.1976 10.2145C61.9888 9.90956 61.8844 9.52675 61.8844 9.06605V1.53409ZM70.8208 6.05327V7.34091H66.3066V6.05327H70.8208ZM76.3269 11.169C75.5414 11.1657 74.8702 10.9586 74.3134 10.5476C73.7566 10.1366 73.3307 9.53835 73.0357 8.75284C72.7407 7.96733 72.5932 7.02107 72.5932 5.91406C72.5932 4.81037 72.7407 3.86742 73.0357 3.08523C73.334 2.30303 73.7615 1.70644 74.3184 1.29545C74.8785 0.884469 75.548 0.678977 76.3269 0.678977C77.1058 0.678977 77.7736 0.886126 78.3304 1.30043C78.8873 1.71141 79.3132 2.308 79.6081 3.0902C79.9064 3.86908 80.0556 4.81037 80.0556 5.91406C80.0556 7.02438 79.9081 7.9723 79.6131 8.75781C79.3181 9.54001 78.8922 10.1383 78.3354 10.5526C77.7786 10.9635 77.1091 11.169 76.3269 11.169ZM76.3269 9.84162C77.0163 9.84162 77.5549 9.50521 77.9426 8.83239C78.3337 8.15956 78.5293 7.18679 78.5293 5.91406C78.5293 5.06889 78.4398 4.35464 78.2608 3.77131C78.0852 3.18466 77.8316 2.74053 77.5002 2.43892C77.1721 2.134 76.781 1.98153 76.3269 1.98153C75.6408 1.98153 75.1022 2.3196 74.7111 2.99574C74.32 3.67187 74.1228 4.64465 74.1195 5.91406C74.1195 6.76255 74.2073 7.48011 74.383 8.06676C74.562 8.65009 74.8155 9.09257 75.1436 9.39418C75.4718 9.69247 75.8662 9.84162 76.3269 9.84162ZM81.8192 11V9.88636L85.2646 6.31676C85.6325 5.92898 85.9357 5.58925 86.1744 5.29759C86.4163 5.0026 86.5969 4.72254 86.7163 4.45739C86.8356 4.19223 86.8952 3.91051 86.8952 3.61222C86.8952 3.27415 86.8157 2.98248 86.6566 2.73722C86.4975 2.48864 86.2804 2.29806 86.0053 2.16548C85.7302 2.02959 85.4203 1.96165 85.0756 1.96165C84.7111 1.96165 84.3929 2.03622 84.1211 2.18537C83.8493 2.33452 83.6405 2.54498 83.4947 2.81676C83.3488 3.08854 83.2759 3.40672 83.2759 3.77131H81.8093C81.8093 3.15151 81.9518 2.60961 82.2369 2.1456C82.5219 1.68158 82.913 1.32197 83.4102 1.06676C83.9073 0.808238 84.4724 0.678977 85.1055 0.678977C85.7451 0.678977 86.3086 0.806581 86.7958 1.06179C87.2863 1.31368 87.6692 1.65838 87.9442 2.09588C88.2193 2.53007 88.3569 3.0206 88.3569 3.56747C88.3569 3.94531 88.2856 4.31487 88.1431 4.67614C88.0039 5.0374 87.7603 5.4401 87.4123 5.88423C87.0643 6.32505 86.5804 6.86032 85.9606 7.49006L83.9371 9.60795V9.68253H88.521V11H81.8192Z" fill="black"/>
</svg>
