<svg viewBox="0 0 64 12" fill="none" stroke-width="2" stroke="currentColor" aria-hidden="true">
  <path d="M4.83665 7.8331V3.36364H6.32812V11H4.86648V9.67756H4.78693C4.61127 10.0852 4.32955 10.425 3.94176 10.6967C3.55729 10.9652 3.07836 11.0994 2.50497 11.0994C2.01444 11.0994 1.58026 10.9917 1.20241 10.7763C0.827888 10.5575 0.532907 10.2344 0.317472 9.80682C0.10535 9.37926 -0.000710189 8.85062 -0.000710189 8.22088V3.36364H1.4858V8.0419C1.4858 8.56226 1.62997 8.97656 1.91832 9.2848C2.20668 9.59304 2.5812 9.74716 3.0419 9.74716C3.32031 9.74716 3.59706 9.67756 3.87216 9.53835C4.15057 9.39915 4.38092 9.18868 4.56321 8.90696C4.74882 8.62524 4.83996 8.26728 4.83665 7.8331ZM14.0478 5.22798L12.7005 5.46662C12.6441 5.29427 12.5546 5.13021 12.432 4.97443C12.3127 4.81865 12.1503 4.69105 11.9448 4.59162C11.7393 4.49219 11.4824 4.44247 11.1742 4.44247C10.7533 4.44247 10.4019 4.53693 10.1202 4.72585C9.83848 4.91146 9.69762 5.15175 9.69762 5.44673C9.69762 5.70194 9.79208 5.90743 9.981 6.06321C10.1699 6.21899 10.4748 6.34659 10.8958 6.44602L12.1088 6.72443C12.8115 6.88684 13.3352 7.13707 13.6799 7.47514C14.0246 7.81321 14.1969 8.25237 14.1969 8.79261C14.1969 9.25 14.0643 9.65767 13.7992 10.0156C13.5373 10.3703 13.1711 10.6487 12.7005 10.8509C12.2331 11.053 11.6912 11.1541 11.0748 11.1541C10.2196 11.1541 9.52196 10.9718 8.98171 10.6072C8.44147 10.2393 8.11003 9.71733 7.98739 9.04119L9.42418 8.82244C9.51367 9.19697 9.69762 9.48035 9.97603 9.67259C10.2544 9.86151 10.6174 9.95597 11.0648 9.95597C11.552 9.95597 11.9415 9.85488 12.2331 9.6527C12.5248 9.44721 12.6706 9.19697 12.6706 8.90199C12.6706 8.66335 12.5811 8.46283 12.4022 8.30043C12.2265 8.13802 11.9564 8.01539 11.5918 7.93253L10.2992 7.64915C9.58659 7.48674 9.0596 7.22822 8.71822 6.87358C8.38015 6.51894 8.21112 6.06984 8.21112 5.52628C8.21112 5.07552 8.33706 4.68111 8.58896 4.34304C8.84085 4.00497 9.18886 3.74148 9.63299 3.55256C10.0771 3.36032 10.5859 3.2642 11.1593 3.2642C11.9846 3.2642 12.6342 3.44318 13.1081 3.80114C13.5821 4.15578 13.8953 4.63139 14.0478 5.22798ZM19.1225 11.1541C18.3701 11.1541 17.7222 10.9934 17.1786 10.6719C16.6384 10.3471 16.2208 9.89134 15.9258 9.30469C15.6341 8.71473 15.4883 8.02367 15.4883 7.23153C15.4883 6.44934 15.6341 5.75994 15.9258 5.16335C16.2208 4.56676 16.6317 4.10109 17.1587 3.76633C17.689 3.43158 18.3088 3.2642 19.0181 3.2642C19.449 3.2642 19.8666 3.33546 20.271 3.47798C20.6753 3.6205 21.0382 3.84422 21.3597 4.14915C21.6812 4.45407 21.9348 4.85014 22.1204 5.33736C22.306 5.82126 22.3988 6.40956 22.3988 7.10227V7.62926H16.3285V6.51562H20.9421C20.9421 6.12453 20.8626 5.77817 20.7035 5.47656C20.5444 5.17164 20.3207 4.93134 20.0323 4.75568C19.7473 4.58002 19.4125 4.49219 19.0281 4.49219C18.6104 4.49219 18.2459 4.59493 17.9343 4.80043C17.6261 5.0026 17.3874 5.26776 17.2184 5.59588C17.0527 5.92069 16.9698 6.27367 16.9698 6.65483V7.52486C16.9698 8.03527 17.0593 8.46946 17.2383 8.82741C17.4206 9.18537 17.6741 9.45881 17.9989 9.64773C18.3237 9.83333 18.7032 9.92614 19.1374 9.92614C19.4192 9.92614 19.676 9.88636 19.908 9.80682C20.14 9.72396 20.3406 9.60133 20.5096 9.43892C20.6786 9.27652 20.8079 9.07599 20.8974 8.83736L22.3043 9.09091C22.1916 9.50521 21.9895 9.86813 21.6978 10.1797C21.4094 10.4879 21.0465 10.7282 20.609 10.9006C20.1748 11.0696 19.6793 11.1541 19.1225 11.1541ZM24.0481 11V3.36364H25.4849V4.5767H25.5645C25.7037 4.16572 25.9489 3.84257 26.3002 3.60724C26.6549 3.36861 27.0559 3.24929 27.5034 3.24929C27.5962 3.24929 27.7056 3.2526 27.8315 3.25923C27.9608 3.26586 28.0618 3.27415 28.1348 3.28409V4.70597C28.0751 4.68939 27.969 4.67116 27.8166 4.65128C27.6641 4.62808 27.5117 4.61648 27.3592 4.61648C27.0079 4.61648 26.6947 4.69105 26.4196 4.8402C26.1478 4.98603 25.9324 5.18987 25.7733 5.4517C25.6142 5.71023 25.5346 6.00521 25.5346 6.33665V11H24.0481ZM35.1435 5.22798L33.7962 5.46662C33.7398 5.29427 33.6503 5.13021 33.5277 4.97443C33.4084 4.81865 33.246 4.69105 33.0405 4.59162C32.835 4.49219 32.5781 4.44247 32.2699 4.44247C31.849 4.44247 31.4976 4.53693 31.2159 4.72585C30.9342 4.91146 30.7933 5.15175 30.7933 5.44673C30.7933 5.70194 30.8878 5.90743 31.0767 6.06321C31.2656 6.21899 31.5705 6.34659 31.9915 6.44602L33.2045 6.72443C33.9072 6.88684 34.4309 7.13707 34.7756 7.47514C35.1203 7.81321 35.2926 8.25237 35.2926 8.79261C35.2926 9.25 35.16 9.65767 34.8949 10.0156C34.633 10.3703 34.2668 10.6487 33.7962 10.8509C33.3288 11.053 32.7869 11.1541 32.1705 11.1541C31.3153 11.1541 30.6177 10.9718 30.0774 10.6072C29.5372 10.2393 29.2057 9.71733 29.0831 9.04119L30.5199 8.82244C30.6094 9.19697 30.7933 9.48035 31.0717 9.67259C31.3501 9.86151 31.7131 9.95597 32.1605 9.95597C32.6477 9.95597 33.0372 9.85488 33.3288 9.6527C33.6205 9.44721 33.7663 9.19697 33.7663 8.90199C33.7663 8.66335 33.6768 8.46283 33.4979 8.30043C33.3222 8.13802 33.0521 8.01539 32.6875 7.93253L31.3949 7.64915C30.6823 7.48674 30.1553 7.22822 29.8139 6.87358C29.4759 6.51894 29.3068 6.06984 29.3068 5.52628C29.3068 5.07552 29.4328 4.68111 29.6847 4.34304C29.9366 4.00497 30.2846 3.74148 30.7287 3.55256C31.1728 3.36032 31.6816 3.2642 32.255 3.2642C33.0803 3.2642 33.7299 3.44318 34.2038 3.80114C34.6778 4.15578 34.991 4.63139 35.1435 5.22798ZM41.4263 6.05327V7.34091H36.9121V6.05327H41.4263ZM44.894 0.818182V11H43.4075V0.818182H44.894ZM50.185 11.1541C49.4326 11.1541 48.7847 10.9934 48.2411 10.6719C47.7009 10.3471 47.2833 9.89134 46.9883 9.30469C46.6966 8.71473 46.5508 8.02367 46.5508 7.23153C46.5508 6.44934 46.6966 5.75994 46.9883 5.16335C47.2833 4.56676 47.6942 4.10109 48.2212 3.76633C48.7515 3.43158 49.3713 3.2642 50.0806 3.2642C50.5115 3.2642 50.9291 3.33546 51.3335 3.47798C51.7378 3.6205 52.1007 3.84422 52.4222 4.14915C52.7437 4.45407 52.9973 4.85014 53.1829 5.33736C53.3685 5.82126 53.4613 6.40956 53.4613 7.10227V7.62926H47.391V6.51562H52.0046C52.0046 6.12453 51.9251 5.77817 51.766 5.47656C51.6069 5.17164 51.3832 4.93134 51.0948 4.75568C50.8098 4.58002 50.475 4.49219 50.0906 4.49219C49.6729 4.49219 49.3084 4.59493 48.9968 4.80043C48.6886 5.0026 48.4499 5.26776 48.2809 5.59588C48.1152 5.92069 48.0323 6.27367 48.0323 6.65483V7.52486C48.0323 8.03527 48.1218 8.46946 48.3008 8.82741C48.4831 9.18537 48.7366 9.45881 49.0614 9.64773C49.3862 9.83333 49.7657 9.92614 50.1999 9.92614C50.4817 9.92614 50.7385 9.88636 50.9705 9.80682C51.2025 9.72396 51.4031 9.60133 51.5721 9.43892C51.7411 9.27652 51.8704 9.07599 51.9599 8.83736L53.3668 9.09091C53.2541 9.50521 53.052 9.86813 52.7603 10.1797C52.4719 10.4879 52.109 10.7282 51.6715 10.9006C51.2373 11.0696 50.7418 11.1541 50.185 11.1541ZM58.7449 3.36364V4.55682H54.4295V3.36364H58.7449ZM55.6127 11V2.47869C55.6127 2.00142 55.7172 1.60535 55.926 1.29048C56.1348 0.972301 56.4115 0.735322 56.7562 0.579545C57.1009 0.420454 57.4754 0.340908 57.8798 0.340908C58.1781 0.340908 58.4333 0.365767 58.6454 0.415483C58.8575 0.461884 59.015 0.504971 59.1177 0.544744L58.7697 1.74787C58.7001 1.72798 58.6106 1.70478 58.5012 1.67827C58.3919 1.64844 58.2593 1.63352 58.1035 1.63352C57.7422 1.63352 57.4837 1.72301 57.3279 1.90199C57.1755 2.08097 57.0993 2.33949 57.0993 2.67756V11H55.6127ZM63.8432 3.36364V4.55682H59.6721V3.36364H63.8432ZM60.7907 1.53409H62.2772V8.75781C62.2772 9.04616 62.3203 9.26326 62.4064 9.40909C62.4926 9.55161 62.6036 9.64938 62.7395 9.70241C62.8787 9.75213 63.0295 9.77699 63.1919 9.77699C63.3113 9.77699 63.4157 9.7687 63.5051 9.75213C63.5946 9.73556 63.6642 9.7223 63.714 9.71236L63.9824 10.9403C63.8962 10.9735 63.7736 11.0066 63.6145 11.0398C63.4554 11.0762 63.2566 11.0961 63.0179 11.0994C62.6268 11.1061 62.2623 11.0365 61.9242 10.8906C61.5861 10.7448 61.3127 10.5194 61.1039 10.2145C60.8951 9.90956 60.7907 9.52675 60.7907 9.06605V1.53409Z" fill="black"/>
</svg>
