<svg width="142" height="15" viewBox="0 0 142 15" fill="none" xmlns="http://www.w3.org/2000/svg">
<path d="M6.72159 5.22798L5.37429 5.46662C5.31795 5.29427 5.22846 5.13021 5.10582 4.97443C4.98651 4.81865 4.8241 4.69105 4.61861 4.59162C4.41312 4.49219 4.15625 4.44247 3.84801 4.44247C3.42708 4.44247 3.07576 4.53693 2.79403 4.72585C2.51231 4.91146 2.37145 5.15175 2.37145 5.44673C2.37145 5.70194 2.46591 5.90743 2.65483 6.06321C2.84375 6.21899 3.14867 6.34659 3.5696 6.44602L4.78267 6.72443C5.48532 6.88684 6.009 7.13707 6.35369 7.47514C6.69839 7.81321 6.87074 8.25237 6.87074 8.79261C6.87074 9.25 6.73816 9.65767 6.47301 10.0156C6.21117 10.3703 5.84493 10.6487 5.37429 10.8509C4.90696 11.053 4.36506 11.1541 3.74858 11.1541C2.89347 11.1541 2.19579 10.9718 1.65554 10.6072C1.11529 10.2393 0.783854 9.71733 0.661222 9.04119L2.09801 8.82244C2.1875 9.19697 2.37145 9.48035 2.64986 9.67259C2.92827 9.86151 3.29119 9.95597 3.73864 9.95597C4.22585 9.95597 4.61529 9.85488 4.90696 9.6527C5.19863 9.44721 5.34446 9.19697 5.34446 8.90199C5.34446 8.66335 5.25497 8.46283 5.07599 8.30043C4.90033 8.13802 4.63021 8.01539 4.26562 7.93253L2.97301 7.64915C2.26042 7.48674 1.73343 7.22822 1.39205 6.87358C1.05398 6.51894 0.884943 6.06984 0.884943 5.52628C0.884943 5.07552 1.01089 4.68111 1.26278 4.34304C1.51468 4.00497 1.86269 3.74148 2.30682 3.55256C2.75095 3.36032 3.25971 3.2642 3.8331 3.2642C4.65838 3.2642 5.308 3.44318 5.78196 3.80114C6.25592 4.15578 6.56913 4.63139 6.72159 5.22798ZM12.0698 3.36364V4.55682H7.89862V3.36364H12.0698ZM9.01722 1.53409H10.5037V8.75781C10.5037 9.04616 10.5468 9.26326 10.633 9.40909C10.7192 9.55161 10.8302 9.64938 10.9661 9.70241C11.1053 9.75213 11.2561 9.77699 11.4185 9.77699C11.5378 9.77699 11.6422 9.7687 11.7317 9.75213C11.8212 9.73556 11.8908 9.7223 11.9405 9.71236L12.209 10.9403C12.1228 10.9735 12.0002 11.0066 11.8411 11.0398C11.682 11.0762 11.4831 11.0961 11.2445 11.0994C10.8534 11.1061 10.4888 11.0365 10.1507 10.8906C9.81268 10.7448 9.53924 10.5194 9.33043 10.2145C9.12163 9.90956 9.01722 9.52675 9.01722 9.06605V1.53409ZM13.7141 11V3.36364H15.1509V4.5767H15.2305C15.3697 4.16572 15.6149 3.84257 15.9663 3.60724C16.3209 3.36861 16.7219 3.24929 17.1694 3.24929C17.2622 3.24929 17.3716 3.2526 17.4975 3.25923C17.6268 3.26586 17.7279 3.27415 17.8008 3.28409V4.70597C17.7411 4.68939 17.6351 4.67116 17.4826 4.65128C17.3301 4.62808 17.1777 4.61648 17.0252 4.61648C16.6739 4.61648 16.3607 4.69105 16.0856 4.8402C15.8138 4.98603 15.5984 5.18987 15.4393 5.4517C15.2802 5.71023 15.2006 6.00521 15.2006 6.33665V11H13.7141ZM19.0872 11V3.36364H20.5737V11H19.0872ZM19.8379 2.18537C19.5794 2.18537 19.3573 2.09919 19.1717 1.92685C18.9894 1.75118 18.8983 1.54238 18.8983 1.30043C18.8983 1.05516 18.9894 0.846354 19.1717 0.674005C19.3573 0.498342 19.5794 0.410511 19.8379 0.410511C20.0964 0.410511 20.3168 0.498342 20.4991 0.674005C20.6847 0.846354 20.7775 1.05516 20.7775 1.30043C20.7775 1.54238 20.6847 1.75118 20.4991 1.92685C20.3168 2.09919 20.0964 2.18537 19.8379 2.18537ZM23.9407 8.4098L23.9308 6.59517H24.1893L27.2319 3.36364H29.0117L25.5415 7.04261H25.3079L23.9407 8.4098ZM22.5735 11V0.818182H24.06V11H22.5735ZM27.396 11L24.6616 7.37074L25.6857 6.33168L29.2205 11H27.396ZM33.3432 11.1541C32.5908 11.1541 31.9429 10.9934 31.3993 10.6719C30.8591 10.3471 30.4415 9.89134 30.1465 9.30469C29.8548 8.71473 29.709 8.02367 29.709 7.23153C29.709 6.44934 29.8548 5.75994 30.1465 5.16335C30.4415 4.56676 30.8525 4.10109 31.3794 3.76633C31.9097 3.43158 32.5295 3.2642 33.2388 3.2642C33.6697 3.2642 34.0873 3.33546 34.4917 3.47798C34.896 3.6205 35.2589 3.84422 35.5804 4.14915C35.9019 4.45407 36.1555 4.85014 36.3411 5.33736C36.5267 5.82126 36.6195 6.40956 36.6195 7.10227V7.62926H30.5492V6.51562H35.1628C35.1628 6.12453 35.0833 5.77817 34.9242 5.47656C34.7651 5.17164 34.5414 4.93134 34.253 4.75568C33.968 4.58002 33.6332 4.49219 33.2488 4.49219C32.8311 4.49219 32.4666 4.59493 32.155 4.80043C31.8468 5.0026 31.6081 5.26776 31.4391 5.59588C31.2734 5.92069 31.1905 6.27367 31.1905 6.65483V7.52486C31.1905 8.03527 31.28 8.46946 31.459 8.82741C31.6413 9.18537 31.8948 9.45881 32.2196 9.64773C32.5444 9.83333 32.9239 9.92614 33.3581 9.92614C33.6399 9.92614 33.8967 9.88636 34.1287 9.80682C34.3607 9.72396 34.5613 9.60133 34.7303 9.43892C34.8993 9.27652 35.0286 9.07599 35.1181 8.83736L36.525 9.09091C36.4123 9.50521 36.2102 9.86813 35.9185 10.1797C35.6301 10.4879 35.2672 10.7282 34.8297 10.9006C34.3955 11.0696 33.9 11.1541 33.3432 11.1541ZM41.8335 3.36364V4.55682H37.6623V3.36364H41.8335ZM38.7809 1.53409H40.2674V8.75781C40.2674 9.04616 40.3105 9.26326 40.3967 9.40909C40.4828 9.55161 40.5939 9.64938 40.7298 9.70241C40.869 9.75213 41.0198 9.77699 41.1822 9.77699C41.3015 9.77699 41.4059 9.7687 41.4954 9.75213C41.5849 9.73556 41.6545 9.7223 41.7042 9.71236L41.9727 10.9403C41.8865 10.9735 41.7638 11.0066 41.6048 11.0398C41.4457 11.0762 41.2468 11.0961 41.0082 11.0994C40.6171 11.1061 40.2525 11.0365 39.9144 10.8906C39.5763 10.7448 39.3029 10.5194 39.0941 10.2145C38.8853 9.90956 38.7809 9.52675 38.7809 9.06605V1.53409ZM45.1284 6.46591V11H43.6419V0.818182H45.1085V4.60653H45.2029C45.3819 4.19555 45.6554 3.86908 46.0233 3.62713C46.3912 3.38518 46.8717 3.2642 47.465 3.2642C47.9887 3.2642 48.4461 3.37192 48.8372 3.58736C49.2316 3.80279 49.5365 4.12429 49.752 4.55185C49.9707 4.97609 50.0801 5.50639 50.0801 6.14276V11H48.5936V6.32173C48.5936 5.7616 48.4494 5.32741 48.161 5.01918C47.8727 4.70762 47.4717 4.55185 46.9579 4.55185C46.6066 4.55185 46.2917 4.62642 46.0133 4.77557C45.7382 4.92472 45.5211 5.14347 45.362 5.43182C45.2063 5.71686 45.1284 6.06155 45.1284 6.46591ZM52.0637 11V3.36364H53.5005V4.5767H53.5801C53.7193 4.16572 53.9645 3.84257 54.3159 3.60724C54.6705 3.36861 55.0716 3.24929 55.519 3.24929C55.6118 3.24929 55.7212 3.2526 55.8471 3.25923C55.9764 3.26586 56.0775 3.27415 56.1504 3.28409V4.70597C56.0907 4.68939 55.9847 4.67116 55.8322 4.65128C55.6797 4.62808 55.5273 4.61648 55.3748 4.61648C55.0235 4.61648 54.7103 4.69105 54.4352 4.8402C54.1634 4.98603 53.948 5.18987 53.7889 5.4517C53.6298 5.71023 53.5502 6.00521 53.5502 6.33665V11H52.0637ZM60.38 11.1541C59.6641 11.1541 59.0393 10.9901 58.5057 10.6619C57.9721 10.3338 57.5578 9.87476 57.2628 9.2848C56.9678 8.69484 56.8203 8.00544 56.8203 7.21662C56.8203 6.42448 56.9678 5.73177 57.2628 5.13849C57.5578 4.54522 57.9721 4.08452 58.5057 3.75639C59.0393 3.42827 59.6641 3.2642 60.38 3.2642C61.0959 3.2642 61.7206 3.42827 62.2543 3.75639C62.7879 4.08452 63.2022 4.54522 63.4972 5.13849C63.7921 5.73177 63.9396 6.42448 63.9396 7.21662C63.9396 8.00544 63.7921 8.69484 63.4972 9.2848C63.2022 9.87476 62.7879 10.3338 62.2543 10.6619C61.7206 10.9901 61.0959 11.1541 60.38 11.1541ZM60.3849 9.90625C60.849 9.90625 61.2334 9.78362 61.5384 9.53835C61.8433 9.29309 62.0687 8.96662 62.2145 8.55895C62.3636 8.15128 62.4382 7.70218 62.4382 7.21165C62.4382 6.72443 62.3636 6.27699 62.2145 5.86932C62.0687 5.45833 61.8433 5.12855 61.5384 4.87997C61.2334 4.63139 60.849 4.5071 60.3849 4.5071C59.9176 4.5071 59.5298 4.63139 59.2216 4.87997C58.9167 5.12855 58.6896 5.45833 58.5405 5.86932C58.3946 6.27699 58.3217 6.72443 58.3217 7.21165C58.3217 7.70218 58.3946 8.15128 58.5405 8.55895C58.6896 8.96662 58.9167 9.29309 59.2216 9.53835C59.5298 9.78362 59.9176 9.90625 60.3849 9.90625ZM70.4363 7.8331V3.36364H71.9277V11H70.4661V9.67756H70.3865C70.2109 10.0852 69.9292 10.425 69.5414 10.6967C69.1569 10.9652 68.678 11.0994 68.1046 11.0994C67.6141 11.0994 67.1799 10.9917 66.802 10.7763C66.4275 10.5575 66.1325 10.2344 65.9171 9.80682C65.705 9.37926 65.5989 8.85062 65.5989 8.22088V3.36364H67.0854V8.0419C67.0854 8.56226 67.2296 8.97656 67.5179 9.2848C67.8063 9.59304 68.1808 9.74716 68.6415 9.74716C68.9199 9.74716 69.1967 9.67756 69.4718 9.53835C69.7502 9.39915 69.9805 9.18868 70.1628 8.90696C70.3484 8.62524 70.4396 8.26728 70.4363 7.8331ZM77.1268 14.0227C76.5202 14.0227 75.9982 13.9432 75.5607 13.7841C75.1265 13.625 74.7719 13.4145 74.4968 13.1527C74.2217 12.8909 74.0162 12.6042 73.8803 12.2926L75.158 11.7656C75.2475 11.9115 75.3668 12.0656 75.516 12.228C75.6684 12.3937 75.8739 12.5346 76.1325 12.6506C76.3943 12.7666 76.7307 12.8246 77.1417 12.8246C77.7051 12.8246 78.1708 12.687 78.5387 12.4119C78.9066 12.1402 79.0906 11.706 79.0906 11.1094V9.60795H78.9961C78.9066 9.77036 78.7773 9.95099 78.6083 10.1499C78.4426 10.3487 78.2139 10.5211 77.9222 10.6669C77.6306 10.8127 77.2511 10.8857 76.7837 10.8857C76.1805 10.8857 75.637 10.7448 75.1531 10.4631C74.6725 10.178 74.2913 9.75876 74.0096 9.20526C73.7312 8.64844 73.592 7.96401 73.592 7.15199C73.592 6.33996 73.7295 5.64394 74.0046 5.06392C74.283 4.4839 74.6642 4.03977 75.1481 3.73153C75.632 3.41998 76.1805 3.2642 76.7937 3.2642C77.2676 3.2642 77.6504 3.34375 77.9421 3.50284C78.2338 3.65862 78.4608 3.84091 78.6232 4.04972C78.7889 4.25852 78.9165 4.44247 79.006 4.60156H79.1154V3.36364H80.5721V11.169C80.5721 11.8253 80.4196 12.3639 80.1147 12.7848C79.8098 13.2057 79.3971 13.5173 78.8768 13.7195C78.3597 13.9216 77.7764 14.0227 77.1268 14.0227ZM77.1119 9.6527C77.5394 9.6527 77.9007 9.55327 78.1957 9.3544C78.494 9.15223 78.7193 8.86387 78.8718 8.48935C79.0276 8.11151 79.1055 7.65909 79.1055 7.1321C79.1055 6.61837 79.0292 6.16596 78.8768 5.77486C78.7243 5.38376 78.5006 5.07884 78.2056 4.86009C77.9106 4.63802 77.546 4.52699 77.1119 4.52699C76.6644 4.52699 76.2915 4.64299 75.9933 4.875C75.695 5.10369 75.4696 5.41525 75.3171 5.80966C75.168 6.20407 75.0934 6.64489 75.0934 7.1321C75.0934 7.63258 75.1696 8.07173 75.3221 8.44957C75.4746 8.82741 75.6999 9.1224 75.9982 9.33452C76.2998 9.54664 76.671 9.6527 77.1119 9.6527ZM84.0522 6.46591V11H82.5657V0.818182H84.0323V4.60653H84.1268C84.3058 4.19555 84.5792 3.86908 84.9471 3.62713C85.315 3.38518 85.7956 3.2642 86.3888 3.2642C86.9125 3.2642 87.3699 3.37192 87.761 3.58736C88.1554 3.80279 88.4603 4.12429 88.6758 4.55185C88.8945 4.97609 89.0039 5.50639 89.0039 6.14276V11H87.5174V6.32173C87.5174 5.7616 87.3732 5.32741 87.0849 5.01918C86.7965 4.70762 86.3955 4.55185 85.8817 4.55185C85.5304 4.55185 85.2156 4.62642 84.9371 4.77557C84.6621 4.92472 84.445 5.14347 84.2859 5.43182C84.1301 5.71686 84.0522 6.06155 84.0522 6.46591ZM95.4869 6.05327V7.34091H90.9727V6.05327H95.4869ZM103.19 5.22798L101.843 5.46662C101.787 5.29427 101.697 5.13021 101.575 4.97443C101.455 4.81865 101.293 4.69105 101.087 4.59162C100.882 4.49219 100.625 4.44247 100.317 4.44247C99.8958 4.44247 99.5445 4.53693 99.2628 4.72585C98.9811 4.91146 98.8402 5.15175 98.8402 5.44673C98.8402 5.70194 98.9347 5.90743 99.1236 6.06321C99.3125 6.21899 99.6174 6.34659 100.038 6.44602L101.251 6.72443C101.954 6.88684 102.478 7.13707 102.822 7.47514C103.167 7.81321 103.339 8.25237 103.339 8.79261C103.339 9.25 103.207 9.65767 102.942 10.0156C102.68 10.3703 102.314 10.6487 101.843 10.8509C101.376 11.053 100.834 11.1541 100.217 11.1541C99.3622 11.1541 98.6645 10.9718 98.1243 10.6072C97.584 10.2393 97.2526 9.71733 97.13 9.04119L98.5668 8.82244C98.6563 9.19697 98.8402 9.48035 99.1186 9.67259C99.397 9.86151 99.7599 9.95597 100.207 9.95597C100.695 9.95597 101.084 9.85488 101.376 9.6527C101.667 9.44721 101.813 9.19697 101.813 8.90199C101.813 8.66335 101.724 8.46283 101.545 8.30043C101.369 8.13802 101.099 8.01539 100.734 7.93253L99.4418 7.64915C98.7292 7.48674 98.2022 7.22822 97.8608 6.87358C97.5227 6.51894 97.3537 6.06984 97.3537 5.52628C97.3537 5.07552 97.4796 4.68111 97.7315 4.34304C97.9834 4.00497 98.3314 3.74148 98.7756 3.55256C99.2197 3.36032 99.7285 3.2642 100.302 3.2642C101.127 3.2642 101.777 3.44318 102.251 3.80114C102.725 4.15578 103.038 4.63139 103.19 5.22798ZM110.129 13.8636V9.81179H110.04C109.95 9.9742 109.821 10.1598 109.652 10.3686C109.486 10.5774 109.258 10.7597 108.966 10.9155C108.674 11.0713 108.297 11.1491 107.833 11.1491C107.216 11.1491 106.666 10.9917 106.182 10.6768C105.701 10.3587 105.324 9.90625 105.048 9.3196C104.777 8.72964 104.641 8.02202 104.641 7.19673C104.641 6.37145 104.778 5.66548 105.053 5.07884C105.332 4.49219 105.713 4.04309 106.197 3.73153C106.681 3.41998 107.229 3.2642 107.843 3.2642C108.316 3.2642 108.698 3.34375 108.986 3.50284C109.278 3.65862 109.503 3.84091 109.662 4.04972C109.825 4.25852 109.95 4.44247 110.04 4.60156H110.164V3.36364H111.616V13.8636H110.129ZM108.161 9.88139C108.588 9.88139 108.95 9.7687 109.244 9.54332C109.543 9.31463 109.768 8.99811 109.921 8.59375C110.076 8.18939 110.154 7.71875 110.154 7.18182C110.154 6.65151 110.078 6.1875 109.926 5.78977C109.773 5.39205 109.549 5.08215 109.254 4.86009C108.959 4.63802 108.595 4.52699 108.161 4.52699C107.713 4.52699 107.34 4.64299 107.042 4.875C106.744 5.10701 106.518 5.42353 106.366 5.82457C106.217 6.22562 106.142 6.67803 106.142 7.18182C106.142 7.69223 106.218 8.15128 106.371 8.55895C106.523 8.96662 106.749 9.28977 107.047 9.52841C107.349 9.76373 107.72 9.88139 108.161 9.88139ZM118.452 7.8331V3.36364H119.943V11H118.482V9.67756H118.402C118.227 10.0852 117.945 10.425 117.557 10.6967C117.173 10.9652 116.694 11.0994 116.12 11.0994C115.63 11.0994 115.195 10.9917 114.818 10.7763C114.443 10.5575 114.148 10.2344 113.933 9.80682C113.721 9.37926 113.615 8.85062 113.615 8.22088V3.36364H115.101V8.0419C115.101 8.56226 115.245 8.97656 115.534 9.2848C115.822 9.59304 116.196 9.74716 116.657 9.74716C116.936 9.74716 117.212 9.67756 117.487 9.53835C117.766 9.39915 117.996 9.18868 118.178 8.90696C118.364 8.62524 118.455 8.26728 118.452 7.8331ZM124.163 11.169C123.679 11.169 123.242 11.0795 122.85 10.9006C122.459 10.7183 122.15 10.4548 121.921 10.1101C121.695 9.76539 121.583 9.3428 121.583 8.84233C121.583 8.41146 121.666 8.05682 121.831 7.77841C121.997 7.5 122.221 7.27959 122.502 7.11719C122.784 6.95478 123.099 6.83215 123.447 6.74929C123.795 6.66643 124.15 6.60346 124.511 6.56037C124.968 6.50734 125.34 6.46425 125.625 6.43111C125.91 6.39465 126.117 6.33665 126.246 6.2571C126.375 6.17756 126.44 6.0483 126.44 5.86932V5.83452C126.44 5.40033 126.317 5.06392 126.072 4.82528C125.83 4.58665 125.469 4.46733 124.988 4.46733C124.488 4.46733 124.093 4.57836 123.805 4.80043C123.52 5.01918 123.323 5.26278 123.213 5.53125L121.816 5.21307C121.982 4.74905 122.224 4.37453 122.542 4.08949C122.864 3.80114 123.233 3.59233 123.651 3.46307C124.069 3.33049 124.508 3.2642 124.968 3.2642C125.273 3.2642 125.596 3.30066 125.938 3.37358C126.283 3.44318 126.604 3.57244 126.902 3.76136C127.204 3.95028 127.451 4.22041 127.643 4.57173C127.835 4.91974 127.931 5.37216 127.931 5.92898V11H126.48V9.95597H126.42C126.324 10.1482 126.18 10.3371 125.988 10.5227C125.795 10.7083 125.548 10.8625 125.247 10.9851C124.945 11.1077 124.584 11.169 124.163 11.169ZM124.486 9.97585C124.897 9.97585 125.248 9.89465 125.54 9.73224C125.835 9.56984 126.059 9.35772 126.211 9.09588C126.367 8.83073 126.445 8.54735 126.445 8.24574V7.26136C126.392 7.31439 126.289 7.36411 126.137 7.41051C125.988 7.4536 125.817 7.49171 125.625 7.52486C125.432 7.55469 125.245 7.58286 125.063 7.60938C124.881 7.63258 124.728 7.65246 124.605 7.66903C124.317 7.70549 124.054 7.76681 123.815 7.85298C123.58 7.93916 123.391 8.06345 123.248 8.22585C123.109 8.38494 123.039 8.59706 123.039 8.86222C123.039 9.23011 123.175 9.50852 123.447 9.69744C123.719 9.88305 124.065 9.97585 124.486 9.97585ZM129.911 11V3.36364H131.348V4.5767H131.428C131.567 4.16572 131.812 3.84257 132.164 3.60724C132.518 3.36861 132.919 3.24929 133.367 3.24929C133.459 3.24929 133.569 3.2526 133.695 3.25923C133.824 3.26586 133.925 3.27415 133.998 3.28409V4.70597C133.938 4.68939 133.832 4.67116 133.68 4.65128C133.527 4.62808 133.375 4.61648 133.222 4.61648C132.871 4.61648 132.558 4.69105 132.283 4.8402C132.011 4.98603 131.796 5.18987 131.637 5.4517C131.477 5.71023 131.398 6.00521 131.398 6.33665V11H129.911ZM138.302 11.1541C137.55 11.1541 136.902 10.9934 136.358 10.6719C135.818 10.3471 135.4 9.89134 135.105 9.30469C134.814 8.71473 134.668 8.02367 134.668 7.23153C134.668 6.44934 134.814 5.75994 135.105 5.16335C135.4 4.56676 135.811 4.10109 136.338 3.76633C136.869 3.43158 137.489 3.2642 138.198 3.2642C138.629 3.2642 139.046 3.33546 139.451 3.47798C139.855 3.6205 140.218 3.84422 140.539 4.14915C140.861 4.45407 141.114 4.85014 141.3 5.33736C141.486 5.82126 141.578 6.40956 141.578 7.10227V7.62926H135.508V6.51562H140.122C140.122 6.12453 140.042 5.77817 139.883 5.47656C139.724 5.17164 139.5 4.93134 139.212 4.75568C138.927 4.58002 138.592 4.49219 138.208 4.49219C137.79 4.49219 137.426 4.59493 137.114 4.80043C136.806 5.0026 136.567 5.26776 136.398 5.59588C136.232 5.92069 136.15 6.27367 136.15 6.65483V7.52486C136.15 8.03527 136.239 8.46946 136.418 8.82741C136.6 9.18537 136.854 9.45881 137.179 9.64773C137.503 9.83333 137.883 9.92614 138.317 9.92614C138.599 9.92614 138.856 9.88636 139.088 9.80682C139.32 9.72396 139.52 9.60133 139.689 9.43892C139.858 9.27652 139.988 9.07599 140.077 8.83736L141.484 9.09091C141.371 9.50521 141.169 9.86813 140.877 10.1797C140.589 10.4879 140.226 10.7282 139.789 10.9006C139.355 11.0696 138.859 11.1541 138.302 11.1541Z" fill="black"/>
</svg>
