<svg width="31" height="14" viewBox="0 0 31 14" fill="none" xmlns="http://www.w3.org/2000/svg">
<path d="M3.85795 11.1491C3.24148 11.1491 2.69129 10.9917 2.20739 10.6768C1.7268 10.3587 1.34896 9.90625 1.07386 9.3196C0.802083 8.72964 0.666193 8.02202 0.666193 7.19673C0.666193 6.37145 0.803741 5.66548 1.07884 5.07884C1.35724 4.49219 1.7384 4.04309 2.2223 3.73153C2.7062 3.41998 3.25473 3.2642 3.8679 3.2642C4.34186 3.2642 4.72301 3.34375 5.01136 3.50284C5.30303 3.65862 5.52841 3.84091 5.6875 4.04972C5.84991 4.25852 5.97585 4.44247 6.06534 4.60156H6.15483V0.818182H7.64134V11H6.18963V9.81179H6.06534C5.97585 9.9742 5.84659 10.1598 5.67756 10.3686C5.51184 10.5774 5.28314 10.7597 4.99148 10.9155C4.69981 11.0713 4.32197 11.1491 3.85795 11.1491ZM4.18608 9.88139C4.61364 9.88139 4.97491 9.7687 5.26989 9.54332C5.56818 9.31463 5.79356 8.99811 5.94602 8.59375C6.1018 8.18939 6.17969 7.71875 6.17969 7.18182C6.17969 6.65151 6.10346 6.1875 5.95099 5.78977C5.79853 5.39205 5.57481 5.08215 5.27983 4.86009C4.98485 4.63802 4.62027 4.52699 4.18608 4.52699C3.73864 4.52699 3.36577 4.64299 3.06747 4.875C2.76918 5.10701 2.5438 5.42353 2.39134 5.82457C2.24219 6.22562 2.16761 6.67803 2.16761 7.18182C2.16761 7.69223 2.24384 8.15128 2.39631 8.55895C2.54877 8.96662 2.77415 9.28977 3.07244 9.52841C3.37405 9.76373 3.74527 9.88139 4.18608 9.88139ZM9.76296 11V3.36364H11.1998V4.5767H11.2793C11.4185 4.16572 11.6638 3.84257 12.0151 3.60724C12.3697 3.36861 12.7708 3.24929 13.2182 3.24929C13.311 3.24929 13.4204 3.2526 13.5463 3.25923C13.6756 3.26586 13.7767 3.27415 13.8496 3.28409V4.70597C13.79 4.68939 13.6839 4.67116 13.5314 4.65128C13.379 4.62808 13.2265 4.61648 13.074 4.61648C12.7227 4.61648 12.4095 4.69105 12.1344 4.8402C11.8626 4.98603 11.6472 5.18987 11.4881 5.4517C11.329 5.71023 11.2495 6.00521 11.2495 6.33665V11H9.76296ZM18.0792 11.1541C17.3633 11.1541 16.7385 10.9901 16.2049 10.6619C15.6713 10.3338 15.257 9.87476 14.962 9.2848C14.667 8.69484 14.5195 8.00544 14.5195 7.21662C14.5195 6.42448 14.667 5.73177 14.962 5.13849C15.257 4.54522 15.6713 4.08452 16.2049 3.75639C16.7385 3.42827 17.3633 3.2642 18.0792 3.2642C18.7951 3.2642 19.4199 3.42827 19.9535 3.75639C20.4871 4.08452 20.9014 4.54522 21.1964 5.13849C21.4914 5.73177 21.6388 6.42448 21.6388 7.21662C21.6388 8.00544 21.4914 8.69484 21.1964 9.2848C20.9014 9.87476 20.4871 10.3338 19.9535 10.6619C19.4199 10.9901 18.7951 11.1541 18.0792 11.1541ZM18.0842 9.90625C18.5482 9.90625 18.9326 9.78362 19.2376 9.53835C19.5425 9.29309 19.7679 8.96662 19.9137 8.55895C20.0629 8.15128 20.1374 7.70218 20.1374 7.21165C20.1374 6.72443 20.0629 6.27699 19.9137 5.86932C19.7679 5.45833 19.5425 5.12855 19.2376 4.87997C18.9326 4.63139 18.5482 4.5071 18.0842 4.5071C17.6168 4.5071 17.229 4.63139 16.9208 4.87997C16.6159 5.12855 16.3888 5.45833 16.2397 5.86932C16.0939 6.27699 16.021 6.72443 16.021 7.21165C16.021 7.70218 16.0939 8.15128 16.2397 8.55895C16.3888 8.96662 16.6159 9.29309 16.9208 9.53835C17.229 9.78362 17.6168 9.90625 18.0842 9.90625ZM23.2981 13.8636V3.36364H24.7498V4.60156H24.8741C24.9603 4.44247 25.0846 4.25852 25.247 4.04972C25.4094 3.84091 25.6348 3.65862 25.9231 3.50284C26.2115 3.34375 26.5926 3.2642 27.0666 3.2642C27.6831 3.2642 28.2333 3.41998 28.7172 3.73153C29.2011 4.04309 29.5806 4.49219 29.8556 5.07884C30.1341 5.66548 30.2733 6.37145 30.2733 7.19673C30.2733 8.02202 30.1357 8.72964 29.8606 9.3196C29.5855 9.90625 29.2077 10.3587 28.7271 10.6768C28.2465 10.9917 27.698 11.1491 27.0815 11.1491C26.6175 11.1491 26.238 11.0713 25.943 10.9155C25.6513 10.7597 25.4226 10.5774 25.2569 10.3686C25.0912 10.1598 24.9636 9.9742 24.8741 9.81179H24.7846V13.8636H23.2981ZM24.7548 7.18182C24.7548 7.71875 24.8327 8.18939 24.9885 8.59375C25.1442 8.99811 25.3696 9.31463 25.6646 9.54332C25.9596 9.7687 26.3208 9.88139 26.7484 9.88139C27.1925 9.88139 27.5637 9.76373 27.862 9.52841C28.1603 9.28977 28.3857 8.96662 28.5382 8.55895C28.694 8.15128 28.7718 7.69223 28.7718 7.18182C28.7718 6.67803 28.6956 6.22562 28.5431 5.82457C28.394 5.42353 28.1686 5.10701 27.867 4.875C27.5687 4.64299 27.1958 4.52699 26.7484 4.52699C26.3175 4.52699 25.9529 4.63802 25.6547 4.86009C25.3597 5.08215 25.1359 5.39205 24.9835 5.78977C24.831 6.1875 24.7548 6.65151 24.7548 7.18182Z" fill="black"/>
</svg>
