<svg width="35" height="12" viewBox="0 0 35 12" fill="none" xmlns="http://www.w3.org/2000/svg">
<path d="M6.72159 5.22798L5.37429 5.46662C5.31795 5.29427 5.22846 5.13021 5.10582 4.97443C4.98651 4.81865 4.8241 4.69105 4.61861 4.59162C4.41312 4.49219 4.15625 4.44247 3.84801 4.44247C3.42708 4.44247 3.07576 4.53693 2.79403 4.72585C2.51231 4.91146 2.37145 5.15175 2.37145 5.44673C2.37145 5.70194 2.46591 5.90743 2.65483 6.06321C2.84375 6.21899 3.14867 6.34659 3.5696 6.44602L4.78267 6.72443C5.48532 6.88684 6.009 7.13707 6.35369 7.47514C6.69839 7.81321 6.87074 8.25237 6.87074 8.79261C6.87074 9.25 6.73816 9.65767 6.47301 10.0156C6.21117 10.3703 5.84493 10.6487 5.37429 10.8509C4.90696 11.053 4.36506 11.1541 3.74858 11.1541C2.89347 11.1541 2.19579 10.9718 1.65554 10.6072C1.11529 10.2393 0.783854 9.71733 0.661222 9.04119L2.09801 8.82244C2.1875 9.19697 2.37145 9.48035 2.64986 9.67259C2.92827 9.86151 3.29119 9.95597 3.73864 9.95597C4.22585 9.95597 4.61529 9.85488 4.90696 9.6527C5.19863 9.44721 5.34446 9.19697 5.34446 8.90199C5.34446 8.66335 5.25497 8.46283 5.07599 8.30043C4.90033 8.13802 4.63021 8.01539 4.26562 7.93253L2.97301 7.64915C2.26042 7.48674 1.73343 7.22822 1.39205 6.87358C1.05398 6.51894 0.884943 6.06984 0.884943 5.52628C0.884943 5.07552 1.01089 4.68111 1.26278 4.34304C1.51468 4.00497 1.86269 3.74148 2.30682 3.55256C2.75095 3.36032 3.25971 3.2642 3.8331 3.2642C4.65838 3.2642 5.308 3.44318 5.78196 3.80114C6.25592 4.15578 6.56913 4.63139 6.72159 5.22798ZM9.87234 8.4098L9.86239 6.59517H10.1209L13.1635 3.36364H14.9434L11.4732 7.04261H11.2395L9.87234 8.4098ZM8.50515 11V0.818182H9.99165V11H8.50515ZM13.3276 11L10.5932 7.37074L11.6174 6.33168L15.1522 11H13.3276ZM19.2749 11.1541C18.5225 11.1541 17.8745 10.9934 17.331 10.6719C16.7907 10.3471 16.3731 9.89134 16.0781 9.30469C15.7865 8.71473 15.6406 8.02367 15.6406 7.23153C15.6406 6.44934 15.7865 5.75994 16.0781 5.16335C16.3731 4.56676 16.7841 4.10109 17.3111 3.76633C17.8414 3.43158 18.4612 3.2642 19.1705 3.2642C19.6013 3.2642 20.0189 3.33546 20.4233 3.47798C20.8277 3.6205 21.1906 3.84422 21.5121 4.14915C21.8336 4.45407 22.0871 4.85014 22.2727 5.33736C22.4583 5.82126 22.5511 6.40956 22.5511 7.10227V7.62926H16.4808V6.51562H21.0945C21.0945 6.12453 21.0149 5.77817 20.8558 5.47656C20.6967 5.17164 20.473 4.93134 20.1847 4.75568C19.8996 4.58002 19.5649 4.49219 19.1804 4.49219C18.7628 4.49219 18.3982 4.59493 18.0866 4.80043C17.7784 5.0026 17.5398 5.26776 17.3707 5.59588C17.205 5.92069 17.1222 6.27367 17.1222 6.65483V7.52486C17.1222 8.03527 17.2116 8.46946 17.3906 8.82741C17.5729 9.18537 17.8265 9.45881 18.1513 9.64773C18.4761 9.83333 18.8556 9.92614 19.2898 9.92614C19.5715 9.92614 19.8284 9.88636 20.0604 9.80682C20.2924 9.72396 20.4929 9.60133 20.6619 9.43892C20.831 9.27652 20.9602 9.07599 21.0497 8.83736L22.4567 9.09091C22.344 9.50521 22.1418 9.86813 21.8501 10.1797C21.5618 10.4879 21.1989 10.7282 20.7614 10.9006C20.3272 11.0696 19.8317 11.1541 19.2749 11.1541ZM25.8423 11L23.5952 3.36364H25.1314L26.6278 8.97159H26.7024L28.2038 3.36364H29.7401L31.2315 8.94673H31.3061L32.7926 3.36364H34.3288L32.0866 11H30.5703L29.0192 5.48651H28.9048L27.3537 11H25.8423Z" fill="black"/>
</svg>
