<svg width="59" height="12" viewBox="0 0 59 12" fill="none" xmlns="http://www.w3.org/2000/svg">
<path d="M6.72159 5.22798L5.37429 5.46662C5.31795 5.29427 5.22846 5.13021 5.10582 4.97443C4.98651 4.81865 4.8241 4.69105 4.61861 4.59162C4.41312 4.49219 4.15625 4.44247 3.84801 4.44247C3.42708 4.44247 3.07576 4.53693 2.79403 4.72585C2.51231 4.91146 2.37145 5.15175 2.37145 5.44673C2.37145 5.70194 2.46591 5.90743 2.65483 6.06321C2.84375 6.21899 3.14867 6.34659 3.5696 6.44602L4.78267 6.72443C5.48532 6.88684 6.009 7.13707 6.35369 7.47514C6.69839 7.81321 6.87074 8.25237 6.87074 8.79261C6.87074 9.25 6.73816 9.65767 6.47301 10.0156C6.21117 10.3703 5.84493 10.6487 5.37429 10.8509C4.90696 11.053 4.36506 11.1541 3.74858 11.1541C2.89347 11.1541 2.19579 10.9718 1.65554 10.6072C1.11529 10.2393 0.783854 9.71733 0.661222 9.04119L2.09801 8.82244C2.1875 9.19697 2.37145 9.48035 2.64986 9.67259C2.92827 9.86151 3.29119 9.95597 3.73864 9.95597C4.22585 9.95597 4.61529 9.85488 4.90696 9.6527C5.19863 9.44721 5.34446 9.19697 5.34446 8.90199C5.34446 8.66335 5.25497 8.46283 5.07599 8.30043C4.90033 8.13802 4.63021 8.01539 4.26562 7.93253L2.97301 7.64915C2.26042 7.48674 1.73343 7.22822 1.39205 6.87358C1.05398 6.51894 0.884943 6.06984 0.884943 5.52628C0.884943 5.07552 1.01089 4.68111 1.26278 4.34304C1.51468 4.00497 1.86269 3.74148 2.30682 3.55256C2.75095 3.36032 3.25971 3.2642 3.8331 3.2642C4.65838 3.2642 5.308 3.44318 5.78196 3.80114C6.25592 4.15578 6.56913 4.63139 6.72159 5.22798ZM11.7218 11.1541C10.9827 11.1541 10.3463 10.9867 9.81268 10.652C9.28237 10.3139 8.8747 9.84825 8.58967 9.25497C8.30463 8.66169 8.16211 7.98224 8.16211 7.21662C8.16211 6.44105 8.30794 5.75663 8.59961 5.16335C8.89128 4.56676 9.30226 4.10109 9.83256 3.76633C10.3629 3.43158 10.9876 3.2642 11.7069 3.2642C12.2869 3.2642 12.8039 3.37192 13.258 3.58736C13.7121 3.79948 14.0783 4.09777 14.3567 4.48224C14.6384 4.86671 14.8058 5.31581 14.8588 5.82955H13.4121C13.3326 5.47159 13.1503 5.16335 12.8652 4.90483C12.5835 4.64631 12.2057 4.51705 11.7317 4.51705C11.3174 4.51705 10.9545 4.62642 10.6429 4.84517C10.3347 5.06061 10.0944 5.36884 9.92205 5.76989C9.7497 6.16761 9.66353 6.63826 9.66353 7.18182C9.66353 7.73864 9.74805 8.21922 9.91708 8.62358C10.0861 9.02794 10.3248 9.34115 10.633 9.56321C10.9445 9.78527 11.3108 9.89631 11.7317 9.89631C12.0134 9.89631 12.2686 9.84493 12.4973 9.74219C12.7293 9.63613 12.9232 9.48532 13.079 9.28977C13.2381 9.09422 13.3491 8.8589 13.4121 8.58381H14.8588C14.8058 9.07765 14.6451 9.51847 14.3766 9.90625C14.1081 10.294 13.7485 10.599 13.2978 10.821C12.8503 11.0431 12.325 11.1541 11.7218 11.1541ZM18.6708 11.169C18.1869 11.169 17.7494 11.0795 17.3583 10.9006C16.9672 10.7183 16.6573 10.4548 16.4286 10.1101C16.2032 9.76539 16.0906 9.3428 16.0906 8.84233C16.0906 8.41146 16.1734 8.05682 16.3391 7.77841C16.5049 7.5 16.7286 7.27959 17.0103 7.11719C17.292 6.95478 17.6069 6.83215 17.9549 6.74929C18.3029 6.66643 18.6576 6.60346 19.0188 6.56037C19.4762 6.50734 19.8474 6.46425 20.1325 6.43111C20.4175 6.39465 20.6246 6.33665 20.7539 6.2571C20.8832 6.17756 20.9478 6.0483 20.9478 5.86932V5.83452C20.9478 5.40033 20.8252 5.06392 20.5799 4.82528C20.338 4.58665 19.9767 4.46733 19.4961 4.46733C18.9956 4.46733 18.6012 4.57836 18.3129 4.80043C18.0278 5.01918 17.8306 5.26278 17.7212 5.53125L16.3242 5.21307C16.4899 4.74905 16.7319 4.37453 17.0501 4.08949C17.3716 3.80114 17.7411 3.59233 18.1587 3.46307C18.5763 3.33049 19.0155 3.2642 19.4762 3.2642C19.7811 3.2642 20.1043 3.30066 20.4457 3.37358C20.7904 3.44318 21.1119 3.57244 21.4102 3.76136C21.7118 3.95028 21.9587 4.22041 22.1509 4.57173C22.3432 4.91974 22.4393 5.37216 22.4393 5.92898V11H20.9876V9.95597H20.9279C20.8318 10.1482 20.6876 10.3371 20.4954 10.5227C20.3031 10.7083 20.0562 10.8625 19.7546 10.9851C19.453 11.1077 19.0917 11.169 18.6708 11.169ZM18.994 9.97585C19.4049 9.97585 19.7563 9.89465 20.0479 9.73224C20.3429 9.56984 20.5666 9.35772 20.7191 9.09588C20.8749 8.83073 20.9528 8.54735 20.9528 8.24574V7.26136C20.8997 7.31439 20.797 7.36411 20.6445 7.41051C20.4954 7.4536 20.3247 7.49171 20.1325 7.52486C19.9402 7.55469 19.753 7.58286 19.5707 7.60938C19.3884 7.63258 19.2359 7.65246 19.1133 7.66903C18.8249 7.70549 18.5614 7.76681 18.3228 7.85298C18.0875 7.93916 17.8986 8.06345 17.756 8.22585C17.6168 8.38494 17.5472 8.59706 17.5472 8.86222C17.5472 9.23011 17.6831 9.50852 17.9549 9.69744C18.2267 9.88305 18.573 9.97585 18.994 9.97585ZM25.9057 0.818182V11H24.4192V0.818182H25.9057ZM31.1967 11.1541C30.4444 11.1541 29.7964 10.9934 29.2528 10.6719C28.7126 10.3471 28.295 9.89134 28 9.30469C27.7083 8.71473 27.5625 8.02367 27.5625 7.23153C27.5625 6.44934 27.7083 5.75994 28 5.16335C28.295 4.56676 28.706 4.10109 29.233 3.76633C29.7633 3.43158 30.383 3.2642 31.0923 3.2642C31.5232 3.2642 31.9408 3.33546 32.3452 3.47798C32.7495 3.6205 33.1125 3.84422 33.4339 4.14915C33.7554 4.45407 34.009 4.85014 34.1946 5.33736C34.3802 5.82126 34.473 6.40956 34.473 7.10227V7.62926H28.4027V6.51562H33.0163C33.0163 6.12453 32.9368 5.77817 32.7777 5.47656C32.6186 5.17164 32.3949 4.93134 32.1065 4.75568C31.8215 4.58002 31.4867 4.49219 31.1023 4.49219C30.6847 4.49219 30.3201 4.59493 30.0085 4.80043C29.7003 5.0026 29.4616 5.26776 29.2926 5.59588C29.1269 5.92069 29.044 6.27367 29.044 6.65483V7.52486C29.044 8.03527 29.1335 8.46946 29.3125 8.82741C29.4948 9.18537 29.7483 9.45881 30.0732 9.64773C30.398 9.83333 30.7775 9.92614 31.2116 9.92614C31.4934 9.92614 31.7502 9.88636 31.9822 9.80682C32.2143 9.72396 32.4148 9.60133 32.5838 9.43892C32.7528 9.27652 32.8821 9.07599 32.9716 8.83736L34.3786 9.09091C34.2659 9.50521 34.0637 9.86813 33.772 10.1797C33.4837 10.4879 33.1207 10.7282 32.6832 10.9006C32.2491 11.0696 31.7536 11.1541 31.1967 11.1541ZM40.6216 6.05327V7.34091H36.1074V6.05327H40.6216ZM46.1277 11.169C45.3422 11.1657 44.671 10.9586 44.1142 10.5476C43.5574 10.1366 43.1315 9.53835 42.8365 8.75284C42.5415 7.96733 42.394 7.02107 42.394 5.91406C42.394 4.81037 42.5415 3.86742 42.8365 3.08523C43.1348 2.30303 43.5623 1.70644 44.1191 1.29545C44.6793 0.884469 45.3488 0.678977 46.1277 0.678977C46.9065 0.678977 47.5744 0.886126 48.1312 1.30043C48.688 1.71141 49.1139 2.308 49.4089 3.0902C49.7072 3.86908 49.8564 4.81037 49.8564 5.91406C49.8564 7.02438 49.7089 7.9723 49.4139 8.75781C49.1189 9.54001 48.693 10.1383 48.1362 10.5526C47.5794 10.9635 46.9099 11.169 46.1277 11.169ZM46.1277 9.84162C46.8171 9.84162 47.3556 9.50521 47.7434 8.83239C48.1345 8.15956 48.3301 7.18679 48.3301 5.91406C48.3301 5.06889 48.2406 4.35464 48.0616 3.77131C47.8859 3.18466 47.6324 2.74053 47.301 2.43892C46.9728 2.134 46.5817 1.98153 46.1277 1.98153C45.4416 1.98153 44.903 2.3196 44.5119 2.99574C44.1208 3.67187 43.9236 4.64465 43.9203 5.91406C43.9203 6.76255 44.0081 7.48011 44.1838 8.06676C44.3627 8.65009 44.6163 9.09257 44.9444 9.39418C45.2725 9.69247 45.667 9.84162 46.1277 9.84162ZM55.1648 11.1392C54.482 11.1392 53.8722 11.0215 53.3352 10.7862C52.8016 10.5509 52.379 10.2244 52.0675 9.80682C51.7592 9.38589 51.5935 8.89867 51.5703 8.34517H53.1314C53.1513 8.64678 53.2524 8.90862 53.4347 9.13068C53.6203 9.34943 53.8622 9.51847 54.1605 9.63778C54.4588 9.7571 54.7902 9.81676 55.1548 9.81676C55.5559 9.81676 55.9105 9.74716 56.2188 9.60795C56.5303 9.46875 56.7739 9.27486 56.9496 9.02628C57.1252 8.77438 57.2131 8.48438 57.2131 8.15625C57.2131 7.81487 57.1252 7.51491 56.9496 7.25639C56.7772 6.99455 56.5237 6.78906 56.1889 6.63991C55.8575 6.49077 55.4564 6.41619 54.9858 6.41619H54.1257V5.16335H54.9858C55.3636 5.16335 55.6951 5.09541 55.9801 4.95952C56.2685 4.82363 56.4938 4.63471 56.6562 4.39276C56.8187 4.14749 56.8999 3.8608 56.8999 3.53267C56.8999 3.2178 56.8286 2.94437 56.6861 2.71236C56.5469 2.47704 56.348 2.29309 56.0895 2.16051C55.8343 2.02794 55.5327 1.96165 55.1847 1.96165C54.8532 1.96165 54.5433 2.02296 54.255 2.1456C53.9699 2.26491 53.7379 2.43726 53.5589 2.66264C53.38 2.88471 53.2839 3.15151 53.2706 3.46307H51.7841C51.8007 2.91288 51.9631 2.42898 52.2713 2.01136C52.5829 1.59375 52.9938 1.26728 53.5043 1.03196C54.0147 0.796638 54.5814 0.678977 55.2045 0.678977C55.8575 0.678977 56.4209 0.806581 56.8949 1.06179C57.3722 1.31368 57.7401 1.65009 57.9986 2.07102C58.2604 2.49195 58.3897 2.95265 58.3864 3.45312C58.3897 4.0232 58.2306 4.5071 57.9091 4.90483C57.5909 5.30256 57.1667 5.56937 56.6364 5.70526V5.7848C57.3125 5.88755 57.8362 6.15601 58.2074 6.5902C58.5819 7.02438 58.7675 7.56297 58.7642 8.20597C58.7675 8.7661 58.6117 9.26823 58.2969 9.71236C57.9853 10.1565 57.5594 10.5062 57.0192 10.7614C56.4789 11.0133 55.8608 11.1392 55.1648 11.1392Z" fill="black"/>
</svg>
