<svg width="80" height="15" viewBox="0 0 80 15" fill="none" xmlns="http://www.w3.org/2000/svg">
<path d="M3.22159 11.169C2.73769 11.169 2.30019 11.0795 1.90909 10.9006C1.51799 10.7183 1.2081 10.4548 0.979403 10.1101C0.754025 9.76539 0.641335 9.3428 0.641335 8.84233C0.641335 8.41146 0.724195 8.05682 0.889915 7.77841C1.05563 7.5 1.27936 7.27959 1.56108 7.11719C1.8428 6.95478 2.15767 6.83215 2.50568 6.74929C2.85369 6.66643 3.20833 6.60346 3.5696 6.56037C4.02699 6.50734 4.3982 6.46425 4.68324 6.43111C4.96828 6.39465 5.17543 6.33665 5.30469 6.2571C5.43395 6.17756 5.49858 6.0483 5.49858 5.86932V5.83452C5.49858 5.40033 5.37595 5.06392 5.13068 4.82528C4.88873 4.58665 4.52746 4.46733 4.04688 4.46733C3.5464 4.46733 3.15199 4.57836 2.86364 4.80043C2.5786 5.01918 2.38139 5.26278 2.27202 5.53125L0.875 5.21307C1.04072 4.74905 1.28267 4.37453 1.60085 4.08949C1.92235 3.80114 2.2919 3.59233 2.70952 3.46307C3.12713 3.33049 3.56629 3.2642 4.02699 3.2642C4.33191 3.2642 4.65507 3.30066 4.99645 3.37358C5.34115 3.44318 5.66264 3.57244 5.96094 3.76136C6.26255 3.95028 6.50947 4.22041 6.7017 4.57173C6.89394 4.91974 6.99006 5.37216 6.99006 5.92898V11H5.53835V9.95597H5.47869C5.38258 10.1482 5.2384 10.3371 5.04616 10.5227C4.85393 10.7083 4.60701 10.8625 4.3054 10.9851C4.00379 11.1077 3.64252 11.169 3.22159 11.169ZM3.54474 9.97585C3.95573 9.97585 4.30706 9.89465 4.59872 9.73224C4.8937 9.56984 5.11742 9.35772 5.26989 9.09588C5.42566 8.83073 5.50355 8.54735 5.50355 8.24574V7.26136C5.45052 7.31439 5.34777 7.36411 5.19531 7.41051C5.04616 7.4536 4.87547 7.49171 4.68324 7.52486C4.491 7.55469 4.30374 7.58286 4.12145 7.60938C3.93916 7.63258 3.7867 7.65246 3.66406 7.66903C3.37571 7.70549 3.11222 7.76681 2.87358 7.85298C2.63826 7.93916 2.44934 8.06345 2.30682 8.22585C2.16761 8.38494 2.09801 8.59706 2.09801 8.86222C2.09801 9.23011 2.2339 9.50852 2.50568 9.69744C2.77746 9.88305 3.12382 9.97585 3.54474 9.97585ZM10.4565 0.818182V11H8.96999V0.818182H10.4565ZM12.4563 11V3.36364H13.9428V11H12.4563ZM13.207 2.18537C12.9485 2.18537 12.7264 2.09919 12.5408 1.92685C12.3585 1.75118 12.2674 1.54238 12.2674 1.30043C12.2674 1.05516 12.3585 0.846354 12.5408 0.674005C12.7264 0.498342 12.9485 0.410511 13.207 0.410511C13.4656 0.410511 13.686 0.498342 13.8683 0.674005C14.0539 0.846354 14.1467 1.05516 14.1467 1.30043C14.1467 1.54238 14.0539 1.75118 13.8683 1.92685C13.686 2.09919 13.4656 2.18537 13.207 2.18537ZM19.1444 14.0227C18.5378 14.0227 18.0158 13.9432 17.5783 13.7841C17.1441 13.625 16.7895 13.4145 16.5144 13.1527C16.2393 12.8909 16.0338 12.6042 15.8979 12.2926L17.1756 11.7656C17.2651 11.9115 17.3844 12.0656 17.5336 12.228C17.686 12.3937 17.8915 12.5346 18.15 12.6506C18.4119 12.7666 18.7483 12.8246 19.1593 12.8246C19.7227 12.8246 20.1884 12.687 20.5563 12.4119C20.9242 12.1402 21.1081 11.706 21.1081 11.1094V9.60795H21.0137C20.9242 9.77036 20.7949 9.95099 20.6259 10.1499C20.4602 10.3487 20.2315 10.5211 19.9398 10.6669C19.6481 10.8127 19.2686 10.8857 18.8013 10.8857C18.1981 10.8857 17.6545 10.7448 17.1706 10.4631C16.69 10.178 16.3089 9.75876 16.0272 9.20526C15.7488 8.64844 15.6096 7.96401 15.6096 7.15199C15.6096 6.33996 15.7471 5.64394 16.0222 5.06392C16.3006 4.4839 16.6818 4.03977 17.1657 3.73153C17.6496 3.41998 18.1981 3.2642 18.8113 3.2642C19.2852 3.2642 19.668 3.34375 19.9597 3.50284C20.2514 3.65862 20.4784 3.84091 20.6408 4.04972C20.8065 4.25852 20.9341 4.44247 21.0236 4.60156H21.133V3.36364H22.5897V11.169C22.5897 11.8253 22.4372 12.3639 22.1323 12.7848C21.8274 13.2057 21.4147 13.5173 20.8944 13.7195C20.3773 13.9216 19.794 14.0227 19.1444 14.0227ZM19.1294 9.6527C19.557 9.6527 19.9183 9.55327 20.2132 9.3544C20.5115 9.15223 20.7369 8.86387 20.8894 8.48935C21.0452 8.11151 21.123 7.65909 21.123 7.1321C21.123 6.61837 21.0468 6.16596 20.8944 5.77486C20.7419 5.38376 20.5182 5.07884 20.2232 4.86009C19.9282 4.63802 19.5636 4.52699 19.1294 4.52699C18.682 4.52699 18.3091 4.64299 18.0108 4.875C17.7125 5.10369 17.4872 5.41525 17.3347 5.80966C17.1855 6.20407 17.111 6.64489 17.111 7.1321C17.111 7.63258 17.1872 8.07173 17.3397 8.44957C17.4921 8.82741 17.7175 9.1224 18.0158 9.33452C18.3174 9.54664 18.6886 9.6527 19.1294 9.6527ZM26.0698 6.46591V11H24.5833V3.36364H26.0101V4.60653H26.1046C26.2802 4.20218 26.5553 3.87737 26.9299 3.6321C27.3077 3.38684 27.7833 3.2642 28.3567 3.2642C28.8771 3.2642 29.3328 3.37358 29.7239 3.59233C30.115 3.80777 30.4183 4.12926 30.6337 4.55682C30.8491 4.98437 30.9569 5.51302 30.9569 6.14276V11H29.4703V6.32173C29.4703 5.76823 29.3262 5.3357 29.0378 5.02415C28.7495 4.70928 28.3534 4.55185 27.8496 4.55185C27.5049 4.55185 27.1983 4.62642 26.9299 4.77557C26.6647 4.92472 26.4542 5.14347 26.2985 5.43182C26.146 5.71686 26.0698 6.06155 26.0698 6.46591ZM37.4498 6.05327V7.34091H32.9355V6.05327H37.4498ZM39.4309 3.36364H40.9174V11.4972C40.9174 12.0076 40.8246 12.4384 40.639 12.7898C40.4567 13.1411 40.185 13.4079 39.8237 13.5902C39.4657 13.7725 39.0233 13.8636 38.4963 13.8636C38.4432 13.8636 38.3935 13.8636 38.3471 13.8636C38.2974 13.8636 38.246 13.862 38.193 13.8587V12.581C38.2394 12.581 38.2808 12.581 38.3173 12.581C38.3504 12.581 38.3886 12.581 38.4316 12.581C38.783 12.581 39.0365 12.4865 39.1923 12.2976C39.3514 12.112 39.4309 11.8419 39.4309 11.4872V3.36364ZM40.1667 2.18537C39.9082 2.18537 39.6861 2.09919 39.5005 1.92685C39.3182 1.75118 39.2271 1.54238 39.2271 1.30043C39.2271 1.05516 39.3182 0.846354 39.5005 0.674005C39.6861 0.498342 39.9082 0.410511 40.1667 0.410511C40.4252 0.410511 40.6457 0.498342 40.8279 0.674005C41.0136 0.846354 41.1064 1.05516 41.1064 1.30043C41.1064 1.54238 41.0136 1.75118 40.8279 1.92685C40.6457 2.09919 40.4252 2.18537 40.1667 2.18537ZM47.7546 7.8331V3.36364H49.2461V11H47.7844V9.67756H47.7049C47.5292 10.0852 47.2475 10.425 46.8597 10.6967C46.4753 10.9652 45.9963 11.0994 45.4229 11.0994C44.9324 11.0994 44.4982 10.9917 44.1204 10.7763C43.7459 10.5575 43.4509 10.2344 43.2354 9.80682C43.0233 9.37926 42.9173 8.85062 42.9173 8.22088V3.36364H44.4038V8.0419C44.4038 8.56226 44.5479 8.97656 44.8363 9.2848C45.1246 9.59304 45.4992 9.74716 45.9599 9.74716C46.2383 9.74716 46.515 9.67756 46.7901 9.53835C47.0685 9.39915 47.2989 9.18868 47.4812 8.90696C47.6668 8.62524 47.7579 8.26728 47.7546 7.8331ZM56.9657 5.22798L55.6184 5.46662C55.5621 5.29427 55.4726 5.13021 55.35 4.97443C55.2306 4.81865 55.0682 4.69105 54.8627 4.59162C54.6573 4.49219 54.4004 4.44247 54.0922 4.44247C53.6712 4.44247 53.3199 4.53693 53.0382 4.72585C52.7565 4.91146 52.6156 5.15175 52.6156 5.44673C52.6156 5.70194 52.71 5.90743 52.899 6.06321C53.0879 6.21899 53.3928 6.34659 53.8137 6.44602L55.0268 6.72443C55.7295 6.88684 56.2531 7.13707 56.5978 7.47514C56.9425 7.81321 57.1149 8.25237 57.1149 8.79261C57.1149 9.25 56.9823 9.65767 56.7172 10.0156C56.4553 10.3703 56.0891 10.6487 55.6184 10.8509C55.1511 11.053 54.6092 11.1541 53.9927 11.1541C53.1376 11.1541 52.4399 10.9718 51.8997 10.6072C51.3594 10.2393 51.028 9.71733 50.9054 9.04119L52.3422 8.82244C52.4316 9.19697 52.6156 9.48035 52.894 9.67259C53.1724 9.86151 53.5353 9.95597 53.9828 9.95597C54.47 9.95597 54.8594 9.85488 55.1511 9.6527C55.4428 9.44721 55.5886 9.19697 55.5886 8.90199C55.5886 8.66335 55.4991 8.46283 55.3201 8.30043C55.1445 8.13802 54.8743 8.01539 54.5098 7.93253L53.2172 7.64915C52.5046 7.48674 51.9776 7.22822 51.6362 6.87358C51.2981 6.51894 51.1291 6.06984 51.1291 5.52628C51.1291 5.07552 51.255 4.68111 51.5069 4.34304C51.7588 4.00497 52.1068 3.74148 52.551 3.55256C52.9951 3.36032 53.5038 3.2642 54.0772 3.2642C54.9025 3.2642 55.5521 3.44318 56.0261 3.80114C56.5001 4.15578 56.8133 4.63139 56.9657 5.22798ZM62.3139 3.36364V4.55682H58.1428V3.36364H62.3139ZM59.2614 1.53409H60.7479V8.75781C60.7479 9.04616 60.791 9.26326 60.8771 9.40909C60.9633 9.55161 61.0743 9.64938 61.2102 9.70241C61.3494 9.75213 61.5002 9.77699 61.6626 9.77699C61.782 9.77699 61.8864 9.7687 61.9759 9.75213C62.0653 9.73556 62.1349 9.7223 62.1847 9.71236L62.4531 10.9403C62.367 10.9735 62.2443 11.0066 62.0852 11.0398C61.9261 11.0762 61.7273 11.0961 61.4886 11.0994C61.0975 11.1061 60.733 11.0365 60.3949 10.8906C60.0568 10.7448 59.7834 10.5194 59.5746 10.2145C59.3658 9.90956 59.2614 9.52675 59.2614 9.06605V1.53409ZM63.9583 11V3.36364H65.4448V11H63.9583ZM64.709 2.18537C64.4505 2.18537 64.2284 2.09919 64.0428 1.92685C63.8605 1.75118 63.7694 1.54238 63.7694 1.30043C63.7694 1.05516 63.8605 0.846354 64.0428 0.674005C64.2284 0.498342 64.4505 0.410511 64.709 0.410511C64.9675 0.410511 65.1879 0.498342 65.3702 0.674005C65.5558 0.846354 65.6486 1.05516 65.6486 1.30043C65.6486 1.54238 65.5558 1.75118 65.3702 1.92685C65.1879 2.09919 64.9675 2.18537 64.709 2.18537ZM71.0788 3.36364V4.55682H66.7635V3.36364H71.0788ZM67.9467 11V2.47869C67.9467 2.00142 68.0511 1.60535 68.2599 1.29048C68.4688 0.972301 68.7455 0.735322 69.0902 0.579545C69.4349 0.420454 69.8094 0.340908 70.2138 0.340908C70.5121 0.340908 70.7673 0.365767 70.9794 0.415483C71.1915 0.461884 71.349 0.504971 71.4517 0.544744L71.1037 1.74787C71.0341 1.72798 70.9446 1.70478 70.8352 1.67827C70.7259 1.64844 70.5933 1.63352 70.4375 1.63352C70.0762 1.63352 69.8177 1.72301 69.6619 1.90199C69.5095 2.08097 69.4332 2.33949 69.4332 2.67756V11H67.9467ZM73.5522 13.8636C73.3301 13.8636 73.128 13.8454 72.9457 13.8089C72.7634 13.7758 72.6275 13.7393 72.538 13.6996L72.896 12.4815C73.1677 12.5545 73.4097 12.5859 73.6218 12.576C73.8339 12.5661 74.0212 12.4865 74.1836 12.3374C74.3493 12.1882 74.4951 11.9446 74.6211 11.6065L74.805 11.0994L72.011 3.36364H73.6019L75.5359 9.28977H75.6154L77.5494 3.36364H79.1452L75.9982 12.0192C75.8524 12.4169 75.6668 12.7533 75.4414 13.0284C75.216 13.3068 74.9476 13.5156 74.636 13.6548C74.3245 13.794 73.9632 13.8636 73.5522 13.8636Z" fill="black"/>
</svg>
