<svg width="65" height="12" viewBox="0 0 65 12" fill="none" xmlns="http://www.w3.org/2000/svg">
<path d="M4.56392 3.36364V4.55682H0.392756V3.36364H4.56392ZM1.51136 1.53409H2.99787V8.75781C2.99787 9.04616 3.04096 9.26326 3.12713 9.40909C3.21331 9.55161 3.32434 9.64938 3.46023 9.70241C3.59943 9.75213 3.75024 9.77699 3.91264 9.77699C4.03196 9.77699 4.13636 9.7687 4.22585 9.75213C4.31534 9.73556 4.38494 9.7223 4.43466 9.71236L4.70312 10.9403C4.61695 10.9735 4.49432 11.0066 4.33523 11.0398C4.17614 11.0762 3.97727 11.0961 3.73864 11.0994C3.34754 11.1061 2.98295 11.0365 2.64489 10.8906C2.30682 10.7448 2.03338 10.5194 1.82457 10.2145C1.61577 9.90956 1.51136 9.52675 1.51136 9.06605V1.53409ZM6.20827 11V3.36364H7.64506V4.5767H7.72461C7.86381 4.16572 8.10908 3.84257 8.4604 3.60724C8.81505 3.36861 9.21609 3.24929 9.66353 3.24929C9.75633 3.24929 9.86571 3.2526 9.99166 3.25923C10.1209 3.26586 10.222 3.27415 10.2949 3.28409V4.70597C10.2353 4.68939 10.1292 4.67116 9.97674 4.65128C9.82428 4.62808 9.67182 4.61648 9.51935 4.61648C9.16803 4.61648 8.85482 4.69105 8.57972 4.8402C8.30794 4.98603 8.09251 5.18987 7.93342 5.4517C7.77433 5.71023 7.69478 6.00521 7.69478 6.33665V11H6.20827ZM13.7353 11.169C13.2514 11.169 12.8139 11.0795 12.4228 10.9006C12.0317 10.7183 11.7218 10.4548 11.4931 10.1101C11.2677 9.76539 11.155 9.3428 11.155 8.84233C11.155 8.41146 11.2379 8.05682 11.4036 7.77841C11.5693 7.5 11.793 7.27959 12.0748 7.11719C12.3565 6.95478 12.6713 6.83215 13.0194 6.74929C13.3674 6.66643 13.722 6.60346 14.0833 6.56037C14.5407 6.50734 14.9119 6.46425 15.1969 6.43111C15.4819 6.39465 15.6891 6.33665 15.8184 6.2571C15.9476 6.17756 16.0123 6.0483 16.0123 5.86932V5.83452C16.0123 5.40033 15.8896 5.06392 15.6444 4.82528C15.4024 4.58665 15.0411 4.46733 14.5605 4.46733C14.0601 4.46733 13.6657 4.57836 13.3773 4.80043C13.0923 5.01918 12.8951 5.26278 12.7857 5.53125L11.3887 5.21307C11.5544 4.74905 11.7963 4.37453 12.1145 4.08949C12.436 3.80114 12.8056 3.59233 13.2232 3.46307C13.6408 3.33049 14.08 3.2642 14.5407 3.2642C14.8456 3.2642 15.1687 3.30066 15.5101 3.37358C15.8548 3.44318 16.1763 3.57244 16.4746 3.76136C16.7762 3.95028 17.0231 4.22041 17.2154 4.57173C17.4076 4.91974 17.5037 5.37216 17.5037 5.92898V11H16.052V9.95597H15.9924C15.8962 10.1482 15.7521 10.3371 15.5598 10.5227C15.3676 10.7083 15.1207 10.8625 14.8191 10.9851C14.5175 11.1077 14.1562 11.169 13.7353 11.169ZM14.0584 9.97585C14.4694 9.97585 14.8207 9.89465 15.1124 9.73224C15.4074 9.56984 15.6311 9.35772 15.7836 9.09588C15.9393 8.83073 16.0172 8.54735 16.0172 8.24574V7.26136C15.9642 7.31439 15.8614 7.36411 15.709 7.41051C15.5598 7.4536 15.3891 7.49171 15.1969 7.52486C15.0047 7.55469 14.8174 7.58286 14.6351 7.60938C14.4528 7.63258 14.3004 7.65246 14.1777 7.66903C13.8894 7.70549 13.6259 7.76681 13.3873 7.85298C13.1519 7.93916 12.963 8.06345 12.8205 8.22585C12.6813 8.38494 12.6117 8.59706 12.6117 8.86222C12.6117 9.23011 12.7476 9.50852 13.0194 9.69744C13.2911 9.88305 13.6375 9.97585 14.0584 9.97585ZM20.9702 6.46591V11H19.4837V3.36364H20.9105V4.60653H21.005C21.1806 4.20218 21.4557 3.87737 21.8303 3.6321C22.2081 3.38684 22.6837 3.2642 23.2571 3.2642C23.7775 3.2642 24.2332 3.37358 24.6243 3.59233C25.0154 3.80777 25.3187 4.12926 25.5341 4.55682C25.7495 4.98437 25.8572 5.51302 25.8572 6.14276V11H24.3707V6.32173C24.3707 5.76823 24.2266 5.3357 23.9382 5.02415C23.6499 4.70928 23.2538 4.55185 22.75 4.55185C22.4053 4.55185 22.0987 4.62642 21.8303 4.77557C21.5651 4.92472 21.3546 5.14347 21.1989 5.43182C21.0464 5.71686 20.9702 6.06155 20.9702 6.46591ZM33.5732 5.22798L32.2259 5.46662C32.1695 5.29427 32.08 5.13021 31.9574 4.97443C31.8381 4.81865 31.6757 4.69105 31.4702 4.59162C31.2647 4.49219 31.0078 4.44247 30.6996 4.44247C30.2786 4.44247 29.9273 4.53693 29.6456 4.72585C29.3639 4.91146 29.223 5.15175 29.223 5.44673C29.223 5.70194 29.3175 5.90743 29.5064 6.06321C29.6953 6.21899 30.0002 6.34659 30.4212 6.44602L31.6342 6.72443C32.3369 6.88684 32.8606 7.13707 33.2053 7.47514C33.55 7.81321 33.7223 8.25237 33.7223 8.79261C33.7223 9.25 33.5897 9.65767 33.3246 10.0156C33.0627 10.3703 32.6965 10.6487 32.2259 10.8509C31.7585 11.053 31.2166 11.1541 30.6001 11.1541C29.745 11.1541 29.0473 10.9718 28.5071 10.6072C27.9669 10.2393 27.6354 9.71733 27.5128 9.04119L28.9496 8.82244C29.0391 9.19697 29.223 9.48035 29.5014 9.67259C29.7798 9.86151 30.1428 9.95597 30.5902 9.95597C31.0774 9.95597 31.4669 9.85488 31.7585 9.6527C32.0502 9.44721 32.196 9.19697 32.196 8.90199C32.196 8.66335 32.1065 8.46283 31.9276 8.30043C31.7519 8.13802 31.4818 8.01539 31.1172 7.93253L29.8246 7.64915C29.112 7.48674 28.585 7.22822 28.2436 6.87358C27.9055 6.51894 27.7365 6.06984 27.7365 5.52628C27.7365 5.07552 27.8625 4.68111 28.1143 4.34304C28.3662 4.00497 28.7143 3.74148 29.1584 3.55256C29.6025 3.36032 30.1113 3.2642 30.6847 3.2642C31.5099 3.2642 32.1596 3.44318 32.6335 3.80114C33.1075 4.15578 33.4207 4.63139 33.5732 5.22798ZM38.9909 3.36364V4.55682H34.6756V3.36364H38.9909ZM35.8588 11V2.47869C35.8588 2.00142 35.9632 1.60535 36.1721 1.29048C36.3809 0.972301 36.6576 0.735322 37.0023 0.579545C37.347 0.420454 37.7215 0.340908 38.1259 0.340908C38.4242 0.340908 38.6794 0.365767 38.8915 0.415483C39.1036 0.461884 39.2611 0.504971 39.3638 0.544744L39.0158 1.74787C38.9462 1.72798 38.8567 1.70478 38.7473 1.67827C38.638 1.64844 38.5054 1.63352 38.3496 1.63352C37.9883 1.63352 37.7298 1.72301 37.574 1.90199C37.4216 2.08097 37.3453 2.33949 37.3453 2.67756V11H35.8588ZM43.4405 11.1541C42.7246 11.1541 42.0998 10.9901 41.5662 10.6619C41.0326 10.3338 40.6183 9.87476 40.3233 9.2848C40.0283 8.69484 39.8809 8.00544 39.8809 7.21662C39.8809 6.42448 40.0283 5.73177 40.3233 5.13849C40.6183 4.54522 41.0326 4.08452 41.5662 3.75639C42.0998 3.42827 42.7246 3.2642 43.4405 3.2642C44.1564 3.2642 44.7812 3.42827 45.3148 3.75639C45.8484 4.08452 46.2627 4.54522 46.5577 5.13849C46.8527 5.73177 47.0002 6.42448 47.0002 7.21662C47.0002 8.00544 46.8527 8.69484 46.5577 9.2848C46.2627 9.87476 45.8484 10.3338 45.3148 10.6619C44.7812 10.9901 44.1564 11.1541 43.4405 11.1541ZM43.4455 9.90625C43.9095 9.90625 44.294 9.78362 44.5989 9.53835C44.9038 9.29309 45.1292 8.96662 45.275 8.55895C45.4242 8.15128 45.4988 7.70218 45.4988 7.21165C45.4988 6.72443 45.4242 6.27699 45.275 5.86932C45.1292 5.45833 44.9038 5.12855 44.5989 4.87997C44.294 4.63139 43.9095 4.5071 43.4455 4.5071C42.9782 4.5071 42.5904 4.63139 42.2821 4.87997C41.9772 5.12855 41.7502 5.45833 41.601 5.86932C41.4552 6.27699 41.3823 6.72443 41.3823 7.21165C41.3823 7.70218 41.4552 8.15128 41.601 8.55895C41.7502 8.96662 41.9772 9.29309 42.2821 9.53835C42.5904 9.78362 42.9782 9.90625 43.4455 9.90625ZM48.6594 11V3.36364H50.0962V4.5767H50.1758C50.315 4.16572 50.5603 3.84257 50.9116 3.60724C51.2662 3.36861 51.6673 3.24929 52.1147 3.24929C52.2075 3.24929 52.3169 3.2526 52.4428 3.25923C52.5721 3.26586 52.6732 3.27415 52.7461 3.28409V4.70597C52.6864 4.68939 52.5804 4.67116 52.4279 4.65128C52.2754 4.62808 52.123 4.61648 51.9705 4.61648C51.6192 4.61648 51.306 4.69105 51.0309 4.8402C50.7591 4.98603 50.5437 5.18987 50.3846 5.4517C50.2255 5.71023 50.146 6.00521 50.146 6.33665V11H48.6594ZM54.0325 11V3.36364H55.4593V4.60653H55.5538C55.7129 4.18561 55.9731 3.85748 56.3343 3.62216C56.6956 3.38352 57.1281 3.2642 57.6319 3.2642C58.1423 3.2642 58.5699 3.38352 58.9146 3.62216C59.2626 3.8608 59.5195 4.18892 59.6852 4.60653H59.7647C59.947 4.19886 60.237 3.87405 60.6348 3.6321C61.0325 3.38684 61.5065 3.2642 62.0566 3.2642C62.7493 3.2642 63.3145 3.4813 63.752 3.91548C64.1928 4.34967 64.4132 5.00426 64.4132 5.87926V11H62.9267V6.01847C62.9267 5.50142 62.7858 5.12689 62.5041 4.89489C62.2224 4.66288 61.8859 4.54688 61.4949 4.54688C61.0109 4.54688 60.6348 4.69602 60.3663 4.99432C60.0978 5.2893 59.9636 5.6688 59.9636 6.13281V11H58.4821V5.92401C58.4821 5.50971 58.3528 5.17661 58.0943 4.92472C57.8358 4.67282 57.4993 4.54688 57.085 4.54688C56.8033 4.54688 56.5431 4.62145 56.3045 4.7706C56.0692 4.91643 55.8786 5.12026 55.7328 5.3821C55.5903 5.64394 55.519 5.94721 55.519 6.2919V11H54.0325Z" fill="black"/>
</svg>
