<svg width="103" height="14" viewBox="0 0 103 14" fill="none" xmlns="http://www.w3.org/2000/svg">
<path d="M-0.000710189 13.8636V3.36364H1.45099V4.60156H1.57528C1.66146 4.44247 1.78575 4.25852 1.94815 4.04972C2.11056 3.84091 2.33594 3.65862 2.62429 3.50284C2.91264 3.34375 3.2938 3.2642 3.76776 3.2642C4.38423 3.2642 4.93442 3.41998 5.41832 3.73153C5.90223 4.04309 6.28172 4.49219 6.55682 5.07884C6.83523 5.66548 6.97443 6.37145 6.97443 7.19673C6.97443 8.02202 6.83688 8.72964 6.56179 9.3196C6.2867 9.90625 5.90885 10.3587 5.42827 10.6768C4.94768 10.9917 4.39915 11.1491 3.78267 11.1491C3.31866 11.1491 2.93916 11.0713 2.64418 10.9155C2.35251 10.7597 2.12382 10.5774 1.9581 10.3686C1.79238 10.1598 1.66477 9.9742 1.57528 9.81179H1.4858V13.8636H-0.000710189ZM1.45597 7.18182C1.45597 7.71875 1.53385 8.18939 1.68963 8.59375C1.84541 8.99811 2.07079 9.31463 2.36577 9.54332C2.66075 9.7687 3.02202 9.88139 3.44957 9.88139C3.8937 9.88139 4.26491 9.76373 4.56321 9.52841C4.86151 9.28977 5.08688 8.96662 5.23935 8.55895C5.39512 8.15128 5.47301 7.69223 5.47301 7.18182C5.47301 6.67803 5.39678 6.22562 5.24432 5.82457C5.09517 5.42353 4.86979 5.10701 4.56818 4.875C4.26989 4.64299 3.89702 4.52699 3.44957 4.52699C3.0187 4.52699 2.65412 4.63802 2.35582 4.86009C2.06084 5.08215 1.83712 5.39205 1.68466 5.78977C1.5322 6.1875 1.45597 6.65151 1.45597 7.18182ZM11.9311 11.1541C11.1787 11.1541 10.5308 10.9934 9.98722 10.6719C9.44697 10.3471 9.02936 9.89134 8.73438 9.30469C8.44271 8.71473 8.29688 8.02367 8.29688 7.23153C8.29688 6.44934 8.44271 5.75994 8.73438 5.16335C9.02936 4.56676 9.44034 4.10109 9.96733 3.76633C10.4976 3.43158 11.1174 3.2642 11.8267 3.2642C12.2576 3.2642 12.6752 3.33546 13.0795 3.47798C13.4839 3.6205 13.8468 3.84422 14.1683 4.14915C14.4898 4.45407 14.7434 4.85014 14.929 5.33736C15.1146 5.82126 15.2074 6.40956 15.2074 7.10227V7.62926H9.13707V6.51562H13.7507C13.7507 6.12453 13.6712 5.77817 13.5121 5.47656C13.353 5.17164 13.1293 4.93134 12.8409 4.75568C12.5559 4.58002 12.2211 4.49219 11.8366 4.49219C11.419 4.49219 11.0545 4.59493 10.7429 4.80043C10.4347 5.0026 10.196 5.26776 10.027 5.59588C9.86127 5.92069 9.77841 6.27367 9.77841 6.65483V7.52486C9.77841 8.03527 9.8679 8.46946 10.0469 8.82741C10.2292 9.18537 10.4827 9.45881 10.8075 9.64773C11.1323 9.83333 11.5118 9.92614 11.946 9.92614C12.2277 9.92614 12.4846 9.88636 12.7166 9.80682C12.9486 9.72396 13.1491 9.60133 13.3182 9.43892C13.4872 9.27652 13.6165 9.07599 13.706 8.83736L15.1129 9.09091C15.0002 9.50521 14.7981 9.86813 14.5064 10.1797C14.218 10.4879 13.8551 10.7282 13.4176 10.9006C12.9834 11.0696 12.4879 11.1541 11.9311 11.1541ZM18.3432 6.46591V11H16.8567V3.36364H18.2836V4.60653H18.378C18.5537 4.20218 18.8288 3.87737 19.2033 3.6321C19.5811 3.38684 20.0568 3.2642 20.6301 3.2642C21.1505 3.2642 21.6062 3.37358 21.9973 3.59233C22.3884 3.80777 22.6917 4.12926 22.9071 4.55682C23.1226 4.98437 23.2303 5.51302 23.2303 6.14276V11H21.7438V6.32173C21.7438 5.76823 21.5996 5.3357 21.3113 5.02415C21.0229 4.70928 20.6268 4.55185 20.123 4.55185C19.7783 4.55185 19.4718 4.62642 19.2033 4.77557C18.9382 4.92472 18.7277 5.14347 18.5719 5.43182C18.4194 5.71686 18.3432 6.06155 18.3432 6.46591ZM29.7232 6.05327V7.34091H25.209V6.05327H29.7232ZM35.269 3.36364V4.55682H31.0978V3.36364H35.269ZM32.2164 1.53409H33.7029V8.75781C33.7029 9.04616 33.746 9.26326 33.8322 9.40909C33.9184 9.55161 34.0294 9.64938 34.1653 9.70241C34.3045 9.75213 34.4553 9.77699 34.6177 9.77699C34.737 9.77699 34.8414 9.7687 34.9309 9.75213C35.0204 9.73556 35.09 9.7223 35.1397 9.71236L35.4082 10.9403C35.322 10.9735 35.1994 11.0066 35.0403 11.0398C34.8812 11.0762 34.6824 11.0961 34.4437 11.0994C34.0526 11.1061 33.688 11.0365 33.35 10.8906C33.0119 10.7448 32.7385 10.5194 32.5297 10.2145C32.3208 9.90956 32.2164 9.52675 32.2164 9.06605V1.53409ZM40.0479 11.1541C39.332 11.1541 38.7073 10.9901 38.1737 10.6619C37.64 10.3338 37.2257 9.87476 36.9308 9.2848C36.6358 8.69484 36.4883 8.00544 36.4883 7.21662C36.4883 6.42448 36.6358 5.73177 36.9308 5.13849C37.2257 4.54522 37.64 4.08452 38.1737 3.75639C38.7073 3.42827 39.332 3.2642 40.0479 3.2642C40.7638 3.2642 41.3886 3.42827 41.9222 3.75639C42.4558 4.08452 42.8701 4.54522 43.1651 5.13849C43.4601 5.73177 43.6076 6.42448 43.6076 7.21662C43.6076 8.00544 43.4601 8.69484 43.1651 9.2848C42.8701 9.87476 42.4558 10.3338 41.9222 10.6619C41.3886 10.9901 40.7638 11.1541 40.0479 11.1541ZM40.0529 9.90625C40.5169 9.90625 40.9014 9.78362 41.2063 9.53835C41.5112 9.29309 41.7366 8.96662 41.8825 8.55895C42.0316 8.15128 42.1062 7.70218 42.1062 7.21165C42.1062 6.72443 42.0316 6.27699 41.8825 5.86932C41.7366 5.45833 41.5112 5.12855 41.2063 4.87997C40.9014 4.63139 40.5169 4.5071 40.0529 4.5071C39.5856 4.5071 39.1978 4.63139 38.8896 4.87997C38.5846 5.12855 38.3576 5.45833 38.2085 5.86932C38.0626 6.27699 37.9897 6.72443 37.9897 7.21165C37.9897 7.70218 38.0626 8.15128 38.2085 8.55895C38.3576 8.96662 38.5846 9.29309 38.8896 9.53835C39.1978 9.78362 39.5856 9.90625 40.0529 9.90625ZM48.4835 11.1541C47.7676 11.1541 47.1428 10.9901 46.6092 10.6619C46.0756 10.3338 45.6613 9.87476 45.3663 9.2848C45.0713 8.69484 44.9238 8.00544 44.9238 7.21662C44.9238 6.42448 45.0713 5.73177 45.3663 5.13849C45.6613 4.54522 46.0756 4.08452 46.6092 3.75639C47.1428 3.42827 47.7676 3.2642 48.4835 3.2642C49.1994 3.2642 49.8242 3.42827 50.3578 3.75639C50.8914 4.08452 51.3057 4.54522 51.6007 5.13849C51.8957 5.73177 52.0431 6.42448 52.0431 7.21662C52.0431 8.00544 51.8957 8.69484 51.6007 9.2848C51.3057 9.87476 50.8914 10.3338 50.3578 10.6619C49.8242 10.9901 49.1994 11.1541 48.4835 11.1541ZM48.4885 9.90625C48.9525 9.90625 49.3369 9.78362 49.6419 9.53835C49.9468 9.29309 50.1722 8.96662 50.318 8.55895C50.4672 8.15128 50.5417 7.70218 50.5417 7.21165C50.5417 6.72443 50.4672 6.27699 50.318 5.86932C50.1722 5.45833 49.9468 5.12855 49.6419 4.87997C49.3369 4.63139 48.9525 4.5071 48.4885 4.5071C48.0211 4.5071 47.6333 4.63139 47.3251 4.87997C47.0202 5.12855 46.7931 5.45833 46.644 5.86932C46.4982 6.27699 46.4252 6.72443 46.4252 7.21165C46.4252 7.70218 46.4982 8.15128 46.644 8.55895C46.7931 8.96662 47.0202 9.29309 47.3251 9.53835C47.6333 9.78362 48.0211 9.90625 48.4885 9.90625ZM55.1889 0.818182V11H53.7024V0.818182H55.1889ZM61.688 6.05327V7.34091H57.1738V6.05327H61.688ZM63.6692 11V3.36364H65.0961V4.60653H65.1905C65.3496 4.18561 65.6098 3.85748 65.9711 3.62216C66.3323 3.38352 66.7649 3.2642 67.2686 3.2642C67.7791 3.2642 68.2066 3.38352 68.5513 3.62216C68.8993 3.8608 69.1562 4.18892 69.3219 4.60653H69.4015C69.5837 4.19886 69.8738 3.87405 70.2715 3.6321C70.6692 3.38684 71.1432 3.2642 71.6934 3.2642C72.3861 3.2642 72.9512 3.4813 73.3887 3.91548C73.8295 4.34967 74.0499 5.00426 74.0499 5.87926V11H72.5634V6.01847C72.5634 5.50142 72.4225 5.12689 72.1408 4.89489C71.8591 4.66288 71.5227 4.54688 71.1316 4.54688C70.6477 4.54688 70.2715 4.69602 70.003 4.99432C69.7346 5.2893 69.6003 5.6688 69.6003 6.13281V11H68.1188V5.92401C68.1188 5.50971 67.9895 5.17661 67.731 4.92472C67.4725 4.67282 67.1361 4.54688 66.7218 4.54688C66.44 4.54688 66.1799 4.62145 65.9412 4.7706C65.7059 4.91643 65.5153 5.12026 65.3695 5.3821C65.227 5.64394 65.1557 5.94721 65.1557 6.2919V11H63.6692ZM76.0423 11V3.36364H77.5288V11H76.0423ZM76.793 2.18537C76.5344 2.18537 76.3124 2.09919 76.1268 1.92685C75.9445 1.75118 75.8533 1.54238 75.8533 1.30043C75.8533 1.05516 75.9445 0.846354 76.1268 0.674005C76.3124 0.498342 76.5344 0.410511 76.793 0.410511C77.0515 0.410511 77.2719 0.498342 77.4542 0.674005C77.6398 0.846354 77.7326 1.05516 77.7326 1.30043C77.7326 1.54238 77.6398 1.75118 77.4542 1.92685C77.2719 2.09919 77.0515 2.18537 76.793 2.18537ZM81.0151 6.46591V11H79.5286V3.36364H80.9554V4.60653H81.0499C81.2256 4.20218 81.5007 3.87737 81.8752 3.6321C82.253 3.38684 82.7286 3.2642 83.302 3.2642C83.8224 3.2642 84.2781 3.37358 84.6692 3.59233C85.0603 3.80777 85.3636 4.12926 85.579 4.55682C85.7944 4.98437 85.9022 5.51302 85.9022 6.14276V11H84.4157V6.32173C84.4157 5.76823 84.2715 5.3357 83.9831 5.02415C83.6948 4.70928 83.2987 4.55185 82.7949 4.55185C82.4502 4.55185 82.1436 4.62642 81.8752 4.77557C81.61 4.92472 81.3996 5.14347 81.2438 5.43182C81.0913 5.71686 81.0151 6.06155 81.0151 6.46591ZM92.7331 7.8331V3.36364H94.2246V11H92.763V9.67756H92.6834C92.5078 10.0852 92.226 10.425 91.8382 10.6967C91.4538 10.9652 90.9748 11.0994 90.4015 11.0994C89.9109 11.0994 89.4767 10.9917 89.0989 10.7763C88.7244 10.5575 88.4294 10.2344 88.214 9.80682C88.0018 9.37926 87.8958 8.85062 87.8958 8.22088V3.36364H89.3823V8.0419C89.3823 8.56226 89.5265 8.97656 89.8148 9.2848C90.1032 9.59304 90.4777 9.74716 90.9384 9.74716C91.2168 9.74716 91.4935 9.67756 91.7686 9.53835C92.0471 9.39915 92.2774 9.18868 92.4597 8.90696C92.6453 8.62524 92.7364 8.26728 92.7331 7.8331ZM101.944 5.22798L100.597 5.46662C100.541 5.29427 100.451 5.13021 100.328 4.97443C100.209 4.81865 100.047 4.69105 99.8413 4.59162C99.6358 4.49219 99.3789 4.44247 99.0707 4.44247C98.6497 4.44247 98.2984 4.53693 98.0167 4.72585C97.735 4.91146 97.5941 5.15175 97.5941 5.44673C97.5941 5.70194 97.6886 5.90743 97.8775 6.06321C98.0664 6.21899 98.3713 6.34659 98.7923 6.44602L100.005 6.72443C100.708 6.88684 101.232 7.13707 101.576 7.47514C101.921 7.81321 102.093 8.25237 102.093 8.79261C102.093 9.25 101.961 9.65767 101.696 10.0156C101.434 10.3703 101.068 10.6487 100.597 10.8509C100.13 11.053 99.5877 11.1541 98.9712 11.1541C98.1161 11.1541 97.4184 10.9718 96.8782 10.6072C96.3379 10.2393 96.0065 9.71733 95.8839 9.04119L97.3207 8.82244C97.4102 9.19697 97.5941 9.48035 97.8725 9.67259C98.1509 9.86151 98.5138 9.95597 98.9613 9.95597C99.4485 9.95597 99.8379 9.85488 100.13 9.6527C100.421 9.44721 100.567 9.19697 100.567 8.90199C100.567 8.66335 100.478 8.46283 100.299 8.30043C100.123 8.13802 99.8529 8.01539 99.4883 7.93253L98.1957 7.64915C97.4831 7.48674 96.9561 7.22822 96.6147 6.87358C96.2766 6.51894 96.1076 6.06984 96.1076 5.52628C96.1076 5.07552 96.2335 4.68111 96.4854 4.34304C96.7373 4.00497 97.0853 3.74148 97.5295 3.55256C97.9736 3.36032 98.4824 3.2642 99.0558 3.2642C99.881 3.2642 100.531 3.44318 101.005 3.80114C101.479 4.15578 101.792 4.63139 101.944 5.22798Z" fill="black"/>
</svg>
