<svg width="100" height="12" viewBox="0 0 100 12" fill="none" xmlns="http://www.w3.org/2000/svg">
<path d="M4.21591 11.1541C3.4768 11.1541 2.84044 10.9867 2.30682 10.652C1.77652 10.3139 1.36884 9.84825 1.08381 9.25497C0.798769 8.66169 0.65625 7.98224 0.65625 7.21662C0.65625 6.44105 0.802083 5.75663 1.09375 5.16335C1.38542 4.56676 1.7964 4.10109 2.3267 3.76633C2.85701 3.43158 3.48177 3.2642 4.20099 3.2642C4.78101 3.2642 5.29806 3.37192 5.75213 3.58736C6.2062 3.79948 6.57244 4.09777 6.85085 4.48224C7.13258 4.86671 7.29995 5.31581 7.35298 5.82955H5.90625C5.8267 5.47159 5.64441 5.16335 5.35938 4.90483C5.07765 4.64631 4.69981 4.51705 4.22585 4.51705C3.81155 4.51705 3.44863 4.62642 3.13707 4.84517C2.82884 5.06061 2.58854 5.36884 2.41619 5.76989C2.24384 6.16761 2.15767 6.63826 2.15767 7.18182C2.15767 7.73864 2.24219 8.21922 2.41122 8.62358C2.58026 9.02794 2.81889 9.34115 3.12713 9.56321C3.43868 9.78527 3.80492 9.89631 4.22585 9.89631C4.50758 9.89631 4.76278 9.84493 4.99148 9.74219C5.22349 9.63613 5.41738 9.48532 5.57315 9.28977C5.73224 9.09422 5.84328 8.8589 5.90625 8.58381H7.35298C7.29995 9.07765 7.1392 9.51847 6.87074 9.90625C6.60227 10.294 6.24266 10.599 5.7919 10.821C5.34446 11.0431 4.81913 11.1541 4.21591 11.1541ZM13.78 7.8331V3.36364H15.2715V11H13.8098V9.67756H13.7303C13.5546 10.0852 13.2729 10.425 12.8851 10.6967C12.5007 10.9652 12.0217 11.0994 11.4483 11.0994C10.9578 11.0994 10.5236 10.9917 10.1458 10.7763C9.77125 10.5575 9.47627 10.2344 9.26083 9.80682C9.04871 9.37926 8.94265 8.85062 8.94265 8.22088V3.36364H10.4292V8.0419C10.4292 8.56226 10.5733 8.97656 10.8617 9.2848C11.15 9.59304 11.5246 9.74716 11.9853 9.74716C12.2637 9.74716 12.5404 9.67756 12.8155 9.53835C13.0939 9.39915 13.3243 9.18868 13.5066 8.90696C13.6922 8.62524 13.7833 8.26728 13.78 7.8331ZM17.2688 11V3.36364H18.7056V4.5767H18.7852C18.9244 4.16572 19.1696 3.84257 19.521 3.60724C19.8756 3.36861 20.2766 3.24929 20.7241 3.24929C20.8169 3.24929 20.9263 3.2526 21.0522 3.25923C21.1815 3.26586 21.2826 3.27415 21.3555 3.28409V4.70597C21.2958 4.68939 21.1897 4.67116 21.0373 4.65128C20.8848 4.62808 20.7324 4.61648 20.5799 4.61648C20.2286 4.61648 19.9154 4.69105 19.6403 4.8402C19.3685 4.98603 19.1531 5.18987 18.994 5.4517C18.8349 5.71023 18.7553 6.00521 18.7553 6.33665V11H17.2688ZM28.3642 5.22798L27.0169 5.46662C26.9605 5.29427 26.871 5.13021 26.7484 4.97443C26.6291 4.81865 26.4667 4.69105 26.2612 4.59162C26.0557 4.49219 25.7988 4.44247 25.4906 4.44247C25.0697 4.44247 24.7183 4.53693 24.4366 4.72585C24.1549 4.91146 24.014 5.15175 24.014 5.44673C24.014 5.70194 24.1085 5.90743 24.2974 6.06321C24.4863 6.21899 24.7913 6.34659 25.2122 6.44602L26.4252 6.72443C27.1279 6.88684 27.6516 7.13707 27.9963 7.47514C28.341 7.81321 28.5133 8.25237 28.5133 8.79261C28.5133 9.25 28.3807 9.65767 28.1156 10.0156C27.8538 10.3703 27.4875 10.6487 27.0169 10.8509C26.5495 11.053 26.0076 11.1541 25.3912 11.1541C24.536 11.1541 23.8384 10.9718 23.2981 10.6072C22.7579 10.2393 22.4264 9.71733 22.3038 9.04119L23.7406 8.82244C23.8301 9.19697 24.014 9.48035 24.2924 9.67259C24.5708 9.86151 24.9338 9.95597 25.3812 9.95597C25.8684 9.95597 26.2579 9.85488 26.5495 9.6527C26.8412 9.44721 26.987 9.19697 26.987 8.90199C26.987 8.66335 26.8975 8.46283 26.7186 8.30043C26.5429 8.13802 26.2728 8.01539 25.9082 7.93253L24.6156 7.64915C23.903 7.48674 23.376 7.22822 23.0346 6.87358C22.6966 6.51894 22.5275 6.06984 22.5275 5.52628C22.5275 5.07552 22.6535 4.68111 22.9054 4.34304C23.1573 4.00497 23.5053 3.74148 23.9494 3.55256C24.3935 3.36032 24.9023 3.2642 25.4757 3.2642C26.301 3.2642 26.9506 3.44318 27.4245 3.80114C27.8985 4.15578 28.2117 4.63139 28.3642 5.22798ZM33.3643 11.1541C32.6484 11.1541 32.0237 10.9901 31.4901 10.6619C30.9564 10.3338 30.5421 9.87476 30.2472 9.2848C29.9522 8.69484 29.8047 8.00544 29.8047 7.21662C29.8047 6.42448 29.9522 5.73177 30.2472 5.13849C30.5421 4.54522 30.9564 4.08452 31.4901 3.75639C32.0237 3.42827 32.6484 3.2642 33.3643 3.2642C34.0803 3.2642 34.705 3.42827 35.2386 3.75639C35.7723 4.08452 36.1866 4.54522 36.4815 5.13849C36.7765 5.73177 36.924 6.42448 36.924 7.21662C36.924 8.00544 36.7765 8.69484 36.4815 9.2848C36.1866 9.87476 35.7723 10.3338 35.2386 10.6619C34.705 10.9901 34.0803 11.1541 33.3643 11.1541ZM33.3693 9.90625C33.8333 9.90625 34.2178 9.78362 34.5227 9.53835C34.8277 9.29309 35.053 8.96662 35.1989 8.55895C35.348 8.15128 35.4226 7.70218 35.4226 7.21165C35.4226 6.72443 35.348 6.27699 35.1989 5.86932C35.053 5.45833 34.8277 5.12855 34.5227 4.87997C34.2178 4.63139 33.8333 4.5071 33.3693 4.5071C32.902 4.5071 32.5142 4.63139 32.206 4.87997C31.901 5.12855 31.674 5.45833 31.5249 5.86932C31.379 6.27699 31.3061 6.72443 31.3061 7.21165C31.3061 7.70218 31.379 8.15128 31.5249 8.55895C31.674 8.96662 31.901 9.29309 32.206 9.53835C32.5142 9.78362 32.902 9.90625 33.3693 9.90625ZM38.5833 11V3.36364H40.0201V4.5767H40.0996C40.2388 4.16572 40.4841 3.84257 40.8354 3.60724C41.19 3.36861 41.5911 3.24929 42.0385 3.24929C42.1313 3.24929 42.2407 3.2526 42.3667 3.25923C42.4959 3.26586 42.597 3.27415 42.6699 3.28409V4.70597C42.6103 4.68939 42.5042 4.67116 42.3517 4.65128C42.1993 4.62808 42.0468 4.61648 41.8944 4.61648C41.543 4.61648 41.2298 4.69105 40.9547 4.8402C40.6829 4.98603 40.4675 5.18987 40.3084 5.4517C40.1493 5.71023 40.0698 6.00521 40.0698 6.33665V11H38.5833ZM48.0044 6.05327V7.34091H43.4902V6.05327H48.0044ZM53.2022 11.1541C52.4631 11.1541 51.8268 10.9867 51.2931 10.652C50.7628 10.3139 50.3552 9.84825 50.0701 9.25497C49.7851 8.66169 49.6426 7.98224 49.6426 7.21662C49.6426 6.44105 49.7884 5.75663 50.0801 5.16335C50.3717 4.56676 50.7827 4.10109 51.313 3.76633C51.8433 3.43158 52.4681 3.2642 53.1873 3.2642C53.7673 3.2642 54.2844 3.37192 54.7385 3.58736C55.1925 3.79948 55.5588 4.09777 55.8372 4.48224C56.1189 4.86671 56.2863 5.31581 56.3393 5.82955H54.8926C54.813 5.47159 54.6307 5.16335 54.3457 4.90483C54.064 4.64631 53.6861 4.51705 53.2122 4.51705C52.7979 4.51705 52.435 4.62642 52.1234 4.84517C51.8152 5.06061 51.5749 5.36884 51.4025 5.76989C51.2302 6.16761 51.144 6.63826 51.144 7.18182C51.144 7.73864 51.2285 8.21922 51.3975 8.62358C51.5666 9.02794 51.8052 9.34115 52.1135 9.56321C52.425 9.78527 52.7913 9.89631 53.2122 9.89631C53.4939 9.89631 53.7491 9.84493 53.9778 9.74219C54.2098 9.63613 54.4037 9.48532 54.5595 9.28977C54.7186 9.09422 54.8296 8.8589 54.8926 8.58381H56.3393C56.2863 9.07765 56.1255 9.51847 55.8571 9.90625C55.5886 10.294 55.229 10.599 54.7782 10.821C54.3308 11.0431 53.8055 11.1541 53.2022 11.1541ZM59.4155 0.818182V11H57.929V0.818182H59.4155ZM61.4153 11V3.36364H62.9018V11H61.4153ZM62.166 2.18537C61.9075 2.18537 61.6854 2.09919 61.4998 1.92685C61.3175 1.75118 61.2264 1.54238 61.2264 1.30043C61.2264 1.05516 61.3175 0.846354 61.4998 0.674005C61.6854 0.498342 61.9075 0.410511 62.166 0.410511C62.4245 0.410511 62.6449 0.498342 62.8272 0.674005C63.0128 0.846354 63.1056 1.05516 63.1056 1.30043C63.1056 1.54238 63.0128 1.75118 62.8272 1.92685C62.6449 2.09919 62.4245 2.18537 62.166 2.18537ZM68.1183 11.1541C67.3791 11.1541 66.7428 10.9867 66.2092 10.652C65.6789 10.3139 65.2712 9.84825 64.9862 9.25497C64.7011 8.66169 64.5586 7.98224 64.5586 7.21662C64.5586 6.44105 64.7044 5.75663 64.9961 5.16335C65.2878 4.56676 65.6987 4.10109 66.229 3.76633C66.7594 3.43158 67.3841 3.2642 68.1033 3.2642C68.6834 3.2642 69.2004 3.37192 69.6545 3.58736C70.1085 3.79948 70.4748 4.09777 70.7532 4.48224C71.0349 4.86671 71.2023 5.31581 71.2553 5.82955H69.8086C69.729 5.47159 69.5468 5.16335 69.2617 4.90483C68.98 4.64631 68.6022 4.51705 68.1282 4.51705C67.7139 4.51705 67.351 4.62642 67.0394 4.84517C66.7312 5.06061 66.4909 5.36884 66.3185 5.76989C66.1462 6.16761 66.06 6.63826 66.06 7.18182C66.06 7.73864 66.1445 8.21922 66.3136 8.62358C66.4826 9.02794 66.7212 9.34115 67.0295 9.56321C67.341 9.78527 67.7073 9.89631 68.1282 9.89631C68.4099 9.89631 68.6651 9.84493 68.8938 9.74219C69.1258 9.63613 69.3197 9.48532 69.4755 9.28977C69.6346 9.09422 69.7456 8.8589 69.8086 8.58381H71.2553C71.2023 9.07765 71.0415 9.51847 70.7731 9.90625C70.5046 10.294 70.145 10.599 69.6942 10.821C69.2468 11.0431 68.7215 11.1541 68.1183 11.1541ZM74.2122 8.4098L74.2022 6.59517H74.4608L77.5034 3.36364H79.2832L75.813 7.04261H75.5794L74.2122 8.4098ZM72.845 11V0.818182H74.3315V11H72.845ZM77.6674 11L74.9331 7.37074L75.9572 6.33168L79.492 11H77.6674ZM84.6177 6.05327V7.34091H80.1035V6.05327H84.6177ZM90.1238 11.169C89.3382 11.1657 88.6671 10.9586 88.1103 10.5476C87.5534 10.1366 87.1275 9.53835 86.8326 8.75284C86.5376 7.96733 86.3901 7.02107 86.3901 5.91406C86.3901 4.81037 86.5376 3.86742 86.8326 3.08523C87.1309 2.30303 87.5584 1.70644 88.1152 1.29545C88.6754 0.884469 89.3449 0.678977 90.1238 0.678977C90.9026 0.678977 91.5705 0.886126 92.1273 1.30043C92.6841 1.71141 93.11 2.308 93.405 3.0902C93.7033 3.86908 93.8525 4.81037 93.8525 5.91406C93.8525 7.02438 93.705 7.9723 93.41 8.75781C93.115 9.54001 92.6891 10.1383 92.1323 10.5526C91.5755 10.9635 90.906 11.169 90.1238 11.169ZM90.1238 9.84162C90.8132 9.84162 91.3517 9.50521 91.7395 8.83239C92.1306 8.15956 92.3262 7.18679 92.3262 5.91406C92.3262 5.06889 92.2367 4.35464 92.0577 3.77131C91.882 3.18466 91.6285 2.74053 91.2971 2.43892C90.9689 2.134 90.5778 1.98153 90.1238 1.98153C89.4377 1.98153 88.8991 2.3196 88.508 2.99574C88.1169 3.67187 87.9197 4.64465 87.9164 5.91406C87.9164 6.76255 88.0042 7.48011 88.1799 8.06676C88.3588 8.65009 88.6124 9.09257 88.9405 9.39418C89.2686 9.69247 89.6631 9.84162 90.1238 9.84162ZM99.479 0.818182V11H97.9379V2.35938H97.8782L95.4421 3.95028V2.47869L97.9826 0.818182H99.479Z" fill="black"/>
</svg>
