<svg width="108" height="12" viewBox="0 0 108 12" fill="none" xmlns="http://www.w3.org/2000/svg">
<path d="M0.118608 11V0.818182H1.60511V4.60156H1.6946C1.78078 4.44247 1.90507 4.25852 2.06747 4.04972C2.22988 3.84091 2.45526 3.65862 2.74361 3.50284C3.03196 3.34375 3.41312 3.2642 3.88707 3.2642C4.50355 3.2642 5.05374 3.41998 5.53764 3.73153C6.02154 4.04309 6.40104 4.49219 6.67614 5.07884C6.95455 5.66548 7.09375 6.37145 7.09375 7.19673C7.09375 8.02202 6.9562 8.72964 6.68111 9.3196C6.40601 9.90625 6.02817 10.3587 5.54759 10.6768C5.067 10.9917 4.51847 11.1491 3.90199 11.1491C3.43797 11.1491 3.05848 11.0713 2.76349 10.9155C2.47183 10.7597 2.24313 10.5774 2.07741 10.3686C1.9117 10.1598 1.78409 9.9742 1.6946 9.81179H1.57031V11H0.118608ZM1.57528 7.18182C1.57528 7.71875 1.65317 8.18939 1.80895 8.59375C1.96473 8.99811 2.1901 9.31463 2.48509 9.54332C2.78007 9.7687 3.14134 9.88139 3.56889 9.88139C4.01302 9.88139 4.38423 9.76373 4.68253 9.52841C4.98082 9.28977 5.2062 8.96662 5.35866 8.55895C5.51444 8.15128 5.59233 7.69223 5.59233 7.18182C5.59233 6.67803 5.5161 6.22562 5.36364 5.82457C5.21449 5.42353 4.98911 5.10701 4.6875 4.875C4.3892 4.64299 4.01634 4.52699 3.56889 4.52699C3.13802 4.52699 2.77344 4.63802 2.47514 4.86009C2.18016 5.08215 1.95644 5.39205 1.80398 5.78977C1.65152 6.1875 1.57528 6.65151 1.57528 7.18182ZM12.0542 11.1541C11.3018 11.1541 10.6538 10.9934 10.1103 10.6719C9.57002 10.3471 9.1524 9.89134 8.85742 9.30469C8.56576 8.71473 8.41992 8.02367 8.41992 7.23153C8.41992 6.44934 8.56576 5.75994 8.85742 5.16335C9.1524 4.56676 9.56339 4.10109 10.0904 3.76633C10.6207 3.43158 11.2405 3.2642 11.9498 3.2642C12.3806 3.2642 12.7982 3.33546 13.2026 3.47798C13.6069 3.6205 13.9699 3.84422 14.2914 4.14915C14.6129 4.45407 14.8664 4.85014 15.052 5.33736C15.2376 5.82126 15.3304 6.40956 15.3304 7.10227V7.62926H9.26012V6.51562H13.8738C13.8738 6.12453 13.7942 5.77817 13.6351 5.47656C13.476 5.17164 13.2523 4.93134 12.964 4.75568C12.6789 4.58002 12.3442 4.49219 11.9597 4.49219C11.5421 4.49219 11.1775 4.59493 10.8659 4.80043C10.5577 5.0026 10.3191 5.26776 10.15 5.59588C9.98432 5.92069 9.90146 6.27367 9.90146 6.65483V7.52486C9.90146 8.03527 9.99094 8.46946 10.1699 8.82741C10.3522 9.18537 10.6058 9.45881 10.9306 9.64773C11.2554 9.83333 11.6349 9.92614 12.0691 9.92614C12.3508 9.92614 12.6077 9.88636 12.8397 9.80682C13.0717 9.72396 13.2722 9.60133 13.4412 9.43892C13.6103 9.27652 13.7395 9.07599 13.829 8.83736L15.236 9.09091C15.1233 9.50521 14.9211 9.86813 14.6294 10.1797C14.3411 10.4879 13.9782 10.7282 13.5407 10.9006C13.1065 11.0696 12.611 11.1541 12.0542 11.1541ZM16.8207 11V9.98082L20.957 4.72585V4.65625H16.9549V3.36364H22.8114V4.44744L18.8342 9.63778V9.70739H22.9506V11H16.8207ZM24.7044 11V3.36364H26.1909V11H24.7044ZM25.4551 2.18537C25.1966 2.18537 24.9745 2.09919 24.7889 1.92685C24.6066 1.75118 24.5154 1.54238 24.5154 1.30043C24.5154 1.05516 24.6066 0.846354 24.7889 0.674005C24.9745 0.498342 25.1966 0.410511 25.4551 0.410511C25.7136 0.410511 25.934 0.498342 26.1163 0.674005C26.3019 0.846354 26.3947 1.05516 26.3947 1.30043C26.3947 1.54238 26.3019 1.75118 26.1163 1.92685C25.934 2.09919 25.7136 2.18537 25.4551 2.18537ZM31.4819 11.1541C30.7295 11.1541 30.0816 10.9934 29.538 10.6719C28.9978 10.3471 28.5801 9.89134 28.2852 9.30469C27.9935 8.71473 27.8477 8.02367 27.8477 7.23153C27.8477 6.44934 27.9935 5.75994 28.2852 5.16335C28.5801 4.56676 28.9911 4.10109 29.5181 3.76633C30.0484 3.43158 30.6682 3.2642 31.3775 3.2642C31.8084 3.2642 32.226 3.33546 32.6303 3.47798C33.0347 3.6205 33.3976 3.84422 33.7191 4.14915C34.0406 4.45407 34.2942 4.85014 34.4798 5.33736C34.6654 5.82126 34.7582 6.40956 34.7582 7.10227V7.62926H28.6879V6.51562H33.3015C33.3015 6.12453 33.2219 5.77817 33.0629 5.47656C32.9038 5.17164 32.68 4.93134 32.3917 4.75568C32.1067 4.58002 31.7719 4.49219 31.3874 4.49219C30.9698 4.49219 30.6052 4.59493 30.2937 4.80043C29.9854 5.0026 29.7468 5.26776 29.5778 5.59588C29.4121 5.92069 29.3292 6.27367 29.3292 6.65483V7.52486C29.3292 8.03527 29.4187 8.46946 29.5977 8.82741C29.7799 9.18537 30.0335 9.45881 30.3583 9.64773C30.6831 9.83333 31.0626 9.92614 31.4968 9.92614C31.7785 9.92614 32.0354 9.88636 32.2674 9.80682C32.4994 9.72396 32.6999 9.60133 32.869 9.43892C33.038 9.27652 33.1673 9.07599 33.2567 8.83736L34.6637 9.09091C34.551 9.50521 34.3488 9.86813 34.0572 10.1797C33.7688 10.4879 33.4059 10.7282 32.9684 10.9006C32.5342 11.0696 32.0387 11.1541 31.4819 11.1541ZM36.4075 11V3.36364H37.8443V4.5767H37.9238C38.063 4.16572 38.3083 3.84257 38.6596 3.60724C39.0143 3.36861 39.4153 3.24929 39.8627 3.24929C39.9556 3.24929 40.0649 3.2526 40.1909 3.25923C40.3201 3.26586 40.4212 3.27415 40.4941 3.28409V4.70597C40.4345 4.68939 40.3284 4.67116 40.176 4.65128C40.0235 4.62808 39.871 4.61648 39.7186 4.61648C39.3672 4.61648 39.054 4.69105 38.7789 4.8402C38.5072 4.98603 38.2917 5.18987 38.1326 5.4517C37.9735 5.71023 37.894 6.00521 37.894 6.33665V11H36.4075ZM45.8287 6.05327V7.34091H41.3145V6.05327H45.8287ZM51.0265 11.1541C50.2873 11.1541 49.651 10.9867 49.1174 10.652C48.5871 10.3139 48.1794 9.84825 47.8944 9.25497C47.6093 8.66169 47.4668 7.98224 47.4668 7.21662C47.4668 6.44105 47.6126 5.75663 47.9043 5.16335C48.196 4.56676 48.6069 4.10109 49.1373 3.76633C49.6676 3.43158 50.2923 3.2642 51.0115 3.2642C51.5916 3.2642 52.1086 3.37192 52.5627 3.58736C53.0167 3.79948 53.383 4.09777 53.6614 4.48224C53.9431 4.86671 54.1105 5.31581 54.1635 5.82955H52.7168C52.6373 5.47159 52.455 5.16335 52.1699 4.90483C51.8882 4.64631 51.5104 4.51705 51.0364 4.51705C50.6221 4.51705 50.2592 4.62642 49.9476 4.84517C49.6394 5.06061 49.3991 5.36884 49.2267 5.76989C49.0544 6.16761 48.9682 6.63826 48.9682 7.18182C48.9682 7.73864 49.0527 8.21922 49.2218 8.62358C49.3908 9.02794 49.6294 9.34115 49.9377 9.56321C50.2492 9.78527 50.6155 9.89631 51.0364 9.89631C51.3181 9.89631 51.5733 9.84493 51.802 9.74219C52.034 9.63613 52.2279 9.48532 52.3837 9.28977C52.5428 9.09422 52.6538 8.8589 52.7168 8.58381H54.1635C54.1105 9.07765 53.9498 9.51847 53.6813 9.90625C53.4128 10.294 53.0532 10.599 52.6025 10.821C52.155 11.0431 51.6297 11.1541 51.0265 11.1541ZM60.5906 7.8331V3.36364H62.082V11H60.6204V9.67756H60.5408C60.3652 10.0852 60.0835 10.425 59.6957 10.6967C59.3112 10.9652 58.8323 11.0994 58.2589 11.0994C57.7683 11.0994 57.3342 10.9917 56.9563 10.7763C56.5818 10.5575 56.2868 10.2344 56.0714 9.80682C55.8593 9.37926 55.7532 8.85062 55.7532 8.22088V3.36364H57.2397V8.0419C57.2397 8.56226 57.3839 8.97656 57.6722 9.2848C57.9606 9.59304 58.3351 9.74716 58.7958 9.74716C59.0742 9.74716 59.351 9.67756 59.6261 9.53835C59.9045 9.39915 60.1348 9.18868 60.3171 8.90696C60.5027 8.62524 60.5939 8.26728 60.5906 7.8331ZM64.0794 11V3.36364H65.5162V4.5767H65.5957C65.7349 4.16572 65.9802 3.84257 66.3315 3.60724C66.6861 3.36861 67.0872 3.24929 67.5346 3.24929C67.6274 3.24929 67.7368 3.2526 67.8627 3.25923C67.992 3.26586 68.0931 3.27415 68.166 3.28409V4.70597C68.1064 4.68939 68.0003 4.67116 67.8478 4.65128C67.6954 4.62808 67.5429 4.61648 67.3904 4.61648C67.0391 4.61648 66.7259 4.69105 66.4508 4.8402C66.179 4.98603 65.9636 5.18987 65.8045 5.4517C65.6454 5.71023 65.5659 6.00521 65.5659 6.33665V11H64.0794ZM76.2175 3.36364L73.4483 11H71.8574L69.0833 3.36364H70.6792L72.6131 9.24006H72.6926L74.6216 3.36364H76.2175ZM80.646 11.1541C79.8936 11.1541 79.2456 10.9934 78.7021 10.6719C78.1618 10.3471 77.7442 9.89134 77.4492 9.30469C77.1576 8.71473 77.0117 8.02367 77.0117 7.23153C77.0117 6.44934 77.1576 5.75994 77.4492 5.16335C77.7442 4.56676 78.1552 4.10109 78.6822 3.76633C79.2125 3.43158 79.8323 3.2642 80.5415 3.2642C80.9724 3.2642 81.39 3.33546 81.7944 3.47798C82.1987 3.6205 82.5617 3.84422 82.8832 4.14915C83.2047 4.45407 83.4582 4.85014 83.6438 5.33736C83.8294 5.82126 83.9222 6.40956 83.9222 7.10227V7.62926H77.8519V6.51562H82.4656C82.4656 6.12453 82.386 5.77817 82.2269 5.47656C82.0678 5.17164 81.8441 4.93134 81.5558 4.75568C81.2707 4.58002 80.936 4.49219 80.5515 4.49219C80.1339 4.49219 79.7693 4.59493 79.4577 4.80043C79.1495 5.0026 78.9109 5.26776 78.7418 5.59588C78.5761 5.92069 78.4933 6.27367 78.4933 6.65483V7.52486C78.4933 8.03527 78.5827 8.46946 78.7617 8.82741C78.944 9.18537 79.1976 9.45881 79.5224 9.64773C79.8472 9.83333 80.2267 9.92614 80.6609 9.92614C80.9426 9.92614 81.1995 9.88636 81.4315 9.80682C81.6635 9.72396 81.864 9.60133 82.033 9.43892C82.2021 9.27652 82.3313 9.07599 82.4208 8.83736L83.8278 9.09091C83.7151 9.50521 83.5129 9.86813 83.2212 10.1797C82.9329 10.4879 82.57 10.7282 82.1325 10.9006C81.6983 11.0696 81.2028 11.1541 80.646 11.1541ZM90.0708 6.05327V7.34091H85.5566V6.05327H90.0708ZM95.5769 11.169C94.7914 11.1657 94.1202 10.9586 93.5634 10.5476C93.0066 10.1366 92.5807 9.53835 92.2857 8.75284C91.9907 7.96733 91.8432 7.02107 91.8432 5.91406C91.8432 4.81037 91.9907 3.86742 92.2857 3.08523C92.584 2.30303 93.0115 1.70644 93.5684 1.29545C94.1285 0.884469 94.798 0.678977 95.5769 0.678977C96.3558 0.678977 97.0236 0.886126 97.5804 1.30043C98.1373 1.71141 98.5632 2.308 98.8581 3.0902C99.1564 3.86908 99.3056 4.81037 99.3056 5.91406C99.3056 7.02438 99.1581 7.9723 98.8631 8.75781C98.5681 9.54001 98.1422 10.1383 97.5854 10.5526C97.0286 10.9635 96.3591 11.169 95.5769 11.169ZM95.5769 9.84162C96.2663 9.84162 96.8049 9.50521 97.1926 8.83239C97.5837 8.15956 97.7793 7.18679 97.7793 5.91406C97.7793 5.06889 97.6898 4.35464 97.5108 3.77131C97.3352 3.18466 97.0816 2.74053 96.7502 2.43892C96.4221 2.134 96.031 1.98153 95.5769 1.98153C94.8908 1.98153 94.3522 2.3196 93.9611 2.99574C93.57 3.67187 93.3728 4.64465 93.3695 5.91406C93.3695 6.76255 93.4573 7.48011 93.633 8.06676C93.812 8.65009 94.0655 9.09257 94.3936 9.39418C94.7218 9.69247 95.1162 9.84162 95.5769 9.84162ZM101.069 11V9.88636L104.515 6.31676C104.882 5.92898 105.186 5.58925 105.424 5.29759C105.666 5.0026 105.847 4.72254 105.966 4.45739C106.086 4.19223 106.145 3.91051 106.145 3.61222C106.145 3.27415 106.066 2.98248 105.907 2.73722C105.748 2.48864 105.53 2.29806 105.255 2.16548C104.98 2.02959 104.67 1.96165 104.326 1.96165C103.961 1.96165 103.643 2.03622 103.371 2.18537C103.099 2.33452 102.891 2.54498 102.745 2.81676C102.599 3.08854 102.526 3.40672 102.526 3.77131H101.059C101.059 3.15151 101.202 2.60961 101.487 2.1456C101.772 1.68158 102.163 1.32197 102.66 1.06676C103.157 0.808238 103.722 0.678977 104.355 0.678977C104.995 0.678977 105.559 0.806581 106.046 1.06179C106.536 1.31368 106.919 1.65838 107.194 2.09588C107.469 2.53007 107.607 3.0206 107.607 3.56747C107.607 3.94531 107.536 4.31487 107.393 4.67614C107.254 5.0374 107.01 5.4401 106.662 5.88423C106.314 6.32505 105.83 6.86032 105.211 7.49006L103.187 9.60795V9.68253H107.771V11H101.069Z" fill="black"/>
</svg>
