<svg width="37" height="15" viewBox="0 0 37 15" fill="none" xmlns="http://www.w3.org/2000/svg">
<path d="M4.63352 3.36364V4.55682H0.318182V3.36364H4.63352ZM1.50142 11V2.47869C1.50142 2.00142 1.60582 1.60535 1.81463 1.29048C2.02344 0.972301 2.30019 0.735322 2.64489 0.579545C2.98958 0.420454 3.36411 0.340908 3.76847 0.340908C4.06676 0.340908 4.32197 0.365767 4.53409 0.415483C4.74621 0.461884 4.90365 0.504971 5.00639 0.544744L4.65838 1.74787C4.58878 1.72798 4.49929 1.70478 4.38991 1.67827C4.28054 1.64844 4.14796 1.63352 3.99219 1.63352C3.63092 1.63352 3.3724 1.72301 3.21662 1.90199C3.06416 2.08097 2.98793 2.33949 2.98793 2.67756V11H1.50142ZM6.16726 11V3.36364H7.65376V11H6.16726ZM6.91797 2.18537C6.65945 2.18537 6.43738 2.09919 6.25178 1.92685C6.06948 1.75118 5.97834 1.54238 5.97834 1.30043C5.97834 1.05516 6.06948 0.846354 6.25178 0.674005C6.43738 0.498342 6.65945 0.410511 6.91797 0.410511C7.17649 0.410511 7.3969 0.498342 7.57919 0.674005C7.7648 0.846354 7.8576 1.05516 7.8576 1.30043C7.8576 1.54238 7.7648 1.75118 7.57919 1.92685C7.3969 2.09919 7.17649 2.18537 6.91797 2.18537ZM12.8553 14.0227C12.2488 14.0227 11.7267 13.9432 11.2892 13.7841C10.8551 13.625 10.5004 13.4145 10.2253 13.1527C9.95022 12.8909 9.74473 12.6042 9.60884 12.2926L10.8865 11.7656C10.976 11.9115 11.0953 12.0656 11.2445 12.228C11.397 12.3937 11.6025 12.5346 11.861 12.6506C12.1228 12.7666 12.4592 12.8246 12.8702 12.8246C13.4337 12.8246 13.8993 12.687 14.2672 12.4119C14.6351 12.1402 14.8191 11.706 14.8191 11.1094V9.60795H14.7246C14.6351 9.77036 14.5059 9.95099 14.3368 10.1499C14.1711 10.3487 13.9424 10.5211 13.6507 10.6669C13.3591 10.8127 12.9796 10.8857 12.5123 10.8857C11.909 10.8857 11.3655 10.7448 10.8816 10.4631C10.401 10.178 10.0198 9.75876 9.7381 9.20526C9.45969 8.64844 9.32049 7.96401 9.32049 7.15199C9.32049 6.33996 9.45804 5.64394 9.73313 5.06392C10.0115 4.4839 10.3927 4.03977 10.8766 3.73153C11.3605 3.41998 11.909 3.2642 12.5222 3.2642C12.9962 3.2642 13.379 3.34375 13.6706 3.50284C13.9623 3.65862 14.1893 3.84091 14.3517 4.04972C14.5175 4.25852 14.6451 4.44247 14.7346 4.60156H14.8439V3.36364H16.3006V11.169C16.3006 11.8253 16.1481 12.3639 15.8432 12.7848C15.5383 13.2057 15.1257 13.5173 14.6053 13.7195C14.0882 13.9216 13.5049 14.0227 12.8553 14.0227ZM12.8404 9.6527C13.2679 9.6527 13.6292 9.55327 13.9242 9.3544C14.2225 9.15223 14.4479 8.86387 14.6003 8.48935C14.7561 8.11151 14.834 7.65909 14.834 7.1321C14.834 6.61837 14.7578 6.16596 14.6053 5.77486C14.4528 5.38376 14.2291 5.07884 13.9341 4.86009C13.6391 4.63802 13.2746 4.52699 12.8404 4.52699C12.3929 4.52699 12.0201 4.64299 11.7218 4.875C11.4235 5.10369 11.1981 5.41525 11.0456 5.80966C10.8965 6.20407 10.8219 6.64489 10.8219 7.1321C10.8219 7.63258 10.8981 8.07173 11.0506 8.44957C11.2031 8.82741 11.4284 9.1224 11.7267 9.33452C12.0283 9.54664 12.3996 9.6527 12.8404 9.6527ZM18.2942 11V3.36364H19.7211V4.60653H19.8155C19.9746 4.18561 20.2348 3.85748 20.5961 3.62216C20.9573 3.38352 21.3899 3.2642 21.8936 3.2642C22.4041 3.2642 22.8316 3.38352 23.1763 3.62216C23.5243 3.8608 23.7812 4.18892 23.9469 4.60653H24.0265C24.2087 4.19886 24.4988 3.87405 24.8965 3.6321C25.2942 3.38684 25.7682 3.2642 26.3184 3.2642C27.0111 3.2642 27.5762 3.4813 28.0137 3.91548C28.4545 4.34967 28.6749 5.00426 28.6749 5.87926V11H27.1884V6.01847C27.1884 5.50142 27.0475 5.12689 26.7658 4.89489C26.4841 4.66288 26.1477 4.54688 25.7566 4.54688C25.2727 4.54688 24.8965 4.69602 24.628 4.99432C24.3596 5.2893 24.2253 5.6688 24.2253 6.13281V11H22.7438V5.92401C22.7438 5.50971 22.6145 5.17661 22.356 4.92472C22.0975 4.67282 21.7611 4.54688 21.3468 4.54688C21.065 4.54688 20.8049 4.62145 20.5662 4.7706C20.3309 4.91643 20.1403 5.12026 19.9945 5.3821C19.852 5.64394 19.7807 5.94721 19.7807 6.2919V11H18.2942ZM32.8896 11.169C32.4057 11.169 31.9682 11.0795 31.5771 10.9006C31.186 10.7183 30.8761 10.4548 30.6474 10.1101C30.422 9.76539 30.3093 9.3428 30.3093 8.84233C30.3093 8.41146 30.3922 8.05682 30.5579 7.77841C30.7236 7.5 30.9473 7.27959 31.229 7.11719C31.5108 6.95478 31.8256 6.83215 32.1737 6.74929C32.5217 6.66643 32.8763 6.60346 33.2376 6.56037C33.695 6.50734 34.0662 6.46425 34.3512 6.43111C34.6362 6.39465 34.8434 6.33665 34.9727 6.2571C35.1019 6.17756 35.1665 6.0483 35.1665 5.86932V5.83452C35.1665 5.40033 35.0439 5.06392 34.7987 4.82528C34.5567 4.58665 34.1954 4.46733 33.7148 4.46733C33.2144 4.46733 32.82 4.57836 32.5316 4.80043C32.2466 5.01918 32.0494 5.26278 31.94 5.53125L30.543 5.21307C30.7087 4.74905 30.9506 4.37453 31.2688 4.08949C31.5903 3.80114 31.9599 3.59233 32.3775 3.46307C32.7951 3.33049 33.2343 3.2642 33.695 3.2642C33.9999 3.2642 34.323 3.30066 34.6644 3.37358C35.0091 3.44318 35.3306 3.57244 35.6289 3.76136C35.9305 3.95028 36.1774 4.22041 36.3697 4.57173C36.5619 4.91974 36.658 5.37216 36.658 5.92898V11H35.2063V9.95597H35.1467C35.0505 10.1482 34.9064 10.3371 34.7141 10.5227C34.5219 10.7083 34.275 10.8625 33.9734 10.9851C33.6718 11.1077 33.3105 11.169 32.8896 11.169ZM33.2127 9.97585C33.6237 9.97585 33.975 9.89465 34.2667 9.73224C34.5617 9.56984 34.7854 9.35772 34.9379 9.09588C35.0936 8.83073 35.1715 8.54735 35.1715 8.24574V7.26136C35.1185 7.31439 35.0157 7.36411 34.8633 7.41051C34.7141 7.4536 34.5434 7.49171 34.3512 7.52486C34.159 7.55469 33.9717 7.58286 33.7894 7.60938C33.6071 7.63258 33.4547 7.65246 33.332 7.66903C33.0437 7.70549 32.7802 7.76681 32.5415 7.85298C32.3062 7.93916 32.1173 8.06345 31.9748 8.22585C31.8356 8.38494 31.766 8.59706 31.766 8.86222C31.766 9.23011 31.9019 9.50852 32.1737 9.69744C32.4454 9.88305 32.7918 9.97585 33.2127 9.97585Z" fill="black"/>
</svg>
