<svg width="67" height="12" viewBox="0 0 67 12" fill="none" xmlns="http://www.w3.org/2000/svg">
<path d="M4.21591 11.1541C3.4768 11.1541 2.84044 10.9867 2.30682 10.652C1.77652 10.3139 1.36884 9.84825 1.08381 9.25497C0.798769 8.66169 0.65625 7.98224 0.65625 7.21662C0.65625 6.44105 0.802083 5.75663 1.09375 5.16335C1.38542 4.56676 1.7964 4.10109 2.3267 3.76633C2.85701 3.43158 3.48177 3.2642 4.20099 3.2642C4.78101 3.2642 5.29806 3.37192 5.75213 3.58736C6.2062 3.79948 6.57244 4.09777 6.85085 4.48224C7.13258 4.86671 7.29995 5.31581 7.35298 5.82955H5.90625C5.8267 5.47159 5.64441 5.16335 5.35938 4.90483C5.07765 4.64631 4.69981 4.51705 4.22585 4.51705C3.81155 4.51705 3.44863 4.62642 3.13707 4.84517C2.82884 5.06061 2.58854 5.36884 2.41619 5.76989C2.24384 6.16761 2.15767 6.63826 2.15767 7.18182C2.15767 7.73864 2.24219 8.21922 2.41122 8.62358C2.58026 9.02794 2.81889 9.34115 3.12713 9.56321C3.43868 9.78527 3.80492 9.89631 4.22585 9.89631C4.50758 9.89631 4.76278 9.84493 4.99148 9.74219C5.22349 9.63613 5.41738 9.48532 5.57315 9.28977C5.73224 9.09422 5.84328 8.8589 5.90625 8.58381H7.35298C7.29995 9.07765 7.1392 9.51847 6.87074 9.90625C6.60227 10.294 6.24266 10.599 5.7919 10.821C5.34446 11.0431 4.81913 11.1541 4.21591 11.1541ZM13.78 7.8331V3.36364H15.2715V11H13.8098V9.67756H13.7303C13.5546 10.0852 13.2729 10.425 12.8851 10.6967C12.5007 10.9652 12.0217 11.0994 11.4483 11.0994C10.9578 11.0994 10.5236 10.9917 10.1458 10.7763C9.77125 10.5575 9.47627 10.2344 9.26083 9.80682C9.04871 9.37926 8.94265 8.85062 8.94265 8.22088V3.36364H10.4292V8.0419C10.4292 8.56226 10.5733 8.97656 10.8617 9.2848C11.15 9.59304 11.5246 9.74716 11.9853 9.74716C12.2637 9.74716 12.5404 9.67756 12.8155 9.53835C13.0939 9.39915 13.3243 9.18868 13.5066 8.90696C13.6922 8.62524 13.7833 8.26728 13.78 7.8331ZM17.2688 11V3.36364H18.7056V4.5767H18.7852C18.9244 4.16572 19.1696 3.84257 19.521 3.60724C19.8756 3.36861 20.2766 3.24929 20.7241 3.24929C20.8169 3.24929 20.9263 3.2526 21.0522 3.25923C21.1815 3.26586 21.2826 3.27415 21.3555 3.28409V4.70597C21.2958 4.68939 21.1897 4.67116 21.0373 4.65128C20.8848 4.62808 20.7324 4.61648 20.5799 4.61648C20.2286 4.61648 19.9154 4.69105 19.6403 4.8402C19.3685 4.98603 19.1531 5.18987 18.994 5.4517C18.8349 5.71023 18.7553 6.00521 18.7553 6.33665V11H17.2688ZM28.3642 5.22798L27.0169 5.46662C26.9605 5.29427 26.871 5.13021 26.7484 4.97443C26.6291 4.81865 26.4667 4.69105 26.2612 4.59162C26.0557 4.49219 25.7988 4.44247 25.4906 4.44247C25.0697 4.44247 24.7183 4.53693 24.4366 4.72585C24.1549 4.91146 24.014 5.15175 24.014 5.44673C24.014 5.70194 24.1085 5.90743 24.2974 6.06321C24.4863 6.21899 24.7913 6.34659 25.2122 6.44602L26.4252 6.72443C27.1279 6.88684 27.6516 7.13707 27.9963 7.47514C28.341 7.81321 28.5133 8.25237 28.5133 8.79261C28.5133 9.25 28.3807 9.65767 28.1156 10.0156C27.8538 10.3703 27.4875 10.6487 27.0169 10.8509C26.5495 11.053 26.0076 11.1541 25.3912 11.1541C24.536 11.1541 23.8384 10.9718 23.2981 10.6072C22.7579 10.2393 22.4264 9.71733 22.3038 9.04119L23.7406 8.82244C23.8301 9.19697 24.014 9.48035 24.2924 9.67259C24.5708 9.86151 24.9338 9.95597 25.3812 9.95597C25.8684 9.95597 26.2579 9.85488 26.5495 9.6527C26.8412 9.44721 26.987 9.19697 26.987 8.90199C26.987 8.66335 26.8975 8.46283 26.7186 8.30043C26.5429 8.13802 26.2728 8.01539 25.9082 7.93253L24.6156 7.64915C23.903 7.48674 23.376 7.22822 23.0346 6.87358C22.6966 6.51894 22.5275 6.06984 22.5275 5.52628C22.5275 5.07552 22.6535 4.68111 22.9054 4.34304C23.1573 4.00497 23.5053 3.74148 23.9494 3.55256C24.3935 3.36032 24.9023 3.2642 25.4757 3.2642C26.301 3.2642 26.9506 3.44318 27.4245 3.80114C27.8985 4.15578 28.2117 4.63139 28.3642 5.22798ZM33.3643 11.1541C32.6484 11.1541 32.0237 10.9901 31.4901 10.6619C30.9564 10.3338 30.5421 9.87476 30.2472 9.2848C29.9522 8.69484 29.8047 8.00544 29.8047 7.21662C29.8047 6.42448 29.9522 5.73177 30.2472 5.13849C30.5421 4.54522 30.9564 4.08452 31.4901 3.75639C32.0237 3.42827 32.6484 3.2642 33.3643 3.2642C34.0803 3.2642 34.705 3.42827 35.2386 3.75639C35.7723 4.08452 36.1866 4.54522 36.4815 5.13849C36.7765 5.73177 36.924 6.42448 36.924 7.21662C36.924 8.00544 36.7765 8.69484 36.4815 9.2848C36.1866 9.87476 35.7723 10.3338 35.2386 10.6619C34.705 10.9901 34.0803 11.1541 33.3643 11.1541ZM33.3693 9.90625C33.8333 9.90625 34.2178 9.78362 34.5227 9.53835C34.8277 9.29309 35.053 8.96662 35.1989 8.55895C35.348 8.15128 35.4226 7.70218 35.4226 7.21165C35.4226 6.72443 35.348 6.27699 35.1989 5.86932C35.053 5.45833 34.8277 5.12855 34.5227 4.87997C34.2178 4.63139 33.8333 4.5071 33.3693 4.5071C32.902 4.5071 32.5142 4.63139 32.206 4.87997C31.901 5.12855 31.674 5.45833 31.5249 5.86932C31.379 6.27699 31.3061 6.72443 31.3061 7.21165C31.3061 7.70218 31.379 8.15128 31.5249 8.55895C31.674 8.96662 31.901 9.29309 32.206 9.53835C32.5142 9.78362 32.902 9.90625 33.3693 9.90625ZM38.5833 11V3.36364H40.0201V4.5767H40.0996C40.2388 4.16572 40.4841 3.84257 40.8354 3.60724C41.19 3.36861 41.5911 3.24929 42.0385 3.24929C42.1313 3.24929 42.2407 3.2526 42.3667 3.25923C42.4959 3.26586 42.597 3.27415 42.6699 3.28409V4.70597C42.6103 4.68939 42.5042 4.67116 42.3517 4.65128C42.1993 4.62808 42.0468 4.61648 41.8944 4.61648C41.543 4.61648 41.2298 4.69105 40.9547 4.8402C40.6829 4.98603 40.4675 5.18987 40.3084 5.4517C40.1493 5.71023 40.0698 6.00521 40.0698 6.33665V11H38.5833ZM48.0044 6.05327V7.34091H43.4902V6.05327H48.0044ZM53.5105 11.169C52.725 11.1657 52.0538 10.9586 51.497 10.5476C50.9402 10.1366 50.5143 9.53835 50.2193 8.75284C49.9243 7.96733 49.7768 7.02107 49.7768 5.91406C49.7768 4.81037 49.9243 3.86742 50.2193 3.08523C50.5176 2.30303 50.9451 1.70644 51.502 1.29545C52.0621 0.884469 52.7316 0.678977 53.5105 0.678977C54.2894 0.678977 54.9572 0.886126 55.514 1.30043C56.0708 1.71141 56.4967 2.308 56.7917 3.0902C57.09 3.86908 57.2392 4.81037 57.2392 5.91406C57.2392 7.02438 57.0917 7.9723 56.7967 8.75781C56.5017 9.54001 56.0758 10.1383 55.519 10.5526C54.9622 10.9635 54.2927 11.169 53.5105 11.169ZM53.5105 9.84162C54.1999 9.84162 54.7385 9.50521 55.1262 8.83239C55.5173 8.15956 55.7129 7.18679 55.7129 5.91406C55.7129 5.06889 55.6234 4.35464 55.4444 3.77131C55.2688 3.18466 55.0152 2.74053 54.6838 2.43892C54.3556 2.134 53.9645 1.98153 53.5105 1.98153C52.8244 1.98153 52.2858 2.3196 51.8947 2.99574C51.5036 3.67187 51.3064 4.64465 51.3031 5.91406C51.3031 6.76255 51.3909 7.48011 51.5666 8.06676C51.7456 8.65009 51.9991 9.09257 52.3272 9.39418C52.6554 9.69247 53.0498 9.84162 53.5105 9.84162ZM62.5476 11.1392C61.8648 11.1392 61.255 11.0215 60.718 10.7862C60.1844 10.5509 59.7618 10.2244 59.4503 9.80682C59.142 9.38589 58.9763 8.89867 58.9531 8.34517H60.5142C60.5341 8.64678 60.6352 8.90862 60.8175 9.13068C61.0031 9.34943 61.245 9.51847 61.5433 9.63778C61.8416 9.7571 62.1731 9.81676 62.5376 9.81676C62.9387 9.81676 63.2933 9.74716 63.6016 9.60795C63.9131 9.46875 64.1567 9.27486 64.3324 9.02628C64.508 8.77438 64.5959 8.48438 64.5959 8.15625C64.5959 7.81487 64.508 7.51491 64.3324 7.25639C64.16 6.99455 63.9065 6.78906 63.5717 6.63991C63.2403 6.49077 62.8393 6.41619 62.3686 6.41619H61.5085V5.16335H62.3686C62.7464 5.16335 63.0779 5.09541 63.3629 4.95952C63.6513 4.82363 63.8767 4.63471 64.0391 4.39276C64.2015 4.14749 64.2827 3.8608 64.2827 3.53267C64.2827 3.2178 64.2114 2.94437 64.0689 2.71236C63.9297 2.47704 63.7308 2.29309 63.4723 2.16051C63.2171 2.02794 62.9155 1.96165 62.5675 1.96165C62.236 1.96165 61.9261 2.02296 61.6378 2.1456C61.3527 2.26491 61.1207 2.43726 60.9418 2.66264C60.7628 2.88471 60.6667 3.15151 60.6534 3.46307H59.1669C59.1835 2.91288 59.3459 2.42898 59.6541 2.01136C59.9657 1.59375 60.3767 1.26728 60.8871 1.03196C61.3975 0.796638 61.9643 0.678977 62.5874 0.678977C63.2403 0.678977 63.8037 0.806581 64.2777 1.06179C64.755 1.31368 65.1229 1.65009 65.3814 2.07102C65.6432 2.49195 65.7725 2.95265 65.7692 3.45312C65.7725 4.0232 65.6134 4.5071 65.2919 4.90483C64.9737 5.30256 64.5495 5.56937 64.0192 5.70526V5.7848C64.6953 5.88755 65.219 6.15601 65.5902 6.5902C65.9647 7.02438 66.1503 7.56297 66.147 8.20597C66.1503 8.7661 65.9946 9.26823 65.6797 9.71236C65.3681 10.1565 64.9422 10.5062 64.402 10.7614C63.8617 11.0133 63.2436 11.1392 62.5476 11.1392Z" fill="black"/>
</svg>
