<svg width="45" height="12" viewBox="0 0 45 12" fill="none" xmlns="http://www.w3.org/2000/svg">
<path d="M4.63352 3.36364V4.55682H0.318182V3.36364H4.63352ZM1.50142 11V2.47869C1.50142 2.00142 1.60582 1.60535 1.81463 1.29048C2.02344 0.972301 2.30019 0.735322 2.64489 0.579545C2.98958 0.420454 3.36411 0.340908 3.76847 0.340908C4.06676 0.340908 4.32197 0.365767 4.53409 0.415483C4.74621 0.461884 4.90365 0.504971 5.00639 0.544744L4.65838 1.74787C4.58878 1.72798 4.49929 1.70478 4.38991 1.67827C4.28054 1.64844 4.14796 1.63352 3.99219 1.63352C3.63092 1.63352 3.3724 1.72301 3.21662 1.90199C3.06416 2.08097 2.98793 2.33949 2.98793 2.67756V11H1.50142ZM6.16726 11V3.36364H7.60405V4.5767H7.68359C7.8228 4.16572 8.06806 3.84257 8.41939 3.60724C8.77403 3.36861 9.17507 3.24929 9.62251 3.24929C9.71532 3.24929 9.82469 3.2526 9.95064 3.25923C10.0799 3.26586 10.181 3.27415 10.2539 3.28409V4.70597C10.1942 4.68939 10.0882 4.67116 9.93572 4.65128C9.78326 4.62808 9.6308 4.61648 9.47834 4.61648C9.12701 4.61648 8.8138 4.69105 8.53871 4.8402C8.26693 4.98603 8.05149 5.18987 7.8924 5.4517C7.73331 5.71023 7.65376 6.00521 7.65376 6.33665V11H6.16726ZM13.6942 11.169C13.2103 11.169 12.7728 11.0795 12.3817 10.9006C11.9906 10.7183 11.6808 10.4548 11.4521 10.1101C11.2267 9.76539 11.114 9.3428 11.114 8.84233C11.114 8.41146 11.1969 8.05682 11.3626 7.77841C11.5283 7.5 11.752 7.27959 12.0337 7.11719C12.3155 6.95478 12.6303 6.83215 12.9783 6.74929C13.3263 6.66643 13.681 6.60346 14.0423 6.56037C14.4996 6.50734 14.8709 6.46425 15.1559 6.43111C15.4409 6.39465 15.6481 6.33665 15.7773 6.2571C15.9066 6.17756 15.9712 6.0483 15.9712 5.86932V5.83452C15.9712 5.40033 15.8486 5.06392 15.6033 4.82528C15.3614 4.58665 15.0001 4.46733 14.5195 4.46733C14.0191 4.46733 13.6246 4.57836 13.3363 4.80043C13.0513 5.01918 12.854 5.26278 12.7447 5.53125L11.3477 5.21307C11.5134 4.74905 11.7553 4.37453 12.0735 4.08949C12.395 3.80114 12.7646 3.59233 13.1822 3.46307C13.5998 3.33049 14.0389 3.2642 14.4996 3.2642C14.8046 3.2642 15.1277 3.30066 15.4691 3.37358C15.8138 3.44318 16.1353 3.57244 16.4336 3.76136C16.7352 3.95028 16.9821 4.22041 17.1744 4.57173C17.3666 4.91974 17.4627 5.37216 17.4627 5.92898V11H16.011V9.95597H15.9513C15.8552 10.1482 15.7111 10.3371 15.5188 10.5227C15.3266 10.7083 15.0797 10.8625 14.7781 10.9851C14.4764 11.1077 14.1152 11.169 13.6942 11.169ZM14.0174 9.97585C14.4284 9.97585 14.7797 9.89465 15.0714 9.73224C15.3664 9.56984 15.5901 9.35772 15.7425 9.09588C15.8983 8.83073 15.9762 8.54735 15.9762 8.24574V7.26136C15.9232 7.31439 15.8204 7.36411 15.668 7.41051C15.5188 7.4536 15.3481 7.49171 15.1559 7.52486C14.9637 7.55469 14.7764 7.58286 14.5941 7.60938C14.4118 7.63258 14.2594 7.65246 14.1367 7.66903C13.8484 7.70549 13.5849 7.76681 13.3462 7.85298C13.1109 7.93916 12.922 8.06345 12.7795 8.22585C12.6403 8.38494 12.5707 8.59706 12.5707 8.86222C12.5707 9.23011 12.7066 9.50852 12.9783 9.69744C13.2501 9.88305 13.5965 9.97585 14.0174 9.97585ZM19.4426 11V3.36364H20.8695V4.60653H20.964C21.123 4.18561 21.3832 3.85748 21.7445 3.62216C22.1058 3.38352 22.5383 3.2642 23.0421 3.2642C23.5525 3.2642 23.9801 3.38352 24.3248 3.62216C24.6728 3.8608 24.9296 4.18892 25.0953 4.60653H25.1749C25.3572 4.19886 25.6472 3.87405 26.0449 3.6321C26.4426 3.38684 26.9166 3.2642 27.4668 3.2642C28.1595 3.2642 28.7246 3.4813 29.1621 3.91548C29.6029 4.34967 29.8233 5.00426 29.8233 5.87926V11H28.3368V6.01847C28.3368 5.50142 28.196 5.12689 27.9142 4.89489C27.6325 4.66288 27.2961 4.54688 26.905 4.54688C26.4211 4.54688 26.0449 4.69602 25.7765 4.99432C25.508 5.2893 25.3738 5.6688 25.3738 6.13281V11H23.8922V5.92401C23.8922 5.50971 23.763 5.17661 23.5044 4.92472C23.2459 4.67282 22.9095 4.54688 22.4952 4.54688C22.2135 4.54688 21.9533 4.62145 21.7147 4.7706C21.4793 4.91643 21.2888 5.12026 21.1429 5.3821C21.0004 5.64394 20.9292 5.94721 20.9292 6.2919V11H19.4426ZM35.1069 11.1541C34.3545 11.1541 33.7066 10.9934 33.163 10.6719C32.6228 10.3471 32.2051 9.89134 31.9102 9.30469C31.6185 8.71473 31.4727 8.02367 31.4727 7.23153C31.4727 6.44934 31.6185 5.75994 31.9102 5.16335C32.2051 4.56676 32.6161 4.10109 33.1431 3.76633C33.6734 3.43158 34.2932 3.2642 35.0025 3.2642C35.4334 3.2642 35.851 3.33546 36.2553 3.47798C36.6597 3.6205 37.0226 3.84422 37.3441 4.14915C37.6656 4.45407 37.9192 4.85014 38.1048 5.33736C38.2904 5.82126 38.3832 6.40956 38.3832 7.10227V7.62926H32.3129V6.51562H36.9265C36.9265 6.12453 36.8469 5.77817 36.6879 5.47656C36.5288 5.17164 36.305 4.93134 36.0167 4.75568C35.7317 4.58002 35.3969 4.49219 35.0124 4.49219C34.5948 4.49219 34.2302 4.59493 33.9187 4.80043C33.6104 5.0026 33.3718 5.26776 33.2028 5.59588C33.0371 5.92069 32.9542 6.27367 32.9542 6.65483V7.52486C32.9542 8.03527 33.0437 8.46946 33.2227 8.82741C33.4049 9.18537 33.6585 9.45881 33.9833 9.64773C34.3081 9.83333 34.6876 9.92614 35.1218 9.92614C35.4035 9.92614 35.6604 9.88636 35.8924 9.80682C36.1244 9.72396 36.3249 9.60133 36.494 9.43892C36.663 9.27652 36.7923 9.07599 36.8817 8.83736L38.2887 9.09091C38.176 9.50521 37.9738 9.86813 37.6822 10.1797C37.3938 10.4879 37.0309 10.7282 36.5934 10.9006C36.1592 11.0696 35.6637 11.1541 35.1069 11.1541ZM40.0325 11V3.36364H41.4693V4.5767H41.5488C41.688 4.16572 41.9333 3.84257 42.2846 3.60724C42.6393 3.36861 43.0403 3.24929 43.4877 3.24929C43.5806 3.24929 43.6899 3.2526 43.8159 3.25923C43.9451 3.26586 44.0462 3.27415 44.1191 3.28409V4.70597C44.0595 4.68939 43.9534 4.67116 43.801 4.65128C43.6485 4.62808 43.496 4.61648 43.3436 4.61648C42.9922 4.61648 42.679 4.69105 42.4039 4.8402C42.1322 4.98603 41.9167 5.18987 41.7576 5.4517C41.5985 5.71023 41.519 6.00521 41.519 6.33665V11H40.0325Z" fill="black"/>
</svg>
