<svg width="63" height="14" viewBox="0 0 63 14" fill="none" xmlns="http://www.w3.org/2000/svg">
<path d="M6.72159 5.22798L5.37429 5.46662C5.31795 5.29427 5.22846 5.13021 5.10582 4.97443C4.98651 4.81865 4.8241 4.69105 4.61861 4.59162C4.41312 4.49219 4.15625 4.44247 3.84801 4.44247C3.42708 4.44247 3.07576 4.53693 2.79403 4.72585C2.51231 4.91146 2.37145 5.15175 2.37145 5.44673C2.37145 5.70194 2.46591 5.90743 2.65483 6.06321C2.84375 6.21899 3.14867 6.34659 3.5696 6.44602L4.78267 6.72443C5.48532 6.88684 6.009 7.13707 6.35369 7.47514C6.69839 7.81321 6.87074 8.25237 6.87074 8.79261C6.87074 9.25 6.73816 9.65767 6.47301 10.0156C6.21117 10.3703 5.84493 10.6487 5.37429 10.8509C4.90696 11.053 4.36506 11.1541 3.74858 11.1541C2.89347 11.1541 2.19579 10.9718 1.65554 10.6072C1.11529 10.2393 0.783854 9.71733 0.661222 9.04119L2.09801 8.82244C2.1875 9.19697 2.37145 9.48035 2.64986 9.67259C2.92827 9.86151 3.29119 9.95597 3.73864 9.95597C4.22585 9.95597 4.61529 9.85488 4.90696 9.6527C5.19863 9.44721 5.34446 9.19697 5.34446 8.90199C5.34446 8.66335 5.25497 8.46283 5.07599 8.30043C4.90033 8.13802 4.63021 8.01539 4.26562 7.93253L2.97301 7.64915C2.26042 7.48674 1.73343 7.22822 1.39205 6.87358C1.05398 6.51894 0.884943 6.06984 0.884943 5.52628C0.884943 5.07552 1.01089 4.68111 1.26278 4.34304C1.51468 4.00497 1.86269 3.74148 2.30682 3.55256C2.75095 3.36032 3.25971 3.2642 3.8331 3.2642C4.65838 3.2642 5.308 3.44318 5.78196 3.80114C6.25592 4.15578 6.56913 4.63139 6.72159 5.22798ZM13.3425 7.8331V3.36364H14.834V11H13.3723V9.67756H13.2928C13.1171 10.0852 12.8354 10.425 12.4476 10.6967C12.0632 10.9652 11.5842 11.0994 11.0108 11.0994C10.5203 11.0994 10.0861 10.9917 9.70827 10.7763C9.33375 10.5575 9.03877 10.2344 8.82333 9.80682C8.61121 9.37926 8.50515 8.85062 8.50515 8.22088V3.36364H9.99165V8.0419C9.99165 8.56226 10.1358 8.97656 10.4242 9.2848C10.7125 9.59304 11.0871 9.74716 11.5478 9.74716C11.8262 9.74716 12.1029 9.67756 12.378 9.53835C12.6564 9.39915 12.8868 9.18868 13.0691 8.90696C13.2547 8.62524 13.3458 8.26728 13.3425 7.8331ZM16.9506 11V0.818182H18.4371V4.60156H18.5266C18.6128 4.44247 18.7371 4.25852 18.8995 4.04972C19.0619 3.84091 19.2873 3.65862 19.5756 3.50284C19.864 3.34375 20.2451 3.2642 20.7191 3.2642C21.3356 3.2642 21.8858 3.41998 22.3697 3.73153C22.8536 4.04309 23.2331 4.49219 23.5082 5.07884C23.7866 5.66548 23.9258 6.37145 23.9258 7.19673C23.9258 8.02202 23.7882 8.72964 23.5131 9.3196C23.238 9.90625 22.8602 10.3587 22.3796 10.6768C21.899 10.9917 21.3505 11.1491 20.734 11.1491C20.27 11.1491 19.8905 11.0713 19.5955 10.9155C19.3039 10.7597 19.0752 10.5774 18.9094 10.3686C18.7437 10.1598 18.6161 9.9742 18.5266 9.81179H18.4023V11H16.9506ZM18.4073 7.18182C18.4073 7.71875 18.4852 8.18939 18.641 8.59375C18.7968 8.99811 19.0221 9.31463 19.3171 9.54332C19.6121 9.7687 19.9734 9.88139 20.4009 9.88139C20.8451 9.88139 21.2163 9.76373 21.5146 9.52841C21.8129 9.28977 22.0382 8.96662 22.1907 8.55895C22.3465 8.15128 22.4244 7.69223 22.4244 7.18182C22.4244 6.67803 22.3481 6.22562 22.1957 5.82457C22.0465 5.42353 21.8211 5.10701 21.5195 4.875C21.2212 4.64299 20.8484 4.52699 20.4009 4.52699C19.9701 4.52699 19.6055 4.63802 19.3072 4.86009C19.0122 5.08215 18.7885 5.39205 18.636 5.78977C18.4835 6.1875 18.4073 6.65151 18.4073 7.18182ZM31.3173 5.22798L29.97 5.46662C29.9136 5.29427 29.8242 5.13021 29.7015 4.97443C29.5822 4.81865 29.4198 4.69105 29.2143 4.59162C29.0088 4.49219 28.752 4.44247 28.4437 4.44247C28.0228 4.44247 27.6715 4.53693 27.3897 4.72585C27.108 4.91146 26.9672 5.15175 26.9672 5.44673C26.9672 5.70194 27.0616 5.90743 27.2505 6.06321C27.4395 6.21899 27.7444 6.34659 28.1653 6.44602L29.3784 6.72443C30.081 6.88684 30.6047 7.13707 30.9494 7.47514C31.2941 7.81321 31.4664 8.25237 31.4664 8.79261C31.4664 9.25 31.3339 9.65767 31.0687 10.0156C30.8069 10.3703 30.4406 10.6487 29.97 10.8509C29.5027 11.053 28.9608 11.1541 28.3443 11.1541C27.4892 11.1541 26.7915 10.9718 26.2512 10.6072C25.711 10.2393 25.3796 9.71733 25.2569 9.04119L26.6937 8.82244C26.7832 9.19697 26.9672 9.48035 27.2456 9.67259C27.524 9.86151 27.8869 9.95597 28.3343 9.95597C28.8216 9.95597 29.211 9.85488 29.5027 9.6527C29.7943 9.44721 29.9402 9.19697 29.9402 8.90199C29.9402 8.66335 29.8507 8.46283 29.6717 8.30043C29.496 8.13802 29.2259 8.01539 28.8613 7.93253L27.5687 7.64915C26.8561 7.48674 26.3291 7.22822 25.9877 6.87358C25.6497 6.51894 25.4806 6.06984 25.4806 5.52628C25.4806 5.07552 25.6066 4.68111 25.8585 4.34304C26.1104 4.00497 26.4584 3.74148 26.9025 3.55256C27.3467 3.36032 27.8554 3.2642 28.4288 3.2642C29.2541 3.2642 29.9037 3.44318 30.3777 3.80114C30.8516 4.15578 31.1648 4.63139 31.3173 5.22798ZM36.3175 11.1541C35.5784 11.1541 34.942 10.9867 34.4084 10.652C33.8781 10.3139 33.4704 9.84825 33.1854 9.25497C32.9003 8.66169 32.7578 7.98224 32.7578 7.21662C32.7578 6.44105 32.9036 5.75663 33.1953 5.16335C33.487 4.56676 33.898 4.10109 34.4283 3.76633C34.9586 3.43158 35.5833 3.2642 36.3026 3.2642C36.8826 3.2642 37.3996 3.37192 37.8537 3.58736C38.3078 3.79948 38.674 4.09777 38.9524 4.48224C39.2341 4.86671 39.4015 5.31581 39.4545 5.82955H38.0078C37.9283 5.47159 37.746 5.16335 37.4609 4.90483C37.1792 4.64631 36.8014 4.51705 36.3274 4.51705C35.9131 4.51705 35.5502 4.62642 35.2386 4.84517C34.9304 5.06061 34.6901 5.36884 34.5178 5.76989C34.3454 6.16761 34.2592 6.63826 34.2592 7.18182C34.2592 7.73864 34.3438 8.21922 34.5128 8.62358C34.6818 9.02794 34.9205 9.34115 35.2287 9.56321C35.5402 9.78527 35.9065 9.89631 36.3274 9.89631C36.6091 9.89631 36.8643 9.84493 37.093 9.74219C37.325 9.63613 37.5189 9.48532 37.6747 9.28977C37.8338 9.09422 37.9448 8.8589 38.0078 8.58381H39.4545C39.4015 9.07765 39.2408 9.51847 38.9723 9.90625C38.7038 10.294 38.3442 10.599 37.8935 10.821C37.446 11.0431 36.9207 11.1541 36.3175 11.1541ZM41.0442 11V3.36364H42.481V4.5767H42.5605C42.6998 4.16572 42.945 3.84257 43.2963 3.60724C43.651 3.36861 44.052 3.24929 44.4995 3.24929C44.5923 3.24929 44.7016 3.2526 44.8276 3.25923C44.9569 3.26586 45.0579 3.27415 45.1309 3.28409V4.70597C45.0712 4.68939 44.9651 4.67116 44.8127 4.65128C44.6602 4.62808 44.5078 4.61648 44.3553 4.61648C44.004 4.61648 43.6908 4.69105 43.4157 4.8402C43.1439 4.98603 42.9284 5.18987 42.7694 5.4517C42.6103 5.71023 42.5307 6.00521 42.5307 6.33665V11H41.0442ZM46.4173 11V3.36364H47.9038V11H46.4173ZM47.168 2.18537C46.9094 2.18537 46.6874 2.09919 46.5018 1.92685C46.3195 1.75118 46.2283 1.54238 46.2283 1.30043C46.2283 1.05516 46.3195 0.846354 46.5018 0.674005C46.6874 0.498342 46.9094 0.410511 47.168 0.410511C47.4265 0.410511 47.6469 0.498342 47.8292 0.674005C48.0148 0.846354 48.1076 1.05516 48.1076 1.30043C48.1076 1.54238 48.0148 1.75118 47.8292 1.92685C47.6469 2.09919 47.4265 2.18537 47.168 2.18537ZM49.9036 13.8636V3.36364H51.3553V4.60156H51.4796C51.5658 4.44247 51.69 4.25852 51.8525 4.04972C52.0149 3.84091 52.2402 3.65862 52.5286 3.50284C52.8169 3.34375 53.1981 3.2642 53.6721 3.2642C54.2885 3.2642 54.8387 3.41998 55.3226 3.73153C55.8065 4.04309 56.186 4.49219 56.4611 5.07884C56.7395 5.66548 56.8787 6.37145 56.8787 7.19673C56.8787 8.02202 56.7412 8.72964 56.4661 9.3196C56.191 9.90625 55.8132 10.3587 55.3326 10.6768C54.852 10.9917 54.3034 11.1491 53.687 11.1491C53.223 11.1491 52.8435 11.0713 52.5485 10.9155C52.2568 10.7597 52.0281 10.5774 51.8624 10.3686C51.6967 10.1598 51.5691 9.9742 51.4796 9.81179H51.3901V13.8636H49.9036ZM51.3603 7.18182C51.3603 7.71875 51.4382 8.18939 51.5939 8.59375C51.7497 8.99811 51.9751 9.31463 52.2701 9.54332C52.565 9.7687 52.9263 9.88139 53.3539 9.88139C53.798 9.88139 54.1692 9.76373 54.4675 9.52841C54.7658 9.28977 54.9912 8.96662 55.1436 8.55895C55.2994 8.15128 55.3773 7.69223 55.3773 7.18182C55.3773 6.67803 55.3011 6.22562 55.1486 5.82457C54.9995 5.42353 54.7741 5.10701 54.4725 4.875C54.1742 4.64299 53.8013 4.52699 53.3539 4.52699C52.923 4.52699 52.5584 4.63802 52.2601 4.86009C51.9651 5.08215 51.7414 5.39205 51.589 5.78977C51.4365 6.1875 51.3603 6.65151 51.3603 7.18182ZM62.1088 3.36364V4.55682H57.9377V3.36364H62.1088ZM59.0563 1.53409H60.5428V8.75781C60.5428 9.04616 60.5859 9.26326 60.6721 9.40909C60.7582 9.55161 60.8693 9.64938 61.0051 9.70241C61.1444 9.75213 61.2952 9.77699 61.4576 9.77699C61.5769 9.77699 61.6813 9.7687 61.7708 9.75213C61.8603 9.73556 61.9299 9.7223 61.9796 9.71236L62.248 10.9403C62.1619 10.9735 62.0392 11.0066 61.8801 11.0398C61.7211 11.0762 61.5222 11.0961 61.2836 11.0994C60.8925 11.1061 60.5279 11.0365 60.1898 10.8906C59.8517 10.7448 59.5783 10.5194 59.3695 10.2145C59.1607 9.90956 59.0563 9.52675 59.0563 9.06605V1.53409Z" fill="black"/>
</svg>
