<svg width="114" height="14" viewBox="0 0 114 14" fill="none" xmlns="http://www.w3.org/2000/svg">
<path d="M4.83665 7.8331V3.36364H6.32812V11H4.86648V9.67756H4.78693C4.61127 10.0852 4.32955 10.425 3.94176 10.6967C3.55729 10.9652 3.07836 11.0994 2.50497 11.0994C2.01444 11.0994 1.58026 10.9917 1.20241 10.7763C0.827888 10.5575 0.532907 10.2344 0.317472 9.80682C0.10535 9.37926 -0.000710189 8.85062 -0.000710189 8.22088V3.36364H1.4858V8.0419C1.4858 8.56226 1.62997 8.97656 1.91832 9.2848C2.20668 9.59304 2.5812 9.74716 3.0419 9.74716C3.32031 9.74716 3.59706 9.67756 3.87216 9.53835C4.15057 9.39915 4.38092 9.18868 4.56321 8.90696C4.74882 8.62524 4.83996 8.26728 4.83665 7.8331ZM9.81197 6.46591V11H8.32546V3.36364H9.75231V4.60653H9.84677C10.0224 4.20218 10.2975 3.87737 10.6721 3.6321C11.0499 3.38684 11.5255 3.2642 12.0989 3.2642C12.6193 3.2642 13.075 3.37358 13.4661 3.59233C13.8572 3.80777 14.1605 4.12926 14.3759 4.55682C14.5913 4.98437 14.699 5.51302 14.699 6.14276V11H13.2125V6.32173C13.2125 5.76823 13.0684 5.3357 12.78 5.02415C12.4917 4.70928 12.0956 4.55185 11.5918 4.55185C11.2471 4.55185 10.9405 4.62642 10.6721 4.77557C10.4069 4.92472 10.1964 5.14347 10.0407 5.43182C9.8882 5.71686 9.81197 6.06155 9.81197 6.46591ZM19.5513 11.1491C18.9348 11.1491 18.3846 10.9917 17.9007 10.6768C17.4202 10.3587 17.0423 9.90625 16.7672 9.3196C16.4954 8.72964 16.3596 8.02202 16.3596 7.19673C16.3596 6.37145 16.4971 5.66548 16.7722 5.07884C17.0506 4.49219 17.4318 4.04309 17.9157 3.73153C18.3996 3.41998 18.9481 3.2642 19.5613 3.2642C20.0352 3.2642 20.4164 3.34375 20.7047 3.50284C20.9964 3.65862 21.2218 3.84091 21.3809 4.04972C21.5433 4.25852 21.6692 4.44247 21.7587 4.60156H21.8482V0.818182H23.3347V11H21.883V9.81179H21.7587C21.6692 9.9742 21.54 10.1598 21.3709 10.3686C21.2052 10.5774 20.9765 10.7597 20.6848 10.9155C20.3932 11.0713 20.0153 11.1491 19.5513 11.1491ZM19.8794 9.88139C20.307 9.88139 20.6683 9.7687 20.9632 9.54332C21.2615 9.31463 21.4869 8.99811 21.6394 8.59375C21.7952 8.18939 21.873 7.71875 21.873 7.18182C21.873 6.65151 21.7968 6.1875 21.6444 5.78977C21.4919 5.39205 21.2682 5.08215 20.9732 4.86009C20.6782 4.63802 20.3136 4.52699 19.8794 4.52699C19.432 4.52699 19.0591 4.64299 18.7608 4.875C18.4625 5.10701 18.2372 5.42353 18.0847 5.82457C17.9355 6.22562 17.861 6.67803 17.861 7.18182C17.861 7.69223 17.9372 8.15128 18.0897 8.55895C18.2421 8.96662 18.4675 9.28977 18.7658 9.52841C19.0674 9.76373 19.4386 9.88139 19.8794 9.88139ZM28.7475 11.1541C27.9951 11.1541 27.3472 10.9934 26.8036 10.6719C26.2634 10.3471 25.8458 9.89134 25.5508 9.30469C25.2591 8.71473 25.1133 8.02367 25.1133 7.23153C25.1133 6.44934 25.2591 5.75994 25.5508 5.16335C25.8458 4.56676 26.2567 4.10109 26.7837 3.76633C27.314 3.43158 27.9338 3.2642 28.6431 3.2642C29.074 3.2642 29.4916 3.33546 29.896 3.47798C30.3003 3.6205 30.6632 3.84422 30.9847 4.14915C31.3062 4.45407 31.5598 4.85014 31.7454 5.33736C31.931 5.82126 32.0238 6.40956 32.0238 7.10227V7.62926H25.9535V6.51562H30.5671C30.5671 6.12453 30.4876 5.77817 30.3285 5.47656C30.1694 5.17164 29.9457 4.93134 29.6573 4.75568C29.3723 4.58002 29.0375 4.49219 28.6531 4.49219C28.2354 4.49219 27.8709 4.59493 27.5593 4.80043C27.2511 5.0026 27.0124 5.26776 26.8434 5.59588C26.6777 5.92069 26.5948 6.27367 26.5948 6.65483V7.52486C26.5948 8.03527 26.6843 8.46946 26.8633 8.82741C27.0456 9.18537 27.2991 9.45881 27.6239 9.64773C27.9487 9.83333 28.3282 9.92614 28.7624 9.92614C29.0442 9.92614 29.301 9.88636 29.533 9.80682C29.765 9.72396 29.9656 9.60133 30.1346 9.43892C30.3036 9.27652 30.4329 9.07599 30.5224 8.83736L31.9293 9.09091C31.8166 9.50521 31.6145 9.86813 31.3228 10.1797C31.0344 10.4879 30.6715 10.7282 30.234 10.9006C29.7998 11.0696 29.3043 11.1541 28.7475 11.1541ZM33.6731 11V3.36364H35.1099V4.5767H35.1895C35.3287 4.16572 35.5739 3.84257 35.9252 3.60724C36.2799 3.36861 36.6809 3.24929 37.1284 3.24929C37.2212 3.24929 37.3306 3.2526 37.4565 3.25923C37.5858 3.26586 37.6868 3.27415 37.7598 3.28409V4.70597C37.7001 4.68939 37.594 4.67116 37.4416 4.65128C37.2891 4.62808 37.1367 4.61648 36.9842 4.61648C36.6329 4.61648 36.3197 4.69105 36.0446 4.8402C35.7728 4.98603 35.5574 5.18987 35.3983 5.4517C35.2392 5.71023 35.1596 6.00521 35.1596 6.33665V11H33.6731ZM40.5327 0.818182V11H39.0462V0.818182H40.5327ZM42.5325 11V3.36364H44.019V11H42.5325ZM43.2832 2.18537C43.0247 2.18537 42.8026 2.09919 42.617 1.92685C42.4347 1.75118 42.3436 1.54238 42.3436 1.30043C42.3436 1.05516 42.4347 0.846354 42.617 0.674005C42.8026 0.498342 43.0247 0.410511 43.2832 0.410511C43.5417 0.410511 43.7621 0.498342 43.9444 0.674005C44.13 0.846354 44.2228 1.05516 44.2228 1.30043C44.2228 1.54238 44.13 1.75118 43.9444 1.92685C43.7621 2.09919 43.5417 2.18537 43.2832 2.18537ZM47.5053 6.46591V11H46.0188V3.36364H47.4457V4.60653H47.5401C47.7158 4.20218 47.9909 3.87737 48.3654 3.6321C48.7433 3.38684 49.2189 3.2642 49.7923 3.2642C50.3126 3.2642 50.7683 3.37358 51.1594 3.59233C51.5505 3.80777 51.8538 4.12926 52.0692 4.55682C52.2847 4.98437 52.3924 5.51302 52.3924 6.14276V11H50.9059V6.32173C50.9059 5.76823 50.7617 5.3357 50.4734 5.02415C50.185 4.70928 49.7889 4.55185 49.2852 4.55185C48.9405 4.55185 48.6339 4.62642 48.3654 4.77557C48.1003 4.92472 47.8898 5.14347 47.734 5.43182C47.5816 5.71686 47.5053 6.06155 47.5053 6.46591ZM57.6772 11.1541C56.9248 11.1541 56.2769 10.9934 55.7333 10.6719C55.1931 10.3471 54.7754 9.89134 54.4805 9.30469C54.1888 8.71473 54.043 8.02367 54.043 7.23153C54.043 6.44934 54.1888 5.75994 54.4805 5.16335C54.7754 4.56676 55.1864 4.10109 55.7134 3.76633C56.2437 3.43158 56.8635 3.2642 57.5728 3.2642C58.0037 3.2642 58.4213 3.33546 58.8256 3.47798C59.23 3.6205 59.5929 3.84422 59.9144 4.14915C60.2359 4.45407 60.4895 4.85014 60.6751 5.33736C60.8607 5.82126 60.9535 6.40956 60.9535 7.10227V7.62926H54.8832V6.51562H59.4968C59.4968 6.12453 59.4173 5.77817 59.2582 5.47656C59.0991 5.17164 58.8754 4.93134 58.587 4.75568C58.302 4.58002 57.9672 4.49219 57.5827 4.49219C57.1651 4.49219 56.8005 4.59493 56.489 4.80043C56.1808 5.0026 55.9421 5.26776 55.7731 5.59588C55.6074 5.92069 55.5245 6.27367 55.5245 6.65483V7.52486C55.5245 8.03527 55.614 8.46946 55.793 8.82741C55.9753 9.18537 56.2288 9.45881 56.5536 9.64773C56.8784 9.83333 57.2579 9.92614 57.6921 9.92614C57.9738 9.92614 58.2307 9.88636 58.4627 9.80682C58.6947 9.72396 58.8952 9.60133 59.0643 9.43892C59.2333 9.27652 59.3626 9.07599 59.4521 8.83736L60.859 9.09091C60.7463 9.50521 60.5442 9.86813 60.2525 10.1797C59.9641 10.4879 59.6012 10.7282 59.1637 10.9006C58.7295 11.0696 58.234 11.1541 57.6772 11.1541ZM67.1021 6.05327V7.34091H62.5879V6.05327H67.1021ZM74.8056 5.22798L73.4583 5.46662C73.4019 5.29427 73.3124 5.13021 73.1898 4.97443C73.0705 4.81865 72.9081 4.69105 72.7026 4.59162C72.4971 4.49219 72.2402 4.44247 71.932 4.44247C71.5111 4.44247 71.1597 4.53693 70.878 4.72585C70.5963 4.91146 70.4554 5.15175 70.4554 5.44673C70.4554 5.70194 70.5499 5.90743 70.7388 6.06321C70.9277 6.21899 71.2327 6.34659 71.6536 6.44602L72.8667 6.72443C73.5693 6.88684 74.093 7.13707 74.4377 7.47514C74.7824 7.81321 74.9547 8.25237 74.9547 8.79261C74.9547 9.25 74.8221 9.65767 74.557 10.0156C74.2952 10.3703 73.9289 10.6487 73.4583 10.8509C72.9909 11.053 72.449 11.1541 71.8326 11.1541C70.9775 11.1541 70.2798 10.9718 69.7395 10.6072C69.1993 10.2393 68.8678 9.71733 68.7452 9.04119L70.182 8.82244C70.2715 9.19697 70.4554 9.48035 70.7338 9.67259C71.0123 9.86151 71.3752 9.95597 71.8226 9.95597C72.3098 9.95597 72.6993 9.85488 72.9909 9.6527C73.2826 9.44721 73.4284 9.19697 73.4284 8.90199C73.4284 8.66335 73.339 8.46283 73.16 8.30043C72.9843 8.13802 72.7142 8.01539 72.3496 7.93253L71.057 7.64915C70.3444 7.48674 69.8174 7.22822 69.476 6.87358C69.138 6.51894 68.9689 6.06984 68.9689 5.52628C68.9689 5.07552 69.0949 4.68111 69.3468 4.34304C69.5987 4.00497 69.9467 3.74148 70.3908 3.55256C70.8349 3.36032 71.3437 3.2642 71.9171 3.2642C72.7424 3.2642 73.392 3.44318 73.8659 3.80114C74.3399 4.15578 74.6531 4.63139 74.8056 5.22798ZM81.7447 13.8636V9.81179H81.6552C81.5657 9.9742 81.4364 10.1598 81.2674 10.3686C81.1017 10.5774 80.873 10.7597 80.5813 10.9155C80.2897 11.0713 79.9118 11.1491 79.4478 11.1491C78.8313 11.1491 78.2811 10.9917 77.7972 10.6768C77.3166 10.3587 76.9388 9.90625 76.6637 9.3196C76.3919 8.72964 76.256 8.02202 76.256 7.19673C76.256 6.37145 76.3936 5.66548 76.6687 5.07884C76.9471 4.49219 77.3282 4.04309 77.8121 3.73153C78.296 3.41998 78.8446 3.2642 79.4577 3.2642C79.9317 3.2642 80.3129 3.34375 80.6012 3.50284C80.8929 3.65862 81.1183 3.84091 81.2773 4.04972C81.4397 4.25852 81.5657 4.44247 81.6552 4.60156H81.7795V3.36364H83.2312V13.8636H81.7447ZM79.7759 9.88139C80.2035 9.88139 80.5647 9.7687 80.8597 9.54332C81.158 9.31463 81.3834 8.99811 81.5359 8.59375C81.6916 8.18939 81.7695 7.71875 81.7695 7.18182C81.7695 6.65151 81.6933 6.1875 81.5408 5.78977C81.3884 5.39205 81.1647 5.08215 80.8697 4.86009C80.5747 4.63802 80.2101 4.52699 79.7759 4.52699C79.3285 4.52699 78.9556 4.64299 78.6573 4.875C78.359 5.10701 78.1336 5.42353 77.9812 5.82457C77.832 6.22562 77.7575 6.67803 77.7575 7.18182C77.7575 7.69223 77.8337 8.15128 77.9862 8.55895C78.1386 8.96662 78.364 9.28977 78.6623 9.52841C78.9639 9.76373 79.3351 9.88139 79.7759 9.88139ZM90.0671 7.8331V3.36364H91.5586V11H90.0969V9.67756H90.0174C89.8417 10.0852 89.56 10.425 89.1722 10.6967C88.7878 10.9652 88.3088 11.0994 87.7354 11.0994C87.2449 11.0994 86.8107 10.9917 86.4329 10.7763C86.0584 10.5575 85.7634 10.2344 85.5479 9.80682C85.3358 9.37926 85.2298 8.85062 85.2298 8.22088V3.36364H86.7163V8.0419C86.7163 8.56226 86.8604 8.97656 87.1488 9.2848C87.4371 9.59304 87.8117 9.74716 88.2724 9.74716C88.5508 9.74716 88.8275 9.67756 89.1026 9.53835C89.381 9.39915 89.6114 9.18868 89.7937 8.90696C89.9793 8.62524 90.0704 8.26728 90.0671 7.8331ZM95.7782 11.169C95.2943 11.169 94.8568 11.0795 94.4657 10.9006C94.0746 10.7183 93.7647 10.4548 93.536 10.1101C93.3107 9.76539 93.198 9.3428 93.198 8.84233C93.198 8.41146 93.2808 8.05682 93.4466 7.77841C93.6123 7.5 93.836 7.27959 94.1177 7.11719C94.3994 6.95478 94.7143 6.83215 95.0623 6.74929C95.4103 6.66643 95.765 6.60346 96.1262 6.56037C96.5836 6.50734 96.9548 6.46425 97.2399 6.43111C97.5249 6.39465 97.7321 6.33665 97.8613 6.2571C97.9906 6.17756 98.0552 6.0483 98.0552 5.86932V5.83452C98.0552 5.40033 97.9326 5.06392 97.6873 4.82528C97.4454 4.58665 97.0841 4.46733 96.6035 4.46733C96.103 4.46733 95.7086 4.57836 95.4203 4.80043C95.1352 5.01918 94.938 5.26278 94.8287 5.53125L93.4316 5.21307C93.5974 4.74905 93.8393 4.37453 94.1575 4.08949C94.479 3.80114 94.8485 3.59233 95.2662 3.46307C95.6838 3.33049 96.1229 3.2642 96.5836 3.2642C96.8886 3.2642 97.2117 3.30066 97.5531 3.37358C97.8978 3.44318 98.2193 3.57244 98.5176 3.76136C98.8192 3.95028 99.0661 4.22041 99.2583 4.57173C99.4506 4.91974 99.5467 5.37216 99.5467 5.92898V11H98.095V9.95597H98.0353C97.9392 10.1482 97.795 10.3371 97.6028 10.5227C97.4106 10.7083 97.1636 10.8625 96.862 10.9851C96.5604 11.1077 96.1992 11.169 95.7782 11.169ZM96.1014 9.97585C96.5124 9.97585 96.8637 9.89465 97.1554 9.73224C97.4503 9.56984 97.6741 9.35772 97.8265 9.09588C97.9823 8.83073 98.0602 8.54735 98.0602 8.24574V7.26136C98.0072 7.31439 97.9044 7.36411 97.752 7.41051C97.6028 7.4536 97.4321 7.49171 97.2399 7.52486C97.0476 7.55469 96.8604 7.58286 96.6781 7.60938C96.4958 7.63258 96.3433 7.65246 96.2207 7.66903C95.9324 7.70549 95.6689 7.76681 95.4302 7.85298C95.1949 7.93916 95.006 8.06345 94.8635 8.22585C94.7243 8.38494 94.6547 8.59706 94.6547 8.86222C94.6547 9.23011 94.7905 9.50852 95.0623 9.69744C95.3341 9.88305 95.6805 9.97585 96.1014 9.97585ZM101.527 11V3.36364H102.963V4.5767H103.043C103.182 4.16572 103.427 3.84257 103.779 3.60724C104.133 3.36861 104.534 3.24929 104.982 3.24929C105.075 3.24929 105.184 3.2526 105.31 3.25923C105.439 3.26586 105.54 3.27415 105.613 3.28409V4.70597C105.554 4.68939 105.448 4.67116 105.295 4.65128C105.143 4.62808 104.99 4.61648 104.838 4.61648C104.486 4.61648 104.173 4.69105 103.898 4.8402C103.626 4.98603 103.411 5.18987 103.252 5.4517C103.093 5.71023 103.013 6.00521 103.013 6.33665V11H101.527ZM109.917 11.1541C109.165 11.1541 108.517 10.9934 107.974 10.6719C107.433 10.3471 107.016 9.89134 106.721 9.30469C106.429 8.71473 106.283 8.02367 106.283 7.23153C106.283 6.44934 106.429 5.75994 106.721 5.16335C107.016 4.56676 107.427 4.10109 107.954 3.76633C108.484 3.43158 109.104 3.2642 109.813 3.2642C110.244 3.2642 110.662 3.33546 111.066 3.47798C111.47 3.6205 111.833 3.84422 112.155 4.14915C112.476 4.45407 112.73 4.85014 112.915 5.33736C113.101 5.82126 113.194 6.40956 113.194 7.10227V7.62926H107.123V6.51562H111.737C111.737 6.12453 111.657 5.77817 111.498 5.47656C111.339 5.17164 111.116 4.93134 110.827 4.75568C110.542 4.58002 110.207 4.49219 109.823 4.49219C109.405 4.49219 109.041 4.59493 108.729 4.80043C108.421 5.0026 108.182 5.26776 108.013 5.59588C107.848 5.92069 107.765 6.27367 107.765 6.65483V7.52486C107.765 8.03527 107.854 8.46946 108.033 8.82741C108.215 9.18537 108.469 9.45881 108.794 9.64773C109.119 9.83333 109.498 9.92614 109.932 9.92614C110.214 9.92614 110.471 9.88636 110.703 9.80682C110.935 9.72396 111.135 9.60133 111.305 9.43892C111.474 9.27652 111.603 9.07599 111.692 8.83736L113.099 9.09091C112.987 9.50521 112.784 9.86813 112.493 10.1797C112.204 10.4879 111.841 10.7282 111.404 10.9006C110.97 11.0696 110.474 11.1541 109.917 11.1541Z" fill="black"/>
</svg>
