<svg width="111" height="14" viewBox="0 0 111 14" fill="none" xmlns="http://www.w3.org/2000/svg">
<path d="M4.21591 11.1541C3.4768 11.1541 2.84044 10.9867 2.30682 10.652C1.77652 10.3139 1.36884 9.84825 1.08381 9.25497C0.798769 8.66169 0.65625 7.98224 0.65625 7.21662C0.65625 6.44105 0.802083 5.75663 1.09375 5.16335C1.38542 4.56676 1.7964 4.10109 2.3267 3.76633C2.85701 3.43158 3.48177 3.2642 4.20099 3.2642C4.78101 3.2642 5.29806 3.37192 5.75213 3.58736C6.2062 3.79948 6.57244 4.09777 6.85085 4.48224C7.13258 4.86671 7.29995 5.31581 7.35298 5.82955H5.90625C5.8267 5.47159 5.64441 5.16335 5.35938 4.90483C5.07765 4.64631 4.69981 4.51705 4.22585 4.51705C3.81155 4.51705 3.44863 4.62642 3.13707 4.84517C2.82884 5.06061 2.58854 5.36884 2.41619 5.76989C2.24384 6.16761 2.15767 6.63826 2.15767 7.18182C2.15767 7.73864 2.24219 8.21922 2.41122 8.62358C2.58026 9.02794 2.81889 9.34115 3.12713 9.56321C3.43868 9.78527 3.80492 9.89631 4.22585 9.89631C4.50758 9.89631 4.76278 9.84493 4.99148 9.74219C5.22349 9.63613 5.41738 9.48532 5.57315 9.28977C5.73224 9.09422 5.84328 8.8589 5.90625 8.58381H7.35298C7.29995 9.07765 7.1392 9.51847 6.87074 9.90625C6.60227 10.294 6.24266 10.599 5.7919 10.821C5.34446 11.0431 4.81913 11.1541 4.21591 11.1541ZM12.1593 11.1541C11.4434 11.1541 10.8186 10.9901 10.285 10.6619C9.75136 10.3338 9.33706 9.87476 9.04208 9.2848C8.7471 8.69484 8.59961 8.00544 8.59961 7.21662C8.59961 6.42448 8.7471 5.73177 9.04208 5.13849C9.33706 4.54522 9.75136 4.08452 10.285 3.75639C10.8186 3.42827 11.4434 3.2642 12.1593 3.2642C12.8752 3.2642 13.4999 3.42827 14.0336 3.75639C14.5672 4.08452 14.9815 4.54522 15.2765 5.13849C15.5714 5.73177 15.7189 6.42448 15.7189 7.21662C15.7189 8.00544 15.5714 8.69484 15.2765 9.2848C14.9815 9.87476 14.5672 10.3338 14.0336 10.6619C13.4999 10.9901 12.8752 11.1541 12.1593 11.1541ZM12.1642 9.90625C12.6283 9.90625 13.0127 9.78362 13.3176 9.53835C13.6226 9.29309 13.848 8.96662 13.9938 8.55895C14.1429 8.15128 14.2175 7.70218 14.2175 7.21165C14.2175 6.72443 14.1429 6.27699 13.9938 5.86932C13.848 5.45833 13.6226 5.12855 13.3176 4.87997C13.0127 4.63139 12.6283 4.5071 12.1642 4.5071C11.6969 4.5071 11.3091 4.63139 11.0009 4.87997C10.696 5.12855 10.4689 5.45833 10.3198 5.86932C10.1739 6.27699 10.101 6.72443 10.101 7.21165C10.101 7.70218 10.1739 8.15128 10.3198 8.55895C10.4689 8.96662 10.696 9.29309 11.0009 9.53835C11.3091 9.78362 11.6969 9.90625 12.1642 9.90625ZM20.2369 11.1491C19.6204 11.1491 19.0702 10.9917 18.5863 10.6768C18.1057 10.3587 17.7279 9.90625 17.4528 9.3196C17.181 8.72964 17.0451 8.02202 17.0451 7.19673C17.0451 6.37145 17.1826 5.66548 17.4577 5.07884C17.7362 4.49219 18.1173 4.04309 18.6012 3.73153C19.0851 3.41998 19.6336 3.2642 20.2468 3.2642C20.7208 3.2642 21.1019 3.34375 21.3903 3.50284C21.6819 3.65862 21.9073 3.84091 22.0664 4.04972C22.2288 4.25852 22.3548 4.44247 22.4442 4.60156H22.5337V0.818182H24.0202V11H22.5685V9.81179H22.4442C22.3548 9.9742 22.2255 10.1598 22.0565 10.3686C21.8907 10.5774 21.6621 10.7597 21.3704 10.9155C21.0787 11.0713 20.7009 11.1491 20.2369 11.1491ZM20.565 9.88139C20.9925 9.88139 21.3538 9.7687 21.6488 9.54332C21.9471 9.31463 22.1725 8.99811 22.3249 8.59375C22.4807 8.18939 22.5586 7.71875 22.5586 7.18182C22.5586 6.65151 22.4824 6.1875 22.3299 5.78977C22.1774 5.39205 21.9537 5.08215 21.6587 4.86009C21.3638 4.63802 20.9992 4.52699 20.565 4.52699C20.1175 4.52699 19.7447 4.64299 19.4464 4.875C19.1481 5.10701 18.9227 5.42353 18.7702 5.82457C18.6211 6.22562 18.5465 6.67803 18.5465 7.18182C18.5465 7.69223 18.6228 8.15128 18.7752 8.55895C18.9277 8.96662 19.1531 9.28977 19.4513 9.52841C19.753 9.76373 20.1242 9.88139 20.565 9.88139ZM29.4331 11.1541C28.6807 11.1541 28.0327 10.9934 27.4892 10.6719C26.9489 10.3471 26.5313 9.89134 26.2363 9.30469C25.9447 8.71473 25.7988 8.02367 25.7988 7.23153C25.7988 6.44934 25.9447 5.75994 26.2363 5.16335C26.5313 4.56676 26.9423 4.10109 27.4693 3.76633C27.9996 3.43158 28.6194 3.2642 29.3287 3.2642C29.7595 3.2642 30.1771 3.33546 30.5815 3.47798C30.9859 3.6205 31.3488 3.84422 31.6703 4.14915C31.9918 4.45407 32.2453 4.85014 32.4309 5.33736C32.6165 5.82126 32.7093 6.40956 32.7093 7.10227V7.62926H26.639V6.51562H31.2527C31.2527 6.12453 31.1731 5.77817 31.014 5.47656C30.8549 5.17164 30.6312 4.93134 30.3429 4.75568C30.0578 4.58002 29.7231 4.49219 29.3386 4.49219C28.921 4.49219 28.5564 4.59493 28.2449 4.80043C27.9366 5.0026 27.698 5.26776 27.5289 5.59588C27.3632 5.92069 27.2804 6.27367 27.2804 6.65483V7.52486C27.2804 8.03527 27.3699 8.46946 27.5488 8.82741C27.7311 9.18537 27.9847 9.45881 28.3095 9.64773C28.6343 9.83333 29.0138 9.92614 29.448 9.92614C29.7297 9.92614 29.9866 9.88636 30.2186 9.80682C30.4506 9.72396 30.6511 9.60133 30.8201 9.43892C30.9892 9.27652 31.1184 9.07599 31.2079 8.83736L32.6149 9.09091C32.5022 9.50521 32.3 9.86813 32.0083 10.1797C31.72 10.4879 31.3571 10.7282 30.9196 10.9006C30.4854 11.0696 29.9899 11.1541 29.4331 11.1541ZM38.858 6.05327V7.34091H34.3438V6.05327H38.858ZM46.5614 5.22798L45.2141 5.46662C45.1578 5.29427 45.0683 5.13021 44.9457 4.97443C44.8263 4.81865 44.6639 4.69105 44.4585 4.59162C44.253 4.49219 43.9961 4.44247 43.6879 4.44247C43.2669 4.44247 42.9156 4.53693 42.6339 4.72585C42.3522 4.91146 42.2113 5.15175 42.2113 5.44673C42.2113 5.70194 42.3058 5.90743 42.4947 6.06321C42.6836 6.21899 42.9885 6.34659 43.4094 6.44602L44.6225 6.72443C45.3252 6.88684 45.8488 7.13707 46.1935 7.47514C46.5382 7.81321 46.7106 8.25237 46.7106 8.79261C46.7106 9.25 46.578 9.65767 46.3129 10.0156C46.051 10.3703 45.6848 10.6487 45.2141 10.8509C44.7468 11.053 44.2049 11.1541 43.5884 11.1541C42.7333 11.1541 42.0356 10.9718 41.4954 10.6072C40.9551 10.2393 40.6237 9.71733 40.5011 9.04119L41.9379 8.82244C42.0273 9.19697 42.2113 9.48035 42.4897 9.67259C42.7681 9.86151 43.131 9.95597 43.5785 9.95597C44.0657 9.95597 44.4551 9.85488 44.7468 9.6527C45.0385 9.44721 45.1843 9.19697 45.1843 8.90199C45.1843 8.66335 45.0948 8.46283 44.9158 8.30043C44.7402 8.13802 44.4701 8.01539 44.1055 7.93253L42.8129 7.64915C42.1003 7.48674 41.5733 7.22822 41.2319 6.87358C40.8938 6.51894 40.7248 6.06984 40.7248 5.52628C40.7248 5.07552 40.8507 4.68111 41.1026 4.34304C41.3545 4.00497 41.7025 3.74148 42.1467 3.55256C42.5908 3.36032 43.0996 3.2642 43.6729 3.2642C44.4982 3.2642 45.1478 3.44318 45.6218 3.80114C46.0958 4.15578 46.409 4.63139 46.5614 5.22798ZM49.8315 6.46591V11H48.345V3.36364H49.7718V4.60653H49.8663C50.042 4.20218 50.3171 3.87737 50.6916 3.6321C51.0694 3.38684 51.545 3.2642 52.1184 3.2642C52.6388 3.2642 53.0945 3.37358 53.4856 3.59233C53.8767 3.80777 54.18 4.12926 54.3954 4.55682C54.6109 4.98437 54.7186 5.51302 54.7186 6.14276V11H53.2321V6.32173C53.2321 5.76823 53.0879 5.3357 52.7995 5.02415C52.5112 4.70928 52.1151 4.55185 51.6113 4.55185C51.2666 4.55185 50.96 4.62642 50.6916 4.77557C50.4264 4.92472 50.216 5.14347 50.0602 5.43182C49.9077 5.71686 49.8315 6.06155 49.8315 6.46591ZM56.7122 11V3.36364H58.1987V11H56.7122ZM57.4629 2.18537C57.2044 2.18537 56.9823 2.09919 56.7967 1.92685C56.6144 1.75118 56.5233 1.54238 56.5233 1.30043C56.5233 1.05516 56.6144 0.846354 56.7967 0.674005C56.9823 0.498342 57.2044 0.410511 57.4629 0.410511C57.7214 0.410511 57.9418 0.498342 58.1241 0.674005C58.3097 0.846354 58.4025 1.05516 58.4025 1.30043C58.4025 1.54238 58.3097 1.75118 58.1241 1.92685C57.9418 2.09919 57.7214 2.18537 57.4629 2.18537ZM60.1985 13.8636V3.36364H61.6502V4.60156H61.7745C61.8607 4.44247 61.985 4.25852 62.1474 4.04972C62.3098 3.84091 62.5352 3.65862 62.8235 3.50284C63.1119 3.34375 63.493 3.2642 63.967 3.2642C64.5835 3.2642 65.1336 3.41998 65.6175 3.73153C66.1014 4.04309 66.4809 4.49219 66.756 5.07884C67.0344 5.66548 67.1737 6.37145 67.1737 7.19673C67.1737 8.02202 67.0361 8.72964 66.761 9.3196C66.4859 9.90625 66.1081 10.3587 65.6275 10.6768C65.1469 10.9917 64.5984 11.1491 63.9819 11.1491C63.5179 11.1491 63.1384 11.0713 62.8434 10.9155C62.5517 10.7597 62.323 10.5774 62.1573 10.3686C61.9916 10.1598 61.864 9.9742 61.7745 9.81179H61.685V13.8636H60.1985ZM61.6552 7.18182C61.6552 7.71875 61.7331 8.18939 61.8888 8.59375C62.0446 8.99811 62.27 9.31463 62.565 9.54332C62.86 9.7687 63.2212 9.88139 63.6488 9.88139C64.0929 9.88139 64.4641 9.76373 64.7624 9.52841C65.0607 9.28977 65.2861 8.96662 65.4386 8.55895C65.5943 8.15128 65.6722 7.69223 65.6722 7.18182C65.6722 6.67803 65.596 6.22562 65.4435 5.82457C65.2944 5.42353 65.069 5.10701 64.7674 4.875C64.4691 4.64299 64.0962 4.52699 63.6488 4.52699C63.2179 4.52699 62.8533 4.63802 62.555 4.86009C62.2601 5.08215 62.0363 5.39205 61.8839 5.78977C61.7314 6.1875 61.6552 6.65151 61.6552 7.18182ZM68.8391 13.8636V3.36364H70.2908V4.60156H70.4151C70.5013 4.44247 70.6256 4.25852 70.788 4.04972C70.9504 3.84091 71.1758 3.65862 71.4641 3.50284C71.7525 3.34375 72.1336 3.2642 72.6076 3.2642C73.2241 3.2642 73.7743 3.41998 74.2582 3.73153C74.7421 4.04309 75.1216 4.49219 75.3967 5.07884C75.6751 5.66548 75.8143 6.37145 75.8143 7.19673C75.8143 8.02202 75.6767 8.72964 75.4016 9.3196C75.1265 9.90625 74.7487 10.3587 74.2681 10.6768C73.7875 10.9917 73.239 11.1491 72.6225 11.1491C72.1585 11.1491 71.779 11.0713 71.484 10.9155C71.1924 10.7597 70.9637 10.5774 70.7979 10.3686C70.6322 10.1598 70.5046 9.9742 70.4151 9.81179H70.3256V13.8636H68.8391ZM70.2958 7.18182C70.2958 7.71875 70.3737 8.18939 70.5295 8.59375C70.6853 8.99811 70.9106 9.31463 71.2056 9.54332C71.5006 9.7687 71.8619 9.88139 72.2894 9.88139C72.7335 9.88139 73.1048 9.76373 73.4031 9.52841C73.7013 9.28977 73.9267 8.96662 74.0792 8.55895C74.235 8.15128 74.3129 7.69223 74.3129 7.18182C74.3129 6.67803 74.2366 6.22562 74.0842 5.82457C73.935 5.42353 73.7096 5.10701 73.408 4.875C73.1097 4.64299 72.7369 4.52699 72.2894 4.52699C71.8585 4.52699 71.494 4.63802 71.1957 4.86009C70.9007 5.08215 70.677 5.39205 70.5245 5.78977C70.372 6.1875 70.2958 6.65151 70.2958 7.18182ZM80.771 11.1541C80.0186 11.1541 79.3706 10.9934 78.8271 10.6719C78.2868 10.3471 77.8692 9.89134 77.5742 9.30469C77.2826 8.71473 77.1367 8.02367 77.1367 7.23153C77.1367 6.44934 77.2826 5.75994 77.5742 5.16335C77.8692 4.56676 78.2802 4.10109 78.8072 3.76633C79.3375 3.43158 79.9573 3.2642 80.6665 3.2642C81.0974 3.2642 81.515 3.33546 81.9194 3.47798C82.3237 3.6205 82.6867 3.84422 83.0082 4.14915C83.3297 4.45407 83.5832 4.85014 83.7688 5.33736C83.9544 5.82126 84.0472 6.40956 84.0472 7.10227V7.62926H77.9769V6.51562H82.5906C82.5906 6.12453 82.511 5.77817 82.3519 5.47656C82.1928 5.17164 81.9691 4.93134 81.6808 4.75568C81.3957 4.58002 81.061 4.49219 80.6765 4.49219C80.2589 4.49219 79.8943 4.59493 79.5827 4.80043C79.2745 5.0026 79.0359 5.26776 78.8668 5.59588C78.7011 5.92069 78.6183 6.27367 78.6183 6.65483V7.52486C78.6183 8.03527 78.7077 8.46946 78.8867 8.82741C79.069 9.18537 79.3226 9.45881 79.6474 9.64773C79.9722 9.83333 80.3517 9.92614 80.7859 9.92614C81.0676 9.92614 81.3245 9.88636 81.5565 9.80682C81.7885 9.72396 81.989 9.60133 82.158 9.43892C82.3271 9.27652 82.4563 9.07599 82.5458 8.83736L83.9528 9.09091C83.8401 9.50521 83.6379 9.86813 83.3462 10.1797C83.0579 10.4879 82.695 10.7282 82.2575 10.9006C81.8233 11.0696 81.3278 11.1541 80.771 11.1541ZM89.2612 3.36364V4.55682H85.09V3.36364H89.2612ZM86.2086 1.53409H87.6951V8.75781C87.6951 9.04616 87.7382 9.26326 87.8244 9.40909C87.9106 9.55161 88.0216 9.64938 88.1575 9.70241C88.2967 9.75213 88.4475 9.77699 88.6099 9.77699C88.7292 9.77699 88.8336 9.7687 88.9231 9.75213C89.0126 9.73556 89.0822 9.7223 89.1319 9.71236L89.4004 10.9403C89.3142 10.9735 89.1916 11.0066 89.0325 11.0398C88.8734 11.0762 88.6745 11.0961 88.4359 11.0994C88.0448 11.1061 87.6802 11.0365 87.3422 10.8906C87.0041 10.7448 86.7306 10.5194 86.5218 10.2145C86.313 9.90956 86.2086 9.52675 86.2086 9.06605V1.53409ZM95.1451 6.05327V7.34091H90.6309V6.05327H95.1451ZM100.651 11.169C99.8656 11.1657 99.1944 10.9586 98.6376 10.5476C98.0808 10.1366 97.6549 9.53835 97.3599 8.75284C97.0649 7.96733 96.9174 7.02107 96.9174 5.91406C96.9174 4.81037 97.0649 3.86742 97.3599 3.08523C97.6582 2.30303 98.0858 1.70644 98.6426 1.29545C99.2027 0.884469 99.8722 0.678977 100.651 0.678977C101.43 0.678977 102.098 0.886126 102.655 1.30043C103.211 1.71141 103.637 2.308 103.932 3.0902C104.231 3.86908 104.38 4.81037 104.38 5.91406C104.38 7.02438 104.232 7.9723 103.937 8.75781C103.642 9.54001 103.216 10.1383 102.66 10.5526C102.103 10.9635 101.433 11.169 100.651 11.169ZM100.651 9.84162C101.34 9.84162 101.879 9.50521 102.267 8.83239C102.658 8.15956 102.854 7.18679 102.854 5.91406C102.854 5.06889 102.764 4.35464 102.585 3.77131C102.409 3.18466 102.156 2.74053 101.824 2.43892C101.496 2.134 101.105 1.98153 100.651 1.98153C99.965 1.98153 99.4264 2.3196 99.0353 2.99574C98.6442 3.67187 98.447 4.64465 98.4437 5.91406C98.4437 6.76255 98.5315 7.48011 98.7072 8.06676C98.8862 8.65009 99.1397 9.09257 99.4679 9.39418C99.796 9.69247 100.19 9.84162 100.651 9.84162ZM110.006 0.818182V11H108.465V2.35938H108.406L105.969 3.95028V2.47869L108.51 0.818182H110.006Z" fill="black"/>
</svg>
