<svg width="105" height="15" viewBox="0 0 105 15" fill="none" xmlns="http://www.w3.org/2000/svg">
<path d="M1.4858 6.46591V11H-0.000710189V0.818182H1.46591V4.60653H1.56037C1.73935 4.19555 2.01278 3.86908 2.38068 3.62713C2.74858 3.38518 3.22917 3.2642 3.82244 3.2642C4.34612 3.2642 4.8035 3.37192 5.1946 3.58736C5.58902 3.80279 5.89394 4.12429 6.10938 4.55185C6.32812 4.97609 6.4375 5.50639 6.4375 6.14276V11H4.95099V6.32173C4.95099 5.7616 4.80682 5.32741 4.51847 5.01918C4.23011 4.70762 3.82907 4.55185 3.31534 4.55185C2.96402 4.55185 2.64915 4.62642 2.37074 4.77557C2.09564 4.92472 1.87855 5.14347 1.71946 5.43182C1.56368 5.71686 1.4858 6.06155 1.4858 6.46591ZM11.7124 11.1541C10.96 11.1541 10.312 10.9934 9.76847 10.6719C9.22822 10.3471 8.81061 9.89134 8.51562 9.30469C8.22396 8.71473 8.07812 8.02367 8.07812 7.23153C8.07812 6.44934 8.22396 5.75994 8.51562 5.16335C8.81061 4.56676 9.22159 4.10109 9.74858 3.76633C10.2789 3.43158 10.8987 3.2642 11.608 3.2642C12.0388 3.2642 12.4564 3.33546 12.8608 3.47798C13.2652 3.6205 13.6281 3.84422 13.9496 4.14915C14.2711 4.45407 14.5246 4.85014 14.7102 5.33736C14.8958 5.82126 14.9886 6.40956 14.9886 7.10227V7.62926H8.91832V6.51562H13.532C13.532 6.12453 13.4524 5.77817 13.2933 5.47656C13.1342 5.17164 12.9105 4.93134 12.6222 4.75568C12.3371 4.58002 12.0024 4.49219 11.6179 4.49219C11.2003 4.49219 10.8357 4.59493 10.5241 4.80043C10.2159 5.0026 9.97727 5.26776 9.80824 5.59588C9.64252 5.92069 9.55966 6.27367 9.55966 6.65483V7.52486C9.55966 8.03527 9.64915 8.46946 9.82812 8.82741C10.0104 9.18537 10.264 9.45881 10.5888 9.64773C10.9136 9.83333 11.2931 9.92614 11.7273 9.92614C12.009 9.92614 12.2659 9.88636 12.4979 9.80682C12.7299 9.72396 12.9304 9.60133 13.0994 9.43892C13.2685 9.27652 13.3977 9.07599 13.4872 8.83736L14.8942 9.09091C14.7815 9.50521 14.5793 9.86813 14.2876 10.1797C13.9993 10.4879 13.6364 10.7282 13.1989 10.9006C12.7647 11.0696 12.2692 11.1541 11.7124 11.1541ZM18.8603 11.169C18.3764 11.169 17.9389 11.0795 17.5478 10.9006C17.1567 10.7183 16.8468 10.4548 16.6181 10.1101C16.3927 9.76539 16.28 9.3428 16.28 8.84233C16.28 8.41146 16.3629 8.05682 16.5286 7.77841C16.6943 7.5 16.918 7.27959 17.1998 7.11719C17.4815 6.95478 17.7963 6.83215 18.1444 6.74929C18.4924 6.66643 18.847 6.60346 19.2083 6.56037C19.6657 6.50734 20.0369 6.46425 20.3219 6.43111C20.6069 6.39465 20.8141 6.33665 20.9434 6.2571C21.0726 6.17756 21.1373 6.0483 21.1373 5.86932V5.83452C21.1373 5.40033 21.0146 5.06392 20.7694 4.82528C20.5274 4.58665 20.1661 4.46733 19.6855 4.46733C19.1851 4.46733 18.7907 4.57836 18.5023 4.80043C18.2173 5.01918 18.0201 5.26278 17.9107 5.53125L16.5137 5.21307C16.6794 4.74905 16.9213 4.37453 17.2395 4.08949C17.561 3.80114 17.9306 3.59233 18.3482 3.46307C18.7658 3.33049 19.205 3.2642 19.6657 3.2642C19.9706 3.2642 20.2937 3.30066 20.6351 3.37358C20.9798 3.44318 21.3013 3.57244 21.5996 3.76136C21.9012 3.95028 22.1481 4.22041 22.3404 4.57173C22.5326 4.91974 22.6287 5.37216 22.6287 5.92898V11H21.177V9.95597H21.1174C21.0212 10.1482 20.8771 10.3371 20.6848 10.5227C20.4926 10.7083 20.2457 10.8625 19.9441 10.9851C19.6425 11.1077 19.2812 11.169 18.8603 11.169ZM19.1834 9.97585C19.5944 9.97585 19.9457 9.89465 20.2374 9.73224C20.5324 9.56984 20.7561 9.35772 20.9086 9.09588C21.0643 8.83073 21.1422 8.54735 21.1422 8.24574V7.26136C21.0892 7.31439 20.9864 7.36411 20.834 7.41051C20.6848 7.4536 20.5141 7.49171 20.3219 7.52486C20.1297 7.55469 19.9424 7.58286 19.7601 7.60938C19.5778 7.63258 19.4254 7.65246 19.3027 7.66903C19.0144 7.70549 18.7509 7.76681 18.5123 7.85298C18.2769 7.93916 18.088 8.06345 17.9455 8.22585C17.8063 8.38494 17.7367 8.59706 17.7367 8.86222C17.7367 9.23011 17.8726 9.50852 18.1444 9.69744C18.4161 9.88305 18.7625 9.97585 19.1834 9.97585ZM27.4673 11.1491C26.8509 11.1491 26.3007 10.9917 25.8168 10.6768C25.3362 10.3587 24.9583 9.90625 24.6832 9.3196C24.4115 8.72964 24.2756 8.02202 24.2756 7.19673C24.2756 6.37145 24.4131 5.66548 24.6882 5.07884C24.9666 4.49219 25.3478 4.04309 25.8317 3.73153C26.3156 3.41998 26.8641 3.2642 27.4773 3.2642C27.9512 3.2642 28.3324 3.34375 28.6207 3.50284C28.9124 3.65862 29.1378 3.84091 29.2969 4.04972C29.4593 4.25852 29.5852 4.44247 29.6747 4.60156H29.7642V0.818182H31.2507V11H29.799V9.81179H29.6747C29.5852 9.9742 29.456 10.1598 29.2869 10.3686C29.1212 10.5774 28.8925 10.7597 28.6009 10.9155C28.3092 11.0713 27.9313 11.1491 27.4673 11.1491ZM27.7955 9.88139C28.223 9.88139 28.5843 9.7687 28.8793 9.54332C29.1776 9.31463 29.4029 8.99811 29.5554 8.59375C29.7112 8.18939 29.7891 7.71875 29.7891 7.18182C29.7891 6.65151 29.7128 6.1875 29.5604 5.78977C29.4079 5.39205 29.1842 5.08215 28.8892 4.86009C28.5942 4.63802 28.2296 4.52699 27.7955 4.52699C27.348 4.52699 26.9751 4.64299 26.6768 4.875C26.3786 5.10701 26.1532 5.42353 26.0007 5.82457C25.8516 6.22562 25.777 6.67803 25.777 7.18182C25.777 7.69223 25.8532 8.15128 26.0057 8.55895C26.1581 8.96662 26.3835 9.28977 26.6818 9.52841C26.9834 9.76373 27.3546 9.88139 27.7955 9.88139ZM33.3723 11V3.36364H34.8588V11H33.3723ZM34.123 2.18537C33.8645 2.18537 33.6425 2.09919 33.4569 1.92685C33.2746 1.75118 33.1834 1.54238 33.1834 1.30043C33.1834 1.05516 33.2746 0.846354 33.4569 0.674005C33.6425 0.498342 33.8645 0.410511 34.123 0.410511C34.3816 0.410511 34.602 0.498342 34.7843 0.674005C34.9699 0.846354 35.0627 1.05516 35.0627 1.30043C35.0627 1.54238 34.9699 1.75118 34.7843 1.92685C34.602 2.09919 34.3816 2.18537 34.123 2.18537ZM38.3452 6.46591V11H36.8587V3.36364H38.2855V4.60653H38.38C38.5556 4.20218 38.8307 3.87737 39.2053 3.6321C39.5831 3.38684 40.0587 3.2642 40.6321 3.2642C41.1525 3.2642 41.6082 3.37358 41.9993 3.59233C42.3904 3.80777 42.6937 4.12926 42.9091 4.55682C43.1245 4.98437 43.2322 5.51302 43.2322 6.14276V11H41.7457V6.32173C41.7457 5.76823 41.6016 5.3357 41.3132 5.02415C41.0249 4.70928 40.6288 4.55185 40.125 4.55185C39.7803 4.55185 39.4737 4.62642 39.2053 4.77557C38.9401 4.92472 38.7296 5.14347 38.5739 5.43182C38.4214 5.71686 38.3452 6.06155 38.3452 6.46591ZM48.4276 14.0227C47.821 14.0227 47.299 13.9432 46.8615 13.7841C46.4273 13.625 46.0727 13.4145 45.7976 13.1527C45.5225 12.8909 45.317 12.6042 45.1811 12.2926L46.4588 11.7656C46.5483 11.9115 46.6676 12.0656 46.8168 12.228C46.9692 12.3937 47.1747 12.5346 47.4332 12.6506C47.6951 12.7666 48.0315 12.8246 48.4425 12.8246C49.0059 12.8246 49.4716 12.687 49.8395 12.4119C50.2074 12.1402 50.3913 11.706 50.3913 11.1094V9.60795H50.2969C50.2074 9.77036 50.0781 9.95099 49.9091 10.1499C49.7434 10.3487 49.5147 10.5211 49.223 10.6669C48.9313 10.8127 48.5518 10.8857 48.0845 10.8857C47.4813 10.8857 46.9377 10.7448 46.4538 10.4631C45.9732 10.178 45.5921 9.75876 45.3104 9.20526C45.032 8.64844 44.8928 7.96401 44.8928 7.15199C44.8928 6.33996 45.0303 5.64394 45.3054 5.06392C45.5838 4.4839 45.965 4.03977 46.4489 3.73153C46.9328 3.41998 47.4813 3.2642 48.0945 3.2642C48.5684 3.2642 48.9512 3.34375 49.2429 3.50284C49.5346 3.65862 49.7616 3.84091 49.924 4.04972C50.0897 4.25852 50.2173 4.44247 50.3068 4.60156H50.4162V3.36364H51.8729V11.169C51.8729 11.8253 51.7204 12.3639 51.4155 12.7848C51.1106 13.2057 50.6979 13.5173 50.1776 13.7195C49.6605 13.9216 49.0772 14.0227 48.4276 14.0227ZM48.4126 9.6527C48.8402 9.6527 49.2015 9.55327 49.4964 9.3544C49.7947 9.15223 50.0201 8.86387 50.1726 8.48935C50.3284 8.11151 50.4062 7.65909 50.4062 7.1321C50.4062 6.61837 50.33 6.16596 50.1776 5.77486C50.0251 5.38376 49.8014 5.07884 49.5064 4.86009C49.2114 4.63802 48.8468 4.52699 48.4126 4.52699C47.9652 4.52699 47.5923 4.64299 47.294 4.875C46.9957 5.10369 46.7704 5.41525 46.6179 5.80966C46.4688 6.20407 46.3942 6.64489 46.3942 7.1321C46.3942 7.63258 46.4704 8.07173 46.6229 8.44957C46.7753 8.82741 47.0007 9.1224 47.299 9.33452C47.6006 9.54664 47.9718 9.6527 48.4126 9.6527ZM58.3658 6.05327V7.34091H53.8516V6.05327H58.3658ZM66.0692 5.22798L64.7219 5.46662C64.6656 5.29427 64.5761 5.13021 64.4535 4.97443C64.3342 4.81865 64.1718 4.69105 63.9663 4.59162C63.7608 4.49219 63.5039 4.44247 63.1957 4.44247C62.7747 4.44247 62.4234 4.53693 62.1417 4.72585C61.86 4.91146 61.7191 5.15175 61.7191 5.44673C61.7191 5.70194 61.8136 5.90743 62.0025 6.06321C62.1914 6.21899 62.4963 6.34659 62.9173 6.44602L64.1303 6.72443C64.833 6.88684 65.3567 7.13707 65.7013 7.47514C66.046 7.81321 66.2184 8.25237 66.2184 8.79261C66.2184 9.25 66.0858 9.65767 65.8207 10.0156C65.5588 10.3703 65.1926 10.6487 64.7219 10.8509C64.2546 11.053 63.7127 11.1541 63.0962 11.1541C62.2411 11.1541 61.5434 10.9718 61.0032 10.6072C60.4629 10.2393 60.1315 9.71733 60.0089 9.04119L61.4457 8.82244C61.5352 9.19697 61.7191 9.48035 61.9975 9.67259C62.2759 9.86151 62.6388 9.95597 63.0863 9.95597C63.5735 9.95597 63.9629 9.85488 64.2546 9.6527C64.5463 9.44721 64.6921 9.19697 64.6921 8.90199C64.6921 8.66335 64.6026 8.46283 64.4237 8.30043C64.248 8.13802 63.9779 8.01539 63.6133 7.93253L62.3207 7.64915C61.6081 7.48674 61.0811 7.22822 60.7397 6.87358C60.4016 6.51894 60.2326 6.06984 60.2326 5.52628C60.2326 5.07552 60.3585 4.68111 60.6104 4.34304C60.8623 4.00497 61.2103 3.74148 61.6545 3.55256C62.0986 3.36032 62.6074 3.2642 63.1808 3.2642C64.006 3.2642 64.6557 3.44318 65.1296 3.80114C65.6036 4.15578 65.9168 4.63139 66.0692 5.22798ZM73.0083 13.8636V9.81179H72.9189C72.8294 9.9742 72.7001 10.1598 72.5311 10.3686C72.3654 10.5774 72.1367 10.7597 71.845 10.9155C71.5533 11.0713 71.1755 11.1491 70.7115 11.1491C70.095 11.1491 69.5448 10.9917 69.0609 10.6768C68.5803 10.3587 68.2025 9.90625 67.9274 9.3196C67.6556 8.72964 67.5197 8.02202 67.5197 7.19673C67.5197 6.37145 67.6573 5.66548 67.9324 5.07884C68.2108 4.49219 68.5919 4.04309 69.0758 3.73153C69.5597 3.41998 70.1083 3.2642 70.7214 3.2642C71.1954 3.2642 71.5765 3.34375 71.8649 3.50284C72.1565 3.65862 72.3819 3.84091 72.541 4.04972C72.7034 4.25852 72.8294 4.44247 72.9189 4.60156H73.0431V3.36364H74.4949V13.8636H73.0083ZM71.0396 9.88139C71.4672 9.88139 71.8284 9.7687 72.1234 9.54332C72.4217 9.31463 72.6471 8.99811 72.7995 8.59375C72.9553 8.18939 73.0332 7.71875 73.0332 7.18182C73.0332 6.65151 72.957 6.1875 72.8045 5.78977C72.652 5.39205 72.4283 5.08215 72.1333 4.86009C71.8384 4.63802 71.4738 4.52699 71.0396 4.52699C70.5922 4.52699 70.2193 4.64299 69.921 4.875C69.6227 5.10701 69.3973 5.42353 69.2449 5.82457C69.0957 6.22562 69.0211 6.67803 69.0211 7.18182C69.0211 7.69223 69.0974 8.15128 69.2498 8.55895C69.4023 8.96662 69.6277 9.28977 69.926 9.52841C70.2276 9.76373 70.5988 9.88139 71.0396 9.88139ZM81.3308 7.8331V3.36364H82.8223V11H81.3606V9.67756H81.2811C81.1054 10.0852 80.8237 10.425 80.4359 10.6967C80.0514 10.9652 79.5725 11.0994 78.9991 11.0994C78.5086 11.0994 78.0744 10.9917 77.6966 10.7763C77.322 10.5575 77.027 10.2344 76.8116 9.80682C76.5995 9.37926 76.4934 8.85062 76.4934 8.22088V3.36364H77.9799V8.0419C77.9799 8.56226 78.1241 8.97656 78.4125 9.2848C78.7008 9.59304 79.0753 9.74716 79.536 9.74716C79.8145 9.74716 80.0912 9.67756 80.3663 9.53835C80.6447 9.39915 80.8751 9.18868 81.0574 8.90696C81.243 8.62524 81.3341 8.26728 81.3308 7.8331ZM87.0419 11.169C86.558 11.169 86.1205 11.0795 85.7294 10.9006C85.3383 10.7183 85.0284 10.4548 84.7997 10.1101C84.5743 9.76539 84.4616 9.3428 84.4616 8.84233C84.4616 8.41146 84.5445 8.05682 84.7102 7.77841C84.8759 7.5 85.0997 7.27959 85.3814 7.11719C85.6631 6.95478 85.978 6.83215 86.326 6.74929C86.674 6.66643 87.0286 6.60346 87.3899 6.56037C87.8473 6.50734 88.2185 6.46425 88.5036 6.43111C88.7886 6.39465 88.9957 6.33665 89.125 6.2571C89.2543 6.17756 89.3189 6.0483 89.3189 5.86932V5.83452C89.3189 5.40033 89.1963 5.06392 88.951 4.82528C88.709 4.58665 88.3478 4.46733 87.8672 4.46733C87.3667 4.46733 86.9723 4.57836 86.6839 4.80043C86.3989 5.01918 86.2017 5.26278 86.0923 5.53125L84.6953 5.21307C84.861 4.74905 85.103 4.37453 85.4212 4.08949C85.7427 3.80114 86.1122 3.59233 86.5298 3.46307C86.9474 3.33049 87.3866 3.2642 87.8473 3.2642C88.1522 3.2642 88.4754 3.30066 88.8168 3.37358C89.1615 3.44318 89.483 3.57244 89.7812 3.76136C90.0829 3.95028 90.3298 4.22041 90.522 4.57173C90.7143 4.91974 90.8104 5.37216 90.8104 5.92898V11H89.3587V9.95597H89.299C89.2029 10.1482 89.0587 10.3371 88.8665 10.5227C88.6742 10.7083 88.4273 10.8625 88.1257 10.9851C87.8241 11.1077 87.4628 11.169 87.0419 11.169ZM87.3651 9.97585C87.776 9.97585 88.1274 9.89465 88.419 9.73224C88.714 9.56984 88.9377 9.35772 89.0902 9.09588C89.246 8.83073 89.3239 8.54735 89.3239 8.24574V7.26136C89.2708 7.31439 89.1681 7.36411 89.0156 7.41051C88.8665 7.4536 88.6958 7.49171 88.5036 7.52486C88.3113 7.55469 88.1241 7.58286 87.9418 7.60938C87.7595 7.63258 87.607 7.65246 87.4844 7.66903C87.196 7.70549 86.9325 7.76681 86.6939 7.85298C86.4586 7.93916 86.2696 8.06345 86.1271 8.22585C85.9879 8.38494 85.9183 8.59706 85.9183 8.86222C85.9183 9.23011 86.0542 9.50852 86.326 9.69744C86.5978 9.88305 86.9441 9.97585 87.3651 9.97585ZM92.7903 11V3.36364H94.2271V4.5767H94.3066C94.4458 4.16572 94.6911 3.84257 95.0424 3.60724C95.3971 3.36861 95.7981 3.24929 96.2456 3.24929C96.3384 3.24929 96.4477 3.2526 96.5737 3.25923C96.7029 3.26586 96.804 3.27415 96.877 3.28409V4.70597C96.8173 4.68939 96.7112 4.67116 96.5588 4.65128C96.4063 4.62808 96.2538 4.61648 96.1014 4.61648C95.7501 4.61648 95.4368 4.69105 95.1618 4.8402C94.89 4.98603 94.6745 5.18987 94.5154 5.4517C94.3564 5.71023 94.2768 6.00521 94.2768 6.33665V11H92.7903ZM101.181 11.1541C100.429 11.1541 99.7808 10.9934 99.2372 10.6719C98.697 10.3471 98.2794 9.89134 97.9844 9.30469C97.6927 8.71473 97.5469 8.02367 97.5469 7.23153C97.5469 6.44934 97.6927 5.75994 97.9844 5.16335C98.2794 4.56676 98.6903 4.10109 99.2173 3.76633C99.7476 3.43158 100.367 3.2642 101.077 3.2642C101.508 3.2642 101.925 3.33546 102.33 3.47798C102.734 3.6205 103.097 3.84422 103.418 4.14915C103.74 4.45407 103.993 4.85014 104.179 5.33736C104.365 5.82126 104.457 6.40956 104.457 7.10227V7.62926H98.3871V6.51562H103.001C103.001 6.12453 102.921 5.77817 102.762 5.47656C102.603 5.17164 102.379 4.93134 102.091 4.75568C101.806 4.58002 101.471 4.49219 101.087 4.49219C100.669 4.49219 100.304 4.59493 99.9929 4.80043C99.6847 5.0026 99.446 5.26776 99.277 5.59588C99.1113 5.92069 99.0284 6.27367 99.0284 6.65483V7.52486C99.0284 8.03527 99.1179 8.46946 99.2969 8.82741C99.4792 9.18537 99.7327 9.45881 100.058 9.64773C100.382 9.83333 100.762 9.92614 101.196 9.92614C101.478 9.92614 101.735 9.88636 101.967 9.80682C102.199 9.72396 102.399 9.60133 102.568 9.43892C102.737 9.27652 102.866 9.07599 102.956 8.83736L104.363 9.09091C104.25 9.50521 104.048 9.86813 103.756 10.1797C103.468 10.4879 103.105 10.7282 102.668 10.9006C102.233 11.0696 101.738 11.1541 101.181 11.1541Z" fill="black"/>
</svg>
