<svg width="52" height="12" viewBox="0 0 52 12" fill="none" xmlns="http://www.w3.org/2000/svg">
<path d="M0.118608 11V0.818182H1.60511V4.60156H1.6946C1.78078 4.44247 1.90507 4.25852 2.06747 4.04972C2.22988 3.84091 2.45526 3.65862 2.74361 3.50284C3.03196 3.34375 3.41312 3.2642 3.88707 3.2642C4.50355 3.2642 5.05374 3.41998 5.53764 3.73153C6.02154 4.04309 6.40104 4.49219 6.67614 5.07884C6.95455 5.66548 7.09375 6.37145 7.09375 7.19673C7.09375 8.02202 6.9562 8.72964 6.68111 9.3196C6.40601 9.90625 6.02817 10.3587 5.54759 10.6768C5.067 10.9917 4.51847 11.1491 3.90199 11.1491C3.43797 11.1491 3.05848 11.0713 2.76349 10.9155C2.47183 10.7597 2.24313 10.5774 2.07741 10.3686C1.9117 10.1598 1.78409 9.9742 1.6946 9.81179H1.57031V11H0.118608ZM1.57528 7.18182C1.57528 7.71875 1.65317 8.18939 1.80895 8.59375C1.96473 8.99811 2.1901 9.31463 2.48509 9.54332C2.78007 9.7687 3.14134 9.88139 3.56889 9.88139C4.01302 9.88139 4.38423 9.76373 4.68253 9.52841C4.98082 9.28977 5.2062 8.96662 5.35866 8.55895C5.51444 8.15128 5.59233 7.69223 5.59233 7.18182C5.59233 6.67803 5.5161 6.22562 5.36364 5.82457C5.21449 5.42353 4.98911 5.10701 4.6875 4.875C4.3892 4.64299 4.01634 4.52699 3.56889 4.52699C3.13802 4.52699 2.77344 4.63802 2.47514 4.86009C2.18016 5.08215 1.95644 5.39205 1.80398 5.78977C1.65152 6.1875 1.57528 6.65151 1.57528 7.18182ZM11.9796 11.1541C11.2637 11.1541 10.6389 10.9901 10.1053 10.6619C9.57167 10.3338 9.15737 9.87476 8.86239 9.2848C8.56741 8.69484 8.41992 8.00544 8.41992 7.21662C8.41992 6.42448 8.56741 5.73177 8.86239 5.13849C9.15737 4.54522 9.57167 4.08452 10.1053 3.75639C10.6389 3.42827 11.2637 3.2642 11.9796 3.2642C12.6955 3.2642 13.3203 3.42827 13.8539 3.75639C14.3875 4.08452 14.8018 4.54522 15.0968 5.13849C15.3917 5.73177 15.5392 6.42448 15.5392 7.21662C15.5392 8.00544 15.3917 8.69484 15.0968 9.2848C14.8018 9.87476 14.3875 10.3338 13.8539 10.6619C13.3203 10.9901 12.6955 11.1541 11.9796 11.1541ZM11.9846 9.90625C12.4486 9.90625 12.833 9.78362 13.138 9.53835C13.4429 9.29309 13.6683 8.96662 13.8141 8.55895C13.9632 8.15128 14.0378 7.70218 14.0378 7.21165C14.0378 6.72443 13.9632 6.27699 13.8141 5.86932C13.6683 5.45833 13.4429 5.12855 13.138 4.87997C12.833 4.63139 12.4486 4.5071 11.9846 4.5071C11.5172 4.5071 11.1294 4.63139 10.8212 4.87997C10.5163 5.12855 10.2892 5.45833 10.1401 5.86932C9.99426 6.27699 9.92134 6.72443 9.92134 7.21165C9.92134 7.70218 9.99426 8.15128 10.1401 8.55895C10.2892 8.96662 10.5163 9.29309 10.8212 9.53835C11.1294 9.78362 11.5172 9.90625 11.9846 9.90625ZM18.685 0.818182V11H17.1985V0.818182H18.685ZM23.5435 11.1491C22.927 11.1491 22.3768 10.9917 21.8929 10.6768C21.4123 10.3587 21.0345 9.90625 20.7594 9.3196C20.4876 8.72964 20.3517 8.02202 20.3517 7.19673C20.3517 6.37145 20.4893 5.66548 20.7644 5.07884C21.0428 4.49219 21.4239 4.04309 21.9078 3.73153C22.3917 3.41998 22.9403 3.2642 23.5534 3.2642C24.0274 3.2642 24.4086 3.34375 24.6969 3.50284C24.9886 3.65862 25.214 3.84091 25.373 4.04972C25.5355 4.25852 25.6614 4.44247 25.7509 4.60156H25.8404V0.818182H27.3269V11H25.8752V9.81179H25.7509C25.6614 9.9742 25.5321 10.1598 25.3631 10.3686C25.1974 10.5774 24.9687 10.7597 24.677 10.9155C24.3854 11.0713 24.0075 11.1491 23.5435 11.1491ZM23.8716 9.88139C24.2992 9.88139 24.6605 9.7687 24.9554 9.54332C25.2537 9.31463 25.4791 8.99811 25.6316 8.59375C25.7873 8.18939 25.8652 7.71875 25.8652 7.18182C25.8652 6.65151 25.789 6.1875 25.6365 5.78977C25.4841 5.39205 25.2604 5.08215 24.9654 4.86009C24.6704 4.63802 24.3058 4.52699 23.8716 4.52699C23.4242 4.52699 23.0513 4.64299 22.753 4.875C22.4547 5.10701 22.2293 5.42353 22.0769 5.82457C21.9277 6.22562 21.8532 6.67803 21.8532 7.18182C21.8532 7.69223 21.9294 8.15128 22.0819 8.55895C22.2343 8.96662 22.4597 9.28977 22.758 9.52841C23.0596 9.76373 23.4308 9.88139 23.8716 9.88139ZM33.9478 6.05327V7.34091H29.4336V6.05327H33.9478ZM39.4538 11.169C38.6683 11.1657 37.9972 10.9586 37.4403 10.5476C36.8835 10.1366 36.4576 9.53835 36.1626 8.75284C35.8677 7.96733 35.7202 7.02107 35.7202 5.91406C35.7202 4.81037 35.8677 3.86742 36.1626 3.08523C36.4609 2.30303 36.8885 1.70644 37.4453 1.29545C38.0054 0.884469 38.675 0.678977 39.4538 0.678977C40.2327 0.678977 40.9006 0.886126 41.4574 1.30043C42.0142 1.71141 42.4401 2.308 42.7351 3.0902C43.0334 3.86908 43.1825 4.81037 43.1825 5.91406C43.1825 7.02438 43.035 7.9723 42.7401 8.75781C42.4451 9.54001 42.0192 10.1383 41.4624 10.5526C40.9055 10.9635 40.236 11.169 39.4538 11.169ZM39.4538 9.84162C40.1432 9.84162 40.6818 9.50521 41.0696 8.83239C41.4607 8.15956 41.6562 7.18679 41.6562 5.91406C41.6562 5.06889 41.5668 4.35464 41.3878 3.77131C41.2121 3.18466 40.9586 2.74053 40.6271 2.43892C40.299 2.134 39.9079 1.98153 39.4538 1.98153C38.7678 1.98153 38.2292 2.3196 37.8381 2.99574C37.447 3.67187 37.2498 4.64465 37.2464 5.91406C37.2464 6.76255 37.3343 7.48011 37.5099 8.06676C37.6889 8.65009 37.9425 9.09257 38.2706 9.39418C38.5987 9.69247 38.9931 9.84162 39.4538 9.84162ZM44.9462 11V9.88636L48.3915 6.31676C48.7594 5.92898 49.0627 5.58925 49.3013 5.29759C49.5433 5.0026 49.7239 4.72254 49.8432 4.45739C49.9625 4.19223 50.0222 3.91051 50.0222 3.61222C50.0222 3.27415 49.9426 2.98248 49.7836 2.73722C49.6245 2.48864 49.4074 2.29806 49.1323 2.16548C48.8572 2.02959 48.5473 1.96165 48.2026 1.96165C47.838 1.96165 47.5198 2.03622 47.248 2.18537C46.9763 2.33452 46.7675 2.54498 46.6216 2.81676C46.4758 3.08854 46.4029 3.40672 46.4029 3.77131H44.9363C44.9363 3.15151 45.0788 2.60961 45.3638 2.1456C45.6489 1.68158 46.04 1.32197 46.5371 1.06676C47.0343 0.808238 47.5994 0.678977 48.2324 0.678977C48.8721 0.678977 49.4355 0.806581 49.9228 1.06179C50.4133 1.31368 50.7961 1.65838 51.0712 2.09588C51.3463 2.53007 51.4838 3.0206 51.4838 3.56747C51.4838 3.94531 51.4126 4.31487 51.2701 4.67614C51.1309 5.0374 50.8873 5.4401 50.5392 5.88423C50.1912 6.32505 49.7073 6.86032 49.0875 7.49006L47.0641 9.60795V9.68253H51.6479V11H44.9462Z" fill="black"/>
</svg>
