<svg width="66" height="12" viewBox="0 0 66 12" fill="none" xmlns="http://www.w3.org/2000/svg">
<path d="M4.21591 11.1541C3.4768 11.1541 2.84044 10.9867 2.30682 10.652C1.77652 10.3139 1.36884 9.84825 1.08381 9.25497C0.798769 8.66169 0.65625 7.98224 0.65625 7.21662C0.65625 6.44105 0.802083 5.75663 1.09375 5.16335C1.38542 4.56676 1.7964 4.10109 2.3267 3.76633C2.85701 3.43158 3.48177 3.2642 4.20099 3.2642C4.78101 3.2642 5.29806 3.37192 5.75213 3.58736C6.2062 3.79948 6.57244 4.09777 6.85085 4.48224C7.13258 4.86671 7.29995 5.31581 7.35298 5.82955H5.90625C5.8267 5.47159 5.64441 5.16335 5.35938 4.90483C5.07765 4.64631 4.69981 4.51705 4.22585 4.51705C3.81155 4.51705 3.44863 4.62642 3.13707 4.84517C2.82884 5.06061 2.58854 5.36884 2.41619 5.76989C2.24384 6.16761 2.15767 6.63826 2.15767 7.18182C2.15767 7.73864 2.24219 8.21922 2.41122 8.62358C2.58026 9.02794 2.81889 9.34115 3.12713 9.56321C3.43868 9.78527 3.80492 9.89631 4.22585 9.89631C4.50758 9.89631 4.76278 9.84493 4.99148 9.74219C5.22349 9.63613 5.41738 9.48532 5.57315 9.28977C5.73224 9.09422 5.84328 8.8589 5.90625 8.58381H7.35298C7.29995 9.07765 7.1392 9.51847 6.87074 9.90625C6.60227 10.294 6.24266 10.599 5.7919 10.821C5.34446 11.0431 4.81913 11.1541 4.21591 11.1541ZM12.1593 11.1541C11.4434 11.1541 10.8186 10.9901 10.285 10.6619C9.75136 10.3338 9.33706 9.87476 9.04208 9.2848C8.7471 8.69484 8.59961 8.00544 8.59961 7.21662C8.59961 6.42448 8.7471 5.73177 9.04208 5.13849C9.33706 4.54522 9.75136 4.08452 10.285 3.75639C10.8186 3.42827 11.4434 3.2642 12.1593 3.2642C12.8752 3.2642 13.4999 3.42827 14.0336 3.75639C14.5672 4.08452 14.9815 4.54522 15.2765 5.13849C15.5714 5.73177 15.7189 6.42448 15.7189 7.21662C15.7189 8.00544 15.5714 8.69484 15.2765 9.2848C14.9815 9.87476 14.5672 10.3338 14.0336 10.6619C13.4999 10.9901 12.8752 11.1541 12.1593 11.1541ZM12.1642 9.90625C12.6283 9.90625 13.0127 9.78362 13.3176 9.53835C13.6226 9.29309 13.848 8.96662 13.9938 8.55895C14.1429 8.15128 14.2175 7.70218 14.2175 7.21165C14.2175 6.72443 14.1429 6.27699 13.9938 5.86932C13.848 5.45833 13.6226 5.12855 13.3176 4.87997C13.0127 4.63139 12.6283 4.5071 12.1642 4.5071C11.6969 4.5071 11.3091 4.63139 11.0009 4.87997C10.696 5.12855 10.4689 5.45833 10.3198 5.86932C10.1739 6.27699 10.101 6.72443 10.101 7.21165C10.101 7.70218 10.1739 8.15128 10.3198 8.55895C10.4689 8.96662 10.696 9.29309 11.0009 9.53835C11.3091 9.78362 11.6969 9.90625 12.1642 9.90625ZM17.3782 11V3.36364H18.805V4.60653H18.8995C19.0586 4.18561 19.3188 3.85748 19.68 3.62216C20.0413 3.38352 20.4738 3.2642 20.9776 3.2642C21.488 3.2642 21.9156 3.38352 22.2603 3.62216C22.6083 3.8608 22.8652 4.18892 23.0309 4.60653H23.1104C23.2927 4.19886 23.5827 3.87405 23.9805 3.6321C24.3782 3.38684 24.8522 3.2642 25.4023 3.2642C26.0951 3.2642 26.6602 3.4813 27.0977 3.91548C27.5385 4.34967 27.7589 5.00426 27.7589 5.87926V11H26.2724V6.01847C26.2724 5.50142 26.1315 5.12689 25.8498 4.89489C25.5681 4.66288 25.2317 4.54688 24.8406 4.54688C24.3567 4.54688 23.9805 4.69602 23.712 4.99432C23.4435 5.2893 23.3093 5.6688 23.3093 6.13281V11H21.8278V5.92401C21.8278 5.50971 21.6985 5.17661 21.44 4.92472C21.1815 4.67282 20.8451 4.54688 20.4308 4.54688C20.149 4.54688 19.8888 4.62145 19.6502 4.7706C19.4149 4.91643 19.2243 5.12026 19.0785 5.3821C18.936 5.64394 18.8647 5.94721 18.8647 6.2919V11H17.3782ZM29.7512 11V3.36364H31.1781V4.60653H31.2725C31.4316 4.18561 31.6918 3.85748 32.0531 3.62216C32.4144 3.38352 32.8469 3.2642 33.3507 3.2642C33.8611 3.2642 34.2886 3.38352 34.6333 3.62216C34.9814 3.8608 35.2382 4.18892 35.4039 4.60653H35.4835C35.6658 4.19886 35.9558 3.87405 36.3535 3.6321C36.7512 3.38684 37.2252 3.2642 37.7754 3.2642C38.4681 3.2642 39.0332 3.4813 39.4707 3.91548C39.9115 4.34967 40.1319 5.00426 40.1319 5.87926V11H38.6454V6.01847C38.6454 5.50142 38.5046 5.12689 38.2228 4.89489C37.9411 4.66288 37.6047 4.54688 37.2136 4.54688C36.7297 4.54688 36.3535 4.69602 36.085 4.99432C35.8166 5.2893 35.6824 5.6688 35.6824 6.13281V11H34.2008V5.92401C34.2008 5.50971 34.0716 5.17661 33.813 4.92472C33.5545 4.67282 33.2181 4.54688 32.8038 4.54688C32.5221 4.54688 32.2619 4.62145 32.0233 4.7706C31.7879 4.91643 31.5974 5.12026 31.4515 5.3821C31.309 5.64394 31.2377 5.94721 31.2377 6.2919V11H29.7512ZM44.3466 11.169C43.8627 11.169 43.4252 11.0795 43.0341 10.9006C42.643 10.7183 42.3331 10.4548 42.1044 10.1101C41.879 9.76539 41.7663 9.3428 41.7663 8.84233C41.7663 8.41146 41.8492 8.05682 42.0149 7.77841C42.1806 7.5 42.4044 7.27959 42.6861 7.11719C42.9678 6.95478 43.2827 6.83215 43.6307 6.74929C43.9787 6.66643 44.3333 6.60346 44.6946 6.56037C45.152 6.50734 45.5232 6.46425 45.8082 6.43111C46.0933 6.39465 46.3004 6.33665 46.4297 6.2571C46.5589 6.17756 46.6236 6.0483 46.6236 5.86932V5.83452C46.6236 5.40033 46.5009 5.06392 46.2557 4.82528C46.0137 4.58665 45.6525 4.46733 45.1719 4.46733C44.6714 4.46733 44.277 4.57836 43.9886 4.80043C43.7036 5.01918 43.5064 5.26278 43.397 5.53125L42 5.21307C42.1657 4.74905 42.4077 4.37453 42.7259 4.08949C43.0473 3.80114 43.4169 3.59233 43.8345 3.46307C44.2521 3.33049 44.6913 3.2642 45.152 3.2642C45.4569 3.2642 45.7801 3.30066 46.1214 3.37358C46.4661 3.44318 46.7876 3.57244 47.0859 3.76136C47.3875 3.95028 47.6345 4.22041 47.8267 4.57173C48.0189 4.91974 48.1151 5.37216 48.1151 5.92898V11H46.6634V9.95597H46.6037C46.5076 10.1482 46.3634 10.3371 46.1712 10.5227C45.9789 10.7083 45.732 10.8625 45.4304 10.9851C45.1288 11.1077 44.7675 11.169 44.3466 11.169ZM44.6697 9.97585C45.0807 9.97585 45.4321 9.89465 45.7237 9.73224C46.0187 9.56984 46.2424 9.35772 46.3949 9.09588C46.5507 8.83073 46.6286 8.54735 46.6286 8.24574V7.26136C46.5755 7.31439 46.4728 7.36411 46.3203 7.41051C46.1712 7.4536 46.0005 7.49171 45.8082 7.52486C45.616 7.55469 45.4287 7.58286 45.2464 7.60938C45.0642 7.63258 44.9117 7.65246 44.7891 7.66903C44.5007 7.70549 44.2372 7.76681 43.9986 7.85298C43.7633 7.93916 43.5743 8.06345 43.4318 8.22585C43.2926 8.38494 43.223 8.59706 43.223 8.86222C43.223 9.23011 43.3589 9.50852 43.6307 9.69744C43.9025 9.88305 44.2488 9.97585 44.6697 9.97585ZM51.5815 6.46591V11H50.095V3.36364H51.5218V4.60653H51.6163C51.792 4.20218 52.0671 3.87737 52.4416 3.6321C52.8194 3.38684 53.295 3.2642 53.8684 3.2642C54.3888 3.2642 54.8445 3.37358 55.2356 3.59233C55.6267 3.80777 55.93 4.12926 56.1454 4.55682C56.3609 4.98437 56.4686 5.51302 56.4686 6.14276V11H54.9821V6.32173C54.9821 5.76823 54.8379 5.3357 54.5495 5.02415C54.2612 4.70928 53.8651 4.55185 53.3613 4.55185C53.0166 4.55185 52.71 4.62642 52.4416 4.77557C52.1764 4.92472 51.966 5.14347 51.8102 5.43182C51.6577 5.71686 51.5815 6.06155 51.5815 6.46591ZM61.3208 11.1491C60.7044 11.1491 60.1542 10.9917 59.6703 10.6768C59.1897 10.3587 58.8118 9.90625 58.5368 9.3196C58.265 8.72964 58.1291 8.02202 58.1291 7.19673C58.1291 6.37145 58.2666 5.66548 58.5417 5.07884C58.8201 4.49219 59.2013 4.04309 59.6852 3.73153C60.1691 3.41998 60.7176 3.2642 61.3308 3.2642C61.8047 3.2642 62.1859 3.34375 62.4743 3.50284C62.7659 3.65862 62.9913 3.84091 63.1504 4.04972C63.3128 4.25852 63.4387 4.44247 63.5282 4.60156H63.6177V0.818182H65.1042V11H63.6525V9.81179H63.5282C63.4387 9.9742 63.3095 10.1598 63.1404 10.3686C62.9747 10.5774 62.746 10.7597 62.4544 10.9155C62.1627 11.0713 61.7849 11.1491 61.3208 11.1491ZM61.649 9.88139C62.0765 9.88139 62.4378 9.7687 62.7328 9.54332C63.0311 9.31463 63.2565 8.99811 63.4089 8.59375C63.5647 8.18939 63.6426 7.71875 63.6426 7.18182C63.6426 6.65151 63.5663 6.1875 63.4139 5.78977C63.2614 5.39205 63.0377 5.08215 62.7427 4.86009C62.4477 4.63802 62.0832 4.52699 61.649 4.52699C61.2015 4.52699 60.8287 4.64299 60.5304 4.875C60.2321 5.10701 60.0067 5.42353 59.8542 5.82457C59.7051 6.22562 59.6305 6.67803 59.6305 7.18182C59.6305 7.69223 59.7067 8.15128 59.8592 8.55895C60.0117 8.96662 60.237 9.28977 60.5353 9.52841C60.8369 9.76373 61.2082 9.88139 61.649 9.88139Z" fill="black"/>
</svg>
