<svg width="80" height="14" viewBox="0 0 80 14" fill="none" xmlns="http://www.w3.org/2000/svg">
<path d="M-0.000710189 13.8636V3.36364H1.45099V4.60156H1.57528C1.66146 4.44247 1.78575 4.25852 1.94815 4.04972C2.11056 3.84091 2.33594 3.65862 2.62429 3.50284C2.91264 3.34375 3.2938 3.2642 3.76776 3.2642C4.38423 3.2642 4.93442 3.41998 5.41832 3.73153C5.90223 4.04309 6.28172 4.49219 6.55682 5.07884C6.83523 5.66548 6.97443 6.37145 6.97443 7.19673C6.97443 8.02202 6.83688 8.72964 6.56179 9.3196C6.2867 9.90625 5.90885 10.3587 5.42827 10.6768C4.94768 10.9917 4.39915 11.1491 3.78267 11.1491C3.31866 11.1491 2.93916 11.0713 2.64418 10.9155C2.35251 10.7597 2.12382 10.5774 1.9581 10.3686C1.79238 10.1598 1.66477 9.9742 1.57528 9.81179H1.4858V13.8636H-0.000710189ZM1.45597 7.18182C1.45597 7.71875 1.53385 8.18939 1.68963 8.59375C1.84541 8.99811 2.07079 9.31463 2.36577 9.54332C2.66075 9.7687 3.02202 9.88139 3.44957 9.88139C3.8937 9.88139 4.26491 9.76373 4.56321 9.52841C4.86151 9.28977 5.08688 8.96662 5.23935 8.55895C5.39512 8.15128 5.47301 7.69223 5.47301 7.18182C5.47301 6.67803 5.39678 6.22562 5.24432 5.82457C5.09517 5.42353 4.86979 5.10701 4.56818 4.875C4.26989 4.64299 3.89702 4.52699 3.44957 4.52699C3.0187 4.52699 2.65412 4.63802 2.35582 4.86009C2.06084 5.08215 1.83712 5.39205 1.68466 5.78977C1.5322 6.1875 1.45597 6.65151 1.45597 7.18182ZM11.9311 11.1541C11.1787 11.1541 10.5308 10.9934 9.98722 10.6719C9.44697 10.3471 9.02936 9.89134 8.73438 9.30469C8.44271 8.71473 8.29688 8.02367 8.29688 7.23153C8.29688 6.44934 8.44271 5.75994 8.73438 5.16335C9.02936 4.56676 9.44034 4.10109 9.96733 3.76633C10.4976 3.43158 11.1174 3.2642 11.8267 3.2642C12.2576 3.2642 12.6752 3.33546 13.0795 3.47798C13.4839 3.6205 13.8468 3.84422 14.1683 4.14915C14.4898 4.45407 14.7434 4.85014 14.929 5.33736C15.1146 5.82126 15.2074 6.40956 15.2074 7.10227V7.62926H9.13707V6.51562H13.7507C13.7507 6.12453 13.6712 5.77817 13.5121 5.47656C13.353 5.17164 13.1293 4.93134 12.8409 4.75568C12.5559 4.58002 12.2211 4.49219 11.8366 4.49219C11.419 4.49219 11.0545 4.59493 10.7429 4.80043C10.4347 5.0026 10.196 5.26776 10.027 5.59588C9.86127 5.92069 9.77841 6.27367 9.77841 6.65483V7.52486C9.77841 8.03527 9.8679 8.46946 10.0469 8.82741C10.2292 9.18537 10.4827 9.45881 10.8075 9.64773C11.1323 9.83333 11.5118 9.92614 11.946 9.92614C12.2277 9.92614 12.4846 9.88636 12.7166 9.80682C12.9486 9.72396 13.1491 9.60133 13.3182 9.43892C13.4872 9.27652 13.6165 9.07599 13.706 8.83736L15.1129 9.09091C15.0002 9.50521 14.7981 9.86813 14.5064 10.1797C14.218 10.4879 13.8551 10.7282 13.4176 10.9006C12.9834 11.0696 12.4879 11.1541 11.9311 11.1541ZM18.3432 6.46591V11H16.8567V3.36364H18.2836V4.60653H18.378C18.5537 4.20218 18.8288 3.87737 19.2033 3.6321C19.5811 3.38684 20.0568 3.2642 20.6301 3.2642C21.1505 3.2642 21.6062 3.37358 21.9973 3.59233C22.3884 3.80777 22.6917 4.12926 22.9071 4.55682C23.1226 4.98437 23.2303 5.51302 23.2303 6.14276V11H21.7438V6.32173C21.7438 5.76823 21.5996 5.3357 21.3113 5.02415C21.0229 4.70928 20.6268 4.55185 20.123 4.55185C19.7783 4.55185 19.4718 4.62642 19.2033 4.77557C18.9382 4.92472 18.7277 5.14347 18.5719 5.43182C18.4194 5.71686 18.3432 6.06155 18.3432 6.46591ZM29.7232 6.05327V7.34091H25.209V6.05327H29.7232ZM35.269 3.36364V4.55682H31.0978V3.36364H35.269ZM32.2164 1.53409H33.7029V8.75781C33.7029 9.04616 33.746 9.26326 33.8322 9.40909C33.9184 9.55161 34.0294 9.64938 34.1653 9.70241C34.3045 9.75213 34.4553 9.77699 34.6177 9.77699C34.737 9.77699 34.8414 9.7687 34.9309 9.75213C35.0204 9.73556 35.09 9.7223 35.1397 9.71236L35.4082 10.9403C35.322 10.9735 35.1994 11.0066 35.0403 11.0398C34.8812 11.0762 34.6824 11.0961 34.4437 11.0994C34.0526 11.1061 33.688 11.0365 33.35 10.8906C33.0119 10.7448 32.7385 10.5194 32.5297 10.2145C32.3208 9.90956 32.2164 9.52675 32.2164 9.06605V1.53409ZM40.0479 11.1541C39.332 11.1541 38.7073 10.9901 38.1737 10.6619C37.64 10.3338 37.2257 9.87476 36.9308 9.2848C36.6358 8.69484 36.4883 8.00544 36.4883 7.21662C36.4883 6.42448 36.6358 5.73177 36.9308 5.13849C37.2257 4.54522 37.64 4.08452 38.1737 3.75639C38.7073 3.42827 39.332 3.2642 40.0479 3.2642C40.7638 3.2642 41.3886 3.42827 41.9222 3.75639C42.4558 4.08452 42.8701 4.54522 43.1651 5.13849C43.4601 5.73177 43.6076 6.42448 43.6076 7.21662C43.6076 8.00544 43.4601 8.69484 43.1651 9.2848C42.8701 9.87476 42.4558 10.3338 41.9222 10.6619C41.3886 10.9901 40.7638 11.1541 40.0479 11.1541ZM40.0529 9.90625C40.5169 9.90625 40.9014 9.78362 41.2063 9.53835C41.5112 9.29309 41.7366 8.96662 41.8825 8.55895C42.0316 8.15128 42.1062 7.70218 42.1062 7.21165C42.1062 6.72443 42.0316 6.27699 41.8825 5.86932C41.7366 5.45833 41.5112 5.12855 41.2063 4.87997C40.9014 4.63139 40.5169 4.5071 40.0529 4.5071C39.5856 4.5071 39.1978 4.63139 38.8896 4.87997C38.5846 5.12855 38.3576 5.45833 38.2085 5.86932C38.0626 6.27699 37.9897 6.72443 37.9897 7.21165C37.9897 7.70218 38.0626 8.15128 38.2085 8.55895C38.3576 8.96662 38.5846 9.29309 38.8896 9.53835C39.1978 9.78362 39.5856 9.90625 40.0529 9.90625ZM48.4835 11.1541C47.7676 11.1541 47.1428 10.9901 46.6092 10.6619C46.0756 10.3338 45.6613 9.87476 45.3663 9.2848C45.0713 8.69484 44.9238 8.00544 44.9238 7.21662C44.9238 6.42448 45.0713 5.73177 45.3663 5.13849C45.6613 4.54522 46.0756 4.08452 46.6092 3.75639C47.1428 3.42827 47.7676 3.2642 48.4835 3.2642C49.1994 3.2642 49.8242 3.42827 50.3578 3.75639C50.8914 4.08452 51.3057 4.54522 51.6007 5.13849C51.8957 5.73177 52.0431 6.42448 52.0431 7.21662C52.0431 8.00544 51.8957 8.69484 51.6007 9.2848C51.3057 9.87476 50.8914 10.3338 50.3578 10.6619C49.8242 10.9901 49.1994 11.1541 48.4835 11.1541ZM48.4885 9.90625C48.9525 9.90625 49.3369 9.78362 49.6419 9.53835C49.9468 9.29309 50.1722 8.96662 50.318 8.55895C50.4672 8.15128 50.5417 7.70218 50.5417 7.21165C50.5417 6.72443 50.4672 6.27699 50.318 5.86932C50.1722 5.45833 49.9468 5.12855 49.6419 4.87997C49.3369 4.63139 48.9525 4.5071 48.4885 4.5071C48.0211 4.5071 47.6333 4.63139 47.3251 4.87997C47.0202 5.12855 46.7931 5.45833 46.644 5.86932C46.4982 6.27699 46.4252 6.72443 46.4252 7.21165C46.4252 7.70218 46.4982 8.15128 46.644 8.55895C46.7931 8.96662 47.0202 9.29309 47.3251 9.53835C47.6333 9.78362 48.0211 9.90625 48.4885 9.90625ZM55.1889 0.818182V11H53.7024V0.818182H55.1889ZM61.688 6.05327V7.34091H57.1738V6.05327H61.688ZM67.1941 11.169C66.4086 11.1657 65.7374 10.9586 65.1806 10.5476C64.6238 10.1366 64.1979 9.53835 63.9029 8.75284C63.6079 7.96733 63.4604 7.02107 63.4604 5.91406C63.4604 4.81037 63.6079 3.86742 63.9029 3.08523C64.2012 2.30303 64.6287 1.70644 65.1855 1.29545C65.7457 0.884469 66.4152 0.678977 67.1941 0.678977C67.973 0.678977 68.6408 0.886126 69.1976 1.30043C69.7544 1.71141 70.1803 2.308 70.4753 3.0902C70.7736 3.86908 70.9228 4.81037 70.9228 5.91406C70.9228 7.02438 70.7753 7.9723 70.4803 8.75781C70.1853 9.54001 69.7594 10.1383 69.2026 10.5526C68.6458 10.9635 67.9763 11.169 67.1941 11.169ZM67.1941 9.84162C67.8835 9.84162 68.4221 9.50521 68.8098 8.83239C69.2009 8.15956 69.3965 7.18679 69.3965 5.91406C69.3965 5.06889 69.307 4.35464 69.128 3.77131C68.9524 3.18466 68.6988 2.74053 68.3674 2.43892C68.0392 2.134 67.6481 1.98153 67.1941 1.98153C66.508 1.98153 65.9694 2.3196 65.5783 2.99574C65.1872 3.67187 64.99 4.64465 64.9867 5.91406C64.9867 6.76255 65.0745 7.48011 65.2502 8.06676C65.4292 8.65009 65.6827 9.09257 66.0108 9.39418C66.339 9.69247 66.7334 9.84162 67.1941 9.84162ZM72.6864 11V9.88636L76.1317 6.31676C76.4996 5.92898 76.8029 5.58925 77.0415 5.29759C77.2835 5.0026 77.4641 4.72254 77.5835 4.45739C77.7028 4.19223 77.7624 3.91051 77.7624 3.61222C77.7624 3.27415 77.6829 2.98248 77.5238 2.73722C77.3647 2.48864 77.1476 2.29806 76.8725 2.16548C76.5974 2.02959 76.2875 1.96165 75.9428 1.96165C75.5782 1.96165 75.2601 2.03622 74.9883 2.18537C74.7165 2.33452 74.5077 2.54498 74.3619 2.81676C74.216 3.08854 74.1431 3.40672 74.1431 3.77131H72.6765C72.6765 3.15151 72.819 2.60961 73.104 2.1456C73.3891 1.68158 73.7802 1.32197 74.2773 1.06676C74.7745 0.808238 75.3396 0.678977 75.9727 0.678977C76.6123 0.678977 77.1758 0.806581 77.663 1.06179C78.1535 1.31368 78.5363 1.65838 78.8114 2.09588C79.0865 2.53007 79.2241 3.0206 79.2241 3.56747C79.2241 3.94531 79.1528 4.31487 79.0103 4.67614C78.8711 5.0374 78.6275 5.4401 78.2795 5.88423C77.9315 6.32505 77.4476 6.86032 76.8278 7.49006L74.8043 9.60795V9.68253H79.3881V11H72.6864Z" fill="black"/>
</svg>
