<svg width="33" height="14" viewBox="0 0 33 14" fill="none" xmlns="http://www.w3.org/2000/svg">
<path d="M-0.000710189 13.8636V3.36364H1.45099V4.60156H1.57528C1.66146 4.44247 1.78575 4.25852 1.94815 4.04972C2.11056 3.84091 2.33594 3.65862 2.62429 3.50284C2.91264 3.34375 3.2938 3.2642 3.76776 3.2642C4.38423 3.2642 4.93442 3.41998 5.41832 3.73153C5.90223 4.04309 6.28172 4.49219 6.55682 5.07884C6.83523 5.66548 6.97443 6.37145 6.97443 7.19673C6.97443 8.02202 6.83688 8.72964 6.56179 9.3196C6.2867 9.90625 5.90885 10.3587 5.42827 10.6768C4.94768 10.9917 4.39915 11.1491 3.78267 11.1491C3.31866 11.1491 2.93916 11.0713 2.64418 10.9155C2.35251 10.7597 2.12382 10.5774 1.9581 10.3686C1.79238 10.1598 1.66477 9.9742 1.57528 9.81179H1.4858V13.8636H-0.000710189ZM1.45597 7.18182C1.45597 7.71875 1.53385 8.18939 1.68963 8.59375C1.84541 8.99811 2.07079 9.31463 2.36577 9.54332C2.66075 9.7687 3.02202 9.88139 3.44957 9.88139C3.8937 9.88139 4.26491 9.76373 4.56321 9.52841C4.86151 9.28977 5.08688 8.96662 5.23935 8.55895C5.39512 8.15128 5.47301 7.69223 5.47301 7.18182C5.47301 6.67803 5.39678 6.22562 5.24432 5.82457C5.09517 5.42353 4.86979 5.10701 4.56818 4.875C4.26989 4.64299 3.89702 4.52699 3.44957 4.52699C3.0187 4.52699 2.65412 4.63802 2.35582 4.86009C2.06084 5.08215 1.83712 5.39205 1.68466 5.78977C1.5322 6.1875 1.45597 6.65151 1.45597 7.18182ZM10.8622 11.169C10.3783 11.169 9.94081 11.0795 9.54972 10.9006C9.15862 10.7183 8.84872 10.4548 8.62003 10.1101C8.39465 9.76539 8.28196 9.3428 8.28196 8.84233C8.28196 8.41146 8.36482 8.05682 8.53054 7.77841C8.69626 7.5 8.91998 7.27959 9.2017 7.11719C9.48343 6.95478 9.7983 6.83215 10.1463 6.74929C10.4943 6.66643 10.849 6.60346 11.2102 6.56037C11.6676 6.50734 12.0388 6.46425 12.3239 6.43111C12.6089 6.39465 12.8161 6.33665 12.9453 6.2571C13.0746 6.17756 13.1392 6.0483 13.1392 5.86932V5.83452C13.1392 5.40033 13.0166 5.06392 12.7713 4.82528C12.5294 4.58665 12.1681 4.46733 11.6875 4.46733C11.187 4.46733 10.7926 4.57836 10.5043 4.80043C10.2192 5.01918 10.022 5.26278 9.91264 5.53125L8.51562 5.21307C8.68134 4.74905 8.9233 4.37453 9.24148 4.08949C9.56297 3.80114 9.93253 3.59233 10.3501 3.46307C10.7678 3.33049 11.2069 3.2642 11.6676 3.2642C11.9725 3.2642 12.2957 3.30066 12.6371 3.37358C12.9818 3.44318 13.3033 3.57244 13.6016 3.76136C13.9032 3.95028 14.1501 4.22041 14.3423 4.57173C14.5346 4.91974 14.6307 5.37216 14.6307 5.92898V11H13.179V9.95597H13.1193C13.0232 10.1482 12.879 10.3371 12.6868 10.5227C12.4946 10.7083 12.2476 10.8625 11.946 10.9851C11.6444 11.1077 11.2831 11.169 10.8622 11.169ZM11.1854 9.97585C11.5964 9.97585 11.9477 9.89465 12.2393 9.73224C12.5343 9.56984 12.758 9.35772 12.9105 9.09588C13.0663 8.83073 13.1442 8.54735 13.1442 8.24574V7.26136C13.0911 7.31439 12.9884 7.36411 12.8359 7.41051C12.6868 7.4536 12.5161 7.49171 12.3239 7.52486C12.1316 7.55469 11.9444 7.58286 11.7621 7.60938C11.5798 7.63258 11.4273 7.65246 11.3047 7.66903C11.0163 7.70549 10.7528 7.76681 10.5142 7.85298C10.2789 7.93916 10.09 8.06345 9.94744 8.22585C9.80824 8.38494 9.73864 8.59706 9.73864 8.86222C9.73864 9.23011 9.87453 9.50852 10.1463 9.69744C10.4181 9.88305 10.7644 9.97585 11.1854 9.97585ZM16.6106 11V3.36364H18.0971V11H16.6106ZM17.3613 2.18537C17.1028 2.18537 16.8807 2.09919 16.6951 1.92685C16.5128 1.75118 16.4217 1.54238 16.4217 1.30043C16.4217 1.05516 16.5128 0.846354 16.6951 0.674005C16.8807 0.498342 17.1028 0.410511 17.3613 0.410511C17.6199 0.410511 17.8403 0.498342 18.0225 0.674005C18.2082 0.846354 18.301 1.05516 18.301 1.30043C18.301 1.54238 18.2082 1.75118 18.0225 1.92685C17.8403 2.09919 17.6199 2.18537 17.3613 2.18537ZM21.5835 6.46591V11H20.0969V3.36364H21.5238V4.60653H21.6183C21.7939 4.20218 22.069 3.87737 22.4435 3.6321C22.8214 3.38684 23.297 3.2642 23.8704 3.2642C24.3907 3.2642 24.8465 3.37358 25.2376 3.59233C25.6287 3.80777 25.9319 4.12926 26.1474 4.55682C26.3628 4.98437 26.4705 5.51302 26.4705 6.14276V11H24.984V6.32173C24.984 5.76823 24.8398 5.3357 24.5515 5.02415C24.2631 4.70928 23.8671 4.55185 23.3633 4.55185C23.0186 4.55185 22.712 4.62642 22.4435 4.77557C22.1784 4.92472 21.9679 5.14347 21.8121 5.43182C21.6597 5.71686 21.5835 6.06155 21.5835 6.46591ZM32.0288 3.36364V4.55682H27.8576V3.36364H32.0288ZM28.9762 1.53409H30.4627V8.75781C30.4627 9.04616 30.5058 9.26326 30.592 9.40909C30.6781 9.55161 30.7892 9.64938 30.9251 9.70241C31.0643 9.75213 31.2151 9.77699 31.3775 9.77699C31.4968 9.77699 31.6012 9.7687 31.6907 9.75213C31.7802 9.73556 31.8498 9.7223 31.8995 9.71236L32.168 10.9403C32.0818 10.9735 31.9592 11.0066 31.8001 11.0398C31.641 11.0762 31.4421 11.0961 31.2035 11.0994C30.8124 11.1061 30.4478 11.0365 30.1097 10.8906C29.7717 10.7448 29.4982 10.5194 29.2894 10.2145C29.0806 9.90956 28.9762 9.52675 28.9762 9.06605V1.53409Z" fill="black"/>
</svg>
