<svg width="114" height="15" viewBox="0 0 114 15" fill="none" xmlns="http://www.w3.org/2000/svg">
<path d="M1.4858 0.818182V11H-0.000710189V0.818182H1.4858ZM6.77681 11.1541C6.02444 11.1541 5.37648 10.9934 4.83292 10.6719C4.29267 10.3471 3.87506 9.89134 3.58008 9.30469C3.28841 8.71473 3.14258 8.02367 3.14258 7.23153C3.14258 6.44934 3.28841 5.75994 3.58008 5.16335C3.87506 4.56676 4.28604 4.10109 4.81303 3.76633C5.34334 3.43158 5.96313 3.2642 6.67241 3.2642C7.10328 3.2642 7.52089 3.33546 7.92525 3.47798C8.3296 3.6205 8.69253 3.84422 9.01403 4.14915C9.33552 4.45407 9.58907 4.85014 9.77468 5.33736C9.96029 5.82126 10.0531 6.40956 10.0531 7.10227V7.62926H3.98278V6.51562H8.59641C8.59641 6.12453 8.51687 5.77817 8.35778 5.47656C8.19869 5.17164 7.97496 4.93134 7.68661 4.75568C7.40157 4.58002 7.06682 4.49219 6.68235 4.49219C6.26474 4.49219 5.90015 4.59493 5.5886 4.80043C5.28036 5.0026 5.04173 5.26776 4.87269 5.59588C4.70697 5.92069 4.62411 6.27367 4.62411 6.65483V7.52486C4.62411 8.03527 4.7136 8.46946 4.89258 8.82741C5.07487 9.18537 5.32842 9.45881 5.65323 9.64773C5.97804 9.83333 6.35754 9.92614 6.79173 9.92614C7.07345 9.92614 7.33032 9.88636 7.56232 9.80682C7.79433 9.72396 7.99485 9.60133 8.16389 9.43892C8.33292 9.27652 8.46218 9.07599 8.55167 8.83736L9.95863 9.09091C9.84594 9.50521 9.64376 9.86813 9.3521 10.1797C9.06374 10.4879 8.70082 10.7282 8.26332 10.9006C7.82913 11.0696 7.33363 11.1541 6.77681 11.1541ZM15.267 3.36364V4.55682H11.0959V3.36364H15.267ZM12.2145 1.53409H13.701V8.75781C13.701 9.04616 13.7441 9.26326 13.8303 9.40909C13.9164 9.55161 14.0275 9.64938 14.1634 9.70241C14.3026 9.75213 14.4534 9.77699 14.6158 9.77699C14.7351 9.77699 14.8395 9.7687 14.929 9.75213C15.0185 9.73556 15.0881 9.7223 15.1378 9.71236L15.4062 10.9403C15.3201 10.9735 15.1974 11.0066 15.0384 11.0398C14.8793 11.0762 14.6804 11.0961 14.4418 11.0994C14.0507 11.1061 13.6861 11.0365 13.348 10.8906C13.0099 10.7448 12.7365 10.5194 12.5277 10.2145C12.3189 9.90956 12.2145 9.52675 12.2145 9.06605V1.53409ZM20.476 3.36364V4.55682H16.3049V3.36364H20.476ZM17.4235 1.53409H18.91V8.75781C18.91 9.04616 18.9531 9.26326 19.0392 9.40909C19.1254 9.55161 19.2364 9.64938 19.3723 9.70241C19.5115 9.75213 19.6623 9.77699 19.8248 9.77699C19.9441 9.77699 20.0485 9.7687 20.138 9.75213C20.2275 9.73556 20.2971 9.7223 20.3468 9.71236L20.6152 10.9403C20.5291 10.9735 20.4064 11.0066 20.2473 11.0398C20.0882 11.0762 19.8894 11.0961 19.6507 11.0994C19.2596 11.1061 18.8951 11.0365 18.557 10.8906C18.2189 10.7448 17.9455 10.5194 17.7367 10.2145C17.5279 9.90956 17.4235 9.52675 17.4235 9.06605V1.53409ZM25.3295 11.1541C24.5772 11.1541 23.9292 10.9934 23.3857 10.6719C22.8454 10.3471 22.4278 9.89134 22.1328 9.30469C21.8411 8.71473 21.6953 8.02367 21.6953 7.23153C21.6953 6.44934 21.8411 5.75994 22.1328 5.16335C22.4278 4.56676 22.8388 4.10109 23.3658 3.76633C23.8961 3.43158 24.5159 3.2642 25.2251 3.2642C25.656 3.2642 26.0736 3.33546 26.478 3.47798C26.8823 3.6205 27.2453 3.84422 27.5668 4.14915C27.8883 4.45407 28.1418 4.85014 28.3274 5.33736C28.513 5.82126 28.6058 6.40956 28.6058 7.10227V7.62926H22.5355V6.51562H27.1491C27.1491 6.12453 27.0696 5.77817 26.9105 5.47656C26.7514 5.17164 26.5277 4.93134 26.2393 4.75568C25.9543 4.58002 25.6196 4.49219 25.2351 4.49219C24.8175 4.49219 24.4529 4.59493 24.1413 4.80043C23.8331 5.0026 23.5945 5.26776 23.4254 5.59588C23.2597 5.92069 23.1768 6.27367 23.1768 6.65483V7.52486C23.1768 8.03527 23.2663 8.46946 23.4453 8.82741C23.6276 9.18537 23.8812 9.45881 24.206 9.64773C24.5308 9.83333 24.9103 9.92614 25.3445 9.92614C25.6262 9.92614 25.883 9.88636 26.1151 9.80682C26.3471 9.72396 26.5476 9.60133 26.7166 9.43892C26.8857 9.27652 27.0149 9.07599 27.1044 8.83736L28.5114 9.09091C28.3987 9.50521 28.1965 9.86813 27.9048 10.1797C27.6165 10.4879 27.2536 10.7282 26.8161 10.9006C26.3819 11.0696 25.8864 11.1541 25.3295 11.1541ZM30.2551 11V3.36364H31.6919V4.5767H31.7715C31.9107 4.16572 32.156 3.84257 32.5073 3.60724C32.8619 3.36861 33.263 3.24929 33.7104 3.24929C33.8032 3.24929 33.9126 3.2526 34.0385 3.25923C34.1678 3.26586 34.2689 3.27415 34.3418 3.28409V4.70597C34.2821 4.68939 34.1761 4.67116 34.0236 4.65128C33.8712 4.62808 33.7187 4.61648 33.5662 4.61648C33.2149 4.61648 32.9017 4.69105 32.6266 4.8402C32.3548 4.98603 32.1394 5.18987 31.9803 5.4517C31.8212 5.71023 31.7417 6.00521 31.7417 6.33665V11H30.2551ZM39.6763 6.05327V7.34091H35.1621V6.05327H39.6763ZM47.3798 5.22798L46.0325 5.46662C45.9761 5.29427 45.8867 5.13021 45.764 4.97443C45.6447 4.81865 45.4823 4.69105 45.2768 4.59162C45.0713 4.49219 44.8145 4.44247 44.5062 4.44247C44.0853 4.44247 43.734 4.53693 43.4522 4.72585C43.1705 4.91146 43.0297 5.15175 43.0297 5.44673C43.0297 5.70194 43.1241 5.90743 43.313 6.06321C43.502 6.21899 43.8069 6.34659 44.2278 6.44602L45.4409 6.72443C46.1435 6.88684 46.6672 7.13707 47.0119 7.47514C47.3566 7.81321 47.5289 8.25237 47.5289 8.79261C47.5289 9.25 47.3964 9.65767 47.1312 10.0156C46.8694 10.3703 46.5031 10.6487 46.0325 10.8509C45.5652 11.053 45.0233 11.1541 44.4068 11.1541C43.5517 11.1541 42.854 10.9718 42.3137 10.6072C41.7735 10.2393 41.4421 9.71733 41.3194 9.04119L42.7562 8.82244C42.8457 9.19697 43.0297 9.48035 43.3081 9.67259C43.5865 9.86151 43.9494 9.95597 44.3968 9.95597C44.8841 9.95597 45.2735 9.85488 45.5652 9.6527C45.8568 9.44721 46.0027 9.19697 46.0027 8.90199C46.0027 8.66335 45.9132 8.46283 45.7342 8.30043C45.5585 8.13802 45.2884 8.01539 44.9238 7.93253L43.6312 7.64915C42.9186 7.48674 42.3916 7.22822 42.0502 6.87358C41.7122 6.51894 41.5431 6.06984 41.5431 5.52628C41.5431 5.07552 41.6691 4.68111 41.921 4.34304C42.1729 4.00497 42.5209 3.74148 42.965 3.55256C43.4092 3.36032 43.9179 3.2642 44.4913 3.2642C45.3166 3.2642 45.9662 3.44318 46.4402 3.80114C46.9141 4.15578 47.2273 4.63139 47.3798 5.22798ZM49.1634 13.8636V3.36364H50.6151V4.60156H50.7393C50.8255 4.44247 50.9498 4.25852 51.1122 4.04972C51.2746 3.84091 51.5 3.65862 51.7884 3.50284C52.0767 3.34375 52.4579 3.2642 52.9318 3.2642C53.5483 3.2642 54.0985 3.41998 54.5824 3.73153C55.0663 4.04309 55.4458 4.49219 55.7209 5.07884C55.9993 5.66548 56.1385 6.37145 56.1385 7.19673C56.1385 8.02202 56.0009 8.72964 55.7259 9.3196C55.4508 9.90625 55.0729 10.3587 54.5923 10.6768C54.1117 10.9917 53.5632 11.1491 52.9467 11.1491C52.4827 11.1491 52.1032 11.0713 51.8082 10.9155C51.5166 10.7597 51.2879 10.5774 51.1222 10.3686C50.9564 10.1598 50.8288 9.9742 50.7393 9.81179H50.6499V13.8636H49.1634ZM50.62 7.18182C50.62 7.71875 50.6979 8.18939 50.8537 8.59375C51.0095 8.99811 51.2348 9.31463 51.5298 9.54332C51.8248 9.7687 52.1861 9.88139 52.6136 9.88139C53.0578 9.88139 53.429 9.76373 53.7273 9.52841C54.0256 9.28977 54.2509 8.96662 54.4034 8.55895C54.5592 8.15128 54.6371 7.69223 54.6371 7.18182C54.6371 6.67803 54.5608 6.22562 54.4084 5.82457C54.2592 5.42353 54.0339 5.10701 53.7322 4.875C53.4339 4.64299 53.0611 4.52699 52.6136 4.52699C52.1828 4.52699 51.8182 4.63802 51.5199 4.86009C51.2249 5.08215 51.0012 5.39205 50.8487 5.78977C50.6963 6.1875 50.62 6.65151 50.62 7.18182ZM60.0263 11.169C59.5424 11.169 59.1049 11.0795 58.7138 10.9006C58.3227 10.7183 58.0128 10.4548 57.7841 10.1101C57.5587 9.76539 57.446 9.3428 57.446 8.84233C57.446 8.41146 57.5289 8.05682 57.6946 7.77841C57.8603 7.5 58.084 7.27959 58.3658 7.11719C58.6475 6.95478 58.9624 6.83215 59.3104 6.74929C59.6584 6.66643 60.013 6.60346 60.3743 6.56037C60.8317 6.50734 61.2029 6.46425 61.4879 6.43111C61.773 6.39465 61.9801 6.33665 62.1094 6.2571C62.2386 6.17756 62.3033 6.0483 62.3033 5.86932V5.83452C62.3033 5.40033 62.1806 5.06392 61.9354 4.82528C61.6934 4.58665 61.3321 4.46733 60.8516 4.46733C60.3511 4.46733 59.9567 4.57836 59.6683 4.80043C59.3833 5.01918 59.1861 5.26278 59.0767 5.53125L57.6797 5.21307C57.8454 4.74905 58.0874 4.37453 58.4055 4.08949C58.727 3.80114 59.0966 3.59233 59.5142 3.46307C59.9318 3.33049 60.371 3.2642 60.8317 3.2642C61.1366 3.2642 61.4598 3.30066 61.8011 3.37358C62.1458 3.44318 62.4673 3.57244 62.7656 3.76136C63.0672 3.95028 63.3142 4.22041 63.5064 4.57173C63.6986 4.91974 63.7947 5.37216 63.7947 5.92898V11H62.343V9.95597H62.2834C62.1873 10.1482 62.0431 10.3371 61.8509 10.5227C61.6586 10.7083 61.4117 10.8625 61.1101 10.9851C60.8085 11.1077 60.4472 11.169 60.0263 11.169ZM60.3494 9.97585C60.7604 9.97585 61.1117 9.89465 61.4034 9.73224C61.6984 9.56984 61.9221 9.35772 62.0746 9.09588C62.2304 8.83073 62.3082 8.54735 62.3082 8.24574V7.26136C62.2552 7.31439 62.1525 7.36411 62 7.41051C61.8509 7.4536 61.6802 7.49171 61.4879 7.52486C61.2957 7.55469 61.1084 7.58286 60.9261 7.60938C60.7438 7.63258 60.5914 7.65246 60.4688 7.66903C60.1804 7.70549 59.9169 7.76681 59.6783 7.85298C59.4429 7.93916 59.254 8.06345 59.1115 8.22585C58.9723 8.38494 58.9027 8.59706 58.9027 8.86222C58.9027 9.23011 59.0386 9.50852 59.3104 9.69744C59.5821 9.88305 59.9285 9.97585 60.3494 9.97585ZM68.9913 11.1541C68.2522 11.1541 67.6158 10.9867 67.0822 10.652C66.5519 10.3139 66.1442 9.84825 65.8592 9.25497C65.5742 8.66169 65.4316 7.98224 65.4316 7.21662C65.4316 6.44105 65.5775 5.75663 65.8691 5.16335C66.1608 4.56676 66.5718 4.10109 67.1021 3.76633C67.6324 3.43158 68.2572 3.2642 68.9764 3.2642C69.5564 3.2642 70.0734 3.37192 70.5275 3.58736C70.9816 3.79948 71.3478 4.09777 71.6262 4.48224C71.908 4.86671 72.0753 5.31581 72.1284 5.82955H70.6816C70.6021 5.47159 70.4198 5.16335 70.1348 4.90483C69.853 4.64631 69.4752 4.51705 69.0012 4.51705C68.5869 4.51705 68.224 4.62642 67.9125 4.84517C67.6042 5.06061 67.3639 5.36884 67.1916 5.76989C67.0192 6.16761 66.9331 6.63826 66.9331 7.18182C66.9331 7.73864 67.0176 8.21922 67.1866 8.62358C67.3556 9.02794 67.5943 9.34115 67.9025 9.56321C68.2141 9.78527 68.5803 9.89631 69.0012 9.89631C69.283 9.89631 69.5382 9.84493 69.7669 9.74219C69.9989 9.63613 70.1928 9.48532 70.3485 9.28977C70.5076 9.09422 70.6187 8.8589 70.6816 8.58381H72.1284C72.0753 9.07765 71.9146 9.51847 71.6461 9.90625C71.3777 10.294 71.0181 10.599 70.5673 10.821C70.1199 11.0431 69.5945 11.1541 68.9913 11.1541ZM73.718 11V3.36364H75.2045V11H73.718ZM74.4688 2.18537C74.2102 2.18537 73.9882 2.09919 73.8026 1.92685C73.6203 1.75118 73.5291 1.54238 73.5291 1.30043C73.5291 1.05516 73.6203 0.846354 73.8026 0.674005C73.9882 0.498342 74.2102 0.410511 74.4688 0.410511C74.7273 0.410511 74.9477 0.498342 75.13 0.674005C75.3156 0.846354 75.4084 1.05516 75.4084 1.30043C75.4084 1.54238 75.3156 1.75118 75.13 1.92685C74.9477 2.09919 74.7273 2.18537 74.4688 2.18537ZM78.6909 6.46591V11H77.2044V3.36364H78.6312V4.60653H78.7257C78.9013 4.20218 79.1764 3.87737 79.551 3.6321C79.9288 3.38684 80.4044 3.2642 80.9778 3.2642C81.4982 3.2642 81.9539 3.37358 82.345 3.59233C82.7361 3.80777 83.0394 4.12926 83.2548 4.55682C83.4702 4.98437 83.5779 5.51302 83.5779 6.14276V11H82.0914V6.32173C82.0914 5.76823 81.9473 5.3357 81.6589 5.02415C81.3706 4.70928 80.9745 4.55185 80.4707 4.55185C80.126 4.55185 79.8194 4.62642 79.551 4.77557C79.2858 4.92472 79.0753 5.14347 78.9196 5.43182C78.7671 5.71686 78.6909 6.06155 78.6909 6.46591ZM88.7733 14.0227C88.1667 14.0227 87.6447 13.9432 87.2072 13.7841C86.773 13.625 86.4184 13.4145 86.1433 13.1527C85.8682 12.8909 85.6627 12.6042 85.5268 12.2926L86.8045 11.7656C86.894 11.9115 87.0133 12.0656 87.1625 12.228C87.3149 12.3937 87.5204 12.5346 87.7789 12.6506C88.0408 12.7666 88.3772 12.8246 88.7882 12.8246C89.3516 12.8246 89.8173 12.687 90.1852 12.4119C90.5531 12.1402 90.737 11.706 90.737 11.1094V9.60795H90.6426C90.5531 9.77036 90.4238 9.95099 90.2548 10.1499C90.0891 10.3487 89.8604 10.5211 89.5687 10.6669C89.277 10.8127 88.8975 10.8857 88.4302 10.8857C87.827 10.8857 87.2834 10.7448 86.7995 10.4631C86.319 10.178 85.9378 9.75876 85.6561 9.20526C85.3777 8.64844 85.2385 7.96401 85.2385 7.15199C85.2385 6.33996 85.376 5.64394 85.6511 5.06392C85.9295 4.4839 86.3107 4.03977 86.7946 3.73153C87.2785 3.41998 87.827 3.2642 88.4402 3.2642C88.9141 3.2642 89.2969 3.34375 89.5886 3.50284C89.8803 3.65862 90.1073 3.84091 90.2697 4.04972C90.4354 4.25852 90.563 4.44247 90.6525 4.60156H90.7619V3.36364H92.2186V11.169C92.2186 11.8253 92.0661 12.3639 91.7612 12.7848C91.4563 13.2057 91.0436 13.5173 90.5233 13.7195C90.0062 13.9216 89.4229 14.0227 88.7733 14.0227ZM88.7583 9.6527C89.1859 9.6527 89.5472 9.55327 89.8422 9.3544C90.1404 9.15223 90.3658 8.86387 90.5183 8.48935C90.6741 8.11151 90.752 7.65909 90.752 7.1321C90.752 6.61837 90.6757 6.16596 90.5233 5.77486C90.3708 5.38376 90.1471 5.07884 89.8521 4.86009C89.5571 4.63802 89.1925 4.52699 88.7583 4.52699C88.3109 4.52699 87.938 4.64299 87.6397 4.875C87.3414 5.10369 87.1161 5.41525 86.9636 5.80966C86.8145 6.20407 86.7399 6.64489 86.7399 7.1321C86.7399 7.63258 86.8161 8.07173 86.9686 8.44957C87.121 8.82741 87.3464 9.1224 87.6447 9.33452C87.9463 9.54664 88.3175 9.6527 88.7583 9.6527ZM98.7115 6.05327V7.34091H94.1973V6.05327H98.7115ZM104.218 11.169C103.432 11.1657 102.761 10.9586 102.204 10.5476C101.647 10.1366 101.221 9.53835 100.926 8.75284C100.631 7.96733 100.484 7.02107 100.484 5.91406C100.484 4.81037 100.631 3.86742 100.926 3.08523C101.225 2.30303 101.652 1.70644 102.209 1.29545C102.769 0.884469 103.439 0.678977 104.218 0.678977C104.996 0.678977 105.664 0.886126 106.221 1.30043C106.778 1.71141 107.204 2.308 107.499 3.0902C107.797 3.86908 107.946 4.81037 107.946 5.91406C107.946 7.02438 107.799 7.9723 107.504 8.75781C107.209 9.54001 106.783 10.1383 106.226 10.5526C105.669 10.9635 105 11.169 104.218 11.169ZM104.218 9.84162C104.907 9.84162 105.445 9.50521 105.833 8.83239C106.224 8.15956 106.42 7.18679 106.42 5.91406C106.42 5.06889 106.33 4.35464 106.151 3.77131C105.976 3.18466 105.722 2.74053 105.391 2.43892C105.063 2.134 104.672 1.98153 104.218 1.98153C103.531 1.98153 102.993 2.3196 102.602 2.99574C102.211 3.67187 102.013 4.64465 102.01 5.91406C102.01 6.76255 102.098 7.48011 102.274 8.06676C102.453 8.65009 102.706 9.09257 103.034 9.39418C103.362 9.69247 103.757 9.84162 104.218 9.84162ZM113.573 0.818182V11H112.032V2.35938H111.972L109.536 3.95028V2.47869L112.076 0.818182H113.573Z" fill="black"/>
</svg>
