<svg width="61" height="12" viewBox="0 0 61 12" fill="none" xmlns="http://www.w3.org/2000/svg">
<path d="M0.118608 11V0.818182H1.60511V4.60156H1.6946C1.78078 4.44247 1.90507 4.25852 2.06747 4.04972C2.22988 3.84091 2.45526 3.65862 2.74361 3.50284C3.03196 3.34375 3.41312 3.2642 3.88707 3.2642C4.50355 3.2642 5.05374 3.41998 5.53764 3.73153C6.02154 4.04309 6.40104 4.49219 6.67614 5.07884C6.95455 5.66548 7.09375 6.37145 7.09375 7.19673C7.09375 8.02202 6.9562 8.72964 6.68111 9.3196C6.40601 9.90625 6.02817 10.3587 5.54759 10.6768C5.067 10.9917 4.51847 11.1491 3.90199 11.1491C3.43797 11.1491 3.05848 11.0713 2.76349 10.9155C2.47183 10.7597 2.24313 10.5774 2.07741 10.3686C1.9117 10.1598 1.78409 9.9742 1.6946 9.81179H1.57031V11H0.118608ZM1.57528 7.18182C1.57528 7.71875 1.65317 8.18939 1.80895 8.59375C1.96473 8.99811 2.1901 9.31463 2.48509 9.54332C2.78007 9.7687 3.14134 9.88139 3.56889 9.88139C4.01302 9.88139 4.38423 9.76373 4.68253 9.52841C4.98082 9.28977 5.2062 8.96662 5.35866 8.55895C5.51444 8.15128 5.59233 7.69223 5.59233 7.18182C5.59233 6.67803 5.5161 6.22562 5.36364 5.82457C5.21449 5.42353 4.98911 5.10701 4.6875 4.875C4.3892 4.64299 4.01634 4.52699 3.56889 4.52699C3.13802 4.52699 2.77344 4.63802 2.47514 4.86009C2.18016 5.08215 1.95644 5.39205 1.80398 5.78977C1.65152 6.1875 1.57528 6.65151 1.57528 7.18182ZM8.76296 11V3.36364H10.1998V4.5767H10.2793C10.4185 4.16572 10.6638 3.84257 11.0151 3.60724C11.3697 3.36861 11.7708 3.24929 12.2182 3.24929C12.311 3.24929 12.4204 3.2526 12.5463 3.25923C12.6756 3.26586 12.7767 3.27415 12.8496 3.28409V4.70597C12.79 4.68939 12.6839 4.67116 12.5314 4.65128C12.379 4.62808 12.2265 4.61648 12.074 4.61648C11.7227 4.61648 11.4095 4.69105 11.1344 4.8402C10.8626 4.98603 10.6472 5.18987 10.4881 5.4517C10.329 5.71023 10.2495 6.00521 10.2495 6.33665V11H8.76296ZM18.9734 7.8331V3.36364H20.4648V11H19.0032V9.67756H18.9237C18.748 10.0852 18.4663 10.425 18.0785 10.6967C17.694 10.9652 17.2151 11.0994 16.6417 11.0994C16.1512 11.0994 15.717 10.9917 15.3391 10.7763C14.9646 10.5575 14.6696 10.2344 14.4542 9.80682C14.2421 9.37926 14.136 8.85062 14.136 8.22088V3.36364H15.6225V8.0419C15.6225 8.56226 15.7667 8.97656 16.055 9.2848C16.3434 9.59304 16.7179 9.74716 17.1786 9.74716C17.457 9.74716 17.7338 9.67756 18.0089 9.53835C18.2873 9.39915 18.5176 9.18868 18.6999 8.90696C18.8855 8.62524 18.9767 8.26728 18.9734 7.8331ZM28.1845 5.22798L26.8372 5.46662C26.7808 5.29427 26.6913 5.13021 26.5687 4.97443C26.4494 4.81865 26.287 4.69105 26.0815 4.59162C25.876 4.49219 25.6191 4.44247 25.3109 4.44247C24.89 4.44247 24.5386 4.53693 24.2569 4.72585C23.9752 4.91146 23.8343 5.15175 23.8343 5.44673C23.8343 5.70194 23.9288 5.90743 24.1177 6.06321C24.3066 6.21899 24.6116 6.34659 25.0325 6.44602L26.2456 6.72443C26.9482 6.88684 27.4719 7.13707 27.8166 7.47514C28.1613 7.81321 28.3336 8.25237 28.3336 8.79261C28.3336 9.25 28.2011 9.65767 27.9359 10.0156C27.6741 10.3703 27.3078 10.6487 26.8372 10.8509C26.3699 11.053 25.8279 11.1541 25.2115 11.1541C24.3564 11.1541 23.6587 10.9718 23.1184 10.6072C22.5782 10.2393 22.2467 9.71733 22.1241 9.04119L23.5609 8.82244C23.6504 9.19697 23.8343 9.48035 24.1127 9.67259C24.3912 9.86151 24.7541 9.95597 25.2015 9.95597C25.6887 9.95597 26.0782 9.85488 26.3699 9.6527C26.6615 9.44721 26.8074 9.19697 26.8074 8.90199C26.8074 8.66335 26.7179 8.46283 26.5389 8.30043C26.3632 8.13802 26.0931 8.01539 25.7285 7.93253L24.4359 7.64915C23.7233 7.48674 23.1963 7.22822 22.8549 6.87358C22.5169 6.51894 22.3478 6.06984 22.3478 5.52628C22.3478 5.07552 22.4738 4.68111 22.7257 4.34304C22.9776 4.00497 23.3256 3.74148 23.7697 3.55256C24.2138 3.36032 24.7226 3.2642 25.296 3.2642C26.1213 3.2642 26.7709 3.44318 27.2449 3.80114C27.7188 4.15578 28.032 4.63139 28.1845 5.22798ZM31.4545 6.46591V11H29.968V0.818182H31.4347V4.60653H31.5291C31.7081 4.19555 31.9815 3.86908 32.3494 3.62713C32.7173 3.38518 33.1979 3.2642 33.7912 3.2642C34.3149 3.2642 34.7723 3.37192 35.1634 3.58736C35.5578 3.80279 35.8627 4.12429 36.0781 4.55185C36.2969 4.97609 36.4062 5.50639 36.4062 6.14276V11H34.9197V6.32173C34.9197 5.7616 34.7756 5.32741 34.4872 5.01918C34.1989 4.70762 33.7978 4.55185 33.2841 4.55185C32.9328 4.55185 32.6179 4.62642 32.3395 4.77557C32.0644 4.92472 31.8473 5.14347 31.6882 5.43182C31.5324 5.71686 31.4545 6.06155 31.4545 6.46591ZM42.8892 6.05327V7.34091H38.375V6.05327H42.8892ZM48.3952 11.169C47.6097 11.1657 46.9386 10.9586 46.3817 10.5476C45.8249 10.1366 45.399 9.53835 45.104 8.75284C44.8091 7.96733 44.6616 7.02107 44.6616 5.91406C44.6616 4.81037 44.8091 3.86742 45.104 3.08523C45.4023 2.30303 45.8299 1.70644 46.3867 1.29545C46.9469 0.884469 47.6164 0.678977 48.3952 0.678977C49.1741 0.678977 49.842 0.886126 50.3988 1.30043C50.9556 1.71141 51.3815 2.308 51.6765 3.0902C51.9748 3.86908 52.1239 4.81037 52.1239 5.91406C52.1239 7.02438 51.9764 7.9723 51.6815 8.75781C51.3865 9.54001 50.9606 10.1383 50.4038 10.5526C49.8469 10.9635 49.1774 11.169 48.3952 11.169ZM48.3952 9.84162C49.0846 9.84162 49.6232 9.50521 50.011 8.83239C50.4021 8.15956 50.5977 7.18679 50.5977 5.91406C50.5977 5.06889 50.5082 4.35464 50.3292 3.77131C50.1535 3.18466 49.9 2.74053 49.5685 2.43892C49.2404 2.134 48.8493 1.98153 48.3952 1.98153C47.7092 1.98153 47.1706 2.3196 46.7795 2.99574C46.3884 3.67187 46.1912 4.64465 46.1879 5.91406C46.1879 6.76255 46.2757 7.48011 46.4513 8.06676C46.6303 8.65009 46.8839 9.09257 47.212 9.39418C47.5401 9.69247 47.9345 9.84162 48.3952 9.84162ZM53.8876 11V9.88636L57.3329 6.31676C57.7008 5.92898 58.0041 5.58925 58.2427 5.29759C58.4847 5.0026 58.6653 4.72254 58.7846 4.45739C58.9039 4.19223 58.9636 3.91051 58.9636 3.61222C58.9636 3.27415 58.8841 2.98248 58.725 2.73722C58.5659 2.48864 58.3488 2.29806 58.0737 2.16548C57.7986 2.02959 57.4887 1.96165 57.144 1.96165C56.7794 1.96165 56.4612 2.03622 56.1895 2.18537C55.9177 2.33452 55.7089 2.54498 55.563 2.81676C55.4172 3.08854 55.3443 3.40672 55.3443 3.77131H53.8777C53.8777 3.15151 54.0202 2.60961 54.3052 2.1456C54.5903 1.68158 54.9814 1.32197 55.4785 1.06676C55.9757 0.808238 56.5408 0.678977 57.1738 0.678977C57.8135 0.678977 58.377 0.806581 58.8642 1.06179C59.3547 1.31368 59.7375 1.65838 60.0126 2.09588C60.2877 2.53007 60.4252 3.0206 60.4252 3.56747C60.4252 3.94531 60.354 4.31487 60.2115 4.67614C60.0723 5.0374 59.8287 5.4401 59.4806 5.88423C59.1326 6.32505 58.6487 6.86032 58.0289 7.49006L56.0055 9.60795V9.68253H60.5893V11H53.8876Z" fill="black"/>
</svg>
