<svg width="100" height="12" viewBox="0 0 100 12" fill="none" xmlns="http://www.w3.org/2000/svg">
<path d="M3.22159 11.169C2.73769 11.169 2.30019 11.0795 1.90909 10.9006C1.51799 10.7183 1.2081 10.4548 0.979403 10.1101C0.754025 9.76539 0.641335 9.3428 0.641335 8.84233C0.641335 8.41146 0.724195 8.05682 0.889915 7.77841C1.05563 7.5 1.27936 7.27959 1.56108 7.11719C1.8428 6.95478 2.15767 6.83215 2.50568 6.74929C2.85369 6.66643 3.20833 6.60346 3.5696 6.56037C4.02699 6.50734 4.3982 6.46425 4.68324 6.43111C4.96828 6.39465 5.17543 6.33665 5.30469 6.2571C5.43395 6.17756 5.49858 6.0483 5.49858 5.86932V5.83452C5.49858 5.40033 5.37595 5.06392 5.13068 4.82528C4.88873 4.58665 4.52746 4.46733 4.04688 4.46733C3.5464 4.46733 3.15199 4.57836 2.86364 4.80043C2.5786 5.01918 2.38139 5.26278 2.27202 5.53125L0.875 5.21307C1.04072 4.74905 1.28267 4.37453 1.60085 4.08949C1.92235 3.80114 2.2919 3.59233 2.70952 3.46307C3.12713 3.33049 3.56629 3.2642 4.02699 3.2642C4.33191 3.2642 4.65507 3.30066 4.99645 3.37358C5.34115 3.44318 5.66264 3.57244 5.96094 3.76136C6.26255 3.95028 6.50947 4.22041 6.7017 4.57173C6.89394 4.91974 6.99006 5.37216 6.99006 5.92898V11H5.53835V9.95597H5.47869C5.38258 10.1482 5.2384 10.3371 5.04616 10.5227C4.85393 10.7083 4.60701 10.8625 4.3054 10.9851C4.00379 11.1077 3.64252 11.169 3.22159 11.169ZM3.54474 9.97585C3.95573 9.97585 4.30706 9.89465 4.59872 9.73224C4.8937 9.56984 5.11742 9.35772 5.26989 9.09588C5.42566 8.83073 5.50355 8.54735 5.50355 8.24574V7.26136C5.45052 7.31439 5.34777 7.36411 5.19531 7.41051C5.04616 7.4536 4.87547 7.49171 4.68324 7.52486C4.491 7.55469 4.30374 7.58286 4.12145 7.60938C3.93916 7.63258 3.7867 7.65246 3.66406 7.66903C3.37571 7.70549 3.11222 7.76681 2.87358 7.85298C2.63826 7.93916 2.44934 8.06345 2.30682 8.22585C2.16761 8.38494 2.09801 8.59706 2.09801 8.86222C2.09801 9.23011 2.2339 9.50852 2.50568 9.69744C2.77746 9.88305 3.12382 9.97585 3.54474 9.97585ZM12.5346 3.36364V4.55682H8.36346V3.36364H12.5346ZM9.48207 1.53409H10.9686V8.75781C10.9686 9.04616 11.0117 9.26326 11.0978 9.40909C11.184 9.55161 11.295 9.64938 11.4309 9.70241C11.5701 9.75213 11.7209 9.77699 11.8833 9.77699C12.0027 9.77699 12.1071 9.7687 12.1966 9.75213C12.286 9.73556 12.3556 9.7223 12.4054 9.71236L12.6738 10.9403C12.5877 10.9735 12.465 11.0066 12.3059 11.0398C12.1468 11.0762 11.948 11.0961 11.7093 11.0994C11.3182 11.1061 10.9537 11.0365 10.6156 10.8906C10.2775 10.7448 10.0041 10.5194 9.79528 10.2145C9.58647 9.90956 9.48207 9.52675 9.48207 9.06605V1.53409ZM17.7436 3.36364V4.55682H13.5724V3.36364H17.7436ZM14.6911 1.53409H16.1776V8.75781C16.1776 9.04616 16.2206 9.26326 16.3068 9.40909C16.393 9.55161 16.504 9.64938 16.6399 9.70241C16.7791 9.75213 16.9299 9.77699 17.0923 9.77699C17.2116 9.77699 17.3161 9.7687 17.4055 9.75213C17.495 9.73556 17.5646 9.7223 17.6143 9.71236L17.8828 10.9403C17.7966 10.9735 17.674 11.0066 17.5149 11.0398C17.3558 11.0762 17.157 11.0961 16.9183 11.0994C16.5272 11.1061 16.1626 11.0365 15.8246 10.8906C15.4865 10.7448 15.2131 10.5194 15.0043 10.2145C14.7955 9.90956 14.6911 9.52675 14.6911 9.06605V1.53409ZM21.6103 11.169C21.1264 11.169 20.6889 11.0795 20.2978 10.9006C19.9067 10.7183 19.5968 10.4548 19.3681 10.1101C19.1427 9.76539 19.03 9.3428 19.03 8.84233C19.03 8.41146 19.1129 8.05682 19.2786 7.77841C19.4443 7.5 19.668 7.27959 19.9498 7.11719C20.2315 6.95478 20.5463 6.83215 20.8944 6.74929C21.2424 6.66643 21.597 6.60346 21.9583 6.56037C22.4157 6.50734 22.7869 6.46425 23.0719 6.43111C23.3569 6.39465 23.5641 6.33665 23.6934 6.2571C23.8226 6.17756 23.8873 6.0483 23.8873 5.86932V5.83452C23.8873 5.40033 23.7646 5.06392 23.5194 4.82528C23.2774 4.58665 22.9161 4.46733 22.4355 4.46733C21.9351 4.46733 21.5407 4.57836 21.2523 4.80043C20.9673 5.01918 20.7701 5.26278 20.6607 5.53125L19.2637 5.21307C19.4294 4.74905 19.6713 4.37453 19.9895 4.08949C20.311 3.80114 20.6806 3.59233 21.0982 3.46307C21.5158 3.33049 21.955 3.2642 22.4157 3.2642C22.7206 3.2642 23.0437 3.30066 23.3851 3.37358C23.7298 3.44318 24.0513 3.57244 24.3496 3.76136C24.6512 3.95028 24.8981 4.22041 25.0904 4.57173C25.2826 4.91974 25.3787 5.37216 25.3787 5.92898V11H23.927V9.95597H23.8674C23.7712 10.1482 23.6271 10.3371 23.4348 10.5227C23.2426 10.7083 22.9957 10.8625 22.6941 10.9851C22.3925 11.1077 22.0312 11.169 21.6103 11.169ZM21.9334 9.97585C22.3444 9.97585 22.6957 9.89465 22.9874 9.73224C23.2824 9.56984 23.5061 9.35772 23.6586 9.09588C23.8143 8.83073 23.8922 8.54735 23.8922 8.24574V7.26136C23.8392 7.31439 23.7364 7.36411 23.584 7.41051C23.4348 7.4536 23.2641 7.49171 23.0719 7.52486C22.8797 7.55469 22.6924 7.58286 22.5101 7.60938C22.3278 7.63258 22.1754 7.65246 22.0527 7.66903C21.7644 7.70549 21.5009 7.76681 21.2623 7.85298C21.0269 7.93916 20.838 8.06345 20.6955 8.22585C20.5563 8.38494 20.4867 8.59706 20.4867 8.86222C20.4867 9.23011 20.6226 9.50852 20.8944 9.69744C21.1661 9.88305 21.5125 9.97585 21.9334 9.97585ZM30.5753 11.1541C29.8362 11.1541 29.1998 10.9867 28.6662 10.652C28.1359 10.3139 27.7282 9.84825 27.4432 9.25497C27.1581 8.66169 27.0156 7.98224 27.0156 7.21662C27.0156 6.44105 27.1615 5.75663 27.4531 5.16335C27.7448 4.56676 28.1558 4.10109 28.6861 3.76633C29.2164 3.43158 29.8411 3.2642 30.5604 3.2642C31.1404 3.2642 31.6574 3.37192 32.1115 3.58736C32.5656 3.79948 32.9318 4.09777 33.2102 4.48224C33.492 4.86671 33.6593 5.31581 33.7124 5.82955H32.2656C32.1861 5.47159 32.0038 5.16335 31.7188 4.90483C31.437 4.64631 31.0592 4.51705 30.5852 4.51705C30.1709 4.51705 29.808 4.62642 29.4964 4.84517C29.1882 5.06061 28.9479 5.36884 28.7756 5.76989C28.6032 6.16761 28.517 6.63826 28.517 7.18182C28.517 7.73864 28.6016 8.21922 28.7706 8.62358C28.9396 9.02794 29.1783 9.34115 29.4865 9.56321C29.7981 9.78527 30.1643 9.89631 30.5852 9.89631C30.867 9.89631 31.1222 9.84493 31.3509 9.74219C31.5829 9.63613 31.7768 9.48532 31.9325 9.28977C32.0916 9.09422 32.2027 8.8589 32.2656 8.58381H33.7124C33.6593 9.07765 33.4986 9.51847 33.2301 9.90625C32.9616 10.294 32.602 10.599 32.1513 10.821C31.7038 11.0431 31.1785 11.1541 30.5753 11.1541ZM36.7885 6.46591V11H35.302V0.818182H36.7686V4.60653H36.8631C37.0421 4.19555 37.3155 3.86908 37.6834 3.62713C38.0513 3.38518 38.5319 3.2642 39.1252 3.2642C39.6489 3.2642 40.1062 3.37192 40.4973 3.58736C40.8917 3.80279 41.1967 4.12429 41.4121 4.55185C41.6309 4.97609 41.7402 5.50639 41.7402 6.14276V11H40.2537V6.32173C40.2537 5.7616 40.1096 5.32741 39.8212 5.01918C39.5328 4.70762 39.1318 4.55185 38.6181 4.55185C38.2667 4.55185 37.9519 4.62642 37.6735 4.77557C37.3984 4.92472 37.1813 5.14347 37.0222 5.43182C36.8664 5.71686 36.7885 6.06155 36.7885 6.46591ZM43.7239 11V3.36364H45.1507V4.60653H45.2452C45.4043 4.18561 45.6645 3.85748 46.0257 3.62216C46.387 3.38352 46.8195 3.2642 47.3233 3.2642C47.8337 3.2642 48.2613 3.38352 48.606 3.62216C48.954 3.8608 49.2109 4.18892 49.3766 4.60653H49.4561C49.6384 4.19886 49.9284 3.87405 50.3262 3.6321C50.7239 3.38684 51.1979 3.2642 51.748 3.2642C52.4408 3.2642 53.0059 3.4813 53.4434 3.91548C53.8842 4.34967 54.1046 5.00426 54.1046 5.87926V11H52.6181V6.01847C52.6181 5.50142 52.4772 5.12689 52.1955 4.89489C51.9138 4.66288 51.5774 4.54688 51.1863 4.54688C50.7024 4.54688 50.3262 4.69602 50.0577 4.99432C49.7892 5.2893 49.655 5.6688 49.655 6.13281V11H48.1735V5.92401C48.1735 5.50971 48.0442 5.17661 47.7857 4.92472C47.5272 4.67282 47.1908 4.54688 46.7765 4.54688C46.4947 4.54688 46.2346 4.62145 45.9959 4.7706C45.7606 4.91643 45.57 5.12026 45.4242 5.3821C45.2817 5.64394 45.2104 5.94721 45.2104 6.2919V11H43.7239ZM59.3881 11.1541C58.6358 11.1541 57.9878 10.9934 57.4442 10.6719C56.904 10.3471 56.4864 9.89134 56.1914 9.30469C55.8997 8.71473 55.7539 8.02367 55.7539 7.23153C55.7539 6.44934 55.8997 5.75994 56.1914 5.16335C56.4864 4.56676 56.8974 4.10109 57.4244 3.76633C57.9547 3.43158 58.5745 3.2642 59.2837 3.2642C59.7146 3.2642 60.1322 3.33546 60.5366 3.47798C60.9409 3.6205 61.3039 3.84422 61.6254 4.14915C61.9469 4.45407 62.2004 4.85014 62.386 5.33736C62.5716 5.82126 62.6644 6.40956 62.6644 7.10227V7.62926H56.5941V6.51562H61.2077C61.2077 6.12453 61.1282 5.77817 60.9691 5.47656C60.81 5.17164 60.5863 4.93134 60.2979 4.75568C60.0129 4.58002 59.6781 4.49219 59.2937 4.49219C58.8761 4.49219 58.5115 4.59493 58.1999 4.80043C57.8917 5.0026 57.6531 5.26776 57.484 5.59588C57.3183 5.92069 57.2354 6.27367 57.2354 6.65483V7.52486C57.2354 8.03527 57.3249 8.46946 57.5039 8.82741C57.6862 9.18537 57.9397 9.45881 58.2646 9.64773C58.5894 9.83333 58.9689 9.92614 59.4031 9.92614C59.6848 9.92614 59.9416 9.88636 60.1737 9.80682C60.4057 9.72396 60.6062 9.60133 60.7752 9.43892C60.9442 9.27652 61.0735 9.07599 61.163 8.83736L62.57 9.09091C62.4573 9.50521 62.2551 9.86813 61.9634 10.1797C61.6751 10.4879 61.3121 10.7282 60.8746 10.9006C60.4405 11.0696 59.945 11.1541 59.3881 11.1541ZM65.8002 6.46591V11H64.3137V3.36364H65.7406V4.60653H65.835C66.0107 4.20218 66.2858 3.87737 66.6603 3.6321C67.0382 3.38684 67.5138 3.2642 68.0872 3.2642C68.6075 3.2642 69.0633 3.37358 69.4544 3.59233C69.8455 3.80777 70.1487 4.12926 70.3642 4.55682C70.5796 4.98437 70.6873 5.51302 70.6873 6.14276V11H69.2008V6.32173C69.2008 5.76823 69.0566 5.3357 68.7683 5.02415C68.4799 4.70928 68.0839 4.55185 67.5801 4.55185C67.2354 4.55185 66.9288 4.62642 66.6603 4.77557C66.3952 4.92472 66.1847 5.14347 66.0289 5.43182C65.8765 5.71686 65.8002 6.06155 65.8002 6.46591ZM76.2456 3.36364V4.55682H72.0744V3.36364H76.2456ZM73.193 1.53409H74.6795V8.75781C74.6795 9.04616 74.7226 9.26326 74.8088 9.40909C74.8949 9.55161 75.006 9.64938 75.1419 9.70241C75.2811 9.75213 75.4319 9.77699 75.5943 9.77699C75.7136 9.77699 75.818 9.7687 75.9075 9.75213C75.997 9.73556 76.0666 9.7223 76.1163 9.71236L76.3848 10.9403C76.2986 10.9735 76.176 11.0066 76.0169 11.0398C75.8578 11.0762 75.6589 11.0961 75.4203 11.0994C75.0292 11.1061 74.6646 11.0365 74.3265 10.8906C73.9885 10.7448 73.715 10.5194 73.5062 10.2145C73.2974 9.90956 73.193 9.52675 73.193 9.06605V1.53409ZM82.1294 6.05327V7.34091H77.6152V6.05327H82.1294ZM87.6355 11.169C86.85 11.1657 86.1788 10.9586 85.622 10.5476C85.0652 10.1366 84.6393 9.53835 84.3443 8.75284C84.0493 7.96733 83.9018 7.02107 83.9018 5.91406C83.9018 4.81037 84.0493 3.86742 84.3443 3.08523C84.6426 2.30303 85.0701 1.70644 85.627 1.29545C86.1871 0.884469 86.8566 0.678977 87.6355 0.678977C88.4144 0.678977 89.0822 0.886126 89.639 1.30043C90.1958 1.71141 90.6217 2.308 90.9167 3.0902C91.215 3.86908 91.3642 4.81037 91.3642 5.91406C91.3642 7.02438 91.2167 7.9723 90.9217 8.75781C90.6267 9.54001 90.2008 10.1383 89.644 10.5526C89.0872 10.9635 88.4177 11.169 87.6355 11.169ZM87.6355 9.84162C88.3249 9.84162 88.8635 9.50521 89.2512 8.83239C89.6423 8.15956 89.8379 7.18679 89.8379 5.91406C89.8379 5.06889 89.7484 4.35464 89.5694 3.77131C89.3938 3.18466 89.1402 2.74053 88.8088 2.43892C88.4806 2.134 88.0895 1.98153 87.6355 1.98153C86.9494 1.98153 86.4108 2.3196 86.0197 2.99574C85.6286 3.67187 85.4314 4.64465 85.4281 5.91406C85.4281 6.76255 85.5159 7.48011 85.6916 8.06676C85.8706 8.65009 86.1241 9.09257 86.4522 9.39418C86.7804 9.69247 87.1748 9.84162 87.6355 9.84162ZM93.1278 11V9.88636L96.5732 6.31676C96.9411 5.92898 97.2443 5.58925 97.483 5.29759C97.7249 5.0026 97.9055 4.72254 98.0249 4.45739C98.1442 4.19223 98.2038 3.91051 98.2038 3.61222C98.2038 3.27415 98.1243 2.98248 97.9652 2.73722C97.8061 2.48864 97.589 2.29806 97.3139 2.16548C97.0388 2.02959 96.7289 1.96165 96.3842 1.96165C96.0196 1.96165 95.7015 2.03622 95.4297 2.18537C95.1579 2.33452 94.9491 2.54498 94.8033 2.81676C94.6574 3.08854 94.5845 3.40672 94.5845 3.77131H93.1179C93.1179 3.15151 93.2604 2.60961 93.5455 2.1456C93.8305 1.68158 94.2216 1.32197 94.7188 1.06676C95.2159 0.808238 95.781 0.678977 96.4141 0.678977C97.0537 0.678977 97.6172 0.806581 98.1044 1.06179C98.5949 1.31368 98.9777 1.65838 99.2528 2.09588C99.5279 2.53007 99.6655 3.0206 99.6655 3.56747C99.6655 3.94531 99.5942 4.31487 99.4517 4.67614C99.3125 5.0374 99.0689 5.4401 98.7209 5.88423C98.3729 6.32505 97.889 6.86032 97.2692 7.49006L95.2457 9.60795V9.68253H99.8295V11H93.1278Z" fill="black"/>
</svg>
