<svg width="64" height="12" viewBox="0 0 64 12" fill="none" xmlns="http://www.w3.org/2000/svg">
<path d="M4.21591 11.1541C3.4768 11.1541 2.84044 10.9867 2.30682 10.652C1.77652 10.3139 1.36884 9.84825 1.08381 9.25497C0.798769 8.66169 0.65625 7.98224 0.65625 7.21662C0.65625 6.44105 0.802083 5.75663 1.09375 5.16335C1.38542 4.56676 1.7964 4.10109 2.3267 3.76633C2.85701 3.43158 3.48177 3.2642 4.20099 3.2642C4.78101 3.2642 5.29806 3.37192 5.75213 3.58736C6.2062 3.79948 6.57244 4.09777 6.85085 4.48224C7.13258 4.86671 7.29995 5.31581 7.35298 5.82955H5.90625C5.8267 5.47159 5.64441 5.16335 5.35938 4.90483C5.07765 4.64631 4.69981 4.51705 4.22585 4.51705C3.81155 4.51705 3.44863 4.62642 3.13707 4.84517C2.82884 5.06061 2.58854 5.36884 2.41619 5.76989C2.24384 6.16761 2.15767 6.63826 2.15767 7.18182C2.15767 7.73864 2.24219 8.21922 2.41122 8.62358C2.58026 9.02794 2.81889 9.34115 3.12713 9.56321C3.43868 9.78527 3.80492 9.89631 4.22585 9.89631C4.50758 9.89631 4.76278 9.84493 4.99148 9.74219C5.22349 9.63613 5.41738 9.48532 5.57315 9.28977C5.73224 9.09422 5.84328 8.8589 5.90625 8.58381H7.35298C7.29995 9.07765 7.1392 9.51847 6.87074 9.90625C6.60227 10.294 6.24266 10.599 5.7919 10.821C5.34446 11.0431 4.81913 11.1541 4.21591 11.1541ZM8.94265 11V3.36364H10.4292V11H8.94265ZM9.69336 2.18537C9.43484 2.18537 9.21277 2.09919 9.02717 1.92685C8.84487 1.75118 8.75373 1.54238 8.75373 1.30043C8.75373 1.05516 8.84487 0.846354 9.02717 0.674005C9.21277 0.498342 9.43484 0.410511 9.69336 0.410511C9.95188 0.410511 10.1723 0.498342 10.3546 0.674005C10.5402 0.846354 10.633 1.05516 10.633 1.30043C10.633 1.54238 10.5402 1.75118 10.3546 1.92685C10.1723 2.09919 9.95188 2.18537 9.69336 2.18537ZM12.429 11V3.36364H13.8658V4.5767H13.9453C14.0845 4.16572 14.3298 3.84257 14.6811 3.60724C15.0357 3.36861 15.4368 3.24929 15.8842 3.24929C15.977 3.24929 16.0864 3.2526 16.2124 3.25923C16.3416 3.26586 16.4427 3.27415 16.5156 3.28409V4.70597C16.456 4.68939 16.3499 4.67116 16.1974 4.65128C16.045 4.62808 15.8925 4.61648 15.7401 4.61648C15.3887 4.61648 15.0755 4.69105 14.8004 4.8402C14.5286 4.98603 14.3132 5.18987 14.1541 5.4517C13.995 5.71023 13.9155 6.00521 13.9155 6.33665V11H12.429ZM20.7452 11.1541C20.0061 11.1541 19.3697 10.9867 18.8361 10.652C18.3058 10.3139 17.8981 9.84825 17.6131 9.25497C17.3281 8.66169 17.1855 7.98224 17.1855 7.21662C17.1855 6.44105 17.3314 5.75663 17.623 5.16335C17.9147 4.56676 18.3257 4.10109 18.856 3.76633C19.3863 3.43158 20.0111 3.2642 20.7303 3.2642C21.3103 3.2642 21.8274 3.37192 22.2814 3.58736C22.7355 3.79948 23.1017 4.09777 23.3801 4.48224C23.6619 4.86671 23.8292 5.31581 23.8823 5.82955H22.4355C22.356 5.47159 22.1737 5.16335 21.8887 4.90483C21.6069 4.64631 21.2291 4.51705 20.7551 4.51705C20.3409 4.51705 19.9779 4.62642 19.6664 4.84517C19.3581 5.06061 19.1178 5.36884 18.9455 5.76989C18.7731 6.16761 18.687 6.63826 18.687 7.18182C18.687 7.73864 18.7715 8.21922 18.9405 8.62358C19.1096 9.02794 19.3482 9.34115 19.6564 9.56321C19.968 9.78527 20.3342 9.89631 20.7551 9.89631C21.0369 9.89631 21.2921 9.84493 21.5208 9.74219C21.7528 9.63613 21.9467 9.48532 22.1025 9.28977C22.2615 9.09422 22.3726 8.8589 22.4355 8.58381H23.8823C23.8292 9.07765 23.6685 9.51847 23.4 9.90625C23.1316 10.294 22.772 10.599 22.3212 10.821C21.8738 11.0431 21.3484 11.1541 20.7452 11.1541ZM26.9585 0.818182V11H25.4719V0.818182H26.9585ZM32.2495 11.1541C31.4971 11.1541 30.8491 10.9934 30.3056 10.6719C29.7653 10.3471 29.3477 9.89134 29.0527 9.30469C28.7611 8.71473 28.6152 8.02367 28.6152 7.23153C28.6152 6.44934 28.7611 5.75994 29.0527 5.16335C29.3477 4.56676 29.7587 4.10109 30.2857 3.76633C30.816 3.43158 31.4358 3.2642 32.1451 3.2642C32.5759 3.2642 32.9935 3.33546 33.3979 3.47798C33.8023 3.6205 34.1652 3.84422 34.4867 4.14915C34.8082 4.45407 35.0617 4.85014 35.2473 5.33736C35.4329 5.82126 35.5257 6.40956 35.5257 7.10227V7.62926H29.4554V6.51562H34.0691C34.0691 6.12453 33.9895 5.77817 33.8304 5.47656C33.6713 5.17164 33.4476 4.93134 33.1593 4.75568C32.8742 4.58002 32.5395 4.49219 32.155 4.49219C31.7374 4.49219 31.3728 4.59493 31.0613 4.80043C30.753 5.0026 30.5144 5.26776 30.3453 5.59588C30.1796 5.92069 30.0968 6.27367 30.0968 6.65483V7.52486C30.0968 8.03527 30.1863 8.46946 30.3652 8.82741C30.5475 9.18537 30.8011 9.45881 31.1259 9.64773C31.4507 9.83333 31.8302 9.92614 32.2644 9.92614C32.5461 9.92614 32.803 9.88636 33.035 9.80682C33.267 9.72396 33.4675 9.60133 33.6365 9.43892C33.8056 9.27652 33.9348 9.07599 34.0243 8.83736L35.4313 9.09091C35.3186 9.50521 35.1164 9.86813 34.8248 10.1797C34.5364 10.4879 34.1735 10.7282 33.736 10.9006C33.3018 11.0696 32.8063 11.1541 32.2495 11.1541ZM41.6744 6.05327V7.34091H37.1602V6.05327H41.6744ZM46.8722 11.1541C46.133 11.1541 45.4967 10.9867 44.9631 10.652C44.4328 10.3139 44.0251 9.84825 43.7401 9.25497C43.455 8.66169 43.3125 7.98224 43.3125 7.21662C43.3125 6.44105 43.4583 5.75663 43.75 5.16335C44.0417 4.56676 44.4527 4.10109 44.983 3.76633C45.5133 3.43158 46.138 3.2642 46.8572 3.2642C47.4373 3.2642 47.9543 3.37192 48.4084 3.58736C48.8625 3.79948 49.2287 4.09777 49.5071 4.48224C49.7888 4.86671 49.9562 5.31581 50.0092 5.82955H48.5625C48.483 5.47159 48.3007 5.16335 48.0156 4.90483C47.7339 4.64631 47.3561 4.51705 46.8821 4.51705C46.4678 4.51705 46.1049 4.62642 45.7933 4.84517C45.4851 5.06061 45.2448 5.36884 45.0724 5.76989C44.9001 6.16761 44.8139 6.63826 44.8139 7.18182C44.8139 7.73864 44.8984 8.21922 45.0675 8.62358C45.2365 9.02794 45.4751 9.34115 45.7834 9.56321C46.0949 9.78527 46.4612 9.89631 46.8821 9.89631C47.1638 9.89631 47.419 9.84493 47.6477 9.74219C47.8797 9.63613 48.0736 9.48532 48.2294 9.28977C48.3885 9.09422 48.4995 8.8589 48.5625 8.58381H50.0092C49.9562 9.07765 49.7955 9.51847 49.527 9.90625C49.2585 10.294 48.8989 10.599 48.4482 10.821C48.0007 11.0431 47.4754 11.1541 46.8722 11.1541ZM56.4363 7.8331V3.36364H57.9277V11H56.4661V9.67756H56.3865C56.2109 10.0852 55.9292 10.425 55.5414 10.6967C55.1569 10.9652 54.678 11.0994 54.1046 11.0994C53.6141 11.0994 53.1799 10.9917 52.802 10.7763C52.4275 10.5575 52.1325 10.2344 51.9171 9.80682C51.705 9.37926 51.5989 8.85062 51.5989 8.22088V3.36364H53.0854V8.0419C53.0854 8.56226 53.2296 8.97656 53.5179 9.2848C53.8063 9.59304 54.1808 9.74716 54.6415 9.74716C54.9199 9.74716 55.1967 9.67756 55.4718 9.53835C55.7502 9.39915 55.9805 9.18868 56.1628 8.90696C56.3484 8.62524 56.4396 8.26728 56.4363 7.8331ZM63.4897 3.36364V4.55682H59.3185V3.36364H63.4897ZM60.4371 1.53409H61.9237V8.75781C61.9237 9.04616 61.9667 9.26326 62.0529 9.40909C62.1391 9.55161 62.2501 9.64938 62.386 9.70241C62.5252 9.75213 62.676 9.77699 62.8384 9.77699C62.9577 9.77699 63.0621 9.7687 63.1516 9.75213C63.2411 9.73556 63.3107 9.7223 63.3604 9.71236L63.6289 10.9403C63.5427 10.9735 63.4201 11.0066 63.261 11.0398C63.1019 11.0762 62.9031 11.0961 62.6644 11.0994C62.2733 11.1061 61.9087 11.0365 61.5707 10.8906C61.2326 10.7448 60.9592 10.5194 60.7504 10.2145C60.5415 9.90956 60.4371 9.52675 60.4371 9.06605V1.53409Z" fill="black"/>
</svg>
