<svg width="99" height="15" viewBox="0 0 99 15" fill="none" xmlns="http://www.w3.org/2000/svg">
<path d="M-0.000710189 11V3.36364H1.43608V4.5767H1.51562C1.65483 4.16572 1.90009 3.84257 2.25142 3.60724C2.60606 3.36861 3.0071 3.24929 3.45455 3.24929C3.54735 3.24929 3.65672 3.2526 3.78267 3.25923C3.91193 3.26586 4.01302 3.27415 4.08594 3.28409V4.70597C4.02628 4.68939 3.92022 4.67116 3.76776 4.65128C3.61529 4.62808 3.46283 4.61648 3.31037 4.61648C2.95904 4.61648 2.64583 4.69105 2.37074 4.8402C2.09896 4.98603 1.88352 5.18987 1.72443 5.4517C1.56534 5.71023 1.4858 6.00521 1.4858 6.33665V11H-0.000710189ZM5.37234 11V3.36364H6.85884V11H5.37234ZM6.12305 2.18537C5.86452 2.18537 5.64246 2.09919 5.45685 1.92685C5.27456 1.75118 5.18342 1.54238 5.18342 1.30043C5.18342 1.05516 5.27456 0.846354 5.45685 0.674005C5.64246 0.498342 5.86452 0.410511 6.12305 0.410511C6.38157 0.410511 6.60198 0.498342 6.78427 0.674005C6.96987 0.846354 7.06268 1.05516 7.06268 1.30043C7.06268 1.54238 6.96987 1.75118 6.78427 1.92685C6.60198 2.09919 6.38157 2.18537 6.12305 2.18537ZM12.0604 14.0227C11.4538 14.0227 10.9318 13.9432 10.4943 13.7841C10.0601 13.625 9.70549 13.4145 9.4304 13.1527C9.1553 12.8909 8.94981 12.6042 8.81392 12.2926L10.0916 11.7656C10.1811 11.9115 10.3004 12.0656 10.4496 12.228C10.602 12.3937 10.8075 12.5346 11.0661 12.6506C11.3279 12.7666 11.6643 12.8246 12.0753 12.8246C12.6387 12.8246 13.1044 12.687 13.4723 12.4119C13.8402 12.1402 14.0241 11.706 14.0241 11.1094V9.60795H13.9297C13.8402 9.77036 13.7109 9.95099 13.5419 10.1499C13.3762 10.3487 13.1475 10.5211 12.8558 10.6669C12.5642 10.8127 12.1847 10.8857 11.7173 10.8857C11.1141 10.8857 10.5705 10.7448 10.0866 10.4631C9.60606 10.178 9.22491 9.75876 8.94318 9.20526C8.66477 8.64844 8.52557 7.96401 8.52557 7.15199C8.52557 6.33996 8.66312 5.64394 8.93821 5.06392C9.21662 4.4839 9.59777 4.03977 10.0817 3.73153C10.5656 3.41998 11.1141 3.2642 11.7273 3.2642C12.2012 3.2642 12.584 3.34375 12.8757 3.50284C13.1674 3.65862 13.3944 3.84091 13.5568 4.04972C13.7225 4.25852 13.8501 4.44247 13.9396 4.60156H14.049V3.36364H15.5057V11.169C15.5057 11.8253 15.3532 12.3639 15.0483 12.7848C14.7434 13.2057 14.3307 13.5173 13.8104 13.7195C13.2933 13.9216 12.71 14.0227 12.0604 14.0227ZM12.0455 9.6527C12.473 9.6527 12.8343 9.55327 13.1293 9.3544C13.4276 9.15223 13.6529 8.86387 13.8054 8.48935C13.9612 8.11151 14.0391 7.65909 14.0391 7.1321C14.0391 6.61837 13.9628 6.16596 13.8104 5.77486C13.6579 5.38376 13.4342 5.07884 13.1392 4.86009C12.8442 4.63802 12.4796 4.52699 12.0455 4.52699C11.598 4.52699 11.2251 4.64299 10.9268 4.875C10.6286 5.10369 10.4032 5.41525 10.2507 5.80966C10.1016 6.20407 10.027 6.64489 10.027 7.1321C10.027 7.63258 10.1032 8.07173 10.2557 8.44957C10.4081 8.82741 10.6335 9.1224 10.9318 9.33452C11.2334 9.54664 11.6046 9.6527 12.0455 9.6527ZM18.9858 6.46591V11H17.4993V0.818182H18.9659V4.60653H19.0604C19.2393 4.19555 19.5128 3.86908 19.8807 3.62713C20.2486 3.38518 20.7292 3.2642 21.3224 3.2642C21.8461 3.2642 22.3035 3.37192 22.6946 3.58736C23.089 3.80279 23.3939 4.12429 23.6094 4.55185C23.8281 4.97609 23.9375 5.50639 23.9375 6.14276V11H22.451V6.32173C22.451 5.7616 22.3068 5.32741 22.0185 5.01918C21.7301 4.70762 21.3291 4.55185 20.8153 4.55185C20.464 4.55185 20.1491 4.62642 19.8707 4.77557C19.5956 4.92472 19.3786 5.14347 19.2195 5.43182C19.0637 5.71686 18.9858 6.06155 18.9858 6.46591ZM29.4858 3.36364V4.55682H25.3146V3.36364H29.4858ZM26.4332 1.53409H27.9197V8.75781C27.9197 9.04616 27.9628 9.26326 28.049 9.40909C28.1352 9.55161 28.2462 9.64938 28.3821 9.70241C28.5213 9.75213 28.6721 9.77699 28.8345 9.77699C28.9538 9.77699 29.0582 9.7687 29.1477 9.75213C29.2372 9.73556 29.3068 9.7223 29.3565 9.71236L29.625 10.9403C29.5388 10.9735 29.4162 11.0066 29.2571 11.0398C29.098 11.0762 28.8991 11.0961 28.6605 11.0994C28.2694 11.1061 27.9048 11.0365 27.5668 10.8906C27.2287 10.7448 26.9553 10.5194 26.7464 10.2145C26.5376 9.90956 26.4332 9.52675 26.4332 9.06605V1.53409ZM35.3697 6.05327V7.34091H30.8555V6.05327H35.3697ZM37.3509 11V3.36364H38.8374V11H37.3509ZM38.1016 2.18537C37.843 2.18537 37.621 2.09919 37.4354 1.92685C37.2531 1.75118 37.1619 1.54238 37.1619 1.30043C37.1619 1.05516 37.2531 0.846354 37.4354 0.674005C37.621 0.498342 37.843 0.410511 38.1016 0.410511C38.3601 0.410511 38.5805 0.498342 38.7628 0.674005C38.9484 0.846354 39.0412 1.05516 39.0412 1.30043C39.0412 1.54238 38.9484 1.75118 38.7628 1.92685C38.5805 2.09919 38.3601 2.18537 38.1016 2.18537ZM42.3237 6.46591V11H40.8372V3.36364H42.264V4.60653H42.3585C42.5342 4.20218 42.8092 3.87737 43.1838 3.6321C43.5616 3.38684 44.0372 3.2642 44.6106 3.2642C45.131 3.2642 45.5867 3.37358 45.9778 3.59233C46.3689 3.80777 46.6722 4.12926 46.8876 4.55682C47.103 4.98437 47.2108 5.51302 47.2108 6.14276V11H45.7243V6.32173C45.7243 5.76823 45.5801 5.3357 45.2917 5.02415C45.0034 4.70928 44.6073 4.55185 44.1035 4.55185C43.7588 4.55185 43.4522 4.62642 43.1838 4.77557C42.9186 4.92472 42.7082 5.14347 42.5524 5.43182C42.3999 5.71686 42.3237 6.06155 42.3237 6.46591ZM52.063 11.1491C51.4466 11.1491 50.8964 10.9917 50.4125 10.6768C49.9319 10.3587 49.554 9.90625 49.2789 9.3196C49.0072 8.72964 48.8713 8.02202 48.8713 7.19673C48.8713 6.37145 49.0088 5.66548 49.2839 5.07884C49.5623 4.49219 49.9435 4.04309 50.4274 3.73153C50.9113 3.41998 51.4598 3.2642 52.073 3.2642C52.5469 3.2642 52.9281 3.34375 53.2164 3.50284C53.5081 3.65862 53.7335 3.84091 53.8926 4.04972C54.055 4.25852 54.1809 4.44247 54.2704 4.60156H54.3599V0.818182H55.8464V11H54.3947V9.81179H54.2704C54.1809 9.9742 54.0517 10.1598 53.8826 10.3686C53.7169 10.5774 53.4882 10.7597 53.1966 10.9155C52.9049 11.0713 52.527 11.1491 52.063 11.1491ZM52.3912 9.88139C52.8187 9.88139 53.18 9.7687 53.475 9.54332C53.7733 9.31463 53.9986 8.99811 54.1511 8.59375C54.3069 8.18939 54.3848 7.71875 54.3848 7.18182C54.3848 6.65151 54.3085 6.1875 54.1561 5.78977C54.0036 5.39205 53.7799 5.08215 53.4849 4.86009C53.1899 4.63802 52.8253 4.52699 52.3912 4.52699C51.9437 4.52699 51.5708 4.64299 51.2725 4.875C50.9743 5.10701 50.7489 5.42353 50.5964 5.82457C50.4473 6.22562 50.3727 6.67803 50.3727 7.18182C50.3727 7.69223 50.4489 8.15128 50.6014 8.55895C50.7538 8.96662 50.9792 9.28977 51.2775 9.52841C51.5791 9.76373 51.9503 9.88139 52.3912 9.88139ZM61.2592 11.1541C60.5069 11.1541 59.8589 10.9934 59.3153 10.6719C58.7751 10.3471 58.3575 9.89134 58.0625 9.30469C57.7708 8.71473 57.625 8.02367 57.625 7.23153C57.625 6.44934 57.7708 5.75994 58.0625 5.16335C58.3575 4.56676 58.7685 4.10109 59.2955 3.76633C59.8258 3.43158 60.4455 3.2642 61.1548 3.2642C61.5857 3.2642 62.0033 3.33546 62.4077 3.47798C62.812 3.6205 63.175 3.84422 63.4964 4.14915C63.8179 4.45407 64.0715 4.85014 64.2571 5.33736C64.4427 5.82126 64.5355 6.40956 64.5355 7.10227V7.62926H58.4652V6.51562H63.0788C63.0788 6.12453 62.9993 5.77817 62.8402 5.47656C62.6811 5.17164 62.4574 4.93134 62.169 4.75568C61.884 4.58002 61.5492 4.49219 61.1648 4.49219C60.7472 4.49219 60.3826 4.59493 60.071 4.80043C59.7628 5.0026 59.5241 5.26776 59.3551 5.59588C59.1894 5.92069 59.1065 6.27367 59.1065 6.65483V7.52486C59.1065 8.03527 59.196 8.46946 59.375 8.82741C59.5573 9.18537 59.8108 9.45881 60.1357 9.64773C60.4605 9.83333 60.84 9.92614 61.2741 9.92614C61.5559 9.92614 61.8127 9.88636 62.0447 9.80682C62.2768 9.72396 62.4773 9.60133 62.6463 9.43892C62.8153 9.27652 62.9446 9.07599 63.0341 8.83736L64.4411 9.09091C64.3284 9.50521 64.1262 9.86813 63.8345 10.1797C63.5462 10.4879 63.1832 10.7282 62.7457 10.9006C62.3116 11.0696 61.8161 11.1541 61.2592 11.1541ZM67.6713 6.46591V11H66.1848V3.36364H67.6117V4.60653H67.7061C67.8818 4.20218 68.1569 3.87737 68.5314 3.6321C68.9093 3.38684 69.3849 3.2642 69.9583 3.2642C70.4786 3.2642 70.9344 3.37358 71.3255 3.59233C71.7166 3.80777 72.0198 4.12926 72.2353 4.55682C72.4507 4.98437 72.5584 5.51302 72.5584 6.14276V11H71.0719V6.32173C71.0719 5.76823 70.9277 5.3357 70.6394 5.02415C70.351 4.70928 69.955 4.55185 69.4512 4.55185C69.1065 4.55185 68.7999 4.62642 68.5314 4.77557C68.2663 4.92472 68.0558 5.14347 67.9 5.43182C67.7476 5.71686 67.6713 6.06155 67.6713 6.46591ZM78.1167 3.36364V4.55682H73.9455V3.36364H78.1167ZM75.0641 1.53409H76.5506V8.75781C76.5506 9.04616 76.5937 9.26326 76.6799 9.40909C76.766 9.55161 76.8771 9.64938 77.013 9.70241C77.1522 9.75213 77.303 9.77699 77.4654 9.77699C77.5847 9.77699 77.6891 9.7687 77.7786 9.75213C77.8681 9.73556 77.9377 9.7223 77.9874 9.71236L78.2559 10.9403C78.1697 10.9735 78.0471 11.0066 77.888 11.0398C77.7289 11.0762 77.53 11.0961 77.2914 11.0994C76.9003 11.1061 76.5357 11.0365 76.1976 10.8906C75.8596 10.7448 75.5861 10.5194 75.3773 10.2145C75.1685 9.90956 75.0641 9.52675 75.0641 9.06605V1.53409ZM84.0005 6.05327V7.34091H79.4863V6.05327H84.0005ZM89.5066 11.169C88.7211 11.1657 88.0499 10.9586 87.4931 10.5476C86.9363 10.1366 86.5104 9.53835 86.2154 8.75284C85.9204 7.96733 85.7729 7.02107 85.7729 5.91406C85.7729 4.81037 85.9204 3.86742 86.2154 3.08523C86.5137 2.30303 86.9412 1.70644 87.498 1.29545C88.0582 0.884469 88.7277 0.678977 89.5066 0.678977C90.2855 0.678977 90.9533 0.886126 91.5101 1.30043C92.0669 1.71141 92.4928 2.308 92.7878 3.0902C93.0861 3.86908 93.2353 4.81037 93.2353 5.91406C93.2353 7.02438 93.0878 7.9723 92.7928 8.75781C92.4978 9.54001 92.0719 10.1383 91.5151 10.5526C90.9583 10.9635 90.2888 11.169 89.5066 11.169ZM89.5066 9.84162C90.196 9.84162 90.7346 9.50521 91.1223 8.83239C91.5134 8.15956 91.709 7.18679 91.709 5.91406C91.709 5.06889 91.6195 4.35464 91.4405 3.77131C91.2649 3.18466 91.0113 2.74053 90.6799 2.43892C90.3517 2.134 89.9606 1.98153 89.5066 1.98153C88.8205 1.98153 88.2819 2.3196 87.8908 2.99574C87.4997 3.67187 87.3025 4.64465 87.2992 5.91406C87.2992 6.76255 87.387 7.48011 87.5627 8.06676C87.7417 8.65009 87.9952 9.09257 88.3233 9.39418C88.6515 9.69247 89.0459 9.84162 89.5066 9.84162ZM98.8619 0.818182V11H97.3207V2.35938H97.261L94.8249 3.95028V2.47869L97.3654 0.818182H98.8619Z" fill="black"/>
</svg>
