<svg width="41" height="12" viewBox="0 0 41 12" fill="none" xmlns="http://www.w3.org/2000/svg">
<path d="M4.21591 11.1541C3.4768 11.1541 2.84044 10.9867 2.30682 10.652C1.77652 10.3139 1.36884 9.84825 1.08381 9.25497C0.798769 8.66169 0.65625 7.98224 0.65625 7.21662C0.65625 6.44105 0.802083 5.75663 1.09375 5.16335C1.38542 4.56676 1.7964 4.10109 2.3267 3.76633C2.85701 3.43158 3.48177 3.2642 4.20099 3.2642C4.78101 3.2642 5.29806 3.37192 5.75213 3.58736C6.2062 3.79948 6.57244 4.09777 6.85085 4.48224C7.13258 4.86671 7.29995 5.31581 7.35298 5.82955H5.90625C5.8267 5.47159 5.64441 5.16335 5.35938 4.90483C5.07765 4.64631 4.69981 4.51705 4.22585 4.51705C3.81155 4.51705 3.44863 4.62642 3.13707 4.84517C2.82884 5.06061 2.58854 5.36884 2.41619 5.76989C2.24384 6.16761 2.15767 6.63826 2.15767 7.18182C2.15767 7.73864 2.24219 8.21922 2.41122 8.62358C2.58026 9.02794 2.81889 9.34115 3.12713 9.56321C3.43868 9.78527 3.80492 9.89631 4.22585 9.89631C4.50758 9.89631 4.76278 9.84493 4.99148 9.74219C5.22349 9.63613 5.41738 9.48532 5.57315 9.28977C5.73224 9.09422 5.84328 8.8589 5.90625 8.58381H7.35298C7.29995 9.07765 7.1392 9.51847 6.87074 9.90625C6.60227 10.294 6.24266 10.599 5.7919 10.821C5.34446 11.0431 4.81913 11.1541 4.21591 11.1541ZM12.1593 11.1541C11.4434 11.1541 10.8186 10.9901 10.285 10.6619C9.75136 10.3338 9.33706 9.87476 9.04208 9.2848C8.7471 8.69484 8.59961 8.00544 8.59961 7.21662C8.59961 6.42448 8.7471 5.73177 9.04208 5.13849C9.33706 4.54522 9.75136 4.08452 10.285 3.75639C10.8186 3.42827 11.4434 3.2642 12.1593 3.2642C12.8752 3.2642 13.4999 3.42827 14.0336 3.75639C14.5672 4.08452 14.9815 4.54522 15.2765 5.13849C15.5714 5.73177 15.7189 6.42448 15.7189 7.21662C15.7189 8.00544 15.5714 8.69484 15.2765 9.2848C14.9815 9.87476 14.5672 10.3338 14.0336 10.6619C13.4999 10.9901 12.8752 11.1541 12.1593 11.1541ZM12.1642 9.90625C12.6283 9.90625 13.0127 9.78362 13.3176 9.53835C13.6226 9.29309 13.848 8.96662 13.9938 8.55895C14.1429 8.15128 14.2175 7.70218 14.2175 7.21165C14.2175 6.72443 14.1429 6.27699 13.9938 5.86932C13.848 5.45833 13.6226 5.12855 13.3176 4.87997C13.0127 4.63139 12.6283 4.5071 12.1642 4.5071C11.6969 4.5071 11.3091 4.63139 11.0009 4.87997C10.696 5.12855 10.4689 5.45833 10.3198 5.86932C10.1739 6.27699 10.101 6.72443 10.101 7.21165C10.101 7.70218 10.1739 8.15128 10.3198 8.55895C10.4689 8.96662 10.696 9.29309 11.0009 9.53835C11.3091 9.78362 11.6969 9.90625 12.1642 9.90625ZM18.8647 0.818182V11H17.3782V0.818182H18.8647ZM24.0811 11.1541C23.3652 11.1541 22.7405 10.9901 22.2069 10.6619C21.6732 10.3338 21.2589 9.87476 20.964 9.2848C20.669 8.69484 20.5215 8.00544 20.5215 7.21662C20.5215 6.42448 20.669 5.73177 20.964 5.13849C21.2589 4.54522 21.6732 4.08452 22.2069 3.75639C22.7405 3.42827 23.3652 3.2642 24.0811 3.2642C24.7971 3.2642 25.4218 3.42827 25.9554 3.75639C26.4891 4.08452 26.9033 4.54522 27.1983 5.13849C27.4933 5.73177 27.6408 6.42448 27.6408 7.21662C27.6408 8.00544 27.4933 8.69484 27.1983 9.2848C26.9033 9.87476 26.4891 10.3338 25.9554 10.6619C25.4218 10.9901 24.7971 11.1541 24.0811 11.1541ZM24.0861 9.90625C24.5501 9.90625 24.9346 9.78362 25.2395 9.53835C25.5444 9.29309 25.7698 8.96662 25.9157 8.55895C26.0648 8.15128 26.1394 7.70218 26.1394 7.21165C26.1394 6.72443 26.0648 6.27699 25.9157 5.86932C25.7698 5.45833 25.5444 5.12855 25.2395 4.87997C24.9346 4.63139 24.5501 4.5071 24.0861 4.5071C23.6188 4.5071 23.231 4.63139 22.9228 4.87997C22.6178 5.12855 22.3908 5.45833 22.2417 5.86932C22.0958 6.27699 22.0229 6.72443 22.0229 7.21165C22.0229 7.70218 22.0958 8.15128 22.2417 8.55895C22.3908 8.96662 22.6178 9.29309 22.9228 9.53835C23.231 9.78362 23.6188 9.90625 24.0861 9.90625ZM29.3001 11V3.36364H30.7369V4.5767H30.8164C30.9556 4.16572 31.2009 3.84257 31.5522 3.60724C31.9068 3.36861 32.3079 3.24929 32.7553 3.24929C32.8481 3.24929 32.9575 3.2526 33.0835 3.25923C33.2127 3.26586 33.3138 3.27415 33.3867 3.28409V4.70597C33.3271 4.68939 33.221 4.67116 33.0685 4.65128C32.9161 4.62808 32.7636 4.61648 32.6112 4.61648C32.2598 4.61648 31.9466 4.69105 31.6715 4.8402C31.3997 4.98603 31.1843 5.18987 31.0252 5.4517C30.8661 5.71023 30.7866 6.00521 30.7866 6.33665V11H29.3001ZM40.3954 5.22798L39.0481 5.46662C38.9918 5.29427 38.9023 5.13021 38.7797 4.97443C38.6603 4.81865 38.4979 4.69105 38.2924 4.59162C38.0869 4.49219 37.8301 4.44247 37.5218 4.44247C37.1009 4.44247 36.7496 4.53693 36.4679 4.72585C36.1861 4.91146 36.0453 5.15175 36.0453 5.44673C36.0453 5.70194 36.1397 5.90743 36.3287 6.06321C36.5176 6.21899 36.8225 6.34659 37.2434 6.44602L38.4565 6.72443C39.1592 6.88684 39.6828 7.13707 40.0275 7.47514C40.3722 7.81321 40.5446 8.25237 40.5446 8.79261C40.5446 9.25 40.412 9.65767 40.1468 10.0156C39.885 10.3703 39.5188 10.6487 39.0481 10.8509C38.5808 11.053 38.0389 11.1541 37.4224 11.1541C36.5673 11.1541 35.8696 10.9718 35.3294 10.6072C34.7891 10.2393 34.4577 9.71733 34.335 9.04119L35.7718 8.82244C35.8613 9.19697 36.0453 9.48035 36.3237 9.67259C36.6021 9.86151 36.965 9.95597 37.4125 9.95597C37.8997 9.95597 38.2891 9.85488 38.5808 9.6527C38.8725 9.44721 39.0183 9.19697 39.0183 8.90199C39.0183 8.66335 38.9288 8.46283 38.7498 8.30043C38.5742 8.13802 38.304 8.01539 37.9395 7.93253L36.6468 7.64915C35.9342 7.48674 35.4073 7.22822 35.0659 6.87358C34.7278 6.51894 34.5588 6.06984 34.5588 5.52628C34.5588 5.07552 34.6847 4.68111 34.9366 4.34304C35.1885 4.00497 35.5365 3.74148 35.9806 3.55256C36.4248 3.36032 36.9335 3.2642 37.5069 3.2642C38.3322 3.2642 38.9818 3.44318 39.4558 3.80114C39.9297 4.15578 40.243 4.63139 40.3954 5.22798Z" fill="black"/>
</svg>
