<svg viewBox="0 0 37 12" fill="none" stroke-width="2" stroke="currentColor" aria-hidden="true">
  <path d="M6.72159 5.22798L5.37429 5.46662C5.31795 5.29427 5.22846 5.13021 5.10582 4.97443C4.98651 4.81865 4.8241 4.69105 4.61861 4.59162C4.41312 4.49219 4.15625 4.44247 3.84801 4.44247C3.42708 4.44247 3.07576 4.53693 2.79403 4.72585C2.51231 4.91146 2.37145 5.15175 2.37145 5.44673C2.37145 5.70194 2.46591 5.90743 2.65483 6.06321C2.84375 6.21899 3.14867 6.34659 3.5696 6.44602L4.78267 6.72443C5.48532 6.88684 6.009 7.13707 6.35369 7.47514C6.69839 7.81321 6.87074 8.25237 6.87074 8.79261C6.87074 9.25 6.73816 9.65767 6.47301 10.0156C6.21117 10.3703 5.84493 10.6487 5.37429 10.8509C4.90696 11.053 4.36506 11.1541 3.74858 11.1541C2.89347 11.1541 2.19579 10.9718 1.65554 10.6072C1.11529 10.2393 0.783854 9.71733 0.661222 9.04119L2.09801 8.82244C2.1875 9.19697 2.37145 9.48035 2.64986 9.67259C2.92827 9.86151 3.29119 9.95597 3.73864 9.95597C4.22585 9.95597 4.61529 9.85488 4.90696 9.6527C5.19863 9.44721 5.34446 9.19697 5.34446 8.90199C5.34446 8.66335 5.25497 8.46283 5.07599 8.30043C4.90033 8.13802 4.63021 8.01539 4.26562 7.93253L2.97301 7.64915C2.26042 7.48674 1.73343 7.22822 1.39205 6.87358C1.05398 6.51894 0.884943 6.06984 0.884943 5.52628C0.884943 5.07552 1.01089 4.68111 1.26278 4.34304C1.51468 4.00497 1.86269 3.74148 2.30682 3.55256C2.75095 3.36032 3.25971 3.2642 3.8331 3.2642C4.65838 3.2642 5.308 3.44318 5.78196 3.80114C6.25592 4.15578 6.56913 4.63139 6.72159 5.22798ZM12.0698 3.36364V4.55682H7.89862V3.36364H12.0698ZM9.01722 1.53409H10.5037V8.75781C10.5037 9.04616 10.5468 9.26326 10.633 9.40909C10.7192 9.55161 10.8302 9.64938 10.9661 9.70241C11.1053 9.75213 11.2561 9.77699 11.4185 9.77699C11.5378 9.77699 11.6422 9.7687 11.7317 9.75213C11.8212 9.73556 11.8908 9.7223 11.9405 9.71236L12.209 10.9403C12.1228 10.9735 12.0002 11.0066 11.8411 11.0398C11.682 11.0762 11.4831 11.0961 11.2445 11.0994C10.8534 11.1061 10.4888 11.0365 10.1507 10.8906C9.81268 10.7448 9.53924 10.5194 9.33043 10.2145C9.12163 9.90956 9.01722 9.52675 9.01722 9.06605V1.53409ZM15.9364 11.169C15.4525 11.169 15.015 11.0795 14.6239 10.9006C14.2328 10.7183 13.9229 10.4548 13.6942 10.1101C13.4689 9.76539 13.3562 9.3428 13.3562 8.84233C13.3562 8.41146 13.439 8.05682 13.6048 7.77841C13.7705 7.5 13.9942 7.27959 14.2759 7.11719C14.5576 6.95478 14.8725 6.83215 15.2205 6.74929C15.5685 6.66643 15.9232 6.60346 16.2844 6.56037C16.7418 6.50734 17.113 6.46425 17.3981 6.43111C17.6831 6.39465 17.8903 6.33665 18.0195 6.2571C18.1488 6.17756 18.2134 6.0483 18.2134 5.86932V5.83452C18.2134 5.40033 18.0908 5.06392 17.8455 4.82528C17.6036 4.58665 17.2423 4.46733 16.7617 4.46733C16.2612 4.46733 15.8668 4.57836 15.5785 4.80043C15.2934 5.01918 15.0962 5.26278 14.9869 5.53125L13.5898 5.21307C13.7556 4.74905 13.9975 4.37453 14.3157 4.08949C14.6372 3.80114 15.0067 3.59233 15.4244 3.46307C15.842 3.33049 16.2811 3.2642 16.7418 3.2642C17.0468 3.2642 17.3699 3.30066 17.7113 3.37358C18.056 3.44318 18.3775 3.57244 18.6758 3.76136C18.9774 3.95028 19.2243 4.22041 19.4165 4.57173C19.6088 4.91974 19.7049 5.37216 19.7049 5.92898V11H18.2532V9.95597H18.1935C18.0974 10.1482 17.9532 10.3371 17.761 10.5227C17.5688 10.7083 17.3219 10.8625 17.0202 10.9851C16.7186 11.1077 16.3574 11.169 15.9364 11.169ZM16.2596 9.97585C16.6706 9.97585 17.0219 9.89465 17.3136 9.73224C17.6085 9.56984 17.8323 9.35772 17.9847 9.09588C18.1405 8.83073 18.2184 8.54735 18.2184 8.24574V7.26136C18.1654 7.31439 18.0626 7.36411 17.9102 7.41051C17.761 7.4536 17.5903 7.49171 17.3981 7.52486C17.2058 7.55469 17.0186 7.58286 16.8363 7.60938C16.654 7.63258 16.5015 7.65246 16.3789 7.66903C16.0906 7.70549 15.8271 7.76681 15.5884 7.85298C15.3531 7.93916 15.1642 8.06345 15.0217 8.22585C14.8825 8.38494 14.8129 8.59706 14.8129 8.86222C14.8129 9.23011 14.9487 9.50852 15.2205 9.69744C15.4923 9.88305 15.8387 9.97585 16.2596 9.97585ZM23.1713 6.46591V11H21.6848V3.36364H23.1117V4.60653H23.2061C23.3818 4.20218 23.6569 3.87737 24.0314 3.6321C24.4093 3.38684 24.8849 3.2642 25.4583 3.2642C25.9786 3.2642 26.4344 3.37358 26.8255 3.59233C27.2166 3.80777 27.5198 4.12926 27.7353 4.55682C27.9507 4.98437 28.0584 5.51302 28.0584 6.14276V11H26.5719V6.32173C26.5719 5.76823 26.4277 5.3357 26.1394 5.02415C25.851 4.70928 25.455 4.55185 24.9512 4.55185C24.6065 4.55185 24.2999 4.62642 24.0314 4.77557C23.7663 4.92472 23.5558 5.14347 23.4 5.43182C23.2476 5.71686 23.1713 6.06155 23.1713 6.46591ZM32.9107 11.1491C32.2942 11.1491 31.744 10.9917 31.2601 10.6768C30.7795 10.3587 30.4017 9.90625 30.1266 9.3196C29.8548 8.72964 29.7189 8.02202 29.7189 7.19673C29.7189 6.37145 29.8565 5.66548 30.1316 5.07884C30.41 4.49219 30.7911 4.04309 31.275 3.73153C31.7589 3.41998 32.3075 3.2642 32.9206 3.2642C33.3946 3.2642 33.7757 3.34375 34.0641 3.50284C34.3558 3.65862 34.5811 3.84091 34.7402 4.04972C34.9026 4.25852 35.0286 4.44247 35.1181 4.60156H35.2076V0.818182H36.6941V11H35.2424V9.81179H35.1181C35.0286 9.9742 34.8993 10.1598 34.7303 10.3686C34.5646 10.5774 34.3359 10.7597 34.0442 10.9155C33.7525 11.0713 33.3747 11.1491 32.9107 11.1491ZM33.2388 9.88139C33.6664 9.88139 34.0276 9.7687 34.3226 9.54332C34.6209 9.31463 34.8463 8.99811 34.9988 8.59375C35.1545 8.18939 35.2324 7.71875 35.2324 7.18182C35.2324 6.65151 35.1562 6.1875 35.0037 5.78977C34.8513 5.39205 34.6275 5.08215 34.3326 4.86009C34.0376 4.63802 33.673 4.52699 33.2388 4.52699C32.7914 4.52699 32.4185 4.64299 32.1202 4.875C31.8219 5.10701 31.5965 5.42353 31.4441 5.82457C31.2949 6.22562 31.2203 6.67803 31.2203 7.18182C31.2203 7.69223 31.2966 8.15128 31.449 8.55895C31.6015 8.96662 31.8269 9.28977 32.1252 9.52841C32.4268 9.76373 32.798 9.88139 33.2388 9.88139Z" fill="black"/>
</svg>
