<svg viewBox="0 0 67 14" fill="none" stroke-width="2" stroke="currentColor" aria-hidden="true">
  <path d="M4.56392 3.36364V4.55682H0.392756V3.36364H4.56392ZM1.51136 1.53409H2.99787V8.75781C2.99787 9.04616 3.04096 9.26326 3.12713 9.40909C3.21331 9.55161 3.32434 9.64938 3.46023 9.70241C3.59943 9.75213 3.75024 9.77699 3.91264 9.77699C4.03196 9.77699 4.13636 9.7687 4.22585 9.75213C4.31534 9.73556 4.38494 9.7223 4.43466 9.71236L4.70312 10.9403C4.61695 10.9735 4.49432 11.0066 4.33523 11.0398C4.17614 11.0762 3.97727 11.0961 3.73864 11.0994C3.34754 11.1061 2.98295 11.0365 2.64489 10.8906C2.30682 10.7448 2.03338 10.5194 1.82457 10.2145C1.61577 9.90956 1.51136 9.52675 1.51136 9.06605V1.53409ZM6.20827 11V3.36364H7.64506V4.5767H7.72461C7.86381 4.16572 8.10908 3.84257 8.4604 3.60724C8.81505 3.36861 9.21609 3.24929 9.66353 3.24929C9.75633 3.24929 9.86571 3.2526 9.99166 3.25923C10.1209 3.26586 10.222 3.27415 10.2949 3.28409V4.70597C10.2353 4.68939 10.1292 4.67116 9.97674 4.65128C9.82428 4.62808 9.67182 4.61648 9.51935 4.61648C9.16803 4.61648 8.85482 4.69105 8.57972 4.8402C8.30794 4.98603 8.09251 5.18987 7.93342 5.4517C7.77433 5.71023 7.69478 6.00521 7.69478 6.33665V11H6.20827ZM14.5245 11.1541C13.8086 11.1541 13.1838 10.9901 12.6502 10.6619C12.1166 10.3338 11.7023 9.87476 11.4073 9.2848C11.1123 8.69484 10.9648 8.00544 10.9648 7.21662C10.9648 6.42448 11.1123 5.73177 11.4073 5.13849C11.7023 4.54522 12.1166 4.08452 12.6502 3.75639C13.1838 3.42827 13.8086 3.2642 14.5245 3.2642C15.2404 3.2642 15.8652 3.42827 16.3988 3.75639C16.9324 4.08452 17.3467 4.54522 17.6417 5.13849C17.9367 5.73177 18.0842 6.42448 18.0842 7.21662C18.0842 8.00544 17.9367 8.69484 17.6417 9.2848C17.3467 9.87476 16.9324 10.3338 16.3988 10.6619C15.8652 10.9901 15.2404 11.1541 14.5245 11.1541ZM14.5295 9.90625C14.9935 9.90625 15.378 9.78362 15.6829 9.53835C15.9878 9.29309 16.2132 8.96662 16.359 8.55895C16.5082 8.15128 16.5827 7.70218 16.5827 7.21165C16.5827 6.72443 16.5082 6.27699 16.359 5.86932C16.2132 5.45833 15.9878 5.12855 15.6829 4.87997C15.378 4.63139 14.9935 4.5071 14.5295 4.5071C14.0621 4.5071 13.6744 4.63139 13.3661 4.87997C13.0612 5.12855 12.8342 5.45833 12.685 5.86932C12.5392 6.27699 12.4663 6.72443 12.4663 7.21165C12.4663 7.70218 12.5392 8.15128 12.685 8.55895C12.8342 8.96662 13.0612 9.29309 13.3661 9.53835C13.6744 9.78362 14.0621 9.90625 14.5295 9.90625ZM19.7434 13.8636V3.36364H21.1951V4.60156H21.3194C21.4056 4.44247 21.5299 4.25852 21.6923 4.04972C21.8547 3.84091 22.0801 3.65862 22.3684 3.50284C22.6568 3.34375 23.0379 3.2642 23.5119 3.2642C24.1284 3.2642 24.6786 3.41998 25.1625 3.73153C25.6464 4.04309 26.0259 4.49219 26.301 5.07884C26.5794 5.66548 26.7186 6.37145 26.7186 7.19673C26.7186 8.02202 26.581 8.72964 26.3059 9.3196C26.0308 9.90625 25.653 10.3587 25.1724 10.6768C24.6918 10.9917 24.1433 11.1491 23.5268 11.1491C23.0628 11.1491 22.6833 11.0713 22.3883 10.9155C22.0967 10.7597 21.868 10.5774 21.7022 10.3686C21.5365 10.1598 21.4089 9.9742 21.3194 9.81179H21.2299V13.8636H19.7434ZM21.2001 7.18182C21.2001 7.71875 21.278 8.18939 21.4338 8.59375C21.5895 8.99811 21.8149 9.31463 22.1099 9.54332C22.4049 9.7687 22.7662 9.88139 23.1937 9.88139C23.6378 9.88139 24.0091 9.76373 24.3074 9.52841C24.6056 9.28977 24.831 8.96662 24.9835 8.55895C25.1393 8.15128 25.2172 7.69223 25.2172 7.18182C25.2172 6.67803 25.1409 6.22562 24.9885 5.82457C24.8393 5.42353 24.6139 5.10701 24.3123 4.875C24.014 4.64299 23.6412 4.52699 23.1937 4.52699C22.7628 4.52699 22.3983 4.63802 22.1 4.86009C21.805 5.08215 21.5813 5.39205 21.4288 5.78977C21.2763 6.1875 21.2001 6.65151 21.2001 7.18182ZM29.8706 6.46591V11H28.3841V0.818182H29.8507V4.60653H29.9451C30.1241 4.19555 30.3975 3.86908 30.7654 3.62713C31.1333 3.38518 31.6139 3.2642 32.2072 3.2642C32.7309 3.2642 33.1883 3.37192 33.5794 3.58736C33.9738 3.80279 34.2787 4.12429 34.4941 4.55185C34.7129 4.97609 34.8223 5.50639 34.8223 6.14276V11H33.3358V6.32173C33.3358 5.7616 33.1916 5.32741 32.9032 5.01918C32.6149 4.70762 32.2138 4.55185 31.7001 4.55185C31.3488 4.55185 31.0339 4.62642 30.7555 4.77557C30.4804 4.92472 30.2633 5.14347 30.1042 5.43182C29.9484 5.71686 29.8706 6.06155 29.8706 6.46591ZM37.4721 13.8636C37.2501 13.8636 37.0479 13.8454 36.8656 13.8089C36.6833 13.7758 36.5474 13.7393 36.4579 13.6996L36.8159 12.4815C37.0877 12.5545 37.3296 12.5859 37.5417 12.576C37.7538 12.5661 37.9411 12.4865 38.1035 12.3374C38.2692 12.1882 38.4151 11.9446 38.541 11.6065L38.725 11.0994L35.9309 3.36364H37.5218L39.4558 9.28977H39.5353L41.4693 3.36364H43.0652L39.9181 12.0192C39.7723 12.4169 39.5867 12.7533 39.3613 13.0284C39.1359 13.3068 38.8675 13.5156 38.5559 13.6548C38.2444 13.794 37.8831 13.8636 37.4721 13.8636ZM48.9615 6.05327V7.34091H44.4473V6.05327H48.9615ZM54.4675 11.169C53.682 11.1657 53.0108 10.9586 52.454 10.5476C51.8972 10.1366 51.4713 9.53835 51.1763 8.75284C50.8813 7.96733 50.7338 7.02107 50.7338 5.91406C50.7338 4.81037 50.8813 3.86742 51.1763 3.08523C51.4746 2.30303 51.9022 1.70644 52.459 1.29545C53.0191 0.884469 53.6886 0.678977 54.4675 0.678977C55.2464 0.678977 55.9142 0.886126 56.4711 1.30043C57.0279 1.71141 57.4538 2.308 57.7488 3.0902C58.0471 3.86908 58.1962 4.81037 58.1962 5.91406C58.1962 7.02438 58.0487 7.9723 57.7537 8.75781C57.4587 9.54001 57.0328 10.1383 56.476 10.5526C55.9192 10.9635 55.2497 11.169 54.4675 11.169ZM54.4675 9.84162C55.1569 9.84162 55.6955 9.50521 56.0833 8.83239C56.4744 8.15956 56.6699 7.18679 56.6699 5.91406C56.6699 5.06889 56.5804 4.35464 56.4015 3.77131C56.2258 3.18466 55.9722 2.74053 55.6408 2.43892C55.3127 2.134 54.9216 1.98153 54.4675 1.98153C53.7814 1.98153 53.2428 2.3196 52.8517 2.99574C52.4606 3.67187 52.2634 4.64465 52.2601 5.91406C52.2601 6.76255 52.348 7.48011 52.5236 8.06676C52.7026 8.65009 52.9561 9.09257 53.2843 9.39418C53.6124 9.69247 54.0068 9.84162 54.4675 9.84162ZM59.9599 11V9.88636L63.4052 6.31676C63.7731 5.92898 64.0763 5.58925 64.315 5.29759C64.5569 5.0026 64.7376 4.72254 64.8569 4.45739C64.9762 4.19223 65.0359 3.91051 65.0359 3.61222C65.0359 3.27415 64.9563 2.98248 64.7972 2.73722C64.6381 2.48864 64.421 2.29806 64.146 2.16548C63.8709 2.02959 63.561 1.96165 63.2163 1.96165C62.8517 1.96165 62.5335 2.03622 62.2617 2.18537C61.9899 2.33452 61.7811 2.54498 61.6353 2.81676C61.4895 3.08854 61.4165 3.40672 61.4165 3.77131H59.9499C59.9499 3.15151 60.0924 2.60961 60.3775 2.1456C60.6625 1.68158 61.0536 1.32197 61.5508 1.06676C62.0479 0.808238 62.613 0.678977 63.2461 0.678977C63.8858 0.678977 64.4492 0.806581 64.9364 1.06179C65.427 1.31368 65.8098 1.65838 66.0849 2.09588C66.36 2.53007 66.4975 3.0206 66.4975 3.56747C66.4975 3.94531 66.4263 4.31487 66.2837 4.67614C66.1445 5.0374 65.9009 5.4401 65.5529 5.88423C65.2049 6.32505 64.721 6.86032 64.1012 7.49006L62.0778 9.60795V9.68253H66.6616V11H59.9599Z" fill="black"/>
</svg>
