<svg viewBox="0 0 72 15" fill="none" stroke-width="2" stroke="currentColor" aria-hidden="true">
  <path d="M4.20099 14.0227C3.59446 14.0227 3.07244 13.9432 2.63494 13.7841C2.20076 13.625 1.84612 13.4145 1.57102 13.1527C1.29593 12.8909 1.09044 12.6042 0.954545 12.2926L2.23224 11.7656C2.32173 11.9115 2.44105 12.0656 2.5902 12.228C2.74266 12.3937 2.94815 12.5346 3.20668 12.6506C3.46851 12.7666 3.80492 12.8246 4.21591 12.8246C4.77936 12.8246 5.24503 12.687 5.61293 12.4119C5.98082 12.1402 6.16477 11.706 6.16477 11.1094V9.60795H6.07031C5.98082 9.77036 5.85156 9.95099 5.68253 10.1499C5.51681 10.3487 5.28812 10.5211 4.99645 10.6669C4.70478 10.8127 4.32528 10.8857 3.85795 10.8857C3.25473 10.8857 2.71117 10.7448 2.22727 10.4631C1.74669 10.178 1.36553 9.75876 1.08381 9.20526C0.805398 8.64844 0.666193 7.96401 0.666193 7.15199C0.666193 6.33996 0.803741 5.64394 1.07884 5.06392C1.35724 4.4839 1.7384 4.03977 2.2223 3.73153C2.7062 3.41998 3.25473 3.2642 3.8679 3.2642C4.34186 3.2642 4.72467 3.34375 5.01634 3.50284C5.308 3.65862 5.53504 3.84091 5.69744 4.04972C5.86316 4.25852 5.99077 4.44247 6.08026 4.60156H6.18963V3.36364H7.64631V11.169C7.64631 11.8253 7.49385 12.3639 7.18892 12.7848C6.884 13.2057 6.47135 13.5173 5.95099 13.7195C5.43395 13.9216 4.85062 14.0227 4.20099 14.0227ZM4.18608 9.6527C4.61364 9.6527 4.97491 9.55327 5.26989 9.3544C5.56818 9.15223 5.79356 8.86387 5.94602 8.48935C6.1018 8.11151 6.17969 7.65909 6.17969 7.1321C6.17969 6.61837 6.10346 6.16596 5.95099 5.77486C5.79853 5.38376 5.57481 5.07884 5.27983 4.86009C4.98485 4.63802 4.62027 4.52699 4.18608 4.52699C3.73864 4.52699 3.36577 4.64299 3.06747 4.875C2.76918 5.10369 2.5438 5.41525 2.39134 5.80966C2.24219 6.20407 2.16761 6.64489 2.16761 7.1321C2.16761 7.63258 2.24384 8.07173 2.39631 8.44957C2.54877 8.82741 2.77415 9.1224 3.07244 9.33452C3.37405 9.54664 3.74527 9.6527 4.18608 9.6527ZM11.1264 0.818182V11H9.63991V0.818182H11.1264ZM15.3485 11.169C14.8646 11.169 14.4271 11.0795 14.036 10.9006C13.6449 10.7183 13.335 10.4548 13.1064 10.1101C12.881 9.76539 12.7683 9.3428 12.7683 8.84233C12.7683 8.41146 12.8511 8.05682 13.0169 7.77841C13.1826 7.5 13.4063 7.27959 13.688 7.11719C13.9698 6.95478 14.2846 6.83215 14.6326 6.74929C14.9806 6.66643 15.3353 6.60346 15.6966 6.56037C16.1539 6.50734 16.5252 6.46425 16.8102 6.43111C17.0952 6.39465 17.3024 6.33665 17.4316 6.2571C17.5609 6.17756 17.6255 6.0483 17.6255 5.86932V5.83452C17.6255 5.40033 17.5029 5.06392 17.2576 4.82528C17.0157 4.58665 16.6544 4.46733 16.1738 4.46733C15.6734 4.46733 15.2789 4.57836 14.9906 4.80043C14.7056 5.01918 14.5083 5.26278 14.399 5.53125L13.002 5.21307C13.1677 4.74905 13.4096 4.37453 13.7278 4.08949C14.0493 3.80114 14.4189 3.59233 14.8365 3.46307C15.2541 3.33049 15.6932 3.2642 16.1539 3.2642C16.4589 3.2642 16.782 3.30066 17.1234 3.37358C17.4681 3.44318 17.7896 3.57244 18.0879 3.76136C18.3895 3.95028 18.6364 4.22041 18.8287 4.57173C19.0209 4.91974 19.117 5.37216 19.117 5.92898V11H17.6653V9.95597H17.6056C17.5095 10.1482 17.3654 10.3371 17.1731 10.5227C16.9809 10.7083 16.734 10.8625 16.4324 10.9851C16.1307 11.1077 15.7695 11.169 15.3485 11.169ZM15.6717 9.97585C16.0827 9.97585 16.434 9.89465 16.7257 9.73224C17.0207 9.56984 17.2444 9.35772 17.3968 9.09588C17.5526 8.83073 17.6305 8.54735 17.6305 8.24574V7.26136C17.5775 7.31439 17.4747 7.36411 17.3223 7.41051C17.1731 7.4536 17.0024 7.49171 16.8102 7.52486C16.618 7.55469 16.4307 7.58286 16.2484 7.60938C16.0661 7.63258 15.9136 7.65246 15.791 7.66903C15.5027 7.70549 15.2392 7.76681 15.0005 7.85298C14.7652 7.93916 14.5763 8.06345 14.4338 8.22585C14.2946 8.38494 14.225 8.59706 14.225 8.86222C14.225 9.23011 14.3609 9.50852 14.6326 9.69744C14.9044 9.88305 15.2508 9.97585 15.6717 9.97585ZM26.8192 5.22798L25.4719 5.46662C25.4156 5.29427 25.3261 5.13021 25.2035 4.97443C25.0842 4.81865 24.9218 4.69105 24.7163 4.59162C24.5108 4.49219 24.2539 4.44247 23.9457 4.44247C23.5247 4.44247 23.1734 4.53693 22.8917 4.72585C22.61 4.91146 22.4691 5.15175 22.4691 5.44673C22.4691 5.70194 22.5636 5.90743 22.7525 6.06321C22.9414 6.21899 23.2463 6.34659 23.6673 6.44602L24.8803 6.72443C25.583 6.88684 26.1067 7.13707 26.4513 7.47514C26.796 7.81321 26.9684 8.25237 26.9684 8.79261C26.9684 9.25 26.8358 9.65767 26.5707 10.0156C26.3088 10.3703 25.9426 10.6487 25.4719 10.8509C25.0046 11.053 24.4627 11.1541 23.8462 11.1541C22.9911 11.1541 22.2934 10.9718 21.7532 10.6072C21.2129 10.2393 20.8815 9.71733 20.7589 9.04119L22.1957 8.82244C22.2852 9.19697 22.4691 9.48035 22.7475 9.67259C23.0259 9.86151 23.3888 9.95597 23.8363 9.95597C24.3235 9.95597 24.7129 9.85488 25.0046 9.6527C25.2963 9.44721 25.4421 9.19697 25.4421 8.90199C25.4421 8.66335 25.3526 8.46283 25.1737 8.30043C24.998 8.13802 24.7279 8.01539 24.3633 7.93253L23.0707 7.64915C22.3581 7.48674 21.8311 7.22822 21.4897 6.87358C21.1516 6.51894 20.9826 6.06984 20.9826 5.52628C20.9826 5.07552 21.1085 4.68111 21.3604 4.34304C21.6123 4.00497 21.9603 3.74148 22.4045 3.55256C22.8486 3.36032 23.3574 3.2642 23.9308 3.2642C24.756 3.2642 25.4057 3.44318 25.8796 3.80114C26.3536 4.15578 26.6668 4.63139 26.8192 5.22798ZM34.3251 5.22798L32.9778 5.46662C32.9215 5.29427 32.832 5.13021 32.7093 4.97443C32.59 4.81865 32.4276 4.69105 32.2221 4.59162C32.0166 4.49219 31.7598 4.44247 31.4515 4.44247C31.0306 4.44247 30.6793 4.53693 30.3975 4.72585C30.1158 4.91146 29.975 5.15175 29.975 5.44673C29.975 5.70194 30.0694 5.90743 30.2583 6.06321C30.4473 6.21899 30.7522 6.34659 31.1731 6.44602L32.3862 6.72443C33.0888 6.88684 33.6125 7.13707 33.9572 7.47514C34.3019 7.81321 34.4743 8.25237 34.4743 8.79261C34.4743 9.25 34.3417 9.65767 34.0765 10.0156C33.8147 10.3703 33.4484 10.6487 32.9778 10.8509C32.5105 11.053 31.9686 11.1541 31.3521 11.1541C30.497 11.1541 29.7993 10.9718 29.2591 10.6072C28.7188 10.2393 28.3874 9.71733 28.2647 9.04119L29.7015 8.82244C29.791 9.19697 29.975 9.48035 30.2534 9.67259C30.5318 9.86151 30.8947 9.95597 31.3422 9.95597C31.8294 9.95597 32.2188 9.85488 32.5105 9.6527C32.8021 9.44721 32.948 9.19697 32.948 8.90199C32.948 8.66335 32.8585 8.46283 32.6795 8.30043C32.5038 8.13802 32.2337 8.01539 31.8691 7.93253L30.5765 7.64915C29.8639 7.48674 29.3369 7.22822 28.9956 6.87358C28.6575 6.51894 28.4885 6.06984 28.4885 5.52628C28.4885 5.07552 28.6144 4.68111 28.8663 4.34304C29.1182 4.00497 29.4662 3.74148 29.9103 3.55256C30.3545 3.36032 30.8632 3.2642 31.4366 3.2642C32.2619 3.2642 32.9115 3.44318 33.3855 3.80114C33.8594 4.15578 34.1726 4.63139 34.3251 5.22798ZM39.3999 11.1541C38.6475 11.1541 37.9995 10.9934 37.456 10.6719C36.9157 10.3471 36.4981 9.89134 36.2031 9.30469C35.9115 8.71473 35.7656 8.02367 35.7656 7.23153C35.7656 6.44934 35.9115 5.75994 36.2031 5.16335C36.4981 4.56676 36.9091 4.10109 37.4361 3.76633C37.9664 3.43158 38.5862 3.2642 39.2955 3.2642C39.7263 3.2642 40.1439 3.33546 40.5483 3.47798C40.9527 3.6205 41.3156 3.84422 41.6371 4.14915C41.9586 4.45407 42.2121 4.85014 42.3977 5.33736C42.5833 5.82126 42.6761 6.40956 42.6761 7.10227V7.62926H36.6058V6.51562H41.2195C41.2195 6.12453 41.1399 5.77817 40.9808 5.47656C40.8217 5.17164 40.598 4.93134 40.3097 4.75568C40.0246 4.58002 39.6899 4.49219 39.3054 4.49219C38.8878 4.49219 38.5232 4.59493 38.2116 4.80043C37.9034 5.0026 37.6648 5.26776 37.4957 5.59588C37.33 5.92069 37.2472 6.27367 37.2472 6.65483V7.52486C37.2472 8.03527 37.3366 8.46946 37.5156 8.82741C37.6979 9.18537 37.9515 9.45881 38.2763 9.64773C38.6011 9.83333 38.9806 9.92614 39.4148 9.92614C39.6965 9.92614 39.9534 9.88636 40.1854 9.80682C40.4174 9.72396 40.6179 9.60133 40.7869 9.43892C40.956 9.27652 41.0852 9.07599 41.1747 8.83736L42.5817 9.09091C42.469 9.50521 42.2668 9.86813 41.9751 10.1797C41.6868 10.4879 41.3239 10.7282 40.8864 10.9006C40.4522 11.0696 39.9567 11.1541 39.3999 11.1541ZM50.0478 5.22798L48.7005 5.46662C48.6441 5.29427 48.5546 5.13021 48.432 4.97443C48.3127 4.81865 48.1503 4.69105 47.9448 4.59162C47.7393 4.49219 47.4824 4.44247 47.1742 4.44247C46.7533 4.44247 46.4019 4.53693 46.1202 4.72585C45.8385 4.91146 45.6976 5.15175 45.6976 5.44673C45.6976 5.70194 45.7921 5.90743 45.981 6.06321C46.1699 6.21899 46.4748 6.34659 46.8958 6.44602L48.1088 6.72443C48.8115 6.88684 49.3352 7.13707 49.6799 7.47514C50.0246 7.81321 50.1969 8.25237 50.1969 8.79261C50.1969 9.25 50.0643 9.65767 49.7992 10.0156C49.5373 10.3703 49.1711 10.6487 48.7005 10.8509C48.2331 11.053 47.6912 11.1541 47.0748 11.1541C46.2196 11.1541 45.522 10.9718 44.9817 10.6072C44.4415 10.2393 44.11 9.71733 43.9874 9.04119L45.4242 8.82244C45.5137 9.19697 45.6976 9.48035 45.976 9.67259C46.2544 9.86151 46.6174 9.95597 47.0648 9.95597C47.552 9.95597 47.9415 9.85488 48.2331 9.6527C48.5248 9.44721 48.6706 9.19697 48.6706 8.90199C48.6706 8.66335 48.5811 8.46283 48.4022 8.30043C48.2265 8.13802 47.9564 8.01539 47.5918 7.93253L46.2992 7.64915C45.5866 7.48674 45.0596 7.22822 44.7182 6.87358C44.3801 6.51894 44.2111 6.06984 44.2111 5.52628C44.2111 5.07552 44.3371 4.68111 44.589 4.34304C44.8408 4.00497 45.1889 3.74148 45.633 3.55256C46.0771 3.36032 46.5859 3.2642 47.1593 3.2642C47.9846 3.2642 48.6342 3.44318 49.1081 3.80114C49.5821 4.15578 49.8953 4.63139 50.0478 5.22798ZM56.3306 6.05327V7.34091H51.8164V6.05327H56.3306ZM61.8366 11.169C61.0511 11.1657 60.38 10.9586 59.8232 10.5476C59.2663 10.1366 58.8404 9.53835 58.5455 8.75284C58.2505 7.96733 58.103 7.02107 58.103 5.91406C58.103 4.81037 58.2505 3.86742 58.5455 3.08523C58.8438 2.30303 59.2713 1.70644 59.8281 1.29545C60.3883 0.884469 61.0578 0.678977 61.8366 0.678977C62.6155 0.678977 63.2834 0.886126 63.8402 1.30043C64.397 1.71141 64.8229 2.308 65.1179 3.0902C65.4162 3.86908 65.5653 4.81037 65.5653 5.91406C65.5653 7.02438 65.4179 7.9723 65.1229 8.75781C64.8279 9.54001 64.402 10.1383 63.8452 10.5526C63.2884 10.9635 62.6188 11.169 61.8366 11.169ZM61.8366 9.84162C62.526 9.84162 63.0646 9.50521 63.4524 8.83239C63.8435 8.15956 64.0391 7.18679 64.0391 5.91406C64.0391 5.06889 63.9496 4.35464 63.7706 3.77131C63.5949 3.18466 63.3414 2.74053 63.0099 2.43892C62.6818 2.134 62.2907 1.98153 61.8366 1.98153C61.1506 1.98153 60.612 2.3196 60.2209 2.99574C59.8298 3.67187 59.6326 4.64465 59.6293 5.91406C59.6293 6.76255 59.7171 7.48011 59.8928 8.06676C60.0717 8.65009 60.3253 9.09257 60.6534 9.39418C60.9815 9.69247 61.3759 9.84162 61.8366 9.84162ZM71.1919 0.818182V11H69.6507V2.35938H69.5911L67.155 3.95028V2.47869L69.6955 0.818182H71.1919Z" fill="black"/>
</svg>
