<svg width="80" height="14" viewBox="0 0 80 14" fill="none" xmlns="http://www.w3.org/2000/svg">
<path d="M1.4858 6.46591V11H-0.000710189V0.818182H1.46591V4.60653H1.56037C1.73935 4.19555 2.01278 3.86908 2.38068 3.62713C2.74858 3.38518 3.22917 3.2642 3.82244 3.2642C4.34612 3.2642 4.8035 3.37192 5.1946 3.58736C5.58902 3.80279 5.89394 4.12429 6.10938 4.55185C6.32812 4.97609 6.4375 5.50639 6.4375 6.14276V11H4.95099V6.32173C4.95099 5.7616 4.80682 5.32741 4.51847 5.01918C4.23011 4.70762 3.82907 4.55185 3.31534 4.55185C2.96402 4.55185 2.64915 4.62642 2.37074 4.77557C2.09564 4.92472 1.87855 5.14347 1.71946 5.43182C1.56368 5.71686 1.4858 6.06155 1.4858 6.46591ZM11.7124 11.1541C10.96 11.1541 10.312 10.9934 9.76847 10.6719C9.22822 10.3471 8.81061 9.89134 8.51562 9.30469C8.22396 8.71473 8.07812 8.02367 8.07812 7.23153C8.07812 6.44934 8.22396 5.75994 8.51562 5.16335C8.81061 4.56676 9.22159 4.10109 9.74858 3.76633C10.2789 3.43158 10.8987 3.2642 11.608 3.2642C12.0388 3.2642 12.4564 3.33546 12.8608 3.47798C13.2652 3.6205 13.6281 3.84422 13.9496 4.14915C14.2711 4.45407 14.5246 4.85014 14.7102 5.33736C14.8958 5.82126 14.9886 6.40956 14.9886 7.10227V7.62926H8.91832V6.51562H13.532C13.532 6.12453 13.4524 5.77817 13.2933 5.47656C13.1342 5.17164 12.9105 4.93134 12.6222 4.75568C12.3371 4.58002 12.0024 4.49219 11.6179 4.49219C11.2003 4.49219 10.8357 4.59493 10.5241 4.80043C10.2159 5.0026 9.97727 5.26776 9.80824 5.59588C9.64252 5.92069 9.55966 6.27367 9.55966 6.65483V7.52486C9.55966 8.03527 9.64915 8.46946 9.82812 8.82741C10.0104 9.18537 10.264 9.45881 10.5888 9.64773C10.9136 9.83333 11.2931 9.92614 11.7273 9.92614C12.009 9.92614 12.2659 9.88636 12.4979 9.80682C12.7299 9.72396 12.9304 9.60133 13.0994 9.43892C13.2685 9.27652 13.3977 9.07599 13.4872 8.83736L14.8942 9.09091C14.7815 9.50521 14.5793 9.86813 14.2876 10.1797C13.9993 10.4879 13.6364 10.7282 13.1989 10.9006C12.7647 11.0696 12.2692 11.1541 11.7124 11.1541ZM18.1245 0.818182V11H16.638V0.818182H18.1245ZM20.1243 13.8636V3.36364H21.576V4.60156H21.7003C21.7865 4.44247 21.9107 4.25852 22.0732 4.04972C22.2356 3.84091 22.4609 3.65862 22.7493 3.50284C23.0376 3.34375 23.4188 3.2642 23.8928 3.2642C24.5092 3.2642 25.0594 3.41998 25.5433 3.73153C26.0272 4.04309 26.4067 4.49219 26.6818 5.07884C26.9602 5.66548 27.0994 6.37145 27.0994 7.19673C27.0994 8.02202 26.9619 8.72964 26.6868 9.3196C26.4117 9.90625 26.0339 10.3587 25.5533 10.6768C25.0727 10.9917 24.5241 11.1491 23.9077 11.1491C23.4437 11.1491 23.0642 11.0713 22.7692 10.9155C22.4775 10.7597 22.2488 10.5774 22.0831 10.3686C21.9174 10.1598 21.7898 9.9742 21.7003 9.81179H21.6108V13.8636H20.1243ZM21.581 7.18182C21.581 7.71875 21.6589 8.18939 21.8146 8.59375C21.9704 8.99811 22.1958 9.31463 22.4908 9.54332C22.7857 9.7687 23.147 9.88139 23.5746 9.88139C24.0187 9.88139 24.3899 9.76373 24.6882 9.52841C24.9865 9.28977 25.2119 8.96662 25.3643 8.55895C25.5201 8.15128 25.598 7.69223 25.598 7.18182C25.598 6.67803 25.5218 6.22562 25.3693 5.82457C25.2202 5.42353 24.9948 5.10701 24.6932 4.875C24.3949 4.64299 24.022 4.52699 23.5746 4.52699C23.1437 4.52699 22.7791 4.63802 22.4808 4.86009C22.1858 5.08215 21.9621 5.39205 21.8097 5.78977C21.6572 6.1875 21.581 6.65151 21.581 7.18182ZM33.2642 6.05327V7.34091H28.75V6.05327H33.2642ZM40.9677 5.22798L39.6204 5.46662C39.564 5.29427 39.4746 5.13021 39.3519 4.97443C39.2326 4.81865 39.0702 4.69105 38.8647 4.59162C38.6592 4.49219 38.4023 4.44247 38.0941 4.44247C37.6732 4.44247 37.3219 4.53693 37.0401 4.72585C36.7584 4.91146 36.6175 5.15175 36.6175 5.44673C36.6175 5.70194 36.712 5.90743 36.9009 6.06321C37.0898 6.21899 37.3948 6.34659 37.8157 6.44602L39.0288 6.72443C39.7314 6.88684 40.2551 7.13707 40.5998 7.47514C40.9445 7.81321 41.1168 8.25237 41.1168 8.79261C41.1168 9.25 40.9843 9.65767 40.7191 10.0156C40.4573 10.3703 40.091 10.6487 39.6204 10.8509C39.1531 11.053 38.6112 11.1541 37.9947 11.1541C37.1396 11.1541 36.4419 10.9718 35.9016 10.6072C35.3614 10.2393 35.0299 9.71733 34.9073 9.04119L36.3441 8.82244C36.4336 9.19697 36.6175 9.48035 36.896 9.67259C37.1744 9.86151 37.5373 9.95597 37.9847 9.95597C38.4719 9.95597 38.8614 9.85488 39.1531 9.6527C39.4447 9.44721 39.5906 9.19697 39.5906 8.90199C39.5906 8.66335 39.5011 8.46283 39.3221 8.30043C39.1464 8.13802 38.8763 8.01539 38.5117 7.93253L37.2191 7.64915C36.5065 7.48674 35.9795 7.22822 35.6381 6.87358C35.3001 6.51894 35.131 6.06984 35.131 5.52628C35.131 5.07552 35.257 4.68111 35.5089 4.34304C35.7608 4.00497 36.1088 3.74148 36.5529 3.55256C36.997 3.36032 37.5058 3.2642 38.0792 3.2642C38.9045 3.2642 39.5541 3.44318 40.0281 3.80114C40.502 4.15578 40.8152 4.63139 40.9677 5.22798ZM47.9068 13.8636V9.81179H47.8173C47.7278 9.9742 47.5985 10.1598 47.4295 10.3686C47.2638 10.5774 47.0351 10.7597 46.7434 10.9155C46.4518 11.0713 46.0739 11.1491 45.6099 11.1491C44.9934 11.1491 44.4432 10.9917 43.9593 10.6768C43.4788 10.3587 43.1009 9.90625 42.8258 9.3196C42.554 8.72964 42.4181 8.02202 42.4181 7.19673C42.4181 6.37145 42.5557 5.66548 42.8308 5.07884C43.1092 4.49219 43.4904 4.04309 43.9743 3.73153C44.4582 3.41998 45.0067 3.2642 45.6199 3.2642C46.0938 3.2642 46.475 3.34375 46.7633 3.50284C47.055 3.65862 47.2804 3.84091 47.4395 4.04972C47.6019 4.25852 47.7278 4.44247 47.8173 4.60156H47.9416V3.36364H49.3933V13.8636H47.9068ZM45.938 9.88139C46.3656 9.88139 46.7269 9.7687 47.0218 9.54332C47.3201 9.31463 47.5455 8.99811 47.698 8.59375C47.8538 8.18939 47.9316 7.71875 47.9316 7.18182C47.9316 6.65151 47.8554 6.1875 47.7029 5.78977C47.5505 5.39205 47.3268 5.08215 47.0318 4.86009C46.7368 4.63802 46.3722 4.52699 45.938 4.52699C45.4906 4.52699 45.1177 4.64299 44.8194 4.875C44.5211 5.10701 44.2958 5.42353 44.1433 5.82457C43.9941 6.22562 43.9196 6.67803 43.9196 7.18182C43.9196 7.69223 43.9958 8.15128 44.1483 8.55895C44.3007 8.96662 44.5261 9.28977 44.8244 9.52841C45.126 9.76373 45.4972 9.88139 45.938 9.88139ZM56.2292 7.8331V3.36364H57.7207V11H56.2591V9.67756H56.1795C56.0038 10.0852 55.7221 10.425 55.3343 10.6967C54.9499 10.9652 54.4709 11.0994 53.8975 11.0994C53.407 11.0994 52.9728 10.9917 52.595 10.7763C52.2205 10.5575 51.9255 10.2344 51.71 9.80682C51.4979 9.37926 51.3919 8.85062 51.3919 8.22088V3.36364H52.8784V8.0419C52.8784 8.56226 53.0225 8.97656 53.3109 9.2848C53.5993 9.59304 53.9738 9.74716 54.4345 9.74716C54.7129 9.74716 54.9896 9.67756 55.2647 9.53835C55.5431 9.39915 55.7735 9.18868 55.9558 8.90696C56.1414 8.62524 56.2325 8.26728 56.2292 7.8331ZM61.9403 11.169C61.4564 11.169 61.0189 11.0795 60.6278 10.9006C60.2367 10.7183 59.9268 10.4548 59.6982 10.1101C59.4728 9.76539 59.3601 9.3428 59.3601 8.84233C59.3601 8.41146 59.4429 8.05682 59.6087 7.77841C59.7744 7.5 59.9981 7.27959 60.2798 7.11719C60.5616 6.95478 60.8764 6.83215 61.2244 6.74929C61.5724 6.66643 61.9271 6.60346 62.2884 6.56037C62.7457 6.50734 63.117 6.46425 63.402 6.43111C63.687 6.39465 63.8942 6.33665 64.0234 6.2571C64.1527 6.17756 64.2173 6.0483 64.2173 5.86932V5.83452C64.2173 5.40033 64.0947 5.06392 63.8494 4.82528C63.6075 4.58665 63.2462 4.46733 62.7656 4.46733C62.2652 4.46733 61.8707 4.57836 61.5824 4.80043C61.2973 5.01918 61.1001 5.26278 60.9908 5.53125L59.5938 5.21307C59.7595 4.74905 60.0014 4.37453 60.3196 4.08949C60.6411 3.80114 61.0107 3.59233 61.4283 3.46307C61.8459 3.33049 62.285 3.2642 62.7457 3.2642C63.0507 3.2642 63.3738 3.30066 63.7152 3.37358C64.0599 3.44318 64.3814 3.57244 64.6797 3.76136C64.9813 3.95028 65.2282 4.22041 65.4205 4.57173C65.6127 4.91974 65.7088 5.37216 65.7088 5.92898V11H64.2571V9.95597H64.1974C64.1013 10.1482 63.9571 10.3371 63.7649 10.5227C63.5727 10.7083 63.3258 10.8625 63.0241 10.9851C62.7225 11.1077 62.3613 11.169 61.9403 11.169ZM62.2635 9.97585C62.6745 9.97585 63.0258 9.89465 63.3175 9.73224C63.6125 9.56984 63.8362 9.35772 63.9886 9.09588C64.1444 8.83073 64.2223 8.54735 64.2223 8.24574V7.26136C64.1693 7.31439 64.0665 7.36411 63.9141 7.41051C63.7649 7.4536 63.5942 7.49171 63.402 7.52486C63.2098 7.55469 63.0225 7.58286 62.8402 7.60938C62.6579 7.63258 62.5054 7.65246 62.3828 7.66903C62.0945 7.70549 61.831 7.76681 61.5923 7.85298C61.357 7.93916 61.1681 8.06345 61.0256 8.22585C60.8864 8.38494 60.8168 8.59706 60.8168 8.86222C60.8168 9.23011 60.9527 9.50852 61.2244 9.69744C61.4962 9.88305 61.8426 9.97585 62.2635 9.97585ZM67.6887 11V3.36364H69.1255V4.5767H69.2051C69.3443 4.16572 69.5895 3.84257 69.9409 3.60724C70.2955 3.36861 70.6966 3.24929 71.144 3.24929C71.2368 3.24929 71.3462 3.2526 71.4721 3.25923C71.6014 3.26586 71.7025 3.27415 71.7754 3.28409V4.70597C71.7157 4.68939 71.6097 4.67116 71.4572 4.65128C71.3047 4.62808 71.1523 4.61648 70.9998 4.61648C70.6485 4.61648 70.3353 4.69105 70.0602 4.8402C69.7884 4.98603 69.573 5.18987 69.4139 5.4517C69.2548 5.71023 69.1752 6.00521 69.1752 6.33665V11H67.6887ZM76.0795 11.1541C75.3272 11.1541 74.6792 10.9934 74.1357 10.6719C73.5954 10.3471 73.1778 9.89134 72.8828 9.30469C72.5911 8.71473 72.4453 8.02367 72.4453 7.23153C72.4453 6.44934 72.5911 5.75994 72.8828 5.16335C73.1778 4.56676 73.5888 4.10109 74.1158 3.76633C74.6461 3.43158 75.2659 3.2642 75.9751 3.2642C76.406 3.2642 76.8236 3.33546 77.228 3.47798C77.6323 3.6205 77.9953 3.84422 78.3168 4.14915C78.6383 4.45407 78.8918 4.85014 79.0774 5.33736C79.263 5.82126 79.3558 6.40956 79.3558 7.10227V7.62926H73.2855V6.51562H77.8991C77.8991 6.12453 77.8196 5.77817 77.6605 5.47656C77.5014 5.17164 77.2777 4.93134 76.9893 4.75568C76.7043 4.58002 76.3696 4.49219 75.9851 4.49219C75.5675 4.49219 75.2029 4.59493 74.8913 4.80043C74.5831 5.0026 74.3445 5.26776 74.1754 5.59588C74.0097 5.92069 73.9268 6.27367 73.9268 6.65483V7.52486C73.9268 8.03527 74.0163 8.46946 74.1953 8.82741C74.3776 9.18537 74.6312 9.45881 74.956 9.64773C75.2808 9.83333 75.6603 9.92614 76.0945 9.92614C76.3762 9.92614 76.633 9.88636 76.8651 9.80682C77.0971 9.72396 77.2976 9.60133 77.4666 9.43892C77.6357 9.27652 77.7649 9.07599 77.8544 8.83736L79.2614 9.09091C79.1487 9.50521 78.9465 9.86813 78.6548 10.1797C78.3665 10.4879 78.0036 10.7282 77.5661 10.9006C77.1319 11.0696 76.6364 11.1541 76.0795 11.1541Z" fill="black"/>
</svg>
