<svg width="62" height="15" viewBox="0 0 62 15" fill="none" xmlns="http://www.w3.org/2000/svg">
<path d="M3.85795 11.1491C3.24148 11.1491 2.69129 10.9917 2.20739 10.6768C1.7268 10.3587 1.34896 9.90625 1.07386 9.3196C0.802083 8.72964 0.666193 8.02202 0.666193 7.19673C0.666193 6.37145 0.803741 5.66548 1.07884 5.07884C1.35724 4.49219 1.7384 4.04309 2.2223 3.73153C2.7062 3.41998 3.25473 3.2642 3.8679 3.2642C4.34186 3.2642 4.72301 3.34375 5.01136 3.50284C5.30303 3.65862 5.52841 3.84091 5.6875 4.04972C5.84991 4.25852 5.97585 4.44247 6.06534 4.60156H6.15483V0.818182H7.64134V11H6.18963V9.81179H6.06534C5.97585 9.9742 5.84659 10.1598 5.67756 10.3686C5.51184 10.5774 5.28314 10.7597 4.99148 10.9155C4.69981 11.0713 4.32197 11.1491 3.85795 11.1491ZM4.18608 9.88139C4.61364 9.88139 4.97491 9.7687 5.26989 9.54332C5.56818 9.31463 5.79356 8.99811 5.94602 8.59375C6.1018 8.18939 6.17969 7.71875 6.17969 7.18182C6.17969 6.65151 6.10346 6.1875 5.95099 5.78977C5.79853 5.39205 5.57481 5.08215 5.27983 4.86009C4.98485 4.63802 4.62027 4.52699 4.18608 4.52699C3.73864 4.52699 3.36577 4.64299 3.06747 4.875C2.76918 5.10701 2.5438 5.42353 2.39134 5.82457C2.24219 6.22562 2.16761 6.67803 2.16761 7.18182C2.16761 7.69223 2.24384 8.15128 2.39631 8.55895C2.54877 8.96662 2.77415 9.28977 3.07244 9.52841C3.37405 9.76373 3.74527 9.88139 4.18608 9.88139ZM12.9796 11.1541C12.2637 11.1541 11.6389 10.9901 11.1053 10.6619C10.5717 10.3338 10.1574 9.87476 9.86239 9.2848C9.56741 8.69484 9.41992 8.00544 9.41992 7.21662C9.41992 6.42448 9.56741 5.73177 9.86239 5.13849C10.1574 4.54522 10.5717 4.08452 11.1053 3.75639C11.6389 3.42827 12.2637 3.2642 12.9796 3.2642C13.6955 3.2642 14.3203 3.42827 14.8539 3.75639C15.3875 4.08452 15.8018 4.54522 16.0968 5.13849C16.3917 5.73177 16.5392 6.42448 16.5392 7.21662C16.5392 8.00544 16.3917 8.69484 16.0968 9.2848C15.8018 9.87476 15.3875 10.3338 14.8539 10.6619C14.3203 10.9901 13.6955 11.1541 12.9796 11.1541ZM12.9846 9.90625C13.4486 9.90625 13.833 9.78362 14.138 9.53835C14.4429 9.29309 14.6683 8.96662 14.8141 8.55895C14.9632 8.15128 15.0378 7.70218 15.0378 7.21165C15.0378 6.72443 14.9632 6.27699 14.8141 5.86932C14.6683 5.45833 14.4429 5.12855 14.138 4.87997C13.833 4.63139 13.4486 4.5071 12.9846 4.5071C12.5172 4.5071 12.1294 4.63139 11.8212 4.87997C11.5163 5.12855 11.2892 5.45833 11.1401 5.86932C10.9943 6.27699 10.9213 6.72443 10.9213 7.21165C10.9213 7.70218 10.9943 8.15128 11.1401 8.55895C11.2892 8.96662 11.5163 9.29309 11.8212 9.53835C12.1294 9.78362 12.5172 9.90625 12.9846 9.90625ZM21.7631 3.36364V4.55682H17.592V3.36364H21.7631ZM18.7106 1.53409H20.1971V8.75781C20.1971 9.04616 20.2402 9.26326 20.3263 9.40909C20.4125 9.55161 20.5236 9.64938 20.6594 9.70241C20.7987 9.75213 20.9495 9.77699 21.1119 9.77699C21.2312 9.77699 21.3356 9.7687 21.4251 9.75213C21.5146 9.73556 21.5842 9.7223 21.6339 9.71236L21.9023 10.9403C21.8162 10.9735 21.6935 11.0066 21.5344 11.0398C21.3754 11.0762 21.1765 11.0961 20.9379 11.0994C20.5468 11.1061 20.1822 11.0365 19.8441 10.8906C19.506 10.7448 19.2326 10.5194 19.0238 10.2145C18.815 9.90956 18.7106 9.52675 18.7106 9.06605V1.53409ZM29.0067 5.22798L27.6594 5.46662C27.6031 5.29427 27.5136 5.13021 27.391 4.97443C27.2717 4.81865 27.1093 4.69105 26.9038 4.59162C26.6983 4.49219 26.4414 4.44247 26.1332 4.44247C25.7122 4.44247 25.3609 4.53693 25.0792 4.72585C24.7975 4.91146 24.6566 5.15175 24.6566 5.44673C24.6566 5.70194 24.7511 5.90743 24.94 6.06321C25.1289 6.21899 25.4338 6.34659 25.8548 6.44602L27.0678 6.72443C27.7705 6.88684 28.2942 7.13707 28.6388 7.47514C28.9835 7.81321 29.1559 8.25237 29.1559 8.79261C29.1559 9.25 29.0233 9.65767 28.7582 10.0156C28.4963 10.3703 28.1301 10.6487 27.6594 10.8509C27.1921 11.053 26.6502 11.1541 26.0337 11.1541C25.1786 11.1541 24.4809 10.9718 23.9407 10.6072C23.4004 10.2393 23.069 9.71733 22.9464 9.04119L24.3832 8.82244C24.4727 9.19697 24.6566 9.48035 24.935 9.67259C25.2134 9.86151 25.5763 9.95597 26.0238 9.95597C26.511 9.95597 26.9004 9.85488 27.1921 9.6527C27.4838 9.44721 27.6296 9.19697 27.6296 8.90199C27.6296 8.66335 27.5401 8.46283 27.3612 8.30043C27.1855 8.13802 26.9154 8.01539 26.5508 7.93253L25.2582 7.64915C24.5456 7.48674 24.0186 7.22822 23.6772 6.87358C23.3391 6.51894 23.1701 6.06984 23.1701 5.52628C23.1701 5.07552 23.296 4.68111 23.5479 4.34304C23.7998 4.00497 24.1478 3.74148 24.592 3.55256C25.0361 3.36032 25.5449 3.2642 26.1183 3.2642C26.9435 3.2642 27.5932 3.44318 28.0671 3.80114C28.5411 4.15578 28.8543 4.63139 29.0067 5.22798ZM35.2896 6.05327V7.34091H30.7754V6.05327H35.2896ZM40.4725 14.0227C39.8659 14.0227 39.3439 13.9432 38.9064 13.7841C38.4722 13.625 38.1176 13.4145 37.8425 13.1527C37.5674 12.8909 37.3619 12.6042 37.226 12.2926L38.5037 11.7656C38.5932 11.9115 38.7125 12.0656 38.8617 12.228C39.0141 12.3937 39.2196 12.5346 39.4782 12.6506C39.74 12.7666 40.0764 12.8246 40.4874 12.8246C41.0508 12.8246 41.5165 12.687 41.8844 12.4119C42.2523 12.1402 42.4363 11.706 42.4363 11.1094V9.60795H42.3418C42.2523 9.77036 42.123 9.95099 41.954 10.1499C41.7883 10.3487 41.5596 10.5211 41.2679 10.6669C40.9763 10.8127 40.5968 10.8857 40.1294 10.8857C39.5262 10.8857 38.9827 10.7448 38.4988 10.4631C38.0182 10.178 37.637 9.75876 37.3553 9.20526C37.0769 8.64844 36.9377 7.96401 36.9377 7.15199C36.9377 6.33996 37.0752 5.64394 37.3503 5.06392C37.6287 4.4839 38.0099 4.03977 38.4938 3.73153C38.9777 3.41998 39.5262 3.2642 40.1394 3.2642C40.6133 3.2642 40.9962 3.34375 41.2878 3.50284C41.5795 3.65862 41.8065 3.84091 41.9689 4.04972C42.1346 4.25852 42.2623 4.44247 42.3517 4.60156H42.4611V3.36364H43.9178V11.169C43.9178 11.8253 43.7653 12.3639 43.4604 12.7848C43.1555 13.2057 42.7428 13.5173 42.2225 13.7195C41.7054 13.9216 41.1221 14.0227 40.4725 14.0227ZM40.4576 9.6527C40.8851 9.6527 41.2464 9.55327 41.5414 9.3544C41.8397 9.15223 42.065 8.86387 42.2175 8.48935C42.3733 8.11151 42.4512 7.65909 42.4512 7.1321C42.4512 6.61837 42.3749 6.16596 42.2225 5.77486C42.07 5.38376 41.8463 5.07884 41.5513 4.86009C41.2563 4.63802 40.8917 4.52699 40.4576 4.52699C40.0101 4.52699 39.6373 4.64299 39.339 4.875C39.0407 5.10369 38.8153 5.41525 38.6628 5.80966C38.5137 6.20407 38.4391 6.64489 38.4391 7.1321C38.4391 7.63258 38.5153 8.07173 38.6678 8.44957C38.8203 8.82741 39.0456 9.1224 39.3439 9.33452C39.6455 9.54664 40.0167 9.6527 40.4576 9.6527ZM45.9114 11V3.36364H47.3482V4.5767H47.4277C47.5669 4.16572 47.8122 3.84257 48.1635 3.60724C48.5182 3.36861 48.9192 3.24929 49.3667 3.24929C49.4595 3.24929 49.5688 3.2526 49.6948 3.25923C49.824 3.26586 49.9251 3.27415 49.998 3.28409V4.70597C49.9384 4.68939 49.8323 4.67116 49.6799 4.65128C49.5274 4.62808 49.3749 4.61648 49.2225 4.61648C48.8712 4.61648 48.5579 4.69105 48.2828 4.8402C48.0111 4.98603 47.7956 5.18987 47.6365 5.4517C47.4775 5.71023 47.3979 6.00521 47.3979 6.33665V11H45.9114ZM51.2844 11V3.36364H52.771V11H51.2844ZM52.0352 2.18537C51.7766 2.18537 51.5546 2.09919 51.369 1.92685C51.1867 1.75118 51.0955 1.54238 51.0955 1.30043C51.0955 1.05516 51.1867 0.846354 51.369 0.674005C51.5546 0.498342 51.7766 0.410511 52.0352 0.410511C52.2937 0.410511 52.5141 0.498342 52.6964 0.674005C52.882 0.846354 52.9748 1.05516 52.9748 1.30043C52.9748 1.54238 52.882 1.75118 52.6964 1.92685C52.5141 2.09919 52.2937 2.18537 52.0352 2.18537ZM57.6294 11.1491C57.013 11.1491 56.4628 10.9917 55.9789 10.6768C55.4983 10.3587 55.1204 9.90625 54.8453 9.3196C54.5736 8.72964 54.4377 8.02202 54.4377 7.19673C54.4377 6.37145 54.5752 5.66548 54.8503 5.07884C55.1287 4.49219 55.5099 4.04309 55.9938 3.73153C56.4777 3.41998 57.0262 3.2642 57.6394 3.2642C58.1133 3.2642 58.4945 3.34375 58.7828 3.50284C59.0745 3.65862 59.2999 3.84091 59.459 4.04972C59.6214 4.25852 59.7473 4.44247 59.8368 4.60156H59.9263V0.818182H61.4128V11H59.9611V9.81179H59.8368C59.7473 9.9742 59.6181 10.1598 59.449 10.3686C59.2833 10.5774 59.0546 10.7597 58.763 10.9155C58.4713 11.0713 58.0935 11.1491 57.6294 11.1491ZM57.9576 9.88139C58.3851 9.88139 58.7464 9.7687 59.0414 9.54332C59.3397 9.31463 59.565 8.99811 59.7175 8.59375C59.8733 8.18939 59.9512 7.71875 59.9512 7.18182C59.9512 6.65151 59.8749 6.1875 59.7225 5.78977C59.57 5.39205 59.3463 5.08215 59.0513 4.86009C58.7563 4.63802 58.3917 4.52699 57.9576 4.52699C57.5101 4.52699 57.1373 4.64299 56.839 4.875C56.5407 5.10701 56.3153 5.42353 56.1628 5.82457C56.0137 6.22562 55.9391 6.67803 55.9391 7.18182C55.9391 7.69223 56.0153 8.15128 56.1678 8.55895C56.3203 8.96662 56.5456 9.28977 56.8439 9.52841C57.1455 9.76373 57.5167 9.88139 57.9576 9.88139Z" fill="black"/>
</svg>
