<svg width="46" height="12" viewBox="0 0 46 12" fill="none" xmlns="http://www.w3.org/2000/svg">
<path d="M4.56392 3.36364V4.55682H0.392756V3.36364H4.56392ZM1.51136 1.53409H2.99787V8.75781C2.99787 9.04616 3.04096 9.26326 3.12713 9.40909C3.21331 9.55161 3.32434 9.64938 3.46023 9.70241C3.59943 9.75213 3.75024 9.77699 3.91264 9.77699C4.03196 9.77699 4.13636 9.7687 4.22585 9.75213C4.31534 9.73556 4.38494 9.7223 4.43466 9.71236L4.70312 10.9403C4.61695 10.9735 4.49432 11.0066 4.33523 11.0398C4.17614 11.0762 3.97727 11.0961 3.73864 11.0994C3.34754 11.1061 2.98295 11.0365 2.64489 10.8906C2.30682 10.7448 2.03338 10.5194 1.82457 10.2145C1.61577 9.90956 1.51136 9.52675 1.51136 9.06605V1.53409ZM9.34286 11.1541C8.62695 11.1541 8.00219 10.9901 7.46857 10.6619C6.93496 10.3338 6.52066 9.87476 6.22567 9.2848C5.93069 8.69484 5.7832 8.00544 5.7832 7.21662C5.7832 6.42448 5.93069 5.73177 6.22567 5.13849C6.52066 4.54522 6.93496 4.08452 7.46857 3.75639C8.00219 3.42827 8.62695 3.2642 9.34286 3.2642C10.0588 3.2642 10.6835 3.42827 11.2172 3.75639C11.7508 4.08452 12.1651 4.54522 12.46 5.13849C12.755 5.73177 12.9025 6.42448 12.9025 7.21662C12.9025 8.00544 12.755 8.69484 12.46 9.2848C12.1651 9.87476 11.7508 10.3338 11.2172 10.6619C10.6835 10.9901 10.0588 11.1541 9.34286 11.1541ZM9.34783 9.90625C9.81185 9.90625 10.1963 9.78362 10.5012 9.53835C10.8062 9.29309 11.0315 8.96662 11.1774 8.55895C11.3265 8.15128 11.4011 7.70218 11.4011 7.21165C11.4011 6.72443 11.3265 6.27699 11.1774 5.86932C11.0315 5.45833 10.8062 5.12855 10.5012 4.87997C10.1963 4.63139 9.81185 4.5071 9.34783 4.5071C8.8805 4.5071 8.49272 4.63139 8.18448 4.87997C7.87956 5.12855 7.65252 5.45833 7.50337 5.86932C7.35754 6.27699 7.28462 6.72443 7.28462 7.21165C7.28462 7.70218 7.35754 8.15128 7.50337 8.55895C7.65252 8.96662 7.87956 9.29309 8.18448 9.53835C8.49272 9.78362 8.8805 9.90625 9.34783 9.90625ZM17.7784 11.1541C17.0625 11.1541 16.4377 10.9901 15.9041 10.6619C15.3705 10.3338 14.9562 9.87476 14.6612 9.2848C14.3662 8.69484 14.2188 8.00544 14.2188 7.21662C14.2188 6.42448 14.3662 5.73177 14.6612 5.13849C14.9562 4.54522 15.3705 4.08452 15.9041 3.75639C16.4377 3.42827 17.0625 3.2642 17.7784 3.2642C18.4943 3.2642 19.1191 3.42827 19.6527 3.75639C20.1863 4.08452 20.6006 4.54522 20.8956 5.13849C21.1906 5.73177 21.3381 6.42448 21.3381 7.21662C21.3381 8.00544 21.1906 8.69484 20.8956 9.2848C20.6006 9.87476 20.1863 10.3338 19.6527 10.6619C19.1191 10.9901 18.4943 11.1541 17.7784 11.1541ZM17.7834 9.90625C18.2474 9.90625 18.6319 9.78362 18.9368 9.53835C19.2417 9.29309 19.4671 8.96662 19.6129 8.55895C19.7621 8.15128 19.8366 7.70218 19.8366 7.21165C19.8366 6.72443 19.7621 6.27699 19.6129 5.86932C19.4671 5.45833 19.2417 5.12855 18.9368 4.87997C18.6319 4.63139 18.2474 4.5071 17.7834 4.5071C17.3161 4.5071 16.9283 4.63139 16.62 4.87997C16.3151 5.12855 16.0881 5.45833 15.9389 5.86932C15.7931 6.27699 15.7202 6.72443 15.7202 7.21165C15.7202 7.70218 15.7931 8.15128 15.9389 8.55895C16.0881 8.96662 16.3151 9.29309 16.62 9.53835C16.9283 9.78362 17.3161 9.90625 17.7834 9.90625ZM24.4838 0.818182V11H22.9973V0.818182H24.4838ZM30.983 6.05327V7.34091H26.4688V6.05327H30.983ZM36.489 11.169C35.7035 11.1657 35.0323 10.9586 34.4755 10.5476C33.9187 10.1366 33.4928 9.53835 33.1978 8.75284C32.9028 7.96733 32.7553 7.02107 32.7553 5.91406C32.7553 4.81037 32.9028 3.86742 33.1978 3.08523C33.4961 2.30303 33.9237 1.70644 34.4805 1.29545C35.0406 0.884469 35.7101 0.678977 36.489 0.678977C37.2679 0.678977 37.9357 0.886126 38.4925 1.30043C39.0494 1.71141 39.4753 2.308 39.7702 3.0902C40.0685 3.86908 40.2177 4.81037 40.2177 5.91406C40.2177 7.02438 40.0702 7.9723 39.7752 8.75781C39.4802 9.54001 39.0543 10.1383 38.4975 10.5526C37.9407 10.9635 37.2712 11.169 36.489 11.169ZM36.489 9.84162C37.1784 9.84162 37.717 9.50521 38.1048 8.83239C38.4959 8.15956 38.6914 7.18679 38.6914 5.91406C38.6914 5.06889 38.6019 4.35464 38.4229 3.77131C38.2473 3.18466 37.9937 2.74053 37.6623 2.43892C37.3342 2.134 36.9431 1.98153 36.489 1.98153C35.8029 1.98153 35.2643 2.3196 34.8732 2.99574C34.4821 3.67187 34.2849 4.64465 34.2816 5.91406C34.2816 6.76255 34.3694 7.48011 34.5451 8.06676C34.7241 8.65009 34.9776 9.09257 35.3058 9.39418C35.6339 9.69247 36.0283 9.84162 36.489 9.84162ZM45.8443 0.818182V11H44.3031V2.35938H44.2434L41.8074 3.95028V2.47869L44.3478 0.818182H45.8443Z" fill="black"/>
</svg>
