<svg width="59" height="11" viewBox="0 0 59 11" fill="none" xmlns="http://www.w3.org/2000/svg">
<path d="M2.17259 0.363636L3.85795 3.33665L5.55824 0.363636H7.18395L4.80256 4.18182L7.20384 8H5.57812L3.85795 5.14631L2.14276 8H0.512074L2.88849 4.18182L0.541903 0.363636H2.17259ZM12.8951 3.05327V4.34091H8.38086V3.05327H12.8951ZM20.5985 2.22798L19.2512 2.46662C19.1949 2.29427 19.1054 2.13021 18.9828 1.97443C18.8635 1.81865 18.7011 1.69105 18.4956 1.59162C18.2901 1.49219 18.0332 1.44247 17.725 1.44247C17.304 1.44247 16.9527 1.53693 16.671 1.72585C16.3893 1.91146 16.2484 2.15175 16.2484 2.44673C16.2484 2.70194 16.3429 2.90743 16.5318 3.06321C16.7207 3.21899 17.0256 3.34659 17.4466 3.44602L18.6596 3.72443C19.3623 3.88684 19.8859 4.13707 20.2306 4.47514C20.5753 4.81321 20.7477 5.25237 20.7477 5.79261C20.7477 6.25 20.6151 6.65767 20.35 7.01562C20.0881 7.37027 19.7219 7.64867 19.2512 7.85085C18.7839 8.05303 18.242 8.15412 17.6255 8.15412C16.7704 8.15412 16.0727 7.97183 15.5325 7.60724C14.9922 7.23935 14.6608 6.71733 14.5382 6.04119L15.975 5.82244C16.0645 6.19697 16.2484 6.48035 16.5268 6.67259C16.8052 6.86151 17.1681 6.95597 17.6156 6.95597C18.1028 6.95597 18.4922 6.85488 18.7839 6.6527C19.0756 6.44721 19.2214 6.19697 19.2214 5.90199C19.2214 5.66335 19.1319 5.46283 18.9529 5.30043C18.7773 5.13802 18.5072 5.01539 18.1426 4.93253L16.85 4.64915C16.1374 4.48674 15.6104 4.22822 15.269 3.87358C14.9309 3.51894 14.7619 3.06984 14.7619 2.52628C14.7619 2.07552 14.8878 1.68111 15.1397 1.34304C15.3916 1.00497 15.7396 0.741477 16.1838 0.552557C16.6279 0.360322 17.1367 0.264205 17.71 0.264205C18.5353 0.264205 19.185 0.443182 19.6589 0.801136C20.1329 1.15578 20.4461 1.63139 20.5985 2.22798ZM27.5376 10.8636V6.81179H27.4482C27.3587 6.9742 27.2294 7.1598 27.0604 7.36861C26.8946 7.57741 26.666 7.75971 26.3743 7.91548C26.0826 8.07126 25.7048 8.14915 25.2408 8.14915C24.6243 8.14915 24.0741 7.99171 23.5902 7.67685C23.1096 7.35866 22.7318 6.90625 22.4567 6.3196C22.1849 5.72964 22.049 5.02202 22.049 4.19673C22.049 3.37145 22.1866 2.66548 22.4616 2.07884C22.7401 1.49219 23.1212 1.04309 23.6051 0.731534C24.089 0.419981 24.6375 0.264205 25.2507 0.264205C25.7247 0.264205 26.1058 0.34375 26.3942 0.502841C26.6858 0.658617 26.9112 0.840909 27.0703 1.04972C27.2327 1.25852 27.3587 1.44247 27.4482 1.60156H27.5724V0.363636H29.0241V10.8636H27.5376ZM25.5689 6.88139C25.9964 6.88139 26.3577 6.7687 26.6527 6.54332C26.951 6.31463 27.1764 5.99811 27.3288 5.59375C27.4846 5.18939 27.5625 4.71875 27.5625 4.18182C27.5625 3.65151 27.4863 3.1875 27.3338 2.78977C27.1813 2.39205 26.9576 2.08215 26.6626 1.86009C26.3677 1.63802 26.0031 1.52699 25.5689 1.52699C25.1214 1.52699 24.7486 1.64299 24.4503 1.875C24.152 2.10701 23.9266 2.42353 23.7741 2.82457C23.625 3.22562 23.5504 3.67803 23.5504 4.18182C23.5504 4.69223 23.6267 5.15128 23.7791 5.55895C23.9316 5.96662 24.157 6.28977 24.4553 6.52841C24.7569 6.76373 25.1281 6.88139 25.5689 6.88139ZM35.8601 4.8331V0.363636H37.3516V8H35.8899V6.67756H35.8104C35.6347 7.08523 35.353 7.42495 34.9652 7.69673C34.5807 7.9652 34.1018 8.09943 33.5284 8.09943C33.0379 8.09943 32.6037 7.99171 32.2259 7.77628C31.8513 7.55753 31.5563 7.23438 31.3409 6.80682C31.1288 6.37926 31.0227 5.85062 31.0227 5.22088V0.363636H32.5092V5.0419C32.5092 5.56226 32.6534 5.97656 32.9418 6.2848C33.2301 6.59304 33.6046 6.74716 34.0653 6.74716C34.3438 6.74716 34.6205 6.67756 34.8956 6.53835C35.174 6.39915 35.4044 6.18868 35.5866 5.90696C35.7723 5.62524 35.8634 5.26728 35.8601 4.8331ZM41.5712 8.16903C41.0873 8.16903 40.6498 8.07955 40.2587 7.90057C39.8676 7.71828 39.5577 7.45478 39.329 7.11009C39.1036 6.76539 38.9909 6.3428 38.9909 5.84233C38.9909 5.41146 39.0738 5.05682 39.2395 4.77841C39.4052 4.5 39.629 4.27959 39.9107 4.11719C40.1924 3.95478 40.5073 3.83215 40.8553 3.74929C41.2033 3.66643 41.5579 3.60346 41.9192 3.56037C42.3766 3.50734 42.7478 3.46425 43.0328 3.43111C43.3179 3.39465 43.525 3.33665 43.6543 3.2571C43.7836 3.17756 43.8482 3.0483 43.8482 2.86932V2.83452C43.8482 2.40033 43.7256 2.06392 43.4803 1.82528C43.2383 1.58665 42.8771 1.46733 42.3965 1.46733C41.896 1.46733 41.5016 1.57836 41.2132 1.80043C40.9282 2.01918 40.731 2.26278 40.6216 2.53125L39.2246 2.21307C39.3903 1.74905 39.6323 1.37453 39.9505 1.08949C40.272 0.801136 40.6415 0.592329 41.0591 0.463068C41.4767 0.330492 41.9159 0.264205 42.3766 0.264205C42.6815 0.264205 43.0047 0.300663 43.3461 0.37358C43.6908 0.443182 44.0123 0.572443 44.3105 0.761363C44.6122 0.950284 44.8591 1.22041 45.0513 1.57173C45.2435 1.91974 45.3397 2.37216 45.3397 2.92898V8H43.888V6.95597H43.8283C43.7322 7.1482 43.588 7.33712 43.3958 7.52273C43.2035 7.70833 42.9566 7.86245 42.655 7.98509C42.3534 8.10772 41.9921 8.16903 41.5712 8.16903ZM41.8944 6.97585C42.3053 6.97585 42.6567 6.89465 42.9483 6.73224C43.2433 6.56984 43.467 6.35772 43.6195 6.09588C43.7753 5.83073 43.8532 5.54735 43.8532 5.24574V4.26136C43.8001 4.31439 43.6974 4.36411 43.5449 4.41051C43.3958 4.4536 43.2251 4.49171 43.0328 4.52486C42.8406 4.55469 42.6534 4.58286 42.4711 4.60938C42.2888 4.63258 42.1363 4.65246 42.0137 4.66903C41.7253 4.70549 41.4618 4.76681 41.2232 4.85298C40.9879 4.93916 40.7989 5.06345 40.6564 5.22585C40.5172 5.38494 40.4476 5.59706 40.4476 5.86222C40.4476 6.23011 40.5835 6.50852 40.8553 6.69744C41.1271 6.88305 41.4734 6.97585 41.8944 6.97585ZM47.3196 8V0.363636H48.7564V1.5767H48.8359C48.9751 1.16572 49.2204 0.842566 49.5717 0.607244C49.9264 0.368608 50.3274 0.249289 50.7749 0.249289C50.8677 0.249289 50.977 0.252604 51.103 0.259233C51.2322 0.265861 51.3333 0.274147 51.4062 0.284091V1.70597C51.3466 1.68939 51.2405 1.67116 51.0881 1.65128C50.9356 1.62808 50.7831 1.61648 50.6307 1.61648C50.2794 1.61648 49.9661 1.69105 49.6911 1.8402C49.4193 1.98603 49.2038 2.18987 49.0447 2.4517C48.8857 2.71023 48.8061 3.00521 48.8061 3.33665V8H47.3196ZM55.7104 8.15412C54.958 8.15412 54.3101 7.99337 53.7665 7.67188C53.2263 7.34706 52.8087 6.89134 52.5137 6.30469C52.222 5.71473 52.0762 5.02367 52.0762 4.23153C52.0762 3.44934 52.222 2.75994 52.5137 2.16335C52.8087 1.56676 53.2196 1.10109 53.7466 0.766335C54.2769 0.431581 54.8967 0.264205 55.606 0.264205C56.0369 0.264205 56.4545 0.335464 56.8588 0.477983C57.2632 0.620502 57.6261 0.844223 57.9476 1.14915C58.2691 1.45407 58.5227 1.85014 58.7083 2.33736C58.8939 2.82126 58.9867 3.40956 58.9867 4.10227V4.62926H52.9164V3.51562H57.53C57.53 3.12453 57.4505 2.77817 57.2914 2.47656C57.1323 2.17164 56.9086 1.93134 56.6202 1.75568C56.3352 1.58002 56.0004 1.49219 55.6159 1.49219C55.1983 1.49219 54.8337 1.59493 54.5222 1.80043C54.214 2.0026 53.9753 2.26776 53.8063 2.59588C53.6406 2.92069 53.5577 3.27367 53.5577 3.65483V4.52486C53.5577 5.03527 53.6472 5.46946 53.8262 5.82741C54.0085 6.18537 54.262 6.45881 54.5868 6.64773C54.9116 6.83333 55.2911 6.92614 55.7253 6.92614C56.007 6.92614 56.2639 6.88636 56.4959 6.80682C56.7279 6.72396 56.9284 6.60133 57.0975 6.43892C57.2665 6.27652 57.3958 6.07599 57.4853 5.83736L58.8922 6.09091C58.7795 6.50521 58.5774 6.86813 58.2857 7.17969C57.9973 7.48793 57.6344 7.72822 57.1969 7.90057C56.7627 8.0696 56.2672 8.15412 55.7104 8.15412Z" fill="black"/>
</svg>
