<svg width="35" height="12" viewBox="0 0 35 12" fill="none" xmlns="http://www.w3.org/2000/svg">
<path d="M1.4858 6.46591V11H-0.000710189V0.818182H1.46591V4.60653H1.56037C1.73935 4.19555 2.01278 3.86908 2.38068 3.62713C2.74858 3.38518 3.22917 3.2642 3.82244 3.2642C4.34612 3.2642 4.8035 3.37192 5.1946 3.58736C5.58902 3.80279 5.89394 4.12429 6.10938 4.55185C6.32812 4.97609 6.4375 5.50639 6.4375 6.14276V11H4.95099V6.32173C4.95099 5.7616 4.80682 5.32741 4.51847 5.01918C4.23011 4.70762 3.82907 4.55185 3.31534 4.55185C2.96402 4.55185 2.64915 4.62642 2.37074 4.77557C2.09564 4.92472 1.87855 5.14347 1.71946 5.43182C1.56368 5.71686 1.4858 6.06155 1.4858 6.46591ZM11.7124 11.1541C10.96 11.1541 10.312 10.9934 9.76847 10.6719C9.22822 10.3471 8.81061 9.89134 8.51562 9.30469C8.22396 8.71473 8.07812 8.02367 8.07812 7.23153C8.07812 6.44934 8.22396 5.75994 8.51562 5.16335C8.81061 4.56676 9.22159 4.10109 9.74858 3.76633C10.2789 3.43158 10.8987 3.2642 11.608 3.2642C12.0388 3.2642 12.4564 3.33546 12.8608 3.47798C13.2652 3.6205 13.6281 3.84422 13.9496 4.14915C14.2711 4.45407 14.5246 4.85014 14.7102 5.33736C14.8958 5.82126 14.9886 6.40956 14.9886 7.10227V7.62926H8.91832V6.51562H13.532C13.532 6.12453 13.4524 5.77817 13.2933 5.47656C13.1342 5.17164 12.9105 4.93134 12.6222 4.75568C12.3371 4.58002 12.0024 4.49219 11.6179 4.49219C11.2003 4.49219 10.8357 4.59493 10.5241 4.80043C10.2159 5.0026 9.97727 5.26776 9.80824 5.59588C9.64252 5.92069 9.55966 6.27367 9.55966 6.65483V7.52486C9.55966 8.03527 9.64915 8.46946 9.82812 8.82741C10.0104 9.18537 10.264 9.45881 10.5888 9.64773C10.9136 9.83333 11.2931 9.92614 11.7273 9.92614C12.009 9.92614 12.2659 9.88636 12.4979 9.80682C12.7299 9.72396 12.9304 9.60133 13.0994 9.43892C13.2685 9.27652 13.3977 9.07599 13.4872 8.83736L14.8942 9.09091C14.7815 9.50521 14.5793 9.86813 14.2876 10.1797C13.9993 10.4879 13.6364 10.7282 13.1989 10.9006C12.7647 11.0696 12.2692 11.1541 11.7124 11.1541ZM18.8603 11.169C18.3764 11.169 17.9389 11.0795 17.5478 10.9006C17.1567 10.7183 16.8468 10.4548 16.6181 10.1101C16.3927 9.76539 16.28 9.3428 16.28 8.84233C16.28 8.41146 16.3629 8.05682 16.5286 7.77841C16.6943 7.5 16.918 7.27959 17.1998 7.11719C17.4815 6.95478 17.7963 6.83215 18.1444 6.74929C18.4924 6.66643 18.847 6.60346 19.2083 6.56037C19.6657 6.50734 20.0369 6.46425 20.3219 6.43111C20.6069 6.39465 20.8141 6.33665 20.9434 6.2571C21.0726 6.17756 21.1373 6.0483 21.1373 5.86932V5.83452C21.1373 5.40033 21.0146 5.06392 20.7694 4.82528C20.5274 4.58665 20.1661 4.46733 19.6855 4.46733C19.1851 4.46733 18.7907 4.57836 18.5023 4.80043C18.2173 5.01918 18.0201 5.26278 17.9107 5.53125L16.5137 5.21307C16.6794 4.74905 16.9213 4.37453 17.2395 4.08949C17.561 3.80114 17.9306 3.59233 18.3482 3.46307C18.7658 3.33049 19.205 3.2642 19.6657 3.2642C19.9706 3.2642 20.2937 3.30066 20.6351 3.37358C20.9798 3.44318 21.3013 3.57244 21.5996 3.76136C21.9012 3.95028 22.1481 4.22041 22.3404 4.57173C22.5326 4.91974 22.6287 5.37216 22.6287 5.92898V11H21.177V9.95597H21.1174C21.0212 10.1482 20.8771 10.3371 20.6848 10.5227C20.4926 10.7083 20.2457 10.8625 19.9441 10.9851C19.6425 11.1077 19.2812 11.169 18.8603 11.169ZM19.1834 9.97585C19.5944 9.97585 19.9457 9.89465 20.2374 9.73224C20.5324 9.56984 20.7561 9.35772 20.9086 9.09588C21.0643 8.83073 21.1422 8.54735 21.1422 8.24574V7.26136C21.0892 7.31439 20.9864 7.36411 20.834 7.41051C20.6848 7.4536 20.5141 7.49171 20.3219 7.52486C20.1297 7.55469 19.9424 7.58286 19.7601 7.60938C19.5778 7.63258 19.4254 7.65246 19.3027 7.66903C19.0144 7.70549 18.7509 7.76681 18.5123 7.85298C18.2769 7.93916 18.088 8.06345 17.9455 8.22585C17.8063 8.38494 17.7367 8.59706 17.7367 8.86222C17.7367 9.23011 17.8726 9.50852 18.1444 9.69744C18.4161 9.88305 18.7625 9.97585 19.1834 9.97585ZM24.6087 11V3.36364H26.0455V4.5767H26.125C26.2642 4.16572 26.5095 3.84257 26.8608 3.60724C27.2154 3.36861 27.6165 3.24929 28.0639 3.24929C28.1567 3.24929 28.2661 3.2526 28.392 3.25923C28.5213 3.26586 28.6224 3.27415 28.6953 3.28409V4.70597C28.6357 4.68939 28.5296 4.67116 28.3771 4.65128C28.2247 4.62808 28.0722 4.61648 27.9197 4.61648C27.5684 4.61648 27.2552 4.69105 26.9801 4.8402C26.7083 4.98603 26.4929 5.18987 26.3338 5.4517C26.1747 5.71023 26.0952 6.00521 26.0952 6.33665V11H24.6087ZM33.9975 3.36364V4.55682H29.8263V3.36364H33.9975ZM30.945 1.53409H32.4315V8.75781C32.4315 9.04616 32.4746 9.26326 32.5607 9.40909C32.6469 9.55161 32.7579 9.64938 32.8938 9.70241C33.033 9.75213 33.1838 9.77699 33.3462 9.77699C33.4656 9.77699 33.57 9.7687 33.6594 9.75213C33.7489 9.73556 33.8185 9.7223 33.8683 9.71236L34.1367 10.9403C34.0505 10.9735 33.9279 11.0066 33.7688 11.0398C33.6097 11.0762 33.4109 11.0961 33.1722 11.0994C32.7811 11.1061 32.4165 11.0365 32.0785 10.8906C31.7404 10.7448 31.467 10.5194 31.2582 10.2145C31.0494 9.90956 30.945 9.52675 30.945 9.06605V1.53409Z" fill="black"/>
</svg>
