<svg width="42" height="12" viewBox="0 0 42 12" fill="none" xmlns="http://www.w3.org/2000/svg">
<path d="M1.4858 0.818182V11H-0.000710189V0.818182H1.4858ZM3.48562 11V3.36364H4.97212V11H3.48562ZM4.23633 2.18537C3.97781 2.18537 3.75574 2.09919 3.57013 1.92685C3.38784 1.75118 3.2967 1.54238 3.2967 1.30043C3.2967 1.05516 3.38784 0.846354 3.57013 0.674005C3.75574 0.498342 3.97781 0.410511 4.23633 0.410511C4.49485 0.410511 4.71526 0.498342 4.89755 0.674005C5.08316 0.846354 5.17596 1.05516 5.17596 1.30043C5.17596 1.54238 5.08316 1.75118 4.89755 1.92685C4.71526 2.09919 4.49485 2.18537 4.23633 2.18537ZM8.45845 6.46591V11H6.97195V3.36364H8.39879V4.60653H8.49325C8.66892 4.20218 8.94401 3.87737 9.31854 3.6321C9.69638 3.38684 10.172 3.2642 10.7454 3.2642C11.2657 3.2642 11.7215 3.37358 12.1126 3.59233C12.5037 3.80777 12.8069 4.12926 13.0224 4.55682C13.2378 4.98437 13.3455 5.51302 13.3455 6.14276V11H11.859V6.32173C11.859 5.76823 11.7148 5.3357 11.4265 5.02415C11.1381 4.70928 10.7421 4.55185 10.2383 4.55185C9.89358 4.55185 9.587 4.62642 9.31854 4.77557C9.05339 4.92472 8.84292 5.14347 8.68714 5.43182C8.53468 5.71686 8.45845 6.06155 8.45845 6.46591ZM16.7063 8.4098L16.6964 6.59517H16.9549L19.9975 3.36364H21.7773L18.3072 7.04261H18.0735L16.7063 8.4098ZM15.3391 11V0.818182H16.8256V11H15.3391ZM20.1616 11L17.4272 7.37074L18.4513 6.33168L21.9862 11H20.1616ZM27.1119 6.05327V7.34091H22.5977V6.05327H27.1119ZM32.6179 11.169C31.8324 11.1657 31.1612 10.9586 30.6044 10.5476C30.0476 10.1366 29.6217 9.53835 29.3267 8.75284C29.0317 7.96733 28.8842 7.02107 28.8842 5.91406C28.8842 4.81037 29.0317 3.86742 29.3267 3.08523C29.625 2.30303 30.0526 1.70644 30.6094 1.29545C31.1695 0.884469 31.839 0.678977 32.6179 0.678977C33.3968 0.678977 34.0646 0.886126 34.6214 1.30043C35.1783 1.71141 35.6042 2.308 35.8991 3.0902C36.1974 3.86908 36.3466 4.81037 36.3466 5.91406C36.3466 7.02438 36.1991 7.9723 35.9041 8.75781C35.6091 9.54001 35.1832 10.1383 34.6264 10.5526C34.0696 10.9635 33.4001 11.169 32.6179 11.169ZM32.6179 9.84162C33.3073 9.84162 33.8459 9.50521 34.2337 8.83239C34.6248 8.15956 34.8203 7.18679 34.8203 5.91406C34.8203 5.06889 34.7308 4.35464 34.5518 3.77131C34.3762 3.18466 34.1226 2.74053 33.7912 2.43892C33.4631 2.134 33.072 1.98153 32.6179 1.98153C31.9318 1.98153 31.3932 2.3196 31.0021 2.99574C30.611 3.67187 30.4138 4.64465 30.4105 5.91406C30.4105 6.76255 30.4983 7.48011 30.674 8.06676C30.853 8.65009 31.1065 9.09257 31.4347 9.39418C31.7628 9.69247 32.1572 9.84162 32.6179 9.84162ZM41.9732 0.818182V11H40.432V2.35938H40.3723L37.9363 3.95028V2.47869L40.4767 0.818182H41.9732Z" fill="black"/>
</svg>
