<svg width="73" height="12" viewBox="0 0 73 12" fill="none" xmlns="http://www.w3.org/2000/svg">
<path d="M3.22159 11.169C2.73769 11.169 2.30019 11.0795 1.90909 10.9006C1.51799 10.7183 1.2081 10.4548 0.979403 10.1101C0.754025 9.76539 0.641335 9.3428 0.641335 8.84233C0.641335 8.41146 0.724195 8.05682 0.889915 7.77841C1.05563 7.5 1.27936 7.27959 1.56108 7.11719C1.8428 6.95478 2.15767 6.83215 2.50568 6.74929C2.85369 6.66643 3.20833 6.60346 3.5696 6.56037C4.02699 6.50734 4.3982 6.46425 4.68324 6.43111C4.96828 6.39465 5.17543 6.33665 5.30469 6.2571C5.43395 6.17756 5.49858 6.0483 5.49858 5.86932V5.83452C5.49858 5.40033 5.37595 5.06392 5.13068 4.82528C4.88873 4.58665 4.52746 4.46733 4.04688 4.46733C3.5464 4.46733 3.15199 4.57836 2.86364 4.80043C2.5786 5.01918 2.38139 5.26278 2.27202 5.53125L0.875 5.21307C1.04072 4.74905 1.28267 4.37453 1.60085 4.08949C1.92235 3.80114 2.2919 3.59233 2.70952 3.46307C3.12713 3.33049 3.56629 3.2642 4.02699 3.2642C4.33191 3.2642 4.65507 3.30066 4.99645 3.37358C5.34115 3.44318 5.66264 3.57244 5.96094 3.76136C6.26255 3.95028 6.50947 4.22041 6.7017 4.57173C6.89394 4.91974 6.99006 5.37216 6.99006 5.92898V11H5.53835V9.95597H5.47869C5.38258 10.1482 5.2384 10.3371 5.04616 10.5227C4.85393 10.7083 4.60701 10.8625 4.3054 10.9851C4.00379 11.1077 3.64252 11.169 3.22159 11.169ZM3.54474 9.97585C3.95573 9.97585 4.30706 9.89465 4.59872 9.73224C4.8937 9.56984 5.11742 9.35772 5.26989 9.09588C5.42566 8.83073 5.50355 8.54735 5.50355 8.24574V7.26136C5.45052 7.31439 5.34777 7.36411 5.19531 7.41051C5.04616 7.4536 4.87547 7.49171 4.68324 7.52486C4.491 7.55469 4.30374 7.58286 4.12145 7.60938C3.93916 7.63258 3.7867 7.65246 3.66406 7.66903C3.37571 7.70549 3.11222 7.76681 2.87358 7.85298C2.63826 7.93916 2.44934 8.06345 2.30682 8.22585C2.16761 8.38494 2.09801 8.59706 2.09801 8.86222C2.09801 9.23011 2.2339 9.50852 2.50568 9.69744C2.77746 9.88305 3.12382 9.97585 3.54474 9.97585ZM14.6923 5.22798L13.345 5.46662C13.2886 5.29427 13.1992 5.13021 13.0765 4.97443C12.9572 4.81865 12.7948 4.69105 12.5893 4.59162C12.3838 4.49219 12.127 4.44247 11.8187 4.44247C11.3978 4.44247 11.0465 4.53693 10.7647 4.72585C10.483 4.91146 10.3422 5.15175 10.3422 5.44673C10.3422 5.70194 10.4366 5.90743 10.6255 6.06321C10.8145 6.21899 11.1194 6.34659 11.5403 6.44602L12.7534 6.72443C13.456 6.88684 13.9797 7.13707 14.3244 7.47514C14.6691 7.81321 14.8414 8.25237 14.8414 8.79261C14.8414 9.25 14.7089 9.65767 14.4437 10.0156C14.1819 10.3703 13.8156 10.6487 13.345 10.8509C12.8777 11.053 12.3358 11.1541 11.7193 11.1541C10.8642 11.1541 10.1665 10.9718 9.62624 10.6072C9.086 10.2393 8.75456 9.71733 8.63192 9.04119L10.0687 8.82244C10.1582 9.19697 10.3422 9.48035 10.6206 9.67259C10.899 9.86151 11.2619 9.95597 11.7093 9.95597C12.1966 9.95597 12.586 9.85488 12.8777 9.6527C13.1693 9.44721 13.3152 9.19697 13.3152 8.90199C13.3152 8.66335 13.2257 8.46283 13.0467 8.30043C12.871 8.13802 12.6009 8.01539 12.2363 7.93253L10.9437 7.64915C10.2311 7.48674 9.70413 7.22822 9.36275 6.87358C9.02468 6.51894 8.85565 6.06984 8.85565 5.52628C8.85565 5.07552 8.98159 4.68111 9.23349 4.34304C9.48538 4.00497 9.83339 3.74148 10.2775 3.55256C10.7217 3.36032 11.2304 3.2642 11.8038 3.2642C12.6291 3.2642 13.2787 3.44318 13.7527 3.80114C14.2266 4.15578 14.5398 4.63139 14.6923 5.22798ZM20.0405 3.36364V4.55682H15.8693V3.36364H20.0405ZM16.9879 1.53409H18.4744V8.75781C18.4744 9.04616 18.5175 9.26326 18.6037 9.40909C18.6899 9.55161 18.8009 9.64938 18.9368 9.70241C19.076 9.75213 19.2268 9.77699 19.3892 9.77699C19.5085 9.77699 19.6129 9.7687 19.7024 9.75213C19.7919 9.73556 19.8615 9.7223 19.9112 9.71236L20.1797 10.9403C20.0935 10.9735 19.9709 11.0066 19.8118 11.0398C19.6527 11.0762 19.4538 11.0961 19.2152 11.0994C18.8241 11.1061 18.4595 11.0365 18.1214 10.8906C17.7834 10.7448 17.5099 10.5194 17.3011 10.2145C17.0923 9.90956 16.9879 9.52675 16.9879 9.06605V1.53409ZM24.894 11.1541C24.1416 11.1541 23.4937 10.9934 22.9501 10.6719C22.4099 10.3471 21.9922 9.89134 21.6973 9.30469C21.4056 8.71473 21.2598 8.02367 21.2598 7.23153C21.2598 6.44934 21.4056 5.75994 21.6973 5.16335C21.9922 4.56676 22.4032 4.10109 22.9302 3.76633C23.4605 3.43158 24.0803 3.2642 24.7896 3.2642C25.2205 3.2642 25.6381 3.33546 26.0424 3.47798C26.4468 3.6205 26.8097 3.84422 27.1312 4.14915C27.4527 4.45407 27.7063 4.85014 27.8919 5.33736C28.0775 5.82126 28.1703 6.40956 28.1703 7.10227V7.62926H22.1V6.51562H26.7136C26.7136 6.12453 26.6341 5.77817 26.475 5.47656C26.3159 5.17164 26.0922 4.93134 25.8038 4.75568C25.5188 4.58002 25.184 4.49219 24.7995 4.49219C24.3819 4.49219 24.0173 4.59493 23.7058 4.80043C23.3975 5.0026 23.1589 5.26776 22.9899 5.59588C22.8242 5.92069 22.7413 6.27367 22.7413 6.65483V7.52486C22.7413 8.03527 22.8308 8.46946 23.0098 8.82741C23.1921 9.18537 23.4456 9.45881 23.7704 9.64773C24.0952 9.83333 24.4747 9.92614 24.9089 9.92614C25.1906 9.92614 25.4475 9.88636 25.6795 9.80682C25.9115 9.72396 26.112 9.60133 26.2811 9.43892C26.4501 9.27652 26.5794 9.07599 26.6689 8.83736L28.0758 9.09091C27.9631 9.50521 27.7609 9.86813 27.4693 10.1797C27.1809 10.4879 26.818 10.7282 26.3805 10.9006C25.9463 11.0696 25.4508 11.1541 24.894 11.1541ZM29.8196 11V3.36364H31.2564V4.5767H31.3359C31.4751 4.16572 31.7204 3.84257 32.0717 3.60724C32.4264 3.36861 32.8274 3.24929 33.2749 3.24929C33.3677 3.24929 33.477 3.2526 33.603 3.25923C33.7322 3.26586 33.8333 3.27415 33.9062 3.28409V4.70597C33.8466 4.68939 33.7405 4.67116 33.5881 4.65128C33.4356 4.62808 33.2831 4.61648 33.1307 4.61648C32.7794 4.61648 32.4661 4.69105 32.1911 4.8402C31.9193 4.98603 31.7038 5.18987 31.5447 5.4517C31.3857 5.71023 31.3061 6.00521 31.3061 6.33665V11H29.8196ZM35.1926 11V3.36364H36.6792V11H35.1926ZM35.9434 2.18537C35.6848 2.18537 35.4628 2.09919 35.2772 1.92685C35.0949 1.75118 35.0037 1.54238 35.0037 1.30043C35.0037 1.05516 35.0949 0.846354 35.2772 0.674005C35.4628 0.498342 35.6848 0.410511 35.9434 0.410511C36.2019 0.410511 36.4223 0.498342 36.6046 0.674005C36.7902 0.846354 36.883 1.05516 36.883 1.30043C36.883 1.54238 36.7902 1.75118 36.6046 1.92685C36.4223 2.09919 36.2019 2.18537 35.9434 2.18537ZM44.4013 5.22798L43.054 5.46662C42.9976 5.29427 42.9081 5.13021 42.7855 4.97443C42.6662 4.81865 42.5038 4.69105 42.2983 4.59162C42.0928 4.49219 41.8359 4.44247 41.5277 4.44247C41.1068 4.44247 40.7554 4.53693 40.4737 4.72585C40.192 4.91146 40.0511 5.15175 40.0511 5.44673C40.0511 5.70194 40.1456 5.90743 40.3345 6.06321C40.5234 6.21899 40.8284 6.34659 41.2493 6.44602L42.4624 6.72443C43.165 6.88684 43.6887 7.13707 44.0334 7.47514C44.3781 7.81321 44.5504 8.25237 44.5504 8.79261C44.5504 9.25 44.4179 9.65767 44.1527 10.0156C43.8909 10.3703 43.5246 10.6487 43.054 10.8509C42.5866 11.053 42.0447 11.1541 41.4283 11.1541C40.5732 11.1541 39.8755 10.9718 39.3352 10.6072C38.795 10.2393 38.4635 9.71733 38.3409 9.04119L39.7777 8.82244C39.8672 9.19697 40.0511 9.48035 40.3295 9.67259C40.608 9.86151 40.9709 9.95597 41.4183 9.95597C41.9055 9.95597 42.295 9.85488 42.5866 9.6527C42.8783 9.44721 43.0241 9.19697 43.0241 8.90199C43.0241 8.66335 42.9347 8.46283 42.7557 8.30043C42.58 8.13802 42.3099 8.01539 41.9453 7.93253L40.6527 7.64915C39.9401 7.48674 39.4131 7.22822 39.0717 6.87358C38.7337 6.51894 38.5646 6.06984 38.5646 5.52628C38.5646 5.07552 38.6906 4.68111 38.9425 4.34304C39.1944 4.00497 39.5424 3.74148 39.9865 3.55256C40.4306 3.36032 40.9394 3.2642 41.5128 3.2642C42.3381 3.2642 42.9877 3.44318 43.4616 3.80114C43.9356 4.15578 44.2488 4.63139 44.4013 5.22798ZM47.552 8.4098L47.5421 6.59517H47.8006L50.8432 3.36364H52.623L49.1529 7.04261H48.9192L47.552 8.4098ZM46.1848 11V0.818182H47.6713V11H46.1848ZM51.0073 11L48.2729 7.37074L49.2971 6.33168L52.8319 11H51.0073ZM57.9576 6.05327V7.34091H53.4434V6.05327H57.9576ZM63.4636 11.169C62.6781 11.1657 62.0069 10.9586 61.4501 10.5476C60.8933 10.1366 60.4674 9.53835 60.1724 8.75284C59.8774 7.96733 59.7299 7.02107 59.7299 5.91406C59.7299 4.81037 59.8774 3.86742 60.1724 3.08523C60.4707 2.30303 60.8983 1.70644 61.4551 1.29545C62.0152 0.884469 62.6847 0.678977 63.4636 0.678977C64.2425 0.678977 64.9103 0.886126 65.4672 1.30043C66.024 1.71141 66.4499 2.308 66.7449 3.0902C67.0431 3.86908 67.1923 4.81037 67.1923 5.91406C67.1923 7.02438 67.0448 7.9723 66.7498 8.75781C66.4548 9.54001 66.0289 10.1383 65.4721 10.5526C64.9153 10.9635 64.2458 11.169 63.4636 11.169ZM63.4636 9.84162C64.153 9.84162 64.6916 9.50521 65.0794 8.83239C65.4705 8.15956 65.666 7.18679 65.666 5.91406C65.666 5.06889 65.5765 4.35464 65.3975 3.77131C65.2219 3.18466 64.9683 2.74053 64.6369 2.43892C64.3088 2.134 63.9177 1.98153 63.4636 1.98153C62.7775 1.98153 62.2389 2.3196 61.8478 2.99574C61.4567 3.67187 61.2595 4.64465 61.2562 5.91406C61.2562 6.76255 61.344 7.48011 61.5197 8.06676C61.6987 8.65009 61.9522 9.09257 62.2804 9.39418C62.6085 9.69247 63.0029 9.84162 63.4636 9.84162ZM72.8189 0.818182V11H71.2777V2.35938H71.218L68.782 3.95028V2.47869L71.3224 0.818182H72.8189Z" fill="black"/>
</svg>
