<svg width="80" height="12" viewBox="0 0 80 12" fill="none" xmlns="http://www.w3.org/2000/svg">
<path d="M4.56392 3.36364V4.55682H0.392756V3.36364H4.56392ZM1.51136 1.53409H2.99787V8.75781C2.99787 9.04616 3.04096 9.26326 3.12713 9.40909C3.21331 9.55161 3.32434 9.64938 3.46023 9.70241C3.59943 9.75213 3.75024 9.77699 3.91264 9.77699C4.03196 9.77699 4.13636 9.7687 4.22585 9.75213C4.31534 9.73556 4.38494 9.7223 4.43466 9.71236L4.70312 10.9403C4.61695 10.9735 4.49432 11.0066 4.33523 11.0398C4.17614 11.0762 3.97727 11.0961 3.73864 11.0994C3.34754 11.1061 2.98295 11.0365 2.64489 10.8906C2.30682 10.7448 2.03338 10.5194 1.82457 10.2145C1.61577 9.90956 1.51136 9.52675 1.51136 9.06605V1.53409ZM6.20827 11V3.36364H7.64506V4.5767H7.72461C7.86381 4.16572 8.10908 3.84257 8.4604 3.60724C8.81505 3.36861 9.21609 3.24929 9.66353 3.24929C9.75633 3.24929 9.86571 3.2526 9.99166 3.25923C10.1209 3.26586 10.222 3.27415 10.2949 3.28409V4.70597C10.2353 4.68939 10.1292 4.67116 9.97674 4.65128C9.82428 4.62808 9.67182 4.61648 9.51935 4.61648C9.16803 4.61648 8.85482 4.69105 8.57972 4.8402C8.30794 4.98603 8.09251 5.18987 7.93342 5.4517C7.77433 5.71023 7.69478 6.00521 7.69478 6.33665V11H6.20827ZM13.7353 11.169C13.2514 11.169 12.8139 11.0795 12.4228 10.9006C12.0317 10.7183 11.7218 10.4548 11.4931 10.1101C11.2677 9.76539 11.155 9.3428 11.155 8.84233C11.155 8.41146 11.2379 8.05682 11.4036 7.77841C11.5693 7.5 11.793 7.27959 12.0748 7.11719C12.3565 6.95478 12.6713 6.83215 13.0194 6.74929C13.3674 6.66643 13.722 6.60346 14.0833 6.56037C14.5407 6.50734 14.9119 6.46425 15.1969 6.43111C15.4819 6.39465 15.6891 6.33665 15.8184 6.2571C15.9476 6.17756 16.0123 6.0483 16.0123 5.86932V5.83452C16.0123 5.40033 15.8896 5.06392 15.6444 4.82528C15.4024 4.58665 15.0411 4.46733 14.5605 4.46733C14.0601 4.46733 13.6657 4.57836 13.3773 4.80043C13.0923 5.01918 12.8951 5.26278 12.7857 5.53125L11.3887 5.21307C11.5544 4.74905 11.7963 4.37453 12.1145 4.08949C12.436 3.80114 12.8056 3.59233 13.2232 3.46307C13.6408 3.33049 14.08 3.2642 14.5407 3.2642C14.8456 3.2642 15.1687 3.30066 15.5101 3.37358C15.8548 3.44318 16.1763 3.57244 16.4746 3.76136C16.7762 3.95028 17.0231 4.22041 17.2154 4.57173C17.4076 4.91974 17.5037 5.37216 17.5037 5.92898V11H16.052V9.95597H15.9924C15.8962 10.1482 15.7521 10.3371 15.5598 10.5227C15.3676 10.7083 15.1207 10.8625 14.8191 10.9851C14.5175 11.1077 14.1562 11.169 13.7353 11.169ZM14.0584 9.97585C14.4694 9.97585 14.8207 9.89465 15.1124 9.73224C15.4074 9.56984 15.6311 9.35772 15.7836 9.09588C15.9393 8.83073 16.0172 8.54735 16.0172 8.24574V7.26136C15.9642 7.31439 15.8614 7.36411 15.709 7.41051C15.5598 7.4536 15.3891 7.49171 15.1969 7.52486C15.0047 7.55469 14.8174 7.58286 14.6351 7.60938C14.4528 7.63258 14.3004 7.65246 14.1777 7.66903C13.8894 7.70549 13.6259 7.76681 13.3873 7.85298C13.1519 7.93916 12.963 8.06345 12.8205 8.22585C12.6813 8.38494 12.6117 8.59706 12.6117 8.86222C12.6117 9.23011 12.7476 9.50852 13.0194 9.69744C13.2911 9.88305 13.6375 9.97585 14.0584 9.97585ZM20.9702 6.46591V11H19.4837V3.36364H20.9105V4.60653H21.005C21.1806 4.20218 21.4557 3.87737 21.8303 3.6321C22.2081 3.38684 22.6837 3.2642 23.2571 3.2642C23.7775 3.2642 24.2332 3.37358 24.6243 3.59233C25.0154 3.80777 25.3187 4.12926 25.5341 4.55682C25.7495 4.98437 25.8572 5.51302 25.8572 6.14276V11H24.3707V6.32173C24.3707 5.76823 24.2266 5.3357 23.9382 5.02415C23.6499 4.70928 23.2538 4.55185 22.75 4.55185C22.4053 4.55185 22.0987 4.62642 21.8303 4.77557C21.5651 4.92472 21.3546 5.14347 21.1989 5.43182C21.0464 5.71686 20.9702 6.06155 20.9702 6.46591ZM33.5732 5.22798L32.2259 5.46662C32.1695 5.29427 32.08 5.13021 31.9574 4.97443C31.8381 4.81865 31.6757 4.69105 31.4702 4.59162C31.2647 4.49219 31.0078 4.44247 30.6996 4.44247C30.2786 4.44247 29.9273 4.53693 29.6456 4.72585C29.3639 4.91146 29.223 5.15175 29.223 5.44673C29.223 5.70194 29.3175 5.90743 29.5064 6.06321C29.6953 6.21899 30.0002 6.34659 30.4212 6.44602L31.6342 6.72443C32.3369 6.88684 32.8606 7.13707 33.2053 7.47514C33.55 7.81321 33.7223 8.25237 33.7223 8.79261C33.7223 9.25 33.5897 9.65767 33.3246 10.0156C33.0627 10.3703 32.6965 10.6487 32.2259 10.8509C31.7585 11.053 31.2166 11.1541 30.6001 11.1541C29.745 11.1541 29.0473 10.9718 28.5071 10.6072C27.9669 10.2393 27.6354 9.71733 27.5128 9.04119L28.9496 8.82244C29.0391 9.19697 29.223 9.48035 29.5014 9.67259C29.7798 9.86151 30.1428 9.95597 30.5902 9.95597C31.0774 9.95597 31.4669 9.85488 31.7585 9.6527C32.0502 9.44721 32.196 9.19697 32.196 8.90199C32.196 8.66335 32.1065 8.46283 31.9276 8.30043C31.7519 8.13802 31.4818 8.01539 31.1172 7.93253L29.8246 7.64915C29.112 7.48674 28.585 7.22822 28.2436 6.87358C27.9055 6.51894 27.7365 6.06984 27.7365 5.52628C27.7365 5.07552 27.8625 4.68111 28.1143 4.34304C28.3662 4.00497 28.7143 3.74148 29.1584 3.55256C29.6025 3.36032 30.1113 3.2642 30.6847 3.2642C31.5099 3.2642 32.1596 3.44318 32.6335 3.80114C33.1075 4.15578 33.4207 4.63139 33.5732 5.22798ZM36.8432 0.818182V11H35.3567V0.818182H36.8432ZM41.0653 11.169C40.5814 11.169 40.1439 11.0795 39.7528 10.9006C39.3617 10.7183 39.0518 10.4548 38.8232 10.1101C38.5978 9.76539 38.4851 9.3428 38.4851 8.84233C38.4851 8.41146 38.5679 8.05682 38.7337 7.77841C38.8994 7.5 39.1231 7.27959 39.4048 7.11719C39.6866 6.95478 40.0014 6.83215 40.3494 6.74929C40.6974 6.66643 41.0521 6.60346 41.4134 6.56037C41.8707 6.50734 42.242 6.46425 42.527 6.43111C42.812 6.39465 43.0192 6.33665 43.1484 6.2571C43.2777 6.17756 43.3423 6.0483 43.3423 5.86932V5.83452C43.3423 5.40033 43.2197 5.06392 42.9744 4.82528C42.7325 4.58665 42.3712 4.46733 41.8906 4.46733C41.3902 4.46733 40.9957 4.57836 40.7074 4.80043C40.4223 5.01918 40.2251 5.26278 40.1158 5.53125L38.7188 5.21307C38.8845 4.74905 39.1264 4.37453 39.4446 4.08949C39.7661 3.80114 40.1357 3.59233 40.5533 3.46307C40.9709 3.33049 41.41 3.2642 41.8707 3.2642C42.1757 3.2642 42.4988 3.30066 42.8402 3.37358C43.1849 3.44318 43.5064 3.57244 43.8047 3.76136C44.1063 3.95028 44.3532 4.22041 44.5455 4.57173C44.7377 4.91974 44.8338 5.37216 44.8338 5.92898V11H43.3821V9.95597H43.3224C43.2263 10.1482 43.0821 10.3371 42.8899 10.5227C42.6977 10.7083 42.4508 10.8625 42.1491 10.9851C41.8475 11.1077 41.4863 11.169 41.0653 11.169ZM41.3885 9.97585C41.7995 9.97585 42.1508 9.89465 42.4425 9.73224C42.7375 9.56984 42.9612 9.35772 43.1136 9.09588C43.2694 8.83073 43.3473 8.54735 43.3473 8.24574V7.26136C43.2943 7.31439 43.1915 7.36411 43.0391 7.41051C42.8899 7.4536 42.7192 7.49171 42.527 7.52486C42.3348 7.55469 42.1475 7.58286 41.9652 7.60938C41.7829 7.63258 41.6304 7.65246 41.5078 7.66903C41.2195 7.70549 40.956 7.76681 40.7173 7.85298C40.482 7.93916 40.2931 8.06345 40.1506 8.22585C40.0114 8.38494 39.9418 8.59706 39.9418 8.86222C39.9418 9.23011 40.0777 9.50852 40.3494 9.69744C40.6212 9.88305 40.9676 9.97585 41.3885 9.97585ZM50.3784 3.36364V4.55682H46.2072V3.36364H50.3784ZM47.3258 1.53409H48.8123V8.75781C48.8123 9.04616 48.8554 9.26326 48.9416 9.40909C49.0278 9.55161 49.1388 9.64938 49.2747 9.70241C49.4139 9.75213 49.5647 9.77699 49.7271 9.77699C49.8464 9.77699 49.9508 9.7687 50.0403 9.75213C50.1298 9.73556 50.1994 9.7223 50.2491 9.71236L50.5176 10.9403C50.4314 10.9735 50.3088 11.0066 50.1497 11.0398C49.9906 11.0762 49.7917 11.0961 49.5531 11.0994C49.162 11.1061 48.7974 11.0365 48.4593 10.8906C48.1213 10.7448 47.8478 10.5194 47.639 10.2145C47.4302 9.90956 47.3258 9.52675 47.3258 9.06605V1.53409ZM55.2319 11.1541C54.4795 11.1541 53.8316 10.9934 53.288 10.6719C52.7478 10.3471 52.3301 9.89134 52.0352 9.30469C51.7435 8.71473 51.5977 8.02367 51.5977 7.23153C51.5977 6.44934 51.7435 5.75994 52.0352 5.16335C52.3301 4.56676 52.7411 4.10109 53.2681 3.76633C53.7984 3.43158 54.4182 3.2642 55.1275 3.2642C55.5584 3.2642 55.976 3.33546 56.3803 3.47798C56.7847 3.6205 57.1476 3.84422 57.4691 4.14915C57.7906 4.45407 58.0442 4.85014 58.2298 5.33736C58.4154 5.82126 58.5082 6.40956 58.5082 7.10227V7.62926H52.4379V6.51562H57.0515C57.0515 6.12453 56.9719 5.77817 56.8129 5.47656C56.6538 5.17164 56.43 4.93134 56.1417 4.75568C55.8567 4.58002 55.5219 4.49219 55.1374 4.49219C54.7198 4.49219 54.3552 4.59493 54.0437 4.80043C53.7354 5.0026 53.4968 5.26776 53.3278 5.59588C53.1621 5.92069 53.0792 6.27367 53.0792 6.65483V7.52486C53.0792 8.03527 53.1687 8.46946 53.3477 8.82741C53.5299 9.18537 53.7835 9.45881 54.1083 9.64773C54.4331 9.83333 54.8126 9.92614 55.2468 9.92614C55.5285 9.92614 55.7854 9.88636 56.0174 9.80682C56.2494 9.72396 56.4499 9.60133 56.619 9.43892C56.788 9.27652 56.9173 9.07599 57.0067 8.83736L58.4137 9.09091C58.301 9.50521 58.0988 9.86813 57.8072 10.1797C57.5188 10.4879 57.1559 10.7282 56.7184 10.9006C56.2842 11.0696 55.7887 11.1541 55.2319 11.1541ZM64.6568 6.05327V7.34091H60.1426V6.05327H64.6568ZM70.1628 11.169C69.3773 11.1657 68.7061 10.9586 68.1493 10.5476C67.5925 10.1366 67.1666 9.53835 66.8716 8.75284C66.5766 7.96733 66.4292 7.02107 66.4292 5.91406C66.4292 4.81037 66.5766 3.86742 66.8716 3.08523C67.1699 2.30303 67.5975 1.70644 68.1543 1.29545C68.7144 0.884469 69.3839 0.678977 70.1628 0.678977C70.9417 0.678977 71.6096 0.886126 72.1664 1.30043C72.7232 1.71141 73.1491 2.308 73.4441 3.0902C73.7424 3.86908 73.8915 4.81037 73.8915 5.91406C73.8915 7.02438 73.744 7.9723 73.449 8.75781C73.1541 9.54001 72.7282 10.1383 72.1713 10.5526C71.6145 10.9635 70.945 11.169 70.1628 11.169ZM70.1628 9.84162C70.8522 9.84162 71.3908 9.50521 71.7786 8.83239C72.1697 8.15956 72.3652 7.18679 72.3652 5.91406C72.3652 5.06889 72.2757 4.35464 72.0968 3.77131C71.9211 3.18466 71.6676 2.74053 71.3361 2.43892C71.008 2.134 70.6169 1.98153 70.1628 1.98153C69.4767 1.98153 68.9382 2.3196 68.5471 2.99574C68.156 3.67187 67.9587 4.64465 67.9554 5.91406C67.9554 6.76255 68.0433 7.48011 68.2189 8.06676C68.3979 8.65009 68.6515 9.09257 68.9796 9.39418C69.3077 9.69247 69.7021 9.84162 70.1628 9.84162ZM79.5181 0.818182V11H77.9769V2.35938H77.9173L75.4812 3.95028V2.47869L78.0217 0.818182H79.5181Z" fill="black"/>
</svg>
