<svg width="55" height="12" viewBox="0 0 55 12" fill="none" xmlns="http://www.w3.org/2000/svg">
<path d="M4.56392 3.36364V4.55682H0.392756V3.36364H4.56392ZM1.51136 1.53409H2.99787V8.75781C2.99787 9.04616 3.04096 9.26326 3.12713 9.40909C3.21331 9.55161 3.32434 9.64938 3.46023 9.70241C3.59943 9.75213 3.75024 9.77699 3.91264 9.77699C4.03196 9.77699 4.13636 9.7687 4.22585 9.75213C4.31534 9.73556 4.38494 9.7223 4.43466 9.71236L4.70312 10.9403C4.61695 10.9735 4.49432 11.0066 4.33523 11.0398C4.17614 11.0762 3.97727 11.0961 3.73864 11.0994C3.34754 11.1061 2.98295 11.0365 2.64489 10.8906C2.30682 10.7448 2.03338 10.5194 1.82457 10.2145C1.61577 9.90956 1.51136 9.52675 1.51136 9.06605V1.53409ZM6.20827 11V3.36364H7.64506V4.5767H7.72461C7.86381 4.16572 8.10908 3.84257 8.4604 3.60724C8.81505 3.36861 9.21609 3.24929 9.66353 3.24929C9.75633 3.24929 9.86571 3.2526 9.99166 3.25923C10.1209 3.26586 10.222 3.27415 10.2949 3.28409V4.70597C10.2353 4.68939 10.1292 4.67116 9.97674 4.65128C9.82428 4.62808 9.67182 4.61648 9.51935 4.61648C9.16803 4.61648 8.85482 4.69105 8.57972 4.8402C8.30794 4.98603 8.09251 5.18987 7.93342 5.4517C7.77433 5.71023 7.69478 6.00521 7.69478 6.33665V11H6.20827ZM13.7353 11.169C13.2514 11.169 12.8139 11.0795 12.4228 10.9006C12.0317 10.7183 11.7218 10.4548 11.4931 10.1101C11.2677 9.76539 11.155 9.3428 11.155 8.84233C11.155 8.41146 11.2379 8.05682 11.4036 7.77841C11.5693 7.5 11.793 7.27959 12.0748 7.11719C12.3565 6.95478 12.6713 6.83215 13.0194 6.74929C13.3674 6.66643 13.722 6.60346 14.0833 6.56037C14.5407 6.50734 14.9119 6.46425 15.1969 6.43111C15.4819 6.39465 15.6891 6.33665 15.8184 6.2571C15.9476 6.17756 16.0123 6.0483 16.0123 5.86932V5.83452C16.0123 5.40033 15.8896 5.06392 15.6444 4.82528C15.4024 4.58665 15.0411 4.46733 14.5605 4.46733C14.0601 4.46733 13.6657 4.57836 13.3773 4.80043C13.0923 5.01918 12.8951 5.26278 12.7857 5.53125L11.3887 5.21307C11.5544 4.74905 11.7963 4.37453 12.1145 4.08949C12.436 3.80114 12.8056 3.59233 13.2232 3.46307C13.6408 3.33049 14.08 3.2642 14.5407 3.2642C14.8456 3.2642 15.1687 3.30066 15.5101 3.37358C15.8548 3.44318 16.1763 3.57244 16.4746 3.76136C16.7762 3.95028 17.0231 4.22041 17.2154 4.57173C17.4076 4.91974 17.5037 5.37216 17.5037 5.92898V11H16.052V9.95597H15.9924C15.8962 10.1482 15.7521 10.3371 15.5598 10.5227C15.3676 10.7083 15.1207 10.8625 14.8191 10.9851C14.5175 11.1077 14.1562 11.169 13.7353 11.169ZM14.0584 9.97585C14.4694 9.97585 14.8207 9.89465 15.1124 9.73224C15.4074 9.56984 15.6311 9.35772 15.7836 9.09588C15.9393 8.83073 16.0172 8.54735 16.0172 8.24574V7.26136C15.9642 7.31439 15.8614 7.36411 15.709 7.41051C15.5598 7.4536 15.3891 7.49171 15.1969 7.52486C15.0047 7.55469 14.8174 7.58286 14.6351 7.60938C14.4528 7.63258 14.3004 7.65246 14.1777 7.66903C13.8894 7.70549 13.6259 7.76681 13.3873 7.85298C13.1519 7.93916 12.963 8.06345 12.8205 8.22585C12.6813 8.38494 12.6117 8.59706 12.6117 8.86222C12.6117 9.23011 12.7476 9.50852 13.0194 9.69744C13.2911 9.88305 13.6375 9.97585 14.0584 9.97585ZM25.206 5.22798L23.8587 5.46662C23.8023 5.29427 23.7128 5.13021 23.5902 4.97443C23.4709 4.81865 23.3085 4.69105 23.103 4.59162C22.8975 4.49219 22.6406 4.44247 22.3324 4.44247C21.9115 4.44247 21.5601 4.53693 21.2784 4.72585C20.9967 4.91146 20.8558 5.15175 20.8558 5.44673C20.8558 5.70194 20.9503 5.90743 21.1392 6.06321C21.3281 6.21899 21.633 6.34659 22.054 6.44602L23.267 6.72443C23.9697 6.88684 24.4934 7.13707 24.8381 7.47514C25.1828 7.81321 25.3551 8.25237 25.3551 8.79261C25.3551 9.25 25.2225 9.65767 24.9574 10.0156C24.6955 10.3703 24.3293 10.6487 23.8587 10.8509C23.3913 11.053 22.8494 11.1541 22.233 11.1541C21.3778 11.1541 20.6802 10.9718 20.1399 10.6072C19.5997 10.2393 19.2682 9.71733 19.1456 9.04119L20.5824 8.82244C20.6719 9.19697 20.8558 9.48035 21.1342 9.67259C21.4126 9.86151 21.7756 9.95597 22.223 9.95597C22.7102 9.95597 23.0997 9.85488 23.3913 9.6527C23.683 9.44721 23.8288 9.19697 23.8288 8.90199C23.8288 8.66335 23.7393 8.46283 23.5604 8.30043C23.3847 8.13802 23.1146 8.01539 22.75 7.93253L21.4574 7.64915C20.7448 7.48674 20.2178 7.22822 19.8764 6.87358C19.5384 6.51894 19.3693 6.06984 19.3693 5.52628C19.3693 5.07552 19.4953 4.68111 19.7472 4.34304C19.9991 4.00497 20.3471 3.74148 20.7912 3.55256C21.2353 3.36032 21.7441 3.2642 22.3175 3.2642C23.1428 3.2642 23.7924 3.44318 24.2663 3.80114C24.7403 4.15578 25.0535 4.63139 25.206 5.22798ZM28.476 6.46591V11H26.9895V0.818182H28.4561V4.60653H28.5506C28.7296 4.19555 29.003 3.86908 29.3709 3.62713C29.7388 3.38518 30.2194 3.2642 30.8127 3.2642C31.3364 3.2642 31.7937 3.37192 32.1848 3.58736C32.5792 3.80279 32.8842 4.12429 33.0996 4.55185C33.3184 4.97609 33.4277 5.50639 33.4277 6.14276V11H31.9412V6.32173C31.9412 5.7616 31.7971 5.32741 31.5087 5.01918C31.2203 4.70762 30.8193 4.55185 30.3056 4.55185C29.9542 4.55185 29.6394 4.62642 29.361 4.77557C29.0859 4.92472 28.8688 5.14347 28.7097 5.43182C28.5539 5.71686 28.476 6.06155 28.476 6.46591ZM39.9107 6.05327V7.34091H35.3965V6.05327H39.9107ZM45.4167 11.169C44.6312 11.1657 43.96 10.9586 43.4032 10.5476C42.8464 10.1366 42.4205 9.53835 42.1255 8.75284C41.8306 7.96733 41.6831 7.02107 41.6831 5.91406C41.6831 4.81037 41.8306 3.86742 42.1255 3.08523C42.4238 2.30303 42.8514 1.70644 43.4082 1.29545C43.9683 0.884469 44.6378 0.678977 45.4167 0.678977C46.1956 0.678977 46.8635 0.886126 47.4203 1.30043C47.9771 1.71141 48.403 2.308 48.698 3.0902C48.9963 3.86908 49.1454 4.81037 49.1454 5.91406C49.1454 7.02438 48.9979 7.9723 48.7029 8.75781C48.408 9.54001 47.9821 10.1383 47.4252 10.5526C46.8684 10.9635 46.1989 11.169 45.4167 11.169ZM45.4167 9.84162C46.1061 9.84162 46.6447 9.50521 47.0325 8.83239C47.4236 8.15956 47.6191 7.18679 47.6191 5.91406C47.6191 5.06889 47.5297 4.35464 47.3507 3.77131C47.175 3.18466 46.9215 2.74053 46.59 2.43892C46.2619 2.134 45.8708 1.98153 45.4167 1.98153C44.7306 1.98153 44.1921 2.3196 43.801 2.99574C43.4099 3.67187 43.2127 4.64465 43.2093 5.91406C43.2093 6.76255 43.2972 7.48011 43.4728 8.06676C43.6518 8.65009 43.9054 9.09257 44.2335 9.39418C44.5616 9.69247 44.956 9.84162 45.4167 9.84162ZM54.772 0.818182V11H53.2308V2.35938H53.1712L50.7351 3.95028V2.47869L53.2756 0.818182H54.772Z" fill="black"/>
</svg>
