<svg width="71" height="15" viewBox="0 0 71 15" fill="none" xmlns="http://www.w3.org/2000/svg">
<path d="M1.4858 0.818182V11H-0.000710189V0.818182H1.4858ZM6.70224 11.1541C5.98633 11.1541 5.36156 10.9901 4.82795 10.6619C4.29433 10.3338 3.88003 9.87476 3.58505 9.2848C3.29007 8.69484 3.14258 8.00544 3.14258 7.21662C3.14258 6.42448 3.29007 5.73177 3.58505 5.13849C3.88003 4.54522 4.29433 4.08452 4.82795 3.75639C5.36156 3.42827 5.98633 3.2642 6.70224 3.2642C7.41815 3.2642 8.04291 3.42827 8.57653 3.75639C9.11014 4.08452 9.52444 4.54522 9.81942 5.13849C10.1144 5.73177 10.2619 6.42448 10.2619 7.21662C10.2619 8.00544 10.1144 8.69484 9.81942 9.2848C9.52444 9.87476 9.11014 10.3338 8.57653 10.6619C8.04291 10.9901 7.41815 11.1541 6.70224 11.1541ZM6.70721 9.90625C7.17122 9.90625 7.55569 9.78362 7.86062 9.53835C8.16554 9.29309 8.39092 8.96662 8.53675 8.55895C8.6859 8.15128 8.76048 7.70218 8.76048 7.21165C8.76048 6.72443 8.6859 6.27699 8.53675 5.86932C8.39092 5.45833 8.16554 5.12855 7.86062 4.87997C7.55569 4.63139 7.17122 4.5071 6.70721 4.5071C6.23988 4.5071 5.8521 4.63139 5.54386 4.87997C5.23893 5.12855 5.0119 5.45833 4.86275 5.86932C4.71692 6.27699 4.644 6.72443 4.644 7.21165C4.644 7.70218 4.71692 8.15128 4.86275 8.55895C5.0119 8.96662 5.23893 9.29309 5.54386 9.53835C5.8521 9.78362 6.23988 9.90625 6.70721 9.90625ZM15.1229 14.0227C14.5163 14.0227 13.9943 13.9432 13.5568 13.7841C13.1226 13.625 12.768 13.4145 12.4929 13.1527C12.2178 12.8909 12.0123 12.6042 11.8764 12.2926L13.1541 11.7656C13.2436 11.9115 13.3629 12.0656 13.5121 12.228C13.6645 12.3937 13.87 12.5346 14.1286 12.6506C14.3904 12.7666 14.7268 12.8246 15.1378 12.8246C15.7012 12.8246 16.1669 12.687 16.5348 12.4119C16.9027 12.1402 17.0866 11.706 17.0866 11.1094V9.60795H16.9922C16.9027 9.77036 16.7734 9.95099 16.6044 10.1499C16.4387 10.3487 16.21 10.5211 15.9183 10.6669C15.6267 10.8127 15.2472 10.8857 14.7798 10.8857C14.1766 10.8857 13.633 10.7448 13.1491 10.4631C12.6686 10.178 12.2874 9.75876 12.0057 9.20526C11.7273 8.64844 11.5881 7.96401 11.5881 7.15199C11.5881 6.33996 11.7256 5.64394 12.0007 5.06392C12.2791 4.4839 12.6603 4.03977 13.1442 3.73153C13.6281 3.41998 14.1766 3.2642 14.7898 3.2642C15.2637 3.2642 15.6465 3.34375 15.9382 3.50284C16.2299 3.65862 16.4569 3.84091 16.6193 4.04972C16.785 4.25852 16.9126 4.44247 17.0021 4.60156H17.1115V3.36364H18.5682V11.169C18.5682 11.8253 18.4157 12.3639 18.1108 12.7848C17.8059 13.2057 17.3932 13.5173 16.8729 13.7195C16.3558 13.9216 15.7725 14.0227 15.1229 14.0227ZM15.108 9.6527C15.5355 9.6527 15.8968 9.55327 16.1918 9.3544C16.4901 9.15223 16.7154 8.86387 16.8679 8.48935C17.0237 8.11151 17.1016 7.65909 17.1016 7.1321C17.1016 6.61837 17.0253 6.16596 16.8729 5.77486C16.7204 5.38376 16.4967 5.07884 16.2017 4.86009C15.9067 4.63802 15.5421 4.52699 15.108 4.52699C14.6605 4.52699 14.2876 4.64299 13.9893 4.875C13.6911 5.10369 13.4657 5.41525 13.3132 5.80966C13.1641 6.20407 13.0895 6.64489 13.0895 7.1321C13.0895 7.63258 13.1657 8.07173 13.3182 8.44957C13.4706 8.82741 13.696 9.1224 13.9943 9.33452C14.2959 9.54664 14.6671 9.6527 15.108 9.6527ZM25.0611 6.05327V7.34091H20.5469V6.05327H25.0611ZM30.2589 11.1541C29.543 11.1541 28.9182 10.9901 28.3846 10.6619C27.851 10.3338 27.4367 9.87476 27.1417 9.2848C26.8467 8.69484 26.6992 8.00544 26.6992 7.21662C26.6992 6.42448 26.8467 5.73177 27.1417 5.13849C27.4367 4.54522 27.851 4.08452 28.3846 3.75639C28.9182 3.42827 29.543 3.2642 30.2589 3.2642C30.9748 3.2642 31.5996 3.42827 32.1332 3.75639C32.6668 4.08452 33.0811 4.54522 33.3761 5.13849C33.671 5.73177 33.8185 6.42448 33.8185 7.21662C33.8185 8.00544 33.671 8.69484 33.3761 9.2848C33.0811 9.87476 32.6668 10.3338 32.1332 10.6619C31.5996 10.9901 30.9748 11.1541 30.2589 11.1541ZM30.2638 9.90625C30.7279 9.90625 31.1123 9.78362 31.4173 9.53835C31.7222 9.29309 31.9476 8.96662 32.0934 8.55895C32.2425 8.15128 32.3171 7.70218 32.3171 7.21165C32.3171 6.72443 32.2425 6.27699 32.0934 5.86932C31.9476 5.45833 31.7222 5.12855 31.4173 4.87997C31.1123 4.63139 30.7279 4.5071 30.2638 4.5071C29.7965 4.5071 29.4087 4.63139 29.1005 4.87997C28.7956 5.12855 28.5685 5.45833 28.4194 5.86932C28.2736 6.27699 28.2006 6.72443 28.2006 7.21165C28.2006 7.70218 28.2736 8.15128 28.4194 8.55895C28.5685 8.96662 28.7956 9.29309 29.1005 9.53835C29.4087 9.78362 29.7965 9.90625 30.2638 9.90625ZM40.3152 7.8331V3.36364H41.8066V11H40.345V9.67756H40.2654C40.0898 10.0852 39.8081 10.425 39.4203 10.6967C39.0358 10.9652 38.5569 11.0994 37.9835 11.0994C37.493 11.0994 37.0588 10.9917 36.6809 10.7763C36.3064 10.5575 36.0114 10.2344 35.796 9.80682C35.5839 9.37926 35.4778 8.85062 35.4778 8.22088V3.36364H36.9643V8.0419C36.9643 8.56226 37.1085 8.97656 37.3968 9.2848C37.6852 9.59304 38.0597 9.74716 38.5204 9.74716C38.7988 9.74716 39.0756 9.67756 39.3507 9.53835C39.6291 9.39915 39.8594 9.18868 40.0417 8.90696C40.2273 8.62524 40.3185 8.26728 40.3152 7.8331ZM47.3686 3.36364V4.55682H43.1974V3.36364H47.3686ZM44.3161 1.53409H45.8026V8.75781C45.8026 9.04616 45.8456 9.26326 45.9318 9.40909C46.018 9.55161 46.129 9.64938 46.2649 9.70241C46.4041 9.75213 46.5549 9.77699 46.7173 9.77699C46.8366 9.77699 46.9411 9.7687 47.0305 9.75213C47.12 9.73556 47.1896 9.7223 47.2393 9.71236L47.5078 10.9403C47.4216 10.9735 47.299 11.0066 47.1399 11.0398C46.9808 11.0762 46.782 11.0961 46.5433 11.0994C46.1522 11.1061 45.7876 11.0365 45.4496 10.8906C45.1115 10.7448 44.8381 10.5194 44.6293 10.2145C44.4205 9.90956 44.3161 9.52675 44.3161 9.06605V1.53409ZM53.2525 6.05327V7.34091H48.7383V6.05327H53.2525ZM58.7585 11.169C57.973 11.1657 57.3018 10.9586 56.745 10.5476C56.1882 10.1366 55.7623 9.53835 55.4673 8.75284C55.1723 7.96733 55.0249 7.02107 55.0249 5.91406C55.0249 4.81037 55.1723 3.86742 55.4673 3.08523C55.7656 2.30303 56.1932 1.70644 56.75 1.29545C57.3101 0.884469 57.9796 0.678977 58.7585 0.678977C59.5374 0.678977 60.2053 0.886126 60.7621 1.30043C61.3189 1.71141 61.7448 2.308 62.0398 3.0902C62.3381 3.86908 62.4872 4.81037 62.4872 5.91406C62.4872 7.02438 62.3397 7.9723 62.0447 8.75781C61.7498 9.54001 61.3239 10.1383 60.767 10.5526C60.2102 10.9635 59.5407 11.169 58.7585 11.169ZM58.7585 9.84162C59.4479 9.84162 59.9865 9.50521 60.3743 8.83239C60.7654 8.15956 60.9609 7.18679 60.9609 5.91406C60.9609 5.06889 60.8714 4.35464 60.6925 3.77131C60.5168 3.18466 60.2633 2.74053 59.9318 2.43892C59.6037 2.134 59.2126 1.98153 58.7585 1.98153C58.0724 1.98153 57.5339 2.3196 57.1428 2.99574C56.7517 3.67187 56.5545 4.64465 56.5511 5.91406C56.5511 6.76255 56.639 7.48011 56.8146 8.06676C56.9936 8.65009 57.2472 9.09257 57.5753 9.39418C57.9034 9.69247 58.2978 9.84162 58.7585 9.84162ZM64.2509 11V9.88636L67.6962 6.31676C68.0641 5.92898 68.3674 5.58925 68.606 5.29759C68.848 5.0026 69.0286 4.72254 69.1479 4.45739C69.2672 4.19223 69.3269 3.91051 69.3269 3.61222C69.3269 3.27415 69.2473 2.98248 69.0882 2.73722C68.9292 2.48864 68.7121 2.29806 68.437 2.16548C68.1619 2.02959 67.852 1.96165 67.5073 1.96165C67.1427 1.96165 66.8245 2.03622 66.5527 2.18537C66.281 2.33452 66.0721 2.54498 65.9263 2.81676C65.7805 3.08854 65.7076 3.40672 65.7076 3.77131H64.2409C64.2409 3.15151 64.3835 2.60961 64.6685 2.1456C64.9535 1.68158 65.3446 1.32197 65.8418 1.06676C66.339 0.808238 66.9041 0.678977 67.5371 0.678977C68.1768 0.678977 68.7402 0.806581 69.2275 1.06179C69.718 1.31368 70.1008 1.65838 70.3759 2.09588C70.651 2.53007 70.7885 3.0206 70.7885 3.56747C70.7885 3.94531 70.7173 4.31487 70.5748 4.67614C70.4355 5.0374 70.1919 5.4401 69.8439 5.88423C69.4959 6.32505 69.012 6.86032 68.3922 7.49006L66.3688 9.60795V9.68253H70.9526V11H64.2509Z" fill="black"/>
</svg>
