<svg width="57" height="14" viewBox="0 0 57 14" fill="none" xmlns="http://www.w3.org/2000/svg">
<path d="M4.21591 11.1541C3.4768 11.1541 2.84044 10.9867 2.30682 10.652C1.77652 10.3139 1.36884 9.84825 1.08381 9.25497C0.798769 8.66169 0.65625 7.98224 0.65625 7.21662C0.65625 6.44105 0.802083 5.75663 1.09375 5.16335C1.38542 4.56676 1.7964 4.10109 2.3267 3.76633C2.85701 3.43158 3.48177 3.2642 4.20099 3.2642C4.78101 3.2642 5.29806 3.37192 5.75213 3.58736C6.2062 3.79948 6.57244 4.09777 6.85085 4.48224C7.13258 4.86671 7.29995 5.31581 7.35298 5.82955H5.90625C5.8267 5.47159 5.64441 5.16335 5.35938 4.90483C5.07765 4.64631 4.69981 4.51705 4.22585 4.51705C3.81155 4.51705 3.44863 4.62642 3.13707 4.84517C2.82884 5.06061 2.58854 5.36884 2.41619 5.76989C2.24384 6.16761 2.15767 6.63826 2.15767 7.18182C2.15767 7.73864 2.24219 8.21922 2.41122 8.62358C2.58026 9.02794 2.81889 9.34115 3.12713 9.56321C3.43868 9.78527 3.80492 9.89631 4.22585 9.89631C4.50758 9.89631 4.76278 9.84493 4.99148 9.74219C5.22349 9.63613 5.41738 9.48532 5.57315 9.28977C5.73224 9.09422 5.84328 8.8589 5.90625 8.58381H7.35298C7.29995 9.07765 7.1392 9.51847 6.87074 9.90625C6.60227 10.294 6.24266 10.599 5.7919 10.821C5.34446 11.0431 4.81913 11.1541 4.21591 11.1541ZM12.1593 11.1541C11.4434 11.1541 10.8186 10.9901 10.285 10.6619C9.75136 10.3338 9.33706 9.87476 9.04208 9.2848C8.7471 8.69484 8.59961 8.00544 8.59961 7.21662C8.59961 6.42448 8.7471 5.73177 9.04208 5.13849C9.33706 4.54522 9.75136 4.08452 10.285 3.75639C10.8186 3.42827 11.4434 3.2642 12.1593 3.2642C12.8752 3.2642 13.4999 3.42827 14.0336 3.75639C14.5672 4.08452 14.9815 4.54522 15.2765 5.13849C15.5714 5.73177 15.7189 6.42448 15.7189 7.21662C15.7189 8.00544 15.5714 8.69484 15.2765 9.2848C14.9815 9.87476 14.5672 10.3338 14.0336 10.6619C13.4999 10.9901 12.8752 11.1541 12.1593 11.1541ZM12.1642 9.90625C12.6283 9.90625 13.0127 9.78362 13.3176 9.53835C13.6226 9.29309 13.848 8.96662 13.9938 8.55895C14.1429 8.15128 14.2175 7.70218 14.2175 7.21165C14.2175 6.72443 14.1429 6.27699 13.9938 5.86932C13.848 5.45833 13.6226 5.12855 13.3176 4.87997C13.0127 4.63139 12.6283 4.5071 12.1642 4.5071C11.6969 4.5071 11.3091 4.63139 11.0009 4.87997C10.696 5.12855 10.4689 5.45833 10.3198 5.86932C10.1739 6.27699 10.101 6.72443 10.101 7.21165C10.101 7.70218 10.1739 8.15128 10.3198 8.55895C10.4689 8.96662 10.696 9.29309 11.0009 9.53835C11.3091 9.78362 11.6969 9.90625 12.1642 9.90625ZM17.3782 13.8636V3.36364H18.8299V4.60156H18.9542C19.0404 4.44247 19.1647 4.25852 19.3271 4.04972C19.4895 3.84091 19.7148 3.65862 20.0032 3.50284C20.2915 3.34375 20.6727 3.2642 21.1467 3.2642C21.7631 3.2642 22.3133 3.41998 22.7972 3.73153C23.2811 4.04309 23.6606 4.49219 23.9357 5.07884C24.2141 5.66548 24.3533 6.37145 24.3533 7.19673C24.3533 8.02202 24.2158 8.72964 23.9407 9.3196C23.6656 9.90625 23.2878 10.3587 22.8072 10.6768C22.3266 10.9917 21.7781 11.1491 21.1616 11.1491C20.6976 11.1491 20.3181 11.0713 20.0231 10.9155C19.7314 10.7597 19.5027 10.5774 19.337 10.3686C19.1713 10.1598 19.0437 9.9742 18.9542 9.81179H18.8647V13.8636H17.3782ZM18.8349 7.18182C18.8349 7.71875 18.9128 8.18939 19.0685 8.59375C19.2243 8.99811 19.4497 9.31463 19.7447 9.54332C20.0397 9.7687 20.4009 9.88139 20.8285 9.88139C21.2726 9.88139 21.6438 9.76373 21.9421 9.52841C22.2404 9.28977 22.4658 8.96662 22.6183 8.55895C22.774 8.15128 22.8519 7.69223 22.8519 7.18182C22.8519 6.67803 22.7757 6.22562 22.6232 5.82457C22.4741 5.42353 22.2487 5.10701 21.9471 4.875C21.6488 4.64299 21.2759 4.52699 20.8285 4.52699C20.3976 4.52699 20.033 4.63802 19.7347 4.86009C19.4397 5.08215 19.216 5.39205 19.0636 5.78977C18.9111 6.1875 18.8349 6.65151 18.8349 7.18182ZM26.6987 13.8636C26.4766 13.8636 26.2744 13.8454 26.0922 13.8089C25.9099 13.7758 25.774 13.7393 25.6845 13.6996L26.0424 12.4815C26.3142 12.5545 26.5562 12.5859 26.7683 12.576C26.9804 12.5661 27.1677 12.4865 27.3301 12.3374C27.4958 12.1882 27.6416 11.9446 27.7676 11.6065L27.9515 11.0994L25.1575 3.36364H26.7484L28.6824 9.28977H28.7619L30.6958 3.36364H32.2917L29.1447 12.0192C28.9989 12.4169 28.8133 12.7533 28.5879 13.0284C28.3625 13.3068 28.094 13.5156 27.7825 13.6548C27.4709 13.794 27.1097 13.8636 26.6987 13.8636ZM38.188 6.05327V7.34091H33.6738V6.05327H38.188ZM43.6941 11.169C42.9086 11.1657 42.2374 10.9586 41.6806 10.5476C41.1238 10.1366 40.6979 9.53835 40.4029 8.75284C40.1079 7.96733 39.9604 7.02107 39.9604 5.91406C39.9604 4.81037 40.1079 3.86742 40.4029 3.08523C40.7012 2.30303 41.1287 1.70644 41.6855 1.29545C42.2457 0.884469 42.9152 0.678977 43.6941 0.678977C44.473 0.678977 45.1408 0.886126 45.6976 1.30043C46.2544 1.71141 46.6803 2.308 46.9753 3.0902C47.2736 3.86908 47.4228 4.81037 47.4228 5.91406C47.4228 7.02438 47.2753 7.9723 46.9803 8.75781C46.6853 9.54001 46.2594 10.1383 45.7026 10.5526C45.1458 10.9635 44.4763 11.169 43.6941 11.169ZM43.6941 9.84162C44.3835 9.84162 44.9221 9.50521 45.3098 8.83239C45.7009 8.15956 45.8965 7.18679 45.8965 5.91406C45.8965 5.06889 45.807 4.35464 45.628 3.77131C45.4524 3.18466 45.1988 2.74053 44.8674 2.43892C44.5392 2.134 44.1481 1.98153 43.6941 1.98153C43.008 1.98153 42.4694 2.3196 42.0783 2.99574C41.6872 3.67187 41.49 4.64465 41.4867 5.91406C41.4867 6.76255 41.5745 7.48011 41.7502 8.06676C41.9292 8.65009 42.1827 9.09257 42.5108 9.39418C42.839 9.69247 43.2334 9.84162 43.6941 9.84162ZM52.7312 11.1392C52.0484 11.1392 51.4386 11.0215 50.9016 10.7862C50.368 10.5509 49.9454 10.2244 49.6339 9.80682C49.3256 9.38589 49.1599 8.89867 49.1367 8.34517H50.6978C50.7177 8.64678 50.8188 8.90862 51.0011 9.13068C51.1867 9.34943 51.4286 9.51847 51.7269 9.63778C52.0252 9.7571 52.3567 9.81676 52.7212 9.81676C53.1223 9.81676 53.4769 9.74716 53.7852 9.60795C54.0967 9.46875 54.3403 9.27486 54.516 9.02628C54.6916 8.77438 54.7795 8.48438 54.7795 8.15625C54.7795 7.81487 54.6916 7.51491 54.516 7.25639C54.3436 6.99455 54.0901 6.78906 53.7553 6.63991C53.4239 6.49077 53.0228 6.41619 52.5522 6.41619H51.6921V5.16335H52.5522C52.93 5.16335 53.2615 5.09541 53.5465 4.95952C53.8349 4.82363 54.0603 4.63471 54.2227 4.39276C54.3851 4.14749 54.4663 3.8608 54.4663 3.53267C54.4663 3.2178 54.395 2.94437 54.2525 2.71236C54.1133 2.47704 53.9144 2.29309 53.6559 2.16051C53.4007 2.02794 53.0991 1.96165 52.7511 1.96165C52.4196 1.96165 52.1097 2.02296 51.8214 2.1456C51.5363 2.26491 51.3043 2.43726 51.1254 2.66264C50.9464 2.88471 50.8503 3.15151 50.837 3.46307H49.3505C49.3671 2.91288 49.5295 2.42898 49.8377 2.01136C50.1493 1.59375 50.5603 1.26728 51.0707 1.03196C51.5811 0.796638 52.1478 0.678977 52.771 0.678977C53.4239 0.678977 53.9873 0.806581 54.4613 1.06179C54.9386 1.31368 55.3065 1.65009 55.565 2.07102C55.8268 2.49195 55.9561 2.95265 55.9528 3.45312C55.9561 4.0232 55.797 4.5071 55.4755 4.90483C55.1573 5.30256 54.7331 5.56937 54.2028 5.70526V5.7848C54.8789 5.88755 55.4026 6.15601 55.7738 6.5902C56.1483 7.02438 56.3339 7.56297 56.3306 8.20597C56.3339 8.7661 56.1781 9.26823 55.8633 9.71236C55.5517 10.1565 55.1258 10.5062 54.5856 10.7614C54.0453 11.0133 53.4272 11.1392 52.7312 11.1392Z" fill="black"/>
</svg>
