<svg width="76" height="15" viewBox="0 0 76 15" fill="none" xmlns="http://www.w3.org/2000/svg">
<path d="M0.118608 11V0.818182H1.60511V4.60156H1.6946C1.78078 4.44247 1.90507 4.25852 2.06747 4.04972C2.22988 3.84091 2.45526 3.65862 2.74361 3.50284C3.03196 3.34375 3.41312 3.2642 3.88707 3.2642C4.50355 3.2642 5.05374 3.41998 5.53764 3.73153C6.02154 4.04309 6.40104 4.49219 6.67614 5.07884C6.95455 5.66548 7.09375 6.37145 7.09375 7.19673C7.09375 8.02202 6.9562 8.72964 6.68111 9.3196C6.40601 9.90625 6.02817 10.3587 5.54759 10.6768C5.067 10.9917 4.51847 11.1491 3.90199 11.1491C3.43797 11.1491 3.05848 11.0713 2.76349 10.9155C2.47183 10.7597 2.24313 10.5774 2.07741 10.3686C1.9117 10.1598 1.78409 9.9742 1.6946 9.81179H1.57031V11H0.118608ZM1.57528 7.18182C1.57528 7.71875 1.65317 8.18939 1.80895 8.59375C1.96473 8.99811 2.1901 9.31463 2.48509 9.54332C2.78007 9.7687 3.14134 9.88139 3.56889 9.88139C4.01302 9.88139 4.38423 9.76373 4.68253 9.52841C4.98082 9.28977 5.2062 8.96662 5.35866 8.55895C5.51444 8.15128 5.59233 7.69223 5.59233 7.18182C5.59233 6.67803 5.5161 6.22562 5.36364 5.82457C5.21449 5.42353 4.98911 5.10701 4.6875 4.875C4.3892 4.64299 4.01634 4.52699 3.56889 4.52699C3.13802 4.52699 2.77344 4.63802 2.47514 4.86009C2.18016 5.08215 1.95644 5.39205 1.80398 5.78977C1.65152 6.1875 1.57528 6.65151 1.57528 7.18182ZM13.6003 7.8331V3.36364H15.0918V11H13.6301V9.67756H13.5506C13.3749 10.0852 13.0932 10.425 12.7054 10.6967C12.321 10.9652 11.842 11.0994 11.2686 11.0994C10.7781 11.0994 10.3439 10.9917 9.96609 10.7763C9.59156 10.5575 9.29658 10.2344 9.08114 9.80682C8.86902 9.37926 8.76296 8.85062 8.76296 8.22088V3.36364H10.2495V8.0419C10.2495 8.56226 10.3936 8.97656 10.682 9.2848C10.9703 9.59304 11.3449 9.74716 11.8056 9.74716C12.084 9.74716 12.3607 9.67756 12.6358 9.53835C12.9142 9.39915 13.1446 9.18868 13.3269 8.90696C13.5125 8.62524 13.6036 8.26728 13.6003 7.8331ZM17.0891 11V3.36364H18.5756V11H17.0891ZM17.8398 2.18537C17.5813 2.18537 17.3593 2.09919 17.1737 1.92685C16.9914 1.75118 16.9002 1.54238 16.9002 1.30043C16.9002 1.05516 16.9914 0.846354 17.1737 0.674005C17.3593 0.498342 17.5813 0.410511 17.8398 0.410511C18.0984 0.410511 18.3188 0.498342 18.5011 0.674005C18.6867 0.846354 18.7795 1.05516 18.7795 1.30043C18.7795 1.54238 18.6867 1.75118 18.5011 1.92685C18.3188 2.09919 18.0984 2.18537 17.8398 2.18537ZM22.062 0.818182V11H20.5755V0.818182H22.062ZM26.9205 11.1491C26.304 11.1491 25.7538 10.9917 25.2699 10.6768C24.7893 10.3587 24.4115 9.90625 24.1364 9.3196C23.8646 8.72964 23.7287 8.02202 23.7287 7.19673C23.7287 6.37145 23.8662 5.66548 24.1413 5.07884C24.4197 4.49219 24.8009 4.04309 25.2848 3.73153C25.7687 3.41998 26.3172 3.2642 26.9304 3.2642C27.4044 3.2642 27.7855 3.34375 28.0739 3.50284C28.3655 3.65862 28.5909 3.84091 28.75 4.04972C28.9124 4.25852 29.0384 4.44247 29.1278 4.60156H29.2173V0.818182H30.7038V11H29.2521V9.81179H29.1278C29.0384 9.9742 28.9091 10.1598 28.7401 10.3686C28.5743 10.5774 28.3456 10.7597 28.054 10.9155C27.7623 11.0713 27.3845 11.1491 26.9205 11.1491ZM27.2486 9.88139C27.6761 9.88139 28.0374 9.7687 28.3324 9.54332C28.6307 9.31463 28.8561 8.99811 29.0085 8.59375C29.1643 8.18939 29.2422 7.71875 29.2422 7.18182C29.2422 6.65151 29.166 6.1875 29.0135 5.78977C28.861 5.39205 28.6373 5.08215 28.3423 4.86009C28.0473 4.63802 27.6828 4.52699 27.2486 4.52699C26.8011 4.52699 26.4283 4.64299 26.13 4.875C25.8317 5.10701 25.6063 5.42353 25.4538 5.82457C25.3047 6.22562 25.2301 6.67803 25.2301 7.18182C25.2301 7.69223 25.3063 8.15128 25.4588 8.55895C25.6113 8.96662 25.8366 9.28977 26.1349 9.52841C26.4366 9.76373 26.8078 9.88139 27.2486 9.88139ZM32.8255 11V3.36364H34.312V11H32.8255ZM33.5762 2.18537C33.3176 2.18537 33.0956 2.09919 32.91 1.92685C32.7277 1.75118 32.6365 1.54238 32.6365 1.30043C32.6365 1.05516 32.7277 0.846354 32.91 0.674005C33.0956 0.498342 33.3176 0.410511 33.5762 0.410511C33.8347 0.410511 34.0551 0.498342 34.2374 0.674005C34.423 0.846354 34.5158 1.05516 34.5158 1.30043C34.5158 1.54238 34.423 1.75118 34.2374 1.92685C34.0551 2.09919 33.8347 2.18537 33.5762 2.18537ZM37.7983 6.46591V11H36.3118V3.36364H37.7386V4.60653H37.8331C38.0088 4.20218 38.2839 3.87737 38.6584 3.6321C39.0362 3.38684 39.5118 3.2642 40.0852 3.2642C40.6056 3.2642 41.0613 3.37358 41.4524 3.59233C41.8435 3.80777 42.1468 4.12926 42.3622 4.55682C42.5777 4.98437 42.6854 5.51302 42.6854 6.14276V11H41.1989V6.32173C41.1989 5.76823 41.0547 5.3357 40.7663 5.02415C40.478 4.70928 40.0819 4.55185 39.5781 4.55185C39.2334 4.55185 38.9268 4.62642 38.6584 4.77557C38.3932 4.92472 38.1828 5.14347 38.027 5.43182C37.8745 5.71686 37.7983 6.06155 37.7983 6.46591ZM47.8807 14.0227C47.2741 14.0227 46.7521 13.9432 46.3146 13.7841C45.8804 13.625 45.5258 13.4145 45.2507 13.1527C44.9756 12.8909 44.7701 12.6042 44.6342 12.2926L45.9119 11.7656C46.0014 11.9115 46.1207 12.0656 46.2699 12.228C46.4223 12.3937 46.6278 12.5346 46.8864 12.6506C47.1482 12.7666 47.4846 12.8246 47.8956 12.8246C48.459 12.8246 48.9247 12.687 49.2926 12.4119C49.6605 12.1402 49.8445 11.706 49.8445 11.1094V9.60795H49.75C49.6605 9.77036 49.5313 9.95099 49.3622 10.1499C49.1965 10.3487 48.9678 10.5211 48.6761 10.6669C48.3845 10.8127 48.005 10.8857 47.5376 10.8857C46.9344 10.8857 46.3909 10.7448 45.907 10.4631C45.4264 10.178 45.0452 9.75876 44.7635 9.20526C44.4851 8.64844 44.3459 7.96401 44.3459 7.15199C44.3459 6.33996 44.4834 5.64394 44.7585 5.06392C45.0369 4.4839 45.4181 4.03977 45.902 3.73153C46.3859 3.41998 46.9344 3.2642 47.5476 3.2642C48.0215 3.2642 48.4044 3.34375 48.696 3.50284C48.9877 3.65862 49.2147 3.84091 49.3771 4.04972C49.5429 4.25852 49.6705 4.44247 49.7599 4.60156H49.8693V3.36364H51.326V11.169C51.326 11.8253 51.1735 12.3639 50.8686 12.7848C50.5637 13.2057 50.151 13.5173 49.6307 13.7195C49.1136 13.9216 48.5303 14.0227 47.8807 14.0227ZM47.8658 9.6527C48.2933 9.6527 48.6546 9.55327 48.9496 9.3544C49.2479 9.15223 49.4732 8.86387 49.6257 8.48935C49.7815 8.11151 49.8594 7.65909 49.8594 7.1321C49.8594 6.61837 49.7831 6.16596 49.6307 5.77486C49.4782 5.38376 49.2545 5.07884 48.9595 4.86009C48.6645 4.63802 48.3 4.52699 47.8658 4.52699C47.4183 4.52699 47.0455 4.64299 46.7472 4.875C46.4489 5.10369 46.2235 5.41525 46.071 5.80966C45.9219 6.20407 45.8473 6.64489 45.8473 7.1321C45.8473 7.63258 45.9235 8.07173 46.076 8.44957C46.2285 8.82741 46.4538 9.1224 46.7521 9.33452C47.0537 9.54664 47.425 9.6527 47.8658 9.6527ZM57.8189 6.05327V7.34091H53.3047V6.05327H57.8189ZM63.3249 11.169C62.5394 11.1657 61.8683 10.9586 61.3114 10.5476C60.7546 10.1366 60.3287 9.53835 60.0337 8.75284C59.7388 7.96733 59.5913 7.02107 59.5913 5.91406C59.5913 4.81037 59.7388 3.86742 60.0337 3.08523C60.332 2.30303 60.7596 1.70644 61.3164 1.29545C61.8765 0.884469 62.546 0.678977 63.3249 0.678977C64.1038 0.678977 64.7717 0.886126 65.3285 1.30043C65.8853 1.71141 66.3112 2.308 66.6062 3.0902C66.9045 3.86908 67.0536 4.81037 67.0536 5.91406C67.0536 7.02438 66.9061 7.9723 66.6112 8.75781C66.3162 9.54001 65.8903 10.1383 65.3335 10.5526C64.7766 10.9635 64.1071 11.169 63.3249 11.169ZM63.3249 9.84162C64.0143 9.84162 64.5529 9.50521 64.9407 8.83239C65.3318 8.15956 65.5273 7.18679 65.5273 5.91406C65.5273 5.06889 65.4379 4.35464 65.2589 3.77131C65.0832 3.18466 64.8297 2.74053 64.4982 2.43892C64.1701 2.134 63.779 1.98153 63.3249 1.98153C62.6388 1.98153 62.1003 2.3196 61.7092 2.99574C61.3181 3.67187 61.1209 4.64465 61.1175 5.91406C61.1175 6.76255 61.2054 7.48011 61.381 8.06676C61.56 8.65009 61.8136 9.09257 62.1417 9.39418C62.4698 9.69247 62.8642 9.84162 63.3249 9.84162ZM68.8173 11V9.88636L72.2626 6.31676C72.6305 5.92898 72.9338 5.58925 73.1724 5.29759C73.4144 5.0026 73.595 4.72254 73.7143 4.45739C73.8336 4.19223 73.8933 3.91051 73.8933 3.61222C73.8933 3.27415 73.8137 2.98248 73.6547 2.73722C73.4956 2.48864 73.2785 2.29806 73.0034 2.16548C72.7283 2.02959 72.4184 1.96165 72.0737 1.96165C71.7091 1.96165 71.3909 2.03622 71.1191 2.18537C70.8474 2.33452 70.6386 2.54498 70.4927 2.81676C70.3469 3.08854 70.274 3.40672 70.274 3.77131H68.8074C68.8074 3.15151 68.9499 2.60961 69.2349 2.1456C69.5199 1.68158 69.911 1.32197 70.4082 1.06676C70.9054 0.808238 71.4705 0.678977 72.1035 0.678977C72.7432 0.678977 73.3066 0.806581 73.7939 1.06179C74.2844 1.31368 74.6672 1.65838 74.9423 2.09588C75.2174 2.53007 75.3549 3.0206 75.3549 3.56747C75.3549 3.94531 75.2837 4.31487 75.1412 4.67614C75.002 5.0374 74.7583 5.4401 74.4103 5.88423C74.0623 6.32505 73.5784 6.86032 72.9586 7.49006L70.9352 9.60795V9.68253H75.519V11H68.8173Z" fill="black"/>
</svg>
