<svg width="103" height="12" viewBox="0 0 103 12" fill="none" xmlns="http://www.w3.org/2000/svg">
<path d="M1.4858 0.818182V11H-0.000710189V0.818182H1.4858ZM3.48562 11V3.36364H4.97212V11H3.48562ZM4.23633 2.18537C3.97781 2.18537 3.75574 2.09919 3.57013 1.92685C3.38784 1.75118 3.2967 1.54238 3.2967 1.30043C3.2967 1.05516 3.38784 0.846354 3.57013 0.674005C3.75574 0.498342 3.97781 0.410511 4.23633 0.410511C4.49485 0.410511 4.71526 0.498342 4.89755 0.674005C5.08316 0.846354 5.17596 1.05516 5.17596 1.30043C5.17596 1.54238 5.08316 1.75118 4.89755 1.92685C4.71526 2.09919 4.49485 2.18537 4.23633 2.18537ZM8.45845 6.46591V11H6.97195V3.36364H8.39879V4.60653H8.49325C8.66892 4.20218 8.94401 3.87737 9.31854 3.6321C9.69638 3.38684 10.172 3.2642 10.7454 3.2642C11.2657 3.2642 11.7215 3.37358 12.1126 3.59233C12.5037 3.80777 12.8069 4.12926 13.0224 4.55682C13.2378 4.98437 13.3455 5.51302 13.3455 6.14276V11H11.859V6.32173C11.859 5.76823 11.7148 5.3357 11.4265 5.02415C11.1381 4.70928 10.7421 4.55185 10.2383 4.55185C9.89358 4.55185 9.587 4.62642 9.31854 4.77557C9.05339 4.92472 8.84292 5.14347 8.68714 5.43182C8.53468 5.71686 8.45845 6.06155 8.45845 6.46591ZM16.7063 8.4098L16.6964 6.59517H16.9549L19.9975 3.36364H21.7773L18.3072 7.04261H18.0735L16.7063 8.4098ZM15.3391 11V0.818182H16.8256V11H15.3391ZM20.1616 11L17.4272 7.37074L18.4513 6.33168L21.9862 11H20.1616ZM27.1119 6.05327V7.34091H22.5977V6.05327H27.1119ZM32.3842 11.1541C31.6319 11.1541 30.9839 10.9934 30.4403 10.6719C29.9001 10.3471 29.4825 9.89134 29.1875 9.30469C28.8958 8.71473 28.75 8.02367 28.75 7.23153C28.75 6.44934 28.8958 5.75994 29.1875 5.16335C29.4825 4.56676 29.8935 4.10109 30.4205 3.76633C30.9508 3.43158 31.5705 3.2642 32.2798 3.2642C32.7107 3.2642 33.1283 3.33546 33.5327 3.47798C33.937 3.6205 34.3 3.84422 34.6214 4.14915C34.9429 4.45407 35.1965 4.85014 35.3821 5.33736C35.5677 5.82126 35.6605 6.40956 35.6605 7.10227V7.62926H29.5902V6.51562H34.2038C34.2038 6.12453 34.1243 5.77817 33.9652 5.47656C33.8061 5.17164 33.5824 4.93134 33.294 4.75568C33.009 4.58002 32.6742 4.49219 32.2898 4.49219C31.8722 4.49219 31.5076 4.59493 31.196 4.80043C30.8878 5.0026 30.6491 5.26776 30.4801 5.59588C30.3144 5.92069 30.2315 6.27367 30.2315 6.65483V7.52486C30.2315 8.03527 30.321 8.46946 30.5 8.82741C30.6823 9.18537 30.9358 9.45881 31.2607 9.64773C31.5855 9.83333 31.965 9.92614 32.3991 9.92614C32.6809 9.92614 32.9377 9.88636 33.1697 9.80682C33.4018 9.72396 33.6023 9.60133 33.7713 9.43892C33.9403 9.27652 34.0696 9.07599 34.1591 8.83736L35.5661 9.09091C35.4534 9.50521 35.2512 9.86813 34.9595 10.1797C34.6712 10.4879 34.3082 10.7282 33.8707 10.9006C33.4366 11.0696 32.9411 11.1541 32.3842 11.1541ZM38.3054 3.36364L39.9908 6.33665L41.6911 3.36364H43.3168L40.9354 7.18182L43.3366 11H41.7109L39.9908 8.14631L38.2756 11H36.6449L39.0213 7.18182L36.6747 3.36364H38.3054ZM48.4077 3.36364V4.55682H44.2365V3.36364H48.4077ZM45.3551 1.53409H46.8416V8.75781C46.8416 9.04616 46.8847 9.26326 46.9709 9.40909C47.0571 9.55161 47.1681 9.64938 47.304 9.70241C47.4432 9.75213 47.594 9.77699 47.7564 9.77699C47.8757 9.77699 47.9801 9.7687 48.0696 9.75213C48.1591 9.73556 48.2287 9.7223 48.2784 9.71236L48.5469 10.9403C48.4607 10.9735 48.3381 11.0066 48.179 11.0398C48.0199 11.0762 47.821 11.0961 47.5824 11.0994C47.1913 11.1061 46.8267 11.0365 46.4886 10.8906C46.1506 10.7448 45.8771 10.5194 45.6683 10.2145C45.4595 9.90956 45.3551 9.52675 45.3551 9.06605V1.53409ZM53.2612 11.1541C52.5088 11.1541 51.8609 10.9934 51.3173 10.6719C50.777 10.3471 50.3594 9.89134 50.0645 9.30469C49.7728 8.71473 49.627 8.02367 49.627 7.23153C49.627 6.44934 49.7728 5.75994 50.0645 5.16335C50.3594 4.56676 50.7704 4.10109 51.2974 3.76633C51.8277 3.43158 52.4475 3.2642 53.1568 3.2642C53.5877 3.2642 54.0053 3.33546 54.4096 3.47798C54.814 3.6205 55.1769 3.84422 55.4984 4.14915C55.8199 4.45407 56.0734 4.85014 56.2591 5.33736C56.4447 5.82126 56.5375 6.40956 56.5375 7.10227V7.62926H50.4672V6.51562H55.0808C55.0808 6.12453 55.0012 5.77817 54.8422 5.47656C54.6831 5.17164 54.4593 4.93134 54.171 4.75568C53.8859 4.58002 53.5512 4.49219 53.1667 4.49219C52.7491 4.49219 52.3845 4.59493 52.073 4.80043C51.7647 5.0026 51.5261 5.26776 51.3571 5.59588C51.1913 5.92069 51.1085 6.27367 51.1085 6.65483V7.52486C51.1085 8.03527 51.198 8.46946 51.377 8.82741C51.5592 9.18537 51.8128 9.45881 52.1376 9.64773C52.4624 9.83333 52.8419 9.92614 53.2761 9.92614C53.5578 9.92614 53.8147 9.88636 54.0467 9.80682C54.2787 9.72396 54.4792 9.60133 54.6483 9.43892C54.8173 9.27652 54.9466 9.07599 55.036 8.83736L56.443 9.09091C56.3303 9.50521 56.1281 9.86813 55.8365 10.1797C55.5481 10.4879 55.1852 10.7282 54.7477 10.9006C54.3135 11.0696 53.818 11.1541 53.2612 11.1541ZM58.1868 11V3.36364H59.6236V4.5767H59.7031C59.8423 4.16572 60.0876 3.84257 60.4389 3.60724C60.7936 3.36861 61.1946 3.24929 61.642 3.24929C61.7348 3.24929 61.8442 3.2526 61.9702 3.25923C62.0994 3.26586 62.2005 3.27415 62.2734 3.28409V4.70597C62.2138 4.68939 62.1077 4.67116 61.9553 4.65128C61.8028 4.62808 61.6503 4.61648 61.4979 4.61648C61.1465 4.61648 60.8333 4.69105 60.5582 4.8402C60.2865 4.98603 60.071 5.18987 59.9119 5.4517C59.7528 5.71023 59.6733 6.00521 59.6733 6.33665V11H58.1868ZM65.0463 6.46591V11H63.5598V3.36364H64.9867V4.60653H65.0811C65.2568 4.20218 65.5319 3.87737 65.9064 3.6321C66.2843 3.38684 66.7599 3.2642 67.3333 3.2642C67.8536 3.2642 68.3094 3.37358 68.7005 3.59233C69.0916 3.80777 69.3948 4.12926 69.6103 4.55682C69.8257 4.98437 69.9334 5.51302 69.9334 6.14276V11H68.4469V6.32173C68.4469 5.76823 68.3027 5.3357 68.0144 5.02415C67.726 4.70928 67.33 4.55185 66.8262 4.55185C66.4815 4.55185 66.1749 4.62642 65.9064 4.77557C65.6413 4.92472 65.4308 5.14347 65.275 5.43182C65.1226 5.71686 65.0463 6.06155 65.0463 6.46591ZM74.1493 11.169C73.6654 11.169 73.2279 11.0795 72.8368 10.9006C72.4457 10.7183 72.1358 10.4548 71.9071 10.1101C71.6818 9.76539 71.5691 9.3428 71.5691 8.84233C71.5691 8.41146 71.6519 8.05682 71.8176 7.77841C71.9834 7.5 72.2071 7.27959 72.4888 7.11719C72.7705 6.95478 73.0854 6.83215 73.4334 6.74929C73.7814 6.66643 74.1361 6.60346 74.4973 6.56037C74.9547 6.50734 75.3259 6.46425 75.611 6.43111C75.896 6.39465 76.1032 6.33665 76.2324 6.2571C76.3617 6.17756 76.4263 6.0483 76.4263 5.86932V5.83452C76.4263 5.40033 76.3037 5.06392 76.0584 4.82528C75.8165 4.58665 75.4552 4.46733 74.9746 4.46733C74.4741 4.46733 74.0797 4.57836 73.7914 4.80043C73.5063 5.01918 73.3091 5.26278 73.1998 5.53125L71.8027 5.21307C71.9685 4.74905 72.2104 4.37453 72.5286 4.08949C72.8501 3.80114 73.2196 3.59233 73.6373 3.46307C74.0549 3.33049 74.494 3.2642 74.9547 3.2642C75.2596 3.2642 75.5828 3.30066 75.9242 3.37358C76.2689 3.44318 76.5904 3.57244 76.8887 3.76136C77.1903 3.95028 77.4372 4.22041 77.6294 4.57173C77.8217 4.91974 77.9178 5.37216 77.9178 5.92898V11H76.4661V9.95597H76.4064C76.3103 10.1482 76.1661 10.3371 75.9739 10.5227C75.7817 10.7083 75.5347 10.8625 75.2331 10.9851C74.9315 11.1077 74.5703 11.169 74.1493 11.169ZM74.4725 9.97585C74.8835 9.97585 75.2348 9.89465 75.5265 9.73224C75.8214 9.56984 76.0452 9.35772 76.1976 9.09588C76.3534 8.83073 76.4313 8.54735 76.4313 8.24574V7.26136C76.3783 7.31439 76.2755 7.36411 76.123 7.41051C75.9739 7.4536 75.8032 7.49171 75.611 7.52486C75.4187 7.55469 75.2315 7.58286 75.0492 7.60938C74.8669 7.63258 74.7144 7.65246 74.5918 7.66903C74.3034 7.70549 74.04 7.76681 73.8013 7.85298C73.566 7.93916 73.3771 8.06345 73.2346 8.22585C73.0953 8.38494 73.0257 8.59706 73.0257 8.86222C73.0257 9.23011 73.1616 9.50852 73.4334 9.69744C73.7052 9.88305 74.0516 9.97585 74.4725 9.97585ZM81.3842 0.818182V11H79.8977V0.818182H81.3842ZM87.8833 6.05327V7.34091H83.3691V6.05327H87.8833ZM93.3894 11.169C92.6039 11.1657 91.9327 10.9586 91.3759 10.5476C90.8191 10.1366 90.3932 9.53835 90.0982 8.75284C89.8032 7.96733 89.6557 7.02107 89.6557 5.91406C89.6557 4.81037 89.8032 3.86742 90.0982 3.08523C90.3965 2.30303 90.824 1.70644 91.3809 1.29545C91.941 0.884469 92.6105 0.678977 93.3894 0.678977C94.1683 0.678977 94.8361 0.886126 95.3929 1.30043C95.9498 1.71141 96.3757 2.308 96.6706 3.0902C96.9689 3.86908 97.1181 4.81037 97.1181 5.91406C97.1181 7.02438 96.9706 7.9723 96.6756 8.75781C96.3806 9.54001 95.9547 10.1383 95.3979 10.5526C94.8411 10.9635 94.1716 11.169 93.3894 11.169ZM93.3894 9.84162C94.0788 9.84162 94.6174 9.50521 95.0051 8.83239C95.3962 8.15956 95.5918 7.18679 95.5918 5.91406C95.5918 5.06889 95.5023 4.35464 95.3233 3.77131C95.1477 3.18466 94.8941 2.74053 94.5627 2.43892C94.2346 2.134 93.8435 1.98153 93.3894 1.98153C92.7033 1.98153 92.1647 2.3196 91.7736 2.99574C91.3825 3.67187 91.1853 4.64465 91.182 5.91406C91.182 6.76255 91.2698 7.48011 91.4455 8.06676C91.6245 8.65009 91.878 9.09257 92.2061 9.39418C92.5343 9.69247 92.9287 9.84162 93.3894 9.84162ZM102.745 0.818182V11H101.203V2.35938H101.144L98.7077 3.95028V2.47869L101.248 0.818182H102.745Z" fill="black"/>
</svg>
