<svg width="24" height="11" viewBox="0 0 24 11" fill="none" xmlns="http://www.w3.org/2000/svg">
<path d="M0.840199 8V6.98082L4.97656 1.72585V1.65625H0.974432V0.363636H6.83097V1.44744L2.85369 6.63778V6.70739H6.97017V8H0.840199ZM10.9462 8.16903C10.4623 8.16903 10.0248 8.07955 9.6337 7.90057C9.2426 7.71828 8.93271 7.45478 8.70401 7.11009C8.47863 6.76539 8.36594 6.3428 8.36594 5.84233C8.36594 5.41146 8.4488 5.05682 8.61452 4.77841C8.78024 4.5 9.00397 4.27959 9.28569 4.11719C9.56741 3.95478 9.88228 3.83215 10.2303 3.74929C10.5783 3.66643 10.9329 3.60346 11.2942 3.56037C11.7516 3.50734 12.1228 3.46425 12.4078 3.43111C12.6929 3.39465 12.9 3.33665 13.0293 3.2571C13.1586 3.17756 13.2232 3.0483 13.2232 2.86932V2.83452C13.2232 2.40033 13.1006 2.06392 12.8553 1.82528C12.6133 1.58665 12.2521 1.46733 11.7715 1.46733C11.271 1.46733 10.8766 1.57836 10.5882 1.80043C10.3032 2.01918 10.106 2.26278 9.99663 2.53125L8.59961 2.21307C8.76533 1.74905 9.00728 1.37453 9.32546 1.08949C9.64696 0.801136 10.0165 0.592329 10.4341 0.463068C10.8517 0.330492 11.2909 0.264205 11.7516 0.264205C12.0565 0.264205 12.3797 0.300663 12.7211 0.37358C13.0658 0.443182 13.3873 0.572443 13.6855 0.761363C13.9872 0.950284 14.2341 1.22041 14.4263 1.57173C14.6185 1.91974 14.7147 2.37216 14.7147 2.92898V8H13.263V6.95597H13.2033C13.1072 7.1482 12.963 7.33712 12.7708 7.52273C12.5785 7.70833 12.3316 7.86245 12.03 7.98509C11.7284 8.10772 11.3671 8.16903 10.9462 8.16903ZM11.2694 6.97585C11.6803 6.97585 12.0317 6.89465 12.3233 6.73224C12.6183 6.56984 12.842 6.35772 12.9945 6.09588C13.1503 5.83073 13.2282 5.54735 13.2282 5.24574V4.26136C13.1751 4.31439 13.0724 4.36411 12.9199 4.41051C12.7708 4.4536 12.6001 4.49171 12.4078 4.52486C12.2156 4.55469 12.0284 4.58286 11.8461 4.60938C11.6638 4.63258 11.5113 4.65246 11.3887 4.66903C11.1003 4.70549 10.8368 4.76681 10.5982 4.85298C10.3629 4.93916 10.1739 5.06345 10.0314 5.22585C9.89222 5.38494 9.82262 5.59706 9.82262 5.86222C9.82262 6.23011 9.95851 6.50852 10.2303 6.69744C10.5021 6.88305 10.8484 6.97585 11.2694 6.97585ZM16.6946 10.8636V0.363636H18.1463V1.60156H18.2706C18.3568 1.44247 18.4811 1.25852 18.6435 1.04972C18.8059 0.840909 19.0313 0.658617 19.3196 0.502841C19.608 0.34375 19.9891 0.264205 20.4631 0.264205C21.0795 0.264205 21.6297 0.419981 22.1136 0.731534C22.5975 1.04309 22.977 1.49219 23.2521 2.07884C23.5305 2.66548 23.6697 3.37145 23.6697 4.19673C23.6697 5.02202 23.5322 5.72964 23.2571 6.3196C22.982 6.90625 22.6042 7.35866 22.1236 7.67685C21.643 7.99171 21.0945 8.14915 20.478 8.14915C20.014 8.14915 19.6345 8.07126 19.3395 7.91548C19.0478 7.75971 18.8191 7.57741 18.6534 7.36861C18.4877 7.1598 18.3601 6.9742 18.2706 6.81179H18.1811V10.8636H16.6946ZM18.1513 4.18182C18.1513 4.71875 18.2292 5.18939 18.3849 5.59375C18.5407 5.99811 18.7661 6.31463 19.0611 6.54332C19.3561 6.7687 19.7173 6.88139 20.1449 6.88139C20.589 6.88139 20.9602 6.76373 21.2585 6.52841C21.5568 6.28977 21.7822 5.96662 21.9347 5.55895C22.0904 5.15128 22.1683 4.69223 22.1683 4.18182C22.1683 3.67803 22.0921 3.22562 21.9396 2.82457C21.7905 2.42353 21.5651 2.10701 21.2635 1.875C20.9652 1.64299 20.5923 1.52699 20.1449 1.52699C19.714 1.52699 19.3494 1.63802 19.0511 1.86009C18.7562 2.08215 18.5324 2.39205 18.38 2.78977C18.2275 3.1875 18.1513 3.65151 18.1513 4.18182Z" fill="black"/>
</svg>
