<svg width="46" height="12" viewBox="0 0 46 12" fill="none" xmlns="http://www.w3.org/2000/svg">
<path d="M1.4858 0.818182V11H-0.000710189V0.818182H1.4858ZM3.48562 11V3.36364H4.97212V11H3.48562ZM4.23633 2.18537C3.97781 2.18537 3.75574 2.09919 3.57013 1.92685C3.38784 1.75118 3.2967 1.54238 3.2967 1.30043C3.2967 1.05516 3.38784 0.846354 3.57013 0.674005C3.75574 0.498342 3.97781 0.410511 4.23633 0.410511C4.49485 0.410511 4.71526 0.498342 4.89755 0.674005C5.08316 0.846354 5.17596 1.05516 5.17596 1.30043C5.17596 1.54238 5.08316 1.75118 4.89755 1.92685C4.71526 2.09919 4.49485 2.18537 4.23633 2.18537ZM8.45845 6.46591V11H6.97195V3.36364H8.39879V4.60653H8.49325C8.66892 4.20218 8.94401 3.87737 9.31854 3.6321C9.69638 3.38684 10.172 3.2642 10.7454 3.2642C11.2657 3.2642 11.7215 3.37358 12.1126 3.59233C12.5037 3.80777 12.8069 4.12926 13.0224 4.55682C13.2378 4.98437 13.3455 5.51302 13.3455 6.14276V11H11.859V6.32173C11.859 5.76823 11.7148 5.3357 11.4265 5.02415C11.1381 4.70928 10.7421 4.55185 10.2383 4.55185C9.89358 4.55185 9.587 4.62642 9.31854 4.77557C9.05339 4.92472 8.84292 5.14347 8.68714 5.43182C8.53468 5.71686 8.45845 6.06155 8.45845 6.46591ZM16.7063 8.4098L16.6964 6.59517H16.9549L19.9975 3.36364H21.7773L18.3072 7.04261H18.0735L16.7063 8.4098ZM15.3391 11V0.818182H16.8256V11H15.3391ZM20.1616 11L17.4272 7.37074L18.4513 6.33168L21.9862 11H20.1616ZM27.1119 6.05327V7.34091H22.5977V6.05327H27.1119ZM32.6179 11.169C31.8324 11.1657 31.1612 10.9586 30.6044 10.5476C30.0476 10.1366 29.6217 9.53835 29.3267 8.75284C29.0317 7.96733 28.8842 7.02107 28.8842 5.91406C28.8842 4.81037 29.0317 3.86742 29.3267 3.08523C29.625 2.30303 30.0526 1.70644 30.6094 1.29545C31.1695 0.884469 31.839 0.678977 32.6179 0.678977C33.3968 0.678977 34.0646 0.886126 34.6214 1.30043C35.1783 1.71141 35.6042 2.308 35.8991 3.0902C36.1974 3.86908 36.3466 4.81037 36.3466 5.91406C36.3466 7.02438 36.1991 7.9723 35.9041 8.75781C35.6091 9.54001 35.1832 10.1383 34.6264 10.5526C34.0696 10.9635 33.4001 11.169 32.6179 11.169ZM32.6179 9.84162C33.3073 9.84162 33.8459 9.50521 34.2337 8.83239C34.6248 8.15956 34.8203 7.18679 34.8203 5.91406C34.8203 5.06889 34.7308 4.35464 34.5518 3.77131C34.3762 3.18466 34.1226 2.74053 33.7912 2.43892C33.4631 2.134 33.072 1.98153 32.6179 1.98153C31.9318 1.98153 31.3932 2.3196 31.0021 2.99574C30.611 3.67187 30.4138 4.64465 30.4105 5.91406C30.4105 6.76255 30.4983 7.48011 30.674 8.06676C30.853 8.65009 31.1065 9.09257 31.4347 9.39418C31.7628 9.69247 32.1572 9.84162 32.6179 9.84162ZM41.655 11.1392C40.9722 11.1392 40.3624 11.0215 39.8255 10.7862C39.2918 10.5509 38.8693 10.2244 38.5577 9.80682C38.2495 9.38589 38.0837 8.89867 38.0605 8.34517H39.6216C39.6415 8.64678 39.7426 8.90862 39.9249 9.13068C40.1105 9.34943 40.3525 9.51847 40.6507 9.63778C40.949 9.7571 41.2805 9.81676 41.6451 9.81676C42.0461 9.81676 42.4007 9.74716 42.709 9.60795C43.0205 9.46875 43.2641 9.27486 43.4398 9.02628C43.6155 8.77438 43.7033 8.48438 43.7033 8.15625C43.7033 7.81487 43.6155 7.51491 43.4398 7.25639C43.2675 6.99455 43.0139 6.78906 42.6792 6.63991C42.3477 6.49077 41.9467 6.41619 41.476 6.41619H40.6159V5.16335H41.476C41.8539 5.16335 42.1853 5.09541 42.4703 4.95952C42.7587 4.82363 42.9841 4.63471 43.1465 4.39276C43.3089 4.14749 43.3901 3.8608 43.3901 3.53267C43.3901 3.2178 43.3188 2.94437 43.1763 2.71236C43.0371 2.47704 42.8382 2.29309 42.5797 2.16051C42.3245 2.02794 42.0229 1.96165 41.6749 1.96165C41.3435 1.96165 41.0336 2.02296 40.7452 2.1456C40.4602 2.26491 40.2282 2.43726 40.0492 2.66264C39.8702 2.88471 39.7741 3.15151 39.7608 3.46307H38.2743C38.2909 2.91288 38.4533 2.42898 38.7615 2.01136C39.0731 1.59375 39.4841 1.26728 39.9945 1.03196C40.5049 0.796638 41.0717 0.678977 41.6948 0.678977C42.3477 0.678977 42.9112 0.806581 43.3851 1.06179C43.8624 1.31368 44.2303 1.65009 44.4888 2.07102C44.7507 2.49195 44.8799 2.95265 44.8766 3.45312C44.8799 4.0232 44.7208 4.5071 44.3993 4.90483C44.0811 5.30256 43.6569 5.56937 43.1266 5.70526V5.7848C43.8027 5.88755 44.3264 6.15601 44.6976 6.5902C45.0721 7.02438 45.2578 7.56297 45.2544 8.20597C45.2578 8.7661 45.102 9.26823 44.7871 9.71236C44.4756 10.1565 44.0497 10.5062 43.5094 10.7614C42.9692 11.0133 42.351 11.1392 41.655 11.1392Z" fill="black"/>
</svg>
