<svg width="68" height="12" viewBox="0 0 68 12" fill="none" xmlns="http://www.w3.org/2000/svg">
<path d="M0.99929 11V3.36364H2.4858V11H0.99929ZM1.75 2.18537C1.49148 2.18537 1.26941 2.09919 1.08381 1.92685C0.901515 1.75118 0.810369 1.54238 0.810369 1.30043C0.810369 1.05516 0.901515 0.846354 1.08381 0.674005C1.26941 0.498342 1.49148 0.410511 1.75 0.410511C2.00852 0.410511 2.22893 0.498342 2.41122 0.674005C2.59683 0.846354 2.68963 1.05516 2.68963 1.30043C2.68963 1.54238 2.59683 1.75118 2.41122 1.92685C2.22893 2.09919 2.00852 2.18537 1.75 2.18537ZM5.97212 6.46591V11H4.48562V3.36364H5.91246V4.60653H6.00692C6.18259 4.20218 6.45768 3.87737 6.83221 3.6321C7.21005 3.38684 7.68567 3.2642 8.25906 3.2642C8.77942 3.2642 9.23514 3.37358 9.62624 3.59233C10.0173 3.80777 10.3206 4.12926 10.536 4.55682C10.7515 4.98437 10.8592 5.51302 10.8592 6.14276V11H9.37269V6.32173C9.37269 5.76823 9.22852 5.3357 8.94016 5.02415C8.65181 4.70928 8.25574 4.55185 7.75195 4.55185C7.40726 4.55185 7.10067 4.62642 6.83221 4.77557C6.56706 4.92472 6.35659 5.14347 6.20082 5.43182C6.04835 5.71686 5.97212 6.06155 5.97212 6.46591ZM16.487 3.36364V4.55682H12.1717V3.36364H16.487ZM13.3549 11V2.47869C13.3549 2.00142 13.4593 1.60535 13.6681 1.29048C13.877 0.972301 14.1537 0.735322 14.4984 0.579545C14.8431 0.420454 15.2176 0.340908 15.622 0.340908C15.9203 0.340908 16.1755 0.365767 16.3876 0.415483C16.5997 0.461884 16.7572 0.504971 16.8599 0.544744L16.5119 1.74787C16.4423 1.72798 16.3528 1.70478 16.2434 1.67827C16.1341 1.64844 16.0015 1.63352 15.8457 1.63352C15.4844 1.63352 15.2259 1.72301 15.0701 1.90199C14.9177 2.08097 14.8414 2.33949 14.8414 2.67756V11H13.3549ZM20.9366 11.1541C20.2207 11.1541 19.5959 10.9901 19.0623 10.6619C18.5287 10.3338 18.1144 9.87476 17.8194 9.2848C17.5244 8.69484 17.377 8.00544 17.377 7.21662C17.377 6.42448 17.5244 5.73177 17.8194 5.13849C18.1144 4.54522 18.5287 4.08452 19.0623 3.75639C19.5959 3.42827 20.2207 3.2642 20.9366 3.2642C21.6525 3.2642 22.2773 3.42827 22.8109 3.75639C23.3445 4.08452 23.7588 4.54522 24.0538 5.13849C24.3488 5.73177 24.4963 6.42448 24.4963 7.21662C24.4963 8.00544 24.3488 8.69484 24.0538 9.2848C23.7588 9.87476 23.3445 10.3338 22.8109 10.6619C22.2773 10.9901 21.6525 11.1541 20.9366 11.1541ZM20.9416 9.90625C21.4056 9.90625 21.7901 9.78362 22.095 9.53835C22.3999 9.29309 22.6253 8.96662 22.7711 8.55895C22.9203 8.15128 22.9949 7.70218 22.9949 7.21165C22.9949 6.72443 22.9203 6.27699 22.7711 5.86932C22.6253 5.45833 22.3999 5.12855 22.095 4.87997C21.7901 4.63139 21.4056 4.5071 20.9416 4.5071C20.4743 4.5071 20.0865 4.63139 19.7782 4.87997C19.4733 5.12855 19.2463 5.45833 19.0971 5.86932C18.9513 6.27699 18.8784 6.72443 18.8784 7.21165C18.8784 7.70218 18.9513 8.15128 19.0971 8.55895C19.2463 8.96662 19.4733 9.29309 19.7782 9.53835C20.0865 9.78362 20.4743 9.90625 20.9416 9.90625ZM30.6548 6.05327V7.34091H26.1406V6.05327H30.6548ZM35.8526 11.1541C35.1135 11.1541 34.4772 10.9867 33.9435 10.652C33.4132 10.3139 33.0056 9.84825 32.7205 9.25497C32.4355 8.66169 32.293 7.98224 32.293 7.21662C32.293 6.44105 32.4388 5.75663 32.7305 5.16335C33.0221 4.56676 33.4331 4.10109 33.9634 3.76633C34.4937 3.43158 35.1185 3.2642 35.8377 3.2642C36.4177 3.2642 36.9348 3.37192 37.3888 3.58736C37.8429 3.79948 38.2092 4.09777 38.4876 4.48224C38.7693 4.86671 38.9367 5.31581 38.9897 5.82955H37.543C37.4634 5.47159 37.2811 5.16335 36.9961 4.90483C36.7144 4.64631 36.3365 4.51705 35.8626 4.51705C35.4483 4.51705 35.0853 4.62642 34.7738 4.84517C34.4656 5.06061 34.2253 5.36884 34.0529 5.76989C33.8806 6.16761 33.7944 6.63826 33.7944 7.18182C33.7944 7.73864 33.8789 8.21922 34.0479 8.62358C34.217 9.02794 34.4556 9.34115 34.7638 9.56321C35.0754 9.78527 35.4416 9.89631 35.8626 9.89631C36.1443 9.89631 36.3995 9.84493 36.6282 9.74219C36.8602 9.63613 37.0541 9.48532 37.2099 9.28977C37.369 9.09422 37.48 8.8589 37.543 8.58381H38.9897C38.9367 9.07765 38.7759 9.51847 38.5075 9.90625C38.239 10.294 37.8794 10.599 37.4286 10.821C36.9812 11.0431 36.4558 11.1541 35.8526 11.1541ZM40.5794 11V3.36364H42.0659V11H40.5794ZM41.3301 2.18537C41.0716 2.18537 40.8495 2.09919 40.6639 1.92685C40.4816 1.75118 40.3904 1.54238 40.3904 1.30043C40.3904 1.05516 40.4816 0.846354 40.6639 0.674005C40.8495 0.498342 41.0716 0.410511 41.3301 0.410511C41.5886 0.410511 41.809 0.498342 41.9913 0.674005C42.1769 0.846354 42.2697 1.05516 42.2697 1.30043C42.2697 1.54238 42.1769 1.75118 41.9913 1.92685C41.809 2.09919 41.5886 2.18537 41.3301 2.18537ZM44.0657 11V3.36364H45.5025V4.5767H45.582C45.7212 4.16572 45.9665 3.84257 46.3178 3.60724C46.6725 3.36861 47.0735 3.24929 47.521 3.24929C47.6138 3.24929 47.7231 3.2526 47.8491 3.25923C47.9783 3.26586 48.0794 3.27415 48.1523 3.28409V4.70597C48.0927 4.68939 47.9866 4.67116 47.8342 4.65128C47.6817 4.62808 47.5292 4.61648 47.3768 4.61648C47.0255 4.61648 46.7122 4.69105 46.4371 4.8402C46.1654 4.98603 45.9499 5.18987 45.7908 5.4517C45.6317 5.71023 45.5522 6.00521 45.5522 6.33665V11H44.0657ZM52.3819 11.1541C51.6428 11.1541 51.0065 10.9867 50.4728 10.652C49.9425 10.3139 49.5349 9.84825 49.2498 9.25497C48.9648 8.66169 48.8223 7.98224 48.8223 7.21662C48.8223 6.44105 48.9681 5.75663 49.2598 5.16335C49.5514 4.56676 49.9624 4.10109 50.4927 3.76633C51.023 3.43158 51.6478 3.2642 52.367 3.2642C52.947 3.2642 53.4641 3.37192 53.9181 3.58736C54.3722 3.79948 54.7385 4.09777 55.0169 4.48224C55.2986 4.86671 55.466 5.31581 55.519 5.82955H54.0723C53.9927 5.47159 53.8104 5.16335 53.5254 4.90483C53.2437 4.64631 52.8658 4.51705 52.3919 4.51705C51.9776 4.51705 51.6146 4.62642 51.3031 4.84517C50.9949 5.06061 50.7546 5.36884 50.5822 5.76989C50.4099 6.16761 50.3237 6.63826 50.3237 7.18182C50.3237 7.73864 50.4082 8.21922 50.5772 8.62358C50.7463 9.02794 50.9849 9.34115 51.2931 9.56321C51.6047 9.78527 51.9709 9.89631 52.3919 9.89631C52.6736 9.89631 52.9288 9.84493 53.1575 9.74219C53.3895 9.63613 53.5834 9.48532 53.7392 9.28977C53.8983 9.09422 54.0093 8.8589 54.0723 8.58381H55.519C55.466 9.07765 55.3052 9.51847 55.0368 9.90625C54.7683 10.294 54.4087 10.599 53.9579 10.821C53.5105 11.0431 52.9851 11.1541 52.3819 11.1541ZM58.5952 0.818182V11H57.1087V0.818182H58.5952ZM63.8862 11.1541C63.1338 11.1541 62.4859 10.9934 61.9423 10.6719C61.402 10.3471 60.9844 9.89134 60.6895 9.30469C60.3978 8.71473 60.252 8.02367 60.252 7.23153C60.252 6.44934 60.3978 5.75994 60.6895 5.16335C60.9844 4.56676 61.3954 4.10109 61.9224 3.76633C62.4527 3.43158 63.0725 3.2642 63.7818 3.2642C64.2127 3.2642 64.6303 3.33546 65.0346 3.47798C65.439 3.6205 65.8019 3.84422 66.1234 4.14915C66.4449 4.45407 66.6984 4.85014 66.8841 5.33736C67.0697 5.82126 67.1625 6.40956 67.1625 7.10227V7.62926H61.0922V6.51562H65.7058C65.7058 6.12453 65.6262 5.77817 65.4672 5.47656C65.3081 5.17164 65.0843 4.93134 64.796 4.75568C64.5109 4.58002 64.1762 4.49219 63.7917 4.49219C63.3741 4.49219 63.0095 4.59493 62.698 4.80043C62.3897 5.0026 62.1511 5.26776 61.9821 5.59588C61.8163 5.92069 61.7335 6.27367 61.7335 6.65483V7.52486C61.7335 8.03527 61.823 8.46946 62.002 8.82741C62.1842 9.18537 62.4378 9.45881 62.7626 9.64773C63.0874 9.83333 63.4669 9.92614 63.9011 9.92614C64.1828 9.92614 64.4397 9.88636 64.6717 9.80682C64.9037 9.72396 65.1042 9.60133 65.2733 9.43892C65.4423 9.27652 65.5716 9.07599 65.661 8.83736L67.068 9.09091C66.9553 9.50521 66.7531 9.86813 66.4615 10.1797C66.1731 10.4879 65.8102 10.7282 65.3727 10.9006C64.9385 11.0696 64.443 11.1541 63.8862 11.1541Z" fill="black"/>
</svg>
