<svg width="77" height="14" viewBox="0 0 77 14" fill="none" xmlns="http://www.w3.org/2000/svg">
<path d="M0.99929 11V3.36364H2.4858V11H0.99929ZM1.75 2.18537C1.49148 2.18537 1.26941 2.09919 1.08381 1.92685C0.901515 1.75118 0.810369 1.54238 0.810369 1.30043C0.810369 1.05516 0.901515 0.846354 1.08381 0.674005C1.26941 0.498342 1.49148 0.410511 1.75 0.410511C2.00852 0.410511 2.22893 0.498342 2.41122 0.674005C2.59683 0.846354 2.68963 1.05516 2.68963 1.30043C2.68963 1.54238 2.59683 1.75118 2.41122 1.92685C2.22893 2.09919 2.00852 2.18537 1.75 2.18537ZM5.97212 6.46591V11H4.48562V3.36364H5.91246V4.60653H6.00692C6.18259 4.20218 6.45768 3.87737 6.83221 3.6321C7.21005 3.38684 7.68567 3.2642 8.25906 3.2642C8.77942 3.2642 9.23514 3.37358 9.62624 3.59233C10.0173 3.80777 10.3206 4.12926 10.536 4.55682C10.7515 4.98437 10.8592 5.51302 10.8592 6.14276V11H9.37269V6.32173C9.37269 5.76823 9.22852 5.3357 8.94016 5.02415C8.65181 4.70928 8.25574 4.55185 7.75195 4.55185C7.40726 4.55185 7.10067 4.62642 6.83221 4.77557C6.56706 4.92472 6.35659 5.14347 6.20082 5.43182C6.04835 5.71686 5.97212 6.06155 5.97212 6.46591ZM16.487 3.36364V4.55682H12.1717V3.36364H16.487ZM13.3549 11V2.47869C13.3549 2.00142 13.4593 1.60535 13.6681 1.29048C13.877 0.972301 14.1537 0.735322 14.4984 0.579545C14.8431 0.420454 15.2176 0.340908 15.622 0.340908C15.9203 0.340908 16.1755 0.365767 16.3876 0.415483C16.5997 0.461884 16.7572 0.504971 16.8599 0.544744L16.5119 1.74787C16.4423 1.72798 16.3528 1.70478 16.2434 1.67827C16.1341 1.64844 16.0015 1.63352 15.8457 1.63352C15.4844 1.63352 15.2259 1.72301 15.0701 1.90199C14.9177 2.08097 14.8414 2.33949 14.8414 2.67756V11H13.3549ZM20.9366 11.1541C20.2207 11.1541 19.5959 10.9901 19.0623 10.6619C18.5287 10.3338 18.1144 9.87476 17.8194 9.2848C17.5244 8.69484 17.377 8.00544 17.377 7.21662C17.377 6.42448 17.5244 5.73177 17.8194 5.13849C18.1144 4.54522 18.5287 4.08452 19.0623 3.75639C19.5959 3.42827 20.2207 3.2642 20.9366 3.2642C21.6525 3.2642 22.2773 3.42827 22.8109 3.75639C23.3445 4.08452 23.7588 4.54522 24.0538 5.13849C24.3488 5.73177 24.4963 6.42448 24.4963 7.21662C24.4963 8.00544 24.3488 8.69484 24.0538 9.2848C23.7588 9.87476 23.3445 10.3338 22.8109 10.6619C22.2773 10.9901 21.6525 11.1541 20.9366 11.1541ZM20.9416 9.90625C21.4056 9.90625 21.7901 9.78362 22.095 9.53835C22.3999 9.29309 22.6253 8.96662 22.7711 8.55895C22.9203 8.15128 22.9949 7.70218 22.9949 7.21165C22.9949 6.72443 22.9203 6.27699 22.7711 5.86932C22.6253 5.45833 22.3999 5.12855 22.095 4.87997C21.7901 4.63139 21.4056 4.5071 20.9416 4.5071C20.4743 4.5071 20.0865 4.63139 19.7782 4.87997C19.4733 5.12855 19.2463 5.45833 19.0971 5.86932C18.9513 6.27699 18.8784 6.72443 18.8784 7.21165C18.8784 7.70218 18.9513 8.15128 19.0971 8.55895C19.2463 8.96662 19.4733 9.29309 19.7782 9.53835C20.0865 9.78362 20.4743 9.90625 20.9416 9.90625ZM30.6548 6.05327V7.34091H26.1406V6.05327H30.6548ZM38.3583 5.22798L37.011 5.46662C36.9547 5.29427 36.8652 5.13021 36.7425 4.97443C36.6232 4.81865 36.4608 4.69105 36.2553 4.59162C36.0498 4.49219 35.793 4.44247 35.4847 4.44247C35.0638 4.44247 34.7125 4.53693 34.4308 4.72585C34.149 4.91146 34.0082 5.15175 34.0082 5.44673C34.0082 5.70194 34.1026 5.90743 34.2915 6.06321C34.4805 6.21899 34.7854 6.34659 35.2063 6.44602L36.4194 6.72443C37.122 6.88684 37.6457 7.13707 37.9904 7.47514C38.3351 7.81321 38.5075 8.25237 38.5075 8.79261C38.5075 9.25 38.3749 9.65767 38.1097 10.0156C37.8479 10.3703 37.4817 10.6487 37.011 10.8509C36.5437 11.053 36.0018 11.1541 35.3853 11.1541C34.5302 11.1541 33.8325 10.9718 33.2923 10.6072C32.752 10.2393 32.4206 9.71733 32.2979 9.04119L33.7347 8.82244C33.8242 9.19697 34.0082 9.48035 34.2866 9.67259C34.565 9.86151 34.9279 9.95597 35.3754 9.95597C35.8626 9.95597 36.252 9.85488 36.5437 9.6527C36.8353 9.44721 36.9812 9.19697 36.9812 8.90199C36.9812 8.66335 36.8917 8.46283 36.7127 8.30043C36.5371 8.13802 36.2669 8.01539 35.9023 7.93253L34.6097 7.64915C33.8971 7.48674 33.3701 7.22822 33.0288 6.87358C32.6907 6.51894 32.5217 6.06984 32.5217 5.52628C32.5217 5.07552 32.6476 4.68111 32.8995 4.34304C33.1514 4.00497 33.4994 3.74148 33.9435 3.55256C34.3877 3.36032 34.8964 3.2642 35.4698 3.2642C36.2951 3.2642 36.9447 3.44318 37.4187 3.80114C37.8926 4.15578 38.2058 4.63139 38.3583 5.22798ZM45.2974 13.8636V9.81179H45.2079C45.1184 9.9742 44.9892 10.1598 44.8201 10.3686C44.6544 10.5774 44.4257 10.7597 44.1341 10.9155C43.8424 11.0713 43.4645 11.1491 43.0005 11.1491C42.3841 11.1491 41.8339 10.9917 41.35 10.6768C40.8694 10.3587 40.4915 9.90625 40.2164 9.3196C39.9447 8.72964 39.8088 8.02202 39.8088 7.19673C39.8088 6.37145 39.9463 5.66548 40.2214 5.07884C40.4998 4.49219 40.881 4.04309 41.3649 3.73153C41.8488 3.41998 42.3973 3.2642 43.0105 3.2642C43.4844 3.2642 43.8656 3.34375 44.1539 3.50284C44.4456 3.65862 44.671 3.84091 44.8301 4.04972C44.9925 4.25852 45.1184 4.44247 45.2079 4.60156H45.3322V3.36364H46.7839V13.8636H45.2974ZM43.3287 9.88139C43.7562 9.88139 44.1175 9.7687 44.4125 9.54332C44.7108 9.31463 44.9361 8.99811 45.0886 8.59375C45.2444 8.18939 45.3223 7.71875 45.3223 7.18182C45.3223 6.65151 45.246 6.1875 45.0936 5.78977C44.9411 5.39205 44.7174 5.08215 44.4224 4.86009C44.1274 4.63802 43.7628 4.52699 43.3287 4.52699C42.8812 4.52699 42.5083 4.64299 42.21 4.875C41.9118 5.10701 41.6864 5.42353 41.5339 5.82457C41.3848 6.22562 41.3102 6.67803 41.3102 7.18182C41.3102 7.69223 41.3864 8.15128 41.5389 8.55895C41.6913 8.96662 41.9167 9.28977 42.215 9.52841C42.5166 9.76373 42.8878 9.88139 43.3287 9.88139ZM53.6199 7.8331V3.36364H55.1113V11H53.6497V9.67756H53.5701C53.3945 10.0852 53.1127 10.425 52.725 10.6967C52.3405 10.9652 51.8616 11.0994 51.2882 11.0994C50.7976 11.0994 50.3635 10.9917 49.9856 10.7763C49.6111 10.5575 49.3161 10.2344 49.1007 9.80682C48.8886 9.37926 48.7825 8.85062 48.7825 8.22088V3.36364H50.269V8.0419C50.269 8.56226 50.4132 8.97656 50.7015 9.2848C50.9899 9.59304 51.3644 9.74716 51.8251 9.74716C52.1035 9.74716 52.3803 9.67756 52.6554 9.53835C52.9338 9.39915 53.1641 9.18868 53.3464 8.90696C53.532 8.62524 53.6232 8.26728 53.6199 7.8331ZM59.331 11.169C58.8471 11.169 58.4096 11.0795 58.0185 10.9006C57.6274 10.7183 57.3175 10.4548 57.0888 10.1101C56.8634 9.76539 56.7507 9.3428 56.7507 8.84233C56.7507 8.41146 56.8336 8.05682 56.9993 7.77841C57.165 7.5 57.3887 7.27959 57.6705 7.11719C57.9522 6.95478 58.267 6.83215 58.6151 6.74929C58.9631 6.66643 59.3177 6.60346 59.679 6.56037C60.1364 6.50734 60.5076 6.46425 60.7926 6.43111C61.0777 6.39465 61.2848 6.33665 61.4141 6.2571C61.5433 6.17756 61.608 6.0483 61.608 5.86932V5.83452C61.608 5.40033 61.4853 5.06392 61.2401 4.82528C60.9981 4.58665 60.6368 4.46733 60.1562 4.46733C59.6558 4.46733 59.2614 4.57836 58.973 4.80043C58.688 5.01918 58.4908 5.26278 58.3814 5.53125L56.9844 5.21307C57.1501 4.74905 57.392 4.37453 57.7102 4.08949C58.0317 3.80114 58.4013 3.59233 58.8189 3.46307C59.2365 3.33049 59.6757 3.2642 60.1364 3.2642C60.4413 3.2642 60.7644 3.30066 61.1058 3.37358C61.4505 3.44318 61.772 3.57244 62.0703 3.76136C62.3719 3.95028 62.6188 4.22041 62.8111 4.57173C63.0033 4.91974 63.0994 5.37216 63.0994 5.92898V11H61.6477V9.95597H61.5881C61.492 10.1482 61.3478 10.3371 61.1555 10.5227C60.9633 10.7083 60.7164 10.8625 60.4148 10.9851C60.1132 11.1077 59.7519 11.169 59.331 11.169ZM59.6541 9.97585C60.0651 9.97585 60.4164 9.89465 60.7081 9.73224C61.0031 9.56984 61.2268 9.35772 61.3793 9.09588C61.535 8.83073 61.6129 8.54735 61.6129 8.24574V7.26136C61.5599 7.31439 61.4571 7.36411 61.3047 7.41051C61.1555 7.4536 60.9848 7.49171 60.7926 7.52486C60.6004 7.55469 60.4131 7.58286 60.2308 7.60938C60.0485 7.63258 59.8961 7.65246 59.7734 7.66903C59.4851 7.70549 59.2216 7.76681 58.983 7.85298C58.7476 7.93916 58.5587 8.06345 58.4162 8.22585C58.277 8.38494 58.2074 8.59706 58.2074 8.86222C58.2074 9.23011 58.3433 9.50852 58.6151 9.69744C58.8868 9.88305 59.2332 9.97585 59.6541 9.97585ZM65.0794 11V3.36364H66.5162V4.5767H66.5957C66.7349 4.16572 66.9802 3.84257 67.3315 3.60724C67.6861 3.36861 68.0872 3.24929 68.5346 3.24929C68.6274 3.24929 68.7368 3.2526 68.8627 3.25923C68.992 3.26586 69.0931 3.27415 69.166 3.28409V4.70597C69.1064 4.68939 69.0003 4.67116 68.8478 4.65128C68.6954 4.62808 68.5429 4.61648 68.3904 4.61648C68.0391 4.61648 67.7259 4.69105 67.4508 4.8402C67.179 4.98603 66.9636 5.18987 66.8045 5.4517C66.6454 5.71023 66.5659 6.00521 66.5659 6.33665V11H65.0794ZM73.4702 11.1541C72.7178 11.1541 72.0698 10.9934 71.5263 10.6719C70.986 10.3471 70.5684 9.89134 70.2734 9.30469C69.9818 8.71473 69.8359 8.02367 69.8359 7.23153C69.8359 6.44934 69.9818 5.75994 70.2734 5.16335C70.5684 4.56676 70.9794 4.10109 71.5064 3.76633C72.0367 3.43158 72.6565 3.2642 73.3658 3.2642C73.7966 3.2642 74.2143 3.33546 74.6186 3.47798C75.023 3.6205 75.3859 3.84422 75.7074 4.14915C76.0289 4.45407 76.2824 4.85014 76.468 5.33736C76.6536 5.82126 76.7464 6.40956 76.7464 7.10227V7.62926H70.6761V6.51562H75.2898C75.2898 6.12453 75.2102 5.77817 75.0511 5.47656C74.892 5.17164 74.6683 4.93134 74.38 4.75568C74.0949 4.58002 73.7602 4.49219 73.3757 4.49219C72.9581 4.49219 72.5935 4.59493 72.282 4.80043C71.9737 5.0026 71.7351 5.26776 71.5661 5.59588C71.4003 5.92069 71.3175 6.27367 71.3175 6.65483V7.52486C71.3175 8.03527 71.407 8.46946 71.5859 8.82741C71.7682 9.18537 72.0218 9.45881 72.3466 9.64773C72.6714 9.83333 73.0509 9.92614 73.4851 9.92614C73.7668 9.92614 74.0237 9.88636 74.2557 9.80682C74.4877 9.72396 74.6882 9.60133 74.8572 9.43892C75.0263 9.27652 75.1555 9.07599 75.245 8.83736L76.652 9.09091C76.5393 9.50521 76.3371 9.86813 76.0455 10.1797C75.7571 10.4879 75.3942 10.7282 74.9567 10.9006C74.5225 11.0696 74.027 11.1541 73.4702 11.1541Z" fill="black"/>
</svg>
