<svg width="69" height="14" viewBox="0 0 69 14" fill="none" xmlns="http://www.w3.org/2000/svg">
<path d="M4.83665 7.8331V3.36364H6.32812V11H4.86648V9.67756H4.78693C4.61127 10.0852 4.32955 10.425 3.94176 10.6967C3.55729 10.9652 3.07836 11.0994 2.50497 11.0994C2.01444 11.0994 1.58026 10.9917 1.20241 10.7763C0.827888 10.5575 0.532907 10.2344 0.317472 9.80682C0.10535 9.37926 -0.000710189 8.85062 -0.000710189 8.22088V3.36364H1.4858V8.0419C1.4858 8.56226 1.62997 8.97656 1.91832 9.2848C2.20668 9.59304 2.5812 9.74716 3.0419 9.74716C3.32031 9.74716 3.59706 9.67756 3.87216 9.53835C4.15057 9.39915 4.38092 9.18868 4.56321 8.90696C4.74882 8.62524 4.83996 8.26728 4.83665 7.8331ZM8.32546 13.8636V3.36364H9.77717V4.60156H9.90146C9.98763 4.44247 10.1119 4.25852 10.2743 4.04972C10.4367 3.84091 10.6621 3.65862 10.9505 3.50284C11.2388 3.34375 11.62 3.2642 12.0939 3.2642C12.7104 3.2642 13.2606 3.41998 13.7445 3.73153C14.2284 4.04309 14.6079 4.49219 14.883 5.07884C15.1614 5.66548 15.3006 6.37145 15.3006 7.19673C15.3006 8.02202 15.1631 8.72964 14.888 9.3196C14.6129 9.90625 14.235 10.3587 13.7544 10.6768C13.2739 10.9917 12.7253 11.1491 12.1088 11.1491C11.6448 11.1491 11.2653 11.0713 10.9703 10.9155C10.6787 10.7597 10.45 10.5774 10.2843 10.3686C10.1185 10.1598 9.99094 9.9742 9.90146 9.81179H9.81197V13.8636H8.32546ZM9.78214 7.18182C9.78214 7.71875 9.86003 8.18939 10.0158 8.59375C10.1716 8.99811 10.397 9.31463 10.6919 9.54332C10.9869 9.7687 11.3482 9.88139 11.7757 9.88139C12.2199 9.88139 12.5911 9.76373 12.8894 9.52841C13.1877 9.28977 13.4131 8.96662 13.5655 8.55895C13.7213 8.15128 13.7992 7.69223 13.7992 7.18182C13.7992 6.67803 13.723 6.22562 13.5705 5.82457C13.4213 5.42353 13.196 5.10701 12.8944 4.875C12.5961 4.64299 12.2232 4.52699 11.7757 4.52699C11.3449 4.52699 10.9803 4.63802 10.682 4.86009C10.387 5.08215 10.1633 5.39205 10.0108 5.78977C9.85837 6.1875 9.78214 6.65151 9.78214 7.18182ZM18.4526 0.818182V11H16.9661V0.818182H18.4526ZM23.669 11.1541C22.9531 11.1541 22.3284 10.9901 21.7947 10.6619C21.2611 10.3338 20.8468 9.87476 20.5518 9.2848C20.2569 8.69484 20.1094 8.00544 20.1094 7.21662C20.1094 6.42448 20.2569 5.73177 20.5518 5.13849C20.8468 4.54522 21.2611 4.08452 21.7947 3.75639C22.3284 3.42827 22.9531 3.2642 23.669 3.2642C24.3849 3.2642 25.0097 3.42827 25.5433 3.75639C26.0769 4.08452 26.4912 4.54522 26.7862 5.13849C27.0812 5.73177 27.2287 6.42448 27.2287 7.21662C27.2287 8.00544 27.0812 8.69484 26.7862 9.2848C26.4912 9.87476 26.0769 10.3338 25.5433 10.6619C25.0097 10.9901 24.3849 11.1541 23.669 11.1541ZM23.674 9.90625C24.138 9.90625 24.5225 9.78362 24.8274 9.53835C25.1323 9.29309 25.3577 8.96662 25.5036 8.55895C25.6527 8.15128 25.7273 7.70218 25.7273 7.21165C25.7273 6.72443 25.6527 6.27699 25.5036 5.86932C25.3577 5.45833 25.1323 5.12855 24.8274 4.87997C24.5225 4.63139 24.138 4.5071 23.674 4.5071C23.2067 4.5071 22.8189 4.63139 22.5107 4.87997C22.2057 5.12855 21.9787 5.45833 21.8295 5.86932C21.6837 6.27699 21.6108 6.72443 21.6108 7.21165C21.6108 7.70218 21.6837 8.15128 21.8295 8.55895C21.9787 8.96662 22.2057 9.29309 22.5107 9.53835C22.8189 9.78362 23.2067 9.90625 23.674 9.90625ZM31.1103 11.169C30.6264 11.169 30.1889 11.0795 29.7978 10.9006C29.4067 10.7183 29.0968 10.4548 28.8681 10.1101C28.6427 9.76539 28.53 9.3428 28.53 8.84233C28.53 8.41146 28.6129 8.05682 28.7786 7.77841C28.9443 7.5 29.168 7.27959 29.4498 7.11719C29.7315 6.95478 30.0463 6.83215 30.3944 6.74929C30.7424 6.66643 31.097 6.60346 31.4583 6.56037C31.9157 6.50734 32.2869 6.46425 32.5719 6.43111C32.8569 6.39465 33.0641 6.33665 33.1934 6.2571C33.3226 6.17756 33.3873 6.0483 33.3873 5.86932V5.83452C33.3873 5.40033 33.2646 5.06392 33.0194 4.82528C32.7774 4.58665 32.4161 4.46733 31.9355 4.46733C31.4351 4.46733 31.0407 4.57836 30.7523 4.80043C30.4673 5.01918 30.2701 5.26278 30.1607 5.53125L28.7637 5.21307C28.9294 4.74905 29.1713 4.37453 29.4895 4.08949C29.811 3.80114 30.1806 3.59233 30.5982 3.46307C31.0158 3.33049 31.455 3.2642 31.9157 3.2642C32.2206 3.2642 32.5437 3.30066 32.8851 3.37358C33.2298 3.44318 33.5513 3.57244 33.8496 3.76136C34.1512 3.95028 34.3981 4.22041 34.5904 4.57173C34.7826 4.91974 34.8787 5.37216 34.8787 5.92898V11H33.427V9.95597H33.3674C33.2712 10.1482 33.1271 10.3371 32.9348 10.5227C32.7426 10.7083 32.4957 10.8625 32.1941 10.9851C31.8925 11.1077 31.5312 11.169 31.1103 11.169ZM31.4334 9.97585C31.8444 9.97585 32.1957 9.89465 32.4874 9.73224C32.7824 9.56984 33.0061 9.35772 33.1586 9.09588C33.3143 8.83073 33.3922 8.54735 33.3922 8.24574V7.26136C33.3392 7.31439 33.2364 7.36411 33.084 7.41051C32.9348 7.4536 32.7641 7.49171 32.5719 7.52486C32.3797 7.55469 32.1924 7.58286 32.0101 7.60938C31.8278 7.63258 31.6754 7.65246 31.5527 7.66903C31.2644 7.70549 31.0009 7.76681 30.7623 7.85298C30.5269 7.93916 30.338 8.06345 30.1955 8.22585C30.0563 8.38494 29.9867 8.59706 29.9867 8.86222C29.9867 9.23011 30.1226 9.50852 30.3944 9.69744C30.6661 9.88305 31.0125 9.97585 31.4334 9.97585ZM39.7173 11.1491C39.1009 11.1491 38.5507 10.9917 38.0668 10.6768C37.5862 10.3587 37.2083 9.90625 36.9332 9.3196C36.6615 8.72964 36.5256 8.02202 36.5256 7.19673C36.5256 6.37145 36.6631 5.66548 36.9382 5.07884C37.2166 4.49219 37.5978 4.04309 38.0817 3.73153C38.5656 3.41998 39.1141 3.2642 39.7273 3.2642C40.2012 3.2642 40.5824 3.34375 40.8707 3.50284C41.1624 3.65862 41.3878 3.84091 41.5469 4.04972C41.7093 4.25852 41.8352 4.44247 41.9247 4.60156H42.0142V0.818182H43.5007V11H42.049V9.81179H41.9247C41.8352 9.9742 41.706 10.1598 41.5369 10.3686C41.3712 10.5774 41.1425 10.7597 40.8509 10.9155C40.5592 11.0713 40.1813 11.1491 39.7173 11.1491ZM40.0455 9.88139C40.473 9.88139 40.8343 9.7687 41.1293 9.54332C41.4276 9.31463 41.6529 8.99811 41.8054 8.59375C41.9612 8.18939 42.0391 7.71875 42.0391 7.18182C42.0391 6.65151 41.9628 6.1875 41.8104 5.78977C41.6579 5.39205 41.4342 5.08215 41.1392 4.86009C40.8442 4.63802 40.4796 4.52699 40.0455 4.52699C39.598 4.52699 39.2251 4.64299 38.9268 4.875C38.6286 5.10701 38.4032 5.42353 38.2507 5.82457C38.1016 6.22562 38.027 6.67803 38.027 7.18182C38.027 7.69223 38.1032 8.15128 38.2557 8.55895C38.4081 8.96662 38.6335 9.28977 38.9318 9.52841C39.2334 9.76373 39.6046 9.88139 40.0455 9.88139ZM50.1216 6.05327V7.34091H45.6074V6.05327H50.1216ZM55.6277 11.169C54.8422 11.1657 54.171 10.9586 53.6142 10.5476C53.0574 10.1366 52.6315 9.53835 52.3365 8.75284C52.0415 7.96733 51.894 7.02107 51.894 5.91406C51.894 4.81037 52.0415 3.86742 52.3365 3.08523C52.6348 2.30303 53.0623 1.70644 53.6191 1.29545C54.1793 0.884469 54.8488 0.678977 55.6277 0.678977C56.4065 0.678977 57.0744 0.886126 57.6312 1.30043C58.188 1.71141 58.6139 2.308 58.9089 3.0902C59.2072 3.86908 59.3564 4.81037 59.3564 5.91406C59.3564 7.02438 59.2089 7.9723 58.9139 8.75781C58.6189 9.54001 58.193 10.1383 57.6362 10.5526C57.0794 10.9635 56.4099 11.169 55.6277 11.169ZM55.6277 9.84162C56.3171 9.84162 56.8556 9.50521 57.2434 8.83239C57.6345 8.15956 57.8301 7.18679 57.8301 5.91406C57.8301 5.06889 57.7406 4.35464 57.5616 3.77131C57.3859 3.18466 57.1324 2.74053 56.801 2.43892C56.4728 2.134 56.0817 1.98153 55.6277 1.98153C54.9416 1.98153 54.403 2.3196 54.0119 2.99574C53.6208 3.67187 53.4236 4.64465 53.4203 5.91406C53.4203 6.76255 53.5081 7.48011 53.6838 8.06676C53.8627 8.65009 54.1163 9.09257 54.4444 9.39418C54.7725 9.69247 55.167 9.84162 55.6277 9.84162ZM60.9062 9.01136V7.76847L65.3061 0.818182H66.2855V2.64773H65.6641L62.517 7.62926V7.70881H68.5476V9.01136H60.9062ZM65.7337 11V8.63352L65.7436 8.06676V0.818182H67.2003V11H65.7337Z" fill="black"/>
</svg>
