<svg width="64" height="15" viewBox="0 0 64 15" fill="none" xmlns="http://www.w3.org/2000/svg">
<path d="M4.56392 3.36364V4.55682H0.392756V3.36364H4.56392ZM1.51136 1.53409H2.99787V8.75781C2.99787 9.04616 3.04096 9.26326 3.12713 9.40909C3.21331 9.55161 3.32434 9.64938 3.46023 9.70241C3.59943 9.75213 3.75024 9.77699 3.91264 9.77699C4.03196 9.77699 4.13636 9.7687 4.22585 9.75213C4.31534 9.73556 4.38494 9.7223 4.43466 9.71236L4.70312 10.9403C4.61695 10.9735 4.49432 11.0066 4.33523 11.0398C4.17614 11.0762 3.97727 11.0961 3.73864 11.0994C3.34754 11.1061 2.98295 11.0365 2.64489 10.8906C2.30682 10.7448 2.03338 10.5194 1.82457 10.2145C1.61577 9.90956 1.51136 9.52675 1.51136 9.06605V1.53409ZM8.43058 11.169C7.94667 11.169 7.50917 11.0795 7.11808 10.9006C6.72698 10.7183 6.41708 10.4548 6.18839 10.1101C5.96301 9.76539 5.85032 9.3428 5.85032 8.84233C5.85032 8.41146 5.93318 8.05682 6.0989 7.77841C6.26462 7.5 6.48834 7.27959 6.77006 7.11719C7.05179 6.95478 7.36665 6.83215 7.71467 6.74929C8.06268 6.66643 8.41732 6.60346 8.77859 6.56037C9.23597 6.50734 9.60719 6.46425 9.89222 6.43111C10.1773 6.39465 10.3844 6.33665 10.5137 6.2571C10.6429 6.17756 10.7076 6.0483 10.7076 5.86932V5.83452C10.7076 5.40033 10.5849 5.06392 10.3397 4.82528C10.0977 4.58665 9.73645 4.46733 9.25586 4.46733C8.75539 4.46733 8.36097 4.57836 8.07262 4.80043C7.78758 5.01918 7.59038 5.26278 7.481 5.53125L6.08398 5.21307C6.2497 4.74905 6.49165 4.37453 6.80984 4.08949C7.13133 3.80114 7.50089 3.59233 7.9185 3.46307C8.33612 3.33049 8.77527 3.2642 9.23597 3.2642C9.5409 3.2642 9.86405 3.30066 10.2054 3.37358C10.5501 3.44318 10.8716 3.57244 11.1699 3.76136C11.4715 3.95028 11.7185 4.22041 11.9107 4.57173C12.1029 4.91974 12.199 5.37216 12.199 5.92898V11H10.7473V9.95597H10.6877C10.5916 10.1482 10.4474 10.3371 10.2551 10.5227C10.0629 10.7083 9.81599 10.8625 9.51438 10.9851C9.21277 11.1077 8.8515 11.169 8.43058 11.169ZM8.75373 9.97585C9.16471 9.97585 9.51604 9.89465 9.80771 9.73224C10.1027 9.56984 10.3264 9.35772 10.4789 9.09588C10.6346 8.83073 10.7125 8.54735 10.7125 8.24574V7.26136C10.6595 7.31439 10.5568 7.36411 10.4043 7.41051C10.2551 7.4536 10.0845 7.49171 9.89222 7.52486C9.69999 7.55469 9.51273 7.58286 9.33043 7.60938C9.14814 7.63258 8.99568 7.65246 8.87305 7.66903C8.58469 7.70549 8.3212 7.76681 8.08256 7.85298C7.84724 7.93916 7.65832 8.06345 7.5158 8.22585C7.3766 8.38494 7.307 8.59706 7.307 8.86222C7.307 9.23011 7.44289 9.50852 7.71467 9.69744C7.98645 9.88305 8.3328 9.97585 8.75373 9.97585ZM14.179 11V3.36364H15.6158V4.5767H15.6953C15.8345 4.16572 16.0798 3.84257 16.4311 3.60724C16.7857 3.36861 17.1868 3.24929 17.6342 3.24929C17.727 3.24929 17.8364 3.2526 17.9624 3.25923C18.0916 3.26586 18.1927 3.27415 18.2656 3.28409V4.70597C18.206 4.68939 18.0999 4.67116 17.9474 4.65128C17.795 4.62808 17.6425 4.61648 17.4901 4.61648C17.1387 4.61648 16.8255 4.69105 16.5504 4.8402C16.2786 4.98603 16.0632 5.18987 15.9041 5.4517C15.745 5.71023 15.6655 6.00521 15.6655 6.33665V11H14.179ZM22.4803 14.0227C21.8738 14.0227 21.3517 13.9432 20.9142 13.7841C20.4801 13.625 20.1254 13.4145 19.8503 13.1527C19.5752 12.8909 19.3697 12.6042 19.2338 12.2926L20.5115 11.7656C20.601 11.9115 20.7203 12.0656 20.8695 12.228C21.022 12.3937 21.2275 12.5346 21.486 12.6506C21.7478 12.7666 22.0842 12.8246 22.4952 12.8246C23.0587 12.8246 23.5243 12.687 23.8922 12.4119C24.2601 12.1402 24.4441 11.706 24.4441 11.1094V9.60795H24.3496C24.2601 9.77036 24.1309 9.95099 23.9618 10.1499C23.7961 10.3487 23.5674 10.5211 23.2757 10.6669C22.9841 10.8127 22.6046 10.8857 22.1373 10.8857C21.534 10.8857 20.9905 10.7448 20.5066 10.4631C20.026 10.178 19.6448 9.75876 19.3631 9.20526C19.0847 8.64844 18.9455 7.96401 18.9455 7.15199C18.9455 6.33996 19.083 5.64394 19.3581 5.06392C19.6365 4.4839 20.0177 4.03977 20.5016 3.73153C20.9855 3.41998 21.534 3.2642 22.1472 3.2642C22.6212 3.2642 23.004 3.34375 23.2956 3.50284C23.5873 3.65862 23.8143 3.84091 23.9767 4.04972C24.1425 4.25852 24.2701 4.44247 24.3596 4.60156H24.4689V3.36364H25.9256V11.169C25.9256 11.8253 25.7731 12.3639 25.4682 12.7848C25.1633 13.2057 24.7507 13.5173 24.2303 13.7195C23.7132 13.9216 23.1299 14.0227 22.4803 14.0227ZM22.4654 9.6527C22.8929 9.6527 23.2542 9.55327 23.5492 9.3544C23.8475 9.15223 24.0729 8.86387 24.2253 8.48935C24.3811 8.11151 24.459 7.65909 24.459 7.1321C24.459 6.61837 24.3828 6.16596 24.2303 5.77486C24.0778 5.38376 23.8541 5.07884 23.5591 4.86009C23.2641 4.63802 22.8996 4.52699 22.4654 4.52699C22.0179 4.52699 21.6451 4.64299 21.3468 4.875C21.0485 5.10369 20.8231 5.41525 20.6706 5.80966C20.5215 6.20407 20.4469 6.64489 20.4469 7.1321C20.4469 7.63258 20.5231 8.07173 20.6756 8.44957C20.8281 8.82741 21.0534 9.1224 21.3517 9.33452C21.6533 9.54664 22.0246 9.6527 22.4654 9.6527ZM31.2104 11.1541C30.458 11.1541 29.8101 10.9934 29.2665 10.6719C28.7263 10.3471 28.3087 9.89134 28.0137 9.30469C27.722 8.71473 27.5762 8.02367 27.5762 7.23153C27.5762 6.44934 27.722 5.75994 28.0137 5.16335C28.3087 4.56676 28.7196 4.10109 29.2466 3.76633C29.7769 3.43158 30.3967 3.2642 31.106 3.2642C31.5369 3.2642 31.9545 3.33546 32.3588 3.47798C32.7632 3.6205 33.1261 3.84422 33.4476 4.14915C33.7691 4.45407 34.0227 4.85014 34.2083 5.33736C34.3939 5.82126 34.4867 6.40956 34.4867 7.10227V7.62926H28.4164V6.51562H33.03C33.03 6.12453 32.9505 5.77817 32.7914 5.47656C32.6323 5.17164 32.4086 4.93134 32.1202 4.75568C31.8352 4.58002 31.5004 4.49219 31.1159 4.49219C30.6983 4.49219 30.3337 4.59493 30.0222 4.80043C29.714 5.0026 29.4753 5.26776 29.3063 5.59588C29.1406 5.92069 29.0577 6.27367 29.0577 6.65483V7.52486C29.0577 8.03527 29.1472 8.46946 29.3262 8.82741C29.5085 9.18537 29.762 9.45881 30.0868 9.64773C30.4116 9.83333 30.7911 9.92614 31.2253 9.92614C31.507 9.92614 31.7639 9.88636 31.9959 9.80682C32.2279 9.72396 32.4284 9.60133 32.5975 9.43892C32.7665 9.27652 32.8958 9.07599 32.9853 8.83736L34.3922 9.09091C34.2795 9.50521 34.0774 9.86813 33.7857 10.1797C33.4973 10.4879 33.1344 10.7282 32.6969 10.9006C32.2627 11.0696 31.7672 11.1541 31.2104 11.1541ZM39.7006 3.36364V4.55682H35.5295V3.36364H39.7006ZM36.6481 1.53409H38.1346V8.75781C38.1346 9.04616 38.1777 9.26326 38.2638 9.40909C38.35 9.55161 38.4611 9.64938 38.5969 9.70241C38.7362 9.75213 38.887 9.77699 39.0494 9.77699C39.1687 9.77699 39.2731 9.7687 39.3626 9.75213C39.4521 9.73556 39.5217 9.7223 39.5714 9.71236L39.8398 10.9403C39.7537 10.9735 39.631 11.0066 39.4719 11.0398C39.3129 11.0762 39.114 11.0961 38.8754 11.0994C38.4843 11.1061 38.1197 11.0365 37.7816 10.8906C37.4435 10.7448 37.1701 10.5194 36.9613 10.2145C36.7525 9.90956 36.6481 9.52675 36.6481 9.06605V1.53409ZM45.5845 6.05327V7.34091H41.0703V6.05327H45.5845ZM51.0906 11.169C50.305 11.1657 49.6339 10.9586 49.0771 10.5476C48.5202 10.1366 48.0943 9.53835 47.7994 8.75284C47.5044 7.96733 47.3569 7.02107 47.3569 5.91406C47.3569 4.81037 47.5044 3.86742 47.7994 3.08523C48.0977 2.30303 48.5252 1.70644 49.082 1.29545C49.6422 0.884469 50.3117 0.678977 51.0906 0.678977C51.8694 0.678977 52.5373 0.886126 53.0941 1.30043C53.6509 1.71141 54.0768 2.308 54.3718 3.0902C54.6701 3.86908 54.8192 4.81037 54.8192 5.91406C54.8192 7.02438 54.6718 7.9723 54.3768 8.75781C54.0818 9.54001 53.6559 10.1383 53.0991 10.5526C52.5423 10.9635 51.8728 11.169 51.0906 11.169ZM51.0906 9.84162C51.7799 9.84162 52.3185 9.50521 52.7063 8.83239C53.0974 8.15956 53.293 7.18679 53.293 5.91406C53.293 5.06889 53.2035 4.35464 53.0245 3.77131C52.8488 3.18466 52.5953 2.74053 52.2638 2.43892C51.9357 2.134 51.5446 1.98153 51.0906 1.98153C50.4045 1.98153 49.8659 2.3196 49.4748 2.99574C49.0837 3.67187 48.8865 4.64465 48.8832 5.91406C48.8832 6.76255 48.971 7.48011 49.1467 8.06676C49.3256 8.65009 49.5792 9.09257 49.9073 9.39418C50.2354 9.69247 50.6299 9.84162 51.0906 9.84162ZM56.5829 11V9.88636L60.0282 6.31676C60.3961 5.92898 60.6994 5.58925 60.938 5.29759C61.18 5.0026 61.3606 4.72254 61.4799 4.45739C61.5993 4.19223 61.6589 3.91051 61.6589 3.61222C61.6589 3.27415 61.5794 2.98248 61.4203 2.73722C61.2612 2.48864 61.0441 2.29806 60.769 2.16548C60.4939 2.02959 60.184 1.96165 59.8393 1.96165C59.4747 1.96165 59.1565 2.03622 58.8848 2.18537C58.613 2.33452 58.4042 2.54498 58.2583 2.81676C58.1125 3.08854 58.0396 3.40672 58.0396 3.77131H56.573C56.573 3.15151 56.7155 2.60961 57.0005 2.1456C57.2856 1.68158 57.6767 1.32197 58.1738 1.06676C58.671 0.808238 59.2361 0.678977 59.8691 0.678977C60.5088 0.678977 61.0723 0.806581 61.5595 1.06179C62.05 1.31368 62.4328 1.65838 62.7079 2.09588C62.983 2.53007 63.1206 3.0206 63.1206 3.56747C63.1206 3.94531 63.0493 4.31487 62.9068 4.67614C62.7676 5.0374 62.524 5.4401 62.176 5.88423C61.8279 6.32505 61.344 6.86032 60.7243 7.49006L58.7008 9.60795V9.68253H63.2846V11H56.5829Z" fill="black"/>
</svg>
