<svg width="135" height="12" viewBox="0 0 135 12" fill="none" xmlns="http://www.w3.org/2000/svg">
<path d="M4.21591 11.1541C3.4768 11.1541 2.84044 10.9867 2.30682 10.652C1.77652 10.3139 1.36884 9.84825 1.08381 9.25497C0.798769 8.66169 0.65625 7.98224 0.65625 7.21662C0.65625 6.44105 0.802083 5.75663 1.09375 5.16335C1.38542 4.56676 1.7964 4.10109 2.3267 3.76633C2.85701 3.43158 3.48177 3.2642 4.20099 3.2642C4.78101 3.2642 5.29806 3.37192 5.75213 3.58736C6.2062 3.79948 6.57244 4.09777 6.85085 4.48224C7.13258 4.86671 7.29995 5.31581 7.35298 5.82955H5.90625C5.8267 5.47159 5.64441 5.16335 5.35938 4.90483C5.07765 4.64631 4.69981 4.51705 4.22585 4.51705C3.81155 4.51705 3.44863 4.62642 3.13707 4.84517C2.82884 5.06061 2.58854 5.36884 2.41619 5.76989C2.24384 6.16761 2.15767 6.63826 2.15767 7.18182C2.15767 7.73864 2.24219 8.21922 2.41122 8.62358C2.58026 9.02794 2.81889 9.34115 3.12713 9.56321C3.43868 9.78527 3.80492 9.89631 4.22585 9.89631C4.50758 9.89631 4.76278 9.84493 4.99148 9.74219C5.22349 9.63613 5.41738 9.48532 5.57315 9.28977C5.73224 9.09422 5.84328 8.8589 5.90625 8.58381H7.35298C7.29995 9.07765 7.1392 9.51847 6.87074 9.90625C6.60227 10.294 6.24266 10.599 5.7919 10.821C5.34446 11.0431 4.81913 11.1541 4.21591 11.1541ZM10.4292 6.46591V11H8.94265V0.818182H10.4093V4.60653H10.5037C10.6827 4.19555 10.9561 3.86908 11.324 3.62713C11.6919 3.38518 12.1725 3.2642 12.7658 3.2642C13.2895 3.2642 13.7469 3.37192 14.138 3.58736C14.5324 3.80279 14.8373 4.12429 15.0527 4.55185C15.2715 4.97609 15.3809 5.50639 15.3809 6.14276V11H13.8944V6.32173C13.8944 5.7616 13.7502 5.32741 13.4618 5.01918C13.1735 4.70762 12.7724 4.55185 12.2587 4.55185C11.9074 4.55185 11.5925 4.62642 11.3141 4.77557C11.039 4.92472 10.8219 5.14347 10.6628 5.43182C10.507 5.71686 10.4292 6.06155 10.4292 6.46591ZM20.6557 11.1541C19.9033 11.1541 19.2554 10.9934 18.7118 10.6719C18.1716 10.3471 17.754 9.89134 17.459 9.30469C17.1673 8.71473 17.0215 8.02367 17.0215 7.23153C17.0215 6.44934 17.1673 5.75994 17.459 5.16335C17.754 4.56676 18.165 4.10109 18.6919 3.76633C19.2222 3.43158 19.842 3.2642 20.5513 3.2642C20.9822 3.2642 21.3998 3.33546 21.8042 3.47798C22.2085 3.6205 22.5714 3.84422 22.8929 4.14915C23.2144 4.45407 23.468 4.85014 23.6536 5.33736C23.8392 5.82126 23.932 6.40956 23.932 7.10227V7.62926H17.8617V6.51562H22.4753C22.4753 6.12453 22.3958 5.77817 22.2367 5.47656C22.0776 5.17164 21.8539 4.93134 21.5655 4.75568C21.2805 4.58002 20.9457 4.49219 20.5613 4.49219C20.1436 4.49219 19.7791 4.59493 19.4675 4.80043C19.1593 5.0026 18.9206 5.26776 18.7516 5.59588C18.5859 5.92069 18.503 6.27367 18.503 6.65483V7.52486C18.503 8.03527 18.5925 8.46946 18.7715 8.82741C18.9538 9.18537 19.2073 9.45881 19.5321 9.64773C19.8569 9.83333 20.2364 9.92614 20.6706 9.92614C20.9524 9.92614 21.2092 9.88636 21.4412 9.80682C21.6732 9.72396 21.8738 9.60133 22.0428 9.43892C22.2118 9.27652 22.3411 9.07599 22.4306 8.83736L23.8375 9.09091C23.7248 9.50521 23.5227 9.86813 23.231 10.1797C22.9426 10.4879 22.5797 10.7282 22.1422 10.9006C21.708 11.0696 21.2125 11.1541 20.6557 11.1541ZM28.7979 11.1541C28.0588 11.1541 27.4225 10.9867 26.8888 10.652C26.3585 10.3139 25.9509 9.84825 25.6658 9.25497C25.3808 8.66169 25.2383 7.98224 25.2383 7.21662C25.2383 6.44105 25.3841 5.75663 25.6758 5.16335C25.9674 4.56676 26.3784 4.10109 26.9087 3.76633C27.439 3.43158 28.0638 3.2642 28.783 3.2642C29.363 3.2642 29.8801 3.37192 30.3342 3.58736C30.7882 3.79948 31.1545 4.09777 31.4329 4.48224C31.7146 4.86671 31.882 5.31581 31.935 5.82955H30.4883C30.4087 5.47159 30.2264 5.16335 29.9414 4.90483C29.6597 4.64631 29.2818 4.51705 28.8079 4.51705C28.3936 4.51705 28.0307 4.62642 27.7191 4.84517C27.4109 5.06061 27.1706 5.36884 26.9982 5.76989C26.8259 6.16761 26.7397 6.63826 26.7397 7.18182C26.7397 7.73864 26.8242 8.21922 26.9933 8.62358C27.1623 9.02794 27.4009 9.34115 27.7092 9.56321C28.0207 9.78527 28.387 9.89631 28.8079 9.89631C29.0896 9.89631 29.3448 9.84493 29.5735 9.74219C29.8055 9.63613 29.9994 9.48532 30.1552 9.28977C30.3143 9.09422 30.4253 8.8589 30.4883 8.58381H31.935C31.882 9.07765 31.7212 9.51847 31.4528 9.90625C31.1843 10.294 30.8247 10.599 30.3739 10.821C29.9265 11.0431 29.4012 11.1541 28.7979 11.1541ZM34.8919 8.4098L34.8819 6.59517H35.1404L38.1831 3.36364H39.9629L36.4927 7.04261H36.2591L34.8919 8.4098ZM33.5247 11V0.818182H35.0112V11H33.5247ZM38.3471 11L35.6127 7.37074L36.6369 6.33168L40.1717 11H38.3471ZM45.2974 6.05327V7.34091H40.7832V6.05327H45.2974ZM50.4952 11.1541C49.7561 11.1541 49.1197 10.9867 48.5861 10.652C48.0558 10.3139 47.6481 9.84825 47.3631 9.25497C47.0781 8.66169 46.9355 7.98224 46.9355 7.21662C46.9355 6.44105 47.0814 5.75663 47.373 5.16335C47.6647 4.56676 48.0757 4.10109 48.606 3.76633C49.1363 3.43158 49.7611 3.2642 50.4803 3.2642C51.0603 3.2642 51.5774 3.37192 52.0314 3.58736C52.4855 3.79948 52.8517 4.09777 53.1301 4.48224C53.4119 4.86671 53.5792 5.31581 53.6323 5.82955H52.1855C52.106 5.47159 51.9237 5.16335 51.6387 4.90483C51.3569 4.64631 50.9791 4.51705 50.5051 4.51705C50.0909 4.51705 49.7279 4.62642 49.4164 4.84517C49.1081 5.06061 48.8678 5.36884 48.6955 5.76989C48.5231 6.16761 48.437 6.63826 48.437 7.18182C48.437 7.73864 48.5215 8.21922 48.6905 8.62358C48.8596 9.02794 49.0982 9.34115 49.4064 9.56321C49.718 9.78527 50.0842 9.89631 50.5051 9.89631C50.7869 9.89631 51.0421 9.84493 51.2708 9.74219C51.5028 9.63613 51.6967 9.48532 51.8525 9.28977C52.0115 9.09422 52.1226 8.8589 52.1855 8.58381H53.6323C53.5792 9.07765 53.4185 9.51847 53.15 9.90625C52.8816 10.294 52.522 10.599 52.0712 10.821C51.6238 11.0431 51.0984 11.1541 50.4952 11.1541ZM55.2219 11V3.36364H56.7085V11H55.2219ZM55.9727 2.18537C55.7141 2.18537 55.4921 2.09919 55.3065 1.92685C55.1242 1.75118 55.033 1.54238 55.033 1.30043C55.033 1.05516 55.1242 0.846354 55.3065 0.674005C55.4921 0.498342 55.7141 0.410511 55.9727 0.410511C56.2312 0.410511 56.4516 0.498342 56.6339 0.674005C56.8195 0.846354 56.9123 1.05516 56.9123 1.30043C56.9123 1.54238 56.8195 1.75118 56.6339 1.92685C56.4516 2.09919 56.2312 2.18537 55.9727 2.18537ZM58.7083 11V3.36364H60.1451V4.5767H60.2246C60.3638 4.16572 60.6091 3.84257 60.9604 3.60724C61.315 3.36861 61.7161 3.24929 62.1635 3.24929C62.2563 3.24929 62.3657 3.2526 62.4917 3.25923C62.6209 3.26586 62.722 3.27415 62.7949 3.28409V4.70597C62.7353 4.68939 62.6292 4.67116 62.4767 4.65128C62.3243 4.62808 62.1718 4.61648 62.0194 4.61648C61.668 4.61648 61.3548 4.69105 61.0797 4.8402C60.8079 4.98603 60.5925 5.18987 60.4334 5.4517C60.2743 5.71023 60.1948 6.00521 60.1948 6.33665V11H58.7083ZM67.0245 11.1541C66.2854 11.1541 65.649 10.9867 65.1154 10.652C64.5851 10.3139 64.1774 9.84825 63.8924 9.25497C63.6074 8.66169 63.4648 7.98224 63.4648 7.21662C63.4648 6.44105 63.6107 5.75663 63.9023 5.16335C64.194 4.56676 64.605 4.10109 65.1353 3.76633C65.6656 3.43158 66.2904 3.2642 67.0096 3.2642C67.5896 3.2642 68.1067 3.37192 68.5607 3.58736C69.0148 3.79948 69.381 4.09777 69.6594 4.48224C69.9412 4.86671 70.1085 5.31581 70.1616 5.82955H68.7148C68.6353 5.47159 68.453 5.16335 68.168 4.90483C67.8862 4.64631 67.5084 4.51705 67.0344 4.51705C66.6201 4.51705 66.2572 4.62642 65.9457 4.84517C65.6374 5.06061 65.3971 5.36884 65.2248 5.76989C65.0524 6.16761 64.9663 6.63826 64.9663 7.18182C64.9663 7.73864 65.0508 8.21922 65.2198 8.62358C65.3888 9.02794 65.6275 9.34115 65.9357 9.56321C66.2473 9.78527 66.6135 9.89631 67.0344 9.89631C67.3162 9.89631 67.5714 9.84493 67.8001 9.74219C68.0321 9.63613 68.226 9.48532 68.3817 9.28977C68.5408 9.09422 68.6519 8.8589 68.7148 8.58381H70.1616C70.1085 9.07765 69.9478 9.51847 69.6793 9.90625C69.4109 10.294 69.0513 10.599 68.6005 10.821C68.1531 11.0431 67.6277 11.1541 67.0245 11.1541ZM73.2377 0.818182V11H71.7512V0.818182H73.2377ZM78.5288 11.1541C77.7764 11.1541 77.1284 10.9934 76.5849 10.6719C76.0446 10.3471 75.627 9.89134 75.332 9.30469C75.0404 8.71473 74.8945 8.02367 74.8945 7.23153C74.8945 6.44934 75.0404 5.75994 75.332 5.16335C75.627 4.56676 76.038 4.10109 76.565 3.76633C77.0953 3.43158 77.7151 3.2642 78.4244 3.2642C78.8552 3.2642 79.2728 3.33546 79.6772 3.47798C80.0816 3.6205 80.4445 3.84422 80.766 4.14915C81.0875 4.45407 81.341 4.85014 81.5266 5.33736C81.7122 5.82126 81.805 6.40956 81.805 7.10227V7.62926H75.7347V6.51562H80.3484C80.3484 6.12453 80.2688 5.77817 80.1097 5.47656C79.9506 5.17164 79.7269 4.93134 79.4386 4.75568C79.1535 4.58002 78.8188 4.49219 78.4343 4.49219C78.0167 4.49219 77.6521 4.59493 77.3406 4.80043C77.0323 5.0026 76.7937 5.26776 76.6246 5.59588C76.4589 5.92069 76.3761 6.27367 76.3761 6.65483V7.52486C76.3761 8.03527 76.4656 8.46946 76.6445 8.82741C76.8268 9.18537 77.0804 9.45881 77.4052 9.64773C77.73 9.83333 78.1095 9.92614 78.5437 9.92614C78.8254 9.92614 79.0823 9.88636 79.3143 9.80682C79.5463 9.72396 79.7468 9.60133 79.9158 9.43892C80.0849 9.27652 80.2141 9.07599 80.3036 8.83736L81.7106 9.09091C81.5979 9.50521 81.3957 9.86813 81.104 10.1797C80.8157 10.4879 80.4528 10.7282 80.0153 10.9006C79.5811 11.0696 79.0856 11.1541 78.5288 11.1541ZM87.9537 6.05327V7.34091H83.4395V6.05327H87.9537ZM90.0542 11V0.818182H91.5407V4.60156H91.6301C91.7163 4.44247 91.8406 4.25852 92.003 4.04972C92.1654 3.84091 92.3908 3.65862 92.6792 3.50284C92.9675 3.34375 93.3487 3.2642 93.8226 3.2642C94.4391 3.2642 94.9893 3.41998 95.4732 3.73153C95.9571 4.04309 96.3366 4.49219 96.6117 5.07884C96.8901 5.66548 97.0293 6.37145 97.0293 7.19673C97.0293 8.02202 96.8917 8.72964 96.6167 9.3196C96.3416 9.90625 95.9637 10.3587 95.4831 10.6768C95.0025 10.9917 94.454 11.1491 93.8375 11.1491C93.3735 11.1491 92.994 11.0713 92.699 10.9155C92.4074 10.7597 92.1787 10.5774 92.013 10.3686C91.8472 10.1598 91.7196 9.9742 91.6301 9.81179H91.5059V11H90.0542ZM91.5108 7.18182C91.5108 7.71875 91.5887 8.18939 91.7445 8.59375C91.9003 8.99811 92.1257 9.31463 92.4206 9.54332C92.7156 9.7687 93.0769 9.88139 93.5044 9.88139C93.9486 9.88139 94.3198 9.76373 94.6181 9.52841C94.9164 9.28977 95.1417 8.96662 95.2942 8.55895C95.45 8.15128 95.5279 7.69223 95.5279 7.18182C95.5279 6.67803 95.4516 6.22562 95.2992 5.82457C95.15 5.42353 94.9247 5.10701 94.623 4.875C94.3248 4.64299 93.9519 4.52699 93.5044 4.52699C93.0736 4.52699 92.709 4.63802 92.4107 4.86009C92.1157 5.08215 91.892 5.39205 91.7395 5.78977C91.5871 6.1875 91.5108 6.65151 91.5108 7.18182ZM98.6985 11V3.36364H100.135V4.5767H100.215C100.354 4.16572 100.599 3.84257 100.951 3.60724C101.305 3.36861 101.706 3.24929 102.154 3.24929C102.247 3.24929 102.356 3.2526 102.482 3.25923C102.611 3.26586 102.712 3.27415 102.785 3.28409V4.70597C102.725 4.68939 102.619 4.67116 102.467 4.65128C102.315 4.62808 102.162 4.61648 102.01 4.61648C101.658 4.61648 101.345 4.69105 101.07 4.8402C100.798 4.98603 100.583 5.18987 100.424 5.4517C100.265 5.71023 100.185 6.00521 100.185 6.33665V11H98.6985ZM107.015 11.1541C106.299 11.1541 105.674 10.9901 105.14 10.6619C104.607 10.3338 104.193 9.87476 103.898 9.2848C103.603 8.69484 103.455 8.00544 103.455 7.21662C103.455 6.42448 103.603 5.73177 103.898 5.13849C104.193 4.54522 104.607 4.08452 105.14 3.75639C105.674 3.42827 106.299 3.2642 107.015 3.2642C107.731 3.2642 108.355 3.42827 108.889 3.75639C109.423 4.08452 109.837 4.54522 110.132 5.13849C110.427 5.73177 110.574 6.42448 110.574 7.21662C110.574 8.00544 110.427 8.69484 110.132 9.2848C109.837 9.87476 109.423 10.3338 108.889 10.6619C108.355 10.9901 107.731 11.1541 107.015 11.1541ZM107.02 9.90625C107.484 9.90625 107.868 9.78362 108.173 9.53835C108.478 9.29309 108.703 8.96662 108.849 8.55895C108.998 8.15128 109.073 7.70218 109.073 7.21165C109.073 6.72443 108.998 6.27699 108.849 5.86932C108.703 5.45833 108.478 5.12855 108.173 4.87997C107.868 4.63139 107.484 4.5071 107.02 4.5071C106.552 4.5071 106.165 4.63139 105.856 4.87997C105.551 5.12855 105.324 5.45833 105.175 5.86932C105.029 6.27699 104.956 6.72443 104.956 7.21165C104.956 7.70218 105.029 8.15128 105.175 8.55895C105.324 8.96662 105.551 9.29309 105.856 9.53835C106.165 9.78362 106.552 9.90625 107.02 9.90625ZM113.601 8.4098L113.591 6.59517H113.849L116.892 3.36364H118.672L115.202 7.04261H114.968L113.601 8.4098ZM112.234 11V0.818182H113.72V11H112.234ZM117.056 11L114.322 7.37074L115.346 6.33168L118.881 11H117.056ZM123.003 11.1541C122.251 11.1541 121.603 10.9934 121.059 10.6719C120.519 10.3471 120.102 9.89134 119.807 9.30469C119.515 8.71473 119.369 8.02367 119.369 7.23153C119.369 6.44934 119.515 5.75994 119.807 5.16335C120.102 4.56676 120.513 4.10109 121.04 3.76633C121.57 3.43158 122.19 3.2642 122.899 3.2642C123.33 3.2642 123.747 3.33546 124.152 3.47798C124.556 3.6205 124.919 3.84422 125.241 4.14915C125.562 4.45407 125.816 4.85014 126.001 5.33736C126.187 5.82126 126.28 6.40956 126.28 7.10227V7.62926H120.209V6.51562H124.823C124.823 6.12453 124.743 5.77817 124.584 5.47656C124.425 5.17164 124.202 4.93134 123.913 4.75568C123.628 4.58002 123.293 4.49219 122.909 4.49219C122.491 4.49219 122.127 4.59493 121.815 4.80043C121.507 5.0026 121.268 5.26776 121.099 5.59588C120.934 5.92069 120.851 6.27367 120.851 6.65483V7.52486C120.851 8.03527 120.94 8.46946 121.119 8.82741C121.301 9.18537 121.555 9.45881 121.88 9.64773C122.205 9.83333 122.584 9.92614 123.018 9.92614C123.3 9.92614 123.557 9.88636 123.789 9.80682C124.021 9.72396 124.221 9.60133 124.39 9.43892C124.559 9.27652 124.689 9.07599 124.778 8.83736L126.185 9.09091C126.073 9.50521 125.87 9.86813 125.579 10.1797C125.29 10.4879 124.927 10.7282 124.49 10.9006C124.056 11.0696 123.56 11.1541 123.003 11.1541ZM129.415 6.46591V11H127.929V3.36364H129.356V4.60653H129.45C129.626 4.20218 129.901 3.87737 130.276 3.6321C130.653 3.38684 131.129 3.2642 131.702 3.2642C132.223 3.2642 132.679 3.37358 133.07 3.59233C133.461 3.80777 133.764 4.12926 133.979 4.55682C134.195 4.98437 134.303 5.51302 134.303 6.14276V11H132.816V6.32173C132.816 5.76823 132.672 5.3357 132.384 5.02415C132.095 4.70928 131.699 4.55185 131.195 4.55185C130.851 4.55185 130.544 4.62642 130.276 4.77557C130.01 4.92472 129.8 5.14347 129.644 5.43182C129.492 5.71686 129.415 6.06155 129.415 6.46591Z" fill="black"/>
</svg>
