<svg width="95" height="15" viewBox="0 0 95 15" fill="none" xmlns="http://www.w3.org/2000/svg">
<path d="M1.4858 6.46591V11H-0.000710189V0.818182H1.46591V4.60653H1.56037C1.73935 4.19555 2.01278 3.86908 2.38068 3.62713C2.74858 3.38518 3.22917 3.2642 3.82244 3.2642C4.34612 3.2642 4.8035 3.37192 5.1946 3.58736C5.58902 3.80279 5.89394 4.12429 6.10938 4.55185C6.32812 4.97609 6.4375 5.50639 6.4375 6.14276V11H4.95099V6.32173C4.95099 5.7616 4.80682 5.32741 4.51847 5.01918C4.23011 4.70762 3.82907 4.55185 3.31534 4.55185C2.96402 4.55185 2.64915 4.62642 2.37074 4.77557C2.09564 4.92472 1.87855 5.14347 1.71946 5.43182C1.56368 5.71686 1.4858 6.06155 1.4858 6.46591ZM11.7124 11.1541C10.96 11.1541 10.312 10.9934 9.76847 10.6719C9.22822 10.3471 8.81061 9.89134 8.51562 9.30469C8.22396 8.71473 8.07812 8.02367 8.07812 7.23153C8.07812 6.44934 8.22396 5.75994 8.51562 5.16335C8.81061 4.56676 9.22159 4.10109 9.74858 3.76633C10.2789 3.43158 10.8987 3.2642 11.608 3.2642C12.0388 3.2642 12.4564 3.33546 12.8608 3.47798C13.2652 3.6205 13.6281 3.84422 13.9496 4.14915C14.2711 4.45407 14.5246 4.85014 14.7102 5.33736C14.8958 5.82126 14.9886 6.40956 14.9886 7.10227V7.62926H8.91832V6.51562H13.532C13.532 6.12453 13.4524 5.77817 13.2933 5.47656C13.1342 5.17164 12.9105 4.93134 12.6222 4.75568C12.3371 4.58002 12.0024 4.49219 11.6179 4.49219C11.2003 4.49219 10.8357 4.59493 10.5241 4.80043C10.2159 5.0026 9.97727 5.26776 9.80824 5.59588C9.64252 5.92069 9.55966 6.27367 9.55966 6.65483V7.52486C9.55966 8.03527 9.64915 8.46946 9.82812 8.82741C10.0104 9.18537 10.264 9.45881 10.5888 9.64773C10.9136 9.83333 11.2931 9.92614 11.7273 9.92614C12.009 9.92614 12.2659 9.88636 12.4979 9.80682C12.7299 9.72396 12.9304 9.60133 13.0994 9.43892C13.2685 9.27652 13.3977 9.07599 13.4872 8.83736L14.8942 9.09091C14.7815 9.50521 14.5793 9.86813 14.2876 10.1797C13.9993 10.4879 13.6364 10.7282 13.1989 10.9006C12.7647 11.0696 12.2692 11.1541 11.7124 11.1541ZM18.8603 11.169C18.3764 11.169 17.9389 11.0795 17.5478 10.9006C17.1567 10.7183 16.8468 10.4548 16.6181 10.1101C16.3927 9.76539 16.28 9.3428 16.28 8.84233C16.28 8.41146 16.3629 8.05682 16.5286 7.77841C16.6943 7.5 16.918 7.27959 17.1998 7.11719C17.4815 6.95478 17.7963 6.83215 18.1444 6.74929C18.4924 6.66643 18.847 6.60346 19.2083 6.56037C19.6657 6.50734 20.0369 6.46425 20.3219 6.43111C20.6069 6.39465 20.8141 6.33665 20.9434 6.2571C21.0726 6.17756 21.1373 6.0483 21.1373 5.86932V5.83452C21.1373 5.40033 21.0146 5.06392 20.7694 4.82528C20.5274 4.58665 20.1661 4.46733 19.6855 4.46733C19.1851 4.46733 18.7907 4.57836 18.5023 4.80043C18.2173 5.01918 18.0201 5.26278 17.9107 5.53125L16.5137 5.21307C16.6794 4.74905 16.9213 4.37453 17.2395 4.08949C17.561 3.80114 17.9306 3.59233 18.3482 3.46307C18.7658 3.33049 19.205 3.2642 19.6657 3.2642C19.9706 3.2642 20.2937 3.30066 20.6351 3.37358C20.9798 3.44318 21.3013 3.57244 21.5996 3.76136C21.9012 3.95028 22.1481 4.22041 22.3404 4.57173C22.5326 4.91974 22.6287 5.37216 22.6287 5.92898V11H21.177V9.95597H21.1174C21.0212 10.1482 20.8771 10.3371 20.6848 10.5227C20.4926 10.7083 20.2457 10.8625 19.9441 10.9851C19.6425 11.1077 19.2812 11.169 18.8603 11.169ZM19.1834 9.97585C19.5944 9.97585 19.9457 9.89465 20.2374 9.73224C20.5324 9.56984 20.7561 9.35772 20.9086 9.09588C21.0643 8.83073 21.1422 8.54735 21.1422 8.24574V7.26136C21.0892 7.31439 20.9864 7.36411 20.834 7.41051C20.6848 7.4536 20.5141 7.49171 20.3219 7.52486C20.1297 7.55469 19.9424 7.58286 19.7601 7.60938C19.5778 7.63258 19.4254 7.65246 19.3027 7.66903C19.0144 7.70549 18.7509 7.76681 18.5123 7.85298C18.2769 7.93916 18.088 8.06345 17.9455 8.22585C17.8063 8.38494 17.7367 8.59706 17.7367 8.86222C17.7367 9.23011 17.8726 9.50852 18.1444 9.69744C18.4161 9.88305 18.7625 9.97585 19.1834 9.97585ZM24.6087 11V3.36364H26.0455V4.5767H26.125C26.2642 4.16572 26.5095 3.84257 26.8608 3.60724C27.2154 3.36861 27.6165 3.24929 28.0639 3.24929C28.1567 3.24929 28.2661 3.2526 28.392 3.25923C28.5213 3.26586 28.6224 3.27415 28.6953 3.28409V4.70597C28.6357 4.68939 28.5296 4.67116 28.3771 4.65128C28.2247 4.62808 28.0722 4.61648 27.9197 4.61648C27.5684 4.61648 27.2552 4.69105 26.9801 4.8402C26.7083 4.98603 26.4929 5.18987 26.3338 5.4517C26.1747 5.71023 26.0952 6.00521 26.0952 6.33665V11H24.6087ZM33.9975 3.36364V4.55682H29.8263V3.36364H33.9975ZM30.945 1.53409H32.4315V8.75781C32.4315 9.04616 32.4746 9.26326 32.5607 9.40909C32.6469 9.55161 32.7579 9.64938 32.8938 9.70241C33.033 9.75213 33.1838 9.77699 33.3462 9.77699C33.4656 9.77699 33.57 9.7687 33.6594 9.75213C33.7489 9.73556 33.8185 9.7223 33.8683 9.71236L34.1367 10.9403C34.0505 10.9735 33.9279 11.0066 33.7688 11.0398C33.6097 11.0762 33.4109 11.0961 33.1722 11.0994C32.7811 11.1061 32.4165 11.0365 32.0785 10.8906C31.7404 10.7448 31.467 10.5194 31.2582 10.2145C31.0494 9.90956 30.945 9.52675 30.945 9.06605V1.53409ZM39.8814 6.05327V7.34091H35.3672V6.05327H39.8814ZM45.0792 11.1541C44.3633 11.1541 43.7385 10.9901 43.2049 10.6619C42.6713 10.3338 42.257 9.87476 41.962 9.2848C41.667 8.69484 41.5195 8.00544 41.5195 7.21662C41.5195 6.42448 41.667 5.73177 41.962 5.13849C42.257 4.54522 42.6713 4.08452 43.2049 3.75639C43.7385 3.42827 44.3633 3.2642 45.0792 3.2642C45.7951 3.2642 46.4199 3.42827 46.9535 3.75639C47.4871 4.08452 47.9014 4.54522 48.1964 5.13849C48.4914 5.73177 48.6388 6.42448 48.6388 7.21662C48.6388 8.00544 48.4914 8.69484 48.1964 9.2848C47.9014 9.87476 47.4871 10.3338 46.9535 10.6619C46.4199 10.9901 45.7951 11.1541 45.0792 11.1541ZM45.0842 9.90625C45.5482 9.90625 45.9326 9.78362 46.2376 9.53835C46.5425 9.29309 46.7679 8.96662 46.9137 8.55895C47.0629 8.15128 47.1374 7.70218 47.1374 7.21165C47.1374 6.72443 47.0629 6.27699 46.9137 5.86932C46.7679 5.45833 46.5425 5.12855 46.2376 4.87997C45.9326 4.63139 45.5482 4.5071 45.0842 4.5071C44.6168 4.5071 44.229 4.63139 43.9208 4.87997C43.6159 5.12855 43.3888 5.45833 43.2397 5.86932C43.0939 6.27699 43.021 6.72443 43.021 7.21165C43.021 7.70218 43.0939 8.15128 43.2397 8.55895C43.3888 8.96662 43.6159 9.29309 43.9208 9.53835C44.229 9.78362 44.6168 9.90625 45.0842 9.90625ZM53.5147 11.1541C52.7756 11.1541 52.1393 10.9867 51.6056 10.652C51.0753 10.3139 50.6677 9.84825 50.3826 9.25497C50.0976 8.66169 49.9551 7.98224 49.9551 7.21662C49.9551 6.44105 50.1009 5.75663 50.3926 5.16335C50.6842 4.56676 51.0952 4.10109 51.6255 3.76633C52.1558 3.43158 52.7806 3.2642 53.4998 3.2642C54.0798 3.2642 54.5969 3.37192 55.051 3.58736C55.505 3.79948 55.8713 4.09777 56.1497 4.48224C56.4314 4.86671 56.5988 5.31581 56.6518 5.82955H55.2051C55.1255 5.47159 54.9432 5.16335 54.6582 4.90483C54.3765 4.64631 53.9986 4.51705 53.5247 4.51705C53.1104 4.51705 52.7475 4.62642 52.4359 4.84517C52.1277 5.06061 51.8874 5.36884 51.715 5.76989C51.5427 6.16761 51.4565 6.63826 51.4565 7.18182C51.4565 7.73864 51.541 8.21922 51.71 8.62358C51.8791 9.02794 52.1177 9.34115 52.426 9.56321C52.7375 9.78527 53.1038 9.89631 53.5247 9.89631C53.8064 9.89631 54.0616 9.84493 54.2903 9.74219C54.5223 9.63613 54.7162 9.48532 54.872 9.28977C55.0311 9.09422 55.1421 8.8589 55.2051 8.58381H56.6518C56.5988 9.07765 56.438 9.51847 56.1696 9.90625C55.9011 10.294 55.5415 10.599 55.0907 10.821C54.6433 11.0431 54.118 11.1541 53.5147 11.1541ZM61.8061 3.36364V4.55682H57.6349V3.36364H61.8061ZM58.7536 1.53409H60.2401V8.75781C60.2401 9.04616 60.2831 9.26326 60.3693 9.40909C60.4555 9.55161 60.5665 9.64938 60.7024 9.70241C60.8416 9.75213 60.9924 9.77699 61.1548 9.77699C61.2741 9.77699 61.3786 9.7687 61.468 9.75213C61.5575 9.73556 61.6271 9.7223 61.6768 9.71236L61.9453 10.9403C61.8591 10.9735 61.7365 11.0066 61.5774 11.0398C61.4183 11.0762 61.2195 11.0961 60.9808 11.0994C60.5897 11.1061 60.2251 11.0365 59.8871 10.8906C59.549 10.7448 59.2756 10.5194 59.0668 10.2145C58.858 9.90956 58.7536 9.52675 58.7536 9.06605V1.53409ZM65.6728 11.169C65.1889 11.169 64.7514 11.0795 64.3603 10.9006C63.9692 10.7183 63.6593 10.4548 63.4306 10.1101C63.2052 9.76539 63.0925 9.3428 63.0925 8.84233C63.0925 8.41146 63.1754 8.05682 63.3411 7.77841C63.5068 7.5 63.7305 7.27959 64.0123 7.11719C64.294 6.95478 64.6088 6.83215 64.9569 6.74929C65.3049 6.66643 65.6595 6.60346 66.0208 6.56037C66.4782 6.50734 66.8494 6.46425 67.1344 6.43111C67.4194 6.39465 67.6266 6.33665 67.7559 6.2571C67.8851 6.17756 67.9498 6.0483 67.9498 5.86932V5.83452C67.9498 5.40033 67.8271 5.06392 67.5819 4.82528C67.3399 4.58665 66.9786 4.46733 66.498 4.46733C65.9976 4.46733 65.6032 4.57836 65.3148 4.80043C65.0298 5.01918 64.8326 5.26278 64.7232 5.53125L63.3262 5.21307C63.4919 4.74905 63.7338 4.37453 64.052 4.08949C64.3735 3.80114 64.7431 3.59233 65.1607 3.46307C65.5783 3.33049 66.0175 3.2642 66.4782 3.2642C66.7831 3.2642 67.1062 3.30066 67.4476 3.37358C67.7923 3.44318 68.1138 3.57244 68.4121 3.76136C68.7137 3.95028 68.9606 4.22041 69.1529 4.57173C69.3451 4.91974 69.4412 5.37216 69.4412 5.92898V11H67.9895V9.95597H67.9299C67.8337 10.1482 67.6896 10.3371 67.4973 10.5227C67.3051 10.7083 67.0582 10.8625 66.7566 10.9851C66.455 11.1077 66.0937 11.169 65.6728 11.169ZM65.9959 9.97585C66.4069 9.97585 66.7582 9.89465 67.0499 9.73224C67.3449 9.56984 67.5686 9.35772 67.7211 9.09588C67.8768 8.83073 67.9547 8.54735 67.9547 8.24574V7.26136C67.9017 7.31439 67.7989 7.36411 67.6465 7.41051C67.4973 7.4536 67.3266 7.49171 67.1344 7.52486C66.9422 7.55469 66.7549 7.58286 66.5726 7.60938C66.3903 7.63258 66.2379 7.65246 66.1152 7.66903C65.8269 7.70549 65.5634 7.76681 65.3248 7.85298C65.0894 7.93916 64.9005 8.06345 64.758 8.22585C64.6188 8.38494 64.5492 8.59706 64.5492 8.86222C64.5492 9.23011 64.6851 9.50852 64.9569 9.69744C65.2286 9.88305 65.575 9.97585 65.9959 9.97585ZM74.6229 14.0227C74.0163 14.0227 73.4943 13.9432 73.0568 13.7841C72.6226 13.625 72.268 13.4145 71.9929 13.1527C71.7178 12.8909 71.5123 12.6042 71.3764 12.2926L72.6541 11.7656C72.7436 11.9115 72.8629 12.0656 73.0121 12.228C73.1645 12.3937 73.37 12.5346 73.6286 12.6506C73.8904 12.7666 74.2268 12.8246 74.6378 12.8246C75.2012 12.8246 75.6669 12.687 76.0348 12.4119C76.4027 12.1402 76.5866 11.706 76.5866 11.1094V9.60795H76.4922C76.4027 9.77036 76.2734 9.95099 76.1044 10.1499C75.9387 10.3487 75.71 10.5211 75.4183 10.6669C75.1267 10.8127 74.7472 10.8857 74.2798 10.8857C73.6766 10.8857 73.133 10.7448 72.6491 10.4631C72.1686 10.178 71.7874 9.75876 71.5057 9.20526C71.2273 8.64844 71.0881 7.96401 71.0881 7.15199C71.0881 6.33996 71.2256 5.64394 71.5007 5.06392C71.7791 4.4839 72.1603 4.03977 72.6442 3.73153C73.1281 3.41998 73.6766 3.2642 74.2898 3.2642C74.7637 3.2642 75.1465 3.34375 75.4382 3.50284C75.7299 3.65862 75.9569 3.84091 76.1193 4.04972C76.285 4.25852 76.4126 4.44247 76.5021 4.60156H76.6115V3.36364H78.0682V11.169C78.0682 11.8253 77.9157 12.3639 77.6108 12.7848C77.3059 13.2057 76.8932 13.5173 76.3729 13.7195C75.8558 13.9216 75.2725 14.0227 74.6229 14.0227ZM74.608 9.6527C75.0355 9.6527 75.3968 9.55327 75.6918 9.3544C75.9901 9.15223 76.2154 8.86387 76.3679 8.48935C76.5237 8.11151 76.6016 7.65909 76.6016 7.1321C76.6016 6.61837 76.5253 6.16596 76.3729 5.77486C76.2204 5.38376 75.9967 5.07884 75.7017 4.86009C75.4067 4.63802 75.0421 4.52699 74.608 4.52699C74.1605 4.52699 73.7876 4.64299 73.4893 4.875C73.1911 5.10369 72.9657 5.41525 72.8132 5.80966C72.6641 6.20407 72.5895 6.64489 72.5895 7.1321C72.5895 7.63258 72.6657 8.07173 72.8182 8.44957C72.9706 8.82741 73.196 9.1224 73.4943 9.33452C73.7959 9.54664 74.1671 9.6527 74.608 9.6527ZM83.2784 11.1541C82.5625 11.1541 81.9377 10.9901 81.4041 10.6619C80.8705 10.3338 80.4562 9.87476 80.1612 9.2848C79.8662 8.69484 79.7188 8.00544 79.7188 7.21662C79.7188 6.42448 79.8662 5.73177 80.1612 5.13849C80.4562 4.54522 80.8705 4.08452 81.4041 3.75639C81.9377 3.42827 82.5625 3.2642 83.2784 3.2642C83.9943 3.2642 84.6191 3.42827 85.1527 3.75639C85.6863 4.08452 86.1006 4.54522 86.3956 5.13849C86.6906 5.73177 86.8381 6.42448 86.8381 7.21662C86.8381 8.00544 86.6906 8.69484 86.3956 9.2848C86.1006 9.87476 85.6863 10.3338 85.1527 10.6619C84.6191 10.9901 83.9943 11.1541 83.2784 11.1541ZM83.2834 9.90625C83.7474 9.90625 84.1319 9.78362 84.4368 9.53835C84.7417 9.29309 84.9671 8.96662 85.1129 8.55895C85.2621 8.15128 85.3366 7.70218 85.3366 7.21165C85.3366 6.72443 85.2621 6.27699 85.1129 5.86932C84.9671 5.45833 84.7417 5.12855 84.4368 4.87997C84.1319 4.63139 83.7474 4.5071 83.2834 4.5071C82.8161 4.5071 82.4283 4.63139 82.12 4.87997C81.8151 5.12855 81.5881 5.45833 81.4389 5.86932C81.2931 6.27699 81.2202 6.72443 81.2202 7.21165C81.2202 7.70218 81.2931 8.15128 81.4389 8.55895C81.5881 8.96662 81.8151 9.29309 82.12 9.53835C82.4283 9.78362 82.8161 9.90625 83.2834 9.90625ZM89.9838 6.46591V11H88.4973V3.36364H89.9242V4.60653H90.0186C90.1943 4.20218 90.4694 3.87737 90.8439 3.6321C91.2218 3.38684 91.6974 3.2642 92.2708 3.2642C92.7911 3.2642 93.2469 3.37358 93.638 3.59233C94.0291 3.80777 94.3323 4.12926 94.5478 4.55682C94.7632 4.98437 94.8709 5.51302 94.8709 6.14276V11H93.3844V6.32173C93.3844 5.76823 93.2402 5.3357 92.9519 5.02415C92.6635 4.70928 92.2675 4.55185 91.7637 4.55185C91.419 4.55185 91.1124 4.62642 90.8439 4.77557C90.5788 4.92472 90.3683 5.14347 90.2125 5.43182C90.0601 5.71686 89.9838 6.06155 89.9838 6.46591Z" fill="black"/>
</svg>
