<svg width="79" height="14" viewBox="0 0 79 14" fill="none" xmlns="http://www.w3.org/2000/svg">
<path d="M-0.000710189 13.8636V3.36364H1.45099V4.60156H1.57528C1.66146 4.44247 1.78575 4.25852 1.94815 4.04972C2.11056 3.84091 2.33594 3.65862 2.62429 3.50284C2.91264 3.34375 3.2938 3.2642 3.76776 3.2642C4.38423 3.2642 4.93442 3.41998 5.41832 3.73153C5.90223 4.04309 6.28172 4.49219 6.55682 5.07884C6.83523 5.66548 6.97443 6.37145 6.97443 7.19673C6.97443 8.02202 6.83688 8.72964 6.56179 9.3196C6.2867 9.90625 5.90885 10.3587 5.42827 10.6768C4.94768 10.9917 4.39915 11.1491 3.78267 11.1491C3.31866 11.1491 2.93916 11.0713 2.64418 10.9155C2.35251 10.7597 2.12382 10.5774 1.9581 10.3686C1.79238 10.1598 1.66477 9.9742 1.57528 9.81179H1.4858V13.8636H-0.000710189ZM1.45597 7.18182C1.45597 7.71875 1.53385 8.18939 1.68963 8.59375C1.84541 8.99811 2.07079 9.31463 2.36577 9.54332C2.66075 9.7687 3.02202 9.88139 3.44957 9.88139C3.8937 9.88139 4.26491 9.76373 4.56321 9.52841C4.86151 9.28977 5.08688 8.96662 5.23935 8.55895C5.39512 8.15128 5.47301 7.69223 5.47301 7.18182C5.47301 6.67803 5.39678 6.22562 5.24432 5.82457C5.09517 5.42353 4.86979 5.10701 4.56818 4.875C4.26989 4.64299 3.89702 4.52699 3.44957 4.52699C3.0187 4.52699 2.65412 4.63802 2.35582 4.86009C2.06084 5.08215 1.83712 5.39205 1.68466 5.78977C1.5322 6.1875 1.45597 6.65151 1.45597 7.18182ZM10.1264 0.818182V11H8.63991V0.818182H10.1264ZM16.9636 7.8331V3.36364H18.4551V11H16.9934V9.67756H16.9139C16.7382 10.0852 16.4565 10.425 16.0687 10.6967C15.6842 10.9652 15.2053 11.0994 14.6319 11.0994C14.1414 11.0994 13.7072 10.9917 13.3294 10.7763C12.9548 10.5575 12.6599 10.2344 12.4444 9.80682C12.2323 9.37926 12.1262 8.85062 12.1262 8.22088V3.36364H13.6127V8.0419C13.6127 8.56226 13.7569 8.97656 14.0453 9.2848C14.3336 9.59304 14.7082 9.74716 15.1689 9.74716C15.4473 9.74716 15.724 9.67756 15.9991 9.53835C16.2775 9.39915 16.5079 9.18868 16.6902 8.90696C16.8758 8.62524 16.9669 8.26728 16.9636 7.8331ZM26.1747 5.22798L24.8274 5.46662C24.7711 5.29427 24.6816 5.13021 24.5589 4.97443C24.4396 4.81865 24.2772 4.69105 24.0717 4.59162C23.8662 4.49219 23.6094 4.44247 23.3011 4.44247C22.8802 4.44247 22.5289 4.53693 22.2472 4.72585C21.9654 4.91146 21.8246 5.15175 21.8246 5.44673C21.8246 5.70194 21.919 5.90743 22.108 6.06321C22.2969 6.21899 22.6018 6.34659 23.0227 6.44602L24.2358 6.72443C24.9384 6.88684 25.4621 7.13707 25.8068 7.47514C26.1515 7.81321 26.3239 8.25237 26.3239 8.79261C26.3239 9.25 26.1913 9.65767 25.9261 10.0156C25.6643 10.3703 25.2981 10.6487 24.8274 10.8509C24.3601 11.053 23.8182 11.1541 23.2017 11.1541C22.3466 11.1541 21.6489 10.9718 21.1087 10.6072C20.5684 10.2393 20.237 9.71733 20.1143 9.04119L21.5511 8.82244C21.6406 9.19697 21.8246 9.48035 22.103 9.67259C22.3814 9.86151 22.7443 9.95597 23.1918 9.95597C23.679 9.95597 24.0684 9.85488 24.3601 9.6527C24.6518 9.44721 24.7976 9.19697 24.7976 8.90199C24.7976 8.66335 24.7081 8.46283 24.5291 8.30043C24.3535 8.13802 24.0833 8.01539 23.7188 7.93253L22.4261 7.64915C21.7135 7.48674 21.1866 7.22822 20.8452 6.87358C20.5071 6.51894 20.3381 6.06984 20.3381 5.52628C20.3381 5.07552 20.464 4.68111 20.7159 4.34304C20.9678 4.00497 21.3158 3.74148 21.7599 3.55256C22.2041 3.36032 22.7128 3.2642 23.2862 3.2642C24.1115 3.2642 24.7611 3.44318 25.2351 3.80114C25.709 4.15578 26.0223 4.63139 26.1747 5.22798ZM32.4576 6.05327V7.34091H27.9434V6.05327H32.4576ZM40.161 5.22798L38.8137 5.46662C38.7574 5.29427 38.6679 5.13021 38.5453 4.97443C38.426 4.81865 38.2636 4.69105 38.0581 4.59162C37.8526 4.49219 37.5957 4.44247 37.2875 4.44247C36.8665 4.44247 36.5152 4.53693 36.2335 4.72585C35.9518 4.91146 35.8109 5.15175 35.8109 5.44673C35.8109 5.70194 35.9054 5.90743 36.0943 6.06321C36.2832 6.21899 36.5881 6.34659 37.0091 6.44602L38.2221 6.72443C38.9248 6.88684 39.4484 7.13707 39.7931 7.47514C40.1378 7.81321 40.3102 8.25237 40.3102 8.79261C40.3102 9.25 40.1776 9.65767 39.9125 10.0156C39.6506 10.3703 39.2844 10.6487 38.8137 10.8509C38.3464 11.053 37.8045 11.1541 37.188 11.1541C36.3329 11.1541 35.6352 10.9718 35.095 10.6072C34.5547 10.2393 34.2233 9.71733 34.1007 9.04119L35.5375 8.82244C35.627 9.19697 35.8109 9.48035 36.0893 9.67259C36.3677 9.86151 36.7306 9.95597 37.1781 9.95597C37.6653 9.95597 38.0547 9.85488 38.3464 9.6527C38.6381 9.44721 38.7839 9.19697 38.7839 8.90199C38.7839 8.66335 38.6944 8.46283 38.5154 8.30043C38.3398 8.13802 38.0697 8.01539 37.7051 7.93253L36.4125 7.64915C35.6999 7.48674 35.1729 7.22822 34.8315 6.87358C34.4934 6.51894 34.3244 6.06984 34.3244 5.52628C34.3244 5.07552 34.4503 4.68111 34.7022 4.34304C34.9541 4.00497 35.3021 3.74148 35.7463 3.55256C36.1904 3.36032 36.6992 3.2642 37.2725 3.2642C38.0978 3.2642 38.7475 3.44318 39.2214 3.80114C39.6954 4.15578 40.0086 4.63139 40.161 5.22798ZM47.1001 13.8636V9.81179H47.0107C46.9212 9.9742 46.7919 10.1598 46.6229 10.3686C46.4571 10.5774 46.2285 10.7597 45.9368 10.9155C45.6451 11.0713 45.2673 11.1491 44.8033 11.1491C44.1868 11.1491 43.6366 10.9917 43.1527 10.6768C42.6721 10.3587 42.2943 9.90625 42.0192 9.3196C41.7474 8.72964 41.6115 8.02202 41.6115 7.19673C41.6115 6.37145 41.7491 5.66548 42.0241 5.07884C42.3026 4.49219 42.6837 4.04309 43.1676 3.73153C43.6515 3.41998 44.2 3.2642 44.8132 3.2642C45.2872 3.2642 45.6683 3.34375 45.9567 3.50284C46.2483 3.65862 46.4737 3.84091 46.6328 4.04972C46.7952 4.25852 46.9212 4.44247 47.0107 4.60156H47.1349V3.36364H48.5866V13.8636H47.1001ZM45.1314 9.88139C45.5589 9.88139 45.9202 9.7687 46.2152 9.54332C46.5135 9.31463 46.7389 8.99811 46.8913 8.59375C47.0471 8.18939 47.125 7.71875 47.125 7.18182C47.125 6.65151 47.0488 6.1875 46.8963 5.78977C46.7438 5.39205 46.5201 5.08215 46.2251 4.86009C45.9302 4.63802 45.5656 4.52699 45.1314 4.52699C44.6839 4.52699 44.3111 4.64299 44.0128 4.875C43.7145 5.10701 43.4891 5.42353 43.3366 5.82457C43.1875 6.22562 43.1129 6.67803 43.1129 7.18182C43.1129 7.69223 43.1892 8.15128 43.3416 8.55895C43.4941 8.96662 43.7195 9.28977 44.0178 9.52841C44.3194 9.76373 44.6906 9.88139 45.1314 9.88139ZM55.4226 7.8331V3.36364H56.9141V11H55.4524V9.67756H55.3729C55.1972 10.0852 54.9155 10.425 54.5277 10.6967C54.1432 10.9652 53.6643 11.0994 53.0909 11.0994C52.6004 11.0994 52.1662 10.9917 51.7884 10.7763C51.4138 10.5575 51.1188 10.2344 50.9034 9.80682C50.6913 9.37926 50.5852 8.85062 50.5852 8.22088V3.36364H52.0717V8.0419C52.0717 8.56226 52.2159 8.97656 52.5043 9.2848C52.7926 9.59304 53.1671 9.74716 53.6278 9.74716C53.9063 9.74716 54.183 9.67756 54.4581 9.53835C54.7365 9.39915 54.9669 9.18868 55.1491 8.90696C55.3348 8.62524 55.4259 8.26728 55.4226 7.8331ZM61.1337 11.169C60.6498 11.169 60.2123 11.0795 59.8212 10.9006C59.4301 10.7183 59.1202 10.4548 58.8915 10.1101C58.6661 9.76539 58.5534 9.3428 58.5534 8.84233C58.5534 8.41146 58.6363 8.05682 58.802 7.77841C58.9677 7.5 59.1915 7.27959 59.4732 7.11719C59.7549 6.95478 60.0698 6.83215 60.4178 6.74929C60.7658 6.66643 61.1204 6.60346 61.4817 6.56037C61.9391 6.50734 62.3103 6.46425 62.5953 6.43111C62.8804 6.39465 63.0875 6.33665 63.2168 6.2571C63.3461 6.17756 63.4107 6.0483 63.4107 5.86932V5.83452C63.4107 5.40033 63.2881 5.06392 63.0428 4.82528C62.8008 4.58665 62.4396 4.46733 61.959 4.46733C61.4585 4.46733 61.0641 4.57836 60.7757 4.80043C60.4907 5.01918 60.2935 5.26278 60.1841 5.53125L58.7871 5.21307C58.9528 4.74905 59.1948 4.37453 59.513 4.08949C59.8345 3.80114 60.204 3.59233 60.6216 3.46307C61.0392 3.33049 61.4784 3.2642 61.9391 3.2642C62.244 3.2642 62.5672 3.30066 62.9086 3.37358C63.2533 3.44318 63.5748 3.57244 63.873 3.76136C64.1747 3.95028 64.4216 4.22041 64.6138 4.57173C64.806 4.91974 64.9022 5.37216 64.9022 5.92898V11H63.4505V9.95597H63.3908C63.2947 10.1482 63.1505 10.3371 62.9583 10.5227C62.766 10.7083 62.5191 10.8625 62.2175 10.9851C61.9159 11.1077 61.5546 11.169 61.1337 11.169ZM61.4569 9.97585C61.8678 9.97585 62.2192 9.89465 62.5108 9.73224C62.8058 9.56984 63.0295 9.35772 63.182 9.09588C63.3378 8.83073 63.4157 8.54735 63.4157 8.24574V7.26136C63.3626 7.31439 63.2599 7.36411 63.1074 7.41051C62.9583 7.4536 62.7876 7.49171 62.5953 7.52486C62.4031 7.55469 62.2159 7.58286 62.0336 7.60938C61.8513 7.63258 61.6988 7.65246 61.5762 7.66903C61.2878 7.70549 61.0243 7.76681 60.7857 7.85298C60.5504 7.93916 60.3614 8.06345 60.2189 8.22585C60.0797 8.38494 60.0101 8.59706 60.0101 8.86222C60.0101 9.23011 60.146 9.50852 60.4178 9.69744C60.6896 9.88305 61.0359 9.97585 61.4569 9.97585ZM66.8821 11V3.36364H68.3189V4.5767H68.3984C68.5376 4.16572 68.7829 3.84257 69.1342 3.60724C69.4889 3.36861 69.8899 3.24929 70.3374 3.24929C70.4302 3.24929 70.5395 3.2526 70.6655 3.25923C70.7947 3.26586 70.8958 3.27415 70.9688 3.28409V4.70597C70.9091 4.68939 70.803 4.67116 70.6506 4.65128C70.4981 4.62808 70.3456 4.61648 70.1932 4.61648C69.8419 4.61648 69.5286 4.69105 69.2536 4.8402C68.9818 4.98603 68.7663 5.18987 68.6072 5.4517C68.4482 5.71023 68.3686 6.00521 68.3686 6.33665V11H66.8821ZM75.2729 11.1541C74.5205 11.1541 73.8726 10.9934 73.329 10.6719C72.7888 10.3471 72.3712 9.89134 72.0762 9.30469C71.7845 8.71473 71.6387 8.02367 71.6387 7.23153C71.6387 6.44934 71.7845 5.75994 72.0762 5.16335C72.3712 4.56676 72.7821 4.10109 73.3091 3.76633C73.8394 3.43158 74.4592 3.2642 75.1685 3.2642C75.5994 3.2642 76.017 3.33546 76.4213 3.47798C76.8257 3.6205 77.1886 3.84422 77.5101 4.14915C77.8316 4.45407 78.0852 4.85014 78.2708 5.33736C78.4564 5.82126 78.5492 6.40956 78.5492 7.10227V7.62926H72.4789V6.51562H77.0925C77.0925 6.12453 77.013 5.77817 76.8539 5.47656C76.6948 5.17164 76.4711 4.93134 76.1827 4.75568C75.8977 4.58002 75.5629 4.49219 75.1784 4.49219C74.7608 4.49219 74.3962 4.59493 74.0847 4.80043C73.7765 5.0026 73.5378 5.26776 73.3688 5.59588C73.2031 5.92069 73.1202 6.27367 73.1202 6.65483V7.52486C73.1202 8.03527 73.2097 8.46946 73.3887 8.82741C73.571 9.18537 73.8245 9.45881 74.1493 9.64773C74.4741 9.83333 74.8536 9.92614 75.2878 9.92614C75.5695 9.92614 75.8264 9.88636 76.0584 9.80682C76.2904 9.72396 76.4909 9.60133 76.66 9.43892C76.829 9.27652 76.9583 9.07599 77.0478 8.83736L78.4547 9.09091C78.342 9.50521 78.1399 9.86813 77.8482 10.1797C77.5598 10.4879 77.1969 10.7282 76.7594 10.9006C76.3252 11.0696 75.8297 11.1541 75.2729 11.1541Z" fill="black"/>
</svg>
