<svg width="88" height="12" viewBox="0 0 88 12" fill="none" xmlns="http://www.w3.org/2000/svg">
<path d="M6.72159 5.72798L5.37429 5.96662C5.31795 5.79427 5.22846 5.63021 5.10582 5.47443C4.98651 5.31865 4.8241 5.19105 4.61861 5.09162C4.41312 4.99219 4.15625 4.94247 3.84801 4.94247C3.42708 4.94247 3.07576 5.03693 2.79403 5.22585C2.51231 5.41146 2.37145 5.65175 2.37145 5.94673C2.37145 6.20194 2.46591 6.40743 2.65483 6.56321C2.84375 6.71899 3.14867 6.84659 3.5696 6.94602L4.78267 7.22443C5.48532 7.38684 6.009 7.63707 6.35369 7.97514C6.69839 8.31321 6.87074 8.75237 6.87074 9.29261C6.87074 9.75 6.73816 10.1577 6.47301 10.5156C6.21117 10.8703 5.84493 11.1487 5.37429 11.3509C4.90696 11.553 4.36506 11.6541 3.74858 11.6541C2.89347 11.6541 2.19579 11.4718 1.65554 11.1072C1.11529 10.7393 0.783854 10.2173 0.661222 9.54119L2.09801 9.32244C2.1875 9.69697 2.37145 9.98035 2.64986 10.1726C2.92827 10.3615 3.29119 10.456 3.73864 10.456C4.22585 10.456 4.61529 10.3549 4.90696 10.1527C5.19863 9.94721 5.34446 9.69697 5.34446 9.40199C5.34446 9.16335 5.25497 8.96283 5.07599 8.80043C4.90033 8.63802 4.63021 8.51539 4.26562 8.43253L2.97301 8.14915C2.26042 7.98674 1.73343 7.72822 1.39205 7.37358C1.05398 7.01894 0.884943 6.56984 0.884943 6.02628C0.884943 5.57552 1.01089 5.18111 1.26278 4.84304C1.51468 4.50497 1.86269 4.24148 2.30682 4.05256C2.75095 3.86032 3.25971 3.7642 3.8331 3.7642C4.65838 3.7642 5.308 3.94318 5.78196 4.30114C6.25592 4.65578 6.56913 5.13139 6.72159 5.72798ZM9.99165 1.31818V11.5H8.50515V1.31818H9.99165ZM14.2138 11.669C13.7299 11.669 13.2924 11.5795 12.9013 11.4006C12.5102 11.2183 12.2003 10.9548 11.9716 10.6101C11.7462 10.2654 11.6335 9.8428 11.6335 9.34233C11.6335 8.91146 11.7164 8.55682 11.8821 8.27841C12.0478 8 12.2715 7.77959 12.5533 7.61719C12.835 7.45478 13.1499 7.33215 13.4979 7.24929C13.8459 7.16643 14.2005 7.10346 14.5618 7.06037C15.0192 7.00734 15.3904 6.96425 15.6754 6.93111C15.9605 6.89465 16.1676 6.83665 16.2969 6.7571C16.4261 6.67756 16.4908 6.5483 16.4908 6.36932V6.33452C16.4908 5.90033 16.3681 5.56392 16.1229 5.32528C15.8809 5.08665 15.5196 4.96733 15.0391 4.96733C14.5386 4.96733 14.1442 5.07836 13.8558 5.30043C13.5708 5.51918 13.3736 5.76278 13.2642 6.03125L11.8672 5.71307C12.0329 5.24905 12.2749 4.87453 12.593 4.58949C12.9145 4.30114 13.2841 4.09233 13.7017 3.96307C14.1193 3.83049 14.5585 3.7642 15.0192 3.7642C15.3241 3.7642 15.6473 3.80066 15.9886 3.87358C16.3333 3.94318 16.6548 4.07244 16.9531 4.26136C17.2547 4.45028 17.5017 4.72041 17.6939 5.07173C17.8861 5.41974 17.9822 5.87216 17.9822 6.42898V11.5H16.5305V10.456H16.4709C16.3748 10.6482 16.2306 10.8371 16.0384 11.0227C15.8461 11.2083 15.5992 11.3625 15.2976 11.4851C14.996 11.6077 14.6347 11.669 14.2138 11.669ZM14.5369 10.4759C14.9479 10.4759 15.2992 10.3946 15.5909 10.2322C15.8859 10.0698 16.1096 9.85772 16.2621 9.59588C16.4179 9.33073 16.4957 9.04735 16.4957 8.74574V7.76136C16.4427 7.81439 16.34 7.86411 16.1875 7.91051C16.0384 7.9536 15.8677 7.99171 15.6754 8.02486C15.4832 8.05469 15.2959 8.08286 15.1136 8.10938C14.9313 8.13258 14.7789 8.15246 14.6562 8.16903C14.3679 8.20549 14.1044 8.26681 13.8658 8.35298C13.6304 8.43916 13.4415 8.56345 13.299 8.72585C13.1598 8.88494 13.0902 9.09706 13.0902 9.36222C13.0902 9.73011 13.2261 10.0085 13.4979 10.1974C13.7696 10.383 14.116 10.4759 14.5369 10.4759ZM25.6845 5.72798L24.3372 5.96662C24.2808 5.79427 24.1913 5.63021 24.0687 5.47443C23.9494 5.31865 23.787 5.19105 23.5815 5.09162C23.376 4.99219 23.1191 4.94247 22.8109 4.94247C22.39 4.94247 22.0386 5.03693 21.7569 5.22585C21.4752 5.41146 21.3343 5.65175 21.3343 5.94673C21.3343 6.20194 21.4288 6.40743 21.6177 6.56321C21.8066 6.71899 22.1116 6.84659 22.5325 6.94602L23.7456 7.22443C24.4482 7.38684 24.9719 7.63707 25.3166 7.97514C25.6613 8.31321 25.8336 8.75237 25.8336 9.29261C25.8336 9.75 25.7011 10.1577 25.4359 10.5156C25.1741 10.8703 24.8078 11.1487 24.3372 11.3509C23.8699 11.553 23.3279 11.6541 22.7115 11.6541C21.8564 11.6541 21.1587 11.4718 20.6184 11.1072C20.0782 10.7393 19.7467 10.2173 19.6241 9.54119L21.0609 9.32244C21.1504 9.69697 21.3343 9.98035 21.6127 10.1726C21.8912 10.3615 22.2541 10.456 22.7015 10.456C23.1887 10.456 23.5782 10.3549 23.8699 10.1527C24.1615 9.94721 24.3074 9.69697 24.3074 9.40199C24.3074 9.16335 24.2179 8.96283 24.0389 8.80043C23.8632 8.63802 23.5931 8.51539 23.2285 8.43253L21.9359 8.14915C21.2233 7.98674 20.6963 7.72822 20.3549 7.37358C20.0169 7.01894 19.8478 6.56984 19.8478 6.02628C19.8478 5.57552 19.9738 5.18111 20.2257 4.84304C20.4776 4.50497 20.8256 4.24148 21.2697 4.05256C21.7138 3.86032 22.2226 3.7642 22.796 3.7642C23.6213 3.7642 24.2709 3.94318 24.7449 4.30114C25.2188 4.65578 25.532 5.13139 25.6845 5.72798ZM28.9545 6.96591V11.5H27.468V1.31818H28.9347V5.10653H29.0291C29.2081 4.69555 29.4815 4.36908 29.8494 4.12713C30.2173 3.88518 30.6979 3.7642 31.2912 3.7642C31.8149 3.7642 32.2723 3.87192 32.6634 4.08736C33.0578 4.30279 33.3627 4.62429 33.5781 5.05185C33.7969 5.47609 33.9062 6.00639 33.9062 6.64276V11.5H32.4197V6.82173C32.4197 6.2616 32.2756 5.82741 31.9872 5.51918C31.6989 5.20762 31.2978 5.05185 30.7841 5.05185C30.4328 5.05185 30.1179 5.12642 29.8395 5.27557C29.5644 5.42472 29.3473 5.64347 29.1882 5.93182C29.0324 6.21686 28.9545 6.56155 28.9545 6.96591ZM40.3892 6.55327V7.84091H35.875V6.55327H40.3892ZM45.229 11.6491C44.6126 11.6491 44.0624 11.4917 43.5785 11.1768C43.0979 10.8587 42.7201 10.4062 42.445 9.8196C42.1732 9.22964 42.0373 8.52202 42.0373 7.69673C42.0373 6.87145 42.1748 6.16548 42.4499 5.57884C42.7283 4.99219 43.1095 4.54309 43.5934 4.23153C44.0773 3.91998 44.6258 3.7642 45.239 3.7642C45.7129 3.7642 46.0941 3.84375 46.3825 4.00284C46.6741 4.15862 46.8995 4.34091 47.0586 4.54972C47.221 4.75852 47.3469 4.94247 47.4364 5.10156H47.5259V1.31818H49.0124V11.5H47.5607V10.3118H47.4364C47.3469 10.4742 47.2177 10.6598 47.0487 10.8686C46.8829 11.0774 46.6542 11.2597 46.3626 11.4155C46.0709 11.5713 45.6931 11.6491 45.229 11.6491ZM45.5572 10.3814C45.9847 10.3814 46.346 10.2687 46.641 10.0433C46.9393 9.81463 47.1647 9.49811 47.3171 9.09375C47.4729 8.68939 47.5508 8.21875 47.5508 7.68182C47.5508 7.15151 47.4746 6.6875 47.3221 6.28977C47.1696 5.89205 46.9459 5.58215 46.6509 5.36009C46.3559 5.13802 45.9914 5.02699 45.5572 5.02699C45.1097 5.02699 44.7369 5.14299 44.4386 5.375C44.1403 5.60701 43.9149 5.92353 43.7624 6.32457C43.6133 6.72562 43.5387 7.17803 43.5387 7.68182C43.5387 8.19223 43.6149 8.65128 43.7674 9.05895C43.9199 9.46662 44.1452 9.78977 44.4435 10.0284C44.7451 10.2637 45.1164 10.3814 45.5572 10.3814ZM51.1341 11.5V3.86364H52.6206V11.5H51.1341ZM51.8848 2.68537C51.6262 2.68537 51.4042 2.59919 51.2186 2.42685C51.0363 2.25118 50.9451 2.04238 50.9451 1.80043C50.9451 1.55516 51.0363 1.34635 51.2186 1.17401C51.4042 0.998342 51.6262 0.910511 51.8848 0.910511C52.1433 0.910511 52.3637 0.998342 52.546 1.17401C52.7316 1.34635 52.8244 1.55516 52.8244 1.80043C52.8244 2.04238 52.7316 2.25118 52.546 2.42685C52.3637 2.59919 52.1433 2.68537 51.8848 2.68537ZM61.1531 3.86364L58.3839 11.5H56.793L54.0188 3.86364H55.6147L57.5487 9.74006H57.6282L59.5572 3.86364H61.1531ZM62.5501 11.5V3.86364H64.0366V11.5H62.5501ZM63.3008 2.68537C63.0423 2.68537 62.8202 2.59919 62.6346 2.42685C62.4523 2.25118 62.3612 2.04238 62.3612 1.80043C62.3612 1.55516 62.4523 1.34635 62.6346 1.17401C62.8202 0.998342 63.0423 0.910511 63.3008 0.910511C63.5593 0.910511 63.7797 0.998342 63.962 1.17401C64.1476 1.34635 64.2404 1.55516 64.2404 1.80043C64.2404 2.04238 64.1476 2.25118 63.962 2.42685C63.7797 2.59919 63.5593 2.68537 63.3008 2.68537ZM68.8951 11.6491C68.2786 11.6491 67.7284 11.4917 67.2445 11.1768C66.7639 10.8587 66.3861 10.4062 66.111 9.8196C65.8392 9.22964 65.7033 8.52202 65.7033 7.69673C65.7033 6.87145 65.8408 6.16548 66.1159 5.57884C66.3944 4.99219 66.7755 4.54309 67.2594 4.23153C67.7433 3.91998 68.2918 3.7642 68.905 3.7642C69.379 3.7642 69.7601 3.84375 70.0485 4.00284C70.3401 4.15862 70.5655 4.34091 70.7246 4.54972C70.887 4.75852 71.013 4.94247 71.1025 5.10156H71.1919V1.31818H72.6784V11.5H71.2267V10.3118H71.1025C71.013 10.4742 70.8837 10.6598 70.7147 10.8686C70.5489 11.0774 70.3203 11.2597 70.0286 11.4155C69.7369 11.5713 69.3591 11.6491 68.8951 11.6491ZM69.2232 10.3814C69.6507 10.3814 70.012 10.2687 70.307 10.0433C70.6053 9.81463 70.8307 9.49811 70.9831 9.09375C71.1389 8.68939 71.2168 8.21875 71.2168 7.68182C71.2168 7.15151 71.1406 6.6875 70.9881 6.28977C70.8356 5.89205 70.6119 5.58215 70.3169 5.36009C70.022 5.13802 69.6574 5.02699 69.2232 5.02699C68.7757 5.02699 68.4029 5.14299 68.1046 5.375C67.8063 5.60701 67.5809 5.92353 67.4284 6.32457C67.2793 6.72562 67.2047 7.17803 67.2047 7.68182C67.2047 8.19223 67.281 8.65128 67.4334 9.05895C67.5859 9.46662 67.8113 9.78977 68.1096 10.0284C68.4112 10.2637 68.7824 10.3814 69.2232 10.3814ZM78.0913 11.6541C77.3389 11.6541 76.6909 11.4934 76.1474 11.1719C75.6071 10.8471 75.1895 10.3913 74.8945 9.80469C74.6029 9.21473 74.457 8.52367 74.457 7.73153C74.457 6.94934 74.6029 6.25994 74.8945 5.66335C75.1895 5.06676 75.6005 4.60109 76.1275 4.26633C76.6578 3.93158 77.2776 3.7642 77.9869 3.7642C78.4177 3.7642 78.8353 3.83546 79.2397 3.97798C79.6441 4.1205 80.007 4.34422 80.3285 4.64915C80.65 4.95407 80.9035 5.35014 81.0891 5.83736C81.2747 6.32126 81.3675 6.90956 81.3675 7.60227V8.12926H75.2972V7.01562H79.9109C79.9109 6.62453 79.8313 6.27817 79.6722 5.97656C79.5131 5.67164 79.2894 5.43134 79.0011 5.25568C78.716 5.08002 78.3813 4.99219 77.9968 4.99219C77.5792 4.99219 77.2146 5.09493 76.9031 5.30043C76.5948 5.5026 76.3562 5.76776 76.1871 6.09588C76.0214 6.42069 75.9386 6.77367 75.9386 7.15483V8.02486C75.9386 8.53527 76.0281 8.96946 76.207 9.32741C76.3893 9.68537 76.6429 9.95881 76.9677 10.1477C77.2925 10.3333 77.672 10.4261 78.1062 10.4261C78.3879 10.4261 78.6448 10.3864 78.8768 10.3068C79.1088 10.224 79.3093 10.1013 79.4783 9.93892C79.6474 9.77652 79.7766 9.57599 79.8661 9.33736L81.2731 9.59091C81.1604 10.0052 80.9582 10.3681 80.6665 10.6797C80.3782 10.9879 80.0153 11.2282 79.5778 11.4006C79.1436 11.5696 78.6481 11.6541 78.0913 11.6541ZM83.0169 11.5V3.86364H84.4537V5.0767H84.5332C84.6724 4.66572 84.9177 4.34257 85.269 4.10724C85.6236 3.86861 86.0247 3.74929 86.4721 3.74929C86.5649 3.74929 86.6743 3.7526 86.8002 3.75923C86.9295 3.76586 87.0306 3.77415 87.1035 3.78409V5.20597C87.0439 5.18939 86.9378 5.17116 86.7853 5.15128C86.6329 5.12808 86.4804 5.11648 86.3279 5.11648C85.9766 5.11648 85.6634 5.19105 85.3883 5.3402C85.1165 5.48603 84.9011 5.68987 84.742 5.9517C84.5829 6.21023 84.5034 6.50521 84.5034 6.83665V11.5H83.0169Z" fill="black"/>
</svg>
