<svg width="70" height="14" viewBox="0 0 70 14" fill="none" xmlns="http://www.w3.org/2000/svg">
<path d="M1.4858 6.46591V11H-0.000710189V0.818182H1.46591V4.60653H1.56037C1.73935 4.19555 2.01278 3.86908 2.38068 3.62713C2.74858 3.38518 3.22917 3.2642 3.82244 3.2642C4.34612 3.2642 4.8035 3.37192 5.1946 3.58736C5.58902 3.80279 5.89394 4.12429 6.10938 4.55185C6.32812 4.97609 6.4375 5.50639 6.4375 6.14276V11H4.95099V6.32173C4.95099 5.7616 4.80682 5.32741 4.51847 5.01918C4.23011 4.70762 3.82907 4.55185 3.31534 4.55185C2.96402 4.55185 2.64915 4.62642 2.37074 4.77557C2.09564 4.92472 1.87855 5.14347 1.71946 5.43182C1.56368 5.71686 1.4858 6.06155 1.4858 6.46591ZM11.7124 11.1541C10.96 11.1541 10.312 10.9934 9.76847 10.6719C9.22822 10.3471 8.81061 9.89134 8.51562 9.30469C8.22396 8.71473 8.07812 8.02367 8.07812 7.23153C8.07812 6.44934 8.22396 5.75994 8.51562 5.16335C8.81061 4.56676 9.22159 4.10109 9.74858 3.76633C10.2789 3.43158 10.8987 3.2642 11.608 3.2642C12.0388 3.2642 12.4564 3.33546 12.8608 3.47798C13.2652 3.6205 13.6281 3.84422 13.9496 4.14915C14.2711 4.45407 14.5246 4.85014 14.7102 5.33736C14.8958 5.82126 14.9886 6.40956 14.9886 7.10227V7.62926H8.91832V6.51562H13.532C13.532 6.12453 13.4524 5.77817 13.2933 5.47656C13.1342 5.17164 12.9105 4.93134 12.6222 4.75568C12.3371 4.58002 12.0024 4.49219 11.6179 4.49219C11.2003 4.49219 10.8357 4.59493 10.5241 4.80043C10.2159 5.0026 9.97727 5.26776 9.80824 5.59588C9.64252 5.92069 9.55966 6.27367 9.55966 6.65483V7.52486C9.55966 8.03527 9.64915 8.46946 9.82812 8.82741C10.0104 9.18537 10.264 9.45881 10.5888 9.64773C10.9136 9.83333 11.2931 9.92614 11.7273 9.92614C12.009 9.92614 12.2659 9.88636 12.4979 9.80682C12.7299 9.72396 12.9304 9.60133 13.0994 9.43892C13.2685 9.27652 13.3977 9.07599 13.4872 8.83736L14.8942 9.09091C14.7815 9.50521 14.5793 9.86813 14.2876 10.1797C13.9993 10.4879 13.6364 10.7282 13.1989 10.9006C12.7647 11.0696 12.2692 11.1541 11.7124 11.1541ZM18.1245 0.818182V11H16.638V0.818182H18.1245ZM20.1243 13.8636V3.36364H21.576V4.60156H21.7003C21.7865 4.44247 21.9107 4.25852 22.0732 4.04972C22.2356 3.84091 22.4609 3.65862 22.7493 3.50284C23.0376 3.34375 23.4188 3.2642 23.8928 3.2642C24.5092 3.2642 25.0594 3.41998 25.5433 3.73153C26.0272 4.04309 26.4067 4.49219 26.6818 5.07884C26.9602 5.66548 27.0994 6.37145 27.0994 7.19673C27.0994 8.02202 26.9619 8.72964 26.6868 9.3196C26.4117 9.90625 26.0339 10.3587 25.5533 10.6768C25.0727 10.9917 24.5241 11.1491 23.9077 11.1491C23.4437 11.1491 23.0642 11.0713 22.7692 10.9155C22.4775 10.7597 22.2488 10.5774 22.0831 10.3686C21.9174 10.1598 21.7898 9.9742 21.7003 9.81179H21.6108V13.8636H20.1243ZM21.581 7.18182C21.581 7.71875 21.6589 8.18939 21.8146 8.59375C21.9704 8.99811 22.1958 9.31463 22.4908 9.54332C22.7857 9.7687 23.147 9.88139 23.5746 9.88139C24.0187 9.88139 24.3899 9.76373 24.6882 9.52841C24.9865 9.28977 25.2119 8.96662 25.3643 8.55895C25.5201 8.15128 25.598 7.69223 25.598 7.18182C25.598 6.67803 25.5218 6.22562 25.3693 5.82457C25.2202 5.42353 24.9948 5.10701 24.6932 4.875C24.3949 4.64299 24.022 4.52699 23.5746 4.52699C23.1437 4.52699 22.7791 4.63802 22.4808 4.86009C22.1858 5.08215 21.9621 5.39205 21.8097 5.78977C21.6572 6.1875 21.581 6.65151 21.581 7.18182ZM33.2642 6.05327V7.34091H28.75V6.05327H33.2642ZM38.462 11.1541C37.7229 11.1541 37.0865 10.9867 36.5529 10.652C36.0226 10.3139 35.6149 9.84825 35.3299 9.25497C35.0449 8.66169 34.9023 7.98224 34.9023 7.21662C34.9023 6.44105 35.0482 5.75663 35.3398 5.16335C35.6315 4.56676 36.0425 4.10109 36.5728 3.76633C37.1031 3.43158 37.7279 3.2642 38.4471 3.2642C39.0271 3.2642 39.5442 3.37192 39.9982 3.58736C40.4523 3.79948 40.8185 4.09777 41.0969 4.48224C41.3787 4.86671 41.546 5.31581 41.5991 5.82955H40.1523C40.0728 5.47159 39.8905 5.16335 39.6055 4.90483C39.3237 4.64631 38.9459 4.51705 38.4719 4.51705C38.0576 4.51705 37.6947 4.62642 37.3832 4.84517C37.0749 5.06061 36.8346 5.36884 36.6623 5.76989C36.4899 6.16761 36.4038 6.63826 36.4038 7.18182C36.4038 7.73864 36.4883 8.21922 36.6573 8.62358C36.8263 9.02794 37.065 9.34115 37.3732 9.56321C37.6848 9.78527 38.051 9.89631 38.4719 9.89631C38.7537 9.89631 39.0089 9.84493 39.2376 9.74219C39.4696 9.63613 39.6635 9.48532 39.8192 9.28977C39.9783 9.09422 40.0894 8.8589 40.1523 8.58381H41.5991C41.546 9.07765 41.3853 9.51847 41.1168 9.90625C40.8484 10.294 40.4888 10.599 40.038 10.821C39.5906 11.0431 39.0652 11.1541 38.462 11.1541ZM43.1887 11V3.36364H44.6752V11H43.1887ZM43.9395 2.18537C43.6809 2.18537 43.4589 2.09919 43.2733 1.92685C43.091 1.75118 42.9998 1.54238 42.9998 1.30043C42.9998 1.05516 43.091 0.846354 43.2733 0.674005C43.4589 0.498342 43.6809 0.410511 43.9395 0.410511C44.198 0.410511 44.4184 0.498342 44.6007 0.674005C44.7863 0.846354 44.8791 1.05516 44.8791 1.30043C44.8791 1.54238 44.7863 1.75118 44.6007 1.92685C44.4184 2.09919 44.198 2.18537 43.9395 2.18537ZM46.6751 11V3.36364H48.1119V4.5767H48.1914C48.3306 4.16572 48.5759 3.84257 48.9272 3.60724C49.2818 3.36861 49.6829 3.24929 50.1303 3.24929C50.2231 3.24929 50.3325 3.2526 50.4585 3.25923C50.5877 3.26586 50.6888 3.27415 50.7617 3.28409V4.70597C50.7021 4.68939 50.596 4.67116 50.4435 4.65128C50.2911 4.62808 50.1386 4.61648 49.9862 4.61648C49.6348 4.61648 49.3216 4.69105 49.0465 4.8402C48.7747 4.98603 48.5593 5.18987 48.4002 5.4517C48.2411 5.71023 48.1616 6.00521 48.1616 6.33665V11H46.6751ZM54.9913 11.1541C54.2522 11.1541 53.6158 10.9867 53.0822 10.652C52.5519 10.3139 52.1442 9.84825 51.8592 9.25497C51.5742 8.66169 51.4316 7.98224 51.4316 7.21662C51.4316 6.44105 51.5775 5.75663 51.8691 5.16335C52.1608 4.56676 52.5718 4.10109 53.1021 3.76633C53.6324 3.43158 54.2572 3.2642 54.9764 3.2642C55.5564 3.2642 56.0734 3.37192 56.5275 3.58736C56.9816 3.79948 57.3478 4.09777 57.6262 4.48224C57.908 4.86671 58.0753 5.31581 58.1284 5.82955H56.6816C56.6021 5.47159 56.4198 5.16335 56.1348 4.90483C55.853 4.64631 55.4752 4.51705 55.0012 4.51705C54.5869 4.51705 54.224 4.62642 53.9125 4.84517C53.6042 5.06061 53.3639 5.36884 53.1916 5.76989C53.0192 6.16761 52.9331 6.63826 52.9331 7.18182C52.9331 7.73864 53.0176 8.21922 53.1866 8.62358C53.3556 9.02794 53.5943 9.34115 53.9025 9.56321C54.2141 9.78527 54.5803 9.89631 55.0012 9.89631C55.283 9.89631 55.5382 9.84493 55.7669 9.74219C55.9989 9.63613 56.1928 9.48532 56.3485 9.28977C56.5076 9.09422 56.6187 8.8589 56.6816 8.58381H58.1284C58.0753 9.07765 57.9146 9.51847 57.6461 9.90625C57.3777 10.294 57.0181 10.599 56.5673 10.821C56.1199 11.0431 55.5945 11.1541 54.9913 11.1541ZM61.2045 0.818182V11H59.718V0.818182H61.2045ZM66.4956 11.1541C65.7432 11.1541 65.0952 10.9934 64.5517 10.6719C64.0114 10.3471 63.5938 9.89134 63.2988 9.30469C63.0072 8.71473 62.8613 8.02367 62.8613 7.23153C62.8613 6.44934 63.0072 5.75994 63.2988 5.16335C63.5938 4.56676 64.0048 4.10109 64.5318 3.76633C65.0621 3.43158 65.6819 3.2642 66.3912 3.2642C66.822 3.2642 67.2396 3.33546 67.644 3.47798C68.0484 3.6205 68.4113 3.84422 68.7328 4.14915C69.0543 4.45407 69.3078 4.85014 69.4934 5.33736C69.679 5.82126 69.7718 6.40956 69.7718 7.10227V7.62926H63.7015V6.51562H68.3152C68.3152 6.12453 68.2356 5.77817 68.0765 5.47656C67.9174 5.17164 67.6937 4.93134 67.4054 4.75568C67.1203 4.58002 66.7856 4.49219 66.4011 4.49219C65.9835 4.49219 65.6189 4.59493 65.3074 4.80043C64.9991 5.0026 64.7605 5.26776 64.5914 5.59588C64.4257 5.92069 64.3429 6.27367 64.3429 6.65483V7.52486C64.3429 8.03527 64.4324 8.46946 64.6113 8.82741C64.7936 9.18537 65.0472 9.45881 65.372 9.64773C65.6968 9.83333 66.0763 9.92614 66.5105 9.92614C66.7922 9.92614 67.0491 9.88636 67.2811 9.80682C67.5131 9.72396 67.7136 9.60133 67.8826 9.43892C68.0517 9.27652 68.1809 9.07599 68.2704 8.83736L69.6774 9.09091C69.5647 9.50521 69.3625 9.86813 69.0708 10.1797C68.7825 10.4879 68.4196 10.7282 67.9821 10.9006C67.5479 11.0696 67.0524 11.1541 66.4956 11.1541Z" fill="black"/>
</svg>
