<svg width="96" height="12" viewBox="0 0 96 12" fill="none" xmlns="http://www.w3.org/2000/svg">
<path d="M1.4858 6.46591V11H-0.000710189V0.818182H1.46591V4.60653H1.56037C1.73935 4.19555 2.01278 3.86908 2.38068 3.62713C2.74858 3.38518 3.22917 3.2642 3.82244 3.2642C4.34612 3.2642 4.8035 3.37192 5.1946 3.58736C5.58902 3.80279 5.89394 4.12429 6.10938 4.55185C6.32812 4.97609 6.4375 5.50639 6.4375 6.14276V11H4.95099V6.32173C4.95099 5.7616 4.80682 5.32741 4.51847 5.01918C4.23011 4.70762 3.82907 4.55185 3.31534 4.55185C2.96402 4.55185 2.64915 4.62642 2.37074 4.77557C2.09564 4.92472 1.87855 5.14347 1.71946 5.43182C1.56368 5.71686 1.4858 6.06155 1.4858 6.46591ZM11.7124 11.1541C10.96 11.1541 10.312 10.9934 9.76847 10.6719C9.22822 10.3471 8.81061 9.89134 8.51562 9.30469C8.22396 8.71473 8.07812 8.02367 8.07812 7.23153C8.07812 6.44934 8.22396 5.75994 8.51562 5.16335C8.81061 4.56676 9.22159 4.10109 9.74858 3.76633C10.2789 3.43158 10.8987 3.2642 11.608 3.2642C12.0388 3.2642 12.4564 3.33546 12.8608 3.47798C13.2652 3.6205 13.6281 3.84422 13.9496 4.14915C14.2711 4.45407 14.5246 4.85014 14.7102 5.33736C14.8958 5.82126 14.9886 6.40956 14.9886 7.10227V7.62926H8.91832V6.51562H13.532C13.532 6.12453 13.4524 5.77817 13.2933 5.47656C13.1342 5.17164 12.9105 4.93134 12.6222 4.75568C12.3371 4.58002 12.0024 4.49219 11.6179 4.49219C11.2003 4.49219 10.8357 4.59493 10.5241 4.80043C10.2159 5.0026 9.97727 5.26776 9.80824 5.59588C9.64252 5.92069 9.55966 6.27367 9.55966 6.65483V7.52486C9.55966 8.03527 9.64915 8.46946 9.82812 8.82741C10.0104 9.18537 10.264 9.45881 10.5888 9.64773C10.9136 9.83333 11.2931 9.92614 11.7273 9.92614C12.009 9.92614 12.2659 9.88636 12.4979 9.80682C12.7299 9.72396 12.9304 9.60133 13.0994 9.43892C13.2685 9.27652 13.3977 9.07599 13.4872 8.83736L14.8942 9.09091C14.7815 9.50521 14.5793 9.86813 14.2876 10.1797C13.9993 10.4879 13.6364 10.7282 13.1989 10.9006C12.7647 11.0696 12.2692 11.1541 11.7124 11.1541ZM18.8603 11.169C18.3764 11.169 17.9389 11.0795 17.5478 10.9006C17.1567 10.7183 16.8468 10.4548 16.6181 10.1101C16.3927 9.76539 16.28 9.3428 16.28 8.84233C16.28 8.41146 16.3629 8.05682 16.5286 7.77841C16.6943 7.5 16.918 7.27959 17.1998 7.11719C17.4815 6.95478 17.7963 6.83215 18.1444 6.74929C18.4924 6.66643 18.847 6.60346 19.2083 6.56037C19.6657 6.50734 20.0369 6.46425 20.3219 6.43111C20.6069 6.39465 20.8141 6.33665 20.9434 6.2571C21.0726 6.17756 21.1373 6.0483 21.1373 5.86932V5.83452C21.1373 5.40033 21.0146 5.06392 20.7694 4.82528C20.5274 4.58665 20.1661 4.46733 19.6855 4.46733C19.1851 4.46733 18.7907 4.57836 18.5023 4.80043C18.2173 5.01918 18.0201 5.26278 17.9107 5.53125L16.5137 5.21307C16.6794 4.74905 16.9213 4.37453 17.2395 4.08949C17.561 3.80114 17.9306 3.59233 18.3482 3.46307C18.7658 3.33049 19.205 3.2642 19.6657 3.2642C19.9706 3.2642 20.2937 3.30066 20.6351 3.37358C20.9798 3.44318 21.3013 3.57244 21.5996 3.76136C21.9012 3.95028 22.1481 4.22041 22.3404 4.57173C22.5326 4.91974 22.6287 5.37216 22.6287 5.92898V11H21.177V9.95597H21.1174C21.0212 10.1482 20.8771 10.3371 20.6848 10.5227C20.4926 10.7083 20.2457 10.8625 19.9441 10.9851C19.6425 11.1077 19.2812 11.169 18.8603 11.169ZM19.1834 9.97585C19.5944 9.97585 19.9457 9.89465 20.2374 9.73224C20.5324 9.56984 20.7561 9.35772 20.9086 9.09588C21.0643 8.83073 21.1422 8.54735 21.1422 8.24574V7.26136C21.0892 7.31439 20.9864 7.36411 20.834 7.41051C20.6848 7.4536 20.5141 7.49171 20.3219 7.52486C20.1297 7.55469 19.9424 7.58286 19.7601 7.60938C19.5778 7.63258 19.4254 7.65246 19.3027 7.66903C19.0144 7.70549 18.7509 7.76681 18.5123 7.85298C18.2769 7.93916 18.088 8.06345 17.9455 8.22585C17.8063 8.38494 17.7367 8.59706 17.7367 8.86222C17.7367 9.23011 17.8726 9.50852 18.1444 9.69744C18.4161 9.88305 18.7625 9.97585 19.1834 9.97585ZM24.6087 11V3.36364H26.0455V4.5767H26.125C26.2642 4.16572 26.5095 3.84257 26.8608 3.60724C27.2154 3.36861 27.6165 3.24929 28.0639 3.24929C28.1567 3.24929 28.2661 3.2526 28.392 3.25923C28.5213 3.26586 28.6224 3.27415 28.6953 3.28409V4.70597C28.6357 4.68939 28.5296 4.67116 28.3771 4.65128C28.2247 4.62808 28.0722 4.61648 27.9197 4.61648C27.5684 4.61648 27.2552 4.69105 26.9801 4.8402C26.7083 4.98603 26.4929 5.18987 26.3338 5.4517C26.1747 5.71023 26.0952 6.00521 26.0952 6.33665V11H24.6087ZM33.9975 3.36364V4.55682H29.8263V3.36364H33.9975ZM30.945 1.53409H32.4315V8.75781C32.4315 9.04616 32.4746 9.26326 32.5607 9.40909C32.6469 9.55161 32.7579 9.64938 32.8938 9.70241C33.033 9.75213 33.1838 9.77699 33.3462 9.77699C33.4656 9.77699 33.57 9.7687 33.6594 9.75213C33.7489 9.73556 33.8185 9.7223 33.8683 9.71236L34.1367 10.9403C34.0505 10.9735 33.9279 11.0066 33.7688 11.0398C33.6097 11.0762 33.4109 11.0961 33.1722 11.0994C32.7811 11.1061 32.4165 11.0365 32.0785 10.8906C31.7404 10.7448 31.467 10.5194 31.2582 10.2145C31.0494 9.90956 30.945 9.52675 30.945 9.06605V1.53409ZM39.8814 6.05327V7.34091H35.3672V6.05327H39.8814ZM41.8626 11V3.36364H43.2994V4.5767H43.3789C43.5181 4.16572 43.7634 3.84257 44.1147 3.60724C44.4693 3.36861 44.8704 3.24929 45.3178 3.24929C45.4106 3.24929 45.52 3.2526 45.646 3.25923C45.7752 3.26586 45.8763 3.27415 45.9492 3.28409V4.70597C45.8896 4.68939 45.7835 4.67116 45.631 4.65128C45.4786 4.62808 45.3261 4.61648 45.1737 4.61648C44.8223 4.61648 44.5091 4.69105 44.234 4.8402C43.9622 4.98603 43.7468 5.18987 43.5877 5.4517C43.4286 5.71023 43.3491 6.00521 43.3491 6.33665V11H41.8626ZM50.1788 11.1541C49.4629 11.1541 48.8381 10.9901 48.3045 10.6619C47.7709 10.3338 47.3566 9.87476 47.0616 9.2848C46.7666 8.69484 46.6191 8.00544 46.6191 7.21662C46.6191 6.42448 46.7666 5.73177 47.0616 5.13849C47.3566 4.54522 47.7709 4.08452 48.3045 3.75639C48.8381 3.42827 49.4629 3.2642 50.1788 3.2642C50.8947 3.2642 51.5195 3.42827 52.0531 3.75639C52.5867 4.08452 53.001 4.54522 53.296 5.13849C53.591 5.73177 53.7385 6.42448 53.7385 7.21662C53.7385 8.00544 53.591 8.69484 53.296 9.2848C53.001 9.87476 52.5867 10.3338 52.0531 10.6619C51.5195 10.9901 50.8947 11.1541 50.1788 11.1541ZM50.1838 9.90625C50.6478 9.90625 51.0323 9.78362 51.3372 9.53835C51.6421 9.29309 51.8675 8.96662 52.0133 8.55895C52.1625 8.15128 52.237 7.70218 52.237 7.21165C52.237 6.72443 52.1625 6.27699 52.0133 5.86932C51.8675 5.45833 51.6421 5.12855 51.3372 4.87997C51.0323 4.63139 50.6478 4.5071 50.1838 4.5071C49.7164 4.5071 49.3287 4.63139 49.0204 4.87997C48.7155 5.12855 48.4885 5.45833 48.3393 5.86932C48.1935 6.27699 48.1206 6.72443 48.1206 7.21165C48.1206 7.70218 48.1935 8.15128 48.3393 8.55895C48.4885 8.96662 48.7155 9.29309 49.0204 9.53835C49.3287 9.78362 49.7164 9.90625 50.1838 9.90625ZM60.2351 7.8331V3.36364H61.7266V11H60.2649V9.67756H60.1854C60.0097 10.0852 59.728 10.425 59.3402 10.6967C58.9557 10.9652 58.4768 11.0994 57.9034 11.0994C57.4129 11.0994 56.9787 10.9917 56.6009 10.7763C56.2263 10.5575 55.9313 10.2344 55.7159 9.80682C55.5038 9.37926 55.3977 8.85062 55.3977 8.22088V3.36364H56.8842V8.0419C56.8842 8.56226 57.0284 8.97656 57.3168 9.2848C57.6051 9.59304 57.9796 9.74716 58.4403 9.74716C58.7188 9.74716 58.9955 9.67756 59.2706 9.53835C59.549 9.39915 59.7794 9.18868 59.9616 8.90696C60.1473 8.62524 60.2384 8.26728 60.2351 7.8331ZM65.2104 6.46591V11H63.7239V3.36364H65.1507V4.60653H65.2452C65.4209 4.20218 65.696 3.87737 66.0705 3.6321C66.4483 3.38684 66.9239 3.2642 67.4973 3.2642C68.0177 3.2642 68.4734 3.37358 68.8645 3.59233C69.2556 3.80777 69.5589 4.12926 69.7743 4.55682C69.9898 4.98437 70.0975 5.51302 70.0975 6.14276V11H68.611V6.32173C68.611 5.76823 68.4668 5.3357 68.1784 5.02415C67.8901 4.70928 67.494 4.55185 66.9902 4.55185C66.6455 4.55185 66.339 4.62642 66.0705 4.77557C65.8053 4.92472 65.5949 5.14347 65.4391 5.43182C65.2866 5.71686 65.2104 6.06155 65.2104 6.46591ZM74.9498 11.1491C74.3333 11.1491 73.7831 10.9917 73.2992 10.6768C72.8186 10.3587 72.4408 9.90625 72.1657 9.3196C71.8939 8.72964 71.758 8.02202 71.758 7.19673C71.758 6.37145 71.8955 5.66548 72.1706 5.07884C72.449 4.49219 72.8302 4.04309 73.3141 3.73153C73.798 3.41998 74.3465 3.2642 74.9597 3.2642C75.4337 3.2642 75.8148 3.34375 76.1032 3.50284C76.3948 3.65862 76.6202 3.84091 76.7793 4.04972C76.9417 4.25852 77.0676 4.44247 77.1571 4.60156H77.2466V0.818182H78.7331V11H77.2814V9.81179H77.1571C77.0676 9.9742 76.9384 10.1598 76.7694 10.3686C76.6036 10.5774 76.3749 10.7597 76.0833 10.9155C75.7916 11.0713 75.4138 11.1491 74.9498 11.1491ZM75.2779 9.88139C75.7054 9.88139 76.0667 9.7687 76.3617 9.54332C76.66 9.31463 76.8854 8.99811 77.0378 8.59375C77.1936 8.18939 77.2715 7.71875 77.2715 7.18182C77.2715 6.65151 77.1953 6.1875 77.0428 5.78977C76.8903 5.39205 76.6666 5.08215 76.3716 4.86009C76.0766 4.63802 75.7121 4.52699 75.2779 4.52699C74.8304 4.52699 74.4576 4.64299 74.1593 4.875C73.861 5.10701 73.6356 5.42353 73.4831 5.82457C73.334 6.22562 73.2594 6.67803 73.2594 7.18182C73.2594 7.69223 73.3356 8.15128 73.4881 8.55895C73.6406 8.96662 73.8659 9.28977 74.1642 9.52841C74.4658 9.76373 74.8371 9.88139 75.2779 9.88139ZM84.146 11.1541C83.3936 11.1541 82.7456 10.9934 82.2021 10.6719C81.6618 10.3471 81.2442 9.89134 80.9492 9.30469C80.6576 8.71473 80.5117 8.02367 80.5117 7.23153C80.5117 6.44934 80.6576 5.75994 80.9492 5.16335C81.2442 4.56676 81.6552 4.10109 82.1822 3.76633C82.7125 3.43158 83.3323 3.2642 84.0415 3.2642C84.4724 3.2642 84.89 3.33546 85.2944 3.47798C85.6987 3.6205 86.0617 3.84422 86.3832 4.14915C86.7047 4.45407 86.9582 4.85014 87.1438 5.33736C87.3294 5.82126 87.4222 6.40956 87.4222 7.10227V7.62926H81.3519V6.51562H85.9656C85.9656 6.12453 85.886 5.77817 85.7269 5.47656C85.5678 5.17164 85.3441 4.93134 85.0558 4.75568C84.7707 4.58002 84.436 4.49219 84.0515 4.49219C83.6339 4.49219 83.2693 4.59493 82.9577 4.80043C82.6495 5.0026 82.4109 5.26776 82.2418 5.59588C82.0761 5.92069 81.9933 6.27367 81.9933 6.65483V7.52486C81.9933 8.03527 82.0827 8.46946 82.2617 8.82741C82.444 9.18537 82.6976 9.45881 83.0224 9.64773C83.3472 9.83333 83.7267 9.92614 84.1609 9.92614C84.4426 9.92614 84.6995 9.88636 84.9315 9.80682C85.1635 9.72396 85.364 9.60133 85.533 9.43892C85.7021 9.27652 85.8313 9.07599 85.9208 8.83736L87.3278 9.09091C87.2151 9.50521 87.0129 9.86813 86.7212 10.1797C86.4329 10.4879 86.07 10.7282 85.6325 10.9006C85.1983 11.0696 84.7028 11.1541 84.146 11.1541ZM91.9302 11.1491C91.3137 11.1491 90.7636 10.9917 90.2797 10.6768C89.7991 10.3587 89.4212 9.90625 89.1461 9.3196C88.8743 8.72964 88.7385 8.02202 88.7385 7.19673C88.7385 6.37145 88.876 5.66548 89.1511 5.07884C89.4295 4.49219 89.8107 4.04309 90.2946 3.73153C90.7785 3.41998 91.327 3.2642 91.9402 3.2642C92.4141 3.2642 92.7953 3.34375 93.0836 3.50284C93.3753 3.65862 93.6007 3.84091 93.7598 4.04972C93.9222 4.25852 94.0481 4.44247 94.1376 4.60156H94.2271V0.818182H95.7136V11H94.2619V9.81179H94.1376C94.0481 9.9742 93.9189 10.1598 93.7498 10.3686C93.5841 10.5774 93.3554 10.7597 93.0637 10.9155C92.7721 11.0713 92.3942 11.1491 91.9302 11.1491ZM92.2583 9.88139C92.6859 9.88139 93.0472 9.7687 93.3422 9.54332C93.6404 9.31463 93.8658 8.99811 94.0183 8.59375C94.1741 8.18939 94.252 7.71875 94.252 7.18182C94.252 6.65151 94.1757 6.1875 94.0233 5.78977C93.8708 5.39205 93.6471 5.08215 93.3521 4.86009C93.0571 4.63802 92.6925 4.52699 92.2583 4.52699C91.8109 4.52699 91.438 4.64299 91.1397 4.875C90.8414 5.10701 90.6161 5.42353 90.4636 5.82457C90.3145 6.22562 90.2399 6.67803 90.2399 7.18182C90.2399 7.69223 90.3161 8.15128 90.4686 8.55895C90.621 8.96662 90.8464 9.28977 91.1447 9.52841C91.4463 9.76373 91.8175 9.88139 92.2583 9.88139Z" fill="black"/>
</svg>
