<svg width="49" height="14" viewBox="0 0 49 14" fill="none" xmlns="http://www.w3.org/2000/svg">
<path d="M3.22159 11.169C2.73769 11.169 2.30019 11.0795 1.90909 10.9006C1.51799 10.7183 1.2081 10.4548 0.979403 10.1101C0.754025 9.76539 0.641335 9.3428 0.641335 8.84233C0.641335 8.41146 0.724195 8.05682 0.889915 7.77841C1.05563 7.5 1.27936 7.27959 1.56108 7.11719C1.8428 6.95478 2.15767 6.83215 2.50568 6.74929C2.85369 6.66643 3.20833 6.60346 3.5696 6.56037C4.02699 6.50734 4.3982 6.46425 4.68324 6.43111C4.96828 6.39465 5.17543 6.33665 5.30469 6.2571C5.43395 6.17756 5.49858 6.0483 5.49858 5.86932V5.83452C5.49858 5.40033 5.37595 5.06392 5.13068 4.82528C4.88873 4.58665 4.52746 4.46733 4.04688 4.46733C3.5464 4.46733 3.15199 4.57836 2.86364 4.80043C2.5786 5.01918 2.38139 5.26278 2.27202 5.53125L0.875 5.21307C1.04072 4.74905 1.28267 4.37453 1.60085 4.08949C1.92235 3.80114 2.2919 3.59233 2.70952 3.46307C3.12713 3.33049 3.56629 3.2642 4.02699 3.2642C4.33191 3.2642 4.65507 3.30066 4.99645 3.37358C5.34115 3.44318 5.66264 3.57244 5.96094 3.76136C6.26255 3.95028 6.50947 4.22041 6.7017 4.57173C6.89394 4.91974 6.99006 5.37216 6.99006 5.92898V11H5.53835V9.95597H5.47869C5.38258 10.1482 5.2384 10.3371 5.04616 10.5227C4.85393 10.7083 4.60701 10.8625 4.3054 10.9851C4.00379 11.1077 3.64252 11.169 3.22159 11.169ZM3.54474 9.97585C3.95573 9.97585 4.30706 9.89465 4.59872 9.73224C4.8937 9.56984 5.11742 9.35772 5.26989 9.09588C5.42566 8.83073 5.50355 8.54735 5.50355 8.24574V7.26136C5.45052 7.31439 5.34777 7.36411 5.19531 7.41051C5.04616 7.4536 4.87547 7.49171 4.68324 7.52486C4.491 7.55469 4.30374 7.58286 4.12145 7.60938C3.93916 7.63258 3.7867 7.65246 3.66406 7.66903C3.37571 7.70549 3.11222 7.76681 2.87358 7.85298C2.63826 7.93916 2.44934 8.06345 2.30682 8.22585C2.16761 8.38494 2.09801 8.59706 2.09801 8.86222C2.09801 9.23011 2.2339 9.50852 2.50568 9.69744C2.77746 9.88305 3.12382 9.97585 3.54474 9.97585ZM12.1866 11.1541C11.4475 11.1541 10.8111 10.9867 10.2775 10.652C9.74722 10.3139 9.33955 9.84825 9.05451 9.25497C8.76947 8.66169 8.62695 7.98224 8.62695 7.21662C8.62695 6.44105 8.77279 5.75663 9.06445 5.16335C9.35612 4.56676 9.7671 4.10109 10.2974 3.76633C10.8277 3.43158 11.4525 3.2642 12.1717 3.2642C12.7517 3.2642 13.2688 3.37192 13.7228 3.58736C14.1769 3.79948 14.5431 4.09777 14.8216 4.48224C15.1033 4.86671 15.2707 5.31581 15.3237 5.82955H13.877C13.7974 5.47159 13.6151 5.16335 13.3301 4.90483C13.0484 4.64631 12.6705 4.51705 12.1966 4.51705C11.7823 4.51705 11.4193 4.62642 11.1078 4.84517C10.7995 5.06061 10.5592 5.36884 10.3869 5.76989C10.2145 6.16761 10.1284 6.63826 10.1284 7.18182C10.1284 7.73864 10.2129 8.21922 10.3819 8.62358C10.551 9.02794 10.7896 9.34115 11.0978 9.56321C11.4094 9.78527 11.7756 9.89631 12.1966 9.89631C12.4783 9.89631 12.7335 9.84493 12.9622 9.74219C13.1942 9.63613 13.3881 9.48532 13.5439 9.28977C13.7029 9.09422 13.814 8.8589 13.877 8.58381H15.3237C15.2707 9.07765 15.1099 9.51847 14.8414 9.90625C14.573 10.294 14.2134 10.599 13.7626 10.821C13.3152 11.0431 12.7898 11.1541 12.1866 11.1541ZM20.478 3.36364V4.55682H16.3068V3.36364H20.478ZM17.4254 1.53409H18.9119V8.75781C18.9119 9.04616 18.955 9.26326 19.0412 9.40909C19.1274 9.55161 19.2384 9.64938 19.3743 9.70241C19.5135 9.75213 19.6643 9.77699 19.8267 9.77699C19.946 9.77699 20.0504 9.7687 20.1399 9.75213C20.2294 9.73556 20.299 9.7223 20.3487 9.71236L20.6172 10.9403C20.531 10.9735 20.4084 11.0066 20.2493 11.0398C20.0902 11.0762 19.8913 11.0961 19.6527 11.0994C19.2616 11.1061 18.897 11.0365 18.5589 10.8906C18.2209 10.7448 17.9474 10.5194 17.7386 10.2145C17.5298 9.90956 17.4254 9.52675 17.4254 9.06605V1.53409ZM22.1223 11V3.36364H23.6088V11H22.1223ZM22.873 2.18537C22.6145 2.18537 22.3925 2.09919 22.2069 1.92685C22.0246 1.75118 21.9334 1.54238 21.9334 1.30043C21.9334 1.05516 22.0246 0.846354 22.2069 0.674005C22.3925 0.498342 22.6145 0.410511 22.873 0.410511C23.1316 0.410511 23.352 0.498342 23.5343 0.674005C23.7199 0.846354 23.8127 1.05516 23.8127 1.30043C23.8127 1.54238 23.7199 1.75118 23.5343 1.92685C23.352 2.09919 23.1316 2.18537 22.873 2.18537ZM32.1413 3.36364L29.3722 11H27.7812L25.0071 3.36364H26.603L28.5369 9.24006H28.6165L30.5455 3.36364H32.1413ZM33.5384 11V3.36364H35.0249V11H33.5384ZM34.2891 2.18537C34.0305 2.18537 33.8085 2.09919 33.6229 1.92685C33.4406 1.75118 33.3494 1.54238 33.3494 1.30043C33.3494 1.05516 33.4406 0.846354 33.6229 0.674005C33.8085 0.498342 34.0305 0.410511 34.2891 0.410511C34.5476 0.410511 34.768 0.498342 34.9503 0.674005C35.1359 0.846354 35.2287 1.05516 35.2287 1.30043C35.2287 1.54238 35.1359 1.75118 34.9503 1.92685C34.768 2.09919 34.5476 2.18537 34.2891 2.18537ZM40.5893 3.36364V4.55682H36.4181V3.36364H40.5893ZM37.5368 1.53409H39.0233V8.75781C39.0233 9.04616 39.0663 9.26326 39.1525 9.40909C39.2387 9.55161 39.3497 9.64938 39.4856 9.70241C39.6248 9.75213 39.7756 9.77699 39.938 9.77699C40.0574 9.77699 40.1618 9.7687 40.2512 9.75213C40.3407 9.73556 40.4103 9.7223 40.46 9.71236L40.7285 10.9403C40.6423 10.9735 40.5197 11.0066 40.3606 11.0398C40.2015 11.0762 40.0027 11.0961 39.764 11.0994C39.3729 11.1061 39.0083 11.0365 38.6703 10.8906C38.3322 10.7448 38.0588 10.5194 37.85 10.2145C37.6412 9.90956 37.5368 9.52675 37.5368 9.06605V1.53409ZM43.1733 13.8636C42.9512 13.8636 42.7491 13.8454 42.5668 13.8089C42.3845 13.7758 42.2486 13.7393 42.1591 13.6996L42.517 12.4815C42.7888 12.5545 43.0308 12.5859 43.2429 12.576C43.455 12.5661 43.6423 12.4865 43.8047 12.3374C43.9704 12.1882 44.1162 11.9446 44.2422 11.6065L44.4261 11.0994L41.6321 3.36364H43.223L45.157 9.28977H45.2365L47.1705 3.36364H48.7663L45.6193 12.0192C45.4735 12.4169 45.2879 12.7533 45.0625 13.0284C44.8371 13.3068 44.5687 13.5156 44.2571 13.6548C43.9455 13.794 43.5843 13.8636 43.1733 13.8636Z" fill="black"/>
</svg>
