<svg width="144" height="14" viewBox="0 0 144 14" fill="none" xmlns="http://www.w3.org/2000/svg">
<path d="M4.21591 11.1541C3.4768 11.1541 2.84044 10.9867 2.30682 10.652C1.77652 10.3139 1.36884 9.84825 1.08381 9.25497C0.798769 8.66169 0.65625 7.98224 0.65625 7.21662C0.65625 6.44105 0.802083 5.75663 1.09375 5.16335C1.38542 4.56676 1.7964 4.10109 2.3267 3.76633C2.85701 3.43158 3.48177 3.2642 4.20099 3.2642C4.78101 3.2642 5.29806 3.37192 5.75213 3.58736C6.2062 3.79948 6.57244 4.09777 6.85085 4.48224C7.13258 4.86671 7.29995 5.31581 7.35298 5.82955H5.90625C5.8267 5.47159 5.64441 5.16335 5.35938 4.90483C5.07765 4.64631 4.69981 4.51705 4.22585 4.51705C3.81155 4.51705 3.44863 4.62642 3.13707 4.84517C2.82884 5.06061 2.58854 5.36884 2.41619 5.76989C2.24384 6.16761 2.15767 6.63826 2.15767 7.18182C2.15767 7.73864 2.24219 8.21922 2.41122 8.62358C2.58026 9.02794 2.81889 9.34115 3.12713 9.56321C3.43868 9.78527 3.80492 9.89631 4.22585 9.89631C4.50758 9.89631 4.76278 9.84493 4.99148 9.74219C5.22349 9.63613 5.41738 9.48532 5.57315 9.28977C5.73224 9.09422 5.84328 8.8589 5.90625 8.58381H7.35298C7.29995 9.07765 7.1392 9.51847 6.87074 9.90625C6.60227 10.294 6.24266 10.599 5.7919 10.821C5.34446 11.0431 4.81913 11.1541 4.21591 11.1541ZM10.4292 6.46591V11H8.94265V0.818182H10.4093V4.60653H10.5037C10.6827 4.19555 10.9561 3.86908 11.324 3.62713C11.6919 3.38518 12.1725 3.2642 12.7658 3.2642C13.2895 3.2642 13.7469 3.37192 14.138 3.58736C14.5324 3.80279 14.8373 4.12429 15.0527 4.55185C15.2715 4.97609 15.3809 5.50639 15.3809 6.14276V11H13.8944V6.32173C13.8944 5.7616 13.7502 5.32741 13.4618 5.01918C13.1735 4.70762 12.7724 4.55185 12.2587 4.55185C11.9074 4.55185 11.5925 4.62642 11.3141 4.77557C11.039 4.92472 10.8219 5.14347 10.6628 5.43182C10.507 5.71686 10.4292 6.06155 10.4292 6.46591ZM20.6557 11.1541C19.9033 11.1541 19.2554 10.9934 18.7118 10.6719C18.1716 10.3471 17.754 9.89134 17.459 9.30469C17.1673 8.71473 17.0215 8.02367 17.0215 7.23153C17.0215 6.44934 17.1673 5.75994 17.459 5.16335C17.754 4.56676 18.165 4.10109 18.6919 3.76633C19.2222 3.43158 19.842 3.2642 20.5513 3.2642C20.9822 3.2642 21.3998 3.33546 21.8042 3.47798C22.2085 3.6205 22.5714 3.84422 22.8929 4.14915C23.2144 4.45407 23.468 4.85014 23.6536 5.33736C23.8392 5.82126 23.932 6.40956 23.932 7.10227V7.62926H17.8617V6.51562H22.4753C22.4753 6.12453 22.3958 5.77817 22.2367 5.47656C22.0776 5.17164 21.8539 4.93134 21.5655 4.75568C21.2805 4.58002 20.9457 4.49219 20.5613 4.49219C20.1436 4.49219 19.7791 4.59493 19.4675 4.80043C19.1593 5.0026 18.9206 5.26776 18.7516 5.59588C18.5859 5.92069 18.503 6.27367 18.503 6.65483V7.52486C18.503 8.03527 18.5925 8.46946 18.7715 8.82741C18.9538 9.18537 19.2073 9.45881 19.5321 9.64773C19.8569 9.83333 20.2364 9.92614 20.6706 9.92614C20.9524 9.92614 21.2092 9.88636 21.4412 9.80682C21.6732 9.72396 21.8738 9.60133 22.0428 9.43892C22.2118 9.27652 22.3411 9.07599 22.4306 8.83736L23.8375 9.09091C23.7248 9.50521 23.5227 9.86813 23.231 10.1797C22.9426 10.4879 22.5797 10.7282 22.1422 10.9006C21.708 11.0696 21.2125 11.1541 20.6557 11.1541ZM28.7979 11.1541C28.0588 11.1541 27.4225 10.9867 26.8888 10.652C26.3585 10.3139 25.9509 9.84825 25.6658 9.25497C25.3808 8.66169 25.2383 7.98224 25.2383 7.21662C25.2383 6.44105 25.3841 5.75663 25.6758 5.16335C25.9674 4.56676 26.3784 4.10109 26.9087 3.76633C27.439 3.43158 28.0638 3.2642 28.783 3.2642C29.363 3.2642 29.8801 3.37192 30.3342 3.58736C30.7882 3.79948 31.1545 4.09777 31.4329 4.48224C31.7146 4.86671 31.882 5.31581 31.935 5.82955H30.4883C30.4087 5.47159 30.2264 5.16335 29.9414 4.90483C29.6597 4.64631 29.2818 4.51705 28.8079 4.51705C28.3936 4.51705 28.0307 4.62642 27.7191 4.84517C27.4109 5.06061 27.1706 5.36884 26.9982 5.76989C26.8259 6.16761 26.7397 6.63826 26.7397 7.18182C26.7397 7.73864 26.8242 8.21922 26.9933 8.62358C27.1623 9.02794 27.4009 9.34115 27.7092 9.56321C28.0207 9.78527 28.387 9.89631 28.8079 9.89631C29.0896 9.89631 29.3448 9.84493 29.5735 9.74219C29.8055 9.63613 29.9994 9.48532 30.1552 9.28977C30.3143 9.09422 30.4253 8.8589 30.4883 8.58381H31.935C31.882 9.07765 31.7212 9.51847 31.4528 9.90625C31.1843 10.294 30.8247 10.599 30.3739 10.821C29.9265 11.0431 29.4012 11.1541 28.7979 11.1541ZM34.8919 8.4098L34.8819 6.59517H35.1404L38.1831 3.36364H39.9629L36.4927 7.04261H36.2591L34.8919 8.4098ZM33.5247 11V0.818182H35.0112V11H33.5247ZM38.3471 11L35.6127 7.37074L36.6369 6.33168L40.1717 11H38.3471ZM45.2974 6.05327V7.34091H40.7832V6.05327H45.2974ZM53.0009 5.22798L51.6536 5.46662C51.5972 5.29427 51.5078 5.13021 51.3851 4.97443C51.2658 4.81865 51.1034 4.69105 50.8979 4.59162C50.6924 4.49219 50.4355 4.44247 50.1273 4.44247C49.7064 4.44247 49.3551 4.53693 49.0733 4.72585C48.7916 4.91146 48.6507 5.15175 48.6507 5.44673C48.6507 5.70194 48.7452 5.90743 48.9341 6.06321C49.123 6.21899 49.428 6.34659 49.8489 6.44602L51.062 6.72443C51.7646 6.88684 52.2883 7.13707 52.633 7.47514C52.9777 7.81321 53.15 8.25237 53.15 8.79261C53.15 9.25 53.0175 9.65767 52.7523 10.0156C52.4905 10.3703 52.1242 10.6487 51.6536 10.8509C51.1863 11.053 50.6444 11.1541 50.0279 11.1541C49.1728 11.1541 48.4751 10.9718 47.9348 10.6072C47.3946 10.2393 47.0632 9.71733 46.9405 9.04119L48.3773 8.82244C48.4668 9.19697 48.6507 9.48035 48.9292 9.67259C49.2076 9.86151 49.5705 9.95597 50.0179 9.95597C50.5051 9.95597 50.8946 9.85488 51.1863 9.6527C51.4779 9.44721 51.6238 9.19697 51.6238 8.90199C51.6238 8.66335 51.5343 8.46283 51.3553 8.30043C51.1796 8.13802 50.9095 8.01539 50.5449 7.93253L49.2523 7.64915C48.5397 7.48674 48.0127 7.22822 47.6713 6.87358C47.3333 6.51894 47.1642 6.06984 47.1642 5.52628C47.1642 5.07552 47.2902 4.68111 47.5421 4.34304C47.794 4.00497 48.142 3.74148 48.5861 3.55256C49.0302 3.36032 49.539 3.2642 50.1124 3.2642C50.9377 3.2642 51.5873 3.44318 52.0613 3.80114C52.5352 4.15578 52.8484 4.63139 53.0009 5.22798ZM59.94 13.8636V9.81179H59.8505C59.761 9.9742 59.6317 10.1598 59.4627 10.3686C59.297 10.5774 59.0683 10.7597 58.7766 10.9155C58.485 11.0713 58.1071 11.1491 57.6431 11.1491C57.0266 11.1491 56.4764 10.9917 55.9925 10.6768C55.512 10.3587 55.1341 9.90625 54.859 9.3196C54.5872 8.72964 54.4513 8.02202 54.4513 7.19673C54.4513 6.37145 54.5889 5.66548 54.864 5.07884C55.1424 4.49219 55.5236 4.04309 56.0075 3.73153C56.4914 3.41998 57.0399 3.2642 57.6531 3.2642C58.127 3.2642 58.5082 3.34375 58.7965 3.50284C59.0882 3.65862 59.3136 3.84091 59.4727 4.04972C59.6351 4.25852 59.761 4.44247 59.8505 4.60156H59.9748V3.36364H61.4265V13.8636H59.94ZM57.9712 9.88139C58.3988 9.88139 58.7601 9.7687 59.055 9.54332C59.3533 9.31463 59.5787 8.99811 59.7312 8.59375C59.887 8.18939 59.9648 7.71875 59.9648 7.18182C59.9648 6.65151 59.8886 6.1875 59.7362 5.78977C59.5837 5.39205 59.36 5.08215 59.065 4.86009C58.77 4.63802 58.4054 4.52699 57.9712 4.52699C57.5238 4.52699 57.1509 4.64299 56.8526 4.875C56.5543 5.10701 56.329 5.42353 56.1765 5.82457C56.0273 6.22562 55.9528 6.67803 55.9528 7.18182C55.9528 7.69223 56.029 8.15128 56.1815 8.55895C56.3339 8.96662 56.5593 9.28977 56.8576 9.52841C57.1592 9.76373 57.5304 9.88139 57.9712 9.88139ZM68.2624 7.8331V3.36364H69.7539V11H68.2923V9.67756H68.2127C68.0371 10.0852 67.7553 10.425 67.3675 10.6967C66.9831 10.9652 66.5041 11.0994 65.9308 11.0994C65.4402 11.0994 65.006 10.9917 64.6282 10.7763C64.2537 10.5575 63.9587 10.2344 63.7433 9.80682C63.5311 9.37926 63.4251 8.85062 63.4251 8.22088V3.36364H64.9116V8.0419C64.9116 8.56226 65.0558 8.97656 65.3441 9.2848C65.6325 9.59304 66.007 9.74716 66.4677 9.74716C66.7461 9.74716 67.0228 9.67756 67.2979 9.53835C67.5763 9.39915 67.8067 9.18868 67.989 8.90696C68.1746 8.62524 68.2657 8.26728 68.2624 7.8331ZM73.9735 11.169C73.4896 11.169 73.0521 11.0795 72.661 10.9006C72.2699 10.7183 71.96 10.4548 71.7314 10.1101C71.506 9.76539 71.3933 9.3428 71.3933 8.84233C71.3933 8.41146 71.4761 8.05682 71.6419 7.77841C71.8076 7.5 72.0313 7.27959 72.313 7.11719C72.5948 6.95478 72.9096 6.83215 73.2576 6.74929C73.6056 6.66643 73.9603 6.60346 74.3216 6.56037C74.7789 6.50734 75.1502 6.46425 75.4352 6.43111C75.7202 6.39465 75.9274 6.33665 76.0566 6.2571C76.1859 6.17756 76.2505 6.0483 76.2505 5.86932V5.83452C76.2505 5.40033 76.1279 5.06392 75.8826 4.82528C75.6407 4.58665 75.2794 4.46733 74.7988 4.46733C74.2984 4.46733 73.9039 4.57836 73.6156 4.80043C73.3306 5.01918 73.1333 5.26278 73.024 5.53125L71.627 5.21307C71.7927 4.74905 72.0346 4.37453 72.3528 4.08949C72.6743 3.80114 73.0439 3.59233 73.4615 3.46307C73.8791 3.33049 74.3182 3.2642 74.7789 3.2642C75.0839 3.2642 75.407 3.30066 75.7484 3.37358C76.0931 3.44318 76.4146 3.57244 76.7129 3.76136C77.0145 3.95028 77.2614 4.22041 77.4537 4.57173C77.6459 4.91974 77.742 5.37216 77.742 5.92898V11H76.2903V9.95597H76.2306C76.1345 10.1482 75.9904 10.3371 75.7981 10.5227C75.6059 10.7083 75.359 10.8625 75.0574 10.9851C74.7557 11.1077 74.3945 11.169 73.9735 11.169ZM74.2967 9.97585C74.7077 9.97585 75.059 9.89465 75.3507 9.73224C75.6457 9.56984 75.8694 9.35772 76.0218 9.09588C76.1776 8.83073 76.2555 8.54735 76.2555 8.24574V7.26136C76.2025 7.31439 76.0997 7.36411 75.9473 7.41051C75.7981 7.4536 75.6274 7.49171 75.4352 7.52486C75.243 7.55469 75.0557 7.58286 74.8734 7.60938C74.6911 7.63258 74.5386 7.65246 74.416 7.66903C74.1277 7.70549 73.8642 7.76681 73.6255 7.85298C73.3902 7.93916 73.2013 8.06345 73.0588 8.22585C72.9196 8.38494 72.85 8.59706 72.85 8.86222C72.85 9.23011 72.9859 9.50852 73.2576 9.69744C73.5294 9.88305 73.8758 9.97585 74.2967 9.97585ZM79.7219 11V3.36364H81.1587V4.5767H81.2383C81.3775 4.16572 81.6228 3.84257 81.9741 3.60724C82.3287 3.36861 82.7298 3.24929 83.1772 3.24929C83.27 3.24929 83.3794 3.2526 83.5053 3.25923C83.6346 3.26586 83.7357 3.27415 83.8086 3.28409V4.70597C83.7489 4.68939 83.6429 4.67116 83.4904 4.65128C83.3379 4.62808 83.1855 4.61648 83.033 4.61648C82.6817 4.61648 82.3685 4.69105 82.0934 4.8402C81.8216 4.98603 81.6062 5.18987 81.4471 5.4517C81.288 5.71023 81.2085 6.00521 81.2085 6.33665V11H79.7219ZM88.1127 11.1541C87.3604 11.1541 86.7124 10.9934 86.1689 10.6719C85.6286 10.3471 85.211 9.89134 84.916 9.30469C84.6243 8.71473 84.4785 8.02367 84.4785 7.23153C84.4785 6.44934 84.6243 5.75994 84.916 5.16335C85.211 4.56676 85.622 4.10109 86.149 3.76633C86.6793 3.43158 87.2991 3.2642 88.0083 3.2642C88.4392 3.2642 88.8568 3.33546 89.2612 3.47798C89.6655 3.6205 90.0285 3.84422 90.35 4.14915C90.6715 4.45407 90.925 4.85014 91.1106 5.33736C91.2962 5.82126 91.389 6.40956 91.389 7.10227V7.62926H85.3187V6.51562H89.9324C89.9324 6.12453 89.8528 5.77817 89.6937 5.47656C89.5346 5.17164 89.3109 4.93134 89.0225 4.75568C88.7375 4.58002 88.4028 4.49219 88.0183 4.49219C87.6007 4.49219 87.2361 4.59493 86.9245 4.80043C86.6163 5.0026 86.3777 5.26776 86.2086 5.59588C86.0429 5.92069 85.96 6.27367 85.96 6.65483V7.52486C85.96 8.03527 86.0495 8.46946 86.2285 8.82741C86.4108 9.18537 86.6644 9.45881 86.9892 9.64773C87.314 9.83333 87.6935 9.92614 88.1277 9.92614C88.4094 9.92614 88.6663 9.88636 88.8983 9.80682C89.1303 9.72396 89.3308 9.60133 89.4998 9.43892C89.6689 9.27652 89.7981 9.07599 89.8876 8.83736L91.2946 9.09091C91.1819 9.50521 90.9797 9.86813 90.688 10.1797C90.3997 10.4879 90.0368 10.7282 89.5993 10.9006C89.1651 11.0696 88.6696 11.1541 88.1127 11.1541ZM97.5376 6.05327V7.34091H93.0234V6.05327H97.5376ZM99.6381 11V0.818182H101.125V4.60156H101.214C101.3 4.44247 101.425 4.25852 101.587 4.04972C101.749 3.84091 101.975 3.65862 102.263 3.50284C102.551 3.34375 102.933 3.2642 103.407 3.2642C104.023 3.2642 104.573 3.41998 105.057 3.73153C105.541 4.04309 105.921 4.49219 106.196 5.07884C106.474 5.66548 106.613 6.37145 106.613 7.19673C106.613 8.02202 106.476 8.72964 106.201 9.3196C105.926 9.90625 105.548 10.3587 105.067 10.6768C104.587 10.9917 104.038 11.1491 103.422 11.1491C102.958 11.1491 102.578 11.0713 102.283 10.9155C101.991 10.7597 101.763 10.5774 101.597 10.3686C101.431 10.1598 101.304 9.9742 101.214 9.81179H101.09V11H99.6381ZM101.095 7.18182C101.095 7.71875 101.173 8.18939 101.328 8.59375C101.484 8.99811 101.71 9.31463 102.005 9.54332C102.3 9.7687 102.661 9.88139 103.088 9.88139C103.533 9.88139 103.904 9.76373 104.202 9.52841C104.5 9.28977 104.726 8.96662 104.878 8.55895C105.034 8.15128 105.112 7.69223 105.112 7.18182C105.112 6.67803 105.036 6.22562 104.883 5.82457C104.734 5.42353 104.509 5.10701 104.207 4.875C103.909 4.64299 103.536 4.52699 103.088 4.52699C102.658 4.52699 102.293 4.63802 101.995 4.86009C101.7 5.08215 101.476 5.39205 101.324 5.78977C101.171 6.1875 101.095 6.65151 101.095 7.18182ZM108.282 11V3.36364H109.719V4.5767H109.799C109.938 4.16572 110.183 3.84257 110.535 3.60724C110.889 3.36861 111.29 3.24929 111.738 3.24929C111.831 3.24929 111.94 3.2526 112.066 3.25923C112.195 3.26586 112.296 3.27415 112.369 3.28409V4.70597C112.309 4.68939 112.203 4.67116 112.051 4.65128C111.898 4.62808 111.746 4.61648 111.594 4.61648C111.242 4.61648 110.929 4.69105 110.654 4.8402C110.382 4.98603 110.167 5.18987 110.008 5.4517C109.849 5.71023 109.769 6.00521 109.769 6.33665V11H108.282ZM116.599 11.1541C115.883 11.1541 115.258 10.9901 114.724 10.6619C114.191 10.3338 113.777 9.87476 113.482 9.2848C113.187 8.69484 113.039 8.00544 113.039 7.21662C113.039 6.42448 113.187 5.73177 113.482 5.13849C113.777 4.54522 114.191 4.08452 114.724 3.75639C115.258 3.42827 115.883 3.2642 116.599 3.2642C117.315 3.2642 117.939 3.42827 118.473 3.75639C119.007 4.08452 119.421 4.54522 119.716 5.13849C120.011 5.73177 120.158 6.42448 120.158 7.21662C120.158 8.00544 120.011 8.69484 119.716 9.2848C119.421 9.87476 119.007 10.3338 118.473 10.6619C117.939 10.9901 117.315 11.1541 116.599 11.1541ZM116.604 9.90625C117.068 9.90625 117.452 9.78362 117.757 9.53835C118.062 9.29309 118.287 8.96662 118.433 8.55895C118.582 8.15128 118.657 7.70218 118.657 7.21165C118.657 6.72443 118.582 6.27699 118.433 5.86932C118.287 5.45833 118.062 5.12855 117.757 4.87997C117.452 4.63139 117.068 4.5071 116.604 4.5071C116.136 4.5071 115.749 4.63139 115.44 4.87997C115.135 5.12855 114.908 5.45833 114.759 5.86932C114.613 6.27699 114.54 6.72443 114.54 7.21165C114.54 7.70218 114.613 8.15128 114.759 8.55895C114.908 8.96662 115.135 9.29309 115.44 9.53835C115.749 9.78362 116.136 9.90625 116.604 9.90625ZM123.185 8.4098L123.175 6.59517H123.433L126.476 3.36364H128.256L124.786 7.04261H124.552L123.185 8.4098ZM121.818 11V0.818182H123.304V11H121.818ZM126.64 11L123.906 7.37074L124.93 6.33168L128.465 11H126.64ZM132.587 11.1541C131.835 11.1541 131.187 10.9934 130.643 10.6719C130.103 10.3471 129.686 9.89134 129.391 9.30469C129.099 8.71473 128.953 8.02367 128.953 7.23153C128.953 6.44934 129.099 5.75994 129.391 5.16335C129.686 4.56676 130.097 4.10109 130.624 3.76633C131.154 3.43158 131.774 3.2642 132.483 3.2642C132.914 3.2642 133.331 3.33546 133.736 3.47798C134.14 3.6205 134.503 3.84422 134.825 4.14915C135.146 4.45407 135.4 4.85014 135.585 5.33736C135.771 5.82126 135.864 6.40956 135.864 7.10227V7.62926H129.793V6.51562H134.407C134.407 6.12453 134.327 5.77817 134.168 5.47656C134.009 5.17164 133.786 4.93134 133.497 4.75568C133.212 4.58002 132.877 4.49219 132.493 4.49219C132.075 4.49219 131.711 4.59493 131.399 4.80043C131.091 5.0026 130.852 5.26776 130.683 5.59588C130.518 5.92069 130.435 6.27367 130.435 6.65483V7.52486C130.435 8.03527 130.524 8.46946 130.703 8.82741C130.885 9.18537 131.139 9.45881 131.464 9.64773C131.789 9.83333 132.168 9.92614 132.602 9.92614C132.884 9.92614 133.141 9.88636 133.373 9.80682C133.605 9.72396 133.805 9.60133 133.974 9.43892C134.143 9.27652 134.273 9.07599 134.362 8.83736L135.769 9.09091C135.656 9.50521 135.454 9.86813 135.163 10.1797C134.874 10.4879 134.511 10.7282 134.074 10.9006C133.64 11.0696 133.144 11.1541 132.587 11.1541ZM138.999 6.46591V11H137.513V3.36364H138.94V4.60653H139.034C139.21 4.20218 139.485 3.87737 139.86 3.6321C140.237 3.38684 140.713 3.2642 141.286 3.2642C141.807 3.2642 142.262 3.37358 142.654 3.59233C143.045 3.80777 143.348 4.12926 143.563 4.55682C143.779 4.98437 143.887 5.51302 143.887 6.14276V11H142.4V6.32173C142.4 5.76823 142.256 5.3357 141.968 5.02415C141.679 4.70928 141.283 4.55185 140.779 4.55185C140.435 4.55185 140.128 4.62642 139.86 4.77557C139.594 4.92472 139.384 5.14347 139.228 5.43182C139.076 5.71686 138.999 6.06155 138.999 6.46591Z" fill="black"/>
</svg>
