<svg width="74" height="14" viewBox="0 0 74 14" fill="none" xmlns="http://www.w3.org/2000/svg">
<path d="M-0.000710189 13.8636V3.36364H1.45099V4.60156H1.57528C1.66146 4.44247 1.78575 4.25852 1.94815 4.04972C2.11056 3.84091 2.33594 3.65862 2.62429 3.50284C2.91264 3.34375 3.2938 3.2642 3.76776 3.2642C4.38423 3.2642 4.93442 3.41998 5.41832 3.73153C5.90223 4.04309 6.28172 4.49219 6.55682 5.07884C6.83523 5.66548 6.97443 6.37145 6.97443 7.19673C6.97443 8.02202 6.83688 8.72964 6.56179 9.3196C6.2867 9.90625 5.90885 10.3587 5.42827 10.6768C4.94768 10.9917 4.39915 11.1491 3.78267 11.1491C3.31866 11.1491 2.93916 11.0713 2.64418 10.9155C2.35251 10.7597 2.12382 10.5774 1.9581 10.3686C1.79238 10.1598 1.66477 9.9742 1.57528 9.81179H1.4858V13.8636H-0.000710189ZM1.45597 7.18182C1.45597 7.71875 1.53385 8.18939 1.68963 8.59375C1.84541 8.99811 2.07079 9.31463 2.36577 9.54332C2.66075 9.7687 3.02202 9.88139 3.44957 9.88139C3.8937 9.88139 4.26491 9.76373 4.56321 9.52841C4.86151 9.28977 5.08688 8.96662 5.23935 8.55895C5.39512 8.15128 5.47301 7.69223 5.47301 7.18182C5.47301 6.67803 5.39678 6.22562 5.24432 5.82457C5.09517 5.42353 4.86979 5.10701 4.56818 4.875C4.26989 4.64299 3.89702 4.52699 3.44957 4.52699C3.0187 4.52699 2.65412 4.63802 2.35582 4.86009C2.06084 5.08215 1.83712 5.39205 1.68466 5.78977C1.5322 6.1875 1.45597 6.65151 1.45597 7.18182ZM11.9311 11.1541C11.1787 11.1541 10.5308 10.9934 9.98722 10.6719C9.44697 10.3471 9.02936 9.89134 8.73438 9.30469C8.44271 8.71473 8.29688 8.02367 8.29688 7.23153C8.29688 6.44934 8.44271 5.75994 8.73438 5.16335C9.02936 4.56676 9.44034 4.10109 9.96733 3.76633C10.4976 3.43158 11.1174 3.2642 11.8267 3.2642C12.2576 3.2642 12.6752 3.33546 13.0795 3.47798C13.4839 3.6205 13.8468 3.84422 14.1683 4.14915C14.4898 4.45407 14.7434 4.85014 14.929 5.33736C15.1146 5.82126 15.2074 6.40956 15.2074 7.10227V7.62926H9.13707V6.51562H13.7507C13.7507 6.12453 13.6712 5.77817 13.5121 5.47656C13.353 5.17164 13.1293 4.93134 12.8409 4.75568C12.5559 4.58002 12.2211 4.49219 11.8366 4.49219C11.419 4.49219 11.0545 4.59493 10.7429 4.80043C10.4347 5.0026 10.196 5.26776 10.027 5.59588C9.86127 5.92069 9.77841 6.27367 9.77841 6.65483V7.52486C9.77841 8.03527 9.8679 8.46946 10.0469 8.82741C10.2292 9.18537 10.4827 9.45881 10.8075 9.64773C11.1323 9.83333 11.5118 9.92614 11.946 9.92614C12.2277 9.92614 12.4846 9.88636 12.7166 9.80682C12.9486 9.72396 13.1491 9.60133 13.3182 9.43892C13.4872 9.27652 13.6165 9.07599 13.706 8.83736L15.1129 9.09091C15.0002 9.50521 14.7981 9.86813 14.5064 10.1797C14.218 10.4879 13.8551 10.7282 13.4176 10.9006C12.9834 11.0696 12.4879 11.1541 11.9311 11.1541ZM16.8567 11V3.36364H18.2935V4.5767H18.373C18.5123 4.16572 18.7575 3.84257 19.1088 3.60724C19.4635 3.36861 19.8645 3.24929 20.312 3.24929C20.4048 3.24929 20.5141 3.2526 20.6401 3.25923C20.7694 3.26586 20.8704 3.27415 20.9434 3.28409V4.70597C20.8837 4.68939 20.7776 4.67116 20.6252 4.65128C20.4727 4.62808 20.3203 4.61648 20.1678 4.61648C19.8165 4.61648 19.5033 4.69105 19.2282 4.8402C18.9564 4.98603 18.7409 5.18987 18.5819 5.4517C18.4228 5.71023 18.3432 6.00521 18.3432 6.33665V11H16.8567ZM25.1729 11.1541C24.4338 11.1541 23.7975 10.9867 23.2638 10.652C22.7335 10.3139 22.3259 9.84825 22.0408 9.25497C21.7558 8.66169 21.6133 7.98224 21.6133 7.21662C21.6133 6.44105 21.7591 5.75663 22.0508 5.16335C22.3424 4.56676 22.7534 4.10109 23.2837 3.76633C23.814 3.43158 24.4388 3.2642 25.158 3.2642C25.738 3.2642 26.2551 3.37192 26.7092 3.58736C27.1632 3.79948 27.5295 4.09777 27.8079 4.48224C28.0896 4.86671 28.257 5.31581 28.31 5.82955H26.8633C26.7837 5.47159 26.6014 5.16335 26.3164 4.90483C26.0347 4.64631 25.6568 4.51705 25.1829 4.51705C24.7686 4.51705 24.4057 4.62642 24.0941 4.84517C23.7859 5.06061 23.5456 5.36884 23.3732 5.76989C23.2009 6.16761 23.1147 6.63826 23.1147 7.18182C23.1147 7.73864 23.1992 8.21922 23.3683 8.62358C23.5373 9.02794 23.7759 9.34115 24.0842 9.56321C24.3957 9.78527 24.762 9.89631 25.1829 9.89631C25.4646 9.89631 25.7198 9.84493 25.9485 9.74219C26.1805 9.63613 26.3744 9.48532 26.5302 9.28977C26.6893 9.09422 26.8003 8.8589 26.8633 8.58381H28.31C28.257 9.07765 28.0962 9.51847 27.8278 9.90625C27.5593 10.294 27.1997 10.599 26.7489 10.821C26.3015 11.0431 25.7762 11.1541 25.1729 11.1541ZM33.1909 11.1541C32.4385 11.1541 31.7905 10.9934 31.247 10.6719C30.7067 10.3471 30.2891 9.89134 29.9941 9.30469C29.7025 8.71473 29.5566 8.02367 29.5566 7.23153C29.5566 6.44934 29.7025 5.75994 29.9941 5.16335C30.2891 4.56676 30.7001 4.10109 31.2271 3.76633C31.7574 3.43158 32.3772 3.2642 33.0865 3.2642C33.5173 3.2642 33.935 3.33546 34.3393 3.47798C34.7437 3.6205 35.1066 3.84422 35.4281 4.14915C35.7496 4.45407 36.0031 4.85014 36.1887 5.33736C36.3743 5.82126 36.4672 6.40956 36.4672 7.10227V7.62926H30.3968V6.51562H35.0105C35.0105 6.12453 34.9309 5.77817 34.7718 5.47656C34.6127 5.17164 34.389 4.93134 34.1007 4.75568C33.8156 4.58002 33.4809 4.49219 33.0964 4.49219C32.6788 4.49219 32.3142 4.59493 32.0027 4.80043C31.6944 5.0026 31.4558 5.26776 31.2868 5.59588C31.121 5.92069 31.0382 6.27367 31.0382 6.65483V7.52486C31.0382 8.03527 31.1277 8.46946 31.3066 8.82741C31.4889 9.18537 31.7425 9.45881 32.0673 9.64773C32.3921 9.83333 32.7716 9.92614 33.2058 9.92614C33.4875 9.92614 33.7444 9.88636 33.9764 9.80682C34.2084 9.72396 34.4089 9.60133 34.5779 9.43892C34.747 9.27652 34.8762 9.07599 34.9657 8.83736L36.3727 9.09091C36.26 9.50521 36.0578 9.86813 35.7662 10.1797C35.4778 10.4879 35.1149 10.7282 34.6774 10.9006C34.2432 11.0696 33.7477 11.1541 33.1909 11.1541ZM39.603 6.46591V11H38.1165V3.36364H39.5433V4.60653H39.6378C39.8134 4.20218 40.0885 3.87737 40.4631 3.6321C40.8409 3.38684 41.3165 3.2642 41.8899 3.2642C42.4103 3.2642 42.866 3.37358 43.2571 3.59233C43.6482 3.80777 43.9515 4.12926 44.1669 4.55682C44.3823 4.98437 44.4901 5.51302 44.4901 6.14276V11H43.0036V6.32173C43.0036 5.76823 42.8594 5.3357 42.571 5.02415C42.2827 4.70928 41.8866 4.55185 41.3828 4.55185C41.0381 4.55185 40.7315 4.62642 40.4631 4.77557C40.1979 4.92472 39.9875 5.14347 39.8317 5.43182C39.6792 5.71686 39.603 6.06155 39.603 6.46591ZM50.0483 3.36364V4.55682H45.8771V3.36364H50.0483ZM46.9957 1.53409H48.4822V8.75781C48.4822 9.04616 48.5253 9.26326 48.6115 9.40909C48.6977 9.55161 48.8087 9.64938 48.9446 9.70241C49.0838 9.75213 49.2346 9.77699 49.397 9.77699C49.5163 9.77699 49.6207 9.7687 49.7102 9.75213C49.7997 9.73556 49.8693 9.7223 49.919 9.71236L50.1875 10.9403C50.1013 10.9735 49.9787 11.0066 49.8196 11.0398C49.6605 11.0762 49.4616 11.0961 49.223 11.0994C48.8319 11.1061 48.4673 11.0365 48.1293 10.8906C47.7912 10.7448 47.5178 10.5194 47.3089 10.2145C47.1001 9.90956 46.9957 9.52675 46.9957 9.06605V1.53409ZM55.9322 6.05327V7.34091H51.418V6.05327H55.9322ZM61.4382 11.169C60.6527 11.1657 59.9815 10.9586 59.4247 10.5476C58.8679 10.1366 58.442 9.53835 58.147 8.75284C57.852 7.96733 57.7045 7.02107 57.7045 5.91406C57.7045 4.81037 57.852 3.86742 58.147 3.08523C58.4453 2.30303 58.8729 1.70644 59.4297 1.29545C59.9898 0.884469 60.6593 0.678977 61.4382 0.678977C62.2171 0.678977 62.8849 0.886126 63.4418 1.30043C63.9986 1.71141 64.4245 2.308 64.7195 3.0902C65.0178 3.86908 65.1669 4.81037 65.1669 5.91406C65.1669 7.02438 65.0194 7.9723 64.7244 8.75781C64.4295 9.54001 64.0036 10.1383 63.4467 10.5526C62.8899 10.9635 62.2204 11.169 61.4382 11.169ZM61.4382 9.84162C62.1276 9.84162 62.6662 9.50521 63.054 8.83239C63.4451 8.15956 63.6406 7.18679 63.6406 5.91406C63.6406 5.06889 63.5511 4.35464 63.3722 3.77131C63.1965 3.18466 62.9429 2.74053 62.6115 2.43892C62.2834 2.134 61.8923 1.98153 61.4382 1.98153C60.7521 1.98153 60.2135 2.3196 59.8224 2.99574C59.4313 3.67187 59.2341 4.64465 59.2308 5.91406C59.2308 6.76255 59.3187 7.48011 59.4943 8.06676C59.6733 8.65009 59.9268 9.09257 60.255 9.39418C60.5831 9.69247 60.9775 9.84162 61.4382 9.84162ZM66.9306 11V9.88636L70.3759 6.31676C70.7438 5.92898 71.0471 5.58925 71.2857 5.29759C71.5276 5.0026 71.7083 4.72254 71.8276 4.45739C71.9469 4.19223 72.0066 3.91051 72.0066 3.61222C72.0066 3.27415 71.927 2.98248 71.7679 2.73722C71.6088 2.48864 71.3917 2.29806 71.1167 2.16548C70.8416 2.02959 70.5317 1.96165 70.187 1.96165C69.8224 1.96165 69.5042 2.03622 69.2324 2.18537C68.9606 2.33452 68.7518 2.54498 68.606 2.81676C68.4602 3.08854 68.3873 3.40672 68.3873 3.77131H66.9206C66.9206 3.15151 67.0632 2.60961 67.3482 2.1456C67.6332 1.68158 68.0243 1.32197 68.5215 1.06676C69.0186 0.808238 69.5837 0.678977 70.2168 0.678977C70.8565 0.678977 71.4199 0.806581 71.9071 1.06179C72.3977 1.31368 72.7805 1.65838 73.0556 2.09588C73.3307 2.53007 73.4682 3.0206 73.4682 3.56747C73.4682 3.94531 73.397 4.31487 73.2544 4.67614C73.1152 5.0374 72.8716 5.4401 72.5236 5.88423C72.1756 6.32505 71.6917 6.86032 71.0719 7.49006L69.0485 9.60795V9.68253H73.6323V11H66.9306Z" fill="black"/>
</svg>
