<svg width="41" height="12" viewBox="0 0 41 12" fill="none" xmlns="http://www.w3.org/2000/svg">
<path d="M4.21591 11.1541C3.4768 11.1541 2.84044 10.9867 2.30682 10.652C1.77652 10.3139 1.36884 9.84825 1.08381 9.25497C0.798769 8.66169 0.65625 7.98224 0.65625 7.21662C0.65625 6.44105 0.802083 5.75663 1.09375 5.16335C1.38542 4.56676 1.7964 4.10109 2.3267 3.76633C2.85701 3.43158 3.48177 3.2642 4.20099 3.2642C4.78101 3.2642 5.29806 3.37192 5.75213 3.58736C6.2062 3.79948 6.57244 4.09777 6.85085 4.48224C7.13258 4.86671 7.29995 5.31581 7.35298 5.82955H5.90625C5.8267 5.47159 5.64441 5.16335 5.35938 4.90483C5.07765 4.64631 4.69981 4.51705 4.22585 4.51705C3.81155 4.51705 3.44863 4.62642 3.13707 4.84517C2.82884 5.06061 2.58854 5.36884 2.41619 5.76989C2.24384 6.16761 2.15767 6.63826 2.15767 7.18182C2.15767 7.73864 2.24219 8.21922 2.41122 8.62358C2.58026 9.02794 2.81889 9.34115 3.12713 9.56321C3.43868 9.78527 3.80492 9.89631 4.22585 9.89631C4.50758 9.89631 4.76278 9.84493 4.99148 9.74219C5.22349 9.63613 5.41738 9.48532 5.57315 9.28977C5.73224 9.09422 5.84328 8.8589 5.90625 8.58381H7.35298C7.29995 9.07765 7.1392 9.51847 6.87074 9.90625C6.60227 10.294 6.24266 10.599 5.7919 10.821C5.34446 11.0431 4.81913 11.1541 4.21591 11.1541ZM10.4292 6.46591V11H8.94265V0.818182H10.4093V4.60653H10.5037C10.6827 4.19555 10.9561 3.86908 11.324 3.62713C11.6919 3.38518 12.1725 3.2642 12.7658 3.2642C13.2895 3.2642 13.7469 3.37192 14.138 3.58736C14.5324 3.80279 14.8373 4.12429 15.0527 4.55185C15.2715 4.97609 15.3809 5.50639 15.3809 6.14276V11H13.8944V6.32173C13.8944 5.7616 13.7502 5.32741 13.4618 5.01918C13.1735 4.70762 12.7724 4.55185 12.2587 4.55185C11.9074 4.55185 11.5925 4.62642 11.3141 4.77557C11.039 4.92472 10.8219 5.14347 10.6628 5.43182C10.507 5.71686 10.4292 6.06155 10.4292 6.46591ZM20.6557 11.1541C19.9033 11.1541 19.2554 10.9934 18.7118 10.6719C18.1716 10.3471 17.754 9.89134 17.459 9.30469C17.1673 8.71473 17.0215 8.02367 17.0215 7.23153C17.0215 6.44934 17.1673 5.75994 17.459 5.16335C17.754 4.56676 18.165 4.10109 18.6919 3.76633C19.2222 3.43158 19.842 3.2642 20.5513 3.2642C20.9822 3.2642 21.3998 3.33546 21.8042 3.47798C22.2085 3.6205 22.5714 3.84422 22.8929 4.14915C23.2144 4.45407 23.468 4.85014 23.6536 5.33736C23.8392 5.82126 23.932 6.40956 23.932 7.10227V7.62926H17.8617V6.51562H22.4753C22.4753 6.12453 22.3958 5.77817 22.2367 5.47656C22.0776 5.17164 21.8539 4.93134 21.5655 4.75568C21.2805 4.58002 20.9457 4.49219 20.5613 4.49219C20.1436 4.49219 19.7791 4.59493 19.4675 4.80043C19.1593 5.0026 18.9206 5.26776 18.7516 5.59588C18.5859 5.92069 18.503 6.27367 18.503 6.65483V7.52486C18.503 8.03527 18.5925 8.46946 18.7715 8.82741C18.9538 9.18537 19.2073 9.45881 19.5321 9.64773C19.8569 9.83333 20.2364 9.92614 20.6706 9.92614C20.9524 9.92614 21.2092 9.88636 21.4412 9.80682C21.6732 9.72396 21.8738 9.60133 22.0428 9.43892C22.2118 9.27652 22.3411 9.07599 22.4306 8.83736L23.8375 9.09091C23.7248 9.50521 23.5227 9.86813 23.231 10.1797C22.9426 10.4879 22.5797 10.7282 22.1422 10.9006C21.708 11.0696 21.2125 11.1541 20.6557 11.1541ZM28.7979 11.1541C28.0588 11.1541 27.4225 10.9867 26.8888 10.652C26.3585 10.3139 25.9509 9.84825 25.6658 9.25497C25.3808 8.66169 25.2383 7.98224 25.2383 7.21662C25.2383 6.44105 25.3841 5.75663 25.6758 5.16335C25.9674 4.56676 26.3784 4.10109 26.9087 3.76633C27.439 3.43158 28.0638 3.2642 28.783 3.2642C29.363 3.2642 29.8801 3.37192 30.3342 3.58736C30.7882 3.79948 31.1545 4.09777 31.4329 4.48224C31.7146 4.86671 31.882 5.31581 31.935 5.82955H30.4883C30.4087 5.47159 30.2264 5.16335 29.9414 4.90483C29.6597 4.64631 29.2818 4.51705 28.8079 4.51705C28.3936 4.51705 28.0307 4.62642 27.7191 4.84517C27.4109 5.06061 27.1706 5.36884 26.9982 5.76989C26.8259 6.16761 26.7397 6.63826 26.7397 7.18182C26.7397 7.73864 26.8242 8.21922 26.9933 8.62358C27.1623 9.02794 27.4009 9.34115 27.7092 9.56321C28.0207 9.78527 28.387 9.89631 28.8079 9.89631C29.0896 9.89631 29.3448 9.84493 29.5735 9.74219C29.8055 9.63613 29.9994 9.48532 30.1552 9.28977C30.3143 9.09422 30.4253 8.8589 30.4883 8.58381H31.935C31.882 9.07765 31.7212 9.51847 31.4528 9.90625C31.1843 10.294 30.8247 10.599 30.3739 10.821C29.9265 11.0431 29.4012 11.1541 28.7979 11.1541ZM34.8919 8.4098L34.8819 6.59517H35.1404L38.1831 3.36364H39.9629L36.4927 7.04261H36.2591L34.8919 8.4098ZM33.5247 11V0.818182H35.0112V11H33.5247ZM38.3471 11L35.6127 7.37074L36.6369 6.33168L40.1717 11H38.3471Z" fill="black"/>
</svg>
