<svg width="78" height="14" viewBox="0 0 78 14" fill="none" xmlns="http://www.w3.org/2000/svg">
<path d="M-0.000710189 13.8636V3.36364H1.45099V4.60156H1.57528C1.66146 4.44247 1.78575 4.25852 1.94815 4.04972C2.11056 3.84091 2.33594 3.65862 2.62429 3.50284C2.91264 3.34375 3.2938 3.2642 3.76776 3.2642C4.38423 3.2642 4.93442 3.41998 5.41832 3.73153C5.90223 4.04309 6.28172 4.49219 6.55682 5.07884C6.83523 5.66548 6.97443 6.37145 6.97443 7.19673C6.97443 8.02202 6.83688 8.72964 6.56179 9.3196C6.2867 9.90625 5.90885 10.3587 5.42827 10.6768C4.94768 10.9917 4.39915 11.1491 3.78267 11.1491C3.31866 11.1491 2.93916 11.0713 2.64418 10.9155C2.35251 10.7597 2.12382 10.5774 1.9581 10.3686C1.79238 10.1598 1.66477 9.9742 1.57528 9.81179H1.4858V13.8636H-0.000710189ZM1.45597 7.18182C1.45597 7.71875 1.53385 8.18939 1.68963 8.59375C1.84541 8.99811 2.07079 9.31463 2.36577 9.54332C2.66075 9.7687 3.02202 9.88139 3.44957 9.88139C3.8937 9.88139 4.26491 9.76373 4.56321 9.52841C4.86151 9.28977 5.08688 8.96662 5.23935 8.55895C5.39512 8.15128 5.47301 7.69223 5.47301 7.18182C5.47301 6.67803 5.39678 6.22562 5.24432 5.82457C5.09517 5.42353 4.86979 5.10701 4.56818 4.875C4.26989 4.64299 3.89702 4.52699 3.44957 4.52699C3.0187 4.52699 2.65412 4.63802 2.35582 4.86009C2.06084 5.08215 1.83712 5.39205 1.68466 5.78977C1.5322 6.1875 1.45597 6.65151 1.45597 7.18182ZM10.1264 0.818182V11H8.63991V0.818182H10.1264ZM14.3485 11.169C13.8646 11.169 13.4271 11.0795 13.036 10.9006C12.6449 10.7183 12.335 10.4548 12.1064 10.1101C11.881 9.76539 11.7683 9.3428 11.7683 8.84233C11.7683 8.41146 11.8511 8.05682 12.0169 7.77841C12.1826 7.5 12.4063 7.27959 12.688 7.11719C12.9698 6.95478 13.2846 6.83215 13.6326 6.74929C13.9806 6.66643 14.3353 6.60346 14.6966 6.56037C15.1539 6.50734 15.5252 6.46425 15.8102 6.43111C16.0952 6.39465 16.3024 6.33665 16.4316 6.2571C16.5609 6.17756 16.6255 6.0483 16.6255 5.86932V5.83452C16.6255 5.40033 16.5029 5.06392 16.2576 4.82528C16.0157 4.58665 15.6544 4.46733 15.1738 4.46733C14.6734 4.46733 14.2789 4.57836 13.9906 4.80043C13.7056 5.01918 13.5083 5.26278 13.399 5.53125L12.002 5.21307C12.1677 4.74905 12.4096 4.37453 12.7278 4.08949C13.0493 3.80114 13.4189 3.59233 13.8365 3.46307C14.2541 3.33049 14.6932 3.2642 15.1539 3.2642C15.4589 3.2642 15.782 3.30066 16.1234 3.37358C16.4681 3.44318 16.7896 3.57244 17.0879 3.76136C17.3895 3.95028 17.6364 4.22041 17.8287 4.57173C18.0209 4.91974 18.117 5.37216 18.117 5.92898V11H16.6653V9.95597H16.6056C16.5095 10.1482 16.3654 10.3371 16.1731 10.5227C15.9809 10.7083 15.734 10.8625 15.4324 10.9851C15.1307 11.1077 14.7695 11.169 14.3485 11.169ZM14.6717 9.97585C15.0827 9.97585 15.434 9.89465 15.7257 9.73224C16.0207 9.56984 16.2444 9.35772 16.3968 9.09588C16.5526 8.83073 16.6305 8.54735 16.6305 8.24574V7.26136C16.5775 7.31439 16.4747 7.36411 16.3223 7.41051C16.1731 7.4536 16.0024 7.49171 15.8102 7.52486C15.618 7.55469 15.4307 7.58286 15.2484 7.60938C15.0661 7.63258 14.9136 7.65246 14.791 7.66903C14.5027 7.70549 14.2392 7.76681 14.0005 7.85298C13.7652 7.93916 13.5763 8.06345 13.4338 8.22585C13.2946 8.38494 13.225 8.59706 13.225 8.86222C13.225 9.23011 13.3609 9.50852 13.6326 9.69744C13.9044 9.88305 14.2508 9.97585 14.6717 9.97585ZM23.3136 11.1541C22.5745 11.1541 21.9381 10.9867 21.4045 10.652C20.8742 10.3139 20.4665 9.84825 20.1815 9.25497C19.8964 8.66169 19.7539 7.98224 19.7539 7.21662C19.7539 6.44105 19.8997 5.75663 20.1914 5.16335C20.4831 4.56676 20.8941 4.10109 21.4244 3.76633C21.9547 3.43158 22.5794 3.2642 23.2987 3.2642C23.8787 3.2642 24.3957 3.37192 24.8498 3.58736C25.3039 3.79948 25.6701 4.09777 25.9485 4.48224C26.2302 4.86671 26.3976 5.31581 26.4506 5.82955H25.0039C24.9244 5.47159 24.7421 5.16335 24.457 4.90483C24.1753 4.64631 23.7975 4.51705 23.3235 4.51705C22.9092 4.51705 22.5463 4.62642 22.2347 4.84517C21.9265 5.06061 21.6862 5.36884 21.5138 5.76989C21.3415 6.16761 21.2553 6.63826 21.2553 7.18182C21.2553 7.73864 21.3398 8.21922 21.5089 8.62358C21.6779 9.02794 21.9165 9.34115 22.2248 9.56321C22.5363 9.78527 22.9026 9.89631 23.3235 9.89631C23.6052 9.89631 23.8604 9.84493 24.0891 9.74219C24.3211 9.63613 24.515 9.48532 24.6708 9.28977C24.8299 9.09422 24.9409 8.8589 25.0039 8.58381H26.4506C26.3976 9.07765 26.2369 9.51847 25.9684 9.90625C25.6999 10.294 25.3403 10.599 24.8896 10.821C24.4421 11.0431 23.9168 11.1541 23.3136 11.1541ZM31.3315 11.1541C30.5791 11.1541 29.9312 10.9934 29.3876 10.6719C28.8474 10.3471 28.4297 9.89134 28.1348 9.30469C27.8431 8.71473 27.6973 8.02367 27.6973 7.23153C27.6973 6.44934 27.8431 5.75994 28.1348 5.16335C28.4297 4.56676 28.8407 4.10109 29.3677 3.76633C29.898 3.43158 30.5178 3.2642 31.2271 3.2642C31.658 3.2642 32.0756 3.33546 32.4799 3.47798C32.8843 3.6205 33.2472 3.84422 33.5687 4.14915C33.8902 4.45407 34.1438 4.85014 34.3294 5.33736C34.515 5.82126 34.6078 6.40956 34.6078 7.10227V7.62926H28.5375V6.51562H33.1511C33.1511 6.12453 33.0716 5.77817 32.9125 5.47656C32.7534 5.17164 32.5297 4.93134 32.2413 4.75568C31.9563 4.58002 31.6215 4.49219 31.237 4.49219C30.8194 4.49219 30.4548 4.59493 30.1433 4.80043C29.835 5.0026 29.5964 5.26776 29.4274 5.59588C29.2617 5.92069 29.1788 6.27367 29.1788 6.65483V7.52486C29.1788 8.03527 29.2683 8.46946 29.4473 8.82741C29.6296 9.18537 29.8831 9.45881 30.2079 9.64773C30.5327 9.83333 30.9122 9.92614 31.3464 9.92614C31.6281 9.92614 31.885 9.88636 32.117 9.80682C32.349 9.72396 32.5495 9.60133 32.7186 9.43892C32.8876 9.27652 33.0169 9.07599 33.1064 8.83736L34.5133 9.09091C34.4006 9.50521 34.1984 9.86813 33.9068 10.1797C33.6184 10.4879 33.2555 10.7282 32.818 10.9006C32.3838 11.0696 31.8883 11.1541 31.3315 11.1541ZM37.7436 6.46591V11H36.2571V0.818182H37.7237V4.60653H37.8182C37.9972 4.19555 38.2706 3.86908 38.6385 3.62713C39.0064 3.38518 39.487 3.2642 40.0803 3.2642C40.6039 3.2642 41.0613 3.37192 41.4524 3.58736C41.8468 3.80279 42.1518 4.12429 42.3672 4.55185C42.5859 4.97609 42.6953 5.50639 42.6953 6.14276V11H41.2088V6.32173C41.2088 5.7616 41.0646 5.32741 40.7763 5.01918C40.4879 4.70762 40.0869 4.55185 39.5732 4.55185C39.2218 4.55185 38.907 4.62642 38.6286 4.77557C38.3535 4.92472 38.1364 5.14347 37.9773 5.43182C37.8215 5.71686 37.7436 6.06155 37.7436 6.46591ZM47.8956 11.1541C47.1797 11.1541 46.5549 10.9901 46.0213 10.6619C45.4877 10.3338 45.0734 9.87476 44.7784 9.2848C44.4834 8.69484 44.3359 8.00544 44.3359 7.21662C44.3359 6.42448 44.4834 5.73177 44.7784 5.13849C45.0734 4.54522 45.4877 4.08452 46.0213 3.75639C46.5549 3.42827 47.1797 3.2642 47.8956 3.2642C48.6115 3.2642 49.2363 3.42827 49.7699 3.75639C50.3035 4.08452 50.7178 4.54522 51.0128 5.13849C51.3078 5.73177 51.4553 6.42448 51.4553 7.21662C51.4553 8.00544 51.3078 8.69484 51.0128 9.2848C50.7178 9.87476 50.3035 10.3338 49.7699 10.6619C49.2363 10.9901 48.6115 11.1541 47.8956 11.1541ZM47.9006 9.90625C48.3646 9.90625 48.7491 9.78362 49.054 9.53835C49.3589 9.29309 49.5843 8.96662 49.7301 8.55895C49.8793 8.15128 49.9538 7.70218 49.9538 7.21165C49.9538 6.72443 49.8793 6.27699 49.7301 5.86932C49.5843 5.45833 49.3589 5.12855 49.054 4.87997C48.7491 4.63139 48.3646 4.5071 47.9006 4.5071C47.4332 4.5071 47.0455 4.63139 46.7372 4.87997C46.4323 5.12855 46.2053 5.45833 46.0561 5.86932C45.9103 6.27699 45.8374 6.72443 45.8374 7.21165C45.8374 7.70218 45.9103 8.15128 46.0561 8.55895C46.2053 8.96662 46.4323 9.29309 46.7372 9.53835C47.0455 9.78362 47.4332 9.90625 47.9006 9.90625ZM54.601 0.818182V11H53.1145V0.818182H54.601ZM59.4595 11.1491C58.843 11.1491 58.2929 10.9917 57.8089 10.6768C57.3284 10.3587 56.9505 9.90625 56.6754 9.3196C56.4036 8.72964 56.2678 8.02202 56.2678 7.19673C56.2678 6.37145 56.4053 5.66548 56.6804 5.07884C56.9588 4.49219 57.34 4.04309 57.8239 3.73153C58.3078 3.41998 58.8563 3.2642 59.4695 3.2642C59.9434 3.2642 60.3246 3.34375 60.6129 3.50284C60.9046 3.65862 61.13 3.84091 61.2891 4.04972C61.4515 4.25852 61.5774 4.44247 61.6669 4.60156H61.7564V0.818182H63.2429V11H61.7912V9.81179H61.6669C61.5774 9.9742 61.4482 10.1598 61.2791 10.3686C61.1134 10.5774 60.8847 10.7597 60.593 10.9155C60.3014 11.0713 59.9235 11.1491 59.4595 11.1491ZM59.7876 9.88139C60.2152 9.88139 60.5765 9.7687 60.8714 9.54332C61.1697 9.31463 61.3951 8.99811 61.5476 8.59375C61.7034 8.18939 61.7812 7.71875 61.7812 7.18182C61.7812 6.65151 61.705 6.1875 61.5526 5.78977C61.4001 5.39205 61.1764 5.08215 60.8814 4.86009C60.5864 4.63802 60.2218 4.52699 59.7876 4.52699C59.3402 4.52699 58.9673 4.64299 58.669 4.875C58.3707 5.10701 58.1454 5.42353 57.9929 5.82457C57.8438 6.22562 57.7692 6.67803 57.7692 7.18182C57.7692 7.69223 57.8454 8.15128 57.9979 8.55895C58.1503 8.96662 58.3757 9.28977 58.674 9.52841C58.9756 9.76373 59.3468 9.88139 59.7876 9.88139ZM68.6557 11.1541C67.9033 11.1541 67.2554 10.9934 66.7118 10.6719C66.1716 10.3471 65.754 9.89134 65.459 9.30469C65.1673 8.71473 65.0215 8.02367 65.0215 7.23153C65.0215 6.44934 65.1673 5.75994 65.459 5.16335C65.754 4.56676 66.165 4.10109 66.6919 3.76633C67.2222 3.43158 67.842 3.2642 68.5513 3.2642C68.9822 3.2642 69.3998 3.33546 69.8042 3.47798C70.2085 3.6205 70.5714 3.84422 70.8929 4.14915C71.2144 4.45407 71.468 4.85014 71.6536 5.33736C71.8392 5.82126 71.932 6.40956 71.932 7.10227V7.62926H65.8617V6.51562H70.4753C70.4753 6.12453 70.3958 5.77817 70.2367 5.47656C70.0776 5.17164 69.8539 4.93134 69.5655 4.75568C69.2805 4.58002 68.9457 4.49219 68.5613 4.49219C68.1436 4.49219 67.7791 4.59493 67.4675 4.80043C67.1593 5.0026 66.9206 5.26776 66.7516 5.59588C66.5859 5.92069 66.503 6.27367 66.503 6.65483V7.52486C66.503 8.03527 66.5925 8.46946 66.7715 8.82741C66.9538 9.18537 67.2073 9.45881 67.5321 9.64773C67.8569 9.83333 68.2364 9.92614 68.6706 9.92614C68.9524 9.92614 69.2092 9.88636 69.4412 9.80682C69.6732 9.72396 69.8738 9.60133 70.0428 9.43892C70.2118 9.27652 70.3411 9.07599 70.4306 8.83736L71.8375 9.09091C71.7248 9.50521 71.5227 9.86813 71.231 10.1797C70.9426 10.4879 70.5797 10.7282 70.1422 10.9006C69.708 11.0696 69.2125 11.1541 68.6557 11.1541ZM73.5813 11V3.36364H75.0181V4.5767H75.0977C75.2369 4.16572 75.4821 3.84257 75.8335 3.60724C76.1881 3.36861 76.5891 3.24929 77.0366 3.24929C77.1294 3.24929 77.2388 3.2526 77.3647 3.25923C77.494 3.26586 77.5951 3.27415 77.668 3.28409V4.70597C77.6083 4.68939 77.5022 4.67116 77.3498 4.65128C77.1973 4.62808 77.0449 4.61648 76.8924 4.61648C76.5411 4.61648 76.2279 4.69105 75.9528 4.8402C75.681 4.98603 75.4656 5.18987 75.3065 5.4517C75.1474 5.71023 75.0678 6.00521 75.0678 6.33665V11H73.5813Z" fill="black"/>
</svg>
