<svg width="112" height="12" viewBox="0 0 112 12" fill="none" xmlns="http://www.w3.org/2000/svg">
<path d="M0.118608 11V0.818182H1.60511V4.60156H1.6946C1.78078 4.44247 1.90507 4.25852 2.06747 4.04972C2.22988 3.84091 2.45526 3.65862 2.74361 3.50284C3.03196 3.34375 3.41312 3.2642 3.88707 3.2642C4.50355 3.2642 5.05374 3.41998 5.53764 3.73153C6.02154 4.04309 6.40104 4.49219 6.67614 5.07884C6.95455 5.66548 7.09375 6.37145 7.09375 7.19673C7.09375 8.02202 6.9562 8.72964 6.68111 9.3196C6.40601 9.90625 6.02817 10.3587 5.54759 10.6768C5.067 10.9917 4.51847 11.1491 3.90199 11.1491C3.43797 11.1491 3.05848 11.0713 2.76349 10.9155C2.47183 10.7597 2.24313 10.5774 2.07741 10.3686C1.9117 10.1598 1.78409 9.9742 1.6946 9.81179H1.57031V11H0.118608ZM1.57528 7.18182C1.57528 7.71875 1.65317 8.18939 1.80895 8.59375C1.96473 8.99811 2.1901 9.31463 2.48509 9.54332C2.78007 9.7687 3.14134 9.88139 3.56889 9.88139C4.01302 9.88139 4.38423 9.76373 4.68253 9.52841C4.98082 9.28977 5.2062 8.96662 5.35866 8.55895C5.51444 8.15128 5.59233 7.69223 5.59233 7.18182C5.59233 6.67803 5.5161 6.22562 5.36364 5.82457C5.21449 5.42353 4.98911 5.10701 4.6875 4.875C4.3892 4.64299 4.01634 4.52699 3.56889 4.52699C3.13802 4.52699 2.77344 4.63802 2.47514 4.86009C2.18016 5.08215 1.95644 5.39205 1.80398 5.78977C1.65152 6.1875 1.57528 6.65151 1.57528 7.18182ZM11.9796 11.1541C11.2637 11.1541 10.6389 10.9901 10.1053 10.6619C9.57167 10.3338 9.15737 9.87476 8.86239 9.2848C8.56741 8.69484 8.41992 8.00544 8.41992 7.21662C8.41992 6.42448 8.56741 5.73177 8.86239 5.13849C9.15737 4.54522 9.57167 4.08452 10.1053 3.75639C10.6389 3.42827 11.2637 3.2642 11.9796 3.2642C12.6955 3.2642 13.3203 3.42827 13.8539 3.75639C14.3875 4.08452 14.8018 4.54522 15.0968 5.13849C15.3917 5.73177 15.5392 6.42448 15.5392 7.21662C15.5392 8.00544 15.3917 8.69484 15.0968 9.2848C14.8018 9.87476 14.3875 10.3338 13.8539 10.6619C13.3203 10.9901 12.6955 11.1541 11.9796 11.1541ZM11.9846 9.90625C12.4486 9.90625 12.833 9.78362 13.138 9.53835C13.4429 9.29309 13.6683 8.96662 13.8141 8.55895C13.9632 8.15128 14.0378 7.70218 14.0378 7.21165C14.0378 6.72443 13.9632 6.27699 13.8141 5.86932C13.6683 5.45833 13.4429 5.12855 13.138 4.87997C12.833 4.63139 12.4486 4.5071 11.9846 4.5071C11.5172 4.5071 11.1294 4.63139 10.8212 4.87997C10.5163 5.12855 10.2892 5.45833 10.1401 5.86932C9.99426 6.27699 9.92134 6.72443 9.92134 7.21165C9.92134 7.70218 9.99426 8.15128 10.1401 8.55895C10.2892 8.96662 10.5163 9.29309 10.8212 9.53835C11.1294 9.78362 11.5172 9.90625 11.9846 9.90625ZM20.4151 11.1541C19.6992 11.1541 19.0745 10.9901 18.5408 10.6619C18.0072 10.3338 17.5929 9.87476 17.2979 9.2848C17.003 8.69484 16.8555 8.00544 16.8555 7.21662C16.8555 6.42448 17.003 5.73177 17.2979 5.13849C17.5929 4.54522 18.0072 4.08452 18.5408 3.75639C19.0745 3.42827 19.6992 3.2642 20.4151 3.2642C21.131 3.2642 21.7558 3.42827 22.2894 3.75639C22.823 4.08452 23.2373 4.54522 23.5323 5.13849C23.8273 5.73177 23.9748 6.42448 23.9748 7.21662C23.9748 8.00544 23.8273 8.69484 23.5323 9.2848C23.2373 9.87476 22.823 10.3338 22.2894 10.6619C21.7558 10.9901 21.131 11.1541 20.4151 11.1541ZM20.4201 9.90625C20.8841 9.90625 21.2686 9.78362 21.5735 9.53835C21.8784 9.29309 22.1038 8.96662 22.2496 8.55895C22.3988 8.15128 22.4734 7.70218 22.4734 7.21165C22.4734 6.72443 22.3988 6.27699 22.2496 5.86932C22.1038 5.45833 21.8784 5.12855 21.5735 4.87997C21.2686 4.63139 20.8841 4.5071 20.4201 4.5071C19.9528 4.5071 19.565 4.63139 19.2567 4.87997C18.9518 5.12855 18.7248 5.45833 18.5756 5.86932C18.4298 6.27699 18.3569 6.72443 18.3569 7.21165C18.3569 7.70218 18.4298 8.15128 18.5756 8.55895C18.7248 8.96662 18.9518 9.29309 19.2567 9.53835C19.565 9.78362 19.9528 9.90625 20.4201 9.90625ZM27.0012 8.4098L26.9913 6.59517H27.2498L30.2924 3.36364H32.0723L28.6021 7.04261H28.3684L27.0012 8.4098ZM25.6341 11V0.818182H27.1206V11H25.6341ZM30.4565 11L27.7221 7.37074L28.7463 6.33168L32.2811 11H30.4565ZM33.427 11V3.36364H34.8539V4.60653H34.9483C35.1074 4.18561 35.3676 3.85748 35.7289 3.62216C36.0901 3.38352 36.5227 3.2642 37.0265 3.2642C37.5369 3.2642 37.9644 3.38352 38.3091 3.62216C38.6571 3.8608 38.914 4.18892 39.0797 4.60653H39.1593C39.3416 4.19886 39.6316 3.87405 40.0293 3.6321C40.427 3.38684 40.901 3.2642 41.4512 3.2642C42.1439 3.2642 42.709 3.4813 43.1465 3.91548C43.5873 4.34967 43.8077 5.00426 43.8077 5.87926V11H42.3212V6.01847C42.3212 5.50142 42.1803 5.12689 41.8986 4.89489C41.6169 4.66288 41.2805 4.54688 40.8894 4.54688C40.4055 4.54688 40.0293 4.69602 39.7608 4.99432C39.4924 5.2893 39.3581 5.6688 39.3581 6.13281V11H37.8766V5.92401C37.8766 5.50971 37.7473 5.17661 37.4888 4.92472C37.2303 4.67282 36.8939 4.54688 36.4796 4.54688C36.1979 4.54688 35.9377 4.62145 35.699 4.7706C35.4637 4.91643 35.2731 5.12026 35.1273 5.3821C34.9848 5.64394 34.9135 5.94721 34.9135 6.2919V11H33.427ZM48.0224 11.169C47.5385 11.169 47.101 11.0795 46.7099 10.9006C46.3188 10.7183 46.0089 10.4548 45.7802 10.1101C45.5548 9.76539 45.4421 9.3428 45.4421 8.84233C45.4421 8.41146 45.525 8.05682 45.6907 7.77841C45.8564 7.5 46.0801 7.27959 46.3619 7.11719C46.6436 6.95478 46.9585 6.83215 47.3065 6.74929C47.6545 6.66643 48.0091 6.60346 48.3704 6.56037C48.8278 6.50734 49.199 6.46425 49.484 6.43111C49.7691 6.39465 49.9762 6.33665 50.1055 6.2571C50.2347 6.17756 50.2994 6.0483 50.2994 5.86932V5.83452C50.2994 5.40033 50.1767 5.06392 49.9315 4.82528C49.6895 4.58665 49.3282 4.46733 48.8477 4.46733C48.3472 4.46733 47.9528 4.57836 47.6644 4.80043C47.3794 5.01918 47.1822 5.26278 47.0728 5.53125L45.6758 5.21307C45.8415 4.74905 46.0835 4.37453 46.4016 4.08949C46.7231 3.80114 47.0927 3.59233 47.5103 3.46307C47.9279 3.33049 48.3671 3.2642 48.8278 3.2642C49.1327 3.2642 49.4558 3.30066 49.7972 3.37358C50.1419 3.44318 50.4634 3.57244 50.7617 3.76136C51.0633 3.95028 51.3103 4.22041 51.5025 4.57173C51.6947 4.91974 51.7908 5.37216 51.7908 5.92898V11H50.3391V9.95597H50.2795C50.1834 10.1482 50.0392 10.3371 49.8469 10.5227C49.6547 10.7083 49.4078 10.8625 49.1062 10.9851C48.8046 11.1077 48.4433 11.169 48.0224 11.169ZM48.3455 9.97585C48.7565 9.97585 49.1078 9.89465 49.3995 9.73224C49.6945 9.56984 49.9182 9.35772 50.0707 9.09588C50.2264 8.83073 50.3043 8.54735 50.3043 8.24574V7.26136C50.2513 7.31439 50.1486 7.36411 49.9961 7.41051C49.8469 7.4536 49.6763 7.49171 49.484 7.52486C49.2918 7.55469 49.1045 7.58286 48.9222 7.60938C48.7399 7.63258 48.5875 7.65246 48.4648 7.66903C48.1765 7.70549 47.913 7.76681 47.6744 7.85298C47.439 7.93916 47.2501 8.06345 47.1076 8.22585C46.9684 8.38494 46.8988 8.59706 46.8988 8.86222C46.8988 9.23011 47.0347 9.50852 47.3065 9.69744C47.5782 9.88305 47.9246 9.97585 48.3455 9.97585ZM53.7708 11V3.36364H55.2076V4.5767H55.2871C55.4263 4.16572 55.6716 3.84257 56.0229 3.60724C56.3775 3.36861 56.7786 3.24929 57.226 3.24929C57.3188 3.24929 57.4282 3.2526 57.5542 3.25923C57.6834 3.26586 57.7845 3.27415 57.8574 3.28409V4.70597C57.7978 4.68939 57.6917 4.67116 57.5392 4.65128C57.3868 4.62808 57.2343 4.61648 57.0819 4.61648C56.7305 4.61648 56.4173 4.69105 56.1422 4.8402C55.8704 4.98603 55.655 5.18987 55.4959 5.4517C55.3368 5.71023 55.2573 6.00521 55.2573 6.33665V11H53.7708ZM60.511 8.4098L60.5011 6.59517H60.7596L63.8022 3.36364H65.582L62.1119 7.04261H61.8782L60.511 8.4098ZM59.1438 11V0.818182H60.6303V11H59.1438ZM63.9663 11L61.2319 7.37074L62.256 6.33168L65.7908 11H63.9663ZM70.9165 6.05327V7.34091H66.4023V6.05327H70.9165ZM72.8977 11V3.36364H74.3246V4.60653H74.419C74.5781 4.18561 74.8383 3.85748 75.1996 3.62216C75.5608 3.38352 75.9934 3.2642 76.4972 3.2642C77.0076 3.2642 77.4351 3.38352 77.7798 3.62216C78.1278 3.8608 78.3847 4.18892 78.5504 4.60653H78.63C78.8123 4.19886 79.1023 3.87405 79.5 3.6321C79.8977 3.38684 80.3717 3.2642 80.9219 3.2642C81.6146 3.2642 82.1797 3.4813 82.6172 3.91548C83.058 4.34967 83.2784 5.00426 83.2784 5.87926V11H81.7919V6.01847C81.7919 5.50142 81.651 5.12689 81.3693 4.89489C81.0876 4.66288 80.7512 4.54688 80.3601 4.54688C79.8762 4.54688 79.5 4.69602 79.2315 4.99432C78.9631 5.2893 78.8288 5.6688 78.8288 6.13281V11H77.3473V5.92401C77.3473 5.50971 77.218 5.17661 76.9595 4.92472C76.701 4.67282 76.3646 4.54688 75.9503 4.54688C75.6686 4.54688 75.4084 4.62145 75.1697 4.7706C74.9344 4.91643 74.7438 5.12026 74.598 5.3821C74.4555 5.64394 74.3842 5.94721 74.3842 6.2919V11H72.8977ZM85.2708 11V3.36364H86.7573V11H85.2708ZM86.0215 2.18537C85.763 2.18537 85.5409 2.09919 85.3553 1.92685C85.173 1.75118 85.0819 1.54238 85.0819 1.30043C85.0819 1.05516 85.173 0.846354 85.3553 0.674005C85.5409 0.498342 85.763 0.410511 86.0215 0.410511C86.28 0.410511 86.5004 0.498342 86.6827 0.674005C86.8683 0.846354 86.9611 1.05516 86.9611 1.30043C86.9611 1.54238 86.8683 1.75118 86.6827 1.92685C86.5004 2.09919 86.28 2.18537 86.0215 2.18537ZM90.2436 6.46591V11H88.7571V3.36364H90.1839V4.60653H90.2784C90.4541 4.20218 90.7292 3.87737 91.1037 3.6321C91.4815 3.38684 91.9571 3.2642 92.5305 3.2642C93.0509 3.2642 93.5066 3.37358 93.8977 3.59233C94.2888 3.80777 94.5921 4.12926 94.8075 4.55682C95.023 4.98437 95.1307 5.51302 95.1307 6.14276V11H93.6442V6.32173C93.6442 5.76823 93.5 5.3357 93.2116 5.02415C92.9233 4.70928 92.5272 4.55185 92.0234 4.55185C91.6787 4.55185 91.3722 4.62642 91.1037 4.77557C90.8385 4.92472 90.6281 5.14347 90.4723 5.43182C90.3198 5.71686 90.2436 6.06155 90.2436 6.46591ZM101.962 7.8331V3.36364H103.453V11H101.991V9.67756H101.912C101.736 10.0852 101.455 10.425 101.067 10.6967C100.682 10.9652 100.203 11.0994 99.63 11.0994C99.1394 11.0994 98.7053 10.9917 98.3274 10.7763C97.9529 10.5575 97.6579 10.2344 97.4425 9.80682C97.2304 9.37926 97.1243 8.85062 97.1243 8.22088V3.36364H98.6108V8.0419C98.6108 8.56226 98.755 8.97656 99.0433 9.2848C99.3317 9.59304 99.7062 9.74716 100.167 9.74716C100.445 9.74716 100.722 9.67756 100.997 9.53835C101.276 9.39915 101.506 9.18868 101.688 8.90696C101.874 8.62524 101.965 8.26728 101.962 7.8331ZM111.173 5.22798L109.825 5.46662C109.769 5.29427 109.68 5.13021 109.557 4.97443C109.438 4.81865 109.275 4.69105 109.07 4.59162C108.864 4.49219 108.607 4.44247 108.299 4.44247C107.878 4.44247 107.527 4.53693 107.245 4.72585C106.963 4.91146 106.823 5.15175 106.823 5.44673C106.823 5.70194 106.917 5.90743 107.106 6.06321C107.295 6.21899 107.6 6.34659 108.021 6.44602L109.234 6.72443C109.936 6.88684 110.46 7.13707 110.805 7.47514C111.15 7.81321 111.322 8.25237 111.322 8.79261C111.322 9.25 111.189 9.65767 110.924 10.0156C110.662 10.3703 110.296 10.6487 109.825 10.8509C109.358 11.053 108.816 11.1541 108.2 11.1541C107.345 11.1541 106.647 10.9718 106.107 10.6072C105.566 10.2393 105.235 9.71733 105.112 9.04119L106.549 8.82244C106.639 9.19697 106.823 9.48035 107.101 9.67259C107.379 9.86151 107.742 9.95597 108.19 9.95597C108.677 9.95597 109.066 9.85488 109.358 9.6527C109.65 9.44721 109.796 9.19697 109.796 8.90199C109.796 8.66335 109.706 8.46283 109.527 8.30043C109.352 8.13802 109.081 8.01539 108.717 7.93253L107.424 7.64915C106.712 7.48674 106.185 7.22822 105.843 6.87358C105.505 6.51894 105.336 6.06984 105.336 5.52628C105.336 5.07552 105.462 4.68111 105.714 4.34304C105.966 4.00497 106.314 3.74148 106.758 3.55256C107.202 3.36032 107.711 3.2642 108.284 3.2642C109.11 3.2642 109.759 3.44318 110.233 3.80114C110.707 4.15578 111.02 4.63139 111.173 5.22798Z" fill="black"/>
</svg>
