<svg width="50" height="12" viewBox="0 0 50 12" fill="none" xmlns="http://www.w3.org/2000/svg">
<path d="M2.17259 3.36364L3.85795 6.33665L5.55824 3.36364H7.18395L4.80256 7.18182L7.20384 11H5.57812L3.85795 8.14631L2.14276 11H0.512074L2.88849 7.18182L0.541903 3.36364H2.17259ZM12.8951 6.05327V7.34091H8.38086V6.05327H12.8951ZM18.0929 11.1541C17.3538 11.1541 16.7174 10.9867 16.1838 10.652C15.6535 10.3139 15.2458 9.84825 14.9608 9.25497C14.6757 8.66169 14.5332 7.98224 14.5332 7.21662C14.5332 6.44105 14.679 5.75663 14.9707 5.16335C15.2624 4.56676 15.6734 4.10109 16.2037 3.76633C16.734 3.43158 17.3587 3.2642 18.0779 3.2642C18.658 3.2642 19.175 3.37192 19.6291 3.58736C20.0832 3.79948 20.4494 4.09777 20.7278 4.48224C21.0095 4.86671 21.1769 5.31581 21.2299 5.82955H19.7832C19.7037 5.47159 19.5214 5.16335 19.2363 4.90483C18.9546 4.64631 18.5768 4.51705 18.1028 4.51705C17.6885 4.51705 17.3256 4.62642 17.014 4.84517C16.7058 5.06061 16.4655 5.36884 16.2931 5.76989C16.1208 6.16761 16.0346 6.63826 16.0346 7.18182C16.0346 7.73864 16.1191 8.21922 16.2882 8.62358C16.4572 9.02794 16.6958 9.34115 17.0041 9.56321C17.3156 9.78527 17.6819 9.89631 18.1028 9.89631C18.3845 9.89631 18.6397 9.84493 18.8684 9.74219C19.1004 9.63613 19.2943 9.48532 19.4501 9.28977C19.6092 9.09422 19.7202 8.8589 19.7832 8.58381H21.2299C21.1769 9.07765 21.0162 9.51847 20.7477 9.90625C20.4792 10.294 20.1196 10.599 19.6689 10.821C19.2214 11.0431 18.6961 11.1541 18.0929 11.1541ZM22.8196 11V3.36364H24.3061V11H22.8196ZM23.5703 2.18537C23.3118 2.18537 23.0897 2.09919 22.9041 1.92685C22.7218 1.75118 22.6307 1.54238 22.6307 1.30043C22.6307 1.05516 22.7218 0.846354 22.9041 0.674005C23.0897 0.498342 23.3118 0.410511 23.5703 0.410511C23.8288 0.410511 24.0492 0.498342 24.2315 0.674005C24.4171 0.846354 24.5099 1.05516 24.5099 1.30043C24.5099 1.54238 24.4171 1.75118 24.2315 1.92685C24.0492 2.09919 23.8288 2.18537 23.5703 2.18537ZM26.3059 11V3.36364H27.7427V4.5767H27.8223C27.9615 4.16572 28.2067 3.84257 28.5581 3.60724C28.9127 3.36861 29.3137 3.24929 29.7612 3.24929C29.854 3.24929 29.9634 3.2526 30.0893 3.25923C30.2186 3.26586 30.3197 3.27415 30.3926 3.28409V4.70597C30.3329 4.68939 30.2269 4.67116 30.0744 4.65128C29.9219 4.62808 29.7695 4.61648 29.617 4.61648C29.2657 4.61648 28.9525 4.69105 28.6774 4.8402C28.4056 4.98603 28.1902 5.18987 28.0311 5.4517C27.872 5.71023 27.7924 6.00521 27.7924 6.33665V11H26.3059ZM34.6222 11.1541C33.883 11.1541 33.2467 10.9867 32.7131 10.652C32.1828 10.3139 31.7751 9.84825 31.4901 9.25497C31.205 8.66169 31.0625 7.98224 31.0625 7.21662C31.0625 6.44105 31.2083 5.75663 31.5 5.16335C31.7917 4.56676 32.2027 4.10109 32.733 3.76633C33.2633 3.43158 33.888 3.2642 34.6072 3.2642C35.1873 3.2642 35.7043 3.37192 36.1584 3.58736C36.6125 3.79948 36.9787 4.09777 37.2571 4.48224C37.5388 4.86671 37.7062 5.31581 37.7592 5.82955H36.3125C36.233 5.47159 36.0507 5.16335 35.7656 4.90483C35.4839 4.64631 35.1061 4.51705 34.6321 4.51705C34.2178 4.51705 33.8549 4.62642 33.5433 4.84517C33.2351 5.06061 32.9948 5.36884 32.8224 5.76989C32.6501 6.16761 32.5639 6.63826 32.5639 7.18182C32.5639 7.73864 32.6484 8.21922 32.8175 8.62358C32.9865 9.02794 33.2251 9.34115 33.5334 9.56321C33.8449 9.78527 34.2112 9.89631 34.6321 9.89631C34.9138 9.89631 35.169 9.84493 35.3977 9.74219C35.6297 9.63613 35.8236 9.48532 35.9794 9.28977C36.1385 9.09422 36.2495 8.8589 36.3125 8.58381H37.7592C37.7062 9.07765 37.5455 9.51847 37.277 9.90625C37.0085 10.294 36.6489 10.599 36.1982 10.821C35.7507 11.0431 35.2254 11.1541 34.6222 11.1541ZM40.8354 0.818182V11H39.3489V0.818182H40.8354ZM46.1264 11.1541C45.3741 11.1541 44.7261 10.9934 44.1825 10.6719C43.6423 10.3471 43.2247 9.89134 42.9297 9.30469C42.638 8.71473 42.4922 8.02367 42.4922 7.23153C42.4922 6.44934 42.638 5.75994 42.9297 5.16335C43.2247 4.56676 43.6357 4.10109 44.1626 3.76633C44.6929 3.43158 45.3127 3.2642 46.022 3.2642C46.4529 3.2642 46.8705 3.33546 47.2749 3.47798C47.6792 3.6205 48.0421 3.84422 48.3636 4.14915C48.6851 4.45407 48.9387 4.85014 49.1243 5.33736C49.3099 5.82126 49.4027 6.40956 49.4027 7.10227V7.62926H43.3324V6.51562H47.946C47.946 6.12453 47.8665 5.77817 47.7074 5.47656C47.5483 5.17164 47.3246 4.93134 47.0362 4.75568C46.7512 4.58002 46.4164 4.49219 46.032 4.49219C45.6143 4.49219 45.2498 4.59493 44.9382 4.80043C44.63 5.0026 44.3913 5.26776 44.2223 5.59588C44.0566 5.92069 43.9737 6.27367 43.9737 6.65483V7.52486C43.9737 8.03527 44.0632 8.46946 44.2422 8.82741C44.4245 9.18537 44.678 9.45881 45.0028 9.64773C45.3277 9.83333 45.7071 9.92614 46.1413 9.92614C46.4231 9.92614 46.6799 9.88636 46.9119 9.80682C47.1439 9.72396 47.3445 9.60133 47.5135 9.43892C47.6825 9.27652 47.8118 9.07599 47.9013 8.83736L49.3082 9.09091C49.1955 9.50521 48.9934 9.86813 48.7017 10.1797C48.4134 10.4879 48.0504 10.7282 47.6129 10.9006C47.1787 11.0696 46.6832 11.1541 46.1264 11.1541Z" fill="black"/>
</svg>
