<svg width="62" height="12" viewBox="0 0 62 12" fill="none" xmlns="http://www.w3.org/2000/svg">
<path d="M3.85795 11.1491C3.24148 11.1491 2.69129 10.9917 2.20739 10.6768C1.7268 10.3587 1.34896 9.90625 1.07386 9.3196C0.802083 8.72964 0.666193 8.02202 0.666193 7.19673C0.666193 6.37145 0.803741 5.66548 1.07884 5.07884C1.35724 4.49219 1.7384 4.04309 2.2223 3.73153C2.7062 3.41998 3.25473 3.2642 3.8679 3.2642C4.34186 3.2642 4.72301 3.34375 5.01136 3.50284C5.30303 3.65862 5.52841 3.84091 5.6875 4.04972C5.84991 4.25852 5.97585 4.44247 6.06534 4.60156H6.15483V0.818182H7.64134V11H6.18963V9.81179H6.06534C5.97585 9.9742 5.84659 10.1598 5.67756 10.3686C5.51184 10.5774 5.28314 10.7597 4.99148 10.9155C4.69981 11.0713 4.32197 11.1491 3.85795 11.1491ZM4.18608 9.88139C4.61364 9.88139 4.97491 9.7687 5.26989 9.54332C5.56818 9.31463 5.79356 8.99811 5.94602 8.59375C6.1018 8.18939 6.17969 7.71875 6.17969 7.18182C6.17969 6.65151 6.10346 6.1875 5.95099 5.78977C5.79853 5.39205 5.57481 5.08215 5.27983 4.86009C4.98485 4.63802 4.62027 4.52699 4.18608 4.52699C3.73864 4.52699 3.36577 4.64299 3.06747 4.875C2.76918 5.10701 2.5438 5.42353 2.39134 5.82457C2.24219 6.22562 2.16761 6.67803 2.16761 7.18182C2.16761 7.69223 2.24384 8.15128 2.39631 8.55895C2.54877 8.96662 2.77415 9.28977 3.07244 9.52841C3.37405 9.76373 3.74527 9.88139 4.18608 9.88139ZM9.76296 11V3.36364H11.2495V11H9.76296ZM10.5137 2.18537C10.2551 2.18537 10.0331 2.09919 9.84748 1.92685C9.66519 1.75118 9.57404 1.54238 9.57404 1.30043C9.57404 1.05516 9.66519 0.846354 9.84748 0.674005C10.0331 0.498342 10.2551 0.410511 10.5137 0.410511C10.7722 0.410511 10.9926 0.498342 11.1749 0.674005C11.3605 0.846354 11.4533 1.05516 11.4533 1.30043C11.4533 1.54238 11.3605 1.75118 11.1749 1.92685C10.9926 2.09919 10.7722 2.18537 10.5137 2.18537ZM19.782 3.36364L17.0128 11H15.4219L12.6477 3.36364H14.2436L16.1776 9.24006H16.2571L18.1861 3.36364H19.782ZM21.179 11V3.36364H22.6655V11H21.179ZM21.9297 2.18537C21.6712 2.18537 21.4491 2.09919 21.2635 1.92685C21.0812 1.75118 20.9901 1.54238 20.9901 1.30043C20.9901 1.05516 21.0812 0.846354 21.2635 0.674005C21.4491 0.498342 21.6712 0.410511 21.9297 0.410511C22.1882 0.410511 22.4086 0.498342 22.5909 0.674005C22.7765 0.846354 22.8693 1.05516 22.8693 1.30043C22.8693 1.54238 22.7765 1.75118 22.5909 1.92685C22.4086 2.09919 22.1882 2.18537 21.9297 2.18537ZM27.524 11.1491C26.9075 11.1491 26.3573 10.9917 25.8734 10.6768C25.3928 10.3587 25.015 9.90625 24.7399 9.3196C24.4681 8.72964 24.3322 8.02202 24.3322 7.19673C24.3322 6.37145 24.4698 5.66548 24.7449 5.07884C25.0233 4.49219 25.4044 4.04309 25.8883 3.73153C26.3722 3.41998 26.9208 3.2642 27.5339 3.2642C28.0079 3.2642 28.389 3.34375 28.6774 3.50284C28.969 3.65862 29.1944 3.84091 29.3535 4.04972C29.5159 4.25852 29.6419 4.44247 29.7314 4.60156H29.8208V0.818182H31.3074V11H29.8556V9.81179H29.7314C29.6419 9.9742 29.5126 10.1598 29.3436 10.3686C29.1779 10.5774 28.9492 10.7597 28.6575 10.9155C28.3658 11.0713 27.988 11.1491 27.524 11.1491ZM27.8521 9.88139C28.2797 9.88139 28.6409 9.7687 28.9359 9.54332C29.2342 9.31463 29.4596 8.99811 29.612 8.59375C29.7678 8.18939 29.8457 7.71875 29.8457 7.18182C29.8457 6.65151 29.7695 6.1875 29.617 5.78977C29.4645 5.39205 29.2408 5.08215 28.9458 4.86009C28.6509 4.63802 28.2863 4.52699 27.8521 4.52699C27.4047 4.52699 27.0318 4.64299 26.7335 4.875C26.4352 5.10701 26.2098 5.42353 26.0574 5.82457C25.9082 6.22562 25.8336 6.67803 25.8336 7.18182C25.8336 7.69223 25.9099 8.15128 26.0623 8.55895C26.2148 8.96662 26.4402 9.28977 26.7385 9.52841C27.0401 9.76373 27.4113 9.88139 27.8521 9.88139ZM36.7202 11.1541C35.9678 11.1541 35.3198 10.9934 34.7763 10.6719C34.236 10.3471 33.8184 9.89134 33.5234 9.30469C33.2318 8.71473 33.0859 8.02367 33.0859 7.23153C33.0859 6.44934 33.2318 5.75994 33.5234 5.16335C33.8184 4.56676 34.2294 4.10109 34.7564 3.76633C35.2867 3.43158 35.9065 3.2642 36.6158 3.2642C37.0466 3.2642 37.4643 3.33546 37.8686 3.47798C38.273 3.6205 38.6359 3.84422 38.9574 4.14915C39.2789 4.45407 39.5324 4.85014 39.718 5.33736C39.9036 5.82126 39.9964 6.40956 39.9964 7.10227V7.62926H33.9261V6.51562H38.5398C38.5398 6.12453 38.4602 5.77817 38.3011 5.47656C38.142 5.17164 37.9183 4.93134 37.63 4.75568C37.3449 4.58002 37.0102 4.49219 36.6257 4.49219C36.2081 4.49219 35.8435 4.59493 35.532 4.80043C35.2237 5.0026 34.9851 5.26776 34.8161 5.59588C34.6503 5.92069 34.5675 6.27367 34.5675 6.65483V7.52486C34.5675 8.03527 34.657 8.46946 34.8359 8.82741C35.0182 9.18537 35.2718 9.45881 35.5966 9.64773C35.9214 9.83333 36.3009 9.92614 36.7351 9.92614C37.0168 9.92614 37.2737 9.88636 37.5057 9.80682C37.7377 9.72396 37.9382 9.60133 38.1072 9.43892C38.2763 9.27652 38.4055 9.07599 38.495 8.83736L39.902 9.09091C39.7893 9.50521 39.5871 9.86813 39.2955 10.1797C39.0071 10.4879 38.6442 10.7282 38.2067 10.9006C37.7725 11.0696 37.277 11.1541 36.7202 11.1541ZM46.1451 6.05327V7.34091H41.6309V6.05327H46.1451ZM51.6511 11.169C50.8656 11.1657 50.1944 10.9586 49.6376 10.5476C49.0808 10.1366 48.6549 9.53835 48.3599 8.75284C48.0649 7.96733 47.9174 7.02107 47.9174 5.91406C47.9174 4.81037 48.0649 3.86742 48.3599 3.08523C48.6582 2.30303 49.0858 1.70644 49.6426 1.29545C50.2027 0.884469 50.8722 0.678977 51.6511 0.678977C52.43 0.678977 53.0978 0.886126 53.6547 1.30043C54.2115 1.71141 54.6374 2.308 54.9324 3.0902C55.2306 3.86908 55.3798 4.81037 55.3798 5.91406C55.3798 7.02438 55.2323 7.9723 54.9373 8.75781C54.6423 9.54001 54.2164 10.1383 53.6596 10.5526C53.1028 10.9635 52.4333 11.169 51.6511 11.169ZM51.6511 9.84162C52.3405 9.84162 52.8791 9.50521 53.2669 8.83239C53.658 8.15956 53.8535 7.18679 53.8535 5.91406C53.8535 5.06889 53.764 4.35464 53.585 3.77131C53.4094 3.18466 53.1558 2.74053 52.8244 2.43892C52.4963 2.134 52.1052 1.98153 51.6511 1.98153C50.965 1.98153 50.4264 2.3196 50.0353 2.99574C49.6442 3.67187 49.447 4.64465 49.4437 5.91406C49.4437 6.76255 49.5315 7.48011 49.7072 8.06676C49.8862 8.65009 50.1397 9.09257 50.4679 9.39418C50.796 9.69247 51.1904 9.84162 51.6511 9.84162ZM61.0064 0.818182V11H59.4652V2.35938H59.4055L56.9695 3.95028V2.47869L59.5099 0.818182H61.0064Z" fill="black"/>
</svg>
