<svg width="102" height="15" viewBox="0 0 102 15" fill="none" xmlns="http://www.w3.org/2000/svg">
<path d="M4.56392 3.36364V4.55682H0.392756V3.36364H4.56392ZM1.51136 1.53409H2.99787V8.75781C2.99787 9.04616 3.04096 9.26326 3.12713 9.40909C3.21331 9.55161 3.32434 9.64938 3.46023 9.70241C3.59943 9.75213 3.75024 9.77699 3.91264 9.77699C4.03196 9.77699 4.13636 9.7687 4.22585 9.75213C4.31534 9.73556 4.38494 9.7223 4.43466 9.71236L4.70312 10.9403C4.61695 10.9735 4.49432 11.0066 4.33523 11.0398C4.17614 11.0762 3.97727 11.0961 3.73864 11.0994C3.34754 11.1061 2.98295 11.0365 2.64489 10.8906C2.30682 10.7448 2.03338 10.5194 1.82457 10.2145C1.61577 9.90956 1.51136 9.52675 1.51136 9.06605V1.53409ZM9.34286 11.1541C8.62695 11.1541 8.00219 10.9901 7.46857 10.6619C6.93496 10.3338 6.52066 9.87476 6.22567 9.2848C5.93069 8.69484 5.7832 8.00544 5.7832 7.21662C5.7832 6.42448 5.93069 5.73177 6.22567 5.13849C6.52066 4.54522 6.93496 4.08452 7.46857 3.75639C8.00219 3.42827 8.62695 3.2642 9.34286 3.2642C10.0588 3.2642 10.6835 3.42827 11.2172 3.75639C11.7508 4.08452 12.1651 4.54522 12.46 5.13849C12.755 5.73177 12.9025 6.42448 12.9025 7.21662C12.9025 8.00544 12.755 8.69484 12.46 9.2848C12.1651 9.87476 11.7508 10.3338 11.2172 10.6619C10.6835 10.9901 10.0588 11.1541 9.34286 11.1541ZM9.34783 9.90625C9.81185 9.90625 10.1963 9.78362 10.5012 9.53835C10.8062 9.29309 11.0315 8.96662 11.1774 8.55895C11.3265 8.15128 11.4011 7.70218 11.4011 7.21165C11.4011 6.72443 11.3265 6.27699 11.1774 5.86932C11.0315 5.45833 10.8062 5.12855 10.5012 4.87997C10.1963 4.63139 9.81185 4.5071 9.34783 4.5071C8.8805 4.5071 8.49272 4.63139 8.18448 4.87997C7.87956 5.12855 7.65252 5.45833 7.50337 5.86932C7.35754 6.27699 7.28462 6.72443 7.28462 7.21165C7.28462 7.70218 7.35754 8.15128 7.50337 8.55895C7.65252 8.96662 7.87956 9.29309 8.18448 9.53835C8.49272 9.78362 8.8805 9.90625 9.34783 9.90625ZM17.7635 14.0227C17.157 14.0227 16.6349 13.9432 16.1974 13.7841C15.7633 13.625 15.4086 13.4145 15.1335 13.1527C14.8584 12.8909 14.6529 12.6042 14.517 12.2926L15.7947 11.7656C15.8842 11.9115 16.0036 12.0656 16.1527 12.228C16.3052 12.3937 16.5107 12.5346 16.7692 12.6506C17.031 12.7666 17.3674 12.8246 17.7784 12.8246C18.3419 12.8246 18.8075 12.687 19.1754 12.4119C19.5433 12.1402 19.7273 11.706 19.7273 11.1094V9.60795H19.6328C19.5433 9.77036 19.4141 9.95099 19.245 10.1499C19.0793 10.3487 18.8506 10.5211 18.5589 10.6669C18.2673 10.8127 17.8878 10.8857 17.4205 10.8857C16.8172 10.8857 16.2737 10.7448 15.7898 10.4631C15.3092 10.178 14.928 9.75876 14.6463 9.20526C14.3679 8.64844 14.2287 7.96401 14.2287 7.15199C14.2287 6.33996 14.3662 5.64394 14.6413 5.06392C14.9197 4.4839 15.3009 4.03977 15.7848 3.73153C16.2687 3.41998 16.8172 3.2642 17.4304 3.2642C17.9044 3.2642 18.2872 3.34375 18.5788 3.50284C18.8705 3.65862 19.0975 3.84091 19.2599 4.04972C19.4257 4.25852 19.5533 4.44247 19.6428 4.60156H19.7521V3.36364H21.2088V11.169C21.2088 11.8253 21.0563 12.3639 20.7514 12.7848C20.4465 13.2057 20.0339 13.5173 19.5135 13.7195C18.9964 13.9216 18.4131 14.0227 17.7635 14.0227ZM17.7486 9.6527C18.1761 9.6527 18.5374 9.55327 18.8324 9.3544C19.1307 9.15223 19.3561 8.86387 19.5085 8.48935C19.6643 8.11151 19.7422 7.65909 19.7422 7.1321C19.7422 6.61837 19.666 6.16596 19.5135 5.77486C19.361 5.38376 19.1373 5.07884 18.8423 4.86009C18.5473 4.63802 18.1828 4.52699 17.7486 4.52699C17.3011 4.52699 16.9283 4.64299 16.63 4.875C16.3317 5.10369 16.1063 5.41525 15.9538 5.80966C15.8047 6.20407 15.7301 6.64489 15.7301 7.1321C15.7301 7.63258 15.8063 8.07173 15.9588 8.44957C16.1113 8.82741 16.3366 9.1224 16.6349 9.33452C16.9366 9.54664 17.3078 9.6527 17.7486 9.6527ZM26.4041 14.0227C25.7976 14.0227 25.2756 13.9432 24.8381 13.7841C24.4039 13.625 24.0492 13.4145 23.7741 13.1527C23.4991 12.8909 23.2936 12.6042 23.1577 12.2926L24.4354 11.7656C24.5249 11.9115 24.6442 12.0656 24.7933 12.228C24.9458 12.3937 25.1513 12.5346 25.4098 12.6506C25.6716 12.7666 26.008 12.8246 26.419 12.8246C26.9825 12.8246 27.4482 12.687 27.8161 12.4119C28.1839 12.1402 28.3679 11.706 28.3679 11.1094V9.60795H28.2734C28.1839 9.77036 28.0547 9.95099 27.8857 10.1499C27.7199 10.3487 27.4912 10.5211 27.1996 10.6669C26.9079 10.8127 26.5284 10.8857 26.0611 10.8857C25.4579 10.8857 24.9143 10.7448 24.4304 10.4631C23.9498 10.178 23.5687 9.75876 23.2869 9.20526C23.0085 8.64844 22.8693 7.96401 22.8693 7.15199C22.8693 6.33996 23.0069 5.64394 23.282 5.06392C23.5604 4.4839 23.9415 4.03977 24.4254 3.73153C24.9093 3.41998 25.4579 3.2642 26.071 3.2642C26.545 3.2642 26.9278 3.34375 27.2195 3.50284C27.5111 3.65862 27.7382 3.84091 27.9006 4.04972C28.0663 4.25852 28.1939 4.44247 28.2834 4.60156H28.3928V3.36364H29.8494V11.169C29.8494 11.8253 29.697 12.3639 29.392 12.7848C29.0871 13.2057 28.6745 13.5173 28.1541 13.7195C27.6371 13.9216 27.0537 14.0227 26.4041 14.0227ZM26.3892 9.6527C26.8168 9.6527 27.178 9.55327 27.473 9.3544C27.7713 9.15223 27.9967 8.86387 28.1491 8.48935C28.3049 8.11151 28.3828 7.65909 28.3828 7.1321C28.3828 6.61837 28.3066 6.16596 28.1541 5.77486C28.0017 5.38376 27.7779 5.07884 27.483 4.86009C27.188 4.63802 26.8234 4.52699 26.3892 4.52699C25.9418 4.52699 25.5689 4.64299 25.2706 4.875C24.9723 5.10369 24.7469 5.41525 24.5945 5.80966C24.4453 6.20407 24.3707 6.64489 24.3707 7.1321C24.3707 7.63258 24.447 8.07173 24.5994 8.44957C24.7519 8.82741 24.9773 9.1224 25.2756 9.33452C25.5772 9.54664 25.9484 9.6527 26.3892 9.6527ZM33.3295 0.818182V11H31.843V0.818182H33.3295ZM38.6206 11.1541C37.8682 11.1541 37.2202 10.9934 36.6767 10.6719C36.1364 10.3471 35.7188 9.89134 35.4238 9.30469C35.1322 8.71473 34.9863 8.02367 34.9863 7.23153C34.9863 6.44934 35.1322 5.75994 35.4238 5.16335C35.7188 4.56676 36.1298 4.10109 36.6568 3.76633C37.1871 3.43158 37.8069 3.2642 38.5162 3.2642C38.947 3.2642 39.3646 3.33546 39.769 3.47798C40.1734 3.6205 40.5363 3.84422 40.8578 4.14915C41.1793 4.45407 41.4328 4.85014 41.6184 5.33736C41.804 5.82126 41.8968 6.40956 41.8968 7.10227V7.62926H35.8265V6.51562H40.4402C40.4402 6.12453 40.3606 5.77817 40.2015 5.47656C40.0424 5.17164 39.8187 4.93134 39.5304 4.75568C39.2453 4.58002 38.9106 4.49219 38.5261 4.49219C38.1085 4.49219 37.7439 4.59493 37.4324 4.80043C37.1241 5.0026 36.8855 5.26776 36.7164 5.59588C36.5507 5.92069 36.4679 6.27367 36.4679 6.65483V7.52486C36.4679 8.03527 36.5574 8.46946 36.7363 8.82741C36.9186 9.18537 37.1722 9.45881 37.497 9.64773C37.8218 9.83333 38.2013 9.92614 38.6355 9.92614C38.9172 9.92614 39.1741 9.88636 39.4061 9.80682C39.6381 9.72396 39.8386 9.60133 40.0076 9.43892C40.1767 9.27652 40.3059 9.07599 40.3954 8.83736L41.8024 9.09091C41.6897 9.50521 41.4875 9.86813 41.1958 10.1797C40.9075 10.4879 40.5446 10.7282 40.1071 10.9006C39.6729 11.0696 39.1774 11.1541 38.6206 11.1541ZM48.0455 6.05327V7.34091H43.5312V6.05327H48.0455ZM53.5515 11.169C52.766 11.1657 52.0948 10.9586 51.538 10.5476C50.9812 10.1366 50.5553 9.53835 50.2603 8.75284C49.9653 7.96733 49.8178 7.02107 49.8178 5.91406C49.8178 4.81037 49.9653 3.86742 50.2603 3.08523C50.5586 2.30303 50.9862 1.70644 51.543 1.29545C52.1031 0.884469 52.7726 0.678977 53.5515 0.678977C54.3304 0.678977 54.9982 0.886126 55.555 1.30043C56.1119 1.71141 56.5378 2.308 56.8327 3.0902C57.131 3.86908 57.2802 4.81037 57.2802 5.91406C57.2802 7.02438 57.1327 7.9723 56.8377 8.75781C56.5427 9.54001 56.1168 10.1383 55.56 10.5526C55.0032 10.9635 54.3337 11.169 53.5515 11.169ZM53.5515 9.84162C54.2409 9.84162 54.7795 9.50521 55.1673 8.83239C55.5584 8.15956 55.7539 7.18679 55.7539 5.91406C55.7539 5.06889 55.6644 4.35464 55.4854 3.77131C55.3098 3.18466 55.0562 2.74053 54.7248 2.43892C54.3967 2.134 54.0056 1.98153 53.5515 1.98153C52.8654 1.98153 52.3268 2.3196 51.9357 2.99574C51.5446 3.67187 51.3474 4.64465 51.3441 5.91406C51.3441 6.76255 51.4319 7.48011 51.6076 8.06676C51.7866 8.65009 52.0401 9.09257 52.3683 9.39418C52.6964 9.69247 53.0908 9.84162 53.5515 9.84162ZM62.9068 0.818182V11H61.3656V2.35938H61.3059L58.8699 3.95028V2.47869L61.4103 0.818182H62.9068ZM70.1802 6.05327V7.34091H65.666V6.05327H70.1802ZM72.1614 11V3.36364H73.5982V4.5767H73.6777C73.8169 4.16572 74.0622 3.84257 74.4135 3.60724C74.7682 3.36861 75.1692 3.24929 75.6167 3.24929C75.7095 3.24929 75.8188 3.2526 75.9448 3.25923C76.074 3.26586 76.1751 3.27415 76.248 3.28409V4.70597C76.1884 4.68939 76.0823 4.67116 75.9299 4.65128C75.7774 4.62808 75.6249 4.61648 75.4725 4.61648C75.1212 4.61648 74.8079 4.69105 74.5328 4.8402C74.2611 4.98603 74.0456 5.18987 73.8865 5.4517C73.7275 5.71023 73.6479 6.00521 73.6479 6.33665V11H72.1614ZM77.5344 11V3.36364H79.021V11H77.5344ZM78.2852 2.18537C78.0266 2.18537 77.8046 2.09919 77.619 1.92685C77.4367 1.75118 77.3455 1.54238 77.3455 1.30043C77.3455 1.05516 77.4367 0.846354 77.619 0.674005C77.8046 0.498342 78.0266 0.410511 78.2852 0.410511C78.5437 0.410511 78.7641 0.498342 78.9464 0.674005C79.132 0.846354 79.2248 1.05516 79.2248 1.30043C79.2248 1.54238 79.132 1.75118 78.9464 1.92685C78.7641 2.09919 78.5437 2.18537 78.2852 2.18537ZM84.2225 14.0227C83.6159 14.0227 83.0939 13.9432 82.6564 13.7841C82.2222 13.625 81.8676 13.4145 81.5925 13.1527C81.3174 12.8909 81.1119 12.6042 80.976 12.2926L82.2537 11.7656C82.3432 11.9115 82.4625 12.0656 82.6117 12.228C82.7641 12.3937 82.9696 12.5346 83.2282 12.6506C83.49 12.7666 83.8264 12.8246 84.2374 12.8246C84.8008 12.8246 85.2665 12.687 85.6344 12.4119C86.0023 12.1402 86.1863 11.706 86.1863 11.1094V9.60795H86.0918C86.0023 9.77036 85.873 9.95099 85.704 10.1499C85.5383 10.3487 85.3096 10.5211 85.0179 10.6669C84.7263 10.8127 84.3468 10.8857 83.8794 10.8857C83.2762 10.8857 82.7327 10.7448 82.2488 10.4631C81.7682 10.178 81.387 9.75876 81.1053 9.20526C80.8269 8.64844 80.6877 7.96401 80.6877 7.15199C80.6877 6.33996 80.8252 5.64394 81.1003 5.06392C81.3787 4.4839 81.7599 4.03977 82.2438 3.73153C82.7277 3.41998 83.2762 3.2642 83.8894 3.2642C84.3633 3.2642 84.7462 3.34375 85.0378 3.50284C85.3295 3.65862 85.5565 3.84091 85.7189 4.04972C85.8846 4.25852 86.0123 4.44247 86.1017 4.60156H86.2111V3.36364H87.6678V11.169C87.6678 11.8253 87.5153 12.3639 87.2104 12.7848C86.9055 13.2057 86.4928 13.5173 85.9725 13.7195C85.4554 13.9216 84.8721 14.0227 84.2225 14.0227ZM84.2076 9.6527C84.6351 9.6527 84.9964 9.55327 85.2914 9.3544C85.5897 9.15223 85.815 8.86387 85.9675 8.48935C86.1233 8.11151 86.2012 7.65909 86.2012 7.1321C86.2012 6.61837 86.1249 6.16596 85.9725 5.77486C85.82 5.38376 85.5963 5.07884 85.3013 4.86009C85.0063 4.63802 84.6417 4.52699 84.2076 4.52699C83.7601 4.52699 83.3873 4.64299 83.089 4.875C82.7907 5.10369 82.5653 5.41525 82.4128 5.80966C82.2637 6.20407 82.1891 6.64489 82.1891 7.1321C82.1891 7.63258 82.2653 8.07173 82.4178 8.44957C82.5703 8.82741 82.7956 9.1224 83.0939 9.33452C83.3955 9.54664 83.7667 9.6527 84.2076 9.6527ZM91.1479 6.46591V11H89.6614V0.818182H91.128V4.60653H91.2225C91.4015 4.19555 91.6749 3.86908 92.0428 3.62713C92.4107 3.38518 92.8913 3.2642 93.4846 3.2642C94.0082 3.2642 94.4656 3.37192 94.8567 3.58736C95.2511 3.80279 95.556 4.12429 95.7715 4.55185C95.9902 4.97609 96.0996 5.50639 96.0996 6.14276V11H94.6131V6.32173C94.6131 5.7616 94.4689 5.32741 94.1806 5.01918C93.8922 4.70762 93.4912 4.55185 92.9775 4.55185C92.6261 4.55185 92.3113 4.62642 92.0328 4.77557C91.7578 4.92472 91.5407 5.14347 91.3816 5.43182C91.2258 5.71686 91.1479 6.06155 91.1479 6.46591ZM101.648 3.36364V4.55682H97.4767V3.36364H101.648ZM98.5953 1.53409H100.082V8.75781C100.082 9.04616 100.125 9.26326 100.211 9.40909C100.297 9.55161 100.408 9.64938 100.544 9.70241C100.683 9.75213 100.834 9.77699 100.997 9.77699C101.116 9.77699 101.22 9.7687 101.31 9.75213C101.399 9.73556 101.469 9.7223 101.519 9.71236L101.787 10.9403C101.701 10.9735 101.578 11.0066 101.419 11.0398C101.26 11.0762 101.061 11.0961 100.823 11.0994C100.432 11.1061 100.067 11.0365 99.7289 10.8906C99.3908 10.7448 99.1174 10.5194 98.9086 10.2145C98.6998 9.90956 98.5953 9.52675 98.5953 9.06605V1.53409Z" fill="black"/>
</svg>
