<svg width="60" height="12" viewBox="0 0 60 12" fill="none" xmlns="http://www.w3.org/2000/svg">
<path d="M4.63352 3.36364V4.55682H0.318182V3.36364H4.63352ZM1.50142 11V2.47869C1.50142 2.00142 1.60582 1.60535 1.81463 1.29048C2.02344 0.972301 2.30019 0.735322 2.64489 0.579545C2.98958 0.420454 3.36411 0.340908 3.76847 0.340908C4.06676 0.340908 4.32197 0.365767 4.53409 0.415483C4.74621 0.461884 4.90365 0.504971 5.00639 0.544744L4.65838 1.74787C4.58878 1.72798 4.49929 1.70478 4.38991 1.67827C4.28054 1.64844 4.14796 1.63352 3.99219 1.63352C3.63092 1.63352 3.3724 1.72301 3.21662 1.90199C3.06416 2.08097 2.98793 2.33949 2.98793 2.67756V11H1.50142ZM6.16726 11V3.36364H7.65376V11H6.16726ZM6.91797 2.18537C6.65945 2.18537 6.43738 2.09919 6.25178 1.92685C6.06948 1.75118 5.97834 1.54238 5.97834 1.30043C5.97834 1.05516 6.06948 0.846354 6.25178 0.674005C6.43738 0.498342 6.65945 0.410511 6.91797 0.410511C7.17649 0.410511 7.3969 0.498342 7.57919 0.674005C7.7648 0.846354 7.8576 1.05516 7.8576 1.30043C7.8576 1.54238 7.7648 1.75118 7.57919 1.92685C7.3969 2.09919 7.17649 2.18537 6.91797 2.18537ZM11.1401 0.818182V11H9.65359V0.818182H11.1401ZM16.7045 3.36364V4.55682H12.5334V3.36364H16.7045ZM13.652 1.53409H15.1385V8.75781C15.1385 9.04616 15.1816 9.26326 15.2678 9.40909C15.3539 9.55161 15.465 9.64938 15.6009 9.70241C15.7401 9.75213 15.8909 9.77699 16.0533 9.77699C16.1726 9.77699 16.277 9.7687 16.3665 9.75213C16.456 9.73556 16.5256 9.7223 16.5753 9.71236L16.8438 10.9403C16.7576 10.9735 16.6349 11.0066 16.4759 11.0398C16.3168 11.0762 16.1179 11.0961 15.8793 11.0994C15.4882 11.1061 15.1236 11.0365 14.7855 10.8906C14.4474 10.7448 14.174 10.5194 13.9652 10.2145C13.7564 9.90956 13.652 9.52675 13.652 9.06605V1.53409ZM21.5581 11.1541C20.8057 11.1541 20.1577 10.9934 19.6142 10.6719C19.0739 10.3471 18.6563 9.89134 18.3613 9.30469C18.0697 8.71473 17.9238 8.02367 17.9238 7.23153C17.9238 6.44934 18.0697 5.75994 18.3613 5.16335C18.6563 4.56676 19.0673 4.10109 19.5943 3.76633C20.1246 3.43158 20.7444 3.2642 21.4537 3.2642C21.8845 3.2642 22.3021 3.33546 22.7065 3.47798C23.1109 3.6205 23.4738 3.84422 23.7953 4.14915C24.1168 4.45407 24.3703 4.85014 24.5559 5.33736C24.7415 5.82126 24.8343 6.40956 24.8343 7.10227V7.62926H18.764V6.51562H23.3777C23.3777 6.12453 23.2981 5.77817 23.139 5.47656C22.9799 5.17164 22.7562 4.93134 22.4679 4.75568C22.1828 4.58002 21.8481 4.49219 21.4636 4.49219C21.046 4.49219 20.6814 4.59493 20.3699 4.80043C20.0616 5.0026 19.823 5.26776 19.6539 5.59588C19.4882 5.92069 19.4054 6.27367 19.4054 6.65483V7.52486C19.4054 8.03527 19.4949 8.46946 19.6738 8.82741C19.8561 9.18537 20.1097 9.45881 20.4345 9.64773C20.7593 9.83333 21.1388 9.92614 21.573 9.92614C21.8547 9.92614 22.1116 9.88636 22.3436 9.80682C22.5756 9.72396 22.7761 9.60133 22.9451 9.43892C23.1142 9.27652 23.2434 9.07599 23.3329 8.83736L24.7399 9.09091C24.6272 9.50521 24.425 9.86813 24.1333 10.1797C23.845 10.4879 23.4821 10.7282 23.0446 10.9006C22.6104 11.0696 22.1149 11.1541 21.5581 11.1541ZM26.4837 11V3.36364H27.9205V4.5767H28C28.1392 4.16572 28.3845 3.84257 28.7358 3.60724C29.0904 3.36861 29.4915 3.24929 29.9389 3.24929C30.0317 3.24929 30.1411 3.2526 30.267 3.25923C30.3963 3.26586 30.4974 3.27415 30.5703 3.28409V4.70597C30.5107 4.68939 30.4046 4.67116 30.2521 4.65128C30.0997 4.62808 29.9472 4.61648 29.7947 4.61648C29.4434 4.61648 29.1302 4.69105 28.8551 4.8402C28.5833 4.98603 28.3679 5.18987 28.2088 5.4517C28.0497 5.71023 27.9702 6.00521 27.9702 6.33665V11H26.4837ZM35.9048 6.05327V7.34091H31.3906V6.05327H35.9048ZM39.3725 0.818182V11H37.886V0.818182H39.3725ZM41.3723 11V3.36364H42.8588V11H41.3723ZM42.123 2.18537C41.8645 2.18537 41.6425 2.09919 41.4569 1.92685C41.2746 1.75118 41.1834 1.54238 41.1834 1.30043C41.1834 1.05516 41.2746 0.846354 41.4569 0.674005C41.6425 0.498342 41.8645 0.410511 42.123 0.410511C42.3816 0.410511 42.602 0.498342 42.7843 0.674005C42.9699 0.846354 43.0627 1.05516 43.0627 1.30043C43.0627 1.54238 42.9699 1.75118 42.7843 1.92685C42.602 2.09919 42.3816 2.18537 42.123 2.18537ZM46.3452 6.46591V11H44.8587V3.36364H46.2855V4.60653H46.38C46.5556 4.20218 46.8307 3.87737 47.2053 3.6321C47.5831 3.38684 48.0587 3.2642 48.6321 3.2642C49.1525 3.2642 49.6082 3.37358 49.9993 3.59233C50.3904 3.80777 50.6937 4.12926 50.9091 4.55682C51.1245 4.98437 51.2322 5.51302 51.2322 6.14276V11H49.7457V6.32173C49.7457 5.76823 49.6016 5.3357 49.3132 5.02415C49.0249 4.70928 48.6288 4.55185 48.125 4.55185C47.7803 4.55185 47.4737 4.62642 47.2053 4.77557C46.9401 4.92472 46.7296 5.14347 46.5739 5.43182C46.4214 5.71686 46.3452 6.06155 46.3452 6.46591ZM56.517 11.1541C55.7647 11.1541 55.1167 10.9934 54.5732 10.6719C54.0329 10.3471 53.6153 9.89134 53.3203 9.30469C53.0286 8.71473 52.8828 8.02367 52.8828 7.23153C52.8828 6.44934 53.0286 5.75994 53.3203 5.16335C53.6153 4.56676 54.0263 4.10109 54.5533 3.76633C55.0836 3.43158 55.7034 3.2642 56.4126 3.2642C56.8435 3.2642 57.2611 3.33546 57.6655 3.47798C58.0698 3.6205 58.4328 3.84422 58.7543 4.14915C59.0758 4.45407 59.3293 4.85014 59.5149 5.33736C59.7005 5.82126 59.7933 6.40956 59.7933 7.10227V7.62926H53.723V6.51562H58.3366C58.3366 6.12453 58.2571 5.77817 58.098 5.47656C57.9389 5.17164 57.7152 4.93134 57.4268 4.75568C57.1418 4.58002 56.8071 4.49219 56.4226 4.49219C56.005 4.49219 55.6404 4.59493 55.3288 4.80043C55.0206 5.0026 54.782 5.26776 54.6129 5.59588C54.4472 5.92069 54.3643 6.27367 54.3643 6.65483V7.52486C54.3643 8.03527 54.4538 8.46946 54.6328 8.82741C54.8151 9.18537 55.0687 9.45881 55.3935 9.64773C55.7183 9.83333 56.0978 9.92614 56.532 9.92614C56.8137 9.92614 57.0705 9.88636 57.3026 9.80682C57.5346 9.72396 57.7351 9.60133 57.9041 9.43892C58.0732 9.27652 58.2024 9.07599 58.2919 8.83736L59.6989 9.09091C59.5862 9.50521 59.384 9.86813 59.0923 10.1797C58.804 10.4879 58.4411 10.7282 58.0036 10.9006C57.5694 11.0696 57.0739 11.1541 56.517 11.1541Z" fill="black"/>
</svg>
