<svg width="55" height="12" viewBox="0 0 55 12" fill="none" xmlns="http://www.w3.org/2000/svg">
<path d="M6.72159 5.22798L5.37429 5.46662C5.31795 5.29427 5.22846 5.13021 5.10582 4.97443C4.98651 4.81865 4.8241 4.69105 4.61861 4.59162C4.41312 4.49219 4.15625 4.44247 3.84801 4.44247C3.42708 4.44247 3.07576 4.53693 2.79403 4.72585C2.51231 4.91146 2.37145 5.15175 2.37145 5.44673C2.37145 5.70194 2.46591 5.90743 2.65483 6.06321C2.84375 6.21899 3.14867 6.34659 3.5696 6.44602L4.78267 6.72443C5.48532 6.88684 6.009 7.13707 6.35369 7.47514C6.69839 7.81321 6.87074 8.25237 6.87074 8.79261C6.87074 9.25 6.73816 9.65767 6.47301 10.0156C6.21117 10.3703 5.84493 10.6487 5.37429 10.8509C4.90696 11.053 4.36506 11.1541 3.74858 11.1541C2.89347 11.1541 2.19579 10.9718 1.65554 10.6072C1.11529 10.2393 0.783854 9.71733 0.661222 9.04119L2.09801 8.82244C2.1875 9.19697 2.37145 9.48035 2.64986 9.67259C2.92827 9.86151 3.29119 9.95597 3.73864 9.95597C4.22585 9.95597 4.61529 9.85488 4.90696 9.6527C5.19863 9.44721 5.34446 9.19697 5.34446 8.90199C5.34446 8.66335 5.25497 8.46283 5.07599 8.30043C4.90033 8.13802 4.63021 8.01539 4.26562 7.93253L2.97301 7.64915C2.26042 7.48674 1.73343 7.22822 1.39205 6.87358C1.05398 6.51894 0.884943 6.06984 0.884943 5.52628C0.884943 5.07552 1.01089 4.68111 1.26278 4.34304C1.51468 4.00497 1.86269 3.74148 2.30682 3.55256C2.75095 3.36032 3.25971 3.2642 3.8331 3.2642C4.65838 3.2642 5.308 3.44318 5.78196 3.80114C6.25592 4.15578 6.56913 4.63139 6.72159 5.22798ZM10.7275 11.169C10.2435 11.169 9.80605 11.0795 9.41495 10.9006C9.02385 10.7183 8.71396 10.4548 8.48526 10.1101C8.25988 9.76539 8.14719 9.3428 8.14719 8.84233C8.14719 8.41146 8.23005 8.05682 8.39577 7.77841C8.56149 7.5 8.78522 7.27959 9.06694 7.11719C9.34866 6.95478 9.66353 6.83215 10.0115 6.74929C10.3596 6.66643 10.7142 6.60346 11.0755 6.56037C11.5328 6.50734 11.9041 6.46425 12.1891 6.43111C12.4741 6.39465 12.6813 6.33665 12.8105 6.2571C12.9398 6.17756 13.0044 6.0483 13.0044 5.86932V5.83452C13.0044 5.40033 12.8818 5.06392 12.6365 4.82528C12.3946 4.58665 12.0333 4.46733 11.5527 4.46733C11.0523 4.46733 10.6578 4.57836 10.3695 4.80043C10.0845 5.01918 9.88725 5.26278 9.77788 5.53125L8.38086 5.21307C8.54658 4.74905 8.78853 4.37453 9.10671 4.08949C9.42821 3.80114 9.79776 3.59233 10.2154 3.46307C10.633 3.33049 11.0721 3.2642 11.5328 3.2642C11.8378 3.2642 12.1609 3.30066 12.5023 3.37358C12.847 3.44318 13.1685 3.57244 13.4668 3.76136C13.7684 3.95028 14.0153 4.22041 14.2076 4.57173C14.3998 4.91974 14.4959 5.37216 14.4959 5.92898V11H13.0442V9.95597H12.9846C12.8884 10.1482 12.7443 10.3371 12.552 10.5227C12.3598 10.7083 12.1129 10.8625 11.8113 10.9851C11.5096 11.1077 11.1484 11.169 10.7275 11.169ZM11.0506 9.97585C11.4616 9.97585 11.8129 9.89465 12.1046 9.73224C12.3996 9.56984 12.6233 9.35772 12.7757 9.09588C12.9315 8.83073 13.0094 8.54735 13.0094 8.24574V7.26136C12.9564 7.31439 12.8536 7.36411 12.7012 7.41051C12.552 7.4536 12.3813 7.49171 12.1891 7.52486C11.9969 7.55469 11.8096 7.58286 11.6273 7.60938C11.445 7.63258 11.2926 7.65246 11.1699 7.66903C10.8816 7.70549 10.6181 7.76681 10.3794 7.85298C10.1441 7.93916 9.9552 8.06345 9.81268 8.22585C9.67347 8.38494 9.60387 8.59706 9.60387 8.86222C9.60387 9.23011 9.73976 9.50852 10.0115 9.69744C10.2833 9.88305 10.6297 9.97585 11.0506 9.97585ZM22.7351 3.36364L19.9659 11H18.375L15.6009 3.36364H17.1967L19.1307 9.24006H19.2102L21.1392 3.36364H22.7351ZM27.1635 11.1541C26.4112 11.1541 25.7632 10.9934 25.2196 10.6719C24.6794 10.3471 24.2618 9.89134 23.9668 9.30469C23.6751 8.71473 23.5293 8.02367 23.5293 7.23153C23.5293 6.44934 23.6751 5.75994 23.9668 5.16335C24.2618 4.56676 24.6728 4.10109 25.1998 3.76633C25.7301 3.43158 26.3498 3.2642 27.0591 3.2642C27.49 3.2642 27.9076 3.33546 28.312 3.47798C28.7163 3.6205 29.0792 3.84422 29.4007 4.14915C29.7222 4.45407 29.9758 4.85014 30.1614 5.33736C30.347 5.82126 30.4398 6.40956 30.4398 7.10227V7.62926H24.3695V6.51562H28.9831C28.9831 6.12453 28.9036 5.77817 28.7445 5.47656C28.5854 5.17164 28.3617 4.93134 28.0733 4.75568C27.7883 4.58002 27.4535 4.49219 27.0691 4.49219C26.6515 4.49219 26.2869 4.59493 25.9753 4.80043C25.6671 5.0026 25.4284 5.26776 25.2594 5.59588C25.0937 5.92069 25.0108 6.27367 25.0108 6.65483V7.52486C25.0108 8.03527 25.1003 8.46946 25.2793 8.82741C25.4616 9.18537 25.7151 9.45881 26.04 9.64773C26.3648 9.83333 26.7443 9.92614 27.1784 9.92614C27.4602 9.92614 27.717 9.88636 27.949 9.80682C28.181 9.72396 28.3816 9.60133 28.5506 9.43892C28.7196 9.27652 28.8489 9.07599 28.9384 8.83736L30.3453 9.09091C30.2327 9.50521 30.0305 9.86813 29.7388 10.1797C29.4505 10.4879 29.0875 10.7282 28.65 10.9006C28.2158 11.0696 27.7203 11.1541 27.1635 11.1541ZM36.5884 6.05327V7.34091H32.0742V6.05327H36.5884ZM42.0945 11.169C41.3089 11.1657 40.6378 10.9586 40.081 10.5476C39.5241 10.1366 39.0982 9.53835 38.8033 8.75284C38.5083 7.96733 38.3608 7.02107 38.3608 5.91406C38.3608 4.81037 38.5083 3.86742 38.8033 3.08523C39.1016 2.30303 39.5291 1.70644 40.0859 1.29545C40.6461 0.884469 41.3156 0.678977 42.0945 0.678977C42.8733 0.678977 43.5412 0.886126 44.098 1.30043C44.6548 1.71141 45.0807 2.308 45.3757 3.0902C45.674 3.86908 45.8232 4.81037 45.8232 5.91406C45.8232 7.02438 45.6757 7.9723 45.3807 8.75781C45.0857 9.54001 44.6598 10.1383 44.103 10.5526C43.5462 10.9635 42.8767 11.169 42.0945 11.169ZM42.0945 9.84162C42.7839 9.84162 43.3224 9.50521 43.7102 8.83239C44.1013 8.15956 44.2969 7.18679 44.2969 5.91406C44.2969 5.06889 44.2074 4.35464 44.0284 3.77131C43.8527 3.18466 43.5992 2.74053 43.2678 2.43892C42.9396 2.134 42.5485 1.98153 42.0945 1.98153C41.4084 1.98153 40.8698 2.3196 40.4787 2.99574C40.0876 3.67187 39.8904 4.64465 39.8871 5.91406C39.8871 6.76255 39.9749 7.48011 40.1506 8.06676C40.3295 8.65009 40.5831 9.09257 40.9112 9.39418C41.2393 9.69247 41.6338 9.84162 42.0945 9.84162ZM51.1316 11.1392C50.4488 11.1392 49.839 11.0215 49.302 10.7862C48.7684 10.5509 48.3458 10.2244 48.0343 9.80682C47.726 9.38589 47.5603 8.89867 47.5371 8.34517H49.0982C49.1181 8.64678 49.2192 8.90862 49.4015 9.13068C49.5871 9.34943 49.829 9.51847 50.1273 9.63778C50.4256 9.7571 50.757 9.81676 51.1216 9.81676C51.5227 9.81676 51.8773 9.74716 52.1855 9.60795C52.4971 9.46875 52.7407 9.27486 52.9164 9.02628C53.092 8.77438 53.1799 8.48438 53.1799 8.15625C53.1799 7.81487 53.092 7.51491 52.9164 7.25639C52.744 6.99455 52.4905 6.78906 52.1557 6.63991C51.8243 6.49077 51.4232 6.41619 50.9526 6.41619H50.0925V5.16335H50.9526C51.3304 5.16335 51.6619 5.09541 51.9469 4.95952C52.2353 4.82363 52.4606 4.63471 52.623 4.39276C52.7855 4.14749 52.8667 3.8608 52.8667 3.53267C52.8667 3.2178 52.7954 2.94437 52.6529 2.71236C52.5137 2.47704 52.3148 2.29309 52.0563 2.16051C51.8011 2.02794 51.4995 1.96165 51.1515 1.96165C50.82 1.96165 50.5101 2.02296 50.2218 2.1456C49.9367 2.26491 49.7047 2.43726 49.5257 2.66264C49.3468 2.88471 49.2507 3.15151 49.2374 3.46307H47.7509C47.7675 2.91288 47.9299 2.42898 48.2381 2.01136C48.5497 1.59375 48.9606 1.26728 49.4711 1.03196C49.9815 0.796638 50.5482 0.678977 51.1713 0.678977C51.8243 0.678977 52.3877 0.806581 52.8617 1.06179C53.339 1.31368 53.7069 1.65009 53.9654 2.07102C54.2272 2.49195 54.3565 2.95265 54.3532 3.45312C54.3565 4.0232 54.1974 4.5071 53.8759 4.90483C53.5577 5.30256 53.1335 5.56937 52.6032 5.70526V5.7848C53.2793 5.88755 53.803 6.15601 54.1742 6.5902C54.5487 7.02438 54.7343 7.56297 54.731 8.20597C54.7343 8.7661 54.5785 9.26823 54.2637 9.71236C53.9521 10.1565 53.5262 10.5062 52.986 10.7614C52.4457 11.0133 51.8276 11.1392 51.1316 11.1392Z" fill="black"/>
</svg>
