<svg width="96" height="15" viewBox="0 0 96 15" fill="none" xmlns="http://www.w3.org/2000/svg">
<path d="M6.72159 5.22798L5.37429 5.46662C5.31795 5.29427 5.22846 5.13021 5.10582 4.97443C4.98651 4.81865 4.8241 4.69105 4.61861 4.59162C4.41312 4.49219 4.15625 4.44247 3.84801 4.44247C3.42708 4.44247 3.07576 4.53693 2.79403 4.72585C2.51231 4.91146 2.37145 5.15175 2.37145 5.44673C2.37145 5.70194 2.46591 5.90743 2.65483 6.06321C2.84375 6.21899 3.14867 6.34659 3.5696 6.44602L4.78267 6.72443C5.48532 6.88684 6.009 7.13707 6.35369 7.47514C6.69839 7.81321 6.87074 8.25237 6.87074 8.79261C6.87074 9.25 6.73816 9.65767 6.47301 10.0156C6.21117 10.3703 5.84493 10.6487 5.37429 10.8509C4.90696 11.053 4.36506 11.1541 3.74858 11.1541C2.89347 11.1541 2.19579 10.9718 1.65554 10.6072C1.11529 10.2393 0.783854 9.71733 0.661222 9.04119L2.09801 8.82244C2.1875 9.19697 2.37145 9.48035 2.64986 9.67259C2.92827 9.86151 3.29119 9.95597 3.73864 9.95597C4.22585 9.95597 4.61529 9.85488 4.90696 9.6527C5.19863 9.44721 5.34446 9.19697 5.34446 8.90199C5.34446 8.66335 5.25497 8.46283 5.07599 8.30043C4.90033 8.13802 4.63021 8.01539 4.26562 7.93253L2.97301 7.64915C2.26042 7.48674 1.73343 7.22822 1.39205 6.87358C1.05398 6.51894 0.884943 6.06984 0.884943 5.52628C0.884943 5.07552 1.01089 4.68111 1.26278 4.34304C1.51468 4.00497 1.86269 3.74148 2.30682 3.55256C2.75095 3.36032 3.25971 3.2642 3.8331 3.2642C4.65838 3.2642 5.308 3.44318 5.78196 3.80114C6.25592 4.15578 6.56913 4.63139 6.72159 5.22798ZM9.99165 0.818182V11H8.50515V0.818182H9.99165ZM14.2138 11.169C13.7299 11.169 13.2924 11.0795 12.9013 10.9006C12.5102 10.7183 12.2003 10.4548 11.9716 10.1101C11.7462 9.76539 11.6335 9.3428 11.6335 8.84233C11.6335 8.41146 11.7164 8.05682 11.8821 7.77841C12.0478 7.5 12.2715 7.27959 12.5533 7.11719C12.835 6.95478 13.1499 6.83215 13.4979 6.74929C13.8459 6.66643 14.2005 6.60346 14.5618 6.56037C15.0192 6.50734 15.3904 6.46425 15.6754 6.43111C15.9605 6.39465 16.1676 6.33665 16.2969 6.2571C16.4261 6.17756 16.4908 6.0483 16.4908 5.86932V5.83452C16.4908 5.40033 16.3681 5.06392 16.1229 4.82528C15.8809 4.58665 15.5196 4.46733 15.0391 4.46733C14.5386 4.46733 14.1442 4.57836 13.8558 4.80043C13.5708 5.01918 13.3736 5.26278 13.2642 5.53125L11.8672 5.21307C12.0329 4.74905 12.2749 4.37453 12.593 4.08949C12.9145 3.80114 13.2841 3.59233 13.7017 3.46307C14.1193 3.33049 14.5585 3.2642 15.0192 3.2642C15.3241 3.2642 15.6473 3.30066 15.9886 3.37358C16.3333 3.44318 16.6548 3.57244 16.9531 3.76136C17.2547 3.95028 17.5017 4.22041 17.6939 4.57173C17.8861 4.91974 17.9822 5.37216 17.9822 5.92898V11H16.5305V9.95597H16.4709C16.3748 10.1482 16.2306 10.3371 16.0384 10.5227C15.8461 10.7083 15.5992 10.8625 15.2976 10.9851C14.996 11.1077 14.6347 11.169 14.2138 11.169ZM14.5369 9.97585C14.9479 9.97585 15.2992 9.89465 15.5909 9.73224C15.8859 9.56984 16.1096 9.35772 16.2621 9.09588C16.4179 8.83073 16.4957 8.54735 16.4957 8.24574V7.26136C16.4427 7.31439 16.34 7.36411 16.1875 7.41051C16.0384 7.4536 15.8677 7.49171 15.6754 7.52486C15.4832 7.55469 15.2959 7.58286 15.1136 7.60938C14.9313 7.63258 14.7789 7.65246 14.6562 7.66903C14.3679 7.70549 14.1044 7.76681 13.8658 7.85298C13.6304 7.93916 13.4415 8.06345 13.299 8.22585C13.1598 8.38494 13.0902 8.59706 13.0902 8.86222C13.0902 9.23011 13.2261 9.50852 13.4979 9.69744C13.7696 9.88305 14.116 9.97585 14.5369 9.97585ZM25.6845 5.22798L24.3372 5.46662C24.2808 5.29427 24.1913 5.13021 24.0687 4.97443C23.9494 4.81865 23.787 4.69105 23.5815 4.59162C23.376 4.49219 23.1191 4.44247 22.8109 4.44247C22.39 4.44247 22.0386 4.53693 21.7569 4.72585C21.4752 4.91146 21.3343 5.15175 21.3343 5.44673C21.3343 5.70194 21.4288 5.90743 21.6177 6.06321C21.8066 6.21899 22.1116 6.34659 22.5325 6.44602L23.7456 6.72443C24.4482 6.88684 24.9719 7.13707 25.3166 7.47514C25.6613 7.81321 25.8336 8.25237 25.8336 8.79261C25.8336 9.25 25.7011 9.65767 25.4359 10.0156C25.1741 10.3703 24.8078 10.6487 24.3372 10.8509C23.8699 11.053 23.3279 11.1541 22.7115 11.1541C21.8564 11.1541 21.1587 10.9718 20.6184 10.6072C20.0782 10.2393 19.7467 9.71733 19.6241 9.04119L21.0609 8.82244C21.1504 9.19697 21.3343 9.48035 21.6127 9.67259C21.8912 9.86151 22.2541 9.95597 22.7015 9.95597C23.1887 9.95597 23.5782 9.85488 23.8699 9.6527C24.1615 9.44721 24.3074 9.19697 24.3074 8.90199C24.3074 8.66335 24.2179 8.46283 24.0389 8.30043C23.8632 8.13802 23.5931 8.01539 23.2285 7.93253L21.9359 7.64915C21.2233 7.48674 20.6963 7.22822 20.3549 6.87358C20.0169 6.51894 19.8478 6.06984 19.8478 5.52628C19.8478 5.07552 19.9738 4.68111 20.2257 4.34304C20.4776 4.00497 20.8256 3.74148 21.2697 3.55256C21.7138 3.36032 22.2226 3.2642 22.796 3.2642C23.6213 3.2642 24.2709 3.44318 24.7449 3.80114C25.2188 4.15578 25.532 4.63139 25.6845 5.22798ZM28.9545 6.46591V11H27.468V0.818182H28.9347V4.60653H29.0291C29.2081 4.19555 29.4815 3.86908 29.8494 3.62713C30.2173 3.38518 30.6979 3.2642 31.2912 3.2642C31.8149 3.2642 32.2723 3.37192 32.6634 3.58736C33.0578 3.80279 33.3627 4.12429 33.5781 4.55185C33.7969 4.97609 33.9062 5.50639 33.9062 6.14276V11H32.4197V6.32173C32.4197 5.7616 32.2756 5.32741 31.9872 5.01918C31.6989 4.70762 31.2978 4.55185 30.7841 4.55185C30.4328 4.55185 30.1179 4.62642 29.8395 4.77557C29.5644 4.92472 29.3473 5.14347 29.1882 5.43182C29.0324 5.71686 28.9545 6.06155 28.9545 6.46591ZM40.3892 6.05327V7.34091H35.875V6.05327H40.3892ZM45.587 11.1541C44.8711 11.1541 44.2463 10.9901 43.7127 10.6619C43.1791 10.3338 42.7648 9.87476 42.4698 9.2848C42.1748 8.69484 42.0273 8.00544 42.0273 7.21662C42.0273 6.42448 42.1748 5.73177 42.4698 5.13849C42.7648 4.54522 43.1791 4.08452 43.7127 3.75639C44.2463 3.42827 44.8711 3.2642 45.587 3.2642C46.3029 3.2642 46.9277 3.42827 47.4613 3.75639C47.9949 4.08452 48.4092 4.54522 48.7042 5.13849C48.9992 5.73177 49.1467 6.42448 49.1467 7.21662C49.1467 8.00544 48.9992 8.69484 48.7042 9.2848C48.4092 9.87476 47.9949 10.3338 47.4613 10.6619C46.9277 10.9901 46.3029 11.1541 45.587 11.1541ZM45.592 9.90625C46.056 9.90625 46.4405 9.78362 46.7454 9.53835C47.0503 9.29309 47.2757 8.96662 47.4215 8.55895C47.5707 8.15128 47.6452 7.70218 47.6452 7.21165C47.6452 6.72443 47.5707 6.27699 47.4215 5.86932C47.2757 5.45833 47.0503 5.12855 46.7454 4.87997C46.4405 4.63139 46.056 4.5071 45.592 4.5071C45.1246 4.5071 44.7369 4.63139 44.4286 4.87997C44.1237 5.12855 43.8967 5.45833 43.7475 5.86932C43.6017 6.27699 43.5288 6.72443 43.5288 7.21165C43.5288 7.70218 43.6017 8.15128 43.7475 8.55895C43.8967 8.96662 44.1237 9.29309 44.4286 9.53835C44.7369 9.78362 45.1246 9.90625 45.592 9.90625ZM54.0225 11.1541C53.2834 11.1541 52.6471 10.9867 52.1135 10.652C51.5832 10.3139 51.1755 9.84825 50.8904 9.25497C50.6054 8.66169 50.4629 7.98224 50.4629 7.21662C50.4629 6.44105 50.6087 5.75663 50.9004 5.16335C51.1921 4.56676 51.603 4.10109 52.1333 3.76633C52.6636 3.43158 53.2884 3.2642 54.0076 3.2642C54.5877 3.2642 55.1047 3.37192 55.5588 3.58736C56.0128 3.79948 56.3791 4.09777 56.6575 4.48224C56.9392 4.86671 57.1066 5.31581 57.1596 5.82955H55.7129C55.6333 5.47159 55.4511 5.16335 55.166 4.90483C54.8843 4.64631 54.5065 4.51705 54.0325 4.51705C53.6182 4.51705 53.2553 4.62642 52.9437 4.84517C52.6355 5.06061 52.3952 5.36884 52.2228 5.76989C52.0505 6.16761 51.9643 6.63826 51.9643 7.18182C51.9643 7.73864 52.0488 8.21922 52.2179 8.62358C52.3869 9.02794 52.6255 9.34115 52.9338 9.56321C53.2453 9.78527 53.6116 9.89631 54.0325 9.89631C54.3142 9.89631 54.5694 9.84493 54.7981 9.74219C55.0301 9.63613 55.224 9.48532 55.3798 9.28977C55.5389 9.09422 55.6499 8.8589 55.7129 8.58381H57.1596C57.1066 9.07765 56.9458 9.51847 56.6774 9.90625C56.4089 10.294 56.0493 10.599 55.5985 10.821C55.1511 11.0431 54.6258 11.1541 54.0225 11.1541ZM62.3139 3.36364V4.55682H58.1428V3.36364H62.3139ZM59.2614 1.53409H60.7479V8.75781C60.7479 9.04616 60.791 9.26326 60.8771 9.40909C60.9633 9.55161 61.0743 9.64938 61.2102 9.70241C61.3494 9.75213 61.5002 9.77699 61.6626 9.77699C61.782 9.77699 61.8864 9.7687 61.9759 9.75213C62.0653 9.73556 62.1349 9.7223 62.1847 9.71236L62.4531 10.9403C62.367 10.9735 62.2443 11.0066 62.0852 11.0398C61.9261 11.0762 61.7273 11.0961 61.4886 11.0994C61.0975 11.1061 60.733 11.0365 60.3949 10.8906C60.0568 10.7448 59.7834 10.5194 59.5746 10.2145C59.3658 9.90956 59.2614 9.52675 59.2614 9.06605V1.53409ZM66.1806 11.169C65.6967 11.169 65.2592 11.0795 64.8681 10.9006C64.477 10.7183 64.1671 10.4548 63.9384 10.1101C63.713 9.76539 63.6003 9.3428 63.6003 8.84233C63.6003 8.41146 63.6832 8.05682 63.8489 7.77841C64.0146 7.5 64.2383 7.27959 64.5201 7.11719C64.8018 6.95478 65.1167 6.83215 65.4647 6.74929C65.8127 6.66643 66.1673 6.60346 66.5286 6.56037C66.986 6.50734 67.3572 6.46425 67.6422 6.43111C67.9273 6.39465 68.1344 6.33665 68.2637 6.2571C68.3929 6.17756 68.4576 6.0483 68.4576 5.86932V5.83452C68.4576 5.40033 68.3349 5.06392 68.0897 4.82528C67.8477 4.58665 67.4864 4.46733 67.0059 4.46733C66.5054 4.46733 66.111 4.57836 65.8226 4.80043C65.5376 5.01918 65.3404 5.26278 65.231 5.53125L63.834 5.21307C63.9997 4.74905 64.2417 4.37453 64.5598 4.08949C64.8813 3.80114 65.2509 3.59233 65.6685 3.46307C66.0861 3.33049 66.5253 3.2642 66.986 3.2642C67.2909 3.2642 67.6141 3.30066 67.9554 3.37358C68.3001 3.44318 68.6216 3.57244 68.9199 3.76136C69.2215 3.95028 69.4685 4.22041 69.6607 4.57173C69.8529 4.91974 69.949 5.37216 69.949 5.92898V11H68.4973V9.95597H68.4377C68.3416 10.1482 68.1974 10.3371 68.0051 10.5227C67.8129 10.7083 67.566 10.8625 67.2644 10.9851C66.9628 11.1077 66.6015 11.169 66.1806 11.169ZM66.5037 9.97585C66.9147 9.97585 67.266 9.89465 67.5577 9.73224C67.8527 9.56984 68.0764 9.35772 68.2289 9.09588C68.3846 8.83073 68.4625 8.54735 68.4625 8.24574V7.26136C68.4095 7.31439 68.3068 7.36411 68.1543 7.41051C68.0051 7.4536 67.8345 7.49171 67.6422 7.52486C67.45 7.55469 67.2627 7.58286 67.0804 7.60938C66.8981 7.63258 66.7457 7.65246 66.623 7.66903C66.3347 7.70549 66.0712 7.76681 65.8326 7.85298C65.5972 7.93916 65.4083 8.06345 65.2658 8.22585C65.1266 8.38494 65.057 8.59706 65.057 8.86222C65.057 9.23011 65.1929 9.50852 65.4647 9.69744C65.7364 9.88305 66.0828 9.97585 66.5037 9.97585ZM75.1307 14.0227C74.5241 14.0227 74.0021 13.9432 73.5646 13.7841C73.1304 13.625 72.7758 13.4145 72.5007 13.1527C72.2256 12.8909 72.0201 12.6042 71.8842 12.2926L73.1619 11.7656C73.2514 11.9115 73.3707 12.0656 73.5199 12.228C73.6723 12.3937 73.8778 12.5346 74.1364 12.6506C74.3982 12.7666 74.7346 12.8246 75.1456 12.8246C75.709 12.8246 76.1747 12.687 76.5426 12.4119C76.9105 12.1402 77.0945 11.706 77.0945 11.1094V9.60795H77C76.9105 9.77036 76.7813 9.95099 76.6122 10.1499C76.4465 10.3487 76.2178 10.5211 75.9261 10.6669C75.6345 10.8127 75.255 10.8857 74.7876 10.8857C74.1844 10.8857 73.6409 10.7448 73.157 10.4631C72.6764 10.178 72.2952 9.75876 72.0135 9.20526C71.7351 8.64844 71.5959 7.96401 71.5959 7.15199C71.5959 6.33996 71.7334 5.64394 72.0085 5.06392C72.2869 4.4839 72.6681 4.03977 73.152 3.73153C73.6359 3.41998 74.1844 3.2642 74.7976 3.2642C75.2715 3.2642 75.6544 3.34375 75.946 3.50284C76.2377 3.65862 76.4647 3.84091 76.6271 4.04972C76.7929 4.25852 76.9205 4.44247 77.0099 4.60156H77.1193V3.36364H78.576V11.169C78.576 11.8253 78.4235 12.3639 78.1186 12.7848C77.8137 13.2057 77.401 13.5173 76.8807 13.7195C76.3636 13.9216 75.7803 14.0227 75.1307 14.0227ZM75.1158 9.6527C75.5433 9.6527 75.9046 9.55327 76.1996 9.3544C76.4979 9.15223 76.7232 8.86387 76.8757 8.48935C77.0315 8.11151 77.1094 7.65909 77.1094 7.1321C77.1094 6.61837 77.0331 6.16596 76.8807 5.77486C76.7282 5.38376 76.5045 5.07884 76.2095 4.86009C75.9145 4.63802 75.55 4.52699 75.1158 4.52699C74.6683 4.52699 74.2955 4.64299 73.9972 4.875C73.6989 5.10369 73.4735 5.41525 73.321 5.80966C73.1719 6.20407 73.0973 6.64489 73.0973 7.1321C73.0973 7.63258 73.1735 8.07173 73.326 8.44957C73.4785 8.82741 73.7038 9.1224 74.0021 9.33452C74.3037 9.54664 74.675 9.6527 75.1158 9.6527ZM83.7862 11.1541C83.0703 11.1541 82.4455 10.9901 81.9119 10.6619C81.3783 10.3338 80.964 9.87476 80.669 9.2848C80.3741 8.69484 80.2266 8.00544 80.2266 7.21662C80.2266 6.42448 80.3741 5.73177 80.669 5.13849C80.964 4.54522 81.3783 4.08452 81.9119 3.75639C82.4455 3.42827 83.0703 3.2642 83.7862 3.2642C84.5021 3.2642 85.1269 3.42827 85.6605 3.75639C86.1941 4.08452 86.6084 4.54522 86.9034 5.13849C87.1984 5.73177 87.3459 6.42448 87.3459 7.21662C87.3459 8.00544 87.1984 8.69484 86.9034 9.2848C86.6084 9.87476 86.1941 10.3338 85.6605 10.6619C85.1269 10.9901 84.5021 11.1541 83.7862 11.1541ZM83.7912 9.90625C84.2552 9.90625 84.6397 9.78362 84.9446 9.53835C85.2495 9.29309 85.4749 8.96662 85.6207 8.55895C85.7699 8.15128 85.8445 7.70218 85.8445 7.21165C85.8445 6.72443 85.7699 6.27699 85.6207 5.86932C85.4749 5.45833 85.2495 5.12855 84.9446 4.87997C84.6397 4.63139 84.2552 4.5071 83.7912 4.5071C83.3239 4.5071 82.9361 4.63139 82.6278 4.87997C82.3229 5.12855 82.0959 5.45833 81.9467 5.86932C81.8009 6.27699 81.728 6.72443 81.728 7.21165C81.728 7.70218 81.8009 8.15128 81.9467 8.55895C82.0959 8.96662 82.3229 9.29309 82.6278 9.53835C82.9361 9.78362 83.3239 9.90625 83.7912 9.90625ZM90.4917 6.46591V11H89.0051V3.36364H90.432V4.60653H90.5265C90.7021 4.20218 90.9772 3.87737 91.3517 3.6321C91.7296 3.38684 92.2052 3.2642 92.7786 3.2642C93.2989 3.2642 93.7547 3.37358 94.1458 3.59233C94.5369 3.80777 94.8401 4.12926 95.0556 4.55682C95.271 4.98437 95.3787 5.51302 95.3787 6.14276V11H93.8922V6.32173C93.8922 5.76823 93.748 5.3357 93.4597 5.02415C93.1713 4.70928 92.7753 4.55185 92.2715 4.55185C91.9268 4.55185 91.6202 4.62642 91.3517 4.77557C91.0866 4.92472 90.8761 5.14347 90.7203 5.43182C90.5679 5.71686 90.4917 6.06155 90.4917 6.46591Z" fill="black"/>
</svg>
