<svg width="89" height="12" viewBox="0 0 89 12" fill="none" xmlns="http://www.w3.org/2000/svg">
<path d="M4.63352 3.36364V4.55682H0.318182V3.36364H4.63352ZM1.50142 11V2.47869C1.50142 2.00142 1.60582 1.60535 1.81463 1.29048C2.02344 0.972301 2.30019 0.735322 2.64489 0.579545C2.98958 0.420454 3.36411 0.340908 3.76847 0.340908C4.06676 0.340908 4.32197 0.365767 4.53409 0.415483C4.74621 0.461884 4.90365 0.504971 5.00639 0.544744L4.65838 1.74787C4.58878 1.72798 4.49929 1.70478 4.38991 1.67827C4.28054 1.64844 4.14796 1.63352 3.99219 1.63352C3.63092 1.63352 3.3724 1.72301 3.21662 1.90199C3.06416 2.08097 2.98793 2.33949 2.98793 2.67756V11H1.50142ZM9.0831 11.1541C8.36719 11.1541 7.74242 10.9901 7.20881 10.6619C6.67519 10.3338 6.26089 9.87476 5.96591 9.2848C5.67093 8.69484 5.52344 8.00544 5.52344 7.21662C5.52344 6.42448 5.67093 5.73177 5.96591 5.13849C6.26089 4.54522 6.67519 4.08452 7.20881 3.75639C7.74242 3.42827 8.36719 3.2642 9.0831 3.2642C9.79901 3.2642 10.4238 3.42827 10.9574 3.75639C11.491 4.08452 11.9053 4.54522 12.2003 5.13849C12.4953 5.73177 12.6428 6.42448 12.6428 7.21662C12.6428 8.00544 12.4953 8.69484 12.2003 9.2848C11.9053 9.87476 11.491 10.3338 10.9574 10.6619C10.4238 10.9901 9.79901 11.1541 9.0831 11.1541ZM9.08807 9.90625C9.55208 9.90625 9.93655 9.78362 10.2415 9.53835C10.5464 9.29309 10.7718 8.96662 10.9176 8.55895C11.0668 8.15128 11.1413 7.70218 11.1413 7.21165C11.1413 6.72443 11.0668 6.27699 10.9176 5.86932C10.7718 5.45833 10.5464 5.12855 10.2415 4.87997C9.93655 4.63139 9.55208 4.5071 9.08807 4.5071C8.62074 4.5071 8.23295 4.63139 7.92472 4.87997C7.61979 5.12855 7.39276 5.45833 7.24361 5.86932C7.09777 6.27699 7.02486 6.72443 7.02486 7.21165C7.02486 7.70218 7.09777 8.15128 7.24361 8.55895C7.39276 8.96662 7.61979 9.29309 7.92472 9.53835C8.23295 9.78362 8.62074 9.90625 9.08807 9.90625ZM15.7885 0.818182V11H14.302V0.818182H15.7885ZM20.647 11.1491C20.0305 11.1491 19.4804 10.9917 18.9964 10.6768C18.5159 10.3587 18.138 9.90625 17.8629 9.3196C17.5911 8.72964 17.4553 8.02202 17.4553 7.19673C17.4553 6.37145 17.5928 5.66548 17.8679 5.07884C18.1463 4.49219 18.5275 4.04309 19.0114 3.73153C19.4953 3.41998 20.0438 3.2642 20.657 3.2642C21.1309 3.2642 21.5121 3.34375 21.8004 3.50284C22.0921 3.65862 22.3175 3.84091 22.4766 4.04972C22.639 4.25852 22.7649 4.44247 22.8544 4.60156H22.9439V0.818182H24.4304V11H22.9787V9.81179H22.8544C22.7649 9.9742 22.6357 10.1598 22.4666 10.3686C22.3009 10.5774 22.0722 10.7597 21.7805 10.9155C21.4889 11.0713 21.111 11.1491 20.647 11.1491ZM20.9751 9.88139C21.4027 9.88139 21.764 9.7687 22.0589 9.54332C22.3572 9.31463 22.5826 8.99811 22.7351 8.59375C22.8909 8.18939 22.9688 7.71875 22.9688 7.18182C22.9688 6.65151 22.8925 6.1875 22.7401 5.78977C22.5876 5.39205 22.3639 5.08215 22.0689 4.86009C21.7739 4.63802 21.4093 4.52699 20.9751 4.52699C20.5277 4.52699 20.1548 4.64299 19.8565 4.875C19.5582 5.10701 19.3329 5.42353 19.1804 5.82457C19.0313 6.22562 18.9567 6.67803 18.9567 7.18182C18.9567 7.69223 19.0329 8.15128 19.1854 8.55895C19.3378 8.96662 19.5632 9.28977 19.8615 9.52841C20.1631 9.76373 20.5343 9.88139 20.9751 9.88139ZM29.8432 11.1541C29.0908 11.1541 28.4429 10.9934 27.8993 10.6719C27.3591 10.3471 26.9415 9.89134 26.6465 9.30469C26.3548 8.71473 26.209 8.02367 26.209 7.23153C26.209 6.44934 26.3548 5.75994 26.6465 5.16335C26.9415 4.56676 27.3525 4.10109 27.8794 3.76633C28.4097 3.43158 29.0295 3.2642 29.7388 3.2642C30.1697 3.2642 30.5873 3.33546 30.9917 3.47798C31.396 3.6205 31.7589 3.84422 32.0804 4.14915C32.4019 4.45407 32.6555 4.85014 32.8411 5.33736C33.0267 5.82126 33.1195 6.40956 33.1195 7.10227V7.62926H27.0492V6.51562H31.6628C31.6628 6.12453 31.5833 5.77817 31.4242 5.47656C31.2651 5.17164 31.0414 4.93134 30.753 4.75568C30.468 4.58002 30.1332 4.49219 29.7488 4.49219C29.3311 4.49219 28.9666 4.59493 28.655 4.80043C28.3468 5.0026 28.1081 5.26776 27.9391 5.59588C27.7734 5.92069 27.6905 6.27367 27.6905 6.65483V7.52486C27.6905 8.03527 27.78 8.46946 27.959 8.82741C28.1413 9.18537 28.3948 9.45881 28.7196 9.64773C29.0444 9.83333 29.4239 9.92614 29.8581 9.92614C30.1399 9.92614 30.3967 9.88636 30.6287 9.80682C30.8607 9.72396 31.0613 9.60133 31.2303 9.43892C31.3993 9.27652 31.5286 9.07599 31.6181 8.83736L33.025 9.09091C32.9123 9.50521 32.7102 9.86813 32.4185 10.1797C32.1301 10.4879 31.7672 10.7282 31.3297 10.9006C30.8955 11.0696 30.4 11.1541 29.8432 11.1541ZM34.7688 11V3.36364H36.2056V4.5767H36.2852C36.4244 4.16572 36.6696 3.84257 37.021 3.60724C37.3756 3.36861 37.7766 3.24929 38.2241 3.24929C38.3169 3.24929 38.4263 3.2526 38.5522 3.25923C38.6815 3.26586 38.7826 3.27415 38.8555 3.28409V4.70597C38.7958 4.68939 38.6897 4.67116 38.5373 4.65128C38.3848 4.62808 38.2324 4.61648 38.0799 4.61648C37.7286 4.61648 37.4154 4.69105 37.1403 4.8402C36.8685 4.98603 36.6531 5.18987 36.494 5.4517C36.3349 5.71023 36.2553 6.00521 36.2553 6.33665V11H34.7688ZM44.19 6.05327V7.34091H39.6758V6.05327H44.19ZM49.3878 11.1541C48.6487 11.1541 48.0123 10.9867 47.4787 10.652C46.9484 10.3139 46.5407 9.84825 46.2557 9.25497C45.9706 8.66169 45.8281 7.98224 45.8281 7.21662C45.8281 6.44105 45.974 5.75663 46.2656 5.16335C46.5573 4.56676 46.9683 4.10109 47.4986 3.76633C48.0289 3.43158 48.6536 3.2642 49.3729 3.2642C49.9529 3.2642 50.4699 3.37192 50.924 3.58736C51.3781 3.79948 51.7443 4.09777 52.0227 4.48224C52.3045 4.86671 52.4718 5.31581 52.5249 5.82955H51.0781C50.9986 5.47159 50.8163 5.16335 50.5312 4.90483C50.2495 4.64631 49.8717 4.51705 49.3977 4.51705C48.9834 4.51705 48.6205 4.62642 48.3089 4.84517C48.0007 5.06061 47.7604 5.36884 47.5881 5.76989C47.4157 6.16761 47.3295 6.63826 47.3295 7.18182C47.3295 7.73864 47.4141 8.21922 47.5831 8.62358C47.7521 9.02794 47.9908 9.34115 48.299 9.56321C48.6106 9.78527 48.9768 9.89631 49.3977 9.89631C49.6795 9.89631 49.9347 9.84493 50.1634 9.74219C50.3954 9.63613 50.5893 9.48532 50.745 9.28977C50.9041 9.09422 51.0152 8.8589 51.0781 8.58381H52.5249C52.4718 9.07765 52.3111 9.51847 52.0426 9.90625C51.7741 10.294 51.4145 10.599 50.9638 10.821C50.5163 11.0431 49.991 11.1541 49.3878 11.1541ZM55.601 0.818182V11H54.1145V0.818182H55.601ZM60.8175 11.1541C60.1016 11.1541 59.4768 10.9901 58.9432 10.6619C58.4096 10.3338 57.9953 9.87476 57.7003 9.2848C57.4053 8.69484 57.2578 8.00544 57.2578 7.21662C57.2578 6.42448 57.4053 5.73177 57.7003 5.13849C57.9953 4.54522 58.4096 4.08452 58.9432 3.75639C59.4768 3.42827 60.1016 3.2642 60.8175 3.2642C61.5334 3.2642 62.1581 3.42827 62.6918 3.75639C63.2254 4.08452 63.6397 4.54522 63.9347 5.13849C64.2296 5.73177 64.3771 6.42448 64.3771 7.21662C64.3771 8.00544 64.2296 8.69484 63.9347 9.2848C63.6397 9.87476 63.2254 10.3338 62.6918 10.6619C62.1581 10.9901 61.5334 11.1541 60.8175 11.1541ZM60.8224 9.90625C61.2865 9.90625 61.6709 9.78362 61.9759 9.53835C62.2808 9.29309 62.5062 8.96662 62.652 8.55895C62.8011 8.15128 62.8757 7.70218 62.8757 7.21165C62.8757 6.72443 62.8011 6.27699 62.652 5.86932C62.5062 5.45833 62.2808 5.12855 61.9759 4.87997C61.6709 4.63139 61.2865 4.5071 60.8224 4.5071C60.3551 4.5071 59.9673 4.63139 59.6591 4.87997C59.3542 5.12855 59.1271 5.45833 58.978 5.86932C58.8321 6.27699 58.7592 6.72443 58.7592 7.21165C58.7592 7.70218 58.8321 8.15128 58.978 8.55895C59.1271 8.96662 59.3542 9.29309 59.6591 9.53835C59.9673 9.78362 60.3551 9.90625 60.8224 9.90625ZM71.7587 5.22798L70.4114 5.46662C70.3551 5.29427 70.2656 5.13021 70.1429 4.97443C70.0236 4.81865 69.8612 4.69105 69.6557 4.59162C69.4502 4.49219 69.1934 4.44247 68.8851 4.44247C68.4642 4.44247 68.1129 4.53693 67.8311 4.72585C67.5494 4.91146 67.4086 5.15175 67.4086 5.44673C67.4086 5.70194 67.503 5.90743 67.6919 6.06321C67.8809 6.21899 68.1858 6.34659 68.6067 6.44602L69.8198 6.72443C70.5224 6.88684 71.0461 7.13707 71.3908 7.47514C71.7355 7.81321 71.9078 8.25237 71.9078 8.79261C71.9078 9.25 71.7753 9.65767 71.5101 10.0156C71.2483 10.3703 70.882 10.6487 70.4114 10.8509C69.9441 11.053 69.4022 11.1541 68.7857 11.1541C67.9306 11.1541 67.2329 10.9718 66.6926 10.6072C66.1524 10.2393 65.821 9.71733 65.6983 9.04119L67.1351 8.82244C67.2246 9.19697 67.4086 9.48035 67.687 9.67259C67.9654 9.86151 68.3283 9.95597 68.7757 9.95597C69.263 9.95597 69.6524 9.85488 69.9441 9.6527C70.2357 9.44721 70.3816 9.19697 70.3816 8.90199C70.3816 8.66335 70.2921 8.46283 70.1131 8.30043C69.9374 8.13802 69.6673 8.01539 69.3027 7.93253L68.0101 7.64915C67.2975 7.48674 66.7705 7.22822 66.4292 6.87358C66.0911 6.51894 65.9221 6.06984 65.9221 5.52628C65.9221 5.07552 66.048 4.68111 66.2999 4.34304C66.5518 4.00497 66.8998 3.74148 67.3439 3.55256C67.7881 3.36032 68.2968 3.2642 68.8702 3.2642C69.6955 3.2642 70.3451 3.44318 70.8191 3.80114C71.293 4.15578 71.6062 4.63139 71.7587 5.22798ZM76.8335 11.1541C76.0811 11.1541 75.4331 10.9934 74.8896 10.6719C74.3493 10.3471 73.9317 9.89134 73.6367 9.30469C73.3451 8.71473 73.1992 8.02367 73.1992 7.23153C73.1992 6.44934 73.3451 5.75994 73.6367 5.16335C73.9317 4.56676 74.3427 4.10109 74.8697 3.76633C75.4 3.43158 76.0198 3.2642 76.729 3.2642C77.1599 3.2642 77.5775 3.33546 77.9819 3.47798C78.3862 3.6205 78.7492 3.84422 79.0707 4.14915C79.3922 4.45407 79.6457 4.85014 79.8313 5.33736C80.0169 5.82126 80.1097 6.40956 80.1097 7.10227V7.62926H74.0394V6.51562H78.6531C78.6531 6.12453 78.5735 5.77817 78.4144 5.47656C78.2553 5.17164 78.0316 4.93134 77.7433 4.75568C77.4582 4.58002 77.1235 4.49219 76.739 4.49219C76.3214 4.49219 75.9568 4.59493 75.6452 4.80043C75.337 5.0026 75.0984 5.26776 74.9293 5.59588C74.7636 5.92069 74.6808 6.27367 74.6808 6.65483V7.52486C74.6808 8.03527 74.7702 8.46946 74.9492 8.82741C75.1315 9.18537 75.3851 9.45881 75.7099 9.64773C76.0347 9.83333 76.4142 9.92614 76.8484 9.92614C77.1301 9.92614 77.387 9.88636 77.619 9.80682C77.851 9.72396 78.0515 9.60133 78.2205 9.43892C78.3896 9.27652 78.5188 9.07599 78.6083 8.83736L80.0153 9.09091C79.9026 9.50521 79.7004 9.86813 79.4087 10.1797C79.1204 10.4879 78.7575 10.7282 78.32 10.9006C77.8858 11.0696 77.3903 11.1541 76.8335 11.1541ZM84.6177 11.1491C84.0012 11.1491 83.4511 10.9917 82.9672 10.6768C82.4866 10.3587 82.1087 9.90625 81.8336 9.3196C81.5618 8.72964 81.426 8.02202 81.426 7.19673C81.426 6.37145 81.5635 5.66548 81.8386 5.07884C82.117 4.49219 82.4982 4.04309 82.9821 3.73153C83.466 3.41998 84.0145 3.2642 84.6277 3.2642C85.1016 3.2642 85.4828 3.34375 85.7711 3.50284C86.0628 3.65862 86.2882 3.84091 86.4473 4.04972C86.6097 4.25852 86.7356 4.44247 86.8251 4.60156H86.9146V0.818182H88.4011V11H86.9494V9.81179H86.8251C86.7356 9.9742 86.6064 10.1598 86.4373 10.3686C86.2716 10.5774 86.0429 10.7597 85.7512 10.9155C85.4596 11.0713 85.0817 11.1491 84.6177 11.1491ZM84.9458 9.88139C85.3734 9.88139 85.7347 9.7687 86.0297 9.54332C86.3279 9.31463 86.5533 8.99811 86.7058 8.59375C86.8616 8.18939 86.9395 7.71875 86.9395 7.18182C86.9395 6.65151 86.8632 6.1875 86.7108 5.78977C86.5583 5.39205 86.3346 5.08215 86.0396 4.86009C85.7446 4.63802 85.38 4.52699 84.9458 4.52699C84.4984 4.52699 84.1255 4.64299 83.8272 4.875C83.5289 5.10701 83.3036 5.42353 83.1511 5.82457C83.002 6.22562 82.9274 6.67803 82.9274 7.18182C82.9274 7.69223 83.0036 8.15128 83.1561 8.55895C83.3085 8.96662 83.5339 9.28977 83.8322 9.52841C84.1338 9.76373 84.505 9.88139 84.9458 9.88139Z" fill="black"/>
</svg>
