<svg width="76" height="14" viewBox="0 0 76 14" fill="none" xmlns="http://www.w3.org/2000/svg">
<path d="M4.63352 3.36364V4.55682H0.318182V3.36364H4.63352ZM1.50142 11V2.47869C1.50142 2.00142 1.60582 1.60535 1.81463 1.29048C2.02344 0.972301 2.30019 0.735322 2.64489 0.579545C2.98958 0.420454 3.36411 0.340908 3.76847 0.340908C4.06676 0.340908 4.32197 0.365767 4.53409 0.415483C4.74621 0.461884 4.90365 0.504971 5.00639 0.544744L4.65838 1.74787C4.58878 1.72798 4.49929 1.70478 4.38991 1.67827C4.28054 1.64844 4.14796 1.63352 3.99219 1.63352C3.63092 1.63352 3.3724 1.72301 3.21662 1.90199C3.06416 2.08097 2.98793 2.33949 2.98793 2.67756V11H1.50142ZM6.16726 11V3.36364H7.65376V11H6.16726ZM6.91797 2.18537C6.65945 2.18537 6.43738 2.09919 6.25178 1.92685C6.06948 1.75118 5.97834 1.54238 5.97834 1.30043C5.97834 1.05516 6.06948 0.846354 6.25178 0.674005C6.43738 0.498342 6.65945 0.410511 6.91797 0.410511C7.17649 0.410511 7.3969 0.498342 7.57919 0.674005C7.7648 0.846354 7.8576 1.05516 7.8576 1.30043C7.8576 1.54238 7.7648 1.75118 7.57919 1.92685C7.3969 2.09919 7.17649 2.18537 6.91797 2.18537ZM11.1401 0.818182V11H9.65359V0.818182H11.1401ZM16.4311 11.1541C15.6787 11.1541 15.0308 10.9934 14.4872 10.6719C13.947 10.3471 13.5294 9.89134 13.2344 9.30469C12.9427 8.71473 12.7969 8.02367 12.7969 7.23153C12.7969 6.44934 12.9427 5.75994 13.2344 5.16335C13.5294 4.56676 13.9403 4.10109 14.4673 3.76633C14.9976 3.43158 15.6174 3.2642 16.3267 3.2642C16.7576 3.2642 17.1752 3.33546 17.5795 3.47798C17.9839 3.6205 18.3468 3.84422 18.6683 4.14915C18.9898 4.45407 19.2434 4.85014 19.429 5.33736C19.6146 5.82126 19.7074 6.40956 19.7074 7.10227V7.62926H13.6371V6.51562H18.2507C18.2507 6.12453 18.1712 5.77817 18.0121 5.47656C17.853 5.17164 17.6293 4.93134 17.3409 4.75568C17.0559 4.58002 16.7211 4.49219 16.3366 4.49219C15.919 4.49219 15.5545 4.59493 15.2429 4.80043C14.9347 5.0026 14.696 5.26776 14.527 5.59588C14.3613 5.92069 14.2784 6.27367 14.2784 6.65483V7.52486C14.2784 8.03527 14.3679 8.46946 14.5469 8.82741C14.7292 9.18537 14.9827 9.45881 15.3075 9.64773C15.6323 9.83333 16.0118 9.92614 16.446 9.92614C16.7277 9.92614 16.9846 9.88636 17.2166 9.80682C17.4486 9.72396 17.6491 9.60133 17.8182 9.43892C17.9872 9.27652 18.1165 9.07599 18.206 8.83736L19.6129 9.09091C19.5002 9.50521 19.2981 9.86813 19.0064 10.1797C18.718 10.4879 18.3551 10.7282 17.9176 10.9006C17.4834 11.0696 16.9879 11.1541 16.4311 11.1541ZM25.856 6.05327V7.34091H21.3418V6.05327H25.856ZM27.8372 13.8636V3.36364H29.2889V4.60156H29.4132C29.4993 4.44247 29.6236 4.25852 29.786 4.04972C29.9484 3.84091 30.1738 3.65862 30.4622 3.50284C30.7505 3.34375 31.1317 3.2642 31.6056 3.2642C32.2221 3.2642 32.7723 3.41998 33.2562 3.73153C33.7401 4.04309 34.1196 4.49219 34.3947 5.07884C34.6731 5.66548 34.8123 6.37145 34.8123 7.19673C34.8123 8.02202 34.6748 8.72964 34.3997 9.3196C34.1246 9.90625 33.7467 10.3587 33.2662 10.6768C32.7856 10.9917 32.237 11.1491 31.6206 11.1491C31.1565 11.1491 30.777 11.0713 30.4821 10.9155C30.1904 10.7597 29.9617 10.5774 29.796 10.3686C29.6303 10.1598 29.5027 9.9742 29.4132 9.81179H29.3237V13.8636H27.8372ZM29.2939 7.18182C29.2939 7.71875 29.3717 8.18939 29.5275 8.59375C29.6833 8.99811 29.9087 9.31463 30.2037 9.54332C30.4986 9.7687 30.8599 9.88139 31.2875 9.88139C31.7316 9.88139 32.1028 9.76373 32.4011 9.52841C32.6994 9.28977 32.9248 8.96662 33.0772 8.55895C33.233 8.15128 33.3109 7.69223 33.3109 7.18182C33.3109 6.67803 33.2347 6.22562 33.0822 5.82457C32.9331 5.42353 32.7077 5.10701 32.4061 4.875C32.1078 4.64299 31.7349 4.52699 31.2875 4.52699C30.8566 4.52699 30.492 4.63802 30.1937 4.86009C29.8987 5.08215 29.675 5.39205 29.5225 5.78977C29.3701 6.1875 29.2939 6.65151 29.2939 7.18182ZM37.9643 0.818182V11H36.4778V0.818182H37.9643ZM44.8015 7.8331V3.36364H46.293V11H44.8313V9.67756H44.7518C44.5761 10.0852 44.2944 10.425 43.9066 10.6967C43.5221 10.9652 43.0432 11.0994 42.4698 11.0994C41.9793 11.0994 41.5451 10.9917 41.1673 10.7763C40.7927 10.5575 40.4978 10.2344 40.2823 9.80682C40.0702 9.37926 39.9641 8.85062 39.9641 8.22088V3.36364H41.4506V8.0419C41.4506 8.56226 41.5948 8.97656 41.8832 9.2848C42.1715 9.59304 42.546 9.74716 43.0067 9.74716C43.2852 9.74716 43.5619 9.67756 43.837 9.53835C44.1154 9.39915 44.3458 9.18868 44.5281 8.90696C44.7137 8.62524 44.8048 8.26728 44.8015 7.8331ZM54.0126 5.22798L52.6653 5.46662C52.609 5.29427 52.5195 5.13021 52.3968 4.97443C52.2775 4.81865 52.1151 4.69105 51.9096 4.59162C51.7041 4.49219 51.4473 4.44247 51.139 4.44247C50.7181 4.44247 50.3668 4.53693 50.085 4.72585C49.8033 4.91146 49.6625 5.15175 49.6625 5.44673C49.6625 5.70194 49.7569 5.90743 49.9458 6.06321C50.1348 6.21899 50.4397 6.34659 50.8606 6.44602L52.0737 6.72443C52.7763 6.88684 53.3 7.13707 53.6447 7.47514C53.9894 7.81321 54.1618 8.25237 54.1618 8.79261C54.1618 9.25 54.0292 9.65767 53.764 10.0156C53.5022 10.3703 53.1359 10.6487 52.6653 10.8509C52.198 11.053 51.6561 11.1541 51.0396 11.1541C50.1845 11.1541 49.4868 10.9718 48.9466 10.6072C48.4063 10.2393 48.0749 9.71733 47.9522 9.04119L49.389 8.82244C49.4785 9.19697 49.6625 9.48035 49.9409 9.67259C50.2193 9.86151 50.5822 9.95597 51.0297 9.95597C51.5169 9.95597 51.9063 9.85488 52.198 9.6527C52.4896 9.44721 52.6355 9.19697 52.6355 8.90199C52.6355 8.66335 52.546 8.46283 52.367 8.30043C52.1913 8.13802 51.9212 8.01539 51.5566 7.93253L50.264 7.64915C49.5514 7.48674 49.0244 7.22822 48.6831 6.87358C48.345 6.51894 48.176 6.06984 48.176 5.52628C48.176 5.07552 48.3019 4.68111 48.5538 4.34304C48.8057 4.00497 49.1537 3.74148 49.5978 3.55256C50.042 3.36032 50.5507 3.2642 51.1241 3.2642C51.9494 3.2642 52.599 3.44318 53.073 3.80114C53.5469 4.15578 53.8601 4.63139 54.0126 5.22798ZM60.2955 6.05327V7.34091H55.7812V6.05327H60.2955ZM65.8015 11.169C65.016 11.1657 64.3448 10.9586 63.788 10.5476C63.2312 10.1366 62.8053 9.53835 62.5103 8.75284C62.2153 7.96733 62.0678 7.02107 62.0678 5.91406C62.0678 4.81037 62.2153 3.86742 62.5103 3.08523C62.8086 2.30303 63.2362 1.70644 63.793 1.29545C64.3531 0.884469 65.0226 0.678977 65.8015 0.678977C66.5804 0.678977 67.2482 0.886126 67.805 1.30043C68.3619 1.71141 68.7878 2.308 69.0827 3.0902C69.381 3.86908 69.5302 4.81037 69.5302 5.91406C69.5302 7.02438 69.3827 7.9723 69.0877 8.75781C68.7927 9.54001 68.3668 10.1383 67.81 10.5526C67.2532 10.9635 66.5837 11.169 65.8015 11.169ZM65.8015 9.84162C66.4909 9.84162 67.0295 9.50521 67.4173 8.83239C67.8084 8.15956 68.0039 7.18679 68.0039 5.91406C68.0039 5.06889 67.9144 4.35464 67.7354 3.77131C67.5598 3.18466 67.3062 2.74053 66.9748 2.43892C66.6467 2.134 66.2556 1.98153 65.8015 1.98153C65.1154 1.98153 64.5768 2.3196 64.1857 2.99574C63.7946 3.67187 63.5974 4.64465 63.5941 5.91406C63.5941 6.76255 63.6819 7.48011 63.8576 8.06676C64.0366 8.65009 64.2901 9.09257 64.6183 9.39418C64.9464 9.69247 65.3408 9.84162 65.8015 9.84162ZM75.1568 0.818182V11H73.6156V2.35938H73.5559L71.1199 3.95028V2.47869L73.6603 0.818182H75.1568Z" fill="black"/>
</svg>
