<svg width="146" height="14" viewBox="0 0 146 14" fill="none" xmlns="http://www.w3.org/2000/svg">
<path d="M4.21591 11.1541C3.4768 11.1541 2.84044 10.9867 2.30682 10.652C1.77652 10.3139 1.36884 9.84825 1.08381 9.25497C0.798769 8.66169 0.65625 7.98224 0.65625 7.21662C0.65625 6.44105 0.802083 5.75663 1.09375 5.16335C1.38542 4.56676 1.7964 4.10109 2.3267 3.76633C2.85701 3.43158 3.48177 3.2642 4.20099 3.2642C4.78101 3.2642 5.29806 3.37192 5.75213 3.58736C6.2062 3.79948 6.57244 4.09777 6.85085 4.48224C7.13258 4.86671 7.29995 5.31581 7.35298 5.82955H5.90625C5.8267 5.47159 5.64441 5.16335 5.35938 4.90483C5.07765 4.64631 4.69981 4.51705 4.22585 4.51705C3.81155 4.51705 3.44863 4.62642 3.13707 4.84517C2.82884 5.06061 2.58854 5.36884 2.41619 5.76989C2.24384 6.16761 2.15767 6.63826 2.15767 7.18182C2.15767 7.73864 2.24219 8.21922 2.41122 8.62358C2.58026 9.02794 2.81889 9.34115 3.12713 9.56321C3.43868 9.78527 3.80492 9.89631 4.22585 9.89631C4.50758 9.89631 4.76278 9.84493 4.99148 9.74219C5.22349 9.63613 5.41738 9.48532 5.57315 9.28977C5.73224 9.09422 5.84328 8.8589 5.90625 8.58381H7.35298C7.29995 9.07765 7.1392 9.51847 6.87074 9.90625C6.60227 10.294 6.24266 10.599 5.7919 10.821C5.34446 11.0431 4.81913 11.1541 4.21591 11.1541ZM10.4292 0.818182V11H8.94265V0.818182H10.4292ZM12.429 11V3.36364H13.9155V11H12.429ZM13.1797 2.18537C12.9212 2.18537 12.6991 2.09919 12.5135 1.92685C12.3312 1.75118 12.2401 1.54238 12.2401 1.30043C12.2401 1.05516 12.3312 0.846354 12.5135 0.674005C12.6991 0.498342 12.9212 0.410511 13.1797 0.410511C13.4382 0.410511 13.6586 0.498342 13.8409 0.674005C14.0265 0.846354 14.1193 1.05516 14.1193 1.30043C14.1193 1.54238 14.0265 1.75118 13.8409 1.92685C13.6586 2.09919 13.4382 2.18537 13.1797 2.18537ZM15.9153 13.8636V3.36364H17.367V4.60156H17.4913C17.5775 4.44247 17.7018 4.25852 17.8642 4.04972C18.0266 3.84091 18.252 3.65862 18.5403 3.50284C18.8287 3.34375 19.2098 3.2642 19.6838 3.2642C20.3002 3.2642 20.8504 3.41998 21.3343 3.73153C21.8182 4.04309 22.1977 4.49219 22.4728 5.07884C22.7512 5.66548 22.8904 6.37145 22.8904 7.19673C22.8904 8.02202 22.7529 8.72964 22.4778 9.3196C22.2027 9.90625 21.8249 10.3587 21.3443 10.6768C20.8637 10.9917 20.3152 11.1491 19.6987 11.1491C19.2347 11.1491 18.8552 11.0713 18.5602 10.9155C18.2685 10.7597 18.0398 10.5774 17.8741 10.3686C17.7084 10.1598 17.5808 9.9742 17.4913 9.81179H17.4018V13.8636H15.9153ZM17.372 7.18182C17.372 7.71875 17.4499 8.18939 17.6056 8.59375C17.7614 8.99811 17.9868 9.31463 18.2818 9.54332C18.5768 9.7687 18.938 9.88139 19.3656 9.88139C19.8097 9.88139 20.1809 9.76373 20.4792 9.52841C20.7775 9.28977 21.0029 8.96662 21.1554 8.55895C21.3111 8.15128 21.389 7.69223 21.389 7.18182C21.389 6.67803 21.3128 6.22562 21.1603 5.82457C21.0112 5.42353 20.7858 5.10701 20.4842 4.875C20.1859 4.64299 19.813 4.52699 19.3656 4.52699C18.9347 4.52699 18.5701 4.63802 18.2718 4.86009C17.9769 5.08215 17.7531 5.39205 17.6007 5.78977C17.4482 6.1875 17.372 6.65151 17.372 7.18182ZM24.6752 11V0.818182H26.1618V4.60156H26.2512C26.3374 4.44247 26.4617 4.25852 26.6241 4.04972C26.7865 3.84091 27.0119 3.65862 27.3002 3.50284C27.5886 3.34375 27.9698 3.2642 28.4437 3.2642C29.0602 3.2642 29.6104 3.41998 30.0943 3.73153C30.5782 4.04309 30.9577 4.49219 31.2328 5.07884C31.5112 5.66548 31.6504 6.37145 31.6504 7.19673C31.6504 8.02202 31.5128 8.72964 31.2377 9.3196C30.9627 9.90625 30.5848 10.3587 30.1042 10.6768C29.6236 10.9917 29.0751 11.1491 28.4586 11.1491C27.9946 11.1491 27.6151 11.0713 27.3201 10.9155C27.0285 10.7597 26.7998 10.5774 26.6341 10.3686C26.4683 10.1598 26.3407 9.9742 26.2512 9.81179H26.127V11H24.6752ZM26.1319 7.18182C26.1319 7.71875 26.2098 8.18939 26.3656 8.59375C26.5214 8.99811 26.7467 9.31463 27.0417 9.54332C27.3367 9.7687 27.698 9.88139 28.1255 9.88139C28.5697 9.88139 28.9409 9.76373 29.2392 9.52841C29.5375 9.28977 29.7628 8.96662 29.9153 8.55895C30.0711 8.15128 30.149 7.69223 30.149 7.18182C30.149 6.67803 30.0727 6.22562 29.9203 5.82457C29.7711 5.42353 29.5458 5.10701 29.2441 4.875C28.9458 4.64299 28.573 4.52699 28.1255 4.52699C27.6947 4.52699 27.3301 4.63802 27.0318 4.86009C26.7368 5.08215 26.5131 5.39205 26.3606 5.78977C26.2082 6.1875 26.1319 6.65151 26.1319 7.18182ZM36.5362 11.1541C35.8203 11.1541 35.1955 10.9901 34.6619 10.6619C34.1283 10.3338 33.714 9.87476 33.419 9.2848C33.1241 8.69484 32.9766 8.00544 32.9766 7.21662C32.9766 6.42448 33.1241 5.73177 33.419 5.13849C33.714 4.54522 34.1283 4.08452 34.6619 3.75639C35.1955 3.42827 35.8203 3.2642 36.5362 3.2642C37.2521 3.2642 37.8769 3.42827 38.4105 3.75639C38.9441 4.08452 39.3584 4.54522 39.6534 5.13849C39.9484 5.73177 40.0959 6.42448 40.0959 7.21662C40.0959 8.00544 39.9484 8.69484 39.6534 9.2848C39.3584 9.87476 38.9441 10.3338 38.4105 10.6619C37.8769 10.9901 37.2521 11.1541 36.5362 11.1541ZM36.5412 9.90625C37.0052 9.90625 37.3897 9.78362 37.6946 9.53835C37.9995 9.29309 38.2249 8.96662 38.3707 8.55895C38.5199 8.15128 38.5945 7.70218 38.5945 7.21165C38.5945 6.72443 38.5199 6.27699 38.3707 5.86932C38.2249 5.45833 37.9995 5.12855 37.6946 4.87997C37.3897 4.63139 37.0052 4.5071 36.5412 4.5071C36.0739 4.5071 35.6861 4.63139 35.3778 4.87997C35.0729 5.12855 34.8459 5.45833 34.6967 5.86932C34.5509 6.27699 34.478 6.72443 34.478 7.21165C34.478 7.70218 34.5509 8.15128 34.6967 8.55895C34.8459 8.96662 35.0729 9.29309 35.3778 9.53835C35.6861 9.78362 36.0739 9.90625 36.5412 9.90625ZM43.9775 11.169C43.4935 11.169 43.056 11.0795 42.665 10.9006C42.2739 10.7183 41.964 10.4548 41.7353 10.1101C41.5099 9.76539 41.3972 9.3428 41.3972 8.84233C41.3972 8.41146 41.4801 8.05682 41.6458 7.77841C41.8115 7.5 42.0352 7.27959 42.3169 7.11719C42.5987 6.95478 42.9135 6.83215 43.2615 6.74929C43.6096 6.66643 43.9642 6.60346 44.3255 6.56037C44.7828 6.50734 45.1541 6.46425 45.4391 6.43111C45.7241 6.39465 45.9313 6.33665 46.0605 6.2571C46.1898 6.17756 46.2544 6.0483 46.2544 5.86932V5.83452C46.2544 5.40033 46.1318 5.06392 45.8865 4.82528C45.6446 4.58665 45.2833 4.46733 44.8027 4.46733C44.3023 4.46733 43.9078 4.57836 43.6195 4.80043C43.3345 5.01918 43.1373 5.26278 43.0279 5.53125L41.6309 5.21307C41.7966 4.74905 42.0385 4.37453 42.3567 4.08949C42.6782 3.80114 43.0478 3.59233 43.4654 3.46307C43.883 3.33049 44.3221 3.2642 44.7828 3.2642C45.0878 3.2642 45.4109 3.30066 45.7523 3.37358C46.097 3.44318 46.4185 3.57244 46.7168 3.76136C47.0184 3.95028 47.2653 4.22041 47.4576 4.57173C47.6498 4.91974 47.7459 5.37216 47.7459 5.92898V11H46.2942V9.95597H46.2346C46.1384 10.1482 45.9943 10.3371 45.802 10.5227C45.6098 10.7083 45.3629 10.8625 45.0613 10.9851C44.7596 11.1077 44.3984 11.169 43.9775 11.169ZM44.3006 9.97585C44.7116 9.97585 45.0629 9.89465 45.3546 9.73224C45.6496 9.56984 45.8733 9.35772 46.0257 9.09588C46.1815 8.83073 46.2594 8.54735 46.2594 8.24574V7.26136C46.2064 7.31439 46.1036 7.36411 45.9512 7.41051C45.802 7.4536 45.6313 7.49171 45.4391 7.52486C45.2469 7.55469 45.0596 7.58286 44.8773 7.60938C44.695 7.63258 44.5426 7.65246 44.4199 7.66903C44.1316 7.70549 43.8681 7.76681 43.6294 7.85298C43.3941 7.93916 43.2052 8.06345 43.0627 8.22585C42.9235 8.38494 42.8539 8.59706 42.8539 8.86222C42.8539 9.23011 42.9898 9.50852 43.2615 9.69744C43.5333 9.88305 43.8797 9.97585 44.3006 9.97585ZM49.7259 11V3.36364H51.1626V4.5767H51.2422C51.3814 4.16572 51.6267 3.84257 51.978 3.60724C52.3326 3.36861 52.7337 3.24929 53.1811 3.24929C53.2739 3.24929 53.3833 3.2526 53.5092 3.25923C53.6385 3.26586 53.7396 3.27415 53.8125 3.28409V4.70597C53.7528 4.68939 53.6468 4.67116 53.4943 4.65128C53.3419 4.62808 53.1894 4.61648 53.0369 4.61648C52.6856 4.61648 52.3724 4.69105 52.0973 4.8402C51.8255 4.98603 51.6101 5.18987 51.451 5.4517C51.2919 5.71023 51.2124 6.00521 51.2124 6.33665V11H49.7259ZM57.6841 11.1491C57.0676 11.1491 56.5175 10.9917 56.0336 10.6768C55.553 10.3587 55.1751 9.90625 54.9 9.3196C54.6283 8.72964 54.4924 8.02202 54.4924 7.19673C54.4924 6.37145 54.6299 5.66548 54.905 5.07884C55.1834 4.49219 55.5646 4.04309 56.0485 3.73153C56.5324 3.41998 57.0809 3.2642 57.6941 3.2642C58.168 3.2642 58.5492 3.34375 58.8375 3.50284C59.1292 3.65862 59.3546 3.84091 59.5137 4.04972C59.6761 4.25852 59.802 4.44247 59.8915 4.60156H59.981V0.818182H61.4675V11H60.0158V9.81179H59.8915C59.802 9.9742 59.6728 10.1598 59.5037 10.3686C59.338 10.5774 59.1093 10.7597 58.8176 10.9155C58.526 11.0713 58.1481 11.1491 57.6841 11.1491ZM58.0123 9.88139C58.4398 9.88139 58.8011 9.7687 59.0961 9.54332C59.3944 9.31463 59.6197 8.99811 59.7722 8.59375C59.928 8.18939 60.0059 7.71875 60.0059 7.18182C60.0059 6.65151 59.9296 6.1875 59.7772 5.78977C59.6247 5.39205 59.401 5.08215 59.106 4.86009C58.811 4.63802 58.4464 4.52699 58.0123 4.52699C57.5648 4.52699 57.1919 4.64299 56.8936 4.875C56.5953 5.10701 56.37 5.42353 56.2175 5.82457C56.0684 6.22562 55.9938 6.67803 55.9938 7.18182C55.9938 7.69223 56.07 8.15128 56.2225 8.55895C56.3749 8.96662 56.6003 9.28977 56.8986 9.52841C57.2002 9.76373 57.5714 9.88139 58.0123 9.88139ZM68.0884 6.05327V7.34091H63.5742V6.05327H68.0884ZM72.2919 11.169C71.808 11.169 71.3705 11.0795 70.9794 10.9006C70.5883 10.7183 70.2784 10.4548 70.0497 10.1101C69.8243 9.76539 69.7116 9.3428 69.7116 8.84233C69.7116 8.41146 69.7945 8.05682 69.9602 7.77841C70.1259 7.5 70.3497 7.27959 70.6314 7.11719C70.9131 6.95478 71.228 6.83215 71.576 6.74929C71.924 6.66643 72.2786 6.60346 72.6399 6.56037C73.0973 6.50734 73.4685 6.46425 73.7536 6.43111C74.0386 6.39465 74.2457 6.33665 74.375 6.2571C74.5043 6.17756 74.5689 6.0483 74.5689 5.86932V5.83452C74.5689 5.40033 74.4463 5.06392 74.201 4.82528C73.959 4.58665 73.5978 4.46733 73.1172 4.46733C72.6167 4.46733 72.2223 4.57836 71.9339 4.80043C71.6489 5.01918 71.4517 5.26278 71.3423 5.53125L69.9453 5.21307C70.111 4.74905 70.353 4.37453 70.6712 4.08949C70.9927 3.80114 71.3622 3.59233 71.7798 3.46307C72.1974 3.33049 72.6366 3.2642 73.0973 3.2642C73.4022 3.2642 73.7254 3.30066 74.0668 3.37358C74.4115 3.44318 74.733 3.57244 75.0312 3.76136C75.3329 3.95028 75.5798 4.22041 75.772 4.57173C75.9643 4.91974 76.0604 5.37216 76.0604 5.92898V11H74.6087V9.95597H74.549C74.4529 10.1482 74.3087 10.3371 74.1165 10.5227C73.9242 10.7083 73.6773 10.8625 73.3757 10.9851C73.0741 11.1077 72.7128 11.169 72.2919 11.169ZM72.6151 9.97585C73.026 9.97585 73.3774 9.89465 73.669 9.73224C73.964 9.56984 74.1877 9.35772 74.3402 9.09588C74.496 8.83073 74.5739 8.54735 74.5739 8.24574V7.26136C74.5208 7.31439 74.4181 7.36411 74.2656 7.41051C74.1165 7.4536 73.9458 7.49171 73.7536 7.52486C73.5613 7.55469 73.3741 7.58286 73.1918 7.60938C73.0095 7.63258 72.857 7.65246 72.7344 7.66903C72.446 7.70549 72.1825 7.76681 71.9439 7.85298C71.7086 7.93916 71.5196 8.06345 71.3771 8.22585C71.2379 8.38494 71.1683 8.59706 71.1683 8.86222C71.1683 9.23011 71.3042 9.50852 71.576 9.69744C71.8478 9.88305 72.1941 9.97585 72.6151 9.97585ZM81.6049 3.36364V4.55682H77.4338V3.36364H81.6049ZM78.5524 1.53409H80.0389V8.75781C80.0389 9.04616 80.082 9.26326 80.1681 9.40909C80.2543 9.55161 80.3654 9.64938 80.5012 9.70241C80.6404 9.75213 80.7913 9.77699 80.9537 9.77699C81.073 9.77699 81.1774 9.7687 81.2669 9.75213C81.3564 9.73556 81.426 9.7223 81.4757 9.71236L81.7441 10.9403C81.658 10.9735 81.5353 11.0066 81.3762 11.0398C81.2172 11.0762 81.0183 11.0961 80.7797 11.0994C80.3886 11.1061 80.024 11.0365 79.6859 10.8906C79.3478 10.7448 79.0744 10.5194 78.8656 10.2145C78.6568 9.90956 78.5524 9.52675 78.5524 9.06605V1.53409ZM86.8139 3.36364V4.55682H82.6428V3.36364H86.8139ZM83.7614 1.53409H85.2479V8.75781C85.2479 9.04616 85.291 9.26326 85.3771 9.40909C85.4633 9.55161 85.5743 9.64938 85.7102 9.70241C85.8494 9.75213 86.0002 9.77699 86.1626 9.77699C86.282 9.77699 86.3864 9.7687 86.4759 9.75213C86.5653 9.73556 86.6349 9.7223 86.6847 9.71236L86.9531 10.9403C86.867 10.9735 86.7443 11.0066 86.5852 11.0398C86.4261 11.0762 86.2273 11.0961 85.9886 11.0994C85.5975 11.1061 85.233 11.0365 84.8949 10.8906C84.5568 10.7448 84.2834 10.5194 84.0746 10.2145C83.8658 9.90956 83.7614 9.52675 83.7614 9.06605V1.53409ZM90.6806 11.169C90.1967 11.169 89.7592 11.0795 89.3681 10.9006C88.977 10.7183 88.6671 10.4548 88.4384 10.1101C88.213 9.76539 88.1003 9.3428 88.1003 8.84233C88.1003 8.41146 88.1832 8.05682 88.3489 7.77841C88.5146 7.5 88.7383 7.27959 89.0201 7.11719C89.3018 6.95478 89.6167 6.83215 89.9647 6.74929C90.3127 6.66643 90.6673 6.60346 91.0286 6.56037C91.486 6.50734 91.8572 6.46425 92.1422 6.43111C92.4273 6.39465 92.6344 6.33665 92.7637 6.2571C92.8929 6.17756 92.9576 6.0483 92.9576 5.86932V5.83452C92.9576 5.40033 92.8349 5.06392 92.5897 4.82528C92.3477 4.58665 91.9864 4.46733 91.5059 4.46733C91.0054 4.46733 90.611 4.57836 90.3226 4.80043C90.0376 5.01918 89.8404 5.26278 89.731 5.53125L88.334 5.21307C88.4997 4.74905 88.7417 4.37453 89.0598 4.08949C89.3813 3.80114 89.7509 3.59233 90.1685 3.46307C90.5861 3.33049 91.0253 3.2642 91.486 3.2642C91.7909 3.2642 92.1141 3.30066 92.4554 3.37358C92.8001 3.44318 93.1216 3.57244 93.4199 3.76136C93.7215 3.95028 93.9685 4.22041 94.1607 4.57173C94.3529 4.91974 94.449 5.37216 94.449 5.92898V11H92.9973V9.95597H92.9377C92.8416 10.1482 92.6974 10.3371 92.5051 10.5227C92.3129 10.7083 92.066 10.8625 91.7644 10.9851C91.4628 11.1077 91.1015 11.169 90.6806 11.169ZM91.0037 9.97585C91.4147 9.97585 91.766 9.89465 92.0577 9.73224C92.3527 9.56984 92.5764 9.35772 92.7289 9.09588C92.8846 8.83073 92.9625 8.54735 92.9625 8.24574V7.26136C92.9095 7.31439 92.8068 7.36411 92.6543 7.41051C92.5051 7.4536 92.3345 7.49171 92.1422 7.52486C91.95 7.55469 91.7627 7.58286 91.5804 7.60938C91.3981 7.63258 91.2457 7.65246 91.123 7.66903C90.8347 7.70549 90.5712 7.76681 90.3326 7.85298C90.0972 7.93916 89.9083 8.06345 89.7658 8.22585C89.6266 8.38494 89.557 8.59706 89.557 8.86222C89.557 9.23011 89.6929 9.50852 89.9647 9.69744C90.2364 9.88305 90.5828 9.97585 91.0037 9.97585ZM99.6456 11.1541C98.9065 11.1541 98.2701 10.9867 97.7365 10.652C97.2062 10.3139 96.7985 9.84825 96.5135 9.25497C96.2285 8.66169 96.0859 7.98224 96.0859 7.21662C96.0859 6.44105 96.2318 5.75663 96.5234 5.16335C96.8151 4.56676 97.2261 4.10109 97.7564 3.76633C98.2867 3.43158 98.9115 3.2642 99.6307 3.2642C100.211 3.2642 100.728 3.37192 101.182 3.58736C101.636 3.79948 102.002 4.09777 102.281 4.48224C102.562 4.86671 102.73 5.31581 102.783 5.82955H101.336C101.256 5.47159 101.074 5.16335 100.789 4.90483C100.507 4.64631 100.129 4.51705 99.6555 4.51705C99.2412 4.51705 98.8783 4.62642 98.5668 4.84517C98.2585 5.06061 98.0182 5.36884 97.8459 5.76989C97.6735 6.16761 97.5874 6.63826 97.5874 7.18182C97.5874 7.73864 97.6719 8.21922 97.8409 8.62358C98.0099 9.02794 98.2486 9.34115 98.5568 9.56321C98.8684 9.78527 99.2346 9.89631 99.6555 9.89631C99.9373 9.89631 100.192 9.84493 100.421 9.74219C100.653 9.63613 100.847 9.48532 101.003 9.28977C101.162 9.09422 101.273 8.8589 101.336 8.58381H102.783C102.73 9.07765 102.569 9.51847 102.3 9.90625C102.032 10.294 101.672 10.599 101.222 10.821C100.774 11.0431 100.249 11.1541 99.6456 11.1541ZM105.859 6.46591V11H104.372V0.818182H105.839V4.60653H105.933C106.112 4.19555 106.386 3.86908 106.754 3.62713C107.122 3.38518 107.602 3.2642 108.195 3.2642C108.719 3.2642 109.177 3.37192 109.568 3.58736C109.962 3.80279 110.267 4.12429 110.482 4.55185C110.701 4.97609 110.811 5.50639 110.811 6.14276V11H109.324V6.32173C109.324 5.7616 109.18 5.32741 108.892 5.01918C108.603 4.70762 108.202 4.55185 107.688 4.55185C107.337 4.55185 107.022 4.62642 106.744 4.77557C106.469 4.92472 106.252 5.14347 106.093 5.43182C105.937 5.71686 105.859 6.06155 105.859 6.46591ZM112.794 11V3.36364H114.221V4.60653H114.316C114.475 4.18561 114.735 3.85748 115.096 3.62216C115.457 3.38352 115.89 3.2642 116.394 3.2642C116.904 3.2642 117.332 3.38352 117.676 3.62216C118.024 3.8608 118.281 4.18892 118.447 4.60653H118.526C118.709 4.19886 118.999 3.87405 119.396 3.6321C119.794 3.38684 120.268 3.2642 120.818 3.2642C121.511 3.2642 122.076 3.4813 122.514 3.91548C122.954 4.34967 123.175 5.00426 123.175 5.87926V11H121.688V6.01847C121.688 5.50142 121.548 5.12689 121.266 4.89489C120.984 4.66288 120.648 4.54688 120.257 4.54688C119.773 4.54688 119.396 4.69602 119.128 4.99432C118.86 5.2893 118.725 5.6688 118.725 6.13281V11H117.244V5.92401C117.244 5.50971 117.115 5.17661 116.856 4.92472C116.597 4.67282 116.261 4.54688 115.847 4.54688C115.565 4.54688 115.305 4.62145 115.066 4.7706C114.831 4.91643 114.64 5.12026 114.494 5.3821C114.352 5.64394 114.281 5.94721 114.281 6.2919V11H112.794ZM128.458 11.1541C127.706 11.1541 127.058 10.9934 126.515 10.6719C125.974 10.3471 125.557 9.89134 125.262 9.30469C124.97 8.71473 124.824 8.02367 124.824 7.23153C124.824 6.44934 124.97 5.75994 125.262 5.16335C125.557 4.56676 125.968 4.10109 126.495 3.76633C127.025 3.43158 127.645 3.2642 128.354 3.2642C128.785 3.2642 129.203 3.33546 129.607 3.47798C130.011 3.6205 130.374 3.84422 130.696 4.14915C131.017 4.45407 131.271 4.85014 131.456 5.33736C131.642 5.82126 131.735 6.40956 131.735 7.10227V7.62926H125.664V6.51562H130.278C130.278 6.12453 130.199 5.77817 130.039 5.47656C129.88 5.17164 129.657 4.93134 129.368 4.75568C129.083 4.58002 128.748 4.49219 128.364 4.49219C127.946 4.49219 127.582 4.59493 127.27 4.80043C126.962 5.0026 126.723 5.26776 126.554 5.59588C126.389 5.92069 126.306 6.27367 126.306 6.65483V7.52486C126.306 8.03527 126.395 8.46946 126.574 8.82741C126.757 9.18537 127.01 9.45881 127.335 9.64773C127.66 9.83333 128.039 9.92614 128.473 9.92614C128.755 9.92614 129.012 9.88636 129.244 9.80682C129.476 9.72396 129.676 9.60133 129.846 9.43892C130.015 9.27652 130.144 9.07599 130.233 8.83736L131.64 9.09091C131.528 9.50521 131.325 9.86813 131.034 10.1797C130.745 10.4879 130.382 10.7282 129.945 10.9006C129.511 11.0696 129.015 11.1541 128.458 11.1541ZM134.871 6.46591V11H133.384V3.36364H134.811V4.60653H134.905C135.081 4.20218 135.356 3.87737 135.731 3.6321C136.108 3.38684 136.584 3.2642 137.157 3.2642C137.678 3.2642 138.134 3.37358 138.525 3.59233C138.916 3.80777 139.219 4.12926 139.434 4.55682C139.65 4.98437 139.758 5.51302 139.758 6.14276V11H138.271V6.32173C138.271 5.76823 138.127 5.3357 137.839 5.02415C137.55 4.70928 137.154 4.55185 136.65 4.55185C136.306 4.55185 135.999 4.62642 135.731 4.77557C135.465 4.92472 135.255 5.14347 135.099 5.43182C134.947 5.71686 134.871 6.06155 134.871 6.46591ZM145.316 3.36364V4.55682H141.145V3.36364H145.316ZM142.263 1.53409H143.75V8.75781C143.75 9.04616 143.793 9.26326 143.879 9.40909C143.965 9.55161 144.076 9.64938 144.212 9.70241C144.351 9.75213 144.502 9.77699 144.665 9.77699C144.784 9.77699 144.888 9.7687 144.978 9.75213C145.067 9.73556 145.137 9.7223 145.187 9.71236L145.455 10.9403C145.369 10.9735 145.246 11.0066 145.087 11.0398C144.928 11.0762 144.729 11.0961 144.491 11.0994C144.099 11.1061 143.735 11.0365 143.397 10.8906C143.059 10.7448 142.785 10.5194 142.577 10.2145C142.368 9.90956 142.263 9.52675 142.263 9.06605V1.53409Z" fill="black"/>
</svg>
