<svg width="44" height="12" viewBox="0 0 44 12" fill="none" xmlns="http://www.w3.org/2000/svg">
<path d="M4.63352 3.36364V4.55682H0.318182V3.36364H4.63352ZM1.50142 11V2.47869C1.50142 2.00142 1.60582 1.60535 1.81463 1.29048C2.02344 0.972301 2.30019 0.735322 2.64489 0.579545C2.98958 0.420454 3.36411 0.340908 3.76847 0.340908C4.06676 0.340908 4.32197 0.365767 4.53409 0.415483C4.74621 0.461884 4.90365 0.504971 5.00639 0.544744L4.65838 1.74787C4.58878 1.72798 4.49929 1.70478 4.38991 1.67827C4.28054 1.64844 4.14796 1.63352 3.99219 1.63352C3.63092 1.63352 3.3724 1.72301 3.21662 1.90199C3.06416 2.08097 2.98793 2.33949 2.98793 2.67756V11H1.50142ZM6.16726 11V3.36364H7.65376V11H6.16726ZM6.91797 2.18537C6.65945 2.18537 6.43738 2.09919 6.25178 1.92685C6.06948 1.75118 5.97834 1.54238 5.97834 1.30043C5.97834 1.05516 6.06948 0.846354 6.25178 0.674005C6.43738 0.498342 6.65945 0.410511 6.91797 0.410511C7.17649 0.410511 7.3969 0.498342 7.57919 0.674005C7.7648 0.846354 7.8576 1.05516 7.8576 1.30043C7.8576 1.54238 7.7648 1.75118 7.57919 1.92685C7.3969 2.09919 7.17649 2.18537 6.91797 2.18537ZM11.1401 0.818182V11H9.65359V0.818182H11.1401ZM16.4311 11.1541C15.6787 11.1541 15.0308 10.9934 14.4872 10.6719C13.947 10.3471 13.5294 9.89134 13.2344 9.30469C12.9427 8.71473 12.7969 8.02367 12.7969 7.23153C12.7969 6.44934 12.9427 5.75994 13.2344 5.16335C13.5294 4.56676 13.9403 4.10109 14.4673 3.76633C14.9976 3.43158 15.6174 3.2642 16.3267 3.2642C16.7576 3.2642 17.1752 3.33546 17.5795 3.47798C17.9839 3.6205 18.3468 3.84422 18.6683 4.14915C18.9898 4.45407 19.2434 4.85014 19.429 5.33736C19.6146 5.82126 19.7074 6.40956 19.7074 7.10227V7.62926H13.6371V6.51562H18.2507C18.2507 6.12453 18.1712 5.77817 18.0121 5.47656C17.853 5.17164 17.6293 4.93134 17.3409 4.75568C17.0559 4.58002 16.7211 4.49219 16.3366 4.49219C15.919 4.49219 15.5545 4.59493 15.2429 4.80043C14.9347 5.0026 14.696 5.26776 14.527 5.59588C14.3613 5.92069 14.2784 6.27367 14.2784 6.65483V7.52486C14.2784 8.03527 14.3679 8.46946 14.5469 8.82741C14.7292 9.18537 14.9827 9.45881 15.3075 9.64773C15.6323 9.83333 16.0118 9.92614 16.446 9.92614C16.7277 9.92614 16.9846 9.88636 17.2166 9.80682C17.4486 9.72396 17.6491 9.60133 17.8182 9.43892C17.9872 9.27652 18.1165 9.07599 18.206 8.83736L19.6129 9.09091C19.5002 9.50521 19.2981 9.86813 19.0064 10.1797C18.718 10.4879 18.3551 10.7282 17.9176 10.9006C17.4834 11.0696 16.9879 11.1541 16.4311 11.1541ZM25.856 6.05327V7.34091H21.3418V6.05327H25.856ZM31.362 11.169C30.5765 11.1657 29.9054 10.9586 29.3485 10.5476C28.7917 10.1366 28.3658 9.53835 28.0708 8.75284C27.7759 7.96733 27.6284 7.02107 27.6284 5.91406C27.6284 4.81037 27.7759 3.86742 28.0708 3.08523C28.3691 2.30303 28.7967 1.70644 29.3535 1.29545C29.9136 0.884469 30.5832 0.678977 31.362 0.678977C32.1409 0.678977 32.8088 0.886126 33.3656 1.30043C33.9224 1.71141 34.3483 2.308 34.6433 3.0902C34.9416 3.86908 35.0907 4.81037 35.0907 5.91406C35.0907 7.02438 34.9432 7.9723 34.6483 8.75781C34.3533 9.54001 33.9274 10.1383 33.3706 10.5526C32.8137 10.9635 32.1442 11.169 31.362 11.169ZM31.362 9.84162C32.0514 9.84162 32.59 9.50521 32.9778 8.83239C33.3689 8.15956 33.5645 7.18679 33.5645 5.91406C33.5645 5.06889 33.475 4.35464 33.296 3.77131C33.1203 3.18466 32.8668 2.74053 32.5353 2.43892C32.2072 2.134 31.8161 1.98153 31.362 1.98153C30.676 1.98153 30.1374 2.3196 29.7463 2.99574C29.3552 3.67187 29.158 4.64465 29.1547 5.91406C29.1547 6.76255 29.2425 7.48011 29.4181 8.06676C29.5971 8.65009 29.8507 9.09257 30.1788 9.39418C30.5069 9.69247 30.9013 9.84162 31.362 9.84162ZM36.8544 11V9.88636L40.2997 6.31676C40.6676 5.92898 40.9709 5.58925 41.2095 5.29759C41.4515 5.0026 41.6321 4.72254 41.7514 4.45739C41.8707 4.19223 41.9304 3.91051 41.9304 3.61222C41.9304 3.27415 41.8509 2.98248 41.6918 2.73722C41.5327 2.48864 41.3156 2.29806 41.0405 2.16548C40.7654 2.02959 40.4555 1.96165 40.1108 1.96165C39.7462 1.96165 39.428 2.03622 39.1562 2.18537C38.8845 2.33452 38.6757 2.54498 38.5298 2.81676C38.384 3.08854 38.3111 3.40672 38.3111 3.77131H36.8445C36.8445 3.15151 36.987 2.60961 37.272 2.1456C37.5571 1.68158 37.9482 1.32197 38.4453 1.06676C38.9425 0.808238 39.5076 0.678977 40.1406 0.678977C40.7803 0.678977 41.3438 0.806581 41.831 1.06179C42.3215 1.31368 42.7043 1.65838 42.9794 2.09588C43.2545 2.53007 43.392 3.0206 43.392 3.56747C43.392 3.94531 43.3208 4.31487 43.1783 4.67614C43.0391 5.0374 42.7955 5.4401 42.4474 5.88423C42.0994 6.32505 41.6155 6.86032 40.9957 7.49006L38.9723 9.60795V9.68253H43.5561V11H36.8544Z" fill="black"/>
</svg>
