<svg width="134" height="14" viewBox="0 0 134 14" fill="none" xmlns="http://www.w3.org/2000/svg">
<path d="M4.21591 11.1541C3.4768 11.1541 2.84044 10.9867 2.30682 10.652C1.77652 10.3139 1.36884 9.84825 1.08381 9.25497C0.798769 8.66169 0.65625 7.98224 0.65625 7.21662C0.65625 6.44105 0.802083 5.75663 1.09375 5.16335C1.38542 4.56676 1.7964 4.10109 2.3267 3.76633C2.85701 3.43158 3.48177 3.2642 4.20099 3.2642C4.78101 3.2642 5.29806 3.37192 5.75213 3.58736C6.2062 3.79948 6.57244 4.09777 6.85085 4.48224C7.13258 4.86671 7.29995 5.31581 7.35298 5.82955H5.90625C5.8267 5.47159 5.64441 5.16335 5.35938 4.90483C5.07765 4.64631 4.69981 4.51705 4.22585 4.51705C3.81155 4.51705 3.44863 4.62642 3.13707 4.84517C2.82884 5.06061 2.58854 5.36884 2.41619 5.76989C2.24384 6.16761 2.15767 6.63826 2.15767 7.18182C2.15767 7.73864 2.24219 8.21922 2.41122 8.62358C2.58026 9.02794 2.81889 9.34115 3.12713 9.56321C3.43868 9.78527 3.80492 9.89631 4.22585 9.89631C4.50758 9.89631 4.76278 9.84493 4.99148 9.74219C5.22349 9.63613 5.41738 9.48532 5.57315 9.28977C5.73224 9.09422 5.84328 8.8589 5.90625 8.58381H7.35298C7.29995 9.07765 7.1392 9.51847 6.87074 9.90625C6.60227 10.294 6.24266 10.599 5.7919 10.821C5.34446 11.0431 4.81913 11.1541 4.21591 11.1541ZM10.4292 0.818182V11H8.94265V0.818182H10.4292ZM12.429 11V3.36364H13.9155V11H12.429ZM13.1797 2.18537C12.9212 2.18537 12.6991 2.09919 12.5135 1.92685C12.3312 1.75118 12.2401 1.54238 12.2401 1.30043C12.2401 1.05516 12.3312 0.846354 12.5135 0.674005C12.6991 0.498342 12.9212 0.410511 13.1797 0.410511C13.4382 0.410511 13.6586 0.498342 13.8409 0.674005C14.0265 0.846354 14.1193 1.05516 14.1193 1.30043C14.1193 1.54238 14.0265 1.75118 13.8409 1.92685C13.6586 2.09919 13.4382 2.18537 13.1797 2.18537ZM15.9153 13.8636V3.36364H17.367V4.60156H17.4913C17.5775 4.44247 17.7018 4.25852 17.8642 4.04972C18.0266 3.84091 18.252 3.65862 18.5403 3.50284C18.8287 3.34375 19.2098 3.2642 19.6838 3.2642C20.3002 3.2642 20.8504 3.41998 21.3343 3.73153C21.8182 4.04309 22.1977 4.49219 22.4728 5.07884C22.7512 5.66548 22.8904 6.37145 22.8904 7.19673C22.8904 8.02202 22.7529 8.72964 22.4778 9.3196C22.2027 9.90625 21.8249 10.3587 21.3443 10.6768C20.8637 10.9917 20.3152 11.1491 19.6987 11.1491C19.2347 11.1491 18.8552 11.0713 18.5602 10.9155C18.2685 10.7597 18.0398 10.5774 17.8741 10.3686C17.7084 10.1598 17.5808 9.9742 17.4913 9.81179H17.4018V13.8636H15.9153ZM17.372 7.18182C17.372 7.71875 17.4499 8.18939 17.6056 8.59375C17.7614 8.99811 17.9868 9.31463 18.2818 9.54332C18.5768 9.7687 18.938 9.88139 19.3656 9.88139C19.8097 9.88139 20.1809 9.76373 20.4792 9.52841C20.7775 9.28977 21.0029 8.96662 21.1554 8.55895C21.3111 8.15128 21.389 7.69223 21.389 7.18182C21.389 6.67803 21.3128 6.22562 21.1603 5.82457C21.0112 5.42353 20.7858 5.10701 20.4842 4.875C20.1859 4.64299 19.813 4.52699 19.3656 4.52699C18.9347 4.52699 18.5701 4.63802 18.2718 4.86009C17.9769 5.08215 17.7531 5.39205 17.6007 5.78977C17.4482 6.1875 17.372 6.65151 17.372 7.18182ZM24.6752 11V0.818182H26.1618V4.60156H26.2512C26.3374 4.44247 26.4617 4.25852 26.6241 4.04972C26.7865 3.84091 27.0119 3.65862 27.3002 3.50284C27.5886 3.34375 27.9698 3.2642 28.4437 3.2642C29.0602 3.2642 29.6104 3.41998 30.0943 3.73153C30.5782 4.04309 30.9577 4.49219 31.2328 5.07884C31.5112 5.66548 31.6504 6.37145 31.6504 7.19673C31.6504 8.02202 31.5128 8.72964 31.2377 9.3196C30.9627 9.90625 30.5848 10.3587 30.1042 10.6768C29.6236 10.9917 29.0751 11.1491 28.4586 11.1491C27.9946 11.1491 27.6151 11.0713 27.3201 10.9155C27.0285 10.7597 26.7998 10.5774 26.6341 10.3686C26.4683 10.1598 26.3407 9.9742 26.2512 9.81179H26.127V11H24.6752ZM26.1319 7.18182C26.1319 7.71875 26.2098 8.18939 26.3656 8.59375C26.5214 8.99811 26.7467 9.31463 27.0417 9.54332C27.3367 9.7687 27.698 9.88139 28.1255 9.88139C28.5697 9.88139 28.9409 9.76373 29.2392 9.52841C29.5375 9.28977 29.7628 8.96662 29.9153 8.55895C30.0711 8.15128 30.149 7.69223 30.149 7.18182C30.149 6.67803 30.0727 6.22562 29.9203 5.82457C29.7711 5.42353 29.5458 5.10701 29.2441 4.875C28.9458 4.64299 28.573 4.52699 28.1255 4.52699C27.6947 4.52699 27.3301 4.63802 27.0318 4.86009C26.7368 5.08215 26.5131 5.39205 26.3606 5.78977C26.2082 6.1875 26.1319 6.65151 26.1319 7.18182ZM36.5362 11.1541C35.8203 11.1541 35.1955 10.9901 34.6619 10.6619C34.1283 10.3338 33.714 9.87476 33.419 9.2848C33.1241 8.69484 32.9766 8.00544 32.9766 7.21662C32.9766 6.42448 33.1241 5.73177 33.419 5.13849C33.714 4.54522 34.1283 4.08452 34.6619 3.75639C35.1955 3.42827 35.8203 3.2642 36.5362 3.2642C37.2521 3.2642 37.8769 3.42827 38.4105 3.75639C38.9441 4.08452 39.3584 4.54522 39.6534 5.13849C39.9484 5.73177 40.0959 6.42448 40.0959 7.21662C40.0959 8.00544 39.9484 8.69484 39.6534 9.2848C39.3584 9.87476 38.9441 10.3338 38.4105 10.6619C37.8769 10.9901 37.2521 11.1541 36.5362 11.1541ZM36.5412 9.90625C37.0052 9.90625 37.3897 9.78362 37.6946 9.53835C37.9995 9.29309 38.2249 8.96662 38.3707 8.55895C38.5199 8.15128 38.5945 7.70218 38.5945 7.21165C38.5945 6.72443 38.5199 6.27699 38.3707 5.86932C38.2249 5.45833 37.9995 5.12855 37.6946 4.87997C37.3897 4.63139 37.0052 4.5071 36.5412 4.5071C36.0739 4.5071 35.6861 4.63139 35.3778 4.87997C35.0729 5.12855 34.8459 5.45833 34.6967 5.86932C34.5509 6.27699 34.478 6.72443 34.478 7.21165C34.478 7.70218 34.5509 8.15128 34.6967 8.55895C34.8459 8.96662 35.0729 9.29309 35.3778 9.53835C35.6861 9.78362 36.0739 9.90625 36.5412 9.90625ZM43.9775 11.169C43.4935 11.169 43.056 11.0795 42.665 10.9006C42.2739 10.7183 41.964 10.4548 41.7353 10.1101C41.5099 9.76539 41.3972 9.3428 41.3972 8.84233C41.3972 8.41146 41.4801 8.05682 41.6458 7.77841C41.8115 7.5 42.0352 7.27959 42.3169 7.11719C42.5987 6.95478 42.9135 6.83215 43.2615 6.74929C43.6096 6.66643 43.9642 6.60346 44.3255 6.56037C44.7828 6.50734 45.1541 6.46425 45.4391 6.43111C45.7241 6.39465 45.9313 6.33665 46.0605 6.2571C46.1898 6.17756 46.2544 6.0483 46.2544 5.86932V5.83452C46.2544 5.40033 46.1318 5.06392 45.8865 4.82528C45.6446 4.58665 45.2833 4.46733 44.8027 4.46733C44.3023 4.46733 43.9078 4.57836 43.6195 4.80043C43.3345 5.01918 43.1373 5.26278 43.0279 5.53125L41.6309 5.21307C41.7966 4.74905 42.0385 4.37453 42.3567 4.08949C42.6782 3.80114 43.0478 3.59233 43.4654 3.46307C43.883 3.33049 44.3221 3.2642 44.7828 3.2642C45.0878 3.2642 45.4109 3.30066 45.7523 3.37358C46.097 3.44318 46.4185 3.57244 46.7168 3.76136C47.0184 3.95028 47.2653 4.22041 47.4576 4.57173C47.6498 4.91974 47.7459 5.37216 47.7459 5.92898V11H46.2942V9.95597H46.2346C46.1384 10.1482 45.9943 10.3371 45.802 10.5227C45.6098 10.7083 45.3629 10.8625 45.0613 10.9851C44.7596 11.1077 44.3984 11.169 43.9775 11.169ZM44.3006 9.97585C44.7116 9.97585 45.0629 9.89465 45.3546 9.73224C45.6496 9.56984 45.8733 9.35772 46.0257 9.09588C46.1815 8.83073 46.2594 8.54735 46.2594 8.24574V7.26136C46.2064 7.31439 46.1036 7.36411 45.9512 7.41051C45.802 7.4536 45.6313 7.49171 45.4391 7.52486C45.2469 7.55469 45.0596 7.58286 44.8773 7.60938C44.695 7.63258 44.5426 7.65246 44.4199 7.66903C44.1316 7.70549 43.8681 7.76681 43.6294 7.85298C43.3941 7.93916 43.2052 8.06345 43.0627 8.22585C42.9235 8.38494 42.8539 8.59706 42.8539 8.86222C42.8539 9.23011 42.9898 9.50852 43.2615 9.69744C43.5333 9.88305 43.8797 9.97585 44.3006 9.97585ZM49.7259 11V3.36364H51.1626V4.5767H51.2422C51.3814 4.16572 51.6267 3.84257 51.978 3.60724C52.3326 3.36861 52.7337 3.24929 53.1811 3.24929C53.2739 3.24929 53.3833 3.2526 53.5092 3.25923C53.6385 3.26586 53.7396 3.27415 53.8125 3.28409V4.70597C53.7528 4.68939 53.6468 4.67116 53.4943 4.65128C53.3419 4.62808 53.1894 4.61648 53.0369 4.61648C52.6856 4.61648 52.3724 4.69105 52.0973 4.8402C51.8255 4.98603 51.6101 5.18987 51.451 5.4517C51.2919 5.71023 51.2124 6.00521 51.2124 6.33665V11H49.7259ZM57.6841 11.1491C57.0676 11.1491 56.5175 10.9917 56.0336 10.6768C55.553 10.3587 55.1751 9.90625 54.9 9.3196C54.6283 8.72964 54.4924 8.02202 54.4924 7.19673C54.4924 6.37145 54.6299 5.66548 54.905 5.07884C55.1834 4.49219 55.5646 4.04309 56.0485 3.73153C56.5324 3.41998 57.0809 3.2642 57.6941 3.2642C58.168 3.2642 58.5492 3.34375 58.8375 3.50284C59.1292 3.65862 59.3546 3.84091 59.5137 4.04972C59.6761 4.25852 59.802 4.44247 59.8915 4.60156H59.981V0.818182H61.4675V11H60.0158V9.81179H59.8915C59.802 9.9742 59.6728 10.1598 59.5037 10.3686C59.338 10.5774 59.1093 10.7597 58.8176 10.9155C58.526 11.0713 58.1481 11.1491 57.6841 11.1491ZM58.0123 9.88139C58.4398 9.88139 58.8011 9.7687 59.0961 9.54332C59.3944 9.31463 59.6197 8.99811 59.7722 8.59375C59.928 8.18939 60.0059 7.71875 60.0059 7.18182C60.0059 6.65151 59.9296 6.1875 59.7772 5.78977C59.6247 5.39205 59.401 5.08215 59.106 4.86009C58.811 4.63802 58.4464 4.52699 58.0123 4.52699C57.5648 4.52699 57.1919 4.64299 56.8936 4.875C56.5953 5.10701 56.37 5.42353 56.2175 5.82457C56.0684 6.22562 55.9938 6.67803 55.9938 7.18182C55.9938 7.69223 56.07 8.15128 56.2225 8.55895C56.3749 8.96662 56.6003 9.28977 56.8986 9.52841C57.2002 9.76373 57.5714 9.88139 58.0123 9.88139ZM68.0884 6.05327V7.34091H63.5742V6.05327H68.0884ZM72.9283 11.1491C72.3118 11.1491 71.7616 10.9917 71.2777 10.6768C70.7971 10.3587 70.4193 9.90625 70.1442 9.3196C69.8724 8.72964 69.7365 8.02202 69.7365 7.19673C69.7365 6.37145 69.8741 5.66548 70.1491 5.07884C70.4276 4.49219 70.8087 4.04309 71.2926 3.73153C71.7765 3.41998 72.325 3.2642 72.9382 3.2642C73.4122 3.2642 73.7933 3.34375 74.0817 3.50284C74.3733 3.65862 74.5987 3.84091 74.7578 4.04972C74.9202 4.25852 75.0462 4.44247 75.1357 4.60156H75.2251V0.818182H76.7116V11H75.2599V9.81179H75.1357C75.0462 9.9742 74.9169 10.1598 74.7479 10.3686C74.5821 10.5774 74.3535 10.7597 74.0618 10.9155C73.7701 11.0713 73.3923 11.1491 72.9283 11.1491ZM73.2564 9.88139C73.6839 9.88139 74.0452 9.7687 74.3402 9.54332C74.6385 9.31463 74.8639 8.99811 75.0163 8.59375C75.1721 8.18939 75.25 7.71875 75.25 7.18182C75.25 6.65151 75.1738 6.1875 75.0213 5.78977C74.8688 5.39205 74.6451 5.08215 74.3501 4.86009C74.0552 4.63802 73.6906 4.52699 73.2564 4.52699C72.8089 4.52699 72.4361 4.64299 72.1378 4.875C71.8395 5.10701 71.6141 5.42353 71.4616 5.82457C71.3125 6.22562 71.2379 6.67803 71.2379 7.18182C71.2379 7.69223 71.3142 8.15128 71.4666 8.55895C71.6191 8.96662 71.8445 9.28977 72.1428 9.52841C72.4444 9.76373 72.8156 9.88139 73.2564 9.88139ZM82.0499 11.1541C81.334 11.1541 80.7092 10.9901 80.1756 10.6619C79.642 10.3338 79.2277 9.87476 78.9327 9.2848C78.6377 8.69484 78.4902 8.00544 78.4902 7.21662C78.4902 6.42448 78.6377 5.73177 78.9327 5.13849C79.2277 4.54522 79.642 4.08452 80.1756 3.75639C80.7092 3.42827 81.334 3.2642 82.0499 3.2642C82.7658 3.2642 83.3906 3.42827 83.9242 3.75639C84.4578 4.08452 84.8721 4.54522 85.1671 5.13849C85.4621 5.73177 85.6096 6.42448 85.6096 7.21662C85.6096 8.00544 85.4621 8.69484 85.1671 9.2848C84.8721 9.87476 84.4578 10.3338 83.9242 10.6619C83.3906 10.9901 82.7658 11.1541 82.0499 11.1541ZM82.0549 9.90625C82.5189 9.90625 82.9034 9.78362 83.2083 9.53835C83.5132 9.29309 83.7386 8.96662 83.8844 8.55895C84.0336 8.15128 84.1081 7.70218 84.1081 7.21165C84.1081 6.72443 84.0336 6.27699 83.8844 5.86932C83.7386 5.45833 83.5132 5.12855 83.2083 4.87997C82.9034 4.63139 82.5189 4.5071 82.0549 4.5071C81.5875 4.5071 81.1998 4.63139 80.8915 4.87997C80.5866 5.12855 80.3596 5.45833 80.2104 5.86932C80.0646 6.27699 79.9917 6.72443 79.9917 7.21165C79.9917 7.70218 80.0646 8.15128 80.2104 8.55895C80.3596 8.96662 80.5866 9.29309 80.8915 9.53835C81.1998 9.78362 81.5875 9.90625 82.0549 9.90625ZM88.6919 11L86.4448 3.36364H87.981L89.4775 8.97159H89.552L91.0534 3.36364H92.5897L94.0811 8.94673H94.1557L95.6422 3.36364H97.1784L94.9363 11H93.4199L91.8688 5.48651H91.7544L90.2033 11H88.6919ZM100.076 6.46591V11H98.5891V3.36364H100.016V4.60653H100.11C100.286 4.20218 100.561 3.87737 100.936 3.6321C101.314 3.38684 101.789 3.2642 102.363 3.2642C102.883 3.2642 103.339 3.37358 103.73 3.59233C104.121 3.80777 104.424 4.12926 104.64 4.55682C104.855 4.98437 104.963 5.51302 104.963 6.14276V11H103.476V6.32173C103.476 5.76823 103.332 5.3357 103.044 5.02415C102.755 4.70928 102.359 4.55185 101.855 4.55185C101.511 4.55185 101.204 4.62642 100.936 4.77557C100.671 4.92472 100.46 5.14347 100.304 5.43182C100.152 5.71686 100.076 6.06155 100.076 6.46591ZM108.443 0.818182V11H106.956V0.818182H108.443ZM113.659 11.1541C112.943 11.1541 112.319 10.9901 111.785 10.6619C111.251 10.3338 110.837 9.87476 110.542 9.2848C110.247 8.69484 110.1 8.00544 110.1 7.21662C110.1 6.42448 110.247 5.73177 110.542 5.13849C110.837 4.54522 111.251 4.08452 111.785 3.75639C112.319 3.42827 112.943 3.2642 113.659 3.2642C114.375 3.2642 115 3.42827 115.534 3.75639C116.067 4.08452 116.481 4.54522 116.776 5.13849C117.071 5.73177 117.219 6.42448 117.219 7.21662C117.219 8.00544 117.071 8.69484 116.776 9.2848C116.481 9.87476 116.067 10.3338 115.534 10.6619C115 10.9901 114.375 11.1541 113.659 11.1541ZM113.664 9.90625C114.128 9.90625 114.513 9.78362 114.818 9.53835C115.123 9.29309 115.348 8.96662 115.494 8.55895C115.643 8.15128 115.718 7.70218 115.718 7.21165C115.718 6.72443 115.643 6.27699 115.494 5.86932C115.348 5.45833 115.123 5.12855 114.818 4.87997C114.513 4.63139 114.128 4.5071 113.664 4.5071C113.197 4.5071 112.809 4.63139 112.501 4.87997C112.196 5.12855 111.969 5.45833 111.82 5.86932C111.674 6.27699 111.601 6.72443 111.601 7.21165C111.601 7.70218 111.674 8.15128 111.82 8.55895C111.969 8.96662 112.196 9.29309 112.501 9.53835C112.809 9.78362 113.197 9.90625 113.664 9.90625ZM121.1 11.169C120.617 11.169 120.179 11.0795 119.788 10.9006C119.397 10.7183 119.087 10.4548 118.858 10.1101C118.633 9.76539 118.52 9.3428 118.52 8.84233C118.52 8.41146 118.603 8.05682 118.769 7.77841C118.935 7.5 119.158 7.27959 119.44 7.11719C119.722 6.95478 120.037 6.83215 120.385 6.74929C120.733 6.66643 121.087 6.60346 121.449 6.56037C121.906 6.50734 122.277 6.46425 122.562 6.43111C122.847 6.39465 123.054 6.33665 123.184 6.2571C123.313 6.17756 123.377 6.0483 123.377 5.86932V5.83452C123.377 5.40033 123.255 5.06392 123.01 4.82528C122.768 4.58665 122.406 4.46733 121.926 4.46733C121.425 4.46733 121.031 4.57836 120.743 4.80043C120.458 5.01918 120.26 5.26278 120.151 5.53125L118.754 5.21307C118.92 4.74905 119.162 4.37453 119.48 4.08949C119.801 3.80114 120.171 3.59233 120.588 3.46307C121.006 3.33049 121.445 3.2642 121.906 3.2642C122.211 3.2642 122.534 3.30066 122.875 3.37358C123.22 3.44318 123.542 3.57244 123.84 3.76136C124.141 3.95028 124.388 4.22041 124.581 4.57173C124.773 4.91974 124.869 5.37216 124.869 5.92898V11H123.417V9.95597H123.358C123.261 10.1482 123.117 10.3371 122.925 10.5227C122.733 10.7083 122.486 10.8625 122.184 10.9851C121.883 11.1077 121.521 11.169 121.1 11.169ZM121.424 9.97585C121.835 9.97585 122.186 9.89465 122.478 9.73224C122.773 9.56984 122.996 9.35772 123.149 9.09588C123.305 8.83073 123.382 8.54735 123.382 8.24574V7.26136C123.329 7.31439 123.227 7.36411 123.074 7.41051C122.925 7.4536 122.754 7.49171 122.562 7.52486C122.37 7.55469 122.183 7.58286 122 7.60938C121.818 7.63258 121.666 7.65246 121.543 7.66903C121.255 7.70549 120.991 7.76681 120.752 7.85298C120.517 7.93916 120.328 8.06345 120.186 8.22585C120.047 8.38494 119.977 8.59706 119.977 8.86222C119.977 9.23011 120.113 9.50852 120.385 9.69744C120.656 9.88305 121.003 9.97585 121.424 9.97585ZM129.708 11.1491C129.091 11.1491 128.541 10.9917 128.057 10.6768C127.576 10.3587 127.199 9.90625 126.923 9.3196C126.652 8.72964 126.516 8.02202 126.516 7.19673C126.516 6.37145 126.653 5.66548 126.928 5.07884C127.207 4.49219 127.588 4.04309 128.072 3.73153C128.556 3.41998 129.104 3.2642 129.718 3.2642C130.191 3.2642 130.573 3.34375 130.861 3.50284C131.153 3.65862 131.378 3.84091 131.537 4.04972C131.7 4.25852 131.825 4.44247 131.915 4.60156H132.004V0.818182H133.491V11H132.039V9.81179H131.915C131.825 9.9742 131.696 10.1598 131.527 10.3686C131.361 10.5774 131.133 10.7597 130.841 10.9155C130.549 11.0713 130.172 11.1491 129.708 11.1491ZM130.036 9.88139C130.463 9.88139 130.825 9.7687 131.119 9.54332C131.418 9.31463 131.643 8.99811 131.796 8.59375C131.951 8.18939 132.029 7.71875 132.029 7.18182C132.029 6.65151 131.953 6.1875 131.801 5.78977C131.648 5.39205 131.424 5.08215 131.129 4.86009C130.834 4.63802 130.47 4.52699 130.036 4.52699C129.588 4.52699 129.215 4.64299 128.917 4.875C128.619 5.10701 128.393 5.42353 128.241 5.82457C128.092 6.22562 128.017 6.67803 128.017 7.18182C128.017 7.69223 128.093 8.15128 128.246 8.55895C128.398 8.96662 128.624 9.28977 128.922 9.52841C129.224 9.76373 129.595 9.88139 130.036 9.88139Z" fill="black"/>
</svg>
