<svg width="128" height="12" viewBox="0 0 128 12" fill="none" xmlns="http://www.w3.org/2000/svg">
<path d="M4.63352 3.36364V4.55682H0.318182V3.36364H4.63352ZM1.50142 11V2.47869C1.50142 2.00142 1.60582 1.60535 1.81463 1.29048C2.02344 0.972301 2.30019 0.735322 2.64489 0.579545C2.98958 0.420454 3.36411 0.340908 3.76847 0.340908C4.06676 0.340908 4.32197 0.365767 4.53409 0.415483C4.74621 0.461884 4.90365 0.504971 5.00639 0.544744L4.65838 1.74787C4.58878 1.72798 4.49929 1.70478 4.38991 1.67827C4.28054 1.64844 4.14796 1.63352 3.99219 1.63352C3.63092 1.63352 3.3724 1.72301 3.21662 1.90199C3.06416 2.08097 2.98793 2.33949 2.98793 2.67756V11H1.50142ZM6.16726 11V3.36364H7.65376V11H6.16726ZM6.91797 2.18537C6.65945 2.18537 6.43738 2.09919 6.25178 1.92685C6.06948 1.75118 5.97834 1.54238 5.97834 1.30043C5.97834 1.05516 6.06948 0.846354 6.25178 0.674005C6.43738 0.498342 6.65945 0.410511 6.91797 0.410511C7.17649 0.410511 7.3969 0.498342 7.57919 0.674005C7.7648 0.846354 7.8576 1.05516 7.8576 1.30043C7.8576 1.54238 7.7648 1.75118 7.57919 1.92685C7.3969 2.09919 7.17649 2.18537 6.91797 2.18537ZM11.1401 0.818182V11H9.65359V0.818182H11.1401ZM16.4311 11.1541C15.6787 11.1541 15.0308 10.9934 14.4872 10.6719C13.947 10.3471 13.5294 9.89134 13.2344 9.30469C12.9427 8.71473 12.7969 8.02367 12.7969 7.23153C12.7969 6.44934 12.9427 5.75994 13.2344 5.16335C13.5294 4.56676 13.9403 4.10109 14.4673 3.76633C14.9976 3.43158 15.6174 3.2642 16.3267 3.2642C16.7576 3.2642 17.1752 3.33546 17.5795 3.47798C17.9839 3.6205 18.3468 3.84422 18.6683 4.14915C18.9898 4.45407 19.2434 4.85014 19.429 5.33736C19.6146 5.82126 19.7074 6.40956 19.7074 7.10227V7.62926H13.6371V6.51562H18.2507C18.2507 6.12453 18.1712 5.77817 18.0121 5.47656C17.853 5.17164 17.6293 4.93134 17.3409 4.75568C17.0559 4.58002 16.7211 4.49219 16.3366 4.49219C15.919 4.49219 15.5545 4.59493 15.2429 4.80043C14.9347 5.0026 14.696 5.26776 14.527 5.59588C14.3613 5.92069 14.2784 6.27367 14.2784 6.65483V7.52486C14.2784 8.03527 14.3679 8.46946 14.5469 8.82741C14.7292 9.18537 14.9827 9.45881 15.3075 9.64773C15.6323 9.83333 16.0118 9.92614 16.446 9.92614C16.7277 9.92614 16.9846 9.88636 17.2166 9.80682C17.4486 9.72396 17.6491 9.60133 17.8182 9.43892C17.9872 9.27652 18.1165 9.07599 18.206 8.83736L19.6129 9.09091C19.5002 9.50521 19.2981 9.86813 19.0064 10.1797C18.718 10.4879 18.3551 10.7282 17.9176 10.9006C17.4834 11.0696 16.9879 11.1541 16.4311 11.1541ZM25.856 6.05327V7.34091H21.3418V6.05327H25.856ZM30.0595 11.169C29.5756 11.169 29.1381 11.0795 28.747 10.9006C28.3559 10.7183 28.046 10.4548 27.8173 10.1101C27.5919 9.76539 27.4792 9.3428 27.4792 8.84233C27.4792 8.41146 27.5621 8.05682 27.7278 7.77841C27.8935 7.5 28.1172 7.27959 28.399 7.11719C28.6807 6.95478 28.9956 6.83215 29.3436 6.74929C29.6916 6.66643 30.0462 6.60346 30.4075 6.56037C30.8649 6.50734 31.2361 6.46425 31.5211 6.43111C31.8062 6.39465 32.0133 6.33665 32.1426 6.2571C32.2718 6.17756 32.3365 6.0483 32.3365 5.86932V5.83452C32.3365 5.40033 32.2138 5.06392 31.9686 4.82528C31.7266 4.58665 31.3654 4.46733 30.8848 4.46733C30.3843 4.46733 29.9899 4.57836 29.7015 4.80043C29.4165 5.01918 29.2193 5.26278 29.1099 5.53125L27.7129 5.21307C27.8786 4.74905 28.1206 4.37453 28.4387 4.08949C28.7602 3.80114 29.1298 3.59233 29.5474 3.46307C29.965 3.33049 30.4042 3.2642 30.8649 3.2642C31.1698 3.2642 31.493 3.30066 31.8343 3.37358C32.179 3.44318 32.5005 3.57244 32.7988 3.76136C33.1004 3.95028 33.3474 4.22041 33.5396 4.57173C33.7318 4.91974 33.8279 5.37216 33.8279 5.92898V11H32.3762V9.95597H32.3166C32.2205 10.1482 32.0763 10.3371 31.8841 10.5227C31.6918 10.7083 31.4449 10.8625 31.1433 10.9851C30.8417 11.1077 30.4804 11.169 30.0595 11.169ZM30.3826 9.97585C30.7936 9.97585 31.1449 9.89465 31.4366 9.73224C31.7316 9.56984 31.9553 9.35772 32.1078 9.09588C32.2636 8.83073 32.3414 8.54735 32.3414 8.24574V7.26136C32.2884 7.31439 32.1857 7.36411 32.0332 7.41051C31.8841 7.4536 31.7134 7.49171 31.5211 7.52486C31.3289 7.55469 31.1416 7.58286 30.9593 7.60938C30.777 7.63258 30.6246 7.65246 30.502 7.66903C30.2136 7.70549 29.9501 7.76681 29.7115 7.85298C29.4761 7.93916 29.2872 8.06345 29.1447 8.22585C29.0055 8.38494 28.9359 8.59706 28.9359 8.86222C28.9359 9.23011 29.0718 9.50852 29.3436 9.69744C29.6154 9.88305 29.9617 9.97585 30.3826 9.97585ZM39.3725 3.36364V4.55682H35.2013V3.36364H39.3725ZM36.32 1.53409H37.8065V8.75781C37.8065 9.04616 37.8496 9.26326 37.9357 9.40909C38.0219 9.55161 38.1329 9.64938 38.2688 9.70241C38.408 9.75213 38.5588 9.77699 38.7212 9.77699C38.8406 9.77699 38.945 9.7687 39.0344 9.75213C39.1239 9.73556 39.1935 9.7223 39.2433 9.71236L39.5117 10.9403C39.4255 10.9735 39.3029 11.0066 39.1438 11.0398C38.9847 11.0762 38.7859 11.0961 38.5472 11.0994C38.1561 11.1061 37.7915 11.0365 37.4535 10.8906C37.1154 10.7448 36.842 10.5194 36.6332 10.2145C36.4244 9.90956 36.32 9.52675 36.32 9.06605V1.53409ZM44.5815 3.36364V4.55682H40.4103V3.36364H44.5815ZM41.5289 1.53409H43.0154V8.75781C43.0154 9.04616 43.0585 9.26326 43.1447 9.40909C43.2309 9.55161 43.3419 9.64938 43.4778 9.70241C43.617 9.75213 43.7678 9.77699 43.9302 9.77699C44.0495 9.77699 44.1539 9.7687 44.2434 9.75213C44.3329 9.73556 44.4025 9.7223 44.4522 9.71236L44.7207 10.9403C44.6345 10.9735 44.5119 11.0066 44.3528 11.0398C44.1937 11.0762 43.9949 11.0961 43.7562 11.0994C43.3651 11.1061 43.0005 11.0365 42.6625 10.8906C42.3244 10.7448 42.051 10.5194 41.8422 10.2145C41.6333 9.90956 41.5289 9.52675 41.5289 9.06605V1.53409ZM48.4482 11.169C47.9643 11.169 47.5268 11.0795 47.1357 10.9006C46.7446 10.7183 46.4347 10.4548 46.206 10.1101C45.9806 9.76539 45.8679 9.3428 45.8679 8.84233C45.8679 8.41146 45.9508 8.05682 46.1165 7.77841C46.2822 7.5 46.5059 7.27959 46.7876 7.11719C47.0694 6.95478 47.3842 6.83215 47.7322 6.74929C48.0803 6.66643 48.4349 6.60346 48.7962 6.56037C49.2536 6.50734 49.6248 6.46425 49.9098 6.43111C50.1948 6.39465 50.402 6.33665 50.5312 6.2571C50.6605 6.17756 50.7251 6.0483 50.7251 5.86932V5.83452C50.7251 5.40033 50.6025 5.06392 50.3572 4.82528C50.1153 4.58665 49.754 4.46733 49.2734 4.46733C48.773 4.46733 48.3786 4.57836 48.0902 4.80043C47.8052 5.01918 47.608 5.26278 47.4986 5.53125L46.1016 5.21307C46.2673 4.74905 46.5092 4.37453 46.8274 4.08949C47.1489 3.80114 47.5185 3.59233 47.9361 3.46307C48.3537 3.33049 48.7929 3.2642 49.2536 3.2642C49.5585 3.2642 49.8816 3.30066 50.223 3.37358C50.5677 3.44318 50.8892 3.57244 51.1875 3.76136C51.4891 3.95028 51.736 4.22041 51.9283 4.57173C52.1205 4.91974 52.2166 5.37216 52.2166 5.92898V11H50.7649V9.95597H50.7053C50.6091 10.1482 50.465 10.3371 50.2727 10.5227C50.0805 10.7083 49.8336 10.8625 49.532 10.9851C49.2304 11.1077 48.8691 11.169 48.4482 11.169ZM48.7713 9.97585C49.1823 9.97585 49.5336 9.89465 49.8253 9.73224C50.1203 9.56984 50.344 9.35772 50.4964 9.09588C50.6522 8.83073 50.7301 8.54735 50.7301 8.24574V7.26136C50.6771 7.31439 50.5743 7.36411 50.4219 7.41051C50.2727 7.4536 50.102 7.49171 49.9098 7.52486C49.7176 7.55469 49.5303 7.58286 49.348 7.60938C49.1657 7.63258 49.0133 7.65246 48.8906 7.66903C48.6023 7.70549 48.3388 7.76681 48.1001 7.85298C47.8648 7.93916 47.6759 8.06345 47.5334 8.22585C47.3942 8.38494 47.3246 8.59706 47.3246 8.86222C47.3246 9.23011 47.4605 9.50852 47.7322 9.69744C48.004 9.88305 48.3504 9.97585 48.7713 9.97585ZM57.4132 11.1541C56.6741 11.1541 56.0377 10.9867 55.5041 10.652C54.9738 10.3139 54.5661 9.84825 54.2811 9.25497C53.996 8.66169 53.8535 7.98224 53.8535 7.21662C53.8535 6.44105 53.9993 5.75663 54.291 5.16335C54.5827 4.56676 54.9937 4.10109 55.524 3.76633C56.0543 3.43158 56.679 3.2642 57.3983 3.2642C57.9783 3.2642 58.4953 3.37192 58.9494 3.58736C59.4035 3.79948 59.7697 4.09777 60.0481 4.48224C60.3298 4.86671 60.4972 5.31581 60.5502 5.82955H59.1035C59.024 5.47159 58.8417 5.16335 58.5566 4.90483C58.2749 4.64631 57.8971 4.51705 57.4231 4.51705C57.0088 4.51705 56.6459 4.62642 56.3343 4.84517C56.0261 5.06061 55.7858 5.36884 55.6135 5.76989C55.4411 6.16761 55.3549 6.63826 55.3549 7.18182C55.3549 7.73864 55.4395 8.21922 55.6085 8.62358C55.7775 9.02794 56.0162 9.34115 56.3244 9.56321C56.6359 9.78527 57.0022 9.89631 57.4231 9.89631C57.7048 9.89631 57.96 9.84493 58.1887 9.74219C58.4208 9.63613 58.6146 9.48532 58.7704 9.28977C58.9295 9.09422 59.0405 8.8589 59.1035 8.58381H60.5502C60.4972 9.07765 60.3365 9.51847 60.068 9.90625C59.7995 10.294 59.4399 10.599 58.9892 10.821C58.5417 11.0431 58.0164 11.1541 57.4132 11.1541ZM63.6264 6.46591V11H62.1399V0.818182H63.6065V4.60653H63.701C63.88 4.19555 64.1534 3.86908 64.5213 3.62713C64.8892 3.38518 65.3698 3.2642 65.9631 3.2642C66.4867 3.2642 66.9441 3.37192 67.3352 3.58736C67.7296 3.80279 68.0346 4.12429 68.25 4.55185C68.4688 4.97609 68.5781 5.50639 68.5781 6.14276V11H67.0916V6.32173C67.0916 5.7616 66.9474 5.32741 66.6591 5.01918C66.3707 4.70762 65.9697 4.55185 65.456 4.55185C65.1046 4.55185 64.7898 4.62642 64.5114 4.77557C64.2363 4.92472 64.0192 5.14347 63.8601 5.43182C63.7043 5.71686 63.6264 6.06155 63.6264 6.46591ZM70.5618 11V3.36364H71.9886V4.60653H72.0831C72.2422 4.18561 72.5024 3.85748 72.8636 3.62216C73.2249 3.38352 73.6574 3.2642 74.1612 3.2642C74.6716 3.2642 75.0992 3.38352 75.4439 3.62216C75.7919 3.8608 76.0488 4.18892 76.2145 4.60653H76.294C76.4763 4.19886 76.7663 3.87405 77.1641 3.6321C77.5618 3.38684 78.0357 3.2642 78.5859 3.2642C79.2786 3.2642 79.8438 3.4813 80.2812 3.91548C80.7221 4.34967 80.9425 5.00426 80.9425 5.87926V11H79.456V6.01847C79.456 5.50142 79.3151 5.12689 79.0334 4.89489C78.7517 4.66288 78.4152 4.54688 78.0241 4.54688C77.5402 4.54688 77.1641 4.69602 76.8956 4.99432C76.6271 5.2893 76.4929 5.6688 76.4929 6.13281V11H75.0114V5.92401C75.0114 5.50971 74.8821 5.17661 74.6236 4.92472C74.3651 4.67282 74.0286 4.54688 73.6143 4.54688C73.3326 4.54688 73.0724 4.62145 72.8338 4.7706C72.5985 4.91643 72.4079 5.12026 72.2621 5.3821C72.1196 5.64394 72.0483 5.94721 72.0483 6.2919V11H70.5618ZM86.226 11.1541C85.4737 11.1541 84.8257 10.9934 84.2821 10.6719C83.7419 10.3471 83.3243 9.89134 83.0293 9.30469C82.7376 8.71473 82.5918 8.02367 82.5918 7.23153C82.5918 6.44934 82.7376 5.75994 83.0293 5.16335C83.3243 4.56676 83.7353 4.10109 84.2623 3.76633C84.7926 3.43158 85.4123 3.2642 86.1216 3.2642C86.5525 3.2642 86.9701 3.33546 87.3745 3.47798C87.7788 3.6205 88.1417 3.84422 88.4632 4.14915C88.7847 4.45407 89.0383 4.85014 89.2239 5.33736C89.4095 5.82126 89.5023 6.40956 89.5023 7.10227V7.62926H83.432V6.51562H88.0456C88.0456 6.12453 87.9661 5.77817 87.807 5.47656C87.6479 5.17164 87.4242 4.93134 87.1358 4.75568C86.8508 4.58002 86.516 4.49219 86.1316 4.49219C85.714 4.49219 85.3494 4.59493 85.0378 4.80043C84.7296 5.0026 84.4909 5.26776 84.3219 5.59588C84.1562 5.92069 84.0733 6.27367 84.0733 6.65483V7.52486C84.0733 8.03527 84.1628 8.46946 84.3418 8.82741C84.5241 9.18537 84.7776 9.45881 85.1025 9.64773C85.4273 9.83333 85.8068 9.92614 86.2409 9.92614C86.5227 9.92614 86.7795 9.88636 87.0115 9.80682C87.2435 9.72396 87.4441 9.60133 87.6131 9.43892C87.7821 9.27652 87.9114 9.07599 88.0009 8.83736L89.4078 9.09091C89.2952 9.50521 89.093 9.86813 88.8013 10.1797C88.513 10.4879 88.15 10.7282 87.7125 10.9006C87.2783 11.0696 86.7828 11.1541 86.226 11.1541ZM92.6381 6.46591V11H91.1516V3.36364H92.5785V4.60653H92.6729C92.8486 4.20218 93.1237 3.87737 93.4982 3.6321C93.8761 3.38684 94.3517 3.2642 94.9251 3.2642C95.4454 3.2642 95.9012 3.37358 96.2923 3.59233C96.6834 3.80777 96.9866 4.12926 97.2021 4.55682C97.4175 4.98437 97.5252 5.51302 97.5252 6.14276V11H96.0387V6.32173C96.0387 5.76823 95.8945 5.3357 95.6062 5.02415C95.3178 4.70928 94.9218 4.55185 94.418 4.55185C94.0733 4.55185 93.7667 4.62642 93.4982 4.77557C93.2331 4.92472 93.0226 5.14347 92.8668 5.43182C92.7144 5.71686 92.6381 6.06155 92.6381 6.46591ZM103.083 3.36364V4.55682H98.9123V3.36364H103.083ZM100.031 1.53409H101.517V8.75781C101.517 9.04616 101.56 9.26326 101.647 9.40909C101.733 9.55161 101.844 9.64938 101.98 9.70241C102.119 9.75213 102.27 9.77699 102.432 9.77699C102.551 9.77699 102.656 9.7687 102.745 9.75213C102.835 9.73556 102.904 9.7223 102.954 9.71236L103.223 10.9403C103.136 10.9735 103.014 11.0066 102.855 11.0398C102.696 11.0762 102.497 11.0961 102.258 11.0994C101.867 11.1061 101.502 11.0365 101.164 10.8906C100.826 10.7448 100.553 10.5194 100.344 10.2145C100.135 9.90956 100.031 9.52675 100.031 9.06605V1.53409ZM108.967 6.05327V7.34091H104.453V6.05327H108.967ZM114.473 11.169C113.688 11.1657 113.017 10.9586 112.46 10.5476C111.903 10.1366 111.477 9.53835 111.182 8.75284C110.887 7.96733 110.74 7.02107 110.74 5.91406C110.74 4.81037 110.887 3.86742 111.182 3.08523C111.48 2.30303 111.908 1.70644 112.465 1.29545C113.025 0.884469 113.694 0.678977 114.473 0.678977C115.252 0.678977 115.92 0.886126 116.477 1.30043C117.034 1.71141 117.46 2.308 117.755 3.0902C118.053 3.86908 118.202 4.81037 118.202 5.91406C118.202 7.02438 118.055 7.9723 117.76 8.75781C117.465 9.54001 117.039 10.1383 116.482 10.5526C115.925 10.9635 115.256 11.169 114.473 11.169ZM114.473 9.84162C115.163 9.84162 115.701 9.50521 116.089 8.83239C116.48 8.15956 116.676 7.18679 116.676 5.91406C116.676 5.06889 116.586 4.35464 116.407 3.77131C116.232 3.18466 115.978 2.74053 115.647 2.43892C115.319 2.134 114.927 1.98153 114.473 1.98153C113.787 1.98153 113.249 2.3196 112.858 2.99574C112.467 3.67187 112.269 4.64465 112.266 5.91406C112.266 6.76255 112.354 7.48011 112.529 8.06676C112.708 8.65009 112.962 9.09257 113.29 9.39418C113.618 9.69247 114.013 9.84162 114.473 9.84162ZM119.752 9.01136V7.76847L124.152 0.818182H125.131V2.64773H124.51L121.363 7.62926V7.70881H127.393V9.01136H119.752ZM124.579 11V8.63352L124.589 8.06676V0.818182H126.046V11H124.579Z" fill="black"/>
</svg>
