<svg width="73" height="12" viewBox="0 0 73 12" fill="none" xmlns="http://www.w3.org/2000/svg">
<path d="M4.63352 3.36364V4.55682H0.318182V3.36364H4.63352ZM1.50142 11V2.47869C1.50142 2.00142 1.60582 1.60535 1.81463 1.29048C2.02344 0.972301 2.30019 0.735322 2.64489 0.579545C2.98958 0.420454 3.36411 0.340908 3.76847 0.340908C4.06676 0.340908 4.32197 0.365767 4.53409 0.415483C4.74621 0.461884 4.90365 0.504971 5.00639 0.544744L4.65838 1.74787C4.58878 1.72798 4.49929 1.70478 4.38991 1.67827C4.28054 1.64844 4.14796 1.63352 3.99219 1.63352C3.63092 1.63352 3.3724 1.72301 3.21662 1.90199C3.06416 2.08097 2.98793 2.33949 2.98793 2.67756V11H1.50142ZM9.0831 11.1541C8.36719 11.1541 7.74242 10.9901 7.20881 10.6619C6.67519 10.3338 6.26089 9.87476 5.96591 9.2848C5.67093 8.69484 5.52344 8.00544 5.52344 7.21662C5.52344 6.42448 5.67093 5.73177 5.96591 5.13849C6.26089 4.54522 6.67519 4.08452 7.20881 3.75639C7.74242 3.42827 8.36719 3.2642 9.0831 3.2642C9.79901 3.2642 10.4238 3.42827 10.9574 3.75639C11.491 4.08452 11.9053 4.54522 12.2003 5.13849C12.4953 5.73177 12.6428 6.42448 12.6428 7.21662C12.6428 8.00544 12.4953 8.69484 12.2003 9.2848C11.9053 9.87476 11.491 10.3338 10.9574 10.6619C10.4238 10.9901 9.79901 11.1541 9.0831 11.1541ZM9.08807 9.90625C9.55208 9.90625 9.93655 9.78362 10.2415 9.53835C10.5464 9.29309 10.7718 8.96662 10.9176 8.55895C11.0668 8.15128 11.1413 7.70218 11.1413 7.21165C11.1413 6.72443 11.0668 6.27699 10.9176 5.86932C10.7718 5.45833 10.5464 5.12855 10.2415 4.87997C9.93655 4.63139 9.55208 4.5071 9.08807 4.5071C8.62074 4.5071 8.23295 4.63139 7.92472 4.87997C7.61979 5.12855 7.39276 5.45833 7.24361 5.86932C7.09777 6.27699 7.02486 6.72443 7.02486 7.21165C7.02486 7.70218 7.09777 8.15128 7.24361 8.55895C7.39276 8.96662 7.61979 9.29309 7.92472 9.53835C8.23295 9.78362 8.62074 9.90625 9.08807 9.90625ZM15.7885 0.818182V11H14.302V0.818182H15.7885ZM20.647 11.1491C20.0305 11.1491 19.4804 10.9917 18.9964 10.6768C18.5159 10.3587 18.138 9.90625 17.8629 9.3196C17.5911 8.72964 17.4553 8.02202 17.4553 7.19673C17.4553 6.37145 17.5928 5.66548 17.8679 5.07884C18.1463 4.49219 18.5275 4.04309 19.0114 3.73153C19.4953 3.41998 20.0438 3.2642 20.657 3.2642C21.1309 3.2642 21.5121 3.34375 21.8004 3.50284C22.0921 3.65862 22.3175 3.84091 22.4766 4.04972C22.639 4.25852 22.7649 4.44247 22.8544 4.60156H22.9439V0.818182H24.4304V11H22.9787V9.81179H22.8544C22.7649 9.9742 22.6357 10.1598 22.4666 10.3686C22.3009 10.5774 22.0722 10.7597 21.7805 10.9155C21.4889 11.0713 21.111 11.1491 20.647 11.1491ZM20.9751 9.88139C21.4027 9.88139 21.764 9.7687 22.0589 9.54332C22.3572 9.31463 22.5826 8.99811 22.7351 8.59375C22.8909 8.18939 22.9688 7.71875 22.9688 7.18182C22.9688 6.65151 22.8925 6.1875 22.7401 5.78977C22.5876 5.39205 22.3639 5.08215 22.0689 4.86009C21.7739 4.63802 21.4093 4.52699 20.9751 4.52699C20.5277 4.52699 20.1548 4.64299 19.8565 4.875C19.5582 5.10701 19.3329 5.42353 19.1804 5.82457C19.0313 6.22562 18.9567 6.67803 18.9567 7.18182C18.9567 7.69223 19.0329 8.15128 19.1854 8.55895C19.3378 8.96662 19.5632 9.28977 19.8615 9.52841C20.1631 9.76373 20.5343 9.88139 20.9751 9.88139ZM29.8432 11.1541C29.0908 11.1541 28.4429 10.9934 27.8993 10.6719C27.3591 10.3471 26.9415 9.89134 26.6465 9.30469C26.3548 8.71473 26.209 8.02367 26.209 7.23153C26.209 6.44934 26.3548 5.75994 26.6465 5.16335C26.9415 4.56676 27.3525 4.10109 27.8794 3.76633C28.4097 3.43158 29.0295 3.2642 29.7388 3.2642C30.1697 3.2642 30.5873 3.33546 30.9917 3.47798C31.396 3.6205 31.7589 3.84422 32.0804 4.14915C32.4019 4.45407 32.6555 4.85014 32.8411 5.33736C33.0267 5.82126 33.1195 6.40956 33.1195 7.10227V7.62926H27.0492V6.51562H31.6628C31.6628 6.12453 31.5833 5.77817 31.4242 5.47656C31.2651 5.17164 31.0414 4.93134 30.753 4.75568C30.468 4.58002 30.1332 4.49219 29.7488 4.49219C29.3311 4.49219 28.9666 4.59493 28.655 4.80043C28.3468 5.0026 28.1081 5.26776 27.9391 5.59588C27.7734 5.92069 27.6905 6.27367 27.6905 6.65483V7.52486C27.6905 8.03527 27.78 8.46946 27.959 8.82741C28.1413 9.18537 28.3948 9.45881 28.7196 9.64773C29.0444 9.83333 29.4239 9.92614 29.8581 9.92614C30.1399 9.92614 30.3967 9.88636 30.6287 9.80682C30.8607 9.72396 31.0613 9.60133 31.2303 9.43892C31.3993 9.27652 31.5286 9.07599 31.6181 8.83736L33.025 9.09091C32.9123 9.50521 32.7102 9.86813 32.4185 10.1797C32.1301 10.4879 31.7672 10.7282 31.3297 10.9006C30.8955 11.0696 30.4 11.1541 29.8432 11.1541ZM34.7688 11V3.36364H36.2056V4.5767H36.2852C36.4244 4.16572 36.6696 3.84257 37.021 3.60724C37.3756 3.36861 37.7766 3.24929 38.2241 3.24929C38.3169 3.24929 38.4263 3.2526 38.5522 3.25923C38.6815 3.26586 38.7826 3.27415 38.8555 3.28409V4.70597C38.7958 4.68939 38.6897 4.67116 38.5373 4.65128C38.3848 4.62808 38.2324 4.61648 38.0799 4.61648C37.7286 4.61648 37.4154 4.69105 37.1403 4.8402C36.8685 4.98603 36.6531 5.18987 36.494 5.4517C36.3349 5.71023 36.2553 6.00521 36.2553 6.33665V11H34.7688ZM44.19 6.05327V7.34091H39.6758V6.05327H44.19ZM47.6577 0.818182V11H46.1712V0.818182H47.6577ZM52.8741 11.1541C52.1582 11.1541 51.5334 10.9901 50.9998 10.6619C50.4662 10.3338 50.0519 9.87476 49.7569 9.2848C49.4619 8.69484 49.3145 8.00544 49.3145 7.21662C49.3145 6.42448 49.4619 5.73177 49.7569 5.13849C50.0519 4.54522 50.4662 4.08452 50.9998 3.75639C51.5334 3.42827 52.1582 3.2642 52.8741 3.2642C53.59 3.2642 54.2148 3.42827 54.7484 3.75639C55.282 4.08452 55.6963 4.54522 55.9913 5.13849C56.2863 5.73177 56.4338 6.42448 56.4338 7.21662C56.4338 8.00544 56.2863 8.69484 55.9913 9.2848C55.6963 9.87476 55.282 10.3338 54.7484 10.6619C54.2148 10.9901 53.59 11.1541 52.8741 11.1541ZM52.8791 9.90625C53.3431 9.90625 53.7276 9.78362 54.0325 9.53835C54.3374 9.29309 54.5628 8.96662 54.7086 8.55895C54.8578 8.15128 54.9324 7.70218 54.9324 7.21165C54.9324 6.72443 54.8578 6.27699 54.7086 5.86932C54.5628 5.45833 54.3374 5.12855 54.0325 4.87997C53.7276 4.63139 53.3431 4.5071 52.8791 4.5071C52.4118 4.5071 52.024 4.63139 51.7157 4.87997C51.4108 5.12855 51.1838 5.45833 51.0346 5.86932C50.8888 6.27699 50.8159 6.72443 50.8159 7.21165C50.8159 7.70218 50.8888 8.15128 51.0346 8.55895C51.1838 8.96662 51.4108 9.29309 51.7157 9.53835C52.024 9.78362 52.4118 9.90625 52.8791 9.90625ZM61.3097 11.1541C60.5705 11.1541 59.9342 10.9867 59.4006 10.652C58.8703 10.3139 58.4626 9.84825 58.1776 9.25497C57.8925 8.66169 57.75 7.98224 57.75 7.21662C57.75 6.44105 57.8958 5.75663 58.1875 5.16335C58.4792 4.56676 58.8902 4.10109 59.4205 3.76633C59.9508 3.43158 60.5755 3.2642 61.2947 3.2642C61.8748 3.2642 62.3918 3.37192 62.8459 3.58736C63.3 3.79948 63.6662 4.09777 63.9446 4.48224C64.2263 4.86671 64.3937 5.31581 64.4467 5.82955H63C62.9205 5.47159 62.7382 5.16335 62.4531 4.90483C62.1714 4.64631 61.7936 4.51705 61.3196 4.51705C60.9053 4.51705 60.5424 4.62642 60.2308 4.84517C59.9226 5.06061 59.6823 5.36884 59.5099 5.76989C59.3376 6.16761 59.2514 6.63826 59.2514 7.18182C59.2514 7.73864 59.3359 8.21922 59.505 8.62358C59.674 9.02794 59.9126 9.34115 60.2209 9.56321C60.5324 9.78527 60.8987 9.89631 61.3196 9.89631C61.6013 9.89631 61.8565 9.84493 62.0852 9.74219C62.3172 9.63613 62.5111 9.48532 62.6669 9.28977C62.826 9.09422 62.937 8.8589 63 8.58381H64.4467C64.3937 9.07765 64.233 9.51847 63.9645 9.90625C63.696 10.294 63.3364 10.599 62.8857 10.821C62.4382 11.0431 61.9129 11.1541 61.3097 11.1541ZM67.4036 8.4098L67.3936 6.59517H67.6522L70.6948 3.36364H72.4746L69.0044 7.04261H68.7708L67.4036 8.4098ZM66.0364 11V0.818182H67.5229V11H66.0364ZM70.8588 11L68.1245 7.37074L69.1486 6.33168L72.6834 11H70.8588Z" fill="black"/>
</svg>
