<svg width="90" height="12" viewBox="0 0 90 12" fill="none" xmlns="http://www.w3.org/2000/svg">
<path d="M4.63352 3.36364V4.55682H0.318182V3.36364H4.63352ZM1.50142 11V2.47869C1.50142 2.00142 1.60582 1.60535 1.81463 1.29048C2.02344 0.972301 2.30019 0.735322 2.64489 0.579545C2.98958 0.420454 3.36411 0.340908 3.76847 0.340908C4.06676 0.340908 4.32197 0.365767 4.53409 0.415483C4.74621 0.461884 4.90365 0.504971 5.00639 0.544744L4.65838 1.74787C4.58878 1.72798 4.49929 1.70478 4.38991 1.67827C4.28054 1.64844 4.14796 1.63352 3.99219 1.63352C3.63092 1.63352 3.3724 1.72301 3.21662 1.90199C3.06416 2.08097 2.98793 2.33949 2.98793 2.67756V11H1.50142ZM9.0831 11.1541C8.36719 11.1541 7.74242 10.9901 7.20881 10.6619C6.67519 10.3338 6.26089 9.87476 5.96591 9.2848C5.67093 8.69484 5.52344 8.00544 5.52344 7.21662C5.52344 6.42448 5.67093 5.73177 5.96591 5.13849C6.26089 4.54522 6.67519 4.08452 7.20881 3.75639C7.74242 3.42827 8.36719 3.2642 9.0831 3.2642C9.79901 3.2642 10.4238 3.42827 10.9574 3.75639C11.491 4.08452 11.9053 4.54522 12.2003 5.13849C12.4953 5.73177 12.6428 6.42448 12.6428 7.21662C12.6428 8.00544 12.4953 8.69484 12.2003 9.2848C11.9053 9.87476 11.491 10.3338 10.9574 10.6619C10.4238 10.9901 9.79901 11.1541 9.0831 11.1541ZM9.08807 9.90625C9.55208 9.90625 9.93655 9.78362 10.2415 9.53835C10.5464 9.29309 10.7718 8.96662 10.9176 8.55895C11.0668 8.15128 11.1413 7.70218 11.1413 7.21165C11.1413 6.72443 11.0668 6.27699 10.9176 5.86932C10.7718 5.45833 10.5464 5.12855 10.2415 4.87997C9.93655 4.63139 9.55208 4.5071 9.08807 4.5071C8.62074 4.5071 8.23295 4.63139 7.92472 4.87997C7.61979 5.12855 7.39276 5.45833 7.24361 5.86932C7.09777 6.27699 7.02486 6.72443 7.02486 7.21165C7.02486 7.70218 7.09777 8.15128 7.24361 8.55895C7.39276 8.96662 7.61979 9.29309 7.92472 9.53835C8.23295 9.78362 8.62074 9.90625 9.08807 9.90625ZM15.7885 0.818182V11H14.302V0.818182H15.7885ZM20.647 11.1491C20.0305 11.1491 19.4804 10.9917 18.9964 10.6768C18.5159 10.3587 18.138 9.90625 17.8629 9.3196C17.5911 8.72964 17.4553 8.02202 17.4553 7.19673C17.4553 6.37145 17.5928 5.66548 17.8679 5.07884C18.1463 4.49219 18.5275 4.04309 19.0114 3.73153C19.4953 3.41998 20.0438 3.2642 20.657 3.2642C21.1309 3.2642 21.5121 3.34375 21.8004 3.50284C22.0921 3.65862 22.3175 3.84091 22.4766 4.04972C22.639 4.25852 22.7649 4.44247 22.8544 4.60156H22.9439V0.818182H24.4304V11H22.9787V9.81179H22.8544C22.7649 9.9742 22.6357 10.1598 22.4666 10.3686C22.3009 10.5774 22.0722 10.7597 21.7805 10.9155C21.4889 11.0713 21.111 11.1491 20.647 11.1491ZM20.9751 9.88139C21.4027 9.88139 21.764 9.7687 22.0589 9.54332C22.3572 9.31463 22.5826 8.99811 22.7351 8.59375C22.8909 8.18939 22.9688 7.71875 22.9688 7.18182C22.9688 6.65151 22.8925 6.1875 22.7401 5.78977C22.5876 5.39205 22.3639 5.08215 22.0689 4.86009C21.7739 4.63802 21.4093 4.52699 20.9751 4.52699C20.5277 4.52699 20.1548 4.64299 19.8565 4.875C19.5582 5.10701 19.3329 5.42353 19.1804 5.82457C19.0313 6.22562 18.9567 6.67803 18.9567 7.18182C18.9567 7.69223 19.0329 8.15128 19.1854 8.55895C19.3378 8.96662 19.5632 9.28977 19.8615 9.52841C20.1631 9.76373 20.5343 9.88139 20.9751 9.88139ZM29.8432 11.1541C29.0908 11.1541 28.4429 10.9934 27.8993 10.6719C27.3591 10.3471 26.9415 9.89134 26.6465 9.30469C26.3548 8.71473 26.209 8.02367 26.209 7.23153C26.209 6.44934 26.3548 5.75994 26.6465 5.16335C26.9415 4.56676 27.3525 4.10109 27.8794 3.76633C28.4097 3.43158 29.0295 3.2642 29.7388 3.2642C30.1697 3.2642 30.5873 3.33546 30.9917 3.47798C31.396 3.6205 31.7589 3.84422 32.0804 4.14915C32.4019 4.45407 32.6555 4.85014 32.8411 5.33736C33.0267 5.82126 33.1195 6.40956 33.1195 7.10227V7.62926H27.0492V6.51562H31.6628C31.6628 6.12453 31.5833 5.77817 31.4242 5.47656C31.2651 5.17164 31.0414 4.93134 30.753 4.75568C30.468 4.58002 30.1332 4.49219 29.7488 4.49219C29.3311 4.49219 28.9666 4.59493 28.655 4.80043C28.3468 5.0026 28.1081 5.26776 27.9391 5.59588C27.7734 5.92069 27.6905 6.27367 27.6905 6.65483V7.52486C27.6905 8.03527 27.78 8.46946 27.959 8.82741C28.1413 9.18537 28.3948 9.45881 28.7196 9.64773C29.0444 9.83333 29.4239 9.92614 29.8581 9.92614C30.1399 9.92614 30.3967 9.88636 30.6287 9.80682C30.8607 9.72396 31.0613 9.60133 31.2303 9.43892C31.3993 9.27652 31.5286 9.07599 31.6181 8.83736L33.025 9.09091C32.9123 9.50521 32.7102 9.86813 32.4185 10.1797C32.1301 10.4879 31.7672 10.7282 31.3297 10.9006C30.8955 11.0696 30.4 11.1541 29.8432 11.1541ZM34.7688 11V3.36364H36.2056V4.5767H36.2852C36.4244 4.16572 36.6696 3.84257 37.021 3.60724C37.3756 3.36861 37.7766 3.24929 38.2241 3.24929C38.3169 3.24929 38.4263 3.2526 38.5522 3.25923C38.6815 3.26586 38.7826 3.27415 38.8555 3.28409V4.70597C38.7958 4.68939 38.6897 4.67116 38.5373 4.65128C38.3848 4.62808 38.2324 4.61648 38.0799 4.61648C37.7286 4.61648 37.4154 4.69105 37.1403 4.8402C36.8685 4.98603 36.6531 5.18987 36.494 5.4517C36.3349 5.71023 36.2553 6.00521 36.2553 6.33665V11H34.7688ZM44.19 6.05327V7.34091H39.6758V6.05327H44.19ZM51.8935 5.22798L50.5462 5.46662C50.4898 5.29427 50.4003 5.13021 50.2777 4.97443C50.1584 4.81865 49.996 4.69105 49.7905 4.59162C49.585 4.49219 49.3281 4.44247 49.0199 4.44247C48.599 4.44247 48.2476 4.53693 47.9659 4.72585C47.6842 4.91146 47.5433 5.15175 47.5433 5.44673C47.5433 5.70194 47.6378 5.90743 47.8267 6.06321C48.0156 6.21899 48.3205 6.34659 48.7415 6.44602L49.9545 6.72443C50.6572 6.88684 51.1809 7.13707 51.5256 7.47514C51.8703 7.81321 52.0426 8.25237 52.0426 8.79261C52.0426 9.25 51.91 9.65767 51.6449 10.0156C51.383 10.3703 51.0168 10.6487 50.5462 10.8509C50.0788 11.053 49.5369 11.1541 48.9205 11.1541C48.0653 11.1541 47.3677 10.9718 46.8274 10.6072C46.2872 10.2393 45.9557 9.71733 45.8331 9.04119L47.2699 8.82244C47.3594 9.19697 47.5433 9.48035 47.8217 9.67259C48.1001 9.86151 48.4631 9.95597 48.9105 9.95597C49.3977 9.95597 49.7872 9.85488 50.0788 9.6527C50.3705 9.44721 50.5163 9.19697 50.5163 8.90199C50.5163 8.66335 50.4268 8.46283 50.2479 8.30043C50.0722 8.13802 49.8021 8.01539 49.4375 7.93253L48.1449 7.64915C47.4323 7.48674 46.9053 7.22822 46.5639 6.87358C46.2259 6.51894 46.0568 6.06984 46.0568 5.52628C46.0568 5.07552 46.1828 4.68111 46.4347 4.34304C46.6866 4.00497 47.0346 3.74148 47.4787 3.55256C47.9228 3.36032 48.4316 3.2642 49.005 3.2642C49.8303 3.2642 50.4799 3.44318 50.9538 3.80114C51.4278 4.15578 51.741 4.63139 51.8935 5.22798ZM56.9682 11.1541C56.2158 11.1541 55.5679 10.9934 55.0243 10.6719C54.4841 10.3471 54.0665 9.89134 53.7715 9.30469C53.4798 8.71473 53.334 8.02367 53.334 7.23153C53.334 6.44934 53.4798 5.75994 53.7715 5.16335C54.0665 4.56676 54.4775 4.10109 55.0044 3.76633C55.5347 3.43158 56.1545 3.2642 56.8638 3.2642C57.2947 3.2642 57.7123 3.33546 58.1167 3.47798C58.521 3.6205 58.8839 3.84422 59.2054 4.14915C59.5269 4.45407 59.7805 4.85014 59.9661 5.33736C60.1517 5.82126 60.2445 6.40956 60.2445 7.10227V7.62926H54.1742V6.51562H58.7878C58.7878 6.12453 58.7083 5.77817 58.5492 5.47656C58.3901 5.17164 58.1664 4.93134 57.878 4.75568C57.593 4.58002 57.2582 4.49219 56.8738 4.49219C56.4561 4.49219 56.0916 4.59493 55.78 4.80043C55.4718 5.0026 55.2331 5.26776 55.0641 5.59588C54.8984 5.92069 54.8155 6.27367 54.8155 6.65483V7.52486C54.8155 8.03527 54.905 8.46946 55.084 8.82741C55.2663 9.18537 55.5198 9.45881 55.8446 9.64773C56.1694 9.83333 56.5489 9.92614 56.9831 9.92614C57.2649 9.92614 57.5217 9.88636 57.7537 9.80682C57.9857 9.72396 58.1863 9.60133 58.3553 9.43892C58.5243 9.27652 58.6536 9.07599 58.7431 8.83736L60.15 9.09091C60.0373 9.50521 59.8352 9.86813 59.5435 10.1797C59.2551 10.4879 58.8922 10.7282 58.4547 10.9006C58.0205 11.0696 57.525 11.1541 56.9682 11.1541ZM64.1161 11.169C63.6322 11.169 63.1947 11.0795 62.8036 10.9006C62.4125 10.7183 62.1026 10.4548 61.8739 10.1101C61.6486 9.76539 61.5359 9.3428 61.5359 8.84233C61.5359 8.41146 61.6187 8.05682 61.7844 7.77841C61.9502 7.5 62.1739 7.27959 62.4556 7.11719C62.7373 6.95478 63.0522 6.83215 63.4002 6.74929C63.7482 6.66643 64.1029 6.60346 64.4641 6.56037C64.9215 6.50734 65.2927 6.46425 65.5778 6.43111C65.8628 6.39465 66.07 6.33665 66.1992 6.2571C66.3285 6.17756 66.3931 6.0483 66.3931 5.86932V5.83452C66.3931 5.40033 66.2705 5.06392 66.0252 4.82528C65.7833 4.58665 65.422 4.46733 64.9414 4.46733C64.4409 4.46733 64.0465 4.57836 63.7582 4.80043C63.4731 5.01918 63.2759 5.26278 63.1665 5.53125L61.7695 5.21307C61.9353 4.74905 62.1772 4.37453 62.4954 4.08949C62.8169 3.80114 63.1864 3.59233 63.604 3.46307C64.0217 3.33049 64.4608 3.2642 64.9215 3.2642C65.2264 3.2642 65.5496 3.30066 65.891 3.37358C66.2357 3.44318 66.5572 3.57244 66.8555 3.76136C67.1571 3.95028 67.404 4.22041 67.5962 4.57173C67.7885 4.91974 67.8846 5.37216 67.8846 5.92898V11H66.4329V9.95597H66.3732C66.2771 10.1482 66.1329 10.3371 65.9407 10.5227C65.7485 10.7083 65.5015 10.8625 65.1999 10.9851C64.8983 11.1077 64.5371 11.169 64.1161 11.169ZM64.4393 9.97585C64.8503 9.97585 65.2016 9.89465 65.4933 9.73224C65.7882 9.56984 66.012 9.35772 66.1644 9.09588C66.3202 8.83073 66.3981 8.54735 66.3981 8.24574V7.26136C66.3451 7.31439 66.2423 7.36411 66.0898 7.41051C65.9407 7.4536 65.77 7.49171 65.5778 7.52486C65.3855 7.55469 65.1983 7.58286 65.016 7.60938C64.8337 7.63258 64.6812 7.65246 64.5586 7.66903C64.2702 7.70549 64.0067 7.76681 63.7681 7.85298C63.5328 7.93916 63.3439 8.06345 63.2013 8.22585C63.0621 8.38494 62.9925 8.59706 62.9925 8.86222C62.9925 9.23011 63.1284 9.50852 63.4002 9.69744C63.672 9.88305 64.0183 9.97585 64.4393 9.97585ZM69.8645 11V3.36364H71.3013V4.5767H71.3809C71.5201 4.16572 71.7653 3.84257 72.1167 3.60724C72.4713 3.36861 72.8723 3.24929 73.3198 3.24929C73.4126 3.24929 73.522 3.2526 73.6479 3.25923C73.7772 3.26586 73.8783 3.27415 73.9512 3.28409V4.70597C73.8915 4.68939 73.7855 4.67116 73.633 4.65128C73.4805 4.62808 73.3281 4.61648 73.1756 4.61648C72.8243 4.61648 72.5111 4.69105 72.236 4.8402C71.9642 4.98603 71.7488 5.18987 71.5897 5.4517C71.4306 5.71023 71.351 6.00521 71.351 6.33665V11H69.8645ZM78.1808 11.1541C77.4416 11.1541 76.8053 10.9867 76.2717 10.652C75.7414 10.3139 75.3337 9.84825 75.0487 9.25497C74.7636 8.66169 74.6211 7.98224 74.6211 7.21662C74.6211 6.44105 74.7669 5.75663 75.0586 5.16335C75.3503 4.56676 75.7612 4.10109 76.2915 3.76633C76.8219 3.43158 77.4466 3.2642 78.1658 3.2642C78.7459 3.2642 79.2629 3.37192 79.717 3.58736C80.171 3.79948 80.5373 4.09777 80.8157 4.48224C81.0974 4.86671 81.2648 5.31581 81.3178 5.82955H79.8711C79.7915 5.47159 79.6093 5.16335 79.3242 4.90483C79.0425 4.64631 78.6647 4.51705 78.1907 4.51705C77.7764 4.51705 77.4135 4.62642 77.1019 4.84517C76.7937 5.06061 76.5534 5.36884 76.381 5.76989C76.2087 6.16761 76.1225 6.63826 76.1225 7.18182C76.1225 7.73864 76.207 8.21922 76.3761 8.62358C76.5451 9.02794 76.7837 9.34115 77.092 9.56321C77.4035 9.78527 77.7698 9.89631 78.1907 9.89631C78.4724 9.89631 78.7276 9.84493 78.9563 9.74219C79.1883 9.63613 79.3822 9.48532 79.538 9.28977C79.6971 9.09422 79.8081 8.8589 79.8711 8.58381H81.3178C81.2648 9.07765 81.104 9.51847 80.8356 9.90625C80.5671 10.294 80.2075 10.599 79.7567 10.821C79.3093 11.0431 78.784 11.1541 78.1808 11.1541ZM84.394 6.46591V11H82.9075V0.818182H84.3741V4.60653H84.4686C84.6475 4.19555 84.921 3.86908 85.2889 3.62713C85.6568 3.38518 86.1374 3.2642 86.7306 3.2642C87.2543 3.2642 87.7117 3.37192 88.1028 3.58736C88.4972 3.80279 88.8021 4.12429 89.0176 4.55185C89.2363 4.97609 89.3457 5.50639 89.3457 6.14276V11H87.8592V6.32173C87.8592 5.7616 87.715 5.32741 87.4267 5.01918C87.1383 4.70762 86.7373 4.55185 86.2235 4.55185C85.8722 4.55185 85.5574 4.62642 85.2789 4.77557C85.0038 4.92472 84.7868 5.14347 84.6277 5.43182C84.4719 5.71686 84.394 6.06155 84.394 6.46591Z" fill="black"/>
</svg>
