<svg width="91" height="12" viewBox="0 0 91 12" fill="none" xmlns="http://www.w3.org/2000/svg">
<path d="M4.63352 3.36364V4.55682H0.318182V3.36364H4.63352ZM1.50142 11V2.47869C1.50142 2.00142 1.60582 1.60535 1.81463 1.29048C2.02344 0.972301 2.30019 0.735322 2.64489 0.579545C2.98958 0.420454 3.36411 0.340908 3.76847 0.340908C4.06676 0.340908 4.32197 0.365767 4.53409 0.415483C4.74621 0.461884 4.90365 0.504971 5.00639 0.544744L4.65838 1.74787C4.58878 1.72798 4.49929 1.70478 4.38991 1.67827C4.28054 1.64844 4.14796 1.63352 3.99219 1.63352C3.63092 1.63352 3.3724 1.72301 3.21662 1.90199C3.06416 2.08097 2.98793 2.33949 2.98793 2.67756V11H1.50142ZM6.16726 11V3.36364H7.65376V11H6.16726ZM6.91797 2.18537C6.65945 2.18537 6.43738 2.09919 6.25178 1.92685C6.06948 1.75118 5.97834 1.54238 5.97834 1.30043C5.97834 1.05516 6.06948 0.846354 6.25178 0.674005C6.43738 0.498342 6.65945 0.410511 6.91797 0.410511C7.17649 0.410511 7.3969 0.498342 7.57919 0.674005C7.7648 0.846354 7.8576 1.05516 7.8576 1.30043C7.8576 1.54238 7.7648 1.75118 7.57919 1.92685C7.3969 2.09919 7.17649 2.18537 6.91797 2.18537ZM11.1401 0.818182V11H9.65359V0.818182H11.1401ZM16.4311 11.1541C15.6787 11.1541 15.0308 10.9934 14.4872 10.6719C13.947 10.3471 13.5294 9.89134 13.2344 9.30469C12.9427 8.71473 12.7969 8.02367 12.7969 7.23153C12.7969 6.44934 12.9427 5.75994 13.2344 5.16335C13.5294 4.56676 13.9403 4.10109 14.4673 3.76633C14.9976 3.43158 15.6174 3.2642 16.3267 3.2642C16.7576 3.2642 17.1752 3.33546 17.5795 3.47798C17.9839 3.6205 18.3468 3.84422 18.6683 4.14915C18.9898 4.45407 19.2434 4.85014 19.429 5.33736C19.6146 5.82126 19.7074 6.40956 19.7074 7.10227V7.62926H13.6371V6.51562H18.2507C18.2507 6.12453 18.1712 5.77817 18.0121 5.47656C17.853 5.17164 17.6293 4.93134 17.3409 4.75568C17.0559 4.58002 16.7211 4.49219 16.3366 4.49219C15.919 4.49219 15.5545 4.59493 15.2429 4.80043C14.9347 5.0026 14.696 5.26776 14.527 5.59588C14.3613 5.92069 14.2784 6.27367 14.2784 6.65483V7.52486C14.2784 8.03527 14.3679 8.46946 14.5469 8.82741C14.7292 9.18537 14.9827 9.45881 15.3075 9.64773C15.6323 9.83333 16.0118 9.92614 16.446 9.92614C16.7277 9.92614 16.9846 9.88636 17.2166 9.80682C17.4486 9.72396 17.6491 9.60133 17.8182 9.43892C17.9872 9.27652 18.1165 9.07599 18.206 8.83736L19.6129 9.09091C19.5002 9.50521 19.2981 9.86813 19.0064 10.1797C18.718 10.4879 18.3551 10.7282 17.9176 10.9006C17.4834 11.0696 16.9879 11.1541 16.4311 11.1541ZM25.856 6.05327V7.34091H21.3418V6.05327H25.856ZM27.8372 11V3.36364H29.264V4.60653H29.3585C29.5176 4.18561 29.7778 3.85748 30.139 3.62216C30.5003 3.38352 30.9328 3.2642 31.4366 3.2642C31.947 3.2642 32.3746 3.38352 32.7193 3.62216C33.0673 3.8608 33.3242 4.18892 33.4899 4.60653H33.5694C33.7517 4.19886 34.0417 3.87405 34.4395 3.6321C34.8372 3.38684 35.3111 3.2642 35.8613 3.2642C36.554 3.2642 37.1191 3.4813 37.5566 3.91548C37.9975 4.34967 38.2179 5.00426 38.2179 5.87926V11H36.7314V6.01847C36.7314 5.50142 36.5905 5.12689 36.3088 4.89489C36.027 4.66288 35.6906 4.54688 35.2995 4.54688C34.8156 4.54688 34.4395 4.69602 34.171 4.99432C33.9025 5.2893 33.7683 5.6688 33.7683 6.13281V11H32.2868V5.92401C32.2868 5.50971 32.1575 5.17661 31.899 4.92472C31.6404 4.67282 31.304 4.54688 30.8897 4.54688C30.608 4.54688 30.3478 4.62145 30.1092 4.7706C29.8739 4.91643 29.6833 5.12026 29.5375 5.3821C29.3949 5.64394 29.3237 5.94721 29.3237 6.2919V11H27.8372ZM40.2102 11V3.36364H41.6967V11H40.2102ZM40.9609 2.18537C40.7024 2.18537 40.4804 2.09919 40.2947 1.92685C40.1125 1.75118 40.0213 1.54238 40.0213 1.30043C40.0213 1.05516 40.1125 0.846354 40.2947 0.674005C40.4804 0.498342 40.7024 0.410511 40.9609 0.410511C41.2195 0.410511 41.4399 0.498342 41.6222 0.674005C41.8078 0.846354 41.9006 1.05516 41.9006 1.30043C41.9006 1.54238 41.8078 1.75118 41.6222 1.92685C41.4399 2.09919 41.2195 2.18537 40.9609 2.18537ZM45.1831 6.46591V11H43.6966V3.36364H45.1234V4.60653H45.2179C45.3935 4.20218 45.6686 3.87737 46.0431 3.6321C46.421 3.38684 46.8966 3.2642 47.47 3.2642C47.9904 3.2642 48.4461 3.37358 48.8372 3.59233C49.2283 3.80777 49.5315 4.12926 49.747 4.55682C49.9624 4.98437 50.0701 5.51302 50.0701 6.14276V11H48.5836V6.32173C48.5836 5.76823 48.4395 5.3357 48.1511 5.02415C47.8627 4.70928 47.4667 4.55185 46.9629 4.55185C46.6182 4.55185 46.3116 4.62642 46.0431 4.77557C45.778 4.92472 45.5675 5.14347 45.4118 5.43182C45.2593 5.71686 45.1831 6.06155 45.1831 6.46591ZM56.9011 7.8331V3.36364H58.3926V11H56.9309V9.67756H56.8514C56.6757 10.0852 56.394 10.425 56.0062 10.6967C55.6217 10.9652 55.1428 11.0994 54.5694 11.0994C54.0789 11.0994 53.6447 10.9917 53.2669 10.7763C52.8923 10.5575 52.5974 10.2344 52.3819 9.80682C52.1698 9.37926 52.0637 8.85062 52.0637 8.22088V3.36364H53.5502V8.0419C53.5502 8.56226 53.6944 8.97656 53.9828 9.2848C54.2711 9.59304 54.6457 9.74716 55.1064 9.74716C55.3848 9.74716 55.6615 9.67756 55.9366 9.53835C56.215 9.39915 56.4454 9.18868 56.6277 8.90696C56.8133 8.62524 56.9044 8.26728 56.9011 7.8331ZM66.1122 5.22798L64.7649 5.46662C64.7086 5.29427 64.6191 5.13021 64.4964 4.97443C64.3771 4.81865 64.2147 4.69105 64.0092 4.59162C63.8037 4.49219 63.5469 4.44247 63.2386 4.44247C62.8177 4.44247 62.4664 4.53693 62.1847 4.72585C61.9029 4.91146 61.7621 5.15175 61.7621 5.44673C61.7621 5.70194 61.8565 5.90743 62.0455 6.06321C62.2344 6.21899 62.5393 6.34659 62.9602 6.44602L64.1733 6.72443C64.8759 6.88684 65.3996 7.13707 65.7443 7.47514C66.089 7.81321 66.2614 8.25237 66.2614 8.79261C66.2614 9.25 66.1288 9.65767 65.8636 10.0156C65.6018 10.3703 65.2356 10.6487 64.7649 10.8509C64.2976 11.053 63.7557 11.1541 63.1392 11.1541C62.2841 11.1541 61.5864 10.9718 61.0462 10.6072C60.5059 10.2393 60.1745 9.71733 60.0518 9.04119L61.4886 8.82244C61.5781 9.19697 61.7621 9.48035 62.0405 9.67259C62.3189 9.86151 62.6818 9.95597 63.1293 9.95597C63.6165 9.95597 64.0059 9.85488 64.2976 9.6527C64.5893 9.44721 64.7351 9.19697 64.7351 8.90199C64.7351 8.66335 64.6456 8.46283 64.4666 8.30043C64.291 8.13802 64.0208 8.01539 63.6562 7.93253L62.3636 7.64915C61.651 7.48674 61.1241 7.22822 60.7827 6.87358C60.4446 6.51894 60.2756 6.06984 60.2756 5.52628C60.2756 5.07552 60.4015 4.68111 60.6534 4.34304C60.9053 4.00497 61.2533 3.74148 61.6974 3.55256C62.1416 3.36032 62.6503 3.2642 63.2237 3.2642C64.049 3.2642 64.6986 3.44318 65.1726 3.80114C65.6465 4.15578 65.9598 4.63139 66.1122 5.22798ZM72.3951 6.05327V7.34091H67.8809V6.05327H72.3951ZM77.9011 11.169C77.1156 11.1657 76.4444 10.9586 75.8876 10.5476C75.3308 10.1366 74.9049 9.53835 74.6099 8.75284C74.3149 7.96733 74.1674 7.02107 74.1674 5.91406C74.1674 4.81037 74.3149 3.86742 74.6099 3.08523C74.9082 2.30303 75.3358 1.70644 75.8926 1.29545C76.4527 0.884469 77.1222 0.678977 77.9011 0.678977C78.68 0.678977 79.3478 0.886126 79.9047 1.30043C80.4615 1.71141 80.8874 2.308 81.1824 3.0902C81.4806 3.86908 81.6298 4.81037 81.6298 5.91406C81.6298 7.02438 81.4823 7.9723 81.1873 8.75781C80.8923 9.54001 80.4664 10.1383 79.9096 10.5526C79.3528 10.9635 78.6833 11.169 77.9011 11.169ZM77.9011 9.84162C78.5905 9.84162 79.1291 9.50521 79.5169 8.83239C79.908 8.15956 80.1035 7.18679 80.1035 5.91406C80.1035 5.06889 80.014 4.35464 79.835 3.77131C79.6594 3.18466 79.4058 2.74053 79.0744 2.43892C78.7463 2.134 78.3552 1.98153 77.9011 1.98153C77.215 1.98153 76.6764 2.3196 76.2853 2.99574C75.8942 3.67187 75.697 4.64465 75.6937 5.91406C75.6937 6.76255 75.7815 7.48011 75.9572 8.06676C76.1362 8.65009 76.3897 9.09257 76.7179 9.39418C77.046 9.69247 77.4404 9.84162 77.9011 9.84162ZM86.9382 11.1392C86.2554 11.1392 85.6456 11.0215 85.1087 10.7862C84.575 10.5509 84.1525 10.2244 83.8409 9.80682C83.5327 9.38589 83.367 8.89867 83.3438 8.34517H84.9048C84.9247 8.64678 85.0258 8.90862 85.2081 9.13068C85.3937 9.34943 85.6357 9.51847 85.9339 9.63778C86.2322 9.7571 86.5637 9.81676 86.9283 9.81676C87.3293 9.81676 87.6839 9.74716 87.9922 9.60795C88.3037 9.46875 88.5473 9.27486 88.723 9.02628C88.8987 8.77438 88.9865 8.48438 88.9865 8.15625C88.9865 7.81487 88.8987 7.51491 88.723 7.25639C88.5507 6.99455 88.2971 6.78906 87.9624 6.63991C87.6309 6.49077 87.2299 6.41619 86.7592 6.41619H85.8991V5.16335H86.7592C87.1371 5.16335 87.4685 5.09541 87.7536 4.95952C88.0419 4.82363 88.2673 4.63471 88.4297 4.39276C88.5921 4.14749 88.6733 3.8608 88.6733 3.53267C88.6733 3.2178 88.602 2.94437 88.4595 2.71236C88.3203 2.47704 88.1214 2.29309 87.8629 2.16051C87.6077 2.02794 87.3061 1.96165 86.9581 1.96165C86.6267 1.96165 86.3168 2.02296 86.0284 2.1456C85.7434 2.26491 85.5114 2.43726 85.3324 2.66264C85.1534 2.88471 85.0573 3.15151 85.044 3.46307H83.5575C83.5741 2.91288 83.7365 2.42898 84.0447 2.01136C84.3563 1.59375 84.7673 1.26728 85.2777 1.03196C85.7881 0.796638 86.3549 0.678977 86.978 0.678977C87.6309 0.678977 88.1944 0.806581 88.6683 1.06179C89.1456 1.31368 89.5135 1.65009 89.772 2.07102C90.0339 2.49195 90.1631 2.95265 90.1598 3.45312C90.1631 4.0232 90.004 4.5071 89.6825 4.90483C89.3643 5.30256 88.9401 5.56937 88.4098 5.70526V5.7848C89.0859 5.88755 89.6096 6.15601 89.9808 6.5902C90.3554 7.02438 90.541 7.56297 90.5376 8.20597C90.541 8.7661 90.3852 9.26823 90.0703 9.71236C89.7588 10.1565 89.3329 10.5062 88.7926 10.7614C88.2524 11.0133 87.6342 11.1392 86.9382 11.1392Z" fill="black"/>
</svg>
