<svg viewBox="0 0 33 12" fill="none" stroke-width="2" stroke="currentColor" aria-hidden="true">
  <path d="M-0.000710189 11V3.36364H1.42614V4.60653H1.5206C1.67969 4.18561 1.93987 3.85748 2.30114 3.62216C2.66241 3.38352 3.09493 3.2642 3.59872 3.2642C4.10914 3.2642 4.5367 3.38352 4.88139 3.62216C5.2294 3.8608 5.48627 4.18892 5.65199 4.60653H5.73153C5.91383 4.19886 6.20384 3.87405 6.60156 3.6321C6.99929 3.38684 7.47325 3.2642 8.02344 3.2642C8.71615 3.2642 9.28125 3.4813 9.71875 3.91548C10.1596 4.34967 10.38 5.00426 10.38 5.87926V11H8.89347V6.01847C8.89347 5.50142 8.7526 5.12689 8.47088 4.89489C8.18916 4.66288 7.85275 4.54688 7.46165 4.54688C6.97775 4.54688 6.60156 4.69602 6.3331 4.99432C6.06463 5.2893 5.9304 5.6688 5.9304 6.13281V11H4.44886V5.92401C4.44886 5.50971 4.3196 5.17661 4.06108 4.92472C3.80256 4.67282 3.46615 4.54688 3.05185 4.54688C2.77012 4.54688 2.50994 4.62145 2.27131 4.7706C2.03599 4.91643 1.84541 5.12026 1.69957 5.3821C1.55706 5.64394 1.4858 5.94721 1.4858 6.2919V11H-0.000710189ZM14.5946 11.169C14.1107 11.169 13.6732 11.0795 13.2821 10.9006C12.891 10.7183 12.5811 10.4548 12.3525 10.1101C12.1271 9.76539 12.0144 9.3428 12.0144 8.84233C12.0144 8.41146 12.0972 8.05682 12.263 7.77841C12.4287 7.5 12.6524 7.27959 12.9341 7.11719C13.2158 6.95478 13.5307 6.83215 13.8787 6.74929C14.2267 6.66643 14.5814 6.60346 14.9426 6.56037C15.4 6.50734 15.7712 6.46425 16.0563 6.43111C16.3413 6.39465 16.5485 6.33665 16.6777 6.2571C16.807 6.17756 16.8716 6.0483 16.8716 5.86932V5.83452C16.8716 5.40033 16.749 5.06392 16.5037 4.82528C16.2618 4.58665 15.9005 4.46733 15.4199 4.46733C14.9194 4.46733 14.525 4.57836 14.2367 4.80043C13.9516 5.01918 13.7544 5.26278 13.6451 5.53125L12.248 5.21307C12.4138 4.74905 12.6557 4.37453 12.9739 4.08949C13.2954 3.80114 13.665 3.59233 14.0826 3.46307C14.5002 3.33049 14.9393 3.2642 15.4 3.2642C15.705 3.2642 16.0281 3.30066 16.3695 3.37358C16.7142 3.44318 17.0357 3.57244 17.334 3.76136C17.6356 3.95028 17.8825 4.22041 18.0748 4.57173C18.267 4.91974 18.3631 5.37216 18.3631 5.92898V11H16.9114V9.95597H16.8517C16.7556 10.1482 16.6114 10.3371 16.4192 10.5227C16.227 10.7083 15.9801 10.8625 15.6784 10.9851C15.3768 11.1077 15.0156 11.169 14.5946 11.169ZM14.9178 9.97585C15.3288 9.97585 15.6801 9.89465 15.9718 9.73224C16.2667 9.56984 16.4905 9.35772 16.6429 9.09588C16.7987 8.83073 16.8766 8.54735 16.8766 8.24574V7.26136C16.8236 7.31439 16.7208 7.36411 16.5684 7.41051C16.4192 7.4536 16.2485 7.49171 16.0563 7.52486C15.8641 7.55469 15.6768 7.58286 15.4945 7.60938C15.3122 7.63258 15.1597 7.65246 15.0371 7.66903C14.7488 7.70549 14.4853 7.76681 14.2466 7.85298C14.0113 7.93916 13.8224 8.06345 13.6799 8.22585C13.5407 8.38494 13.4711 8.59706 13.4711 8.86222C13.4711 9.23011 13.6069 9.50852 13.8787 9.69744C14.1505 9.88305 14.4969 9.97585 14.9178 9.97585ZM20.343 11V3.36364H21.7798V4.5767H21.8594C21.9986 4.16572 22.2438 3.84257 22.5952 3.60724C22.9498 3.36861 23.3509 3.24929 23.7983 3.24929C23.8911 3.24929 24.0005 3.2526 24.1264 3.25923C24.2557 3.26586 24.3568 3.27415 24.4297 3.28409V4.70597C24.37 4.68939 24.264 4.67116 24.1115 4.65128C23.959 4.62808 23.8066 4.61648 23.6541 4.61648C23.3028 4.61648 22.9896 4.69105 22.7145 4.8402C22.4427 4.98603 22.2273 5.18987 22.0682 5.4517C21.9091 5.71023 21.8295 6.00521 21.8295 6.33665V11H20.343ZM27.0833 8.4098L27.0733 6.59517H27.3319L30.3745 3.36364H32.1543L28.6841 7.04261H28.4505L27.0833 8.4098ZM25.7161 11V0.818182H27.2026V11H25.7161ZM30.5385 11L27.8042 7.37074L28.8283 6.33168L32.3631 11H30.5385Z" fill="black"/>
</svg>
