<svg viewBox="0 0 36 14" fill="none" stroke-width="2" stroke="currentColor" aria-hidden="true">
  <path d="M-0.000710189 13.3636V2.86364H1.45099V4.10156H1.57528C1.66146 3.94247 1.78575 3.75852 1.94815 3.54972C2.11056 3.34091 2.33594 3.15862 2.62429 3.00284C2.91264 2.84375 3.2938 2.7642 3.76776 2.7642C4.38423 2.7642 4.93442 2.91998 5.41832 3.23153C5.90223 3.54309 6.28172 3.99219 6.55682 4.57884C6.83523 5.16548 6.97443 5.87145 6.97443 6.69673C6.97443 7.52202 6.83688 8.22964 6.56179 8.8196C6.2867 9.40625 5.90885 9.85866 5.42827 10.1768C4.94768 10.4917 4.39915 10.6491 3.78267 10.6491C3.31866 10.6491 2.93916 10.5713 2.64418 10.4155C2.35251 10.2597 2.12382 10.0774 1.9581 9.86861C1.79238 9.6598 1.66477 9.4742 1.57528 9.31179H1.4858V13.3636H-0.000710189ZM1.45597 6.68182C1.45597 7.21875 1.53385 7.68939 1.68963 8.09375C1.84541 8.49811 2.07079 8.81463 2.36577 9.04332C2.66075 9.2687 3.02202 9.38139 3.44957 9.38139C3.8937 9.38139 4.26491 9.26373 4.56321 9.02841C4.86151 8.78977 5.08688 8.46662 5.23935 8.05895C5.39512 7.65128 5.47301 7.19223 5.47301 6.68182C5.47301 6.17803 5.39678 5.72562 5.24432 5.32457C5.09517 4.92353 4.86979 4.60701 4.56818 4.375C4.26989 4.14299 3.89702 4.02699 3.44957 4.02699C3.0187 4.02699 2.65412 4.13802 2.35582 4.36009C2.06084 4.58215 1.83712 4.89205 1.68466 5.28977C1.5322 5.6875 1.45597 6.15151 1.45597 6.68182ZM10.1264 0.318182V10.5H8.63991V0.318182H10.1264ZM14.3485 10.669C13.8646 10.669 13.4271 10.5795 13.036 10.4006C12.6449 10.2183 12.335 9.95478 12.1064 9.61009C11.881 9.26539 11.7683 8.8428 11.7683 8.34233C11.7683 7.91146 11.8511 7.55682 12.0169 7.27841C12.1826 7 12.4063 6.77959 12.688 6.61719C12.9698 6.45478 13.2846 6.33215 13.6326 6.24929C13.9806 6.16643 14.3353 6.10346 14.6966 6.06037C15.1539 6.00734 15.5252 5.96425 15.8102 5.93111C16.0952 5.89465 16.3024 5.83665 16.4316 5.7571C16.5609 5.67756 16.6255 5.5483 16.6255 5.36932V5.33452C16.6255 4.90033 16.5029 4.56392 16.2576 4.32528C16.0157 4.08665 15.6544 3.96733 15.1738 3.96733C14.6734 3.96733 14.2789 4.07836 13.9906 4.30043C13.7056 4.51918 13.5083 4.76278 13.399 5.03125L12.002 4.71307C12.1677 4.24905 12.4096 3.87453 12.7278 3.58949C13.0493 3.30114 13.4189 3.09233 13.8365 2.96307C14.2541 2.83049 14.6932 2.7642 15.1539 2.7642C15.4589 2.7642 15.782 2.80066 16.1234 2.87358C16.4681 2.94318 16.7896 3.07244 17.0879 3.26136C17.3895 3.45028 17.6364 3.72041 17.8287 4.07173C18.0209 4.41974 18.117 4.87216 18.117 5.42898V10.5H16.6653V9.45597H16.6056C16.5095 9.6482 16.3654 9.83712 16.1731 10.0227C15.9809 10.2083 15.734 10.3625 15.4324 10.4851C15.1307 10.6077 14.7695 10.669 14.3485 10.669ZM14.6717 9.47585C15.0827 9.47585 15.434 9.39465 15.7257 9.23224C16.0207 9.06984 16.2444 8.85772 16.3968 8.59588C16.5526 8.33073 16.6305 8.04735 16.6305 7.74574V6.76136C16.5775 6.81439 16.4747 6.86411 16.3223 6.91051C16.1731 6.9536 16.0024 6.99171 15.8102 7.02486C15.618 7.05469 15.4307 7.08286 15.2484 7.10938C15.0661 7.13258 14.9136 7.15246 14.791 7.16903C14.5027 7.20549 14.2392 7.26681 14.0005 7.35298C13.7652 7.43916 13.5763 7.56345 13.4338 7.72585C13.2946 7.88494 13.225 8.09706 13.225 8.36222C13.225 8.73011 13.3609 9.00852 13.6326 9.19744C13.9044 9.38305 14.2508 9.47585 14.6717 9.47585ZM21.5835 5.96591V10.5H20.0969V2.86364H21.5238V4.10653H21.6183C21.7939 3.70218 22.069 3.37737 22.4435 3.1321C22.8214 2.88684 23.297 2.7642 23.8704 2.7642C24.3907 2.7642 24.8465 2.87358 25.2376 3.09233C25.6287 3.30777 25.9319 3.62926 26.1474 4.05682C26.3628 4.48437 26.4705 5.01302 26.4705 5.64276V10.5H24.984V5.82173C24.984 5.26823 24.8398 4.8357 24.5515 4.52415C24.2631 4.20928 23.8671 4.05185 23.3633 4.05185C23.0186 4.05185 22.712 4.12642 22.4435 4.27557C22.1784 4.42472 21.9679 4.64347 21.8121 4.93182C21.6597 5.21686 21.5835 5.56155 21.5835 5.96591ZM31.7553 10.6541C31.003 10.6541 30.355 10.4934 29.8114 10.1719C29.2712 9.84706 28.8536 9.39134 28.5586 8.80469C28.2669 8.21473 28.1211 7.52367 28.1211 6.73153C28.1211 5.94934 28.2669 5.25994 28.5586 4.66335C28.8536 4.06676 29.2646 3.60109 29.7915 3.26633C30.3219 2.93158 30.9416 2.7642 31.6509 2.7642C32.0818 2.7642 32.4994 2.83546 32.9038 2.97798C33.3081 3.1205 33.671 3.34422 33.9925 3.64915C34.314 3.95407 34.5676 4.35014 34.7532 4.83736C34.9388 5.32126 35.0316 5.90956 35.0316 6.60227V7.12926H28.9613V6.01562H33.5749C33.5749 5.62453 33.4954 5.27817 33.3363 4.97656C33.1772 4.67164 32.9535 4.43134 32.6651 4.25568C32.3801 4.08002 32.0453 3.99219 31.6609 3.99219C31.2433 3.99219 30.8787 4.09493 30.5671 4.30043C30.2589 4.5026 30.0202 4.76776 29.8512 5.09588C29.6855 5.42069 29.6026 5.77367 29.6026 6.15483V7.02486C29.6026 7.53527 29.6921 7.96946 29.8711 8.32741C30.0534 8.68537 30.3069 8.95881 30.6317 9.14773C30.9566 9.33333 31.3361 9.42614 31.7702 9.42614C32.052 9.42614 32.3088 9.38636 32.5408 9.30682C32.7728 9.22396 32.9734 9.10133 33.1424 8.93892C33.3114 8.77652 33.4407 8.57599 33.5302 8.33736L34.9371 8.59091C34.8245 9.00521 34.6223 9.36813 34.3306 9.67969C34.0423 9.98793 33.6793 10.2282 33.2418 10.4006C32.8076 10.5696 32.3121 10.6541 31.7553 10.6541Z" fill="black"/>
</svg>
