<svg viewBox="0 0 146 15" fill="none" stroke-width="2" stroke="currentColor" aria-hidden="true">
  <path d="M1.4858 6.46591V11H-0.000710189V3.36364H1.42614V4.60653H1.5206C1.69626 4.20218 1.97135 3.87737 2.34588 3.6321C2.72372 3.38684 3.19934 3.2642 3.77273 3.2642C4.29309 3.2642 4.74882 3.37358 5.13991 3.59233C5.53101 3.80777 5.83428 4.12926 6.04972 4.55682C6.26515 4.98437 6.37287 5.51302 6.37287 6.14276V11H4.88636V6.32173C4.88636 5.76823 4.74219 5.3357 4.45384 5.02415C4.16548 4.70928 3.76941 4.55185 3.26562 4.55185C2.92093 4.55185 2.61435 4.62642 2.34588 4.77557C2.08073 4.92472 1.87027 5.14347 1.71449 5.43182C1.56203 5.71686 1.4858 6.06155 1.4858 6.46591ZM10.5888 11.169C10.1049 11.169 9.66738 11.0795 9.27628 10.9006C8.88518 10.7183 8.57528 10.4548 8.34659 10.1101C8.12121 9.76539 8.00852 9.3428 8.00852 8.84233C8.00852 8.41146 8.09138 8.05682 8.2571 7.77841C8.42282 7.5 8.64654 7.27959 8.92827 7.11719C9.20999 6.95478 9.52486 6.83215 9.87287 6.74929C10.2209 6.66643 10.5755 6.60346 10.9368 6.56037C11.3942 6.50734 11.7654 6.46425 12.0504 6.43111C12.3355 6.39465 12.5426 6.33665 12.6719 6.2571C12.8011 6.17756 12.8658 6.0483 12.8658 5.86932V5.83452C12.8658 5.40033 12.7431 5.06392 12.4979 4.82528C12.2559 4.58665 11.8946 4.46733 11.4141 4.46733C10.9136 4.46733 10.5192 4.57836 10.2308 4.80043C9.94579 5.01918 9.74858 5.26278 9.6392 5.53125L8.24219 5.21307C8.40791 4.74905 8.64986 4.37453 8.96804 4.08949C9.28954 3.80114 9.65909 3.59233 10.0767 3.46307C10.4943 3.33049 10.9335 3.2642 11.3942 3.2642C11.6991 3.2642 12.0223 3.30066 12.3636 3.37358C12.7083 3.44318 13.0298 3.57244 13.3281 3.76136C13.6297 3.95028 13.8767 4.22041 14.0689 4.57173C14.2611 4.91974 14.3572 5.37216 14.3572 5.92898V11H12.9055V9.95597H12.8459C12.7498 10.1482 12.6056 10.3371 12.4134 10.5227C12.2211 10.7083 11.9742 10.8625 11.6726 10.9851C11.371 11.1077 11.0097 11.169 10.5888 11.169ZM10.9119 9.97585C11.3229 9.97585 11.6742 9.89465 11.9659 9.73224C12.2609 9.56984 12.4846 9.35772 12.6371 9.09588C12.7929 8.83073 12.8707 8.54735 12.8707 8.24574V7.26136C12.8177 7.31439 12.715 7.36411 12.5625 7.41051C12.4134 7.4536 12.2427 7.49171 12.0504 7.52486C11.8582 7.55469 11.6709 7.58286 11.4886 7.60938C11.3063 7.63258 11.1539 7.65246 11.0312 7.66903C10.7429 7.70549 10.4794 7.76681 10.2408 7.85298C10.0054 7.93916 9.81652 8.06345 9.67401 8.22585C9.5348 8.38494 9.4652 8.59706 9.4652 8.86222C9.4652 9.23011 9.60109 9.50852 9.87287 9.69744C10.1446 9.88305 10.491 9.97585 10.9119 9.97585ZM22.5964 3.36364L19.8272 11H18.2363L15.4622 3.36364H17.0581L18.992 9.24006H19.0716L21.0005 3.36364H22.5964ZM23.9934 11V3.36364H25.4799V11H23.9934ZM24.7441 2.18537C24.4856 2.18537 24.2636 2.09919 24.0779 1.92685C23.8957 1.75118 23.8045 1.54238 23.8045 1.30043C23.8045 1.05516 23.8957 0.846354 24.0779 0.674005C24.2636 0.498342 24.4856 0.410511 24.7441 0.410511C25.0027 0.410511 25.2231 0.498342 25.4054 0.674005C25.591 0.846354 25.6838 1.05516 25.6838 1.30043C25.6838 1.54238 25.591 1.75118 25.4054 1.92685C25.2231 2.09919 25.0027 2.18537 24.7441 2.18537ZM30.6815 14.0227C30.0749 14.0227 29.5529 13.9432 29.1154 13.7841C28.6812 13.625 28.3266 13.4145 28.0515 13.1527C27.7764 12.8909 27.5709 12.6042 27.435 12.2926L28.7127 11.7656C28.8022 11.9115 28.9215 12.0656 29.0707 12.228C29.2231 12.3937 29.4286 12.5346 29.6871 12.6506C29.949 12.7666 30.2854 12.8246 30.6964 12.8246C31.2598 12.8246 31.7255 12.687 32.0934 12.4119C32.4613 12.1402 32.6452 11.706 32.6452 11.1094V9.60795H32.5508C32.4613 9.77036 32.332 9.95099 32.163 10.1499C31.9973 10.3487 31.7686 10.5211 31.4769 10.6669C31.1853 10.8127 30.8058 10.8857 30.3384 10.8857C29.7352 10.8857 29.1916 10.7448 28.7077 10.4631C28.2272 10.178 27.846 9.75876 27.5643 9.20526C27.2859 8.64844 27.1467 7.96401 27.1467 7.15199C27.1467 6.33996 27.2842 5.64394 27.5593 5.06392C27.8377 4.4839 28.2189 4.03977 28.7028 3.73153C29.1867 3.41998 29.7352 3.2642 30.3484 3.2642C30.8223 3.2642 31.2051 3.34375 31.4968 3.50284C31.7885 3.65862 32.0155 3.84091 32.1779 4.04972C32.3436 4.25852 32.4712 4.44247 32.5607 4.60156H32.6701V3.36364H34.1268V11.169C34.1268 11.8253 33.9743 12.3639 33.6694 12.7848C33.3645 13.2057 32.9518 13.5173 32.4315 13.7195C31.9144 13.9216 31.3311 14.0227 30.6815 14.0227ZM30.6665 9.6527C31.0941 9.6527 31.4554 9.55327 31.7504 9.3544C32.0487 9.15223 32.274 8.86387 32.4265 8.48935C32.5823 8.11151 32.6602 7.65909 32.6602 7.1321C32.6602 6.61837 32.5839 6.16596 32.4315 5.77486C32.279 5.38376 32.0553 5.07884 31.7603 4.86009C31.4653 4.63802 31.1007 4.52699 30.6665 4.52699C30.2191 4.52699 29.8462 4.64299 29.5479 4.875C29.2496 5.10369 29.0243 5.41525 28.8718 5.80966C28.7227 6.20407 28.6481 6.64489 28.6481 7.1321C28.6481 7.63258 28.7243 8.07173 28.8768 8.44957C29.0292 8.82741 29.2546 9.1224 29.5529 9.33452C29.8545 9.54664 30.2257 9.6527 30.6665 9.6527ZM38.3427 11.169C37.8588 11.169 37.4213 11.0795 37.0302 10.9006C36.6391 10.7183 36.3292 10.4548 36.1005 10.1101C35.8751 9.76539 35.7624 9.3428 35.7624 8.84233C35.7624 8.41146 35.8453 8.05682 36.011 7.77841C36.1767 7.5 36.4004 7.27959 36.6822 7.11719C36.9639 6.95478 37.2788 6.83215 37.6268 6.74929C37.9748 6.66643 38.3294 6.60346 38.6907 6.56037C39.1481 6.50734 39.5193 6.46425 39.8043 6.43111C40.0894 6.39465 40.2965 6.33665 40.4258 6.2571C40.555 6.17756 40.6197 6.0483 40.6197 5.86932V5.83452C40.6197 5.40033 40.497 5.06392 40.2518 4.82528C40.0098 4.58665 39.6486 4.46733 39.168 4.46733C38.6675 4.46733 38.2731 4.57836 37.9847 4.80043C37.6997 5.01918 37.5025 5.26278 37.3931 5.53125L35.9961 5.21307C36.1618 4.74905 36.4038 4.37453 36.7219 4.08949C37.0434 3.80114 37.413 3.59233 37.8306 3.46307C38.2482 3.33049 38.6874 3.2642 39.1481 3.2642C39.453 3.2642 39.7762 3.30066 40.1175 3.37358C40.4622 3.44318 40.7837 3.57244 41.082 3.76136C41.3836 3.95028 41.6306 4.22041 41.8228 4.57173C42.015 4.91974 42.1112 5.37216 42.1112 5.92898V11H40.6594V9.95597H40.5998C40.5037 10.1482 40.3595 10.3371 40.1673 10.5227C39.975 10.7083 39.7281 10.8625 39.4265 10.9851C39.1249 11.1077 38.7636 11.169 38.3427 11.169ZM38.6658 9.97585C39.0768 9.97585 39.4281 9.89465 39.7198 9.73224C40.0148 9.56984 40.2385 9.35772 40.391 9.09588C40.5468 8.83073 40.6246 8.54735 40.6246 8.24574V7.26136C40.5716 7.31439 40.4689 7.36411 40.3164 7.41051C40.1673 7.4536 39.9966 7.49171 39.8043 7.52486C39.6121 7.55469 39.4248 7.58286 39.2425 7.60938C39.0603 7.63258 38.9078 7.65246 38.7852 7.66903C38.4968 7.70549 38.2333 7.76681 37.9947 7.85298C37.7594 7.93916 37.5704 8.06345 37.4279 8.22585C37.2887 8.38494 37.2191 8.59706 37.2191 8.86222C37.2191 9.23011 37.355 9.50852 37.6268 9.69744C37.8986 9.88305 38.2449 9.97585 38.6658 9.97585ZM47.6557 3.36364V4.55682H43.4846V3.36364H47.6557ZM44.6032 1.53409H46.0897V8.75781C46.0897 9.04616 46.1328 9.26326 46.2189 9.40909C46.3051 9.55161 46.4161 9.64938 46.552 9.70241C46.6912 9.75213 46.842 9.77699 47.0044 9.77699C47.1238 9.77699 47.2282 9.7687 47.3176 9.75213C47.4071 9.73556 47.4767 9.7223 47.5265 9.71236L47.7949 10.9403C47.7087 10.9735 47.5861 11.0066 47.427 11.0398C47.2679 11.0762 47.0691 11.0961 46.8304 11.0994C46.4393 11.1061 46.0748 11.0365 45.7367 10.8906C45.3986 10.7448 45.1252 10.5194 44.9164 10.2145C44.7076 9.90956 44.6032 9.52675 44.6032 9.06605V1.53409ZM49.3001 11V3.36364H50.7866V11H49.3001ZM50.0508 2.18537C49.7923 2.18537 49.5702 2.09919 49.3846 1.92685C49.2023 1.75118 49.1112 1.54238 49.1112 1.30043C49.1112 1.05516 49.2023 0.846354 49.3846 0.674005C49.5702 0.498342 49.7923 0.410511 50.0508 0.410511C50.3093 0.410511 50.5297 0.498342 50.712 0.674005C50.8976 0.846354 50.9904 1.05516 50.9904 1.30043C50.9904 1.54238 50.8976 1.75118 50.712 1.92685C50.5297 2.09919 50.3093 2.18537 50.0508 2.18537ZM56.003 11.1541C55.2871 11.1541 54.6623 10.9901 54.1287 10.6619C53.5951 10.3338 53.1808 9.87476 52.8858 9.2848C52.5908 8.69484 52.4434 8.00544 52.4434 7.21662C52.4434 6.42448 52.5908 5.73177 52.8858 5.13849C53.1808 4.54522 53.5951 4.08452 54.1287 3.75639C54.6623 3.42827 55.2871 3.2642 56.003 3.2642C56.7189 3.2642 57.3437 3.42827 57.8773 3.75639C58.4109 4.08452 58.8252 4.54522 59.1202 5.13849C59.4152 5.73177 59.5627 6.42448 59.5627 7.21662C59.5627 8.00544 59.4152 8.69484 59.1202 9.2848C58.8252 9.87476 58.4109 10.3338 57.8773 10.6619C57.3437 10.9901 56.7189 11.1541 56.003 11.1541ZM56.008 9.90625C56.472 9.90625 56.8565 9.78362 57.1614 9.53835C57.4663 9.29309 57.6917 8.96662 57.8375 8.55895C57.9867 8.15128 58.0613 7.70218 58.0613 7.21165C58.0613 6.72443 57.9867 6.27699 57.8375 5.86932C57.6917 5.45833 57.4663 5.12855 57.1614 4.87997C56.8565 4.63139 56.472 4.5071 56.008 4.5071C55.5407 4.5071 55.1529 4.63139 54.8446 4.87997C54.5397 5.12855 54.3127 5.45833 54.1635 5.86932C54.0177 6.27699 53.9448 6.72443 53.9448 7.21165C53.9448 7.70218 54.0177 8.15128 54.1635 8.55895C54.3127 8.96662 54.5397 9.29309 54.8446 9.53835C55.1529 9.78362 55.5407 9.90625 56.008 9.90625ZM62.7085 6.46591V11H61.2219V3.36364H62.6488V4.60653H62.7433C62.9189 4.20218 63.194 3.87737 63.5685 3.6321C63.9464 3.38684 64.422 3.2642 64.9954 3.2642C65.5157 3.2642 65.9715 3.37358 66.3626 3.59233C66.7537 3.80777 67.0569 4.12926 67.2724 4.55682C67.4878 4.98437 67.5955 5.51302 67.5955 6.14276V11H66.109V6.32173C66.109 5.76823 65.9648 5.3357 65.6765 5.02415C65.3881 4.70928 64.9921 4.55185 64.4883 4.55185C64.1436 4.55185 63.837 4.62642 63.5685 4.77557C63.3034 4.92472 63.0929 5.14347 62.9371 5.43182C62.7847 5.71686 62.7085 6.06155 62.7085 6.46591ZM74.0884 6.05327V7.34091H69.5742V6.05327H74.0884ZM76.0696 13.8636V3.36364H77.5213V4.60156H77.6456C77.7318 4.44247 77.8561 4.25852 78.0185 4.04972C78.1809 3.84091 78.4063 3.65862 78.6946 3.50284C78.983 3.34375 79.3641 3.2642 79.8381 3.2642C80.4545 3.2642 81.0047 3.41998 81.4886 3.73153C81.9725 4.04309 82.352 4.49219 82.6271 5.07884C82.9055 5.66548 83.0447 6.37145 83.0447 7.19673C83.0447 8.02202 82.9072 8.72964 82.6321 9.3196C82.357 9.90625 81.9792 10.3587 81.4986 10.6768C81.018 10.9917 80.4695 11.1491 79.853 11.1491C79.389 11.1491 79.0095 11.0713 78.7145 10.9155C78.4228 10.7597 78.1941 10.5774 78.0284 10.3686C77.8627 10.1598 77.7351 9.9742 77.6456 9.81179H77.5561V13.8636H76.0696ZM77.5263 7.18182C77.5263 7.71875 77.6042 8.18939 77.7599 8.59375C77.9157 8.99811 78.1411 9.31463 78.4361 9.54332C78.7311 9.7687 79.0923 9.88139 79.5199 9.88139C79.964 9.88139 80.3352 9.76373 80.6335 9.52841C80.9318 9.28977 81.1572 8.96662 81.3097 8.55895C81.4654 8.15128 81.5433 7.69223 81.5433 7.18182C81.5433 6.67803 81.4671 6.22562 81.3146 5.82457C81.1655 5.42353 80.9401 5.10701 80.6385 4.875C80.3402 4.64299 79.9673 4.52699 79.5199 4.52699C79.089 4.52699 78.7244 4.63802 78.4261 4.86009C78.1312 5.08215 77.9074 5.39205 77.755 5.78977C77.6025 6.1875 77.5263 6.65151 77.5263 7.18182ZM87.9268 11.1541C87.2109 11.1541 86.5862 10.9901 86.0526 10.6619C85.5189 10.3338 85.1046 9.87476 84.8097 9.2848C84.5147 8.69484 84.3672 8.00544 84.3672 7.21662C84.3672 6.42448 84.5147 5.73177 84.8097 5.13849C85.1046 4.54522 85.5189 4.08452 86.0526 3.75639C86.5862 3.42827 87.2109 3.2642 87.9268 3.2642C88.6428 3.2642 89.2675 3.42827 89.8011 3.75639C90.3348 4.08452 90.7491 4.54522 91.044 5.13849C91.339 5.73177 91.4865 6.42448 91.4865 7.21662C91.4865 8.00544 91.339 8.69484 91.044 9.2848C90.7491 9.87476 90.3348 10.3338 89.8011 10.6619C89.2675 10.9901 88.6428 11.1541 87.9268 11.1541ZM87.9318 9.90625C88.3958 9.90625 88.7803 9.78362 89.0852 9.53835C89.3902 9.29309 89.6155 8.96662 89.7614 8.55895C89.9105 8.15128 89.9851 7.70218 89.9851 7.21165C89.9851 6.72443 89.9105 6.27699 89.7614 5.86932C89.6155 5.45833 89.3902 5.12855 89.0852 4.87997C88.7803 4.63139 88.3958 4.5071 87.9318 4.5071C87.4645 4.5071 87.0767 4.63139 86.7685 4.87997C86.4635 5.12855 86.2365 5.45833 86.0874 5.86932C85.9415 6.27699 85.8686 6.72443 85.8686 7.21165C85.8686 7.70218 85.9415 8.15128 86.0874 8.55895C86.2365 8.96662 86.4635 9.29309 86.7685 9.53835C87.0767 9.78362 87.4645 9.90625 87.9318 9.90625ZM93.1458 11V3.36364H94.6323V11H93.1458ZM93.8965 2.18537C93.638 2.18537 93.4159 2.09919 93.2303 1.92685C93.048 1.75118 92.9569 1.54238 92.9569 1.30043C92.9569 1.05516 93.048 0.846354 93.2303 0.674005C93.4159 0.498342 93.638 0.410511 93.8965 0.410511C94.155 0.410511 94.3754 0.498342 94.5577 0.674005C94.7433 0.846354 94.8361 1.05516 94.8361 1.30043C94.8361 1.54238 94.7433 1.75118 94.5577 1.92685C94.3754 2.09919 94.155 2.18537 93.8965 2.18537ZM98.1186 6.46591V11H96.6321V3.36364H98.0589V4.60653H98.1534C98.3291 4.20218 98.6042 3.87737 98.9787 3.6321C99.3565 3.38684 99.8321 3.2642 100.406 3.2642C100.926 3.2642 101.382 3.37358 101.773 3.59233C102.164 3.80777 102.467 4.12926 102.683 4.55682C102.898 4.98437 103.006 5.51302 103.006 6.14276V11H101.519V6.32173C101.519 5.76823 101.375 5.3357 101.087 5.02415C100.798 4.70928 100.402 4.55185 99.8984 4.55185C99.5537 4.55185 99.2472 4.62642 98.9787 4.77557C98.7135 4.92472 98.5031 5.14347 98.3473 5.43182C98.1948 5.71686 98.1186 6.06155 98.1186 6.46591ZM108.564 3.36364V4.55682H104.393V3.36364H108.564ZM105.511 1.53409H106.998V8.75781C106.998 9.04616 107.041 9.26326 107.127 9.40909C107.213 9.55161 107.324 9.64938 107.46 9.70241C107.599 9.75213 107.75 9.77699 107.913 9.77699C108.032 9.77699 108.136 9.7687 108.226 9.75213C108.315 9.73556 108.385 9.7223 108.435 9.71236L108.703 10.9403C108.617 10.9735 108.494 11.0066 108.335 11.0398C108.176 11.0762 107.977 11.0961 107.739 11.0994C107.348 11.1061 106.983 11.0365 106.645 10.8906C106.307 10.7448 106.033 10.5194 105.825 10.2145C105.616 9.90956 105.511 9.52675 105.511 9.06605V1.53409ZM113.417 11.1541C112.665 11.1541 112.017 10.9934 111.474 10.6719C110.933 10.3471 110.516 9.89134 110.221 9.30469C109.929 8.71473 109.783 8.02367 109.783 7.23153C109.783 6.44934 109.929 5.75994 110.221 5.16335C110.516 4.56676 110.927 4.10109 111.454 3.76633C111.984 3.43158 112.604 3.2642 113.313 3.2642C113.744 3.2642 114.162 3.33546 114.566 3.47798C114.97 3.6205 115.333 3.84422 115.655 4.14915C115.976 4.45407 116.23 4.85014 116.415 5.33736C116.601 5.82126 116.694 6.40956 116.694 7.10227V7.62926H110.623V6.51562H115.237C115.237 6.12453 115.157 5.77817 114.998 5.47656C114.839 5.17164 114.616 4.93134 114.327 4.75568C114.042 4.58002 113.707 4.49219 113.323 4.49219C112.905 4.49219 112.541 4.59493 112.229 4.80043C111.921 5.0026 111.682 5.26776 111.513 5.59588C111.348 5.92069 111.265 6.27367 111.265 6.65483V7.52486C111.265 8.03527 111.354 8.46946 111.533 8.82741C111.715 9.18537 111.969 9.45881 112.294 9.64773C112.619 9.83333 112.998 9.92614 113.432 9.92614C113.714 9.92614 113.971 9.88636 114.203 9.80682C114.435 9.72396 114.635 9.60133 114.805 9.43892C114.974 9.27652 115.103 9.07599 115.192 8.83736L116.599 9.09091C116.487 9.50521 116.284 9.86813 115.993 10.1797C115.704 10.4879 115.341 10.7282 114.904 10.9006C114.47 11.0696 113.974 11.1541 113.417 11.1541ZM118.343 11V3.36364H119.78V4.5767H119.859C119.999 4.16572 120.244 3.84257 120.595 3.60724C120.95 3.36861 121.351 3.24929 121.798 3.24929C121.891 3.24929 122 3.2526 122.126 3.25923C122.256 3.26586 122.357 3.27415 122.43 3.28409V4.70597C122.37 4.68939 122.264 4.67116 122.112 4.65128C121.959 4.62808 121.807 4.61648 121.654 4.61648C121.303 4.61648 120.99 4.69105 120.714 4.8402C120.443 4.98603 120.227 5.18987 120.068 5.4517C119.909 5.71023 119.83 6.00521 119.83 6.33665V11H118.343ZM127.764 6.05327V7.34091H123.25V6.05327H127.764ZM133.27 11.169C132.485 11.1657 131.814 10.9586 131.257 10.5476C130.7 10.1366 130.274 9.53835 129.979 8.75284C129.684 7.96733 129.537 7.02107 129.537 5.91406C129.537 4.81037 129.684 3.86742 129.979 3.08523C130.277 2.30303 130.705 1.70644 131.262 1.29545C131.822 0.884469 132.491 0.678977 133.27 0.678977C134.049 0.678977 134.717 0.886126 135.274 1.30043C135.831 1.71141 136.257 2.308 136.551 3.0902C136.85 3.86908 136.999 4.81037 136.999 5.91406C136.999 7.02438 136.851 7.9723 136.556 8.75781C136.261 9.54001 135.836 10.1383 135.279 10.5526C134.722 10.9635 134.052 11.169 133.27 11.169ZM133.27 9.84162C133.96 9.84162 134.498 9.50521 134.886 8.83239C135.277 8.15956 135.473 7.18679 135.473 5.91406C135.473 5.06889 135.383 4.35464 135.204 3.77131C135.029 3.18466 134.775 2.74053 134.444 2.43892C134.115 2.134 133.724 1.98153 133.27 1.98153C132.584 1.98153 132.046 2.3196 131.654 2.99574C131.263 3.67187 131.066 4.64465 131.063 5.91406C131.063 6.76255 131.151 7.48011 131.326 8.06676C131.505 8.65009 131.759 9.09257 132.087 9.39418C132.415 9.69247 132.81 9.84162 133.27 9.84162ZM138.763 11V9.88636L142.208 6.31676C142.576 5.92898 142.879 5.58925 143.118 5.29759C143.36 5.0026 143.54 4.72254 143.66 4.45739C143.779 4.19223 143.839 3.91051 143.839 3.61222C143.839 3.27415 143.759 2.98248 143.6 2.73722C143.441 2.48864 143.224 2.29806 142.949 2.16548C142.674 2.02959 142.364 1.96165 142.019 1.96165C141.654 1.96165 141.336 2.03622 141.064 2.18537C140.793 2.33452 140.584 2.54498 140.438 2.81676C140.292 3.08854 140.219 3.40672 140.219 3.77131H138.753C138.753 3.15151 138.895 2.60961 139.18 2.1456C139.465 1.68158 139.856 1.32197 140.354 1.06676C140.851 0.808238 141.416 0.678977 142.049 0.678977C142.689 0.678977 143.252 0.806581 143.739 1.06179C144.23 1.31368 144.613 1.65838 144.888 2.09588C145.163 2.53007 145.3 3.0206 145.3 3.56747C145.3 3.94531 145.229 4.31487 145.086 4.67614C144.947 5.0374 144.704 5.4401 144.356 5.88423C144.008 6.32505 143.524 6.86032 142.904 7.49006L140.881 9.60795V9.68253H145.464V11H138.763Z" fill="black"/>
</svg>
