<svg viewBox="0 0 74 15" fill="none" stroke-width="2" stroke="currentColor" aria-hidden="true">
  <path d="M1.4858 0.818182V11H-0.000710189V0.818182H1.4858ZM8.32298 7.8331V3.36364H9.81445V11H8.35281V9.67756H8.27326C8.0976 10.0852 7.81587 10.425 7.42809 10.6967C7.04362 10.9652 6.56469 11.0994 5.9913 11.0994C5.50077 11.0994 5.06658 10.9917 4.68874 10.7763C4.31422 10.5575 4.01924 10.2344 3.8038 9.80682C3.59168 9.37926 3.48562 8.85062 3.48562 8.22088V3.36364H4.97212V8.0419C4.97212 8.56226 5.1163 8.97656 5.40465 9.2848C5.693 9.59304 6.06753 9.74716 6.52823 9.74716C6.80664 9.74716 7.08339 9.67756 7.35849 9.53835C7.6369 9.39915 7.86725 9.18868 8.04954 8.90696C8.23514 8.62524 8.32629 8.26728 8.32298 7.8331ZM15.0135 14.0227C14.407 14.0227 13.8849 13.9432 13.4474 13.7841C13.0133 13.625 12.6586 13.4145 12.3835 13.1527C12.1084 12.8909 11.9029 12.6042 11.767 12.2926L13.0447 11.7656C13.1342 11.9115 13.2536 12.0656 13.4027 12.228C13.5552 12.3937 13.7607 12.5346 14.0192 12.6506C14.281 12.7666 14.6174 12.8246 15.0284 12.8246C15.5919 12.8246 16.0575 12.687 16.4254 12.4119C16.7933 12.1402 16.9773 11.706 16.9773 11.1094V9.60795H16.8828C16.7933 9.77036 16.6641 9.95099 16.495 10.1499C16.3293 10.3487 16.1006 10.5211 15.8089 10.6669C15.5173 10.8127 15.1378 10.8857 14.6705 10.8857C14.0672 10.8857 13.5237 10.7448 13.0398 10.4631C12.5592 10.178 12.178 9.75876 11.8963 9.20526C11.6179 8.64844 11.4787 7.96401 11.4787 7.15199C11.4787 6.33996 11.6162 5.64394 11.8913 5.06392C12.1697 4.4839 12.5509 4.03977 13.0348 3.73153C13.5187 3.41998 14.0672 3.2642 14.6804 3.2642C15.1544 3.2642 15.5372 3.34375 15.8288 3.50284C16.1205 3.65862 16.3475 3.84091 16.5099 4.04972C16.6757 4.25852 16.8033 4.44247 16.8928 4.60156H17.0021V3.36364H18.4588V11.169C18.4588 11.8253 18.3063 12.3639 18.0014 12.7848C17.6965 13.2057 17.2839 13.5173 16.7635 13.7195C16.2464 13.9216 15.6631 14.0227 15.0135 14.0227ZM14.9986 9.6527C15.4261 9.6527 15.7874 9.55327 16.0824 9.3544C16.3807 9.15223 16.6061 8.86387 16.7585 8.48935C16.9143 8.11151 16.9922 7.65909 16.9922 7.1321C16.9922 6.61837 16.916 6.16596 16.7635 5.77486C16.611 5.38376 16.3873 5.07884 16.0923 4.86009C15.7973 4.63802 15.4328 4.52699 14.9986 4.52699C14.5511 4.52699 14.1783 4.64299 13.88 4.875C13.5817 5.10369 13.3563 5.41525 13.2038 5.80966C13.0547 6.20407 12.9801 6.64489 12.9801 7.1321C12.9801 7.63258 13.0563 8.07173 13.2088 8.44957C13.3613 8.82741 13.5866 9.1224 13.8849 9.33452C14.1866 9.54664 14.5578 9.6527 14.9986 9.6527ZM23.6541 14.0227C23.0476 14.0227 22.5256 13.9432 22.0881 13.7841C21.6539 13.625 21.2992 13.4145 21.0241 13.1527C20.7491 12.8909 20.5436 12.6042 20.4077 12.2926L21.6854 11.7656C21.7749 11.9115 21.8942 12.0656 22.0433 12.228C22.1958 12.3937 22.4013 12.5346 22.6598 12.6506C22.9216 12.7666 23.258 12.8246 23.669 12.8246C24.2325 12.8246 24.6982 12.687 25.0661 12.4119C25.4339 12.1402 25.6179 11.706 25.6179 11.1094V9.60795H25.5234C25.4339 9.77036 25.3047 9.95099 25.1357 10.1499C24.9699 10.3487 24.7412 10.5211 24.4496 10.6669C24.1579 10.8127 23.7784 10.8857 23.3111 10.8857C22.7079 10.8857 22.1643 10.7448 21.6804 10.4631C21.1998 10.178 20.8187 9.75876 20.5369 9.20526C20.2585 8.64844 20.1193 7.96401 20.1193 7.15199C20.1193 6.33996 20.2569 5.64394 20.532 5.06392C20.8104 4.4839 21.1915 4.03977 21.6754 3.73153C22.1593 3.41998 22.7079 3.2642 23.321 3.2642C23.795 3.2642 24.1778 3.34375 24.4695 3.50284C24.7611 3.65862 24.9882 3.84091 25.1506 4.04972C25.3163 4.25852 25.4439 4.44247 25.5334 4.60156H25.6428V3.36364H27.0994V11.169C27.0994 11.8253 26.947 12.3639 26.642 12.7848C26.3371 13.2057 25.9245 13.5173 25.4041 13.7195C24.8871 13.9216 24.3037 14.0227 23.6541 14.0227ZM23.6392 9.6527C24.0668 9.6527 24.428 9.55327 24.723 9.3544C25.0213 9.15223 25.2467 8.86387 25.3991 8.48935C25.5549 8.11151 25.6328 7.65909 25.6328 7.1321C25.6328 6.61837 25.5566 6.16596 25.4041 5.77486C25.2517 5.38376 25.0279 5.07884 24.733 4.86009C24.438 4.63802 24.0734 4.52699 23.6392 4.52699C23.1918 4.52699 22.8189 4.64299 22.5206 4.875C22.2223 5.10369 21.9969 5.41525 21.8445 5.80966C21.6953 6.20407 21.6207 6.64489 21.6207 7.1321C21.6207 7.63258 21.697 8.07173 21.8494 8.44957C22.0019 8.82741 22.2273 9.1224 22.5256 9.33452C22.8272 9.54664 23.1984 9.6527 23.6392 9.6527ZM31.3153 11.169C30.8314 11.169 30.3939 11.0795 30.0028 10.9006C29.6117 10.7183 29.3018 10.4548 29.0732 10.1101C28.8478 9.76539 28.7351 9.3428 28.7351 8.84233C28.7351 8.41146 28.8179 8.05682 28.9837 7.77841C29.1494 7.5 29.3731 7.27959 29.6548 7.11719C29.9366 6.95478 30.2514 6.83215 30.5994 6.74929C30.9474 6.66643 31.3021 6.60346 31.6634 6.56037C32.1207 6.50734 32.492 6.46425 32.777 6.43111C33.062 6.39465 33.2692 6.33665 33.3984 6.2571C33.5277 6.17756 33.5923 6.0483 33.5923 5.86932V5.83452C33.5923 5.40033 33.4697 5.06392 33.2244 4.82528C32.9825 4.58665 32.6212 4.46733 32.1406 4.46733C31.6402 4.46733 31.2457 4.57836 30.9574 4.80043C30.6723 5.01918 30.4751 5.26278 30.3658 5.53125L28.9688 5.21307C29.1345 4.74905 29.3764 4.37453 29.6946 4.08949C30.0161 3.80114 30.3857 3.59233 30.8033 3.46307C31.2209 3.33049 31.66 3.2642 32.1207 3.2642C32.4257 3.2642 32.7488 3.30066 33.0902 3.37358C33.4349 3.44318 33.7564 3.57244 34.0547 3.76136C34.3563 3.95028 34.6032 4.22041 34.7955 4.57173C34.9877 4.91974 35.0838 5.37216 35.0838 5.92898V11H33.6321V9.95597H33.5724C33.4763 10.1482 33.3321 10.3371 33.1399 10.5227C32.9477 10.7083 32.7008 10.8625 32.3991 10.9851C32.0975 11.1077 31.7363 11.169 31.3153 11.169ZM31.6385 9.97585C32.0495 9.97585 32.4008 9.89465 32.6925 9.73224C32.9875 9.56984 33.2112 9.35772 33.3636 9.09588C33.5194 8.83073 33.5973 8.54735 33.5973 8.24574V7.26136C33.5443 7.31439 33.4415 7.36411 33.2891 7.41051C33.1399 7.4536 32.9692 7.49171 32.777 7.52486C32.5848 7.55469 32.3975 7.58286 32.2152 7.60938C32.0329 7.63258 31.8804 7.65246 31.7578 7.66903C31.4695 7.70549 31.206 7.76681 30.9673 7.85298C30.732 7.93916 30.5431 8.06345 30.4006 8.22585C30.2614 8.38494 30.1918 8.59706 30.1918 8.86222C30.1918 9.23011 30.3277 9.50852 30.5994 9.69744C30.8712 9.88305 31.2176 9.97585 31.6385 9.97585ZM40.2654 14.0227C39.6589 14.0227 39.1369 13.9432 38.6994 13.7841C38.2652 13.625 37.9106 13.4145 37.6355 13.1527C37.3604 12.8909 37.1549 12.6042 37.019 12.2926L38.2967 11.7656C38.3862 11.9115 38.5055 12.0656 38.6547 12.228C38.8071 12.3937 39.0126 12.5346 39.2711 12.6506C39.533 12.7666 39.8694 12.8246 40.2804 12.8246C40.8438 12.8246 41.3095 12.687 41.6774 12.4119C42.0453 12.1402 42.2292 11.706 42.2292 11.1094V9.60795H42.1348C42.0453 9.77036 41.916 9.95099 41.747 10.1499C41.5813 10.3487 41.3526 10.5211 41.0609 10.6669C40.7692 10.8127 40.3897 10.8857 39.9224 10.8857C39.3192 10.8857 38.7756 10.7448 38.2917 10.4631C37.8111 10.178 37.43 9.75876 37.1483 9.20526C36.8699 8.64844 36.7306 7.96401 36.7306 7.15199C36.7306 6.33996 36.8682 5.64394 37.1433 5.06392C37.4217 4.4839 37.8029 4.03977 38.2868 3.73153C38.7707 3.41998 39.3192 3.2642 39.9324 3.2642C40.4063 3.2642 40.7891 3.34375 41.0808 3.50284C41.3725 3.65862 41.5995 3.84091 41.7619 4.04972C41.9276 4.25852 42.0552 4.44247 42.1447 4.60156H42.2541V3.36364H43.7108V11.169C43.7108 11.8253 43.5583 12.3639 43.2534 12.7848C42.9484 13.2057 42.5358 13.5173 42.0154 13.7195C41.4984 13.9216 40.9151 14.0227 40.2654 14.0227ZM40.2505 9.6527C40.6781 9.6527 41.0394 9.55327 41.3343 9.3544C41.6326 9.15223 41.858 8.86387 42.0105 8.48935C42.1663 8.11151 42.2441 7.65909 42.2441 7.1321C42.2441 6.61837 42.1679 6.16596 42.0154 5.77486C41.863 5.38376 41.6393 5.07884 41.3443 4.86009C41.0493 4.63802 40.6847 4.52699 40.2505 4.52699C39.8031 4.52699 39.4302 4.64299 39.1319 4.875C38.8336 5.10369 38.6083 5.41525 38.4558 5.80966C38.3066 6.20407 38.2321 6.64489 38.2321 7.1321C38.2321 7.63258 38.3083 8.07173 38.4608 8.44957C38.6132 8.82741 38.8386 9.1224 39.1369 9.33452C39.4385 9.54664 39.8097 9.6527 40.2505 9.6527ZM48.9956 11.1541C48.2432 11.1541 47.5952 10.9934 47.0517 10.6719C46.5114 10.3471 46.0938 9.89134 45.7988 9.30469C45.5072 8.71473 45.3613 8.02367 45.3613 7.23153C45.3613 6.44934 45.5072 5.75994 45.7988 5.16335C46.0938 4.56676 46.5048 4.10109 47.0318 3.76633C47.5621 3.43158 48.1819 3.2642 48.8912 3.2642C49.322 3.2642 49.7396 3.33546 50.144 3.47798C50.5484 3.6205 50.9113 3.84422 51.2328 4.14915C51.5543 4.45407 51.8078 4.85014 51.9934 5.33736C52.179 5.82126 52.2718 6.40956 52.2718 7.10227V7.62926H46.2015V6.51562H50.8152C50.8152 6.12453 50.7356 5.77817 50.5765 5.47656C50.4174 5.17164 50.1937 4.93134 49.9054 4.75568C49.6203 4.58002 49.2856 4.49219 48.9011 4.49219C48.4835 4.49219 48.1189 4.59493 47.8074 4.80043C47.4991 5.0026 47.2605 5.26776 47.0914 5.59588C46.9257 5.92069 46.8429 6.27367 46.8429 6.65483V7.52486C46.8429 8.03527 46.9324 8.46946 47.1113 8.82741C47.2936 9.18537 47.5472 9.45881 47.872 9.64773C48.1968 9.83333 48.5763 9.92614 49.0105 9.92614C49.2922 9.92614 49.5491 9.88636 49.7811 9.80682C50.0131 9.72396 50.2136 9.60133 50.3826 9.43892C50.5517 9.27652 50.6809 9.07599 50.7704 8.83736L52.1774 9.09091C52.0647 9.50521 51.8625 9.86813 51.5708 10.1797C51.2825 10.4879 50.9196 10.7282 50.4821 10.9006C50.0479 11.0696 49.5524 11.1541 48.9956 11.1541ZM58.4205 6.05327V7.34091H53.9062V6.05327H58.4205ZM63.9265 11.169C63.141 11.1657 62.4698 10.9586 61.913 10.5476C61.3562 10.1366 60.9303 9.53835 60.6353 8.75284C60.3403 7.96733 60.1928 7.02107 60.1928 5.91406C60.1928 4.81037 60.3403 3.86742 60.6353 3.08523C60.9336 2.30303 61.3612 1.70644 61.918 1.29545C62.4781 0.884469 63.1476 0.678977 63.9265 0.678977C64.7054 0.678977 65.3732 0.886126 65.93 1.30043C66.4869 1.71141 66.9128 2.308 67.2077 3.0902C67.506 3.86908 67.6552 4.81037 67.6552 5.91406C67.6552 7.02438 67.5077 7.9723 67.2127 8.75781C66.9177 9.54001 66.4918 10.1383 65.935 10.5526C65.3782 10.9635 64.7087 11.169 63.9265 11.169ZM63.9265 9.84162C64.6159 9.84162 65.1545 9.50521 65.5423 8.83239C65.9334 8.15956 66.1289 7.18679 66.1289 5.91406C66.1289 5.06889 66.0394 4.35464 65.8604 3.77131C65.6848 3.18466 65.4312 2.74053 65.0998 2.43892C64.7717 2.134 64.3806 1.98153 63.9265 1.98153C63.2404 1.98153 62.7018 2.3196 62.3107 2.99574C61.9196 3.67187 61.7224 4.64465 61.7191 5.91406C61.7191 6.76255 61.8069 7.48011 61.9826 8.06676C62.1616 8.65009 62.4151 9.09257 62.7433 9.39418C63.0714 9.69247 63.4658 9.84162 63.9265 9.84162ZM73.2818 0.818182V11H71.7406V2.35938H71.6809L69.2449 3.95028V2.47869L71.7853 0.818182H73.2818Z" fill="black"/>
</svg>
