<svg viewBox="0 0 81 14" fill="none" stroke-width="2" stroke="currentColor" aria-hidden="true">
  <path d="M4.21591 11.1541C3.4768 11.1541 2.84044 10.9867 2.30682 10.652C1.77652 10.3139 1.36884 9.84825 1.08381 9.25497C0.798769 8.66169 0.65625 7.98224 0.65625 7.21662C0.65625 6.44105 0.802083 5.75663 1.09375 5.16335C1.38542 4.56676 1.7964 4.10109 2.3267 3.76633C2.85701 3.43158 3.48177 3.2642 4.20099 3.2642C4.78101 3.2642 5.29806 3.37192 5.75213 3.58736C6.2062 3.79948 6.57244 4.09777 6.85085 4.48224C7.13258 4.86671 7.29995 5.31581 7.35298 5.82955H5.90625C5.8267 5.47159 5.64441 5.16335 5.35938 4.90483C5.07765 4.64631 4.69981 4.51705 4.22585 4.51705C3.81155 4.51705 3.44863 4.62642 3.13707 4.84517C2.82884 5.06061 2.58854 5.36884 2.41619 5.76989C2.24384 6.16761 2.15767 6.63826 2.15767 7.18182C2.15767 7.73864 2.24219 8.21922 2.41122 8.62358C2.58026 9.02794 2.81889 9.34115 3.12713 9.56321C3.43868 9.78527 3.80492 9.89631 4.22585 9.89631C4.50758 9.89631 4.76278 9.84493 4.99148 9.74219C5.22349 9.63613 5.41738 9.48532 5.57315 9.28977C5.73224 9.09422 5.84328 8.8589 5.90625 8.58381H7.35298C7.29995 9.07765 7.1392 9.51847 6.87074 9.90625C6.60227 10.294 6.24266 10.599 5.7919 10.821C5.34446 11.0431 4.81913 11.1541 4.21591 11.1541ZM12.1593 11.1541C11.4434 11.1541 10.8186 10.9901 10.285 10.6619C9.75136 10.3338 9.33706 9.87476 9.04208 9.2848C8.7471 8.69484 8.59961 8.00544 8.59961 7.21662C8.59961 6.42448 8.7471 5.73177 9.04208 5.13849C9.33706 4.54522 9.75136 4.08452 10.285 3.75639C10.8186 3.42827 11.4434 3.2642 12.1593 3.2642C12.8752 3.2642 13.4999 3.42827 14.0336 3.75639C14.5672 4.08452 14.9815 4.54522 15.2765 5.13849C15.5714 5.73177 15.7189 6.42448 15.7189 7.21662C15.7189 8.00544 15.5714 8.69484 15.2765 9.2848C14.9815 9.87476 14.5672 10.3338 14.0336 10.6619C13.4999 10.9901 12.8752 11.1541 12.1593 11.1541ZM12.1642 9.90625C12.6283 9.90625 13.0127 9.78362 13.3176 9.53835C13.6226 9.29309 13.848 8.96662 13.9938 8.55895C14.1429 8.15128 14.2175 7.70218 14.2175 7.21165C14.2175 6.72443 14.1429 6.27699 13.9938 5.86932C13.848 5.45833 13.6226 5.12855 13.3176 4.87997C13.0127 4.63139 12.6283 4.5071 12.1642 4.5071C11.6969 4.5071 11.3091 4.63139 11.0009 4.87997C10.696 5.12855 10.4689 5.45833 10.3198 5.86932C10.1739 6.27699 10.101 6.72443 10.101 7.21165C10.101 7.70218 10.1739 8.15128 10.3198 8.55895C10.4689 8.96662 10.696 9.29309 11.0009 9.53835C11.3091 9.78362 11.6969 9.90625 12.1642 9.90625ZM17.3782 11V3.36364H18.805V4.60653H18.8995C19.0586 4.18561 19.3188 3.85748 19.68 3.62216C20.0413 3.38352 20.4738 3.2642 20.9776 3.2642C21.488 3.2642 21.9156 3.38352 22.2603 3.62216C22.6083 3.8608 22.8652 4.18892 23.0309 4.60653H23.1104C23.2927 4.19886 23.5827 3.87405 23.9805 3.6321C24.3782 3.38684 24.8522 3.2642 25.4023 3.2642C26.0951 3.2642 26.6602 3.4813 27.0977 3.91548C27.5385 4.34967 27.7589 5.00426 27.7589 5.87926V11H26.2724V6.01847C26.2724 5.50142 26.1315 5.12689 25.8498 4.89489C25.5681 4.66288 25.2317 4.54688 24.8406 4.54688C24.3567 4.54688 23.9805 4.69602 23.712 4.99432C23.4435 5.2893 23.3093 5.6688 23.3093 6.13281V11H21.8278V5.92401C21.8278 5.50971 21.6985 5.17661 21.44 4.92472C21.1815 4.67282 20.8451 4.54688 20.4308 4.54688C20.149 4.54688 19.8888 4.62145 19.6502 4.7706C19.4149 4.91643 19.2243 5.12026 19.0785 5.3821C18.936 5.64394 18.8647 5.94721 18.8647 6.2919V11H17.3782ZM29.7512 13.8636V3.36364H31.2029V4.60156H31.3272C31.4134 4.44247 31.5377 4.25852 31.7001 4.04972C31.8625 3.84091 32.0879 3.65862 32.3762 3.50284C32.6646 3.34375 33.0458 3.2642 33.5197 3.2642C34.1362 3.2642 34.6864 3.41998 35.1703 3.73153C35.6542 4.04309 36.0337 4.49219 36.3088 5.07884C36.5872 5.66548 36.7264 6.37145 36.7264 7.19673C36.7264 8.02202 36.5888 8.72964 36.3137 9.3196C36.0386 9.90625 35.6608 10.3587 35.1802 10.6768C34.6996 10.9917 34.1511 11.1491 33.5346 11.1491C33.0706 11.1491 32.6911 11.0713 32.3961 10.9155C32.1045 10.7597 31.8758 10.5774 31.71 10.3686C31.5443 10.1598 31.4167 9.9742 31.3272 9.81179H31.2377V13.8636H29.7512ZM31.2079 7.18182C31.2079 7.71875 31.2858 8.18939 31.4416 8.59375C31.5974 8.99811 31.8227 9.31463 32.1177 9.54332C32.4127 9.7687 32.774 9.88139 33.2015 9.88139C33.6457 9.88139 34.0169 9.76373 34.3152 9.52841C34.6135 9.28977 34.8388 8.96662 34.9913 8.55895C35.1471 8.15128 35.225 7.69223 35.225 7.18182C35.225 6.67803 35.1487 6.22562 34.9963 5.82457C34.8471 5.42353 34.6217 5.10701 34.3201 4.875C34.0218 4.64299 33.649 4.52699 33.2015 4.52699C32.7707 4.52699 32.4061 4.63802 32.1078 4.86009C31.8128 5.08215 31.5891 5.39205 31.4366 5.78977C31.2842 6.1875 31.2079 6.65151 31.2079 7.18182ZM40.6142 11.169C40.1303 11.169 39.6928 11.0795 39.3017 10.9006C38.9106 10.7183 38.6007 10.4548 38.372 10.1101C38.1466 9.76539 38.0339 9.3428 38.0339 8.84233C38.0339 8.41146 38.1168 8.05682 38.2825 7.77841C38.4482 7.5 38.6719 7.27959 38.9537 7.11719C39.2354 6.95478 39.5502 6.83215 39.8983 6.74929C40.2463 6.66643 40.6009 6.60346 40.9622 6.56037C41.4196 6.50734 41.7908 6.46425 42.0758 6.43111C42.3609 6.39465 42.568 6.33665 42.6973 6.2571C42.8265 6.17756 42.8912 6.0483 42.8912 5.86932V5.83452C42.8912 5.40033 42.7685 5.06392 42.5233 4.82528C42.2813 4.58665 41.92 4.46733 41.4395 4.46733C40.939 4.46733 40.5446 4.57836 40.2562 4.80043C39.9712 5.01918 39.774 5.26278 39.6646 5.53125L38.2676 5.21307C38.4333 4.74905 38.6752 4.37453 38.9934 4.08949C39.3149 3.80114 39.6845 3.59233 40.1021 3.46307C40.5197 3.33049 40.9589 3.2642 41.4196 3.2642C41.7245 3.2642 42.0476 3.30066 42.389 3.37358C42.7337 3.44318 43.0552 3.57244 43.3535 3.76136C43.6551 3.95028 43.902 4.22041 44.0943 4.57173C44.2865 4.91974 44.3826 5.37216 44.3826 5.92898V11H42.9309V9.95597H42.8713C42.7752 10.1482 42.631 10.3371 42.4387 10.5227C42.2465 10.7083 41.9996 10.8625 41.698 10.9851C41.3964 11.1077 41.0351 11.169 40.6142 11.169ZM40.9373 9.97585C41.3483 9.97585 41.6996 9.89465 41.9913 9.73224C42.2863 9.56984 42.51 9.35772 42.6625 9.09588C42.8182 8.83073 42.8961 8.54735 42.8961 8.24574V7.26136C42.8431 7.31439 42.7404 7.36411 42.5879 7.41051C42.4387 7.4536 42.2681 7.49171 42.0758 7.52486C41.8836 7.55469 41.6963 7.58286 41.514 7.60938C41.3317 7.63258 41.1793 7.65246 41.0566 7.66903C40.7683 7.70549 40.5048 7.76681 40.2662 7.85298C40.0308 7.93916 39.8419 8.06345 39.6994 8.22585C39.5602 8.38494 39.4906 8.59706 39.4906 8.86222C39.4906 9.23011 39.6265 9.50852 39.8983 9.69744C40.17 9.88305 40.5164 9.97585 40.9373 9.97585ZM52.0849 5.22798L50.7376 5.46662C50.6812 5.29427 50.5917 5.13021 50.4691 4.97443C50.3498 4.81865 50.1874 4.69105 49.9819 4.59162C49.7764 4.49219 49.5195 4.44247 49.2113 4.44247C48.7904 4.44247 48.439 4.53693 48.1573 4.72585C47.8756 4.91146 47.7347 5.15175 47.7347 5.44673C47.7347 5.70194 47.8292 5.90743 48.0181 6.06321C48.207 6.21899 48.512 6.34659 48.9329 6.44602L50.146 6.72443C50.8486 6.88684 51.3723 7.13707 51.717 7.47514C52.0617 7.81321 52.234 8.25237 52.234 8.79261C52.234 9.25 52.1014 9.65767 51.8363 10.0156C51.5745 10.3703 51.2082 10.6487 50.7376 10.8509C50.2702 11.053 49.7283 11.1541 49.1119 11.1541C48.2567 11.1541 47.5591 10.9718 47.0188 10.6072C46.4786 10.2393 46.1471 9.71733 46.0245 9.04119L47.4613 8.82244C47.5508 9.19697 47.7347 9.48035 48.0131 9.67259C48.2915 9.86151 48.6545 9.95597 49.1019 9.95597C49.5891 9.95597 49.9786 9.85488 50.2702 9.6527C50.5619 9.44721 50.7077 9.19697 50.7077 8.90199C50.7077 8.66335 50.6183 8.46283 50.4393 8.30043C50.2636 8.13802 49.9935 8.01539 49.6289 7.93253L48.3363 7.64915C47.6237 7.48674 47.0967 7.22822 46.7553 6.87358C46.4173 6.51894 46.2482 6.06984 46.2482 5.52628C46.2482 5.07552 46.3742 4.68111 46.6261 4.34304C46.878 4.00497 47.226 3.74148 47.6701 3.55256C48.1142 3.36032 48.623 3.2642 49.1964 3.2642C50.0217 3.2642 50.6713 3.44318 51.1452 3.80114C51.6192 4.15578 51.9324 4.63139 52.0849 5.22798ZM59.5907 5.22798L58.2434 5.46662C58.1871 5.29427 58.0976 5.13021 57.975 4.97443C57.8556 4.81865 57.6932 4.69105 57.4877 4.59162C57.2823 4.49219 57.0254 4.44247 56.7172 4.44247C56.2962 4.44247 55.9449 4.53693 55.6632 4.72585C55.3815 4.91146 55.2406 5.15175 55.2406 5.44673C55.2406 5.70194 55.335 5.90743 55.524 6.06321C55.7129 6.21899 56.0178 6.34659 56.4387 6.44602L57.6518 6.72443C58.3545 6.88684 58.8781 7.13707 59.2228 7.47514C59.5675 7.81321 59.7399 8.25237 59.7399 8.79261C59.7399 9.25 59.6073 9.65767 59.3422 10.0156C59.0803 10.3703 58.7141 10.6487 58.2434 10.8509C57.7761 11.053 57.2342 11.1541 56.6177 11.1541C55.7626 11.1541 55.0649 10.9718 54.5247 10.6072C53.9844 10.2393 53.653 9.71733 53.5304 9.04119L54.9672 8.82244C55.0566 9.19697 55.2406 9.48035 55.519 9.67259C55.7974 9.86151 56.1603 9.95597 56.6078 9.95597C57.095 9.95597 57.4844 9.85488 57.7761 9.6527C58.0678 9.44721 58.2136 9.19697 58.2136 8.90199C58.2136 8.66335 58.1241 8.46283 57.9451 8.30043C57.7695 8.13802 57.4993 8.01539 57.1348 7.93253L55.8422 7.64915C55.1296 7.48674 54.6026 7.22822 54.2612 6.87358C53.9231 6.51894 53.7541 6.06984 53.7541 5.52628C53.7541 5.07552 53.88 4.68111 54.1319 4.34304C54.3838 4.00497 54.7318 3.74148 55.176 3.55256C55.6201 3.36032 56.1288 3.2642 56.7022 3.2642C57.5275 3.2642 58.1771 3.44318 58.6511 3.80114C59.1251 4.15578 59.4383 4.63139 59.5907 5.22798ZM65.8736 6.05327V7.34091H61.3594V6.05327H65.8736ZM71.3796 11.169C70.5941 11.1657 69.9229 10.9586 69.3661 10.5476C68.8093 10.1366 68.3834 9.53835 68.0884 8.75284C67.7934 7.96733 67.646 7.02107 67.646 5.91406C67.646 4.81037 67.7934 3.86742 68.0884 3.08523C68.3867 2.30303 68.8143 1.70644 69.3711 1.29545C69.9312 0.884469 70.6007 0.678977 71.3796 0.678977C72.1585 0.678977 72.8263 0.886126 73.3832 1.30043C73.94 1.71141 74.3659 2.308 74.6609 3.0902C74.9592 3.86908 75.1083 4.81037 75.1083 5.91406C75.1083 7.02438 74.9608 7.9723 74.6658 8.75781C74.3709 9.54001 73.945 10.1383 73.3881 10.5526C72.8313 10.9635 72.1618 11.169 71.3796 11.169ZM71.3796 9.84162C72.069 9.84162 72.6076 9.50521 72.9954 8.83239C73.3865 8.15956 73.582 7.18679 73.582 5.91406C73.582 5.06889 73.4925 4.35464 73.3136 3.77131C73.1379 3.18466 72.8844 2.74053 72.5529 2.43892C72.2248 2.134 71.8337 1.98153 71.3796 1.98153C70.6935 1.98153 70.1549 2.3196 69.7638 2.99574C69.3728 3.67187 69.1755 4.64465 69.1722 5.91406C69.1722 6.76255 69.2601 7.48011 69.4357 8.06676C69.6147 8.65009 69.8683 9.09257 70.1964 9.39418C70.5245 9.69247 70.9189 9.84162 71.3796 9.84162ZM80.7349 0.818182V11H79.1937V2.35938H79.1341L76.698 3.95028V2.47869L79.2385 0.818182H80.7349Z" fill="black"/>
</svg>
