<svg viewBox="0 0 30 12" fill="none" stroke-width="2" stroke="currentColor" aria-hidden="true">
  <path d="M4.56392 3.36364V4.55682H0.392756V3.36364H4.56392ZM1.51136 1.53409H2.99787V8.75781C2.99787 9.04616 3.04096 9.26326 3.12713 9.40909C3.21331 9.55161 3.32434 9.64938 3.46023 9.70241C3.59943 9.75213 3.75024 9.77699 3.91264 9.77699C4.03196 9.77699 4.13636 9.7687 4.22585 9.75213C4.31534 9.73556 4.38494 9.7223 4.43466 9.71236L4.70312 10.9403C4.61695 10.9735 4.49432 11.0066 4.33523 11.0398C4.17614 11.0762 3.97727 11.0961 3.73864 11.0994C3.34754 11.1061 2.98295 11.0365 2.64489 10.8906C2.30682 10.7448 2.03338 10.5194 1.82457 10.2145C1.61577 9.90956 1.51136 9.52675 1.51136 9.06605V1.53409ZM6.20827 11V3.36364H7.64506V4.5767H7.72461C7.86381 4.16572 8.10908 3.84257 8.4604 3.60724C8.81505 3.36861 9.21609 3.24929 9.66353 3.24929C9.75633 3.24929 9.86571 3.2526 9.99166 3.25923C10.1209 3.26586 10.222 3.27415 10.2949 3.28409V4.70597C10.2353 4.68939 10.1292 4.67116 9.97674 4.65128C9.82428 4.62808 9.67182 4.61648 9.51935 4.61648C9.16803 4.61648 8.85482 4.69105 8.57972 4.8402C8.30794 4.98603 8.09251 5.18987 7.93342 5.4517C7.77433 5.71023 7.69478 6.00521 7.69478 6.33665V11H6.20827ZM13.7353 11.169C13.2514 11.169 12.8139 11.0795 12.4228 10.9006C12.0317 10.7183 11.7218 10.4548 11.4931 10.1101C11.2677 9.76539 11.155 9.3428 11.155 8.84233C11.155 8.41146 11.2379 8.05682 11.4036 7.77841C11.5693 7.5 11.793 7.27959 12.0748 7.11719C12.3565 6.95478 12.6713 6.83215 13.0194 6.74929C13.3674 6.66643 13.722 6.60346 14.0833 6.56037C14.5407 6.50734 14.9119 6.46425 15.1969 6.43111C15.4819 6.39465 15.6891 6.33665 15.8184 6.2571C15.9476 6.17756 16.0123 6.0483 16.0123 5.86932V5.83452C16.0123 5.40033 15.8896 5.06392 15.6444 4.82528C15.4024 4.58665 15.0411 4.46733 14.5605 4.46733C14.0601 4.46733 13.6657 4.57836 13.3773 4.80043C13.0923 5.01918 12.8951 5.26278 12.7857 5.53125L11.3887 5.21307C11.5544 4.74905 11.7963 4.37453 12.1145 4.08949C12.436 3.80114 12.8056 3.59233 13.2232 3.46307C13.6408 3.33049 14.08 3.2642 14.5407 3.2642C14.8456 3.2642 15.1687 3.30066 15.5101 3.37358C15.8548 3.44318 16.1763 3.57244 16.4746 3.76136C16.7762 3.95028 17.0231 4.22041 17.2154 4.57173C17.4076 4.91974 17.5037 5.37216 17.5037 5.92898V11H16.052V9.95597H15.9924C15.8962 10.1482 15.7521 10.3371 15.5598 10.5227C15.3676 10.7083 15.1207 10.8625 14.8191 10.9851C14.5175 11.1077 14.1562 11.169 13.7353 11.169ZM14.0584 9.97585C14.4694 9.97585 14.8207 9.89465 15.1124 9.73224C15.4074 9.56984 15.6311 9.35772 15.7836 9.09588C15.9393 8.83073 16.0172 8.54735 16.0172 8.24574V7.26136C15.9642 7.31439 15.8614 7.36411 15.709 7.41051C15.5598 7.4536 15.3891 7.49171 15.1969 7.52486C15.0047 7.55469 14.8174 7.58286 14.6351 7.60938C14.4528 7.63258 14.3004 7.65246 14.1777 7.66903C13.8894 7.70549 13.6259 7.76681 13.3873 7.85298C13.1519 7.93916 12.963 8.06345 12.8205 8.22585C12.6813 8.38494 12.6117 8.59706 12.6117 8.86222C12.6117 9.23011 12.7476 9.50852 13.0194 9.69744C13.2911 9.88305 13.6375 9.97585 14.0584 9.97585ZM19.4837 11V3.36364H20.9702V11H19.4837ZM20.2344 2.18537C19.9759 2.18537 19.7538 2.09919 19.5682 1.92685C19.3859 1.75118 19.2947 1.54238 19.2947 1.30043C19.2947 1.05516 19.3859 0.846354 19.5682 0.674005C19.7538 0.498342 19.9759 0.410511 20.2344 0.410511C20.4929 0.410511 20.7133 0.498342 20.8956 0.674005C21.0812 0.846354 21.174 1.05516 21.174 1.30043C21.174 1.54238 21.0812 1.75118 20.8956 1.92685C20.7133 2.09919 20.4929 2.18537 20.2344 2.18537ZM24.4565 6.46591V11H22.97V3.36364H24.3968V4.60653H24.4913C24.667 4.20218 24.9421 3.87737 25.3166 3.6321C25.6944 3.38684 26.17 3.2642 26.7434 3.2642C27.2638 3.2642 27.7195 3.37358 28.1106 3.59233C28.5017 3.80777 28.805 4.12926 29.0204 4.55682C29.2359 4.98437 29.3436 5.51302 29.3436 6.14276V11H27.8571V6.32173C27.8571 5.76823 27.7129 5.3357 27.4245 5.02415C27.1362 4.70928 26.7401 4.55185 26.2363 4.55185C25.8916 4.55185 25.585 4.62642 25.3166 4.77557C25.0514 4.92472 24.841 5.14347 24.6852 5.43182C24.5327 5.71686 24.4565 6.06155 24.4565 6.46591Z" fill="black"/>
</svg>
